<?xml version="1.0" encoding="utf-8" standalone="no"?>
<!DOCTYPE svg PUBLIC "-//W3C//DTD SVG 1.1//EN"
  "http://www.w3.org/Graphics/SVG/1.1/DTD/svg11.dtd">
<svg xmlns:xlink="http://www.w3.org/1999/xlink" width="460.8pt" height="345.6pt" viewBox="0 0 460.8 345.6" xmlns="http://www.w3.org/2000/svg" version="1.1">
 <metadata>
  <rdf:RDF xmlns:dc="http://purl.org/dc/elements/1.1/" xmlns:cc="http://creativecommons.org/ns#" xmlns:rdf="http://www.w3.org/1999/02/22-rdf-syntax-ns#">
   <cc:Work>
    <dc:type rdf:resource="http://purl.org/dc/dcmitype/StillImage"/>
    <dc:date>2023-02-10T20:27:27.238930</dc:date>
    <dc:format>image/svg+xml</dc:format>
    <dc:creator>
     <cc:Agent>
      <dc:title>Matplotlib v3.6.3, https://matplotlib.org/</dc:title>
     </cc:Agent>
    </dc:creator>
   </cc:Work>
  </rdf:RDF>
 </metadata>
 <defs>
  <style type="text/css">*{stroke-linejoin: round; stroke-linecap: butt}</style>
 </defs>
 <g id="figure_1">
  <g id="patch_1">
   <path d="M 0 345.6 
L 460.8 345.6 
L 460.8 0 
L 0 0 
z
" style="fill: #ffffff"/>
  </g>
  <g id="axes_1">
   <g id="patch_2">
    <path d="M 34.16 291.28 
L 453.192 291.28 
L 453.192 3 
L 34.16 3 
z
" style="fill: #ffffff"/>
   </g>
   <g id="matplotlib.axis_1">
    <g id="xtick_1">
     <g id="line2d_1">
      <path d="M 120.734155 291.28 
L 120.734155 3 
" clip-path="url(#p6725c3be50)" style="fill: none; stroke: #b0b0b0; stroke-width: 0.8; stroke-linecap: square"/>
     </g>
     <g id="line2d_2">
      <defs>
       <path id="m47464b9b48" d="M 0 0 
L 0 3.5 
" style="stroke: #000000; stroke-width: 0.8"/>
      </defs>
      <g>
       <use xlink:href="#m47464b9b48" x="120.734155" y="291.28" style="stroke: #000000; stroke-width: 0.8"/>
      </g>
     </g>
     <g id="text_1">
      <!-- -2 -->
      <g transform="translate(110.763842 313.476875) scale(0.2 -0.2)">
       <defs>
        <path id="DejaVuSans-2d" d="M 313 2009 
L 1997 2009 
L 1997 1497 
L 313 1497 
L 313 2009 
z
" transform="scale(0.015625)"/>
        <path id="DejaVuSans-32" d="M 1228 531 
L 3431 531 
L 3431 0 
L 469 0 
L 469 531 
Q 828 903 1448 1529 
Q 2069 2156 2228 2338 
Q 2531 2678 2651 2914 
Q 2772 3150 2772 3378 
Q 2772 3750 2511 3984 
Q 2250 4219 1831 4219 
Q 1534 4219 1204 4116 
Q 875 4013 500 3803 
L 500 4441 
Q 881 4594 1212 4672 
Q 1544 4750 1819 4750 
Q 2544 4750 2975 4387 
Q 3406 4025 3406 3419 
Q 3406 3131 3298 2873 
Q 3191 2616 2906 2266 
Q 2828 2175 2409 1742 
Q 1991 1309 1228 531 
z
" transform="scale(0.015625)"/>
       </defs>
       <use xlink:href="#DejaVuSans-2d"/>
       <use xlink:href="#DejaVuSans-32" x="36.083984"/>
      </g>
     </g>
    </g>
    <g id="xtick_2">
     <g id="line2d_3">
      <path d="M 243.676 291.28 
L 243.676 3 
" clip-path="url(#p6725c3be50)" style="fill: none; stroke: #b0b0b0; stroke-width: 0.8; stroke-linecap: square"/>
     </g>
     <g id="line2d_4">
      <g>
       <use xlink:href="#m47464b9b48" x="243.676" y="291.28" style="stroke: #000000; stroke-width: 0.8"/>
      </g>
     </g>
     <g id="text_2">
      <!-- 0 -->
      <g transform="translate(237.3135 313.476875) scale(0.2 -0.2)">
       <defs>
        <path id="DejaVuSans-30" d="M 2034 4250 
Q 1547 4250 1301 3770 
Q 1056 3291 1056 2328 
Q 1056 1369 1301 889 
Q 1547 409 2034 409 
Q 2525 409 2770 889 
Q 3016 1369 3016 2328 
Q 3016 3291 2770 3770 
Q 2525 4250 2034 4250 
z
M 2034 4750 
Q 2819 4750 3233 4129 
Q 3647 3509 3647 2328 
Q 3647 1150 3233 529 
Q 2819 -91 2034 -91 
Q 1250 -91 836 529 
Q 422 1150 422 2328 
Q 422 3509 836 4129 
Q 1250 4750 2034 4750 
z
" transform="scale(0.015625)"/>
       </defs>
       <use xlink:href="#DejaVuSans-30"/>
      </g>
     </g>
    </g>
    <g id="xtick_3">
     <g id="line2d_5">
      <path d="M 366.617845 291.28 
L 366.617845 3 
" clip-path="url(#p6725c3be50)" style="fill: none; stroke: #b0b0b0; stroke-width: 0.8; stroke-linecap: square"/>
     </g>
     <g id="line2d_6">
      <g>
       <use xlink:href="#m47464b9b48" x="366.617845" y="291.28" style="stroke: #000000; stroke-width: 0.8"/>
      </g>
     </g>
     <g id="text_3">
      <!-- 2 -->
      <g transform="translate(360.255345 313.476875) scale(0.2 -0.2)">
       <use xlink:href="#DejaVuSans-32"/>
      </g>
     </g>
    </g>
    <g id="text_4">
     <!-- log10 of FEvals ratio -->
     <g transform="translate(141.371312 336.833125) scale(0.2 -0.2)">
      <defs>
       <path id="DejaVuSans-6c" d="M 603 4863 
L 1178 4863 
L 1178 0 
L 603 0 
L 603 4863 
z
" transform="scale(0.015625)"/>
       <path id="DejaVuSans-6f" d="M 1959 3097 
Q 1497 3097 1228 2736 
Q 959 2375 959 1747 
Q 959 1119 1226 758 
Q 1494 397 1959 397 
Q 2419 397 2687 759 
Q 2956 1122 2956 1747 
Q 2956 2369 2687 2733 
Q 2419 3097 1959 3097 
z
M 1959 3584 
Q 2709 3584 3137 3096 
Q 3566 2609 3566 1747 
Q 3566 888 3137 398 
Q 2709 -91 1959 -91 
Q 1206 -91 779 398 
Q 353 888 353 1747 
Q 353 2609 779 3096 
Q 1206 3584 1959 3584 
z
" transform="scale(0.015625)"/>
       <path id="DejaVuSans-67" d="M 2906 1791 
Q 2906 2416 2648 2759 
Q 2391 3103 1925 3103 
Q 1463 3103 1205 2759 
Q 947 2416 947 1791 
Q 947 1169 1205 825 
Q 1463 481 1925 481 
Q 2391 481 2648 825 
Q 2906 1169 2906 1791 
z
M 3481 434 
Q 3481 -459 3084 -895 
Q 2688 -1331 1869 -1331 
Q 1566 -1331 1297 -1286 
Q 1028 -1241 775 -1147 
L 775 -588 
Q 1028 -725 1275 -790 
Q 1522 -856 1778 -856 
Q 2344 -856 2625 -561 
Q 2906 -266 2906 331 
L 2906 616 
Q 2728 306 2450 153 
Q 2172 0 1784 0 
Q 1141 0 747 490 
Q 353 981 353 1791 
Q 353 2603 747 3093 
Q 1141 3584 1784 3584 
Q 2172 3584 2450 3431 
Q 2728 3278 2906 2969 
L 2906 3500 
L 3481 3500 
L 3481 434 
z
" transform="scale(0.015625)"/>
       <path id="DejaVuSans-31" d="M 794 531 
L 1825 531 
L 1825 4091 
L 703 3866 
L 703 4441 
L 1819 4666 
L 2450 4666 
L 2450 531 
L 3481 531 
L 3481 0 
L 794 0 
L 794 531 
z
" transform="scale(0.015625)"/>
       <path id="DejaVuSans-20" transform="scale(0.015625)"/>
       <path id="DejaVuSans-66" d="M 2375 4863 
L 2375 4384 
L 1825 4384 
Q 1516 4384 1395 4259 
Q 1275 4134 1275 3809 
L 1275 3500 
L 2222 3500 
L 2222 3053 
L 1275 3053 
L 1275 0 
L 697 0 
L 697 3053 
L 147 3053 
L 147 3500 
L 697 3500 
L 697 3744 
Q 697 4328 969 4595 
Q 1241 4863 1831 4863 
L 2375 4863 
z
" transform="scale(0.015625)"/>
       <path id="DejaVuSans-46" d="M 628 4666 
L 3309 4666 
L 3309 4134 
L 1259 4134 
L 1259 2759 
L 3109 2759 
L 3109 2228 
L 1259 2228 
L 1259 0 
L 628 0 
L 628 4666 
z
" transform="scale(0.015625)"/>
       <path id="DejaVuSans-45" d="M 628 4666 
L 3578 4666 
L 3578 4134 
L 1259 4134 
L 1259 2753 
L 3481 2753 
L 3481 2222 
L 1259 2222 
L 1259 531 
L 3634 531 
L 3634 0 
L 628 0 
L 628 4666 
z
" transform="scale(0.015625)"/>
       <path id="DejaVuSans-76" d="M 191 3500 
L 800 3500 
L 1894 563 
L 2988 3500 
L 3597 3500 
L 2284 0 
L 1503 0 
L 191 3500 
z
" transform="scale(0.015625)"/>
       <path id="DejaVuSans-61" d="M 2194 1759 
Q 1497 1759 1228 1600 
Q 959 1441 959 1056 
Q 959 750 1161 570 
Q 1363 391 1709 391 
Q 2188 391 2477 730 
Q 2766 1069 2766 1631 
L 2766 1759 
L 2194 1759 
z
M 3341 1997 
L 3341 0 
L 2766 0 
L 2766 531 
Q 2569 213 2275 61 
Q 1981 -91 1556 -91 
Q 1019 -91 701 211 
Q 384 513 384 1019 
Q 384 1609 779 1909 
Q 1175 2209 1959 2209 
L 2766 2209 
L 2766 2266 
Q 2766 2663 2505 2880 
Q 2244 3097 1772 3097 
Q 1472 3097 1187 3025 
Q 903 2953 641 2809 
L 641 3341 
Q 956 3463 1253 3523 
Q 1550 3584 1831 3584 
Q 2591 3584 2966 3190 
Q 3341 2797 3341 1997 
z
" transform="scale(0.015625)"/>
       <path id="DejaVuSans-73" d="M 2834 3397 
L 2834 2853 
Q 2591 2978 2328 3040 
Q 2066 3103 1784 3103 
Q 1356 3103 1142 2972 
Q 928 2841 928 2578 
Q 928 2378 1081 2264 
Q 1234 2150 1697 2047 
L 1894 2003 
Q 2506 1872 2764 1633 
Q 3022 1394 3022 966 
Q 3022 478 2636 193 
Q 2250 -91 1575 -91 
Q 1294 -91 989 -36 
Q 684 19 347 128 
L 347 722 
Q 666 556 975 473 
Q 1284 391 1588 391 
Q 1994 391 2212 530 
Q 2431 669 2431 922 
Q 2431 1156 2273 1281 
Q 2116 1406 1581 1522 
L 1381 1569 
Q 847 1681 609 1914 
Q 372 2147 372 2553 
Q 372 3047 722 3315 
Q 1072 3584 1716 3584 
Q 2034 3584 2315 3537 
Q 2597 3491 2834 3397 
z
" transform="scale(0.015625)"/>
       <path id="DejaVuSans-72" d="M 2631 2963 
Q 2534 3019 2420 3045 
Q 2306 3072 2169 3072 
Q 1681 3072 1420 2755 
Q 1159 2438 1159 1844 
L 1159 0 
L 581 0 
L 581 3500 
L 1159 3500 
L 1159 2956 
Q 1341 3275 1631 3429 
Q 1922 3584 2338 3584 
Q 2397 3584 2469 3576 
Q 2541 3569 2628 3553 
L 2631 2963 
z
" transform="scale(0.015625)"/>
       <path id="DejaVuSans-74" d="M 1172 4494 
L 1172 3500 
L 2356 3500 
L 2356 3053 
L 1172 3053 
L 1172 1153 
Q 1172 725 1289 603 
Q 1406 481 1766 481 
L 2356 481 
L 2356 0 
L 1766 0 
Q 1100 0 847 248 
Q 594 497 594 1153 
L 594 3053 
L 172 3053 
L 172 3500 
L 594 3500 
L 594 4494 
L 1172 4494 
z
" transform="scale(0.015625)"/>
       <path id="DejaVuSans-69" d="M 603 3500 
L 1178 3500 
L 1178 0 
L 603 0 
L 603 3500 
z
M 603 4863 
L 1178 4863 
L 1178 4134 
L 603 4134 
L 603 4863 
z
" transform="scale(0.015625)"/>
      </defs>
      <use xlink:href="#DejaVuSans-6c"/>
      <use xlink:href="#DejaVuSans-6f" x="27.783203"/>
      <use xlink:href="#DejaVuSans-67" x="88.964844"/>
      <use xlink:href="#DejaVuSans-31" x="152.441406"/>
      <use xlink:href="#DejaVuSans-30" x="216.064453"/>
      <use xlink:href="#DejaVuSans-20" x="279.6875"/>
      <use xlink:href="#DejaVuSans-6f" x="311.474609"/>
      <use xlink:href="#DejaVuSans-66" x="372.65625"/>
      <use xlink:href="#DejaVuSans-20" x="407.861328"/>
      <use xlink:href="#DejaVuSans-46" x="439.648438"/>
      <use xlink:href="#DejaVuSans-45" x="497.167969"/>
      <use xlink:href="#DejaVuSans-76" x="560.351562"/>
      <use xlink:href="#DejaVuSans-61" x="619.53125"/>
      <use xlink:href="#DejaVuSans-6c" x="680.810547"/>
      <use xlink:href="#DejaVuSans-73" x="708.59375"/>
      <use xlink:href="#DejaVuSans-20" x="760.693359"/>
      <use xlink:href="#DejaVuSans-72" x="792.480469"/>
      <use xlink:href="#DejaVuSans-61" x="833.59375"/>
      <use xlink:href="#DejaVuSans-74" x="894.873047"/>
      <use xlink:href="#DejaVuSans-69" x="934.082031"/>
      <use xlink:href="#DejaVuSans-6f" x="961.865234"/>
     </g>
    </g>
   </g>
   <g id="matplotlib.axis_2">
    <g id="ytick_1">
     <g id="line2d_7">
      <path d="M 34.16 288.453725 
L 453.192 288.453725 
" clip-path="url(#p6725c3be50)" style="fill: none; stroke: #b0b0b0; stroke-width: 0.8; stroke-linecap: square"/>
     </g>
     <g id="line2d_8">
      <defs>
       <path id="mf031ca1009" d="M 0 0 
L -3.5 0 
" style="stroke: #000000; stroke-width: 0.8"/>
      </defs>
      <g>
       <use xlink:href="#mf031ca1009" x="34.16" y="288.453725" style="stroke: #000000; stroke-width: 0.8"/>
      </g>
     </g>
    </g>
    <g id="ytick_2">
     <g id="line2d_9">
      <path d="M 34.16 217.796863 
L 453.192 217.796863 
" clip-path="url(#p6725c3be50)" style="fill: none; stroke: #b0b0b0; stroke-width: 0.8; stroke-linecap: square"/>
     </g>
     <g id="line2d_10">
      <g>
       <use xlink:href="#mf031ca1009" x="34.16" y="217.796863" style="stroke: #000000; stroke-width: 0.8"/>
      </g>
     </g>
    </g>
    <g id="ytick_3">
     <g id="line2d_11">
      <path d="M 34.16 147.14 
L 453.192 147.14 
" clip-path="url(#p6725c3be50)" style="fill: none; stroke: #b0b0b0; stroke-width: 0.8; stroke-linecap: square"/>
     </g>
     <g id="line2d_12">
      <g>
       <use xlink:href="#mf031ca1009" x="34.16" y="147.14" style="stroke: #000000; stroke-width: 0.8"/>
      </g>
     </g>
    </g>
    <g id="ytick_4">
     <g id="line2d_13">
      <path d="M 34.16 76.483137 
L 453.192 76.483137 
" clip-path="url(#p6725c3be50)" style="fill: none; stroke: #b0b0b0; stroke-width: 0.8; stroke-linecap: square"/>
     </g>
     <g id="line2d_14">
      <g>
       <use xlink:href="#mf031ca1009" x="34.16" y="76.483137" style="stroke: #000000; stroke-width: 0.8"/>
      </g>
     </g>
    </g>
    <g id="ytick_5">
     <g id="line2d_15">
      <path d="M 34.16 5.826275 
L 453.192 5.826275 
" clip-path="url(#p6725c3be50)" style="fill: none; stroke: #b0b0b0; stroke-width: 0.8; stroke-linecap: square"/>
     </g>
     <g id="line2d_16">
      <g>
       <use xlink:href="#mf031ca1009" x="34.16" y="5.826275" style="stroke: #000000; stroke-width: 0.8"/>
      </g>
     </g>
    </g>
    <g id="text_5">
     <!-- proportion of trials -->
     <g transform="translate(19.000625 240.14625) rotate(-90) scale(0.2 -0.2)">
      <defs>
       <path id="DejaVuSans-70" d="M 1159 525 
L 1159 -1331 
L 581 -1331 
L 581 3500 
L 1159 3500 
L 1159 2969 
Q 1341 3281 1617 3432 
Q 1894 3584 2278 3584 
Q 2916 3584 3314 3078 
Q 3713 2572 3713 1747 
Q 3713 922 3314 415 
Q 2916 -91 2278 -91 
Q 1894 -91 1617 61 
Q 1341 213 1159 525 
z
M 3116 1747 
Q 3116 2381 2855 2742 
Q 2594 3103 2138 3103 
Q 1681 3103 1420 2742 
Q 1159 2381 1159 1747 
Q 1159 1113 1420 752 
Q 1681 391 2138 391 
Q 2594 391 2855 752 
Q 3116 1113 3116 1747 
z
" transform="scale(0.015625)"/>
       <path id="DejaVuSans-6e" d="M 3513 2113 
L 3513 0 
L 2938 0 
L 2938 2094 
Q 2938 2591 2744 2837 
Q 2550 3084 2163 3084 
Q 1697 3084 1428 2787 
Q 1159 2491 1159 1978 
L 1159 0 
L 581 0 
L 581 3500 
L 1159 3500 
L 1159 2956 
Q 1366 3272 1645 3428 
Q 1925 3584 2291 3584 
Q 2894 3584 3203 3211 
Q 3513 2838 3513 2113 
z
" transform="scale(0.015625)"/>
      </defs>
      <use xlink:href="#DejaVuSans-70"/>
      <use xlink:href="#DejaVuSans-72" x="63.476562"/>
      <use xlink:href="#DejaVuSans-6f" x="102.339844"/>
      <use xlink:href="#DejaVuSans-70" x="163.521484"/>
      <use xlink:href="#DejaVuSans-6f" x="226.998047"/>
      <use xlink:href="#DejaVuSans-72" x="288.179688"/>
      <use xlink:href="#DejaVuSans-74" x="329.292969"/>
      <use xlink:href="#DejaVuSans-69" x="368.501953"/>
      <use xlink:href="#DejaVuSans-6f" x="396.285156"/>
      <use xlink:href="#DejaVuSans-6e" x="457.466797"/>
      <use xlink:href="#DejaVuSans-20" x="520.845703"/>
      <use xlink:href="#DejaVuSans-6f" x="552.632812"/>
      <use xlink:href="#DejaVuSans-66" x="613.814453"/>
      <use xlink:href="#DejaVuSans-20" x="649.019531"/>
      <use xlink:href="#DejaVuSans-74" x="680.806641"/>
      <use xlink:href="#DejaVuSans-72" x="720.015625"/>
      <use xlink:href="#DejaVuSans-69" x="761.128906"/>
      <use xlink:href="#DejaVuSans-61" x="788.912109"/>
      <use xlink:href="#DejaVuSans-6c" x="850.191406"/>
      <use xlink:href="#DejaVuSans-73" x="877.974609"/>
     </g>
    </g>
   </g>
   <g id="line2d_17">
    <path d="M 34.16 275.470839 
L 63.104065 275.365714 
L 63.104065 275.313152 
L 82.106508 275.208028 
L 82.106508 275.155465 
L 97.81091 275.050341 
L 97.81091 274.997778 
L 115.291214 274.892654 
L 115.291214 274.840092 
L 130.200817 274.734967 
L 130.200817 274.682405 
L 141.775444 274.57728 
L 141.775444 274.524718 
L 145.195894 274.419593 
L 145.195894 274.367031 
L 146.216266 274.261906 
L 146.216266 274.209344 
L 151.520551 274.104219 
L 151.520551 274.051657 
L 155.556439 273.946533 
L 155.627023 273.841408 
L 157.743338 273.736283 
L 157.743338 273.683721 
L 159.340281 273.578596 
L 159.340281 273.526034 
L 160.176066 273.42091 
L 160.176066 273.368347 
L 161.845139 273.263223 
L 161.845139 273.21066 
L 163.230991 273.105536 
L 163.230991 273.052974 
L 164.946146 272.947849 
L 164.946146 272.895287 
L 165.429575 272.790162 
L 165.519108 272.685038 
L 167.222963 272.579913 
L 167.265304 272.474788 
L 167.764708 272.369664 
L 167.764708 272.317101 
L 168.661903 272.211977 
L 168.661903 272.159415 
L 169.177564 272.05429 
L 169.213691 271.949165 
L 170.367778 271.844041 
L 170.424792 271.738916 
L 171.272283 271.633792 
L 171.272283 271.581229 
L 172.062649 271.476105 
L 172.062649 271.423542 
L 172.670092 271.318418 
L 172.670092 271.265856 
L 173.169536 271.160731 
L 173.169536 271.108169 
L 174.524978 271.003044 
L 174.629465 270.845357 
L 175.214042 270.740233 
L 175.214042 270.68767 
L 175.798699 270.582546 
L 175.824167 270.477421 
L 176.238311 270.372297 
L 176.331815 270.21461 
L 176.671951 270.109485 
L 176.743854 269.951798 
L 177.004202 269.846674 
L 177.004202 269.794111 
L 177.716303 269.688987 
L 177.716303 269.636424 
L 178.469578 269.5313 
L 178.500021 269.426175 
L 179.477401 269.321051 
L 179.477401 269.268488 
L 179.971754 269.163364 
L 180.051795 269.005677 
L 180.934352 268.900552 
L 180.969544 268.795428 
L 181.653418 268.690303 
L 181.673647 268.585179 
L 182.446676 268.480054 
L 182.470716 268.322367 
L 182.877904 268.217243 
L 182.961349 268.112118 
L 183.225449 268.006993 
L 183.304472 267.849307 
L 183.902872 267.744182 
L 183.902872 267.69162 
L 184.3731 267.586495 
L 184.402831 267.48137 
L 184.775796 267.376246 
L 184.78578 267.218559 
L 185.095714 267.113434 
L 185.095714 267.060872 
L 185.354853 266.955748 
L 185.44675 266.798061 
L 185.933468 266.692936 
L 185.933468 266.640374 
L 186.500772 266.535249 
L 186.601987 266.219875 
L 187.37071 266.114751 
L 187.463586 265.904502 
L 187.731628 265.799377 
L 187.731628 265.746815 
L 188.371611 265.64169 
L 188.480676 265.326316 
L 189.50404 265.221192 
L 189.547368 265.116067 
L 189.815473 265.010943 
L 189.815473 264.95838 
L 190.171469 264.853256 
L 190.279625 264.590444 
L 190.73069 264.48532 
L 190.73069 264.432757 
L 191.095975 264.327633 
L 191.131559 264.169946 
L 191.371875 264.064821 
L 191.371875 264.012259 
L 191.530504 263.907135 
L 191.581774 263.80201 
L 191.950008 263.696885 
L 191.950008 263.644323 
L 192.171512 263.539198 
L 192.188666 263.381512 
L 192.599239 263.276387 
L 192.599239 263.223825 
L 193.15046 263.1187 
L 193.238021 263.013576 
L 193.473992 262.908451 
L 193.473992 262.855889 
L 193.68169 262.750764 
L 193.790205 262.330266 
L 194.1601 262.225141 
L 194.1601 262.172579 
L 194.606353 262.067454 
L 194.710323 261.909767 
L 194.80342 261.804643 
L 194.862887 261.699518 
L 195.028535 261.594394 
L 195.05243 261.436707 
L 195.47986 261.331582 
L 195.582763 261.173895 
L 195.749789 261.068771 
L 195.777918 260.911084 
L 195.981732 260.805959 
L 196.090666 260.648272 
L 196.248817 260.543148 
L 196.248817 260.490585 
L 196.471794 260.385461 
L 196.471794 260.332899 
L 196.710474 260.227774 
L 196.8205 260.017525 
L 196.878717 259.9124 
L 196.961024 259.702151 
L 197.266033 259.597026 
L 197.33864 259.176528 
L 197.54012 259.071404 
L 197.617895 258.75603 
L 197.973587 258.650905 
L 197.973587 258.598343 
L 198.179587 258.493218 
L 198.212852 258.388094 
L 198.406821 258.282969 
L 198.492623 258.177845 
L 198.758942 258.07272 
L 198.804488 257.967595 
L 198.918321 257.862471 
L 198.918321 257.809909 
L 199.266264 257.704784 
L 199.330208 257.494535 
L 199.46958 257.38941 
L 199.46958 257.336848 
L 199.605917 257.231723 
L 199.637377 257.126599 
L 200.06452 257.021474 
L 200.15056 256.91635 
L 200.502986 256.811225 
L 200.591717 256.600976 
L 200.843486 256.495851 
L 200.934369 256.338164 
L 201.071252 256.23304 
L 201.141427 256.075353 
L 201.283809 255.970228 
L 201.361972 255.759979 
L 201.653106 255.654854 
L 201.730041 255.497168 
L 201.932622 255.392043 
L 201.99885 255.234356 
L 202.215342 255.129232 
L 202.316087 254.971545 
L 202.487783 254.86642 
L 202.597249 254.603609 
L 202.654811 254.551046 
L 202.654811 254.498484 
L 202.758487 254.340797 
L 202.888066 254.235673 
L 202.947047 254.077986 
L 203.135311 253.972861 
L 203.150387 253.867737 
L 203.337673 253.762612 
L 203.378119 253.552363 
L 203.597058 253.447238 
L 203.692054 253.236989 
L 203.821102 253.131864 
L 203.883415 253.02674 
L 204.073182 252.921615 
L 204.174495 252.553679 
L 204.366176 252.448555 
L 204.467327 252.290868 
L 204.585518 252.185743 
L 204.668904 252.080619 
L 204.782608 251.975494 
L 204.866372 251.607558 
L 205.128532 251.502433 
L 205.178488 251.292184 
L 205.399627 251.18706 
L 205.45525 250.97681 
L 205.60589 250.871686 
L 205.684013 250.608874 
L 205.840803 250.50375 
L 205.938553 250.398625 
L 206.192622 250.293501 
L 206.266696 250.083251 
L 206.396568 249.978127 
L 206.449897 249.873002 
L 206.603928 249.767878 
L 206.666817 249.505066 
L 206.771632 249.399942 
L 206.854161 249.242255 
L 206.941364 249.13713 
L 207.0402 248.821756 
L 207.150059 248.716632 
L 207.223014 248.506383 
L 207.479971 248.401258 
L 207.590171 248.138447 
L 207.697697 248.033322 
L 207.791404 247.717948 
L 207.984391 247.612824 
L 208.060334 247.455137 
L 208.175494 247.402574 
L 208.175494 247.350012 
L 208.237051 247.139763 
L 208.346395 247.034638 
L 208.379669 246.876952 
L 208.622045 246.771827 
L 208.684631 246.666702 
L 208.772178 246.561578 
L 208.772178 246.509015 
L 208.989715 246.403891 
L 209.08364 246.141079 
L 209.220754 246.035955 
L 209.329303 245.93083 
L 209.494576 245.825706 
L 209.591742 245.668019 
L 209.751442 245.562894 
L 209.860665 245.142396 
L 209.945429 245.037271 
L 210.044047 244.77446 
L 210.086467 244.721897 
L 210.086467 244.669335 
L 210.16054 244.353961 
L 210.402144 244.248837 
L 210.483491 243.986025 
L 210.68053 243.880901 
L 210.785908 243.302716 
L 210.922642 243.197591 
L 211.027021 243.039904 
L 211.181621 242.93478 
L 211.280479 242.72453 
L 211.465444 242.619406 
L 211.554241 242.304032 
L 211.661212 242.198907 
L 211.747547 241.936096 
L 211.961041 241.830971 
L 212.055403 241.56816 
L 212.156353 241.463035 
L 212.257127 240.937412 
L 212.399258 240.832288 
L 212.490654 240.622039 
L 212.534993 240.516914 
L 212.632417 240.254103 
L 212.734509 240.148978 
L 212.822822 239.781042 
L 212.8764 239.675917 
L 212.980737 239.413106 
L 213.020859 239.307981 
L 213.081759 239.097732 
L 213.194075 238.992608 
L 213.233036 238.782358 
L 213.4087 238.677234 
L 213.511232 238.466985 
L 213.611602 238.36186 
L 213.713576 238.046486 
L 213.728805 237.941362 
L 213.82376 237.625988 
L 213.890824 237.520863 
L 213.989115 237.20549 
L 214.131198 237.100365 
L 214.227255 236.732429 
L 214.285826 236.627304 
L 214.38465 236.417055 
L 214.484838 236.311931 
L 214.595792 235.891432 
L 214.740967 235.786308 
L 214.783041 235.576058 
L 214.964714 235.470934 
L 215.068487 235.15556 
L 215.120221 235.050436 
L 215.210367 234.682499 
L 215.270998 234.577375 
L 215.374994 234.104314 
L 215.447958 233.99919 
L 215.554575 233.78894 
L 215.736638 233.683816 
L 215.843599 233.158193 
L 215.857603 233.053068 
L 215.957866 232.790257 
L 215.998385 232.685132 
L 216.107442 232.264634 
L 216.181478 232.159509 
L 216.290678 231.4762 
L 216.334764 231.371075 
L 216.412968 231.108264 
L 216.568136 231.003139 
L 216.678514 230.582641 
L 216.745175 230.477516 
L 216.850713 230.267267 
L 216.90953 230.162142 
L 217.014388 229.741644 
L 217.043771 229.636519 
L 217.132455 229.163459 
L 217.246079 229.058334 
L 217.340054 228.795523 
L 217.402746 228.690398 
L 217.491309 228.2699 
L 217.544254 228.164775 
L 217.605239 228.007088 
L 217.670223 227.901964 
L 217.780713 227.323778 
L 217.831396 227.218654 
L 217.918918 227.008405 
L 218.015253 226.90328 
L 218.07972 226.745593 
L 218.231457 226.640469 
L 218.341931 226.21997 
L 218.365317 226.114846 
L 218.471014 225.74691 
L 218.490328 225.641785 
L 218.584546 225.116162 
L 218.672181 225.011037 
L 218.782714 224.695664 
L 218.813624 224.590539 
L 218.872794 224.38029 
L 218.942033 224.275165 
L 219.027429 224.012354 
L 219.149138 223.907229 
L 219.200026 223.591856 
L 219.292077 223.486731 
L 219.319158 223.329044 
L 219.440151 223.22392 
L 219.542404 222.803421 
L 219.618277 222.698297 
L 219.723061 222.120111 
L 219.738472 222.014987 
L 219.844002 221.699613 
L 219.891648 221.594488 
L 219.999247 221.068866 
L 220.049874 220.963741 
L 220.139778 220.753492 
L 220.244005 220.648367 
L 220.313932 220.227869 
L 220.429464 220.122744 
L 220.53396 219.649684 
L 220.583611 219.544559 
L 220.664939 219.176623 
L 220.717634 219.071498 
L 220.804157 218.703562 
L 220.930694 218.598438 
L 221.023481 218.388189 
L 221.056128 218.388189 
L 221.056128 218.283064 
L 221.160744 217.915128 
L 221.244622 217.810003 
L 221.313932 217.389505 
L 221.373536 217.28438 
L 221.481991 216.653633 
L 221.497402 216.548508 
L 221.60659 215.970323 
L 221.71548 215.865198 
L 221.824368 215.4447 
L 221.865324 215.339576 
L 221.933623 215.181889 
L 222.028936 215.076764 
L 222.134818 214.656266 
L 222.204632 214.551141 
L 222.313586 214.183205 
L 222.331426 214.07808 
L 222.428566 213.60502 
L 222.478458 213.499895 
L 222.587528 213.026835 
L 222.609816 212.974272 
L 222.609816 212.92171 
L 222.696462 212.133276 
L 222.801567 212.028151 
L 222.906509 211.607653 
L 223.01902 211.502528 
L 223.12339 211.187154 
L 223.219566 211.08203 
L 223.324732 210.608969 
L 223.347709 210.503845 
L 223.430228 209.978222 
L 223.582856 209.873097 
L 223.668533 209.400036 
L 223.728004 209.294912 
L 223.794996 208.926976 
L 223.861085 208.821851 
L 223.946486 208.138541 
L 224.013213 208.033417 
L 224.118591 207.560356 
L 224.21174 207.455232 
L 224.319623 206.771922 
L 224.358255 206.666797 
L 224.444379 206.141174 
L 224.540443 206.03605 
L 224.64595 205.510427 
L 224.701664 205.405302 
L 224.810291 204.879679 
L 224.835848 204.774555 
L 224.942813 204.459181 
L 224.982294 204.354056 
L 225.087059 203.880996 
L 225.124339 203.775871 
L 225.233063 203.197686 
L 225.242203 203.092561 
L 225.337329 202.566938 
L 225.388833 202.461814 
L 225.498628 202.041315 
L 225.527492 201.936191 
L 225.635035 201.515692 
L 225.676083 201.410568 
L 225.77891 200.674696 
L 225.800937 200.622133 
L 225.800937 200.569571 
L 225.899539 200.043948 
L 225.934859 199.938824 
L 226.042023 199.308076 
L 226.103268 199.202951 
L 226.201699 198.782453 
L 226.280887 198.677329 
L 226.368992 198.361955 
L 226.411406 198.25683 
L 226.511749 197.888894 
L 226.528987 197.78377 
L 226.626051 197.153022 
L 226.659327 197.047897 
L 226.714138 196.627399 
L 226.789873 196.522275 
L 226.891276 196.154338 
L 226.913754 196.049214 
L 227.019072 195.628716 
L 227.069419 195.576153 
L 227.069419 195.523591 
L 227.122409 195.208217 
L 227.229771 195.103093 
L 227.333925 194.892843 
L 227.370646 194.787719 
L 227.463603 194.524907 
L 227.535058 194.419783 
L 227.632036 193.89416 
L 227.657882 193.789035 
L 227.763099 193.368537 
L 227.804283 193.263412 
L 227.912373 193.053163 
L 227.939258 192.948039 
L 228.042533 192.317291 
L 228.106585 192.212166 
L 228.213722 191.686544 
L 228.289368 191.581419 
L 228.395373 190.845547 
L 228.469318 190.740422 
L 228.57735 190.162237 
L 228.63335 190.057112 
L 228.736227 189.689176 
L 228.803899 189.584052 
L 228.913438 189.058429 
L 228.947639 188.953304 
L 229.049881 188.637931 
L 229.071679 188.585368 
L 229.071679 188.532806 
L 229.172924 188.112308 
L 229.193792 188.007183 
L 229.292038 187.48156 
L 229.33021 187.376436 
L 229.433224 186.79825 
L 229.447663 186.693126 
L 229.547091 186.220065 
L 229.603238 186.11494 
L 229.700944 185.536755 
L 229.766968 185.431631 
L 229.876217 184.906008 
L 229.894252 184.800883 
L 229.992961 184.170136 
L 230.033908 184.065011 
L 230.141771 183.276577 
L 230.169986 183.171452 
L 230.269524 182.488142 
L 230.306485 182.383018 
L 230.408787 181.857395 
L 230.459561 181.804832 
L 230.459561 181.75227 
L 230.563472 180.858711 
L 230.593865 180.753587 
L 230.681654 180.122839 
L 230.718907 180.017714 
L 230.810737 179.492092 
L 230.877883 179.386967 
L 230.964366 178.913906 
L 231.037535 178.808782 
L 231.130728 178.125472 
L 231.167736 178.020347 
L 231.259698 177.442162 
L 231.287839 177.337037 
L 231.398675 176.653728 
L 231.431929 176.548603 
L 231.529034 175.917856 
L 231.564071 175.812731 
L 231.663374 175.392233 
L 231.701328 175.287108 
L 231.794377 174.603798 
L 231.846791 174.498674 
L 231.931861 174.078175 
L 231.960985 173.973051 
L 232.050608 173.657677 
L 232.148251 173.552552 
L 232.254914 172.711556 
L 232.295616 172.606431 
L 232.406302 171.923121 
L 232.456897 171.817997 
L 232.530688 171.134687 
L 232.579413 171.029562 
L 232.677589 170.241128 
L 232.716725 170.136003 
L 232.825115 169.295007 
L 232.877239 169.189882 
L 232.978938 168.559135 
L 233.033299 168.45401 
L 233.121276 167.350202 
L 233.20637 167.245077 
L 233.30477 166.298956 
L 233.346188 166.193831 
L 233.456251 165.352835 
L 233.471519 165.24771 
L 233.553377 164.722087 
L 233.616502 164.616963 
L 233.699581 164.038777 
L 233.773339 163.933653 
L 233.8835 163.460592 
L 233.925958 163.355467 
L 234.034925 162.514471 
L 234.081407 162.409346 
L 234.192443 161.673474 
L 234.203517 161.56835 
L 234.307297 161.147851 
L 234.346287 161.042727 
L 234.454151 160.359417 
L 234.491475 160.254292 
L 234.582354 159.465858 
L 234.61163 159.360733 
L 234.721025 158.572299 
L 234.730608 158.467174 
L 234.78816 158.1518 
L 234.889971 158.046676 
L 234.999116 157.521053 
L 235.023872 157.415928 
L 235.113952 156.99543 
L 235.163014 156.890305 
L 235.265735 156.417245 
L 235.297422 156.31212 
L 235.404933 155.576248 
L 235.448662 155.471123 
L 235.52688 154.735251 
L 235.579843 154.630127 
L 235.641008 154.209628 
L 235.736009 154.104504 
L 235.840688 153.526319 
L 235.874427 153.421194 
L 235.980955 152.475073 
L 235.995901 152.42251 
L 235.995901 152.369948 
L 236.096046 151.94945 
L 236.125811 151.844325 
L 236.22662 151.003329 
L 236.28075 150.898204 
L 236.391796 150.530268 
L 236.400165 150.425143 
L 236.502093 149.689271 
L 236.55345 149.584147 
L 236.663347 149.268773 
L 236.678791 149.163648 
L 236.77752 148.74315 
L 236.798399 148.638025 
L 236.901359 148.007278 
L 236.9163 147.954716 
L 236.9163 147.902153 
L 237.027109 146.956032 
L 237.03872 146.850907 
L 237.103993 146.272722 
L 237.188246 146.167598 
L 237.298426 145.589412 
L 237.353641 145.484288 
L 237.463109 144.958665 
L 237.504895 144.85354 
L 237.614365 143.959981 
L 237.641583 143.907419 
L 237.641583 143.854857 
L 237.751495 143.224109 
L 237.805576 143.118985 
L 237.910226 142.593362 
L 237.988667 142.488237 
L 238.093984 141.752365 
L 238.120175 141.64724 
L 238.227372 141.121617 
L 238.243126 141.016493 
L 238.353368 140.385745 
L 238.359487 140.280621 
L 238.464397 139.229375 
L 238.486701 139.12425 
L 238.596357 138.283254 
L 238.625426 138.178129 
L 238.723912 137.652506 
L 238.760073 137.547381 
L 238.859231 137.021759 
L 238.917699 136.916634 
L 239.017107 136.338449 
L 239.093466 136.233324 
L 239.203026 135.602577 
L 239.216244 135.497452 
L 239.318835 134.971829 
L 239.377288 134.866705 
L 239.466717 134.183395 
L 239.499277 134.07827 
L 239.596303 133.500085 
L 239.667462 133.39496 
L 239.769558 132.869337 
L 239.786007 132.816775 
L 239.786007 132.764213 
L 239.883632 131.975778 
L 239.977209 131.870654 
L 240.078608 130.977095 
L 240.100595 130.87197 
L 240.205571 130.18866 
L 240.244405 130.083536 
L 240.335319 129.452788 
L 240.377841 129.347664 
L 240.482574 128.927165 
L 240.502963 128.822041 
L 240.61377 128.086169 
L 240.621646 127.981044 
L 240.718861 127.140047 
L 240.768468 127.034923 
L 240.878771 126.404175 
L 240.93393 126.299051 
L 241.042391 125.563179 
L 241.071116 125.458054 
L 241.16363 125.090118 
L 241.195721 124.984993 
L 241.304932 124.196559 
L 241.379412 124.143997 
L 241.379412 124.091434 
L 241.485623 123.250438 
L 241.534959 123.145313 
L 241.640997 122.61969 
L 241.664435 122.514566 
L 241.769959 121.831256 
L 241.829739 121.726131 
L 241.912873 121.358195 
L 241.987423 121.253071 
L 242.092456 120.937697 
L 242.125246 120.832572 
L 242.229989 120.201825 
L 242.269275 120.0967 
L 242.368918 119.518515 
L 242.430948 119.41339 
L 242.489294 119.098017 
L 242.572248 118.992892 
L 242.676764 118.362144 
L 242.70216 118.25702 
L 242.792348 117.783959 
L 242.846652 117.678835 
L 242.945656 117.258336 
L 242.964052 117.153212 
L 243.073798 116.469902 
L 243.088164 116.364777 
L 243.194969 115.73403 
L 243.228622 115.628905 
L 243.335551 114.682784 
L 243.405751 114.577659 
L 243.502689 114.104599 
L 243.530515 113.999474 
L 243.641575 113.158477 
L 243.676 113.105915 
L 243.676 113.053353 
L 243.781423 112.632854 
L 243.90491 112.52773 
L 244.011617 112.054669 
L 244.034668 111.949545 
L 244.139809 111.318797 
L 244.171018 111.213673 
L 244.276509 110.793174 
L 244.308683 110.68805 
L 244.401774 110.162427 
L 244.487372 110.057302 
L 244.59825 109.479117 
L 244.64187 109.373992 
L 244.74604 108.743245 
L 244.799319 108.63812 
L 244.906907 108.007373 
L 245.006349 107.902248 
L 245.097128 107.166376 
L 245.15952 107.061251 
L 245.267963 106.220255 
L 245.296512 106.11513 
L 245.36575 105.747194 
L 245.427217 105.642069 
L 245.535639 104.906197 
L 245.580537 104.801073 
L 245.689684 104.222888 
L 245.743297 104.117763 
L 245.832597 103.802389 
L 245.876956 103.697265 
L 245.97785 103.013955 
L 246.05358 102.90883 
L 246.134652 102.593456 
L 246.181557 102.488332 
L 246.287024 101.910147 
L 246.344265 101.805022 
L 246.454286 100.964025 
L 246.467726 100.858901 
L 246.574624 100.333278 
L 246.655352 100.228153 
L 246.732299 99.755093 
L 246.782924 99.649968 
L 246.886057 98.966658 
L 246.915095 98.861534 
L 246.997458 98.230786 
L 247.046356 98.125662 
L 247.151004 97.547476 
L 247.181398 97.442352 
L 247.291818 96.70648 
L 247.332281 96.601355 
L 247.441339 96.02317 
L 247.488253 95.918045 
L 247.581484 95.497547 
L 247.667971 95.392422 
L 247.763224 95.024486 
L 247.809934 94.919362 
L 247.886933 94.393739 
L 247.961237 94.288614 
L 248.062713 93.920678 
L 248.117705 93.815553 
L 248.221696 93.50018 
L 248.271636 93.395055 
L 248.36194 92.974557 
L 248.405784 92.869432 
L 248.445427 92.659183 
L 248.580024 92.554058 
L 248.686489 92.291247 
L 248.752184 92.186122 
L 248.859283 91.397688 
L 248.901196 91.292563 
L 248.97013 90.76694 
L 249.051266 90.661816 
L 249.162182 90.399004 
L 249.179005 90.346442 
L 249.179005 90.29388 
L 249.28943 89.715695 
L 249.346654 89.61057 
L 249.452661 88.979822 
L 249.491019 88.874698 
L 249.58529 88.559324 
L 249.633148 88.4542 
L 249.738484 88.24395 
L 249.770688 88.138826 
L 249.876691 87.665765 
L 249.94026 87.560641 
L 250.050974 87.140142 
L 250.137638 87.035018 
L 250.230714 86.719644 
L 250.279602 86.614519 
L 250.390683 85.983772 
L 250.404192 85.878647 
L 250.492325 85.615836 
L 250.580505 85.510711 
L 250.687093 85.2479 
L 250.721518 85.142775 
L 250.830324 84.879964 
L 250.872387 84.774839 
L 250.967287 84.301778 
L 251.008243 84.196654 
L 251.116667 83.460782 
L 251.143898 83.355657 
L 251.251612 83.040283 
L 251.286421 82.935159 
L 251.385485 82.356974 
L 251.489249 82.251849 
L 251.600351 81.831351 
L 251.667822 81.726226 
L 251.77207 81.148041 
L 251.890533 81.042916 
L 251.987408 80.569856 
L 252.021183 80.464731 
L 252.112263 80.254482 
L 252.14954 80.149357 
L 252.244553 79.728859 
L 252.291741 79.623734 
L 252.400997 79.098111 
L 252.431508 78.992987 
L 252.500564 78.730175 
L 252.567524 78.625051 
L 252.646534 78.414802 
L 252.739646 78.309677 
L 252.821533 77.784054 
L 252.918976 77.678929 
L 252.960228 77.521243 
L 253.052798 77.416118 
L 253.156166 77.048182 
L 253.21434 76.943057 
L 253.295195 76.522559 
L 253.352079 76.417434 
L 253.458059 76.049498 
L 253.495635 75.944374 
L 253.552477 75.471313 
L 253.659273 75.366189 
L 253.763093 74.893128 
L 253.867729 74.788003 
L 253.91547 74.47263 
L 254.027976 74.367505 
L 254.132005 73.999569 
L 254.171916 73.894444 
L 254.275323 73.526508 
L 254.304913 73.421384 
L 254.390791 73.000885 
L 254.449004 72.895761 
L 254.555198 72.370138 
L 254.607492 72.265013 
L 254.712447 71.897077 
L 254.787863 71.791953 
L 254.884621 71.371454 
L 254.923019 71.26633 
L 255.018887 71.003518 
L 255.124013 70.898394 
L 255.162422 70.58302 
L 255.282602 70.477895 
L 255.390457 69.89971 
L 255.468894 69.794585 
L 255.57663 69.531774 
L 255.667247 69.426649 
L 255.742413 69.2164 
L 255.794 69.111276 
L 255.883488 68.795902 
L 255.983909 68.690777 
L 256.078928 68.270279 
L 256.138635 68.165154 
L 256.238348 67.902343 
L 256.297704 67.797218 
L 256.365573 67.586969 
L 256.437874 67.481845 
L 256.544281 67.271595 
L 256.659607 67.166471 
L 256.76874 66.798535 
L 256.878072 66.69341 
L 256.98104 66.325474 
L 257.056833 66.220349 
L 257.131475 65.957538 
L 257.209123 65.852413 
L 257.310208 65.431915 
L 257.399784 65.326791 
L 257.506853 64.958854 
L 257.553441 64.85373 
L 257.63663 64.433232 
L 257.680078 64.328107 
L 257.768497 64.012733 
L 257.798651 63.960171 
L 257.798651 63.907609 
L 257.798651 63.855046 
L 258.070232 63.749922 
L 258.163279 63.434548 
L 258.224105 63.329423 
L 258.327025 63.01405 
L 258.414289 62.908925 
L 258.515862 62.173053 
L 258.558217 62.067928 
L 258.666511 61.752555 
L 258.722579 61.64743 
L 258.826038 61.437181 
L 258.884419 61.332056 
L 258.926562 61.121807 
L 259.111272 61.016682 
L 259.210291 60.806433 
L 259.258135 60.701309 
L 259.331992 60.385935 
L 259.431735 60.28081 
L 259.541755 59.860312 
L 259.589061 59.755187 
L 259.683775 59.597501 
L 259.809111 59.492376 
L 259.914075 59.177002 
L 260.030885 59.071878 
L 260.141702 58.546255 
L 260.170017 58.44113 
L 260.259774 58.178319 
L 260.28505 58.073194 
L 260.33548 57.810383 
L 260.433643 57.705258 
L 260.540074 57.442447 
L 260.615514 57.337322 
L 260.718096 57.127073 
L 260.897128 57.021948 
L 260.966481 56.706574 
L 261.05152 56.60145 
L 261.143225 56.443763 
L 261.262233 56.338638 
L 261.328041 56.180951 
L 261.447461 56.075827 
L 261.484554 55.813015 
L 261.72321 55.707891 
L 261.781859 55.392517 
L 261.904656 55.287392 
L 262.012371 54.814332 
L 262.153225 54.709207 
L 262.254373 54.498958 
L 262.393789 54.393834 
L 262.481872 54.183584 
L 262.567816 54.07846 
L 262.572043 53.973335 
L 262.731928 53.920773 
L 262.731928 53.868211 
L 262.830437 53.500275 
L 262.898926 53.39515 
L 262.988042 53.079776 
L 263.158594 52.974652 
L 263.257829 52.816965 
L 263.335908 52.71184 
L 263.436259 52.291342 
L 263.509049 52.186217 
L 263.564139 52.081093 
L 263.698029 51.975968 
L 263.776529 51.713157 
L 263.834454 51.608032 
L 263.881361 51.397783 
L 264.002602 51.292658 
L 264.089378 51.082409 
L 264.259027 50.977284 
L 264.301275 50.819598 
L 264.503489 50.714473 
L 264.612209 50.504224 
L 264.639387 50.399099 
L 264.74685 49.978601 
L 264.881646 49.873476 
L 264.987964 49.663227 
L 265.031613 49.558103 
L 265.112262 49.347853 
L 265.318004 49.242729 
L 265.424247 48.769668 
L 265.542662 48.664544 
L 265.635412 48.296607 
L 265.757676 48.191483 
L 265.852991 47.876109 
L 265.889413 47.770985 
L 265.981223 47.66586 
L 266.152047 47.560735 
L 266.152047 47.508173 
L 266.342045 47.403048 
L 266.441437 47.087675 
L 266.524669 46.98255 
L 266.613837 46.719739 
L 266.703573 46.614614 
L 266.768389 46.351803 
L 266.948706 46.246678 
L 267.04513 46.088991 
L 267.139726 45.983867 
L 267.171029 45.878742 
L 267.306396 45.773617 
L 267.392673 45.563368 
L 267.426092 45.458244 
L 267.514942 45.14287 
L 267.544526 45.037745 
L 267.639572 44.827496 
L 267.784491 44.722372 
L 267.892065 44.301873 
L 267.952988 44.196749 
L 268.057163 43.986499 
L 268.137739 43.881375 
L 268.205347 43.723688 
L 268.444619 43.618563 
L 268.55144 43.408314 
L 268.677081 43.30319 
L 268.730781 43.145503 
L 269.085643 43.040378 
L 269.158677 42.882691 
L 269.238781 42.777567 
L 269.312224 42.567318 
L 269.510161 42.462193 
L 269.525793 42.357068 
L 269.739067 42.251944 
L 269.827132 42.041695 
L 270.106395 41.93657 
L 270.216582 41.463509 
L 270.399059 41.358385 
L 270.497435 41.043011 
L 270.619297 40.937886 
L 270.703998 40.675075 
L 270.795547 40.56995 
L 270.901911 40.202014 
L 271.091474 40.09689 
L 271.117228 39.991765 
L 271.366749 39.886641 
L 271.456051 39.623829 
L 271.601626 39.518705 
L 271.695182 39.203331 
L 271.757357 39.098206 
L 271.86493 38.782832 
L 272.061387 38.677708 
L 272.101702 38.572583 
L 272.200104 38.467459 
L 272.243389 38.362334 
L 272.392428 38.309772 
L 272.392428 38.257209 
L 272.476423 38.04696 
L 272.761432 37.941836 
L 272.86649 37.836711 
L 273.142021 37.731587 
L 273.168821 37.521337 
L 273.39482 37.416213 
L 273.437528 37.311088 
L 273.568337 37.205964 
L 273.669761 36.995714 
L 273.964947 36.89059 
L 274.030308 36.680341 
L 274.183203 36.575216 
L 274.21253 36.470091 
L 274.491782 36.364967 
L 274.561893 36.259842 
L 274.798179 36.154718 
L 274.798179 36.102155 
L 275.141942 35.997031 
L 275.233985 35.839344 
L 275.591522 35.734219 
L 275.629508 35.629095 
L 275.756668 35.52397 
L 275.836335 35.156034 
L 276.12367 35.05091 
L 276.12367 34.998347 
L 276.456958 34.893223 
L 276.555912 34.682974 
L 276.765196 34.577849 
L 276.765196 34.525287 
L 276.943341 34.420162 
L 277.049791 34.262475 
L 277.120365 34.157351 
L 277.201386 33.999664 
L 277.440087 33.947101 
L 277.440087 33.894539 
L 277.512714 33.736852 
L 277.757675 33.631728 
L 277.840853 33.316354 
L 277.975391 33.211229 
L 278.063118 33.00098 
L 278.344838 32.895856 
L 278.344838 32.843293 
L 278.589353 32.738169 
L 278.589353 32.685606 
L 278.776678 32.580482 
L 278.776678 32.527919 
L 278.96486 32.422795 
L 279.060149 32.265108 
L 279.361119 32.159983 
L 279.361119 32.107421 
L 279.791522 32.002297 
L 279.879303 31.84461 
L 280.379411 31.739485 
L 280.47397 31.634361 
L 280.769267 31.529236 
L 280.785609 31.424111 
L 280.920626 31.318987 
L 281.022406 31.1613 
L 281.338855 31.056175 
L 281.338855 31.003613 
L 281.502807 30.898488 
L 281.595683 30.688239 
L 281.646086 30.583115 
L 281.700787 30.47799 
L 282.329895 30.372865 
L 282.329895 30.267741 
L 282.642472 30.162616 
L 282.642472 30.110054 
L 283.015596 30.004929 
L 283.025777 29.899805 
L 283.463469 29.79468 
L 283.552104 29.636993 
L 283.720499 29.531869 
L 283.720499 29.479306 
L 283.969301 29.374182 
L 283.969301 29.32162 
L 284.311545 29.216495 
L 284.341345 29.11137 
L 284.546501 29.006246 
L 284.546501 28.953684 
L 285.117393 28.848559 
L 285.177175 28.743434 
L 285.59982 28.63831 
L 285.636523 28.533185 
L 286.274098 28.428061 
L 286.36748 28.322936 
L 286.843688 28.217811 
L 286.843688 28.165249 
L 287.221601 28.060125 
L 287.264374 27.955 
L 287.505503 27.849875 
L 287.505503 27.797313 
L 288.315765 27.692189 
L 288.392587 27.587064 
L 288.902731 27.481939 
L 288.902731 27.429377 
L 289.706696 27.324252 
L 289.784852 27.219128 
L 290.236038 27.114003 
L 290.342867 27.008879 
L 290.765296 26.903754 
L 290.853709 26.79863 
L 290.990272 26.693505 
L 291.079573 26.58838 
L 291.266663 26.483256 
L 291.274462 26.378131 
L 291.57678 26.273007 
L 291.57678 26.220444 
L 292.43996 26.11532 
L 292.43996 26.062757 
L 293.42717 25.957633 
L 293.491771 25.852508 
L 293.698255 25.747384 
L 293.698255 25.694821 
L 293.923321 25.589697 
L 294.006492 25.484572 
L 294.175427 25.379448 
L 294.208156 25.221761 
L 295.041757 25.116636 
L 295.110635 25.011512 
L 295.624956 24.906387 
L 295.733313 24.7487 
L 296.656833 24.643576 
L 296.656833 24.591013 
L 297.108476 24.485889 
L 297.108476 24.433326 
L 297.871162 24.328202 
L 297.871162 24.275639 
L 298.827537 24.170515 
L 298.827537 24.117953 
L 299.884949 24.012828 
L 299.884949 23.960266 
L 301.024266 23.855141 
L 301.024266 23.802579 
L 301.498902 23.697454 
L 301.498902 23.644892 
L 302.593399 23.539767 
L 302.681535 23.434643 
L 303.47203 23.329518 
L 303.47203 23.276956 
L 303.969358 23.171831 
L 303.969358 23.119269 
L 304.776132 23.014144 
L 304.776132 22.961582 
L 305.071188 22.856458 
L 305.071188 22.803895 
L 306.483263 22.698771 
L 306.483263 22.646208 
L 306.738885 22.593646 
L 306.738885 22.541084 
L 306.785896 22.435959 
L 309.750044 22.330835 
L 309.831172 22.120585 
L 310.686758 22.015461 
L 310.686758 21.962899 
L 311.099711 21.857774 
L 311.099711 21.805212 
L 312.411219 21.700087 
L 312.411219 21.647525 
L 315.560858 21.5424 
L 315.560858 21.489838 
L 318.215811 21.384713 
L 318.294312 21.227026 
L 318.512559 21.121902 
L 318.512559 21.06934 
L 319.842146 20.964215 
L 319.901944 20.85909 
L 322.635319 20.753966 
L 322.635319 20.701404 
L 325.851772 20.596279 
L 325.851772 20.543717 
L 329.657157 20.438592 
L 329.657157 20.38603 
L 334.322136 20.280905 
L 334.322136 20.228343 
L 336.687436 20.123218 
L 336.687436 20.070656 
L 340.342941 19.965531 
L 340.342941 19.912969 
L 344.693241 19.807845 
L 344.693241 19.755282 
L 366.617845 19.650158 
L 366.617845 19.597595 
L 375.504955 19.492471 
L 375.60047 19.387346 
L 383.041138 19.282222 
L 383.041138 19.229659 
L 395.946929 19.124535 
L 395.946929 19.071972 
L 412.128623 18.966848 
L 412.128623 18.914286 
L 453.192 18.809161 
L 453.192 18.809161 
" clip-path="url(#p6725c3be50)" style="fill: none; stroke: #000000; stroke-width: 3; stroke-linecap: square"/>
   </g>
   <g id="line2d_18">
    <path clip-path="url(#p6725c3be50)" style="fill: none; stroke: #000000; stroke-width: 3; stroke-linecap: square"/>
   </g>
   <g id="line2d_19">
    <path d="M 34.16 227.76572 
L 147.518792 227.673629 
L 147.518792 227.581537 
L 157.743338 227.489446 
L 157.743338 227.397355 
L 166.804634 227.305264 
L 166.804634 227.213173 
L 168.705191 227.121082 
L 168.705191 227.028991 
L 175.001597 226.9369 
L 175.001597 226.844809 
L 175.999168 226.752718 
L 175.999168 226.660627 
L 178.501576 226.568536 
L 178.501576 226.476445 
L 179.1796 226.384354 
L 179.1796 226.292263 
L 179.803375 226.200172 
L 179.803375 226.108081 
L 180.486787 226.015989 
L 180.486787 225.923898 
L 181.491484 225.831807 
L 181.491484 225.739716 
L 182.393635 225.647625 
L 182.393635 225.555534 
L 184.044047 225.463443 
L 184.136151 225.279261 
L 184.935563 225.18717 
L 184.935563 225.095079 
L 185.604224 225.002988 
L 185.654208 224.818806 
L 186.724878 224.726715 
L 186.724878 224.634624 
L 187.524465 224.542533 
L 187.611763 224.35835 
L 188.322527 224.266259 
L 188.322527 224.174168 
L 188.577023 224.082077 
L 188.577023 223.989986 
L 189.250098 223.897895 
L 189.258966 223.713713 
L 190.27205 223.621622 
L 190.27205 223.529531 
L 190.590198 223.43744 
L 190.590198 223.345349 
L 190.994249 223.253258 
L 191.072568 223.069076 
L 191.338164 222.976985 
L 191.351752 222.792803 
L 192.452259 222.700711 
L 192.452259 222.60862 
L 193.02957 222.516529 
L 193.02957 222.424438 
L 193.603447 222.332347 
L 193.603447 222.240256 
L 193.852554 222.148165 
L 193.852554 222.056074 
L 194.24217 221.963983 
L 194.24217 221.871892 
L 194.984181 221.779801 
L 194.984181 221.68771 
L 195.736596 221.595619 
L 195.736596 221.503528 
L 196.13691 221.411437 
L 196.13691 221.319346 
L 196.460725 221.227255 
L 196.49288 221.043072 
L 196.918288 220.950981 
L 196.918288 220.85889 
L 197.706903 220.766799 
L 197.706903 220.674708 
L 198.017319 220.582617 
L 198.017319 220.490526 
L 199.288512 220.398435 
L 199.288512 220.306344 
L 200.709669 220.214253 
L 200.709669 220.122162 
L 201.323017 220.030071 
L 201.323017 219.93798 
L 201.815035 219.845889 
L 201.815035 219.753798 
L 202.303963 219.661707 
L 202.393099 219.293342 
L 202.465 219.201251 
L 202.465 219.10916 
L 202.843726 219.017069 
L 202.92969 218.740796 
L 203.561854 218.648705 
L 203.561854 218.556614 
L 204.123827 218.464523 
L 204.123827 218.372432 
L 204.607564 218.280341 
L 204.607564 218.18825 
L 204.775213 218.096159 
L 204.864751 217.911977 
L 205.075185 217.819886 
L 205.075185 217.727794 
L 206.282688 217.635703 
L 206.282688 217.543612 
L 206.908416 217.451521 
L 206.908416 217.35943 
L 207.36122 217.267339 
L 207.36122 217.175248 
L 208.071001 217.083157 
L 208.071001 216.991066 
L 208.211336 216.898975 
L 208.211336 216.806884 
L 208.647687 216.714793 
L 208.647687 216.622702 
L 209.682378 216.530611 
L 209.682378 216.43852 
L 209.974194 216.346429 
L 210.065836 216.162247 
L 210.168795 216.070155 
L 210.168795 215.978064 
L 210.471524 215.885973 
L 210.471524 215.793882 
L 210.681406 215.701791 
L 210.751831 215.517609 
L 210.983049 215.425518 
L 210.983049 215.333427 
L 211.140352 215.241336 
L 211.140352 215.149245 
L 211.699706 215.057154 
L 211.780055 214.780881 
L 211.957964 214.68879 
L 211.986966 214.412516 
L 212.119109 214.320425 
L 212.119109 214.228334 
L 212.400662 214.136243 
L 212.400662 214.044152 
L 212.872649 213.952061 
L 212.873025 213.767879 
L 213.196736 213.675788 
L 213.29234 213.307424 
L 213.496638 213.215333 
L 213.496638 213.123242 
L 213.662248 213.031151 
L 213.735828 212.846968 
L 213.862035 212.754877 
L 213.862035 212.662786 
L 214.38856 212.570695 
L 214.451506 212.386513 
L 214.688573 212.294422 
L 214.688573 212.202331 
L 214.904425 212.11024 
L 215.008163 211.833967 
L 215.039846 211.741876 
L 215.039846 211.649785 
L 215.178002 211.557694 
L 215.178002 211.465603 
L 215.331643 211.373512 
L 215.394411 211.097238 
L 215.723258 211.005147 
L 215.754516 210.820965 
L 215.858502 210.728874 
L 215.858502 210.636783 
L 216.194023 210.544692 
L 216.271222 210.268419 
L 216.618089 210.176328 
L 216.679222 209.992146 
L 216.91453 209.900055 
L 216.91453 209.807964 
L 217.196869 209.715873 
L 217.305529 209.255417 
L 217.365496 209.163326 
L 217.36719 208.979144 
L 217.544452 208.887053 
L 217.544452 208.794962 
L 217.664476 208.702871 
L 217.763462 208.242416 
L 217.904214 208.150325 
L 217.995464 207.874051 
L 218.228708 207.78196 
L 218.320091 207.505687 
L 218.378317 207.413596 
L 218.46871 206.953141 
L 218.672678 206.86105 
L 218.700697 206.676868 
L 218.928129 206.584777 
L 218.928129 206.492686 
L 219.133362 206.400595 
L 219.173765 206.124321 
L 219.305297 206.03223 
L 219.36345 205.755957 
L 219.435869 205.663866 
L 219.435869 205.571775 
L 219.646928 205.479684 
L 219.646928 205.387593 
L 219.809065 205.295502 
L 219.916297 204.650864 
L 220.017998 204.558773 
L 220.017998 204.466682 
L 220.173519 204.374591 
L 220.263646 204.098318 
L 220.389207 204.006227 
L 220.389207 203.914136 
L 220.580048 203.822045 
L 220.68139 203.545772 
L 220.816432 203.453681 
L 220.866861 203.085317 
L 221.139685 202.993225 
L 221.24326 202.624861 
L 221.316837 202.53277 
L 221.37585 202.072315 
L 221.444748 201.980224 
L 221.490458 201.796042 
L 221.561329 201.703951 
L 221.646988 201.335586 
L 221.758707 201.243495 
L 221.866955 200.967222 
L 222.056711 200.875131 
L 222.161314 200.690949 
L 222.232749 200.598858 
L 222.311173 200.322585 
L 222.398226 200.230494 
L 222.489297 199.954221 
L 222.55372 199.86213 
L 222.642469 199.493765 
L 222.699694 199.401674 
L 222.751045 199.125401 
L 222.840492 199.03331 
L 222.948805 198.664946 
L 222.97085 198.572855 
L 223.073962 198.204491 
L 223.130439 198.1124 
L 223.200883 197.744035 
L 223.270674 197.651944 
L 223.270674 197.559853 
L 223.383057 197.467762 
L 223.450925 197.191489 
L 223.538033 197.099398 
L 223.612863 196.546852 
L 223.77745 196.454761 
L 223.77745 196.362669 
L 223.947929 196.270578 
L 224.047803 195.625941 
L 224.152479 195.53385 
L 224.211123 195.073395 
L 224.287025 194.981304 
L 224.389127 194.520848 
L 224.574147 194.428757 
L 224.675484 194.060393 
L 224.690378 193.968302 
L 224.769374 193.599938 
L 224.822936 193.507847 
L 224.902537 193.139482 
L 225.003982 193.047391 
L 225.096676 192.586936 
L 225.183601 192.494845 
L 225.287987 192.03439 
L 225.356977 191.942299 
L 225.436647 191.20557 
L 225.589524 191.113479 
L 225.691225 190.376751 
L 225.756331 190.28466 
L 225.85223 189.640022 
L 225.884879 189.547931 
L 225.949669 189.271658 
L 226.059419 189.179567 
L 226.132717 188.442839 
L 226.179494 188.350748 
L 226.283679 187.337746 
L 226.339213 187.245655 
L 226.43633 186.601018 
L 226.488965 186.508926 
L 226.592005 186.140562 
L 226.626653 186.048471 
L 226.716202 185.403834 
L 226.775137 185.311743 
L 226.868029 184.759196 
L 226.943932 184.667105 
L 227.039999 184.20665 
L 227.110368 184.114559 
L 227.204086 183.654104 
L 227.263293 183.562013 
L 227.345697 183.193648 
L 227.397404 183.101557 
L 227.488459 182.733193 
L 227.655824 182.641102 
L 227.745316 181.812283 
L 227.850033 181.720192 
L 227.958823 180.799281 
L 228.011915 180.70719 
L 228.076659 180.246735 
L 228.133114 180.154644 
L 228.236841 179.510006 
L 228.318433 179.417915 
L 228.418678 179.049551 
L 228.464746 178.95746 
L 228.559533 178.404914 
L 228.590785 178.312822 
L 228.681897 177.668185 
L 228.749734 177.576094 
L 228.85019 177.023548 
L 228.918115 176.931457 
L 229.023451 176.286819 
L 229.111992 176.194728 
L 229.222837 175.642182 
L 229.238992 175.550091 
L 229.307085 175.181727 
L 229.370749 175.089636 
L 229.414297 174.721271 
L 229.514303 174.62918 
L 229.612985 173.800361 
L 229.65139 173.70827 
L 229.750408 173.063632 
L 229.785515 172.971541 
L 229.894288 171.774357 
L 229.911416 171.682266 
L 230.001835 170.945538 
L 230.038753 170.853447 
L 230.145753 170.20881 
L 230.164316 170.116718 
L 230.263626 169.287899 
L 230.292357 169.195808 
L 230.397266 168.459079 
L 230.481588 168.366988 
L 230.590113 167.722351 
L 230.629 167.63026 
L 230.699089 167.077714 
L 230.785556 166.985623 
L 230.876132 166.433076 
L 230.908692 166.340985 
L 230.996161 165.88053 
L 231.104531 165.788439 
L 231.190425 164.775437 
L 231.225982 164.683346 
L 231.299979 164.038709 
L 231.357085 163.946618 
L 231.465949 163.209889 
L 231.496731 163.117798 
L 231.598541 162.565252 
L 231.637538 162.473161 
L 231.718518 161.55225 
L 231.816902 161.460159 
L 231.92042 160.63134 
L 231.94965 160.539249 
L 232.056082 159.710429 
L 232.104573 159.618338 
L 232.194205 159.157883 
L 232.233183 159.065792 
L 232.329404 158.144881 
L 232.379634 158.05279 
L 232.481216 156.947697 
L 232.500171 156.855606 
L 232.600308 156.118878 
L 232.641711 156.026787 
L 232.746016 155.105876 
L 232.776832 155.013785 
L 232.880229 153.724511 
L 232.951401 153.632419 
L 233.014496 152.987782 
L 233.073273 152.895691 
L 233.179651 151.606416 
L 233.260324 151.514325 
L 233.368215 150.501324 
L 233.393528 150.409232 
L 233.487975 149.580413 
L 233.513147 149.488322 
L 233.611984 148.935776 
L 233.646431 148.843685 
L 233.723038 148.383229 
L 233.776067 148.383229 
L 233.776067 148.291138 
L 233.875162 147.370228 
L 233.89808 147.278137 
L 234.006747 146.541408 
L 234.046785 146.449317 
L 234.145941 145.712589 
L 234.236281 145.620498 
L 234.311352 144.883769 
L 234.375992 144.791678 
L 234.478944 143.870768 
L 234.520581 143.778676 
L 234.597262 143.502403 
L 234.655909 143.410312 
L 234.765958 142.397311 
L 234.78495 142.30522 
L 234.882567 141.844764 
L 234.926985 141.752673 
L 235.01874 140.739672 
L 235.052841 140.647581 
L 235.157849 139.818761 
L 235.177013 139.72667 
L 235.27346 138.621577 
L 235.372327 138.529486 
L 235.473393 138.161122 
L 235.541851 138.069031 
L 235.650396 137.14812 
L 235.667859 137.056029 
L 235.761862 136.135119 
L 235.818553 136.043028 
L 235.928764 135.39839 
L 235.9522 135.306299 
L 236.051609 134.109116 
L 236.090068 134.017025 
L 236.190593 133.188205 
L 236.26538 133.096114 
L 236.376227 132.359386 
L 236.404704 132.267294 
L 236.506233 131.254293 
L 236.547939 131.162202 
L 236.649424 130.609655 
L 236.688852 130.517564 
L 236.784339 129.780836 
L 236.885596 129.688745 
L 236.97288 129.044107 
L 237.005178 128.952016 
L 237.115984 127.846924 
L 237.132093 127.754833 
L 237.232089 126.557649 
L 237.251478 126.465558 
L 237.350135 125.452556 
L 237.434062 125.360465 
L 237.526204 124.807919 
L 237.556195 124.715828 
L 237.625631 123.979099 
L 237.685473 123.887008 
L 237.775194 123.15028 
L 237.82804 123.058189 
L 237.93731 122.137278 
L 238.00297 122.045187 
L 238.112033 120.940095 
L 238.146266 120.848004 
L 238.244429 119.835002 
L 238.295472 119.742911 
L 238.368665 119.190364 
L 238.439271 119.098273 
L 238.546727 118.361545 
L 238.575497 118.269454 
L 238.662081 117.808999 
L 238.701093 117.716908 
L 238.802794 116.427633 
L 238.827179 116.335542 
L 238.887812 115.875086 
L 238.943775 115.782995 
L 239.023302 115.230449 
L 239.093208 115.138358 
L 239.170521 114.493721 
L 239.228751 114.40163 
L 239.334861 113.756992 
L 239.398958 113.664901 
L 239.50637 112.836082 
L 239.534788 112.743991 
L 239.612573 112.283535 
L 239.650896 112.191444 
L 239.760824 111.454716 
L 239.771545 111.362625 
L 239.880441 110.717987 
L 239.89977 110.625896 
L 240.010168 109.336621 
L 240.019493 109.24453 
L 240.111182 108.507802 
L 240.189468 108.415711 
L 240.300434 107.955256 
L 240.327419 107.863165 
L 240.436494 107.218527 
L 240.453368 107.126436 
L 240.563101 106.389708 
L 240.585038 106.297617 
L 240.695089 105.192524 
L 240.706103 105.100433 
L 240.804583 104.271613 
L 240.823199 104.179522 
L 240.930693 103.442794 
L 240.96659 103.350703 
L 241.070695 102.613974 
L 241.117728 102.521883 
L 241.196064 102.061428 
L 241.264834 101.969337 
L 241.360055 101.048426 
L 241.40489 100.956335 
L 241.48863 100.311698 
L 241.52167 100.219607 
L 241.619068 99.667061 
L 241.655919 99.57497 
L 241.712446 99.206605 
L 241.796567 99.114514 
L 241.90334 98.654059 
L 241.92281 98.561968 
L 242.02853 97.733148 
L 242.059714 97.641057 
L 242.156707 97.272693 
L 242.229402 97.180602 
L 242.312943 96.443874 
L 242.379443 96.351783 
L 242.48558 95.707145 
L 242.50158 95.615054 
L 242.59202 94.878326 
L 242.658509 94.786235 
L 242.727436 94.141597 
L 242.798228 94.049506 
L 242.900126 93.128596 
L 242.946503 93.036505 
L 243.023697 92.576049 
L 243.070567 92.483958 
L 243.153661 91.839321 
L 243.206554 91.74723 
L 243.31315 91.194683 
L 243.357549 91.102592 
L 243.456613 90.550046 
L 243.53652 90.457955 
L 243.637753 89.721227 
L 243.676 89.629136 
L 243.783335 88.616134 
L 243.817252 88.524043 
L 243.902192 87.971496 
L 243.95749 87.879405 
L 244.056086 87.511041 
L 244.075775 87.41895 
L 244.18509 86.958495 
L 244.260191 86.866404 
L 244.36724 86.405949 
L 244.44111 86.313857 
L 244.538581 85.853402 
L 244.588168 85.761311 
L 244.684654 85.024583 
L 244.717903 84.932492 
L 244.786355 84.564127 
L 244.89377 84.472036 
L 244.996425 84.195763 
L 245.033691 84.103672 
L 245.131186 83.551126 
L 245.209983 83.459035 
L 245.316973 82.814397 
L 245.333174 82.722306 
L 245.418956 82.16976 
L 245.477611 82.077669 
L 245.580924 81.525123 
L 245.646901 81.433032 
L 245.749732 80.880485 
L 245.792678 80.788394 
L 245.899371 80.051666 
L 245.921943 79.959575 
L 246.020195 79.130755 
L 246.03522 79.038664 
L 246.125037 78.486118 
L 246.189393 78.394027 
L 246.288162 77.749389 
L 246.335636 77.657298 
L 246.401287 77.012661 
L 246.497187 76.92057 
L 246.572766 76.275932 
L 246.679305 76.183841 
L 246.714003 75.907568 
L 246.816974 75.815477 
L 246.924131 74.802475 
L 246.966017 74.710384 
L 247.055925 74.157838 
L 247.089706 74.065747 
L 247.1911 73.605292 
L 247.308026 73.513201 
L 247.394656 73.144836 
L 247.476984 73.052745 
L 247.519904 72.776472 
L 247.631506 72.684381 
L 247.688006 72.223926 
L 247.7744 72.131835 
L 247.813027 71.855562 
L 247.913164 71.763471 
L 248.0188 71.026742 
L 248.096157 70.934651 
L 248.207233 70.474196 
L 248.22969 70.474196 
L 248.22969 70.382105 
L 248.338238 69.461194 
L 248.454504 69.369103 
L 248.543344 68.908648 
L 248.581074 68.816557 
L 248.67389 68.171919 
L 248.76351 68.079828 
L 248.808378 67.711464 
L 248.959402 67.619373 
L 248.959402 67.527282 
L 249.115222 67.435191 
L 249.214869 66.974736 
L 249.263555 66.882645 
L 249.374136 66.422189 
L 249.463663 66.330098 
L 249.532216 65.59337 
L 249.615583 65.501279 
L 249.716216 65.040824 
L 249.744362 64.948732 
L 249.810355 64.672459 
L 249.961565 64.580368 
L 250.065988 64.119913 
L 250.133679 64.027822 
L 250.237988 63.199002 
L 250.31256 63.106911 
L 250.376111 62.554365 
L 250.556557 62.462274 
L 250.660744 62.09391 
L 250.722551 62.001819 
L 250.823093 61.541363 
L 250.899465 61.449272 
L 250.899465 61.357181 
L 251.065712 61.26509 
L 251.071403 61.080908 
L 251.276956 60.988817 
L 251.331184 60.804635 
L 251.573156 60.712544 
L 251.68167 60.252089 
L 251.756091 60.159998 
L 251.837789 59.791633 
L 252.002369 59.699542 
L 252.110361 59.423269 
L 252.142466 59.331178 
L 252.194561 59.054905 
L 252.37999 58.962814 
L 252.476938 58.502359 
L 252.551231 58.410268 
L 252.642074 58.226085 
L 252.712286 58.133994 
L 252.712286 58.041903 
L 252.943693 57.949812 
L 252.9947 57.673539 
L 253.399768 57.581448 
L 253.500038 57.397266 
L 253.548253 57.397266 
L 253.548253 57.305175 
L 253.554781 57.120993 
L 253.738798 57.028902 
L 253.818767 56.476355 
L 254.007442 56.384264 
L 254.090056 56.107991 
L 254.222086 56.0159 
L 254.222086 55.923809 
L 254.493775 55.831718 
L 254.596835 55.371263 
L 254.690381 55.279172 
L 254.724183 55.002898 
L 254.810559 54.910807 
L 254.858761 54.542443 
L 255.044678 54.450352 
L 255.12622 53.989897 
L 255.342049 53.897806 
L 255.342049 53.805715 
L 255.578973 53.713624 
L 255.676739 53.529442 
L 256.108124 53.43735 
L 256.108124 53.345259 
L 256.349074 53.253168 
L 256.42989 52.884804 
L 256.611368 52.792713 
L 256.611368 52.700622 
L 256.767496 52.608531 
L 256.845933 52.424349 
L 256.974777 52.332258 
L 257.026571 52.055985 
L 257.137313 51.963894 
L 257.189799 51.779711 
L 257.310078 51.68762 
L 257.402384 51.411347 
L 257.80404 51.319256 
L 257.878905 51.135074 
L 258.230372 51.042983 
L 258.328997 50.858801 
L 258.39167 50.76671 
L 258.427249 50.582528 
L 258.618307 50.490437 
L 258.618307 50.398346 
L 258.752566 50.306255 
L 258.814687 50.029981 
L 259.101595 49.93789 
L 259.101595 49.845799 
L 259.69365 49.753708 
L 259.69365 49.661617 
L 259.878991 49.569526 
L 259.90132 49.385344 
L 260.096441 49.293253 
L 260.153423 49.01698 
L 260.284527 48.924889 
L 260.395203 48.464433 
L 260.68878 48.372342 
L 260.775657 48.096069 
L 260.968527 48.003978 
L 261.007299 47.819796 
L 261.258959 47.727705 
L 261.258959 47.635614 
L 261.868348 47.543523 
L 261.965122 47.175159 
L 262.484418 47.083068 
L 262.582914 46.898886 
L 263.01853 46.806794 
L 263.108525 46.622612 
L 263.183431 46.530521 
L 263.183431 46.43843 
L 263.575012 46.346339 
L 263.63479 46.162157 
L 263.847183 46.070066 
L 263.895259 45.885884 
L 264.661926 45.793793 
L 264.661926 45.701702 
L 265.358775 45.609611 
L 265.358775 45.51752 
L 265.689837 45.425429 
L 265.724709 45.241246 
L 266.089482 45.149155 
L 266.150979 44.964973 
L 266.753565 44.872882 
L 266.83324 44.6887 
L 266.971111 44.596609 
L 267.06027 44.320336 
L 267.866238 44.228245 
L 267.866238 44.136154 
L 268.223565 44.044063 
L 268.223565 43.951972 
L 269.278092 43.859881 
L 269.278092 43.76779 
L 270.216143 43.675699 
L 270.216143 43.583607 
L 270.752327 43.491516 
L 270.752327 43.399425 
L 271.057758 43.307334 
L 271.057758 43.215243 
L 271.211057 43.123152 
L 271.211057 43.031061 
L 271.771363 42.93897 
L 271.771363 42.846879 
L 272.924062 42.754788 
L 272.924062 42.662697 
L 273.267635 42.570606 
L 273.267635 42.478515 
L 274.141276 42.386424 
L 274.198259 42.110151 
L 274.477042 42.01806 
L 274.477042 41.925968 
L 274.627332 41.833877 
L 274.733615 41.649695 
L 275.36601 41.557604 
L 275.377487 41.373422 
L 276.625462 41.281331 
L 276.625462 41.18924 
L 277.429141 41.097149 
L 277.429141 41.005058 
L 278.235911 40.912967 
L 278.235911 40.820876 
L 279.21249 40.728785 
L 279.21249 40.636694 
L 279.56463 40.544603 
L 279.56463 40.452512 
L 280.125749 40.360421 
L 280.192639 40.176238 
L 281.302795 40.084147 
L 281.302795 39.992056 
L 282.679112 39.899965 
L 282.679112 39.807874 
L 284.312891 39.715783 
L 284.312891 39.623692 
L 284.564102 39.531601 
L 284.564102 39.43951 
L 285.060672 39.347419 
L 285.060672 39.255328 
L 285.501918 39.163237 
L 285.501918 39.071146 
L 288.232116 38.979055 
L 288.232116 38.886964 
L 290.33278 38.794873 
L 290.33278 38.702782 
L 291.7156 38.61069 
L 291.7156 38.518599 
L 295.301056 38.426508 
L 295.301056 38.334417 
L 301.260307 38.242326 
L 301.260307 38.150235 
L 307.421592 38.058144 
L 307.421592 37.966053 
L 316.177301 37.873962 
L 316.177301 37.781871 
L 317.467345 37.68978 
L 317.467345 37.597689 
L 321.010441 37.505598 
L 321.010441 37.413507 
L 326.883793 37.321416 
L 326.883793 37.229325 
L 340.882384 37.137234 
L 340.882384 37.045143 
L 453.192 37.045143 
L 453.192 37.045143 
" clip-path="url(#p6725c3be50)" style="fill: none; stroke: #00bfbf; stroke-width: 3; stroke-linecap: square"/>
   </g>
   <g id="line2d_20">
    <path clip-path="url(#p6725c3be50)" style="fill: none; stroke: #00bfbf; stroke-width: 3; stroke-linecap: square"/>
   </g>
   <g id="line2d_21">
    <path d="M 34.16 183.625982 
L 176.09977 183.625982 
L 176.09977 183.255565 
L 189.122368 183.255565 
L 189.122368 182.885149 
L 196.212439 182.885149 
L 196.212439 182.514733 
L 196.349988 182.514733 
L 196.349988 182.144317 
L 196.93693 182.144317 
L 196.93693 181.773901 
L 198.618725 181.773901 
L 198.618725 181.403485 
L 199.573159 181.403485 
L 199.573159 181.033069 
L 199.971401 181.033069 
L 199.971401 180.662653 
L 200.616973 180.662653 
L 200.616973 180.292237 
L 201.554725 180.292237 
L 201.556351 179.551405 
L 201.841896 179.551405 
L 201.841896 179.180989 
L 202.18704 179.180989 
L 202.274717 178.069741 
L 202.559828 178.069741 
L 202.645044 177.328909 
L 204.414138 177.328909 
L 204.414138 176.958493 
L 204.543454 176.958493 
L 204.543454 176.588076 
L 205.082691 176.588076 
L 205.082691 176.21766 
L 206.164588 176.21766 
L 206.171384 175.476828 
L 206.448109 175.476828 
L 206.448109 175.106412 
L 207.25328 175.106412 
L 207.25328 174.735996 
L 207.961445 174.735996 
L 207.961445 174.36558 
L 208.716846 174.36558 
L 208.716846 173.995164 
L 209.300268 173.995164 
L 209.344409 173.254332 
L 209.959528 173.254332 
L 209.959528 172.883916 
L 210.709794 172.883916 
L 210.709794 172.5135 
L 210.870338 172.5135 
L 210.870338 172.143084 
L 211.27483 172.143084 
L 211.27483 171.772668 
L 212.633006 171.772668 
L 212.633006 171.402252 
L 213.855332 171.402252 
L 213.855332 171.031836 
L 214.241812 171.031836 
L 214.241812 170.66142 
L 214.59821 170.66142 
L 214.59821 170.291004 
L 214.80117 170.291004 
L 214.80117 169.920587 
L 215.063314 169.920587 
L 215.120518 169.179755 
L 215.194154 169.179755 
L 215.194154 168.809339 
L 215.379558 168.809339 
L 215.379558 168.438923 
L 215.583845 168.438923 
L 215.583845 168.068507 
L 215.883066 168.068507 
L 215.895856 167.327675 
L 216.528171 167.327675 
L 216.60368 166.586843 
L 217.049599 166.586843 
L 217.073831 165.846011 
L 217.903654 165.846011 
L 217.952252 165.105179 
L 219.503569 165.105179 
L 219.570467 164.364347 
L 220.135698 164.364347 
L 220.135698 163.993931 
L 220.467932 163.993931 
L 220.517485 162.882682 
L 221.035473 162.882682 
L 221.06177 162.14185 
L 221.175423 162.14185 
L 221.175423 161.771434 
L 221.320636 161.771434 
L 221.320636 161.401018 
L 221.454133 161.401018 
L 221.454133 161.030602 
L 221.573665 161.030602 
L 221.573665 160.660186 
L 222.367008 160.660186 
L 222.367008 160.28977 
L 222.478375 160.28977 
L 222.478375 159.919354 
L 222.626962 159.919354 
L 222.626962 159.178522 
L 223.396988 159.178522 
L 223.396988 158.808106 
L 223.567067 158.808106 
L 223.567067 158.43769 
L 223.782024 158.43769 
L 223.892936 157.326442 
L 223.986312 157.326442 
L 223.989534 156.585609 
L 224.474231 156.585609 
L 224.474231 156.215193 
L 224.975829 156.215193 
L 225.078227 155.474361 
L 225.117833 155.474361 
L 225.150673 154.733529 
L 225.251298 154.733529 
L 225.251298 154.363113 
L 225.602774 154.363113 
L 225.602774 153.992697 
L 225.961977 153.992697 
L 225.961977 153.622281 
L 226.224399 153.622281 
L 226.224399 153.251865 
L 226.425977 153.251865 
L 226.489496 152.511033 
L 226.891684 152.511033 
L 226.955656 151.770201 
L 227.106115 151.770201 
L 227.106115 151.399785 
L 227.398551 151.399785 
L 227.398551 151.029369 
L 227.712146 151.029369 
L 227.73843 149.91812 
L 227.899022 149.91812 
L 227.926668 149.177288 
L 228.050373 149.177288 
L 228.143116 148.06604 
L 228.883905 148.06604 
L 228.985623 147.325208 
L 229.067545 147.325208 
L 229.1248 146.584376 
L 229.457078 146.584376 
L 229.516219 145.843544 
L 229.712386 145.843544 
L 229.767932 145.102712 
L 230.021597 145.102712 
L 230.111799 143.991464 
L 230.363463 143.991464 
L 230.363463 143.621047 
L 230.924891 143.621047 
L 230.984142 142.139383 
L 231.106754 142.139383 
L 231.201246 141.398551 
L 231.32974 141.398551 
L 231.43104 140.657719 
L 231.480648 140.657719 
L 231.509343 139.546471 
L 231.672074 139.546471 
L 231.672074 139.176055 
L 231.787438 139.176055 
L 231.795447 138.435223 
L 232.006787 138.435223 
L 232.006787 138.064807 
L 232.196854 138.064807 
L 232.196854 137.694391 
L 232.51628 137.694391 
L 232.526168 136.953558 
L 232.632683 136.953558 
L 232.65114 136.212726 
L 232.817487 136.212726 
L 232.89293 135.101478 
L 232.935557 135.101478 
L 232.935557 134.731062 
L 233.283194 134.731062 
L 233.333799 133.249398 
L 233.422243 133.249398 
L 233.520997 132.13815 
L 233.703382 132.13815 
L 233.733036 131.026902 
L 233.861612 131.026902 
L 233.861612 130.656485 
L 234.207313 130.656485 
L 234.231753 129.915653 
L 234.605555 129.915653 
L 234.709426 129.174821 
L 234.719794 129.174821 
L 234.81916 128.063573 
L 234.858617 128.063573 
L 234.879509 127.322741 
L 235.006988 127.322741 
L 235.015562 126.581909 
L 235.18659 126.581909 
L 235.233187 125.841077 
L 235.387541 125.841077 
L 235.387541 125.470661 
L 235.611839 125.470661 
L 235.641279 124.359413 
L 235.786118 124.359413 
L 235.816126 123.248164 
L 236.006698 123.248164 
L 236.10501 121.396084 
L 236.159023 121.396084 
L 236.159023 121.025668 
L 236.404696 121.025668 
L 236.503308 119.91442 
L 236.575607 119.91442 
L 236.592531 119.173588 
L 236.744168 119.173588 
L 236.744168 118.803172 
L 236.908871 118.803172 
L 236.908871 118.432756 
L 237.087897 118.432756 
L 237.14241 117.691924 
L 237.219441 117.691924 
L 237.330396 116.580675 
L 237.485215 116.580675 
L 237.592756 115.469427 
L 237.658777 115.469427 
L 237.658777 115.099011 
L 237.910991 115.099011 
L 238.016323 114.358179 
L 238.250998 114.358179 
L 238.250998 113.987763 
L 238.527584 113.987763 
L 238.527584 113.617347 
L 238.712929 113.617347 
L 238.712929 113.246931 
L 238.993291 113.246931 
L 238.993291 112.876515 
L 239.173296 112.876515 
L 239.184706 112.135683 
L 239.42218 112.135683 
L 239.529695 111.024435 
L 239.61319 111.024435 
L 239.637721 109.913186 
L 239.794826 109.913186 
L 239.815702 108.431522 
L 240.18009 108.431522 
L 240.26716 106.949858 
L 240.510872 106.949858 
L 240.580601 106.209026 
L 241.017233 106.209026 
L 241.100936 105.097778 
L 241.373631 105.097778 
L 241.373631 104.727362 
L 241.575304 104.727362 
L 241.602936 103.616113 
L 241.702342 103.616113 
L 241.702342 103.245697 
L 242.041011 103.245697 
L 242.041011 102.875281 
L 242.213406 102.875281 
L 242.213406 102.504865 
L 242.420857 102.504865 
L 242.51726 101.023201 
L 242.571293 101.023201 
L 242.571293 100.652785 
L 242.868256 100.652785 
L 242.868256 100.282369 
L 243.093556 100.282369 
L 243.093556 99.911953 
L 243.302854 99.911953 
L 243.302854 99.541537 
L 243.434886 99.541537 
L 243.464122 98.430289 
L 243.619118 98.430289 
L 243.619118 98.059873 
L 243.933154 98.059873 
L 244.020772 97.31904 
L 244.363712 97.31904 
L 244.363712 96.948624 
L 244.985135 96.948624 
L 244.985135 96.578208 
L 245.261125 96.578208 
L 245.261125 96.207792 
L 245.642698 96.207792 
L 245.642698 95.837376 
L 245.963627 95.837376 
L 246.068875 94.726128 
L 246.135313 94.726128 
L 246.218022 93.61488 
L 246.350573 93.61488 
L 246.350573 93.244464 
L 246.673729 93.244464 
L 246.690652 92.503632 
L 246.811034 92.503632 
L 246.811034 92.133216 
L 246.92799 92.133216 
L 246.92799 91.7628 
L 247.745115 91.7628 
L 247.846665 90.281135 
L 247.930087 90.281135 
L 247.930087 89.910719 
L 248.320575 89.910719 
L 248.320575 89.540303 
L 248.7823 89.540303 
L 248.7823 89.169887 
L 249.140658 89.169887 
L 249.140658 88.799471 
L 249.26891 88.799471 
L 249.26891 88.429055 
L 249.643252 88.429055 
L 249.69699 87.688223 
L 249.831734 87.688223 
L 249.858753 86.947391 
L 250.046823 86.947391 
L 250.046823 86.576975 
L 250.31847 86.576975 
L 250.31847 86.206559 
L 250.678436 86.206559 
L 250.678436 85.836143 
L 250.792109 85.836143 
L 250.792109 85.465727 
L 251.557983 85.465727 
L 251.557983 85.095311 
L 251.844399 85.095311 
L 251.844399 84.724895 
L 252.402672 84.724895 
L 252.402672 84.354478 
L 252.690971 84.354478 
L 252.690971 83.984062 
L 253.532156 83.984062 
L 253.554706 83.24323 
L 253.913831 83.24323 
L 253.917107 82.502398 
L 254.210453 82.502398 
L 254.210453 82.131982 
L 254.566852 82.131982 
L 254.625534 81.39115 
L 255.065866 81.39115 
L 255.065866 81.020734 
L 255.761043 81.020734 
L 255.871601 79.909486 
L 256.094579 79.909486 
L 256.108613 79.168654 
L 256.421424 79.168654 
L 256.421424 78.798238 
L 257.39753 78.798238 
L 257.39753 78.057405 
L 257.619773 78.057405 
L 257.619773 77.686989 
L 258.877714 77.686989 
L 258.877714 77.316573 
L 260.47763 77.316573 
L 260.47763 76.946157 
L 261.030411 76.946157 
L 261.030411 76.575741 
L 261.441992 76.575741 
L 261.457124 75.834909 
L 261.64771 75.834909 
L 261.715605 74.723661 
L 261.826706 74.723661 
L 261.826706 74.353245 
L 262.086246 74.353245 
L 262.086246 73.982829 
L 262.72888 73.982829 
L 262.72888 73.612413 
L 264.430846 73.612413 
L 264.430846 72.871581 
L 265.264379 72.871581 
L 265.265735 72.130749 
L 266.030761 72.130749 
L 266.120139 71.0195 
L 266.858117 71.0195 
L 266.858117 70.649084 
L 266.990628 70.649084 
L 266.995124 69.537836 
L 268.062994 69.537836 
L 268.062994 69.16742 
L 268.181558 69.16742 
L 268.181558 68.797004 
L 268.320346 68.797004 
L 268.337269 68.056172 
L 268.551141 68.056172 
L 268.551141 67.685756 
L 268.954264 67.685756 
L 268.954264 67.31534 
L 269.346476 67.31534 
L 269.453314 66.574508 
L 269.917304 66.574508 
L 269.917304 66.204092 
L 270.498511 66.204092 
L 270.498511 65.833676 
L 271.990169 65.833676 
L 271.990169 65.46326 
L 273.052418 65.46326 
L 273.052418 65.092844 
L 273.296505 65.092844 
L 273.296505 64.722427 
L 275.04478 64.722427 
L 275.074295 63.611179 
L 282.576997 63.611179 
L 282.576997 63.240763 
L 288.130128 63.240763 
L 288.130128 62.499931 
L 453.192 62.499931 
L 453.192 62.499931 
" clip-path="url(#p6725c3be50)" style="fill: none; stroke: #bf00bf; stroke-width: 3; stroke-linecap: square"/>
   </g>
   <g id="line2d_22">
    <path clip-path="url(#p6725c3be50)" style="fill: none; stroke: #bf00bf; stroke-width: 3; stroke-linecap: square"/>
   </g>
   <g id="line2d_23">
    <path d="M 34.16 102.616497 
L 216.885264 102.616497 
L 216.885264 100.680693 
L 226.178239 100.680693 
L 226.178239 98.744889 
L 230.360817 98.744889 
L 230.360817 96.809084 
L 233.779463 96.809084 
L 233.779463 94.87328 
L 235.973044 94.87328 
L 235.973044 92.937475 
L 239.39169 92.937475 
L 239.39169 91.001671 
L 239.729746 91.001671 
L 239.729746 89.065866 
L 244.002668 89.065866 
L 244.002668 87.130062 
L 247.360449 87.130062 
L 247.360449 85.194257 
L 248.335719 85.194257 
L 248.335719 83.258453 
L 250.356936 83.258453 
L 250.356936 81.322648 
L 253.295643 81.322648 
L 253.295643 79.386844 
L 256.653424 79.386844 
L 256.653424 77.451039 
L 257.628694 77.451039 
L 257.628694 75.515235 
L 453.192 75.515235 
" clip-path="url(#p6725c3be50)" style="fill: none; stroke: #ff0000; stroke-width: 3; stroke-linecap: square"/>
   </g>
   <g id="line2d_24">
    <path clip-path="url(#p6725c3be50)" style="fill: none; stroke: #ff0000; stroke-width: 3; stroke-linecap: square"/>
   </g>
   <g id="line2d_25"/>
   <g id="line2d_26">
    <path d="M 243.676 291.28 
L 243.676 3 
" clip-path="url(#p6725c3be50)" style="fill: none; stroke: #000000; stroke-width: 1.5; stroke-linecap: square"/>
   </g>
   <g id="line2d_27">
    <path d="M 34.16 147.14 
L 453.192 147.14 
" clip-path="url(#p6725c3be50)" style="fill: none; stroke-dasharray: 2,3.3; stroke-dashoffset: 0; stroke: #000000; stroke-width: 2"/>
   </g>
   <g id="patch_3">
    <path d="M 34.16 291.28 
L 34.16 3 
" style="fill: none; stroke: #000000; stroke-width: 0.8; stroke-linejoin: miter; stroke-linecap: square"/>
   </g>
   <g id="patch_4">
    <path d="M 453.192 291.28 
L 453.192 3 
" style="fill: none; stroke: #000000; stroke-width: 0.8; stroke-linejoin: miter; stroke-linecap: square"/>
   </g>
   <g id="patch_5">
    <path d="M 34.16 291.28 
L 453.192 291.28 
" style="fill: none; stroke: #000000; stroke-width: 0.8; stroke-linejoin: miter; stroke-linecap: square"/>
   </g>
   <g id="patch_6">
    <path d="M 34.16 3 
L 453.192 3 
" style="fill: none; stroke: #000000; stroke-width: 0.8; stroke-linejoin: miter; stroke-linecap: square"/>
   </g>
   <g id="text_6">
    <!-- f1-f55,5-D -->
    <g transform="translate(343.64261 285.5144) scale(0.2 -0.2)">
     <defs>
      <path id="DejaVuSans-35" d="M 691 4666 
L 3169 4666 
L 3169 4134 
L 1269 4134 
L 1269 2991 
Q 1406 3038 1543 3061 
Q 1681 3084 1819 3084 
Q 2600 3084 3056 2656 
Q 3513 2228 3513 1497 
Q 3513 744 3044 326 
Q 2575 -91 1722 -91 
Q 1428 -91 1123 -41 
Q 819 9 494 109 
L 494 744 
Q 775 591 1075 516 
Q 1375 441 1709 441 
Q 2250 441 2565 725 
Q 2881 1009 2881 1497 
Q 2881 1984 2565 2268 
Q 2250 2553 1709 2553 
Q 1456 2553 1204 2497 
Q 953 2441 691 2322 
L 691 4666 
z
" transform="scale(0.015625)"/>
      <path id="DejaVuSans-2c" d="M 750 794 
L 1409 794 
L 1409 256 
L 897 -744 
L 494 -744 
L 750 256 
L 750 794 
z
" transform="scale(0.015625)"/>
      <path id="DejaVuSans-44" d="M 1259 4147 
L 1259 519 
L 2022 519 
Q 2988 519 3436 956 
Q 3884 1394 3884 2338 
Q 3884 3275 3436 3711 
Q 2988 4147 2022 4147 
L 1259 4147 
z
M 628 4666 
L 1925 4666 
Q 3281 4666 3915 4102 
Q 4550 3538 4550 2338 
Q 4550 1131 3912 565 
Q 3275 0 1925 0 
L 628 0 
L 628 4666 
z
" transform="scale(0.015625)"/>
     </defs>
     <use xlink:href="#DejaVuSans-66"/>
     <use xlink:href="#DejaVuSans-31" x="35.205078"/>
     <use xlink:href="#DejaVuSans-2d" x="98.828125"/>
     <use xlink:href="#DejaVuSans-66" x="134.912109"/>
     <use xlink:href="#DejaVuSans-35" x="170.117188"/>
     <use xlink:href="#DejaVuSans-35" x="233.740234"/>
     <use xlink:href="#DejaVuSans-2c" x="297.363281"/>
     <use xlink:href="#DejaVuSans-35" x="329.150391"/>
     <use xlink:href="#DejaVuSans-2d" x="392.773438"/>
     <use xlink:href="#DejaVuSans-44" x="428.857422"/>
    </g>
   </g>
   <g id="text_7">
    <!-- v2.6, hv-hash=ff0e71e8cd978373 -->
    <g style="fill: #808080" transform="translate(158.180687 286.317512) scale(0.1 -0.1)">
     <defs>
      <path id="DejaVuSans-2e" d="M 684 794 
L 1344 794 
L 1344 0 
L 684 0 
L 684 794 
z
" transform="scale(0.015625)"/>
      <path id="DejaVuSans-36" d="M 2113 2584 
Q 1688 2584 1439 2293 
Q 1191 2003 1191 1497 
Q 1191 994 1439 701 
Q 1688 409 2113 409 
Q 2538 409 2786 701 
Q 3034 994 3034 1497 
Q 3034 2003 2786 2293 
Q 2538 2584 2113 2584 
z
M 3366 4563 
L 3366 3988 
Q 3128 4100 2886 4159 
Q 2644 4219 2406 4219 
Q 1781 4219 1451 3797 
Q 1122 3375 1075 2522 
Q 1259 2794 1537 2939 
Q 1816 3084 2150 3084 
Q 2853 3084 3261 2657 
Q 3669 2231 3669 1497 
Q 3669 778 3244 343 
Q 2819 -91 2113 -91 
Q 1303 -91 875 529 
Q 447 1150 447 2328 
Q 447 3434 972 4092 
Q 1497 4750 2381 4750 
Q 2619 4750 2861 4703 
Q 3103 4656 3366 4563 
z
" transform="scale(0.015625)"/>
      <path id="DejaVuSans-68" d="M 3513 2113 
L 3513 0 
L 2938 0 
L 2938 2094 
Q 2938 2591 2744 2837 
Q 2550 3084 2163 3084 
Q 1697 3084 1428 2787 
Q 1159 2491 1159 1978 
L 1159 0 
L 581 0 
L 581 4863 
L 1159 4863 
L 1159 2956 
Q 1366 3272 1645 3428 
Q 1925 3584 2291 3584 
Q 2894 3584 3203 3211 
Q 3513 2838 3513 2113 
z
" transform="scale(0.015625)"/>
      <path id="DejaVuSans-3d" d="M 678 2906 
L 4684 2906 
L 4684 2381 
L 678 2381 
L 678 2906 
z
M 678 1631 
L 4684 1631 
L 4684 1100 
L 678 1100 
L 678 1631 
z
" transform="scale(0.015625)"/>
      <path id="DejaVuSans-65" d="M 3597 1894 
L 3597 1613 
L 953 1613 
Q 991 1019 1311 708 
Q 1631 397 2203 397 
Q 2534 397 2845 478 
Q 3156 559 3463 722 
L 3463 178 
Q 3153 47 2828 -22 
Q 2503 -91 2169 -91 
Q 1331 -91 842 396 
Q 353 884 353 1716 
Q 353 2575 817 3079 
Q 1281 3584 2069 3584 
Q 2775 3584 3186 3129 
Q 3597 2675 3597 1894 
z
M 3022 2063 
Q 3016 2534 2758 2815 
Q 2500 3097 2075 3097 
Q 1594 3097 1305 2825 
Q 1016 2553 972 2059 
L 3022 2063 
z
" transform="scale(0.015625)"/>
      <path id="DejaVuSans-37" d="M 525 4666 
L 3525 4666 
L 3525 4397 
L 1831 0 
L 1172 0 
L 2766 4134 
L 525 4134 
L 525 4666 
z
" transform="scale(0.015625)"/>
      <path id="DejaVuSans-38" d="M 2034 2216 
Q 1584 2216 1326 1975 
Q 1069 1734 1069 1313 
Q 1069 891 1326 650 
Q 1584 409 2034 409 
Q 2484 409 2743 651 
Q 3003 894 3003 1313 
Q 3003 1734 2745 1975 
Q 2488 2216 2034 2216 
z
M 1403 2484 
Q 997 2584 770 2862 
Q 544 3141 544 3541 
Q 544 4100 942 4425 
Q 1341 4750 2034 4750 
Q 2731 4750 3128 4425 
Q 3525 4100 3525 3541 
Q 3525 3141 3298 2862 
Q 3072 2584 2669 2484 
Q 3125 2378 3379 2068 
Q 3634 1759 3634 1313 
Q 3634 634 3220 271 
Q 2806 -91 2034 -91 
Q 1263 -91 848 271 
Q 434 634 434 1313 
Q 434 1759 690 2068 
Q 947 2378 1403 2484 
z
M 1172 3481 
Q 1172 3119 1398 2916 
Q 1625 2713 2034 2713 
Q 2441 2713 2670 2916 
Q 2900 3119 2900 3481 
Q 2900 3844 2670 4047 
Q 2441 4250 2034 4250 
Q 1625 4250 1398 4047 
Q 1172 3844 1172 3481 
z
" transform="scale(0.015625)"/>
      <path id="DejaVuSans-63" d="M 3122 3366 
L 3122 2828 
Q 2878 2963 2633 3030 
Q 2388 3097 2138 3097 
Q 1578 3097 1268 2742 
Q 959 2388 959 1747 
Q 959 1106 1268 751 
Q 1578 397 2138 397 
Q 2388 397 2633 464 
Q 2878 531 3122 666 
L 3122 134 
Q 2881 22 2623 -34 
Q 2366 -91 2075 -91 
Q 1284 -91 818 406 
Q 353 903 353 1747 
Q 353 2603 823 3093 
Q 1294 3584 2113 3584 
Q 2378 3584 2631 3529 
Q 2884 3475 3122 3366 
z
" transform="scale(0.015625)"/>
      <path id="DejaVuSans-64" d="M 2906 2969 
L 2906 4863 
L 3481 4863 
L 3481 0 
L 2906 0 
L 2906 525 
Q 2725 213 2448 61 
Q 2172 -91 1784 -91 
Q 1150 -91 751 415 
Q 353 922 353 1747 
Q 353 2572 751 3078 
Q 1150 3584 1784 3584 
Q 2172 3584 2448 3432 
Q 2725 3281 2906 2969 
z
M 947 1747 
Q 947 1113 1208 752 
Q 1469 391 1925 391 
Q 2381 391 2643 752 
Q 2906 1113 2906 1747 
Q 2906 2381 2643 2742 
Q 2381 3103 1925 3103 
Q 1469 3103 1208 2742 
Q 947 2381 947 1747 
z
" transform="scale(0.015625)"/>
      <path id="DejaVuSans-39" d="M 703 97 
L 703 672 
Q 941 559 1184 500 
Q 1428 441 1663 441 
Q 2288 441 2617 861 
Q 2947 1281 2994 2138 
Q 2813 1869 2534 1725 
Q 2256 1581 1919 1581 
Q 1219 1581 811 2004 
Q 403 2428 403 3163 
Q 403 3881 828 4315 
Q 1253 4750 1959 4750 
Q 2769 4750 3195 4129 
Q 3622 3509 3622 2328 
Q 3622 1225 3098 567 
Q 2575 -91 1691 -91 
Q 1453 -91 1209 -44 
Q 966 3 703 97 
z
M 1959 2075 
Q 2384 2075 2632 2365 
Q 2881 2656 2881 3163 
Q 2881 3666 2632 3958 
Q 2384 4250 1959 4250 
Q 1534 4250 1286 3958 
Q 1038 3666 1038 3163 
Q 1038 2656 1286 2365 
Q 1534 2075 1959 2075 
z
" transform="scale(0.015625)"/>
      <path id="DejaVuSans-33" d="M 2597 2516 
Q 3050 2419 3304 2112 
Q 3559 1806 3559 1356 
Q 3559 666 3084 287 
Q 2609 -91 1734 -91 
Q 1441 -91 1130 -33 
Q 819 25 488 141 
L 488 750 
Q 750 597 1062 519 
Q 1375 441 1716 441 
Q 2309 441 2620 675 
Q 2931 909 2931 1356 
Q 2931 1769 2642 2001 
Q 2353 2234 1838 2234 
L 1294 2234 
L 1294 2753 
L 1863 2753 
Q 2328 2753 2575 2939 
Q 2822 3125 2822 3475 
Q 2822 3834 2567 4026 
Q 2313 4219 1838 4219 
Q 1578 4219 1281 4162 
Q 984 4106 628 3988 
L 628 4550 
Q 988 4650 1302 4700 
Q 1616 4750 1894 4750 
Q 2613 4750 3031 4423 
Q 3450 4097 3450 3541 
Q 3450 3153 3228 2886 
Q 3006 2619 2597 2516 
z
" transform="scale(0.015625)"/>
     </defs>
     <use xlink:href="#DejaVuSans-76"/>
     <use xlink:href="#DejaVuSans-32" x="59.179688"/>
     <use xlink:href="#DejaVuSans-2e" x="122.802734"/>
     <use xlink:href="#DejaVuSans-36" x="154.589844"/>
     <use xlink:href="#DejaVuSans-2c" x="218.212891"/>
     <use xlink:href="#DejaVuSans-20" x="250"/>
     <use xlink:href="#DejaVuSans-68" x="281.787109"/>
     <use xlink:href="#DejaVuSans-76" x="345.166016"/>
     <use xlink:href="#DejaVuSans-2d" x="401.720703"/>
     <use xlink:href="#DejaVuSans-68" x="437.804688"/>
     <use xlink:href="#DejaVuSans-61" x="501.183594"/>
     <use xlink:href="#DejaVuSans-73" x="562.462891"/>
     <use xlink:href="#DejaVuSans-68" x="614.5625"/>
     <use xlink:href="#DejaVuSans-3d" x="677.941406"/>
     <use xlink:href="#DejaVuSans-66" x="761.730469"/>
     <use xlink:href="#DejaVuSans-66" x="796.935547"/>
     <use xlink:href="#DejaVuSans-30" x="832.140625"/>
     <use xlink:href="#DejaVuSans-65" x="895.763672"/>
     <use xlink:href="#DejaVuSans-37" x="957.287109"/>
     <use xlink:href="#DejaVuSans-31" x="1020.910156"/>
     <use xlink:href="#DejaVuSans-65" x="1084.533203"/>
     <use xlink:href="#DejaVuSans-38" x="1146.056641"/>
     <use xlink:href="#DejaVuSans-63" x="1209.679688"/>
     <use xlink:href="#DejaVuSans-64" x="1264.660156"/>
     <use xlink:href="#DejaVuSans-39" x="1328.136719"/>
     <use xlink:href="#DejaVuSans-37" x="1391.759766"/>
     <use xlink:href="#DejaVuSans-38" x="1455.382812"/>
     <use xlink:href="#DejaVuSans-33" x="1519.005859"/>
     <use xlink:href="#DejaVuSans-37" x="1582.628906"/>
     <use xlink:href="#DejaVuSans-33" x="1646.251953"/>
    </g>
   </g>
   <g id="legend_1">
    <g id="patch_7">
     <path d="M 284.520125 281.28 
L 439.192 281.28 
Q 443.192 281.28 443.192 277.28 
L 443.192 132.49875 
Q 443.192 128.49875 439.192 128.49875 
L 284.520125 128.49875 
Q 280.520125 128.49875 280.520125 132.49875 
L 280.520125 277.28 
Q 280.520125 281.28 284.520125 281.28 
z
" style="fill: #ffffff; opacity: 0.2; stroke: #cccccc; stroke-linejoin: miter"/>
    </g>
    <g id="line2d_28">
     <path d="M 288.520125 144.695625 
L 308.520125 144.695625 
L 328.520125 144.695625 
" style="fill: none; stroke: #000000; stroke-width: 3; stroke-linecap: square"/>
    </g>
    <g id="text_8">
     <!-- -1: 55/55 -->
     <g transform="translate(344.520125 151.695625) scale(0.2 -0.2)">
      <defs>
       <path id="DejaVuSans-3a" d="M 750 794 
L 1409 794 
L 1409 0 
L 750 0 
L 750 794 
z
M 750 3309 
L 1409 3309 
L 1409 2516 
L 750 2516 
L 750 3309 
z
" transform="scale(0.015625)"/>
       <path id="DejaVuSans-2f" d="M 1625 4666 
L 2156 4666 
L 531 -594 
L 0 -594 
L 1625 4666 
z
" transform="scale(0.015625)"/>
      </defs>
      <use xlink:href="#DejaVuSans-2d"/>
      <use xlink:href="#DejaVuSans-31" x="36.083984"/>
      <use xlink:href="#DejaVuSans-3a" x="99.707031"/>
      <use xlink:href="#DejaVuSans-20" x="133.398438"/>
      <use xlink:href="#DejaVuSans-35" x="165.185547"/>
      <use xlink:href="#DejaVuSans-35" x="228.808594"/>
      <use xlink:href="#DejaVuSans-2f" x="292.431641"/>
      <use xlink:href="#DejaVuSans-35" x="326.123047"/>
      <use xlink:href="#DejaVuSans-35" x="389.746094"/>
     </g>
    </g>
    <g id="line2d_29">
     <path d="M 288.520125 174.051875 
L 308.520125 174.051875 
L 328.520125 174.051875 
" style="fill: none; stroke: #00bfbf; stroke-width: 3; stroke-linecap: square"/>
    </g>
    <g id="text_9">
     <!-- -2: 37/37 -->
     <g transform="translate(344.520125 181.051875) scale(0.2 -0.2)">
      <use xlink:href="#DejaVuSans-2d"/>
      <use xlink:href="#DejaVuSans-32" x="36.083984"/>
      <use xlink:href="#DejaVuSans-3a" x="99.707031"/>
      <use xlink:href="#DejaVuSans-20" x="133.398438"/>
      <use xlink:href="#DejaVuSans-33" x="165.185547"/>
      <use xlink:href="#DejaVuSans-37" x="228.808594"/>
      <use xlink:href="#DejaVuSans-2f" x="292.431641"/>
      <use xlink:href="#DejaVuSans-33" x="326.123047"/>
      <use xlink:href="#DejaVuSans-37" x="389.746094"/>
     </g>
    </g>
    <g id="line2d_30">
     <path d="M 288.520125 203.408125 
L 308.520125 203.408125 
L 328.520125 203.408125 
" style="fill: none; stroke: #bf00bf; stroke-width: 3; stroke-linecap: square"/>
    </g>
    <g id="text_10">
     <!-- -3: 15/11 -->
     <g transform="translate(344.520125 210.408125) scale(0.2 -0.2)">
      <use xlink:href="#DejaVuSans-2d"/>
      <use xlink:href="#DejaVuSans-33" x="36.083984"/>
      <use xlink:href="#DejaVuSans-3a" x="99.707031"/>
      <use xlink:href="#DejaVuSans-20" x="133.398438"/>
      <use xlink:href="#DejaVuSans-31" x="165.185547"/>
      <use xlink:href="#DejaVuSans-35" x="228.808594"/>
      <use xlink:href="#DejaVuSans-2f" x="292.431641"/>
      <use xlink:href="#DejaVuSans-31" x="326.123047"/>
      <use xlink:href="#DejaVuSans-31" x="389.746094"/>
     </g>
    </g>
    <g id="line2d_31">
     <path d="M 288.520125 232.764375 
L 308.520125 232.764375 
L 328.520125 232.764375 
" style="fill: none; stroke: #ff0000; stroke-width: 3; stroke-linecap: square"/>
    </g>
    <g id="text_11">
     <!-- -4: 6/3 -->
     <g transform="translate(344.520125 239.764375) scale(0.2 -0.2)">
      <defs>
       <path id="DejaVuSans-34" d="M 2419 4116 
L 825 1625 
L 2419 1625 
L 2419 4116 
z
M 2253 4666 
L 3047 4666 
L 3047 1625 
L 3713 1625 
L 3713 1100 
L 3047 1100 
L 3047 0 
L 2419 0 
L 2419 1100 
L 313 1100 
L 313 1709 
L 2253 4666 
z
" transform="scale(0.015625)"/>
      </defs>
      <use xlink:href="#DejaVuSans-2d"/>
      <use xlink:href="#DejaVuSans-34" x="36.083984"/>
      <use xlink:href="#DejaVuSans-3a" x="99.707031"/>
      <use xlink:href="#DejaVuSans-20" x="133.398438"/>
      <use xlink:href="#DejaVuSans-36" x="165.185547"/>
      <use xlink:href="#DejaVuSans-2f" x="228.808594"/>
      <use xlink:href="#DejaVuSans-33" x="262.5"/>
     </g>
    </g>
    <g id="line2d_32">
     <path d="M 288.520125 262.120625 
L 308.520125 262.120625 
L 328.520125 262.120625 
" style="fill: none; stroke: #0000ff; stroke-width: 3; stroke-linecap: square"/>
    </g>
    <g id="text_12">
     <!-- -5: 0/0 -->
     <g transform="translate(344.520125 269.120625) scale(0.2 -0.2)">
      <use xlink:href="#DejaVuSans-2d"/>
      <use xlink:href="#DejaVuSans-35" x="36.083984"/>
      <use xlink:href="#DejaVuSans-3a" x="99.707031"/>
      <use xlink:href="#DejaVuSans-20" x="133.398438"/>
      <use xlink:href="#DejaVuSans-30" x="165.185547"/>
      <use xlink:href="#DejaVuSans-2f" x="228.808594"/>
      <use xlink:href="#DejaVuSans-30" x="262.5"/>
     </g>
    </g>
   </g>
  </g>
 </g>
 <defs>
  <clipPath id="p6725c3be50">
   <rect x="34.16" y="3" width="419.032" height="288.28"/>
  </clipPath>
 </defs>
</svg>
