<?xml version="1.0" encoding="utf-8" standalone="no"?>
<!DOCTYPE svg PUBLIC "-//W3C//DTD SVG 1.1//EN"
  "http://www.w3.org/Graphics/SVG/1.1/DTD/svg11.dtd">
<svg xmlns:xlink="http://www.w3.org/1999/xlink" width="460.8pt" height="345.6pt" viewBox="0 0 460.8 345.6" xmlns="http://www.w3.org/2000/svg" version="1.1">
 <metadata>
  <rdf:RDF xmlns:dc="http://purl.org/dc/elements/1.1/" xmlns:cc="http://creativecommons.org/ns#" xmlns:rdf="http://www.w3.org/1999/02/22-rdf-syntax-ns#">
   <cc:Work>
    <dc:type rdf:resource="http://purl.org/dc/dcmitype/StillImage"/>
    <dc:date>2023-02-10T20:27:41.988877</dc:date>
    <dc:format>image/svg+xml</dc:format>
    <dc:creator>
     <cc:Agent>
      <dc:title>Matplotlib v3.6.3, https://matplotlib.org/</dc:title>
     </cc:Agent>
    </dc:creator>
   </cc:Work>
  </rdf:RDF>
 </metadata>
 <defs>
  <style type="text/css">*{stroke-linejoin: round; stroke-linecap: butt}</style>
 </defs>
 <g id="figure_1">
  <g id="patch_1">
   <path d="M 0 345.6 
L 460.8 345.6 
L 460.8 0 
L 0 0 
z
" style="fill: #ffffff"/>
  </g>
  <g id="axes_1">
   <g id="patch_2">
    <path d="M 34.16 291.28 
L 446.924475 291.28 
L 446.924475 3 
L 34.16 3 
z
" style="fill: #ffffff"/>
   </g>
   <g id="matplotlib.axis_1">
    <g id="xtick_1">
     <g id="line2d_1">
      <path d="M 34.249547 291.28 
L 34.249547 3 
" clip-path="url(#pa46b8aa6df)" style="fill: none; stroke: #b0b0b0; stroke-width: 0.8; stroke-linecap: square"/>
     </g>
     <g id="line2d_2">
      <defs>
       <path id="m3da2f1daf4" d="M 0 0 
L 0 3.5 
" style="stroke: #000000; stroke-width: 0.8"/>
      </defs>
      <g>
       <use xlink:href="#m3da2f1daf4" x="34.249547" y="291.28" style="stroke: #000000; stroke-width: 0.8"/>
      </g>
     </g>
     <g id="text_1">
      <!-- -1 -->
      <g transform="translate(24.279235 313.476875) scale(0.2 -0.2)">
       <defs>
        <path id="DejaVuSans-2d" d="M 313 2009 
L 1997 2009 
L 1997 1497 
L 313 1497 
L 313 2009 
z
" transform="scale(0.015625)"/>
        <path id="DejaVuSans-31" d="M 794 531 
L 1825 531 
L 1825 4091 
L 703 3866 
L 703 4441 
L 1819 4666 
L 2450 4666 
L 2450 531 
L 3481 531 
L 3481 0 
L 794 0 
L 794 531 
z
" transform="scale(0.015625)"/>
       </defs>
       <use xlink:href="#DejaVuSans-2d"/>
       <use xlink:href="#DejaVuSans-31" x="36.083984"/>
      </g>
     </g>
    </g>
    <g id="xtick_2">
     <g id="line2d_3">
      <path d="M 240.542238 291.28 
L 240.542238 3 
" clip-path="url(#pa46b8aa6df)" style="fill: none; stroke: #b0b0b0; stroke-width: 0.8; stroke-linecap: square"/>
     </g>
     <g id="line2d_4">
      <g>
       <use xlink:href="#m3da2f1daf4" x="240.542238" y="291.28" style="stroke: #000000; stroke-width: 0.8"/>
      </g>
     </g>
     <g id="text_2">
      <!-- 0 -->
      <g transform="translate(234.179738 313.476875) scale(0.2 -0.2)">
       <defs>
        <path id="DejaVuSans-30" d="M 2034 4250 
Q 1547 4250 1301 3770 
Q 1056 3291 1056 2328 
Q 1056 1369 1301 889 
Q 1547 409 2034 409 
Q 2525 409 2770 889 
Q 3016 1369 3016 2328 
Q 3016 3291 2770 3770 
Q 2525 4250 2034 4250 
z
M 2034 4750 
Q 2819 4750 3233 4129 
Q 3647 3509 3647 2328 
Q 3647 1150 3233 529 
Q 2819 -91 2034 -91 
Q 1250 -91 836 529 
Q 422 1150 422 2328 
Q 422 3509 836 4129 
Q 1250 4750 2034 4750 
z
" transform="scale(0.015625)"/>
       </defs>
       <use xlink:href="#DejaVuSans-30"/>
      </g>
     </g>
    </g>
    <g id="xtick_3">
     <g id="line2d_5">
      <path d="M 446.834928 291.28 
L 446.834928 3 
" clip-path="url(#pa46b8aa6df)" style="fill: none; stroke: #b0b0b0; stroke-width: 0.8; stroke-linecap: square"/>
     </g>
     <g id="line2d_6">
      <g>
       <use xlink:href="#m3da2f1daf4" x="446.834928" y="291.28" style="stroke: #000000; stroke-width: 0.8"/>
      </g>
     </g>
     <g id="text_3">
      <!-- 1 -->
      <g transform="translate(440.472428 313.476875) scale(0.2 -0.2)">
       <use xlink:href="#DejaVuSans-31"/>
      </g>
     </g>
    </g>
    <g id="xtick_4">
     <g id="line2d_7">
      <defs>
       <path id="mf74c9b24e1" d="M 0 0 
L 0 2 
" style="stroke: #000000; stroke-width: 0.6"/>
      </defs>
      <g>
       <use xlink:href="#mf74c9b24e1" x="96.349835" y="291.28" style="stroke: #000000; stroke-width: 0.6"/>
      </g>
     </g>
    </g>
    <g id="xtick_5">
     <g id="line2d_8">
      <g>
       <use xlink:href="#mf74c9b24e1" x="132.676174" y="291.28" style="stroke: #000000; stroke-width: 0.6"/>
      </g>
     </g>
    </g>
    <g id="xtick_6">
     <g id="line2d_9">
      <g>
       <use xlink:href="#mf74c9b24e1" x="158.450123" y="291.28" style="stroke: #000000; stroke-width: 0.6"/>
      </g>
     </g>
    </g>
    <g id="xtick_7">
     <g id="line2d_10">
      <g>
       <use xlink:href="#mf74c9b24e1" x="178.44195" y="291.28" style="stroke: #000000; stroke-width: 0.6"/>
      </g>
     </g>
    </g>
    <g id="xtick_8">
     <g id="line2d_11">
      <g>
       <use xlink:href="#mf74c9b24e1" x="194.776462" y="291.28" style="stroke: #000000; stroke-width: 0.6"/>
      </g>
     </g>
    </g>
    <g id="xtick_9">
     <g id="line2d_12">
      <g>
       <use xlink:href="#mf74c9b24e1" x="208.587096" y="291.28" style="stroke: #000000; stroke-width: 0.6"/>
      </g>
     </g>
    </g>
    <g id="xtick_10">
     <g id="line2d_13">
      <g>
       <use xlink:href="#mf74c9b24e1" x="220.55041" y="291.28" style="stroke: #000000; stroke-width: 0.6"/>
      </g>
     </g>
    </g>
    <g id="xtick_11">
     <g id="line2d_14">
      <g>
       <use xlink:href="#mf74c9b24e1" x="231.102802" y="291.28" style="stroke: #000000; stroke-width: 0.6"/>
      </g>
     </g>
    </g>
    <g id="xtick_12">
     <g id="line2d_15">
      <g>
       <use xlink:href="#mf74c9b24e1" x="302.642525" y="291.28" style="stroke: #000000; stroke-width: 0.6"/>
      </g>
     </g>
    </g>
    <g id="xtick_13">
     <g id="line2d_16">
      <g>
       <use xlink:href="#mf74c9b24e1" x="338.968865" y="291.28" style="stroke: #000000; stroke-width: 0.6"/>
      </g>
     </g>
    </g>
    <g id="xtick_14">
     <g id="line2d_17">
      <g>
       <use xlink:href="#mf74c9b24e1" x="364.742813" y="291.28" style="stroke: #000000; stroke-width: 0.6"/>
      </g>
     </g>
    </g>
    <g id="xtick_15">
     <g id="line2d_18">
      <g>
       <use xlink:href="#mf74c9b24e1" x="384.73464" y="291.28" style="stroke: #000000; stroke-width: 0.6"/>
      </g>
     </g>
    </g>
    <g id="xtick_16">
     <g id="line2d_19">
      <g>
       <use xlink:href="#mf74c9b24e1" x="401.069153" y="291.28" style="stroke: #000000; stroke-width: 0.6"/>
      </g>
     </g>
    </g>
    <g id="xtick_17">
     <g id="line2d_20">
      <g>
       <use xlink:href="#mf74c9b24e1" x="414.879786" y="291.28" style="stroke: #000000; stroke-width: 0.6"/>
      </g>
     </g>
    </g>
    <g id="xtick_18">
     <g id="line2d_21">
      <g>
       <use xlink:href="#mf74c9b24e1" x="426.843101" y="291.28" style="stroke: #000000; stroke-width: 0.6"/>
      </g>
     </g>
    </g>
    <g id="xtick_19">
     <g id="line2d_22">
      <g>
       <use xlink:href="#mf74c9b24e1" x="437.395492" y="291.28" style="stroke: #000000; stroke-width: 0.6"/>
      </g>
     </g>
    </g>
    <g id="text_4">
     <!-- log10 of FEvals ratio -->
     <g transform="translate(138.23755 336.833125) scale(0.2 -0.2)">
      <defs>
       <path id="DejaVuSans-6c" d="M 603 4863 
L 1178 4863 
L 1178 0 
L 603 0 
L 603 4863 
z
" transform="scale(0.015625)"/>
       <path id="DejaVuSans-6f" d="M 1959 3097 
Q 1497 3097 1228 2736 
Q 959 2375 959 1747 
Q 959 1119 1226 758 
Q 1494 397 1959 397 
Q 2419 397 2687 759 
Q 2956 1122 2956 1747 
Q 2956 2369 2687 2733 
Q 2419 3097 1959 3097 
z
M 1959 3584 
Q 2709 3584 3137 3096 
Q 3566 2609 3566 1747 
Q 3566 888 3137 398 
Q 2709 -91 1959 -91 
Q 1206 -91 779 398 
Q 353 888 353 1747 
Q 353 2609 779 3096 
Q 1206 3584 1959 3584 
z
" transform="scale(0.015625)"/>
       <path id="DejaVuSans-67" d="M 2906 1791 
Q 2906 2416 2648 2759 
Q 2391 3103 1925 3103 
Q 1463 3103 1205 2759 
Q 947 2416 947 1791 
Q 947 1169 1205 825 
Q 1463 481 1925 481 
Q 2391 481 2648 825 
Q 2906 1169 2906 1791 
z
M 3481 434 
Q 3481 -459 3084 -895 
Q 2688 -1331 1869 -1331 
Q 1566 -1331 1297 -1286 
Q 1028 -1241 775 -1147 
L 775 -588 
Q 1028 -725 1275 -790 
Q 1522 -856 1778 -856 
Q 2344 -856 2625 -561 
Q 2906 -266 2906 331 
L 2906 616 
Q 2728 306 2450 153 
Q 2172 0 1784 0 
Q 1141 0 747 490 
Q 353 981 353 1791 
Q 353 2603 747 3093 
Q 1141 3584 1784 3584 
Q 2172 3584 2450 3431 
Q 2728 3278 2906 2969 
L 2906 3500 
L 3481 3500 
L 3481 434 
z
" transform="scale(0.015625)"/>
       <path id="DejaVuSans-20" transform="scale(0.015625)"/>
       <path id="DejaVuSans-66" d="M 2375 4863 
L 2375 4384 
L 1825 4384 
Q 1516 4384 1395 4259 
Q 1275 4134 1275 3809 
L 1275 3500 
L 2222 3500 
L 2222 3053 
L 1275 3053 
L 1275 0 
L 697 0 
L 697 3053 
L 147 3053 
L 147 3500 
L 697 3500 
L 697 3744 
Q 697 4328 969 4595 
Q 1241 4863 1831 4863 
L 2375 4863 
z
" transform="scale(0.015625)"/>
       <path id="DejaVuSans-46" d="M 628 4666 
L 3309 4666 
L 3309 4134 
L 1259 4134 
L 1259 2759 
L 3109 2759 
L 3109 2228 
L 1259 2228 
L 1259 0 
L 628 0 
L 628 4666 
z
" transform="scale(0.015625)"/>
       <path id="DejaVuSans-45" d="M 628 4666 
L 3578 4666 
L 3578 4134 
L 1259 4134 
L 1259 2753 
L 3481 2753 
L 3481 2222 
L 1259 2222 
L 1259 531 
L 3634 531 
L 3634 0 
L 628 0 
L 628 4666 
z
" transform="scale(0.015625)"/>
       <path id="DejaVuSans-76" d="M 191 3500 
L 800 3500 
L 1894 563 
L 2988 3500 
L 3597 3500 
L 2284 0 
L 1503 0 
L 191 3500 
z
" transform="scale(0.015625)"/>
       <path id="DejaVuSans-61" d="M 2194 1759 
Q 1497 1759 1228 1600 
Q 959 1441 959 1056 
Q 959 750 1161 570 
Q 1363 391 1709 391 
Q 2188 391 2477 730 
Q 2766 1069 2766 1631 
L 2766 1759 
L 2194 1759 
z
M 3341 1997 
L 3341 0 
L 2766 0 
L 2766 531 
Q 2569 213 2275 61 
Q 1981 -91 1556 -91 
Q 1019 -91 701 211 
Q 384 513 384 1019 
Q 384 1609 779 1909 
Q 1175 2209 1959 2209 
L 2766 2209 
L 2766 2266 
Q 2766 2663 2505 2880 
Q 2244 3097 1772 3097 
Q 1472 3097 1187 3025 
Q 903 2953 641 2809 
L 641 3341 
Q 956 3463 1253 3523 
Q 1550 3584 1831 3584 
Q 2591 3584 2966 3190 
Q 3341 2797 3341 1997 
z
" transform="scale(0.015625)"/>
       <path id="DejaVuSans-73" d="M 2834 3397 
L 2834 2853 
Q 2591 2978 2328 3040 
Q 2066 3103 1784 3103 
Q 1356 3103 1142 2972 
Q 928 2841 928 2578 
Q 928 2378 1081 2264 
Q 1234 2150 1697 2047 
L 1894 2003 
Q 2506 1872 2764 1633 
Q 3022 1394 3022 966 
Q 3022 478 2636 193 
Q 2250 -91 1575 -91 
Q 1294 -91 989 -36 
Q 684 19 347 128 
L 347 722 
Q 666 556 975 473 
Q 1284 391 1588 391 
Q 1994 391 2212 530 
Q 2431 669 2431 922 
Q 2431 1156 2273 1281 
Q 2116 1406 1581 1522 
L 1381 1569 
Q 847 1681 609 1914 
Q 372 2147 372 2553 
Q 372 3047 722 3315 
Q 1072 3584 1716 3584 
Q 2034 3584 2315 3537 
Q 2597 3491 2834 3397 
z
" transform="scale(0.015625)"/>
       <path id="DejaVuSans-72" d="M 2631 2963 
Q 2534 3019 2420 3045 
Q 2306 3072 2169 3072 
Q 1681 3072 1420 2755 
Q 1159 2438 1159 1844 
L 1159 0 
L 581 0 
L 581 3500 
L 1159 3500 
L 1159 2956 
Q 1341 3275 1631 3429 
Q 1922 3584 2338 3584 
Q 2397 3584 2469 3576 
Q 2541 3569 2628 3553 
L 2631 2963 
z
" transform="scale(0.015625)"/>
       <path id="DejaVuSans-74" d="M 1172 4494 
L 1172 3500 
L 2356 3500 
L 2356 3053 
L 1172 3053 
L 1172 1153 
Q 1172 725 1289 603 
Q 1406 481 1766 481 
L 2356 481 
L 2356 0 
L 1766 0 
Q 1100 0 847 248 
Q 594 497 594 1153 
L 594 3053 
L 172 3053 
L 172 3500 
L 594 3500 
L 594 4494 
L 1172 4494 
z
" transform="scale(0.015625)"/>
       <path id="DejaVuSans-69" d="M 603 3500 
L 1178 3500 
L 1178 0 
L 603 0 
L 603 3500 
z
M 603 4863 
L 1178 4863 
L 1178 4134 
L 603 4134 
L 603 4863 
z
" transform="scale(0.015625)"/>
      </defs>
      <use xlink:href="#DejaVuSans-6c"/>
      <use xlink:href="#DejaVuSans-6f" x="27.783203"/>
      <use xlink:href="#DejaVuSans-67" x="88.964844"/>
      <use xlink:href="#DejaVuSans-31" x="152.441406"/>
      <use xlink:href="#DejaVuSans-30" x="216.064453"/>
      <use xlink:href="#DejaVuSans-20" x="279.6875"/>
      <use xlink:href="#DejaVuSans-6f" x="311.474609"/>
      <use xlink:href="#DejaVuSans-66" x="372.65625"/>
      <use xlink:href="#DejaVuSans-20" x="407.861328"/>
      <use xlink:href="#DejaVuSans-46" x="439.648438"/>
      <use xlink:href="#DejaVuSans-45" x="497.167969"/>
      <use xlink:href="#DejaVuSans-76" x="560.351562"/>
      <use xlink:href="#DejaVuSans-61" x="619.53125"/>
      <use xlink:href="#DejaVuSans-6c" x="680.810547"/>
      <use xlink:href="#DejaVuSans-73" x="708.59375"/>
      <use xlink:href="#DejaVuSans-20" x="760.693359"/>
      <use xlink:href="#DejaVuSans-72" x="792.480469"/>
      <use xlink:href="#DejaVuSans-61" x="833.59375"/>
      <use xlink:href="#DejaVuSans-74" x="894.873047"/>
      <use xlink:href="#DejaVuSans-69" x="934.082031"/>
      <use xlink:href="#DejaVuSans-6f" x="961.865234"/>
     </g>
    </g>
   </g>
   <g id="matplotlib.axis_2">
    <g id="ytick_1">
     <g id="line2d_23">
      <path d="M 34.16 288.453725 
L 446.924475 288.453725 
" clip-path="url(#pa46b8aa6df)" style="fill: none; stroke: #b0b0b0; stroke-width: 0.8; stroke-linecap: square"/>
     </g>
     <g id="line2d_24">
      <defs>
       <path id="m8b046a044f" d="M 0 0 
L -3.5 0 
" style="stroke: #000000; stroke-width: 0.8"/>
      </defs>
      <g>
       <use xlink:href="#m8b046a044f" x="34.16" y="288.453725" style="stroke: #000000; stroke-width: 0.8"/>
      </g>
     </g>
    </g>
    <g id="ytick_2">
     <g id="line2d_25">
      <path d="M 34.16 217.796863 
L 446.924475 217.796863 
" clip-path="url(#pa46b8aa6df)" style="fill: none; stroke: #b0b0b0; stroke-width: 0.8; stroke-linecap: square"/>
     </g>
     <g id="line2d_26">
      <g>
       <use xlink:href="#m8b046a044f" x="34.16" y="217.796863" style="stroke: #000000; stroke-width: 0.8"/>
      </g>
     </g>
    </g>
    <g id="ytick_3">
     <g id="line2d_27">
      <path d="M 34.16 147.14 
L 446.924475 147.14 
" clip-path="url(#pa46b8aa6df)" style="fill: none; stroke: #b0b0b0; stroke-width: 0.8; stroke-linecap: square"/>
     </g>
     <g id="line2d_28">
      <g>
       <use xlink:href="#m8b046a044f" x="34.16" y="147.14" style="stroke: #000000; stroke-width: 0.8"/>
      </g>
     </g>
    </g>
    <g id="ytick_4">
     <g id="line2d_29">
      <path d="M 34.16 76.483137 
L 446.924475 76.483137 
" clip-path="url(#pa46b8aa6df)" style="fill: none; stroke: #b0b0b0; stroke-width: 0.8; stroke-linecap: square"/>
     </g>
     <g id="line2d_30">
      <g>
       <use xlink:href="#m8b046a044f" x="34.16" y="76.483137" style="stroke: #000000; stroke-width: 0.8"/>
      </g>
     </g>
    </g>
    <g id="ytick_5">
     <g id="line2d_31">
      <path d="M 34.16 5.826275 
L 446.924475 5.826275 
" clip-path="url(#pa46b8aa6df)" style="fill: none; stroke: #b0b0b0; stroke-width: 0.8; stroke-linecap: square"/>
     </g>
     <g id="line2d_32">
      <g>
       <use xlink:href="#m8b046a044f" x="34.16" y="5.826275" style="stroke: #000000; stroke-width: 0.8"/>
      </g>
     </g>
    </g>
    <g id="text_5">
     <!-- proportion of trials -->
     <g transform="translate(19.000625 240.14625) rotate(-90) scale(0.2 -0.2)">
      <defs>
       <path id="DejaVuSans-70" d="M 1159 525 
L 1159 -1331 
L 581 -1331 
L 581 3500 
L 1159 3500 
L 1159 2969 
Q 1341 3281 1617 3432 
Q 1894 3584 2278 3584 
Q 2916 3584 3314 3078 
Q 3713 2572 3713 1747 
Q 3713 922 3314 415 
Q 2916 -91 2278 -91 
Q 1894 -91 1617 61 
Q 1341 213 1159 525 
z
M 3116 1747 
Q 3116 2381 2855 2742 
Q 2594 3103 2138 3103 
Q 1681 3103 1420 2742 
Q 1159 2381 1159 1747 
Q 1159 1113 1420 752 
Q 1681 391 2138 391 
Q 2594 391 2855 752 
Q 3116 1113 3116 1747 
z
" transform="scale(0.015625)"/>
       <path id="DejaVuSans-6e" d="M 3513 2113 
L 3513 0 
L 2938 0 
L 2938 2094 
Q 2938 2591 2744 2837 
Q 2550 3084 2163 3084 
Q 1697 3084 1428 2787 
Q 1159 2491 1159 1978 
L 1159 0 
L 581 0 
L 581 3500 
L 1159 3500 
L 1159 2956 
Q 1366 3272 1645 3428 
Q 1925 3584 2291 3584 
Q 2894 3584 3203 3211 
Q 3513 2838 3513 2113 
z
" transform="scale(0.015625)"/>
      </defs>
      <use xlink:href="#DejaVuSans-70"/>
      <use xlink:href="#DejaVuSans-72" x="63.476562"/>
      <use xlink:href="#DejaVuSans-6f" x="102.339844"/>
      <use xlink:href="#DejaVuSans-70" x="163.521484"/>
      <use xlink:href="#DejaVuSans-6f" x="226.998047"/>
      <use xlink:href="#DejaVuSans-72" x="288.179688"/>
      <use xlink:href="#DejaVuSans-74" x="329.292969"/>
      <use xlink:href="#DejaVuSans-69" x="368.501953"/>
      <use xlink:href="#DejaVuSans-6f" x="396.285156"/>
      <use xlink:href="#DejaVuSans-6e" x="457.466797"/>
      <use xlink:href="#DejaVuSans-20" x="520.845703"/>
      <use xlink:href="#DejaVuSans-6f" x="552.632812"/>
      <use xlink:href="#DejaVuSans-66" x="613.814453"/>
      <use xlink:href="#DejaVuSans-20" x="649.019531"/>
      <use xlink:href="#DejaVuSans-74" x="680.806641"/>
      <use xlink:href="#DejaVuSans-72" x="720.015625"/>
      <use xlink:href="#DejaVuSans-69" x="761.128906"/>
      <use xlink:href="#DejaVuSans-61" x="788.912109"/>
      <use xlink:href="#DejaVuSans-6c" x="850.191406"/>
      <use xlink:href="#DejaVuSans-73" x="877.974609"/>
     </g>
    </g>
   </g>
   <g id="line2d_33">
    <path d="M 34.16 271.23784 
L 155.165069 271.23784 
L 155.165069 270.520512 
L 159.331223 270.520512 
L 159.331223 269.085854 
L 163.528286 269.085854 
L 163.528286 268.368526 
L 172.358082 268.368526 
L 172.358082 267.651197 
L 184.491763 267.651197 
L 184.586125 266.21654 
L 185.235755 266.21654 
L 185.235755 265.499212 
L 188.657917 265.499212 
L 188.657917 264.064555 
L 189.401909 264.064555 
L 189.401909 262.629897 
L 192.854981 262.629897 
L 192.854981 261.912569 
L 193.598973 261.912569 
L 193.598973 261.19524 
L 193.719358 261.19524 
L 193.719358 260.477912 
L 200.026552 260.477912 
L 200.026552 259.760583 
L 201.684777 259.760583 
L 201.684777 259.043255 
L 202.428769 259.043255 
L 202.428769 258.325926 
L 204.192706 258.325926 
L 204.192706 256.891269 
L 205.156342 256.891269 
L 205.156342 256.17394 
L 205.456933 256.17394 
L 205.456933 255.456612 
L 206.000425 255.456612 
L 206.000425 254.739283 
L 208.176309 254.739283 
L 208.176309 254.021955 
L 208.38977 254.021955 
L 208.38977 253.304626 
L 208.804679 253.304626 
L 208.810635 251.869969 
L 209.322497 251.869969 
L 209.322497 250.435312 
L 209.947814 250.435312 
L 209.947814 249.717983 
L 210.489328 249.717983 
L 210.489328 249.000655 
L 211.687261 249.000655 
L 211.687261 248.283326 
L 213.51956 248.283326 
L 213.51956 247.565998 
L 213.91282 247.565998 
L 213.91282 246.848669 
L 214.113968 246.848669 
L 214.113968 245.414012 
L 214.656812 245.414012 
L 214.656812 244.696684 
L 215.853415 244.696684 
L 215.853415 243.262026 
L 216.648361 243.262026 
L 216.648361 242.544698 
L 217.219565 242.544698 
L 217.219565 241.827369 
L 218.311032 241.827369 
L 218.311032 241.110041 
L 218.946515 241.110041 
L 218.946515 240.392712 
L 219.768835 240.392712 
L 219.768835 239.675384 
L 220.050479 239.675384 
L 220.050479 238.958055 
L 220.792781 238.958055 
L 220.792781 237.523398 
L 221.091702 237.523398 
L 221.091702 236.806069 
L 222.349356 236.806069 
L 222.349356 236.088741 
L 223.058822 236.088741 
L 223.112669 233.936755 
L 223.267586 233.936755 
L 223.267586 233.219427 
L 223.481907 233.219427 
L 223.481907 232.502098 
L 224.801229 232.502098 
L 224.801229 231.78477 
L 225.464659 231.78477 
L 225.464659 231.067441 
L 226.014303 231.067441 
L 226.014303 230.350112 
L 226.512464 230.350112 
L 226.512464 229.632784 
L 227.140828 229.632784 
L 227.140828 228.915455 
L 227.309733 228.915455 
L 227.309733 228.198127 
L 228.765492 228.198127 
L 228.765492 227.480798 
L 228.880275 227.480798 
L 228.929428 226.046141 
L 229.447608 226.046141 
L 229.447608 225.328813 
L 231.105312 225.328813 
L 231.105312 224.611484 
L 231.544858 224.611484 
L 231.544858 223.894155 
L 233.073848 223.894155 
L 233.073848 222.459498 
L 233.226788 222.459498 
L 233.226788 221.74217 
L 234.443326 221.74217 
L 234.443326 221.024841 
L 234.577399 221.024841 
L 234.577399 220.307513 
L 234.826741 220.307513 
L 234.826741 219.590184 
L 235.249732 219.590184 
L 235.249732 218.155527 
L 235.419618 218.155527 
L 235.419618 217.438198 
L 236.139529 217.438198 
L 236.139529 216.72087 
L 237.793808 216.72087 
L 237.793808 216.003541 
L 238.129034 216.003541 
L 238.150098 213.851556 
L 238.259183 213.851556 
L 238.259183 213.134227 
L 238.413224 213.134227 
L 238.413224 212.416899 
L 238.739268 212.416899 
L 238.739268 211.69957 
L 238.875366 211.69957 
L 238.875366 210.982241 
L 239.368871 210.982241 
L 239.368871 210.264913 
L 240.362875 210.264913 
L 240.362875 209.547584 
L 240.555936 209.547584 
L 240.555936 208.830256 
L 241.10558 208.830256 
L 241.108318 207.395599 
L 243.077394 207.395599 
L 243.161429 205.960942 
L 243.276685 205.960942 
L 243.276685 205.243613 
L 244.537437 205.243613 
L 244.537437 204.526284 
L 245.155226 204.526284 
L 245.155226 203.808956 
L 245.987825 203.808956 
L 245.987825 203.091627 
L 247.104877 203.091627 
L 247.104877 202.374299 
L 247.257436 202.374299 
L 247.257436 201.65697 
L 247.700685 201.65697 
L 247.700685 200.939642 
L 248.225152 200.939642 
L 248.225152 200.222313 
L 248.367572 200.222313 
L 248.393662 198.787656 
L 248.943306 198.787656 
L 248.943306 198.070327 
L 249.138642 198.070327 
L 249.138642 197.352999 
L 249.821023 197.352999 
L 249.876569 195.918342 
L 250.018687 195.918342 
L 250.018687 195.201013 
L 250.132245 195.201013 
L 250.132245 193.766356 
L 251.238607 193.766356 
L 251.341841 191.61437 
L 251.423591 191.61437 
L 251.423591 190.179713 
L 251.767135 190.179713 
L 251.767135 189.462385 
L 252.391306 189.462385 
L 252.391306 188.027728 
L 252.538082 188.027728 
L 252.538082 186.593071 
L 253.087726 186.593071 
L 253.087726 185.158413 
L 253.666162 185.158413 
L 253.666162 184.441085 
L 255.48715 184.441085 
L 255.48715 183.723756 
L 255.620654 183.723756 
L 255.699537 182.289099 
L 255.882272 182.289099 
L 255.959941 180.854442 
L 256.154007 180.854442 
L 256.154007 180.137114 
L 256.535347 180.137114 
L 256.588369 178.702456 
L 258.083843 178.702456 
L 258.083843 177.985128 
L 258.288243 177.985128 
L 258.288243 177.267799 
L 258.795953 177.267799 
L 258.795953 176.550471 
L 258.947278 176.550471 
L 258.947278 175.833142 
L 259.907859 175.833142 
L 259.907859 175.115814 
L 260.424423 175.115814 
L 260.424423 174.398485 
L 260.676387 174.398485 
L 260.676387 173.681157 
L 260.978995 173.681157 
L 260.992336 172.246499 
L 261.104428 172.246499 
L 261.104428 171.529171 
L 261.437593 171.529171 
L 261.437593 170.811842 
L 262.229152 170.811842 
L 262.229152 170.094514 
L 262.441539 170.094514 
L 262.441539 169.377185 
L 262.596596 169.377185 
L 262.596596 168.659857 
L 263.587425 168.659857 
L 263.587425 167.942528 
L 263.770021 167.942528 
L 263.770021 167.2252 
L 263.962462 167.2252 
L 263.962462 166.507871 
L 264.45045 166.507871 
L 264.514013 165.073214 
L 264.759081 165.073214 
L 264.759081 164.355885 
L 265.030245 164.355885 
L 265.030245 163.638557 
L 265.326872 163.638557 
L 265.418165 162.2039 
L 265.68928 162.2039 
L 265.708782 160.051914 
L 265.912113 160.051914 
L 265.912113 159.334585 
L 266.079036 159.334585 
L 266.079036 158.617257 
L 266.272343 158.617257 
L 266.329884 157.1826 
L 266.649861 157.1826 
L 266.649861 156.465271 
L 267.164919 156.465271 
L 267.164919 155.747943 
L 267.498842 155.747943 
L 267.498842 155.030614 
L 267.650083 155.030614 
L 267.714563 153.595957 
L 267.84643 153.595957 
L 267.84643 152.878628 
L 267.966493 152.878628 
L 268.065963 151.443971 
L 268.221994 151.443971 
L 268.221994 150.726643 
L 268.796194 150.726643 
L 268.825923 148.574657 
L 269.50072 148.574657 
L 269.50072 147.857329 
L 269.916144 147.857329 
L 269.916144 147.14 
L 270.563894 147.14 
L 270.563894 146.422671 
L 271.135805 146.422671 
L 271.135805 145.705343 
L 271.799205 145.705343 
L 271.833562 144.270686 
L 272.047379 144.270686 
L 272.047379 143.553357 
L 272.586126 143.553357 
L 272.586126 142.836029 
L 272.705491 142.836029 
L 272.705491 142.1187 
L 272.822665 142.1187 
L 272.829954 140.684043 
L 273.748856 140.684043 
L 273.828588 139.249386 
L 273.984915 139.249386 
L 273.984915 138.532057 
L 274.16761 138.532057 
L 274.16761 137.814729 
L 274.533114 137.814729 
L 274.533114 137.0974 
L 274.881374 137.0974 
L 274.881374 136.380072 
L 275.290896 136.380072 
L 275.290896 135.662743 
L 276.302841 135.662743 
L 276.302841 134.945415 
L 276.662666 134.945415 
L 276.678493 133.510757 
L 276.891079 133.510757 
L 276.891079 132.793429 
L 277.646208 132.793429 
L 277.646208 132.0761 
L 278.31203 132.0761 
L 278.31203 130.641443 
L 278.629049 130.641443 
L 278.70136 129.206786 
L 279.200961 129.206786 
L 279.304809 127.0548 
L 279.53699 127.0548 
L 279.53699 126.337472 
L 279.988957 126.337472 
L 279.988957 125.620143 
L 280.89511 125.620143 
L 280.89511 124.902815 
L 281.036388 124.902815 
L 281.036388 124.185486 
L 281.248775 124.185486 
L 281.248775 123.468158 
L 281.938607 123.468158 
L 282.034525 122.033501 
L 282.401974 122.033501 
L 282.401974 121.316172 
L 282.774358 121.316172 
L 282.774358 120.598843 
L 282.986745 120.598843 
L 282.986745 119.881515 
L 283.346269 119.881515 
L 283.346269 119.164186 
L 283.558656 119.164186 
L 283.600751 117.729529 
L 283.837481 117.729529 
L 283.837481 117.012201 
L 283.984946 117.012201 
L 283.984946 116.294872 
L 284.328447 116.294872 
L 284.439235 113.425558 
L 284.496517 113.425558 
L 284.496517 112.708229 
L 284.727822 112.708229 
L 284.727822 111.990901 
L 284.852418 111.990901 
L 284.852418 111.273572 
L 285.040419 111.273572 
L 285.040419 110.556244 
L 285.252806 110.556244 
L 285.329749 109.121587 
L 285.457098 109.121587 
L 285.457098 108.404258 
L 285.575452 108.404258 
L 285.575452 107.686929 
L 286.145464 107.686929 
L 286.234487 105.534944 
L 286.50433 105.534944 
L 286.50433 104.817615 
L 286.653667 104.817615 
L 286.653667 104.100287 
L 286.806398 104.100287 
L 286.821167 102.66563 
L 287.195068 102.66563 
L 287.265435 101.230972 
L 287.525693 101.230972 
L 287.525693 100.513644 
L 287.766979 100.513644 
L 287.841512 99.078987 
L 288.391637 99.078987 
L 288.500547 97.64433 
L 288.730542 97.64433 
L 288.74885 96.209673 
L 288.873131 96.209673 
L 288.963548 94.775015 
L 289.085518 94.775015 
L 289.085518 94.057687 
L 289.226072 94.057687 
L 289.226072 93.340358 
L 289.384525 93.340358 
L 289.461128 91.905701 
L 289.763887 91.905701 
L 289.763887 91.188373 
L 290.046195 91.188373 
L 290.046195 90.471044 
L 290.480339 90.471044 
L 290.480339 89.753716 
L 290.614742 89.753716 
L 290.657697 88.319058 
L 290.965519 88.319058 
L 290.965519 87.60173 
L 291.674224 87.60173 
L 291.674224 86.884401 
L 292.104753 86.884401 
L 292.169724 85.449744 
L 292.33326 85.449744 
L 292.33326 84.732416 
L 292.719369 84.732416 
L 292.809279 83.297759 
L 292.889093 83.297759 
L 292.938867 81.145773 
L 293.157623 81.145773 
L 293.157623 80.428444 
L 293.29384 80.428444 
L 293.29384 79.711116 
L 293.522014 79.711116 
L 293.522014 78.993787 
L 293.651095 78.993787 
L 293.651095 78.276459 
L 294.49041 78.276459 
L 294.49041 77.55913 
L 295.107274 77.55913 
L 295.107274 76.841802 
L 295.261461 76.841802 
L 295.330591 75.407144 
L 295.512733 75.407144 
L 295.512733 74.689816 
L 297.062883 74.689816 
L 297.062883 73.972487 
L 297.275269 73.972487 
L 297.358371 72.53783 
L 298.021084 72.53783 
L 298.021084 71.820502 
L 298.166001 71.820502 
L 298.224773 70.385845 
L 298.870528 70.385845 
L 298.870528 69.668516 
L 299.4759 69.668516 
L 299.4759 68.951187 
L 299.603417 68.951187 
L 299.688287 67.51653 
L 299.863976 67.51653 
L 299.863976 66.799202 
L 300.523011 66.799202 
L 300.523011 66.081873 
L 300.897047 66.081873 
L 300.897047 65.364545 
L 301.386843 65.364545 
L 301.483592 63.929888 
L 301.864762 63.929888 
L 301.864762 63.212559 
L 302.270143 63.212559 
L 302.276993 61.777902 
L 302.520715 61.777902 
L 302.520715 61.060573 
L 302.680161 61.060573 
L 302.680161 60.343245 
L 302.936029 60.343245 
L 302.936029 59.625916 
L 303.696427 59.625916 
L 303.792681 58.191259 
L 303.896609 58.191259 
L 303.896609 57.473931 
L 304.072696 57.473931 
L 304.072696 56.756602 
L 304.342325 56.756602 
L 304.342325 56.039273 
L 304.505663 56.039273 
L 304.505663 55.321945 
L 305.093179 55.321945 
L 305.093179 54.604616 
L 306.08624 54.604616 
L 306.08624 53.887288 
L 306.986588 53.887288 
L 306.986588 53.169959 
L 308.505312 53.169959 
L 308.505312 52.452631 
L 308.974942 52.452631 
L 308.974942 51.735302 
L 310.231549 51.735302 
L 310.231549 51.017974 
L 310.440056 51.017974 
L 310.443936 49.583316 
L 311.482003 49.583316 
L 311.482003 48.865988 
L 313.032642 48.865988 
L 313.032642 48.148659 
L 313.691678 48.148659 
L 313.788898 46.714002 
L 314.652258 46.714002 
L 314.652258 45.996674 
L 315.106395 45.996674 
L 315.106395 45.279345 
L 315.810921 45.279345 
L 315.848827 43.844688 
L 316.198448 43.844688 
L 316.198448 43.127359 
L 317.15438 43.127359 
L 317.15438 42.410031 
L 317.943672 42.410031 
L 317.943672 41.692702 
L 319.850146 41.692702 
L 319.850146 40.975374 
L 322.056626 40.975374 
L 322.056626 40.258045 
L 322.33657 40.258045 
L 322.33657 39.540717 
L 324.318255 39.540717 
L 324.318255 38.823388 
L 325.022781 38.823388 
L 325.022781 38.10606 
L 326.535694 38.10606 
L 326.535694 37.388731 
L 326.805849 37.388731 
L 326.805849 36.671402 
L 327.053016 36.671402 
L 327.053016 35.954074 
L 327.503409 35.954074 
L 327.503409 35.236745 
L 329.566629 35.236745 
L 329.566629 34.519417 
L 330.831636 34.519417 
L 330.831636 33.802088 
L 331.522295 33.802088 
L 331.522295 33.08476 
L 331.799351 33.08476 
L 331.799351 32.367431 
L 335.172823 32.367431 
L 335.172823 31.650103 
L 335.877349 31.650103 
L 335.877349 30.932774 
L 336.79054 30.932774 
L 336.79054 30.215445 
L 339.642101 30.215445 
L 339.642101 29.498117 
L 339.887533 29.498117 
L 339.887533 28.780788 
L 340.346627 28.780788 
L 340.346627 28.06346 
L 344.603979 28.06346 
L 344.603979 27.346131 
L 346.0024 27.346131 
L 346.0024 26.628803 
L 352.723786 26.628803 
L 352.723786 25.911474 
L 353.428312 25.911474 
L 353.428312 25.194146 
L 356.856968 25.194146 
L 356.856968 24.476817 
L 361.326246 24.476817 
L 361.326246 23.759488 
L 374.40793 23.759488 
L 374.40793 23.04216 
L 446.924475 23.04216 
L 446.924475 23.04216 
" clip-path="url(#pa46b8aa6df)" style="fill: none; stroke: #000000; stroke-width: 3; stroke-linecap: square"/>
   </g>
   <g id="line2d_34">
    <path clip-path="url(#pa46b8aa6df)" style="fill: none; stroke: #000000; stroke-width: 3; stroke-linecap: square"/>
   </g>
   <g id="line2d_35">
    <path d="M 34.16 262.760321 
L 120.042427 262.760321 
L 120.042427 261.475651 
L 127.424444 261.475651 
L 127.424444 260.19098 
L 142.507299 260.19098 
L 142.507299 258.90631 
L 149.876879 258.90631 
L 149.876879 257.62164 
L 157.258895 257.62164 
L 157.258895 256.33697 
L 164.589248 256.33697 
L 164.589248 255.052299 
L 170.356026 255.052299 
L 170.356026 253.767629 
L 172.341751 253.767629 
L 172.341751 252.482959 
L 178.213554 252.482959 
L 178.213554 251.198289 
L 179.470197 251.198289 
L 179.470197 249.913619 
L 185.59557 249.913619 
L 185.59557 248.628948 
L 186.385704 248.628948 
L 186.385704 247.344278 
L 186.852213 247.344278 
L 186.852213 246.059608 
L 187.300344 246.059608 
L 187.300344 244.774938 
L 194.004946 244.774938 
L 194.004946 243.490267 
L 194.4237 243.490267 
L 194.4237 242.205597 
L 194.682361 242.205597 
L 194.682361 240.920927 
L 198.232221 240.920927 
L 198.232221 239.636257 
L 198.558993 239.636257 
L 198.558993 238.351586 
L 200.190478 238.351586 
L 200.190478 237.066916 
L 200.678426 237.066916 
L 200.678426 235.782246 
L 201.386962 235.782246 
L 201.399736 231.928235 
L 201.935069 231.928235 
L 201.935069 230.643565 
L 205.614237 230.643565 
L 205.614237 229.358895 
L 208.319323 229.358895 
L 208.319323 228.074225 
L 208.487049 228.074225 
L 208.487049 226.789554 
L 209.765217 226.789554 
L 209.765217 225.504884 
L 210.373261 225.504884 
L 210.373261 224.220214 
L 216.220156 224.220214 
L 216.220156 222.935544 
L 216.469818 222.935544 
L 216.469818 221.650873 
L 217.25132 221.650873 
L 217.25132 220.366203 
L 220.697093 220.366203 
L 220.697093 219.081533 
L 221.886659 219.081533 
L 221.886659 217.796863 
L 222.356029 217.796863 
L 222.356029 216.512193 
L 222.760374 216.512193 
L 222.760374 215.227522 
L 224.017018 215.227522 
L 224.017018 213.942852 
L 224.243519 213.942852 
L 224.243519 212.658182 
L 225.169173 212.658182 
L 225.169173 211.373512 
L 225.628437 211.373512 
L 225.628437 210.088841 
L 227.44231 210.088841 
L 227.44231 208.804171 
L 228.527153 208.804171 
L 228.527153 207.519501 
L 229.783796 207.519501 
L 229.783796 206.234831 
L 231.234188 206.234831 
L 231.234188 203.66549 
L 231.814715 203.66549 
L 231.847165 201.09615 
L 233.700927 201.09615 
L 233.700927 199.81148 
L 234.171575 199.81148 
L 234.171575 198.526809 
L 234.559008 198.526809 
L 234.559008 197.242139 
L 235.097229 197.242139 
L 235.097229 195.957469 
L 235.556493 195.957469 
L 235.556493 194.672799 
L 236.057787 194.672799 
L 236.147209 192.103458 
L 236.983441 192.103458 
L 236.983441 190.818788 
L 237.370366 190.818788 
L 237.442706 188.249447 
L 237.613944 188.249447 
L 237.613944 186.964777 
L 238.153775 186.964777 
L 238.153775 185.680107 
L 238.551767 185.680107 
L 238.551767 184.395437 
L 239.256578 184.395437 
L 239.256578 183.110766 
L 239.641095 183.110766 
L 239.641095 181.826096 
L 240.578986 181.826096 
L 240.578986 180.541426 
L 241.988531 180.541426 
L 241.988531 179.256756 
L 242.779042 179.256756 
L 242.779042 177.972086 
L 242.935846 177.972086 
L 242.935846 176.687415 
L 243.861499 176.687415 
L 243.861499 175.402745 
L 244.318545 175.402745 
L 244.320764 172.833405 
L 244.487064 172.833405 
L 244.556831 170.264064 
L 245.683695 170.264064 
L 245.683695 168.979394 
L 245.813474 168.979394 
L 245.813474 167.694724 
L 246.134637 167.694724 
L 246.134637 166.410053 
L 246.373277 166.410053 
L 246.388665 163.840713 
L 248.040555 163.840713 
L 248.040555 162.556043 
L 248.54582 162.556043 
L 248.54582 161.271373 
L 248.966209 161.271373 
L 248.966209 159.986702 
L 249.425474 159.986702 
L 249.425474 158.702032 
L 249.746292 158.702032 
L 249.746292 157.417362 
L 251.239346 157.417362 
L 251.239346 156.132692 
L 253.251335 156.132692 
L 253.251335 154.848021 
L 253.518249 154.848021 
L 253.518249 153.563351 
L 253.643622 153.563351 
L 253.643622 152.278681 
L 255.861634 152.278681 
L 255.861634 150.994011 
L 256.316721 150.994011 
L 256.316721 149.70934 
L 258.202933 149.70934 
L 258.202933 148.42467 
L 258.356045 148.42467 
L 258.356045 147.14 
L 258.756332 147.14 
L 258.756332 145.85533 
L 259.474875 145.85533 
L 259.570863 142.001319 
L 260.034945 142.001319 
L 260.034945 140.716649 
L 260.348223 140.716649 
L 260.348223 139.431979 
L 260.827506 139.431979 
L 260.900266 135.577968 
L 261.831736 135.577968 
L 261.831736 134.293298 
L 262.757389 134.293298 
L 262.757389 133.008627 
L 262.968761 133.008627 
L 262.968761 131.723957 
L 263.216654 131.723957 
L 263.216654 130.439287 
L 264.575498 130.439287 
L 264.575498 129.154617 
L 265.030526 129.154617 
L 265.080992 126.585276 
L 265.325621 126.585276 
L 265.325621 125.300606 
L 265.78969 125.300606 
L 265.78969 124.015936 
L 266.251275 124.015936 
L 266.251275 122.731266 
L 266.49045 122.731266 
L 266.49045 121.446595 
L 266.71054 121.446595 
L 266.71054 120.161925 
L 267.675902 120.161925 
L 267.747093 117.592585 
L 268.524412 117.592585 
L 268.576916 115.023244 
L 268.657654 115.023244 
L 268.684388 111.169234 
L 270.185701 111.169234 
L 270.185701 109.884563 
L 270.570601 109.884563 
L 270.570601 108.599893 
L 271.822983 108.599893 
L 271.822983 107.315223 
L 272.147225 107.315223 
L 272.147225 106.030553 
L 273.073958 106.030553 
L 273.073958 104.745882 
L 274.04812 104.745882 
L 274.04812 103.461212 
L 274.553961 103.461212 
L 274.553961 102.176542 
L 275.362255 102.176542 
L 275.430818 98.322531 
L 275.577241 98.322531 
L 275.641111 95.753191 
L 275.983121 95.753191 
L 275.983121 94.46852 
L 276.356471 94.46852 
L 276.356471 93.18385 
L 276.815736 93.18385 
L 276.815736 91.89918 
L 277.448659 91.89918 
L 277.448659 90.61451 
L 278.629609 90.61451 
L 278.629609 89.32984 
L 279.58953 89.32984 
L 279.65867 85.475829 
L 281.430136 85.475829 
L 281.430136 84.191159 
L 282.281842 84.191159 
L 282.281842 82.906488 
L 282.553369 82.906488 
L 282.553369 81.621818 
L 282.704523 81.621818 
L 282.704523 80.337148 
L 283.362611 80.337148 
L 283.362611 79.052478 
L 283.976882 79.052478 
L 283.976882 77.767807 
L 285.719471 77.767807 
L 285.746307 75.198467 
L 286.509117 75.198467 
L 286.509117 73.913797 
L 286.645125 73.913797 
L 286.645125 72.629127 
L 287.10439 72.629127 
L 287.10439 71.344456 
L 287.470767 71.344456 
L 287.470767 70.059786 
L 288.918262 70.059786 
L 288.918262 68.775116 
L 290.08654 68.775116 
L 290.08654 67.490446 
L 291.904582 67.490446 
L 291.904582 66.205775 
L 293.44985 66.205775 
L 293.44985 64.921105 
L 294.261443 64.921105 
L 294.261443 63.636435 
L 295.187096 63.636435 
L 295.187096 62.351765 
L 295.646361 62.351765 
L 295.646361 61.067094 
L 296.034961 61.067094 
L 296.034961 59.782424 
L 296.344549 59.782424 
L 296.344549 58.497754 
L 296.512992 58.497754 
L 296.512992 57.213084 
L 296.943736 57.213084 
L 296.943736 55.928414 
L 297.460233 55.928414 
L 297.460233 54.643743 
L 297.575964 54.643743 
L 297.575964 53.359073 
L 298.06507 53.359073 
L 298.06507 52.074403 
L 299.838435 52.074403 
L 299.838435 50.789733 
L 300.159658 50.789733 
L 300.159658 49.505062 
L 301.416301 49.505062 
L 301.416301 48.220392 
L 303.831848 48.220392 
L 303.831848 46.935722 
L 304.576932 46.935722 
L 304.576932 45.651052 
L 305.169395 45.651052 
L 305.169395 44.366381 
L 307.048933 44.366381 
L 307.048933 43.081711 
L 307.864617 43.081711 
L 307.864617 41.797041 
L 309.246449 41.797041 
L 309.246449 40.512371 
L 309.943631 40.512371 
L 309.943631 39.227701 
L 315.95105 39.227701 
L 315.95105 37.94303 
L 316.406589 37.94303 
L 316.406589 36.65836 
L 317.337586 36.65836 
L 317.337586 35.37369 
L 318.594941 35.37369 
L 318.594941 34.08902 
L 319.861526 34.08902 
L 319.861526 32.804349 
L 320.178325 32.804349 
L 320.232285 30.235009 
L 324.361719 30.235009 
L 324.361719 28.950339 
L 325.879557 28.950339 
L 325.879557 27.665668 
L 327.251344 27.665668 
L 327.251344 26.380998 
L 328.774256 26.380998 
L 328.774256 25.096328 
L 333.018122 25.096328 
L 333.018122 23.811658 
L 334.875558 23.811658 
L 334.875558 21.242317 
L 340.391397 21.242317 
L 340.391397 19.957647 
L 341.795145 19.957647 
L 341.795145 18.672977 
L 349.0478 18.672977 
L 349.0478 17.388307 
L 355.405429 17.388307 
L 355.405429 14.818966 
L 362.325016 14.818966 
L 362.325016 13.534296 
L 364.061832 13.534296 
L 364.061832 10.964955 
L 370.981419 10.964955 
L 370.981419 9.680285 
L 375.464353 9.680285 
L 375.464353 8.395615 
L 395.994224 8.395615 
L 395.994224 7.110945 
L 404.650627 7.110945 
L 404.650627 5.826275 
L 446.924475 5.826275 
L 446.924475 5.826275 
" clip-path="url(#pa46b8aa6df)" style="fill: none; stroke: #00bfbf; stroke-width: 3; stroke-linecap: square"/>
   </g>
   <g id="line2d_36">
    <path clip-path="url(#pa46b8aa6df)" style="fill: none; stroke: #00bfbf; stroke-width: 3; stroke-linecap: square"/>
   </g>
   <g id="line2d_37">
    <path d="M 34.16 188.822466 
L 200.800499 188.822466 
L 200.800499 186.789175 
L 210.921157 186.789175 
L 210.921157 184.755884 
L 217.73368 184.755884 
L 217.73368 182.722593 
L 227.854337 182.722593 
L 227.854337 180.689302 
L 231.141166 180.689302 
L 231.141166 178.656011 
L 231.602824 178.656011 
L 231.602824 176.62272 
L 235.257339 176.62272 
L 235.257339 174.589429 
L 238.392768 174.589429 
L 238.392768 172.556138 
L 242.310982 172.556138 
L 242.310982 170.522847 
L 244.504565 170.522847 
L 244.504565 168.489556 
L 244.869017 168.489556 
L 244.869017 166.456265 
L 246.461713 166.456265 
L 246.461713 164.422974 
L 246.92337 164.422974 
L 246.92337 162.389683 
L 252.190519 162.389683 
L 252.190519 160.356392 
L 252.28856 160.356392 
L 252.28856 158.323101 
L 252.431639 158.323101 
L 252.431639 156.28981 
L 252.626759 156.28981 
L 252.626759 154.256519 
L 253.27399 154.256519 
L 253.27399 152.223228 
L 253.735647 152.223228 
L 253.735647 150.189937 
L 254.989675 150.189937 
L 254.989675 148.156646 
L 255.325949 148.156646 
L 255.325949 146.123354 
L 259.825111 146.123354 
L 259.825111 144.090063 
L 260.680569 144.090063 
L 260.680569 142.056772 
L 261.142226 142.056772 
L 261.142226 140.023481 
L 262.486597 140.023481 
L 262.486597 137.99019 
L 262.948255 137.99019 
L 262.948255 135.956899 
L 266.637389 135.956899 
L 266.637389 133.923608 
L 267.609107 133.923608 
L 267.609107 131.890317 
L 267.947305 131.890317 
L 267.947305 129.857026 
L 274.043967 129.857026 
L 274.043967 127.823735 
L 274.421384 127.823735 
L 274.421384 125.790444 
L 274.759583 125.790444 
L 274.759583 123.757153 
L 275.849996 123.757153 
L 275.849996 121.723862 
L 276.767821 121.723862 
L 276.767821 119.690571 
L 279.325857 119.690571 
L 279.325857 117.65728 
L 279.903251 117.65728 
L 279.903251 115.623989 
L 281.827963 115.623989 
L 281.827963 113.590698 
L 282.166161 113.590698 
L 282.166161 111.557407 
L 282.461286 111.557407 
L 282.461286 109.524116 
L 283.633991 109.524116 
L 283.633991 107.490825 
L 283.97219 107.490825 
L 283.97219 105.457534 
L 446.924475 105.457534 
" clip-path="url(#pa46b8aa6df)" style="fill: none; stroke: #bf00bf; stroke-width: 3; stroke-linecap: square"/>
   </g>
   <g id="line2d_38">
    <path clip-path="url(#pa46b8aa6df)" style="fill: none; stroke: #bf00bf; stroke-width: 3; stroke-linecap: square"/>
   </g>
   <g id="line2d_39">
    <path d="M 75.395212 288.453725 
L 34.16 288.453725 
L 446.924475 288.453725 
L 461.8 288.453725 
" clip-path="url(#pa46b8aa6df)" style="fill: none; stroke: #ff0000; stroke-width: 3; stroke-linecap: square"/>
   </g>
   <g id="line2d_40"/>
   <g id="line2d_41">
    <path d="M 240.542238 291.28 
L 240.542238 3 
" clip-path="url(#pa46b8aa6df)" style="fill: none; stroke: #000000; stroke-width: 1.5; stroke-linecap: square"/>
   </g>
   <g id="line2d_42">
    <path d="M 34.16 147.14 
L 446.924475 147.14 
" clip-path="url(#pa46b8aa6df)" style="fill: none; stroke-dasharray: 2,3.3; stroke-dashoffset: 0; stroke: #000000; stroke-width: 2"/>
   </g>
   <g id="patch_3">
    <path d="M 34.16 291.28 
L 34.16 3 
" style="fill: none; stroke: #000000; stroke-width: 0.8; stroke-linejoin: miter; stroke-linecap: square"/>
   </g>
   <g id="patch_4">
    <path d="M 446.924475 291.28 
L 446.924475 3 
" style="fill: none; stroke: #000000; stroke-width: 0.8; stroke-linejoin: miter; stroke-linecap: square"/>
   </g>
   <g id="patch_5">
    <path d="M 34.16 291.28 
L 446.924475 291.28 
" style="fill: none; stroke: #000000; stroke-width: 0.8; stroke-linejoin: miter; stroke-linecap: square"/>
   </g>
   <g id="patch_6">
    <path d="M 34.16 3 
L 446.924475 3 
" style="fill: none; stroke: #000000; stroke-width: 0.8; stroke-linejoin: miter; stroke-linecap: square"/>
   </g>
   <g id="text_6">
    <!-- f26, f27, f33, f34,20-D -->
    <g transform="translate(216.147311 285.5144) scale(0.2 -0.2)">
     <defs>
      <path id="DejaVuSans-32" d="M 1228 531 
L 3431 531 
L 3431 0 
L 469 0 
L 469 531 
Q 828 903 1448 1529 
Q 2069 2156 2228 2338 
Q 2531 2678 2651 2914 
Q 2772 3150 2772 3378 
Q 2772 3750 2511 3984 
Q 2250 4219 1831 4219 
Q 1534 4219 1204 4116 
Q 875 4013 500 3803 
L 500 4441 
Q 881 4594 1212 4672 
Q 1544 4750 1819 4750 
Q 2544 4750 2975 4387 
Q 3406 4025 3406 3419 
Q 3406 3131 3298 2873 
Q 3191 2616 2906 2266 
Q 2828 2175 2409 1742 
Q 1991 1309 1228 531 
z
" transform="scale(0.015625)"/>
      <path id="DejaVuSans-36" d="M 2113 2584 
Q 1688 2584 1439 2293 
Q 1191 2003 1191 1497 
Q 1191 994 1439 701 
Q 1688 409 2113 409 
Q 2538 409 2786 701 
Q 3034 994 3034 1497 
Q 3034 2003 2786 2293 
Q 2538 2584 2113 2584 
z
M 3366 4563 
L 3366 3988 
Q 3128 4100 2886 4159 
Q 2644 4219 2406 4219 
Q 1781 4219 1451 3797 
Q 1122 3375 1075 2522 
Q 1259 2794 1537 2939 
Q 1816 3084 2150 3084 
Q 2853 3084 3261 2657 
Q 3669 2231 3669 1497 
Q 3669 778 3244 343 
Q 2819 -91 2113 -91 
Q 1303 -91 875 529 
Q 447 1150 447 2328 
Q 447 3434 972 4092 
Q 1497 4750 2381 4750 
Q 2619 4750 2861 4703 
Q 3103 4656 3366 4563 
z
" transform="scale(0.015625)"/>
      <path id="DejaVuSans-2c" d="M 750 794 
L 1409 794 
L 1409 256 
L 897 -744 
L 494 -744 
L 750 256 
L 750 794 
z
" transform="scale(0.015625)"/>
      <path id="DejaVuSans-37" d="M 525 4666 
L 3525 4666 
L 3525 4397 
L 1831 0 
L 1172 0 
L 2766 4134 
L 525 4134 
L 525 4666 
z
" transform="scale(0.015625)"/>
      <path id="DejaVuSans-33" d="M 2597 2516 
Q 3050 2419 3304 2112 
Q 3559 1806 3559 1356 
Q 3559 666 3084 287 
Q 2609 -91 1734 -91 
Q 1441 -91 1130 -33 
Q 819 25 488 141 
L 488 750 
Q 750 597 1062 519 
Q 1375 441 1716 441 
Q 2309 441 2620 675 
Q 2931 909 2931 1356 
Q 2931 1769 2642 2001 
Q 2353 2234 1838 2234 
L 1294 2234 
L 1294 2753 
L 1863 2753 
Q 2328 2753 2575 2939 
Q 2822 3125 2822 3475 
Q 2822 3834 2567 4026 
Q 2313 4219 1838 4219 
Q 1578 4219 1281 4162 
Q 984 4106 628 3988 
L 628 4550 
Q 988 4650 1302 4700 
Q 1616 4750 1894 4750 
Q 2613 4750 3031 4423 
Q 3450 4097 3450 3541 
Q 3450 3153 3228 2886 
Q 3006 2619 2597 2516 
z
" transform="scale(0.015625)"/>
      <path id="DejaVuSans-34" d="M 2419 4116 
L 825 1625 
L 2419 1625 
L 2419 4116 
z
M 2253 4666 
L 3047 4666 
L 3047 1625 
L 3713 1625 
L 3713 1100 
L 3047 1100 
L 3047 0 
L 2419 0 
L 2419 1100 
L 313 1100 
L 313 1709 
L 2253 4666 
z
" transform="scale(0.015625)"/>
      <path id="DejaVuSans-44" d="M 1259 4147 
L 1259 519 
L 2022 519 
Q 2988 519 3436 956 
Q 3884 1394 3884 2338 
Q 3884 3275 3436 3711 
Q 2988 4147 2022 4147 
L 1259 4147 
z
M 628 4666 
L 1925 4666 
Q 3281 4666 3915 4102 
Q 4550 3538 4550 2338 
Q 4550 1131 3912 565 
Q 3275 0 1925 0 
L 628 0 
L 628 4666 
z
" transform="scale(0.015625)"/>
     </defs>
     <use xlink:href="#DejaVuSans-66"/>
     <use xlink:href="#DejaVuSans-32" x="35.205078"/>
     <use xlink:href="#DejaVuSans-36" x="98.828125"/>
     <use xlink:href="#DejaVuSans-2c" x="162.451172"/>
     <use xlink:href="#DejaVuSans-20" x="194.238281"/>
     <use xlink:href="#DejaVuSans-66" x="226.025391"/>
     <use xlink:href="#DejaVuSans-32" x="261.230469"/>
     <use xlink:href="#DejaVuSans-37" x="324.853516"/>
     <use xlink:href="#DejaVuSans-2c" x="388.476562"/>
     <use xlink:href="#DejaVuSans-20" x="420.263672"/>
     <use xlink:href="#DejaVuSans-66" x="452.050781"/>
     <use xlink:href="#DejaVuSans-33" x="487.255859"/>
     <use xlink:href="#DejaVuSans-33" x="550.878906"/>
     <use xlink:href="#DejaVuSans-2c" x="614.501953"/>
     <use xlink:href="#DejaVuSans-20" x="646.289062"/>
     <use xlink:href="#DejaVuSans-66" x="678.076172"/>
     <use xlink:href="#DejaVuSans-33" x="713.28125"/>
     <use xlink:href="#DejaVuSans-34" x="776.904297"/>
     <use xlink:href="#DejaVuSans-2c" x="840.527344"/>
     <use xlink:href="#DejaVuSans-32" x="872.314453"/>
     <use xlink:href="#DejaVuSans-30" x="935.9375"/>
     <use xlink:href="#DejaVuSans-2d" x="999.560547"/>
     <use xlink:href="#DejaVuSans-44" x="1035.644531"/>
    </g>
   </g>
   <g id="text_7">
    <!-- v2.6, hv-hash=ff0e71e8cd978373 -->
    <g style="fill: #808080" transform="translate(155.046925 286.317512) scale(0.1 -0.1)">
     <defs>
      <path id="DejaVuSans-2e" d="M 684 794 
L 1344 794 
L 1344 0 
L 684 0 
L 684 794 
z
" transform="scale(0.015625)"/>
      <path id="DejaVuSans-68" d="M 3513 2113 
L 3513 0 
L 2938 0 
L 2938 2094 
Q 2938 2591 2744 2837 
Q 2550 3084 2163 3084 
Q 1697 3084 1428 2787 
Q 1159 2491 1159 1978 
L 1159 0 
L 581 0 
L 581 4863 
L 1159 4863 
L 1159 2956 
Q 1366 3272 1645 3428 
Q 1925 3584 2291 3584 
Q 2894 3584 3203 3211 
Q 3513 2838 3513 2113 
z
" transform="scale(0.015625)"/>
      <path id="DejaVuSans-3d" d="M 678 2906 
L 4684 2906 
L 4684 2381 
L 678 2381 
L 678 2906 
z
M 678 1631 
L 4684 1631 
L 4684 1100 
L 678 1100 
L 678 1631 
z
" transform="scale(0.015625)"/>
      <path id="DejaVuSans-65" d="M 3597 1894 
L 3597 1613 
L 953 1613 
Q 991 1019 1311 708 
Q 1631 397 2203 397 
Q 2534 397 2845 478 
Q 3156 559 3463 722 
L 3463 178 
Q 3153 47 2828 -22 
Q 2503 -91 2169 -91 
Q 1331 -91 842 396 
Q 353 884 353 1716 
Q 353 2575 817 3079 
Q 1281 3584 2069 3584 
Q 2775 3584 3186 3129 
Q 3597 2675 3597 1894 
z
M 3022 2063 
Q 3016 2534 2758 2815 
Q 2500 3097 2075 3097 
Q 1594 3097 1305 2825 
Q 1016 2553 972 2059 
L 3022 2063 
z
" transform="scale(0.015625)"/>
      <path id="DejaVuSans-38" d="M 2034 2216 
Q 1584 2216 1326 1975 
Q 1069 1734 1069 1313 
Q 1069 891 1326 650 
Q 1584 409 2034 409 
Q 2484 409 2743 651 
Q 3003 894 3003 1313 
Q 3003 1734 2745 1975 
Q 2488 2216 2034 2216 
z
M 1403 2484 
Q 997 2584 770 2862 
Q 544 3141 544 3541 
Q 544 4100 942 4425 
Q 1341 4750 2034 4750 
Q 2731 4750 3128 4425 
Q 3525 4100 3525 3541 
Q 3525 3141 3298 2862 
Q 3072 2584 2669 2484 
Q 3125 2378 3379 2068 
Q 3634 1759 3634 1313 
Q 3634 634 3220 271 
Q 2806 -91 2034 -91 
Q 1263 -91 848 271 
Q 434 634 434 1313 
Q 434 1759 690 2068 
Q 947 2378 1403 2484 
z
M 1172 3481 
Q 1172 3119 1398 2916 
Q 1625 2713 2034 2713 
Q 2441 2713 2670 2916 
Q 2900 3119 2900 3481 
Q 2900 3844 2670 4047 
Q 2441 4250 2034 4250 
Q 1625 4250 1398 4047 
Q 1172 3844 1172 3481 
z
" transform="scale(0.015625)"/>
      <path id="DejaVuSans-63" d="M 3122 3366 
L 3122 2828 
Q 2878 2963 2633 3030 
Q 2388 3097 2138 3097 
Q 1578 3097 1268 2742 
Q 959 2388 959 1747 
Q 959 1106 1268 751 
Q 1578 397 2138 397 
Q 2388 397 2633 464 
Q 2878 531 3122 666 
L 3122 134 
Q 2881 22 2623 -34 
Q 2366 -91 2075 -91 
Q 1284 -91 818 406 
Q 353 903 353 1747 
Q 353 2603 823 3093 
Q 1294 3584 2113 3584 
Q 2378 3584 2631 3529 
Q 2884 3475 3122 3366 
z
" transform="scale(0.015625)"/>
      <path id="DejaVuSans-64" d="M 2906 2969 
L 2906 4863 
L 3481 4863 
L 3481 0 
L 2906 0 
L 2906 525 
Q 2725 213 2448 61 
Q 2172 -91 1784 -91 
Q 1150 -91 751 415 
Q 353 922 353 1747 
Q 353 2572 751 3078 
Q 1150 3584 1784 3584 
Q 2172 3584 2448 3432 
Q 2725 3281 2906 2969 
z
M 947 1747 
Q 947 1113 1208 752 
Q 1469 391 1925 391 
Q 2381 391 2643 752 
Q 2906 1113 2906 1747 
Q 2906 2381 2643 2742 
Q 2381 3103 1925 3103 
Q 1469 3103 1208 2742 
Q 947 2381 947 1747 
z
" transform="scale(0.015625)"/>
      <path id="DejaVuSans-39" d="M 703 97 
L 703 672 
Q 941 559 1184 500 
Q 1428 441 1663 441 
Q 2288 441 2617 861 
Q 2947 1281 2994 2138 
Q 2813 1869 2534 1725 
Q 2256 1581 1919 1581 
Q 1219 1581 811 2004 
Q 403 2428 403 3163 
Q 403 3881 828 4315 
Q 1253 4750 1959 4750 
Q 2769 4750 3195 4129 
Q 3622 3509 3622 2328 
Q 3622 1225 3098 567 
Q 2575 -91 1691 -91 
Q 1453 -91 1209 -44 
Q 966 3 703 97 
z
M 1959 2075 
Q 2384 2075 2632 2365 
Q 2881 2656 2881 3163 
Q 2881 3666 2632 3958 
Q 2384 4250 1959 4250 
Q 1534 4250 1286 3958 
Q 1038 3666 1038 3163 
Q 1038 2656 1286 2365 
Q 1534 2075 1959 2075 
z
" transform="scale(0.015625)"/>
     </defs>
     <use xlink:href="#DejaVuSans-76"/>
     <use xlink:href="#DejaVuSans-32" x="59.179688"/>
     <use xlink:href="#DejaVuSans-2e" x="122.802734"/>
     <use xlink:href="#DejaVuSans-36" x="154.589844"/>
     <use xlink:href="#DejaVuSans-2c" x="218.212891"/>
     <use xlink:href="#DejaVuSans-20" x="250"/>
     <use xlink:href="#DejaVuSans-68" x="281.787109"/>
     <use xlink:href="#DejaVuSans-76" x="345.166016"/>
     <use xlink:href="#DejaVuSans-2d" x="401.720703"/>
     <use xlink:href="#DejaVuSans-68" x="437.804688"/>
     <use xlink:href="#DejaVuSans-61" x="501.183594"/>
     <use xlink:href="#DejaVuSans-73" x="562.462891"/>
     <use xlink:href="#DejaVuSans-68" x="614.5625"/>
     <use xlink:href="#DejaVuSans-3d" x="677.941406"/>
     <use xlink:href="#DejaVuSans-66" x="761.730469"/>
     <use xlink:href="#DejaVuSans-66" x="796.935547"/>
     <use xlink:href="#DejaVuSans-30" x="832.140625"/>
     <use xlink:href="#DejaVuSans-65" x="895.763672"/>
     <use xlink:href="#DejaVuSans-37" x="957.287109"/>
     <use xlink:href="#DejaVuSans-31" x="1020.910156"/>
     <use xlink:href="#DejaVuSans-65" x="1084.533203"/>
     <use xlink:href="#DejaVuSans-38" x="1146.056641"/>
     <use xlink:href="#DejaVuSans-63" x="1209.679688"/>
     <use xlink:href="#DejaVuSans-64" x="1264.660156"/>
     <use xlink:href="#DejaVuSans-39" x="1328.136719"/>
     <use xlink:href="#DejaVuSans-37" x="1391.759766"/>
     <use xlink:href="#DejaVuSans-38" x="1455.382812"/>
     <use xlink:href="#DejaVuSans-33" x="1519.005859"/>
     <use xlink:href="#DejaVuSans-37" x="1582.628906"/>
     <use xlink:href="#DejaVuSans-33" x="1646.251953"/>
    </g>
   </g>
   <g id="legend_1">
    <g id="patch_7">
     <path d="M 48.16 165.78125 
L 177.381875 165.78125 
Q 181.381875 165.78125 181.381875 161.78125 
L 181.381875 17 
Q 181.381875 13 177.381875 13 
L 48.16 13 
Q 44.16 13 44.16 17 
L 44.16 161.78125 
Q 44.16 165.78125 48.16 165.78125 
z
" style="fill: #ffffff; opacity: 0.2; stroke: #cccccc; stroke-linejoin: miter"/>
    </g>
    <g id="line2d_43">
     <path d="M 52.16 29.196875 
L 72.16 29.196875 
L 92.16 29.196875 
" style="fill: none; stroke: #000000; stroke-width: 3; stroke-linecap: square"/>
    </g>
    <g id="text_8">
     <!-- -1: 4/4 -->
     <g transform="translate(108.16 36.196875) scale(0.2 -0.2)">
      <defs>
       <path id="DejaVuSans-3a" d="M 750 794 
L 1409 794 
L 1409 0 
L 750 0 
L 750 794 
z
M 750 3309 
L 1409 3309 
L 1409 2516 
L 750 2516 
L 750 3309 
z
" transform="scale(0.015625)"/>
       <path id="DejaVuSans-2f" d="M 1625 4666 
L 2156 4666 
L 531 -594 
L 0 -594 
L 1625 4666 
z
" transform="scale(0.015625)"/>
      </defs>
      <use xlink:href="#DejaVuSans-2d"/>
      <use xlink:href="#DejaVuSans-31" x="36.083984"/>
      <use xlink:href="#DejaVuSans-3a" x="99.707031"/>
      <use xlink:href="#DejaVuSans-20" x="133.398438"/>
      <use xlink:href="#DejaVuSans-34" x="165.185547"/>
      <use xlink:href="#DejaVuSans-2f" x="228.808594"/>
      <use xlink:href="#DejaVuSans-34" x="262.5"/>
     </g>
    </g>
    <g id="line2d_44">
     <path d="M 52.16 58.553125 
L 72.16 58.553125 
L 92.16 58.553125 
" style="fill: none; stroke: #00bfbf; stroke-width: 3; stroke-linecap: square"/>
    </g>
    <g id="text_9">
     <!-- -2: 4/2 -->
     <g transform="translate(108.16 65.553125) scale(0.2 -0.2)">
      <use xlink:href="#DejaVuSans-2d"/>
      <use xlink:href="#DejaVuSans-32" x="36.083984"/>
      <use xlink:href="#DejaVuSans-3a" x="99.707031"/>
      <use xlink:href="#DejaVuSans-20" x="133.398438"/>
      <use xlink:href="#DejaVuSans-34" x="165.185547"/>
      <use xlink:href="#DejaVuSans-2f" x="228.808594"/>
      <use xlink:href="#DejaVuSans-32" x="262.5"/>
     </g>
    </g>
    <g id="line2d_45">
     <path d="M 52.16 87.909375 
L 72.16 87.909375 
L 92.16 87.909375 
" style="fill: none; stroke: #bf00bf; stroke-width: 3; stroke-linecap: square"/>
    </g>
    <g id="text_10">
     <!-- -3: 2/2 -->
     <g transform="translate(108.16 94.909375) scale(0.2 -0.2)">
      <use xlink:href="#DejaVuSans-2d"/>
      <use xlink:href="#DejaVuSans-33" x="36.083984"/>
      <use xlink:href="#DejaVuSans-3a" x="99.707031"/>
      <use xlink:href="#DejaVuSans-20" x="133.398438"/>
      <use xlink:href="#DejaVuSans-32" x="165.185547"/>
      <use xlink:href="#DejaVuSans-2f" x="228.808594"/>
      <use xlink:href="#DejaVuSans-32" x="262.5"/>
     </g>
    </g>
    <g id="line2d_46">
     <path d="M 52.16 117.265625 
L 72.16 117.265625 
L 92.16 117.265625 
" style="fill: none; stroke: #ff0000; stroke-width: 3; stroke-linecap: square"/>
    </g>
    <g id="text_11">
     <!-- -4: 0/1 -->
     <g transform="translate(108.16 124.265625) scale(0.2 -0.2)">
      <use xlink:href="#DejaVuSans-2d"/>
      <use xlink:href="#DejaVuSans-34" x="36.083984"/>
      <use xlink:href="#DejaVuSans-3a" x="99.707031"/>
      <use xlink:href="#DejaVuSans-20" x="133.398438"/>
      <use xlink:href="#DejaVuSans-30" x="165.185547"/>
      <use xlink:href="#DejaVuSans-2f" x="228.808594"/>
      <use xlink:href="#DejaVuSans-31" x="262.5"/>
     </g>
    </g>
    <g id="line2d_47">
     <path d="M 52.16 146.621875 
L 72.16 146.621875 
L 92.16 146.621875 
" style="fill: none; stroke: #0000ff; stroke-width: 3; stroke-linecap: square"/>
    </g>
    <g id="text_12">
     <!-- -5: 0/0 -->
     <g transform="translate(108.16 153.621875) scale(0.2 -0.2)">
      <defs>
       <path id="DejaVuSans-35" d="M 691 4666 
L 3169 4666 
L 3169 4134 
L 1269 4134 
L 1269 2991 
Q 1406 3038 1543 3061 
Q 1681 3084 1819 3084 
Q 2600 3084 3056 2656 
Q 3513 2228 3513 1497 
Q 3513 744 3044 326 
Q 2575 -91 1722 -91 
Q 1428 -91 1123 -41 
Q 819 9 494 109 
L 494 744 
Q 775 591 1075 516 
Q 1375 441 1709 441 
Q 2250 441 2565 725 
Q 2881 1009 2881 1497 
Q 2881 1984 2565 2268 
Q 2250 2553 1709 2553 
Q 1456 2553 1204 2497 
Q 953 2441 691 2322 
L 691 4666 
z
" transform="scale(0.015625)"/>
      </defs>
      <use xlink:href="#DejaVuSans-2d"/>
      <use xlink:href="#DejaVuSans-35" x="36.083984"/>
      <use xlink:href="#DejaVuSans-3a" x="99.707031"/>
      <use xlink:href="#DejaVuSans-20" x="133.398438"/>
      <use xlink:href="#DejaVuSans-30" x="165.185547"/>
      <use xlink:href="#DejaVuSans-2f" x="228.808594"/>
      <use xlink:href="#DejaVuSans-30" x="262.5"/>
     </g>
    </g>
   </g>
  </g>
 </g>
 <defs>
  <clipPath id="pa46b8aa6df">
   <rect x="34.16" y="3" width="412.764475" height="288.28"/>
  </clipPath>
 </defs>
</svg>
