<?xml version="1.0" encoding="utf-8" standalone="no"?>
<!DOCTYPE svg PUBLIC "-//W3C//DTD SVG 1.1//EN"
  "http://www.w3.org/Graphics/SVG/1.1/DTD/svg11.dtd">
<svg xmlns:xlink="http://www.w3.org/1999/xlink" width="460.8pt" height="345.6pt" viewBox="0 0 460.8 345.6" xmlns="http://www.w3.org/2000/svg" version="1.1">
 <metadata>
  <rdf:RDF xmlns:dc="http://purl.org/dc/elements/1.1/" xmlns:cc="http://creativecommons.org/ns#" xmlns:rdf="http://www.w3.org/1999/02/22-rdf-syntax-ns#">
   <cc:Work>
    <dc:type rdf:resource="http://purl.org/dc/dcmitype/StillImage"/>
    <dc:date>2023-02-10T20:27:27.915731</dc:date>
    <dc:format>image/svg+xml</dc:format>
    <dc:creator>
     <cc:Agent>
      <dc:title>Matplotlib v3.6.3, https://matplotlib.org/</dc:title>
     </cc:Agent>
    </dc:creator>
   </cc:Work>
  </rdf:RDF>
 </metadata>
 <defs>
  <style type="text/css">*{stroke-linejoin: round; stroke-linecap: butt}</style>
 </defs>
 <g id="figure_1">
  <g id="patch_1">
   <path d="M 0 345.6 
L 460.8 345.6 
L 460.8 0 
L 0 0 
z
" style="fill: #ffffff"/>
  </g>
  <g id="axes_1">
   <g id="patch_2">
    <path d="M 34.16 291.28 
L 453.192 291.28 
L 453.192 3 
L 34.16 3 
z
" style="fill: #ffffff"/>
   </g>
   <g id="matplotlib.axis_1">
    <g id="xtick_1">
     <g id="line2d_1">
      <path d="M 139.975373 291.28 
L 139.975373 3 
" clip-path="url(#p609ad45d1f)" style="fill: none; stroke: #b0b0b0; stroke-width: 0.8; stroke-linecap: square"/>
     </g>
     <g id="line2d_2">
      <defs>
       <path id="m9cc9f1836c" d="M 0 0 
L 0 3.5 
" style="stroke: #000000; stroke-width: 0.8"/>
      </defs>
      <g>
       <use xlink:href="#m9cc9f1836c" x="139.975373" y="291.28" style="stroke: #000000; stroke-width: 0.8"/>
      </g>
     </g>
     <g id="text_1">
      <!-- -1 -->
      <g transform="translate(130.005061 313.476875) scale(0.2 -0.2)">
       <defs>
        <path id="DejaVuSans-2d" d="M 313 2009 
L 1997 2009 
L 1997 1497 
L 313 1497 
L 313 2009 
z
" transform="scale(0.015625)"/>
        <path id="DejaVuSans-31" d="M 794 531 
L 1825 531 
L 1825 4091 
L 703 3866 
L 703 4441 
L 1819 4666 
L 2450 4666 
L 2450 531 
L 3481 531 
L 3481 0 
L 794 0 
L 794 531 
z
" transform="scale(0.015625)"/>
       </defs>
       <use xlink:href="#DejaVuSans-2d"/>
       <use xlink:href="#DejaVuSans-31" x="36.083984"/>
      </g>
     </g>
    </g>
    <g id="xtick_2">
     <g id="line2d_3">
      <path d="M 347.376627 291.28 
L 347.376627 3 
" clip-path="url(#p609ad45d1f)" style="fill: none; stroke: #b0b0b0; stroke-width: 0.8; stroke-linecap: square"/>
     </g>
     <g id="line2d_4">
      <g>
       <use xlink:href="#m9cc9f1836c" x="347.376627" y="291.28" style="stroke: #000000; stroke-width: 0.8"/>
      </g>
     </g>
     <g id="text_2">
      <!-- 1 -->
      <g transform="translate(341.014127 313.476875) scale(0.2 -0.2)">
       <use xlink:href="#DejaVuSans-31"/>
      </g>
     </g>
    </g>
    <g id="xtick_3">
     <g id="line2d_5">
      <defs>
       <path id="md4e3128d57" d="M 0 0 
L 0 2 
" style="stroke: #000000; stroke-width: 0.6"/>
      </defs>
      <g>
       <use xlink:href="#md4e3128d57" x="67.491746" y="291.28" style="stroke: #000000; stroke-width: 0.6"/>
      </g>
     </g>
    </g>
    <g id="xtick_4">
     <g id="line2d_6">
      <g>
       <use xlink:href="#md4e3128d57" x="85.75252" y="291.28" style="stroke: #000000; stroke-width: 0.6"/>
      </g>
     </g>
    </g>
    <g id="xtick_5">
     <g id="line2d_7">
      <g>
       <use xlink:href="#md4e3128d57" x="98.708745" y="291.28" style="stroke: #000000; stroke-width: 0.6"/>
      </g>
     </g>
    </g>
    <g id="xtick_6">
     <g id="line2d_8">
      <g>
       <use xlink:href="#md4e3128d57" x="108.758374" y="291.28" style="stroke: #000000; stroke-width: 0.6"/>
      </g>
     </g>
    </g>
    <g id="xtick_7">
     <g id="line2d_9">
      <g>
       <use xlink:href="#md4e3128d57" x="116.969519" y="291.28" style="stroke: #000000; stroke-width: 0.6"/>
      </g>
     </g>
    </g>
    <g id="xtick_8">
     <g id="line2d_10">
      <g>
       <use xlink:href="#md4e3128d57" x="123.911943" y="291.28" style="stroke: #000000; stroke-width: 0.6"/>
      </g>
     </g>
    </g>
    <g id="xtick_9">
     <g id="line2d_11">
      <g>
       <use xlink:href="#md4e3128d57" x="129.925744" y="291.28" style="stroke: #000000; stroke-width: 0.6"/>
      </g>
     </g>
    </g>
    <g id="xtick_10">
     <g id="line2d_12">
      <g>
       <use xlink:href="#md4e3128d57" x="135.230293" y="291.28" style="stroke: #000000; stroke-width: 0.6"/>
      </g>
     </g>
    </g>
    <g id="xtick_11">
     <g id="line2d_13">
      <g>
       <use xlink:href="#md4e3128d57" x="171.192372" y="291.28" style="stroke: #000000; stroke-width: 0.6"/>
      </g>
     </g>
    </g>
    <g id="xtick_12">
     <g id="line2d_14">
      <g>
       <use xlink:href="#md4e3128d57" x="189.453146" y="291.28" style="stroke: #000000; stroke-width: 0.6"/>
      </g>
     </g>
    </g>
    <g id="xtick_13">
     <g id="line2d_15">
      <g>
       <use xlink:href="#md4e3128d57" x="202.409372" y="291.28" style="stroke: #000000; stroke-width: 0.6"/>
      </g>
     </g>
    </g>
    <g id="xtick_14">
     <g id="line2d_16">
      <g>
       <use xlink:href="#md4e3128d57" x="212.459001" y="291.28" style="stroke: #000000; stroke-width: 0.6"/>
      </g>
     </g>
    </g>
    <g id="xtick_15">
     <g id="line2d_17">
      <g>
       <use xlink:href="#md4e3128d57" x="220.670146" y="291.28" style="stroke: #000000; stroke-width: 0.6"/>
      </g>
     </g>
    </g>
    <g id="xtick_16">
     <g id="line2d_18">
      <g>
       <use xlink:href="#md4e3128d57" x="227.61257" y="291.28" style="stroke: #000000; stroke-width: 0.6"/>
      </g>
     </g>
    </g>
    <g id="xtick_17">
     <g id="line2d_19">
      <g>
       <use xlink:href="#md4e3128d57" x="233.626371" y="291.28" style="stroke: #000000; stroke-width: 0.6"/>
      </g>
     </g>
    </g>
    <g id="xtick_18">
     <g id="line2d_20">
      <g>
       <use xlink:href="#md4e3128d57" x="238.93092" y="291.28" style="stroke: #000000; stroke-width: 0.6"/>
      </g>
     </g>
    </g>
    <g id="xtick_19">
     <g id="line2d_21">
      <g>
       <use xlink:href="#md4e3128d57" x="274.892999" y="291.28" style="stroke: #000000; stroke-width: 0.6"/>
      </g>
     </g>
    </g>
    <g id="xtick_20">
     <g id="line2d_22">
      <g>
       <use xlink:href="#md4e3128d57" x="293.153773" y="291.28" style="stroke: #000000; stroke-width: 0.6"/>
      </g>
     </g>
    </g>
    <g id="xtick_21">
     <g id="line2d_23">
      <g>
       <use xlink:href="#md4e3128d57" x="306.109998" y="291.28" style="stroke: #000000; stroke-width: 0.6"/>
      </g>
     </g>
    </g>
    <g id="xtick_22">
     <g id="line2d_24">
      <g>
       <use xlink:href="#md4e3128d57" x="316.159628" y="291.28" style="stroke: #000000; stroke-width: 0.6"/>
      </g>
     </g>
    </g>
    <g id="xtick_23">
     <g id="line2d_25">
      <g>
       <use xlink:href="#md4e3128d57" x="324.370772" y="291.28" style="stroke: #000000; stroke-width: 0.6"/>
      </g>
     </g>
    </g>
    <g id="xtick_24">
     <g id="line2d_26">
      <g>
       <use xlink:href="#md4e3128d57" x="331.313196" y="291.28" style="stroke: #000000; stroke-width: 0.6"/>
      </g>
     </g>
    </g>
    <g id="xtick_25">
     <g id="line2d_27">
      <g>
       <use xlink:href="#md4e3128d57" x="337.326998" y="291.28" style="stroke: #000000; stroke-width: 0.6"/>
      </g>
     </g>
    </g>
    <g id="xtick_26">
     <g id="line2d_28">
      <g>
       <use xlink:href="#md4e3128d57" x="342.631546" y="291.28" style="stroke: #000000; stroke-width: 0.6"/>
      </g>
     </g>
    </g>
    <g id="xtick_27">
     <g id="line2d_29">
      <g>
       <use xlink:href="#md4e3128d57" x="378.593626" y="291.28" style="stroke: #000000; stroke-width: 0.6"/>
      </g>
     </g>
    </g>
    <g id="xtick_28">
     <g id="line2d_30">
      <g>
       <use xlink:href="#md4e3128d57" x="396.8544" y="291.28" style="stroke: #000000; stroke-width: 0.6"/>
      </g>
     </g>
    </g>
    <g id="xtick_29">
     <g id="line2d_31">
      <g>
       <use xlink:href="#md4e3128d57" x="409.810625" y="291.28" style="stroke: #000000; stroke-width: 0.6"/>
      </g>
     </g>
    </g>
    <g id="xtick_30">
     <g id="line2d_32">
      <g>
       <use xlink:href="#md4e3128d57" x="419.860254" y="291.28" style="stroke: #000000; stroke-width: 0.6"/>
      </g>
     </g>
    </g>
    <g id="xtick_31">
     <g id="line2d_33">
      <g>
       <use xlink:href="#md4e3128d57" x="428.071399" y="291.28" style="stroke: #000000; stroke-width: 0.6"/>
      </g>
     </g>
    </g>
    <g id="xtick_32">
     <g id="line2d_34">
      <g>
       <use xlink:href="#md4e3128d57" x="435.013823" y="291.28" style="stroke: #000000; stroke-width: 0.6"/>
      </g>
     </g>
    </g>
    <g id="xtick_33">
     <g id="line2d_35">
      <g>
       <use xlink:href="#md4e3128d57" x="441.027625" y="291.28" style="stroke: #000000; stroke-width: 0.6"/>
      </g>
     </g>
    </g>
    <g id="xtick_34">
     <g id="line2d_36">
      <g>
       <use xlink:href="#md4e3128d57" x="446.332173" y="291.28" style="stroke: #000000; stroke-width: 0.6"/>
      </g>
     </g>
    </g>
    <g id="text_3">
     <!-- log10 of FEvals ratio -->
     <g transform="translate(141.371312 336.833125) scale(0.2 -0.2)">
      <defs>
       <path id="DejaVuSans-6c" d="M 603 4863 
L 1178 4863 
L 1178 0 
L 603 0 
L 603 4863 
z
" transform="scale(0.015625)"/>
       <path id="DejaVuSans-6f" d="M 1959 3097 
Q 1497 3097 1228 2736 
Q 959 2375 959 1747 
Q 959 1119 1226 758 
Q 1494 397 1959 397 
Q 2419 397 2687 759 
Q 2956 1122 2956 1747 
Q 2956 2369 2687 2733 
Q 2419 3097 1959 3097 
z
M 1959 3584 
Q 2709 3584 3137 3096 
Q 3566 2609 3566 1747 
Q 3566 888 3137 398 
Q 2709 -91 1959 -91 
Q 1206 -91 779 398 
Q 353 888 353 1747 
Q 353 2609 779 3096 
Q 1206 3584 1959 3584 
z
" transform="scale(0.015625)"/>
       <path id="DejaVuSans-67" d="M 2906 1791 
Q 2906 2416 2648 2759 
Q 2391 3103 1925 3103 
Q 1463 3103 1205 2759 
Q 947 2416 947 1791 
Q 947 1169 1205 825 
Q 1463 481 1925 481 
Q 2391 481 2648 825 
Q 2906 1169 2906 1791 
z
M 3481 434 
Q 3481 -459 3084 -895 
Q 2688 -1331 1869 -1331 
Q 1566 -1331 1297 -1286 
Q 1028 -1241 775 -1147 
L 775 -588 
Q 1028 -725 1275 -790 
Q 1522 -856 1778 -856 
Q 2344 -856 2625 -561 
Q 2906 -266 2906 331 
L 2906 616 
Q 2728 306 2450 153 
Q 2172 0 1784 0 
Q 1141 0 747 490 
Q 353 981 353 1791 
Q 353 2603 747 3093 
Q 1141 3584 1784 3584 
Q 2172 3584 2450 3431 
Q 2728 3278 2906 2969 
L 2906 3500 
L 3481 3500 
L 3481 434 
z
" transform="scale(0.015625)"/>
       <path id="DejaVuSans-30" d="M 2034 4250 
Q 1547 4250 1301 3770 
Q 1056 3291 1056 2328 
Q 1056 1369 1301 889 
Q 1547 409 2034 409 
Q 2525 409 2770 889 
Q 3016 1369 3016 2328 
Q 3016 3291 2770 3770 
Q 2525 4250 2034 4250 
z
M 2034 4750 
Q 2819 4750 3233 4129 
Q 3647 3509 3647 2328 
Q 3647 1150 3233 529 
Q 2819 -91 2034 -91 
Q 1250 -91 836 529 
Q 422 1150 422 2328 
Q 422 3509 836 4129 
Q 1250 4750 2034 4750 
z
" transform="scale(0.015625)"/>
       <path id="DejaVuSans-20" transform="scale(0.015625)"/>
       <path id="DejaVuSans-66" d="M 2375 4863 
L 2375 4384 
L 1825 4384 
Q 1516 4384 1395 4259 
Q 1275 4134 1275 3809 
L 1275 3500 
L 2222 3500 
L 2222 3053 
L 1275 3053 
L 1275 0 
L 697 0 
L 697 3053 
L 147 3053 
L 147 3500 
L 697 3500 
L 697 3744 
Q 697 4328 969 4595 
Q 1241 4863 1831 4863 
L 2375 4863 
z
" transform="scale(0.015625)"/>
       <path id="DejaVuSans-46" d="M 628 4666 
L 3309 4666 
L 3309 4134 
L 1259 4134 
L 1259 2759 
L 3109 2759 
L 3109 2228 
L 1259 2228 
L 1259 0 
L 628 0 
L 628 4666 
z
" transform="scale(0.015625)"/>
       <path id="DejaVuSans-45" d="M 628 4666 
L 3578 4666 
L 3578 4134 
L 1259 4134 
L 1259 2753 
L 3481 2753 
L 3481 2222 
L 1259 2222 
L 1259 531 
L 3634 531 
L 3634 0 
L 628 0 
L 628 4666 
z
" transform="scale(0.015625)"/>
       <path id="DejaVuSans-76" d="M 191 3500 
L 800 3500 
L 1894 563 
L 2988 3500 
L 3597 3500 
L 2284 0 
L 1503 0 
L 191 3500 
z
" transform="scale(0.015625)"/>
       <path id="DejaVuSans-61" d="M 2194 1759 
Q 1497 1759 1228 1600 
Q 959 1441 959 1056 
Q 959 750 1161 570 
Q 1363 391 1709 391 
Q 2188 391 2477 730 
Q 2766 1069 2766 1631 
L 2766 1759 
L 2194 1759 
z
M 3341 1997 
L 3341 0 
L 2766 0 
L 2766 531 
Q 2569 213 2275 61 
Q 1981 -91 1556 -91 
Q 1019 -91 701 211 
Q 384 513 384 1019 
Q 384 1609 779 1909 
Q 1175 2209 1959 2209 
L 2766 2209 
L 2766 2266 
Q 2766 2663 2505 2880 
Q 2244 3097 1772 3097 
Q 1472 3097 1187 3025 
Q 903 2953 641 2809 
L 641 3341 
Q 956 3463 1253 3523 
Q 1550 3584 1831 3584 
Q 2591 3584 2966 3190 
Q 3341 2797 3341 1997 
z
" transform="scale(0.015625)"/>
       <path id="DejaVuSans-73" d="M 2834 3397 
L 2834 2853 
Q 2591 2978 2328 3040 
Q 2066 3103 1784 3103 
Q 1356 3103 1142 2972 
Q 928 2841 928 2578 
Q 928 2378 1081 2264 
Q 1234 2150 1697 2047 
L 1894 2003 
Q 2506 1872 2764 1633 
Q 3022 1394 3022 966 
Q 3022 478 2636 193 
Q 2250 -91 1575 -91 
Q 1294 -91 989 -36 
Q 684 19 347 128 
L 347 722 
Q 666 556 975 473 
Q 1284 391 1588 391 
Q 1994 391 2212 530 
Q 2431 669 2431 922 
Q 2431 1156 2273 1281 
Q 2116 1406 1581 1522 
L 1381 1569 
Q 847 1681 609 1914 
Q 372 2147 372 2553 
Q 372 3047 722 3315 
Q 1072 3584 1716 3584 
Q 2034 3584 2315 3537 
Q 2597 3491 2834 3397 
z
" transform="scale(0.015625)"/>
       <path id="DejaVuSans-72" d="M 2631 2963 
Q 2534 3019 2420 3045 
Q 2306 3072 2169 3072 
Q 1681 3072 1420 2755 
Q 1159 2438 1159 1844 
L 1159 0 
L 581 0 
L 581 3500 
L 1159 3500 
L 1159 2956 
Q 1341 3275 1631 3429 
Q 1922 3584 2338 3584 
Q 2397 3584 2469 3576 
Q 2541 3569 2628 3553 
L 2631 2963 
z
" transform="scale(0.015625)"/>
       <path id="DejaVuSans-74" d="M 1172 4494 
L 1172 3500 
L 2356 3500 
L 2356 3053 
L 1172 3053 
L 1172 1153 
Q 1172 725 1289 603 
Q 1406 481 1766 481 
L 2356 481 
L 2356 0 
L 1766 0 
Q 1100 0 847 248 
Q 594 497 594 1153 
L 594 3053 
L 172 3053 
L 172 3500 
L 594 3500 
L 594 4494 
L 1172 4494 
z
" transform="scale(0.015625)"/>
       <path id="DejaVuSans-69" d="M 603 3500 
L 1178 3500 
L 1178 0 
L 603 0 
L 603 3500 
z
M 603 4863 
L 1178 4863 
L 1178 4134 
L 603 4134 
L 603 4863 
z
" transform="scale(0.015625)"/>
      </defs>
      <use xlink:href="#DejaVuSans-6c"/>
      <use xlink:href="#DejaVuSans-6f" x="27.783203"/>
      <use xlink:href="#DejaVuSans-67" x="88.964844"/>
      <use xlink:href="#DejaVuSans-31" x="152.441406"/>
      <use xlink:href="#DejaVuSans-30" x="216.064453"/>
      <use xlink:href="#DejaVuSans-20" x="279.6875"/>
      <use xlink:href="#DejaVuSans-6f" x="311.474609"/>
      <use xlink:href="#DejaVuSans-66" x="372.65625"/>
      <use xlink:href="#DejaVuSans-20" x="407.861328"/>
      <use xlink:href="#DejaVuSans-46" x="439.648438"/>
      <use xlink:href="#DejaVuSans-45" x="497.167969"/>
      <use xlink:href="#DejaVuSans-76" x="560.351562"/>
      <use xlink:href="#DejaVuSans-61" x="619.53125"/>
      <use xlink:href="#DejaVuSans-6c" x="680.810547"/>
      <use xlink:href="#DejaVuSans-73" x="708.59375"/>
      <use xlink:href="#DejaVuSans-20" x="760.693359"/>
      <use xlink:href="#DejaVuSans-72" x="792.480469"/>
      <use xlink:href="#DejaVuSans-61" x="833.59375"/>
      <use xlink:href="#DejaVuSans-74" x="894.873047"/>
      <use xlink:href="#DejaVuSans-69" x="934.082031"/>
      <use xlink:href="#DejaVuSans-6f" x="961.865234"/>
     </g>
    </g>
   </g>
   <g id="matplotlib.axis_2">
    <g id="ytick_1">
     <g id="line2d_37">
      <path d="M 34.16 288.453725 
L 453.192 288.453725 
" clip-path="url(#p609ad45d1f)" style="fill: none; stroke: #b0b0b0; stroke-width: 0.8; stroke-linecap: square"/>
     </g>
     <g id="line2d_38">
      <defs>
       <path id="m6d247b87a7" d="M 0 0 
L -3.5 0 
" style="stroke: #000000; stroke-width: 0.8"/>
      </defs>
      <g>
       <use xlink:href="#m6d247b87a7" x="34.16" y="288.453725" style="stroke: #000000; stroke-width: 0.8"/>
      </g>
     </g>
    </g>
    <g id="ytick_2">
     <g id="line2d_39">
      <path d="M 34.16 217.796863 
L 453.192 217.796863 
" clip-path="url(#p609ad45d1f)" style="fill: none; stroke: #b0b0b0; stroke-width: 0.8; stroke-linecap: square"/>
     </g>
     <g id="line2d_40">
      <g>
       <use xlink:href="#m6d247b87a7" x="34.16" y="217.796863" style="stroke: #000000; stroke-width: 0.8"/>
      </g>
     </g>
    </g>
    <g id="ytick_3">
     <g id="line2d_41">
      <path d="M 34.16 147.14 
L 453.192 147.14 
" clip-path="url(#p609ad45d1f)" style="fill: none; stroke: #b0b0b0; stroke-width: 0.8; stroke-linecap: square"/>
     </g>
     <g id="line2d_42">
      <g>
       <use xlink:href="#m6d247b87a7" x="34.16" y="147.14" style="stroke: #000000; stroke-width: 0.8"/>
      </g>
     </g>
    </g>
    <g id="ytick_4">
     <g id="line2d_43">
      <path d="M 34.16 76.483137 
L 453.192 76.483137 
" clip-path="url(#p609ad45d1f)" style="fill: none; stroke: #b0b0b0; stroke-width: 0.8; stroke-linecap: square"/>
     </g>
     <g id="line2d_44">
      <g>
       <use xlink:href="#m6d247b87a7" x="34.16" y="76.483137" style="stroke: #000000; stroke-width: 0.8"/>
      </g>
     </g>
    </g>
    <g id="ytick_5">
     <g id="line2d_45">
      <path d="M 34.16 5.826275 
L 453.192 5.826275 
" clip-path="url(#p609ad45d1f)" style="fill: none; stroke: #b0b0b0; stroke-width: 0.8; stroke-linecap: square"/>
     </g>
     <g id="line2d_46">
      <g>
       <use xlink:href="#m6d247b87a7" x="34.16" y="5.826275" style="stroke: #000000; stroke-width: 0.8"/>
      </g>
     </g>
    </g>
    <g id="text_4">
     <!-- proportion of trials -->
     <g transform="translate(19.000625 240.14625) rotate(-90) scale(0.2 -0.2)">
      <defs>
       <path id="DejaVuSans-70" d="M 1159 525 
L 1159 -1331 
L 581 -1331 
L 581 3500 
L 1159 3500 
L 1159 2969 
Q 1341 3281 1617 3432 
Q 1894 3584 2278 3584 
Q 2916 3584 3314 3078 
Q 3713 2572 3713 1747 
Q 3713 922 3314 415 
Q 2916 -91 2278 -91 
Q 1894 -91 1617 61 
Q 1341 213 1159 525 
z
M 3116 1747 
Q 3116 2381 2855 2742 
Q 2594 3103 2138 3103 
Q 1681 3103 1420 2742 
Q 1159 2381 1159 1747 
Q 1159 1113 1420 752 
Q 1681 391 2138 391 
Q 2594 391 2855 752 
Q 3116 1113 3116 1747 
z
" transform="scale(0.015625)"/>
       <path id="DejaVuSans-6e" d="M 3513 2113 
L 3513 0 
L 2938 0 
L 2938 2094 
Q 2938 2591 2744 2837 
Q 2550 3084 2163 3084 
Q 1697 3084 1428 2787 
Q 1159 2491 1159 1978 
L 1159 0 
L 581 0 
L 581 3500 
L 1159 3500 
L 1159 2956 
Q 1366 3272 1645 3428 
Q 1925 3584 2291 3584 
Q 2894 3584 3203 3211 
Q 3513 2838 3513 2113 
z
" transform="scale(0.015625)"/>
      </defs>
      <use xlink:href="#DejaVuSans-70"/>
      <use xlink:href="#DejaVuSans-72" x="63.476562"/>
      <use xlink:href="#DejaVuSans-6f" x="102.339844"/>
      <use xlink:href="#DejaVuSans-70" x="163.521484"/>
      <use xlink:href="#DejaVuSans-6f" x="226.998047"/>
      <use xlink:href="#DejaVuSans-72" x="288.179688"/>
      <use xlink:href="#DejaVuSans-74" x="329.292969"/>
      <use xlink:href="#DejaVuSans-69" x="368.501953"/>
      <use xlink:href="#DejaVuSans-6f" x="396.285156"/>
      <use xlink:href="#DejaVuSans-6e" x="457.466797"/>
      <use xlink:href="#DejaVuSans-20" x="520.845703"/>
      <use xlink:href="#DejaVuSans-6f" x="552.632812"/>
      <use xlink:href="#DejaVuSans-66" x="613.814453"/>
      <use xlink:href="#DejaVuSans-20" x="649.019531"/>
      <use xlink:href="#DejaVuSans-74" x="680.806641"/>
      <use xlink:href="#DejaVuSans-72" x="720.015625"/>
      <use xlink:href="#DejaVuSans-69" x="761.128906"/>
      <use xlink:href="#DejaVuSans-61" x="788.912109"/>
      <use xlink:href="#DejaVuSans-6c" x="850.191406"/>
      <use xlink:href="#DejaVuSans-73" x="877.974609"/>
     </g>
    </g>
   </g>
   <g id="line2d_47">
    <path d="M 34.16 257.530111 
L 73.40953 257.530111 
L 73.40953 256.810957 
L 75.279481 256.810957 
L 75.279481 256.091804 
L 90.915534 256.091804 
L 90.915534 255.37265 
L 110.472681 255.37265 
L 110.472681 254.653496 
L 115.224025 254.653496 
L 115.224025 253.934342 
L 144.009433 253.934342 
L 144.009433 253.215188 
L 145.879384 253.215188 
L 145.879384 252.496035 
L 146.566475 252.496035 
L 146.566475 251.776881 
L 149.93743 251.776881 
L 149.93743 251.057727 
L 153.940158 251.057727 
L 153.940158 250.338573 
L 158.659068 250.338573 
L 158.659068 249.619419 
L 159.390954 249.619419 
L 159.390954 248.900265 
L 160.529019 248.900265 
L 160.529019 248.181112 
L 161.515437 248.181112 
L 161.515437 247.461958 
L 163.393683 247.461958 
L 163.393683 246.742804 
L 164.236985 246.742804 
L 164.236985 246.02365 
L 167.947916 246.02365 
L 167.947916 245.304496 
L 168.239714 245.304496 
L 168.239714 244.585343 
L 176.165072 244.585343 
L 176.165072 243.866189 
L 179.022375 243.866189 
L 179.022375 243.147035 
L 180.892327 243.147035 
L 180.892327 242.427881 
L 181.072585 242.427881 
L 181.072585 241.708727 
L 184.513691 241.708727 
L 184.513691 240.989573 
L 185.823928 240.989573 
L 185.823928 240.27042 
L 187.333385 240.27042 
L 187.411909 238.832112 
L 187.907225 238.832112 
L 187.907225 238.112958 
L 188.208027 238.112958 
L 188.208027 237.393804 
L 189.056741 237.393804 
L 189.056741 236.674651 
L 189.438124 236.674651 
L 189.438124 235.955497 
L 191.909953 235.955497 
L 191.909953 235.236343 
L 192.210756 235.236343 
L 192.210756 234.517189 
L 192.940993 234.517189 
L 192.940993 233.798035 
L 193.322377 233.798035 
L 193.322377 233.078881 
L 193.967215 233.078881 
L 193.967215 232.359728 
L 195.722219 232.359728 
L 195.722219 231.640574 
L 196.52838 231.640574 
L 196.52838 230.92142 
L 196.865434 230.92142 
L 196.865434 230.202266 
L 197.383014 230.202266 
L 197.383014 229.483112 
L 198.813247 229.483112 
L 198.813247 228.763958 
L 200.473563 228.763958 
L 200.473563 228.044805 
L 201.135347 228.044805 
L 201.135347 227.325651 
L 201.711465 227.325651 
L 201.711465 226.606497 
L 202.414956 226.606497 
L 202.414956 225.887343 
L 202.545303 225.887343 
L 202.545303 225.168189 
L 202.79634 225.168189 
L 202.79634 224.449036 
L 203.005298 224.449036 
L 203.005298 223.729882 
L 204.415255 223.729882 
L 204.415255 223.010728 
L 206.45007 223.010728 
L 206.45007 222.291574 
L 206.844753 222.291574 
L 206.844753 221.57242 
L 208.952707 221.57242 
L 208.952707 220.853266 
L 209.269235 220.853266 
L 209.33409 219.414959 
L 209.385293 219.414959 
L 209.385293 218.695805 
L 209.766676 218.695805 
L 209.766676 217.976651 
L 210.402873 217.976651 
L 210.402873 217.257497 
L 210.847482 217.257497 
L 210.847482 216.538344 
L 212.571827 216.538344 
L 212.571827 215.81919 
L 213.153488 215.81919 
L 213.153488 215.100036 
L 213.350511 215.100036 
L 213.350511 214.380882 
L 213.692958 214.380882 
L 213.692958 213.661728 
L 214.074341 213.661728 
L 214.074341 212.942574 
L 215.903594 212.942574 
L 215.903594 212.223421 
L 216.085527 212.223421 
L 216.085527 211.504267 
L 216.45608 211.504267 
L 216.45608 210.785113 
L 217.166378 210.785113 
L 217.166378 210.065959 
L 217.398079 210.065959 
L 217.398079 209.346805 
L 217.636901 209.346805 
L 217.636901 208.627652 
L 218.641351 208.627652 
L 218.641351 207.908498 
L 219.856397 207.908498 
L 219.856397 207.189344 
L 220.051308 207.189344 
L 220.051308 206.47019 
L 220.749625 206.47019 
L 220.836871 205.031882 
L 221.400808 205.031882 
L 221.400808 204.312729 
L 222.383354 204.312729 
L 222.483486 202.874421 
L 222.565008 202.874421 
L 222.627451 201.436113 
L 222.764737 201.436113 
L 222.784288 199.997806 
L 223.982632 199.997806 
L 223.982632 199.278652 
L 224.363355 199.278652 
L 224.363355 198.559498 
L 224.702429 198.559498 
L 224.702429 197.840344 
L 225.381704 197.840344 
L 225.381704 197.12119 
L 225.682506 197.12119 
L 225.682506 196.402037 
L 225.930043 196.402037 
L 225.930043 195.682883 
L 226.44926 195.682883 
L 226.44926 194.963729 
L 227.020214 194.963729 
L 227.089306 193.525421 
L 227.163026 193.525421 
L 227.163026 192.806268 
L 227.701839 192.806268 
L 227.701839 192.087114 
L 228.083223 192.087114 
L 228.083223 191.36796 
L 228.247607 191.36796 
L 228.247607 190.648806 
L 228.897102 190.648806 
L 228.981136 189.210498 
L 229.032977 189.210498 
L 229.032977 188.491345 
L 229.165202 188.491345 
L 229.165202 187.772191 
L 229.597787 187.772191 
L 229.597787 187.053037 
L 229.718064 187.053037 
L 229.718064 186.333883 
L 230.345901 186.333883 
L 230.345901 185.614729 
L 230.727284 185.614729 
L 230.767053 184.176422 
L 231.306604 184.176422 
L 231.375696 182.738114 
L 231.816013 182.738114 
L 231.816013 182.01896 
L 232.176951 182.01896 
L 232.176951 181.299806 
L 232.467794 181.299806 
L 232.467794 180.580653 
L 232.900379 180.580653 
L 232.900379 179.861499 
L 233.905452 179.861499 
L 233.905452 179.142345 
L 234.046902 179.142345 
L 234.046902 178.423191 
L 235.923223 178.423191 
L 235.923223 177.704037 
L 237.208044 177.704037 
L 237.208044 176.984884 
L 237.652335 176.984884 
L 237.72157 174.108268 
L 238.198498 174.108268 
L 238.198498 173.389114 
L 238.434661 173.389114 
L 238.434661 172.669961 
L 238.547819 172.669961 
L 238.547819 171.950807 
L 239.171588 171.950807 
L 239.171588 171.231653 
L 239.608455 171.231653 
L 239.608455 170.512499 
L 239.79281 170.512499 
L 239.79281 169.793345 
L 241.421015 169.793345 
L 241.421015 169.074191 
L 241.952753 169.074191 
L 242.008392 167.635884 
L 242.460974 167.635884 
L 242.460974 166.91673 
L 242.595849 166.91673 
L 242.595849 166.197576 
L 242.89356 166.197576 
L 242.949842 164.759269 
L 243.280692 164.759269 
L 243.280692 164.040115 
L 244.017619 164.040115 
L 244.017619 163.320961 
L 244.259321 163.320961 
L 244.359799 161.163499 
L 244.414872 161.163499 
L 244.419865 159.725192 
L 244.66903 159.725192 
L 244.720667 157.56773 
L 245.278064 157.56773 
L 245.278064 156.848577 
L 245.898441 156.848577 
L 245.898441 156.129423 
L 246.294783 156.129423 
L 246.403106 154.691115 
L 247.201225 154.691115 
L 247.201225 153.971961 
L 247.914334 153.971961 
L 247.914334 153.252807 
L 248.298484 153.252807 
L 248.372668 151.8145 
L 248.67347 151.8145 
L 248.701263 150.376192 
L 248.999571 150.376192 
L 248.999571 149.657038 
L 249.682955 149.657038 
L 249.682955 148.937885 
L 250.558395 148.937885 
L 250.558395 148.218731 
L 251.216926 148.218731 
L 251.216926 147.499577 
L 251.703191 147.499577 
L 251.703191 146.780423 
L 251.974341 146.780423 
L 252.075347 145.342115 
L 252.17932 145.342115 
L 252.17932 144.622962 
L 252.640514 144.622962 
L 252.640514 143.903808 
L 253.113296 143.903808 
L 253.197454 142.4655 
L 253.462513 142.4655 
L 253.573142 140.308039 
L 253.860987 140.308039 
L 253.860987 139.588885 
L 254.445019 139.588885 
L 254.445019 138.869731 
L 254.872559 138.869731 
L 254.872559 138.150577 
L 255.046994 138.150577 
L 255.046994 137.431423 
L 255.878457 137.431423 
L 255.959599 135.273962 
L 256.676662 135.273962 
L 256.676662 134.554808 
L 256.813459 134.554808 
L 256.813459 133.835654 
L 257.689968 133.835654 
L 257.689968 133.116501 
L 257.933288 133.116501 
L 257.933288 132.397347 
L 258.329271 132.397347 
L 258.329271 131.678193 
L 258.812577 131.678193 
L 258.812577 130.959039 
L 258.947767 130.959039 
L 259.016859 129.520731 
L 260.963052 129.520731 
L 260.963052 128.801578 
L 261.210106 128.801578 
L 261.210106 128.082424 
L 263.008453 128.082424 
L 263.008453 127.36327 
L 263.357393 127.36327 
L 263.357393 126.644116 
L 263.854168 126.644116 
L 263.854168 125.924962 
L 264.108662 125.924962 
L 264.108662 125.205809 
L 264.226178 125.205809 
L 264.226178 124.486655 
L 265.433562 124.486655 
L 265.433562 123.767501 
L 265.652514 123.767501 
L 265.652514 123.048347 
L 265.960253 123.048347 
L 265.960253 122.329193 
L 266.782998 122.329193 
L 266.852091 120.171732 
L 266.950931 120.171732 
L 266.950931 119.452578 
L 267.251734 119.452578 
L 267.310196 117.295116 
L 267.687859 117.295116 
L 267.687859 116.575963 
L 267.803234 116.575963 
L 267.803234 115.856809 
L 267.982917 115.856809 
L 267.988661 114.418501 
L 268.450692 114.418501 
L 268.450692 113.699347 
L 268.977521 113.699347 
L 268.977521 112.980194 
L 269.209195 112.980194 
L 269.240102 111.541886 
L 269.54816 111.541886 
L 269.617252 109.384424 
L 270.711597 109.384424 
L 270.711597 108.665271 
L 270.857171 108.665271 
L 270.857171 107.946117 
L 271.971313 107.946117 
L 271.971313 107.226963 
L 272.160462 107.226963 
L 272.160462 106.507809 
L 272.403898 106.507809 
L 272.48228 105.069502 
L 272.551372 105.069502 
L 272.582923 103.631194 
L 273.560761 103.631194 
L 273.560761 102.91204 
L 273.910719 102.91204 
L 273.991446 100.754579 
L 274.292291 100.754579 
L 274.340985 99.316271 
L 274.77357 99.316271 
L 274.77357 98.597117 
L 275.702248 98.597117 
L 275.702248 97.877963 
L 276.044715 97.877963 
L 276.044715 97.15881 
L 276.342425 97.15881 
L 276.342425 96.439656 
L 276.711563 96.439656 
L 276.711563 95.720502 
L 277.429148 95.720502 
L 277.429148 95.001348 
L 277.863523 95.001348 
L 277.863523 94.282194 
L 279.081235 94.282194 
L 279.081235 93.56304 
L 280.194309 93.56304 
L 280.194309 92.843887 
L 280.47032 92.843887 
L 280.539412 91.405579 
L 281.771177 91.405579 
L 281.771177 90.686425 
L 282.632552 90.686425 
L 282.632552 89.967271 
L 283.118961 89.967271 
L 283.128429 88.528964 
L 284.177657 88.528964 
L 284.177657 87.80981 
L 284.536338 87.80981 
L 284.536338 87.090656 
L 285.40196 87.090656 
L 285.40196 86.371502 
L 285.518678 86.371502 
L 285.518678 85.652348 
L 285.88846 85.652348 
L 285.88846 84.933195 
L 286.625387 84.933195 
L 286.625387 84.214041 
L 286.942818 84.214041 
L 286.942818 83.494887 
L 287.470459 83.494887 
L 287.470459 82.775733 
L 287.771632 82.775733 
L 287.771632 82.056579 
L 288.604215 82.056579 
L 288.604215 81.337426 
L 288.766343 81.337426 
L 288.766343 80.618272 
L 289.876939 80.618272 
L 289.876939 79.899118 
L 290.720445 79.899118 
L 290.720445 79.179964 
L 291.116469 79.179964 
L 291.116469 78.46081 
L 292.056429 78.46081 
L 292.056429 77.741656 
L 292.489014 77.741656 
L 292.489014 77.022503 
L 292.946231 77.022503 
L 292.946231 76.303349 
L 293.090117 76.303349 
L 293.090117 75.584195 
L 293.364506 75.584195 
L 293.364506 74.865041 
L 293.517686 74.865041 
L 293.517686 74.145887 
L 295.458499 74.145887 
L 295.458499 73.426734 
L 295.673732 73.426734 
L 295.734178 71.988426 
L 296.439447 71.988426 
L 296.441786 70.550118 
L 296.719683 70.550118 
L 296.796679 69.111811 
L 297.083689 69.111811 
L 297.178713 67.673503 
L 297.864979 67.673503 
L 297.864979 66.954349 
L 299.204608 66.954349 
L 299.204608 66.235195 
L 300.319971 66.235195 
L 300.319971 65.516042 
L 302.054046 65.516042 
L 302.138728 64.077734 
L 302.99586 64.077734 
L 302.99586 63.35858 
L 305.333896 63.35858 
L 305.333896 62.639426 
L 305.487076 62.639426 
L 305.487076 61.920272 
L 306.173208 61.920272 
L 306.173208 61.201119 
L 310.126769 61.201119 
L 310.126769 60.481965 
L 310.805561 60.481965 
L 310.805561 59.762811 
L 311.019239 59.762811 
L 311.019239 59.043657 
L 313.449622 59.043657 
L 313.449622 58.324503 
L 315.059202 58.324503 
L 315.059202 57.605349 
L 316.469159 57.605349 
L 316.469159 56.886196 
L 321.701412 56.886196 
L 321.701412 56.167042 
L 323.435487 56.167042 
L 323.435487 55.447888 
L 324.860136 55.447888 
L 324.860136 54.728734 
L 325.108831 54.728734 
L 325.108831 54.00958 
L 326.518788 54.00958 
L 326.518788 53.290427 
L 326.715336 53.290427 
L 326.715336 52.571273 
L 327.413363 52.571273 
L 327.413363 51.852119 
L 334.689478 51.852119 
L 334.689478 51.132965 
L 334.990281 51.132965 
L 334.990281 50.413811 
L 341.086881 50.413811 
L 341.086881 49.694657 
L 342.062997 49.694657 
L 342.062997 48.975504 
L 342.820957 48.975504 
L 342.820957 48.25635 
L 346.100806 48.25635 
L 346.100806 47.537196 
L 346.241577 47.537196 
L 346.241577 46.818042 
L 351.136511 46.818042 
L 351.136511 46.098888 
L 352.870586 46.098888 
L 352.870586 45.379735 
L 353.627007 45.379735 
L 353.627007 44.660581 
L 356.150435 44.660581 
L 356.150435 43.941427 
L 362.426305 43.941427 
L 362.426305 43.222273 
L 364.180333 43.222273 
L 364.180333 42.503119 
L 365.627046 42.503119 
L 365.627046 41.783965 
L 375.676675 41.783965 
L 375.676675 41.064812 
L 384.539276 41.064812 
L 384.539276 40.345658 
L 385.949233 40.345658 
L 385.949233 39.626504 
L 410.566956 39.626504 
L 410.566956 38.90735 
L 412.301031 38.90735 
L 412.301031 38.188196 
L 415.58088 38.188196 
L 415.58088 37.469043 
L 435.10712 37.469043 
L 435.10712 36.749889 
L 453.192 36.749889 
L 453.192 36.749889 
" clip-path="url(#p609ad45d1f)" style="fill: none; stroke: #000000; stroke-width: 3; stroke-linecap: square"/>
   </g>
   <g id="line2d_48">
    <path clip-path="url(#p609ad45d1f)" style="fill: none; stroke: #000000; stroke-width: 3; stroke-linecap: square"/>
   </g>
   <g id="line2d_49"/>
   <g id="line2d_50"/>
   <g id="line2d_51"/>
   <g id="line2d_52"/>
   <g id="line2d_53">
    <path d="M 243.676 291.28 
L 243.676 3 
" clip-path="url(#p609ad45d1f)" style="fill: none; stroke: #000000; stroke-width: 1.5; stroke-linecap: square"/>
   </g>
   <g id="line2d_54">
    <path d="M 34.16 147.14 
L 453.192 147.14 
" clip-path="url(#p609ad45d1f)" style="fill: none; stroke-dasharray: 2,3.3; stroke-dashoffset: 0; stroke: #000000; stroke-width: 2"/>
   </g>
   <g id="patch_3">
    <path d="M 34.16 291.28 
L 34.16 3 
" style="fill: none; stroke: #000000; stroke-width: 0.8; stroke-linejoin: miter; stroke-linecap: square"/>
   </g>
   <g id="patch_4">
    <path d="M 453.192 291.28 
L 453.192 3 
" style="fill: none; stroke: #000000; stroke-width: 0.8; stroke-linejoin: miter; stroke-linecap: square"/>
   </g>
   <g id="patch_5">
    <path d="M 34.16 291.28 
L 453.192 291.28 
" style="fill: none; stroke: #000000; stroke-width: 0.8; stroke-linejoin: miter; stroke-linecap: square"/>
   </g>
   <g id="patch_6">
    <path d="M 34.16 3 
L 453.192 3 
" style="fill: none; stroke: #000000; stroke-width: 0.8; stroke-linejoin: miter; stroke-linecap: square"/>
   </g>
   <g id="text_5">
    <!-- f48, f49, f51, f52,5-D -->
    <g transform="translate(235.014485 285.5144) scale(0.2 -0.2)">
     <defs>
      <path id="DejaVuSans-34" d="M 2419 4116 
L 825 1625 
L 2419 1625 
L 2419 4116 
z
M 2253 4666 
L 3047 4666 
L 3047 1625 
L 3713 1625 
L 3713 1100 
L 3047 1100 
L 3047 0 
L 2419 0 
L 2419 1100 
L 313 1100 
L 313 1709 
L 2253 4666 
z
" transform="scale(0.015625)"/>
      <path id="DejaVuSans-38" d="M 2034 2216 
Q 1584 2216 1326 1975 
Q 1069 1734 1069 1313 
Q 1069 891 1326 650 
Q 1584 409 2034 409 
Q 2484 409 2743 651 
Q 3003 894 3003 1313 
Q 3003 1734 2745 1975 
Q 2488 2216 2034 2216 
z
M 1403 2484 
Q 997 2584 770 2862 
Q 544 3141 544 3541 
Q 544 4100 942 4425 
Q 1341 4750 2034 4750 
Q 2731 4750 3128 4425 
Q 3525 4100 3525 3541 
Q 3525 3141 3298 2862 
Q 3072 2584 2669 2484 
Q 3125 2378 3379 2068 
Q 3634 1759 3634 1313 
Q 3634 634 3220 271 
Q 2806 -91 2034 -91 
Q 1263 -91 848 271 
Q 434 634 434 1313 
Q 434 1759 690 2068 
Q 947 2378 1403 2484 
z
M 1172 3481 
Q 1172 3119 1398 2916 
Q 1625 2713 2034 2713 
Q 2441 2713 2670 2916 
Q 2900 3119 2900 3481 
Q 2900 3844 2670 4047 
Q 2441 4250 2034 4250 
Q 1625 4250 1398 4047 
Q 1172 3844 1172 3481 
z
" transform="scale(0.015625)"/>
      <path id="DejaVuSans-2c" d="M 750 794 
L 1409 794 
L 1409 256 
L 897 -744 
L 494 -744 
L 750 256 
L 750 794 
z
" transform="scale(0.015625)"/>
      <path id="DejaVuSans-39" d="M 703 97 
L 703 672 
Q 941 559 1184 500 
Q 1428 441 1663 441 
Q 2288 441 2617 861 
Q 2947 1281 2994 2138 
Q 2813 1869 2534 1725 
Q 2256 1581 1919 1581 
Q 1219 1581 811 2004 
Q 403 2428 403 3163 
Q 403 3881 828 4315 
Q 1253 4750 1959 4750 
Q 2769 4750 3195 4129 
Q 3622 3509 3622 2328 
Q 3622 1225 3098 567 
Q 2575 -91 1691 -91 
Q 1453 -91 1209 -44 
Q 966 3 703 97 
z
M 1959 2075 
Q 2384 2075 2632 2365 
Q 2881 2656 2881 3163 
Q 2881 3666 2632 3958 
Q 2384 4250 1959 4250 
Q 1534 4250 1286 3958 
Q 1038 3666 1038 3163 
Q 1038 2656 1286 2365 
Q 1534 2075 1959 2075 
z
" transform="scale(0.015625)"/>
      <path id="DejaVuSans-35" d="M 691 4666 
L 3169 4666 
L 3169 4134 
L 1269 4134 
L 1269 2991 
Q 1406 3038 1543 3061 
Q 1681 3084 1819 3084 
Q 2600 3084 3056 2656 
Q 3513 2228 3513 1497 
Q 3513 744 3044 326 
Q 2575 -91 1722 -91 
Q 1428 -91 1123 -41 
Q 819 9 494 109 
L 494 744 
Q 775 591 1075 516 
Q 1375 441 1709 441 
Q 2250 441 2565 725 
Q 2881 1009 2881 1497 
Q 2881 1984 2565 2268 
Q 2250 2553 1709 2553 
Q 1456 2553 1204 2497 
Q 953 2441 691 2322 
L 691 4666 
z
" transform="scale(0.015625)"/>
      <path id="DejaVuSans-32" d="M 1228 531 
L 3431 531 
L 3431 0 
L 469 0 
L 469 531 
Q 828 903 1448 1529 
Q 2069 2156 2228 2338 
Q 2531 2678 2651 2914 
Q 2772 3150 2772 3378 
Q 2772 3750 2511 3984 
Q 2250 4219 1831 4219 
Q 1534 4219 1204 4116 
Q 875 4013 500 3803 
L 500 4441 
Q 881 4594 1212 4672 
Q 1544 4750 1819 4750 
Q 2544 4750 2975 4387 
Q 3406 4025 3406 3419 
Q 3406 3131 3298 2873 
Q 3191 2616 2906 2266 
Q 2828 2175 2409 1742 
Q 1991 1309 1228 531 
z
" transform="scale(0.015625)"/>
      <path id="DejaVuSans-44" d="M 1259 4147 
L 1259 519 
L 2022 519 
Q 2988 519 3436 956 
Q 3884 1394 3884 2338 
Q 3884 3275 3436 3711 
Q 2988 4147 2022 4147 
L 1259 4147 
z
M 628 4666 
L 1925 4666 
Q 3281 4666 3915 4102 
Q 4550 3538 4550 2338 
Q 4550 1131 3912 565 
Q 3275 0 1925 0 
L 628 0 
L 628 4666 
z
" transform="scale(0.015625)"/>
     </defs>
     <use xlink:href="#DejaVuSans-66"/>
     <use xlink:href="#DejaVuSans-34" x="35.205078"/>
     <use xlink:href="#DejaVuSans-38" x="98.828125"/>
     <use xlink:href="#DejaVuSans-2c" x="162.451172"/>
     <use xlink:href="#DejaVuSans-20" x="194.238281"/>
     <use xlink:href="#DejaVuSans-66" x="226.025391"/>
     <use xlink:href="#DejaVuSans-34" x="261.230469"/>
     <use xlink:href="#DejaVuSans-39" x="324.853516"/>
     <use xlink:href="#DejaVuSans-2c" x="388.476562"/>
     <use xlink:href="#DejaVuSans-20" x="420.263672"/>
     <use xlink:href="#DejaVuSans-66" x="452.050781"/>
     <use xlink:href="#DejaVuSans-35" x="487.255859"/>
     <use xlink:href="#DejaVuSans-31" x="550.878906"/>
     <use xlink:href="#DejaVuSans-2c" x="614.501953"/>
     <use xlink:href="#DejaVuSans-20" x="646.289062"/>
     <use xlink:href="#DejaVuSans-66" x="678.076172"/>
     <use xlink:href="#DejaVuSans-35" x="713.28125"/>
     <use xlink:href="#DejaVuSans-32" x="776.904297"/>
     <use xlink:href="#DejaVuSans-2c" x="840.527344"/>
     <use xlink:href="#DejaVuSans-35" x="872.314453"/>
     <use xlink:href="#DejaVuSans-2d" x="935.9375"/>
     <use xlink:href="#DejaVuSans-44" x="972.021484"/>
    </g>
   </g>
   <g id="text_6">
    <!-- v2.6, hv-hash=ff0e71e8cd978373 -->
    <g style="fill: #808080" transform="translate(158.180687 286.317512) scale(0.1 -0.1)">
     <defs>
      <path id="DejaVuSans-2e" d="M 684 794 
L 1344 794 
L 1344 0 
L 684 0 
L 684 794 
z
" transform="scale(0.015625)"/>
      <path id="DejaVuSans-36" d="M 2113 2584 
Q 1688 2584 1439 2293 
Q 1191 2003 1191 1497 
Q 1191 994 1439 701 
Q 1688 409 2113 409 
Q 2538 409 2786 701 
Q 3034 994 3034 1497 
Q 3034 2003 2786 2293 
Q 2538 2584 2113 2584 
z
M 3366 4563 
L 3366 3988 
Q 3128 4100 2886 4159 
Q 2644 4219 2406 4219 
Q 1781 4219 1451 3797 
Q 1122 3375 1075 2522 
Q 1259 2794 1537 2939 
Q 1816 3084 2150 3084 
Q 2853 3084 3261 2657 
Q 3669 2231 3669 1497 
Q 3669 778 3244 343 
Q 2819 -91 2113 -91 
Q 1303 -91 875 529 
Q 447 1150 447 2328 
Q 447 3434 972 4092 
Q 1497 4750 2381 4750 
Q 2619 4750 2861 4703 
Q 3103 4656 3366 4563 
z
" transform="scale(0.015625)"/>
      <path id="DejaVuSans-68" d="M 3513 2113 
L 3513 0 
L 2938 0 
L 2938 2094 
Q 2938 2591 2744 2837 
Q 2550 3084 2163 3084 
Q 1697 3084 1428 2787 
Q 1159 2491 1159 1978 
L 1159 0 
L 581 0 
L 581 4863 
L 1159 4863 
L 1159 2956 
Q 1366 3272 1645 3428 
Q 1925 3584 2291 3584 
Q 2894 3584 3203 3211 
Q 3513 2838 3513 2113 
z
" transform="scale(0.015625)"/>
      <path id="DejaVuSans-3d" d="M 678 2906 
L 4684 2906 
L 4684 2381 
L 678 2381 
L 678 2906 
z
M 678 1631 
L 4684 1631 
L 4684 1100 
L 678 1100 
L 678 1631 
z
" transform="scale(0.015625)"/>
      <path id="DejaVuSans-65" d="M 3597 1894 
L 3597 1613 
L 953 1613 
Q 991 1019 1311 708 
Q 1631 397 2203 397 
Q 2534 397 2845 478 
Q 3156 559 3463 722 
L 3463 178 
Q 3153 47 2828 -22 
Q 2503 -91 2169 -91 
Q 1331 -91 842 396 
Q 353 884 353 1716 
Q 353 2575 817 3079 
Q 1281 3584 2069 3584 
Q 2775 3584 3186 3129 
Q 3597 2675 3597 1894 
z
M 3022 2063 
Q 3016 2534 2758 2815 
Q 2500 3097 2075 3097 
Q 1594 3097 1305 2825 
Q 1016 2553 972 2059 
L 3022 2063 
z
" transform="scale(0.015625)"/>
      <path id="DejaVuSans-37" d="M 525 4666 
L 3525 4666 
L 3525 4397 
L 1831 0 
L 1172 0 
L 2766 4134 
L 525 4134 
L 525 4666 
z
" transform="scale(0.015625)"/>
      <path id="DejaVuSans-63" d="M 3122 3366 
L 3122 2828 
Q 2878 2963 2633 3030 
Q 2388 3097 2138 3097 
Q 1578 3097 1268 2742 
Q 959 2388 959 1747 
Q 959 1106 1268 751 
Q 1578 397 2138 397 
Q 2388 397 2633 464 
Q 2878 531 3122 666 
L 3122 134 
Q 2881 22 2623 -34 
Q 2366 -91 2075 -91 
Q 1284 -91 818 406 
Q 353 903 353 1747 
Q 353 2603 823 3093 
Q 1294 3584 2113 3584 
Q 2378 3584 2631 3529 
Q 2884 3475 3122 3366 
z
" transform="scale(0.015625)"/>
      <path id="DejaVuSans-64" d="M 2906 2969 
L 2906 4863 
L 3481 4863 
L 3481 0 
L 2906 0 
L 2906 525 
Q 2725 213 2448 61 
Q 2172 -91 1784 -91 
Q 1150 -91 751 415 
Q 353 922 353 1747 
Q 353 2572 751 3078 
Q 1150 3584 1784 3584 
Q 2172 3584 2448 3432 
Q 2725 3281 2906 2969 
z
M 947 1747 
Q 947 1113 1208 752 
Q 1469 391 1925 391 
Q 2381 391 2643 752 
Q 2906 1113 2906 1747 
Q 2906 2381 2643 2742 
Q 2381 3103 1925 3103 
Q 1469 3103 1208 2742 
Q 947 2381 947 1747 
z
" transform="scale(0.015625)"/>
      <path id="DejaVuSans-33" d="M 2597 2516 
Q 3050 2419 3304 2112 
Q 3559 1806 3559 1356 
Q 3559 666 3084 287 
Q 2609 -91 1734 -91 
Q 1441 -91 1130 -33 
Q 819 25 488 141 
L 488 750 
Q 750 597 1062 519 
Q 1375 441 1716 441 
Q 2309 441 2620 675 
Q 2931 909 2931 1356 
Q 2931 1769 2642 2001 
Q 2353 2234 1838 2234 
L 1294 2234 
L 1294 2753 
L 1863 2753 
Q 2328 2753 2575 2939 
Q 2822 3125 2822 3475 
Q 2822 3834 2567 4026 
Q 2313 4219 1838 4219 
Q 1578 4219 1281 4162 
Q 984 4106 628 3988 
L 628 4550 
Q 988 4650 1302 4700 
Q 1616 4750 1894 4750 
Q 2613 4750 3031 4423 
Q 3450 4097 3450 3541 
Q 3450 3153 3228 2886 
Q 3006 2619 2597 2516 
z
" transform="scale(0.015625)"/>
     </defs>
     <use xlink:href="#DejaVuSans-76"/>
     <use xlink:href="#DejaVuSans-32" x="59.179688"/>
     <use xlink:href="#DejaVuSans-2e" x="122.802734"/>
     <use xlink:href="#DejaVuSans-36" x="154.589844"/>
     <use xlink:href="#DejaVuSans-2c" x="218.212891"/>
     <use xlink:href="#DejaVuSans-20" x="250"/>
     <use xlink:href="#DejaVuSans-68" x="281.787109"/>
     <use xlink:href="#DejaVuSans-76" x="345.166016"/>
     <use xlink:href="#DejaVuSans-2d" x="401.720703"/>
     <use xlink:href="#DejaVuSans-68" x="437.804688"/>
     <use xlink:href="#DejaVuSans-61" x="501.183594"/>
     <use xlink:href="#DejaVuSans-73" x="562.462891"/>
     <use xlink:href="#DejaVuSans-68" x="614.5625"/>
     <use xlink:href="#DejaVuSans-3d" x="677.941406"/>
     <use xlink:href="#DejaVuSans-66" x="761.730469"/>
     <use xlink:href="#DejaVuSans-66" x="796.935547"/>
     <use xlink:href="#DejaVuSans-30" x="832.140625"/>
     <use xlink:href="#DejaVuSans-65" x="895.763672"/>
     <use xlink:href="#DejaVuSans-37" x="957.287109"/>
     <use xlink:href="#DejaVuSans-31" x="1020.910156"/>
     <use xlink:href="#DejaVuSans-65" x="1084.533203"/>
     <use xlink:href="#DejaVuSans-38" x="1146.056641"/>
     <use xlink:href="#DejaVuSans-63" x="1209.679688"/>
     <use xlink:href="#DejaVuSans-64" x="1264.660156"/>
     <use xlink:href="#DejaVuSans-39" x="1328.136719"/>
     <use xlink:href="#DejaVuSans-37" x="1391.759766"/>
     <use xlink:href="#DejaVuSans-38" x="1455.382812"/>
     <use xlink:href="#DejaVuSans-33" x="1519.005859"/>
     <use xlink:href="#DejaVuSans-37" x="1582.628906"/>
     <use xlink:href="#DejaVuSans-33" x="1646.251953"/>
    </g>
   </g>
   <g id="legend_1">
    <g id="patch_7">
     <path d="M 48.16 165.78125 
L 177.381875 165.78125 
Q 181.381875 165.78125 181.381875 161.78125 
L 181.381875 17 
Q 181.381875 13 177.381875 13 
L 48.16 13 
Q 44.16 13 44.16 17 
L 44.16 161.78125 
Q 44.16 165.78125 48.16 165.78125 
z
" style="fill: #ffffff; opacity: 0.2; stroke: #cccccc; stroke-linejoin: miter"/>
    </g>
    <g id="line2d_55">
     <path d="M 52.16 29.196875 
L 72.16 29.196875 
L 92.16 29.196875 
" style="fill: none; stroke: #000000; stroke-width: 3; stroke-linecap: square"/>
    </g>
    <g id="text_7">
     <!-- -1: 4/4 -->
     <g transform="translate(108.16 36.196875) scale(0.2 -0.2)">
      <defs>
       <path id="DejaVuSans-3a" d="M 750 794 
L 1409 794 
L 1409 0 
L 750 0 
L 750 794 
z
M 750 3309 
L 1409 3309 
L 1409 2516 
L 750 2516 
L 750 3309 
z
" transform="scale(0.015625)"/>
       <path id="DejaVuSans-2f" d="M 1625 4666 
L 2156 4666 
L 531 -594 
L 0 -594 
L 1625 4666 
z
" transform="scale(0.015625)"/>
      </defs>
      <use xlink:href="#DejaVuSans-2d"/>
      <use xlink:href="#DejaVuSans-31" x="36.083984"/>
      <use xlink:href="#DejaVuSans-3a" x="99.707031"/>
      <use xlink:href="#DejaVuSans-20" x="133.398438"/>
      <use xlink:href="#DejaVuSans-34" x="165.185547"/>
      <use xlink:href="#DejaVuSans-2f" x="228.808594"/>
      <use xlink:href="#DejaVuSans-34" x="262.5"/>
     </g>
    </g>
    <g id="line2d_56">
     <path d="M 52.16 58.553125 
L 72.16 58.553125 
L 92.16 58.553125 
" style="fill: none; stroke: #00bfbf; stroke-width: 3; stroke-linecap: square"/>
    </g>
    <g id="text_8">
     <!-- -2: 0/0 -->
     <g transform="translate(108.16 65.553125) scale(0.2 -0.2)">
      <use xlink:href="#DejaVuSans-2d"/>
      <use xlink:href="#DejaVuSans-32" x="36.083984"/>
      <use xlink:href="#DejaVuSans-3a" x="99.707031"/>
      <use xlink:href="#DejaVuSans-20" x="133.398438"/>
      <use xlink:href="#DejaVuSans-30" x="165.185547"/>
      <use xlink:href="#DejaVuSans-2f" x="228.808594"/>
      <use xlink:href="#DejaVuSans-30" x="262.5"/>
     </g>
    </g>
    <g id="line2d_57">
     <path d="M 52.16 87.909375 
L 72.16 87.909375 
L 92.16 87.909375 
" style="fill: none; stroke: #bf00bf; stroke-width: 3; stroke-linecap: square"/>
    </g>
    <g id="text_9">
     <!-- -3: 0/0 -->
     <g transform="translate(108.16 94.909375) scale(0.2 -0.2)">
      <use xlink:href="#DejaVuSans-2d"/>
      <use xlink:href="#DejaVuSans-33" x="36.083984"/>
      <use xlink:href="#DejaVuSans-3a" x="99.707031"/>
      <use xlink:href="#DejaVuSans-20" x="133.398438"/>
      <use xlink:href="#DejaVuSans-30" x="165.185547"/>
      <use xlink:href="#DejaVuSans-2f" x="228.808594"/>
      <use xlink:href="#DejaVuSans-30" x="262.5"/>
     </g>
    </g>
    <g id="line2d_58">
     <path d="M 52.16 117.265625 
L 72.16 117.265625 
L 92.16 117.265625 
" style="fill: none; stroke: #ff0000; stroke-width: 3; stroke-linecap: square"/>
    </g>
    <g id="text_10">
     <!-- -4: 0/0 -->
     <g transform="translate(108.16 124.265625) scale(0.2 -0.2)">
      <use xlink:href="#DejaVuSans-2d"/>
      <use xlink:href="#DejaVuSans-34" x="36.083984"/>
      <use xlink:href="#DejaVuSans-3a" x="99.707031"/>
      <use xlink:href="#DejaVuSans-20" x="133.398438"/>
      <use xlink:href="#DejaVuSans-30" x="165.185547"/>
      <use xlink:href="#DejaVuSans-2f" x="228.808594"/>
      <use xlink:href="#DejaVuSans-30" x="262.5"/>
     </g>
    </g>
    <g id="line2d_59">
     <path d="M 52.16 146.621875 
L 72.16 146.621875 
L 92.16 146.621875 
" style="fill: none; stroke: #0000ff; stroke-width: 3; stroke-linecap: square"/>
    </g>
    <g id="text_11">
     <!-- -5: 0/0 -->
     <g transform="translate(108.16 153.621875) scale(0.2 -0.2)">
      <use xlink:href="#DejaVuSans-2d"/>
      <use xlink:href="#DejaVuSans-35" x="36.083984"/>
      <use xlink:href="#DejaVuSans-3a" x="99.707031"/>
      <use xlink:href="#DejaVuSans-20" x="133.398438"/>
      <use xlink:href="#DejaVuSans-30" x="165.185547"/>
      <use xlink:href="#DejaVuSans-2f" x="228.808594"/>
      <use xlink:href="#DejaVuSans-30" x="262.5"/>
     </g>
    </g>
   </g>
  </g>
 </g>
 <defs>
  <clipPath id="p609ad45d1f">
   <rect x="34.16" y="3" width="419.032" height="288.28"/>
  </clipPath>
 </defs>
</svg>
