<?xml version="1.0" encoding="utf-8" standalone="no"?>
<!DOCTYPE svg PUBLIC "-//W3C//DTD SVG 1.1//EN"
  "http://www.w3.org/Graphics/SVG/1.1/DTD/svg11.dtd">
<svg xmlns:xlink="http://www.w3.org/1999/xlink" width="460.8pt" height="345.6pt" viewBox="0 0 460.8 345.6" xmlns="http://www.w3.org/2000/svg" version="1.1">
 <metadata>
  <rdf:RDF xmlns:dc="http://purl.org/dc/elements/1.1/" xmlns:cc="http://creativecommons.org/ns#" xmlns:rdf="http://www.w3.org/1999/02/22-rdf-syntax-ns#">
   <cc:Work>
    <dc:type rdf:resource="http://purl.org/dc/dcmitype/StillImage"/>
    <dc:date>2023-02-10T20:28:22.319424</dc:date>
    <dc:format>image/svg+xml</dc:format>
    <dc:creator>
     <cc:Agent>
      <dc:title>Matplotlib v3.6.3, https://matplotlib.org/</dc:title>
     </cc:Agent>
    </dc:creator>
   </cc:Work>
  </rdf:RDF>
 </metadata>
 <defs>
  <style type="text/css">*{stroke-linejoin: round; stroke-linecap: butt}</style>
 </defs>
 <g id="figure_1">
  <g id="patch_1">
   <path d="M 0 345.6 
L 460.8 345.6 
L 460.8 0 
L 0 0 
z
" style="fill: #ffffff"/>
  </g>
  <g id="axes_1">
   <g id="patch_2">
    <path d="M 57.6 298.944 
L 360.8064 298.944 
L 360.8064 6.912 
L 57.6 6.912 
z
" style="fill: #ffffff"/>
   </g>
   <g id="line2d_1">
    <path d="M 14.2848 298.944 
L 14.2848 296.426483 
L 27.323974 296.426483 
L 27.323974 293.908966 
L 44.560826 293.908966 
L 44.560826 291.391448 
L 53.402323 291.391448 
L 53.402323 288.873931 
L 57.6 288.873931 
L 57.6 286.356414 
L 61.029752 286.356414 
L 61.029752 283.838897 
L 62.535479 283.838897 
L 62.535479 281.321379 
L 67.581941 281.321379 
L 67.581941 278.803862 
L 75.574654 278.803862 
L 75.574654 276.286345 
L 80.059535 276.286345 
L 80.059535 275.027586 
L 84.596168 275.027586 
L 84.596168 272.510069 
L 85.894031 272.510069 
L 85.894031 271.25131 
L 89.323782 271.25131 
L 89.323782 267.475034 
L 89.668958 267.475034 
L 89.668958 266.216276 
L 90.340871 266.216276 
L 90.340871 264.957517 
L 96.241256 264.957517 
L 96.241256 261.181241 
L 97.18203 261.181241 
L 97.18203 257.404966 
L 100.535156 257.404966 
L 100.535156 253.62869 
L 102.362957 253.62869 
L 102.362957 251.111172 
L 102.536336 251.111172 
L 102.536336 248.593655 
L 103.544339 248.593655 
L 103.544339 246.076138 
L 110.674517 246.076138 
L 110.674517 244.817379 
L 114.141556 244.817379 
L 114.141556 243.558621 
L 120.682786 243.558621 
L 120.682786 241.041103 
L 121.768984 241.041103 
L 121.768984 238.523586 
L 122.971409 238.523586 
L 122.971409 236.006069 
L 126.078082 236.006069 
L 126.078082 234.74731 
L 129.375706 234.74731 
L 129.375706 230.971034 
L 129.7043 230.971034 
L 129.7043 229.712276 
L 131.63737 229.712276 
L 131.63737 225.936 
L 137.140746 225.936 
L 137.140746 223.418483 
L 137.601239 223.418483 
L 137.681345 218.383448 
L 141.393187 218.383448 
L 141.393187 215.865931 
L 143.126369 215.865931 
L 143.126369 213.348414 
L 143.618588 213.348414 
L 143.618588 210.830897 
L 146.612557 210.830897 
L 146.612557 207.054621 
L 148.607806 207.054621 
L 148.607806 203.278345 
L 149.395993 203.278345 
L 149.395993 200.760828 
L 149.820013 200.760828 
L 149.820013 198.24331 
L 155.474761 198.24331 
L 155.474761 195.725793 
L 156.482044 195.725793 
L 156.482044 194.467034 
L 157.032948 194.467034 
L 157.032948 193.208276 
L 162.442313 193.208276 
L 162.442313 190.690759 
L 163.64611 190.690759 
L 163.692963 183.138207 
L 168.462127 183.138207 
L 168.462127 180.62069 
L 169.274409 180.62069 
L 169.274409 179.361931 
L 170.00055 179.361931 
L 170.00055 178.103172 
L 170.336945 178.103172 
L 170.336945 175.585655 
L 175.477915 175.585655 
L 175.477915 174.326897 
L 175.849382 174.326897 
L 175.849382 170.550621 
L 176.560893 170.550621 
L 176.560893 166.774345 
L 181.428529 166.774345 
L 181.428529 162.998069 
L 182.689901 162.998069 
L 182.689901 160.480552 
L 182.804006 160.480552 
L 182.804006 157.963034 
L 185.336501 157.963034 
L 185.336501 155.445517 
L 186.152093 155.445517 
L 186.152093 152.928 
L 191.147005 152.928 
L 191.147005 151.669241 
L 191.494836 151.669241 
L 191.494836 150.410483 
L 194.40249 150.410483 
L 194.40249 149.151724 
L 199.353641 149.151724 
L 199.353641 145.375448 
L 199.699894 145.375448 
L 199.699894 144.11669 
L 200.637373 144.11669 
L 200.637373 140.340414 
L 202.806308 140.340414 
L 202.806308 136.564138 
L 204.604027 136.564138 
L 204.604027 135.305379 
L 208.950608 135.305379 
L 208.950608 134.046621 
L 213.798088 134.046621 
L 213.798088 130.270345 
L 216.503327 130.270345 
L 216.503327 126.494069 
L 217.412766 126.494069 
L 217.412766 123.976552 
L 225.123701 123.976552 
L 225.123701 122.717793 
L 225.861611 122.717793 
L 225.861611 120.200276 
L 231.025245 120.200276 
L 231.025245 117.682759 
L 234.379227 117.682759 
L 234.379227 113.906483 
L 234.792338 113.906483 
L 234.792338 112.647724 
L 235.271566 112.647724 
L 235.271566 108.871448 
L 235.654223 108.871448 
L 235.654223 106.353931 
L 236.171634 106.353931 
L 236.171634 105.095172 
L 238.973034 105.095172 
L 238.973034 101.318897 
L 242.428617 101.318897 
L 242.428617 97.542621 
L 243.152613 97.542621 
L 243.152613 95.025103 
L 243.91436 95.025103 
L 243.91436 93.766345 
L 244.977371 93.766345 
L 244.977371 92.507586 
L 247.057507 92.507586 
L 247.057507 91.248828 
L 249.077285 91.248828 
L 249.077285 88.73131 
L 250.745233 88.73131 
L 250.745233 84.955034 
L 252.958489 84.955034 
L 252.958489 83.696276 
L 253.645681 83.696276 
L 253.645681 81.178759 
L 259.543244 81.178759 
L 259.58803 76.143724 
L 259.670695 76.143724 
L 259.670695 72.367448 
L 261.380171 72.367448 
L 261.380171 68.591172 
L 263.54482 68.591172 
L 263.54482 66.073655 
L 266.881711 66.073655 
L 266.881711 62.297379 
L 267.79808 62.297379 
L 267.79808 59.779862 
L 268.01975 59.779862 
L 268.01975 57.262345 
L 275.319117 57.262345 
L 275.319117 56.003586 
L 276.187564 56.003586 
L 276.187564 54.744828 
L 280.768081 54.744828 
L 280.768081 52.22731 
L 284.473494 52.22731 
L 284.473494 49.709793 
L 288.251054 49.709793 
L 288.251054 45.933517 
L 291.465832 45.933517 
L 291.465832 42.157241 
L 360.8064 42.157241 
L 360.8064 42.157241 
" style="fill: none; stroke: #f5deb3; stroke-width: 4; stroke-linecap: square"/>
   </g>
   <g id="line2d_2">
    <defs>
     <path id="m9698c5ca18" d="M -0 7.778175 
L 7.778175 0 
L 0 -7.778175 
L -7.778175 -0 
z
" style="stroke: #f5deb3; stroke-width: 1.5; stroke-linejoin: miter"/>
    </defs>
    <g>
     <use xlink:href="#m9698c5ca18" x="129.7043" y="229.712276" style="fill: #f5deb3; stroke: #f5deb3; stroke-width: 1.5; stroke-linejoin: miter"/>
     <use xlink:href="#m9698c5ca18" x="200.637373" y="144.11669" style="fill: #f5deb3; stroke: #f5deb3; stroke-width: 1.5; stroke-linejoin: miter"/>
     <use xlink:href="#m9698c5ca18" x="261.380171" y="68.591172" style="fill: #f5deb3; stroke: #f5deb3; stroke-width: 1.5; stroke-linejoin: miter"/>
     <use xlink:href="#m9698c5ca18" x="291.465832" y="42.157241" style="fill: #f5deb3; stroke: #f5deb3; stroke-width: 1.5; stroke-linejoin: miter"/>
     <use xlink:href="#m9698c5ca18" x="291.465832" y="42.157241" style="fill: #f5deb3; stroke: #f5deb3; stroke-width: 1.5; stroke-linejoin: miter"/>
     <use xlink:href="#m9698c5ca18" x="360.8064" y="42.157241" style="fill: #f5deb3; stroke: #f5deb3; stroke-width: 1.5; stroke-linejoin: miter"/>
    </g>
   </g>
   <g id="line2d_3">
    <path style="fill: none; stroke: #f5deb3; stroke-width: 4; stroke-linecap: square"/>
    <g/>
   </g>
   <g id="line2d_4">
    <path d="M 360.8064 42.157241 
L 380.514816 12.75264 
" style="fill: none; stroke: #f5deb3; stroke-width: 4; stroke-linecap: square"/>
    <g>
     <use xlink:href="#m9698c5ca18" x="360.8064" y="42.157241" style="fill: #f5deb3; stroke: #f5deb3; stroke-width: 1.5; stroke-linejoin: miter"/>
     <use xlink:href="#m9698c5ca18" x="380.514816" y="12.75264" style="fill: #f5deb3; stroke: #f5deb3; stroke-width: 1.5; stroke-linejoin: miter"/>
    </g>
   </g>
   <g id="matplotlib.axis_1">
    <g id="xtick_1">
     <g id="line2d_5">
      <path d="M 57.6 298.944 
L 57.6 6.912 
" clip-path="url(#p1451aa6045)" style="fill: none; stroke: #b0b0b0; stroke-width: 0.8; stroke-linecap: square"/>
     </g>
     <g id="line2d_6">
      <defs>
       <path id="m2e924056d5" d="M 0 0 
L 0 3.5 
" style="stroke: #000000; stroke-width: 0.8"/>
      </defs>
      <g>
       <use xlink:href="#m2e924056d5" x="57.6" y="298.944" style="stroke: #000000; stroke-width: 0.8"/>
      </g>
     </g>
     <g id="text_1">
      <!-- 0 -->
      <g transform="translate(52.191875 318.861344) scale(0.17 -0.17)">
       <defs>
        <path id="DejaVuSans-30" d="M 2034 4250 
Q 1547 4250 1301 3770 
Q 1056 3291 1056 2328 
Q 1056 1369 1301 889 
Q 1547 409 2034 409 
Q 2525 409 2770 889 
Q 3016 1369 3016 2328 
Q 3016 3291 2770 3770 
Q 2525 4250 2034 4250 
z
M 2034 4750 
Q 2819 4750 3233 4129 
Q 3647 3509 3647 2328 
Q 3647 1150 3233 529 
Q 2819 -91 2034 -91 
Q 1250 -91 836 529 
Q 422 1150 422 2328 
Q 422 3509 836 4129 
Q 1250 4750 2034 4750 
z
" transform="scale(0.015625)"/>
       </defs>
       <use xlink:href="#DejaVuSans-30"/>
      </g>
     </g>
    </g>
    <g id="xtick_2">
     <g id="line2d_7">
      <path d="M 144.2304 298.944 
L 144.2304 6.912 
" clip-path="url(#p1451aa6045)" style="fill: none; stroke: #b0b0b0; stroke-width: 0.8; stroke-linecap: square"/>
     </g>
     <g id="line2d_8">
      <g>
       <use xlink:href="#m2e924056d5" x="144.2304" y="298.944" style="stroke: #000000; stroke-width: 0.8"/>
      </g>
     </g>
     <g id="text_2">
      <!-- 2 -->
      <g transform="translate(138.822275 318.861344) scale(0.17 -0.17)">
       <defs>
        <path id="DejaVuSans-32" d="M 1228 531 
L 3431 531 
L 3431 0 
L 469 0 
L 469 531 
Q 828 903 1448 1529 
Q 2069 2156 2228 2338 
Q 2531 2678 2651 2914 
Q 2772 3150 2772 3378 
Q 2772 3750 2511 3984 
Q 2250 4219 1831 4219 
Q 1534 4219 1204 4116 
Q 875 4013 500 3803 
L 500 4441 
Q 881 4594 1212 4672 
Q 1544 4750 1819 4750 
Q 2544 4750 2975 4387 
Q 3406 4025 3406 3419 
Q 3406 3131 3298 2873 
Q 3191 2616 2906 2266 
Q 2828 2175 2409 1742 
Q 1991 1309 1228 531 
z
" transform="scale(0.015625)"/>
       </defs>
       <use xlink:href="#DejaVuSans-32"/>
      </g>
     </g>
    </g>
    <g id="xtick_3">
     <g id="line2d_9">
      <path d="M 230.8608 298.944 
L 230.8608 6.912 
" clip-path="url(#p1451aa6045)" style="fill: none; stroke: #b0b0b0; stroke-width: 0.8; stroke-linecap: square"/>
     </g>
     <g id="line2d_10">
      <g>
       <use xlink:href="#m2e924056d5" x="230.8608" y="298.944" style="stroke: #000000; stroke-width: 0.8"/>
      </g>
     </g>
     <g id="text_3">
      <!-- 4 -->
      <g transform="translate(225.452675 318.861344) scale(0.17 -0.17)">
       <defs>
        <path id="DejaVuSans-34" d="M 2419 4116 
L 825 1625 
L 2419 1625 
L 2419 4116 
z
M 2253 4666 
L 3047 4666 
L 3047 1625 
L 3713 1625 
L 3713 1100 
L 3047 1100 
L 3047 0 
L 2419 0 
L 2419 1100 
L 313 1100 
L 313 1709 
L 2253 4666 
z
" transform="scale(0.015625)"/>
       </defs>
       <use xlink:href="#DejaVuSans-34"/>
      </g>
     </g>
    </g>
    <g id="xtick_4">
     <g id="line2d_11">
      <path d="M 317.4912 298.944 
L 317.4912 6.912 
" clip-path="url(#p1451aa6045)" style="fill: none; stroke: #b0b0b0; stroke-width: 0.8; stroke-linecap: square"/>
     </g>
     <g id="line2d_12">
      <g>
       <use xlink:href="#m2e924056d5" x="317.4912" y="298.944" style="stroke: #000000; stroke-width: 0.8"/>
      </g>
     </g>
     <g id="text_4">
      <!-- 6 -->
      <g transform="translate(312.083075 318.861344) scale(0.17 -0.17)">
       <defs>
        <path id="DejaVuSans-36" d="M 2113 2584 
Q 1688 2584 1439 2293 
Q 1191 2003 1191 1497 
Q 1191 994 1439 701 
Q 1688 409 2113 409 
Q 2538 409 2786 701 
Q 3034 994 3034 1497 
Q 3034 2003 2786 2293 
Q 2538 2584 2113 2584 
z
M 3366 4563 
L 3366 3988 
Q 3128 4100 2886 4159 
Q 2644 4219 2406 4219 
Q 1781 4219 1451 3797 
Q 1122 3375 1075 2522 
Q 1259 2794 1537 2939 
Q 1816 3084 2150 3084 
Q 2853 3084 3261 2657 
Q 3669 2231 3669 1497 
Q 3669 778 3244 343 
Q 2819 -91 2113 -91 
Q 1303 -91 875 529 
Q 447 1150 447 2328 
Q 447 3434 972 4092 
Q 1497 4750 2381 4750 
Q 2619 4750 2861 4703 
Q 3103 4656 3366 4563 
z
" transform="scale(0.015625)"/>
       </defs>
       <use xlink:href="#DejaVuSans-36"/>
      </g>
     </g>
    </g>
    <g id="xtick_5">
     <g id="line2d_13">
      <path d="M 100.9152 298.944 
L 100.9152 6.912 
" clip-path="url(#p1451aa6045)" style="fill: none; stroke: #b0b0b0; stroke-width: 0.8; stroke-linecap: square"/>
     </g>
     <g id="line2d_14">
      <defs>
       <path id="m4ae394368f" d="M 0 0 
L 0 2 
" style="stroke: #000000; stroke-width: 0.6"/>
      </defs>
      <g>
       <use xlink:href="#m4ae394368f" x="100.9152" y="298.944" style="stroke: #000000; stroke-width: 0.6"/>
      </g>
     </g>
    </g>
    <g id="xtick_6">
     <g id="line2d_15">
      <path d="M 187.5456 298.944 
L 187.5456 6.912 
" clip-path="url(#p1451aa6045)" style="fill: none; stroke: #b0b0b0; stroke-width: 0.8; stroke-linecap: square"/>
     </g>
     <g id="line2d_16">
      <g>
       <use xlink:href="#m4ae394368f" x="187.5456" y="298.944" style="stroke: #000000; stroke-width: 0.6"/>
      </g>
     </g>
    </g>
    <g id="xtick_7">
     <g id="line2d_17">
      <path d="M 274.176 298.944 
L 274.176 6.912 
" clip-path="url(#p1451aa6045)" style="fill: none; stroke: #b0b0b0; stroke-width: 0.8; stroke-linecap: square"/>
     </g>
     <g id="line2d_18">
      <g>
       <use xlink:href="#m4ae394368f" x="274.176" y="298.944" style="stroke: #000000; stroke-width: 0.6"/>
      </g>
     </g>
    </g>
    <g id="xtick_8">
     <g id="line2d_19">
      <path d="M 360.8064 298.944 
L 360.8064 6.912 
" clip-path="url(#p1451aa6045)" style="fill: none; stroke: #b0b0b0; stroke-width: 0.8; stroke-linecap: square"/>
     </g>
     <g id="line2d_20">
      <g>
       <use xlink:href="#m4ae394368f" x="360.8064" y="298.944" style="stroke: #000000; stroke-width: 0.6"/>
      </g>
     </g>
    </g>
    <g id="text_5">
     <!-- log10(# f-evals / dimension) -->
     <g transform="translate(88.823278 339.314156) scale(0.17 -0.17)">
      <defs>
       <path id="DejaVuSans-6c" d="M 603 4863 
L 1178 4863 
L 1178 0 
L 603 0 
L 603 4863 
z
" transform="scale(0.015625)"/>
       <path id="DejaVuSans-6f" d="M 1959 3097 
Q 1497 3097 1228 2736 
Q 959 2375 959 1747 
Q 959 1119 1226 758 
Q 1494 397 1959 397 
Q 2419 397 2687 759 
Q 2956 1122 2956 1747 
Q 2956 2369 2687 2733 
Q 2419 3097 1959 3097 
z
M 1959 3584 
Q 2709 3584 3137 3096 
Q 3566 2609 3566 1747 
Q 3566 888 3137 398 
Q 2709 -91 1959 -91 
Q 1206 -91 779 398 
Q 353 888 353 1747 
Q 353 2609 779 3096 
Q 1206 3584 1959 3584 
z
" transform="scale(0.015625)"/>
       <path id="DejaVuSans-67" d="M 2906 1791 
Q 2906 2416 2648 2759 
Q 2391 3103 1925 3103 
Q 1463 3103 1205 2759 
Q 947 2416 947 1791 
Q 947 1169 1205 825 
Q 1463 481 1925 481 
Q 2391 481 2648 825 
Q 2906 1169 2906 1791 
z
M 3481 434 
Q 3481 -459 3084 -895 
Q 2688 -1331 1869 -1331 
Q 1566 -1331 1297 -1286 
Q 1028 -1241 775 -1147 
L 775 -588 
Q 1028 -725 1275 -790 
Q 1522 -856 1778 -856 
Q 2344 -856 2625 -561 
Q 2906 -266 2906 331 
L 2906 616 
Q 2728 306 2450 153 
Q 2172 0 1784 0 
Q 1141 0 747 490 
Q 353 981 353 1791 
Q 353 2603 747 3093 
Q 1141 3584 1784 3584 
Q 2172 3584 2450 3431 
Q 2728 3278 2906 2969 
L 2906 3500 
L 3481 3500 
L 3481 434 
z
" transform="scale(0.015625)"/>
       <path id="DejaVuSans-31" d="M 794 531 
L 1825 531 
L 1825 4091 
L 703 3866 
L 703 4441 
L 1819 4666 
L 2450 4666 
L 2450 531 
L 3481 531 
L 3481 0 
L 794 0 
L 794 531 
z
" transform="scale(0.015625)"/>
       <path id="DejaVuSans-28" d="M 1984 4856 
Q 1566 4138 1362 3434 
Q 1159 2731 1159 2009 
Q 1159 1288 1364 580 
Q 1569 -128 1984 -844 
L 1484 -844 
Q 1016 -109 783 600 
Q 550 1309 550 2009 
Q 550 2706 781 3412 
Q 1013 4119 1484 4856 
L 1984 4856 
z
" transform="scale(0.015625)"/>
       <path id="DejaVuSans-23" d="M 3272 2816 
L 2363 2816 
L 2100 1772 
L 3016 1772 
L 3272 2816 
z
M 2803 4594 
L 2478 3297 
L 3391 3297 
L 3719 4594 
L 4219 4594 
L 3897 3297 
L 4872 3297 
L 4872 2816 
L 3775 2816 
L 3519 1772 
L 4513 1772 
L 4513 1294 
L 3397 1294 
L 3072 0 
L 2572 0 
L 2894 1294 
L 1978 1294 
L 1656 0 
L 1153 0 
L 1478 1294 
L 494 1294 
L 494 1772 
L 1594 1772 
L 1856 2816 
L 850 2816 
L 850 3297 
L 1978 3297 
L 2297 4594 
L 2803 4594 
z
" transform="scale(0.015625)"/>
       <path id="DejaVuSans-20" transform="scale(0.015625)"/>
       <path id="DejaVuSans-66" d="M 2375 4863 
L 2375 4384 
L 1825 4384 
Q 1516 4384 1395 4259 
Q 1275 4134 1275 3809 
L 1275 3500 
L 2222 3500 
L 2222 3053 
L 1275 3053 
L 1275 0 
L 697 0 
L 697 3053 
L 147 3053 
L 147 3500 
L 697 3500 
L 697 3744 
Q 697 4328 969 4595 
Q 1241 4863 1831 4863 
L 2375 4863 
z
" transform="scale(0.015625)"/>
       <path id="DejaVuSans-2d" d="M 313 2009 
L 1997 2009 
L 1997 1497 
L 313 1497 
L 313 2009 
z
" transform="scale(0.015625)"/>
       <path id="DejaVuSans-65" d="M 3597 1894 
L 3597 1613 
L 953 1613 
Q 991 1019 1311 708 
Q 1631 397 2203 397 
Q 2534 397 2845 478 
Q 3156 559 3463 722 
L 3463 178 
Q 3153 47 2828 -22 
Q 2503 -91 2169 -91 
Q 1331 -91 842 396 
Q 353 884 353 1716 
Q 353 2575 817 3079 
Q 1281 3584 2069 3584 
Q 2775 3584 3186 3129 
Q 3597 2675 3597 1894 
z
M 3022 2063 
Q 3016 2534 2758 2815 
Q 2500 3097 2075 3097 
Q 1594 3097 1305 2825 
Q 1016 2553 972 2059 
L 3022 2063 
z
" transform="scale(0.015625)"/>
       <path id="DejaVuSans-76" d="M 191 3500 
L 800 3500 
L 1894 563 
L 2988 3500 
L 3597 3500 
L 2284 0 
L 1503 0 
L 191 3500 
z
" transform="scale(0.015625)"/>
       <path id="DejaVuSans-61" d="M 2194 1759 
Q 1497 1759 1228 1600 
Q 959 1441 959 1056 
Q 959 750 1161 570 
Q 1363 391 1709 391 
Q 2188 391 2477 730 
Q 2766 1069 2766 1631 
L 2766 1759 
L 2194 1759 
z
M 3341 1997 
L 3341 0 
L 2766 0 
L 2766 531 
Q 2569 213 2275 61 
Q 1981 -91 1556 -91 
Q 1019 -91 701 211 
Q 384 513 384 1019 
Q 384 1609 779 1909 
Q 1175 2209 1959 2209 
L 2766 2209 
L 2766 2266 
Q 2766 2663 2505 2880 
Q 2244 3097 1772 3097 
Q 1472 3097 1187 3025 
Q 903 2953 641 2809 
L 641 3341 
Q 956 3463 1253 3523 
Q 1550 3584 1831 3584 
Q 2591 3584 2966 3190 
Q 3341 2797 3341 1997 
z
" transform="scale(0.015625)"/>
       <path id="DejaVuSans-73" d="M 2834 3397 
L 2834 2853 
Q 2591 2978 2328 3040 
Q 2066 3103 1784 3103 
Q 1356 3103 1142 2972 
Q 928 2841 928 2578 
Q 928 2378 1081 2264 
Q 1234 2150 1697 2047 
L 1894 2003 
Q 2506 1872 2764 1633 
Q 3022 1394 3022 966 
Q 3022 478 2636 193 
Q 2250 -91 1575 -91 
Q 1294 -91 989 -36 
Q 684 19 347 128 
L 347 722 
Q 666 556 975 473 
Q 1284 391 1588 391 
Q 1994 391 2212 530 
Q 2431 669 2431 922 
Q 2431 1156 2273 1281 
Q 2116 1406 1581 1522 
L 1381 1569 
Q 847 1681 609 1914 
Q 372 2147 372 2553 
Q 372 3047 722 3315 
Q 1072 3584 1716 3584 
Q 2034 3584 2315 3537 
Q 2597 3491 2834 3397 
z
" transform="scale(0.015625)"/>
       <path id="DejaVuSans-2f" d="M 1625 4666 
L 2156 4666 
L 531 -594 
L 0 -594 
L 1625 4666 
z
" transform="scale(0.015625)"/>
       <path id="DejaVuSans-64" d="M 2906 2969 
L 2906 4863 
L 3481 4863 
L 3481 0 
L 2906 0 
L 2906 525 
Q 2725 213 2448 61 
Q 2172 -91 1784 -91 
Q 1150 -91 751 415 
Q 353 922 353 1747 
Q 353 2572 751 3078 
Q 1150 3584 1784 3584 
Q 2172 3584 2448 3432 
Q 2725 3281 2906 2969 
z
M 947 1747 
Q 947 1113 1208 752 
Q 1469 391 1925 391 
Q 2381 391 2643 752 
Q 2906 1113 2906 1747 
Q 2906 2381 2643 2742 
Q 2381 3103 1925 3103 
Q 1469 3103 1208 2742 
Q 947 2381 947 1747 
z
" transform="scale(0.015625)"/>
       <path id="DejaVuSans-69" d="M 603 3500 
L 1178 3500 
L 1178 0 
L 603 0 
L 603 3500 
z
M 603 4863 
L 1178 4863 
L 1178 4134 
L 603 4134 
L 603 4863 
z
" transform="scale(0.015625)"/>
       <path id="DejaVuSans-6d" d="M 3328 2828 
Q 3544 3216 3844 3400 
Q 4144 3584 4550 3584 
Q 5097 3584 5394 3201 
Q 5691 2819 5691 2113 
L 5691 0 
L 5113 0 
L 5113 2094 
Q 5113 2597 4934 2840 
Q 4756 3084 4391 3084 
Q 3944 3084 3684 2787 
Q 3425 2491 3425 1978 
L 3425 0 
L 2847 0 
L 2847 2094 
Q 2847 2600 2669 2842 
Q 2491 3084 2119 3084 
Q 1678 3084 1418 2786 
Q 1159 2488 1159 1978 
L 1159 0 
L 581 0 
L 581 3500 
L 1159 3500 
L 1159 2956 
Q 1356 3278 1631 3431 
Q 1906 3584 2284 3584 
Q 2666 3584 2933 3390 
Q 3200 3197 3328 2828 
z
" transform="scale(0.015625)"/>
       <path id="DejaVuSans-6e" d="M 3513 2113 
L 3513 0 
L 2938 0 
L 2938 2094 
Q 2938 2591 2744 2837 
Q 2550 3084 2163 3084 
Q 1697 3084 1428 2787 
Q 1159 2491 1159 1978 
L 1159 0 
L 581 0 
L 581 3500 
L 1159 3500 
L 1159 2956 
Q 1366 3272 1645 3428 
Q 1925 3584 2291 3584 
Q 2894 3584 3203 3211 
Q 3513 2838 3513 2113 
z
" transform="scale(0.015625)"/>
       <path id="DejaVuSans-29" d="M 513 4856 
L 1013 4856 
Q 1481 4119 1714 3412 
Q 1947 2706 1947 2009 
Q 1947 1309 1714 600 
Q 1481 -109 1013 -844 
L 513 -844 
Q 928 -128 1133 580 
Q 1338 1288 1338 2009 
Q 1338 2731 1133 3434 
Q 928 4138 513 4856 
z
" transform="scale(0.015625)"/>
      </defs>
      <use xlink:href="#DejaVuSans-6c"/>
      <use xlink:href="#DejaVuSans-6f" x="27.783203"/>
      <use xlink:href="#DejaVuSans-67" x="88.964844"/>
      <use xlink:href="#DejaVuSans-31" x="152.441406"/>
      <use xlink:href="#DejaVuSans-30" x="216.064453"/>
      <use xlink:href="#DejaVuSans-28" x="279.6875"/>
      <use xlink:href="#DejaVuSans-23" x="318.701172"/>
      <use xlink:href="#DejaVuSans-20" x="402.490234"/>
      <use xlink:href="#DejaVuSans-66" x="434.277344"/>
      <use xlink:href="#DejaVuSans-2d" x="463.982422"/>
      <use xlink:href="#DejaVuSans-65" x="500.066406"/>
      <use xlink:href="#DejaVuSans-76" x="561.589844"/>
      <use xlink:href="#DejaVuSans-61" x="620.769531"/>
      <use xlink:href="#DejaVuSans-6c" x="682.048828"/>
      <use xlink:href="#DejaVuSans-73" x="709.832031"/>
      <use xlink:href="#DejaVuSans-20" x="761.931641"/>
      <use xlink:href="#DejaVuSans-2f" x="793.71875"/>
      <use xlink:href="#DejaVuSans-20" x="827.410156"/>
      <use xlink:href="#DejaVuSans-64" x="859.197266"/>
      <use xlink:href="#DejaVuSans-69" x="922.673828"/>
      <use xlink:href="#DejaVuSans-6d" x="950.457031"/>
      <use xlink:href="#DejaVuSans-65" x="1047.869141"/>
      <use xlink:href="#DejaVuSans-6e" x="1109.392578"/>
      <use xlink:href="#DejaVuSans-73" x="1172.771484"/>
      <use xlink:href="#DejaVuSans-69" x="1224.871094"/>
      <use xlink:href="#DejaVuSans-6f" x="1252.654297"/>
      <use xlink:href="#DejaVuSans-6e" x="1313.835938"/>
      <use xlink:href="#DejaVuSans-29" x="1377.214844"/>
     </g>
    </g>
   </g>
   <g id="matplotlib.axis_2">
    <g id="ytick_1">
     <g id="line2d_21">
      <path d="M 57.6 298.944 
L 360.8064 298.944 
" clip-path="url(#p1451aa6045)" style="fill: none; stroke: #b0b0b0; stroke-width: 0.8; stroke-linecap: square"/>
     </g>
     <g id="line2d_22">
      <defs>
       <path id="md5b37ac52a" d="M 0 0 
L -3.5 0 
" style="stroke: #000000; stroke-width: 0.8"/>
      </defs>
      <g>
       <use xlink:href="#md5b37ac52a" x="57.6" y="298.944" style="stroke: #000000; stroke-width: 0.8"/>
      </g>
     </g>
     <g id="text_6">
      <!-- 0.0 -->
      <g transform="translate(25.155 305.02275) scale(0.16 -0.16)">
       <defs>
        <path id="DejaVuSans-2e" d="M 684 794 
L 1344 794 
L 1344 0 
L 684 0 
L 684 794 
z
" transform="scale(0.015625)"/>
       </defs>
       <use xlink:href="#DejaVuSans-30"/>
       <use xlink:href="#DejaVuSans-2e" x="63.623047"/>
       <use xlink:href="#DejaVuSans-30" x="95.410156"/>
      </g>
     </g>
    </g>
    <g id="ytick_2">
     <g id="line2d_23">
      <path d="M 57.6 240.5376 
L 360.8064 240.5376 
" clip-path="url(#p1451aa6045)" style="fill: none; stroke: #b0b0b0; stroke-width: 0.8; stroke-linecap: square"/>
     </g>
     <g id="line2d_24">
      <g>
       <use xlink:href="#md5b37ac52a" x="57.6" y="240.5376" style="stroke: #000000; stroke-width: 0.8"/>
      </g>
     </g>
     <g id="text_7">
      <!-- 0.2 -->
      <g transform="translate(25.155 246.61635) scale(0.16 -0.16)">
       <use xlink:href="#DejaVuSans-30"/>
       <use xlink:href="#DejaVuSans-2e" x="63.623047"/>
       <use xlink:href="#DejaVuSans-32" x="95.410156"/>
      </g>
     </g>
    </g>
    <g id="ytick_3">
     <g id="line2d_25">
      <path d="M 57.6 182.1312 
L 360.8064 182.1312 
" clip-path="url(#p1451aa6045)" style="fill: none; stroke: #b0b0b0; stroke-width: 0.8; stroke-linecap: square"/>
     </g>
     <g id="line2d_26">
      <g>
       <use xlink:href="#md5b37ac52a" x="57.6" y="182.1312" style="stroke: #000000; stroke-width: 0.8"/>
      </g>
     </g>
     <g id="text_8">
      <!-- 0.4 -->
      <g transform="translate(25.155 188.20995) scale(0.16 -0.16)">
       <use xlink:href="#DejaVuSans-30"/>
       <use xlink:href="#DejaVuSans-2e" x="63.623047"/>
       <use xlink:href="#DejaVuSans-34" x="95.410156"/>
      </g>
     </g>
    </g>
    <g id="ytick_4">
     <g id="line2d_27">
      <path d="M 57.6 123.7248 
L 360.8064 123.7248 
" clip-path="url(#p1451aa6045)" style="fill: none; stroke: #b0b0b0; stroke-width: 0.8; stroke-linecap: square"/>
     </g>
     <g id="line2d_28">
      <g>
       <use xlink:href="#md5b37ac52a" x="57.6" y="123.7248" style="stroke: #000000; stroke-width: 0.8"/>
      </g>
     </g>
     <g id="text_9">
      <!-- 0.6 -->
      <g transform="translate(25.155 129.80355) scale(0.16 -0.16)">
       <use xlink:href="#DejaVuSans-30"/>
       <use xlink:href="#DejaVuSans-2e" x="63.623047"/>
       <use xlink:href="#DejaVuSans-36" x="95.410156"/>
      </g>
     </g>
    </g>
    <g id="ytick_5">
     <g id="line2d_29">
      <path d="M 57.6 65.3184 
L 360.8064 65.3184 
" clip-path="url(#p1451aa6045)" style="fill: none; stroke: #b0b0b0; stroke-width: 0.8; stroke-linecap: square"/>
     </g>
     <g id="line2d_30">
      <g>
       <use xlink:href="#md5b37ac52a" x="57.6" y="65.3184" style="stroke: #000000; stroke-width: 0.8"/>
      </g>
     </g>
     <g id="text_10">
      <!-- 0.8 -->
      <g transform="translate(25.155 71.39715) scale(0.16 -0.16)">
       <defs>
        <path id="DejaVuSans-38" d="M 2034 2216 
Q 1584 2216 1326 1975 
Q 1069 1734 1069 1313 
Q 1069 891 1326 650 
Q 1584 409 2034 409 
Q 2484 409 2743 651 
Q 3003 894 3003 1313 
Q 3003 1734 2745 1975 
Q 2488 2216 2034 2216 
z
M 1403 2484 
Q 997 2584 770 2862 
Q 544 3141 544 3541 
Q 544 4100 942 4425 
Q 1341 4750 2034 4750 
Q 2731 4750 3128 4425 
Q 3525 4100 3525 3541 
Q 3525 3141 3298 2862 
Q 3072 2584 2669 2484 
Q 3125 2378 3379 2068 
Q 3634 1759 3634 1313 
Q 3634 634 3220 271 
Q 2806 -91 2034 -91 
Q 1263 -91 848 271 
Q 434 634 434 1313 
Q 434 1759 690 2068 
Q 947 2378 1403 2484 
z
M 1172 3481 
Q 1172 3119 1398 2916 
Q 1625 2713 2034 2713 
Q 2441 2713 2670 2916 
Q 2900 3119 2900 3481 
Q 2900 3844 2670 4047 
Q 2441 4250 2034 4250 
Q 1625 4250 1398 4047 
Q 1172 3844 1172 3481 
z
" transform="scale(0.015625)"/>
       </defs>
       <use xlink:href="#DejaVuSans-30"/>
       <use xlink:href="#DejaVuSans-2e" x="63.623047"/>
       <use xlink:href="#DejaVuSans-38" x="95.410156"/>
      </g>
     </g>
    </g>
    <g id="ytick_6">
     <g id="line2d_31">
      <path d="M 57.6 6.912 
L 360.8064 6.912 
" clip-path="url(#p1451aa6045)" style="fill: none; stroke: #b0b0b0; stroke-width: 0.8; stroke-linecap: square"/>
     </g>
     <g id="line2d_32">
      <g>
       <use xlink:href="#md5b37ac52a" x="57.6" y="6.912" style="stroke: #000000; stroke-width: 0.8"/>
      </g>
     </g>
     <g id="text_11">
      <!-- 1.0 -->
      <g transform="translate(25.155 12.99075) scale(0.16 -0.16)">
       <use xlink:href="#DejaVuSans-31"/>
       <use xlink:href="#DejaVuSans-2e" x="63.623047"/>
       <use xlink:href="#DejaVuSans-30" x="95.410156"/>
      </g>
     </g>
    </g>
    <g id="text_12">
     <!-- Fraction of function,target pairs -->
     <g transform="translate(17.619531 287.313) rotate(-90) scale(0.17 -0.17)">
      <defs>
       <path id="DejaVuSans-46" d="M 628 4666 
L 3309 4666 
L 3309 4134 
L 1259 4134 
L 1259 2759 
L 3109 2759 
L 3109 2228 
L 1259 2228 
L 1259 0 
L 628 0 
L 628 4666 
z
" transform="scale(0.015625)"/>
       <path id="DejaVuSans-72" d="M 2631 2963 
Q 2534 3019 2420 3045 
Q 2306 3072 2169 3072 
Q 1681 3072 1420 2755 
Q 1159 2438 1159 1844 
L 1159 0 
L 581 0 
L 581 3500 
L 1159 3500 
L 1159 2956 
Q 1341 3275 1631 3429 
Q 1922 3584 2338 3584 
Q 2397 3584 2469 3576 
Q 2541 3569 2628 3553 
L 2631 2963 
z
" transform="scale(0.015625)"/>
       <path id="DejaVuSans-63" d="M 3122 3366 
L 3122 2828 
Q 2878 2963 2633 3030 
Q 2388 3097 2138 3097 
Q 1578 3097 1268 2742 
Q 959 2388 959 1747 
Q 959 1106 1268 751 
Q 1578 397 2138 397 
Q 2388 397 2633 464 
Q 2878 531 3122 666 
L 3122 134 
Q 2881 22 2623 -34 
Q 2366 -91 2075 -91 
Q 1284 -91 818 406 
Q 353 903 353 1747 
Q 353 2603 823 3093 
Q 1294 3584 2113 3584 
Q 2378 3584 2631 3529 
Q 2884 3475 3122 3366 
z
" transform="scale(0.015625)"/>
       <path id="DejaVuSans-74" d="M 1172 4494 
L 1172 3500 
L 2356 3500 
L 2356 3053 
L 1172 3053 
L 1172 1153 
Q 1172 725 1289 603 
Q 1406 481 1766 481 
L 2356 481 
L 2356 0 
L 1766 0 
Q 1100 0 847 248 
Q 594 497 594 1153 
L 594 3053 
L 172 3053 
L 172 3500 
L 594 3500 
L 594 4494 
L 1172 4494 
z
" transform="scale(0.015625)"/>
       <path id="DejaVuSans-75" d="M 544 1381 
L 544 3500 
L 1119 3500 
L 1119 1403 
Q 1119 906 1312 657 
Q 1506 409 1894 409 
Q 2359 409 2629 706 
Q 2900 1003 2900 1516 
L 2900 3500 
L 3475 3500 
L 3475 0 
L 2900 0 
L 2900 538 
Q 2691 219 2414 64 
Q 2138 -91 1772 -91 
Q 1169 -91 856 284 
Q 544 659 544 1381 
z
M 1991 3584 
L 1991 3584 
z
" transform="scale(0.015625)"/>
       <path id="DejaVuSans-2c" d="M 750 794 
L 1409 794 
L 1409 256 
L 897 -744 
L 494 -744 
L 750 256 
L 750 794 
z
" transform="scale(0.015625)"/>
       <path id="DejaVuSans-70" d="M 1159 525 
L 1159 -1331 
L 581 -1331 
L 581 3500 
L 1159 3500 
L 1159 2969 
Q 1341 3281 1617 3432 
Q 1894 3584 2278 3584 
Q 2916 3584 3314 3078 
Q 3713 2572 3713 1747 
Q 3713 922 3314 415 
Q 2916 -91 2278 -91 
Q 1894 -91 1617 61 
Q 1341 213 1159 525 
z
M 3116 1747 
Q 3116 2381 2855 2742 
Q 2594 3103 2138 3103 
Q 1681 3103 1420 2742 
Q 1159 2381 1159 1747 
Q 1159 1113 1420 752 
Q 1681 391 2138 391 
Q 2594 391 2855 752 
Q 3116 1113 3116 1747 
z
" transform="scale(0.015625)"/>
      </defs>
      <use xlink:href="#DejaVuSans-46"/>
      <use xlink:href="#DejaVuSans-72" x="50.269531"/>
      <use xlink:href="#DejaVuSans-61" x="91.382812"/>
      <use xlink:href="#DejaVuSans-63" x="152.662109"/>
      <use xlink:href="#DejaVuSans-74" x="207.642578"/>
      <use xlink:href="#DejaVuSans-69" x="246.851562"/>
      <use xlink:href="#DejaVuSans-6f" x="274.634766"/>
      <use xlink:href="#DejaVuSans-6e" x="335.816406"/>
      <use xlink:href="#DejaVuSans-20" x="399.195312"/>
      <use xlink:href="#DejaVuSans-6f" x="430.982422"/>
      <use xlink:href="#DejaVuSans-66" x="492.164062"/>
      <use xlink:href="#DejaVuSans-20" x="527.369141"/>
      <use xlink:href="#DejaVuSans-66" x="559.15625"/>
      <use xlink:href="#DejaVuSans-75" x="594.361328"/>
      <use xlink:href="#DejaVuSans-6e" x="657.740234"/>
      <use xlink:href="#DejaVuSans-63" x="721.119141"/>
      <use xlink:href="#DejaVuSans-74" x="776.099609"/>
      <use xlink:href="#DejaVuSans-69" x="815.308594"/>
      <use xlink:href="#DejaVuSans-6f" x="843.091797"/>
      <use xlink:href="#DejaVuSans-6e" x="904.273438"/>
      <use xlink:href="#DejaVuSans-2c" x="967.652344"/>
      <use xlink:href="#DejaVuSans-74" x="999.439453"/>
      <use xlink:href="#DejaVuSans-61" x="1038.648438"/>
      <use xlink:href="#DejaVuSans-72" x="1099.927734"/>
      <use xlink:href="#DejaVuSans-67" x="1139.291016"/>
      <use xlink:href="#DejaVuSans-65" x="1202.767578"/>
      <use xlink:href="#DejaVuSans-74" x="1264.291016"/>
      <use xlink:href="#DejaVuSans-20" x="1303.5"/>
      <use xlink:href="#DejaVuSans-70" x="1335.287109"/>
      <use xlink:href="#DejaVuSans-61" x="1398.763672"/>
      <use xlink:href="#DejaVuSans-69" x="1460.042969"/>
      <use xlink:href="#DejaVuSans-72" x="1487.826172"/>
      <use xlink:href="#DejaVuSans-73" x="1528.939453"/>
     </g>
    </g>
   </g>
   <g id="line2d_33">
    <defs>
     <path id="mae4d41f04b" d="M 0 1.5 
C 0.397805 1.5 0.77937 1.341951 1.06066 1.06066 
C 1.341951 0.77937 1.5 0.397805 1.5 0 
C 1.5 -0.397805 1.341951 -0.77937 1.06066 -1.06066 
C 0.77937 -1.341951 0.397805 -1.5 0 -1.5 
C -0.397805 -1.5 -0.77937 -1.341951 -1.06066 -1.06066 
C -1.341951 -0.77937 -1.5 -0.397805 -1.5 0 
C -1.5 0.397805 -1.341951 0.77937 -1.06066 1.06066 
C -0.77937 1.341951 -0.397805 1.5 0 1.5 
z
" style="stroke: #f5deb3"/>
    </defs>
    <g>
     <use xlink:href="#mae4d41f04b" x="291.465832" y="42.157241" style="fill: #f5deb3; stroke: #f5deb3"/>
     <use xlink:href="#mae4d41f04b" x="291.465832" y="42.157241" style="fill: #f5deb3; stroke: #f5deb3"/>
    </g>
   </g>
   <g id="line2d_34">
    <defs>
     <path id="mdbf3691cef" d="M 0 1.5 
C 0.397805 1.5 0.77937 1.341951 1.06066 1.06066 
C 1.341951 0.77937 1.5 0.397805 1.5 0 
C 1.5 -0.397805 1.341951 -0.77937 1.06066 -1.06066 
C 0.77937 -1.341951 0.397805 -1.5 0 -1.5 
C -0.397805 -1.5 -0.77937 -1.341951 -1.06066 -1.06066 
C -1.341951 -0.77937 -1.5 -0.397805 -1.5 0 
C -1.5 0.397805 -1.341951 0.77937 -1.06066 1.06066 
C -0.77937 1.341951 -0.397805 1.5 0 1.5 
z
" style="stroke: #000080"/>
    </defs>
    <g>
     <use xlink:href="#mdbf3691cef" x="187.255559" y="189.809628" style="fill: #000080; stroke: #000080"/>
     <use xlink:href="#mdbf3691cef" x="187.255559" y="189.809628" style="fill: #000080; stroke: #000080"/>
    </g>
   </g>
   <g id="line2d_35">
    <path d="M 14.2848 298.944 
L 14.2848 288.622179 
L 27.323974 288.622179 
L 27.323974 288.496303 
L 62.535479 288.496303 
L 62.535479 287.615172 
L 81.166416 287.615172 
L 81.166416 287.363421 
L 93.66029 287.363421 
L 93.66029 286.985793 
L 96.480897 286.985793 
L 96.480897 286.734041 
L 101.102381 286.734041 
L 101.102381 286.356414 
L 103.047088 286.356414 
L 103.047088 285.85291 
L 104.809458 285.85291 
L 104.809458 285.727034 
L 107.904887 285.727034 
L 107.904887 285.475283 
L 110.562208 285.475283 
L 110.562208 285.349407 
L 112.890198 285.349407 
L 112.890198 285.223531 
L 113.954374 285.223531 
L 113.954374 285.097655 
L 114.961559 285.097655 
L 114.961559 284.845903 
L 116.827295 284.845903 
L 116.827295 284.720028 
L 117.695068 284.720028 
L 117.695068 284.468276 
L 118.524569 284.468276 
L 118.524569 284.216524 
L 119.319033 284.216524 
L 119.319033 284.090648 
L 120.0813 284.090648 
L 120.0813 283.838897 
L 121.518993 283.838897 
L 121.518993 283.587145 
L 123.4884 283.587145 
L 123.4884 283.335393 
L 124.101572 283.335393 
L 124.101572 283.209517 
L 124.695386 283.209517 
L 124.695386 282.83189 
L 125.271028 282.83189 
L 125.271028 282.454262 
L 125.829577 282.454262 
L 125.829577 282.076634 
L 126.372018 282.076634 
L 126.372018 281.950759 
L 126.899255 281.950759 
L 126.899255 281.447255 
L 127.412117 281.447255 
L 127.412117 281.195503 
L 128.39771 281.195503 
L 128.39771 281.069628 
L 128.871795 281.069628 
L 128.871795 280.817876 
L 129.334225 280.817876 
L 129.334225 279.684993 
L 129.78556 279.684993 
L 129.78556 279.055614 
L 130.656987 279.055614 
L 130.656987 278.677986 
L 131.078016 278.677986 
L 131.078016 278.55211 
L 131.489828 278.55211 
L 131.489828 278.300359 
L 131.892817 278.300359 
L 131.892817 277.670979 
L 132.287354 277.670979 
L 132.287354 277.167476 
L 132.673786 277.167476 
L 132.673786 276.789848 
L 133.05244 276.789848 
L 133.05244 276.160469 
L 133.423621 276.160469 
L 133.423621 275.656966 
L 133.78762 275.656966 
L 133.78762 275.53109 
L 134.14471 275.53109 
L 134.14471 275.153462 
L 134.495147 275.153462 
L 134.495147 274.775834 
L 134.839175 274.775834 
L 134.839175 274.649959 
L 135.177024 274.649959 
L 135.177024 274.272331 
L 135.508912 274.272331 
L 135.508912 273.894703 
L 135.835047 273.894703 
L 135.835047 273.3912 
L 136.155623 273.3912 
L 136.155623 272.887697 
L 136.470828 272.887697 
L 136.470828 272.510069 
L 136.780838 272.510069 
L 136.780838 272.132441 
L 137.085822 272.132441 
L 137.085822 271.88069 
L 137.38594 271.88069 
L 137.38594 271.628938 
L 137.681345 271.628938 
L 137.681345 271.377186 
L 137.972183 271.377186 
L 137.972183 271.25131 
L 138.258593 271.25131 
L 138.258593 270.873683 
L 138.540708 270.873683 
L 138.540708 270.621931 
L 138.818654 270.621931 
L 138.818654 270.496055 
L 139.092553 270.496055 
L 139.092553 270.118428 
L 139.362521 270.118428 
L 139.362521 269.614924 
L 139.628669 269.614924 
L 139.628669 269.237297 
L 139.891105 269.237297 
L 139.891105 268.859669 
L 140.14993 268.859669 
L 140.14993 268.104414 
L 140.405242 268.104414 
L 140.405242 267.60091 
L 140.657135 267.60091 
L 140.657135 267.475034 
L 140.905699 267.475034 
L 140.905699 267.349159 
L 141.151022 267.349159 
L 141.151022 267.097407 
L 141.393187 267.097407 
L 141.393187 266.593903 
L 141.632274 266.593903 
L 141.632274 266.468028 
L 141.868361 266.468028 
L 141.868361 265.209269 
L 142.331827 265.209269 
L 142.331827 264.831641 
L 142.559347 264.831641 
L 142.559347 264.705766 
L 142.784148 264.705766 
L 142.784148 264.454014 
L 143.006295 264.454014 
L 143.006295 264.328138 
L 143.225848 264.328138 
L 143.225848 264.202262 
L 143.657415 264.202262 
L 143.657415 263.572883 
L 143.869541 263.572883 
L 143.869541 263.321131 
L 144.079302 263.321131 
L 144.079302 262.943503 
L 144.28675 262.943503 
L 144.28675 262.565876 
L 144.491935 262.565876 
L 144.491935 262.314124 
L 144.694906 262.314124 
L 144.694906 261.810621 
L 144.895711 261.810621 
L 144.895711 261.684745 
L 145.094395 261.684745 
L 145.094395 261.432993 
L 145.291002 261.432993 
L 145.291002 261.055366 
L 145.485575 261.055366 
L 145.485575 260.677738 
L 145.678157 260.677738 
L 145.678157 260.425986 
L 146.057504 260.425986 
L 146.057504 260.30011 
L 146.244347 260.30011 
L 146.244347 260.174234 
L 146.793994 260.174234 
L 146.793994 260.048359 
L 146.973697 260.048359 
L 146.973697 259.796607 
L 147.502732 259.796607 
L 147.502732 259.544855 
L 147.675821 259.544855 
L 147.675821 259.167228 
L 147.847333 259.167228 
L 147.847333 258.7896 
L 148.017294 258.7896 
L 148.017294 258.663724 
L 148.185734 258.663724 
L 148.185734 258.411972 
L 148.352679 258.411972 
L 148.352679 258.160221 
L 148.518156 258.160221 
L 148.518156 257.782593 
L 148.68219 257.782593 
L 148.68219 257.656717 
L 148.844805 257.656717 
L 148.844805 256.775586 
L 149.165879 256.775586 
L 149.165879 256.397959 
L 149.481565 256.397959 
L 149.481565 256.146207 
L 149.637443 256.146207 
L 149.637443 255.768579 
L 149.79204 255.768579 
L 149.79204 255.642703 
L 149.945377 255.642703 
L 149.945377 255.516828 
L 150.097474 255.516828 
L 150.097474 255.1392 
L 150.248351 255.1392 
L 150.248351 255.013324 
L 150.398028 255.013324 
L 150.398028 254.761572 
L 150.693856 254.761572 
L 150.693856 254.258069 
L 150.840043 254.258069 
L 150.840043 254.006317 
L 151.129053 254.006317 
L 151.129053 253.880441 
L 151.27191 253.880441 
L 151.27191 253.502814 
L 151.97036 253.502814 
L 151.97036 253.251062 
L 152.106991 253.251062 
L 152.106991 252.99931 
L 152.242637 252.99931 
L 152.242637 252.495807 
L 152.775647 252.495807 
L 152.775647 251.992303 
L 153.036593 251.992303 
L 153.036593 251.866428 
L 153.165721 251.866428 
L 153.165721 251.614676 
L 153.798392 251.614676 
L 153.798392 251.362924 
L 154.04562 251.362924 
L 154.04562 250.985297 
L 154.289641 250.985297 
L 154.289641 250.355917 
L 154.649839 250.355917 
L 154.649839 250.104166 
L 154.768388 250.104166 
L 154.768388 249.726538 
L 154.886195 249.726538 
L 154.886195 248.971283 
L 155.119618 248.971283 
L 155.119618 248.719531 
L 155.464411 248.719531 
L 155.464411 248.216028 
L 155.577951 248.216028 
L 155.577951 248.090152 
L 155.690811 248.090152 
L 155.690811 247.964276 
L 155.914518 247.964276 
L 156.025382 247.586648 
L 156.135597 247.586648 
L 156.245169 246.579641 
L 156.354107 246.579641 
L 156.462418 245.69851 
L 156.677186 245.69851 
L 156.677186 245.572634 
L 156.88953 245.572634 
L 156.99481 245.195007 
L 157.203619 245.195007 
L 157.203619 244.943255 
L 157.410135 244.943255 
L 157.410135 244.565628 
L 157.715719 244.565628 
L 157.715719 244.313876 
L 157.916719 244.313876 
L 158.016419 243.936248 
L 158.214248 243.936248 
L 158.214248 243.180993 
L 158.410018 243.180993 
L 158.410018 242.803366 
L 158.603771 242.803366 
L 158.603771 242.67749 
L 158.79555 242.67749 
L 158.79555 242.551614 
L 158.985393 242.551614 
L 158.985393 242.425738 
L 159.173339 242.425738 
L 159.173339 242.173986 
L 159.451784 242.173986 
L 159.54369 241.922234 
L 159.63515 241.922234 
L 159.726167 241.292855 
L 159.816746 241.292855 
L 159.816746 241.166979 
L 159.996606 241.166979 
L 160.085895 240.663476 
L 160.438872 240.663476 
L 160.526092 240.285848 
L 160.87098 240.285848 
L 160.956223 239.782345 
L 161.209658 239.782345 
L 161.209658 239.404717 
L 161.376738 239.404717 
L 161.459725 238.901214 
L 161.542347 238.901214 
L 161.624608 238.39771 
L 161.706511 238.39771 
L 161.788059 237.768331 
L 161.950101 237.768331 
L 162.030602 237.138952 
L 162.11076 237.138952 
L 162.190578 236.761324 
L 162.270058 236.761324 
L 162.349204 236.257821 
L 162.428019 236.257821 
L 162.506504 236.006069 
L 162.6625 236.006069 
L 162.6625 235.754317 
L 162.817213 235.754317 
L 162.817213 235.628441 
L 162.970663 235.628441 
L 162.970663 235.37669 
L 163.198517 235.37669 
L 163.27386 235.124938 
L 163.348901 235.124938 
L 163.348901 234.873186 
L 163.498092 234.873186 
L 163.572247 234.621434 
L 163.865975 234.621434 
L 163.865975 234.495559 
L 164.298142 234.495559 
L 164.369214 233.866179 
L 164.510559 233.866179 
L 164.580835 233.614428 
L 164.650849 233.614428 
L 164.720604 232.607421 
L 164.859342 232.607421 
L 164.859342 232.355669 
L 165.065549 232.355669 
L 165.065549 231.852166 
L 165.269521 231.852166 
L 165.269521 231.72629 
L 165.404283 231.72629 
L 165.404283 231.600414 
L 165.538087 231.600414 
L 165.604634 231.09691 
L 165.737026 231.09691 
L 165.802874 230.719283 
L 165.868492 230.719283 
L 165.868492 230.467531 
L 165.999046 230.467531 
L 166.063985 230.215779 
L 166.1287 230.215779 
L 166.193193 229.712276 
L 166.257466 229.712276 
L 166.321521 229.208772 
L 166.385358 229.208772 
L 166.448979 228.831145 
L 166.826251 228.831145 
L 166.826251 228.579393 
L 166.950346 228.579393 
L 166.950346 228.327641 
L 167.073627 228.327641 
L 167.073627 228.201766 
L 167.498859 228.201766 
L 167.558829 227.44651 
L 167.618609 227.44651 
L 167.678199 226.943007 
L 167.796816 226.943007 
L 167.855845 226.565379 
L 167.91469 226.565379 
L 167.973351 225.936 
L 168.03183 225.936 
L 168.090128 225.432497 
L 168.148245 225.432497 
L 168.206184 224.928993 
L 168.263944 224.928993 
L 168.321528 224.299614 
L 168.436169 224.299614 
L 168.436169 224.173738 
L 168.663377 224.173738 
L 168.663377 224.047862 
L 168.77596 224.047862 
L 168.77596 223.79611 
L 168.943582 223.79611 
L 168.943582 223.418483 
L 169.164778 223.418483 
L 169.219673 222.914979 
L 169.328985 222.914979 
L 169.328985 222.663228 
L 169.706651 222.663228 
L 169.813178 222.159724 
L 169.971845 222.159724 
L 170.076884 221.656221 
L 170.18134 221.656221 
L 170.18134 221.404469 
L 170.491273 221.404469 
L 170.491273 221.152717 
L 170.644345 221.152717 
L 170.644345 220.77509 
L 170.796182 220.77509 
L 170.846523 220.14571 
L 171.145773 220.14571 
L 171.195189 219.390455 
L 171.342661 219.390455 
L 171.440338 218.6352 
L 171.488986 218.6352 
L 171.537509 217.502317 
L 171.634182 217.502317 
L 171.73036 216.998814 
L 171.778266 216.998814 
L 171.778266 216.747062 
L 171.968676 216.747062 
L 172.063164 216.117683 
L 172.11023 216.117683 
L 172.11023 215.865931 
L 172.343812 215.865931 
L 172.343812 215.614179 
L 172.482581 215.614179 
L 172.482581 215.488303 
L 172.711612 215.488303 
L 172.802449 214.9848 
L 172.89285 214.9848 
L 172.89285 214.481297 
L 173.027642 214.481297 
L 173.11697 213.851917 
L 173.161475 213.851917 
L 173.250171 213.348414 
L 173.33845 213.348414 
L 173.33845 213.096662 
L 173.470098 213.096662 
L 173.557354 212.593159 
L 173.60083 212.593159 
L 173.60083 212.341407 
L 173.859601 212.341407 
L 173.945073 211.837903 
L 174.030158 211.837903 
L 174.072557 211.3344 
L 174.157069 211.3344 
L 174.199183 210.956772 
L 174.324962 210.956772 
L 174.324962 210.705021 
L 174.449906 210.705021 
L 174.49137 210.201517 
L 174.615217 210.201517 
L 174.615217 209.949766 
L 174.860492 209.949766 
L 174.860492 209.698014 
L 174.98194 209.698014 
L 174.98194 209.572138 
L 175.10261 209.572138 
L 175.142661 209.19451 
L 175.262307 209.19451 
L 175.341651 208.187503 
L 175.420661 208.187503 
L 175.420661 208.061628 
L 175.577692 208.061628 
L 175.616746 207.684 
L 175.733424 207.684 
L 175.733424 207.558124 
L 175.849382 207.558124 
L 175.887877 206.802869 
L 175.96463 206.802869 
L 176.00289 206.425241 
L 176.381266 206.425241 
L 176.418689 205.669986 
L 176.493311 205.669986 
L 176.493311 205.418234 
L 176.641673 205.418234 
L 176.752182 204.914731 
L 176.898524 204.914731 
L 176.898524 204.788855 
L 177.043737 204.788855 
L 177.043737 204.662979 
L 177.401939 204.662979 
L 177.437387 204.411228 
L 177.683669 204.411228 
L 177.753447 203.530097 
L 177.961242 203.530097 
L 177.995653 203.152469 
L 178.234779 203.152469 
L 178.336339 202.271338 
L 178.403742 202.271338 
L 178.504396 201.89371 
L 178.537828 201.89371 
L 178.637769 201.264331 
L 178.967121 201.264331 
L 179.064813 200.634952 
L 179.097265 200.634952 
L 179.162 199.627945 
L 179.226514 199.627945 
L 179.322871 199.376193 
L 179.354881 199.376193 
L 179.450585 198.87269 
L 179.609017 198.87269 
L 179.672018 198.369186 
L 179.859766 198.369186 
L 179.890875 197.991559 
L 180.472392 197.991559 
L 180.56259 197.739807 
L 180.860161 197.739807 
L 180.860161 197.362179 
L 181.0072 197.362179 
L 181.0072 197.110428 
L 181.182144 197.110428 
L 181.182144 196.984552 
L 181.498707 196.984552 
L 181.498707 196.7328 
L 181.640858 196.7328 
L 181.640858 196.481048 
L 181.753809 196.481048 
L 181.753809 196.355172 
L 182.005498 196.355172 
L 182.116288 195.599917 
L 182.171439 195.599917 
L 182.281259 195.348166 
L 182.335929 195.348166 
L 182.363205 194.970538 
L 182.606923 194.970538 
L 182.660656 194.467034 
L 182.847523 194.467034 
L 182.953477 193.963531 
L 182.979872 193.963531 
L 183.032553 193.585903 
L 183.75499 193.585903 
L 183.855967 193.0824 
L 184.106064 193.0824 
L 184.106064 192.956524 
L 184.254541 192.956524 
L 184.254541 192.704772 
L 184.450706 192.704772 
L 184.450706 192.453021 
L 184.837003 192.453021 
L 184.837003 192.327145 
L 185.074471 192.327145 
L 185.168625 191.949517 
L 185.215526 191.949517 
L 185.215526 191.697766 
L 185.33227 191.697766 
L 185.33227 191.57189 
L 185.723864 191.57189 
L 185.723864 191.320138 
L 186.017913 191.320138 
L 186.085122 190.816634 
L 186.307436 190.816634 
L 186.307436 190.564883 
L 186.461507 190.564883 
L 186.527153 190.061379 
L 187.150193 190.061379 
L 187.255559 189.809628 
L 360.8064 189.809628 
L 360.8064 189.809628 
" style="fill: none; stroke: #000080; stroke-width: 1.5; stroke-linecap: square"/>
   </g>
   <g id="line2d_36">
    <defs>
     <path id="mb8430ac7d5" d="M 0 6 
C 1.591219 6 3.117479 5.367802 4.242641 4.242641 
C 5.367802 3.117479 6 1.591219 6 0 
C 6 -1.591219 5.367802 -3.117479 4.242641 -4.242641 
C 3.117479 -5.367802 1.591219 -6 0 -6 
C -1.591219 -6 -3.117479 -5.367802 -4.242641 -4.242641 
C -5.367802 -3.117479 -6 -1.591219 -6 0 
C -6 1.591219 -5.367802 3.117479 -4.242641 4.242641 
C -3.117479 5.367802 -1.591219 6 0 6 
z
" style="stroke: #000080; stroke-width: 1.5"/>
    </defs>
    <g>
     <use xlink:href="#mb8430ac7d5" x="121.518993" y="283.587145" style="fill-opacity: 0; stroke: #000080; stroke-width: 1.5"/>
     <use xlink:href="#mb8430ac7d5" x="178.537828" y="201.89371" style="fill-opacity: 0; stroke: #000080; stroke-width: 1.5"/>
     <use xlink:href="#mb8430ac7d5" x="187.255559" y="189.935503" style="fill-opacity: 0; stroke: #000080; stroke-width: 1.5"/>
     <use xlink:href="#mb8430ac7d5" x="187.255559" y="189.809628" style="fill-opacity: 0; stroke: #000080; stroke-width: 1.5"/>
     <use xlink:href="#mb8430ac7d5" x="187.255559" y="189.809628" style="fill-opacity: 0; stroke: #000080; stroke-width: 1.5"/>
     <use xlink:href="#mb8430ac7d5" x="360.8064" y="189.809628" style="fill-opacity: 0; stroke: #000080; stroke-width: 1.5"/>
    </g>
   </g>
   <g id="line2d_37">
    <path style="fill: none; stroke: #000080; stroke-width: 1.5; stroke-linecap: square"/>
    <g/>
   </g>
   <g id="line2d_38">
    <path d="M 187.5456 189.809628 
" clip-path="url(#p1451aa6045)" style="fill: none; stroke: #000080; stroke-width: 1.5; stroke-linecap: square"/>
    <defs>
     <path id="m9726400a54" d="M -12 12 
L 12 -12 
M -12 -12 
L 12 12 
" style="stroke: #000080"/>
    </defs>
    <g clip-path="url(#p1451aa6045)">
     <use xlink:href="#m9726400a54" x="187.5456" y="189.809628" style="fill: #000080; stroke: #000080"/>
    </g>
   </g>
   <g id="line2d_39">
    <defs>
     <path id="m76affde2ba" d="M 0 1.5 
C 0.397805 1.5 0.77937 1.341951 1.06066 1.06066 
C 1.341951 0.77937 1.5 0.397805 1.5 0 
C 1.5 -0.397805 1.341951 -0.77937 1.06066 -1.06066 
C 0.77937 -1.341951 0.397805 -1.5 0 -1.5 
C -0.397805 -1.5 -0.77937 -1.341951 -1.06066 -1.06066 
C -1.341951 -0.77937 -1.5 -0.397805 -1.5 0 
C -1.5 0.397805 -1.341951 0.77937 -1.06066 1.06066 
C -0.77937 1.341951 -0.397805 1.5 0 1.5 
z
" style="stroke: #ff00ff"/>
    </defs>
    <g>
     <use xlink:href="#m76affde2ba" x="186.894881" y="181.250069" style="fill: #ff00ff; stroke: #ff00ff"/>
     <use xlink:href="#m76affde2ba" x="186.894881" y="181.250069" style="fill: #ff00ff; stroke: #ff00ff"/>
    </g>
   </g>
   <g id="line2d_40">
    <path d="M 14.2848 298.944 
L 14.2848 288.622179 
L 27.323974 288.622179 
L 27.323974 287.9928 
L 53.402323 287.9928 
L 53.402323 287.866924 
L 70.639174 287.866924 
L 70.639174 287.615172 
L 75.574654 287.615172 
L 75.574654 287.363421 
L 79.480672 287.363421 
L 79.480672 287.237545 
L 82.713442 287.237545 
L 82.713442 287.111669 
L 97.18203 287.111669 
L 97.18203 286.985793 
L 97.635342 286.985793 
L 97.635342 286.859917 
L 98.510456 286.859917 
L 98.510456 286.734041 
L 99.346662 286.734041 
L 99.346662 286.608166 
L 99.751228 286.608166 
L 99.751228 286.48229 
L 100.9152 286.48229 
L 100.9152 286.356414 
L 103.047088 286.356414 
L 103.047088 286.230538 
L 105.559021 286.230538 
L 105.559021 285.978786 
L 105.850679 285.978786 
L 105.850679 285.85291 
L 108.29012 285.85291 
L 108.29012 285.601159 
L 108.791791 285.601159 
L 108.791791 285.475283 
L 109.520071 285.475283 
L 109.520071 285.097655 
L 109.756698 285.097655 
L 109.756698 284.971779 
L 109.990385 284.971779 
L 109.990385 284.720028 
L 110.449226 284.720028 
L 110.449226 284.594152 
L 110.674517 284.594152 
L 110.674517 284.3424 
L 111.762192 284.3424 
L 111.762192 284.216524 
L 111.97238 284.216524 
L 111.97238 284.090648 
L 112.180244 284.090648 
L 112.180244 283.964772 
L 112.385837 283.964772 
L 112.385837 283.713021 
L 112.790402 283.713021 
L 112.890198 283.461269 
L 113.381389 283.461269 
L 113.478107 283.209517 
L 114.141556 283.209517 
L 114.141556 283.083641 
L 114.510421 283.083641 
L 114.510421 282.706014 
L 115.139028 282.706014 
L 115.139028 282.580138 
L 115.747307 282.580138 
L 115.747307 282.454262 
L 116.419219 282.454262 
L 116.419219 282.20251 
L 119.530006 282.20251 
L 119.530006 282.076634 
L 119.669351 282.076634 
L 119.669351 281.950759 
L 120.0813 281.950759 
L 120.0813 281.824883 
L 120.48442 281.824883 
L 120.550775 281.321379 
L 120.748446 281.321379 
L 120.748446 281.195503 
L 121.265635 281.195503 
L 121.265635 281.069628 
L 121.39274 281.069628 
L 121.39274 280.943752 
L 121.830966 280.943752 
L 121.830966 280.817876 
L 122.076872 280.817876 
L 122.13785 280.566124 
L 122.559246 280.566124 
L 122.559246 280.440248 
L 123.145323 280.440248 
L 123.145323 280.314372 
L 123.601383 280.314372 
L 123.601383 280.062621 
L 123.880906 280.062621 
L 123.880906 279.936745 
L 124.319679 279.936745 
L 124.319679 279.810869 
L 124.588805 279.810869 
L 124.642171 279.559117 
L 124.906754 279.559117 
L 125.011554 279.307366 
L 125.373824 279.307366 
L 125.373824 279.18149 
L 125.526971 279.18149 
L 125.526971 279.055614 
L 125.829577 279.055614 
L 125.829577 278.929738 
L 126.028642 278.929738 
L 126.028642 278.803862 
L 126.225624 278.803862 
L 126.323346 278.55211 
L 126.613505 278.55211 
L 126.661432 278.174483 
L 126.993549 278.174483 
L 127.040519 277.796855 
L 127.227236 277.796855 
L 127.227236 277.670979 
L 127.503881 277.670979 
L 127.503881 277.419228 
L 127.821575 277.419228 
L 127.866525 277.167476 
L 127.956104 277.167476 
L 127.956104 276.915724 
L 128.310214 276.915724 
L 128.310214 276.789848 
L 128.57149 276.789848 
L 128.57149 276.663972 
L 128.956723 276.663972 
L 128.956723 276.538097 
L 129.0834 276.538097 
L 129.0834 276.412221 
L 129.250988 276.412221 
L 129.250988 276.034593 
L 129.499602 276.034593 
L 129.54072 275.782841 
L 129.744974 275.782841 
L 129.744974 275.656966 
L 129.987186 275.656966 
L 130.067235 275.279338 
L 130.226319 275.279338 
L 130.226319 275.153462 
L 130.501519 275.153462 
L 130.540507 274.90171 
L 130.811181 274.90171 
L 130.887807 274.524083 
L 130.964122 274.524083 
L 131.040128 274.272331 
L 131.191226 274.272331 
L 131.266322 274.020579 
L 131.341119 274.020579 
L 131.341119 273.894703 
L 131.526822 273.894703 
L 131.563744 273.642952 
L 131.71071 273.642952 
L 131.783764 273.265324 
L 131.965169 273.265324 
L 132.037244 272.887697 
L 132.251827 272.887697 
L 132.251827 272.761821 
L 132.984158 272.761821 
L 132.984158 272.635945 
L 133.188264 272.635945 
L 133.289492 272.006566 
L 133.556801 272.006566 
L 133.623039 271.377186 
L 133.72196 271.377186 
L 133.820365 270.873683 
L 133.950775 270.873683 
L 133.983236 270.621931 
L 134.080287 270.621931 
L 134.112526 270.370179 
L 134.368469 270.370179 
L 134.368469 270.244303 
L 134.495147 270.244303 
L 134.558167 269.992552 
L 134.620977 269.992552 
L 134.683578 269.7408 
L 134.931919 269.7408 
L 134.931919 269.489048 
L 135.177024 269.489048 
L 135.177024 269.363172 
L 135.388902 269.363172 
L 135.388902 269.237297 
L 135.508912 269.237297 
L 135.59842 268.859669 
L 135.628162 268.859669 
L 135.628162 268.733793 
L 136.155623 268.733793 
L 136.213327 268.482041 
L 136.299553 268.482041 
L 136.299553 268.23029 
L 136.527575 268.23029 
L 136.612375 267.852662 
L 136.640557 267.852662 
L 136.724851 267.475034 
L 136.752866 267.475034 
L 136.836659 267.097407 
L 136.92008 267.097407 
L 136.92008 266.971531 
L 137.331728 266.971531 
L 137.439996 266.593903 
L 137.734561 266.593903 
L 137.814102 266.216276 
L 137.893309 266.216276 
L 137.998402 265.586897 
L 138.566146 265.586897 
L 138.566146 265.461021 
L 139.067817 265.461021 
L 139.141927 265.083393 
L 139.289277 265.083393 
L 139.289277 264.957517 
L 139.435481 264.957517 
L 139.532323 264.57989 
L 139.676658 264.57989 
L 139.748412 264.328138 
L 139.796097 264.328138 
L 139.819894 264.076386 
L 139.962047 264.076386 
L 140.032723 263.698759 
L 140.14993 263.698759 
L 140.219905 263.321131 
L 140.28962 263.321131 
L 140.359078 263.069379 
L 140.451292 263.069379 
L 140.451292 262.943503 
L 140.950542 262.943503 
L 140.950542 262.817628 
L 141.128852 262.817628 
L 141.195285 262.314124 
L 141.349389 262.314124 
L 141.349389 262.188248 
L 141.48048 262.188248 
L 141.50224 261.936497 
L 141.782854 261.936497 
L 141.825656 261.558869 
L 141.910969 261.558869 
L 141.910969 261.432993 
L 142.164612 261.432993 
L 142.164612 261.307117 
L 142.311006 261.307117 
L 142.373399 260.92949 
L 142.559347 260.92949 
L 142.579895 260.677738 
L 142.743475 260.677738 
L 142.763822 260.425986 
L 142.865233 260.425986 
L 142.966099 260.048359 
L 143.442869 260.048359 
L 143.442869 259.670731 
L 143.811926 259.670731 
L 143.888708 259.167228 
L 143.984246 259.167228 
L 144.06033 258.7896 
L 144.192739 258.7896 
L 144.192739 258.663724 
L 144.380294 258.663724 
L 144.380294 258.411972 
L 144.749884 258.411972 
L 144.749884 258.286097 
L 144.895711 258.286097 
L 144.968202 258.034345 
L 145.112353 258.034345 
L 145.112353 257.908469 
L 145.520737 257.908469 
L 145.608355 257.404966 
L 145.730339 257.404966 
L 145.730339 257.27909 
L 145.954802 257.27909 
L 145.989098 256.901462 
L 146.159649 256.901462 
L 146.244347 256.64971 
L 146.311833 256.64971 
L 146.379077 256.272083 
L 146.446082 256.272083 
L 146.446082 256.146207 
L 146.579379 256.146207 
L 146.579379 256.020331 
L 147.119461 256.020331 
L 147.183884 255.516828 
L 147.232057 255.516828 
L 147.296097 255.1392 
L 147.391749 255.1392 
L 147.391749 255.013324 
L 147.675821 255.013324 
L 147.691478 254.635697 
L 147.831805 254.635697 
L 147.831805 254.509821 
L 147.955668 254.509821 
L 148.001907 254.132193 
L 148.428077 254.132193 
L 148.428077 253.754566 
L 148.932916 253.754566 
L 148.932916 253.62869 
L 149.136916 253.62869 
L 149.136916 253.502814 
L 149.31003 253.502814 
L 149.31003 253.251062 
L 149.46733 253.251062 
L 149.524205 252.747559 
L 149.820013 252.747559 
L 149.875833 252.495807 
L 150.438643 252.495807 
L 150.546523 252.118179 
L 150.760445 252.118179 
L 150.853277 251.866428 
L 151.116012 251.866428 
L 151.220087 251.4888 
L 151.375128 251.4888 
L 151.426526 251.111172 
L 151.618026 251.111172 
L 151.719368 250.607669 
L 151.857828 250.607669 
L 151.945411 250.230041 
L 151.982822 250.230041 
L 151.982822 250.104166 
L 152.106991 250.104166 
L 152.131727 249.726538 
L 152.303973 249.726538 
L 152.413875 248.719531 
L 152.438211 248.719531 
L 152.438211 248.593655 
L 152.787587 248.593655 
L 152.787587 248.467779 
L 152.953957 248.467779 
L 153.02481 247.8384 
L 153.455939 247.8384 
L 153.478964 247.586648 
L 153.570784 247.586648 
L 153.570784 247.334897 
L 153.75309 247.334897 
L 153.843585 246.705517 
L 154.023279 246.705517 
L 154.101358 246.32789 
L 154.454223 246.32789 
L 154.454223 245.950262 
L 154.584859 245.950262 
L 154.682245 245.446759 
L 154.832738 245.446759 
L 154.896868 244.817379 
L 155.161749 244.817379 
L 155.161749 244.565628 
L 155.433326 244.565628 
L 155.474761 244.188 
L 155.577951 244.188 
L 155.680579 243.684497 
L 155.752086 243.684497 
L 155.752086 243.558621 
L 156.025382 243.558621 
L 156.135597 242.425738 
L 156.145584 242.425738 
L 156.145584 242.299862 
L 156.393565 242.299862 
L 156.43294 241.922234 
L 156.531019 241.922234 
L 156.638319 241.166979 
L 156.715973 241.166979 
L 156.715973 241.041103 
L 157.09001 241.041103 
L 157.118477 240.663476 
L 157.419468 240.663476 
L 157.521831 240.159972 
L 157.540383 240.159972 
L 157.595929 239.908221 
L 158.088598 239.908221 
L 158.088598 239.656469 
L 158.214248 239.656469 
L 158.321284 239.152966 
L 158.330176 239.152966 
L 158.330176 239.02709 
L 158.612531 239.02709 
L 158.612531 238.775338 
L 158.821551 238.775338 
L 158.821551 238.523586 
L 158.993977 238.523586 
L 159.071056 238.271834 
L 159.173339 238.271834 
L 159.24122 237.642455 
L 159.300416 237.642455 
L 159.342585 237.390703 
L 159.585318 237.390703 
L 159.585318 237.138952 
L 159.750914 237.138952 
L 159.824959 236.8872 
L 159.947723 236.8872 
L 160.020999 236.383697 
L 160.061585 236.383697 
L 160.093991 236.006069 
L 160.335271 236.006069 
L 160.422971 235.37669 
L 160.565603 235.37669 
L 160.565603 235.124938 
L 160.994842 235.124938 
L 161.017976 234.74731 
L 161.209658 234.74731 
L 161.209658 234.495559 
L 161.391854 234.495559 
L 161.482294 233.866179 
L 161.564818 233.866179 
L 161.602209 233.488552 
L 161.743622 233.488552 
L 161.743622 233.362676 
L 161.906046 233.362676 
L 162.001369 232.733297 
L 162.088932 232.733297 
L 162.197817 232.103917 
L 162.205054 232.103917 
L 162.298877 231.72629 
L 162.392235 231.72629 
L 162.435167 231.474538 
L 162.520739 231.474538 
L 162.62716 230.971034 
L 162.676617 230.971034 
L 162.754075 230.341655 
L 162.8032 230.341655 
L 162.824215 230.089903 
L 162.928937 230.089903 
L 162.928937 229.838152 
L 163.053839 229.838152 
L 163.136649 229.334648 
L 163.191653 229.334648 
L 163.301182 228.957021 
L 163.3965 228.957021 
L 163.3965 228.705269 
L 163.585698 228.705269 
L 163.585698 228.579393 
L 163.899064 228.579393 
L 163.899064 228.453517 
L 164.043972 228.453517 
L 164.148663 228.07589 
L 164.233297 228.07589 
L 164.298142 227.698262 
L 164.356312 227.698262 
L 164.407868 227.320634 
L 164.516958 227.320634 
L 164.58721 226.943007 
L 164.783793 226.943007 
L 164.783793 226.817131 
L 165.139977 226.817131 
L 165.207944 226.565379 
L 165.379853 226.565379 
L 165.379853 226.313628 
L 165.676963 226.313628 
L 165.676963 226.061876 
L 166.093428 226.061876 
L 166.146311 225.432497 
L 166.309891 225.432497 
L 166.396941 224.677241 
L 166.489353 224.677241 
L 166.495114 224.173738 
L 166.661411 224.173738 
L 166.769573 223.166731 
L 167.023292 223.166731 
L 167.062453 221.907972 
L 167.173896 221.907972 
L 167.273634 221.278593 
L 167.38933 221.278593 
L 167.493397 220.649214 
L 167.526142 220.649214 
L 167.618609 219.768083 
L 167.705223 219.768083 
L 167.705223 219.516331 
L 167.882616 219.516331 
L 167.978675 219.012828 
L 168.026521 219.012828 
L 168.026521 218.761076 
L 168.342424 218.761076 
L 168.342424 218.6352 
L 168.498408 218.6352 
L 168.596533 217.879945 
L 168.786162 217.879945 
L 168.852337 217.502317 
L 168.948638 217.502317 
L 169.014245 216.998814 
L 169.089662 216.998814 
L 169.089662 216.747062 
L 169.229637 216.747062 
L 169.229637 216.621186 
L 169.403154 216.621186 
L 169.403154 216.369434 
L 169.604401 216.369434 
L 169.619042 215.991807 
L 169.764832 215.991807 
L 169.813178 215.614179 
L 170.010109 215.614179 
L 170.010109 215.362428 
L 170.129185 215.362428 
L 170.238073 214.607172 
L 170.313451 214.607172 
L 170.369787 214.229545 
L 170.430628 214.229545 
L 170.467971 213.47429 
L 170.565646 213.47429 
L 170.653583 212.719034 
L 170.704306 212.719034 
L 170.796182 212.089655 
L 170.828233 212.089655 
L 170.832807 211.837903 
L 170.96952 211.837903 
L 171.078179 210.830897 
L 171.105246 210.830897 
L 171.105246 210.705021 
L 171.253422 210.705021 
L 171.338209 209.572138 
L 171.418183 209.572138 
L 171.418183 209.446262 
L 171.625414 209.446262 
L 171.656084 209.19451 
L 171.756506 209.19451 
L 171.865055 208.187503 
L 171.88669 208.187503 
L 171.990192 207.809876 
L 172.084572 207.809876 
L 172.182738 207.558124 
L 172.263447 207.558124 
L 172.263447 207.432248 
L 172.419631 207.432248 
L 172.419631 207.306372 
L 172.570358 207.306372 
L 172.582865 206.928745 
L 172.719888 206.928745 
L 172.736429 206.551117 
L 172.868238 206.551117 
L 172.974657 206.047614 
L 173.084536 206.047614 
L 173.084536 205.921738 
L 173.378441 205.921738 
L 173.442249 205.54411 
L 173.533597 205.54411 
L 173.608724 204.788855 
L 173.66389 204.788855 
L 173.695341 204.285352 
L 173.808912 204.285352 
L 173.902386 203.781848 
L 173.968316 203.781848 
L 173.968316 203.655972 
L 174.145567 203.655972 
L 174.164733 203.278345 
L 174.294547 203.278345 
L 174.366702 202.900717 
L 174.427251 202.900717 
L 174.525228 202.145462 
L 174.566526 202.145462 
L 174.652586 201.641959 
L 174.686155 201.641959 
L 174.712223 201.264331 
L 174.79762 201.264331 
L 174.904746 200.509076 
L 174.992942 200.509076 
L 175.018589 199.627945 
L 175.258693 199.627945 
L 175.348847 199.376193 
L 175.452888 199.376193 
L 175.531433 198.87269 
L 175.570583 198.87269 
L 175.65218 197.991559 
L 175.908841 197.991559 
L 175.992463 197.110428 
L 176.061866 197.110428 
L 176.137914 196.481048 
L 176.199907 196.481048 
L 176.199907 196.229297 
L 176.354003 196.229297 
L 176.39148 195.851669 
L 176.594594 195.851669 
L 176.638314 195.348166 
L 176.745503 195.348166 
L 176.782208 194.844662 
L 176.875318 194.844662 
L 176.898524 194.59291 
L 177.138836 194.59291 
L 177.191099 194.089407 
L 177.291948 194.089407 
L 177.395487 193.711779 
L 177.552933 193.711779 
L 177.629572 193.334152 
L 177.756613 193.334152 
L 177.816658 192.830648 
L 177.911078 192.830648 
L 177.936177 192.453021 
L 178.02376 192.453021 
L 178.117149 191.446014 
L 178.210076 191.446014 
L 178.317914 191.068386 
L 178.376197 191.068386 
L 178.48309 190.564883 
L 178.616613 190.564883 
L 178.716138 189.935503 
L 178.728166 189.935503 
L 178.785193 189.557876 
L 178.961184 189.557876 
L 178.961184 189.306124 
L 179.091369 189.306124 
L 179.114942 188.928497 
L 179.226514 188.928497 
L 179.305388 188.299117 
L 179.459261 188.299117 
L 179.56594 187.795614 
L 179.660579 187.795614 
L 179.712 187.417986 
L 179.890875 187.417986 
L 179.902175 186.788607 
L 180.065266 186.788607 
L 180.065266 186.662731 
L 180.179707 186.662731 
L 180.179707 186.410979 
L 180.323858 186.410979 
L 180.323858 186.285103 
L 180.477871 186.285103 
L 180.546222 185.907476 
L 180.711964 185.907476 
L 180.711964 185.7816 
L 180.897699 185.7816 
L 180.897699 185.655724 
L 181.052417 185.655724 
L 181.052417 185.403972 
L 181.163666 185.403972 
L 181.22431 185.152221 
L 181.397255 185.152221 
L 181.467549 184.648717 
L 181.576377 184.648717 
L 181.576377 184.522841 
L 181.909288 184.522841 
L 181.909288 184.396966 
L 182.156414 184.396966 
L 182.156414 184.145214 
L 182.454661 184.145214 
L 182.503913 183.64171 
L 182.697205 183.64171 
L 182.697205 183.389959 
L 182.859594 183.389959 
L 182.953477 182.634703 
L 183.390202 182.634703 
L 183.448765 182.382952 
L 183.787178 182.382952 
L 183.787178 182.257076 
L 183.976883 182.257076 
L 183.976883 182.1312 
L 184.11961 182.1312 
L 184.11961 181.879448 
L 184.843519 181.879448 
L 184.843519 181.753572 
L 184.966902 181.753572 
L 184.966902 181.627697 
L 186.019953 181.627697 
L 186.019953 181.375945 
L 186.894881 181.375945 
L 186.894881 181.250069 
L 360.8064 181.250069 
L 360.8064 181.250069 
" style="fill: none; stroke: #ff00ff; stroke-width: 1.5; stroke-linecap: square"/>
   </g>
   <g id="line2d_41">
    <defs>
     <path id="m724b65f7ca" d="M -0 8.485281 
L 5.091169 0 
L 0 -8.485281 
L -5.091169 -0 
z
" style="stroke: #ff00ff; stroke-width: 1.5; stroke-linejoin: miter"/>
    </defs>
    <g>
     <use xlink:href="#m724b65f7ca" x="103.047088" y="286.230538" style="fill-opacity: 0; stroke: #ff00ff; stroke-width: 1.5; stroke-linejoin: miter"/>
     <use xlink:href="#m724b65f7ca" x="167.705223" y="219.768083" style="fill-opacity: 0; stroke: #ff00ff; stroke-width: 1.5; stroke-linejoin: miter"/>
     <use xlink:href="#m724b65f7ca" x="186.894881" y="181.375945" style="fill-opacity: 0; stroke: #ff00ff; stroke-width: 1.5; stroke-linejoin: miter"/>
     <use xlink:href="#m724b65f7ca" x="186.894881" y="181.250069" style="fill-opacity: 0; stroke: #ff00ff; stroke-width: 1.5; stroke-linejoin: miter"/>
     <use xlink:href="#m724b65f7ca" x="186.894881" y="181.250069" style="fill-opacity: 0; stroke: #ff00ff; stroke-width: 1.5; stroke-linejoin: miter"/>
     <use xlink:href="#m724b65f7ca" x="360.8064" y="181.250069" style="fill-opacity: 0; stroke: #ff00ff; stroke-width: 1.5; stroke-linejoin: miter"/>
    </g>
   </g>
   <g id="line2d_42">
    <path style="fill: none; stroke: #ff00ff; stroke-width: 1.5; stroke-linecap: square"/>
    <g/>
   </g>
   <g id="line2d_43">
    <path d="M 187.53431 181.250069 
" clip-path="url(#p1451aa6045)" style="fill: none; stroke: #ff00ff; stroke-width: 1.5; stroke-linecap: square"/>
    <defs>
     <path id="maf65f1e7c7" d="M -12 12 
L 12 -12 
M -12 -12 
L 12 12 
" style="stroke: #ff00ff"/>
    </defs>
    <g clip-path="url(#p1451aa6045)">
     <use xlink:href="#maf65f1e7c7" x="187.53431" y="181.250069" style="fill: #ff00ff; stroke: #ff00ff"/>
    </g>
   </g>
   <g id="line2d_44">
    <path d="M 360.8064 189.809628 
L 380.514816 293.10336 
" style="fill: none; stroke: #000080; stroke-width: 1.5; stroke-linecap: square"/>
    <g>
     <use xlink:href="#mb8430ac7d5" x="360.8064" y="189.809628" style="fill-opacity: 0; stroke: #000080; stroke-width: 1.5"/>
     <use xlink:href="#mb8430ac7d5" x="380.514816" y="293.10336" style="fill-opacity: 0; stroke: #000080; stroke-width: 1.5"/>
    </g>
   </g>
   <g id="line2d_45">
    <path d="M 360.8064 181.250069 
L 380.514816 152.928 
" style="fill: none; stroke: #ff00ff; stroke-width: 1.5; stroke-linecap: square"/>
    <g>
     <use xlink:href="#m724b65f7ca" x="360.8064" y="181.250069" style="fill-opacity: 0; stroke: #ff00ff; stroke-width: 1.5; stroke-linejoin: miter"/>
     <use xlink:href="#m724b65f7ca" x="380.514816" y="152.928" style="fill-opacity: 0; stroke: #ff00ff; stroke-width: 1.5; stroke-linejoin: miter"/>
    </g>
   </g>
   <g id="line2d_46">
    <path d="M 360.8064 298.944 
L 360.8064 6.912 
" style="fill: none; stroke: #000000; stroke-width: 1.5; stroke-linecap: square"/>
   </g>
   <g id="patch_3">
    <path d="M 57.6 298.944 
L 360.8064 298.944 
" style="fill: none; stroke: #000000; stroke-width: 0.8; stroke-linejoin: miter; stroke-linecap: square"/>
   </g>
   <g id="patch_4">
    <path d="M 57.6 6.912 
L 360.8064 6.912 
" style="fill: none; stroke: #000000; stroke-width: 0.8; stroke-linejoin: miter; stroke-linecap: square"/>
   </g>
   <g id="text_13">
    <!-- kerComo -->
    <g transform="translate(386.578944 296.966485) scale(0.14 -0.14)">
     <defs>
      <path id="DejaVuSans-6b" d="M 581 4863 
L 1159 4863 
L 1159 1991 
L 2875 3500 
L 3609 3500 
L 1753 1863 
L 3688 0 
L 2938 0 
L 1159 1709 
L 1159 0 
L 581 0 
L 581 4863 
z
" transform="scale(0.015625)"/>
      <path id="DejaVuSans-43" d="M 4122 4306 
L 4122 3641 
Q 3803 3938 3442 4084 
Q 3081 4231 2675 4231 
Q 1875 4231 1450 3742 
Q 1025 3253 1025 2328 
Q 1025 1406 1450 917 
Q 1875 428 2675 428 
Q 3081 428 3442 575 
Q 3803 722 4122 1019 
L 4122 359 
Q 3791 134 3420 21 
Q 3050 -91 2638 -91 
Q 1578 -91 968 557 
Q 359 1206 359 2328 
Q 359 3453 968 4101 
Q 1578 4750 2638 4750 
Q 3056 4750 3426 4639 
Q 3797 4528 4122 4306 
z
" transform="scale(0.015625)"/>
     </defs>
     <use xlink:href="#DejaVuSans-6b"/>
     <use xlink:href="#DejaVuSans-65" x="54.285156"/>
     <use xlink:href="#DejaVuSans-72" x="115.808594"/>
     <use xlink:href="#DejaVuSans-43" x="156.921875"/>
     <use xlink:href="#DejaVuSans-6f" x="226.746094"/>
     <use xlink:href="#DejaVuSans-6d" x="287.927734"/>
     <use xlink:href="#DejaVuSans-6f" x="385.339844"/>
    </g>
   </g>
   <g id="text_14">
    <!-- kerLQ -->
    <g transform="translate(386.578944 156.791125) scale(0.14 -0.14)">
     <defs>
      <path id="DejaVuSans-4c" d="M 628 4666 
L 1259 4666 
L 1259 531 
L 3531 531 
L 3531 0 
L 628 0 
L 628 4666 
z
" transform="scale(0.015625)"/>
      <path id="DejaVuSans-51" d="M 2522 4238 
Q 1834 4238 1429 3725 
Q 1025 3213 1025 2328 
Q 1025 1447 1429 934 
Q 1834 422 2522 422 
Q 3209 422 3611 934 
Q 4013 1447 4013 2328 
Q 4013 3213 3611 3725 
Q 3209 4238 2522 4238 
z
M 3406 84 
L 4238 -825 
L 3475 -825 
L 2784 -78 
Q 2681 -84 2626 -87 
Q 2572 -91 2522 -91 
Q 1538 -91 948 567 
Q 359 1225 359 2328 
Q 359 3434 948 4092 
Q 1538 4750 2522 4750 
Q 3503 4750 4090 4092 
Q 4678 3434 4678 2328 
Q 4678 1516 4351 937 
Q 4025 359 3406 84 
z
" transform="scale(0.015625)"/>
     </defs>
     <use xlink:href="#DejaVuSans-6b"/>
     <use xlink:href="#DejaVuSans-65" x="54.285156"/>
     <use xlink:href="#DejaVuSans-72" x="115.808594"/>
     <use xlink:href="#DejaVuSans-4c" x="156.921875"/>
     <use xlink:href="#DejaVuSans-51" x="212.634766"/>
    </g>
   </g>
   <g id="text_15">
    <!-- best 2016 -->
    <g transform="translate(386.578944 16.615765) scale(0.14 -0.14)">
     <defs>
      <path id="DejaVuSans-62" d="M 3116 1747 
Q 3116 2381 2855 2742 
Q 2594 3103 2138 3103 
Q 1681 3103 1420 2742 
Q 1159 2381 1159 1747 
Q 1159 1113 1420 752 
Q 1681 391 2138 391 
Q 2594 391 2855 752 
Q 3116 1113 3116 1747 
z
M 1159 2969 
Q 1341 3281 1617 3432 
Q 1894 3584 2278 3584 
Q 2916 3584 3314 3078 
Q 3713 2572 3713 1747 
Q 3713 922 3314 415 
Q 2916 -91 2278 -91 
Q 1894 -91 1617 61 
Q 1341 213 1159 525 
L 1159 0 
L 581 0 
L 581 4863 
L 1159 4863 
L 1159 2969 
z
" transform="scale(0.015625)"/>
     </defs>
     <use xlink:href="#DejaVuSans-62"/>
     <use xlink:href="#DejaVuSans-65" x="63.476562"/>
     <use xlink:href="#DejaVuSans-73" x="125"/>
     <use xlink:href="#DejaVuSans-74" x="177.099609"/>
     <use xlink:href="#DejaVuSans-20" x="216.308594"/>
     <use xlink:href="#DejaVuSans-32" x="248.095703"/>
     <use xlink:href="#DejaVuSans-30" x="311.71875"/>
     <use xlink:href="#DejaVuSans-31" x="375.341797"/>
     <use xlink:href="#DejaVuSans-36" x="438.964844"/>
    </g>
   </g>
   <g id="text_16">
    <!-- bbob-biobj f22, f23, f29, f30, 10-D -->
    <g transform="translate(60.632064 17.582726) scale(0.102 -0.102)">
     <defs>
      <path id="DejaVuSans-6a" d="M 603 3500 
L 1178 3500 
L 1178 -63 
Q 1178 -731 923 -1031 
Q 669 -1331 103 -1331 
L -116 -1331 
L -116 -844 
L 38 -844 
Q 366 -844 484 -692 
Q 603 -541 603 -63 
L 603 3500 
z
M 603 4863 
L 1178 4863 
L 1178 4134 
L 603 4134 
L 603 4863 
z
" transform="scale(0.015625)"/>
      <path id="DejaVuSans-33" d="M 2597 2516 
Q 3050 2419 3304 2112 
Q 3559 1806 3559 1356 
Q 3559 666 3084 287 
Q 2609 -91 1734 -91 
Q 1441 -91 1130 -33 
Q 819 25 488 141 
L 488 750 
Q 750 597 1062 519 
Q 1375 441 1716 441 
Q 2309 441 2620 675 
Q 2931 909 2931 1356 
Q 2931 1769 2642 2001 
Q 2353 2234 1838 2234 
L 1294 2234 
L 1294 2753 
L 1863 2753 
Q 2328 2753 2575 2939 
Q 2822 3125 2822 3475 
Q 2822 3834 2567 4026 
Q 2313 4219 1838 4219 
Q 1578 4219 1281 4162 
Q 984 4106 628 3988 
L 628 4550 
Q 988 4650 1302 4700 
Q 1616 4750 1894 4750 
Q 2613 4750 3031 4423 
Q 3450 4097 3450 3541 
Q 3450 3153 3228 2886 
Q 3006 2619 2597 2516 
z
" transform="scale(0.015625)"/>
      <path id="DejaVuSans-39" d="M 703 97 
L 703 672 
Q 941 559 1184 500 
Q 1428 441 1663 441 
Q 2288 441 2617 861 
Q 2947 1281 2994 2138 
Q 2813 1869 2534 1725 
Q 2256 1581 1919 1581 
Q 1219 1581 811 2004 
Q 403 2428 403 3163 
Q 403 3881 828 4315 
Q 1253 4750 1959 4750 
Q 2769 4750 3195 4129 
Q 3622 3509 3622 2328 
Q 3622 1225 3098 567 
Q 2575 -91 1691 -91 
Q 1453 -91 1209 -44 
Q 966 3 703 97 
z
M 1959 2075 
Q 2384 2075 2632 2365 
Q 2881 2656 2881 3163 
Q 2881 3666 2632 3958 
Q 2384 4250 1959 4250 
Q 1534 4250 1286 3958 
Q 1038 3666 1038 3163 
Q 1038 2656 1286 2365 
Q 1534 2075 1959 2075 
z
" transform="scale(0.015625)"/>
      <path id="DejaVuSans-44" d="M 1259 4147 
L 1259 519 
L 2022 519 
Q 2988 519 3436 956 
Q 3884 1394 3884 2338 
Q 3884 3275 3436 3711 
Q 2988 4147 2022 4147 
L 1259 4147 
z
M 628 4666 
L 1925 4666 
Q 3281 4666 3915 4102 
Q 4550 3538 4550 2338 
Q 4550 1131 3912 565 
Q 3275 0 1925 0 
L 628 0 
L 628 4666 
z
" transform="scale(0.015625)"/>
     </defs>
     <use xlink:href="#DejaVuSans-62"/>
     <use xlink:href="#DejaVuSans-62" x="63.476562"/>
     <use xlink:href="#DejaVuSans-6f" x="126.953125"/>
     <use xlink:href="#DejaVuSans-62" x="188.134766"/>
     <use xlink:href="#DejaVuSans-2d" x="251.611328"/>
     <use xlink:href="#DejaVuSans-62" x="287.695312"/>
     <use xlink:href="#DejaVuSans-69" x="351.171875"/>
     <use xlink:href="#DejaVuSans-6f" x="378.955078"/>
     <use xlink:href="#DejaVuSans-62" x="440.136719"/>
     <use xlink:href="#DejaVuSans-6a" x="503.613281"/>
     <use xlink:href="#DejaVuSans-20" x="531.396484"/>
     <use xlink:href="#DejaVuSans-66" x="563.183594"/>
     <use xlink:href="#DejaVuSans-32" x="598.388672"/>
     <use xlink:href="#DejaVuSans-32" x="662.011719"/>
     <use xlink:href="#DejaVuSans-2c" x="725.634766"/>
     <use xlink:href="#DejaVuSans-20" x="757.421875"/>
     <use xlink:href="#DejaVuSans-66" x="789.208984"/>
     <use xlink:href="#DejaVuSans-32" x="824.414062"/>
     <use xlink:href="#DejaVuSans-33" x="888.037109"/>
     <use xlink:href="#DejaVuSans-2c" x="951.660156"/>
     <use xlink:href="#DejaVuSans-20" x="983.447266"/>
     <use xlink:href="#DejaVuSans-66" x="1015.234375"/>
     <use xlink:href="#DejaVuSans-32" x="1050.439453"/>
     <use xlink:href="#DejaVuSans-39" x="1114.0625"/>
     <use xlink:href="#DejaVuSans-2c" x="1177.685547"/>
     <use xlink:href="#DejaVuSans-20" x="1209.472656"/>
     <use xlink:href="#DejaVuSans-66" x="1241.259766"/>
     <use xlink:href="#DejaVuSans-33" x="1276.464844"/>
     <use xlink:href="#DejaVuSans-30" x="1340.087891"/>
     <use xlink:href="#DejaVuSans-2c" x="1403.710938"/>
     <use xlink:href="#DejaVuSans-20" x="1435.498047"/>
     <use xlink:href="#DejaVuSans-31" x="1467.285156"/>
     <use xlink:href="#DejaVuSans-30" x="1530.908203"/>
     <use xlink:href="#DejaVuSans-2d" x="1594.53125"/>
     <use xlink:href="#DejaVuSans-44" x="1630.615234"/>
    </g>
    <!-- 58 targets: 1..-1.0e-4 -->
    <g transform="translate(60.632064 29.004495) scale(0.102 -0.102)">
     <defs>
      <path id="DejaVuSans-35" d="M 691 4666 
L 3169 4666 
L 3169 4134 
L 1269 4134 
L 1269 2991 
Q 1406 3038 1543 3061 
Q 1681 3084 1819 3084 
Q 2600 3084 3056 2656 
Q 3513 2228 3513 1497 
Q 3513 744 3044 326 
Q 2575 -91 1722 -91 
Q 1428 -91 1123 -41 
Q 819 9 494 109 
L 494 744 
Q 775 591 1075 516 
Q 1375 441 1709 441 
Q 2250 441 2565 725 
Q 2881 1009 2881 1497 
Q 2881 1984 2565 2268 
Q 2250 2553 1709 2553 
Q 1456 2553 1204 2497 
Q 953 2441 691 2322 
L 691 4666 
z
" transform="scale(0.015625)"/>
      <path id="DejaVuSans-3a" d="M 750 794 
L 1409 794 
L 1409 0 
L 750 0 
L 750 794 
z
M 750 3309 
L 1409 3309 
L 1409 2516 
L 750 2516 
L 750 3309 
z
" transform="scale(0.015625)"/>
     </defs>
     <use xlink:href="#DejaVuSans-35"/>
     <use xlink:href="#DejaVuSans-38" x="63.623047"/>
     <use xlink:href="#DejaVuSans-20" x="127.246094"/>
     <use xlink:href="#DejaVuSans-74" x="159.033203"/>
     <use xlink:href="#DejaVuSans-61" x="198.242188"/>
     <use xlink:href="#DejaVuSans-72" x="259.521484"/>
     <use xlink:href="#DejaVuSans-67" x="298.884766"/>
     <use xlink:href="#DejaVuSans-65" x="362.361328"/>
     <use xlink:href="#DejaVuSans-74" x="423.884766"/>
     <use xlink:href="#DejaVuSans-73" x="463.09375"/>
     <use xlink:href="#DejaVuSans-3a" x="515.193359"/>
     <use xlink:href="#DejaVuSans-20" x="548.884766"/>
     <use xlink:href="#DejaVuSans-31" x="580.671875"/>
     <use xlink:href="#DejaVuSans-2e" x="644.294922"/>
     <use xlink:href="#DejaVuSans-2e" x="676.082031"/>
     <use xlink:href="#DejaVuSans-2d" x="707.869141"/>
     <use xlink:href="#DejaVuSans-31" x="743.953125"/>
     <use xlink:href="#DejaVuSans-2e" x="807.576172"/>
     <use xlink:href="#DejaVuSans-30" x="839.363281"/>
     <use xlink:href="#DejaVuSans-65" x="902.986328"/>
     <use xlink:href="#DejaVuSans-2d" x="964.509766"/>
     <use xlink:href="#DejaVuSans-34" x="1000.59375"/>
    </g>
    <!-- 10 instances -->
    <g transform="translate(60.632064 40.426264) scale(0.102 -0.102)">
     <use xlink:href="#DejaVuSans-31"/>
     <use xlink:href="#DejaVuSans-30" x="63.623047"/>
     <use xlink:href="#DejaVuSans-20" x="127.246094"/>
     <use xlink:href="#DejaVuSans-69" x="159.033203"/>
     <use xlink:href="#DejaVuSans-6e" x="186.816406"/>
     <use xlink:href="#DejaVuSans-73" x="250.195312"/>
     <use xlink:href="#DejaVuSans-74" x="302.294922"/>
     <use xlink:href="#DejaVuSans-61" x="341.503906"/>
     <use xlink:href="#DejaVuSans-6e" x="402.783203"/>
     <use xlink:href="#DejaVuSans-63" x="466.162109"/>
     <use xlink:href="#DejaVuSans-65" x="521.142578"/>
     <use xlink:href="#DejaVuSans-73" x="582.666016"/>
    </g>
   </g>
   <g id="text_17">
    <!-- v2.6, hv-hash=ff0e71e8cd978373 -->
    <g style="fill: #808080" transform="translate(123.707887 293.943992) scale(0.1 -0.1)">
     <defs>
      <path id="DejaVuSans-68" d="M 3513 2113 
L 3513 0 
L 2938 0 
L 2938 2094 
Q 2938 2591 2744 2837 
Q 2550 3084 2163 3084 
Q 1697 3084 1428 2787 
Q 1159 2491 1159 1978 
L 1159 0 
L 581 0 
L 581 4863 
L 1159 4863 
L 1159 2956 
Q 1366 3272 1645 3428 
Q 1925 3584 2291 3584 
Q 2894 3584 3203 3211 
Q 3513 2838 3513 2113 
z
" transform="scale(0.015625)"/>
      <path id="DejaVuSans-3d" d="M 678 2906 
L 4684 2906 
L 4684 2381 
L 678 2381 
L 678 2906 
z
M 678 1631 
L 4684 1631 
L 4684 1100 
L 678 1100 
L 678 1631 
z
" transform="scale(0.015625)"/>
      <path id="DejaVuSans-37" d="M 525 4666 
L 3525 4666 
L 3525 4397 
L 1831 0 
L 1172 0 
L 2766 4134 
L 525 4134 
L 525 4666 
z
" transform="scale(0.015625)"/>
     </defs>
     <use xlink:href="#DejaVuSans-76"/>
     <use xlink:href="#DejaVuSans-32" x="59.179688"/>
     <use xlink:href="#DejaVuSans-2e" x="122.802734"/>
     <use xlink:href="#DejaVuSans-36" x="154.589844"/>
     <use xlink:href="#DejaVuSans-2c" x="218.212891"/>
     <use xlink:href="#DejaVuSans-20" x="250"/>
     <use xlink:href="#DejaVuSans-68" x="281.787109"/>
     <use xlink:href="#DejaVuSans-76" x="345.166016"/>
     <use xlink:href="#DejaVuSans-2d" x="401.720703"/>
     <use xlink:href="#DejaVuSans-68" x="437.804688"/>
     <use xlink:href="#DejaVuSans-61" x="501.183594"/>
     <use xlink:href="#DejaVuSans-73" x="562.462891"/>
     <use xlink:href="#DejaVuSans-68" x="614.5625"/>
     <use xlink:href="#DejaVuSans-3d" x="677.941406"/>
     <use xlink:href="#DejaVuSans-66" x="761.730469"/>
     <use xlink:href="#DejaVuSans-66" x="796.935547"/>
     <use xlink:href="#DejaVuSans-30" x="832.140625"/>
     <use xlink:href="#DejaVuSans-65" x="895.763672"/>
     <use xlink:href="#DejaVuSans-37" x="957.287109"/>
     <use xlink:href="#DejaVuSans-31" x="1020.910156"/>
     <use xlink:href="#DejaVuSans-65" x="1084.533203"/>
     <use xlink:href="#DejaVuSans-38" x="1146.056641"/>
     <use xlink:href="#DejaVuSans-63" x="1209.679688"/>
     <use xlink:href="#DejaVuSans-64" x="1264.660156"/>
     <use xlink:href="#DejaVuSans-39" x="1328.136719"/>
     <use xlink:href="#DejaVuSans-37" x="1391.759766"/>
     <use xlink:href="#DejaVuSans-38" x="1455.382812"/>
     <use xlink:href="#DejaVuSans-33" x="1519.005859"/>
     <use xlink:href="#DejaVuSans-37" x="1582.628906"/>
     <use xlink:href="#DejaVuSans-33" x="1646.251953"/>
    </g>
   </g>
  </g>
 </g>
 <defs>
  <clipPath id="p1451aa6045">
   <rect x="57.6" y="6.912" width="303.2064" height="292.032"/>
  </clipPath>
 </defs>
</svg>
