<?xml version="1.0" encoding="utf-8" standalone="no"?>
<!DOCTYPE svg PUBLIC "-//W3C//DTD SVG 1.1//EN"
  "http://www.w3.org/Graphics/SVG/1.1/DTD/svg11.dtd">
<svg xmlns:xlink="http://www.w3.org/1999/xlink" width="460.8pt" height="345.6pt" viewBox="0 0 460.8 345.6" xmlns="http://www.w3.org/2000/svg" version="1.1">
 <metadata>
  <rdf:RDF xmlns:dc="http://purl.org/dc/elements/1.1/" xmlns:cc="http://creativecommons.org/ns#" xmlns:rdf="http://www.w3.org/1999/02/22-rdf-syntax-ns#">
   <cc:Work>
    <dc:type rdf:resource="http://purl.org/dc/dcmitype/StillImage"/>
    <dc:date>2023-02-10T20:28:33.552854</dc:date>
    <dc:format>image/svg+xml</dc:format>
    <dc:creator>
     <cc:Agent>
      <dc:title>Matplotlib v3.6.3, https://matplotlib.org/</dc:title>
     </cc:Agent>
    </dc:creator>
   </cc:Work>
  </rdf:RDF>
 </metadata>
 <defs>
  <style type="text/css">*{stroke-linejoin: round; stroke-linecap: butt}</style>
 </defs>
 <g id="figure_1">
  <g id="patch_1">
   <path d="M 0 345.6 
L 460.8 345.6 
L 460.8 0 
L 0 0 
z
" style="fill: #ffffff"/>
  </g>
  <g id="axes_1">
   <g id="patch_2">
    <path d="M 57.6 298.944 
L 360.8064 298.944 
L 360.8064 6.912 
L 57.6 6.912 
z
" style="fill: #ffffff"/>
   </g>
   <g id="line2d_1">
    <path d="M 40.363149 298.944 
L 40.363149 297.685241 
L 47.990577 297.685241 
L 47.990577 296.426483 
L 53.402323 296.426483 
L 53.402323 293.908966 
L 57.6 293.908966 
L 57.6 292.650207 
L 61.029752 292.650207 
L 61.029752 291.391448 
L 66.441498 291.391448 
L 66.441498 286.356414 
L 74.068926 286.356414 
L 74.068926 283.838897 
L 83.678349 283.838897 
L 83.678349 276.286345 
L 87.1081 276.286345 
L 87.1081 273.768828 
L 90.668036 273.768828 
L 90.668036 272.510069 
L 95.250946 272.510069 
L 95.250946 271.25131 
L 95.752617 271.25131 
L 95.752617 269.992552 
L 97.18203 269.992552 
L 97.18203 268.733793 
L 101.287718 268.733793 
L 101.287718 261.181241 
L 108.034177 261.181241 
L 108.034177 258.663724 
L 108.29012 258.663724 
L 108.29012 256.146207 
L 108.542628 256.146207 
L 108.542628 252.369931 
L 110.221204 252.369931 
L 110.221204 248.593655 
L 114.872193 248.593655 
L 114.872193 247.334897 
L 117.226706 247.334897 
L 117.226706 246.076138 
L 117.384126 246.076138 
L 117.384126 243.558621 
L 123.825333 243.558621 
L 123.825333 241.041103 
L 127.458055 241.041103 
L 127.458055 238.523586 
L 130.964122 238.523586 
L 130.964122 236.006069 
L 132.56918 236.006069 
L 132.56918 232.229793 
L 133.120474 232.229793 
L 133.120474 230.971034 
L 138.36167 230.971034 
L 138.36167 227.194759 
L 141.349389 227.194759 
L 141.349389 224.677241 
L 141.953481 224.677241 
L 142.038218 220.900966 
L 143.888708 220.900966 
L 143.888708 218.383448 
L 147.816265 218.383448 
L 147.816265 214.607172 
L 149.338728 214.607172 
L 149.338728 212.089655 
L 149.931489 212.089655 
L 149.931489 209.572138 
L 150.234685 209.572138 
L 150.234685 207.054621 
L 154.80059 207.054621 
L 154.80059 204.537103 
L 156.442771 204.537103 
L 156.442771 202.019586 
L 156.735336 202.019586 
L 156.735336 199.502069 
L 158.612531 199.502069 
L 158.612531 195.725793 
L 161.869254 195.725793 
L 161.869254 193.208276 
L 162.761101 193.208276 
L 162.8032 189.432 
L 163.27386 189.432 
L 163.27386 188.173241 
L 167.394821 188.173241 
L 167.394821 185.655724 
L 169.491772 185.655724 
L 169.491772 181.879448 
L 171.127772 181.879448 
L 171.127772 178.103172 
L 173.302386 178.103172 
L 173.302386 175.585655 
L 176.086096 175.585655 
L 176.162047 171.809379 
L 177.46634 171.809379 
L 177.46634 170.550621 
L 180.841365 170.550621 
L 180.841365 169.291862 
L 181.428529 169.291862 
L 181.428529 168.033103 
L 183.234714 168.033103 
L 183.234714 164.256828 
L 192.544641 164.256828 
L 192.65106 156.704276 
L 194.252952 156.704276 
L 194.252952 152.928 
L 196.632393 152.928 
L 196.632393 150.410483 
L 197.331771 150.410483 
L 197.331771 147.892966 
L 199.278175 147.892966 
L 199.278175 146.634207 
L 205.230065 146.634207 
L 205.230065 142.857931 
L 205.598232 142.857931 
L 205.598232 141.599172 
L 206.488994 141.599172 
L 206.488994 140.340414 
L 206.717132 140.340414 
L 206.717132 139.081655 
L 212.668941 139.081655 
L 212.668941 136.564138 
L 214.061825 136.564138 
L 214.061825 132.787862 
L 214.354515 132.787862 
L 214.354515 129.011586 
L 215.321728 129.011586 
L 215.321728 125.23531 
L 219.39922 125.23531 
L 219.39922 122.717793 
L 221.310853 122.717793 
L 221.310853 121.459034 
L 222.428375 121.459034 
L 222.428375 120.200276 
L 223.739859 120.200276 
L 223.739859 118.941517 
L 225.631267 118.941517 
L 225.631267 117.682759 
L 228.12829 117.682759 
L 228.12829 113.906483 
L 230.350545 113.906483 
L 230.350545 110.130207 
L 232.491253 110.130207 
L 232.491253 106.353931 
L 233.256211 106.353931 
L 233.256211 102.577655 
L 234.475249 102.577655 
L 234.475249 100.060138 
L 237.945989 100.060138 
L 237.945989 97.542621 
L 240.215376 97.542621 
L 240.215376 96.283862 
L 243.518011 96.283862 
L 243.518011 95.025103 
L 244.133104 95.025103 
L 244.172267 88.73131 
L 246.805807 88.73131 
L 246.805807 86.213793 
L 248.31208 86.213793 
L 248.31208 84.955034 
L 248.706515 84.955034 
L 248.706515 81.178759 
L 248.891515 81.178759 
L 248.891515 78.661241 
L 253.118024 78.661241 
L 253.118024 76.143724 
L 253.928775 76.143724 
L 253.928775 73.626207 
L 254.386539 73.626207 
L 254.386539 71.10869 
L 256.338994 71.10869 
L 256.338994 69.849931 
L 258.80837 69.849931 
L 258.80837 66.073655 
L 259.921311 66.073655 
L 259.921311 63.556138 
L 263.642154 63.556138 
L 263.642154 62.297379 
L 264.700103 62.297379 
L 264.700103 59.779862 
L 266.423815 59.779862 
L 266.423815 58.521103 
L 268.693641 58.521103 
L 268.693641 56.003586 
L 271.432698 56.003586 
L 271.432698 52.22731 
L 273.354503 52.22731 
L 273.354503 48.451034 
L 273.644974 48.451034 
L 273.644974 45.933517 
L 281.664615 45.933517 
L 281.664615 42.157241 
L 360.8064 42.157241 
L 360.8064 42.157241 
" style="fill: none; stroke: #f5deb3; stroke-width: 4; stroke-linecap: square"/>
   </g>
   <g id="line2d_2">
    <defs>
     <path id="mb47e2ac04a" d="M -0 7.778175 
L 7.778175 0 
L 0 -7.778175 
L -7.778175 -0 
z
" style="stroke: #f5deb3; stroke-width: 1.5; stroke-linejoin: miter"/>
    </defs>
    <g>
     <use xlink:href="#mb47e2ac04a" x="133.120474" y="230.971034" style="fill: #f5deb3; stroke: #f5deb3; stroke-width: 1.5; stroke-linejoin: miter"/>
     <use xlink:href="#mb47e2ac04a" x="206.717132" y="140.340414" style="fill: #f5deb3; stroke: #f5deb3; stroke-width: 1.5; stroke-linejoin: miter"/>
     <use xlink:href="#mb47e2ac04a" x="266.423815" y="58.521103" style="fill: #f5deb3; stroke: #f5deb3; stroke-width: 1.5; stroke-linejoin: miter"/>
     <use xlink:href="#mb47e2ac04a" x="281.664615" y="42.157241" style="fill: #f5deb3; stroke: #f5deb3; stroke-width: 1.5; stroke-linejoin: miter"/>
     <use xlink:href="#mb47e2ac04a" x="281.664615" y="42.157241" style="fill: #f5deb3; stroke: #f5deb3; stroke-width: 1.5; stroke-linejoin: miter"/>
     <use xlink:href="#mb47e2ac04a" x="360.8064" y="42.157241" style="fill: #f5deb3; stroke: #f5deb3; stroke-width: 1.5; stroke-linejoin: miter"/>
    </g>
   </g>
   <g id="line2d_3">
    <path style="fill: none; stroke: #f5deb3; stroke-width: 4; stroke-linecap: square"/>
    <g/>
   </g>
   <g id="line2d_4">
    <path d="M 360.8064 42.157241 
L 380.514816 12.75264 
" style="fill: none; stroke: #f5deb3; stroke-width: 4; stroke-linecap: square"/>
    <g>
     <use xlink:href="#mb47e2ac04a" x="360.8064" y="42.157241" style="fill: #f5deb3; stroke: #f5deb3; stroke-width: 1.5; stroke-linejoin: miter"/>
     <use xlink:href="#mb47e2ac04a" x="380.514816" y="12.75264" style="fill: #f5deb3; stroke: #f5deb3; stroke-width: 1.5; stroke-linejoin: miter"/>
    </g>
   </g>
   <g id="matplotlib.axis_1">
    <g id="xtick_1">
     <g id="line2d_5">
      <path d="M 57.6 298.944 
L 57.6 6.912 
" clip-path="url(#pc826ab7dfb)" style="fill: none; stroke: #b0b0b0; stroke-width: 0.8; stroke-linecap: square"/>
     </g>
     <g id="line2d_6">
      <defs>
       <path id="mca42535cb2" d="M 0 0 
L 0 3.5 
" style="stroke: #000000; stroke-width: 0.8"/>
      </defs>
      <g>
       <use xlink:href="#mca42535cb2" x="57.6" y="298.944" style="stroke: #000000; stroke-width: 0.8"/>
      </g>
     </g>
     <g id="text_1">
      <!-- 0 -->
      <g transform="translate(52.191875 318.861344) scale(0.17 -0.17)">
       <defs>
        <path id="DejaVuSans-30" d="M 2034 4250 
Q 1547 4250 1301 3770 
Q 1056 3291 1056 2328 
Q 1056 1369 1301 889 
Q 1547 409 2034 409 
Q 2525 409 2770 889 
Q 3016 1369 3016 2328 
Q 3016 3291 2770 3770 
Q 2525 4250 2034 4250 
z
M 2034 4750 
Q 2819 4750 3233 4129 
Q 3647 3509 3647 2328 
Q 3647 1150 3233 529 
Q 2819 -91 2034 -91 
Q 1250 -91 836 529 
Q 422 1150 422 2328 
Q 422 3509 836 4129 
Q 1250 4750 2034 4750 
z
" transform="scale(0.015625)"/>
       </defs>
       <use xlink:href="#DejaVuSans-30"/>
      </g>
     </g>
    </g>
    <g id="xtick_2">
     <g id="line2d_7">
      <path d="M 144.2304 298.944 
L 144.2304 6.912 
" clip-path="url(#pc826ab7dfb)" style="fill: none; stroke: #b0b0b0; stroke-width: 0.8; stroke-linecap: square"/>
     </g>
     <g id="line2d_8">
      <g>
       <use xlink:href="#mca42535cb2" x="144.2304" y="298.944" style="stroke: #000000; stroke-width: 0.8"/>
      </g>
     </g>
     <g id="text_2">
      <!-- 2 -->
      <g transform="translate(138.822275 318.861344) scale(0.17 -0.17)">
       <defs>
        <path id="DejaVuSans-32" d="M 1228 531 
L 3431 531 
L 3431 0 
L 469 0 
L 469 531 
Q 828 903 1448 1529 
Q 2069 2156 2228 2338 
Q 2531 2678 2651 2914 
Q 2772 3150 2772 3378 
Q 2772 3750 2511 3984 
Q 2250 4219 1831 4219 
Q 1534 4219 1204 4116 
Q 875 4013 500 3803 
L 500 4441 
Q 881 4594 1212 4672 
Q 1544 4750 1819 4750 
Q 2544 4750 2975 4387 
Q 3406 4025 3406 3419 
Q 3406 3131 3298 2873 
Q 3191 2616 2906 2266 
Q 2828 2175 2409 1742 
Q 1991 1309 1228 531 
z
" transform="scale(0.015625)"/>
       </defs>
       <use xlink:href="#DejaVuSans-32"/>
      </g>
     </g>
    </g>
    <g id="xtick_3">
     <g id="line2d_9">
      <path d="M 230.8608 298.944 
L 230.8608 6.912 
" clip-path="url(#pc826ab7dfb)" style="fill: none; stroke: #b0b0b0; stroke-width: 0.8; stroke-linecap: square"/>
     </g>
     <g id="line2d_10">
      <g>
       <use xlink:href="#mca42535cb2" x="230.8608" y="298.944" style="stroke: #000000; stroke-width: 0.8"/>
      </g>
     </g>
     <g id="text_3">
      <!-- 4 -->
      <g transform="translate(225.452675 318.861344) scale(0.17 -0.17)">
       <defs>
        <path id="DejaVuSans-34" d="M 2419 4116 
L 825 1625 
L 2419 1625 
L 2419 4116 
z
M 2253 4666 
L 3047 4666 
L 3047 1625 
L 3713 1625 
L 3713 1100 
L 3047 1100 
L 3047 0 
L 2419 0 
L 2419 1100 
L 313 1100 
L 313 1709 
L 2253 4666 
z
" transform="scale(0.015625)"/>
       </defs>
       <use xlink:href="#DejaVuSans-34"/>
      </g>
     </g>
    </g>
    <g id="xtick_4">
     <g id="line2d_11">
      <path d="M 317.4912 298.944 
L 317.4912 6.912 
" clip-path="url(#pc826ab7dfb)" style="fill: none; stroke: #b0b0b0; stroke-width: 0.8; stroke-linecap: square"/>
     </g>
     <g id="line2d_12">
      <g>
       <use xlink:href="#mca42535cb2" x="317.4912" y="298.944" style="stroke: #000000; stroke-width: 0.8"/>
      </g>
     </g>
     <g id="text_4">
      <!-- 6 -->
      <g transform="translate(312.083075 318.861344) scale(0.17 -0.17)">
       <defs>
        <path id="DejaVuSans-36" d="M 2113 2584 
Q 1688 2584 1439 2293 
Q 1191 2003 1191 1497 
Q 1191 994 1439 701 
Q 1688 409 2113 409 
Q 2538 409 2786 701 
Q 3034 994 3034 1497 
Q 3034 2003 2786 2293 
Q 2538 2584 2113 2584 
z
M 3366 4563 
L 3366 3988 
Q 3128 4100 2886 4159 
Q 2644 4219 2406 4219 
Q 1781 4219 1451 3797 
Q 1122 3375 1075 2522 
Q 1259 2794 1537 2939 
Q 1816 3084 2150 3084 
Q 2853 3084 3261 2657 
Q 3669 2231 3669 1497 
Q 3669 778 3244 343 
Q 2819 -91 2113 -91 
Q 1303 -91 875 529 
Q 447 1150 447 2328 
Q 447 3434 972 4092 
Q 1497 4750 2381 4750 
Q 2619 4750 2861 4703 
Q 3103 4656 3366 4563 
z
" transform="scale(0.015625)"/>
       </defs>
       <use xlink:href="#DejaVuSans-36"/>
      </g>
     </g>
    </g>
    <g id="xtick_5">
     <g id="line2d_13">
      <path d="M 100.9152 298.944 
L 100.9152 6.912 
" clip-path="url(#pc826ab7dfb)" style="fill: none; stroke: #b0b0b0; stroke-width: 0.8; stroke-linecap: square"/>
     </g>
     <g id="line2d_14">
      <defs>
       <path id="m7890e5ddd5" d="M 0 0 
L 0 2 
" style="stroke: #000000; stroke-width: 0.6"/>
      </defs>
      <g>
       <use xlink:href="#m7890e5ddd5" x="100.9152" y="298.944" style="stroke: #000000; stroke-width: 0.6"/>
      </g>
     </g>
    </g>
    <g id="xtick_6">
     <g id="line2d_15">
      <path d="M 187.5456 298.944 
L 187.5456 6.912 
" clip-path="url(#pc826ab7dfb)" style="fill: none; stroke: #b0b0b0; stroke-width: 0.8; stroke-linecap: square"/>
     </g>
     <g id="line2d_16">
      <g>
       <use xlink:href="#m7890e5ddd5" x="187.5456" y="298.944" style="stroke: #000000; stroke-width: 0.6"/>
      </g>
     </g>
    </g>
    <g id="xtick_7">
     <g id="line2d_17">
      <path d="M 274.176 298.944 
L 274.176 6.912 
" clip-path="url(#pc826ab7dfb)" style="fill: none; stroke: #b0b0b0; stroke-width: 0.8; stroke-linecap: square"/>
     </g>
     <g id="line2d_18">
      <g>
       <use xlink:href="#m7890e5ddd5" x="274.176" y="298.944" style="stroke: #000000; stroke-width: 0.6"/>
      </g>
     </g>
    </g>
    <g id="xtick_8">
     <g id="line2d_19">
      <path d="M 360.8064 298.944 
L 360.8064 6.912 
" clip-path="url(#pc826ab7dfb)" style="fill: none; stroke: #b0b0b0; stroke-width: 0.8; stroke-linecap: square"/>
     </g>
     <g id="line2d_20">
      <g>
       <use xlink:href="#m7890e5ddd5" x="360.8064" y="298.944" style="stroke: #000000; stroke-width: 0.6"/>
      </g>
     </g>
    </g>
    <g id="text_5">
     <!-- log10(# f-evals / dimension) -->
     <g transform="translate(88.823278 339.314156) scale(0.17 -0.17)">
      <defs>
       <path id="DejaVuSans-6c" d="M 603 4863 
L 1178 4863 
L 1178 0 
L 603 0 
L 603 4863 
z
" transform="scale(0.015625)"/>
       <path id="DejaVuSans-6f" d="M 1959 3097 
Q 1497 3097 1228 2736 
Q 959 2375 959 1747 
Q 959 1119 1226 758 
Q 1494 397 1959 397 
Q 2419 397 2687 759 
Q 2956 1122 2956 1747 
Q 2956 2369 2687 2733 
Q 2419 3097 1959 3097 
z
M 1959 3584 
Q 2709 3584 3137 3096 
Q 3566 2609 3566 1747 
Q 3566 888 3137 398 
Q 2709 -91 1959 -91 
Q 1206 -91 779 398 
Q 353 888 353 1747 
Q 353 2609 779 3096 
Q 1206 3584 1959 3584 
z
" transform="scale(0.015625)"/>
       <path id="DejaVuSans-67" d="M 2906 1791 
Q 2906 2416 2648 2759 
Q 2391 3103 1925 3103 
Q 1463 3103 1205 2759 
Q 947 2416 947 1791 
Q 947 1169 1205 825 
Q 1463 481 1925 481 
Q 2391 481 2648 825 
Q 2906 1169 2906 1791 
z
M 3481 434 
Q 3481 -459 3084 -895 
Q 2688 -1331 1869 -1331 
Q 1566 -1331 1297 -1286 
Q 1028 -1241 775 -1147 
L 775 -588 
Q 1028 -725 1275 -790 
Q 1522 -856 1778 -856 
Q 2344 -856 2625 -561 
Q 2906 -266 2906 331 
L 2906 616 
Q 2728 306 2450 153 
Q 2172 0 1784 0 
Q 1141 0 747 490 
Q 353 981 353 1791 
Q 353 2603 747 3093 
Q 1141 3584 1784 3584 
Q 2172 3584 2450 3431 
Q 2728 3278 2906 2969 
L 2906 3500 
L 3481 3500 
L 3481 434 
z
" transform="scale(0.015625)"/>
       <path id="DejaVuSans-31" d="M 794 531 
L 1825 531 
L 1825 4091 
L 703 3866 
L 703 4441 
L 1819 4666 
L 2450 4666 
L 2450 531 
L 3481 531 
L 3481 0 
L 794 0 
L 794 531 
z
" transform="scale(0.015625)"/>
       <path id="DejaVuSans-28" d="M 1984 4856 
Q 1566 4138 1362 3434 
Q 1159 2731 1159 2009 
Q 1159 1288 1364 580 
Q 1569 -128 1984 -844 
L 1484 -844 
Q 1016 -109 783 600 
Q 550 1309 550 2009 
Q 550 2706 781 3412 
Q 1013 4119 1484 4856 
L 1984 4856 
z
" transform="scale(0.015625)"/>
       <path id="DejaVuSans-23" d="M 3272 2816 
L 2363 2816 
L 2100 1772 
L 3016 1772 
L 3272 2816 
z
M 2803 4594 
L 2478 3297 
L 3391 3297 
L 3719 4594 
L 4219 4594 
L 3897 3297 
L 4872 3297 
L 4872 2816 
L 3775 2816 
L 3519 1772 
L 4513 1772 
L 4513 1294 
L 3397 1294 
L 3072 0 
L 2572 0 
L 2894 1294 
L 1978 1294 
L 1656 0 
L 1153 0 
L 1478 1294 
L 494 1294 
L 494 1772 
L 1594 1772 
L 1856 2816 
L 850 2816 
L 850 3297 
L 1978 3297 
L 2297 4594 
L 2803 4594 
z
" transform="scale(0.015625)"/>
       <path id="DejaVuSans-20" transform="scale(0.015625)"/>
       <path id="DejaVuSans-66" d="M 2375 4863 
L 2375 4384 
L 1825 4384 
Q 1516 4384 1395 4259 
Q 1275 4134 1275 3809 
L 1275 3500 
L 2222 3500 
L 2222 3053 
L 1275 3053 
L 1275 0 
L 697 0 
L 697 3053 
L 147 3053 
L 147 3500 
L 697 3500 
L 697 3744 
Q 697 4328 969 4595 
Q 1241 4863 1831 4863 
L 2375 4863 
z
" transform="scale(0.015625)"/>
       <path id="DejaVuSans-2d" d="M 313 2009 
L 1997 2009 
L 1997 1497 
L 313 1497 
L 313 2009 
z
" transform="scale(0.015625)"/>
       <path id="DejaVuSans-65" d="M 3597 1894 
L 3597 1613 
L 953 1613 
Q 991 1019 1311 708 
Q 1631 397 2203 397 
Q 2534 397 2845 478 
Q 3156 559 3463 722 
L 3463 178 
Q 3153 47 2828 -22 
Q 2503 -91 2169 -91 
Q 1331 -91 842 396 
Q 353 884 353 1716 
Q 353 2575 817 3079 
Q 1281 3584 2069 3584 
Q 2775 3584 3186 3129 
Q 3597 2675 3597 1894 
z
M 3022 2063 
Q 3016 2534 2758 2815 
Q 2500 3097 2075 3097 
Q 1594 3097 1305 2825 
Q 1016 2553 972 2059 
L 3022 2063 
z
" transform="scale(0.015625)"/>
       <path id="DejaVuSans-76" d="M 191 3500 
L 800 3500 
L 1894 563 
L 2988 3500 
L 3597 3500 
L 2284 0 
L 1503 0 
L 191 3500 
z
" transform="scale(0.015625)"/>
       <path id="DejaVuSans-61" d="M 2194 1759 
Q 1497 1759 1228 1600 
Q 959 1441 959 1056 
Q 959 750 1161 570 
Q 1363 391 1709 391 
Q 2188 391 2477 730 
Q 2766 1069 2766 1631 
L 2766 1759 
L 2194 1759 
z
M 3341 1997 
L 3341 0 
L 2766 0 
L 2766 531 
Q 2569 213 2275 61 
Q 1981 -91 1556 -91 
Q 1019 -91 701 211 
Q 384 513 384 1019 
Q 384 1609 779 1909 
Q 1175 2209 1959 2209 
L 2766 2209 
L 2766 2266 
Q 2766 2663 2505 2880 
Q 2244 3097 1772 3097 
Q 1472 3097 1187 3025 
Q 903 2953 641 2809 
L 641 3341 
Q 956 3463 1253 3523 
Q 1550 3584 1831 3584 
Q 2591 3584 2966 3190 
Q 3341 2797 3341 1997 
z
" transform="scale(0.015625)"/>
       <path id="DejaVuSans-73" d="M 2834 3397 
L 2834 2853 
Q 2591 2978 2328 3040 
Q 2066 3103 1784 3103 
Q 1356 3103 1142 2972 
Q 928 2841 928 2578 
Q 928 2378 1081 2264 
Q 1234 2150 1697 2047 
L 1894 2003 
Q 2506 1872 2764 1633 
Q 3022 1394 3022 966 
Q 3022 478 2636 193 
Q 2250 -91 1575 -91 
Q 1294 -91 989 -36 
Q 684 19 347 128 
L 347 722 
Q 666 556 975 473 
Q 1284 391 1588 391 
Q 1994 391 2212 530 
Q 2431 669 2431 922 
Q 2431 1156 2273 1281 
Q 2116 1406 1581 1522 
L 1381 1569 
Q 847 1681 609 1914 
Q 372 2147 372 2553 
Q 372 3047 722 3315 
Q 1072 3584 1716 3584 
Q 2034 3584 2315 3537 
Q 2597 3491 2834 3397 
z
" transform="scale(0.015625)"/>
       <path id="DejaVuSans-2f" d="M 1625 4666 
L 2156 4666 
L 531 -594 
L 0 -594 
L 1625 4666 
z
" transform="scale(0.015625)"/>
       <path id="DejaVuSans-64" d="M 2906 2969 
L 2906 4863 
L 3481 4863 
L 3481 0 
L 2906 0 
L 2906 525 
Q 2725 213 2448 61 
Q 2172 -91 1784 -91 
Q 1150 -91 751 415 
Q 353 922 353 1747 
Q 353 2572 751 3078 
Q 1150 3584 1784 3584 
Q 2172 3584 2448 3432 
Q 2725 3281 2906 2969 
z
M 947 1747 
Q 947 1113 1208 752 
Q 1469 391 1925 391 
Q 2381 391 2643 752 
Q 2906 1113 2906 1747 
Q 2906 2381 2643 2742 
Q 2381 3103 1925 3103 
Q 1469 3103 1208 2742 
Q 947 2381 947 1747 
z
" transform="scale(0.015625)"/>
       <path id="DejaVuSans-69" d="M 603 3500 
L 1178 3500 
L 1178 0 
L 603 0 
L 603 3500 
z
M 603 4863 
L 1178 4863 
L 1178 4134 
L 603 4134 
L 603 4863 
z
" transform="scale(0.015625)"/>
       <path id="DejaVuSans-6d" d="M 3328 2828 
Q 3544 3216 3844 3400 
Q 4144 3584 4550 3584 
Q 5097 3584 5394 3201 
Q 5691 2819 5691 2113 
L 5691 0 
L 5113 0 
L 5113 2094 
Q 5113 2597 4934 2840 
Q 4756 3084 4391 3084 
Q 3944 3084 3684 2787 
Q 3425 2491 3425 1978 
L 3425 0 
L 2847 0 
L 2847 2094 
Q 2847 2600 2669 2842 
Q 2491 3084 2119 3084 
Q 1678 3084 1418 2786 
Q 1159 2488 1159 1978 
L 1159 0 
L 581 0 
L 581 3500 
L 1159 3500 
L 1159 2956 
Q 1356 3278 1631 3431 
Q 1906 3584 2284 3584 
Q 2666 3584 2933 3390 
Q 3200 3197 3328 2828 
z
" transform="scale(0.015625)"/>
       <path id="DejaVuSans-6e" d="M 3513 2113 
L 3513 0 
L 2938 0 
L 2938 2094 
Q 2938 2591 2744 2837 
Q 2550 3084 2163 3084 
Q 1697 3084 1428 2787 
Q 1159 2491 1159 1978 
L 1159 0 
L 581 0 
L 581 3500 
L 1159 3500 
L 1159 2956 
Q 1366 3272 1645 3428 
Q 1925 3584 2291 3584 
Q 2894 3584 3203 3211 
Q 3513 2838 3513 2113 
z
" transform="scale(0.015625)"/>
       <path id="DejaVuSans-29" d="M 513 4856 
L 1013 4856 
Q 1481 4119 1714 3412 
Q 1947 2706 1947 2009 
Q 1947 1309 1714 600 
Q 1481 -109 1013 -844 
L 513 -844 
Q 928 -128 1133 580 
Q 1338 1288 1338 2009 
Q 1338 2731 1133 3434 
Q 928 4138 513 4856 
z
" transform="scale(0.015625)"/>
      </defs>
      <use xlink:href="#DejaVuSans-6c"/>
      <use xlink:href="#DejaVuSans-6f" x="27.783203"/>
      <use xlink:href="#DejaVuSans-67" x="88.964844"/>
      <use xlink:href="#DejaVuSans-31" x="152.441406"/>
      <use xlink:href="#DejaVuSans-30" x="216.064453"/>
      <use xlink:href="#DejaVuSans-28" x="279.6875"/>
      <use xlink:href="#DejaVuSans-23" x="318.701172"/>
      <use xlink:href="#DejaVuSans-20" x="402.490234"/>
      <use xlink:href="#DejaVuSans-66" x="434.277344"/>
      <use xlink:href="#DejaVuSans-2d" x="463.982422"/>
      <use xlink:href="#DejaVuSans-65" x="500.066406"/>
      <use xlink:href="#DejaVuSans-76" x="561.589844"/>
      <use xlink:href="#DejaVuSans-61" x="620.769531"/>
      <use xlink:href="#DejaVuSans-6c" x="682.048828"/>
      <use xlink:href="#DejaVuSans-73" x="709.832031"/>
      <use xlink:href="#DejaVuSans-20" x="761.931641"/>
      <use xlink:href="#DejaVuSans-2f" x="793.71875"/>
      <use xlink:href="#DejaVuSans-20" x="827.410156"/>
      <use xlink:href="#DejaVuSans-64" x="859.197266"/>
      <use xlink:href="#DejaVuSans-69" x="922.673828"/>
      <use xlink:href="#DejaVuSans-6d" x="950.457031"/>
      <use xlink:href="#DejaVuSans-65" x="1047.869141"/>
      <use xlink:href="#DejaVuSans-6e" x="1109.392578"/>
      <use xlink:href="#DejaVuSans-73" x="1172.771484"/>
      <use xlink:href="#DejaVuSans-69" x="1224.871094"/>
      <use xlink:href="#DejaVuSans-6f" x="1252.654297"/>
      <use xlink:href="#DejaVuSans-6e" x="1313.835938"/>
      <use xlink:href="#DejaVuSans-29" x="1377.214844"/>
     </g>
    </g>
   </g>
   <g id="matplotlib.axis_2">
    <g id="ytick_1">
     <g id="line2d_21">
      <path d="M 57.6 298.944 
L 360.8064 298.944 
" clip-path="url(#pc826ab7dfb)" style="fill: none; stroke: #b0b0b0; stroke-width: 0.8; stroke-linecap: square"/>
     </g>
     <g id="line2d_22">
      <defs>
       <path id="me3c8eaa1bb" d="M 0 0 
L -3.5 0 
" style="stroke: #000000; stroke-width: 0.8"/>
      </defs>
      <g>
       <use xlink:href="#me3c8eaa1bb" x="57.6" y="298.944" style="stroke: #000000; stroke-width: 0.8"/>
      </g>
     </g>
     <g id="text_6">
      <!-- 0.0 -->
      <g transform="translate(25.155 305.02275) scale(0.16 -0.16)">
       <defs>
        <path id="DejaVuSans-2e" d="M 684 794 
L 1344 794 
L 1344 0 
L 684 0 
L 684 794 
z
" transform="scale(0.015625)"/>
       </defs>
       <use xlink:href="#DejaVuSans-30"/>
       <use xlink:href="#DejaVuSans-2e" x="63.623047"/>
       <use xlink:href="#DejaVuSans-30" x="95.410156"/>
      </g>
     </g>
    </g>
    <g id="ytick_2">
     <g id="line2d_23">
      <path d="M 57.6 240.5376 
L 360.8064 240.5376 
" clip-path="url(#pc826ab7dfb)" style="fill: none; stroke: #b0b0b0; stroke-width: 0.8; stroke-linecap: square"/>
     </g>
     <g id="line2d_24">
      <g>
       <use xlink:href="#me3c8eaa1bb" x="57.6" y="240.5376" style="stroke: #000000; stroke-width: 0.8"/>
      </g>
     </g>
     <g id="text_7">
      <!-- 0.2 -->
      <g transform="translate(25.155 246.61635) scale(0.16 -0.16)">
       <use xlink:href="#DejaVuSans-30"/>
       <use xlink:href="#DejaVuSans-2e" x="63.623047"/>
       <use xlink:href="#DejaVuSans-32" x="95.410156"/>
      </g>
     </g>
    </g>
    <g id="ytick_3">
     <g id="line2d_25">
      <path d="M 57.6 182.1312 
L 360.8064 182.1312 
" clip-path="url(#pc826ab7dfb)" style="fill: none; stroke: #b0b0b0; stroke-width: 0.8; stroke-linecap: square"/>
     </g>
     <g id="line2d_26">
      <g>
       <use xlink:href="#me3c8eaa1bb" x="57.6" y="182.1312" style="stroke: #000000; stroke-width: 0.8"/>
      </g>
     </g>
     <g id="text_8">
      <!-- 0.4 -->
      <g transform="translate(25.155 188.20995) scale(0.16 -0.16)">
       <use xlink:href="#DejaVuSans-30"/>
       <use xlink:href="#DejaVuSans-2e" x="63.623047"/>
       <use xlink:href="#DejaVuSans-34" x="95.410156"/>
      </g>
     </g>
    </g>
    <g id="ytick_4">
     <g id="line2d_27">
      <path d="M 57.6 123.7248 
L 360.8064 123.7248 
" clip-path="url(#pc826ab7dfb)" style="fill: none; stroke: #b0b0b0; stroke-width: 0.8; stroke-linecap: square"/>
     </g>
     <g id="line2d_28">
      <g>
       <use xlink:href="#me3c8eaa1bb" x="57.6" y="123.7248" style="stroke: #000000; stroke-width: 0.8"/>
      </g>
     </g>
     <g id="text_9">
      <!-- 0.6 -->
      <g transform="translate(25.155 129.80355) scale(0.16 -0.16)">
       <use xlink:href="#DejaVuSans-30"/>
       <use xlink:href="#DejaVuSans-2e" x="63.623047"/>
       <use xlink:href="#DejaVuSans-36" x="95.410156"/>
      </g>
     </g>
    </g>
    <g id="ytick_5">
     <g id="line2d_29">
      <path d="M 57.6 65.3184 
L 360.8064 65.3184 
" clip-path="url(#pc826ab7dfb)" style="fill: none; stroke: #b0b0b0; stroke-width: 0.8; stroke-linecap: square"/>
     </g>
     <g id="line2d_30">
      <g>
       <use xlink:href="#me3c8eaa1bb" x="57.6" y="65.3184" style="stroke: #000000; stroke-width: 0.8"/>
      </g>
     </g>
     <g id="text_10">
      <!-- 0.8 -->
      <g transform="translate(25.155 71.39715) scale(0.16 -0.16)">
       <defs>
        <path id="DejaVuSans-38" d="M 2034 2216 
Q 1584 2216 1326 1975 
Q 1069 1734 1069 1313 
Q 1069 891 1326 650 
Q 1584 409 2034 409 
Q 2484 409 2743 651 
Q 3003 894 3003 1313 
Q 3003 1734 2745 1975 
Q 2488 2216 2034 2216 
z
M 1403 2484 
Q 997 2584 770 2862 
Q 544 3141 544 3541 
Q 544 4100 942 4425 
Q 1341 4750 2034 4750 
Q 2731 4750 3128 4425 
Q 3525 4100 3525 3541 
Q 3525 3141 3298 2862 
Q 3072 2584 2669 2484 
Q 3125 2378 3379 2068 
Q 3634 1759 3634 1313 
Q 3634 634 3220 271 
Q 2806 -91 2034 -91 
Q 1263 -91 848 271 
Q 434 634 434 1313 
Q 434 1759 690 2068 
Q 947 2378 1403 2484 
z
M 1172 3481 
Q 1172 3119 1398 2916 
Q 1625 2713 2034 2713 
Q 2441 2713 2670 2916 
Q 2900 3119 2900 3481 
Q 2900 3844 2670 4047 
Q 2441 4250 2034 4250 
Q 1625 4250 1398 4047 
Q 1172 3844 1172 3481 
z
" transform="scale(0.015625)"/>
       </defs>
       <use xlink:href="#DejaVuSans-30"/>
       <use xlink:href="#DejaVuSans-2e" x="63.623047"/>
       <use xlink:href="#DejaVuSans-38" x="95.410156"/>
      </g>
     </g>
    </g>
    <g id="ytick_6">
     <g id="line2d_31">
      <path d="M 57.6 6.912 
L 360.8064 6.912 
" clip-path="url(#pc826ab7dfb)" style="fill: none; stroke: #b0b0b0; stroke-width: 0.8; stroke-linecap: square"/>
     </g>
     <g id="line2d_32">
      <g>
       <use xlink:href="#me3c8eaa1bb" x="57.6" y="6.912" style="stroke: #000000; stroke-width: 0.8"/>
      </g>
     </g>
     <g id="text_11">
      <!-- 1.0 -->
      <g transform="translate(25.155 12.99075) scale(0.16 -0.16)">
       <use xlink:href="#DejaVuSans-31"/>
       <use xlink:href="#DejaVuSans-2e" x="63.623047"/>
       <use xlink:href="#DejaVuSans-30" x="95.410156"/>
      </g>
     </g>
    </g>
    <g id="text_12">
     <!-- Fraction of function,target pairs -->
     <g transform="translate(17.619531 287.313) rotate(-90) scale(0.17 -0.17)">
      <defs>
       <path id="DejaVuSans-46" d="M 628 4666 
L 3309 4666 
L 3309 4134 
L 1259 4134 
L 1259 2759 
L 3109 2759 
L 3109 2228 
L 1259 2228 
L 1259 0 
L 628 0 
L 628 4666 
z
" transform="scale(0.015625)"/>
       <path id="DejaVuSans-72" d="M 2631 2963 
Q 2534 3019 2420 3045 
Q 2306 3072 2169 3072 
Q 1681 3072 1420 2755 
Q 1159 2438 1159 1844 
L 1159 0 
L 581 0 
L 581 3500 
L 1159 3500 
L 1159 2956 
Q 1341 3275 1631 3429 
Q 1922 3584 2338 3584 
Q 2397 3584 2469 3576 
Q 2541 3569 2628 3553 
L 2631 2963 
z
" transform="scale(0.015625)"/>
       <path id="DejaVuSans-63" d="M 3122 3366 
L 3122 2828 
Q 2878 2963 2633 3030 
Q 2388 3097 2138 3097 
Q 1578 3097 1268 2742 
Q 959 2388 959 1747 
Q 959 1106 1268 751 
Q 1578 397 2138 397 
Q 2388 397 2633 464 
Q 2878 531 3122 666 
L 3122 134 
Q 2881 22 2623 -34 
Q 2366 -91 2075 -91 
Q 1284 -91 818 406 
Q 353 903 353 1747 
Q 353 2603 823 3093 
Q 1294 3584 2113 3584 
Q 2378 3584 2631 3529 
Q 2884 3475 3122 3366 
z
" transform="scale(0.015625)"/>
       <path id="DejaVuSans-74" d="M 1172 4494 
L 1172 3500 
L 2356 3500 
L 2356 3053 
L 1172 3053 
L 1172 1153 
Q 1172 725 1289 603 
Q 1406 481 1766 481 
L 2356 481 
L 2356 0 
L 1766 0 
Q 1100 0 847 248 
Q 594 497 594 1153 
L 594 3053 
L 172 3053 
L 172 3500 
L 594 3500 
L 594 4494 
L 1172 4494 
z
" transform="scale(0.015625)"/>
       <path id="DejaVuSans-75" d="M 544 1381 
L 544 3500 
L 1119 3500 
L 1119 1403 
Q 1119 906 1312 657 
Q 1506 409 1894 409 
Q 2359 409 2629 706 
Q 2900 1003 2900 1516 
L 2900 3500 
L 3475 3500 
L 3475 0 
L 2900 0 
L 2900 538 
Q 2691 219 2414 64 
Q 2138 -91 1772 -91 
Q 1169 -91 856 284 
Q 544 659 544 1381 
z
M 1991 3584 
L 1991 3584 
z
" transform="scale(0.015625)"/>
       <path id="DejaVuSans-2c" d="M 750 794 
L 1409 794 
L 1409 256 
L 897 -744 
L 494 -744 
L 750 256 
L 750 794 
z
" transform="scale(0.015625)"/>
       <path id="DejaVuSans-70" d="M 1159 525 
L 1159 -1331 
L 581 -1331 
L 581 3500 
L 1159 3500 
L 1159 2969 
Q 1341 3281 1617 3432 
Q 1894 3584 2278 3584 
Q 2916 3584 3314 3078 
Q 3713 2572 3713 1747 
Q 3713 922 3314 415 
Q 2916 -91 2278 -91 
Q 1894 -91 1617 61 
Q 1341 213 1159 525 
z
M 3116 1747 
Q 3116 2381 2855 2742 
Q 2594 3103 2138 3103 
Q 1681 3103 1420 2742 
Q 1159 2381 1159 1747 
Q 1159 1113 1420 752 
Q 1681 391 2138 391 
Q 2594 391 2855 752 
Q 3116 1113 3116 1747 
z
" transform="scale(0.015625)"/>
      </defs>
      <use xlink:href="#DejaVuSans-46"/>
      <use xlink:href="#DejaVuSans-72" x="50.269531"/>
      <use xlink:href="#DejaVuSans-61" x="91.382812"/>
      <use xlink:href="#DejaVuSans-63" x="152.662109"/>
      <use xlink:href="#DejaVuSans-74" x="207.642578"/>
      <use xlink:href="#DejaVuSans-69" x="246.851562"/>
      <use xlink:href="#DejaVuSans-6f" x="274.634766"/>
      <use xlink:href="#DejaVuSans-6e" x="335.816406"/>
      <use xlink:href="#DejaVuSans-20" x="399.195312"/>
      <use xlink:href="#DejaVuSans-6f" x="430.982422"/>
      <use xlink:href="#DejaVuSans-66" x="492.164062"/>
      <use xlink:href="#DejaVuSans-20" x="527.369141"/>
      <use xlink:href="#DejaVuSans-66" x="559.15625"/>
      <use xlink:href="#DejaVuSans-75" x="594.361328"/>
      <use xlink:href="#DejaVuSans-6e" x="657.740234"/>
      <use xlink:href="#DejaVuSans-63" x="721.119141"/>
      <use xlink:href="#DejaVuSans-74" x="776.099609"/>
      <use xlink:href="#DejaVuSans-69" x="815.308594"/>
      <use xlink:href="#DejaVuSans-6f" x="843.091797"/>
      <use xlink:href="#DejaVuSans-6e" x="904.273438"/>
      <use xlink:href="#DejaVuSans-2c" x="967.652344"/>
      <use xlink:href="#DejaVuSans-74" x="999.439453"/>
      <use xlink:href="#DejaVuSans-61" x="1038.648438"/>
      <use xlink:href="#DejaVuSans-72" x="1099.927734"/>
      <use xlink:href="#DejaVuSans-67" x="1139.291016"/>
      <use xlink:href="#DejaVuSans-65" x="1202.767578"/>
      <use xlink:href="#DejaVuSans-74" x="1264.291016"/>
      <use xlink:href="#DejaVuSans-20" x="1303.5"/>
      <use xlink:href="#DejaVuSans-70" x="1335.287109"/>
      <use xlink:href="#DejaVuSans-61" x="1398.763672"/>
      <use xlink:href="#DejaVuSans-69" x="1460.042969"/>
      <use xlink:href="#DejaVuSans-72" x="1487.826172"/>
      <use xlink:href="#DejaVuSans-73" x="1528.939453"/>
     </g>
    </g>
   </g>
   <g id="line2d_33">
    <defs>
     <path id="m857398bcc4" d="M 0 1.5 
C 0.397805 1.5 0.77937 1.341951 1.06066 1.06066 
C 1.341951 0.77937 1.5 0.397805 1.5 0 
C 1.5 -0.397805 1.341951 -0.77937 1.06066 -1.06066 
C 0.77937 -1.341951 0.397805 -1.5 0 -1.5 
C -0.397805 -1.5 -0.77937 -1.341951 -1.06066 -1.06066 
C -1.341951 -0.77937 -1.5 -0.397805 -1.5 0 
C -1.5 0.397805 -1.341951 0.77937 -1.06066 1.06066 
C -0.77937 1.341951 -0.397805 1.5 0 1.5 
z
" style="stroke: #f5deb3"/>
    </defs>
    <g>
     <use xlink:href="#m857398bcc4" x="281.664615" y="42.157241" style="fill: #f5deb3; stroke: #f5deb3"/>
     <use xlink:href="#m857398bcc4" x="281.664615" y="42.157241" style="fill: #f5deb3; stroke: #f5deb3"/>
    </g>
   </g>
   <g id="line2d_34">
    <defs>
     <path id="m612794264d" d="M 0 1.5 
C 0.397805 1.5 0.77937 1.341951 1.06066 1.06066 
C 1.341951 0.77937 1.5 0.397805 1.5 0 
C 1.5 -0.397805 1.341951 -0.77937 1.06066 -1.06066 
C 0.77937 -1.341951 0.397805 -1.5 0 -1.5 
C -0.397805 -1.5 -0.77937 -1.341951 -1.06066 -1.06066 
C -1.341951 -0.77937 -1.5 -0.397805 -1.5 0 
C -1.5 0.397805 -1.341951 0.77937 -1.06066 1.06066 
C -0.77937 1.341951 -0.397805 1.5 0 1.5 
z
" style="stroke: #000080"/>
    </defs>
    <g>
     <use xlink:href="#m612794264d" x="187.500398" y="192.830648" style="fill: #000080; stroke: #000080"/>
     <use xlink:href="#m612794264d" x="187.500398" y="192.830648" style="fill: #000080; stroke: #000080"/>
    </g>
   </g>
   <g id="line2d_35">
    <path d="M 27.323974 298.944 
L 27.323974 290.636193 
L 40.363149 290.636193 
L 40.363149 288.999807 
L 72.432107 288.999807 
L 72.432107 288.748055 
L 83.678349 288.748055 
L 83.678349 287.9928 
L 90.668036 287.9928 
L 90.668036 287.237545 
L 95.752617 287.237545 
L 95.752617 286.734041 
L 99.751228 286.734041 
L 99.751228 284.845903 
L 103.047088 284.845903 
L 103.047088 283.461269 
L 105.850679 283.461269 
L 105.850679 283.083641 
L 108.29012 283.083641 
L 108.29012 282.20251 
L 110.449226 282.20251 
L 110.449226 281.321379 
L 112.385837 281.321379 
L 112.385837 280.943752 
L 114.141556 280.943752 
L 114.141556 280.188497 
L 115.747307 280.188497 
L 115.747307 280.062621 
L 117.226706 280.062621 
L 117.226706 279.559117 
L 118.598196 279.559117 
L 118.598196 279.055614 
L 119.876453 279.055614 
L 119.876453 278.174483 
L 121.073351 278.174483 
L 121.073351 277.419228 
L 122.19863 277.419228 
L 122.19863 277.167476 
L 123.260379 277.167476 
L 123.260379 276.538097 
L 124.265389 276.538097 
L 124.265389 276.034593 
L 125.219419 276.034593 
L 125.219419 275.153462 
L 126.127391 275.153462 
L 126.127391 274.775834 
L 126.993549 274.775834 
L 126.993549 274.272331 
L 127.821575 274.272331 
L 127.821575 273.894703 
L 128.614685 273.894703 
L 128.614685 273.517076 
L 129.375706 273.517076 
L 129.375706 272.635945 
L 130.107132 272.635945 
L 130.107132 272.006566 
L 130.811181 272.006566 
L 130.811181 270.999559 
L 131.489828 270.999559 
L 131.489828 270.873683 
L 132.144842 270.873683 
L 132.144842 270.621931 
L 132.777813 270.621931 
L 132.777813 270.244303 
L 133.390178 270.244303 
L 133.390178 269.614924 
L 133.983236 269.614924 
L 133.983236 269.363172 
L 134.558167 269.363172 
L 134.558167 269.237297 
L 135.116046 269.237297 
L 135.116046 268.104414 
L 135.657857 268.104414 
L 135.657857 267.852662 
L 136.184497 267.852662 
L 136.184497 267.349159 
L 136.696795 267.349159 
L 136.696795 267.223283 
L 137.195511 267.223283 
L 137.195511 266.593903 
L 137.681345 266.593903 
L 137.681345 266.216276 
L 138.154948 266.216276 
L 138.154948 265.209269 
L 138.616919 265.209269 
L 138.616919 264.957517 
L 139.067817 264.957517 
L 139.067817 264.705766 
L 139.508159 264.705766 
L 139.508159 263.95051 
L 139.93843 263.95051 
L 139.93843 263.069379 
L 140.770526 263.069379 
L 140.770526 262.691752 
L 141.56737 262.691752 
L 141.56737 262.44 
L 141.953481 262.44 
L 141.953481 262.314124 
L 142.331827 262.314124 
L 142.331827 262.062372 
L 142.702713 262.062372 
L 142.702713 261.558869 
L 143.066428 261.558869 
L 143.066428 261.432993 
L 143.423243 261.432993 
L 143.423243 260.803614 
L 143.773417 260.803614 
L 143.773417 259.796607 
L 144.117191 259.796607 
L 144.117191 259.418979 
L 144.454795 259.418979 
L 144.454795 259.167228 
L 144.786447 259.167228 
L 144.786447 258.411972 
L 145.112353 258.411972 
L 145.112353 257.530841 
L 145.7477 257.530841 
L 145.7477 257.027338 
L 146.057504 257.027338 
L 146.057504 256.901462 
L 146.362288 256.901462 
L 146.362288 256.775586 
L 146.662213 256.775586 
L 146.662213 256.397959 
L 146.957431 256.397959 
L 146.957431 256.146207 
L 147.248088 256.146207 
L 147.248088 256.020331 
L 147.534321 256.020331 
L 147.534321 255.516828 
L 147.816265 255.516828 
L 147.816265 255.265076 
L 148.094045 255.265076 
L 148.094045 254.635697 
L 148.367783 254.635697 
L 148.367783 254.509821 
L 148.637595 254.509821 
L 148.637595 254.258069 
L 148.903591 254.258069 
L 148.903591 253.880441 
L 149.165879 253.880441 
L 149.165879 253.62869 
L 149.42456 253.62869 
L 149.42456 253.251062 
L 149.931489 253.251062 
L 149.931489 252.99931 
L 150.179921 252.99931 
L 150.179921 252.747559 
L 150.425115 252.747559 
L 150.425115 252.495807 
L 150.906118 252.495807 
L 150.906118 252.118179 
L 151.142085 252.118179 
L 151.142085 251.866428 
L 151.375128 251.866428 
L 151.375128 251.740552 
L 151.60532 251.740552 
L 151.60532 251.111172 
L 151.832729 251.111172 
L 151.832729 250.985297 
L 152.057422 250.985297 
L 152.057422 250.733545 
L 152.498913 250.733545 
L 152.498913 250.104166 
L 152.715833 250.104166 
L 152.715833 249.97829 
L 152.930279 249.97829 
L 152.930279 249.474786 
L 153.142309 249.474786 
L 153.142309 249.34891 
L 153.351976 249.34891 
L 153.351976 249.097159 
L 153.559331 249.097159 
L 153.559331 248.845407 
L 153.764426 248.845407 
L 153.764426 248.467779 
L 153.967309 248.467779 
L 153.967309 247.964276 
L 154.563149 247.964276 
L 154.563149 247.586648 
L 154.757642 247.586648 
L 154.757642 247.334897 
L 154.950144 247.334897 
L 154.950144 246.957269 
L 155.140696 246.957269 
L 155.140696 246.705517 
L 155.329337 246.705517 
L 155.329337 246.579641 
L 155.516105 246.579641 
L 155.516105 246.202014 
L 155.701037 246.202014 
L 155.701037 246.076138 
L 155.884169 246.076138 
L 155.884169 245.824386 
L 156.065535 245.824386 
L 156.065535 245.572634 
L 156.245169 245.572634 
L 156.245169 245.069131 
L 156.423104 245.069131 
L 156.423104 244.943255 
L 156.774003 244.943255 
L 156.774003 244.313876 
L 156.947029 244.313876 
L 156.947029 244.188 
L 157.118477 244.188 
L 157.118477 243.810372 
L 157.288377 243.810372 
L 157.288377 243.306869 
L 157.623641 243.306869 
L 157.623641 242.929241 
L 157.789059 242.929241 
L 157.789059 242.551614 
L 157.953034 242.551614 
L 157.953034 242.299862 
L 158.115593 242.299862 
L 158.115593 242.173986 
L 158.276759 242.173986 
L 158.276759 242.04811 
L 158.595008 242.04811 
L 158.595008 241.796359 
L 158.752135 241.796359 
L 158.752135 241.166979 
L 158.907961 241.166979 
L 158.907961 240.789352 
L 159.062507 240.789352 
L 159.062507 240.411724 
L 159.367841 240.411724 
L 159.367841 240.159972 
L 159.668298 240.159972 
L 159.668298 239.908221 
L 159.964032 239.908221 
L 159.964032 239.782345 
L 160.110173 239.782345 
L 160.110173 239.278841 
L 160.255188 239.278841 
L 160.255188 239.152966 
L 160.683643 239.152966 
L 160.683643 238.901214 
L 161.240147 238.901214 
L 161.240147 238.649462 
L 161.376738 238.649462 
L 161.376738 238.020083 
L 161.512345 238.020083 
L 161.512345 237.768331 
L 161.646981 237.768331 
L 161.646981 237.390703 
L 161.78066 237.390703 
L 161.78066 237.138952 
L 161.913396 237.138952 
L 161.913396 236.761324 
L 162.045202 236.761324 
L 162.045202 236.509572 
L 162.17609 236.509572 
L 162.17609 236.383697 
L 162.56338 236.383697 
L 162.56338 236.006069 
L 162.817213 236.006069 
L 162.817213 235.880193 
L 163.067666 235.880193 
L 163.067666 235.628441 
L 163.191653 235.628441 
L 163.191653 235.502566 
L 163.314829 235.502566 
L 163.314829 235.250814 
L 163.679588 235.250814 
L 163.679588 235.124938 
L 164.037409 235.124938 
L 164.037409 234.999062 
L 164.272231 234.999062 
L 164.272231 234.873186 
L 164.504157 234.873186 
L 164.504157 234.621434 
L 164.619057 234.621434 
L 164.619057 234.369683 
L 164.959603 234.369683 
L 164.959603 234.243807 
L 165.071763 234.243807 
L 165.071763 233.488552 
L 165.183257 233.488552 
L 165.294095 232.859172 
L 165.404283 232.859172 
L 165.51383 232.607421 
L 165.622743 232.607421 
L 165.622743 232.229793 
L 165.838694 232.229793 
L 165.838694 231.852166 
L 166.158043 231.852166 
L 166.263299 231.09691 
L 166.367969 231.09691 
L 166.47206 230.341655 
L 166.575579 230.341655 
L 166.678531 229.712276 
L 166.780922 229.712276 
L 166.882759 229.208772 
L 166.984048 229.208772 
L 167.084795 228.705269 
L 167.185004 228.705269 
L 167.185004 228.453517 
L 167.383837 228.453517 
L 167.383837 228.07589 
L 167.678199 228.07589 
L 167.678199 227.44651 
L 167.871912 227.44651 
L 167.871912 227.068883 
L 168.063651 227.068883 
L 168.063651 226.817131 
L 168.534619 226.817131 
L 168.534619 226.565379 
L 168.811641 226.565379 
L 168.903083 225.558372 
L 168.994082 225.558372 
L 169.084644 225.180745 
L 169.174771 225.180745 
L 169.264469 224.803117 
L 169.531024 224.803117 
L 169.531024 224.677241 
L 169.793854 224.677241 
L 169.880655 224.173738 
L 169.967056 224.173738 
L 170.053063 223.79611 
L 170.138678 223.79611 
L 170.223906 223.166731 
L 170.308749 223.166731 
L 170.308749 222.914979 
L 170.644345 222.914979 
L 170.644345 222.411476 
L 170.892171 222.411476 
L 170.97406 221.026841 
L 171.136775 221.026841 
L 171.217608 220.649214 
L 171.298095 220.649214 
L 171.298095 220.397462 
L 171.458043 220.397462 
L 171.537509 219.642207 
L 171.695443 219.642207 
L 171.695443 219.264579 
L 171.852062 219.264579 
L 171.852062 219.012828 
L 172.314244 219.012828 
L 172.314244 218.383448 
L 172.465815 218.383448 
L 172.465815 218.257572 
L 172.913335 218.257572 
L 172.913335 217.754069 
L 173.060174 217.754069 
L 173.133165 217.376441 
L 173.278305 217.376441 
L 173.278305 216.872938 
L 173.422332 216.872938 
L 173.422332 216.747062 
L 173.565266 216.747062 
L 173.636328 216.369434 
L 173.707122 216.369434 
L 173.77765 215.740055 
L 173.847916 215.740055 
L 173.917919 214.733048 
L 173.987664 214.733048 
L 174.05715 213.977793 
L 174.332558 213.977793 
L 174.332558 213.726041 
L 174.671243 213.726041 
L 174.671243 213.47429 
L 174.937868 213.47429 
L 174.937868 213.348414 
L 175.069777 213.348414 
L 175.069777 213.096662 
L 175.200767 213.096662 
L 175.265921 212.719034 
L 175.524306 212.719034 
L 175.524306 212.467283 
L 175.905348 212.467283 
L 175.905348 212.215531 
L 176.030666 212.215531 
L 176.093013 211.460276 
L 176.401688 211.460276 
L 176.401688 211.208524 
L 176.523753 211.208524 
L 176.523753 210.956772 
L 176.645031 210.956772 
L 176.645031 210.579145 
L 176.885267 210.579145 
L 176.885267 209.949766 
L 177.122474 209.949766 
L 177.122474 209.698014 
L 177.239965 209.698014 
L 177.239965 209.446262 
L 177.356727 209.446262 
L 177.356727 209.320386 
L 177.530521 209.320386 
L 177.530521 209.19451 
L 177.873367 209.19451 
L 177.929905 208.691007 
L 177.986274 208.691007 
L 177.986274 208.313379 
L 178.210076 208.313379 
L 178.320986 207.809876 
L 178.486135 207.809876 
L 178.540864 207.432248 
L 178.649847 207.432248 
L 178.758202 206.802869 
L 178.812146 206.802869 
L 178.865936 206.299366 
L 178.973057 206.299366 
L 179.079571 205.795862 
L 179.185485 205.795862 
L 179.185485 205.54411 
L 179.447692 205.54411 
L 179.55156 205.040607 
L 179.75759 205.040607 
L 179.808747 204.537103 
L 179.910646 204.537103 
L 180.011995 204.159476 
L 180.112802 204.159476 
L 180.163003 203.655972 
L 180.263006 203.655972 
L 180.312808 203.152469 
L 180.608887 203.152469 
L 180.657783 202.271338 
L 180.755196 202.271338 
L 180.852108 201.89371 
L 181.044446 201.89371 
L 181.044446 201.641959 
L 181.423321 201.641959 
L 181.423321 201.516083 
L 181.6563 201.516083 
L 181.6563 201.264331 
L 181.794715 201.264331 
L 181.794715 201.138455 
L 182.068527 201.138455 
L 182.068527 200.634952 
L 182.203953 200.634952 
L 182.293698 200.3832 
L 182.648457 200.3832 
L 182.736112 200.131448 
L 182.823359 200.131448 
L 182.866832 199.627945 
L 182.953477 199.627945 
L 182.953477 199.502069 
L 183.082701 199.502069 
L 183.082701 199.376193 
L 183.338515 199.376193 
L 183.380815 198.998566 
L 183.46513 198.998566 
L 183.507146 198.620938 
L 183.839939 198.620938 
L 183.881127 198.369186 
L 183.963234 198.369186 
L 183.963234 198.24331 
L 184.207426 198.24331 
L 184.207426 198.117434 
L 184.328343 198.117434 
L 184.328343 197.739807 
L 184.607497 197.739807 
L 184.607497 197.488055 
L 184.804387 197.488055 
L 184.804387 197.236303 
L 184.960429 197.236303 
L 184.960429 196.984552 
L 185.268681 196.984552 
L 185.344961 196.481048 
L 185.382986 196.481048 
L 185.458805 195.725793 
L 185.907413 195.725793 
L 185.907413 195.22229 
L 186.091221 195.22229 
L 186.091221 194.970538 
L 186.27325 194.970538 
L 186.345571 194.089407 
L 186.417615 194.089407 
L 186.525167 193.711779 
L 186.984247 193.711779 
L 187.088617 193.0824 
L 187.364137 193.0824 
L 187.364137 192.956524 
L 187.500398 192.956524 
L 187.500398 192.830648 
L 360.8064 192.830648 
L 360.8064 192.830648 
" style="fill: none; stroke: #000080; stroke-width: 1.5; stroke-linecap: square"/>
   </g>
   <g id="line2d_36">
    <defs>
     <path id="m2a64ab6bca" d="M 0 6 
C 1.591219 6 3.117479 5.367802 4.242641 4.242641 
C 5.367802 3.117479 6 1.591219 6 0 
C 6 -1.591219 5.367802 -3.117479 4.242641 -4.242641 
C 3.117479 -5.367802 1.591219 -6 0 -6 
C -1.591219 -6 -3.117479 -5.367802 -4.242641 -4.242641 
C -5.367802 -3.117479 -6 -1.591219 -6 0 
C -6 1.591219 -5.367802 3.117479 -4.242641 4.242641 
C -3.117479 5.367802 -1.591219 6 0 6 
z
" style="stroke: #000080; stroke-width: 1.5"/>
    </defs>
    <g>
     <use xlink:href="#m2a64ab6bca" x="72.432107" y="288.999807" style="fill-opacity: 0; stroke: #000080; stroke-width: 1.5"/>
     <use xlink:href="#m2a64ab6bca" x="147.816265" y="255.516828" style="fill-opacity: 0; stroke: #000080; stroke-width: 1.5"/>
     <use xlink:href="#m2a64ab6bca" x="187.500398" y="192.956524" style="fill-opacity: 0; stroke: #000080; stroke-width: 1.5"/>
     <use xlink:href="#m2a64ab6bca" x="187.500398" y="192.830648" style="fill-opacity: 0; stroke: #000080; stroke-width: 1.5"/>
     <use xlink:href="#m2a64ab6bca" x="187.500398" y="192.830648" style="fill-opacity: 0; stroke: #000080; stroke-width: 1.5"/>
     <use xlink:href="#m2a64ab6bca" x="360.8064" y="192.830648" style="fill-opacity: 0; stroke: #000080; stroke-width: 1.5"/>
    </g>
   </g>
   <g id="line2d_37">
    <path style="fill: none; stroke: #000080; stroke-width: 1.5; stroke-linecap: square"/>
    <g/>
   </g>
   <g id="line2d_38">
    <path d="M 187.530545 192.830648 
" clip-path="url(#pc826ab7dfb)" style="fill: none; stroke: #000080; stroke-width: 1.5; stroke-linecap: square"/>
    <defs>
     <path id="m574f883a54" d="M -12 12 
L 12 -12 
M -12 -12 
L 12 12 
" style="stroke: #000080"/>
    </defs>
    <g clip-path="url(#pc826ab7dfb)">
     <use xlink:href="#m574f883a54" x="187.530545" y="192.830648" style="fill: #000080; stroke: #000080"/>
    </g>
   </g>
   <g id="line2d_39">
    <defs>
     <path id="m225e3a7028" d="M 0 1.5 
C 0.397805 1.5 0.77937 1.341951 1.06066 1.06066 
C 1.341951 0.77937 1.5 0.397805 1.5 0 
C 1.5 -0.397805 1.341951 -0.77937 1.06066 -1.06066 
C 0.77937 -1.341951 0.397805 -1.5 0 -1.5 
C -0.397805 -1.5 -0.77937 -1.341951 -1.06066 -1.06066 
C -1.341951 -0.77937 -1.5 -0.397805 -1.5 0 
C -1.5 0.397805 -1.341951 0.77937 -1.06066 1.06066 
C -0.77937 1.341951 -0.397805 1.5 0 1.5 
z
" style="stroke: #ff00ff"/>
    </defs>
    <g>
     <use xlink:href="#m225e3a7028" x="187.443742" y="181.375945" style="fill: #ff00ff; stroke: #ff00ff"/>
     <use xlink:href="#m225e3a7028" x="187.443742" y="181.375945" style="fill: #ff00ff; stroke: #ff00ff"/>
    </g>
   </g>
   <g id="line2d_40">
    <path d="M 27.323974 298.944 
L 27.323974 290.636193 
L 40.363149 290.636193 
L 40.363149 290.258566 
L 66.441498 290.258566 
L 66.441498 288.748055 
L 76.96874 288.748055 
L 76.96874 287.741048 
L 83.678349 287.741048 
L 83.678349 286.985793 
L 88.613828 286.985793 
L 88.613828 286.104662 
L 92.519847 286.104662 
L 92.519847 285.727034 
L 95.752617 285.727034 
L 95.752617 285.097655 
L 98.510456 285.097655 
L 98.510456 284.971779 
L 100.9152 284.971779 
L 100.9152 284.594152 
L 103.047088 284.594152 
L 103.047088 283.713021 
L 104.961779 283.713021 
L 104.961779 283.587145 
L 105.559021 283.587145 
L 105.559021 283.335393 
L 106.699465 283.335393 
L 106.699465 282.454262 
L 107.244765 282.454262 
L 107.244765 282.328386 
L 107.774703 282.328386 
L 107.774703 281.950759 
L 108.29012 281.950759 
L 108.29012 281.699007 
L 108.791791 281.699007 
L 108.791791 281.447255 
L 109.280431 281.447255 
L 109.280431 281.195503 
L 110.221204 281.195503 
L 110.221204 280.440248 
L 111.117162 280.440248 
L 111.117162 280.314372 
L 111.762192 280.314372 
L 111.762192 280.062621 
L 112.180244 280.062621 
L 112.180244 279.810869 
L 112.589207 279.810869 
L 112.589207 279.684993 
L 113.381389 279.684993 
L 113.381389 279.559117 
L 113.57433 279.559117 
L 113.57433 279.18149 
L 113.765312 279.18149 
L 113.765312 278.929738 
L 114.326893 278.929738 
L 114.326893 278.803862 
L 114.510421 278.803862 
L 114.510421 278.677986 
L 114.692177 278.677986 
L 114.692177 278.55211 
L 114.872193 278.55211 
L 114.872193 278.426234 
L 115.575511 278.426234 
L 115.575511 278.300359 
L 115.917548 278.300359 
L 115.917548 278.174483 
L 116.086263 278.174483 
L 116.086263 278.048607 
L 116.419219 278.048607 
L 116.419219 277.545103 
L 116.583514 277.545103 
L 116.583514 277.293352 
L 117.540239 277.293352 
L 117.540239 277.0416 
L 118.000953 277.0416 
L 118.000953 276.915724 
L 118.152051 276.915724 
L 118.152051 276.789848 
L 118.301945 276.789848 
L 118.301945 276.663972 
L 118.450653 276.663972 
L 118.450653 276.412221 
L 118.598196 276.412221 
L 118.598196 276.286345 
L 118.889854 276.286345 
L 118.889854 276.034593 
L 119.034004 276.034593 
L 119.034004 275.782841 
L 119.177058 275.782841 
L 119.177058 275.656966 
L 119.459944 275.656966 
L 119.459944 275.53109 
L 119.738639 275.53109 
L 119.738639 275.405214 
L 120.013265 275.405214 
L 120.013265 275.279338 
L 120.149089 275.279338 
L 120.149089 275.153462 
L 120.28394 275.153462 
L 120.28394 275.027586 
L 120.41783 275.027586 
L 120.41783 274.90171 
L 120.550775 274.90171 
L 120.550775 274.775834 
L 120.944062 274.775834 
L 120.944062 274.649959 
L 121.201758 274.649959 
L 121.201758 274.524083 
L 121.455972 274.524083 
L 121.455972 274.398207 
L 121.954321 274.398207 
L 121.954321 274.272331 
L 122.19863 274.272331 
L 122.19863 274.146455 
L 123.145323 274.146455 
L 123.145323 274.020579 
L 123.260379 274.020579 
L 123.260379 273.894703 
L 123.713691 273.894703 
L 123.713691 273.768828 
L 123.825333 273.768828 
L 123.825333 273.642952 
L 124.373813 273.642952 
L 124.481616 273.139448 
L 125.115773 273.139448 
L 125.219419 272.761821 
L 125.425011 272.761821 
L 125.526971 272.258317 
L 125.628382 272.258317 
L 125.628382 271.88069 
L 126.709238 271.88069 
L 126.709238 271.754814 
L 126.899255 271.754814 
L 126.993549 271.25131 
L 127.366067 271.25131 
L 127.366067 271.125434 
L 127.549596 271.125434 
L 127.549596 270.999559 
L 127.731351 270.999559 
L 127.731351 270.747807 
L 128.178203 270.747807 
L 128.178203 270.621931 
L 128.354013 270.621931 
L 128.354013 270.370179 
L 128.528195 270.370179 
L 128.614685 269.7408 
L 128.871795 269.7408 
L 128.871795 269.614924 
L 129.041269 269.614924 
L 129.125437 269.237297 
L 129.622688 269.237297 
L 129.622688 269.111421 
L 129.86647 269.111421 
L 129.86647 268.985545 
L 130.107132 268.985545 
L 130.107132 268.859669 
L 130.265881 268.859669 
L 130.344755 267.978538 
L 130.4233 267.978538 
L 130.4233 267.852662 
L 131.115828 267.852662 
L 131.191226 267.223283 
L 131.341119 267.223283 
L 131.41562 266.719779 
L 131.63737 266.719779 
L 131.71071 266.468028 
L 131.783764 266.468028 
L 131.856536 266.216276 
L 131.929028 266.216276 
L 131.929028 266.0904 
L 132.073179 266.0904 
L 132.144842 265.838648 
L 132.499119 265.838648 
L 132.499119 265.335145 
L 132.638982 265.335145 
L 132.708526 265.083393 
L 132.984158 265.083393 
L 133.05244 264.705766 
L 133.188264 264.705766 
L 133.188264 264.57989 
L 133.323114 264.57989 
L 133.390178 264.202262 
L 133.656071 264.202262 
L 133.656071 264.076386 
L 133.853052 264.076386 
L 133.918257 263.698759 
L 134.558167 263.698759 
L 134.620977 263.321131 
L 134.683578 263.321131 
L 134.683578 262.943503 
L 135.054871 262.943503 
L 135.054871 262.691752 
L 135.237805 262.691752 
L 135.237805 262.44 
L 135.418977 262.44 
L 135.418977 262.188248 
L 135.59842 262.188248 
L 135.59842 261.558869 
L 135.776169 261.558869 
L 135.776169 261.432993 
L 136.010584 261.432993 
L 136.010584 261.307117 
L 136.184497 261.307117 
L 136.184497 261.181241 
L 136.470828 261.181241 
L 136.470828 261.055366 
L 136.584151 261.055366 
L 136.584151 260.92949 
L 136.808769 260.92949 
L 136.808769 260.551862 
L 137.140746 260.551862 
L 137.140746 260.425986 
L 137.574461 260.425986 
L 137.574461 260.30011 
L 137.998402 260.30011 
L 138.050729 260.048359 
L 138.515235 260.048359 
L 138.616919 259.544855 
L 138.718057 259.544855 
L 138.718057 259.293103 
L 138.868751 259.293103 
L 138.918715 259.041352 
L 139.018248 259.041352 
L 139.067817 258.7896 
L 139.362521 258.7896 
L 139.362521 258.663724 
L 139.556456 258.663724 
L 139.556456 258.411972 
L 139.700607 258.411972 
L 139.700607 258.286097 
L 140.032723 258.286097 
L 140.126547 257.404966 
L 140.26641 257.404966 
L 140.26641 257.27909 
L 140.451292 257.27909 
L 140.451292 257.153214 
L 141.084433 257.153214 
L 141.084433 257.027338 
L 141.217377 257.027338 
L 141.261484 256.64971 
L 141.65386 256.64971 
L 141.65386 256.523834 
L 141.782854 256.523834 
L 141.782854 256.397959 
L 141.910969 256.397959 
L 141.953481 255.894455 
L 142.038218 255.894455 
L 142.080444 255.642703 
L 142.290162 255.642703 
L 142.290162 255.516828 
L 142.865233 255.516828 
L 142.945969 255.013324 
L 143.540694 255.013324 
L 143.579681 254.635697 
L 143.696162 254.635697 
L 143.734829 254.383945 
L 143.811926 254.383945 
L 143.811926 254.258069 
L 144.117191 254.258069 
L 144.155003 253.754566 
L 144.267986 253.754566 
L 144.342932 253.251062 
L 144.968202 253.251062 
L 145.076419 252.621683 
L 145.148219 252.621683 
L 145.148219 252.495807 
L 145.361989 252.495807 
L 145.397382 252.244055 
L 145.503164 252.244055 
L 145.608355 251.614676 
L 145.886021 251.614676 
L 145.886021 251.111172 
L 146.023332 251.111172 
L 146.023332 250.859421 
L 146.159649 250.859421 
L 146.261241 250.607669 
L 146.429353 250.607669 
L 146.429353 250.104166 
L 146.595975 250.104166 
L 146.695245 249.474786 
L 146.924857 249.474786 
L 146.924857 249.34891 
L 147.087167 249.34891 
L 147.087167 249.223034 
L 147.471089 249.223034 
L 147.534321 248.845407 
L 147.597342 248.845407 
L 147.628773 248.467779 
L 147.753975 248.467779 
L 147.753975 248.216028 
L 147.878349 248.216028 
L 147.971093 247.712524 
L 148.094045 247.712524 
L 148.094045 247.460772 
L 148.367783 247.460772 
L 148.428077 247.209021 
L 148.637595 247.209021 
L 148.726679 246.705517 
L 148.75628 246.705517 
L 148.75628 246.579641 
L 149.194798 246.579641 
L 149.194798 246.453766 
L 149.510002 246.453766 
L 149.510002 246.32789 
L 149.65155 246.32789 
L 149.707872 245.572634 
L 149.903682 245.572634 
L 149.903682 245.446759 
L 150.069911 245.446759 
L 150.069911 245.320883 
L 150.289291 245.320883 
L 150.398028 244.943255 
L 150.452162 244.943255 
L 150.479171 244.565628 
L 150.613636 244.565628 
L 150.613636 244.313876 
L 150.773735 244.313876 
L 150.8268 244.062124 
L 151.142085 244.062124 
L 151.220087 243.684497 
L 151.349377 243.684497 
L 151.349377 243.558621 
L 151.528902 243.558621 
L 151.554409 243.180993 
L 151.807597 243.180993 
L 151.907925 242.803366 
L 151.95789 242.803366 
L 152.032588 242.173986 
L 152.303973 242.173986 
L 152.303973 241.922234 
L 152.426047 241.922234 
L 152.498913 241.544607 
L 152.547334 241.544607 
L 152.643804 241.292855 
L 152.739781 241.292855 
L 152.811444 240.915228 
L 152.859068 240.915228 
L 152.930279 240.411724 
L 152.977604 240.411724 
L 153.071898 239.656469 
L 153.095398 239.656469 
L 153.165721 239.404717 
L 153.235783 239.404717 
L 153.235783 239.278841 
L 153.375128 239.278841 
L 153.375128 239.152966 
L 153.832297 239.152966 
L 153.832297 239.02709 
L 154.056781 239.02709 
L 154.056781 238.901214 
L 154.541415 238.901214 
L 154.628204 238.145959 
L 154.714595 238.145959 
L 154.779128 237.894207 
L 155.119618 237.894207 
L 155.18278 237.516579 
L 155.30847 237.516579 
L 155.329337 237.013076 
L 155.474761 237.013076 
L 155.536743 236.383697 
L 156.085579 236.383697 
L 156.085579 236.131945 
L 156.265023 236.131945 
L 156.34423 235.754317 
L 156.403417 235.754317 
L 156.403417 235.628441 
L 156.677186 235.628441 
L 156.677186 235.37669 
L 156.966156 235.37669 
L 156.966156 234.999062 
L 157.118477 234.999062 
L 157.118477 234.495559 
L 157.288377 234.495559 
L 157.363398 234.117931 
L 157.419468 234.117931 
L 157.419468 233.992055 
L 157.53111 233.992055 
L 157.605171 233.740303 
L 157.770751 233.740303 
L 157.770751 233.488552 
L 157.934885 233.488552 
L 157.934885 233.362676 
L 158.151527 233.362676 
L 158.25892 232.733297 
L 158.330176 232.733297 
L 158.330176 232.481545 
L 158.471883 232.481545 
L 158.471883 232.355669 
L 158.665004 232.355669 
L 158.665004 232.229793 
L 159.011133 232.229793 
L 159.011133 232.103917 
L 159.130788 232.103917 
L 159.198823 231.222786 
L 159.249688 231.222786 
L 159.249688 231.09691 
L 159.367841 231.09691 
L 159.401463 230.467531 
L 159.734419 230.467531 
L 159.783859 230.215779 
L 159.849576 230.215779 
L 159.947723 229.838152 
L 160.255188 229.838152 
L 160.287262 229.460524 
L 160.399093 229.460524 
L 160.399093 229.208772 
L 160.541906 229.208772 
L 160.541906 229.082897 
L 160.839886 229.082897 
L 160.933013 228.579393 
L 160.994842 228.579393 
L 160.994842 228.453517 
L 161.194395 228.453517 
L 161.300977 228.201766 
L 161.452196 228.201766 
L 161.55733 227.572386 
L 161.810238 227.572386 
L 161.825009 226.943007 
L 162.05979 226.943007 
L 162.05979 226.817131 
L 162.233972 226.817131 
L 162.233972 226.565379 
L 162.349204 226.565379 
L 162.435167 226.061876 
L 162.648372 226.061876 
L 162.718906 225.810124 
L 162.817213 225.810124 
L 162.817213 225.558372 
L 162.956765 225.558372 
L 163.053839 224.551366 
L 163.437203 224.551366 
L 163.531835 224.047862 
L 163.639407 224.047862 
L 163.746367 223.418483 
L 163.91889 223.418483 
L 163.945293 223.040855 
L 164.285191 223.040855 
L 164.375662 222.537352 
L 164.427166 222.537352 
L 164.452864 222.159724 
L 164.568077 222.159724 
L 164.619057 221.656221 
L 164.682588 221.656221 
L 164.720604 221.278593 
L 164.897003 221.278593 
L 164.997064 220.77509 
L 165.059334 220.77509 
L 165.096597 220.397462 
L 165.170902 220.397462 
L 165.170902 220.14571 
L 165.343147 220.14571 
L 165.367626 219.642207 
L 165.92201 219.642207 
L 166.004959 218.886952 
L 166.099311 218.886952 
L 166.204896 218.383448 
L 166.344759 218.383448 
L 166.448979 218.005821 
L 166.587046 218.005821 
L 166.655701 217.12469 
L 166.701332 217.12469 
L 166.8036 216.621186 
L 166.826251 216.621186 
L 166.837566 216.243559 
L 166.995269 216.243559 
L 167.028891 215.740055 
L 167.372845 215.740055 
L 167.438697 215.488303 
L 167.602324 215.488303 
L 167.689013 214.858924 
L 167.721419 214.858924 
L 167.818303 214.481297 
L 167.882616 214.481297 
L 167.882616 214.355421 
L 168.116567 214.355421 
L 168.116567 214.229545 
L 168.242961 214.229545 
L 168.3163 213.977793 
L 168.430973 213.977793 
L 168.4725 213.600166 
L 168.658244 213.600166 
L 168.719753 212.719034 
L 169.284344 212.719034 
L 169.383404 212.215531 
L 169.413021 212.215531 
L 169.521218 211.3344 
L 169.619042 211.3344 
L 169.638546 211.082648 
L 169.87103 211.082648 
L 169.976632 210.453269 
L 170.043526 210.453269 
L 170.091163 209.949766 
L 170.205 209.949766 
L 170.223906 209.572138 
L 170.598091 209.572138 
L 170.708911 208.691007 
L 170.992209 208.691007 
L 170.992209 208.313379 
L 171.235523 208.313379 
L 171.253422 208.061628 
L 171.449192 208.061628 
L 171.458043 207.432248 
L 171.67796 207.432248 
L 171.773916 206.425241 
L 171.869384 206.425241 
L 171.869384 206.299366 
L 172.007388 206.299366 
L 172.007388 206.17349 
L 172.135853 206.17349 
L 172.212513 205.418234 
L 172.449034 205.418234 
L 172.449034 205.292359 
L 172.599527 205.292359 
L 172.682617 204.662979 
L 172.724025 204.662979 
L 172.724025 204.537103 
L 172.85592 204.537103 
L 172.85592 204.411228 
L 172.995054 204.411228 
L 173.043915 203.781848 
L 173.294362 203.781848 
L 173.342453 203.278345 
L 173.438268 203.278345 
L 173.438268 203.026593 
L 173.549438 203.026593 
L 173.549438 202.774841 
L 173.675691 202.774841 
L 173.675691 202.648966 
L 173.863495 202.648966 
L 173.886839 202.145462 
L 174.134058 202.145462 
L 174.180052 201.767834 
L 174.248833 201.767834 
L 174.248833 201.641959 
L 174.483838 201.641959 
L 174.559024 200.760828 
L 174.767961 200.760828 
L 174.79762 200.257324 
L 174.989276 200.257324 
L 175.098964 199.250317 
L 175.142661 199.250317 
L 175.142661 199.124441 
L 175.623838 199.124441 
L 175.680478 198.620938 
L 175.835365 198.620938 
L 175.88438 197.991559 
L 175.954182 197.991559 
L 176.044539 197.362179 
L 176.11375 197.362179 
L 176.162047 196.7328 
L 176.271976 196.7328 
L 176.271976 196.481048 
L 176.388076 196.481048 
L 176.435674 195.977545 
L 176.778874 195.977545 
L 176.885267 195.725793 
L 177.050311 195.725793 
L 177.050311 195.599917 
L 177.161719 195.599917 
L 177.226946 194.844662 
L 177.395487 194.844662 
L 177.395487 194.718786 
L 177.588098 194.718786 
L 177.696375 193.963531 
L 177.715419 193.963531 
L 177.791399 193.208276 
L 177.961242 193.208276 
L 177.967504 192.956524 
L 178.086071 192.956524 
L 178.160572 192.578897 
L 178.290243 192.578897 
L 178.290243 192.453021 
L 178.498311 192.453021 
L 178.534791 191.823641 
L 178.643809 191.823641 
L 178.734177 191.194262 
L 178.931471 191.194262 
L 178.943362 190.690759 
L 179.044133 190.690759 
L 179.044133 190.564883 
L 179.296641 190.564883 
L 179.372318 190.313131 
L 179.505467 190.313131 
L 179.545804 189.809628 
L 179.654857 189.809628 
L 179.694876 189.306124 
L 179.842775 189.306124 
L 179.842775 189.054372 
L 180.040051 189.054372 
L 180.045657 188.802621 
L 180.296222 188.802621 
L 180.401022 188.424993 
L 180.428504 188.424993 
L 180.499771 187.92149 
L 180.652356 187.92149 
L 180.706553 187.417986 
L 180.803715 187.417986 
L 180.868211 187.040359 
L 181.055074 187.040359 
L 181.139882 186.788607 
L 181.171587 186.788607 
L 181.171587 186.662731 
L 181.350246 186.662731 
L 181.41811 186.285103 
L 181.789607 186.285103 
L 181.789607 186.159228 
L 181.982756 186.159228 
L 182.043341 185.655724 
L 182.288723 185.655724 
L 182.363205 185.026345 
L 182.565296 185.026345 
L 182.565296 184.900469 
L 182.731253 184.900469 
L 182.731253 184.648717 
L 182.871656 184.648717 
L 182.871656 184.522841 
L 183.015807 184.522841 
L 183.015807 184.27109 
L 183.469803 184.27109 
L 183.469803 184.019338 
L 183.632634 184.019338 
L 183.725052 183.389959 
L 183.922225 183.389959 
L 183.922225 183.264083 
L 184.130892 183.264083 
L 184.211918 183.012331 
L 185.382986 183.012331 
L 185.382986 182.886455 
L 185.576142 182.886455 
L 185.576142 182.760579 
L 185.759062 182.760579 
L 185.759062 182.634703 
L 185.895095 182.634703 
L 185.956604 182.1312 
L 186.131824 182.1312 
L 186.148041 181.879448 
L 186.461507 181.879448 
L 186.461507 181.753572 
L 186.828554 181.753572 
L 186.828554 181.627697 
L 187.02297 181.627697 
L 187.02297 181.501821 
L 187.443742 181.501821 
L 187.443742 181.375945 
L 360.8064 181.375945 
L 360.8064 181.375945 
" style="fill: none; stroke: #ff00ff; stroke-width: 1.5; stroke-linecap: square"/>
   </g>
   <g id="line2d_41">
    <defs>
     <path id="m513dd2ab0f" d="M -0 8.485281 
L 5.091169 0 
L 0 -8.485281 
L -5.091169 -0 
z
" style="stroke: #ff00ff; stroke-width: 1.5; stroke-linejoin: miter"/>
    </defs>
    <g>
     <use xlink:href="#m513dd2ab0f" x="105.559021" y="283.335393" style="fill-opacity: 0; stroke: #ff00ff; stroke-width: 1.5; stroke-linejoin: miter"/>
     <use xlink:href="#m513dd2ab0f" x="163.91889" y="223.418483" style="fill-opacity: 0; stroke: #ff00ff; stroke-width: 1.5; stroke-linejoin: miter"/>
     <use xlink:href="#m513dd2ab0f" x="187.443742" y="181.501821" style="fill-opacity: 0; stroke: #ff00ff; stroke-width: 1.5; stroke-linejoin: miter"/>
     <use xlink:href="#m513dd2ab0f" x="187.443742" y="181.375945" style="fill-opacity: 0; stroke: #ff00ff; stroke-width: 1.5; stroke-linejoin: miter"/>
     <use xlink:href="#m513dd2ab0f" x="187.443742" y="181.375945" style="fill-opacity: 0; stroke: #ff00ff; stroke-width: 1.5; stroke-linejoin: miter"/>
     <use xlink:href="#m513dd2ab0f" x="360.8064" y="181.375945" style="fill-opacity: 0; stroke: #ff00ff; stroke-width: 1.5; stroke-linejoin: miter"/>
    </g>
   </g>
   <g id="line2d_42">
    <path style="fill: none; stroke: #ff00ff; stroke-width: 1.5; stroke-linecap: square"/>
    <g/>
   </g>
   <g id="line2d_43">
    <path d="M 187.523013 181.375945 
" clip-path="url(#pc826ab7dfb)" style="fill: none; stroke: #ff00ff; stroke-width: 1.5; stroke-linecap: square"/>
    <defs>
     <path id="m0177d20fbe" d="M -12 12 
L 12 -12 
M -12 -12 
L 12 12 
" style="stroke: #ff00ff"/>
    </defs>
    <g clip-path="url(#pc826ab7dfb)">
     <use xlink:href="#m0177d20fbe" x="187.523013" y="181.375945" style="fill: #ff00ff; stroke: #ff00ff"/>
    </g>
   </g>
   <g id="line2d_44">
    <path d="M 360.8064 192.830648 
L 380.514816 293.10336 
" style="fill: none; stroke: #000080; stroke-width: 1.5; stroke-linecap: square"/>
    <g>
     <use xlink:href="#m2a64ab6bca" x="360.8064" y="192.830648" style="fill-opacity: 0; stroke: #000080; stroke-width: 1.5"/>
     <use xlink:href="#m2a64ab6bca" x="380.514816" y="293.10336" style="fill-opacity: 0; stroke: #000080; stroke-width: 1.5"/>
    </g>
   </g>
   <g id="line2d_45">
    <path d="M 360.8064 181.375945 
L 380.514816 152.928 
" style="fill: none; stroke: #ff00ff; stroke-width: 1.5; stroke-linecap: square"/>
    <g>
     <use xlink:href="#m513dd2ab0f" x="360.8064" y="181.375945" style="fill-opacity: 0; stroke: #ff00ff; stroke-width: 1.5; stroke-linejoin: miter"/>
     <use xlink:href="#m513dd2ab0f" x="380.514816" y="152.928" style="fill-opacity: 0; stroke: #ff00ff; stroke-width: 1.5; stroke-linejoin: miter"/>
    </g>
   </g>
   <g id="line2d_46">
    <path d="M 360.8064 298.944 
L 360.8064 6.912 
" style="fill: none; stroke: #000000; stroke-width: 1.5; stroke-linecap: square"/>
   </g>
   <g id="patch_3">
    <path d="M 57.6 298.944 
L 360.8064 298.944 
" style="fill: none; stroke: #000000; stroke-width: 0.8; stroke-linejoin: miter; stroke-linecap: square"/>
   </g>
   <g id="patch_4">
    <path d="M 57.6 6.912 
L 360.8064 6.912 
" style="fill: none; stroke: #000000; stroke-width: 0.8; stroke-linejoin: miter; stroke-linecap: square"/>
   </g>
   <g id="text_13">
    <!-- kerComo -->
    <g transform="translate(386.578944 296.966485) scale(0.14 -0.14)">
     <defs>
      <path id="DejaVuSans-6b" d="M 581 4863 
L 1159 4863 
L 1159 1991 
L 2875 3500 
L 3609 3500 
L 1753 1863 
L 3688 0 
L 2938 0 
L 1159 1709 
L 1159 0 
L 581 0 
L 581 4863 
z
" transform="scale(0.015625)"/>
      <path id="DejaVuSans-43" d="M 4122 4306 
L 4122 3641 
Q 3803 3938 3442 4084 
Q 3081 4231 2675 4231 
Q 1875 4231 1450 3742 
Q 1025 3253 1025 2328 
Q 1025 1406 1450 917 
Q 1875 428 2675 428 
Q 3081 428 3442 575 
Q 3803 722 4122 1019 
L 4122 359 
Q 3791 134 3420 21 
Q 3050 -91 2638 -91 
Q 1578 -91 968 557 
Q 359 1206 359 2328 
Q 359 3453 968 4101 
Q 1578 4750 2638 4750 
Q 3056 4750 3426 4639 
Q 3797 4528 4122 4306 
z
" transform="scale(0.015625)"/>
     </defs>
     <use xlink:href="#DejaVuSans-6b"/>
     <use xlink:href="#DejaVuSans-65" x="54.285156"/>
     <use xlink:href="#DejaVuSans-72" x="115.808594"/>
     <use xlink:href="#DejaVuSans-43" x="156.921875"/>
     <use xlink:href="#DejaVuSans-6f" x="226.746094"/>
     <use xlink:href="#DejaVuSans-6d" x="287.927734"/>
     <use xlink:href="#DejaVuSans-6f" x="385.339844"/>
    </g>
   </g>
   <g id="text_14">
    <!-- kerLQ -->
    <g transform="translate(386.578944 156.791125) scale(0.14 -0.14)">
     <defs>
      <path id="DejaVuSans-4c" d="M 628 4666 
L 1259 4666 
L 1259 531 
L 3531 531 
L 3531 0 
L 628 0 
L 628 4666 
z
" transform="scale(0.015625)"/>
      <path id="DejaVuSans-51" d="M 2522 4238 
Q 1834 4238 1429 3725 
Q 1025 3213 1025 2328 
Q 1025 1447 1429 934 
Q 1834 422 2522 422 
Q 3209 422 3611 934 
Q 4013 1447 4013 2328 
Q 4013 3213 3611 3725 
Q 3209 4238 2522 4238 
z
M 3406 84 
L 4238 -825 
L 3475 -825 
L 2784 -78 
Q 2681 -84 2626 -87 
Q 2572 -91 2522 -91 
Q 1538 -91 948 567 
Q 359 1225 359 2328 
Q 359 3434 948 4092 
Q 1538 4750 2522 4750 
Q 3503 4750 4090 4092 
Q 4678 3434 4678 2328 
Q 4678 1516 4351 937 
Q 4025 359 3406 84 
z
" transform="scale(0.015625)"/>
     </defs>
     <use xlink:href="#DejaVuSans-6b"/>
     <use xlink:href="#DejaVuSans-65" x="54.285156"/>
     <use xlink:href="#DejaVuSans-72" x="115.808594"/>
     <use xlink:href="#DejaVuSans-4c" x="156.921875"/>
     <use xlink:href="#DejaVuSans-51" x="212.634766"/>
    </g>
   </g>
   <g id="text_15">
    <!-- best 2016 -->
    <g transform="translate(386.578944 16.615765) scale(0.14 -0.14)">
     <defs>
      <path id="DejaVuSans-62" d="M 3116 1747 
Q 3116 2381 2855 2742 
Q 2594 3103 2138 3103 
Q 1681 3103 1420 2742 
Q 1159 2381 1159 1747 
Q 1159 1113 1420 752 
Q 1681 391 2138 391 
Q 2594 391 2855 752 
Q 3116 1113 3116 1747 
z
M 1159 2969 
Q 1341 3281 1617 3432 
Q 1894 3584 2278 3584 
Q 2916 3584 3314 3078 
Q 3713 2572 3713 1747 
Q 3713 922 3314 415 
Q 2916 -91 2278 -91 
Q 1894 -91 1617 61 
Q 1341 213 1159 525 
L 1159 0 
L 581 0 
L 581 4863 
L 1159 4863 
L 1159 2969 
z
" transform="scale(0.015625)"/>
     </defs>
     <use xlink:href="#DejaVuSans-62"/>
     <use xlink:href="#DejaVuSans-65" x="63.476562"/>
     <use xlink:href="#DejaVuSans-73" x="125"/>
     <use xlink:href="#DejaVuSans-74" x="177.099609"/>
     <use xlink:href="#DejaVuSans-20" x="216.308594"/>
     <use xlink:href="#DejaVuSans-32" x="248.095703"/>
     <use xlink:href="#DejaVuSans-30" x="311.71875"/>
     <use xlink:href="#DejaVuSans-31" x="375.341797"/>
     <use xlink:href="#DejaVuSans-36" x="438.964844"/>
    </g>
   </g>
   <g id="text_16">
    <!-- bbob-biobj f5, f6, f14, f15, 5-D -->
    <g transform="translate(60.632064 17.582726) scale(0.102 -0.102)">
     <defs>
      <path id="DejaVuSans-6a" d="M 603 3500 
L 1178 3500 
L 1178 -63 
Q 1178 -731 923 -1031 
Q 669 -1331 103 -1331 
L -116 -1331 
L -116 -844 
L 38 -844 
Q 366 -844 484 -692 
Q 603 -541 603 -63 
L 603 3500 
z
M 603 4863 
L 1178 4863 
L 1178 4134 
L 603 4134 
L 603 4863 
z
" transform="scale(0.015625)"/>
      <path id="DejaVuSans-35" d="M 691 4666 
L 3169 4666 
L 3169 4134 
L 1269 4134 
L 1269 2991 
Q 1406 3038 1543 3061 
Q 1681 3084 1819 3084 
Q 2600 3084 3056 2656 
Q 3513 2228 3513 1497 
Q 3513 744 3044 326 
Q 2575 -91 1722 -91 
Q 1428 -91 1123 -41 
Q 819 9 494 109 
L 494 744 
Q 775 591 1075 516 
Q 1375 441 1709 441 
Q 2250 441 2565 725 
Q 2881 1009 2881 1497 
Q 2881 1984 2565 2268 
Q 2250 2553 1709 2553 
Q 1456 2553 1204 2497 
Q 953 2441 691 2322 
L 691 4666 
z
" transform="scale(0.015625)"/>
      <path id="DejaVuSans-44" d="M 1259 4147 
L 1259 519 
L 2022 519 
Q 2988 519 3436 956 
Q 3884 1394 3884 2338 
Q 3884 3275 3436 3711 
Q 2988 4147 2022 4147 
L 1259 4147 
z
M 628 4666 
L 1925 4666 
Q 3281 4666 3915 4102 
Q 4550 3538 4550 2338 
Q 4550 1131 3912 565 
Q 3275 0 1925 0 
L 628 0 
L 628 4666 
z
" transform="scale(0.015625)"/>
     </defs>
     <use xlink:href="#DejaVuSans-62"/>
     <use xlink:href="#DejaVuSans-62" x="63.476562"/>
     <use xlink:href="#DejaVuSans-6f" x="126.953125"/>
     <use xlink:href="#DejaVuSans-62" x="188.134766"/>
     <use xlink:href="#DejaVuSans-2d" x="251.611328"/>
     <use xlink:href="#DejaVuSans-62" x="287.695312"/>
     <use xlink:href="#DejaVuSans-69" x="351.171875"/>
     <use xlink:href="#DejaVuSans-6f" x="378.955078"/>
     <use xlink:href="#DejaVuSans-62" x="440.136719"/>
     <use xlink:href="#DejaVuSans-6a" x="503.613281"/>
     <use xlink:href="#DejaVuSans-20" x="531.396484"/>
     <use xlink:href="#DejaVuSans-66" x="563.183594"/>
     <use xlink:href="#DejaVuSans-35" x="598.388672"/>
     <use xlink:href="#DejaVuSans-2c" x="662.011719"/>
     <use xlink:href="#DejaVuSans-20" x="693.798828"/>
     <use xlink:href="#DejaVuSans-66" x="725.585938"/>
     <use xlink:href="#DejaVuSans-36" x="760.791016"/>
     <use xlink:href="#DejaVuSans-2c" x="824.414062"/>
     <use xlink:href="#DejaVuSans-20" x="856.201172"/>
     <use xlink:href="#DejaVuSans-66" x="887.988281"/>
     <use xlink:href="#DejaVuSans-31" x="923.193359"/>
     <use xlink:href="#DejaVuSans-34" x="986.816406"/>
     <use xlink:href="#DejaVuSans-2c" x="1050.439453"/>
     <use xlink:href="#DejaVuSans-20" x="1082.226562"/>
     <use xlink:href="#DejaVuSans-66" x="1114.013672"/>
     <use xlink:href="#DejaVuSans-31" x="1149.21875"/>
     <use xlink:href="#DejaVuSans-35" x="1212.841797"/>
     <use xlink:href="#DejaVuSans-2c" x="1276.464844"/>
     <use xlink:href="#DejaVuSans-20" x="1308.251953"/>
     <use xlink:href="#DejaVuSans-35" x="1340.039062"/>
     <use xlink:href="#DejaVuSans-2d" x="1403.662109"/>
     <use xlink:href="#DejaVuSans-44" x="1439.746094"/>
    </g>
    <!-- 58 targets: 1..-1.0e-4 -->
    <g transform="translate(60.632064 29.004495) scale(0.102 -0.102)">
     <defs>
      <path id="DejaVuSans-3a" d="M 750 794 
L 1409 794 
L 1409 0 
L 750 0 
L 750 794 
z
M 750 3309 
L 1409 3309 
L 1409 2516 
L 750 2516 
L 750 3309 
z
" transform="scale(0.015625)"/>
     </defs>
     <use xlink:href="#DejaVuSans-35"/>
     <use xlink:href="#DejaVuSans-38" x="63.623047"/>
     <use xlink:href="#DejaVuSans-20" x="127.246094"/>
     <use xlink:href="#DejaVuSans-74" x="159.033203"/>
     <use xlink:href="#DejaVuSans-61" x="198.242188"/>
     <use xlink:href="#DejaVuSans-72" x="259.521484"/>
     <use xlink:href="#DejaVuSans-67" x="298.884766"/>
     <use xlink:href="#DejaVuSans-65" x="362.361328"/>
     <use xlink:href="#DejaVuSans-74" x="423.884766"/>
     <use xlink:href="#DejaVuSans-73" x="463.09375"/>
     <use xlink:href="#DejaVuSans-3a" x="515.193359"/>
     <use xlink:href="#DejaVuSans-20" x="548.884766"/>
     <use xlink:href="#DejaVuSans-31" x="580.671875"/>
     <use xlink:href="#DejaVuSans-2e" x="644.294922"/>
     <use xlink:href="#DejaVuSans-2e" x="676.082031"/>
     <use xlink:href="#DejaVuSans-2d" x="707.869141"/>
     <use xlink:href="#DejaVuSans-31" x="743.953125"/>
     <use xlink:href="#DejaVuSans-2e" x="807.576172"/>
     <use xlink:href="#DejaVuSans-30" x="839.363281"/>
     <use xlink:href="#DejaVuSans-65" x="902.986328"/>
     <use xlink:href="#DejaVuSans-2d" x="964.509766"/>
     <use xlink:href="#DejaVuSans-34" x="1000.59375"/>
    </g>
    <!-- 10 instances -->
    <g transform="translate(60.632064 40.426264) scale(0.102 -0.102)">
     <use xlink:href="#DejaVuSans-31"/>
     <use xlink:href="#DejaVuSans-30" x="63.623047"/>
     <use xlink:href="#DejaVuSans-20" x="127.246094"/>
     <use xlink:href="#DejaVuSans-69" x="159.033203"/>
     <use xlink:href="#DejaVuSans-6e" x="186.816406"/>
     <use xlink:href="#DejaVuSans-73" x="250.195312"/>
     <use xlink:href="#DejaVuSans-74" x="302.294922"/>
     <use xlink:href="#DejaVuSans-61" x="341.503906"/>
     <use xlink:href="#DejaVuSans-6e" x="402.783203"/>
     <use xlink:href="#DejaVuSans-63" x="466.162109"/>
     <use xlink:href="#DejaVuSans-65" x="521.142578"/>
     <use xlink:href="#DejaVuSans-73" x="582.666016"/>
    </g>
   </g>
   <g id="text_17">
    <!-- v2.6, hv-hash=ff0e71e8cd978373 -->
    <g style="fill: #808080" transform="translate(123.707887 293.943992) scale(0.1 -0.1)">
     <defs>
      <path id="DejaVuSans-68" d="M 3513 2113 
L 3513 0 
L 2938 0 
L 2938 2094 
Q 2938 2591 2744 2837 
Q 2550 3084 2163 3084 
Q 1697 3084 1428 2787 
Q 1159 2491 1159 1978 
L 1159 0 
L 581 0 
L 581 4863 
L 1159 4863 
L 1159 2956 
Q 1366 3272 1645 3428 
Q 1925 3584 2291 3584 
Q 2894 3584 3203 3211 
Q 3513 2838 3513 2113 
z
" transform="scale(0.015625)"/>
      <path id="DejaVuSans-3d" d="M 678 2906 
L 4684 2906 
L 4684 2381 
L 678 2381 
L 678 2906 
z
M 678 1631 
L 4684 1631 
L 4684 1100 
L 678 1100 
L 678 1631 
z
" transform="scale(0.015625)"/>
      <path id="DejaVuSans-37" d="M 525 4666 
L 3525 4666 
L 3525 4397 
L 1831 0 
L 1172 0 
L 2766 4134 
L 525 4134 
L 525 4666 
z
" transform="scale(0.015625)"/>
      <path id="DejaVuSans-39" d="M 703 97 
L 703 672 
Q 941 559 1184 500 
Q 1428 441 1663 441 
Q 2288 441 2617 861 
Q 2947 1281 2994 2138 
Q 2813 1869 2534 1725 
Q 2256 1581 1919 1581 
Q 1219 1581 811 2004 
Q 403 2428 403 3163 
Q 403 3881 828 4315 
Q 1253 4750 1959 4750 
Q 2769 4750 3195 4129 
Q 3622 3509 3622 2328 
Q 3622 1225 3098 567 
Q 2575 -91 1691 -91 
Q 1453 -91 1209 -44 
Q 966 3 703 97 
z
M 1959 2075 
Q 2384 2075 2632 2365 
Q 2881 2656 2881 3163 
Q 2881 3666 2632 3958 
Q 2384 4250 1959 4250 
Q 1534 4250 1286 3958 
Q 1038 3666 1038 3163 
Q 1038 2656 1286 2365 
Q 1534 2075 1959 2075 
z
" transform="scale(0.015625)"/>
      <path id="DejaVuSans-33" d="M 2597 2516 
Q 3050 2419 3304 2112 
Q 3559 1806 3559 1356 
Q 3559 666 3084 287 
Q 2609 -91 1734 -91 
Q 1441 -91 1130 -33 
Q 819 25 488 141 
L 488 750 
Q 750 597 1062 519 
Q 1375 441 1716 441 
Q 2309 441 2620 675 
Q 2931 909 2931 1356 
Q 2931 1769 2642 2001 
Q 2353 2234 1838 2234 
L 1294 2234 
L 1294 2753 
L 1863 2753 
Q 2328 2753 2575 2939 
Q 2822 3125 2822 3475 
Q 2822 3834 2567 4026 
Q 2313 4219 1838 4219 
Q 1578 4219 1281 4162 
Q 984 4106 628 3988 
L 628 4550 
Q 988 4650 1302 4700 
Q 1616 4750 1894 4750 
Q 2613 4750 3031 4423 
Q 3450 4097 3450 3541 
Q 3450 3153 3228 2886 
Q 3006 2619 2597 2516 
z
" transform="scale(0.015625)"/>
     </defs>
     <use xlink:href="#DejaVuSans-76"/>
     <use xlink:href="#DejaVuSans-32" x="59.179688"/>
     <use xlink:href="#DejaVuSans-2e" x="122.802734"/>
     <use xlink:href="#DejaVuSans-36" x="154.589844"/>
     <use xlink:href="#DejaVuSans-2c" x="218.212891"/>
     <use xlink:href="#DejaVuSans-20" x="250"/>
     <use xlink:href="#DejaVuSans-68" x="281.787109"/>
     <use xlink:href="#DejaVuSans-76" x="345.166016"/>
     <use xlink:href="#DejaVuSans-2d" x="401.720703"/>
     <use xlink:href="#DejaVuSans-68" x="437.804688"/>
     <use xlink:href="#DejaVuSans-61" x="501.183594"/>
     <use xlink:href="#DejaVuSans-73" x="562.462891"/>
     <use xlink:href="#DejaVuSans-68" x="614.5625"/>
     <use xlink:href="#DejaVuSans-3d" x="677.941406"/>
     <use xlink:href="#DejaVuSans-66" x="761.730469"/>
     <use xlink:href="#DejaVuSans-66" x="796.935547"/>
     <use xlink:href="#DejaVuSans-30" x="832.140625"/>
     <use xlink:href="#DejaVuSans-65" x="895.763672"/>
     <use xlink:href="#DejaVuSans-37" x="957.287109"/>
     <use xlink:href="#DejaVuSans-31" x="1020.910156"/>
     <use xlink:href="#DejaVuSans-65" x="1084.533203"/>
     <use xlink:href="#DejaVuSans-38" x="1146.056641"/>
     <use xlink:href="#DejaVuSans-63" x="1209.679688"/>
     <use xlink:href="#DejaVuSans-64" x="1264.660156"/>
     <use xlink:href="#DejaVuSans-39" x="1328.136719"/>
     <use xlink:href="#DejaVuSans-37" x="1391.759766"/>
     <use xlink:href="#DejaVuSans-38" x="1455.382812"/>
     <use xlink:href="#DejaVuSans-33" x="1519.005859"/>
     <use xlink:href="#DejaVuSans-37" x="1582.628906"/>
     <use xlink:href="#DejaVuSans-33" x="1646.251953"/>
    </g>
   </g>
  </g>
 </g>
 <defs>
  <clipPath id="pc826ab7dfb">
   <rect x="57.6" y="6.912" width="303.2064" height="292.032"/>
  </clipPath>
 </defs>
</svg>
