<?xml version="1.0" encoding="utf-8" standalone="no"?>
<!DOCTYPE svg PUBLIC "-//W3C//DTD SVG 1.1//EN"
  "http://www.w3.org/Graphics/SVG/1.1/DTD/svg11.dtd">
<svg xmlns:xlink="http://www.w3.org/1999/xlink" width="460.8pt" height="345.6pt" viewBox="0 0 460.8 345.6" xmlns="http://www.w3.org/2000/svg" version="1.1">
 <metadata>
  <rdf:RDF xmlns:dc="http://purl.org/dc/elements/1.1/" xmlns:cc="http://creativecommons.org/ns#" xmlns:rdf="http://www.w3.org/1999/02/22-rdf-syntax-ns#">
   <cc:Work>
    <dc:type rdf:resource="http://purl.org/dc/dcmitype/StillImage"/>
    <dc:date>2023-02-10T20:28:27.909791</dc:date>
    <dc:format>image/svg+xml</dc:format>
    <dc:creator>
     <cc:Agent>
      <dc:title>Matplotlib v3.6.3, https://matplotlib.org/</dc:title>
     </cc:Agent>
    </dc:creator>
   </cc:Work>
  </rdf:RDF>
 </metadata>
 <defs>
  <style type="text/css">*{stroke-linejoin: round; stroke-linecap: butt}</style>
 </defs>
 <g id="figure_1">
  <g id="patch_1">
   <path d="M 0 345.6 
L 460.8 345.6 
L 460.8 0 
L 0 0 
z
" style="fill: #ffffff"/>
  </g>
  <g id="axes_1">
   <g id="patch_2">
    <path d="M 57.6 298.944 
L 360.8064 298.944 
L 360.8064 6.912 
L 57.6 6.912 
z
" style="fill: #ffffff"/>
   </g>
   <g id="line2d_1">
    <path d="M 70.639174 298.944 
L 70.639174 293.908966 
L 74.836851 293.908966 
L 74.836851 292.650207 
L 78.266603 292.650207 
L 78.266603 287.615172 
L 85.894031 287.615172 
L 85.894031 285.097655 
L 87.876026 285.097655 
L 87.876026 283.838897 
L 91.305777 283.838897 
L 91.305777 281.321379 
L 94.205591 281.321379 
L 94.205591 278.803862 
L 96.717523 278.803862 
L 96.717523 273.768828 
L 97.857967 273.768828 
L 97.857967 272.510069 
L 104.344952 272.510069 
L 104.344952 271.25131 
L 105.850679 271.25131 
L 105.850679 269.992552 
L 107.244765 269.992552 
L 107.244765 268.733793 
L 108.542628 268.733793 
L 108.542628 261.181241 
L 110.335561 261.181241 
L 110.335561 257.404966 
L 112.487797 257.404966 
L 112.487797 254.887448 
L 115.314838 254.887448 
L 115.314838 251.111172 
L 118.152051 251.111172 
L 118.152051 249.852414 
L 118.889854 249.852414 
L 118.889854 247.334897 
L 119.24818 247.334897 
L 119.24818 244.817379 
L 122.19863 244.817379 
L 122.19863 242.299862 
L 123.936316 242.299862 
L 123.936316 239.782345 
L 125.011554 239.782345 
L 125.011554 238.523586 
L 126.028642 238.523586 
L 126.028642 237.264828 
L 127.686077 237.264828 
L 127.686077 236.006069 
L 127.911368 236.006069 
L 127.911368 233.488552 
L 131.191226 233.488552 
L 131.191226 229.712276 
L 132.638982 229.712276 
L 132.638982 227.194759 
L 132.984158 227.194759 
L 132.984158 224.677241 
L 137.654681 224.677241 
L 137.654681 220.900966 
L 138.566146 220.900966 
L 138.566146 217.12469 
L 139.191172 217.12469 
L 139.191172 214.607172 
L 142.038218 214.607172 
L 142.038218 210.830897 
L 145.058426 210.830897 
L 145.058426 208.313379 
L 145.415054 208.313379 
L 145.415054 205.795862 
L 145.93763 205.795862 
L 145.93763 203.278345 
L 148.503173 203.278345 
L 148.503173 200.760828 
L 148.874221 200.760828 
L 148.874221 198.24331 
L 150.760445 198.24331 
L 150.760445 195.725793 
L 152.775647 195.725793 
L 152.775647 193.208276 
L 152.894708 193.208276 
L 152.953957 188.173241 
L 155.701037 188.173241 
L 155.701037 186.914483 
L 156.793307 186.914483 
L 156.793307 185.655724 
L 158.933807 185.655724 
L 158.933807 183.138207 
L 160.581385 183.138207 
L 160.581385 179.361931 
L 160.894266 179.361931 
L 160.894266 175.585655 
L 161.048777 175.585655 
L 161.048777 173.068138 
L 162.420867 173.068138 
L 162.420867 171.809379 
L 165.084184 171.809379 
L 165.084184 170.550621 
L 166.373767 170.550621 
L 166.373767 169.291862 
L 167.16834 169.291862 
L 167.16834 165.515586 
L 167.361848 165.515586 
L 167.361848 164.256828 
L 167.957371 164.256828 
L 167.957371 162.998069 
L 169.244573 162.998069 
L 169.244573 159.221793 
L 171.20416 159.221793 
L 171.20416 156.704276 
L 171.647326 156.704276 
L 171.647326 152.928 
L 172.356469 152.928 
L 172.356469 149.151724 
L 174.241203 149.151724 
L 174.241203 145.375448 
L 176.888582 145.375448 
L 176.888582 144.11669 
L 178.704102 144.11669 
L 178.704102 142.857931 
L 178.883832 142.857931 
L 178.883832 139.081655 
L 181.779386 139.081655 
L 181.779386 136.564138 
L 186.33153 136.564138 
L 186.33153 135.305379 
L 188.065084 135.305379 
L 188.065084 132.787862 
L 190.951822 132.787862 
L 190.951822 129.011586 
L 193.121231 129.011586 
L 193.121231 125.23531 
L 194.574168 125.23531 
L 194.574168 123.976552 
L 196.363569 123.976552 
L 196.363569 122.717793 
L 198.769255 122.717793 
L 198.769255 120.200276 
L 199.365688 120.200276 
L 199.365688 117.682759 
L 200.35767 117.682759 
L 200.35767 116.424 
L 201.897054 116.424 
L 201.897054 112.647724 
L 203.908412 112.647724 
L 203.908412 108.871448 
L 205.578046 108.871448 
L 205.578046 106.353931 
L 207.587431 106.353931 
L 207.587431 105.095172 
L 211.269906 105.095172 
L 211.269906 103.836414 
L 212.900062 103.836414 
L 212.900062 102.577655 
L 214.316477 102.577655 
L 214.316477 98.801379 
L 214.487943 98.801379 
L 214.573094 93.766345 
L 215.175925 93.766345 
L 215.175925 91.248828 
L 215.429703 91.248828 
L 215.429703 89.990069 
L 219.919892 89.990069 
L 219.919892 86.213793 
L 221.002047 86.213793 
L 221.002047 82.437517 
L 227.68479 82.437517 
L 227.68479 81.178759 
L 228.796062 81.178759 
L 228.796062 78.661241 
L 229.606556 78.661241 
L 229.606556 76.143724 
L 229.759761 76.143724 
L 229.824472 68.591172 
L 230.503776 68.591172 
L 230.503776 66.073655 
L 230.669837 66.073655 
L 230.669837 62.297379 
L 236.986367 62.297379 
L 236.986367 59.779862 
L 246.21946 59.779862 
L 246.21946 58.521103 
L 252.967319 58.521103 
L 252.967319 56.003586 
L 254.343183 56.003586 
L 254.343183 53.486069 
L 259.251358 53.486069 
L 259.251358 52.22731 
L 260.751406 52.22731 
L 260.751406 48.451034 
L 266.087637 48.451034 
L 266.087637 45.933517 
L 273.325692 45.933517 
L 273.325692 42.157241 
L 360.8064 42.157241 
L 360.8064 42.157241 
" style="fill: none; stroke: #f5deb3; stroke-width: 4; stroke-linecap: square"/>
   </g>
   <g id="line2d_2">
    <defs>
     <path id="mca77d1defd" d="M -0 7.778175 
L 7.778175 0 
L 0 -7.778175 
L -7.778175 -0 
z
" style="stroke: #f5deb3; stroke-width: 1.5; stroke-linejoin: miter"/>
    </defs>
    <g>
     <use xlink:href="#mca77d1defd" x="148.874221" y="198.24331" style="fill: #f5deb3; stroke: #f5deb3; stroke-width: 1.5; stroke-linejoin: miter"/>
     <use xlink:href="#mca77d1defd" x="221.002047" y="86.213793" style="fill: #f5deb3; stroke: #f5deb3; stroke-width: 1.5; stroke-linejoin: miter"/>
     <use xlink:href="#mca77d1defd" x="273.325692" y="42.157241" style="fill: #f5deb3; stroke: #f5deb3; stroke-width: 1.5; stroke-linejoin: miter"/>
     <use xlink:href="#mca77d1defd" x="273.325692" y="42.157241" style="fill: #f5deb3; stroke: #f5deb3; stroke-width: 1.5; stroke-linejoin: miter"/>
     <use xlink:href="#mca77d1defd" x="360.8064" y="42.157241" style="fill: #f5deb3; stroke: #f5deb3; stroke-width: 1.5; stroke-linejoin: miter"/>
    </g>
   </g>
   <g id="line2d_3">
    <path style="fill: none; stroke: #f5deb3; stroke-width: 4; stroke-linecap: square"/>
    <g/>
   </g>
   <g id="line2d_4">
    <path d="M 360.8064 42.157241 
L 380.514816 12.75264 
" style="fill: none; stroke: #f5deb3; stroke-width: 4; stroke-linecap: square"/>
    <g>
     <use xlink:href="#mca77d1defd" x="360.8064" y="42.157241" style="fill: #f5deb3; stroke: #f5deb3; stroke-width: 1.5; stroke-linejoin: miter"/>
     <use xlink:href="#mca77d1defd" x="380.514816" y="12.75264" style="fill: #f5deb3; stroke: #f5deb3; stroke-width: 1.5; stroke-linejoin: miter"/>
    </g>
   </g>
   <g id="matplotlib.axis_1">
    <g id="xtick_1">
     <g id="line2d_5">
      <path d="M 57.6 298.944 
L 57.6 6.912 
" clip-path="url(#p7e02ad020f)" style="fill: none; stroke: #b0b0b0; stroke-width: 0.8; stroke-linecap: square"/>
     </g>
     <g id="line2d_6">
      <defs>
       <path id="mc1fc79f60a" d="M 0 0 
L 0 3.5 
" style="stroke: #000000; stroke-width: 0.8"/>
      </defs>
      <g>
       <use xlink:href="#mc1fc79f60a" x="57.6" y="298.944" style="stroke: #000000; stroke-width: 0.8"/>
      </g>
     </g>
     <g id="text_1">
      <!-- 0 -->
      <g transform="translate(52.191875 318.861344) scale(0.17 -0.17)">
       <defs>
        <path id="DejaVuSans-30" d="M 2034 4250 
Q 1547 4250 1301 3770 
Q 1056 3291 1056 2328 
Q 1056 1369 1301 889 
Q 1547 409 2034 409 
Q 2525 409 2770 889 
Q 3016 1369 3016 2328 
Q 3016 3291 2770 3770 
Q 2525 4250 2034 4250 
z
M 2034 4750 
Q 2819 4750 3233 4129 
Q 3647 3509 3647 2328 
Q 3647 1150 3233 529 
Q 2819 -91 2034 -91 
Q 1250 -91 836 529 
Q 422 1150 422 2328 
Q 422 3509 836 4129 
Q 1250 4750 2034 4750 
z
" transform="scale(0.015625)"/>
       </defs>
       <use xlink:href="#DejaVuSans-30"/>
      </g>
     </g>
    </g>
    <g id="xtick_2">
     <g id="line2d_7">
      <path d="M 144.2304 298.944 
L 144.2304 6.912 
" clip-path="url(#p7e02ad020f)" style="fill: none; stroke: #b0b0b0; stroke-width: 0.8; stroke-linecap: square"/>
     </g>
     <g id="line2d_8">
      <g>
       <use xlink:href="#mc1fc79f60a" x="144.2304" y="298.944" style="stroke: #000000; stroke-width: 0.8"/>
      </g>
     </g>
     <g id="text_2">
      <!-- 2 -->
      <g transform="translate(138.822275 318.861344) scale(0.17 -0.17)">
       <defs>
        <path id="DejaVuSans-32" d="M 1228 531 
L 3431 531 
L 3431 0 
L 469 0 
L 469 531 
Q 828 903 1448 1529 
Q 2069 2156 2228 2338 
Q 2531 2678 2651 2914 
Q 2772 3150 2772 3378 
Q 2772 3750 2511 3984 
Q 2250 4219 1831 4219 
Q 1534 4219 1204 4116 
Q 875 4013 500 3803 
L 500 4441 
Q 881 4594 1212 4672 
Q 1544 4750 1819 4750 
Q 2544 4750 2975 4387 
Q 3406 4025 3406 3419 
Q 3406 3131 3298 2873 
Q 3191 2616 2906 2266 
Q 2828 2175 2409 1742 
Q 1991 1309 1228 531 
z
" transform="scale(0.015625)"/>
       </defs>
       <use xlink:href="#DejaVuSans-32"/>
      </g>
     </g>
    </g>
    <g id="xtick_3">
     <g id="line2d_9">
      <path d="M 230.8608 298.944 
L 230.8608 6.912 
" clip-path="url(#p7e02ad020f)" style="fill: none; stroke: #b0b0b0; stroke-width: 0.8; stroke-linecap: square"/>
     </g>
     <g id="line2d_10">
      <g>
       <use xlink:href="#mc1fc79f60a" x="230.8608" y="298.944" style="stroke: #000000; stroke-width: 0.8"/>
      </g>
     </g>
     <g id="text_3">
      <!-- 4 -->
      <g transform="translate(225.452675 318.861344) scale(0.17 -0.17)">
       <defs>
        <path id="DejaVuSans-34" d="M 2419 4116 
L 825 1625 
L 2419 1625 
L 2419 4116 
z
M 2253 4666 
L 3047 4666 
L 3047 1625 
L 3713 1625 
L 3713 1100 
L 3047 1100 
L 3047 0 
L 2419 0 
L 2419 1100 
L 313 1100 
L 313 1709 
L 2253 4666 
z
" transform="scale(0.015625)"/>
       </defs>
       <use xlink:href="#DejaVuSans-34"/>
      </g>
     </g>
    </g>
    <g id="xtick_4">
     <g id="line2d_11">
      <path d="M 317.4912 298.944 
L 317.4912 6.912 
" clip-path="url(#p7e02ad020f)" style="fill: none; stroke: #b0b0b0; stroke-width: 0.8; stroke-linecap: square"/>
     </g>
     <g id="line2d_12">
      <g>
       <use xlink:href="#mc1fc79f60a" x="317.4912" y="298.944" style="stroke: #000000; stroke-width: 0.8"/>
      </g>
     </g>
     <g id="text_4">
      <!-- 6 -->
      <g transform="translate(312.083075 318.861344) scale(0.17 -0.17)">
       <defs>
        <path id="DejaVuSans-36" d="M 2113 2584 
Q 1688 2584 1439 2293 
Q 1191 2003 1191 1497 
Q 1191 994 1439 701 
Q 1688 409 2113 409 
Q 2538 409 2786 701 
Q 3034 994 3034 1497 
Q 3034 2003 2786 2293 
Q 2538 2584 2113 2584 
z
M 3366 4563 
L 3366 3988 
Q 3128 4100 2886 4159 
Q 2644 4219 2406 4219 
Q 1781 4219 1451 3797 
Q 1122 3375 1075 2522 
Q 1259 2794 1537 2939 
Q 1816 3084 2150 3084 
Q 2853 3084 3261 2657 
Q 3669 2231 3669 1497 
Q 3669 778 3244 343 
Q 2819 -91 2113 -91 
Q 1303 -91 875 529 
Q 447 1150 447 2328 
Q 447 3434 972 4092 
Q 1497 4750 2381 4750 
Q 2619 4750 2861 4703 
Q 3103 4656 3366 4563 
z
" transform="scale(0.015625)"/>
       </defs>
       <use xlink:href="#DejaVuSans-36"/>
      </g>
     </g>
    </g>
    <g id="xtick_5">
     <g id="line2d_13">
      <path d="M 100.9152 298.944 
L 100.9152 6.912 
" clip-path="url(#p7e02ad020f)" style="fill: none; stroke: #b0b0b0; stroke-width: 0.8; stroke-linecap: square"/>
     </g>
     <g id="line2d_14">
      <defs>
       <path id="m8ebef4ad25" d="M 0 0 
L 0 2 
" style="stroke: #000000; stroke-width: 0.6"/>
      </defs>
      <g>
       <use xlink:href="#m8ebef4ad25" x="100.9152" y="298.944" style="stroke: #000000; stroke-width: 0.6"/>
      </g>
     </g>
    </g>
    <g id="xtick_6">
     <g id="line2d_15">
      <path d="M 187.5456 298.944 
L 187.5456 6.912 
" clip-path="url(#p7e02ad020f)" style="fill: none; stroke: #b0b0b0; stroke-width: 0.8; stroke-linecap: square"/>
     </g>
     <g id="line2d_16">
      <g>
       <use xlink:href="#m8ebef4ad25" x="187.5456" y="298.944" style="stroke: #000000; stroke-width: 0.6"/>
      </g>
     </g>
    </g>
    <g id="xtick_7">
     <g id="line2d_17">
      <path d="M 274.176 298.944 
L 274.176 6.912 
" clip-path="url(#p7e02ad020f)" style="fill: none; stroke: #b0b0b0; stroke-width: 0.8; stroke-linecap: square"/>
     </g>
     <g id="line2d_18">
      <g>
       <use xlink:href="#m8ebef4ad25" x="274.176" y="298.944" style="stroke: #000000; stroke-width: 0.6"/>
      </g>
     </g>
    </g>
    <g id="xtick_8">
     <g id="line2d_19">
      <path d="M 360.8064 298.944 
L 360.8064 6.912 
" clip-path="url(#p7e02ad020f)" style="fill: none; stroke: #b0b0b0; stroke-width: 0.8; stroke-linecap: square"/>
     </g>
     <g id="line2d_20">
      <g>
       <use xlink:href="#m8ebef4ad25" x="360.8064" y="298.944" style="stroke: #000000; stroke-width: 0.6"/>
      </g>
     </g>
    </g>
    <g id="text_5">
     <!-- log10(# f-evals / dimension) -->
     <g transform="translate(88.823278 339.314156) scale(0.17 -0.17)">
      <defs>
       <path id="DejaVuSans-6c" d="M 603 4863 
L 1178 4863 
L 1178 0 
L 603 0 
L 603 4863 
z
" transform="scale(0.015625)"/>
       <path id="DejaVuSans-6f" d="M 1959 3097 
Q 1497 3097 1228 2736 
Q 959 2375 959 1747 
Q 959 1119 1226 758 
Q 1494 397 1959 397 
Q 2419 397 2687 759 
Q 2956 1122 2956 1747 
Q 2956 2369 2687 2733 
Q 2419 3097 1959 3097 
z
M 1959 3584 
Q 2709 3584 3137 3096 
Q 3566 2609 3566 1747 
Q 3566 888 3137 398 
Q 2709 -91 1959 -91 
Q 1206 -91 779 398 
Q 353 888 353 1747 
Q 353 2609 779 3096 
Q 1206 3584 1959 3584 
z
" transform="scale(0.015625)"/>
       <path id="DejaVuSans-67" d="M 2906 1791 
Q 2906 2416 2648 2759 
Q 2391 3103 1925 3103 
Q 1463 3103 1205 2759 
Q 947 2416 947 1791 
Q 947 1169 1205 825 
Q 1463 481 1925 481 
Q 2391 481 2648 825 
Q 2906 1169 2906 1791 
z
M 3481 434 
Q 3481 -459 3084 -895 
Q 2688 -1331 1869 -1331 
Q 1566 -1331 1297 -1286 
Q 1028 -1241 775 -1147 
L 775 -588 
Q 1028 -725 1275 -790 
Q 1522 -856 1778 -856 
Q 2344 -856 2625 -561 
Q 2906 -266 2906 331 
L 2906 616 
Q 2728 306 2450 153 
Q 2172 0 1784 0 
Q 1141 0 747 490 
Q 353 981 353 1791 
Q 353 2603 747 3093 
Q 1141 3584 1784 3584 
Q 2172 3584 2450 3431 
Q 2728 3278 2906 2969 
L 2906 3500 
L 3481 3500 
L 3481 434 
z
" transform="scale(0.015625)"/>
       <path id="DejaVuSans-31" d="M 794 531 
L 1825 531 
L 1825 4091 
L 703 3866 
L 703 4441 
L 1819 4666 
L 2450 4666 
L 2450 531 
L 3481 531 
L 3481 0 
L 794 0 
L 794 531 
z
" transform="scale(0.015625)"/>
       <path id="DejaVuSans-28" d="M 1984 4856 
Q 1566 4138 1362 3434 
Q 1159 2731 1159 2009 
Q 1159 1288 1364 580 
Q 1569 -128 1984 -844 
L 1484 -844 
Q 1016 -109 783 600 
Q 550 1309 550 2009 
Q 550 2706 781 3412 
Q 1013 4119 1484 4856 
L 1984 4856 
z
" transform="scale(0.015625)"/>
       <path id="DejaVuSans-23" d="M 3272 2816 
L 2363 2816 
L 2100 1772 
L 3016 1772 
L 3272 2816 
z
M 2803 4594 
L 2478 3297 
L 3391 3297 
L 3719 4594 
L 4219 4594 
L 3897 3297 
L 4872 3297 
L 4872 2816 
L 3775 2816 
L 3519 1772 
L 4513 1772 
L 4513 1294 
L 3397 1294 
L 3072 0 
L 2572 0 
L 2894 1294 
L 1978 1294 
L 1656 0 
L 1153 0 
L 1478 1294 
L 494 1294 
L 494 1772 
L 1594 1772 
L 1856 2816 
L 850 2816 
L 850 3297 
L 1978 3297 
L 2297 4594 
L 2803 4594 
z
" transform="scale(0.015625)"/>
       <path id="DejaVuSans-20" transform="scale(0.015625)"/>
       <path id="DejaVuSans-66" d="M 2375 4863 
L 2375 4384 
L 1825 4384 
Q 1516 4384 1395 4259 
Q 1275 4134 1275 3809 
L 1275 3500 
L 2222 3500 
L 2222 3053 
L 1275 3053 
L 1275 0 
L 697 0 
L 697 3053 
L 147 3053 
L 147 3500 
L 697 3500 
L 697 3744 
Q 697 4328 969 4595 
Q 1241 4863 1831 4863 
L 2375 4863 
z
" transform="scale(0.015625)"/>
       <path id="DejaVuSans-2d" d="M 313 2009 
L 1997 2009 
L 1997 1497 
L 313 1497 
L 313 2009 
z
" transform="scale(0.015625)"/>
       <path id="DejaVuSans-65" d="M 3597 1894 
L 3597 1613 
L 953 1613 
Q 991 1019 1311 708 
Q 1631 397 2203 397 
Q 2534 397 2845 478 
Q 3156 559 3463 722 
L 3463 178 
Q 3153 47 2828 -22 
Q 2503 -91 2169 -91 
Q 1331 -91 842 396 
Q 353 884 353 1716 
Q 353 2575 817 3079 
Q 1281 3584 2069 3584 
Q 2775 3584 3186 3129 
Q 3597 2675 3597 1894 
z
M 3022 2063 
Q 3016 2534 2758 2815 
Q 2500 3097 2075 3097 
Q 1594 3097 1305 2825 
Q 1016 2553 972 2059 
L 3022 2063 
z
" transform="scale(0.015625)"/>
       <path id="DejaVuSans-76" d="M 191 3500 
L 800 3500 
L 1894 563 
L 2988 3500 
L 3597 3500 
L 2284 0 
L 1503 0 
L 191 3500 
z
" transform="scale(0.015625)"/>
       <path id="DejaVuSans-61" d="M 2194 1759 
Q 1497 1759 1228 1600 
Q 959 1441 959 1056 
Q 959 750 1161 570 
Q 1363 391 1709 391 
Q 2188 391 2477 730 
Q 2766 1069 2766 1631 
L 2766 1759 
L 2194 1759 
z
M 3341 1997 
L 3341 0 
L 2766 0 
L 2766 531 
Q 2569 213 2275 61 
Q 1981 -91 1556 -91 
Q 1019 -91 701 211 
Q 384 513 384 1019 
Q 384 1609 779 1909 
Q 1175 2209 1959 2209 
L 2766 2209 
L 2766 2266 
Q 2766 2663 2505 2880 
Q 2244 3097 1772 3097 
Q 1472 3097 1187 3025 
Q 903 2953 641 2809 
L 641 3341 
Q 956 3463 1253 3523 
Q 1550 3584 1831 3584 
Q 2591 3584 2966 3190 
Q 3341 2797 3341 1997 
z
" transform="scale(0.015625)"/>
       <path id="DejaVuSans-73" d="M 2834 3397 
L 2834 2853 
Q 2591 2978 2328 3040 
Q 2066 3103 1784 3103 
Q 1356 3103 1142 2972 
Q 928 2841 928 2578 
Q 928 2378 1081 2264 
Q 1234 2150 1697 2047 
L 1894 2003 
Q 2506 1872 2764 1633 
Q 3022 1394 3022 966 
Q 3022 478 2636 193 
Q 2250 -91 1575 -91 
Q 1294 -91 989 -36 
Q 684 19 347 128 
L 347 722 
Q 666 556 975 473 
Q 1284 391 1588 391 
Q 1994 391 2212 530 
Q 2431 669 2431 922 
Q 2431 1156 2273 1281 
Q 2116 1406 1581 1522 
L 1381 1569 
Q 847 1681 609 1914 
Q 372 2147 372 2553 
Q 372 3047 722 3315 
Q 1072 3584 1716 3584 
Q 2034 3584 2315 3537 
Q 2597 3491 2834 3397 
z
" transform="scale(0.015625)"/>
       <path id="DejaVuSans-2f" d="M 1625 4666 
L 2156 4666 
L 531 -594 
L 0 -594 
L 1625 4666 
z
" transform="scale(0.015625)"/>
       <path id="DejaVuSans-64" d="M 2906 2969 
L 2906 4863 
L 3481 4863 
L 3481 0 
L 2906 0 
L 2906 525 
Q 2725 213 2448 61 
Q 2172 -91 1784 -91 
Q 1150 -91 751 415 
Q 353 922 353 1747 
Q 353 2572 751 3078 
Q 1150 3584 1784 3584 
Q 2172 3584 2448 3432 
Q 2725 3281 2906 2969 
z
M 947 1747 
Q 947 1113 1208 752 
Q 1469 391 1925 391 
Q 2381 391 2643 752 
Q 2906 1113 2906 1747 
Q 2906 2381 2643 2742 
Q 2381 3103 1925 3103 
Q 1469 3103 1208 2742 
Q 947 2381 947 1747 
z
" transform="scale(0.015625)"/>
       <path id="DejaVuSans-69" d="M 603 3500 
L 1178 3500 
L 1178 0 
L 603 0 
L 603 3500 
z
M 603 4863 
L 1178 4863 
L 1178 4134 
L 603 4134 
L 603 4863 
z
" transform="scale(0.015625)"/>
       <path id="DejaVuSans-6d" d="M 3328 2828 
Q 3544 3216 3844 3400 
Q 4144 3584 4550 3584 
Q 5097 3584 5394 3201 
Q 5691 2819 5691 2113 
L 5691 0 
L 5113 0 
L 5113 2094 
Q 5113 2597 4934 2840 
Q 4756 3084 4391 3084 
Q 3944 3084 3684 2787 
Q 3425 2491 3425 1978 
L 3425 0 
L 2847 0 
L 2847 2094 
Q 2847 2600 2669 2842 
Q 2491 3084 2119 3084 
Q 1678 3084 1418 2786 
Q 1159 2488 1159 1978 
L 1159 0 
L 581 0 
L 581 3500 
L 1159 3500 
L 1159 2956 
Q 1356 3278 1631 3431 
Q 1906 3584 2284 3584 
Q 2666 3584 2933 3390 
Q 3200 3197 3328 2828 
z
" transform="scale(0.015625)"/>
       <path id="DejaVuSans-6e" d="M 3513 2113 
L 3513 0 
L 2938 0 
L 2938 2094 
Q 2938 2591 2744 2837 
Q 2550 3084 2163 3084 
Q 1697 3084 1428 2787 
Q 1159 2491 1159 1978 
L 1159 0 
L 581 0 
L 581 3500 
L 1159 3500 
L 1159 2956 
Q 1366 3272 1645 3428 
Q 1925 3584 2291 3584 
Q 2894 3584 3203 3211 
Q 3513 2838 3513 2113 
z
" transform="scale(0.015625)"/>
       <path id="DejaVuSans-29" d="M 513 4856 
L 1013 4856 
Q 1481 4119 1714 3412 
Q 1947 2706 1947 2009 
Q 1947 1309 1714 600 
Q 1481 -109 1013 -844 
L 513 -844 
Q 928 -128 1133 580 
Q 1338 1288 1338 2009 
Q 1338 2731 1133 3434 
Q 928 4138 513 4856 
z
" transform="scale(0.015625)"/>
      </defs>
      <use xlink:href="#DejaVuSans-6c"/>
      <use xlink:href="#DejaVuSans-6f" x="27.783203"/>
      <use xlink:href="#DejaVuSans-67" x="88.964844"/>
      <use xlink:href="#DejaVuSans-31" x="152.441406"/>
      <use xlink:href="#DejaVuSans-30" x="216.064453"/>
      <use xlink:href="#DejaVuSans-28" x="279.6875"/>
      <use xlink:href="#DejaVuSans-23" x="318.701172"/>
      <use xlink:href="#DejaVuSans-20" x="402.490234"/>
      <use xlink:href="#DejaVuSans-66" x="434.277344"/>
      <use xlink:href="#DejaVuSans-2d" x="463.982422"/>
      <use xlink:href="#DejaVuSans-65" x="500.066406"/>
      <use xlink:href="#DejaVuSans-76" x="561.589844"/>
      <use xlink:href="#DejaVuSans-61" x="620.769531"/>
      <use xlink:href="#DejaVuSans-6c" x="682.048828"/>
      <use xlink:href="#DejaVuSans-73" x="709.832031"/>
      <use xlink:href="#DejaVuSans-20" x="761.931641"/>
      <use xlink:href="#DejaVuSans-2f" x="793.71875"/>
      <use xlink:href="#DejaVuSans-20" x="827.410156"/>
      <use xlink:href="#DejaVuSans-64" x="859.197266"/>
      <use xlink:href="#DejaVuSans-69" x="922.673828"/>
      <use xlink:href="#DejaVuSans-6d" x="950.457031"/>
      <use xlink:href="#DejaVuSans-65" x="1047.869141"/>
      <use xlink:href="#DejaVuSans-6e" x="1109.392578"/>
      <use xlink:href="#DejaVuSans-73" x="1172.771484"/>
      <use xlink:href="#DejaVuSans-69" x="1224.871094"/>
      <use xlink:href="#DejaVuSans-6f" x="1252.654297"/>
      <use xlink:href="#DejaVuSans-6e" x="1313.835938"/>
      <use xlink:href="#DejaVuSans-29" x="1377.214844"/>
     </g>
    </g>
   </g>
   <g id="matplotlib.axis_2">
    <g id="ytick_1">
     <g id="line2d_21">
      <path d="M 57.6 298.944 
L 360.8064 298.944 
" clip-path="url(#p7e02ad020f)" style="fill: none; stroke: #b0b0b0; stroke-width: 0.8; stroke-linecap: square"/>
     </g>
     <g id="line2d_22">
      <defs>
       <path id="m42235d2742" d="M 0 0 
L -3.5 0 
" style="stroke: #000000; stroke-width: 0.8"/>
      </defs>
      <g>
       <use xlink:href="#m42235d2742" x="57.6" y="298.944" style="stroke: #000000; stroke-width: 0.8"/>
      </g>
     </g>
     <g id="text_6">
      <!-- 0.0 -->
      <g transform="translate(25.155 305.02275) scale(0.16 -0.16)">
       <defs>
        <path id="DejaVuSans-2e" d="M 684 794 
L 1344 794 
L 1344 0 
L 684 0 
L 684 794 
z
" transform="scale(0.015625)"/>
       </defs>
       <use xlink:href="#DejaVuSans-30"/>
       <use xlink:href="#DejaVuSans-2e" x="63.623047"/>
       <use xlink:href="#DejaVuSans-30" x="95.410156"/>
      </g>
     </g>
    </g>
    <g id="ytick_2">
     <g id="line2d_23">
      <path d="M 57.6 240.5376 
L 360.8064 240.5376 
" clip-path="url(#p7e02ad020f)" style="fill: none; stroke: #b0b0b0; stroke-width: 0.8; stroke-linecap: square"/>
     </g>
     <g id="line2d_24">
      <g>
       <use xlink:href="#m42235d2742" x="57.6" y="240.5376" style="stroke: #000000; stroke-width: 0.8"/>
      </g>
     </g>
     <g id="text_7">
      <!-- 0.2 -->
      <g transform="translate(25.155 246.61635) scale(0.16 -0.16)">
       <use xlink:href="#DejaVuSans-30"/>
       <use xlink:href="#DejaVuSans-2e" x="63.623047"/>
       <use xlink:href="#DejaVuSans-32" x="95.410156"/>
      </g>
     </g>
    </g>
    <g id="ytick_3">
     <g id="line2d_25">
      <path d="M 57.6 182.1312 
L 360.8064 182.1312 
" clip-path="url(#p7e02ad020f)" style="fill: none; stroke: #b0b0b0; stroke-width: 0.8; stroke-linecap: square"/>
     </g>
     <g id="line2d_26">
      <g>
       <use xlink:href="#m42235d2742" x="57.6" y="182.1312" style="stroke: #000000; stroke-width: 0.8"/>
      </g>
     </g>
     <g id="text_8">
      <!-- 0.4 -->
      <g transform="translate(25.155 188.20995) scale(0.16 -0.16)">
       <use xlink:href="#DejaVuSans-30"/>
       <use xlink:href="#DejaVuSans-2e" x="63.623047"/>
       <use xlink:href="#DejaVuSans-34" x="95.410156"/>
      </g>
     </g>
    </g>
    <g id="ytick_4">
     <g id="line2d_27">
      <path d="M 57.6 123.7248 
L 360.8064 123.7248 
" clip-path="url(#p7e02ad020f)" style="fill: none; stroke: #b0b0b0; stroke-width: 0.8; stroke-linecap: square"/>
     </g>
     <g id="line2d_28">
      <g>
       <use xlink:href="#m42235d2742" x="57.6" y="123.7248" style="stroke: #000000; stroke-width: 0.8"/>
      </g>
     </g>
     <g id="text_9">
      <!-- 0.6 -->
      <g transform="translate(25.155 129.80355) scale(0.16 -0.16)">
       <use xlink:href="#DejaVuSans-30"/>
       <use xlink:href="#DejaVuSans-2e" x="63.623047"/>
       <use xlink:href="#DejaVuSans-36" x="95.410156"/>
      </g>
     </g>
    </g>
    <g id="ytick_5">
     <g id="line2d_29">
      <path d="M 57.6 65.3184 
L 360.8064 65.3184 
" clip-path="url(#p7e02ad020f)" style="fill: none; stroke: #b0b0b0; stroke-width: 0.8; stroke-linecap: square"/>
     </g>
     <g id="line2d_30">
      <g>
       <use xlink:href="#m42235d2742" x="57.6" y="65.3184" style="stroke: #000000; stroke-width: 0.8"/>
      </g>
     </g>
     <g id="text_10">
      <!-- 0.8 -->
      <g transform="translate(25.155 71.39715) scale(0.16 -0.16)">
       <defs>
        <path id="DejaVuSans-38" d="M 2034 2216 
Q 1584 2216 1326 1975 
Q 1069 1734 1069 1313 
Q 1069 891 1326 650 
Q 1584 409 2034 409 
Q 2484 409 2743 651 
Q 3003 894 3003 1313 
Q 3003 1734 2745 1975 
Q 2488 2216 2034 2216 
z
M 1403 2484 
Q 997 2584 770 2862 
Q 544 3141 544 3541 
Q 544 4100 942 4425 
Q 1341 4750 2034 4750 
Q 2731 4750 3128 4425 
Q 3525 4100 3525 3541 
Q 3525 3141 3298 2862 
Q 3072 2584 2669 2484 
Q 3125 2378 3379 2068 
Q 3634 1759 3634 1313 
Q 3634 634 3220 271 
Q 2806 -91 2034 -91 
Q 1263 -91 848 271 
Q 434 634 434 1313 
Q 434 1759 690 2068 
Q 947 2378 1403 2484 
z
M 1172 3481 
Q 1172 3119 1398 2916 
Q 1625 2713 2034 2713 
Q 2441 2713 2670 2916 
Q 2900 3119 2900 3481 
Q 2900 3844 2670 4047 
Q 2441 4250 2034 4250 
Q 1625 4250 1398 4047 
Q 1172 3844 1172 3481 
z
" transform="scale(0.015625)"/>
       </defs>
       <use xlink:href="#DejaVuSans-30"/>
       <use xlink:href="#DejaVuSans-2e" x="63.623047"/>
       <use xlink:href="#DejaVuSans-38" x="95.410156"/>
      </g>
     </g>
    </g>
    <g id="ytick_6">
     <g id="line2d_31">
      <path d="M 57.6 6.912 
L 360.8064 6.912 
" clip-path="url(#p7e02ad020f)" style="fill: none; stroke: #b0b0b0; stroke-width: 0.8; stroke-linecap: square"/>
     </g>
     <g id="line2d_32">
      <g>
       <use xlink:href="#m42235d2742" x="57.6" y="6.912" style="stroke: #000000; stroke-width: 0.8"/>
      </g>
     </g>
     <g id="text_11">
      <!-- 1.0 -->
      <g transform="translate(25.155 12.99075) scale(0.16 -0.16)">
       <use xlink:href="#DejaVuSans-31"/>
       <use xlink:href="#DejaVuSans-2e" x="63.623047"/>
       <use xlink:href="#DejaVuSans-30" x="95.410156"/>
      </g>
     </g>
    </g>
    <g id="text_12">
     <!-- Fraction of function,target pairs -->
     <g transform="translate(17.619531 287.313) rotate(-90) scale(0.17 -0.17)">
      <defs>
       <path id="DejaVuSans-46" d="M 628 4666 
L 3309 4666 
L 3309 4134 
L 1259 4134 
L 1259 2759 
L 3109 2759 
L 3109 2228 
L 1259 2228 
L 1259 0 
L 628 0 
L 628 4666 
z
" transform="scale(0.015625)"/>
       <path id="DejaVuSans-72" d="M 2631 2963 
Q 2534 3019 2420 3045 
Q 2306 3072 2169 3072 
Q 1681 3072 1420 2755 
Q 1159 2438 1159 1844 
L 1159 0 
L 581 0 
L 581 3500 
L 1159 3500 
L 1159 2956 
Q 1341 3275 1631 3429 
Q 1922 3584 2338 3584 
Q 2397 3584 2469 3576 
Q 2541 3569 2628 3553 
L 2631 2963 
z
" transform="scale(0.015625)"/>
       <path id="DejaVuSans-63" d="M 3122 3366 
L 3122 2828 
Q 2878 2963 2633 3030 
Q 2388 3097 2138 3097 
Q 1578 3097 1268 2742 
Q 959 2388 959 1747 
Q 959 1106 1268 751 
Q 1578 397 2138 397 
Q 2388 397 2633 464 
Q 2878 531 3122 666 
L 3122 134 
Q 2881 22 2623 -34 
Q 2366 -91 2075 -91 
Q 1284 -91 818 406 
Q 353 903 353 1747 
Q 353 2603 823 3093 
Q 1294 3584 2113 3584 
Q 2378 3584 2631 3529 
Q 2884 3475 3122 3366 
z
" transform="scale(0.015625)"/>
       <path id="DejaVuSans-74" d="M 1172 4494 
L 1172 3500 
L 2356 3500 
L 2356 3053 
L 1172 3053 
L 1172 1153 
Q 1172 725 1289 603 
Q 1406 481 1766 481 
L 2356 481 
L 2356 0 
L 1766 0 
Q 1100 0 847 248 
Q 594 497 594 1153 
L 594 3053 
L 172 3053 
L 172 3500 
L 594 3500 
L 594 4494 
L 1172 4494 
z
" transform="scale(0.015625)"/>
       <path id="DejaVuSans-75" d="M 544 1381 
L 544 3500 
L 1119 3500 
L 1119 1403 
Q 1119 906 1312 657 
Q 1506 409 1894 409 
Q 2359 409 2629 706 
Q 2900 1003 2900 1516 
L 2900 3500 
L 3475 3500 
L 3475 0 
L 2900 0 
L 2900 538 
Q 2691 219 2414 64 
Q 2138 -91 1772 -91 
Q 1169 -91 856 284 
Q 544 659 544 1381 
z
M 1991 3584 
L 1991 3584 
z
" transform="scale(0.015625)"/>
       <path id="DejaVuSans-2c" d="M 750 794 
L 1409 794 
L 1409 256 
L 897 -744 
L 494 -744 
L 750 256 
L 750 794 
z
" transform="scale(0.015625)"/>
       <path id="DejaVuSans-70" d="M 1159 525 
L 1159 -1331 
L 581 -1331 
L 581 3500 
L 1159 3500 
L 1159 2969 
Q 1341 3281 1617 3432 
Q 1894 3584 2278 3584 
Q 2916 3584 3314 3078 
Q 3713 2572 3713 1747 
Q 3713 922 3314 415 
Q 2916 -91 2278 -91 
Q 1894 -91 1617 61 
Q 1341 213 1159 525 
z
M 3116 1747 
Q 3116 2381 2855 2742 
Q 2594 3103 2138 3103 
Q 1681 3103 1420 2742 
Q 1159 2381 1159 1747 
Q 1159 1113 1420 752 
Q 1681 391 2138 391 
Q 2594 391 2855 752 
Q 3116 1113 3116 1747 
z
" transform="scale(0.015625)"/>
      </defs>
      <use xlink:href="#DejaVuSans-46"/>
      <use xlink:href="#DejaVuSans-72" x="50.269531"/>
      <use xlink:href="#DejaVuSans-61" x="91.382812"/>
      <use xlink:href="#DejaVuSans-63" x="152.662109"/>
      <use xlink:href="#DejaVuSans-74" x="207.642578"/>
      <use xlink:href="#DejaVuSans-69" x="246.851562"/>
      <use xlink:href="#DejaVuSans-6f" x="274.634766"/>
      <use xlink:href="#DejaVuSans-6e" x="335.816406"/>
      <use xlink:href="#DejaVuSans-20" x="399.195312"/>
      <use xlink:href="#DejaVuSans-6f" x="430.982422"/>
      <use xlink:href="#DejaVuSans-66" x="492.164062"/>
      <use xlink:href="#DejaVuSans-20" x="527.369141"/>
      <use xlink:href="#DejaVuSans-66" x="559.15625"/>
      <use xlink:href="#DejaVuSans-75" x="594.361328"/>
      <use xlink:href="#DejaVuSans-6e" x="657.740234"/>
      <use xlink:href="#DejaVuSans-63" x="721.119141"/>
      <use xlink:href="#DejaVuSans-74" x="776.099609"/>
      <use xlink:href="#DejaVuSans-69" x="815.308594"/>
      <use xlink:href="#DejaVuSans-6f" x="843.091797"/>
      <use xlink:href="#DejaVuSans-6e" x="904.273438"/>
      <use xlink:href="#DejaVuSans-2c" x="967.652344"/>
      <use xlink:href="#DejaVuSans-74" x="999.439453"/>
      <use xlink:href="#DejaVuSans-61" x="1038.648438"/>
      <use xlink:href="#DejaVuSans-72" x="1099.927734"/>
      <use xlink:href="#DejaVuSans-67" x="1139.291016"/>
      <use xlink:href="#DejaVuSans-65" x="1202.767578"/>
      <use xlink:href="#DejaVuSans-74" x="1264.291016"/>
      <use xlink:href="#DejaVuSans-20" x="1303.5"/>
      <use xlink:href="#DejaVuSans-70" x="1335.287109"/>
      <use xlink:href="#DejaVuSans-61" x="1398.763672"/>
      <use xlink:href="#DejaVuSans-69" x="1460.042969"/>
      <use xlink:href="#DejaVuSans-72" x="1487.826172"/>
      <use xlink:href="#DejaVuSans-73" x="1528.939453"/>
     </g>
    </g>
   </g>
   <g id="line2d_33">
    <defs>
     <path id="mf556dd7dba" d="M 0 1.5 
C 0.397805 1.5 0.77937 1.341951 1.06066 1.06066 
C 1.341951 0.77937 1.5 0.397805 1.5 0 
C 1.5 -0.397805 1.341951 -0.77937 1.06066 -1.06066 
C 0.77937 -1.341951 0.397805 -1.5 0 -1.5 
C -0.397805 -1.5 -0.77937 -1.341951 -1.06066 -1.06066 
C -1.341951 -0.77937 -1.5 -0.397805 -1.5 0 
C -1.5 0.397805 -1.341951 0.77937 -1.06066 1.06066 
C -0.77937 1.341951 -0.397805 1.5 0 1.5 
z
" style="stroke: #f5deb3"/>
    </defs>
    <g>
     <use xlink:href="#mf556dd7dba" x="273.325692" y="42.157241" style="fill: #f5deb3; stroke: #f5deb3"/>
     <use xlink:href="#mf556dd7dba" x="273.325692" y="42.157241" style="fill: #f5deb3; stroke: #f5deb3"/>
    </g>
   </g>
   <g id="line2d_34">
    <defs>
     <path id="m571b10be00" d="M 0 1.5 
C 0.397805 1.5 0.77937 1.341951 1.06066 1.06066 
C 1.341951 0.77937 1.5 0.397805 1.5 0 
C 1.5 -0.397805 1.341951 -0.77937 1.06066 -1.06066 
C 0.77937 -1.341951 0.397805 -1.5 0 -1.5 
C -0.397805 -1.5 -0.77937 -1.341951 -1.06066 -1.06066 
C -1.341951 -0.77937 -1.5 -0.397805 -1.5 0 
C -1.5 0.397805 -1.341951 0.77937 -1.06066 1.06066 
C -0.77937 1.341951 -0.397805 1.5 0 1.5 
z
" style="stroke: #000080"/>
    </defs>
    <g>
     <use xlink:href="#m571b10be00" x="186.777675" y="150.410483" style="fill: #000080; stroke: #000080"/>
     <use xlink:href="#m571b10be00" x="186.777675" y="150.410483" style="fill: #000080; stroke: #000080"/>
    </g>
   </g>
   <g id="line2d_35">
    <path d="M 44.560826 298.944 
L 44.560826 286.104662 
L 57.6 286.104662 
L 57.6 283.587145 
L 85.894031 283.587145 
L 85.894031 277.796855 
L 96.717523 277.796855 
L 96.717523 274.90171 
L 103.544339 274.90171 
L 103.544339 269.489048 
L 108.542628 269.489048 
L 108.542628 266.0904 
L 112.487797 266.0904 
L 112.487797 262.188248 
L 115.747307 262.188248 
L 115.747307 258.160221 
L 118.524569 258.160221 
L 118.524569 254.635697 
L 120.944062 254.635697 
L 120.944062 252.495807 
L 123.08753 252.495807 
L 123.08753 250.355917 
L 125.011554 250.355917 
L 125.011554 249.474786 
L 126.756923 249.474786 
L 126.756923 247.712524 
L 128.354013 247.712524 
L 128.354013 245.572634 
L 129.826058 245.572634 
L 129.826058 243.684497 
L 131.191226 243.684497 
L 131.191226 242.67749 
L 132.46399 242.67749 
L 132.46399 238.775338 
L 133.656071 238.775338 
L 133.656071 237.013076 
L 134.77709 237.013076 
L 134.77709 236.383697 
L 135.835047 236.383697 
L 135.835047 235.628441 
L 136.836659 235.628441 
L 136.836659 233.866179 
L 137.787626 233.866179 
L 137.787626 233.614428 
L 138.692823 233.614428 
L 138.692823 232.733297 
L 139.556456 232.733297 
L 139.556456 230.845159 
L 140.382174 230.845159 
L 140.382174 228.831145 
L 141.173167 228.831145 
L 141.173167 227.320634 
L 141.932237 227.320634 
L 141.932237 225.810124 
L 142.661862 225.810124 
L 142.661862 225.558372 
L 143.364242 225.558372 
L 143.364242 223.79611 
L 144.041338 223.79611 
L 144.041338 223.418483 
L 144.694906 223.418483 
L 144.694906 222.789103 
L 145.326529 222.789103 
L 145.326529 222.159724 
L 145.93763 222.159724 
L 145.93763 221.152717 
L 146.529503 221.152717 
L 146.529503 219.138703 
L 147.103321 219.138703 
L 147.103321 218.005821 
L 148.200973 218.005821 
L 148.200973 217.879945 
L 148.726679 217.879945 
L 148.726679 216.998814 
L 149.238092 216.998814 
L 149.238092 216.117683 
L 149.73597 216.117683 
L 149.73597 214.229545 
L 150.221009 214.229545 
L 150.221009 212.467283 
L 150.693856 212.467283 
L 150.693856 211.460276 
L 151.155108 211.460276 
L 151.155108 210.705021 
L 151.60532 210.705021 
L 151.60532 210.327393 
L 152.045009 210.327393 
L 152.045009 209.949766 
L 152.474656 209.949766 
L 152.474656 209.320386 
L 152.894708 209.320386 
L 152.894708 208.439255 
L 153.305585 208.439255 
L 153.305585 208.313379 
L 153.707679 208.313379 
L 153.707679 207.809876 
L 154.101358 207.809876 
L 154.101358 207.684 
L 154.486967 207.684 
L 154.486967 207.558124 
L 154.86483 207.558124 
L 154.86483 206.928745 
L 155.235253 206.928745 
L 155.235253 205.921738 
L 155.598521 205.921738 
L 155.598521 205.166483 
L 155.954908 205.166483 
L 155.954908 204.788855 
L 156.648044 204.788855 
L 156.648044 204.662979 
L 156.985263 204.662979 
L 156.985263 204.537103 
L 157.316545 204.537103 
L 157.316545 204.0336 
L 157.642093 204.0336 
L 157.642093 203.781848 
L 157.962102 203.781848 
L 157.962102 202.145462 
L 158.276759 202.145462 
L 158.276759 200.634952 
L 158.58624 200.634952 
L 158.58624 200.005572 
L 158.890711 200.005572 
L 158.890711 199.627945 
L 159.190332 199.627945 
L 159.190332 199.250317 
L 159.485256 199.250317 
L 159.485256 198.87269 
L 159.775628 198.87269 
L 159.775628 198.495062 
L 160.061585 198.495062 
L 160.061585 198.24331 
L 160.343261 198.24331 
L 160.343261 198.117434 
L 160.894266 198.117434 
L 160.894266 197.991559 
L 161.163832 197.991559 
L 161.163832 196.103421 
L 161.42959 196.103421 
L 161.42959 195.977545 
L 161.691646 195.977545 
L 161.691646 194.970538 
L 161.950101 194.970538 
L 161.950101 194.844662 
L 162.205054 194.844662 
L 162.205054 194.341159 
L 162.456597 194.341159 
L 162.456597 194.089407 
L 162.704821 194.089407 
L 162.704821 193.837655 
L 162.949812 193.837655 
L 162.949812 193.208276 
L 163.430425 193.208276 
L 163.430425 191.57189 
L 163.666204 191.57189 
L 163.666204 191.320138 
L 163.899064 191.320138 
L 163.899064 191.068386 
L 164.129077 191.068386 
L 164.129077 190.439007 
L 164.356312 190.439007 
L 164.356312 189.935503 
L 164.580835 189.935503 
L 164.580835 189.557876 
L 164.802709 189.557876 
L 164.802709 188.928497 
L 165.021997 188.928497 
L 165.021997 188.299117 
L 165.238758 188.299117 
L 165.238758 187.166234 
L 165.45305 187.166234 
L 165.45305 186.788607 
L 165.664928 186.788607 
L 165.664928 186.410979 
L 165.874446 186.410979 
L 165.874446 186.033352 
L 166.081656 186.033352 
L 166.081656 185.655724 
L 166.286609 185.655724 
L 166.286609 185.026345 
L 166.489353 185.026345 
L 166.489353 184.900469 
L 166.888401 184.900469 
L 166.888401 184.27109 
L 167.084795 184.27109 
L 167.084795 183.515834 
L 167.471536 183.515834 
L 167.471536 183.012331 
L 167.661966 183.012331 
L 167.661966 182.382952 
L 168.037137 182.382952 
L 168.037137 182.257076 
L 168.221954 182.257076 
L 168.221954 181.753572 
L 168.404973 181.753572 
L 168.404973 181.627697 
L 168.586228 181.627697 
L 168.586228 181.250069 
L 168.765753 181.250069 
L 168.765753 180.872441 
L 169.119745 180.872441 
L 169.119745 180.62069 
L 169.294273 180.62069 
L 169.294273 180.368938 
L 169.467197 180.368938 
L 169.467197 179.99131 
L 169.638546 179.99131 
L 169.638546 179.865434 
L 169.808349 179.865434 
L 169.808349 179.236055 
L 169.976632 179.236055 
L 169.976632 178.858428 
L 170.308749 178.858428 
L 170.308749 178.606676 
L 170.472634 178.606676 
L 170.472634 177.851421 
L 170.635104 177.851421 
L 170.635104 177.222041 
L 171.11426 177.222041 
L 171.11426 176.34091 
L 171.271304 176.34091 
L 171.271304 176.089159 
L 171.427048 176.089159 
L 171.427048 175.711531 
L 171.581513 175.711531 
L 171.581513 175.208028 
L 171.73472 175.208028 
L 171.73472 175.082152 
L 171.88669 175.082152 
L 171.88669 174.956276 
L 172.037442 174.956276 
L 172.037442 174.8304 
L 172.186995 174.8304 
L 172.186995 174.578648 
L 172.335368 174.578648 
L 172.335368 174.326897 
L 172.482581 174.326897 
L 172.482581 174.201021 
L 172.62865 174.201021 
L 172.62865 173.445766 
L 172.773594 173.445766 
L 172.773594 173.068138 
L 172.91743 173.068138 
L 172.91743 172.942262 
L 173.060174 172.942262 
L 173.060174 172.69051 
L 173.201843 172.69051 
L 173.201843 171.935255 
L 173.48202 171.935255 
L 173.48202 171.683503 
L 173.620559 171.683503 
L 173.620559 171.557628 
L 173.758086 171.557628 
L 173.758086 171.18 
L 173.894614 171.18 
L 173.894614 171.054124 
L 174.030158 171.054124 
L 174.030158 170.676497 
L 174.164733 170.676497 
L 174.164733 170.550621 
L 174.431028 170.550621 
L 174.431028 170.424745 
L 174.693607 170.424745 
L 174.693607 170.172993 
L 174.95257 170.172993 
L 174.95257 170.047117 
L 175.208017 170.047117 
L 175.208017 169.417738 
L 175.334451 169.417738 
L 175.334451 168.914234 
L 175.460042 168.914234 
L 175.460042 168.788359 
L 175.584799 168.788359 
L 175.584799 168.536607 
L 175.708734 168.536607 
L 175.708734 168.410731 
L 176.435674 168.410731 
L 176.435674 168.284855 
L 176.554146 168.284855 
L 176.554146 168.033103 
L 176.671876 168.033103 
L 176.671876 167.5296 
L 176.905149 167.5296 
L 176.905149 166.900221 
L 177.02071 166.900221 
L 177.02071 166.774345 
L 177.249723 166.774345 
L 177.249723 166.396717 
L 177.363192 166.396717 
L 177.363192 166.144966 
L 177.475981 166.144966 
L 177.475981 165.767338 
L 177.588098 165.767338 
L 177.588098 165.641462 
L 177.920494 165.641462 
L 178.03 165.137959 
L 178.138873 165.137959 
L 178.247119 164.886207 
L 178.354746 164.886207 
L 178.46176 164.508579 
L 179.296641 164.508579 
L 179.398443 163.753324 
L 179.499697 163.753324 
L 179.60041 162.998069 
L 179.700586 162.998069 
L 179.800231 162.242814 
L 179.997952 162.242814 
L 180.096038 161.865186 
L 180.193616 161.865186 
L 180.29069 161.361683 
L 180.387266 161.361683 
L 180.387266 160.984055 
L 180.578943 160.984055 
L 180.578943 160.858179 
L 180.768686 160.858179 
L 180.768686 160.732303 
L 180.956535 160.732303 
L 181.049761 160.102924 
L 181.326697 160.102924 
L 181.326697 159.725297 
L 181.509082 159.725297 
L 181.599615 159.095917 
L 181.868631 159.095917 
L 181.957455 158.71829 
L 182.221437 158.71829 
L 182.308614 158.340662 
L 182.395389 158.340662 
L 182.481765 157.585407 
L 182.567747 157.585407 
L 182.653338 157.207779 
L 182.738541 157.207779 
L 182.823359 156.452524 
L 182.907797 156.452524 
L 182.991858 156.074897 
L 183.075545 156.074897 
L 183.075545 155.823145 
L 183.651154 155.823145 
L 183.731965 155.06789 
L 183.81243 155.06789 
L 183.892552 154.816138 
L 183.972335 154.816138 
L 183.972335 154.690262 
L 184.366249 154.690262 
L 184.444052 154.060883 
L 184.752084 154.060883 
L 184.828311 153.431503 
L 184.904229 153.431503 
L 184.904229 153.305628 
L 185.279294 153.305628 
L 185.353418 152.802124 
L 185.574053 152.802124 
L 185.647027 152.424497 
L 185.864265 152.424497 
L 185.864265 152.172745 
L 186.079022 152.172745 
L 186.079022 152.046869 
L 186.220844 152.046869 
L 186.291356 151.669241 
L 186.431592 151.669241 
L 186.431592 151.41749 
L 186.57079 151.41749 
L 186.57079 150.913986 
L 186.708966 150.913986 
L 186.777675 150.410483 
L 360.8064 150.410483 
L 360.8064 150.410483 
" style="fill: none; stroke: #000080; stroke-width: 1.5; stroke-linecap: square"/>
   </g>
   <g id="line2d_36">
    <defs>
     <path id="m8f6e0b11d0" d="M 0 6 
C 1.591219 6 3.117479 5.367802 4.242641 4.242641 
C 5.367802 3.117479 6 1.591219 6 0 
C 6 -1.591219 5.367802 -3.117479 4.242641 -4.242641 
C 3.117479 -5.367802 1.591219 -6 0 -6 
C -1.591219 -6 -3.117479 -5.367802 -4.242641 -4.242641 
C -5.367802 -3.117479 -6 -1.591219 -6 0 
C -6 1.591219 -5.367802 3.117479 -4.242641 4.242641 
C -3.117479 5.367802 -1.591219 6 0 6 
z
" style="stroke: #000080; stroke-width: 1.5"/>
    </defs>
    <g>
     <use xlink:href="#m8f6e0b11d0" x="112.487797" y="266.0904" style="fill-opacity: 0; stroke: #000080; stroke-width: 1.5"/>
     <use xlink:href="#m8f6e0b11d0" x="163.899064" y="191.320138" style="fill-opacity: 0; stroke: #000080; stroke-width: 1.5"/>
     <use xlink:href="#m8f6e0b11d0" x="186.777675" y="150.536359" style="fill-opacity: 0; stroke: #000080; stroke-width: 1.5"/>
     <use xlink:href="#m8f6e0b11d0" x="186.777675" y="150.410483" style="fill-opacity: 0; stroke: #000080; stroke-width: 1.5"/>
     <use xlink:href="#m8f6e0b11d0" x="186.777675" y="150.410483" style="fill-opacity: 0; stroke: #000080; stroke-width: 1.5"/>
     <use xlink:href="#m8f6e0b11d0" x="360.8064" y="150.410483" style="fill-opacity: 0; stroke: #000080; stroke-width: 1.5"/>
    </g>
   </g>
   <g id="line2d_37">
    <path style="fill: none; stroke: #000080; stroke-width: 1.5; stroke-linecap: square"/>
    <g/>
   </g>
   <g id="line2d_38">
    <path d="M 187.507939 150.410483 
" clip-path="url(#p7e02ad020f)" style="fill: none; stroke: #000080; stroke-width: 1.5; stroke-linecap: square"/>
    <defs>
     <path id="me4dd2f21e5" d="M -12 12 
L 12 -12 
M -12 -12 
L 12 12 
" style="stroke: #000080"/>
    </defs>
    <g clip-path="url(#p7e02ad020f)">
     <use xlink:href="#me4dd2f21e5" x="187.507939" y="150.410483" style="fill: #000080; stroke: #000080"/>
    </g>
   </g>
   <g id="line2d_39">
    <defs>
     <path id="mb8a783f17e" d="M 0 1.5 
C 0.397805 1.5 0.77937 1.341951 1.06066 1.06066 
C 1.341951 0.77937 1.5 0.397805 1.5 0 
C 1.5 -0.397805 1.341951 -0.77937 1.06066 -1.06066 
C 0.77937 -1.341951 0.397805 -1.5 0 -1.5 
C -0.397805 -1.5 -0.77937 -1.341951 -1.06066 -1.06066 
C -1.341951 -0.77937 -1.5 -0.397805 -1.5 0 
C -1.5 0.397805 -1.341951 0.77937 -1.06066 1.06066 
C -0.77937 1.341951 -0.397805 1.5 0 1.5 
z
" style="stroke: #ff00ff"/>
    </defs>
    <g>
     <use xlink:href="#mb8a783f17e" x="187.366036" y="140.214538" style="fill: #ff00ff; stroke: #ff00ff"/>
     <use xlink:href="#mb8a783f17e" x="187.366036" y="140.214538" style="fill: #ff00ff; stroke: #ff00ff"/>
    </g>
   </g>
   <g id="line2d_40">
    <path d="M 44.560826 298.944 
L 44.560826 286.104662 
L 57.6 286.104662 
L 57.6 281.950759 
L 83.678349 281.950759 
L 83.678349 277.293352 
L 85.894031 277.293352 
L 85.894031 276.034593 
L 94.205591 276.034593 
L 94.205591 274.398207 
L 95.503454 274.398207 
L 95.503454 271.377186 
L 96.717523 271.377186 
L 96.717523 270.118428 
L 101.833019 270.118428 
L 101.833019 266.0904 
L 102.708132 266.0904 
L 102.708132 264.328138 
L 103.544339 264.328138 
L 103.544339 263.698759 
L 106.560633 263.698759 
L 106.560633 262.943503 
L 107.244765 262.943503 
L 107.244765 262.062372 
L 107.904887 262.062372 
L 107.904887 261.055366 
L 108.542628 261.055366 
L 108.542628 260.803614 
L 110.335561 260.803614 
L 110.335561 260.174234 
L 110.897141 260.174234 
L 110.897141 259.670731 
L 111.442442 259.670731 
L 111.442442 259.041352 
L 111.97238 259.041352 
L 111.97238 258.663724 
L 113.478107 258.663724 
L 113.478107 258.537848 
L 113.954374 258.537848 
L 113.954374 258.411972 
L 114.418881 258.411972 
L 114.418881 257.404966 
L 114.872193 257.404966 
L 114.872193 256.901462 
L 115.314838 256.901462 
L 115.314838 256.775586 
L 115.747307 256.775586 
L 115.747307 256.64971 
L 116.988079 256.64971 
L 116.988079 254.761572 
L 117.384126 254.761572 
L 117.384126 253.62869 
L 118.524569 253.62869 
L 118.524569 253.251062 
L 119.24818 253.251062 
L 119.24818 252.873434 
L 119.599808 252.873434 
L 119.599808 252.369931 
L 119.944983 252.369931 
L 119.944983 251.740552 
L 121.265635 251.740552 
L 121.265635 251.4888 
L 121.581803 251.4888 
L 121.581803 251.237048 
L 121.892744 251.237048 
L 121.892744 249.726538 
L 123.657621 249.726538 
L 123.657621 247.460772 
L 123.936316 247.460772 
L 123.936316 247.334897 
L 124.210942 247.334897 
L 124.210942 244.943255 
L 124.481616 244.943255 
L 124.481616 244.691503 
L 124.748451 244.691503 
L 124.748451 243.936248 
L 125.011554 243.936248 
L 125.011554 243.810372 
L 125.526971 243.810372 
L 125.526971 243.558621 
L 125.779479 243.558621 
L 125.779479 242.425738 
L 126.028642 242.425738 
L 126.028642 242.04811 
L 126.274549 242.04811 
L 126.274549 241.796359 
L 126.517282 241.796359 
L 126.517282 241.544607 
L 126.993549 241.544607 
L 126.993549 241.418731 
L 127.458055 241.418731 
L 127.458055 240.915228 
L 127.686077 240.915228 
L 127.686077 240.411724 
L 127.911368 240.411724 
L 127.911368 240.034097 
L 128.133992 240.034097 
L 128.133992 239.404717 
L 128.354013 239.404717 
L 128.354013 239.152966 
L 129.209231 239.152966 
L 129.209231 238.775338 
L 129.826058 238.775338 
L 129.826058 237.264828 
L 130.027253 237.264828 
L 130.027253 237.013076 
L 130.226319 237.013076 
L 130.226319 236.383697 
L 130.4233 236.383697 
L 130.4233 236.257821 
L 130.618241 236.257821 
L 130.618241 236.006069 
L 130.811181 236.006069 
L 130.811181 235.880193 
L 131.002163 235.880193 
L 131.002163 235.628441 
L 131.191226 235.628441 
L 131.191226 235.502566 
L 131.378407 235.502566 
L 131.378407 234.873186 
L 131.563744 234.873186 
L 131.563744 234.369683 
L 131.747272 234.369683 
L 131.747272 234.243807 
L 131.929028 234.243807 
L 131.929028 234.117931 
L 132.109044 234.117931 
L 132.109044 232.103917 
L 132.287354 232.103917 
L 132.287354 231.978041 
L 132.46399 231.978041 
L 132.46399 231.600414 
L 132.812362 231.600414 
L 132.812362 231.348662 
L 133.490329 231.348662 
L 133.490329 230.467531 
L 133.820365 230.467531 
L 133.820365 230.341655 
L 133.983236 230.341655 
L 133.983236 229.964028 
L 134.463557 229.964028 
L 134.463557 229.208772 
L 134.620977 229.208772 
L 134.620977 228.453517 
L 134.931919 228.453517 
L 134.931919 227.44651 
L 135.085483 227.44651 
L 135.085483 226.943007 
L 135.237805 226.943007 
L 135.237805 226.817131 
L 135.687504 226.817131 
L 135.687504 226.565379 
L 135.835047 226.565379 
L 135.835047 226.439503 
L 135.981441 226.439503 
L 135.981441 226.313628 
L 136.555884 226.313628 
L 136.555884 226.061876 
L 137.250116 226.061876 
L 137.250116 225.936 
L 137.38594 225.936 
L 137.38594 225.684248 
L 137.654681 225.684248 
L 137.654681 225.432497 
L 137.787626 225.432497 
L 137.787626 225.306621 
L 137.919637 225.306621 
L 137.919637 223.418483 
L 138.438609 223.418483 
L 138.438609 223.166731 
L 138.692823 223.166731 
L 138.692823 222.914979 
L 139.067817 222.914979 
L 139.067817 222.411476 
L 139.191172 222.411476 
L 139.191172 222.033848 
L 139.435481 222.033848 
L 139.435481 221.530345 
L 139.796097 221.530345 
L 139.796097 221.278593 
L 140.382174 221.278593 
L 140.382174 220.649214 
L 140.838234 220.649214 
L 140.838234 220.523338 
L 140.950542 220.523338 
L 140.950542 220.397462 
L 141.173167 220.397462 
L 141.283499 219.768083 
L 141.610664 219.768083 
L 141.718467 218.6352 
L 141.932237 218.6352 
L 141.932237 218.257572 
L 142.143605 218.257572 
L 142.143605 218.131697 
L 142.45627 218.131697 
L 142.559347 217.628193 
L 142.966099 217.628193 
L 142.966099 217.502317 
L 143.265494 217.502317 
L 143.265494 217.250566 
L 143.560197 217.250566 
L 143.657415 216.747062 
L 143.754133 216.747062 
L 143.850356 216.369434 
L 144.136106 216.369434 
L 144.2304 214.229545 
L 144.324223 214.229545 
L 144.324223 212.84491 
L 144.602918 212.84491 
L 144.602918 212.593159 
L 144.786447 212.593159 
L 144.877544 212.341407 
L 144.968202 212.341407 
L 145.058426 211.963779 
L 145.237585 211.963779 
L 145.326529 211.460276 
L 145.765046 211.460276 
L 145.851536 210.453269 
L 145.93763 210.453269 
L 146.023332 209.82389 
L 146.362288 209.82389 
L 146.446082 209.068634 
L 146.695245 209.068634 
L 146.695245 208.691007 
L 146.859539 208.691007 
L 146.859539 208.313379 
L 147.103321 208.313379 
L 147.103321 208.061628 
L 147.264104 208.061628 
L 147.343984 207.306372 
L 147.971093 207.306372 
L 147.971093 207.054621 
L 148.276979 207.054621 
L 148.352679 206.299366 
L 148.503173 206.299366 
L 148.57797 205.418234 
L 148.874221 205.418234 
L 148.874221 204.914731 
L 149.020615 204.914731 
L 149.020615 204.537103 
L 149.165879 204.537103 
L 149.165879 204.411228 
L 149.31003 204.411228 
L 149.381693 204.0336 
L 149.945377 204.0336 
L 149.945377 203.907724 
L 150.083698 203.907724 
L 150.152479 203.152469 
L 150.221009 203.152469 
L 150.289291 202.648966 
L 150.425115 202.648966 
L 150.425115 202.397214 
L 150.62703 202.397214 
L 150.62703 202.145462 
L 150.892922 202.145462 
L 150.958812 201.89371 
L 151.284843 201.89371 
L 151.284843 201.516083 
L 151.41369 201.516083 
L 151.41369 201.264331 
L 151.60532 201.264331 
L 151.668766 200.886703 
L 151.795018 200.886703 
L 151.795018 200.3832 
L 151.920429 200.3832 
L 151.920429 199.879697 
L 152.291722 199.879697 
L 152.352898 199.250317 
L 152.953957 199.250317 
L 153.01302 198.620938 
L 153.363556 198.620938 
L 153.363556 198.369186 
L 153.593669 198.369186 
L 153.593669 198.117434 
L 153.764426 198.117434 
L 153.764426 197.991559 
L 153.933646 197.991559 
L 153.989717 197.613931 
L 154.101358 197.613931 
L 154.101358 196.984552 
L 154.322673 196.984552 
L 154.322673 196.7328 
L 154.486967 196.7328 
L 154.595705 195.851669 
L 154.649839 195.851669 
L 154.757642 195.22229 
L 154.811312 195.22229 
L 154.86483 194.215283 
L 155.235253 194.215283 
L 155.339761 193.837655 
L 155.495444 193.837655 
L 155.547053 193.585903 
L 155.802997 193.585903 
L 155.802997 193.334152 
L 156.055505 193.334152 
L 156.055505 193.0824 
L 156.205398 193.0824 
L 156.304668 192.327145 
L 156.354107 192.327145 
L 156.452597 191.823641 
L 156.550574 191.823641 
L 156.648044 191.320138 
L 156.793307 191.320138 
L 156.88953 190.94251 
L 157.222487 190.94251 
L 157.222487 190.564883 
L 157.456756 190.564883 
L 157.549652 190.061379 
L 157.871225 190.061379 
L 157.962102 189.557876 
L 158.14255 189.557876 
L 158.14255 189.306124 
L 158.542339 189.306124 
L 158.630038 188.928497 
L 158.804221 188.928497 
L 158.847515 188.550869 
L 159.062507 188.550869 
L 159.14782 187.795614 
L 159.317295 187.795614 
L 159.401463 187.543862 
L 159.485256 187.543862 
L 159.527013 187.166234 
L 159.693121 187.166234 
L 159.734419 186.788607 
L 159.816746 186.788607 
L 159.898714 186.410979 
L 160.061585 186.410979 
L 160.061585 186.159228 
L 160.581385 186.159228 
L 160.660094 185.026345 
L 160.816532 185.026345 
L 160.855439 184.648717 
L 160.933013 184.648717 
L 160.933013 184.396966 
L 161.087207 184.396966 
L 161.125559 183.64171 
L 161.202028 183.64171 
L 161.202028 183.515834 
L 161.504837 183.515834 
L 161.579783 183.138207 
L 161.986735 183.138207 
L 162.05979 182.382952 
L 162.132562 182.382952 
L 162.132562 182.257076 
L 162.277267 182.257076 
L 162.277267 182.005324 
L 162.634233 182.005324 
L 162.740015 181.627697 
L 162.775144 181.627697 
L 162.880139 180.998317 
L 163.019227 180.998317 
L 163.088387 179.99131 
L 163.464289 179.99131 
L 163.464289 179.739559 
L 163.79962 179.739559 
L 163.79962 179.613683 
L 164.09639 179.613683 
L 164.194282 179.361931 
L 164.324018 179.361931 
L 164.324018 178.606676 
L 164.959603 178.606676 
L 165.053116 177.473793 
L 165.269521 177.473793 
L 165.269521 177.096166 
L 165.422585 177.096166 
L 165.422585 176.97029 
L 165.664928 176.97029 
L 165.664928 176.844414 
L 165.904188 176.844414 
L 165.993131 176.466786 
L 166.111072 176.466786 
L 166.111072 176.089159 
L 166.228279 176.089159 
L 166.315707 175.585655 
L 166.431649 175.585655 
L 166.489353 175.208028 
L 166.546881 175.208028 
L 166.632844 174.704524 
L 166.689935 174.704524 
L 166.718416 173.949269 
L 166.860176 173.949269 
L 166.944723 173.194014 
L 167.140533 173.194014 
L 167.140533 173.068138 
L 167.526142 173.068138 
L 167.607754 172.564634 
L 167.661966 172.564634 
L 167.742992 172.187007 
L 167.850487 172.187007 
L 167.850487 171.935255 
L 168.090128 171.935255 
L 168.090128 171.809379 
L 168.508761 171.809379 
L 168.586228 171.431752 
L 168.637696 171.431752 
L 168.740211 170.928248 
L 168.867575 170.928248 
L 168.968849 170.298869 
L 168.994082 170.298869 
L 168.994082 170.172993 
L 169.119745 170.172993 
L 169.144777 169.291862 
L 169.269439 169.291862 
L 169.343842 168.914234 
L 169.417952 168.914234 
L 169.417952 168.662483 
L 169.832482 168.662483 
L 169.904695 168.284855 
L 170.00055 168.284855 
L 170.00055 168.033103 
L 170.214455 168.033103 
L 170.214455 167.781352 
L 170.355719 167.781352 
L 170.425955 167.277848 
L 170.542436 167.277848 
L 170.542436 167.151972 
L 170.773255 167.151972 
L 170.796182 166.900221 
L 170.93316 166.900221 
L 170.93316 166.774345 
L 171.091717 166.774345 
L 171.11426 166.396717 
L 171.20416 166.396717 
L 171.248949 166.01909 
L 171.493403 166.01909 
L 171.581513 165.641462 
L 171.865055 165.641462 
L 171.929885 165.137959 
L 172.080292 165.137959 
L 172.165703 164.382703 
L 172.356469 164.382703 
L 172.440637 163.249821 
L 172.896949 163.249821 
L 172.99913 162.36869 
L 173.302386 162.36869 
L 173.302386 162.116938 
L 173.659955 162.116938 
L 173.659955 161.865186 
L 173.855707 161.865186 
L 173.933441 161.487559 
L 173.972187 161.487559 
L 174.010854 161.235807 
L 174.164733 161.235807 
L 174.241203 160.732303 
L 174.525228 160.732303 
L 174.525228 160.606428 
L 174.805028 160.606428 
L 174.878944 160.102924 
L 174.95257 160.102924 
L 175.062472 159.347669 
L 175.098964 159.347669 
L 175.135386 158.970041 
L 175.298414 158.970041 
L 175.298414 158.844166 
L 175.531433 158.844166 
L 175.567027 158.466538 
L 175.673408 158.466538 
L 175.77919 157.837159 
L 175.796762 157.837159 
L 175.814319 157.333655 
L 175.954182 157.333655 
L 175.954182 157.081903 
L 176.265124 157.081903 
L 176.316452 156.704276 
L 176.503464 156.704276 
L 176.604692 155.949021 
L 176.722107 155.949021 
L 176.805529 155.697269 
L 176.838794 155.697269 
L 176.838794 155.571393 
L 177.053597 155.571393 
L 177.053597 155.319641 
L 177.168252 155.319641 
L 177.168252 155.06789 
L 177.45991 155.06789 
L 177.508083 154.690262 
L 177.572122 154.690262 
L 177.572122 154.564386 
L 177.826122 154.564386 
L 177.826122 154.43851 
L 177.983147 154.43851 
L 178.076737 153.431503 
L 178.154375 153.431503 
L 178.154375 153.305628 
L 178.431246 153.305628 
L 178.537828 152.676248 
L 178.613589 152.676248 
L 178.613589 152.424497 
L 178.779198 152.424497 
L 178.853996 152.172745 
L 179.194285 152.172745 
L 179.267453 151.920993 
L 179.427429 151.920993 
L 179.427429 151.543366 
L 179.686307 151.543366 
L 179.729109 150.913986 
L 179.856935 150.913986 
L 179.927575 150.536359 
L 180.123969 150.536359 
L 180.193616 149.906979 
L 180.23528 149.906979 
L 180.23528 149.781103 
L 180.387266 149.781103 
L 180.387266 149.529352 
L 180.524377 149.529352 
L 180.524377 149.2776 
L 180.674054 149.2776 
L 180.768686 149.025848 
L 180.795637 149.025848 
L 180.795637 148.774097 
L 181.009863 148.774097 
L 181.009863 148.648221 
L 181.300497 148.648221 
L 181.405079 148.270593 
L 181.496113 148.270593 
L 181.547935 147.76709 
L 182.196455 147.76709 
L 182.221437 147.263586 
L 182.395389 147.263586 
L 182.420108 146.885959 
L 182.738541 146.885959 
L 182.811266 146.382455 
L 183.003836 146.382455 
L 183.003836 146.256579 
L 183.218147 146.256579 
L 183.324394 145.753076 
L 183.453442 145.753076 
L 183.46513 145.375448 
L 183.569995 145.375448 
L 183.569995 145.123697 
L 184.029116 145.123697 
L 184.108322 144.494317 
L 184.175949 144.494317 
L 184.265742 144.242566 
L 184.609696 144.242566 
L 184.609696 144.11669 
L 184.79568 144.11669 
L 184.828311 143.864938 
L 184.936672 143.864938 
L 185.022915 143.361434 
L 185.076616 143.361434 
L 185.140856 142.983807 
L 185.574053 142.983807 
L 185.574053 142.732055 
L 185.946366 142.732055 
L 185.946366 142.480303 
L 186.089188 142.480303 
L 186.089188 142.354428 
L 186.261169 142.354428 
L 186.34156 141.9768 
L 186.381628 141.9768 
L 186.381628 141.725048 
L 186.521195 141.725048 
L 186.580694 141.347421 
L 186.649872 141.347421 
L 186.748259 140.843917 
L 186.991998 140.843917 
L 187.04037 140.592166 
L 187.184741 140.592166 
L 187.251738 140.340414 
L 187.366036 140.340414 
L 187.366036 140.214538 
L 360.8064 140.214538 
L 360.8064 140.214538 
" style="fill: none; stroke: #ff00ff; stroke-width: 1.5; stroke-linecap: square"/>
   </g>
   <g id="line2d_41">
    <defs>
     <path id="mc13173e217" d="M -0 8.485281 
L 5.091169 0 
L 0 -8.485281 
L -5.091169 -0 
z
" style="stroke: #ff00ff; stroke-width: 1.5; stroke-linejoin: miter"/>
    </defs>
    <g>
     <use xlink:href="#mc13173e217" x="141.283499" y="219.893959" style="fill-opacity: 0; stroke: #ff00ff; stroke-width: 1.5; stroke-linejoin: miter"/>
     <use xlink:href="#mc13173e217" x="174.525228" y="160.606428" style="fill-opacity: 0; stroke: #ff00ff; stroke-width: 1.5; stroke-linejoin: miter"/>
     <use xlink:href="#mc13173e217" x="187.366036" y="140.340414" style="fill-opacity: 0; stroke: #ff00ff; stroke-width: 1.5; stroke-linejoin: miter"/>
     <use xlink:href="#mc13173e217" x="187.366036" y="140.214538" style="fill-opacity: 0; stroke: #ff00ff; stroke-width: 1.5; stroke-linejoin: miter"/>
     <use xlink:href="#mc13173e217" x="187.366036" y="140.214538" style="fill-opacity: 0; stroke: #ff00ff; stroke-width: 1.5; stroke-linejoin: miter"/>
     <use xlink:href="#mc13173e217" x="360.8064" y="140.214538" style="fill-opacity: 0; stroke: #ff00ff; stroke-width: 1.5; stroke-linejoin: miter"/>
    </g>
   </g>
   <g id="line2d_42">
    <path style="fill: none; stroke: #ff00ff; stroke-width: 1.5; stroke-linecap: square"/>
    <g/>
   </g>
   <g id="line2d_43">
    <path d="M 187.489081 140.214538 
" clip-path="url(#p7e02ad020f)" style="fill: none; stroke: #ff00ff; stroke-width: 1.5; stroke-linecap: square"/>
    <defs>
     <path id="meeeef0ac1a" d="M -12 12 
L 12 -12 
M -12 -12 
L 12 12 
" style="stroke: #ff00ff"/>
    </defs>
    <g clip-path="url(#p7e02ad020f)">
     <use xlink:href="#meeeef0ac1a" x="187.489081" y="140.214538" style="fill: #ff00ff; stroke: #ff00ff"/>
    </g>
   </g>
   <g id="line2d_44">
    <path d="M 360.8064 150.410483 
L 380.514816 293.10336 
" style="fill: none; stroke: #000080; stroke-width: 1.5; stroke-linecap: square"/>
    <g>
     <use xlink:href="#m8f6e0b11d0" x="360.8064" y="150.410483" style="fill-opacity: 0; stroke: #000080; stroke-width: 1.5"/>
     <use xlink:href="#m8f6e0b11d0" x="380.514816" y="293.10336" style="fill-opacity: 0; stroke: #000080; stroke-width: 1.5"/>
    </g>
   </g>
   <g id="line2d_45">
    <path d="M 360.8064 140.214538 
L 380.514816 152.928 
" style="fill: none; stroke: #ff00ff; stroke-width: 1.5; stroke-linecap: square"/>
    <g>
     <use xlink:href="#mc13173e217" x="360.8064" y="140.214538" style="fill-opacity: 0; stroke: #ff00ff; stroke-width: 1.5; stroke-linejoin: miter"/>
     <use xlink:href="#mc13173e217" x="380.514816" y="152.928" style="fill-opacity: 0; stroke: #ff00ff; stroke-width: 1.5; stroke-linejoin: miter"/>
    </g>
   </g>
   <g id="line2d_46">
    <path d="M 360.8064 298.944 
L 360.8064 6.912 
" style="fill: none; stroke: #000000; stroke-width: 1.5; stroke-linecap: square"/>
   </g>
   <g id="patch_3">
    <path d="M 57.6 298.944 
L 360.8064 298.944 
" style="fill: none; stroke: #000000; stroke-width: 0.8; stroke-linejoin: miter; stroke-linecap: square"/>
   </g>
   <g id="patch_4">
    <path d="M 57.6 6.912 
L 360.8064 6.912 
" style="fill: none; stroke: #000000; stroke-width: 0.8; stroke-linejoin: miter; stroke-linecap: square"/>
   </g>
   <g id="text_13">
    <!-- kerComo -->
    <g transform="translate(386.578944 296.966485) scale(0.14 -0.14)">
     <defs>
      <path id="DejaVuSans-6b" d="M 581 4863 
L 1159 4863 
L 1159 1991 
L 2875 3500 
L 3609 3500 
L 1753 1863 
L 3688 0 
L 2938 0 
L 1159 1709 
L 1159 0 
L 581 0 
L 581 4863 
z
" transform="scale(0.015625)"/>
      <path id="DejaVuSans-43" d="M 4122 4306 
L 4122 3641 
Q 3803 3938 3442 4084 
Q 3081 4231 2675 4231 
Q 1875 4231 1450 3742 
Q 1025 3253 1025 2328 
Q 1025 1406 1450 917 
Q 1875 428 2675 428 
Q 3081 428 3442 575 
Q 3803 722 4122 1019 
L 4122 359 
Q 3791 134 3420 21 
Q 3050 -91 2638 -91 
Q 1578 -91 968 557 
Q 359 1206 359 2328 
Q 359 3453 968 4101 
Q 1578 4750 2638 4750 
Q 3056 4750 3426 4639 
Q 3797 4528 4122 4306 
z
" transform="scale(0.015625)"/>
     </defs>
     <use xlink:href="#DejaVuSans-6b"/>
     <use xlink:href="#DejaVuSans-65" x="54.285156"/>
     <use xlink:href="#DejaVuSans-72" x="115.808594"/>
     <use xlink:href="#DejaVuSans-43" x="156.921875"/>
     <use xlink:href="#DejaVuSans-6f" x="226.746094"/>
     <use xlink:href="#DejaVuSans-6d" x="287.927734"/>
     <use xlink:href="#DejaVuSans-6f" x="385.339844"/>
    </g>
   </g>
   <g id="text_14">
    <!-- kerLQ -->
    <g transform="translate(386.578944 156.791125) scale(0.14 -0.14)">
     <defs>
      <path id="DejaVuSans-4c" d="M 628 4666 
L 1259 4666 
L 1259 531 
L 3531 531 
L 3531 0 
L 628 0 
L 628 4666 
z
" transform="scale(0.015625)"/>
      <path id="DejaVuSans-51" d="M 2522 4238 
Q 1834 4238 1429 3725 
Q 1025 3213 1025 2328 
Q 1025 1447 1429 934 
Q 1834 422 2522 422 
Q 3209 422 3611 934 
Q 4013 1447 4013 2328 
Q 4013 3213 3611 3725 
Q 3209 4238 2522 4238 
z
M 3406 84 
L 4238 -825 
L 3475 -825 
L 2784 -78 
Q 2681 -84 2626 -87 
Q 2572 -91 2522 -91 
Q 1538 -91 948 567 
Q 359 1225 359 2328 
Q 359 3434 948 4092 
Q 1538 4750 2522 4750 
Q 3503 4750 4090 4092 
Q 4678 3434 4678 2328 
Q 4678 1516 4351 937 
Q 4025 359 3406 84 
z
" transform="scale(0.015625)"/>
     </defs>
     <use xlink:href="#DejaVuSans-6b"/>
     <use xlink:href="#DejaVuSans-65" x="54.285156"/>
     <use xlink:href="#DejaVuSans-72" x="115.808594"/>
     <use xlink:href="#DejaVuSans-4c" x="156.921875"/>
     <use xlink:href="#DejaVuSans-51" x="212.634766"/>
    </g>
   </g>
   <g id="text_15">
    <!-- best 2016 -->
    <g transform="translate(386.578944 16.615765) scale(0.14 -0.14)">
     <defs>
      <path id="DejaVuSans-62" d="M 3116 1747 
Q 3116 2381 2855 2742 
Q 2594 3103 2138 3103 
Q 1681 3103 1420 2742 
Q 1159 2381 1159 1747 
Q 1159 1113 1420 752 
Q 1681 391 2138 391 
Q 2594 391 2855 752 
Q 3116 1113 3116 1747 
z
M 1159 2969 
Q 1341 3281 1617 3432 
Q 1894 3584 2278 3584 
Q 2916 3584 3314 3078 
Q 3713 2572 3713 1747 
Q 3713 922 3314 415 
Q 2916 -91 2278 -91 
Q 1894 -91 1617 61 
Q 1341 213 1159 525 
L 1159 0 
L 581 0 
L 581 4863 
L 1159 4863 
L 1159 2969 
z
" transform="scale(0.015625)"/>
     </defs>
     <use xlink:href="#DejaVuSans-62"/>
     <use xlink:href="#DejaVuSans-65" x="63.476562"/>
     <use xlink:href="#DejaVuSans-73" x="125"/>
     <use xlink:href="#DejaVuSans-74" x="177.099609"/>
     <use xlink:href="#DejaVuSans-20" x="216.308594"/>
     <use xlink:href="#DejaVuSans-32" x="248.095703"/>
     <use xlink:href="#DejaVuSans-30" x="311.71875"/>
     <use xlink:href="#DejaVuSans-31" x="375.341797"/>
     <use xlink:href="#DejaVuSans-36" x="438.964844"/>
    </g>
   </g>
   <g id="text_16">
    <!-- bbob-biobj f3, f4, f12, f13, 2-D -->
    <g transform="translate(60.632064 17.582726) scale(0.102 -0.102)">
     <defs>
      <path id="DejaVuSans-6a" d="M 603 3500 
L 1178 3500 
L 1178 -63 
Q 1178 -731 923 -1031 
Q 669 -1331 103 -1331 
L -116 -1331 
L -116 -844 
L 38 -844 
Q 366 -844 484 -692 
Q 603 -541 603 -63 
L 603 3500 
z
M 603 4863 
L 1178 4863 
L 1178 4134 
L 603 4134 
L 603 4863 
z
" transform="scale(0.015625)"/>
      <path id="DejaVuSans-33" d="M 2597 2516 
Q 3050 2419 3304 2112 
Q 3559 1806 3559 1356 
Q 3559 666 3084 287 
Q 2609 -91 1734 -91 
Q 1441 -91 1130 -33 
Q 819 25 488 141 
L 488 750 
Q 750 597 1062 519 
Q 1375 441 1716 441 
Q 2309 441 2620 675 
Q 2931 909 2931 1356 
Q 2931 1769 2642 2001 
Q 2353 2234 1838 2234 
L 1294 2234 
L 1294 2753 
L 1863 2753 
Q 2328 2753 2575 2939 
Q 2822 3125 2822 3475 
Q 2822 3834 2567 4026 
Q 2313 4219 1838 4219 
Q 1578 4219 1281 4162 
Q 984 4106 628 3988 
L 628 4550 
Q 988 4650 1302 4700 
Q 1616 4750 1894 4750 
Q 2613 4750 3031 4423 
Q 3450 4097 3450 3541 
Q 3450 3153 3228 2886 
Q 3006 2619 2597 2516 
z
" transform="scale(0.015625)"/>
      <path id="DejaVuSans-44" d="M 1259 4147 
L 1259 519 
L 2022 519 
Q 2988 519 3436 956 
Q 3884 1394 3884 2338 
Q 3884 3275 3436 3711 
Q 2988 4147 2022 4147 
L 1259 4147 
z
M 628 4666 
L 1925 4666 
Q 3281 4666 3915 4102 
Q 4550 3538 4550 2338 
Q 4550 1131 3912 565 
Q 3275 0 1925 0 
L 628 0 
L 628 4666 
z
" transform="scale(0.015625)"/>
     </defs>
     <use xlink:href="#DejaVuSans-62"/>
     <use xlink:href="#DejaVuSans-62" x="63.476562"/>
     <use xlink:href="#DejaVuSans-6f" x="126.953125"/>
     <use xlink:href="#DejaVuSans-62" x="188.134766"/>
     <use xlink:href="#DejaVuSans-2d" x="251.611328"/>
     <use xlink:href="#DejaVuSans-62" x="287.695312"/>
     <use xlink:href="#DejaVuSans-69" x="351.171875"/>
     <use xlink:href="#DejaVuSans-6f" x="378.955078"/>
     <use xlink:href="#DejaVuSans-62" x="440.136719"/>
     <use xlink:href="#DejaVuSans-6a" x="503.613281"/>
     <use xlink:href="#DejaVuSans-20" x="531.396484"/>
     <use xlink:href="#DejaVuSans-66" x="563.183594"/>
     <use xlink:href="#DejaVuSans-33" x="598.388672"/>
     <use xlink:href="#DejaVuSans-2c" x="662.011719"/>
     <use xlink:href="#DejaVuSans-20" x="693.798828"/>
     <use xlink:href="#DejaVuSans-66" x="725.585938"/>
     <use xlink:href="#DejaVuSans-34" x="760.791016"/>
     <use xlink:href="#DejaVuSans-2c" x="824.414062"/>
     <use xlink:href="#DejaVuSans-20" x="856.201172"/>
     <use xlink:href="#DejaVuSans-66" x="887.988281"/>
     <use xlink:href="#DejaVuSans-31" x="923.193359"/>
     <use xlink:href="#DejaVuSans-32" x="986.816406"/>
     <use xlink:href="#DejaVuSans-2c" x="1050.439453"/>
     <use xlink:href="#DejaVuSans-20" x="1082.226562"/>
     <use xlink:href="#DejaVuSans-66" x="1114.013672"/>
     <use xlink:href="#DejaVuSans-31" x="1149.21875"/>
     <use xlink:href="#DejaVuSans-33" x="1212.841797"/>
     <use xlink:href="#DejaVuSans-2c" x="1276.464844"/>
     <use xlink:href="#DejaVuSans-20" x="1308.251953"/>
     <use xlink:href="#DejaVuSans-32" x="1340.039062"/>
     <use xlink:href="#DejaVuSans-2d" x="1403.662109"/>
     <use xlink:href="#DejaVuSans-44" x="1439.746094"/>
    </g>
    <!-- 58 targets: 1..-1.0e-4 -->
    <g transform="translate(60.632064 29.004495) scale(0.102 -0.102)">
     <defs>
      <path id="DejaVuSans-35" d="M 691 4666 
L 3169 4666 
L 3169 4134 
L 1269 4134 
L 1269 2991 
Q 1406 3038 1543 3061 
Q 1681 3084 1819 3084 
Q 2600 3084 3056 2656 
Q 3513 2228 3513 1497 
Q 3513 744 3044 326 
Q 2575 -91 1722 -91 
Q 1428 -91 1123 -41 
Q 819 9 494 109 
L 494 744 
Q 775 591 1075 516 
Q 1375 441 1709 441 
Q 2250 441 2565 725 
Q 2881 1009 2881 1497 
Q 2881 1984 2565 2268 
Q 2250 2553 1709 2553 
Q 1456 2553 1204 2497 
Q 953 2441 691 2322 
L 691 4666 
z
" transform="scale(0.015625)"/>
      <path id="DejaVuSans-3a" d="M 750 794 
L 1409 794 
L 1409 0 
L 750 0 
L 750 794 
z
M 750 3309 
L 1409 3309 
L 1409 2516 
L 750 2516 
L 750 3309 
z
" transform="scale(0.015625)"/>
     </defs>
     <use xlink:href="#DejaVuSans-35"/>
     <use xlink:href="#DejaVuSans-38" x="63.623047"/>
     <use xlink:href="#DejaVuSans-20" x="127.246094"/>
     <use xlink:href="#DejaVuSans-74" x="159.033203"/>
     <use xlink:href="#DejaVuSans-61" x="198.242188"/>
     <use xlink:href="#DejaVuSans-72" x="259.521484"/>
     <use xlink:href="#DejaVuSans-67" x="298.884766"/>
     <use xlink:href="#DejaVuSans-65" x="362.361328"/>
     <use xlink:href="#DejaVuSans-74" x="423.884766"/>
     <use xlink:href="#DejaVuSans-73" x="463.09375"/>
     <use xlink:href="#DejaVuSans-3a" x="515.193359"/>
     <use xlink:href="#DejaVuSans-20" x="548.884766"/>
     <use xlink:href="#DejaVuSans-31" x="580.671875"/>
     <use xlink:href="#DejaVuSans-2e" x="644.294922"/>
     <use xlink:href="#DejaVuSans-2e" x="676.082031"/>
     <use xlink:href="#DejaVuSans-2d" x="707.869141"/>
     <use xlink:href="#DejaVuSans-31" x="743.953125"/>
     <use xlink:href="#DejaVuSans-2e" x="807.576172"/>
     <use xlink:href="#DejaVuSans-30" x="839.363281"/>
     <use xlink:href="#DejaVuSans-65" x="902.986328"/>
     <use xlink:href="#DejaVuSans-2d" x="964.509766"/>
     <use xlink:href="#DejaVuSans-34" x="1000.59375"/>
    </g>
    <!-- 10 instances -->
    <g transform="translate(60.632064 40.426264) scale(0.102 -0.102)">
     <use xlink:href="#DejaVuSans-31"/>
     <use xlink:href="#DejaVuSans-30" x="63.623047"/>
     <use xlink:href="#DejaVuSans-20" x="127.246094"/>
     <use xlink:href="#DejaVuSans-69" x="159.033203"/>
     <use xlink:href="#DejaVuSans-6e" x="186.816406"/>
     <use xlink:href="#DejaVuSans-73" x="250.195312"/>
     <use xlink:href="#DejaVuSans-74" x="302.294922"/>
     <use xlink:href="#DejaVuSans-61" x="341.503906"/>
     <use xlink:href="#DejaVuSans-6e" x="402.783203"/>
     <use xlink:href="#DejaVuSans-63" x="466.162109"/>
     <use xlink:href="#DejaVuSans-65" x="521.142578"/>
     <use xlink:href="#DejaVuSans-73" x="582.666016"/>
    </g>
   </g>
   <g id="text_17">
    <!-- v2.6, hv-hash=ff0e71e8cd978373 -->
    <g style="fill: #808080" transform="translate(123.707887 293.943992) scale(0.1 -0.1)">
     <defs>
      <path id="DejaVuSans-68" d="M 3513 2113 
L 3513 0 
L 2938 0 
L 2938 2094 
Q 2938 2591 2744 2837 
Q 2550 3084 2163 3084 
Q 1697 3084 1428 2787 
Q 1159 2491 1159 1978 
L 1159 0 
L 581 0 
L 581 4863 
L 1159 4863 
L 1159 2956 
Q 1366 3272 1645 3428 
Q 1925 3584 2291 3584 
Q 2894 3584 3203 3211 
Q 3513 2838 3513 2113 
z
" transform="scale(0.015625)"/>
      <path id="DejaVuSans-3d" d="M 678 2906 
L 4684 2906 
L 4684 2381 
L 678 2381 
L 678 2906 
z
M 678 1631 
L 4684 1631 
L 4684 1100 
L 678 1100 
L 678 1631 
z
" transform="scale(0.015625)"/>
      <path id="DejaVuSans-37" d="M 525 4666 
L 3525 4666 
L 3525 4397 
L 1831 0 
L 1172 0 
L 2766 4134 
L 525 4134 
L 525 4666 
z
" transform="scale(0.015625)"/>
      <path id="DejaVuSans-39" d="M 703 97 
L 703 672 
Q 941 559 1184 500 
Q 1428 441 1663 441 
Q 2288 441 2617 861 
Q 2947 1281 2994 2138 
Q 2813 1869 2534 1725 
Q 2256 1581 1919 1581 
Q 1219 1581 811 2004 
Q 403 2428 403 3163 
Q 403 3881 828 4315 
Q 1253 4750 1959 4750 
Q 2769 4750 3195 4129 
Q 3622 3509 3622 2328 
Q 3622 1225 3098 567 
Q 2575 -91 1691 -91 
Q 1453 -91 1209 -44 
Q 966 3 703 97 
z
M 1959 2075 
Q 2384 2075 2632 2365 
Q 2881 2656 2881 3163 
Q 2881 3666 2632 3958 
Q 2384 4250 1959 4250 
Q 1534 4250 1286 3958 
Q 1038 3666 1038 3163 
Q 1038 2656 1286 2365 
Q 1534 2075 1959 2075 
z
" transform="scale(0.015625)"/>
     </defs>
     <use xlink:href="#DejaVuSans-76"/>
     <use xlink:href="#DejaVuSans-32" x="59.179688"/>
     <use xlink:href="#DejaVuSans-2e" x="122.802734"/>
     <use xlink:href="#DejaVuSans-36" x="154.589844"/>
     <use xlink:href="#DejaVuSans-2c" x="218.212891"/>
     <use xlink:href="#DejaVuSans-20" x="250"/>
     <use xlink:href="#DejaVuSans-68" x="281.787109"/>
     <use xlink:href="#DejaVuSans-76" x="345.166016"/>
     <use xlink:href="#DejaVuSans-2d" x="401.720703"/>
     <use xlink:href="#DejaVuSans-68" x="437.804688"/>
     <use xlink:href="#DejaVuSans-61" x="501.183594"/>
     <use xlink:href="#DejaVuSans-73" x="562.462891"/>
     <use xlink:href="#DejaVuSans-68" x="614.5625"/>
     <use xlink:href="#DejaVuSans-3d" x="677.941406"/>
     <use xlink:href="#DejaVuSans-66" x="761.730469"/>
     <use xlink:href="#DejaVuSans-66" x="796.935547"/>
     <use xlink:href="#DejaVuSans-30" x="832.140625"/>
     <use xlink:href="#DejaVuSans-65" x="895.763672"/>
     <use xlink:href="#DejaVuSans-37" x="957.287109"/>
     <use xlink:href="#DejaVuSans-31" x="1020.910156"/>
     <use xlink:href="#DejaVuSans-65" x="1084.533203"/>
     <use xlink:href="#DejaVuSans-38" x="1146.056641"/>
     <use xlink:href="#DejaVuSans-63" x="1209.679688"/>
     <use xlink:href="#DejaVuSans-64" x="1264.660156"/>
     <use xlink:href="#DejaVuSans-39" x="1328.136719"/>
     <use xlink:href="#DejaVuSans-37" x="1391.759766"/>
     <use xlink:href="#DejaVuSans-38" x="1455.382812"/>
     <use xlink:href="#DejaVuSans-33" x="1519.005859"/>
     <use xlink:href="#DejaVuSans-37" x="1582.628906"/>
     <use xlink:href="#DejaVuSans-33" x="1646.251953"/>
    </g>
   </g>
  </g>
 </g>
 <defs>
  <clipPath id="p7e02ad020f">
   <rect x="57.6" y="6.912" width="303.2064" height="292.032"/>
  </clipPath>
 </defs>
</svg>
