<?xml version="1.0" encoding="utf-8" standalone="no"?>
<!DOCTYPE svg PUBLIC "-//W3C//DTD SVG 1.1//EN"
  "http://www.w3.org/Graphics/SVG/1.1/DTD/svg11.dtd">
<svg xmlns:xlink="http://www.w3.org/1999/xlink" width="460.8pt" height="345.6pt" viewBox="0 0 460.8 345.6" xmlns="http://www.w3.org/2000/svg" version="1.1">
 <metadata>
  <rdf:RDF xmlns:dc="http://purl.org/dc/elements/1.1/" xmlns:cc="http://creativecommons.org/ns#" xmlns:rdf="http://www.w3.org/1999/02/22-rdf-syntax-ns#">
   <cc:Work>
    <dc:type rdf:resource="http://purl.org/dc/dcmitype/StillImage"/>
    <dc:date>2023-02-10T20:28:48.009470</dc:date>
    <dc:format>image/svg+xml</dc:format>
    <dc:creator>
     <cc:Agent>
      <dc:title>Matplotlib v3.6.3, https://matplotlib.org/</dc:title>
     </cc:Agent>
    </dc:creator>
   </cc:Work>
  </rdf:RDF>
 </metadata>
 <defs>
  <style type="text/css">*{stroke-linejoin: round; stroke-linecap: butt}</style>
 </defs>
 <g id="figure_1">
  <g id="patch_1">
   <path d="M 0 345.6 
L 460.8 345.6 
L 460.8 0 
L 0 0 
z
" style="fill: #ffffff"/>
  </g>
  <g id="axes_1">
   <g id="patch_2">
    <path d="M 57.6 298.944 
L 360.8064 298.944 
L 360.8064 6.912 
L 57.6 6.912 
z
" style="fill: #ffffff"/>
   </g>
   <g id="line2d_1">
    <path d="M 14.2848 298.944 
L 14.2848 296.426483 
L 47.990577 296.426483 
L 47.990577 295.167724 
L 50.890391 295.167724 
L 50.890391 293.908966 
L 63.929565 293.908966 
L 63.929565 291.391448 
L 65.227428 291.391448 
L 65.227428 288.873931 
L 71.556993 288.873931 
L 71.556993 286.356414 
L 76.284608 286.356414 
L 76.284608 283.838897 
L 81.696354 283.838897 
L 81.696354 282.580138 
L 85.471281 282.580138 
L 85.471281 280.062621 
L 86.307488 280.062621 
L 86.307488 277.545103 
L 96.95121 277.545103 
L 96.95121 275.027586 
L 97.857967 275.027586 
L 97.857967 271.25131 
L 100.726138 271.25131 
L 100.726138 269.992552 
L 105.112877 269.992552 
L 105.112877 267.475034 
L 111.007473 267.475034 
L 111.117162 263.698759 
L 112.487797 263.698759 
L 112.487797 259.922483 
L 118.598196 259.922483 
L 118.598196 257.404966 
L 124.748451 257.404966 
L 124.748451 254.887448 
L 129.0834 254.887448 
L 129.0834 251.111172 
L 135.687504 251.111172 
L 135.687504 248.593655 
L 137.972183 248.593655 
L 137.972183 247.334897 
L 140.815692 247.334897 
L 140.815692 244.817379 
L 145.730339 244.817379 
L 145.730339 242.299862 
L 150.370903 242.299862 
L 150.452162 238.523586 
L 153.142309 238.523586 
L 153.142309 237.264828 
L 155.474761 237.264828 
L 155.474761 233.488552 
L 157.372755 233.488552 
L 157.372755 229.712276 
L 159.833168 229.712276 
L 159.833168 228.453517 
L 161.474774 228.453517 
L 161.474774 225.936 
L 161.935428 225.936 
L 161.935428 224.677241 
L 167.978675 224.677241 
L 167.978675 220.900966 
L 168.617126 220.900966 
L 168.617126 218.383448 
L 169.895083 218.383448 
L 169.895083 214.607172 
L 170.708911 214.607172 
L 170.708911 210.830897 
L 172.097406 210.830897 
L 172.097406 208.313379 
L 172.356469 208.313379 
L 172.356469 205.795862 
L 174.126381 205.795862 
L 174.126381 203.278345 
L 174.431028 203.278345 
L 174.431028 200.760828 
L 174.838326 200.760828 
L 174.838326 199.502069 
L 181.705118 199.502069 
L 181.705118 198.24331 
L 185.241059 198.24331 
L 185.241059 194.467034 
L 191.975105 194.467034 
L 191.975105 193.208276 
L 198.763038 193.208276 
L 198.763038 191.949517 
L 200.563129 191.949517 
L 200.563129 188.173241 
L 201.512444 188.173241 
L 201.512444 186.914483 
L 205.861535 186.914483 
L 205.861535 184.396966 
L 206.357278 184.396966 
L 206.357278 181.879448 
L 212.099832 181.879448 
L 212.099832 178.103172 
L 213.175637 178.103172 
L 213.175637 174.326897 
L 213.411595 174.326897 
L 213.411595 171.809379 
L 213.616893 171.809379 
L 213.616893 170.550621 
L 219.525763 170.550621 
L 219.525763 168.033103 
L 221.267673 168.033103 
L 221.267673 164.256828 
L 223.468452 164.256828 
L 223.468452 160.480552 
L 225.166525 160.480552 
L 225.166525 157.963034 
L 228.085825 157.963034 
L 228.085825 155.445517 
L 229.172469 155.445517 
L 229.172469 152.928 
L 229.882027 152.928 
L 229.882027 151.669241 
L 230.716149 151.669241 
L 230.716149 150.410483 
L 231.010134 150.410483 
L 231.010134 147.892966 
L 233.261676 147.892966 
L 233.261676 145.375448 
L 234.551005 145.375448 
L 234.551005 144.11669 
L 235.506973 144.11669 
L 235.506973 140.340414 
L 236.739026 140.340414 
L 236.739026 139.081655 
L 237.217354 139.081655 
L 237.217354 135.305379 
L 245.949129 135.305379 
L 245.949129 134.046621 
L 247.396545 134.046621 
L 247.396545 131.529103 
L 256.390003 131.529103 
L 256.390003 129.011586 
L 267.404264 129.011586 
L 267.404264 125.23531 
L 267.953798 125.23531 
L 267.953798 123.976552 
L 268.430043 123.976552 
L 268.430043 120.200276 
L 274.314861 120.200276 
L 274.314861 116.424 
L 274.436459 116.424 
L 274.436459 113.906483 
L 274.984232 113.906483 
L 274.984232 112.647724 
L 275.290381 112.647724 
L 275.290381 108.871448 
L 276.246651 108.871448 
L 276.246651 107.61269 
L 277.024296 107.61269 
L 277.024296 103.836414 
L 278.218209 103.836414 
L 278.253986 97.542621 
L 278.579652 97.542621 
L 278.616636 92.507586 
L 278.983298 92.507586 
L 278.983298 91.248828 
L 279.190077 91.248828 
L 279.190077 88.73131 
L 279.533981 88.73131 
L 279.533981 84.955034 
L 279.679239 84.955034 
L 279.679239 82.437517 
L 280.199197 82.437517 
L 280.199197 81.178759 
L 281.104327 81.178759 
L 281.104327 77.402483 
L 281.285543 77.402483 
L 281.285543 76.143724 
L 282.165025 76.143724 
L 282.165025 73.626207 
L 282.725415 73.626207 
L 282.725415 72.367448 
L 283.426221 72.367448 
L 283.426221 69.849931 
L 284.109267 69.849931 
L 284.109267 67.332414 
L 286.104629 67.332414 
L 286.104629 63.556138 
L 286.353261 63.556138 
L 286.353261 62.297379 
L 289.027601 62.297379 
L 289.027601 61.038621 
L 293.111792 61.038621 
L 293.111792 58.521103 
L 294.07921 58.521103 
L 294.07921 56.003586 
L 297.973507 56.003586 
L 297.973507 53.486069 
L 298.22402 53.486069 
L 298.22402 49.709793 
L 302.912668 49.709793 
L 302.912668 45.933517 
L 305.441457 45.933517 
L 305.441457 42.157241 
L 360.8064 42.157241 
L 360.8064 42.157241 
" style="fill: none; stroke: #f5deb3; stroke-width: 4; stroke-linecap: square"/>
   </g>
   <g id="line2d_2">
    <defs>
     <path id="m5c7edc3a24" d="M -0 7.778175 
L 7.778175 0 
L 0 -7.778175 
L -7.778175 -0 
z
" style="stroke: #f5deb3; stroke-width: 1.5; stroke-linejoin: miter"/>
    </defs>
    <g>
     <use xlink:href="#m5c7edc3a24" x="129.0834" y="251.111172" style="fill: #f5deb3; stroke: #f5deb3; stroke-width: 1.5; stroke-linejoin: miter"/>
     <use xlink:href="#m5c7edc3a24" x="191.975105" y="194.467034" style="fill: #f5deb3; stroke: #f5deb3; stroke-width: 1.5; stroke-linejoin: miter"/>
     <use xlink:href="#m5c7edc3a24" x="268.430043" y="123.976552" style="fill: #f5deb3; stroke: #f5deb3; stroke-width: 1.5; stroke-linejoin: miter"/>
     <use xlink:href="#m5c7edc3a24" x="305.441457" y="42.157241" style="fill: #f5deb3; stroke: #f5deb3; stroke-width: 1.5; stroke-linejoin: miter"/>
     <use xlink:href="#m5c7edc3a24" x="305.441457" y="42.157241" style="fill: #f5deb3; stroke: #f5deb3; stroke-width: 1.5; stroke-linejoin: miter"/>
     <use xlink:href="#m5c7edc3a24" x="360.8064" y="42.157241" style="fill: #f5deb3; stroke: #f5deb3; stroke-width: 1.5; stroke-linejoin: miter"/>
    </g>
   </g>
   <g id="line2d_3">
    <path style="fill: none; stroke: #f5deb3; stroke-width: 4; stroke-linecap: square"/>
    <g/>
   </g>
   <g id="line2d_4">
    <path d="M 360.8064 42.157241 
L 380.514816 12.75264 
" style="fill: none; stroke: #f5deb3; stroke-width: 4; stroke-linecap: square"/>
    <g>
     <use xlink:href="#m5c7edc3a24" x="360.8064" y="42.157241" style="fill: #f5deb3; stroke: #f5deb3; stroke-width: 1.5; stroke-linejoin: miter"/>
     <use xlink:href="#m5c7edc3a24" x="380.514816" y="12.75264" style="fill: #f5deb3; stroke: #f5deb3; stroke-width: 1.5; stroke-linejoin: miter"/>
    </g>
   </g>
   <g id="matplotlib.axis_1">
    <g id="xtick_1">
     <g id="line2d_5">
      <path d="M 57.6 298.944 
L 57.6 6.912 
" clip-path="url(#p8d35a14a4f)" style="fill: none; stroke: #b0b0b0; stroke-width: 0.8; stroke-linecap: square"/>
     </g>
     <g id="line2d_6">
      <defs>
       <path id="m41f0319d53" d="M 0 0 
L 0 3.5 
" style="stroke: #000000; stroke-width: 0.8"/>
      </defs>
      <g>
       <use xlink:href="#m41f0319d53" x="57.6" y="298.944" style="stroke: #000000; stroke-width: 0.8"/>
      </g>
     </g>
     <g id="text_1">
      <!-- 0 -->
      <g transform="translate(52.191875 318.861344) scale(0.17 -0.17)">
       <defs>
        <path id="DejaVuSans-30" d="M 2034 4250 
Q 1547 4250 1301 3770 
Q 1056 3291 1056 2328 
Q 1056 1369 1301 889 
Q 1547 409 2034 409 
Q 2525 409 2770 889 
Q 3016 1369 3016 2328 
Q 3016 3291 2770 3770 
Q 2525 4250 2034 4250 
z
M 2034 4750 
Q 2819 4750 3233 4129 
Q 3647 3509 3647 2328 
Q 3647 1150 3233 529 
Q 2819 -91 2034 -91 
Q 1250 -91 836 529 
Q 422 1150 422 2328 
Q 422 3509 836 4129 
Q 1250 4750 2034 4750 
z
" transform="scale(0.015625)"/>
       </defs>
       <use xlink:href="#DejaVuSans-30"/>
      </g>
     </g>
    </g>
    <g id="xtick_2">
     <g id="line2d_7">
      <path d="M 144.2304 298.944 
L 144.2304 6.912 
" clip-path="url(#p8d35a14a4f)" style="fill: none; stroke: #b0b0b0; stroke-width: 0.8; stroke-linecap: square"/>
     </g>
     <g id="line2d_8">
      <g>
       <use xlink:href="#m41f0319d53" x="144.2304" y="298.944" style="stroke: #000000; stroke-width: 0.8"/>
      </g>
     </g>
     <g id="text_2">
      <!-- 2 -->
      <g transform="translate(138.822275 318.861344) scale(0.17 -0.17)">
       <defs>
        <path id="DejaVuSans-32" d="M 1228 531 
L 3431 531 
L 3431 0 
L 469 0 
L 469 531 
Q 828 903 1448 1529 
Q 2069 2156 2228 2338 
Q 2531 2678 2651 2914 
Q 2772 3150 2772 3378 
Q 2772 3750 2511 3984 
Q 2250 4219 1831 4219 
Q 1534 4219 1204 4116 
Q 875 4013 500 3803 
L 500 4441 
Q 881 4594 1212 4672 
Q 1544 4750 1819 4750 
Q 2544 4750 2975 4387 
Q 3406 4025 3406 3419 
Q 3406 3131 3298 2873 
Q 3191 2616 2906 2266 
Q 2828 2175 2409 1742 
Q 1991 1309 1228 531 
z
" transform="scale(0.015625)"/>
       </defs>
       <use xlink:href="#DejaVuSans-32"/>
      </g>
     </g>
    </g>
    <g id="xtick_3">
     <g id="line2d_9">
      <path d="M 230.8608 298.944 
L 230.8608 6.912 
" clip-path="url(#p8d35a14a4f)" style="fill: none; stroke: #b0b0b0; stroke-width: 0.8; stroke-linecap: square"/>
     </g>
     <g id="line2d_10">
      <g>
       <use xlink:href="#m41f0319d53" x="230.8608" y="298.944" style="stroke: #000000; stroke-width: 0.8"/>
      </g>
     </g>
     <g id="text_3">
      <!-- 4 -->
      <g transform="translate(225.452675 318.861344) scale(0.17 -0.17)">
       <defs>
        <path id="DejaVuSans-34" d="M 2419 4116 
L 825 1625 
L 2419 1625 
L 2419 4116 
z
M 2253 4666 
L 3047 4666 
L 3047 1625 
L 3713 1625 
L 3713 1100 
L 3047 1100 
L 3047 0 
L 2419 0 
L 2419 1100 
L 313 1100 
L 313 1709 
L 2253 4666 
z
" transform="scale(0.015625)"/>
       </defs>
       <use xlink:href="#DejaVuSans-34"/>
      </g>
     </g>
    </g>
    <g id="xtick_4">
     <g id="line2d_11">
      <path d="M 317.4912 298.944 
L 317.4912 6.912 
" clip-path="url(#p8d35a14a4f)" style="fill: none; stroke: #b0b0b0; stroke-width: 0.8; stroke-linecap: square"/>
     </g>
     <g id="line2d_12">
      <g>
       <use xlink:href="#m41f0319d53" x="317.4912" y="298.944" style="stroke: #000000; stroke-width: 0.8"/>
      </g>
     </g>
     <g id="text_4">
      <!-- 6 -->
      <g transform="translate(312.083075 318.861344) scale(0.17 -0.17)">
       <defs>
        <path id="DejaVuSans-36" d="M 2113 2584 
Q 1688 2584 1439 2293 
Q 1191 2003 1191 1497 
Q 1191 994 1439 701 
Q 1688 409 2113 409 
Q 2538 409 2786 701 
Q 3034 994 3034 1497 
Q 3034 2003 2786 2293 
Q 2538 2584 2113 2584 
z
M 3366 4563 
L 3366 3988 
Q 3128 4100 2886 4159 
Q 2644 4219 2406 4219 
Q 1781 4219 1451 3797 
Q 1122 3375 1075 2522 
Q 1259 2794 1537 2939 
Q 1816 3084 2150 3084 
Q 2853 3084 3261 2657 
Q 3669 2231 3669 1497 
Q 3669 778 3244 343 
Q 2819 -91 2113 -91 
Q 1303 -91 875 529 
Q 447 1150 447 2328 
Q 447 3434 972 4092 
Q 1497 4750 2381 4750 
Q 2619 4750 2861 4703 
Q 3103 4656 3366 4563 
z
" transform="scale(0.015625)"/>
       </defs>
       <use xlink:href="#DejaVuSans-36"/>
      </g>
     </g>
    </g>
    <g id="xtick_5">
     <g id="line2d_13">
      <path d="M 100.9152 298.944 
L 100.9152 6.912 
" clip-path="url(#p8d35a14a4f)" style="fill: none; stroke: #b0b0b0; stroke-width: 0.8; stroke-linecap: square"/>
     </g>
     <g id="line2d_14">
      <defs>
       <path id="m656b75d734" d="M 0 0 
L 0 2 
" style="stroke: #000000; stroke-width: 0.6"/>
      </defs>
      <g>
       <use xlink:href="#m656b75d734" x="100.9152" y="298.944" style="stroke: #000000; stroke-width: 0.6"/>
      </g>
     </g>
    </g>
    <g id="xtick_6">
     <g id="line2d_15">
      <path d="M 187.5456 298.944 
L 187.5456 6.912 
" clip-path="url(#p8d35a14a4f)" style="fill: none; stroke: #b0b0b0; stroke-width: 0.8; stroke-linecap: square"/>
     </g>
     <g id="line2d_16">
      <g>
       <use xlink:href="#m656b75d734" x="187.5456" y="298.944" style="stroke: #000000; stroke-width: 0.6"/>
      </g>
     </g>
    </g>
    <g id="xtick_7">
     <g id="line2d_17">
      <path d="M 274.176 298.944 
L 274.176 6.912 
" clip-path="url(#p8d35a14a4f)" style="fill: none; stroke: #b0b0b0; stroke-width: 0.8; stroke-linecap: square"/>
     </g>
     <g id="line2d_18">
      <g>
       <use xlink:href="#m656b75d734" x="274.176" y="298.944" style="stroke: #000000; stroke-width: 0.6"/>
      </g>
     </g>
    </g>
    <g id="xtick_8">
     <g id="line2d_19">
      <path d="M 360.8064 298.944 
L 360.8064 6.912 
" clip-path="url(#p8d35a14a4f)" style="fill: none; stroke: #b0b0b0; stroke-width: 0.8; stroke-linecap: square"/>
     </g>
     <g id="line2d_20">
      <g>
       <use xlink:href="#m656b75d734" x="360.8064" y="298.944" style="stroke: #000000; stroke-width: 0.6"/>
      </g>
     </g>
    </g>
    <g id="text_5">
     <!-- log10(# f-evals / dimension) -->
     <g transform="translate(88.823278 339.314156) scale(0.17 -0.17)">
      <defs>
       <path id="DejaVuSans-6c" d="M 603 4863 
L 1178 4863 
L 1178 0 
L 603 0 
L 603 4863 
z
" transform="scale(0.015625)"/>
       <path id="DejaVuSans-6f" d="M 1959 3097 
Q 1497 3097 1228 2736 
Q 959 2375 959 1747 
Q 959 1119 1226 758 
Q 1494 397 1959 397 
Q 2419 397 2687 759 
Q 2956 1122 2956 1747 
Q 2956 2369 2687 2733 
Q 2419 3097 1959 3097 
z
M 1959 3584 
Q 2709 3584 3137 3096 
Q 3566 2609 3566 1747 
Q 3566 888 3137 398 
Q 2709 -91 1959 -91 
Q 1206 -91 779 398 
Q 353 888 353 1747 
Q 353 2609 779 3096 
Q 1206 3584 1959 3584 
z
" transform="scale(0.015625)"/>
       <path id="DejaVuSans-67" d="M 2906 1791 
Q 2906 2416 2648 2759 
Q 2391 3103 1925 3103 
Q 1463 3103 1205 2759 
Q 947 2416 947 1791 
Q 947 1169 1205 825 
Q 1463 481 1925 481 
Q 2391 481 2648 825 
Q 2906 1169 2906 1791 
z
M 3481 434 
Q 3481 -459 3084 -895 
Q 2688 -1331 1869 -1331 
Q 1566 -1331 1297 -1286 
Q 1028 -1241 775 -1147 
L 775 -588 
Q 1028 -725 1275 -790 
Q 1522 -856 1778 -856 
Q 2344 -856 2625 -561 
Q 2906 -266 2906 331 
L 2906 616 
Q 2728 306 2450 153 
Q 2172 0 1784 0 
Q 1141 0 747 490 
Q 353 981 353 1791 
Q 353 2603 747 3093 
Q 1141 3584 1784 3584 
Q 2172 3584 2450 3431 
Q 2728 3278 2906 2969 
L 2906 3500 
L 3481 3500 
L 3481 434 
z
" transform="scale(0.015625)"/>
       <path id="DejaVuSans-31" d="M 794 531 
L 1825 531 
L 1825 4091 
L 703 3866 
L 703 4441 
L 1819 4666 
L 2450 4666 
L 2450 531 
L 3481 531 
L 3481 0 
L 794 0 
L 794 531 
z
" transform="scale(0.015625)"/>
       <path id="DejaVuSans-28" d="M 1984 4856 
Q 1566 4138 1362 3434 
Q 1159 2731 1159 2009 
Q 1159 1288 1364 580 
Q 1569 -128 1984 -844 
L 1484 -844 
Q 1016 -109 783 600 
Q 550 1309 550 2009 
Q 550 2706 781 3412 
Q 1013 4119 1484 4856 
L 1984 4856 
z
" transform="scale(0.015625)"/>
       <path id="DejaVuSans-23" d="M 3272 2816 
L 2363 2816 
L 2100 1772 
L 3016 1772 
L 3272 2816 
z
M 2803 4594 
L 2478 3297 
L 3391 3297 
L 3719 4594 
L 4219 4594 
L 3897 3297 
L 4872 3297 
L 4872 2816 
L 3775 2816 
L 3519 1772 
L 4513 1772 
L 4513 1294 
L 3397 1294 
L 3072 0 
L 2572 0 
L 2894 1294 
L 1978 1294 
L 1656 0 
L 1153 0 
L 1478 1294 
L 494 1294 
L 494 1772 
L 1594 1772 
L 1856 2816 
L 850 2816 
L 850 3297 
L 1978 3297 
L 2297 4594 
L 2803 4594 
z
" transform="scale(0.015625)"/>
       <path id="DejaVuSans-20" transform="scale(0.015625)"/>
       <path id="DejaVuSans-66" d="M 2375 4863 
L 2375 4384 
L 1825 4384 
Q 1516 4384 1395 4259 
Q 1275 4134 1275 3809 
L 1275 3500 
L 2222 3500 
L 2222 3053 
L 1275 3053 
L 1275 0 
L 697 0 
L 697 3053 
L 147 3053 
L 147 3500 
L 697 3500 
L 697 3744 
Q 697 4328 969 4595 
Q 1241 4863 1831 4863 
L 2375 4863 
z
" transform="scale(0.015625)"/>
       <path id="DejaVuSans-2d" d="M 313 2009 
L 1997 2009 
L 1997 1497 
L 313 1497 
L 313 2009 
z
" transform="scale(0.015625)"/>
       <path id="DejaVuSans-65" d="M 3597 1894 
L 3597 1613 
L 953 1613 
Q 991 1019 1311 708 
Q 1631 397 2203 397 
Q 2534 397 2845 478 
Q 3156 559 3463 722 
L 3463 178 
Q 3153 47 2828 -22 
Q 2503 -91 2169 -91 
Q 1331 -91 842 396 
Q 353 884 353 1716 
Q 353 2575 817 3079 
Q 1281 3584 2069 3584 
Q 2775 3584 3186 3129 
Q 3597 2675 3597 1894 
z
M 3022 2063 
Q 3016 2534 2758 2815 
Q 2500 3097 2075 3097 
Q 1594 3097 1305 2825 
Q 1016 2553 972 2059 
L 3022 2063 
z
" transform="scale(0.015625)"/>
       <path id="DejaVuSans-76" d="M 191 3500 
L 800 3500 
L 1894 563 
L 2988 3500 
L 3597 3500 
L 2284 0 
L 1503 0 
L 191 3500 
z
" transform="scale(0.015625)"/>
       <path id="DejaVuSans-61" d="M 2194 1759 
Q 1497 1759 1228 1600 
Q 959 1441 959 1056 
Q 959 750 1161 570 
Q 1363 391 1709 391 
Q 2188 391 2477 730 
Q 2766 1069 2766 1631 
L 2766 1759 
L 2194 1759 
z
M 3341 1997 
L 3341 0 
L 2766 0 
L 2766 531 
Q 2569 213 2275 61 
Q 1981 -91 1556 -91 
Q 1019 -91 701 211 
Q 384 513 384 1019 
Q 384 1609 779 1909 
Q 1175 2209 1959 2209 
L 2766 2209 
L 2766 2266 
Q 2766 2663 2505 2880 
Q 2244 3097 1772 3097 
Q 1472 3097 1187 3025 
Q 903 2953 641 2809 
L 641 3341 
Q 956 3463 1253 3523 
Q 1550 3584 1831 3584 
Q 2591 3584 2966 3190 
Q 3341 2797 3341 1997 
z
" transform="scale(0.015625)"/>
       <path id="DejaVuSans-73" d="M 2834 3397 
L 2834 2853 
Q 2591 2978 2328 3040 
Q 2066 3103 1784 3103 
Q 1356 3103 1142 2972 
Q 928 2841 928 2578 
Q 928 2378 1081 2264 
Q 1234 2150 1697 2047 
L 1894 2003 
Q 2506 1872 2764 1633 
Q 3022 1394 3022 966 
Q 3022 478 2636 193 
Q 2250 -91 1575 -91 
Q 1294 -91 989 -36 
Q 684 19 347 128 
L 347 722 
Q 666 556 975 473 
Q 1284 391 1588 391 
Q 1994 391 2212 530 
Q 2431 669 2431 922 
Q 2431 1156 2273 1281 
Q 2116 1406 1581 1522 
L 1381 1569 
Q 847 1681 609 1914 
Q 372 2147 372 2553 
Q 372 3047 722 3315 
Q 1072 3584 1716 3584 
Q 2034 3584 2315 3537 
Q 2597 3491 2834 3397 
z
" transform="scale(0.015625)"/>
       <path id="DejaVuSans-2f" d="M 1625 4666 
L 2156 4666 
L 531 -594 
L 0 -594 
L 1625 4666 
z
" transform="scale(0.015625)"/>
       <path id="DejaVuSans-64" d="M 2906 2969 
L 2906 4863 
L 3481 4863 
L 3481 0 
L 2906 0 
L 2906 525 
Q 2725 213 2448 61 
Q 2172 -91 1784 -91 
Q 1150 -91 751 415 
Q 353 922 353 1747 
Q 353 2572 751 3078 
Q 1150 3584 1784 3584 
Q 2172 3584 2448 3432 
Q 2725 3281 2906 2969 
z
M 947 1747 
Q 947 1113 1208 752 
Q 1469 391 1925 391 
Q 2381 391 2643 752 
Q 2906 1113 2906 1747 
Q 2906 2381 2643 2742 
Q 2381 3103 1925 3103 
Q 1469 3103 1208 2742 
Q 947 2381 947 1747 
z
" transform="scale(0.015625)"/>
       <path id="DejaVuSans-69" d="M 603 3500 
L 1178 3500 
L 1178 0 
L 603 0 
L 603 3500 
z
M 603 4863 
L 1178 4863 
L 1178 4134 
L 603 4134 
L 603 4863 
z
" transform="scale(0.015625)"/>
       <path id="DejaVuSans-6d" d="M 3328 2828 
Q 3544 3216 3844 3400 
Q 4144 3584 4550 3584 
Q 5097 3584 5394 3201 
Q 5691 2819 5691 2113 
L 5691 0 
L 5113 0 
L 5113 2094 
Q 5113 2597 4934 2840 
Q 4756 3084 4391 3084 
Q 3944 3084 3684 2787 
Q 3425 2491 3425 1978 
L 3425 0 
L 2847 0 
L 2847 2094 
Q 2847 2600 2669 2842 
Q 2491 3084 2119 3084 
Q 1678 3084 1418 2786 
Q 1159 2488 1159 1978 
L 1159 0 
L 581 0 
L 581 3500 
L 1159 3500 
L 1159 2956 
Q 1356 3278 1631 3431 
Q 1906 3584 2284 3584 
Q 2666 3584 2933 3390 
Q 3200 3197 3328 2828 
z
" transform="scale(0.015625)"/>
       <path id="DejaVuSans-6e" d="M 3513 2113 
L 3513 0 
L 2938 0 
L 2938 2094 
Q 2938 2591 2744 2837 
Q 2550 3084 2163 3084 
Q 1697 3084 1428 2787 
Q 1159 2491 1159 1978 
L 1159 0 
L 581 0 
L 581 3500 
L 1159 3500 
L 1159 2956 
Q 1366 3272 1645 3428 
Q 1925 3584 2291 3584 
Q 2894 3584 3203 3211 
Q 3513 2838 3513 2113 
z
" transform="scale(0.015625)"/>
       <path id="DejaVuSans-29" d="M 513 4856 
L 1013 4856 
Q 1481 4119 1714 3412 
Q 1947 2706 1947 2009 
Q 1947 1309 1714 600 
Q 1481 -109 1013 -844 
L 513 -844 
Q 928 -128 1133 580 
Q 1338 1288 1338 2009 
Q 1338 2731 1133 3434 
Q 928 4138 513 4856 
z
" transform="scale(0.015625)"/>
      </defs>
      <use xlink:href="#DejaVuSans-6c"/>
      <use xlink:href="#DejaVuSans-6f" x="27.783203"/>
      <use xlink:href="#DejaVuSans-67" x="88.964844"/>
      <use xlink:href="#DejaVuSans-31" x="152.441406"/>
      <use xlink:href="#DejaVuSans-30" x="216.064453"/>
      <use xlink:href="#DejaVuSans-28" x="279.6875"/>
      <use xlink:href="#DejaVuSans-23" x="318.701172"/>
      <use xlink:href="#DejaVuSans-20" x="402.490234"/>
      <use xlink:href="#DejaVuSans-66" x="434.277344"/>
      <use xlink:href="#DejaVuSans-2d" x="463.982422"/>
      <use xlink:href="#DejaVuSans-65" x="500.066406"/>
      <use xlink:href="#DejaVuSans-76" x="561.589844"/>
      <use xlink:href="#DejaVuSans-61" x="620.769531"/>
      <use xlink:href="#DejaVuSans-6c" x="682.048828"/>
      <use xlink:href="#DejaVuSans-73" x="709.832031"/>
      <use xlink:href="#DejaVuSans-20" x="761.931641"/>
      <use xlink:href="#DejaVuSans-2f" x="793.71875"/>
      <use xlink:href="#DejaVuSans-20" x="827.410156"/>
      <use xlink:href="#DejaVuSans-64" x="859.197266"/>
      <use xlink:href="#DejaVuSans-69" x="922.673828"/>
      <use xlink:href="#DejaVuSans-6d" x="950.457031"/>
      <use xlink:href="#DejaVuSans-65" x="1047.869141"/>
      <use xlink:href="#DejaVuSans-6e" x="1109.392578"/>
      <use xlink:href="#DejaVuSans-73" x="1172.771484"/>
      <use xlink:href="#DejaVuSans-69" x="1224.871094"/>
      <use xlink:href="#DejaVuSans-6f" x="1252.654297"/>
      <use xlink:href="#DejaVuSans-6e" x="1313.835938"/>
      <use xlink:href="#DejaVuSans-29" x="1377.214844"/>
     </g>
    </g>
   </g>
   <g id="matplotlib.axis_2">
    <g id="ytick_1">
     <g id="line2d_21">
      <path d="M 57.6 298.944 
L 360.8064 298.944 
" clip-path="url(#p8d35a14a4f)" style="fill: none; stroke: #b0b0b0; stroke-width: 0.8; stroke-linecap: square"/>
     </g>
     <g id="line2d_22">
      <defs>
       <path id="m0112742a28" d="M 0 0 
L -3.5 0 
" style="stroke: #000000; stroke-width: 0.8"/>
      </defs>
      <g>
       <use xlink:href="#m0112742a28" x="57.6" y="298.944" style="stroke: #000000; stroke-width: 0.8"/>
      </g>
     </g>
     <g id="text_6">
      <!-- 0.0 -->
      <g transform="translate(25.155 305.02275) scale(0.16 -0.16)">
       <defs>
        <path id="DejaVuSans-2e" d="M 684 794 
L 1344 794 
L 1344 0 
L 684 0 
L 684 794 
z
" transform="scale(0.015625)"/>
       </defs>
       <use xlink:href="#DejaVuSans-30"/>
       <use xlink:href="#DejaVuSans-2e" x="63.623047"/>
       <use xlink:href="#DejaVuSans-30" x="95.410156"/>
      </g>
     </g>
    </g>
    <g id="ytick_2">
     <g id="line2d_23">
      <path d="M 57.6 240.5376 
L 360.8064 240.5376 
" clip-path="url(#p8d35a14a4f)" style="fill: none; stroke: #b0b0b0; stroke-width: 0.8; stroke-linecap: square"/>
     </g>
     <g id="line2d_24">
      <g>
       <use xlink:href="#m0112742a28" x="57.6" y="240.5376" style="stroke: #000000; stroke-width: 0.8"/>
      </g>
     </g>
     <g id="text_7">
      <!-- 0.2 -->
      <g transform="translate(25.155 246.61635) scale(0.16 -0.16)">
       <use xlink:href="#DejaVuSans-30"/>
       <use xlink:href="#DejaVuSans-2e" x="63.623047"/>
       <use xlink:href="#DejaVuSans-32" x="95.410156"/>
      </g>
     </g>
    </g>
    <g id="ytick_3">
     <g id="line2d_25">
      <path d="M 57.6 182.1312 
L 360.8064 182.1312 
" clip-path="url(#p8d35a14a4f)" style="fill: none; stroke: #b0b0b0; stroke-width: 0.8; stroke-linecap: square"/>
     </g>
     <g id="line2d_26">
      <g>
       <use xlink:href="#m0112742a28" x="57.6" y="182.1312" style="stroke: #000000; stroke-width: 0.8"/>
      </g>
     </g>
     <g id="text_8">
      <!-- 0.4 -->
      <g transform="translate(25.155 188.20995) scale(0.16 -0.16)">
       <use xlink:href="#DejaVuSans-30"/>
       <use xlink:href="#DejaVuSans-2e" x="63.623047"/>
       <use xlink:href="#DejaVuSans-34" x="95.410156"/>
      </g>
     </g>
    </g>
    <g id="ytick_4">
     <g id="line2d_27">
      <path d="M 57.6 123.7248 
L 360.8064 123.7248 
" clip-path="url(#p8d35a14a4f)" style="fill: none; stroke: #b0b0b0; stroke-width: 0.8; stroke-linecap: square"/>
     </g>
     <g id="line2d_28">
      <g>
       <use xlink:href="#m0112742a28" x="57.6" y="123.7248" style="stroke: #000000; stroke-width: 0.8"/>
      </g>
     </g>
     <g id="text_9">
      <!-- 0.6 -->
      <g transform="translate(25.155 129.80355) scale(0.16 -0.16)">
       <use xlink:href="#DejaVuSans-30"/>
       <use xlink:href="#DejaVuSans-2e" x="63.623047"/>
       <use xlink:href="#DejaVuSans-36" x="95.410156"/>
      </g>
     </g>
    </g>
    <g id="ytick_5">
     <g id="line2d_29">
      <path d="M 57.6 65.3184 
L 360.8064 65.3184 
" clip-path="url(#p8d35a14a4f)" style="fill: none; stroke: #b0b0b0; stroke-width: 0.8; stroke-linecap: square"/>
     </g>
     <g id="line2d_30">
      <g>
       <use xlink:href="#m0112742a28" x="57.6" y="65.3184" style="stroke: #000000; stroke-width: 0.8"/>
      </g>
     </g>
     <g id="text_10">
      <!-- 0.8 -->
      <g transform="translate(25.155 71.39715) scale(0.16 -0.16)">
       <defs>
        <path id="DejaVuSans-38" d="M 2034 2216 
Q 1584 2216 1326 1975 
Q 1069 1734 1069 1313 
Q 1069 891 1326 650 
Q 1584 409 2034 409 
Q 2484 409 2743 651 
Q 3003 894 3003 1313 
Q 3003 1734 2745 1975 
Q 2488 2216 2034 2216 
z
M 1403 2484 
Q 997 2584 770 2862 
Q 544 3141 544 3541 
Q 544 4100 942 4425 
Q 1341 4750 2034 4750 
Q 2731 4750 3128 4425 
Q 3525 4100 3525 3541 
Q 3525 3141 3298 2862 
Q 3072 2584 2669 2484 
Q 3125 2378 3379 2068 
Q 3634 1759 3634 1313 
Q 3634 634 3220 271 
Q 2806 -91 2034 -91 
Q 1263 -91 848 271 
Q 434 634 434 1313 
Q 434 1759 690 2068 
Q 947 2378 1403 2484 
z
M 1172 3481 
Q 1172 3119 1398 2916 
Q 1625 2713 2034 2713 
Q 2441 2713 2670 2916 
Q 2900 3119 2900 3481 
Q 2900 3844 2670 4047 
Q 2441 4250 2034 4250 
Q 1625 4250 1398 4047 
Q 1172 3844 1172 3481 
z
" transform="scale(0.015625)"/>
       </defs>
       <use xlink:href="#DejaVuSans-30"/>
       <use xlink:href="#DejaVuSans-2e" x="63.623047"/>
       <use xlink:href="#DejaVuSans-38" x="95.410156"/>
      </g>
     </g>
    </g>
    <g id="ytick_6">
     <g id="line2d_31">
      <path d="M 57.6 6.912 
L 360.8064 6.912 
" clip-path="url(#p8d35a14a4f)" style="fill: none; stroke: #b0b0b0; stroke-width: 0.8; stroke-linecap: square"/>
     </g>
     <g id="line2d_32">
      <g>
       <use xlink:href="#m0112742a28" x="57.6" y="6.912" style="stroke: #000000; stroke-width: 0.8"/>
      </g>
     </g>
     <g id="text_11">
      <!-- 1.0 -->
      <g transform="translate(25.155 12.99075) scale(0.16 -0.16)">
       <use xlink:href="#DejaVuSans-31"/>
       <use xlink:href="#DejaVuSans-2e" x="63.623047"/>
       <use xlink:href="#DejaVuSans-30" x="95.410156"/>
      </g>
     </g>
    </g>
    <g id="text_12">
     <!-- Fraction of function,target pairs -->
     <g transform="translate(17.619531 287.313) rotate(-90) scale(0.17 -0.17)">
      <defs>
       <path id="DejaVuSans-46" d="M 628 4666 
L 3309 4666 
L 3309 4134 
L 1259 4134 
L 1259 2759 
L 3109 2759 
L 3109 2228 
L 1259 2228 
L 1259 0 
L 628 0 
L 628 4666 
z
" transform="scale(0.015625)"/>
       <path id="DejaVuSans-72" d="M 2631 2963 
Q 2534 3019 2420 3045 
Q 2306 3072 2169 3072 
Q 1681 3072 1420 2755 
Q 1159 2438 1159 1844 
L 1159 0 
L 581 0 
L 581 3500 
L 1159 3500 
L 1159 2956 
Q 1341 3275 1631 3429 
Q 1922 3584 2338 3584 
Q 2397 3584 2469 3576 
Q 2541 3569 2628 3553 
L 2631 2963 
z
" transform="scale(0.015625)"/>
       <path id="DejaVuSans-63" d="M 3122 3366 
L 3122 2828 
Q 2878 2963 2633 3030 
Q 2388 3097 2138 3097 
Q 1578 3097 1268 2742 
Q 959 2388 959 1747 
Q 959 1106 1268 751 
Q 1578 397 2138 397 
Q 2388 397 2633 464 
Q 2878 531 3122 666 
L 3122 134 
Q 2881 22 2623 -34 
Q 2366 -91 2075 -91 
Q 1284 -91 818 406 
Q 353 903 353 1747 
Q 353 2603 823 3093 
Q 1294 3584 2113 3584 
Q 2378 3584 2631 3529 
Q 2884 3475 3122 3366 
z
" transform="scale(0.015625)"/>
       <path id="DejaVuSans-74" d="M 1172 4494 
L 1172 3500 
L 2356 3500 
L 2356 3053 
L 1172 3053 
L 1172 1153 
Q 1172 725 1289 603 
Q 1406 481 1766 481 
L 2356 481 
L 2356 0 
L 1766 0 
Q 1100 0 847 248 
Q 594 497 594 1153 
L 594 3053 
L 172 3053 
L 172 3500 
L 594 3500 
L 594 4494 
L 1172 4494 
z
" transform="scale(0.015625)"/>
       <path id="DejaVuSans-75" d="M 544 1381 
L 544 3500 
L 1119 3500 
L 1119 1403 
Q 1119 906 1312 657 
Q 1506 409 1894 409 
Q 2359 409 2629 706 
Q 2900 1003 2900 1516 
L 2900 3500 
L 3475 3500 
L 3475 0 
L 2900 0 
L 2900 538 
Q 2691 219 2414 64 
Q 2138 -91 1772 -91 
Q 1169 -91 856 284 
Q 544 659 544 1381 
z
M 1991 3584 
L 1991 3584 
z
" transform="scale(0.015625)"/>
       <path id="DejaVuSans-2c" d="M 750 794 
L 1409 794 
L 1409 256 
L 897 -744 
L 494 -744 
L 750 256 
L 750 794 
z
" transform="scale(0.015625)"/>
       <path id="DejaVuSans-70" d="M 1159 525 
L 1159 -1331 
L 581 -1331 
L 581 3500 
L 1159 3500 
L 1159 2969 
Q 1341 3281 1617 3432 
Q 1894 3584 2278 3584 
Q 2916 3584 3314 3078 
Q 3713 2572 3713 1747 
Q 3713 922 3314 415 
Q 2916 -91 2278 -91 
Q 1894 -91 1617 61 
Q 1341 213 1159 525 
z
M 3116 1747 
Q 3116 2381 2855 2742 
Q 2594 3103 2138 3103 
Q 1681 3103 1420 2742 
Q 1159 2381 1159 1747 
Q 1159 1113 1420 752 
Q 1681 391 2138 391 
Q 2594 391 2855 752 
Q 3116 1113 3116 1747 
z
" transform="scale(0.015625)"/>
      </defs>
      <use xlink:href="#DejaVuSans-46"/>
      <use xlink:href="#DejaVuSans-72" x="50.269531"/>
      <use xlink:href="#DejaVuSans-61" x="91.382812"/>
      <use xlink:href="#DejaVuSans-63" x="152.662109"/>
      <use xlink:href="#DejaVuSans-74" x="207.642578"/>
      <use xlink:href="#DejaVuSans-69" x="246.851562"/>
      <use xlink:href="#DejaVuSans-6f" x="274.634766"/>
      <use xlink:href="#DejaVuSans-6e" x="335.816406"/>
      <use xlink:href="#DejaVuSans-20" x="399.195312"/>
      <use xlink:href="#DejaVuSans-6f" x="430.982422"/>
      <use xlink:href="#DejaVuSans-66" x="492.164062"/>
      <use xlink:href="#DejaVuSans-20" x="527.369141"/>
      <use xlink:href="#DejaVuSans-66" x="559.15625"/>
      <use xlink:href="#DejaVuSans-75" x="594.361328"/>
      <use xlink:href="#DejaVuSans-6e" x="657.740234"/>
      <use xlink:href="#DejaVuSans-63" x="721.119141"/>
      <use xlink:href="#DejaVuSans-74" x="776.099609"/>
      <use xlink:href="#DejaVuSans-69" x="815.308594"/>
      <use xlink:href="#DejaVuSans-6f" x="843.091797"/>
      <use xlink:href="#DejaVuSans-6e" x="904.273438"/>
      <use xlink:href="#DejaVuSans-2c" x="967.652344"/>
      <use xlink:href="#DejaVuSans-74" x="999.439453"/>
      <use xlink:href="#DejaVuSans-61" x="1038.648438"/>
      <use xlink:href="#DejaVuSans-72" x="1099.927734"/>
      <use xlink:href="#DejaVuSans-67" x="1139.291016"/>
      <use xlink:href="#DejaVuSans-65" x="1202.767578"/>
      <use xlink:href="#DejaVuSans-74" x="1264.291016"/>
      <use xlink:href="#DejaVuSans-20" x="1303.5"/>
      <use xlink:href="#DejaVuSans-70" x="1335.287109"/>
      <use xlink:href="#DejaVuSans-61" x="1398.763672"/>
      <use xlink:href="#DejaVuSans-69" x="1460.042969"/>
      <use xlink:href="#DejaVuSans-72" x="1487.826172"/>
      <use xlink:href="#DejaVuSans-73" x="1528.939453"/>
     </g>
    </g>
   </g>
   <g id="line2d_33">
    <defs>
     <path id="me8c35f51b6" d="M 0 1.5 
C 0.397805 1.5 0.77937 1.341951 1.06066 1.06066 
C 1.341951 0.77937 1.5 0.397805 1.5 0 
C 1.5 -0.397805 1.341951 -0.77937 1.06066 -1.06066 
C 0.77937 -1.341951 0.397805 -1.5 0 -1.5 
C -0.397805 -1.5 -0.77937 -1.341951 -1.06066 -1.06066 
C -1.341951 -0.77937 -1.5 -0.397805 -1.5 0 
C -1.5 0.397805 -1.341951 0.77937 -1.06066 1.06066 
C -0.77937 1.341951 -0.397805 1.5 0 1.5 
z
" style="stroke: #f5deb3"/>
    </defs>
    <g>
     <use xlink:href="#me8c35f51b6" x="305.441457" y="42.157241" style="fill: #f5deb3; stroke: #f5deb3"/>
     <use xlink:href="#me8c35f51b6" x="305.441457" y="42.157241" style="fill: #f5deb3; stroke: #f5deb3"/>
    </g>
   </g>
   <g id="line2d_34">
    <defs>
     <path id="m1275f78df2" d="M 0 1.5 
C 0.397805 1.5 0.77937 1.341951 1.06066 1.06066 
C 1.341951 0.77937 1.5 0.397805 1.5 0 
C 1.5 -0.397805 1.341951 -0.77937 1.06066 -1.06066 
C 0.77937 -1.341951 0.397805 -1.5 0 -1.5 
C -0.397805 -1.5 -0.77937 -1.341951 -1.06066 -1.06066 
C -1.341951 -0.77937 -1.5 -0.397805 -1.5 0 
C -1.5 0.397805 -1.341951 0.77937 -1.06066 1.06066 
C -0.77937 1.341951 -0.397805 1.5 0 1.5 
z
" style="stroke: #000080"/>
    </defs>
    <g>
     <use xlink:href="#m1275f78df2" x="187.318496" y="202.397214" style="fill: #000080; stroke: #000080"/>
     <use xlink:href="#m1275f78df2" x="187.318496" y="202.397214" style="fill: #000080; stroke: #000080"/>
    </g>
   </g>
   <g id="line2d_35">
    <path d="M 14.2848 298.944 
L 14.2848 288.999807 
L 27.323974 288.999807 
L 27.323974 288.748055 
L 62.535479 288.748055 
L 62.535479 288.496303 
L 74.068926 288.496303 
L 74.068926 288.244552 
L 81.166416 288.244552 
L 81.166416 287.9928 
L 93.66029 287.9928 
L 93.66029 287.866924 
L 96.480897 287.866924 
L 96.480897 287.741048 
L 101.102381 287.741048 
L 101.102381 287.363421 
L 103.047088 287.363421 
L 103.047088 287.237545 
L 104.809458 287.237545 
L 104.809458 287.111669 
L 106.42077 287.111669 
L 106.42077 286.985793 
L 107.904887 286.985793 
L 107.904887 286.859917 
L 109.280431 286.859917 
L 109.280431 286.48229 
L 112.890198 286.48229 
L 112.890198 286.356414 
L 113.954374 286.356414 
L 113.954374 286.230538 
L 114.961559 286.230538 
L 114.961559 285.85291 
L 115.917548 285.85291 
L 115.917548 285.601159 
L 117.695068 285.601159 
L 117.695068 285.475283 
L 118.524569 285.475283 
L 118.524569 285.349407 
L 120.0813 285.349407 
L 120.0813 285.097655 
L 120.813877 285.097655 
L 120.813877 284.971779 
L 121.518993 284.971779 
L 121.518993 284.720028 
L 123.4884 284.720028 
L 123.4884 284.3424 
L 124.101572 284.3424 
L 124.101572 284.090648 
L 124.695386 284.090648 
L 124.695386 283.964772 
L 125.271028 283.964772 
L 125.271028 283.713021 
L 125.829577 283.713021 
L 125.829577 283.461269 
L 126.899255 283.461269 
L 126.899255 283.209517 
L 127.412117 283.209517 
L 127.412117 282.83189 
L 127.911368 282.83189 
L 127.911368 282.580138 
L 128.39771 282.580138 
L 128.39771 282.328386 
L 128.871795 282.328386 
L 128.871795 281.950759 
L 129.334225 281.950759 
L 129.334225 281.824883 
L 129.78556 281.824883 
L 129.78556 281.573131 
L 130.226319 281.573131 
L 130.226319 281.321379 
L 130.656987 281.321379 
L 130.656987 281.195503 
L 131.078016 281.195503 
L 131.078016 280.943752 
L 131.489828 280.943752 
L 131.489828 280.692 
L 132.287354 280.692 
L 132.287354 280.566124 
L 133.05244 280.566124 
L 133.05244 280.062621 
L 133.78762 280.062621 
L 133.78762 279.559117 
L 134.14471 279.559117 
L 134.14471 279.307366 
L 134.495147 279.307366 
L 134.495147 279.18149 
L 134.839175 279.18149 
L 134.839175 278.048607 
L 135.177024 278.048607 
L 135.177024 277.922731 
L 135.508912 277.922731 
L 135.508912 277.545103 
L 135.835047 277.545103 
L 135.835047 277.167476 
L 136.155623 277.167476 
L 136.155623 276.915724 
L 136.470828 276.915724 
L 136.470828 276.789848 
L 136.780838 276.789848 
L 136.780838 276.412221 
L 137.085822 276.412221 
L 137.085822 275.782841 
L 137.38594 275.782841 
L 137.38594 275.53109 
L 137.681345 275.53109 
L 137.681345 274.90171 
L 137.972183 274.90171 
L 137.972183 274.524083 
L 138.258593 274.524083 
L 138.258593 274.272331 
L 138.540708 274.272331 
L 138.540708 274.146455 
L 138.818654 274.146455 
L 138.818654 273.894703 
L 139.092553 273.894703 
L 139.092553 273.768828 
L 139.362521 273.768828 
L 139.362521 273.642952 
L 139.628669 273.642952 
L 139.628669 273.3912 
L 139.891105 273.3912 
L 139.891105 273.265324 
L 140.14993 273.265324 
L 140.14993 272.006566 
L 140.657135 272.006566 
L 140.657135 271.88069 
L 140.905699 271.88069 
L 140.905699 271.628938 
L 141.151022 271.628938 
L 141.151022 271.125434 
L 141.393187 271.125434 
L 141.393187 270.873683 
L 141.632274 270.873683 
L 141.632274 270.747807 
L 141.868361 270.747807 
L 141.868361 270.244303 
L 142.101521 270.244303 
L 142.101521 270.118428 
L 142.331827 270.118428 
L 142.331827 269.992552 
L 142.559347 269.992552 
L 142.559347 269.7408 
L 142.784148 269.7408 
L 142.784148 269.489048 
L 143.006295 269.489048 
L 143.006295 269.363172 
L 143.225848 269.363172 
L 143.225848 268.733793 
L 143.442869 268.733793 
L 143.442869 268.104414 
L 143.657415 268.104414 
L 143.657415 267.978538 
L 143.869541 267.978538 
L 143.869541 267.852662 
L 144.079302 267.852662 
L 144.079302 267.60091 
L 144.28675 267.60091 
L 144.28675 267.097407 
L 144.491935 267.097407 
L 144.491935 266.719779 
L 144.694906 266.719779 
L 144.694906 266.468028 
L 144.895711 266.468028 
L 144.895711 266.216276 
L 145.094395 266.216276 
L 145.094395 266.0904 
L 145.291002 266.0904 
L 145.291002 265.964524 
L 145.485575 265.964524 
L 145.485575 265.712772 
L 145.678157 265.712772 
L 145.678157 265.586897 
L 145.868787 265.586897 
L 145.868787 265.335145 
L 146.057504 265.335145 
L 146.057504 265.083393 
L 146.244347 265.083393 
L 146.244347 264.957517 
L 146.429353 264.957517 
L 146.429353 264.57989 
L 146.612557 264.57989 
L 146.612557 264.202262 
L 146.973697 264.202262 
L 146.973697 263.95051 
L 147.1517 263.95051 
L 147.1517 263.824634 
L 147.328035 263.824634 
L 147.328035 263.572883 
L 147.675821 263.572883 
L 147.675821 263.447007 
L 147.847333 263.447007 
L 147.847333 263.195255 
L 148.518156 263.195255 
L 148.518156 262.943503 
L 148.844805 262.943503 
L 148.844805 262.565876 
L 149.006027 262.565876 
L 149.006027 262.314124 
L 149.165879 262.314124 
L 149.165879 262.062372 
L 149.324384 262.062372 
L 149.324384 261.810621 
L 149.481565 261.810621 
L 149.481565 261.432993 
L 149.637443 261.432993 
L 149.637443 261.181241 
L 150.398028 261.181241 
L 150.398028 261.055366 
L 150.546523 261.055366 
L 150.546523 260.551862 
L 151.27191 260.551862 
L 151.27191 260.425986 
L 151.41369 260.425986 
L 151.41369 260.30011 
L 151.554409 260.30011 
L 151.554409 259.922483 
L 151.832729 259.922483 
L 151.832729 259.544855 
L 151.97036 259.544855 
L 151.97036 259.293103 
L 152.643804 259.293103 
L 152.643804 259.041352 
L 153.036593 259.041352 
L 153.036593 258.915476 
L 153.421349 258.915476 
L 153.421349 258.663724 
L 153.547871 258.663724 
L 153.547871 258.537848 
L 153.673549 258.537848 
L 153.673549 258.411972 
L 154.04562 258.411972 
L 154.04562 257.908469 
L 154.289641 257.908469 
L 154.289641 257.404966 
L 154.410475 257.404966 
L 154.410475 257.153214 
L 154.649839 257.153214 
L 154.649839 256.775586 
L 154.768388 256.775586 
L 154.768388 256.64971 
L 155.003269 256.64971 
L 155.003269 256.397959 
L 155.119618 256.397959 
L 155.119618 256.146207 
L 155.350181 256.146207 
L 155.350181 256.020331 
L 155.464411 256.020331 
L 155.464411 255.768579 
L 155.577951 255.768579 
L 155.577951 255.516828 
L 155.690811 255.516828 
L 155.690811 255.265076 
L 155.802997 255.265076 
L 155.802997 255.013324 
L 156.025382 255.013324 
L 156.135597 254.383945 
L 156.245169 254.383945 
L 156.245169 253.880441 
L 156.783658 253.880441 
L 156.783658 253.754566 
L 157.099504 253.754566 
L 157.203619 253.502814 
L 157.30716 253.502814 
L 157.410135 253.251062 
L 157.614408 253.251062 
L 157.715719 252.99931 
L 158.214248 252.99931 
L 158.214248 252.621683 
L 158.410018 252.621683 
L 158.507144 251.740552 
L 158.603771 251.740552 
L 158.603771 251.614676 
L 158.79555 251.614676 
L 158.890711 251.237048 
L 159.079601 251.237048 
L 159.173339 250.607669 
L 159.359426 250.607669 
L 159.451784 250.104166 
L 159.816746 250.104166 
L 159.906891 249.223034 
L 159.996606 249.223034 
L 160.085895 248.971283 
L 160.174762 248.971283 
L 160.174762 248.719531 
L 160.526092 248.719531 
L 160.612908 248.341903 
L 160.699326 248.341903 
L 160.699326 248.090152 
L 160.87098 248.090152 
L 160.87098 247.964276 
L 161.125559 247.964276 
L 161.209658 247.586648 
L 161.376738 247.586648 
L 161.459725 247.334897 
L 161.542347 247.334897 
L 161.542347 247.209021 
L 161.706511 247.209021 
L 161.706511 246.831393 
L 161.950101 246.831393 
L 162.030602 246.32789 
L 162.11076 246.32789 
L 162.190578 245.824386 
L 162.270058 245.824386 
L 162.349204 245.320883 
L 162.428019 245.320883 
L 162.506504 244.565628 
L 162.584664 244.565628 
L 162.584664 244.313876 
L 162.740015 244.313876 
L 162.740015 243.936248 
L 162.894094 243.936248 
L 162.970663 243.558621 
L 163.046922 243.558621 
L 163.046922 243.432745 
L 163.198517 243.432745 
L 163.27386 243.055117 
L 163.423645 243.055117 
L 163.498092 242.67749 
L 163.572247 242.67749 
L 163.64611 242.425738 
L 163.719684 242.425738 
L 163.719684 242.299862 
L 163.865975 242.299862 
L 163.938695 241.796359 
L 164.083299 241.796359 
L 164.083299 241.166979 
L 164.369214 241.166979 
L 164.369214 240.789352 
L 164.580835 240.789352 
L 164.580835 240.663476 
L 164.859342 240.663476 
L 164.928329 240.285848 
L 164.997064 240.285848 
L 164.997064 240.159972 
L 165.133786 240.159972 
L 165.201776 239.656469 
L 165.337023 239.656469 
L 165.337023 239.404717 
L 165.604634 239.404717 
L 165.670946 238.901214 
L 165.933882 238.901214 
L 165.999046 238.523586 
L 166.1287 238.523586 
L 166.193193 238.145959 
L 166.321521 238.145959 
L 166.321521 237.642455 
L 166.448979 237.642455 
L 166.448979 237.390703 
L 166.575579 237.390703 
L 166.638561 237.138952 
L 166.888401 237.138952 
L 166.950346 236.383697 
L 167.134966 236.383697 
L 167.134966 236.257821 
L 167.317792 236.257821 
L 167.317792 236.131945 
L 167.438697 236.131945 
L 167.438697 235.880193 
L 167.558829 235.880193 
L 167.558829 235.628441 
L 167.737601 235.628441 
L 167.796816 234.74731 
L 167.855845 234.74731 
L 167.855845 234.621434 
L 168.03183 234.621434 
L 168.03183 234.369683 
L 168.148245 234.369683 
L 168.148245 233.740303 
L 168.321528 233.740303 
L 168.378936 233.488552 
L 168.436169 233.488552 
L 168.493229 233.110924 
L 168.719753 233.110924 
L 168.719753 232.733297 
L 168.887874 232.733297 
L 168.887874 232.355669 
L 169.274409 232.355669 
L 169.274409 232.229793 
L 169.437666 232.229793 
L 169.545722 231.348662 
L 169.653161 231.348662 
L 169.75999 230.971034 
L 169.971845 230.971034 
L 169.971845 230.467531 
L 170.233352 230.467531 
L 170.233352 230.341655 
L 170.439971 230.341655 
L 170.542436 229.964028 
L 170.644345 229.964028 
L 170.745706 229.082897 
L 170.796182 229.082897 
L 170.846523 228.705269 
L 171.046551 228.705269 
L 171.046551 228.453517 
L 171.195189 228.453517 
L 171.293632 227.698262 
L 171.391563 227.698262 
L 171.488986 227.320634 
L 171.537509 227.320634 
L 171.634182 226.943007 
L 171.682333 226.943007 
L 171.73036 226.691255 
L 171.873712 226.691255 
L 171.873712 226.313628 
L 172.11023 226.313628 
L 172.204011 225.684248 
L 172.390182 225.684248 
L 172.482581 224.928993 
L 172.620334 224.928993 
L 172.620334 224.803117 
L 172.757085 224.803117 
L 172.802449 224.047862 
L 172.982818 224.047862 
L 172.982818 223.79611 
L 173.205875 223.79611 
L 173.294362 223.292607 
L 173.33845 223.292607 
L 173.426318 222.914979 
L 173.687483 222.914979 
L 173.687483 222.663228 
L 173.816719 222.663228 
L 173.816719 222.2856 
L 173.987664 222.2856 
L 174.030158 221.907972 
L 174.11486 221.907972 
L 174.157069 221.152717 
L 174.241203 221.152717 
L 174.241203 221.026841 
L 174.532743 221.026841 
L 174.532743 220.77509 
L 174.656319 220.77509 
L 174.697331 220.397462 
L 174.860492 220.397462 
L 174.860492 220.14571 
L 175.02225 220.14571 
L 175.062472 219.642207 
L 175.142661 219.642207 
L 175.142661 219.516331 
L 175.341651 219.516331 
L 175.420661 219.264579 
L 175.49934 219.264579 
L 175.49934 219.012828 
L 175.616746 219.012828 
L 175.616746 218.886952 
L 175.887877 218.886952 
L 175.96463 218.6352 
L 176.193029 218.6352 
L 176.230828 218.257572 
L 176.306197 218.257572 
L 176.381266 217.879945 
L 176.456037 217.879945 
L 176.456037 217.628193 
L 176.604692 217.628193 
L 176.678581 216.621186 
L 177.007539 216.621186 
L 177.043737 216.117683 
L 177.508083 216.117683 
L 177.613631 215.614179 
L 177.683669 215.614179 
L 177.683669 215.236552 
L 177.892232 215.236552 
L 177.995653 214.858924 
L 178.03 214.858924 
L 178.098508 214.481297 
L 178.268694 214.481297 
L 178.268694 214.355421 
L 178.403742 214.355421 
L 178.437353 213.977793 
L 178.670965 213.977793 
L 178.770203 213.726041 
L 179.514118 213.726041 
L 179.514118 213.600166 
L 179.797391 213.600166 
L 179.859766 213.096662 
L 179.921934 213.096662 
L 180.014803 212.719034 
L 180.076462 212.719034 
L 180.076462 212.467283 
L 180.199176 212.467283 
L 180.29069 212.089655 
L 180.321096 212.089655 
L 180.321096 211.963779 
L 180.711964 211.963779 
L 180.711964 211.712028 
L 180.919115 211.712028 
L 180.919115 211.586152 
L 181.036471 211.586152 
L 181.036471 211.460276 
L 181.153099 211.460276 
L 181.211143 210.830897 
L 181.384209 210.830897 
L 181.412899 210.327393 
L 181.527223 210.327393 
L 181.527223 209.82389 
L 181.725635 209.82389 
L 181.753809 209.320386 
L 182.116288 209.320386 
L 182.116288 209.068634 
L 182.335929 209.068634 
L 182.390441 208.439255 
L 182.579998 208.439255 
L 182.579998 207.809876 
L 182.794322 207.809876 
L 182.794322 207.684 
L 182.927044 207.684 
L 182.927044 207.558124 
L 183.319685 207.558124 
L 183.42302 207.054621 
L 183.576965 207.054621 
L 183.576965 206.802869 
L 183.780285 206.802869 
L 183.780285 206.676993 
L 184.05631 206.676993 
L 184.130892 206.047614 
L 184.205179 206.047614 
L 184.303775 205.795862 
L 184.475083 205.795862 
L 184.475083 205.54411 
L 184.644846 205.54411 
L 184.717135 205.040607 
L 185.26231 205.040607 
L 185.26231 204.914731 
L 185.609533 204.914731 
L 185.609533 204.788855 
L 185.814831 204.788855 
L 185.814831 204.662979 
L 185.927925 204.662979 
L 186.017913 204.285352 
L 186.085122 204.285352 
L 186.085122 204.0336 
L 186.196608 204.0336 
L 186.307436 203.404221 
L 186.329524 203.404221 
L 186.329524 203.152469 
L 186.527153 203.152469 
L 186.527153 203.026593 
L 186.657762 203.026593 
L 186.765914 202.774841 
L 186.809001 202.774841 
L 186.809001 202.648966 
L 187.02297 202.648966 
L 187.02297 202.52309 
L 187.318496 202.52309 
L 187.318496 202.397214 
L 360.8064 202.397214 
L 360.8064 202.397214 
" style="fill: none; stroke: #000080; stroke-width: 1.5; stroke-linecap: square"/>
   </g>
   <g id="line2d_36">
    <defs>
     <path id="mddc8bf8985" d="M 0 6 
C 1.591219 6 3.117479 5.367802 4.242641 4.242641 
C 5.367802 3.117479 6 1.591219 6 0 
C 6 -1.591219 5.367802 -3.117479 4.242641 -4.242641 
C 3.117479 -5.367802 1.591219 -6 0 -6 
C -1.591219 -6 -3.117479 -5.367802 -4.242641 -4.242641 
C -5.367802 -3.117479 -6 -1.591219 -6 0 
C -6 1.591219 -5.367802 3.117479 -4.242641 4.242641 
C -3.117479 5.367802 -1.591219 6 0 6 
z
" style="stroke: #000080; stroke-width: 1.5"/>
    </defs>
    <g>
     <use xlink:href="#mddc8bf8985" x="107.904887" y="286.859917" style="fill-opacity: 0; stroke: #000080; stroke-width: 1.5"/>
     <use xlink:href="#mddc8bf8985" x="171.73036" y="226.817131" style="fill-opacity: 0; stroke: #000080; stroke-width: 1.5"/>
     <use xlink:href="#mddc8bf8985" x="187.318496" y="202.52309" style="fill-opacity: 0; stroke: #000080; stroke-width: 1.5"/>
     <use xlink:href="#mddc8bf8985" x="187.318496" y="202.397214" style="fill-opacity: 0; stroke: #000080; stroke-width: 1.5"/>
     <use xlink:href="#mddc8bf8985" x="187.318496" y="202.397214" style="fill-opacity: 0; stroke: #000080; stroke-width: 1.5"/>
     <use xlink:href="#mddc8bf8985" x="360.8064" y="202.397214" style="fill-opacity: 0; stroke: #000080; stroke-width: 1.5"/>
    </g>
   </g>
   <g id="line2d_37">
    <path style="fill: none; stroke: #000080; stroke-width: 1.5; stroke-linecap: square"/>
    <g/>
   </g>
   <g id="line2d_38">
    <path d="M 187.5456 202.397214 
" clip-path="url(#p8d35a14a4f)" style="fill: none; stroke: #000080; stroke-width: 1.5; stroke-linecap: square"/>
    <defs>
     <path id="me65b457f88" d="M -12 12 
L 12 -12 
M -12 -12 
L 12 12 
" style="stroke: #000080"/>
    </defs>
    <g clip-path="url(#p8d35a14a4f)">
     <use xlink:href="#me65b457f88" x="187.5456" y="202.397214" style="fill: #000080; stroke: #000080"/>
    </g>
   </g>
   <g id="line2d_39">
    <defs>
     <path id="m665b8ceef2" d="M 0 1.5 
C 0.397805 1.5 0.77937 1.341951 1.06066 1.06066 
C 1.341951 0.77937 1.5 0.397805 1.5 0 
C 1.5 -0.397805 1.341951 -0.77937 1.06066 -1.06066 
C 0.77937 -1.341951 0.397805 -1.5 0 -1.5 
C -0.397805 -1.5 -0.77937 -1.341951 -1.06066 -1.06066 
C -1.341951 -0.77937 -1.5 -0.397805 -1.5 0 
C -1.5 0.397805 -1.341951 0.77937 -1.06066 1.06066 
C -0.77937 1.341951 -0.397805 1.5 0 1.5 
z
" style="stroke: #ff00ff"/>
    </defs>
    <g>
     <use xlink:href="#m665b8ceef2" x="187.333722" y="198.117434" style="fill: #ff00ff; stroke: #ff00ff"/>
     <use xlink:href="#m665b8ceef2" x="187.333722" y="198.117434" style="fill: #ff00ff; stroke: #ff00ff"/>
    </g>
   </g>
   <g id="line2d_40">
    <path d="M 14.2848 298.944 
L 14.2848 288.999807 
L 27.323974 288.999807 
L 27.323974 288.873931 
L 53.402323 288.873931 
L 53.402323 288.748055 
L 63.929565 288.748055 
L 63.929565 288.622179 
L 82.713442 288.622179 
L 82.713442 288.370428 
L 90.007914 288.370428 
L 90.007914 287.9928 
L 95.250946 287.9928 
L 95.250946 287.866924 
L 96.717523 287.866924 
L 96.717523 287.741048 
L 98.933205 287.741048 
L 98.933205 287.615172 
L 103.380045 287.615172 
L 103.380045 287.363421 
L 105.26277 287.363421 
L 105.26277 287.237545 
L 105.850679 287.237545 
L 105.850679 287.111669 
L 106.137884 287.111669 
L 106.137884 286.985793 
L 106.42077 286.985793 
L 106.42077 286.734041 
L 106.699465 286.734041 
L 106.699465 286.608166 
L 107.774703 286.608166 
L 107.774703 286.48229 
L 110.674517 286.48229 
L 110.674517 286.356414 
L 110.897141 286.356414 
L 110.897141 286.230538 
L 111.117162 286.230538 
L 111.117162 286.104662 
L 111.334639 286.104662 
L 111.334639 285.978786 
L 111.54963 285.978786 
L 111.54963 285.85291 
L 112.180244 285.85291 
L 112.180244 285.475283 
L 114.048198 285.475283 
L 114.048198 285.349407 
L 114.234452 285.349407 
L 114.234452 285.223531 
L 115.314838 285.223531 
L 115.402131 284.845903 
L 116.170056 284.845903 
L 116.170056 284.720028 
L 116.501546 284.720028 
L 116.501546 284.594152 
L 116.827295 284.594152 
L 116.827295 284.468276 
L 117.462345 284.468276 
L 117.540239 284.090648 
L 117.848632 284.090648 
L 117.924947 283.838897 
L 118.376446 283.838897 
L 118.376446 283.713021 
L 118.671535 283.713021 
L 118.671535 283.587145 
L 119.105667 283.587145 
L 119.105667 283.461269 
L 119.24818 283.461269 
L 119.24818 283.335393 
L 119.530006 283.335393 
L 119.530006 283.209517 
L 120.0813 283.209517 
L 120.0813 283.083641 
L 121.706797 283.083641 
L 121.706797 282.957766 
L 122.677931 282.957766 
L 122.677931 282.706014 
L 122.795872 282.706014 
L 122.854567 282.454262 
L 122.971409 282.454262 
L 122.971409 282.328386 
L 123.145323 282.328386 
L 123.202939 282.076634 
L 123.260379 282.076634 
L 123.260379 281.950759 
L 123.374735 281.950759 
L 123.431654 281.447255 
L 123.601383 281.447255 
L 123.601383 281.321379 
L 123.936316 281.321379 
L 123.936316 281.069628 
L 124.535287 281.069628 
L 124.535287 280.943752 
L 124.959227 280.943752 
L 124.959227 280.817876 
L 125.115773 280.817876 
L 125.115773 280.692 
L 125.425011 280.692 
L 125.526971 280.314372 
L 125.577745 280.314372 
L 125.678882 279.810869 
L 125.979073 279.810869 
L 125.979073 279.684993 
L 126.274549 279.684993 
L 126.274549 279.559117 
L 126.851931 279.559117 
L 126.851931 279.433241 
L 127.134109 279.433241 
L 127.227236 279.18149 
L 127.366067 279.18149 
L 127.366067 279.055614 
L 127.503881 279.055614 
L 127.5952 278.426234 
L 127.640693 278.426234 
L 127.640693 278.300359 
L 127.776517 278.300359 
L 127.866525 277.922731 
L 128.089678 277.922731 
L 128.089678 277.796855 
L 128.266313 277.796855 
L 128.354013 277.545103 
L 128.441306 277.545103 
L 128.441306 277.419228 
L 128.871795 277.419228 
L 128.871795 277.293352 
L 128.999044 277.293352 
L 128.999044 277.0416 
L 129.250988 277.0416 
L 129.250988 276.915724 
L 129.458394 276.915724 
L 129.458394 276.789848 
L 130.146945 276.789848 
L 130.226319 276.538097 
L 130.501519 276.538097 
L 130.501519 276.412221 
L 130.695654 276.412221 
L 130.695654 276.286345 
L 131.078016 276.286345 
L 131.115828 275.908717 
L 131.563744 275.908717 
L 131.63737 275.656966 
L 131.820186 275.656966 
L 131.820186 275.53109 
L 132.073179 275.53109 
L 132.144842 275.027586 
L 132.322814 275.027586 
L 132.358208 274.775834 
L 132.777813 274.775834 
L 132.846847 274.398207 
L 133.086488 274.398207 
L 133.086488 274.272331 
L 133.289492 274.272331 
L 133.323114 274.020579 
L 133.457005 274.020579 
L 133.457005 273.894703 
L 133.589949 273.894703 
L 133.589949 273.768828 
L 133.853052 273.768828 
L 133.950775 273.517076 
L 133.983236 273.517076 
L 133.983236 273.3912 
L 134.112526 273.3912 
L 134.112526 273.139448 
L 134.526683 273.139448 
L 134.558167 272.635945 
L 134.652304 272.635945 
L 134.652304 272.510069 
L 134.839175 272.510069 
L 134.931919 272.132441 
L 135.388902 272.132441 
L 135.418977 271.628938 
L 135.92302 271.628938 
L 135.92302 271.503062 
L 136.299553 271.503062 
L 136.299553 271.377186 
L 136.612375 271.377186 
L 136.668697 270.999559 
L 136.808769 270.999559 
L 136.808769 270.747807 
L 137.140746 270.747807 
L 137.222833 270.370179 
L 137.520791 270.370179 
L 137.520791 270.118428 
L 137.654681 270.118428 
L 137.654681 269.866676 
L 137.866944 269.866676 
L 137.866944 269.7408 
L 138.050729 269.7408 
L 138.128947 269.489048 
L 138.335954 269.489048 
L 138.335954 269.363172 
L 138.59155 269.363172 
L 138.667556 269.111421 
L 138.993414 269.111421 
L 139.043049 268.607917 
L 139.240288 268.607917 
L 139.240288 268.482041 
L 139.93843 268.482041 
L 139.93843 268.356166 
L 140.838234 268.356166 
L 140.838234 268.23029 
L 141.017607 268.23029 
L 141.017607 268.104414 
L 141.128852 268.104414 
L 141.128852 267.978538 
L 141.50224 267.978538 
L 141.545685 267.726786 
L 141.782854 267.726786 
L 141.782854 267.60091 
L 141.995897 267.60091 
L 141.995897 267.223283 
L 142.206555 267.223283 
L 142.227492 266.719779 
L 142.579895 266.719779 
L 142.661862 266.468028 
L 142.804452 266.468028 
L 142.885449 266.216276 
L 142.945969 266.216276 
L 142.986208 265.964524 
L 143.403597 265.964524 
L 143.403597 265.712772 
L 143.540694 265.712772 
L 143.540694 265.586897 
L 143.715505 265.586897 
L 143.715505 265.335145 
L 144.117191 265.335145 
L 144.117191 265.083393 
L 144.249202 265.083393 
L 144.249202 264.957517 
L 144.658165 264.957517 
L 144.71325 264.705766 
L 144.91386 264.705766 
L 145.022388 264.454014 
L 145.166126 264.454014 
L 145.273213 263.95051 
L 145.344267 263.95051 
L 145.344267 263.698759 
L 145.608355 263.698759 
L 145.608355 263.447007 
L 145.79969 263.447007 
L 145.79969 263.321131 
L 146.142663 263.321131 
L 146.142663 263.195255 
L 146.379077 263.195255 
L 146.379077 263.069379 
L 146.662213 263.069379 
L 146.662213 262.691752 
L 147.135588 262.691752 
L 147.135588 262.44 
L 147.328035 262.44 
L 147.328035 262.314124 
L 147.455248 262.314124 
L 147.455248 262.188248 
L 147.644469 262.188248 
L 147.753975 261.810621 
L 147.986506 261.810621 
L 148.03267 261.432993 
L 148.548087 261.432993 
L 148.607806 260.92949 
L 148.667336 260.92949 
L 148.711861 260.425986 
L 149.078856 260.425986 
L 149.078856 260.30011 
L 149.20924 260.30011 
L 149.281288 259.796607 
L 149.395993 259.796607 
L 149.495789 259.544855 
L 149.679732 259.544855 
L 149.679732 259.293103 
L 149.847944 259.293103 
L 149.861894 259.041352 
L 150.166205 259.041352 
L 150.166205 258.7896 
L 150.546523 258.7896 
L 150.58682 258.286097 
L 150.693856 258.286097 
L 150.787015 257.908469 
L 150.879716 257.908469 
L 150.879716 257.782593 
L 151.037576 257.782593 
L 151.037576 257.530841 
L 151.452172 257.530841 
L 151.452172 257.27909 
L 151.70673 257.27909 
L 151.795018 257.027338 
L 151.895414 257.027338 
L 151.907925 256.775586 
L 152.045009 256.775586 
L 152.094611 256.146207 
L 152.352898 256.146207 
L 152.365109 255.894455 
L 152.835271 255.894455 
L 152.847174 255.642703 
L 152.965784 255.642703 
L 152.965784 255.516828 
L 153.107137 255.516828 
L 153.107137 255.390952 
L 153.282346 255.390952 
L 153.375128 255.1392 
L 153.52493 255.1392 
L 153.52493 255.013324 
L 153.639356 255.013324 
L 153.719042 254.635697 
L 153.798392 254.635697 
L 153.899924 253.880441 
L 153.922412 253.880441 
L 153.933646 253.62869 
L 154.223403 253.62869 
L 154.333671 253.125186 
L 154.366625 253.125186 
L 154.410475 252.747559 
L 154.563149 252.747559 
L 154.649839 252.369931 
L 154.703817 252.369931 
L 154.714595 252.118179 
L 155.045661 252.118179 
L 155.045661 251.992303 
L 155.235253 251.992303 
L 155.266666 251.4888 
L 155.433326 251.4888 
L 155.433326 251.362924 
L 155.639595 251.362924 
L 155.741887 250.859421 
L 155.813163 250.859421 
L 155.904407 250.355917 
L 156.205398 250.355917 
L 156.304668 250.104166 
L 156.393565 250.104166 
L 156.393565 249.852414 
L 156.521235 249.852414 
L 156.521235 249.726538 
L 156.648044 249.726538 
L 156.648044 249.600662 
L 156.870325 249.600662 
L 156.975712 248.971283 
L 157.051988 248.971283 
L 157.051988 248.719531 
L 157.410135 248.719531 
L 157.493969 248.090152 
L 157.521831 248.090152 
L 157.605171 247.712524 
L 157.706532 247.712524 
L 157.779907 247.460772 
L 157.871225 247.460772 
L 157.871225 247.083145 
L 158.052543 247.083145 
L 158.070579 246.705517 
L 158.25892 246.705517 
L 158.321284 246.453766 
L 158.392304 246.453766 
L 158.463058 245.824386 
L 158.74344 245.824386 
L 158.74344 245.69851 
L 158.856162 245.69851 
L 158.856162 245.572634 
L 159.002557 245.572634 
L 159.028273 245.320883 
L 159.122267 245.320883 
L 159.122267 245.069131 
L 159.275069 245.069131 
L 159.275069 244.943255 
L 159.42664 244.943255 
L 159.485256 244.691503 
L 159.726167 244.691503 
L 159.833168 244.313876 
L 159.923234 244.313876 
L 159.988467 244.062124 
L 160.077795 244.062124 
L 160.174762 243.810372 
L 160.335271 243.810372 
L 160.375185 243.432745 
L 160.486497 243.432745 
L 160.549809 243.055117 
L 160.644379 243.055117 
L 160.738476 242.299862 
L 160.855439 242.299862 
L 160.948489 241.292855 
L 161.474774 241.292855 
L 161.534851 240.789352 
L 161.617145 240.789352 
L 161.654432 240.411724 
L 161.78066 240.411724 
L 161.78066 240.285848 
L 162.001369 240.285848 
L 162.001369 240.034097 
L 162.205054 240.034097 
L 162.205054 239.782345 
L 162.349204 239.782345 
L 162.349204 239.656469 
L 162.613005 239.656469 
L 162.655437 239.02709 
L 162.747046 239.02709 
L 162.845206 238.775338 
L 162.921974 238.775338 
L 162.991492 238.523586 
L 163.053839 238.523586 
L 163.122872 238.271834 
L 163.287526 238.271834 
L 163.355708 237.390703 
L 163.491337 237.390703 
L 163.59914 236.761324 
L 163.812909 236.761324 
L 163.885835 236.257821 
L 163.96507 236.257821 
L 163.96507 236.131945 
L 164.187772 236.131945 
L 164.272231 235.754317 
L 164.349858 235.754317 
L 164.349858 235.628441 
L 164.638138 235.628441 
L 164.739583 235.37669 
L 164.771172 235.37669 
L 164.80901 234.873186 
L 165.009535 234.873186 
L 165.009535 234.621434 
L 165.361509 234.621434 
L 165.459136 234.243807 
L 165.51383 234.243807 
L 165.538087 233.488552 
L 165.652884 233.488552 
L 165.676963 232.859172 
L 165.850619 232.859172 
L 165.939815 232.229793 
L 166.222436 232.229793 
L 166.222436 231.978041 
L 166.466293 231.978041 
L 166.529641 231.474538 
L 166.609959 231.474538 
L 166.609959 231.348662 
L 166.83191 231.348662 
L 166.83191 231.222786 
L 167.028891 231.222786 
L 167.062453 230.719283 
L 167.173896 230.719283 
L 167.196106 230.089903 
L 167.661966 230.089903 
L 167.699821 229.334648 
L 167.866558 229.334648 
L 167.91469 229.082897 
L 168.095418 229.082897 
L 168.137692 228.579393 
L 168.284904 228.579393 
L 168.321528 227.950014 
L 168.513935 227.950014 
L 168.513935 227.824138 
L 168.663377 227.824138 
L 168.719753 227.572386 
L 168.801454 227.572386 
L 168.801454 227.320634 
L 168.948638 227.320634 
L 169.029352 226.817131 
L 169.174771 226.817131 
L 169.239596 226.439503 
L 169.417952 226.439503 
L 169.417952 226.187752 
L 169.614163 226.187752 
L 169.667764 225.936 
L 169.745458 225.936 
L 169.798687 225.432497 
L 169.866216 225.432497 
L 169.875843 225.054869 
L 169.995769 225.054869 
L 170.081645 224.551366 
L 170.519197 224.551366 
L 170.519197 224.42549 
L 170.653583 224.42549 
L 170.662815 224.047862 
L 170.814504 224.047862 
L 170.89673 223.544359 
L 170.942257 223.544359 
L 171.001277 222.914979 
L 171.351562 222.914979 
L 171.435909 222.2856 
L 171.528696 222.2856 
L 171.555123 221.907972 
L 171.656084 221.907972 
L 171.660461 221.404469 
L 171.782615 221.404469 
L 171.782615 221.278593 
L 171.895337 221.278593 
L 171.895337 221.152717 
L 172.011684 221.152717 
L 172.011684 220.900966 
L 172.195505 220.900966 
L 172.216763 220.397462 
L 172.310016 220.397462 
L 172.373333 219.893959 
L 172.549496 219.893959 
L 172.632807 219.390455 
L 172.740562 219.390455 
L 172.802449 218.886952 
L 173.306396 218.886952 
L 173.306396 218.6352 
L 173.434285 218.6352 
L 173.478047 218.383448 
L 173.573175 218.383448 
L 173.573175 218.257572 
L 173.808912 218.257572 
L 173.917919 218.005821 
L 173.979927 218.005821 
L 174.084104 217.250566 
L 174.397001 217.250566 
L 174.400785 216.747062 
L 174.513949 216.747062 
L 174.513949 216.621186 
L 174.786503 216.621186 
L 174.890006 216.243559 
L 174.901062 216.243559 
L 174.945221 215.865931 
L 175.02591 215.865931 
L 175.033228 215.488303 
L 175.305627 215.488303 
L 175.395557 214.858924 
L 175.517176 214.858924 
L 175.559914 214.355421 
L 175.659258 214.355421 
L 175.768638 213.726041 
L 175.849382 213.726041 
L 175.943728 213.096662 
L 176.14826 213.096662 
L 176.14826 212.970786 
L 176.271976 212.970786 
L 176.271976 212.719034 
L 176.469599 212.719034 
L 176.469599 212.593159 
L 176.648389 212.593159 
L 176.75552 211.963779 
L 176.918392 211.963779 
L 176.918392 211.712028 
L 177.03716 211.712028 
L 177.132293 211.208524 
L 177.174783 211.208524 
L 177.243218 210.453269 
L 177.337316 210.453269 
L 177.434167 209.82389 
L 177.492039 209.82389 
L 177.492039 209.698014 
L 177.613631 209.698014 
L 177.613631 209.320386 
L 177.813503 209.320386 
L 177.923632 208.816883 
L 178.290243 208.816883 
L 178.290243 208.691007 
L 178.583321 208.691007 
L 178.664933 207.935752 
L 178.773202 207.935752 
L 178.773202 207.684 
L 178.889793 207.684 
L 178.981956 207.054621 
L 179.052999 207.054621 
L 179.100212 206.676993 
L 179.296641 206.676993 
L 179.296641 206.551117 
L 179.47949 206.551117 
L 179.47949 206.299366 
L 179.729109 206.299366 
L 179.786028 205.795862 
L 179.910646 205.795862 
L 179.913468 205.292359 
L 180.33766 205.292359 
L 180.33766 205.166483 
L 180.568042 205.166483 
L 180.657783 204.788855 
L 180.782166 204.788855 
L 180.782166 204.537103 
L 180.945851 204.537103 
L 181.049761 204.0336 
L 181.113421 204.0336 
L 181.213777 203.655972 
L 181.271635 203.655972 
L 181.33455 203.404221 
L 181.682009 203.404221 
L 181.697418 203.152469 
L 181.815135 203.152469 
L 181.858453 202.774841 
L 182.148897 202.774841 
L 182.246386 202.397214 
L 182.311099 202.397214 
L 182.383017 201.89371 
L 182.575099 201.89371 
L 182.636251 201.641959 
L 182.994254 201.641959 
L 182.994254 201.390207 
L 183.144604 201.390207 
L 183.144604 201.264331 
L 183.665032 201.264331 
L 183.665032 201.138455 
L 184.008694 201.138455 
L 184.008694 201.012579 
L 184.274698 201.012579 
L 184.368477 200.634952 
L 184.448488 200.634952 
L 184.554643 200.131448 
L 184.609696 200.131448 
L 184.712762 199.879697 
L 184.721507 199.879697 
L 184.778254 199.627945 
L 185.938172 199.627945 
L 185.938172 199.502069 
L 186.277275 199.502069 
L 186.337549 199.124441 
L 186.493364 199.124441 
L 186.493364 198.87269 
L 186.844181 198.87269 
L 186.844181 198.620938 
L 187.061614 198.620938 
L 187.061614 198.369186 
L 187.333722 198.369186 
L 187.333722 198.117434 
L 360.8064 198.117434 
L 360.8064 198.117434 
" style="fill: none; stroke: #ff00ff; stroke-width: 1.5; stroke-linecap: square"/>
   </g>
   <g id="line2d_41">
    <defs>
     <path id="m854c77d924" d="M -0 8.485281 
L 5.091169 0 
L 0 -8.485281 
L -5.091169 -0 
z
" style="stroke: #ff00ff; stroke-width: 1.5; stroke-linejoin: miter"/>
    </defs>
    <g>
     <use xlink:href="#m854c77d924" x="82.713442" y="288.622179" style="fill-opacity: 0; stroke: #ff00ff; stroke-width: 1.5; stroke-linejoin: miter"/>
     <use xlink:href="#m854c77d924" x="156.88953" y="249.474786" style="fill-opacity: 0; stroke: #ff00ff; stroke-width: 1.5; stroke-linejoin: miter"/>
     <use xlink:href="#m854c77d924" x="187.333722" y="198.369186" style="fill-opacity: 0; stroke: #ff00ff; stroke-width: 1.5; stroke-linejoin: miter"/>
     <use xlink:href="#m854c77d924" x="187.333722" y="198.117434" style="fill-opacity: 0; stroke: #ff00ff; stroke-width: 1.5; stroke-linejoin: miter"/>
     <use xlink:href="#m854c77d924" x="187.333722" y="198.117434" style="fill-opacity: 0; stroke: #ff00ff; stroke-width: 1.5; stroke-linejoin: miter"/>
     <use xlink:href="#m854c77d924" x="360.8064" y="198.117434" style="fill-opacity: 0; stroke: #ff00ff; stroke-width: 1.5; stroke-linejoin: miter"/>
    </g>
   </g>
   <g id="line2d_42">
    <path style="fill: none; stroke: #ff00ff; stroke-width: 1.5; stroke-linecap: square"/>
    <g/>
   </g>
   <g id="line2d_43">
    <path d="M 187.53431 198.117434 
" clip-path="url(#p8d35a14a4f)" style="fill: none; stroke: #ff00ff; stroke-width: 1.5; stroke-linecap: square"/>
    <defs>
     <path id="mde2d472c42" d="M -12 12 
L 12 -12 
M -12 -12 
L 12 12 
" style="stroke: #ff00ff"/>
    </defs>
    <g clip-path="url(#p8d35a14a4f)">
     <use xlink:href="#mde2d472c42" x="187.53431" y="198.117434" style="fill: #ff00ff; stroke: #ff00ff"/>
    </g>
   </g>
   <g id="line2d_44">
    <path d="M 360.8064 202.397214 
L 380.514816 293.10336 
" style="fill: none; stroke: #000080; stroke-width: 1.5; stroke-linecap: square"/>
    <g>
     <use xlink:href="#mddc8bf8985" x="360.8064" y="202.397214" style="fill-opacity: 0; stroke: #000080; stroke-width: 1.5"/>
     <use xlink:href="#mddc8bf8985" x="380.514816" y="293.10336" style="fill-opacity: 0; stroke: #000080; stroke-width: 1.5"/>
    </g>
   </g>
   <g id="line2d_45">
    <path d="M 360.8064 198.117434 
L 380.514816 152.928 
" style="fill: none; stroke: #ff00ff; stroke-width: 1.5; stroke-linecap: square"/>
    <g>
     <use xlink:href="#m854c77d924" x="360.8064" y="198.117434" style="fill-opacity: 0; stroke: #ff00ff; stroke-width: 1.5; stroke-linejoin: miter"/>
     <use xlink:href="#m854c77d924" x="380.514816" y="152.928" style="fill-opacity: 0; stroke: #ff00ff; stroke-width: 1.5; stroke-linejoin: miter"/>
    </g>
   </g>
   <g id="line2d_46">
    <path d="M 360.8064 298.944 
L 360.8064 6.912 
" style="fill: none; stroke: #000000; stroke-width: 1.5; stroke-linecap: square"/>
   </g>
   <g id="patch_3">
    <path d="M 57.6 298.944 
L 360.8064 298.944 
" style="fill: none; stroke: #000000; stroke-width: 0.8; stroke-linejoin: miter; stroke-linecap: square"/>
   </g>
   <g id="patch_4">
    <path d="M 57.6 6.912 
L 360.8064 6.912 
" style="fill: none; stroke: #000000; stroke-width: 0.8; stroke-linejoin: miter; stroke-linecap: square"/>
   </g>
   <g id="text_13">
    <!-- kerComo -->
    <g transform="translate(386.578944 296.966485) scale(0.14 -0.14)">
     <defs>
      <path id="DejaVuSans-6b" d="M 581 4863 
L 1159 4863 
L 1159 1991 
L 2875 3500 
L 3609 3500 
L 1753 1863 
L 3688 0 
L 2938 0 
L 1159 1709 
L 1159 0 
L 581 0 
L 581 4863 
z
" transform="scale(0.015625)"/>
      <path id="DejaVuSans-43" d="M 4122 4306 
L 4122 3641 
Q 3803 3938 3442 4084 
Q 3081 4231 2675 4231 
Q 1875 4231 1450 3742 
Q 1025 3253 1025 2328 
Q 1025 1406 1450 917 
Q 1875 428 2675 428 
Q 3081 428 3442 575 
Q 3803 722 4122 1019 
L 4122 359 
Q 3791 134 3420 21 
Q 3050 -91 2638 -91 
Q 1578 -91 968 557 
Q 359 1206 359 2328 
Q 359 3453 968 4101 
Q 1578 4750 2638 4750 
Q 3056 4750 3426 4639 
Q 3797 4528 4122 4306 
z
" transform="scale(0.015625)"/>
     </defs>
     <use xlink:href="#DejaVuSans-6b"/>
     <use xlink:href="#DejaVuSans-65" x="54.285156"/>
     <use xlink:href="#DejaVuSans-72" x="115.808594"/>
     <use xlink:href="#DejaVuSans-43" x="156.921875"/>
     <use xlink:href="#DejaVuSans-6f" x="226.746094"/>
     <use xlink:href="#DejaVuSans-6d" x="287.927734"/>
     <use xlink:href="#DejaVuSans-6f" x="385.339844"/>
    </g>
   </g>
   <g id="text_14">
    <!-- kerLQ -->
    <g transform="translate(386.578944 156.791125) scale(0.14 -0.14)">
     <defs>
      <path id="DejaVuSans-4c" d="M 628 4666 
L 1259 4666 
L 1259 531 
L 3531 531 
L 3531 0 
L 628 0 
L 628 4666 
z
" transform="scale(0.015625)"/>
      <path id="DejaVuSans-51" d="M 2522 4238 
Q 1834 4238 1429 3725 
Q 1025 3213 1025 2328 
Q 1025 1447 1429 934 
Q 1834 422 2522 422 
Q 3209 422 3611 934 
Q 4013 1447 4013 2328 
Q 4013 3213 3611 3725 
Q 3209 4238 2522 4238 
z
M 3406 84 
L 4238 -825 
L 3475 -825 
L 2784 -78 
Q 2681 -84 2626 -87 
Q 2572 -91 2522 -91 
Q 1538 -91 948 567 
Q 359 1225 359 2328 
Q 359 3434 948 4092 
Q 1538 4750 2522 4750 
Q 3503 4750 4090 4092 
Q 4678 3434 4678 2328 
Q 4678 1516 4351 937 
Q 4025 359 3406 84 
z
" transform="scale(0.015625)"/>
     </defs>
     <use xlink:href="#DejaVuSans-6b"/>
     <use xlink:href="#DejaVuSans-65" x="54.285156"/>
     <use xlink:href="#DejaVuSans-72" x="115.808594"/>
     <use xlink:href="#DejaVuSans-4c" x="156.921875"/>
     <use xlink:href="#DejaVuSans-51" x="212.634766"/>
    </g>
   </g>
   <g id="text_15">
    <!-- best 2016 -->
    <g transform="translate(386.578944 16.615765) scale(0.14 -0.14)">
     <defs>
      <path id="DejaVuSans-62" d="M 3116 1747 
Q 3116 2381 2855 2742 
Q 2594 3103 2138 3103 
Q 1681 3103 1420 2742 
Q 1159 2381 1159 1747 
Q 1159 1113 1420 752 
Q 1681 391 2138 391 
Q 2594 391 2855 752 
Q 3116 1113 3116 1747 
z
M 1159 2969 
Q 1341 3281 1617 3432 
Q 1894 3584 2278 3584 
Q 2916 3584 3314 3078 
Q 3713 2572 3713 1747 
Q 3713 922 3314 415 
Q 2916 -91 2278 -91 
Q 1894 -91 1617 61 
Q 1341 213 1159 525 
L 1159 0 
L 581 0 
L 581 4863 
L 1159 4863 
L 1159 2969 
z
" transform="scale(0.015625)"/>
     </defs>
     <use xlink:href="#DejaVuSans-62"/>
     <use xlink:href="#DejaVuSans-65" x="63.476562"/>
     <use xlink:href="#DejaVuSans-73" x="125"/>
     <use xlink:href="#DejaVuSans-74" x="177.099609"/>
     <use xlink:href="#DejaVuSans-20" x="216.308594"/>
     <use xlink:href="#DejaVuSans-32" x="248.095703"/>
     <use xlink:href="#DejaVuSans-30" x="311.71875"/>
     <use xlink:href="#DejaVuSans-31" x="375.341797"/>
     <use xlink:href="#DejaVuSans-36" x="438.964844"/>
    </g>
   </g>
   <g id="text_16">
    <!-- bbob-biobj f39, f40, f44, f45, 10-D -->
    <g transform="translate(60.632064 17.582726) scale(0.102 -0.102)">
     <defs>
      <path id="DejaVuSans-6a" d="M 603 3500 
L 1178 3500 
L 1178 -63 
Q 1178 -731 923 -1031 
Q 669 -1331 103 -1331 
L -116 -1331 
L -116 -844 
L 38 -844 
Q 366 -844 484 -692 
Q 603 -541 603 -63 
L 603 3500 
z
M 603 4863 
L 1178 4863 
L 1178 4134 
L 603 4134 
L 603 4863 
z
" transform="scale(0.015625)"/>
      <path id="DejaVuSans-33" d="M 2597 2516 
Q 3050 2419 3304 2112 
Q 3559 1806 3559 1356 
Q 3559 666 3084 287 
Q 2609 -91 1734 -91 
Q 1441 -91 1130 -33 
Q 819 25 488 141 
L 488 750 
Q 750 597 1062 519 
Q 1375 441 1716 441 
Q 2309 441 2620 675 
Q 2931 909 2931 1356 
Q 2931 1769 2642 2001 
Q 2353 2234 1838 2234 
L 1294 2234 
L 1294 2753 
L 1863 2753 
Q 2328 2753 2575 2939 
Q 2822 3125 2822 3475 
Q 2822 3834 2567 4026 
Q 2313 4219 1838 4219 
Q 1578 4219 1281 4162 
Q 984 4106 628 3988 
L 628 4550 
Q 988 4650 1302 4700 
Q 1616 4750 1894 4750 
Q 2613 4750 3031 4423 
Q 3450 4097 3450 3541 
Q 3450 3153 3228 2886 
Q 3006 2619 2597 2516 
z
" transform="scale(0.015625)"/>
      <path id="DejaVuSans-39" d="M 703 97 
L 703 672 
Q 941 559 1184 500 
Q 1428 441 1663 441 
Q 2288 441 2617 861 
Q 2947 1281 2994 2138 
Q 2813 1869 2534 1725 
Q 2256 1581 1919 1581 
Q 1219 1581 811 2004 
Q 403 2428 403 3163 
Q 403 3881 828 4315 
Q 1253 4750 1959 4750 
Q 2769 4750 3195 4129 
Q 3622 3509 3622 2328 
Q 3622 1225 3098 567 
Q 2575 -91 1691 -91 
Q 1453 -91 1209 -44 
Q 966 3 703 97 
z
M 1959 2075 
Q 2384 2075 2632 2365 
Q 2881 2656 2881 3163 
Q 2881 3666 2632 3958 
Q 2384 4250 1959 4250 
Q 1534 4250 1286 3958 
Q 1038 3666 1038 3163 
Q 1038 2656 1286 2365 
Q 1534 2075 1959 2075 
z
" transform="scale(0.015625)"/>
      <path id="DejaVuSans-35" d="M 691 4666 
L 3169 4666 
L 3169 4134 
L 1269 4134 
L 1269 2991 
Q 1406 3038 1543 3061 
Q 1681 3084 1819 3084 
Q 2600 3084 3056 2656 
Q 3513 2228 3513 1497 
Q 3513 744 3044 326 
Q 2575 -91 1722 -91 
Q 1428 -91 1123 -41 
Q 819 9 494 109 
L 494 744 
Q 775 591 1075 516 
Q 1375 441 1709 441 
Q 2250 441 2565 725 
Q 2881 1009 2881 1497 
Q 2881 1984 2565 2268 
Q 2250 2553 1709 2553 
Q 1456 2553 1204 2497 
Q 953 2441 691 2322 
L 691 4666 
z
" transform="scale(0.015625)"/>
      <path id="DejaVuSans-44" d="M 1259 4147 
L 1259 519 
L 2022 519 
Q 2988 519 3436 956 
Q 3884 1394 3884 2338 
Q 3884 3275 3436 3711 
Q 2988 4147 2022 4147 
L 1259 4147 
z
M 628 4666 
L 1925 4666 
Q 3281 4666 3915 4102 
Q 4550 3538 4550 2338 
Q 4550 1131 3912 565 
Q 3275 0 1925 0 
L 628 0 
L 628 4666 
z
" transform="scale(0.015625)"/>
     </defs>
     <use xlink:href="#DejaVuSans-62"/>
     <use xlink:href="#DejaVuSans-62" x="63.476562"/>
     <use xlink:href="#DejaVuSans-6f" x="126.953125"/>
     <use xlink:href="#DejaVuSans-62" x="188.134766"/>
     <use xlink:href="#DejaVuSans-2d" x="251.611328"/>
     <use xlink:href="#DejaVuSans-62" x="287.695312"/>
     <use xlink:href="#DejaVuSans-69" x="351.171875"/>
     <use xlink:href="#DejaVuSans-6f" x="378.955078"/>
     <use xlink:href="#DejaVuSans-62" x="440.136719"/>
     <use xlink:href="#DejaVuSans-6a" x="503.613281"/>
     <use xlink:href="#DejaVuSans-20" x="531.396484"/>
     <use xlink:href="#DejaVuSans-66" x="563.183594"/>
     <use xlink:href="#DejaVuSans-33" x="598.388672"/>
     <use xlink:href="#DejaVuSans-39" x="662.011719"/>
     <use xlink:href="#DejaVuSans-2c" x="725.634766"/>
     <use xlink:href="#DejaVuSans-20" x="757.421875"/>
     <use xlink:href="#DejaVuSans-66" x="789.208984"/>
     <use xlink:href="#DejaVuSans-34" x="824.414062"/>
     <use xlink:href="#DejaVuSans-30" x="888.037109"/>
     <use xlink:href="#DejaVuSans-2c" x="951.660156"/>
     <use xlink:href="#DejaVuSans-20" x="983.447266"/>
     <use xlink:href="#DejaVuSans-66" x="1015.234375"/>
     <use xlink:href="#DejaVuSans-34" x="1050.439453"/>
     <use xlink:href="#DejaVuSans-34" x="1114.0625"/>
     <use xlink:href="#DejaVuSans-2c" x="1177.685547"/>
     <use xlink:href="#DejaVuSans-20" x="1209.472656"/>
     <use xlink:href="#DejaVuSans-66" x="1241.259766"/>
     <use xlink:href="#DejaVuSans-34" x="1276.464844"/>
     <use xlink:href="#DejaVuSans-35" x="1340.087891"/>
     <use xlink:href="#DejaVuSans-2c" x="1403.710938"/>
     <use xlink:href="#DejaVuSans-20" x="1435.498047"/>
     <use xlink:href="#DejaVuSans-31" x="1467.285156"/>
     <use xlink:href="#DejaVuSans-30" x="1530.908203"/>
     <use xlink:href="#DejaVuSans-2d" x="1594.53125"/>
     <use xlink:href="#DejaVuSans-44" x="1630.615234"/>
    </g>
    <!-- 58 targets: 1..-1.0e-4 -->
    <g transform="translate(60.632064 29.004495) scale(0.102 -0.102)">
     <defs>
      <path id="DejaVuSans-3a" d="M 750 794 
L 1409 794 
L 1409 0 
L 750 0 
L 750 794 
z
M 750 3309 
L 1409 3309 
L 1409 2516 
L 750 2516 
L 750 3309 
z
" transform="scale(0.015625)"/>
     </defs>
     <use xlink:href="#DejaVuSans-35"/>
     <use xlink:href="#DejaVuSans-38" x="63.623047"/>
     <use xlink:href="#DejaVuSans-20" x="127.246094"/>
     <use xlink:href="#DejaVuSans-74" x="159.033203"/>
     <use xlink:href="#DejaVuSans-61" x="198.242188"/>
     <use xlink:href="#DejaVuSans-72" x="259.521484"/>
     <use xlink:href="#DejaVuSans-67" x="298.884766"/>
     <use xlink:href="#DejaVuSans-65" x="362.361328"/>
     <use xlink:href="#DejaVuSans-74" x="423.884766"/>
     <use xlink:href="#DejaVuSans-73" x="463.09375"/>
     <use xlink:href="#DejaVuSans-3a" x="515.193359"/>
     <use xlink:href="#DejaVuSans-20" x="548.884766"/>
     <use xlink:href="#DejaVuSans-31" x="580.671875"/>
     <use xlink:href="#DejaVuSans-2e" x="644.294922"/>
     <use xlink:href="#DejaVuSans-2e" x="676.082031"/>
     <use xlink:href="#DejaVuSans-2d" x="707.869141"/>
     <use xlink:href="#DejaVuSans-31" x="743.953125"/>
     <use xlink:href="#DejaVuSans-2e" x="807.576172"/>
     <use xlink:href="#DejaVuSans-30" x="839.363281"/>
     <use xlink:href="#DejaVuSans-65" x="902.986328"/>
     <use xlink:href="#DejaVuSans-2d" x="964.509766"/>
     <use xlink:href="#DejaVuSans-34" x="1000.59375"/>
    </g>
    <!-- 10 instances -->
    <g transform="translate(60.632064 40.426264) scale(0.102 -0.102)">
     <use xlink:href="#DejaVuSans-31"/>
     <use xlink:href="#DejaVuSans-30" x="63.623047"/>
     <use xlink:href="#DejaVuSans-20" x="127.246094"/>
     <use xlink:href="#DejaVuSans-69" x="159.033203"/>
     <use xlink:href="#DejaVuSans-6e" x="186.816406"/>
     <use xlink:href="#DejaVuSans-73" x="250.195312"/>
     <use xlink:href="#DejaVuSans-74" x="302.294922"/>
     <use xlink:href="#DejaVuSans-61" x="341.503906"/>
     <use xlink:href="#DejaVuSans-6e" x="402.783203"/>
     <use xlink:href="#DejaVuSans-63" x="466.162109"/>
     <use xlink:href="#DejaVuSans-65" x="521.142578"/>
     <use xlink:href="#DejaVuSans-73" x="582.666016"/>
    </g>
   </g>
   <g id="text_17">
    <!-- v2.6, hv-hash=ff0e71e8cd978373 -->
    <g style="fill: #808080" transform="translate(123.707887 293.943992) scale(0.1 -0.1)">
     <defs>
      <path id="DejaVuSans-68" d="M 3513 2113 
L 3513 0 
L 2938 0 
L 2938 2094 
Q 2938 2591 2744 2837 
Q 2550 3084 2163 3084 
Q 1697 3084 1428 2787 
Q 1159 2491 1159 1978 
L 1159 0 
L 581 0 
L 581 4863 
L 1159 4863 
L 1159 2956 
Q 1366 3272 1645 3428 
Q 1925 3584 2291 3584 
Q 2894 3584 3203 3211 
Q 3513 2838 3513 2113 
z
" transform="scale(0.015625)"/>
      <path id="DejaVuSans-3d" d="M 678 2906 
L 4684 2906 
L 4684 2381 
L 678 2381 
L 678 2906 
z
M 678 1631 
L 4684 1631 
L 4684 1100 
L 678 1100 
L 678 1631 
z
" transform="scale(0.015625)"/>
      <path id="DejaVuSans-37" d="M 525 4666 
L 3525 4666 
L 3525 4397 
L 1831 0 
L 1172 0 
L 2766 4134 
L 525 4134 
L 525 4666 
z
" transform="scale(0.015625)"/>
     </defs>
     <use xlink:href="#DejaVuSans-76"/>
     <use xlink:href="#DejaVuSans-32" x="59.179688"/>
     <use xlink:href="#DejaVuSans-2e" x="122.802734"/>
     <use xlink:href="#DejaVuSans-36" x="154.589844"/>
     <use xlink:href="#DejaVuSans-2c" x="218.212891"/>
     <use xlink:href="#DejaVuSans-20" x="250"/>
     <use xlink:href="#DejaVuSans-68" x="281.787109"/>
     <use xlink:href="#DejaVuSans-76" x="345.166016"/>
     <use xlink:href="#DejaVuSans-2d" x="401.720703"/>
     <use xlink:href="#DejaVuSans-68" x="437.804688"/>
     <use xlink:href="#DejaVuSans-61" x="501.183594"/>
     <use xlink:href="#DejaVuSans-73" x="562.462891"/>
     <use xlink:href="#DejaVuSans-68" x="614.5625"/>
     <use xlink:href="#DejaVuSans-3d" x="677.941406"/>
     <use xlink:href="#DejaVuSans-66" x="761.730469"/>
     <use xlink:href="#DejaVuSans-66" x="796.935547"/>
     <use xlink:href="#DejaVuSans-30" x="832.140625"/>
     <use xlink:href="#DejaVuSans-65" x="895.763672"/>
     <use xlink:href="#DejaVuSans-37" x="957.287109"/>
     <use xlink:href="#DejaVuSans-31" x="1020.910156"/>
     <use xlink:href="#DejaVuSans-65" x="1084.533203"/>
     <use xlink:href="#DejaVuSans-38" x="1146.056641"/>
     <use xlink:href="#DejaVuSans-63" x="1209.679688"/>
     <use xlink:href="#DejaVuSans-64" x="1264.660156"/>
     <use xlink:href="#DejaVuSans-39" x="1328.136719"/>
     <use xlink:href="#DejaVuSans-37" x="1391.759766"/>
     <use xlink:href="#DejaVuSans-38" x="1455.382812"/>
     <use xlink:href="#DejaVuSans-33" x="1519.005859"/>
     <use xlink:href="#DejaVuSans-37" x="1582.628906"/>
     <use xlink:href="#DejaVuSans-33" x="1646.251953"/>
    </g>
   </g>
  </g>
 </g>
 <defs>
  <clipPath id="p8d35a14a4f">
   <rect x="57.6" y="6.912" width="303.2064" height="292.032"/>
  </clipPath>
 </defs>
</svg>
