<?xml version="1.0" encoding="utf-8" standalone="no"?>
<!DOCTYPE svg PUBLIC "-//W3C//DTD SVG 1.1//EN"
  "http://www.w3.org/Graphics/SVG/1.1/DTD/svg11.dtd">
<svg xmlns:xlink="http://www.w3.org/1999/xlink" width="460.8pt" height="345.6pt" viewBox="0 0 460.8 345.6" xmlns="http://www.w3.org/2000/svg" version="1.1">
 <metadata>
  <rdf:RDF xmlns:dc="http://purl.org/dc/elements/1.1/" xmlns:cc="http://creativecommons.org/ns#" xmlns:rdf="http://www.w3.org/1999/02/22-rdf-syntax-ns#">
   <cc:Work>
    <dc:type rdf:resource="http://purl.org/dc/dcmitype/StillImage"/>
    <dc:date>2023-02-10T20:10:32.436931</dc:date>
    <dc:format>image/svg+xml</dc:format>
    <dc:creator>
     <cc:Agent>
      <dc:title>Matplotlib v3.6.3, https://matplotlib.org/</dc:title>
     </cc:Agent>
    </dc:creator>
   </cc:Work>
  </rdf:RDF>
 </metadata>
 <defs>
  <style type="text/css">*{stroke-linejoin: round; stroke-linecap: butt}</style>
 </defs>
 <g id="figure_1">
  <g id="patch_1">
   <path d="M 0 345.6 
L 460.8 345.6 
L 460.8 0 
L 0 0 
z
" style="fill: #ffffff"/>
  </g>
  <g id="axes_1">
   <g id="patch_2">
    <path d="M 57.6 298.944 
L 360.8064 298.944 
L 360.8064 6.912 
L 57.6 6.912 
z
" style="fill: #ffffff"/>
   </g>
   <g id="line2d_1">
    <path d="M 27.323974 298.944 
L 27.323974 295.167724 
L 50.890391 295.167724 
L 50.890391 293.908966 
L 53.402323 293.908966 
L 53.402323 291.391448 
L 55.618005 291.391448 
L 55.618005 288.873931 
L 59.392932 288.873931 
L 59.392932 286.356414 
L 85.471281 286.356414 
L 85.471281 283.838897 
L 87.876026 283.838897 
L 87.876026 281.321379 
L 106.279859 281.321379 
L 106.279859 278.803862 
L 127.087372 278.803862 
L 127.087372 276.286345 
L 146.843174 276.286345 
L 146.843174 273.768828 
L 149.136916 273.768828 
L 149.136916 272.510069 
L 153.877408 272.510069 
L 153.877408 271.25131 
L 163.518345 271.25131 
L 163.518345 269.992552 
L 166.724107 269.992552 
L 166.724107 268.733793 
L 172.33959 268.733793 
L 172.33959 264.957517 
L 172.666028 264.957517 
L 172.666028 261.181241 
L 173.027642 261.181241 
L 173.027642 257.404966 
L 178.877868 257.404966 
L 178.877868 253.62869 
L 179.067766 253.62869 
L 179.067766 251.111172 
L 183.008625 251.111172 
L 183.008625 248.593655 
L 191.920025 248.593655 
L 191.920025 246.076138 
L 192.462258 246.076138 
L 192.462258 243.558621 
L 192.78253 243.558621 
L 192.78253 242.299862 
L 202.457061 242.299862 
L 202.457061 241.041103 
L 203.521369 241.041103 
L 203.521369 239.782345 
L 212.188359 239.782345 
L 212.188359 238.523586 
L 215.127361 238.523586 
L 215.127361 236.006069 
L 223.534936 236.006069 
L 223.534936 233.488552 
L 227.488224 233.488552 
L 227.488224 230.971034 
L 228.156981 230.971034 
L 228.156981 227.194759 
L 229.261976 227.194759 
L 229.261976 224.677241 
L 229.761755 224.677241 
L 229.761755 220.900966 
L 233.125578 220.900966 
L 233.125578 217.12469 
L 237.029919 217.12469 
L 237.029919 213.348414 
L 241.77773 213.348414 
L 241.77773 210.830897 
L 243.357122 210.830897 
L 243.357122 208.313379 
L 246.973022 208.313379 
L 246.973022 205.795862 
L 253.040538 205.795862 
L 253.040538 203.278345 
L 259.213431 203.278345 
L 259.213431 200.760828 
L 260.558681 200.760828 
L 260.558681 198.24331 
L 263.958263 198.24331 
L 263.958263 195.725793 
L 268.01239 195.725793 
L 268.01239 193.208276 
L 271.96195 193.208276 
L 271.96195 190.690759 
L 275.283253 190.690759 
L 275.283253 188.173241 
L 275.705583 188.173241 
L 275.705583 185.655724 
L 280.285858 185.655724 
L 280.326503 181.879448 
L 287.680865 181.879448 
L 287.680865 180.62069 
L 292.321172 180.62069 
L 292.321172 179.361931 
L 293.698858 179.361931 
L 293.698858 175.585655 
L 293.831277 175.585655 
L 293.831277 171.809379 
L 294.764838 171.809379 
L 294.764838 170.550621 
L 299.722549 170.550621 
L 299.722549 166.774345 
L 306.553563 166.774345 
L 306.553563 165.515586 
L 307.968411 165.515586 
L 307.973541 160.480552 
L 309.626424 160.480552 
L 309.626424 159.221793 
L 314.165381 159.221793 
L 314.165381 155.445517 
L 315.960744 155.445517 
L 315.960744 151.669241 
L 324.812542 151.669241 
L 324.812542 147.892966 
L 326.292316 147.892966 
L 326.292316 145.375448 
L 329.451955 145.375448 
L 329.457247 141.599172 
L 335.540206 141.599172 
L 335.540206 137.822897 
L 339.90644 137.822897 
L 339.90644 135.305379 
L 340.190739 135.305379 
L 340.190739 134.046621 
L 341.180626 134.046621 
L 341.180626 132.787862 
L 349.15659 132.787862 
L 349.15659 129.011586 
L 349.465757 129.011586 
L 349.465757 125.23531 
L 349.867423 125.23531 
L 349.867423 123.976552 
L 350.002738 123.976552 
L 350.002738 121.459034 
L 360.8064 121.459034 
L 360.8064 121.459034 
" style="fill: none; stroke: #f5deb3; stroke-width: 4; stroke-linecap: square"/>
   </g>
   <g id="line2d_2">
    <defs>
     <path id="m277f04828e" d="M -0 7.778175 
L 7.778175 0 
L 0 -7.778175 
L -7.778175 -0 
z
" style="stroke: #f5deb3; stroke-width: 1.5; stroke-linejoin: miter"/>
    </defs>
    <g>
     <use xlink:href="#m277f04828e" x="153.877408" y="272.510069" style="fill: #f5deb3; stroke: #f5deb3; stroke-width: 1.5; stroke-linejoin: miter"/>
     <use xlink:href="#m277f04828e" x="223.534936" y="233.488552" style="fill: #f5deb3; stroke: #f5deb3; stroke-width: 1.5; stroke-linejoin: miter"/>
     <use xlink:href="#m277f04828e" x="306.553563" y="166.774345" style="fill: #f5deb3; stroke: #f5deb3; stroke-width: 1.5; stroke-linejoin: miter"/>
     <use xlink:href="#m277f04828e" x="350.002738" y="121.459034" style="fill: #f5deb3; stroke: #f5deb3; stroke-width: 1.5; stroke-linejoin: miter"/>
     <use xlink:href="#m277f04828e" x="350.002738" y="121.459034" style="fill: #f5deb3; stroke: #f5deb3; stroke-width: 1.5; stroke-linejoin: miter"/>
     <use xlink:href="#m277f04828e" x="360.8064" y="121.459034" style="fill: #f5deb3; stroke: #f5deb3; stroke-width: 1.5; stroke-linejoin: miter"/>
    </g>
   </g>
   <g id="line2d_3">
    <path style="fill: none; stroke: #f5deb3; stroke-width: 4; stroke-linecap: square"/>
    <g/>
   </g>
   <g id="line2d_4">
    <path d="M 360.8064 121.459034 
L 380.514816 12.75264 
" style="fill: none; stroke: #f5deb3; stroke-width: 4; stroke-linecap: square"/>
    <g>
     <use xlink:href="#m277f04828e" x="360.8064" y="121.459034" style="fill: #f5deb3; stroke: #f5deb3; stroke-width: 1.5; stroke-linejoin: miter"/>
     <use xlink:href="#m277f04828e" x="380.514816" y="12.75264" style="fill: #f5deb3; stroke: #f5deb3; stroke-width: 1.5; stroke-linejoin: miter"/>
    </g>
   </g>
   <g id="matplotlib.axis_1">
    <g id="xtick_1">
     <g id="line2d_5">
      <path d="M 57.6 298.944 
L 57.6 6.912 
" clip-path="url(#pbc306d10dc)" style="fill: none; stroke: #b0b0b0; stroke-width: 0.8; stroke-linecap: square"/>
     </g>
     <g id="line2d_6">
      <defs>
       <path id="ma57f03d29e" d="M 0 0 
L 0 3.5 
" style="stroke: #000000; stroke-width: 0.8"/>
      </defs>
      <g>
       <use xlink:href="#ma57f03d29e" x="57.6" y="298.944" style="stroke: #000000; stroke-width: 0.8"/>
      </g>
     </g>
     <g id="text_1">
      <!-- 0 -->
      <g transform="translate(52.191875 318.861344) scale(0.17 -0.17)">
       <defs>
        <path id="DejaVuSans-30" d="M 2034 4250 
Q 1547 4250 1301 3770 
Q 1056 3291 1056 2328 
Q 1056 1369 1301 889 
Q 1547 409 2034 409 
Q 2525 409 2770 889 
Q 3016 1369 3016 2328 
Q 3016 3291 2770 3770 
Q 2525 4250 2034 4250 
z
M 2034 4750 
Q 2819 4750 3233 4129 
Q 3647 3509 3647 2328 
Q 3647 1150 3233 529 
Q 2819 -91 2034 -91 
Q 1250 -91 836 529 
Q 422 1150 422 2328 
Q 422 3509 836 4129 
Q 1250 4750 2034 4750 
z
" transform="scale(0.015625)"/>
       </defs>
       <use xlink:href="#DejaVuSans-30"/>
      </g>
     </g>
    </g>
    <g id="xtick_2">
     <g id="line2d_7">
      <path d="M 144.2304 298.944 
L 144.2304 6.912 
" clip-path="url(#pbc306d10dc)" style="fill: none; stroke: #b0b0b0; stroke-width: 0.8; stroke-linecap: square"/>
     </g>
     <g id="line2d_8">
      <g>
       <use xlink:href="#ma57f03d29e" x="144.2304" y="298.944" style="stroke: #000000; stroke-width: 0.8"/>
      </g>
     </g>
     <g id="text_2">
      <!-- 2 -->
      <g transform="translate(138.822275 318.861344) scale(0.17 -0.17)">
       <defs>
        <path id="DejaVuSans-32" d="M 1228 531 
L 3431 531 
L 3431 0 
L 469 0 
L 469 531 
Q 828 903 1448 1529 
Q 2069 2156 2228 2338 
Q 2531 2678 2651 2914 
Q 2772 3150 2772 3378 
Q 2772 3750 2511 3984 
Q 2250 4219 1831 4219 
Q 1534 4219 1204 4116 
Q 875 4013 500 3803 
L 500 4441 
Q 881 4594 1212 4672 
Q 1544 4750 1819 4750 
Q 2544 4750 2975 4387 
Q 3406 4025 3406 3419 
Q 3406 3131 3298 2873 
Q 3191 2616 2906 2266 
Q 2828 2175 2409 1742 
Q 1991 1309 1228 531 
z
" transform="scale(0.015625)"/>
       </defs>
       <use xlink:href="#DejaVuSans-32"/>
      </g>
     </g>
    </g>
    <g id="xtick_3">
     <g id="line2d_9">
      <path d="M 230.8608 298.944 
L 230.8608 6.912 
" clip-path="url(#pbc306d10dc)" style="fill: none; stroke: #b0b0b0; stroke-width: 0.8; stroke-linecap: square"/>
     </g>
     <g id="line2d_10">
      <g>
       <use xlink:href="#ma57f03d29e" x="230.8608" y="298.944" style="stroke: #000000; stroke-width: 0.8"/>
      </g>
     </g>
     <g id="text_3">
      <!-- 4 -->
      <g transform="translate(225.452675 318.861344) scale(0.17 -0.17)">
       <defs>
        <path id="DejaVuSans-34" d="M 2419 4116 
L 825 1625 
L 2419 1625 
L 2419 4116 
z
M 2253 4666 
L 3047 4666 
L 3047 1625 
L 3713 1625 
L 3713 1100 
L 3047 1100 
L 3047 0 
L 2419 0 
L 2419 1100 
L 313 1100 
L 313 1709 
L 2253 4666 
z
" transform="scale(0.015625)"/>
       </defs>
       <use xlink:href="#DejaVuSans-34"/>
      </g>
     </g>
    </g>
    <g id="xtick_4">
     <g id="line2d_11">
      <path d="M 317.4912 298.944 
L 317.4912 6.912 
" clip-path="url(#pbc306d10dc)" style="fill: none; stroke: #b0b0b0; stroke-width: 0.8; stroke-linecap: square"/>
     </g>
     <g id="line2d_12">
      <g>
       <use xlink:href="#ma57f03d29e" x="317.4912" y="298.944" style="stroke: #000000; stroke-width: 0.8"/>
      </g>
     </g>
     <g id="text_4">
      <!-- 6 -->
      <g transform="translate(312.083075 318.861344) scale(0.17 -0.17)">
       <defs>
        <path id="DejaVuSans-36" d="M 2113 2584 
Q 1688 2584 1439 2293 
Q 1191 2003 1191 1497 
Q 1191 994 1439 701 
Q 1688 409 2113 409 
Q 2538 409 2786 701 
Q 3034 994 3034 1497 
Q 3034 2003 2786 2293 
Q 2538 2584 2113 2584 
z
M 3366 4563 
L 3366 3988 
Q 3128 4100 2886 4159 
Q 2644 4219 2406 4219 
Q 1781 4219 1451 3797 
Q 1122 3375 1075 2522 
Q 1259 2794 1537 2939 
Q 1816 3084 2150 3084 
Q 2853 3084 3261 2657 
Q 3669 2231 3669 1497 
Q 3669 778 3244 343 
Q 2819 -91 2113 -91 
Q 1303 -91 875 529 
Q 447 1150 447 2328 
Q 447 3434 972 4092 
Q 1497 4750 2381 4750 
Q 2619 4750 2861 4703 
Q 3103 4656 3366 4563 
z
" transform="scale(0.015625)"/>
       </defs>
       <use xlink:href="#DejaVuSans-36"/>
      </g>
     </g>
    </g>
    <g id="xtick_5">
     <g id="line2d_13">
      <path d="M 100.9152 298.944 
L 100.9152 6.912 
" clip-path="url(#pbc306d10dc)" style="fill: none; stroke: #b0b0b0; stroke-width: 0.8; stroke-linecap: square"/>
     </g>
     <g id="line2d_14">
      <defs>
       <path id="m7c9ee2c48c" d="M 0 0 
L 0 2 
" style="stroke: #000000; stroke-width: 0.6"/>
      </defs>
      <g>
       <use xlink:href="#m7c9ee2c48c" x="100.9152" y="298.944" style="stroke: #000000; stroke-width: 0.6"/>
      </g>
     </g>
    </g>
    <g id="xtick_6">
     <g id="line2d_15">
      <path d="M 187.5456 298.944 
L 187.5456 6.912 
" clip-path="url(#pbc306d10dc)" style="fill: none; stroke: #b0b0b0; stroke-width: 0.8; stroke-linecap: square"/>
     </g>
     <g id="line2d_16">
      <g>
       <use xlink:href="#m7c9ee2c48c" x="187.5456" y="298.944" style="stroke: #000000; stroke-width: 0.6"/>
      </g>
     </g>
    </g>
    <g id="xtick_7">
     <g id="line2d_17">
      <path d="M 274.176 298.944 
L 274.176 6.912 
" clip-path="url(#pbc306d10dc)" style="fill: none; stroke: #b0b0b0; stroke-width: 0.8; stroke-linecap: square"/>
     </g>
     <g id="line2d_18">
      <g>
       <use xlink:href="#m7c9ee2c48c" x="274.176" y="298.944" style="stroke: #000000; stroke-width: 0.6"/>
      </g>
     </g>
    </g>
    <g id="xtick_8">
     <g id="line2d_19">
      <path d="M 360.8064 298.944 
L 360.8064 6.912 
" clip-path="url(#pbc306d10dc)" style="fill: none; stroke: #b0b0b0; stroke-width: 0.8; stroke-linecap: square"/>
     </g>
     <g id="line2d_20">
      <g>
       <use xlink:href="#m7c9ee2c48c" x="360.8064" y="298.944" style="stroke: #000000; stroke-width: 0.6"/>
      </g>
     </g>
    </g>
    <g id="text_5">
     <!-- log10(# f-evals / dimension) -->
     <g transform="translate(88.823278 339.314156) scale(0.17 -0.17)">
      <defs>
       <path id="DejaVuSans-6c" d="M 603 4863 
L 1178 4863 
L 1178 0 
L 603 0 
L 603 4863 
z
" transform="scale(0.015625)"/>
       <path id="DejaVuSans-6f" d="M 1959 3097 
Q 1497 3097 1228 2736 
Q 959 2375 959 1747 
Q 959 1119 1226 758 
Q 1494 397 1959 397 
Q 2419 397 2687 759 
Q 2956 1122 2956 1747 
Q 2956 2369 2687 2733 
Q 2419 3097 1959 3097 
z
M 1959 3584 
Q 2709 3584 3137 3096 
Q 3566 2609 3566 1747 
Q 3566 888 3137 398 
Q 2709 -91 1959 -91 
Q 1206 -91 779 398 
Q 353 888 353 1747 
Q 353 2609 779 3096 
Q 1206 3584 1959 3584 
z
" transform="scale(0.015625)"/>
       <path id="DejaVuSans-67" d="M 2906 1791 
Q 2906 2416 2648 2759 
Q 2391 3103 1925 3103 
Q 1463 3103 1205 2759 
Q 947 2416 947 1791 
Q 947 1169 1205 825 
Q 1463 481 1925 481 
Q 2391 481 2648 825 
Q 2906 1169 2906 1791 
z
M 3481 434 
Q 3481 -459 3084 -895 
Q 2688 -1331 1869 -1331 
Q 1566 -1331 1297 -1286 
Q 1028 -1241 775 -1147 
L 775 -588 
Q 1028 -725 1275 -790 
Q 1522 -856 1778 -856 
Q 2344 -856 2625 -561 
Q 2906 -266 2906 331 
L 2906 616 
Q 2728 306 2450 153 
Q 2172 0 1784 0 
Q 1141 0 747 490 
Q 353 981 353 1791 
Q 353 2603 747 3093 
Q 1141 3584 1784 3584 
Q 2172 3584 2450 3431 
Q 2728 3278 2906 2969 
L 2906 3500 
L 3481 3500 
L 3481 434 
z
" transform="scale(0.015625)"/>
       <path id="DejaVuSans-31" d="M 794 531 
L 1825 531 
L 1825 4091 
L 703 3866 
L 703 4441 
L 1819 4666 
L 2450 4666 
L 2450 531 
L 3481 531 
L 3481 0 
L 794 0 
L 794 531 
z
" transform="scale(0.015625)"/>
       <path id="DejaVuSans-28" d="M 1984 4856 
Q 1566 4138 1362 3434 
Q 1159 2731 1159 2009 
Q 1159 1288 1364 580 
Q 1569 -128 1984 -844 
L 1484 -844 
Q 1016 -109 783 600 
Q 550 1309 550 2009 
Q 550 2706 781 3412 
Q 1013 4119 1484 4856 
L 1984 4856 
z
" transform="scale(0.015625)"/>
       <path id="DejaVuSans-23" d="M 3272 2816 
L 2363 2816 
L 2100 1772 
L 3016 1772 
L 3272 2816 
z
M 2803 4594 
L 2478 3297 
L 3391 3297 
L 3719 4594 
L 4219 4594 
L 3897 3297 
L 4872 3297 
L 4872 2816 
L 3775 2816 
L 3519 1772 
L 4513 1772 
L 4513 1294 
L 3397 1294 
L 3072 0 
L 2572 0 
L 2894 1294 
L 1978 1294 
L 1656 0 
L 1153 0 
L 1478 1294 
L 494 1294 
L 494 1772 
L 1594 1772 
L 1856 2816 
L 850 2816 
L 850 3297 
L 1978 3297 
L 2297 4594 
L 2803 4594 
z
" transform="scale(0.015625)"/>
       <path id="DejaVuSans-20" transform="scale(0.015625)"/>
       <path id="DejaVuSans-66" d="M 2375 4863 
L 2375 4384 
L 1825 4384 
Q 1516 4384 1395 4259 
Q 1275 4134 1275 3809 
L 1275 3500 
L 2222 3500 
L 2222 3053 
L 1275 3053 
L 1275 0 
L 697 0 
L 697 3053 
L 147 3053 
L 147 3500 
L 697 3500 
L 697 3744 
Q 697 4328 969 4595 
Q 1241 4863 1831 4863 
L 2375 4863 
z
" transform="scale(0.015625)"/>
       <path id="DejaVuSans-2d" d="M 313 2009 
L 1997 2009 
L 1997 1497 
L 313 1497 
L 313 2009 
z
" transform="scale(0.015625)"/>
       <path id="DejaVuSans-65" d="M 3597 1894 
L 3597 1613 
L 953 1613 
Q 991 1019 1311 708 
Q 1631 397 2203 397 
Q 2534 397 2845 478 
Q 3156 559 3463 722 
L 3463 178 
Q 3153 47 2828 -22 
Q 2503 -91 2169 -91 
Q 1331 -91 842 396 
Q 353 884 353 1716 
Q 353 2575 817 3079 
Q 1281 3584 2069 3584 
Q 2775 3584 3186 3129 
Q 3597 2675 3597 1894 
z
M 3022 2063 
Q 3016 2534 2758 2815 
Q 2500 3097 2075 3097 
Q 1594 3097 1305 2825 
Q 1016 2553 972 2059 
L 3022 2063 
z
" transform="scale(0.015625)"/>
       <path id="DejaVuSans-76" d="M 191 3500 
L 800 3500 
L 1894 563 
L 2988 3500 
L 3597 3500 
L 2284 0 
L 1503 0 
L 191 3500 
z
" transform="scale(0.015625)"/>
       <path id="DejaVuSans-61" d="M 2194 1759 
Q 1497 1759 1228 1600 
Q 959 1441 959 1056 
Q 959 750 1161 570 
Q 1363 391 1709 391 
Q 2188 391 2477 730 
Q 2766 1069 2766 1631 
L 2766 1759 
L 2194 1759 
z
M 3341 1997 
L 3341 0 
L 2766 0 
L 2766 531 
Q 2569 213 2275 61 
Q 1981 -91 1556 -91 
Q 1019 -91 701 211 
Q 384 513 384 1019 
Q 384 1609 779 1909 
Q 1175 2209 1959 2209 
L 2766 2209 
L 2766 2266 
Q 2766 2663 2505 2880 
Q 2244 3097 1772 3097 
Q 1472 3097 1187 3025 
Q 903 2953 641 2809 
L 641 3341 
Q 956 3463 1253 3523 
Q 1550 3584 1831 3584 
Q 2591 3584 2966 3190 
Q 3341 2797 3341 1997 
z
" transform="scale(0.015625)"/>
       <path id="DejaVuSans-73" d="M 2834 3397 
L 2834 2853 
Q 2591 2978 2328 3040 
Q 2066 3103 1784 3103 
Q 1356 3103 1142 2972 
Q 928 2841 928 2578 
Q 928 2378 1081 2264 
Q 1234 2150 1697 2047 
L 1894 2003 
Q 2506 1872 2764 1633 
Q 3022 1394 3022 966 
Q 3022 478 2636 193 
Q 2250 -91 1575 -91 
Q 1294 -91 989 -36 
Q 684 19 347 128 
L 347 722 
Q 666 556 975 473 
Q 1284 391 1588 391 
Q 1994 391 2212 530 
Q 2431 669 2431 922 
Q 2431 1156 2273 1281 
Q 2116 1406 1581 1522 
L 1381 1569 
Q 847 1681 609 1914 
Q 372 2147 372 2553 
Q 372 3047 722 3315 
Q 1072 3584 1716 3584 
Q 2034 3584 2315 3537 
Q 2597 3491 2834 3397 
z
" transform="scale(0.015625)"/>
       <path id="DejaVuSans-2f" d="M 1625 4666 
L 2156 4666 
L 531 -594 
L 0 -594 
L 1625 4666 
z
" transform="scale(0.015625)"/>
       <path id="DejaVuSans-64" d="M 2906 2969 
L 2906 4863 
L 3481 4863 
L 3481 0 
L 2906 0 
L 2906 525 
Q 2725 213 2448 61 
Q 2172 -91 1784 -91 
Q 1150 -91 751 415 
Q 353 922 353 1747 
Q 353 2572 751 3078 
Q 1150 3584 1784 3584 
Q 2172 3584 2448 3432 
Q 2725 3281 2906 2969 
z
M 947 1747 
Q 947 1113 1208 752 
Q 1469 391 1925 391 
Q 2381 391 2643 752 
Q 2906 1113 2906 1747 
Q 2906 2381 2643 2742 
Q 2381 3103 1925 3103 
Q 1469 3103 1208 2742 
Q 947 2381 947 1747 
z
" transform="scale(0.015625)"/>
       <path id="DejaVuSans-69" d="M 603 3500 
L 1178 3500 
L 1178 0 
L 603 0 
L 603 3500 
z
M 603 4863 
L 1178 4863 
L 1178 4134 
L 603 4134 
L 603 4863 
z
" transform="scale(0.015625)"/>
       <path id="DejaVuSans-6d" d="M 3328 2828 
Q 3544 3216 3844 3400 
Q 4144 3584 4550 3584 
Q 5097 3584 5394 3201 
Q 5691 2819 5691 2113 
L 5691 0 
L 5113 0 
L 5113 2094 
Q 5113 2597 4934 2840 
Q 4756 3084 4391 3084 
Q 3944 3084 3684 2787 
Q 3425 2491 3425 1978 
L 3425 0 
L 2847 0 
L 2847 2094 
Q 2847 2600 2669 2842 
Q 2491 3084 2119 3084 
Q 1678 3084 1418 2786 
Q 1159 2488 1159 1978 
L 1159 0 
L 581 0 
L 581 3500 
L 1159 3500 
L 1159 2956 
Q 1356 3278 1631 3431 
Q 1906 3584 2284 3584 
Q 2666 3584 2933 3390 
Q 3200 3197 3328 2828 
z
" transform="scale(0.015625)"/>
       <path id="DejaVuSans-6e" d="M 3513 2113 
L 3513 0 
L 2938 0 
L 2938 2094 
Q 2938 2591 2744 2837 
Q 2550 3084 2163 3084 
Q 1697 3084 1428 2787 
Q 1159 2491 1159 1978 
L 1159 0 
L 581 0 
L 581 3500 
L 1159 3500 
L 1159 2956 
Q 1366 3272 1645 3428 
Q 1925 3584 2291 3584 
Q 2894 3584 3203 3211 
Q 3513 2838 3513 2113 
z
" transform="scale(0.015625)"/>
       <path id="DejaVuSans-29" d="M 513 4856 
L 1013 4856 
Q 1481 4119 1714 3412 
Q 1947 2706 1947 2009 
Q 1947 1309 1714 600 
Q 1481 -109 1013 -844 
L 513 -844 
Q 928 -128 1133 580 
Q 1338 1288 1338 2009 
Q 1338 2731 1133 3434 
Q 928 4138 513 4856 
z
" transform="scale(0.015625)"/>
      </defs>
      <use xlink:href="#DejaVuSans-6c"/>
      <use xlink:href="#DejaVuSans-6f" x="27.783203"/>
      <use xlink:href="#DejaVuSans-67" x="88.964844"/>
      <use xlink:href="#DejaVuSans-31" x="152.441406"/>
      <use xlink:href="#DejaVuSans-30" x="216.064453"/>
      <use xlink:href="#DejaVuSans-28" x="279.6875"/>
      <use xlink:href="#DejaVuSans-23" x="318.701172"/>
      <use xlink:href="#DejaVuSans-20" x="402.490234"/>
      <use xlink:href="#DejaVuSans-66" x="434.277344"/>
      <use xlink:href="#DejaVuSans-2d" x="463.982422"/>
      <use xlink:href="#DejaVuSans-65" x="500.066406"/>
      <use xlink:href="#DejaVuSans-76" x="561.589844"/>
      <use xlink:href="#DejaVuSans-61" x="620.769531"/>
      <use xlink:href="#DejaVuSans-6c" x="682.048828"/>
      <use xlink:href="#DejaVuSans-73" x="709.832031"/>
      <use xlink:href="#DejaVuSans-20" x="761.931641"/>
      <use xlink:href="#DejaVuSans-2f" x="793.71875"/>
      <use xlink:href="#DejaVuSans-20" x="827.410156"/>
      <use xlink:href="#DejaVuSans-64" x="859.197266"/>
      <use xlink:href="#DejaVuSans-69" x="922.673828"/>
      <use xlink:href="#DejaVuSans-6d" x="950.457031"/>
      <use xlink:href="#DejaVuSans-65" x="1047.869141"/>
      <use xlink:href="#DejaVuSans-6e" x="1109.392578"/>
      <use xlink:href="#DejaVuSans-73" x="1172.771484"/>
      <use xlink:href="#DejaVuSans-69" x="1224.871094"/>
      <use xlink:href="#DejaVuSans-6f" x="1252.654297"/>
      <use xlink:href="#DejaVuSans-6e" x="1313.835938"/>
      <use xlink:href="#DejaVuSans-29" x="1377.214844"/>
     </g>
    </g>
   </g>
   <g id="matplotlib.axis_2">
    <g id="ytick_1">
     <g id="line2d_21">
      <path d="M 57.6 298.944 
L 360.8064 298.944 
" clip-path="url(#pbc306d10dc)" style="fill: none; stroke: #b0b0b0; stroke-width: 0.8; stroke-linecap: square"/>
     </g>
     <g id="line2d_22">
      <defs>
       <path id="ma2f2f8f4fd" d="M 0 0 
L -3.5 0 
" style="stroke: #000000; stroke-width: 0.8"/>
      </defs>
      <g>
       <use xlink:href="#ma2f2f8f4fd" x="57.6" y="298.944" style="stroke: #000000; stroke-width: 0.8"/>
      </g>
     </g>
     <g id="text_6">
      <!-- 0.0 -->
      <g transform="translate(25.155 305.02275) scale(0.16 -0.16)">
       <defs>
        <path id="DejaVuSans-2e" d="M 684 794 
L 1344 794 
L 1344 0 
L 684 0 
L 684 794 
z
" transform="scale(0.015625)"/>
       </defs>
       <use xlink:href="#DejaVuSans-30"/>
       <use xlink:href="#DejaVuSans-2e" x="63.623047"/>
       <use xlink:href="#DejaVuSans-30" x="95.410156"/>
      </g>
     </g>
    </g>
    <g id="ytick_2">
     <g id="line2d_23">
      <path d="M 57.6 240.5376 
L 360.8064 240.5376 
" clip-path="url(#pbc306d10dc)" style="fill: none; stroke: #b0b0b0; stroke-width: 0.8; stroke-linecap: square"/>
     </g>
     <g id="line2d_24">
      <g>
       <use xlink:href="#ma2f2f8f4fd" x="57.6" y="240.5376" style="stroke: #000000; stroke-width: 0.8"/>
      </g>
     </g>
     <g id="text_7">
      <!-- 0.2 -->
      <g transform="translate(25.155 246.61635) scale(0.16 -0.16)">
       <use xlink:href="#DejaVuSans-30"/>
       <use xlink:href="#DejaVuSans-2e" x="63.623047"/>
       <use xlink:href="#DejaVuSans-32" x="95.410156"/>
      </g>
     </g>
    </g>
    <g id="ytick_3">
     <g id="line2d_25">
      <path d="M 57.6 182.1312 
L 360.8064 182.1312 
" clip-path="url(#pbc306d10dc)" style="fill: none; stroke: #b0b0b0; stroke-width: 0.8; stroke-linecap: square"/>
     </g>
     <g id="line2d_26">
      <g>
       <use xlink:href="#ma2f2f8f4fd" x="57.6" y="182.1312" style="stroke: #000000; stroke-width: 0.8"/>
      </g>
     </g>
     <g id="text_8">
      <!-- 0.4 -->
      <g transform="translate(25.155 188.20995) scale(0.16 -0.16)">
       <use xlink:href="#DejaVuSans-30"/>
       <use xlink:href="#DejaVuSans-2e" x="63.623047"/>
       <use xlink:href="#DejaVuSans-34" x="95.410156"/>
      </g>
     </g>
    </g>
    <g id="ytick_4">
     <g id="line2d_27">
      <path d="M 57.6 123.7248 
L 360.8064 123.7248 
" clip-path="url(#pbc306d10dc)" style="fill: none; stroke: #b0b0b0; stroke-width: 0.8; stroke-linecap: square"/>
     </g>
     <g id="line2d_28">
      <g>
       <use xlink:href="#ma2f2f8f4fd" x="57.6" y="123.7248" style="stroke: #000000; stroke-width: 0.8"/>
      </g>
     </g>
     <g id="text_9">
      <!-- 0.6 -->
      <g transform="translate(25.155 129.80355) scale(0.16 -0.16)">
       <use xlink:href="#DejaVuSans-30"/>
       <use xlink:href="#DejaVuSans-2e" x="63.623047"/>
       <use xlink:href="#DejaVuSans-36" x="95.410156"/>
      </g>
     </g>
    </g>
    <g id="ytick_5">
     <g id="line2d_29">
      <path d="M 57.6 65.3184 
L 360.8064 65.3184 
" clip-path="url(#pbc306d10dc)" style="fill: none; stroke: #b0b0b0; stroke-width: 0.8; stroke-linecap: square"/>
     </g>
     <g id="line2d_30">
      <g>
       <use xlink:href="#ma2f2f8f4fd" x="57.6" y="65.3184" style="stroke: #000000; stroke-width: 0.8"/>
      </g>
     </g>
     <g id="text_10">
      <!-- 0.8 -->
      <g transform="translate(25.155 71.39715) scale(0.16 -0.16)">
       <defs>
        <path id="DejaVuSans-38" d="M 2034 2216 
Q 1584 2216 1326 1975 
Q 1069 1734 1069 1313 
Q 1069 891 1326 650 
Q 1584 409 2034 409 
Q 2484 409 2743 651 
Q 3003 894 3003 1313 
Q 3003 1734 2745 1975 
Q 2488 2216 2034 2216 
z
M 1403 2484 
Q 997 2584 770 2862 
Q 544 3141 544 3541 
Q 544 4100 942 4425 
Q 1341 4750 2034 4750 
Q 2731 4750 3128 4425 
Q 3525 4100 3525 3541 
Q 3525 3141 3298 2862 
Q 3072 2584 2669 2484 
Q 3125 2378 3379 2068 
Q 3634 1759 3634 1313 
Q 3634 634 3220 271 
Q 2806 -91 2034 -91 
Q 1263 -91 848 271 
Q 434 634 434 1313 
Q 434 1759 690 2068 
Q 947 2378 1403 2484 
z
M 1172 3481 
Q 1172 3119 1398 2916 
Q 1625 2713 2034 2713 
Q 2441 2713 2670 2916 
Q 2900 3119 2900 3481 
Q 2900 3844 2670 4047 
Q 2441 4250 2034 4250 
Q 1625 4250 1398 4047 
Q 1172 3844 1172 3481 
z
" transform="scale(0.015625)"/>
       </defs>
       <use xlink:href="#DejaVuSans-30"/>
       <use xlink:href="#DejaVuSans-2e" x="63.623047"/>
       <use xlink:href="#DejaVuSans-38" x="95.410156"/>
      </g>
     </g>
    </g>
    <g id="ytick_6">
     <g id="line2d_31">
      <path d="M 57.6 6.912 
L 360.8064 6.912 
" clip-path="url(#pbc306d10dc)" style="fill: none; stroke: #b0b0b0; stroke-width: 0.8; stroke-linecap: square"/>
     </g>
     <g id="line2d_32">
      <g>
       <use xlink:href="#ma2f2f8f4fd" x="57.6" y="6.912" style="stroke: #000000; stroke-width: 0.8"/>
      </g>
     </g>
     <g id="text_11">
      <!-- 1.0 -->
      <g transform="translate(25.155 12.99075) scale(0.16 -0.16)">
       <use xlink:href="#DejaVuSans-31"/>
       <use xlink:href="#DejaVuSans-2e" x="63.623047"/>
       <use xlink:href="#DejaVuSans-30" x="95.410156"/>
      </g>
     </g>
    </g>
    <g id="text_12">
     <!-- Fraction of function,target pairs -->
     <g transform="translate(17.619531 287.313) rotate(-90) scale(0.17 -0.17)">
      <defs>
       <path id="DejaVuSans-46" d="M 628 4666 
L 3309 4666 
L 3309 4134 
L 1259 4134 
L 1259 2759 
L 3109 2759 
L 3109 2228 
L 1259 2228 
L 1259 0 
L 628 0 
L 628 4666 
z
" transform="scale(0.015625)"/>
       <path id="DejaVuSans-72" d="M 2631 2963 
Q 2534 3019 2420 3045 
Q 2306 3072 2169 3072 
Q 1681 3072 1420 2755 
Q 1159 2438 1159 1844 
L 1159 0 
L 581 0 
L 581 3500 
L 1159 3500 
L 1159 2956 
Q 1341 3275 1631 3429 
Q 1922 3584 2338 3584 
Q 2397 3584 2469 3576 
Q 2541 3569 2628 3553 
L 2631 2963 
z
" transform="scale(0.015625)"/>
       <path id="DejaVuSans-63" d="M 3122 3366 
L 3122 2828 
Q 2878 2963 2633 3030 
Q 2388 3097 2138 3097 
Q 1578 3097 1268 2742 
Q 959 2388 959 1747 
Q 959 1106 1268 751 
Q 1578 397 2138 397 
Q 2388 397 2633 464 
Q 2878 531 3122 666 
L 3122 134 
Q 2881 22 2623 -34 
Q 2366 -91 2075 -91 
Q 1284 -91 818 406 
Q 353 903 353 1747 
Q 353 2603 823 3093 
Q 1294 3584 2113 3584 
Q 2378 3584 2631 3529 
Q 2884 3475 3122 3366 
z
" transform="scale(0.015625)"/>
       <path id="DejaVuSans-74" d="M 1172 4494 
L 1172 3500 
L 2356 3500 
L 2356 3053 
L 1172 3053 
L 1172 1153 
Q 1172 725 1289 603 
Q 1406 481 1766 481 
L 2356 481 
L 2356 0 
L 1766 0 
Q 1100 0 847 248 
Q 594 497 594 1153 
L 594 3053 
L 172 3053 
L 172 3500 
L 594 3500 
L 594 4494 
L 1172 4494 
z
" transform="scale(0.015625)"/>
       <path id="DejaVuSans-75" d="M 544 1381 
L 544 3500 
L 1119 3500 
L 1119 1403 
Q 1119 906 1312 657 
Q 1506 409 1894 409 
Q 2359 409 2629 706 
Q 2900 1003 2900 1516 
L 2900 3500 
L 3475 3500 
L 3475 0 
L 2900 0 
L 2900 538 
Q 2691 219 2414 64 
Q 2138 -91 1772 -91 
Q 1169 -91 856 284 
Q 544 659 544 1381 
z
M 1991 3584 
L 1991 3584 
z
" transform="scale(0.015625)"/>
       <path id="DejaVuSans-2c" d="M 750 794 
L 1409 794 
L 1409 256 
L 897 -744 
L 494 -744 
L 750 256 
L 750 794 
z
" transform="scale(0.015625)"/>
       <path id="DejaVuSans-70" d="M 1159 525 
L 1159 -1331 
L 581 -1331 
L 581 3500 
L 1159 3500 
L 1159 2969 
Q 1341 3281 1617 3432 
Q 1894 3584 2278 3584 
Q 2916 3584 3314 3078 
Q 3713 2572 3713 1747 
Q 3713 922 3314 415 
Q 2916 -91 2278 -91 
Q 1894 -91 1617 61 
Q 1341 213 1159 525 
z
M 3116 1747 
Q 3116 2381 2855 2742 
Q 2594 3103 2138 3103 
Q 1681 3103 1420 2742 
Q 1159 2381 1159 1747 
Q 1159 1113 1420 752 
Q 1681 391 2138 391 
Q 2594 391 2855 752 
Q 3116 1113 3116 1747 
z
" transform="scale(0.015625)"/>
      </defs>
      <use xlink:href="#DejaVuSans-46"/>
      <use xlink:href="#DejaVuSans-72" x="50.269531"/>
      <use xlink:href="#DejaVuSans-61" x="91.382812"/>
      <use xlink:href="#DejaVuSans-63" x="152.662109"/>
      <use xlink:href="#DejaVuSans-74" x="207.642578"/>
      <use xlink:href="#DejaVuSans-69" x="246.851562"/>
      <use xlink:href="#DejaVuSans-6f" x="274.634766"/>
      <use xlink:href="#DejaVuSans-6e" x="335.816406"/>
      <use xlink:href="#DejaVuSans-20" x="399.195312"/>
      <use xlink:href="#DejaVuSans-6f" x="430.982422"/>
      <use xlink:href="#DejaVuSans-66" x="492.164062"/>
      <use xlink:href="#DejaVuSans-20" x="527.369141"/>
      <use xlink:href="#DejaVuSans-66" x="559.15625"/>
      <use xlink:href="#DejaVuSans-75" x="594.361328"/>
      <use xlink:href="#DejaVuSans-6e" x="657.740234"/>
      <use xlink:href="#DejaVuSans-63" x="721.119141"/>
      <use xlink:href="#DejaVuSans-74" x="776.099609"/>
      <use xlink:href="#DejaVuSans-69" x="815.308594"/>
      <use xlink:href="#DejaVuSans-6f" x="843.091797"/>
      <use xlink:href="#DejaVuSans-6e" x="904.273438"/>
      <use xlink:href="#DejaVuSans-2c" x="967.652344"/>
      <use xlink:href="#DejaVuSans-74" x="999.439453"/>
      <use xlink:href="#DejaVuSans-61" x="1038.648438"/>
      <use xlink:href="#DejaVuSans-72" x="1099.927734"/>
      <use xlink:href="#DejaVuSans-67" x="1139.291016"/>
      <use xlink:href="#DejaVuSans-65" x="1202.767578"/>
      <use xlink:href="#DejaVuSans-74" x="1264.291016"/>
      <use xlink:href="#DejaVuSans-20" x="1303.5"/>
      <use xlink:href="#DejaVuSans-70" x="1335.287109"/>
      <use xlink:href="#DejaVuSans-61" x="1398.763672"/>
      <use xlink:href="#DejaVuSans-69" x="1460.042969"/>
      <use xlink:href="#DejaVuSans-72" x="1487.826172"/>
      <use xlink:href="#DejaVuSans-73" x="1528.939453"/>
     </g>
    </g>
   </g>
   <g id="line2d_33">
    <defs>
     <path id="m6412c8677c" d="M 0 1.5 
C 0.397805 1.5 0.77937 1.341951 1.06066 1.06066 
C 1.341951 0.77937 1.5 0.397805 1.5 0 
C 1.5 -0.397805 1.341951 -0.77937 1.06066 -1.06066 
C 0.77937 -1.341951 0.397805 -1.5 0 -1.5 
C -0.397805 -1.5 -0.77937 -1.341951 -1.06066 -1.06066 
C -1.341951 -0.77937 -1.5 -0.397805 -1.5 0 
C -1.5 0.397805 -1.341951 0.77937 -1.06066 1.06066 
C -0.77937 1.341951 -0.397805 1.5 0 1.5 
z
" style="stroke: #f5deb3"/>
    </defs>
    <g>
     <use xlink:href="#m6412c8677c" x="363.84283" y="116.424" style="fill: #f5deb3; stroke: #f5deb3"/>
     <use xlink:href="#m6412c8677c" x="363.84283" y="116.424" style="fill: #f5deb3; stroke: #f5deb3"/>
    </g>
   </g>
   <g id="line2d_34">
    <defs>
     <path id="m445bcefbf8" d="M 0 1.5 
C 0.397805 1.5 0.77937 1.341951 1.06066 1.06066 
C 1.341951 0.77937 1.5 0.397805 1.5 0 
C 1.5 -0.397805 1.341951 -0.77937 1.06066 -1.06066 
C 0.77937 -1.341951 0.397805 -1.5 0 -1.5 
C -0.397805 -1.5 -0.77937 -1.341951 -1.06066 -1.06066 
C -1.341951 -0.77937 -1.5 -0.397805 -1.5 0 
C -1.5 0.397805 -1.341951 0.77937 -1.06066 1.06066 
C -0.77937 1.341951 -0.397805 1.5 0 1.5 
z
" style="stroke: #000080"/>
    </defs>
    <g>
     <use xlink:href="#m445bcefbf8" x="187.464536" y="232.229793" style="fill: #000080; stroke: #000080"/>
     <use xlink:href="#m445bcefbf8" x="187.464536" y="232.229793" style="fill: #000080; stroke: #000080"/>
    </g>
   </g>
   <g id="line2d_35">
    <path d="M 14.2848 298.944 
L 14.2848 289.251559 
L 27.323974 289.251559 
L 27.323974 288.496303 
L 62.535479 288.496303 
L 62.535479 288.244552 
L 74.068926 288.244552 
L 74.068926 287.9928 
L 81.166416 287.9928 
L 81.166416 287.237545 
L 86.307488 287.237545 
L 86.307488 286.985793 
L 90.340871 286.985793 
L 90.340871 286.859917 
L 96.480897 286.859917 
L 96.480897 286.734041 
L 98.933205 286.734041 
L 98.933205 286.608166 
L 104.809458 286.608166 
L 104.809458 286.48229 
L 106.42077 286.48229 
L 106.42077 286.104662 
L 107.904887 286.104662 
L 107.904887 285.978786 
L 110.562208 285.978786 
L 110.562208 285.85291 
L 111.762192 285.85291 
L 111.762192 285.727034 
L 115.917548 285.727034 
L 115.917548 285.601159 
L 116.827295 285.601159 
L 116.827295 285.475283 
L 117.695068 285.475283 
L 117.695068 285.223531 
L 119.319033 285.223531 
L 119.319033 284.594152 
L 120.0813 284.594152 
L 120.0813 284.468276 
L 121.518993 284.468276 
L 121.518993 284.3424 
L 122.854567 284.3424 
L 122.854567 284.216524 
L 123.4884 284.216524 
L 123.4884 284.090648 
L 124.101572 284.090648 
L 124.101572 283.838897 
L 124.695386 283.838897 
L 124.695386 283.587145 
L 125.271028 283.587145 
L 125.271028 283.461269 
L 126.372018 283.461269 
L 126.372018 283.083641 
L 127.412117 283.083641 
L 127.412117 282.957766 
L 127.911368 282.957766 
L 127.911368 282.83189 
L 128.39771 282.83189 
L 128.39771 282.580138 
L 128.871795 282.580138 
L 128.871795 282.328386 
L 129.334225 282.328386 
L 129.334225 282.20251 
L 129.78556 282.20251 
L 129.78556 281.699007 
L 130.226319 281.699007 
L 130.226319 281.447255 
L 130.656987 281.447255 
L 130.656987 280.943752 
L 131.078016 280.943752 
L 131.078016 280.817876 
L 131.892817 280.817876 
L 131.892817 280.692 
L 132.287354 280.692 
L 132.287354 280.566124 
L 132.673786 280.566124 
L 132.673786 280.314372 
L 133.05244 280.314372 
L 133.05244 280.062621 
L 133.423621 280.062621 
L 133.423621 279.936745 
L 133.78762 279.936745 
L 133.78762 279.810869 
L 134.14471 279.810869 
L 134.14471 279.684993 
L 134.839175 279.684993 
L 134.839175 279.433241 
L 135.177024 279.433241 
L 135.177024 279.307366 
L 135.508912 279.307366 
L 135.508912 279.055614 
L 136.155623 279.055614 
L 136.155623 278.174483 
L 136.780838 278.174483 
L 136.780838 278.048607 
L 137.085822 278.048607 
L 137.085822 277.670979 
L 137.38594 277.670979 
L 137.38594 277.419228 
L 137.681345 277.419228 
L 137.681345 276.915724 
L 137.972183 276.915724 
L 137.972183 276.663972 
L 138.540708 276.663972 
L 138.540708 276.538097 
L 138.818654 276.538097 
L 138.818654 276.412221 
L 139.092553 276.412221 
L 139.092553 275.908717 
L 139.362521 275.908717 
L 139.362521 275.782841 
L 139.628669 275.782841 
L 139.628669 275.279338 
L 140.14993 275.279338 
L 140.14993 275.153462 
L 140.405242 275.153462 
L 140.405242 274.90171 
L 140.657135 274.90171 
L 140.657135 274.649959 
L 141.151022 274.649959 
L 141.151022 274.398207 
L 141.393187 274.398207 
L 141.393187 274.146455 
L 141.632274 274.146455 
L 141.632274 274.020579 
L 142.101521 274.020579 
L 142.101521 273.894703 
L 142.331827 273.894703 
L 142.331827 273.139448 
L 142.559347 273.139448 
L 142.559347 272.761821 
L 142.784148 272.761821 
L 142.784148 272.384193 
L 143.442869 272.384193 
L 143.442869 272.258317 
L 143.869541 272.258317 
L 143.869541 272.006566 
L 144.079302 272.006566 
L 144.079302 271.503062 
L 144.28675 271.503062 
L 144.28675 271.25131 
L 144.491935 271.25131 
L 144.491935 271.125434 
L 144.694906 271.125434 
L 144.694906 270.244303 
L 144.895711 270.244303 
L 144.895711 270.118428 
L 145.291002 270.118428 
L 145.291002 269.7408 
L 145.485575 269.7408 
L 145.485575 269.614924 
L 145.678157 269.614924 
L 145.678157 268.985545 
L 146.244347 268.985545 
L 146.244347 268.356166 
L 146.429353 268.356166 
L 146.429353 267.978538 
L 146.793994 267.978538 
L 146.793994 267.852662 
L 147.1517 267.852662 
L 147.1517 267.726786 
L 147.502732 267.726786 
L 147.502732 267.60091 
L 147.675821 267.60091 
L 147.675821 267.475034 
L 148.017294 267.475034 
L 148.017294 267.097407 
L 148.185734 267.097407 
L 148.185734 266.845655 
L 148.68219 266.845655 
L 148.68219 266.719779 
L 149.324384 266.719779 
L 149.324384 266.593903 
L 149.637443 266.593903 
L 149.637443 266.468028 
L 149.79204 266.468028 
L 149.79204 266.0904 
L 150.097474 266.0904 
L 150.097474 265.586897 
L 150.546523 265.586897 
L 150.546523 265.335145 
L 150.840043 265.335145 
L 150.840043 265.083393 
L 151.129053 265.083393 
L 151.129053 264.831641 
L 151.27191 264.831641 
L 151.27191 264.705766 
L 151.41369 264.705766 
L 151.41369 264.57989 
L 151.694084 264.57989 
L 151.694084 264.328138 
L 151.97036 264.328138 
L 151.97036 264.076386 
L 152.377312 264.076386 
L 152.377312 263.95051 
L 152.775647 263.95051 
L 152.775647 263.824634 
L 152.906572 263.824634 
L 152.906572 263.447007 
L 153.036593 263.447007 
L 153.036593 263.321131 
L 153.673549 263.321131 
L 153.673549 263.195255 
L 153.798392 263.195255 
L 153.798392 263.069379 
L 153.922412 263.069379 
L 153.922412 262.817628 
L 154.168026 262.817628 
L 154.168026 262.565876 
L 154.410475 262.565876 
L 154.410475 262.44 
L 154.768388 262.44 
L 154.768388 262.314124 
L 154.886195 262.314124 
L 154.886195 262.188248 
L 155.235253 262.188248 
L 155.235253 262.062372 
L 155.464411 262.062372 
L 155.464411 261.810621 
L 155.914518 261.810621 
L 155.914518 261.684745 
L 156.135597 261.684745 
L 156.135597 261.432993 
L 156.462418 261.432993 
L 156.462418 261.181241 
L 156.677186 261.181241 
L 156.783658 260.803614 
L 157.099504 260.803614 
L 157.099504 260.677738 
L 157.512549 260.677738 
L 157.614408 260.425986 
L 157.916719 260.425986 
L 157.916719 260.30011 
L 158.312387 260.30011 
L 158.312387 260.048359 
L 159.079601 260.048359 
L 159.079601 259.796607 
L 159.266613 259.796607 
L 159.266613 259.670731 
L 159.451784 259.670731 
L 159.451784 259.544855 
L 159.63515 259.544855 
L 159.63515 259.293103 
L 159.906891 259.293103 
L 159.906891 259.167228 
L 160.085895 259.167228 
L 160.085895 258.7896 
L 160.351247 258.7896 
L 160.438872 258.537848 
L 160.956223 258.537848 
L 160.956223 258.411972 
L 161.376738 258.411972 
L 161.376738 257.908469 
L 161.624608 257.908469 
L 161.624608 257.782593 
L 161.950101 257.782593 
L 161.950101 257.530841 
L 162.270058 257.530841 
L 162.349204 257.153214 
L 162.506504 257.153214 
L 162.506504 257.027338 
L 162.817213 257.027338 
L 162.894094 256.775586 
L 162.970663 256.775586 
L 162.970663 256.64971 
L 163.348901 256.64971 
L 163.348901 256.523834 
L 163.719684 256.523834 
L 163.719684 256.397959 
L 163.865975 256.397959 
L 163.938695 256.146207 
L 164.298142 256.146207 
L 164.298142 256.020331 
L 164.440019 256.020331 
L 164.440019 255.642703 
L 164.580835 255.642703 
L 164.580835 255.516828 
L 164.997064 255.516828 
L 164.997064 255.265076 
L 165.133786 255.265076 
L 165.201776 254.761572 
L 165.471304 254.761572 
L 165.471304 254.509821 
L 165.670946 254.509821 
L 165.670946 254.383945 
L 166.1287 254.383945 
L 166.1287 253.880441 
L 166.257466 253.880441 
L 166.257466 253.754566 
L 166.385358 253.754566 
L 166.385358 253.502814 
L 166.512385 253.502814 
L 166.512385 253.376938 
L 166.638561 253.376938 
L 166.638561 253.125186 
L 167.196106 253.125186 
L 167.196106 252.99931 
L 167.378342 252.99931 
L 167.378342 252.747559 
L 167.618609 252.747559 
L 167.618609 252.495807 
L 167.737601 252.495807 
L 167.796816 252.118179 
L 168.663377 252.118179 
L 168.663377 251.992303 
L 168.999125 251.992303 
L 168.999125 251.866428 
L 169.164778 251.866428 
L 169.164778 251.740552 
L 169.328985 251.740552 
L 169.328985 251.614676 
L 169.545722 251.614676 
L 169.653161 251.237048 
L 169.919104 251.237048 
L 170.024438 250.859421 
L 170.076884 250.859421 
L 170.129185 250.607669 
L 170.28522 250.607669 
L 170.28522 250.355917 
L 170.491273 250.355917 
L 170.491273 250.104166 
L 171.195189 250.104166 
L 171.244475 249.600662 
L 171.342661 249.600662 
L 171.342661 249.474786 
L 171.537509 249.474786 
L 171.585908 249.223034 
L 171.873712 249.223034 
L 171.921254 248.845407 
L 172.343812 248.845407 
L 172.343812 248.593655 
L 172.528611 248.593655 
L 172.528611 248.341903 
L 173.027642 248.341903 
L 173.027642 248.090152 
L 173.470098 248.090152 
L 173.557354 247.712524 
L 173.730661 247.712524 
L 173.730661 247.586648 
L 174.11486 247.586648 
L 174.11486 247.334897 
L 174.283129 247.334897 
L 174.324962 247.083145 
L 175.02225 247.083145 
L 175.02225 246.957269 
L 175.182628 246.957269 
L 175.182628 246.831393 
L 175.49934 246.831393 
L 175.49934 246.705517 
L 175.655719 246.705517 
L 175.655719 246.453766 
L 175.926293 246.453766 
L 175.926293 246.32789 
L 176.155155 246.32789 
L 176.155155 246.076138 
L 176.343769 246.076138 
L 176.381266 245.69851 
L 176.604692 245.69851 
L 176.715418 245.446759 
L 176.898524 245.446759 
L 176.898524 245.320883 
L 177.115925 245.320883 
L 177.115925 245.195007 
L 177.259475 245.195007 
L 177.330842 244.943255 
L 177.437387 244.943255 
L 177.437387 244.691503 
L 177.683669 244.691503 
L 177.683669 244.565628 
L 177.995653 244.565628 
L 177.995653 244.313876 
L 178.166767 244.313876 
L 178.166767 244.188 
L 178.704102 244.188 
L 178.770203 243.810372 
L 178.901711 243.810372 
L 178.967121 243.558621 
L 179.226514 243.558621 
L 179.258688 242.929241 
L 179.354881 242.929241 
L 179.418738 242.425738 
L 179.609017 242.425738 
L 179.609017 242.173986 
L 179.766126 242.173986 
L 179.766126 242.04811 
L 179.921934 242.04811 
L 179.921934 241.796359 
L 180.137919 241.796359 
L 180.22973 241.544607 
L 180.351453 241.544607 
L 180.351453 241.418731 
L 180.532572 241.418731 
L 180.532572 241.292855 
L 180.801022 241.292855 
L 180.860161 240.915228 
L 180.919115 240.915228 
L 180.919115 240.789352 
L 181.12401 240.789352 
L 181.153099 240.411724 
L 181.297875 240.411724 
L 181.384209 239.908221 
L 181.810032 239.908221 
L 181.810032 239.656469 
L 182.060975 239.656469 
L 182.143884 239.152966 
L 182.226429 239.152966 
L 182.226429 239.02709 
L 182.417638 239.02709 
L 182.417638 238.901214 
L 182.633809 238.901214 
L 182.633809 238.775338 
L 182.874068 238.775338 
L 182.874068 238.523586 
L 183.137472 238.523586 
L 183.189713 238.145959 
L 183.293762 238.145959 
L 183.293762 238.020083 
L 183.448765 238.020083 
L 183.474475 237.768331 
L 184.352879 237.768331 
L 184.450706 237.516579 
L 184.596498 237.516579 
L 184.668973 237.138952 
L 184.74117 237.138952 
L 184.837003 236.761324 
L 185.145131 236.761324 
L 185.238933 236.509572 
L 185.285659 236.509572 
L 185.285659 236.257821 
L 185.494503 236.257821 
L 185.563605 235.502566 
L 185.723864 235.502566 
L 185.723864 235.250814 
L 185.972973 235.250814 
L 185.972973 235.124938 
L 186.196608 235.124938 
L 186.285323 234.74731 
L 186.351585 234.74731 
L 186.395631 234.243807 
L 186.483414 234.243807 
L 186.483414 234.117931 
L 186.614326 234.117931 
L 186.679442 233.488552 
L 186.873448 233.488552 
L 186.980371 233.110924 
L 187.001683 233.110924 
L 187.086689 232.733297 
L 187.443742 232.733297 
L 187.464536 232.229793 
L 360.8064 232.229793 
L 360.8064 232.229793 
" style="fill: none; stroke: #000080; stroke-width: 1.5; stroke-linecap: square"/>
   </g>
   <g id="line2d_36">
    <defs>
     <path id="m98df070ae6" d="M 0 6 
C 1.591219 6 3.117479 5.367802 4.242641 4.242641 
C 5.367802 3.117479 6 1.591219 6 0 
C 6 -1.591219 5.367802 -3.117479 4.242641 -4.242641 
C 3.117479 -5.367802 1.591219 -6 0 -6 
C -1.591219 -6 -3.117479 -5.367802 -4.242641 -4.242641 
C -5.367802 -3.117479 -6 -1.591219 -6 0 
C -6 1.591219 -5.367802 3.117479 -4.242641 4.242641 
C -3.117479 5.367802 -1.591219 6 0 6 
z
" style="stroke: #000080; stroke-width: 1.5"/>
    </defs>
    <g>
     <use xlink:href="#m98df070ae6" x="136.155623" y="279.055614" style="fill-opacity: 0; stroke: #000080; stroke-width: 1.5"/>
     <use xlink:href="#m98df070ae6" x="187.464536" y="232.355669" style="fill-opacity: 0; stroke: #000080; stroke-width: 1.5"/>
     <use xlink:href="#m98df070ae6" x="187.464536" y="232.229793" style="fill-opacity: 0; stroke: #000080; stroke-width: 1.5"/>
     <use xlink:href="#m98df070ae6" x="187.464536" y="232.229793" style="fill-opacity: 0; stroke: #000080; stroke-width: 1.5"/>
     <use xlink:href="#m98df070ae6" x="360.8064" y="232.229793" style="fill-opacity: 0; stroke: #000080; stroke-width: 1.5"/>
    </g>
   </g>
   <g id="line2d_37">
    <path style="fill: none; stroke: #000080; stroke-width: 1.5; stroke-linecap: square"/>
    <g/>
   </g>
   <g id="line2d_38">
    <path d="M 187.5456 232.229793 
" clip-path="url(#pbc306d10dc)" style="fill: none; stroke: #000080; stroke-width: 1.5; stroke-linecap: square"/>
    <defs>
     <path id="m759b88ffeb" d="M -12 12 
L 12 -12 
M -12 -12 
L 12 12 
" style="stroke: #000080"/>
    </defs>
    <g clip-path="url(#pbc306d10dc)">
     <use xlink:href="#m759b88ffeb" x="187.5456" y="232.229793" style="fill: #000080; stroke: #000080"/>
    </g>
   </g>
   <g id="line2d_39">
    <defs>
     <path id="m8279fd7a82" d="M 0 1.5 
C 0.397805 1.5 0.77937 1.341951 1.06066 1.06066 
C 1.341951 0.77937 1.5 0.397805 1.5 0 
C 1.5 -0.397805 1.341951 -0.77937 1.06066 -1.06066 
C 0.77937 -1.341951 0.397805 -1.5 0 -1.5 
C -0.397805 -1.5 -0.77937 -1.341951 -1.06066 -1.06066 
C -1.341951 -0.77937 -1.5 -0.397805 -1.5 0 
C -1.5 0.397805 -1.341951 0.77937 -1.06066 1.06066 
C -0.77937 1.341951 -0.397805 1.5 0 1.5 
z
" style="stroke: #ff00ff"/>
    </defs>
    <g>
     <use xlink:href="#m8279fd7a82" x="187.417245" y="231.348662" style="fill: #ff00ff; stroke: #ff00ff"/>
     <use xlink:href="#m8279fd7a82" x="187.417245" y="231.348662" style="fill: #ff00ff; stroke: #ff00ff"/>
    </g>
   </g>
   <g id="line2d_40">
    <path d="M 14.2848 298.944 
L 14.2848 289.251559 
L 63.929565 289.251559 
L 63.929565 288.622179 
L 70.639174 288.622179 
L 70.639174 288.370428 
L 75.574654 288.370428 
L 75.574654 288.244552 
L 82.713442 288.244552 
L 82.713442 287.866924 
L 94.205591 287.866924 
L 94.205591 287.741048 
L 95.752617 287.741048 
L 95.752617 287.615172 
L 96.241256 287.615172 
L 96.241256 287.489297 
L 96.717523 287.489297 
L 96.717523 287.363421 
L 97.635342 287.363421 
L 97.635342 287.237545 
L 99.751228 287.237545 
L 99.751228 287.111669 
L 101.653002 287.111669 
L 101.653002 286.985793 
L 102.708132 286.985793 
L 102.708132 286.734041 
L 103.707211 286.734041 
L 103.707211 286.608166 
L 104.655893 286.608166 
L 104.655893 286.48229 
L 104.961779 286.48229 
L 104.961779 286.356414 
L 106.137884 286.356414 
L 106.137884 286.230538 
L 106.974091 286.230538 
L 106.974091 286.104662 
L 109.037698 286.104662 
L 109.037698 285.85291 
L 109.520071 285.85291 
L 109.520071 285.727034 
L 109.990385 285.727034 
L 109.990385 285.601159 
L 110.449226 285.601159 
L 110.449226 285.349407 
L 113.670063 285.349407 
L 113.670063 285.223531 
L 117.067958 285.223531 
L 117.1475 284.845903 
L 117.305581 284.845903 
L 117.305581 284.720028 
L 117.540239 284.720028 
L 117.540239 284.594152 
L 118.227147 284.594152 
L 118.227147 284.468276 
L 118.376446 284.468276 
L 118.376446 284.3424 
L 118.817362 284.3424 
L 118.817362 284.216524 
L 119.599808 284.216524 
L 119.669351 283.964772 
L 120.41783 283.964772 
L 120.41783 283.838897 
L 120.550775 283.838897 
L 120.616896 283.587145 
L 120.944062 283.587145 
L 120.944062 283.335393 
L 121.644403 283.335393 
L 121.706797 283.083641 
L 121.768984 283.083641 
L 121.768984 282.957766 
L 121.892744 282.957766 
L 121.954321 282.706014 
L 122.19863 282.706014 
L 122.19863 282.580138 
L 122.439807 282.580138 
L 122.439807 282.454262 
L 122.559246 282.454262 
L 122.559246 282.328386 
L 122.795872 282.328386 
L 122.795872 282.20251 
L 123.08753 282.20251 
L 123.08753 282.076634 
L 123.431654 282.076634 
L 123.431654 281.950759 
L 123.601383 281.950759 
L 123.601383 281.824883 
L 123.936316 281.824883 
L 123.936316 281.699007 
L 124.210942 281.699007 
L 124.210942 281.573131 
L 124.481616 281.573131 
L 124.481616 281.321379 
L 124.748451 281.321379 
L 124.748451 281.195503 
L 125.373824 281.195503 
L 125.373824 280.943752 
L 125.879541 280.943752 
L 125.879541 280.817876 
L 126.225624 280.817876 
L 126.225624 280.692 
L 126.372018 280.692 
L 126.372018 280.566124 
L 126.517282 280.566124 
L 126.613505 280.314372 
L 127.273627 280.314372 
L 127.273627 280.188497 
L 127.412117 280.188497 
L 127.458055 279.936745 
L 127.686077 279.936745 
L 127.776517 279.684993 
L 127.956104 279.684993 
L 127.956104 279.433241 
L 128.089678 279.433241 
L 128.089678 279.18149 
L 128.39771 279.18149 
L 128.39771 278.929738 
L 128.700779 278.929738 
L 128.786481 278.677986 
L 129.041269 278.677986 
L 129.041269 278.55211 
L 129.499602 278.55211 
L 129.499602 278.300359 
L 129.826058 278.300359 
L 129.826058 278.174483 
L 129.947033 278.174483 
L 129.947033 277.922731 
L 130.067235 277.922731 
L 130.067235 277.796855 
L 130.734242 277.796855 
L 130.734242 277.670979 
L 130.849533 277.670979 
L 130.926003 277.293352 
L 131.303758 277.293352 
L 131.303758 277.167476 
L 131.526822 277.167476 
L 131.63737 276.915724 
L 131.783764 276.915724 
L 131.783764 276.789848 
L 132.251827 276.789848 
L 132.287354 276.538097 
L 132.881269 276.538097 
L 132.881269 276.412221 
L 133.222067 276.412221 
L 133.323114 276.034593 
L 133.556801 276.034593 
L 133.623039 275.782841 
L 133.853052 275.782841 
L 133.950775 275.405214 
L 133.983236 275.405214 
L 134.047992 275.153462 
L 134.368469 275.153462 
L 134.431915 274.775834 
L 134.558167 274.775834 
L 134.620977 274.524083 
L 135.085483 274.524083 
L 135.085483 274.398207 
L 135.268121 274.398207 
L 135.35878 274.146455 
L 135.893741 274.146455 
L 135.952253 273.894703 
L 136.155623 273.894703 
L 136.155623 273.768828 
L 136.328207 273.768828 
L 136.413909 273.265324 
L 136.470828 273.265324 
L 136.470828 272.887697 
L 136.668697 272.887697 
L 136.668697 272.761821 
L 136.92008 272.761821 
L 136.92008 272.635945 
L 137.222833 272.635945 
L 137.222833 272.510069 
L 137.38594 272.510069 
L 137.38594 272.384193 
L 137.972183 272.384193 
L 138.024583 272.132441 
L 138.154948 272.132441 
L 138.154948 271.88069 
L 138.36167 271.88069 
L 138.36167 271.754814 
L 138.667556 271.754814 
L 138.667556 271.628938 
L 138.793555 271.628938 
L 138.793555 271.503062 
L 138.968547 271.503062 
L 138.968547 271.377186 
L 139.508159 271.377186 
L 139.508159 271.25131 
L 139.93843 271.25131 
L 140.032723 270.999559 
L 140.451292 270.999559 
L 140.49723 270.621931 
L 140.657135 270.621931 
L 140.702573 270.370179 
L 140.860749 270.370179 
L 140.883238 270.118428 
L 141.195285 270.118428 
L 141.261484 269.7408 
L 141.327451 269.7408 
L 141.327451 269.614924 
L 141.868361 269.614924 
L 141.910969 269.237297 
L 142.01707 269.237297 
L 142.01707 269.111421 
L 142.206555 269.111421 
L 142.248405 268.482041 
L 142.702713 268.482041 
L 142.702713 268.356166 
L 142.905644 268.356166 
L 142.905644 268.23029 
L 143.166224 268.23029 
L 143.245681 267.978538 
L 143.364242 267.978538 
L 143.364242 267.852662 
L 143.521169 267.852662 
L 143.618588 267.60091 
L 143.946089 267.60091 
L 143.946089 267.475034 
L 144.510478 267.475034 
L 144.510478 267.349159 
L 145.112353 267.349159 
L 145.112353 267.097407 
L 145.308773 267.097407 
L 145.308773 266.971531 
L 145.503164 266.971531 
L 145.503164 266.719779 
L 145.712961 266.719779 
L 145.712961 266.593903 
L 146.091614 266.593903 
L 146.091614 266.468028 
L 146.261241 266.468028 
L 146.261241 266.342152 
L 146.462796 266.342152 
L 146.462796 266.216276 
L 146.711739 266.216276 
L 146.744684 265.964524 
L 146.843174 265.964524 
L 146.843174 265.586897 
L 146.973697 265.586897 
L 146.973697 265.461021 
L 147.199956 265.461021 
L 147.199956 265.335145 
L 147.893838 265.335145 
L 147.893838 265.209269 
L 148.07872 265.209269 
L 148.07872 265.083393 
L 148.261802 265.083393 
L 148.261802 264.957517 
L 148.428077 264.957517 
L 148.428077 264.831641 
L 148.903591 264.831641 
L 148.962194 264.202262 
L 149.064312 264.202262 
L 149.064312 264.076386 
L 149.721926 264.076386 
L 149.778038 263.572883 
L 149.931489 263.572883 
L 149.945377 263.321131 
L 150.069911 263.321131 
L 150.152479 262.943503 
L 150.573397 262.943503 
L 150.573397 262.691752 
L 150.866501 262.691752 
L 150.866501 262.565876 
L 151.037576 262.565876 
L 151.037576 262.44 
L 151.400845 262.44 
L 151.490576 262.188248 
L 151.643413 262.188248 
L 151.656094 261.936497 
L 151.995276 261.936497 
L 151.995276 261.810621 
L 152.462515 261.810621 
L 152.462515 261.558869 
L 152.607685 261.558869 
L 152.607685 261.307117 
L 153.001222 261.307117 
L 153.001222 261.181241 
L 153.165721 261.181241 
L 153.165721 261.055366 
L 153.305585 261.055366 
L 153.305585 260.92949 
L 154.179115 260.92949 
L 154.256552 260.551862 
L 154.519655 260.551862 
L 154.519655 260.425986 
L 154.843441 260.425986 
L 154.886195 260.174234 
L 155.066821 260.174234 
L 155.066821 259.922483 
L 155.193286 259.922483 
L 155.193286 259.796607 
L 155.381403 259.796607 
L 155.381403 259.670731 
L 155.701037 259.670731 
L 155.701037 259.544855 
L 155.934724 259.544855 
L 156.005274 259.167228 
L 156.265023 259.167228 
L 156.265023 259.041352 
L 157.051988 259.041352 
L 157.051988 258.915476 
L 157.297771 258.915476 
L 157.297771 258.7896 
L 157.410135 258.7896 
L 157.410135 258.663724 
L 157.540383 258.663724 
L 157.586683 258.286097 
L 157.678942 258.286097 
L 157.678942 258.160221 
L 158.088598 258.160221 
L 158.088598 258.034345 
L 158.454228 258.034345 
L 158.454228 257.782593 
L 158.577468 257.782593 
L 158.577468 257.530841 
L 158.812888 257.530841 
L 158.812888 257.27909 
L 159.139306 257.27909 
L 159.20731 257.027338 
L 159.300416 257.027338 
L 159.300416 256.901462 
L 160.037244 256.901462 
L 160.037244 256.775586 
L 160.223059 256.775586 
L 160.223059 256.523834 
L 160.909774 256.523834 
L 161.017976 256.146207 
L 161.354042 256.146207 
L 161.414505 255.642703 
L 162.219518 255.642703 
L 162.219518 255.516828 
L 162.485131 255.516828 
L 162.485131 255.390952 
L 162.732982 255.390952 
L 162.782162 255.1392 
L 163.538576 255.1392 
L 163.558786 254.887448 
L 164.220301 254.887448 
L 164.220301 254.761572 
L 164.369214 254.761572 
L 164.369214 254.509821 
L 164.922068 254.509821 
L 165.015767 254.132193 
L 165.300233 254.132193 
L 165.300233 253.880441 
L 165.658907 253.880441 
L 165.658907 253.62869 
L 165.856578 253.62869 
L 165.856578 253.376938 
L 166.11695 253.376938 
L 166.11695 253.251062 
L 166.321521 253.251062 
L 166.420087 252.873434 
L 167.012088 252.873434 
L 167.012088 252.621683 
L 167.134966 252.621683 
L 167.134966 252.495807 
L 167.38933 252.495807 
L 167.416772 252.244055 
L 167.978675 252.244055 
L 168.079542 251.740552 
L 168.575917 251.740552 
L 168.575917 251.614676 
L 169.348792 251.614676 
L 169.393282 251.362924 
L 169.62392 251.362924 
L 169.65803 250.985297 
L 170.383845 250.985297 
L 170.411929 250.733545 
L 170.570284 250.733545 
L 170.570284 250.607669 
L 170.759486 250.607669 
L 170.869361 250.104166 
L 171.032981 250.104166 
L 171.032981 249.97829 
L 171.409314 249.97829 
L 171.409314 249.726538 
L 171.691074 249.726538 
L 171.691074 249.474786 
L 171.968676 249.474786 
L 171.968676 249.34891 
L 172.259208 249.34891 
L 172.288863 249.097159 
L 172.507702 249.097159 
L 172.507702 248.971283 
L 172.72816 248.971283 
L 172.72816 248.845407 
L 172.99913 248.845407 
L 172.99913 248.719531 
L 173.112918 248.719531 
L 173.112918 248.593655 
L 173.306396 248.593655 
L 173.306396 248.467779 
L 173.426318 248.467779 
L 173.426318 248.216028 
L 173.769827 248.216028 
L 173.840121 247.8384 
L 174.034017 247.8384 
L 174.091798 247.586648 
L 174.753113 247.586648 
L 174.753113 247.334897 
L 174.882632 247.334897 
L 174.882632 247.209021 
L 175.011265 247.209021 
L 175.095318 246.831393 
L 175.182628 246.831393 
L 175.182628 246.579641 
L 175.384788 246.579641 
L 175.463618 246.076138 
L 175.800275 246.076138 
L 175.873888 245.824386 
L 176.186149 245.824386 
L 176.261697 245.320883 
L 176.319868 245.320883 
L 176.319868 245.069131 
L 176.493311 245.069131 
L 176.493311 244.943255 
L 176.842118 244.943255 
L 176.911772 244.691503 
L 177.010832 244.691503 
L 177.010832 244.439752 
L 177.35996 244.439752 
L 177.35996 244.313876 
L 177.702725 244.313876 
L 177.705899 244.062124 
L 178.03 244.062124 
L 178.104724 243.810372 
L 178.237865 243.810372 
L 178.250202 243.432745 
L 178.400683 243.432745 
L 178.458711 243.055117 
L 178.60754 243.055117 
L 178.69507 242.551614 
L 179.21773 242.551614 
L 179.267453 242.173986 
L 179.331607 242.173986 
L 179.366508 241.922234 
L 179.865426 241.922234 
L 179.933215 241.544607 
L 180.000761 241.544607 
L 180.020416 241.292855 
L 180.188054 241.292855 
L 180.240829 241.041103 
L 180.310045 241.041103 
L 180.310045 240.789352 
L 180.752497 240.789352 
L 180.79025 240.159972 
L 180.913763 240.159972 
L 180.913763 240.034097 
L 181.168947 240.034097 
L 181.276886 239.782345 
L 181.451951 239.782345 
L 181.451951 239.656469 
L 181.612513 239.656469 
L 181.702552 239.278841 
L 181.743569 239.278841 
L 181.74613 238.901214 
L 181.959986 238.901214 
L 182.048381 238.523586 
L 182.086137 238.523586 
L 182.171439 238.145959 
L 182.390441 238.145959 
L 182.390441 238.020083 
L 182.699639 238.020083 
L 182.704506 237.768331 
L 182.900575 237.768331 
L 182.900575 237.642455 
L 183.234714 237.642455 
L 183.234714 237.516579 
L 184.361794 237.516579 
L 184.470653 236.761324 
L 184.747719 236.761324 
L 184.747719 236.635448 
L 184.88907 236.635448 
L 184.97553 236.131945 
L 185.102338 236.131945 
L 185.102338 236.006069 
L 185.302622 236.006069 
L 185.357645 235.628441 
L 185.448293 235.628441 
L 185.513374 234.873186 
L 185.561515 234.873186 
L 185.661588 234.117931 
L 185.845742 234.117931 
L 185.901255 233.866179 
L 185.997499 233.866179 
L 185.997499 233.614428 
L 186.196608 233.614428 
L 186.263183 232.733297 
L 186.455528 232.733297 
L 186.543033 232.355669 
L 186.877347 232.355669 
L 186.947387 231.852166 
L 187.098251 231.852166 
L 187.098251 231.72629 
L 187.230707 231.72629 
L 187.230707 231.600414 
L 187.417245 231.600414 
L 187.417245 231.348662 
L 360.8064 231.348662 
L 360.8064 231.348662 
" style="fill: none; stroke: #ff00ff; stroke-width: 1.5; stroke-linecap: square"/>
   </g>
   <g id="line2d_41">
    <defs>
     <path id="mc7a4f98f17" d="M -0 8.485281 
L 5.091169 0 
L 0 -8.485281 
L -5.091169 -0 
z
" style="stroke: #ff00ff; stroke-width: 1.5; stroke-linejoin: miter"/>
    </defs>
    <g>
     <use xlink:href="#mc7a4f98f17" x="97.635342" y="287.363421" style="fill-opacity: 0; stroke: #ff00ff; stroke-width: 1.5; stroke-linejoin: miter"/>
     <use xlink:href="#mc7a4f98f17" x="161.354042" y="256.146207" style="fill-opacity: 0; stroke: #ff00ff; stroke-width: 1.5; stroke-linejoin: miter"/>
     <use xlink:href="#mc7a4f98f17" x="187.417245" y="231.600414" style="fill-opacity: 0; stroke: #ff00ff; stroke-width: 1.5; stroke-linejoin: miter"/>
     <use xlink:href="#mc7a4f98f17" x="187.417245" y="231.348662" style="fill-opacity: 0; stroke: #ff00ff; stroke-width: 1.5; stroke-linejoin: miter"/>
     <use xlink:href="#mc7a4f98f17" x="187.417245" y="231.348662" style="fill-opacity: 0; stroke: #ff00ff; stroke-width: 1.5; stroke-linejoin: miter"/>
     <use xlink:href="#mc7a4f98f17" x="360.8064" y="231.348662" style="fill-opacity: 0; stroke: #ff00ff; stroke-width: 1.5; stroke-linejoin: miter"/>
    </g>
   </g>
   <g id="line2d_42">
    <path style="fill: none; stroke: #ff00ff; stroke-width: 1.5; stroke-linecap: square"/>
    <g/>
   </g>
   <g id="line2d_43">
    <path d="M 187.538074 231.348662 
" clip-path="url(#pbc306d10dc)" style="fill: none; stroke: #ff00ff; stroke-width: 1.5; stroke-linecap: square"/>
    <defs>
     <path id="m8a32d097f9" d="M -12 12 
L 12 -12 
M -12 -12 
L 12 12 
" style="stroke: #ff00ff"/>
    </defs>
    <g clip-path="url(#pbc306d10dc)">
     <use xlink:href="#m8a32d097f9" x="187.538074" y="231.348662" style="fill: #ff00ff; stroke: #ff00ff"/>
    </g>
   </g>
   <g id="line2d_44">
    <defs>
     <path id="m3628840fd4" d="M 0 1.5 
C 0.397805 1.5 0.77937 1.341951 1.06066 1.06066 
C 1.341951 0.77937 1.5 0.397805 1.5 0 
C 1.5 -0.397805 1.341951 -0.77937 1.06066 -1.06066 
C 0.77937 -1.341951 0.397805 -1.5 0 -1.5 
C -0.397805 -1.5 -0.77937 -1.341951 -1.06066 -1.06066 
C -1.341951 -0.77937 -1.5 -0.397805 -1.5 0 
C -1.5 0.397805 -1.341951 0.77937 -1.06066 1.06066 
C -0.77937 1.341951 -0.397805 1.5 0 1.5 
z
" style="stroke: #ff7500"/>
    </defs>
    <g>
     <use xlink:href="#m3628840fd4" x="241.783415" y="215.740055" style="fill: #ff7500; stroke: #ff7500"/>
     <use xlink:href="#m3628840fd4" x="241.783415" y="215.740055" style="fill: #ff7500; stroke: #ff7500"/>
    </g>
   </g>
   <g id="line2d_45">
    <path d="M 14.2848 298.944 
L 14.2848 289.251559 
L 27.323974 289.251559 
L 27.323974 288.873931 
L 34.951403 288.873931 
L 34.951403 288.622179 
L 40.363149 288.622179 
L 40.363149 288.370428 
L 53.402323 288.370428 
L 53.402323 288.118676 
L 55.618005 288.118676 
L 55.618005 287.9928 
L 57.6 287.9928 
L 57.6 287.866924 
L 59.392932 287.866924 
L 59.392932 287.741048 
L 72.432107 287.741048 
L 72.432107 287.615172 
L 73.268314 287.615172 
L 73.268314 287.489297 
L 78.266603 287.489297 
L 78.266603 287.363421 
L 80.059535 287.363421 
L 80.059535 287.237545 
L 85.471281 287.237545 
L 85.471281 286.859917 
L 89.668958 286.859917 
L 89.668958 286.48229 
L 90.007914 286.48229 
L 90.007914 286.356414 
L 90.989609 286.356414 
L 90.989609 286.230538 
L 92.223596 286.230538 
L 92.223596 286.104662 
L 93.098709 286.104662 
L 93.098709 285.978786 
L 93.934916 285.978786 
L 93.934916 285.85291 
L 95.998523 285.85291 
L 95.998523 285.727034 
L 98.510456 285.727034 
L 98.510456 285.475283 
L 99.14107 285.475283 
L 99.14107 285.349407 
L 100.726138 285.349407 
L 100.726138 284.971779 
L 101.102381 284.971779 
L 101.102381 284.845903 
L 102.362957 284.845903 
L 102.362957 284.720028 
L 104.501065 284.720028 
L 104.501065 284.468276 
L 106.137884 284.468276 
L 106.137884 284.090648 
L 108.791791 284.090648 
L 108.791791 283.964772 
L 109.037698 283.964772 
L 109.037698 283.838897 
L 110.221204 283.838897 
L 110.221204 283.713021 
L 110.335561 283.713021 
L 110.335561 283.335393 
L 112.690074 283.335393 
L 112.790402 282.83189 
L 113.860081 282.83189 
L 113.860081 282.706014 
L 114.7824 282.706014 
L 114.7824 282.580138 
L 115.747307 282.580138 
L 115.747307 282.454262 
L 116.086263 282.454262 
L 116.086263 282.328386 
L 116.665126 282.328386 
L 116.665126 282.076634 
L 118.376446 282.076634 
L 118.376446 281.824883 
L 119.177058 281.824883 
L 119.177058 281.573131 
L 122.076872 281.573131 
L 122.076872 281.195503 
L 122.736994 281.195503 
L 122.736994 280.692 
L 123.991562 280.692 
L 123.991562 280.566124 
L 124.588805 280.566124 
L 124.695386 280.062621 
L 125.167667 280.062621 
L 125.219419 279.559117 
L 125.373824 279.559117 
L 125.373824 279.433241 
L 125.628382 279.433241 
L 125.729248 279.055614 
L 126.274549 279.055614 
L 126.274549 278.677986 
L 127.319904 278.677986 
L 127.366067 278.426234 
L 128.310214 278.426234 
L 128.310214 278.174483 
L 129.250988 278.174483 
L 129.250988 278.048607 
L 129.7043 278.048607 
L 129.7043 277.670979 
L 129.86647 277.670979 
L 129.86647 277.545103 
L 130.146945 277.545103 
L 130.146945 277.419228 
L 131.002163 277.419228 
L 131.002163 277.0416 
L 131.820186 277.0416 
L 131.820186 276.915724 
L 132.428795 276.915724 
L 132.428795 276.789848 
L 132.604114 276.789848 
L 132.604114 276.663972 
L 132.984158 276.663972 
L 132.984158 276.538097 
L 133.918257 276.538097 
L 133.918257 276.412221 
L 134.080287 276.412221 
L 134.080287 276.286345 
L 134.272898 276.286345 
L 134.272898 276.160469 
L 134.463557 276.160469 
L 134.463557 276.034593 
L 135.717106 276.034593 
L 135.776169 275.656966 
L 136.097741 275.656966 
L 136.097741 275.53109 
L 136.413909 275.53109 
L 136.413909 275.405214 
L 136.584151 275.405214 
L 136.584151 275.153462 
L 136.724851 275.153462 
L 136.724851 275.027586 
L 137.030737 275.027586 
L 137.0583 274.398207 
L 137.331728 274.398207 
L 137.331728 274.020579 
L 137.627979 274.020579 
L 137.734561 273.642952 
L 138.335954 273.642952 
L 138.335954 273.517076 
L 138.489728 273.517076 
L 138.489728 273.3912 
L 138.768422 273.3912 
L 138.768422 273.265324 
L 139.313723 273.265324 
L 139.338138 273.013572 
L 139.580558 273.013572 
L 139.676658 272.761821 
L 139.700607 272.761821 
L 139.700607 272.635945 
L 139.843661 272.635945 
L 139.843661 272.384193 
L 140.103135 272.384193 
L 140.103135 272.258317 
L 140.359078 272.258317 
L 140.359078 272.006566 
L 140.58877 272.006566 
L 140.611586 271.628938 
L 141.106655 271.628938 
L 141.106655 271.503062 
L 141.589029 271.503062 
L 141.589029 271.377186 
L 141.825656 271.377186 
L 141.825656 271.25131 
L 142.059343 271.25131 
L 142.059343 270.999559 
L 142.290162 270.999559 
L 142.290162 270.873683 
L 142.518184 270.873683 
L 142.60042 270.496055 
L 142.743475 270.496055 
L 142.743475 270.370179 
L 143.773417 270.370179 
L 143.83115 269.992552 
L 144.041338 269.992552 
L 144.041338 269.866676 
L 144.602918 269.866676 
L 144.602918 269.7408 
L 145.058426 269.7408 
L 145.058426 269.614924 
L 145.450347 269.614924 
L 145.450347 269.489048 
L 145.643288 269.489048 
L 145.643288 269.363172 
L 145.868787 269.363172 
L 145.868787 269.237297 
L 146.023332 269.237297 
L 146.125662 268.859669 
L 146.479495 268.859669 
L 146.579379 268.482041 
L 146.761135 268.482041 
L 146.761135 268.356166 
L 146.924857 268.356166 
L 146.941151 268.104414 
L 147.816265 268.104414 
L 147.816265 267.978538 
L 148.155221 267.978538 
L 148.246613 267.475034 
L 148.322436 267.475034 
L 148.322436 267.349159 
L 149.180344 267.349159 
L 149.180344 267.223283 
L 149.295664 267.223283 
L 149.295664 267.097407 
L 149.566749 267.097407 
L 149.609197 266.593903 
L 149.764026 266.593903 
L 149.764026 266.342152 
L 149.91759 266.342152 
L 149.91759 266.216276 
L 150.069911 266.216276 
L 150.152479 265.838648 
L 150.221009 265.838648 
L 150.289291 265.461021 
L 150.667154 265.461021 
L 150.667154 265.335145 
L 151.076835 265.335145 
L 151.076835 265.209269 
L 151.246016 265.209269 
L 151.246016 265.083393 
L 151.945411 265.083393 
L 151.945411 264.957517 
L 152.15643 264.957517 
L 152.15643 264.831641 
L 152.53524 264.831641 
L 152.53524 264.705766 
L 153.455939 264.705766 
L 153.52493 264.328138 
L 153.775755 264.328138 
L 153.775755 264.076386 
L 154.14583 264.076386 
L 154.14583 263.95051 
L 154.333671 263.95051 
L 154.333671 263.824634 
L 154.703817 263.824634 
L 154.746889 263.572883 
L 154.832738 263.572883 
L 154.832738 263.447007 
L 154.960781 263.447007 
L 154.982037 262.943503 
L 155.214281 262.943503 
L 155.318906 262.565876 
L 155.649849 262.565876 
L 155.649849 262.188248 
L 156.035428 262.188248 
L 156.035428 262.062372 
L 156.284856 262.062372 
L 156.284856 261.936497 
L 156.452597 261.936497 
L 156.452597 261.810621 
L 156.764344 261.810621 
L 156.764344 261.558869 
L 156.937458 261.558869 
L 156.937458 261.307117 
L 157.222487 261.307117 
L 157.288377 260.92949 
L 157.391454 260.92949 
L 157.391454 260.677738 
L 157.898535 260.677738 
L 157.998331 260.174234 
L 158.294582 260.174234 
L 158.303487 259.796607 
L 158.542339 259.796607 
L 158.542339 259.544855 
L 158.968213 259.544855 
L 159.053954 259.293103 
L 159.14782 259.293103 
L 159.14782 259.167228 
L 159.409859 259.167228 
L 159.435025 258.915476 
L 159.759155 258.915476 
L 159.759155 258.7896 
L 159.955879 258.7896 
L 159.988467 258.537848 
L 160.069692 258.537848 
L 160.150567 258.160221 
L 160.35923 258.160221 
L 160.35923 257.908469 
L 160.660094 257.908469 
L 160.769737 257.404966 
L 160.940753 257.404966 
L 160.940753 257.27909 
L 161.278189 257.27909 
L 161.278189 257.153214 
L 161.444664 257.153214 
L 161.512345 256.901462 
L 161.669327 256.901462 
L 161.669327 256.64971 
L 162.037903 256.64971 
L 162.045202 256.272083 
L 162.161592 256.272083 
L 162.255632 255.642703 
L 162.492258 255.642703 
L 162.492258 255.390952 
L 162.605924 255.390952 
L 162.62716 255.013324 
L 163.260183 255.013324 
L 163.33528 254.761572 
L 164.043972 254.761572 
L 164.043972 254.635697 
L 164.657201 254.635697 
L 164.70794 254.383945 
L 165.121398 254.383945 
L 165.121398 254.132193 
L 165.300233 254.132193 
L 165.324768 253.502814 
L 165.434777 253.502814 
L 165.434777 253.376938 
L 165.790918 253.376938 
L 165.790918 253.251062 
L 165.951676 253.251062 
L 166.05809 252.747559 
L 166.541136 252.747559 
L 166.541136 252.621683 
L 166.655701 252.621683 
L 166.724107 252.244055 
L 166.955967 252.244055 
L 167.062453 251.362924 
L 167.312278 251.362924 
L 167.383837 251.111172 
L 168.17987 251.111172 
L 168.17987 250.859421 
L 168.446557 250.859421 
L 168.555279 250.607669 
L 168.729985 250.607669 
L 168.826913 250.355917 
L 169.149779 250.355917 
L 169.249549 249.97829 
L 169.467197 249.97829 
L 169.516314 249.726538 
L 169.846947 249.726538 
L 169.957476 249.34891 
L 169.995769 249.34891 
L 170.067359 248.971283 
L 170.214455 248.971283 
L 170.214455 248.845407 
L 170.37916 248.845407 
L 170.444641 248.467779 
L 170.736514 248.467779 
L 170.736514 248.341903 
L 171.266835 248.341903 
L 171.284704 247.8384 
L 171.546318 247.8384 
L 171.656084 247.209021 
L 171.81737 247.209021 
L 171.912619 246.831393 
L 171.960063 246.831393 
L 172.054594 246.579641 
L 172.152916 246.579641 
L 172.152916 246.32789 
L 172.3986 246.32789 
L 172.3986 246.076138 
L 173.19781 246.076138 
L 173.286335 245.824386 
L 173.386429 245.824386 
L 173.493935 245.446759 
L 173.624503 245.446759 
L 173.624503 245.320883 
L 173.937319 245.320883 
L 174.022439 244.943255 
L 174.237387 244.943255 
L 174.317363 244.565628 
L 174.574026 244.565628 
L 174.574026 244.439752 
L 174.712223 244.439752 
L 174.74197 244.188 
L 175.384788 244.188 
L 175.384788 243.936248 
L 175.531433 243.936248 
L 175.616746 243.558621 
L 175.726373 243.558621 
L 175.743995 243.306869 
L 175.856387 243.306869 
L 175.856387 243.055117 
L 176.158601 243.055117 
L 176.158601 242.929241 
L 176.323285 242.929241 
L 176.323285 242.803366 
L 176.655103 242.803366 
L 176.655103 242.67749 
L 177.559332 242.67749 
L 177.632758 242.425738 
L 177.74078 242.425738 
L 177.74078 242.299862 
L 178.017518 242.299862 
L 178.114043 241.796359 
L 178.154375 241.796359 
L 178.17296 241.544607 
L 178.531754 241.544607 
L 178.531754 241.041103 
L 178.901711 241.041103 
L 178.901711 240.915228 
L 179.035263 240.915228 
L 179.035263 240.789352 
L 179.717705 240.789352 
L 179.797391 240.411724 
L 179.983897 240.411724 
L 179.983897 240.159972 
L 180.213071 240.159972 
L 180.293456 239.656469 
L 180.622482 239.656469 
L 180.706553 238.901214 
L 180.89502 238.901214 
L 180.967213 238.145959 
L 181.137238 238.145959 
L 181.137238 237.894207 
L 181.550523 237.894207 
L 181.620248 237.390703 
L 181.830435 237.390703 
L 181.853362 236.8872 
L 182.048381 236.8872 
L 182.136362 236.509572 
L 182.437393 236.509572 
L 182.437393 236.257821 
L 182.682594 236.257821 
L 182.770089 235.880193 
L 182.816104 235.880193 
L 182.816104 235.754317 
L 183.054061 235.754317 
L 183.144604 235.502566 
L 183.444086 235.502566 
L 183.458118 235.250814 
L 183.885698 235.250814 
L 183.885698 235.124938 
L 184.151181 235.124938 
L 184.151181 234.873186 
L 184.372931 234.873186 
L 184.372931 234.74731 
L 184.519325 234.74731 
L 184.519325 234.495559 
L 184.96906 234.495559 
L 185.010004 234.117931 
L 185.304741 234.117931 
L 185.351304 233.488552 
L 185.513374 233.488552 
L 185.605362 233.110924 
L 185.651188 233.110924 
L 185.651188 232.985048 
L 185.833384 232.985048 
L 185.86015 232.481545 
L 186.103411 232.481545 
L 186.103411 232.229793 
L 186.214788 232.229793 
L 186.255126 231.72629 
L 186.653817 231.72629 
L 186.761992 231.348662 
L 186.777675 231.348662 
L 186.777675 231.09691 
L 187.272744 231.09691 
L 187.308974 230.719283 
L 187.523013 230.719283 
L 187.564402 230.215779 
L 187.669348 230.215779 
L 187.768136 229.838152 
L 187.80528 229.838152 
L 187.80528 229.712276 
L 187.940236 229.712276 
L 188.032117 229.334648 
L 188.386223 229.334648 
L 188.400609 229.082897 
L 188.687814 229.082897 
L 188.75673 228.705269 
L 188.991615 228.705269 
L 189.007286 228.201766 
L 189.161558 228.201766 
L 189.206389 227.824138 
L 189.623664 227.824138 
L 189.694277 227.320634 
L 190.021992 227.320634 
L 190.112476 226.817131 
L 190.238427 226.817131 
L 190.310022 226.439503 
L 190.381345 226.439503 
L 190.454011 225.936 
L 190.691041 225.936 
L 190.768863 225.180745 
L 190.873179 225.180745 
L 190.873179 224.928993 
L 191.097231 224.928993 
L 191.198197 224.42549 
L 191.318646 224.42549 
L 191.403117 223.79611 
L 191.456674 223.79611 
L 191.456674 223.670234 
L 191.580039 223.670234 
L 191.580039 223.418483 
L 191.708631 223.418483 
L 191.708631 223.166731 
L 192.065564 223.166731 
L 192.065564 223.040855 
L 192.223193 223.040855 
L 192.223193 222.789103 
L 192.468051 222.789103 
L 192.468051 222.537352 
L 192.59505 222.537352 
L 192.626666 222.033848 
L 192.783954 222.033848 
L 192.847922 221.656221 
L 192.903185 221.656221 
L 192.903185 221.404469 
L 193.350601 221.404469 
L 193.350601 221.278593 
L 193.760604 221.278593 
L 193.760604 221.026841 
L 194.216041 221.026841 
L 194.216041 220.900966 
L 194.432517 220.900966 
L 194.536585 220.523338 
L 194.632338 220.523338 
L 194.698047 220.271586 
L 194.804498 220.271586 
L 194.804498 220.14571 
L 195.416002 220.14571 
L 195.416002 219.893959 
L 196.169511 219.893959 
L 196.169511 219.768083 
L 196.37769 219.768083 
L 196.37769 219.516331 
L 196.569622 219.516331 
L 196.575443 219.264579 
L 196.729623 219.264579 
L 196.789562 218.6352 
L 197.76396 218.6352 
L 197.84465 218.257572 
L 198.10077 218.257572 
L 198.204598 217.754069 
L 198.796168 217.754069 
L 198.796168 217.628193 
L 199.606002 217.628193 
L 199.606002 217.376441 
L 200.164376 217.376441 
L 200.164376 217.12469 
L 200.634559 217.12469 
L 200.67579 216.621186 
L 204.068532 216.621186 
L 204.068532 216.369434 
L 204.701765 216.369434 
L 204.701765 216.243559 
L 206.386321 216.243559 
L 206.386321 215.991807 
L 241.783415 215.991807 
L 241.783415 215.740055 
L 360.8064 215.740055 
L 360.8064 215.740055 
" style="fill: none; stroke: #ff7500; stroke-width: 1.5; stroke-linecap: square"/>
   </g>
   <g id="line2d_46">
    <defs>
     <path id="mbe8ef2f965" d="M 0 -6 
L -1.347084 -1.854102 
L -5.706339 -1.854102 
L -2.179628 0.708204 
L -3.526712 4.854102 
L -0 2.291796 
L 3.526712 4.854102 
L 2.179628 0.708204 
L 5.706339 -1.854102 
L 1.347084 -1.854102 
z
" style="stroke: #ff7500; stroke-width: 1.5; stroke-linejoin: bevel"/>
    </defs>
    <g>
     <use xlink:href="#mbe8ef2f965" x="124.588805" y="280.566124" style="fill-opacity: 0; stroke: #ff7500; stroke-width: 1.5; stroke-linejoin: bevel"/>
     <use xlink:href="#mbe8ef2f965" x="200.67579" y="216.621186" style="fill-opacity: 0; stroke: #ff7500; stroke-width: 1.5; stroke-linejoin: bevel"/>
     <use xlink:href="#mbe8ef2f965" x="241.783415" y="215.991807" style="fill-opacity: 0; stroke: #ff7500; stroke-width: 1.5; stroke-linejoin: bevel"/>
     <use xlink:href="#mbe8ef2f965" x="241.783415" y="215.740055" style="fill-opacity: 0; stroke: #ff7500; stroke-width: 1.5; stroke-linejoin: bevel"/>
     <use xlink:href="#mbe8ef2f965" x="241.783415" y="215.740055" style="fill-opacity: 0; stroke: #ff7500; stroke-width: 1.5; stroke-linejoin: bevel"/>
     <use xlink:href="#mbe8ef2f965" x="360.8064" y="215.740055" style="fill-opacity: 0; stroke: #ff7500; stroke-width: 1.5; stroke-linejoin: bevel"/>
    </g>
   </g>
   <g id="line2d_47">
    <path style="fill: none; stroke: #ff7500; stroke-width: 1.5; stroke-linecap: square"/>
    <g/>
   </g>
   <g id="line2d_48">
    <path d="M 274.176188 215.740055 
" clip-path="url(#pbc306d10dc)" style="fill: none; stroke: #ff7500; stroke-width: 1.5; stroke-linecap: square"/>
    <defs>
     <path id="m3c027ee254" d="M -12 12 
L 12 -12 
M -12 -12 
L 12 12 
" style="stroke: #ff7500"/>
    </defs>
    <g clip-path="url(#pbc306d10dc)">
     <use xlink:href="#m3c027ee254" x="274.176188" y="215.740055" style="fill: #ff7500; stroke: #ff7500"/>
    </g>
   </g>
   <g id="line2d_49">
    <path d="M 360.8064 232.229793 
L 380.514816 293.10336 
" style="fill: none; stroke: #000080; stroke-width: 1.5; stroke-linecap: square"/>
    <g>
     <use xlink:href="#m98df070ae6" x="360.8064" y="232.229793" style="fill-opacity: 0; stroke: #000080; stroke-width: 1.5"/>
     <use xlink:href="#m98df070ae6" x="380.514816" y="293.10336" style="fill-opacity: 0; stroke: #000080; stroke-width: 1.5"/>
    </g>
   </g>
   <g id="line2d_50">
    <path d="M 360.8064 231.348662 
L 380.514816 199.65312 
" style="fill: none; stroke: #ff00ff; stroke-width: 1.5; stroke-linecap: square"/>
    <g>
     <use xlink:href="#mc7a4f98f17" x="360.8064" y="231.348662" style="fill-opacity: 0; stroke: #ff00ff; stroke-width: 1.5; stroke-linejoin: miter"/>
     <use xlink:href="#mc7a4f98f17" x="380.514816" y="199.65312" style="fill-opacity: 0; stroke: #ff00ff; stroke-width: 1.5; stroke-linejoin: miter"/>
    </g>
   </g>
   <g id="line2d_51">
    <path d="M 360.8064 215.740055 
L 380.514816 106.20288 
" style="fill: none; stroke: #ff7500; stroke-width: 1.5; stroke-linecap: square"/>
    <g>
     <use xlink:href="#mbe8ef2f965" x="360.8064" y="215.740055" style="fill-opacity: 0; stroke: #ff7500; stroke-width: 1.5; stroke-linejoin: bevel"/>
     <use xlink:href="#mbe8ef2f965" x="380.514816" y="106.20288" style="fill-opacity: 0; stroke: #ff7500; stroke-width: 1.5; stroke-linejoin: bevel"/>
    </g>
   </g>
   <g id="line2d_52">
    <path d="M 360.8064 298.944 
L 360.8064 6.912 
" style="fill: none; stroke: #000000; stroke-width: 1.5; stroke-linecap: square"/>
   </g>
   <g id="patch_3">
    <path d="M 57.6 298.944 
L 360.8064 298.944 
" style="fill: none; stroke: #000000; stroke-width: 0.8; stroke-linejoin: miter; stroke-linecap: square"/>
   </g>
   <g id="patch_4">
    <path d="M 57.6 6.912 
L 360.8064 6.912 
" style="fill: none; stroke: #000000; stroke-width: 0.8; stroke-linejoin: miter; stroke-linecap: square"/>
   </g>
   <g id="text_13">
    <!-- kerComo -->
    <g transform="translate(386.578944 296.966485) scale(0.14 -0.14)">
     <defs>
      <path id="DejaVuSans-6b" d="M 581 4863 
L 1159 4863 
L 1159 1991 
L 2875 3500 
L 3609 3500 
L 1753 1863 
L 3688 0 
L 2938 0 
L 1159 1709 
L 1159 0 
L 581 0 
L 581 4863 
z
" transform="scale(0.015625)"/>
      <path id="DejaVuSans-43" d="M 4122 4306 
L 4122 3641 
Q 3803 3938 3442 4084 
Q 3081 4231 2675 4231 
Q 1875 4231 1450 3742 
Q 1025 3253 1025 2328 
Q 1025 1406 1450 917 
Q 1875 428 2675 428 
Q 3081 428 3442 575 
Q 3803 722 4122 1019 
L 4122 359 
Q 3791 134 3420 21 
Q 3050 -91 2638 -91 
Q 1578 -91 968 557 
Q 359 1206 359 2328 
Q 359 3453 968 4101 
Q 1578 4750 2638 4750 
Q 3056 4750 3426 4639 
Q 3797 4528 4122 4306 
z
" transform="scale(0.015625)"/>
     </defs>
     <use xlink:href="#DejaVuSans-6b"/>
     <use xlink:href="#DejaVuSans-65" x="54.285156"/>
     <use xlink:href="#DejaVuSans-72" x="115.808594"/>
     <use xlink:href="#DejaVuSans-43" x="156.921875"/>
     <use xlink:href="#DejaVuSans-6f" x="226.746094"/>
     <use xlink:href="#DejaVuSans-6d" x="287.927734"/>
     <use xlink:href="#DejaVuSans-6f" x="385.339844"/>
    </g>
   </g>
   <g id="text_14">
    <!-- kerLQ -->
    <g transform="translate(386.578944 203.516245) scale(0.14 -0.14)">
     <defs>
      <path id="DejaVuSans-4c" d="M 628 4666 
L 1259 4666 
L 1259 531 
L 3531 531 
L 3531 0 
L 628 0 
L 628 4666 
z
" transform="scale(0.015625)"/>
      <path id="DejaVuSans-51" d="M 2522 4238 
Q 1834 4238 1429 3725 
Q 1025 3213 1025 2328 
Q 1025 1447 1429 934 
Q 1834 422 2522 422 
Q 3209 422 3611 934 
Q 4013 1447 4013 2328 
Q 4013 3213 3611 3725 
Q 3209 4238 2522 4238 
z
M 3406 84 
L 4238 -825 
L 3475 -825 
L 2784 -78 
Q 2681 -84 2626 -87 
Q 2572 -91 2522 -91 
Q 1538 -91 948 567 
Q 359 1225 359 2328 
Q 359 3434 948 4092 
Q 1538 4750 2522 4750 
Q 3503 4750 4090 4092 
Q 4678 3434 4678 2328 
Q 4678 1516 4351 937 
Q 4025 359 3406 84 
z
" transform="scale(0.015625)"/>
     </defs>
     <use xlink:href="#DejaVuSans-6b"/>
     <use xlink:href="#DejaVuSans-65" x="54.285156"/>
     <use xlink:href="#DejaVuSans-72" x="115.808594"/>
     <use xlink:href="#DejaVuSans-4c" x="156.921875"/>
     <use xlink:href="#DejaVuSans-51" x="212.634766"/>
    </g>
   </g>
   <g id="text_15">
    <!-- COMO-10 d -->
    <g transform="translate(386.578944 110.066005) scale(0.14 -0.14)">
     <defs>
      <path id="DejaVuSans-4f" d="M 2522 4238 
Q 1834 4238 1429 3725 
Q 1025 3213 1025 2328 
Q 1025 1447 1429 934 
Q 1834 422 2522 422 
Q 3209 422 3611 934 
Q 4013 1447 4013 2328 
Q 4013 3213 3611 3725 
Q 3209 4238 2522 4238 
z
M 2522 4750 
Q 3503 4750 4090 4092 
Q 4678 3434 4678 2328 
Q 4678 1225 4090 567 
Q 3503 -91 2522 -91 
Q 1538 -91 948 565 
Q 359 1222 359 2328 
Q 359 3434 948 4092 
Q 1538 4750 2522 4750 
z
" transform="scale(0.015625)"/>
      <path id="DejaVuSans-4d" d="M 628 4666 
L 1569 4666 
L 2759 1491 
L 3956 4666 
L 4897 4666 
L 4897 0 
L 4281 0 
L 4281 4097 
L 3078 897 
L 2444 897 
L 1241 4097 
L 1241 0 
L 628 0 
L 628 4666 
z
" transform="scale(0.015625)"/>
     </defs>
     <use xlink:href="#DejaVuSans-43"/>
     <use xlink:href="#DejaVuSans-4f" x="69.824219"/>
     <use xlink:href="#DejaVuSans-4d" x="148.535156"/>
     <use xlink:href="#DejaVuSans-4f" x="234.814453"/>
     <use xlink:href="#DejaVuSans-2d" x="316.275391"/>
     <use xlink:href="#DejaVuSans-31" x="352.359375"/>
     <use xlink:href="#DejaVuSans-30" x="415.982422"/>
     <use xlink:href="#DejaVuSans-20" x="479.605469"/>
     <use xlink:href="#DejaVuSans-64" x="511.392578"/>
    </g>
   </g>
   <g id="text_16">
    <!-- best 2016 -->
    <g transform="translate(386.578944 16.615765) scale(0.14 -0.14)">
     <defs>
      <path id="DejaVuSans-62" d="M 3116 1747 
Q 3116 2381 2855 2742 
Q 2594 3103 2138 3103 
Q 1681 3103 1420 2742 
Q 1159 2381 1159 1747 
Q 1159 1113 1420 752 
Q 1681 391 2138 391 
Q 2594 391 2855 752 
Q 3116 1113 3116 1747 
z
M 1159 2969 
Q 1341 3281 1617 3432 
Q 1894 3584 2278 3584 
Q 2916 3584 3314 3078 
Q 3713 2572 3713 1747 
Q 3713 922 3314 415 
Q 2916 -91 2278 -91 
Q 1894 -91 1617 61 
Q 1341 213 1159 525 
L 1159 0 
L 581 0 
L 581 4863 
L 1159 4863 
L 1159 2969 
z
" transform="scale(0.015625)"/>
     </defs>
     <use xlink:href="#DejaVuSans-62"/>
     <use xlink:href="#DejaVuSans-65" x="63.476562"/>
     <use xlink:href="#DejaVuSans-73" x="125"/>
     <use xlink:href="#DejaVuSans-74" x="177.099609"/>
     <use xlink:href="#DejaVuSans-20" x="216.308594"/>
     <use xlink:href="#DejaVuSans-32" x="248.095703"/>
     <use xlink:href="#DejaVuSans-30" x="311.71875"/>
     <use xlink:href="#DejaVuSans-31" x="375.341797"/>
     <use xlink:href="#DejaVuSans-36" x="438.964844"/>
    </g>
   </g>
   <g id="text_17">
    <!-- bbob-biobj f24, f25, f31, f32, 10-D -->
    <g transform="translate(60.632064 17.582726) scale(0.102 -0.102)">
     <defs>
      <path id="DejaVuSans-6a" d="M 603 3500 
L 1178 3500 
L 1178 -63 
Q 1178 -731 923 -1031 
Q 669 -1331 103 -1331 
L -116 -1331 
L -116 -844 
L 38 -844 
Q 366 -844 484 -692 
Q 603 -541 603 -63 
L 603 3500 
z
M 603 4863 
L 1178 4863 
L 1178 4134 
L 603 4134 
L 603 4863 
z
" transform="scale(0.015625)"/>
      <path id="DejaVuSans-35" d="M 691 4666 
L 3169 4666 
L 3169 4134 
L 1269 4134 
L 1269 2991 
Q 1406 3038 1543 3061 
Q 1681 3084 1819 3084 
Q 2600 3084 3056 2656 
Q 3513 2228 3513 1497 
Q 3513 744 3044 326 
Q 2575 -91 1722 -91 
Q 1428 -91 1123 -41 
Q 819 9 494 109 
L 494 744 
Q 775 591 1075 516 
Q 1375 441 1709 441 
Q 2250 441 2565 725 
Q 2881 1009 2881 1497 
Q 2881 1984 2565 2268 
Q 2250 2553 1709 2553 
Q 1456 2553 1204 2497 
Q 953 2441 691 2322 
L 691 4666 
z
" transform="scale(0.015625)"/>
      <path id="DejaVuSans-33" d="M 2597 2516 
Q 3050 2419 3304 2112 
Q 3559 1806 3559 1356 
Q 3559 666 3084 287 
Q 2609 -91 1734 -91 
Q 1441 -91 1130 -33 
Q 819 25 488 141 
L 488 750 
Q 750 597 1062 519 
Q 1375 441 1716 441 
Q 2309 441 2620 675 
Q 2931 909 2931 1356 
Q 2931 1769 2642 2001 
Q 2353 2234 1838 2234 
L 1294 2234 
L 1294 2753 
L 1863 2753 
Q 2328 2753 2575 2939 
Q 2822 3125 2822 3475 
Q 2822 3834 2567 4026 
Q 2313 4219 1838 4219 
Q 1578 4219 1281 4162 
Q 984 4106 628 3988 
L 628 4550 
Q 988 4650 1302 4700 
Q 1616 4750 1894 4750 
Q 2613 4750 3031 4423 
Q 3450 4097 3450 3541 
Q 3450 3153 3228 2886 
Q 3006 2619 2597 2516 
z
" transform="scale(0.015625)"/>
      <path id="DejaVuSans-44" d="M 1259 4147 
L 1259 519 
L 2022 519 
Q 2988 519 3436 956 
Q 3884 1394 3884 2338 
Q 3884 3275 3436 3711 
Q 2988 4147 2022 4147 
L 1259 4147 
z
M 628 4666 
L 1925 4666 
Q 3281 4666 3915 4102 
Q 4550 3538 4550 2338 
Q 4550 1131 3912 565 
Q 3275 0 1925 0 
L 628 0 
L 628 4666 
z
" transform="scale(0.015625)"/>
     </defs>
     <use xlink:href="#DejaVuSans-62"/>
     <use xlink:href="#DejaVuSans-62" x="63.476562"/>
     <use xlink:href="#DejaVuSans-6f" x="126.953125"/>
     <use xlink:href="#DejaVuSans-62" x="188.134766"/>
     <use xlink:href="#DejaVuSans-2d" x="251.611328"/>
     <use xlink:href="#DejaVuSans-62" x="287.695312"/>
     <use xlink:href="#DejaVuSans-69" x="351.171875"/>
     <use xlink:href="#DejaVuSans-6f" x="378.955078"/>
     <use xlink:href="#DejaVuSans-62" x="440.136719"/>
     <use xlink:href="#DejaVuSans-6a" x="503.613281"/>
     <use xlink:href="#DejaVuSans-20" x="531.396484"/>
     <use xlink:href="#DejaVuSans-66" x="563.183594"/>
     <use xlink:href="#DejaVuSans-32" x="598.388672"/>
     <use xlink:href="#DejaVuSans-34" x="662.011719"/>
     <use xlink:href="#DejaVuSans-2c" x="725.634766"/>
     <use xlink:href="#DejaVuSans-20" x="757.421875"/>
     <use xlink:href="#DejaVuSans-66" x="789.208984"/>
     <use xlink:href="#DejaVuSans-32" x="824.414062"/>
     <use xlink:href="#DejaVuSans-35" x="888.037109"/>
     <use xlink:href="#DejaVuSans-2c" x="951.660156"/>
     <use xlink:href="#DejaVuSans-20" x="983.447266"/>
     <use xlink:href="#DejaVuSans-66" x="1015.234375"/>
     <use xlink:href="#DejaVuSans-33" x="1050.439453"/>
     <use xlink:href="#DejaVuSans-31" x="1114.0625"/>
     <use xlink:href="#DejaVuSans-2c" x="1177.685547"/>
     <use xlink:href="#DejaVuSans-20" x="1209.472656"/>
     <use xlink:href="#DejaVuSans-66" x="1241.259766"/>
     <use xlink:href="#DejaVuSans-33" x="1276.464844"/>
     <use xlink:href="#DejaVuSans-32" x="1340.087891"/>
     <use xlink:href="#DejaVuSans-2c" x="1403.710938"/>
     <use xlink:href="#DejaVuSans-20" x="1435.498047"/>
     <use xlink:href="#DejaVuSans-31" x="1467.285156"/>
     <use xlink:href="#DejaVuSans-30" x="1530.908203"/>
     <use xlink:href="#DejaVuSans-2d" x="1594.53125"/>
     <use xlink:href="#DejaVuSans-44" x="1630.615234"/>
    </g>
    <!-- 58 targets: 1..-1.0e-4 -->
    <g transform="translate(60.632064 29.004495) scale(0.102 -0.102)">
     <defs>
      <path id="DejaVuSans-3a" d="M 750 794 
L 1409 794 
L 1409 0 
L 750 0 
L 750 794 
z
M 750 3309 
L 1409 3309 
L 1409 2516 
L 750 2516 
L 750 3309 
z
" transform="scale(0.015625)"/>
     </defs>
     <use xlink:href="#DejaVuSans-35"/>
     <use xlink:href="#DejaVuSans-38" x="63.623047"/>
     <use xlink:href="#DejaVuSans-20" x="127.246094"/>
     <use xlink:href="#DejaVuSans-74" x="159.033203"/>
     <use xlink:href="#DejaVuSans-61" x="198.242188"/>
     <use xlink:href="#DejaVuSans-72" x="259.521484"/>
     <use xlink:href="#DejaVuSans-67" x="298.884766"/>
     <use xlink:href="#DejaVuSans-65" x="362.361328"/>
     <use xlink:href="#DejaVuSans-74" x="423.884766"/>
     <use xlink:href="#DejaVuSans-73" x="463.09375"/>
     <use xlink:href="#DejaVuSans-3a" x="515.193359"/>
     <use xlink:href="#DejaVuSans-20" x="548.884766"/>
     <use xlink:href="#DejaVuSans-31" x="580.671875"/>
     <use xlink:href="#DejaVuSans-2e" x="644.294922"/>
     <use xlink:href="#DejaVuSans-2e" x="676.082031"/>
     <use xlink:href="#DejaVuSans-2d" x="707.869141"/>
     <use xlink:href="#DejaVuSans-31" x="743.953125"/>
     <use xlink:href="#DejaVuSans-2e" x="807.576172"/>
     <use xlink:href="#DejaVuSans-30" x="839.363281"/>
     <use xlink:href="#DejaVuSans-65" x="902.986328"/>
     <use xlink:href="#DejaVuSans-2d" x="964.509766"/>
     <use xlink:href="#DejaVuSans-34" x="1000.59375"/>
    </g>
    <!-- 10 instances -->
    <g transform="translate(60.632064 40.426264) scale(0.102 -0.102)">
     <use xlink:href="#DejaVuSans-31"/>
     <use xlink:href="#DejaVuSans-30" x="63.623047"/>
     <use xlink:href="#DejaVuSans-20" x="127.246094"/>
     <use xlink:href="#DejaVuSans-69" x="159.033203"/>
     <use xlink:href="#DejaVuSans-6e" x="186.816406"/>
     <use xlink:href="#DejaVuSans-73" x="250.195312"/>
     <use xlink:href="#DejaVuSans-74" x="302.294922"/>
     <use xlink:href="#DejaVuSans-61" x="341.503906"/>
     <use xlink:href="#DejaVuSans-6e" x="402.783203"/>
     <use xlink:href="#DejaVuSans-63" x="466.162109"/>
     <use xlink:href="#DejaVuSans-65" x="521.142578"/>
     <use xlink:href="#DejaVuSans-73" x="582.666016"/>
    </g>
   </g>
   <g id="text_18">
    <!-- v2.6, hv-hash=ff0e71e8cd978373 -->
    <g style="fill: #808080" transform="translate(123.707887 293.943992) scale(0.1 -0.1)">
     <defs>
      <path id="DejaVuSans-68" d="M 3513 2113 
L 3513 0 
L 2938 0 
L 2938 2094 
Q 2938 2591 2744 2837 
Q 2550 3084 2163 3084 
Q 1697 3084 1428 2787 
Q 1159 2491 1159 1978 
L 1159 0 
L 581 0 
L 581 4863 
L 1159 4863 
L 1159 2956 
Q 1366 3272 1645 3428 
Q 1925 3584 2291 3584 
Q 2894 3584 3203 3211 
Q 3513 2838 3513 2113 
z
" transform="scale(0.015625)"/>
      <path id="DejaVuSans-3d" d="M 678 2906 
L 4684 2906 
L 4684 2381 
L 678 2381 
L 678 2906 
z
M 678 1631 
L 4684 1631 
L 4684 1100 
L 678 1100 
L 678 1631 
z
" transform="scale(0.015625)"/>
      <path id="DejaVuSans-37" d="M 525 4666 
L 3525 4666 
L 3525 4397 
L 1831 0 
L 1172 0 
L 2766 4134 
L 525 4134 
L 525 4666 
z
" transform="scale(0.015625)"/>
      <path id="DejaVuSans-39" d="M 703 97 
L 703 672 
Q 941 559 1184 500 
Q 1428 441 1663 441 
Q 2288 441 2617 861 
Q 2947 1281 2994 2138 
Q 2813 1869 2534 1725 
Q 2256 1581 1919 1581 
Q 1219 1581 811 2004 
Q 403 2428 403 3163 
Q 403 3881 828 4315 
Q 1253 4750 1959 4750 
Q 2769 4750 3195 4129 
Q 3622 3509 3622 2328 
Q 3622 1225 3098 567 
Q 2575 -91 1691 -91 
Q 1453 -91 1209 -44 
Q 966 3 703 97 
z
M 1959 2075 
Q 2384 2075 2632 2365 
Q 2881 2656 2881 3163 
Q 2881 3666 2632 3958 
Q 2384 4250 1959 4250 
Q 1534 4250 1286 3958 
Q 1038 3666 1038 3163 
Q 1038 2656 1286 2365 
Q 1534 2075 1959 2075 
z
" transform="scale(0.015625)"/>
     </defs>
     <use xlink:href="#DejaVuSans-76"/>
     <use xlink:href="#DejaVuSans-32" x="59.179688"/>
     <use xlink:href="#DejaVuSans-2e" x="122.802734"/>
     <use xlink:href="#DejaVuSans-36" x="154.589844"/>
     <use xlink:href="#DejaVuSans-2c" x="218.212891"/>
     <use xlink:href="#DejaVuSans-20" x="250"/>
     <use xlink:href="#DejaVuSans-68" x="281.787109"/>
     <use xlink:href="#DejaVuSans-76" x="345.166016"/>
     <use xlink:href="#DejaVuSans-2d" x="401.720703"/>
     <use xlink:href="#DejaVuSans-68" x="437.804688"/>
     <use xlink:href="#DejaVuSans-61" x="501.183594"/>
     <use xlink:href="#DejaVuSans-73" x="562.462891"/>
     <use xlink:href="#DejaVuSans-68" x="614.5625"/>
     <use xlink:href="#DejaVuSans-3d" x="677.941406"/>
     <use xlink:href="#DejaVuSans-66" x="761.730469"/>
     <use xlink:href="#DejaVuSans-66" x="796.935547"/>
     <use xlink:href="#DejaVuSans-30" x="832.140625"/>
     <use xlink:href="#DejaVuSans-65" x="895.763672"/>
     <use xlink:href="#DejaVuSans-37" x="957.287109"/>
     <use xlink:href="#DejaVuSans-31" x="1020.910156"/>
     <use xlink:href="#DejaVuSans-65" x="1084.533203"/>
     <use xlink:href="#DejaVuSans-38" x="1146.056641"/>
     <use xlink:href="#DejaVuSans-63" x="1209.679688"/>
     <use xlink:href="#DejaVuSans-64" x="1264.660156"/>
     <use xlink:href="#DejaVuSans-39" x="1328.136719"/>
     <use xlink:href="#DejaVuSans-37" x="1391.759766"/>
     <use xlink:href="#DejaVuSans-38" x="1455.382812"/>
     <use xlink:href="#DejaVuSans-33" x="1519.005859"/>
     <use xlink:href="#DejaVuSans-37" x="1582.628906"/>
     <use xlink:href="#DejaVuSans-33" x="1646.251953"/>
    </g>
   </g>
  </g>
 </g>
 <defs>
  <clipPath id="pbc306d10dc">
   <rect x="57.6" y="6.912" width="303.2064" height="292.032"/>
  </clipPath>
 </defs>
</svg>
