<?xml version="1.0" encoding="utf-8" standalone="no"?>
<!DOCTYPE svg PUBLIC "-//W3C//DTD SVG 1.1//EN"
  "http://www.w3.org/Graphics/SVG/1.1/DTD/svg11.dtd">
<svg xmlns:xlink="http://www.w3.org/1999/xlink" width="460.8pt" height="345.6pt" viewBox="0 0 460.8 345.6" xmlns="http://www.w3.org/2000/svg" version="1.1">
 <metadata>
  <rdf:RDF xmlns:dc="http://purl.org/dc/elements/1.1/" xmlns:cc="http://creativecommons.org/ns#" xmlns:rdf="http://www.w3.org/1999/02/22-rdf-syntax-ns#">
   <cc:Work>
    <dc:type rdf:resource="http://purl.org/dc/dcmitype/StillImage"/>
    <dc:date>2023-02-10T20:10:11.740191</dc:date>
    <dc:format>image/svg+xml</dc:format>
    <dc:creator>
     <cc:Agent>
      <dc:title>Matplotlib v3.6.3, https://matplotlib.org/</dc:title>
     </cc:Agent>
    </dc:creator>
   </cc:Work>
  </rdf:RDF>
 </metadata>
 <defs>
  <style type="text/css">*{stroke-linejoin: round; stroke-linecap: butt}</style>
 </defs>
 <g id="figure_1">
  <g id="patch_1">
   <path d="M 0 345.6 
L 460.8 345.6 
L 460.8 0 
L 0 0 
z
" style="fill: #ffffff"/>
  </g>
  <g id="axes_1">
   <g id="patch_2">
    <path d="M 57.6 298.944 
L 360.8064 298.944 
L 360.8064 6.912 
L 57.6 6.912 
z
" style="fill: #ffffff"/>
   </g>
   <g id="line2d_1">
    <path d="M 1.245626 298.944 
L 1.245626 295.167724 
L 21.912228 295.167724 
L 21.912228 293.908966 
L 44.560826 293.908966 
L 44.560826 291.391448 
L 58.517819 291.391448 
L 58.517819 288.873931 
L 63.929565 288.873931 
L 63.929565 286.356414 
L 65.844256 286.356414 
L 65.844256 283.838897 
L 78.577544 283.838897 
L 78.577544 282.580138 
L 82.464279 282.580138 
L 82.464279 280.062621 
L 86.101895 280.062621 
L 86.101895 277.545103 
L 86.911119 277.545103 
L 86.911119 273.768828 
L 91.46189 273.768828 
L 91.46189 271.25131 
L 95.875972 271.25131 
L 95.875972 269.992552 
L 97.066974 269.992552 
L 97.066974 267.475034 
L 97.635342 267.475034 
L 97.635342 264.957517 
L 101.743226 264.957517 
L 101.743226 261.181241 
L 107.109915 261.181241 
L 107.109915 259.922483 
L 112.231853 259.922483 
L 112.231853 258.663724 
L 116.460428 258.663724 
L 116.460428 256.146207 
L 116.948011 256.146207 
L 116.948011 254.887448 
L 119.495008 254.887448 
L 119.495008 252.369931 
L 128.354013 252.369931 
L 128.354013 248.593655 
L 133.069471 248.593655 
L 133.069471 247.334897 
L 134.015642 247.334897 
L 134.015642 244.817379 
L 138.629591 244.817379 
L 138.629591 242.299862 
L 139.950242 242.299862 
L 139.950242 239.782345 
L 144.538258 239.782345 
L 144.538258 237.264828 
L 145.361989 237.264828 
L 145.361989 233.488552 
L 150.166205 233.488552 
L 150.166205 232.229793 
L 151.096434 232.229793 
L 151.096434 229.712276 
L 155.757183 229.712276 
L 155.757183 225.936 
L 156.677186 225.936 
L 156.677186 223.418483 
L 159.97218 223.418483 
L 159.97218 219.642207 
L 161.22872 219.642207 
L 161.22872 218.383448 
L 163.41347 218.383448 
L 163.41347 215.865931 
L 166.644276 215.865931 
L 166.644276 212.089655 
L 169.202224 212.089655 
L 169.202224 208.313379 
L 170.09592 208.313379 
L 170.09592 207.054621 
L 172.210388 207.054621 
L 172.210388 204.537103 
L 177.840308 204.537103 
L 177.840308 200.760828 
L 179.255765 200.760828 
L 179.255765 199.502069 
L 183.324394 199.502069 
L 183.324394 198.24331 
L 186.892934 198.24331 
L 186.892934 194.467034 
L 192.450667 194.467034 
L 192.450667 190.690759 
L 192.577782 190.690759 
L 192.577782 188.173241 
L 194.780823 188.173241 
L 194.780823 186.914483 
L 198.966587 186.914483 
L 198.966587 184.396966 
L 203.046732 184.396966 
L 203.046732 183.138207 
L 203.476659 183.138207 
L 203.476659 179.361931 
L 204.705921 179.361931 
L 204.705921 176.844414 
L 206.652864 176.844414 
L 206.652864 175.585655 
L 211.288551 175.585655 
L 211.288551 174.326897 
L 211.452364 174.326897 
L 211.452364 171.809379 
L 213.812993 171.809379 
L 213.812993 168.033103 
L 217.6692 168.033103 
L 217.6692 165.515586 
L 220.19798 165.515586 
L 220.19798 164.256828 
L 220.546704 164.256828 
L 220.546704 161.73931 
L 223.840397 161.73931 
L 223.840397 159.221793 
L 227.520267 159.221793 
L 227.520267 155.445517 
L 228.431564 155.445517 
L 228.431564 151.669241 
L 231.017038 151.669241 
L 231.026084 147.892966 
L 231.59616 147.892966 
L 231.59616 145.375448 
L 232.357612 145.375448 
L 232.357612 142.857931 
L 234.6176 142.857931 
L 234.6176 141.599172 
L 235.952632 141.599172 
L 235.952632 139.081655 
L 244.744554 139.081655 
L 244.744554 136.564138 
L 248.286508 136.564138 
L 248.286508 134.046621 
L 255.069946 134.046621 
L 255.069946 132.787862 
L 261.945778 132.787862 
L 261.945778 129.011586 
L 264.573364 129.011586 
L 264.573364 125.23531 
L 266.942766 125.23531 
L 266.942766 122.717793 
L 276.100528 122.717793 
L 276.100528 118.941517 
L 277.564399 118.941517 
L 277.564399 116.424 
L 277.77537 116.424 
L 277.816208 111.388966 
L 278.246571 111.388966 
L 278.246571 107.61269 
L 278.489223 107.61269 
L 278.489223 106.353931 
L 278.776954 106.353931 
L 278.776954 102.577655 
L 279.814737 102.577655 
L 279.814737 100.060138 
L 283.251643 100.060138 
L 283.251643 98.801379 
L 292.18049 98.801379 
L 292.278825 88.73131 
L 292.359338 88.73131 
L 292.359338 86.213793 
L 293.576122 86.213793 
L 293.576122 82.437517 
L 293.973516 82.437517 
L 293.973516 81.178759 
L 295.24379 81.178759 
L 295.24379 77.402483 
L 302.139537 77.402483 
L 302.204971 72.367448 
L 302.301854 72.367448 
L 302.301854 71.10869 
L 302.446328 71.10869 
L 302.446328 67.332414 
L 302.664052 67.332414 
L 302.664052 64.814897 
L 302.989002 64.814897 
L 302.989002 62.297379 
L 303.47507 62.297379 
L 303.47507 61.038621 
L 304.197669 61.038621 
L 304.197669 58.521103 
L 305.192738 58.521103 
L 305.282131 52.22731 
L 307.663523 52.22731 
L 307.663523 49.709793 
L 308.372497 49.709793 
L 308.372497 48.451034 
L 309.367964 48.451034 
L 309.367964 45.933517 
L 310.668708 45.933517 
L 310.668708 42.157241 
L 360.8064 42.157241 
L 360.8064 42.157241 
" style="fill: none; stroke: #f5deb3; stroke-width: 4; stroke-linecap: square"/>
   </g>
   <g id="line2d_2">
    <defs>
     <path id="mca31767fbf" d="M -0 7.778175 
L 7.778175 0 
L 0 -7.778175 
L -7.778175 -0 
z
" style="stroke: #f5deb3; stroke-width: 1.5; stroke-linejoin: miter"/>
    </defs>
    <g>
     <use xlink:href="#mca31767fbf" x="119.495008" y="254.887448" style="fill: #f5deb3; stroke: #f5deb3; stroke-width: 1.5; stroke-linejoin: miter"/>
     <use xlink:href="#mca31767fbf" x="172.210388" y="204.537103" style="fill: #f5deb3; stroke: #f5deb3; stroke-width: 1.5; stroke-linejoin: miter"/>
     <use xlink:href="#mca31767fbf" x="255.069946" y="134.046621" style="fill: #f5deb3; stroke: #f5deb3; stroke-width: 1.5; stroke-linejoin: miter"/>
     <use xlink:href="#mca31767fbf" x="302.989002" y="62.297379" style="fill: #f5deb3; stroke: #f5deb3; stroke-width: 1.5; stroke-linejoin: miter"/>
     <use xlink:href="#mca31767fbf" x="310.668708" y="42.157241" style="fill: #f5deb3; stroke: #f5deb3; stroke-width: 1.5; stroke-linejoin: miter"/>
     <use xlink:href="#mca31767fbf" x="360.8064" y="42.157241" style="fill: #f5deb3; stroke: #f5deb3; stroke-width: 1.5; stroke-linejoin: miter"/>
    </g>
   </g>
   <g id="line2d_3">
    <path style="fill: none; stroke: #f5deb3; stroke-width: 4; stroke-linecap: square"/>
    <g/>
   </g>
   <g id="line2d_4">
    <path d="M 360.8064 42.157241 
L 380.514816 12.75264 
" style="fill: none; stroke: #f5deb3; stroke-width: 4; stroke-linecap: square"/>
    <g>
     <use xlink:href="#mca31767fbf" x="360.8064" y="42.157241" style="fill: #f5deb3; stroke: #f5deb3; stroke-width: 1.5; stroke-linejoin: miter"/>
     <use xlink:href="#mca31767fbf" x="380.514816" y="12.75264" style="fill: #f5deb3; stroke: #f5deb3; stroke-width: 1.5; stroke-linejoin: miter"/>
    </g>
   </g>
   <g id="matplotlib.axis_1">
    <g id="xtick_1">
     <g id="line2d_5">
      <path d="M 57.6 298.944 
L 57.6 6.912 
" clip-path="url(#p644be08887)" style="fill: none; stroke: #b0b0b0; stroke-width: 0.8; stroke-linecap: square"/>
     </g>
     <g id="line2d_6">
      <defs>
       <path id="mf71e9c2a1e" d="M 0 0 
L 0 3.5 
" style="stroke: #000000; stroke-width: 0.8"/>
      </defs>
      <g>
       <use xlink:href="#mf71e9c2a1e" x="57.6" y="298.944" style="stroke: #000000; stroke-width: 0.8"/>
      </g>
     </g>
     <g id="text_1">
      <!-- 0 -->
      <g transform="translate(52.191875 318.861344) scale(0.17 -0.17)">
       <defs>
        <path id="DejaVuSans-30" d="M 2034 4250 
Q 1547 4250 1301 3770 
Q 1056 3291 1056 2328 
Q 1056 1369 1301 889 
Q 1547 409 2034 409 
Q 2525 409 2770 889 
Q 3016 1369 3016 2328 
Q 3016 3291 2770 3770 
Q 2525 4250 2034 4250 
z
M 2034 4750 
Q 2819 4750 3233 4129 
Q 3647 3509 3647 2328 
Q 3647 1150 3233 529 
Q 2819 -91 2034 -91 
Q 1250 -91 836 529 
Q 422 1150 422 2328 
Q 422 3509 836 4129 
Q 1250 4750 2034 4750 
z
" transform="scale(0.015625)"/>
       </defs>
       <use xlink:href="#DejaVuSans-30"/>
      </g>
     </g>
    </g>
    <g id="xtick_2">
     <g id="line2d_7">
      <path d="M 144.2304 298.944 
L 144.2304 6.912 
" clip-path="url(#p644be08887)" style="fill: none; stroke: #b0b0b0; stroke-width: 0.8; stroke-linecap: square"/>
     </g>
     <g id="line2d_8">
      <g>
       <use xlink:href="#mf71e9c2a1e" x="144.2304" y="298.944" style="stroke: #000000; stroke-width: 0.8"/>
      </g>
     </g>
     <g id="text_2">
      <!-- 2 -->
      <g transform="translate(138.822275 318.861344) scale(0.17 -0.17)">
       <defs>
        <path id="DejaVuSans-32" d="M 1228 531 
L 3431 531 
L 3431 0 
L 469 0 
L 469 531 
Q 828 903 1448 1529 
Q 2069 2156 2228 2338 
Q 2531 2678 2651 2914 
Q 2772 3150 2772 3378 
Q 2772 3750 2511 3984 
Q 2250 4219 1831 4219 
Q 1534 4219 1204 4116 
Q 875 4013 500 3803 
L 500 4441 
Q 881 4594 1212 4672 
Q 1544 4750 1819 4750 
Q 2544 4750 2975 4387 
Q 3406 4025 3406 3419 
Q 3406 3131 3298 2873 
Q 3191 2616 2906 2266 
Q 2828 2175 2409 1742 
Q 1991 1309 1228 531 
z
" transform="scale(0.015625)"/>
       </defs>
       <use xlink:href="#DejaVuSans-32"/>
      </g>
     </g>
    </g>
    <g id="xtick_3">
     <g id="line2d_9">
      <path d="M 230.8608 298.944 
L 230.8608 6.912 
" clip-path="url(#p644be08887)" style="fill: none; stroke: #b0b0b0; stroke-width: 0.8; stroke-linecap: square"/>
     </g>
     <g id="line2d_10">
      <g>
       <use xlink:href="#mf71e9c2a1e" x="230.8608" y="298.944" style="stroke: #000000; stroke-width: 0.8"/>
      </g>
     </g>
     <g id="text_3">
      <!-- 4 -->
      <g transform="translate(225.452675 318.861344) scale(0.17 -0.17)">
       <defs>
        <path id="DejaVuSans-34" d="M 2419 4116 
L 825 1625 
L 2419 1625 
L 2419 4116 
z
M 2253 4666 
L 3047 4666 
L 3047 1625 
L 3713 1625 
L 3713 1100 
L 3047 1100 
L 3047 0 
L 2419 0 
L 2419 1100 
L 313 1100 
L 313 1709 
L 2253 4666 
z
" transform="scale(0.015625)"/>
       </defs>
       <use xlink:href="#DejaVuSans-34"/>
      </g>
     </g>
    </g>
    <g id="xtick_4">
     <g id="line2d_11">
      <path d="M 317.4912 298.944 
L 317.4912 6.912 
" clip-path="url(#p644be08887)" style="fill: none; stroke: #b0b0b0; stroke-width: 0.8; stroke-linecap: square"/>
     </g>
     <g id="line2d_12">
      <g>
       <use xlink:href="#mf71e9c2a1e" x="317.4912" y="298.944" style="stroke: #000000; stroke-width: 0.8"/>
      </g>
     </g>
     <g id="text_4">
      <!-- 6 -->
      <g transform="translate(312.083075 318.861344) scale(0.17 -0.17)">
       <defs>
        <path id="DejaVuSans-36" d="M 2113 2584 
Q 1688 2584 1439 2293 
Q 1191 2003 1191 1497 
Q 1191 994 1439 701 
Q 1688 409 2113 409 
Q 2538 409 2786 701 
Q 3034 994 3034 1497 
Q 3034 2003 2786 2293 
Q 2538 2584 2113 2584 
z
M 3366 4563 
L 3366 3988 
Q 3128 4100 2886 4159 
Q 2644 4219 2406 4219 
Q 1781 4219 1451 3797 
Q 1122 3375 1075 2522 
Q 1259 2794 1537 2939 
Q 1816 3084 2150 3084 
Q 2853 3084 3261 2657 
Q 3669 2231 3669 1497 
Q 3669 778 3244 343 
Q 2819 -91 2113 -91 
Q 1303 -91 875 529 
Q 447 1150 447 2328 
Q 447 3434 972 4092 
Q 1497 4750 2381 4750 
Q 2619 4750 2861 4703 
Q 3103 4656 3366 4563 
z
" transform="scale(0.015625)"/>
       </defs>
       <use xlink:href="#DejaVuSans-36"/>
      </g>
     </g>
    </g>
    <g id="xtick_5">
     <g id="line2d_13">
      <path d="M 100.9152 298.944 
L 100.9152 6.912 
" clip-path="url(#p644be08887)" style="fill: none; stroke: #b0b0b0; stroke-width: 0.8; stroke-linecap: square"/>
     </g>
     <g id="line2d_14">
      <defs>
       <path id="m9156aa6be5" d="M 0 0 
L 0 2 
" style="stroke: #000000; stroke-width: 0.6"/>
      </defs>
      <g>
       <use xlink:href="#m9156aa6be5" x="100.9152" y="298.944" style="stroke: #000000; stroke-width: 0.6"/>
      </g>
     </g>
    </g>
    <g id="xtick_6">
     <g id="line2d_15">
      <path d="M 187.5456 298.944 
L 187.5456 6.912 
" clip-path="url(#p644be08887)" style="fill: none; stroke: #b0b0b0; stroke-width: 0.8; stroke-linecap: square"/>
     </g>
     <g id="line2d_16">
      <g>
       <use xlink:href="#m9156aa6be5" x="187.5456" y="298.944" style="stroke: #000000; stroke-width: 0.6"/>
      </g>
     </g>
    </g>
    <g id="xtick_7">
     <g id="line2d_17">
      <path d="M 274.176 298.944 
L 274.176 6.912 
" clip-path="url(#p644be08887)" style="fill: none; stroke: #b0b0b0; stroke-width: 0.8; stroke-linecap: square"/>
     </g>
     <g id="line2d_18">
      <g>
       <use xlink:href="#m9156aa6be5" x="274.176" y="298.944" style="stroke: #000000; stroke-width: 0.6"/>
      </g>
     </g>
    </g>
    <g id="xtick_8">
     <g id="line2d_19">
      <path d="M 360.8064 298.944 
L 360.8064 6.912 
" clip-path="url(#p644be08887)" style="fill: none; stroke: #b0b0b0; stroke-width: 0.8; stroke-linecap: square"/>
     </g>
     <g id="line2d_20">
      <g>
       <use xlink:href="#m9156aa6be5" x="360.8064" y="298.944" style="stroke: #000000; stroke-width: 0.6"/>
      </g>
     </g>
    </g>
    <g id="text_5">
     <!-- log10(# f-evals / dimension) -->
     <g transform="translate(88.823278 339.314156) scale(0.17 -0.17)">
      <defs>
       <path id="DejaVuSans-6c" d="M 603 4863 
L 1178 4863 
L 1178 0 
L 603 0 
L 603 4863 
z
" transform="scale(0.015625)"/>
       <path id="DejaVuSans-6f" d="M 1959 3097 
Q 1497 3097 1228 2736 
Q 959 2375 959 1747 
Q 959 1119 1226 758 
Q 1494 397 1959 397 
Q 2419 397 2687 759 
Q 2956 1122 2956 1747 
Q 2956 2369 2687 2733 
Q 2419 3097 1959 3097 
z
M 1959 3584 
Q 2709 3584 3137 3096 
Q 3566 2609 3566 1747 
Q 3566 888 3137 398 
Q 2709 -91 1959 -91 
Q 1206 -91 779 398 
Q 353 888 353 1747 
Q 353 2609 779 3096 
Q 1206 3584 1959 3584 
z
" transform="scale(0.015625)"/>
       <path id="DejaVuSans-67" d="M 2906 1791 
Q 2906 2416 2648 2759 
Q 2391 3103 1925 3103 
Q 1463 3103 1205 2759 
Q 947 2416 947 1791 
Q 947 1169 1205 825 
Q 1463 481 1925 481 
Q 2391 481 2648 825 
Q 2906 1169 2906 1791 
z
M 3481 434 
Q 3481 -459 3084 -895 
Q 2688 -1331 1869 -1331 
Q 1566 -1331 1297 -1286 
Q 1028 -1241 775 -1147 
L 775 -588 
Q 1028 -725 1275 -790 
Q 1522 -856 1778 -856 
Q 2344 -856 2625 -561 
Q 2906 -266 2906 331 
L 2906 616 
Q 2728 306 2450 153 
Q 2172 0 1784 0 
Q 1141 0 747 490 
Q 353 981 353 1791 
Q 353 2603 747 3093 
Q 1141 3584 1784 3584 
Q 2172 3584 2450 3431 
Q 2728 3278 2906 2969 
L 2906 3500 
L 3481 3500 
L 3481 434 
z
" transform="scale(0.015625)"/>
       <path id="DejaVuSans-31" d="M 794 531 
L 1825 531 
L 1825 4091 
L 703 3866 
L 703 4441 
L 1819 4666 
L 2450 4666 
L 2450 531 
L 3481 531 
L 3481 0 
L 794 0 
L 794 531 
z
" transform="scale(0.015625)"/>
       <path id="DejaVuSans-28" d="M 1984 4856 
Q 1566 4138 1362 3434 
Q 1159 2731 1159 2009 
Q 1159 1288 1364 580 
Q 1569 -128 1984 -844 
L 1484 -844 
Q 1016 -109 783 600 
Q 550 1309 550 2009 
Q 550 2706 781 3412 
Q 1013 4119 1484 4856 
L 1984 4856 
z
" transform="scale(0.015625)"/>
       <path id="DejaVuSans-23" d="M 3272 2816 
L 2363 2816 
L 2100 1772 
L 3016 1772 
L 3272 2816 
z
M 2803 4594 
L 2478 3297 
L 3391 3297 
L 3719 4594 
L 4219 4594 
L 3897 3297 
L 4872 3297 
L 4872 2816 
L 3775 2816 
L 3519 1772 
L 4513 1772 
L 4513 1294 
L 3397 1294 
L 3072 0 
L 2572 0 
L 2894 1294 
L 1978 1294 
L 1656 0 
L 1153 0 
L 1478 1294 
L 494 1294 
L 494 1772 
L 1594 1772 
L 1856 2816 
L 850 2816 
L 850 3297 
L 1978 3297 
L 2297 4594 
L 2803 4594 
z
" transform="scale(0.015625)"/>
       <path id="DejaVuSans-20" transform="scale(0.015625)"/>
       <path id="DejaVuSans-66" d="M 2375 4863 
L 2375 4384 
L 1825 4384 
Q 1516 4384 1395 4259 
Q 1275 4134 1275 3809 
L 1275 3500 
L 2222 3500 
L 2222 3053 
L 1275 3053 
L 1275 0 
L 697 0 
L 697 3053 
L 147 3053 
L 147 3500 
L 697 3500 
L 697 3744 
Q 697 4328 969 4595 
Q 1241 4863 1831 4863 
L 2375 4863 
z
" transform="scale(0.015625)"/>
       <path id="DejaVuSans-2d" d="M 313 2009 
L 1997 2009 
L 1997 1497 
L 313 1497 
L 313 2009 
z
" transform="scale(0.015625)"/>
       <path id="DejaVuSans-65" d="M 3597 1894 
L 3597 1613 
L 953 1613 
Q 991 1019 1311 708 
Q 1631 397 2203 397 
Q 2534 397 2845 478 
Q 3156 559 3463 722 
L 3463 178 
Q 3153 47 2828 -22 
Q 2503 -91 2169 -91 
Q 1331 -91 842 396 
Q 353 884 353 1716 
Q 353 2575 817 3079 
Q 1281 3584 2069 3584 
Q 2775 3584 3186 3129 
Q 3597 2675 3597 1894 
z
M 3022 2063 
Q 3016 2534 2758 2815 
Q 2500 3097 2075 3097 
Q 1594 3097 1305 2825 
Q 1016 2553 972 2059 
L 3022 2063 
z
" transform="scale(0.015625)"/>
       <path id="DejaVuSans-76" d="M 191 3500 
L 800 3500 
L 1894 563 
L 2988 3500 
L 3597 3500 
L 2284 0 
L 1503 0 
L 191 3500 
z
" transform="scale(0.015625)"/>
       <path id="DejaVuSans-61" d="M 2194 1759 
Q 1497 1759 1228 1600 
Q 959 1441 959 1056 
Q 959 750 1161 570 
Q 1363 391 1709 391 
Q 2188 391 2477 730 
Q 2766 1069 2766 1631 
L 2766 1759 
L 2194 1759 
z
M 3341 1997 
L 3341 0 
L 2766 0 
L 2766 531 
Q 2569 213 2275 61 
Q 1981 -91 1556 -91 
Q 1019 -91 701 211 
Q 384 513 384 1019 
Q 384 1609 779 1909 
Q 1175 2209 1959 2209 
L 2766 2209 
L 2766 2266 
Q 2766 2663 2505 2880 
Q 2244 3097 1772 3097 
Q 1472 3097 1187 3025 
Q 903 2953 641 2809 
L 641 3341 
Q 956 3463 1253 3523 
Q 1550 3584 1831 3584 
Q 2591 3584 2966 3190 
Q 3341 2797 3341 1997 
z
" transform="scale(0.015625)"/>
       <path id="DejaVuSans-73" d="M 2834 3397 
L 2834 2853 
Q 2591 2978 2328 3040 
Q 2066 3103 1784 3103 
Q 1356 3103 1142 2972 
Q 928 2841 928 2578 
Q 928 2378 1081 2264 
Q 1234 2150 1697 2047 
L 1894 2003 
Q 2506 1872 2764 1633 
Q 3022 1394 3022 966 
Q 3022 478 2636 193 
Q 2250 -91 1575 -91 
Q 1294 -91 989 -36 
Q 684 19 347 128 
L 347 722 
Q 666 556 975 473 
Q 1284 391 1588 391 
Q 1994 391 2212 530 
Q 2431 669 2431 922 
Q 2431 1156 2273 1281 
Q 2116 1406 1581 1522 
L 1381 1569 
Q 847 1681 609 1914 
Q 372 2147 372 2553 
Q 372 3047 722 3315 
Q 1072 3584 1716 3584 
Q 2034 3584 2315 3537 
Q 2597 3491 2834 3397 
z
" transform="scale(0.015625)"/>
       <path id="DejaVuSans-2f" d="M 1625 4666 
L 2156 4666 
L 531 -594 
L 0 -594 
L 1625 4666 
z
" transform="scale(0.015625)"/>
       <path id="DejaVuSans-64" d="M 2906 2969 
L 2906 4863 
L 3481 4863 
L 3481 0 
L 2906 0 
L 2906 525 
Q 2725 213 2448 61 
Q 2172 -91 1784 -91 
Q 1150 -91 751 415 
Q 353 922 353 1747 
Q 353 2572 751 3078 
Q 1150 3584 1784 3584 
Q 2172 3584 2448 3432 
Q 2725 3281 2906 2969 
z
M 947 1747 
Q 947 1113 1208 752 
Q 1469 391 1925 391 
Q 2381 391 2643 752 
Q 2906 1113 2906 1747 
Q 2906 2381 2643 2742 
Q 2381 3103 1925 3103 
Q 1469 3103 1208 2742 
Q 947 2381 947 1747 
z
" transform="scale(0.015625)"/>
       <path id="DejaVuSans-69" d="M 603 3500 
L 1178 3500 
L 1178 0 
L 603 0 
L 603 3500 
z
M 603 4863 
L 1178 4863 
L 1178 4134 
L 603 4134 
L 603 4863 
z
" transform="scale(0.015625)"/>
       <path id="DejaVuSans-6d" d="M 3328 2828 
Q 3544 3216 3844 3400 
Q 4144 3584 4550 3584 
Q 5097 3584 5394 3201 
Q 5691 2819 5691 2113 
L 5691 0 
L 5113 0 
L 5113 2094 
Q 5113 2597 4934 2840 
Q 4756 3084 4391 3084 
Q 3944 3084 3684 2787 
Q 3425 2491 3425 1978 
L 3425 0 
L 2847 0 
L 2847 2094 
Q 2847 2600 2669 2842 
Q 2491 3084 2119 3084 
Q 1678 3084 1418 2786 
Q 1159 2488 1159 1978 
L 1159 0 
L 581 0 
L 581 3500 
L 1159 3500 
L 1159 2956 
Q 1356 3278 1631 3431 
Q 1906 3584 2284 3584 
Q 2666 3584 2933 3390 
Q 3200 3197 3328 2828 
z
" transform="scale(0.015625)"/>
       <path id="DejaVuSans-6e" d="M 3513 2113 
L 3513 0 
L 2938 0 
L 2938 2094 
Q 2938 2591 2744 2837 
Q 2550 3084 2163 3084 
Q 1697 3084 1428 2787 
Q 1159 2491 1159 1978 
L 1159 0 
L 581 0 
L 581 3500 
L 1159 3500 
L 1159 2956 
Q 1366 3272 1645 3428 
Q 1925 3584 2291 3584 
Q 2894 3584 3203 3211 
Q 3513 2838 3513 2113 
z
" transform="scale(0.015625)"/>
       <path id="DejaVuSans-29" d="M 513 4856 
L 1013 4856 
Q 1481 4119 1714 3412 
Q 1947 2706 1947 2009 
Q 1947 1309 1714 600 
Q 1481 -109 1013 -844 
L 513 -844 
Q 928 -128 1133 580 
Q 1338 1288 1338 2009 
Q 1338 2731 1133 3434 
Q 928 4138 513 4856 
z
" transform="scale(0.015625)"/>
      </defs>
      <use xlink:href="#DejaVuSans-6c"/>
      <use xlink:href="#DejaVuSans-6f" x="27.783203"/>
      <use xlink:href="#DejaVuSans-67" x="88.964844"/>
      <use xlink:href="#DejaVuSans-31" x="152.441406"/>
      <use xlink:href="#DejaVuSans-30" x="216.064453"/>
      <use xlink:href="#DejaVuSans-28" x="279.6875"/>
      <use xlink:href="#DejaVuSans-23" x="318.701172"/>
      <use xlink:href="#DejaVuSans-20" x="402.490234"/>
      <use xlink:href="#DejaVuSans-66" x="434.277344"/>
      <use xlink:href="#DejaVuSans-2d" x="463.982422"/>
      <use xlink:href="#DejaVuSans-65" x="500.066406"/>
      <use xlink:href="#DejaVuSans-76" x="561.589844"/>
      <use xlink:href="#DejaVuSans-61" x="620.769531"/>
      <use xlink:href="#DejaVuSans-6c" x="682.048828"/>
      <use xlink:href="#DejaVuSans-73" x="709.832031"/>
      <use xlink:href="#DejaVuSans-20" x="761.931641"/>
      <use xlink:href="#DejaVuSans-2f" x="793.71875"/>
      <use xlink:href="#DejaVuSans-20" x="827.410156"/>
      <use xlink:href="#DejaVuSans-64" x="859.197266"/>
      <use xlink:href="#DejaVuSans-69" x="922.673828"/>
      <use xlink:href="#DejaVuSans-6d" x="950.457031"/>
      <use xlink:href="#DejaVuSans-65" x="1047.869141"/>
      <use xlink:href="#DejaVuSans-6e" x="1109.392578"/>
      <use xlink:href="#DejaVuSans-73" x="1172.771484"/>
      <use xlink:href="#DejaVuSans-69" x="1224.871094"/>
      <use xlink:href="#DejaVuSans-6f" x="1252.654297"/>
      <use xlink:href="#DejaVuSans-6e" x="1313.835938"/>
      <use xlink:href="#DejaVuSans-29" x="1377.214844"/>
     </g>
    </g>
   </g>
   <g id="matplotlib.axis_2">
    <g id="ytick_1">
     <g id="line2d_21">
      <path d="M 57.6 298.944 
L 360.8064 298.944 
" clip-path="url(#p644be08887)" style="fill: none; stroke: #b0b0b0; stroke-width: 0.8; stroke-linecap: square"/>
     </g>
     <g id="line2d_22">
      <defs>
       <path id="mdb56f47b62" d="M 0 0 
L -3.5 0 
" style="stroke: #000000; stroke-width: 0.8"/>
      </defs>
      <g>
       <use xlink:href="#mdb56f47b62" x="57.6" y="298.944" style="stroke: #000000; stroke-width: 0.8"/>
      </g>
     </g>
     <g id="text_6">
      <!-- 0.0 -->
      <g transform="translate(25.155 305.02275) scale(0.16 -0.16)">
       <defs>
        <path id="DejaVuSans-2e" d="M 684 794 
L 1344 794 
L 1344 0 
L 684 0 
L 684 794 
z
" transform="scale(0.015625)"/>
       </defs>
       <use xlink:href="#DejaVuSans-30"/>
       <use xlink:href="#DejaVuSans-2e" x="63.623047"/>
       <use xlink:href="#DejaVuSans-30" x="95.410156"/>
      </g>
     </g>
    </g>
    <g id="ytick_2">
     <g id="line2d_23">
      <path d="M 57.6 240.5376 
L 360.8064 240.5376 
" clip-path="url(#p644be08887)" style="fill: none; stroke: #b0b0b0; stroke-width: 0.8; stroke-linecap: square"/>
     </g>
     <g id="line2d_24">
      <g>
       <use xlink:href="#mdb56f47b62" x="57.6" y="240.5376" style="stroke: #000000; stroke-width: 0.8"/>
      </g>
     </g>
     <g id="text_7">
      <!-- 0.2 -->
      <g transform="translate(25.155 246.61635) scale(0.16 -0.16)">
       <use xlink:href="#DejaVuSans-30"/>
       <use xlink:href="#DejaVuSans-2e" x="63.623047"/>
       <use xlink:href="#DejaVuSans-32" x="95.410156"/>
      </g>
     </g>
    </g>
    <g id="ytick_3">
     <g id="line2d_25">
      <path d="M 57.6 182.1312 
L 360.8064 182.1312 
" clip-path="url(#p644be08887)" style="fill: none; stroke: #b0b0b0; stroke-width: 0.8; stroke-linecap: square"/>
     </g>
     <g id="line2d_26">
      <g>
       <use xlink:href="#mdb56f47b62" x="57.6" y="182.1312" style="stroke: #000000; stroke-width: 0.8"/>
      </g>
     </g>
     <g id="text_8">
      <!-- 0.4 -->
      <g transform="translate(25.155 188.20995) scale(0.16 -0.16)">
       <use xlink:href="#DejaVuSans-30"/>
       <use xlink:href="#DejaVuSans-2e" x="63.623047"/>
       <use xlink:href="#DejaVuSans-34" x="95.410156"/>
      </g>
     </g>
    </g>
    <g id="ytick_4">
     <g id="line2d_27">
      <path d="M 57.6 123.7248 
L 360.8064 123.7248 
" clip-path="url(#p644be08887)" style="fill: none; stroke: #b0b0b0; stroke-width: 0.8; stroke-linecap: square"/>
     </g>
     <g id="line2d_28">
      <g>
       <use xlink:href="#mdb56f47b62" x="57.6" y="123.7248" style="stroke: #000000; stroke-width: 0.8"/>
      </g>
     </g>
     <g id="text_9">
      <!-- 0.6 -->
      <g transform="translate(25.155 129.80355) scale(0.16 -0.16)">
       <use xlink:href="#DejaVuSans-30"/>
       <use xlink:href="#DejaVuSans-2e" x="63.623047"/>
       <use xlink:href="#DejaVuSans-36" x="95.410156"/>
      </g>
     </g>
    </g>
    <g id="ytick_5">
     <g id="line2d_29">
      <path d="M 57.6 65.3184 
L 360.8064 65.3184 
" clip-path="url(#p644be08887)" style="fill: none; stroke: #b0b0b0; stroke-width: 0.8; stroke-linecap: square"/>
     </g>
     <g id="line2d_30">
      <g>
       <use xlink:href="#mdb56f47b62" x="57.6" y="65.3184" style="stroke: #000000; stroke-width: 0.8"/>
      </g>
     </g>
     <g id="text_10">
      <!-- 0.8 -->
      <g transform="translate(25.155 71.39715) scale(0.16 -0.16)">
       <defs>
        <path id="DejaVuSans-38" d="M 2034 2216 
Q 1584 2216 1326 1975 
Q 1069 1734 1069 1313 
Q 1069 891 1326 650 
Q 1584 409 2034 409 
Q 2484 409 2743 651 
Q 3003 894 3003 1313 
Q 3003 1734 2745 1975 
Q 2488 2216 2034 2216 
z
M 1403 2484 
Q 997 2584 770 2862 
Q 544 3141 544 3541 
Q 544 4100 942 4425 
Q 1341 4750 2034 4750 
Q 2731 4750 3128 4425 
Q 3525 4100 3525 3541 
Q 3525 3141 3298 2862 
Q 3072 2584 2669 2484 
Q 3125 2378 3379 2068 
Q 3634 1759 3634 1313 
Q 3634 634 3220 271 
Q 2806 -91 2034 -91 
Q 1263 -91 848 271 
Q 434 634 434 1313 
Q 434 1759 690 2068 
Q 947 2378 1403 2484 
z
M 1172 3481 
Q 1172 3119 1398 2916 
Q 1625 2713 2034 2713 
Q 2441 2713 2670 2916 
Q 2900 3119 2900 3481 
Q 2900 3844 2670 4047 
Q 2441 4250 2034 4250 
Q 1625 4250 1398 4047 
Q 1172 3844 1172 3481 
z
" transform="scale(0.015625)"/>
       </defs>
       <use xlink:href="#DejaVuSans-30"/>
       <use xlink:href="#DejaVuSans-2e" x="63.623047"/>
       <use xlink:href="#DejaVuSans-38" x="95.410156"/>
      </g>
     </g>
    </g>
    <g id="ytick_6">
     <g id="line2d_31">
      <path d="M 57.6 6.912 
L 360.8064 6.912 
" clip-path="url(#p644be08887)" style="fill: none; stroke: #b0b0b0; stroke-width: 0.8; stroke-linecap: square"/>
     </g>
     <g id="line2d_32">
      <g>
       <use xlink:href="#mdb56f47b62" x="57.6" y="6.912" style="stroke: #000000; stroke-width: 0.8"/>
      </g>
     </g>
     <g id="text_11">
      <!-- 1.0 -->
      <g transform="translate(25.155 12.99075) scale(0.16 -0.16)">
       <use xlink:href="#DejaVuSans-31"/>
       <use xlink:href="#DejaVuSans-2e" x="63.623047"/>
       <use xlink:href="#DejaVuSans-30" x="95.410156"/>
      </g>
     </g>
    </g>
    <g id="text_12">
     <!-- Fraction of function,target pairs -->
     <g transform="translate(17.619531 287.313) rotate(-90) scale(0.17 -0.17)">
      <defs>
       <path id="DejaVuSans-46" d="M 628 4666 
L 3309 4666 
L 3309 4134 
L 1259 4134 
L 1259 2759 
L 3109 2759 
L 3109 2228 
L 1259 2228 
L 1259 0 
L 628 0 
L 628 4666 
z
" transform="scale(0.015625)"/>
       <path id="DejaVuSans-72" d="M 2631 2963 
Q 2534 3019 2420 3045 
Q 2306 3072 2169 3072 
Q 1681 3072 1420 2755 
Q 1159 2438 1159 1844 
L 1159 0 
L 581 0 
L 581 3500 
L 1159 3500 
L 1159 2956 
Q 1341 3275 1631 3429 
Q 1922 3584 2338 3584 
Q 2397 3584 2469 3576 
Q 2541 3569 2628 3553 
L 2631 2963 
z
" transform="scale(0.015625)"/>
       <path id="DejaVuSans-63" d="M 3122 3366 
L 3122 2828 
Q 2878 2963 2633 3030 
Q 2388 3097 2138 3097 
Q 1578 3097 1268 2742 
Q 959 2388 959 1747 
Q 959 1106 1268 751 
Q 1578 397 2138 397 
Q 2388 397 2633 464 
Q 2878 531 3122 666 
L 3122 134 
Q 2881 22 2623 -34 
Q 2366 -91 2075 -91 
Q 1284 -91 818 406 
Q 353 903 353 1747 
Q 353 2603 823 3093 
Q 1294 3584 2113 3584 
Q 2378 3584 2631 3529 
Q 2884 3475 3122 3366 
z
" transform="scale(0.015625)"/>
       <path id="DejaVuSans-74" d="M 1172 4494 
L 1172 3500 
L 2356 3500 
L 2356 3053 
L 1172 3053 
L 1172 1153 
Q 1172 725 1289 603 
Q 1406 481 1766 481 
L 2356 481 
L 2356 0 
L 1766 0 
Q 1100 0 847 248 
Q 594 497 594 1153 
L 594 3053 
L 172 3053 
L 172 3500 
L 594 3500 
L 594 4494 
L 1172 4494 
z
" transform="scale(0.015625)"/>
       <path id="DejaVuSans-75" d="M 544 1381 
L 544 3500 
L 1119 3500 
L 1119 1403 
Q 1119 906 1312 657 
Q 1506 409 1894 409 
Q 2359 409 2629 706 
Q 2900 1003 2900 1516 
L 2900 3500 
L 3475 3500 
L 3475 0 
L 2900 0 
L 2900 538 
Q 2691 219 2414 64 
Q 2138 -91 1772 -91 
Q 1169 -91 856 284 
Q 544 659 544 1381 
z
M 1991 3584 
L 1991 3584 
z
" transform="scale(0.015625)"/>
       <path id="DejaVuSans-2c" d="M 750 794 
L 1409 794 
L 1409 256 
L 897 -744 
L 494 -744 
L 750 256 
L 750 794 
z
" transform="scale(0.015625)"/>
       <path id="DejaVuSans-70" d="M 1159 525 
L 1159 -1331 
L 581 -1331 
L 581 3500 
L 1159 3500 
L 1159 2969 
Q 1341 3281 1617 3432 
Q 1894 3584 2278 3584 
Q 2916 3584 3314 3078 
Q 3713 2572 3713 1747 
Q 3713 922 3314 415 
Q 2916 -91 2278 -91 
Q 1894 -91 1617 61 
Q 1341 213 1159 525 
z
M 3116 1747 
Q 3116 2381 2855 2742 
Q 2594 3103 2138 3103 
Q 1681 3103 1420 2742 
Q 1159 2381 1159 1747 
Q 1159 1113 1420 752 
Q 1681 391 2138 391 
Q 2594 391 2855 752 
Q 3116 1113 3116 1747 
z
" transform="scale(0.015625)"/>
      </defs>
      <use xlink:href="#DejaVuSans-46"/>
      <use xlink:href="#DejaVuSans-72" x="50.269531"/>
      <use xlink:href="#DejaVuSans-61" x="91.382812"/>
      <use xlink:href="#DejaVuSans-63" x="152.662109"/>
      <use xlink:href="#DejaVuSans-74" x="207.642578"/>
      <use xlink:href="#DejaVuSans-69" x="246.851562"/>
      <use xlink:href="#DejaVuSans-6f" x="274.634766"/>
      <use xlink:href="#DejaVuSans-6e" x="335.816406"/>
      <use xlink:href="#DejaVuSans-20" x="399.195312"/>
      <use xlink:href="#DejaVuSans-6f" x="430.982422"/>
      <use xlink:href="#DejaVuSans-66" x="492.164062"/>
      <use xlink:href="#DejaVuSans-20" x="527.369141"/>
      <use xlink:href="#DejaVuSans-66" x="559.15625"/>
      <use xlink:href="#DejaVuSans-75" x="594.361328"/>
      <use xlink:href="#DejaVuSans-6e" x="657.740234"/>
      <use xlink:href="#DejaVuSans-63" x="721.119141"/>
      <use xlink:href="#DejaVuSans-74" x="776.099609"/>
      <use xlink:href="#DejaVuSans-69" x="815.308594"/>
      <use xlink:href="#DejaVuSans-6f" x="843.091797"/>
      <use xlink:href="#DejaVuSans-6e" x="904.273438"/>
      <use xlink:href="#DejaVuSans-2c" x="967.652344"/>
      <use xlink:href="#DejaVuSans-74" x="999.439453"/>
      <use xlink:href="#DejaVuSans-61" x="1038.648438"/>
      <use xlink:href="#DejaVuSans-72" x="1099.927734"/>
      <use xlink:href="#DejaVuSans-67" x="1139.291016"/>
      <use xlink:href="#DejaVuSans-65" x="1202.767578"/>
      <use xlink:href="#DejaVuSans-74" x="1264.291016"/>
      <use xlink:href="#DejaVuSans-20" x="1303.5"/>
      <use xlink:href="#DejaVuSans-70" x="1335.287109"/>
      <use xlink:href="#DejaVuSans-61" x="1398.763672"/>
      <use xlink:href="#DejaVuSans-69" x="1460.042969"/>
      <use xlink:href="#DejaVuSans-72" x="1487.826172"/>
      <use xlink:href="#DejaVuSans-73" x="1528.939453"/>
     </g>
    </g>
   </g>
   <g id="line2d_33">
    <defs>
     <path id="mddf13b7ebb" d="M 0 1.5 
C 0.397805 1.5 0.77937 1.341951 1.06066 1.06066 
C 1.341951 0.77937 1.5 0.397805 1.5 0 
C 1.5 -0.397805 1.341951 -0.77937 1.06066 -1.06066 
C 0.77937 -1.341951 0.397805 -1.5 0 -1.5 
C -0.397805 -1.5 -0.77937 -1.341951 -1.06066 -1.06066 
C -1.341951 -0.77937 -1.5 -0.397805 -1.5 0 
C -1.5 0.397805 -1.341951 0.77937 -1.06066 1.06066 
C -0.77937 1.341951 -0.397805 1.5 0 1.5 
z
" style="stroke: #f5deb3"/>
    </defs>
    <g>
     <use xlink:href="#mddf13b7ebb" x="310.668708" y="42.157241" style="fill: #f5deb3; stroke: #f5deb3"/>
     <use xlink:href="#mddf13b7ebb" x="310.668708" y="42.157241" style="fill: #f5deb3; stroke: #f5deb3"/>
    </g>
   </g>
   <g id="line2d_34">
    <defs>
     <path id="mbb54cc1f15" d="M 0 1.5 
C 0.397805 1.5 0.77937 1.341951 1.06066 1.06066 
C 1.341951 0.77937 1.5 0.397805 1.5 0 
C 1.5 -0.397805 1.341951 -0.77937 1.06066 -1.06066 
C 0.77937 -1.341951 0.397805 -1.5 0 -1.5 
C -0.397805 -1.5 -0.77937 -1.341951 -1.06066 -1.06066 
C -1.341951 -0.77937 -1.5 -0.397805 -1.5 0 
C -1.5 0.397805 -1.341951 0.77937 -1.06066 1.06066 
C -0.77937 1.341951 -0.397805 1.5 0 1.5 
z
" style="stroke: #000080"/>
    </defs>
    <g>
     <use xlink:href="#mbb54cc1f15" x="187.406824" y="204.914731" style="fill: #000080; stroke: #000080"/>
     <use xlink:href="#mbb54cc1f15" x="187.406824" y="204.914731" style="fill: #000080; stroke: #000080"/>
    </g>
   </g>
   <g id="line2d_35">
    <path d="M 1.245626 298.944 
L 1.245626 287.9928 
L 71.103681 287.9928 
L 71.103681 287.866924 
L 80.342421 287.866924 
L 80.342421 287.741048 
L 112.283321 287.741048 
L 112.283321 287.615172 
L 115.917548 287.615172 
L 115.917548 287.489297 
L 117.501332 287.489297 
L 117.501332 287.363421 
L 120.317502 287.363421 
L 120.317502 287.237545 
L 122.379802 287.237545 
L 122.379802 287.111669 
L 123.880906 287.111669 
L 123.880906 286.985793 
L 126.250102 286.985793 
L 126.250102 286.859917 
L 126.875608 286.859917 
L 126.875608 286.734041 
L 127.18073 286.734041 
L 127.18073 286.48229 
L 128.636246 286.48229 
L 128.636246 286.230538 
L 129.188317 286.230538 
L 129.188317 285.978786 
L 129.458394 285.978786 
L 129.458394 285.475283 
L 129.724648 285.475283 
L 129.724648 285.349407 
L 130.24611 285.349407 
L 130.24611 285.097655 
L 130.501519 285.097655 
L 130.501519 284.845903 
L 130.753507 284.845903 
L 130.753507 284.594152 
L 131.729 284.594152 
L 131.729 284.468276 
L 133.103489 284.468276 
L 133.103489 284.3424 
L 133.540205 284.3424 
L 133.540205 284.090648 
L 133.754819 284.090648 
L 133.754819 283.964772 
L 134.176839 283.964772 
L 134.176839 283.838897 
L 134.384351 283.838897 
L 134.384351 283.587145 
L 134.589598 283.587145 
L 134.589598 283.335393 
L 134.792631 283.335393 
L 134.792631 282.957766 
L 134.993495 282.957766 
L 134.993495 282.580138 
L 135.192238 282.580138 
L 135.192238 282.328386 
L 135.776169 282.328386 
L 135.776169 282.20251 
L 135.966853 282.20251 
L 135.966853 282.076634 
L 136.155623 282.076634 
L 136.155623 281.950759 
L 136.342518 281.950759 
L 136.342518 281.824883 
L 136.527575 281.824883 
L 136.527575 281.447255 
L 136.710829 281.447255 
L 136.710829 281.321379 
L 137.072066 281.321379 
L 137.072066 281.195503 
L 137.250116 281.195503 
L 137.250116 281.069628 
L 137.426497 281.069628 
L 137.426497 280.943752 
L 137.601239 280.943752 
L 137.601239 280.817876 
L 137.774373 280.817876 
L 137.774373 280.692 
L 137.945929 280.692 
L 137.945929 280.440248 
L 138.115933 280.440248 
L 138.115933 280.188497 
L 138.284415 280.188497 
L 138.284415 280.062621 
L 138.451402 280.062621 
L 138.451402 279.810869 
L 138.616919 279.810869 
L 138.616919 279.684993 
L 138.780993 279.684993 
L 138.780993 279.559117 
L 138.943648 279.559117 
L 138.943648 279.055614 
L 139.264798 279.055614 
L 139.264798 278.803862 
L 139.423341 278.803862 
L 139.423341 278.677986 
L 139.580558 278.677986 
L 139.580558 278.55211 
L 139.891105 278.55211 
L 139.891105 278.426234 
L 140.34752 278.426234 
L 140.34752 278.048607 
L 140.49723 278.048607 
L 140.49723 277.922731 
L 140.645758 277.922731 
L 140.645758 277.796855 
L 140.793122 277.796855 
L 140.793122 277.670979 
L 140.939341 277.670979 
L 140.939341 277.419228 
L 141.084433 277.419228 
L 141.084433 277.0416 
L 141.228414 277.0416 
L 141.228414 276.789848 
L 141.513111 276.789848 
L 141.513111 276.663972 
L 141.65386 276.663972 
L 141.65386 276.412221 
L 141.793563 276.412221 
L 141.793563 276.160469 
L 141.932237 276.160469 
L 141.932237 276.034593 
L 142.206555 276.034593 
L 142.206555 275.908717 
L 142.342229 275.908717 
L 142.342229 275.782841 
L 142.610675 275.782841 
L 142.610675 275.53109 
L 142.743475 275.53109 
L 142.743475 275.405214 
L 142.875344 275.405214 
L 142.875344 275.027586 
L 143.136341 275.027586 
L 143.136341 274.775834 
L 143.265494 274.775834 
L 143.265494 274.649959 
L 143.521169 274.649959 
L 143.521169 274.524083 
L 143.647716 274.524083 
L 143.647716 274.020579 
L 143.773417 274.020579 
L 143.773417 273.768828 
L 144.022326 273.768828 
L 144.022326 273.642952 
L 144.145557 273.642952 
L 144.145557 273.517076 
L 144.267986 273.517076 
L 144.267986 273.3912 
L 144.389622 273.3912 
L 144.389622 273.013572 
L 144.630562 273.013572 
L 144.630562 272.384193 
L 144.749884 272.384193 
L 144.749884 272.132441 
L 144.868454 272.132441 
L 144.868454 271.754814 
L 145.219746 271.754814 
L 145.219746 271.377186 
L 145.3354 271.377186 
L 145.3354 271.25131 
L 145.450347 271.25131 
L 145.450347 271.125434 
L 145.564597 271.125434 
L 145.564597 270.999559 
L 145.90324 270.999559 
L 145.90324 270.747807 
L 146.345485 270.747807 
L 146.454441 270.370179 
L 146.562769 270.370179 
L 146.670477 270.118428 
L 146.777571 270.118428 
L 146.88406 269.7408 
L 146.989949 269.7408 
L 147.095245 269.363172 
L 147.199956 269.363172 
L 147.304086 268.859669 
L 147.613064 268.859669 
L 147.714939 268.23029 
L 147.816265 268.23029 
L 147.816265 268.104414 
L 148.017294 268.104414 
L 148.117009 267.726786 
L 148.216198 267.726786 
L 148.314867 267.223283 
L 148.704447 267.223283 
L 148.704447 267.097407 
L 148.896253 267.097407 
L 148.896253 266.971531 
L 149.73597 266.971531 
L 149.73597 266.719779 
L 150.007747 266.719779 
L 150.097474 266.342152 
L 150.275654 266.342152 
L 150.275654 266.0904 
L 150.452162 266.0904 
L 150.539799 265.838648 
L 150.62703 265.838648 
L 150.713857 265.335145 
L 150.88632 265.335145 
L 150.971962 264.831641 
L 151.057216 264.831641 
L 151.142085 264.57989 
L 151.226573 264.57989 
L 151.226573 264.454014 
L 151.477784 264.454014 
L 151.477784 264.076386 
L 151.725684 264.076386 
L 151.725684 263.95051 
L 151.889155 263.95051 
L 151.97036 263.698759 
L 152.051217 263.698759 
L 152.131727 263.321131 
L 152.211895 263.321131 
L 152.211895 263.195255 
L 152.371212 263.195255 
L 152.371212 263.069379 
L 152.529191 263.069379 
L 152.529191 262.943503 
L 152.685854 262.943503 
L 152.685854 262.817628 
L 152.91843 262.817628 
L 152.99532 262.44 
L 153.148165 262.44 
L 153.224124 261.810621 
L 153.52493 261.810621 
L 153.599386 261.432993 
L 153.821002 261.432993 
L 153.894298 261.055366 
L 154.184657 261.055366 
L 154.184657 260.92949 
L 154.328173 260.92949 
L 154.399522 260.425986 
L 154.541415 260.425986 
L 154.611961 260.048359 
L 154.682245 260.048359 
L 154.682245 259.796607 
L 154.822028 259.796607 
L 154.822028 259.670731 
L 154.960781 259.670731 
L 154.960781 259.418979 
L 155.167009 259.418979 
L 155.167009 259.293103 
L 155.303249 259.293103 
L 155.303249 259.167228 
L 155.639595 259.167228 
L 155.639595 259.041352 
L 155.838553 259.041352 
L 155.904407 258.663724 
L 156.230265 258.663724 
L 156.294765 258.034345 
L 156.359044 258.034345 
L 156.423104 257.530841 
L 156.550574 257.530841 
L 156.613987 257.153214 
L 156.677186 257.153214 
L 156.677186 257.027338 
L 156.865521 257.027338 
L 156.927882 256.775586 
L 157.051988 256.775586 
L 157.051988 256.64971 
L 157.175281 256.64971 
L 157.236625 256.397959 
L 157.297771 256.397959 
L 157.358718 256.146207 
L 157.419468 256.146207 
L 157.419468 255.768579 
L 157.540383 255.768579 
L 157.540383 255.642703 
L 157.660526 255.642703 
L 157.660526 255.390952 
L 157.839314 255.390952 
L 157.839314 255.1392 
L 158.133569 255.1392 
L 158.191872 254.761572 
L 158.249994 254.761572 
L 158.249994 254.509821 
L 158.423292 254.509821 
L 158.423292 254.383945 
L 158.877763 254.383945 
L 158.877763 254.132193 
L 159.045398 254.132193 
L 159.15633 253.502814 
L 159.266613 253.502814 
L 159.266613 253.376938 
L 159.485256 253.376938 
L 159.485256 253.125186 
L 159.701388 253.125186 
L 159.808529 252.747559 
L 160.020999 252.747559 
L 160.126341 251.992303 
L 160.231096 251.992303 
L 160.335271 251.4888 
L 160.387143 251.4888 
L 160.387143 251.362924 
L 160.541906 251.362924 
L 160.541906 250.985297 
L 160.695406 250.985297 
L 160.695406 250.733545 
L 160.898144 250.733545 
L 160.898144 250.607669 
L 161.048777 250.607669 
L 161.048777 250.481793 
L 161.198212 250.481793 
L 161.247762 249.97829 
L 161.34647 249.97829 
L 161.34647 249.726538 
L 161.493569 249.726538 
L 161.542347 249.34891 
L 161.736206 249.34891 
L 161.736206 248.971283 
L 161.880299 248.971283 
L 161.880299 248.845407 
L 162.023298 248.845407 
L 162.11803 248.216028 
L 162.165218 248.216028 
L 162.25924 247.712524 
L 162.352794 247.712524 
L 162.399397 247.209021 
L 162.768124 247.209021 
L 162.81371 246.831393 
L 162.904554 246.831393 
L 162.994961 246.453766 
L 163.084935 246.453766 
L 163.084935 246.32789 
L 163.352305 246.32789 
L 163.3965 246.076138 
L 163.528464 246.076138 
L 163.528464 245.950262 
L 163.702988 245.950262 
L 163.789646 245.572634 
L 163.875908 245.572634 
L 163.875908 245.069131 
L 164.047252 245.069131 
L 164.047252 244.943255 
L 164.174745 244.943255 
L 164.259262 244.691503 
L 164.301378 244.691503 
L 164.301378 244.565628 
L 164.427166 244.565628 
L 164.468908 244.062124 
L 164.552117 244.062124 
L 164.593584 243.558621 
L 164.758543 243.558621 
L 164.758543 243.432745 
L 164.922068 243.432745 
L 165.0033 243.055117 
L 165.20486 243.055117 
L 165.284883 242.551614 
L 165.404283 242.551614 
L 165.404283 242.299862 
L 165.640833 242.299862 
L 165.719027 241.796359 
L 165.758002 241.796359 
L 165.835711 241.292855 
L 166.028591 241.292855 
L 166.028591 241.166979 
L 166.143377 241.166979 
L 166.143377 241.041103 
L 166.333144 241.041103 
L 166.408517 240.411724 
L 166.669973 240.411724 
L 166.780922 239.404717 
L 167.037287 239.404717 
L 167.037287 239.152966 
L 167.218289 239.152966 
L 167.326061 238.775338 
L 167.504319 238.775338 
L 167.610468 238.020083 
L 167.960035 238.020083 
L 168.029176 237.516579 
L 168.132413 237.516579 
L 168.235086 236.761324 
L 168.371118 236.761324 
L 168.4725 236.383697 
L 168.706955 236.383697 
L 168.773409 235.880193 
L 168.872652 235.880193 
L 168.872652 235.754317 
L 169.004166 235.754317 
L 169.102202 235.250814 
L 169.134768 235.250814 
L 169.19973 234.74731 
L 169.264469 234.74731 
L 169.361161 233.740303 
L 169.584862 233.740303 
L 169.584862 233.488552 
L 169.805934 233.488552 
L 169.837305 232.985048 
L 170.024438 232.985048 
L 170.024438 232.859172 
L 170.301693 232.859172 
L 170.332249 232.481545 
L 170.453976 232.481545 
L 170.453976 232.355669 
L 170.844238 232.355669 
L 170.93316 231.600414 
L 171.021664 231.600414 
L 171.080436 231.09691 
L 171.255658 231.09691 
L 171.313705 230.593407 
L 171.458043 230.593407 
L 171.515469 229.964028 
L 171.629799 229.964028 
L 171.629799 229.712276 
L 171.856394 229.712276 
L 171.856394 229.208772 
L 172.108093 229.208772 
L 172.163572 228.831145 
L 172.246485 228.831145 
L 172.329033 227.950014 
L 172.547409 227.950014 
L 172.547409 227.698262 
L 172.709542 227.698262 
L 172.736429 227.320634 
L 172.896949 227.320634 
L 172.950152 226.943007 
L 173.082507 226.943007 
L 173.082507 226.691255 
L 173.213936 226.691255 
L 173.213936 226.565379 
L 173.396409 226.565379 
L 173.422332 226.187752 
L 173.551417 226.187752 
L 173.628445 225.684248 
L 173.679622 225.684248 
L 173.679622 225.558372 
L 173.832324 225.558372 
L 173.857654 225.054869 
L 173.958635 225.054869 
L 174.034017 224.677241 
L 174.158985 224.677241 
L 174.258366 224.173738 
L 174.30786 224.173738 
L 174.406459 223.79611 
L 174.528986 223.79611 
L 174.528986 223.670234 
L 174.674972 223.670234 
L 174.747543 223.418483 
L 174.867875 223.418483 
L 174.939706 222.663228 
L 175.035057 222.663228 
L 175.106254 222.033848 
L 175.458253 222.033848 
L 175.458253 221.782097 
L 175.689313 221.782097 
L 175.735186 221.404469 
L 175.803787 221.404469 
L 175.826598 221.026841 
L 176.143088 221.026841 
L 176.232544 220.77509 
L 176.254842 220.77509 
L 176.254842 220.523338 
L 176.41019 220.523338 
L 176.41019 220.271586 
L 176.542332 220.271586 
L 176.542332 220.14571 
L 176.695334 220.14571 
L 176.71709 219.768083 
L 176.911772 219.768083 
L 176.911772 219.642207 
L 177.210661 219.642207 
L 177.295193 219.138703 
L 177.337316 219.138703 
L 177.421282 218.6352 
L 177.484012 218.6352 
L 177.525715 218.005821 
L 177.670954 218.005821 
L 177.670954 217.754069 
L 177.856058 217.754069 
L 177.856058 217.502317 
L 178.019078 217.502317 
L 178.039357 217.12469 
L 178.160572 217.12469 
L 178.260991 216.621186 
L 178.301009 216.621186 
L 178.301009 216.49531 
L 178.420555 216.49531 
L 178.420555 216.243559 
L 178.618125 216.243559 
L 178.618125 215.991807 
L 179.21773 215.991807 
L 179.236757 215.614179 
L 179.463598 215.614179 
L 179.538607 214.858924 
L 179.594669 214.858924 
L 179.613319 214.481297 
L 179.743355 214.481297 
L 179.798811 213.977793 
L 179.890875 213.977793 
L 179.890875 213.726041 
L 180.308663 213.726041 
L 180.398272 212.719034 
L 180.664564 212.719034 
L 180.770035 212.215531 
L 180.979218 212.215531 
L 181.031152 211.837903 
L 181.220361 211.837903 
L 181.220361 211.712028 
L 181.626691 211.712028 
L 181.726916 211.3344 
L 182.057197 211.3344 
L 182.057197 211.082648 
L 182.187703 211.082648 
L 182.203953 210.830897 
L 182.557941 210.830897 
L 182.557941 210.579145 
L 182.66919 210.579145 
L 182.66919 210.075641 
L 182.811266 210.075641 
L 182.826986 209.82389 
L 183.231165 209.82389 
L 183.261899 209.446262 
L 183.866264 209.446262 
L 183.940462 209.068634 
L 184.161317 209.068634 
L 184.161317 208.691007 
L 184.278055 208.691007 
L 184.37961 208.187503 
L 184.466222 208.187503 
L 184.466222 208.061628 
L 184.709481 208.061628 
L 184.752084 207.558124 
L 184.865224 207.558124 
L 184.949634 207.180497 
L 185.434618 207.180497 
L 185.461958 206.928745 
L 185.786967 206.928745 
L 185.880714 206.551117 
L 186.093253 206.551117 
L 186.093253 206.425241 
L 186.211759 206.425241 
L 186.211759 206.17349 
L 186.407626 206.17349 
L 186.407626 206.047614 
L 186.640005 206.047614 
L 186.640005 205.795862 
L 186.755127 205.795862 
L 186.793345 205.54411 
L 187.021036 205.54411 
L 187.108844 205.292359 
L 187.208696 205.292359 
L 187.208696 205.166483 
L 187.394502 205.166483 
L 187.406824 204.914731 
L 360.8064 204.914731 
L 360.8064 204.914731 
" style="fill: none; stroke: #000080; stroke-width: 1.5; stroke-linecap: square"/>
   </g>
   <g id="line2d_36">
    <defs>
     <path id="m53a5490be7" d="M 0 6 
C 1.591219 6 3.117479 5.367802 4.242641 4.242641 
C 5.367802 3.117479 6 1.591219 6 0 
C 6 -1.591219 5.367802 -3.117479 4.242641 -4.242641 
C 3.117479 -5.367802 1.591219 -6 0 -6 
C -1.591219 -6 -3.117479 -5.367802 -4.242641 -4.242641 
C -5.367802 -3.117479 -6 -1.591219 -6 0 
C -6 1.591219 -5.367802 3.117479 -4.242641 4.242641 
C -3.117479 5.367802 -1.591219 6 0 6 
z
" style="stroke: #000080; stroke-width: 1.5"/>
    </defs>
    <g>
     <use xlink:href="#m53a5490be7" x="123.880906" y="287.111669" style="fill-opacity: 0; stroke: #000080; stroke-width: 1.5"/>
     <use xlink:href="#m53a5490be7" x="180.979218" y="212.215531" style="fill-opacity: 0; stroke: #000080; stroke-width: 1.5"/>
     <use xlink:href="#m53a5490be7" x="187.406824" y="204.914731" style="fill-opacity: 0; stroke: #000080; stroke-width: 1.5"/>
     <use xlink:href="#m53a5490be7" x="187.406824" y="204.914731" style="fill-opacity: 0; stroke: #000080; stroke-width: 1.5"/>
     <use xlink:href="#m53a5490be7" x="360.8064" y="204.914731" style="fill-opacity: 0; stroke: #000080; stroke-width: 1.5"/>
    </g>
   </g>
   <g id="line2d_37">
    <path style="fill: none; stroke: #000080; stroke-width: 1.5; stroke-linecap: square"/>
    <g/>
   </g>
   <g id="line2d_38">
    <path d="M 187.540897 204.914731 
" clip-path="url(#p644be08887)" style="fill: none; stroke: #000080; stroke-width: 1.5; stroke-linecap: square"/>
    <defs>
     <path id="mb16a491835" d="M -12 12 
L 12 -12 
M -12 -12 
L 12 12 
" style="stroke: #000080"/>
    </defs>
    <g clip-path="url(#p644be08887)">
     <use xlink:href="#mb16a491835" x="187.540897" y="204.914731" style="fill: #000080; stroke: #000080"/>
    </g>
   </g>
   <g id="line2d_39">
    <defs>
     <path id="meb8d712fea" d="M 0 1.5 
C 0.397805 1.5 0.77937 1.341951 1.06066 1.06066 
C 1.341951 0.77937 1.5 0.397805 1.5 0 
C 1.5 -0.397805 1.341951 -0.77937 1.06066 -1.06066 
C 0.77937 -1.341951 0.397805 -1.5 0 -1.5 
C -0.397805 -1.5 -0.77937 -1.341951 -1.06066 -1.06066 
C -1.341951 -0.77937 -1.5 -0.397805 -1.5 0 
C -1.5 0.397805 -1.341951 0.77937 -1.06066 1.06066 
C -0.77937 1.341951 -0.397805 1.5 0 1.5 
z
" style="stroke: #ff00ff"/>
    </defs>
    <g>
     <use xlink:href="#meb8d712fea" x="186.964856" y="201.012579" style="fill: #ff00ff; stroke: #ff00ff"/>
     <use xlink:href="#meb8d712fea" x="186.964856" y="201.012579" style="fill: #ff00ff; stroke: #ff00ff"/>
    </g>
   </g>
   <g id="line2d_40">
    <path d="M 1.245626 298.944 
L 1.245626 287.9928 
L 57.6 287.9928 
L 57.6 287.866924 
L 69.674268 287.866924 
L 69.674268 287.741048 
L 102.362957 287.741048 
L 102.362957 287.615172 
L 105.411479 287.615172 
L 105.411479 287.489297 
L 105.850679 287.489297 
L 105.850679 287.363421 
L 115.83262 287.363421 
L 115.83262 287.237545 
L 117.226706 287.237545 
L 117.226706 287.111669 
L 117.733577 287.111669 
L 117.733577 286.985793 
L 118.561419 286.985793 
L 118.561419 286.859917 
L 118.708098 286.859917 
L 118.708098 286.734041 
L 119.177058 286.734041 
L 119.177058 286.608166 
L 119.599808 286.608166 
L 119.599808 286.48229 
L 120.517626 286.48229 
L 120.517626 286.356414 
L 121.706797 286.356414 
L 121.706797 286.230538 
L 121.923558 286.230538 
L 121.923558 285.978786 
L 122.971409 285.978786 
L 122.971409 285.85291 
L 123.231681 285.85291 
L 123.231681 285.727034 
L 123.4884 285.727034 
L 123.4884 285.601159 
L 123.685677 285.601159 
L 123.685677 285.475283 
L 124.07413 285.475283 
L 124.07413 285.349407 
L 124.454723 285.349407 
L 124.454723 285.223531 
L 125.037663 285.223531 
L 125.037663 285.097655 
L 125.271028 285.097655 
L 125.348177 284.845903 
L 125.628382 284.845903 
L 125.628382 284.720028 
L 126.053378 284.720028 
L 126.053378 284.594152 
L 126.201114 284.594152 
L 126.201114 284.468276 
L 126.589495 284.468276 
L 126.589495 284.3424 
L 126.733095 284.3424 
L 126.733095 284.216524 
L 126.851931 284.216524 
L 126.851931 284.090648 
L 127.134109 284.090648 
L 127.134109 283.964772 
L 128.067481 283.964772 
L 128.067481 283.838897 
L 128.50651 283.838897 
L 128.5931 283.587145 
L 128.786481 283.587145 
L 128.786481 283.461269 
L 129.375706 283.461269 
L 129.437756 283.209517 
L 129.60223 283.209517 
L 129.60223 283.083641 
L 129.906795 283.083641 
L 129.906795 282.957766 
L 130.656987 282.957766 
L 130.656987 282.83189 
L 130.791976 282.83189 
L 130.86868 282.328386 
L 130.945072 282.328386 
L 130.983152 281.950759 
L 131.303758 281.950759 
L 131.303758 281.824883 
L 131.452761 281.824883 
L 131.452761 281.573131 
L 132.180571 281.573131 
L 132.19841 281.321379 
L 132.340519 281.321379 
L 132.340519 281.195503 
L 132.551689 281.195503 
L 132.551689 281.069628 
L 132.673786 281.069628 
L 132.673786 280.943752 
L 132.795096 280.943752 
L 132.881269 280.566124 
L 133.035392 280.566124 
L 133.035392 280.440248 
L 133.30631 280.440248 
L 133.30631 280.314372 
L 133.457005 280.314372 
L 133.457005 280.188497 
L 133.639562 280.188497 
L 133.689044 279.810869 
L 133.918257 279.810869 
L 134.015642 279.433241 
L 134.160781 279.433241 
L 134.160781 279.307366 
L 134.542432 279.307366 
L 134.542432 279.055614 
L 134.667947 279.055614 
L 134.667947 278.929738 
L 134.839175 278.929738 
L 134.885604 278.55211 
L 134.962732 278.55211 
L 135.039546 278.300359 
L 135.35878 278.300359 
L 135.449003 278.048607 
L 135.672686 278.048607 
L 135.687504 277.796855 
L 136.010584 277.796855 
L 136.010584 277.670979 
L 136.299553 277.670979 
L 136.371107 277.293352 
L 136.44239 277.293352 
L 136.44239 276.915724 
L 136.612375 276.915724 
L 136.612375 276.789848 
L 136.933948 276.789848 
L 136.933948 276.663972 
L 137.358854 276.663972 
L 137.453486 276.412221 
L 137.534223 276.412221 
L 137.534223 276.286345 
L 137.707972 276.286345 
L 137.707972 276.160469 
L 137.827326 276.160469 
L 137.906478 275.908717 
L 137.998402 275.908717 
L 137.998402 275.782841 
L 138.115933 275.782841 
L 138.206842 275.53109 
L 138.271509 275.53109 
L 138.271509 275.405214 
L 138.425808 275.405214 
L 138.527976 275.153462 
L 138.629591 275.153462 
L 138.692823 274.90171 
L 138.755844 274.90171 
L 138.755844 274.649959 
L 138.968547 274.649959 
L 138.968547 274.524083 
L 139.166565 274.524083 
L 139.166565 274.398207 
L 139.289277 274.398207 
L 139.313723 274.020579 
L 139.423341 274.020579 
L 139.459738 273.768828 
L 139.973845 273.768828 
L 140.009194 273.265324 
L 140.382174 273.265324 
L 140.428281 272.887697 
L 140.543056 272.887697 
L 140.58877 272.635945 
L 140.747902 272.635945 
L 140.793122 272.258317 
L 140.928134 272.258317 
L 140.928134 272.132441 
L 141.128852 272.132441 
L 141.128852 272.006566 
L 141.261484 272.006566 
L 141.360348 271.503062 
L 141.491363 271.503062 
L 141.56737 271.125434 
L 141.739954 271.125434 
L 141.772138 270.747807 
L 142.027647 270.747807 
L 142.027647 270.621931 
L 142.185595 270.621931 
L 142.279732 270.244303 
L 142.300587 270.244303 
L 142.321419 269.7408 
L 142.445931 269.7408 
L 142.445931 269.614924 
L 142.743475 269.614924 
L 142.773988 269.363172 
L 143.403597 269.363172 
L 143.47227 269.111421 
L 143.569942 269.111421 
L 143.647716 268.859669 
L 143.686483 268.859669 
L 143.686483 268.733793 
L 143.811926 268.733793 
L 143.83115 268.356166 
L 143.936538 268.356166 
L 143.936538 268.23029 
L 144.192739 268.23029 
L 144.27737 267.978538 
L 144.584466 267.978538 
L 144.676545 267.60091 
L 144.759032 267.60091 
L 144.759032 267.349159 
L 144.922928 267.349159 
L 144.959156 266.971531 
L 145.201889 266.971531 
L 145.246498 266.468028 
L 145.361989 266.468028 
L 145.397382 266.0904 
L 145.520737 266.0904 
L 145.520737 265.964524 
L 145.79969 265.964524 
L 145.842905 265.461021 
L 145.911844 265.461021 
L 146.01478 264.957517 
L 146.159649 264.957517 
L 146.227438 264.705766 
L 146.571076 264.705766 
L 146.595975 264.202262 
L 147.359919 264.202262 
L 147.359919 264.076386 
L 147.722752 264.076386 
L 147.722752 263.95051 
L 147.932506 263.95051 
L 148.009602 263.321131 
L 148.086384 263.321131 
L 148.086384 263.195255 
L 148.200973 263.195255 
L 148.307296 262.817628 
L 148.4356 262.817628 
L 148.533127 262.565876 
L 148.689612 262.565876 
L 148.689612 262.44 
L 149.093387 262.44 
L 149.093387 262.314124 
L 149.46733 262.314124 
L 149.538397 262.062372 
L 149.73597 262.062372 
L 149.813023 261.684745 
L 150.72718 261.684745 
L 150.787015 261.432993 
L 150.998235 261.432993 
L 151.096434 260.803614 
L 151.258968 260.803614 
L 151.258968 260.677738 
L 151.477784 260.677738 
L 151.554409 260.425986 
L 151.675098 260.425986 
L 151.675098 260.174234 
L 151.826449 260.174234 
L 151.826449 259.922483 
L 152.0015 259.922483 
L 152.088418 259.544855 
L 152.119363 259.544855 
L 152.119363 259.418979 
L 152.236493 259.418979 
L 152.236493 259.293103 
L 152.53524 259.293103 
L 152.595631 258.915476 
L 152.709841 258.915476 
L 152.817404 258.411972 
L 152.876897 258.411972 
L 152.882835 258.034345 
L 153.071898 258.034345 
L 153.107137 257.656717 
L 153.334593 257.656717 
L 153.369343 257.27909 
L 153.576508 257.27909 
L 153.576508 257.153214 
L 153.741748 257.153214 
L 153.741748 256.901462 
L 154.090224 256.901462 
L 154.090224 256.775586 
L 154.333671 256.775586 
L 154.333671 256.64971 
L 154.492419 256.64971 
L 154.601125 256.146207 
L 154.606544 256.146207 
L 154.693034 255.768579 
L 154.992656 255.768579 
L 155.087958 254.887448 
L 155.13016 254.887448 
L 155.161749 254.635697 
L 155.271897 254.635697 
L 155.271897 254.509821 
L 155.485105 254.509821 
L 155.485105 254.258069 
L 155.603661 254.258069 
L 155.603661 254.006317 
L 155.746987 254.006317 
L 155.762279 253.62869 
L 156.025382 253.62869 
L 156.025382 253.502814 
L 156.190463 253.502814 
L 156.269983 252.873434 
L 156.359044 252.873434 
L 156.359044 252.747559 
L 156.570108 252.747559 
L 156.667477 252.495807 
L 156.691741 252.495807 
L 156.788483 251.866428 
L 156.831855 251.866428 
L 156.831855 251.614676 
L 157.104249 251.614676 
L 157.104249 251.362924 
L 157.231914 251.362924 
L 157.231914 251.111172 
L 157.948499 251.111172 
L 157.993806 250.859421 
L 158.0931 250.859421 
L 158.0931 250.733545 
L 158.50274 250.733545 
L 158.50274 250.607669 
L 158.621287 250.607669 
L 158.686825 250.104166 
L 158.97251 250.104166 
L 158.97251 249.97829 
L 159.418251 249.97829 
L 159.522842 249.600662 
L 159.824959 249.600662 
L 159.865969 249.223034 
L 160.020999 249.223034 
L 160.037244 248.845407 
L 160.162668 248.845407 
L 160.198926 248.467779 
L 160.375185 248.467779 
L 160.454761 247.964276 
L 160.561656 247.964276 
L 160.608971 247.586648 
L 160.75802 247.586648 
L 160.859326 247.209021 
L 160.878745 247.209021 
L 160.940753 246.831393 
L 161.068002 246.831393 
L 161.106392 246.579641 
L 161.22872 246.579641 
L 161.338896 245.824386 
L 161.478535 245.824386 
L 161.478535 245.69851 
L 161.632069 245.69851 
L 161.695363 245.069131 
L 161.865571 245.069131 
L 161.865571 244.943255 
L 162.085292 244.943255 
L 162.085292 244.691503 
L 162.197817 244.691503 
L 162.219518 244.188 
L 162.331246 244.188 
L 162.417291 243.684497 
L 162.6625 243.684497 
L 162.729464 243.306869 
L 162.789177 243.306869 
L 162.789177 243.180993 
L 162.921974 243.180993 
L 163.012297 242.929241 
L 163.301182 242.929241 
L 163.3965 242.425738 
L 163.59914 242.425738 
L 163.59914 242.173986 
L 163.7397 242.173986 
L 163.7397 242.04811 
L 164.040691 242.04811 
L 164.132343 241.670483 
L 164.268989 241.670483 
L 164.298142 241.418731 
L 164.510559 241.418731 
L 164.606324 240.789352 
L 164.650849 240.789352 
L 164.676244 240.411724 
L 165.071763 240.411724 
L 165.158538 239.530593 
L 165.254146 239.530593 
L 165.254146 239.404717 
L 165.535057 239.404717 
L 165.616708 239.152966 
L 165.661918 239.152966 
L 165.758002 238.901214 
L 165.796897 238.901214 
L 165.886348 238.145959 
L 165.978336 238.145959 
L 166.061038 237.390703 
L 166.201971 237.390703 
L 166.225357 236.8872 
L 166.809266 236.8872 
L 166.888401 236.635448 
L 167.173896 236.635448 
L 167.279159 236.131945 
L 167.339833 236.131945 
L 167.424997 235.754317 
L 167.466067 235.754317 
L 167.564271 234.74731 
L 167.59146 234.74731 
L 167.670084 234.369683 
L 168.037137 234.369683 
L 168.142969 233.740303 
L 168.166699 233.740303 
L 168.261323 233.110924 
L 168.331979 233.110924 
L 168.397165 232.733297 
L 168.532034 232.733297 
L 168.532034 232.481545 
L 168.714635 232.481545 
L 168.804001 231.978041 
L 168.847255 231.978041 
L 168.941053 231.72629 
L 169.001646 231.72629 
L 169.102202 231.348662 
L 169.309158 231.348662 
L 169.336415 230.719283 
L 169.422883 230.719283 
L 169.422883 230.467531 
L 169.589749 230.467531 
L 169.594634 230.089903 
L 169.713934 230.089903 
L 169.713934 229.838152 
L 170.110183 229.838152 
L 170.110183 229.712276 
L 170.325202 229.712276 
L 170.369787 229.082897 
L 170.439971 229.082897 
L 170.49593 228.579393 
L 170.702004 228.579393 
L 170.803055 228.07589 
L 170.89673 228.07589 
L 170.962708 227.698262 
L 171.105246 227.698262 
L 171.197432 227.194759 
L 171.552922 227.194759 
L 171.552922 226.943007 
L 171.769565 226.943007 
L 171.854228 226.691255 
L 172.116639 226.691255 
L 172.116639 226.565379 
L 172.276159 226.565379 
L 172.35436 225.810124 
L 172.438538 225.810124 
L 172.536968 225.180745 
L 172.630729 225.180745 
L 172.666028 224.677241 
L 172.990976 224.677241 
L 173.10076 224.299614 
L 173.112918 224.299614 
L 173.195793 223.921986 
L 173.226022 223.921986 
L 173.334447 223.166731 
L 173.432294 223.166731 
L 173.432294 223.040855 
L 173.577128 223.040855 
L 173.673724 222.537352 
L 173.732621 222.537352 
L 173.732621 222.2856 
L 173.912096 222.2856 
L 173.931501 221.907972 
L 174.099488 221.907972 
L 174.099488 221.782097 
L 174.279322 221.782097 
L 174.300254 221.404469 
L 174.453679 221.404469 
L 174.513949 221.026841 
L 175.071602 221.026841 
L 175.171736 220.397462 
L 175.193513 220.397462 
L 175.238801 219.893959 
L 175.476128 219.893959 
L 175.567027 219.264579 
L 175.775673 219.264579 
L 175.88438 218.509324 
L 175.903602 218.509324 
L 175.994201 218.005821 
L 176.079176 218.005821 
L 176.079176 217.754069 
L 176.205064 217.754069 
L 176.249698 217.502317 
L 176.423786 217.502317 
L 176.503464 216.998814 
L 176.537267 216.998814 
L 176.629914 216.49531 
L 176.815515 216.49531 
L 176.847101 215.991807 
L 176.941545 215.991807 
L 177.028937 215.614179 
L 177.058525 215.614179 
L 177.099543 215.362428 
L 177.184574 215.362428 
L 177.184574 215.110676 
L 177.343789 215.110676 
L 177.343789 214.9848 
L 177.512893 214.9848 
L 177.54013 214.481297 
L 178.020639 214.481297 
L 178.126462 213.851917 
L 178.148176 213.851917 
L 178.244035 213.47429 
L 178.268694 213.47429 
L 178.368539 213.222538 
L 178.431246 213.222538 
L 178.492224 212.593159 
L 178.545418 212.593159 
L 178.651356 212.215531 
L 178.882341 212.215531 
L 178.916597 211.837903 
L 179.081046 211.837903 
L 179.164938 211.3344 
L 179.241145 211.3344 
L 179.260149 210.830897 
L 179.414391 210.830897 
L 179.505467 210.327393 
L 179.542926 210.327393 
L 179.578874 210.075641 
L 179.667729 210.075641 
L 179.667729 209.82389 
L 179.938853 209.82389 
L 179.982491 209.572138 
L 180.084854 209.572138 
L 180.084854 209.320386 
L 180.220014 209.320386 
L 180.238055 209.068634 
L 180.348695 209.068634 
L 180.350074 208.691007 
L 180.465542 208.691007 
L 180.494298 208.439255 
L 180.709259 208.439255 
L 180.807752 208.061628 
L 180.842708 208.061628 
L 180.951194 207.432248 
L 181.040459 207.432248 
L 181.067023 207.180497 
L 181.29263 207.180497 
L 181.365929 206.928745 
L 181.507785 206.928745 
L 181.507785 206.802869 
L 181.642145 206.802869 
L 181.74997 206.17349 
L 181.769159 206.17349 
L 181.810032 205.921738 
L 181.92578 205.921738 
L 181.996657 205.292359 
L 182.121308 205.292359 
L 182.226429 204.662979 
L 182.345852 204.662979 
L 182.345852 204.411228 
L 182.62648 204.411228 
L 182.717884 204.0336 
L 183.082701 204.0336 
L 183.138661 203.781848 
L 183.674278 203.781848 
L 183.674278 203.655972 
L 183.884555 203.655972 
L 183.993932 203.404221 
L 184.017773 203.404221 
L 184.017773 203.278345 
L 184.23212 203.278345 
L 184.327227 203.026593 
L 184.54582 203.026593 
L 184.656913 202.774841 
L 184.946394 202.774841 
L 184.946394 202.648966 
L 185.385096 202.648966 
L 185.467211 202.271338 
L 185.630372 202.271338 
L 185.630372 202.145462 
L 185.866322 202.145462 
L 185.908439 201.89371 
L 186.263183 201.89371 
L 186.357598 201.641959 
L 186.503308 201.641959 
L 186.503308 201.390207 
L 186.685351 201.390207 
L 186.685351 201.264331 
L 186.964856 201.264331 
L 186.964856 201.012579 
L 360.8064 201.012579 
L 360.8064 201.012579 
" style="fill: none; stroke: #ff00ff; stroke-width: 1.5; stroke-linecap: square"/>
   </g>
   <g id="line2d_41">
    <defs>
     <path id="m4071b7b802" d="M -0 8.485281 
L 5.091169 0 
L 0 -8.485281 
L -5.091169 -0 
z
" style="stroke: #ff00ff; stroke-width: 1.5; stroke-linejoin: miter"/>
    </defs>
    <g>
     <use xlink:href="#m4071b7b802" x="160.162668" y="248.845407" style="fill-opacity: 0; stroke: #ff00ff; stroke-width: 1.5; stroke-linejoin: miter"/>
     <use xlink:href="#m4071b7b802" x="186.964856" y="201.264331" style="fill-opacity: 0; stroke: #ff00ff; stroke-width: 1.5; stroke-linejoin: miter"/>
     <use xlink:href="#m4071b7b802" x="186.964856" y="201.012579" style="fill-opacity: 0; stroke: #ff00ff; stroke-width: 1.5; stroke-linejoin: miter"/>
     <use xlink:href="#m4071b7b802" x="186.964856" y="201.012579" style="fill-opacity: 0; stroke: #ff00ff; stroke-width: 1.5; stroke-linejoin: miter"/>
     <use xlink:href="#m4071b7b802" x="360.8064" y="201.012579" style="fill-opacity: 0; stroke: #ff00ff; stroke-width: 1.5; stroke-linejoin: miter"/>
    </g>
   </g>
   <g id="line2d_42">
    <path style="fill: none; stroke: #ff00ff; stroke-width: 1.5; stroke-linecap: square"/>
    <g/>
   </g>
   <g id="line2d_43">
    <path d="M 187.539956 201.012579 
" clip-path="url(#p644be08887)" style="fill: none; stroke: #ff00ff; stroke-width: 1.5; stroke-linecap: square"/>
    <defs>
     <path id="m184e5764b3" d="M -12 12 
L 12 -12 
M -12 -12 
L 12 12 
" style="stroke: #ff00ff"/>
    </defs>
    <g clip-path="url(#p644be08887)">
     <use xlink:href="#m184e5764b3" x="187.539956" y="201.012579" style="fill: #ff00ff; stroke: #ff00ff"/>
    </g>
   </g>
   <g id="line2d_44">
    <defs>
     <path id="m8c1717c26e" d="M 0 1.5 
C 0.397805 1.5 0.77937 1.341951 1.06066 1.06066 
C 1.341951 0.77937 1.5 0.397805 1.5 0 
C 1.5 -0.397805 1.341951 -0.77937 1.06066 -1.06066 
C 0.77937 -1.341951 0.397805 -1.5 0 -1.5 
C -0.397805 -1.5 -0.77937 -1.341951 -1.06066 -1.06066 
C -1.341951 -0.77937 -1.5 -0.397805 -1.5 0 
C -1.5 0.397805 -1.341951 0.77937 -1.06066 1.06066 
C -0.77937 1.341951 -0.397805 1.5 0 1.5 
z
" style="stroke: #ff7500"/>
    </defs>
    <g>
     <use xlink:href="#m8c1717c26e" x="218.710757" y="192.453021" style="fill: #ff7500; stroke: #ff7500"/>
     <use xlink:href="#m8c1717c26e" x="218.710757" y="192.453021" style="fill: #ff7500; stroke: #ff7500"/>
    </g>
   </g>
   <g id="line2d_45">
    <path d="M 1.245626 298.944 
L 1.245626 287.9928 
L 79.184421 287.9928 
L 79.184421 287.866924 
L 90.505165 287.866924 
L 90.505165 287.741048 
L 101.743226 287.741048 
L 101.743226 287.615172 
L 106.630177 287.615172 
L 106.630177 287.489297 
L 108.353566 287.489297 
L 108.353566 287.363421 
L 111.388617 287.363421 
L 111.388617 287.237545 
L 113.381389 287.237545 
L 113.381389 287.111669 
L 121.455972 287.111669 
L 121.455972 286.985793 
L 124.481616 286.985793 
L 124.481616 286.859917 
L 124.827769 286.859917 
L 124.827769 286.734041 
L 126.78072 286.734041 
L 126.78072 286.608166 
L 130.16682 286.608166 
L 130.16682 286.48229 
L 130.926003 286.48229 
L 130.926003 286.356414 
L 132.358208 286.356414 
L 132.358208 286.230538 
L 135.328609 286.230538 
L 135.328609 286.104662 
L 136.097741 286.104662 
L 136.097741 285.978786 
L 136.470828 285.978786 
L 136.470828 285.85291 
L 137.893309 285.85291 
L 137.893309 285.727034 
L 138.063788 285.727034 
L 138.063788 285.601159 
L 138.566146 285.601159 
L 138.566146 285.475283 
L 138.730661 285.475283 
L 138.730661 285.223531 
L 138.89375 285.223531 
L 138.89375 285.097655 
L 139.843661 285.097655 
L 139.843661 284.971779 
L 140.14993 284.971779 
L 140.14993 284.845903 
L 140.301214 284.845903 
L 140.301214 284.720028 
L 140.451292 284.720028 
L 140.451292 284.594152 
L 140.600182 284.594152 
L 140.600182 284.468276 
L 140.747902 284.468276 
L 140.747902 284.3424 
L 140.894472 284.3424 
L 140.894472 283.964772 
L 141.750688 283.964772 
L 141.750688 283.838897 
L 142.300587 283.838897 
L 142.300587 283.713021 
L 143.225848 283.713021 
L 143.225848 283.587145 
L 143.734829 283.587145 
L 143.734829 283.461269 
L 143.888708 283.461269 
L 143.984246 283.209517 
L 144.352279 283.209517 
L 144.352279 283.083641 
L 144.832051 283.083641 
L 144.832051 282.83189 
L 144.950106 282.83189 
L 145.058426 282.580138 
L 145.067425 282.580138 
L 145.067425 282.20251 
L 145.529517 282.20251 
L 145.529517 281.950759 
L 145.868787 281.950759 
L 145.868787 281.824883 
L 145.98053 281.824883 
L 146.057504 281.573131 
L 146.185098 281.573131 
L 146.185098 281.447255 
L 146.420983 281.447255 
L 146.529503 281.069628 
L 146.637401 281.069628 
L 146.637401 280.817876 
L 146.851358 280.817876 
L 146.851358 280.692 
L 147.167799 280.692 
L 147.167799 280.566124 
L 147.304086 280.566124 
L 147.312072 280.314372 
L 147.605204 280.314372 
L 147.683651 280.062621 
L 147.831805 280.062621 
L 147.886095 279.810869 
L 147.986506 279.810869 
L 147.986506 279.684993 
L 148.185734 279.684993 
L 148.284563 279.307366 
L 148.352679 279.307366 
L 148.382875 279.055614 
L 148.57797 279.055614 
L 148.57797 278.929738 
L 148.771063 278.929738 
L 148.771063 278.803862 
L 148.888912 278.803862 
L 148.962194 278.55211 
L 149.216458 278.55211 
L 149.324384 277.922731 
L 149.524205 277.922731 
L 149.524205 277.796855 
L 149.889763 277.796855 
L 149.889763 277.670979 
L 150.069911 277.670979 
L 150.159343 277.419228 
L 150.248351 277.419228 
L 150.248351 277.293352 
L 150.600232 277.293352 
L 150.600232 277.167476 
L 150.773735 277.167476 
L 150.85989 276.663972 
L 150.945652 276.663972 
L 151.024471 276.412221 
L 151.116012 276.412221 
L 151.200617 276.160469 
L 151.284843 276.160469 
L 151.368694 275.908717 
L 151.452172 275.908717 
L 151.452172 275.782841 
L 151.618026 275.782841 
L 151.700408 275.405214 
L 151.851557 275.405214 
L 151.851557 275.153462 
L 152.346789 275.153462 
L 152.456442 274.775834 
L 152.583568 274.775834 
L 152.661837 274.398207 
L 152.817404 274.398207 
L 152.894708 273.894703 
L 153.276532 273.894703 
L 153.351976 273.517076 
L 153.427118 273.517076 
L 153.501961 273.013572 
L 153.576508 273.013572 
L 153.576508 272.761821 
L 153.798392 272.761821 
L 153.798392 272.635945 
L 153.944874 272.635945 
L 154.017689 272.384193 
L 154.168026 272.384193 
L 154.234459 272.006566 
L 154.306165 272.006566 
L 154.377597 271.628938 
L 154.590283 271.628938 
L 154.590283 271.377186 
L 154.80059 271.377186 
L 154.880856 270.370179 
L 154.939501 270.370179 
L 155.008573 269.614924 
L 155.077392 269.614924 
L 155.145961 269.237297 
L 155.282353 269.237297 
L 155.350181 268.733793 
L 155.552207 268.733793 
L 155.619069 268.356166 
L 155.685695 268.356166 
L 155.752086 268.104414 
L 155.848699 268.104414 
L 155.884169 267.852662 
L 156.08057 267.852662 
L 156.08057 267.726786 
L 156.274942 267.726786 
L 156.339289 267.349159 
L 156.817409 267.349159 
L 156.908716 266.719779 
L 156.970935 266.719779 
L 157.032948 266.342152 
L 157.400797 266.342152 
L 157.489322 265.712772 
L 157.521831 265.712772 
L 157.582058 265.209269 
L 157.642093 265.209269 
L 157.642093 265.083393 
L 157.821055 265.083393 
L 157.880333 264.831641 
L 157.939424 264.831641 
L 157.998331 264.57989 
L 158.061563 264.57989 
L 158.061563 264.454014 
L 158.173952 264.454014 
L 158.214248 264.202262 
L 158.347948 264.202262 
L 158.370139 263.95051 
L 158.463058 263.95051 
L 158.529148 263.572883 
L 158.590624 263.572883 
L 158.590624 263.447007 
L 158.821551 263.447007 
L 158.91658 262.943503 
L 158.942415 262.943503 
L 158.942415 262.817628 
L 159.083872 262.817628 
L 159.194578 262.565876 
L 159.304637 262.565876 
L 159.304637 262.314124 
L 159.510322 262.314124 
L 159.510322 262.062372 
L 159.631002 262.062372 
L 159.688986 261.558869 
L 159.792086 261.558869 
L 159.898714 260.92949 
L 160.00474 260.92949 
L 160.110173 260.551862 
L 160.215018 260.551862 
L 160.267222 260.30011 
L 160.36322 260.30011 
L 160.36322 260.174234 
L 160.62865 260.174234 
L 160.730652 259.418979 
L 160.781447 259.418979 
L 160.781447 259.167228 
L 160.983265 259.167228 
L 161.083367 258.537848 
L 161.281989 258.537848 
L 161.281989 258.286097 
L 161.42959 258.286097 
L 161.527352 257.530841 
L 161.624608 257.530841 
L 161.721364 257.153214 
L 161.751035 257.153214 
L 161.751035 257.027338 
L 161.931757 257.027338 
L 162.008681 256.272083 
L 162.103487 256.272083 
L 162.150711 255.894455 
L 162.244805 255.894455 
L 162.291676 255.390952 
L 162.417291 255.390952 
L 162.517181 255.1392 
L 162.570477 255.1392 
L 162.616545 254.887448 
L 162.792684 254.887448 
L 162.845206 254.383945 
L 163.11598 254.383945 
L 163.174482 253.754566 
L 163.447365 253.754566 
L 163.514971 252.99931 
L 163.558786 252.99931 
L 163.609214 252.369931 
L 163.73303 252.369931 
L 163.763025 252.118179 
L 163.991407 252.118179 
L 164.07675 251.614676 
L 164.119277 251.614676 
L 164.2138 250.985297 
L 164.246284 250.985297 
L 164.281952 250.481793 
L 164.372439 250.481793 
L 164.372439 250.355917 
L 164.580835 250.355917 
L 164.688929 249.97829 
L 164.704773 249.97829 
L 164.704773 249.852414 
L 164.859342 249.852414 
L 164.868764 249.34891 
L 165.018882 249.34891 
L 165.112101 248.341903 
L 165.152353 248.341903 
L 165.260297 247.460772 
L 165.346209 247.460772 
L 165.43173 246.705517 
L 165.486503 246.705517 
L 165.56534 246.202014 
L 165.667937 246.202014 
L 165.737026 245.950262 
L 165.901215 245.950262 
L 166.004959 245.572634 
L 166.016779 245.572634 
L 166.093428 244.817379 
L 166.225357 244.817379 
L 166.321521 244.313876 
L 166.362169 244.313876 
L 166.396941 243.810372 
L 166.58418 243.810372 
L 166.664265 243.432745 
L 166.843221 243.432745 
L 166.843221 243.306869 
L 167.243215 243.306869 
L 167.334325 242.425738 
L 167.435958 242.425738 
L 167.504319 241.670483 
L 167.564271 241.670483 
L 167.670084 241.166979 
L 167.675494 241.166979 
L 167.740297 240.789352 
L 167.847807 240.789352 
L 167.879941 240.5376 
L 168.05305 240.5376 
L 168.092773 240.159972 
L 168.242961 240.159972 
L 168.326754 239.782345 
L 168.360689 239.782345 
L 168.360689 239.656469 
L 168.477684 239.656469 
L 168.563021 238.901214 
L 168.593957 238.901214 
L 168.593957 238.775338 
L 168.994082 238.775338 
L 169.026835 238.39771 
L 169.124754 238.39771 
L 169.18975 238.020083 
L 169.254523 238.020083 
L 169.361161 237.264828 
L 169.511408 237.264828 
L 169.511408 237.013076 
L 169.643419 237.013076 
L 169.643419 236.761324 
L 169.796271 236.761324 
L 169.890274 236.131945 
L 169.952684 236.131945 
L 170.045911 235.628441 
L 170.122062 235.628441 
L 170.122062 235.37669 
L 170.259304 235.37669 
L 170.339293 234.621434 
L 170.563326 234.621434 
L 170.6582 234.117931 
L 170.841952 234.117931 
L 170.94453 233.362676 
L 171.053333 233.362676 
L 171.073664 233.110924 
L 171.177235 233.110924 
L 171.280238 232.355669 
L 171.440338 232.355669 
L 171.477941 231.852166 
L 171.627606 231.852166 
L 171.73472 230.971034 
L 171.977286 230.971034 
L 172.07173 230.215779 
L 172.204011 230.215779 
L 172.282512 229.082897 
L 172.320583 229.082897 
L 172.320583 228.957021 
L 172.511885 228.957021 
L 172.620334 228.201766 
L 172.682617 228.201766 
L 172.72816 227.572386 
L 172.878497 227.572386 
L 172.905144 226.943007 
L 173.062205 226.943007 
L 173.157433 226.439503 
L 173.266252 226.439503 
L 173.362455 225.432497 
L 173.384432 225.432497 
L 173.440259 224.803117 
L 173.614643 224.803117 
L 173.614643 224.677241 
L 173.730661 224.677241 
L 173.75417 224.299614 
L 174.049442 224.299614 
L 174.126381 223.670234 
L 174.298352 223.670234 
L 174.355328 223.292607 
L 174.545888 223.292607 
L 174.637648 222.663228 
L 174.708501 222.663228 
L 174.75497 222.2856 
L 174.860492 222.2856 
L 174.860492 221.907972 
L 174.980106 221.907972 
L 175.080727 221.656221 
L 175.104432 221.656221 
L 175.193513 220.900966 
L 175.217076 220.900966 
L 175.311035 220.523338 
L 175.366826 220.523338 
L 175.381197 220.271586 
L 175.50826 220.271586 
L 175.590127 219.893959 
L 175.662797 219.893959 
L 175.745756 219.390455 
L 175.903602 219.390455 
L 175.975072 219.138703 
L 176.037604 219.138703 
L 176.037604 218.886952 
L 176.203345 218.886952 
L 176.203345 218.761076 
L 176.428882 218.761076 
L 176.469599 218.257572 
L 176.579436 218.257572 
L 176.676905 217.879945 
L 176.712072 217.879945 
L 176.748842 217.502317 
L 177.019064 217.502317 
L 177.019064 217.250566 
L 177.161719 217.250566 
L 177.161719 217.12469 
L 177.282212 217.12469 
L 177.306543 216.49531 
L 177.393873 216.49531 
L 177.498458 215.991807 
L 177.538529 215.991807 
L 177.543331 215.614179 
L 177.78824 215.614179 
L 177.808769 215.362428 
L 177.939312 215.362428 
L 177.939312 215.236552 
L 178.138873 215.236552 
L 178.19462 214.607172 
L 178.257909 214.607172 
L 178.337873 213.851917 
L 178.454136 213.851917 
L 178.5439 212.970786 
L 178.589379 212.970786 
L 178.651356 212.593159 
L 178.741688 212.593159 
L 178.828598 211.837903 
L 178.922548 211.837903 
L 178.976024 210.579145 
L 179.041177 210.579145 
L 179.041177 210.327393 
L 179.192819 210.327393 
L 179.192819 210.201517 
L 179.408593 210.201517 
L 179.50114 209.698014 
L 179.654857 209.698014 
L 179.720557 209.19451 
L 179.878155 209.19451 
L 179.878155 208.942759 
L 179.993736 208.942759 
L 180.086252 208.565131 
L 180.231118 208.565131 
L 180.231118 208.439255 
L 180.405147 208.439255 
L 180.405147 208.187503 
L 180.699787 208.187503 
L 180.699787 207.935752 
L 180.864187 207.935752 
L 180.864187 207.809876 
L 181.043117 207.809876 
L 181.043117 207.306372 
L 181.209826 207.306372 
L 181.318841 206.425241 
L 181.385514 206.425241 
L 181.487029 205.669986 
L 181.607355 205.669986 
L 181.607355 205.418234 
L 181.822786 205.418234 
L 181.910557 205.040607 
L 181.944791 205.040607 
L 182.042081 204.788855 
L 182.08488 204.788855 
L 182.08488 204.537103 
L 182.369398 204.537103 
L 182.374352 204.159476 
L 182.570198 204.159476 
L 182.570198 203.907724 
L 182.765239 203.907724 
L 182.812476 203.530097 
L 182.898167 203.530097 
L 183.001441 203.152469 
L 183.138661 203.152469 
L 183.18497 202.774841 
L 183.291404 202.774841 
L 183.385509 202.397214 
L 183.432385 202.397214 
L 183.432385 202.271338 
L 183.689294 202.271338 
L 183.746934 201.641959 
L 183.972335 201.641959 
L 184.010964 201.390207 
L 184.170323 201.390207 
L 184.187197 201.138455 
L 184.318296 201.138455 
L 184.370704 200.634952 
L 184.434067 200.634952 
L 184.434067 200.3832 
L 184.606398 200.3832 
L 184.626181 200.131448 
L 184.81309 200.131448 
L 184.868477 199.753821 
L 185.581363 199.753821 
L 185.581363 199.627945 
L 186.01077 199.627945 
L 186.01077 199.502069 
L 186.138921 199.502069 
L 186.138921 199.376193 
L 186.425603 199.376193 
L 186.425603 199.250317 
L 186.777675 199.250317 
L 186.777675 198.998566 
L 187.129049 198.998566 
L 187.129049 198.87269 
L 187.617885 198.87269 
L 187.617885 198.620938 
L 187.945762 198.620938 
L 187.945762 198.369186 
L 188.562589 198.369186 
L 188.642616 198.117434 
L 188.746144 198.117434 
L 188.746144 197.991559 
L 188.987259 197.991559 
L 188.987259 197.865683 
L 189.107966 197.865683 
L 189.107966 197.739807 
L 189.364167 197.739807 
L 189.364167 197.613931 
L 189.528253 197.613931 
L 189.528253 197.488055 
L 189.862175 197.488055 
L 189.862175 197.362179 
L 190.441113 197.362179 
L 190.441113 197.236303 
L 190.66795 197.236303 
L 190.66795 197.110428 
L 190.932192 197.110428 
L 190.932192 196.984552 
L 191.353248 196.984552 
L 191.353248 196.858676 
L 191.645958 196.858676 
L 191.645958 196.606924 
L 191.856557 196.606924 
L 191.856557 196.481048 
L 191.975105 196.481048 
L 191.975849 196.103421 
L 192.095128 196.103421 
L 192.157797 195.725793 
L 192.445593 195.725793 
L 192.445593 195.474041 
L 194.036386 195.474041 
L 194.036386 195.22229 
L 194.392689 195.22229 
L 194.486574 194.467034 
L 194.836443 194.467034 
L 194.836443 194.341159 
L 195.581168 194.341159 
L 195.581168 194.215283 
L 197.632922 194.215283 
L 197.632922 194.089407 
L 198.307856 194.089407 
L 198.307856 193.963531 
L 198.832337 193.963531 
L 198.832337 193.837655 
L 203.175433 193.837655 
L 203.175433 193.585903 
L 210.823612 193.585903 
L 210.823612 193.460028 
L 211.154965 193.460028 
L 211.154965 193.334152 
L 212.725755 193.334152 
L 212.725755 193.208276 
L 213.134895 193.208276 
L 213.134895 192.956524 
L 213.927411 192.956524 
L 213.927411 192.704772 
L 214.916042 192.704772 
L 214.916042 192.578897 
L 218.710757 192.578897 
L 218.710757 192.453021 
L 360.8064 192.453021 
L 360.8064 192.453021 
" style="fill: none; stroke: #ff7500; stroke-width: 1.5; stroke-linecap: square"/>
   </g>
   <g id="line2d_46">
    <defs>
     <path id="mc4d6fa1195" d="M 0 -6 
L -1.347084 -1.854102 
L -5.706339 -1.854102 
L -2.179628 0.708204 
L -3.526712 4.854102 
L -0 2.291796 
L 3.526712 4.854102 
L 2.179628 0.708204 
L 5.706339 -1.854102 
L 1.347084 -1.854102 
z
" style="stroke: #ff7500; stroke-width: 1.5; stroke-linejoin: bevel"/>
    </defs>
    <g>
     <use xlink:href="#mc4d6fa1195" x="79.184421" y="287.866924" style="fill-opacity: 0; stroke: #ff7500; stroke-width: 1.5; stroke-linejoin: bevel"/>
     <use xlink:href="#mc4d6fa1195" x="150.85989" y="276.915724" style="fill-opacity: 0; stroke: #ff7500; stroke-width: 1.5; stroke-linejoin: bevel"/>
     <use xlink:href="#mc4d6fa1195" x="211.154965" y="193.460028" style="fill-opacity: 0; stroke: #ff7500; stroke-width: 1.5; stroke-linejoin: bevel"/>
     <use xlink:href="#mc4d6fa1195" x="218.710757" y="192.453021" style="fill-opacity: 0; stroke: #ff7500; stroke-width: 1.5; stroke-linejoin: bevel"/>
     <use xlink:href="#mc4d6fa1195" x="218.710757" y="192.453021" style="fill-opacity: 0; stroke: #ff7500; stroke-width: 1.5; stroke-linejoin: bevel"/>
     <use xlink:href="#mc4d6fa1195" x="360.8064" y="192.453021" style="fill-opacity: 0; stroke: #ff7500; stroke-width: 1.5; stroke-linejoin: bevel"/>
    </g>
   </g>
   <g id="line2d_47">
    <path style="fill: none; stroke: #ff7500; stroke-width: 1.5; stroke-linecap: square"/>
    <g/>
   </g>
   <g id="line2d_48">
    <path d="M 274.176075 192.453021 
" clip-path="url(#p644be08887)" style="fill: none; stroke: #ff7500; stroke-width: 1.5; stroke-linecap: square"/>
    <defs>
     <path id="m113d0baf4b" d="M -12 12 
L 12 -12 
M -12 -12 
L 12 12 
" style="stroke: #ff7500"/>
    </defs>
    <g clip-path="url(#p644be08887)">
     <use xlink:href="#m113d0baf4b" x="274.176075" y="192.453021" style="fill: #ff7500; stroke: #ff7500"/>
    </g>
   </g>
   <g id="line2d_49">
    <path d="M 360.8064 204.914731 
L 380.514816 293.10336 
" style="fill: none; stroke: #000080; stroke-width: 1.5; stroke-linecap: square"/>
    <g>
     <use xlink:href="#m53a5490be7" x="360.8064" y="204.914731" style="fill-opacity: 0; stroke: #000080; stroke-width: 1.5"/>
     <use xlink:href="#m53a5490be7" x="380.514816" y="293.10336" style="fill-opacity: 0; stroke: #000080; stroke-width: 1.5"/>
    </g>
   </g>
   <g id="line2d_50">
    <path d="M 360.8064 201.012579 
L 380.514816 199.65312 
" style="fill: none; stroke: #ff00ff; stroke-width: 1.5; stroke-linecap: square"/>
    <g>
     <use xlink:href="#m4071b7b802" x="360.8064" y="201.012579" style="fill-opacity: 0; stroke: #ff00ff; stroke-width: 1.5; stroke-linejoin: miter"/>
     <use xlink:href="#m4071b7b802" x="380.514816" y="199.65312" style="fill-opacity: 0; stroke: #ff00ff; stroke-width: 1.5; stroke-linejoin: miter"/>
    </g>
   </g>
   <g id="line2d_51">
    <path d="M 360.8064 192.453021 
L 380.514816 106.20288 
" style="fill: none; stroke: #ff7500; stroke-width: 1.5; stroke-linecap: square"/>
    <g>
     <use xlink:href="#mc4d6fa1195" x="360.8064" y="192.453021" style="fill-opacity: 0; stroke: #ff7500; stroke-width: 1.5; stroke-linejoin: bevel"/>
     <use xlink:href="#mc4d6fa1195" x="380.514816" y="106.20288" style="fill-opacity: 0; stroke: #ff7500; stroke-width: 1.5; stroke-linejoin: bevel"/>
    </g>
   </g>
   <g id="line2d_52">
    <path d="M 360.8064 298.944 
L 360.8064 6.912 
" style="fill: none; stroke: #000000; stroke-width: 1.5; stroke-linecap: square"/>
   </g>
   <g id="patch_3">
    <path d="M 57.6 298.944 
L 360.8064 298.944 
" style="fill: none; stroke: #000000; stroke-width: 0.8; stroke-linejoin: miter; stroke-linecap: square"/>
   </g>
   <g id="patch_4">
    <path d="M 57.6 6.912 
L 360.8064 6.912 
" style="fill: none; stroke: #000000; stroke-width: 0.8; stroke-linejoin: miter; stroke-linecap: square"/>
   </g>
   <g id="text_13">
    <!-- kerComo -->
    <g transform="translate(386.578944 296.966485) scale(0.14 -0.14)">
     <defs>
      <path id="DejaVuSans-6b" d="M 581 4863 
L 1159 4863 
L 1159 1991 
L 2875 3500 
L 3609 3500 
L 1753 1863 
L 3688 0 
L 2938 0 
L 1159 1709 
L 1159 0 
L 581 0 
L 581 4863 
z
" transform="scale(0.015625)"/>
      <path id="DejaVuSans-43" d="M 4122 4306 
L 4122 3641 
Q 3803 3938 3442 4084 
Q 3081 4231 2675 4231 
Q 1875 4231 1450 3742 
Q 1025 3253 1025 2328 
Q 1025 1406 1450 917 
Q 1875 428 2675 428 
Q 3081 428 3442 575 
Q 3803 722 4122 1019 
L 4122 359 
Q 3791 134 3420 21 
Q 3050 -91 2638 -91 
Q 1578 -91 968 557 
Q 359 1206 359 2328 
Q 359 3453 968 4101 
Q 1578 4750 2638 4750 
Q 3056 4750 3426 4639 
Q 3797 4528 4122 4306 
z
" transform="scale(0.015625)"/>
     </defs>
     <use xlink:href="#DejaVuSans-6b"/>
     <use xlink:href="#DejaVuSans-65" x="54.285156"/>
     <use xlink:href="#DejaVuSans-72" x="115.808594"/>
     <use xlink:href="#DejaVuSans-43" x="156.921875"/>
     <use xlink:href="#DejaVuSans-6f" x="226.746094"/>
     <use xlink:href="#DejaVuSans-6d" x="287.927734"/>
     <use xlink:href="#DejaVuSans-6f" x="385.339844"/>
    </g>
   </g>
   <g id="text_14">
    <!-- kerLQ -->
    <g transform="translate(386.578944 203.516245) scale(0.14 -0.14)">
     <defs>
      <path id="DejaVuSans-4c" d="M 628 4666 
L 1259 4666 
L 1259 531 
L 3531 531 
L 3531 0 
L 628 0 
L 628 4666 
z
" transform="scale(0.015625)"/>
      <path id="DejaVuSans-51" d="M 2522 4238 
Q 1834 4238 1429 3725 
Q 1025 3213 1025 2328 
Q 1025 1447 1429 934 
Q 1834 422 2522 422 
Q 3209 422 3611 934 
Q 4013 1447 4013 2328 
Q 4013 3213 3611 3725 
Q 3209 4238 2522 4238 
z
M 3406 84 
L 4238 -825 
L 3475 -825 
L 2784 -78 
Q 2681 -84 2626 -87 
Q 2572 -91 2522 -91 
Q 1538 -91 948 567 
Q 359 1225 359 2328 
Q 359 3434 948 4092 
Q 1538 4750 2522 4750 
Q 3503 4750 4090 4092 
Q 4678 3434 4678 2328 
Q 4678 1516 4351 937 
Q 4025 359 3406 84 
z
" transform="scale(0.015625)"/>
     </defs>
     <use xlink:href="#DejaVuSans-6b"/>
     <use xlink:href="#DejaVuSans-65" x="54.285156"/>
     <use xlink:href="#DejaVuSans-72" x="115.808594"/>
     <use xlink:href="#DejaVuSans-4c" x="156.921875"/>
     <use xlink:href="#DejaVuSans-51" x="212.634766"/>
    </g>
   </g>
   <g id="text_15">
    <!-- COMO-10 d -->
    <g transform="translate(386.578944 110.066005) scale(0.14 -0.14)">
     <defs>
      <path id="DejaVuSans-4f" d="M 2522 4238 
Q 1834 4238 1429 3725 
Q 1025 3213 1025 2328 
Q 1025 1447 1429 934 
Q 1834 422 2522 422 
Q 3209 422 3611 934 
Q 4013 1447 4013 2328 
Q 4013 3213 3611 3725 
Q 3209 4238 2522 4238 
z
M 2522 4750 
Q 3503 4750 4090 4092 
Q 4678 3434 4678 2328 
Q 4678 1225 4090 567 
Q 3503 -91 2522 -91 
Q 1538 -91 948 565 
Q 359 1222 359 2328 
Q 359 3434 948 4092 
Q 1538 4750 2522 4750 
z
" transform="scale(0.015625)"/>
      <path id="DejaVuSans-4d" d="M 628 4666 
L 1569 4666 
L 2759 1491 
L 3956 4666 
L 4897 4666 
L 4897 0 
L 4281 0 
L 4281 4097 
L 3078 897 
L 2444 897 
L 1241 4097 
L 1241 0 
L 628 0 
L 628 4666 
z
" transform="scale(0.015625)"/>
     </defs>
     <use xlink:href="#DejaVuSans-43"/>
     <use xlink:href="#DejaVuSans-4f" x="69.824219"/>
     <use xlink:href="#DejaVuSans-4d" x="148.535156"/>
     <use xlink:href="#DejaVuSans-4f" x="234.814453"/>
     <use xlink:href="#DejaVuSans-2d" x="316.275391"/>
     <use xlink:href="#DejaVuSans-31" x="352.359375"/>
     <use xlink:href="#DejaVuSans-30" x="415.982422"/>
     <use xlink:href="#DejaVuSans-20" x="479.605469"/>
     <use xlink:href="#DejaVuSans-64" x="511.392578"/>
    </g>
   </g>
   <g id="text_16">
    <!-- best 2016 -->
    <g transform="translate(386.578944 16.615765) scale(0.14 -0.14)">
     <defs>
      <path id="DejaVuSans-62" d="M 3116 1747 
Q 3116 2381 2855 2742 
Q 2594 3103 2138 3103 
Q 1681 3103 1420 2742 
Q 1159 2381 1159 1747 
Q 1159 1113 1420 752 
Q 1681 391 2138 391 
Q 2594 391 2855 752 
Q 3116 1113 3116 1747 
z
M 1159 2969 
Q 1341 3281 1617 3432 
Q 1894 3584 2278 3584 
Q 2916 3584 3314 3078 
Q 3713 2572 3713 1747 
Q 3713 922 3314 415 
Q 2916 -91 2278 -91 
Q 1894 -91 1617 61 
Q 1341 213 1159 525 
L 1159 0 
L 581 0 
L 581 4863 
L 1159 4863 
L 1159 2969 
z
" transform="scale(0.015625)"/>
     </defs>
     <use xlink:href="#DejaVuSans-62"/>
     <use xlink:href="#DejaVuSans-65" x="63.476562"/>
     <use xlink:href="#DejaVuSans-73" x="125"/>
     <use xlink:href="#DejaVuSans-74" x="177.099609"/>
     <use xlink:href="#DejaVuSans-20" x="216.308594"/>
     <use xlink:href="#DejaVuSans-32" x="248.095703"/>
     <use xlink:href="#DejaVuSans-30" x="311.71875"/>
     <use xlink:href="#DejaVuSans-31" x="375.341797"/>
     <use xlink:href="#DejaVuSans-36" x="438.964844"/>
    </g>
   </g>
   <g id="text_17">
    <!-- bbob-biobj f39, f40, f44, f45, 20-D -->
    <g transform="translate(60.632064 17.582726) scale(0.102 -0.102)">
     <defs>
      <path id="DejaVuSans-6a" d="M 603 3500 
L 1178 3500 
L 1178 -63 
Q 1178 -731 923 -1031 
Q 669 -1331 103 -1331 
L -116 -1331 
L -116 -844 
L 38 -844 
Q 366 -844 484 -692 
Q 603 -541 603 -63 
L 603 3500 
z
M 603 4863 
L 1178 4863 
L 1178 4134 
L 603 4134 
L 603 4863 
z
" transform="scale(0.015625)"/>
      <path id="DejaVuSans-33" d="M 2597 2516 
Q 3050 2419 3304 2112 
Q 3559 1806 3559 1356 
Q 3559 666 3084 287 
Q 2609 -91 1734 -91 
Q 1441 -91 1130 -33 
Q 819 25 488 141 
L 488 750 
Q 750 597 1062 519 
Q 1375 441 1716 441 
Q 2309 441 2620 675 
Q 2931 909 2931 1356 
Q 2931 1769 2642 2001 
Q 2353 2234 1838 2234 
L 1294 2234 
L 1294 2753 
L 1863 2753 
Q 2328 2753 2575 2939 
Q 2822 3125 2822 3475 
Q 2822 3834 2567 4026 
Q 2313 4219 1838 4219 
Q 1578 4219 1281 4162 
Q 984 4106 628 3988 
L 628 4550 
Q 988 4650 1302 4700 
Q 1616 4750 1894 4750 
Q 2613 4750 3031 4423 
Q 3450 4097 3450 3541 
Q 3450 3153 3228 2886 
Q 3006 2619 2597 2516 
z
" transform="scale(0.015625)"/>
      <path id="DejaVuSans-39" d="M 703 97 
L 703 672 
Q 941 559 1184 500 
Q 1428 441 1663 441 
Q 2288 441 2617 861 
Q 2947 1281 2994 2138 
Q 2813 1869 2534 1725 
Q 2256 1581 1919 1581 
Q 1219 1581 811 2004 
Q 403 2428 403 3163 
Q 403 3881 828 4315 
Q 1253 4750 1959 4750 
Q 2769 4750 3195 4129 
Q 3622 3509 3622 2328 
Q 3622 1225 3098 567 
Q 2575 -91 1691 -91 
Q 1453 -91 1209 -44 
Q 966 3 703 97 
z
M 1959 2075 
Q 2384 2075 2632 2365 
Q 2881 2656 2881 3163 
Q 2881 3666 2632 3958 
Q 2384 4250 1959 4250 
Q 1534 4250 1286 3958 
Q 1038 3666 1038 3163 
Q 1038 2656 1286 2365 
Q 1534 2075 1959 2075 
z
" transform="scale(0.015625)"/>
      <path id="DejaVuSans-35" d="M 691 4666 
L 3169 4666 
L 3169 4134 
L 1269 4134 
L 1269 2991 
Q 1406 3038 1543 3061 
Q 1681 3084 1819 3084 
Q 2600 3084 3056 2656 
Q 3513 2228 3513 1497 
Q 3513 744 3044 326 
Q 2575 -91 1722 -91 
Q 1428 -91 1123 -41 
Q 819 9 494 109 
L 494 744 
Q 775 591 1075 516 
Q 1375 441 1709 441 
Q 2250 441 2565 725 
Q 2881 1009 2881 1497 
Q 2881 1984 2565 2268 
Q 2250 2553 1709 2553 
Q 1456 2553 1204 2497 
Q 953 2441 691 2322 
L 691 4666 
z
" transform="scale(0.015625)"/>
      <path id="DejaVuSans-44" d="M 1259 4147 
L 1259 519 
L 2022 519 
Q 2988 519 3436 956 
Q 3884 1394 3884 2338 
Q 3884 3275 3436 3711 
Q 2988 4147 2022 4147 
L 1259 4147 
z
M 628 4666 
L 1925 4666 
Q 3281 4666 3915 4102 
Q 4550 3538 4550 2338 
Q 4550 1131 3912 565 
Q 3275 0 1925 0 
L 628 0 
L 628 4666 
z
" transform="scale(0.015625)"/>
     </defs>
     <use xlink:href="#DejaVuSans-62"/>
     <use xlink:href="#DejaVuSans-62" x="63.476562"/>
     <use xlink:href="#DejaVuSans-6f" x="126.953125"/>
     <use xlink:href="#DejaVuSans-62" x="188.134766"/>
     <use xlink:href="#DejaVuSans-2d" x="251.611328"/>
     <use xlink:href="#DejaVuSans-62" x="287.695312"/>
     <use xlink:href="#DejaVuSans-69" x="351.171875"/>
     <use xlink:href="#DejaVuSans-6f" x="378.955078"/>
     <use xlink:href="#DejaVuSans-62" x="440.136719"/>
     <use xlink:href="#DejaVuSans-6a" x="503.613281"/>
     <use xlink:href="#DejaVuSans-20" x="531.396484"/>
     <use xlink:href="#DejaVuSans-66" x="563.183594"/>
     <use xlink:href="#DejaVuSans-33" x="598.388672"/>
     <use xlink:href="#DejaVuSans-39" x="662.011719"/>
     <use xlink:href="#DejaVuSans-2c" x="725.634766"/>
     <use xlink:href="#DejaVuSans-20" x="757.421875"/>
     <use xlink:href="#DejaVuSans-66" x="789.208984"/>
     <use xlink:href="#DejaVuSans-34" x="824.414062"/>
     <use xlink:href="#DejaVuSans-30" x="888.037109"/>
     <use xlink:href="#DejaVuSans-2c" x="951.660156"/>
     <use xlink:href="#DejaVuSans-20" x="983.447266"/>
     <use xlink:href="#DejaVuSans-66" x="1015.234375"/>
     <use xlink:href="#DejaVuSans-34" x="1050.439453"/>
     <use xlink:href="#DejaVuSans-34" x="1114.0625"/>
     <use xlink:href="#DejaVuSans-2c" x="1177.685547"/>
     <use xlink:href="#DejaVuSans-20" x="1209.472656"/>
     <use xlink:href="#DejaVuSans-66" x="1241.259766"/>
     <use xlink:href="#DejaVuSans-34" x="1276.464844"/>
     <use xlink:href="#DejaVuSans-35" x="1340.087891"/>
     <use xlink:href="#DejaVuSans-2c" x="1403.710938"/>
     <use xlink:href="#DejaVuSans-20" x="1435.498047"/>
     <use xlink:href="#DejaVuSans-32" x="1467.285156"/>
     <use xlink:href="#DejaVuSans-30" x="1530.908203"/>
     <use xlink:href="#DejaVuSans-2d" x="1594.53125"/>
     <use xlink:href="#DejaVuSans-44" x="1630.615234"/>
    </g>
    <!-- 58 targets: 1..-1.0e-4 -->
    <g transform="translate(60.632064 29.004495) scale(0.102 -0.102)">
     <defs>
      <path id="DejaVuSans-3a" d="M 750 794 
L 1409 794 
L 1409 0 
L 750 0 
L 750 794 
z
M 750 3309 
L 1409 3309 
L 1409 2516 
L 750 2516 
L 750 3309 
z
" transform="scale(0.015625)"/>
     </defs>
     <use xlink:href="#DejaVuSans-35"/>
     <use xlink:href="#DejaVuSans-38" x="63.623047"/>
     <use xlink:href="#DejaVuSans-20" x="127.246094"/>
     <use xlink:href="#DejaVuSans-74" x="159.033203"/>
     <use xlink:href="#DejaVuSans-61" x="198.242188"/>
     <use xlink:href="#DejaVuSans-72" x="259.521484"/>
     <use xlink:href="#DejaVuSans-67" x="298.884766"/>
     <use xlink:href="#DejaVuSans-65" x="362.361328"/>
     <use xlink:href="#DejaVuSans-74" x="423.884766"/>
     <use xlink:href="#DejaVuSans-73" x="463.09375"/>
     <use xlink:href="#DejaVuSans-3a" x="515.193359"/>
     <use xlink:href="#DejaVuSans-20" x="548.884766"/>
     <use xlink:href="#DejaVuSans-31" x="580.671875"/>
     <use xlink:href="#DejaVuSans-2e" x="644.294922"/>
     <use xlink:href="#DejaVuSans-2e" x="676.082031"/>
     <use xlink:href="#DejaVuSans-2d" x="707.869141"/>
     <use xlink:href="#DejaVuSans-31" x="743.953125"/>
     <use xlink:href="#DejaVuSans-2e" x="807.576172"/>
     <use xlink:href="#DejaVuSans-30" x="839.363281"/>
     <use xlink:href="#DejaVuSans-65" x="902.986328"/>
     <use xlink:href="#DejaVuSans-2d" x="964.509766"/>
     <use xlink:href="#DejaVuSans-34" x="1000.59375"/>
    </g>
    <!-- 10 instances -->
    <g transform="translate(60.632064 40.426264) scale(0.102 -0.102)">
     <use xlink:href="#DejaVuSans-31"/>
     <use xlink:href="#DejaVuSans-30" x="63.623047"/>
     <use xlink:href="#DejaVuSans-20" x="127.246094"/>
     <use xlink:href="#DejaVuSans-69" x="159.033203"/>
     <use xlink:href="#DejaVuSans-6e" x="186.816406"/>
     <use xlink:href="#DejaVuSans-73" x="250.195312"/>
     <use xlink:href="#DejaVuSans-74" x="302.294922"/>
     <use xlink:href="#DejaVuSans-61" x="341.503906"/>
     <use xlink:href="#DejaVuSans-6e" x="402.783203"/>
     <use xlink:href="#DejaVuSans-63" x="466.162109"/>
     <use xlink:href="#DejaVuSans-65" x="521.142578"/>
     <use xlink:href="#DejaVuSans-73" x="582.666016"/>
    </g>
   </g>
   <g id="text_18">
    <!-- v2.6, hv-hash=ff0e71e8cd978373 -->
    <g style="fill: #808080" transform="translate(123.707887 293.943992) scale(0.1 -0.1)">
     <defs>
      <path id="DejaVuSans-68" d="M 3513 2113 
L 3513 0 
L 2938 0 
L 2938 2094 
Q 2938 2591 2744 2837 
Q 2550 3084 2163 3084 
Q 1697 3084 1428 2787 
Q 1159 2491 1159 1978 
L 1159 0 
L 581 0 
L 581 4863 
L 1159 4863 
L 1159 2956 
Q 1366 3272 1645 3428 
Q 1925 3584 2291 3584 
Q 2894 3584 3203 3211 
Q 3513 2838 3513 2113 
z
" transform="scale(0.015625)"/>
      <path id="DejaVuSans-3d" d="M 678 2906 
L 4684 2906 
L 4684 2381 
L 678 2381 
L 678 2906 
z
M 678 1631 
L 4684 1631 
L 4684 1100 
L 678 1100 
L 678 1631 
z
" transform="scale(0.015625)"/>
      <path id="DejaVuSans-37" d="M 525 4666 
L 3525 4666 
L 3525 4397 
L 1831 0 
L 1172 0 
L 2766 4134 
L 525 4134 
L 525 4666 
z
" transform="scale(0.015625)"/>
     </defs>
     <use xlink:href="#DejaVuSans-76"/>
     <use xlink:href="#DejaVuSans-32" x="59.179688"/>
     <use xlink:href="#DejaVuSans-2e" x="122.802734"/>
     <use xlink:href="#DejaVuSans-36" x="154.589844"/>
     <use xlink:href="#DejaVuSans-2c" x="218.212891"/>
     <use xlink:href="#DejaVuSans-20" x="250"/>
     <use xlink:href="#DejaVuSans-68" x="281.787109"/>
     <use xlink:href="#DejaVuSans-76" x="345.166016"/>
     <use xlink:href="#DejaVuSans-2d" x="401.720703"/>
     <use xlink:href="#DejaVuSans-68" x="437.804688"/>
     <use xlink:href="#DejaVuSans-61" x="501.183594"/>
     <use xlink:href="#DejaVuSans-73" x="562.462891"/>
     <use xlink:href="#DejaVuSans-68" x="614.5625"/>
     <use xlink:href="#DejaVuSans-3d" x="677.941406"/>
     <use xlink:href="#DejaVuSans-66" x="761.730469"/>
     <use xlink:href="#DejaVuSans-66" x="796.935547"/>
     <use xlink:href="#DejaVuSans-30" x="832.140625"/>
     <use xlink:href="#DejaVuSans-65" x="895.763672"/>
     <use xlink:href="#DejaVuSans-37" x="957.287109"/>
     <use xlink:href="#DejaVuSans-31" x="1020.910156"/>
     <use xlink:href="#DejaVuSans-65" x="1084.533203"/>
     <use xlink:href="#DejaVuSans-38" x="1146.056641"/>
     <use xlink:href="#DejaVuSans-63" x="1209.679688"/>
     <use xlink:href="#DejaVuSans-64" x="1264.660156"/>
     <use xlink:href="#DejaVuSans-39" x="1328.136719"/>
     <use xlink:href="#DejaVuSans-37" x="1391.759766"/>
     <use xlink:href="#DejaVuSans-38" x="1455.382812"/>
     <use xlink:href="#DejaVuSans-33" x="1519.005859"/>
     <use xlink:href="#DejaVuSans-37" x="1582.628906"/>
     <use xlink:href="#DejaVuSans-33" x="1646.251953"/>
    </g>
   </g>
  </g>
 </g>
 <defs>
  <clipPath id="p644be08887">
   <rect x="57.6" y="6.912" width="303.2064" height="292.032"/>
  </clipPath>
 </defs>
</svg>
