<?xml version="1.0" encoding="utf-8" standalone="no"?>
<!DOCTYPE svg PUBLIC "-//W3C//DTD SVG 1.1//EN"
  "http://www.w3.org/Graphics/SVG/1.1/DTD/svg11.dtd">
<svg xmlns:xlink="http://www.w3.org/1999/xlink" width="460.8pt" height="345.6pt" viewBox="0 0 460.8 345.6" xmlns="http://www.w3.org/2000/svg" version="1.1">
 <metadata>
  <rdf:RDF xmlns:dc="http://purl.org/dc/elements/1.1/" xmlns:cc="http://creativecommons.org/ns#" xmlns:rdf="http://www.w3.org/1999/02/22-rdf-syntax-ns#">
   <cc:Work>
    <dc:type rdf:resource="http://purl.org/dc/dcmitype/StillImage"/>
    <dc:date>2023-02-10T20:11:25.168459</dc:date>
    <dc:format>image/svg+xml</dc:format>
    <dc:creator>
     <cc:Agent>
      <dc:title>Matplotlib v3.6.3, https://matplotlib.org/</dc:title>
     </cc:Agent>
    </dc:creator>
   </cc:Work>
  </rdf:RDF>
 </metadata>
 <defs>
  <style type="text/css">*{stroke-linejoin: round; stroke-linecap: butt}</style>
 </defs>
 <g id="figure_1">
  <g id="patch_1">
   <path d="M 0 345.6 
L 460.8 345.6 
L 460.8 0 
L 0 0 
z
" style="fill: #ffffff"/>
  </g>
  <g id="axes_1">
   <g id="patch_2">
    <path d="M 57.6 298.944 
L 360.8064 298.944 
L 360.8064 27.648 
L 57.6 27.648 
z
" style="fill: #ffffff"/>
   </g>
   <g id="line2d_1">
    <path d="M 37.851216 298.944 
L 37.851216 294.266483 
L 90.007914 294.266483 
L 90.007914 284.911448 
L 104.732832 284.911448 
L 104.732832 275.556414 
L 160.351247 275.556414 
L 160.351247 270.878897 
L 171.362682 270.878897 
L 171.362682 256.846345 
L 186.470472 256.846345 
L 186.470472 247.49131 
L 209.778896 247.49131 
L 209.778896 242.813793 
L 214.289714 242.813793 
L 214.289714 233.458759 
L 220.215215 233.458759 
L 220.215215 219.426207 
L 229.137867 219.426207 
L 229.137867 210.071172 
L 234.278398 210.071172 
L 234.278398 200.716138 
L 278.271229 200.716138 
L 278.271229 191.361103 
L 287.172834 191.361103 
L 287.172834 186.683586 
L 288.593483 186.683586 
L 288.593483 172.651034 
L 289.084366 172.651034 
L 289.084366 167.973517 
L 291.905856 167.973517 
L 291.905856 153.940966 
L 298.91259 153.940966 
L 298.91259 144.585931 
L 300.504504 144.585931 
L 300.504504 139.908414 
L 301.184778 139.908414 
L 301.184778 125.875862 
L 310.309242 125.875862 
L 310.309242 121.198345 
L 310.751543 121.198345 
L 310.751543 107.165793 
L 311.972959 107.165793 
L 311.972959 97.810759 
L 315.900032 97.810759 
L 315.900032 88.455724 
L 316.590228 88.455724 
L 316.590228 83.778207 
L 317.364243 83.778207 
L 317.364243 74.423172 
L 318.688117 74.423172 
L 318.688117 60.390621 
L 360.8064 60.390621 
" style="fill: none; stroke: #f5deb3; stroke-width: 4; stroke-linecap: square"/>
   </g>
   <g id="line2d_2">
    <defs>
     <path id="mb160ed081b" d="M -0 7.778175 
L 7.778175 0 
L 0 -7.778175 
L -7.778175 -0 
z
" style="stroke: #f5deb3; stroke-width: 1.5; stroke-linejoin: miter"/>
    </defs>
    <g>
     <use xlink:href="#mb160ed081b" x="160.351247" y="275.556414" style="fill: #f5deb3; stroke: #f5deb3; stroke-width: 1.5; stroke-linejoin: miter"/>
     <use xlink:href="#mb160ed081b" x="234.278398" y="210.071172" style="fill: #f5deb3; stroke: #f5deb3; stroke-width: 1.5; stroke-linejoin: miter"/>
     <use xlink:href="#mb160ed081b" x="291.905856" y="167.973517" style="fill: #f5deb3; stroke: #f5deb3; stroke-width: 1.5; stroke-linejoin: miter"/>
     <use xlink:href="#mb160ed081b" x="316.590228" y="83.778207" style="fill: #f5deb3; stroke: #f5deb3; stroke-width: 1.5; stroke-linejoin: miter"/>
     <use xlink:href="#mb160ed081b" x="318.688117" y="60.390621" style="fill: #f5deb3; stroke: #f5deb3; stroke-width: 1.5; stroke-linejoin: miter"/>
     <use xlink:href="#mb160ed081b" x="360.8064" y="60.390621" style="fill: #f5deb3; stroke: #f5deb3; stroke-width: 1.5; stroke-linejoin: miter"/>
    </g>
   </g>
   <g id="line2d_3">
    <path style="fill: none; stroke: #f5deb3; stroke-width: 4; stroke-linecap: square"/>
    <g/>
   </g>
   <g id="line2d_4">
    <path d="M 360.8064 60.390621 
L 380.514816 33.07392 
" style="fill: none; stroke: #f5deb3; stroke-width: 4; stroke-linecap: square"/>
    <g>
     <use xlink:href="#mb160ed081b" x="360.8064" y="60.390621" style="fill: #f5deb3; stroke: #f5deb3; stroke-width: 1.5; stroke-linejoin: miter"/>
     <use xlink:href="#mb160ed081b" x="380.514816" y="33.07392" style="fill: #f5deb3; stroke: #f5deb3; stroke-width: 1.5; stroke-linejoin: miter"/>
    </g>
   </g>
   <g id="matplotlib.axis_1">
    <g id="xtick_1">
     <g id="line2d_5">
      <path d="M 57.6 298.944 
L 57.6 27.648 
" clip-path="url(#pa6dc1e713c)" style="fill: none; stroke: #b0b0b0; stroke-width: 0.8; stroke-linecap: square"/>
     </g>
     <g id="line2d_6">
      <defs>
       <path id="m5f89eecfac" d="M 0 0 
L 0 3.5 
" style="stroke: #000000; stroke-width: 0.8"/>
      </defs>
      <g>
       <use xlink:href="#m5f89eecfac" x="57.6" y="298.944" style="stroke: #000000; stroke-width: 0.8"/>
      </g>
     </g>
     <g id="text_1">
      <!-- 0 -->
      <g transform="translate(52.191875 318.861344) scale(0.17 -0.17)">
       <defs>
        <path id="DejaVuSans-30" d="M 2034 4250 
Q 1547 4250 1301 3770 
Q 1056 3291 1056 2328 
Q 1056 1369 1301 889 
Q 1547 409 2034 409 
Q 2525 409 2770 889 
Q 3016 1369 3016 2328 
Q 3016 3291 2770 3770 
Q 2525 4250 2034 4250 
z
M 2034 4750 
Q 2819 4750 3233 4129 
Q 3647 3509 3647 2328 
Q 3647 1150 3233 529 
Q 2819 -91 2034 -91 
Q 1250 -91 836 529 
Q 422 1150 422 2328 
Q 422 3509 836 4129 
Q 1250 4750 2034 4750 
z
" transform="scale(0.015625)"/>
       </defs>
       <use xlink:href="#DejaVuSans-30"/>
      </g>
     </g>
    </g>
    <g id="xtick_2">
     <g id="line2d_7">
      <path d="M 144.2304 298.944 
L 144.2304 27.648 
" clip-path="url(#pa6dc1e713c)" style="fill: none; stroke: #b0b0b0; stroke-width: 0.8; stroke-linecap: square"/>
     </g>
     <g id="line2d_8">
      <g>
       <use xlink:href="#m5f89eecfac" x="144.2304" y="298.944" style="stroke: #000000; stroke-width: 0.8"/>
      </g>
     </g>
     <g id="text_2">
      <!-- 2 -->
      <g transform="translate(138.822275 318.861344) scale(0.17 -0.17)">
       <defs>
        <path id="DejaVuSans-32" d="M 1228 531 
L 3431 531 
L 3431 0 
L 469 0 
L 469 531 
Q 828 903 1448 1529 
Q 2069 2156 2228 2338 
Q 2531 2678 2651 2914 
Q 2772 3150 2772 3378 
Q 2772 3750 2511 3984 
Q 2250 4219 1831 4219 
Q 1534 4219 1204 4116 
Q 875 4013 500 3803 
L 500 4441 
Q 881 4594 1212 4672 
Q 1544 4750 1819 4750 
Q 2544 4750 2975 4387 
Q 3406 4025 3406 3419 
Q 3406 3131 3298 2873 
Q 3191 2616 2906 2266 
Q 2828 2175 2409 1742 
Q 1991 1309 1228 531 
z
" transform="scale(0.015625)"/>
       </defs>
       <use xlink:href="#DejaVuSans-32"/>
      </g>
     </g>
    </g>
    <g id="xtick_3">
     <g id="line2d_9">
      <path d="M 230.8608 298.944 
L 230.8608 27.648 
" clip-path="url(#pa6dc1e713c)" style="fill: none; stroke: #b0b0b0; stroke-width: 0.8; stroke-linecap: square"/>
     </g>
     <g id="line2d_10">
      <g>
       <use xlink:href="#m5f89eecfac" x="230.8608" y="298.944" style="stroke: #000000; stroke-width: 0.8"/>
      </g>
     </g>
     <g id="text_3">
      <!-- 4 -->
      <g transform="translate(225.452675 318.861344) scale(0.17 -0.17)">
       <defs>
        <path id="DejaVuSans-34" d="M 2419 4116 
L 825 1625 
L 2419 1625 
L 2419 4116 
z
M 2253 4666 
L 3047 4666 
L 3047 1625 
L 3713 1625 
L 3713 1100 
L 3047 1100 
L 3047 0 
L 2419 0 
L 2419 1100 
L 313 1100 
L 313 1709 
L 2253 4666 
z
" transform="scale(0.015625)"/>
       </defs>
       <use xlink:href="#DejaVuSans-34"/>
      </g>
     </g>
    </g>
    <g id="xtick_4">
     <g id="line2d_11">
      <path d="M 317.4912 298.944 
L 317.4912 27.648 
" clip-path="url(#pa6dc1e713c)" style="fill: none; stroke: #b0b0b0; stroke-width: 0.8; stroke-linecap: square"/>
     </g>
     <g id="line2d_12">
      <g>
       <use xlink:href="#m5f89eecfac" x="317.4912" y="298.944" style="stroke: #000000; stroke-width: 0.8"/>
      </g>
     </g>
     <g id="text_4">
      <!-- 6 -->
      <g transform="translate(312.083075 318.861344) scale(0.17 -0.17)">
       <defs>
        <path id="DejaVuSans-36" d="M 2113 2584 
Q 1688 2584 1439 2293 
Q 1191 2003 1191 1497 
Q 1191 994 1439 701 
Q 1688 409 2113 409 
Q 2538 409 2786 701 
Q 3034 994 3034 1497 
Q 3034 2003 2786 2293 
Q 2538 2584 2113 2584 
z
M 3366 4563 
L 3366 3988 
Q 3128 4100 2886 4159 
Q 2644 4219 2406 4219 
Q 1781 4219 1451 3797 
Q 1122 3375 1075 2522 
Q 1259 2794 1537 2939 
Q 1816 3084 2150 3084 
Q 2853 3084 3261 2657 
Q 3669 2231 3669 1497 
Q 3669 778 3244 343 
Q 2819 -91 2113 -91 
Q 1303 -91 875 529 
Q 447 1150 447 2328 
Q 447 3434 972 4092 
Q 1497 4750 2381 4750 
Q 2619 4750 2861 4703 
Q 3103 4656 3366 4563 
z
" transform="scale(0.015625)"/>
       </defs>
       <use xlink:href="#DejaVuSans-36"/>
      </g>
     </g>
    </g>
    <g id="xtick_5">
     <g id="line2d_13">
      <path d="M 100.9152 298.944 
L 100.9152 27.648 
" clip-path="url(#pa6dc1e713c)" style="fill: none; stroke: #b0b0b0; stroke-width: 0.8; stroke-linecap: square"/>
     </g>
     <g id="line2d_14">
      <defs>
       <path id="m02ead50bea" d="M 0 0 
L 0 2 
" style="stroke: #000000; stroke-width: 0.6"/>
      </defs>
      <g>
       <use xlink:href="#m02ead50bea" x="100.9152" y="298.944" style="stroke: #000000; stroke-width: 0.6"/>
      </g>
     </g>
    </g>
    <g id="xtick_6">
     <g id="line2d_15">
      <path d="M 187.5456 298.944 
L 187.5456 27.648 
" clip-path="url(#pa6dc1e713c)" style="fill: none; stroke: #b0b0b0; stroke-width: 0.8; stroke-linecap: square"/>
     </g>
     <g id="line2d_16">
      <g>
       <use xlink:href="#m02ead50bea" x="187.5456" y="298.944" style="stroke: #000000; stroke-width: 0.6"/>
      </g>
     </g>
    </g>
    <g id="xtick_7">
     <g id="line2d_17">
      <path d="M 274.176 298.944 
L 274.176 27.648 
" clip-path="url(#pa6dc1e713c)" style="fill: none; stroke: #b0b0b0; stroke-width: 0.8; stroke-linecap: square"/>
     </g>
     <g id="line2d_18">
      <g>
       <use xlink:href="#m02ead50bea" x="274.176" y="298.944" style="stroke: #000000; stroke-width: 0.6"/>
      </g>
     </g>
    </g>
    <g id="xtick_8">
     <g id="line2d_19">
      <path d="M 360.8064 298.944 
L 360.8064 27.648 
" clip-path="url(#pa6dc1e713c)" style="fill: none; stroke: #b0b0b0; stroke-width: 0.8; stroke-linecap: square"/>
     </g>
     <g id="line2d_20">
      <g>
       <use xlink:href="#m02ead50bea" x="360.8064" y="298.944" style="stroke: #000000; stroke-width: 0.6"/>
      </g>
     </g>
    </g>
    <g id="text_5">
     <!-- log10(# f-evals / dimension) -->
     <g transform="translate(88.823278 339.314156) scale(0.17 -0.17)">
      <defs>
       <path id="DejaVuSans-6c" d="M 603 4863 
L 1178 4863 
L 1178 0 
L 603 0 
L 603 4863 
z
" transform="scale(0.015625)"/>
       <path id="DejaVuSans-6f" d="M 1959 3097 
Q 1497 3097 1228 2736 
Q 959 2375 959 1747 
Q 959 1119 1226 758 
Q 1494 397 1959 397 
Q 2419 397 2687 759 
Q 2956 1122 2956 1747 
Q 2956 2369 2687 2733 
Q 2419 3097 1959 3097 
z
M 1959 3584 
Q 2709 3584 3137 3096 
Q 3566 2609 3566 1747 
Q 3566 888 3137 398 
Q 2709 -91 1959 -91 
Q 1206 -91 779 398 
Q 353 888 353 1747 
Q 353 2609 779 3096 
Q 1206 3584 1959 3584 
z
" transform="scale(0.015625)"/>
       <path id="DejaVuSans-67" d="M 2906 1791 
Q 2906 2416 2648 2759 
Q 2391 3103 1925 3103 
Q 1463 3103 1205 2759 
Q 947 2416 947 1791 
Q 947 1169 1205 825 
Q 1463 481 1925 481 
Q 2391 481 2648 825 
Q 2906 1169 2906 1791 
z
M 3481 434 
Q 3481 -459 3084 -895 
Q 2688 -1331 1869 -1331 
Q 1566 -1331 1297 -1286 
Q 1028 -1241 775 -1147 
L 775 -588 
Q 1028 -725 1275 -790 
Q 1522 -856 1778 -856 
Q 2344 -856 2625 -561 
Q 2906 -266 2906 331 
L 2906 616 
Q 2728 306 2450 153 
Q 2172 0 1784 0 
Q 1141 0 747 490 
Q 353 981 353 1791 
Q 353 2603 747 3093 
Q 1141 3584 1784 3584 
Q 2172 3584 2450 3431 
Q 2728 3278 2906 2969 
L 2906 3500 
L 3481 3500 
L 3481 434 
z
" transform="scale(0.015625)"/>
       <path id="DejaVuSans-31" d="M 794 531 
L 1825 531 
L 1825 4091 
L 703 3866 
L 703 4441 
L 1819 4666 
L 2450 4666 
L 2450 531 
L 3481 531 
L 3481 0 
L 794 0 
L 794 531 
z
" transform="scale(0.015625)"/>
       <path id="DejaVuSans-28" d="M 1984 4856 
Q 1566 4138 1362 3434 
Q 1159 2731 1159 2009 
Q 1159 1288 1364 580 
Q 1569 -128 1984 -844 
L 1484 -844 
Q 1016 -109 783 600 
Q 550 1309 550 2009 
Q 550 2706 781 3412 
Q 1013 4119 1484 4856 
L 1984 4856 
z
" transform="scale(0.015625)"/>
       <path id="DejaVuSans-23" d="M 3272 2816 
L 2363 2816 
L 2100 1772 
L 3016 1772 
L 3272 2816 
z
M 2803 4594 
L 2478 3297 
L 3391 3297 
L 3719 4594 
L 4219 4594 
L 3897 3297 
L 4872 3297 
L 4872 2816 
L 3775 2816 
L 3519 1772 
L 4513 1772 
L 4513 1294 
L 3397 1294 
L 3072 0 
L 2572 0 
L 2894 1294 
L 1978 1294 
L 1656 0 
L 1153 0 
L 1478 1294 
L 494 1294 
L 494 1772 
L 1594 1772 
L 1856 2816 
L 850 2816 
L 850 3297 
L 1978 3297 
L 2297 4594 
L 2803 4594 
z
" transform="scale(0.015625)"/>
       <path id="DejaVuSans-20" transform="scale(0.015625)"/>
       <path id="DejaVuSans-66" d="M 2375 4863 
L 2375 4384 
L 1825 4384 
Q 1516 4384 1395 4259 
Q 1275 4134 1275 3809 
L 1275 3500 
L 2222 3500 
L 2222 3053 
L 1275 3053 
L 1275 0 
L 697 0 
L 697 3053 
L 147 3053 
L 147 3500 
L 697 3500 
L 697 3744 
Q 697 4328 969 4595 
Q 1241 4863 1831 4863 
L 2375 4863 
z
" transform="scale(0.015625)"/>
       <path id="DejaVuSans-2d" d="M 313 2009 
L 1997 2009 
L 1997 1497 
L 313 1497 
L 313 2009 
z
" transform="scale(0.015625)"/>
       <path id="DejaVuSans-65" d="M 3597 1894 
L 3597 1613 
L 953 1613 
Q 991 1019 1311 708 
Q 1631 397 2203 397 
Q 2534 397 2845 478 
Q 3156 559 3463 722 
L 3463 178 
Q 3153 47 2828 -22 
Q 2503 -91 2169 -91 
Q 1331 -91 842 396 
Q 353 884 353 1716 
Q 353 2575 817 3079 
Q 1281 3584 2069 3584 
Q 2775 3584 3186 3129 
Q 3597 2675 3597 1894 
z
M 3022 2063 
Q 3016 2534 2758 2815 
Q 2500 3097 2075 3097 
Q 1594 3097 1305 2825 
Q 1016 2553 972 2059 
L 3022 2063 
z
" transform="scale(0.015625)"/>
       <path id="DejaVuSans-76" d="M 191 3500 
L 800 3500 
L 1894 563 
L 2988 3500 
L 3597 3500 
L 2284 0 
L 1503 0 
L 191 3500 
z
" transform="scale(0.015625)"/>
       <path id="DejaVuSans-61" d="M 2194 1759 
Q 1497 1759 1228 1600 
Q 959 1441 959 1056 
Q 959 750 1161 570 
Q 1363 391 1709 391 
Q 2188 391 2477 730 
Q 2766 1069 2766 1631 
L 2766 1759 
L 2194 1759 
z
M 3341 1997 
L 3341 0 
L 2766 0 
L 2766 531 
Q 2569 213 2275 61 
Q 1981 -91 1556 -91 
Q 1019 -91 701 211 
Q 384 513 384 1019 
Q 384 1609 779 1909 
Q 1175 2209 1959 2209 
L 2766 2209 
L 2766 2266 
Q 2766 2663 2505 2880 
Q 2244 3097 1772 3097 
Q 1472 3097 1187 3025 
Q 903 2953 641 2809 
L 641 3341 
Q 956 3463 1253 3523 
Q 1550 3584 1831 3584 
Q 2591 3584 2966 3190 
Q 3341 2797 3341 1997 
z
" transform="scale(0.015625)"/>
       <path id="DejaVuSans-73" d="M 2834 3397 
L 2834 2853 
Q 2591 2978 2328 3040 
Q 2066 3103 1784 3103 
Q 1356 3103 1142 2972 
Q 928 2841 928 2578 
Q 928 2378 1081 2264 
Q 1234 2150 1697 2047 
L 1894 2003 
Q 2506 1872 2764 1633 
Q 3022 1394 3022 966 
Q 3022 478 2636 193 
Q 2250 -91 1575 -91 
Q 1294 -91 989 -36 
Q 684 19 347 128 
L 347 722 
Q 666 556 975 473 
Q 1284 391 1588 391 
Q 1994 391 2212 530 
Q 2431 669 2431 922 
Q 2431 1156 2273 1281 
Q 2116 1406 1581 1522 
L 1381 1569 
Q 847 1681 609 1914 
Q 372 2147 372 2553 
Q 372 3047 722 3315 
Q 1072 3584 1716 3584 
Q 2034 3584 2315 3537 
Q 2597 3491 2834 3397 
z
" transform="scale(0.015625)"/>
       <path id="DejaVuSans-2f" d="M 1625 4666 
L 2156 4666 
L 531 -594 
L 0 -594 
L 1625 4666 
z
" transform="scale(0.015625)"/>
       <path id="DejaVuSans-64" d="M 2906 2969 
L 2906 4863 
L 3481 4863 
L 3481 0 
L 2906 0 
L 2906 525 
Q 2725 213 2448 61 
Q 2172 -91 1784 -91 
Q 1150 -91 751 415 
Q 353 922 353 1747 
Q 353 2572 751 3078 
Q 1150 3584 1784 3584 
Q 2172 3584 2448 3432 
Q 2725 3281 2906 2969 
z
M 947 1747 
Q 947 1113 1208 752 
Q 1469 391 1925 391 
Q 2381 391 2643 752 
Q 2906 1113 2906 1747 
Q 2906 2381 2643 2742 
Q 2381 3103 1925 3103 
Q 1469 3103 1208 2742 
Q 947 2381 947 1747 
z
" transform="scale(0.015625)"/>
       <path id="DejaVuSans-69" d="M 603 3500 
L 1178 3500 
L 1178 0 
L 603 0 
L 603 3500 
z
M 603 4863 
L 1178 4863 
L 1178 4134 
L 603 4134 
L 603 4863 
z
" transform="scale(0.015625)"/>
       <path id="DejaVuSans-6d" d="M 3328 2828 
Q 3544 3216 3844 3400 
Q 4144 3584 4550 3584 
Q 5097 3584 5394 3201 
Q 5691 2819 5691 2113 
L 5691 0 
L 5113 0 
L 5113 2094 
Q 5113 2597 4934 2840 
Q 4756 3084 4391 3084 
Q 3944 3084 3684 2787 
Q 3425 2491 3425 1978 
L 3425 0 
L 2847 0 
L 2847 2094 
Q 2847 2600 2669 2842 
Q 2491 3084 2119 3084 
Q 1678 3084 1418 2786 
Q 1159 2488 1159 1978 
L 1159 0 
L 581 0 
L 581 3500 
L 1159 3500 
L 1159 2956 
Q 1356 3278 1631 3431 
Q 1906 3584 2284 3584 
Q 2666 3584 2933 3390 
Q 3200 3197 3328 2828 
z
" transform="scale(0.015625)"/>
       <path id="DejaVuSans-6e" d="M 3513 2113 
L 3513 0 
L 2938 0 
L 2938 2094 
Q 2938 2591 2744 2837 
Q 2550 3084 2163 3084 
Q 1697 3084 1428 2787 
Q 1159 2491 1159 1978 
L 1159 0 
L 581 0 
L 581 3500 
L 1159 3500 
L 1159 2956 
Q 1366 3272 1645 3428 
Q 1925 3584 2291 3584 
Q 2894 3584 3203 3211 
Q 3513 2838 3513 2113 
z
" transform="scale(0.015625)"/>
       <path id="DejaVuSans-29" d="M 513 4856 
L 1013 4856 
Q 1481 4119 1714 3412 
Q 1947 2706 1947 2009 
Q 1947 1309 1714 600 
Q 1481 -109 1013 -844 
L 513 -844 
Q 928 -128 1133 580 
Q 1338 1288 1338 2009 
Q 1338 2731 1133 3434 
Q 928 4138 513 4856 
z
" transform="scale(0.015625)"/>
      </defs>
      <use xlink:href="#DejaVuSans-6c"/>
      <use xlink:href="#DejaVuSans-6f" x="27.783203"/>
      <use xlink:href="#DejaVuSans-67" x="88.964844"/>
      <use xlink:href="#DejaVuSans-31" x="152.441406"/>
      <use xlink:href="#DejaVuSans-30" x="216.064453"/>
      <use xlink:href="#DejaVuSans-28" x="279.6875"/>
      <use xlink:href="#DejaVuSans-23" x="318.701172"/>
      <use xlink:href="#DejaVuSans-20" x="402.490234"/>
      <use xlink:href="#DejaVuSans-66" x="434.277344"/>
      <use xlink:href="#DejaVuSans-2d" x="463.982422"/>
      <use xlink:href="#DejaVuSans-65" x="500.066406"/>
      <use xlink:href="#DejaVuSans-76" x="561.589844"/>
      <use xlink:href="#DejaVuSans-61" x="620.769531"/>
      <use xlink:href="#DejaVuSans-6c" x="682.048828"/>
      <use xlink:href="#DejaVuSans-73" x="709.832031"/>
      <use xlink:href="#DejaVuSans-20" x="761.931641"/>
      <use xlink:href="#DejaVuSans-2f" x="793.71875"/>
      <use xlink:href="#DejaVuSans-20" x="827.410156"/>
      <use xlink:href="#DejaVuSans-64" x="859.197266"/>
      <use xlink:href="#DejaVuSans-69" x="922.673828"/>
      <use xlink:href="#DejaVuSans-6d" x="950.457031"/>
      <use xlink:href="#DejaVuSans-65" x="1047.869141"/>
      <use xlink:href="#DejaVuSans-6e" x="1109.392578"/>
      <use xlink:href="#DejaVuSans-73" x="1172.771484"/>
      <use xlink:href="#DejaVuSans-69" x="1224.871094"/>
      <use xlink:href="#DejaVuSans-6f" x="1252.654297"/>
      <use xlink:href="#DejaVuSans-6e" x="1313.835938"/>
      <use xlink:href="#DejaVuSans-29" x="1377.214844"/>
     </g>
    </g>
   </g>
   <g id="matplotlib.axis_2">
    <g id="ytick_1">
     <g id="line2d_21">
      <path d="M 57.6 298.944 
L 360.8064 298.944 
" clip-path="url(#pa6dc1e713c)" style="fill: none; stroke: #b0b0b0; stroke-width: 0.8; stroke-linecap: square"/>
     </g>
     <g id="line2d_22">
      <defs>
       <path id="mcbd88b277d" d="M 0 0 
L -3.5 0 
" style="stroke: #000000; stroke-width: 0.8"/>
      </defs>
      <g>
       <use xlink:href="#mcbd88b277d" x="57.6" y="298.944" style="stroke: #000000; stroke-width: 0.8"/>
      </g>
     </g>
     <g id="text_6">
      <!-- 0.0 -->
      <g transform="translate(25.155 305.02275) scale(0.16 -0.16)">
       <defs>
        <path id="DejaVuSans-2e" d="M 684 794 
L 1344 794 
L 1344 0 
L 684 0 
L 684 794 
z
" transform="scale(0.015625)"/>
       </defs>
       <use xlink:href="#DejaVuSans-30"/>
       <use xlink:href="#DejaVuSans-2e" x="63.623047"/>
       <use xlink:href="#DejaVuSans-30" x="95.410156"/>
      </g>
     </g>
    </g>
    <g id="ytick_2">
     <g id="line2d_23">
      <path d="M 57.6 244.6848 
L 360.8064 244.6848 
" clip-path="url(#pa6dc1e713c)" style="fill: none; stroke: #b0b0b0; stroke-width: 0.8; stroke-linecap: square"/>
     </g>
     <g id="line2d_24">
      <g>
       <use xlink:href="#mcbd88b277d" x="57.6" y="244.6848" style="stroke: #000000; stroke-width: 0.8"/>
      </g>
     </g>
     <g id="text_7">
      <!-- 0.2 -->
      <g transform="translate(25.155 250.76355) scale(0.16 -0.16)">
       <use xlink:href="#DejaVuSans-30"/>
       <use xlink:href="#DejaVuSans-2e" x="63.623047"/>
       <use xlink:href="#DejaVuSans-32" x="95.410156"/>
      </g>
     </g>
    </g>
    <g id="ytick_3">
     <g id="line2d_25">
      <path d="M 57.6 190.4256 
L 360.8064 190.4256 
" clip-path="url(#pa6dc1e713c)" style="fill: none; stroke: #b0b0b0; stroke-width: 0.8; stroke-linecap: square"/>
     </g>
     <g id="line2d_26">
      <g>
       <use xlink:href="#mcbd88b277d" x="57.6" y="190.4256" style="stroke: #000000; stroke-width: 0.8"/>
      </g>
     </g>
     <g id="text_8">
      <!-- 0.4 -->
      <g transform="translate(25.155 196.50435) scale(0.16 -0.16)">
       <use xlink:href="#DejaVuSans-30"/>
       <use xlink:href="#DejaVuSans-2e" x="63.623047"/>
       <use xlink:href="#DejaVuSans-34" x="95.410156"/>
      </g>
     </g>
    </g>
    <g id="ytick_4">
     <g id="line2d_27">
      <path d="M 57.6 136.1664 
L 360.8064 136.1664 
" clip-path="url(#pa6dc1e713c)" style="fill: none; stroke: #b0b0b0; stroke-width: 0.8; stroke-linecap: square"/>
     </g>
     <g id="line2d_28">
      <g>
       <use xlink:href="#mcbd88b277d" x="57.6" y="136.1664" style="stroke: #000000; stroke-width: 0.8"/>
      </g>
     </g>
     <g id="text_9">
      <!-- 0.6 -->
      <g transform="translate(25.155 142.24515) scale(0.16 -0.16)">
       <use xlink:href="#DejaVuSans-30"/>
       <use xlink:href="#DejaVuSans-2e" x="63.623047"/>
       <use xlink:href="#DejaVuSans-36" x="95.410156"/>
      </g>
     </g>
    </g>
    <g id="ytick_5">
     <g id="line2d_29">
      <path d="M 57.6 81.9072 
L 360.8064 81.9072 
" clip-path="url(#pa6dc1e713c)" style="fill: none; stroke: #b0b0b0; stroke-width: 0.8; stroke-linecap: square"/>
     </g>
     <g id="line2d_30">
      <g>
       <use xlink:href="#mcbd88b277d" x="57.6" y="81.9072" style="stroke: #000000; stroke-width: 0.8"/>
      </g>
     </g>
     <g id="text_10">
      <!-- 0.8 -->
      <g transform="translate(25.155 87.98595) scale(0.16 -0.16)">
       <defs>
        <path id="DejaVuSans-38" d="M 2034 2216 
Q 1584 2216 1326 1975 
Q 1069 1734 1069 1313 
Q 1069 891 1326 650 
Q 1584 409 2034 409 
Q 2484 409 2743 651 
Q 3003 894 3003 1313 
Q 3003 1734 2745 1975 
Q 2488 2216 2034 2216 
z
M 1403 2484 
Q 997 2584 770 2862 
Q 544 3141 544 3541 
Q 544 4100 942 4425 
Q 1341 4750 2034 4750 
Q 2731 4750 3128 4425 
Q 3525 4100 3525 3541 
Q 3525 3141 3298 2862 
Q 3072 2584 2669 2484 
Q 3125 2378 3379 2068 
Q 3634 1759 3634 1313 
Q 3634 634 3220 271 
Q 2806 -91 2034 -91 
Q 1263 -91 848 271 
Q 434 634 434 1313 
Q 434 1759 690 2068 
Q 947 2378 1403 2484 
z
M 1172 3481 
Q 1172 3119 1398 2916 
Q 1625 2713 2034 2713 
Q 2441 2713 2670 2916 
Q 2900 3119 2900 3481 
Q 2900 3844 2670 4047 
Q 2441 4250 2034 4250 
Q 1625 4250 1398 4047 
Q 1172 3844 1172 3481 
z
" transform="scale(0.015625)"/>
       </defs>
       <use xlink:href="#DejaVuSans-30"/>
       <use xlink:href="#DejaVuSans-2e" x="63.623047"/>
       <use xlink:href="#DejaVuSans-38" x="95.410156"/>
      </g>
     </g>
    </g>
    <g id="ytick_6">
     <g id="line2d_31">
      <path d="M 57.6 27.648 
L 360.8064 27.648 
" clip-path="url(#pa6dc1e713c)" style="fill: none; stroke: #b0b0b0; stroke-width: 0.8; stroke-linecap: square"/>
     </g>
     <g id="line2d_32">
      <g>
       <use xlink:href="#mcbd88b277d" x="57.6" y="27.648" style="stroke: #000000; stroke-width: 0.8"/>
      </g>
     </g>
     <g id="text_11">
      <!-- 1.0 -->
      <g transform="translate(25.155 33.72675) scale(0.16 -0.16)">
       <use xlink:href="#DejaVuSans-31"/>
       <use xlink:href="#DejaVuSans-2e" x="63.623047"/>
       <use xlink:href="#DejaVuSans-30" x="95.410156"/>
      </g>
     </g>
    </g>
    <g id="text_12">
     <!-- Fraction of function,target pairs -->
     <g transform="translate(17.619531 297.681) rotate(-90) scale(0.17 -0.17)">
      <defs>
       <path id="DejaVuSans-46" d="M 628 4666 
L 3309 4666 
L 3309 4134 
L 1259 4134 
L 1259 2759 
L 3109 2759 
L 3109 2228 
L 1259 2228 
L 1259 0 
L 628 0 
L 628 4666 
z
" transform="scale(0.015625)"/>
       <path id="DejaVuSans-72" d="M 2631 2963 
Q 2534 3019 2420 3045 
Q 2306 3072 2169 3072 
Q 1681 3072 1420 2755 
Q 1159 2438 1159 1844 
L 1159 0 
L 581 0 
L 581 3500 
L 1159 3500 
L 1159 2956 
Q 1341 3275 1631 3429 
Q 1922 3584 2338 3584 
Q 2397 3584 2469 3576 
Q 2541 3569 2628 3553 
L 2631 2963 
z
" transform="scale(0.015625)"/>
       <path id="DejaVuSans-63" d="M 3122 3366 
L 3122 2828 
Q 2878 2963 2633 3030 
Q 2388 3097 2138 3097 
Q 1578 3097 1268 2742 
Q 959 2388 959 1747 
Q 959 1106 1268 751 
Q 1578 397 2138 397 
Q 2388 397 2633 464 
Q 2878 531 3122 666 
L 3122 134 
Q 2881 22 2623 -34 
Q 2366 -91 2075 -91 
Q 1284 -91 818 406 
Q 353 903 353 1747 
Q 353 2603 823 3093 
Q 1294 3584 2113 3584 
Q 2378 3584 2631 3529 
Q 2884 3475 3122 3366 
z
" transform="scale(0.015625)"/>
       <path id="DejaVuSans-74" d="M 1172 4494 
L 1172 3500 
L 2356 3500 
L 2356 3053 
L 1172 3053 
L 1172 1153 
Q 1172 725 1289 603 
Q 1406 481 1766 481 
L 2356 481 
L 2356 0 
L 1766 0 
Q 1100 0 847 248 
Q 594 497 594 1153 
L 594 3053 
L 172 3053 
L 172 3500 
L 594 3500 
L 594 4494 
L 1172 4494 
z
" transform="scale(0.015625)"/>
       <path id="DejaVuSans-75" d="M 544 1381 
L 544 3500 
L 1119 3500 
L 1119 1403 
Q 1119 906 1312 657 
Q 1506 409 1894 409 
Q 2359 409 2629 706 
Q 2900 1003 2900 1516 
L 2900 3500 
L 3475 3500 
L 3475 0 
L 2900 0 
L 2900 538 
Q 2691 219 2414 64 
Q 2138 -91 1772 -91 
Q 1169 -91 856 284 
Q 544 659 544 1381 
z
M 1991 3584 
L 1991 3584 
z
" transform="scale(0.015625)"/>
       <path id="DejaVuSans-2c" d="M 750 794 
L 1409 794 
L 1409 256 
L 897 -744 
L 494 -744 
L 750 256 
L 750 794 
z
" transform="scale(0.015625)"/>
       <path id="DejaVuSans-70" d="M 1159 525 
L 1159 -1331 
L 581 -1331 
L 581 3500 
L 1159 3500 
L 1159 2969 
Q 1341 3281 1617 3432 
Q 1894 3584 2278 3584 
Q 2916 3584 3314 3078 
Q 3713 2572 3713 1747 
Q 3713 922 3314 415 
Q 2916 -91 2278 -91 
Q 1894 -91 1617 61 
Q 1341 213 1159 525 
z
M 3116 1747 
Q 3116 2381 2855 2742 
Q 2594 3103 2138 3103 
Q 1681 3103 1420 2742 
Q 1159 2381 1159 1747 
Q 1159 1113 1420 752 
Q 1681 391 2138 391 
Q 2594 391 2855 752 
Q 3116 1113 3116 1747 
z
" transform="scale(0.015625)"/>
      </defs>
      <use xlink:href="#DejaVuSans-46"/>
      <use xlink:href="#DejaVuSans-72" x="50.269531"/>
      <use xlink:href="#DejaVuSans-61" x="91.382812"/>
      <use xlink:href="#DejaVuSans-63" x="152.662109"/>
      <use xlink:href="#DejaVuSans-74" x="207.642578"/>
      <use xlink:href="#DejaVuSans-69" x="246.851562"/>
      <use xlink:href="#DejaVuSans-6f" x="274.634766"/>
      <use xlink:href="#DejaVuSans-6e" x="335.816406"/>
      <use xlink:href="#DejaVuSans-20" x="399.195312"/>
      <use xlink:href="#DejaVuSans-6f" x="430.982422"/>
      <use xlink:href="#DejaVuSans-66" x="492.164062"/>
      <use xlink:href="#DejaVuSans-20" x="527.369141"/>
      <use xlink:href="#DejaVuSans-66" x="559.15625"/>
      <use xlink:href="#DejaVuSans-75" x="594.361328"/>
      <use xlink:href="#DejaVuSans-6e" x="657.740234"/>
      <use xlink:href="#DejaVuSans-63" x="721.119141"/>
      <use xlink:href="#DejaVuSans-74" x="776.099609"/>
      <use xlink:href="#DejaVuSans-69" x="815.308594"/>
      <use xlink:href="#DejaVuSans-6f" x="843.091797"/>
      <use xlink:href="#DejaVuSans-6e" x="904.273438"/>
      <use xlink:href="#DejaVuSans-2c" x="967.652344"/>
      <use xlink:href="#DejaVuSans-74" x="999.439453"/>
      <use xlink:href="#DejaVuSans-61" x="1038.648438"/>
      <use xlink:href="#DejaVuSans-72" x="1099.927734"/>
      <use xlink:href="#DejaVuSans-67" x="1139.291016"/>
      <use xlink:href="#DejaVuSans-65" x="1202.767578"/>
      <use xlink:href="#DejaVuSans-74" x="1264.291016"/>
      <use xlink:href="#DejaVuSans-20" x="1303.5"/>
      <use xlink:href="#DejaVuSans-70" x="1335.287109"/>
      <use xlink:href="#DejaVuSans-61" x="1398.763672"/>
      <use xlink:href="#DejaVuSans-69" x="1460.042969"/>
      <use xlink:href="#DejaVuSans-72" x="1487.826172"/>
      <use xlink:href="#DejaVuSans-73" x="1528.939453"/>
     </g>
    </g>
   </g>
   <g id="line2d_33">
    <defs>
     <path id="m0bd949e5dd" d="M 0 1.5 
C 0.397805 1.5 0.77937 1.341951 1.06066 1.06066 
C 1.341951 0.77937 1.5 0.397805 1.5 0 
C 1.5 -0.397805 1.341951 -0.77937 1.06066 -1.06066 
C 0.77937 -1.341951 0.397805 -1.5 0 -1.5 
C -0.397805 -1.5 -0.77937 -1.341951 -1.06066 -1.06066 
C -1.341951 -0.77937 -1.5 -0.397805 -1.5 0 
C -1.5 0.397805 -1.341951 0.77937 -1.06066 1.06066 
C -0.77937 1.341951 -0.397805 1.5 0 1.5 
z
" style="stroke: #f5deb3"/>
    </defs>
    <g>
     <use xlink:href="#m0bd949e5dd" x="318.688117" y="60.390621" style="fill: #f5deb3; stroke: #f5deb3"/>
     <use xlink:href="#m0bd949e5dd" x="318.688117" y="60.390621" style="fill: #f5deb3; stroke: #f5deb3"/>
    </g>
   </g>
   <g id="line2d_34">
    <defs>
     <path id="m034262e962" d="M 0 1.5 
C 0.397805 1.5 0.77937 1.341951 1.06066 1.06066 
C 1.341951 0.77937 1.5 0.397805 1.5 0 
C 1.5 -0.397805 1.341951 -0.77937 1.06066 -1.06066 
C 0.77937 -1.341951 0.397805 -1.5 0 -1.5 
C -0.397805 -1.5 -0.77937 -1.341951 -1.06066 -1.06066 
C -1.341951 -0.77937 -1.5 -0.397805 -1.5 0 
C -1.5 0.397805 -1.341951 0.77937 -1.06066 1.06066 
C -0.77937 1.341951 -0.397805 1.5 0 1.5 
z
" style="stroke: #000080"/>
    </defs>
    <g>
     <use xlink:href="#m034262e962" x="185.907413" y="238.136276" style="fill: #000080; stroke: #000080"/>
     <use xlink:href="#m034262e962" x="185.907413" y="238.136276" style="fill: #000080; stroke: #000080"/>
    </g>
   </g>
   <g id="line2d_35">
    <path d="M 1.245626 298.944 
L 1.245626 296.13749 
L 14.2848 296.13749 
L 14.2848 295.669738 
L 88.972154 295.669738 
L 88.972154 295.201986 
L 106.905809 295.201986 
L 106.905809 294.734234 
L 126.875608 294.734234 
L 126.875608 294.266483 
L 132.19841 294.266483 
L 132.19841 293.798731 
L 132.656392 293.798731 
L 132.656392 293.330979 
L 133.754819 293.330979 
L 133.754819 292.863228 
L 134.384351 292.863228 
L 134.384351 292.395476 
L 134.792631 292.395476 
L 134.792631 291.927724 
L 135.192238 291.927724 
L 135.192238 291.459972 
L 135.966853 291.459972 
L 135.966853 290.992221 
L 137.072066 290.992221 
L 137.072066 290.524469 
L 137.601239 290.524469 
L 137.601239 290.056717 
L 139.104908 290.056717 
L 139.104908 289.588966 
L 139.423341 289.588966 
L 139.423341 289.121214 
L 139.580558 289.121214 
L 139.580558 288.653462 
L 140.34752 288.653462 
L 140.34752 288.18571 
L 140.49723 288.18571 
L 140.49723 287.250207 
L 140.793122 287.250207 
L 140.793122 286.782455 
L 140.939341 286.782455 
L 140.939341 286.314703 
L 141.228414 286.314703 
L 141.228414 285.846952 
L 141.513111 285.846952 
L 141.513111 285.3792 
L 142.47693 285.3792 
L 142.47693 284.911448 
L 142.875344 284.911448 
L 142.875344 284.443697 
L 143.265494 284.443697 
L 143.265494 283.975945 
L 144.022326 283.975945 
L 144.022326 283.508193 
L 144.630562 283.508193 
L 144.630562 283.040441 
L 145.450347 283.040441 
L 145.450347 282.57269 
L 146.01478 282.57269 
L 146.125662 281.637186 
L 146.562769 281.637186 
L 146.562769 281.169434 
L 147.407644 281.169434 
L 147.407644 280.701683 
L 147.816265 280.701683 
L 147.917048 279.766179 
L 148.017294 279.766179 
L 148.017294 279.298428 
L 149.552579 279.298428 
L 149.552579 278.362924 
L 149.91759 278.362924 
L 149.91759 277.895172 
L 150.186775 277.895172 
L 150.186775 277.427421 
L 150.364115 277.427421 
L 150.364115 276.959669 
L 151.142085 276.959669 
L 151.142085 276.491917 
L 151.310683 276.491917 
L 151.394419 275.556414 
L 152.291722 275.556414 
L 152.291722 275.088662 
L 152.529191 275.088662 
L 152.529191 274.62091 
L 152.685854 274.62091 
L 152.685854 274.153159 
L 152.841224 274.153159 
L 152.841224 273.685407 
L 153.894298 273.685407 
L 153.894298 271.8144 
L 154.470602 271.8144 
L 154.470602 271.346648 
L 155.098517 271.346648 
L 155.098517 270.878897 
L 155.639595 270.878897 
L 155.639595 270.411145 
L 156.035428 270.411145 
L 156.100598 269.00789 
L 156.486947 269.00789 
L 156.550574 267.604634 
L 157.175281 267.604634 
L 157.175281 267.136883 
L 158.595008 267.136883 
L 158.595008 266.669131 
L 158.989685 266.669131 
L 158.989685 266.201379 
L 159.430833 266.201379 
L 159.430833 265.265876 
L 159.593632 265.265876 
L 159.593632 264.798124 
L 159.808529 264.798124 
L 159.808529 263.862621 
L 160.178791 263.862621 
L 160.178791 263.394869 
L 160.49046 263.394869 
L 160.49046 262.927117 
L 160.797049 262.927117 
L 160.898144 261.991614 
L 161.639526 261.991614 
L 161.639526 261.05611 
L 162.165218 261.05611 
L 162.165218 260.120607 
L 162.306075 260.120607 
L 162.306075 259.185103 
L 162.768124 259.185103 
L 162.768124 258.717352 
L 163.746367 258.717352 
L 163.746367 258.2496 
L 164.004562 258.2496 
L 164.004562 257.314097 
L 164.174745 257.314097 
L 164.174745 256.846345 
L 164.676244 256.846345 
L 164.676244 255.910841 
L 165.20486 255.910841 
L 165.284883 254.975338 
L 165.874446 254.975338 
L 165.874446 254.039834 
L 165.990173 254.039834 
L 165.990173 253.572083 
L 166.558365 253.572083 
L 166.558365 253.104331 
L 166.964396 253.104331 
L 166.964396 252.168828 
L 167.146097 252.168828 
L 167.146097 251.701076 
L 167.290205 251.701076 
L 167.290205 251.233324 
L 168.166699 251.233324 
L 168.166699 250.765572 
L 168.404973 250.765572 
L 168.404973 250.297821 
L 168.740211 250.297821 
L 168.740211 249.830069 
L 169.004166 249.830069 
L 169.004166 248.894566 
L 169.457359 248.894566 
L 169.457359 247.959062 
L 170.484286 247.959062 
L 170.484286 247.49131 
L 171.313705 247.49131 
L 171.313705 246.555807 
L 172.52025 246.555807 
L 172.52025 245.620303 
L 173.679622 245.620303 
L 173.679622 245.152552 
L 174.208741 245.152552 
L 174.23357 243.749297 
L 174.626436 243.749297 
L 174.723384 242.813793 
L 174.891849 242.813793 
L 174.891849 242.346041 
L 176.673553 242.346041 
L 176.673553 241.410538 
L 177.210661 241.410538 
L 177.210661 240.475034 
L 177.896945 240.475034 
L 177.896945 240.007283 
L 178.499832 240.007283 
L 178.499832 239.071779 
L 180.646928 239.071779 
L 180.646928 238.604028 
L 185.907413 238.604028 
L 185.907413 238.136276 
L 360.8064 238.136276 
L 360.8064 238.136276 
" style="fill: none; stroke: #000080; stroke-width: 1.5; stroke-linecap: square"/>
   </g>
   <g id="line2d_36">
    <defs>
     <path id="m112a16933b" d="M 0 6 
C 1.591219 6 3.117479 5.367802 4.242641 4.242641 
C 5.367802 3.117479 6 1.591219 6 0 
C 6 -1.591219 5.367802 -3.117479 4.242641 -4.242641 
C 3.117479 -5.367802 1.591219 -6 0 -6 
C -1.591219 -6 -3.117479 -5.367802 -4.242641 -4.242641 
C -5.367802 -3.117479 -6 -1.591219 -6 0 
C -6 1.591219 -5.367802 3.117479 -4.242641 4.242641 
C -3.117479 5.367802 -1.591219 6 0 6 
z
" style="stroke: #000080; stroke-width: 1.5"/>
    </defs>
    <g>
     <use xlink:href="#m112a16933b" x="106.905809" y="294.734234" style="fill-opacity: 0; stroke: #000080; stroke-width: 1.5"/>
     <use xlink:href="#m112a16933b" x="185.907413" y="238.604028" style="fill-opacity: 0; stroke: #000080; stroke-width: 1.5"/>
     <use xlink:href="#m112a16933b" x="185.907413" y="238.136276" style="fill-opacity: 0; stroke: #000080; stroke-width: 1.5"/>
     <use xlink:href="#m112a16933b" x="185.907413" y="238.136276" style="fill-opacity: 0; stroke: #000080; stroke-width: 1.5"/>
     <use xlink:href="#m112a16933b" x="360.8064" y="238.136276" style="fill-opacity: 0; stroke: #000080; stroke-width: 1.5"/>
    </g>
   </g>
   <g id="line2d_37">
    <path style="fill: none; stroke: #000080; stroke-width: 1.5; stroke-linecap: square"/>
    <g/>
   </g>
   <g id="line2d_38">
    <path d="M 187.540897 238.136276 
" clip-path="url(#pa6dc1e713c)" style="fill: none; stroke: #000080; stroke-width: 1.5; stroke-linecap: square"/>
    <defs>
     <path id="me85a6df7e1" d="M -12 12 
L 12 -12 
M -12 -12 
L 12 12 
" style="stroke: #000080"/>
    </defs>
    <g clip-path="url(#pa6dc1e713c)">
     <use xlink:href="#me85a6df7e1" x="187.540897" y="238.136276" style="fill: #000080; stroke: #000080"/>
    </g>
   </g>
   <g id="line2d_39">
    <defs>
     <path id="m41c9cdcd38" d="M 0 1.5 
C 0.397805 1.5 0.77937 1.341951 1.06066 1.06066 
C 1.341951 0.77937 1.5 0.397805 1.5 0 
C 1.5 -0.397805 1.341951 -0.77937 1.06066 -1.06066 
C 0.77937 -1.341951 0.397805 -1.5 0 -1.5 
C -0.397805 -1.5 -0.77937 -1.341951 -1.06066 -1.06066 
C -1.341951 -0.77937 -1.5 -0.397805 -1.5 0 
C -1.5 0.397805 -1.341951 0.77937 -1.06066 1.06066 
C -0.77937 1.341951 -0.397805 1.5 0 1.5 
z
" style="stroke: #ff00ff"/>
    </defs>
    <g>
     <use xlink:href="#m41c9cdcd38" x="185.363983" y="232.055503" style="fill: #ff00ff; stroke: #ff00ff"/>
     <use xlink:href="#m41c9cdcd38" x="185.363983" y="232.055503" style="fill: #ff00ff; stroke: #ff00ff"/>
    </g>
   </g>
   <g id="line2d_40">
    <path d="M 1.245626 298.944 
L 1.245626 296.13749 
L 74.836851 296.13749 
L 74.836851 295.669738 
L 84.142855 295.669738 
L 84.142855 295.201986 
L 87.495981 295.201986 
L 87.495981 294.734234 
L 116.988079 294.734234 
L 116.988079 294.266483 
L 122.766456 294.266483 
L 122.766456 293.798731 
L 124.046648 293.798731 
L 124.046648 293.330979 
L 124.985409 293.330979 
L 124.985409 292.863228 
L 128.244324 292.863228 
L 128.244324 292.395476 
L 129.765278 292.395476 
L 129.765278 291.927724 
L 130.206507 291.927724 
L 130.206507 291.459972 
L 131.134706 291.459972 
L 131.134706 290.992221 
L 132.180571 290.992221 
L 132.180571 290.524469 
L 133.086488 290.524469 
L 133.086488 290.056717 
L 133.950775 290.056717 
L 133.950775 289.588966 
L 134.064146 289.588966 
L 134.064146 289.121214 
L 135.643015 289.121214 
L 135.702311 288.18571 
L 136.270855 288.18571 
L 136.270855 287.717959 
L 136.682752 287.717959 
L 136.682752 287.250207 
L 137.003134 287.250207 
L 137.003134 286.782455 
L 137.345296 286.782455 
L 137.345296 286.314703 
L 138.258593 286.314703 
L 138.258593 285.846952 
L 138.743257 285.846952 
L 138.743257 285.3792 
L 139.005835 285.3792 
L 139.018248 284.443697 
L 139.203463 284.443697 
L 139.228021 283.508193 
L 140.759217 283.508193 
L 140.759217 283.040441 
L 141.50224 283.040441 
L 141.59985 282.104938 
L 141.621472 282.104938 
L 141.621472 281.637186 
L 142.101521 281.637186 
L 142.101521 281.169434 
L 142.269295 281.169434 
L 142.269295 280.701683 
L 142.507879 280.701683 
L 142.507879 280.233931 
L 144.155003 280.233931 
L 144.155003 279.766179 
L 144.584466 279.766179 
L 144.584466 279.298428 
L 145.246498 279.298428 
L 145.246498 278.830676 
L 145.459161 278.830676 
L 145.529517 277.427421 
L 145.782376 277.427421 
L 145.782376 276.959669 
L 146.529503 276.959669 
L 146.546143 275.556414 
L 146.719981 275.556414 
L 146.719981 275.088662 
L 147.351953 275.088662 
L 147.351953 274.62091 
L 147.636622 274.62091 
L 147.636622 274.153159 
L 148.518156 274.153159 
L 148.518156 273.217655 
L 149.238092 273.217655 
L 149.31003 272.282152 
L 150.090587 272.282152 
L 150.090587 271.8144 
L 150.793652 271.8144 
L 150.793652 271.346648 
L 151.630724 271.346648 
L 151.630724 270.878897 
L 152.106991 270.878897 
L 152.131727 269.943393 
L 152.655828 269.943393 
L 152.727811 269.00789 
L 153.107137 269.00789 
L 153.142309 268.072386 
L 153.270716 268.072386 
L 153.270716 267.604634 
L 156.501649 267.604634 
L 156.501649 266.669131 
L 156.84148 266.669131 
L 156.860715 265.733628 
L 157.099504 265.733628 
L 157.099504 265.265876 
L 157.830187 265.265876 
L 157.830187 264.798124 
L 158.84319 264.798124 
L 158.886396 263.862621 
L 159.547857 263.862621 
L 159.639297 262.459366 
L 160.093991 262.459366 
L 160.093991 261.991614 
L 160.835996 261.991614 
L 160.890387 260.588359 
L 161.270586 260.588359 
L 161.270586 260.120607 
L 161.802848 260.120607 
L 161.858203 259.185103 
L 162.399397 259.185103 
L 162.424443 257.781848 
L 163.195086 257.781848 
L 163.24992 255.910841 
L 163.935396 255.910841 
L 163.935396 255.44309 
L 164.168227 255.44309 
L 164.168227 254.507586 
L 164.593584 254.507586 
L 164.593584 254.039834 
L 164.915805 254.039834 
L 164.928329 253.104331 
L 165.146166 253.104331 
L 165.146166 252.636579 
L 166.575579 252.636579 
L 166.575579 252.168828 
L 166.778085 252.168828 
L 166.778085 251.701076 
L 167.542492 251.701076 
L 167.542492 250.765572 
L 167.9227 250.765572 
L 167.9227 249.830069 
L 168.082189 249.830069 
L 168.082189 249.362317 
L 168.292758 249.362317 
L 168.292758 248.426814 
L 168.996604 248.426814 
L 168.996604 247.959062 
L 169.169775 247.959062 
L 169.247061 246.555807 
L 169.689648 246.555807 
L 169.689648 246.088055 
L 170.623545 246.088055 
L 170.623545 245.620303 
L 170.855662 245.620303 
L 170.878489 244.217048 
L 172.137987 244.217048 
L 172.137987 243.281545 
L 172.52025 243.281545 
L 172.52025 242.813793 
L 173.787425 242.813793 
L 173.787425 241.87829 
L 174.286936 241.87829 
L 174.286936 241.410538 
L 174.930512 241.410538 
L 174.930512 240.942786 
L 175.368623 240.942786 
L 175.368623 240.475034 
L 175.632699 240.475034 
L 175.632699 240.007283 
L 175.830105 240.007283 
L 175.861639 238.136276 
L 177.025646 238.136276 
L 177.025646 237.200772 
L 177.52892 237.200772 
L 177.52892 236.265269 
L 178.836071 236.265269 
L 178.836071 235.329766 
L 179.276214 235.329766 
L 179.276214 234.862014 
L 183.10177 234.862014 
L 183.10177 233.92651 
L 184.010964 233.92651 
L 184.010964 232.991007 
L 185.363983 232.991007 
L 185.363983 232.055503 
L 360.8064 232.055503 
L 360.8064 232.055503 
" style="fill: none; stroke: #ff00ff; stroke-width: 1.5; stroke-linecap: square"/>
   </g>
   <g id="line2d_41">
    <defs>
     <path id="m81f2a16404" d="M -0 8.485281 
L 5.091169 0 
L 0 -8.485281 
L -5.091169 -0 
z
" style="stroke: #ff00ff; stroke-width: 1.5; stroke-linejoin: miter"/>
    </defs>
    <g>
     <use xlink:href="#m81f2a16404" x="87.495981" y="294.734234" style="fill-opacity: 0; stroke: #ff00ff; stroke-width: 1.5; stroke-linejoin: miter"/>
     <use xlink:href="#m81f2a16404" x="165.146166" y="252.636579" style="fill-opacity: 0; stroke: #ff00ff; stroke-width: 1.5; stroke-linejoin: miter"/>
     <use xlink:href="#m81f2a16404" x="185.363983" y="232.991007" style="fill-opacity: 0; stroke: #ff00ff; stroke-width: 1.5; stroke-linejoin: miter"/>
     <use xlink:href="#m81f2a16404" x="185.363983" y="232.055503" style="fill-opacity: 0; stroke: #ff00ff; stroke-width: 1.5; stroke-linejoin: miter"/>
     <use xlink:href="#m81f2a16404" x="185.363983" y="232.055503" style="fill-opacity: 0; stroke: #ff00ff; stroke-width: 1.5; stroke-linejoin: miter"/>
     <use xlink:href="#m81f2a16404" x="360.8064" y="232.055503" style="fill-opacity: 0; stroke: #ff00ff; stroke-width: 1.5; stroke-linejoin: miter"/>
    </g>
   </g>
   <g id="line2d_42">
    <path style="fill: none; stroke: #ff00ff; stroke-width: 1.5; stroke-linecap: square"/>
    <g/>
   </g>
   <g id="line2d_43">
    <path d="M 187.542778 232.055503 
" clip-path="url(#pa6dc1e713c)" style="fill: none; stroke: #ff00ff; stroke-width: 1.5; stroke-linecap: square"/>
    <defs>
     <path id="mb69f50237b" d="M -12 12 
L 12 -12 
M -12 -12 
L 12 12 
" style="stroke: #ff00ff"/>
    </defs>
    <g clip-path="url(#pa6dc1e713c)">
     <use xlink:href="#mb69f50237b" x="187.542778" y="232.055503" style="fill: #ff00ff; stroke: #ff00ff"/>
    </g>
   </g>
   <g id="line2d_44">
    <defs>
     <path id="medb58c4fde" d="M 0 1.5 
C 0.397805 1.5 0.77937 1.341951 1.06066 1.06066 
C 1.341951 0.77937 1.5 0.397805 1.5 0 
C 1.5 -0.397805 1.341951 -0.77937 1.06066 -1.06066 
C 0.77937 -1.341951 0.397805 -1.5 0 -1.5 
C -0.397805 -1.5 -0.77937 -1.341951 -1.06066 -1.06066 
C -1.341951 -0.77937 -1.5 -0.397805 -1.5 0 
C -1.5 0.397805 -1.341951 0.77937 -1.06066 1.06066 
C -0.77937 1.341951 -0.397805 1.5 0 1.5 
z
" style="stroke: #ff7500"/>
    </defs>
    <g>
     <use xlink:href="#medb58c4fde" x="196.221179" y="223.168221" style="fill: #ff7500; stroke: #ff7500"/>
     <use xlink:href="#medb58c4fde" x="196.221179" y="223.168221" style="fill: #ff7500; stroke: #ff7500"/>
    </g>
   </g>
   <g id="line2d_45">
    <path d="M 1.245626 298.944 
L 1.245626 296.13749 
L 14.2848 296.13749 
L 14.2848 295.669738 
L 21.912228 295.669738 
L 21.912228 295.201986 
L 31.521651 295.201986 
L 31.521651 294.734234 
L 82.713442 294.734234 
L 82.713442 294.266483 
L 136.097741 294.266483 
L 136.097741 293.798731 
L 144.71325 293.798731 
L 144.71325 293.330979 
L 146.420983 293.330979 
L 146.420983 292.863228 
L 147.062909 292.863228 
L 147.062909 292.395476 
L 147.375841 292.395476 
L 147.375841 291.927724 
L 147.644469 291.927724 
L 147.644469 291.459972 
L 148.086384 291.459972 
L 148.086384 290.992221 
L 148.284563 290.992221 
L 148.284563 290.524469 
L 149.057037 290.524469 
L 149.057037 290.056717 
L 150.512877 290.056717 
L 150.512877 289.588966 
L 150.773735 289.588966 
L 150.773735 289.121214 
L 151.368694 289.121214 
L 151.452172 288.18571 
L 151.618026 288.18571 
L 151.618026 287.717959 
L 152.426047 287.717959 
L 152.504972 286.314703 
L 154.377597 286.314703 
L 154.377597 285.846952 
L 154.730749 285.846952 
L 154.730749 285.3792 
L 155.077392 285.3792 
L 155.145961 284.443697 
L 155.417764 284.443697 
L 155.417764 283.975945 
L 155.552207 283.975945 
L 155.552207 283.508193 
L 156.467326 283.508193 
L 156.467326 283.040441 
L 156.846291 283.040441 
L 156.846291 282.57269 
L 157.127956 282.57269 
L 157.127956 282.104938 
L 157.76159 282.104938 
L 157.76159 281.637186 
L 157.884885 281.637186 
L 157.884885 281.169434 
L 158.249994 281.169434 
L 158.290128 279.298428 
L 158.860484 279.298428 
L 158.860484 276.959669 
L 159.194578 276.959669 
L 159.194578 276.491917 
L 159.414056 276.491917 
L 159.468527 275.556414 
L 159.622704 275.556414 
L 159.622704 275.088662 
L 160.00474 275.088662 
L 160.00474 274.62091 
L 160.371198 274.62091 
L 160.371198 274.153159 
L 160.983265 274.153159 
L 160.983265 273.685407 
L 161.240147 273.685407 
L 161.240147 273.217655 
L 161.455961 273.217655 
L 161.527352 272.282152 
L 161.624608 272.282152 
L 161.624608 271.8144 
L 161.946434 271.8144 
L 161.961099 270.411145 
L 162.431593 270.411145 
L 162.431593 269.475641 
L 162.775144 269.475641 
L 162.775144 269.00789 
L 162.890607 269.00789 
L 162.890607 267.604634 
L 163.338686 267.604634 
L 163.345497 266.201379 
L 164.07675 266.201379 
L 164.07675 265.265876 
L 164.204043 265.265876 
L 164.246284 263.862621 
L 164.622238 263.862621 
L 164.622238 263.394869 
L 164.786947 263.394869 
L 164.786947 262.927117 
L 165.031338 262.927117 
L 165.031338 261.991614 
L 165.43173 261.991614 
L 165.43173 261.523862 
L 165.707018 261.523862 
L 165.707018 261.05611 
L 165.823777 261.05611 
L 165.823777 260.588359 
L 166.359269 260.588359 
L 166.359269 260.120607 
L 166.681382 260.120607 
L 166.681382 259.652855 
L 166.953157 259.652855 
L 166.953157 258.717352 
L 167.207201 258.717352 
L 167.315036 257.781848 
L 167.879941 257.781848 
L 167.986658 256.846345 
L 168.12185 256.846345 
L 168.12185 256.378593 
L 168.68646 256.378593 
L 168.68646 255.910841 
L 168.90815 255.910841 
L 168.90815 255.44309 
L 169.222165 255.44309 
L 169.222165 254.975338 
L 169.447515 254.975338 
L 169.543273 253.572083 
L 169.701795 253.572083 
L 169.764832 252.636579 
L 169.890274 252.636579 
L 169.983811 249.830069 
L 170.595776 249.830069 
L 170.685877 248.426814 
L 170.905844 248.426814 
L 170.905844 247.959062 
L 171.67796 247.959062 
L 171.67796 247.023559 
L 172.360687 247.023559 
L 172.360687 246.088055 
L 172.582865 246.088055 
L 172.582865 245.620303 
L 174.174309 245.620303 
L 174.174309 244.6848 
L 174.527107 244.6848 
L 174.527107 243.749297 
L 174.812433 243.749297 
L 174.812433 242.813793 
L 175.122646 242.813793 
L 175.122646 242.346041 
L 175.255078 242.346041 
L 175.255078 241.410538 
L 175.978552 241.410538 
L 175.978552 240.942786 
L 176.362527 240.942786 
L 176.362527 240.007283 
L 176.974571 240.007283 
L 176.974571 239.071779 
L 177.225318 239.071779 
L 177.225318 238.136276 
L 177.410001 238.136276 
L 177.46634 236.265269 
L 178.236322 236.265269 
L 178.236322 235.329766 
L 179.211871 235.329766 
L 179.230905 233.92651 
L 180.014803 233.92651 
L 180.014803 232.991007 
L 180.186663 232.991007 
L 180.186663 232.055503 
L 181.308361 232.055503 
L 181.308361 231.587752 
L 181.755089 231.587752 
L 181.755089 231.12 
L 182.140123 231.12 
L 182.140123 230.184497 
L 182.376828 230.184497 
L 182.376828 229.248993 
L 183.031357 229.248993 
L 183.031357 228.781241 
L 183.426532 228.781241 
L 183.426532 228.31349 
L 183.707758 228.31349 
L 183.707758 227.845738 
L 184.050648 227.845738 
L 184.050648 227.377986 
L 185.862207 227.377986 
L 185.862207 226.910234 
L 188.117165 226.910234 
L 188.117165 226.442483 
L 188.516196 226.442483 
L 188.516196 225.974731 
L 188.794615 225.974731 
L 188.794615 225.039228 
L 193.02026 225.039228 
L 193.02026 224.571476 
L 194.157229 224.571476 
L 194.157229 223.635972 
L 196.221179 223.635972 
L 196.221179 223.168221 
L 360.8064 223.168221 
L 360.8064 223.168221 
" style="fill: none; stroke: #ff7500; stroke-width: 1.5; stroke-linecap: square"/>
   </g>
   <g id="line2d_46">
    <defs>
     <path id="m06d6ceaba8" d="M 0 -6 
L -1.347084 -1.854102 
L -5.706339 -1.854102 
L -2.179628 0.708204 
L -3.526712 4.854102 
L -0 2.291796 
L 3.526712 4.854102 
L 2.179628 0.708204 
L 5.706339 -1.854102 
L 1.347084 -1.854102 
z
" style="stroke: #ff7500; stroke-width: 1.5; stroke-linejoin: bevel"/>
    </defs>
    <g>
     <use xlink:href="#m06d6ceaba8" x="82.713442" y="294.266483" style="fill-opacity: 0; stroke: #ff7500; stroke-width: 1.5; stroke-linejoin: bevel"/>
     <use xlink:href="#m06d6ceaba8" x="166.681382" y="260.120607" style="fill-opacity: 0; stroke: #ff7500; stroke-width: 1.5; stroke-linejoin: bevel"/>
     <use xlink:href="#m06d6ceaba8" x="196.221179" y="223.635972" style="fill-opacity: 0; stroke: #ff7500; stroke-width: 1.5; stroke-linejoin: bevel"/>
     <use xlink:href="#m06d6ceaba8" x="196.221179" y="223.168221" style="fill-opacity: 0; stroke: #ff7500; stroke-width: 1.5; stroke-linejoin: bevel"/>
     <use xlink:href="#m06d6ceaba8" x="196.221179" y="223.168221" style="fill-opacity: 0; stroke: #ff7500; stroke-width: 1.5; stroke-linejoin: bevel"/>
     <use xlink:href="#m06d6ceaba8" x="360.8064" y="223.168221" style="fill-opacity: 0; stroke: #ff7500; stroke-width: 1.5; stroke-linejoin: bevel"/>
    </g>
   </g>
   <g id="line2d_47">
    <path style="fill: none; stroke: #ff7500; stroke-width: 1.5; stroke-linecap: square"/>
    <g/>
   </g>
   <g id="line2d_48">
    <path d="M 274.176075 223.168221 
" clip-path="url(#pa6dc1e713c)" style="fill: none; stroke: #ff7500; stroke-width: 1.5; stroke-linecap: square"/>
    <defs>
     <path id="m42c94a0b59" d="M -12 12 
L 12 -12 
M -12 -12 
L 12 12 
" style="stroke: #ff7500"/>
    </defs>
    <g clip-path="url(#pa6dc1e713c)">
     <use xlink:href="#m42c94a0b59" x="274.176075" y="223.168221" style="fill: #ff7500; stroke: #ff7500"/>
    </g>
   </g>
   <g id="line2d_49">
    <path d="M 360.8064 238.136276 
L 380.514816 293.51808 
" style="fill: none; stroke: #000080; stroke-width: 1.5; stroke-linecap: square"/>
    <g>
     <use xlink:href="#m112a16933b" x="360.8064" y="238.136276" style="fill-opacity: 0; stroke: #000080; stroke-width: 1.5"/>
     <use xlink:href="#m112a16933b" x="380.514816" y="293.51808" style="fill-opacity: 0; stroke: #000080; stroke-width: 1.5"/>
    </g>
   </g>
   <g id="line2d_50">
    <path d="M 360.8064 232.055503 
L 380.514816 206.70336 
" style="fill: none; stroke: #ff00ff; stroke-width: 1.5; stroke-linecap: square"/>
    <g>
     <use xlink:href="#m81f2a16404" x="360.8064" y="232.055503" style="fill-opacity: 0; stroke: #ff00ff; stroke-width: 1.5; stroke-linejoin: miter"/>
     <use xlink:href="#m81f2a16404" x="380.514816" y="206.70336" style="fill-opacity: 0; stroke: #ff00ff; stroke-width: 1.5; stroke-linejoin: miter"/>
    </g>
   </g>
   <g id="line2d_51">
    <path d="M 360.8064 223.168221 
L 380.514816 119.88864 
" style="fill: none; stroke: #ff7500; stroke-width: 1.5; stroke-linecap: square"/>
    <g>
     <use xlink:href="#m06d6ceaba8" x="360.8064" y="223.168221" style="fill-opacity: 0; stroke: #ff7500; stroke-width: 1.5; stroke-linejoin: bevel"/>
     <use xlink:href="#m06d6ceaba8" x="380.514816" y="119.88864" style="fill-opacity: 0; stroke: #ff7500; stroke-width: 1.5; stroke-linejoin: bevel"/>
    </g>
   </g>
   <g id="line2d_52">
    <path d="M 360.8064 298.944 
L 360.8064 27.648 
" style="fill: none; stroke: #000000; stroke-width: 1.5; stroke-linecap: square"/>
   </g>
   <g id="patch_3">
    <path d="M 57.6 298.944 
L 360.8064 298.944 
" style="fill: none; stroke: #000000; stroke-width: 0.8; stroke-linejoin: miter; stroke-linecap: square"/>
   </g>
   <g id="patch_4">
    <path d="M 57.6 27.648 
L 360.8064 27.648 
" style="fill: none; stroke: #000000; stroke-width: 0.8; stroke-linejoin: miter; stroke-linecap: square"/>
   </g>
   <g id="text_13">
    <!-- kerComo -->
    <g transform="translate(386.578944 297.381205) scale(0.14 -0.14)">
     <defs>
      <path id="DejaVuSans-6b" d="M 581 4863 
L 1159 4863 
L 1159 1991 
L 2875 3500 
L 3609 3500 
L 1753 1863 
L 3688 0 
L 2938 0 
L 1159 1709 
L 1159 0 
L 581 0 
L 581 4863 
z
" transform="scale(0.015625)"/>
      <path id="DejaVuSans-43" d="M 4122 4306 
L 4122 3641 
Q 3803 3938 3442 4084 
Q 3081 4231 2675 4231 
Q 1875 4231 1450 3742 
Q 1025 3253 1025 2328 
Q 1025 1406 1450 917 
Q 1875 428 2675 428 
Q 3081 428 3442 575 
Q 3803 722 4122 1019 
L 4122 359 
Q 3791 134 3420 21 
Q 3050 -91 2638 -91 
Q 1578 -91 968 557 
Q 359 1206 359 2328 
Q 359 3453 968 4101 
Q 1578 4750 2638 4750 
Q 3056 4750 3426 4639 
Q 3797 4528 4122 4306 
z
" transform="scale(0.015625)"/>
     </defs>
     <use xlink:href="#DejaVuSans-6b"/>
     <use xlink:href="#DejaVuSans-65" x="54.285156"/>
     <use xlink:href="#DejaVuSans-72" x="115.808594"/>
     <use xlink:href="#DejaVuSans-43" x="156.921875"/>
     <use xlink:href="#DejaVuSans-6f" x="226.746094"/>
     <use xlink:href="#DejaVuSans-6d" x="287.927734"/>
     <use xlink:href="#DejaVuSans-6f" x="385.339844"/>
    </g>
   </g>
   <g id="text_14">
    <!-- kerLQ -->
    <g transform="translate(386.578944 210.566485) scale(0.14 -0.14)">
     <defs>
      <path id="DejaVuSans-4c" d="M 628 4666 
L 1259 4666 
L 1259 531 
L 3531 531 
L 3531 0 
L 628 0 
L 628 4666 
z
" transform="scale(0.015625)"/>
      <path id="DejaVuSans-51" d="M 2522 4238 
Q 1834 4238 1429 3725 
Q 1025 3213 1025 2328 
Q 1025 1447 1429 934 
Q 1834 422 2522 422 
Q 3209 422 3611 934 
Q 4013 1447 4013 2328 
Q 4013 3213 3611 3725 
Q 3209 4238 2522 4238 
z
M 3406 84 
L 4238 -825 
L 3475 -825 
L 2784 -78 
Q 2681 -84 2626 -87 
Q 2572 -91 2522 -91 
Q 1538 -91 948 567 
Q 359 1225 359 2328 
Q 359 3434 948 4092 
Q 1538 4750 2522 4750 
Q 3503 4750 4090 4092 
Q 4678 3434 4678 2328 
Q 4678 1516 4351 937 
Q 4025 359 3406 84 
z
" transform="scale(0.015625)"/>
     </defs>
     <use xlink:href="#DejaVuSans-6b"/>
     <use xlink:href="#DejaVuSans-65" x="54.285156"/>
     <use xlink:href="#DejaVuSans-72" x="115.808594"/>
     <use xlink:href="#DejaVuSans-4c" x="156.921875"/>
     <use xlink:href="#DejaVuSans-51" x="212.634766"/>
    </g>
   </g>
   <g id="text_15">
    <!-- COMO-10 d -->
    <g transform="translate(386.578944 123.751765) scale(0.14 -0.14)">
     <defs>
      <path id="DejaVuSans-4f" d="M 2522 4238 
Q 1834 4238 1429 3725 
Q 1025 3213 1025 2328 
Q 1025 1447 1429 934 
Q 1834 422 2522 422 
Q 3209 422 3611 934 
Q 4013 1447 4013 2328 
Q 4013 3213 3611 3725 
Q 3209 4238 2522 4238 
z
M 2522 4750 
Q 3503 4750 4090 4092 
Q 4678 3434 4678 2328 
Q 4678 1225 4090 567 
Q 3503 -91 2522 -91 
Q 1538 -91 948 565 
Q 359 1222 359 2328 
Q 359 3434 948 4092 
Q 1538 4750 2522 4750 
z
" transform="scale(0.015625)"/>
      <path id="DejaVuSans-4d" d="M 628 4666 
L 1569 4666 
L 2759 1491 
L 3956 4666 
L 4897 4666 
L 4897 0 
L 4281 0 
L 4281 4097 
L 3078 897 
L 2444 897 
L 1241 4097 
L 1241 0 
L 628 0 
L 628 4666 
z
" transform="scale(0.015625)"/>
     </defs>
     <use xlink:href="#DejaVuSans-43"/>
     <use xlink:href="#DejaVuSans-4f" x="69.824219"/>
     <use xlink:href="#DejaVuSans-4d" x="148.535156"/>
     <use xlink:href="#DejaVuSans-4f" x="234.814453"/>
     <use xlink:href="#DejaVuSans-2d" x="316.275391"/>
     <use xlink:href="#DejaVuSans-31" x="352.359375"/>
     <use xlink:href="#DejaVuSans-30" x="415.982422"/>
     <use xlink:href="#DejaVuSans-20" x="479.605469"/>
     <use xlink:href="#DejaVuSans-64" x="511.392578"/>
    </g>
   </g>
   <g id="text_16">
    <!-- best 2016 -->
    <g transform="translate(386.578944 36.937045) scale(0.14 -0.14)">
     <defs>
      <path id="DejaVuSans-62" d="M 3116 1747 
Q 3116 2381 2855 2742 
Q 2594 3103 2138 3103 
Q 1681 3103 1420 2742 
Q 1159 2381 1159 1747 
Q 1159 1113 1420 752 
Q 1681 391 2138 391 
Q 2594 391 2855 752 
Q 3116 1113 3116 1747 
z
M 1159 2969 
Q 1341 3281 1617 3432 
Q 1894 3584 2278 3584 
Q 2916 3584 3314 3078 
Q 3713 2572 3713 1747 
Q 3713 922 3314 415 
Q 2916 -91 2278 -91 
Q 1894 -91 1617 61 
Q 1341 213 1159 525 
L 1159 0 
L 581 0 
L 581 4863 
L 1159 4863 
L 1159 2969 
z
" transform="scale(0.015625)"/>
     </defs>
     <use xlink:href="#DejaVuSans-62"/>
     <use xlink:href="#DejaVuSans-65" x="63.476562"/>
     <use xlink:href="#DejaVuSans-73" x="125"/>
     <use xlink:href="#DejaVuSans-74" x="177.099609"/>
     <use xlink:href="#DejaVuSans-20" x="216.308594"/>
     <use xlink:href="#DejaVuSans-32" x="248.095703"/>
     <use xlink:href="#DejaVuSans-30" x="311.71875"/>
     <use xlink:href="#DejaVuSans-31" x="375.341797"/>
     <use xlink:href="#DejaVuSans-36" x="438.964844"/>
    </g>
   </g>
   <g id="text_17">
    <!-- bbob-biobj f19, 20-D -->
    <g transform="translate(60.632064 38.111366) scale(0.102 -0.102)">
     <defs>
      <path id="DejaVuSans-6a" d="M 603 3500 
L 1178 3500 
L 1178 -63 
Q 1178 -731 923 -1031 
Q 669 -1331 103 -1331 
L -116 -1331 
L -116 -844 
L 38 -844 
Q 366 -844 484 -692 
Q 603 -541 603 -63 
L 603 3500 
z
M 603 4863 
L 1178 4863 
L 1178 4134 
L 603 4134 
L 603 4863 
z
" transform="scale(0.015625)"/>
      <path id="DejaVuSans-39" d="M 703 97 
L 703 672 
Q 941 559 1184 500 
Q 1428 441 1663 441 
Q 2288 441 2617 861 
Q 2947 1281 2994 2138 
Q 2813 1869 2534 1725 
Q 2256 1581 1919 1581 
Q 1219 1581 811 2004 
Q 403 2428 403 3163 
Q 403 3881 828 4315 
Q 1253 4750 1959 4750 
Q 2769 4750 3195 4129 
Q 3622 3509 3622 2328 
Q 3622 1225 3098 567 
Q 2575 -91 1691 -91 
Q 1453 -91 1209 -44 
Q 966 3 703 97 
z
M 1959 2075 
Q 2384 2075 2632 2365 
Q 2881 2656 2881 3163 
Q 2881 3666 2632 3958 
Q 2384 4250 1959 4250 
Q 1534 4250 1286 3958 
Q 1038 3666 1038 3163 
Q 1038 2656 1286 2365 
Q 1534 2075 1959 2075 
z
" transform="scale(0.015625)"/>
      <path id="DejaVuSans-44" d="M 1259 4147 
L 1259 519 
L 2022 519 
Q 2988 519 3436 956 
Q 3884 1394 3884 2338 
Q 3884 3275 3436 3711 
Q 2988 4147 2022 4147 
L 1259 4147 
z
M 628 4666 
L 1925 4666 
Q 3281 4666 3915 4102 
Q 4550 3538 4550 2338 
Q 4550 1131 3912 565 
Q 3275 0 1925 0 
L 628 0 
L 628 4666 
z
" transform="scale(0.015625)"/>
     </defs>
     <use xlink:href="#DejaVuSans-62"/>
     <use xlink:href="#DejaVuSans-62" x="63.476562"/>
     <use xlink:href="#DejaVuSans-6f" x="126.953125"/>
     <use xlink:href="#DejaVuSans-62" x="188.134766"/>
     <use xlink:href="#DejaVuSans-2d" x="251.611328"/>
     <use xlink:href="#DejaVuSans-62" x="287.695312"/>
     <use xlink:href="#DejaVuSans-69" x="351.171875"/>
     <use xlink:href="#DejaVuSans-6f" x="378.955078"/>
     <use xlink:href="#DejaVuSans-62" x="440.136719"/>
     <use xlink:href="#DejaVuSans-6a" x="503.613281"/>
     <use xlink:href="#DejaVuSans-20" x="531.396484"/>
     <use xlink:href="#DejaVuSans-66" x="563.183594"/>
     <use xlink:href="#DejaVuSans-31" x="598.388672"/>
     <use xlink:href="#DejaVuSans-39" x="662.011719"/>
     <use xlink:href="#DejaVuSans-2c" x="725.634766"/>
     <use xlink:href="#DejaVuSans-20" x="757.421875"/>
     <use xlink:href="#DejaVuSans-32" x="789.208984"/>
     <use xlink:href="#DejaVuSans-30" x="852.832031"/>
     <use xlink:href="#DejaVuSans-2d" x="916.455078"/>
     <use xlink:href="#DejaVuSans-44" x="952.539062"/>
    </g>
    <!-- 58 targets: 1..-1.0e-4 -->
    <g transform="translate(60.632064 49.533135) scale(0.102 -0.102)">
     <defs>
      <path id="DejaVuSans-35" d="M 691 4666 
L 3169 4666 
L 3169 4134 
L 1269 4134 
L 1269 2991 
Q 1406 3038 1543 3061 
Q 1681 3084 1819 3084 
Q 2600 3084 3056 2656 
Q 3513 2228 3513 1497 
Q 3513 744 3044 326 
Q 2575 -91 1722 -91 
Q 1428 -91 1123 -41 
Q 819 9 494 109 
L 494 744 
Q 775 591 1075 516 
Q 1375 441 1709 441 
Q 2250 441 2565 725 
Q 2881 1009 2881 1497 
Q 2881 1984 2565 2268 
Q 2250 2553 1709 2553 
Q 1456 2553 1204 2497 
Q 953 2441 691 2322 
L 691 4666 
z
" transform="scale(0.015625)"/>
      <path id="DejaVuSans-3a" d="M 750 794 
L 1409 794 
L 1409 0 
L 750 0 
L 750 794 
z
M 750 3309 
L 1409 3309 
L 1409 2516 
L 750 2516 
L 750 3309 
z
" transform="scale(0.015625)"/>
     </defs>
     <use xlink:href="#DejaVuSans-35"/>
     <use xlink:href="#DejaVuSans-38" x="63.623047"/>
     <use xlink:href="#DejaVuSans-20" x="127.246094"/>
     <use xlink:href="#DejaVuSans-74" x="159.033203"/>
     <use xlink:href="#DejaVuSans-61" x="198.242188"/>
     <use xlink:href="#DejaVuSans-72" x="259.521484"/>
     <use xlink:href="#DejaVuSans-67" x="298.884766"/>
     <use xlink:href="#DejaVuSans-65" x="362.361328"/>
     <use xlink:href="#DejaVuSans-74" x="423.884766"/>
     <use xlink:href="#DejaVuSans-73" x="463.09375"/>
     <use xlink:href="#DejaVuSans-3a" x="515.193359"/>
     <use xlink:href="#DejaVuSans-20" x="548.884766"/>
     <use xlink:href="#DejaVuSans-31" x="580.671875"/>
     <use xlink:href="#DejaVuSans-2e" x="644.294922"/>
     <use xlink:href="#DejaVuSans-2e" x="676.082031"/>
     <use xlink:href="#DejaVuSans-2d" x="707.869141"/>
     <use xlink:href="#DejaVuSans-31" x="743.953125"/>
     <use xlink:href="#DejaVuSans-2e" x="807.576172"/>
     <use xlink:href="#DejaVuSans-30" x="839.363281"/>
     <use xlink:href="#DejaVuSans-65" x="902.986328"/>
     <use xlink:href="#DejaVuSans-2d" x="964.509766"/>
     <use xlink:href="#DejaVuSans-34" x="1000.59375"/>
    </g>
    <!-- 10 instances -->
    <g transform="translate(60.632064 60.954904) scale(0.102 -0.102)">
     <use xlink:href="#DejaVuSans-31"/>
     <use xlink:href="#DejaVuSans-30" x="63.623047"/>
     <use xlink:href="#DejaVuSans-20" x="127.246094"/>
     <use xlink:href="#DejaVuSans-69" x="159.033203"/>
     <use xlink:href="#DejaVuSans-6e" x="186.816406"/>
     <use xlink:href="#DejaVuSans-73" x="250.195312"/>
     <use xlink:href="#DejaVuSans-74" x="302.294922"/>
     <use xlink:href="#DejaVuSans-61" x="341.503906"/>
     <use xlink:href="#DejaVuSans-6e" x="402.783203"/>
     <use xlink:href="#DejaVuSans-63" x="466.162109"/>
     <use xlink:href="#DejaVuSans-65" x="521.142578"/>
     <use xlink:href="#DejaVuSans-73" x="582.666016"/>
    </g>
   </g>
   <g id="text_18">
    <!-- v2.6, hv-hash=ff0e71e8cd978373 -->
    <g style="fill: #808080" transform="translate(123.707887 294.151352) scale(0.1 -0.1)">
     <defs>
      <path id="DejaVuSans-68" d="M 3513 2113 
L 3513 0 
L 2938 0 
L 2938 2094 
Q 2938 2591 2744 2837 
Q 2550 3084 2163 3084 
Q 1697 3084 1428 2787 
Q 1159 2491 1159 1978 
L 1159 0 
L 581 0 
L 581 4863 
L 1159 4863 
L 1159 2956 
Q 1366 3272 1645 3428 
Q 1925 3584 2291 3584 
Q 2894 3584 3203 3211 
Q 3513 2838 3513 2113 
z
" transform="scale(0.015625)"/>
      <path id="DejaVuSans-3d" d="M 678 2906 
L 4684 2906 
L 4684 2381 
L 678 2381 
L 678 2906 
z
M 678 1631 
L 4684 1631 
L 4684 1100 
L 678 1100 
L 678 1631 
z
" transform="scale(0.015625)"/>
      <path id="DejaVuSans-37" d="M 525 4666 
L 3525 4666 
L 3525 4397 
L 1831 0 
L 1172 0 
L 2766 4134 
L 525 4134 
L 525 4666 
z
" transform="scale(0.015625)"/>
      <path id="DejaVuSans-33" d="M 2597 2516 
Q 3050 2419 3304 2112 
Q 3559 1806 3559 1356 
Q 3559 666 3084 287 
Q 2609 -91 1734 -91 
Q 1441 -91 1130 -33 
Q 819 25 488 141 
L 488 750 
Q 750 597 1062 519 
Q 1375 441 1716 441 
Q 2309 441 2620 675 
Q 2931 909 2931 1356 
Q 2931 1769 2642 2001 
Q 2353 2234 1838 2234 
L 1294 2234 
L 1294 2753 
L 1863 2753 
Q 2328 2753 2575 2939 
Q 2822 3125 2822 3475 
Q 2822 3834 2567 4026 
Q 2313 4219 1838 4219 
Q 1578 4219 1281 4162 
Q 984 4106 628 3988 
L 628 4550 
Q 988 4650 1302 4700 
Q 1616 4750 1894 4750 
Q 2613 4750 3031 4423 
Q 3450 4097 3450 3541 
Q 3450 3153 3228 2886 
Q 3006 2619 2597 2516 
z
" transform="scale(0.015625)"/>
     </defs>
     <use xlink:href="#DejaVuSans-76"/>
     <use xlink:href="#DejaVuSans-32" x="59.179688"/>
     <use xlink:href="#DejaVuSans-2e" x="122.802734"/>
     <use xlink:href="#DejaVuSans-36" x="154.589844"/>
     <use xlink:href="#DejaVuSans-2c" x="218.212891"/>
     <use xlink:href="#DejaVuSans-20" x="250"/>
     <use xlink:href="#DejaVuSans-68" x="281.787109"/>
     <use xlink:href="#DejaVuSans-76" x="345.166016"/>
     <use xlink:href="#DejaVuSans-2d" x="401.720703"/>
     <use xlink:href="#DejaVuSans-68" x="437.804688"/>
     <use xlink:href="#DejaVuSans-61" x="501.183594"/>
     <use xlink:href="#DejaVuSans-73" x="562.462891"/>
     <use xlink:href="#DejaVuSans-68" x="614.5625"/>
     <use xlink:href="#DejaVuSans-3d" x="677.941406"/>
     <use xlink:href="#DejaVuSans-66" x="761.730469"/>
     <use xlink:href="#DejaVuSans-66" x="796.935547"/>
     <use xlink:href="#DejaVuSans-30" x="832.140625"/>
     <use xlink:href="#DejaVuSans-65" x="895.763672"/>
     <use xlink:href="#DejaVuSans-37" x="957.287109"/>
     <use xlink:href="#DejaVuSans-31" x="1020.910156"/>
     <use xlink:href="#DejaVuSans-65" x="1084.533203"/>
     <use xlink:href="#DejaVuSans-38" x="1146.056641"/>
     <use xlink:href="#DejaVuSans-63" x="1209.679688"/>
     <use xlink:href="#DejaVuSans-64" x="1264.660156"/>
     <use xlink:href="#DejaVuSans-39" x="1328.136719"/>
     <use xlink:href="#DejaVuSans-37" x="1391.759766"/>
     <use xlink:href="#DejaVuSans-38" x="1455.382812"/>
     <use xlink:href="#DejaVuSans-33" x="1519.005859"/>
     <use xlink:href="#DejaVuSans-37" x="1582.628906"/>
     <use xlink:href="#DejaVuSans-33" x="1646.251953"/>
    </g>
   </g>
   <g id="text_19">
    <!-- 19 sep. Elli./Gallagher 101 -->
    <g transform="translate(77.256325 21.648) scale(0.2 -0.2)">
     <defs>
      <path id="DejaVuSans-45" d="M 628 4666 
L 3578 4666 
L 3578 4134 
L 1259 4134 
L 1259 2753 
L 3481 2753 
L 3481 2222 
L 1259 2222 
L 1259 531 
L 3634 531 
L 3634 0 
L 628 0 
L 628 4666 
z
" transform="scale(0.015625)"/>
      <path id="DejaVuSans-47" d="M 3809 666 
L 3809 1919 
L 2778 1919 
L 2778 2438 
L 4434 2438 
L 4434 434 
Q 4069 175 3628 42 
Q 3188 -91 2688 -91 
Q 1594 -91 976 548 
Q 359 1188 359 2328 
Q 359 3472 976 4111 
Q 1594 4750 2688 4750 
Q 3144 4750 3555 4637 
Q 3966 4525 4313 4306 
L 4313 3634 
Q 3963 3931 3569 4081 
Q 3175 4231 2741 4231 
Q 1884 4231 1454 3753 
Q 1025 3275 1025 2328 
Q 1025 1384 1454 906 
Q 1884 428 2741 428 
Q 3075 428 3337 486 
Q 3600 544 3809 666 
z
" transform="scale(0.015625)"/>
     </defs>
     <use xlink:href="#DejaVuSans-31"/>
     <use xlink:href="#DejaVuSans-39" x="63.623047"/>
     <use xlink:href="#DejaVuSans-20" x="127.246094"/>
     <use xlink:href="#DejaVuSans-73" x="159.033203"/>
     <use xlink:href="#DejaVuSans-65" x="211.132812"/>
     <use xlink:href="#DejaVuSans-70" x="272.65625"/>
     <use xlink:href="#DejaVuSans-2e" x="336.132812"/>
     <use xlink:href="#DejaVuSans-20" x="367.919922"/>
     <use xlink:href="#DejaVuSans-45" x="399.707031"/>
     <use xlink:href="#DejaVuSans-6c" x="462.890625"/>
     <use xlink:href="#DejaVuSans-6c" x="490.673828"/>
     <use xlink:href="#DejaVuSans-69" x="518.457031"/>
     <use xlink:href="#DejaVuSans-2e" x="546.240234"/>
     <use xlink:href="#DejaVuSans-2f" x="578.027344"/>
     <use xlink:href="#DejaVuSans-47" x="611.71875"/>
     <use xlink:href="#DejaVuSans-61" x="689.208984"/>
     <use xlink:href="#DejaVuSans-6c" x="750.488281"/>
     <use xlink:href="#DejaVuSans-6c" x="778.271484"/>
     <use xlink:href="#DejaVuSans-61" x="806.054688"/>
     <use xlink:href="#DejaVuSans-67" x="867.333984"/>
     <use xlink:href="#DejaVuSans-68" x="930.810547"/>
     <use xlink:href="#DejaVuSans-65" x="994.189453"/>
     <use xlink:href="#DejaVuSans-72" x="1055.712891"/>
     <use xlink:href="#DejaVuSans-20" x="1096.826172"/>
     <use xlink:href="#DejaVuSans-31" x="1128.613281"/>
     <use xlink:href="#DejaVuSans-30" x="1192.236328"/>
     <use xlink:href="#DejaVuSans-31" x="1255.859375"/>
    </g>
   </g>
  </g>
 </g>
 <defs>
  <clipPath id="pa6dc1e713c">
   <rect x="57.6" y="27.648" width="303.2064" height="271.296"/>
  </clipPath>
 </defs>
</svg>
