<?xml version="1.0" encoding="utf-8" standalone="no"?>
<!DOCTYPE svg PUBLIC "-//W3C//DTD SVG 1.1//EN"
  "http://www.w3.org/Graphics/SVG/1.1/DTD/svg11.dtd">
<svg xmlns:xlink="http://www.w3.org/1999/xlink" width="460.8pt" height="345.6pt" viewBox="0 0 460.8 345.6" xmlns="http://www.w3.org/2000/svg" version="1.1">
 <metadata>
  <rdf:RDF xmlns:dc="http://purl.org/dc/elements/1.1/" xmlns:cc="http://creativecommons.org/ns#" xmlns:rdf="http://www.w3.org/1999/02/22-rdf-syntax-ns#">
   <cc:Work>
    <dc:type rdf:resource="http://purl.org/dc/dcmitype/StillImage"/>
    <dc:date>2023-02-16T10:15:24.256886</dc:date>
    <dc:format>image/svg+xml</dc:format>
    <dc:creator>
     <cc:Agent>
      <dc:title>Matplotlib v3.6.3, https://matplotlib.org/</dc:title>
     </cc:Agent>
    </dc:creator>
   </cc:Work>
  </rdf:RDF>
 </metadata>
 <defs>
  <style type="text/css">*{stroke-linejoin: round; stroke-linecap: butt}</style>
 </defs>
 <g id="figure_1">
  <g id="patch_1">
   <path d="M 0 345.6 
L 460.8 345.6 
L 460.8 0 
L 0 0 
z
" style="fill: #ffffff"/>
  </g>
  <g id="axes_1">
   <g id="patch_2">
    <path d="M 57.6 298.944 
L 360.8064 298.944 
L 360.8064 6.912 
L 57.6 6.912 
z
" style="fill: #ffffff"/>
   </g>
   <g id="matplotlib.axis_1">
    <g id="xtick_1">
     <g id="line2d_1">
      <path d="M 57.6 298.944 
L 57.6 6.912 
" clip-path="url(#p4d6ac19928)" style="fill: none; stroke: #b0b0b0; stroke-width: 0.8; stroke-linecap: square"/>
     </g>
     <g id="line2d_2">
      <defs>
       <path id="m353f09df46" d="M 0 0 
L 0 3.5 
" style="stroke: #000000; stroke-width: 0.8"/>
      </defs>
      <g>
       <use xlink:href="#m353f09df46" x="57.6" y="298.944" style="stroke: #000000; stroke-width: 0.8"/>
      </g>
     </g>
     <g id="text_1">
      <!-- 0 -->
      <g transform="translate(52.191875 318.861344) scale(0.17 -0.17)">
       <defs>
        <path id="DejaVuSans-30" d="M 2034 4250 
Q 1547 4250 1301 3770 
Q 1056 3291 1056 2328 
Q 1056 1369 1301 889 
Q 1547 409 2034 409 
Q 2525 409 2770 889 
Q 3016 1369 3016 2328 
Q 3016 3291 2770 3770 
Q 2525 4250 2034 4250 
z
M 2034 4750 
Q 2819 4750 3233 4129 
Q 3647 3509 3647 2328 
Q 3647 1150 3233 529 
Q 2819 -91 2034 -91 
Q 1250 -91 836 529 
Q 422 1150 422 2328 
Q 422 3509 836 4129 
Q 1250 4750 2034 4750 
z
" transform="scale(0.015625)"/>
       </defs>
       <use xlink:href="#DejaVuSans-30"/>
      </g>
     </g>
    </g>
    <g id="xtick_2">
     <g id="line2d_3">
      <path d="M 144.2304 298.944 
L 144.2304 6.912 
" clip-path="url(#p4d6ac19928)" style="fill: none; stroke: #b0b0b0; stroke-width: 0.8; stroke-linecap: square"/>
     </g>
     <g id="line2d_4">
      <g>
       <use xlink:href="#m353f09df46" x="144.2304" y="298.944" style="stroke: #000000; stroke-width: 0.8"/>
      </g>
     </g>
     <g id="text_2">
      <!-- 2 -->
      <g transform="translate(138.822275 318.861344) scale(0.17 -0.17)">
       <defs>
        <path id="DejaVuSans-32" d="M 1228 531 
L 3431 531 
L 3431 0 
L 469 0 
L 469 531 
Q 828 903 1448 1529 
Q 2069 2156 2228 2338 
Q 2531 2678 2651 2914 
Q 2772 3150 2772 3378 
Q 2772 3750 2511 3984 
Q 2250 4219 1831 4219 
Q 1534 4219 1204 4116 
Q 875 4013 500 3803 
L 500 4441 
Q 881 4594 1212 4672 
Q 1544 4750 1819 4750 
Q 2544 4750 2975 4387 
Q 3406 4025 3406 3419 
Q 3406 3131 3298 2873 
Q 3191 2616 2906 2266 
Q 2828 2175 2409 1742 
Q 1991 1309 1228 531 
z
" transform="scale(0.015625)"/>
       </defs>
       <use xlink:href="#DejaVuSans-32"/>
      </g>
     </g>
    </g>
    <g id="xtick_3">
     <g id="line2d_5">
      <path d="M 230.8608 298.944 
L 230.8608 6.912 
" clip-path="url(#p4d6ac19928)" style="fill: none; stroke: #b0b0b0; stroke-width: 0.8; stroke-linecap: square"/>
     </g>
     <g id="line2d_6">
      <g>
       <use xlink:href="#m353f09df46" x="230.8608" y="298.944" style="stroke: #000000; stroke-width: 0.8"/>
      </g>
     </g>
     <g id="text_3">
      <!-- 4 -->
      <g transform="translate(225.452675 318.861344) scale(0.17 -0.17)">
       <defs>
        <path id="DejaVuSans-34" d="M 2419 4116 
L 825 1625 
L 2419 1625 
L 2419 4116 
z
M 2253 4666 
L 3047 4666 
L 3047 1625 
L 3713 1625 
L 3713 1100 
L 3047 1100 
L 3047 0 
L 2419 0 
L 2419 1100 
L 313 1100 
L 313 1709 
L 2253 4666 
z
" transform="scale(0.015625)"/>
       </defs>
       <use xlink:href="#DejaVuSans-34"/>
      </g>
     </g>
    </g>
    <g id="xtick_4">
     <g id="line2d_7">
      <path d="M 317.4912 298.944 
L 317.4912 6.912 
" clip-path="url(#p4d6ac19928)" style="fill: none; stroke: #b0b0b0; stroke-width: 0.8; stroke-linecap: square"/>
     </g>
     <g id="line2d_8">
      <g>
       <use xlink:href="#m353f09df46" x="317.4912" y="298.944" style="stroke: #000000; stroke-width: 0.8"/>
      </g>
     </g>
     <g id="text_4">
      <!-- 6 -->
      <g transform="translate(312.083075 318.861344) scale(0.17 -0.17)">
       <defs>
        <path id="DejaVuSans-36" d="M 2113 2584 
Q 1688 2584 1439 2293 
Q 1191 2003 1191 1497 
Q 1191 994 1439 701 
Q 1688 409 2113 409 
Q 2538 409 2786 701 
Q 3034 994 3034 1497 
Q 3034 2003 2786 2293 
Q 2538 2584 2113 2584 
z
M 3366 4563 
L 3366 3988 
Q 3128 4100 2886 4159 
Q 2644 4219 2406 4219 
Q 1781 4219 1451 3797 
Q 1122 3375 1075 2522 
Q 1259 2794 1537 2939 
Q 1816 3084 2150 3084 
Q 2853 3084 3261 2657 
Q 3669 2231 3669 1497 
Q 3669 778 3244 343 
Q 2819 -91 2113 -91 
Q 1303 -91 875 529 
Q 447 1150 447 2328 
Q 447 3434 972 4092 
Q 1497 4750 2381 4750 
Q 2619 4750 2861 4703 
Q 3103 4656 3366 4563 
z
" transform="scale(0.015625)"/>
       </defs>
       <use xlink:href="#DejaVuSans-36"/>
      </g>
     </g>
    </g>
    <g id="xtick_5">
     <g id="line2d_9">
      <path d="M 100.9152 298.944 
L 100.9152 6.912 
" clip-path="url(#p4d6ac19928)" style="fill: none; stroke: #b0b0b0; stroke-width: 0.8; stroke-linecap: square"/>
     </g>
     <g id="line2d_10">
      <defs>
       <path id="m13f4a1974f" d="M 0 0 
L 0 2 
" style="stroke: #000000; stroke-width: 0.6"/>
      </defs>
      <g>
       <use xlink:href="#m13f4a1974f" x="100.9152" y="298.944" style="stroke: #000000; stroke-width: 0.6"/>
      </g>
     </g>
    </g>
    <g id="xtick_6">
     <g id="line2d_11">
      <path d="M 187.5456 298.944 
L 187.5456 6.912 
" clip-path="url(#p4d6ac19928)" style="fill: none; stroke: #b0b0b0; stroke-width: 0.8; stroke-linecap: square"/>
     </g>
     <g id="line2d_12">
      <g>
       <use xlink:href="#m13f4a1974f" x="187.5456" y="298.944" style="stroke: #000000; stroke-width: 0.6"/>
      </g>
     </g>
    </g>
    <g id="xtick_7">
     <g id="line2d_13">
      <path d="M 274.176 298.944 
L 274.176 6.912 
" clip-path="url(#p4d6ac19928)" style="fill: none; stroke: #b0b0b0; stroke-width: 0.8; stroke-linecap: square"/>
     </g>
     <g id="line2d_14">
      <g>
       <use xlink:href="#m13f4a1974f" x="274.176" y="298.944" style="stroke: #000000; stroke-width: 0.6"/>
      </g>
     </g>
    </g>
    <g id="xtick_8">
     <g id="line2d_15">
      <path d="M 360.8064 298.944 
L 360.8064 6.912 
" clip-path="url(#p4d6ac19928)" style="fill: none; stroke: #b0b0b0; stroke-width: 0.8; stroke-linecap: square"/>
     </g>
     <g id="line2d_16">
      <g>
       <use xlink:href="#m13f4a1974f" x="360.8064" y="298.944" style="stroke: #000000; stroke-width: 0.6"/>
      </g>
     </g>
    </g>
    <g id="text_5">
     <!-- log10(# f-evals / dimension) -->
     <g transform="translate(88.823278 339.314156) scale(0.17 -0.17)">
      <defs>
       <path id="DejaVuSans-6c" d="M 603 4863 
L 1178 4863 
L 1178 0 
L 603 0 
L 603 4863 
z
" transform="scale(0.015625)"/>
       <path id="DejaVuSans-6f" d="M 1959 3097 
Q 1497 3097 1228 2736 
Q 959 2375 959 1747 
Q 959 1119 1226 758 
Q 1494 397 1959 397 
Q 2419 397 2687 759 
Q 2956 1122 2956 1747 
Q 2956 2369 2687 2733 
Q 2419 3097 1959 3097 
z
M 1959 3584 
Q 2709 3584 3137 3096 
Q 3566 2609 3566 1747 
Q 3566 888 3137 398 
Q 2709 -91 1959 -91 
Q 1206 -91 779 398 
Q 353 888 353 1747 
Q 353 2609 779 3096 
Q 1206 3584 1959 3584 
z
" transform="scale(0.015625)"/>
       <path id="DejaVuSans-67" d="M 2906 1791 
Q 2906 2416 2648 2759 
Q 2391 3103 1925 3103 
Q 1463 3103 1205 2759 
Q 947 2416 947 1791 
Q 947 1169 1205 825 
Q 1463 481 1925 481 
Q 2391 481 2648 825 
Q 2906 1169 2906 1791 
z
M 3481 434 
Q 3481 -459 3084 -895 
Q 2688 -1331 1869 -1331 
Q 1566 -1331 1297 -1286 
Q 1028 -1241 775 -1147 
L 775 -588 
Q 1028 -725 1275 -790 
Q 1522 -856 1778 -856 
Q 2344 -856 2625 -561 
Q 2906 -266 2906 331 
L 2906 616 
Q 2728 306 2450 153 
Q 2172 0 1784 0 
Q 1141 0 747 490 
Q 353 981 353 1791 
Q 353 2603 747 3093 
Q 1141 3584 1784 3584 
Q 2172 3584 2450 3431 
Q 2728 3278 2906 2969 
L 2906 3500 
L 3481 3500 
L 3481 434 
z
" transform="scale(0.015625)"/>
       <path id="DejaVuSans-31" d="M 794 531 
L 1825 531 
L 1825 4091 
L 703 3866 
L 703 4441 
L 1819 4666 
L 2450 4666 
L 2450 531 
L 3481 531 
L 3481 0 
L 794 0 
L 794 531 
z
" transform="scale(0.015625)"/>
       <path id="DejaVuSans-28" d="M 1984 4856 
Q 1566 4138 1362 3434 
Q 1159 2731 1159 2009 
Q 1159 1288 1364 580 
Q 1569 -128 1984 -844 
L 1484 -844 
Q 1016 -109 783 600 
Q 550 1309 550 2009 
Q 550 2706 781 3412 
Q 1013 4119 1484 4856 
L 1984 4856 
z
" transform="scale(0.015625)"/>
       <path id="DejaVuSans-23" d="M 3272 2816 
L 2363 2816 
L 2100 1772 
L 3016 1772 
L 3272 2816 
z
M 2803 4594 
L 2478 3297 
L 3391 3297 
L 3719 4594 
L 4219 4594 
L 3897 3297 
L 4872 3297 
L 4872 2816 
L 3775 2816 
L 3519 1772 
L 4513 1772 
L 4513 1294 
L 3397 1294 
L 3072 0 
L 2572 0 
L 2894 1294 
L 1978 1294 
L 1656 0 
L 1153 0 
L 1478 1294 
L 494 1294 
L 494 1772 
L 1594 1772 
L 1856 2816 
L 850 2816 
L 850 3297 
L 1978 3297 
L 2297 4594 
L 2803 4594 
z
" transform="scale(0.015625)"/>
       <path id="DejaVuSans-20" transform="scale(0.015625)"/>
       <path id="DejaVuSans-66" d="M 2375 4863 
L 2375 4384 
L 1825 4384 
Q 1516 4384 1395 4259 
Q 1275 4134 1275 3809 
L 1275 3500 
L 2222 3500 
L 2222 3053 
L 1275 3053 
L 1275 0 
L 697 0 
L 697 3053 
L 147 3053 
L 147 3500 
L 697 3500 
L 697 3744 
Q 697 4328 969 4595 
Q 1241 4863 1831 4863 
L 2375 4863 
z
" transform="scale(0.015625)"/>
       <path id="DejaVuSans-2d" d="M 313 2009 
L 1997 2009 
L 1997 1497 
L 313 1497 
L 313 2009 
z
" transform="scale(0.015625)"/>
       <path id="DejaVuSans-65" d="M 3597 1894 
L 3597 1613 
L 953 1613 
Q 991 1019 1311 708 
Q 1631 397 2203 397 
Q 2534 397 2845 478 
Q 3156 559 3463 722 
L 3463 178 
Q 3153 47 2828 -22 
Q 2503 -91 2169 -91 
Q 1331 -91 842 396 
Q 353 884 353 1716 
Q 353 2575 817 3079 
Q 1281 3584 2069 3584 
Q 2775 3584 3186 3129 
Q 3597 2675 3597 1894 
z
M 3022 2063 
Q 3016 2534 2758 2815 
Q 2500 3097 2075 3097 
Q 1594 3097 1305 2825 
Q 1016 2553 972 2059 
L 3022 2063 
z
" transform="scale(0.015625)"/>
       <path id="DejaVuSans-76" d="M 191 3500 
L 800 3500 
L 1894 563 
L 2988 3500 
L 3597 3500 
L 2284 0 
L 1503 0 
L 191 3500 
z
" transform="scale(0.015625)"/>
       <path id="DejaVuSans-61" d="M 2194 1759 
Q 1497 1759 1228 1600 
Q 959 1441 959 1056 
Q 959 750 1161 570 
Q 1363 391 1709 391 
Q 2188 391 2477 730 
Q 2766 1069 2766 1631 
L 2766 1759 
L 2194 1759 
z
M 3341 1997 
L 3341 0 
L 2766 0 
L 2766 531 
Q 2569 213 2275 61 
Q 1981 -91 1556 -91 
Q 1019 -91 701 211 
Q 384 513 384 1019 
Q 384 1609 779 1909 
Q 1175 2209 1959 2209 
L 2766 2209 
L 2766 2266 
Q 2766 2663 2505 2880 
Q 2244 3097 1772 3097 
Q 1472 3097 1187 3025 
Q 903 2953 641 2809 
L 641 3341 
Q 956 3463 1253 3523 
Q 1550 3584 1831 3584 
Q 2591 3584 2966 3190 
Q 3341 2797 3341 1997 
z
" transform="scale(0.015625)"/>
       <path id="DejaVuSans-73" d="M 2834 3397 
L 2834 2853 
Q 2591 2978 2328 3040 
Q 2066 3103 1784 3103 
Q 1356 3103 1142 2972 
Q 928 2841 928 2578 
Q 928 2378 1081 2264 
Q 1234 2150 1697 2047 
L 1894 2003 
Q 2506 1872 2764 1633 
Q 3022 1394 3022 966 
Q 3022 478 2636 193 
Q 2250 -91 1575 -91 
Q 1294 -91 989 -36 
Q 684 19 347 128 
L 347 722 
Q 666 556 975 473 
Q 1284 391 1588 391 
Q 1994 391 2212 530 
Q 2431 669 2431 922 
Q 2431 1156 2273 1281 
Q 2116 1406 1581 1522 
L 1381 1569 
Q 847 1681 609 1914 
Q 372 2147 372 2553 
Q 372 3047 722 3315 
Q 1072 3584 1716 3584 
Q 2034 3584 2315 3537 
Q 2597 3491 2834 3397 
z
" transform="scale(0.015625)"/>
       <path id="DejaVuSans-2f" d="M 1625 4666 
L 2156 4666 
L 531 -594 
L 0 -594 
L 1625 4666 
z
" transform="scale(0.015625)"/>
       <path id="DejaVuSans-64" d="M 2906 2969 
L 2906 4863 
L 3481 4863 
L 3481 0 
L 2906 0 
L 2906 525 
Q 2725 213 2448 61 
Q 2172 -91 1784 -91 
Q 1150 -91 751 415 
Q 353 922 353 1747 
Q 353 2572 751 3078 
Q 1150 3584 1784 3584 
Q 2172 3584 2448 3432 
Q 2725 3281 2906 2969 
z
M 947 1747 
Q 947 1113 1208 752 
Q 1469 391 1925 391 
Q 2381 391 2643 752 
Q 2906 1113 2906 1747 
Q 2906 2381 2643 2742 
Q 2381 3103 1925 3103 
Q 1469 3103 1208 2742 
Q 947 2381 947 1747 
z
" transform="scale(0.015625)"/>
       <path id="DejaVuSans-69" d="M 603 3500 
L 1178 3500 
L 1178 0 
L 603 0 
L 603 3500 
z
M 603 4863 
L 1178 4863 
L 1178 4134 
L 603 4134 
L 603 4863 
z
" transform="scale(0.015625)"/>
       <path id="DejaVuSans-6d" d="M 3328 2828 
Q 3544 3216 3844 3400 
Q 4144 3584 4550 3584 
Q 5097 3584 5394 3201 
Q 5691 2819 5691 2113 
L 5691 0 
L 5113 0 
L 5113 2094 
Q 5113 2597 4934 2840 
Q 4756 3084 4391 3084 
Q 3944 3084 3684 2787 
Q 3425 2491 3425 1978 
L 3425 0 
L 2847 0 
L 2847 2094 
Q 2847 2600 2669 2842 
Q 2491 3084 2119 3084 
Q 1678 3084 1418 2786 
Q 1159 2488 1159 1978 
L 1159 0 
L 581 0 
L 581 3500 
L 1159 3500 
L 1159 2956 
Q 1356 3278 1631 3431 
Q 1906 3584 2284 3584 
Q 2666 3584 2933 3390 
Q 3200 3197 3328 2828 
z
" transform="scale(0.015625)"/>
       <path id="DejaVuSans-6e" d="M 3513 2113 
L 3513 0 
L 2938 0 
L 2938 2094 
Q 2938 2591 2744 2837 
Q 2550 3084 2163 3084 
Q 1697 3084 1428 2787 
Q 1159 2491 1159 1978 
L 1159 0 
L 581 0 
L 581 3500 
L 1159 3500 
L 1159 2956 
Q 1366 3272 1645 3428 
Q 1925 3584 2291 3584 
Q 2894 3584 3203 3211 
Q 3513 2838 3513 2113 
z
" transform="scale(0.015625)"/>
       <path id="DejaVuSans-29" d="M 513 4856 
L 1013 4856 
Q 1481 4119 1714 3412 
Q 1947 2706 1947 2009 
Q 1947 1309 1714 600 
Q 1481 -109 1013 -844 
L 513 -844 
Q 928 -128 1133 580 
Q 1338 1288 1338 2009 
Q 1338 2731 1133 3434 
Q 928 4138 513 4856 
z
" transform="scale(0.015625)"/>
      </defs>
      <use xlink:href="#DejaVuSans-6c"/>
      <use xlink:href="#DejaVuSans-6f" x="27.783203"/>
      <use xlink:href="#DejaVuSans-67" x="88.964844"/>
      <use xlink:href="#DejaVuSans-31" x="152.441406"/>
      <use xlink:href="#DejaVuSans-30" x="216.064453"/>
      <use xlink:href="#DejaVuSans-28" x="279.6875"/>
      <use xlink:href="#DejaVuSans-23" x="318.701172"/>
      <use xlink:href="#DejaVuSans-20" x="402.490234"/>
      <use xlink:href="#DejaVuSans-66" x="434.277344"/>
      <use xlink:href="#DejaVuSans-2d" x="463.982422"/>
      <use xlink:href="#DejaVuSans-65" x="500.066406"/>
      <use xlink:href="#DejaVuSans-76" x="561.589844"/>
      <use xlink:href="#DejaVuSans-61" x="620.769531"/>
      <use xlink:href="#DejaVuSans-6c" x="682.048828"/>
      <use xlink:href="#DejaVuSans-73" x="709.832031"/>
      <use xlink:href="#DejaVuSans-20" x="761.931641"/>
      <use xlink:href="#DejaVuSans-2f" x="793.71875"/>
      <use xlink:href="#DejaVuSans-20" x="827.410156"/>
      <use xlink:href="#DejaVuSans-64" x="859.197266"/>
      <use xlink:href="#DejaVuSans-69" x="922.673828"/>
      <use xlink:href="#DejaVuSans-6d" x="950.457031"/>
      <use xlink:href="#DejaVuSans-65" x="1047.869141"/>
      <use xlink:href="#DejaVuSans-6e" x="1109.392578"/>
      <use xlink:href="#DejaVuSans-73" x="1172.771484"/>
      <use xlink:href="#DejaVuSans-69" x="1224.871094"/>
      <use xlink:href="#DejaVuSans-6f" x="1252.654297"/>
      <use xlink:href="#DejaVuSans-6e" x="1313.835938"/>
      <use xlink:href="#DejaVuSans-29" x="1377.214844"/>
     </g>
    </g>
   </g>
   <g id="matplotlib.axis_2">
    <g id="ytick_1">
     <g id="line2d_17">
      <path d="M 57.6 298.944 
L 360.8064 298.944 
" clip-path="url(#p4d6ac19928)" style="fill: none; stroke: #b0b0b0; stroke-width: 0.8; stroke-linecap: square"/>
     </g>
     <g id="line2d_18">
      <defs>
       <path id="meeb47ab7d0" d="M 0 0 
L -3.5 0 
" style="stroke: #000000; stroke-width: 0.8"/>
      </defs>
      <g>
       <use xlink:href="#meeb47ab7d0" x="57.6" y="298.944" style="stroke: #000000; stroke-width: 0.8"/>
      </g>
     </g>
     <g id="text_6">
      <!-- 0.0 -->
      <g transform="translate(25.155 305.02275) scale(0.16 -0.16)">
       <defs>
        <path id="DejaVuSans-2e" d="M 684 794 
L 1344 794 
L 1344 0 
L 684 0 
L 684 794 
z
" transform="scale(0.015625)"/>
       </defs>
       <use xlink:href="#DejaVuSans-30"/>
       <use xlink:href="#DejaVuSans-2e" x="63.623047"/>
       <use xlink:href="#DejaVuSans-30" x="95.410156"/>
      </g>
     </g>
    </g>
    <g id="ytick_2">
     <g id="line2d_19">
      <path d="M 57.6 240.5376 
L 360.8064 240.5376 
" clip-path="url(#p4d6ac19928)" style="fill: none; stroke: #b0b0b0; stroke-width: 0.8; stroke-linecap: square"/>
     </g>
     <g id="line2d_20">
      <g>
       <use xlink:href="#meeb47ab7d0" x="57.6" y="240.5376" style="stroke: #000000; stroke-width: 0.8"/>
      </g>
     </g>
     <g id="text_7">
      <!-- 0.2 -->
      <g transform="translate(25.155 246.61635) scale(0.16 -0.16)">
       <use xlink:href="#DejaVuSans-30"/>
       <use xlink:href="#DejaVuSans-2e" x="63.623047"/>
       <use xlink:href="#DejaVuSans-32" x="95.410156"/>
      </g>
     </g>
    </g>
    <g id="ytick_3">
     <g id="line2d_21">
      <path d="M 57.6 182.1312 
L 360.8064 182.1312 
" clip-path="url(#p4d6ac19928)" style="fill: none; stroke: #b0b0b0; stroke-width: 0.8; stroke-linecap: square"/>
     </g>
     <g id="line2d_22">
      <g>
       <use xlink:href="#meeb47ab7d0" x="57.6" y="182.1312" style="stroke: #000000; stroke-width: 0.8"/>
      </g>
     </g>
     <g id="text_8">
      <!-- 0.4 -->
      <g transform="translate(25.155 188.20995) scale(0.16 -0.16)">
       <use xlink:href="#DejaVuSans-30"/>
       <use xlink:href="#DejaVuSans-2e" x="63.623047"/>
       <use xlink:href="#DejaVuSans-34" x="95.410156"/>
      </g>
     </g>
    </g>
    <g id="ytick_4">
     <g id="line2d_23">
      <path d="M 57.6 123.7248 
L 360.8064 123.7248 
" clip-path="url(#p4d6ac19928)" style="fill: none; stroke: #b0b0b0; stroke-width: 0.8; stroke-linecap: square"/>
     </g>
     <g id="line2d_24">
      <g>
       <use xlink:href="#meeb47ab7d0" x="57.6" y="123.7248" style="stroke: #000000; stroke-width: 0.8"/>
      </g>
     </g>
     <g id="text_9">
      <!-- 0.6 -->
      <g transform="translate(25.155 129.80355) scale(0.16 -0.16)">
       <use xlink:href="#DejaVuSans-30"/>
       <use xlink:href="#DejaVuSans-2e" x="63.623047"/>
       <use xlink:href="#DejaVuSans-36" x="95.410156"/>
      </g>
     </g>
    </g>
    <g id="ytick_5">
     <g id="line2d_25">
      <path d="M 57.6 65.3184 
L 360.8064 65.3184 
" clip-path="url(#p4d6ac19928)" style="fill: none; stroke: #b0b0b0; stroke-width: 0.8; stroke-linecap: square"/>
     </g>
     <g id="line2d_26">
      <g>
       <use xlink:href="#meeb47ab7d0" x="57.6" y="65.3184" style="stroke: #000000; stroke-width: 0.8"/>
      </g>
     </g>
     <g id="text_10">
      <!-- 0.8 -->
      <g transform="translate(25.155 71.39715) scale(0.16 -0.16)">
       <defs>
        <path id="DejaVuSans-38" d="M 2034 2216 
Q 1584 2216 1326 1975 
Q 1069 1734 1069 1313 
Q 1069 891 1326 650 
Q 1584 409 2034 409 
Q 2484 409 2743 651 
Q 3003 894 3003 1313 
Q 3003 1734 2745 1975 
Q 2488 2216 2034 2216 
z
M 1403 2484 
Q 997 2584 770 2862 
Q 544 3141 544 3541 
Q 544 4100 942 4425 
Q 1341 4750 2034 4750 
Q 2731 4750 3128 4425 
Q 3525 4100 3525 3541 
Q 3525 3141 3298 2862 
Q 3072 2584 2669 2484 
Q 3125 2378 3379 2068 
Q 3634 1759 3634 1313 
Q 3634 634 3220 271 
Q 2806 -91 2034 -91 
Q 1263 -91 848 271 
Q 434 634 434 1313 
Q 434 1759 690 2068 
Q 947 2378 1403 2484 
z
M 1172 3481 
Q 1172 3119 1398 2916 
Q 1625 2713 2034 2713 
Q 2441 2713 2670 2916 
Q 2900 3119 2900 3481 
Q 2900 3844 2670 4047 
Q 2441 4250 2034 4250 
Q 1625 4250 1398 4047 
Q 1172 3844 1172 3481 
z
" transform="scale(0.015625)"/>
       </defs>
       <use xlink:href="#DejaVuSans-30"/>
       <use xlink:href="#DejaVuSans-2e" x="63.623047"/>
       <use xlink:href="#DejaVuSans-38" x="95.410156"/>
      </g>
     </g>
    </g>
    <g id="ytick_6">
     <g id="line2d_27">
      <path d="M 57.6 6.912 
L 360.8064 6.912 
" clip-path="url(#p4d6ac19928)" style="fill: none; stroke: #b0b0b0; stroke-width: 0.8; stroke-linecap: square"/>
     </g>
     <g id="line2d_28">
      <g>
       <use xlink:href="#meeb47ab7d0" x="57.6" y="6.912" style="stroke: #000000; stroke-width: 0.8"/>
      </g>
     </g>
     <g id="text_11">
      <!-- 1.0 -->
      <g transform="translate(25.155 12.99075) scale(0.16 -0.16)">
       <use xlink:href="#DejaVuSans-31"/>
       <use xlink:href="#DejaVuSans-2e" x="63.623047"/>
       <use xlink:href="#DejaVuSans-30" x="95.410156"/>
      </g>
     </g>
    </g>
    <g id="text_12">
     <!-- Fraction of function,target pairs -->
     <g transform="translate(17.619531 287.313) rotate(-90) scale(0.17 -0.17)">
      <defs>
       <path id="DejaVuSans-46" d="M 628 4666 
L 3309 4666 
L 3309 4134 
L 1259 4134 
L 1259 2759 
L 3109 2759 
L 3109 2228 
L 1259 2228 
L 1259 0 
L 628 0 
L 628 4666 
z
" transform="scale(0.015625)"/>
       <path id="DejaVuSans-72" d="M 2631 2963 
Q 2534 3019 2420 3045 
Q 2306 3072 2169 3072 
Q 1681 3072 1420 2755 
Q 1159 2438 1159 1844 
L 1159 0 
L 581 0 
L 581 3500 
L 1159 3500 
L 1159 2956 
Q 1341 3275 1631 3429 
Q 1922 3584 2338 3584 
Q 2397 3584 2469 3576 
Q 2541 3569 2628 3553 
L 2631 2963 
z
" transform="scale(0.015625)"/>
       <path id="DejaVuSans-63" d="M 3122 3366 
L 3122 2828 
Q 2878 2963 2633 3030 
Q 2388 3097 2138 3097 
Q 1578 3097 1268 2742 
Q 959 2388 959 1747 
Q 959 1106 1268 751 
Q 1578 397 2138 397 
Q 2388 397 2633 464 
Q 2878 531 3122 666 
L 3122 134 
Q 2881 22 2623 -34 
Q 2366 -91 2075 -91 
Q 1284 -91 818 406 
Q 353 903 353 1747 
Q 353 2603 823 3093 
Q 1294 3584 2113 3584 
Q 2378 3584 2631 3529 
Q 2884 3475 3122 3366 
z
" transform="scale(0.015625)"/>
       <path id="DejaVuSans-74" d="M 1172 4494 
L 1172 3500 
L 2356 3500 
L 2356 3053 
L 1172 3053 
L 1172 1153 
Q 1172 725 1289 603 
Q 1406 481 1766 481 
L 2356 481 
L 2356 0 
L 1766 0 
Q 1100 0 847 248 
Q 594 497 594 1153 
L 594 3053 
L 172 3053 
L 172 3500 
L 594 3500 
L 594 4494 
L 1172 4494 
z
" transform="scale(0.015625)"/>
       <path id="DejaVuSans-75" d="M 544 1381 
L 544 3500 
L 1119 3500 
L 1119 1403 
Q 1119 906 1312 657 
Q 1506 409 1894 409 
Q 2359 409 2629 706 
Q 2900 1003 2900 1516 
L 2900 3500 
L 3475 3500 
L 3475 0 
L 2900 0 
L 2900 538 
Q 2691 219 2414 64 
Q 2138 -91 1772 -91 
Q 1169 -91 856 284 
Q 544 659 544 1381 
z
M 1991 3584 
L 1991 3584 
z
" transform="scale(0.015625)"/>
       <path id="DejaVuSans-2c" d="M 750 794 
L 1409 794 
L 1409 256 
L 897 -744 
L 494 -744 
L 750 256 
L 750 794 
z
" transform="scale(0.015625)"/>
       <path id="DejaVuSans-70" d="M 1159 525 
L 1159 -1331 
L 581 -1331 
L 581 3500 
L 1159 3500 
L 1159 2969 
Q 1341 3281 1617 3432 
Q 1894 3584 2278 3584 
Q 2916 3584 3314 3078 
Q 3713 2572 3713 1747 
Q 3713 922 3314 415 
Q 2916 -91 2278 -91 
Q 1894 -91 1617 61 
Q 1341 213 1159 525 
z
M 3116 1747 
Q 3116 2381 2855 2742 
Q 2594 3103 2138 3103 
Q 1681 3103 1420 2742 
Q 1159 2381 1159 1747 
Q 1159 1113 1420 752 
Q 1681 391 2138 391 
Q 2594 391 2855 752 
Q 3116 1113 3116 1747 
z
" transform="scale(0.015625)"/>
      </defs>
      <use xlink:href="#DejaVuSans-46"/>
      <use xlink:href="#DejaVuSans-72" x="50.269531"/>
      <use xlink:href="#DejaVuSans-61" x="91.382812"/>
      <use xlink:href="#DejaVuSans-63" x="152.662109"/>
      <use xlink:href="#DejaVuSans-74" x="207.642578"/>
      <use xlink:href="#DejaVuSans-69" x="246.851562"/>
      <use xlink:href="#DejaVuSans-6f" x="274.634766"/>
      <use xlink:href="#DejaVuSans-6e" x="335.816406"/>
      <use xlink:href="#DejaVuSans-20" x="399.195312"/>
      <use xlink:href="#DejaVuSans-6f" x="430.982422"/>
      <use xlink:href="#DejaVuSans-66" x="492.164062"/>
      <use xlink:href="#DejaVuSans-20" x="527.369141"/>
      <use xlink:href="#DejaVuSans-66" x="559.15625"/>
      <use xlink:href="#DejaVuSans-75" x="594.361328"/>
      <use xlink:href="#DejaVuSans-6e" x="657.740234"/>
      <use xlink:href="#DejaVuSans-63" x="721.119141"/>
      <use xlink:href="#DejaVuSans-74" x="776.099609"/>
      <use xlink:href="#DejaVuSans-69" x="815.308594"/>
      <use xlink:href="#DejaVuSans-6f" x="843.091797"/>
      <use xlink:href="#DejaVuSans-6e" x="904.273438"/>
      <use xlink:href="#DejaVuSans-2c" x="967.652344"/>
      <use xlink:href="#DejaVuSans-74" x="999.439453"/>
      <use xlink:href="#DejaVuSans-61" x="1038.648438"/>
      <use xlink:href="#DejaVuSans-72" x="1099.927734"/>
      <use xlink:href="#DejaVuSans-67" x="1139.291016"/>
      <use xlink:href="#DejaVuSans-65" x="1202.767578"/>
      <use xlink:href="#DejaVuSans-74" x="1264.291016"/>
      <use xlink:href="#DejaVuSans-20" x="1303.5"/>
      <use xlink:href="#DejaVuSans-70" x="1335.287109"/>
      <use xlink:href="#DejaVuSans-61" x="1398.763672"/>
      <use xlink:href="#DejaVuSans-69" x="1460.042969"/>
      <use xlink:href="#DejaVuSans-72" x="1487.826172"/>
      <use xlink:href="#DejaVuSans-73" x="1528.939453"/>
     </g>
    </g>
   </g>
   <g id="line2d_29">
    <defs>
     <path id="m95d3818ce6" d="M 0 1.5 
C 0.397805 1.5 0.77937 1.341951 1.06066 1.06066 
C 1.341951 0.77937 1.5 0.397805 1.5 0 
C 1.5 -0.397805 1.341951 -0.77937 1.06066 -1.06066 
C 0.77937 -1.341951 0.397805 -1.5 0 -1.5 
C -0.397805 -1.5 -0.77937 -1.341951 -1.06066 -1.06066 
C -1.341951 -0.77937 -1.5 -0.397805 -1.5 0 
C -1.5 0.397805 -1.341951 0.77937 -1.06066 1.06066 
C -0.77937 1.341951 -0.397805 1.5 0 1.5 
z
" style="stroke: #000080"/>
    </defs>
    <g>
     <use xlink:href="#m95d3818ce6" x="185.407239" y="194.718786" style="fill: #000080; stroke: #000080"/>
     <use xlink:href="#m95d3818ce6" x="185.407239" y="194.718786" style="fill: #000080; stroke: #000080"/>
    </g>
   </g>
   <g id="line2d_30">
    <path d="M 1.245626 298.944 
L 1.245626 288.370428 
L 76.284608 288.370428 
L 76.284608 287.866924 
L 91.148357 287.866924 
L 91.148357 287.363421 
L 121.581803 287.363421 
L 121.581803 286.859917 
L 122.766456 286.859917 
L 122.766456 286.356414 
L 127.18073 286.356414 
L 127.18073 285.85291 
L 129.724648 285.85291 
L 129.724648 285.349407 
L 131.247576 285.349407 
L 131.247576 284.845903 
L 132.881269 284.845903 
L 132.881269 284.3424 
L 133.754819 284.3424 
L 133.754819 283.838897 
L 134.792631 283.838897 
L 134.792631 283.335393 
L 135.192238 283.335393 
L 135.192238 282.83189 
L 135.388902 282.83189 
L 135.388902 282.328386 
L 135.966853 282.328386 
L 135.966853 281.321379 
L 136.527575 281.321379 
L 136.527575 280.817876 
L 136.710829 280.817876 
L 136.710829 280.314372 
L 137.072066 280.314372 
L 137.072066 279.810869 
L 137.945929 279.810869 
L 137.945929 279.307366 
L 138.284415 279.307366 
L 138.284415 278.803862 
L 138.616919 278.803862 
L 138.616919 277.796855 
L 139.104908 277.796855 
L 139.104908 277.293352 
L 139.736472 277.293352 
L 139.736472 276.789848 
L 140.196609 276.789848 
L 140.196609 276.286345 
L 140.49723 276.286345 
L 140.49723 275.782841 
L 141.371301 275.782841 
L 141.371301 275.279338 
L 141.65386 275.279338 
L 141.65386 274.775834 
L 142.206555 274.775834 
L 142.206555 274.272331 
L 142.342229 274.272331 
L 142.342229 273.768828 
L 142.47693 273.768828 
L 142.47693 273.265324 
L 142.875344 273.265324 
L 142.875344 272.761821 
L 143.006295 272.761821 
L 143.006295 272.258317 
L 143.136341 272.258317 
L 143.136341 271.754814 
L 143.393766 271.754814 
L 143.393766 270.747807 
L 143.521169 270.747807 
L 143.521169 270.244303 
L 144.389622 270.244303 
L 144.389622 269.7408 
L 144.630562 269.7408 
L 144.630562 268.733793 
L 144.749884 268.733793 
L 144.749884 268.23029 
L 144.868454 268.23029 
L 144.868454 267.726786 
L 145.3354 267.726786 
L 145.3354 267.223283 
L 145.791035 267.223283 
L 145.791035 266.719779 
L 145.90324 266.719779 
L 145.90324 266.216276 
L 146.235895 266.216276 
L 146.345485 265.209269 
L 146.454441 265.209269 
L 146.454441 264.202262 
L 146.777571 264.202262 
L 146.777571 263.698759 
L 147.095245 263.698759 
L 147.095245 262.691752 
L 148.117009 262.691752 
L 148.117009 262.188248 
L 148.896253 262.188248 
L 148.991428 260.677738 
L 149.086123 260.677738 
L 149.086123 260.174234 
L 149.274095 260.174234 
L 149.274095 259.670731 
L 149.460208 259.670731 
L 149.460208 258.663724 
L 149.644498 258.663724 
L 149.644498 258.160221 
L 150.007747 258.160221 
L 150.097474 257.153214 
L 150.452162 257.153214 
L 150.452162 256.64971 
L 150.713857 256.64971 
L 150.713857 256.146207 
L 151.394419 256.146207 
L 151.394419 255.1392 
L 151.560781 255.1392 
L 151.560781 254.132193 
L 151.889155 254.132193 
L 151.889155 253.125186 
L 152.051217 253.125186 
L 152.051217 252.621683 
L 152.450367 252.621683 
L 152.529191 251.614676 
L 152.685854 251.614676 
L 152.763699 250.104166 
L 153.148165 250.104166 
L 153.148165 249.600662 
L 153.599386 249.600662 
L 153.599386 249.097159 
L 154.040037 249.097159 
L 154.040037 248.593655 
L 154.256552 248.593655 
L 154.328173 247.586648 
L 155.371001 247.586648 
L 155.43851 246.579641 
L 155.706148 246.579641 
L 155.706148 246.076138 
L 156.100598 246.076138 
L 156.100598 245.069131 
L 156.359044 245.069131 
L 156.423104 244.062124 
L 156.550574 244.062124 
L 156.550574 243.055117 
L 156.740174 243.055117 
L 156.802952 242.04811 
L 158.423292 242.04811 
L 158.423292 241.544607 
L 158.537943 241.544607 
L 158.537943 241.041103 
L 158.76517 241.041103 
L 158.76517 240.5376 
L 158.933807 240.5376 
L 158.933807 240.034097 
L 159.861872 240.034097 
L 159.968106 238.523586 
L 160.283256 238.523586 
L 160.283256 238.020083 
L 160.541906 238.020083 
L 160.541906 237.013076 
L 161.34647 237.013076 
L 161.34647 236.006069 
L 161.493569 236.006069 
L 161.493569 234.999062 
L 161.736206 234.999062 
L 161.736206 233.992055 
L 162.11803 233.992055 
L 162.11803 233.488552 
L 162.445885 233.488552 
L 162.445885 232.481545 
L 163.789646 232.481545 
L 163.875908 230.467531 
L 164.427166 230.467531 
L 164.427166 229.460524 
L 164.593584 229.460524 
L 164.634959 227.44651 
L 164.962728 227.44651 
L 165.0033 225.432497 
L 165.124495 225.432497 
L 165.124495 224.42549 
L 165.284883 224.42549 
L 165.284883 223.418483 
L 165.601614 223.418483 
L 165.601614 222.914979 
L 165.796897 222.914979 
L 165.796897 222.411476 
L 165.913101 222.411476 
L 165.913101 221.404469 
L 166.219513 221.404469 
L 166.257466 220.397462 
L 166.891221 220.397462 
L 166.891221 219.893959 
L 167.575151 219.893959 
L 167.575151 218.886952 
L 167.89064 218.886952 
L 167.89064 218.383448 
L 168.773409 218.383448 
L 168.773409 217.376441 
L 169.393282 217.376441 
L 169.489316 214.355421 
L 169.774511 214.355421 
L 169.868623 212.341407 
L 170.086404 212.341407 
L 170.086404 211.837903 
L 170.393211 211.837903 
L 170.393211 210.327393 
L 170.544758 210.327393 
L 170.544758 209.82389 
L 171.139025 209.82389 
L 171.139025 209.320386 
L 171.996643 209.320386 
L 171.996643 208.313379 
L 172.81686 208.313379 
L 172.81686 207.306372 
L 173.577128 207.306372 
L 173.577128 206.299366 
L 173.730661 206.299366 
L 173.730661 205.292359 
L 174.034017 205.292359 
L 174.034017 204.285352 
L 174.795768 204.285352 
L 174.795768 203.278345 
L 175.388379 203.278345 
L 175.388379 202.271338 
L 176.299358 202.271338 
L 176.299358 201.264331 
L 176.432278 201.264331 
L 176.432278 200.760828 
L 176.673553 200.760828 
L 176.673553 200.257324 
L 176.954762 200.257324 
L 176.954762 199.250317 
L 177.400326 199.250317 
L 177.400326 198.24331 
L 177.588098 198.24331 
L 177.588098 197.236303 
L 180.734944 197.236303 
L 180.734944 196.7328 
L 181.288695 196.7328 
L 181.288695 195.725793 
L 182.637472 195.725793 
L 182.637472 195.22229 
L 185.407239 195.22229 
L 185.407239 194.718786 
L 360.8064 194.718786 
L 360.8064 194.718786 
" style="fill: none; stroke: #000080; stroke-width: 1.5; stroke-linecap: square"/>
   </g>
   <g id="line2d_31">
    <defs>
     <path id="mc73dc01da4" d="M 0 6 
C 1.591219 6 3.117479 5.367802 4.242641 4.242641 
C 5.367802 3.117479 6 1.591219 6 0 
C 6 -1.591219 5.367802 -3.117479 4.242641 -4.242641 
C 3.117479 -5.367802 1.591219 -6 0 -6 
C -1.591219 -6 -3.117479 -5.367802 -4.242641 -4.242641 
C -5.367802 -3.117479 -6 -1.591219 -6 0 
C -6 1.591219 -5.367802 3.117479 -4.242641 4.242641 
C -3.117479 5.367802 -1.591219 6 0 6 
z
" style="stroke: #000080; stroke-width: 1.5"/>
    </defs>
    <g>
     <use xlink:href="#mc73dc01da4" x="148.991428" y="261.181241" style="fill-opacity: 0; stroke: #000080; stroke-width: 1.5"/>
     <use xlink:href="#mc73dc01da4" x="171.139025" y="209.320386" style="fill-opacity: 0; stroke: #000080; stroke-width: 1.5"/>
     <use xlink:href="#mc73dc01da4" x="185.407239" y="194.718786" style="fill-opacity: 0; stroke: #000080; stroke-width: 1.5"/>
     <use xlink:href="#mc73dc01da4" x="185.407239" y="194.718786" style="fill-opacity: 0; stroke: #000080; stroke-width: 1.5"/>
     <use xlink:href="#mc73dc01da4" x="360.8064" y="194.718786" style="fill-opacity: 0; stroke: #000080; stroke-width: 1.5"/>
    </g>
   </g>
   <g id="line2d_32">
    <path style="fill: none; stroke: #000080; stroke-width: 1.5; stroke-linecap: square"/>
    <g/>
   </g>
   <g id="line2d_33">
    <path d="M 187.540897 194.718786 
" clip-path="url(#p4d6ac19928)" style="fill: none; stroke: #000080; stroke-width: 1.5; stroke-linecap: square"/>
    <defs>
     <path id="m23f646ce92" d="M -12 12 
L 12 -12 
M -12 -12 
L 12 12 
" style="stroke: #000080"/>
    </defs>
    <g clip-path="url(#p4d6ac19928)">
     <use xlink:href="#m23f646ce92" x="187.540897" y="194.718786" style="fill: #000080; stroke: #000080"/>
    </g>
   </g>
   <g id="line2d_34">
    <defs>
     <path id="ma8093516be" d="M 0 1.5 
C 0.397805 1.5 0.77937 1.341951 1.06066 1.06066 
C 1.341951 0.77937 1.5 0.397805 1.5 0 
C 1.5 -0.397805 1.341951 -0.77937 1.06066 -1.06066 
C 0.77937 -1.341951 0.397805 -1.5 0 -1.5 
C -0.397805 -1.5 -0.77937 -1.341951 -1.06066 -1.06066 
C -1.341951 -0.77937 -1.5 -0.397805 -1.5 0 
C -1.5 0.397805 -1.341951 0.77937 -1.06066 1.06066 
C -0.77937 1.341951 -0.397805 1.5 0 1.5 
z
" style="stroke: #ff00ff"/>
    </defs>
    <g>
     <use xlink:href="#ma8093516be" x="187.382172" y="186.662731" style="fill: #ff00ff; stroke: #ff00ff"/>
     <use xlink:href="#ma8093516be" x="187.382172" y="186.662731" style="fill: #ff00ff; stroke: #ff00ff"/>
    </g>
   </g>
   <g id="line2d_35">
    <path d="M 1.245626 298.944 
L 1.245626 285.349407 
L 121.169739 285.349407 
L 121.169739 284.845903 
L 129.188317 284.845903 
L 129.188317 284.3424 
L 129.724648 284.3424 
L 129.724648 283.838897 
L 130.753507 283.838897 
L 130.753507 283.335393 
L 132.881269 283.335393 
L 132.881269 282.83189 
L 133.967012 282.83189 
L 133.967012 282.328386 
L 134.384351 282.328386 
L 134.384351 281.824883 
L 134.792631 281.824883 
L 134.792631 281.321379 
L 134.993495 281.321379 
L 134.993495 280.817876 
L 135.966853 280.817876 
L 135.966853 280.314372 
L 136.710829 280.314372 
L 136.710829 279.810869 
L 138.284415 279.810869 
L 138.284415 279.307366 
L 138.451402 279.307366 
L 138.451402 278.300359 
L 138.943648 278.300359 
L 138.943648 277.293352 
L 139.580558 277.293352 
L 139.580558 275.782841 
L 140.34752 275.782841 
L 140.34752 275.279338 
L 140.645758 275.279338 
L 140.645758 274.272331 
L 141.371301 274.272331 
L 141.371301 273.265324 
L 141.513111 273.265324 
L 141.513111 272.761821 
L 141.932237 272.761821 
L 141.932237 271.754814 
L 142.610675 271.754814 
L 142.610675 271.25131 
L 142.875344 271.25131 
L 142.875344 270.747807 
L 143.006295 270.747807 
L 143.006295 269.7408 
L 143.773417 269.7408 
L 143.773417 269.237297 
L 143.898283 269.237297 
L 143.898283 268.733793 
L 144.510478 268.733793 
L 144.510478 268.23029 
L 144.630562 268.23029 
L 144.630562 267.223283 
L 144.986282 267.223283 
L 144.986282 266.719779 
L 145.219746 266.719779 
L 145.219746 266.216276 
L 145.791035 266.216276 
L 145.791035 265.209269 
L 146.345485 265.209269 
L 146.454441 264.202262 
L 146.562769 264.202262 
L 146.562769 263.698759 
L 146.88406 263.698759 
L 146.88406 263.195255 
L 147.095245 263.195255 
L 147.095245 262.691752 
L 147.714939 262.691752 
L 147.714939 261.684745 
L 148.017294 261.684745 
L 148.017294 261.181241 
L 148.216198 261.181241 
L 148.216198 259.670731 
L 148.704447 259.670731 
L 148.704447 258.663724 
L 148.896253 258.663724 
L 148.896253 257.656717 
L 149.274095 257.656717 
L 149.367382 255.642703 
L 149.644498 255.642703 
L 149.644498 255.1392 
L 149.826999 255.1392 
L 149.826999 254.635697 
L 150.007747 254.635697 
L 150.007747 253.62869 
L 150.62703 253.62869 
L 150.62703 253.125186 
L 150.88632 253.125186 
L 150.88632 252.118179 
L 151.310683 252.118179 
L 151.394419 251.111172 
L 151.889155 251.111172 
L 151.889155 250.104166 
L 152.529191 250.104166 
L 152.529191 249.097159 
L 152.91843 249.097159 
L 152.91843 248.090152 
L 153.148165 248.090152 
L 153.148165 247.586648 
L 153.375128 247.586648 
L 153.375128 246.579641 
L 154.184657 246.579641 
L 154.184657 246.076138 
L 154.399522 246.076138 
L 154.470602 245.069131 
L 155.505777 245.069131 
L 155.505777 244.565628 
L 155.838553 244.565628 
L 155.904407 243.558621 
L 155.970032 243.558621 
L 155.970032 243.055117 
L 156.230265 243.055117 
L 156.230265 242.551614 
L 156.550574 242.551614 
L 156.550574 242.04811 
L 156.677186 242.04811 
L 156.677186 241.544607 
L 157.419468 241.544607 
L 157.419468 241.041103 
L 157.898535 241.041103 
L 157.898535 240.5376 
L 158.016419 240.5376 
L 158.016419 240.034097 
L 158.249994 240.034097 
L 158.249994 239.530593 
L 158.595008 239.530593 
L 158.595008 237.516579 
L 158.76517 237.516579 
L 158.76517 237.013076 
L 160.231096 237.013076 
L 160.231096 236.006069 
L 160.644379 236.006069 
L 160.644379 235.502566 
L 161.048777 235.502566 
L 161.048777 234.495559 
L 161.493569 234.495559 
L 161.590999 232.481545 
L 162.070724 232.481545 
L 162.070724 231.474538 
L 162.676617 231.474538 
L 162.676617 230.467531 
L 163.084935 230.467531 
L 163.084935 229.460524 
L 163.440591 229.460524 
L 163.440591 228.453517 
L 163.702988 228.453517 
L 163.746367 226.439503 
L 164.717439 226.439503 
L 164.717439 225.432497 
L 165.0033 225.432497 
L 165.0033 224.928993 
L 165.164721 224.928993 
L 165.244914 223.418483 
L 165.640833 223.418483 
L 165.640833 222.411476 
L 165.874446 222.411476 
L 165.874446 220.397462 
L 165.990173 220.397462 
L 165.990173 219.390455 
L 166.143377 219.390455 
L 166.143377 218.383448 
L 166.927844 218.383448 
L 166.927844 217.376441 
L 167.182228 217.376441 
L 167.218289 215.865931 
L 167.433218 215.865931 
L 167.433218 215.362428 
L 167.575151 215.362428 
L 167.645719 214.355421 
L 167.716022 214.355421 
L 167.716022 213.851917 
L 168.200924 213.851917 
L 168.200924 213.348414 
L 170.024438 213.348414 
L 170.024438 212.341407 
L 170.332249 212.341407 
L 170.332249 210.327393 
L 170.484286 210.327393 
L 170.484286 209.320386 
L 170.903566 209.320386 
L 170.903566 208.313379 
L 171.226568 208.313379 
L 171.226568 207.306372 
L 171.40044 207.306372 
L 171.40044 206.299366 
L 171.515469 206.299366 
L 171.601281 204.285352 
L 171.884527 204.285352 
L 171.884527 203.278345 
L 174.059077 203.278345 
L 174.059077 202.271338 
L 174.915793 202.271338 
L 174.987442 200.257324 
L 175.294806 200.257324 
L 175.294806 199.753821 
L 175.735186 199.753821 
L 175.735186 198.746814 
L 175.872138 198.746814 
L 175.872138 197.739807 
L 176.053204 197.739807 
L 176.053204 196.7328 
L 176.187869 196.7328 
L 176.277113 194.718786 
L 176.476377 194.718786 
L 176.476377 193.711779 
L 177.917356 193.711779 
L 177.917356 193.208276 
L 178.696576 193.208276 
L 178.7552 192.201269 
L 178.813642 192.201269 
L 178.813642 191.697766 
L 179.890875 191.697766 
L 179.890875 191.194262 
L 180.416142 191.194262 
L 180.416142 190.690759 
L 181.082944 190.690759 
L 181.082944 190.187255 
L 181.576377 190.187255 
L 181.576377 189.683752 
L 181.942258 189.683752 
L 181.942258 188.676745 
L 182.621592 188.676745 
L 182.621592 188.173241 
L 185.530133 188.173241 
L 185.530133 187.669738 
L 187.108844 187.669738 
L 187.108844 187.166234 
L 187.382172 187.166234 
L 187.382172 186.662731 
L 360.8064 186.662731 
L 360.8064 186.662731 
" style="fill: none; stroke: #ff00ff; stroke-width: 1.5; stroke-linecap: square"/>
   </g>
   <g id="line2d_36">
    <defs>
     <path id="md6124d2ffa" d="M -0 8.485281 
L 5.091169 0 
L 0 -8.485281 
L -5.091169 -0 
z
" style="stroke: #ff00ff; stroke-width: 1.5; stroke-linejoin: miter"/>
    </defs>
    <g>
     <use xlink:href="#md6124d2ffa" x="134.384351" y="282.328386" style="fill-opacity: 0; stroke: #ff00ff; stroke-width: 1.5; stroke-linejoin: miter"/>
     <use xlink:href="#md6124d2ffa" x="181.942258" y="189.683752" style="fill-opacity: 0; stroke: #ff00ff; stroke-width: 1.5; stroke-linejoin: miter"/>
     <use xlink:href="#md6124d2ffa" x="187.382172" y="186.662731" style="fill-opacity: 0; stroke: #ff00ff; stroke-width: 1.5; stroke-linejoin: miter"/>
     <use xlink:href="#md6124d2ffa" x="187.382172" y="186.662731" style="fill-opacity: 0; stroke: #ff00ff; stroke-width: 1.5; stroke-linejoin: miter"/>
     <use xlink:href="#md6124d2ffa" x="187.382172" y="186.662731" style="fill-opacity: 0; stroke: #ff00ff; stroke-width: 1.5; stroke-linejoin: miter"/>
     <use xlink:href="#md6124d2ffa" x="360.8064" y="186.662731" style="fill-opacity: 0; stroke: #ff00ff; stroke-width: 1.5; stroke-linejoin: miter"/>
    </g>
   </g>
   <g id="line2d_37">
    <path style="fill: none; stroke: #ff00ff; stroke-width: 1.5; stroke-linecap: square"/>
    <g/>
   </g>
   <g id="line2d_38">
    <path d="M 187.540897 186.662731 
" clip-path="url(#p4d6ac19928)" style="fill: none; stroke: #ff00ff; stroke-width: 1.5; stroke-linecap: square"/>
    <defs>
     <path id="mf980831cbd" d="M -12 12 
L 12 -12 
M -12 -12 
L 12 12 
" style="stroke: #ff00ff"/>
    </defs>
    <g clip-path="url(#p4d6ac19928)">
     <use xlink:href="#mf980831cbd" x="187.540897" y="186.662731" style="fill: #ff00ff; stroke: #ff00ff"/>
    </g>
   </g>
   <g id="line2d_39">
    <defs>
     <path id="m2e97794b36" d="M 0 1.5 
C 0.397805 1.5 0.77937 1.341951 1.06066 1.06066 
C 1.341951 0.77937 1.5 0.397805 1.5 0 
C 1.5 -0.397805 1.341951 -0.77937 1.06066 -1.06066 
C 0.77937 -1.341951 0.397805 -1.5 0 -1.5 
C -0.397805 -1.5 -0.77937 -1.341951 -1.06066 -1.06066 
C -1.341951 -0.77937 -1.5 -0.397805 -1.5 0 
C -1.5 0.397805 -1.341951 0.77937 -1.06066 1.06066 
C -0.77937 1.341951 -0.397805 1.5 0 1.5 
z
" style="stroke: #ff7500"/>
    </defs>
    <g>
     <use xlink:href="#m2e97794b36" x="187.517361" y="155.445517" style="fill: #ff7500; stroke: #ff7500"/>
     <use xlink:href="#m2e97794b36" x="187.517361" y="155.445517" style="fill: #ff7500; stroke: #ff7500"/>
    </g>
   </g>
   <g id="line2d_40">
    <path d="M 1.245626 298.944 
L 1.245626 295.419476 
L 80.342421 295.419476 
L 80.342421 294.915972 
L 83.678349 294.915972 
L 83.678349 294.412469 
L 91.148357 294.412469 
L 91.148357 293.908966 
L 110.163764 293.908966 
L 110.163764 293.405462 
L 112.283321 293.405462 
L 112.283321 292.901959 
L 114.188061 292.901959 
L 114.188061 292.398455 
L 114.7824 292.398455 
L 114.7824 290.887945 
L 115.358535 290.887945 
L 115.358535 290.384441 
L 120.317502 290.384441 
L 120.317502 289.880938 
L 121.581803 289.880938 
L 121.581803 288.873931 
L 123.145323 288.873931 
L 123.145323 288.370428 
L 124.238185 288.370428 
L 124.238185 287.866924 
L 125.271028 287.866924 
L 125.271028 287.363421 
L 126.565455 287.363421 
L 126.565455 286.356414 
L 126.875608 286.356414 
L 126.875608 285.85291 
L 127.18073 285.85291 
L 127.18073 285.349407 
L 127.480982 285.349407 
L 127.480982 284.845903 
L 128.914307 284.845903 
L 128.914307 284.3424 
L 129.724648 284.3424 
L 129.724648 283.335393 
L 129.987186 283.335393 
L 129.987186 282.83189 
L 131.002163 282.83189 
L 131.002163 282.328386 
L 132.19841 282.328386 
L 132.19841 280.314372 
L 133.103489 280.314372 
L 133.103489 278.803862 
L 133.540205 278.803862 
L 133.540205 278.300359 
L 134.384351 278.300359 
L 134.384351 277.293352 
L 134.993495 277.293352 
L 134.993495 276.789848 
L 135.192238 276.789848 
L 135.192238 276.286345 
L 135.583532 276.286345 
L 135.583532 275.782841 
L 135.776169 275.782841 
L 135.776169 275.279338 
L 136.155623 275.279338 
L 136.155623 274.775834 
L 136.342518 274.775834 
L 136.342518 274.272331 
L 137.601239 274.272331 
L 137.601239 273.265324 
L 137.945929 273.265324 
L 137.945929 272.761821 
L 138.115933 272.761821 
L 138.115933 271.754814 
L 138.451402 271.754814 
L 138.451402 271.25131 
L 138.616919 271.25131 
L 138.616919 270.747807 
L 139.423341 270.747807 
L 139.423341 270.244303 
L 139.891105 270.244303 
L 139.891105 269.237297 
L 140.044477 269.237297 
L 140.044477 268.23029 
L 140.196609 268.23029 
L 140.196609 266.719779 
L 140.34752 266.719779 
L 140.34752 265.712772 
L 140.793122 265.712772 
L 140.793122 265.209269 
L 140.939341 265.209269 
L 140.939341 263.698759 
L 141.084433 263.698759 
L 141.084433 262.188248 
L 141.228414 262.188248 
L 141.228414 261.181241 
L 141.371301 261.181241 
L 141.371301 260.174234 
L 141.793563 260.174234 
L 141.793563 259.670731 
L 141.932237 259.670731 
L 141.932237 258.160221 
L 142.47693 258.160221 
L 142.47693 257.656717 
L 142.610675 257.656717 
L 142.610675 257.153214 
L 142.875344 257.153214 
L 142.875344 256.64971 
L 143.006295 256.64971 
L 143.006295 256.146207 
L 143.136341 256.146207 
L 143.136341 255.642703 
L 143.265494 255.642703 
L 143.265494 255.1392 
L 143.773417 255.1392 
L 143.773417 254.132193 
L 144.022326 254.132193 
L 144.022326 253.62869 
L 144.145557 253.62869 
L 144.145557 252.621683 
L 144.267986 252.621683 
L 144.267986 252.118179 
L 144.389622 252.118179 
L 144.389622 251.614676 
L 144.630562 251.614676 
L 144.630562 251.111172 
L 144.868454 251.111172 
L 144.868454 250.607669 
L 144.986282 250.607669 
L 144.986282 250.104166 
L 145.3354 250.104166 
L 145.3354 248.593655 
L 145.564597 248.593655 
L 145.564597 247.586648 
L 145.90324 247.586648 
L 145.90324 245.069131 
L 146.01478 245.069131 
L 146.01478 244.565628 
L 146.345485 244.565628 
L 146.345485 242.551614 
L 146.777571 242.551614 
L 146.777571 240.5376 
L 147.095245 240.5376 
L 147.095245 239.530593 
L 147.816265 239.530593 
L 147.816265 239.02709 
L 148.117009 239.02709 
L 148.117009 238.523586 
L 148.413021 238.523586 
L 148.413021 238.020083 
L 148.704447 238.020083 
L 148.704447 237.013076 
L 149.460208 237.013076 
L 149.460208 236.509572 
L 149.73597 236.509572 
L 149.826999 233.992055 
L 150.275654 233.992055 
L 150.275654 232.985048 
L 150.713857 232.985048 
L 150.713857 232.481545 
L 151.643413 232.481545 
L 151.643413 231.474538 
L 152.131727 231.474538 
L 152.211895 229.964028 
L 152.291722 229.964028 
L 152.291722 229.460524 
L 153.148165 229.460524 
L 153.148165 227.44651 
L 153.599386 227.44651 
L 153.599386 226.943007 
L 153.967309 226.943007 
L 153.967309 225.936 
L 154.891532 225.936 
L 154.960781 223.921986 
L 155.029775 223.921986 
L 155.029775 222.914979 
L 155.772467 222.914979 
L 155.772467 222.411476 
L 157.175281 222.411476 
L 157.236625 220.900966 
L 157.297771 220.900966 
L 157.358718 219.390455 
L 157.898535 219.390455 
L 157.898535 218.383448 
L 158.016419 218.383448 
L 158.016419 217.879945 
L 158.480705 217.879945 
L 158.480705 217.376441 
L 160.948489 217.376441 
L 160.948489 215.865931 
L 161.444664 215.865931 
L 161.444664 214.858924 
L 161.639526 214.858924 
L 161.639526 214.355421 
L 161.832391 214.355421 
L 161.832391 213.348414 
L 162.165218 213.348414 
L 162.165218 212.341407 
L 162.352794 212.341407 
L 162.352794 211.837903 
L 163.352305 211.837903 
L 163.352305 209.82389 
L 164.259262 209.82389 
L 164.343401 207.809876 
L 164.427166 207.809876 
L 164.427166 206.802869 
L 165.0033 206.802869 
L 165.0033 205.795862 
L 165.679971 205.795862 
L 165.679971 205.292359 
L 165.835711 205.292359 
L 165.835711 204.788855 
L 167.182228 204.788855 
L 167.182228 204.285352 
L 167.610468 204.285352 
L 167.645719 202.271338 
L 167.855845 202.271338 
L 167.89064 201.264331 
L 168.166699 201.264331 
L 168.166699 200.760828 
L 169.553067 200.760828 
L 169.553067 200.257324 
L 169.805934 200.257324 
L 169.837305 198.24331 
L 170.024438 198.24331 
L 170.024438 197.236303 
L 170.665123 197.236303 
L 170.665123 196.229297 
L 170.784722 196.229297 
L 170.784722 195.22229 
L 170.903566 195.22229 
L 170.93316 193.711779 
L 171.255658 193.711779 
L 171.255658 192.704772 
L 171.77174 192.704772 
L 171.77174 192.201269 
L 171.884527 192.201269 
L 171.940669 190.690759 
L 172.763278 190.690759 
L 172.763278 190.187255 
L 172.923569 190.187255 
L 173.029677 188.676745 
L 174.626436 188.676745 
L 174.626436 188.173241 
L 174.819834 188.173241 
L 174.819834 187.669738 
L 174.987442 187.669738 
L 174.987442 187.166234 
L 175.106254 187.166234 
L 175.106254 186.662731 
L 175.341651 186.662731 
L 175.341651 186.159228 
L 175.758081 186.159228 
L 175.758081 185.152221 
L 176.0982 185.152221 
L 176.165492 184.145214 
L 176.321577 184.145214 
L 176.321577 183.64171 
L 177.06181 183.64171 
L 177.06181 182.634703 
L 177.295193 182.634703 
L 177.295193 181.627697 
L 177.463125 181.627697 
L 177.463125 181.124193 
L 178.301009 181.124193 
L 178.380791 179.110179 
L 178.929984 179.110179 
L 179.007148 178.103172 
L 179.293724 178.103172 
L 179.293724 177.599669 
L 179.613319 177.599669 
L 179.650564 176.592662 
L 179.835691 176.592662 
L 179.835691 175.585655 
L 180.18249 175.585655 
L 180.18249 175.082152 
L 180.505241 175.082152 
L 180.505241 174.075145 
L 180.770035 174.075145 
L 180.874917 172.564634 
L 180.996545 172.564634 
L 180.996545 172.061131 
L 181.441545 172.061131 
L 181.542759 170.550621 
L 181.559576 170.550621 
L 181.559576 170.047117 
L 182.04082 170.047117 
L 182.04082 169.04011 
L 182.349572 169.04011 
L 182.429987 168.033103 
L 183.123199 168.033103 
L 183.123199 167.026097 
L 183.307906 167.026097 
L 183.307906 166.522593 
L 183.430044 166.522593 
L 183.460455 165.012083 
L 183.925646 165.012083 
L 183.925646 164.508579 
L 184.073286 164.508579 
L 184.073286 164.005076 
L 184.234363 164.005076 
L 184.234363 163.501572 
L 184.523743 163.501572 
L 184.523743 162.998069 
L 184.921539 162.998069 
L 185.005698 160.984055 
L 185.489257 160.984055 
L 185.598061 159.977048 
L 185.652228 159.977048 
L 185.652228 159.473545 
L 185.840594 159.473545 
L 185.840594 158.970041 
L 186.093253 158.970041 
L 186.093253 158.466538 
L 186.524174 158.466538 
L 186.524174 157.963034 
L 187.208696 157.963034 
L 187.308021 156.452524 
L 187.517361 156.452524 
L 187.517361 155.445517 
L 360.8064 155.445517 
L 360.8064 155.445517 
" style="fill: none; stroke: #ff7500; stroke-width: 1.5; stroke-linecap: square"/>
   </g>
   <g id="line2d_41">
    <defs>
     <path id="m1353bce7ef" d="M 0 -6 
L -1.347084 -1.854102 
L -5.706339 -1.854102 
L -2.179628 0.708204 
L -3.526712 4.854102 
L -0 2.291796 
L 3.526712 4.854102 
L 2.179628 0.708204 
L 5.706339 -1.854102 
L 1.347084 -1.854102 
z
" style="stroke: #ff7500; stroke-width: 1.5; stroke-linejoin: bevel"/>
    </defs>
    <g>
     <use xlink:href="#m1353bce7ef" x="149.826999" y="233.992055" style="fill-opacity: 0; stroke: #ff7500; stroke-width: 1.5; stroke-linejoin: bevel"/>
     <use xlink:href="#m1353bce7ef" x="187.517361" y="156.452524" style="fill-opacity: 0; stroke: #ff7500; stroke-width: 1.5; stroke-linejoin: bevel"/>
     <use xlink:href="#m1353bce7ef" x="187.517361" y="155.445517" style="fill-opacity: 0; stroke: #ff7500; stroke-width: 1.5; stroke-linejoin: bevel"/>
     <use xlink:href="#m1353bce7ef" x="187.517361" y="155.445517" style="fill-opacity: 0; stroke: #ff7500; stroke-width: 1.5; stroke-linejoin: bevel"/>
     <use xlink:href="#m1353bce7ef" x="360.8064" y="155.445517" style="fill-opacity: 0; stroke: #ff7500; stroke-width: 1.5; stroke-linejoin: bevel"/>
    </g>
   </g>
   <g id="line2d_42">
    <path style="fill: none; stroke: #ff7500; stroke-width: 1.5; stroke-linecap: square"/>
    <g/>
   </g>
   <g id="line2d_43">
    <path d="M 187.540897 155.445517 
" clip-path="url(#p4d6ac19928)" style="fill: none; stroke: #ff7500; stroke-width: 1.5; stroke-linecap: square"/>
    <defs>
     <path id="m182fb00392" d="M -12 12 
L 12 -12 
M -12 -12 
L 12 12 
" style="stroke: #ff7500"/>
    </defs>
    <g clip-path="url(#p4d6ac19928)">
     <use xlink:href="#m182fb00392" x="187.540897" y="155.445517" style="fill: #ff7500; stroke: #ff7500"/>
    </g>
   </g>
   <g id="line2d_44">
    <defs>
     <path id="mc6b5129651" d="M 0 1.5 
C 0.397805 1.5 0.77937 1.341951 1.06066 1.06066 
C 1.341951 0.77937 1.5 0.397805 1.5 0 
C 1.5 -0.397805 1.341951 -0.77937 1.06066 -1.06066 
C 0.77937 -1.341951 0.397805 -1.5 0 -1.5 
C -0.397805 -1.5 -0.77937 -1.341951 -1.06066 -1.06066 
C -1.341951 -0.77937 -1.5 -0.397805 -1.5 0 
C -1.5 0.397805 -1.341951 0.77937 -1.06066 1.06066 
C -0.77937 1.341951 -0.397805 1.5 0 1.5 
z
" style="stroke: #6495ed"/>
    </defs>
    <g>
     <use xlink:href="#mc6b5129651" x="187.308021" y="170.047117" style="fill: #6495ed; stroke: #6495ed"/>
     <use xlink:href="#mc6b5129651" x="187.308021" y="170.047117" style="fill: #6495ed; stroke: #6495ed"/>
    </g>
   </g>
   <g id="line2d_45">
    <path d="M 1.245626 298.944 
L 1.245626 290.887945 
L 52.188254 290.887945 
L 52.188254 289.377434 
L 71.103681 289.377434 
L 71.103681 288.370428 
L 102.96292 288.370428 
L 102.96292 287.866924 
L 109.400633 287.866924 
L 109.400633 287.363421 
L 110.163764 287.363421 
L 110.163764 286.859917 
L 119.424815 286.859917 
L 119.424815 285.349407 
L 120.317502 285.349407 
L 120.317502 284.845903 
L 122.766456 284.845903 
L 122.766456 284.3424 
L 123.145323 284.3424 
L 123.145323 283.838897 
L 123.51671 283.838897 
L 123.51671 283.335393 
L 125.929373 283.335393 
L 125.929373 282.83189 
L 126.250102 282.83189 
L 126.250102 282.328386 
L 126.565455 282.328386 
L 126.565455 281.824883 
L 127.18073 281.824883 
L 127.18073 280.817876 
L 129.458394 280.817876 
L 129.458394 280.314372 
L 129.724648 280.314372 
L 129.724648 279.810869 
L 129.987186 279.810869 
L 129.987186 279.307366 
L 131.489828 279.307366 
L 131.489828 278.803862 
L 131.729 278.803862 
L 131.729 277.796855 
L 131.965169 277.796855 
L 131.965169 276.789848 
L 132.428795 276.789848 
L 132.428795 276.286345 
L 132.656392 276.286345 
L 132.656392 275.279338 
L 134.792631 275.279338 
L 134.792631 274.272331 
L 134.993495 274.272331 
L 134.993495 273.768828 
L 135.776169 273.768828 
L 135.776169 272.761821 
L 136.342518 272.761821 
L 136.342518 271.754814 
L 136.710829 271.754814 
L 136.710829 271.25131 
L 137.774373 271.25131 
L 137.774373 270.244303 
L 137.945929 270.244303 
L 137.945929 268.733793 
L 138.115933 268.733793 
L 138.115933 268.23029 
L 138.780993 268.23029 
L 138.780993 267.726786 
L 138.943648 267.726786 
L 138.943648 266.719779 
L 139.580558 266.719779 
L 139.580558 266.216276 
L 139.891105 266.216276 
L 139.891105 265.712772 
L 140.196609 265.712772 
L 140.196609 265.209269 
L 140.34752 265.209269 
L 140.34752 264.705766 
L 140.49723 264.705766 
L 140.49723 264.202262 
L 140.645758 264.202262 
L 140.645758 263.698759 
L 140.939341 263.698759 
L 140.939341 261.181241 
L 141.513111 261.181241 
L 141.513111 260.174234 
L 141.793563 260.174234 
L 141.793563 259.167228 
L 142.610675 259.167228 
L 142.610675 258.663724 
L 142.875344 258.663724 
L 142.875344 258.160221 
L 143.265494 258.160221 
L 143.265494 257.656717 
L 143.393766 257.656717 
L 143.393766 255.642703 
L 143.647716 255.642703 
L 143.647716 254.635697 
L 143.773417 254.635697 
L 143.773417 254.132193 
L 143.898283 254.132193 
L 143.898283 253.62869 
L 144.510478 253.62869 
L 144.510478 252.621683 
L 144.630562 252.621683 
L 144.630562 252.118179 
L 145.3354 252.118179 
L 145.3354 250.607669 
L 145.564597 250.607669 
L 145.564597 249.600662 
L 146.125662 249.600662 
L 146.235895 247.586648 
L 146.345485 247.586648 
L 146.345485 247.083145 
L 146.670477 247.083145 
L 146.670477 246.076138 
L 146.88406 246.076138 
L 146.88406 245.069131 
L 147.199956 245.069131 
L 147.304086 243.055117 
L 147.407644 243.055117 
L 147.407644 242.551614 
L 147.816265 242.551614 
L 147.816265 242.04811 
L 148.117009 242.04811 
L 148.117009 241.544607 
L 148.704447 241.544607 
L 148.704447 240.034097 
L 148.991428 240.034097 
L 148.991428 239.530593 
L 150.097474 239.530593 
L 150.097474 238.523586 
L 150.275654 238.523586 
L 150.275654 238.020083 
L 150.539799 238.020083 
L 150.539799 237.516579 
L 150.88632 237.516579 
L 150.88632 236.509572 
L 151.226573 236.509572 
L 151.310683 234.495559 
L 151.394419 234.495559 
L 151.477784 233.488552 
L 152.051217 233.488552 
L 152.131727 231.474538 
L 153.74742 231.474538 
L 153.74742 230.467531 
L 154.399522 230.467531 
L 154.470602 229.460524 
L 155.371001 229.460524 
L 155.371001 228.453517 
L 155.572805 228.453517 
L 155.572805 227.950014 
L 155.706148 227.950014 
L 155.706148 226.943007 
L 156.100598 226.943007 
L 156.100598 225.936 
L 156.423104 225.936 
L 156.486947 224.42549 
L 156.613987 224.42549 
L 156.613987 223.418483 
L 158.249994 223.418483 
L 158.249994 222.411476 
L 158.76517 222.411476 
L 158.76517 221.404469 
L 158.933807 221.404469 
L 158.933807 220.397462 
L 159.321512 220.397462 
L 159.321512 219.390455 
L 159.485256 219.390455 
L 159.593632 217.376441 
L 159.647587 217.376441 
L 159.647587 216.872938 
L 159.808529 216.872938 
L 159.808529 215.865931 
L 160.073744 215.865931 
L 160.073744 215.362428 
L 161.639526 215.362428 
L 161.639526 214.858924 
L 162.165218 214.858924 
L 162.212287 212.84491 
L 162.81371 212.84491 
L 162.81371 211.837903 
L 163.040002 211.837903 
L 163.040002 210.830897 
L 163.174482 210.830897 
L 163.174482 210.327393 
L 163.572247 210.327393 
L 163.572247 209.82389 
L 164.047252 209.82389 
L 164.089846 208.313379 
L 164.840483 208.313379 
L 164.840483 207.809876 
L 165.324768 207.809876 
L 165.404283 206.299366 
L 166.105193 206.299366 
L 166.105193 205.795862 
L 166.854526 205.795862 
L 166.854526 204.788855 
L 167.645719 204.788855 
L 167.645719 203.781848 
L 168.029176 203.781848 
L 168.029176 203.278345 
L 168.337202 203.278345 
L 168.337202 202.271338 
L 168.573339 202.271338 
L 168.573339 201.767834 
L 169.036902 201.767834 
L 169.036902 200.760828 
L 169.584862 200.760828 
L 169.584862 199.753821 
L 170.574922 199.753821 
L 170.574922 198.746814 
L 170.814504 198.746814 
L 170.844238 196.229297 
L 171.371573 196.229297 
L 171.371573 195.725793 
L 171.856394 195.725793 
L 171.856394 195.22229 
L 172.163572 195.22229 
L 172.19125 193.711779 
L 172.52025 193.711779 
L 172.52025 193.208276 
L 172.790088 193.208276 
L 172.790088 192.704772 
L 173.029677 192.704772 
L 173.029677 192.201269 
L 173.292356 192.201269 
L 173.292356 191.194262 
L 173.705159 191.194262 
L 173.781561 189.180248 
L 175.082552 189.180248 
L 175.082552 188.173241 
L 175.574138 188.173241 
L 175.574138 187.669738 
L 175.758081 187.669738 
L 175.758081 187.166234 
L 175.917569 187.166234 
L 175.962889 186.159228 
L 176.0982 186.159228 
L 176.0982 185.655724 
L 176.476377 185.655724 
L 176.476377 185.152221 
L 177.189468 185.152221 
L 177.189468 184.145214 
L 177.546533 184.145214 
L 177.546533 183.138207 
L 177.815081 183.138207 
L 177.815081 182.1312 
L 178.019078 182.1312 
L 178.019078 181.627697 
L 178.281011 181.627697 
L 178.281011 181.124193 
L 178.774701 181.124193 
L 178.774701 180.62069 
L 179.274754 180.62069 
L 179.274754 179.613683 
L 180.326619 179.613683 
L 180.326619 179.110179 
L 181.151778 179.110179 
L 181.151778 178.103172 
L 181.975169 178.103172 
L 181.975169 177.599669 
L 182.317309 177.599669 
L 182.333448 176.592662 
L 183.092238 176.592662 
L 183.092238 176.089159 
L 183.430044 176.089159 
L 183.430044 175.585655 
L 183.851389 175.585655 
L 183.851389 175.082152 
L 184.087987 175.082152 
L 184.087987 174.578648 
L 185.242122 174.578648 
L 185.311097 173.571641 
L 185.461958 173.571641 
L 185.461958 173.068138 
L 185.665746 173.068138 
L 185.665746 172.564634 
L 186.329524 172.564634 
L 186.329524 172.061131 
L 187.158836 172.061131 
L 187.158836 171.054124 
L 187.308021 171.054124 
L 187.308021 170.047117 
L 360.8064 170.047117 
L 360.8064 170.047117 
" style="fill: none; stroke: #6495ed; stroke-width: 1.5; stroke-linecap: square"/>
   </g>
   <g id="line2d_46">
    <defs>
     <path id="m1d7063d504" d="M -0 6 
L 6 -6 
L -6 -6 
z
" style="stroke: #6495ed; stroke-width: 1.5; stroke-linejoin: miter"/>
    </defs>
    <g>
     <use xlink:href="#m1d7063d504" x="138.115933" y="268.23029" style="fill-opacity: 0; stroke: #6495ed; stroke-width: 1.5; stroke-linejoin: miter"/>
     <use xlink:href="#m1d7063d504" x="178.281011" y="181.124193" style="fill-opacity: 0; stroke: #6495ed; stroke-width: 1.5; stroke-linejoin: miter"/>
     <use xlink:href="#m1d7063d504" x="187.308021" y="170.047117" style="fill-opacity: 0; stroke: #6495ed; stroke-width: 1.5; stroke-linejoin: miter"/>
     <use xlink:href="#m1d7063d504" x="187.308021" y="170.047117" style="fill-opacity: 0; stroke: #6495ed; stroke-width: 1.5; stroke-linejoin: miter"/>
     <use xlink:href="#m1d7063d504" x="360.8064" y="170.047117" style="fill-opacity: 0; stroke: #6495ed; stroke-width: 1.5; stroke-linejoin: miter"/>
    </g>
   </g>
   <g id="line2d_47">
    <path style="fill: none; stroke: #6495ed; stroke-width: 1.5; stroke-linecap: square"/>
    <g/>
   </g>
   <g id="line2d_48">
    <path d="M 187.540897 170.047117 
" clip-path="url(#p4d6ac19928)" style="fill: none; stroke: #6495ed; stroke-width: 1.5; stroke-linecap: square"/>
    <defs>
     <path id="m189e24f979" d="M -12 12 
L 12 -12 
M -12 -12 
L 12 12 
" style="stroke: #6495ed"/>
    </defs>
    <g clip-path="url(#p4d6ac19928)">
     <use xlink:href="#m189e24f979" x="187.540897" y="170.047117" style="fill: #6495ed; stroke: #6495ed"/>
    </g>
   </g>
   <g id="line2d_49">
    <path d="M 360.8064 194.718786 
L 380.514816 293.10336 
" style="fill: none; stroke: #000080; stroke-width: 1.5; stroke-linecap: square"/>
    <g>
     <use xlink:href="#mc73dc01da4" x="360.8064" y="194.718786" style="fill-opacity: 0; stroke: #000080; stroke-width: 1.5"/>
     <use xlink:href="#mc73dc01da4" x="380.514816" y="293.10336" style="fill-opacity: 0; stroke: #000080; stroke-width: 1.5"/>
    </g>
   </g>
   <g id="line2d_50">
    <path d="M 360.8064 186.662731 
L 380.514816 199.65312 
" style="fill: none; stroke: #ff00ff; stroke-width: 1.5; stroke-linecap: square"/>
    <g>
     <use xlink:href="#md6124d2ffa" x="360.8064" y="186.662731" style="fill-opacity: 0; stroke: #ff00ff; stroke-width: 1.5; stroke-linejoin: miter"/>
     <use xlink:href="#md6124d2ffa" x="380.514816" y="199.65312" style="fill-opacity: 0; stroke: #ff00ff; stroke-width: 1.5; stroke-linejoin: miter"/>
    </g>
   </g>
   <g id="line2d_51">
    <path d="M 360.8064 170.047117 
L 380.514816 106.20288 
" style="fill: none; stroke: #6495ed; stroke-width: 1.5; stroke-linecap: square"/>
    <g>
     <use xlink:href="#m1d7063d504" x="360.8064" y="170.047117" style="fill-opacity: 0; stroke: #6495ed; stroke-width: 1.5; stroke-linejoin: miter"/>
     <use xlink:href="#m1d7063d504" x="380.514816" y="106.20288" style="fill-opacity: 0; stroke: #6495ed; stroke-width: 1.5; stroke-linejoin: miter"/>
    </g>
   </g>
   <g id="line2d_52">
    <path d="M 360.8064 155.445517 
L 380.514816 12.75264 
" style="fill: none; stroke: #ff7500; stroke-width: 1.5; stroke-linecap: square"/>
    <g>
     <use xlink:href="#m1353bce7ef" x="360.8064" y="155.445517" style="fill-opacity: 0; stroke: #ff7500; stroke-width: 1.5; stroke-linejoin: bevel"/>
     <use xlink:href="#m1353bce7ef" x="380.514816" y="12.75264" style="fill-opacity: 0; stroke: #ff7500; stroke-width: 1.5; stroke-linejoin: bevel"/>
    </g>
   </g>
   <g id="line2d_53">
    <path d="M 360.8064 298.944 
L 360.8064 6.912 
" style="fill: none; stroke: #000000; stroke-width: 1.5; stroke-linecap: square"/>
   </g>
   <g id="patch_3">
    <path d="M 57.6 298.944 
L 360.8064 298.944 
" style="fill: none; stroke: #000000; stroke-width: 0.8; stroke-linejoin: miter; stroke-linecap: square"/>
   </g>
   <g id="patch_4">
    <path d="M 57.6 6.912 
L 360.8064 6.912 
" style="fill: none; stroke: #000000; stroke-width: 0.8; stroke-linejoin: miter; stroke-linecap: square"/>
   </g>
   <g id="text_13">
    <!-- f3 -->
    <g transform="translate(386.578944 296.966485) scale(0.14 -0.14)">
     <defs>
      <path id="DejaVuSans-33" d="M 2597 2516 
Q 3050 2419 3304 2112 
Q 3559 1806 3559 1356 
Q 3559 666 3084 287 
Q 2609 -91 1734 -91 
Q 1441 -91 1130 -33 
Q 819 25 488 141 
L 488 750 
Q 750 597 1062 519 
Q 1375 441 1716 441 
Q 2309 441 2620 675 
Q 2931 909 2931 1356 
Q 2931 1769 2642 2001 
Q 2353 2234 1838 2234 
L 1294 2234 
L 1294 2753 
L 1863 2753 
Q 2328 2753 2575 2939 
Q 2822 3125 2822 3475 
Q 2822 3834 2567 4026 
Q 2313 4219 1838 4219 
Q 1578 4219 1281 4162 
Q 984 4106 628 3988 
L 628 4550 
Q 988 4650 1302 4700 
Q 1616 4750 1894 4750 
Q 2613 4750 3031 4423 
Q 3450 4097 3450 3541 
Q 3450 3153 3228 2886 
Q 3006 2619 2597 2516 
z
" transform="scale(0.015625)"/>
     </defs>
     <use xlink:href="#DejaVuSans-66"/>
     <use xlink:href="#DejaVuSans-33" x="35.205078"/>
    </g>
   </g>
   <g id="text_14">
    <!-- f4 -->
    <g transform="translate(386.578944 203.516245) scale(0.14 -0.14)">
     <use xlink:href="#DejaVuSans-66"/>
     <use xlink:href="#DejaVuSans-34" x="35.205078"/>
    </g>
   </g>
   <g id="text_15">
    <!-- f13 -->
    <g transform="translate(386.578944 110.066005) scale(0.14 -0.14)">
     <use xlink:href="#DejaVuSans-66"/>
     <use xlink:href="#DejaVuSans-31" x="35.205078"/>
     <use xlink:href="#DejaVuSans-33" x="98.828125"/>
    </g>
   </g>
   <g id="text_16">
    <!-- f12 -->
    <g transform="translate(386.578944 16.615765) scale(0.14 -0.14)">
     <use xlink:href="#DejaVuSans-66"/>
     <use xlink:href="#DejaVuSans-31" x="35.205078"/>
     <use xlink:href="#DejaVuSans-32" x="98.828125"/>
    </g>
   </g>
   <g id="text_17">
    <!-- bbob-biobj -->
    <g transform="translate(60.632064 17.582726) scale(0.102 -0.102)">
     <defs>
      <path id="DejaVuSans-62" d="M 3116 1747 
Q 3116 2381 2855 2742 
Q 2594 3103 2138 3103 
Q 1681 3103 1420 2742 
Q 1159 2381 1159 1747 
Q 1159 1113 1420 752 
Q 1681 391 2138 391 
Q 2594 391 2855 752 
Q 3116 1113 3116 1747 
z
M 1159 2969 
Q 1341 3281 1617 3432 
Q 1894 3584 2278 3584 
Q 2916 3584 3314 3078 
Q 3713 2572 3713 1747 
Q 3713 922 3314 415 
Q 2916 -91 2278 -91 
Q 1894 -91 1617 61 
Q 1341 213 1159 525 
L 1159 0 
L 581 0 
L 581 4863 
L 1159 4863 
L 1159 2969 
z
" transform="scale(0.015625)"/>
      <path id="DejaVuSans-6a" d="M 603 3500 
L 1178 3500 
L 1178 -63 
Q 1178 -731 923 -1031 
Q 669 -1331 103 -1331 
L -116 -1331 
L -116 -844 
L 38 -844 
Q 366 -844 484 -692 
Q 603 -541 603 -63 
L 603 3500 
z
M 603 4863 
L 1178 4863 
L 1178 4134 
L 603 4134 
L 603 4863 
z
" transform="scale(0.015625)"/>
     </defs>
     <use xlink:href="#DejaVuSans-62"/>
     <use xlink:href="#DejaVuSans-62" x="63.476562"/>
     <use xlink:href="#DejaVuSans-6f" x="126.953125"/>
     <use xlink:href="#DejaVuSans-62" x="188.134766"/>
     <use xlink:href="#DejaVuSans-2d" x="251.611328"/>
     <use xlink:href="#DejaVuSans-62" x="287.695312"/>
     <use xlink:href="#DejaVuSans-69" x="351.171875"/>
     <use xlink:href="#DejaVuSans-6f" x="378.955078"/>
     <use xlink:href="#DejaVuSans-62" x="440.136719"/>
     <use xlink:href="#DejaVuSans-6a" x="503.613281"/>
    </g>
    <!-- 1-separable 2-moderate, 20-D -->
    <g transform="translate(60.632064 29.004495) scale(0.102 -0.102)">
     <defs>
      <path id="DejaVuSans-44" d="M 1259 4147 
L 1259 519 
L 2022 519 
Q 2988 519 3436 956 
Q 3884 1394 3884 2338 
Q 3884 3275 3436 3711 
Q 2988 4147 2022 4147 
L 1259 4147 
z
M 628 4666 
L 1925 4666 
Q 3281 4666 3915 4102 
Q 4550 3538 4550 2338 
Q 4550 1131 3912 565 
Q 3275 0 1925 0 
L 628 0 
L 628 4666 
z
" transform="scale(0.015625)"/>
     </defs>
     <use xlink:href="#DejaVuSans-31"/>
     <use xlink:href="#DejaVuSans-2d" x="63.623047"/>
     <use xlink:href="#DejaVuSans-73" x="99.707031"/>
     <use xlink:href="#DejaVuSans-65" x="151.806641"/>
     <use xlink:href="#DejaVuSans-70" x="213.330078"/>
     <use xlink:href="#DejaVuSans-61" x="276.806641"/>
     <use xlink:href="#DejaVuSans-72" x="338.085938"/>
     <use xlink:href="#DejaVuSans-61" x="379.199219"/>
     <use xlink:href="#DejaVuSans-62" x="440.478516"/>
     <use xlink:href="#DejaVuSans-6c" x="503.955078"/>
     <use xlink:href="#DejaVuSans-65" x="531.738281"/>
     <use xlink:href="#DejaVuSans-20" x="593.261719"/>
     <use xlink:href="#DejaVuSans-32" x="625.048828"/>
     <use xlink:href="#DejaVuSans-2d" x="688.671875"/>
     <use xlink:href="#DejaVuSans-6d" x="724.755859"/>
     <use xlink:href="#DejaVuSans-6f" x="822.167969"/>
     <use xlink:href="#DejaVuSans-64" x="883.349609"/>
     <use xlink:href="#DejaVuSans-65" x="946.826172"/>
     <use xlink:href="#DejaVuSans-72" x="1008.349609"/>
     <use xlink:href="#DejaVuSans-61" x="1049.462891"/>
     <use xlink:href="#DejaVuSans-74" x="1110.742188"/>
     <use xlink:href="#DejaVuSans-65" x="1149.951172"/>
     <use xlink:href="#DejaVuSans-2c" x="1211.474609"/>
     <use xlink:href="#DejaVuSans-20" x="1243.261719"/>
     <use xlink:href="#DejaVuSans-32" x="1275.048828"/>
     <use xlink:href="#DejaVuSans-30" x="1338.671875"/>
     <use xlink:href="#DejaVuSans-2d" x="1402.294922"/>
     <use xlink:href="#DejaVuSans-44" x="1438.378906"/>
    </g>
    <!-- 58 targets: 1..-1.0e-4 -->
    <g transform="translate(60.632064 40.426264) scale(0.102 -0.102)">
     <defs>
      <path id="DejaVuSans-35" d="M 691 4666 
L 3169 4666 
L 3169 4134 
L 1269 4134 
L 1269 2991 
Q 1406 3038 1543 3061 
Q 1681 3084 1819 3084 
Q 2600 3084 3056 2656 
Q 3513 2228 3513 1497 
Q 3513 744 3044 326 
Q 2575 -91 1722 -91 
Q 1428 -91 1123 -41 
Q 819 9 494 109 
L 494 744 
Q 775 591 1075 516 
Q 1375 441 1709 441 
Q 2250 441 2565 725 
Q 2881 1009 2881 1497 
Q 2881 1984 2565 2268 
Q 2250 2553 1709 2553 
Q 1456 2553 1204 2497 
Q 953 2441 691 2322 
L 691 4666 
z
" transform="scale(0.015625)"/>
      <path id="DejaVuSans-3a" d="M 750 794 
L 1409 794 
L 1409 0 
L 750 0 
L 750 794 
z
M 750 3309 
L 1409 3309 
L 1409 2516 
L 750 2516 
L 750 3309 
z
" transform="scale(0.015625)"/>
     </defs>
     <use xlink:href="#DejaVuSans-35"/>
     <use xlink:href="#DejaVuSans-38" x="63.623047"/>
     <use xlink:href="#DejaVuSans-20" x="127.246094"/>
     <use xlink:href="#DejaVuSans-74" x="159.033203"/>
     <use xlink:href="#DejaVuSans-61" x="198.242188"/>
     <use xlink:href="#DejaVuSans-72" x="259.521484"/>
     <use xlink:href="#DejaVuSans-67" x="298.884766"/>
     <use xlink:href="#DejaVuSans-65" x="362.361328"/>
     <use xlink:href="#DejaVuSans-74" x="423.884766"/>
     <use xlink:href="#DejaVuSans-73" x="463.09375"/>
     <use xlink:href="#DejaVuSans-3a" x="515.193359"/>
     <use xlink:href="#DejaVuSans-20" x="548.884766"/>
     <use xlink:href="#DejaVuSans-31" x="580.671875"/>
     <use xlink:href="#DejaVuSans-2e" x="644.294922"/>
     <use xlink:href="#DejaVuSans-2e" x="676.082031"/>
     <use xlink:href="#DejaVuSans-2d" x="707.869141"/>
     <use xlink:href="#DejaVuSans-31" x="743.953125"/>
     <use xlink:href="#DejaVuSans-2e" x="807.576172"/>
     <use xlink:href="#DejaVuSans-30" x="839.363281"/>
     <use xlink:href="#DejaVuSans-65" x="902.986328"/>
     <use xlink:href="#DejaVuSans-2d" x="964.509766"/>
     <use xlink:href="#DejaVuSans-34" x="1000.59375"/>
    </g>
    <!-- 10 instances -->
    <g transform="translate(60.632064 51.848032) scale(0.102 -0.102)">
     <use xlink:href="#DejaVuSans-31"/>
     <use xlink:href="#DejaVuSans-30" x="63.623047"/>
     <use xlink:href="#DejaVuSans-20" x="127.246094"/>
     <use xlink:href="#DejaVuSans-69" x="159.033203"/>
     <use xlink:href="#DejaVuSans-6e" x="186.816406"/>
     <use xlink:href="#DejaVuSans-73" x="250.195312"/>
     <use xlink:href="#DejaVuSans-74" x="302.294922"/>
     <use xlink:href="#DejaVuSans-61" x="341.503906"/>
     <use xlink:href="#DejaVuSans-6e" x="402.783203"/>
     <use xlink:href="#DejaVuSans-63" x="466.162109"/>
     <use xlink:href="#DejaVuSans-65" x="521.142578"/>
     <use xlink:href="#DejaVuSans-73" x="582.666016"/>
    </g>
   </g>
   <g id="text_18">
    <!-- v2.6, hv-hash=ff0e71e8cd978373 -->
    <g style="fill: #808080" transform="translate(123.707887 293.943992) scale(0.1 -0.1)">
     <defs>
      <path id="DejaVuSans-68" d="M 3513 2113 
L 3513 0 
L 2938 0 
L 2938 2094 
Q 2938 2591 2744 2837 
Q 2550 3084 2163 3084 
Q 1697 3084 1428 2787 
Q 1159 2491 1159 1978 
L 1159 0 
L 581 0 
L 581 4863 
L 1159 4863 
L 1159 2956 
Q 1366 3272 1645 3428 
Q 1925 3584 2291 3584 
Q 2894 3584 3203 3211 
Q 3513 2838 3513 2113 
z
" transform="scale(0.015625)"/>
      <path id="DejaVuSans-3d" d="M 678 2906 
L 4684 2906 
L 4684 2381 
L 678 2381 
L 678 2906 
z
M 678 1631 
L 4684 1631 
L 4684 1100 
L 678 1100 
L 678 1631 
z
" transform="scale(0.015625)"/>
      <path id="DejaVuSans-37" d="M 525 4666 
L 3525 4666 
L 3525 4397 
L 1831 0 
L 1172 0 
L 2766 4134 
L 525 4134 
L 525 4666 
z
" transform="scale(0.015625)"/>
      <path id="DejaVuSans-39" d="M 703 97 
L 703 672 
Q 941 559 1184 500 
Q 1428 441 1663 441 
Q 2288 441 2617 861 
Q 2947 1281 2994 2138 
Q 2813 1869 2534 1725 
Q 2256 1581 1919 1581 
Q 1219 1581 811 2004 
Q 403 2428 403 3163 
Q 403 3881 828 4315 
Q 1253 4750 1959 4750 
Q 2769 4750 3195 4129 
Q 3622 3509 3622 2328 
Q 3622 1225 3098 567 
Q 2575 -91 1691 -91 
Q 1453 -91 1209 -44 
Q 966 3 703 97 
z
M 1959 2075 
Q 2384 2075 2632 2365 
Q 2881 2656 2881 3163 
Q 2881 3666 2632 3958 
Q 2384 4250 1959 4250 
Q 1534 4250 1286 3958 
Q 1038 3666 1038 3163 
Q 1038 2656 1286 2365 
Q 1534 2075 1959 2075 
z
" transform="scale(0.015625)"/>
     </defs>
     <use xlink:href="#DejaVuSans-76"/>
     <use xlink:href="#DejaVuSans-32" x="59.179688"/>
     <use xlink:href="#DejaVuSans-2e" x="122.802734"/>
     <use xlink:href="#DejaVuSans-36" x="154.589844"/>
     <use xlink:href="#DejaVuSans-2c" x="218.212891"/>
     <use xlink:href="#DejaVuSans-20" x="250"/>
     <use xlink:href="#DejaVuSans-68" x="281.787109"/>
     <use xlink:href="#DejaVuSans-76" x="345.166016"/>
     <use xlink:href="#DejaVuSans-2d" x="401.720703"/>
     <use xlink:href="#DejaVuSans-68" x="437.804688"/>
     <use xlink:href="#DejaVuSans-61" x="501.183594"/>
     <use xlink:href="#DejaVuSans-73" x="562.462891"/>
     <use xlink:href="#DejaVuSans-68" x="614.5625"/>
     <use xlink:href="#DejaVuSans-3d" x="677.941406"/>
     <use xlink:href="#DejaVuSans-66" x="761.730469"/>
     <use xlink:href="#DejaVuSans-66" x="796.935547"/>
     <use xlink:href="#DejaVuSans-30" x="832.140625"/>
     <use xlink:href="#DejaVuSans-65" x="895.763672"/>
     <use xlink:href="#DejaVuSans-37" x="957.287109"/>
     <use xlink:href="#DejaVuSans-31" x="1020.910156"/>
     <use xlink:href="#DejaVuSans-65" x="1084.533203"/>
     <use xlink:href="#DejaVuSans-38" x="1146.056641"/>
     <use xlink:href="#DejaVuSans-63" x="1209.679688"/>
     <use xlink:href="#DejaVuSans-64" x="1264.660156"/>
     <use xlink:href="#DejaVuSans-39" x="1328.136719"/>
     <use xlink:href="#DejaVuSans-37" x="1391.759766"/>
     <use xlink:href="#DejaVuSans-38" x="1455.382812"/>
     <use xlink:href="#DejaVuSans-33" x="1519.005859"/>
     <use xlink:href="#DejaVuSans-37" x="1582.628906"/>
     <use xlink:href="#DejaVuSans-33" x="1646.251953"/>
    </g>
   </g>
  </g>
 </g>
 <defs>
  <clipPath id="p4d6ac19928">
   <rect x="57.6" y="6.912" width="303.2064" height="292.032"/>
  </clipPath>
 </defs>
</svg>
