<?xml version="1.0" encoding="utf-8" standalone="no"?>
<!DOCTYPE svg PUBLIC "-//W3C//DTD SVG 1.1//EN"
  "http://www.w3.org/Graphics/SVG/1.1/DTD/svg11.dtd">
<svg xmlns:xlink="http://www.w3.org/1999/xlink" width="460.8pt" height="345.6pt" viewBox="0 0 460.8 345.6" xmlns="http://www.w3.org/2000/svg" version="1.1">
 <metadata>
  <rdf:RDF xmlns:dc="http://purl.org/dc/elements/1.1/" xmlns:cc="http://creativecommons.org/ns#" xmlns:rdf="http://www.w3.org/1999/02/22-rdf-syntax-ns#">
   <cc:Work>
    <dc:type rdf:resource="http://purl.org/dc/dcmitype/StillImage"/>
    <dc:date>2023-02-16T10:14:55.611155</dc:date>
    <dc:format>image/svg+xml</dc:format>
    <dc:creator>
     <cc:Agent>
      <dc:title>Matplotlib v3.6.3, https://matplotlib.org/</dc:title>
     </cc:Agent>
    </dc:creator>
   </cc:Work>
  </rdf:RDF>
 </metadata>
 <defs>
  <style type="text/css">*{stroke-linejoin: round; stroke-linecap: butt}</style>
 </defs>
 <g id="figure_1">
  <g id="patch_1">
   <path d="M 0 345.6 
L 460.8 345.6 
L 460.8 0 
L 0 0 
z
" style="fill: #ffffff"/>
  </g>
  <g id="axes_1">
   <g id="patch_2">
    <path d="M 57.6 298.944 
L 360.8064 298.944 
L 360.8064 27.648 
L 57.6 27.648 
z
" style="fill: #ffffff"/>
   </g>
   <g id="matplotlib.axis_1">
    <g id="xtick_1">
     <g id="line2d_1">
      <path d="M 57.6 298.944 
L 57.6 27.648 
" clip-path="url(#pdf3783e893)" style="fill: none; stroke: #b0b0b0; stroke-width: 0.8; stroke-linecap: square"/>
     </g>
     <g id="line2d_2">
      <defs>
       <path id="mbbb1de0feb" d="M 0 0 
L 0 3.5 
" style="stroke: #000000; stroke-width: 0.8"/>
      </defs>
      <g>
       <use xlink:href="#mbbb1de0feb" x="57.6" y="298.944" style="stroke: #000000; stroke-width: 0.8"/>
      </g>
     </g>
     <g id="text_1">
      <!-- 0 -->
      <g transform="translate(52.191875 318.861344) scale(0.17 -0.17)">
       <defs>
        <path id="DejaVuSans-30" d="M 2034 4250 
Q 1547 4250 1301 3770 
Q 1056 3291 1056 2328 
Q 1056 1369 1301 889 
Q 1547 409 2034 409 
Q 2525 409 2770 889 
Q 3016 1369 3016 2328 
Q 3016 3291 2770 3770 
Q 2525 4250 2034 4250 
z
M 2034 4750 
Q 2819 4750 3233 4129 
Q 3647 3509 3647 2328 
Q 3647 1150 3233 529 
Q 2819 -91 2034 -91 
Q 1250 -91 836 529 
Q 422 1150 422 2328 
Q 422 3509 836 4129 
Q 1250 4750 2034 4750 
z
" transform="scale(0.015625)"/>
       </defs>
       <use xlink:href="#DejaVuSans-30"/>
      </g>
     </g>
    </g>
    <g id="xtick_2">
     <g id="line2d_3">
      <path d="M 144.2304 298.944 
L 144.2304 27.648 
" clip-path="url(#pdf3783e893)" style="fill: none; stroke: #b0b0b0; stroke-width: 0.8; stroke-linecap: square"/>
     </g>
     <g id="line2d_4">
      <g>
       <use xlink:href="#mbbb1de0feb" x="144.2304" y="298.944" style="stroke: #000000; stroke-width: 0.8"/>
      </g>
     </g>
     <g id="text_2">
      <!-- 2 -->
      <g transform="translate(138.822275 318.861344) scale(0.17 -0.17)">
       <defs>
        <path id="DejaVuSans-32" d="M 1228 531 
L 3431 531 
L 3431 0 
L 469 0 
L 469 531 
Q 828 903 1448 1529 
Q 2069 2156 2228 2338 
Q 2531 2678 2651 2914 
Q 2772 3150 2772 3378 
Q 2772 3750 2511 3984 
Q 2250 4219 1831 4219 
Q 1534 4219 1204 4116 
Q 875 4013 500 3803 
L 500 4441 
Q 881 4594 1212 4672 
Q 1544 4750 1819 4750 
Q 2544 4750 2975 4387 
Q 3406 4025 3406 3419 
Q 3406 3131 3298 2873 
Q 3191 2616 2906 2266 
Q 2828 2175 2409 1742 
Q 1991 1309 1228 531 
z
" transform="scale(0.015625)"/>
       </defs>
       <use xlink:href="#DejaVuSans-32"/>
      </g>
     </g>
    </g>
    <g id="xtick_3">
     <g id="line2d_5">
      <path d="M 230.8608 298.944 
L 230.8608 27.648 
" clip-path="url(#pdf3783e893)" style="fill: none; stroke: #b0b0b0; stroke-width: 0.8; stroke-linecap: square"/>
     </g>
     <g id="line2d_6">
      <g>
       <use xlink:href="#mbbb1de0feb" x="230.8608" y="298.944" style="stroke: #000000; stroke-width: 0.8"/>
      </g>
     </g>
     <g id="text_3">
      <!-- 4 -->
      <g transform="translate(225.452675 318.861344) scale(0.17 -0.17)">
       <defs>
        <path id="DejaVuSans-34" d="M 2419 4116 
L 825 1625 
L 2419 1625 
L 2419 4116 
z
M 2253 4666 
L 3047 4666 
L 3047 1625 
L 3713 1625 
L 3713 1100 
L 3047 1100 
L 3047 0 
L 2419 0 
L 2419 1100 
L 313 1100 
L 313 1709 
L 2253 4666 
z
" transform="scale(0.015625)"/>
       </defs>
       <use xlink:href="#DejaVuSans-34"/>
      </g>
     </g>
    </g>
    <g id="xtick_4">
     <g id="line2d_7">
      <path d="M 317.4912 298.944 
L 317.4912 27.648 
" clip-path="url(#pdf3783e893)" style="fill: none; stroke: #b0b0b0; stroke-width: 0.8; stroke-linecap: square"/>
     </g>
     <g id="line2d_8">
      <g>
       <use xlink:href="#mbbb1de0feb" x="317.4912" y="298.944" style="stroke: #000000; stroke-width: 0.8"/>
      </g>
     </g>
     <g id="text_4">
      <!-- 6 -->
      <g transform="translate(312.083075 318.861344) scale(0.17 -0.17)">
       <defs>
        <path id="DejaVuSans-36" d="M 2113 2584 
Q 1688 2584 1439 2293 
Q 1191 2003 1191 1497 
Q 1191 994 1439 701 
Q 1688 409 2113 409 
Q 2538 409 2786 701 
Q 3034 994 3034 1497 
Q 3034 2003 2786 2293 
Q 2538 2584 2113 2584 
z
M 3366 4563 
L 3366 3988 
Q 3128 4100 2886 4159 
Q 2644 4219 2406 4219 
Q 1781 4219 1451 3797 
Q 1122 3375 1075 2522 
Q 1259 2794 1537 2939 
Q 1816 3084 2150 3084 
Q 2853 3084 3261 2657 
Q 3669 2231 3669 1497 
Q 3669 778 3244 343 
Q 2819 -91 2113 -91 
Q 1303 -91 875 529 
Q 447 1150 447 2328 
Q 447 3434 972 4092 
Q 1497 4750 2381 4750 
Q 2619 4750 2861 4703 
Q 3103 4656 3366 4563 
z
" transform="scale(0.015625)"/>
       </defs>
       <use xlink:href="#DejaVuSans-36"/>
      </g>
     </g>
    </g>
    <g id="xtick_5">
     <g id="line2d_9">
      <path d="M 100.9152 298.944 
L 100.9152 27.648 
" clip-path="url(#pdf3783e893)" style="fill: none; stroke: #b0b0b0; stroke-width: 0.8; stroke-linecap: square"/>
     </g>
     <g id="line2d_10">
      <defs>
       <path id="m4c8a535b21" d="M 0 0 
L 0 2 
" style="stroke: #000000; stroke-width: 0.6"/>
      </defs>
      <g>
       <use xlink:href="#m4c8a535b21" x="100.9152" y="298.944" style="stroke: #000000; stroke-width: 0.6"/>
      </g>
     </g>
    </g>
    <g id="xtick_6">
     <g id="line2d_11">
      <path d="M 187.5456 298.944 
L 187.5456 27.648 
" clip-path="url(#pdf3783e893)" style="fill: none; stroke: #b0b0b0; stroke-width: 0.8; stroke-linecap: square"/>
     </g>
     <g id="line2d_12">
      <g>
       <use xlink:href="#m4c8a535b21" x="187.5456" y="298.944" style="stroke: #000000; stroke-width: 0.6"/>
      </g>
     </g>
    </g>
    <g id="xtick_7">
     <g id="line2d_13">
      <path d="M 274.176 298.944 
L 274.176 27.648 
" clip-path="url(#pdf3783e893)" style="fill: none; stroke: #b0b0b0; stroke-width: 0.8; stroke-linecap: square"/>
     </g>
     <g id="line2d_14">
      <g>
       <use xlink:href="#m4c8a535b21" x="274.176" y="298.944" style="stroke: #000000; stroke-width: 0.6"/>
      </g>
     </g>
    </g>
    <g id="xtick_8">
     <g id="line2d_15">
      <path d="M 360.8064 298.944 
L 360.8064 27.648 
" clip-path="url(#pdf3783e893)" style="fill: none; stroke: #b0b0b0; stroke-width: 0.8; stroke-linecap: square"/>
     </g>
     <g id="line2d_16">
      <g>
       <use xlink:href="#m4c8a535b21" x="360.8064" y="298.944" style="stroke: #000000; stroke-width: 0.6"/>
      </g>
     </g>
    </g>
    <g id="text_5">
     <!-- log10(# f-evals / dimension) -->
     <g transform="translate(88.823278 339.314156) scale(0.17 -0.17)">
      <defs>
       <path id="DejaVuSans-6c" d="M 603 4863 
L 1178 4863 
L 1178 0 
L 603 0 
L 603 4863 
z
" transform="scale(0.015625)"/>
       <path id="DejaVuSans-6f" d="M 1959 3097 
Q 1497 3097 1228 2736 
Q 959 2375 959 1747 
Q 959 1119 1226 758 
Q 1494 397 1959 397 
Q 2419 397 2687 759 
Q 2956 1122 2956 1747 
Q 2956 2369 2687 2733 
Q 2419 3097 1959 3097 
z
M 1959 3584 
Q 2709 3584 3137 3096 
Q 3566 2609 3566 1747 
Q 3566 888 3137 398 
Q 2709 -91 1959 -91 
Q 1206 -91 779 398 
Q 353 888 353 1747 
Q 353 2609 779 3096 
Q 1206 3584 1959 3584 
z
" transform="scale(0.015625)"/>
       <path id="DejaVuSans-67" d="M 2906 1791 
Q 2906 2416 2648 2759 
Q 2391 3103 1925 3103 
Q 1463 3103 1205 2759 
Q 947 2416 947 1791 
Q 947 1169 1205 825 
Q 1463 481 1925 481 
Q 2391 481 2648 825 
Q 2906 1169 2906 1791 
z
M 3481 434 
Q 3481 -459 3084 -895 
Q 2688 -1331 1869 -1331 
Q 1566 -1331 1297 -1286 
Q 1028 -1241 775 -1147 
L 775 -588 
Q 1028 -725 1275 -790 
Q 1522 -856 1778 -856 
Q 2344 -856 2625 -561 
Q 2906 -266 2906 331 
L 2906 616 
Q 2728 306 2450 153 
Q 2172 0 1784 0 
Q 1141 0 747 490 
Q 353 981 353 1791 
Q 353 2603 747 3093 
Q 1141 3584 1784 3584 
Q 2172 3584 2450 3431 
Q 2728 3278 2906 2969 
L 2906 3500 
L 3481 3500 
L 3481 434 
z
" transform="scale(0.015625)"/>
       <path id="DejaVuSans-31" d="M 794 531 
L 1825 531 
L 1825 4091 
L 703 3866 
L 703 4441 
L 1819 4666 
L 2450 4666 
L 2450 531 
L 3481 531 
L 3481 0 
L 794 0 
L 794 531 
z
" transform="scale(0.015625)"/>
       <path id="DejaVuSans-28" d="M 1984 4856 
Q 1566 4138 1362 3434 
Q 1159 2731 1159 2009 
Q 1159 1288 1364 580 
Q 1569 -128 1984 -844 
L 1484 -844 
Q 1016 -109 783 600 
Q 550 1309 550 2009 
Q 550 2706 781 3412 
Q 1013 4119 1484 4856 
L 1984 4856 
z
" transform="scale(0.015625)"/>
       <path id="DejaVuSans-23" d="M 3272 2816 
L 2363 2816 
L 2100 1772 
L 3016 1772 
L 3272 2816 
z
M 2803 4594 
L 2478 3297 
L 3391 3297 
L 3719 4594 
L 4219 4594 
L 3897 3297 
L 4872 3297 
L 4872 2816 
L 3775 2816 
L 3519 1772 
L 4513 1772 
L 4513 1294 
L 3397 1294 
L 3072 0 
L 2572 0 
L 2894 1294 
L 1978 1294 
L 1656 0 
L 1153 0 
L 1478 1294 
L 494 1294 
L 494 1772 
L 1594 1772 
L 1856 2816 
L 850 2816 
L 850 3297 
L 1978 3297 
L 2297 4594 
L 2803 4594 
z
" transform="scale(0.015625)"/>
       <path id="DejaVuSans-20" transform="scale(0.015625)"/>
       <path id="DejaVuSans-66" d="M 2375 4863 
L 2375 4384 
L 1825 4384 
Q 1516 4384 1395 4259 
Q 1275 4134 1275 3809 
L 1275 3500 
L 2222 3500 
L 2222 3053 
L 1275 3053 
L 1275 0 
L 697 0 
L 697 3053 
L 147 3053 
L 147 3500 
L 697 3500 
L 697 3744 
Q 697 4328 969 4595 
Q 1241 4863 1831 4863 
L 2375 4863 
z
" transform="scale(0.015625)"/>
       <path id="DejaVuSans-2d" d="M 313 2009 
L 1997 2009 
L 1997 1497 
L 313 1497 
L 313 2009 
z
" transform="scale(0.015625)"/>
       <path id="DejaVuSans-65" d="M 3597 1894 
L 3597 1613 
L 953 1613 
Q 991 1019 1311 708 
Q 1631 397 2203 397 
Q 2534 397 2845 478 
Q 3156 559 3463 722 
L 3463 178 
Q 3153 47 2828 -22 
Q 2503 -91 2169 -91 
Q 1331 -91 842 396 
Q 353 884 353 1716 
Q 353 2575 817 3079 
Q 1281 3584 2069 3584 
Q 2775 3584 3186 3129 
Q 3597 2675 3597 1894 
z
M 3022 2063 
Q 3016 2534 2758 2815 
Q 2500 3097 2075 3097 
Q 1594 3097 1305 2825 
Q 1016 2553 972 2059 
L 3022 2063 
z
" transform="scale(0.015625)"/>
       <path id="DejaVuSans-76" d="M 191 3500 
L 800 3500 
L 1894 563 
L 2988 3500 
L 3597 3500 
L 2284 0 
L 1503 0 
L 191 3500 
z
" transform="scale(0.015625)"/>
       <path id="DejaVuSans-61" d="M 2194 1759 
Q 1497 1759 1228 1600 
Q 959 1441 959 1056 
Q 959 750 1161 570 
Q 1363 391 1709 391 
Q 2188 391 2477 730 
Q 2766 1069 2766 1631 
L 2766 1759 
L 2194 1759 
z
M 3341 1997 
L 3341 0 
L 2766 0 
L 2766 531 
Q 2569 213 2275 61 
Q 1981 -91 1556 -91 
Q 1019 -91 701 211 
Q 384 513 384 1019 
Q 384 1609 779 1909 
Q 1175 2209 1959 2209 
L 2766 2209 
L 2766 2266 
Q 2766 2663 2505 2880 
Q 2244 3097 1772 3097 
Q 1472 3097 1187 3025 
Q 903 2953 641 2809 
L 641 3341 
Q 956 3463 1253 3523 
Q 1550 3584 1831 3584 
Q 2591 3584 2966 3190 
Q 3341 2797 3341 1997 
z
" transform="scale(0.015625)"/>
       <path id="DejaVuSans-73" d="M 2834 3397 
L 2834 2853 
Q 2591 2978 2328 3040 
Q 2066 3103 1784 3103 
Q 1356 3103 1142 2972 
Q 928 2841 928 2578 
Q 928 2378 1081 2264 
Q 1234 2150 1697 2047 
L 1894 2003 
Q 2506 1872 2764 1633 
Q 3022 1394 3022 966 
Q 3022 478 2636 193 
Q 2250 -91 1575 -91 
Q 1294 -91 989 -36 
Q 684 19 347 128 
L 347 722 
Q 666 556 975 473 
Q 1284 391 1588 391 
Q 1994 391 2212 530 
Q 2431 669 2431 922 
Q 2431 1156 2273 1281 
Q 2116 1406 1581 1522 
L 1381 1569 
Q 847 1681 609 1914 
Q 372 2147 372 2553 
Q 372 3047 722 3315 
Q 1072 3584 1716 3584 
Q 2034 3584 2315 3537 
Q 2597 3491 2834 3397 
z
" transform="scale(0.015625)"/>
       <path id="DejaVuSans-2f" d="M 1625 4666 
L 2156 4666 
L 531 -594 
L 0 -594 
L 1625 4666 
z
" transform="scale(0.015625)"/>
       <path id="DejaVuSans-64" d="M 2906 2969 
L 2906 4863 
L 3481 4863 
L 3481 0 
L 2906 0 
L 2906 525 
Q 2725 213 2448 61 
Q 2172 -91 1784 -91 
Q 1150 -91 751 415 
Q 353 922 353 1747 
Q 353 2572 751 3078 
Q 1150 3584 1784 3584 
Q 2172 3584 2448 3432 
Q 2725 3281 2906 2969 
z
M 947 1747 
Q 947 1113 1208 752 
Q 1469 391 1925 391 
Q 2381 391 2643 752 
Q 2906 1113 2906 1747 
Q 2906 2381 2643 2742 
Q 2381 3103 1925 3103 
Q 1469 3103 1208 2742 
Q 947 2381 947 1747 
z
" transform="scale(0.015625)"/>
       <path id="DejaVuSans-69" d="M 603 3500 
L 1178 3500 
L 1178 0 
L 603 0 
L 603 3500 
z
M 603 4863 
L 1178 4863 
L 1178 4134 
L 603 4134 
L 603 4863 
z
" transform="scale(0.015625)"/>
       <path id="DejaVuSans-6d" d="M 3328 2828 
Q 3544 3216 3844 3400 
Q 4144 3584 4550 3584 
Q 5097 3584 5394 3201 
Q 5691 2819 5691 2113 
L 5691 0 
L 5113 0 
L 5113 2094 
Q 5113 2597 4934 2840 
Q 4756 3084 4391 3084 
Q 3944 3084 3684 2787 
Q 3425 2491 3425 1978 
L 3425 0 
L 2847 0 
L 2847 2094 
Q 2847 2600 2669 2842 
Q 2491 3084 2119 3084 
Q 1678 3084 1418 2786 
Q 1159 2488 1159 1978 
L 1159 0 
L 581 0 
L 581 3500 
L 1159 3500 
L 1159 2956 
Q 1356 3278 1631 3431 
Q 1906 3584 2284 3584 
Q 2666 3584 2933 3390 
Q 3200 3197 3328 2828 
z
" transform="scale(0.015625)"/>
       <path id="DejaVuSans-6e" d="M 3513 2113 
L 3513 0 
L 2938 0 
L 2938 2094 
Q 2938 2591 2744 2837 
Q 2550 3084 2163 3084 
Q 1697 3084 1428 2787 
Q 1159 2491 1159 1978 
L 1159 0 
L 581 0 
L 581 3500 
L 1159 3500 
L 1159 2956 
Q 1366 3272 1645 3428 
Q 1925 3584 2291 3584 
Q 2894 3584 3203 3211 
Q 3513 2838 3513 2113 
z
" transform="scale(0.015625)"/>
       <path id="DejaVuSans-29" d="M 513 4856 
L 1013 4856 
Q 1481 4119 1714 3412 
Q 1947 2706 1947 2009 
Q 1947 1309 1714 600 
Q 1481 -109 1013 -844 
L 513 -844 
Q 928 -128 1133 580 
Q 1338 1288 1338 2009 
Q 1338 2731 1133 3434 
Q 928 4138 513 4856 
z
" transform="scale(0.015625)"/>
      </defs>
      <use xlink:href="#DejaVuSans-6c"/>
      <use xlink:href="#DejaVuSans-6f" x="27.783203"/>
      <use xlink:href="#DejaVuSans-67" x="88.964844"/>
      <use xlink:href="#DejaVuSans-31" x="152.441406"/>
      <use xlink:href="#DejaVuSans-30" x="216.064453"/>
      <use xlink:href="#DejaVuSans-28" x="279.6875"/>
      <use xlink:href="#DejaVuSans-23" x="318.701172"/>
      <use xlink:href="#DejaVuSans-20" x="402.490234"/>
      <use xlink:href="#DejaVuSans-66" x="434.277344"/>
      <use xlink:href="#DejaVuSans-2d" x="463.982422"/>
      <use xlink:href="#DejaVuSans-65" x="500.066406"/>
      <use xlink:href="#DejaVuSans-76" x="561.589844"/>
      <use xlink:href="#DejaVuSans-61" x="620.769531"/>
      <use xlink:href="#DejaVuSans-6c" x="682.048828"/>
      <use xlink:href="#DejaVuSans-73" x="709.832031"/>
      <use xlink:href="#DejaVuSans-20" x="761.931641"/>
      <use xlink:href="#DejaVuSans-2f" x="793.71875"/>
      <use xlink:href="#DejaVuSans-20" x="827.410156"/>
      <use xlink:href="#DejaVuSans-64" x="859.197266"/>
      <use xlink:href="#DejaVuSans-69" x="922.673828"/>
      <use xlink:href="#DejaVuSans-6d" x="950.457031"/>
      <use xlink:href="#DejaVuSans-65" x="1047.869141"/>
      <use xlink:href="#DejaVuSans-6e" x="1109.392578"/>
      <use xlink:href="#DejaVuSans-73" x="1172.771484"/>
      <use xlink:href="#DejaVuSans-69" x="1224.871094"/>
      <use xlink:href="#DejaVuSans-6f" x="1252.654297"/>
      <use xlink:href="#DejaVuSans-6e" x="1313.835938"/>
      <use xlink:href="#DejaVuSans-29" x="1377.214844"/>
     </g>
    </g>
   </g>
   <g id="matplotlib.axis_2">
    <g id="ytick_1">
     <g id="line2d_17">
      <path d="M 57.6 298.944 
L 360.8064 298.944 
" clip-path="url(#pdf3783e893)" style="fill: none; stroke: #b0b0b0; stroke-width: 0.8; stroke-linecap: square"/>
     </g>
     <g id="line2d_18">
      <defs>
       <path id="mf2839c1d0d" d="M 0 0 
L -3.5 0 
" style="stroke: #000000; stroke-width: 0.8"/>
      </defs>
      <g>
       <use xlink:href="#mf2839c1d0d" x="57.6" y="298.944" style="stroke: #000000; stroke-width: 0.8"/>
      </g>
     </g>
     <g id="text_6">
      <!-- 0.0 -->
      <g transform="translate(25.155 305.02275) scale(0.16 -0.16)">
       <defs>
        <path id="DejaVuSans-2e" d="M 684 794 
L 1344 794 
L 1344 0 
L 684 0 
L 684 794 
z
" transform="scale(0.015625)"/>
       </defs>
       <use xlink:href="#DejaVuSans-30"/>
       <use xlink:href="#DejaVuSans-2e" x="63.623047"/>
       <use xlink:href="#DejaVuSans-30" x="95.410156"/>
      </g>
     </g>
    </g>
    <g id="ytick_2">
     <g id="line2d_19">
      <path d="M 57.6 244.6848 
L 360.8064 244.6848 
" clip-path="url(#pdf3783e893)" style="fill: none; stroke: #b0b0b0; stroke-width: 0.8; stroke-linecap: square"/>
     </g>
     <g id="line2d_20">
      <g>
       <use xlink:href="#mf2839c1d0d" x="57.6" y="244.6848" style="stroke: #000000; stroke-width: 0.8"/>
      </g>
     </g>
     <g id="text_7">
      <!-- 0.2 -->
      <g transform="translate(25.155 250.76355) scale(0.16 -0.16)">
       <use xlink:href="#DejaVuSans-30"/>
       <use xlink:href="#DejaVuSans-2e" x="63.623047"/>
       <use xlink:href="#DejaVuSans-32" x="95.410156"/>
      </g>
     </g>
    </g>
    <g id="ytick_3">
     <g id="line2d_21">
      <path d="M 57.6 190.4256 
L 360.8064 190.4256 
" clip-path="url(#pdf3783e893)" style="fill: none; stroke: #b0b0b0; stroke-width: 0.8; stroke-linecap: square"/>
     </g>
     <g id="line2d_22">
      <g>
       <use xlink:href="#mf2839c1d0d" x="57.6" y="190.4256" style="stroke: #000000; stroke-width: 0.8"/>
      </g>
     </g>
     <g id="text_8">
      <!-- 0.4 -->
      <g transform="translate(25.155 196.50435) scale(0.16 -0.16)">
       <use xlink:href="#DejaVuSans-30"/>
       <use xlink:href="#DejaVuSans-2e" x="63.623047"/>
       <use xlink:href="#DejaVuSans-34" x="95.410156"/>
      </g>
     </g>
    </g>
    <g id="ytick_4">
     <g id="line2d_23">
      <path d="M 57.6 136.1664 
L 360.8064 136.1664 
" clip-path="url(#pdf3783e893)" style="fill: none; stroke: #b0b0b0; stroke-width: 0.8; stroke-linecap: square"/>
     </g>
     <g id="line2d_24">
      <g>
       <use xlink:href="#mf2839c1d0d" x="57.6" y="136.1664" style="stroke: #000000; stroke-width: 0.8"/>
      </g>
     </g>
     <g id="text_9">
      <!-- 0.6 -->
      <g transform="translate(25.155 142.24515) scale(0.16 -0.16)">
       <use xlink:href="#DejaVuSans-30"/>
       <use xlink:href="#DejaVuSans-2e" x="63.623047"/>
       <use xlink:href="#DejaVuSans-36" x="95.410156"/>
      </g>
     </g>
    </g>
    <g id="ytick_5">
     <g id="line2d_25">
      <path d="M 57.6 81.9072 
L 360.8064 81.9072 
" clip-path="url(#pdf3783e893)" style="fill: none; stroke: #b0b0b0; stroke-width: 0.8; stroke-linecap: square"/>
     </g>
     <g id="line2d_26">
      <g>
       <use xlink:href="#mf2839c1d0d" x="57.6" y="81.9072" style="stroke: #000000; stroke-width: 0.8"/>
      </g>
     </g>
     <g id="text_10">
      <!-- 0.8 -->
      <g transform="translate(25.155 87.98595) scale(0.16 -0.16)">
       <defs>
        <path id="DejaVuSans-38" d="M 2034 2216 
Q 1584 2216 1326 1975 
Q 1069 1734 1069 1313 
Q 1069 891 1326 650 
Q 1584 409 2034 409 
Q 2484 409 2743 651 
Q 3003 894 3003 1313 
Q 3003 1734 2745 1975 
Q 2488 2216 2034 2216 
z
M 1403 2484 
Q 997 2584 770 2862 
Q 544 3141 544 3541 
Q 544 4100 942 4425 
Q 1341 4750 2034 4750 
Q 2731 4750 3128 4425 
Q 3525 4100 3525 3541 
Q 3525 3141 3298 2862 
Q 3072 2584 2669 2484 
Q 3125 2378 3379 2068 
Q 3634 1759 3634 1313 
Q 3634 634 3220 271 
Q 2806 -91 2034 -91 
Q 1263 -91 848 271 
Q 434 634 434 1313 
Q 434 1759 690 2068 
Q 947 2378 1403 2484 
z
M 1172 3481 
Q 1172 3119 1398 2916 
Q 1625 2713 2034 2713 
Q 2441 2713 2670 2916 
Q 2900 3119 2900 3481 
Q 2900 3844 2670 4047 
Q 2441 4250 2034 4250 
Q 1625 4250 1398 4047 
Q 1172 3844 1172 3481 
z
" transform="scale(0.015625)"/>
       </defs>
       <use xlink:href="#DejaVuSans-30"/>
       <use xlink:href="#DejaVuSans-2e" x="63.623047"/>
       <use xlink:href="#DejaVuSans-38" x="95.410156"/>
      </g>
     </g>
    </g>
    <g id="ytick_6">
     <g id="line2d_27">
      <path d="M 57.6 27.648 
L 360.8064 27.648 
" clip-path="url(#pdf3783e893)" style="fill: none; stroke: #b0b0b0; stroke-width: 0.8; stroke-linecap: square"/>
     </g>
     <g id="line2d_28">
      <g>
       <use xlink:href="#mf2839c1d0d" x="57.6" y="27.648" style="stroke: #000000; stroke-width: 0.8"/>
      </g>
     </g>
     <g id="text_11">
      <!-- 1.0 -->
      <g transform="translate(25.155 33.72675) scale(0.16 -0.16)">
       <use xlink:href="#DejaVuSans-31"/>
       <use xlink:href="#DejaVuSans-2e" x="63.623047"/>
       <use xlink:href="#DejaVuSans-30" x="95.410156"/>
      </g>
     </g>
    </g>
    <g id="text_12">
     <!-- Fraction of function,target pairs -->
     <g transform="translate(17.619531 297.681) rotate(-90) scale(0.17 -0.17)">
      <defs>
       <path id="DejaVuSans-46" d="M 628 4666 
L 3309 4666 
L 3309 4134 
L 1259 4134 
L 1259 2759 
L 3109 2759 
L 3109 2228 
L 1259 2228 
L 1259 0 
L 628 0 
L 628 4666 
z
" transform="scale(0.015625)"/>
       <path id="DejaVuSans-72" d="M 2631 2963 
Q 2534 3019 2420 3045 
Q 2306 3072 2169 3072 
Q 1681 3072 1420 2755 
Q 1159 2438 1159 1844 
L 1159 0 
L 581 0 
L 581 3500 
L 1159 3500 
L 1159 2956 
Q 1341 3275 1631 3429 
Q 1922 3584 2338 3584 
Q 2397 3584 2469 3576 
Q 2541 3569 2628 3553 
L 2631 2963 
z
" transform="scale(0.015625)"/>
       <path id="DejaVuSans-63" d="M 3122 3366 
L 3122 2828 
Q 2878 2963 2633 3030 
Q 2388 3097 2138 3097 
Q 1578 3097 1268 2742 
Q 959 2388 959 1747 
Q 959 1106 1268 751 
Q 1578 397 2138 397 
Q 2388 397 2633 464 
Q 2878 531 3122 666 
L 3122 134 
Q 2881 22 2623 -34 
Q 2366 -91 2075 -91 
Q 1284 -91 818 406 
Q 353 903 353 1747 
Q 353 2603 823 3093 
Q 1294 3584 2113 3584 
Q 2378 3584 2631 3529 
Q 2884 3475 3122 3366 
z
" transform="scale(0.015625)"/>
       <path id="DejaVuSans-74" d="M 1172 4494 
L 1172 3500 
L 2356 3500 
L 2356 3053 
L 1172 3053 
L 1172 1153 
Q 1172 725 1289 603 
Q 1406 481 1766 481 
L 2356 481 
L 2356 0 
L 1766 0 
Q 1100 0 847 248 
Q 594 497 594 1153 
L 594 3053 
L 172 3053 
L 172 3500 
L 594 3500 
L 594 4494 
L 1172 4494 
z
" transform="scale(0.015625)"/>
       <path id="DejaVuSans-75" d="M 544 1381 
L 544 3500 
L 1119 3500 
L 1119 1403 
Q 1119 906 1312 657 
Q 1506 409 1894 409 
Q 2359 409 2629 706 
Q 2900 1003 2900 1516 
L 2900 3500 
L 3475 3500 
L 3475 0 
L 2900 0 
L 2900 538 
Q 2691 219 2414 64 
Q 2138 -91 1772 -91 
Q 1169 -91 856 284 
Q 544 659 544 1381 
z
M 1991 3584 
L 1991 3584 
z
" transform="scale(0.015625)"/>
       <path id="DejaVuSans-2c" d="M 750 794 
L 1409 794 
L 1409 256 
L 897 -744 
L 494 -744 
L 750 256 
L 750 794 
z
" transform="scale(0.015625)"/>
       <path id="DejaVuSans-70" d="M 1159 525 
L 1159 -1331 
L 581 -1331 
L 581 3500 
L 1159 3500 
L 1159 2969 
Q 1341 3281 1617 3432 
Q 1894 3584 2278 3584 
Q 2916 3584 3314 3078 
Q 3713 2572 3713 1747 
Q 3713 922 3314 415 
Q 2916 -91 2278 -91 
Q 1894 -91 1617 61 
Q 1341 213 1159 525 
z
M 3116 1747 
Q 3116 2381 2855 2742 
Q 2594 3103 2138 3103 
Q 1681 3103 1420 2742 
Q 1159 2381 1159 1747 
Q 1159 1113 1420 752 
Q 1681 391 2138 391 
Q 2594 391 2855 752 
Q 3116 1113 3116 1747 
z
" transform="scale(0.015625)"/>
      </defs>
      <use xlink:href="#DejaVuSans-46"/>
      <use xlink:href="#DejaVuSans-72" x="50.269531"/>
      <use xlink:href="#DejaVuSans-61" x="91.382812"/>
      <use xlink:href="#DejaVuSans-63" x="152.662109"/>
      <use xlink:href="#DejaVuSans-74" x="207.642578"/>
      <use xlink:href="#DejaVuSans-69" x="246.851562"/>
      <use xlink:href="#DejaVuSans-6f" x="274.634766"/>
      <use xlink:href="#DejaVuSans-6e" x="335.816406"/>
      <use xlink:href="#DejaVuSans-20" x="399.195312"/>
      <use xlink:href="#DejaVuSans-6f" x="430.982422"/>
      <use xlink:href="#DejaVuSans-66" x="492.164062"/>
      <use xlink:href="#DejaVuSans-20" x="527.369141"/>
      <use xlink:href="#DejaVuSans-66" x="559.15625"/>
      <use xlink:href="#DejaVuSans-75" x="594.361328"/>
      <use xlink:href="#DejaVuSans-6e" x="657.740234"/>
      <use xlink:href="#DejaVuSans-63" x="721.119141"/>
      <use xlink:href="#DejaVuSans-74" x="776.099609"/>
      <use xlink:href="#DejaVuSans-69" x="815.308594"/>
      <use xlink:href="#DejaVuSans-6f" x="843.091797"/>
      <use xlink:href="#DejaVuSans-6e" x="904.273438"/>
      <use xlink:href="#DejaVuSans-2c" x="967.652344"/>
      <use xlink:href="#DejaVuSans-74" x="999.439453"/>
      <use xlink:href="#DejaVuSans-61" x="1038.648438"/>
      <use xlink:href="#DejaVuSans-72" x="1099.927734"/>
      <use xlink:href="#DejaVuSans-67" x="1139.291016"/>
      <use xlink:href="#DejaVuSans-65" x="1202.767578"/>
      <use xlink:href="#DejaVuSans-74" x="1264.291016"/>
      <use xlink:href="#DejaVuSans-20" x="1303.5"/>
      <use xlink:href="#DejaVuSans-70" x="1335.287109"/>
      <use xlink:href="#DejaVuSans-61" x="1398.763672"/>
      <use xlink:href="#DejaVuSans-69" x="1460.042969"/>
      <use xlink:href="#DejaVuSans-72" x="1487.826172"/>
      <use xlink:href="#DejaVuSans-73" x="1528.939453"/>
     </g>
    </g>
   </g>
   <g id="line2d_29">
    <defs>
     <path id="m4332b63516" d="M 0 1.5 
C 0.397805 1.5 0.77937 1.341951 1.06066 1.06066 
C 1.341951 0.77937 1.5 0.397805 1.5 0 
C 1.5 -0.397805 1.341951 -0.77937 1.06066 -1.06066 
C 0.77937 -1.341951 0.397805 -1.5 0 -1.5 
C -0.397805 -1.5 -0.77937 -1.341951 -1.06066 -1.06066 
C -1.341951 -0.77937 -1.5 -0.397805 -1.5 0 
C -1.5 0.397805 -1.341951 0.77937 -1.06066 1.06066 
C -0.77937 1.341951 -0.397805 1.5 0 1.5 
z
" style="stroke: #00bfbf"/>
    </defs>
    <g>
     <use xlink:href="#m4332b63516" x="187.451306" y="207.264662" style="fill: #00bfbf; stroke: #00bfbf"/>
     <use xlink:href="#m4332b63516" x="187.451306" y="207.264662" style="fill: #00bfbf; stroke: #00bfbf"/>
    </g>
   </g>
   <g id="line2d_30">
    <path d="M 44.560826 298.944 
L 44.560826 293.798731 
L 57.6 293.798731 
L 57.6 286.782455 
L 85.894031 286.782455 
L 85.894031 285.3792 
L 96.717523 285.3792 
L 96.717523 283.040441 
L 103.544339 283.040441 
L 103.544339 281.169434 
L 108.542628 281.169434 
L 108.542628 279.766179 
L 115.747307 279.766179 
L 115.747307 279.298428 
L 118.524569 279.298428 
L 118.524569 278.362924 
L 120.944062 278.362924 
L 120.944062 274.62091 
L 123.08753 274.62091 
L 123.08753 273.685407 
L 126.756923 273.685407 
L 126.756923 271.346648 
L 128.354013 271.346648 
L 128.354013 270.878897 
L 129.826058 270.878897 
L 129.826058 267.136883 
L 131.191226 267.136883 
L 131.191226 266.201379 
L 138.692823 266.201379 
L 138.692823 265.733628 
L 139.556456 265.733628 
L 139.556456 264.330372 
L 140.382174 264.330372 
L 140.382174 263.862621 
L 141.173167 263.862621 
L 141.173167 262.459366 
L 142.661862 262.459366 
L 142.661862 261.991614 
L 145.326529 261.991614 
L 145.326529 261.523862 
L 145.93763 261.523862 
L 145.93763 260.120607 
L 148.200973 260.120607 
L 148.200973 258.2496 
L 148.726679 258.2496 
L 148.726679 257.781848 
L 149.238092 257.781848 
L 149.238092 257.314097 
L 149.73597 257.314097 
L 149.73597 254.039834 
L 151.60532 254.039834 
L 151.60532 253.104331 
L 152.045009 253.104331 
L 152.045009 252.636579 
L 153.707679 252.636579 
L 153.707679 251.233324 
L 154.86483 251.233324 
L 154.86483 250.297821 
L 156.304668 250.297821 
L 156.304668 249.362317 
L 156.648044 249.362317 
L 156.648044 248.426814 
L 157.642093 248.426814 
L 157.642093 247.49131 
L 157.962102 247.49131 
L 157.962102 247.023559 
L 161.163832 247.023559 
L 161.163832 246.088055 
L 161.42959 246.088055 
L 161.42959 245.152552 
L 161.691646 245.152552 
L 161.691646 244.6848 
L 163.430425 244.6848 
L 163.430425 243.749297 
L 164.356312 243.749297 
L 164.356312 242.813793 
L 164.802709 242.813793 
L 164.802709 242.346041 
L 165.021997 242.346041 
L 165.021997 241.410538 
L 165.45305 241.410538 
L 165.45305 239.071779 
L 166.489353 239.071779 
L 166.489353 237.200772 
L 167.279159 237.200772 
L 167.279159 236.733021 
L 168.037137 236.733021 
L 168.037137 236.265269 
L 168.404973 236.265269 
L 168.404973 235.797517 
L 169.119745 235.797517 
L 169.119745 234.862014 
L 169.467197 234.862014 
L 169.467197 234.394262 
L 171.271304 234.394262 
L 171.271304 233.458759 
L 171.427048 233.458759 
L 171.427048 232.523255 
L 171.581513 232.523255 
L 171.581513 232.055503 
L 172.62865 232.055503 
L 172.62865 231.12 
L 173.48202 231.12 
L 173.48202 230.652248 
L 173.758086 230.652248 
L 173.758086 229.716745 
L 173.894614 229.716745 
L 173.894614 229.248993 
L 174.298352 229.248993 
L 174.298352 228.781241 
L 174.823534 228.781241 
L 174.823534 227.845738 
L 174.95257 227.845738 
L 174.95257 226.910234 
L 175.584799 226.910234 
L 175.584799 225.974731 
L 175.954182 225.974731 
L 175.954182 225.506979 
L 176.196469 225.506979 
L 176.196469 224.103724 
L 177.363192 224.103724 
L 177.363192 223.635972 
L 178.67398 223.635972 
L 178.67398 222.700469 
L 178.987886 222.700469 
L 178.987886 222.232717 
L 179.499697 222.232717 
L 179.499697 221.297214 
L 179.800231 221.297214 
L 179.800231 220.829462 
L 180.768686 220.829462 
L 180.768686 219.893959 
L 181.234837 219.893959 
L 181.234837 218.958455 
L 181.599615 218.958455 
L 181.689715 216.619697 
L 182.653338 216.619697 
L 182.653338 215.684193 
L 182.823359 215.684193 
L 182.823359 215.216441 
L 183.569995 215.216441 
L 183.569995 214.280938 
L 183.892552 214.280938 
L 183.892552 212.409931 
L 184.130892 212.409931 
L 184.130892 211.942179 
L 185.353418 211.942179 
L 185.353418 211.474428 
L 185.647027 211.474428 
L 185.647027 209.603421 
L 186.57079 209.603421 
L 186.640005 208.200166 
L 186.777675 208.200166 
L 186.777675 207.732414 
L 187.451306 207.732414 
L 187.451306 207.264662 
L 360.8064 207.264662 
L 360.8064 207.264662 
" style="fill: none; stroke: #00bfbf; stroke-width: 1.5; stroke-linecap: square"/>
   </g>
   <g id="line2d_31">
    <defs>
     <path id="m6c168a8417" d="M -6 0 
L 6 0 
M 0 6 
L 0 -6 
" style="stroke: #00bfbf; stroke-width: 1.5"/>
    </defs>
    <g>
     <use xlink:href="#m6c168a8417" x="96.717523" y="285.3792" style="fill-opacity: 0; stroke: #00bfbf; stroke-width: 1.5"/>
     <use xlink:href="#m6c168a8417" x="142.661862" y="261.991614" style="fill-opacity: 0; stroke: #00bfbf; stroke-width: 1.5"/>
     <use xlink:href="#m6c168a8417" x="176.196469" y="225.506979" style="fill-opacity: 0; stroke: #00bfbf; stroke-width: 1.5"/>
     <use xlink:href="#m6c168a8417" x="187.451306" y="207.732414" style="fill-opacity: 0; stroke: #00bfbf; stroke-width: 1.5"/>
     <use xlink:href="#m6c168a8417" x="187.451306" y="207.264662" style="fill-opacity: 0; stroke: #00bfbf; stroke-width: 1.5"/>
     <use xlink:href="#m6c168a8417" x="360.8064" y="207.264662" style="fill-opacity: 0; stroke: #00bfbf; stroke-width: 1.5"/>
    </g>
   </g>
   <g id="line2d_32">
    <path style="fill: none; stroke: #00bfbf; stroke-width: 1.5; stroke-linecap: square"/>
    <g/>
   </g>
   <g id="line2d_33">
    <path d="M 187.507939 207.264662 
" clip-path="url(#pdf3783e893)" style="fill: none; stroke: #00bfbf; stroke-width: 1.5; stroke-linecap: square"/>
    <defs>
     <path id="mae010a8bd4" d="M -12 12 
L 12 -12 
M -12 -12 
L 12 12 
" style="stroke: #00bfbf"/>
    </defs>
    <g clip-path="url(#pdf3783e893)">
     <use xlink:href="#mae010a8bd4" x="187.507939" y="207.264662" style="fill: #00bfbf; stroke: #00bfbf"/>
    </g>
   </g>
   <g id="line2d_34">
    <defs>
     <path id="mb25654b7e6" d="M 0 1.5 
C 0.397805 1.5 0.77937 1.341951 1.06066 1.06066 
C 1.341951 0.77937 1.5 0.397805 1.5 0 
C 1.5 -0.397805 1.341951 -0.77937 1.06066 -1.06066 
C 0.77937 -1.341951 0.397805 -1.5 0 -1.5 
C -0.397805 -1.5 -0.77937 -1.341951 -1.06066 -1.06066 
C -1.341951 -0.77937 -1.5 -0.397805 -1.5 0 
C -1.5 0.397805 -1.341951 0.77937 -1.06066 1.06066 
C -0.77937 1.341951 -0.397805 1.5 0 1.5 
z
" style="stroke: #008000"/>
    </defs>
    <g>
     <use xlink:href="#mb25654b7e6" x="187.203908" y="205.861407" style="fill: #008000; stroke: #008000"/>
     <use xlink:href="#mb25654b7e6" x="187.203908" y="205.861407" style="fill: #008000; stroke: #008000"/>
    </g>
   </g>
   <g id="line2d_35">
    <path d="M 36.933397 298.944 
L 36.933397 292.395476 
L 49.972572 292.395476 
L 49.972572 285.3792 
L 80.248597 285.3792 
L 80.248597 280.233931 
L 91.305777 280.233931 
L 91.305777 277.895172 
L 103.269713 277.895172 
L 103.269713 276.959669 
L 107.244765 276.959669 
L 107.244765 275.088662 
L 110.524623 275.088662 
L 110.524623 273.217655 
L 117.899543 273.217655 
L 117.899543 272.749903 
L 119.830627 272.749903 
L 119.830627 270.878897 
L 121.581803 270.878897 
L 121.581803 270.411145 
L 123.183753 270.411145 
L 123.183753 269.943393 
L 126.028642 269.943393 
L 126.028642 269.00789 
L 127.304491 269.00789 
L 127.304491 267.604634 
L 129.622688 267.604634 
L 129.622688 264.330372 
L 130.682774 264.330372 
L 130.682774 263.394869 
L 131.686295 263.394869 
L 131.686295 262.927117 
L 132.638982 262.927117 
L 132.638982 259.185103 
L 133.545739 259.185103 
L 133.545739 256.846345 
L 136.790153 256.846345 
L 136.790153 254.975338 
L 137.520791 254.975338 
L 137.520791 254.507586 
L 138.224108 254.507586 
L 138.224108 254.039834 
L 138.902075 254.039834 
L 138.902075 252.636579 
L 139.556456 252.636579 
L 139.556456 252.168828 
L 140.800648 252.168828 
L 140.800648 250.297821 
L 142.525051 250.297821 
L 142.525051 248.894566 
L 144.10457 248.894566 
L 144.10457 248.426814 
L 145.561676 248.426814 
L 145.561676 247.959062 
L 146.023332 247.959062 
L 146.023332 247.49131 
L 147.764371 247.49131 
L 147.764371 247.023559 
L 148.57797 247.023559 
L 148.57797 246.555807 
L 149.73597 246.555807 
L 149.73597 245.620303 
L 151.857828 245.620303 
L 151.857828 244.6848 
L 152.515067 244.6848 
L 152.515067 244.217048 
L 152.835271 244.217048 
L 152.835271 242.813793 
L 153.150116 242.813793 
L 153.150116 241.87829 
L 154.064218 241.87829 
L 154.064218 240.942786 
L 155.217778 240.942786 
L 155.217778 240.475034 
L 156.304668 240.475034 
L 156.304668 240.007283 
L 157.580516 240.007283 
L 157.580516 239.071779 
L 157.825621 239.071779 
L 157.825621 238.604028 
L 158.306454 238.604028 
L 158.306454 237.668524 
L 158.542339 237.668524 
L 158.542339 237.200772 
L 158.775302 237.200772 
L 158.775302 236.733021 
L 160.9588 236.733021 
L 160.9588 236.265269 
L 161.163832 236.265269 
L 161.163832 235.329766 
L 161.96232 235.329766 
L 161.96232 234.862014 
L 162.156757 234.862014 
L 162.156757 234.394262 
L 163.282972 234.394262 
L 163.282972 233.458759 
L 163.643876 233.458759 
L 163.643876 232.523255 
L 163.821764 232.523255 
L 163.821764 231.587752 
L 165.187374 231.587752 
L 165.187374 231.12 
L 165.35131 231.12 
L 165.35131 230.184497 
L 166.306012 230.184497 
L 166.306012 229.248993 
L 166.765788 229.248993 
L 166.765788 228.781241 
L 167.214594 228.781241 
L 167.214594 227.845738 
L 167.939599 227.845738 
L 167.939599 227.377986 
L 168.081306 227.377986 
L 168.081306 226.910234 
L 169.573454 226.910234 
L 169.573454 225.974731 
L 169.703414 225.974731 
L 169.703414 225.039228 
L 170.340075 225.039228 
L 170.340075 223.168221 
L 171.669213 223.168221 
L 171.669213 222.700469 
L 172.243656 222.700469 
L 172.243656 221.297214 
L 172.690906 221.297214 
L 172.801076 220.36171 
L 173.972187 220.36171 
L 173.972187 219.426207 
L 175.36443 219.426207 
L 175.36443 218.958455 
L 175.837702 218.958455 
L 175.837702 218.022952 
L 176.390345 218.022952 
L 176.390345 217.087448 
L 176.838794 217.087448 
L 176.838794 216.151945 
L 177.957067 216.151945 
L 177.957067 215.216441 
L 179.247969 215.216441 
L 179.247969 214.280938 
L 179.786028 214.280938 
L 179.786028 213.813186 
L 179.936974 213.813186 
L 179.936974 212.877683 
L 180.309124 212.877683 
L 180.309124 211.942179 
L 181.102826 211.942179 
L 181.102826 211.474428 
L 181.452818 211.474428 
L 181.522042 210.071172 
L 181.65973 210.071172 
L 181.65973 209.603421 
L 183.047691 209.603421 
L 183.047691 208.667917 
L 183.550619 208.667917 
L 183.550619 207.732414 
L 184.576684 207.732414 
L 184.576684 207.264662 
L 184.81019 207.264662 
L 184.81019 206.79691 
L 186.153443 206.79691 
L 186.153443 206.329159 
L 187.203908 206.329159 
L 187.203908 205.861407 
L 360.8064 205.861407 
L 360.8064 205.861407 
" style="fill: none; stroke: #008000; stroke-width: 1.5; stroke-linecap: square"/>
   </g>
   <g id="line2d_36">
    <defs>
     <path id="m2eb3e49a60" d="M -0 6 
L 6 -6 
L -6 -6 
z
" style="stroke: #008000; stroke-width: 1.5; stroke-linejoin: miter"/>
    </defs>
    <g>
     <use xlink:href="#m2eb3e49a60" x="137.520791" y="254.975338" style="fill-opacity: 0; stroke: #008000; stroke-width: 1.5; stroke-linejoin: miter"/>
     <use xlink:href="#m2eb3e49a60" x="183.550619" y="207.732414" style="fill-opacity: 0; stroke: #008000; stroke-width: 1.5; stroke-linejoin: miter"/>
     <use xlink:href="#m2eb3e49a60" x="187.203908" y="205.861407" style="fill-opacity: 0; stroke: #008000; stroke-width: 1.5; stroke-linejoin: miter"/>
     <use xlink:href="#m2eb3e49a60" x="187.203908" y="205.861407" style="fill-opacity: 0; stroke: #008000; stroke-width: 1.5; stroke-linejoin: miter"/>
     <use xlink:href="#m2eb3e49a60" x="360.8064" y="205.861407" style="fill-opacity: 0; stroke: #008000; stroke-width: 1.5; stroke-linejoin: miter"/>
    </g>
   </g>
   <g id="line2d_37">
    <path style="fill: none; stroke: #008000; stroke-width: 1.5; stroke-linecap: square"/>
    <g/>
   </g>
   <g id="line2d_38">
    <path d="M 187.501655 205.861407 
" clip-path="url(#pdf3783e893)" style="fill: none; stroke: #008000; stroke-width: 1.5; stroke-linecap: square"/>
    <defs>
     <path id="m0429402694" d="M -12 12 
L 12 -12 
M -12 -12 
L 12 12 
" style="stroke: #008000"/>
    </defs>
    <g clip-path="url(#pdf3783e893)">
     <use xlink:href="#m0429402694" x="187.501655" y="205.861407" style="fill: #008000; stroke: #008000"/>
    </g>
   </g>
   <g id="line2d_39">
    <defs>
     <path id="m75a9173a7f" d="M 0 1.5 
C 0.397805 1.5 0.77937 1.341951 1.06066 1.06066 
C 1.341951 0.77937 1.5 0.397805 1.5 0 
C 1.5 -0.397805 1.341951 -0.77937 1.06066 -1.06066 
C 0.77937 -1.341951 0.397805 -1.5 0 -1.5 
C -0.397805 -1.5 -0.77937 -1.341951 -1.06066 -1.06066 
C -1.341951 -0.77937 -1.5 -0.397805 -1.5 0 
C -1.5 0.397805 -1.341951 0.77937 -1.06066 1.06066 
C -0.77937 1.341951 -0.397805 1.5 0 1.5 
z
" style="stroke: #0000ff"/>
    </defs>
    <g>
     <use xlink:href="#m75a9173a7f" x="184.843519" y="218.490703" style="fill: #0000ff; stroke: #0000ff"/>
     <use xlink:href="#m75a9173a7f" x="184.843519" y="218.490703" style="fill: #0000ff; stroke: #0000ff"/>
    </g>
   </g>
   <g id="line2d_40">
    <path d="M 27.323974 298.944 
L 27.323974 294.734234 
L 40.363149 294.734234 
L 40.363149 292.395476 
L 72.432107 292.395476 
L 72.432107 291.927724 
L 90.668036 291.927724 
L 90.668036 290.056717 
L 99.751228 290.056717 
L 99.751228 289.121214 
L 103.047088 289.121214 
L 103.047088 286.782455 
L 112.385837 286.782455 
L 112.385837 285.846952 
L 117.226706 285.846952 
L 117.226706 283.975945 
L 119.876453 283.975945 
L 119.876453 283.040441 
L 121.073351 283.040441 
L 121.073351 282.104938 
L 122.19863 282.104938 
L 122.19863 280.233931 
L 124.265389 280.233931 
L 124.265389 279.766179 
L 127.821575 279.766179 
L 127.821575 279.298428 
L 128.614685 279.298428 
L 128.614685 278.830676 
L 129.375706 278.830676 
L 129.375706 278.362924 
L 130.811181 278.362924 
L 130.811181 277.895172 
L 132.144842 277.895172 
L 132.144842 276.959669 
L 133.390178 276.959669 
L 133.390178 276.024166 
L 133.983236 276.024166 
L 133.983236 275.556414 
L 134.558167 275.556414 
L 134.558167 275.088662 
L 135.657857 275.088662 
L 135.657857 274.62091 
L 137.681345 274.62091 
L 137.681345 274.153159 
L 138.154948 274.153159 
L 138.154948 273.217655 
L 139.508159 273.217655 
L 139.508159 272.749903 
L 139.93843 272.749903 
L 139.93843 271.8144 
L 141.56737 271.8144 
L 141.56737 271.346648 
L 143.066428 271.346648 
L 143.066428 270.411145 
L 143.423243 270.411145 
L 143.423243 269.943393 
L 145.112353 269.943393 
L 145.112353 269.475641 
L 145.7477 269.475641 
L 145.7477 267.136883 
L 146.057504 267.136883 
L 146.057504 266.669131 
L 146.362288 266.669131 
L 146.362288 266.201379 
L 146.957431 266.201379 
L 146.957431 265.733628 
L 147.534321 265.733628 
L 147.534321 265.265876 
L 150.425115 265.265876 
L 150.425115 263.862621 
L 150.667154 263.862621 
L 150.667154 262.927117 
L 150.906118 262.927117 
L 150.906118 261.991614 
L 151.375128 261.991614 
L 151.375128 261.523862 
L 151.60532 261.523862 
L 151.60532 261.05611 
L 151.832729 261.05611 
L 151.832729 260.588359 
L 152.279463 260.588359 
L 152.279463 259.652855 
L 152.930279 259.652855 
L 152.930279 259.185103 
L 153.351976 259.185103 
L 153.351976 258.717352 
L 153.967309 258.717352 
L 153.967309 258.2496 
L 154.168026 258.2496 
L 154.168026 257.314097 
L 156.423104 257.314097 
L 156.423104 256.846345 
L 157.288377 256.846345 
L 157.288377 255.910841 
L 157.789059 255.910841 
L 157.789059 254.975338 
L 157.953034 254.975338 
L 157.953034 254.507586 
L 158.907961 254.507586 
L 158.907961 253.572083 
L 159.816746 253.572083 
L 159.816746 252.168828 
L 160.399093 252.168828 
L 160.399093 251.701076 
L 160.683643 251.701076 
L 160.683643 250.297821 
L 160.963953 250.297821 
L 160.963953 249.830069 
L 161.646981 249.830069 
L 161.646981 249.362317 
L 162.17609 249.362317 
L 162.17609 248.894566 
L 162.306075 248.894566 
L 162.306075 247.959062 
L 162.435167 247.959062 
L 162.435167 247.49131 
L 163.067666 247.49131 
L 163.067666 247.023559 
L 163.558786 247.023559 
L 163.558786 246.555807 
L 163.91889 246.555807 
L 163.91889 245.620303 
L 164.388551 245.620303 
L 164.388551 245.152552 
L 165.294095 245.152552 
L 165.404283 242.813793 
L 166.47206 242.813793 
L 166.47206 242.346041 
L 166.678531 242.346041 
L 166.678531 241.87829 
L 166.882759 241.87829 
L 166.882759 240.942786 
L 167.284683 240.942786 
L 167.284683 240.475034 
L 167.968026 240.475034 
L 167.968026 239.539531 
L 168.347644 239.539531 
L 168.347644 238.604028 
L 168.719753 238.604028 
L 168.811641 237.200772 
L 168.903083 237.200772 
L 168.903083 236.265269 
L 169.174771 236.265269 
L 169.174771 235.797517 
L 171.929885 235.797517 
L 171.929885 234.862014 
L 172.084572 234.862014 
L 172.084572 233.92651 
L 172.237998 233.92651 
L 172.237998 232.991007 
L 172.765341 232.991007 
L 172.765341 232.055503 
L 172.913335 232.055503 
L 172.913335 231.12 
L 174.126381 231.12 
L 174.126381 230.652248 
L 174.400785 230.652248 
L 174.468765 229.248993 
L 176.093013 229.248993 
L 176.093013 228.31349 
L 177.122474 228.31349 
L 177.181311 226.910234 
L 177.986274 226.910234 
L 177.986274 225.974731 
L 178.320986 225.974731 
L 178.320986 225.039228 
L 178.758202 225.039228 
L 178.758202 224.103724 
L 180.362479 224.103724 
L 180.362479 223.168221 
L 180.657783 223.168221 
L 180.657783 222.232717 
L 180.803715 222.232717 
L 180.803715 221.297214 
L 181.932119 221.297214 
L 181.932119 220.36171 
L 183.674278 220.36171 
L 183.674278 219.893959 
L 183.963234 219.893959 
L 183.963234 218.958455 
L 184.843519 218.958455 
L 184.843519 218.490703 
L 360.8064 218.490703 
L 360.8064 218.490703 
" style="fill: none; stroke: #0000ff; stroke-width: 1.5; stroke-linecap: square"/>
   </g>
   <g id="line2d_41">
    <defs>
     <path id="mbc4fe3b265" d="M 0 -6 
L -1.347084 -1.854102 
L -5.706339 -1.854102 
L -2.179628 0.708204 
L -3.526712 4.854102 
L -0 2.291796 
L 3.526712 4.854102 
L 2.179628 0.708204 
L 5.706339 -1.854102 
L 1.347084 -1.854102 
z
" style="stroke: #0000ff; stroke-width: 1.5; stroke-linejoin: bevel"/>
    </defs>
    <g>
     <use xlink:href="#mbc4fe3b265" x="72.432107" y="292.395476" style="fill-opacity: 0; stroke: #0000ff; stroke-width: 1.5; stroke-linejoin: bevel"/>
     <use xlink:href="#mbc4fe3b265" x="150.906118" y="262.927117" style="fill-opacity: 0; stroke: #0000ff; stroke-width: 1.5; stroke-linejoin: bevel"/>
     <use xlink:href="#mbc4fe3b265" x="184.843519" y="218.958455" style="fill-opacity: 0; stroke: #0000ff; stroke-width: 1.5; stroke-linejoin: bevel"/>
     <use xlink:href="#mbc4fe3b265" x="184.843519" y="218.490703" style="fill-opacity: 0; stroke: #0000ff; stroke-width: 1.5; stroke-linejoin: bevel"/>
     <use xlink:href="#mbc4fe3b265" x="184.843519" y="218.490703" style="fill-opacity: 0; stroke: #0000ff; stroke-width: 1.5; stroke-linejoin: bevel"/>
     <use xlink:href="#mbc4fe3b265" x="360.8064" y="218.490703" style="fill-opacity: 0; stroke: #0000ff; stroke-width: 1.5; stroke-linejoin: bevel"/>
    </g>
   </g>
   <g id="line2d_42">
    <path style="fill: none; stroke: #0000ff; stroke-width: 1.5; stroke-linecap: square"/>
    <g/>
   </g>
   <g id="line2d_43">
    <path d="M 187.530545 218.490703 
" clip-path="url(#pdf3783e893)" style="fill: none; stroke: #0000ff; stroke-width: 1.5; stroke-linecap: square"/>
    <defs>
     <path id="m2a032bd7c4" d="M -12 12 
L 12 -12 
M -12 -12 
L 12 12 
" style="stroke: #0000ff"/>
    </defs>
    <g clip-path="url(#pdf3783e893)">
     <use xlink:href="#m2a032bd7c4" x="187.530545" y="218.490703" style="fill: #0000ff; stroke: #0000ff"/>
    </g>
   </g>
   <g id="line2d_44">
    <defs>
     <path id="m8aaffcbb0f" d="M 0 1.5 
C 0.397805 1.5 0.77937 1.341951 1.06066 1.06066 
C 1.341951 0.77937 1.5 0.397805 1.5 0 
C 1.5 -0.397805 1.341951 -0.77937 1.06066 -1.06066 
C 0.77937 -1.341951 0.397805 -1.5 0 -1.5 
C -0.397805 -1.5 -0.77937 -1.341951 -1.06066 -1.06066 
C -1.341951 -0.77937 -1.5 -0.397805 -1.5 0 
C -1.5 0.397805 -1.341951 0.77937 -1.06066 1.06066 
C -0.77937 1.341951 -0.397805 1.5 0 1.5 
z
" style="stroke: #000000"/>
    </defs>
    <g>
     <use xlink:href="#m8aaffcbb0f" x="187.02297" y="221.764966" style="stroke: #000000"/>
     <use xlink:href="#m8aaffcbb0f" x="187.02297" y="221.764966" style="stroke: #000000"/>
    </g>
   </g>
   <g id="line2d_45">
    <path d="M 14.2848 298.944 
L 14.2848 292.395476 
L 27.323974 292.395476 
L 27.323974 291.927724 
L 96.480897 291.927724 
L 96.480897 291.459972 
L 101.102381 291.459972 
L 101.102381 290.524469 
L 109.280431 290.524469 
L 109.280431 289.588966 
L 114.961559 289.588966 
L 114.961559 288.653462 
L 118.524569 288.653462 
L 118.524569 288.18571 
L 123.4884 288.18571 
L 123.4884 287.717959 
L 126.899255 287.717959 
L 126.899255 287.250207 
L 127.412117 287.250207 
L 127.412117 286.782455 
L 128.39771 286.782455 
L 128.39771 286.314703 
L 128.871795 286.314703 
L 128.871795 285.846952 
L 130.226319 285.846952 
L 130.226319 285.3792 
L 131.078016 285.3792 
L 131.078016 284.443697 
L 133.05244 284.443697 
L 133.05244 283.975945 
L 133.78762 283.975945 
L 133.78762 283.508193 
L 134.495147 283.508193 
L 134.495147 283.040441 
L 134.839175 283.040441 
L 134.839175 281.637186 
L 135.508912 281.637186 
L 135.508912 281.169434 
L 135.835047 281.169434 
L 135.835047 280.701683 
L 136.155623 280.701683 
L 136.155623 280.233931 
L 136.780838 280.233931 
L 136.780838 279.766179 
L 137.085822 279.766179 
L 137.085822 279.298428 
L 137.38594 279.298428 
L 137.38594 278.830676 
L 137.681345 278.830676 
L 137.681345 277.895172 
L 139.092553 277.895172 
L 139.092553 277.427421 
L 139.891105 277.427421 
L 139.891105 276.959669 
L 140.14993 276.959669 
L 140.14993 276.491917 
L 140.657135 276.491917 
L 140.657135 276.024166 
L 141.151022 276.024166 
L 141.151022 275.556414 
L 141.393187 275.556414 
L 141.393187 275.088662 
L 141.868361 275.088662 
L 141.868361 274.62091 
L 142.559347 274.62091 
L 142.559347 274.153159 
L 142.784148 274.153159 
L 142.784148 273.685407 
L 143.225848 273.685407 
L 143.225848 273.217655 
L 144.491935 273.217655 
L 144.491935 272.749903 
L 145.485575 272.749903 
L 145.485575 272.282152 
L 146.244347 272.282152 
L 146.244347 271.8144 
L 146.429353 271.8144 
L 146.429353 271.346648 
L 146.973697 271.346648 
L 146.973697 270.878897 
L 148.518156 270.878897 
L 148.518156 269.943393 
L 148.844805 269.943393 
L 148.844805 269.00789 
L 149.481565 269.00789 
L 149.481565 268.540138 
L 149.637443 268.540138 
L 149.637443 268.072386 
L 150.398028 268.072386 
L 150.398028 267.604634 
L 151.554409 267.604634 
L 151.554409 267.136883 
L 152.643804 267.136883 
L 152.643804 266.201379 
L 153.036593 266.201379 
L 153.036593 265.733628 
L 153.673549 265.733628 
L 153.673549 265.265876 
L 154.04562 265.265876 
L 154.04562 264.330372 
L 154.410475 264.330372 
L 154.410475 263.394869 
L 155.003269 263.394869 
L 155.003269 262.927117 
L 155.119618 262.927117 
L 155.119618 261.991614 
L 155.350181 261.991614 
L 155.350181 261.523862 
L 155.464411 261.523862 
L 155.464411 260.588359 
L 155.802997 260.588359 
L 155.802997 260.120607 
L 156.025382 260.120607 
L 156.135597 259.185103 
L 157.30716 259.185103 
L 157.30716 258.717352 
L 157.614408 258.717352 
L 157.614408 258.2496 
L 158.507144 258.2496 
L 158.507144 257.781848 
L 158.890711 257.781848 
L 158.890711 256.846345 
L 159.079601 256.846345 
L 159.173339 255.910841 
L 159.359426 255.910841 
L 159.451784 254.507586 
L 159.996606 254.507586 
L 160.085895 253.572083 
L 161.376738 253.572083 
L 161.376738 253.104331 
L 161.706511 253.104331 
L 161.706511 252.168828 
L 161.950101 252.168828 
L 161.950101 251.701076 
L 162.349204 251.701076 
L 162.349204 251.233324 
L 162.740015 251.233324 
L 162.740015 249.830069 
L 163.572247 249.830069 
L 163.572247 249.362317 
L 163.865975 249.362317 
L 163.938695 247.959062 
L 164.580835 247.959062 
L 164.580835 247.49131 
L 165.201776 247.49131 
L 165.201776 247.023559 
L 165.604634 247.023559 
L 165.604634 246.088055 
L 166.193193 246.088055 
L 166.193193 245.152552 
L 166.321521 245.152552 
L 166.321521 244.217048 
L 166.448979 244.217048 
L 166.448979 243.749297 
L 166.575579 243.749297 
L 166.638561 242.813793 
L 167.558829 242.813793 
L 167.558829 241.87829 
L 168.321528 241.87829 
L 168.321528 241.410538 
L 168.887874 241.410538 
L 168.887874 240.942786 
L 169.653161 240.942786 
L 169.75999 239.539531 
L 169.971845 239.539531 
L 169.971845 238.604028 
L 170.542436 238.604028 
L 170.542436 238.136276 
L 170.846523 238.136276 
L 170.846523 237.200772 
L 171.634182 237.200772 
L 171.682333 236.265269 
L 172.11023 236.265269 
L 172.204011 234.862014 
L 172.436438 234.862014 
L 172.436438 234.394262 
L 172.620334 234.394262 
L 172.620334 233.92651 
L 172.757085 233.92651 
L 172.757085 232.991007 
L 172.982818 232.991007 
L 172.982818 232.055503 
L 173.816719 232.055503 
L 173.816719 231.587752 
L 175.49934 231.587752 
L 175.49934 230.652248 
L 175.887877 230.652248 
L 175.887877 230.184497 
L 176.641673 230.184497 
L 176.641673 228.31349 
L 177.043737 228.31349 
L 177.043737 227.377986 
L 180.014803 227.377986 
L 180.076462 225.506979 
L 181.211143 225.506979 
L 181.211143 224.571476 
L 181.725635 224.571476 
L 181.725635 223.635972 
L 184.081203 223.635972 
L 184.081203 222.700469 
L 185.609533 222.700469 
L 185.609533 222.232717 
L 187.02297 222.232717 
L 187.02297 221.764966 
L 360.8064 221.764966 
L 360.8064 221.764966 
" style="fill: none; stroke: #000000; stroke-width: 1.5; stroke-linecap: square"/>
   </g>
   <g id="line2d_46">
    <defs>
     <path id="m20b7304c37" d="M 0 6 
C 1.591219 6 3.117479 5.367802 4.242641 4.242641 
C 5.367802 3.117479 6 1.591219 6 0 
C 6 -1.591219 5.367802 -3.117479 4.242641 -4.242641 
C 3.117479 -5.367802 1.591219 -6 0 -6 
C -1.591219 -6 -3.117479 -5.367802 -4.242641 -4.242641 
C -5.367802 -3.117479 -6 -1.591219 -6 0 
C -6 1.591219 -5.367802 3.117479 -4.242641 4.242641 
C -3.117479 5.367802 -1.591219 6 0 6 
z
" style="stroke: #000000; stroke-width: 1.5"/>
    </defs>
    <g>
     <use xlink:href="#m20b7304c37" x="133.78762" y="283.508193" style="fill-opacity: 0; stroke: #000000; stroke-width: 1.5"/>
     <use xlink:href="#m20b7304c37" x="187.02297" y="222.232717" style="fill-opacity: 0; stroke: #000000; stroke-width: 1.5"/>
     <use xlink:href="#m20b7304c37" x="187.02297" y="221.764966" style="fill-opacity: 0; stroke: #000000; stroke-width: 1.5"/>
     <use xlink:href="#m20b7304c37" x="187.02297" y="221.764966" style="fill-opacity: 0; stroke: #000000; stroke-width: 1.5"/>
     <use xlink:href="#m20b7304c37" x="360.8064" y="221.764966" style="fill-opacity: 0; stroke: #000000; stroke-width: 1.5"/>
    </g>
   </g>
   <g id="line2d_47">
    <path style="fill: none; stroke: #000000; stroke-width: 1.5; stroke-linecap: square"/>
    <g/>
   </g>
   <g id="line2d_48">
    <path d="M 187.5456 221.764966 
" clip-path="url(#pdf3783e893)" style="fill: none; stroke: #000000; stroke-width: 1.5; stroke-linecap: square"/>
    <defs>
     <path id="m70739d3bba" d="M -12 12 
L 12 -12 
M -12 -12 
L 12 12 
" style="stroke: #000000"/>
    </defs>
    <g clip-path="url(#pdf3783e893)">
     <use xlink:href="#m70739d3bba" x="187.5456" y="221.764966" style="stroke: #000000"/>
    </g>
   </g>
   <g id="line2d_49">
    <defs>
     <path id="macb5dd43fa" d="M 0 1.5 
C 0.397805 1.5 0.77937 1.341951 1.06066 1.06066 
C 1.341951 0.77937 1.5 0.397805 1.5 0 
C 1.5 -0.397805 1.341951 -0.77937 1.06066 -1.06066 
C 0.77937 -1.341951 0.397805 -1.5 0 -1.5 
C -0.397805 -1.5 -0.77937 -1.341951 -1.06066 -1.06066 
C -1.341951 -0.77937 -1.5 -0.397805 -1.5 0 
C -1.5 0.397805 -1.341951 0.77937 -1.06066 1.06066 
C -0.77937 1.341951 -0.397805 1.5 0 1.5 
z
" style="stroke: #ff0000"/>
    </defs>
    <g>
     <use xlink:href="#macb5dd43fa" x="187.108844" y="231.587752" style="fill: #ff0000; stroke: #ff0000"/>
     <use xlink:href="#macb5dd43fa" x="187.108844" y="231.587752" style="fill: #ff0000; stroke: #ff0000"/>
    </g>
   </g>
   <g id="line2d_50">
    <path d="M 1.245626 298.944 
L 1.245626 294.734234 
L 71.103681 294.734234 
L 71.103681 294.266483 
L 122.379802 294.266483 
L 122.379802 293.798731 
L 126.250102 293.798731 
L 126.250102 293.330979 
L 127.18073 293.330979 
L 127.18073 292.863228 
L 130.24611 292.863228 
L 130.24611 292.395476 
L 133.103489 292.395476 
L 133.103489 291.927724 
L 134.589598 291.927724 
L 134.589598 290.992221 
L 135.776169 290.992221 
L 135.776169 290.524469 
L 136.155623 290.524469 
L 136.155623 290.056717 
L 136.710829 290.056717 
L 136.710829 289.588966 
L 137.601239 289.588966 
L 137.601239 289.121214 
L 138.943648 289.121214 
L 138.943648 288.653462 
L 139.264798 288.653462 
L 139.264798 288.18571 
L 140.34752 288.18571 
L 140.34752 287.250207 
L 140.793122 287.250207 
L 140.793122 286.782455 
L 140.939341 286.782455 
L 140.939341 286.314703 
L 141.084433 286.314703 
L 141.084433 285.846952 
L 141.228414 285.846952 
L 141.228414 285.3792 
L 141.793563 285.3792 
L 141.793563 284.911448 
L 142.610675 284.911448 
L 142.610675 284.443697 
L 142.875344 284.443697 
L 142.875344 283.508193 
L 143.521169 283.508193 
L 143.521169 283.040441 
L 143.647716 283.040441 
L 143.647716 282.57269 
L 144.022326 282.57269 
L 144.022326 282.104938 
L 144.389622 282.104938 
L 144.389622 281.637186 
L 144.749884 281.637186 
L 144.749884 281.169434 
L 144.868454 281.169434 
L 144.868454 280.701683 
L 145.450347 280.701683 
L 145.450347 280.233931 
L 145.90324 280.233931 
L 145.90324 279.766179 
L 146.88406 279.766179 
L 146.989949 278.830676 
L 147.304086 278.830676 
L 147.304086 278.362924 
L 148.017294 278.362924 
L 148.017294 277.895172 
L 148.314867 277.895172 
L 148.314867 277.427421 
L 148.704447 277.427421 
L 148.704447 276.959669 
L 150.007747 276.959669 
L 150.007747 276.491917 
L 150.88632 276.491917 
L 150.88632 275.556414 
L 151.477784 275.556414 
L 151.477784 275.088662 
L 151.725684 275.088662 
L 151.725684 274.62091 
L 151.889155 274.62091 
L 151.97036 273.685407 
L 152.131727 273.685407 
L 152.131727 273.217655 
L 152.371212 273.217655 
L 152.371212 272.749903 
L 152.91843 272.749903 
L 152.91843 272.282152 
L 153.148165 272.282152 
L 153.148165 271.8144 
L 153.599386 271.8144 
L 153.599386 270.878897 
L 154.541415 270.878897 
L 154.541415 270.411145 
L 156.230265 270.411145 
L 156.230265 269.475641 
L 156.359044 269.475641 
L 156.423104 268.072386 
L 157.051988 268.072386 
L 157.051988 267.604634 
L 157.419468 267.604634 
L 157.419468 266.669131 
L 159.15633 266.669131 
L 159.15633 265.733628 
L 159.701388 265.733628 
L 159.808529 264.330372 
L 160.231096 264.330372 
L 160.335271 263.394869 
L 160.541906 263.394869 
L 160.541906 261.991614 
L 161.048777 261.991614 
L 161.048777 261.523862 
L 161.880299 261.523862 
L 161.880299 261.05611 
L 162.023298 261.05611 
L 162.070724 260.120607 
L 162.352794 260.120607 
L 162.352794 259.652855 
L 162.81371 259.652855 
L 162.81371 259.185103 
L 162.994961 259.185103 
L 162.994961 258.717352 
L 164.047252 258.717352 
L 164.047252 258.2496 
L 164.259262 258.2496 
L 164.259262 257.781848 
L 164.468908 257.781848 
L 164.468908 256.846345 
L 164.593584 256.846345 
L 164.593584 255.910841 
L 165.758002 255.910841 
L 165.758002 254.975338 
L 166.669973 254.975338 
L 166.744012 254.039834 
L 167.960035 254.039834 
L 168.029176 252.168828 
L 168.166699 252.168828 
L 168.166699 251.701076 
L 168.706955 251.701076 
L 168.773409 250.765572 
L 168.872652 250.765572 
L 168.872652 250.297821 
L 169.102202 250.297821 
L 169.102202 249.830069 
L 169.328985 249.830069 
L 169.328985 248.894566 
L 169.805934 248.894566 
L 169.805934 247.959062 
L 170.332249 247.959062 
L 170.332249 247.49131 
L 171.080436 247.49131 
L 171.080436 247.023559 
L 172.329033 247.023559 
L 172.329033 246.088055 
L 172.547409 246.088055 
L 172.547409 245.152552 
L 172.950152 245.152552 
L 172.950152 244.6848 
L 174.158985 244.6848 
L 174.158985 243.749297 
L 174.406459 243.749297 
L 174.406459 242.813793 
L 174.939706 242.813793 
L 175.035057 240.942786 
L 176.41019 240.942786 
L 176.41019 240.007283 
L 176.911772 240.007283 
L 176.911772 239.539531 
L 177.210661 239.539531 
L 177.210661 239.071779 
L 177.421282 239.071779 
L 177.421282 238.604028 
L 178.260991 238.604028 
L 178.260991 237.668524 
L 178.618125 237.668524 
L 178.618125 236.733021 
L 179.743355 236.733021 
L 179.743355 235.797517 
L 180.308663 235.797517 
L 180.326619 233.92651 
L 181.726916 233.92651 
L 181.726916 232.991007 
L 182.66919 232.991007 
L 182.66919 232.523255 
L 185.434618 232.523255 
L 185.434618 232.055503 
L 187.108844 232.055503 
L 187.108844 231.587752 
L 360.8064 231.587752 
L 360.8064 231.587752 
" style="fill: none; stroke: #ff0000; stroke-width: 1.5; stroke-linecap: square"/>
   </g>
   <g id="line2d_51">
    <defs>
     <path id="mc718931530" d="M -6 6 
L 6 6 
L 6 -6 
L -6 -6 
z
" style="stroke: #ff0000; stroke-width: 1.5; stroke-linejoin: miter"/>
    </defs>
    <g>
     <use xlink:href="#mc718931530" x="138.943648" y="289.121214" style="fill-opacity: 0; stroke: #ff0000; stroke-width: 1.5; stroke-linejoin: miter"/>
     <use xlink:href="#mc718931530" x="187.108844" y="232.055503" style="fill-opacity: 0; stroke: #ff0000; stroke-width: 1.5; stroke-linejoin: miter"/>
     <use xlink:href="#mc718931530" x="187.108844" y="231.587752" style="fill-opacity: 0; stroke: #ff0000; stroke-width: 1.5; stroke-linejoin: miter"/>
     <use xlink:href="#mc718931530" x="187.108844" y="231.587752" style="fill-opacity: 0; stroke: #ff0000; stroke-width: 1.5; stroke-linejoin: miter"/>
     <use xlink:href="#mc718931530" x="360.8064" y="231.587752" style="fill-opacity: 0; stroke: #ff0000; stroke-width: 1.5; stroke-linejoin: miter"/>
    </g>
   </g>
   <g id="line2d_52">
    <path style="fill: none; stroke: #ff0000; stroke-width: 1.5; stroke-linecap: square"/>
    <g/>
   </g>
   <g id="line2d_53">
    <path d="M 187.540897 231.587752 
" clip-path="url(#pdf3783e893)" style="fill: none; stroke: #ff0000; stroke-width: 1.5; stroke-linecap: square"/>
    <defs>
     <path id="me23dd0c674" d="M -12 12 
L 12 -12 
M -12 -12 
L 12 12 
" style="stroke: #ff0000"/>
    </defs>
    <g clip-path="url(#pdf3783e893)">
     <use xlink:href="#me23dd0c674" x="187.540897" y="231.587752" style="fill: #ff0000; stroke: #ff0000"/>
    </g>
   </g>
   <g id="line2d_54">
    <path d="M 360.8064 231.587752 
L 380.514816 293.51808 
" style="fill: none; stroke: #ff0000; stroke-width: 1.5; stroke-linecap: square"/>
    <g>
     <use xlink:href="#mc718931530" x="360.8064" y="231.587752" style="fill-opacity: 0; stroke: #ff0000; stroke-width: 1.5; stroke-linejoin: miter"/>
     <use xlink:href="#mc718931530" x="380.514816" y="293.51808" style="fill-opacity: 0; stroke: #ff0000; stroke-width: 1.5; stroke-linejoin: miter"/>
    </g>
   </g>
   <g id="line2d_55">
    <path d="M 360.8064 221.764966 
L 380.514816 228.40704 
" style="fill: none; stroke: #000000; stroke-width: 1.5; stroke-linecap: square"/>
    <g>
     <use xlink:href="#m20b7304c37" x="360.8064" y="221.764966" style="fill-opacity: 0; stroke: #000000; stroke-width: 1.5"/>
     <use xlink:href="#m20b7304c37" x="380.514816" y="228.40704" style="fill-opacity: 0; stroke: #000000; stroke-width: 1.5"/>
    </g>
   </g>
   <g id="line2d_56">
    <path d="M 360.8064 218.490703 
L 380.514816 163.296 
" style="fill: none; stroke: #0000ff; stroke-width: 1.5; stroke-linecap: square"/>
    <g>
     <use xlink:href="#mbc4fe3b265" x="360.8064" y="218.490703" style="fill-opacity: 0; stroke: #0000ff; stroke-width: 1.5; stroke-linejoin: bevel"/>
     <use xlink:href="#mbc4fe3b265" x="380.514816" y="163.296" style="fill-opacity: 0; stroke: #0000ff; stroke-width: 1.5; stroke-linejoin: bevel"/>
    </g>
   </g>
   <g id="line2d_57">
    <path d="M 360.8064 207.264662 
L 380.514816 98.18496 
" style="fill: none; stroke: #00bfbf; stroke-width: 1.5; stroke-linecap: square"/>
    <g>
     <use xlink:href="#m6c168a8417" x="360.8064" y="207.264662" style="fill-opacity: 0; stroke: #00bfbf; stroke-width: 1.5"/>
     <use xlink:href="#m6c168a8417" x="380.514816" y="98.18496" style="fill-opacity: 0; stroke: #00bfbf; stroke-width: 1.5"/>
    </g>
   </g>
   <g id="line2d_58">
    <path d="M 360.8064 205.861407 
L 380.514816 33.07392 
" style="fill: none; stroke: #008000; stroke-width: 1.5; stroke-linecap: square"/>
    <g>
     <use xlink:href="#m2eb3e49a60" x="360.8064" y="205.861407" style="fill-opacity: 0; stroke: #008000; stroke-width: 1.5; stroke-linejoin: miter"/>
     <use xlink:href="#m2eb3e49a60" x="380.514816" y="33.07392" style="fill-opacity: 0; stroke: #008000; stroke-width: 1.5; stroke-linejoin: miter"/>
    </g>
   </g>
   <g id="line2d_59">
    <path d="M 360.8064 298.944 
L 360.8064 27.648 
" style="fill: none; stroke: #000000; stroke-width: 1.5; stroke-linecap: square"/>
   </g>
   <g id="patch_3">
    <path d="M 57.6 298.944 
L 360.8064 298.944 
" style="fill: none; stroke: #000000; stroke-width: 0.8; stroke-linejoin: miter; stroke-linecap: square"/>
   </g>
   <g id="patch_4">
    <path d="M 57.6 27.648 
L 360.8064 27.648 
" style="fill: none; stroke: #000000; stroke-width: 0.8; stroke-linejoin: miter; stroke-linecap: square"/>
   </g>
   <g id="text_13">
    <!-- 20-D -->
    <g transform="translate(386.578944 297.381205) scale(0.14 -0.14)">
     <defs>
      <path id="DejaVuSans-44" d="M 1259 4147 
L 1259 519 
L 2022 519 
Q 2988 519 3436 956 
Q 3884 1394 3884 2338 
Q 3884 3275 3436 3711 
Q 2988 4147 2022 4147 
L 1259 4147 
z
M 628 4666 
L 1925 4666 
Q 3281 4666 3915 4102 
Q 4550 3538 4550 2338 
Q 4550 1131 3912 565 
Q 3275 0 1925 0 
L 628 0 
L 628 4666 
z
" transform="scale(0.015625)"/>
     </defs>
     <use xlink:href="#DejaVuSans-32"/>
     <use xlink:href="#DejaVuSans-30" x="63.623047"/>
     <use xlink:href="#DejaVuSans-2d" x="127.246094"/>
     <use xlink:href="#DejaVuSans-44" x="163.330078"/>
    </g>
   </g>
   <g id="text_14">
    <!-- 10-D -->
    <g transform="translate(386.578944 232.270165) scale(0.14 -0.14)">
     <use xlink:href="#DejaVuSans-31"/>
     <use xlink:href="#DejaVuSans-30" x="63.623047"/>
     <use xlink:href="#DejaVuSans-2d" x="127.246094"/>
     <use xlink:href="#DejaVuSans-44" x="163.330078"/>
    </g>
   </g>
   <g id="text_15">
    <!-- 5-D -->
    <g transform="translate(386.578944 167.159125) scale(0.14 -0.14)">
     <defs>
      <path id="DejaVuSans-35" d="M 691 4666 
L 3169 4666 
L 3169 4134 
L 1269 4134 
L 1269 2991 
Q 1406 3038 1543 3061 
Q 1681 3084 1819 3084 
Q 2600 3084 3056 2656 
Q 3513 2228 3513 1497 
Q 3513 744 3044 326 
Q 2575 -91 1722 -91 
Q 1428 -91 1123 -41 
Q 819 9 494 109 
L 494 744 
Q 775 591 1075 516 
Q 1375 441 1709 441 
Q 2250 441 2565 725 
Q 2881 1009 2881 1497 
Q 2881 1984 2565 2268 
Q 2250 2553 1709 2553 
Q 1456 2553 1204 2497 
Q 953 2441 691 2322 
L 691 4666 
z
" transform="scale(0.015625)"/>
     </defs>
     <use xlink:href="#DejaVuSans-35"/>
     <use xlink:href="#DejaVuSans-2d" x="63.623047"/>
     <use xlink:href="#DejaVuSans-44" x="99.707031"/>
    </g>
   </g>
   <g id="text_16">
    <!-- 2-D -->
    <g transform="translate(386.578944 102.048085) scale(0.14 -0.14)">
     <use xlink:href="#DejaVuSans-32"/>
     <use xlink:href="#DejaVuSans-2d" x="63.623047"/>
     <use xlink:href="#DejaVuSans-44" x="99.707031"/>
    </g>
   </g>
   <g id="text_17">
    <!-- 3-D -->
    <g transform="translate(386.578944 36.937045) scale(0.14 -0.14)">
     <defs>
      <path id="DejaVuSans-33" d="M 2597 2516 
Q 3050 2419 3304 2112 
Q 3559 1806 3559 1356 
Q 3559 666 3084 287 
Q 2609 -91 1734 -91 
Q 1441 -91 1130 -33 
Q 819 25 488 141 
L 488 750 
Q 750 597 1062 519 
Q 1375 441 1716 441 
Q 2309 441 2620 675 
Q 2931 909 2931 1356 
Q 2931 1769 2642 2001 
Q 2353 2234 1838 2234 
L 1294 2234 
L 1294 2753 
L 1863 2753 
Q 2328 2753 2575 2939 
Q 2822 3125 2822 3475 
Q 2822 3834 2567 4026 
Q 2313 4219 1838 4219 
Q 1578 4219 1281 4162 
Q 984 4106 628 3988 
L 628 4550 
Q 988 4650 1302 4700 
Q 1616 4750 1894 4750 
Q 2613 4750 3031 4423 
Q 3450 4097 3450 3541 
Q 3450 3153 3228 2886 
Q 3006 2619 2597 2516 
z
" transform="scale(0.015625)"/>
     </defs>
     <use xlink:href="#DejaVuSans-33"/>
     <use xlink:href="#DejaVuSans-2d" x="63.623047"/>
     <use xlink:href="#DejaVuSans-44" x="99.707031"/>
    </g>
   </g>
   <g id="text_18">
    <!-- bbob-biobj f45 -->
    <g transform="translate(60.632064 38.111366) scale(0.102 -0.102)">
     <defs>
      <path id="DejaVuSans-62" d="M 3116 1747 
Q 3116 2381 2855 2742 
Q 2594 3103 2138 3103 
Q 1681 3103 1420 2742 
Q 1159 2381 1159 1747 
Q 1159 1113 1420 752 
Q 1681 391 2138 391 
Q 2594 391 2855 752 
Q 3116 1113 3116 1747 
z
M 1159 2969 
Q 1341 3281 1617 3432 
Q 1894 3584 2278 3584 
Q 2916 3584 3314 3078 
Q 3713 2572 3713 1747 
Q 3713 922 3314 415 
Q 2916 -91 2278 -91 
Q 1894 -91 1617 61 
Q 1341 213 1159 525 
L 1159 0 
L 581 0 
L 581 4863 
L 1159 4863 
L 1159 2969 
z
" transform="scale(0.015625)"/>
      <path id="DejaVuSans-6a" d="M 603 3500 
L 1178 3500 
L 1178 -63 
Q 1178 -731 923 -1031 
Q 669 -1331 103 -1331 
L -116 -1331 
L -116 -844 
L 38 -844 
Q 366 -844 484 -692 
Q 603 -541 603 -63 
L 603 3500 
z
M 603 4863 
L 1178 4863 
L 1178 4134 
L 603 4134 
L 603 4863 
z
" transform="scale(0.015625)"/>
     </defs>
     <use xlink:href="#DejaVuSans-62"/>
     <use xlink:href="#DejaVuSans-62" x="63.476562"/>
     <use xlink:href="#DejaVuSans-6f" x="126.953125"/>
     <use xlink:href="#DejaVuSans-62" x="188.134766"/>
     <use xlink:href="#DejaVuSans-2d" x="251.611328"/>
     <use xlink:href="#DejaVuSans-62" x="287.695312"/>
     <use xlink:href="#DejaVuSans-69" x="351.171875"/>
     <use xlink:href="#DejaVuSans-6f" x="378.955078"/>
     <use xlink:href="#DejaVuSans-62" x="440.136719"/>
     <use xlink:href="#DejaVuSans-6a" x="503.613281"/>
     <use xlink:href="#DejaVuSans-20" x="531.396484"/>
     <use xlink:href="#DejaVuSans-66" x="563.183594"/>
     <use xlink:href="#DejaVuSans-34" x="598.388672"/>
     <use xlink:href="#DejaVuSans-35" x="662.011719"/>
    </g>
    <!-- 58 targets: 1..-1.0e-4 -->
    <g transform="translate(60.632064 49.533135) scale(0.102 -0.102)">
     <defs>
      <path id="DejaVuSans-3a" d="M 750 794 
L 1409 794 
L 1409 0 
L 750 0 
L 750 794 
z
M 750 3309 
L 1409 3309 
L 1409 2516 
L 750 2516 
L 750 3309 
z
" transform="scale(0.015625)"/>
     </defs>
     <use xlink:href="#DejaVuSans-35"/>
     <use xlink:href="#DejaVuSans-38" x="63.623047"/>
     <use xlink:href="#DejaVuSans-20" x="127.246094"/>
     <use xlink:href="#DejaVuSans-74" x="159.033203"/>
     <use xlink:href="#DejaVuSans-61" x="198.242188"/>
     <use xlink:href="#DejaVuSans-72" x="259.521484"/>
     <use xlink:href="#DejaVuSans-67" x="298.884766"/>
     <use xlink:href="#DejaVuSans-65" x="362.361328"/>
     <use xlink:href="#DejaVuSans-74" x="423.884766"/>
     <use xlink:href="#DejaVuSans-73" x="463.09375"/>
     <use xlink:href="#DejaVuSans-3a" x="515.193359"/>
     <use xlink:href="#DejaVuSans-20" x="548.884766"/>
     <use xlink:href="#DejaVuSans-31" x="580.671875"/>
     <use xlink:href="#DejaVuSans-2e" x="644.294922"/>
     <use xlink:href="#DejaVuSans-2e" x="676.082031"/>
     <use xlink:href="#DejaVuSans-2d" x="707.869141"/>
     <use xlink:href="#DejaVuSans-31" x="743.953125"/>
     <use xlink:href="#DejaVuSans-2e" x="807.576172"/>
     <use xlink:href="#DejaVuSans-30" x="839.363281"/>
     <use xlink:href="#DejaVuSans-65" x="902.986328"/>
     <use xlink:href="#DejaVuSans-2d" x="964.509766"/>
     <use xlink:href="#DejaVuSans-34" x="1000.59375"/>
    </g>
    <!-- 10 instances -->
    <g transform="translate(60.632064 60.954904) scale(0.102 -0.102)">
     <use xlink:href="#DejaVuSans-31"/>
     <use xlink:href="#DejaVuSans-30" x="63.623047"/>
     <use xlink:href="#DejaVuSans-20" x="127.246094"/>
     <use xlink:href="#DejaVuSans-69" x="159.033203"/>
     <use xlink:href="#DejaVuSans-6e" x="186.816406"/>
     <use xlink:href="#DejaVuSans-73" x="250.195312"/>
     <use xlink:href="#DejaVuSans-74" x="302.294922"/>
     <use xlink:href="#DejaVuSans-61" x="341.503906"/>
     <use xlink:href="#DejaVuSans-6e" x="402.783203"/>
     <use xlink:href="#DejaVuSans-63" x="466.162109"/>
     <use xlink:href="#DejaVuSans-65" x="521.142578"/>
     <use xlink:href="#DejaVuSans-73" x="582.666016"/>
    </g>
   </g>
   <g id="text_19">
    <!-- v2.6, hv-hash=ff0e71e8cd978373 -->
    <g style="fill: #808080" transform="translate(123.707887 294.151352) scale(0.1 -0.1)">
     <defs>
      <path id="DejaVuSans-68" d="M 3513 2113 
L 3513 0 
L 2938 0 
L 2938 2094 
Q 2938 2591 2744 2837 
Q 2550 3084 2163 3084 
Q 1697 3084 1428 2787 
Q 1159 2491 1159 1978 
L 1159 0 
L 581 0 
L 581 4863 
L 1159 4863 
L 1159 2956 
Q 1366 3272 1645 3428 
Q 1925 3584 2291 3584 
Q 2894 3584 3203 3211 
Q 3513 2838 3513 2113 
z
" transform="scale(0.015625)"/>
      <path id="DejaVuSans-3d" d="M 678 2906 
L 4684 2906 
L 4684 2381 
L 678 2381 
L 678 2906 
z
M 678 1631 
L 4684 1631 
L 4684 1100 
L 678 1100 
L 678 1631 
z
" transform="scale(0.015625)"/>
      <path id="DejaVuSans-37" d="M 525 4666 
L 3525 4666 
L 3525 4397 
L 1831 0 
L 1172 0 
L 2766 4134 
L 525 4134 
L 525 4666 
z
" transform="scale(0.015625)"/>
      <path id="DejaVuSans-39" d="M 703 97 
L 703 672 
Q 941 559 1184 500 
Q 1428 441 1663 441 
Q 2288 441 2617 861 
Q 2947 1281 2994 2138 
Q 2813 1869 2534 1725 
Q 2256 1581 1919 1581 
Q 1219 1581 811 2004 
Q 403 2428 403 3163 
Q 403 3881 828 4315 
Q 1253 4750 1959 4750 
Q 2769 4750 3195 4129 
Q 3622 3509 3622 2328 
Q 3622 1225 3098 567 
Q 2575 -91 1691 -91 
Q 1453 -91 1209 -44 
Q 966 3 703 97 
z
M 1959 2075 
Q 2384 2075 2632 2365 
Q 2881 2656 2881 3163 
Q 2881 3666 2632 3958 
Q 2384 4250 1959 4250 
Q 1534 4250 1286 3958 
Q 1038 3666 1038 3163 
Q 1038 2656 1286 2365 
Q 1534 2075 1959 2075 
z
" transform="scale(0.015625)"/>
     </defs>
     <use xlink:href="#DejaVuSans-76"/>
     <use xlink:href="#DejaVuSans-32" x="59.179688"/>
     <use xlink:href="#DejaVuSans-2e" x="122.802734"/>
     <use xlink:href="#DejaVuSans-36" x="154.589844"/>
     <use xlink:href="#DejaVuSans-2c" x="218.212891"/>
     <use xlink:href="#DejaVuSans-20" x="250"/>
     <use xlink:href="#DejaVuSans-68" x="281.787109"/>
     <use xlink:href="#DejaVuSans-76" x="345.166016"/>
     <use xlink:href="#DejaVuSans-2d" x="401.720703"/>
     <use xlink:href="#DejaVuSans-68" x="437.804688"/>
     <use xlink:href="#DejaVuSans-61" x="501.183594"/>
     <use xlink:href="#DejaVuSans-73" x="562.462891"/>
     <use xlink:href="#DejaVuSans-68" x="614.5625"/>
     <use xlink:href="#DejaVuSans-3d" x="677.941406"/>
     <use xlink:href="#DejaVuSans-66" x="761.730469"/>
     <use xlink:href="#DejaVuSans-66" x="796.935547"/>
     <use xlink:href="#DejaVuSans-30" x="832.140625"/>
     <use xlink:href="#DejaVuSans-65" x="895.763672"/>
     <use xlink:href="#DejaVuSans-37" x="957.287109"/>
     <use xlink:href="#DejaVuSans-31" x="1020.910156"/>
     <use xlink:href="#DejaVuSans-65" x="1084.533203"/>
     <use xlink:href="#DejaVuSans-38" x="1146.056641"/>
     <use xlink:href="#DejaVuSans-63" x="1209.679688"/>
     <use xlink:href="#DejaVuSans-64" x="1264.660156"/>
     <use xlink:href="#DejaVuSans-39" x="1328.136719"/>
     <use xlink:href="#DejaVuSans-37" x="1391.759766"/>
     <use xlink:href="#DejaVuSans-38" x="1455.382812"/>
     <use xlink:href="#DejaVuSans-33" x="1519.005859"/>
     <use xlink:href="#DejaVuSans-37" x="1582.628906"/>
     <use xlink:href="#DejaVuSans-33" x="1646.251953"/>
    </g>
   </g>
   <g id="text_20">
    <!-- 45 Diff. Powers/Gallagher 101 -->
    <g transform="translate(60.567262 21.648) scale(0.2 -0.2)">
     <defs>
      <path id="DejaVuSans-50" d="M 1259 4147 
L 1259 2394 
L 2053 2394 
Q 2494 2394 2734 2622 
Q 2975 2850 2975 3272 
Q 2975 3691 2734 3919 
Q 2494 4147 2053 4147 
L 1259 4147 
z
M 628 4666 
L 2053 4666 
Q 2838 4666 3239 4311 
Q 3641 3956 3641 3272 
Q 3641 2581 3239 2228 
Q 2838 1875 2053 1875 
L 1259 1875 
L 1259 0 
L 628 0 
L 628 4666 
z
" transform="scale(0.015625)"/>
      <path id="DejaVuSans-77" d="M 269 3500 
L 844 3500 
L 1563 769 
L 2278 3500 
L 2956 3500 
L 3675 769 
L 4391 3500 
L 4966 3500 
L 4050 0 
L 3372 0 
L 2619 2869 
L 1863 0 
L 1184 0 
L 269 3500 
z
" transform="scale(0.015625)"/>
      <path id="DejaVuSans-47" d="M 3809 666 
L 3809 1919 
L 2778 1919 
L 2778 2438 
L 4434 2438 
L 4434 434 
Q 4069 175 3628 42 
Q 3188 -91 2688 -91 
Q 1594 -91 976 548 
Q 359 1188 359 2328 
Q 359 3472 976 4111 
Q 1594 4750 2688 4750 
Q 3144 4750 3555 4637 
Q 3966 4525 4313 4306 
L 4313 3634 
Q 3963 3931 3569 4081 
Q 3175 4231 2741 4231 
Q 1884 4231 1454 3753 
Q 1025 3275 1025 2328 
Q 1025 1384 1454 906 
Q 1884 428 2741 428 
Q 3075 428 3337 486 
Q 3600 544 3809 666 
z
" transform="scale(0.015625)"/>
     </defs>
     <use xlink:href="#DejaVuSans-34"/>
     <use xlink:href="#DejaVuSans-35" x="63.623047"/>
     <use xlink:href="#DejaVuSans-20" x="127.246094"/>
     <use xlink:href="#DejaVuSans-44" x="159.033203"/>
     <use xlink:href="#DejaVuSans-69" x="236.035156"/>
     <use xlink:href="#DejaVuSans-66" x="263.818359"/>
     <use xlink:href="#DejaVuSans-66" x="299.023438"/>
     <use xlink:href="#DejaVuSans-2e" x="326.978516"/>
     <use xlink:href="#DejaVuSans-20" x="358.765625"/>
     <use xlink:href="#DejaVuSans-50" x="390.552734"/>
     <use xlink:href="#DejaVuSans-6f" x="447.230469"/>
     <use xlink:href="#DejaVuSans-77" x="508.412109"/>
     <use xlink:href="#DejaVuSans-65" x="590.199219"/>
     <use xlink:href="#DejaVuSans-72" x="651.722656"/>
     <use xlink:href="#DejaVuSans-73" x="692.835938"/>
     <use xlink:href="#DejaVuSans-2f" x="744.935547"/>
     <use xlink:href="#DejaVuSans-47" x="778.626953"/>
     <use xlink:href="#DejaVuSans-61" x="856.117188"/>
     <use xlink:href="#DejaVuSans-6c" x="917.396484"/>
     <use xlink:href="#DejaVuSans-6c" x="945.179688"/>
     <use xlink:href="#DejaVuSans-61" x="972.962891"/>
     <use xlink:href="#DejaVuSans-67" x="1034.242188"/>
     <use xlink:href="#DejaVuSans-68" x="1097.71875"/>
     <use xlink:href="#DejaVuSans-65" x="1161.097656"/>
     <use xlink:href="#DejaVuSans-72" x="1222.621094"/>
     <use xlink:href="#DejaVuSans-20" x="1263.734375"/>
     <use xlink:href="#DejaVuSans-31" x="1295.521484"/>
     <use xlink:href="#DejaVuSans-30" x="1359.144531"/>
     <use xlink:href="#DejaVuSans-31" x="1422.767578"/>
    </g>
   </g>
  </g>
 </g>
 <defs>
  <clipPath id="pdf3783e893">
   <rect x="57.6" y="27.648" width="303.2064" height="271.296"/>
  </clipPath>
 </defs>
</svg>
