<?xml version="1.0" encoding="utf-8" standalone="no"?>
<!DOCTYPE svg PUBLIC "-//W3C//DTD SVG 1.1//EN"
  "http://www.w3.org/Graphics/SVG/1.1/DTD/svg11.dtd">
<svg xmlns:xlink="http://www.w3.org/1999/xlink" width="460.8pt" height="345.6pt" viewBox="0 0 460.8 345.6" xmlns="http://www.w3.org/2000/svg" version="1.1">
 <metadata>
  <rdf:RDF xmlns:dc="http://purl.org/dc/elements/1.1/" xmlns:cc="http://creativecommons.org/ns#" xmlns:rdf="http://www.w3.org/1999/02/22-rdf-syntax-ns#">
   <cc:Work>
    <dc:type rdf:resource="http://purl.org/dc/dcmitype/StillImage"/>
    <dc:date>2023-02-16T10:14:38.070372</dc:date>
    <dc:format>image/svg+xml</dc:format>
    <dc:creator>
     <cc:Agent>
      <dc:title>Matplotlib v3.6.3, https://matplotlib.org/</dc:title>
     </cc:Agent>
    </dc:creator>
   </cc:Work>
  </rdf:RDF>
 </metadata>
 <defs>
  <style type="text/css">*{stroke-linejoin: round; stroke-linecap: butt}</style>
 </defs>
 <g id="figure_1">
  <g id="patch_1">
   <path d="M 0 345.6 
L 460.8 345.6 
L 460.8 0 
L 0 0 
z
" style="fill: #ffffff"/>
  </g>
  <g id="axes_1">
   <g id="patch_2">
    <path d="M 57.6 298.944 
L 360.8064 298.944 
L 360.8064 27.648 
L 57.6 27.648 
z
" style="fill: #ffffff"/>
   </g>
   <g id="matplotlib.axis_1">
    <g id="xtick_1">
     <g id="line2d_1">
      <path d="M 57.6 298.944 
L 57.6 27.648 
" clip-path="url(#pf894b24093)" style="fill: none; stroke: #b0b0b0; stroke-width: 0.8; stroke-linecap: square"/>
     </g>
     <g id="line2d_2">
      <defs>
       <path id="mce33df5206" d="M 0 0 
L 0 3.5 
" style="stroke: #000000; stroke-width: 0.8"/>
      </defs>
      <g>
       <use xlink:href="#mce33df5206" x="57.6" y="298.944" style="stroke: #000000; stroke-width: 0.8"/>
      </g>
     </g>
     <g id="text_1">
      <!-- 0 -->
      <g transform="translate(52.191875 318.861344) scale(0.17 -0.17)">
       <defs>
        <path id="DejaVuSans-30" d="M 2034 4250 
Q 1547 4250 1301 3770 
Q 1056 3291 1056 2328 
Q 1056 1369 1301 889 
Q 1547 409 2034 409 
Q 2525 409 2770 889 
Q 3016 1369 3016 2328 
Q 3016 3291 2770 3770 
Q 2525 4250 2034 4250 
z
M 2034 4750 
Q 2819 4750 3233 4129 
Q 3647 3509 3647 2328 
Q 3647 1150 3233 529 
Q 2819 -91 2034 -91 
Q 1250 -91 836 529 
Q 422 1150 422 2328 
Q 422 3509 836 4129 
Q 1250 4750 2034 4750 
z
" transform="scale(0.015625)"/>
       </defs>
       <use xlink:href="#DejaVuSans-30"/>
      </g>
     </g>
    </g>
    <g id="xtick_2">
     <g id="line2d_3">
      <path d="M 144.2304 298.944 
L 144.2304 27.648 
" clip-path="url(#pf894b24093)" style="fill: none; stroke: #b0b0b0; stroke-width: 0.8; stroke-linecap: square"/>
     </g>
     <g id="line2d_4">
      <g>
       <use xlink:href="#mce33df5206" x="144.2304" y="298.944" style="stroke: #000000; stroke-width: 0.8"/>
      </g>
     </g>
     <g id="text_2">
      <!-- 2 -->
      <g transform="translate(138.822275 318.861344) scale(0.17 -0.17)">
       <defs>
        <path id="DejaVuSans-32" d="M 1228 531 
L 3431 531 
L 3431 0 
L 469 0 
L 469 531 
Q 828 903 1448 1529 
Q 2069 2156 2228 2338 
Q 2531 2678 2651 2914 
Q 2772 3150 2772 3378 
Q 2772 3750 2511 3984 
Q 2250 4219 1831 4219 
Q 1534 4219 1204 4116 
Q 875 4013 500 3803 
L 500 4441 
Q 881 4594 1212 4672 
Q 1544 4750 1819 4750 
Q 2544 4750 2975 4387 
Q 3406 4025 3406 3419 
Q 3406 3131 3298 2873 
Q 3191 2616 2906 2266 
Q 2828 2175 2409 1742 
Q 1991 1309 1228 531 
z
" transform="scale(0.015625)"/>
       </defs>
       <use xlink:href="#DejaVuSans-32"/>
      </g>
     </g>
    </g>
    <g id="xtick_3">
     <g id="line2d_5">
      <path d="M 230.8608 298.944 
L 230.8608 27.648 
" clip-path="url(#pf894b24093)" style="fill: none; stroke: #b0b0b0; stroke-width: 0.8; stroke-linecap: square"/>
     </g>
     <g id="line2d_6">
      <g>
       <use xlink:href="#mce33df5206" x="230.8608" y="298.944" style="stroke: #000000; stroke-width: 0.8"/>
      </g>
     </g>
     <g id="text_3">
      <!-- 4 -->
      <g transform="translate(225.452675 318.861344) scale(0.17 -0.17)">
       <defs>
        <path id="DejaVuSans-34" d="M 2419 4116 
L 825 1625 
L 2419 1625 
L 2419 4116 
z
M 2253 4666 
L 3047 4666 
L 3047 1625 
L 3713 1625 
L 3713 1100 
L 3047 1100 
L 3047 0 
L 2419 0 
L 2419 1100 
L 313 1100 
L 313 1709 
L 2253 4666 
z
" transform="scale(0.015625)"/>
       </defs>
       <use xlink:href="#DejaVuSans-34"/>
      </g>
     </g>
    </g>
    <g id="xtick_4">
     <g id="line2d_7">
      <path d="M 317.4912 298.944 
L 317.4912 27.648 
" clip-path="url(#pf894b24093)" style="fill: none; stroke: #b0b0b0; stroke-width: 0.8; stroke-linecap: square"/>
     </g>
     <g id="line2d_8">
      <g>
       <use xlink:href="#mce33df5206" x="317.4912" y="298.944" style="stroke: #000000; stroke-width: 0.8"/>
      </g>
     </g>
     <g id="text_4">
      <!-- 6 -->
      <g transform="translate(312.083075 318.861344) scale(0.17 -0.17)">
       <defs>
        <path id="DejaVuSans-36" d="M 2113 2584 
Q 1688 2584 1439 2293 
Q 1191 2003 1191 1497 
Q 1191 994 1439 701 
Q 1688 409 2113 409 
Q 2538 409 2786 701 
Q 3034 994 3034 1497 
Q 3034 2003 2786 2293 
Q 2538 2584 2113 2584 
z
M 3366 4563 
L 3366 3988 
Q 3128 4100 2886 4159 
Q 2644 4219 2406 4219 
Q 1781 4219 1451 3797 
Q 1122 3375 1075 2522 
Q 1259 2794 1537 2939 
Q 1816 3084 2150 3084 
Q 2853 3084 3261 2657 
Q 3669 2231 3669 1497 
Q 3669 778 3244 343 
Q 2819 -91 2113 -91 
Q 1303 -91 875 529 
Q 447 1150 447 2328 
Q 447 3434 972 4092 
Q 1497 4750 2381 4750 
Q 2619 4750 2861 4703 
Q 3103 4656 3366 4563 
z
" transform="scale(0.015625)"/>
       </defs>
       <use xlink:href="#DejaVuSans-36"/>
      </g>
     </g>
    </g>
    <g id="xtick_5">
     <g id="line2d_9">
      <path d="M 100.9152 298.944 
L 100.9152 27.648 
" clip-path="url(#pf894b24093)" style="fill: none; stroke: #b0b0b0; stroke-width: 0.8; stroke-linecap: square"/>
     </g>
     <g id="line2d_10">
      <defs>
       <path id="m9f1d41b415" d="M 0 0 
L 0 2 
" style="stroke: #000000; stroke-width: 0.6"/>
      </defs>
      <g>
       <use xlink:href="#m9f1d41b415" x="100.9152" y="298.944" style="stroke: #000000; stroke-width: 0.6"/>
      </g>
     </g>
    </g>
    <g id="xtick_6">
     <g id="line2d_11">
      <path d="M 187.5456 298.944 
L 187.5456 27.648 
" clip-path="url(#pf894b24093)" style="fill: none; stroke: #b0b0b0; stroke-width: 0.8; stroke-linecap: square"/>
     </g>
     <g id="line2d_12">
      <g>
       <use xlink:href="#m9f1d41b415" x="187.5456" y="298.944" style="stroke: #000000; stroke-width: 0.6"/>
      </g>
     </g>
    </g>
    <g id="xtick_7">
     <g id="line2d_13">
      <path d="M 274.176 298.944 
L 274.176 27.648 
" clip-path="url(#pf894b24093)" style="fill: none; stroke: #b0b0b0; stroke-width: 0.8; stroke-linecap: square"/>
     </g>
     <g id="line2d_14">
      <g>
       <use xlink:href="#m9f1d41b415" x="274.176" y="298.944" style="stroke: #000000; stroke-width: 0.6"/>
      </g>
     </g>
    </g>
    <g id="xtick_8">
     <g id="line2d_15">
      <path d="M 360.8064 298.944 
L 360.8064 27.648 
" clip-path="url(#pf894b24093)" style="fill: none; stroke: #b0b0b0; stroke-width: 0.8; stroke-linecap: square"/>
     </g>
     <g id="line2d_16">
      <g>
       <use xlink:href="#m9f1d41b415" x="360.8064" y="298.944" style="stroke: #000000; stroke-width: 0.6"/>
      </g>
     </g>
    </g>
    <g id="text_5">
     <!-- log10(# f-evals / dimension) -->
     <g transform="translate(88.823278 339.314156) scale(0.17 -0.17)">
      <defs>
       <path id="DejaVuSans-6c" d="M 603 4863 
L 1178 4863 
L 1178 0 
L 603 0 
L 603 4863 
z
" transform="scale(0.015625)"/>
       <path id="DejaVuSans-6f" d="M 1959 3097 
Q 1497 3097 1228 2736 
Q 959 2375 959 1747 
Q 959 1119 1226 758 
Q 1494 397 1959 397 
Q 2419 397 2687 759 
Q 2956 1122 2956 1747 
Q 2956 2369 2687 2733 
Q 2419 3097 1959 3097 
z
M 1959 3584 
Q 2709 3584 3137 3096 
Q 3566 2609 3566 1747 
Q 3566 888 3137 398 
Q 2709 -91 1959 -91 
Q 1206 -91 779 398 
Q 353 888 353 1747 
Q 353 2609 779 3096 
Q 1206 3584 1959 3584 
z
" transform="scale(0.015625)"/>
       <path id="DejaVuSans-67" d="M 2906 1791 
Q 2906 2416 2648 2759 
Q 2391 3103 1925 3103 
Q 1463 3103 1205 2759 
Q 947 2416 947 1791 
Q 947 1169 1205 825 
Q 1463 481 1925 481 
Q 2391 481 2648 825 
Q 2906 1169 2906 1791 
z
M 3481 434 
Q 3481 -459 3084 -895 
Q 2688 -1331 1869 -1331 
Q 1566 -1331 1297 -1286 
Q 1028 -1241 775 -1147 
L 775 -588 
Q 1028 -725 1275 -790 
Q 1522 -856 1778 -856 
Q 2344 -856 2625 -561 
Q 2906 -266 2906 331 
L 2906 616 
Q 2728 306 2450 153 
Q 2172 0 1784 0 
Q 1141 0 747 490 
Q 353 981 353 1791 
Q 353 2603 747 3093 
Q 1141 3584 1784 3584 
Q 2172 3584 2450 3431 
Q 2728 3278 2906 2969 
L 2906 3500 
L 3481 3500 
L 3481 434 
z
" transform="scale(0.015625)"/>
       <path id="DejaVuSans-31" d="M 794 531 
L 1825 531 
L 1825 4091 
L 703 3866 
L 703 4441 
L 1819 4666 
L 2450 4666 
L 2450 531 
L 3481 531 
L 3481 0 
L 794 0 
L 794 531 
z
" transform="scale(0.015625)"/>
       <path id="DejaVuSans-28" d="M 1984 4856 
Q 1566 4138 1362 3434 
Q 1159 2731 1159 2009 
Q 1159 1288 1364 580 
Q 1569 -128 1984 -844 
L 1484 -844 
Q 1016 -109 783 600 
Q 550 1309 550 2009 
Q 550 2706 781 3412 
Q 1013 4119 1484 4856 
L 1984 4856 
z
" transform="scale(0.015625)"/>
       <path id="DejaVuSans-23" d="M 3272 2816 
L 2363 2816 
L 2100 1772 
L 3016 1772 
L 3272 2816 
z
M 2803 4594 
L 2478 3297 
L 3391 3297 
L 3719 4594 
L 4219 4594 
L 3897 3297 
L 4872 3297 
L 4872 2816 
L 3775 2816 
L 3519 1772 
L 4513 1772 
L 4513 1294 
L 3397 1294 
L 3072 0 
L 2572 0 
L 2894 1294 
L 1978 1294 
L 1656 0 
L 1153 0 
L 1478 1294 
L 494 1294 
L 494 1772 
L 1594 1772 
L 1856 2816 
L 850 2816 
L 850 3297 
L 1978 3297 
L 2297 4594 
L 2803 4594 
z
" transform="scale(0.015625)"/>
       <path id="DejaVuSans-20" transform="scale(0.015625)"/>
       <path id="DejaVuSans-66" d="M 2375 4863 
L 2375 4384 
L 1825 4384 
Q 1516 4384 1395 4259 
Q 1275 4134 1275 3809 
L 1275 3500 
L 2222 3500 
L 2222 3053 
L 1275 3053 
L 1275 0 
L 697 0 
L 697 3053 
L 147 3053 
L 147 3500 
L 697 3500 
L 697 3744 
Q 697 4328 969 4595 
Q 1241 4863 1831 4863 
L 2375 4863 
z
" transform="scale(0.015625)"/>
       <path id="DejaVuSans-2d" d="M 313 2009 
L 1997 2009 
L 1997 1497 
L 313 1497 
L 313 2009 
z
" transform="scale(0.015625)"/>
       <path id="DejaVuSans-65" d="M 3597 1894 
L 3597 1613 
L 953 1613 
Q 991 1019 1311 708 
Q 1631 397 2203 397 
Q 2534 397 2845 478 
Q 3156 559 3463 722 
L 3463 178 
Q 3153 47 2828 -22 
Q 2503 -91 2169 -91 
Q 1331 -91 842 396 
Q 353 884 353 1716 
Q 353 2575 817 3079 
Q 1281 3584 2069 3584 
Q 2775 3584 3186 3129 
Q 3597 2675 3597 1894 
z
M 3022 2063 
Q 3016 2534 2758 2815 
Q 2500 3097 2075 3097 
Q 1594 3097 1305 2825 
Q 1016 2553 972 2059 
L 3022 2063 
z
" transform="scale(0.015625)"/>
       <path id="DejaVuSans-76" d="M 191 3500 
L 800 3500 
L 1894 563 
L 2988 3500 
L 3597 3500 
L 2284 0 
L 1503 0 
L 191 3500 
z
" transform="scale(0.015625)"/>
       <path id="DejaVuSans-61" d="M 2194 1759 
Q 1497 1759 1228 1600 
Q 959 1441 959 1056 
Q 959 750 1161 570 
Q 1363 391 1709 391 
Q 2188 391 2477 730 
Q 2766 1069 2766 1631 
L 2766 1759 
L 2194 1759 
z
M 3341 1997 
L 3341 0 
L 2766 0 
L 2766 531 
Q 2569 213 2275 61 
Q 1981 -91 1556 -91 
Q 1019 -91 701 211 
Q 384 513 384 1019 
Q 384 1609 779 1909 
Q 1175 2209 1959 2209 
L 2766 2209 
L 2766 2266 
Q 2766 2663 2505 2880 
Q 2244 3097 1772 3097 
Q 1472 3097 1187 3025 
Q 903 2953 641 2809 
L 641 3341 
Q 956 3463 1253 3523 
Q 1550 3584 1831 3584 
Q 2591 3584 2966 3190 
Q 3341 2797 3341 1997 
z
" transform="scale(0.015625)"/>
       <path id="DejaVuSans-73" d="M 2834 3397 
L 2834 2853 
Q 2591 2978 2328 3040 
Q 2066 3103 1784 3103 
Q 1356 3103 1142 2972 
Q 928 2841 928 2578 
Q 928 2378 1081 2264 
Q 1234 2150 1697 2047 
L 1894 2003 
Q 2506 1872 2764 1633 
Q 3022 1394 3022 966 
Q 3022 478 2636 193 
Q 2250 -91 1575 -91 
Q 1294 -91 989 -36 
Q 684 19 347 128 
L 347 722 
Q 666 556 975 473 
Q 1284 391 1588 391 
Q 1994 391 2212 530 
Q 2431 669 2431 922 
Q 2431 1156 2273 1281 
Q 2116 1406 1581 1522 
L 1381 1569 
Q 847 1681 609 1914 
Q 372 2147 372 2553 
Q 372 3047 722 3315 
Q 1072 3584 1716 3584 
Q 2034 3584 2315 3537 
Q 2597 3491 2834 3397 
z
" transform="scale(0.015625)"/>
       <path id="DejaVuSans-2f" d="M 1625 4666 
L 2156 4666 
L 531 -594 
L 0 -594 
L 1625 4666 
z
" transform="scale(0.015625)"/>
       <path id="DejaVuSans-64" d="M 2906 2969 
L 2906 4863 
L 3481 4863 
L 3481 0 
L 2906 0 
L 2906 525 
Q 2725 213 2448 61 
Q 2172 -91 1784 -91 
Q 1150 -91 751 415 
Q 353 922 353 1747 
Q 353 2572 751 3078 
Q 1150 3584 1784 3584 
Q 2172 3584 2448 3432 
Q 2725 3281 2906 2969 
z
M 947 1747 
Q 947 1113 1208 752 
Q 1469 391 1925 391 
Q 2381 391 2643 752 
Q 2906 1113 2906 1747 
Q 2906 2381 2643 2742 
Q 2381 3103 1925 3103 
Q 1469 3103 1208 2742 
Q 947 2381 947 1747 
z
" transform="scale(0.015625)"/>
       <path id="DejaVuSans-69" d="M 603 3500 
L 1178 3500 
L 1178 0 
L 603 0 
L 603 3500 
z
M 603 4863 
L 1178 4863 
L 1178 4134 
L 603 4134 
L 603 4863 
z
" transform="scale(0.015625)"/>
       <path id="DejaVuSans-6d" d="M 3328 2828 
Q 3544 3216 3844 3400 
Q 4144 3584 4550 3584 
Q 5097 3584 5394 3201 
Q 5691 2819 5691 2113 
L 5691 0 
L 5113 0 
L 5113 2094 
Q 5113 2597 4934 2840 
Q 4756 3084 4391 3084 
Q 3944 3084 3684 2787 
Q 3425 2491 3425 1978 
L 3425 0 
L 2847 0 
L 2847 2094 
Q 2847 2600 2669 2842 
Q 2491 3084 2119 3084 
Q 1678 3084 1418 2786 
Q 1159 2488 1159 1978 
L 1159 0 
L 581 0 
L 581 3500 
L 1159 3500 
L 1159 2956 
Q 1356 3278 1631 3431 
Q 1906 3584 2284 3584 
Q 2666 3584 2933 3390 
Q 3200 3197 3328 2828 
z
" transform="scale(0.015625)"/>
       <path id="DejaVuSans-6e" d="M 3513 2113 
L 3513 0 
L 2938 0 
L 2938 2094 
Q 2938 2591 2744 2837 
Q 2550 3084 2163 3084 
Q 1697 3084 1428 2787 
Q 1159 2491 1159 1978 
L 1159 0 
L 581 0 
L 581 3500 
L 1159 3500 
L 1159 2956 
Q 1366 3272 1645 3428 
Q 1925 3584 2291 3584 
Q 2894 3584 3203 3211 
Q 3513 2838 3513 2113 
z
" transform="scale(0.015625)"/>
       <path id="DejaVuSans-29" d="M 513 4856 
L 1013 4856 
Q 1481 4119 1714 3412 
Q 1947 2706 1947 2009 
Q 1947 1309 1714 600 
Q 1481 -109 1013 -844 
L 513 -844 
Q 928 -128 1133 580 
Q 1338 1288 1338 2009 
Q 1338 2731 1133 3434 
Q 928 4138 513 4856 
z
" transform="scale(0.015625)"/>
      </defs>
      <use xlink:href="#DejaVuSans-6c"/>
      <use xlink:href="#DejaVuSans-6f" x="27.783203"/>
      <use xlink:href="#DejaVuSans-67" x="88.964844"/>
      <use xlink:href="#DejaVuSans-31" x="152.441406"/>
      <use xlink:href="#DejaVuSans-30" x="216.064453"/>
      <use xlink:href="#DejaVuSans-28" x="279.6875"/>
      <use xlink:href="#DejaVuSans-23" x="318.701172"/>
      <use xlink:href="#DejaVuSans-20" x="402.490234"/>
      <use xlink:href="#DejaVuSans-66" x="434.277344"/>
      <use xlink:href="#DejaVuSans-2d" x="463.982422"/>
      <use xlink:href="#DejaVuSans-65" x="500.066406"/>
      <use xlink:href="#DejaVuSans-76" x="561.589844"/>
      <use xlink:href="#DejaVuSans-61" x="620.769531"/>
      <use xlink:href="#DejaVuSans-6c" x="682.048828"/>
      <use xlink:href="#DejaVuSans-73" x="709.832031"/>
      <use xlink:href="#DejaVuSans-20" x="761.931641"/>
      <use xlink:href="#DejaVuSans-2f" x="793.71875"/>
      <use xlink:href="#DejaVuSans-20" x="827.410156"/>
      <use xlink:href="#DejaVuSans-64" x="859.197266"/>
      <use xlink:href="#DejaVuSans-69" x="922.673828"/>
      <use xlink:href="#DejaVuSans-6d" x="950.457031"/>
      <use xlink:href="#DejaVuSans-65" x="1047.869141"/>
      <use xlink:href="#DejaVuSans-6e" x="1109.392578"/>
      <use xlink:href="#DejaVuSans-73" x="1172.771484"/>
      <use xlink:href="#DejaVuSans-69" x="1224.871094"/>
      <use xlink:href="#DejaVuSans-6f" x="1252.654297"/>
      <use xlink:href="#DejaVuSans-6e" x="1313.835938"/>
      <use xlink:href="#DejaVuSans-29" x="1377.214844"/>
     </g>
    </g>
   </g>
   <g id="matplotlib.axis_2">
    <g id="ytick_1">
     <g id="line2d_17">
      <path d="M 57.6 298.944 
L 360.8064 298.944 
" clip-path="url(#pf894b24093)" style="fill: none; stroke: #b0b0b0; stroke-width: 0.8; stroke-linecap: square"/>
     </g>
     <g id="line2d_18">
      <defs>
       <path id="mf0e4a6b37c" d="M 0 0 
L -3.5 0 
" style="stroke: #000000; stroke-width: 0.8"/>
      </defs>
      <g>
       <use xlink:href="#mf0e4a6b37c" x="57.6" y="298.944" style="stroke: #000000; stroke-width: 0.8"/>
      </g>
     </g>
     <g id="text_6">
      <!-- 0.0 -->
      <g transform="translate(25.155 305.02275) scale(0.16 -0.16)">
       <defs>
        <path id="DejaVuSans-2e" d="M 684 794 
L 1344 794 
L 1344 0 
L 684 0 
L 684 794 
z
" transform="scale(0.015625)"/>
       </defs>
       <use xlink:href="#DejaVuSans-30"/>
       <use xlink:href="#DejaVuSans-2e" x="63.623047"/>
       <use xlink:href="#DejaVuSans-30" x="95.410156"/>
      </g>
     </g>
    </g>
    <g id="ytick_2">
     <g id="line2d_19">
      <path d="M 57.6 244.6848 
L 360.8064 244.6848 
" clip-path="url(#pf894b24093)" style="fill: none; stroke: #b0b0b0; stroke-width: 0.8; stroke-linecap: square"/>
     </g>
     <g id="line2d_20">
      <g>
       <use xlink:href="#mf0e4a6b37c" x="57.6" y="244.6848" style="stroke: #000000; stroke-width: 0.8"/>
      </g>
     </g>
     <g id="text_7">
      <!-- 0.2 -->
      <g transform="translate(25.155 250.76355) scale(0.16 -0.16)">
       <use xlink:href="#DejaVuSans-30"/>
       <use xlink:href="#DejaVuSans-2e" x="63.623047"/>
       <use xlink:href="#DejaVuSans-32" x="95.410156"/>
      </g>
     </g>
    </g>
    <g id="ytick_3">
     <g id="line2d_21">
      <path d="M 57.6 190.4256 
L 360.8064 190.4256 
" clip-path="url(#pf894b24093)" style="fill: none; stroke: #b0b0b0; stroke-width: 0.8; stroke-linecap: square"/>
     </g>
     <g id="line2d_22">
      <g>
       <use xlink:href="#mf0e4a6b37c" x="57.6" y="190.4256" style="stroke: #000000; stroke-width: 0.8"/>
      </g>
     </g>
     <g id="text_8">
      <!-- 0.4 -->
      <g transform="translate(25.155 196.50435) scale(0.16 -0.16)">
       <use xlink:href="#DejaVuSans-30"/>
       <use xlink:href="#DejaVuSans-2e" x="63.623047"/>
       <use xlink:href="#DejaVuSans-34" x="95.410156"/>
      </g>
     </g>
    </g>
    <g id="ytick_4">
     <g id="line2d_23">
      <path d="M 57.6 136.1664 
L 360.8064 136.1664 
" clip-path="url(#pf894b24093)" style="fill: none; stroke: #b0b0b0; stroke-width: 0.8; stroke-linecap: square"/>
     </g>
     <g id="line2d_24">
      <g>
       <use xlink:href="#mf0e4a6b37c" x="57.6" y="136.1664" style="stroke: #000000; stroke-width: 0.8"/>
      </g>
     </g>
     <g id="text_9">
      <!-- 0.6 -->
      <g transform="translate(25.155 142.24515) scale(0.16 -0.16)">
       <use xlink:href="#DejaVuSans-30"/>
       <use xlink:href="#DejaVuSans-2e" x="63.623047"/>
       <use xlink:href="#DejaVuSans-36" x="95.410156"/>
      </g>
     </g>
    </g>
    <g id="ytick_5">
     <g id="line2d_25">
      <path d="M 57.6 81.9072 
L 360.8064 81.9072 
" clip-path="url(#pf894b24093)" style="fill: none; stroke: #b0b0b0; stroke-width: 0.8; stroke-linecap: square"/>
     </g>
     <g id="line2d_26">
      <g>
       <use xlink:href="#mf0e4a6b37c" x="57.6" y="81.9072" style="stroke: #000000; stroke-width: 0.8"/>
      </g>
     </g>
     <g id="text_10">
      <!-- 0.8 -->
      <g transform="translate(25.155 87.98595) scale(0.16 -0.16)">
       <defs>
        <path id="DejaVuSans-38" d="M 2034 2216 
Q 1584 2216 1326 1975 
Q 1069 1734 1069 1313 
Q 1069 891 1326 650 
Q 1584 409 2034 409 
Q 2484 409 2743 651 
Q 3003 894 3003 1313 
Q 3003 1734 2745 1975 
Q 2488 2216 2034 2216 
z
M 1403 2484 
Q 997 2584 770 2862 
Q 544 3141 544 3541 
Q 544 4100 942 4425 
Q 1341 4750 2034 4750 
Q 2731 4750 3128 4425 
Q 3525 4100 3525 3541 
Q 3525 3141 3298 2862 
Q 3072 2584 2669 2484 
Q 3125 2378 3379 2068 
Q 3634 1759 3634 1313 
Q 3634 634 3220 271 
Q 2806 -91 2034 -91 
Q 1263 -91 848 271 
Q 434 634 434 1313 
Q 434 1759 690 2068 
Q 947 2378 1403 2484 
z
M 1172 3481 
Q 1172 3119 1398 2916 
Q 1625 2713 2034 2713 
Q 2441 2713 2670 2916 
Q 2900 3119 2900 3481 
Q 2900 3844 2670 4047 
Q 2441 4250 2034 4250 
Q 1625 4250 1398 4047 
Q 1172 3844 1172 3481 
z
" transform="scale(0.015625)"/>
       </defs>
       <use xlink:href="#DejaVuSans-30"/>
       <use xlink:href="#DejaVuSans-2e" x="63.623047"/>
       <use xlink:href="#DejaVuSans-38" x="95.410156"/>
      </g>
     </g>
    </g>
    <g id="ytick_6">
     <g id="line2d_27">
      <path d="M 57.6 27.648 
L 360.8064 27.648 
" clip-path="url(#pf894b24093)" style="fill: none; stroke: #b0b0b0; stroke-width: 0.8; stroke-linecap: square"/>
     </g>
     <g id="line2d_28">
      <g>
       <use xlink:href="#mf0e4a6b37c" x="57.6" y="27.648" style="stroke: #000000; stroke-width: 0.8"/>
      </g>
     </g>
     <g id="text_11">
      <!-- 1.0 -->
      <g transform="translate(25.155 33.72675) scale(0.16 -0.16)">
       <use xlink:href="#DejaVuSans-31"/>
       <use xlink:href="#DejaVuSans-2e" x="63.623047"/>
       <use xlink:href="#DejaVuSans-30" x="95.410156"/>
      </g>
     </g>
    </g>
    <g id="text_12">
     <!-- Fraction of function,target pairs -->
     <g transform="translate(17.619531 297.681) rotate(-90) scale(0.17 -0.17)">
      <defs>
       <path id="DejaVuSans-46" d="M 628 4666 
L 3309 4666 
L 3309 4134 
L 1259 4134 
L 1259 2759 
L 3109 2759 
L 3109 2228 
L 1259 2228 
L 1259 0 
L 628 0 
L 628 4666 
z
" transform="scale(0.015625)"/>
       <path id="DejaVuSans-72" d="M 2631 2963 
Q 2534 3019 2420 3045 
Q 2306 3072 2169 3072 
Q 1681 3072 1420 2755 
Q 1159 2438 1159 1844 
L 1159 0 
L 581 0 
L 581 3500 
L 1159 3500 
L 1159 2956 
Q 1341 3275 1631 3429 
Q 1922 3584 2338 3584 
Q 2397 3584 2469 3576 
Q 2541 3569 2628 3553 
L 2631 2963 
z
" transform="scale(0.015625)"/>
       <path id="DejaVuSans-63" d="M 3122 3366 
L 3122 2828 
Q 2878 2963 2633 3030 
Q 2388 3097 2138 3097 
Q 1578 3097 1268 2742 
Q 959 2388 959 1747 
Q 959 1106 1268 751 
Q 1578 397 2138 397 
Q 2388 397 2633 464 
Q 2878 531 3122 666 
L 3122 134 
Q 2881 22 2623 -34 
Q 2366 -91 2075 -91 
Q 1284 -91 818 406 
Q 353 903 353 1747 
Q 353 2603 823 3093 
Q 1294 3584 2113 3584 
Q 2378 3584 2631 3529 
Q 2884 3475 3122 3366 
z
" transform="scale(0.015625)"/>
       <path id="DejaVuSans-74" d="M 1172 4494 
L 1172 3500 
L 2356 3500 
L 2356 3053 
L 1172 3053 
L 1172 1153 
Q 1172 725 1289 603 
Q 1406 481 1766 481 
L 2356 481 
L 2356 0 
L 1766 0 
Q 1100 0 847 248 
Q 594 497 594 1153 
L 594 3053 
L 172 3053 
L 172 3500 
L 594 3500 
L 594 4494 
L 1172 4494 
z
" transform="scale(0.015625)"/>
       <path id="DejaVuSans-75" d="M 544 1381 
L 544 3500 
L 1119 3500 
L 1119 1403 
Q 1119 906 1312 657 
Q 1506 409 1894 409 
Q 2359 409 2629 706 
Q 2900 1003 2900 1516 
L 2900 3500 
L 3475 3500 
L 3475 0 
L 2900 0 
L 2900 538 
Q 2691 219 2414 64 
Q 2138 -91 1772 -91 
Q 1169 -91 856 284 
Q 544 659 544 1381 
z
M 1991 3584 
L 1991 3584 
z
" transform="scale(0.015625)"/>
       <path id="DejaVuSans-2c" d="M 750 794 
L 1409 794 
L 1409 256 
L 897 -744 
L 494 -744 
L 750 256 
L 750 794 
z
" transform="scale(0.015625)"/>
       <path id="DejaVuSans-70" d="M 1159 525 
L 1159 -1331 
L 581 -1331 
L 581 3500 
L 1159 3500 
L 1159 2969 
Q 1341 3281 1617 3432 
Q 1894 3584 2278 3584 
Q 2916 3584 3314 3078 
Q 3713 2572 3713 1747 
Q 3713 922 3314 415 
Q 2916 -91 2278 -91 
Q 1894 -91 1617 61 
Q 1341 213 1159 525 
z
M 3116 1747 
Q 3116 2381 2855 2742 
Q 2594 3103 2138 3103 
Q 1681 3103 1420 2742 
Q 1159 2381 1159 1747 
Q 1159 1113 1420 752 
Q 1681 391 2138 391 
Q 2594 391 2855 752 
Q 3116 1113 3116 1747 
z
" transform="scale(0.015625)"/>
      </defs>
      <use xlink:href="#DejaVuSans-46"/>
      <use xlink:href="#DejaVuSans-72" x="50.269531"/>
      <use xlink:href="#DejaVuSans-61" x="91.382812"/>
      <use xlink:href="#DejaVuSans-63" x="152.662109"/>
      <use xlink:href="#DejaVuSans-74" x="207.642578"/>
      <use xlink:href="#DejaVuSans-69" x="246.851562"/>
      <use xlink:href="#DejaVuSans-6f" x="274.634766"/>
      <use xlink:href="#DejaVuSans-6e" x="335.816406"/>
      <use xlink:href="#DejaVuSans-20" x="399.195312"/>
      <use xlink:href="#DejaVuSans-6f" x="430.982422"/>
      <use xlink:href="#DejaVuSans-66" x="492.164062"/>
      <use xlink:href="#DejaVuSans-20" x="527.369141"/>
      <use xlink:href="#DejaVuSans-66" x="559.15625"/>
      <use xlink:href="#DejaVuSans-75" x="594.361328"/>
      <use xlink:href="#DejaVuSans-6e" x="657.740234"/>
      <use xlink:href="#DejaVuSans-63" x="721.119141"/>
      <use xlink:href="#DejaVuSans-74" x="776.099609"/>
      <use xlink:href="#DejaVuSans-69" x="815.308594"/>
      <use xlink:href="#DejaVuSans-6f" x="843.091797"/>
      <use xlink:href="#DejaVuSans-6e" x="904.273438"/>
      <use xlink:href="#DejaVuSans-2c" x="967.652344"/>
      <use xlink:href="#DejaVuSans-74" x="999.439453"/>
      <use xlink:href="#DejaVuSans-61" x="1038.648438"/>
      <use xlink:href="#DejaVuSans-72" x="1099.927734"/>
      <use xlink:href="#DejaVuSans-67" x="1139.291016"/>
      <use xlink:href="#DejaVuSans-65" x="1202.767578"/>
      <use xlink:href="#DejaVuSans-74" x="1264.291016"/>
      <use xlink:href="#DejaVuSans-20" x="1303.5"/>
      <use xlink:href="#DejaVuSans-70" x="1335.287109"/>
      <use xlink:href="#DejaVuSans-61" x="1398.763672"/>
      <use xlink:href="#DejaVuSans-69" x="1460.042969"/>
      <use xlink:href="#DejaVuSans-72" x="1487.826172"/>
      <use xlink:href="#DejaVuSans-73" x="1528.939453"/>
     </g>
    </g>
   </g>
   <g id="line2d_29">
    <defs>
     <path id="m71f1697961" d="M 0 1.5 
C 0.397805 1.5 0.77937 1.341951 1.06066 1.06066 
C 1.341951 0.77937 1.5 0.397805 1.5 0 
C 1.5 -0.397805 1.341951 -0.77937 1.06066 -1.06066 
C 0.77937 -1.341951 0.397805 -1.5 0 -1.5 
C -0.397805 -1.5 -0.77937 -1.341951 -1.06066 -1.06066 
C -1.341951 -0.77937 -1.5 -0.397805 -1.5 0 
C -1.5 0.397805 -1.341951 0.77937 -1.06066 1.06066 
C -0.77937 1.341951 -0.397805 1.5 0 1.5 
z
" style="stroke: #00bfbf"/>
    </defs>
    <g>
     <use xlink:href="#m71f1697961" x="186.079022" y="195.103117" style="fill: #00bfbf; stroke: #00bfbf"/>
     <use xlink:href="#m71f1697961" x="186.079022" y="195.103117" style="fill: #00bfbf; stroke: #00bfbf"/>
    </g>
   </g>
   <g id="line2d_30">
    <path d="M 44.560826 298.944 
L 44.560826 287.250207 
L 57.6 287.250207 
L 57.6 281.637186 
L 85.894031 281.637186 
L 85.894031 276.024166 
L 96.717523 276.024166 
L 96.717523 275.088662 
L 103.544339 275.088662 
L 103.544339 272.282152 
L 108.542628 272.282152 
L 108.542628 267.604634 
L 112.487797 267.604634 
L 112.487797 266.201379 
L 115.747307 266.201379 
L 115.747307 263.862621 
L 118.524569 263.862621 
L 118.524569 261.05611 
L 120.944062 261.05611 
L 120.944062 260.588359 
L 123.08753 260.588359 
L 123.08753 260.120607 
L 125.011554 260.120607 
L 125.011554 259.652855 
L 126.756923 259.652855 
L 126.756923 258.717352 
L 128.354013 258.717352 
L 128.354013 256.378593 
L 129.826058 256.378593 
L 129.826058 254.975338 
L 131.191226 254.975338 
L 131.191226 254.507586 
L 132.46399 254.507586 
L 132.46399 252.636579 
L 133.656071 252.636579 
L 133.656071 251.233324 
L 134.77709 251.233324 
L 134.77709 249.830069 
L 135.835047 249.830069 
L 135.835047 248.894566 
L 138.692823 248.894566 
L 138.692823 247.023559 
L 139.556456 247.023559 
L 139.556456 244.217048 
L 141.932237 244.217048 
L 141.932237 243.281545 
L 143.364242 243.281545 
L 143.364242 242.346041 
L 144.041338 242.346041 
L 144.041338 241.410538 
L 144.694906 241.410538 
L 144.694906 240.007283 
L 145.326529 240.007283 
L 145.326529 239.071779 
L 149.238092 239.071779 
L 149.238092 236.265269 
L 149.73597 236.265269 
L 149.73597 235.797517 
L 150.221009 235.797517 
L 150.221009 235.329766 
L 150.693856 235.329766 
L 150.693856 234.862014 
L 151.155108 234.862014 
L 151.155108 234.394262 
L 152.474656 234.394262 
L 152.474656 232.523255 
L 154.101358 232.523255 
L 154.101358 231.587752 
L 154.486967 231.587752 
L 154.486967 231.12 
L 155.954908 231.12 
L 155.954908 230.184497 
L 156.304668 230.184497 
L 156.304668 229.716745 
L 156.985263 229.716745 
L 156.985263 228.31349 
L 157.642093 228.31349 
L 157.642093 227.377986 
L 157.962102 227.377986 
L 157.962102 226.442483 
L 159.485256 226.442483 
L 159.485256 225.506979 
L 159.775628 225.506979 
L 159.775628 224.571476 
L 160.061585 224.571476 
L 160.061585 224.103724 
L 161.950101 224.103724 
L 161.950101 222.700469 
L 162.205054 222.700469 
L 162.205054 222.232717 
L 162.949812 222.232717 
L 162.949812 221.297214 
L 165.021997 221.297214 
L 165.021997 219.893959 
L 165.45305 219.893959 
L 165.45305 218.958455 
L 165.664928 218.958455 
L 165.664928 217.087448 
L 165.874446 217.087448 
L 165.874446 215.216441 
L 166.081656 215.216441 
L 166.081656 214.74869 
L 166.689935 214.74869 
L 166.689935 214.280938 
L 166.888401 214.280938 
L 166.888401 212.409931 
L 167.471536 212.409931 
L 167.471536 211.942179 
L 170.472634 211.942179 
L 170.472634 211.474428 
L 170.796182 211.474428 
L 170.796182 211.006676 
L 170.955893 211.006676 
L 170.955893 210.538924 
L 171.88669 210.538924 
L 171.88669 209.603421 
L 172.037442 209.603421 
L 172.037442 208.667917 
L 172.335368 208.667917 
L 172.335368 207.732414 
L 173.620559 207.732414 
L 173.620559 207.264662 
L 174.431028 207.264662 
L 174.431028 206.329159 
L 175.831859 206.329159 
L 175.831859 205.861407 
L 176.316452 205.861407 
L 176.316452 205.393655 
L 176.554146 205.393655 
L 176.554146 204.925903 
L 176.671876 204.925903 
L 176.671876 203.054897 
L 177.810347 203.054897 
L 177.920494 201.651641 
L 178.568169 201.651641 
L 178.568169 200.716138 
L 178.779198 200.716138 
L 178.779198 200.248386 
L 179.60041 200.248386 
L 179.60041 199.780634 
L 180.862845 199.780634 
L 180.862845 199.312883 
L 182.823359 199.312883 
L 182.907797 197.909628 
L 183.075545 197.909628 
L 183.075545 196.974124 
L 183.24181 196.974124 
L 183.24181 196.038621 
L 183.488484 196.038621 
L 183.488484 195.570869 
L 186.079022 195.570869 
L 186.079022 195.103117 
L 360.8064 195.103117 
L 360.8064 195.103117 
" style="fill: none; stroke: #00bfbf; stroke-width: 1.5; stroke-linecap: square"/>
   </g>
   <g id="line2d_31">
    <defs>
     <path id="mf133c4feaf" d="M -6 0 
L 6 0 
M 0 6 
L 0 -6 
" style="stroke: #00bfbf; stroke-width: 1.5"/>
    </defs>
    <g>
     <use xlink:href="#mf133c4feaf" x="96.717523" y="275.088662" style="fill-opacity: 0; stroke: #00bfbf; stroke-width: 1.5"/>
     <use xlink:href="#mf133c4feaf" x="154.486967" y="231.12" style="fill-opacity: 0; stroke: #00bfbf; stroke-width: 1.5"/>
     <use xlink:href="#mf133c4feaf" x="179.60041" y="200.248386" style="fill-opacity: 0; stroke: #00bfbf; stroke-width: 1.5"/>
     <use xlink:href="#mf133c4feaf" x="186.079022" y="195.103117" style="fill-opacity: 0; stroke: #00bfbf; stroke-width: 1.5"/>
     <use xlink:href="#mf133c4feaf" x="186.079022" y="195.103117" style="fill-opacity: 0; stroke: #00bfbf; stroke-width: 1.5"/>
     <use xlink:href="#mf133c4feaf" x="360.8064" y="195.103117" style="fill-opacity: 0; stroke: #00bfbf; stroke-width: 1.5"/>
    </g>
   </g>
   <g id="line2d_32">
    <path style="fill: none; stroke: #00bfbf; stroke-width: 1.5; stroke-linecap: square"/>
    <g/>
   </g>
   <g id="line2d_33">
    <path d="M 187.507939 195.103117 
" clip-path="url(#pf894b24093)" style="fill: none; stroke: #00bfbf; stroke-width: 1.5; stroke-linecap: square"/>
    <defs>
     <path id="mf8d2e90480" d="M -12 12 
L 12 -12 
M -12 -12 
L 12 12 
" style="stroke: #00bfbf"/>
    </defs>
    <g clip-path="url(#pf894b24093)">
     <use xlink:href="#mf8d2e90480" x="187.507939" y="195.103117" style="fill: #00bfbf; stroke: #00bfbf"/>
    </g>
   </g>
   <g id="line2d_34">
    <defs>
     <path id="mff7e856d42" d="M 0 1.5 
C 0.397805 1.5 0.77937 1.341951 1.06066 1.06066 
C 1.341951 0.77937 1.5 0.397805 1.5 0 
C 1.5 -0.397805 1.341951 -0.77937 1.06066 -1.06066 
C 0.77937 -1.341951 0.397805 -1.5 0 -1.5 
C -0.397805 -1.5 -0.77937 -1.341951 -1.06066 -1.06066 
C -1.341951 -0.77937 -1.5 -0.397805 -1.5 0 
C -1.5 0.397805 -1.341951 0.77937 -1.06066 1.06066 
C -0.77937 1.341951 -0.397805 1.5 0 1.5 
z
" style="stroke: #008000"/>
    </defs>
    <g>
     <use xlink:href="#mff7e856d42" x="187.457607" y="196.038621" style="fill: #008000; stroke: #008000"/>
     <use xlink:href="#mff7e856d42" x="187.457607" y="196.038621" style="fill: #008000; stroke: #008000"/>
    </g>
   </g>
   <g id="line2d_35">
    <path d="M 36.933397 298.944 
L 36.933397 285.3792 
L 49.972572 285.3792 
L 49.972572 284.443697 
L 98.223251 284.443697 
L 98.223251 283.040441 
L 103.269713 283.040441 
L 103.269713 282.57269 
L 107.244765 282.57269 
L 107.244765 281.637186 
L 110.524623 281.637186 
L 110.524623 280.701683 
L 113.316634 280.701683 
L 113.316634 278.830676 
L 115.747307 278.830676 
L 115.747307 276.959669 
L 117.899543 276.959669 
L 117.899543 274.153159 
L 121.581803 274.153159 
L 121.581803 273.217655 
L 123.183753 273.217655 
L 123.183753 269.00789 
L 124.659926 269.00789 
L 124.659926 268.072386 
L 126.028642 268.072386 
L 126.028642 267.136883 
L 129.622688 267.136883 
L 129.622688 265.733628 
L 132.638982 265.733628 
L 132.638982 265.265876 
L 133.545739 265.265876 
L 133.545739 263.394869 
L 134.41079 263.394869 
L 134.41079 262.459366 
L 135.237805 262.459366 
L 135.237805 260.120607 
L 136.029987 260.120607 
L 136.029987 258.717352 
L 136.790153 258.717352 
L 136.790153 258.2496 
L 137.520791 258.2496 
L 137.520791 257.314097 
L 138.902075 257.314097 
L 138.902075 255.910841 
L 140.188837 255.910841 
L 140.188837 254.039834 
L 140.800648 254.039834 
L 140.800648 253.104331 
L 141.393187 253.104331 
L 141.393187 252.168828 
L 142.525051 252.168828 
L 142.525051 251.701076 
L 143.066428 251.701076 
L 143.066428 251.233324 
L 143.592659 251.233324 
L 143.592659 250.765572 
L 144.10457 250.765572 
L 144.10457 249.830069 
L 144.602918 249.830069 
L 144.602918 249.362317 
L 145.088405 249.362317 
L 145.088405 247.49131 
L 146.023332 247.49131 
L 146.023332 246.088055 
L 146.47393 246.088055 
L 146.47393 245.152552 
L 148.175569 245.152552 
L 148.175569 244.217048 
L 149.357835 244.217048 
L 149.357835 242.346041 
L 149.73597 242.346041 
L 149.73597 240.942786 
L 150.106653 240.942786 
L 150.106653 240.475034 
L 151.520392 240.475034 
L 151.520392 239.539531 
L 151.857828 239.539531 
L 151.857828 237.668524 
L 152.835271 237.668524 
L 152.835271 237.200772 
L 154.064218 237.200772 
L 154.064218 236.265269 
L 154.649839 236.265269 
L 154.649839 235.329766 
L 155.217778 235.329766 
L 155.217778 234.394262 
L 155.769072 234.394262 
L 155.769072 233.92651 
L 156.825436 233.92651 
L 156.825436 233.458759 
L 157.080512 233.458759 
L 157.080512 232.523255 
L 158.775302 232.523255 
L 158.775302 232.055503 
L 159.457367 232.055503 
L 159.457367 231.12 
L 159.679334 231.12 
L 159.679334 230.652248 
L 159.898714 230.652248 
L 159.898714 229.716745 
L 160.329943 229.716745 
L 160.329943 228.781241 
L 160.541906 228.781241 
L 160.541906 227.845738 
L 162.539702 227.845738 
L 162.539702 227.377986 
L 162.728291 227.377986 
L 162.728291 226.442483 
L 163.099889 226.442483 
L 163.099889 225.039228 
L 163.464289 225.039228 
L 163.464289 224.103724 
L 164.172572 224.103724 
L 164.172572 222.232717 
L 164.686815 222.232717 
L 164.686815 220.829462 
L 165.51383 220.829462 
L 165.51383 220.36171 
L 165.834717 220.36171 
L 165.834717 219.426207 
L 166.460523 219.426207 
L 166.460523 218.958455 
L 166.765788 218.958455 
L 166.765788 218.022952 
L 167.652941 218.022952 
L 167.652941 217.5552 
L 167.796816 217.5552 
L 167.796816 216.619697 
L 168.637696 216.619697 
L 168.637696 216.151945 
L 169.044448 216.151945 
L 169.044448 215.216441 
L 169.442591 215.216441 
L 169.442591 214.74869 
L 170.71198 214.74869 
L 170.71198 214.280938 
L 171.076674 214.280938 
L 171.076674 213.345434 
L 171.315934 213.345434 
L 171.315934 212.409931 
L 172.130162 212.409931 
L 172.130162 211.942179 
L 172.356469 211.942179 
L 172.356469 211.006676 
L 172.690906 211.006676 
L 172.690906 210.071172 
L 173.127768 210.071172 
L 173.127768 209.135669 
L 173.972187 209.135669 
L 173.972187 208.200166 
L 174.681186 208.200166 
L 174.681186 207.732414 
L 176.480894 207.732414 
L 176.480894 206.79691 
L 177.276801 206.79691 
L 177.276801 206.329159 
L 177.873367 206.329159 
L 177.957067 204.925903 
L 178.123358 204.925903 
L 178.123358 203.9904 
L 178.613589 203.9904 
L 178.613589 203.054897 
L 179.480453 203.054897 
L 179.557313 201.651641 
L 179.936974 201.651641 
L 179.936974 200.716138 
L 180.23528 200.716138 
L 180.23528 200.248386 
L 181.591012 200.248386 
L 181.591012 199.780634 
L 181.796418 199.780634 
L 181.796418 198.845131 
L 183.174689 198.845131 
L 183.174689 198.377379 
L 185.211977 198.377379 
L 185.211977 197.441876 
L 186.153443 197.441876 
L 186.153443 196.974124 
L 187.254922 196.974124 
L 187.254922 196.506372 
L 187.457607 196.506372 
L 187.457607 196.038621 
L 360.8064 196.038621 
L 360.8064 196.038621 
" style="fill: none; stroke: #008000; stroke-width: 1.5; stroke-linecap: square"/>
   </g>
   <g id="line2d_36">
    <defs>
     <path id="mc54b651fce" d="M -0 6 
L 6 -6 
L -6 -6 
z
" style="stroke: #008000; stroke-width: 1.5; stroke-linejoin: miter"/>
    </defs>
    <g>
     <use xlink:href="#mc54b651fce" x="113.316634" y="278.830676" style="fill-opacity: 0; stroke: #008000; stroke-width: 1.5; stroke-linejoin: miter"/>
     <use xlink:href="#mc54b651fce" x="166.765788" y="218.958455" style="fill-opacity: 0; stroke: #008000; stroke-width: 1.5; stroke-linejoin: miter"/>
     <use xlink:href="#mc54b651fce" x="187.457607" y="196.506372" style="fill-opacity: 0; stroke: #008000; stroke-width: 1.5; stroke-linejoin: miter"/>
     <use xlink:href="#mc54b651fce" x="187.457607" y="196.038621" style="fill-opacity: 0; stroke: #008000; stroke-width: 1.5; stroke-linejoin: miter"/>
     <use xlink:href="#mc54b651fce" x="187.457607" y="196.038621" style="fill-opacity: 0; stroke: #008000; stroke-width: 1.5; stroke-linejoin: miter"/>
     <use xlink:href="#mc54b651fce" x="360.8064" y="196.038621" style="fill-opacity: 0; stroke: #008000; stroke-width: 1.5; stroke-linejoin: miter"/>
    </g>
   </g>
   <g id="line2d_37">
    <path style="fill: none; stroke: #008000; stroke-width: 1.5; stroke-linecap: square"/>
    <g/>
   </g>
   <g id="line2d_38">
    <path d="M 187.501655 196.038621 
" clip-path="url(#pf894b24093)" style="fill: none; stroke: #008000; stroke-width: 1.5; stroke-linecap: square"/>
    <defs>
     <path id="m8a49d8aa04" d="M -12 12 
L 12 -12 
M -12 -12 
L 12 12 
" style="stroke: #008000"/>
    </defs>
    <g clip-path="url(#pf894b24093)">
     <use xlink:href="#m8a49d8aa04" x="187.501655" y="196.038621" style="fill: #008000; stroke: #008000"/>
    </g>
   </g>
   <g id="line2d_39">
    <defs>
     <path id="mf893bd7f99" d="M 0 1.5 
C 0.397805 1.5 0.77937 1.341951 1.06066 1.06066 
C 1.341951 0.77937 1.5 0.397805 1.5 0 
C 1.5 -0.397805 1.341951 -0.77937 1.06066 -1.06066 
C 0.77937 -1.341951 0.397805 -1.5 0 -1.5 
C -0.397805 -1.5 -0.77937 -1.341951 -1.06066 -1.06066 
C -1.341951 -0.77937 -1.5 -0.397805 -1.5 0 
C -1.5 0.397805 -1.341951 0.77937 -1.06066 1.06066 
C -0.77937 1.341951 -0.397805 1.5 0 1.5 
z
" style="stroke: #0000ff"/>
    </defs>
    <g>
     <use xlink:href="#mf893bd7f99" x="186.525167" y="198.845131" style="fill: #0000ff; stroke: #0000ff"/>
     <use xlink:href="#mf893bd7f99" x="186.525167" y="198.845131" style="fill: #0000ff; stroke: #0000ff"/>
    </g>
   </g>
   <g id="line2d_40">
    <path d="M 27.323974 298.944 
L 27.323974 289.121214 
L 40.363149 289.121214 
L 40.363149 288.653462 
L 72.432107 288.653462 
L 72.432107 288.18571 
L 83.678349 288.18571 
L 83.678349 287.717959 
L 95.752617 287.717959 
L 95.752617 287.250207 
L 99.751228 287.250207 
L 99.751228 285.846952 
L 103.047088 285.846952 
L 103.047088 285.3792 
L 105.850679 285.3792 
L 105.850679 284.911448 
L 112.385837 284.911448 
L 112.385837 283.975945 
L 114.141556 283.975945 
L 114.141556 283.508193 
L 118.598196 283.508193 
L 118.598196 282.104938 
L 119.876453 282.104938 
L 119.876453 281.169434 
L 123.260379 281.169434 
L 123.260379 280.701683 
L 125.219419 280.701683 
L 125.219419 279.298428 
L 126.127391 279.298428 
L 126.127391 278.830676 
L 126.993549 278.830676 
L 126.993549 278.362924 
L 127.821575 278.362924 
L 127.821575 277.895172 
L 128.614685 277.895172 
L 128.614685 277.427421 
L 129.375706 277.427421 
L 129.375706 276.024166 
L 130.107132 276.024166 
L 130.107132 274.62091 
L 132.777813 274.62091 
L 132.777813 273.685407 
L 133.390178 273.685407 
L 133.390178 272.282152 
L 135.116046 272.282152 
L 135.116046 270.411145 
L 135.657857 270.411145 
L 135.657857 269.943393 
L 136.184497 269.943393 
L 136.184497 269.00789 
L 136.696795 269.00789 
L 136.696795 268.540138 
L 137.195511 268.540138 
L 137.195511 267.136883 
L 139.508159 267.136883 
L 139.508159 264.798124 
L 139.93843 264.798124 
L 139.93843 263.862621 
L 140.770526 263.862621 
L 140.770526 262.927117 
L 141.56737 262.927117 
L 141.56737 262.459366 
L 141.953481 262.459366 
L 141.953481 261.991614 
L 142.331827 261.991614 
L 142.331827 261.523862 
L 142.702713 261.523862 
L 142.702713 260.588359 
L 143.423243 260.588359 
L 143.423243 260.120607 
L 143.773417 260.120607 
L 143.773417 259.185103 
L 144.454795 259.185103 
L 144.454795 258.2496 
L 144.786447 258.2496 
L 144.786447 257.781848 
L 145.112353 257.781848 
L 145.112353 256.846345 
L 146.057504 256.846345 
L 146.057504 256.378593 
L 146.362288 256.378593 
L 146.362288 255.910841 
L 147.248088 255.910841 
L 147.248088 255.44309 
L 147.534321 255.44309 
L 147.534321 254.507586 
L 148.094045 254.507586 
L 148.094045 253.572083 
L 148.367783 253.572083 
L 148.367783 253.104331 
L 148.637595 253.104331 
L 148.637595 252.168828 
L 148.903591 252.168828 
L 148.903591 251.701076 
L 149.165879 251.701076 
L 149.165879 251.233324 
L 149.42456 251.233324 
L 149.42456 250.765572 
L 150.425115 250.765572 
L 150.425115 249.830069 
L 151.142085 249.830069 
L 151.142085 249.362317 
L 151.60532 249.362317 
L 151.60532 248.426814 
L 152.498913 248.426814 
L 152.498913 247.49131 
L 152.930279 247.49131 
L 152.930279 245.620303 
L 153.764426 245.620303 
L 153.764426 245.152552 
L 153.967309 245.152552 
L 153.967309 244.217048 
L 154.950144 244.217048 
L 154.950144 243.749297 
L 155.329337 243.749297 
L 155.329337 243.281545 
L 156.423104 243.281545 
L 156.423104 242.813793 
L 156.947029 242.813793 
L 156.947029 242.346041 
L 157.118477 242.346041 
L 157.118477 241.410538 
L 157.288377 241.410538 
L 157.288377 239.539531 
L 157.623641 239.539531 
L 157.623641 238.136276 
L 158.115593 238.136276 
L 158.115593 237.668524 
L 158.752135 237.668524 
L 158.752135 236.265269 
L 159.367841 236.265269 
L 159.367841 235.797517 
L 160.110173 235.797517 
L 160.110173 234.862014 
L 161.78066 234.862014 
L 161.78066 234.394262 
L 162.045202 234.394262 
L 162.045202 233.92651 
L 162.17609 233.92651 
L 162.17609 233.458759 
L 163.067666 233.458759 
L 163.067666 232.991007 
L 163.314829 232.991007 
L 163.314829 232.523255 
L 163.679588 232.523255 
L 163.679588 232.055503 
L 164.504157 232.055503 
L 164.504157 231.12 
L 165.071763 231.12 
L 165.071763 230.184497 
L 165.294095 230.184497 
L 165.404283 229.248993 
L 165.838694 229.248993 
L 165.838694 228.31349 
L 166.158043 228.31349 
L 166.158043 227.377986 
L 166.780922 227.377986 
L 166.780922 226.442483 
L 166.984048 226.442483 
L 166.984048 225.506979 
L 167.871912 225.506979 
L 167.871912 224.571476 
L 168.063651 224.571476 
L 168.063651 223.635972 
L 168.811641 223.635972 
L 168.811641 221.297214 
L 170.053063 221.297214 
L 170.053063 220.829462 
L 170.644345 220.829462 
L 170.644345 219.893959 
L 170.892171 219.893959 
L 170.97406 218.022952 
L 171.298095 218.022952 
L 171.298095 217.087448 
L 171.852062 217.087448 
L 171.852062 216.151945 
L 173.060174 216.151945 
L 173.060174 215.216441 
L 173.278305 215.216441 
L 173.278305 214.280938 
L 173.917919 214.280938 
L 173.987664 212.877683 
L 174.05715 212.877683 
L 174.05715 211.942179 
L 175.069777 211.942179 
L 175.069777 211.006676 
L 175.524306 211.006676 
L 175.524306 210.071172 
L 176.885267 210.071172 
L 176.885267 209.603421 
L 177.239965 209.603421 
L 177.239965 208.667917 
L 177.530521 208.667917 
L 177.530521 208.200166 
L 177.986274 208.200166 
L 177.986274 207.732414 
L 178.210076 207.732414 
L 178.210076 206.79691 
L 178.540864 206.79691 
L 178.540864 205.861407 
L 178.812146 205.861407 
L 178.812146 205.393655 
L 179.079571 205.393655 
L 179.079571 204.458152 
L 180.163003 204.458152 
L 180.163003 203.9904 
L 180.608887 203.9904 
L 180.608887 203.054897 
L 181.6563 203.054897 
L 181.6563 202.119393 
L 183.507146 202.119393 
L 183.507146 201.651641 
L 183.881127 201.651641 
L 183.881127 201.18389 
L 184.328343 201.18389 
L 184.328343 200.716138 
L 185.458805 200.716138 
L 185.458805 199.780634 
L 186.525167 199.780634 
L 186.525167 198.845131 
L 360.8064 198.845131 
L 360.8064 198.845131 
" style="fill: none; stroke: #0000ff; stroke-width: 1.5; stroke-linecap: square"/>
   </g>
   <g id="line2d_41">
    <defs>
     <path id="m33e8bdb872" d="M 0 -6 
L -1.347084 -1.854102 
L -5.706339 -1.854102 
L -2.179628 0.708204 
L -3.526712 4.854102 
L -0 2.291796 
L 3.526712 4.854102 
L 2.179628 0.708204 
L 5.706339 -1.854102 
L 1.347084 -1.854102 
z
" style="stroke: #0000ff; stroke-width: 1.5; stroke-linejoin: bevel"/>
    </defs>
    <g>
     <use xlink:href="#m33e8bdb872" x="132.777813" y="273.685407" style="fill-opacity: 0; stroke: #0000ff; stroke-width: 1.5; stroke-linejoin: bevel"/>
     <use xlink:href="#m33e8bdb872" x="179.079571" y="204.458152" style="fill-opacity: 0; stroke: #0000ff; stroke-width: 1.5; stroke-linejoin: bevel"/>
     <use xlink:href="#m33e8bdb872" x="186.525167" y="199.780634" style="fill-opacity: 0; stroke: #0000ff; stroke-width: 1.5; stroke-linejoin: bevel"/>
     <use xlink:href="#m33e8bdb872" x="186.525167" y="198.845131" style="fill-opacity: 0; stroke: #0000ff; stroke-width: 1.5; stroke-linejoin: bevel"/>
     <use xlink:href="#m33e8bdb872" x="186.525167" y="198.845131" style="fill-opacity: 0; stroke: #0000ff; stroke-width: 1.5; stroke-linejoin: bevel"/>
     <use xlink:href="#m33e8bdb872" x="360.8064" y="198.845131" style="fill-opacity: 0; stroke: #0000ff; stroke-width: 1.5; stroke-linejoin: bevel"/>
    </g>
   </g>
   <g id="line2d_42">
    <path style="fill: none; stroke: #0000ff; stroke-width: 1.5; stroke-linecap: square"/>
    <g/>
   </g>
   <g id="line2d_43">
    <path d="M 187.530545 198.845131 
" clip-path="url(#pf894b24093)" style="fill: none; stroke: #0000ff; stroke-width: 1.5; stroke-linecap: square"/>
    <defs>
     <path id="md291fa2c9c" d="M -12 12 
L 12 -12 
M -12 -12 
L 12 12 
" style="stroke: #0000ff"/>
    </defs>
    <g clip-path="url(#pf894b24093)">
     <use xlink:href="#md291fa2c9c" x="187.530545" y="198.845131" style="fill: #0000ff; stroke: #0000ff"/>
    </g>
   </g>
   <g id="line2d_44">
    <defs>
     <path id="m3e98f8150a" d="M 0 1.5 
C 0.397805 1.5 0.77937 1.341951 1.06066 1.06066 
C 1.341951 0.77937 1.5 0.397805 1.5 0 
C 1.5 -0.397805 1.341951 -0.77937 1.06066 -1.06066 
C 0.77937 -1.341951 0.397805 -1.5 0 -1.5 
C -0.397805 -1.5 -0.77937 -1.341951 -1.06066 -1.06066 
C -1.341951 -0.77937 -1.5 -0.397805 -1.5 0 
C -1.5 0.397805 -1.341951 0.77937 -1.06066 1.06066 
C -0.77937 1.341951 -0.397805 1.5 0 1.5 
z
" style="stroke: #000000"/>
    </defs>
    <g>
     <use xlink:href="#m3e98f8150a" x="186.439574" y="200.716138" style="stroke: #000000"/>
     <use xlink:href="#m3e98f8150a" x="186.439574" y="200.716138" style="stroke: #000000"/>
    </g>
   </g>
   <g id="line2d_45">
    <path d="M 14.2848 298.944 
L 14.2848 290.524469 
L 74.068926 290.524469 
L 74.068926 290.056717 
L 104.809458 290.056717 
L 104.809458 289.588966 
L 113.954374 289.588966 
L 113.954374 288.653462 
L 118.524569 288.653462 
L 118.524569 288.18571 
L 121.518993 288.18571 
L 121.518993 287.717959 
L 122.19863 287.717959 
L 122.19863 287.250207 
L 123.4884 287.250207 
L 123.4884 285.846952 
L 127.911368 285.846952 
L 127.911368 284.443697 
L 128.871795 284.443697 
L 128.871795 283.975945 
L 130.226319 283.975945 
L 130.226319 283.040441 
L 130.656987 283.040441 
L 130.656987 282.57269 
L 131.078016 282.57269 
L 131.078016 282.104938 
L 133.78762 282.104938 
L 133.78762 281.637186 
L 134.495147 281.637186 
L 134.495147 281.169434 
L 134.839175 281.169434 
L 134.839175 280.701683 
L 135.508912 280.701683 
L 135.508912 279.766179 
L 137.085822 279.766179 
L 137.085822 279.298428 
L 137.38594 279.298428 
L 137.38594 278.830676 
L 137.972183 278.830676 
L 137.972183 277.895172 
L 138.540708 277.895172 
L 138.540708 276.959669 
L 138.818654 276.959669 
L 138.818654 276.491917 
L 139.092553 276.491917 
L 139.092553 276.024166 
L 139.362521 276.024166 
L 139.362521 275.556414 
L 140.657135 275.556414 
L 140.657135 275.088662 
L 141.151022 275.088662 
L 141.151022 273.685407 
L 142.101521 273.685407 
L 142.101521 273.217655 
L 142.331827 273.217655 
L 142.331827 272.749903 
L 142.784148 272.749903 
L 142.784148 271.8144 
L 143.225848 271.8144 
L 143.225848 271.346648 
L 143.442869 271.346648 
L 143.442869 270.878897 
L 144.079302 270.878897 
L 144.079302 269.943393 
L 144.28675 269.943393 
L 144.28675 269.475641 
L 144.694906 269.475641 
L 144.694906 269.00789 
L 144.895711 269.00789 
L 144.895711 267.604634 
L 145.678157 267.604634 
L 145.678157 267.136883 
L 145.868787 267.136883 
L 145.868787 266.201379 
L 146.244347 266.201379 
L 146.244347 265.733628 
L 146.793994 265.733628 
L 146.793994 264.330372 
L 146.973697 264.330372 
L 146.973697 263.862621 
L 147.675821 263.862621 
L 147.675821 263.394869 
L 147.847333 263.394869 
L 147.847333 262.927117 
L 148.518156 262.927117 
L 148.518156 261.991614 
L 149.637443 261.991614 
L 149.637443 260.588359 
L 149.945377 260.588359 
L 149.945377 260.120607 
L 150.398028 260.120607 
L 150.398028 259.185103 
L 150.840043 259.185103 
L 150.840043 258.717352 
L 151.129053 258.717352 
L 151.129053 257.781848 
L 151.41369 257.781848 
L 151.41369 256.846345 
L 151.832729 256.846345 
L 151.832729 256.378593 
L 152.906572 256.378593 
L 152.906572 255.910841 
L 153.421349 255.910841 
L 153.421349 254.975338 
L 153.547871 254.975338 
L 153.547871 254.507586 
L 153.798392 254.507586 
L 153.798392 254.039834 
L 154.168026 254.039834 
L 154.168026 253.572083 
L 154.289641 253.572083 
L 154.289641 253.104331 
L 155.119618 253.104331 
L 155.119618 252.636579 
L 155.690811 252.636579 
L 155.690811 252.168828 
L 156.135597 252.168828 
L 156.135597 251.233324 
L 156.570108 251.233324 
L 156.677186 249.830069 
L 157.099504 249.830069 
L 157.099504 248.894566 
L 157.512549 248.894566 
L 157.512549 247.959062 
L 157.816487 247.959062 
L 157.916719 246.555807 
L 158.312387 246.555807 
L 158.312387 245.152552 
L 159.173339 245.152552 
L 159.173339 244.217048 
L 159.726167 244.217048 
L 159.726167 243.281545 
L 160.438872 243.281545 
L 160.438872 242.346041 
L 160.699326 242.346041 
L 160.699326 241.87829 
L 160.87098 241.87829 
L 160.956223 240.475034 
L 161.293384 240.475034 
L 161.293384 239.539531 
L 161.624608 239.539531 
L 161.624608 239.071779 
L 162.428019 239.071779 
L 162.428019 238.136276 
L 162.6625 238.136276 
L 162.740015 236.265269 
L 162.894094 236.265269 
L 162.970663 235.329766 
L 163.198517 235.329766 
L 163.198517 234.862014 
L 163.719684 234.862014 
L 163.719684 234.394262 
L 164.2268 234.394262 
L 164.2268 233.458759 
L 165.133786 233.458759 
L 165.201776 232.523255 
L 165.471304 232.523255 
L 165.471304 232.055503 
L 166.448979 232.055503 
L 166.512385 231.12 
L 167.012088 231.12 
L 167.012088 230.652248 
L 167.378342 230.652248 
L 167.378342 229.716745 
L 167.678199 229.716745 
L 167.678199 228.781241 
L 168.03183 228.781241 
L 168.090128 226.910234 
L 168.206184 226.910234 
L 168.206184 225.974731 
L 168.550116 225.974731 
L 168.550116 225.039228 
L 168.832 225.039228 
L 168.832 224.103724 
L 169.599518 224.103724 
L 169.599518 223.635972 
L 169.75999 223.635972 
L 169.75999 223.168221 
L 170.388529 223.168221 
L 170.439971 220.829462 
L 172.204011 220.829462 
L 172.204011 219.893959 
L 172.847704 219.893959 
L 172.847704 218.022952 
L 174.072557 218.022952 
L 174.072557 217.087448 
L 174.366702 217.087448 
L 174.366702 216.151945 
L 174.532743 216.151945 
L 174.532743 215.216441 
L 174.779089 215.216441 
L 174.779089 214.280938 
L 175.420661 214.280938 
L 175.420661 213.813186 
L 175.538557 213.813186 
L 175.538557 213.345434 
L 175.733424 213.345434 
L 175.733424 212.409931 
L 176.715418 212.409931 
L 176.715418 211.474428 
L 176.862045 211.474428 
L 176.934932 210.071172 
L 177.543331 210.071172 
L 177.543331 209.135669 
L 178.504396 209.135669 
L 178.504396 208.667917 
L 178.86892 208.667917 
L 178.86892 207.732414 
L 180.741697 207.732414 
L 180.801022 206.329159 
L 181.12401 206.329159 
L 181.12401 205.861407 
L 182.088652 205.861407 
L 182.088652 205.393655 
L 182.847523 205.393655 
L 182.847523 204.458152 
L 183.058837 204.458152 
L 183.058837 203.9904 
L 183.780285 203.9904 
L 183.780285 203.522648 
L 184.229876 203.522648 
L 184.229876 203.054897 
L 185.027216 203.054897 
L 185.027216 202.119393 
L 185.609533 202.119393 
L 185.609533 201.18389 
L 186.439574 201.18389 
L 186.439574 200.716138 
L 360.8064 200.716138 
L 360.8064 200.716138 
" style="fill: none; stroke: #000000; stroke-width: 1.5; stroke-linecap: square"/>
   </g>
   <g id="line2d_46">
    <defs>
     <path id="m8dde73d4fc" d="M 0 6 
C 1.591219 6 3.117479 5.367802 4.242641 4.242641 
C 5.367802 3.117479 6 1.591219 6 0 
C 6 -1.591219 5.367802 -3.117479 4.242641 -4.242641 
C 3.117479 -5.367802 1.591219 -6 0 -6 
C -1.591219 -6 -3.117479 -5.367802 -4.242641 -4.242641 
C -5.367802 -3.117479 -6 -1.591219 -6 0 
C -6 1.591219 -5.367802 3.117479 -4.242641 4.242641 
C -3.117479 5.367802 -1.591219 6 0 6 
z
" style="stroke: #000000; stroke-width: 1.5"/>
    </defs>
    <g>
     <use xlink:href="#m8dde73d4fc" x="74.068926" y="290.056717" style="fill-opacity: 0; stroke: #000000; stroke-width: 1.5"/>
     <use xlink:href="#m8dde73d4fc" x="160.699326" y="241.87829" style="fill-opacity: 0; stroke: #000000; stroke-width: 1.5"/>
     <use xlink:href="#m8dde73d4fc" x="186.439574" y="201.18389" style="fill-opacity: 0; stroke: #000000; stroke-width: 1.5"/>
     <use xlink:href="#m8dde73d4fc" x="186.439574" y="200.716138" style="fill-opacity: 0; stroke: #000000; stroke-width: 1.5"/>
     <use xlink:href="#m8dde73d4fc" x="186.439574" y="200.716138" style="fill-opacity: 0; stroke: #000000; stroke-width: 1.5"/>
     <use xlink:href="#m8dde73d4fc" x="360.8064" y="200.716138" style="fill-opacity: 0; stroke: #000000; stroke-width: 1.5"/>
    </g>
   </g>
   <g id="line2d_47">
    <path style="fill: none; stroke: #000000; stroke-width: 1.5; stroke-linecap: square"/>
    <g/>
   </g>
   <g id="line2d_48">
    <path d="M 187.5456 200.716138 
" clip-path="url(#pf894b24093)" style="fill: none; stroke: #000000; stroke-width: 1.5; stroke-linecap: square"/>
    <defs>
     <path id="m586063af2b" d="M -12 12 
L 12 -12 
M -12 -12 
L 12 12 
" style="stroke: #000000"/>
    </defs>
    <g clip-path="url(#pf894b24093)">
     <use xlink:href="#m586063af2b" x="187.5456" y="200.716138" style="stroke: #000000"/>
    </g>
   </g>
   <g id="line2d_49">
    <defs>
     <path id="m606b21c32d" d="M 0 1.5 
C 0.397805 1.5 0.77937 1.341951 1.06066 1.06066 
C 1.341951 0.77937 1.5 0.397805 1.5 0 
C 1.5 -0.397805 1.341951 -0.77937 1.06066 -1.06066 
C 0.77937 -1.341951 0.397805 -1.5 0 -1.5 
C -0.397805 -1.5 -0.77937 -1.341951 -1.06066 -1.06066 
C -1.341951 -0.77937 -1.5 -0.397805 -1.5 0 
C -1.5 0.397805 -1.341951 0.77937 -1.06066 1.06066 
C -0.77937 1.341951 -0.397805 1.5 0 1.5 
z
" style="stroke: #ff0000"/>
    </defs>
    <g>
     <use xlink:href="#m606b21c32d" x="187.529603" y="193.699862" style="fill: #ff0000; stroke: #ff0000"/>
     <use xlink:href="#m606b21c32d" x="187.529603" y="193.699862" style="fill: #ff0000; stroke: #ff0000"/>
    </g>
   </g>
   <g id="line2d_50">
    <path d="M 1.245626 298.944 
L 1.245626 287.250207 
L 86.510858 287.250207 
L 86.510858 286.782455 
L 125.60308 286.782455 
L 125.60308 286.314703 
L 125.929373 286.314703 
L 125.929373 285.846952 
L 127.480982 285.846952 
L 127.480982 285.3792 
L 130.501519 285.3792 
L 130.501519 284.911448 
L 131.002163 284.911448 
L 131.002163 283.975945 
L 131.247576 283.975945 
L 131.247576 283.508193 
L 132.656392 283.508193 
L 132.656392 283.040441 
L 133.540205 283.040441 
L 133.540205 282.104938 
L 134.589598 282.104938 
L 134.589598 281.637186 
L 135.388902 281.637186 
L 135.388902 281.169434 
L 136.155623 281.169434 
L 136.155623 280.701683 
L 136.527575 280.701683 
L 136.527575 280.233931 
L 137.072066 280.233931 
L 137.072066 279.766179 
L 137.250116 279.766179 
L 137.250116 279.298428 
L 137.601239 279.298428 
L 137.601239 278.362924 
L 138.115933 278.362924 
L 138.115933 277.895172 
L 138.451402 277.895172 
L 138.451402 277.427421 
L 139.580558 277.427421 
L 139.580558 276.959669 
L 139.891105 276.959669 
L 139.891105 276.491917 
L 140.044477 276.491917 
L 140.044477 276.024166 
L 140.34752 276.024166 
L 140.34752 275.556414 
L 140.645758 275.556414 
L 140.645758 275.088662 
L 140.939341 275.088662 
L 140.939341 274.62091 
L 141.084433 274.62091 
L 141.084433 274.153159 
L 141.228414 274.153159 
L 141.228414 273.685407 
L 142.342229 273.685407 
L 142.342229 273.217655 
L 142.47693 273.217655 
L 142.47693 272.749903 
L 142.610675 272.749903 
L 142.610675 271.8144 
L 143.898283 271.8144 
L 143.898283 270.878897 
L 144.022326 270.878897 
L 144.022326 269.475641 
L 144.267986 269.475641 
L 144.267986 269.00789 
L 144.510478 269.00789 
L 144.510478 268.540138 
L 144.749884 268.540138 
L 144.749884 267.604634 
L 145.219746 267.604634 
L 145.219746 266.669131 
L 145.3354 266.669131 
L 145.3354 266.201379 
L 145.564597 266.201379 
L 145.564597 265.733628 
L 145.791035 265.733628 
L 145.791035 265.265876 
L 146.235895 265.265876 
L 146.345485 263.862621 
L 146.777571 263.862621 
L 146.777571 263.394869 
L 147.095245 263.394869 
L 147.095245 262.459366 
L 147.304086 262.459366 
L 147.407644 261.05611 
L 147.816265 261.05611 
L 147.917048 259.652855 
L 148.413021 259.652855 
L 148.413021 259.185103 
L 149.180344 259.185103 
L 149.180344 258.717352 
L 149.460208 258.717352 
L 149.460208 257.781848 
L 149.644498 257.781848 
L 149.644498 257.314097 
L 150.097474 257.314097 
L 150.097474 255.910841 
L 151.057216 255.910841 
L 151.057216 255.44309 
L 151.310683 255.44309 
L 151.394419 254.507586 
L 151.560781 254.507586 
L 151.560781 254.039834 
L 151.889155 254.039834 
L 151.889155 253.572083 
L 152.211895 253.572083 
L 152.211895 253.104331 
L 153.74742 253.104331 
L 153.74742 252.636579 
L 153.967309 252.636579 
L 153.967309 251.701076 
L 154.112486 251.701076 
L 154.184657 250.765572 
L 154.399522 250.765572 
L 154.399522 250.297821 
L 155.029775 250.297821 
L 155.029775 249.362317 
L 155.303249 249.362317 
L 155.303249 248.426814 
L 155.904407 248.426814 
L 155.904407 247.959062 
L 157.236625 247.959062 
L 157.297771 246.555807 
L 157.358718 246.555807 
L 157.358718 246.088055 
L 157.540383 246.088055 
L 157.540383 245.620303 
L 157.839314 245.620303 
L 157.839314 244.6848 
L 158.537943 244.6848 
L 158.537943 244.217048 
L 159.647587 244.217048 
L 159.701388 242.346041 
L 160.283256 242.346041 
L 160.283256 241.410538 
L 160.695406 241.410538 
L 160.695406 240.475034 
L 161.098721 240.475034 
L 161.098721 240.007283 
L 161.639526 240.007283 
L 161.639526 239.071779 
L 162.023298 239.071779 
L 162.070724 237.200772 
L 162.630697 237.200772 
L 162.630697 236.733021 
L 162.859187 236.733021 
L 162.859187 235.797517 
L 163.129762 235.797517 
L 163.129762 235.329766 
L 163.263603 235.329766 
L 163.263603 234.394262 
L 164.047252 234.394262 
L 164.047252 233.92651 
L 164.217051 233.92651 
L 164.217051 232.991007 
L 164.88132 232.991007 
L 164.88132 232.055503 
L 165.084184 232.055503 
L 165.084184 231.12 
L 165.758002 231.12 
L 165.835711 229.248993 
L 165.990173 229.248993 
L 166.066931 227.377986 
L 166.483591 227.377986 
L 166.483591 226.910234 
L 166.595641 226.910234 
L 166.595641 226.442483 
L 167.000877 226.442483 
L 167.000877 225.506979 
L 167.290205 225.506979 
L 167.290205 225.039228 
L 167.539768 225.039228 
L 167.539768 224.571476 
L 167.820987 224.571476 
L 167.820987 223.635972 
L 168.098063 223.635972 
L 168.098063 223.168221 
L 168.303225 223.168221 
L 168.303225 222.700469 
L 168.606832 222.700469 
L 168.706955 221.297214 
L 169.805934 221.297214 
L 169.805934 220.36171 
L 170.240433 220.36171 
L 170.240433 219.426207 
L 170.362755 219.426207 
L 170.362755 218.490703 
L 170.784722 218.490703 
L 170.814504 216.619697 
L 170.962708 216.619697 
L 170.962708 216.151945 
L 171.940669 216.151945 
L 171.996643 214.280938 
L 172.108093 214.280938 
L 172.108093 213.813186 
L 172.682617 213.813186 
L 172.736429 211.942179 
L 174.30786 211.942179 
L 174.332558 210.071172 
L 175.247845 210.071172 
L 175.247845 209.135669 
L 176.120657 209.135669 
L 176.120657 208.200166 
L 176.432278 208.200166 
L 176.520373 205.861407 
L 177.147012 205.861407 
L 177.147012 204.925903 
L 177.629572 204.925903 
L 177.629572 204.458152 
L 177.774014 204.458152 
L 177.774014 203.522648 
L 178.120254 203.522648 
L 178.120254 202.587145 
L 178.460235 202.587145 
L 178.460235 202.119393 
L 179.927575 202.119393 
L 180.000761 201.18389 
L 180.805061 201.18389 
L 180.857477 200.248386 
L 181.509082 200.248386 
L 181.509082 199.780634 
L 181.991603 199.780634 
L 181.991603 199.312883 
L 182.203953 199.312883 
L 182.203953 198.377379 
L 183.138661 198.377379 
L 183.138661 197.909628 
L 183.369075 197.909628 
L 183.369075 196.974124 
L 183.551395 196.974124 
L 183.551395 196.506372 
L 183.716983 196.506372 
L 183.716983 196.038621 
L 185.584495 196.038621 
L 185.584495 195.570869 
L 185.8138 195.570869 
L 185.8138 195.103117 
L 186.198629 195.103117 
L 186.198629 194.635366 
L 187.058718 194.635366 
L 187.058718 194.167614 
L 187.529603 194.167614 
L 187.529603 193.699862 
L 360.8064 193.699862 
L 360.8064 193.699862 
" style="fill: none; stroke: #ff0000; stroke-width: 1.5; stroke-linecap: square"/>
   </g>
   <g id="line2d_51">
    <defs>
     <path id="m121afc5fde" d="M -6 6 
L 6 6 
L 6 -6 
L -6 -6 
z
" style="stroke: #ff0000; stroke-width: 1.5; stroke-linejoin: miter"/>
    </defs>
    <g>
     <use xlink:href="#m121afc5fde" x="137.601239" y="279.298428" style="fill-opacity: 0; stroke: #ff0000; stroke-width: 1.5; stroke-linejoin: miter"/>
     <use xlink:href="#m121afc5fde" x="176.120657" y="208.200166" style="fill-opacity: 0; stroke: #ff0000; stroke-width: 1.5; stroke-linejoin: miter"/>
     <use xlink:href="#m121afc5fde" x="187.529603" y="194.167614" style="fill-opacity: 0; stroke: #ff0000; stroke-width: 1.5; stroke-linejoin: miter"/>
     <use xlink:href="#m121afc5fde" x="187.529603" y="193.699862" style="fill-opacity: 0; stroke: #ff0000; stroke-width: 1.5; stroke-linejoin: miter"/>
     <use xlink:href="#m121afc5fde" x="360.8064" y="193.699862" style="fill-opacity: 0; stroke: #ff0000; stroke-width: 1.5; stroke-linejoin: miter"/>
    </g>
   </g>
   <g id="line2d_52">
    <path style="fill: none; stroke: #ff0000; stroke-width: 1.5; stroke-linecap: square"/>
    <g/>
   </g>
   <g id="line2d_53">
    <path d="M 187.540897 193.699862 
" clip-path="url(#pf894b24093)" style="fill: none; stroke: #ff0000; stroke-width: 1.5; stroke-linecap: square"/>
    <defs>
     <path id="m307f77ccec" d="M -12 12 
L 12 -12 
M -12 -12 
L 12 12 
" style="stroke: #ff0000"/>
    </defs>
    <g clip-path="url(#pf894b24093)">
     <use xlink:href="#m307f77ccec" x="187.540897" y="193.699862" style="fill: #ff0000; stroke: #ff0000"/>
    </g>
   </g>
   <g id="line2d_54">
    <path d="M 360.8064 200.716138 
L 380.514816 293.51808 
" style="fill: none; stroke: #000000; stroke-width: 1.5; stroke-linecap: square"/>
    <g>
     <use xlink:href="#m8dde73d4fc" x="360.8064" y="200.716138" style="fill-opacity: 0; stroke: #000000; stroke-width: 1.5"/>
     <use xlink:href="#m8dde73d4fc" x="380.514816" y="293.51808" style="fill-opacity: 0; stroke: #000000; stroke-width: 1.5"/>
    </g>
   </g>
   <g id="line2d_55">
    <path d="M 360.8064 198.845131 
L 380.514816 228.40704 
" style="fill: none; stroke: #0000ff; stroke-width: 1.5; stroke-linecap: square"/>
    <g>
     <use xlink:href="#m33e8bdb872" x="360.8064" y="198.845131" style="fill-opacity: 0; stroke: #0000ff; stroke-width: 1.5; stroke-linejoin: bevel"/>
     <use xlink:href="#m33e8bdb872" x="380.514816" y="228.40704" style="fill-opacity: 0; stroke: #0000ff; stroke-width: 1.5; stroke-linejoin: bevel"/>
    </g>
   </g>
   <g id="line2d_56">
    <path d="M 360.8064 196.038621 
L 380.514816 163.296 
" style="fill: none; stroke: #008000; stroke-width: 1.5; stroke-linecap: square"/>
    <g>
     <use xlink:href="#mc54b651fce" x="360.8064" y="196.038621" style="fill-opacity: 0; stroke: #008000; stroke-width: 1.5; stroke-linejoin: miter"/>
     <use xlink:href="#mc54b651fce" x="380.514816" y="163.296" style="fill-opacity: 0; stroke: #008000; stroke-width: 1.5; stroke-linejoin: miter"/>
    </g>
   </g>
   <g id="line2d_57">
    <path d="M 360.8064 195.103117 
L 380.514816 98.18496 
" style="fill: none; stroke: #00bfbf; stroke-width: 1.5; stroke-linecap: square"/>
    <g>
     <use xlink:href="#mf133c4feaf" x="360.8064" y="195.103117" style="fill-opacity: 0; stroke: #00bfbf; stroke-width: 1.5"/>
     <use xlink:href="#mf133c4feaf" x="380.514816" y="98.18496" style="fill-opacity: 0; stroke: #00bfbf; stroke-width: 1.5"/>
    </g>
   </g>
   <g id="line2d_58">
    <path d="M 360.8064 193.699862 
L 380.514816 33.07392 
" style="fill: none; stroke: #ff0000; stroke-width: 1.5; stroke-linecap: square"/>
    <g>
     <use xlink:href="#m121afc5fde" x="360.8064" y="193.699862" style="fill-opacity: 0; stroke: #ff0000; stroke-width: 1.5; stroke-linejoin: miter"/>
     <use xlink:href="#m121afc5fde" x="380.514816" y="33.07392" style="fill-opacity: 0; stroke: #ff0000; stroke-width: 1.5; stroke-linejoin: miter"/>
    </g>
   </g>
   <g id="line2d_59">
    <path d="M 360.8064 298.944 
L 360.8064 27.648 
" style="fill: none; stroke: #000000; stroke-width: 1.5; stroke-linecap: square"/>
   </g>
   <g id="patch_3">
    <path d="M 57.6 298.944 
L 360.8064 298.944 
" style="fill: none; stroke: #000000; stroke-width: 0.8; stroke-linejoin: miter; stroke-linecap: square"/>
   </g>
   <g id="patch_4">
    <path d="M 57.6 27.648 
L 360.8064 27.648 
" style="fill: none; stroke: #000000; stroke-width: 0.8; stroke-linejoin: miter; stroke-linecap: square"/>
   </g>
   <g id="text_13">
    <!-- 10-D -->
    <g transform="translate(386.578944 297.381205) scale(0.14 -0.14)">
     <defs>
      <path id="DejaVuSans-44" d="M 1259 4147 
L 1259 519 
L 2022 519 
Q 2988 519 3436 956 
Q 3884 1394 3884 2338 
Q 3884 3275 3436 3711 
Q 2988 4147 2022 4147 
L 1259 4147 
z
M 628 4666 
L 1925 4666 
Q 3281 4666 3915 4102 
Q 4550 3538 4550 2338 
Q 4550 1131 3912 565 
Q 3275 0 1925 0 
L 628 0 
L 628 4666 
z
" transform="scale(0.015625)"/>
     </defs>
     <use xlink:href="#DejaVuSans-31"/>
     <use xlink:href="#DejaVuSans-30" x="63.623047"/>
     <use xlink:href="#DejaVuSans-2d" x="127.246094"/>
     <use xlink:href="#DejaVuSans-44" x="163.330078"/>
    </g>
   </g>
   <g id="text_14">
    <!-- 5-D -->
    <g transform="translate(386.578944 232.270165) scale(0.14 -0.14)">
     <defs>
      <path id="DejaVuSans-35" d="M 691 4666 
L 3169 4666 
L 3169 4134 
L 1269 4134 
L 1269 2991 
Q 1406 3038 1543 3061 
Q 1681 3084 1819 3084 
Q 2600 3084 3056 2656 
Q 3513 2228 3513 1497 
Q 3513 744 3044 326 
Q 2575 -91 1722 -91 
Q 1428 -91 1123 -41 
Q 819 9 494 109 
L 494 744 
Q 775 591 1075 516 
Q 1375 441 1709 441 
Q 2250 441 2565 725 
Q 2881 1009 2881 1497 
Q 2881 1984 2565 2268 
Q 2250 2553 1709 2553 
Q 1456 2553 1204 2497 
Q 953 2441 691 2322 
L 691 4666 
z
" transform="scale(0.015625)"/>
     </defs>
     <use xlink:href="#DejaVuSans-35"/>
     <use xlink:href="#DejaVuSans-2d" x="63.623047"/>
     <use xlink:href="#DejaVuSans-44" x="99.707031"/>
    </g>
   </g>
   <g id="text_15">
    <!-- 3-D -->
    <g transform="translate(386.578944 167.159125) scale(0.14 -0.14)">
     <defs>
      <path id="DejaVuSans-33" d="M 2597 2516 
Q 3050 2419 3304 2112 
Q 3559 1806 3559 1356 
Q 3559 666 3084 287 
Q 2609 -91 1734 -91 
Q 1441 -91 1130 -33 
Q 819 25 488 141 
L 488 750 
Q 750 597 1062 519 
Q 1375 441 1716 441 
Q 2309 441 2620 675 
Q 2931 909 2931 1356 
Q 2931 1769 2642 2001 
Q 2353 2234 1838 2234 
L 1294 2234 
L 1294 2753 
L 1863 2753 
Q 2328 2753 2575 2939 
Q 2822 3125 2822 3475 
Q 2822 3834 2567 4026 
Q 2313 4219 1838 4219 
Q 1578 4219 1281 4162 
Q 984 4106 628 3988 
L 628 4550 
Q 988 4650 1302 4700 
Q 1616 4750 1894 4750 
Q 2613 4750 3031 4423 
Q 3450 4097 3450 3541 
Q 3450 3153 3228 2886 
Q 3006 2619 2597 2516 
z
" transform="scale(0.015625)"/>
     </defs>
     <use xlink:href="#DejaVuSans-33"/>
     <use xlink:href="#DejaVuSans-2d" x="63.623047"/>
     <use xlink:href="#DejaVuSans-44" x="99.707031"/>
    </g>
   </g>
   <g id="text_16">
    <!-- 2-D -->
    <g transform="translate(386.578944 102.048085) scale(0.14 -0.14)">
     <use xlink:href="#DejaVuSans-32"/>
     <use xlink:href="#DejaVuSans-2d" x="63.623047"/>
     <use xlink:href="#DejaVuSans-44" x="99.707031"/>
    </g>
   </g>
   <g id="text_17">
    <!-- 20-D -->
    <g transform="translate(386.578944 36.937045) scale(0.14 -0.14)">
     <use xlink:href="#DejaVuSans-32"/>
     <use xlink:href="#DejaVuSans-30" x="63.623047"/>
     <use xlink:href="#DejaVuSans-2d" x="127.246094"/>
     <use xlink:href="#DejaVuSans-44" x="163.330078"/>
    </g>
   </g>
   <g id="text_18">
    <!-- bbob-biobj f6 -->
    <g transform="translate(60.632064 38.111366) scale(0.102 -0.102)">
     <defs>
      <path id="DejaVuSans-62" d="M 3116 1747 
Q 3116 2381 2855 2742 
Q 2594 3103 2138 3103 
Q 1681 3103 1420 2742 
Q 1159 2381 1159 1747 
Q 1159 1113 1420 752 
Q 1681 391 2138 391 
Q 2594 391 2855 752 
Q 3116 1113 3116 1747 
z
M 1159 2969 
Q 1341 3281 1617 3432 
Q 1894 3584 2278 3584 
Q 2916 3584 3314 3078 
Q 3713 2572 3713 1747 
Q 3713 922 3314 415 
Q 2916 -91 2278 -91 
Q 1894 -91 1617 61 
Q 1341 213 1159 525 
L 1159 0 
L 581 0 
L 581 4863 
L 1159 4863 
L 1159 2969 
z
" transform="scale(0.015625)"/>
      <path id="DejaVuSans-6a" d="M 603 3500 
L 1178 3500 
L 1178 -63 
Q 1178 -731 923 -1031 
Q 669 -1331 103 -1331 
L -116 -1331 
L -116 -844 
L 38 -844 
Q 366 -844 484 -692 
Q 603 -541 603 -63 
L 603 3500 
z
M 603 4863 
L 1178 4863 
L 1178 4134 
L 603 4134 
L 603 4863 
z
" transform="scale(0.015625)"/>
     </defs>
     <use xlink:href="#DejaVuSans-62"/>
     <use xlink:href="#DejaVuSans-62" x="63.476562"/>
     <use xlink:href="#DejaVuSans-6f" x="126.953125"/>
     <use xlink:href="#DejaVuSans-62" x="188.134766"/>
     <use xlink:href="#DejaVuSans-2d" x="251.611328"/>
     <use xlink:href="#DejaVuSans-62" x="287.695312"/>
     <use xlink:href="#DejaVuSans-69" x="351.171875"/>
     <use xlink:href="#DejaVuSans-6f" x="378.955078"/>
     <use xlink:href="#DejaVuSans-62" x="440.136719"/>
     <use xlink:href="#DejaVuSans-6a" x="503.613281"/>
     <use xlink:href="#DejaVuSans-20" x="531.396484"/>
     <use xlink:href="#DejaVuSans-66" x="563.183594"/>
     <use xlink:href="#DejaVuSans-36" x="598.388672"/>
    </g>
    <!-- 58 targets: 1..-1.0e-4 -->
    <g transform="translate(60.632064 49.533135) scale(0.102 -0.102)">
     <defs>
      <path id="DejaVuSans-3a" d="M 750 794 
L 1409 794 
L 1409 0 
L 750 0 
L 750 794 
z
M 750 3309 
L 1409 3309 
L 1409 2516 
L 750 2516 
L 750 3309 
z
" transform="scale(0.015625)"/>
     </defs>
     <use xlink:href="#DejaVuSans-35"/>
     <use xlink:href="#DejaVuSans-38" x="63.623047"/>
     <use xlink:href="#DejaVuSans-20" x="127.246094"/>
     <use xlink:href="#DejaVuSans-74" x="159.033203"/>
     <use xlink:href="#DejaVuSans-61" x="198.242188"/>
     <use xlink:href="#DejaVuSans-72" x="259.521484"/>
     <use xlink:href="#DejaVuSans-67" x="298.884766"/>
     <use xlink:href="#DejaVuSans-65" x="362.361328"/>
     <use xlink:href="#DejaVuSans-74" x="423.884766"/>
     <use xlink:href="#DejaVuSans-73" x="463.09375"/>
     <use xlink:href="#DejaVuSans-3a" x="515.193359"/>
     <use xlink:href="#DejaVuSans-20" x="548.884766"/>
     <use xlink:href="#DejaVuSans-31" x="580.671875"/>
     <use xlink:href="#DejaVuSans-2e" x="644.294922"/>
     <use xlink:href="#DejaVuSans-2e" x="676.082031"/>
     <use xlink:href="#DejaVuSans-2d" x="707.869141"/>
     <use xlink:href="#DejaVuSans-31" x="743.953125"/>
     <use xlink:href="#DejaVuSans-2e" x="807.576172"/>
     <use xlink:href="#DejaVuSans-30" x="839.363281"/>
     <use xlink:href="#DejaVuSans-65" x="902.986328"/>
     <use xlink:href="#DejaVuSans-2d" x="964.509766"/>
     <use xlink:href="#DejaVuSans-34" x="1000.59375"/>
    </g>
    <!-- 10 instances -->
    <g transform="translate(60.632064 60.954904) scale(0.102 -0.102)">
     <use xlink:href="#DejaVuSans-31"/>
     <use xlink:href="#DejaVuSans-30" x="63.623047"/>
     <use xlink:href="#DejaVuSans-20" x="127.246094"/>
     <use xlink:href="#DejaVuSans-69" x="159.033203"/>
     <use xlink:href="#DejaVuSans-6e" x="186.816406"/>
     <use xlink:href="#DejaVuSans-73" x="250.195312"/>
     <use xlink:href="#DejaVuSans-74" x="302.294922"/>
     <use xlink:href="#DejaVuSans-61" x="341.503906"/>
     <use xlink:href="#DejaVuSans-6e" x="402.783203"/>
     <use xlink:href="#DejaVuSans-63" x="466.162109"/>
     <use xlink:href="#DejaVuSans-65" x="521.142578"/>
     <use xlink:href="#DejaVuSans-73" x="582.666016"/>
    </g>
   </g>
   <g id="text_19">
    <!-- v2.6, hv-hash=ff0e71e8cd978373 -->
    <g style="fill: #808080" transform="translate(123.707887 294.151352) scale(0.1 -0.1)">
     <defs>
      <path id="DejaVuSans-68" d="M 3513 2113 
L 3513 0 
L 2938 0 
L 2938 2094 
Q 2938 2591 2744 2837 
Q 2550 3084 2163 3084 
Q 1697 3084 1428 2787 
Q 1159 2491 1159 1978 
L 1159 0 
L 581 0 
L 581 4863 
L 1159 4863 
L 1159 2956 
Q 1366 3272 1645 3428 
Q 1925 3584 2291 3584 
Q 2894 3584 3203 3211 
Q 3513 2838 3513 2113 
z
" transform="scale(0.015625)"/>
      <path id="DejaVuSans-3d" d="M 678 2906 
L 4684 2906 
L 4684 2381 
L 678 2381 
L 678 2906 
z
M 678 1631 
L 4684 1631 
L 4684 1100 
L 678 1100 
L 678 1631 
z
" transform="scale(0.015625)"/>
      <path id="DejaVuSans-37" d="M 525 4666 
L 3525 4666 
L 3525 4397 
L 1831 0 
L 1172 0 
L 2766 4134 
L 525 4134 
L 525 4666 
z
" transform="scale(0.015625)"/>
      <path id="DejaVuSans-39" d="M 703 97 
L 703 672 
Q 941 559 1184 500 
Q 1428 441 1663 441 
Q 2288 441 2617 861 
Q 2947 1281 2994 2138 
Q 2813 1869 2534 1725 
Q 2256 1581 1919 1581 
Q 1219 1581 811 2004 
Q 403 2428 403 3163 
Q 403 3881 828 4315 
Q 1253 4750 1959 4750 
Q 2769 4750 3195 4129 
Q 3622 3509 3622 2328 
Q 3622 1225 3098 567 
Q 2575 -91 1691 -91 
Q 1453 -91 1209 -44 
Q 966 3 703 97 
z
M 1959 2075 
Q 2384 2075 2632 2365 
Q 2881 2656 2881 3163 
Q 2881 3666 2632 3958 
Q 2384 4250 1959 4250 
Q 1534 4250 1286 3958 
Q 1038 3666 1038 3163 
Q 1038 2656 1286 2365 
Q 1534 2075 1959 2075 
z
" transform="scale(0.015625)"/>
     </defs>
     <use xlink:href="#DejaVuSans-76"/>
     <use xlink:href="#DejaVuSans-32" x="59.179688"/>
     <use xlink:href="#DejaVuSans-2e" x="122.802734"/>
     <use xlink:href="#DejaVuSans-36" x="154.589844"/>
     <use xlink:href="#DejaVuSans-2c" x="218.212891"/>
     <use xlink:href="#DejaVuSans-20" x="250"/>
     <use xlink:href="#DejaVuSans-68" x="281.787109"/>
     <use xlink:href="#DejaVuSans-76" x="345.166016"/>
     <use xlink:href="#DejaVuSans-2d" x="401.720703"/>
     <use xlink:href="#DejaVuSans-68" x="437.804688"/>
     <use xlink:href="#DejaVuSans-61" x="501.183594"/>
     <use xlink:href="#DejaVuSans-73" x="562.462891"/>
     <use xlink:href="#DejaVuSans-68" x="614.5625"/>
     <use xlink:href="#DejaVuSans-3d" x="677.941406"/>
     <use xlink:href="#DejaVuSans-66" x="761.730469"/>
     <use xlink:href="#DejaVuSans-66" x="796.935547"/>
     <use xlink:href="#DejaVuSans-30" x="832.140625"/>
     <use xlink:href="#DejaVuSans-65" x="895.763672"/>
     <use xlink:href="#DejaVuSans-37" x="957.287109"/>
     <use xlink:href="#DejaVuSans-31" x="1020.910156"/>
     <use xlink:href="#DejaVuSans-65" x="1084.533203"/>
     <use xlink:href="#DejaVuSans-38" x="1146.056641"/>
     <use xlink:href="#DejaVuSans-63" x="1209.679688"/>
     <use xlink:href="#DejaVuSans-64" x="1264.660156"/>
     <use xlink:href="#DejaVuSans-39" x="1328.136719"/>
     <use xlink:href="#DejaVuSans-37" x="1391.759766"/>
     <use xlink:href="#DejaVuSans-38" x="1455.382812"/>
     <use xlink:href="#DejaVuSans-33" x="1519.005859"/>
     <use xlink:href="#DejaVuSans-37" x="1582.628906"/>
     <use xlink:href="#DejaVuSans-33" x="1646.251953"/>
    </g>
   </g>
   <g id="text_20">
    <!-- 6 Sphere/Different Powers -->
    <g transform="translate(78.482887 21.648) scale(0.2 -0.2)">
     <defs>
      <path id="DejaVuSans-53" d="M 3425 4513 
L 3425 3897 
Q 3066 4069 2747 4153 
Q 2428 4238 2131 4238 
Q 1616 4238 1336 4038 
Q 1056 3838 1056 3469 
Q 1056 3159 1242 3001 
Q 1428 2844 1947 2747 
L 2328 2669 
Q 3034 2534 3370 2195 
Q 3706 1856 3706 1288 
Q 3706 609 3251 259 
Q 2797 -91 1919 -91 
Q 1588 -91 1214 -16 
Q 841 59 441 206 
L 441 856 
Q 825 641 1194 531 
Q 1563 422 1919 422 
Q 2459 422 2753 634 
Q 3047 847 3047 1241 
Q 3047 1584 2836 1778 
Q 2625 1972 2144 2069 
L 1759 2144 
Q 1053 2284 737 2584 
Q 422 2884 422 3419 
Q 422 4038 858 4394 
Q 1294 4750 2059 4750 
Q 2388 4750 2728 4690 
Q 3069 4631 3425 4513 
z
" transform="scale(0.015625)"/>
      <path id="DejaVuSans-50" d="M 1259 4147 
L 1259 2394 
L 2053 2394 
Q 2494 2394 2734 2622 
Q 2975 2850 2975 3272 
Q 2975 3691 2734 3919 
Q 2494 4147 2053 4147 
L 1259 4147 
z
M 628 4666 
L 2053 4666 
Q 2838 4666 3239 4311 
Q 3641 3956 3641 3272 
Q 3641 2581 3239 2228 
Q 2838 1875 2053 1875 
L 1259 1875 
L 1259 0 
L 628 0 
L 628 4666 
z
" transform="scale(0.015625)"/>
      <path id="DejaVuSans-77" d="M 269 3500 
L 844 3500 
L 1563 769 
L 2278 3500 
L 2956 3500 
L 3675 769 
L 4391 3500 
L 4966 3500 
L 4050 0 
L 3372 0 
L 2619 2869 
L 1863 0 
L 1184 0 
L 269 3500 
z
" transform="scale(0.015625)"/>
     </defs>
     <use xlink:href="#DejaVuSans-36"/>
     <use xlink:href="#DejaVuSans-20" x="63.623047"/>
     <use xlink:href="#DejaVuSans-53" x="95.410156"/>
     <use xlink:href="#DejaVuSans-70" x="158.886719"/>
     <use xlink:href="#DejaVuSans-68" x="222.363281"/>
     <use xlink:href="#DejaVuSans-65" x="285.742188"/>
     <use xlink:href="#DejaVuSans-72" x="347.265625"/>
     <use xlink:href="#DejaVuSans-65" x="386.128906"/>
     <use xlink:href="#DejaVuSans-2f" x="447.652344"/>
     <use xlink:href="#DejaVuSans-44" x="481.34375"/>
     <use xlink:href="#DejaVuSans-69" x="558.345703"/>
     <use xlink:href="#DejaVuSans-66" x="586.128906"/>
     <use xlink:href="#DejaVuSans-66" x="621.333984"/>
     <use xlink:href="#DejaVuSans-65" x="656.539062"/>
     <use xlink:href="#DejaVuSans-72" x="718.0625"/>
     <use xlink:href="#DejaVuSans-65" x="756.925781"/>
     <use xlink:href="#DejaVuSans-6e" x="818.449219"/>
     <use xlink:href="#DejaVuSans-74" x="881.828125"/>
     <use xlink:href="#DejaVuSans-20" x="921.037109"/>
     <use xlink:href="#DejaVuSans-50" x="952.824219"/>
     <use xlink:href="#DejaVuSans-6f" x="1009.501953"/>
     <use xlink:href="#DejaVuSans-77" x="1070.683594"/>
     <use xlink:href="#DejaVuSans-65" x="1152.470703"/>
     <use xlink:href="#DejaVuSans-72" x="1213.994141"/>
     <use xlink:href="#DejaVuSans-73" x="1255.107422"/>
    </g>
   </g>
  </g>
 </g>
 <defs>
  <clipPath id="pf894b24093">
   <rect x="57.6" y="27.648" width="303.2064" height="271.296"/>
  </clipPath>
 </defs>
</svg>
