<?xml version="1.0" encoding="utf-8" standalone="no"?>
<!DOCTYPE svg PUBLIC "-//W3C//DTD SVG 1.1//EN"
  "http://www.w3.org/Graphics/SVG/1.1/DTD/svg11.dtd">
<svg xmlns:xlink="http://www.w3.org/1999/xlink" width="460.8pt" height="345.6pt" viewBox="0 0 460.8 345.6" xmlns="http://www.w3.org/2000/svg" version="1.1">
 <metadata>
  <rdf:RDF xmlns:dc="http://purl.org/dc/elements/1.1/" xmlns:cc="http://creativecommons.org/ns#" xmlns:rdf="http://www.w3.org/1999/02/22-rdf-syntax-ns#">
   <cc:Work>
    <dc:type rdf:resource="http://purl.org/dc/dcmitype/StillImage"/>
    <dc:date>2023-03-13T19:44:13.059030</dc:date>
    <dc:format>image/svg+xml</dc:format>
    <dc:creator>
     <cc:Agent>
      <dc:title>Matplotlib v3.7.0, https://matplotlib.org/</dc:title>
     </cc:Agent>
    </dc:creator>
   </cc:Work>
  </rdf:RDF>
 </metadata>
 <defs>
  <style type="text/css">*{stroke-linejoin: round; stroke-linecap: butt}</style>
 </defs>
 <g id="figure_1">
  <g id="patch_1">
   <path d="M 0 345.6 
L 460.8 345.6 
L 460.8 0 
L 0 0 
z
" style="fill: #ffffff"/>
  </g>
  <g id="axes_1">
   <g id="patch_2">
    <path d="M 57.6 298.944 
L 360.8064 298.944 
L 360.8064 27.648 
L 57.6 27.648 
z
" style="fill: #ffffff"/>
   </g>
   <g id="line2d_1">
    <path d="M 70.639174 298.944 
L 70.639174 294.266483 
L 95.080704 294.266483 
L 95.080704 284.911448 
L 102.12927 284.911448 
L 102.12927 275.556414 
L 106.326946 275.556414 
L 106.326946 270.878897 
L 112.317555 270.878897 
L 112.317555 256.846345 
L 116.308887 256.846345 
L 116.308887 247.49131 
L 120.726585 247.49131 
L 120.726585 242.813793 
L 128.207619 242.813793 
L 128.207619 233.458759 
L 135.034434 233.458759 
L 135.034434 219.426207 
L 139.475893 219.426207 
L 139.475893 210.071172 
L 143.592659 210.071172 
L 143.592659 200.716138 
L 148.478174 200.716138 
L 148.478174 191.361103 
L 153.305585 191.361103 
L 153.305585 186.683586 
L 157.946987 186.683586 
L 157.946987 172.651034 
L 166.364103 172.651034 
L 166.364103 167.973517 
L 179.130641 167.973517 
L 179.130641 153.940966 
L 195.35193 153.940966 
L 195.35193 144.585931 
L 211.371784 144.585931 
L 211.371784 139.908414 
L 221.292091 139.908414 
L 221.292091 125.875862 
L 233.732644 125.875862 
L 233.732644 121.198345 
L 235.90977 121.198345 
L 235.90977 107.165793 
L 241.71378 107.165793 
L 241.71378 97.810759 
L 267.648072 97.810759 
L 267.648072 88.455724 
L 271.017725 88.455724 
L 271.017725 83.778207 
L 275.668873 83.778207 
L 275.668873 74.423172 
L 278.441177 74.423172 
L 278.441177 60.390621 
L 360.8064 60.390621 
" style="fill: none; stroke: #faf0e6; stroke-width: 5; stroke-linecap: square"/>
   </g>
   <g id="line2d_2">
    <defs>
     <path id="m57c2afb433" d="M -0 6.22254 
L 6.22254 0 
L 0 -6.22254 
L -6.22254 -0 
z
" style="stroke: #faf0e6; stroke-linejoin: miter"/>
    </defs>
    <g>
     <use xlink:href="#m57c2afb433" x="120.726585" y="247.49131" style="fill: #faf0e6; stroke: #faf0e6; stroke-linejoin: miter"/>
     <use xlink:href="#m57c2afb433" x="195.35193" y="153.940966" style="fill: #faf0e6; stroke: #faf0e6; stroke-linejoin: miter"/>
     <use xlink:href="#m57c2afb433" x="275.668873" y="83.778207" style="fill: #faf0e6; stroke: #faf0e6; stroke-linejoin: miter"/>
     <use xlink:href="#m57c2afb433" x="278.441177" y="60.390621" style="fill: #faf0e6; stroke: #faf0e6; stroke-linejoin: miter"/>
     <use xlink:href="#m57c2afb433" x="360.8064" y="60.390621" style="fill: #faf0e6; stroke: #faf0e6; stroke-linejoin: miter"/>
    </g>
   </g>
   <g id="line2d_3">
    <path style="fill: none; stroke: #faf0e6; stroke-width: 5; stroke-linecap: square"/>
    <g/>
   </g>
   <g id="line2d_4">
    <path d="M 360.8064 60.390621 
L 380.514816 33.07392 
" style="fill: none; stroke: #faf0e6; stroke-width: 5; stroke-linecap: square"/>
    <g>
     <use xlink:href="#m57c2afb433" x="360.8064" y="60.390621" style="fill: #faf0e6; stroke: #faf0e6; stroke-linejoin: miter"/>
     <use xlink:href="#m57c2afb433" x="380.514816" y="33.07392" style="fill: #faf0e6; stroke: #faf0e6; stroke-linejoin: miter"/>
    </g>
   </g>
   <g id="matplotlib.axis_1">
    <g id="xtick_1">
     <g id="line2d_5">
      <path d="M 57.6 298.944 
L 57.6 27.648 
" clip-path="url(#p104e4821df)" style="fill: none; stroke: #b0b0b0; stroke-width: 0.8; stroke-linecap: square"/>
     </g>
     <g id="line2d_6">
      <defs>
       <path id="ma9dabbad50" d="M 0 0 
L 0 3.5 
" style="stroke: #000000; stroke-width: 0.8"/>
      </defs>
      <g>
       <use xlink:href="#ma9dabbad50" x="57.6" y="298.944" style="stroke: #000000; stroke-width: 0.8"/>
      </g>
     </g>
     <g id="line2d_7">
      <defs>
       <path id="m64b14accd7" d="M 0 0 
L 0 -3.5 
" style="stroke: #000000; stroke-width: 0.8"/>
      </defs>
      <g>
       <use xlink:href="#m64b14accd7" x="57.6" y="27.648" style="stroke: #000000; stroke-width: 0.8"/>
      </g>
     </g>
     <g id="text_1">
      <!-- 0 -->
      <g transform="translate(52.51 318.1015) scale(0.16 -0.16)">
       <defs>
        <path id="DejaVuSans-30" d="M 2034 4250 
Q 1547 4250 1301 3770 
Q 1056 3291 1056 2328 
Q 1056 1369 1301 889 
Q 1547 409 2034 409 
Q 2525 409 2770 889 
Q 3016 1369 3016 2328 
Q 3016 3291 2770 3770 
Q 2525 4250 2034 4250 
z
M 2034 4750 
Q 2819 4750 3233 4129 
Q 3647 3509 3647 2328 
Q 3647 1150 3233 529 
Q 2819 -91 2034 -91 
Q 1250 -91 836 529 
Q 422 1150 422 2328 
Q 422 3509 836 4129 
Q 1250 4750 2034 4750 
z
" transform="scale(0.015625)"/>
       </defs>
       <use xlink:href="#DejaVuSans-30"/>
      </g>
     </g>
    </g>
    <g id="xtick_2">
     <g id="line2d_8">
      <path d="M 100.9152 298.944 
L 100.9152 27.648 
" clip-path="url(#p104e4821df)" style="fill: none; stroke: #b0b0b0; stroke-width: 0.8; stroke-linecap: square"/>
     </g>
     <g id="line2d_9">
      <g>
       <use xlink:href="#ma9dabbad50" x="100.9152" y="298.944" style="stroke: #000000; stroke-width: 0.8"/>
      </g>
     </g>
     <g id="line2d_10">
      <g>
       <use xlink:href="#m64b14accd7" x="100.9152" y="27.648" style="stroke: #000000; stroke-width: 0.8"/>
      </g>
     </g>
     <g id="text_2">
      <!-- 1 -->
      <g transform="translate(95.8252 318.1015) scale(0.16 -0.16)">
       <defs>
        <path id="DejaVuSans-31" d="M 794 531 
L 1825 531 
L 1825 4091 
L 703 3866 
L 703 4441 
L 1819 4666 
L 2450 4666 
L 2450 531 
L 3481 531 
L 3481 0 
L 794 0 
L 794 531 
z
" transform="scale(0.015625)"/>
       </defs>
       <use xlink:href="#DejaVuSans-31"/>
      </g>
     </g>
    </g>
    <g id="xtick_3">
     <g id="line2d_11">
      <path d="M 144.2304 298.944 
L 144.2304 27.648 
" clip-path="url(#p104e4821df)" style="fill: none; stroke: #b0b0b0; stroke-width: 0.8; stroke-linecap: square"/>
     </g>
     <g id="line2d_12">
      <g>
       <use xlink:href="#ma9dabbad50" x="144.2304" y="298.944" style="stroke: #000000; stroke-width: 0.8"/>
      </g>
     </g>
     <g id="line2d_13">
      <g>
       <use xlink:href="#m64b14accd7" x="144.2304" y="27.648" style="stroke: #000000; stroke-width: 0.8"/>
      </g>
     </g>
     <g id="text_3">
      <!-- 2 -->
      <g transform="translate(139.1404 318.1015) scale(0.16 -0.16)">
       <defs>
        <path id="DejaVuSans-32" d="M 1228 531 
L 3431 531 
L 3431 0 
L 469 0 
L 469 531 
Q 828 903 1448 1529 
Q 2069 2156 2228 2338 
Q 2531 2678 2651 2914 
Q 2772 3150 2772 3378 
Q 2772 3750 2511 3984 
Q 2250 4219 1831 4219 
Q 1534 4219 1204 4116 
Q 875 4013 500 3803 
L 500 4441 
Q 881 4594 1212 4672 
Q 1544 4750 1819 4750 
Q 2544 4750 2975 4387 
Q 3406 4025 3406 3419 
Q 3406 3131 3298 2873 
Q 3191 2616 2906 2266 
Q 2828 2175 2409 1742 
Q 1991 1309 1228 531 
z
" transform="scale(0.015625)"/>
       </defs>
       <use xlink:href="#DejaVuSans-32"/>
      </g>
     </g>
    </g>
    <g id="xtick_4">
     <g id="line2d_14">
      <path d="M 187.5456 298.944 
L 187.5456 27.648 
" clip-path="url(#p104e4821df)" style="fill: none; stroke: #b0b0b0; stroke-width: 0.8; stroke-linecap: square"/>
     </g>
     <g id="line2d_15">
      <g>
       <use xlink:href="#ma9dabbad50" x="187.5456" y="298.944" style="stroke: #000000; stroke-width: 0.8"/>
      </g>
     </g>
     <g id="line2d_16">
      <g>
       <use xlink:href="#m64b14accd7" x="187.5456" y="27.648" style="stroke: #000000; stroke-width: 0.8"/>
      </g>
     </g>
     <g id="text_4">
      <!-- 3 -->
      <g transform="translate(182.4556 318.1015) scale(0.16 -0.16)">
       <defs>
        <path id="DejaVuSans-33" d="M 2597 2516 
Q 3050 2419 3304 2112 
Q 3559 1806 3559 1356 
Q 3559 666 3084 287 
Q 2609 -91 1734 -91 
Q 1441 -91 1130 -33 
Q 819 25 488 141 
L 488 750 
Q 750 597 1062 519 
Q 1375 441 1716 441 
Q 2309 441 2620 675 
Q 2931 909 2931 1356 
Q 2931 1769 2642 2001 
Q 2353 2234 1838 2234 
L 1294 2234 
L 1294 2753 
L 1863 2753 
Q 2328 2753 2575 2939 
Q 2822 3125 2822 3475 
Q 2822 3834 2567 4026 
Q 2313 4219 1838 4219 
Q 1578 4219 1281 4162 
Q 984 4106 628 3988 
L 628 4550 
Q 988 4650 1302 4700 
Q 1616 4750 1894 4750 
Q 2613 4750 3031 4423 
Q 3450 4097 3450 3541 
Q 3450 3153 3228 2886 
Q 3006 2619 2597 2516 
z
" transform="scale(0.015625)"/>
       </defs>
       <use xlink:href="#DejaVuSans-33"/>
      </g>
     </g>
    </g>
    <g id="xtick_5">
     <g id="line2d_17">
      <path d="M 230.8608 298.944 
L 230.8608 27.648 
" clip-path="url(#p104e4821df)" style="fill: none; stroke: #b0b0b0; stroke-width: 0.8; stroke-linecap: square"/>
     </g>
     <g id="line2d_18">
      <g>
       <use xlink:href="#ma9dabbad50" x="230.8608" y="298.944" style="stroke: #000000; stroke-width: 0.8"/>
      </g>
     </g>
     <g id="line2d_19">
      <g>
       <use xlink:href="#m64b14accd7" x="230.8608" y="27.648" style="stroke: #000000; stroke-width: 0.8"/>
      </g>
     </g>
     <g id="text_5">
      <!-- 4 -->
      <g transform="translate(225.7708 318.1015) scale(0.16 -0.16)">
       <defs>
        <path id="DejaVuSans-34" d="M 2419 4116 
L 825 1625 
L 2419 1625 
L 2419 4116 
z
M 2253 4666 
L 3047 4666 
L 3047 1625 
L 3713 1625 
L 3713 1100 
L 3047 1100 
L 3047 0 
L 2419 0 
L 2419 1100 
L 313 1100 
L 313 1709 
L 2253 4666 
z
" transform="scale(0.015625)"/>
       </defs>
       <use xlink:href="#DejaVuSans-34"/>
      </g>
     </g>
    </g>
    <g id="xtick_6">
     <g id="line2d_20">
      <path d="M 274.176 298.944 
L 274.176 27.648 
" clip-path="url(#p104e4821df)" style="fill: none; stroke: #b0b0b0; stroke-width: 0.8; stroke-linecap: square"/>
     </g>
     <g id="line2d_21">
      <g>
       <use xlink:href="#ma9dabbad50" x="274.176" y="298.944" style="stroke: #000000; stroke-width: 0.8"/>
      </g>
     </g>
     <g id="line2d_22">
      <g>
       <use xlink:href="#m64b14accd7" x="274.176" y="27.648" style="stroke: #000000; stroke-width: 0.8"/>
      </g>
     </g>
     <g id="text_6">
      <!-- 5 -->
      <g transform="translate(269.086 318.1015) scale(0.16 -0.16)">
       <defs>
        <path id="DejaVuSans-35" d="M 691 4666 
L 3169 4666 
L 3169 4134 
L 1269 4134 
L 1269 2991 
Q 1406 3038 1543 3061 
Q 1681 3084 1819 3084 
Q 2600 3084 3056 2656 
Q 3513 2228 3513 1497 
Q 3513 744 3044 326 
Q 2575 -91 1722 -91 
Q 1428 -91 1123 -41 
Q 819 9 494 109 
L 494 744 
Q 775 591 1075 516 
Q 1375 441 1709 441 
Q 2250 441 2565 725 
Q 2881 1009 2881 1497 
Q 2881 1984 2565 2268 
Q 2250 2553 1709 2553 
Q 1456 2553 1204 2497 
Q 953 2441 691 2322 
L 691 4666 
z
" transform="scale(0.015625)"/>
       </defs>
       <use xlink:href="#DejaVuSans-35"/>
      </g>
     </g>
    </g>
    <g id="xtick_7">
     <g id="line2d_23">
      <path d="M 317.4912 298.944 
L 317.4912 27.648 
" clip-path="url(#p104e4821df)" style="fill: none; stroke: #b0b0b0; stroke-width: 0.8; stroke-linecap: square"/>
     </g>
     <g id="line2d_24">
      <g>
       <use xlink:href="#ma9dabbad50" x="317.4912" y="298.944" style="stroke: #000000; stroke-width: 0.8"/>
      </g>
     </g>
     <g id="line2d_25">
      <g>
       <use xlink:href="#m64b14accd7" x="317.4912" y="27.648" style="stroke: #000000; stroke-width: 0.8"/>
      </g>
     </g>
     <g id="text_7">
      <!-- 6 -->
      <g transform="translate(312.4012 318.1015) scale(0.16 -0.16)">
       <defs>
        <path id="DejaVuSans-36" d="M 2113 2584 
Q 1688 2584 1439 2293 
Q 1191 2003 1191 1497 
Q 1191 994 1439 701 
Q 1688 409 2113 409 
Q 2538 409 2786 701 
Q 3034 994 3034 1497 
Q 3034 2003 2786 2293 
Q 2538 2584 2113 2584 
z
M 3366 4563 
L 3366 3988 
Q 3128 4100 2886 4159 
Q 2644 4219 2406 4219 
Q 1781 4219 1451 3797 
Q 1122 3375 1075 2522 
Q 1259 2794 1537 2939 
Q 1816 3084 2150 3084 
Q 2853 3084 3261 2657 
Q 3669 2231 3669 1497 
Q 3669 778 3244 343 
Q 2819 -91 2113 -91 
Q 1303 -91 875 529 
Q 447 1150 447 2328 
Q 447 3434 972 4092 
Q 1497 4750 2381 4750 
Q 2619 4750 2861 4703 
Q 3103 4656 3366 4563 
z
" transform="scale(0.015625)"/>
       </defs>
       <use xlink:href="#DejaVuSans-36"/>
      </g>
     </g>
    </g>
    <g id="xtick_8">
     <g id="line2d_26">
      <path d="M 360.8064 298.944 
L 360.8064 27.648 
" clip-path="url(#p104e4821df)" style="fill: none; stroke: #b0b0b0; stroke-width: 0.8; stroke-linecap: square"/>
     </g>
     <g id="line2d_27">
      <g>
       <use xlink:href="#ma9dabbad50" x="360.8064" y="298.944" style="stroke: #000000; stroke-width: 0.8"/>
      </g>
     </g>
     <g id="line2d_28">
      <g>
       <use xlink:href="#m64b14accd7" x="360.8064" y="27.648" style="stroke: #000000; stroke-width: 0.8"/>
      </g>
     </g>
     <g id="text_8">
      <!-- 7 -->
      <g transform="translate(355.7164 318.1015) scale(0.16 -0.16)">
       <defs>
        <path id="DejaVuSans-37" d="M 525 4666 
L 3525 4666 
L 3525 4397 
L 1831 0 
L 1172 0 
L 2766 4134 
L 525 4134 
L 525 4666 
z
" transform="scale(0.015625)"/>
       </defs>
       <use xlink:href="#DejaVuSans-37"/>
      </g>
     </g>
    </g>
    <g id="xtick_9">
     <g id="line2d_29">
      <defs>
       <path id="m0e54dab750" d="M 0 0 
L 0 2 
" style="stroke: #000000; stroke-width: 0.6"/>
      </defs>
      <g>
       <use xlink:href="#m0e54dab750" x="70.639174" y="298.944" style="stroke: #000000; stroke-width: 0.6"/>
      </g>
     </g>
     <g id="line2d_30">
      <defs>
       <path id="m5a4381cb94" d="M 0 0 
L 0 -2 
" style="stroke: #000000; stroke-width: 0.6"/>
      </defs>
      <g>
       <use xlink:href="#m5a4381cb94" x="70.639174" y="27.648" style="stroke: #000000; stroke-width: 0.6"/>
      </g>
     </g>
    </g>
    <g id="xtick_10">
     <g id="line2d_31">
      <g>
       <use xlink:href="#m0e54dab750" x="78.266603" y="298.944" style="stroke: #000000; stroke-width: 0.6"/>
      </g>
     </g>
     <g id="line2d_32">
      <g>
       <use xlink:href="#m5a4381cb94" x="78.266603" y="27.648" style="stroke: #000000; stroke-width: 0.6"/>
      </g>
     </g>
    </g>
    <g id="xtick_11">
     <g id="line2d_33">
      <g>
       <use xlink:href="#m0e54dab750" x="83.678349" y="298.944" style="stroke: #000000; stroke-width: 0.6"/>
      </g>
     </g>
     <g id="line2d_34">
      <g>
       <use xlink:href="#m5a4381cb94" x="83.678349" y="27.648" style="stroke: #000000; stroke-width: 0.6"/>
      </g>
     </g>
    </g>
    <g id="xtick_12">
     <g id="line2d_35">
      <g>
       <use xlink:href="#m0e54dab750" x="87.876026" y="298.944" style="stroke: #000000; stroke-width: 0.6"/>
      </g>
     </g>
     <g id="line2d_36">
      <g>
       <use xlink:href="#m5a4381cb94" x="87.876026" y="27.648" style="stroke: #000000; stroke-width: 0.6"/>
      </g>
     </g>
    </g>
    <g id="xtick_13">
     <g id="line2d_37">
      <g>
       <use xlink:href="#m0e54dab750" x="91.305777" y="298.944" style="stroke: #000000; stroke-width: 0.6"/>
      </g>
     </g>
     <g id="line2d_38">
      <g>
       <use xlink:href="#m5a4381cb94" x="91.305777" y="27.648" style="stroke: #000000; stroke-width: 0.6"/>
      </g>
     </g>
    </g>
    <g id="xtick_14">
     <g id="line2d_39">
      <g>
       <use xlink:href="#m0e54dab750" x="94.205591" y="298.944" style="stroke: #000000; stroke-width: 0.6"/>
      </g>
     </g>
     <g id="line2d_40">
      <g>
       <use xlink:href="#m5a4381cb94" x="94.205591" y="27.648" style="stroke: #000000; stroke-width: 0.6"/>
      </g>
     </g>
    </g>
    <g id="xtick_15">
     <g id="line2d_41">
      <g>
       <use xlink:href="#m0e54dab750" x="96.717523" y="298.944" style="stroke: #000000; stroke-width: 0.6"/>
      </g>
     </g>
     <g id="line2d_42">
      <g>
       <use xlink:href="#m5a4381cb94" x="96.717523" y="27.648" style="stroke: #000000; stroke-width: 0.6"/>
      </g>
     </g>
    </g>
    <g id="xtick_16">
     <g id="line2d_43">
      <g>
       <use xlink:href="#m0e54dab750" x="98.933205" y="298.944" style="stroke: #000000; stroke-width: 0.6"/>
      </g>
     </g>
     <g id="line2d_44">
      <g>
       <use xlink:href="#m5a4381cb94" x="98.933205" y="27.648" style="stroke: #000000; stroke-width: 0.6"/>
      </g>
     </g>
    </g>
    <g id="xtick_17">
     <g id="line2d_45">
      <g>
       <use xlink:href="#m0e54dab750" x="113.954374" y="298.944" style="stroke: #000000; stroke-width: 0.6"/>
      </g>
     </g>
     <g id="line2d_46">
      <g>
       <use xlink:href="#m5a4381cb94" x="113.954374" y="27.648" style="stroke: #000000; stroke-width: 0.6"/>
      </g>
     </g>
    </g>
    <g id="xtick_18">
     <g id="line2d_47">
      <g>
       <use xlink:href="#m0e54dab750" x="121.581803" y="298.944" style="stroke: #000000; stroke-width: 0.6"/>
      </g>
     </g>
     <g id="line2d_48">
      <g>
       <use xlink:href="#m5a4381cb94" x="121.581803" y="27.648" style="stroke: #000000; stroke-width: 0.6"/>
      </g>
     </g>
    </g>
    <g id="xtick_19">
     <g id="line2d_49">
      <g>
       <use xlink:href="#m0e54dab750" x="126.993549" y="298.944" style="stroke: #000000; stroke-width: 0.6"/>
      </g>
     </g>
     <g id="line2d_50">
      <g>
       <use xlink:href="#m5a4381cb94" x="126.993549" y="27.648" style="stroke: #000000; stroke-width: 0.6"/>
      </g>
     </g>
    </g>
    <g id="xtick_20">
     <g id="line2d_51">
      <g>
       <use xlink:href="#m0e54dab750" x="131.191226" y="298.944" style="stroke: #000000; stroke-width: 0.6"/>
      </g>
     </g>
     <g id="line2d_52">
      <g>
       <use xlink:href="#m5a4381cb94" x="131.191226" y="27.648" style="stroke: #000000; stroke-width: 0.6"/>
      </g>
     </g>
    </g>
    <g id="xtick_21">
     <g id="line2d_53">
      <g>
       <use xlink:href="#m0e54dab750" x="134.620977" y="298.944" style="stroke: #000000; stroke-width: 0.6"/>
      </g>
     </g>
     <g id="line2d_54">
      <g>
       <use xlink:href="#m5a4381cb94" x="134.620977" y="27.648" style="stroke: #000000; stroke-width: 0.6"/>
      </g>
     </g>
    </g>
    <g id="xtick_22">
     <g id="line2d_55">
      <g>
       <use xlink:href="#m0e54dab750" x="137.520791" y="298.944" style="stroke: #000000; stroke-width: 0.6"/>
      </g>
     </g>
     <g id="line2d_56">
      <g>
       <use xlink:href="#m5a4381cb94" x="137.520791" y="27.648" style="stroke: #000000; stroke-width: 0.6"/>
      </g>
     </g>
    </g>
    <g id="xtick_23">
     <g id="line2d_57">
      <g>
       <use xlink:href="#m0e54dab750" x="140.032723" y="298.944" style="stroke: #000000; stroke-width: 0.6"/>
      </g>
     </g>
     <g id="line2d_58">
      <g>
       <use xlink:href="#m5a4381cb94" x="140.032723" y="27.648" style="stroke: #000000; stroke-width: 0.6"/>
      </g>
     </g>
    </g>
    <g id="xtick_24">
     <g id="line2d_59">
      <g>
       <use xlink:href="#m0e54dab750" x="142.248405" y="298.944" style="stroke: #000000; stroke-width: 0.6"/>
      </g>
     </g>
     <g id="line2d_60">
      <g>
       <use xlink:href="#m5a4381cb94" x="142.248405" y="27.648" style="stroke: #000000; stroke-width: 0.6"/>
      </g>
     </g>
    </g>
    <g id="xtick_25">
     <g id="line2d_61">
      <g>
       <use xlink:href="#m0e54dab750" x="157.269574" y="298.944" style="stroke: #000000; stroke-width: 0.6"/>
      </g>
     </g>
     <g id="line2d_62">
      <g>
       <use xlink:href="#m5a4381cb94" x="157.269574" y="27.648" style="stroke: #000000; stroke-width: 0.6"/>
      </g>
     </g>
    </g>
    <g id="xtick_26">
     <g id="line2d_63">
      <g>
       <use xlink:href="#m0e54dab750" x="164.897003" y="298.944" style="stroke: #000000; stroke-width: 0.6"/>
      </g>
     </g>
     <g id="line2d_64">
      <g>
       <use xlink:href="#m5a4381cb94" x="164.897003" y="27.648" style="stroke: #000000; stroke-width: 0.6"/>
      </g>
     </g>
    </g>
    <g id="xtick_27">
     <g id="line2d_65">
      <g>
       <use xlink:href="#m0e54dab750" x="170.308749" y="298.944" style="stroke: #000000; stroke-width: 0.6"/>
      </g>
     </g>
     <g id="line2d_66">
      <g>
       <use xlink:href="#m5a4381cb94" x="170.308749" y="27.648" style="stroke: #000000; stroke-width: 0.6"/>
      </g>
     </g>
    </g>
    <g id="xtick_28">
     <g id="line2d_67">
      <g>
       <use xlink:href="#m0e54dab750" x="174.506426" y="298.944" style="stroke: #000000; stroke-width: 0.6"/>
      </g>
     </g>
     <g id="line2d_68">
      <g>
       <use xlink:href="#m5a4381cb94" x="174.506426" y="27.648" style="stroke: #000000; stroke-width: 0.6"/>
      </g>
     </g>
    </g>
    <g id="xtick_29">
     <g id="line2d_69">
      <g>
       <use xlink:href="#m0e54dab750" x="177.936177" y="298.944" style="stroke: #000000; stroke-width: 0.6"/>
      </g>
     </g>
     <g id="line2d_70">
      <g>
       <use xlink:href="#m5a4381cb94" x="177.936177" y="27.648" style="stroke: #000000; stroke-width: 0.6"/>
      </g>
     </g>
    </g>
    <g id="xtick_30">
     <g id="line2d_71">
      <g>
       <use xlink:href="#m0e54dab750" x="180.835991" y="298.944" style="stroke: #000000; stroke-width: 0.6"/>
      </g>
     </g>
     <g id="line2d_72">
      <g>
       <use xlink:href="#m5a4381cb94" x="180.835991" y="27.648" style="stroke: #000000; stroke-width: 0.6"/>
      </g>
     </g>
    </g>
    <g id="xtick_31">
     <g id="line2d_73">
      <g>
       <use xlink:href="#m0e54dab750" x="183.347923" y="298.944" style="stroke: #000000; stroke-width: 0.6"/>
      </g>
     </g>
     <g id="line2d_74">
      <g>
       <use xlink:href="#m5a4381cb94" x="183.347923" y="27.648" style="stroke: #000000; stroke-width: 0.6"/>
      </g>
     </g>
    </g>
    <g id="xtick_32">
     <g id="line2d_75">
      <g>
       <use xlink:href="#m0e54dab750" x="185.563605" y="298.944" style="stroke: #000000; stroke-width: 0.6"/>
      </g>
     </g>
     <g id="line2d_76">
      <g>
       <use xlink:href="#m5a4381cb94" x="185.563605" y="27.648" style="stroke: #000000; stroke-width: 0.6"/>
      </g>
     </g>
    </g>
    <g id="xtick_33">
     <g id="line2d_77">
      <g>
       <use xlink:href="#m0e54dab750" x="200.584774" y="298.944" style="stroke: #000000; stroke-width: 0.6"/>
      </g>
     </g>
     <g id="line2d_78">
      <g>
       <use xlink:href="#m5a4381cb94" x="200.584774" y="27.648" style="stroke: #000000; stroke-width: 0.6"/>
      </g>
     </g>
    </g>
    <g id="xtick_34">
     <g id="line2d_79">
      <g>
       <use xlink:href="#m0e54dab750" x="208.212203" y="298.944" style="stroke: #000000; stroke-width: 0.6"/>
      </g>
     </g>
     <g id="line2d_80">
      <g>
       <use xlink:href="#m5a4381cb94" x="208.212203" y="27.648" style="stroke: #000000; stroke-width: 0.6"/>
      </g>
     </g>
    </g>
    <g id="xtick_35">
     <g id="line2d_81">
      <g>
       <use xlink:href="#m0e54dab750" x="213.623949" y="298.944" style="stroke: #000000; stroke-width: 0.6"/>
      </g>
     </g>
     <g id="line2d_82">
      <g>
       <use xlink:href="#m5a4381cb94" x="213.623949" y="27.648" style="stroke: #000000; stroke-width: 0.6"/>
      </g>
     </g>
    </g>
    <g id="xtick_36">
     <g id="line2d_83">
      <g>
       <use xlink:href="#m0e54dab750" x="217.821626" y="298.944" style="stroke: #000000; stroke-width: 0.6"/>
      </g>
     </g>
     <g id="line2d_84">
      <g>
       <use xlink:href="#m5a4381cb94" x="217.821626" y="27.648" style="stroke: #000000; stroke-width: 0.6"/>
      </g>
     </g>
    </g>
    <g id="xtick_37">
     <g id="line2d_85">
      <g>
       <use xlink:href="#m0e54dab750" x="221.251377" y="298.944" style="stroke: #000000; stroke-width: 0.6"/>
      </g>
     </g>
     <g id="line2d_86">
      <g>
       <use xlink:href="#m5a4381cb94" x="221.251377" y="27.648" style="stroke: #000000; stroke-width: 0.6"/>
      </g>
     </g>
    </g>
    <g id="xtick_38">
     <g id="line2d_87">
      <g>
       <use xlink:href="#m0e54dab750" x="224.151191" y="298.944" style="stroke: #000000; stroke-width: 0.6"/>
      </g>
     </g>
     <g id="line2d_88">
      <g>
       <use xlink:href="#m5a4381cb94" x="224.151191" y="27.648" style="stroke: #000000; stroke-width: 0.6"/>
      </g>
     </g>
    </g>
    <g id="xtick_39">
     <g id="line2d_89">
      <g>
       <use xlink:href="#m0e54dab750" x="226.663123" y="298.944" style="stroke: #000000; stroke-width: 0.6"/>
      </g>
     </g>
     <g id="line2d_90">
      <g>
       <use xlink:href="#m5a4381cb94" x="226.663123" y="27.648" style="stroke: #000000; stroke-width: 0.6"/>
      </g>
     </g>
    </g>
    <g id="xtick_40">
     <g id="line2d_91">
      <g>
       <use xlink:href="#m0e54dab750" x="228.878805" y="298.944" style="stroke: #000000; stroke-width: 0.6"/>
      </g>
     </g>
     <g id="line2d_92">
      <g>
       <use xlink:href="#m5a4381cb94" x="228.878805" y="27.648" style="stroke: #000000; stroke-width: 0.6"/>
      </g>
     </g>
    </g>
    <g id="xtick_41">
     <g id="line2d_93">
      <g>
       <use xlink:href="#m0e54dab750" x="243.899974" y="298.944" style="stroke: #000000; stroke-width: 0.6"/>
      </g>
     </g>
     <g id="line2d_94">
      <g>
       <use xlink:href="#m5a4381cb94" x="243.899974" y="27.648" style="stroke: #000000; stroke-width: 0.6"/>
      </g>
     </g>
    </g>
    <g id="xtick_42">
     <g id="line2d_95">
      <g>
       <use xlink:href="#m0e54dab750" x="251.527403" y="298.944" style="stroke: #000000; stroke-width: 0.6"/>
      </g>
     </g>
     <g id="line2d_96">
      <g>
       <use xlink:href="#m5a4381cb94" x="251.527403" y="27.648" style="stroke: #000000; stroke-width: 0.6"/>
      </g>
     </g>
    </g>
    <g id="xtick_43">
     <g id="line2d_97">
      <g>
       <use xlink:href="#m0e54dab750" x="256.939149" y="298.944" style="stroke: #000000; stroke-width: 0.6"/>
      </g>
     </g>
     <g id="line2d_98">
      <g>
       <use xlink:href="#m5a4381cb94" x="256.939149" y="27.648" style="stroke: #000000; stroke-width: 0.6"/>
      </g>
     </g>
    </g>
    <g id="xtick_44">
     <g id="line2d_99">
      <g>
       <use xlink:href="#m0e54dab750" x="261.136826" y="298.944" style="stroke: #000000; stroke-width: 0.6"/>
      </g>
     </g>
     <g id="line2d_100">
      <g>
       <use xlink:href="#m5a4381cb94" x="261.136826" y="27.648" style="stroke: #000000; stroke-width: 0.6"/>
      </g>
     </g>
    </g>
    <g id="xtick_45">
     <g id="line2d_101">
      <g>
       <use xlink:href="#m0e54dab750" x="264.566577" y="298.944" style="stroke: #000000; stroke-width: 0.6"/>
      </g>
     </g>
     <g id="line2d_102">
      <g>
       <use xlink:href="#m5a4381cb94" x="264.566577" y="27.648" style="stroke: #000000; stroke-width: 0.6"/>
      </g>
     </g>
    </g>
    <g id="xtick_46">
     <g id="line2d_103">
      <g>
       <use xlink:href="#m0e54dab750" x="267.466391" y="298.944" style="stroke: #000000; stroke-width: 0.6"/>
      </g>
     </g>
     <g id="line2d_104">
      <g>
       <use xlink:href="#m5a4381cb94" x="267.466391" y="27.648" style="stroke: #000000; stroke-width: 0.6"/>
      </g>
     </g>
    </g>
    <g id="xtick_47">
     <g id="line2d_105">
      <g>
       <use xlink:href="#m0e54dab750" x="269.978323" y="298.944" style="stroke: #000000; stroke-width: 0.6"/>
      </g>
     </g>
     <g id="line2d_106">
      <g>
       <use xlink:href="#m5a4381cb94" x="269.978323" y="27.648" style="stroke: #000000; stroke-width: 0.6"/>
      </g>
     </g>
    </g>
    <g id="xtick_48">
     <g id="line2d_107">
      <g>
       <use xlink:href="#m0e54dab750" x="272.194005" y="298.944" style="stroke: #000000; stroke-width: 0.6"/>
      </g>
     </g>
     <g id="line2d_108">
      <g>
       <use xlink:href="#m5a4381cb94" x="272.194005" y="27.648" style="stroke: #000000; stroke-width: 0.6"/>
      </g>
     </g>
    </g>
    <g id="xtick_49">
     <g id="line2d_109">
      <g>
       <use xlink:href="#m0e54dab750" x="287.215174" y="298.944" style="stroke: #000000; stroke-width: 0.6"/>
      </g>
     </g>
     <g id="line2d_110">
      <g>
       <use xlink:href="#m5a4381cb94" x="287.215174" y="27.648" style="stroke: #000000; stroke-width: 0.6"/>
      </g>
     </g>
    </g>
    <g id="xtick_50">
     <g id="line2d_111">
      <g>
       <use xlink:href="#m0e54dab750" x="294.842603" y="298.944" style="stroke: #000000; stroke-width: 0.6"/>
      </g>
     </g>
     <g id="line2d_112">
      <g>
       <use xlink:href="#m5a4381cb94" x="294.842603" y="27.648" style="stroke: #000000; stroke-width: 0.6"/>
      </g>
     </g>
    </g>
    <g id="xtick_51">
     <g id="line2d_113">
      <g>
       <use xlink:href="#m0e54dab750" x="300.254349" y="298.944" style="stroke: #000000; stroke-width: 0.6"/>
      </g>
     </g>
     <g id="line2d_114">
      <g>
       <use xlink:href="#m5a4381cb94" x="300.254349" y="27.648" style="stroke: #000000; stroke-width: 0.6"/>
      </g>
     </g>
    </g>
    <g id="xtick_52">
     <g id="line2d_115">
      <g>
       <use xlink:href="#m0e54dab750" x="304.452026" y="298.944" style="stroke: #000000; stroke-width: 0.6"/>
      </g>
     </g>
     <g id="line2d_116">
      <g>
       <use xlink:href="#m5a4381cb94" x="304.452026" y="27.648" style="stroke: #000000; stroke-width: 0.6"/>
      </g>
     </g>
    </g>
    <g id="xtick_53">
     <g id="line2d_117">
      <g>
       <use xlink:href="#m0e54dab750" x="307.881777" y="298.944" style="stroke: #000000; stroke-width: 0.6"/>
      </g>
     </g>
     <g id="line2d_118">
      <g>
       <use xlink:href="#m5a4381cb94" x="307.881777" y="27.648" style="stroke: #000000; stroke-width: 0.6"/>
      </g>
     </g>
    </g>
    <g id="xtick_54">
     <g id="line2d_119">
      <g>
       <use xlink:href="#m0e54dab750" x="310.781591" y="298.944" style="stroke: #000000; stroke-width: 0.6"/>
      </g>
     </g>
     <g id="line2d_120">
      <g>
       <use xlink:href="#m5a4381cb94" x="310.781591" y="27.648" style="stroke: #000000; stroke-width: 0.6"/>
      </g>
     </g>
    </g>
    <g id="xtick_55">
     <g id="line2d_121">
      <g>
       <use xlink:href="#m0e54dab750" x="313.293523" y="298.944" style="stroke: #000000; stroke-width: 0.6"/>
      </g>
     </g>
     <g id="line2d_122">
      <g>
       <use xlink:href="#m5a4381cb94" x="313.293523" y="27.648" style="stroke: #000000; stroke-width: 0.6"/>
      </g>
     </g>
    </g>
    <g id="xtick_56">
     <g id="line2d_123">
      <g>
       <use xlink:href="#m0e54dab750" x="315.509205" y="298.944" style="stroke: #000000; stroke-width: 0.6"/>
      </g>
     </g>
     <g id="line2d_124">
      <g>
       <use xlink:href="#m5a4381cb94" x="315.509205" y="27.648" style="stroke: #000000; stroke-width: 0.6"/>
      </g>
     </g>
    </g>
    <g id="xtick_57">
     <g id="line2d_125">
      <g>
       <use xlink:href="#m0e54dab750" x="330.530374" y="298.944" style="stroke: #000000; stroke-width: 0.6"/>
      </g>
     </g>
     <g id="line2d_126">
      <g>
       <use xlink:href="#m5a4381cb94" x="330.530374" y="27.648" style="stroke: #000000; stroke-width: 0.6"/>
      </g>
     </g>
    </g>
    <g id="xtick_58">
     <g id="line2d_127">
      <g>
       <use xlink:href="#m0e54dab750" x="338.157803" y="298.944" style="stroke: #000000; stroke-width: 0.6"/>
      </g>
     </g>
     <g id="line2d_128">
      <g>
       <use xlink:href="#m5a4381cb94" x="338.157803" y="27.648" style="stroke: #000000; stroke-width: 0.6"/>
      </g>
     </g>
    </g>
    <g id="xtick_59">
     <g id="line2d_129">
      <g>
       <use xlink:href="#m0e54dab750" x="343.569549" y="298.944" style="stroke: #000000; stroke-width: 0.6"/>
      </g>
     </g>
     <g id="line2d_130">
      <g>
       <use xlink:href="#m5a4381cb94" x="343.569549" y="27.648" style="stroke: #000000; stroke-width: 0.6"/>
      </g>
     </g>
    </g>
    <g id="xtick_60">
     <g id="line2d_131">
      <g>
       <use xlink:href="#m0e54dab750" x="347.767226" y="298.944" style="stroke: #000000; stroke-width: 0.6"/>
      </g>
     </g>
     <g id="line2d_132">
      <g>
       <use xlink:href="#m5a4381cb94" x="347.767226" y="27.648" style="stroke: #000000; stroke-width: 0.6"/>
      </g>
     </g>
    </g>
    <g id="xtick_61">
     <g id="line2d_133">
      <g>
       <use xlink:href="#m0e54dab750" x="351.196977" y="298.944" style="stroke: #000000; stroke-width: 0.6"/>
      </g>
     </g>
     <g id="line2d_134">
      <g>
       <use xlink:href="#m5a4381cb94" x="351.196977" y="27.648" style="stroke: #000000; stroke-width: 0.6"/>
      </g>
     </g>
    </g>
    <g id="xtick_62">
     <g id="line2d_135">
      <g>
       <use xlink:href="#m0e54dab750" x="354.096791" y="298.944" style="stroke: #000000; stroke-width: 0.6"/>
      </g>
     </g>
     <g id="line2d_136">
      <g>
       <use xlink:href="#m5a4381cb94" x="354.096791" y="27.648" style="stroke: #000000; stroke-width: 0.6"/>
      </g>
     </g>
    </g>
    <g id="xtick_63">
     <g id="line2d_137">
      <g>
       <use xlink:href="#m0e54dab750" x="356.608723" y="298.944" style="stroke: #000000; stroke-width: 0.6"/>
      </g>
     </g>
     <g id="line2d_138">
      <g>
       <use xlink:href="#m5a4381cb94" x="356.608723" y="27.648" style="stroke: #000000; stroke-width: 0.6"/>
      </g>
     </g>
    </g>
    <g id="xtick_64">
     <g id="line2d_139">
      <g>
       <use xlink:href="#m0e54dab750" x="358.824405" y="298.944" style="stroke: #000000; stroke-width: 0.6"/>
      </g>
     </g>
     <g id="line2d_140">
      <g>
       <use xlink:href="#m5a4381cb94" x="358.824405" y="27.648" style="stroke: #000000; stroke-width: 0.6"/>
      </g>
     </g>
    </g>
    <g id="text_9">
     <!-- log10(# f-evals / dimension) -->
     <g transform="translate(102.985622 336.826656) scale(0.15 -0.15)">
      <defs>
       <path id="DejaVuSans-6c" d="M 603 4863 
L 1178 4863 
L 1178 0 
L 603 0 
L 603 4863 
z
" transform="scale(0.015625)"/>
       <path id="DejaVuSans-6f" d="M 1959 3097 
Q 1497 3097 1228 2736 
Q 959 2375 959 1747 
Q 959 1119 1226 758 
Q 1494 397 1959 397 
Q 2419 397 2687 759 
Q 2956 1122 2956 1747 
Q 2956 2369 2687 2733 
Q 2419 3097 1959 3097 
z
M 1959 3584 
Q 2709 3584 3137 3096 
Q 3566 2609 3566 1747 
Q 3566 888 3137 398 
Q 2709 -91 1959 -91 
Q 1206 -91 779 398 
Q 353 888 353 1747 
Q 353 2609 779 3096 
Q 1206 3584 1959 3584 
z
" transform="scale(0.015625)"/>
       <path id="DejaVuSans-67" d="M 2906 1791 
Q 2906 2416 2648 2759 
Q 2391 3103 1925 3103 
Q 1463 3103 1205 2759 
Q 947 2416 947 1791 
Q 947 1169 1205 825 
Q 1463 481 1925 481 
Q 2391 481 2648 825 
Q 2906 1169 2906 1791 
z
M 3481 434 
Q 3481 -459 3084 -895 
Q 2688 -1331 1869 -1331 
Q 1566 -1331 1297 -1286 
Q 1028 -1241 775 -1147 
L 775 -588 
Q 1028 -725 1275 -790 
Q 1522 -856 1778 -856 
Q 2344 -856 2625 -561 
Q 2906 -266 2906 331 
L 2906 616 
Q 2728 306 2450 153 
Q 2172 0 1784 0 
Q 1141 0 747 490 
Q 353 981 353 1791 
Q 353 2603 747 3093 
Q 1141 3584 1784 3584 
Q 2172 3584 2450 3431 
Q 2728 3278 2906 2969 
L 2906 3500 
L 3481 3500 
L 3481 434 
z
" transform="scale(0.015625)"/>
       <path id="DejaVuSans-28" d="M 1984 4856 
Q 1566 4138 1362 3434 
Q 1159 2731 1159 2009 
Q 1159 1288 1364 580 
Q 1569 -128 1984 -844 
L 1484 -844 
Q 1016 -109 783 600 
Q 550 1309 550 2009 
Q 550 2706 781 3412 
Q 1013 4119 1484 4856 
L 1984 4856 
z
" transform="scale(0.015625)"/>
       <path id="DejaVuSans-23" d="M 3272 2816 
L 2363 2816 
L 2100 1772 
L 3016 1772 
L 3272 2816 
z
M 2803 4594 
L 2478 3297 
L 3391 3297 
L 3719 4594 
L 4219 4594 
L 3897 3297 
L 4872 3297 
L 4872 2816 
L 3775 2816 
L 3519 1772 
L 4513 1772 
L 4513 1294 
L 3397 1294 
L 3072 0 
L 2572 0 
L 2894 1294 
L 1978 1294 
L 1656 0 
L 1153 0 
L 1478 1294 
L 494 1294 
L 494 1772 
L 1594 1772 
L 1856 2816 
L 850 2816 
L 850 3297 
L 1978 3297 
L 2297 4594 
L 2803 4594 
z
" transform="scale(0.015625)"/>
       <path id="DejaVuSans-20" transform="scale(0.015625)"/>
       <path id="DejaVuSans-66" d="M 2375 4863 
L 2375 4384 
L 1825 4384 
Q 1516 4384 1395 4259 
Q 1275 4134 1275 3809 
L 1275 3500 
L 2222 3500 
L 2222 3053 
L 1275 3053 
L 1275 0 
L 697 0 
L 697 3053 
L 147 3053 
L 147 3500 
L 697 3500 
L 697 3744 
Q 697 4328 969 4595 
Q 1241 4863 1831 4863 
L 2375 4863 
z
" transform="scale(0.015625)"/>
       <path id="DejaVuSans-2d" d="M 313 2009 
L 1997 2009 
L 1997 1497 
L 313 1497 
L 313 2009 
z
" transform="scale(0.015625)"/>
       <path id="DejaVuSans-65" d="M 3597 1894 
L 3597 1613 
L 953 1613 
Q 991 1019 1311 708 
Q 1631 397 2203 397 
Q 2534 397 2845 478 
Q 3156 559 3463 722 
L 3463 178 
Q 3153 47 2828 -22 
Q 2503 -91 2169 -91 
Q 1331 -91 842 396 
Q 353 884 353 1716 
Q 353 2575 817 3079 
Q 1281 3584 2069 3584 
Q 2775 3584 3186 3129 
Q 3597 2675 3597 1894 
z
M 3022 2063 
Q 3016 2534 2758 2815 
Q 2500 3097 2075 3097 
Q 1594 3097 1305 2825 
Q 1016 2553 972 2059 
L 3022 2063 
z
" transform="scale(0.015625)"/>
       <path id="DejaVuSans-76" d="M 191 3500 
L 800 3500 
L 1894 563 
L 2988 3500 
L 3597 3500 
L 2284 0 
L 1503 0 
L 191 3500 
z
" transform="scale(0.015625)"/>
       <path id="DejaVuSans-61" d="M 2194 1759 
Q 1497 1759 1228 1600 
Q 959 1441 959 1056 
Q 959 750 1161 570 
Q 1363 391 1709 391 
Q 2188 391 2477 730 
Q 2766 1069 2766 1631 
L 2766 1759 
L 2194 1759 
z
M 3341 1997 
L 3341 0 
L 2766 0 
L 2766 531 
Q 2569 213 2275 61 
Q 1981 -91 1556 -91 
Q 1019 -91 701 211 
Q 384 513 384 1019 
Q 384 1609 779 1909 
Q 1175 2209 1959 2209 
L 2766 2209 
L 2766 2266 
Q 2766 2663 2505 2880 
Q 2244 3097 1772 3097 
Q 1472 3097 1187 3025 
Q 903 2953 641 2809 
L 641 3341 
Q 956 3463 1253 3523 
Q 1550 3584 1831 3584 
Q 2591 3584 2966 3190 
Q 3341 2797 3341 1997 
z
" transform="scale(0.015625)"/>
       <path id="DejaVuSans-73" d="M 2834 3397 
L 2834 2853 
Q 2591 2978 2328 3040 
Q 2066 3103 1784 3103 
Q 1356 3103 1142 2972 
Q 928 2841 928 2578 
Q 928 2378 1081 2264 
Q 1234 2150 1697 2047 
L 1894 2003 
Q 2506 1872 2764 1633 
Q 3022 1394 3022 966 
Q 3022 478 2636 193 
Q 2250 -91 1575 -91 
Q 1294 -91 989 -36 
Q 684 19 347 128 
L 347 722 
Q 666 556 975 473 
Q 1284 391 1588 391 
Q 1994 391 2212 530 
Q 2431 669 2431 922 
Q 2431 1156 2273 1281 
Q 2116 1406 1581 1522 
L 1381 1569 
Q 847 1681 609 1914 
Q 372 2147 372 2553 
Q 372 3047 722 3315 
Q 1072 3584 1716 3584 
Q 2034 3584 2315 3537 
Q 2597 3491 2834 3397 
z
" transform="scale(0.015625)"/>
       <path id="DejaVuSans-2f" d="M 1625 4666 
L 2156 4666 
L 531 -594 
L 0 -594 
L 1625 4666 
z
" transform="scale(0.015625)"/>
       <path id="DejaVuSans-64" d="M 2906 2969 
L 2906 4863 
L 3481 4863 
L 3481 0 
L 2906 0 
L 2906 525 
Q 2725 213 2448 61 
Q 2172 -91 1784 -91 
Q 1150 -91 751 415 
Q 353 922 353 1747 
Q 353 2572 751 3078 
Q 1150 3584 1784 3584 
Q 2172 3584 2448 3432 
Q 2725 3281 2906 2969 
z
M 947 1747 
Q 947 1113 1208 752 
Q 1469 391 1925 391 
Q 2381 391 2643 752 
Q 2906 1113 2906 1747 
Q 2906 2381 2643 2742 
Q 2381 3103 1925 3103 
Q 1469 3103 1208 2742 
Q 947 2381 947 1747 
z
" transform="scale(0.015625)"/>
       <path id="DejaVuSans-69" d="M 603 3500 
L 1178 3500 
L 1178 0 
L 603 0 
L 603 3500 
z
M 603 4863 
L 1178 4863 
L 1178 4134 
L 603 4134 
L 603 4863 
z
" transform="scale(0.015625)"/>
       <path id="DejaVuSans-6d" d="M 3328 2828 
Q 3544 3216 3844 3400 
Q 4144 3584 4550 3584 
Q 5097 3584 5394 3201 
Q 5691 2819 5691 2113 
L 5691 0 
L 5113 0 
L 5113 2094 
Q 5113 2597 4934 2840 
Q 4756 3084 4391 3084 
Q 3944 3084 3684 2787 
Q 3425 2491 3425 1978 
L 3425 0 
L 2847 0 
L 2847 2094 
Q 2847 2600 2669 2842 
Q 2491 3084 2119 3084 
Q 1678 3084 1418 2786 
Q 1159 2488 1159 1978 
L 1159 0 
L 581 0 
L 581 3500 
L 1159 3500 
L 1159 2956 
Q 1356 3278 1631 3431 
Q 1906 3584 2284 3584 
Q 2666 3584 2933 3390 
Q 3200 3197 3328 2828 
z
" transform="scale(0.015625)"/>
       <path id="DejaVuSans-6e" d="M 3513 2113 
L 3513 0 
L 2938 0 
L 2938 2094 
Q 2938 2591 2744 2837 
Q 2550 3084 2163 3084 
Q 1697 3084 1428 2787 
Q 1159 2491 1159 1978 
L 1159 0 
L 581 0 
L 581 3500 
L 1159 3500 
L 1159 2956 
Q 1366 3272 1645 3428 
Q 1925 3584 2291 3584 
Q 2894 3584 3203 3211 
Q 3513 2838 3513 2113 
z
" transform="scale(0.015625)"/>
       <path id="DejaVuSans-29" d="M 513 4856 
L 1013 4856 
Q 1481 4119 1714 3412 
Q 1947 2706 1947 2009 
Q 1947 1309 1714 600 
Q 1481 -109 1013 -844 
L 513 -844 
Q 928 -128 1133 580 
Q 1338 1288 1338 2009 
Q 1338 2731 1133 3434 
Q 928 4138 513 4856 
z
" transform="scale(0.015625)"/>
      </defs>
      <use xlink:href="#DejaVuSans-6c"/>
      <use xlink:href="#DejaVuSans-6f" x="27.783203"/>
      <use xlink:href="#DejaVuSans-67" x="88.964844"/>
      <use xlink:href="#DejaVuSans-31" x="152.441406"/>
      <use xlink:href="#DejaVuSans-30" x="216.064453"/>
      <use xlink:href="#DejaVuSans-28" x="279.6875"/>
      <use xlink:href="#DejaVuSans-23" x="318.701172"/>
      <use xlink:href="#DejaVuSans-20" x="402.490234"/>
      <use xlink:href="#DejaVuSans-66" x="434.277344"/>
      <use xlink:href="#DejaVuSans-2d" x="463.982422"/>
      <use xlink:href="#DejaVuSans-65" x="500.066406"/>
      <use xlink:href="#DejaVuSans-76" x="561.589844"/>
      <use xlink:href="#DejaVuSans-61" x="620.769531"/>
      <use xlink:href="#DejaVuSans-6c" x="682.048828"/>
      <use xlink:href="#DejaVuSans-73" x="709.832031"/>
      <use xlink:href="#DejaVuSans-20" x="761.931641"/>
      <use xlink:href="#DejaVuSans-2f" x="793.71875"/>
      <use xlink:href="#DejaVuSans-20" x="827.410156"/>
      <use xlink:href="#DejaVuSans-64" x="859.197266"/>
      <use xlink:href="#DejaVuSans-69" x="922.673828"/>
      <use xlink:href="#DejaVuSans-6d" x="950.457031"/>
      <use xlink:href="#DejaVuSans-65" x="1047.869141"/>
      <use xlink:href="#DejaVuSans-6e" x="1109.392578"/>
      <use xlink:href="#DejaVuSans-73" x="1172.771484"/>
      <use xlink:href="#DejaVuSans-69" x="1224.871094"/>
      <use xlink:href="#DejaVuSans-6f" x="1252.654297"/>
      <use xlink:href="#DejaVuSans-6e" x="1313.835938"/>
      <use xlink:href="#DejaVuSans-29" x="1377.214844"/>
     </g>
    </g>
   </g>
   <g id="matplotlib.axis_2">
    <g id="ytick_1">
     <g id="line2d_141">
      <path d="M 57.6 298.944 
L 360.8064 298.944 
" clip-path="url(#p104e4821df)" style="fill: none; stroke: #b0b0b0; stroke-width: 0.8; stroke-linecap: square"/>
     </g>
     <g id="line2d_142">
      <defs>
       <path id="me390e02d58" d="M 0 0 
L -3.5 0 
" style="stroke: #000000; stroke-width: 0.8"/>
      </defs>
      <g>
       <use xlink:href="#me390e02d58" x="57.6" y="298.944" style="stroke: #000000; stroke-width: 0.8"/>
      </g>
     </g>
     <g id="line2d_143">
      <defs>
       <path id="m8bee221637" d="M 0 0 
L 3.5 0 
" style="stroke: #000000; stroke-width: 0.8"/>
      </defs>
      <g>
       <use xlink:href="#m8bee221637" x="360.8064" y="298.944" style="stroke: #000000; stroke-width: 0.8"/>
      </g>
     </g>
     <g id="text_10">
      <!-- 0.0 -->
      <g transform="translate(28.335625 304.262906) scale(0.14 -0.14)">
       <defs>
        <path id="DejaVuSans-2e" d="M 684 794 
L 1344 794 
L 1344 0 
L 684 0 
L 684 794 
z
" transform="scale(0.015625)"/>
       </defs>
       <use xlink:href="#DejaVuSans-30"/>
       <use xlink:href="#DejaVuSans-2e" x="63.623047"/>
       <use xlink:href="#DejaVuSans-30" x="95.410156"/>
      </g>
     </g>
    </g>
    <g id="ytick_2">
     <g id="line2d_144">
      <path d="M 57.6 244.6848 
L 360.8064 244.6848 
" clip-path="url(#p104e4821df)" style="fill: none; stroke: #b0b0b0; stroke-width: 0.8; stroke-linecap: square"/>
     </g>
     <g id="line2d_145">
      <g>
       <use xlink:href="#me390e02d58" x="57.6" y="244.6848" style="stroke: #000000; stroke-width: 0.8"/>
      </g>
     </g>
     <g id="line2d_146">
      <g>
       <use xlink:href="#m8bee221637" x="360.8064" y="244.6848" style="stroke: #000000; stroke-width: 0.8"/>
      </g>
     </g>
     <g id="text_11">
      <!-- 0.2 -->
      <g transform="translate(28.335625 250.003706) scale(0.14 -0.14)">
       <use xlink:href="#DejaVuSans-30"/>
       <use xlink:href="#DejaVuSans-2e" x="63.623047"/>
       <use xlink:href="#DejaVuSans-32" x="95.410156"/>
      </g>
     </g>
    </g>
    <g id="ytick_3">
     <g id="line2d_147">
      <path d="M 57.6 190.4256 
L 360.8064 190.4256 
" clip-path="url(#p104e4821df)" style="fill: none; stroke: #b0b0b0; stroke-width: 0.8; stroke-linecap: square"/>
     </g>
     <g id="line2d_148">
      <g>
       <use xlink:href="#me390e02d58" x="57.6" y="190.4256" style="stroke: #000000; stroke-width: 0.8"/>
      </g>
     </g>
     <g id="line2d_149">
      <g>
       <use xlink:href="#m8bee221637" x="360.8064" y="190.4256" style="stroke: #000000; stroke-width: 0.8"/>
      </g>
     </g>
     <g id="text_12">
      <!-- 0.4 -->
      <g transform="translate(28.335625 195.744506) scale(0.14 -0.14)">
       <use xlink:href="#DejaVuSans-30"/>
       <use xlink:href="#DejaVuSans-2e" x="63.623047"/>
       <use xlink:href="#DejaVuSans-34" x="95.410156"/>
      </g>
     </g>
    </g>
    <g id="ytick_4">
     <g id="line2d_150">
      <path d="M 57.6 136.1664 
L 360.8064 136.1664 
" clip-path="url(#p104e4821df)" style="fill: none; stroke: #b0b0b0; stroke-width: 0.8; stroke-linecap: square"/>
     </g>
     <g id="line2d_151">
      <g>
       <use xlink:href="#me390e02d58" x="57.6" y="136.1664" style="stroke: #000000; stroke-width: 0.8"/>
      </g>
     </g>
     <g id="line2d_152">
      <g>
       <use xlink:href="#m8bee221637" x="360.8064" y="136.1664" style="stroke: #000000; stroke-width: 0.8"/>
      </g>
     </g>
     <g id="text_13">
      <!-- 0.6 -->
      <g transform="translate(28.335625 141.485306) scale(0.14 -0.14)">
       <use xlink:href="#DejaVuSans-30"/>
       <use xlink:href="#DejaVuSans-2e" x="63.623047"/>
       <use xlink:href="#DejaVuSans-36" x="95.410156"/>
      </g>
     </g>
    </g>
    <g id="ytick_5">
     <g id="line2d_153">
      <path d="M 57.6 81.9072 
L 360.8064 81.9072 
" clip-path="url(#p104e4821df)" style="fill: none; stroke: #b0b0b0; stroke-width: 0.8; stroke-linecap: square"/>
     </g>
     <g id="line2d_154">
      <g>
       <use xlink:href="#me390e02d58" x="57.6" y="81.9072" style="stroke: #000000; stroke-width: 0.8"/>
      </g>
     </g>
     <g id="line2d_155">
      <g>
       <use xlink:href="#m8bee221637" x="360.8064" y="81.9072" style="stroke: #000000; stroke-width: 0.8"/>
      </g>
     </g>
     <g id="text_14">
      <!-- 0.8 -->
      <g transform="translate(28.335625 87.226106) scale(0.14 -0.14)">
       <defs>
        <path id="DejaVuSans-38" d="M 2034 2216 
Q 1584 2216 1326 1975 
Q 1069 1734 1069 1313 
Q 1069 891 1326 650 
Q 1584 409 2034 409 
Q 2484 409 2743 651 
Q 3003 894 3003 1313 
Q 3003 1734 2745 1975 
Q 2488 2216 2034 2216 
z
M 1403 2484 
Q 997 2584 770 2862 
Q 544 3141 544 3541 
Q 544 4100 942 4425 
Q 1341 4750 2034 4750 
Q 2731 4750 3128 4425 
Q 3525 4100 3525 3541 
Q 3525 3141 3298 2862 
Q 3072 2584 2669 2484 
Q 3125 2378 3379 2068 
Q 3634 1759 3634 1313 
Q 3634 634 3220 271 
Q 2806 -91 2034 -91 
Q 1263 -91 848 271 
Q 434 634 434 1313 
Q 434 1759 690 2068 
Q 947 2378 1403 2484 
z
M 1172 3481 
Q 1172 3119 1398 2916 
Q 1625 2713 2034 2713 
Q 2441 2713 2670 2916 
Q 2900 3119 2900 3481 
Q 2900 3844 2670 4047 
Q 2441 4250 2034 4250 
Q 1625 4250 1398 4047 
Q 1172 3844 1172 3481 
z
" transform="scale(0.015625)"/>
       </defs>
       <use xlink:href="#DejaVuSans-30"/>
       <use xlink:href="#DejaVuSans-2e" x="63.623047"/>
       <use xlink:href="#DejaVuSans-38" x="95.410156"/>
      </g>
     </g>
    </g>
    <g id="ytick_6">
     <g id="line2d_156">
      <path d="M 57.6 27.648 
L 360.8064 27.648 
" clip-path="url(#p104e4821df)" style="fill: none; stroke: #b0b0b0; stroke-width: 0.8; stroke-linecap: square"/>
     </g>
     <g id="line2d_157">
      <g>
       <use xlink:href="#me390e02d58" x="57.6" y="27.648" style="stroke: #000000; stroke-width: 0.8"/>
      </g>
     </g>
     <g id="line2d_158">
      <g>
       <use xlink:href="#m8bee221637" x="360.8064" y="27.648" style="stroke: #000000; stroke-width: 0.8"/>
      </g>
     </g>
     <g id="text_15">
      <!-- 1.0 -->
      <g transform="translate(28.335625 32.966906) scale(0.14 -0.14)">
       <use xlink:href="#DejaVuSans-31"/>
       <use xlink:href="#DejaVuSans-2e" x="63.623047"/>
       <use xlink:href="#DejaVuSans-30" x="95.410156"/>
      </g>
     </g>
    </g>
    <g id="ytick_7">
     <g id="line2d_159">
      <defs>
       <path id="m237d32057a" d="M 0 0 
L -2 0 
" style="stroke: #000000; stroke-width: 0.6"/>
      </defs>
      <g>
       <use xlink:href="#m237d32057a" x="57.6" y="285.3792" style="stroke: #000000; stroke-width: 0.6"/>
      </g>
     </g>
     <g id="line2d_160">
      <defs>
       <path id="m51b1d1e971" d="M 0 0 
L 2 0 
" style="stroke: #000000; stroke-width: 0.6"/>
      </defs>
      <g>
       <use xlink:href="#m51b1d1e971" x="360.8064" y="285.3792" style="stroke: #000000; stroke-width: 0.6"/>
      </g>
     </g>
    </g>
    <g id="ytick_8">
     <g id="line2d_161">
      <g>
       <use xlink:href="#m237d32057a" x="57.6" y="271.8144" style="stroke: #000000; stroke-width: 0.6"/>
      </g>
     </g>
     <g id="line2d_162">
      <g>
       <use xlink:href="#m51b1d1e971" x="360.8064" y="271.8144" style="stroke: #000000; stroke-width: 0.6"/>
      </g>
     </g>
    </g>
    <g id="ytick_9">
     <g id="line2d_163">
      <g>
       <use xlink:href="#m237d32057a" x="57.6" y="258.2496" style="stroke: #000000; stroke-width: 0.6"/>
      </g>
     </g>
     <g id="line2d_164">
      <g>
       <use xlink:href="#m51b1d1e971" x="360.8064" y="258.2496" style="stroke: #000000; stroke-width: 0.6"/>
      </g>
     </g>
    </g>
    <g id="ytick_10">
     <g id="line2d_165">
      <g>
       <use xlink:href="#m237d32057a" x="57.6" y="231.12" style="stroke: #000000; stroke-width: 0.6"/>
      </g>
     </g>
     <g id="line2d_166">
      <g>
       <use xlink:href="#m51b1d1e971" x="360.8064" y="231.12" style="stroke: #000000; stroke-width: 0.6"/>
      </g>
     </g>
    </g>
    <g id="ytick_11">
     <g id="line2d_167">
      <g>
       <use xlink:href="#m237d32057a" x="57.6" y="217.5552" style="stroke: #000000; stroke-width: 0.6"/>
      </g>
     </g>
     <g id="line2d_168">
      <g>
       <use xlink:href="#m51b1d1e971" x="360.8064" y="217.5552" style="stroke: #000000; stroke-width: 0.6"/>
      </g>
     </g>
    </g>
    <g id="ytick_12">
     <g id="line2d_169">
      <g>
       <use xlink:href="#m237d32057a" x="57.6" y="203.9904" style="stroke: #000000; stroke-width: 0.6"/>
      </g>
     </g>
     <g id="line2d_170">
      <g>
       <use xlink:href="#m51b1d1e971" x="360.8064" y="203.9904" style="stroke: #000000; stroke-width: 0.6"/>
      </g>
     </g>
    </g>
    <g id="ytick_13">
     <g id="line2d_171">
      <g>
       <use xlink:href="#m237d32057a" x="57.6" y="176.8608" style="stroke: #000000; stroke-width: 0.6"/>
      </g>
     </g>
     <g id="line2d_172">
      <g>
       <use xlink:href="#m51b1d1e971" x="360.8064" y="176.8608" style="stroke: #000000; stroke-width: 0.6"/>
      </g>
     </g>
    </g>
    <g id="ytick_14">
     <g id="line2d_173">
      <g>
       <use xlink:href="#m237d32057a" x="57.6" y="163.296" style="stroke: #000000; stroke-width: 0.6"/>
      </g>
     </g>
     <g id="line2d_174">
      <g>
       <use xlink:href="#m51b1d1e971" x="360.8064" y="163.296" style="stroke: #000000; stroke-width: 0.6"/>
      </g>
     </g>
    </g>
    <g id="ytick_15">
     <g id="line2d_175">
      <g>
       <use xlink:href="#m237d32057a" x="57.6" y="149.7312" style="stroke: #000000; stroke-width: 0.6"/>
      </g>
     </g>
     <g id="line2d_176">
      <g>
       <use xlink:href="#m51b1d1e971" x="360.8064" y="149.7312" style="stroke: #000000; stroke-width: 0.6"/>
      </g>
     </g>
    </g>
    <g id="ytick_16">
     <g id="line2d_177">
      <g>
       <use xlink:href="#m237d32057a" x="57.6" y="122.6016" style="stroke: #000000; stroke-width: 0.6"/>
      </g>
     </g>
     <g id="line2d_178">
      <g>
       <use xlink:href="#m51b1d1e971" x="360.8064" y="122.6016" style="stroke: #000000; stroke-width: 0.6"/>
      </g>
     </g>
    </g>
    <g id="ytick_17">
     <g id="line2d_179">
      <g>
       <use xlink:href="#m237d32057a" x="57.6" y="109.0368" style="stroke: #000000; stroke-width: 0.6"/>
      </g>
     </g>
     <g id="line2d_180">
      <g>
       <use xlink:href="#m51b1d1e971" x="360.8064" y="109.0368" style="stroke: #000000; stroke-width: 0.6"/>
      </g>
     </g>
    </g>
    <g id="ytick_18">
     <g id="line2d_181">
      <g>
       <use xlink:href="#m237d32057a" x="57.6" y="95.472" style="stroke: #000000; stroke-width: 0.6"/>
      </g>
     </g>
     <g id="line2d_182">
      <g>
       <use xlink:href="#m51b1d1e971" x="360.8064" y="95.472" style="stroke: #000000; stroke-width: 0.6"/>
      </g>
     </g>
    </g>
    <g id="ytick_19">
     <g id="line2d_183">
      <g>
       <use xlink:href="#m237d32057a" x="57.6" y="68.3424" style="stroke: #000000; stroke-width: 0.6"/>
      </g>
     </g>
     <g id="line2d_184">
      <g>
       <use xlink:href="#m51b1d1e971" x="360.8064" y="68.3424" style="stroke: #000000; stroke-width: 0.6"/>
      </g>
     </g>
    </g>
    <g id="ytick_20">
     <g id="line2d_185">
      <g>
       <use xlink:href="#m237d32057a" x="57.6" y="54.7776" style="stroke: #000000; stroke-width: 0.6"/>
      </g>
     </g>
     <g id="line2d_186">
      <g>
       <use xlink:href="#m51b1d1e971" x="360.8064" y="54.7776" style="stroke: #000000; stroke-width: 0.6"/>
      </g>
     </g>
    </g>
    <g id="ytick_21">
     <g id="line2d_187">
      <g>
       <use xlink:href="#m237d32057a" x="57.6" y="41.2128" style="stroke: #000000; stroke-width: 0.6"/>
      </g>
     </g>
     <g id="line2d_188">
      <g>
       <use xlink:href="#m51b1d1e971" x="360.8064" y="41.2128" style="stroke: #000000; stroke-width: 0.6"/>
      </g>
     </g>
    </g>
    <g id="text_16">
     <!-- Fraction of function,target pairs -->
     <g transform="translate(21.216094 281.871) rotate(-90) scale(0.15 -0.15)">
      <defs>
       <path id="DejaVuSans-46" d="M 628 4666 
L 3309 4666 
L 3309 4134 
L 1259 4134 
L 1259 2759 
L 3109 2759 
L 3109 2228 
L 1259 2228 
L 1259 0 
L 628 0 
L 628 4666 
z
" transform="scale(0.015625)"/>
       <path id="DejaVuSans-72" d="M 2631 2963 
Q 2534 3019 2420 3045 
Q 2306 3072 2169 3072 
Q 1681 3072 1420 2755 
Q 1159 2438 1159 1844 
L 1159 0 
L 581 0 
L 581 3500 
L 1159 3500 
L 1159 2956 
Q 1341 3275 1631 3429 
Q 1922 3584 2338 3584 
Q 2397 3584 2469 3576 
Q 2541 3569 2628 3553 
L 2631 2963 
z
" transform="scale(0.015625)"/>
       <path id="DejaVuSans-63" d="M 3122 3366 
L 3122 2828 
Q 2878 2963 2633 3030 
Q 2388 3097 2138 3097 
Q 1578 3097 1268 2742 
Q 959 2388 959 1747 
Q 959 1106 1268 751 
Q 1578 397 2138 397 
Q 2388 397 2633 464 
Q 2878 531 3122 666 
L 3122 134 
Q 2881 22 2623 -34 
Q 2366 -91 2075 -91 
Q 1284 -91 818 406 
Q 353 903 353 1747 
Q 353 2603 823 3093 
Q 1294 3584 2113 3584 
Q 2378 3584 2631 3529 
Q 2884 3475 3122 3366 
z
" transform="scale(0.015625)"/>
       <path id="DejaVuSans-74" d="M 1172 4494 
L 1172 3500 
L 2356 3500 
L 2356 3053 
L 1172 3053 
L 1172 1153 
Q 1172 725 1289 603 
Q 1406 481 1766 481 
L 2356 481 
L 2356 0 
L 1766 0 
Q 1100 0 847 248 
Q 594 497 594 1153 
L 594 3053 
L 172 3053 
L 172 3500 
L 594 3500 
L 594 4494 
L 1172 4494 
z
" transform="scale(0.015625)"/>
       <path id="DejaVuSans-75" d="M 544 1381 
L 544 3500 
L 1119 3500 
L 1119 1403 
Q 1119 906 1312 657 
Q 1506 409 1894 409 
Q 2359 409 2629 706 
Q 2900 1003 2900 1516 
L 2900 3500 
L 3475 3500 
L 3475 0 
L 2900 0 
L 2900 538 
Q 2691 219 2414 64 
Q 2138 -91 1772 -91 
Q 1169 -91 856 284 
Q 544 659 544 1381 
z
M 1991 3584 
L 1991 3584 
z
" transform="scale(0.015625)"/>
       <path id="DejaVuSans-2c" d="M 750 794 
L 1409 794 
L 1409 256 
L 897 -744 
L 494 -744 
L 750 256 
L 750 794 
z
" transform="scale(0.015625)"/>
       <path id="DejaVuSans-70" d="M 1159 525 
L 1159 -1331 
L 581 -1331 
L 581 3500 
L 1159 3500 
L 1159 2969 
Q 1341 3281 1617 3432 
Q 1894 3584 2278 3584 
Q 2916 3584 3314 3078 
Q 3713 2572 3713 1747 
Q 3713 922 3314 415 
Q 2916 -91 2278 -91 
Q 1894 -91 1617 61 
Q 1341 213 1159 525 
z
M 3116 1747 
Q 3116 2381 2855 2742 
Q 2594 3103 2138 3103 
Q 1681 3103 1420 2742 
Q 1159 2381 1159 1747 
Q 1159 1113 1420 752 
Q 1681 391 2138 391 
Q 2594 391 2855 752 
Q 3116 1113 3116 1747 
z
" transform="scale(0.015625)"/>
      </defs>
      <use xlink:href="#DejaVuSans-46"/>
      <use xlink:href="#DejaVuSans-72" x="50.269531"/>
      <use xlink:href="#DejaVuSans-61" x="91.382812"/>
      <use xlink:href="#DejaVuSans-63" x="152.662109"/>
      <use xlink:href="#DejaVuSans-74" x="207.642578"/>
      <use xlink:href="#DejaVuSans-69" x="246.851562"/>
      <use xlink:href="#DejaVuSans-6f" x="274.634766"/>
      <use xlink:href="#DejaVuSans-6e" x="335.816406"/>
      <use xlink:href="#DejaVuSans-20" x="399.195312"/>
      <use xlink:href="#DejaVuSans-6f" x="430.982422"/>
      <use xlink:href="#DejaVuSans-66" x="492.164062"/>
      <use xlink:href="#DejaVuSans-20" x="527.369141"/>
      <use xlink:href="#DejaVuSans-66" x="559.15625"/>
      <use xlink:href="#DejaVuSans-75" x="594.361328"/>
      <use xlink:href="#DejaVuSans-6e" x="657.740234"/>
      <use xlink:href="#DejaVuSans-63" x="721.119141"/>
      <use xlink:href="#DejaVuSans-74" x="776.099609"/>
      <use xlink:href="#DejaVuSans-69" x="815.308594"/>
      <use xlink:href="#DejaVuSans-6f" x="843.091797"/>
      <use xlink:href="#DejaVuSans-6e" x="904.273438"/>
      <use xlink:href="#DejaVuSans-2c" x="967.652344"/>
      <use xlink:href="#DejaVuSans-74" x="999.439453"/>
      <use xlink:href="#DejaVuSans-61" x="1038.648438"/>
      <use xlink:href="#DejaVuSans-72" x="1099.927734"/>
      <use xlink:href="#DejaVuSans-67" x="1139.291016"/>
      <use xlink:href="#DejaVuSans-65" x="1202.767578"/>
      <use xlink:href="#DejaVuSans-74" x="1264.291016"/>
      <use xlink:href="#DejaVuSans-20" x="1303.5"/>
      <use xlink:href="#DejaVuSans-70" x="1335.287109"/>
      <use xlink:href="#DejaVuSans-61" x="1398.763672"/>
      <use xlink:href="#DejaVuSans-69" x="1460.042969"/>
      <use xlink:href="#DejaVuSans-72" x="1487.826172"/>
      <use xlink:href="#DejaVuSans-73" x="1528.939453"/>
     </g>
    </g>
   </g>
   <g id="line2d_189">
    <defs>
     <path id="m73f8b03e23" d="M 0 1 
C 0.265203 1 0.51958 0.894634 0.707107 0.707107 
C 0.894634 0.51958 1 0.265203 1 0 
C 1 -0.265203 0.894634 -0.51958 0.707107 -0.707107 
C 0.51958 -0.894634 0.265203 -1 0 -1 
C -0.265203 -1 -0.51958 -0.894634 -0.707107 -0.707107 
C -0.894634 -0.51958 -1 -0.265203 -1 0 
C -1 0.265203 -0.894634 0.51958 -0.707107 0.707107 
C -0.51958 0.894634 -0.265203 1 0 1 
z
" style="stroke: #faf0e6"/>
    </defs>
    <g>
     <use xlink:href="#m73f8b03e23" x="278.441177" y="60.390621" style="fill: #faf0e6; stroke: #faf0e6"/>
    </g>
   </g>
   <g id="line2d_190">
    <defs>
     <path id="ma5743c6724" d="M 0 1 
C 0.265203 1 0.51958 0.894634 0.707107 0.707107 
C 0.894634 0.51958 1 0.265203 1 0 
C 1 -0.265203 0.894634 -0.51958 0.707107 -0.707107 
C 0.51958 -0.894634 0.265203 -1 0 -1 
C -0.265203 -1 -0.51958 -0.894634 -0.707107 -0.707107 
C -0.894634 -0.51958 -1 -0.265203 -1 0 
C -1 0.265203 -0.894634 0.51958 -0.707107 0.707107 
C -0.51958 0.894634 -0.265203 1 0 1 
z
" style="stroke: #1874b4"/>
    </defs>
    <g>
     <use xlink:href="#ma5743c6724" x="216.168382" y="167.038014" style="fill: #1874b4; stroke: #1874b4"/>
    </g>
   </g>
   <g id="line2d_191">
    <path d="M 36.933397 298.944 
L 36.933397 297.072993 
L 80.248597 297.072993 
L 80.248597 295.669738 
L 91.305777 295.669738 
L 91.305777 294.734234 
L 98.223251 294.734234 
L 98.223251 293.330979 
L 103.269713 293.330979 
L 103.269713 292.863228 
L 107.244765 292.863228 
L 107.244765 290.992221 
L 110.524623 290.992221 
L 110.524623 286.314703 
L 117.899543 286.314703 
L 117.899543 285.3792 
L 119.830627 285.3792 
L 119.830627 283.975945 
L 121.581803 283.975945 
L 121.581803 283.040441 
L 124.659926 283.040441 
L 124.659926 281.169434 
L 126.028642 281.169434 
L 126.028642 280.233931 
L 127.304491 280.233931 
L 127.304491 279.766179 
L 128.499277 279.766179 
L 128.499277 279.298428 
L 129.622688 279.298428 
L 129.622688 277.427421 
L 130.682774 277.427421 
L 130.682774 275.556414 
L 131.686295 275.556414 
L 131.686295 274.62091 
L 132.638982 274.62091 
L 132.638982 271.8144 
L 134.41079 271.8144 
L 134.41079 270.878897 
L 135.237805 270.878897 
L 135.237805 269.00789 
L 136.790153 269.00789 
L 136.790153 267.604634 
L 138.902075 267.604634 
L 138.902075 267.136883 
L 139.556456 267.136883 
L 139.556456 265.733628 
L 140.188837 265.733628 
L 140.188837 264.330372 
L 140.800648 264.330372 
L 140.800648 263.862621 
L 141.96763 263.862621 
L 141.96763 261.991614 
L 144.10457 261.991614 
L 144.10457 261.05611 
L 144.602918 261.05611 
L 144.602918 259.652855 
L 145.088405 259.652855 
L 145.088405 259.185103 
L 145.561676 259.185103 
L 145.561676 258.717352 
L 146.913986 258.717352 
L 146.913986 256.846345 
L 147.343984 256.846345 
L 147.343984 255.910841 
L 148.175569 255.910841 
L 148.175569 254.975338 
L 148.57797 254.975338 
L 148.57797 253.104331 
L 149.73597 253.104331 
L 149.73597 250.765572 
L 150.8268 250.765572 
L 150.8268 249.362317 
L 151.520392 249.362317 
L 151.520392 248.426814 
L 151.857828 248.426814 
L 151.857828 247.49131 
L 152.515067 247.49131 
L 152.515067 247.023559 
L 153.150116 247.023559 
L 153.150116 245.152552 
L 153.764426 245.152552 
L 153.764426 244.6848 
L 154.359307 244.6848 
L 154.359307 243.281545 
L 154.649839 243.281545 
L 154.649839 241.87829 
L 154.935952 241.87829 
L 154.935952 240.942786 
L 155.217778 240.942786 
L 155.217778 239.071779 
L 157.825621 239.071779 
L 157.825621 238.604028 
L 158.067574 238.604028 
L 158.067574 237.668524 
L 158.306454 237.668524 
L 158.306454 237.200772 
L 159.005416 237.200772 
L 159.005416 236.733021 
L 159.457367 236.733021 
L 159.457367 236.265269 
L 159.679334 236.265269 
L 159.679334 235.329766 
L 160.115564 235.329766 
L 160.115564 234.394262 
L 160.329943 234.394262 
L 160.329943 232.991007 
L 160.541906 232.991007 
L 160.541906 231.587752 
L 161.366654 231.587752 
L 161.366654 230.652248 
L 161.567313 230.652248 
L 161.567313 230.184497 
L 161.765853 230.184497 
L 161.765853 229.248993 
L 161.96232 229.248993 
L 161.96232 228.31349 
L 162.349204 228.31349 
L 162.349204 227.845738 
L 162.728291 227.845738 
L 162.728291 226.442483 
L 162.915008 226.442483 
L 162.915008 225.506979 
L 163.099889 225.506979 
L 163.099889 224.571476 
L 163.997986 224.571476 
L 163.997986 223.635972 
L 164.516958 223.635972 
L 164.516958 222.700469 
L 165.021997 222.700469 
L 165.021997 221.764966 
L 165.834717 221.764966 
L 165.834717 221.297214 
L 165.993131 221.297214 
L 165.993131 220.36171 
L 166.306012 220.36171 
L 166.306012 219.426207 
L 166.460523 219.426207 
L 166.460523 218.490703 
L 166.613775 218.490703 
L 166.613775 217.5552 
L 166.765788 217.5552 
L 166.765788 216.151945 
L 167.507957 216.151945 
L 167.507957 215.216441 
L 167.652941 215.216441 
L 167.652941 214.74869 
L 167.796816 214.74869 
L 167.796816 213.345434 
L 168.909839 213.345434 
L 168.909839 210.538924 
L 169.442591 210.538924 
L 169.442591 210.071172 
L 169.573454 210.071172 
L 169.573454 209.603421 
L 170.340075 209.603421 
L 170.340075 208.667917 
L 170.464862 208.667917 
L 170.464862 207.264662 
L 171.315934 207.264662 
L 171.315934 206.79691 
L 171.434432 206.79691 
L 171.434432 206.329159 
L 171.669213 206.329159 
L 171.669213 205.393655 
L 172.580086 205.393655 
L 172.580086 204.925903 
L 173.235417 204.925903 
L 173.235417 203.9904 
L 174.481327 203.9904 
L 174.581522 202.119393 
L 174.977048 202.119393 
L 174.977048 201.651641 
L 175.171736 201.651641 
L 175.26833 198.845131 
L 175.460042 198.845131 
L 175.460042 197.909628 
L 176.390345 197.909628 
L 176.480894 196.506372 
L 176.749956 196.506372 
L 176.749956 196.038621 
L 177.015223 196.038621 
L 177.015223 194.635366 
L 177.620009 194.635366 
L 177.620009 194.167614 
L 177.957067 194.167614 
L 177.957067 193.699862 
L 178.451594 193.699862 
L 178.451594 192.764359 
L 179.169832 192.764359 
L 179.169832 192.296607 
L 179.403277 192.296607 
L 179.403277 191.361103 
L 179.557313 191.361103 
L 179.557313 190.893352 
L 179.861652 190.893352 
L 179.861652 189.957848 
L 180.309124 189.957848 
L 180.309124 189.490097 
L 180.52893 189.490097 
L 180.601632 188.086841 
L 181.383339 188.086841 
L 181.383339 187.61909 
L 181.591012 187.61909 
L 181.65973 186.215834 
L 181.864391 186.215834 
L 181.864391 185.748083 
L 182.399511 185.748083 
L 182.399511 185.280331 
L 182.596321 185.280331 
L 182.596321 184.344828 
L 182.919829 184.344828 
L 182.919829 183.877076 
L 183.237868 183.877076 
L 183.300836 182.941572 
L 183.550619 182.941572 
L 183.550619 182.473821 
L 184.220899 182.473821 
L 184.220899 182.006069 
L 184.458835 182.006069 
L 184.458835 181.070566 
L 185.381579 181.070566 
L 185.381579 180.602814 
L 186.686007 180.602814 
L 186.686007 180.135062 
L 187.050029 180.135062 
L 187.050029 179.199559 
L 188.58248 179.199559 
L 188.58248 178.731807 
L 188.771423 178.731807 
L 188.771423 178.264055 
L 188.911896 178.264055 
L 188.911896 177.796303 
L 189.41817 177.796303 
L 189.41817 177.328552 
L 190.348419 177.328552 
L 190.348419 176.8608 
L 190.817932 176.8608 
L 190.817932 175.925297 
L 191.110724 175.925297 
L 191.110724 175.457545 
L 192.041879 175.457545 
L 192.041879 174.989793 
L 194.09779 174.989793 
L 194.09779 174.05429 
L 194.690328 174.05429 
L 194.690328 173.118786 
L 195.496301 173.118786 
L 195.496301 172.651034 
L 196.269157 172.651034 
L 196.269157 172.183283 
L 196.920301 172.183283 
L 196.920301 171.247779 
L 198.329076 171.247779 
L 198.329076 170.780028 
L 198.886289 170.780028 
L 198.886289 170.312276 
L 202.766984 170.312276 
L 202.766984 169.844524 
L 206.829047 169.844524 
L 206.829047 169.376772 
L 207.776623 169.376772 
L 207.776623 168.909021 
L 210.452022 168.909021 
L 210.452022 168.441269 
L 212.409879 168.441269 
L 212.409879 167.505766 
L 216.168382 167.505766 
L 216.168382 167.038014 
L 360.8064 167.038014 
L 360.8064 167.038014 
" style="fill: none; stroke: #1874b4; stroke-width: 1.766667; stroke-linecap: square"/>
   </g>
   <g id="line2d_192">
    <defs>
     <path id="m7f21b548b4" d="M 0 6.801667 
C 1.803823 6.801667 3.534009 6.085 4.809505 4.809505 
C 6.085 3.534009 6.801667 1.803823 6.801667 0 
C 6.801667 -1.803823 6.085 -3.534009 4.809505 -4.809505 
C 3.534009 -6.085 1.803823 -6.801667 0 -6.801667 
C -1.803823 -6.801667 -3.534009 -6.085 -4.809505 -4.809505 
C -6.085 -3.534009 -6.801667 -1.803823 -6.801667 0 
C -6.801667 1.803823 -6.085 3.534009 -4.809505 4.809505 
C -3.534009 6.085 -1.803823 6.801667 0 6.801667 
z
" style="stroke: #1874b4"/>
    </defs>
    <g>
     <use xlink:href="#m7f21b548b4" x="151.520392" y="248.426814" style="fill-opacity: 0; stroke: #1874b4"/>
     <use xlink:href="#m7f21b548b4" x="202.766984" y="170.312276" style="fill-opacity: 0; stroke: #1874b4"/>
     <use xlink:href="#m7f21b548b4" x="216.168382" y="167.038014" style="fill-opacity: 0; stroke: #1874b4"/>
     <use xlink:href="#m7f21b548b4" x="216.168382" y="167.038014" style="fill-opacity: 0; stroke: #1874b4"/>
     <use xlink:href="#m7f21b548b4" x="216.168382" y="167.038014" style="fill-opacity: 0; stroke: #1874b4"/>
     <use xlink:href="#m7f21b548b4" x="360.8064" y="167.038014" style="fill-opacity: 0; stroke: #1874b4"/>
    </g>
   </g>
   <g id="line2d_193">
    <path style="fill: none; stroke: #1874b4; stroke-width: 1.766667; stroke-linecap: square"/>
    <g/>
   </g>
   <g id="line2d_194">
    <path d="M 230.85641 167.038014 
" clip-path="url(#p104e4821df)" style="fill: none; stroke: #1874b4; stroke-width: 1.5; stroke-linecap: square"/>
    <defs>
     <path id="m0bf9597f6c" d="M -10.138214 10.138214 
L 10.138214 -10.138214 
M -10.138214 -10.138214 
L 10.138214 10.138214 
" style="stroke: #1874b4"/>
    </defs>
    <g clip-path="url(#p104e4821df)">
     <use xlink:href="#m0bf9597f6c" x="230.85641" y="167.038014" style="fill: #1874b4; stroke: #1874b4"/>
    </g>
   </g>
   <g id="line2d_195">
    <defs>
     <path id="meb3bfe62cb" d="M 0 1 
C 0.265203 1 0.51958 0.894634 0.707107 0.707107 
C 0.894634 0.51958 1 0.265203 1 0 
C 1 -0.265203 0.894634 -0.51958 0.707107 -0.707107 
C 0.51958 -0.894634 0.265203 -1 0 -1 
C -0.265203 -1 -0.51958 -0.894634 -0.707107 -0.707107 
C -0.894634 -0.51958 -1 -0.265203 -1 0 
C -1 0.265203 -0.894634 0.51958 -0.707107 0.707107 
C -0.51958 0.894634 -0.265203 1 0 1 
z
" style="stroke: #ff7d0b"/>
    </defs>
    <g>
     <use xlink:href="#meb3bfe62cb" x="188.641729" y="162.360497" style="fill: #ff7d0b; stroke: #ff7d0b"/>
    </g>
   </g>
   <g id="line2d_196">
    <path d="M 36.933397 298.944 
L 36.933397 297.072993 
L 73.538988 297.072993 
L 73.538988 292.395476 
L 90.230539 292.395476 
L 90.230539 290.992221 
L 92.322865 290.992221 
L 92.322865 289.121214 
L 95.080704 289.121214 
L 95.080704 288.653462 
L 103.269713 288.653462 
L 103.269713 288.18571 
L 106.326946 288.18571 
L 106.326946 286.782455 
L 109.756698 286.782455 
L 109.756698 285.846952 
L 110.524623 285.846952 
L 110.524623 284.443697 
L 111.97238 284.443697 
L 111.97238 283.975945 
L 112.656511 283.975945 
L 112.656511 282.104938 
L 113.316634 282.104938 
L 113.316634 281.637186 
L 113.954374 281.637186 
L 113.954374 281.169434 
L 114.571202 281.169434 
L 114.571202 280.701683 
L 116.308887 280.701683 
L 116.308887 279.766179 
L 116.583514 279.766179 
L 116.583514 278.362924 
L 116.854188 278.362924 
L 116.854188 277.895172 
L 117.384126 277.895172 
L 117.384126 276.959669 
L 119.366121 276.959669 
L 119.366121 276.491917 
L 120.506564 276.491917 
L 120.506564 275.556414 
L 120.944062 275.556414 
L 120.944062 274.62091 
L 121.159053 274.62091 
L 121.159053 273.685407 
L 122.19863 273.685407 
L 122.19863 273.217655 
L 122.990812 273.217655 
L 122.990812 272.282152 
L 123.374735 272.282152 
L 123.374735 271.8144 
L 123.750979 271.8144 
L 123.750979 271.346648 
L 124.481616 271.346648 
L 124.481616 270.878897 
L 125.35673 270.878897 
L 125.35673 270.411145 
L 125.862901 270.411145 
L 125.862901 269.943393 
L 126.836129 269.943393 
L 126.836129 269.00789 
L 127.149662 269.00789 
L 127.149662 267.604634 
L 127.761474 267.604634 
L 127.761474 267.136883 
L 128.354013 267.136883 
L 128.354013 266.201379 
L 128.643427 266.201379 
L 128.643427 262.459366 
L 129.485876 262.459366 
L 129.485876 261.523862 
L 130.160198 261.523862 
L 130.160198 260.120607 
L 131.808053 260.120607 
L 131.808053 259.652855 
L 132.869802 259.652855 
L 132.869802 259.185103 
L 133.097823 259.185103 
L 133.097823 258.717352 
L 133.323114 258.717352 
L 133.323114 257.314097 
L 134.516177 257.314097 
L 134.516177 256.846345 
L 135.237805 256.846345 
L 135.237805 255.910841 
L 136.602972 255.910841 
L 136.602972 254.975338 
L 137.250116 254.975338 
L 137.250116 253.104331 
L 137.520791 253.104331 
L 137.520791 252.168828 
L 138.224108 252.168828 
L 138.224108 251.701076 
L 139.875304 251.701076 
L 139.875304 251.233324 
L 140.032723 251.233324 
L 140.032723 250.765572 
L 140.26641 250.765572 
L 140.26641 250.297821 
L 140.49723 250.297821 
L 140.49723 248.894566 
L 142.525051 248.894566 
L 142.525051 248.426814 
L 142.865233 248.426814 
L 142.865233 247.49131 
L 143.066428 247.49131 
L 143.066428 247.023559 
L 143.397043 247.023559 
L 143.397043 246.088055 
L 143.977892 246.088055 
L 143.977892 245.620303 
L 144.355394 245.620303 
L 144.355394 244.6848 
L 145.678157 244.6848 
L 145.736128 242.813793 
L 146.193574 242.813793 
L 146.193574 242.346041 
L 146.804934 242.346041 
L 146.804934 241.410538 
L 147.712333 241.410538 
L 147.712333 240.942786 
L 147.868016 240.942786 
L 147.868016 240.475034 
L 149.547853 240.475034 
L 149.642146 239.539531 
L 149.782707 239.539531 
L 149.782707 238.604028 
L 151.133398 238.604028 
L 151.133398 237.668524 
L 151.647641 237.668524 
L 151.647641 236.733021 
L 151.815978 236.733021 
L 151.815978 235.329766 
L 151.94125 235.329766 
L 151.94125 234.394262 
L 152.189318 234.394262 
L 152.189318 233.458759 
L 152.352898 233.458759 
L 152.352898 232.523255 
L 152.715833 232.523255 
L 152.795543 230.652248 
L 153.071898 230.652248 
L 153.071898 230.184497 
L 153.650761 230.184497 
L 153.650761 229.716745 
L 154.17542 229.716745 
L 154.17542 228.31349 
L 155.252711 228.31349 
L 155.28758 226.442483 
L 155.529866 226.442483 
L 155.529866 225.506979 
L 155.701037 225.506979 
L 155.701037 225.039228 
L 156.696589 225.039228 
L 156.696589 224.103724 
L 159.033983 224.103724 
L 159.033983 223.168221 
L 159.232748 223.168221 
L 159.232748 222.232717 
L 159.679334 222.232717 
L 159.679334 221.764966 
L 159.925957 221.764966 
L 159.925957 221.297214 
L 160.329943 221.297214 
L 160.436223 218.958455 
L 160.855439 218.958455 
L 160.855439 218.490703 
L 161.265517 218.490703 
L 161.265517 217.5552 
L 161.542347 217.5552 
L 161.542347 216.619697 
L 162.084079 216.619697 
L 162.084079 215.684193 
L 163.214524 215.684193 
L 163.214524 214.74869 
L 163.486831 214.74869 
L 163.486831 213.813186 
L 163.777449 213.813186 
L 163.777449 213.345434 
L 164.063646 213.345434 
L 164.085482 211.474428 
L 164.194282 211.474428 
L 164.194282 211.006676 
L 164.623299 211.006676 
L 164.623299 210.071172 
L 165.228492 210.071172 
L 165.228492 209.135669 
L 165.35131 209.135669 
L 165.35131 208.200166 
L 165.51383 208.200166 
L 165.51383 207.732414 
L 165.735027 207.732414 
L 165.735027 206.79691 
L 166.052194 206.79691 
L 166.130658 205.393655 
L 166.169767 205.393655 
L 166.169767 204.925903 
L 166.344759 204.925903 
L 166.344759 204.458152 
L 167.416772 204.458152 
L 167.416772 203.9904 
L 167.76095 203.9904 
L 167.76095 203.522648 
L 167.975126 203.522648 
L 167.975126 203.054897 
L 168.291886 203.054897 
L 168.291886 202.119393 
L 168.6034 202.119393 
L 168.6034 201.18389 
L 169.244573 201.18389 
L 169.244573 200.716138 
L 169.491772 200.716138 
L 169.524487 199.312883 
L 169.928705 199.312883 
L 169.992581 197.909628 
L 170.103845 197.909628 
L 170.167131 195.570869 
L 170.773255 195.570869 
L 170.773255 195.103117 
L 171.046551 195.103117 
L 171.046551 194.167614 
L 172.03029 194.167614 
L 172.04459 193.23211 
L 172.144386 193.23211 
L 172.144386 192.296607 
L 172.53836 192.296607 
L 172.53836 191.828855 
L 173.005923 191.828855 
L 173.005923 190.893352 
L 173.275627 190.893352 
L 173.275627 189.957848 
L 173.395744 189.957848 
L 173.422332 189.022345 
L 174.036588 189.022345 
L 174.139174 187.61909 
L 174.330027 187.61909 
L 174.393216 186.683586 
L 174.681186 186.683586 
L 174.681186 185.748083 
L 174.940319 185.748083 
L 174.940319 185.280331 
L 175.280369 185.280331 
L 175.36443 183.409324 
L 175.930944 183.409324 
L 175.930944 182.941572 
L 176.173528 182.941572 
L 176.276542 181.538317 
L 176.344907 181.538317 
L 176.344907 181.070566 
L 176.627113 181.070566 
L 176.627113 180.135062 
L 177.736555 180.135062 
L 177.736555 179.199559 
L 178.133703 179.199559 
L 178.133703 178.264055 
L 178.400683 178.264055 
L 178.421064 177.328552 
L 178.522639 177.328552 
L 178.613589 175.925297 
L 179.518922 175.925297 
L 179.518922 175.457545 
L 179.767074 175.457545 
L 179.804963 174.522041 
L 179.889933 174.522041 
L 179.889933 174.05429 
L 180.637878 174.05429 
L 180.637878 173.586538 
L 180.835991 173.586538 
L 180.871788 172.183283 
L 181.965892 172.183283 
L 181.965892 171.247779 
L 182.092004 171.247779 
L 182.092004 170.780028 
L 182.407753 170.780028 
L 182.407753 170.312276 
L 182.637065 170.312276 
L 182.637065 169.844524 
L 182.766856 169.844524 
L 182.766856 169.376772 
L 182.919829 169.376772 
L 182.919829 168.909021 
L 183.519577 168.909021 
L 183.519577 167.973517 
L 183.941981 167.973517 
L 183.941981 167.038014 
L 184.070647 167.038014 
L 184.100793 166.10251 
L 184.649966 166.10251 
L 184.649966 165.167007 
L 185.339322 165.167007 
L 185.339322 164.699255 
L 185.812768 164.699255 
L 185.812768 164.231503 
L 186.607077 164.231503 
L 186.607077 163.763752 
L 187.862709 163.763752 
L 187.862709 163.296 
L 188.186685 163.296 
L 188.186685 162.828248 
L 188.641729 162.828248 
L 188.641729 162.360497 
L 360.8064 162.360497 
L 360.8064 162.360497 
" style="fill: none; stroke: #ff7d0b; stroke-width: 1.766667; stroke-linecap: square"/>
   </g>
   <g id="line2d_197">
    <defs>
     <path id="m4ddba35a5f" d="M -0 9.619009 
L 5.771406 0 
L 0 -9.619009 
L -5.771406 0 
z
" style="stroke: #ff7d0b; stroke-linejoin: miter"/>
    </defs>
    <g>
     <use xlink:href="#m4ddba35a5f" x="90.230539" y="290.992221" style="fill-opacity: 0; stroke: #ff7d0b; stroke-linejoin: miter"/>
     <use xlink:href="#m4ddba35a5f" x="155.529866" y="226.442483" style="fill-opacity: 0; stroke: #ff7d0b; stroke-linejoin: miter"/>
     <use xlink:href="#m4ddba35a5f" x="188.641729" y="162.828248" style="fill-opacity: 0; stroke: #ff7d0b; stroke-linejoin: miter"/>
     <use xlink:href="#m4ddba35a5f" x="188.641729" y="162.360497" style="fill-opacity: 0; stroke: #ff7d0b; stroke-linejoin: miter"/>
     <use xlink:href="#m4ddba35a5f" x="188.641729" y="162.360497" style="fill-opacity: 0; stroke: #ff7d0b; stroke-linejoin: miter"/>
     <use xlink:href="#m4ddba35a5f" x="360.8064" y="162.360497" style="fill-opacity: 0; stroke: #ff7d0b; stroke-linejoin: miter"/>
    </g>
   </g>
   <g id="line2d_198">
    <path style="fill: none; stroke: #ff7d0b; stroke-width: 1.766667; stroke-linecap: square"/>
    <g/>
   </g>
   <g id="line2d_199">
    <path d="M 230.859546 162.360497 
" clip-path="url(#p104e4821df)" style="fill: none; stroke: #ff7d0b; stroke-width: 1.5; stroke-linecap: square"/>
    <defs>
     <path id="m2f986cb8e4" d="M -10.138214 10.138214 
L 10.138214 -10.138214 
M -10.138214 -10.138214 
L 10.138214 10.138214 
" style="stroke: #ff7d0b"/>
    </defs>
    <g clip-path="url(#p104e4821df)">
     <use xlink:href="#m2f986cb8e4" x="230.859546" y="162.360497" style="fill: #ff7d0b; stroke: #ff7d0b"/>
    </g>
   </g>
   <g id="line2d_200">
    <path d="M 360.8064 167.038014 
L 380.514816 293.51808 
" style="fill: none; stroke: #1874b4; stroke-width: 1.766667; stroke-linecap: square"/>
    <g>
     <use xlink:href="#m7f21b548b4" x="360.8064" y="167.038014" style="fill-opacity: 0; stroke: #1874b4"/>
     <use xlink:href="#m7f21b548b4" x="380.514816" y="293.51808" style="fill-opacity: 0; stroke: #1874b4"/>
    </g>
   </g>
   <g id="line2d_201">
    <path d="M 360.8064 162.360497 
L 380.514816 163.296 
" style="fill: none; stroke: #ff7d0b; stroke-width: 1.766667; stroke-linecap: square"/>
    <g>
     <use xlink:href="#m4ddba35a5f" x="360.8064" y="162.360497" style="fill-opacity: 0; stroke: #ff7d0b; stroke-linejoin: miter"/>
     <use xlink:href="#m4ddba35a5f" x="380.514816" y="163.296" style="fill-opacity: 0; stroke: #ff7d0b; stroke-linejoin: miter"/>
    </g>
   </g>
   <g id="line2d_202">
    <path d="M 360.8064 298.944 
L 360.8064 27.648 
" style="fill: none; stroke: #000000; stroke-width: 1.5; stroke-linecap: square"/>
   </g>
   <g id="patch_3">
    <path d="M 57.6 298.944 
L 360.8064 298.944 
" style="fill: none; stroke: #000000; stroke-width: 0.8; stroke-linejoin: miter; stroke-linecap: square"/>
   </g>
   <g id="patch_4">
    <path d="M 57.6 27.648 
L 360.8064 27.648 
" style="fill: none; stroke: #000000; stroke-width: 0.8; stroke-linejoin: miter; stroke-linecap: square"/>
   </g>
   <g id="text_17">
    <!-- kerComo -->
    <g transform="translate(386.578944 297.381205) scale(0.14 -0.14)">
     <defs>
      <path id="DejaVuSans-6b" d="M 581 4863 
L 1159 4863 
L 1159 1991 
L 2875 3500 
L 3609 3500 
L 1753 1863 
L 3688 0 
L 2938 0 
L 1159 1709 
L 1159 0 
L 581 0 
L 581 4863 
z
" transform="scale(0.015625)"/>
      <path id="DejaVuSans-43" d="M 4122 4306 
L 4122 3641 
Q 3803 3938 3442 4084 
Q 3081 4231 2675 4231 
Q 1875 4231 1450 3742 
Q 1025 3253 1025 2328 
Q 1025 1406 1450 917 
Q 1875 428 2675 428 
Q 3081 428 3442 575 
Q 3803 722 4122 1019 
L 4122 359 
Q 3791 134 3420 21 
Q 3050 -91 2638 -91 
Q 1578 -91 968 557 
Q 359 1206 359 2328 
Q 359 3453 968 4101 
Q 1578 4750 2638 4750 
Q 3056 4750 3426 4639 
Q 3797 4528 4122 4306 
z
" transform="scale(0.015625)"/>
     </defs>
     <use xlink:href="#DejaVuSans-6b"/>
     <use xlink:href="#DejaVuSans-65" x="54.285156"/>
     <use xlink:href="#DejaVuSans-72" x="115.808594"/>
     <use xlink:href="#DejaVuSans-43" x="156.921875"/>
     <use xlink:href="#DejaVuSans-6f" x="226.746094"/>
     <use xlink:href="#DejaVuSans-6d" x="287.927734"/>
     <use xlink:href="#DejaVuSans-6f" x="385.339844"/>
    </g>
   </g>
   <g id="text_18">
    <!-- kerLQ -->
    <g transform="translate(386.578944 167.159125) scale(0.14 -0.14)">
     <defs>
      <path id="DejaVuSans-4c" d="M 628 4666 
L 1259 4666 
L 1259 531 
L 3531 531 
L 3531 0 
L 628 0 
L 628 4666 
z
" transform="scale(0.015625)"/>
      <path id="DejaVuSans-51" d="M 2522 4238 
Q 1834 4238 1429 3725 
Q 1025 3213 1025 2328 
Q 1025 1447 1429 934 
Q 1834 422 2522 422 
Q 3209 422 3611 934 
Q 4013 1447 4013 2328 
Q 4013 3213 3611 3725 
Q 3209 4238 2522 4238 
z
M 3406 84 
L 4238 -825 
L 3475 -825 
L 2784 -78 
Q 2681 -84 2626 -87 
Q 2572 -91 2522 -91 
Q 1538 -91 948 567 
Q 359 1225 359 2328 
Q 359 3434 948 4092 
Q 1538 4750 2522 4750 
Q 3503 4750 4090 4092 
Q 4678 3434 4678 2328 
Q 4678 1516 4351 937 
Q 4025 359 3406 84 
z
" transform="scale(0.015625)"/>
     </defs>
     <use xlink:href="#DejaVuSans-6b"/>
     <use xlink:href="#DejaVuSans-65" x="54.285156"/>
     <use xlink:href="#DejaVuSans-72" x="115.808594"/>
     <use xlink:href="#DejaVuSans-4c" x="156.921875"/>
     <use xlink:href="#DejaVuSans-51" x="212.634766"/>
    </g>
   </g>
   <g id="text_19">
    <!-- best 2016 -->
    <g transform="translate(386.578944 36.937045) scale(0.14 -0.14)">
     <defs>
      <path id="DejaVuSans-62" d="M 3116 1747 
Q 3116 2381 2855 2742 
Q 2594 3103 2138 3103 
Q 1681 3103 1420 2742 
Q 1159 2381 1159 1747 
Q 1159 1113 1420 752 
Q 1681 391 2138 391 
Q 2594 391 2855 752 
Q 3116 1113 3116 1747 
z
M 1159 2969 
Q 1341 3281 1617 3432 
Q 1894 3584 2278 3584 
Q 2916 3584 3314 3078 
Q 3713 2572 3713 1747 
Q 3713 922 3314 415 
Q 2916 -91 2278 -91 
Q 1894 -91 1617 61 
Q 1341 213 1159 525 
L 1159 0 
L 581 0 
L 581 4863 
L 1159 4863 
L 1159 2969 
z
" transform="scale(0.015625)"/>
     </defs>
     <use xlink:href="#DejaVuSans-62"/>
     <use xlink:href="#DejaVuSans-65" x="63.476562"/>
     <use xlink:href="#DejaVuSans-73" x="125"/>
     <use xlink:href="#DejaVuSans-74" x="177.099609"/>
     <use xlink:href="#DejaVuSans-20" x="216.308594"/>
     <use xlink:href="#DejaVuSans-32" x="248.095703"/>
     <use xlink:href="#DejaVuSans-30" x="311.71875"/>
     <use xlink:href="#DejaVuSans-31" x="375.341797"/>
     <use xlink:href="#DejaVuSans-36" x="438.964844"/>
    </g>
   </g>
   <g id="text_20">
    <!-- bbob-biobj f9, 3-D -->
    <g transform="translate(60.632064 37.199554) scale(0.09 -0.09)">
     <defs>
      <path id="DejaVuSans-6a" d="M 603 3500 
L 1178 3500 
L 1178 -63 
Q 1178 -731 923 -1031 
Q 669 -1331 103 -1331 
L -116 -1331 
L -116 -844 
L 38 -844 
Q 366 -844 484 -692 
Q 603 -541 603 -63 
L 603 3500 
z
M 603 4863 
L 1178 4863 
L 1178 4134 
L 603 4134 
L 603 4863 
z
" transform="scale(0.015625)"/>
      <path id="DejaVuSans-39" d="M 703 97 
L 703 672 
Q 941 559 1184 500 
Q 1428 441 1663 441 
Q 2288 441 2617 861 
Q 2947 1281 2994 2138 
Q 2813 1869 2534 1725 
Q 2256 1581 1919 1581 
Q 1219 1581 811 2004 
Q 403 2428 403 3163 
Q 403 3881 828 4315 
Q 1253 4750 1959 4750 
Q 2769 4750 3195 4129 
Q 3622 3509 3622 2328 
Q 3622 1225 3098 567 
Q 2575 -91 1691 -91 
Q 1453 -91 1209 -44 
Q 966 3 703 97 
z
M 1959 2075 
Q 2384 2075 2632 2365 
Q 2881 2656 2881 3163 
Q 2881 3666 2632 3958 
Q 2384 4250 1959 4250 
Q 1534 4250 1286 3958 
Q 1038 3666 1038 3163 
Q 1038 2656 1286 2365 
Q 1534 2075 1959 2075 
z
" transform="scale(0.015625)"/>
      <path id="DejaVuSans-44" d="M 1259 4147 
L 1259 519 
L 2022 519 
Q 2988 519 3436 956 
Q 3884 1394 3884 2338 
Q 3884 3275 3436 3711 
Q 2988 4147 2022 4147 
L 1259 4147 
z
M 628 4666 
L 1925 4666 
Q 3281 4666 3915 4102 
Q 4550 3538 4550 2338 
Q 4550 1131 3912 565 
Q 3275 0 1925 0 
L 628 0 
L 628 4666 
z
" transform="scale(0.015625)"/>
     </defs>
     <use xlink:href="#DejaVuSans-62"/>
     <use xlink:href="#DejaVuSans-62" x="63.476562"/>
     <use xlink:href="#DejaVuSans-6f" x="126.953125"/>
     <use xlink:href="#DejaVuSans-62" x="188.134766"/>
     <use xlink:href="#DejaVuSans-2d" x="251.611328"/>
     <use xlink:href="#DejaVuSans-62" x="287.695312"/>
     <use xlink:href="#DejaVuSans-69" x="351.171875"/>
     <use xlink:href="#DejaVuSans-6f" x="378.955078"/>
     <use xlink:href="#DejaVuSans-62" x="440.136719"/>
     <use xlink:href="#DejaVuSans-6a" x="503.613281"/>
     <use xlink:href="#DejaVuSans-20" x="531.396484"/>
     <use xlink:href="#DejaVuSans-66" x="563.183594"/>
     <use xlink:href="#DejaVuSans-39" x="598.388672"/>
     <use xlink:href="#DejaVuSans-2c" x="662.011719"/>
     <use xlink:href="#DejaVuSans-20" x="693.798828"/>
     <use xlink:href="#DejaVuSans-33" x="725.585938"/>
     <use xlink:href="#DejaVuSans-2d" x="789.208984"/>
     <use xlink:href="#DejaVuSans-44" x="825.292969"/>
    </g>
    <!-- 58 targets: 1..-1.0e-4 -->
    <g transform="translate(60.632064 47.277585) scale(0.09 -0.09)">
     <defs>
      <path id="DejaVuSans-3a" d="M 750 794 
L 1409 794 
L 1409 0 
L 750 0 
L 750 794 
z
M 750 3309 
L 1409 3309 
L 1409 2516 
L 750 2516 
L 750 3309 
z
" transform="scale(0.015625)"/>
     </defs>
     <use xlink:href="#DejaVuSans-35"/>
     <use xlink:href="#DejaVuSans-38" x="63.623047"/>
     <use xlink:href="#DejaVuSans-20" x="127.246094"/>
     <use xlink:href="#DejaVuSans-74" x="159.033203"/>
     <use xlink:href="#DejaVuSans-61" x="198.242188"/>
     <use xlink:href="#DejaVuSans-72" x="259.521484"/>
     <use xlink:href="#DejaVuSans-67" x="298.884766"/>
     <use xlink:href="#DejaVuSans-65" x="362.361328"/>
     <use xlink:href="#DejaVuSans-74" x="423.884766"/>
     <use xlink:href="#DejaVuSans-73" x="463.09375"/>
     <use xlink:href="#DejaVuSans-3a" x="515.193359"/>
     <use xlink:href="#DejaVuSans-20" x="548.884766"/>
     <use xlink:href="#DejaVuSans-31" x="580.671875"/>
     <use xlink:href="#DejaVuSans-2e" x="644.294922"/>
     <use xlink:href="#DejaVuSans-2e" x="676.082031"/>
     <use xlink:href="#DejaVuSans-2d" x="707.869141"/>
     <use xlink:href="#DejaVuSans-31" x="743.953125"/>
     <use xlink:href="#DejaVuSans-2e" x="807.576172"/>
     <use xlink:href="#DejaVuSans-30" x="839.363281"/>
     <use xlink:href="#DejaVuSans-65" x="902.986328"/>
     <use xlink:href="#DejaVuSans-2d" x="964.509766"/>
     <use xlink:href="#DejaVuSans-34" x="1000.59375"/>
    </g>
    <!-- 10 instances -->
    <g transform="translate(60.632064 57.355616) scale(0.09 -0.09)">
     <use xlink:href="#DejaVuSans-31"/>
     <use xlink:href="#DejaVuSans-30" x="63.623047"/>
     <use xlink:href="#DejaVuSans-20" x="127.246094"/>
     <use xlink:href="#DejaVuSans-69" x="159.033203"/>
     <use xlink:href="#DejaVuSans-6e" x="186.816406"/>
     <use xlink:href="#DejaVuSans-73" x="250.195312"/>
     <use xlink:href="#DejaVuSans-74" x="302.294922"/>
     <use xlink:href="#DejaVuSans-61" x="341.503906"/>
     <use xlink:href="#DejaVuSans-6e" x="402.783203"/>
     <use xlink:href="#DejaVuSans-63" x="466.162109"/>
     <use xlink:href="#DejaVuSans-65" x="521.142578"/>
     <use xlink:href="#DejaVuSans-73" x="582.666016"/>
    </g>
   </g>
   <g id="text_21">
    <!-- v2.6.1.152, hv-hash=ff0e71e8cd978373 -->
    <g style="fill: #808080" transform="translate(107.804762 294.151352) scale(0.1 -0.1)">
     <defs>
      <path id="DejaVuSans-68" d="M 3513 2113 
L 3513 0 
L 2938 0 
L 2938 2094 
Q 2938 2591 2744 2837 
Q 2550 3084 2163 3084 
Q 1697 3084 1428 2787 
Q 1159 2491 1159 1978 
L 1159 0 
L 581 0 
L 581 4863 
L 1159 4863 
L 1159 2956 
Q 1366 3272 1645 3428 
Q 1925 3584 2291 3584 
Q 2894 3584 3203 3211 
Q 3513 2838 3513 2113 
z
" transform="scale(0.015625)"/>
      <path id="DejaVuSans-3d" d="M 678 2906 
L 4684 2906 
L 4684 2381 
L 678 2381 
L 678 2906 
z
M 678 1631 
L 4684 1631 
L 4684 1100 
L 678 1100 
L 678 1631 
z
" transform="scale(0.015625)"/>
     </defs>
     <use xlink:href="#DejaVuSans-76"/>
     <use xlink:href="#DejaVuSans-32" x="59.179688"/>
     <use xlink:href="#DejaVuSans-2e" x="122.802734"/>
     <use xlink:href="#DejaVuSans-36" x="154.589844"/>
     <use xlink:href="#DejaVuSans-2e" x="218.212891"/>
     <use xlink:href="#DejaVuSans-31" x="250"/>
     <use xlink:href="#DejaVuSans-2e" x="313.623047"/>
     <use xlink:href="#DejaVuSans-31" x="345.410156"/>
     <use xlink:href="#DejaVuSans-35" x="409.033203"/>
     <use xlink:href="#DejaVuSans-32" x="472.65625"/>
     <use xlink:href="#DejaVuSans-2c" x="536.279297"/>
     <use xlink:href="#DejaVuSans-20" x="568.066406"/>
     <use xlink:href="#DejaVuSans-68" x="599.853516"/>
     <use xlink:href="#DejaVuSans-76" x="663.232422"/>
     <use xlink:href="#DejaVuSans-2d" x="719.787109"/>
     <use xlink:href="#DejaVuSans-68" x="755.871094"/>
     <use xlink:href="#DejaVuSans-61" x="819.25"/>
     <use xlink:href="#DejaVuSans-73" x="880.529297"/>
     <use xlink:href="#DejaVuSans-68" x="932.628906"/>
     <use xlink:href="#DejaVuSans-3d" x="996.007812"/>
     <use xlink:href="#DejaVuSans-66" x="1079.796875"/>
     <use xlink:href="#DejaVuSans-66" x="1115.001953"/>
     <use xlink:href="#DejaVuSans-30" x="1150.207031"/>
     <use xlink:href="#DejaVuSans-65" x="1213.830078"/>
     <use xlink:href="#DejaVuSans-37" x="1275.353516"/>
     <use xlink:href="#DejaVuSans-31" x="1338.976562"/>
     <use xlink:href="#DejaVuSans-65" x="1402.599609"/>
     <use xlink:href="#DejaVuSans-38" x="1464.123047"/>
     <use xlink:href="#DejaVuSans-63" x="1527.746094"/>
     <use xlink:href="#DejaVuSans-64" x="1582.726562"/>
     <use xlink:href="#DejaVuSans-39" x="1646.203125"/>
     <use xlink:href="#DejaVuSans-37" x="1709.826172"/>
     <use xlink:href="#DejaVuSans-38" x="1773.449219"/>
     <use xlink:href="#DejaVuSans-33" x="1837.072266"/>
     <use xlink:href="#DejaVuSans-37" x="1900.695312"/>
     <use xlink:href="#DejaVuSans-33" x="1964.318359"/>
    </g>
   </g>
   <g id="text_22">
    <!-- 9 Sphere/Schwefel -->
    <g transform="translate(116.100075 21.648) scale(0.2 -0.2)">
     <defs>
      <path id="DejaVuSans-53" d="M 3425 4513 
L 3425 3897 
Q 3066 4069 2747 4153 
Q 2428 4238 2131 4238 
Q 1616 4238 1336 4038 
Q 1056 3838 1056 3469 
Q 1056 3159 1242 3001 
Q 1428 2844 1947 2747 
L 2328 2669 
Q 3034 2534 3370 2195 
Q 3706 1856 3706 1288 
Q 3706 609 3251 259 
Q 2797 -91 1919 -91 
Q 1588 -91 1214 -16 
Q 841 59 441 206 
L 441 856 
Q 825 641 1194 531 
Q 1563 422 1919 422 
Q 2459 422 2753 634 
Q 3047 847 3047 1241 
Q 3047 1584 2836 1778 
Q 2625 1972 2144 2069 
L 1759 2144 
Q 1053 2284 737 2584 
Q 422 2884 422 3419 
Q 422 4038 858 4394 
Q 1294 4750 2059 4750 
Q 2388 4750 2728 4690 
Q 3069 4631 3425 4513 
z
" transform="scale(0.015625)"/>
      <path id="DejaVuSans-77" d="M 269 3500 
L 844 3500 
L 1563 769 
L 2278 3500 
L 2956 3500 
L 3675 769 
L 4391 3500 
L 4966 3500 
L 4050 0 
L 3372 0 
L 2619 2869 
L 1863 0 
L 1184 0 
L 269 3500 
z
" transform="scale(0.015625)"/>
     </defs>
     <use xlink:href="#DejaVuSans-39"/>
     <use xlink:href="#DejaVuSans-20" x="63.623047"/>
     <use xlink:href="#DejaVuSans-53" x="95.410156"/>
     <use xlink:href="#DejaVuSans-70" x="158.886719"/>
     <use xlink:href="#DejaVuSans-68" x="222.363281"/>
     <use xlink:href="#DejaVuSans-65" x="285.742188"/>
     <use xlink:href="#DejaVuSans-72" x="347.265625"/>
     <use xlink:href="#DejaVuSans-65" x="386.128906"/>
     <use xlink:href="#DejaVuSans-2f" x="447.652344"/>
     <use xlink:href="#DejaVuSans-53" x="481.34375"/>
     <use xlink:href="#DejaVuSans-63" x="544.820312"/>
     <use xlink:href="#DejaVuSans-68" x="599.800781"/>
     <use xlink:href="#DejaVuSans-77" x="663.179688"/>
     <use xlink:href="#DejaVuSans-65" x="744.966797"/>
     <use xlink:href="#DejaVuSans-66" x="806.490234"/>
     <use xlink:href="#DejaVuSans-65" x="841.695312"/>
     <use xlink:href="#DejaVuSans-6c" x="903.21875"/>
    </g>
   </g>
  </g>
 </g>
 <defs>
  <clipPath id="p104e4821df">
   <rect x="57.6" y="27.648" width="303.2064" height="271.296"/>
  </clipPath>
 </defs>
</svg>
