<?xml version="1.0" encoding="utf-8" standalone="no"?>
<!DOCTYPE svg PUBLIC "-//W3C//DTD SVG 1.1//EN"
  "http://www.w3.org/Graphics/SVG/1.1/DTD/svg11.dtd">
<svg xmlns:xlink="http://www.w3.org/1999/xlink" width="460.8pt" height="345.6pt" viewBox="0 0 460.8 345.6" xmlns="http://www.w3.org/2000/svg" version="1.1">
 <metadata>
  <rdf:RDF xmlns:dc="http://purl.org/dc/elements/1.1/" xmlns:cc="http://creativecommons.org/ns#" xmlns:rdf="http://www.w3.org/1999/02/22-rdf-syntax-ns#">
   <cc:Work>
    <dc:type rdf:resource="http://purl.org/dc/dcmitype/StillImage"/>
    <dc:date>2023-02-13T14:59:01.571927</dc:date>
    <dc:format>image/svg+xml</dc:format>
    <dc:creator>
     <cc:Agent>
      <dc:title>Matplotlib v3.6.3, https://matplotlib.org/</dc:title>
     </cc:Agent>
    </dc:creator>
   </cc:Work>
  </rdf:RDF>
 </metadata>
 <defs>
  <style type="text/css">*{stroke-linejoin: round; stroke-linecap: butt}</style>
 </defs>
 <g id="figure_1">
  <g id="patch_1">
   <path d="M 0 345.6 
L 460.8 345.6 
L 460.8 0 
L 0 0 
z
" style="fill: #ffffff"/>
  </g>
  <g id="axes_1">
   <g id="patch_2">
    <path d="M 34.16 291.28 
L 453.192 291.28 
L 453.192 3 
L 34.16 3 
z
" style="fill: #ffffff"/>
   </g>
   <g id="matplotlib.axis_1">
    <g id="xtick_1">
     <g id="line2d_1">
      <path d="M 84.40148 291.28 
L 84.40148 3 
" clip-path="url(#pf6b66f6baf)" style="fill: none; stroke: #b0b0b0; stroke-width: 0.8; stroke-linecap: square"/>
     </g>
     <g id="line2d_2">
      <defs>
       <path id="m0bd9b2aba0" d="M 0 0 
L 0 3.5 
" style="stroke: #000000; stroke-width: 0.8"/>
      </defs>
      <g>
       <use xlink:href="#m0bd9b2aba0" x="84.40148" y="291.28" style="stroke: #000000; stroke-width: 0.8"/>
      </g>
     </g>
     <g id="text_1">
      <!-- -1 -->
      <g transform="translate(74.431168 313.476875) scale(0.2 -0.2)">
       <defs>
        <path id="DejaVuSans-2d" d="M 313 2009 
L 1997 2009 
L 1997 1497 
L 313 1497 
L 313 2009 
z
" transform="scale(0.015625)"/>
        <path id="DejaVuSans-31" d="M 794 531 
L 1825 531 
L 1825 4091 
L 703 3866 
L 703 4441 
L 1819 4666 
L 2450 4666 
L 2450 531 
L 3481 531 
L 3481 0 
L 794 0 
L 794 531 
z
" transform="scale(0.015625)"/>
       </defs>
       <use xlink:href="#DejaVuSans-2d"/>
       <use xlink:href="#DejaVuSans-31" x="36.083984"/>
      </g>
     </g>
    </g>
    <g id="xtick_2">
     <g id="line2d_3">
      <path d="M 243.676 291.28 
L 243.676 3 
" clip-path="url(#pf6b66f6baf)" style="fill: none; stroke: #b0b0b0; stroke-width: 0.8; stroke-linecap: square"/>
     </g>
     <g id="line2d_4">
      <g>
       <use xlink:href="#m0bd9b2aba0" x="243.676" y="291.28" style="stroke: #000000; stroke-width: 0.8"/>
      </g>
     </g>
     <g id="text_2">
      <!-- 0 -->
      <g transform="translate(237.3135 313.476875) scale(0.2 -0.2)">
       <defs>
        <path id="DejaVuSans-30" d="M 2034 4250 
Q 1547 4250 1301 3770 
Q 1056 3291 1056 2328 
Q 1056 1369 1301 889 
Q 1547 409 2034 409 
Q 2525 409 2770 889 
Q 3016 1369 3016 2328 
Q 3016 3291 2770 3770 
Q 2525 4250 2034 4250 
z
M 2034 4750 
Q 2819 4750 3233 4129 
Q 3647 3509 3647 2328 
Q 3647 1150 3233 529 
Q 2819 -91 2034 -91 
Q 1250 -91 836 529 
Q 422 1150 422 2328 
Q 422 3509 836 4129 
Q 1250 4750 2034 4750 
z
" transform="scale(0.015625)"/>
       </defs>
       <use xlink:href="#DejaVuSans-30"/>
      </g>
     </g>
    </g>
    <g id="xtick_3">
     <g id="line2d_5">
      <path d="M 402.95052 291.28 
L 402.95052 3 
" clip-path="url(#pf6b66f6baf)" style="fill: none; stroke: #b0b0b0; stroke-width: 0.8; stroke-linecap: square"/>
     </g>
     <g id="line2d_6">
      <g>
       <use xlink:href="#m0bd9b2aba0" x="402.95052" y="291.28" style="stroke: #000000; stroke-width: 0.8"/>
      </g>
     </g>
     <g id="text_3">
      <!-- 1 -->
      <g transform="translate(396.58802 313.476875) scale(0.2 -0.2)">
       <use xlink:href="#DejaVuSans-31"/>
      </g>
     </g>
    </g>
    <g id="xtick_4">
     <g id="line2d_7">
      <defs>
       <path id="m823fc7ced2" d="M 0 0 
L 0 2 
" style="stroke: #000000; stroke-width: 0.6"/>
      </defs>
      <g>
       <use xlink:href="#m823fc7ced2" x="36.455073" y="291.28" style="stroke: #000000; stroke-width: 0.6"/>
      </g>
     </g>
    </g>
    <g id="xtick_5">
     <g id="line2d_8">
      <g>
       <use xlink:href="#m823fc7ced2" x="49.066627" y="291.28" style="stroke: #000000; stroke-width: 0.6"/>
      </g>
     </g>
    </g>
    <g id="xtick_6">
     <g id="line2d_9">
      <g>
       <use xlink:href="#m823fc7ced2" x="59.729545" y="291.28" style="stroke: #000000; stroke-width: 0.6"/>
      </g>
     </g>
    </g>
    <g id="xtick_7">
     <g id="line2d_10">
      <g>
       <use xlink:href="#m823fc7ced2" x="68.966185" y="291.28" style="stroke: #000000; stroke-width: 0.6"/>
      </g>
     </g>
    </g>
    <g id="xtick_8">
     <g id="line2d_11">
      <g>
       <use xlink:href="#m823fc7ced2" x="77.113478" y="291.28" style="stroke: #000000; stroke-width: 0.6"/>
      </g>
     </g>
    </g>
    <g id="xtick_9">
     <g id="line2d_12">
      <g>
       <use xlink:href="#m823fc7ced2" x="132.347888" y="291.28" style="stroke: #000000; stroke-width: 0.6"/>
      </g>
     </g>
    </g>
    <g id="xtick_10">
     <g id="line2d_13">
      <g>
       <use xlink:href="#m823fc7ced2" x="160.394739" y="291.28" style="stroke: #000000; stroke-width: 0.6"/>
      </g>
     </g>
    </g>
    <g id="xtick_11">
     <g id="line2d_14">
      <g>
       <use xlink:href="#m823fc7ced2" x="180.294296" y="291.28" style="stroke: #000000; stroke-width: 0.6"/>
      </g>
     </g>
    </g>
    <g id="xtick_12">
     <g id="line2d_15">
      <g>
       <use xlink:href="#m823fc7ced2" x="195.729592" y="291.28" style="stroke: #000000; stroke-width: 0.6"/>
      </g>
     </g>
    </g>
    <g id="xtick_13">
     <g id="line2d_16">
      <g>
       <use xlink:href="#m823fc7ced2" x="208.341147" y="291.28" style="stroke: #000000; stroke-width: 0.6"/>
      </g>
     </g>
    </g>
    <g id="xtick_14">
     <g id="line2d_17">
      <g>
       <use xlink:href="#m823fc7ced2" x="219.004065" y="291.28" style="stroke: #000000; stroke-width: 0.6"/>
      </g>
     </g>
    </g>
    <g id="xtick_15">
     <g id="line2d_18">
      <g>
       <use xlink:href="#m823fc7ced2" x="228.240704" y="291.28" style="stroke: #000000; stroke-width: 0.6"/>
      </g>
     </g>
    </g>
    <g id="xtick_16">
     <g id="line2d_19">
      <g>
       <use xlink:href="#m823fc7ced2" x="236.387998" y="291.28" style="stroke: #000000; stroke-width: 0.6"/>
      </g>
     </g>
    </g>
    <g id="xtick_17">
     <g id="line2d_20">
      <g>
       <use xlink:href="#m823fc7ced2" x="291.622408" y="291.28" style="stroke: #000000; stroke-width: 0.6"/>
      </g>
     </g>
    </g>
    <g id="xtick_18">
     <g id="line2d_21">
      <g>
       <use xlink:href="#m823fc7ced2" x="319.669259" y="291.28" style="stroke: #000000; stroke-width: 0.6"/>
      </g>
     </g>
    </g>
    <g id="xtick_19">
     <g id="line2d_22">
      <g>
       <use xlink:href="#m823fc7ced2" x="339.568816" y="291.28" style="stroke: #000000; stroke-width: 0.6"/>
      </g>
     </g>
    </g>
    <g id="xtick_20">
     <g id="line2d_23">
      <g>
       <use xlink:href="#m823fc7ced2" x="355.004112" y="291.28" style="stroke: #000000; stroke-width: 0.6"/>
      </g>
     </g>
    </g>
    <g id="xtick_21">
     <g id="line2d_24">
      <g>
       <use xlink:href="#m823fc7ced2" x="367.615667" y="291.28" style="stroke: #000000; stroke-width: 0.6"/>
      </g>
     </g>
    </g>
    <g id="xtick_22">
     <g id="line2d_25">
      <g>
       <use xlink:href="#m823fc7ced2" x="378.278584" y="291.28" style="stroke: #000000; stroke-width: 0.6"/>
      </g>
     </g>
    </g>
    <g id="xtick_23">
     <g id="line2d_26">
      <g>
       <use xlink:href="#m823fc7ced2" x="387.515224" y="291.28" style="stroke: #000000; stroke-width: 0.6"/>
      </g>
     </g>
    </g>
    <g id="xtick_24">
     <g id="line2d_27">
      <g>
       <use xlink:href="#m823fc7ced2" x="395.662517" y="291.28" style="stroke: #000000; stroke-width: 0.6"/>
      </g>
     </g>
    </g>
    <g id="xtick_25">
     <g id="line2d_28">
      <g>
       <use xlink:href="#m823fc7ced2" x="450.896927" y="291.28" style="stroke: #000000; stroke-width: 0.6"/>
      </g>
     </g>
    </g>
    <g id="text_4">
     <!-- log10 of FEvals ratio -->
     <g transform="translate(141.371312 336.833125) scale(0.2 -0.2)">
      <defs>
       <path id="DejaVuSans-6c" d="M 603 4863 
L 1178 4863 
L 1178 0 
L 603 0 
L 603 4863 
z
" transform="scale(0.015625)"/>
       <path id="DejaVuSans-6f" d="M 1959 3097 
Q 1497 3097 1228 2736 
Q 959 2375 959 1747 
Q 959 1119 1226 758 
Q 1494 397 1959 397 
Q 2419 397 2687 759 
Q 2956 1122 2956 1747 
Q 2956 2369 2687 2733 
Q 2419 3097 1959 3097 
z
M 1959 3584 
Q 2709 3584 3137 3096 
Q 3566 2609 3566 1747 
Q 3566 888 3137 398 
Q 2709 -91 1959 -91 
Q 1206 -91 779 398 
Q 353 888 353 1747 
Q 353 2609 779 3096 
Q 1206 3584 1959 3584 
z
" transform="scale(0.015625)"/>
       <path id="DejaVuSans-67" d="M 2906 1791 
Q 2906 2416 2648 2759 
Q 2391 3103 1925 3103 
Q 1463 3103 1205 2759 
Q 947 2416 947 1791 
Q 947 1169 1205 825 
Q 1463 481 1925 481 
Q 2391 481 2648 825 
Q 2906 1169 2906 1791 
z
M 3481 434 
Q 3481 -459 3084 -895 
Q 2688 -1331 1869 -1331 
Q 1566 -1331 1297 -1286 
Q 1028 -1241 775 -1147 
L 775 -588 
Q 1028 -725 1275 -790 
Q 1522 -856 1778 -856 
Q 2344 -856 2625 -561 
Q 2906 -266 2906 331 
L 2906 616 
Q 2728 306 2450 153 
Q 2172 0 1784 0 
Q 1141 0 747 490 
Q 353 981 353 1791 
Q 353 2603 747 3093 
Q 1141 3584 1784 3584 
Q 2172 3584 2450 3431 
Q 2728 3278 2906 2969 
L 2906 3500 
L 3481 3500 
L 3481 434 
z
" transform="scale(0.015625)"/>
       <path id="DejaVuSans-20" transform="scale(0.015625)"/>
       <path id="DejaVuSans-66" d="M 2375 4863 
L 2375 4384 
L 1825 4384 
Q 1516 4384 1395 4259 
Q 1275 4134 1275 3809 
L 1275 3500 
L 2222 3500 
L 2222 3053 
L 1275 3053 
L 1275 0 
L 697 0 
L 697 3053 
L 147 3053 
L 147 3500 
L 697 3500 
L 697 3744 
Q 697 4328 969 4595 
Q 1241 4863 1831 4863 
L 2375 4863 
z
" transform="scale(0.015625)"/>
       <path id="DejaVuSans-46" d="M 628 4666 
L 3309 4666 
L 3309 4134 
L 1259 4134 
L 1259 2759 
L 3109 2759 
L 3109 2228 
L 1259 2228 
L 1259 0 
L 628 0 
L 628 4666 
z
" transform="scale(0.015625)"/>
       <path id="DejaVuSans-45" d="M 628 4666 
L 3578 4666 
L 3578 4134 
L 1259 4134 
L 1259 2753 
L 3481 2753 
L 3481 2222 
L 1259 2222 
L 1259 531 
L 3634 531 
L 3634 0 
L 628 0 
L 628 4666 
z
" transform="scale(0.015625)"/>
       <path id="DejaVuSans-76" d="M 191 3500 
L 800 3500 
L 1894 563 
L 2988 3500 
L 3597 3500 
L 2284 0 
L 1503 0 
L 191 3500 
z
" transform="scale(0.015625)"/>
       <path id="DejaVuSans-61" d="M 2194 1759 
Q 1497 1759 1228 1600 
Q 959 1441 959 1056 
Q 959 750 1161 570 
Q 1363 391 1709 391 
Q 2188 391 2477 730 
Q 2766 1069 2766 1631 
L 2766 1759 
L 2194 1759 
z
M 3341 1997 
L 3341 0 
L 2766 0 
L 2766 531 
Q 2569 213 2275 61 
Q 1981 -91 1556 -91 
Q 1019 -91 701 211 
Q 384 513 384 1019 
Q 384 1609 779 1909 
Q 1175 2209 1959 2209 
L 2766 2209 
L 2766 2266 
Q 2766 2663 2505 2880 
Q 2244 3097 1772 3097 
Q 1472 3097 1187 3025 
Q 903 2953 641 2809 
L 641 3341 
Q 956 3463 1253 3523 
Q 1550 3584 1831 3584 
Q 2591 3584 2966 3190 
Q 3341 2797 3341 1997 
z
" transform="scale(0.015625)"/>
       <path id="DejaVuSans-73" d="M 2834 3397 
L 2834 2853 
Q 2591 2978 2328 3040 
Q 2066 3103 1784 3103 
Q 1356 3103 1142 2972 
Q 928 2841 928 2578 
Q 928 2378 1081 2264 
Q 1234 2150 1697 2047 
L 1894 2003 
Q 2506 1872 2764 1633 
Q 3022 1394 3022 966 
Q 3022 478 2636 193 
Q 2250 -91 1575 -91 
Q 1294 -91 989 -36 
Q 684 19 347 128 
L 347 722 
Q 666 556 975 473 
Q 1284 391 1588 391 
Q 1994 391 2212 530 
Q 2431 669 2431 922 
Q 2431 1156 2273 1281 
Q 2116 1406 1581 1522 
L 1381 1569 
Q 847 1681 609 1914 
Q 372 2147 372 2553 
Q 372 3047 722 3315 
Q 1072 3584 1716 3584 
Q 2034 3584 2315 3537 
Q 2597 3491 2834 3397 
z
" transform="scale(0.015625)"/>
       <path id="DejaVuSans-72" d="M 2631 2963 
Q 2534 3019 2420 3045 
Q 2306 3072 2169 3072 
Q 1681 3072 1420 2755 
Q 1159 2438 1159 1844 
L 1159 0 
L 581 0 
L 581 3500 
L 1159 3500 
L 1159 2956 
Q 1341 3275 1631 3429 
Q 1922 3584 2338 3584 
Q 2397 3584 2469 3576 
Q 2541 3569 2628 3553 
L 2631 2963 
z
" transform="scale(0.015625)"/>
       <path id="DejaVuSans-74" d="M 1172 4494 
L 1172 3500 
L 2356 3500 
L 2356 3053 
L 1172 3053 
L 1172 1153 
Q 1172 725 1289 603 
Q 1406 481 1766 481 
L 2356 481 
L 2356 0 
L 1766 0 
Q 1100 0 847 248 
Q 594 497 594 1153 
L 594 3053 
L 172 3053 
L 172 3500 
L 594 3500 
L 594 4494 
L 1172 4494 
z
" transform="scale(0.015625)"/>
       <path id="DejaVuSans-69" d="M 603 3500 
L 1178 3500 
L 1178 0 
L 603 0 
L 603 3500 
z
M 603 4863 
L 1178 4863 
L 1178 4134 
L 603 4134 
L 603 4863 
z
" transform="scale(0.015625)"/>
      </defs>
      <use xlink:href="#DejaVuSans-6c"/>
      <use xlink:href="#DejaVuSans-6f" x="27.783203"/>
      <use xlink:href="#DejaVuSans-67" x="88.964844"/>
      <use xlink:href="#DejaVuSans-31" x="152.441406"/>
      <use xlink:href="#DejaVuSans-30" x="216.064453"/>
      <use xlink:href="#DejaVuSans-20" x="279.6875"/>
      <use xlink:href="#DejaVuSans-6f" x="311.474609"/>
      <use xlink:href="#DejaVuSans-66" x="372.65625"/>
      <use xlink:href="#DejaVuSans-20" x="407.861328"/>
      <use xlink:href="#DejaVuSans-46" x="439.648438"/>
      <use xlink:href="#DejaVuSans-45" x="497.167969"/>
      <use xlink:href="#DejaVuSans-76" x="560.351562"/>
      <use xlink:href="#DejaVuSans-61" x="619.53125"/>
      <use xlink:href="#DejaVuSans-6c" x="680.810547"/>
      <use xlink:href="#DejaVuSans-73" x="708.59375"/>
      <use xlink:href="#DejaVuSans-20" x="760.693359"/>
      <use xlink:href="#DejaVuSans-72" x="792.480469"/>
      <use xlink:href="#DejaVuSans-61" x="833.59375"/>
      <use xlink:href="#DejaVuSans-74" x="894.873047"/>
      <use xlink:href="#DejaVuSans-69" x="934.082031"/>
      <use xlink:href="#DejaVuSans-6f" x="961.865234"/>
     </g>
    </g>
   </g>
   <g id="matplotlib.axis_2">
    <g id="ytick_1">
     <g id="line2d_29">
      <path d="M 34.16 288.453725 
L 453.192 288.453725 
" clip-path="url(#pf6b66f6baf)" style="fill: none; stroke: #b0b0b0; stroke-width: 0.8; stroke-linecap: square"/>
     </g>
     <g id="line2d_30">
      <defs>
       <path id="m18d92f643a" d="M 0 0 
L -3.5 0 
" style="stroke: #000000; stroke-width: 0.8"/>
      </defs>
      <g>
       <use xlink:href="#m18d92f643a" x="34.16" y="288.453725" style="stroke: #000000; stroke-width: 0.8"/>
      </g>
     </g>
    </g>
    <g id="ytick_2">
     <g id="line2d_31">
      <path d="M 34.16 217.796863 
L 453.192 217.796863 
" clip-path="url(#pf6b66f6baf)" style="fill: none; stroke: #b0b0b0; stroke-width: 0.8; stroke-linecap: square"/>
     </g>
     <g id="line2d_32">
      <g>
       <use xlink:href="#m18d92f643a" x="34.16" y="217.796863" style="stroke: #000000; stroke-width: 0.8"/>
      </g>
     </g>
    </g>
    <g id="ytick_3">
     <g id="line2d_33">
      <path d="M 34.16 147.14 
L 453.192 147.14 
" clip-path="url(#pf6b66f6baf)" style="fill: none; stroke: #b0b0b0; stroke-width: 0.8; stroke-linecap: square"/>
     </g>
     <g id="line2d_34">
      <g>
       <use xlink:href="#m18d92f643a" x="34.16" y="147.14" style="stroke: #000000; stroke-width: 0.8"/>
      </g>
     </g>
    </g>
    <g id="ytick_4">
     <g id="line2d_35">
      <path d="M 34.16 76.483137 
L 453.192 76.483137 
" clip-path="url(#pf6b66f6baf)" style="fill: none; stroke: #b0b0b0; stroke-width: 0.8; stroke-linecap: square"/>
     </g>
     <g id="line2d_36">
      <g>
       <use xlink:href="#m18d92f643a" x="34.16" y="76.483137" style="stroke: #000000; stroke-width: 0.8"/>
      </g>
     </g>
    </g>
    <g id="ytick_5">
     <g id="line2d_37">
      <path d="M 34.16 5.826275 
L 453.192 5.826275 
" clip-path="url(#pf6b66f6baf)" style="fill: none; stroke: #b0b0b0; stroke-width: 0.8; stroke-linecap: square"/>
     </g>
     <g id="line2d_38">
      <g>
       <use xlink:href="#m18d92f643a" x="34.16" y="5.826275" style="stroke: #000000; stroke-width: 0.8"/>
      </g>
     </g>
    </g>
    <g id="text_5">
     <!-- proportion of trials -->
     <g transform="translate(19.000625 240.14625) rotate(-90) scale(0.2 -0.2)">
      <defs>
       <path id="DejaVuSans-70" d="M 1159 525 
L 1159 -1331 
L 581 -1331 
L 581 3500 
L 1159 3500 
L 1159 2969 
Q 1341 3281 1617 3432 
Q 1894 3584 2278 3584 
Q 2916 3584 3314 3078 
Q 3713 2572 3713 1747 
Q 3713 922 3314 415 
Q 2916 -91 2278 -91 
Q 1894 -91 1617 61 
Q 1341 213 1159 525 
z
M 3116 1747 
Q 3116 2381 2855 2742 
Q 2594 3103 2138 3103 
Q 1681 3103 1420 2742 
Q 1159 2381 1159 1747 
Q 1159 1113 1420 752 
Q 1681 391 2138 391 
Q 2594 391 2855 752 
Q 3116 1113 3116 1747 
z
" transform="scale(0.015625)"/>
       <path id="DejaVuSans-6e" d="M 3513 2113 
L 3513 0 
L 2938 0 
L 2938 2094 
Q 2938 2591 2744 2837 
Q 2550 3084 2163 3084 
Q 1697 3084 1428 2787 
Q 1159 2491 1159 1978 
L 1159 0 
L 581 0 
L 581 3500 
L 1159 3500 
L 1159 2956 
Q 1366 3272 1645 3428 
Q 1925 3584 2291 3584 
Q 2894 3584 3203 3211 
Q 3513 2838 3513 2113 
z
" transform="scale(0.015625)"/>
      </defs>
      <use xlink:href="#DejaVuSans-70"/>
      <use xlink:href="#DejaVuSans-72" x="63.476562"/>
      <use xlink:href="#DejaVuSans-6f" x="102.339844"/>
      <use xlink:href="#DejaVuSans-70" x="163.521484"/>
      <use xlink:href="#DejaVuSans-6f" x="226.998047"/>
      <use xlink:href="#DejaVuSans-72" x="288.179688"/>
      <use xlink:href="#DejaVuSans-74" x="329.292969"/>
      <use xlink:href="#DejaVuSans-69" x="368.501953"/>
      <use xlink:href="#DejaVuSans-6f" x="396.285156"/>
      <use xlink:href="#DejaVuSans-6e" x="457.466797"/>
      <use xlink:href="#DejaVuSans-20" x="520.845703"/>
      <use xlink:href="#DejaVuSans-6f" x="552.632812"/>
      <use xlink:href="#DejaVuSans-66" x="613.814453"/>
      <use xlink:href="#DejaVuSans-20" x="649.019531"/>
      <use xlink:href="#DejaVuSans-74" x="680.806641"/>
      <use xlink:href="#DejaVuSans-72" x="720.015625"/>
      <use xlink:href="#DejaVuSans-69" x="761.128906"/>
      <use xlink:href="#DejaVuSans-61" x="788.912109"/>
      <use xlink:href="#DejaVuSans-6c" x="850.191406"/>
      <use xlink:href="#DejaVuSans-73" x="877.974609"/>
     </g>
    </g>
   </g>
   <g id="line2d_39">
    <path d="M 34.16 288.453725 
L 122.734447 288.453725 
L 122.734447 286.434958 
L 131.113375 286.434958 
L 131.113375 284.41619 
L 137.149166 284.41619 
L 137.149166 282.397423 
L 145.528095 282.397423 
L 145.528095 280.378655 
L 145.818853 280.378655 
L 145.818853 278.359888 
L 147.555201 278.359888 
L 147.555201 276.34112 
L 150.919558 276.34112 
L 150.919558 274.322353 
L 153.606603 274.322353 
L 153.606603 272.303585 
L 154.197782 272.303585 
L 154.197782 270.284818 
L 155.514913 270.284818 
L 155.514913 268.26605 
L 156.031759 268.26605 
L 156.031759 266.247283 
L 159.298487 266.247283 
L 159.298487 264.228515 
L 161.969921 264.228515 
L 161.969921 262.209748 
L 163.448274 262.209748 
L 163.512694 258.172213 
L 163.893841 258.172213 
L 163.893841 256.153445 
L 165.123119 256.153445 
L 165.123119 254.134678 
L 165.87343 254.134678 
L 165.87343 252.11591 
L 166.707549 252.11591 
L 166.707549 250.097143 
L 168.071349 250.097143 
L 168.071349 248.078375 
L 169.98474 248.078375 
L 169.98474 246.059608 
L 170.27735 246.059608 
L 170.27735 244.04084 
L 170.639608 244.04084 
L 170.639608 242.022073 
L 171.081209 242.022073 
L 171.081209 237.984538 
L 171.891623 237.984538 
L 171.891623 235.96577 
L 172.170996 235.96577 
L 172.170996 233.947003 
L 172.652707 233.947003 
L 172.652707 231.928235 
L 174.964791 231.928235 
L 174.964791 229.909468 
L 175.086477 229.909468 
L 175.086477 227.8907 
L 175.740313 227.8907 
L 175.740313 225.871933 
L 176.131678 225.871933 
L 176.131678 223.853165 
L 177.861069 223.853165 
L 177.861069 221.834398 
L 178.745279 221.834398 
L 178.745279 219.81563 
L 179.826411 219.81563 
L 179.826411 217.796863 
L 180.325207 217.796863 
L 180.335667 213.759328 
L 180.838355 213.759328 
L 180.838355 211.74056 
L 181.710545 211.74056 
L 181.710545 209.721793 
L 182.486069 209.721793 
L 182.486069 207.703025 
L 184.69207 207.703025 
L 184.69207 205.684258 
L 185.818329 205.684258 
L 185.818329 203.66549 
L 186.32309 203.66549 
L 186.32309 201.646723 
L 186.500864 201.646723 
L 186.585716 197.609188 
L 186.75554 197.609188 
L 186.793746 193.571653 
L 188.333449 193.571653 
L 188.333449 191.552885 
L 188.586951 191.552885 
L 188.6952 187.51535 
L 188.70674 187.51535 
L 188.70674 185.496583 
L 188.92602 185.496583 
L 188.92602 183.477815 
L 190.089474 183.477815 
L 190.089474 181.459048 
L 191.120356 181.459048 
L 191.155756 177.421513 
L 191.528303 177.421513 
L 191.528303 175.402745 
L 191.853741 175.402745 
L 191.853741 173.383978 
L 193.361757 173.383978 
L 193.361757 171.36521 
L 195.172675 171.36521 
L 195.255403 167.327675 
L 196.164762 167.327675 
L 196.256461 163.29014 
L 196.508426 163.29014 
L 196.597212 159.252605 
L 198.01738 159.252605 
L 198.01738 157.233838 
L 198.462462 157.233838 
L 198.462462 155.21507 
L 199.534607 155.21507 
L 199.534607 153.196303 
L 200.211716 153.196303 
L 200.211716 151.177535 
L 200.356108 151.177535 
L 200.436536 147.14 
L 200.851815 147.14 
L 200.851815 145.121232 
L 201.695413 145.121232 
L 201.695413 143.102465 
L 201.959763 143.102465 
L 201.959763 141.083697 
L 202.527059 141.083697 
L 202.527059 139.06493 
L 202.879001 139.06493 
L 202.879001 137.046162 
L 203.057816 137.046162 
L 203.057816 135.027395 
L 203.246912 135.027395 
L 203.246912 130.98986 
L 204.81841 130.98986 
L 204.81841 128.971092 
L 204.951462 128.971092 
L 204.951462 126.952325 
L 205.073337 126.952325 
L 205.073337 124.933557 
L 206.5313 124.933557 
L 206.5313 122.91479 
L 208.297381 122.91479 
L 208.297381 120.896022 
L 208.849597 120.896022 
L 208.849597 118.877255 
L 210.026772 118.877255 
L 210.026772 116.858487 
L 210.278208 116.858487 
L 210.278208 114.83972 
L 211.051123 114.83972 
L 211.055598 110.802185 
L 211.6145 110.802185 
L 211.63954 106.76465 
L 212.044451 106.76465 
L 212.044451 104.745882 
L 212.368731 104.745882 
L 212.368731 102.727115 
L 212.49091 102.727115 
L 212.49091 100.708347 
L 212.949244 100.708347 
L 213.004058 96.670812 
L 213.833876 96.670812 
L 213.833876 94.652045 
L 214.250452 94.652045 
L 214.250452 92.633277 
L 214.829238 92.633277 
L 214.829238 88.595742 
L 215.912744 88.595742 
L 215.912744 86.576975 
L 216.144098 86.576975 
L 216.144098 84.558207 
L 216.400736 84.558207 
L 216.400736 82.53944 
L 217.984032 82.53944 
L 217.984032 80.520672 
L 219.217352 80.520672 
L 219.217352 78.501905 
L 219.649801 78.501905 
L 219.649801 76.483137 
L 219.879707 76.483137 
L 219.879707 74.46437 
L 220.872443 74.46437 
L 220.872443 72.445602 
L 221.411688 72.445602 
L 221.411688 70.426835 
L 221.609098 70.426835 
L 221.609098 68.408067 
L 221.844137 68.408067 
L 221.844137 66.3893 
L 222.67899 66.3893 
L 222.67899 64.370532 
L 224.073236 64.370532 
L 224.073236 62.351765 
L 224.586384 62.351765 
L 224.673284 58.31423 
L 224.748002 58.31423 
L 224.748002 56.295462 
L 226.942338 56.295462 
L 227.047448 52.257927 
L 228.67413 52.257927 
L 228.67413 50.23916 
L 229.253448 50.23916 
L 229.253448 48.220392 
L 229.566358 48.220392 
L 229.566358 46.201625 
L 231.057919 46.201625 
L 231.147095 42.16409 
L 232.130649 42.16409 
L 232.130649 40.145322 
L 232.251095 40.145322 
L 232.251095 38.126555 
L 232.454769 38.126555 
L 232.454769 36.107787 
L 232.683545 36.107787 
L 232.683545 34.08902 
L 233.330798 34.08902 
L 233.330798 32.070252 
L 234.336649 32.070252 
L 234.336649 30.051485 
L 235.421321 30.051485 
L 235.525134 26.01395 
L 236.230296 26.01395 
L 236.230296 23.995182 
L 237.615657 23.995182 
L 237.615657 21.976415 
L 237.781745 21.976415 
L 237.781745 19.957647 
L 240.256456 19.957647 
L 240.256456 17.93888 
L 246.364541 17.93888 
L 246.364541 15.920112 
L 247.499745 15.920112 
L 247.499745 13.901345 
L 248.455064 13.901345 
L 248.455064 11.882577 
L 268.015893 11.882577 
L 268.015893 9.86381 
L 270.221893 9.86381 
L 270.221893 7.845042 
L 272.11554 7.845042 
L 272.11554 5.826275 
L 453.192 5.826275 
L 453.192 5.826275 
" clip-path="url(#pf6b66f6baf)" style="fill: none; stroke: #000000; stroke-width: 3; stroke-linecap: square"/>
   </g>
   <g id="line2d_40">
    <path clip-path="url(#pf6b66f6baf)" style="fill: none; stroke: #000000; stroke-width: 3; stroke-linecap: square"/>
   </g>
   <g id="line2d_41">
    <path d="M 34.16 288.453725 
L 49.042954 288.453725 
L 49.042954 286.434958 
L 60.187406 286.434958 
L 60.187406 284.41619 
L 67.877322 284.41619 
L 67.877322 282.397423 
L 68.480812 282.397423 
L 68.480812 280.378655 
L 79.625264 280.378655 
L 79.625264 278.359888 
L 87.31518 278.359888 
L 87.31518 276.34112 
L 97.03163 276.34112 
L 97.03163 274.322353 
L 107.519268 274.322353 
L 107.519268 272.303585 
L 116.469488 272.303585 
L 116.469488 270.284818 
L 126.957126 270.284818 
L 126.957126 268.26605 
L 137.157451 268.26605 
L 137.157451 266.247283 
L 140.324778 266.247283 
L 140.39167 262.209748 
L 144.90256 262.209748 
L 144.90256 260.19098 
L 150.192404 260.19098 
L 150.192404 258.172213 
L 151.536122 258.172213 
L 151.536122 256.153445 
L 156.595309 256.153445 
L 156.595309 254.134678 
L 158.221813 254.134678 
L 158.221813 252.11591 
L 159.226038 252.11591 
L 159.226038 250.097143 
L 159.762636 250.097143 
L 159.762636 248.078375 
L 161.336856 248.078375 
L 161.336856 246.059608 
L 163.970457 246.059608 
L 163.970457 244.04084 
L 165.967513 244.04084 
L 165.967513 242.022073 
L 169.026772 242.022073 
L 169.026772 240.003305 
L 169.418238 240.003305 
L 169.418238 237.984538 
L 171.328787 237.984538 
L 171.328787 235.96577 
L 172.348091 235.96577 
L 172.348091 231.928235 
L 174.345079 231.928235 
L 174.345079 229.909468 
L 179.286766 229.909468 
L 179.286766 227.8907 
L 180.632322 227.8907 
L 180.632322 225.871933 
L 181.954574 225.871933 
L 181.954574 223.853165 
L 182.473239 223.853165 
L 182.473239 221.834398 
L 185.03541 221.834398 
L 185.03541 219.81563 
L 185.667343 219.81563 
L 185.667343 215.778095 
L 188.380347 215.778095 
L 188.380347 213.759328 
L 188.856096 213.759328 
L 188.856096 211.74056 
L 190.163155 211.74056 
L 190.163155 209.721793 
L 191.415988 209.721793 
L 191.415988 205.684258 
L 192.133955 205.684258 
L 192.133955 203.66549 
L 193.099025 203.66549 
L 193.099025 201.646723 
L 195.410032 201.646723 
L 195.410032 199.627955 
L 198.181081 199.627955 
L 198.181081 197.609188 
L 198.867984 197.609188 
L 198.867984 195.59042 
L 200.788941 195.59042 
L 200.788941 193.571653 
L 201.697275 193.571653 
L 201.79061 187.51535 
L 202.759964 187.51535 
L 202.759964 185.496583 
L 203.2262 185.496583 
L 203.2262 183.477815 
L 204.782731 183.477815 
L 204.782731 181.459048 
L 204.968426 181.459048 
L 204.968426 179.44028 
L 207.023399 179.44028 
L 207.023399 177.421513 
L 207.84192 177.421513 
L 207.84192 175.402745 
L 208.077852 175.402745 
L 208.077852 171.36521 
L 208.668718 171.36521 
L 208.668718 169.346443 
L 209.094644 169.346443 
L 209.094644 167.327675 
L 212.747778 167.327675 
L 212.747778 165.308908 
L 213.198908 165.308908 
L 213.198908 163.29014 
L 213.790415 163.29014 
L 213.790415 161.271373 
L 216.149489 161.271373 
L 216.149489 159.252605 
L 216.371299 159.252605 
L 216.371299 157.233838 
L 218.702442 157.233838 
L 218.702442 155.21507 
L 219.317463 155.21507 
L 219.317463 153.196303 
L 219.579486 153.196303 
L 219.579486 149.158768 
L 219.778715 149.158768 
L 219.778715 147.14 
L 220.342652 147.14 
L 220.342652 145.121232 
L 221.520941 145.121232 
L 221.520941 143.102465 
L 222.197823 143.102465 
L 222.197823 141.083697 
L 223.212345 141.083697 
L 223.212345 139.06493 
L 224.394434 139.06493 
L 224.394434 137.046162 
L 225.676937 137.046162 
L 225.676937 135.027395 
L 225.847684 135.027395 
L 225.847684 133.008627 
L 226.091296 133.008627 
L 226.091296 130.98986 
L 227.419163 130.98986 
L 227.419163 128.971092 
L 228.506167 128.971092 
L 228.506167 126.952325 
L 229.300292 126.952325 
L 229.300292 124.933557 
L 229.805101 124.933557 
L 229.805101 122.91479 
L 229.94325 122.91479 
L 229.94325 120.896022 
L 230.159597 120.896022 
L 230.159597 118.877255 
L 230.292657 118.877255 
L 230.292657 116.858487 
L 231.673494 116.858487 
L 231.673494 114.83972 
L 232.1331 114.83972 
L 232.228262 108.783417 
L 232.702004 108.783417 
L 232.702004 106.76465 
L 232.923814 106.76465 
L 232.923814 104.745882 
L 233.122723 104.745882 
L 233.228273 100.708347 
L 233.67268 100.708347 
L 233.67268 98.68958 
L 235.198515 98.68958 
L 235.254957 94.652045 
L 236.465918 94.652045 
L 236.540175 88.595742 
L 238.306901 88.595742 
L 238.306901 86.576975 
L 238.600226 86.576975 
L 238.600226 84.558207 
L 238.822036 84.558207 
L 238.822036 82.53944 
L 239.76486 82.53944 
L 239.76486 80.520672 
L 240.430888 80.520672 
L 240.430888 78.501905 
L 241.153179 78.501905 
L 241.153179 76.483137 
L 241.474228 76.483137 
L 241.474228 74.46437 
L 242.753161 74.46437 
L 242.753161 72.445602 
L 243.846369 72.445602 
L 243.846369 70.426835 
L 245.663082 70.426835 
L 245.663082 68.408067 
L 249.675237 68.408067 
L 249.675237 66.3893 
L 250.225195 66.3893 
L 250.225195 64.370532 
L 253.198053 64.370532 
L 253.198053 62.351765 
L 254.254794 62.351765 
L 254.254794 60.332997 
L 255.573459 60.332997 
L 255.573459 58.31423 
L 256.123417 58.31423 
L 256.123417 56.295462 
L 259.443284 56.295462 
L 259.443284 54.276695 
L 259.57863 54.276695 
L 259.57863 50.23916 
L 260.766954 50.23916 
L 260.766954 48.220392 
L 262.610611 48.220392 
L 262.610611 46.201625 
L 264.911322 46.201625 
L 264.911322 44.182857 
L 266.90357 44.182857 
L 266.90357 42.16409 
L 270.069071 42.16409 
L 270.069071 40.145322 
L 270.567688 40.145322 
L 270.567688 38.126555 
L 271.215483 38.126555 
L 271.291899 32.070252 
L 273.236398 32.070252 
L 273.236398 30.051485 
L 291.704071 30.051485 
L 291.704071 28.032717 
L 294.108681 28.032717 
L 294.108681 26.01395 
L 294.253939 26.01395 
L 294.253939 23.995182 
L 302.329857 23.995182 
L 302.329857 21.976415 
L 303.909415 21.976415 
L 303.909415 19.957647 
L 305.139131 19.957647 
L 305.139131 17.93888 
L 305.967208 17.93888 
L 305.967208 15.920112 
L 314.939865 15.920112 
L 314.939865 13.901345 
L 325.045798 13.901345 
L 325.045798 11.882577 
L 335.671584 11.882577 
L 335.671584 9.86381 
L 336.076248 9.86381 
L 336.076248 7.845042 
L 346.702034 7.845042 
L 346.702034 5.826275 
L 453.192 5.826275 
L 453.192 5.826275 
" clip-path="url(#pf6b66f6baf)" style="fill: none; stroke: #00bfbf; stroke-width: 3; stroke-linecap: square"/>
   </g>
   <g id="line2d_42">
    <path clip-path="url(#pf6b66f6baf)" style="fill: none; stroke: #00bfbf; stroke-width: 3; stroke-linecap: square"/>
   </g>
   <g id="line2d_43">
    <path d="M 34.16 211.373512 
L 165.838714 211.373512 
L 165.838714 208.804171 
L 165.967748 208.804171 
L 165.967748 206.234831 
L 181.63693 206.234831 
L 181.63693 203.66549 
L 187.314674 203.66549 
L 187.314674 201.09615 
L 190.328741 201.09615 
L 190.328741 198.526809 
L 193.405237 198.526809 
L 193.405237 195.957469 
L 193.534271 195.957469 
L 193.534271 193.388128 
L 193.734316 193.388128 
L 193.734316 190.818788 
L 195.181812 190.818788 
L 195.181812 188.249447 
L 196.748382 188.249447 
L 196.748382 185.680107 
L 198.384291 185.680107 
L 198.384291 183.110766 
L 201.894902 183.110766 
L 201.894902 180.541426 
L 202.665435 180.541426 
L 202.665435 177.972086 
L 204.803933 177.972086 
L 204.803933 175.402745 
L 205.29948 175.402745 
L 205.29948 172.833405 
L 205.965496 172.833405 
L 205.965496 170.264064 
L 206.09453 170.264064 
L 206.09453 167.694724 
L 216.383113 167.694724 
L 216.383113 165.125383 
L 222.237273 165.125383 
L 222.237273 162.556043 
L 222.366307 162.556043 
L 222.366307 159.986702 
L 222.748335 159.986702 
L 222.748335 157.417362 
L 224.406563 157.417362 
L 224.406563 154.848021 
L 224.535597 154.848021 
L 224.535597 152.278681 
L 224.707254 152.278681 
L 224.707254 149.70934 
L 224.836288 149.70934 
L 224.836288 147.14 
L 230.231958 147.14 
L 230.231958 144.57066 
L 231.480672 144.57066 
L 231.480672 142.001319 
L 231.609706 142.001319 
L 231.609706 139.431979 
L 235.308595 139.431979 
L 235.308595 136.862638 
L 236.641084 136.862638 
L 236.641084 134.293298 
L 240.045662 134.293298 
L 240.045662 131.723957 
L 242.076529 131.723957 
L 242.076529 129.154617 
L 242.792217 129.154617 
L 242.792217 126.585276 
L 248.496171 126.585276 
L 248.496171 124.015936 
L 251.580371 124.015936 
L 251.580371 121.446595 
L 253.749661 121.446595 
L 253.749661 118.877255 
L 254.050352 118.877255 
L 254.050352 116.307914 
L 259.063994 116.307914 
L 259.063994 113.738574 
L 260.82377 113.738574 
L 260.82377 111.169234 
L 261.233284 111.169234 
L 261.233284 108.599893 
L 261.533975 108.599893 
L 261.533975 106.030553 
L 268.307393 106.030553 
L 268.307393 103.461212 
L 288.989927 103.461212 
L 288.989927 100.891872 
L 292.025327 100.891872 
L 292.025327 98.322531 
L 292.15436 98.322531 
L 292.15436 95.753191 
L 295.409569 95.753191 
L 295.409569 93.18385 
L 321.368425 93.18385 
L 321.368425 90.61451 
L 328.852048 90.61451 
L 328.852048 88.045169 
L 453.192 88.045169 
" clip-path="url(#pf6b66f6baf)" style="fill: none; stroke: #bf00bf; stroke-width: 3; stroke-linecap: square"/>
   </g>
   <g id="line2d_44">
    <path clip-path="url(#pf6b66f6baf)" style="fill: none; stroke: #bf00bf; stroke-width: 3; stroke-linecap: square"/>
   </g>
   <g id="line2d_45">
    <path d="M 34.16 207.703025 
L 213.861099 207.703025 
L 213.861099 197.609188 
L 233.331267 197.609188 
L 233.331267 187.51535 
L 288.897014 187.51535 
L 288.897014 177.421513 
L 308.367182 177.421513 
L 308.367182 167.327675 
L 453.192 167.327675 
" clip-path="url(#pf6b66f6baf)" style="fill: none; stroke: #ff0000; stroke-width: 3; stroke-linecap: square"/>
   </g>
   <g id="line2d_46">
    <path clip-path="url(#pf6b66f6baf)" style="fill: none; stroke: #ff0000; stroke-width: 3; stroke-linecap: square"/>
   </g>
   <g id="line2d_47"/>
   <g id="line2d_48">
    <path d="M 243.676 291.28 
L 243.676 3 
" clip-path="url(#pf6b66f6baf)" style="fill: none; stroke: #000000; stroke-width: 1.5; stroke-linecap: square"/>
   </g>
   <g id="line2d_49">
    <path d="M 34.16 147.14 
L 453.192 147.14 
" clip-path="url(#pf6b66f6baf)" style="fill: none; stroke-dasharray: 2,3.3; stroke-dashoffset: 0; stroke: #000000; stroke-width: 2"/>
   </g>
   <g id="patch_3">
    <path d="M 34.16 291.28 
L 34.16 3 
" style="fill: none; stroke: #000000; stroke-width: 0.8; stroke-linejoin: miter; stroke-linecap: square"/>
   </g>
   <g id="patch_4">
    <path d="M 453.192 291.28 
L 453.192 3 
" style="fill: none; stroke: #000000; stroke-width: 0.8; stroke-linejoin: miter; stroke-linecap: square"/>
   </g>
   <g id="patch_5">
    <path d="M 34.16 291.28 
L 453.192 291.28 
" style="fill: none; stroke: #000000; stroke-width: 0.8; stroke-linejoin: miter; stroke-linecap: square"/>
   </g>
   <g id="patch_6">
    <path d="M 34.16 3 
L 453.192 3 
" style="fill: none; stroke: #000000; stroke-width: 0.8; stroke-linejoin: miter; stroke-linecap: square"/>
   </g>
   <g id="text_6">
    <!-- f20, f21, f28,20-D -->
    <g transform="translate(267.49261 285.5144) scale(0.2 -0.2)">
     <defs>
      <path id="DejaVuSans-32" d="M 1228 531 
L 3431 531 
L 3431 0 
L 469 0 
L 469 531 
Q 828 903 1448 1529 
Q 2069 2156 2228 2338 
Q 2531 2678 2651 2914 
Q 2772 3150 2772 3378 
Q 2772 3750 2511 3984 
Q 2250 4219 1831 4219 
Q 1534 4219 1204 4116 
Q 875 4013 500 3803 
L 500 4441 
Q 881 4594 1212 4672 
Q 1544 4750 1819 4750 
Q 2544 4750 2975 4387 
Q 3406 4025 3406 3419 
Q 3406 3131 3298 2873 
Q 3191 2616 2906 2266 
Q 2828 2175 2409 1742 
Q 1991 1309 1228 531 
z
" transform="scale(0.015625)"/>
      <path id="DejaVuSans-2c" d="M 750 794 
L 1409 794 
L 1409 256 
L 897 -744 
L 494 -744 
L 750 256 
L 750 794 
z
" transform="scale(0.015625)"/>
      <path id="DejaVuSans-38" d="M 2034 2216 
Q 1584 2216 1326 1975 
Q 1069 1734 1069 1313 
Q 1069 891 1326 650 
Q 1584 409 2034 409 
Q 2484 409 2743 651 
Q 3003 894 3003 1313 
Q 3003 1734 2745 1975 
Q 2488 2216 2034 2216 
z
M 1403 2484 
Q 997 2584 770 2862 
Q 544 3141 544 3541 
Q 544 4100 942 4425 
Q 1341 4750 2034 4750 
Q 2731 4750 3128 4425 
Q 3525 4100 3525 3541 
Q 3525 3141 3298 2862 
Q 3072 2584 2669 2484 
Q 3125 2378 3379 2068 
Q 3634 1759 3634 1313 
Q 3634 634 3220 271 
Q 2806 -91 2034 -91 
Q 1263 -91 848 271 
Q 434 634 434 1313 
Q 434 1759 690 2068 
Q 947 2378 1403 2484 
z
M 1172 3481 
Q 1172 3119 1398 2916 
Q 1625 2713 2034 2713 
Q 2441 2713 2670 2916 
Q 2900 3119 2900 3481 
Q 2900 3844 2670 4047 
Q 2441 4250 2034 4250 
Q 1625 4250 1398 4047 
Q 1172 3844 1172 3481 
z
" transform="scale(0.015625)"/>
      <path id="DejaVuSans-44" d="M 1259 4147 
L 1259 519 
L 2022 519 
Q 2988 519 3436 956 
Q 3884 1394 3884 2338 
Q 3884 3275 3436 3711 
Q 2988 4147 2022 4147 
L 1259 4147 
z
M 628 4666 
L 1925 4666 
Q 3281 4666 3915 4102 
Q 4550 3538 4550 2338 
Q 4550 1131 3912 565 
Q 3275 0 1925 0 
L 628 0 
L 628 4666 
z
" transform="scale(0.015625)"/>
     </defs>
     <use xlink:href="#DejaVuSans-66"/>
     <use xlink:href="#DejaVuSans-32" x="35.205078"/>
     <use xlink:href="#DejaVuSans-30" x="98.828125"/>
     <use xlink:href="#DejaVuSans-2c" x="162.451172"/>
     <use xlink:href="#DejaVuSans-20" x="194.238281"/>
     <use xlink:href="#DejaVuSans-66" x="226.025391"/>
     <use xlink:href="#DejaVuSans-32" x="261.230469"/>
     <use xlink:href="#DejaVuSans-31" x="324.853516"/>
     <use xlink:href="#DejaVuSans-2c" x="388.476562"/>
     <use xlink:href="#DejaVuSans-20" x="420.263672"/>
     <use xlink:href="#DejaVuSans-66" x="452.050781"/>
     <use xlink:href="#DejaVuSans-32" x="487.255859"/>
     <use xlink:href="#DejaVuSans-38" x="550.878906"/>
     <use xlink:href="#DejaVuSans-2c" x="614.501953"/>
     <use xlink:href="#DejaVuSans-32" x="646.289062"/>
     <use xlink:href="#DejaVuSans-30" x="709.912109"/>
     <use xlink:href="#DejaVuSans-2d" x="773.535156"/>
     <use xlink:href="#DejaVuSans-44" x="809.619141"/>
    </g>
   </g>
   <g id="text_7">
    <!-- v2.6, hv-hash=39fb5e94297ca5cb -->
    <g style="fill: #808080" transform="translate(157.211156 286.317512) scale(0.1 -0.1)">
     <defs>
      <path id="DejaVuSans-2e" d="M 684 794 
L 1344 794 
L 1344 0 
L 684 0 
L 684 794 
z
" transform="scale(0.015625)"/>
      <path id="DejaVuSans-36" d="M 2113 2584 
Q 1688 2584 1439 2293 
Q 1191 2003 1191 1497 
Q 1191 994 1439 701 
Q 1688 409 2113 409 
Q 2538 409 2786 701 
Q 3034 994 3034 1497 
Q 3034 2003 2786 2293 
Q 2538 2584 2113 2584 
z
M 3366 4563 
L 3366 3988 
Q 3128 4100 2886 4159 
Q 2644 4219 2406 4219 
Q 1781 4219 1451 3797 
Q 1122 3375 1075 2522 
Q 1259 2794 1537 2939 
Q 1816 3084 2150 3084 
Q 2853 3084 3261 2657 
Q 3669 2231 3669 1497 
Q 3669 778 3244 343 
Q 2819 -91 2113 -91 
Q 1303 -91 875 529 
Q 447 1150 447 2328 
Q 447 3434 972 4092 
Q 1497 4750 2381 4750 
Q 2619 4750 2861 4703 
Q 3103 4656 3366 4563 
z
" transform="scale(0.015625)"/>
      <path id="DejaVuSans-68" d="M 3513 2113 
L 3513 0 
L 2938 0 
L 2938 2094 
Q 2938 2591 2744 2837 
Q 2550 3084 2163 3084 
Q 1697 3084 1428 2787 
Q 1159 2491 1159 1978 
L 1159 0 
L 581 0 
L 581 4863 
L 1159 4863 
L 1159 2956 
Q 1366 3272 1645 3428 
Q 1925 3584 2291 3584 
Q 2894 3584 3203 3211 
Q 3513 2838 3513 2113 
z
" transform="scale(0.015625)"/>
      <path id="DejaVuSans-3d" d="M 678 2906 
L 4684 2906 
L 4684 2381 
L 678 2381 
L 678 2906 
z
M 678 1631 
L 4684 1631 
L 4684 1100 
L 678 1100 
L 678 1631 
z
" transform="scale(0.015625)"/>
      <path id="DejaVuSans-33" d="M 2597 2516 
Q 3050 2419 3304 2112 
Q 3559 1806 3559 1356 
Q 3559 666 3084 287 
Q 2609 -91 1734 -91 
Q 1441 -91 1130 -33 
Q 819 25 488 141 
L 488 750 
Q 750 597 1062 519 
Q 1375 441 1716 441 
Q 2309 441 2620 675 
Q 2931 909 2931 1356 
Q 2931 1769 2642 2001 
Q 2353 2234 1838 2234 
L 1294 2234 
L 1294 2753 
L 1863 2753 
Q 2328 2753 2575 2939 
Q 2822 3125 2822 3475 
Q 2822 3834 2567 4026 
Q 2313 4219 1838 4219 
Q 1578 4219 1281 4162 
Q 984 4106 628 3988 
L 628 4550 
Q 988 4650 1302 4700 
Q 1616 4750 1894 4750 
Q 2613 4750 3031 4423 
Q 3450 4097 3450 3541 
Q 3450 3153 3228 2886 
Q 3006 2619 2597 2516 
z
" transform="scale(0.015625)"/>
      <path id="DejaVuSans-39" d="M 703 97 
L 703 672 
Q 941 559 1184 500 
Q 1428 441 1663 441 
Q 2288 441 2617 861 
Q 2947 1281 2994 2138 
Q 2813 1869 2534 1725 
Q 2256 1581 1919 1581 
Q 1219 1581 811 2004 
Q 403 2428 403 3163 
Q 403 3881 828 4315 
Q 1253 4750 1959 4750 
Q 2769 4750 3195 4129 
Q 3622 3509 3622 2328 
Q 3622 1225 3098 567 
Q 2575 -91 1691 -91 
Q 1453 -91 1209 -44 
Q 966 3 703 97 
z
M 1959 2075 
Q 2384 2075 2632 2365 
Q 2881 2656 2881 3163 
Q 2881 3666 2632 3958 
Q 2384 4250 1959 4250 
Q 1534 4250 1286 3958 
Q 1038 3666 1038 3163 
Q 1038 2656 1286 2365 
Q 1534 2075 1959 2075 
z
" transform="scale(0.015625)"/>
      <path id="DejaVuSans-62" d="M 3116 1747 
Q 3116 2381 2855 2742 
Q 2594 3103 2138 3103 
Q 1681 3103 1420 2742 
Q 1159 2381 1159 1747 
Q 1159 1113 1420 752 
Q 1681 391 2138 391 
Q 2594 391 2855 752 
Q 3116 1113 3116 1747 
z
M 1159 2969 
Q 1341 3281 1617 3432 
Q 1894 3584 2278 3584 
Q 2916 3584 3314 3078 
Q 3713 2572 3713 1747 
Q 3713 922 3314 415 
Q 2916 -91 2278 -91 
Q 1894 -91 1617 61 
Q 1341 213 1159 525 
L 1159 0 
L 581 0 
L 581 4863 
L 1159 4863 
L 1159 2969 
z
" transform="scale(0.015625)"/>
      <path id="DejaVuSans-35" d="M 691 4666 
L 3169 4666 
L 3169 4134 
L 1269 4134 
L 1269 2991 
Q 1406 3038 1543 3061 
Q 1681 3084 1819 3084 
Q 2600 3084 3056 2656 
Q 3513 2228 3513 1497 
Q 3513 744 3044 326 
Q 2575 -91 1722 -91 
Q 1428 -91 1123 -41 
Q 819 9 494 109 
L 494 744 
Q 775 591 1075 516 
Q 1375 441 1709 441 
Q 2250 441 2565 725 
Q 2881 1009 2881 1497 
Q 2881 1984 2565 2268 
Q 2250 2553 1709 2553 
Q 1456 2553 1204 2497 
Q 953 2441 691 2322 
L 691 4666 
z
" transform="scale(0.015625)"/>
      <path id="DejaVuSans-65" d="M 3597 1894 
L 3597 1613 
L 953 1613 
Q 991 1019 1311 708 
Q 1631 397 2203 397 
Q 2534 397 2845 478 
Q 3156 559 3463 722 
L 3463 178 
Q 3153 47 2828 -22 
Q 2503 -91 2169 -91 
Q 1331 -91 842 396 
Q 353 884 353 1716 
Q 353 2575 817 3079 
Q 1281 3584 2069 3584 
Q 2775 3584 3186 3129 
Q 3597 2675 3597 1894 
z
M 3022 2063 
Q 3016 2534 2758 2815 
Q 2500 3097 2075 3097 
Q 1594 3097 1305 2825 
Q 1016 2553 972 2059 
L 3022 2063 
z
" transform="scale(0.015625)"/>
      <path id="DejaVuSans-34" d="M 2419 4116 
L 825 1625 
L 2419 1625 
L 2419 4116 
z
M 2253 4666 
L 3047 4666 
L 3047 1625 
L 3713 1625 
L 3713 1100 
L 3047 1100 
L 3047 0 
L 2419 0 
L 2419 1100 
L 313 1100 
L 313 1709 
L 2253 4666 
z
" transform="scale(0.015625)"/>
      <path id="DejaVuSans-37" d="M 525 4666 
L 3525 4666 
L 3525 4397 
L 1831 0 
L 1172 0 
L 2766 4134 
L 525 4134 
L 525 4666 
z
" transform="scale(0.015625)"/>
      <path id="DejaVuSans-63" d="M 3122 3366 
L 3122 2828 
Q 2878 2963 2633 3030 
Q 2388 3097 2138 3097 
Q 1578 3097 1268 2742 
Q 959 2388 959 1747 
Q 959 1106 1268 751 
Q 1578 397 2138 397 
Q 2388 397 2633 464 
Q 2878 531 3122 666 
L 3122 134 
Q 2881 22 2623 -34 
Q 2366 -91 2075 -91 
Q 1284 -91 818 406 
Q 353 903 353 1747 
Q 353 2603 823 3093 
Q 1294 3584 2113 3584 
Q 2378 3584 2631 3529 
Q 2884 3475 3122 3366 
z
" transform="scale(0.015625)"/>
     </defs>
     <use xlink:href="#DejaVuSans-76"/>
     <use xlink:href="#DejaVuSans-32" x="59.179688"/>
     <use xlink:href="#DejaVuSans-2e" x="122.802734"/>
     <use xlink:href="#DejaVuSans-36" x="154.589844"/>
     <use xlink:href="#DejaVuSans-2c" x="218.212891"/>
     <use xlink:href="#DejaVuSans-20" x="250"/>
     <use xlink:href="#DejaVuSans-68" x="281.787109"/>
     <use xlink:href="#DejaVuSans-76" x="345.166016"/>
     <use xlink:href="#DejaVuSans-2d" x="401.720703"/>
     <use xlink:href="#DejaVuSans-68" x="437.804688"/>
     <use xlink:href="#DejaVuSans-61" x="501.183594"/>
     <use xlink:href="#DejaVuSans-73" x="562.462891"/>
     <use xlink:href="#DejaVuSans-68" x="614.5625"/>
     <use xlink:href="#DejaVuSans-3d" x="677.941406"/>
     <use xlink:href="#DejaVuSans-33" x="761.730469"/>
     <use xlink:href="#DejaVuSans-39" x="825.353516"/>
     <use xlink:href="#DejaVuSans-66" x="888.976562"/>
     <use xlink:href="#DejaVuSans-62" x="924.181641"/>
     <use xlink:href="#DejaVuSans-35" x="987.658203"/>
     <use xlink:href="#DejaVuSans-65" x="1051.28125"/>
     <use xlink:href="#DejaVuSans-39" x="1112.804688"/>
     <use xlink:href="#DejaVuSans-34" x="1176.427734"/>
     <use xlink:href="#DejaVuSans-32" x="1240.050781"/>
     <use xlink:href="#DejaVuSans-39" x="1303.673828"/>
     <use xlink:href="#DejaVuSans-37" x="1367.296875"/>
     <use xlink:href="#DejaVuSans-63" x="1430.919922"/>
     <use xlink:href="#DejaVuSans-61" x="1485.900391"/>
     <use xlink:href="#DejaVuSans-35" x="1547.179688"/>
     <use xlink:href="#DejaVuSans-63" x="1610.802734"/>
     <use xlink:href="#DejaVuSans-62" x="1665.783203"/>
    </g>
   </g>
   <g id="legend_1">
    <g id="patch_7">
     <path d="M 48.16 165.78125 
L 177.381875 165.78125 
Q 181.381875 165.78125 181.381875 161.78125 
L 181.381875 17 
Q 181.381875 13 177.381875 13 
L 48.16 13 
Q 44.16 13 44.16 17 
L 44.16 161.78125 
Q 44.16 165.78125 48.16 165.78125 
z
" style="fill: #ffffff; opacity: 0.2; stroke: #cccccc; stroke-linejoin: miter"/>
    </g>
    <g id="line2d_50">
     <path d="M 52.16 29.196875 
L 72.16 29.196875 
L 92.16 29.196875 
" style="fill: none; stroke: #000000; stroke-width: 3; stroke-linecap: square"/>
    </g>
    <g id="text_8">
     <!-- -1: 3/3 -->
     <g transform="translate(108.16 36.196875) scale(0.2 -0.2)">
      <defs>
       <path id="DejaVuSans-3a" d="M 750 794 
L 1409 794 
L 1409 0 
L 750 0 
L 750 794 
z
M 750 3309 
L 1409 3309 
L 1409 2516 
L 750 2516 
L 750 3309 
z
" transform="scale(0.015625)"/>
       <path id="DejaVuSans-2f" d="M 1625 4666 
L 2156 4666 
L 531 -594 
L 0 -594 
L 1625 4666 
z
" transform="scale(0.015625)"/>
      </defs>
      <use xlink:href="#DejaVuSans-2d"/>
      <use xlink:href="#DejaVuSans-31" x="36.083984"/>
      <use xlink:href="#DejaVuSans-3a" x="99.707031"/>
      <use xlink:href="#DejaVuSans-20" x="133.398438"/>
      <use xlink:href="#DejaVuSans-33" x="165.185547"/>
      <use xlink:href="#DejaVuSans-2f" x="228.808594"/>
      <use xlink:href="#DejaVuSans-33" x="262.5"/>
     </g>
    </g>
    <g id="line2d_51">
     <path d="M 52.16 58.553125 
L 72.16 58.553125 
L 92.16 58.553125 
" style="fill: none; stroke: #00bfbf; stroke-width: 3; stroke-linecap: square"/>
    </g>
    <g id="text_9">
     <!-- -2: 3/3 -->
     <g transform="translate(108.16 65.553125) scale(0.2 -0.2)">
      <use xlink:href="#DejaVuSans-2d"/>
      <use xlink:href="#DejaVuSans-32" x="36.083984"/>
      <use xlink:href="#DejaVuSans-3a" x="99.707031"/>
      <use xlink:href="#DejaVuSans-20" x="133.398438"/>
      <use xlink:href="#DejaVuSans-33" x="165.185547"/>
      <use xlink:href="#DejaVuSans-2f" x="228.808594"/>
      <use xlink:href="#DejaVuSans-33" x="262.5"/>
     </g>
    </g>
    <g id="line2d_52">
     <path d="M 52.16 87.909375 
L 72.16 87.909375 
L 92.16 87.909375 
" style="fill: none; stroke: #bf00bf; stroke-width: 3; stroke-linecap: square"/>
    </g>
    <g id="text_10">
     <!-- -3: 3/3 -->
     <g transform="translate(108.16 94.909375) scale(0.2 -0.2)">
      <use xlink:href="#DejaVuSans-2d"/>
      <use xlink:href="#DejaVuSans-33" x="36.083984"/>
      <use xlink:href="#DejaVuSans-3a" x="99.707031"/>
      <use xlink:href="#DejaVuSans-20" x="133.398438"/>
      <use xlink:href="#DejaVuSans-33" x="165.185547"/>
      <use xlink:href="#DejaVuSans-2f" x="228.808594"/>
      <use xlink:href="#DejaVuSans-33" x="262.5"/>
     </g>
    </g>
    <g id="line2d_53">
     <path d="M 52.16 117.265625 
L 72.16 117.265625 
L 92.16 117.265625 
" style="fill: none; stroke: #ff0000; stroke-width: 3; stroke-linecap: square"/>
    </g>
    <g id="text_11">
     <!-- -4: 1/1 -->
     <g transform="translate(108.16 124.265625) scale(0.2 -0.2)">
      <use xlink:href="#DejaVuSans-2d"/>
      <use xlink:href="#DejaVuSans-34" x="36.083984"/>
      <use xlink:href="#DejaVuSans-3a" x="99.707031"/>
      <use xlink:href="#DejaVuSans-20" x="133.398438"/>
      <use xlink:href="#DejaVuSans-31" x="165.185547"/>
      <use xlink:href="#DejaVuSans-2f" x="228.808594"/>
      <use xlink:href="#DejaVuSans-31" x="262.5"/>
     </g>
    </g>
    <g id="line2d_54">
     <path d="M 52.16 146.621875 
L 72.16 146.621875 
L 92.16 146.621875 
" style="fill: none; stroke: #0000ff; stroke-width: 3; stroke-linecap: square"/>
    </g>
    <g id="text_12">
     <!-- -5: 0/0 -->
     <g transform="translate(108.16 153.621875) scale(0.2 -0.2)">
      <use xlink:href="#DejaVuSans-2d"/>
      <use xlink:href="#DejaVuSans-35" x="36.083984"/>
      <use xlink:href="#DejaVuSans-3a" x="99.707031"/>
      <use xlink:href="#DejaVuSans-20" x="133.398438"/>
      <use xlink:href="#DejaVuSans-30" x="165.185547"/>
      <use xlink:href="#DejaVuSans-2f" x="228.808594"/>
      <use xlink:href="#DejaVuSans-30" x="262.5"/>
     </g>
    </g>
   </g>
  </g>
 </g>
 <defs>
  <clipPath id="pf6b66f6baf">
   <rect x="34.16" y="3" width="419.032" height="288.28"/>
  </clipPath>
 </defs>
</svg>
