<?xml version="1.0" encoding="utf-8" standalone="no"?>
<!DOCTYPE svg PUBLIC "-//W3C//DTD SVG 1.1//EN"
  "http://www.w3.org/Graphics/SVG/1.1/DTD/svg11.dtd">
<svg xmlns:xlink="http://www.w3.org/1999/xlink" width="460.8pt" height="345.6pt" viewBox="0 0 460.8 345.6" xmlns="http://www.w3.org/2000/svg" version="1.1">
 <metadata>
  <rdf:RDF xmlns:dc="http://purl.org/dc/elements/1.1/" xmlns:cc="http://creativecommons.org/ns#" xmlns:rdf="http://www.w3.org/1999/02/22-rdf-syntax-ns#">
   <cc:Work>
    <dc:type rdf:resource="http://purl.org/dc/dcmitype/StillImage"/>
    <dc:date>2023-02-13T14:58:49.729792</dc:date>
    <dc:format>image/svg+xml</dc:format>
    <dc:creator>
     <cc:Agent>
      <dc:title>Matplotlib v3.6.3, https://matplotlib.org/</dc:title>
     </cc:Agent>
    </dc:creator>
   </cc:Work>
  </rdf:RDF>
 </metadata>
 <defs>
  <style type="text/css">*{stroke-linejoin: round; stroke-linecap: butt}</style>
 </defs>
 <g id="figure_1">
  <g id="patch_1">
   <path d="M 0 345.6 
L 460.8 345.6 
L 460.8 0 
L 0 0 
z
" style="fill: #ffffff"/>
  </g>
  <g id="axes_1">
   <g id="patch_2">
    <path d="M 34.16 291.28 
L 453.192 291.28 
L 453.192 3 
L 34.16 3 
z
" style="fill: #ffffff"/>
   </g>
   <g id="matplotlib.axis_1">
    <g id="xtick_1">
     <g id="line2d_1">
      <path d="M 162.111476 291.28 
L 162.111476 3 
" clip-path="url(#p60a0d975f0)" style="fill: none; stroke: #b0b0b0; stroke-width: 0.8; stroke-linecap: square"/>
     </g>
     <g id="line2d_2">
      <defs>
       <path id="m3b0b038d71" d="M 0 0 
L 0 3.5 
" style="stroke: #000000; stroke-width: 0.8"/>
      </defs>
      <g>
       <use xlink:href="#m3b0b038d71" x="162.111476" y="291.28" style="stroke: #000000; stroke-width: 0.8"/>
      </g>
     </g>
     <g id="text_1">
      <!-- -1 -->
      <g transform="translate(152.141163 313.476875) scale(0.2 -0.2)">
       <defs>
        <path id="DejaVuSans-2d" d="M 313 2009 
L 1997 2009 
L 1997 1497 
L 313 1497 
L 313 2009 
z
" transform="scale(0.015625)"/>
        <path id="DejaVuSans-31" d="M 794 531 
L 1825 531 
L 1825 4091 
L 703 3866 
L 703 4441 
L 1819 4666 
L 2450 4666 
L 2450 531 
L 3481 531 
L 3481 0 
L 794 0 
L 794 531 
z
" transform="scale(0.015625)"/>
       </defs>
       <use xlink:href="#DejaVuSans-2d"/>
       <use xlink:href="#DejaVuSans-31" x="36.083984"/>
      </g>
     </g>
    </g>
    <g id="xtick_2">
     <g id="line2d_3">
      <path d="M 325.240524 291.28 
L 325.240524 3 
" clip-path="url(#p60a0d975f0)" style="fill: none; stroke: #b0b0b0; stroke-width: 0.8; stroke-linecap: square"/>
     </g>
     <g id="line2d_4">
      <g>
       <use xlink:href="#m3b0b038d71" x="325.240524" y="291.28" style="stroke: #000000; stroke-width: 0.8"/>
      </g>
     </g>
     <g id="text_2">
      <!-- 1 -->
      <g transform="translate(318.878024 313.476875) scale(0.2 -0.2)">
       <use xlink:href="#DejaVuSans-31"/>
      </g>
     </g>
    </g>
    <g id="xtick_3">
     <g id="line2d_5">
      <defs>
       <path id="m926bba62ec" d="M 0 0 
L 0 2 
" style="stroke: #000000; stroke-width: 0.6"/>
      </defs>
      <g>
       <use xlink:href="#m926bba62ec" x="37.898596" y="291.28" style="stroke: #000000; stroke-width: 0.6"/>
      </g>
     </g>
    </g>
    <g id="xtick_4">
     <g id="line2d_6">
      <g>
       <use xlink:href="#m926bba62ec" x="48.089164" y="291.28" style="stroke: #000000; stroke-width: 0.6"/>
      </g>
     </g>
    </g>
    <g id="xtick_5">
     <g id="line2d_7">
      <g>
       <use xlink:href="#m926bba62ec" x="55.993584" y="291.28" style="stroke: #000000; stroke-width: 0.6"/>
      </g>
     </g>
    </g>
    <g id="xtick_6">
     <g id="line2d_8">
      <g>
       <use xlink:href="#m926bba62ec" x="62.451964" y="291.28" style="stroke: #000000; stroke-width: 0.6"/>
      </g>
     </g>
    </g>
    <g id="xtick_7">
     <g id="line2d_9">
      <g>
       <use xlink:href="#m926bba62ec" x="67.912447" y="291.28" style="stroke: #000000; stroke-width: 0.6"/>
      </g>
     </g>
    </g>
    <g id="xtick_8">
     <g id="line2d_10">
      <g>
       <use xlink:href="#m926bba62ec" x="72.642533" y="291.28" style="stroke: #000000; stroke-width: 0.6"/>
      </g>
     </g>
    </g>
    <g id="xtick_9">
     <g id="line2d_11">
      <g>
       <use xlink:href="#m926bba62ec" x="76.814764" y="291.28" style="stroke: #000000; stroke-width: 0.6"/>
      </g>
     </g>
    </g>
    <g id="xtick_10">
     <g id="line2d_12">
      <g>
       <use xlink:href="#m926bba62ec" x="105.10032" y="291.28" style="stroke: #000000; stroke-width: 0.6"/>
      </g>
     </g>
    </g>
    <g id="xtick_11">
     <g id="line2d_13">
      <g>
       <use xlink:href="#m926bba62ec" x="119.46312" y="291.28" style="stroke: #000000; stroke-width: 0.6"/>
      </g>
     </g>
    </g>
    <g id="xtick_12">
     <g id="line2d_14">
      <g>
       <use xlink:href="#m926bba62ec" x="129.653689" y="291.28" style="stroke: #000000; stroke-width: 0.6"/>
      </g>
     </g>
    </g>
    <g id="xtick_13">
     <g id="line2d_15">
      <g>
       <use xlink:href="#m926bba62ec" x="137.558108" y="291.28" style="stroke: #000000; stroke-width: 0.6"/>
      </g>
     </g>
    </g>
    <g id="xtick_14">
     <g id="line2d_16">
      <g>
       <use xlink:href="#m926bba62ec" x="144.016488" y="291.28" style="stroke: #000000; stroke-width: 0.6"/>
      </g>
     </g>
    </g>
    <g id="xtick_15">
     <g id="line2d_17">
      <g>
       <use xlink:href="#m926bba62ec" x="149.476971" y="291.28" style="stroke: #000000; stroke-width: 0.6"/>
      </g>
     </g>
    </g>
    <g id="xtick_16">
     <g id="line2d_18">
      <g>
       <use xlink:href="#m926bba62ec" x="154.207057" y="291.28" style="stroke: #000000; stroke-width: 0.6"/>
      </g>
     </g>
    </g>
    <g id="xtick_17">
     <g id="line2d_19">
      <g>
       <use xlink:href="#m926bba62ec" x="158.379288" y="291.28" style="stroke: #000000; stroke-width: 0.6"/>
      </g>
     </g>
    </g>
    <g id="xtick_18">
     <g id="line2d_20">
      <g>
       <use xlink:href="#m926bba62ec" x="186.664844" y="291.28" style="stroke: #000000; stroke-width: 0.6"/>
      </g>
     </g>
    </g>
    <g id="xtick_19">
     <g id="line2d_21">
      <g>
       <use xlink:href="#m926bba62ec" x="201.027644" y="291.28" style="stroke: #000000; stroke-width: 0.6"/>
      </g>
     </g>
    </g>
    <g id="xtick_20">
     <g id="line2d_22">
      <g>
       <use xlink:href="#m926bba62ec" x="211.218213" y="291.28" style="stroke: #000000; stroke-width: 0.6"/>
      </g>
     </g>
    </g>
    <g id="xtick_21">
     <g id="line2d_23">
      <g>
       <use xlink:href="#m926bba62ec" x="219.122632" y="291.28" style="stroke: #000000; stroke-width: 0.6"/>
      </g>
     </g>
    </g>
    <g id="xtick_22">
     <g id="line2d_24">
      <g>
       <use xlink:href="#m926bba62ec" x="225.581012" y="291.28" style="stroke: #000000; stroke-width: 0.6"/>
      </g>
     </g>
    </g>
    <g id="xtick_23">
     <g id="line2d_25">
      <g>
       <use xlink:href="#m926bba62ec" x="231.041495" y="291.28" style="stroke: #000000; stroke-width: 0.6"/>
      </g>
     </g>
    </g>
    <g id="xtick_24">
     <g id="line2d_26">
      <g>
       <use xlink:href="#m926bba62ec" x="235.771581" y="291.28" style="stroke: #000000; stroke-width: 0.6"/>
      </g>
     </g>
    </g>
    <g id="xtick_25">
     <g id="line2d_27">
      <g>
       <use xlink:href="#m926bba62ec" x="239.943812" y="291.28" style="stroke: #000000; stroke-width: 0.6"/>
      </g>
     </g>
    </g>
    <g id="xtick_26">
     <g id="line2d_28">
      <g>
       <use xlink:href="#m926bba62ec" x="268.229368" y="291.28" style="stroke: #000000; stroke-width: 0.6"/>
      </g>
     </g>
    </g>
    <g id="xtick_27">
     <g id="line2d_29">
      <g>
       <use xlink:href="#m926bba62ec" x="282.592168" y="291.28" style="stroke: #000000; stroke-width: 0.6"/>
      </g>
     </g>
    </g>
    <g id="xtick_28">
     <g id="line2d_30">
      <g>
       <use xlink:href="#m926bba62ec" x="292.782737" y="291.28" style="stroke: #000000; stroke-width: 0.6"/>
      </g>
     </g>
    </g>
    <g id="xtick_29">
     <g id="line2d_31">
      <g>
       <use xlink:href="#m926bba62ec" x="300.687156" y="291.28" style="stroke: #000000; stroke-width: 0.6"/>
      </g>
     </g>
    </g>
    <g id="xtick_30">
     <g id="line2d_32">
      <g>
       <use xlink:href="#m926bba62ec" x="307.145536" y="291.28" style="stroke: #000000; stroke-width: 0.6"/>
      </g>
     </g>
    </g>
    <g id="xtick_31">
     <g id="line2d_33">
      <g>
       <use xlink:href="#m926bba62ec" x="312.606019" y="291.28" style="stroke: #000000; stroke-width: 0.6"/>
      </g>
     </g>
    </g>
    <g id="xtick_32">
     <g id="line2d_34">
      <g>
       <use xlink:href="#m926bba62ec" x="317.336105" y="291.28" style="stroke: #000000; stroke-width: 0.6"/>
      </g>
     </g>
    </g>
    <g id="xtick_33">
     <g id="line2d_35">
      <g>
       <use xlink:href="#m926bba62ec" x="321.508336" y="291.28" style="stroke: #000000; stroke-width: 0.6"/>
      </g>
     </g>
    </g>
    <g id="xtick_34">
     <g id="line2d_36">
      <g>
       <use xlink:href="#m926bba62ec" x="349.793892" y="291.28" style="stroke: #000000; stroke-width: 0.6"/>
      </g>
     </g>
    </g>
    <g id="xtick_35">
     <g id="line2d_37">
      <g>
       <use xlink:href="#m926bba62ec" x="364.156692" y="291.28" style="stroke: #000000; stroke-width: 0.6"/>
      </g>
     </g>
    </g>
    <g id="xtick_36">
     <g id="line2d_38">
      <g>
       <use xlink:href="#m926bba62ec" x="374.347261" y="291.28" style="stroke: #000000; stroke-width: 0.6"/>
      </g>
     </g>
    </g>
    <g id="xtick_37">
     <g id="line2d_39">
      <g>
       <use xlink:href="#m926bba62ec" x="382.25168" y="291.28" style="stroke: #000000; stroke-width: 0.6"/>
      </g>
     </g>
    </g>
    <g id="xtick_38">
     <g id="line2d_40">
      <g>
       <use xlink:href="#m926bba62ec" x="388.71006" y="291.28" style="stroke: #000000; stroke-width: 0.6"/>
      </g>
     </g>
    </g>
    <g id="xtick_39">
     <g id="line2d_41">
      <g>
       <use xlink:href="#m926bba62ec" x="394.170543" y="291.28" style="stroke: #000000; stroke-width: 0.6"/>
      </g>
     </g>
    </g>
    <g id="xtick_40">
     <g id="line2d_42">
      <g>
       <use xlink:href="#m926bba62ec" x="398.900629" y="291.28" style="stroke: #000000; stroke-width: 0.6"/>
      </g>
     </g>
    </g>
    <g id="xtick_41">
     <g id="line2d_43">
      <g>
       <use xlink:href="#m926bba62ec" x="403.07286" y="291.28" style="stroke: #000000; stroke-width: 0.6"/>
      </g>
     </g>
    </g>
    <g id="xtick_42">
     <g id="line2d_44">
      <g>
       <use xlink:href="#m926bba62ec" x="431.358416" y="291.28" style="stroke: #000000; stroke-width: 0.6"/>
      </g>
     </g>
    </g>
    <g id="xtick_43">
     <g id="line2d_45">
      <g>
       <use xlink:href="#m926bba62ec" x="445.721216" y="291.28" style="stroke: #000000; stroke-width: 0.6"/>
      </g>
     </g>
    </g>
    <g id="text_3">
     <!-- log10 of FEvals ratio -->
     <g transform="translate(141.371312 336.833125) scale(0.2 -0.2)">
      <defs>
       <path id="DejaVuSans-6c" d="M 603 4863 
L 1178 4863 
L 1178 0 
L 603 0 
L 603 4863 
z
" transform="scale(0.015625)"/>
       <path id="DejaVuSans-6f" d="M 1959 3097 
Q 1497 3097 1228 2736 
Q 959 2375 959 1747 
Q 959 1119 1226 758 
Q 1494 397 1959 397 
Q 2419 397 2687 759 
Q 2956 1122 2956 1747 
Q 2956 2369 2687 2733 
Q 2419 3097 1959 3097 
z
M 1959 3584 
Q 2709 3584 3137 3096 
Q 3566 2609 3566 1747 
Q 3566 888 3137 398 
Q 2709 -91 1959 -91 
Q 1206 -91 779 398 
Q 353 888 353 1747 
Q 353 2609 779 3096 
Q 1206 3584 1959 3584 
z
" transform="scale(0.015625)"/>
       <path id="DejaVuSans-67" d="M 2906 1791 
Q 2906 2416 2648 2759 
Q 2391 3103 1925 3103 
Q 1463 3103 1205 2759 
Q 947 2416 947 1791 
Q 947 1169 1205 825 
Q 1463 481 1925 481 
Q 2391 481 2648 825 
Q 2906 1169 2906 1791 
z
M 3481 434 
Q 3481 -459 3084 -895 
Q 2688 -1331 1869 -1331 
Q 1566 -1331 1297 -1286 
Q 1028 -1241 775 -1147 
L 775 -588 
Q 1028 -725 1275 -790 
Q 1522 -856 1778 -856 
Q 2344 -856 2625 -561 
Q 2906 -266 2906 331 
L 2906 616 
Q 2728 306 2450 153 
Q 2172 0 1784 0 
Q 1141 0 747 490 
Q 353 981 353 1791 
Q 353 2603 747 3093 
Q 1141 3584 1784 3584 
Q 2172 3584 2450 3431 
Q 2728 3278 2906 2969 
L 2906 3500 
L 3481 3500 
L 3481 434 
z
" transform="scale(0.015625)"/>
       <path id="DejaVuSans-30" d="M 2034 4250 
Q 1547 4250 1301 3770 
Q 1056 3291 1056 2328 
Q 1056 1369 1301 889 
Q 1547 409 2034 409 
Q 2525 409 2770 889 
Q 3016 1369 3016 2328 
Q 3016 3291 2770 3770 
Q 2525 4250 2034 4250 
z
M 2034 4750 
Q 2819 4750 3233 4129 
Q 3647 3509 3647 2328 
Q 3647 1150 3233 529 
Q 2819 -91 2034 -91 
Q 1250 -91 836 529 
Q 422 1150 422 2328 
Q 422 3509 836 4129 
Q 1250 4750 2034 4750 
z
" transform="scale(0.015625)"/>
       <path id="DejaVuSans-20" transform="scale(0.015625)"/>
       <path id="DejaVuSans-66" d="M 2375 4863 
L 2375 4384 
L 1825 4384 
Q 1516 4384 1395 4259 
Q 1275 4134 1275 3809 
L 1275 3500 
L 2222 3500 
L 2222 3053 
L 1275 3053 
L 1275 0 
L 697 0 
L 697 3053 
L 147 3053 
L 147 3500 
L 697 3500 
L 697 3744 
Q 697 4328 969 4595 
Q 1241 4863 1831 4863 
L 2375 4863 
z
" transform="scale(0.015625)"/>
       <path id="DejaVuSans-46" d="M 628 4666 
L 3309 4666 
L 3309 4134 
L 1259 4134 
L 1259 2759 
L 3109 2759 
L 3109 2228 
L 1259 2228 
L 1259 0 
L 628 0 
L 628 4666 
z
" transform="scale(0.015625)"/>
       <path id="DejaVuSans-45" d="M 628 4666 
L 3578 4666 
L 3578 4134 
L 1259 4134 
L 1259 2753 
L 3481 2753 
L 3481 2222 
L 1259 2222 
L 1259 531 
L 3634 531 
L 3634 0 
L 628 0 
L 628 4666 
z
" transform="scale(0.015625)"/>
       <path id="DejaVuSans-76" d="M 191 3500 
L 800 3500 
L 1894 563 
L 2988 3500 
L 3597 3500 
L 2284 0 
L 1503 0 
L 191 3500 
z
" transform="scale(0.015625)"/>
       <path id="DejaVuSans-61" d="M 2194 1759 
Q 1497 1759 1228 1600 
Q 959 1441 959 1056 
Q 959 750 1161 570 
Q 1363 391 1709 391 
Q 2188 391 2477 730 
Q 2766 1069 2766 1631 
L 2766 1759 
L 2194 1759 
z
M 3341 1997 
L 3341 0 
L 2766 0 
L 2766 531 
Q 2569 213 2275 61 
Q 1981 -91 1556 -91 
Q 1019 -91 701 211 
Q 384 513 384 1019 
Q 384 1609 779 1909 
Q 1175 2209 1959 2209 
L 2766 2209 
L 2766 2266 
Q 2766 2663 2505 2880 
Q 2244 3097 1772 3097 
Q 1472 3097 1187 3025 
Q 903 2953 641 2809 
L 641 3341 
Q 956 3463 1253 3523 
Q 1550 3584 1831 3584 
Q 2591 3584 2966 3190 
Q 3341 2797 3341 1997 
z
" transform="scale(0.015625)"/>
       <path id="DejaVuSans-73" d="M 2834 3397 
L 2834 2853 
Q 2591 2978 2328 3040 
Q 2066 3103 1784 3103 
Q 1356 3103 1142 2972 
Q 928 2841 928 2578 
Q 928 2378 1081 2264 
Q 1234 2150 1697 2047 
L 1894 2003 
Q 2506 1872 2764 1633 
Q 3022 1394 3022 966 
Q 3022 478 2636 193 
Q 2250 -91 1575 -91 
Q 1294 -91 989 -36 
Q 684 19 347 128 
L 347 722 
Q 666 556 975 473 
Q 1284 391 1588 391 
Q 1994 391 2212 530 
Q 2431 669 2431 922 
Q 2431 1156 2273 1281 
Q 2116 1406 1581 1522 
L 1381 1569 
Q 847 1681 609 1914 
Q 372 2147 372 2553 
Q 372 3047 722 3315 
Q 1072 3584 1716 3584 
Q 2034 3584 2315 3537 
Q 2597 3491 2834 3397 
z
" transform="scale(0.015625)"/>
       <path id="DejaVuSans-72" d="M 2631 2963 
Q 2534 3019 2420 3045 
Q 2306 3072 2169 3072 
Q 1681 3072 1420 2755 
Q 1159 2438 1159 1844 
L 1159 0 
L 581 0 
L 581 3500 
L 1159 3500 
L 1159 2956 
Q 1341 3275 1631 3429 
Q 1922 3584 2338 3584 
Q 2397 3584 2469 3576 
Q 2541 3569 2628 3553 
L 2631 2963 
z
" transform="scale(0.015625)"/>
       <path id="DejaVuSans-74" d="M 1172 4494 
L 1172 3500 
L 2356 3500 
L 2356 3053 
L 1172 3053 
L 1172 1153 
Q 1172 725 1289 603 
Q 1406 481 1766 481 
L 2356 481 
L 2356 0 
L 1766 0 
Q 1100 0 847 248 
Q 594 497 594 1153 
L 594 3053 
L 172 3053 
L 172 3500 
L 594 3500 
L 594 4494 
L 1172 4494 
z
" transform="scale(0.015625)"/>
       <path id="DejaVuSans-69" d="M 603 3500 
L 1178 3500 
L 1178 0 
L 603 0 
L 603 3500 
z
M 603 4863 
L 1178 4863 
L 1178 4134 
L 603 4134 
L 603 4863 
z
" transform="scale(0.015625)"/>
      </defs>
      <use xlink:href="#DejaVuSans-6c"/>
      <use xlink:href="#DejaVuSans-6f" x="27.783203"/>
      <use xlink:href="#DejaVuSans-67" x="88.964844"/>
      <use xlink:href="#DejaVuSans-31" x="152.441406"/>
      <use xlink:href="#DejaVuSans-30" x="216.064453"/>
      <use xlink:href="#DejaVuSans-20" x="279.6875"/>
      <use xlink:href="#DejaVuSans-6f" x="311.474609"/>
      <use xlink:href="#DejaVuSans-66" x="372.65625"/>
      <use xlink:href="#DejaVuSans-20" x="407.861328"/>
      <use xlink:href="#DejaVuSans-46" x="439.648438"/>
      <use xlink:href="#DejaVuSans-45" x="497.167969"/>
      <use xlink:href="#DejaVuSans-76" x="560.351562"/>
      <use xlink:href="#DejaVuSans-61" x="619.53125"/>
      <use xlink:href="#DejaVuSans-6c" x="680.810547"/>
      <use xlink:href="#DejaVuSans-73" x="708.59375"/>
      <use xlink:href="#DejaVuSans-20" x="760.693359"/>
      <use xlink:href="#DejaVuSans-72" x="792.480469"/>
      <use xlink:href="#DejaVuSans-61" x="833.59375"/>
      <use xlink:href="#DejaVuSans-74" x="894.873047"/>
      <use xlink:href="#DejaVuSans-69" x="934.082031"/>
      <use xlink:href="#DejaVuSans-6f" x="961.865234"/>
     </g>
    </g>
   </g>
   <g id="matplotlib.axis_2">
    <g id="ytick_1">
     <g id="line2d_46">
      <path d="M 34.16 288.453725 
L 453.192 288.453725 
" clip-path="url(#p60a0d975f0)" style="fill: none; stroke: #b0b0b0; stroke-width: 0.8; stroke-linecap: square"/>
     </g>
     <g id="line2d_47">
      <defs>
       <path id="m756cb07fdd" d="M 0 0 
L -3.5 0 
" style="stroke: #000000; stroke-width: 0.8"/>
      </defs>
      <g>
       <use xlink:href="#m756cb07fdd" x="34.16" y="288.453725" style="stroke: #000000; stroke-width: 0.8"/>
      </g>
     </g>
    </g>
    <g id="ytick_2">
     <g id="line2d_48">
      <path d="M 34.16 217.796863 
L 453.192 217.796863 
" clip-path="url(#p60a0d975f0)" style="fill: none; stroke: #b0b0b0; stroke-width: 0.8; stroke-linecap: square"/>
     </g>
     <g id="line2d_49">
      <g>
       <use xlink:href="#m756cb07fdd" x="34.16" y="217.796863" style="stroke: #000000; stroke-width: 0.8"/>
      </g>
     </g>
    </g>
    <g id="ytick_3">
     <g id="line2d_50">
      <path d="M 34.16 147.14 
L 453.192 147.14 
" clip-path="url(#p60a0d975f0)" style="fill: none; stroke: #b0b0b0; stroke-width: 0.8; stroke-linecap: square"/>
     </g>
     <g id="line2d_51">
      <g>
       <use xlink:href="#m756cb07fdd" x="34.16" y="147.14" style="stroke: #000000; stroke-width: 0.8"/>
      </g>
     </g>
    </g>
    <g id="ytick_4">
     <g id="line2d_52">
      <path d="M 34.16 76.483137 
L 453.192 76.483137 
" clip-path="url(#p60a0d975f0)" style="fill: none; stroke: #b0b0b0; stroke-width: 0.8; stroke-linecap: square"/>
     </g>
     <g id="line2d_53">
      <g>
       <use xlink:href="#m756cb07fdd" x="34.16" y="76.483137" style="stroke: #000000; stroke-width: 0.8"/>
      </g>
     </g>
    </g>
    <g id="ytick_5">
     <g id="line2d_54">
      <path d="M 34.16 5.826275 
L 453.192 5.826275 
" clip-path="url(#p60a0d975f0)" style="fill: none; stroke: #b0b0b0; stroke-width: 0.8; stroke-linecap: square"/>
     </g>
     <g id="line2d_55">
      <g>
       <use xlink:href="#m756cb07fdd" x="34.16" y="5.826275" style="stroke: #000000; stroke-width: 0.8"/>
      </g>
     </g>
    </g>
    <g id="text_4">
     <!-- proportion of trials -->
     <g transform="translate(19.000625 240.14625) rotate(-90) scale(0.2 -0.2)">
      <defs>
       <path id="DejaVuSans-70" d="M 1159 525 
L 1159 -1331 
L 581 -1331 
L 581 3500 
L 1159 3500 
L 1159 2969 
Q 1341 3281 1617 3432 
Q 1894 3584 2278 3584 
Q 2916 3584 3314 3078 
Q 3713 2572 3713 1747 
Q 3713 922 3314 415 
Q 2916 -91 2278 -91 
Q 1894 -91 1617 61 
Q 1341 213 1159 525 
z
M 3116 1747 
Q 3116 2381 2855 2742 
Q 2594 3103 2138 3103 
Q 1681 3103 1420 2742 
Q 1159 2381 1159 1747 
Q 1159 1113 1420 752 
Q 1681 391 2138 391 
Q 2594 391 2855 752 
Q 3116 1113 3116 1747 
z
" transform="scale(0.015625)"/>
       <path id="DejaVuSans-6e" d="M 3513 2113 
L 3513 0 
L 2938 0 
L 2938 2094 
Q 2938 2591 2744 2837 
Q 2550 3084 2163 3084 
Q 1697 3084 1428 2787 
Q 1159 2491 1159 1978 
L 1159 0 
L 581 0 
L 581 3500 
L 1159 3500 
L 1159 2956 
Q 1366 3272 1645 3428 
Q 1925 3584 2291 3584 
Q 2894 3584 3203 3211 
Q 3513 2838 3513 2113 
z
" transform="scale(0.015625)"/>
      </defs>
      <use xlink:href="#DejaVuSans-70"/>
      <use xlink:href="#DejaVuSans-72" x="63.476562"/>
      <use xlink:href="#DejaVuSans-6f" x="102.339844"/>
      <use xlink:href="#DejaVuSans-70" x="163.521484"/>
      <use xlink:href="#DejaVuSans-6f" x="226.998047"/>
      <use xlink:href="#DejaVuSans-72" x="288.179688"/>
      <use xlink:href="#DejaVuSans-74" x="329.292969"/>
      <use xlink:href="#DejaVuSans-69" x="368.501953"/>
      <use xlink:href="#DejaVuSans-6f" x="396.285156"/>
      <use xlink:href="#DejaVuSans-6e" x="457.466797"/>
      <use xlink:href="#DejaVuSans-20" x="520.845703"/>
      <use xlink:href="#DejaVuSans-6f" x="552.632812"/>
      <use xlink:href="#DejaVuSans-66" x="613.814453"/>
      <use xlink:href="#DejaVuSans-20" x="649.019531"/>
      <use xlink:href="#DejaVuSans-74" x="680.806641"/>
      <use xlink:href="#DejaVuSans-72" x="720.015625"/>
      <use xlink:href="#DejaVuSans-69" x="761.128906"/>
      <use xlink:href="#DejaVuSans-61" x="788.912109"/>
      <use xlink:href="#DejaVuSans-6c" x="850.191406"/>
      <use xlink:href="#DejaVuSans-73" x="877.974609"/>
     </g>
    </g>
   </g>
   <g id="line2d_56">
    <path d="M 34.16 270.565912 
L 50.078067 270.565912 
L 50.078067 269.8504 
L 62.370585 269.8504 
L 62.370585 269.134887 
L 65.355574 269.134887 
L 65.355574 268.419375 
L 70.846829 268.419375 
L 70.846829 267.703862 
L 90.61964 267.703862 
L 90.61964 266.988349 
L 91.477267 266.988349 
L 91.477267 266.272837 
L 92.803943 266.272837 
L 92.803943 265.557324 
L 97.882637 265.557324 
L 97.882637 264.841812 
L 127.389685 264.841812 
L 127.389685 264.126299 
L 129.450777 264.126299 
L 129.450777 263.410787 
L 141.743295 263.410787 
L 141.743295 262.695274 
L 144.728284 262.695274 
L 144.728284 261.979762 
L 146.908884 261.979762 
L 146.908884 261.264249 
L 150.21954 261.264249 
L 150.21954 260.548737 
L 151.067494 260.548737 
L 151.067494 259.833224 
L 158.635158 259.833224 
L 158.635158 259.117712 
L 159.342183 259.117712 
L 159.342183 258.402199 
L 162.654936 258.402199 
L 162.654936 257.686687 
L 162.793767 257.686687 
L 162.793767 256.971174 
L 163.500792 256.971174 
L 163.500792 256.255661 
L 164.258983 256.255661 
L 164.258983 255.540149 
L 165.450898 255.540149 
L 165.450898 254.824636 
L 166.298979 254.824636 
L 166.298979 254.109124 
L 166.813546 254.109124 
L 166.813546 253.393611 
L 168.417593 253.393611 
L 168.417593 252.678099 
L 169.609508 252.678099 
L 169.609508 251.962586 
L 169.99235 251.962586 
L 169.99235 251.247074 
L 170.849977 251.247074 
L 170.849977 250.531561 
L 171.374582 250.531561 
L 171.374582 249.816049 
L 172.176653 249.816049 
L 172.176653 249.100536 
L 174.704458 249.100536 
L 174.704458 248.385024 
L 175.004513 248.385024 
L 175.004513 247.669511 
L 175.14835 247.669511 
L 175.14835 246.953999 
L 175.533191 246.953999 
L 175.533191 246.238486 
L 175.997628 246.238486 
L 175.997628 245.522973 
L 177.255347 245.522973 
L 177.255347 244.807461 
L 181.701411 244.807461 
L 181.701411 244.091948 
L 181.900139 244.091948 
L 181.900139 243.376436 
L 183.284583 243.376436 
L 183.284583 242.660923 
L 187.440868 242.660923 
L 187.440868 241.945411 
L 190.305618 241.945411 
L 190.305618 241.229898 
L 190.425857 241.229898 
L 190.425857 240.514386 
L 190.605674 240.514386 
L 190.605674 239.798873 
L 191.598788 239.798873 
L 191.598788 239.083361 
L 193.265201 239.083361 
L 193.265201 238.367848 
L 195.917113 238.367848 
L 195.917113 237.652336 
L 197.302571 237.652336 
L 197.302571 236.936823 
L 197.537815 236.936823 
L 197.537815 236.22131 
L 197.783612 236.22131 
L 197.783612 235.505798 
L 199.280089 235.505798 
L 199.280089 234.790285 
L 200.335431 234.790285 
L 200.335431 234.074773 
L 201.086164 234.074773 
L 201.086164 233.35926 
L 201.555044 233.35926 
L 201.555044 232.643748 
L 201.875294 232.643748 
L 201.875294 231.928235 
L 202.735941 231.928235 
L 202.735941 231.212723 
L 205.943294 231.212723 
L 205.943294 230.49721 
L 206.243349 230.49721 
L 206.243349 229.781698 
L 206.762396 229.781698 
L 206.762396 229.066185 
L 207.081409 229.066185 
L 207.081409 228.350673 
L 207.236464 228.350673 
L 207.236464 227.63516 
L 207.355004 227.63516 
L 207.355004 226.919648 
L 208.277959 226.919648 
L 208.277959 226.204135 
L 209.847688 226.204135 
L 209.847688 225.488622 
L 210.076131 225.488622 
L 210.076131 224.77311 
L 211.240018 224.77311 
L 211.240018 224.057597 
L 212.940247 224.057597 
L 212.940247 223.342085 
L 213.06112 223.342085 
L 213.06112 222.626572 
L 213.587443 222.626572 
L 213.587443 221.91106 
L 214.22686 221.91106 
L 214.22686 221.195547 
L 215.201024 221.195547 
L 215.201024 220.480035 
L 215.689923 220.480035 
L 215.689923 219.764522 
L 216.047919 219.764522 
L 216.047919 219.04901 
L 216.35715 219.04901 
L 216.409268 217.617985 
L 216.54755 217.617985 
L 216.54755 216.902472 
L 216.683438 216.902472 
L 216.683438 216.18696 
L 216.983494 216.18696 
L 217.081669 214.755934 
L 217.156204 214.755934 
L 217.156204 214.040422 
L 217.476454 214.040422 
L 217.476454 213.324909 
L 217.874226 213.324909 
L 217.976609 211.893884 
L 218.137012 211.893884 
L 218.137012 211.178372 
L 218.307346 211.178372 
L 218.307346 210.462859 
L 218.479865 210.462859 
L 218.552375 209.031834 
L 219.768662 209.031834 
L 219.768662 208.316322 
L 220.537522 208.316322 
L 220.575698 206.885297 
L 220.98027 206.885297 
L 220.98027 206.169784 
L 221.41676 206.169784 
L 221.41676 205.454272 
L 222.390923 205.454272 
L 222.390923 204.738759 
L 222.95292 204.738759 
L 222.95292 204.023246 
L 223.680391 204.023246 
L 223.732614 202.592221 
L 224.814747 202.592221 
L 224.814747 201.876709 
L 225.114802 201.876709 
L 225.156585 199.730171 
L 225.252264 199.730171 
L 225.252264 199.014659 
L 225.721712 199.014659 
L 225.721712 198.299146 
L 225.843193 198.299146 
L 225.953133 196.868121 
L 226.107917 196.868121 
L 226.107917 196.152609 
L 226.351601 196.152609 
L 226.351601 195.437096 
L 226.660158 195.437096 
L 226.660158 194.721584 
L 226.898536 194.721584 
L 226.898536 194.006071 
L 228.285052 194.006071 
L 228.340437 192.575046 
L 228.649668 192.575046 
L 228.649668 191.859533 
L 229.104038 191.859533 
L 229.188603 190.428508 
L 229.299045 190.428508 
L 229.299045 189.712996 
L 229.972912 189.712996 
L 230.033619 188.281971 
L 230.723099 188.281971 
L 230.800327 184.704408 
L 231.096457 184.704408 
L 231.096457 183.988896 
L 231.325426 183.988896 
L 231.325426 183.273383 
L 231.576959 183.273383 
L 231.634657 181.842358 
L 231.8117 181.842358 
L 231.8117 181.126845 
L 232.06118 181.126845 
L 232.089572 179.69582 
L 232.706543 179.69582 
L 232.79388 177.549283 
L 233.002605 177.549283 
L 233.004094 176.118258 
L 233.11413 176.118258 
L 233.143033 174.687233 
L 233.413568 174.687233 
L 233.413568 173.97172 
L 233.613946 173.97172 
L 233.633585 172.540695 
L 233.757372 172.540695 
L 233.850059 171.10967 
L 233.918109 171.10967 
L 233.918109 170.394157 
L 234.053397 170.394157 
L 234.053397 169.678645 
L 234.75708 169.678645 
L 234.75708 168.963132 
L 235.046169 168.963132 
L 235.057136 167.532107 
L 235.236899 167.532107 
L 235.236899 166.816595 
L 235.657444 166.816595 
L 235.657444 166.101082 
L 236.025132 166.101082 
L 236.050251 164.670057 
L 236.228512 164.670057 
L 236.228512 163.954545 
L 236.571203 163.954545 
L 236.571203 163.239032 
L 236.726321 163.239032 
L 236.816682 161.808007 
L 236.84936 161.808007 
L 236.84936 161.092494 
L 237.125913 161.092494 
L 237.162812 159.661469 
L 237.447985 159.661469 
L 237.544782 158.230444 
L 237.626546 158.230444 
L 237.626546 157.514932 
L 237.793355 157.514932 
L 237.793355 156.799419 
L 238.15501 156.799419 
L 238.15501 156.083907 
L 238.325186 156.083907 
L 238.330369 154.652882 
L 238.692558 154.652882 
L 238.766859 153.221857 
L 239.010121 153.221857 
L 239.010121 152.506344 
L 239.182813 152.506344 
L 239.248628 150.359806 
L 239.505861 150.359806 
L 239.522284 148.928781 
L 239.934057 148.928781 
L 240.027055 146.782244 
L 240.498976 146.782244 
L 240.537425 143.920194 
L 240.731359 143.920194 
L 240.731359 143.204681 
L 240.880937 143.204681 
L 240.880937 142.489169 
L 241.467763 142.489169 
L 241.467763 141.773656 
L 241.754033 141.773656 
L 241.764129 140.342631 
L 242.019424 140.342631 
L 242.019424 139.627118 
L 242.31948 139.627118 
L 242.31948 138.911606 
L 242.773043 138.911606 
L 242.773043 138.196093 
L 243.071811 138.196093 
L 243.071811 137.480581 
L 243.312595 137.480581 
L 243.312595 136.765068 
L 243.534024 136.765068 
L 243.553641 135.334043 
L 243.653531 135.334043 
L 243.653531 134.618531 
L 243.854274 134.618531 
L 243.854274 133.903018 
L 244.263726 133.903018 
L 244.280557 132.471993 
L 244.501376 132.471993 
L 244.501376 131.756481 
L 244.633991 131.756481 
L 244.646119 130.325455 
L 244.826279 130.325455 
L 244.934046 128.89443 
L 245.3359 128.89443 
L 245.445967 127.463405 
L 245.588183 127.463405 
L 245.588183 126.747893 
L 245.882458 126.747893 
L 245.927161 125.316868 
L 246.021027 125.316868 
L 246.021027 124.601355 
L 246.202759 124.601355 
L 246.202759 123.885843 
L 246.718604 123.885843 
L 246.718604 123.17033 
L 246.905619 123.17033 
L 246.963172 121.739305 
L 247.670197 121.739305 
L 247.773947 118.877255 
L 248.999599 118.877255 
L 249.016378 117.44623 
L 249.629091 117.44623 
L 249.629091 116.730717 
L 250.054942 116.730717 
L 250.054942 116.015205 
L 250.174456 116.015205 
L 250.187409 114.58418 
L 250.684434 114.58418 
L 250.684434 113.868667 
L 250.98295 113.868667 
L 250.98295 113.153155 
L 251.630944 113.153155 
L 251.665332 111.006617 
L 251.985583 111.006617 
L 251.985583 110.291104 
L 252.355473 110.291104 
L 252.459969 107.429054 
L 252.492139 107.429054 
L 252.586998 105.998029 
L 253.084943 105.998029 
L 253.084943 105.282517 
L 253.778913 105.282517 
L 253.778913 104.567004 
L 254.79352 104.567004 
L 254.79352 103.851492 
L 255.566423 103.851492 
L 255.667143 102.420467 
L 255.680109 102.420467 
L 255.680109 101.704954 
L 256.369035 101.704954 
L 256.369035 100.989442 
L 256.482097 100.989442 
L 256.589492 99.558416 
L 256.898723 99.558416 
L 256.898723 98.842904 
L 257.074515 98.842904 
L 257.074515 98.127391 
L 257.284156 98.127391 
L 257.284156 97.411879 
L 257.447119 97.411879 
L 257.447119 96.696366 
L 257.646988 96.696366 
L 257.75635 94.549829 
L 257.967238 94.549829 
L 257.967238 93.834316 
L 258.476071 93.834316 
L 258.476071 93.118804 
L 258.773795 93.118804 
L 258.773795 92.403291 
L 259.021439 92.403291 
L 259.083026 90.972266 
L 259.702596 90.972266 
L 259.702596 90.256754 
L 259.879066 90.256754 
L 259.879066 89.541241 
L 260.201493 89.541241 
L 260.310236 88.110216 
L 261.167862 88.110216 
L 261.205742 86.679191 
L 261.455111 86.679191 
L 261.455111 85.963678 
L 261.607666 85.963678 
L 261.607666 85.248166 
L 261.927916 85.248166 
L 261.927916 84.532653 
L 262.494538 84.532653 
L 262.494538 83.817141 
L 262.63954 83.817141 
L 262.63954 83.101628 
L 263.697732 83.101628 
L 263.697732 82.386116 
L 263.852489 82.386116 
L 263.852489 81.670603 
L 264.16172 81.670603 
L 264.16172 80.955091 
L 264.274187 80.955091 
L 264.274187 80.239578 
L 264.399755 80.239578 
L 264.399755 79.524066 
L 264.920535 79.524066 
L 264.920535 78.808553 
L 265.131814 78.808553 
L 265.131814 78.09304 
L 265.550027 78.09304 
L 265.550027 77.377528 
L 265.793837 77.377528 
L 265.793837 76.662015 
L 266.056392 76.662015 
L 266.056392 75.946503 
L 266.284436 75.946503 
L 266.395152 73.799965 
L 266.45849 73.799965 
L 266.45849 73.084453 
L 266.651464 73.084453 
L 266.651464 72.36894 
L 267.109179 72.36894 
L 267.109179 71.653428 
L 267.573233 71.653428 
L 267.573233 70.937915 
L 267.97814 70.937915 
L 267.97814 70.222403 
L 268.87001 70.222403 
L 268.87001 69.50689 
L 269.190261 69.50689 
L 269.190261 68.791378 
L 269.679387 68.791378 
L 269.679387 68.075865 
L 270.216635 68.075865 
L 270.216635 67.360352 
L 271.484576 67.360352 
L 271.537184 65.929327 
L 271.804827 65.929327 
L 271.804827 65.213815 
L 272.119773 65.213815 
L 272.119773 64.498302 
L 272.637911 64.498302 
L 272.637911 63.78279 
L 273.056834 63.78279 
L 273.056834 63.067277 
L 273.640065 63.067277 
L 273.640065 62.351765 
L 274.104507 62.351765 
L 274.104507 61.636252 
L 274.399384 61.636252 
L 274.399384 60.92074 
L 275.095231 60.92074 
L 275.095231 60.205227 
L 275.240488 60.205227 
L 275.240488 59.489715 
L 276.542553 59.489715 
L 276.542553 58.774202 
L 278.088791 58.774202 
L 278.088791 58.05869 
L 278.47987 58.05869 
L 278.47987 57.343177 
L 278.823549 57.343177 
L 278.823549 56.627664 
L 279.45304 56.627664 
L 279.45304 55.912152 
L 280.902409 55.912152 
L 280.944645 54.481127 
L 281.152794 54.481127 
L 281.222143 53.050102 
L 281.589284 53.050102 
L 281.589284 52.334589 
L 282.859917 52.334589 
L 282.859917 51.619077 
L 283.516975 51.619077 
L 283.516975 50.903564 
L 285.182821 50.903564 
L 285.182821 50.188052 
L 285.894236 50.188052 
L 285.894236 49.472539 
L 288.653999 49.472539 
L 288.653999 48.757027 
L 289.631547 48.757027 
L 289.631547 48.041514 
L 290.991226 48.041514 
L 291.092046 46.610489 
L 292.445166 46.610489 
L 292.445166 45.894976 
L 293.359537 45.894976 
L 293.373041 44.463951 
L 293.668769 44.463951 
L 293.668769 43.748439 
L 294.002533 43.748439 
L 294.002533 43.032926 
L 295.059732 43.032926 
L 295.059732 42.317414 
L 295.409423 42.317414 
L 295.409423 41.601901 
L 295.791484 41.601901 
L 295.791484 40.886389 
L 296.972881 40.886389 
L 297.080281 39.455364 
L 300.106582 39.455364 
L 300.106582 38.739851 
L 300.933559 38.739851 
L 301.044232 37.308826 
L 302.563883 37.308826 
L 302.563883 36.593313 
L 305.382285 36.593313 
L 305.382285 35.877801 
L 308.195904 35.877801 
L 308.195904 35.162288 
L 310.81047 35.162288 
L 310.871616 33.731263 
L 314.952102 33.731263 
L 314.952102 33.015751 
L 317.625026 33.015751 
L 317.625026 32.300238 
L 318.061516 32.300238 
L 318.061516 31.584726 
L 318.335484 31.584726 
L 318.335484 30.869213 
L 322.366468 30.869213 
L 322.366468 30.153701 
L 331.881655 30.153701 
L 331.881655 29.438188 
L 336.578814 29.438188 
L 336.578814 28.722676 
L 340.970747 28.722676 
L 340.970747 28.007163 
L 359.235053 28.007163 
L 359.235053 27.291651 
L 359.544284 27.291651 
L 359.544284 26.576138 
L 361.667 26.576138 
L 361.667 25.860625 
L 362.955797 25.860625 
L 362.955797 25.145113 
L 366.919748 25.145113 
L 366.919748 24.4296 
L 368.439398 24.4296 
L 368.439398 23.714088 
L 453.192 23.714088 
L 453.192 23.714088 
" clip-path="url(#p60a0d975f0)" style="fill: none; stroke: #000000; stroke-width: 3; stroke-linecap: square"/>
   </g>
   <g id="line2d_57">
    <path clip-path="url(#p60a0d975f0)" style="fill: none; stroke: #000000; stroke-width: 3; stroke-linecap: square"/>
   </g>
   <g id="line2d_58">
    <path d="M 35.291182 288.453725 
L 34.16 288.453725 
L 453.192 288.453725 
L 461.8 288.453725 
" clip-path="url(#p60a0d975f0)" style="fill: none; stroke: #00bfbf; stroke-width: 3; stroke-linecap: square"/>
   </g>
   <g id="line2d_59"/>
   <g id="line2d_60"/>
   <g id="line2d_61"/>
   <g id="line2d_62">
    <path d="M 243.676 291.28 
L 243.676 3 
" clip-path="url(#p60a0d975f0)" style="fill: none; stroke: #000000; stroke-width: 1.5; stroke-linecap: square"/>
   </g>
   <g id="line2d_63">
    <path d="M 34.16 147.14 
L 453.192 147.14 
" clip-path="url(#p60a0d975f0)" style="fill: none; stroke-dasharray: 2,3.3; stroke-dashoffset: 0; stroke: #000000; stroke-width: 2"/>
   </g>
   <g id="patch_3">
    <path d="M 34.16 291.28 
L 34.16 3 
" style="fill: none; stroke: #000000; stroke-width: 0.8; stroke-linejoin: miter; stroke-linecap: square"/>
   </g>
   <g id="patch_4">
    <path d="M 453.192 291.28 
L 453.192 3 
" style="fill: none; stroke: #000000; stroke-width: 0.8; stroke-linejoin: miter; stroke-linecap: square"/>
   </g>
   <g id="patch_5">
    <path d="M 34.16 291.28 
L 453.192 291.28 
" style="fill: none; stroke: #000000; stroke-width: 0.8; stroke-linejoin: miter; stroke-linecap: square"/>
   </g>
   <g id="patch_6">
    <path d="M 34.16 3 
L 453.192 3 
" style="fill: none; stroke: #000000; stroke-width: 0.8; stroke-linejoin: miter; stroke-linecap: square"/>
   </g>
   <g id="text_5">
    <!-- f37, f38, f42, f43,5-D -->
    <g transform="translate(235.014485 285.5144) scale(0.2 -0.2)">
     <defs>
      <path id="DejaVuSans-33" d="M 2597 2516 
Q 3050 2419 3304 2112 
Q 3559 1806 3559 1356 
Q 3559 666 3084 287 
Q 2609 -91 1734 -91 
Q 1441 -91 1130 -33 
Q 819 25 488 141 
L 488 750 
Q 750 597 1062 519 
Q 1375 441 1716 441 
Q 2309 441 2620 675 
Q 2931 909 2931 1356 
Q 2931 1769 2642 2001 
Q 2353 2234 1838 2234 
L 1294 2234 
L 1294 2753 
L 1863 2753 
Q 2328 2753 2575 2939 
Q 2822 3125 2822 3475 
Q 2822 3834 2567 4026 
Q 2313 4219 1838 4219 
Q 1578 4219 1281 4162 
Q 984 4106 628 3988 
L 628 4550 
Q 988 4650 1302 4700 
Q 1616 4750 1894 4750 
Q 2613 4750 3031 4423 
Q 3450 4097 3450 3541 
Q 3450 3153 3228 2886 
Q 3006 2619 2597 2516 
z
" transform="scale(0.015625)"/>
      <path id="DejaVuSans-37" d="M 525 4666 
L 3525 4666 
L 3525 4397 
L 1831 0 
L 1172 0 
L 2766 4134 
L 525 4134 
L 525 4666 
z
" transform="scale(0.015625)"/>
      <path id="DejaVuSans-2c" d="M 750 794 
L 1409 794 
L 1409 256 
L 897 -744 
L 494 -744 
L 750 256 
L 750 794 
z
" transform="scale(0.015625)"/>
      <path id="DejaVuSans-38" d="M 2034 2216 
Q 1584 2216 1326 1975 
Q 1069 1734 1069 1313 
Q 1069 891 1326 650 
Q 1584 409 2034 409 
Q 2484 409 2743 651 
Q 3003 894 3003 1313 
Q 3003 1734 2745 1975 
Q 2488 2216 2034 2216 
z
M 1403 2484 
Q 997 2584 770 2862 
Q 544 3141 544 3541 
Q 544 4100 942 4425 
Q 1341 4750 2034 4750 
Q 2731 4750 3128 4425 
Q 3525 4100 3525 3541 
Q 3525 3141 3298 2862 
Q 3072 2584 2669 2484 
Q 3125 2378 3379 2068 
Q 3634 1759 3634 1313 
Q 3634 634 3220 271 
Q 2806 -91 2034 -91 
Q 1263 -91 848 271 
Q 434 634 434 1313 
Q 434 1759 690 2068 
Q 947 2378 1403 2484 
z
M 1172 3481 
Q 1172 3119 1398 2916 
Q 1625 2713 2034 2713 
Q 2441 2713 2670 2916 
Q 2900 3119 2900 3481 
Q 2900 3844 2670 4047 
Q 2441 4250 2034 4250 
Q 1625 4250 1398 4047 
Q 1172 3844 1172 3481 
z
" transform="scale(0.015625)"/>
      <path id="DejaVuSans-34" d="M 2419 4116 
L 825 1625 
L 2419 1625 
L 2419 4116 
z
M 2253 4666 
L 3047 4666 
L 3047 1625 
L 3713 1625 
L 3713 1100 
L 3047 1100 
L 3047 0 
L 2419 0 
L 2419 1100 
L 313 1100 
L 313 1709 
L 2253 4666 
z
" transform="scale(0.015625)"/>
      <path id="DejaVuSans-32" d="M 1228 531 
L 3431 531 
L 3431 0 
L 469 0 
L 469 531 
Q 828 903 1448 1529 
Q 2069 2156 2228 2338 
Q 2531 2678 2651 2914 
Q 2772 3150 2772 3378 
Q 2772 3750 2511 3984 
Q 2250 4219 1831 4219 
Q 1534 4219 1204 4116 
Q 875 4013 500 3803 
L 500 4441 
Q 881 4594 1212 4672 
Q 1544 4750 1819 4750 
Q 2544 4750 2975 4387 
Q 3406 4025 3406 3419 
Q 3406 3131 3298 2873 
Q 3191 2616 2906 2266 
Q 2828 2175 2409 1742 
Q 1991 1309 1228 531 
z
" transform="scale(0.015625)"/>
      <path id="DejaVuSans-35" d="M 691 4666 
L 3169 4666 
L 3169 4134 
L 1269 4134 
L 1269 2991 
Q 1406 3038 1543 3061 
Q 1681 3084 1819 3084 
Q 2600 3084 3056 2656 
Q 3513 2228 3513 1497 
Q 3513 744 3044 326 
Q 2575 -91 1722 -91 
Q 1428 -91 1123 -41 
Q 819 9 494 109 
L 494 744 
Q 775 591 1075 516 
Q 1375 441 1709 441 
Q 2250 441 2565 725 
Q 2881 1009 2881 1497 
Q 2881 1984 2565 2268 
Q 2250 2553 1709 2553 
Q 1456 2553 1204 2497 
Q 953 2441 691 2322 
L 691 4666 
z
" transform="scale(0.015625)"/>
      <path id="DejaVuSans-44" d="M 1259 4147 
L 1259 519 
L 2022 519 
Q 2988 519 3436 956 
Q 3884 1394 3884 2338 
Q 3884 3275 3436 3711 
Q 2988 4147 2022 4147 
L 1259 4147 
z
M 628 4666 
L 1925 4666 
Q 3281 4666 3915 4102 
Q 4550 3538 4550 2338 
Q 4550 1131 3912 565 
Q 3275 0 1925 0 
L 628 0 
L 628 4666 
z
" transform="scale(0.015625)"/>
     </defs>
     <use xlink:href="#DejaVuSans-66"/>
     <use xlink:href="#DejaVuSans-33" x="35.205078"/>
     <use xlink:href="#DejaVuSans-37" x="98.828125"/>
     <use xlink:href="#DejaVuSans-2c" x="162.451172"/>
     <use xlink:href="#DejaVuSans-20" x="194.238281"/>
     <use xlink:href="#DejaVuSans-66" x="226.025391"/>
     <use xlink:href="#DejaVuSans-33" x="261.230469"/>
     <use xlink:href="#DejaVuSans-38" x="324.853516"/>
     <use xlink:href="#DejaVuSans-2c" x="388.476562"/>
     <use xlink:href="#DejaVuSans-20" x="420.263672"/>
     <use xlink:href="#DejaVuSans-66" x="452.050781"/>
     <use xlink:href="#DejaVuSans-34" x="487.255859"/>
     <use xlink:href="#DejaVuSans-32" x="550.878906"/>
     <use xlink:href="#DejaVuSans-2c" x="614.501953"/>
     <use xlink:href="#DejaVuSans-20" x="646.289062"/>
     <use xlink:href="#DejaVuSans-66" x="678.076172"/>
     <use xlink:href="#DejaVuSans-34" x="713.28125"/>
     <use xlink:href="#DejaVuSans-33" x="776.904297"/>
     <use xlink:href="#DejaVuSans-2c" x="840.527344"/>
     <use xlink:href="#DejaVuSans-35" x="872.314453"/>
     <use xlink:href="#DejaVuSans-2d" x="935.9375"/>
     <use xlink:href="#DejaVuSans-44" x="972.021484"/>
    </g>
   </g>
   <g id="text_6">
    <!-- v2.6, hv-hash=39fb5e94297ca5cb -->
    <g style="fill: #808080" transform="translate(157.211156 286.317512) scale(0.1 -0.1)">
     <defs>
      <path id="DejaVuSans-2e" d="M 684 794 
L 1344 794 
L 1344 0 
L 684 0 
L 684 794 
z
" transform="scale(0.015625)"/>
      <path id="DejaVuSans-36" d="M 2113 2584 
Q 1688 2584 1439 2293 
Q 1191 2003 1191 1497 
Q 1191 994 1439 701 
Q 1688 409 2113 409 
Q 2538 409 2786 701 
Q 3034 994 3034 1497 
Q 3034 2003 2786 2293 
Q 2538 2584 2113 2584 
z
M 3366 4563 
L 3366 3988 
Q 3128 4100 2886 4159 
Q 2644 4219 2406 4219 
Q 1781 4219 1451 3797 
Q 1122 3375 1075 2522 
Q 1259 2794 1537 2939 
Q 1816 3084 2150 3084 
Q 2853 3084 3261 2657 
Q 3669 2231 3669 1497 
Q 3669 778 3244 343 
Q 2819 -91 2113 -91 
Q 1303 -91 875 529 
Q 447 1150 447 2328 
Q 447 3434 972 4092 
Q 1497 4750 2381 4750 
Q 2619 4750 2861 4703 
Q 3103 4656 3366 4563 
z
" transform="scale(0.015625)"/>
      <path id="DejaVuSans-68" d="M 3513 2113 
L 3513 0 
L 2938 0 
L 2938 2094 
Q 2938 2591 2744 2837 
Q 2550 3084 2163 3084 
Q 1697 3084 1428 2787 
Q 1159 2491 1159 1978 
L 1159 0 
L 581 0 
L 581 4863 
L 1159 4863 
L 1159 2956 
Q 1366 3272 1645 3428 
Q 1925 3584 2291 3584 
Q 2894 3584 3203 3211 
Q 3513 2838 3513 2113 
z
" transform="scale(0.015625)"/>
      <path id="DejaVuSans-3d" d="M 678 2906 
L 4684 2906 
L 4684 2381 
L 678 2381 
L 678 2906 
z
M 678 1631 
L 4684 1631 
L 4684 1100 
L 678 1100 
L 678 1631 
z
" transform="scale(0.015625)"/>
      <path id="DejaVuSans-39" d="M 703 97 
L 703 672 
Q 941 559 1184 500 
Q 1428 441 1663 441 
Q 2288 441 2617 861 
Q 2947 1281 2994 2138 
Q 2813 1869 2534 1725 
Q 2256 1581 1919 1581 
Q 1219 1581 811 2004 
Q 403 2428 403 3163 
Q 403 3881 828 4315 
Q 1253 4750 1959 4750 
Q 2769 4750 3195 4129 
Q 3622 3509 3622 2328 
Q 3622 1225 3098 567 
Q 2575 -91 1691 -91 
Q 1453 -91 1209 -44 
Q 966 3 703 97 
z
M 1959 2075 
Q 2384 2075 2632 2365 
Q 2881 2656 2881 3163 
Q 2881 3666 2632 3958 
Q 2384 4250 1959 4250 
Q 1534 4250 1286 3958 
Q 1038 3666 1038 3163 
Q 1038 2656 1286 2365 
Q 1534 2075 1959 2075 
z
" transform="scale(0.015625)"/>
      <path id="DejaVuSans-62" d="M 3116 1747 
Q 3116 2381 2855 2742 
Q 2594 3103 2138 3103 
Q 1681 3103 1420 2742 
Q 1159 2381 1159 1747 
Q 1159 1113 1420 752 
Q 1681 391 2138 391 
Q 2594 391 2855 752 
Q 3116 1113 3116 1747 
z
M 1159 2969 
Q 1341 3281 1617 3432 
Q 1894 3584 2278 3584 
Q 2916 3584 3314 3078 
Q 3713 2572 3713 1747 
Q 3713 922 3314 415 
Q 2916 -91 2278 -91 
Q 1894 -91 1617 61 
Q 1341 213 1159 525 
L 1159 0 
L 581 0 
L 581 4863 
L 1159 4863 
L 1159 2969 
z
" transform="scale(0.015625)"/>
      <path id="DejaVuSans-65" d="M 3597 1894 
L 3597 1613 
L 953 1613 
Q 991 1019 1311 708 
Q 1631 397 2203 397 
Q 2534 397 2845 478 
Q 3156 559 3463 722 
L 3463 178 
Q 3153 47 2828 -22 
Q 2503 -91 2169 -91 
Q 1331 -91 842 396 
Q 353 884 353 1716 
Q 353 2575 817 3079 
Q 1281 3584 2069 3584 
Q 2775 3584 3186 3129 
Q 3597 2675 3597 1894 
z
M 3022 2063 
Q 3016 2534 2758 2815 
Q 2500 3097 2075 3097 
Q 1594 3097 1305 2825 
Q 1016 2553 972 2059 
L 3022 2063 
z
" transform="scale(0.015625)"/>
      <path id="DejaVuSans-63" d="M 3122 3366 
L 3122 2828 
Q 2878 2963 2633 3030 
Q 2388 3097 2138 3097 
Q 1578 3097 1268 2742 
Q 959 2388 959 1747 
Q 959 1106 1268 751 
Q 1578 397 2138 397 
Q 2388 397 2633 464 
Q 2878 531 3122 666 
L 3122 134 
Q 2881 22 2623 -34 
Q 2366 -91 2075 -91 
Q 1284 -91 818 406 
Q 353 903 353 1747 
Q 353 2603 823 3093 
Q 1294 3584 2113 3584 
Q 2378 3584 2631 3529 
Q 2884 3475 3122 3366 
z
" transform="scale(0.015625)"/>
     </defs>
     <use xlink:href="#DejaVuSans-76"/>
     <use xlink:href="#DejaVuSans-32" x="59.179688"/>
     <use xlink:href="#DejaVuSans-2e" x="122.802734"/>
     <use xlink:href="#DejaVuSans-36" x="154.589844"/>
     <use xlink:href="#DejaVuSans-2c" x="218.212891"/>
     <use xlink:href="#DejaVuSans-20" x="250"/>
     <use xlink:href="#DejaVuSans-68" x="281.787109"/>
     <use xlink:href="#DejaVuSans-76" x="345.166016"/>
     <use xlink:href="#DejaVuSans-2d" x="401.720703"/>
     <use xlink:href="#DejaVuSans-68" x="437.804688"/>
     <use xlink:href="#DejaVuSans-61" x="501.183594"/>
     <use xlink:href="#DejaVuSans-73" x="562.462891"/>
     <use xlink:href="#DejaVuSans-68" x="614.5625"/>
     <use xlink:href="#DejaVuSans-3d" x="677.941406"/>
     <use xlink:href="#DejaVuSans-33" x="761.730469"/>
     <use xlink:href="#DejaVuSans-39" x="825.353516"/>
     <use xlink:href="#DejaVuSans-66" x="888.976562"/>
     <use xlink:href="#DejaVuSans-62" x="924.181641"/>
     <use xlink:href="#DejaVuSans-35" x="987.658203"/>
     <use xlink:href="#DejaVuSans-65" x="1051.28125"/>
     <use xlink:href="#DejaVuSans-39" x="1112.804688"/>
     <use xlink:href="#DejaVuSans-34" x="1176.427734"/>
     <use xlink:href="#DejaVuSans-32" x="1240.050781"/>
     <use xlink:href="#DejaVuSans-39" x="1303.673828"/>
     <use xlink:href="#DejaVuSans-37" x="1367.296875"/>
     <use xlink:href="#DejaVuSans-63" x="1430.919922"/>
     <use xlink:href="#DejaVuSans-61" x="1485.900391"/>
     <use xlink:href="#DejaVuSans-35" x="1547.179688"/>
     <use xlink:href="#DejaVuSans-63" x="1610.802734"/>
     <use xlink:href="#DejaVuSans-62" x="1665.783203"/>
    </g>
   </g>
   <g id="legend_1">
    <g id="patch_7">
     <path d="M 48.16 165.78125 
L 177.381875 165.78125 
Q 181.381875 165.78125 181.381875 161.78125 
L 181.381875 17 
Q 181.381875 13 177.381875 13 
L 48.16 13 
Q 44.16 13 44.16 17 
L 44.16 161.78125 
Q 44.16 165.78125 48.16 165.78125 
z
" style="fill: #ffffff; opacity: 0.2; stroke: #cccccc; stroke-linejoin: miter"/>
    </g>
    <g id="line2d_64">
     <path d="M 52.16 29.196875 
L 72.16 29.196875 
L 92.16 29.196875 
" style="fill: none; stroke: #000000; stroke-width: 3; stroke-linecap: square"/>
    </g>
    <g id="text_7">
     <!-- -1: 4/4 -->
     <g transform="translate(108.16 36.196875) scale(0.2 -0.2)">
      <defs>
       <path id="DejaVuSans-3a" d="M 750 794 
L 1409 794 
L 1409 0 
L 750 0 
L 750 794 
z
M 750 3309 
L 1409 3309 
L 1409 2516 
L 750 2516 
L 750 3309 
z
" transform="scale(0.015625)"/>
       <path id="DejaVuSans-2f" d="M 1625 4666 
L 2156 4666 
L 531 -594 
L 0 -594 
L 1625 4666 
z
" transform="scale(0.015625)"/>
      </defs>
      <use xlink:href="#DejaVuSans-2d"/>
      <use xlink:href="#DejaVuSans-31" x="36.083984"/>
      <use xlink:href="#DejaVuSans-3a" x="99.707031"/>
      <use xlink:href="#DejaVuSans-20" x="133.398438"/>
      <use xlink:href="#DejaVuSans-34" x="165.185547"/>
      <use xlink:href="#DejaVuSans-2f" x="228.808594"/>
      <use xlink:href="#DejaVuSans-34" x="262.5"/>
     </g>
    </g>
    <g id="line2d_65">
     <path d="M 52.16 58.553125 
L 72.16 58.553125 
L 92.16 58.553125 
" style="fill: none; stroke: #00bfbf; stroke-width: 3; stroke-linecap: square"/>
    </g>
    <g id="text_8">
     <!-- -2: 0/1 -->
     <g transform="translate(108.16 65.553125) scale(0.2 -0.2)">
      <use xlink:href="#DejaVuSans-2d"/>
      <use xlink:href="#DejaVuSans-32" x="36.083984"/>
      <use xlink:href="#DejaVuSans-3a" x="99.707031"/>
      <use xlink:href="#DejaVuSans-20" x="133.398438"/>
      <use xlink:href="#DejaVuSans-30" x="165.185547"/>
      <use xlink:href="#DejaVuSans-2f" x="228.808594"/>
      <use xlink:href="#DejaVuSans-31" x="262.5"/>
     </g>
    </g>
    <g id="line2d_66">
     <path d="M 52.16 87.909375 
L 72.16 87.909375 
L 92.16 87.909375 
" style="fill: none; stroke: #bf00bf; stroke-width: 3; stroke-linecap: square"/>
    </g>
    <g id="text_9">
     <!-- -3: 0/0 -->
     <g transform="translate(108.16 94.909375) scale(0.2 -0.2)">
      <use xlink:href="#DejaVuSans-2d"/>
      <use xlink:href="#DejaVuSans-33" x="36.083984"/>
      <use xlink:href="#DejaVuSans-3a" x="99.707031"/>
      <use xlink:href="#DejaVuSans-20" x="133.398438"/>
      <use xlink:href="#DejaVuSans-30" x="165.185547"/>
      <use xlink:href="#DejaVuSans-2f" x="228.808594"/>
      <use xlink:href="#DejaVuSans-30" x="262.5"/>
     </g>
    </g>
    <g id="line2d_67">
     <path d="M 52.16 117.265625 
L 72.16 117.265625 
L 92.16 117.265625 
" style="fill: none; stroke: #ff0000; stroke-width: 3; stroke-linecap: square"/>
    </g>
    <g id="text_10">
     <!-- -4: 0/0 -->
     <g transform="translate(108.16 124.265625) scale(0.2 -0.2)">
      <use xlink:href="#DejaVuSans-2d"/>
      <use xlink:href="#DejaVuSans-34" x="36.083984"/>
      <use xlink:href="#DejaVuSans-3a" x="99.707031"/>
      <use xlink:href="#DejaVuSans-20" x="133.398438"/>
      <use xlink:href="#DejaVuSans-30" x="165.185547"/>
      <use xlink:href="#DejaVuSans-2f" x="228.808594"/>
      <use xlink:href="#DejaVuSans-30" x="262.5"/>
     </g>
    </g>
    <g id="line2d_68">
     <path d="M 52.16 146.621875 
L 72.16 146.621875 
L 92.16 146.621875 
" style="fill: none; stroke: #0000ff; stroke-width: 3; stroke-linecap: square"/>
    </g>
    <g id="text_11">
     <!-- -5: 0/0 -->
     <g transform="translate(108.16 153.621875) scale(0.2 -0.2)">
      <use xlink:href="#DejaVuSans-2d"/>
      <use xlink:href="#DejaVuSans-35" x="36.083984"/>
      <use xlink:href="#DejaVuSans-3a" x="99.707031"/>
      <use xlink:href="#DejaVuSans-20" x="133.398438"/>
      <use xlink:href="#DejaVuSans-30" x="165.185547"/>
      <use xlink:href="#DejaVuSans-2f" x="228.808594"/>
      <use xlink:href="#DejaVuSans-30" x="262.5"/>
     </g>
    </g>
   </g>
  </g>
 </g>
 <defs>
  <clipPath id="p60a0d975f0">
   <rect x="34.16" y="3" width="419.032" height="288.28"/>
  </clipPath>
 </defs>
</svg>
