<?xml version="1.0" encoding="utf-8" standalone="no"?>
<!DOCTYPE svg PUBLIC "-//W3C//DTD SVG 1.1//EN"
  "http://www.w3.org/Graphics/SVG/1.1/DTD/svg11.dtd">
<svg xmlns:xlink="http://www.w3.org/1999/xlink" width="460.8pt" height="345.6pt" viewBox="0 0 460.8 345.6" xmlns="http://www.w3.org/2000/svg" version="1.1">
 <metadata>
  <rdf:RDF xmlns:dc="http://purl.org/dc/elements/1.1/" xmlns:cc="http://creativecommons.org/ns#" xmlns:rdf="http://www.w3.org/1999/02/22-rdf-syntax-ns#">
   <cc:Work>
    <dc:type rdf:resource="http://purl.org/dc/dcmitype/StillImage"/>
    <dc:date>2023-02-13T14:59:04.536013</dc:date>
    <dc:format>image/svg+xml</dc:format>
    <dc:creator>
     <cc:Agent>
      <dc:title>Matplotlib v3.6.3, https://matplotlib.org/</dc:title>
     </cc:Agent>
    </dc:creator>
   </cc:Work>
  </rdf:RDF>
 </metadata>
 <defs>
  <style type="text/css">*{stroke-linejoin: round; stroke-linecap: butt}</style>
 </defs>
 <g id="figure_1">
  <g id="patch_1">
   <path d="M 0 345.6 
L 460.8 345.6 
L 460.8 0 
L 0 0 
z
" style="fill: #ffffff"/>
  </g>
  <g id="axes_1">
   <g id="patch_2">
    <path d="M 34.16 291.28 
L 446.924475 291.28 
L 446.924475 3 
L 34.16 3 
z
" style="fill: #ffffff"/>
   </g>
   <g id="matplotlib.axis_1">
    <g id="xtick_1">
     <g id="line2d_1">
      <path d="M 34.249547 291.28 
L 34.249547 3 
" clip-path="url(#pf356af66db)" style="fill: none; stroke: #b0b0b0; stroke-width: 0.8; stroke-linecap: square"/>
     </g>
     <g id="line2d_2">
      <defs>
       <path id="m8d589e7f31" d="M 0 0 
L 0 3.5 
" style="stroke: #000000; stroke-width: 0.8"/>
      </defs>
      <g>
       <use xlink:href="#m8d589e7f31" x="34.249547" y="291.28" style="stroke: #000000; stroke-width: 0.8"/>
      </g>
     </g>
     <g id="text_1">
      <!-- -1 -->
      <g transform="translate(24.279235 313.476875) scale(0.2 -0.2)">
       <defs>
        <path id="DejaVuSans-2d" d="M 313 2009 
L 1997 2009 
L 1997 1497 
L 313 1497 
L 313 2009 
z
" transform="scale(0.015625)"/>
        <path id="DejaVuSans-31" d="M 794 531 
L 1825 531 
L 1825 4091 
L 703 3866 
L 703 4441 
L 1819 4666 
L 2450 4666 
L 2450 531 
L 3481 531 
L 3481 0 
L 794 0 
L 794 531 
z
" transform="scale(0.015625)"/>
       </defs>
       <use xlink:href="#DejaVuSans-2d"/>
       <use xlink:href="#DejaVuSans-31" x="36.083984"/>
      </g>
     </g>
    </g>
    <g id="xtick_2">
     <g id="line2d_3">
      <path d="M 240.542238 291.28 
L 240.542238 3 
" clip-path="url(#pf356af66db)" style="fill: none; stroke: #b0b0b0; stroke-width: 0.8; stroke-linecap: square"/>
     </g>
     <g id="line2d_4">
      <g>
       <use xlink:href="#m8d589e7f31" x="240.542238" y="291.28" style="stroke: #000000; stroke-width: 0.8"/>
      </g>
     </g>
     <g id="text_2">
      <!-- 0 -->
      <g transform="translate(234.179738 313.476875) scale(0.2 -0.2)">
       <defs>
        <path id="DejaVuSans-30" d="M 2034 4250 
Q 1547 4250 1301 3770 
Q 1056 3291 1056 2328 
Q 1056 1369 1301 889 
Q 1547 409 2034 409 
Q 2525 409 2770 889 
Q 3016 1369 3016 2328 
Q 3016 3291 2770 3770 
Q 2525 4250 2034 4250 
z
M 2034 4750 
Q 2819 4750 3233 4129 
Q 3647 3509 3647 2328 
Q 3647 1150 3233 529 
Q 2819 -91 2034 -91 
Q 1250 -91 836 529 
Q 422 1150 422 2328 
Q 422 3509 836 4129 
Q 1250 4750 2034 4750 
z
" transform="scale(0.015625)"/>
       </defs>
       <use xlink:href="#DejaVuSans-30"/>
      </g>
     </g>
    </g>
    <g id="xtick_3">
     <g id="line2d_5">
      <path d="M 446.834928 291.28 
L 446.834928 3 
" clip-path="url(#pf356af66db)" style="fill: none; stroke: #b0b0b0; stroke-width: 0.8; stroke-linecap: square"/>
     </g>
     <g id="line2d_6">
      <g>
       <use xlink:href="#m8d589e7f31" x="446.834928" y="291.28" style="stroke: #000000; stroke-width: 0.8"/>
      </g>
     </g>
     <g id="text_3">
      <!-- 1 -->
      <g transform="translate(440.472428 313.476875) scale(0.2 -0.2)">
       <use xlink:href="#DejaVuSans-31"/>
      </g>
     </g>
    </g>
    <g id="xtick_4">
     <g id="line2d_7">
      <defs>
       <path id="m3b0abdb08f" d="M 0 0 
L 0 2 
" style="stroke: #000000; stroke-width: 0.6"/>
      </defs>
      <g>
       <use xlink:href="#m3b0abdb08f" x="96.349835" y="291.28" style="stroke: #000000; stroke-width: 0.6"/>
      </g>
     </g>
    </g>
    <g id="xtick_5">
     <g id="line2d_8">
      <g>
       <use xlink:href="#m3b0abdb08f" x="132.676174" y="291.28" style="stroke: #000000; stroke-width: 0.6"/>
      </g>
     </g>
    </g>
    <g id="xtick_6">
     <g id="line2d_9">
      <g>
       <use xlink:href="#m3b0abdb08f" x="158.450123" y="291.28" style="stroke: #000000; stroke-width: 0.6"/>
      </g>
     </g>
    </g>
    <g id="xtick_7">
     <g id="line2d_10">
      <g>
       <use xlink:href="#m3b0abdb08f" x="178.44195" y="291.28" style="stroke: #000000; stroke-width: 0.6"/>
      </g>
     </g>
    </g>
    <g id="xtick_8">
     <g id="line2d_11">
      <g>
       <use xlink:href="#m3b0abdb08f" x="194.776462" y="291.28" style="stroke: #000000; stroke-width: 0.6"/>
      </g>
     </g>
    </g>
    <g id="xtick_9">
     <g id="line2d_12">
      <g>
       <use xlink:href="#m3b0abdb08f" x="208.587096" y="291.28" style="stroke: #000000; stroke-width: 0.6"/>
      </g>
     </g>
    </g>
    <g id="xtick_10">
     <g id="line2d_13">
      <g>
       <use xlink:href="#m3b0abdb08f" x="220.55041" y="291.28" style="stroke: #000000; stroke-width: 0.6"/>
      </g>
     </g>
    </g>
    <g id="xtick_11">
     <g id="line2d_14">
      <g>
       <use xlink:href="#m3b0abdb08f" x="231.102802" y="291.28" style="stroke: #000000; stroke-width: 0.6"/>
      </g>
     </g>
    </g>
    <g id="xtick_12">
     <g id="line2d_15">
      <g>
       <use xlink:href="#m3b0abdb08f" x="302.642525" y="291.28" style="stroke: #000000; stroke-width: 0.6"/>
      </g>
     </g>
    </g>
    <g id="xtick_13">
     <g id="line2d_16">
      <g>
       <use xlink:href="#m3b0abdb08f" x="338.968865" y="291.28" style="stroke: #000000; stroke-width: 0.6"/>
      </g>
     </g>
    </g>
    <g id="xtick_14">
     <g id="line2d_17">
      <g>
       <use xlink:href="#m3b0abdb08f" x="364.742813" y="291.28" style="stroke: #000000; stroke-width: 0.6"/>
      </g>
     </g>
    </g>
    <g id="xtick_15">
     <g id="line2d_18">
      <g>
       <use xlink:href="#m3b0abdb08f" x="384.73464" y="291.28" style="stroke: #000000; stroke-width: 0.6"/>
      </g>
     </g>
    </g>
    <g id="xtick_16">
     <g id="line2d_19">
      <g>
       <use xlink:href="#m3b0abdb08f" x="401.069153" y="291.28" style="stroke: #000000; stroke-width: 0.6"/>
      </g>
     </g>
    </g>
    <g id="xtick_17">
     <g id="line2d_20">
      <g>
       <use xlink:href="#m3b0abdb08f" x="414.879786" y="291.28" style="stroke: #000000; stroke-width: 0.6"/>
      </g>
     </g>
    </g>
    <g id="xtick_18">
     <g id="line2d_21">
      <g>
       <use xlink:href="#m3b0abdb08f" x="426.843101" y="291.28" style="stroke: #000000; stroke-width: 0.6"/>
      </g>
     </g>
    </g>
    <g id="xtick_19">
     <g id="line2d_22">
      <g>
       <use xlink:href="#m3b0abdb08f" x="437.395492" y="291.28" style="stroke: #000000; stroke-width: 0.6"/>
      </g>
     </g>
    </g>
    <g id="text_4">
     <!-- log10 of FEvals ratio -->
     <g transform="translate(138.23755 336.833125) scale(0.2 -0.2)">
      <defs>
       <path id="DejaVuSans-6c" d="M 603 4863 
L 1178 4863 
L 1178 0 
L 603 0 
L 603 4863 
z
" transform="scale(0.015625)"/>
       <path id="DejaVuSans-6f" d="M 1959 3097 
Q 1497 3097 1228 2736 
Q 959 2375 959 1747 
Q 959 1119 1226 758 
Q 1494 397 1959 397 
Q 2419 397 2687 759 
Q 2956 1122 2956 1747 
Q 2956 2369 2687 2733 
Q 2419 3097 1959 3097 
z
M 1959 3584 
Q 2709 3584 3137 3096 
Q 3566 2609 3566 1747 
Q 3566 888 3137 398 
Q 2709 -91 1959 -91 
Q 1206 -91 779 398 
Q 353 888 353 1747 
Q 353 2609 779 3096 
Q 1206 3584 1959 3584 
z
" transform="scale(0.015625)"/>
       <path id="DejaVuSans-67" d="M 2906 1791 
Q 2906 2416 2648 2759 
Q 2391 3103 1925 3103 
Q 1463 3103 1205 2759 
Q 947 2416 947 1791 
Q 947 1169 1205 825 
Q 1463 481 1925 481 
Q 2391 481 2648 825 
Q 2906 1169 2906 1791 
z
M 3481 434 
Q 3481 -459 3084 -895 
Q 2688 -1331 1869 -1331 
Q 1566 -1331 1297 -1286 
Q 1028 -1241 775 -1147 
L 775 -588 
Q 1028 -725 1275 -790 
Q 1522 -856 1778 -856 
Q 2344 -856 2625 -561 
Q 2906 -266 2906 331 
L 2906 616 
Q 2728 306 2450 153 
Q 2172 0 1784 0 
Q 1141 0 747 490 
Q 353 981 353 1791 
Q 353 2603 747 3093 
Q 1141 3584 1784 3584 
Q 2172 3584 2450 3431 
Q 2728 3278 2906 2969 
L 2906 3500 
L 3481 3500 
L 3481 434 
z
" transform="scale(0.015625)"/>
       <path id="DejaVuSans-20" transform="scale(0.015625)"/>
       <path id="DejaVuSans-66" d="M 2375 4863 
L 2375 4384 
L 1825 4384 
Q 1516 4384 1395 4259 
Q 1275 4134 1275 3809 
L 1275 3500 
L 2222 3500 
L 2222 3053 
L 1275 3053 
L 1275 0 
L 697 0 
L 697 3053 
L 147 3053 
L 147 3500 
L 697 3500 
L 697 3744 
Q 697 4328 969 4595 
Q 1241 4863 1831 4863 
L 2375 4863 
z
" transform="scale(0.015625)"/>
       <path id="DejaVuSans-46" d="M 628 4666 
L 3309 4666 
L 3309 4134 
L 1259 4134 
L 1259 2759 
L 3109 2759 
L 3109 2228 
L 1259 2228 
L 1259 0 
L 628 0 
L 628 4666 
z
" transform="scale(0.015625)"/>
       <path id="DejaVuSans-45" d="M 628 4666 
L 3578 4666 
L 3578 4134 
L 1259 4134 
L 1259 2753 
L 3481 2753 
L 3481 2222 
L 1259 2222 
L 1259 531 
L 3634 531 
L 3634 0 
L 628 0 
L 628 4666 
z
" transform="scale(0.015625)"/>
       <path id="DejaVuSans-76" d="M 191 3500 
L 800 3500 
L 1894 563 
L 2988 3500 
L 3597 3500 
L 2284 0 
L 1503 0 
L 191 3500 
z
" transform="scale(0.015625)"/>
       <path id="DejaVuSans-61" d="M 2194 1759 
Q 1497 1759 1228 1600 
Q 959 1441 959 1056 
Q 959 750 1161 570 
Q 1363 391 1709 391 
Q 2188 391 2477 730 
Q 2766 1069 2766 1631 
L 2766 1759 
L 2194 1759 
z
M 3341 1997 
L 3341 0 
L 2766 0 
L 2766 531 
Q 2569 213 2275 61 
Q 1981 -91 1556 -91 
Q 1019 -91 701 211 
Q 384 513 384 1019 
Q 384 1609 779 1909 
Q 1175 2209 1959 2209 
L 2766 2209 
L 2766 2266 
Q 2766 2663 2505 2880 
Q 2244 3097 1772 3097 
Q 1472 3097 1187 3025 
Q 903 2953 641 2809 
L 641 3341 
Q 956 3463 1253 3523 
Q 1550 3584 1831 3584 
Q 2591 3584 2966 3190 
Q 3341 2797 3341 1997 
z
" transform="scale(0.015625)"/>
       <path id="DejaVuSans-73" d="M 2834 3397 
L 2834 2853 
Q 2591 2978 2328 3040 
Q 2066 3103 1784 3103 
Q 1356 3103 1142 2972 
Q 928 2841 928 2578 
Q 928 2378 1081 2264 
Q 1234 2150 1697 2047 
L 1894 2003 
Q 2506 1872 2764 1633 
Q 3022 1394 3022 966 
Q 3022 478 2636 193 
Q 2250 -91 1575 -91 
Q 1294 -91 989 -36 
Q 684 19 347 128 
L 347 722 
Q 666 556 975 473 
Q 1284 391 1588 391 
Q 1994 391 2212 530 
Q 2431 669 2431 922 
Q 2431 1156 2273 1281 
Q 2116 1406 1581 1522 
L 1381 1569 
Q 847 1681 609 1914 
Q 372 2147 372 2553 
Q 372 3047 722 3315 
Q 1072 3584 1716 3584 
Q 2034 3584 2315 3537 
Q 2597 3491 2834 3397 
z
" transform="scale(0.015625)"/>
       <path id="DejaVuSans-72" d="M 2631 2963 
Q 2534 3019 2420 3045 
Q 2306 3072 2169 3072 
Q 1681 3072 1420 2755 
Q 1159 2438 1159 1844 
L 1159 0 
L 581 0 
L 581 3500 
L 1159 3500 
L 1159 2956 
Q 1341 3275 1631 3429 
Q 1922 3584 2338 3584 
Q 2397 3584 2469 3576 
Q 2541 3569 2628 3553 
L 2631 2963 
z
" transform="scale(0.015625)"/>
       <path id="DejaVuSans-74" d="M 1172 4494 
L 1172 3500 
L 2356 3500 
L 2356 3053 
L 1172 3053 
L 1172 1153 
Q 1172 725 1289 603 
Q 1406 481 1766 481 
L 2356 481 
L 2356 0 
L 1766 0 
Q 1100 0 847 248 
Q 594 497 594 1153 
L 594 3053 
L 172 3053 
L 172 3500 
L 594 3500 
L 594 4494 
L 1172 4494 
z
" transform="scale(0.015625)"/>
       <path id="DejaVuSans-69" d="M 603 3500 
L 1178 3500 
L 1178 0 
L 603 0 
L 603 3500 
z
M 603 4863 
L 1178 4863 
L 1178 4134 
L 603 4134 
L 603 4863 
z
" transform="scale(0.015625)"/>
      </defs>
      <use xlink:href="#DejaVuSans-6c"/>
      <use xlink:href="#DejaVuSans-6f" x="27.783203"/>
      <use xlink:href="#DejaVuSans-67" x="88.964844"/>
      <use xlink:href="#DejaVuSans-31" x="152.441406"/>
      <use xlink:href="#DejaVuSans-30" x="216.064453"/>
      <use xlink:href="#DejaVuSans-20" x="279.6875"/>
      <use xlink:href="#DejaVuSans-6f" x="311.474609"/>
      <use xlink:href="#DejaVuSans-66" x="372.65625"/>
      <use xlink:href="#DejaVuSans-20" x="407.861328"/>
      <use xlink:href="#DejaVuSans-46" x="439.648438"/>
      <use xlink:href="#DejaVuSans-45" x="497.167969"/>
      <use xlink:href="#DejaVuSans-76" x="560.351562"/>
      <use xlink:href="#DejaVuSans-61" x="619.53125"/>
      <use xlink:href="#DejaVuSans-6c" x="680.810547"/>
      <use xlink:href="#DejaVuSans-73" x="708.59375"/>
      <use xlink:href="#DejaVuSans-20" x="760.693359"/>
      <use xlink:href="#DejaVuSans-72" x="792.480469"/>
      <use xlink:href="#DejaVuSans-61" x="833.59375"/>
      <use xlink:href="#DejaVuSans-74" x="894.873047"/>
      <use xlink:href="#DejaVuSans-69" x="934.082031"/>
      <use xlink:href="#DejaVuSans-6f" x="961.865234"/>
     </g>
    </g>
   </g>
   <g id="matplotlib.axis_2">
    <g id="ytick_1">
     <g id="line2d_23">
      <path d="M 34.16 288.453725 
L 446.924475 288.453725 
" clip-path="url(#pf356af66db)" style="fill: none; stroke: #b0b0b0; stroke-width: 0.8; stroke-linecap: square"/>
     </g>
     <g id="line2d_24">
      <defs>
       <path id="m878d9e844b" d="M 0 0 
L -3.5 0 
" style="stroke: #000000; stroke-width: 0.8"/>
      </defs>
      <g>
       <use xlink:href="#m878d9e844b" x="34.16" y="288.453725" style="stroke: #000000; stroke-width: 0.8"/>
      </g>
     </g>
    </g>
    <g id="ytick_2">
     <g id="line2d_25">
      <path d="M 34.16 217.796863 
L 446.924475 217.796863 
" clip-path="url(#pf356af66db)" style="fill: none; stroke: #b0b0b0; stroke-width: 0.8; stroke-linecap: square"/>
     </g>
     <g id="line2d_26">
      <g>
       <use xlink:href="#m878d9e844b" x="34.16" y="217.796863" style="stroke: #000000; stroke-width: 0.8"/>
      </g>
     </g>
    </g>
    <g id="ytick_3">
     <g id="line2d_27">
      <path d="M 34.16 147.14 
L 446.924475 147.14 
" clip-path="url(#pf356af66db)" style="fill: none; stroke: #b0b0b0; stroke-width: 0.8; stroke-linecap: square"/>
     </g>
     <g id="line2d_28">
      <g>
       <use xlink:href="#m878d9e844b" x="34.16" y="147.14" style="stroke: #000000; stroke-width: 0.8"/>
      </g>
     </g>
    </g>
    <g id="ytick_4">
     <g id="line2d_29">
      <path d="M 34.16 76.483137 
L 446.924475 76.483137 
" clip-path="url(#pf356af66db)" style="fill: none; stroke: #b0b0b0; stroke-width: 0.8; stroke-linecap: square"/>
     </g>
     <g id="line2d_30">
      <g>
       <use xlink:href="#m878d9e844b" x="34.16" y="76.483137" style="stroke: #000000; stroke-width: 0.8"/>
      </g>
     </g>
    </g>
    <g id="ytick_5">
     <g id="line2d_31">
      <path d="M 34.16 5.826275 
L 446.924475 5.826275 
" clip-path="url(#pf356af66db)" style="fill: none; stroke: #b0b0b0; stroke-width: 0.8; stroke-linecap: square"/>
     </g>
     <g id="line2d_32">
      <g>
       <use xlink:href="#m878d9e844b" x="34.16" y="5.826275" style="stroke: #000000; stroke-width: 0.8"/>
      </g>
     </g>
    </g>
    <g id="text_5">
     <!-- proportion of trials -->
     <g transform="translate(19.000625 240.14625) rotate(-90) scale(0.2 -0.2)">
      <defs>
       <path id="DejaVuSans-70" d="M 1159 525 
L 1159 -1331 
L 581 -1331 
L 581 3500 
L 1159 3500 
L 1159 2969 
Q 1341 3281 1617 3432 
Q 1894 3584 2278 3584 
Q 2916 3584 3314 3078 
Q 3713 2572 3713 1747 
Q 3713 922 3314 415 
Q 2916 -91 2278 -91 
Q 1894 -91 1617 61 
Q 1341 213 1159 525 
z
M 3116 1747 
Q 3116 2381 2855 2742 
Q 2594 3103 2138 3103 
Q 1681 3103 1420 2742 
Q 1159 2381 1159 1747 
Q 1159 1113 1420 752 
Q 1681 391 2138 391 
Q 2594 391 2855 752 
Q 3116 1113 3116 1747 
z
" transform="scale(0.015625)"/>
       <path id="DejaVuSans-6e" d="M 3513 2113 
L 3513 0 
L 2938 0 
L 2938 2094 
Q 2938 2591 2744 2837 
Q 2550 3084 2163 3084 
Q 1697 3084 1428 2787 
Q 1159 2491 1159 1978 
L 1159 0 
L 581 0 
L 581 3500 
L 1159 3500 
L 1159 2956 
Q 1366 3272 1645 3428 
Q 1925 3584 2291 3584 
Q 2894 3584 3203 3211 
Q 3513 2838 3513 2113 
z
" transform="scale(0.015625)"/>
      </defs>
      <use xlink:href="#DejaVuSans-70"/>
      <use xlink:href="#DejaVuSans-72" x="63.476562"/>
      <use xlink:href="#DejaVuSans-6f" x="102.339844"/>
      <use xlink:href="#DejaVuSans-70" x="163.521484"/>
      <use xlink:href="#DejaVuSans-6f" x="226.998047"/>
      <use xlink:href="#DejaVuSans-72" x="288.179688"/>
      <use xlink:href="#DejaVuSans-74" x="329.292969"/>
      <use xlink:href="#DejaVuSans-69" x="368.501953"/>
      <use xlink:href="#DejaVuSans-6f" x="396.285156"/>
      <use xlink:href="#DejaVuSans-6e" x="457.466797"/>
      <use xlink:href="#DejaVuSans-20" x="520.845703"/>
      <use xlink:href="#DejaVuSans-6f" x="552.632812"/>
      <use xlink:href="#DejaVuSans-66" x="613.814453"/>
      <use xlink:href="#DejaVuSans-20" x="649.019531"/>
      <use xlink:href="#DejaVuSans-74" x="680.806641"/>
      <use xlink:href="#DejaVuSans-72" x="720.015625"/>
      <use xlink:href="#DejaVuSans-69" x="761.128906"/>
      <use xlink:href="#DejaVuSans-61" x="788.912109"/>
      <use xlink:href="#DejaVuSans-6c" x="850.191406"/>
      <use xlink:href="#DejaVuSans-73" x="877.974609"/>
     </g>
    </g>
   </g>
   <g id="line2d_33">
    <path d="M 34.16 288.453725 
L 147.267002 288.453725 
L 147.267002 286.883573 
L 151.337136 286.883573 
L 151.337136 285.31342 
L 154.398326 285.31342 
L 154.398326 283.743268 
L 157.068217 283.743268 
L 157.068217 282.173115 
L 164.844377 282.173115 
L 164.844377 280.602963 
L 165.310903 280.602963 
L 165.310903 279.03281 
L 170.675221 279.03281 
L 170.782187 275.892505 
L 172.161167 275.892505 
L 172.161167 274.322353 
L 172.646928 274.322353 
L 172.646928 272.7522 
L 175.060727 272.7522 
L 175.060727 271.182048 
L 175.335173 271.182048 
L 175.335173 269.611895 
L 177.806545 269.611895 
L 177.806545 268.041743 
L 178.222416 268.041743 
L 178.222416 266.47159 
L 178.394434 266.47159 
L 178.394434 264.901438 
L 180.476436 264.901438 
L 180.476436 263.331285 
L 181.43861 263.331285 
L 181.43861 261.761133 
L 185.329859 261.761133 
L 185.329859 260.19098 
L 185.978055 260.19098 
L 185.978055 258.620828 
L 186.134934 258.620828 
L 186.134934 257.050675 
L 187.068871 257.050675 
L 187.068871 255.480523 
L 187.828591 255.480523 
L 187.828591 253.91037 
L 187.973181 253.91037 
L 187.973181 252.340218 
L 188.252596 252.340218 
L 188.252596 250.770065 
L 189.211454 250.770065 
L 189.211454 249.199913 
L 189.386251 249.199913 
L 189.386251 247.62976 
L 189.910973 247.62976 
L 189.910973 246.059608 
L 191.084852 246.059608 
L 191.084852 244.489455 
L 191.525387 244.489455 
L 191.606217 241.34915 
L 192.125334 241.34915 
L 192.196183 236.638693 
L 193.038035 236.638693 
L 193.038035 235.06854 
L 193.542486 235.06854 
L 193.542486 231.928235 
L 196.159204 231.928235 
L 196.159204 230.358083 
L 196.49858 230.358083 
L 196.49858 228.78793 
L 197.667466 228.78793 
L 197.667466 227.217778 
L 198.153702 227.217778 
L 198.153702 225.647625 
L 199.419738 225.647625 
L 199.419738 224.077473 
L 200.656112 224.077473 
L 200.673402 220.937168 
L 201.147068 220.937168 
L 201.147068 219.367015 
L 202.220453 219.367015 
L 202.220453 217.796863 
L 202.395124 217.796863 
L 202.395124 216.22671 
L 204.524304 216.22671 
L 204.524304 214.656558 
L 204.846829 214.656558 
L 204.846829 213.086405 
L 205.285025 213.086405 
L 205.285025 211.516253 
L 205.510895 211.516253 
L 205.510895 209.9461 
L 206.262815 209.9461 
L 206.262815 208.375948 
L 206.851639 208.375948 
L 206.851639 206.805795 
L 207.451587 206.805795 
L 207.518 203.66549 
L 207.858011 203.66549 
L 207.954916 200.525185 
L 208.701444 200.525185 
L 208.734088 197.38488 
L 208.844602 197.38488 
L 208.868738 192.674423 
L 209.386274 192.674423 
L 209.386274 191.10427 
L 210.30609 191.10427 
L 210.397092 187.963965 
L 210.472348 187.963965 
L 210.472348 186.393813 
L 211.794015 186.393813 
L 211.794015 184.82366 
L 211.908882 184.82366 
L 211.908882 183.253508 
L 212.035151 183.253508 
L 212.102669 178.54305 
L 212.754906 178.54305 
L 212.79447 175.402745 
L 213.33479 175.402745 
L 213.393453 172.26244 
L 213.841681 172.26244 
L 213.862066 169.122135 
L 214.268807 169.122135 
L 214.268807 167.551983 
L 214.531206 167.551983 
L 214.531206 165.98183 
L 215.316545 165.98183 
L 215.316545 164.411678 
L 215.731076 164.411678 
L 215.731076 162.841525 
L 215.943631 162.841525 
L 215.999654 159.70122 
L 216.088613 159.70122 
L 216.088613 158.131068 
L 217.292168 158.131068 
L 217.292168 156.560915 
L 217.970131 156.560915 
L 217.970131 154.990763 
L 218.27876 154.990763 
L 218.298197 151.850458 
L 218.675031 151.850458 
L 218.675031 150.280305 
L 218.898144 150.280305 
L 218.964557 147.14 
L 219.37455 147.14 
L 219.37455 145.569847 
L 219.661622 145.569847 
L 219.661622 143.999695 
L 219.923315 143.999695 
L 219.923315 142.429542 
L 220.315295 142.429542 
L 220.361141 137.719085 
L 220.496618 137.719085 
L 220.496618 136.148932 
L 221.469308 136.148932 
L 221.501952 133.008627 
L 221.589068 133.008627 
L 221.589068 131.438475 
L 222.852171 131.438475 
L 222.884815 128.29817 
L 223.338498 128.29817 
L 223.338498 126.728017 
L 223.55169 126.728017 
L 223.584334 123.587712 
L 224.555287 123.587712 
L 224.555287 122.01756 
L 225.522771 122.01756 
L 225.522771 120.447407 
L 226.017722 120.447407 
L 226.017722 118.877255 
L 226.672205 118.877255 
L 226.672205 117.307102 
L 226.905634 117.307102 
L 226.905634 115.73695 
L 227.214137 115.73695 
L 227.214137 114.166797 
L 227.446211 114.166797 
L 227.446211 112.596645 
L 227.605153 112.596645 
L 227.605153 111.026492 
L 227.756733 111.026492 
L 227.756733 109.45634 
L 228.064186 109.45634 
L 228.064186 107.886187 
L 228.953149 107.886187 
L 228.953149 106.316035 
L 231.130121 106.316035 
L 231.221123 103.17573 
L 231.397893 103.17573 
L 231.397893 101.605577 
L 231.546672 101.605577 
L 231.546672 100.035425 
L 232.213249 100.035425 
L 232.213249 98.465272 
L 232.325309 98.465272 
L 232.325309 96.89512 
L 232.813196 96.89512 
L 232.87961 93.754815 
L 233.035625 93.754815 
L 233.076906 90.61451 
L 233.409665 90.61451 
L 233.409665 89.044357 
L 234.009612 89.044357 
L 234.076025 85.904052 
L 234.217483 85.904052 
L 234.230348 81.193595 
L 234.880379 81.193595 
L 234.880379 79.623442 
L 235.092838 79.623442 
L 235.202234 76.483137 
L 235.426764 76.483137 
L 235.426764 73.342832 
L 236.106363 73.342832 
L 236.106363 71.77268 
L 236.246296 71.77268 
L 236.246296 70.202527 
L 236.410613 70.202527 
L 236.410613 68.632375 
L 236.864754 68.632375 
L 236.864754 67.062222 
L 237.191369 67.062222 
L 237.282372 63.921917 
L 237.489226 63.921917 
L 237.489226 62.351765 
L 238.188745 62.351765 
L 238.199479 59.21146 
L 240.27295 59.21146 
L 240.278732 56.071155 
L 240.832051 56.071155 
L 240.832051 54.501002 
L 241.154086 54.501002 
L 241.154086 52.93085 
L 241.361264 52.93085 
L 241.361264 51.360697 
L 241.993148 51.360697 
L 241.993148 49.790545 
L 242.214914 49.790545 
L 242.214914 48.220392 
L 242.55768 48.220392 
L 242.55768 46.65024 
L 242.914433 46.65024 
L 242.914433 45.080087 
L 244.314536 45.080087 
L 244.314536 43.509935 
L 244.780122 43.509935 
L 244.780122 41.939782 
L 245.697399 41.939782 
L 245.766713 38.799477 
L 245.84477 38.799477 
L 245.84477 37.229325 
L 246.396918 37.229325 
L 246.396918 35.659172 
L 246.950678 35.659172 
L 246.950678 34.08902 
L 247.227633 34.08902 
L 247.227633 32.518867 
L 247.927152 32.518867 
L 247.927152 30.948715 
L 248.147093 30.948715 
L 248.147093 29.378562 
L 248.957262 29.378562 
L 248.989906 26.238257 
L 252.033767 26.238257 
L 252.033767 24.668105 
L 253.010724 24.668105 
L 253.010724 23.097952 
L 255.467534 23.097952 
L 255.558536 19.957647 
L 258.554897 19.957647 
L 258.554897 18.387495 
L 259.430251 18.387495 
L 259.430251 16.817342 
L 262.680715 16.817342 
L 262.680715 15.24719 
L 263.594316 15.24719 
L 263.594316 13.677037 
L 265.401367 13.677037 
L 265.401367 12.106885 
L 268.320004 12.106885 
L 268.320004 10.536732 
L 271.80249 10.536732 
L 271.80249 8.96658 
L 273.332724 8.96658 
L 273.332724 7.396427 
L 292.879848 7.396427 
L 292.879848 5.826275 
L 446.924475 5.826275 
L 446.924475 5.826275 
" clip-path="url(#pf356af66db)" style="fill: none; stroke: #000000; stroke-width: 3; stroke-linecap: square"/>
   </g>
   <g id="line2d_34">
    <path clip-path="url(#pf356af66db)" style="fill: none; stroke: #000000; stroke-width: 3; stroke-linecap: square"/>
   </g>
   <g id="line2d_35">
    <path d="M 34.16 265.713586 
L 129.44609 265.713586 
L 129.44609 264.08929 
L 132.567512 264.08929 
L 132.567512 262.464994 
L 155.369414 262.464994 
L 155.369414 260.840699 
L 158.490837 260.840699 
L 158.490837 259.216403 
L 173.112873 259.216403 
L 173.112873 257.592107 
L 174.1504 257.592107 
L 174.1504 255.967812 
L 174.304848 255.967812 
L 174.304848 254.343516 
L 177.426271 254.343516 
L 177.426271 252.71922 
L 180.602391 252.71922 
L 180.602391 251.094924 
L 183.723813 251.094924 
L 183.723813 249.470629 
L 188.671616 249.470629 
L 188.671616 247.846333 
L 191.355901 247.846333 
L 191.355901 246.222037 
L 192.355344 246.222037 
L 192.355344 244.597742 
L 193.90648 244.597742 
L 193.90648 242.973446 
L 194.477324 242.973446 
L 194.578054 239.724855 
L 197.19481 239.724855 
L 197.19481 238.100559 
L 199.036197 238.100559 
L 199.036197 236.476263 
L 202.13279 236.476263 
L 202.13279 234.851968 
L 203.572084 234.851968 
L 203.572084 233.227672 
L 205.683962 233.227672 
L 205.683962 231.603376 
L 208.466313 231.603376 
L 208.466313 229.97908 
L 209.605018 229.97908 
L 209.605018 228.354785 
L 209.790463 228.354785 
L 209.790463 226.730489 
L 210.114311 226.730489 
L 210.114311 225.106193 
L 211.12947 225.106193 
L 211.12947 223.481898 
L 211.570831 223.481898 
L 211.665447 220.233306 
L 212.337021 220.233306 
L 212.337021 218.609011 
L 212.468419 218.609011 
L 212.468419 216.984715 
L 214.953777 216.984715 
L 215.021043 213.736124 
L 215.589841 213.736124 
L 215.589841 212.111828 
L 215.74344 212.111828 
L 215.74344 210.487532 
L 217.294576 210.487532 
L 217.294576 208.863236 
L 217.96615 208.863236 
L 217.971631 205.614645 
L 219.891757 205.614645 
L 219.960792 202.366054 
L 220.582906 202.366054 
L 220.582906 200.741758 
L 221.331051 200.741758 
L 221.331051 199.117462 
L 221.476028 199.117462 
L 221.511927 195.868871 
L 221.703578 195.868871 
L 221.703578 194.244575 
L 221.976304 194.244575 
L 221.976304 192.620279 
L 222.183502 192.620279 
L 222.23184 189.371688 
L 222.948189 189.371688 
L 222.948189 187.747392 
L 223.345618 187.747392 
L 223.442929 184.498801 
L 223.52744 184.498801 
L 223.52744 182.874505 
L 223.743426 182.874505 
L 223.816019 179.625914 
L 224.199014 179.625914 
L 224.269174 176.377323 
L 224.608975 176.377323 
L 224.608975 174.753027 
L 224.800258 174.753027 
L 224.896754 171.504435 
L 225.520886 171.504435 
L 225.568328 168.255844 
L 226.060502 168.255844 
L 226.060502 166.631548 
L 226.22528 166.631548 
L 226.22528 165.007253 
L 226.732915 165.007253 
L 226.81577 160.134366 
L 226.960181 160.134366 
L 226.960181 158.51007 
L 227.363985 158.51007 
L 227.363985 156.885774 
L 227.54943 156.885774 
L 227.54943 155.261478 
L 227.80927 155.261478 
L 227.80927 153.637183 
L 228.185084 153.637183 
L 228.185084 152.012887 
L 228.324198 152.012887 
L 228.324198 150.388591 
L 229.072058 150.388591 
L 229.181924 147.14 
L 229.542259 147.14 
L 229.542259 145.515704 
L 229.738238 145.515704 
L 229.738238 143.891409 
L 229.854338 143.891409 
L 229.854338 142.267113 
L 230.930693 142.267113 
L 230.930693 140.642817 
L 231.177532 140.642817 
L 231.224587 137.394226 
L 231.463512 137.394226 
L 231.463512 135.76993 
L 231.75375 135.76993 
L 231.854409 132.521339 
L 232.805948 132.521339 
L 232.805948 130.897043 
L 232.993114 130.897043 
L 232.993114 129.272747 
L 233.123064 129.272747 
L 233.193045 124.39986 
L 233.289409 124.39986 
L 233.289409 122.775565 
L 233.522297 122.775565 
L 233.522297 121.151269 
L 234.390127 121.151269 
L 234.390127 119.526973 
L 234.562359 119.526973 
L 234.562359 117.902677 
L 234.918342 117.902677 
L 235.022684 114.654086 
L 235.304922 114.654086 
L 235.304922 113.02979 
L 235.571908 113.02979 
L 235.571908 111.405495 
L 235.711345 111.405495 
L 235.711345 109.781199 
L 235.997244 109.781199 
L 236.07176 106.532608 
L 236.427694 106.532608 
L 236.427694 104.908312 
L 236.674236 104.908312 
L 236.674236 103.284016 
L 237.210466 103.284016 
L 237.295524 100.035425 
L 237.375652 100.035425 
L 237.39591 96.786833 
L 238.039765 96.786833 
L 238.087273 93.538242 
L 238.264642 93.538242 
L 238.264642 91.913946 
L 238.898306 91.913946 
L 238.898306 90.289651 
L 239.225978 90.289651 
L 239.225978 88.665355 
L 239.411423 88.665355 
L 239.456587 85.416764 
L 240.281049 85.416764 
L 240.281049 83.792468 
L 240.595292 83.792468 
L 240.595292 82.168172 
L 240.780737 82.168172 
L 240.780737 80.543876 
L 241.803703 80.543876 
L 241.803703 78.919581 
L 242.149753 78.919581 
L 242.149753 77.295285 
L 245.745803 77.295285 
L 245.745803 75.670989 
L 245.984729 75.670989 
L 245.984729 74.046694 
L 246.146016 74.046694 
L 246.146016 72.422398 
L 247.692491 72.422398 
L 247.692491 70.798102 
L 249.051413 70.798102 
L 249.051413 69.173807 
L 252.306123 69.173807 
L 252.306123 67.549511 
L 252.441474 67.549511 
L 252.441474 65.925215 
L 255.265565 65.925215 
L 255.313275 62.676624 
L 256.135202 62.676624 
L 256.135202 61.052328 
L 258.896459 61.052328 
L 258.896459 59.428032 
L 261.163857 59.428032 
L 261.163857 57.803737 
L 262.213707 57.803737 
L 262.213707 56.179441 
L 266.827339 56.179441 
L 266.827339 54.555145 
L 268.645018 54.555145 
L 268.645018 52.93085 
L 268.883944 52.93085 
L 268.883944 51.306554 
L 269.727285 51.306554 
L 269.834491 46.433667 
L 270.399698 46.433667 
L 270.399698 44.809371 
L 271.476053 44.809371 
L 271.476053 43.185076 
L 278.585126 43.185076 
L 278.585126 41.56078 
L 283.020396 41.56078 
L 283.020396 39.936484 
L 285.112922 39.936484 
L 285.112922 38.312188 
L 289.475381 38.312188 
L 289.475381 36.687893 
L 289.726554 36.687893 
L 289.726554 35.063597 
L 291.742779 35.063597 
L 291.742779 33.439301 
L 292.685996 33.439301 
L 292.733706 30.19071 
L 299.22394 30.19071 
L 299.22394 28.566414 
L 299.462866 28.566414 
L 299.462866 26.942119 
L 315.691845 26.942119 
L 315.691845 25.317823 
L 320.305476 25.317823 
L 320.305476 23.693527 
L 323.264918 23.693527 
L 323.312628 20.444936 
L 446.924475 20.444936 
L 446.924475 20.444936 
" clip-path="url(#pf356af66db)" style="fill: none; stroke: #00bfbf; stroke-width: 3; stroke-linecap: square"/>
   </g>
   <g id="line2d_36">
    <path clip-path="url(#pf356af66db)" style="fill: none; stroke: #00bfbf; stroke-width: 3; stroke-linecap: square"/>
   </g>
   <g id="line2d_37">
    <path d="M 34.16 223.232006 
L 201.536591 223.232006 
L 201.536591 217.796863 
L 210.785195 217.796863 
L 210.785195 212.361719 
L 212.704204 212.361719 
L 212.704204 206.926576 
L 226.181074 206.926576 
L 226.181074 201.491433 
L 226.7934 201.491433 
L 226.7934 196.05629 
L 235.429678 196.05629 
L 235.429678 190.621146 
L 236.042004 190.621146 
L 236.042004 185.186003 
L 237.183543 185.186003 
L 237.183543 179.75086 
L 237.348688 179.75086 
L 237.348688 174.315716 
L 237.424338 174.315716 
L 237.424338 168.880573 
L 237.544591 168.880573 
L 237.544591 163.44543 
L 237.961013 163.44543 
L 237.961013 158.010287 
L 244.292957 158.010287 
L 244.292957 152.575143 
L 246.432147 152.575143 
L 246.432147 147.14 
L 246.672942 147.14 
L 246.672942 141.704857 
L 248.351156 141.704857 
L 248.351156 136.269713 
L 248.591951 136.269713 
L 248.591951 130.83457 
L 251.83185 130.83457 
L 251.83185 125.399427 
L 252.861879 125.399427 
L 252.861879 119.964284 
L 253.541561 119.964284 
L 253.541561 114.52914 
L 255.46057 114.52914 
L 255.46057 109.093997 
L 257.772931 109.093997 
L 257.772931 103.658854 
L 261.080454 103.658854 
L 261.080454 98.22371 
L 262.110483 98.22371 
L 262.110483 92.788567 
L 262.189074 92.788567 
L 262.189074 87.353424 
L 262.8014 87.353424 
L 262.8014 81.918281 
L 262.821534 81.918281 
L 262.821534 76.483137 
L 262.999463 76.483137 
L 262.999463 71.047994 
L 264.029492 71.047994 
L 264.029492 65.612851 
L 267.021535 65.612851 
L 267.021535 60.177707 
L 268.940544 60.177707 
L 268.940544 54.742564 
L 272.070138 54.742564 
L 272.070138 49.307421 
L 273.191543 49.307421 
L 273.191543 43.872278 
L 273.432338 43.872278 
L 273.432338 38.437134 
L 273.989147 38.437134 
L 273.989147 33.001991 
L 280.300957 33.001991 
L 280.300957 27.566848 
L 287.83985 27.566848 
L 287.83985 22.131704 
L 288.869879 22.131704 
L 288.869879 16.696561 
L 293.780931 16.696561 
L 293.780931 11.261418 
L 298.829534 11.261418 
L 298.829534 5.826275 
L 446.924475 5.826275 
" clip-path="url(#pf356af66db)" style="fill: none; stroke: #bf00bf; stroke-width: 3; stroke-linecap: square"/>
   </g>
   <g id="line2d_38">
    <path clip-path="url(#pf356af66db)" style="fill: none; stroke: #bf00bf; stroke-width: 3; stroke-linecap: square"/>
   </g>
   <g id="line2d_39">
    <path d="M 34.16 223.232006 
L 206.603779 223.232006 
L 206.603779 212.361719 
L 225.115395 212.361719 
L 225.115395 201.491433 
L 238.423061 201.491433 
L 238.423061 190.621146 
L 241.309336 190.621146 
L 241.309336 179.75086 
L 256.934677 179.75086 
L 256.934677 168.880573 
L 273.128617 168.880573 
L 273.128617 158.010287 
L 446.924475 158.010287 
" clip-path="url(#pf356af66db)" style="fill: none; stroke: #ff0000; stroke-width: 3; stroke-linecap: square"/>
   </g>
   <g id="line2d_40">
    <path clip-path="url(#pf356af66db)" style="fill: none; stroke: #ff0000; stroke-width: 3; stroke-linecap: square"/>
   </g>
   <g id="line2d_41"/>
   <g id="line2d_42">
    <path d="M 240.542238 291.28 
L 240.542238 3 
" clip-path="url(#pf356af66db)" style="fill: none; stroke: #000000; stroke-width: 1.5; stroke-linecap: square"/>
   </g>
   <g id="line2d_43">
    <path d="M 34.16 147.14 
L 446.924475 147.14 
" clip-path="url(#pf356af66db)" style="fill: none; stroke-dasharray: 2,3.3; stroke-dashoffset: 0; stroke: #000000; stroke-width: 2"/>
   </g>
   <g id="patch_3">
    <path d="M 34.16 291.28 
L 34.16 3 
" style="fill: none; stroke: #000000; stroke-width: 0.8; stroke-linejoin: miter; stroke-linecap: square"/>
   </g>
   <g id="patch_4">
    <path d="M 446.924475 291.28 
L 446.924475 3 
" style="fill: none; stroke: #000000; stroke-width: 0.8; stroke-linejoin: miter; stroke-linecap: square"/>
   </g>
   <g id="patch_5">
    <path d="M 34.16 291.28 
L 446.924475 291.28 
" style="fill: none; stroke: #000000; stroke-width: 0.8; stroke-linejoin: miter; stroke-linecap: square"/>
   </g>
   <g id="patch_6">
    <path d="M 34.16 3 
L 446.924475 3 
" style="fill: none; stroke: #000000; stroke-width: 0.8; stroke-linejoin: miter; stroke-linecap: square"/>
   </g>
   <g id="text_6">
    <!-- f3, f4, f12, f13,20-D -->
    <g transform="translate(241.597311 285.5144) scale(0.2 -0.2)">
     <defs>
      <path id="DejaVuSans-33" d="M 2597 2516 
Q 3050 2419 3304 2112 
Q 3559 1806 3559 1356 
Q 3559 666 3084 287 
Q 2609 -91 1734 -91 
Q 1441 -91 1130 -33 
Q 819 25 488 141 
L 488 750 
Q 750 597 1062 519 
Q 1375 441 1716 441 
Q 2309 441 2620 675 
Q 2931 909 2931 1356 
Q 2931 1769 2642 2001 
Q 2353 2234 1838 2234 
L 1294 2234 
L 1294 2753 
L 1863 2753 
Q 2328 2753 2575 2939 
Q 2822 3125 2822 3475 
Q 2822 3834 2567 4026 
Q 2313 4219 1838 4219 
Q 1578 4219 1281 4162 
Q 984 4106 628 3988 
L 628 4550 
Q 988 4650 1302 4700 
Q 1616 4750 1894 4750 
Q 2613 4750 3031 4423 
Q 3450 4097 3450 3541 
Q 3450 3153 3228 2886 
Q 3006 2619 2597 2516 
z
" transform="scale(0.015625)"/>
      <path id="DejaVuSans-2c" d="M 750 794 
L 1409 794 
L 1409 256 
L 897 -744 
L 494 -744 
L 750 256 
L 750 794 
z
" transform="scale(0.015625)"/>
      <path id="DejaVuSans-34" d="M 2419 4116 
L 825 1625 
L 2419 1625 
L 2419 4116 
z
M 2253 4666 
L 3047 4666 
L 3047 1625 
L 3713 1625 
L 3713 1100 
L 3047 1100 
L 3047 0 
L 2419 0 
L 2419 1100 
L 313 1100 
L 313 1709 
L 2253 4666 
z
" transform="scale(0.015625)"/>
      <path id="DejaVuSans-32" d="M 1228 531 
L 3431 531 
L 3431 0 
L 469 0 
L 469 531 
Q 828 903 1448 1529 
Q 2069 2156 2228 2338 
Q 2531 2678 2651 2914 
Q 2772 3150 2772 3378 
Q 2772 3750 2511 3984 
Q 2250 4219 1831 4219 
Q 1534 4219 1204 4116 
Q 875 4013 500 3803 
L 500 4441 
Q 881 4594 1212 4672 
Q 1544 4750 1819 4750 
Q 2544 4750 2975 4387 
Q 3406 4025 3406 3419 
Q 3406 3131 3298 2873 
Q 3191 2616 2906 2266 
Q 2828 2175 2409 1742 
Q 1991 1309 1228 531 
z
" transform="scale(0.015625)"/>
      <path id="DejaVuSans-44" d="M 1259 4147 
L 1259 519 
L 2022 519 
Q 2988 519 3436 956 
Q 3884 1394 3884 2338 
Q 3884 3275 3436 3711 
Q 2988 4147 2022 4147 
L 1259 4147 
z
M 628 4666 
L 1925 4666 
Q 3281 4666 3915 4102 
Q 4550 3538 4550 2338 
Q 4550 1131 3912 565 
Q 3275 0 1925 0 
L 628 0 
L 628 4666 
z
" transform="scale(0.015625)"/>
     </defs>
     <use xlink:href="#DejaVuSans-66"/>
     <use xlink:href="#DejaVuSans-33" x="35.205078"/>
     <use xlink:href="#DejaVuSans-2c" x="98.828125"/>
     <use xlink:href="#DejaVuSans-20" x="130.615234"/>
     <use xlink:href="#DejaVuSans-66" x="162.402344"/>
     <use xlink:href="#DejaVuSans-34" x="197.607422"/>
     <use xlink:href="#DejaVuSans-2c" x="261.230469"/>
     <use xlink:href="#DejaVuSans-20" x="293.017578"/>
     <use xlink:href="#DejaVuSans-66" x="324.804688"/>
     <use xlink:href="#DejaVuSans-31" x="360.009766"/>
     <use xlink:href="#DejaVuSans-32" x="423.632812"/>
     <use xlink:href="#DejaVuSans-2c" x="487.255859"/>
     <use xlink:href="#DejaVuSans-20" x="519.042969"/>
     <use xlink:href="#DejaVuSans-66" x="550.830078"/>
     <use xlink:href="#DejaVuSans-31" x="586.035156"/>
     <use xlink:href="#DejaVuSans-33" x="649.658203"/>
     <use xlink:href="#DejaVuSans-2c" x="713.28125"/>
     <use xlink:href="#DejaVuSans-32" x="745.068359"/>
     <use xlink:href="#DejaVuSans-30" x="808.691406"/>
     <use xlink:href="#DejaVuSans-2d" x="872.314453"/>
     <use xlink:href="#DejaVuSans-44" x="908.398438"/>
    </g>
   </g>
   <g id="text_7">
    <!-- v2.6, hv-hash=39fb5e94297ca5cb -->
    <g style="fill: #808080" transform="translate(154.077394 286.317512) scale(0.1 -0.1)">
     <defs>
      <path id="DejaVuSans-2e" d="M 684 794 
L 1344 794 
L 1344 0 
L 684 0 
L 684 794 
z
" transform="scale(0.015625)"/>
      <path id="DejaVuSans-36" d="M 2113 2584 
Q 1688 2584 1439 2293 
Q 1191 2003 1191 1497 
Q 1191 994 1439 701 
Q 1688 409 2113 409 
Q 2538 409 2786 701 
Q 3034 994 3034 1497 
Q 3034 2003 2786 2293 
Q 2538 2584 2113 2584 
z
M 3366 4563 
L 3366 3988 
Q 3128 4100 2886 4159 
Q 2644 4219 2406 4219 
Q 1781 4219 1451 3797 
Q 1122 3375 1075 2522 
Q 1259 2794 1537 2939 
Q 1816 3084 2150 3084 
Q 2853 3084 3261 2657 
Q 3669 2231 3669 1497 
Q 3669 778 3244 343 
Q 2819 -91 2113 -91 
Q 1303 -91 875 529 
Q 447 1150 447 2328 
Q 447 3434 972 4092 
Q 1497 4750 2381 4750 
Q 2619 4750 2861 4703 
Q 3103 4656 3366 4563 
z
" transform="scale(0.015625)"/>
      <path id="DejaVuSans-68" d="M 3513 2113 
L 3513 0 
L 2938 0 
L 2938 2094 
Q 2938 2591 2744 2837 
Q 2550 3084 2163 3084 
Q 1697 3084 1428 2787 
Q 1159 2491 1159 1978 
L 1159 0 
L 581 0 
L 581 4863 
L 1159 4863 
L 1159 2956 
Q 1366 3272 1645 3428 
Q 1925 3584 2291 3584 
Q 2894 3584 3203 3211 
Q 3513 2838 3513 2113 
z
" transform="scale(0.015625)"/>
      <path id="DejaVuSans-3d" d="M 678 2906 
L 4684 2906 
L 4684 2381 
L 678 2381 
L 678 2906 
z
M 678 1631 
L 4684 1631 
L 4684 1100 
L 678 1100 
L 678 1631 
z
" transform="scale(0.015625)"/>
      <path id="DejaVuSans-39" d="M 703 97 
L 703 672 
Q 941 559 1184 500 
Q 1428 441 1663 441 
Q 2288 441 2617 861 
Q 2947 1281 2994 2138 
Q 2813 1869 2534 1725 
Q 2256 1581 1919 1581 
Q 1219 1581 811 2004 
Q 403 2428 403 3163 
Q 403 3881 828 4315 
Q 1253 4750 1959 4750 
Q 2769 4750 3195 4129 
Q 3622 3509 3622 2328 
Q 3622 1225 3098 567 
Q 2575 -91 1691 -91 
Q 1453 -91 1209 -44 
Q 966 3 703 97 
z
M 1959 2075 
Q 2384 2075 2632 2365 
Q 2881 2656 2881 3163 
Q 2881 3666 2632 3958 
Q 2384 4250 1959 4250 
Q 1534 4250 1286 3958 
Q 1038 3666 1038 3163 
Q 1038 2656 1286 2365 
Q 1534 2075 1959 2075 
z
" transform="scale(0.015625)"/>
      <path id="DejaVuSans-62" d="M 3116 1747 
Q 3116 2381 2855 2742 
Q 2594 3103 2138 3103 
Q 1681 3103 1420 2742 
Q 1159 2381 1159 1747 
Q 1159 1113 1420 752 
Q 1681 391 2138 391 
Q 2594 391 2855 752 
Q 3116 1113 3116 1747 
z
M 1159 2969 
Q 1341 3281 1617 3432 
Q 1894 3584 2278 3584 
Q 2916 3584 3314 3078 
Q 3713 2572 3713 1747 
Q 3713 922 3314 415 
Q 2916 -91 2278 -91 
Q 1894 -91 1617 61 
Q 1341 213 1159 525 
L 1159 0 
L 581 0 
L 581 4863 
L 1159 4863 
L 1159 2969 
z
" transform="scale(0.015625)"/>
      <path id="DejaVuSans-35" d="M 691 4666 
L 3169 4666 
L 3169 4134 
L 1269 4134 
L 1269 2991 
Q 1406 3038 1543 3061 
Q 1681 3084 1819 3084 
Q 2600 3084 3056 2656 
Q 3513 2228 3513 1497 
Q 3513 744 3044 326 
Q 2575 -91 1722 -91 
Q 1428 -91 1123 -41 
Q 819 9 494 109 
L 494 744 
Q 775 591 1075 516 
Q 1375 441 1709 441 
Q 2250 441 2565 725 
Q 2881 1009 2881 1497 
Q 2881 1984 2565 2268 
Q 2250 2553 1709 2553 
Q 1456 2553 1204 2497 
Q 953 2441 691 2322 
L 691 4666 
z
" transform="scale(0.015625)"/>
      <path id="DejaVuSans-65" d="M 3597 1894 
L 3597 1613 
L 953 1613 
Q 991 1019 1311 708 
Q 1631 397 2203 397 
Q 2534 397 2845 478 
Q 3156 559 3463 722 
L 3463 178 
Q 3153 47 2828 -22 
Q 2503 -91 2169 -91 
Q 1331 -91 842 396 
Q 353 884 353 1716 
Q 353 2575 817 3079 
Q 1281 3584 2069 3584 
Q 2775 3584 3186 3129 
Q 3597 2675 3597 1894 
z
M 3022 2063 
Q 3016 2534 2758 2815 
Q 2500 3097 2075 3097 
Q 1594 3097 1305 2825 
Q 1016 2553 972 2059 
L 3022 2063 
z
" transform="scale(0.015625)"/>
      <path id="DejaVuSans-37" d="M 525 4666 
L 3525 4666 
L 3525 4397 
L 1831 0 
L 1172 0 
L 2766 4134 
L 525 4134 
L 525 4666 
z
" transform="scale(0.015625)"/>
      <path id="DejaVuSans-63" d="M 3122 3366 
L 3122 2828 
Q 2878 2963 2633 3030 
Q 2388 3097 2138 3097 
Q 1578 3097 1268 2742 
Q 959 2388 959 1747 
Q 959 1106 1268 751 
Q 1578 397 2138 397 
Q 2388 397 2633 464 
Q 2878 531 3122 666 
L 3122 134 
Q 2881 22 2623 -34 
Q 2366 -91 2075 -91 
Q 1284 -91 818 406 
Q 353 903 353 1747 
Q 353 2603 823 3093 
Q 1294 3584 2113 3584 
Q 2378 3584 2631 3529 
Q 2884 3475 3122 3366 
z
" transform="scale(0.015625)"/>
     </defs>
     <use xlink:href="#DejaVuSans-76"/>
     <use xlink:href="#DejaVuSans-32" x="59.179688"/>
     <use xlink:href="#DejaVuSans-2e" x="122.802734"/>
     <use xlink:href="#DejaVuSans-36" x="154.589844"/>
     <use xlink:href="#DejaVuSans-2c" x="218.212891"/>
     <use xlink:href="#DejaVuSans-20" x="250"/>
     <use xlink:href="#DejaVuSans-68" x="281.787109"/>
     <use xlink:href="#DejaVuSans-76" x="345.166016"/>
     <use xlink:href="#DejaVuSans-2d" x="401.720703"/>
     <use xlink:href="#DejaVuSans-68" x="437.804688"/>
     <use xlink:href="#DejaVuSans-61" x="501.183594"/>
     <use xlink:href="#DejaVuSans-73" x="562.462891"/>
     <use xlink:href="#DejaVuSans-68" x="614.5625"/>
     <use xlink:href="#DejaVuSans-3d" x="677.941406"/>
     <use xlink:href="#DejaVuSans-33" x="761.730469"/>
     <use xlink:href="#DejaVuSans-39" x="825.353516"/>
     <use xlink:href="#DejaVuSans-66" x="888.976562"/>
     <use xlink:href="#DejaVuSans-62" x="924.181641"/>
     <use xlink:href="#DejaVuSans-35" x="987.658203"/>
     <use xlink:href="#DejaVuSans-65" x="1051.28125"/>
     <use xlink:href="#DejaVuSans-39" x="1112.804688"/>
     <use xlink:href="#DejaVuSans-34" x="1176.427734"/>
     <use xlink:href="#DejaVuSans-32" x="1240.050781"/>
     <use xlink:href="#DejaVuSans-39" x="1303.673828"/>
     <use xlink:href="#DejaVuSans-37" x="1367.296875"/>
     <use xlink:href="#DejaVuSans-63" x="1430.919922"/>
     <use xlink:href="#DejaVuSans-61" x="1485.900391"/>
     <use xlink:href="#DejaVuSans-35" x="1547.179688"/>
     <use xlink:href="#DejaVuSans-63" x="1610.802734"/>
     <use xlink:href="#DejaVuSans-62" x="1665.783203"/>
    </g>
   </g>
   <g id="legend_1">
    <g id="patch_7">
     <path d="M 48.16 165.78125 
L 177.381875 165.78125 
Q 181.381875 165.78125 181.381875 161.78125 
L 181.381875 17 
Q 181.381875 13 177.381875 13 
L 48.16 13 
Q 44.16 13 44.16 17 
L 44.16 161.78125 
Q 44.16 165.78125 48.16 165.78125 
z
" style="fill: #ffffff; opacity: 0.2; stroke: #cccccc; stroke-linejoin: miter"/>
    </g>
    <g id="line2d_44">
     <path d="M 52.16 29.196875 
L 72.16 29.196875 
L 92.16 29.196875 
" style="fill: none; stroke: #000000; stroke-width: 3; stroke-linecap: square"/>
    </g>
    <g id="text_8">
     <!-- -1: 4/4 -->
     <g transform="translate(108.16 36.196875) scale(0.2 -0.2)">
      <defs>
       <path id="DejaVuSans-3a" d="M 750 794 
L 1409 794 
L 1409 0 
L 750 0 
L 750 794 
z
M 750 3309 
L 1409 3309 
L 1409 2516 
L 750 2516 
L 750 3309 
z
" transform="scale(0.015625)"/>
       <path id="DejaVuSans-2f" d="M 1625 4666 
L 2156 4666 
L 531 -594 
L 0 -594 
L 1625 4666 
z
" transform="scale(0.015625)"/>
      </defs>
      <use xlink:href="#DejaVuSans-2d"/>
      <use xlink:href="#DejaVuSans-31" x="36.083984"/>
      <use xlink:href="#DejaVuSans-3a" x="99.707031"/>
      <use xlink:href="#DejaVuSans-20" x="133.398438"/>
      <use xlink:href="#DejaVuSans-34" x="165.185547"/>
      <use xlink:href="#DejaVuSans-2f" x="228.808594"/>
      <use xlink:href="#DejaVuSans-34" x="262.5"/>
     </g>
    </g>
    <g id="line2d_45">
     <path d="M 52.16 58.553125 
L 72.16 58.553125 
L 92.16 58.553125 
" style="fill: none; stroke: #00bfbf; stroke-width: 3; stroke-linecap: square"/>
    </g>
    <g id="text_9">
     <!-- -2: 4/4 -->
     <g transform="translate(108.16 65.553125) scale(0.2 -0.2)">
      <use xlink:href="#DejaVuSans-2d"/>
      <use xlink:href="#DejaVuSans-32" x="36.083984"/>
      <use xlink:href="#DejaVuSans-3a" x="99.707031"/>
      <use xlink:href="#DejaVuSans-20" x="133.398438"/>
      <use xlink:href="#DejaVuSans-34" x="165.185547"/>
      <use xlink:href="#DejaVuSans-2f" x="228.808594"/>
      <use xlink:href="#DejaVuSans-34" x="262.5"/>
     </g>
    </g>
    <g id="line2d_46">
     <path d="M 52.16 87.909375 
L 72.16 87.909375 
L 92.16 87.909375 
" style="fill: none; stroke: #bf00bf; stroke-width: 3; stroke-linecap: square"/>
    </g>
    <g id="text_10">
     <!-- -3: 2/1 -->
     <g transform="translate(108.16 94.909375) scale(0.2 -0.2)">
      <use xlink:href="#DejaVuSans-2d"/>
      <use xlink:href="#DejaVuSans-33" x="36.083984"/>
      <use xlink:href="#DejaVuSans-3a" x="99.707031"/>
      <use xlink:href="#DejaVuSans-20" x="133.398438"/>
      <use xlink:href="#DejaVuSans-32" x="165.185547"/>
      <use xlink:href="#DejaVuSans-2f" x="228.808594"/>
      <use xlink:href="#DejaVuSans-31" x="262.5"/>
     </g>
    </g>
    <g id="line2d_47">
     <path d="M 52.16 117.265625 
L 72.16 117.265625 
L 92.16 117.265625 
" style="fill: none; stroke: #ff0000; stroke-width: 3; stroke-linecap: square"/>
    </g>
    <g id="text_11">
     <!-- -4: 1/1 -->
     <g transform="translate(108.16 124.265625) scale(0.2 -0.2)">
      <use xlink:href="#DejaVuSans-2d"/>
      <use xlink:href="#DejaVuSans-34" x="36.083984"/>
      <use xlink:href="#DejaVuSans-3a" x="99.707031"/>
      <use xlink:href="#DejaVuSans-20" x="133.398438"/>
      <use xlink:href="#DejaVuSans-31" x="165.185547"/>
      <use xlink:href="#DejaVuSans-2f" x="228.808594"/>
      <use xlink:href="#DejaVuSans-31" x="262.5"/>
     </g>
    </g>
    <g id="line2d_48">
     <path d="M 52.16 146.621875 
L 72.16 146.621875 
L 92.16 146.621875 
" style="fill: none; stroke: #0000ff; stroke-width: 3; stroke-linecap: square"/>
    </g>
    <g id="text_12">
     <!-- -5: 0/0 -->
     <g transform="translate(108.16 153.621875) scale(0.2 -0.2)">
      <use xlink:href="#DejaVuSans-2d"/>
      <use xlink:href="#DejaVuSans-35" x="36.083984"/>
      <use xlink:href="#DejaVuSans-3a" x="99.707031"/>
      <use xlink:href="#DejaVuSans-20" x="133.398438"/>
      <use xlink:href="#DejaVuSans-30" x="165.185547"/>
      <use xlink:href="#DejaVuSans-2f" x="228.808594"/>
      <use xlink:href="#DejaVuSans-30" x="262.5"/>
     </g>
    </g>
   </g>
  </g>
 </g>
 <defs>
  <clipPath id="pf356af66db">
   <rect x="34.16" y="3" width="412.764475" height="288.28"/>
  </clipPath>
 </defs>
</svg>
