<?xml version="1.0" encoding="utf-8" standalone="no"?>
<!DOCTYPE svg PUBLIC "-//W3C//DTD SVG 1.1//EN"
  "http://www.w3.org/Graphics/SVG/1.1/DTD/svg11.dtd">
<svg xmlns:xlink="http://www.w3.org/1999/xlink" width="460.8pt" height="345.6pt" viewBox="0 0 460.8 345.6" xmlns="http://www.w3.org/2000/svg" version="1.1">
 <metadata>
  <rdf:RDF xmlns:dc="http://purl.org/dc/elements/1.1/" xmlns:cc="http://creativecommons.org/ns#" xmlns:rdf="http://www.w3.org/1999/02/22-rdf-syntax-ns#">
   <cc:Work>
    <dc:type rdf:resource="http://purl.org/dc/dcmitype/StillImage"/>
    <dc:date>2023-02-13T15:00:00.320236</dc:date>
    <dc:format>image/svg+xml</dc:format>
    <dc:creator>
     <cc:Agent>
      <dc:title>Matplotlib v3.6.3, https://matplotlib.org/</dc:title>
     </cc:Agent>
    </dc:creator>
   </cc:Work>
  </rdf:RDF>
 </metadata>
 <defs>
  <style type="text/css">*{stroke-linejoin: round; stroke-linecap: butt}</style>
 </defs>
 <g id="figure_1">
  <g id="patch_1">
   <path d="M 0 345.6 
L 460.8 345.6 
L 460.8 0 
L 0 0 
z
" style="fill: #ffffff"/>
  </g>
  <g id="axes_1">
   <g id="patch_2">
    <path d="M 57.6 298.944 
L 360.8064 298.944 
L 360.8064 6.912 
L 57.6 6.912 
z
" style="fill: #ffffff"/>
   </g>
   <g id="line2d_1">
    <path d="M 36.933397 298.944 
L 36.933397 296.426483 
L 49.972572 296.426483 
L 49.972572 292.650207 
L 63.011746 292.650207 
L 63.011746 286.356414 
L 70.639174 286.356414 
L 70.639174 283.838897 
L 73.538988 283.838897 
L 73.538988 281.321379 
L 76.050921 281.321379 
L 76.050921 280.062621 
L 78.266603 280.062621 
L 78.266603 277.545103 
L 82.04153 277.545103 
L 82.04153 275.027586 
L 86.578163 275.027586 
L 86.578163 273.768828 
L 91.305777 273.768828 
L 91.305777 269.992552 
L 94.205591 269.992552 
L 94.205591 266.216276 
L 99.617337 266.216276 
L 99.617337 258.663724 
L 108.956085 258.663724 
L 108.956085 252.369931 
L 111.262425 252.369931 
L 111.262425 251.111172 
L 111.97238 251.111172 
L 111.97238 247.334897 
L 116.854188 247.334897 
L 116.854188 246.076138 
L 117.899543 246.076138 
L 117.899543 243.558621 
L 118.401214 243.558621 
L 118.401214 241.041103 
L 122.399825 241.041103 
L 122.399825 238.523586 
L 125.526971 238.523586 
L 125.526971 236.006069 
L 126.993549 236.006069 
L 126.993549 234.74731 
L 128.354013 234.74731 
L 128.354013 233.488552 
L 129.893363 233.488552 
L 129.893363 229.712276 
L 131.929028 229.712276 
L 131.929028 225.936 
L 137.520791 225.936 
L 137.520791 223.418483 
L 138.481218 223.418483 
L 138.481218 220.900966 
L 139.636676 220.900966 
L 139.716555 215.865931 
L 144.847227 215.865931 
L 144.847227 212.089655 
L 146.529503 212.089655 
L 146.529503 209.572138 
L 148.124658 209.572138 
L 148.124658 207.054621 
L 152.312136 207.054621 
L 152.352898 202.019586 
L 156.271636 202.019586 
L 156.271636 199.502069 
L 158.0976 199.502069 
L 158.0976 198.24331 
L 159.540912 198.24331 
L 159.540912 195.725793 
L 163.145827 195.725793 
L 163.145827 194.467034 
L 164.559567 194.467034 
L 164.559567 190.690759 
L 167.725016 190.690759 
L 167.725016 188.173241 
L 169.832482 188.173241 
L 169.832482 184.396966 
L 170.665892 184.396966 
L 170.665892 183.138207 
L 176.526006 183.138207 
L 176.526006 179.361931 
L 177.673074 179.361931 
L 177.673074 178.103172 
L 178.814141 178.103172 
L 178.814141 176.844414 
L 180.925357 176.844414 
L 180.925357 173.068138 
L 182.100381 173.068138 
L 182.100381 170.550621 
L 184.108322 170.550621 
L 184.108322 168.033103 
L 186.580694 168.033103 
L 186.580694 165.515586 
L 188.594344 165.515586 
L 188.594344 161.73931 
L 192.2139 161.73931 
L 192.26764 155.445517 
L 193.640806 155.445517 
L 193.640806 154.186759 
L 196.308553 154.186759 
L 196.308553 150.410483 
L 199.813583 150.410483 
L 199.882054 146.634207 
L 201.307498 146.634207 
L 201.307498 145.375448 
L 203.562361 145.375448 
L 203.626482 140.340414 
L 208.295624 140.340414 
L 208.295624 137.822897 
L 210.182907 137.822897 
L 210.282405 132.787862 
L 216.340128 132.787862 
L 216.340128 129.011586 
L 217.169608 129.011586 
L 217.169608 125.23531 
L 217.990172 125.23531 
L 217.990172 122.717793 
L 223.247475 122.717793 
L 223.247475 121.459034 
L 223.959413 121.459034 
L 223.959413 120.200276 
L 229.290218 120.200276 
L 229.290218 116.424 
L 229.656092 116.424 
L 229.656092 115.165241 
L 230.816855 115.165241 
L 230.816855 113.906483 
L 231.069078 113.906483 
L 231.069078 110.130207 
L 234.546933 110.130207 
L 234.546933 106.353931 
L 234.903839 106.353931 
L 234.903839 102.577655 
L 236.797977 102.577655 
L 236.797977 101.318897 
L 237.434224 101.318897 
L 237.434224 100.060138 
L 238.55916 100.060138 
L 238.55916 97.542621 
L 238.74564 97.542621 
L 238.74564 95.025103 
L 239.644992 95.025103 
L 239.644992 91.248828 
L 243.104923 91.248828 
L 243.104923 88.73131 
L 243.978818 88.73131 
L 243.978818 86.213793 
L 245.640961 86.213793 
L 245.640961 82.437517 
L 247.11399 82.437517 
L 247.222036 77.402483 
L 250.363875 77.402483 
L 250.363875 76.143724 
L 250.941484 76.143724 
L 250.941484 73.626207 
L 252.14868 73.626207 
L 252.14868 72.367448 
L 254.433486 72.367448 
L 254.433486 71.10869 
L 256.479756 71.10869 
L 256.479756 68.591172 
L 257.820504 68.591172 
L 257.820504 66.073655 
L 258.062913 66.073655 
L 258.062913 63.556138 
L 260.399444 63.556138 
L 260.399444 61.038621 
L 262.756466 61.038621 
L 262.756466 59.779862 
L 264.08838 59.779862 
L 264.08838 56.003586 
L 266.662787 56.003586 
L 266.662787 52.22731 
L 266.985345 52.22731 
L 266.985345 48.451034 
L 269.459723 48.451034 
L 269.459723 45.933517 
L 276.39497 45.933517 
L 276.39497 42.157241 
L 360.8064 42.157241 
L 360.8064 42.157241 
" style="fill: none; stroke: #f5deb3; stroke-width: 4; stroke-linecap: square"/>
   </g>
   <g id="line2d_2">
    <defs>
     <path id="mf7ce1af1e8" d="M -0 7.778175 
L 7.778175 0 
L 0 -7.778175 
L -7.778175 -0 
z
" style="stroke: #f5deb3; stroke-width: 1.5; stroke-linejoin: miter"/>
    </defs>
    <g>
     <use xlink:href="#mf7ce1af1e8" x="129.893363" y="233.488552" style="fill: #f5deb3; stroke: #f5deb3; stroke-width: 1.5; stroke-linejoin: miter"/>
     <use xlink:href="#mf7ce1af1e8" x="186.580694" y="165.515586" style="fill: #f5deb3; stroke: #f5deb3; stroke-width: 1.5; stroke-linejoin: miter"/>
     <use xlink:href="#mf7ce1af1e8" x="247.222036" y="77.402483" style="fill: #f5deb3; stroke: #f5deb3; stroke-width: 1.5; stroke-linejoin: miter"/>
     <use xlink:href="#mf7ce1af1e8" x="276.39497" y="45.933517" style="fill: #f5deb3; stroke: #f5deb3; stroke-width: 1.5; stroke-linejoin: miter"/>
     <use xlink:href="#mf7ce1af1e8" x="276.39497" y="42.157241" style="fill: #f5deb3; stroke: #f5deb3; stroke-width: 1.5; stroke-linejoin: miter"/>
     <use xlink:href="#mf7ce1af1e8" x="360.8064" y="42.157241" style="fill: #f5deb3; stroke: #f5deb3; stroke-width: 1.5; stroke-linejoin: miter"/>
    </g>
   </g>
   <g id="line2d_3">
    <path style="fill: none; stroke: #f5deb3; stroke-width: 4; stroke-linecap: square"/>
    <g/>
   </g>
   <g id="line2d_4">
    <path d="M 360.8064 42.157241 
L 380.514816 12.75264 
" style="fill: none; stroke: #f5deb3; stroke-width: 4; stroke-linecap: square"/>
    <g>
     <use xlink:href="#mf7ce1af1e8" x="360.8064" y="42.157241" style="fill: #f5deb3; stroke: #f5deb3; stroke-width: 1.5; stroke-linejoin: miter"/>
     <use xlink:href="#mf7ce1af1e8" x="380.514816" y="12.75264" style="fill: #f5deb3; stroke: #f5deb3; stroke-width: 1.5; stroke-linejoin: miter"/>
    </g>
   </g>
   <g id="matplotlib.axis_1">
    <g id="xtick_1">
     <g id="line2d_5">
      <path d="M 57.6 298.944 
L 57.6 6.912 
" clip-path="url(#p4baa49ebb1)" style="fill: none; stroke: #b0b0b0; stroke-width: 0.8; stroke-linecap: square"/>
     </g>
     <g id="line2d_6">
      <defs>
       <path id="m0705b4a221" d="M 0 0 
L 0 3.5 
" style="stroke: #000000; stroke-width: 0.8"/>
      </defs>
      <g>
       <use xlink:href="#m0705b4a221" x="57.6" y="298.944" style="stroke: #000000; stroke-width: 0.8"/>
      </g>
     </g>
     <g id="text_1">
      <!-- 0 -->
      <g transform="translate(52.191875 318.861344) scale(0.17 -0.17)">
       <defs>
        <path id="DejaVuSans-30" d="M 2034 4250 
Q 1547 4250 1301 3770 
Q 1056 3291 1056 2328 
Q 1056 1369 1301 889 
Q 1547 409 2034 409 
Q 2525 409 2770 889 
Q 3016 1369 3016 2328 
Q 3016 3291 2770 3770 
Q 2525 4250 2034 4250 
z
M 2034 4750 
Q 2819 4750 3233 4129 
Q 3647 3509 3647 2328 
Q 3647 1150 3233 529 
Q 2819 -91 2034 -91 
Q 1250 -91 836 529 
Q 422 1150 422 2328 
Q 422 3509 836 4129 
Q 1250 4750 2034 4750 
z
" transform="scale(0.015625)"/>
       </defs>
       <use xlink:href="#DejaVuSans-30"/>
      </g>
     </g>
    </g>
    <g id="xtick_2">
     <g id="line2d_7">
      <path d="M 144.2304 298.944 
L 144.2304 6.912 
" clip-path="url(#p4baa49ebb1)" style="fill: none; stroke: #b0b0b0; stroke-width: 0.8; stroke-linecap: square"/>
     </g>
     <g id="line2d_8">
      <g>
       <use xlink:href="#m0705b4a221" x="144.2304" y="298.944" style="stroke: #000000; stroke-width: 0.8"/>
      </g>
     </g>
     <g id="text_2">
      <!-- 2 -->
      <g transform="translate(138.822275 318.861344) scale(0.17 -0.17)">
       <defs>
        <path id="DejaVuSans-32" d="M 1228 531 
L 3431 531 
L 3431 0 
L 469 0 
L 469 531 
Q 828 903 1448 1529 
Q 2069 2156 2228 2338 
Q 2531 2678 2651 2914 
Q 2772 3150 2772 3378 
Q 2772 3750 2511 3984 
Q 2250 4219 1831 4219 
Q 1534 4219 1204 4116 
Q 875 4013 500 3803 
L 500 4441 
Q 881 4594 1212 4672 
Q 1544 4750 1819 4750 
Q 2544 4750 2975 4387 
Q 3406 4025 3406 3419 
Q 3406 3131 3298 2873 
Q 3191 2616 2906 2266 
Q 2828 2175 2409 1742 
Q 1991 1309 1228 531 
z
" transform="scale(0.015625)"/>
       </defs>
       <use xlink:href="#DejaVuSans-32"/>
      </g>
     </g>
    </g>
    <g id="xtick_3">
     <g id="line2d_9">
      <path d="M 230.8608 298.944 
L 230.8608 6.912 
" clip-path="url(#p4baa49ebb1)" style="fill: none; stroke: #b0b0b0; stroke-width: 0.8; stroke-linecap: square"/>
     </g>
     <g id="line2d_10">
      <g>
       <use xlink:href="#m0705b4a221" x="230.8608" y="298.944" style="stroke: #000000; stroke-width: 0.8"/>
      </g>
     </g>
     <g id="text_3">
      <!-- 4 -->
      <g transform="translate(225.452675 318.861344) scale(0.17 -0.17)">
       <defs>
        <path id="DejaVuSans-34" d="M 2419 4116 
L 825 1625 
L 2419 1625 
L 2419 4116 
z
M 2253 4666 
L 3047 4666 
L 3047 1625 
L 3713 1625 
L 3713 1100 
L 3047 1100 
L 3047 0 
L 2419 0 
L 2419 1100 
L 313 1100 
L 313 1709 
L 2253 4666 
z
" transform="scale(0.015625)"/>
       </defs>
       <use xlink:href="#DejaVuSans-34"/>
      </g>
     </g>
    </g>
    <g id="xtick_4">
     <g id="line2d_11">
      <path d="M 317.4912 298.944 
L 317.4912 6.912 
" clip-path="url(#p4baa49ebb1)" style="fill: none; stroke: #b0b0b0; stroke-width: 0.8; stroke-linecap: square"/>
     </g>
     <g id="line2d_12">
      <g>
       <use xlink:href="#m0705b4a221" x="317.4912" y="298.944" style="stroke: #000000; stroke-width: 0.8"/>
      </g>
     </g>
     <g id="text_4">
      <!-- 6 -->
      <g transform="translate(312.083075 318.861344) scale(0.17 -0.17)">
       <defs>
        <path id="DejaVuSans-36" d="M 2113 2584 
Q 1688 2584 1439 2293 
Q 1191 2003 1191 1497 
Q 1191 994 1439 701 
Q 1688 409 2113 409 
Q 2538 409 2786 701 
Q 3034 994 3034 1497 
Q 3034 2003 2786 2293 
Q 2538 2584 2113 2584 
z
M 3366 4563 
L 3366 3988 
Q 3128 4100 2886 4159 
Q 2644 4219 2406 4219 
Q 1781 4219 1451 3797 
Q 1122 3375 1075 2522 
Q 1259 2794 1537 2939 
Q 1816 3084 2150 3084 
Q 2853 3084 3261 2657 
Q 3669 2231 3669 1497 
Q 3669 778 3244 343 
Q 2819 -91 2113 -91 
Q 1303 -91 875 529 
Q 447 1150 447 2328 
Q 447 3434 972 4092 
Q 1497 4750 2381 4750 
Q 2619 4750 2861 4703 
Q 3103 4656 3366 4563 
z
" transform="scale(0.015625)"/>
       </defs>
       <use xlink:href="#DejaVuSans-36"/>
      </g>
     </g>
    </g>
    <g id="xtick_5">
     <g id="line2d_13">
      <path d="M 100.9152 298.944 
L 100.9152 6.912 
" clip-path="url(#p4baa49ebb1)" style="fill: none; stroke: #b0b0b0; stroke-width: 0.8; stroke-linecap: square"/>
     </g>
     <g id="line2d_14">
      <defs>
       <path id="m49233aa8a0" d="M 0 0 
L 0 2 
" style="stroke: #000000; stroke-width: 0.6"/>
      </defs>
      <g>
       <use xlink:href="#m49233aa8a0" x="100.9152" y="298.944" style="stroke: #000000; stroke-width: 0.6"/>
      </g>
     </g>
    </g>
    <g id="xtick_6">
     <g id="line2d_15">
      <path d="M 187.5456 298.944 
L 187.5456 6.912 
" clip-path="url(#p4baa49ebb1)" style="fill: none; stroke: #b0b0b0; stroke-width: 0.8; stroke-linecap: square"/>
     </g>
     <g id="line2d_16">
      <g>
       <use xlink:href="#m49233aa8a0" x="187.5456" y="298.944" style="stroke: #000000; stroke-width: 0.6"/>
      </g>
     </g>
    </g>
    <g id="xtick_7">
     <g id="line2d_17">
      <path d="M 274.176 298.944 
L 274.176 6.912 
" clip-path="url(#p4baa49ebb1)" style="fill: none; stroke: #b0b0b0; stroke-width: 0.8; stroke-linecap: square"/>
     </g>
     <g id="line2d_18">
      <g>
       <use xlink:href="#m49233aa8a0" x="274.176" y="298.944" style="stroke: #000000; stroke-width: 0.6"/>
      </g>
     </g>
    </g>
    <g id="xtick_8">
     <g id="line2d_19">
      <path d="M 360.8064 298.944 
L 360.8064 6.912 
" clip-path="url(#p4baa49ebb1)" style="fill: none; stroke: #b0b0b0; stroke-width: 0.8; stroke-linecap: square"/>
     </g>
     <g id="line2d_20">
      <g>
       <use xlink:href="#m49233aa8a0" x="360.8064" y="298.944" style="stroke: #000000; stroke-width: 0.6"/>
      </g>
     </g>
    </g>
    <g id="text_5">
     <!-- log10(# f-evals / dimension) -->
     <g transform="translate(88.823278 339.314156) scale(0.17 -0.17)">
      <defs>
       <path id="DejaVuSans-6c" d="M 603 4863 
L 1178 4863 
L 1178 0 
L 603 0 
L 603 4863 
z
" transform="scale(0.015625)"/>
       <path id="DejaVuSans-6f" d="M 1959 3097 
Q 1497 3097 1228 2736 
Q 959 2375 959 1747 
Q 959 1119 1226 758 
Q 1494 397 1959 397 
Q 2419 397 2687 759 
Q 2956 1122 2956 1747 
Q 2956 2369 2687 2733 
Q 2419 3097 1959 3097 
z
M 1959 3584 
Q 2709 3584 3137 3096 
Q 3566 2609 3566 1747 
Q 3566 888 3137 398 
Q 2709 -91 1959 -91 
Q 1206 -91 779 398 
Q 353 888 353 1747 
Q 353 2609 779 3096 
Q 1206 3584 1959 3584 
z
" transform="scale(0.015625)"/>
       <path id="DejaVuSans-67" d="M 2906 1791 
Q 2906 2416 2648 2759 
Q 2391 3103 1925 3103 
Q 1463 3103 1205 2759 
Q 947 2416 947 1791 
Q 947 1169 1205 825 
Q 1463 481 1925 481 
Q 2391 481 2648 825 
Q 2906 1169 2906 1791 
z
M 3481 434 
Q 3481 -459 3084 -895 
Q 2688 -1331 1869 -1331 
Q 1566 -1331 1297 -1286 
Q 1028 -1241 775 -1147 
L 775 -588 
Q 1028 -725 1275 -790 
Q 1522 -856 1778 -856 
Q 2344 -856 2625 -561 
Q 2906 -266 2906 331 
L 2906 616 
Q 2728 306 2450 153 
Q 2172 0 1784 0 
Q 1141 0 747 490 
Q 353 981 353 1791 
Q 353 2603 747 3093 
Q 1141 3584 1784 3584 
Q 2172 3584 2450 3431 
Q 2728 3278 2906 2969 
L 2906 3500 
L 3481 3500 
L 3481 434 
z
" transform="scale(0.015625)"/>
       <path id="DejaVuSans-31" d="M 794 531 
L 1825 531 
L 1825 4091 
L 703 3866 
L 703 4441 
L 1819 4666 
L 2450 4666 
L 2450 531 
L 3481 531 
L 3481 0 
L 794 0 
L 794 531 
z
" transform="scale(0.015625)"/>
       <path id="DejaVuSans-28" d="M 1984 4856 
Q 1566 4138 1362 3434 
Q 1159 2731 1159 2009 
Q 1159 1288 1364 580 
Q 1569 -128 1984 -844 
L 1484 -844 
Q 1016 -109 783 600 
Q 550 1309 550 2009 
Q 550 2706 781 3412 
Q 1013 4119 1484 4856 
L 1984 4856 
z
" transform="scale(0.015625)"/>
       <path id="DejaVuSans-23" d="M 3272 2816 
L 2363 2816 
L 2100 1772 
L 3016 1772 
L 3272 2816 
z
M 2803 4594 
L 2478 3297 
L 3391 3297 
L 3719 4594 
L 4219 4594 
L 3897 3297 
L 4872 3297 
L 4872 2816 
L 3775 2816 
L 3519 1772 
L 4513 1772 
L 4513 1294 
L 3397 1294 
L 3072 0 
L 2572 0 
L 2894 1294 
L 1978 1294 
L 1656 0 
L 1153 0 
L 1478 1294 
L 494 1294 
L 494 1772 
L 1594 1772 
L 1856 2816 
L 850 2816 
L 850 3297 
L 1978 3297 
L 2297 4594 
L 2803 4594 
z
" transform="scale(0.015625)"/>
       <path id="DejaVuSans-20" transform="scale(0.015625)"/>
       <path id="DejaVuSans-66" d="M 2375 4863 
L 2375 4384 
L 1825 4384 
Q 1516 4384 1395 4259 
Q 1275 4134 1275 3809 
L 1275 3500 
L 2222 3500 
L 2222 3053 
L 1275 3053 
L 1275 0 
L 697 0 
L 697 3053 
L 147 3053 
L 147 3500 
L 697 3500 
L 697 3744 
Q 697 4328 969 4595 
Q 1241 4863 1831 4863 
L 2375 4863 
z
" transform="scale(0.015625)"/>
       <path id="DejaVuSans-2d" d="M 313 2009 
L 1997 2009 
L 1997 1497 
L 313 1497 
L 313 2009 
z
" transform="scale(0.015625)"/>
       <path id="DejaVuSans-65" d="M 3597 1894 
L 3597 1613 
L 953 1613 
Q 991 1019 1311 708 
Q 1631 397 2203 397 
Q 2534 397 2845 478 
Q 3156 559 3463 722 
L 3463 178 
Q 3153 47 2828 -22 
Q 2503 -91 2169 -91 
Q 1331 -91 842 396 
Q 353 884 353 1716 
Q 353 2575 817 3079 
Q 1281 3584 2069 3584 
Q 2775 3584 3186 3129 
Q 3597 2675 3597 1894 
z
M 3022 2063 
Q 3016 2534 2758 2815 
Q 2500 3097 2075 3097 
Q 1594 3097 1305 2825 
Q 1016 2553 972 2059 
L 3022 2063 
z
" transform="scale(0.015625)"/>
       <path id="DejaVuSans-76" d="M 191 3500 
L 800 3500 
L 1894 563 
L 2988 3500 
L 3597 3500 
L 2284 0 
L 1503 0 
L 191 3500 
z
" transform="scale(0.015625)"/>
       <path id="DejaVuSans-61" d="M 2194 1759 
Q 1497 1759 1228 1600 
Q 959 1441 959 1056 
Q 959 750 1161 570 
Q 1363 391 1709 391 
Q 2188 391 2477 730 
Q 2766 1069 2766 1631 
L 2766 1759 
L 2194 1759 
z
M 3341 1997 
L 3341 0 
L 2766 0 
L 2766 531 
Q 2569 213 2275 61 
Q 1981 -91 1556 -91 
Q 1019 -91 701 211 
Q 384 513 384 1019 
Q 384 1609 779 1909 
Q 1175 2209 1959 2209 
L 2766 2209 
L 2766 2266 
Q 2766 2663 2505 2880 
Q 2244 3097 1772 3097 
Q 1472 3097 1187 3025 
Q 903 2953 641 2809 
L 641 3341 
Q 956 3463 1253 3523 
Q 1550 3584 1831 3584 
Q 2591 3584 2966 3190 
Q 3341 2797 3341 1997 
z
" transform="scale(0.015625)"/>
       <path id="DejaVuSans-73" d="M 2834 3397 
L 2834 2853 
Q 2591 2978 2328 3040 
Q 2066 3103 1784 3103 
Q 1356 3103 1142 2972 
Q 928 2841 928 2578 
Q 928 2378 1081 2264 
Q 1234 2150 1697 2047 
L 1894 2003 
Q 2506 1872 2764 1633 
Q 3022 1394 3022 966 
Q 3022 478 2636 193 
Q 2250 -91 1575 -91 
Q 1294 -91 989 -36 
Q 684 19 347 128 
L 347 722 
Q 666 556 975 473 
Q 1284 391 1588 391 
Q 1994 391 2212 530 
Q 2431 669 2431 922 
Q 2431 1156 2273 1281 
Q 2116 1406 1581 1522 
L 1381 1569 
Q 847 1681 609 1914 
Q 372 2147 372 2553 
Q 372 3047 722 3315 
Q 1072 3584 1716 3584 
Q 2034 3584 2315 3537 
Q 2597 3491 2834 3397 
z
" transform="scale(0.015625)"/>
       <path id="DejaVuSans-2f" d="M 1625 4666 
L 2156 4666 
L 531 -594 
L 0 -594 
L 1625 4666 
z
" transform="scale(0.015625)"/>
       <path id="DejaVuSans-64" d="M 2906 2969 
L 2906 4863 
L 3481 4863 
L 3481 0 
L 2906 0 
L 2906 525 
Q 2725 213 2448 61 
Q 2172 -91 1784 -91 
Q 1150 -91 751 415 
Q 353 922 353 1747 
Q 353 2572 751 3078 
Q 1150 3584 1784 3584 
Q 2172 3584 2448 3432 
Q 2725 3281 2906 2969 
z
M 947 1747 
Q 947 1113 1208 752 
Q 1469 391 1925 391 
Q 2381 391 2643 752 
Q 2906 1113 2906 1747 
Q 2906 2381 2643 2742 
Q 2381 3103 1925 3103 
Q 1469 3103 1208 2742 
Q 947 2381 947 1747 
z
" transform="scale(0.015625)"/>
       <path id="DejaVuSans-69" d="M 603 3500 
L 1178 3500 
L 1178 0 
L 603 0 
L 603 3500 
z
M 603 4863 
L 1178 4863 
L 1178 4134 
L 603 4134 
L 603 4863 
z
" transform="scale(0.015625)"/>
       <path id="DejaVuSans-6d" d="M 3328 2828 
Q 3544 3216 3844 3400 
Q 4144 3584 4550 3584 
Q 5097 3584 5394 3201 
Q 5691 2819 5691 2113 
L 5691 0 
L 5113 0 
L 5113 2094 
Q 5113 2597 4934 2840 
Q 4756 3084 4391 3084 
Q 3944 3084 3684 2787 
Q 3425 2491 3425 1978 
L 3425 0 
L 2847 0 
L 2847 2094 
Q 2847 2600 2669 2842 
Q 2491 3084 2119 3084 
Q 1678 3084 1418 2786 
Q 1159 2488 1159 1978 
L 1159 0 
L 581 0 
L 581 3500 
L 1159 3500 
L 1159 2956 
Q 1356 3278 1631 3431 
Q 1906 3584 2284 3584 
Q 2666 3584 2933 3390 
Q 3200 3197 3328 2828 
z
" transform="scale(0.015625)"/>
       <path id="DejaVuSans-6e" d="M 3513 2113 
L 3513 0 
L 2938 0 
L 2938 2094 
Q 2938 2591 2744 2837 
Q 2550 3084 2163 3084 
Q 1697 3084 1428 2787 
Q 1159 2491 1159 1978 
L 1159 0 
L 581 0 
L 581 3500 
L 1159 3500 
L 1159 2956 
Q 1366 3272 1645 3428 
Q 1925 3584 2291 3584 
Q 2894 3584 3203 3211 
Q 3513 2838 3513 2113 
z
" transform="scale(0.015625)"/>
       <path id="DejaVuSans-29" d="M 513 4856 
L 1013 4856 
Q 1481 4119 1714 3412 
Q 1947 2706 1947 2009 
Q 1947 1309 1714 600 
Q 1481 -109 1013 -844 
L 513 -844 
Q 928 -128 1133 580 
Q 1338 1288 1338 2009 
Q 1338 2731 1133 3434 
Q 928 4138 513 4856 
z
" transform="scale(0.015625)"/>
      </defs>
      <use xlink:href="#DejaVuSans-6c"/>
      <use xlink:href="#DejaVuSans-6f" x="27.783203"/>
      <use xlink:href="#DejaVuSans-67" x="88.964844"/>
      <use xlink:href="#DejaVuSans-31" x="152.441406"/>
      <use xlink:href="#DejaVuSans-30" x="216.064453"/>
      <use xlink:href="#DejaVuSans-28" x="279.6875"/>
      <use xlink:href="#DejaVuSans-23" x="318.701172"/>
      <use xlink:href="#DejaVuSans-20" x="402.490234"/>
      <use xlink:href="#DejaVuSans-66" x="434.277344"/>
      <use xlink:href="#DejaVuSans-2d" x="463.982422"/>
      <use xlink:href="#DejaVuSans-65" x="500.066406"/>
      <use xlink:href="#DejaVuSans-76" x="561.589844"/>
      <use xlink:href="#DejaVuSans-61" x="620.769531"/>
      <use xlink:href="#DejaVuSans-6c" x="682.048828"/>
      <use xlink:href="#DejaVuSans-73" x="709.832031"/>
      <use xlink:href="#DejaVuSans-20" x="761.931641"/>
      <use xlink:href="#DejaVuSans-2f" x="793.71875"/>
      <use xlink:href="#DejaVuSans-20" x="827.410156"/>
      <use xlink:href="#DejaVuSans-64" x="859.197266"/>
      <use xlink:href="#DejaVuSans-69" x="922.673828"/>
      <use xlink:href="#DejaVuSans-6d" x="950.457031"/>
      <use xlink:href="#DejaVuSans-65" x="1047.869141"/>
      <use xlink:href="#DejaVuSans-6e" x="1109.392578"/>
      <use xlink:href="#DejaVuSans-73" x="1172.771484"/>
      <use xlink:href="#DejaVuSans-69" x="1224.871094"/>
      <use xlink:href="#DejaVuSans-6f" x="1252.654297"/>
      <use xlink:href="#DejaVuSans-6e" x="1313.835938"/>
      <use xlink:href="#DejaVuSans-29" x="1377.214844"/>
     </g>
    </g>
   </g>
   <g id="matplotlib.axis_2">
    <g id="ytick_1">
     <g id="line2d_21">
      <path d="M 57.6 298.944 
L 360.8064 298.944 
" clip-path="url(#p4baa49ebb1)" style="fill: none; stroke: #b0b0b0; stroke-width: 0.8; stroke-linecap: square"/>
     </g>
     <g id="line2d_22">
      <defs>
       <path id="mefae7abc6a" d="M 0 0 
L -3.5 0 
" style="stroke: #000000; stroke-width: 0.8"/>
      </defs>
      <g>
       <use xlink:href="#mefae7abc6a" x="57.6" y="298.944" style="stroke: #000000; stroke-width: 0.8"/>
      </g>
     </g>
     <g id="text_6">
      <!-- 0.0 -->
      <g transform="translate(25.155 305.02275) scale(0.16 -0.16)">
       <defs>
        <path id="DejaVuSans-2e" d="M 684 794 
L 1344 794 
L 1344 0 
L 684 0 
L 684 794 
z
" transform="scale(0.015625)"/>
       </defs>
       <use xlink:href="#DejaVuSans-30"/>
       <use xlink:href="#DejaVuSans-2e" x="63.623047"/>
       <use xlink:href="#DejaVuSans-30" x="95.410156"/>
      </g>
     </g>
    </g>
    <g id="ytick_2">
     <g id="line2d_23">
      <path d="M 57.6 240.5376 
L 360.8064 240.5376 
" clip-path="url(#p4baa49ebb1)" style="fill: none; stroke: #b0b0b0; stroke-width: 0.8; stroke-linecap: square"/>
     </g>
     <g id="line2d_24">
      <g>
       <use xlink:href="#mefae7abc6a" x="57.6" y="240.5376" style="stroke: #000000; stroke-width: 0.8"/>
      </g>
     </g>
     <g id="text_7">
      <!-- 0.2 -->
      <g transform="translate(25.155 246.61635) scale(0.16 -0.16)">
       <use xlink:href="#DejaVuSans-30"/>
       <use xlink:href="#DejaVuSans-2e" x="63.623047"/>
       <use xlink:href="#DejaVuSans-32" x="95.410156"/>
      </g>
     </g>
    </g>
    <g id="ytick_3">
     <g id="line2d_25">
      <path d="M 57.6 182.1312 
L 360.8064 182.1312 
" clip-path="url(#p4baa49ebb1)" style="fill: none; stroke: #b0b0b0; stroke-width: 0.8; stroke-linecap: square"/>
     </g>
     <g id="line2d_26">
      <g>
       <use xlink:href="#mefae7abc6a" x="57.6" y="182.1312" style="stroke: #000000; stroke-width: 0.8"/>
      </g>
     </g>
     <g id="text_8">
      <!-- 0.4 -->
      <g transform="translate(25.155 188.20995) scale(0.16 -0.16)">
       <use xlink:href="#DejaVuSans-30"/>
       <use xlink:href="#DejaVuSans-2e" x="63.623047"/>
       <use xlink:href="#DejaVuSans-34" x="95.410156"/>
      </g>
     </g>
    </g>
    <g id="ytick_4">
     <g id="line2d_27">
      <path d="M 57.6 123.7248 
L 360.8064 123.7248 
" clip-path="url(#p4baa49ebb1)" style="fill: none; stroke: #b0b0b0; stroke-width: 0.8; stroke-linecap: square"/>
     </g>
     <g id="line2d_28">
      <g>
       <use xlink:href="#mefae7abc6a" x="57.6" y="123.7248" style="stroke: #000000; stroke-width: 0.8"/>
      </g>
     </g>
     <g id="text_9">
      <!-- 0.6 -->
      <g transform="translate(25.155 129.80355) scale(0.16 -0.16)">
       <use xlink:href="#DejaVuSans-30"/>
       <use xlink:href="#DejaVuSans-2e" x="63.623047"/>
       <use xlink:href="#DejaVuSans-36" x="95.410156"/>
      </g>
     </g>
    </g>
    <g id="ytick_5">
     <g id="line2d_29">
      <path d="M 57.6 65.3184 
L 360.8064 65.3184 
" clip-path="url(#p4baa49ebb1)" style="fill: none; stroke: #b0b0b0; stroke-width: 0.8; stroke-linecap: square"/>
     </g>
     <g id="line2d_30">
      <g>
       <use xlink:href="#mefae7abc6a" x="57.6" y="65.3184" style="stroke: #000000; stroke-width: 0.8"/>
      </g>
     </g>
     <g id="text_10">
      <!-- 0.8 -->
      <g transform="translate(25.155 71.39715) scale(0.16 -0.16)">
       <defs>
        <path id="DejaVuSans-38" d="M 2034 2216 
Q 1584 2216 1326 1975 
Q 1069 1734 1069 1313 
Q 1069 891 1326 650 
Q 1584 409 2034 409 
Q 2484 409 2743 651 
Q 3003 894 3003 1313 
Q 3003 1734 2745 1975 
Q 2488 2216 2034 2216 
z
M 1403 2484 
Q 997 2584 770 2862 
Q 544 3141 544 3541 
Q 544 4100 942 4425 
Q 1341 4750 2034 4750 
Q 2731 4750 3128 4425 
Q 3525 4100 3525 3541 
Q 3525 3141 3298 2862 
Q 3072 2584 2669 2484 
Q 3125 2378 3379 2068 
Q 3634 1759 3634 1313 
Q 3634 634 3220 271 
Q 2806 -91 2034 -91 
Q 1263 -91 848 271 
Q 434 634 434 1313 
Q 434 1759 690 2068 
Q 947 2378 1403 2484 
z
M 1172 3481 
Q 1172 3119 1398 2916 
Q 1625 2713 2034 2713 
Q 2441 2713 2670 2916 
Q 2900 3119 2900 3481 
Q 2900 3844 2670 4047 
Q 2441 4250 2034 4250 
Q 1625 4250 1398 4047 
Q 1172 3844 1172 3481 
z
" transform="scale(0.015625)"/>
       </defs>
       <use xlink:href="#DejaVuSans-30"/>
       <use xlink:href="#DejaVuSans-2e" x="63.623047"/>
       <use xlink:href="#DejaVuSans-38" x="95.410156"/>
      </g>
     </g>
    </g>
    <g id="ytick_6">
     <g id="line2d_31">
      <path d="M 57.6 6.912 
L 360.8064 6.912 
" clip-path="url(#p4baa49ebb1)" style="fill: none; stroke: #b0b0b0; stroke-width: 0.8; stroke-linecap: square"/>
     </g>
     <g id="line2d_32">
      <g>
       <use xlink:href="#mefae7abc6a" x="57.6" y="6.912" style="stroke: #000000; stroke-width: 0.8"/>
      </g>
     </g>
     <g id="text_11">
      <!-- 1.0 -->
      <g transform="translate(25.155 12.99075) scale(0.16 -0.16)">
       <use xlink:href="#DejaVuSans-31"/>
       <use xlink:href="#DejaVuSans-2e" x="63.623047"/>
       <use xlink:href="#DejaVuSans-30" x="95.410156"/>
      </g>
     </g>
    </g>
    <g id="text_12">
     <!-- Fraction of function,target pairs -->
     <g transform="translate(17.619531 287.313) rotate(-90) scale(0.17 -0.17)">
      <defs>
       <path id="DejaVuSans-46" d="M 628 4666 
L 3309 4666 
L 3309 4134 
L 1259 4134 
L 1259 2759 
L 3109 2759 
L 3109 2228 
L 1259 2228 
L 1259 0 
L 628 0 
L 628 4666 
z
" transform="scale(0.015625)"/>
       <path id="DejaVuSans-72" d="M 2631 2963 
Q 2534 3019 2420 3045 
Q 2306 3072 2169 3072 
Q 1681 3072 1420 2755 
Q 1159 2438 1159 1844 
L 1159 0 
L 581 0 
L 581 3500 
L 1159 3500 
L 1159 2956 
Q 1341 3275 1631 3429 
Q 1922 3584 2338 3584 
Q 2397 3584 2469 3576 
Q 2541 3569 2628 3553 
L 2631 2963 
z
" transform="scale(0.015625)"/>
       <path id="DejaVuSans-63" d="M 3122 3366 
L 3122 2828 
Q 2878 2963 2633 3030 
Q 2388 3097 2138 3097 
Q 1578 3097 1268 2742 
Q 959 2388 959 1747 
Q 959 1106 1268 751 
Q 1578 397 2138 397 
Q 2388 397 2633 464 
Q 2878 531 3122 666 
L 3122 134 
Q 2881 22 2623 -34 
Q 2366 -91 2075 -91 
Q 1284 -91 818 406 
Q 353 903 353 1747 
Q 353 2603 823 3093 
Q 1294 3584 2113 3584 
Q 2378 3584 2631 3529 
Q 2884 3475 3122 3366 
z
" transform="scale(0.015625)"/>
       <path id="DejaVuSans-74" d="M 1172 4494 
L 1172 3500 
L 2356 3500 
L 2356 3053 
L 1172 3053 
L 1172 1153 
Q 1172 725 1289 603 
Q 1406 481 1766 481 
L 2356 481 
L 2356 0 
L 1766 0 
Q 1100 0 847 248 
Q 594 497 594 1153 
L 594 3053 
L 172 3053 
L 172 3500 
L 594 3500 
L 594 4494 
L 1172 4494 
z
" transform="scale(0.015625)"/>
       <path id="DejaVuSans-75" d="M 544 1381 
L 544 3500 
L 1119 3500 
L 1119 1403 
Q 1119 906 1312 657 
Q 1506 409 1894 409 
Q 2359 409 2629 706 
Q 2900 1003 2900 1516 
L 2900 3500 
L 3475 3500 
L 3475 0 
L 2900 0 
L 2900 538 
Q 2691 219 2414 64 
Q 2138 -91 1772 -91 
Q 1169 -91 856 284 
Q 544 659 544 1381 
z
M 1991 3584 
L 1991 3584 
z
" transform="scale(0.015625)"/>
       <path id="DejaVuSans-2c" d="M 750 794 
L 1409 794 
L 1409 256 
L 897 -744 
L 494 -744 
L 750 256 
L 750 794 
z
" transform="scale(0.015625)"/>
       <path id="DejaVuSans-70" d="M 1159 525 
L 1159 -1331 
L 581 -1331 
L 581 3500 
L 1159 3500 
L 1159 2969 
Q 1341 3281 1617 3432 
Q 1894 3584 2278 3584 
Q 2916 3584 3314 3078 
Q 3713 2572 3713 1747 
Q 3713 922 3314 415 
Q 2916 -91 2278 -91 
Q 1894 -91 1617 61 
Q 1341 213 1159 525 
z
M 3116 1747 
Q 3116 2381 2855 2742 
Q 2594 3103 2138 3103 
Q 1681 3103 1420 2742 
Q 1159 2381 1159 1747 
Q 1159 1113 1420 752 
Q 1681 391 2138 391 
Q 2594 391 2855 752 
Q 3116 1113 3116 1747 
z
" transform="scale(0.015625)"/>
      </defs>
      <use xlink:href="#DejaVuSans-46"/>
      <use xlink:href="#DejaVuSans-72" x="50.269531"/>
      <use xlink:href="#DejaVuSans-61" x="91.382812"/>
      <use xlink:href="#DejaVuSans-63" x="152.662109"/>
      <use xlink:href="#DejaVuSans-74" x="207.642578"/>
      <use xlink:href="#DejaVuSans-69" x="246.851562"/>
      <use xlink:href="#DejaVuSans-6f" x="274.634766"/>
      <use xlink:href="#DejaVuSans-6e" x="335.816406"/>
      <use xlink:href="#DejaVuSans-20" x="399.195312"/>
      <use xlink:href="#DejaVuSans-6f" x="430.982422"/>
      <use xlink:href="#DejaVuSans-66" x="492.164062"/>
      <use xlink:href="#DejaVuSans-20" x="527.369141"/>
      <use xlink:href="#DejaVuSans-66" x="559.15625"/>
      <use xlink:href="#DejaVuSans-75" x="594.361328"/>
      <use xlink:href="#DejaVuSans-6e" x="657.740234"/>
      <use xlink:href="#DejaVuSans-63" x="721.119141"/>
      <use xlink:href="#DejaVuSans-74" x="776.099609"/>
      <use xlink:href="#DejaVuSans-69" x="815.308594"/>
      <use xlink:href="#DejaVuSans-6f" x="843.091797"/>
      <use xlink:href="#DejaVuSans-6e" x="904.273438"/>
      <use xlink:href="#DejaVuSans-2c" x="967.652344"/>
      <use xlink:href="#DejaVuSans-74" x="999.439453"/>
      <use xlink:href="#DejaVuSans-61" x="1038.648438"/>
      <use xlink:href="#DejaVuSans-72" x="1099.927734"/>
      <use xlink:href="#DejaVuSans-67" x="1139.291016"/>
      <use xlink:href="#DejaVuSans-65" x="1202.767578"/>
      <use xlink:href="#DejaVuSans-74" x="1264.291016"/>
      <use xlink:href="#DejaVuSans-20" x="1303.5"/>
      <use xlink:href="#DejaVuSans-70" x="1335.287109"/>
      <use xlink:href="#DejaVuSans-61" x="1398.763672"/>
      <use xlink:href="#DejaVuSans-69" x="1460.042969"/>
      <use xlink:href="#DejaVuSans-72" x="1487.826172"/>
      <use xlink:href="#DejaVuSans-73" x="1528.939453"/>
     </g>
    </g>
   </g>
   <g id="line2d_33">
    <defs>
     <path id="ma1f08ef668" d="M 0 1.5 
C 0.397805 1.5 0.77937 1.341951 1.06066 1.06066 
C 1.341951 0.77937 1.5 0.397805 1.5 0 
C 1.5 -0.397805 1.341951 -0.77937 1.06066 -1.06066 
C 0.77937 -1.341951 0.397805 -1.5 0 -1.5 
C -0.397805 -1.5 -0.77937 -1.341951 -1.06066 -1.06066 
C -1.341951 -0.77937 -1.5 -0.397805 -1.5 0 
C -1.5 0.397805 -1.341951 0.77937 -1.06066 1.06066 
C -0.77937 1.341951 -0.397805 1.5 0 1.5 
z
" style="stroke: #f5deb3"/>
    </defs>
    <g>
     <use xlink:href="#ma1f08ef668" x="276.39497" y="42.157241" style="fill: #f5deb3; stroke: #f5deb3"/>
     <use xlink:href="#ma1f08ef668" x="276.39497" y="42.157241" style="fill: #f5deb3; stroke: #f5deb3"/>
    </g>
   </g>
   <g id="line2d_34">
    <defs>
     <path id="me213757fb7" d="M 0 1.5 
C 0.397805 1.5 0.77937 1.341951 1.06066 1.06066 
C 1.341951 0.77937 1.5 0.397805 1.5 0 
C 1.5 -0.397805 1.341951 -0.77937 1.06066 -1.06066 
C 0.77937 -1.341951 0.397805 -1.5 0 -1.5 
C -0.397805 -1.5 -0.77937 -1.341951 -1.06066 -1.06066 
C -1.341951 -0.77937 -1.5 -0.397805 -1.5 0 
C -1.5 0.397805 -1.341951 0.77937 -1.06066 1.06066 
C -0.77937 1.341951 -0.397805 1.5 0 1.5 
z
" style="stroke: #000080"/>
    </defs>
    <g>
     <use xlink:href="#me213757fb7" x="207.196624" y="175.082152" style="fill: #000080; stroke: #000080"/>
     <use xlink:href="#me213757fb7" x="207.196624" y="175.082152" style="fill: #000080; stroke: #000080"/>
    </g>
   </g>
   <g id="line2d_35">
    <path d="M 36.933397 298.944 
L 36.933397 284.090648 
L 49.972572 284.090648 
L 49.972572 282.706014 
L 76.050921 282.706014 
L 76.050921 281.195503 
L 80.248597 281.195503 
L 80.248597 280.440248 
L 86.578163 280.440248 
L 86.578163 278.803862 
L 89.090095 278.803862 
L 89.090095 277.670979 
L 91.305777 277.670979 
L 91.305777 277.167476 
L 95.080704 277.167476 
L 95.080704 276.915724 
L 96.717523 276.915724 
L 96.717523 276.663972 
L 98.223251 276.663972 
L 98.223251 275.027586 
L 99.617337 275.027586 
L 99.617337 274.020579 
L 100.9152 274.020579 
L 100.9152 273.139448 
L 102.12927 273.139448 
L 102.12927 272.384193 
L 105.36204 272.384193 
L 105.36204 272.132441 
L 106.326946 272.132441 
L 106.326946 271.754814 
L 107.244765 271.754814 
L 107.244765 271.628938 
L 108.119879 271.628938 
L 108.119879 271.503062 
L 108.956085 271.503062 
L 108.956085 270.747807 
L 109.756698 270.747807 
L 109.756698 270.621931 
L 110.524623 270.621931 
L 110.524623 269.614924 
L 111.97238 269.614924 
L 111.97238 269.237297 
L 113.316634 269.237297 
L 113.316634 268.733793 
L 113.954374 268.733793 
L 113.954374 267.978538 
L 114.571202 267.978538 
L 114.571202 267.60091 
L 115.168444 267.60091 
L 115.168444 266.971531 
L 116.308887 266.971531 
L 116.308887 266.719779 
L 116.854188 266.719779 
L 116.854188 265.964524 
L 117.384126 265.964524 
L 117.384126 265.838648 
L 117.899543 265.838648 
L 117.899543 265.461021 
L 118.401214 265.461021 
L 118.401214 264.328138 
L 118.64712 264.328138 
L 118.64712 264.076386 
L 118.889854 264.076386 
L 118.889854 263.698759 
L 119.366121 263.698759 
L 119.366121 263.195255 
L 119.830627 263.195255 
L 119.830627 262.817628 
L 120.28394 262.817628 
L 120.28394 262.565876 
L 120.726585 262.565876 
L 120.726585 262.44 
L 121.159053 262.44 
L 121.159053 262.314124 
L 121.371615 262.314124 
L 121.371615 261.810621 
L 121.789667 261.810621 
L 121.789667 261.684745 
L 121.99526 261.684745 
L 121.99526 261.558869 
L 122.399825 261.558869 
L 122.399825 261.055366 
L 123.374735 261.055366 
L 123.374735 260.677738 
L 123.563797 260.677738 
L 123.563797 260.174234 
L 123.936316 260.174234 
L 123.936316 259.670731 
L 124.119844 259.670731 
L 124.119844 259.418979 
L 124.659926 259.418979 
L 124.659926 259.293103 
L 124.836562 259.293103 
L 124.836562 259.167228 
L 125.695686 259.167228 
L 125.695686 258.915476 
L 125.862901 258.915476 
L 125.862901 258.7896 
L 126.028642 258.7896 
L 126.028642 257.153214 
L 126.355808 257.153214 
L 126.355808 257.027338 
L 126.993549 257.027338 
L 126.993549 256.901462 
L 127.304491 256.901462 
L 127.304491 256.64971 
L 127.458055 256.64971 
L 127.458055 256.397959 
L 128.060076 256.397959 
L 128.060076 256.272083 
L 129.069367 256.272083 
L 129.069367 256.020331 
L 129.348062 256.020331 
L 129.348062 255.894455 
L 129.758512 255.894455 
L 129.758512 255.768579 
L 129.893363 255.768579 
L 129.893363 255.516828 
L 130.292209 255.516828 
L 130.292209 255.013324 
L 130.4233 255.013324 
L 130.4233 254.761572 
L 130.682774 254.761572 
L 130.682774 254.635697 
L 131.065395 254.635697 
L 131.065395 254.383945 
L 131.191226 254.383945 
L 131.191226 254.258069 
L 131.31622 254.258069 
L 131.31622 254.132193 
L 131.563744 254.132193 
L 131.563744 253.754566 
L 131.686295 253.754566 
L 131.686295 253.62869 
L 131.929028 253.62869 
L 131.929028 253.251062 
L 132.405295 253.251062 
L 132.405295 252.747559 
L 132.522502 252.747559 
L 132.522502 252.621683 
L 132.984158 252.621683 
L 132.984158 252.369931 
L 133.097823 252.369931 
L 133.097823 252.118179 
L 133.210806 252.118179 
L 133.210806 251.992303 
L 133.323114 251.992303 
L 133.323114 251.740552 
L 133.765759 251.740552 
L 133.874812 251.4888 
L 134.198228 251.4888 
L 134.198228 251.362924 
L 134.41079 251.362924 
L 134.516177 250.859421 
L 134.620977 250.859421 
L 134.620977 250.607669 
L 134.931919 250.607669 
L 134.931919 250.355917 
L 135.136394 250.355917 
L 135.237805 249.852414 
L 135.338671 249.852414 
L 135.338671 249.600662 
L 135.638065 249.600662 
L 135.638065 249.474786 
L 135.835047 249.474786 
L 135.835047 249.34891 
L 136.126705 249.34891 
L 136.126705 248.971283 
L 136.413909 248.971283 
L 136.413909 248.593655 
L 136.602972 248.593655 
L 136.696795 248.216028 
L 136.97549 248.216028 
L 136.97549 247.964276 
L 137.520791 247.964276 
L 137.610157 247.209021 
L 137.787626 247.209021 
L 137.787626 246.957269 
L 137.963436 246.957269 
L 137.963436 246.705517 
L 138.310202 246.705517 
L 138.395904 245.950262 
L 138.818654 245.950262 
L 138.818654 245.824386 
L 138.985129 245.824386 
L 139.067817 245.572634 
L 139.150143 245.572634 
L 139.150143 245.320883 
L 139.875304 245.320883 
L 139.875304 245.195007 
L 140.343665 245.195007 
L 140.343665 245.069131 
L 140.49723 245.069131 
L 140.573544 244.691503 
L 140.875745 244.691503 
L 140.950542 244.439752 
L 141.025043 244.439752 
L 141.099251 243.810372 
L 141.465959 243.810372 
L 141.465959 243.558621 
L 141.754265 243.558621 
L 141.754265 243.306869 
L 141.896777 243.306869 
L 141.96763 242.929241 
L 142.661862 242.929241 
L 142.661862 242.803366 
L 142.932537 242.803366 
L 142.932537 242.67749 
L 143.265494 242.67749 
L 143.331383 242.299862 
L 143.657415 242.299862 
L 143.657415 242.173986 
L 144.041338 242.173986 
L 144.041338 241.922234 
L 144.16759 241.922234 
L 144.16759 241.670483 
L 144.355394 241.670483 
L 144.355394 241.418731 
L 144.847227 241.418731 
L 144.847227 241.292855 
L 145.088405 241.292855 
L 145.148219 241.041103 
L 145.908976 241.041103 
L 145.966241 240.663476 
L 146.362288 240.663476 
L 146.418192 240.159972 
L 146.64016 240.159972 
L 146.695245 239.278841 
L 146.804934 239.278841 
L 146.913986 239.02709 
L 147.130214 239.02709 
L 147.183884 238.523586 
L 147.449964 238.523586 
L 147.449964 238.271834 
L 147.816265 238.271834 
L 147.816265 238.020083 
L 148.022421 238.020083 
L 148.073609 237.642455 
L 148.478174 237.642455 
L 148.528138 237.138952 
L 149.214052 237.138952 
L 149.214052 237.013076 
L 149.357835 237.013076 
L 149.357835 236.761324 
L 149.875833 236.761324 
L 149.968501 236.383697 
L 150.106653 236.383697 
L 150.106653 236.131945 
L 150.243797 236.131945 
L 150.243797 235.880193 
L 150.604701 235.880193 
L 150.604701 235.754317 
L 151.306379 235.754317 
L 151.392277 235.124938 
L 151.477784 235.124938 
L 151.477784 234.873186 
L 151.899585 234.873186 
L 151.899585 234.621434 
L 152.106991 234.621434 
L 152.106991 234.495559 
L 152.230346 234.495559 
L 152.230346 234.369683 
L 152.393571 234.369683 
L 152.434157 233.614428 
L 152.515067 233.614428 
L 152.515067 233.362676 
L 152.635783 233.362676 
L 152.635783 233.110924 
L 153.032666 233.110924 
L 153.071898 232.607421 
L 153.344252 232.607421 
L 153.344252 232.103917 
L 153.536404 232.103917 
L 153.536404 231.978041 
L 153.688725 231.978041 
L 153.688725 231.474538 
L 153.877408 231.474538 
L 153.914919 231.222786 
L 154.027004 231.222786 
L 154.027004 231.09691 
L 154.17542 231.09691 
L 154.285968 230.593407 
L 154.432362 230.593407 
L 154.505134 230.215779 
L 154.971412 230.215779 
L 155.077392 229.5864 
L 155.495444 229.5864 
L 155.564225 229.334648 
L 155.938089 229.334648 
L 155.938089 229.208772 
L 156.370558 229.208772 
L 156.436218 228.453517 
L 156.566854 228.453517 
L 156.664239 227.572386 
L 156.825436 227.572386 
L 156.921495 226.565379 
L 157.143744 226.565379 
L 157.143744 226.313628 
L 157.487772 226.313628 
L 157.487772 226.187752 
L 157.61133 226.187752 
L 157.703468 225.810124 
L 157.795157 225.810124 
L 157.825621 225.306621 
L 158.067574 225.306621 
L 158.067574 225.180745 
L 158.483644 225.180745 
L 158.483644 224.928993 
L 159.401463 224.928993 
L 159.485256 224.42549 
L 159.568678 224.42549 
L 159.568678 224.299614 
L 159.871431 224.299614 
L 159.871431 224.173738 
L 160.115564 224.173738 
L 160.115564 223.921986 
L 160.329943 223.921986 
L 160.436223 223.418483 
L 160.515541 223.418483 
L 160.541906 222.789103 
L 160.777545 222.789103 
L 160.777545 222.537352 
L 161.087207 222.537352 
L 161.163832 222.033848 
L 161.214743 222.033848 
L 161.214743 221.782097 
L 161.341421 221.782097 
L 161.391854 221.404469 
L 161.492316 221.404469 
L 161.492316 221.152717 
L 161.617145 221.152717 
L 161.642011 220.77509 
L 161.864343 220.77509 
L 161.96232 220.271586 
L 162.229155 220.271586 
L 162.325256 219.893959 
L 162.587027 219.893959 
L 162.587027 219.390455 
L 162.798527 219.390455 
L 162.798527 219.138703 
L 163.373849 219.138703 
L 163.373849 218.886952 
L 163.486831 218.886952 
L 163.486831 218.6352 
L 163.688506 218.6352 
L 163.73303 218.131697 
L 163.79962 218.131697 
L 163.843882 217.376441 
L 164.215967 217.376441 
L 164.302457 216.872938 
L 164.367065 216.872938 
L 164.367065 216.747062 
L 164.834193 216.747062 
L 164.897003 216.117683 
L 165.001222 216.117683 
L 165.001222 215.865931 
L 165.207944 215.865931 
L 165.249018 214.9848 
L 165.392072 214.9848 
L 165.473332 214.733048 
L 165.654892 214.733048 
L 165.715025 214.355421 
L 165.834717 214.355421 
L 165.874446 213.726041 
L 165.973402 213.726041 
L 165.973402 213.600166 
L 166.267186 213.600166 
L 166.267186 213.096662 
L 166.498953 213.096662 
L 166.498953 212.84491 
L 166.746854 212.84491 
L 166.746854 212.593159 
L 167.066179 212.593159 
L 167.159075 212.215531 
L 167.251516 212.215531 
L 167.251516 211.963779 
L 167.380174 211.963779 
L 167.435044 211.586152 
L 167.652941 211.586152 
L 167.652941 211.460276 
L 167.975126 211.460276 
L 168.045979 210.956772 
L 168.186891 210.956772 
L 168.221954 210.705021 
L 168.413644 210.705021 
L 168.482867 210.201517 
L 168.569041 210.201517 
L 168.67193 209.19451 
L 168.740211 209.19451 
L 168.757243 208.691007 
L 169.044448 208.691007 
L 169.061207 208.439255 
L 169.178101 208.439255 
L 169.211366 207.558124 
L 169.310811 207.558124 
L 169.376816 207.180497 
L 169.442591 207.180497 
L 169.442591 207.054621 
L 169.622295 207.054621 
L 169.622295 206.802869 
L 169.944694 206.802869 
L 170.040346 206.425241 
L 170.056241 206.425241 
L 170.167131 205.795862 
L 170.230204 205.795862 
L 170.27737 205.54411 
L 170.49593 205.54411 
L 170.511445 205.166483 
L 170.834332 205.166483 
L 170.834332 205.040607 
L 170.986161 205.040607 
L 171.091717 204.537103 
L 171.226568 204.537103 
L 171.330787 204.0336 
L 171.345629 204.0336 
L 171.360458 203.530097 
L 171.581513 203.530097 
L 171.596158 203.026593 
L 171.771015 203.026593 
L 171.828941 202.397214 
L 171.915498 202.397214 
L 171.972982 201.516083 
L 172.130162 201.516083 
L 172.229507 200.509076 
L 172.243656 200.509076 
L 172.271923 200.257324 
L 172.356469 200.257324 
L 172.356469 200.005572 
L 172.552279 200.005572 
L 172.566188 199.627945 
L 172.732295 199.627945 
L 172.842224 199.124441 
L 172.85592 199.124441 
L 172.910605 198.620938 
L 172.978738 198.620938 
L 172.978738 198.369186 
L 173.18167 198.369186 
L 173.289011 197.739807 
L 173.329107 197.739807 
L 173.395744 197.488055 
L 173.541519 197.488055 
L 173.541519 197.236303 
L 173.712355 197.236303 
L 173.712355 197.110428 
L 174.10077 197.110428 
L 174.10077 196.984552 
L 174.215747 196.984552 
L 174.292011 196.606924 
L 174.544011 196.606924 
L 174.618958 196.229297 
L 174.964813 196.229297 
L 175.074644 195.851669 
L 175.086808 195.851669 
L 175.183838 194.844662 
L 175.220095 194.844662 
L 175.304425 194.467034 
L 175.483869 194.467034 
L 175.567027 193.837655 
L 175.626202 193.837655 
L 175.626202 193.711779 
L 176.012153 193.711779 
L 176.116053 193.0824 
L 176.150559 193.0824 
L 176.150559 192.956524 
L 176.310755 192.956524 
L 176.401688 192.578897 
L 176.492182 192.578897 
L 176.526006 192.201269 
L 176.949256 192.201269 
L 176.949256 192.075393 
L 177.080959 192.075393 
L 177.146467 191.697766 
L 177.233457 191.697766 
L 177.255141 191.194262 
L 177.395487 191.194262 
L 177.449188 190.816634 
L 177.977934 190.816634 
L 178.061171 190.439007 
L 178.216255 190.439007 
L 178.318938 190.061379 
L 178.359855 190.061379 
L 178.370071 189.683752 
L 178.482075 189.683752 
L 178.563116 189.180248 
L 178.603505 189.180248 
L 178.603505 189.054372 
L 178.764203 189.054372 
L 178.764203 188.802621 
L 179.032306 188.802621 
L 179.032306 188.676745 
L 179.30636 188.676745 
L 179.412941 188.299117 
L 179.595626 188.299117 
L 179.595626 188.173241 
L 179.729109 188.173241 
L 179.823878 187.417986 
L 179.983897 187.417986 
L 180.058732 187.040359 
L 180.207514 187.040359 
L 180.207514 186.914483 
L 180.327539 186.914483 
L 180.355129 186.662731 
L 180.71016 186.662731 
L 180.71016 186.536855 
L 181.261129 186.536855 
L 181.261129 186.410979 
L 181.522042 186.410979 
L 181.573793 185.907476 
L 181.642574 185.907476 
L 181.642574 185.7816 
L 181.770864 185.7816 
L 181.87287 185.403972 
L 182.041661 185.403972 
L 182.108755 185.152221 
L 182.183951 185.152221 
L 182.183951 184.900469 
L 182.481765 184.900469 
L 182.481765 184.774593 
L 183.015807 184.774593 
L 183.015807 184.648717 
L 183.166777 184.648717 
L 183.166777 184.522841 
L 183.316545 184.522841 
L 183.35576 184.145214 
L 183.433946 184.145214 
L 183.488484 183.767586 
L 183.735804 183.767586 
L 183.735804 183.64171 
L 183.865883 183.64171 
L 183.919184 183.012331 
L 184.228381 183.012331 
L 184.228381 182.760579 
L 184.488367 182.760579 
L 184.495742 182.382952 
L 184.606031 182.382952 
L 184.686501 182.1312 
L 184.81744 182.1312 
L 184.81744 182.005324 
L 185.24035 182.005324 
L 185.24035 181.879448 
L 185.486809 181.879448 
L 185.549665 181.375945 
L 185.647027 181.375945 
L 185.653962 181.124193 
L 185.942953 181.124193 
L 185.942953 180.998317 
L 186.428265 180.998317 
L 186.507947 180.62069 
L 186.541048 180.62069 
L 186.613667 180.368938 
L 186.712243 180.368938 
L 186.718797 179.99131 
L 186.946739 179.99131 
L 187.037149 179.613683 
L 187.48279 179.613683 
L 187.48279 179.487807 
L 187.61445 179.487807 
L 187.714147 179.110179 
L 187.868873 179.110179 
L 187.868873 178.984303 
L 188.058983 178.984303 
L 188.058983 178.858428 
L 188.313525 178.858428 
L 188.313525 178.732552 
L 188.712582 178.732552 
L 188.736141 178.4808 
L 188.90023 178.4808 
L 188.90023 178.229048 
L 189.086025 178.229048 
L 189.086025 177.977297 
L 189.435192 177.977297 
L 189.435192 177.851421 
L 189.866887 177.851421 
L 189.866887 177.725545 
L 190.348419 177.725545 
L 190.440038 177.473793 
L 191.322237 177.473793 
L 191.322237 177.347917 
L 191.511095 177.347917 
L 191.577002 177.096166 
L 192.032002 177.096166 
L 192.032002 176.97029 
L 192.306628 176.97029 
L 192.306628 176.844414 
L 193.111905 176.844414 
L 193.111905 176.592662 
L 193.329865 176.592662 
L 193.329865 176.466786 
L 193.672525 176.466786 
L 193.672525 176.34091 
L 195.479858 176.34091 
L 195.553741 175.837407 
L 195.975034 175.837407 
L 195.975034 175.711531 
L 196.449699 175.711531 
L 196.449699 175.585655 
L 197.371981 175.585655 
L 197.371981 175.459779 
L 198.917148 175.459779 
L 198.917148 175.333903 
L 201.421799 175.333903 
L 201.421799 175.208028 
L 207.196624 175.208028 
L 207.196624 175.082152 
L 360.8064 175.082152 
L 360.8064 175.082152 
" style="fill: none; stroke: #000080; stroke-width: 1.5; stroke-linecap: square"/>
   </g>
   <g id="line2d_36">
    <defs>
     <path id="m04df862736" d="M 0 6 
C 1.591219 6 3.117479 5.367802 4.242641 4.242641 
C 5.367802 3.117479 6 1.591219 6 0 
C 6 -1.591219 5.367802 -3.117479 4.242641 -4.242641 
C 3.117479 -5.367802 1.591219 -6 0 -6 
C -1.591219 -6 -3.117479 -5.367802 -4.242641 -4.242641 
C -5.367802 -3.117479 -6 -1.591219 -6 0 
C -6 1.591219 -5.367802 3.117479 -4.242641 4.242641 
C -3.117479 5.367802 -1.591219 6 0 6 
z
" style="stroke: #000080; stroke-width: 1.5"/>
    </defs>
    <g>
     <use xlink:href="#m04df862736" x="148.022421" y="237.894207" style="fill-opacity: 0; stroke: #000080; stroke-width: 1.5"/>
     <use xlink:href="#m04df862736" x="190.440038" y="177.473793" style="fill-opacity: 0; stroke: #000080; stroke-width: 1.5"/>
     <use xlink:href="#m04df862736" x="207.196624" y="175.082152" style="fill-opacity: 0; stroke: #000080; stroke-width: 1.5"/>
     <use xlink:href="#m04df862736" x="207.196624" y="175.082152" style="fill-opacity: 0; stroke: #000080; stroke-width: 1.5"/>
     <use xlink:href="#m04df862736" x="360.8064" y="175.082152" style="fill-opacity: 0; stroke: #000080; stroke-width: 1.5"/>
    </g>
   </g>
   <g id="line2d_37">
    <path style="fill: none; stroke: #000080; stroke-width: 1.5; stroke-linecap: square"/>
    <g/>
   </g>
   <g id="line2d_38">
    <path d="M 230.858919 175.082152 
" clip-path="url(#p4baa49ebb1)" style="fill: none; stroke: #000080; stroke-width: 1.5; stroke-linecap: square"/>
    <defs>
     <path id="m59c739d92a" d="M -12 12 
L 12 -12 
M -12 -12 
L 12 12 
" style="stroke: #000080"/>
    </defs>
    <g clip-path="url(#p4baa49ebb1)">
     <use xlink:href="#m59c739d92a" x="230.858919" y="175.082152" style="fill: #000080; stroke: #000080"/>
    </g>
   </g>
   <g id="line2d_39">
    <defs>
     <path id="m9591a60396" d="M 0 1.5 
C 0.397805 1.5 0.77937 1.341951 1.06066 1.06066 
C 1.341951 0.77937 1.5 0.397805 1.5 0 
C 1.5 -0.397805 1.341951 -0.77937 1.06066 -1.06066 
C 0.77937 -1.341951 0.397805 -1.5 0 -1.5 
C -0.397805 -1.5 -0.77937 -1.341951 -1.06066 -1.06066 
C -1.341951 -0.77937 -1.5 -0.397805 -1.5 0 
C -1.5 0.397805 -1.341951 0.77937 -1.06066 1.06066 
C -0.77937 1.341951 -0.397805 1.5 0 1.5 
z
" style="stroke: #ff00ff"/>
    </defs>
    <g>
     <use xlink:href="#m9591a60396" x="221.85404" y="175.333903" style="fill: #ff00ff; stroke: #ff00ff"/>
     <use xlink:href="#m9591a60396" x="221.85404" y="175.333903" style="fill: #ff00ff; stroke: #ff00ff"/>
    </g>
   </g>
   <g id="line2d_40">
    <path d="M 36.933397 298.944 
L 36.933397 284.090648 
L 49.972572 284.090648 
L 49.972572 281.069628 
L 80.248597 281.069628 
L 80.248597 278.929738 
L 91.305777 278.929738 
L 91.305777 277.922731 
L 98.223251 277.922731 
L 98.223251 277.167476 
L 103.269713 277.167476 
L 103.269713 276.412221 
L 107.244765 276.412221 
L 107.244765 275.656966 
L 110.524623 275.656966 
L 110.524623 273.894703 
L 113.316634 273.894703 
L 113.316634 272.635945 
L 115.747307 272.635945 
L 115.747307 269.866676 
L 117.899543 269.866676 
L 117.899543 269.237297 
L 119.830627 269.237297 
L 119.830627 268.104414 
L 121.581803 268.104414 
L 121.581803 267.349159 
L 123.183753 267.349159 
L 123.183753 265.712772 
L 124.659926 265.712772 
L 124.659926 264.202262 
L 126.028642 264.202262 
L 126.028642 261.936497 
L 127.304491 261.936497 
L 127.304491 260.803614 
L 128.499277 260.803614 
L 128.499277 259.670731 
L 129.622688 259.670731 
L 129.622688 259.041352 
L 130.682774 259.041352 
L 130.682774 258.915476 
L 131.686295 258.915476 
L 131.686295 257.782593 
L 132.638982 257.782593 
L 132.638982 257.27909 
L 133.545739 257.27909 
L 133.545739 256.272083 
L 134.41079 256.272083 
L 134.41079 255.516828 
L 135.237805 255.516828 
L 135.237805 254.887448 
L 136.029987 254.887448 
L 136.029987 254.383945 
L 136.790153 254.383945 
L 136.790153 253.125186 
L 137.520791 253.125186 
L 137.520791 252.99931 
L 138.224108 252.99931 
L 138.224108 252.621683 
L 138.902075 252.621683 
L 138.902075 252.118179 
L 139.556456 252.118179 
L 139.556456 250.607669 
L 140.188837 250.607669 
L 140.188837 249.34891 
L 140.800648 249.34891 
L 140.800648 248.467779 
L 141.393187 248.467779 
L 141.393187 247.8384 
L 141.96763 247.8384 
L 141.96763 247.334897 
L 142.525051 247.334897 
L 142.525051 246.579641 
L 143.066428 246.579641 
L 143.066428 246.076138 
L 143.592659 246.076138 
L 143.592659 245.824386 
L 144.10457 245.824386 
L 144.10457 245.320883 
L 145.088405 245.320883 
L 145.088405 245.195007 
L 145.561676 245.195007 
L 145.561676 244.565628 
L 146.023332 244.565628 
L 146.023332 244.313876 
L 146.47393 244.313876 
L 146.47393 243.684497 
L 147.343984 243.684497 
L 147.343984 242.929241 
L 147.764371 242.929241 
L 147.764371 242.803366 
L 148.175569 242.803366 
L 148.175569 242.425738 
L 148.971944 242.425738 
L 148.971944 241.292855 
L 149.357835 241.292855 
L 149.357835 240.663476 
L 149.73597 240.663476 
L 149.73597 239.908221 
L 150.470172 239.908221 
L 150.470172 239.782345 
L 150.8268 239.782345 
L 150.8268 239.278841 
L 151.176793 239.278841 
L 151.176793 239.02709 
L 151.520392 239.02709 
L 151.520392 238.649462 
L 151.857828 238.649462 
L 151.857828 238.39771 
L 152.515067 238.39771 
L 152.515067 237.894207 
L 152.835271 237.894207 
L 152.835271 237.264828 
L 153.150116 237.264828 
L 153.150116 236.635448 
L 153.459779 236.635448 
L 153.459779 236.509572 
L 153.764426 236.509572 
L 153.764426 236.257821 
L 154.064218 236.257821 
L 154.064218 235.628441 
L 154.359307 235.628441 
L 154.359307 234.999062 
L 154.649839 234.999062 
L 154.649839 234.621434 
L 154.935952 234.621434 
L 154.935952 234.495559 
L 155.217778 234.495559 
L 155.217778 234.369683 
L 155.769072 234.369683 
L 155.769072 233.614428 
L 156.304668 233.614428 
L 156.304668 233.488552 
L 156.566854 233.488552 
L 156.566854 233.2368 
L 156.825436 233.2368 
L 156.825436 233.110924 
L 157.080512 233.110924 
L 157.080512 231.72629 
L 157.332175 231.72629 
L 157.332175 230.971034 
L 157.580516 230.971034 
L 157.580516 230.215779 
L 157.825621 230.215779 
L 157.825621 230.089903 
L 158.067574 230.089903 
L 158.067574 229.5864 
L 158.306454 229.5864 
L 158.306454 229.460524 
L 158.542339 229.460524 
L 158.542339 228.957021 
L 158.775302 228.957021 
L 158.775302 228.705269 
L 159.005416 228.705269 
L 159.005416 228.579393 
L 159.232748 228.579393 
L 159.232748 228.453517 
L 159.679334 228.453517 
L 159.679334 228.201766 
L 160.115564 228.201766 
L 160.115564 227.950014 
L 160.329943 227.950014 
L 160.329943 227.44651 
L 160.751508 227.44651 
L 160.751508 227.194759 
L 160.9588 227.194759 
L 160.9588 226.817131 
L 161.163832 226.817131 
L 161.163832 226.565379 
L 161.366654 226.565379 
L 161.366654 226.061876 
L 161.567313 226.061876 
L 161.567313 225.684248 
L 161.765853 225.684248 
L 161.765853 225.432497 
L 161.96232 225.432497 
L 161.96232 225.054869 
L 162.156757 225.054869 
L 162.156757 224.928993 
L 162.728291 224.928993 
L 162.728291 224.551366 
L 162.915008 224.551366 
L 162.915008 223.921986 
L 163.643876 223.921986 
L 163.643876 223.670234 
L 163.821764 223.670234 
L 163.821764 223.040855 
L 164.172572 223.040855 
L 164.172572 222.789103 
L 164.345553 222.789103 
L 164.345553 222.537352 
L 164.686815 222.537352 
L 164.686815 222.2856 
L 164.855153 222.2856 
L 164.855153 222.033848 
L 165.021997 222.033848 
L 165.021997 221.907972 
L 165.187374 221.907972 
L 165.187374 221.656221 
L 165.51383 221.656221 
L 165.51383 221.404469 
L 165.674958 221.404469 
L 165.674958 220.900966 
L 165.834717 220.900966 
L 165.834717 220.649214 
L 166.150222 220.649214 
L 166.150222 219.893959 
L 166.306012 219.893959 
L 166.306012 219.390455 
L 166.613775 219.390455 
L 166.613775 218.886952 
L 167.507957 218.886952 
L 167.507957 218.6352 
L 167.652941 218.6352 
L 167.652941 218.005821 
L 167.796816 218.005821 
L 167.796816 217.879945 
L 168.081306 217.879945 
L 168.081306 217.250566 
L 168.500134 217.250566 
L 168.500134 217.12469 
L 168.909839 217.12469 
L 168.909839 216.747062 
L 169.310811 216.747062 
L 169.310811 215.236552 
L 169.442591 215.236552 
L 169.442591 215.110676 
L 169.573454 215.110676 
L 169.573454 214.9848 
L 169.703414 214.9848 
L 169.703414 214.481297 
L 169.832482 214.481297 
L 169.832482 214.355421 
L 169.96067 214.355421 
L 169.96067 214.229545 
L 170.087991 214.229545 
L 170.087991 214.103669 
L 170.214455 214.103669 
L 170.214455 213.851917 
L 170.340075 213.851917 
L 170.340075 213.600166 
L 170.464862 213.600166 
L 170.464862 213.348414 
L 170.71198 213.348414 
L 170.71198 213.222538 
L 170.955893 213.222538 
L 170.955893 212.84491 
L 171.076674 212.84491 
L 171.076674 212.719034 
L 171.196684 212.719034 
L 171.196684 212.467283 
L 171.552189 212.467283 
L 171.552189 212.341407 
L 171.669213 212.341407 
L 171.669213 211.963779 
L 171.785513 211.963779 
L 171.785513 211.712028 
L 171.901099 211.712028 
L 171.901099 211.460276 
L 172.015979 211.460276 
L 172.015979 211.208524 
L 172.130162 211.208524 
L 172.130162 210.956772 
L 172.356469 210.956772 
L 172.356469 210.453269 
L 172.580086 210.453269 
L 172.580086 209.949766 
L 172.910605 209.949766 
L 172.910605 209.82389 
L 173.235417 209.82389 
L 173.342453 209.19451 
L 173.554715 209.19451 
L 173.554715 209.068634 
L 173.868685 209.068634 
L 173.868685 208.691007 
L 174.1775 208.691007 
L 174.1775 207.684 
L 174.581522 207.684 
L 174.681186 206.928745 
L 174.878944 206.928745 
L 174.878944 206.802869 
L 175.074644 206.802869 
L 175.171736 206.299366 
L 175.460042 206.299366 
L 175.55517 205.921738 
L 175.649819 205.921738 
L 175.649819 205.669986 
L 175.837702 205.669986 
L 175.930944 205.040607 
L 176.207929 205.040607 
L 176.207929 204.788855 
L 176.390345 204.788855 
L 176.480894 204.285352 
L 176.660695 204.285352 
L 176.660695 203.907724 
L 177.015223 203.907724 
L 177.10282 203.530097 
L 177.190012 203.530097 
L 177.276801 203.152469 
L 177.449188 203.152469 
L 177.449188 203.026593 
L 177.704841 203.026593 
L 177.789293 202.52309 
L 177.957067 202.52309 
L 178.040396 202.019586 
L 178.123358 202.019586 
L 178.205956 201.641959 
L 178.532766 201.641959 
L 178.532766 201.138455 
L 178.933453 201.138455 
L 178.933453 200.509076 
L 179.480453 200.509076 
L 179.557313 199.753821 
L 179.710098 199.753821 
L 179.786028 199.502069 
L 179.861652 199.502069 
L 179.936974 198.87269 
L 180.011995 198.87269 
L 180.086719 198.24331 
L 180.382678 198.24331 
L 180.382678 197.991559 
L 180.674054 197.991559 
L 180.746198 196.858676 
L 181.032039 196.858676 
L 181.032039 196.481048 
L 181.173347 196.481048 
L 181.173347 196.103421 
L 181.383339 196.103421 
L 181.383339 195.977545 
L 181.591012 195.977545 
L 181.591012 195.725793 
L 181.932119 195.725793 
L 181.932119 195.474041 
L 182.133854 195.474041 
L 182.133854 195.096414 
L 182.267151 195.096414 
L 182.333448 194.718786 
L 182.399511 194.718786 
L 182.465343 194.341159 
L 182.530946 194.341159 
L 182.530946 194.215283 
L 182.726392 194.215283 
L 182.726392 193.963531 
L 182.855571 193.963531 
L 182.855571 193.837655 
L 182.983869 193.837655 
L 183.047691 193.460028 
L 183.111297 193.460028 
L 183.111297 193.334152 
L 183.363593 193.334152 
L 183.426142 192.956524 
L 183.61255 192.956524 
L 183.674278 192.578897 
L 183.735804 192.578897 
L 183.735804 192.453021 
L 184.100793 192.453021 
L 184.100793 192.201269 
L 184.280666 192.201269 
L 184.280666 191.949517 
L 184.399633 191.949517 
L 184.399633 191.823641 
L 185.040832 191.823641 
L 185.098054 191.320138 
L 185.211977 191.320138 
L 185.211977 190.94251 
L 185.437775 190.94251 
L 185.493803 190.439007 
L 185.716263 190.439007 
L 185.716263 190.313131 
L 186.099348 190.313131 
L 186.207383 189.180248 
L 186.368281 189.180248 
L 186.368281 189.054372 
L 186.633424 189.054372 
L 186.686007 188.550869 
L 186.998455 188.550869 
L 186.998455 188.424993 
L 187.152754 188.424993 
L 187.152754 188.173241 
L 187.507939 188.173241 
L 187.507939 187.795614 
L 187.757599 187.795614 
L 187.757599 187.669738 
L 187.905819 187.669738 
L 187.905819 187.417986 
L 188.052881 187.417986 
L 188.150287 187.040359 
L 188.295457 187.040359 
L 188.295457 186.914483 
L 188.439516 186.914483 
L 188.534946 186.410979 
L 189.097576 186.410979 
L 189.189733 186.159228 
L 189.41817 186.159228 
L 189.508774 185.907476 
L 189.553913 185.907476 
L 189.553913 185.7816 
L 190.131067 185.7816 
L 190.131067 185.655724 
L 190.348419 185.655724 
L 190.434661 185.152221 
L 190.648553 185.152221 
L 190.648553 184.900469 
L 190.77573 184.900469 
L 190.860039 184.648717 
L 191.358113 184.648717 
L 191.358113 184.396966 
L 191.60229 184.396966 
L 191.64268 184.145214 
L 191.923006 184.145214 
L 191.923006 183.893462 
L 192.316362 183.893462 
L 192.355249 183.64171 
L 192.432782 183.64171 
L 192.432782 183.389959 
L 192.701661 183.389959 
L 192.701661 183.264083 
L 192.815728 183.264083 
L 192.89139 182.886455 
L 193.228155 182.886455 
L 193.228155 182.760579 
L 193.631734 182.760579 
L 193.631734 182.634703 
L 194.133166 182.634703 
L 194.133166 182.508828 
L 194.517981 182.508828 
L 194.552577 182.1312 
L 194.962841 182.1312 
L 194.962841 182.005324 
L 195.789856 182.005324 
L 195.822192 181.753572 
L 196.519877 181.753572 
L 196.519877 181.501821 
L 197.041814 181.501821 
L 197.041814 181.375945 
L 197.57911 181.375945 
L 197.608514 181.124193 
L 197.813069 181.124193 
L 197.813069 180.998317 
L 198.748526 180.998317 
L 198.803752 180.746566 
L 198.913721 180.746566 
L 199.023052 180.494814 
L 199.050285 180.494814 
L 199.050285 180.243062 
L 199.586836 180.243062 
L 199.586836 180.117186 
L 201.30448 180.117186 
L 201.30448 179.99131 
L 201.47271 179.99131 
L 201.47271 179.865434 
L 201.757649 179.865434 
L 201.804722 179.487807 
L 202.154064 179.487807 
L 202.154064 179.361931 
L 202.406188 179.361931 
L 202.406188 179.236055 
L 202.833869 179.236055 
L 202.833869 179.110179 
L 203.186631 179.110179 
L 203.295526 178.732552 
L 203.446927 178.732552 
L 203.446927 178.606676 
L 203.682409 178.606676 
L 203.682409 178.4808 
L 204.040635 178.4808 
L 204.040635 178.354924 
L 204.20688 178.354924 
L 204.20688 178.229048 
L 204.392166 178.229048 
L 204.392166 178.103172 
L 205.311692 178.103172 
L 205.311692 177.977297 
L 206.684515 177.977297 
L 206.684515 177.725545 
L 207.11482 177.725545 
L 207.11482 177.599669 
L 207.963931 177.599669 
L 207.997788 177.096166 
L 208.199657 177.096166 
L 208.299786 176.844414 
L 208.711343 176.844414 
L 208.711343 176.592662 
L 209.018214 176.592662 
L 209.018214 176.466786 
L 211.463445 176.466786 
L 211.463445 176.34091 
L 212.004224 176.34091 
L 212.004224 176.089159 
L 212.833149 176.089159 
L 212.833149 175.963283 
L 213.259894 175.963283 
L 213.259894 175.711531 
L 214.663795 175.711531 
L 214.663795 175.459779 
L 221.85404 175.459779 
L 221.85404 175.333903 
L 360.8064 175.333903 
L 360.8064 175.333903 
" style="fill: none; stroke: #ff00ff; stroke-width: 1.5; stroke-linecap: square"/>
   </g>
   <g id="line2d_41">
    <defs>
     <path id="m9c2a7b8321" d="M -0 8.485281 
L 5.091169 0 
L 0 -8.485281 
L -5.091169 -0 
z
" style="stroke: #ff00ff; stroke-width: 1.5; stroke-linejoin: miter"/>
    </defs>
    <g>
     <use xlink:href="#m9c2a7b8321" x="133.545739" y="257.27909" style="fill-opacity: 0; stroke: #ff00ff; stroke-width: 1.5; stroke-linejoin: miter"/>
     <use xlink:href="#m9c2a7b8321" x="172.015979" y="211.460276" style="fill-opacity: 0; stroke: #ff00ff; stroke-width: 1.5; stroke-linejoin: miter"/>
     <use xlink:href="#m9c2a7b8321" x="221.85404" y="175.459779" style="fill-opacity: 0; stroke: #ff00ff; stroke-width: 1.5; stroke-linejoin: miter"/>
     <use xlink:href="#m9c2a7b8321" x="221.85404" y="175.333903" style="fill-opacity: 0; stroke: #ff00ff; stroke-width: 1.5; stroke-linejoin: miter"/>
     <use xlink:href="#m9c2a7b8321" x="221.85404" y="175.333903" style="fill-opacity: 0; stroke: #ff00ff; stroke-width: 1.5; stroke-linejoin: miter"/>
     <use xlink:href="#m9c2a7b8321" x="360.8064" y="175.333903" style="fill-opacity: 0; stroke: #ff00ff; stroke-width: 1.5; stroke-linejoin: miter"/>
    </g>
   </g>
   <g id="line2d_42">
    <path style="fill: none; stroke: #ff00ff; stroke-width: 1.5; stroke-linecap: square"/>
    <g/>
   </g>
   <g id="line2d_43">
    <path d="M 230.85641 175.333903 
" clip-path="url(#p4baa49ebb1)" style="fill: none; stroke: #ff00ff; stroke-width: 1.5; stroke-linecap: square"/>
    <defs>
     <path id="mbed1622d41" d="M -12 12 
L 12 -12 
M -12 -12 
L 12 12 
" style="stroke: #ff00ff"/>
    </defs>
    <g clip-path="url(#p4baa49ebb1)">
     <use xlink:href="#mbed1622d41" x="230.85641" y="175.333903" style="fill: #ff00ff; stroke: #ff00ff"/>
    </g>
   </g>
   <g id="line2d_44">
    <path d="M 360.8064 175.333903 
L 380.514816 293.10336 
" style="fill: none; stroke: #ff00ff; stroke-width: 1.5; stroke-linecap: square"/>
    <g>
     <use xlink:href="#m9c2a7b8321" x="360.8064" y="175.333903" style="fill-opacity: 0; stroke: #ff00ff; stroke-width: 1.5; stroke-linejoin: miter"/>
     <use xlink:href="#m9c2a7b8321" x="380.514816" y="293.10336" style="fill-opacity: 0; stroke: #ff00ff; stroke-width: 1.5; stroke-linejoin: miter"/>
    </g>
   </g>
   <g id="line2d_45">
    <path d="M 360.8064 175.082152 
L 380.514816 152.928 
" style="fill: none; stroke: #000080; stroke-width: 1.5; stroke-linecap: square"/>
    <g>
     <use xlink:href="#m04df862736" x="360.8064" y="175.082152" style="fill-opacity: 0; stroke: #000080; stroke-width: 1.5"/>
     <use xlink:href="#m04df862736" x="380.514816" y="152.928" style="fill-opacity: 0; stroke: #000080; stroke-width: 1.5"/>
    </g>
   </g>
   <g id="line2d_46">
    <path d="M 360.8064 298.944 
L 360.8064 6.912 
" style="fill: none; stroke: #000000; stroke-width: 1.5; stroke-linecap: square"/>
   </g>
   <g id="patch_3">
    <path d="M 57.6 298.944 
L 360.8064 298.944 
" style="fill: none; stroke: #000000; stroke-width: 0.8; stroke-linejoin: miter; stroke-linecap: square"/>
   </g>
   <g id="patch_4">
    <path d="M 57.6 6.912 
L 360.8064 6.912 
" style="fill: none; stroke: #000000; stroke-width: 0.8; stroke-linejoin: miter; stroke-linecap: square"/>
   </g>
   <g id="text_13">
    <!-- kerComo -->
    <g transform="translate(386.578944 296.966485) scale(0.14 -0.14)">
     <defs>
      <path id="DejaVuSans-6b" d="M 581 4863 
L 1159 4863 
L 1159 1991 
L 2875 3500 
L 3609 3500 
L 1753 1863 
L 3688 0 
L 2938 0 
L 1159 1709 
L 1159 0 
L 581 0 
L 581 4863 
z
" transform="scale(0.015625)"/>
      <path id="DejaVuSans-43" d="M 4122 4306 
L 4122 3641 
Q 3803 3938 3442 4084 
Q 3081 4231 2675 4231 
Q 1875 4231 1450 3742 
Q 1025 3253 1025 2328 
Q 1025 1406 1450 917 
Q 1875 428 2675 428 
Q 3081 428 3442 575 
Q 3803 722 4122 1019 
L 4122 359 
Q 3791 134 3420 21 
Q 3050 -91 2638 -91 
Q 1578 -91 968 557 
Q 359 1206 359 2328 
Q 359 3453 968 4101 
Q 1578 4750 2638 4750 
Q 3056 4750 3426 4639 
Q 3797 4528 4122 4306 
z
" transform="scale(0.015625)"/>
     </defs>
     <use xlink:href="#DejaVuSans-6b"/>
     <use xlink:href="#DejaVuSans-65" x="54.285156"/>
     <use xlink:href="#DejaVuSans-72" x="115.808594"/>
     <use xlink:href="#DejaVuSans-43" x="156.921875"/>
     <use xlink:href="#DejaVuSans-6f" x="226.746094"/>
     <use xlink:href="#DejaVuSans-6d" x="287.927734"/>
     <use xlink:href="#DejaVuSans-6f" x="385.339844"/>
    </g>
   </g>
   <g id="text_14">
    <!-- kerLQ -->
    <g transform="translate(386.578944 156.791125) scale(0.14 -0.14)">
     <defs>
      <path id="DejaVuSans-4c" d="M 628 4666 
L 1259 4666 
L 1259 531 
L 3531 531 
L 3531 0 
L 628 0 
L 628 4666 
z
" transform="scale(0.015625)"/>
      <path id="DejaVuSans-51" d="M 2522 4238 
Q 1834 4238 1429 3725 
Q 1025 3213 1025 2328 
Q 1025 1447 1429 934 
Q 1834 422 2522 422 
Q 3209 422 3611 934 
Q 4013 1447 4013 2328 
Q 4013 3213 3611 3725 
Q 3209 4238 2522 4238 
z
M 3406 84 
L 4238 -825 
L 3475 -825 
L 2784 -78 
Q 2681 -84 2626 -87 
Q 2572 -91 2522 -91 
Q 1538 -91 948 567 
Q 359 1225 359 2328 
Q 359 3434 948 4092 
Q 1538 4750 2522 4750 
Q 3503 4750 4090 4092 
Q 4678 3434 4678 2328 
Q 4678 1516 4351 937 
Q 4025 359 3406 84 
z
" transform="scale(0.015625)"/>
     </defs>
     <use xlink:href="#DejaVuSans-6b"/>
     <use xlink:href="#DejaVuSans-65" x="54.285156"/>
     <use xlink:href="#DejaVuSans-72" x="115.808594"/>
     <use xlink:href="#DejaVuSans-4c" x="156.921875"/>
     <use xlink:href="#DejaVuSans-51" x="212.634766"/>
    </g>
   </g>
   <g id="text_15">
    <!-- best 2016 -->
    <g transform="translate(386.578944 16.615765) scale(0.14 -0.14)">
     <defs>
      <path id="DejaVuSans-62" d="M 3116 1747 
Q 3116 2381 2855 2742 
Q 2594 3103 2138 3103 
Q 1681 3103 1420 2742 
Q 1159 2381 1159 1747 
Q 1159 1113 1420 752 
Q 1681 391 2138 391 
Q 2594 391 2855 752 
Q 3116 1113 3116 1747 
z
M 1159 2969 
Q 1341 3281 1617 3432 
Q 1894 3584 2278 3584 
Q 2916 3584 3314 3078 
Q 3713 2572 3713 1747 
Q 3713 922 3314 415 
Q 2916 -91 2278 -91 
Q 1894 -91 1617 61 
Q 1341 213 1159 525 
L 1159 0 
L 581 0 
L 581 4863 
L 1159 4863 
L 1159 2969 
z
" transform="scale(0.015625)"/>
     </defs>
     <use xlink:href="#DejaVuSans-62"/>
     <use xlink:href="#DejaVuSans-65" x="63.476562"/>
     <use xlink:href="#DejaVuSans-73" x="125"/>
     <use xlink:href="#DejaVuSans-74" x="177.099609"/>
     <use xlink:href="#DejaVuSans-20" x="216.308594"/>
     <use xlink:href="#DejaVuSans-32" x="248.095703"/>
     <use xlink:href="#DejaVuSans-30" x="311.71875"/>
     <use xlink:href="#DejaVuSans-31" x="375.341797"/>
     <use xlink:href="#DejaVuSans-36" x="438.964844"/>
    </g>
   </g>
   <g id="text_16">
    <!-- bbob-biobj f22, f23, f29, f30, 3-D -->
    <g transform="translate(60.632064 17.582726) scale(0.102 -0.102)">
     <defs>
      <path id="DejaVuSans-6a" d="M 603 3500 
L 1178 3500 
L 1178 -63 
Q 1178 -731 923 -1031 
Q 669 -1331 103 -1331 
L -116 -1331 
L -116 -844 
L 38 -844 
Q 366 -844 484 -692 
Q 603 -541 603 -63 
L 603 3500 
z
M 603 4863 
L 1178 4863 
L 1178 4134 
L 603 4134 
L 603 4863 
z
" transform="scale(0.015625)"/>
      <path id="DejaVuSans-33" d="M 2597 2516 
Q 3050 2419 3304 2112 
Q 3559 1806 3559 1356 
Q 3559 666 3084 287 
Q 2609 -91 1734 -91 
Q 1441 -91 1130 -33 
Q 819 25 488 141 
L 488 750 
Q 750 597 1062 519 
Q 1375 441 1716 441 
Q 2309 441 2620 675 
Q 2931 909 2931 1356 
Q 2931 1769 2642 2001 
Q 2353 2234 1838 2234 
L 1294 2234 
L 1294 2753 
L 1863 2753 
Q 2328 2753 2575 2939 
Q 2822 3125 2822 3475 
Q 2822 3834 2567 4026 
Q 2313 4219 1838 4219 
Q 1578 4219 1281 4162 
Q 984 4106 628 3988 
L 628 4550 
Q 988 4650 1302 4700 
Q 1616 4750 1894 4750 
Q 2613 4750 3031 4423 
Q 3450 4097 3450 3541 
Q 3450 3153 3228 2886 
Q 3006 2619 2597 2516 
z
" transform="scale(0.015625)"/>
      <path id="DejaVuSans-39" d="M 703 97 
L 703 672 
Q 941 559 1184 500 
Q 1428 441 1663 441 
Q 2288 441 2617 861 
Q 2947 1281 2994 2138 
Q 2813 1869 2534 1725 
Q 2256 1581 1919 1581 
Q 1219 1581 811 2004 
Q 403 2428 403 3163 
Q 403 3881 828 4315 
Q 1253 4750 1959 4750 
Q 2769 4750 3195 4129 
Q 3622 3509 3622 2328 
Q 3622 1225 3098 567 
Q 2575 -91 1691 -91 
Q 1453 -91 1209 -44 
Q 966 3 703 97 
z
M 1959 2075 
Q 2384 2075 2632 2365 
Q 2881 2656 2881 3163 
Q 2881 3666 2632 3958 
Q 2384 4250 1959 4250 
Q 1534 4250 1286 3958 
Q 1038 3666 1038 3163 
Q 1038 2656 1286 2365 
Q 1534 2075 1959 2075 
z
" transform="scale(0.015625)"/>
      <path id="DejaVuSans-44" d="M 1259 4147 
L 1259 519 
L 2022 519 
Q 2988 519 3436 956 
Q 3884 1394 3884 2338 
Q 3884 3275 3436 3711 
Q 2988 4147 2022 4147 
L 1259 4147 
z
M 628 4666 
L 1925 4666 
Q 3281 4666 3915 4102 
Q 4550 3538 4550 2338 
Q 4550 1131 3912 565 
Q 3275 0 1925 0 
L 628 0 
L 628 4666 
z
" transform="scale(0.015625)"/>
     </defs>
     <use xlink:href="#DejaVuSans-62"/>
     <use xlink:href="#DejaVuSans-62" x="63.476562"/>
     <use xlink:href="#DejaVuSans-6f" x="126.953125"/>
     <use xlink:href="#DejaVuSans-62" x="188.134766"/>
     <use xlink:href="#DejaVuSans-2d" x="251.611328"/>
     <use xlink:href="#DejaVuSans-62" x="287.695312"/>
     <use xlink:href="#DejaVuSans-69" x="351.171875"/>
     <use xlink:href="#DejaVuSans-6f" x="378.955078"/>
     <use xlink:href="#DejaVuSans-62" x="440.136719"/>
     <use xlink:href="#DejaVuSans-6a" x="503.613281"/>
     <use xlink:href="#DejaVuSans-20" x="531.396484"/>
     <use xlink:href="#DejaVuSans-66" x="563.183594"/>
     <use xlink:href="#DejaVuSans-32" x="598.388672"/>
     <use xlink:href="#DejaVuSans-32" x="662.011719"/>
     <use xlink:href="#DejaVuSans-2c" x="725.634766"/>
     <use xlink:href="#DejaVuSans-20" x="757.421875"/>
     <use xlink:href="#DejaVuSans-66" x="789.208984"/>
     <use xlink:href="#DejaVuSans-32" x="824.414062"/>
     <use xlink:href="#DejaVuSans-33" x="888.037109"/>
     <use xlink:href="#DejaVuSans-2c" x="951.660156"/>
     <use xlink:href="#DejaVuSans-20" x="983.447266"/>
     <use xlink:href="#DejaVuSans-66" x="1015.234375"/>
     <use xlink:href="#DejaVuSans-32" x="1050.439453"/>
     <use xlink:href="#DejaVuSans-39" x="1114.0625"/>
     <use xlink:href="#DejaVuSans-2c" x="1177.685547"/>
     <use xlink:href="#DejaVuSans-20" x="1209.472656"/>
     <use xlink:href="#DejaVuSans-66" x="1241.259766"/>
     <use xlink:href="#DejaVuSans-33" x="1276.464844"/>
     <use xlink:href="#DejaVuSans-30" x="1340.087891"/>
     <use xlink:href="#DejaVuSans-2c" x="1403.710938"/>
     <use xlink:href="#DejaVuSans-20" x="1435.498047"/>
     <use xlink:href="#DejaVuSans-33" x="1467.285156"/>
     <use xlink:href="#DejaVuSans-2d" x="1530.908203"/>
     <use xlink:href="#DejaVuSans-44" x="1566.992188"/>
    </g>
    <!-- 58 targets: 1..-1.0e-4 -->
    <g transform="translate(60.632064 29.004495) scale(0.102 -0.102)">
     <defs>
      <path id="DejaVuSans-35" d="M 691 4666 
L 3169 4666 
L 3169 4134 
L 1269 4134 
L 1269 2991 
Q 1406 3038 1543 3061 
Q 1681 3084 1819 3084 
Q 2600 3084 3056 2656 
Q 3513 2228 3513 1497 
Q 3513 744 3044 326 
Q 2575 -91 1722 -91 
Q 1428 -91 1123 -41 
Q 819 9 494 109 
L 494 744 
Q 775 591 1075 516 
Q 1375 441 1709 441 
Q 2250 441 2565 725 
Q 2881 1009 2881 1497 
Q 2881 1984 2565 2268 
Q 2250 2553 1709 2553 
Q 1456 2553 1204 2497 
Q 953 2441 691 2322 
L 691 4666 
z
" transform="scale(0.015625)"/>
      <path id="DejaVuSans-3a" d="M 750 794 
L 1409 794 
L 1409 0 
L 750 0 
L 750 794 
z
M 750 3309 
L 1409 3309 
L 1409 2516 
L 750 2516 
L 750 3309 
z
" transform="scale(0.015625)"/>
     </defs>
     <use xlink:href="#DejaVuSans-35"/>
     <use xlink:href="#DejaVuSans-38" x="63.623047"/>
     <use xlink:href="#DejaVuSans-20" x="127.246094"/>
     <use xlink:href="#DejaVuSans-74" x="159.033203"/>
     <use xlink:href="#DejaVuSans-61" x="198.242188"/>
     <use xlink:href="#DejaVuSans-72" x="259.521484"/>
     <use xlink:href="#DejaVuSans-67" x="298.884766"/>
     <use xlink:href="#DejaVuSans-65" x="362.361328"/>
     <use xlink:href="#DejaVuSans-74" x="423.884766"/>
     <use xlink:href="#DejaVuSans-73" x="463.09375"/>
     <use xlink:href="#DejaVuSans-3a" x="515.193359"/>
     <use xlink:href="#DejaVuSans-20" x="548.884766"/>
     <use xlink:href="#DejaVuSans-31" x="580.671875"/>
     <use xlink:href="#DejaVuSans-2e" x="644.294922"/>
     <use xlink:href="#DejaVuSans-2e" x="676.082031"/>
     <use xlink:href="#DejaVuSans-2d" x="707.869141"/>
     <use xlink:href="#DejaVuSans-31" x="743.953125"/>
     <use xlink:href="#DejaVuSans-2e" x="807.576172"/>
     <use xlink:href="#DejaVuSans-30" x="839.363281"/>
     <use xlink:href="#DejaVuSans-65" x="902.986328"/>
     <use xlink:href="#DejaVuSans-2d" x="964.509766"/>
     <use xlink:href="#DejaVuSans-34" x="1000.59375"/>
    </g>
    <!-- 10 instances -->
    <g transform="translate(60.632064 40.426264) scale(0.102 -0.102)">
     <use xlink:href="#DejaVuSans-31"/>
     <use xlink:href="#DejaVuSans-30" x="63.623047"/>
     <use xlink:href="#DejaVuSans-20" x="127.246094"/>
     <use xlink:href="#DejaVuSans-69" x="159.033203"/>
     <use xlink:href="#DejaVuSans-6e" x="186.816406"/>
     <use xlink:href="#DejaVuSans-73" x="250.195312"/>
     <use xlink:href="#DejaVuSans-74" x="302.294922"/>
     <use xlink:href="#DejaVuSans-61" x="341.503906"/>
     <use xlink:href="#DejaVuSans-6e" x="402.783203"/>
     <use xlink:href="#DejaVuSans-63" x="466.162109"/>
     <use xlink:href="#DejaVuSans-65" x="521.142578"/>
     <use xlink:href="#DejaVuSans-73" x="582.666016"/>
    </g>
   </g>
   <g id="text_17">
    <!-- v2.6, hv-hash=ff0e71e8cd978373 -->
    <g style="fill: #808080" transform="translate(123.707887 293.943992) scale(0.1 -0.1)">
     <defs>
      <path id="DejaVuSans-68" d="M 3513 2113 
L 3513 0 
L 2938 0 
L 2938 2094 
Q 2938 2591 2744 2837 
Q 2550 3084 2163 3084 
Q 1697 3084 1428 2787 
Q 1159 2491 1159 1978 
L 1159 0 
L 581 0 
L 581 4863 
L 1159 4863 
L 1159 2956 
Q 1366 3272 1645 3428 
Q 1925 3584 2291 3584 
Q 2894 3584 3203 3211 
Q 3513 2838 3513 2113 
z
" transform="scale(0.015625)"/>
      <path id="DejaVuSans-3d" d="M 678 2906 
L 4684 2906 
L 4684 2381 
L 678 2381 
L 678 2906 
z
M 678 1631 
L 4684 1631 
L 4684 1100 
L 678 1100 
L 678 1631 
z
" transform="scale(0.015625)"/>
      <path id="DejaVuSans-37" d="M 525 4666 
L 3525 4666 
L 3525 4397 
L 1831 0 
L 1172 0 
L 2766 4134 
L 525 4134 
L 525 4666 
z
" transform="scale(0.015625)"/>
     </defs>
     <use xlink:href="#DejaVuSans-76"/>
     <use xlink:href="#DejaVuSans-32" x="59.179688"/>
     <use xlink:href="#DejaVuSans-2e" x="122.802734"/>
     <use xlink:href="#DejaVuSans-36" x="154.589844"/>
     <use xlink:href="#DejaVuSans-2c" x="218.212891"/>
     <use xlink:href="#DejaVuSans-20" x="250"/>
     <use xlink:href="#DejaVuSans-68" x="281.787109"/>
     <use xlink:href="#DejaVuSans-76" x="345.166016"/>
     <use xlink:href="#DejaVuSans-2d" x="401.720703"/>
     <use xlink:href="#DejaVuSans-68" x="437.804688"/>
     <use xlink:href="#DejaVuSans-61" x="501.183594"/>
     <use xlink:href="#DejaVuSans-73" x="562.462891"/>
     <use xlink:href="#DejaVuSans-68" x="614.5625"/>
     <use xlink:href="#DejaVuSans-3d" x="677.941406"/>
     <use xlink:href="#DejaVuSans-66" x="761.730469"/>
     <use xlink:href="#DejaVuSans-66" x="796.935547"/>
     <use xlink:href="#DejaVuSans-30" x="832.140625"/>
     <use xlink:href="#DejaVuSans-65" x="895.763672"/>
     <use xlink:href="#DejaVuSans-37" x="957.287109"/>
     <use xlink:href="#DejaVuSans-31" x="1020.910156"/>
     <use xlink:href="#DejaVuSans-65" x="1084.533203"/>
     <use xlink:href="#DejaVuSans-38" x="1146.056641"/>
     <use xlink:href="#DejaVuSans-63" x="1209.679688"/>
     <use xlink:href="#DejaVuSans-64" x="1264.660156"/>
     <use xlink:href="#DejaVuSans-39" x="1328.136719"/>
     <use xlink:href="#DejaVuSans-37" x="1391.759766"/>
     <use xlink:href="#DejaVuSans-38" x="1455.382812"/>
     <use xlink:href="#DejaVuSans-33" x="1519.005859"/>
     <use xlink:href="#DejaVuSans-37" x="1582.628906"/>
     <use xlink:href="#DejaVuSans-33" x="1646.251953"/>
    </g>
   </g>
  </g>
 </g>
 <defs>
  <clipPath id="p4baa49ebb1">
   <rect x="57.6" y="6.912" width="303.2064" height="292.032"/>
  </clipPath>
 </defs>
</svg>
