<?xml version="1.0" encoding="utf-8" standalone="no"?>
<!DOCTYPE svg PUBLIC "-//W3C//DTD SVG 1.1//EN"
  "http://www.w3.org/Graphics/SVG/1.1/DTD/svg11.dtd">
<svg xmlns:xlink="http://www.w3.org/1999/xlink" width="460.8pt" height="345.6pt" viewBox="0 0 460.8 345.6" xmlns="http://www.w3.org/2000/svg" version="1.1">
 <metadata>
  <rdf:RDF xmlns:dc="http://purl.org/dc/elements/1.1/" xmlns:cc="http://creativecommons.org/ns#" xmlns:rdf="http://www.w3.org/1999/02/22-rdf-syntax-ns#">
   <cc:Work>
    <dc:type rdf:resource="http://purl.org/dc/dcmitype/StillImage"/>
    <dc:date>2023-02-13T14:59:53.242078</dc:date>
    <dc:format>image/svg+xml</dc:format>
    <dc:creator>
     <cc:Agent>
      <dc:title>Matplotlib v3.6.3, https://matplotlib.org/</dc:title>
     </cc:Agent>
    </dc:creator>
   </cc:Work>
  </rdf:RDF>
 </metadata>
 <defs>
  <style type="text/css">*{stroke-linejoin: round; stroke-linecap: butt}</style>
 </defs>
 <g id="figure_1">
  <g id="patch_1">
   <path d="M 0 345.6 
L 460.8 345.6 
L 460.8 0 
L 0 0 
z
" style="fill: #ffffff"/>
  </g>
  <g id="axes_1">
   <g id="patch_2">
    <path d="M 57.6 298.944 
L 360.8064 298.944 
L 360.8064 6.912 
L 57.6 6.912 
z
" style="fill: #ffffff"/>
   </g>
   <g id="line2d_1">
    <path d="M 65.227428 298.944 
L 65.227428 297.685241 
L 70.639174 297.685241 
L 70.639174 295.167724 
L 81.166416 295.167724 
L 81.166416 292.650207 
L 83.678349 292.650207 
L 83.678349 291.391448 
L 85.894031 291.391448 
L 85.894031 288.873931 
L 94.205591 288.873931 
L 94.205591 286.356414 
L 100.9152 286.356414 
L 100.9152 283.838897 
L 104.344952 283.838897 
L 104.344952 281.321379 
L 105.112877 281.321379 
L 105.112877 278.803862 
L 110.897141 278.803862 
L 110.897141 276.286345 
L 118.152051 276.286345 
L 118.152051 275.027586 
L 119.24818 275.027586 
L 119.24818 272.510069 
L 121.892744 272.510069 
L 121.892744 271.25131 
L 126.274549 271.25131 
L 126.274549 269.992552 
L 127.911368 269.992552 
L 127.911368 268.733793 
L 134.14471 268.733793 
L 134.14471 264.957517 
L 135.237805 264.957517 
L 135.237805 261.181241 
L 135.835047 261.181241 
L 135.835047 257.404966 
L 140.725251 257.404966 
L 140.725251 254.887448 
L 141.50224 254.887448 
L 141.50224 252.369931 
L 141.825656 252.369931 
L 141.825656 249.852414 
L 142.248405 249.852414 
L 142.248405 246.076138 
L 145.678157 246.076138 
L 145.678157 244.817379 
L 150.289291 244.817379 
L 150.289291 243.558621 
L 153.821002 243.558621 
L 153.821002 241.041103 
L 154.377597 241.041103 
L 154.377597 238.523586 
L 154.757642 238.523586 
L 154.757642 236.006069 
L 156.255099 236.006069 
L 156.255099 234.74731 
L 158.847515 234.74731 
L 158.847515 232.229793 
L 161.391854 232.229793 
L 161.391854 228.453517 
L 162.704821 228.453517 
L 162.704821 224.677241 
L 163.59914 224.677241 
L 163.59914 223.418483 
L 168.037137 223.418483 
L 168.037137 220.900966 
L 168.560441 220.900966 
L 168.560441 217.12469 
L 171.046551 217.12469 
L 171.046551 214.607172 
L 173.77765 214.607172 
L 173.77765 212.089655 
L 174.030158 212.089655 
L 174.030158 209.572138 
L 176.075715 209.572138 
L 176.075715 207.054621 
L 176.57101 207.054621 
L 176.57101 204.537103 
L 178.734177 204.537103 
L 178.734177 200.760828 
L 179.282053 200.760828 
L 179.282053 198.24331 
L 180.137919 198.24331 
L 180.137919 195.725793 
L 180.862845 195.725793 
L 180.862845 193.208276 
L 182.158919 193.208276 
L 182.158919 191.949517 
L 186.51126 191.949517 
L 186.51126 190.690759 
L 188.606202 190.690759 
L 188.606202 188.173241 
L 191.401584 188.173241 
L 191.401584 184.396966 
L 192.343105 184.396966 
L 192.343105 181.879448 
L 193.618117 181.879448 
L 193.618117 178.103172 
L 196.931727 178.103172 
L 196.931727 176.844414 
L 197.158785 176.844414 
L 197.158785 174.326897 
L 198.275981 174.326897 
L 198.275981 173.068138 
L 200.706654 173.068138 
L 200.706654 171.809379 
L 201.222829 171.809379 
L 201.222829 169.291862 
L 202.514023 169.291862 
L 202.514023 165.515586 
L 203.710311 165.515586 
L 203.710311 161.73931 
L 204.714607 161.73931 
L 204.714607 160.480552 
L 205.718177 160.480552 
L 205.718177 156.704276 
L 206.670908 156.704276 
L 206.670908 154.186759 
L 207.790522 154.186759 
L 207.790522 152.928 
L 208.442793 152.928 
L 208.442793 150.410483 
L 209.385077 150.410483 
L 209.385077 146.634207 
L 211.216532 146.634207 
L 211.216532 145.375448 
L 211.816197 145.375448 
L 211.816197 141.599172 
L 215.760036 141.599172 
L 215.760036 140.340414 
L 217.051741 140.340414 
L 217.051741 137.822897 
L 217.322191 137.822897 
L 217.322191 134.046621 
L 217.704631 134.046621 
L 217.704631 132.787862 
L 220.047337 132.787862 
L 220.047337 129.011586 
L 222.840846 129.011586 
L 222.840846 127.752828 
L 223.18487 127.752828 
L 223.18487 126.494069 
L 225.585257 126.494069 
L 225.585257 122.717793 
L 227.542833 122.717793 
L 227.542833 118.941517 
L 230.26647 118.941517 
L 230.26647 115.165241 
L 230.398034 115.165241 
L 230.398034 112.647724 
L 230.552601 112.647724 
L 230.552601 111.388966 
L 231.734674 111.388966 
L 231.734674 108.871448 
L 232.391111 108.871448 
L 232.391111 105.095172 
L 232.609216 105.095172 
L 232.609216 102.577655 
L 233.955243 102.577655 
L 234.014992 100.060138 
L 234.873974 100.060138 
L 234.873974 97.542621 
L 235.720156 97.542621 
L 235.720156 93.766345 
L 236.507627 93.766345 
L 236.507627 91.248828 
L 236.90469 91.248828 
L 236.90469 89.990069 
L 238.440512 89.990069 
L 238.440512 86.213793 
L 238.911089 86.213793 
L 238.911089 84.955034 
L 241.386967 84.955034 
L 241.386967 82.437517 
L 242.779479 82.437517 
L 242.779479 79.92 
L 243.776353 79.92 
L 243.776353 77.402483 
L 247.786201 77.402483 
L 247.786201 73.626207 
L 247.958686 73.626207 
L 247.958686 69.849931 
L 255.821897 69.849931 
L 255.821897 68.591172 
L 258.129542 68.591172 
L 258.129542 66.073655 
L 258.407796 66.073655 
L 258.407796 62.297379 
L 260.137433 62.297379 
L 260.137433 61.038621 
L 260.277364 61.038621 
L 260.277364 58.521103 
L 261.130805 58.521103 
L 261.130805 56.003586 
L 263.436095 56.003586 
L 263.436095 52.22731 
L 265.33706 52.22731 
L 265.33706 49.709793 
L 267.334923 49.709793 
L 267.334923 48.451034 
L 270.782144 48.451034 
L 270.782144 45.933517 
L 273.429128 45.933517 
L 273.429128 42.157241 
L 360.8064 42.157241 
L 360.8064 42.157241 
" style="fill: none; stroke: #f5deb3; stroke-width: 4; stroke-linecap: square"/>
   </g>
   <g id="line2d_2">
    <defs>
     <path id="mde85215d97" d="M -0 7.778175 
L 7.778175 0 
L 0 -7.778175 
L -7.778175 -0 
z
" style="stroke: #f5deb3; stroke-width: 1.5; stroke-linejoin: miter"/>
    </defs>
    <g>
     <use xlink:href="#mde85215d97" x="179.282053" y="200.760828" style="fill: #f5deb3; stroke: #f5deb3; stroke-width: 1.5; stroke-linejoin: miter"/>
     <use xlink:href="#mde85215d97" x="243.776353" y="77.402483" style="fill: #f5deb3; stroke: #f5deb3; stroke-width: 1.5; stroke-linejoin: miter"/>
     <use xlink:href="#mde85215d97" x="273.429128" y="42.157241" style="fill: #f5deb3; stroke: #f5deb3; stroke-width: 1.5; stroke-linejoin: miter"/>
     <use xlink:href="#mde85215d97" x="273.429128" y="42.157241" style="fill: #f5deb3; stroke: #f5deb3; stroke-width: 1.5; stroke-linejoin: miter"/>
     <use xlink:href="#mde85215d97" x="360.8064" y="42.157241" style="fill: #f5deb3; stroke: #f5deb3; stroke-width: 1.5; stroke-linejoin: miter"/>
    </g>
   </g>
   <g id="line2d_3">
    <path style="fill: none; stroke: #f5deb3; stroke-width: 4; stroke-linecap: square"/>
    <g/>
   </g>
   <g id="line2d_4">
    <path d="M 360.8064 42.157241 
L 380.514816 12.75264 
" style="fill: none; stroke: #f5deb3; stroke-width: 4; stroke-linecap: square"/>
    <g>
     <use xlink:href="#mde85215d97" x="360.8064" y="42.157241" style="fill: #f5deb3; stroke: #f5deb3; stroke-width: 1.5; stroke-linejoin: miter"/>
     <use xlink:href="#mde85215d97" x="380.514816" y="12.75264" style="fill: #f5deb3; stroke: #f5deb3; stroke-width: 1.5; stroke-linejoin: miter"/>
    </g>
   </g>
   <g id="matplotlib.axis_1">
    <g id="xtick_1">
     <g id="line2d_5">
      <path d="M 57.6 298.944 
L 57.6 6.912 
" clip-path="url(#pda24681497)" style="fill: none; stroke: #b0b0b0; stroke-width: 0.8; stroke-linecap: square"/>
     </g>
     <g id="line2d_6">
      <defs>
       <path id="mf6be83c8ef" d="M 0 0 
L 0 3.5 
" style="stroke: #000000; stroke-width: 0.8"/>
      </defs>
      <g>
       <use xlink:href="#mf6be83c8ef" x="57.6" y="298.944" style="stroke: #000000; stroke-width: 0.8"/>
      </g>
     </g>
     <g id="text_1">
      <!-- 0 -->
      <g transform="translate(52.191875 318.861344) scale(0.17 -0.17)">
       <defs>
        <path id="DejaVuSans-30" d="M 2034 4250 
Q 1547 4250 1301 3770 
Q 1056 3291 1056 2328 
Q 1056 1369 1301 889 
Q 1547 409 2034 409 
Q 2525 409 2770 889 
Q 3016 1369 3016 2328 
Q 3016 3291 2770 3770 
Q 2525 4250 2034 4250 
z
M 2034 4750 
Q 2819 4750 3233 4129 
Q 3647 3509 3647 2328 
Q 3647 1150 3233 529 
Q 2819 -91 2034 -91 
Q 1250 -91 836 529 
Q 422 1150 422 2328 
Q 422 3509 836 4129 
Q 1250 4750 2034 4750 
z
" transform="scale(0.015625)"/>
       </defs>
       <use xlink:href="#DejaVuSans-30"/>
      </g>
     </g>
    </g>
    <g id="xtick_2">
     <g id="line2d_7">
      <path d="M 144.2304 298.944 
L 144.2304 6.912 
" clip-path="url(#pda24681497)" style="fill: none; stroke: #b0b0b0; stroke-width: 0.8; stroke-linecap: square"/>
     </g>
     <g id="line2d_8">
      <g>
       <use xlink:href="#mf6be83c8ef" x="144.2304" y="298.944" style="stroke: #000000; stroke-width: 0.8"/>
      </g>
     </g>
     <g id="text_2">
      <!-- 2 -->
      <g transform="translate(138.822275 318.861344) scale(0.17 -0.17)">
       <defs>
        <path id="DejaVuSans-32" d="M 1228 531 
L 3431 531 
L 3431 0 
L 469 0 
L 469 531 
Q 828 903 1448 1529 
Q 2069 2156 2228 2338 
Q 2531 2678 2651 2914 
Q 2772 3150 2772 3378 
Q 2772 3750 2511 3984 
Q 2250 4219 1831 4219 
Q 1534 4219 1204 4116 
Q 875 4013 500 3803 
L 500 4441 
Q 881 4594 1212 4672 
Q 1544 4750 1819 4750 
Q 2544 4750 2975 4387 
Q 3406 4025 3406 3419 
Q 3406 3131 3298 2873 
Q 3191 2616 2906 2266 
Q 2828 2175 2409 1742 
Q 1991 1309 1228 531 
z
" transform="scale(0.015625)"/>
       </defs>
       <use xlink:href="#DejaVuSans-32"/>
      </g>
     </g>
    </g>
    <g id="xtick_3">
     <g id="line2d_9">
      <path d="M 230.8608 298.944 
L 230.8608 6.912 
" clip-path="url(#pda24681497)" style="fill: none; stroke: #b0b0b0; stroke-width: 0.8; stroke-linecap: square"/>
     </g>
     <g id="line2d_10">
      <g>
       <use xlink:href="#mf6be83c8ef" x="230.8608" y="298.944" style="stroke: #000000; stroke-width: 0.8"/>
      </g>
     </g>
     <g id="text_3">
      <!-- 4 -->
      <g transform="translate(225.452675 318.861344) scale(0.17 -0.17)">
       <defs>
        <path id="DejaVuSans-34" d="M 2419 4116 
L 825 1625 
L 2419 1625 
L 2419 4116 
z
M 2253 4666 
L 3047 4666 
L 3047 1625 
L 3713 1625 
L 3713 1100 
L 3047 1100 
L 3047 0 
L 2419 0 
L 2419 1100 
L 313 1100 
L 313 1709 
L 2253 4666 
z
" transform="scale(0.015625)"/>
       </defs>
       <use xlink:href="#DejaVuSans-34"/>
      </g>
     </g>
    </g>
    <g id="xtick_4">
     <g id="line2d_11">
      <path d="M 317.4912 298.944 
L 317.4912 6.912 
" clip-path="url(#pda24681497)" style="fill: none; stroke: #b0b0b0; stroke-width: 0.8; stroke-linecap: square"/>
     </g>
     <g id="line2d_12">
      <g>
       <use xlink:href="#mf6be83c8ef" x="317.4912" y="298.944" style="stroke: #000000; stroke-width: 0.8"/>
      </g>
     </g>
     <g id="text_4">
      <!-- 6 -->
      <g transform="translate(312.083075 318.861344) scale(0.17 -0.17)">
       <defs>
        <path id="DejaVuSans-36" d="M 2113 2584 
Q 1688 2584 1439 2293 
Q 1191 2003 1191 1497 
Q 1191 994 1439 701 
Q 1688 409 2113 409 
Q 2538 409 2786 701 
Q 3034 994 3034 1497 
Q 3034 2003 2786 2293 
Q 2538 2584 2113 2584 
z
M 3366 4563 
L 3366 3988 
Q 3128 4100 2886 4159 
Q 2644 4219 2406 4219 
Q 1781 4219 1451 3797 
Q 1122 3375 1075 2522 
Q 1259 2794 1537 2939 
Q 1816 3084 2150 3084 
Q 2853 3084 3261 2657 
Q 3669 2231 3669 1497 
Q 3669 778 3244 343 
Q 2819 -91 2113 -91 
Q 1303 -91 875 529 
Q 447 1150 447 2328 
Q 447 3434 972 4092 
Q 1497 4750 2381 4750 
Q 2619 4750 2861 4703 
Q 3103 4656 3366 4563 
z
" transform="scale(0.015625)"/>
       </defs>
       <use xlink:href="#DejaVuSans-36"/>
      </g>
     </g>
    </g>
    <g id="xtick_5">
     <g id="line2d_13">
      <path d="M 100.9152 298.944 
L 100.9152 6.912 
" clip-path="url(#pda24681497)" style="fill: none; stroke: #b0b0b0; stroke-width: 0.8; stroke-linecap: square"/>
     </g>
     <g id="line2d_14">
      <defs>
       <path id="md4f9ce0d57" d="M 0 0 
L 0 2 
" style="stroke: #000000; stroke-width: 0.6"/>
      </defs>
      <g>
       <use xlink:href="#md4f9ce0d57" x="100.9152" y="298.944" style="stroke: #000000; stroke-width: 0.6"/>
      </g>
     </g>
    </g>
    <g id="xtick_6">
     <g id="line2d_15">
      <path d="M 187.5456 298.944 
L 187.5456 6.912 
" clip-path="url(#pda24681497)" style="fill: none; stroke: #b0b0b0; stroke-width: 0.8; stroke-linecap: square"/>
     </g>
     <g id="line2d_16">
      <g>
       <use xlink:href="#md4f9ce0d57" x="187.5456" y="298.944" style="stroke: #000000; stroke-width: 0.6"/>
      </g>
     </g>
    </g>
    <g id="xtick_7">
     <g id="line2d_17">
      <path d="M 274.176 298.944 
L 274.176 6.912 
" clip-path="url(#pda24681497)" style="fill: none; stroke: #b0b0b0; stroke-width: 0.8; stroke-linecap: square"/>
     </g>
     <g id="line2d_18">
      <g>
       <use xlink:href="#md4f9ce0d57" x="274.176" y="298.944" style="stroke: #000000; stroke-width: 0.6"/>
      </g>
     </g>
    </g>
    <g id="xtick_8">
     <g id="line2d_19">
      <path d="M 360.8064 298.944 
L 360.8064 6.912 
" clip-path="url(#pda24681497)" style="fill: none; stroke: #b0b0b0; stroke-width: 0.8; stroke-linecap: square"/>
     </g>
     <g id="line2d_20">
      <g>
       <use xlink:href="#md4f9ce0d57" x="360.8064" y="298.944" style="stroke: #000000; stroke-width: 0.6"/>
      </g>
     </g>
    </g>
    <g id="text_5">
     <!-- log10(# f-evals / dimension) -->
     <g transform="translate(88.823278 339.314156) scale(0.17 -0.17)">
      <defs>
       <path id="DejaVuSans-6c" d="M 603 4863 
L 1178 4863 
L 1178 0 
L 603 0 
L 603 4863 
z
" transform="scale(0.015625)"/>
       <path id="DejaVuSans-6f" d="M 1959 3097 
Q 1497 3097 1228 2736 
Q 959 2375 959 1747 
Q 959 1119 1226 758 
Q 1494 397 1959 397 
Q 2419 397 2687 759 
Q 2956 1122 2956 1747 
Q 2956 2369 2687 2733 
Q 2419 3097 1959 3097 
z
M 1959 3584 
Q 2709 3584 3137 3096 
Q 3566 2609 3566 1747 
Q 3566 888 3137 398 
Q 2709 -91 1959 -91 
Q 1206 -91 779 398 
Q 353 888 353 1747 
Q 353 2609 779 3096 
Q 1206 3584 1959 3584 
z
" transform="scale(0.015625)"/>
       <path id="DejaVuSans-67" d="M 2906 1791 
Q 2906 2416 2648 2759 
Q 2391 3103 1925 3103 
Q 1463 3103 1205 2759 
Q 947 2416 947 1791 
Q 947 1169 1205 825 
Q 1463 481 1925 481 
Q 2391 481 2648 825 
Q 2906 1169 2906 1791 
z
M 3481 434 
Q 3481 -459 3084 -895 
Q 2688 -1331 1869 -1331 
Q 1566 -1331 1297 -1286 
Q 1028 -1241 775 -1147 
L 775 -588 
Q 1028 -725 1275 -790 
Q 1522 -856 1778 -856 
Q 2344 -856 2625 -561 
Q 2906 -266 2906 331 
L 2906 616 
Q 2728 306 2450 153 
Q 2172 0 1784 0 
Q 1141 0 747 490 
Q 353 981 353 1791 
Q 353 2603 747 3093 
Q 1141 3584 1784 3584 
Q 2172 3584 2450 3431 
Q 2728 3278 2906 2969 
L 2906 3500 
L 3481 3500 
L 3481 434 
z
" transform="scale(0.015625)"/>
       <path id="DejaVuSans-31" d="M 794 531 
L 1825 531 
L 1825 4091 
L 703 3866 
L 703 4441 
L 1819 4666 
L 2450 4666 
L 2450 531 
L 3481 531 
L 3481 0 
L 794 0 
L 794 531 
z
" transform="scale(0.015625)"/>
       <path id="DejaVuSans-28" d="M 1984 4856 
Q 1566 4138 1362 3434 
Q 1159 2731 1159 2009 
Q 1159 1288 1364 580 
Q 1569 -128 1984 -844 
L 1484 -844 
Q 1016 -109 783 600 
Q 550 1309 550 2009 
Q 550 2706 781 3412 
Q 1013 4119 1484 4856 
L 1984 4856 
z
" transform="scale(0.015625)"/>
       <path id="DejaVuSans-23" d="M 3272 2816 
L 2363 2816 
L 2100 1772 
L 3016 1772 
L 3272 2816 
z
M 2803 4594 
L 2478 3297 
L 3391 3297 
L 3719 4594 
L 4219 4594 
L 3897 3297 
L 4872 3297 
L 4872 2816 
L 3775 2816 
L 3519 1772 
L 4513 1772 
L 4513 1294 
L 3397 1294 
L 3072 0 
L 2572 0 
L 2894 1294 
L 1978 1294 
L 1656 0 
L 1153 0 
L 1478 1294 
L 494 1294 
L 494 1772 
L 1594 1772 
L 1856 2816 
L 850 2816 
L 850 3297 
L 1978 3297 
L 2297 4594 
L 2803 4594 
z
" transform="scale(0.015625)"/>
       <path id="DejaVuSans-20" transform="scale(0.015625)"/>
       <path id="DejaVuSans-66" d="M 2375 4863 
L 2375 4384 
L 1825 4384 
Q 1516 4384 1395 4259 
Q 1275 4134 1275 3809 
L 1275 3500 
L 2222 3500 
L 2222 3053 
L 1275 3053 
L 1275 0 
L 697 0 
L 697 3053 
L 147 3053 
L 147 3500 
L 697 3500 
L 697 3744 
Q 697 4328 969 4595 
Q 1241 4863 1831 4863 
L 2375 4863 
z
" transform="scale(0.015625)"/>
       <path id="DejaVuSans-2d" d="M 313 2009 
L 1997 2009 
L 1997 1497 
L 313 1497 
L 313 2009 
z
" transform="scale(0.015625)"/>
       <path id="DejaVuSans-65" d="M 3597 1894 
L 3597 1613 
L 953 1613 
Q 991 1019 1311 708 
Q 1631 397 2203 397 
Q 2534 397 2845 478 
Q 3156 559 3463 722 
L 3463 178 
Q 3153 47 2828 -22 
Q 2503 -91 2169 -91 
Q 1331 -91 842 396 
Q 353 884 353 1716 
Q 353 2575 817 3079 
Q 1281 3584 2069 3584 
Q 2775 3584 3186 3129 
Q 3597 2675 3597 1894 
z
M 3022 2063 
Q 3016 2534 2758 2815 
Q 2500 3097 2075 3097 
Q 1594 3097 1305 2825 
Q 1016 2553 972 2059 
L 3022 2063 
z
" transform="scale(0.015625)"/>
       <path id="DejaVuSans-76" d="M 191 3500 
L 800 3500 
L 1894 563 
L 2988 3500 
L 3597 3500 
L 2284 0 
L 1503 0 
L 191 3500 
z
" transform="scale(0.015625)"/>
       <path id="DejaVuSans-61" d="M 2194 1759 
Q 1497 1759 1228 1600 
Q 959 1441 959 1056 
Q 959 750 1161 570 
Q 1363 391 1709 391 
Q 2188 391 2477 730 
Q 2766 1069 2766 1631 
L 2766 1759 
L 2194 1759 
z
M 3341 1997 
L 3341 0 
L 2766 0 
L 2766 531 
Q 2569 213 2275 61 
Q 1981 -91 1556 -91 
Q 1019 -91 701 211 
Q 384 513 384 1019 
Q 384 1609 779 1909 
Q 1175 2209 1959 2209 
L 2766 2209 
L 2766 2266 
Q 2766 2663 2505 2880 
Q 2244 3097 1772 3097 
Q 1472 3097 1187 3025 
Q 903 2953 641 2809 
L 641 3341 
Q 956 3463 1253 3523 
Q 1550 3584 1831 3584 
Q 2591 3584 2966 3190 
Q 3341 2797 3341 1997 
z
" transform="scale(0.015625)"/>
       <path id="DejaVuSans-73" d="M 2834 3397 
L 2834 2853 
Q 2591 2978 2328 3040 
Q 2066 3103 1784 3103 
Q 1356 3103 1142 2972 
Q 928 2841 928 2578 
Q 928 2378 1081 2264 
Q 1234 2150 1697 2047 
L 1894 2003 
Q 2506 1872 2764 1633 
Q 3022 1394 3022 966 
Q 3022 478 2636 193 
Q 2250 -91 1575 -91 
Q 1294 -91 989 -36 
Q 684 19 347 128 
L 347 722 
Q 666 556 975 473 
Q 1284 391 1588 391 
Q 1994 391 2212 530 
Q 2431 669 2431 922 
Q 2431 1156 2273 1281 
Q 2116 1406 1581 1522 
L 1381 1569 
Q 847 1681 609 1914 
Q 372 2147 372 2553 
Q 372 3047 722 3315 
Q 1072 3584 1716 3584 
Q 2034 3584 2315 3537 
Q 2597 3491 2834 3397 
z
" transform="scale(0.015625)"/>
       <path id="DejaVuSans-2f" d="M 1625 4666 
L 2156 4666 
L 531 -594 
L 0 -594 
L 1625 4666 
z
" transform="scale(0.015625)"/>
       <path id="DejaVuSans-64" d="M 2906 2969 
L 2906 4863 
L 3481 4863 
L 3481 0 
L 2906 0 
L 2906 525 
Q 2725 213 2448 61 
Q 2172 -91 1784 -91 
Q 1150 -91 751 415 
Q 353 922 353 1747 
Q 353 2572 751 3078 
Q 1150 3584 1784 3584 
Q 2172 3584 2448 3432 
Q 2725 3281 2906 2969 
z
M 947 1747 
Q 947 1113 1208 752 
Q 1469 391 1925 391 
Q 2381 391 2643 752 
Q 2906 1113 2906 1747 
Q 2906 2381 2643 2742 
Q 2381 3103 1925 3103 
Q 1469 3103 1208 2742 
Q 947 2381 947 1747 
z
" transform="scale(0.015625)"/>
       <path id="DejaVuSans-69" d="M 603 3500 
L 1178 3500 
L 1178 0 
L 603 0 
L 603 3500 
z
M 603 4863 
L 1178 4863 
L 1178 4134 
L 603 4134 
L 603 4863 
z
" transform="scale(0.015625)"/>
       <path id="DejaVuSans-6d" d="M 3328 2828 
Q 3544 3216 3844 3400 
Q 4144 3584 4550 3584 
Q 5097 3584 5394 3201 
Q 5691 2819 5691 2113 
L 5691 0 
L 5113 0 
L 5113 2094 
Q 5113 2597 4934 2840 
Q 4756 3084 4391 3084 
Q 3944 3084 3684 2787 
Q 3425 2491 3425 1978 
L 3425 0 
L 2847 0 
L 2847 2094 
Q 2847 2600 2669 2842 
Q 2491 3084 2119 3084 
Q 1678 3084 1418 2786 
Q 1159 2488 1159 1978 
L 1159 0 
L 581 0 
L 581 3500 
L 1159 3500 
L 1159 2956 
Q 1356 3278 1631 3431 
Q 1906 3584 2284 3584 
Q 2666 3584 2933 3390 
Q 3200 3197 3328 2828 
z
" transform="scale(0.015625)"/>
       <path id="DejaVuSans-6e" d="M 3513 2113 
L 3513 0 
L 2938 0 
L 2938 2094 
Q 2938 2591 2744 2837 
Q 2550 3084 2163 3084 
Q 1697 3084 1428 2787 
Q 1159 2491 1159 1978 
L 1159 0 
L 581 0 
L 581 3500 
L 1159 3500 
L 1159 2956 
Q 1366 3272 1645 3428 
Q 1925 3584 2291 3584 
Q 2894 3584 3203 3211 
Q 3513 2838 3513 2113 
z
" transform="scale(0.015625)"/>
       <path id="DejaVuSans-29" d="M 513 4856 
L 1013 4856 
Q 1481 4119 1714 3412 
Q 1947 2706 1947 2009 
Q 1947 1309 1714 600 
Q 1481 -109 1013 -844 
L 513 -844 
Q 928 -128 1133 580 
Q 1338 1288 1338 2009 
Q 1338 2731 1133 3434 
Q 928 4138 513 4856 
z
" transform="scale(0.015625)"/>
      </defs>
      <use xlink:href="#DejaVuSans-6c"/>
      <use xlink:href="#DejaVuSans-6f" x="27.783203"/>
      <use xlink:href="#DejaVuSans-67" x="88.964844"/>
      <use xlink:href="#DejaVuSans-31" x="152.441406"/>
      <use xlink:href="#DejaVuSans-30" x="216.064453"/>
      <use xlink:href="#DejaVuSans-28" x="279.6875"/>
      <use xlink:href="#DejaVuSans-23" x="318.701172"/>
      <use xlink:href="#DejaVuSans-20" x="402.490234"/>
      <use xlink:href="#DejaVuSans-66" x="434.277344"/>
      <use xlink:href="#DejaVuSans-2d" x="463.982422"/>
      <use xlink:href="#DejaVuSans-65" x="500.066406"/>
      <use xlink:href="#DejaVuSans-76" x="561.589844"/>
      <use xlink:href="#DejaVuSans-61" x="620.769531"/>
      <use xlink:href="#DejaVuSans-6c" x="682.048828"/>
      <use xlink:href="#DejaVuSans-73" x="709.832031"/>
      <use xlink:href="#DejaVuSans-20" x="761.931641"/>
      <use xlink:href="#DejaVuSans-2f" x="793.71875"/>
      <use xlink:href="#DejaVuSans-20" x="827.410156"/>
      <use xlink:href="#DejaVuSans-64" x="859.197266"/>
      <use xlink:href="#DejaVuSans-69" x="922.673828"/>
      <use xlink:href="#DejaVuSans-6d" x="950.457031"/>
      <use xlink:href="#DejaVuSans-65" x="1047.869141"/>
      <use xlink:href="#DejaVuSans-6e" x="1109.392578"/>
      <use xlink:href="#DejaVuSans-73" x="1172.771484"/>
      <use xlink:href="#DejaVuSans-69" x="1224.871094"/>
      <use xlink:href="#DejaVuSans-6f" x="1252.654297"/>
      <use xlink:href="#DejaVuSans-6e" x="1313.835938"/>
      <use xlink:href="#DejaVuSans-29" x="1377.214844"/>
     </g>
    </g>
   </g>
   <g id="matplotlib.axis_2">
    <g id="ytick_1">
     <g id="line2d_21">
      <path d="M 57.6 298.944 
L 360.8064 298.944 
" clip-path="url(#pda24681497)" style="fill: none; stroke: #b0b0b0; stroke-width: 0.8; stroke-linecap: square"/>
     </g>
     <g id="line2d_22">
      <defs>
       <path id="m87de2000f1" d="M 0 0 
L -3.5 0 
" style="stroke: #000000; stroke-width: 0.8"/>
      </defs>
      <g>
       <use xlink:href="#m87de2000f1" x="57.6" y="298.944" style="stroke: #000000; stroke-width: 0.8"/>
      </g>
     </g>
     <g id="text_6">
      <!-- 0.0 -->
      <g transform="translate(25.155 305.02275) scale(0.16 -0.16)">
       <defs>
        <path id="DejaVuSans-2e" d="M 684 794 
L 1344 794 
L 1344 0 
L 684 0 
L 684 794 
z
" transform="scale(0.015625)"/>
       </defs>
       <use xlink:href="#DejaVuSans-30"/>
       <use xlink:href="#DejaVuSans-2e" x="63.623047"/>
       <use xlink:href="#DejaVuSans-30" x="95.410156"/>
      </g>
     </g>
    </g>
    <g id="ytick_2">
     <g id="line2d_23">
      <path d="M 57.6 240.5376 
L 360.8064 240.5376 
" clip-path="url(#pda24681497)" style="fill: none; stroke: #b0b0b0; stroke-width: 0.8; stroke-linecap: square"/>
     </g>
     <g id="line2d_24">
      <g>
       <use xlink:href="#m87de2000f1" x="57.6" y="240.5376" style="stroke: #000000; stroke-width: 0.8"/>
      </g>
     </g>
     <g id="text_7">
      <!-- 0.2 -->
      <g transform="translate(25.155 246.61635) scale(0.16 -0.16)">
       <use xlink:href="#DejaVuSans-30"/>
       <use xlink:href="#DejaVuSans-2e" x="63.623047"/>
       <use xlink:href="#DejaVuSans-32" x="95.410156"/>
      </g>
     </g>
    </g>
    <g id="ytick_3">
     <g id="line2d_25">
      <path d="M 57.6 182.1312 
L 360.8064 182.1312 
" clip-path="url(#pda24681497)" style="fill: none; stroke: #b0b0b0; stroke-width: 0.8; stroke-linecap: square"/>
     </g>
     <g id="line2d_26">
      <g>
       <use xlink:href="#m87de2000f1" x="57.6" y="182.1312" style="stroke: #000000; stroke-width: 0.8"/>
      </g>
     </g>
     <g id="text_8">
      <!-- 0.4 -->
      <g transform="translate(25.155 188.20995) scale(0.16 -0.16)">
       <use xlink:href="#DejaVuSans-30"/>
       <use xlink:href="#DejaVuSans-2e" x="63.623047"/>
       <use xlink:href="#DejaVuSans-34" x="95.410156"/>
      </g>
     </g>
    </g>
    <g id="ytick_4">
     <g id="line2d_27">
      <path d="M 57.6 123.7248 
L 360.8064 123.7248 
" clip-path="url(#pda24681497)" style="fill: none; stroke: #b0b0b0; stroke-width: 0.8; stroke-linecap: square"/>
     </g>
     <g id="line2d_28">
      <g>
       <use xlink:href="#m87de2000f1" x="57.6" y="123.7248" style="stroke: #000000; stroke-width: 0.8"/>
      </g>
     </g>
     <g id="text_9">
      <!-- 0.6 -->
      <g transform="translate(25.155 129.80355) scale(0.16 -0.16)">
       <use xlink:href="#DejaVuSans-30"/>
       <use xlink:href="#DejaVuSans-2e" x="63.623047"/>
       <use xlink:href="#DejaVuSans-36" x="95.410156"/>
      </g>
     </g>
    </g>
    <g id="ytick_5">
     <g id="line2d_29">
      <path d="M 57.6 65.3184 
L 360.8064 65.3184 
" clip-path="url(#pda24681497)" style="fill: none; stroke: #b0b0b0; stroke-width: 0.8; stroke-linecap: square"/>
     </g>
     <g id="line2d_30">
      <g>
       <use xlink:href="#m87de2000f1" x="57.6" y="65.3184" style="stroke: #000000; stroke-width: 0.8"/>
      </g>
     </g>
     <g id="text_10">
      <!-- 0.8 -->
      <g transform="translate(25.155 71.39715) scale(0.16 -0.16)">
       <defs>
        <path id="DejaVuSans-38" d="M 2034 2216 
Q 1584 2216 1326 1975 
Q 1069 1734 1069 1313 
Q 1069 891 1326 650 
Q 1584 409 2034 409 
Q 2484 409 2743 651 
Q 3003 894 3003 1313 
Q 3003 1734 2745 1975 
Q 2488 2216 2034 2216 
z
M 1403 2484 
Q 997 2584 770 2862 
Q 544 3141 544 3541 
Q 544 4100 942 4425 
Q 1341 4750 2034 4750 
Q 2731 4750 3128 4425 
Q 3525 4100 3525 3541 
Q 3525 3141 3298 2862 
Q 3072 2584 2669 2484 
Q 3125 2378 3379 2068 
Q 3634 1759 3634 1313 
Q 3634 634 3220 271 
Q 2806 -91 2034 -91 
Q 1263 -91 848 271 
Q 434 634 434 1313 
Q 434 1759 690 2068 
Q 947 2378 1403 2484 
z
M 1172 3481 
Q 1172 3119 1398 2916 
Q 1625 2713 2034 2713 
Q 2441 2713 2670 2916 
Q 2900 3119 2900 3481 
Q 2900 3844 2670 4047 
Q 2441 4250 2034 4250 
Q 1625 4250 1398 4047 
Q 1172 3844 1172 3481 
z
" transform="scale(0.015625)"/>
       </defs>
       <use xlink:href="#DejaVuSans-30"/>
       <use xlink:href="#DejaVuSans-2e" x="63.623047"/>
       <use xlink:href="#DejaVuSans-38" x="95.410156"/>
      </g>
     </g>
    </g>
    <g id="ytick_6">
     <g id="line2d_31">
      <path d="M 57.6 6.912 
L 360.8064 6.912 
" clip-path="url(#pda24681497)" style="fill: none; stroke: #b0b0b0; stroke-width: 0.8; stroke-linecap: square"/>
     </g>
     <g id="line2d_32">
      <g>
       <use xlink:href="#m87de2000f1" x="57.6" y="6.912" style="stroke: #000000; stroke-width: 0.8"/>
      </g>
     </g>
     <g id="text_11">
      <!-- 1.0 -->
      <g transform="translate(25.155 12.99075) scale(0.16 -0.16)">
       <use xlink:href="#DejaVuSans-31"/>
       <use xlink:href="#DejaVuSans-2e" x="63.623047"/>
       <use xlink:href="#DejaVuSans-30" x="95.410156"/>
      </g>
     </g>
    </g>
    <g id="text_12">
     <!-- Fraction of function,target pairs -->
     <g transform="translate(17.619531 287.313) rotate(-90) scale(0.17 -0.17)">
      <defs>
       <path id="DejaVuSans-46" d="M 628 4666 
L 3309 4666 
L 3309 4134 
L 1259 4134 
L 1259 2759 
L 3109 2759 
L 3109 2228 
L 1259 2228 
L 1259 0 
L 628 0 
L 628 4666 
z
" transform="scale(0.015625)"/>
       <path id="DejaVuSans-72" d="M 2631 2963 
Q 2534 3019 2420 3045 
Q 2306 3072 2169 3072 
Q 1681 3072 1420 2755 
Q 1159 2438 1159 1844 
L 1159 0 
L 581 0 
L 581 3500 
L 1159 3500 
L 1159 2956 
Q 1341 3275 1631 3429 
Q 1922 3584 2338 3584 
Q 2397 3584 2469 3576 
Q 2541 3569 2628 3553 
L 2631 2963 
z
" transform="scale(0.015625)"/>
       <path id="DejaVuSans-63" d="M 3122 3366 
L 3122 2828 
Q 2878 2963 2633 3030 
Q 2388 3097 2138 3097 
Q 1578 3097 1268 2742 
Q 959 2388 959 1747 
Q 959 1106 1268 751 
Q 1578 397 2138 397 
Q 2388 397 2633 464 
Q 2878 531 3122 666 
L 3122 134 
Q 2881 22 2623 -34 
Q 2366 -91 2075 -91 
Q 1284 -91 818 406 
Q 353 903 353 1747 
Q 353 2603 823 3093 
Q 1294 3584 2113 3584 
Q 2378 3584 2631 3529 
Q 2884 3475 3122 3366 
z
" transform="scale(0.015625)"/>
       <path id="DejaVuSans-74" d="M 1172 4494 
L 1172 3500 
L 2356 3500 
L 2356 3053 
L 1172 3053 
L 1172 1153 
Q 1172 725 1289 603 
Q 1406 481 1766 481 
L 2356 481 
L 2356 0 
L 1766 0 
Q 1100 0 847 248 
Q 594 497 594 1153 
L 594 3053 
L 172 3053 
L 172 3500 
L 594 3500 
L 594 4494 
L 1172 4494 
z
" transform="scale(0.015625)"/>
       <path id="DejaVuSans-75" d="M 544 1381 
L 544 3500 
L 1119 3500 
L 1119 1403 
Q 1119 906 1312 657 
Q 1506 409 1894 409 
Q 2359 409 2629 706 
Q 2900 1003 2900 1516 
L 2900 3500 
L 3475 3500 
L 3475 0 
L 2900 0 
L 2900 538 
Q 2691 219 2414 64 
Q 2138 -91 1772 -91 
Q 1169 -91 856 284 
Q 544 659 544 1381 
z
M 1991 3584 
L 1991 3584 
z
" transform="scale(0.015625)"/>
       <path id="DejaVuSans-2c" d="M 750 794 
L 1409 794 
L 1409 256 
L 897 -744 
L 494 -744 
L 750 256 
L 750 794 
z
" transform="scale(0.015625)"/>
       <path id="DejaVuSans-70" d="M 1159 525 
L 1159 -1331 
L 581 -1331 
L 581 3500 
L 1159 3500 
L 1159 2969 
Q 1341 3281 1617 3432 
Q 1894 3584 2278 3584 
Q 2916 3584 3314 3078 
Q 3713 2572 3713 1747 
Q 3713 922 3314 415 
Q 2916 -91 2278 -91 
Q 1894 -91 1617 61 
Q 1341 213 1159 525 
z
M 3116 1747 
Q 3116 2381 2855 2742 
Q 2594 3103 2138 3103 
Q 1681 3103 1420 2742 
Q 1159 2381 1159 1747 
Q 1159 1113 1420 752 
Q 1681 391 2138 391 
Q 2594 391 2855 752 
Q 3116 1113 3116 1747 
z
" transform="scale(0.015625)"/>
      </defs>
      <use xlink:href="#DejaVuSans-46"/>
      <use xlink:href="#DejaVuSans-72" x="50.269531"/>
      <use xlink:href="#DejaVuSans-61" x="91.382812"/>
      <use xlink:href="#DejaVuSans-63" x="152.662109"/>
      <use xlink:href="#DejaVuSans-74" x="207.642578"/>
      <use xlink:href="#DejaVuSans-69" x="246.851562"/>
      <use xlink:href="#DejaVuSans-6f" x="274.634766"/>
      <use xlink:href="#DejaVuSans-6e" x="335.816406"/>
      <use xlink:href="#DejaVuSans-20" x="399.195312"/>
      <use xlink:href="#DejaVuSans-6f" x="430.982422"/>
      <use xlink:href="#DejaVuSans-66" x="492.164062"/>
      <use xlink:href="#DejaVuSans-20" x="527.369141"/>
      <use xlink:href="#DejaVuSans-66" x="559.15625"/>
      <use xlink:href="#DejaVuSans-75" x="594.361328"/>
      <use xlink:href="#DejaVuSans-6e" x="657.740234"/>
      <use xlink:href="#DejaVuSans-63" x="721.119141"/>
      <use xlink:href="#DejaVuSans-74" x="776.099609"/>
      <use xlink:href="#DejaVuSans-69" x="815.308594"/>
      <use xlink:href="#DejaVuSans-6f" x="843.091797"/>
      <use xlink:href="#DejaVuSans-6e" x="904.273438"/>
      <use xlink:href="#DejaVuSans-2c" x="967.652344"/>
      <use xlink:href="#DejaVuSans-74" x="999.439453"/>
      <use xlink:href="#DejaVuSans-61" x="1038.648438"/>
      <use xlink:href="#DejaVuSans-72" x="1099.927734"/>
      <use xlink:href="#DejaVuSans-67" x="1139.291016"/>
      <use xlink:href="#DejaVuSans-65" x="1202.767578"/>
      <use xlink:href="#DejaVuSans-74" x="1264.291016"/>
      <use xlink:href="#DejaVuSans-20" x="1303.5"/>
      <use xlink:href="#DejaVuSans-70" x="1335.287109"/>
      <use xlink:href="#DejaVuSans-61" x="1398.763672"/>
      <use xlink:href="#DejaVuSans-69" x="1460.042969"/>
      <use xlink:href="#DejaVuSans-72" x="1487.826172"/>
      <use xlink:href="#DejaVuSans-73" x="1528.939453"/>
     </g>
    </g>
   </g>
   <g id="line2d_33">
    <defs>
     <path id="md2e686e6fc" d="M 0 1.5 
C 0.397805 1.5 0.77937 1.341951 1.06066 1.06066 
C 1.341951 0.77937 1.5 0.397805 1.5 0 
C 1.5 -0.397805 1.341951 -0.77937 1.06066 -1.06066 
C 0.77937 -1.341951 0.397805 -1.5 0 -1.5 
C -0.397805 -1.5 -0.77937 -1.341951 -1.06066 -1.06066 
C -1.341951 -0.77937 -1.5 -0.397805 -1.5 0 
C -1.5 0.397805 -1.341951 0.77937 -1.06066 1.06066 
C -0.77937 1.341951 -0.397805 1.5 0 1.5 
z
" style="stroke: #f5deb3"/>
    </defs>
    <g>
     <use xlink:href="#md2e686e6fc" x="273.429128" y="42.157241" style="fill: #f5deb3; stroke: #f5deb3"/>
     <use xlink:href="#md2e686e6fc" x="273.429128" y="42.157241" style="fill: #f5deb3; stroke: #f5deb3"/>
    </g>
   </g>
   <g id="line2d_34">
    <defs>
     <path id="mddd3fcf8cc" d="M 0 1.5 
C 0.397805 1.5 0.77937 1.341951 1.06066 1.06066 
C 1.341951 0.77937 1.5 0.397805 1.5 0 
C 1.5 -0.397805 1.341951 -0.77937 1.06066 -1.06066 
C 0.77937 -1.341951 0.397805 -1.5 0 -1.5 
C -0.397805 -1.5 -0.77937 -1.341951 -1.06066 -1.06066 
C -1.341951 -0.77937 -1.5 -0.397805 -1.5 0 
C -1.5 0.397805 -1.341951 0.77937 -1.06066 1.06066 
C -0.77937 1.341951 -0.397805 1.5 0 1.5 
z
" style="stroke: #000080"/>
    </defs>
    <g>
     <use xlink:href="#mddd3fcf8cc" x="227.037947" y="198.369186" style="fill: #000080; stroke: #000080"/>
     <use xlink:href="#mddd3fcf8cc" x="227.037947" y="198.369186" style="fill: #000080; stroke: #000080"/>
    </g>
   </g>
   <g id="line2d_35">
    <path d="M 44.560826 298.944 
L 44.560826 292.650207 
L 57.6 292.650207 
L 57.6 288.118676 
L 83.678349 288.118676 
L 83.678349 287.741048 
L 85.894031 287.741048 
L 85.894031 286.48229 
L 94.205591 286.48229 
L 94.205591 285.727034 
L 95.503454 285.727034 
L 95.503454 283.713021 
L 96.717523 283.713021 
L 96.717523 282.957766 
L 100.9152 282.957766 
L 100.9152 282.706014 
L 101.833019 282.706014 
L 101.833019 281.950759 
L 102.708132 281.950759 
L 102.708132 281.699007 
L 103.544339 281.699007 
L 103.544339 281.195503 
L 107.244765 281.195503 
L 107.244765 280.566124 
L 107.904887 280.566124 
L 107.904887 280.062621 
L 108.542628 280.062621 
L 108.542628 279.559117 
L 111.442442 279.559117 
L 111.442442 278.929738 
L 111.97238 278.929738 
L 111.97238 278.677986 
L 113.478107 278.677986 
L 113.478107 277.545103 
L 113.954374 277.545103 
L 113.954374 277.419228 
L 114.872193 277.419228 
L 114.872193 277.293352 
L 115.747307 277.293352 
L 115.747307 277.0416 
L 116.170056 277.0416 
L 116.170056 276.789848 
L 116.583514 276.789848 
L 116.583514 276.663972 
L 116.988079 276.663972 
L 116.988079 275.908717 
L 117.384126 275.908717 
L 117.384126 275.279338 
L 118.152051 275.279338 
L 118.152051 274.90171 
L 119.599808 274.90171 
L 119.599808 274.272331 
L 120.28394 274.272331 
L 120.28394 273.517076 
L 120.616896 273.517076 
L 120.616896 273.3912 
L 120.944062 273.3912 
L 120.944062 273.139448 
L 121.265635 273.139448 
L 121.265635 272.761821 
L 121.892744 272.761821 
L 121.892744 272.635945 
L 122.499621 272.635945 
L 122.499621 272.258317 
L 123.374735 272.258317 
L 123.374735 272.132441 
L 123.936316 272.132441 
L 123.936316 271.754814 
L 124.210942 271.754814 
L 124.210942 271.628938 
L 124.748451 271.628938 
L 124.748451 271.503062 
L 125.011554 271.503062 
L 125.011554 270.370179 
L 125.271028 270.370179 
L 125.271028 270.244303 
L 125.779479 270.244303 
L 125.779479 270.118428 
L 126.028642 270.118428 
L 126.028642 269.992552 
L 126.274549 269.992552 
L 126.274549 269.237297 
L 127.458055 269.237297 
L 127.458055 268.733793 
L 127.686077 268.733793 
L 127.686077 268.607917 
L 127.911368 268.607917 
L 127.911368 268.104414 
L 128.786481 268.104414 
L 128.786481 267.852662 
L 128.999044 267.852662 
L 128.999044 267.726786 
L 129.417095 267.726786 
L 129.417095 267.223283 
L 130.226319 267.223283 
L 130.226319 266.971531 
L 130.4233 266.971531 
L 130.4233 266.845655 
L 131.002163 266.845655 
L 131.002163 266.593903 
L 131.191226 266.593903 
L 131.191226 266.216276 
L 131.563744 266.216276 
L 131.563744 265.838648 
L 131.929028 265.838648 
L 131.929028 265.712772 
L 132.109044 265.712772 
L 132.109044 265.586897 
L 132.287354 265.586897 
L 132.287354 265.209269 
L 132.46399 265.209269 
L 132.46399 264.957517 
L 132.984158 264.957517 
L 132.984158 264.57989 
L 133.656071 264.57989 
L 133.656071 263.824634 
L 134.14471 263.824634 
L 134.14471 263.698759 
L 134.304809 263.698759 
L 134.304809 263.572883 
L 134.463557 263.572883 
L 134.463557 263.447007 
L 134.620977 263.447007 
L 134.620977 262.817628 
L 134.77709 262.817628 
L 134.77709 262.565876 
L 134.931919 262.565876 
L 134.931919 261.810621 
L 135.237805 261.810621 
L 135.237805 261.307117 
L 135.687504 261.307117 
L 135.687504 261.055366 
L 135.835047 261.055366 
L 135.835047 260.551862 
L 136.270855 260.551862 
L 136.270855 260.425986 
L 136.696795 260.425986 
L 136.696795 260.174234 
L 136.836659 260.174234 
L 136.836659 259.922483 
L 136.97549 259.922483 
L 136.97549 259.670731 
L 137.919637 259.670731 
L 137.919637 259.293103 
L 138.310202 259.293103 
L 138.310202 258.915476 
L 138.438609 258.915476 
L 138.438609 258.537848 
L 138.818654 258.537848 
L 138.818654 258.411972 
L 138.943648 258.411972 
L 138.943648 258.286097 
L 139.313723 258.286097 
L 139.313723 258.160221 
L 139.556456 258.160221 
L 139.556456 258.034345 
L 139.676658 258.034345 
L 139.676658 257.908469 
L 140.26641 257.908469 
L 140.26641 257.656717 
L 140.725251 257.656717 
L 140.725251 257.530841 
L 140.838234 257.530841 
L 140.838234 257.404966 
L 141.173167 257.404966 
L 141.173167 256.64971 
L 141.610664 256.64971 
L 141.610664 256.397959 
L 142.661862 256.397959 
L 142.763822 256.020331 
L 143.364242 256.020331 
L 143.462475 255.642703 
L 143.657415 255.642703 
L 143.657415 255.390952 
L 143.850356 255.390952 
L 143.946089 254.635697 
L 144.417581 254.635697 
L 144.510478 254.258069 
L 144.602918 254.258069 
L 144.694906 253.880441 
L 145.058426 253.880441 
L 145.148219 253.251062 
L 145.765046 253.251062 
L 145.765046 252.99931 
L 146.023332 252.99931 
L 146.108646 252.747559 
L 146.27812 252.747559 
L 146.27812 252.621683 
L 146.446082 252.621683 
L 146.529503 252.244055 
L 146.695245 252.244055 
L 146.777571 251.866428 
L 146.941151 251.866428 
L 146.941151 251.740552 
L 147.264104 251.740552 
L 147.343984 251.237048 
L 147.581606 251.237048 
L 147.660152 250.607669 
L 147.971093 250.607669 
L 147.971093 250.230041 
L 149.020615 250.230041 
L 149.093387 249.97829 
L 149.165879 249.97829 
L 149.165879 249.852414 
L 149.31003 249.852414 
L 149.381693 249.34891 
L 150.083698 249.34891 
L 150.083698 249.097159 
L 150.62703 249.097159 
L 150.62703 248.593655 
L 150.760445 248.593655 
L 150.760445 248.467779 
L 150.892922 248.467779 
L 150.892922 248.216028 
L 151.668766 248.216028 
L 151.668766 247.964276 
L 151.795018 247.964276 
L 151.795018 247.712524 
L 152.045009 247.712524 
L 152.045009 247.586648 
L 152.291722 247.586648 
L 152.291722 247.083145 
L 152.595631 247.083145 
L 152.655828 246.831393 
L 152.835271 246.831393 
L 152.835271 245.572634 
L 152.953957 245.572634 
L 152.953957 245.320883 
L 153.478964 245.320883 
L 153.536404 245.069131 
L 154.04562 245.069131 
L 154.04562 244.943255 
L 155.339761 244.943255 
L 155.339761 244.817379 
L 155.547053 244.817379 
L 155.598521 244.439752 
L 155.701037 244.439752 
L 155.752086 244.188 
L 156.105602 244.188 
L 156.105602 243.936248 
L 156.501649 243.936248 
L 156.501649 243.558621 
L 156.745011 243.558621 
L 156.745011 243.432745 
L 156.88953 243.432745 
L 156.88953 243.306869 
L 157.175281 243.306869 
L 157.175281 243.180993 
L 157.549652 243.180993 
L 157.595929 242.803366 
L 157.734081 242.803366 
L 157.825621 242.425738 
L 157.916719 242.425738 
L 157.916719 242.299862 
L 158.14255 242.299862 
L 158.232129 241.670483 
L 158.276759 241.670483 
L 158.276759 241.544607 
L 158.58624 241.544607 
L 158.58624 241.292855 
L 158.933807 241.292855 
L 158.933807 241.041103 
L 159.062507 241.041103 
L 159.062507 240.915228 
L 159.275069 240.915228 
L 159.275069 240.663476 
L 159.568678 240.663476 
L 159.651731 240.159972 
L 159.734419 240.159972 
L 159.734419 240.034097 
L 159.939564 240.034097 
L 159.939564 239.908221 
L 160.142495 239.908221 
L 160.142495 239.530593 
L 160.263211 239.530593 
L 160.303279 238.523586 
L 160.581385 238.523586 
L 160.581385 238.39771 
L 160.816532 238.39771 
L 160.816532 238.145959 
L 160.97168 238.145959 
L 160.97168 237.894207 
L 161.125559 237.894207 
L 161.125559 237.768331 
L 161.617145 237.768331 
L 161.617145 237.642455 
L 161.876619 237.642455 
L 161.876619 237.516579 
L 162.205054 237.516579 
L 162.205054 237.390703 
L 162.810208 237.390703 
L 162.810208 237.138952 
L 163.328465 237.138952 
L 163.430425 236.8872 
L 163.59914 236.8872 
L 163.59914 236.761324 
L 163.865975 236.761324 
L 163.865975 236.509572 
L 164.09639 236.509572 
L 164.161708 235.754317 
L 164.2268 235.754317 
L 164.2268 235.628441 
L 164.548924 235.628441 
L 164.612692 235.37669 
L 164.802709 235.37669 
L 164.865624 234.999062 
L 165.146166 234.999062 
L 165.146166 234.74731 
L 165.574415 234.74731 
L 165.664928 234.243807 
L 165.933882 234.243807 
L 165.933882 234.117931 
L 166.052194 234.117931 
L 166.052194 233.866179 
L 166.286609 233.866179 
L 166.286609 233.740303 
L 166.575579 233.740303 
L 166.661411 232.859172 
L 166.718416 232.859172 
L 166.718416 232.607421 
L 167.028891 232.607421 
L 167.028891 232.229793 
L 167.16834 232.229793 
L 167.16834 231.978041 
L 167.742992 231.978041 
L 167.823671 231.474538 
L 167.877265 231.474538 
L 167.930707 231.09691 
L 168.560441 231.09691 
L 168.560441 230.971034 
L 168.689024 230.971034 
L 168.689024 230.845159 
L 168.867575 230.845159 
L 168.968849 230.089903 
L 169.019282 230.089903 
L 169.119745 229.460524 
L 170.261661 229.460524 
L 170.261661 229.334648 
L 170.472634 229.334648 
L 170.49593 228.957021 
L 170.864796 228.957021 
L 170.864796 228.453517 
L 171.023928 228.453517 
L 171.11426 228.07589 
L 171.248949 228.07589 
L 171.248949 227.824138 
L 171.449192 227.824138 
L 171.493403 227.320634 
L 171.581513 227.320634 
L 171.625414 226.691255 
L 171.82171 226.691255 
L 171.82171 226.439503 
L 172.144386 226.439503 
L 172.144386 226.313628 
L 172.293095 226.313628 
L 172.335368 225.810124 
L 172.503517 225.810124 
L 172.503517 225.684248 
L 172.896949 225.684248 
L 172.896949 225.558372 
L 173.039848 225.558372 
L 173.039848 225.306621 
L 173.382435 225.306621 
L 173.402394 224.803117 
L 173.501874 224.803117 
L 173.501874 224.551366 
L 173.679622 224.551366 
L 173.758086 224.173738 
L 173.972187 224.173738 
L 174.030158 223.544359 
L 174.164733 223.544359 
L 174.18388 223.166731 
L 174.431028 223.166731 
L 174.431028 223.040855 
L 174.73082 223.040855 
L 174.73082 222.789103 
L 174.95257 222.789103 
L 174.95257 222.663228 
L 175.495771 222.663228 
L 175.495771 222.537352 
L 175.691079 222.537352 
L 175.691079 222.159724 
L 175.88438 222.159724 
L 175.988986 221.907972 
L 176.179266 221.907972 
L 176.179266 221.782097 
L 176.299358 221.782097 
L 176.299358 221.530345 
L 176.520373 221.530345 
L 176.520373 220.77509 
L 177.1192 220.77509 
L 177.1192 220.523338 
L 177.249723 220.523338 
L 177.249723 220.271586 
L 177.475981 220.271586 
L 177.475981 220.019834 
L 177.588098 220.019834 
L 177.683669 218.509324 
L 177.889089 218.509324 
L 177.983147 217.628193 
L 178.076737 217.628193 
L 178.09229 217.250566 
L 178.200804 217.250566 
L 178.29332 216.872938 
L 178.446509 216.872938 
L 178.476998 216.49531 
L 178.67398 216.49531 
L 178.704102 216.117683 
L 179.047089 216.117683 
L 179.150247 215.614179 
L 179.164938 215.614179 
L 179.164938 215.362428 
L 179.282053 215.362428 
L 179.383934 214.229545 
L 180.054064 214.229545 
L 180.151859 213.851917 
L 180.23528 213.851917 
L 180.345937 213.348414 
L 180.538033 213.348414 
L 180.538033 213.222538 
L 180.768686 213.222538 
L 180.768686 213.096662 
L 181.208509 213.096662 
L 181.208509 212.970786 
L 181.326697 212.970786 
L 181.326697 212.719034 
L 181.483135 212.719034 
L 181.483135 212.467283 
L 181.855908 212.467283 
L 181.881346 211.963779 
L 182.008023 211.963779 
L 182.008023 211.712028 
L 182.196455 211.712028 
L 182.20895 211.208524 
L 182.907797 211.208524 
L 182.907797 211.082648 
L 183.25363 211.082648 
L 183.25363 210.830897 
L 183.441747 210.830897 
L 183.441747 210.579145 
L 183.593219 210.579145 
L 183.674278 209.949766 
L 183.708911 209.949766 
L 183.708911 209.698014 
L 183.949574 209.698014 
L 183.949574 209.572138 
L 184.343961 209.572138 
L 184.366249 209.19451 
L 184.499429 209.19451 
L 184.598699 208.691007 
L 184.664589 208.691007 
L 184.752084 208.439255 
L 184.936672 208.439255 
L 184.95827 208.187503 
L 185.108763 208.187503 
L 185.108763 207.935752 
L 185.247437 207.935752 
L 185.247437 207.684 
L 185.563605 207.684 
L 185.594932 207.306372 
L 185.843683 207.306372 
L 185.843683 207.180497 
L 186.311454 207.180497 
L 186.311454 207.054621 
L 186.451541 207.054621 
L 186.51126 206.802869 
L 186.78747 206.802869 
L 186.78747 206.551117 
L 186.924069 206.551117 
L 186.924069 206.425241 
L 187.441851 206.425241 
L 187.498512 205.669986 
L 187.583186 205.669986 
L 187.639423 205.166483 
L 187.918118 205.166483 
L 187.918118 204.914731 
L 188.074232 204.914731 
L 188.074232 204.662979 
L 188.958488 204.662979 
L 188.984646 204.285352 
L 189.106235 204.285352 
L 189.106235 204.0336 
L 189.449364 204.0336 
L 189.508774 203.655972 
L 189.736183 203.655972 
L 189.736183 203.530097 
L 190.125601 203.530097 
L 190.223749 202.900717 
L 190.873179 202.900717 
L 190.896806 202.271338 
L 191.247706 202.271338 
L 191.301706 201.767834 
L 191.810877 201.767834 
L 191.810877 201.641959 
L 192.027061 201.641959 
L 192.027061 201.516083 
L 192.574902 201.516083 
L 192.682582 200.760828 
L 193.260577 200.760828 
L 193.260577 200.634952 
L 193.753843 200.634952 
L 193.780871 200.257324 
L 194.181701 200.257324 
L 194.287162 199.627945 
L 194.767372 199.627945 
L 194.767372 199.502069 
L 195.310476 199.502069 
L 195.310476 199.376193 
L 196.475071 199.376193 
L 196.580099 198.998566 
L 197.916325 198.998566 
L 197.916325 198.87269 
L 199.330531 198.87269 
L 199.330531 198.620938 
L 201.940863 198.620938 
L 201.940863 198.495062 
L 227.037947 198.495062 
L 227.037947 198.369186 
L 360.8064 198.369186 
L 360.8064 198.369186 
" style="fill: none; stroke: #000080; stroke-width: 1.5; stroke-linecap: square"/>
   </g>
   <g id="line2d_36">
    <defs>
     <path id="m899b7905e6" d="M 0 6 
C 1.591219 6 3.117479 5.367802 4.242641 4.242641 
C 5.367802 3.117479 6 1.591219 6 0 
C 6 -1.591219 5.367802 -3.117479 4.242641 -4.242641 
C 3.117479 -5.367802 1.591219 -6 0 -6 
C -1.591219 -6 -3.117479 -5.367802 -4.242641 -4.242641 
C -5.367802 -3.117479 -6 -1.591219 -6 0 
C -6 1.591219 -5.367802 3.117479 -4.242641 4.242641 
C -3.117479 5.367802 -1.591219 6 0 6 
z
" style="stroke: #000080; stroke-width: 1.5"/>
    </defs>
    <g>
     <use xlink:href="#m899b7905e6" x="107.244765" y="280.566124" style="fill-opacity: 0; stroke: #000080; stroke-width: 1.5"/>
     <use xlink:href="#m899b7905e6" x="160.816532" y="238.145959" style="fill-opacity: 0; stroke: #000080; stroke-width: 1.5"/>
     <use xlink:href="#m899b7905e6" x="227.037947" y="198.495062" style="fill-opacity: 0; stroke: #000080; stroke-width: 1.5"/>
     <use xlink:href="#m899b7905e6" x="227.037947" y="198.369186" style="fill-opacity: 0; stroke: #000080; stroke-width: 1.5"/>
     <use xlink:href="#m899b7905e6" x="227.037947" y="198.369186" style="fill-opacity: 0; stroke: #000080; stroke-width: 1.5"/>
     <use xlink:href="#m899b7905e6" x="360.8064" y="198.369186" style="fill-opacity: 0; stroke: #000080; stroke-width: 1.5"/>
    </g>
   </g>
   <g id="line2d_37">
    <path style="fill: none; stroke: #000080; stroke-width: 1.5; stroke-linecap: square"/>
    <g/>
   </g>
   <g id="line2d_38">
    <path d="M 230.857037 198.369186 
" clip-path="url(#pda24681497)" style="fill: none; stroke: #000080; stroke-width: 1.5; stroke-linecap: square"/>
    <defs>
     <path id="m34f2cb67f0" d="M -12 12 
L 12 -12 
M -12 -12 
L 12 12 
" style="stroke: #000080"/>
    </defs>
    <g clip-path="url(#pda24681497)">
     <use xlink:href="#m34f2cb67f0" x="230.857037" y="198.369186" style="fill: #000080; stroke: #000080"/>
    </g>
   </g>
   <g id="line2d_39">
    <defs>
     <path id="m65df90b632" d="M 0 1.5 
C 0.397805 1.5 0.77937 1.341951 1.06066 1.06066 
C 1.341951 0.77937 1.5 0.397805 1.5 0 
C 1.5 -0.397805 1.341951 -0.77937 1.06066 -1.06066 
C 0.77937 -1.341951 0.397805 -1.5 0 -1.5 
C -0.397805 -1.5 -0.77937 -1.341951 -1.06066 -1.06066 
C -1.341951 -0.77937 -1.5 -0.397805 -1.5 0 
C -1.5 0.397805 -1.341951 0.77937 -1.06066 1.06066 
C -0.77937 1.341951 -0.397805 1.5 0 1.5 
z
" style="stroke: #ff00ff"/>
    </defs>
    <g>
     <use xlink:href="#m65df90b632" x="212.806972" y="192.201269" style="fill: #ff00ff; stroke: #ff00ff"/>
     <use xlink:href="#m65df90b632" x="212.806972" y="192.201269" style="fill: #ff00ff; stroke: #ff00ff"/>
    </g>
   </g>
   <g id="line2d_40">
    <path d="M 44.560826 298.944 
L 44.560826 292.650207 
L 57.6 292.650207 
L 57.6 289.125683 
L 85.894031 289.125683 
L 85.894031 285.727034 
L 96.717523 285.727034 
L 96.717523 284.216524 
L 103.544339 284.216524 
L 103.544339 281.699007 
L 108.542628 281.699007 
L 108.542628 279.810869 
L 112.487797 279.810869 
L 112.487797 278.174483 
L 115.747307 278.174483 
L 115.747307 276.160469 
L 118.524569 276.160469 
L 118.524569 275.53109 
L 120.944062 275.53109 
L 120.944062 272.887697 
L 123.08753 272.887697 
L 123.08753 272.635945 
L 125.011554 272.635945 
L 125.011554 271.503062 
L 126.756923 271.503062 
L 126.756923 270.496055 
L 128.354013 270.496055 
L 128.354013 268.985545 
L 129.826058 268.985545 
L 129.826058 267.978538 
L 131.191226 267.978538 
L 131.191226 267.097407 
L 132.46399 267.097407 
L 132.46399 265.964524 
L 133.656071 265.964524 
L 133.656071 263.95051 
L 134.77709 263.95051 
L 134.77709 263.195255 
L 135.835047 263.195255 
L 135.835047 262.188248 
L 136.836659 262.188248 
L 136.836659 261.810621 
L 137.787626 261.810621 
L 137.787626 261.558869 
L 138.692823 261.558869 
L 138.692823 261.307117 
L 139.556456 261.307117 
L 139.556456 260.677738 
L 140.382174 260.677738 
L 140.382174 259.796607 
L 141.173167 259.796607 
L 141.173167 258.286097 
L 141.932237 258.286097 
L 141.932237 257.908469 
L 143.364242 257.908469 
L 143.364242 257.782593 
L 145.326529 257.782593 
L 145.326529 257.656717 
L 145.93763 257.656717 
L 145.93763 256.272083 
L 146.529503 256.272083 
L 146.529503 255.265076 
L 147.103321 255.265076 
L 147.103321 254.761572 
L 148.200973 254.761572 
L 148.200973 254.132193 
L 149.238092 254.132193 
L 149.238092 253.880441 
L 149.73597 253.880441 
L 149.73597 253.251062 
L 150.693856 253.251062 
L 150.693856 252.495807 
L 151.155108 252.495807 
L 151.155108 251.4888 
L 151.60532 251.4888 
L 151.60532 250.985297 
L 152.474656 250.985297 
L 152.474656 250.607669 
L 152.894708 250.607669 
L 152.894708 249.600662 
L 153.707679 249.600662 
L 153.707679 249.223034 
L 154.101358 249.223034 
L 154.101358 248.845407 
L 155.235253 248.845407 
L 155.235253 248.090152 
L 155.598521 248.090152 
L 155.598521 247.712524 
L 155.954908 247.712524 
L 155.954908 247.586648 
L 156.304668 247.586648 
L 156.304668 246.831393 
L 156.648044 246.831393 
L 156.648044 246.453766 
L 156.985263 246.453766 
L 156.985263 246.202014 
L 157.316545 246.202014 
L 157.316545 245.69851 
L 157.642093 245.69851 
L 157.642093 245.446759 
L 158.276759 245.446759 
L 158.276759 244.691503 
L 158.58624 244.691503 
L 158.58624 244.565628 
L 159.190332 244.565628 
L 159.190332 244.313876 
L 159.485256 244.313876 
L 159.485256 244.188 
L 160.343261 244.188 
L 160.343261 243.684497 
L 160.620781 243.684497 
L 160.620781 243.558621 
L 160.894266 243.558621 
L 160.894266 243.180993 
L 161.42959 243.180993 
L 161.42959 243.055117 
L 161.691646 243.055117 
L 161.691646 242.929241 
L 162.205054 242.929241 
L 162.205054 242.04811 
L 162.456597 242.04811 
L 162.456597 241.418731 
L 162.704821 241.418731 
L 162.704821 240.663476 
L 162.949812 240.663476 
L 162.949812 240.411724 
L 163.191653 240.411724 
L 163.191653 240.285848 
L 163.430425 240.285848 
L 163.430425 240.034097 
L 164.356312 240.034097 
L 164.356312 239.152966 
L 164.802709 239.152966 
L 164.802709 238.775338 
L 165.021997 238.775338 
L 165.021997 237.642455 
L 165.238758 237.642455 
L 165.238758 237.390703 
L 165.664928 237.390703 
L 165.664928 237.138952 
L 165.874446 237.138952 
L 165.874446 237.013076 
L 166.081656 237.013076 
L 166.081656 236.509572 
L 166.689935 236.509572 
L 166.689935 236.383697 
L 167.084795 236.383697 
L 167.084795 236.257821 
L 167.471536 236.257821 
L 167.471536 235.502566 
L 167.850487 235.502566 
L 167.850487 235.250814 
L 168.037137 235.250814 
L 168.037137 234.999062 
L 168.404973 234.999062 
L 168.404973 234.621434 
L 168.586228 234.621434 
L 168.586228 234.495559 
L 168.765753 234.495559 
L 168.765753 234.369683 
L 168.943582 234.369683 
L 168.943582 233.488552 
L 169.119745 233.488552 
L 169.119745 233.2368 
L 169.467197 233.2368 
L 169.467197 232.733297 
L 169.638546 232.733297 
L 169.638546 232.229793 
L 169.976632 232.229793 
L 169.976632 231.852166 
L 170.472634 231.852166 
L 170.472634 231.474538 
L 170.635104 231.474538 
L 170.635104 231.348662 
L 170.796182 231.348662 
L 170.796182 230.971034 
L 170.955893 230.971034 
L 170.955893 230.467531 
L 171.11426 230.467531 
L 171.11426 230.341655 
L 171.73472 230.341655 
L 171.73472 230.089903 
L 172.037442 230.089903 
L 172.037442 229.964028 
L 172.186995 229.964028 
L 172.186995 229.712276 
L 172.482581 229.712276 
L 172.482581 228.957021 
L 172.62865 228.957021 
L 172.62865 228.453517 
L 172.773594 228.453517 
L 172.773594 228.201766 
L 173.060174 228.201766 
L 173.060174 228.07589 
L 173.201843 228.07589 
L 173.201843 227.320634 
L 173.342453 227.320634 
L 173.342453 226.943007 
L 173.48202 226.943007 
L 173.48202 226.817131 
L 173.758086 226.817131 
L 173.758086 226.565379 
L 173.894614 226.565379 
L 173.894614 226.439503 
L 174.298352 226.439503 
L 174.298352 226.061876 
L 174.693607 226.061876 
L 174.693607 225.936 
L 174.823534 225.936 
L 174.823534 225.810124 
L 174.95257 225.810124 
L 174.95257 225.684248 
L 175.708734 225.684248 
L 175.708734 225.558372 
L 176.075715 225.558372 
L 176.075715 225.306621 
L 176.196469 225.306621 
L 176.196469 225.054869 
L 176.316452 225.054869 
L 176.316452 224.928993 
L 176.671876 224.928993 
L 176.671876 224.803117 
L 176.788874 224.803117 
L 176.788874 224.551366 
L 176.905149 224.551366 
L 176.905149 224.299614 
L 177.02071 224.299614 
L 177.02071 224.047862 
L 177.135565 224.047862 
L 177.135565 223.670234 
L 177.249723 223.670234 
L 177.249723 223.418483 
L 177.363192 223.418483 
L 177.363192 223.166731 
L 177.588098 223.166731 
L 177.588098 222.914979 
L 177.699551 222.914979 
L 177.810347 222.411476 
L 177.920494 222.411476 
L 177.920494 222.033848 
L 178.138873 222.033848 
L 178.247119 221.026841 
L 178.354746 221.026841 
L 178.46176 220.14571 
L 178.568169 220.14571 
L 178.568169 219.893959 
L 178.883832 219.893959 
L 178.883832 219.768083 
L 179.091369 219.768083 
L 179.194285 219.390455 
L 179.398443 219.390455 
L 179.398443 218.886952 
L 179.60041 218.886952 
L 179.60041 218.761076 
L 179.800231 218.761076 
L 179.899351 217.12469 
L 180.193616 217.12469 
L 180.29069 216.872938 
L 180.956535 216.872938 
L 181.049761 216.369434 
L 181.234837 216.369434 
L 181.234837 216.117683 
L 181.41811 216.117683 
L 181.509082 215.236552 
L 181.689715 215.236552 
L 181.779386 214.858924 
L 182.221437 214.858924 
L 182.308614 214.229545 
L 182.481765 214.229545 
L 182.481765 213.977793 
L 183.158861 213.977793 
L 183.158861 213.851917 
L 183.324394 213.851917 
L 183.324394 213.47429 
L 183.488484 213.47429 
L 183.569995 212.593159 
L 183.651154 212.593159 
L 183.651154 211.963779 
L 183.81243 211.963779 
L 183.81243 211.460276 
L 184.130892 211.460276 
L 184.130892 211.082648 
L 184.521534 211.082648 
L 184.598699 210.705021 
L 184.752084 210.705021 
L 184.828311 210.201517 
L 185.279294 210.201517 
L 185.353418 209.698014 
L 185.574053 209.698014 
L 185.647027 208.942759 
L 185.79213 208.942759 
L 185.79213 208.816883 
L 185.936123 208.816883 
L 185.936123 208.313379 
L 186.150067 208.313379 
L 186.220844 207.809876 
L 186.50132 207.809876 
L 186.50132 207.558124 
L 186.777675 207.558124 
L 186.777675 207.180497 
L 186.982309 207.180497 
L 186.982309 206.676993 
L 187.385018 206.676993 
L 187.385018 206.17349 
L 187.517361 206.17349 
L 187.517361 205.418234 
L 187.64878 205.418234 
L 187.714147 205.166483 
L 188.66833 205.166483 
L 188.66833 204.662979 
L 188.791974 204.662979 
L 188.853493 204.0336 
L 189.21844 204.0336 
L 189.21844 203.781848 
L 189.338532 203.781848 
L 189.338532 203.655972 
L 189.457863 203.655972 
L 189.457863 203.404221 
L 189.752919 203.404221 
L 189.752919 203.152469 
L 189.985677 203.152469 
L 190.043419 202.774841 
L 190.158374 202.774841 
L 190.158374 202.648966 
L 190.442726 202.648966 
L 190.442726 202.397214 
L 190.611297 202.397214 
L 190.667153 202.019586 
L 190.833733 202.019586 
L 190.833733 201.390207 
L 191.10813 201.390207 
L 191.10813 201.138455 
L 191.432209 201.138455 
L 191.432209 200.886703 
L 191.803377 200.886703 
L 191.855809 200.634952 
L 192.167364 200.634952 
L 192.167364 200.509076 
L 192.423108 200.509076 
L 192.52444 199.753821 
L 192.62523 199.753821 
L 192.725482 199.250317 
L 193.121231 199.250317 
L 193.121231 198.998566 
L 193.460812 198.998566 
L 193.460812 198.87269 
L 193.604491 198.87269 
L 193.604491 198.746814 
L 193.74708 198.746814 
L 193.74708 198.495062 
L 194.029057 198.495062 
L 194.122118 197.865683 
L 194.39857 197.865683 
L 194.39857 197.739807 
L 194.535287 197.739807 
L 194.535287 197.488055 
L 195.594663 197.488055 
L 195.680309 197.110428 
L 195.808051 197.110428 
L 195.808051 196.984552 
L 196.102787 196.984552 
L 196.102787 196.7328 
L 196.597546 196.7328 
L 196.597546 196.481048 
L 196.719229 196.481048 
L 196.719229 195.977545 
L 197.237612 195.977545 
L 197.237612 195.725793 
L 197.433247 195.725793 
L 197.433247 195.599917 
L 198.008234 195.599917 
L 198.008234 195.348166 
L 198.196056 195.348166 
L 198.196056 195.22229 
L 198.748526 195.22229 
L 198.820977 194.844662 
L 199.249924 194.844662 
L 199.249924 194.718786 
L 199.565335 194.718786 
L 199.565335 194.467034 
L 200.045697 194.467034 
L 200.045697 194.341159 
L 200.906507 194.341159 
L 200.906507 194.215283 
L 201.227374 194.215283 
L 201.227374 194.089407 
L 201.698641 194.089407 
L 201.698641 193.837655 
L 202.871388 193.837655 
L 202.871388 193.711779 
L 203.865009 193.711779 
L 203.865009 193.585903 
L 204.057586 193.585903 
L 204.13952 193.334152 
L 204.83505 193.334152 
L 204.83505 193.208276 
L 206.104377 193.208276 
L 206.104377 193.0824 
L 207.13143 193.0824 
L 207.13143 192.956524 
L 207.816155 192.956524 
L 207.816155 192.830648 
L 209.135992 192.830648 
L 209.135992 192.578897 
L 209.446836 192.578897 
L 209.446836 192.453021 
L 211.471356 192.453021 
L 211.471356 192.327145 
L 212.806972 192.327145 
L 212.806972 192.201269 
L 360.8064 192.201269 
L 360.8064 192.201269 
" style="fill: none; stroke: #ff00ff; stroke-width: 1.5; stroke-linecap: square"/>
   </g>
   <g id="line2d_41">
    <defs>
     <path id="mbc797fa3d9" d="M -0 8.485281 
L 5.091169 0 
L 0 -8.485281 
L -5.091169 -0 
z
" style="stroke: #ff00ff; stroke-width: 1.5; stroke-linejoin: miter"/>
    </defs>
    <g>
     <use xlink:href="#mbc797fa3d9" x="162.456597" y="241.418731" style="fill-opacity: 0; stroke: #ff00ff; stroke-width: 1.5; stroke-linejoin: miter"/>
     <use xlink:href="#mbc797fa3d9" x="204.13952" y="193.334152" style="fill-opacity: 0; stroke: #ff00ff; stroke-width: 1.5; stroke-linejoin: miter"/>
     <use xlink:href="#mbc797fa3d9" x="212.806972" y="192.201269" style="fill-opacity: 0; stroke: #ff00ff; stroke-width: 1.5; stroke-linejoin: miter"/>
     <use xlink:href="#mbc797fa3d9" x="212.806972" y="192.201269" style="fill-opacity: 0; stroke: #ff00ff; stroke-width: 1.5; stroke-linejoin: miter"/>
     <use xlink:href="#mbc797fa3d9" x="360.8064" y="192.201269" style="fill-opacity: 0; stroke: #ff00ff; stroke-width: 1.5; stroke-linejoin: miter"/>
    </g>
   </g>
   <g id="line2d_42">
    <path style="fill: none; stroke: #ff00ff; stroke-width: 1.5; stroke-linecap: square"/>
    <g/>
   </g>
   <g id="line2d_43">
    <path d="M 230.854215 192.201269 
" clip-path="url(#pda24681497)" style="fill: none; stroke: #ff00ff; stroke-width: 1.5; stroke-linecap: square"/>
    <defs>
     <path id="m846ee26d30" d="M -12 12 
L 12 -12 
M -12 -12 
L 12 12 
" style="stroke: #ff00ff"/>
    </defs>
    <g clip-path="url(#pda24681497)">
     <use xlink:href="#m846ee26d30" x="230.854215" y="192.201269" style="fill: #ff00ff; stroke: #ff00ff"/>
    </g>
   </g>
   <g id="line2d_44">
    <path d="M 360.8064 198.369186 
L 380.514816 293.10336 
" style="fill: none; stroke: #000080; stroke-width: 1.5; stroke-linecap: square"/>
    <g>
     <use xlink:href="#m899b7905e6" x="360.8064" y="198.369186" style="fill-opacity: 0; stroke: #000080; stroke-width: 1.5"/>
     <use xlink:href="#m899b7905e6" x="380.514816" y="293.10336" style="fill-opacity: 0; stroke: #000080; stroke-width: 1.5"/>
    </g>
   </g>
   <g id="line2d_45">
    <path d="M 360.8064 192.201269 
L 380.514816 152.928 
" style="fill: none; stroke: #ff00ff; stroke-width: 1.5; stroke-linecap: square"/>
    <g>
     <use xlink:href="#mbc797fa3d9" x="360.8064" y="192.201269" style="fill-opacity: 0; stroke: #ff00ff; stroke-width: 1.5; stroke-linejoin: miter"/>
     <use xlink:href="#mbc797fa3d9" x="380.514816" y="152.928" style="fill-opacity: 0; stroke: #ff00ff; stroke-width: 1.5; stroke-linejoin: miter"/>
    </g>
   </g>
   <g id="line2d_46">
    <path d="M 360.8064 298.944 
L 360.8064 6.912 
" style="fill: none; stroke: #000000; stroke-width: 1.5; stroke-linecap: square"/>
   </g>
   <g id="patch_3">
    <path d="M 57.6 298.944 
L 360.8064 298.944 
" style="fill: none; stroke: #000000; stroke-width: 0.8; stroke-linejoin: miter; stroke-linecap: square"/>
   </g>
   <g id="patch_4">
    <path d="M 57.6 6.912 
L 360.8064 6.912 
" style="fill: none; stroke: #000000; stroke-width: 0.8; stroke-linejoin: miter; stroke-linecap: square"/>
   </g>
   <g id="text_13">
    <!-- kerLQ -->
    <g transform="translate(386.578944 296.966485) scale(0.14 -0.14)">
     <defs>
      <path id="DejaVuSans-6b" d="M 581 4863 
L 1159 4863 
L 1159 1991 
L 2875 3500 
L 3609 3500 
L 1753 1863 
L 3688 0 
L 2938 0 
L 1159 1709 
L 1159 0 
L 581 0 
L 581 4863 
z
" transform="scale(0.015625)"/>
      <path id="DejaVuSans-4c" d="M 628 4666 
L 1259 4666 
L 1259 531 
L 3531 531 
L 3531 0 
L 628 0 
L 628 4666 
z
" transform="scale(0.015625)"/>
      <path id="DejaVuSans-51" d="M 2522 4238 
Q 1834 4238 1429 3725 
Q 1025 3213 1025 2328 
Q 1025 1447 1429 934 
Q 1834 422 2522 422 
Q 3209 422 3611 934 
Q 4013 1447 4013 2328 
Q 4013 3213 3611 3725 
Q 3209 4238 2522 4238 
z
M 3406 84 
L 4238 -825 
L 3475 -825 
L 2784 -78 
Q 2681 -84 2626 -87 
Q 2572 -91 2522 -91 
Q 1538 -91 948 567 
Q 359 1225 359 2328 
Q 359 3434 948 4092 
Q 1538 4750 2522 4750 
Q 3503 4750 4090 4092 
Q 4678 3434 4678 2328 
Q 4678 1516 4351 937 
Q 4025 359 3406 84 
z
" transform="scale(0.015625)"/>
     </defs>
     <use xlink:href="#DejaVuSans-6b"/>
     <use xlink:href="#DejaVuSans-65" x="54.285156"/>
     <use xlink:href="#DejaVuSans-72" x="115.808594"/>
     <use xlink:href="#DejaVuSans-4c" x="156.921875"/>
     <use xlink:href="#DejaVuSans-51" x="212.634766"/>
    </g>
   </g>
   <g id="text_14">
    <!-- kerComo -->
    <g transform="translate(386.578944 156.791125) scale(0.14 -0.14)">
     <defs>
      <path id="DejaVuSans-43" d="M 4122 4306 
L 4122 3641 
Q 3803 3938 3442 4084 
Q 3081 4231 2675 4231 
Q 1875 4231 1450 3742 
Q 1025 3253 1025 2328 
Q 1025 1406 1450 917 
Q 1875 428 2675 428 
Q 3081 428 3442 575 
Q 3803 722 4122 1019 
L 4122 359 
Q 3791 134 3420 21 
Q 3050 -91 2638 -91 
Q 1578 -91 968 557 
Q 359 1206 359 2328 
Q 359 3453 968 4101 
Q 1578 4750 2638 4750 
Q 3056 4750 3426 4639 
Q 3797 4528 4122 4306 
z
" transform="scale(0.015625)"/>
     </defs>
     <use xlink:href="#DejaVuSans-6b"/>
     <use xlink:href="#DejaVuSans-65" x="54.285156"/>
     <use xlink:href="#DejaVuSans-72" x="115.808594"/>
     <use xlink:href="#DejaVuSans-43" x="156.921875"/>
     <use xlink:href="#DejaVuSans-6f" x="226.746094"/>
     <use xlink:href="#DejaVuSans-6d" x="287.927734"/>
     <use xlink:href="#DejaVuSans-6f" x="385.339844"/>
    </g>
   </g>
   <g id="text_15">
    <!-- best 2016 -->
    <g transform="translate(386.578944 16.615765) scale(0.14 -0.14)">
     <defs>
      <path id="DejaVuSans-62" d="M 3116 1747 
Q 3116 2381 2855 2742 
Q 2594 3103 2138 3103 
Q 1681 3103 1420 2742 
Q 1159 2381 1159 1747 
Q 1159 1113 1420 752 
Q 1681 391 2138 391 
Q 2594 391 2855 752 
Q 3116 1113 3116 1747 
z
M 1159 2969 
Q 1341 3281 1617 3432 
Q 1894 3584 2278 3584 
Q 2916 3584 3314 3078 
Q 3713 2572 3713 1747 
Q 3713 922 3314 415 
Q 2916 -91 2278 -91 
Q 1894 -91 1617 61 
Q 1341 213 1159 525 
L 1159 0 
L 581 0 
L 581 4863 
L 1159 4863 
L 1159 2969 
z
" transform="scale(0.015625)"/>
     </defs>
     <use xlink:href="#DejaVuSans-62"/>
     <use xlink:href="#DejaVuSans-65" x="63.476562"/>
     <use xlink:href="#DejaVuSans-73" x="125"/>
     <use xlink:href="#DejaVuSans-74" x="177.099609"/>
     <use xlink:href="#DejaVuSans-20" x="216.308594"/>
     <use xlink:href="#DejaVuSans-32" x="248.095703"/>
     <use xlink:href="#DejaVuSans-30" x="311.71875"/>
     <use xlink:href="#DejaVuSans-31" x="375.341797"/>
     <use xlink:href="#DejaVuSans-36" x="438.964844"/>
    </g>
   </g>
   <g id="text_16">
    <!-- bbob-biobj f24, f25, f31, f32, 2-D -->
    <g transform="translate(60.632064 17.582726) scale(0.102 -0.102)">
     <defs>
      <path id="DejaVuSans-6a" d="M 603 3500 
L 1178 3500 
L 1178 -63 
Q 1178 -731 923 -1031 
Q 669 -1331 103 -1331 
L -116 -1331 
L -116 -844 
L 38 -844 
Q 366 -844 484 -692 
Q 603 -541 603 -63 
L 603 3500 
z
M 603 4863 
L 1178 4863 
L 1178 4134 
L 603 4134 
L 603 4863 
z
" transform="scale(0.015625)"/>
      <path id="DejaVuSans-35" d="M 691 4666 
L 3169 4666 
L 3169 4134 
L 1269 4134 
L 1269 2991 
Q 1406 3038 1543 3061 
Q 1681 3084 1819 3084 
Q 2600 3084 3056 2656 
Q 3513 2228 3513 1497 
Q 3513 744 3044 326 
Q 2575 -91 1722 -91 
Q 1428 -91 1123 -41 
Q 819 9 494 109 
L 494 744 
Q 775 591 1075 516 
Q 1375 441 1709 441 
Q 2250 441 2565 725 
Q 2881 1009 2881 1497 
Q 2881 1984 2565 2268 
Q 2250 2553 1709 2553 
Q 1456 2553 1204 2497 
Q 953 2441 691 2322 
L 691 4666 
z
" transform="scale(0.015625)"/>
      <path id="DejaVuSans-33" d="M 2597 2516 
Q 3050 2419 3304 2112 
Q 3559 1806 3559 1356 
Q 3559 666 3084 287 
Q 2609 -91 1734 -91 
Q 1441 -91 1130 -33 
Q 819 25 488 141 
L 488 750 
Q 750 597 1062 519 
Q 1375 441 1716 441 
Q 2309 441 2620 675 
Q 2931 909 2931 1356 
Q 2931 1769 2642 2001 
Q 2353 2234 1838 2234 
L 1294 2234 
L 1294 2753 
L 1863 2753 
Q 2328 2753 2575 2939 
Q 2822 3125 2822 3475 
Q 2822 3834 2567 4026 
Q 2313 4219 1838 4219 
Q 1578 4219 1281 4162 
Q 984 4106 628 3988 
L 628 4550 
Q 988 4650 1302 4700 
Q 1616 4750 1894 4750 
Q 2613 4750 3031 4423 
Q 3450 4097 3450 3541 
Q 3450 3153 3228 2886 
Q 3006 2619 2597 2516 
z
" transform="scale(0.015625)"/>
      <path id="DejaVuSans-44" d="M 1259 4147 
L 1259 519 
L 2022 519 
Q 2988 519 3436 956 
Q 3884 1394 3884 2338 
Q 3884 3275 3436 3711 
Q 2988 4147 2022 4147 
L 1259 4147 
z
M 628 4666 
L 1925 4666 
Q 3281 4666 3915 4102 
Q 4550 3538 4550 2338 
Q 4550 1131 3912 565 
Q 3275 0 1925 0 
L 628 0 
L 628 4666 
z
" transform="scale(0.015625)"/>
     </defs>
     <use xlink:href="#DejaVuSans-62"/>
     <use xlink:href="#DejaVuSans-62" x="63.476562"/>
     <use xlink:href="#DejaVuSans-6f" x="126.953125"/>
     <use xlink:href="#DejaVuSans-62" x="188.134766"/>
     <use xlink:href="#DejaVuSans-2d" x="251.611328"/>
     <use xlink:href="#DejaVuSans-62" x="287.695312"/>
     <use xlink:href="#DejaVuSans-69" x="351.171875"/>
     <use xlink:href="#DejaVuSans-6f" x="378.955078"/>
     <use xlink:href="#DejaVuSans-62" x="440.136719"/>
     <use xlink:href="#DejaVuSans-6a" x="503.613281"/>
     <use xlink:href="#DejaVuSans-20" x="531.396484"/>
     <use xlink:href="#DejaVuSans-66" x="563.183594"/>
     <use xlink:href="#DejaVuSans-32" x="598.388672"/>
     <use xlink:href="#DejaVuSans-34" x="662.011719"/>
     <use xlink:href="#DejaVuSans-2c" x="725.634766"/>
     <use xlink:href="#DejaVuSans-20" x="757.421875"/>
     <use xlink:href="#DejaVuSans-66" x="789.208984"/>
     <use xlink:href="#DejaVuSans-32" x="824.414062"/>
     <use xlink:href="#DejaVuSans-35" x="888.037109"/>
     <use xlink:href="#DejaVuSans-2c" x="951.660156"/>
     <use xlink:href="#DejaVuSans-20" x="983.447266"/>
     <use xlink:href="#DejaVuSans-66" x="1015.234375"/>
     <use xlink:href="#DejaVuSans-33" x="1050.439453"/>
     <use xlink:href="#DejaVuSans-31" x="1114.0625"/>
     <use xlink:href="#DejaVuSans-2c" x="1177.685547"/>
     <use xlink:href="#DejaVuSans-20" x="1209.472656"/>
     <use xlink:href="#DejaVuSans-66" x="1241.259766"/>
     <use xlink:href="#DejaVuSans-33" x="1276.464844"/>
     <use xlink:href="#DejaVuSans-32" x="1340.087891"/>
     <use xlink:href="#DejaVuSans-2c" x="1403.710938"/>
     <use xlink:href="#DejaVuSans-20" x="1435.498047"/>
     <use xlink:href="#DejaVuSans-32" x="1467.285156"/>
     <use xlink:href="#DejaVuSans-2d" x="1530.908203"/>
     <use xlink:href="#DejaVuSans-44" x="1566.992188"/>
    </g>
    <!-- 58 targets: 1..-1.0e-4 -->
    <g transform="translate(60.632064 29.004495) scale(0.102 -0.102)">
     <defs>
      <path id="DejaVuSans-3a" d="M 750 794 
L 1409 794 
L 1409 0 
L 750 0 
L 750 794 
z
M 750 3309 
L 1409 3309 
L 1409 2516 
L 750 2516 
L 750 3309 
z
" transform="scale(0.015625)"/>
     </defs>
     <use xlink:href="#DejaVuSans-35"/>
     <use xlink:href="#DejaVuSans-38" x="63.623047"/>
     <use xlink:href="#DejaVuSans-20" x="127.246094"/>
     <use xlink:href="#DejaVuSans-74" x="159.033203"/>
     <use xlink:href="#DejaVuSans-61" x="198.242188"/>
     <use xlink:href="#DejaVuSans-72" x="259.521484"/>
     <use xlink:href="#DejaVuSans-67" x="298.884766"/>
     <use xlink:href="#DejaVuSans-65" x="362.361328"/>
     <use xlink:href="#DejaVuSans-74" x="423.884766"/>
     <use xlink:href="#DejaVuSans-73" x="463.09375"/>
     <use xlink:href="#DejaVuSans-3a" x="515.193359"/>
     <use xlink:href="#DejaVuSans-20" x="548.884766"/>
     <use xlink:href="#DejaVuSans-31" x="580.671875"/>
     <use xlink:href="#DejaVuSans-2e" x="644.294922"/>
     <use xlink:href="#DejaVuSans-2e" x="676.082031"/>
     <use xlink:href="#DejaVuSans-2d" x="707.869141"/>
     <use xlink:href="#DejaVuSans-31" x="743.953125"/>
     <use xlink:href="#DejaVuSans-2e" x="807.576172"/>
     <use xlink:href="#DejaVuSans-30" x="839.363281"/>
     <use xlink:href="#DejaVuSans-65" x="902.986328"/>
     <use xlink:href="#DejaVuSans-2d" x="964.509766"/>
     <use xlink:href="#DejaVuSans-34" x="1000.59375"/>
    </g>
    <!-- 10 instances -->
    <g transform="translate(60.632064 40.426264) scale(0.102 -0.102)">
     <use xlink:href="#DejaVuSans-31"/>
     <use xlink:href="#DejaVuSans-30" x="63.623047"/>
     <use xlink:href="#DejaVuSans-20" x="127.246094"/>
     <use xlink:href="#DejaVuSans-69" x="159.033203"/>
     <use xlink:href="#DejaVuSans-6e" x="186.816406"/>
     <use xlink:href="#DejaVuSans-73" x="250.195312"/>
     <use xlink:href="#DejaVuSans-74" x="302.294922"/>
     <use xlink:href="#DejaVuSans-61" x="341.503906"/>
     <use xlink:href="#DejaVuSans-6e" x="402.783203"/>
     <use xlink:href="#DejaVuSans-63" x="466.162109"/>
     <use xlink:href="#DejaVuSans-65" x="521.142578"/>
     <use xlink:href="#DejaVuSans-73" x="582.666016"/>
    </g>
   </g>
   <g id="text_17">
    <!-- v2.6, hv-hash=ff0e71e8cd978373 -->
    <g style="fill: #808080" transform="translate(123.707887 293.943992) scale(0.1 -0.1)">
     <defs>
      <path id="DejaVuSans-68" d="M 3513 2113 
L 3513 0 
L 2938 0 
L 2938 2094 
Q 2938 2591 2744 2837 
Q 2550 3084 2163 3084 
Q 1697 3084 1428 2787 
Q 1159 2491 1159 1978 
L 1159 0 
L 581 0 
L 581 4863 
L 1159 4863 
L 1159 2956 
Q 1366 3272 1645 3428 
Q 1925 3584 2291 3584 
Q 2894 3584 3203 3211 
Q 3513 2838 3513 2113 
z
" transform="scale(0.015625)"/>
      <path id="DejaVuSans-3d" d="M 678 2906 
L 4684 2906 
L 4684 2381 
L 678 2381 
L 678 2906 
z
M 678 1631 
L 4684 1631 
L 4684 1100 
L 678 1100 
L 678 1631 
z
" transform="scale(0.015625)"/>
      <path id="DejaVuSans-37" d="M 525 4666 
L 3525 4666 
L 3525 4397 
L 1831 0 
L 1172 0 
L 2766 4134 
L 525 4134 
L 525 4666 
z
" transform="scale(0.015625)"/>
      <path id="DejaVuSans-39" d="M 703 97 
L 703 672 
Q 941 559 1184 500 
Q 1428 441 1663 441 
Q 2288 441 2617 861 
Q 2947 1281 2994 2138 
Q 2813 1869 2534 1725 
Q 2256 1581 1919 1581 
Q 1219 1581 811 2004 
Q 403 2428 403 3163 
Q 403 3881 828 4315 
Q 1253 4750 1959 4750 
Q 2769 4750 3195 4129 
Q 3622 3509 3622 2328 
Q 3622 1225 3098 567 
Q 2575 -91 1691 -91 
Q 1453 -91 1209 -44 
Q 966 3 703 97 
z
M 1959 2075 
Q 2384 2075 2632 2365 
Q 2881 2656 2881 3163 
Q 2881 3666 2632 3958 
Q 2384 4250 1959 4250 
Q 1534 4250 1286 3958 
Q 1038 3666 1038 3163 
Q 1038 2656 1286 2365 
Q 1534 2075 1959 2075 
z
" transform="scale(0.015625)"/>
     </defs>
     <use xlink:href="#DejaVuSans-76"/>
     <use xlink:href="#DejaVuSans-32" x="59.179688"/>
     <use xlink:href="#DejaVuSans-2e" x="122.802734"/>
     <use xlink:href="#DejaVuSans-36" x="154.589844"/>
     <use xlink:href="#DejaVuSans-2c" x="218.212891"/>
     <use xlink:href="#DejaVuSans-20" x="250"/>
     <use xlink:href="#DejaVuSans-68" x="281.787109"/>
     <use xlink:href="#DejaVuSans-76" x="345.166016"/>
     <use xlink:href="#DejaVuSans-2d" x="401.720703"/>
     <use xlink:href="#DejaVuSans-68" x="437.804688"/>
     <use xlink:href="#DejaVuSans-61" x="501.183594"/>
     <use xlink:href="#DejaVuSans-73" x="562.462891"/>
     <use xlink:href="#DejaVuSans-68" x="614.5625"/>
     <use xlink:href="#DejaVuSans-3d" x="677.941406"/>
     <use xlink:href="#DejaVuSans-66" x="761.730469"/>
     <use xlink:href="#DejaVuSans-66" x="796.935547"/>
     <use xlink:href="#DejaVuSans-30" x="832.140625"/>
     <use xlink:href="#DejaVuSans-65" x="895.763672"/>
     <use xlink:href="#DejaVuSans-37" x="957.287109"/>
     <use xlink:href="#DejaVuSans-31" x="1020.910156"/>
     <use xlink:href="#DejaVuSans-65" x="1084.533203"/>
     <use xlink:href="#DejaVuSans-38" x="1146.056641"/>
     <use xlink:href="#DejaVuSans-63" x="1209.679688"/>
     <use xlink:href="#DejaVuSans-64" x="1264.660156"/>
     <use xlink:href="#DejaVuSans-39" x="1328.136719"/>
     <use xlink:href="#DejaVuSans-37" x="1391.759766"/>
     <use xlink:href="#DejaVuSans-38" x="1455.382812"/>
     <use xlink:href="#DejaVuSans-33" x="1519.005859"/>
     <use xlink:href="#DejaVuSans-37" x="1582.628906"/>
     <use xlink:href="#DejaVuSans-33" x="1646.251953"/>
    </g>
   </g>
  </g>
 </g>
 <defs>
  <clipPath id="pda24681497">
   <rect x="57.6" y="6.912" width="303.2064" height="292.032"/>
  </clipPath>
 </defs>
</svg>
