<?xml version="1.0" encoding="utf-8" standalone="no"?>
<!DOCTYPE svg PUBLIC "-//W3C//DTD SVG 1.1//EN"
  "http://www.w3.org/Graphics/SVG/1.1/DTD/svg11.dtd">
<svg xmlns:xlink="http://www.w3.org/1999/xlink" width="460.8pt" height="345.6pt" viewBox="0 0 460.8 345.6" xmlns="http://www.w3.org/2000/svg" version="1.1">
 <metadata>
  <rdf:RDF xmlns:dc="http://purl.org/dc/elements/1.1/" xmlns:cc="http://creativecommons.org/ns#" xmlns:rdf="http://www.w3.org/1999/02/22-rdf-syntax-ns#">
   <cc:Work>
    <dc:type rdf:resource="http://purl.org/dc/dcmitype/StillImage"/>
    <dc:date>2023-02-13T14:59:41.248150</dc:date>
    <dc:format>image/svg+xml</dc:format>
    <dc:creator>
     <cc:Agent>
      <dc:title>Matplotlib v3.6.3, https://matplotlib.org/</dc:title>
     </cc:Agent>
    </dc:creator>
   </cc:Work>
  </rdf:RDF>
 </metadata>
 <defs>
  <style type="text/css">*{stroke-linejoin: round; stroke-linecap: butt}</style>
 </defs>
 <g id="figure_1">
  <g id="patch_1">
   <path d="M 0 345.6 
L 460.8 345.6 
L 460.8 0 
L 0 0 
z
" style="fill: #ffffff"/>
  </g>
  <g id="axes_1">
   <g id="patch_2">
    <path d="M 57.6 298.944 
L 360.8064 298.944 
L 360.8064 6.912 
L 57.6 6.912 
z
" style="fill: #ffffff"/>
   </g>
   <g id="line2d_1">
    <path d="M 40.363149 298.944 
L 40.363149 297.685241 
L 66.441498 297.685241 
L 66.441498 296.426483 
L 68.65718 296.426483 
L 68.65718 293.908966 
L 80.621116 293.908966 
L 80.621116 288.873931 
L 81.696354 288.873931 
L 81.696354 286.356414 
L 95.752617 286.356414 
L 95.752617 283.838897 
L 100.147275 283.838897 
L 100.147275 281.321379 
L 111.54963 281.321379 
L 111.54963 278.803862 
L 114.872193 278.803862 
L 114.872193 276.286345 
L 118.74459 276.286345 
L 118.74459 273.768828 
L 119.876453 273.768828 
L 119.876453 272.510069 
L 131.191226 272.510069 
L 131.191226 271.25131 
L 134.683578 271.25131 
L 134.683578 269.992552 
L 137.734561 269.992552 
L 137.734561 266.216276 
L 147.628773 266.216276 
L 147.628773 264.957517 
L 160.351247 264.957517 
L 160.351247 261.181241 
L 161.482294 261.181241 
L 161.482294 258.663724 
L 161.942766 258.663724 
L 161.942766 254.887448 
L 171.756506 254.887448 
L 171.756506 252.369931 
L 176.54402 252.369931 
L 176.54402 248.593655 
L 178.104724 248.593655 
L 178.104724 246.076138 
L 179.383934 246.076138 
L 179.383934 244.817379 
L 181.967579 244.817379 
L 182.068527 241.041103 
L 185.391425 241.041103 
L 185.391425 238.523586 
L 186.103411 238.523586 
L 186.103411 236.006069 
L 190.579304 236.006069 
L 190.579304 234.74731 
L 194.66973 234.74731 
L 194.66973 230.971034 
L 198.371444 230.971034 
L 198.371444 229.712276 
L 207.486035 229.712276 
L 207.486035 227.194759 
L 210.783455 227.194759 
L 210.783455 223.418483 
L 214.313757 223.418483 
L 214.313757 220.900966 
L 214.908137 220.900966 
L 214.908137 217.12469 
L 217.58157 217.12469 
L 217.58157 214.607172 
L 222.736835 214.607172 
L 222.736835 212.089655 
L 226.722287 212.089655 
L 226.722287 209.572138 
L 230.362911 209.572138 
L 230.362911 205.795862 
L 237.585265 205.795862 
L 237.585265 203.278345 
L 240.456147 203.278345 
L 240.456147 200.760828 
L 246.456016 200.760828 
L 246.456016 198.24331 
L 250.049976 198.24331 
L 250.049976 195.725793 
L 250.758171 195.725793 
L 250.758171 193.208276 
L 257.397965 193.208276 
L 257.397965 190.690759 
L 258.010149 190.690759 
L 258.010149 188.173241 
L 261.582676 188.173241 
L 261.582676 186.914483 
L 262.972736 186.914483 
L 262.972736 184.396966 
L 263.362537 184.396966 
L 263.362537 181.879448 
L 264.554597 181.879448 
L 264.554597 180.62069 
L 269.764115 180.62069 
L 269.764115 179.361931 
L 271.659251 179.361931 
L 271.659251 178.103172 
L 272.36309 178.103172 
L 272.36309 174.326897 
L 277.870533 174.326897 
L 277.870533 170.550621 
L 278.52575 170.550621 
L 278.52575 166.774345 
L 280.441955 166.774345 
L 280.441955 162.998069 
L 288.312953 162.998069 
L 288.312953 161.73931 
L 292.717319 161.73931 
L 292.717319 157.963034 
L 294.102352 157.963034 
L 294.102352 156.704276 
L 295.138909 156.704276 
L 295.138909 155.445517 
L 296.407427 155.445517 
L 296.407427 154.186759 
L 301.247558 154.186759 
L 301.247558 150.410483 
L 301.531921 150.410483 
L 301.531921 146.634207 
L 304.70893 146.634207 
L 304.70893 142.857931 
L 306.900778 142.857931 
L 306.900778 140.340414 
L 309.128961 140.340414 
L 309.128961 137.822897 
L 309.403705 137.822897 
L 309.403705 135.305379 
L 311.118417 135.305379 
L 311.118417 132.787862 
L 315.269827 132.787862 
L 315.269827 131.529103 
L 316.719375 131.529103 
L 316.719375 130.270345 
L 318.215609 130.270345 
L 318.215609 126.494069 
L 319.010104 126.494069 
L 319.010104 125.23531 
L 321.225981 125.23531 
L 321.225981 123.976552 
L 321.76197 123.976552 
L 321.76197 122.717793 
L 324.700587 122.717793 
L 324.700587 118.941517 
L 325.588348 118.941517 
L 325.588348 115.165241 
L 332.340264 115.165241 
L 332.340264 111.388966 
L 332.822443 111.388966 
L 332.822443 107.61269 
L 333.30072 107.61269 
L 333.30072 106.353931 
L 333.808798 106.353931 
L 333.808798 102.577655 
L 334.117418 102.577655 
L 334.184783 98.801379 
L 334.866514 98.801379 
L 334.866514 96.283862 
L 335.034794 96.283862 
L 335.034794 92.507586 
L 338.85785 92.507586 
L 338.85785 91.248828 
L 347.429754 91.248828 
L 347.429754 87.472552 
L 347.545214 87.472552 
L 347.568885 82.437517 
L 347.711453 82.437517 
L 347.711453 81.178759 
L 348.553793 81.178759 
L 348.553793 78.661241 
L 348.908783 78.661241 
L 348.908783 76.143724 
L 349.029389 76.143724 
L 349.13066 69.849931 
L 349.406277 69.849931 
L 349.406277 68.591172 
L 349.718058 68.591172 
L 349.718058 66.073655 
L 350.018423 66.073655 
L 350.018423 63.556138 
L 360.8064 63.556138 
L 360.8064 63.556138 
" style="fill: none; stroke: #f5deb3; stroke-width: 4; stroke-linecap: square"/>
   </g>
   <g id="line2d_2">
    <defs>
     <path id="m1f6e8880f1" d="M -0 7.778175 
L 7.778175 0 
L 0 -7.778175 
L -7.778175 -0 
z
" style="stroke: #f5deb3; stroke-width: 1.5; stroke-linejoin: miter"/>
    </defs>
    <g>
     <use xlink:href="#m1f6e8880f1" x="100.147275" y="281.321379" style="fill: #f5deb3; stroke: #f5deb3; stroke-width: 1.5; stroke-linejoin: miter"/>
     <use xlink:href="#m1f6e8880f1" x="179.383934" y="246.076138" style="fill: #f5deb3; stroke: #f5deb3; stroke-width: 1.5; stroke-linejoin: miter"/>
     <use xlink:href="#m1f6e8880f1" x="250.758171" y="195.725793" style="fill: #f5deb3; stroke: #f5deb3; stroke-width: 1.5; stroke-linejoin: miter"/>
     <use xlink:href="#m1f6e8880f1" x="321.76197" y="122.717793" style="fill: #f5deb3; stroke: #f5deb3; stroke-width: 1.5; stroke-linejoin: miter"/>
     <use xlink:href="#m1f6e8880f1" x="350.018423" y="63.556138" style="fill: #f5deb3; stroke: #f5deb3; stroke-width: 1.5; stroke-linejoin: miter"/>
     <use xlink:href="#m1f6e8880f1" x="360.8064" y="63.556138" style="fill: #f5deb3; stroke: #f5deb3; stroke-width: 1.5; stroke-linejoin: miter"/>
    </g>
   </g>
   <g id="line2d_3">
    <path style="fill: none; stroke: #f5deb3; stroke-width: 4; stroke-linecap: square"/>
    <g/>
   </g>
   <g id="line2d_4">
    <path d="M 360.8064 63.556138 
L 380.514816 12.75264 
" style="fill: none; stroke: #f5deb3; stroke-width: 4; stroke-linecap: square"/>
    <g>
     <use xlink:href="#m1f6e8880f1" x="360.8064" y="63.556138" style="fill: #f5deb3; stroke: #f5deb3; stroke-width: 1.5; stroke-linejoin: miter"/>
     <use xlink:href="#m1f6e8880f1" x="380.514816" y="12.75264" style="fill: #f5deb3; stroke: #f5deb3; stroke-width: 1.5; stroke-linejoin: miter"/>
    </g>
   </g>
   <g id="matplotlib.axis_1">
    <g id="xtick_1">
     <g id="line2d_5">
      <path d="M 57.6 298.944 
L 57.6 6.912 
" clip-path="url(#p37f853b428)" style="fill: none; stroke: #b0b0b0; stroke-width: 0.8; stroke-linecap: square"/>
     </g>
     <g id="line2d_6">
      <defs>
       <path id="mdd6f576faa" d="M 0 0 
L 0 3.5 
" style="stroke: #000000; stroke-width: 0.8"/>
      </defs>
      <g>
       <use xlink:href="#mdd6f576faa" x="57.6" y="298.944" style="stroke: #000000; stroke-width: 0.8"/>
      </g>
     </g>
     <g id="text_1">
      <!-- 0 -->
      <g transform="translate(52.191875 318.861344) scale(0.17 -0.17)">
       <defs>
        <path id="DejaVuSans-30" d="M 2034 4250 
Q 1547 4250 1301 3770 
Q 1056 3291 1056 2328 
Q 1056 1369 1301 889 
Q 1547 409 2034 409 
Q 2525 409 2770 889 
Q 3016 1369 3016 2328 
Q 3016 3291 2770 3770 
Q 2525 4250 2034 4250 
z
M 2034 4750 
Q 2819 4750 3233 4129 
Q 3647 3509 3647 2328 
Q 3647 1150 3233 529 
Q 2819 -91 2034 -91 
Q 1250 -91 836 529 
Q 422 1150 422 2328 
Q 422 3509 836 4129 
Q 1250 4750 2034 4750 
z
" transform="scale(0.015625)"/>
       </defs>
       <use xlink:href="#DejaVuSans-30"/>
      </g>
     </g>
    </g>
    <g id="xtick_2">
     <g id="line2d_7">
      <path d="M 144.2304 298.944 
L 144.2304 6.912 
" clip-path="url(#p37f853b428)" style="fill: none; stroke: #b0b0b0; stroke-width: 0.8; stroke-linecap: square"/>
     </g>
     <g id="line2d_8">
      <g>
       <use xlink:href="#mdd6f576faa" x="144.2304" y="298.944" style="stroke: #000000; stroke-width: 0.8"/>
      </g>
     </g>
     <g id="text_2">
      <!-- 2 -->
      <g transform="translate(138.822275 318.861344) scale(0.17 -0.17)">
       <defs>
        <path id="DejaVuSans-32" d="M 1228 531 
L 3431 531 
L 3431 0 
L 469 0 
L 469 531 
Q 828 903 1448 1529 
Q 2069 2156 2228 2338 
Q 2531 2678 2651 2914 
Q 2772 3150 2772 3378 
Q 2772 3750 2511 3984 
Q 2250 4219 1831 4219 
Q 1534 4219 1204 4116 
Q 875 4013 500 3803 
L 500 4441 
Q 881 4594 1212 4672 
Q 1544 4750 1819 4750 
Q 2544 4750 2975 4387 
Q 3406 4025 3406 3419 
Q 3406 3131 3298 2873 
Q 3191 2616 2906 2266 
Q 2828 2175 2409 1742 
Q 1991 1309 1228 531 
z
" transform="scale(0.015625)"/>
       </defs>
       <use xlink:href="#DejaVuSans-32"/>
      </g>
     </g>
    </g>
    <g id="xtick_3">
     <g id="line2d_9">
      <path d="M 230.8608 298.944 
L 230.8608 6.912 
" clip-path="url(#p37f853b428)" style="fill: none; stroke: #b0b0b0; stroke-width: 0.8; stroke-linecap: square"/>
     </g>
     <g id="line2d_10">
      <g>
       <use xlink:href="#mdd6f576faa" x="230.8608" y="298.944" style="stroke: #000000; stroke-width: 0.8"/>
      </g>
     </g>
     <g id="text_3">
      <!-- 4 -->
      <g transform="translate(225.452675 318.861344) scale(0.17 -0.17)">
       <defs>
        <path id="DejaVuSans-34" d="M 2419 4116 
L 825 1625 
L 2419 1625 
L 2419 4116 
z
M 2253 4666 
L 3047 4666 
L 3047 1625 
L 3713 1625 
L 3713 1100 
L 3047 1100 
L 3047 0 
L 2419 0 
L 2419 1100 
L 313 1100 
L 313 1709 
L 2253 4666 
z
" transform="scale(0.015625)"/>
       </defs>
       <use xlink:href="#DejaVuSans-34"/>
      </g>
     </g>
    </g>
    <g id="xtick_4">
     <g id="line2d_11">
      <path d="M 317.4912 298.944 
L 317.4912 6.912 
" clip-path="url(#p37f853b428)" style="fill: none; stroke: #b0b0b0; stroke-width: 0.8; stroke-linecap: square"/>
     </g>
     <g id="line2d_12">
      <g>
       <use xlink:href="#mdd6f576faa" x="317.4912" y="298.944" style="stroke: #000000; stroke-width: 0.8"/>
      </g>
     </g>
     <g id="text_4">
      <!-- 6 -->
      <g transform="translate(312.083075 318.861344) scale(0.17 -0.17)">
       <defs>
        <path id="DejaVuSans-36" d="M 2113 2584 
Q 1688 2584 1439 2293 
Q 1191 2003 1191 1497 
Q 1191 994 1439 701 
Q 1688 409 2113 409 
Q 2538 409 2786 701 
Q 3034 994 3034 1497 
Q 3034 2003 2786 2293 
Q 2538 2584 2113 2584 
z
M 3366 4563 
L 3366 3988 
Q 3128 4100 2886 4159 
Q 2644 4219 2406 4219 
Q 1781 4219 1451 3797 
Q 1122 3375 1075 2522 
Q 1259 2794 1537 2939 
Q 1816 3084 2150 3084 
Q 2853 3084 3261 2657 
Q 3669 2231 3669 1497 
Q 3669 778 3244 343 
Q 2819 -91 2113 -91 
Q 1303 -91 875 529 
Q 447 1150 447 2328 
Q 447 3434 972 4092 
Q 1497 4750 2381 4750 
Q 2619 4750 2861 4703 
Q 3103 4656 3366 4563 
z
" transform="scale(0.015625)"/>
       </defs>
       <use xlink:href="#DejaVuSans-36"/>
      </g>
     </g>
    </g>
    <g id="xtick_5">
     <g id="line2d_13">
      <path d="M 100.9152 298.944 
L 100.9152 6.912 
" clip-path="url(#p37f853b428)" style="fill: none; stroke: #b0b0b0; stroke-width: 0.8; stroke-linecap: square"/>
     </g>
     <g id="line2d_14">
      <defs>
       <path id="ma8b4959ceb" d="M 0 0 
L 0 2 
" style="stroke: #000000; stroke-width: 0.6"/>
      </defs>
      <g>
       <use xlink:href="#ma8b4959ceb" x="100.9152" y="298.944" style="stroke: #000000; stroke-width: 0.6"/>
      </g>
     </g>
    </g>
    <g id="xtick_6">
     <g id="line2d_15">
      <path d="M 187.5456 298.944 
L 187.5456 6.912 
" clip-path="url(#p37f853b428)" style="fill: none; stroke: #b0b0b0; stroke-width: 0.8; stroke-linecap: square"/>
     </g>
     <g id="line2d_16">
      <g>
       <use xlink:href="#ma8b4959ceb" x="187.5456" y="298.944" style="stroke: #000000; stroke-width: 0.6"/>
      </g>
     </g>
    </g>
    <g id="xtick_7">
     <g id="line2d_17">
      <path d="M 274.176 298.944 
L 274.176 6.912 
" clip-path="url(#p37f853b428)" style="fill: none; stroke: #b0b0b0; stroke-width: 0.8; stroke-linecap: square"/>
     </g>
     <g id="line2d_18">
      <g>
       <use xlink:href="#ma8b4959ceb" x="274.176" y="298.944" style="stroke: #000000; stroke-width: 0.6"/>
      </g>
     </g>
    </g>
    <g id="xtick_8">
     <g id="line2d_19">
      <path d="M 360.8064 298.944 
L 360.8064 6.912 
" clip-path="url(#p37f853b428)" style="fill: none; stroke: #b0b0b0; stroke-width: 0.8; stroke-linecap: square"/>
     </g>
     <g id="line2d_20">
      <g>
       <use xlink:href="#ma8b4959ceb" x="360.8064" y="298.944" style="stroke: #000000; stroke-width: 0.6"/>
      </g>
     </g>
    </g>
    <g id="text_5">
     <!-- log10(# f-evals / dimension) -->
     <g transform="translate(88.823278 339.314156) scale(0.17 -0.17)">
      <defs>
       <path id="DejaVuSans-6c" d="M 603 4863 
L 1178 4863 
L 1178 0 
L 603 0 
L 603 4863 
z
" transform="scale(0.015625)"/>
       <path id="DejaVuSans-6f" d="M 1959 3097 
Q 1497 3097 1228 2736 
Q 959 2375 959 1747 
Q 959 1119 1226 758 
Q 1494 397 1959 397 
Q 2419 397 2687 759 
Q 2956 1122 2956 1747 
Q 2956 2369 2687 2733 
Q 2419 3097 1959 3097 
z
M 1959 3584 
Q 2709 3584 3137 3096 
Q 3566 2609 3566 1747 
Q 3566 888 3137 398 
Q 2709 -91 1959 -91 
Q 1206 -91 779 398 
Q 353 888 353 1747 
Q 353 2609 779 3096 
Q 1206 3584 1959 3584 
z
" transform="scale(0.015625)"/>
       <path id="DejaVuSans-67" d="M 2906 1791 
Q 2906 2416 2648 2759 
Q 2391 3103 1925 3103 
Q 1463 3103 1205 2759 
Q 947 2416 947 1791 
Q 947 1169 1205 825 
Q 1463 481 1925 481 
Q 2391 481 2648 825 
Q 2906 1169 2906 1791 
z
M 3481 434 
Q 3481 -459 3084 -895 
Q 2688 -1331 1869 -1331 
Q 1566 -1331 1297 -1286 
Q 1028 -1241 775 -1147 
L 775 -588 
Q 1028 -725 1275 -790 
Q 1522 -856 1778 -856 
Q 2344 -856 2625 -561 
Q 2906 -266 2906 331 
L 2906 616 
Q 2728 306 2450 153 
Q 2172 0 1784 0 
Q 1141 0 747 490 
Q 353 981 353 1791 
Q 353 2603 747 3093 
Q 1141 3584 1784 3584 
Q 2172 3584 2450 3431 
Q 2728 3278 2906 2969 
L 2906 3500 
L 3481 3500 
L 3481 434 
z
" transform="scale(0.015625)"/>
       <path id="DejaVuSans-31" d="M 794 531 
L 1825 531 
L 1825 4091 
L 703 3866 
L 703 4441 
L 1819 4666 
L 2450 4666 
L 2450 531 
L 3481 531 
L 3481 0 
L 794 0 
L 794 531 
z
" transform="scale(0.015625)"/>
       <path id="DejaVuSans-28" d="M 1984 4856 
Q 1566 4138 1362 3434 
Q 1159 2731 1159 2009 
Q 1159 1288 1364 580 
Q 1569 -128 1984 -844 
L 1484 -844 
Q 1016 -109 783 600 
Q 550 1309 550 2009 
Q 550 2706 781 3412 
Q 1013 4119 1484 4856 
L 1984 4856 
z
" transform="scale(0.015625)"/>
       <path id="DejaVuSans-23" d="M 3272 2816 
L 2363 2816 
L 2100 1772 
L 3016 1772 
L 3272 2816 
z
M 2803 4594 
L 2478 3297 
L 3391 3297 
L 3719 4594 
L 4219 4594 
L 3897 3297 
L 4872 3297 
L 4872 2816 
L 3775 2816 
L 3519 1772 
L 4513 1772 
L 4513 1294 
L 3397 1294 
L 3072 0 
L 2572 0 
L 2894 1294 
L 1978 1294 
L 1656 0 
L 1153 0 
L 1478 1294 
L 494 1294 
L 494 1772 
L 1594 1772 
L 1856 2816 
L 850 2816 
L 850 3297 
L 1978 3297 
L 2297 4594 
L 2803 4594 
z
" transform="scale(0.015625)"/>
       <path id="DejaVuSans-20" transform="scale(0.015625)"/>
       <path id="DejaVuSans-66" d="M 2375 4863 
L 2375 4384 
L 1825 4384 
Q 1516 4384 1395 4259 
Q 1275 4134 1275 3809 
L 1275 3500 
L 2222 3500 
L 2222 3053 
L 1275 3053 
L 1275 0 
L 697 0 
L 697 3053 
L 147 3053 
L 147 3500 
L 697 3500 
L 697 3744 
Q 697 4328 969 4595 
Q 1241 4863 1831 4863 
L 2375 4863 
z
" transform="scale(0.015625)"/>
       <path id="DejaVuSans-2d" d="M 313 2009 
L 1997 2009 
L 1997 1497 
L 313 1497 
L 313 2009 
z
" transform="scale(0.015625)"/>
       <path id="DejaVuSans-65" d="M 3597 1894 
L 3597 1613 
L 953 1613 
Q 991 1019 1311 708 
Q 1631 397 2203 397 
Q 2534 397 2845 478 
Q 3156 559 3463 722 
L 3463 178 
Q 3153 47 2828 -22 
Q 2503 -91 2169 -91 
Q 1331 -91 842 396 
Q 353 884 353 1716 
Q 353 2575 817 3079 
Q 1281 3584 2069 3584 
Q 2775 3584 3186 3129 
Q 3597 2675 3597 1894 
z
M 3022 2063 
Q 3016 2534 2758 2815 
Q 2500 3097 2075 3097 
Q 1594 3097 1305 2825 
Q 1016 2553 972 2059 
L 3022 2063 
z
" transform="scale(0.015625)"/>
       <path id="DejaVuSans-76" d="M 191 3500 
L 800 3500 
L 1894 563 
L 2988 3500 
L 3597 3500 
L 2284 0 
L 1503 0 
L 191 3500 
z
" transform="scale(0.015625)"/>
       <path id="DejaVuSans-61" d="M 2194 1759 
Q 1497 1759 1228 1600 
Q 959 1441 959 1056 
Q 959 750 1161 570 
Q 1363 391 1709 391 
Q 2188 391 2477 730 
Q 2766 1069 2766 1631 
L 2766 1759 
L 2194 1759 
z
M 3341 1997 
L 3341 0 
L 2766 0 
L 2766 531 
Q 2569 213 2275 61 
Q 1981 -91 1556 -91 
Q 1019 -91 701 211 
Q 384 513 384 1019 
Q 384 1609 779 1909 
Q 1175 2209 1959 2209 
L 2766 2209 
L 2766 2266 
Q 2766 2663 2505 2880 
Q 2244 3097 1772 3097 
Q 1472 3097 1187 3025 
Q 903 2953 641 2809 
L 641 3341 
Q 956 3463 1253 3523 
Q 1550 3584 1831 3584 
Q 2591 3584 2966 3190 
Q 3341 2797 3341 1997 
z
" transform="scale(0.015625)"/>
       <path id="DejaVuSans-73" d="M 2834 3397 
L 2834 2853 
Q 2591 2978 2328 3040 
Q 2066 3103 1784 3103 
Q 1356 3103 1142 2972 
Q 928 2841 928 2578 
Q 928 2378 1081 2264 
Q 1234 2150 1697 2047 
L 1894 2003 
Q 2506 1872 2764 1633 
Q 3022 1394 3022 966 
Q 3022 478 2636 193 
Q 2250 -91 1575 -91 
Q 1294 -91 989 -36 
Q 684 19 347 128 
L 347 722 
Q 666 556 975 473 
Q 1284 391 1588 391 
Q 1994 391 2212 530 
Q 2431 669 2431 922 
Q 2431 1156 2273 1281 
Q 2116 1406 1581 1522 
L 1381 1569 
Q 847 1681 609 1914 
Q 372 2147 372 2553 
Q 372 3047 722 3315 
Q 1072 3584 1716 3584 
Q 2034 3584 2315 3537 
Q 2597 3491 2834 3397 
z
" transform="scale(0.015625)"/>
       <path id="DejaVuSans-2f" d="M 1625 4666 
L 2156 4666 
L 531 -594 
L 0 -594 
L 1625 4666 
z
" transform="scale(0.015625)"/>
       <path id="DejaVuSans-64" d="M 2906 2969 
L 2906 4863 
L 3481 4863 
L 3481 0 
L 2906 0 
L 2906 525 
Q 2725 213 2448 61 
Q 2172 -91 1784 -91 
Q 1150 -91 751 415 
Q 353 922 353 1747 
Q 353 2572 751 3078 
Q 1150 3584 1784 3584 
Q 2172 3584 2448 3432 
Q 2725 3281 2906 2969 
z
M 947 1747 
Q 947 1113 1208 752 
Q 1469 391 1925 391 
Q 2381 391 2643 752 
Q 2906 1113 2906 1747 
Q 2906 2381 2643 2742 
Q 2381 3103 1925 3103 
Q 1469 3103 1208 2742 
Q 947 2381 947 1747 
z
" transform="scale(0.015625)"/>
       <path id="DejaVuSans-69" d="M 603 3500 
L 1178 3500 
L 1178 0 
L 603 0 
L 603 3500 
z
M 603 4863 
L 1178 4863 
L 1178 4134 
L 603 4134 
L 603 4863 
z
" transform="scale(0.015625)"/>
       <path id="DejaVuSans-6d" d="M 3328 2828 
Q 3544 3216 3844 3400 
Q 4144 3584 4550 3584 
Q 5097 3584 5394 3201 
Q 5691 2819 5691 2113 
L 5691 0 
L 5113 0 
L 5113 2094 
Q 5113 2597 4934 2840 
Q 4756 3084 4391 3084 
Q 3944 3084 3684 2787 
Q 3425 2491 3425 1978 
L 3425 0 
L 2847 0 
L 2847 2094 
Q 2847 2600 2669 2842 
Q 2491 3084 2119 3084 
Q 1678 3084 1418 2786 
Q 1159 2488 1159 1978 
L 1159 0 
L 581 0 
L 581 3500 
L 1159 3500 
L 1159 2956 
Q 1356 3278 1631 3431 
Q 1906 3584 2284 3584 
Q 2666 3584 2933 3390 
Q 3200 3197 3328 2828 
z
" transform="scale(0.015625)"/>
       <path id="DejaVuSans-6e" d="M 3513 2113 
L 3513 0 
L 2938 0 
L 2938 2094 
Q 2938 2591 2744 2837 
Q 2550 3084 2163 3084 
Q 1697 3084 1428 2787 
Q 1159 2491 1159 1978 
L 1159 0 
L 581 0 
L 581 3500 
L 1159 3500 
L 1159 2956 
Q 1366 3272 1645 3428 
Q 1925 3584 2291 3584 
Q 2894 3584 3203 3211 
Q 3513 2838 3513 2113 
z
" transform="scale(0.015625)"/>
       <path id="DejaVuSans-29" d="M 513 4856 
L 1013 4856 
Q 1481 4119 1714 3412 
Q 1947 2706 1947 2009 
Q 1947 1309 1714 600 
Q 1481 -109 1013 -844 
L 513 -844 
Q 928 -128 1133 580 
Q 1338 1288 1338 2009 
Q 1338 2731 1133 3434 
Q 928 4138 513 4856 
z
" transform="scale(0.015625)"/>
      </defs>
      <use xlink:href="#DejaVuSans-6c"/>
      <use xlink:href="#DejaVuSans-6f" x="27.783203"/>
      <use xlink:href="#DejaVuSans-67" x="88.964844"/>
      <use xlink:href="#DejaVuSans-31" x="152.441406"/>
      <use xlink:href="#DejaVuSans-30" x="216.064453"/>
      <use xlink:href="#DejaVuSans-28" x="279.6875"/>
      <use xlink:href="#DejaVuSans-23" x="318.701172"/>
      <use xlink:href="#DejaVuSans-20" x="402.490234"/>
      <use xlink:href="#DejaVuSans-66" x="434.277344"/>
      <use xlink:href="#DejaVuSans-2d" x="463.982422"/>
      <use xlink:href="#DejaVuSans-65" x="500.066406"/>
      <use xlink:href="#DejaVuSans-76" x="561.589844"/>
      <use xlink:href="#DejaVuSans-61" x="620.769531"/>
      <use xlink:href="#DejaVuSans-6c" x="682.048828"/>
      <use xlink:href="#DejaVuSans-73" x="709.832031"/>
      <use xlink:href="#DejaVuSans-20" x="761.931641"/>
      <use xlink:href="#DejaVuSans-2f" x="793.71875"/>
      <use xlink:href="#DejaVuSans-20" x="827.410156"/>
      <use xlink:href="#DejaVuSans-64" x="859.197266"/>
      <use xlink:href="#DejaVuSans-69" x="922.673828"/>
      <use xlink:href="#DejaVuSans-6d" x="950.457031"/>
      <use xlink:href="#DejaVuSans-65" x="1047.869141"/>
      <use xlink:href="#DejaVuSans-6e" x="1109.392578"/>
      <use xlink:href="#DejaVuSans-73" x="1172.771484"/>
      <use xlink:href="#DejaVuSans-69" x="1224.871094"/>
      <use xlink:href="#DejaVuSans-6f" x="1252.654297"/>
      <use xlink:href="#DejaVuSans-6e" x="1313.835938"/>
      <use xlink:href="#DejaVuSans-29" x="1377.214844"/>
     </g>
    </g>
   </g>
   <g id="matplotlib.axis_2">
    <g id="ytick_1">
     <g id="line2d_21">
      <path d="M 57.6 298.944 
L 360.8064 298.944 
" clip-path="url(#p37f853b428)" style="fill: none; stroke: #b0b0b0; stroke-width: 0.8; stroke-linecap: square"/>
     </g>
     <g id="line2d_22">
      <defs>
       <path id="m77320ad5f7" d="M 0 0 
L -3.5 0 
" style="stroke: #000000; stroke-width: 0.8"/>
      </defs>
      <g>
       <use xlink:href="#m77320ad5f7" x="57.6" y="298.944" style="stroke: #000000; stroke-width: 0.8"/>
      </g>
     </g>
     <g id="text_6">
      <!-- 0.0 -->
      <g transform="translate(25.155 305.02275) scale(0.16 -0.16)">
       <defs>
        <path id="DejaVuSans-2e" d="M 684 794 
L 1344 794 
L 1344 0 
L 684 0 
L 684 794 
z
" transform="scale(0.015625)"/>
       </defs>
       <use xlink:href="#DejaVuSans-30"/>
       <use xlink:href="#DejaVuSans-2e" x="63.623047"/>
       <use xlink:href="#DejaVuSans-30" x="95.410156"/>
      </g>
     </g>
    </g>
    <g id="ytick_2">
     <g id="line2d_23">
      <path d="M 57.6 240.5376 
L 360.8064 240.5376 
" clip-path="url(#p37f853b428)" style="fill: none; stroke: #b0b0b0; stroke-width: 0.8; stroke-linecap: square"/>
     </g>
     <g id="line2d_24">
      <g>
       <use xlink:href="#m77320ad5f7" x="57.6" y="240.5376" style="stroke: #000000; stroke-width: 0.8"/>
      </g>
     </g>
     <g id="text_7">
      <!-- 0.2 -->
      <g transform="translate(25.155 246.61635) scale(0.16 -0.16)">
       <use xlink:href="#DejaVuSans-30"/>
       <use xlink:href="#DejaVuSans-2e" x="63.623047"/>
       <use xlink:href="#DejaVuSans-32" x="95.410156"/>
      </g>
     </g>
    </g>
    <g id="ytick_3">
     <g id="line2d_25">
      <path d="M 57.6 182.1312 
L 360.8064 182.1312 
" clip-path="url(#p37f853b428)" style="fill: none; stroke: #b0b0b0; stroke-width: 0.8; stroke-linecap: square"/>
     </g>
     <g id="line2d_26">
      <g>
       <use xlink:href="#m77320ad5f7" x="57.6" y="182.1312" style="stroke: #000000; stroke-width: 0.8"/>
      </g>
     </g>
     <g id="text_8">
      <!-- 0.4 -->
      <g transform="translate(25.155 188.20995) scale(0.16 -0.16)">
       <use xlink:href="#DejaVuSans-30"/>
       <use xlink:href="#DejaVuSans-2e" x="63.623047"/>
       <use xlink:href="#DejaVuSans-34" x="95.410156"/>
      </g>
     </g>
    </g>
    <g id="ytick_4">
     <g id="line2d_27">
      <path d="M 57.6 123.7248 
L 360.8064 123.7248 
" clip-path="url(#p37f853b428)" style="fill: none; stroke: #b0b0b0; stroke-width: 0.8; stroke-linecap: square"/>
     </g>
     <g id="line2d_28">
      <g>
       <use xlink:href="#m77320ad5f7" x="57.6" y="123.7248" style="stroke: #000000; stroke-width: 0.8"/>
      </g>
     </g>
     <g id="text_9">
      <!-- 0.6 -->
      <g transform="translate(25.155 129.80355) scale(0.16 -0.16)">
       <use xlink:href="#DejaVuSans-30"/>
       <use xlink:href="#DejaVuSans-2e" x="63.623047"/>
       <use xlink:href="#DejaVuSans-36" x="95.410156"/>
      </g>
     </g>
    </g>
    <g id="ytick_5">
     <g id="line2d_29">
      <path d="M 57.6 65.3184 
L 360.8064 65.3184 
" clip-path="url(#p37f853b428)" style="fill: none; stroke: #b0b0b0; stroke-width: 0.8; stroke-linecap: square"/>
     </g>
     <g id="line2d_30">
      <g>
       <use xlink:href="#m77320ad5f7" x="57.6" y="65.3184" style="stroke: #000000; stroke-width: 0.8"/>
      </g>
     </g>
     <g id="text_10">
      <!-- 0.8 -->
      <g transform="translate(25.155 71.39715) scale(0.16 -0.16)">
       <defs>
        <path id="DejaVuSans-38" d="M 2034 2216 
Q 1584 2216 1326 1975 
Q 1069 1734 1069 1313 
Q 1069 891 1326 650 
Q 1584 409 2034 409 
Q 2484 409 2743 651 
Q 3003 894 3003 1313 
Q 3003 1734 2745 1975 
Q 2488 2216 2034 2216 
z
M 1403 2484 
Q 997 2584 770 2862 
Q 544 3141 544 3541 
Q 544 4100 942 4425 
Q 1341 4750 2034 4750 
Q 2731 4750 3128 4425 
Q 3525 4100 3525 3541 
Q 3525 3141 3298 2862 
Q 3072 2584 2669 2484 
Q 3125 2378 3379 2068 
Q 3634 1759 3634 1313 
Q 3634 634 3220 271 
Q 2806 -91 2034 -91 
Q 1263 -91 848 271 
Q 434 634 434 1313 
Q 434 1759 690 2068 
Q 947 2378 1403 2484 
z
M 1172 3481 
Q 1172 3119 1398 2916 
Q 1625 2713 2034 2713 
Q 2441 2713 2670 2916 
Q 2900 3119 2900 3481 
Q 2900 3844 2670 4047 
Q 2441 4250 2034 4250 
Q 1625 4250 1398 4047 
Q 1172 3844 1172 3481 
z
" transform="scale(0.015625)"/>
       </defs>
       <use xlink:href="#DejaVuSans-30"/>
       <use xlink:href="#DejaVuSans-2e" x="63.623047"/>
       <use xlink:href="#DejaVuSans-38" x="95.410156"/>
      </g>
     </g>
    </g>
    <g id="ytick_6">
     <g id="line2d_31">
      <path d="M 57.6 6.912 
L 360.8064 6.912 
" clip-path="url(#p37f853b428)" style="fill: none; stroke: #b0b0b0; stroke-width: 0.8; stroke-linecap: square"/>
     </g>
     <g id="line2d_32">
      <g>
       <use xlink:href="#m77320ad5f7" x="57.6" y="6.912" style="stroke: #000000; stroke-width: 0.8"/>
      </g>
     </g>
     <g id="text_11">
      <!-- 1.0 -->
      <g transform="translate(25.155 12.99075) scale(0.16 -0.16)">
       <use xlink:href="#DejaVuSans-31"/>
       <use xlink:href="#DejaVuSans-2e" x="63.623047"/>
       <use xlink:href="#DejaVuSans-30" x="95.410156"/>
      </g>
     </g>
    </g>
    <g id="text_12">
     <!-- Fraction of function,target pairs -->
     <g transform="translate(17.619531 287.313) rotate(-90) scale(0.17 -0.17)">
      <defs>
       <path id="DejaVuSans-46" d="M 628 4666 
L 3309 4666 
L 3309 4134 
L 1259 4134 
L 1259 2759 
L 3109 2759 
L 3109 2228 
L 1259 2228 
L 1259 0 
L 628 0 
L 628 4666 
z
" transform="scale(0.015625)"/>
       <path id="DejaVuSans-72" d="M 2631 2963 
Q 2534 3019 2420 3045 
Q 2306 3072 2169 3072 
Q 1681 3072 1420 2755 
Q 1159 2438 1159 1844 
L 1159 0 
L 581 0 
L 581 3500 
L 1159 3500 
L 1159 2956 
Q 1341 3275 1631 3429 
Q 1922 3584 2338 3584 
Q 2397 3584 2469 3576 
Q 2541 3569 2628 3553 
L 2631 2963 
z
" transform="scale(0.015625)"/>
       <path id="DejaVuSans-63" d="M 3122 3366 
L 3122 2828 
Q 2878 2963 2633 3030 
Q 2388 3097 2138 3097 
Q 1578 3097 1268 2742 
Q 959 2388 959 1747 
Q 959 1106 1268 751 
Q 1578 397 2138 397 
Q 2388 397 2633 464 
Q 2878 531 3122 666 
L 3122 134 
Q 2881 22 2623 -34 
Q 2366 -91 2075 -91 
Q 1284 -91 818 406 
Q 353 903 353 1747 
Q 353 2603 823 3093 
Q 1294 3584 2113 3584 
Q 2378 3584 2631 3529 
Q 2884 3475 3122 3366 
z
" transform="scale(0.015625)"/>
       <path id="DejaVuSans-74" d="M 1172 4494 
L 1172 3500 
L 2356 3500 
L 2356 3053 
L 1172 3053 
L 1172 1153 
Q 1172 725 1289 603 
Q 1406 481 1766 481 
L 2356 481 
L 2356 0 
L 1766 0 
Q 1100 0 847 248 
Q 594 497 594 1153 
L 594 3053 
L 172 3053 
L 172 3500 
L 594 3500 
L 594 4494 
L 1172 4494 
z
" transform="scale(0.015625)"/>
       <path id="DejaVuSans-75" d="M 544 1381 
L 544 3500 
L 1119 3500 
L 1119 1403 
Q 1119 906 1312 657 
Q 1506 409 1894 409 
Q 2359 409 2629 706 
Q 2900 1003 2900 1516 
L 2900 3500 
L 3475 3500 
L 3475 0 
L 2900 0 
L 2900 538 
Q 2691 219 2414 64 
Q 2138 -91 1772 -91 
Q 1169 -91 856 284 
Q 544 659 544 1381 
z
M 1991 3584 
L 1991 3584 
z
" transform="scale(0.015625)"/>
       <path id="DejaVuSans-2c" d="M 750 794 
L 1409 794 
L 1409 256 
L 897 -744 
L 494 -744 
L 750 256 
L 750 794 
z
" transform="scale(0.015625)"/>
       <path id="DejaVuSans-70" d="M 1159 525 
L 1159 -1331 
L 581 -1331 
L 581 3500 
L 1159 3500 
L 1159 2969 
Q 1341 3281 1617 3432 
Q 1894 3584 2278 3584 
Q 2916 3584 3314 3078 
Q 3713 2572 3713 1747 
Q 3713 922 3314 415 
Q 2916 -91 2278 -91 
Q 1894 -91 1617 61 
Q 1341 213 1159 525 
z
M 3116 1747 
Q 3116 2381 2855 2742 
Q 2594 3103 2138 3103 
Q 1681 3103 1420 2742 
Q 1159 2381 1159 1747 
Q 1159 1113 1420 752 
Q 1681 391 2138 391 
Q 2594 391 2855 752 
Q 3116 1113 3116 1747 
z
" transform="scale(0.015625)"/>
      </defs>
      <use xlink:href="#DejaVuSans-46"/>
      <use xlink:href="#DejaVuSans-72" x="50.269531"/>
      <use xlink:href="#DejaVuSans-61" x="91.382812"/>
      <use xlink:href="#DejaVuSans-63" x="152.662109"/>
      <use xlink:href="#DejaVuSans-74" x="207.642578"/>
      <use xlink:href="#DejaVuSans-69" x="246.851562"/>
      <use xlink:href="#DejaVuSans-6f" x="274.634766"/>
      <use xlink:href="#DejaVuSans-6e" x="335.816406"/>
      <use xlink:href="#DejaVuSans-20" x="399.195312"/>
      <use xlink:href="#DejaVuSans-6f" x="430.982422"/>
      <use xlink:href="#DejaVuSans-66" x="492.164062"/>
      <use xlink:href="#DejaVuSans-20" x="527.369141"/>
      <use xlink:href="#DejaVuSans-66" x="559.15625"/>
      <use xlink:href="#DejaVuSans-75" x="594.361328"/>
      <use xlink:href="#DejaVuSans-6e" x="657.740234"/>
      <use xlink:href="#DejaVuSans-63" x="721.119141"/>
      <use xlink:href="#DejaVuSans-74" x="776.099609"/>
      <use xlink:href="#DejaVuSans-69" x="815.308594"/>
      <use xlink:href="#DejaVuSans-6f" x="843.091797"/>
      <use xlink:href="#DejaVuSans-6e" x="904.273438"/>
      <use xlink:href="#DejaVuSans-2c" x="967.652344"/>
      <use xlink:href="#DejaVuSans-74" x="999.439453"/>
      <use xlink:href="#DejaVuSans-61" x="1038.648438"/>
      <use xlink:href="#DejaVuSans-72" x="1099.927734"/>
      <use xlink:href="#DejaVuSans-67" x="1139.291016"/>
      <use xlink:href="#DejaVuSans-65" x="1202.767578"/>
      <use xlink:href="#DejaVuSans-74" x="1264.291016"/>
      <use xlink:href="#DejaVuSans-20" x="1303.5"/>
      <use xlink:href="#DejaVuSans-70" x="1335.287109"/>
      <use xlink:href="#DejaVuSans-61" x="1398.763672"/>
      <use xlink:href="#DejaVuSans-69" x="1460.042969"/>
      <use xlink:href="#DejaVuSans-72" x="1487.826172"/>
      <use xlink:href="#DejaVuSans-73" x="1528.939453"/>
     </g>
    </g>
   </g>
   <g id="line2d_33">
    <defs>
     <path id="m5e0ec8f2f3" d="M 0 1.5 
C 0.397805 1.5 0.77937 1.341951 1.06066 1.06066 
C 1.341951 0.77937 1.5 0.397805 1.5 0 
C 1.5 -0.397805 1.341951 -0.77937 1.06066 -1.06066 
C 0.77937 -1.341951 0.397805 -1.5 0 -1.5 
C -0.397805 -1.5 -0.77937 -1.341951 -1.06066 -1.06066 
C -1.341951 -0.77937 -1.5 -0.397805 -1.5 0 
C -1.5 0.397805 -1.341951 0.77937 -1.06066 1.06066 
C -0.77937 1.341951 -0.397805 1.5 0 1.5 
z
" style="stroke: #f5deb3"/>
    </defs>
    <g>
     <use xlink:href="#m5e0ec8f2f3" x="363.502202" y="42.157241" style="fill: #f5deb3; stroke: #f5deb3"/>
     <use xlink:href="#m5e0ec8f2f3" x="363.502202" y="42.157241" style="fill: #f5deb3; stroke: #f5deb3"/>
    </g>
   </g>
   <g id="line2d_34">
    <defs>
     <path id="m3bf0efe1dc" d="M 0 1.5 
C 0.397805 1.5 0.77937 1.341951 1.06066 1.06066 
C 1.341951 0.77937 1.5 0.397805 1.5 0 
C 1.5 -0.397805 1.341951 -0.77937 1.06066 -1.06066 
C 0.77937 -1.341951 0.397805 -1.5 0 -1.5 
C -0.397805 -1.5 -0.77937 -1.341951 -1.06066 -1.06066 
C -1.341951 -0.77937 -1.5 -0.397805 -1.5 0 
C -1.5 0.397805 -1.341951 0.77937 -1.06066 1.06066 
C -0.77937 1.341951 -0.397805 1.5 0 1.5 
z
" style="stroke: #000080"/>
    </defs>
    <g>
     <use xlink:href="#m3bf0efe1dc" x="203.640879" y="218.383448" style="fill: #000080; stroke: #000080"/>
     <use xlink:href="#m3bf0efe1dc" x="203.640879" y="218.383448" style="fill: #000080; stroke: #000080"/>
    </g>
   </g>
   <g id="line2d_35">
    <path d="M 27.323974 298.944 
L 27.323974 292.901959 
L 40.363149 292.901959 
L 40.363149 291.6432 
L 66.441498 291.6432 
L 66.441498 290.762069 
L 76.96874 290.762069 
L 76.96874 289.377434 
L 88.613828 289.377434 
L 88.613828 288.999807 
L 92.519847 288.999807 
L 92.519847 288.873931 
L 95.752617 288.873931 
L 95.752617 288.748055 
L 98.510456 288.748055 
L 98.510456 288.370428 
L 100.9152 288.370428 
L 100.9152 287.489297 
L 103.047088 287.489297 
L 103.047088 286.734041 
L 104.961779 286.734041 
L 104.961779 286.608166 
L 105.559021 286.608166 
L 105.559021 285.85291 
L 106.699465 285.85291 
L 106.699465 285.475283 
L 107.244765 285.475283 
L 107.244765 285.097655 
L 107.774703 285.097655 
L 107.774703 284.971779 
L 108.29012 284.971779 
L 108.29012 284.720028 
L 108.791791 284.720028 
L 108.791791 284.468276 
L 109.280431 284.468276 
L 109.280431 284.090648 
L 109.756698 284.090648 
L 109.756698 283.964772 
L 110.221204 283.964772 
L 110.221204 283.838897 
L 110.674517 283.838897 
L 110.674517 283.209517 
L 111.117162 283.209517 
L 111.117162 283.083641 
L 112.589207 283.083641 
L 112.589207 282.706014 
L 113.57433 282.706014 
L 113.57433 282.328386 
L 113.765312 282.328386 
L 113.765312 281.824883 
L 114.326893 281.824883 
L 114.326893 281.699007 
L 114.510421 281.699007 
L 114.510421 281.573131 
L 114.692177 281.573131 
L 114.692177 281.195503 
L 115.747307 281.195503 
L 115.747307 281.069628 
L 116.419219 281.069628 
L 116.419219 280.817876 
L 116.583514 280.817876 
L 116.583514 280.566124 
L 118.152051 280.566124 
L 118.152051 280.314372 
L 118.301945 280.314372 
L 118.301945 280.188497 
L 118.889854 280.188497 
L 118.889854 280.062621 
L 119.599808 280.062621 
L 119.599808 279.936745 
L 119.738639 279.936745 
L 119.738639 279.810869 
L 120.013265 279.810869 
L 120.013265 279.684993 
L 120.41783 279.684993 
L 120.41783 279.559117 
L 120.813877 279.559117 
L 120.813877 279.307366 
L 120.944062 279.307366 
L 120.944062 279.18149 
L 121.201758 279.18149 
L 121.201758 278.929738 
L 121.455972 278.929738 
L 121.455972 278.803862 
L 122.076872 278.803862 
L 122.076872 278.300359 
L 122.19863 278.300359 
L 122.19863 278.174483 
L 122.795872 278.174483 
L 122.795872 278.048607 
L 123.029559 278.048607 
L 123.029559 277.796855 
L 123.713691 277.796855 
L 123.713691 277.419228 
L 124.481616 277.419228 
L 124.588805 276.789848 
L 124.695386 276.789848 
L 124.695386 276.663972 
L 124.906754 276.663972 
L 125.011554 276.286345 
L 125.219419 276.286345 
L 125.219419 275.782841 
L 125.425011 275.782841 
L 125.425011 275.656966 
L 125.729248 275.656966 
L 125.729248 275.405214 
L 126.028642 275.405214 
L 126.028642 275.279338 
L 126.420564 275.279338 
L 126.420564 275.153462 
L 126.709238 275.153462 
L 126.709238 275.027586 
L 128.441306 275.027586 
L 128.441306 274.90171 
L 129.041269 274.90171 
L 129.125437 274.524083 
L 129.458394 274.524083 
L 129.54072 274.272331 
L 129.622688 274.272331 
L 129.622688 274.146455 
L 129.78556 274.146455 
L 129.78556 274.020579 
L 130.027253 274.020579 
L 130.027253 273.894703 
L 130.579414 273.894703 
L 130.579414 273.642952 
L 130.811181 273.642952 
L 130.811181 273.3912 
L 131.115828 273.3912 
L 131.115828 273.139448 
L 131.856536 273.139448 
L 131.929028 272.887697 
L 132.001241 272.887697 
L 132.001241 272.761821 
L 132.777813 272.761821 
L 132.777813 272.635945 
L 133.120474 272.635945 
L 133.188264 272.258317 
L 133.323114 272.258317 
L 133.323114 272.132441 
L 133.589949 272.132441 
L 133.589949 272.006566 
L 133.853052 272.006566 
L 133.918257 271.754814 
L 134.047992 271.754814 
L 134.047992 271.503062 
L 134.240933 271.503062 
L 134.240933 271.377186 
L 134.683578 271.377186 
L 134.683578 271.25131 
L 134.931919 271.25131 
L 134.931919 271.125434 
L 135.054871 271.125434 
L 135.054871 270.873683 
L 135.177024 270.873683 
L 135.177024 270.621931 
L 135.35878 270.621931 
L 135.35878 270.496055 
L 135.717106 270.496055 
L 135.776169 270.118428 
L 136.010584 270.118428 
L 136.010584 269.992552 
L 136.242113 269.992552 
L 136.242113 269.866676 
L 137.681345 269.866676 
L 137.681345 269.614924 
L 137.893309 269.614924 
L 137.893309 269.489048 
L 138.050729 269.489048 
L 138.050729 269.363172 
L 138.36167 269.363172 
L 138.464186 269.111421 
L 138.566146 269.111421 
L 138.566146 268.985545 
L 138.768422 268.985545 
L 138.868751 268.482041 
L 139.018248 268.482041 
L 139.018248 268.356166 
L 139.362521 268.356166 
L 139.411192 268.104414 
L 139.748412 268.104414 
L 139.796097 267.852662 
L 139.985636 267.852662 
L 139.985636 267.726786 
L 140.219905 267.726786 
L 140.219905 267.60091 
L 141.436884 267.60091 
L 141.523975 267.097407 
L 141.65386 267.097407 
L 141.739954 266.845655 
L 142.038218 266.845655 
L 142.038218 266.719779 
L 142.248405 266.719779 
L 142.248405 266.593903 
L 142.41488 266.593903 
L 142.41488 266.468028 
L 142.824734 266.468028 
L 142.824734 266.216276 
L 142.945969 266.216276 
L 143.02636 265.838648 
L 143.066428 265.838648 
L 143.066428 265.586897 
L 143.18612 265.586897 
L 143.18612 265.461021 
L 143.423243 265.461021 
L 143.423243 265.335145 
L 143.618588 265.335145 
L 143.618588 265.209269 
L 144.417581 265.209269 
L 144.417581 265.083393 
L 144.931992 265.083393 
L 145.040416 264.705766 
L 145.076419 264.705766 
L 145.076419 264.328138 
L 145.326529 264.328138 
L 145.432709 264.076386 
L 145.538293 264.076386 
L 145.573357 263.698759 
L 145.782376 263.698759 
L 145.782376 263.447007 
L 146.057504 263.447007 
L 146.057504 263.321131 
L 146.328666 263.321131 
L 146.395851 262.943503 
L 146.761135 262.943503 
L 146.761135 262.817628 
L 147.216013 262.817628 
L 147.216013 262.565876 
L 147.565858 262.565876 
L 147.597342 262.062372 
L 148.063382 262.062372 
L 148.063382 261.936497 
L 148.246613 261.936497 
L 148.246613 261.810621 
L 148.548087 261.810621 
L 148.637595 261.558869 
L 149.020615 261.558869 
L 149.020615 261.181241 
L 149.338728 261.181241 
L 149.367382 260.92949 
L 149.481565 260.92949 
L 149.481565 260.803614 
L 149.98698 260.803614 
L 150.014665 260.425986 
L 150.124997 260.425986 
L 150.207323 260.174234 
L 150.452162 260.174234 
L 150.452162 260.048359 
L 150.613636 260.048359 
L 150.640414 259.670731 
L 151.168122 259.670731 
L 151.220087 259.293103 
L 151.400845 259.293103 
L 151.426526 258.915476 
L 151.630724 258.915476 
L 151.630724 258.7896 
L 151.757231 258.7896 
L 151.832729 258.537848 
L 152.032588 258.537848 
L 152.106991 258.286097 
L 152.279463 258.286097 
L 152.279463 258.160221 
L 152.401695 258.160221 
L 152.401695 257.908469 
L 152.595631 257.908469 
L 152.595631 257.656717 
L 152.787587 257.656717 
L 152.787587 257.530841 
L 153.305585 257.530841 
L 153.305585 257.404966 
L 153.536404 257.404966 
L 153.536404 257.27909 
L 153.696309 257.27909 
L 153.696309 257.153214 
L 153.922412 257.153214 
L 153.922412 256.901462 
L 154.190197 256.901462 
L 154.190197 256.775586 
L 154.671449 256.775586 
L 154.73613 256.523834 
L 154.907535 256.523834 
L 154.992656 256.146207 
L 155.474761 256.146207 
L 155.474761 256.020331 
L 155.639595 256.020331 
L 155.639595 255.768579 
L 156.34423 255.768579 
L 156.34423 255.642703 
L 156.462418 255.642703 
L 156.462418 255.516828 
L 156.870325 255.516828 
L 156.908716 255.1392 
L 157.325925 255.1392 
L 157.325925 255.013324 
L 157.623641 255.013324 
L 157.623641 254.887448 
L 157.807349 254.887448 
L 157.807349 254.635697 
L 158.241064 254.635697 
L 158.241064 254.509821 
L 158.630038 254.509821 
L 158.630038 254.383945 
L 158.959618 254.383945 
L 158.959618 254.132193 
L 159.215793 254.132193 
L 159.215793 253.754566 
L 159.947723 253.754566 
L 159.947723 253.62869 
L 160.110173 253.62869 
L 160.110173 253.502814 
L 160.541906 253.502814 
L 160.541906 253.376938 
L 160.714996 253.376938 
L 160.714996 253.125186 
L 161.025681 253.125186 
L 161.025681 252.99931 
L 161.376738 252.99931 
L 161.467251 252.621683 
L 161.661881 252.621683 
L 161.765853 252.118179 
L 162.349204 252.118179 
L 162.349204 251.992303 
L 162.56338 251.992303 
L 162.56338 251.866428 
L 163.342092 251.866428 
L 163.342092 251.740552 
L 164.324018 251.740552 
L 164.388551 251.4888 
L 164.720604 251.4888 
L 164.783793 251.111172 
L 165.084184 251.111172 
L 165.084184 250.859421 
L 165.281812 250.859421 
L 165.281812 250.733545 
L 165.477385 250.733545 
L 165.574415 250.230041 
L 165.91013 250.230041 
L 166.016779 249.852414 
L 166.239959 249.852414 
L 166.263299 249.34891 
L 166.356368 249.34891 
L 166.367969 249.097159 
L 166.609959 249.097159 
L 166.609959 248.971283 
L 166.746854 248.971283 
L 166.758217 248.719531 
L 166.860176 248.719531 
L 166.860176 248.593655 
L 167.01769 248.593655 
L 167.01769 248.467779 
L 167.240447 248.467779 
L 167.306762 247.964276 
L 167.372845 247.964276 
L 167.394821 247.712524 
L 167.871912 247.712524 
L 167.871912 247.586648 
L 168.263944 247.586648 
L 168.274427 247.209021 
L 168.534619 247.209021 
L 168.534619 247.083145 
L 168.770857 247.083145 
L 168.770857 246.957269 
L 169.15478 246.957269 
L 169.234617 246.705517 
L 169.609283 246.705517 
L 169.609283 246.579641 
L 169.774511 246.579641 
L 169.880655 245.950262 
L 170.043526 245.950262 
L 170.148167 245.69851 
L 170.186075 245.69851 
L 170.205 245.320883 
L 170.782429 245.320883 
L 170.782429 245.195007 
L 171.082693 245.195007 
L 171.118765 244.817379 
L 171.262365 244.817379 
L 171.351562 244.439752 
L 171.537509 244.439752 
L 171.625414 243.810372 
L 171.669213 243.810372 
L 171.669213 243.684497 
L 171.808687 243.684497 
L 171.895337 243.306869 
L 173.714971 243.306869 
L 173.714971 243.055117 
L 173.925682 243.055117 
L 173.925682 242.803366 
L 174.087951 242.803366 
L 174.149402 242.299862 
L 174.294547 242.299862 
L 174.393216 241.041103 
L 174.483838 241.041103 
L 174.581522 240.789352 
L 174.715944 240.789352 
L 174.73082 240.285848 
L 174.945221 240.285848 
L 174.945221 240.159972 
L 175.084376 240.159972 
L 175.157205 239.908221 
L 175.208017 239.908221 
L 175.208017 239.656469 
L 175.424244 239.656469 
L 175.495771 239.02709 
L 175.638014 239.02709 
L 175.645098 238.649462 
L 175.912332 238.649462 
L 175.947214 238.145959 
L 176.168936 238.145959 
L 176.25827 237.768331 
L 176.388076 237.768331 
L 176.449252 237.516579 
L 176.858725 237.516579 
L 176.958065 237.264828 
L 177.043737 237.264828 
L 177.070019 236.8872 
L 177.556133 236.8872 
L 177.556133 236.635448 
L 177.677313 236.635448 
L 177.677313 236.383697 
L 177.911078 236.383697 
L 177.929905 236.131945 
L 178.370071 236.131945 
L 178.455661 235.880193 
L 178.546935 235.880193 
L 178.637769 235.250814 
L 178.895753 235.250814 
L 178.996779 234.74731 
L 179.055953 234.74731 
L 179.055953 234.495559 
L 179.649133 234.495559 
L 179.717705 233.992055 
L 180.527109 233.992055 
L 180.527109 233.866179 
L 180.663208 233.866179 
L 180.663208 233.614428 
L 180.835991 233.614428 
L 180.889661 233.362676 
L 180.969881 233.362676 
L 180.991216 232.859172 
L 181.171587 232.859172 
L 181.171587 232.733297 
L 181.313602 232.733297 
L 181.402471 232.229793 
L 181.573793 232.229793 
L 181.682009 231.978041 
L 182.178947 231.978041 
L 182.178947 231.72629 
L 182.397862 231.72629 
L 182.457127 231.09691 
L 182.823359 231.09691 
L 182.823359 230.971034 
L 183.15411 230.971034 
L 183.15411 230.719283 
L 183.408962 230.719283 
L 183.479146 230.467531 
L 183.725052 230.467531 
L 183.725052 230.341655 
L 183.862832 230.341655 
L 183.894836 230.089903 
L 184.153434 230.089903 
L 184.153434 229.964028 
L 184.270221 229.964028 
L 184.364022 229.460524 
L 184.660203 229.460524 
L 184.725878 229.082897 
L 185.221913 229.082897 
L 185.221913 228.957021 
L 185.437775 228.957021 
L 185.437775 228.831145 
L 185.659508 228.831145 
L 185.659508 228.705269 
L 185.84986 228.705269 
L 185.84986 228.453517 
L 186.564846 228.453517 
L 186.564846 228.201766 
L 186.754146 228.201766 
L 186.754146 228.07589 
L 186.890986 228.07589 
L 186.890986 227.824138 
L 187.10403 227.824138 
L 187.10403 227.698262 
L 187.428605 227.698262 
L 187.455087 227.194759 
L 187.60195 227.194759 
L 187.658132 226.691255 
L 187.717875 226.691255 
L 187.825678 225.936 
L 187.966008 225.936 
L 187.966008 225.684248 
L 188.08703 225.684248 
L 188.09434 225.180745 
L 188.28702 225.180745 
L 188.308709 224.677241 
L 188.687814 224.677241 
L 188.762021 224.173738 
L 188.878044 224.173738 
L 188.902564 223.921986 
L 189.024683 223.921986 
L 189.024683 223.670234 
L 189.42725 223.670234 
L 189.447664 222.914979 
L 189.562927 222.914979 
L 189.562927 222.789103 
L 189.794695 222.789103 
L 189.811379 222.411476 
L 189.941011 222.411476 
L 189.941011 222.159724 
L 190.138717 222.159724 
L 190.138717 221.907972 
L 190.379727 221.907972 
L 190.379727 221.656221 
L 190.852677 221.656221 
L 190.852677 221.404469 
L 190.987888 221.404469 
L 190.987888 221.278593 
L 191.473475 221.278593 
L 191.473475 221.152717 
L 191.655788 221.152717 
L 191.749295 220.77509 
L 192.306628 220.77509 
L 192.306628 220.649214 
L 192.449217 220.649214 
L 192.452116 220.271586 
L 192.630973 220.271586 
L 192.659662 219.768083 
L 193.249467 219.768083 
L 193.249467 219.642207 
L 193.915432 219.642207 
L 193.915432 219.516331 
L 195.399901 219.516331 
L 195.399901 219.264579 
L 197.152013 219.264579 
L 197.152013 219.012828 
L 199.118197 219.012828 
L 199.118197 218.761076 
L 201.326194 218.761076 
L 201.326194 218.6352 
L 203.640879 218.6352 
L 203.640879 218.383448 
L 360.8064 218.383448 
L 360.8064 218.383448 
" style="fill: none; stroke: #000080; stroke-width: 1.5; stroke-linecap: square"/>
   </g>
   <g id="line2d_36">
    <defs>
     <path id="m076fe78ffb" d="M 0 6 
C 1.591219 6 3.117479 5.367802 4.242641 4.242641 
C 5.367802 3.117479 6 1.591219 6 0 
C 6 -1.591219 5.367802 -3.117479 4.242641 -4.242641 
C 3.117479 -5.367802 1.591219 -6 0 -6 
C -1.591219 -6 -3.117479 -5.367802 -4.242641 -4.242641 
C -5.367802 -3.117479 -6 -1.591219 -6 0 
C -6 1.591219 -5.367802 3.117479 -4.242641 4.242641 
C -3.117479 5.367802 -1.591219 6 0 6 
z
" style="stroke: #000080; stroke-width: 1.5"/>
    </defs>
    <g>
     <use xlink:href="#m076fe78ffb" x="76.96874" y="290.762069" style="fill-opacity: 0; stroke: #000080; stroke-width: 1.5"/>
     <use xlink:href="#m076fe78ffb" x="151.630724" y="258.915476" style="fill-opacity: 0; stroke: #000080; stroke-width: 1.5"/>
     <use xlink:href="#m076fe78ffb" x="203.640879" y="218.6352" style="fill-opacity: 0; stroke: #000080; stroke-width: 1.5"/>
     <use xlink:href="#m076fe78ffb" x="203.640879" y="218.383448" style="fill-opacity: 0; stroke: #000080; stroke-width: 1.5"/>
     <use xlink:href="#m076fe78ffb" x="203.640879" y="218.383448" style="fill-opacity: 0; stroke: #000080; stroke-width: 1.5"/>
     <use xlink:href="#m076fe78ffb" x="360.8064" y="218.383448" style="fill-opacity: 0; stroke: #000080; stroke-width: 1.5"/>
    </g>
   </g>
   <g id="line2d_37">
    <path style="fill: none; stroke: #000080; stroke-width: 1.5; stroke-linecap: square"/>
    <g/>
   </g>
   <g id="line2d_38">
    <path d="M 230.859295 218.383448 
" clip-path="url(#p37f853b428)" style="fill: none; stroke: #000080; stroke-width: 1.5; stroke-linecap: square"/>
    <defs>
     <path id="m44a5f5d2f1" d="M -12 12 
L 12 -12 
M -12 -12 
L 12 12 
" style="stroke: #000080"/>
    </defs>
    <g clip-path="url(#p37f853b428)">
     <use xlink:href="#m44a5f5d2f1" x="230.859295" y="218.383448" style="fill: #000080; stroke: #000080"/>
    </g>
   </g>
   <g id="line2d_39">
    <defs>
     <path id="ma3c29c3e2d" d="M 0 1.5 
C 0.397805 1.5 0.77937 1.341951 1.06066 1.06066 
C 1.341951 0.77937 1.5 0.397805 1.5 0 
C 1.5 -0.397805 1.341951 -0.77937 1.06066 -1.06066 
C 0.77937 -1.341951 0.397805 -1.5 0 -1.5 
C -0.397805 -1.5 -0.77937 -1.341951 -1.06066 -1.06066 
C -1.341951 -0.77937 -1.5 -0.397805 -1.5 0 
C -1.5 0.397805 -1.341951 0.77937 -1.06066 1.06066 
C -0.77937 1.341951 -0.397805 1.5 0 1.5 
z
" style="stroke: #ff00ff"/>
    </defs>
    <g>
     <use xlink:href="#ma3c29c3e2d" x="206.295586" y="219.138703" style="fill: #ff00ff; stroke: #ff00ff"/>
     <use xlink:href="#ma3c29c3e2d" x="206.295586" y="219.138703" style="fill: #ff00ff; stroke: #ff00ff"/>
    </g>
   </g>
   <g id="line2d_40">
    <path d="M 27.323974 298.944 
L 27.323974 292.901959 
L 40.363149 292.901959 
L 40.363149 291.894952 
L 72.432107 291.894952 
L 72.432107 290.762069 
L 83.678349 290.762069 
L 83.678349 290.13269 
L 90.668036 290.13269 
L 90.668036 289.755062 
L 95.752617 289.755062 
L 95.752617 289.50331 
L 99.751228 289.50331 
L 99.751228 289.125683 
L 103.047088 289.125683 
L 103.047088 287.9928 
L 105.850679 287.9928 
L 105.850679 287.237545 
L 108.29012 287.237545 
L 108.29012 285.85291 
L 110.449226 285.85291 
L 110.449226 285.727034 
L 114.141556 285.727034 
L 114.141556 285.349407 
L 115.747307 285.349407 
L 115.747307 284.594152 
L 117.226706 284.594152 
L 117.226706 283.964772 
L 118.598196 283.964772 
L 118.598196 283.461269 
L 119.876453 283.461269 
L 119.876453 282.957766 
L 121.073351 282.957766 
L 121.073351 282.20251 
L 122.19863 282.20251 
L 122.19863 281.699007 
L 123.260379 281.699007 
L 123.260379 281.447255 
L 124.265389 281.447255 
L 124.265389 281.321379 
L 125.219419 281.321379 
L 125.219419 281.195503 
L 126.127391 281.195503 
L 126.127391 280.314372 
L 126.993549 280.314372 
L 126.993549 279.810869 
L 127.821575 279.810869 
L 127.821575 278.929738 
L 128.614685 278.929738 
L 128.614685 278.300359 
L 129.375706 278.300359 
L 129.375706 278.048607 
L 130.107132 278.048607 
L 130.107132 277.796855 
L 130.811181 277.796855 
L 130.811181 277.419228 
L 132.144842 277.419228 
L 132.144842 277.293352 
L 132.777813 277.293352 
L 132.777813 276.915724 
L 133.390178 276.915724 
L 133.390178 276.412221 
L 133.983236 276.412221 
L 133.983236 275.405214 
L 134.558167 275.405214 
L 134.558167 275.279338 
L 135.116046 275.279338 
L 135.116046 274.775834 
L 135.657857 274.775834 
L 135.657857 274.398207 
L 136.184497 274.398207 
L 136.184497 273.517076 
L 136.696795 273.517076 
L 136.696795 273.265324 
L 137.195511 273.265324 
L 137.195511 273.139448 
L 137.681345 273.139448 
L 137.681345 272.761821 
L 138.154948 272.761821 
L 138.154948 272.635945 
L 138.616919 272.635945 
L 138.616919 272.384193 
L 139.067817 272.384193 
L 139.067817 272.132441 
L 139.508159 272.132441 
L 139.508159 271.377186 
L 139.93843 271.377186 
L 139.93843 270.747807 
L 140.359078 270.747807 
L 140.359078 270.244303 
L 140.770526 270.244303 
L 140.770526 269.992552 
L 141.56737 269.992552 
L 141.56737 268.985545 
L 142.331827 268.985545 
L 142.331827 268.607917 
L 143.066428 268.607917 
L 143.066428 268.104414 
L 143.423243 268.104414 
L 143.423243 267.60091 
L 143.773417 267.60091 
L 143.773417 267.475034 
L 144.454795 267.475034 
L 144.454795 267.349159 
L 144.786447 267.349159 
L 144.786447 267.223283 
L 145.112353 267.223283 
L 145.112353 267.097407 
L 145.7477 267.097407 
L 145.7477 266.845655 
L 146.362288 266.845655 
L 146.362288 266.719779 
L 146.662213 266.719779 
L 146.662213 266.468028 
L 146.957431 266.468028 
L 146.957431 266.216276 
L 147.248088 266.216276 
L 147.248088 266.0904 
L 147.534321 266.0904 
L 147.534321 265.964524 
L 147.816265 265.964524 
L 147.816265 265.712772 
L 148.367783 265.712772 
L 148.367783 265.586897 
L 148.637595 265.586897 
L 148.637595 265.461021 
L 149.42456 265.461021 
L 149.42456 265.209269 
L 149.679732 265.209269 
L 149.679732 265.083393 
L 149.931489 265.083393 
L 149.931489 264.705766 
L 150.667154 264.705766 
L 150.667154 264.57989 
L 150.906118 264.57989 
L 150.906118 264.076386 
L 151.142085 264.076386 
L 151.142085 263.824634 
L 151.60532 263.824634 
L 151.60532 263.572883 
L 151.832729 263.572883 
L 151.832729 263.195255 
L 152.279463 263.195255 
L 152.279463 263.069379 
L 152.715833 263.069379 
L 152.715833 262.817628 
L 152.930279 262.817628 
L 152.930279 262.565876 
L 153.351976 262.565876 
L 153.351976 261.936497 
L 153.559331 261.936497 
L 153.559331 261.684745 
L 154.168026 261.684745 
L 154.168026 261.558869 
L 154.757642 261.558869 
L 154.757642 261.181241 
L 154.950144 261.181241 
L 154.950144 260.92949 
L 155.329337 260.92949 
L 155.329337 260.803614 
L 155.516105 260.803614 
L 155.516105 260.048359 
L 155.884169 260.048359 
L 155.884169 259.670731 
L 156.065535 259.670731 
L 156.065535 259.293103 
L 156.423104 259.293103 
L 156.423104 259.167228 
L 156.774003 259.167228 
L 156.774003 259.041352 
L 156.947029 259.041352 
L 156.947029 258.7896 
L 157.118477 258.7896 
L 157.118477 258.160221 
L 157.288377 258.160221 
L 157.288377 257.908469 
L 157.456756 257.908469 
L 157.456756 257.782593 
L 157.623641 257.782593 
L 157.623641 257.27909 
L 158.436556 257.27909 
L 158.436556 256.775586 
L 158.907961 256.775586 
L 158.907961 256.523834 
L 159.518669 256.523834 
L 159.518669 256.272083 
L 160.110173 256.272083 
L 160.110173 256.146207 
L 160.255188 256.146207 
L 160.255188 255.894455 
L 160.541906 255.894455 
L 160.541906 255.768579 
L 160.82432 255.768579 
L 160.82432 255.642703 
L 161.78066 255.642703 
L 161.78066 255.516828 
L 162.045202 255.516828 
L 162.045202 255.390952 
L 162.435167 255.390952 
L 162.435167 255.265076 
L 162.690724 255.265076 
L 162.690724 254.887448 
L 163.314829 254.887448 
L 163.314829 254.383945 
L 163.437203 254.383945 
L 163.437203 254.132193 
L 163.558786 254.132193 
L 163.558786 253.62869 
L 163.679588 253.62869 
L 163.679588 253.502814 
L 163.79962 253.502814 
L 163.79962 253.376938 
L 163.91889 253.376938 
L 163.91889 253.251062 
L 164.037409 253.251062 
L 164.037409 252.873434 
L 164.272231 252.873434 
L 164.272231 252.369931 
L 164.388551 252.369931 
L 164.388551 252.244055 
L 164.619057 252.244055 
L 164.619057 251.992303 
L 164.846771 251.992303 
L 164.846771 251.866428 
L 165.071763 251.866428 
L 165.071763 251.740552 
L 165.183257 251.740552 
L 165.183257 251.614676 
L 165.404283 251.614676 
L 165.51383 251.111172 
L 166.052194 251.111172 
L 166.052194 250.859421 
L 166.263299 250.859421 
L 166.263299 250.481793 
L 166.882759 250.481793 
L 166.984048 250.104166 
L 167.185004 250.104166 
L 167.185004 249.726538 
L 167.678199 249.726538 
L 167.678199 249.600662 
L 167.871912 249.600662 
L 167.968026 249.34891 
L 168.063651 249.34891 
L 168.063651 249.223034 
L 168.253455 249.223034 
L 168.347644 248.971283 
L 168.441364 248.971283 
L 168.441364 248.845407 
L 168.811641 248.845407 
L 168.811641 248.467779 
L 169.264469 248.467779 
L 169.353741 248.090152 
L 169.442591 248.090152 
L 169.442591 247.964276 
L 169.706651 247.964276 
L 169.793854 247.586648 
L 169.880655 247.586648 
L 169.967056 246.957269 
L 170.053063 246.957269 
L 170.053063 246.705517 
L 170.223906 246.705517 
L 170.223906 246.453766 
L 170.477296 246.453766 
L 170.561006 246.202014 
L 170.809925 246.202014 
L 170.809925 245.950262 
L 170.97406 245.950262 
L 170.97406 245.824386 
L 171.217608 245.824386 
L 171.217608 245.572634 
L 171.458043 245.572634 
L 171.458043 245.446759 
L 171.695443 245.446759 
L 171.695443 245.320883 
L 172.314244 245.320883 
L 172.314244 245.195007 
L 172.541145 245.195007 
L 172.616174 244.817379 
L 172.690906 244.817379 
L 172.690906 244.565628 
L 172.839484 244.565628 
L 172.839484 244.439752 
L 173.060174 244.439752 
L 173.060174 244.313876 
L 173.565266 244.313876 
L 173.565266 244.062124 
L 173.77765 244.062124 
L 173.77765 243.810372 
L 173.917919 243.810372 
L 173.917919 243.684497 
L 174.05715 243.684497 
L 174.05715 243.558621 
L 174.805028 243.558621 
L 174.871565 243.180993 
L 174.937868 243.180993 
L 174.937868 242.929241 
L 175.135386 242.929241 
L 175.135386 242.803366 
L 175.460042 242.803366 
L 175.460042 242.04811 
L 175.715792 242.04811 
L 175.715792 241.922234 
L 175.905348 241.922234 
L 175.968112 241.544607 
L 176.278825 241.544607 
L 176.278825 241.418731 
L 176.645031 241.418731 
L 176.705378 241.166979 
L 177.239965 241.166979 
L 177.239965 241.041103 
L 177.702725 241.041103 
L 177.702725 240.915228 
L 178.265613 240.915228 
L 178.376197 240.663476 
L 178.431246 240.663476 
L 178.540864 240.411724 
L 178.812146 240.411724 
L 178.919572 240.159972 
L 178.973057 240.159972 
L 178.973057 239.908221 
L 179.23822 239.908221 
L 179.290807 239.530593 
L 179.447692 239.530593 
L 179.55156 239.152966 
L 179.654857 239.152966 
L 179.654857 239.02709 
L 179.910646 239.02709 
L 180.011995 238.39771 
L 180.163003 238.39771 
L 180.163003 238.271834 
L 180.312808 238.271834 
L 180.362479 237.894207 
L 180.46143 237.894207 
L 180.510711 237.642455 
L 180.608887 237.642455 
L 180.608887 237.516579 
L 180.803715 237.516579 
L 180.852108 237.138952 
L 181.329315 237.138952 
L 181.329315 236.8872 
L 181.977698 236.8872 
L 182.068527 236.383697 
L 182.293698 236.383697 
L 182.383017 235.880193 
L 182.560393 235.880193 
L 182.560393 235.754317 
L 182.779786 235.754317 
L 182.779786 235.502566 
L 182.910204 235.502566 
L 182.910204 235.250814 
L 183.125579 235.250814 
L 183.168359 234.621434 
L 183.46513 234.621434 
L 183.549068 234.117931 
L 183.590898 234.117931 
L 183.674278 233.866179 
L 183.757291 233.866179 
L 183.757291 233.740303 
L 183.963234 233.740303 
L 183.963234 233.614428 
L 184.488367 233.614428 
L 184.488367 233.110924 
L 184.921539 233.110924 
L 184.999237 232.607421 
L 185.268681 232.607421 
L 185.30686 232.229793 
L 185.684446 232.229793 
L 185.759062 231.72629 
L 185.79626 231.72629 
L 185.870435 231.222786 
L 186.236984 231.222786 
L 186.309445 230.719283 
L 186.381628 230.719283 
L 186.489385 230.215779 
L 186.738443 230.215779 
L 186.738443 230.089903 
L 187.053891 230.089903 
L 187.157876 229.460524 
L 187.226881 229.460524 
L 187.226881 229.208772 
L 187.364137 229.208772 
L 187.364137 229.082897 
L 187.702957 229.082897 
L 187.702957 228.831145 
L 187.903358 228.831145 
L 187.969687 228.453517 
L 188.459835 228.453517 
L 188.459835 228.327641 
L 188.588413 228.327641 
L 188.652374 227.950014 
L 188.811331 227.950014 
L 188.811331 227.698262 
L 189.187435 227.698262 
L 189.187435 227.320634 
L 189.31115 227.320634 
L 189.31115 227.068883 
L 189.556167 227.068883 
L 189.556167 226.817131 
L 189.677488 226.817131 
L 189.677488 226.565379 
L 189.858017 226.565379 
L 189.858017 226.313628 
L 190.243317 226.313628 
L 190.243317 226.061876 
L 190.534423 226.061876 
L 190.534423 225.936 
L 190.678304 225.936 
L 190.678304 225.558372 
L 190.792622 225.558372 
L 190.792622 225.306621 
L 190.991021 225.306621 
L 191.075413 224.928993 
L 191.381651 224.928993 
L 191.464312 224.677241 
L 191.546612 224.677241 
L 191.546612 224.551366 
L 191.791373 224.551366 
L 191.791373 224.299614 
L 192.006296 224.299614 
L 192.006296 224.173738 
L 192.271542 224.173738 
L 192.324146 223.921986 
L 192.73976 223.921986 
L 192.842244 223.544359 
L 192.96957 223.544359 
L 193.070813 223.040855 
L 193.14639 223.040855 
L 193.14639 222.914979 
L 193.396141 222.914979 
L 193.495121 222.537352 
L 193.764659 222.537352 
L 193.764659 222.411476 
L 194.410328 222.411476 
L 194.410328 221.907972 
L 194.527502 221.907972 
L 194.527502 221.656221 
L 194.713475 221.656221 
L 194.713475 221.404469 
L 195.372622 221.404469 
L 195.41724 220.649214 
L 195.550464 220.649214 
L 195.550464 220.397462 
L 198.150079 220.397462 
L 198.150079 220.14571 
L 198.322712 220.14571 
L 198.379906 219.893959 
L 198.625757 219.893959 
L 198.625757 219.642207 
L 202.207636 219.642207 
L 202.207636 219.516331 
L 202.8038 219.516331 
L 202.8038 219.264579 
L 206.295586 219.264579 
L 206.295586 219.138703 
L 360.8064 219.138703 
L 360.8064 219.138703 
" style="fill: none; stroke: #ff00ff; stroke-width: 1.5; stroke-linecap: square"/>
   </g>
   <g id="line2d_41">
    <defs>
     <path id="ma77deb6a89" d="M -0 8.485281 
L 5.091169 0 
L 0 -8.485281 
L -5.091169 -0 
z
" style="stroke: #ff00ff; stroke-width: 1.5; stroke-linejoin: miter"/>
    </defs>
    <g>
     <use xlink:href="#ma77deb6a89" x="90.668036" y="290.13269" style="fill-opacity: 0; stroke: #ff00ff; stroke-width: 1.5; stroke-linejoin: miter"/>
     <use xlink:href="#ma77deb6a89" x="169.264469" y="248.216028" style="fill-opacity: 0; stroke: #ff00ff; stroke-width: 1.5; stroke-linejoin: miter"/>
     <use xlink:href="#ma77deb6a89" x="206.295586" y="219.264579" style="fill-opacity: 0; stroke: #ff00ff; stroke-width: 1.5; stroke-linejoin: miter"/>
     <use xlink:href="#ma77deb6a89" x="206.295586" y="219.138703" style="fill-opacity: 0; stroke: #ff00ff; stroke-width: 1.5; stroke-linejoin: miter"/>
     <use xlink:href="#ma77deb6a89" x="206.295586" y="219.138703" style="fill-opacity: 0; stroke: #ff00ff; stroke-width: 1.5; stroke-linejoin: miter"/>
     <use xlink:href="#ma77deb6a89" x="360.8064" y="219.138703" style="fill-opacity: 0; stroke: #ff00ff; stroke-width: 1.5; stroke-linejoin: miter"/>
    </g>
   </g>
   <g id="line2d_42">
    <path style="fill: none; stroke: #ff00ff; stroke-width: 1.5; stroke-linecap: square"/>
    <g/>
   </g>
   <g id="line2d_43">
    <path d="M 230.859295 219.138703 
" clip-path="url(#p37f853b428)" style="fill: none; stroke: #ff00ff; stroke-width: 1.5; stroke-linecap: square"/>
    <defs>
     <path id="m95fcfc162a" d="M -12 12 
L 12 -12 
M -12 -12 
L 12 12 
" style="stroke: #ff00ff"/>
    </defs>
    <g clip-path="url(#p37f853b428)">
     <use xlink:href="#m95fcfc162a" x="230.859295" y="219.138703" style="fill: #ff00ff; stroke: #ff00ff"/>
    </g>
   </g>
   <g id="line2d_44">
    <path d="M 360.8064 219.138703 
L 380.514816 293.10336 
" style="fill: none; stroke: #ff00ff; stroke-width: 1.5; stroke-linecap: square"/>
    <g>
     <use xlink:href="#ma77deb6a89" x="360.8064" y="219.138703" style="fill-opacity: 0; stroke: #ff00ff; stroke-width: 1.5; stroke-linejoin: miter"/>
     <use xlink:href="#ma77deb6a89" x="380.514816" y="293.10336" style="fill-opacity: 0; stroke: #ff00ff; stroke-width: 1.5; stroke-linejoin: miter"/>
    </g>
   </g>
   <g id="line2d_45">
    <path d="M 360.8064 218.383448 
L 380.514816 152.928 
" style="fill: none; stroke: #000080; stroke-width: 1.5; stroke-linecap: square"/>
    <g>
     <use xlink:href="#m076fe78ffb" x="360.8064" y="218.383448" style="fill-opacity: 0; stroke: #000080; stroke-width: 1.5"/>
     <use xlink:href="#m076fe78ffb" x="380.514816" y="152.928" style="fill-opacity: 0; stroke: #000080; stroke-width: 1.5"/>
    </g>
   </g>
   <g id="line2d_46">
    <path d="M 360.8064 298.944 
L 360.8064 6.912 
" style="fill: none; stroke: #000000; stroke-width: 1.5; stroke-linecap: square"/>
   </g>
   <g id="patch_3">
    <path d="M 57.6 298.944 
L 360.8064 298.944 
" style="fill: none; stroke: #000000; stroke-width: 0.8; stroke-linejoin: miter; stroke-linecap: square"/>
   </g>
   <g id="patch_4">
    <path d="M 57.6 6.912 
L 360.8064 6.912 
" style="fill: none; stroke: #000000; stroke-width: 0.8; stroke-linejoin: miter; stroke-linecap: square"/>
   </g>
   <g id="text_13">
    <!-- kerComo -->
    <g transform="translate(386.578944 296.966485) scale(0.14 -0.14)">
     <defs>
      <path id="DejaVuSans-6b" d="M 581 4863 
L 1159 4863 
L 1159 1991 
L 2875 3500 
L 3609 3500 
L 1753 1863 
L 3688 0 
L 2938 0 
L 1159 1709 
L 1159 0 
L 581 0 
L 581 4863 
z
" transform="scale(0.015625)"/>
      <path id="DejaVuSans-43" d="M 4122 4306 
L 4122 3641 
Q 3803 3938 3442 4084 
Q 3081 4231 2675 4231 
Q 1875 4231 1450 3742 
Q 1025 3253 1025 2328 
Q 1025 1406 1450 917 
Q 1875 428 2675 428 
Q 3081 428 3442 575 
Q 3803 722 4122 1019 
L 4122 359 
Q 3791 134 3420 21 
Q 3050 -91 2638 -91 
Q 1578 -91 968 557 
Q 359 1206 359 2328 
Q 359 3453 968 4101 
Q 1578 4750 2638 4750 
Q 3056 4750 3426 4639 
Q 3797 4528 4122 4306 
z
" transform="scale(0.015625)"/>
     </defs>
     <use xlink:href="#DejaVuSans-6b"/>
     <use xlink:href="#DejaVuSans-65" x="54.285156"/>
     <use xlink:href="#DejaVuSans-72" x="115.808594"/>
     <use xlink:href="#DejaVuSans-43" x="156.921875"/>
     <use xlink:href="#DejaVuSans-6f" x="226.746094"/>
     <use xlink:href="#DejaVuSans-6d" x="287.927734"/>
     <use xlink:href="#DejaVuSans-6f" x="385.339844"/>
    </g>
   </g>
   <g id="text_14">
    <!-- kerLQ -->
    <g transform="translate(386.578944 156.791125) scale(0.14 -0.14)">
     <defs>
      <path id="DejaVuSans-4c" d="M 628 4666 
L 1259 4666 
L 1259 531 
L 3531 531 
L 3531 0 
L 628 0 
L 628 4666 
z
" transform="scale(0.015625)"/>
      <path id="DejaVuSans-51" d="M 2522 4238 
Q 1834 4238 1429 3725 
Q 1025 3213 1025 2328 
Q 1025 1447 1429 934 
Q 1834 422 2522 422 
Q 3209 422 3611 934 
Q 4013 1447 4013 2328 
Q 4013 3213 3611 3725 
Q 3209 4238 2522 4238 
z
M 3406 84 
L 4238 -825 
L 3475 -825 
L 2784 -78 
Q 2681 -84 2626 -87 
Q 2572 -91 2522 -91 
Q 1538 -91 948 567 
Q 359 1225 359 2328 
Q 359 3434 948 4092 
Q 1538 4750 2522 4750 
Q 3503 4750 4090 4092 
Q 4678 3434 4678 2328 
Q 4678 1516 4351 937 
Q 4025 359 3406 84 
z
" transform="scale(0.015625)"/>
     </defs>
     <use xlink:href="#DejaVuSans-6b"/>
     <use xlink:href="#DejaVuSans-65" x="54.285156"/>
     <use xlink:href="#DejaVuSans-72" x="115.808594"/>
     <use xlink:href="#DejaVuSans-4c" x="156.921875"/>
     <use xlink:href="#DejaVuSans-51" x="212.634766"/>
    </g>
   </g>
   <g id="text_15">
    <!-- best 2016 -->
    <g transform="translate(386.578944 16.615765) scale(0.14 -0.14)">
     <defs>
      <path id="DejaVuSans-62" d="M 3116 1747 
Q 3116 2381 2855 2742 
Q 2594 3103 2138 3103 
Q 1681 3103 1420 2742 
Q 1159 2381 1159 1747 
Q 1159 1113 1420 752 
Q 1681 391 2138 391 
Q 2594 391 2855 752 
Q 3116 1113 3116 1747 
z
M 1159 2969 
Q 1341 3281 1617 3432 
Q 1894 3584 2278 3584 
Q 2916 3584 3314 3078 
Q 3713 2572 3713 1747 
Q 3713 922 3314 415 
Q 2916 -91 2278 -91 
Q 1894 -91 1617 61 
Q 1341 213 1159 525 
L 1159 0 
L 581 0 
L 581 4863 
L 1159 4863 
L 1159 2969 
z
" transform="scale(0.015625)"/>
     </defs>
     <use xlink:href="#DejaVuSans-62"/>
     <use xlink:href="#DejaVuSans-65" x="63.476562"/>
     <use xlink:href="#DejaVuSans-73" x="125"/>
     <use xlink:href="#DejaVuSans-74" x="177.099609"/>
     <use xlink:href="#DejaVuSans-20" x="216.308594"/>
     <use xlink:href="#DejaVuSans-32" x="248.095703"/>
     <use xlink:href="#DejaVuSans-30" x="311.71875"/>
     <use xlink:href="#DejaVuSans-31" x="375.341797"/>
     <use xlink:href="#DejaVuSans-36" x="438.964844"/>
    </g>
   </g>
   <g id="text_16">
    <!-- bbob-biobj f48, f49, f51, f52, 5-D -->
    <g transform="translate(60.632064 17.582726) scale(0.102 -0.102)">
     <defs>
      <path id="DejaVuSans-6a" d="M 603 3500 
L 1178 3500 
L 1178 -63 
Q 1178 -731 923 -1031 
Q 669 -1331 103 -1331 
L -116 -1331 
L -116 -844 
L 38 -844 
Q 366 -844 484 -692 
Q 603 -541 603 -63 
L 603 3500 
z
M 603 4863 
L 1178 4863 
L 1178 4134 
L 603 4134 
L 603 4863 
z
" transform="scale(0.015625)"/>
      <path id="DejaVuSans-39" d="M 703 97 
L 703 672 
Q 941 559 1184 500 
Q 1428 441 1663 441 
Q 2288 441 2617 861 
Q 2947 1281 2994 2138 
Q 2813 1869 2534 1725 
Q 2256 1581 1919 1581 
Q 1219 1581 811 2004 
Q 403 2428 403 3163 
Q 403 3881 828 4315 
Q 1253 4750 1959 4750 
Q 2769 4750 3195 4129 
Q 3622 3509 3622 2328 
Q 3622 1225 3098 567 
Q 2575 -91 1691 -91 
Q 1453 -91 1209 -44 
Q 966 3 703 97 
z
M 1959 2075 
Q 2384 2075 2632 2365 
Q 2881 2656 2881 3163 
Q 2881 3666 2632 3958 
Q 2384 4250 1959 4250 
Q 1534 4250 1286 3958 
Q 1038 3666 1038 3163 
Q 1038 2656 1286 2365 
Q 1534 2075 1959 2075 
z
" transform="scale(0.015625)"/>
      <path id="DejaVuSans-35" d="M 691 4666 
L 3169 4666 
L 3169 4134 
L 1269 4134 
L 1269 2991 
Q 1406 3038 1543 3061 
Q 1681 3084 1819 3084 
Q 2600 3084 3056 2656 
Q 3513 2228 3513 1497 
Q 3513 744 3044 326 
Q 2575 -91 1722 -91 
Q 1428 -91 1123 -41 
Q 819 9 494 109 
L 494 744 
Q 775 591 1075 516 
Q 1375 441 1709 441 
Q 2250 441 2565 725 
Q 2881 1009 2881 1497 
Q 2881 1984 2565 2268 
Q 2250 2553 1709 2553 
Q 1456 2553 1204 2497 
Q 953 2441 691 2322 
L 691 4666 
z
" transform="scale(0.015625)"/>
      <path id="DejaVuSans-44" d="M 1259 4147 
L 1259 519 
L 2022 519 
Q 2988 519 3436 956 
Q 3884 1394 3884 2338 
Q 3884 3275 3436 3711 
Q 2988 4147 2022 4147 
L 1259 4147 
z
M 628 4666 
L 1925 4666 
Q 3281 4666 3915 4102 
Q 4550 3538 4550 2338 
Q 4550 1131 3912 565 
Q 3275 0 1925 0 
L 628 0 
L 628 4666 
z
" transform="scale(0.015625)"/>
     </defs>
     <use xlink:href="#DejaVuSans-62"/>
     <use xlink:href="#DejaVuSans-62" x="63.476562"/>
     <use xlink:href="#DejaVuSans-6f" x="126.953125"/>
     <use xlink:href="#DejaVuSans-62" x="188.134766"/>
     <use xlink:href="#DejaVuSans-2d" x="251.611328"/>
     <use xlink:href="#DejaVuSans-62" x="287.695312"/>
     <use xlink:href="#DejaVuSans-69" x="351.171875"/>
     <use xlink:href="#DejaVuSans-6f" x="378.955078"/>
     <use xlink:href="#DejaVuSans-62" x="440.136719"/>
     <use xlink:href="#DejaVuSans-6a" x="503.613281"/>
     <use xlink:href="#DejaVuSans-20" x="531.396484"/>
     <use xlink:href="#DejaVuSans-66" x="563.183594"/>
     <use xlink:href="#DejaVuSans-34" x="598.388672"/>
     <use xlink:href="#DejaVuSans-38" x="662.011719"/>
     <use xlink:href="#DejaVuSans-2c" x="725.634766"/>
     <use xlink:href="#DejaVuSans-20" x="757.421875"/>
     <use xlink:href="#DejaVuSans-66" x="789.208984"/>
     <use xlink:href="#DejaVuSans-34" x="824.414062"/>
     <use xlink:href="#DejaVuSans-39" x="888.037109"/>
     <use xlink:href="#DejaVuSans-2c" x="951.660156"/>
     <use xlink:href="#DejaVuSans-20" x="983.447266"/>
     <use xlink:href="#DejaVuSans-66" x="1015.234375"/>
     <use xlink:href="#DejaVuSans-35" x="1050.439453"/>
     <use xlink:href="#DejaVuSans-31" x="1114.0625"/>
     <use xlink:href="#DejaVuSans-2c" x="1177.685547"/>
     <use xlink:href="#DejaVuSans-20" x="1209.472656"/>
     <use xlink:href="#DejaVuSans-66" x="1241.259766"/>
     <use xlink:href="#DejaVuSans-35" x="1276.464844"/>
     <use xlink:href="#DejaVuSans-32" x="1340.087891"/>
     <use xlink:href="#DejaVuSans-2c" x="1403.710938"/>
     <use xlink:href="#DejaVuSans-20" x="1435.498047"/>
     <use xlink:href="#DejaVuSans-35" x="1467.285156"/>
     <use xlink:href="#DejaVuSans-2d" x="1530.908203"/>
     <use xlink:href="#DejaVuSans-44" x="1566.992188"/>
    </g>
    <!-- 58 targets: 1..-1.0e-4 -->
    <g transform="translate(60.632064 29.004495) scale(0.102 -0.102)">
     <defs>
      <path id="DejaVuSans-3a" d="M 750 794 
L 1409 794 
L 1409 0 
L 750 0 
L 750 794 
z
M 750 3309 
L 1409 3309 
L 1409 2516 
L 750 2516 
L 750 3309 
z
" transform="scale(0.015625)"/>
     </defs>
     <use xlink:href="#DejaVuSans-35"/>
     <use xlink:href="#DejaVuSans-38" x="63.623047"/>
     <use xlink:href="#DejaVuSans-20" x="127.246094"/>
     <use xlink:href="#DejaVuSans-74" x="159.033203"/>
     <use xlink:href="#DejaVuSans-61" x="198.242188"/>
     <use xlink:href="#DejaVuSans-72" x="259.521484"/>
     <use xlink:href="#DejaVuSans-67" x="298.884766"/>
     <use xlink:href="#DejaVuSans-65" x="362.361328"/>
     <use xlink:href="#DejaVuSans-74" x="423.884766"/>
     <use xlink:href="#DejaVuSans-73" x="463.09375"/>
     <use xlink:href="#DejaVuSans-3a" x="515.193359"/>
     <use xlink:href="#DejaVuSans-20" x="548.884766"/>
     <use xlink:href="#DejaVuSans-31" x="580.671875"/>
     <use xlink:href="#DejaVuSans-2e" x="644.294922"/>
     <use xlink:href="#DejaVuSans-2e" x="676.082031"/>
     <use xlink:href="#DejaVuSans-2d" x="707.869141"/>
     <use xlink:href="#DejaVuSans-31" x="743.953125"/>
     <use xlink:href="#DejaVuSans-2e" x="807.576172"/>
     <use xlink:href="#DejaVuSans-30" x="839.363281"/>
     <use xlink:href="#DejaVuSans-65" x="902.986328"/>
     <use xlink:href="#DejaVuSans-2d" x="964.509766"/>
     <use xlink:href="#DejaVuSans-34" x="1000.59375"/>
    </g>
    <!-- 10 instances -->
    <g transform="translate(60.632064 40.426264) scale(0.102 -0.102)">
     <use xlink:href="#DejaVuSans-31"/>
     <use xlink:href="#DejaVuSans-30" x="63.623047"/>
     <use xlink:href="#DejaVuSans-20" x="127.246094"/>
     <use xlink:href="#DejaVuSans-69" x="159.033203"/>
     <use xlink:href="#DejaVuSans-6e" x="186.816406"/>
     <use xlink:href="#DejaVuSans-73" x="250.195312"/>
     <use xlink:href="#DejaVuSans-74" x="302.294922"/>
     <use xlink:href="#DejaVuSans-61" x="341.503906"/>
     <use xlink:href="#DejaVuSans-6e" x="402.783203"/>
     <use xlink:href="#DejaVuSans-63" x="466.162109"/>
     <use xlink:href="#DejaVuSans-65" x="521.142578"/>
     <use xlink:href="#DejaVuSans-73" x="582.666016"/>
    </g>
   </g>
   <g id="text_17">
    <!-- v2.6, hv-hash=ff0e71e8cd978373 -->
    <g style="fill: #808080" transform="translate(123.707887 293.943992) scale(0.1 -0.1)">
     <defs>
      <path id="DejaVuSans-68" d="M 3513 2113 
L 3513 0 
L 2938 0 
L 2938 2094 
Q 2938 2591 2744 2837 
Q 2550 3084 2163 3084 
Q 1697 3084 1428 2787 
Q 1159 2491 1159 1978 
L 1159 0 
L 581 0 
L 581 4863 
L 1159 4863 
L 1159 2956 
Q 1366 3272 1645 3428 
Q 1925 3584 2291 3584 
Q 2894 3584 3203 3211 
Q 3513 2838 3513 2113 
z
" transform="scale(0.015625)"/>
      <path id="DejaVuSans-3d" d="M 678 2906 
L 4684 2906 
L 4684 2381 
L 678 2381 
L 678 2906 
z
M 678 1631 
L 4684 1631 
L 4684 1100 
L 678 1100 
L 678 1631 
z
" transform="scale(0.015625)"/>
      <path id="DejaVuSans-37" d="M 525 4666 
L 3525 4666 
L 3525 4397 
L 1831 0 
L 1172 0 
L 2766 4134 
L 525 4134 
L 525 4666 
z
" transform="scale(0.015625)"/>
      <path id="DejaVuSans-33" d="M 2597 2516 
Q 3050 2419 3304 2112 
Q 3559 1806 3559 1356 
Q 3559 666 3084 287 
Q 2609 -91 1734 -91 
Q 1441 -91 1130 -33 
Q 819 25 488 141 
L 488 750 
Q 750 597 1062 519 
Q 1375 441 1716 441 
Q 2309 441 2620 675 
Q 2931 909 2931 1356 
Q 2931 1769 2642 2001 
Q 2353 2234 1838 2234 
L 1294 2234 
L 1294 2753 
L 1863 2753 
Q 2328 2753 2575 2939 
Q 2822 3125 2822 3475 
Q 2822 3834 2567 4026 
Q 2313 4219 1838 4219 
Q 1578 4219 1281 4162 
Q 984 4106 628 3988 
L 628 4550 
Q 988 4650 1302 4700 
Q 1616 4750 1894 4750 
Q 2613 4750 3031 4423 
Q 3450 4097 3450 3541 
Q 3450 3153 3228 2886 
Q 3006 2619 2597 2516 
z
" transform="scale(0.015625)"/>
     </defs>
     <use xlink:href="#DejaVuSans-76"/>
     <use xlink:href="#DejaVuSans-32" x="59.179688"/>
     <use xlink:href="#DejaVuSans-2e" x="122.802734"/>
     <use xlink:href="#DejaVuSans-36" x="154.589844"/>
     <use xlink:href="#DejaVuSans-2c" x="218.212891"/>
     <use xlink:href="#DejaVuSans-20" x="250"/>
     <use xlink:href="#DejaVuSans-68" x="281.787109"/>
     <use xlink:href="#DejaVuSans-76" x="345.166016"/>
     <use xlink:href="#DejaVuSans-2d" x="401.720703"/>
     <use xlink:href="#DejaVuSans-68" x="437.804688"/>
     <use xlink:href="#DejaVuSans-61" x="501.183594"/>
     <use xlink:href="#DejaVuSans-73" x="562.462891"/>
     <use xlink:href="#DejaVuSans-68" x="614.5625"/>
     <use xlink:href="#DejaVuSans-3d" x="677.941406"/>
     <use xlink:href="#DejaVuSans-66" x="761.730469"/>
     <use xlink:href="#DejaVuSans-66" x="796.935547"/>
     <use xlink:href="#DejaVuSans-30" x="832.140625"/>
     <use xlink:href="#DejaVuSans-65" x="895.763672"/>
     <use xlink:href="#DejaVuSans-37" x="957.287109"/>
     <use xlink:href="#DejaVuSans-31" x="1020.910156"/>
     <use xlink:href="#DejaVuSans-65" x="1084.533203"/>
     <use xlink:href="#DejaVuSans-38" x="1146.056641"/>
     <use xlink:href="#DejaVuSans-63" x="1209.679688"/>
     <use xlink:href="#DejaVuSans-64" x="1264.660156"/>
     <use xlink:href="#DejaVuSans-39" x="1328.136719"/>
     <use xlink:href="#DejaVuSans-37" x="1391.759766"/>
     <use xlink:href="#DejaVuSans-38" x="1455.382812"/>
     <use xlink:href="#DejaVuSans-33" x="1519.005859"/>
     <use xlink:href="#DejaVuSans-37" x="1582.628906"/>
     <use xlink:href="#DejaVuSans-33" x="1646.251953"/>
    </g>
   </g>
  </g>
 </g>
 <defs>
  <clipPath id="p37f853b428">
   <rect x="57.6" y="6.912" width="303.2064" height="292.032"/>
  </clipPath>
 </defs>
</svg>
