<?xml version="1.0" encoding="utf-8" standalone="no"?>
<!DOCTYPE svg PUBLIC "-//W3C//DTD SVG 1.1//EN"
  "http://www.w3.org/Graphics/SVG/1.1/DTD/svg11.dtd">
<svg xmlns:xlink="http://www.w3.org/1999/xlink" width="460.8pt" height="345.6pt" viewBox="0 0 460.8 345.6" xmlns="http://www.w3.org/2000/svg" version="1.1">
 <metadata>
  <rdf:RDF xmlns:dc="http://purl.org/dc/elements/1.1/" xmlns:cc="http://creativecommons.org/ns#" xmlns:rdf="http://www.w3.org/1999/02/22-rdf-syntax-ns#">
   <cc:Work>
    <dc:type rdf:resource="http://purl.org/dc/dcmitype/StillImage"/>
    <dc:date>2023-02-13T14:59:56.380148</dc:date>
    <dc:format>image/svg+xml</dc:format>
    <dc:creator>
     <cc:Agent>
      <dc:title>Matplotlib v3.6.3, https://matplotlib.org/</dc:title>
     </cc:Agent>
    </dc:creator>
   </cc:Work>
  </rdf:RDF>
 </metadata>
 <defs>
  <style type="text/css">*{stroke-linejoin: round; stroke-linecap: butt}</style>
 </defs>
 <g id="figure_1">
  <g id="patch_1">
   <path d="M 0 345.6 
L 460.8 345.6 
L 460.8 0 
L 0 0 
z
" style="fill: #ffffff"/>
  </g>
  <g id="axes_1">
   <g id="patch_2">
    <path d="M 57.6 298.944 
L 360.8064 298.944 
L 360.8064 6.912 
L 57.6 6.912 
z
" style="fill: #ffffff"/>
   </g>
   <g id="line2d_1">
    <path d="M 40.363149 298.944 
L 40.363149 297.685241 
L 53.402323 297.685241 
L 53.402323 295.167724 
L 61.029752 295.167724 
L 61.029752 290.13269 
L 68.65718 290.13269 
L 68.65718 288.873931 
L 76.96874 288.873931 
L 76.96874 286.356414 
L 81.696354 286.356414 
L 81.696354 281.321379 
L 84.596168 281.321379 
L 84.596168 280.062621 
L 88.613828 280.062621 
L 88.613828 277.545103 
L 92.519847 277.545103 
L 92.519847 273.768828 
L 99.346662 273.768828 
L 99.346662 271.25131 
L 102.708132 271.25131 
L 102.708132 268.733793 
L 103.047088 268.733793 
L 103.047088 266.216276 
L 105.26277 266.216276 
L 105.26277 264.957517 
L 108.542628 264.957517 
L 108.542628 261.181241 
L 109.280431 261.181241 
L 109.280431 259.922483 
L 109.756698 259.922483 
L 109.756698 258.663724 
L 113.186449 258.663724 
L 113.186449 256.146207 
L 117.384126 256.146207 
L 117.384126 253.62869 
L 121.073351 253.62869 
L 121.073351 249.852414 
L 122.076872 249.852414 
L 122.076872 248.593655 
L 122.439807 248.593655 
L 122.439807 244.817379 
L 128.956723 244.817379 
L 128.956723 242.299862 
L 133.188264 242.299862 
L 133.188264 238.523586 
L 134.368469 238.523586 
L 134.368469 236.006069 
L 134.993495 236.006069 
L 134.993495 234.74731 
L 136.010584 234.74731 
L 136.010584 232.229793 
L 139.604629 232.229793 
L 139.604629 229.712276 
L 142.905644 229.712276 
L 142.905644 225.936 
L 145.004344 225.936 
L 145.004344 223.418483 
L 146.261241 223.418483 
L 146.261241 220.900966 
L 149.165879 220.900966 
L 149.165879 218.383448 
L 153.351976 218.383448 
L 153.351976 215.865931 
L 153.922412 215.865931 
L 153.922412 214.607172 
L 158.577468 214.607172 
L 158.577468 210.830897 
L 162.088932 210.830897 
L 162.088932 208.313379 
L 163.706328 208.313379 
L 163.706328 207.054621 
L 164.758543 207.054621 
L 164.758543 205.795862 
L 165.92201 205.795862 
L 165.92201 204.537103 
L 166.826251 204.537103 
L 166.826251 203.278345 
L 170.176605 203.278345 
L 170.176605 199.502069 
L 171.843395 199.502069 
L 171.843395 195.725793 
L 172.127316 195.725793 
L 172.127316 193.208276 
L 172.288863 193.208276 
L 172.288863 190.690759 
L 176.591226 190.690759 
L 176.591226 188.173241 
L 178.320986 188.173241 
L 178.320986 184.396966 
L 178.889793 184.396966 
L 178.889793 183.138207 
L 180.07926 183.138207 
L 180.07926 179.361931 
L 183.394894 179.361931 
L 183.394894 178.103172 
L 189.076778 178.103172 
L 189.076778 175.585655 
L 191.482632 175.585655 
L 191.482632 173.068138 
L 192.297862 173.068138 
L 192.297862 170.550621 
L 193.637178 170.550621 
L 193.637178 166.774345 
L 198.388365 166.774345 
L 198.388365 162.998069 
L 200.08534 162.998069 
L 200.08534 160.480552 
L 200.279444 160.480552 
L 200.279444 157.963034 
L 201.772961 157.963034 
L 201.772961 155.445517 
L 202.401634 155.445517 
L 202.401634 154.186759 
L 207.144045 154.186759 
L 207.144045 152.928 
L 209.106118 152.928 
L 209.106118 151.669241 
L 215.4391 151.669241 
L 215.4391 147.892966 
L 216.773368 147.892966 
L 216.773368 144.11669 
L 218.367442 144.11669 
L 218.367442 141.599172 
L 220.302305 141.599172 
L 220.302305 137.822897 
L 221.773911 137.822897 
L 221.773911 136.564138 
L 225.094075 136.564138 
L 225.094075 135.305379 
L 226.995024 135.305379 
L 226.995024 132.787862 
L 230.045787 132.787862 
L 230.045787 129.011586 
L 231.132721 129.011586 
L 231.159402 126.494069 
L 231.637271 126.494069 
L 231.637271 122.717793 
L 232.65168 122.717793 
L 232.65168 120.200276 
L 234.4062 120.200276 
L 234.4062 118.941517 
L 235.780355 118.941517 
L 235.780355 115.165241 
L 236.33096 115.165241 
L 236.33096 111.388966 
L 238.534323 111.388966 
L 238.534323 108.871448 
L 239.431828 108.871448 
L 239.431828 106.353931 
L 239.990251 106.353931 
L 239.990251 105.095172 
L 241.594158 105.095172 
L 241.594158 101.318897 
L 244.033438 101.318897 
L 244.033438 97.542621 
L 245.541637 97.542621 
L 245.541637 95.025103 
L 249.560729 95.025103 
L 249.560729 92.507586 
L 252.704401 92.507586 
L 252.704401 91.248828 
L 254.073041 91.248828 
L 254.073041 88.73131 
L 254.857293 88.73131 
L 254.857293 87.472552 
L 256.494304 87.472552 
L 256.494304 83.696276 
L 257.993704 83.696276 
L 258.035544 81.178759 
L 259.547502 81.178759 
L 259.547502 77.402483 
L 262.523031 77.402483 
L 262.523031 74.884966 
L 269.129 74.884966 
L 269.129 72.367448 
L 272.667237 72.367448 
L 272.667237 68.591172 
L 278.050641 68.591172 
L 278.050641 66.073655 
L 278.243715 66.073655 
L 278.243715 63.556138 
L 278.488363 63.556138 
L 278.488363 62.297379 
L 278.91616 62.297379 
L 278.91616 59.779862 
L 279.089964 59.779862 
L 279.089964 56.003586 
L 281.036417 56.003586 
L 281.036417 52.22731 
L 283.967403 52.22731 
L 283.967403 49.709793 
L 287.597428 49.709793 
L 287.597428 48.451034 
L 291.720383 48.451034 
L 291.720383 45.933517 
L 295.953503 45.933517 
L 295.953503 42.157241 
L 360.8064 42.157241 
L 360.8064 42.157241 
" style="fill: none; stroke: #f5deb3; stroke-width: 4; stroke-linecap: square"/>
   </g>
   <g id="line2d_2">
    <defs>
     <path id="mfea819a4f2" d="M -0 7.778175 
L 7.778175 0 
L 0 -7.778175 
L -7.778175 -0 
z
" style="stroke: #f5deb3; stroke-width: 1.5; stroke-linejoin: miter"/>
    </defs>
    <g>
     <use xlink:href="#mfea819a4f2" x="122.439807" y="248.593655" style="fill: #f5deb3; stroke: #f5deb3; stroke-width: 1.5; stroke-linejoin: miter"/>
     <use xlink:href="#mfea819a4f2" x="191.482632" y="175.585655" style="fill: #f5deb3; stroke: #f5deb3; stroke-width: 1.5; stroke-linejoin: miter"/>
     <use xlink:href="#mfea819a4f2" x="249.560729" y="92.507586" style="fill: #f5deb3; stroke: #f5deb3; stroke-width: 1.5; stroke-linejoin: miter"/>
     <use xlink:href="#mfea819a4f2" x="295.953503" y="42.157241" style="fill: #f5deb3; stroke: #f5deb3; stroke-width: 1.5; stroke-linejoin: miter"/>
     <use xlink:href="#mfea819a4f2" x="295.953503" y="42.157241" style="fill: #f5deb3; stroke: #f5deb3; stroke-width: 1.5; stroke-linejoin: miter"/>
     <use xlink:href="#mfea819a4f2" x="360.8064" y="42.157241" style="fill: #f5deb3; stroke: #f5deb3; stroke-width: 1.5; stroke-linejoin: miter"/>
    </g>
   </g>
   <g id="line2d_3">
    <path style="fill: none; stroke: #f5deb3; stroke-width: 4; stroke-linecap: square"/>
    <g/>
   </g>
   <g id="line2d_4">
    <path d="M 360.8064 42.157241 
L 380.514816 12.75264 
" style="fill: none; stroke: #f5deb3; stroke-width: 4; stroke-linecap: square"/>
    <g>
     <use xlink:href="#mfea819a4f2" x="360.8064" y="42.157241" style="fill: #f5deb3; stroke: #f5deb3; stroke-width: 1.5; stroke-linejoin: miter"/>
     <use xlink:href="#mfea819a4f2" x="380.514816" y="12.75264" style="fill: #f5deb3; stroke: #f5deb3; stroke-width: 1.5; stroke-linejoin: miter"/>
    </g>
   </g>
   <g id="matplotlib.axis_1">
    <g id="xtick_1">
     <g id="line2d_5">
      <path d="M 57.6 298.944 
L 57.6 6.912 
" clip-path="url(#p1d81c683be)" style="fill: none; stroke: #b0b0b0; stroke-width: 0.8; stroke-linecap: square"/>
     </g>
     <g id="line2d_6">
      <defs>
       <path id="md617eae3b0" d="M 0 0 
L 0 3.5 
" style="stroke: #000000; stroke-width: 0.8"/>
      </defs>
      <g>
       <use xlink:href="#md617eae3b0" x="57.6" y="298.944" style="stroke: #000000; stroke-width: 0.8"/>
      </g>
     </g>
     <g id="text_1">
      <!-- 0 -->
      <g transform="translate(52.191875 318.861344) scale(0.17 -0.17)">
       <defs>
        <path id="DejaVuSans-30" d="M 2034 4250 
Q 1547 4250 1301 3770 
Q 1056 3291 1056 2328 
Q 1056 1369 1301 889 
Q 1547 409 2034 409 
Q 2525 409 2770 889 
Q 3016 1369 3016 2328 
Q 3016 3291 2770 3770 
Q 2525 4250 2034 4250 
z
M 2034 4750 
Q 2819 4750 3233 4129 
Q 3647 3509 3647 2328 
Q 3647 1150 3233 529 
Q 2819 -91 2034 -91 
Q 1250 -91 836 529 
Q 422 1150 422 2328 
Q 422 3509 836 4129 
Q 1250 4750 2034 4750 
z
" transform="scale(0.015625)"/>
       </defs>
       <use xlink:href="#DejaVuSans-30"/>
      </g>
     </g>
    </g>
    <g id="xtick_2">
     <g id="line2d_7">
      <path d="M 144.2304 298.944 
L 144.2304 6.912 
" clip-path="url(#p1d81c683be)" style="fill: none; stroke: #b0b0b0; stroke-width: 0.8; stroke-linecap: square"/>
     </g>
     <g id="line2d_8">
      <g>
       <use xlink:href="#md617eae3b0" x="144.2304" y="298.944" style="stroke: #000000; stroke-width: 0.8"/>
      </g>
     </g>
     <g id="text_2">
      <!-- 2 -->
      <g transform="translate(138.822275 318.861344) scale(0.17 -0.17)">
       <defs>
        <path id="DejaVuSans-32" d="M 1228 531 
L 3431 531 
L 3431 0 
L 469 0 
L 469 531 
Q 828 903 1448 1529 
Q 2069 2156 2228 2338 
Q 2531 2678 2651 2914 
Q 2772 3150 2772 3378 
Q 2772 3750 2511 3984 
Q 2250 4219 1831 4219 
Q 1534 4219 1204 4116 
Q 875 4013 500 3803 
L 500 4441 
Q 881 4594 1212 4672 
Q 1544 4750 1819 4750 
Q 2544 4750 2975 4387 
Q 3406 4025 3406 3419 
Q 3406 3131 3298 2873 
Q 3191 2616 2906 2266 
Q 2828 2175 2409 1742 
Q 1991 1309 1228 531 
z
" transform="scale(0.015625)"/>
       </defs>
       <use xlink:href="#DejaVuSans-32"/>
      </g>
     </g>
    </g>
    <g id="xtick_3">
     <g id="line2d_9">
      <path d="M 230.8608 298.944 
L 230.8608 6.912 
" clip-path="url(#p1d81c683be)" style="fill: none; stroke: #b0b0b0; stroke-width: 0.8; stroke-linecap: square"/>
     </g>
     <g id="line2d_10">
      <g>
       <use xlink:href="#md617eae3b0" x="230.8608" y="298.944" style="stroke: #000000; stroke-width: 0.8"/>
      </g>
     </g>
     <g id="text_3">
      <!-- 4 -->
      <g transform="translate(225.452675 318.861344) scale(0.17 -0.17)">
       <defs>
        <path id="DejaVuSans-34" d="M 2419 4116 
L 825 1625 
L 2419 1625 
L 2419 4116 
z
M 2253 4666 
L 3047 4666 
L 3047 1625 
L 3713 1625 
L 3713 1100 
L 3047 1100 
L 3047 0 
L 2419 0 
L 2419 1100 
L 313 1100 
L 313 1709 
L 2253 4666 
z
" transform="scale(0.015625)"/>
       </defs>
       <use xlink:href="#DejaVuSans-34"/>
      </g>
     </g>
    </g>
    <g id="xtick_4">
     <g id="line2d_11">
      <path d="M 317.4912 298.944 
L 317.4912 6.912 
" clip-path="url(#p1d81c683be)" style="fill: none; stroke: #b0b0b0; stroke-width: 0.8; stroke-linecap: square"/>
     </g>
     <g id="line2d_12">
      <g>
       <use xlink:href="#md617eae3b0" x="317.4912" y="298.944" style="stroke: #000000; stroke-width: 0.8"/>
      </g>
     </g>
     <g id="text_4">
      <!-- 6 -->
      <g transform="translate(312.083075 318.861344) scale(0.17 -0.17)">
       <defs>
        <path id="DejaVuSans-36" d="M 2113 2584 
Q 1688 2584 1439 2293 
Q 1191 2003 1191 1497 
Q 1191 994 1439 701 
Q 1688 409 2113 409 
Q 2538 409 2786 701 
Q 3034 994 3034 1497 
Q 3034 2003 2786 2293 
Q 2538 2584 2113 2584 
z
M 3366 4563 
L 3366 3988 
Q 3128 4100 2886 4159 
Q 2644 4219 2406 4219 
Q 1781 4219 1451 3797 
Q 1122 3375 1075 2522 
Q 1259 2794 1537 2939 
Q 1816 3084 2150 3084 
Q 2853 3084 3261 2657 
Q 3669 2231 3669 1497 
Q 3669 778 3244 343 
Q 2819 -91 2113 -91 
Q 1303 -91 875 529 
Q 447 1150 447 2328 
Q 447 3434 972 4092 
Q 1497 4750 2381 4750 
Q 2619 4750 2861 4703 
Q 3103 4656 3366 4563 
z
" transform="scale(0.015625)"/>
       </defs>
       <use xlink:href="#DejaVuSans-36"/>
      </g>
     </g>
    </g>
    <g id="xtick_5">
     <g id="line2d_13">
      <path d="M 100.9152 298.944 
L 100.9152 6.912 
" clip-path="url(#p1d81c683be)" style="fill: none; stroke: #b0b0b0; stroke-width: 0.8; stroke-linecap: square"/>
     </g>
     <g id="line2d_14">
      <defs>
       <path id="m5ab04fe6b7" d="M 0 0 
L 0 2 
" style="stroke: #000000; stroke-width: 0.6"/>
      </defs>
      <g>
       <use xlink:href="#m5ab04fe6b7" x="100.9152" y="298.944" style="stroke: #000000; stroke-width: 0.6"/>
      </g>
     </g>
    </g>
    <g id="xtick_6">
     <g id="line2d_15">
      <path d="M 187.5456 298.944 
L 187.5456 6.912 
" clip-path="url(#p1d81c683be)" style="fill: none; stroke: #b0b0b0; stroke-width: 0.8; stroke-linecap: square"/>
     </g>
     <g id="line2d_16">
      <g>
       <use xlink:href="#m5ab04fe6b7" x="187.5456" y="298.944" style="stroke: #000000; stroke-width: 0.6"/>
      </g>
     </g>
    </g>
    <g id="xtick_7">
     <g id="line2d_17">
      <path d="M 274.176 298.944 
L 274.176 6.912 
" clip-path="url(#p1d81c683be)" style="fill: none; stroke: #b0b0b0; stroke-width: 0.8; stroke-linecap: square"/>
     </g>
     <g id="line2d_18">
      <g>
       <use xlink:href="#m5ab04fe6b7" x="274.176" y="298.944" style="stroke: #000000; stroke-width: 0.6"/>
      </g>
     </g>
    </g>
    <g id="xtick_8">
     <g id="line2d_19">
      <path d="M 360.8064 298.944 
L 360.8064 6.912 
" clip-path="url(#p1d81c683be)" style="fill: none; stroke: #b0b0b0; stroke-width: 0.8; stroke-linecap: square"/>
     </g>
     <g id="line2d_20">
      <g>
       <use xlink:href="#m5ab04fe6b7" x="360.8064" y="298.944" style="stroke: #000000; stroke-width: 0.6"/>
      </g>
     </g>
    </g>
    <g id="text_5">
     <!-- log10(# f-evals / dimension) -->
     <g transform="translate(88.823278 339.314156) scale(0.17 -0.17)">
      <defs>
       <path id="DejaVuSans-6c" d="M 603 4863 
L 1178 4863 
L 1178 0 
L 603 0 
L 603 4863 
z
" transform="scale(0.015625)"/>
       <path id="DejaVuSans-6f" d="M 1959 3097 
Q 1497 3097 1228 2736 
Q 959 2375 959 1747 
Q 959 1119 1226 758 
Q 1494 397 1959 397 
Q 2419 397 2687 759 
Q 2956 1122 2956 1747 
Q 2956 2369 2687 2733 
Q 2419 3097 1959 3097 
z
M 1959 3584 
Q 2709 3584 3137 3096 
Q 3566 2609 3566 1747 
Q 3566 888 3137 398 
Q 2709 -91 1959 -91 
Q 1206 -91 779 398 
Q 353 888 353 1747 
Q 353 2609 779 3096 
Q 1206 3584 1959 3584 
z
" transform="scale(0.015625)"/>
       <path id="DejaVuSans-67" d="M 2906 1791 
Q 2906 2416 2648 2759 
Q 2391 3103 1925 3103 
Q 1463 3103 1205 2759 
Q 947 2416 947 1791 
Q 947 1169 1205 825 
Q 1463 481 1925 481 
Q 2391 481 2648 825 
Q 2906 1169 2906 1791 
z
M 3481 434 
Q 3481 -459 3084 -895 
Q 2688 -1331 1869 -1331 
Q 1566 -1331 1297 -1286 
Q 1028 -1241 775 -1147 
L 775 -588 
Q 1028 -725 1275 -790 
Q 1522 -856 1778 -856 
Q 2344 -856 2625 -561 
Q 2906 -266 2906 331 
L 2906 616 
Q 2728 306 2450 153 
Q 2172 0 1784 0 
Q 1141 0 747 490 
Q 353 981 353 1791 
Q 353 2603 747 3093 
Q 1141 3584 1784 3584 
Q 2172 3584 2450 3431 
Q 2728 3278 2906 2969 
L 2906 3500 
L 3481 3500 
L 3481 434 
z
" transform="scale(0.015625)"/>
       <path id="DejaVuSans-31" d="M 794 531 
L 1825 531 
L 1825 4091 
L 703 3866 
L 703 4441 
L 1819 4666 
L 2450 4666 
L 2450 531 
L 3481 531 
L 3481 0 
L 794 0 
L 794 531 
z
" transform="scale(0.015625)"/>
       <path id="DejaVuSans-28" d="M 1984 4856 
Q 1566 4138 1362 3434 
Q 1159 2731 1159 2009 
Q 1159 1288 1364 580 
Q 1569 -128 1984 -844 
L 1484 -844 
Q 1016 -109 783 600 
Q 550 1309 550 2009 
Q 550 2706 781 3412 
Q 1013 4119 1484 4856 
L 1984 4856 
z
" transform="scale(0.015625)"/>
       <path id="DejaVuSans-23" d="M 3272 2816 
L 2363 2816 
L 2100 1772 
L 3016 1772 
L 3272 2816 
z
M 2803 4594 
L 2478 3297 
L 3391 3297 
L 3719 4594 
L 4219 4594 
L 3897 3297 
L 4872 3297 
L 4872 2816 
L 3775 2816 
L 3519 1772 
L 4513 1772 
L 4513 1294 
L 3397 1294 
L 3072 0 
L 2572 0 
L 2894 1294 
L 1978 1294 
L 1656 0 
L 1153 0 
L 1478 1294 
L 494 1294 
L 494 1772 
L 1594 1772 
L 1856 2816 
L 850 2816 
L 850 3297 
L 1978 3297 
L 2297 4594 
L 2803 4594 
z
" transform="scale(0.015625)"/>
       <path id="DejaVuSans-20" transform="scale(0.015625)"/>
       <path id="DejaVuSans-66" d="M 2375 4863 
L 2375 4384 
L 1825 4384 
Q 1516 4384 1395 4259 
Q 1275 4134 1275 3809 
L 1275 3500 
L 2222 3500 
L 2222 3053 
L 1275 3053 
L 1275 0 
L 697 0 
L 697 3053 
L 147 3053 
L 147 3500 
L 697 3500 
L 697 3744 
Q 697 4328 969 4595 
Q 1241 4863 1831 4863 
L 2375 4863 
z
" transform="scale(0.015625)"/>
       <path id="DejaVuSans-2d" d="M 313 2009 
L 1997 2009 
L 1997 1497 
L 313 1497 
L 313 2009 
z
" transform="scale(0.015625)"/>
       <path id="DejaVuSans-65" d="M 3597 1894 
L 3597 1613 
L 953 1613 
Q 991 1019 1311 708 
Q 1631 397 2203 397 
Q 2534 397 2845 478 
Q 3156 559 3463 722 
L 3463 178 
Q 3153 47 2828 -22 
Q 2503 -91 2169 -91 
Q 1331 -91 842 396 
Q 353 884 353 1716 
Q 353 2575 817 3079 
Q 1281 3584 2069 3584 
Q 2775 3584 3186 3129 
Q 3597 2675 3597 1894 
z
M 3022 2063 
Q 3016 2534 2758 2815 
Q 2500 3097 2075 3097 
Q 1594 3097 1305 2825 
Q 1016 2553 972 2059 
L 3022 2063 
z
" transform="scale(0.015625)"/>
       <path id="DejaVuSans-76" d="M 191 3500 
L 800 3500 
L 1894 563 
L 2988 3500 
L 3597 3500 
L 2284 0 
L 1503 0 
L 191 3500 
z
" transform="scale(0.015625)"/>
       <path id="DejaVuSans-61" d="M 2194 1759 
Q 1497 1759 1228 1600 
Q 959 1441 959 1056 
Q 959 750 1161 570 
Q 1363 391 1709 391 
Q 2188 391 2477 730 
Q 2766 1069 2766 1631 
L 2766 1759 
L 2194 1759 
z
M 3341 1997 
L 3341 0 
L 2766 0 
L 2766 531 
Q 2569 213 2275 61 
Q 1981 -91 1556 -91 
Q 1019 -91 701 211 
Q 384 513 384 1019 
Q 384 1609 779 1909 
Q 1175 2209 1959 2209 
L 2766 2209 
L 2766 2266 
Q 2766 2663 2505 2880 
Q 2244 3097 1772 3097 
Q 1472 3097 1187 3025 
Q 903 2953 641 2809 
L 641 3341 
Q 956 3463 1253 3523 
Q 1550 3584 1831 3584 
Q 2591 3584 2966 3190 
Q 3341 2797 3341 1997 
z
" transform="scale(0.015625)"/>
       <path id="DejaVuSans-73" d="M 2834 3397 
L 2834 2853 
Q 2591 2978 2328 3040 
Q 2066 3103 1784 3103 
Q 1356 3103 1142 2972 
Q 928 2841 928 2578 
Q 928 2378 1081 2264 
Q 1234 2150 1697 2047 
L 1894 2003 
Q 2506 1872 2764 1633 
Q 3022 1394 3022 966 
Q 3022 478 2636 193 
Q 2250 -91 1575 -91 
Q 1294 -91 989 -36 
Q 684 19 347 128 
L 347 722 
Q 666 556 975 473 
Q 1284 391 1588 391 
Q 1994 391 2212 530 
Q 2431 669 2431 922 
Q 2431 1156 2273 1281 
Q 2116 1406 1581 1522 
L 1381 1569 
Q 847 1681 609 1914 
Q 372 2147 372 2553 
Q 372 3047 722 3315 
Q 1072 3584 1716 3584 
Q 2034 3584 2315 3537 
Q 2597 3491 2834 3397 
z
" transform="scale(0.015625)"/>
       <path id="DejaVuSans-2f" d="M 1625 4666 
L 2156 4666 
L 531 -594 
L 0 -594 
L 1625 4666 
z
" transform="scale(0.015625)"/>
       <path id="DejaVuSans-64" d="M 2906 2969 
L 2906 4863 
L 3481 4863 
L 3481 0 
L 2906 0 
L 2906 525 
Q 2725 213 2448 61 
Q 2172 -91 1784 -91 
Q 1150 -91 751 415 
Q 353 922 353 1747 
Q 353 2572 751 3078 
Q 1150 3584 1784 3584 
Q 2172 3584 2448 3432 
Q 2725 3281 2906 2969 
z
M 947 1747 
Q 947 1113 1208 752 
Q 1469 391 1925 391 
Q 2381 391 2643 752 
Q 2906 1113 2906 1747 
Q 2906 2381 2643 2742 
Q 2381 3103 1925 3103 
Q 1469 3103 1208 2742 
Q 947 2381 947 1747 
z
" transform="scale(0.015625)"/>
       <path id="DejaVuSans-69" d="M 603 3500 
L 1178 3500 
L 1178 0 
L 603 0 
L 603 3500 
z
M 603 4863 
L 1178 4863 
L 1178 4134 
L 603 4134 
L 603 4863 
z
" transform="scale(0.015625)"/>
       <path id="DejaVuSans-6d" d="M 3328 2828 
Q 3544 3216 3844 3400 
Q 4144 3584 4550 3584 
Q 5097 3584 5394 3201 
Q 5691 2819 5691 2113 
L 5691 0 
L 5113 0 
L 5113 2094 
Q 5113 2597 4934 2840 
Q 4756 3084 4391 3084 
Q 3944 3084 3684 2787 
Q 3425 2491 3425 1978 
L 3425 0 
L 2847 0 
L 2847 2094 
Q 2847 2600 2669 2842 
Q 2491 3084 2119 3084 
Q 1678 3084 1418 2786 
Q 1159 2488 1159 1978 
L 1159 0 
L 581 0 
L 581 3500 
L 1159 3500 
L 1159 2956 
Q 1356 3278 1631 3431 
Q 1906 3584 2284 3584 
Q 2666 3584 2933 3390 
Q 3200 3197 3328 2828 
z
" transform="scale(0.015625)"/>
       <path id="DejaVuSans-6e" d="M 3513 2113 
L 3513 0 
L 2938 0 
L 2938 2094 
Q 2938 2591 2744 2837 
Q 2550 3084 2163 3084 
Q 1697 3084 1428 2787 
Q 1159 2491 1159 1978 
L 1159 0 
L 581 0 
L 581 3500 
L 1159 3500 
L 1159 2956 
Q 1366 3272 1645 3428 
Q 1925 3584 2291 3584 
Q 2894 3584 3203 3211 
Q 3513 2838 3513 2113 
z
" transform="scale(0.015625)"/>
       <path id="DejaVuSans-29" d="M 513 4856 
L 1013 4856 
Q 1481 4119 1714 3412 
Q 1947 2706 1947 2009 
Q 1947 1309 1714 600 
Q 1481 -109 1013 -844 
L 513 -844 
Q 928 -128 1133 580 
Q 1338 1288 1338 2009 
Q 1338 2731 1133 3434 
Q 928 4138 513 4856 
z
" transform="scale(0.015625)"/>
      </defs>
      <use xlink:href="#DejaVuSans-6c"/>
      <use xlink:href="#DejaVuSans-6f" x="27.783203"/>
      <use xlink:href="#DejaVuSans-67" x="88.964844"/>
      <use xlink:href="#DejaVuSans-31" x="152.441406"/>
      <use xlink:href="#DejaVuSans-30" x="216.064453"/>
      <use xlink:href="#DejaVuSans-28" x="279.6875"/>
      <use xlink:href="#DejaVuSans-23" x="318.701172"/>
      <use xlink:href="#DejaVuSans-20" x="402.490234"/>
      <use xlink:href="#DejaVuSans-66" x="434.277344"/>
      <use xlink:href="#DejaVuSans-2d" x="463.982422"/>
      <use xlink:href="#DejaVuSans-65" x="500.066406"/>
      <use xlink:href="#DejaVuSans-76" x="561.589844"/>
      <use xlink:href="#DejaVuSans-61" x="620.769531"/>
      <use xlink:href="#DejaVuSans-6c" x="682.048828"/>
      <use xlink:href="#DejaVuSans-73" x="709.832031"/>
      <use xlink:href="#DejaVuSans-20" x="761.931641"/>
      <use xlink:href="#DejaVuSans-2f" x="793.71875"/>
      <use xlink:href="#DejaVuSans-20" x="827.410156"/>
      <use xlink:href="#DejaVuSans-64" x="859.197266"/>
      <use xlink:href="#DejaVuSans-69" x="922.673828"/>
      <use xlink:href="#DejaVuSans-6d" x="950.457031"/>
      <use xlink:href="#DejaVuSans-65" x="1047.869141"/>
      <use xlink:href="#DejaVuSans-6e" x="1109.392578"/>
      <use xlink:href="#DejaVuSans-73" x="1172.771484"/>
      <use xlink:href="#DejaVuSans-69" x="1224.871094"/>
      <use xlink:href="#DejaVuSans-6f" x="1252.654297"/>
      <use xlink:href="#DejaVuSans-6e" x="1313.835938"/>
      <use xlink:href="#DejaVuSans-29" x="1377.214844"/>
     </g>
    </g>
   </g>
   <g id="matplotlib.axis_2">
    <g id="ytick_1">
     <g id="line2d_21">
      <path d="M 57.6 298.944 
L 360.8064 298.944 
" clip-path="url(#p1d81c683be)" style="fill: none; stroke: #b0b0b0; stroke-width: 0.8; stroke-linecap: square"/>
     </g>
     <g id="line2d_22">
      <defs>
       <path id="meaeb354bb6" d="M 0 0 
L -3.5 0 
" style="stroke: #000000; stroke-width: 0.8"/>
      </defs>
      <g>
       <use xlink:href="#meaeb354bb6" x="57.6" y="298.944" style="stroke: #000000; stroke-width: 0.8"/>
      </g>
     </g>
     <g id="text_6">
      <!-- 0.0 -->
      <g transform="translate(25.155 305.02275) scale(0.16 -0.16)">
       <defs>
        <path id="DejaVuSans-2e" d="M 684 794 
L 1344 794 
L 1344 0 
L 684 0 
L 684 794 
z
" transform="scale(0.015625)"/>
       </defs>
       <use xlink:href="#DejaVuSans-30"/>
       <use xlink:href="#DejaVuSans-2e" x="63.623047"/>
       <use xlink:href="#DejaVuSans-30" x="95.410156"/>
      </g>
     </g>
    </g>
    <g id="ytick_2">
     <g id="line2d_23">
      <path d="M 57.6 240.5376 
L 360.8064 240.5376 
" clip-path="url(#p1d81c683be)" style="fill: none; stroke: #b0b0b0; stroke-width: 0.8; stroke-linecap: square"/>
     </g>
     <g id="line2d_24">
      <g>
       <use xlink:href="#meaeb354bb6" x="57.6" y="240.5376" style="stroke: #000000; stroke-width: 0.8"/>
      </g>
     </g>
     <g id="text_7">
      <!-- 0.2 -->
      <g transform="translate(25.155 246.61635) scale(0.16 -0.16)">
       <use xlink:href="#DejaVuSans-30"/>
       <use xlink:href="#DejaVuSans-2e" x="63.623047"/>
       <use xlink:href="#DejaVuSans-32" x="95.410156"/>
      </g>
     </g>
    </g>
    <g id="ytick_3">
     <g id="line2d_25">
      <path d="M 57.6 182.1312 
L 360.8064 182.1312 
" clip-path="url(#p1d81c683be)" style="fill: none; stroke: #b0b0b0; stroke-width: 0.8; stroke-linecap: square"/>
     </g>
     <g id="line2d_26">
      <g>
       <use xlink:href="#meaeb354bb6" x="57.6" y="182.1312" style="stroke: #000000; stroke-width: 0.8"/>
      </g>
     </g>
     <g id="text_8">
      <!-- 0.4 -->
      <g transform="translate(25.155 188.20995) scale(0.16 -0.16)">
       <use xlink:href="#DejaVuSans-30"/>
       <use xlink:href="#DejaVuSans-2e" x="63.623047"/>
       <use xlink:href="#DejaVuSans-34" x="95.410156"/>
      </g>
     </g>
    </g>
    <g id="ytick_4">
     <g id="line2d_27">
      <path d="M 57.6 123.7248 
L 360.8064 123.7248 
" clip-path="url(#p1d81c683be)" style="fill: none; stroke: #b0b0b0; stroke-width: 0.8; stroke-linecap: square"/>
     </g>
     <g id="line2d_28">
      <g>
       <use xlink:href="#meaeb354bb6" x="57.6" y="123.7248" style="stroke: #000000; stroke-width: 0.8"/>
      </g>
     </g>
     <g id="text_9">
      <!-- 0.6 -->
      <g transform="translate(25.155 129.80355) scale(0.16 -0.16)">
       <use xlink:href="#DejaVuSans-30"/>
       <use xlink:href="#DejaVuSans-2e" x="63.623047"/>
       <use xlink:href="#DejaVuSans-36" x="95.410156"/>
      </g>
     </g>
    </g>
    <g id="ytick_5">
     <g id="line2d_29">
      <path d="M 57.6 65.3184 
L 360.8064 65.3184 
" clip-path="url(#p1d81c683be)" style="fill: none; stroke: #b0b0b0; stroke-width: 0.8; stroke-linecap: square"/>
     </g>
     <g id="line2d_30">
      <g>
       <use xlink:href="#meaeb354bb6" x="57.6" y="65.3184" style="stroke: #000000; stroke-width: 0.8"/>
      </g>
     </g>
     <g id="text_10">
      <!-- 0.8 -->
      <g transform="translate(25.155 71.39715) scale(0.16 -0.16)">
       <defs>
        <path id="DejaVuSans-38" d="M 2034 2216 
Q 1584 2216 1326 1975 
Q 1069 1734 1069 1313 
Q 1069 891 1326 650 
Q 1584 409 2034 409 
Q 2484 409 2743 651 
Q 3003 894 3003 1313 
Q 3003 1734 2745 1975 
Q 2488 2216 2034 2216 
z
M 1403 2484 
Q 997 2584 770 2862 
Q 544 3141 544 3541 
Q 544 4100 942 4425 
Q 1341 4750 2034 4750 
Q 2731 4750 3128 4425 
Q 3525 4100 3525 3541 
Q 3525 3141 3298 2862 
Q 3072 2584 2669 2484 
Q 3125 2378 3379 2068 
Q 3634 1759 3634 1313 
Q 3634 634 3220 271 
Q 2806 -91 2034 -91 
Q 1263 -91 848 271 
Q 434 634 434 1313 
Q 434 1759 690 2068 
Q 947 2378 1403 2484 
z
M 1172 3481 
Q 1172 3119 1398 2916 
Q 1625 2713 2034 2713 
Q 2441 2713 2670 2916 
Q 2900 3119 2900 3481 
Q 2900 3844 2670 4047 
Q 2441 4250 2034 4250 
Q 1625 4250 1398 4047 
Q 1172 3844 1172 3481 
z
" transform="scale(0.015625)"/>
       </defs>
       <use xlink:href="#DejaVuSans-30"/>
       <use xlink:href="#DejaVuSans-2e" x="63.623047"/>
       <use xlink:href="#DejaVuSans-38" x="95.410156"/>
      </g>
     </g>
    </g>
    <g id="ytick_6">
     <g id="line2d_31">
      <path d="M 57.6 6.912 
L 360.8064 6.912 
" clip-path="url(#p1d81c683be)" style="fill: none; stroke: #b0b0b0; stroke-width: 0.8; stroke-linecap: square"/>
     </g>
     <g id="line2d_32">
      <g>
       <use xlink:href="#meaeb354bb6" x="57.6" y="6.912" style="stroke: #000000; stroke-width: 0.8"/>
      </g>
     </g>
     <g id="text_11">
      <!-- 1.0 -->
      <g transform="translate(25.155 12.99075) scale(0.16 -0.16)">
       <use xlink:href="#DejaVuSans-31"/>
       <use xlink:href="#DejaVuSans-2e" x="63.623047"/>
       <use xlink:href="#DejaVuSans-30" x="95.410156"/>
      </g>
     </g>
    </g>
    <g id="text_12">
     <!-- Fraction of function,target pairs -->
     <g transform="translate(17.619531 287.313) rotate(-90) scale(0.17 -0.17)">
      <defs>
       <path id="DejaVuSans-46" d="M 628 4666 
L 3309 4666 
L 3309 4134 
L 1259 4134 
L 1259 2759 
L 3109 2759 
L 3109 2228 
L 1259 2228 
L 1259 0 
L 628 0 
L 628 4666 
z
" transform="scale(0.015625)"/>
       <path id="DejaVuSans-72" d="M 2631 2963 
Q 2534 3019 2420 3045 
Q 2306 3072 2169 3072 
Q 1681 3072 1420 2755 
Q 1159 2438 1159 1844 
L 1159 0 
L 581 0 
L 581 3500 
L 1159 3500 
L 1159 2956 
Q 1341 3275 1631 3429 
Q 1922 3584 2338 3584 
Q 2397 3584 2469 3576 
Q 2541 3569 2628 3553 
L 2631 2963 
z
" transform="scale(0.015625)"/>
       <path id="DejaVuSans-63" d="M 3122 3366 
L 3122 2828 
Q 2878 2963 2633 3030 
Q 2388 3097 2138 3097 
Q 1578 3097 1268 2742 
Q 959 2388 959 1747 
Q 959 1106 1268 751 
Q 1578 397 2138 397 
Q 2388 397 2633 464 
Q 2878 531 3122 666 
L 3122 134 
Q 2881 22 2623 -34 
Q 2366 -91 2075 -91 
Q 1284 -91 818 406 
Q 353 903 353 1747 
Q 353 2603 823 3093 
Q 1294 3584 2113 3584 
Q 2378 3584 2631 3529 
Q 2884 3475 3122 3366 
z
" transform="scale(0.015625)"/>
       <path id="DejaVuSans-74" d="M 1172 4494 
L 1172 3500 
L 2356 3500 
L 2356 3053 
L 1172 3053 
L 1172 1153 
Q 1172 725 1289 603 
Q 1406 481 1766 481 
L 2356 481 
L 2356 0 
L 1766 0 
Q 1100 0 847 248 
Q 594 497 594 1153 
L 594 3053 
L 172 3053 
L 172 3500 
L 594 3500 
L 594 4494 
L 1172 4494 
z
" transform="scale(0.015625)"/>
       <path id="DejaVuSans-75" d="M 544 1381 
L 544 3500 
L 1119 3500 
L 1119 1403 
Q 1119 906 1312 657 
Q 1506 409 1894 409 
Q 2359 409 2629 706 
Q 2900 1003 2900 1516 
L 2900 3500 
L 3475 3500 
L 3475 0 
L 2900 0 
L 2900 538 
Q 2691 219 2414 64 
Q 2138 -91 1772 -91 
Q 1169 -91 856 284 
Q 544 659 544 1381 
z
M 1991 3584 
L 1991 3584 
z
" transform="scale(0.015625)"/>
       <path id="DejaVuSans-2c" d="M 750 794 
L 1409 794 
L 1409 256 
L 897 -744 
L 494 -744 
L 750 256 
L 750 794 
z
" transform="scale(0.015625)"/>
       <path id="DejaVuSans-70" d="M 1159 525 
L 1159 -1331 
L 581 -1331 
L 581 3500 
L 1159 3500 
L 1159 2969 
Q 1341 3281 1617 3432 
Q 1894 3584 2278 3584 
Q 2916 3584 3314 3078 
Q 3713 2572 3713 1747 
Q 3713 922 3314 415 
Q 2916 -91 2278 -91 
Q 1894 -91 1617 61 
Q 1341 213 1159 525 
z
M 3116 1747 
Q 3116 2381 2855 2742 
Q 2594 3103 2138 3103 
Q 1681 3103 1420 2742 
Q 1159 2381 1159 1747 
Q 1159 1113 1420 752 
Q 1681 391 2138 391 
Q 2594 391 2855 752 
Q 3116 1113 3116 1747 
z
" transform="scale(0.015625)"/>
      </defs>
      <use xlink:href="#DejaVuSans-46"/>
      <use xlink:href="#DejaVuSans-72" x="50.269531"/>
      <use xlink:href="#DejaVuSans-61" x="91.382812"/>
      <use xlink:href="#DejaVuSans-63" x="152.662109"/>
      <use xlink:href="#DejaVuSans-74" x="207.642578"/>
      <use xlink:href="#DejaVuSans-69" x="246.851562"/>
      <use xlink:href="#DejaVuSans-6f" x="274.634766"/>
      <use xlink:href="#DejaVuSans-6e" x="335.816406"/>
      <use xlink:href="#DejaVuSans-20" x="399.195312"/>
      <use xlink:href="#DejaVuSans-6f" x="430.982422"/>
      <use xlink:href="#DejaVuSans-66" x="492.164062"/>
      <use xlink:href="#DejaVuSans-20" x="527.369141"/>
      <use xlink:href="#DejaVuSans-66" x="559.15625"/>
      <use xlink:href="#DejaVuSans-75" x="594.361328"/>
      <use xlink:href="#DejaVuSans-6e" x="657.740234"/>
      <use xlink:href="#DejaVuSans-63" x="721.119141"/>
      <use xlink:href="#DejaVuSans-74" x="776.099609"/>
      <use xlink:href="#DejaVuSans-69" x="815.308594"/>
      <use xlink:href="#DejaVuSans-6f" x="843.091797"/>
      <use xlink:href="#DejaVuSans-6e" x="904.273438"/>
      <use xlink:href="#DejaVuSans-2c" x="967.652344"/>
      <use xlink:href="#DejaVuSans-74" x="999.439453"/>
      <use xlink:href="#DejaVuSans-61" x="1038.648438"/>
      <use xlink:href="#DejaVuSans-72" x="1099.927734"/>
      <use xlink:href="#DejaVuSans-67" x="1139.291016"/>
      <use xlink:href="#DejaVuSans-65" x="1202.767578"/>
      <use xlink:href="#DejaVuSans-74" x="1264.291016"/>
      <use xlink:href="#DejaVuSans-20" x="1303.5"/>
      <use xlink:href="#DejaVuSans-70" x="1335.287109"/>
      <use xlink:href="#DejaVuSans-61" x="1398.763672"/>
      <use xlink:href="#DejaVuSans-69" x="1460.042969"/>
      <use xlink:href="#DejaVuSans-72" x="1487.826172"/>
      <use xlink:href="#DejaVuSans-73" x="1528.939453"/>
     </g>
    </g>
   </g>
   <g id="line2d_33">
    <defs>
     <path id="m40a5d1e194" d="M 0 1.5 
C 0.397805 1.5 0.77937 1.341951 1.06066 1.06066 
C 1.341951 0.77937 1.5 0.397805 1.5 0 
C 1.5 -0.397805 1.341951 -0.77937 1.06066 -1.06066 
C 0.77937 -1.341951 0.397805 -1.5 0 -1.5 
C -0.397805 -1.5 -0.77937 -1.341951 -1.06066 -1.06066 
C -1.341951 -0.77937 -1.5 -0.397805 -1.5 0 
C -1.5 0.397805 -1.341951 0.77937 -1.06066 1.06066 
C -0.77937 1.341951 -0.397805 1.5 0 1.5 
z
" style="stroke: #f5deb3"/>
    </defs>
    <g>
     <use xlink:href="#m40a5d1e194" x="295.953503" y="42.157241" style="fill: #f5deb3; stroke: #f5deb3"/>
     <use xlink:href="#m40a5d1e194" x="295.953503" y="42.157241" style="fill: #f5deb3; stroke: #f5deb3"/>
    </g>
   </g>
   <g id="line2d_34">
    <defs>
     <path id="m6764cc57df" d="M 0 1.5 
C 0.397805 1.5 0.77937 1.341951 1.06066 1.06066 
C 1.341951 0.77937 1.5 0.397805 1.5 0 
C 1.5 -0.397805 1.341951 -0.77937 1.06066 -1.06066 
C 0.77937 -1.341951 0.397805 -1.5 0 -1.5 
C -0.397805 -1.5 -0.77937 -1.341951 -1.06066 -1.06066 
C -1.341951 -0.77937 -1.5 -0.397805 -1.5 0 
C -1.5 0.397805 -1.341951 0.77937 -1.06066 1.06066 
C -0.77937 1.341951 -0.397805 1.5 0 1.5 
z
" style="stroke: #000080"/>
    </defs>
    <g>
     <use xlink:href="#m6764cc57df" x="199.23174" y="178.354924" style="fill: #000080; stroke: #000080"/>
     <use xlink:href="#m6764cc57df" x="199.23174" y="178.354924" style="fill: #000080; stroke: #000080"/>
    </g>
   </g>
   <g id="line2d_35">
    <path d="M 27.323974 298.944 
L 27.323974 291.6432 
L 40.363149 291.6432 
L 40.363149 290.636193 
L 66.441498 290.636193 
L 66.441498 289.125683 
L 76.96874 289.125683 
L 76.96874 288.999807 
L 83.678349 288.999807 
L 83.678349 287.9928 
L 88.613828 287.9928 
L 88.613828 286.985793 
L 92.519847 286.985793 
L 92.519847 286.230538 
L 95.752617 286.230538 
L 95.752617 285.978786 
L 98.510456 285.978786 
L 98.510456 285.475283 
L 100.9152 285.475283 
L 100.9152 283.964772 
L 103.047088 283.964772 
L 103.047088 282.957766 
L 104.961779 282.957766 
L 104.961779 282.706014 
L 106.137884 282.706014 
L 106.137884 282.20251 
L 106.699465 282.20251 
L 106.699465 282.076634 
L 107.244765 282.076634 
L 107.244765 281.573131 
L 107.774703 281.573131 
L 107.774703 281.195503 
L 108.29012 281.195503 
L 108.29012 280.692 
L 109.756698 280.692 
L 109.756698 279.936745 
L 110.221204 279.936745 
L 110.221204 278.300359 
L 110.897141 278.300359 
L 110.897141 278.174483 
L 112.589207 278.174483 
L 112.589207 278.048607 
L 112.989468 278.048607 
L 112.989468 277.545103 
L 113.381389 277.545103 
L 113.381389 277.293352 
L 113.954374 277.293352 
L 113.954374 277.167476 
L 114.141556 277.167476 
L 114.141556 277.0416 
L 114.326893 277.0416 
L 114.326893 276.789848 
L 114.510421 276.789848 
L 114.510421 276.286345 
L 114.692177 276.286345 
L 114.692177 276.034593 
L 115.050503 276.034593 
L 115.050503 275.405214 
L 115.747307 275.405214 
L 115.747307 275.279338 
L 116.086263 275.279338 
L 116.086263 275.027586 
L 116.419219 275.027586 
L 116.419219 274.775834 
L 116.746385 274.775834 
L 116.746385 274.146455 
L 117.695068 274.146455 
L 117.695068 274.020579 
L 117.848632 274.020579 
L 117.848632 273.894703 
L 118.450653 273.894703 
L 118.450653 273.768828 
L 118.598196 273.768828 
L 118.598196 273.642952 
L 118.74459 273.642952 
L 118.74459 273.3912 
L 118.889854 273.3912 
L 118.889854 273.013572 
L 119.034004 273.013572 
L 119.034004 272.761821 
L 119.177058 272.761821 
L 119.177058 272.635945 
L 119.876453 272.635945 
L 119.876453 272.510069 
L 120.149089 272.510069 
L 120.149089 272.384193 
L 120.41783 272.384193 
L 120.41783 272.006566 
L 120.682786 272.006566 
L 120.682786 271.628938 
L 120.944062 271.628938 
L 120.944062 271.503062 
L 121.201758 271.503062 
L 121.201758 271.125434 
L 121.329295 271.125434 
L 121.329295 270.999559 
L 121.706797 270.999559 
L 121.706797 270.496055 
L 121.830966 270.496055 
L 121.830966 270.370179 
L 122.076872 270.370179 
L 122.076872 269.992552 
L 122.439807 269.992552 
L 122.439807 269.866676 
L 122.559246 269.866676 
L 122.559246 269.614924 
L 122.677931 269.614924 
L 122.677931 269.363172 
L 122.795872 269.363172 
L 122.795872 269.111421 
L 123.029559 269.111421 
L 123.029559 268.985545 
L 123.374735 268.985545 
L 123.374735 268.733793 
L 123.4884 268.733793 
L 123.4884 267.978538 
L 123.713691 267.978538 
L 123.713691 267.726786 
L 123.825333 267.726786 
L 123.825333 267.349159 
L 124.265389 267.349159 
L 124.373813 266.845655 
L 124.481616 266.845655 
L 124.588805 266.342152 
L 125.011554 266.342152 
L 125.011554 266.0904 
L 125.628382 266.0904 
L 125.628382 265.964524 
L 125.829577 265.964524 
L 125.929373 265.461021 
L 126.028642 265.461021 
L 126.028642 265.335145 
L 126.225624 265.335145 
L 126.323346 264.957517 
L 126.420564 264.957517 
L 126.420564 264.57989 
L 126.804487 264.57989 
L 126.804487 264.454014 
L 126.993549 264.454014 
L 126.993549 264.076386 
L 127.18073 264.076386 
L 127.273627 263.321131 
L 127.366067 263.321131 
L 127.366067 263.069379 
L 127.549596 263.069379 
L 127.640693 262.188248 
L 128.089678 262.188248 
L 128.089678 262.062372 
L 128.528195 262.062372 
L 128.528195 261.684745 
L 128.786481 261.684745 
L 128.871795 261.181241 
L 128.956723 261.181241 
L 129.041269 260.803614 
L 129.209231 260.803614 
L 129.292652 260.425986 
L 130.501519 260.425986 
L 130.579414 260.174234 
L 130.887807 260.174234 
L 130.887807 259.922483 
L 131.115828 259.922483 
L 131.191226 259.670731 
L 131.41562 259.670731 
L 131.489828 259.418979 
L 131.563744 259.418979 
L 131.63737 259.041352 
L 132.073179 259.041352 
L 132.073179 258.663724 
L 132.428795 258.663724 
L 132.428795 258.160221 
L 132.846847 258.160221 
L 132.846847 257.908469 
L 133.25581 257.908469 
L 133.323114 257.656717 
L 133.390178 257.656717 
L 133.457005 256.901462 
L 133.853052 256.901462 
L 133.918257 256.272083 
L 133.983236 256.272083 
L 133.983236 255.390952 
L 134.112526 255.390952 
L 134.112526 255.1392 
L 134.431915 255.1392 
L 134.431915 254.887448 
L 134.558167 254.887448 
L 134.558167 254.761572 
L 134.993495 254.761572 
L 135.054871 254.383945 
L 135.418977 254.383945 
L 135.478982 254.132193 
L 135.59842 254.132193 
L 135.59842 253.754566 
L 135.717106 253.754566 
L 135.776169 253.502814 
L 135.835047 253.502814 
L 135.893741 253.251062 
L 136.010584 253.251062 
L 136.010584 253.125186 
L 136.184497 253.125186 
L 136.184497 252.873434 
L 136.299553 252.873434 
L 136.356818 252.621683 
L 136.864507 252.621683 
L 136.864507 252.369931 
L 137.030737 252.369931 
L 137.030737 251.992303 
L 137.574461 251.992303 
L 137.574461 251.866428 
L 137.945929 251.866428 
L 138.050729 251.4888 
L 138.10291 251.4888 
L 138.10291 251.237048 
L 138.310202 251.237048 
L 138.310202 251.111172 
L 138.464186 251.111172 
L 138.515235 250.859421 
L 138.918715 250.859421 
L 139.018248 250.355917 
L 139.264798 250.355917 
L 139.264798 250.230041 
L 139.411192 250.230041 
L 139.411192 249.852414 
L 139.700607 249.852414 
L 139.796097 249.34891 
L 139.843661 249.34891 
L 139.843661 249.097159 
L 140.126547 249.097159 
L 140.126547 248.971283 
L 140.543056 248.971283 
L 140.58877 248.719531 
L 140.995278 248.719531 
L 141.084433 248.090152 
L 141.173167 248.090152 
L 141.261484 247.460772 
L 141.436884 247.460772 
L 141.436884 247.209021 
L 141.696956 247.209021 
L 141.782854 246.705517 
L 141.953481 246.705517 
L 142.038218 246.076138 
L 142.164612 246.076138 
L 142.164612 245.950262 
L 142.41488 245.950262 
L 142.497568 245.195007 
L 142.905644 245.195007 
L 142.986208 244.691503 
L 143.10641 244.691503 
L 143.10641 244.565628 
L 143.773417 244.565628 
L 143.773417 244.313876 
L 143.888708 244.313876 
L 143.926981 243.936248 
L 144.454795 243.936248 
L 144.454795 243.810372 
L 144.565997 243.810372 
L 144.602918 243.558621 
L 144.895711 243.558621 
L 144.895711 243.432745 
L 145.076419 243.432745 
L 145.184016 242.551614 
L 145.361989 242.551614 
L 145.397382 242.173986 
L 145.503164 242.173986 
L 145.503164 242.04811 
L 146.091614 242.04811 
L 146.091614 241.922234 
L 146.261241 241.922234 
L 146.261241 241.796359 
L 146.462796 241.796359 
L 146.562769 241.418731 
L 146.595975 241.418731 
L 146.595975 240.915228 
L 146.957431 240.915228 
L 146.957431 240.789352 
L 147.119461 240.789352 
L 147.183884 240.159972 
L 147.248088 240.159972 
L 147.280107 239.908221 
L 147.471089 239.908221 
L 147.534321 239.02709 
L 147.816265 239.02709 
L 147.878349 238.775338 
L 148.185734 238.775338 
L 148.276979 238.145959 
L 148.367783 238.145959 
L 148.397954 237.642455 
L 148.57797 237.642455 
L 148.637595 237.390703 
L 148.75628 237.390703 
L 148.75628 237.138952 
L 148.932916 237.138952 
L 149.020615 236.383697 
L 149.165879 236.383697 
L 149.165879 236.257821 
L 149.395993 236.257821 
L 149.395993 236.006069 
L 149.595059 236.006069 
L 149.595059 235.754317 
L 149.764026 235.754317 
L 149.79204 234.873186 
L 150.124997 234.873186 
L 150.234685 234.117931 
L 150.316534 234.117931 
L 150.316534 233.992055 
L 150.452162 233.992055 
L 150.533072 233.2368 
L 150.693856 233.2368 
L 150.800286 232.607421 
L 151.27191 232.607421 
L 151.349377 231.978041 
L 151.630724 231.978041 
L 151.630724 231.852166 
L 151.832729 231.852166 
L 151.907925 231.474538 
L 152.401695 231.474538 
L 152.401695 231.222786 
L 152.763699 231.222786 
L 152.859068 230.215779 
L 153.02481 230.215779 
L 153.095398 229.5864 
L 153.305585 229.5864 
L 153.305585 229.334648 
L 153.673549 229.334648 
L 153.673549 229.208772 
L 153.832297 229.208772 
L 153.899924 228.327641 
L 153.944874 228.327641 
L 153.944874 228.201766 
L 154.649839 228.201766 
L 154.757642 227.572386 
L 154.86483 227.572386 
L 154.971412 226.691255 
L 155.013876 226.691255 
L 155.098517 225.558372 
L 155.18278 225.558372 
L 155.18278 225.306621 
L 155.329337 225.306621 
L 155.412574 225.054869 
L 155.639595 225.054869 
L 155.680579 224.42549 
L 155.904407 224.42549 
L 155.904407 224.299614 
L 156.025382 224.299614 
L 156.025382 223.921986 
L 156.462418 223.921986 
L 156.560344 223.418483 
L 156.812591 223.418483 
L 156.812591 223.292607 
L 157.004352 223.292607 
L 157.080512 222.789103 
L 157.512549 222.789103 
L 157.512549 222.411476 
L 157.660526 222.411476 
L 157.752425 221.907972 
L 157.825621 221.907972 
L 157.862113 221.530345 
L 157.98928 221.530345 
L 158.0976 220.77509 
L 158.187393 220.77509 
L 158.187393 220.523338 
L 158.489522 220.523338 
L 158.489522 220.271586 
L 158.647529 220.271586 
L 158.647529 220.019834 
L 158.786875 220.019834 
L 158.786875 219.893959 
L 158.959618 219.893959 
L 159.028273 218.761076 
L 159.113741 218.761076 
L 159.215793 218.257572 
L 159.300416 218.257572 
L 159.334159 218.005821 
L 159.68485 218.005821 
L 159.783859 217.628193 
L 159.980326 217.628193 
L 159.980326 217.376441 
L 160.158636 217.376441 
L 160.190875 217.12469 
L 160.319282 217.12469 
L 160.319282 216.872938 
L 160.573496 216.872938 
L 160.683643 216.49531 
L 160.761927 216.49531 
L 160.808741 216.117683 
L 161.010268 216.117683 
L 161.056469 215.740055 
L 161.17912 215.740055 
L 161.209658 215.236552 
L 161.497325 215.236552 
L 161.572302 214.733048 
L 161.751035 214.733048 
L 161.810238 214.481297 
L 161.942766 214.481297 
L 161.942766 214.355421 
L 162.320462 214.355421 
L 162.377902 213.851917 
L 162.435167 213.851917 
L 162.463734 213.47429 
L 162.577572 213.47429 
L 162.577572 213.348414 
L 162.831214 213.348414 
L 162.928937 212.970786 
L 163.191653 212.970786 
L 163.260183 212.341407 
L 163.437203 212.341407 
L 163.504846 211.963779 
L 163.639407 211.963779 
L 163.73303 211.586152 
L 163.773012 211.586152 
L 163.852722 210.830897 
L 163.984826 210.830897 
L 163.984826 210.705021 
L 164.181259 210.705021 
L 164.259262 210.201517 
L 164.465701 210.201517 
L 164.465701 209.949766 
L 164.593584 209.949766 
L 164.695268 209.572138 
L 164.733259 209.572138 
L 164.796406 208.942759 
L 164.922068 208.942759 
L 164.922068 208.816883 
L 165.096597 208.816883 
L 165.158538 208.313379 
L 165.465221 208.313379 
L 165.574415 207.558124 
L 165.682978 207.558124 
L 165.778956 206.928745 
L 165.933882 206.928745 
L 165.933882 206.802869 
L 166.063985 206.802869 
L 166.158043 206.17349 
L 166.529641 206.17349 
L 166.529641 206.047614 
L 166.689935 206.047614 
L 166.792265 205.166483 
L 166.882759 205.166483 
L 166.927844 204.411228 
L 167.051272 204.411228 
L 167.051272 204.285352 
L 167.240447 204.285352 
L 167.240447 204.0336 
L 167.383837 204.0336 
L 167.471536 203.404221 
L 167.786064 203.404221 
L 167.850487 202.397214 
L 168.042443 202.397214 
L 168.137692 201.89371 
L 168.274427 201.89371 
L 168.378936 201.516083 
L 168.420577 201.516083 
L 168.420577 201.264331 
L 168.740211 201.264331 
L 168.821824 200.886703 
L 168.973898 200.886703 
L 168.973898 200.760828 
L 169.124754 200.760828 
L 169.124754 200.634952 
L 169.822832 200.634952 
L 169.919104 199.879697 
L 169.9383 199.879697 
L 169.986203 199.376193 
L 170.100675 199.376193 
L 170.100675 199.124441 
L 170.233352 199.124441 
L 170.318152 198.746814 
L 170.374474 198.746814 
L 170.374474 198.495062 
L 170.607351 198.495062 
L 170.607351 198.369186 
L 170.736514 198.369186 
L 170.828233 197.739807 
L 170.919507 197.739807 
L 170.919507 197.488055 
L 171.109753 197.488055 
L 171.217608 196.858676 
L 171.396002 196.858676 
L 171.396002 196.7328 
L 171.537509 196.7328 
L 171.555123 196.355172 
L 171.669213 196.355172 
L 171.704179 196.103421 
L 171.81737 196.103421 
L 171.843395 195.22229 
L 171.981589 195.22229 
L 172.050307 194.718786 
L 172.127316 194.718786 
L 172.212513 194.467034 
L 172.305787 194.467034 
L 172.305787 194.215283 
L 172.465815 194.215283 
L 172.557844 193.837655 
L 172.690906 193.837655 
L 172.690906 193.711779 
L 172.872342 193.711779 
L 172.946065 193.208276 
L 173.10076 193.208276 
L 173.18167 192.830648 
L 173.254192 192.830648 
L 173.302386 192.201269 
L 173.382435 192.201269 
L 173.382435 192.075393 
L 173.793288 192.075393 
L 173.793288 191.949517 
L 173.917919 191.949517 
L 173.995397 191.446014 
L 174.118701 191.446014 
L 174.164733 191.068386 
L 174.286936 191.068386 
L 174.309761 190.439007 
L 174.506426 190.439007 
L 174.506426 190.187255 
L 174.686155 190.187255 
L 174.686155 190.061379 
L 174.871565 190.061379 
L 174.959917 189.809628 
L 175.069777 189.809628 
L 175.171736 189.432 
L 175.258693 189.432 
L 175.338051 189.054372 
L 175.445731 189.054372 
L 175.445731 188.802621 
L 175.588351 188.802621 
L 175.638014 188.550869 
L 175.708734 188.550869 
L 175.708734 188.424993 
L 175.828352 188.424993 
L 175.828352 188.173241 
L 176.037604 188.173241 
L 176.037604 188.047366 
L 176.530511 188.047366 
L 176.591226 187.669738 
L 176.658458 187.669738 
L 176.665168 187.417986 
L 176.805529 187.417986 
L 176.852084 187.040359 
L 176.92501 187.040359 
L 176.92501 186.914483 
L 177.109374 186.914483 
L 177.115925 186.662731 
L 177.285458 186.662731 
L 177.304922 186.410979 
L 177.568925 186.410979 
L 177.670954 186.033352 
L 177.747115 186.033352 
L 177.747115 185.907476 
L 177.873367 185.907476 
L 177.873367 185.7816 
L 177.998778 185.7816 
L 177.998778 185.655724 
L 178.148176 185.655724 
L 178.148176 185.529848 
L 178.314842 185.529848 
L 178.333269 185.152221 
L 178.534791 185.152221 
L 178.534791 185.026345 
L 178.680008 185.026345 
L 178.680008 184.900469 
L 178.794182 184.900469 
L 178.824112 184.648717 
L 179.032306 184.648717 
L 179.06186 184.145214 
L 179.156125 184.145214 
L 179.20308 183.893462 
L 179.354881 183.893462 
L 179.354881 183.767586 
L 179.517001 183.767586 
L 179.528527 183.264083 
L 179.831439 183.264083 
L 179.831439 183.012331 
L 179.98952 183.012331 
L 180.096038 182.382952 
L 180.190835 182.382952 
L 180.296222 181.879448 
L 180.499771 181.879448 
L 180.499771 181.627697 
L 181.276886 181.627697 
L 181.276886 181.501821 
L 181.397255 181.501821 
L 181.397255 181.375945 
L 182.248879 181.375945 
L 182.248879 181.250069 
L 182.92464 181.250069 
L 182.92464 181.124193 
L 183.13985 181.124193 
L 183.13985 180.998317 
L 183.427703 180.998317 
L 183.427703 180.872441 
L 183.9131 180.872441 
L 183.958682 180.62069 
L 184.292597 180.62069 
L 184.292597 180.494814 
L 184.576684 180.494814 
L 184.576684 180.368938 
L 184.943154 180.368938 
L 184.943154 180.243062 
L 185.688599 180.243062 
L 185.725936 179.865434 
L 186.245049 179.865434 
L 186.245049 179.613683 
L 186.750221 179.613683 
L 186.750221 179.487807 
L 187.02297 179.487807 
L 187.02297 179.361931 
L 187.142507 179.361931 
L 187.173232 178.984303 
L 189.314575 178.984303 
L 189.314575 178.858428 
L 190.86845 178.858428 
L 190.86845 178.732552 
L 194.470308 178.732552 
L 194.470308 178.4808 
L 199.23174 178.4808 
L 199.23174 178.354924 
L 360.8064 178.354924 
L 360.8064 178.354924 
" style="fill: none; stroke: #000080; stroke-width: 1.5; stroke-linecap: square"/>
   </g>
   <g id="line2d_36">
    <defs>
     <path id="m40e2af4528" d="M 0 6 
C 1.591219 6 3.117479 5.367802 4.242641 4.242641 
C 5.367802 3.117479 6 1.591219 6 0 
C 6 -1.591219 5.367802 -3.117479 4.242641 -4.242641 
C 3.117479 -5.367802 1.591219 -6 0 -6 
C -1.591219 -6 -3.117479 -5.367802 -4.242641 -4.242641 
C -5.367802 -3.117479 -6 -1.591219 -6 0 
C -6 1.591219 -5.367802 3.117479 -4.242641 4.242641 
C -3.117479 5.367802 -1.591219 6 0 6 
z
" style="stroke: #000080; stroke-width: 1.5"/>
    </defs>
    <g>
     <use xlink:href="#m40e2af4528" x="100.9152" y="285.475283" style="fill-opacity: 0; stroke: #000080; stroke-width: 1.5"/>
     <use xlink:href="#m40e2af4528" x="170.919507" y="197.739807" style="fill-opacity: 0; stroke: #000080; stroke-width: 1.5"/>
     <use xlink:href="#m40e2af4528" x="199.23174" y="178.4808" style="fill-opacity: 0; stroke: #000080; stroke-width: 1.5"/>
     <use xlink:href="#m40e2af4528" x="199.23174" y="178.354924" style="fill-opacity: 0; stroke: #000080; stroke-width: 1.5"/>
     <use xlink:href="#m40e2af4528" x="199.23174" y="178.354924" style="fill-opacity: 0; stroke: #000080; stroke-width: 1.5"/>
     <use xlink:href="#m40e2af4528" x="360.8064" y="178.354924" style="fill-opacity: 0; stroke: #000080; stroke-width: 1.5"/>
    </g>
   </g>
   <g id="line2d_37">
    <path style="fill: none; stroke: #000080; stroke-width: 1.5; stroke-linecap: square"/>
    <g/>
   </g>
   <g id="line2d_38">
    <path d="M 230.859295 178.354924 
" clip-path="url(#p1d81c683be)" style="fill: none; stroke: #000080; stroke-width: 1.5; stroke-linecap: square"/>
    <defs>
     <path id="ma75b45e062" d="M -12 12 
L 12 -12 
M -12 -12 
L 12 12 
" style="stroke: #000080"/>
    </defs>
    <g clip-path="url(#p1d81c683be)">
     <use xlink:href="#ma75b45e062" x="230.859295" y="178.354924" style="fill: #000080; stroke: #000080"/>
    </g>
   </g>
   <g id="line2d_39">
    <defs>
     <path id="m9ae5647d27" d="M 0 1.5 
C 0.397805 1.5 0.77937 1.341951 1.06066 1.06066 
C 1.341951 0.77937 1.5 0.397805 1.5 0 
C 1.5 -0.397805 1.341951 -0.77937 1.06066 -1.06066 
C 0.77937 -1.341951 0.397805 -1.5 0 -1.5 
C -0.397805 -1.5 -0.77937 -1.341951 -1.06066 -1.06066 
C -1.341951 -0.77937 -1.5 -0.397805 -1.5 0 
C -1.5 0.397805 -1.341951 0.77937 -1.06066 1.06066 
C -0.77937 1.341951 -0.397805 1.5 0 1.5 
z
" style="stroke: #ff00ff"/>
    </defs>
    <g>
     <use xlink:href="#m9ae5647d27" x="210.126731" y="181.250069" style="fill: #ff00ff; stroke: #ff00ff"/>
     <use xlink:href="#m9ae5647d27" x="210.126731" y="181.250069" style="fill: #ff00ff; stroke: #ff00ff"/>
    </g>
   </g>
   <g id="line2d_40">
    <path d="M 27.323974 298.944 
L 27.323974 291.6432 
L 40.363149 291.6432 
L 40.363149 289.629186 
L 72.432107 289.629186 
L 72.432107 288.118676 
L 83.678349 288.118676 
L 83.678349 285.978786 
L 90.668036 285.978786 
L 90.668036 284.720028 
L 95.752617 284.720028 
L 95.752617 283.461269 
L 99.751228 283.461269 
L 99.751228 283.083641 
L 103.047088 283.083641 
L 103.047088 282.076634 
L 105.850679 282.076634 
L 105.850679 281.321379 
L 108.29012 281.321379 
L 108.29012 280.943752 
L 110.449226 280.943752 
L 110.449226 280.440248 
L 112.385837 280.440248 
L 112.385837 279.433241 
L 114.141556 279.433241 
L 114.141556 278.929738 
L 115.747307 278.929738 
L 115.747307 278.300359 
L 117.226706 278.300359 
L 117.226706 277.670979 
L 118.598196 277.670979 
L 118.598196 277.293352 
L 119.876453 277.293352 
L 119.876453 276.789848 
L 121.073351 276.789848 
L 121.073351 276.034593 
L 122.19863 276.034593 
L 122.19863 275.656966 
L 123.260379 275.656966 
L 123.260379 275.279338 
L 124.265389 275.279338 
L 124.265389 274.649959 
L 125.219419 274.649959 
L 125.219419 273.768828 
L 126.127391 273.768828 
L 126.127391 273.013572 
L 126.993549 273.013572 
L 126.993549 271.377186 
L 127.821575 271.377186 
L 127.821575 270.118428 
L 128.614685 270.118428 
L 128.614685 269.237297 
L 129.375706 269.237297 
L 129.375706 268.607917 
L 130.107132 268.607917 
L 130.107132 267.978538 
L 130.811181 267.978538 
L 130.811181 267.475034 
L 131.489828 267.475034 
L 131.489828 266.719779 
L 132.777813 266.719779 
L 132.777813 265.838648 
L 133.390178 265.838648 
L 133.390178 265.209269 
L 133.983236 265.209269 
L 133.983236 264.454014 
L 134.558167 264.454014 
L 134.558167 264.076386 
L 135.116046 264.076386 
L 135.116046 262.817628 
L 135.657857 262.817628 
L 135.657857 262.314124 
L 136.184497 262.314124 
L 136.184497 261.558869 
L 136.696795 261.558869 
L 136.696795 260.551862 
L 137.195511 260.551862 
L 137.195511 260.174234 
L 137.681345 260.174234 
L 137.681345 259.418979 
L 138.154948 259.418979 
L 138.154948 259.167228 
L 138.616919 259.167228 
L 138.616919 258.663724 
L 139.067817 258.663724 
L 139.067817 258.286097 
L 139.508159 258.286097 
L 139.508159 258.034345 
L 139.93843 258.034345 
L 139.93843 257.027338 
L 140.359078 257.027338 
L 140.359078 256.64971 
L 140.770526 256.64971 
L 140.770526 255.390952 
L 141.173167 255.390952 
L 141.173167 254.887448 
L 141.56737 254.887448 
L 141.56737 254.006317 
L 141.953481 254.006317 
L 141.953481 253.62869 
L 142.331827 253.62869 
L 142.331827 253.125186 
L 142.702713 253.125186 
L 142.702713 252.747559 
L 143.066428 252.747559 
L 143.066428 252.244055 
L 143.423243 252.244055 
L 143.423243 251.4888 
L 143.773417 251.4888 
L 143.773417 251.111172 
L 144.117191 251.111172 
L 144.117191 250.355917 
L 144.786447 250.355917 
L 144.786447 250.104166 
L 145.112353 250.104166 
L 145.112353 249.600662 
L 145.432709 249.600662 
L 145.432709 249.223034 
L 145.7477 249.223034 
L 145.7477 248.593655 
L 146.057504 248.593655 
L 146.057504 248.216028 
L 146.362288 248.216028 
L 146.362288 247.586648 
L 146.662213 247.586648 
L 146.662213 246.831393 
L 146.957431 246.831393 
L 146.957431 246.202014 
L 147.248088 246.202014 
L 147.248088 245.950262 
L 147.534321 245.950262 
L 147.534321 245.446759 
L 147.816265 245.446759 
L 147.816265 244.817379 
L 148.367783 244.817379 
L 148.367783 244.565628 
L 148.637595 244.565628 
L 148.637595 244.188 
L 148.903591 244.188 
L 148.903591 243.558621 
L 149.165879 243.558621 
L 149.165879 242.929241 
L 149.42456 242.929241 
L 149.42456 242.299862 
L 149.679732 242.299862 
L 149.679732 241.796359 
L 149.931489 241.796359 
L 149.931489 241.670483 
L 150.179921 241.670483 
L 150.179921 241.544607 
L 150.425115 241.544607 
L 150.425115 241.292855 
L 150.667154 241.292855 
L 150.667154 240.789352 
L 150.906118 240.789352 
L 150.906118 240.663476 
L 151.142085 240.663476 
L 151.142085 240.411724 
L 151.375128 240.411724 
L 151.375128 240.034097 
L 151.832729 240.034097 
L 151.832729 239.656469 
L 152.057422 239.656469 
L 152.057422 239.530593 
L 152.498913 239.530593 
L 152.498913 239.278841 
L 152.930279 239.278841 
L 152.930279 239.02709 
L 153.142309 239.02709 
L 153.142309 238.901214 
L 153.351976 238.901214 
L 153.351976 238.39771 
L 153.967309 238.39771 
L 153.967309 238.271834 
L 154.168026 238.271834 
L 154.168026 238.145959 
L 154.366625 238.145959 
L 154.366625 237.894207 
L 154.563149 237.894207 
L 154.563149 237.516579 
L 154.950144 237.516579 
L 154.950144 237.264828 
L 155.329337 237.264828 
L 155.329337 236.509572 
L 155.516105 236.509572 
L 155.516105 235.880193 
L 155.884169 235.880193 
L 155.884169 235.628441 
L 156.065535 235.628441 
L 156.065535 234.873186 
L 156.245169 234.873186 
L 156.245169 234.621434 
L 156.423104 234.621434 
L 156.423104 233.740303 
L 156.774003 233.740303 
L 156.774003 233.362676 
L 157.118477 233.362676 
L 157.118477 233.110924 
L 157.288377 233.110924 
L 157.288377 232.859172 
L 157.456756 232.859172 
L 157.456756 231.852166 
L 157.789059 231.852166 
L 157.789059 231.474538 
L 157.953034 231.474538 
L 157.953034 231.09691 
L 158.436556 231.09691 
L 158.436556 230.719283 
L 158.595008 230.719283 
L 158.595008 230.593407 
L 158.752135 230.593407 
L 158.752135 230.341655 
L 159.062507 230.341655 
L 159.062507 230.089903 
L 159.518669 230.089903 
L 159.518669 229.964028 
L 159.668298 229.964028 
L 159.668298 229.712276 
L 159.964032 229.712276 
L 159.964032 229.208772 
L 160.110173 229.208772 
L 160.110173 228.579393 
L 160.255188 228.579393 
L 160.255188 227.698262 
L 160.399093 227.698262 
L 160.399093 227.194759 
L 160.541906 227.194759 
L 160.541906 226.943007 
L 160.82432 226.943007 
L 160.82432 226.817131 
L 160.963953 226.817131 
L 160.963953 226.691255 
L 161.102557 226.691255 
L 161.102557 226.439503 
L 161.512345 226.439503 
L 161.512345 226.187752 
L 161.646981 226.187752 
L 161.646981 226.061876 
L 161.78066 226.061876 
L 161.78066 225.936 
L 161.913396 225.936 
L 161.913396 225.558372 
L 162.045202 225.558372 
L 162.045202 225.180745 
L 162.17609 225.180745 
L 162.17609 225.054869 
L 162.817213 225.054869 
L 162.817213 224.928993 
L 162.942856 224.928993 
L 162.942856 224.551366 
L 163.067666 224.551366 
L 163.067666 224.047862 
L 163.191653 224.047862 
L 163.191653 223.921986 
L 163.314829 223.921986 
L 163.314829 223.670234 
L 163.437203 223.670234 
L 163.437203 223.544359 
L 164.037409 223.544359 
L 164.037409 223.166731 
L 164.155187 223.166731 
L 164.155187 222.914979 
L 164.272231 222.914979 
L 164.272231 222.789103 
L 164.388551 222.789103 
L 164.388551 222.2856 
L 164.504157 222.2856 
L 164.504157 221.907972 
L 164.959603 221.907972 
L 164.959603 221.530345 
L 165.071763 221.530345 
L 165.071763 221.278593 
L 165.183257 221.278593 
L 165.294095 220.649214 
L 165.404283 220.649214 
L 165.51383 220.397462 
L 165.622743 220.397462 
L 165.731028 219.642207 
L 165.945747 219.642207 
L 166.052194 219.138703 
L 166.158043 219.138703 
L 166.263299 218.509324 
L 166.47206 218.509324 
L 166.575579 217.879945 
L 166.678531 217.879945 
L 166.780922 216.747062 
L 166.882759 216.747062 
L 166.984048 216.369434 
L 167.284683 216.369434 
L 167.284683 216.117683 
L 167.48247 216.117683 
L 167.580589 215.488303 
L 167.678199 215.488303 
L 167.678199 214.9848 
L 167.968026 214.9848 
L 167.968026 214.733048 
L 168.347644 214.733048 
L 168.441364 214.355421 
L 168.627414 214.355421 
L 168.719753 213.851917 
L 168.903083 213.851917 
L 168.903083 213.348414 
L 169.084644 213.348414 
L 169.174771 212.970786 
L 169.264469 212.970786 
L 169.353741 212.341407 
L 169.793854 212.341407 
L 169.880655 211.837903 
L 169.967056 211.837903 
L 170.053063 211.3344 
L 170.138678 211.3344 
L 170.138678 210.956772 
L 170.477296 210.956772 
L 170.477296 210.579145 
L 170.644345 210.579145 
L 170.644345 210.327393 
L 170.809925 210.327393 
L 170.892171 209.698014 
L 171.298095 209.698014 
L 171.378239 209.19451 
L 171.537509 209.19451 
L 171.616642 208.187503 
L 171.695443 208.187503 
L 171.695443 208.061628 
L 172.084572 208.061628 
L 172.084572 207.935752 
L 172.237998 207.935752 
L 172.237998 207.684 
L 172.465815 207.684 
L 172.465815 207.558124 
L 172.616174 207.558124 
L 172.616174 207.432248 
L 172.765341 207.432248 
L 172.765341 207.180497 
L 172.913335 207.180497 
L 172.986898 206.802869 
L 173.133165 206.802869 
L 173.205875 206.425241 
L 173.422332 206.425241 
L 173.422332 205.54411 
L 173.77765 205.54411 
L 173.77765 205.418234 
L 173.987664 205.418234 
L 173.987664 205.166483 
L 174.126381 205.166483 
L 174.195358 204.411228 
L 174.468765 204.411228 
L 174.5365 204.159476 
L 174.603992 204.159476 
L 174.603992 204.0336 
L 174.937868 204.0336 
L 175.003938 203.404221 
L 175.135386 203.404221 
L 175.200767 203.026593 
L 175.265921 203.026593 
L 175.265921 202.900717 
L 175.395557 202.900717 
L 175.395557 202.774841 
L 175.65218 202.774841 
L 175.715792 202.397214 
L 176.155155 202.397214 
L 176.155155 202.145462 
L 176.278825 202.145462 
L 176.278825 201.516083 
L 176.462819 201.516083 
L 176.462819 201.012579 
L 176.645031 201.012579 
L 176.645031 200.886703 
L 176.94485 200.886703 
L 177.004244 200.634952 
L 177.063452 200.634952 
L 177.122474 200.257324 
L 177.239965 200.257324 
L 177.239965 200.005572 
L 177.356727 200.005572 
L 177.414837 199.627945 
L 177.530521 199.627945 
L 177.588098 199.124441 
L 177.645499 199.124441 
L 177.702725 198.620938 
L 178.042475 198.620938 
L 178.098508 197.991559 
L 178.320986 197.991559 
L 178.320986 197.865683 
L 178.540864 197.865683 
L 178.540864 197.488055 
L 178.704102 197.488055 
L 178.704102 197.362179 
L 179.132603 197.362179 
L 179.132603 197.110428 
L 179.290807 197.110428 
L 179.290807 196.858676 
L 179.499697 196.858676 
L 179.603279 196.606924 
L 179.654857 196.606924 
L 179.654857 196.481048 
L 179.808747 196.481048 
L 179.859766 196.229297 
L 180.163003 196.229297 
L 180.213071 195.851669 
L 180.312808 195.851669 
L 180.41202 195.22229 
L 180.510711 195.22229 
L 180.559863 194.844662 
L 180.755196 194.844662 
L 180.803715 194.341159 
L 180.948523 194.341159 
L 180.948523 194.215283 
L 181.092225 194.215283 
L 181.092225 194.089407 
L 181.234837 194.089407 
L 181.234837 193.963531 
L 181.423321 193.963531 
L 181.516859 193.585903 
L 181.563454 193.585903 
L 181.609934 193.334152 
L 181.74869 193.334152 
L 181.74869 193.0824 
L 181.932119 193.0824 
L 181.932119 192.956524 
L 182.158919 192.956524 
L 182.248879 192.453021 
L 182.866832 192.453021 
L 182.866832 192.201269 
L 183.211043 192.201269 
L 183.211043 192.075393 
L 183.46513 192.075393 
L 183.46513 191.949517 
L 183.590898 191.949517 
L 183.590898 191.697766 
L 183.839939 191.697766 
L 183.922225 190.94251 
L 184.247818 190.94251 
L 184.247818 190.690759 
L 184.368477 190.690759 
L 184.368477 190.564883 
L 184.567871 190.564883 
L 184.567871 190.439007 
L 184.999237 190.439007 
L 184.999237 190.187255 
L 185.115186 190.187255 
L 185.115186 190.061379 
L 185.344961 190.061379 
L 185.344961 189.935503 
L 185.458805 189.935503 
L 185.458805 189.809628 
L 185.571964 189.809628 
L 185.571964 189.557876 
L 185.833384 189.557876 
L 185.907413 189.054372 
L 186.017913 189.054372 
L 186.054602 188.802621 
L 186.309445 188.802621 
L 186.381628 188.550869 
L 186.984247 188.550869 
L 186.984247 188.299117 
L 187.157876 188.299117 
L 187.226881 187.92149 
L 187.364137 187.92149 
L 187.398295 187.543862 
L 187.669348 187.543862 
L 187.669348 187.417986 
L 187.903358 187.417986 
L 187.903358 187.29211 
L 188.167281 187.29211 
L 188.232688 186.914483 
L 188.395215 186.914483 
L 188.395215 186.788607 
L 189.000323 186.788607 
L 189.000323 186.662731 
L 189.495211 186.662731 
L 189.495211 186.536855 
L 189.616925 186.536855 
L 189.616925 186.410979 
L 189.767969 186.410979 
L 189.767969 186.285103 
L 190.3019 186.285103 
L 190.3019 186.159228 
L 190.592108 186.159228 
L 190.678304 185.655724 
L 190.792622 185.655724 
L 190.792622 185.529848 
L 192.139387 185.529848 
L 192.139387 185.403972 
L 192.428913 185.403972 
L 192.428913 185.152221 
L 192.918743 185.152221 
L 192.918743 185.026345 
L 193.070813 185.026345 
L 193.070813 184.900469 
L 193.27168 184.900469 
L 193.321563 184.396966 
L 193.593582 184.396966 
L 193.593582 184.27109 
L 193.934194 184.27109 
L 193.934194 184.019338 
L 194.31606 184.019338 
L 194.31606 183.893462 
L 195.944565 183.893462 
L 196.031033 183.389959 
L 196.915729 183.389959 
L 196.915729 183.264083 
L 199.914572 183.264083 
L 199.914572 183.012331 
L 200.7384 183.012331 
L 200.7384 182.886455 
L 201.846987 182.886455 
L 201.910208 182.634703 
L 203.352444 182.634703 
L 203.352444 182.508828 
L 203.82863 182.508828 
L 203.82863 182.382952 
L 204.431561 182.382952 
L 204.431561 182.1312 
L 205.827399 182.1312 
L 205.827399 181.879448 
L 206.308079 181.879448 
L 206.308079 181.753572 
L 208.116648 181.753572 
L 208.116648 181.627697 
L 208.308522 181.627697 
L 208.308522 181.501821 
L 209.420393 181.501821 
L 209.420393 181.375945 
L 210.126731 181.375945 
L 210.126731 181.250069 
L 360.8064 181.250069 
L 360.8064 181.250069 
" style="fill: none; stroke: #ff00ff; stroke-width: 1.5; stroke-linecap: square"/>
   </g>
   <g id="line2d_41">
    <defs>
     <path id="m5f437fa63b" d="M -0 8.485281 
L 5.091169 0 
L 0 -8.485281 
L -5.091169 -0 
z
" style="stroke: #ff00ff; stroke-width: 1.5; stroke-linejoin: miter"/>
    </defs>
    <g>
     <use xlink:href="#m5f437fa63b" x="114.141556" y="278.929738" style="fill-opacity: 0; stroke: #ff00ff; stroke-width: 1.5; stroke-linejoin: miter"/>
     <use xlink:href="#m5f437fa63b" x="170.892171" y="209.698014" style="fill-opacity: 0; stroke: #ff00ff; stroke-width: 1.5; stroke-linejoin: miter"/>
     <use xlink:href="#m5f437fa63b" x="210.126731" y="181.375945" style="fill-opacity: 0; stroke: #ff00ff; stroke-width: 1.5; stroke-linejoin: miter"/>
     <use xlink:href="#m5f437fa63b" x="210.126731" y="181.250069" style="fill-opacity: 0; stroke: #ff00ff; stroke-width: 1.5; stroke-linejoin: miter"/>
     <use xlink:href="#m5f437fa63b" x="210.126731" y="181.250069" style="fill-opacity: 0; stroke: #ff00ff; stroke-width: 1.5; stroke-linejoin: miter"/>
     <use xlink:href="#m5f437fa63b" x="360.8064" y="181.250069" style="fill-opacity: 0; stroke: #ff00ff; stroke-width: 1.5; stroke-linejoin: miter"/>
    </g>
   </g>
   <g id="line2d_42">
    <path style="fill: none; stroke: #ff00ff; stroke-width: 1.5; stroke-linecap: square"/>
    <g/>
   </g>
   <g id="line2d_43">
    <path d="M 230.859295 181.250069 
" clip-path="url(#p1d81c683be)" style="fill: none; stroke: #ff00ff; stroke-width: 1.5; stroke-linecap: square"/>
    <defs>
     <path id="mfa241e5602" d="M -12 12 
L 12 -12 
M -12 -12 
L 12 12 
" style="stroke: #ff00ff"/>
    </defs>
    <g clip-path="url(#p1d81c683be)">
     <use xlink:href="#mfa241e5602" x="230.859295" y="181.250069" style="fill: #ff00ff; stroke: #ff00ff"/>
    </g>
   </g>
   <g id="line2d_44">
    <path d="M 360.8064 181.250069 
L 380.514816 293.10336 
" style="fill: none; stroke: #ff00ff; stroke-width: 1.5; stroke-linecap: square"/>
    <g>
     <use xlink:href="#m5f437fa63b" x="360.8064" y="181.250069" style="fill-opacity: 0; stroke: #ff00ff; stroke-width: 1.5; stroke-linejoin: miter"/>
     <use xlink:href="#m5f437fa63b" x="380.514816" y="293.10336" style="fill-opacity: 0; stroke: #ff00ff; stroke-width: 1.5; stroke-linejoin: miter"/>
    </g>
   </g>
   <g id="line2d_45">
    <path d="M 360.8064 178.354924 
L 380.514816 152.928 
" style="fill: none; stroke: #000080; stroke-width: 1.5; stroke-linecap: square"/>
    <g>
     <use xlink:href="#m40e2af4528" x="360.8064" y="178.354924" style="fill-opacity: 0; stroke: #000080; stroke-width: 1.5"/>
     <use xlink:href="#m40e2af4528" x="380.514816" y="152.928" style="fill-opacity: 0; stroke: #000080; stroke-width: 1.5"/>
    </g>
   </g>
   <g id="line2d_46">
    <path d="M 360.8064 298.944 
L 360.8064 6.912 
" style="fill: none; stroke: #000000; stroke-width: 1.5; stroke-linecap: square"/>
   </g>
   <g id="patch_3">
    <path d="M 57.6 298.944 
L 360.8064 298.944 
" style="fill: none; stroke: #000000; stroke-width: 0.8; stroke-linejoin: miter; stroke-linecap: square"/>
   </g>
   <g id="patch_4">
    <path d="M 57.6 6.912 
L 360.8064 6.912 
" style="fill: none; stroke: #000000; stroke-width: 0.8; stroke-linejoin: miter; stroke-linecap: square"/>
   </g>
   <g id="text_13">
    <!-- kerComo -->
    <g transform="translate(386.578944 296.966485) scale(0.14 -0.14)">
     <defs>
      <path id="DejaVuSans-6b" d="M 581 4863 
L 1159 4863 
L 1159 1991 
L 2875 3500 
L 3609 3500 
L 1753 1863 
L 3688 0 
L 2938 0 
L 1159 1709 
L 1159 0 
L 581 0 
L 581 4863 
z
" transform="scale(0.015625)"/>
      <path id="DejaVuSans-43" d="M 4122 4306 
L 4122 3641 
Q 3803 3938 3442 4084 
Q 3081 4231 2675 4231 
Q 1875 4231 1450 3742 
Q 1025 3253 1025 2328 
Q 1025 1406 1450 917 
Q 1875 428 2675 428 
Q 3081 428 3442 575 
Q 3803 722 4122 1019 
L 4122 359 
Q 3791 134 3420 21 
Q 3050 -91 2638 -91 
Q 1578 -91 968 557 
Q 359 1206 359 2328 
Q 359 3453 968 4101 
Q 1578 4750 2638 4750 
Q 3056 4750 3426 4639 
Q 3797 4528 4122 4306 
z
" transform="scale(0.015625)"/>
     </defs>
     <use xlink:href="#DejaVuSans-6b"/>
     <use xlink:href="#DejaVuSans-65" x="54.285156"/>
     <use xlink:href="#DejaVuSans-72" x="115.808594"/>
     <use xlink:href="#DejaVuSans-43" x="156.921875"/>
     <use xlink:href="#DejaVuSans-6f" x="226.746094"/>
     <use xlink:href="#DejaVuSans-6d" x="287.927734"/>
     <use xlink:href="#DejaVuSans-6f" x="385.339844"/>
    </g>
   </g>
   <g id="text_14">
    <!-- kerLQ -->
    <g transform="translate(386.578944 156.791125) scale(0.14 -0.14)">
     <defs>
      <path id="DejaVuSans-4c" d="M 628 4666 
L 1259 4666 
L 1259 531 
L 3531 531 
L 3531 0 
L 628 0 
L 628 4666 
z
" transform="scale(0.015625)"/>
      <path id="DejaVuSans-51" d="M 2522 4238 
Q 1834 4238 1429 3725 
Q 1025 3213 1025 2328 
Q 1025 1447 1429 934 
Q 1834 422 2522 422 
Q 3209 422 3611 934 
Q 4013 1447 4013 2328 
Q 4013 3213 3611 3725 
Q 3209 4238 2522 4238 
z
M 3406 84 
L 4238 -825 
L 3475 -825 
L 2784 -78 
Q 2681 -84 2626 -87 
Q 2572 -91 2522 -91 
Q 1538 -91 948 567 
Q 359 1225 359 2328 
Q 359 3434 948 4092 
Q 1538 4750 2522 4750 
Q 3503 4750 4090 4092 
Q 4678 3434 4678 2328 
Q 4678 1516 4351 937 
Q 4025 359 3406 84 
z
" transform="scale(0.015625)"/>
     </defs>
     <use xlink:href="#DejaVuSans-6b"/>
     <use xlink:href="#DejaVuSans-65" x="54.285156"/>
     <use xlink:href="#DejaVuSans-72" x="115.808594"/>
     <use xlink:href="#DejaVuSans-4c" x="156.921875"/>
     <use xlink:href="#DejaVuSans-51" x="212.634766"/>
    </g>
   </g>
   <g id="text_15">
    <!-- best 2016 -->
    <g transform="translate(386.578944 16.615765) scale(0.14 -0.14)">
     <defs>
      <path id="DejaVuSans-62" d="M 3116 1747 
Q 3116 2381 2855 2742 
Q 2594 3103 2138 3103 
Q 1681 3103 1420 2742 
Q 1159 2381 1159 1747 
Q 1159 1113 1420 752 
Q 1681 391 2138 391 
Q 2594 391 2855 752 
Q 3116 1113 3116 1747 
z
M 1159 2969 
Q 1341 3281 1617 3432 
Q 1894 3584 2278 3584 
Q 2916 3584 3314 3078 
Q 3713 2572 3713 1747 
Q 3713 922 3314 415 
Q 2916 -91 2278 -91 
Q 1894 -91 1617 61 
Q 1341 213 1159 525 
L 1159 0 
L 581 0 
L 581 4863 
L 1159 4863 
L 1159 2969 
z
" transform="scale(0.015625)"/>
     </defs>
     <use xlink:href="#DejaVuSans-62"/>
     <use xlink:href="#DejaVuSans-65" x="63.476562"/>
     <use xlink:href="#DejaVuSans-73" x="125"/>
     <use xlink:href="#DejaVuSans-74" x="177.099609"/>
     <use xlink:href="#DejaVuSans-20" x="216.308594"/>
     <use xlink:href="#DejaVuSans-32" x="248.095703"/>
     <use xlink:href="#DejaVuSans-30" x="311.71875"/>
     <use xlink:href="#DejaVuSans-31" x="375.341797"/>
     <use xlink:href="#DejaVuSans-36" x="438.964844"/>
    </g>
   </g>
   <g id="text_16">
    <!-- bbob-biobj f9, f10, f18, f19, 5-D -->
    <g transform="translate(60.632064 17.582726) scale(0.102 -0.102)">
     <defs>
      <path id="DejaVuSans-6a" d="M 603 3500 
L 1178 3500 
L 1178 -63 
Q 1178 -731 923 -1031 
Q 669 -1331 103 -1331 
L -116 -1331 
L -116 -844 
L 38 -844 
Q 366 -844 484 -692 
Q 603 -541 603 -63 
L 603 3500 
z
M 603 4863 
L 1178 4863 
L 1178 4134 
L 603 4134 
L 603 4863 
z
" transform="scale(0.015625)"/>
      <path id="DejaVuSans-39" d="M 703 97 
L 703 672 
Q 941 559 1184 500 
Q 1428 441 1663 441 
Q 2288 441 2617 861 
Q 2947 1281 2994 2138 
Q 2813 1869 2534 1725 
Q 2256 1581 1919 1581 
Q 1219 1581 811 2004 
Q 403 2428 403 3163 
Q 403 3881 828 4315 
Q 1253 4750 1959 4750 
Q 2769 4750 3195 4129 
Q 3622 3509 3622 2328 
Q 3622 1225 3098 567 
Q 2575 -91 1691 -91 
Q 1453 -91 1209 -44 
Q 966 3 703 97 
z
M 1959 2075 
Q 2384 2075 2632 2365 
Q 2881 2656 2881 3163 
Q 2881 3666 2632 3958 
Q 2384 4250 1959 4250 
Q 1534 4250 1286 3958 
Q 1038 3666 1038 3163 
Q 1038 2656 1286 2365 
Q 1534 2075 1959 2075 
z
" transform="scale(0.015625)"/>
      <path id="DejaVuSans-35" d="M 691 4666 
L 3169 4666 
L 3169 4134 
L 1269 4134 
L 1269 2991 
Q 1406 3038 1543 3061 
Q 1681 3084 1819 3084 
Q 2600 3084 3056 2656 
Q 3513 2228 3513 1497 
Q 3513 744 3044 326 
Q 2575 -91 1722 -91 
Q 1428 -91 1123 -41 
Q 819 9 494 109 
L 494 744 
Q 775 591 1075 516 
Q 1375 441 1709 441 
Q 2250 441 2565 725 
Q 2881 1009 2881 1497 
Q 2881 1984 2565 2268 
Q 2250 2553 1709 2553 
Q 1456 2553 1204 2497 
Q 953 2441 691 2322 
L 691 4666 
z
" transform="scale(0.015625)"/>
      <path id="DejaVuSans-44" d="M 1259 4147 
L 1259 519 
L 2022 519 
Q 2988 519 3436 956 
Q 3884 1394 3884 2338 
Q 3884 3275 3436 3711 
Q 2988 4147 2022 4147 
L 1259 4147 
z
M 628 4666 
L 1925 4666 
Q 3281 4666 3915 4102 
Q 4550 3538 4550 2338 
Q 4550 1131 3912 565 
Q 3275 0 1925 0 
L 628 0 
L 628 4666 
z
" transform="scale(0.015625)"/>
     </defs>
     <use xlink:href="#DejaVuSans-62"/>
     <use xlink:href="#DejaVuSans-62" x="63.476562"/>
     <use xlink:href="#DejaVuSans-6f" x="126.953125"/>
     <use xlink:href="#DejaVuSans-62" x="188.134766"/>
     <use xlink:href="#DejaVuSans-2d" x="251.611328"/>
     <use xlink:href="#DejaVuSans-62" x="287.695312"/>
     <use xlink:href="#DejaVuSans-69" x="351.171875"/>
     <use xlink:href="#DejaVuSans-6f" x="378.955078"/>
     <use xlink:href="#DejaVuSans-62" x="440.136719"/>
     <use xlink:href="#DejaVuSans-6a" x="503.613281"/>
     <use xlink:href="#DejaVuSans-20" x="531.396484"/>
     <use xlink:href="#DejaVuSans-66" x="563.183594"/>
     <use xlink:href="#DejaVuSans-39" x="598.388672"/>
     <use xlink:href="#DejaVuSans-2c" x="662.011719"/>
     <use xlink:href="#DejaVuSans-20" x="693.798828"/>
     <use xlink:href="#DejaVuSans-66" x="725.585938"/>
     <use xlink:href="#DejaVuSans-31" x="760.791016"/>
     <use xlink:href="#DejaVuSans-30" x="824.414062"/>
     <use xlink:href="#DejaVuSans-2c" x="888.037109"/>
     <use xlink:href="#DejaVuSans-20" x="919.824219"/>
     <use xlink:href="#DejaVuSans-66" x="951.611328"/>
     <use xlink:href="#DejaVuSans-31" x="986.816406"/>
     <use xlink:href="#DejaVuSans-38" x="1050.439453"/>
     <use xlink:href="#DejaVuSans-2c" x="1114.0625"/>
     <use xlink:href="#DejaVuSans-20" x="1145.849609"/>
     <use xlink:href="#DejaVuSans-66" x="1177.636719"/>
     <use xlink:href="#DejaVuSans-31" x="1212.841797"/>
     <use xlink:href="#DejaVuSans-39" x="1276.464844"/>
     <use xlink:href="#DejaVuSans-2c" x="1340.087891"/>
     <use xlink:href="#DejaVuSans-20" x="1371.875"/>
     <use xlink:href="#DejaVuSans-35" x="1403.662109"/>
     <use xlink:href="#DejaVuSans-2d" x="1467.285156"/>
     <use xlink:href="#DejaVuSans-44" x="1503.369141"/>
    </g>
    <!-- 58 targets: 1..-1.0e-4 -->
    <g transform="translate(60.632064 29.004495) scale(0.102 -0.102)">
     <defs>
      <path id="DejaVuSans-3a" d="M 750 794 
L 1409 794 
L 1409 0 
L 750 0 
L 750 794 
z
M 750 3309 
L 1409 3309 
L 1409 2516 
L 750 2516 
L 750 3309 
z
" transform="scale(0.015625)"/>
     </defs>
     <use xlink:href="#DejaVuSans-35"/>
     <use xlink:href="#DejaVuSans-38" x="63.623047"/>
     <use xlink:href="#DejaVuSans-20" x="127.246094"/>
     <use xlink:href="#DejaVuSans-74" x="159.033203"/>
     <use xlink:href="#DejaVuSans-61" x="198.242188"/>
     <use xlink:href="#DejaVuSans-72" x="259.521484"/>
     <use xlink:href="#DejaVuSans-67" x="298.884766"/>
     <use xlink:href="#DejaVuSans-65" x="362.361328"/>
     <use xlink:href="#DejaVuSans-74" x="423.884766"/>
     <use xlink:href="#DejaVuSans-73" x="463.09375"/>
     <use xlink:href="#DejaVuSans-3a" x="515.193359"/>
     <use xlink:href="#DejaVuSans-20" x="548.884766"/>
     <use xlink:href="#DejaVuSans-31" x="580.671875"/>
     <use xlink:href="#DejaVuSans-2e" x="644.294922"/>
     <use xlink:href="#DejaVuSans-2e" x="676.082031"/>
     <use xlink:href="#DejaVuSans-2d" x="707.869141"/>
     <use xlink:href="#DejaVuSans-31" x="743.953125"/>
     <use xlink:href="#DejaVuSans-2e" x="807.576172"/>
     <use xlink:href="#DejaVuSans-30" x="839.363281"/>
     <use xlink:href="#DejaVuSans-65" x="902.986328"/>
     <use xlink:href="#DejaVuSans-2d" x="964.509766"/>
     <use xlink:href="#DejaVuSans-34" x="1000.59375"/>
    </g>
    <!-- 10 instances -->
    <g transform="translate(60.632064 40.426264) scale(0.102 -0.102)">
     <use xlink:href="#DejaVuSans-31"/>
     <use xlink:href="#DejaVuSans-30" x="63.623047"/>
     <use xlink:href="#DejaVuSans-20" x="127.246094"/>
     <use xlink:href="#DejaVuSans-69" x="159.033203"/>
     <use xlink:href="#DejaVuSans-6e" x="186.816406"/>
     <use xlink:href="#DejaVuSans-73" x="250.195312"/>
     <use xlink:href="#DejaVuSans-74" x="302.294922"/>
     <use xlink:href="#DejaVuSans-61" x="341.503906"/>
     <use xlink:href="#DejaVuSans-6e" x="402.783203"/>
     <use xlink:href="#DejaVuSans-63" x="466.162109"/>
     <use xlink:href="#DejaVuSans-65" x="521.142578"/>
     <use xlink:href="#DejaVuSans-73" x="582.666016"/>
    </g>
   </g>
   <g id="text_17">
    <!-- v2.6, hv-hash=ff0e71e8cd978373 -->
    <g style="fill: #808080" transform="translate(123.707887 293.943992) scale(0.1 -0.1)">
     <defs>
      <path id="DejaVuSans-68" d="M 3513 2113 
L 3513 0 
L 2938 0 
L 2938 2094 
Q 2938 2591 2744 2837 
Q 2550 3084 2163 3084 
Q 1697 3084 1428 2787 
Q 1159 2491 1159 1978 
L 1159 0 
L 581 0 
L 581 4863 
L 1159 4863 
L 1159 2956 
Q 1366 3272 1645 3428 
Q 1925 3584 2291 3584 
Q 2894 3584 3203 3211 
Q 3513 2838 3513 2113 
z
" transform="scale(0.015625)"/>
      <path id="DejaVuSans-3d" d="M 678 2906 
L 4684 2906 
L 4684 2381 
L 678 2381 
L 678 2906 
z
M 678 1631 
L 4684 1631 
L 4684 1100 
L 678 1100 
L 678 1631 
z
" transform="scale(0.015625)"/>
      <path id="DejaVuSans-37" d="M 525 4666 
L 3525 4666 
L 3525 4397 
L 1831 0 
L 1172 0 
L 2766 4134 
L 525 4134 
L 525 4666 
z
" transform="scale(0.015625)"/>
      <path id="DejaVuSans-33" d="M 2597 2516 
Q 3050 2419 3304 2112 
Q 3559 1806 3559 1356 
Q 3559 666 3084 287 
Q 2609 -91 1734 -91 
Q 1441 -91 1130 -33 
Q 819 25 488 141 
L 488 750 
Q 750 597 1062 519 
Q 1375 441 1716 441 
Q 2309 441 2620 675 
Q 2931 909 2931 1356 
Q 2931 1769 2642 2001 
Q 2353 2234 1838 2234 
L 1294 2234 
L 1294 2753 
L 1863 2753 
Q 2328 2753 2575 2939 
Q 2822 3125 2822 3475 
Q 2822 3834 2567 4026 
Q 2313 4219 1838 4219 
Q 1578 4219 1281 4162 
Q 984 4106 628 3988 
L 628 4550 
Q 988 4650 1302 4700 
Q 1616 4750 1894 4750 
Q 2613 4750 3031 4423 
Q 3450 4097 3450 3541 
Q 3450 3153 3228 2886 
Q 3006 2619 2597 2516 
z
" transform="scale(0.015625)"/>
     </defs>
     <use xlink:href="#DejaVuSans-76"/>
     <use xlink:href="#DejaVuSans-32" x="59.179688"/>
     <use xlink:href="#DejaVuSans-2e" x="122.802734"/>
     <use xlink:href="#DejaVuSans-36" x="154.589844"/>
     <use xlink:href="#DejaVuSans-2c" x="218.212891"/>
     <use xlink:href="#DejaVuSans-20" x="250"/>
     <use xlink:href="#DejaVuSans-68" x="281.787109"/>
     <use xlink:href="#DejaVuSans-76" x="345.166016"/>
     <use xlink:href="#DejaVuSans-2d" x="401.720703"/>
     <use xlink:href="#DejaVuSans-68" x="437.804688"/>
     <use xlink:href="#DejaVuSans-61" x="501.183594"/>
     <use xlink:href="#DejaVuSans-73" x="562.462891"/>
     <use xlink:href="#DejaVuSans-68" x="614.5625"/>
     <use xlink:href="#DejaVuSans-3d" x="677.941406"/>
     <use xlink:href="#DejaVuSans-66" x="761.730469"/>
     <use xlink:href="#DejaVuSans-66" x="796.935547"/>
     <use xlink:href="#DejaVuSans-30" x="832.140625"/>
     <use xlink:href="#DejaVuSans-65" x="895.763672"/>
     <use xlink:href="#DejaVuSans-37" x="957.287109"/>
     <use xlink:href="#DejaVuSans-31" x="1020.910156"/>
     <use xlink:href="#DejaVuSans-65" x="1084.533203"/>
     <use xlink:href="#DejaVuSans-38" x="1146.056641"/>
     <use xlink:href="#DejaVuSans-63" x="1209.679688"/>
     <use xlink:href="#DejaVuSans-64" x="1264.660156"/>
     <use xlink:href="#DejaVuSans-39" x="1328.136719"/>
     <use xlink:href="#DejaVuSans-37" x="1391.759766"/>
     <use xlink:href="#DejaVuSans-38" x="1455.382812"/>
     <use xlink:href="#DejaVuSans-33" x="1519.005859"/>
     <use xlink:href="#DejaVuSans-37" x="1582.628906"/>
     <use xlink:href="#DejaVuSans-33" x="1646.251953"/>
    </g>
   </g>
  </g>
 </g>
 <defs>
  <clipPath id="p1d81c683be">
   <rect x="57.6" y="6.912" width="303.2064" height="292.032"/>
  </clipPath>
 </defs>
</svg>
