<?xml version="1.0" encoding="utf-8" standalone="no"?>
<!DOCTYPE svg PUBLIC "-//W3C//DTD SVG 1.1//EN"
  "http://www.w3.org/Graphics/SVG/1.1/DTD/svg11.dtd">
<svg xmlns:xlink="http://www.w3.org/1999/xlink" width="460.8pt" height="345.6pt" viewBox="0 0 460.8 345.6" xmlns="http://www.w3.org/2000/svg" version="1.1">
 <metadata>
  <rdf:RDF xmlns:dc="http://purl.org/dc/elements/1.1/" xmlns:cc="http://creativecommons.org/ns#" xmlns:rdf="http://www.w3.org/1999/02/22-rdf-syntax-ns#">
   <cc:Work>
    <dc:type rdf:resource="http://purl.org/dc/dcmitype/StillImage"/>
    <dc:date>2023-02-13T14:59:42.572755</dc:date>
    <dc:format>image/svg+xml</dc:format>
    <dc:creator>
     <cc:Agent>
      <dc:title>Matplotlib v3.6.3, https://matplotlib.org/</dc:title>
     </cc:Agent>
    </dc:creator>
   </cc:Work>
  </rdf:RDF>
 </metadata>
 <defs>
  <style type="text/css">*{stroke-linejoin: round; stroke-linecap: butt}</style>
 </defs>
 <g id="figure_1">
  <g id="patch_1">
   <path d="M 0 345.6 
L 460.8 345.6 
L 460.8 0 
L 0 0 
z
" style="fill: #ffffff"/>
  </g>
  <g id="axes_1">
   <g id="patch_2">
    <path d="M 57.6 298.944 
L 360.8064 298.944 
L 360.8064 6.912 
L 57.6 6.912 
z
" style="fill: #ffffff"/>
   </g>
   <g id="line2d_1">
    <path d="M 57.6 298.944 
L 57.6 290.552276 
L 70.639174 290.552276 
L 70.639174 287.195586 
L 89.668958 287.195586 
L 89.668958 283.838897 
L 97.857967 283.838897 
L 97.857967 280.482207 
L 100.9152 280.482207 
L 100.9152 278.803862 
L 107.904887 278.803862 
L 107.904887 275.447172 
L 110.897141 275.447172 
L 110.897141 272.090483 
L 120.944062 272.090483 
L 120.944062 270.412138 
L 131.929028 270.412138 
L 131.929028 268.733793 
L 134.931919 268.733793 
L 134.931919 263.698759 
L 137.787626 263.698759 
L 137.787626 258.663724 
L 146.859539 258.663724 
L 146.859539 255.307034 
L 147.660152 255.307034 
L 147.660152 251.950345 
L 148.652472 251.950345 
L 148.652472 246.91531 
L 153.764426 246.91531 
L 153.764426 245.236966 
L 154.212341 245.236966 
L 154.212341 241.880276 
L 155.954908 241.880276 
L 155.954908 240.201931 
L 156.648044 240.201931 
L 156.648044 238.523586 
L 159.062507 238.523586 
L 159.062507 235.166897 
L 159.527013 235.166897 
L 159.527013 231.810207 
L 162.349204 231.810207 
L 162.349204 226.775172 
L 162.492258 226.775172 
L 162.527853 220.061793 
L 162.915008 220.061793 
L 162.984551 211.670069 
L 163.260183 211.670069 
L 163.260183 209.991724 
L 164.063646 209.991724 
L 164.063646 204.95669 
L 164.70794 204.95669 
L 164.70794 203.278345 
L 166.460523 203.278345 
L 166.460523 199.921655 
L 166.632844 199.921655 
L 166.718416 191.529931 
L 169.735764 191.529931 
L 169.735764 188.173241 
L 170.704306 188.173241 
L 170.704306 184.816552 
L 172.015979 184.816552 
L 172.015979 183.138207 
L 174.393216 183.138207 
L 174.393216 178.103172 
L 175.135386 178.103172 
L 175.135386 174.746483 
L 176.093013 174.746483 
L 176.093013 169.711448 
L 178.643809 169.711448 
L 178.643809 166.354759 
L 179.194285 166.354759 
L 179.194285 164.676414 
L 179.941672 164.676414 
L 179.941672 159.641379 
L 180.483348 159.641379 
L 180.483348 157.963034 
L 184.410747 157.963034 
L 184.410747 154.606345 
L 186.679442 154.606345 
L 186.679442 149.57131 
L 187.403982 149.57131 
L 187.403982 146.214621 
L 188.337588 146.214621 
L 188.337588 144.536276 
L 189.685885 144.536276 
L 189.685885 142.857931 
L 190.722844 142.857931 
L 190.722844 137.822897 
L 193.801117 137.822897 
L 193.801117 132.787862 
L 197.862051 132.787862 
L 197.862051 131.109517 
L 202.492789 131.109517 
L 202.492789 126.074483 
L 202.666207 126.074483 
L 202.666207 122.717793 
L 207.822558 122.717793 
L 207.822558 119.361103 
L 209.853463 119.361103 
L 209.853463 116.004414 
L 216.789273 116.004414 
L 216.789273 114.326069 
L 216.986958 114.326069 
L 216.986958 110.969379 
L 230.03498 110.969379 
L 230.081114 104.256 
L 230.446172 104.256 
L 230.446172 99.220966 
L 230.563116 99.220966 
L 230.655579 95.864276 
L 230.858919 95.864276 
L 230.858919 90.829241 
L 237.79657 90.829241 
L 237.79657 87.472552 
L 242.477577 87.472552 
L 242.477577 85.794207 
L 242.954365 85.794207 
L 242.954365 80.759172 
L 243.36622 80.759172 
L 243.36622 77.402483 
L 245.010738 77.402483 
L 245.010738 74.045793 
L 247.251574 74.045793 
L 247.251574 70.689103 
L 249.479102 70.689103 
L 249.479102 67.332414 
L 249.614951 67.332414 
L 249.614951 65.654069 
L 249.875528 65.654069 
L 249.875528 63.975724 
L 254.359912 63.975724 
L 254.359912 60.619034 
L 255.029908 60.619034 
L 255.029908 57.262345 
L 256.406362 57.262345 
L 256.406362 52.22731 
L 258.981174 52.22731 
L 258.981174 47.192276 
L 259.993055 47.192276 
L 259.993055 42.157241 
L 360.8064 42.157241 
L 360.8064 42.157241 
" style="fill: none; stroke: #f5deb3; stroke-width: 4; stroke-linecap: square"/>
   </g>
   <g id="line2d_2">
    <defs>
     <path id="m2d94b2bfa9" d="M -0 7.778175 
L 7.778175 0 
L 0 -7.778175 
L -7.778175 -0 
z
" style="stroke: #f5deb3; stroke-width: 1.5; stroke-linejoin: miter"/>
    </defs>
    <g>
     <use xlink:href="#m2d94b2bfa9" x="159.527013" y="231.810207" style="fill: #f5deb3; stroke: #f5deb3; stroke-width: 1.5; stroke-linejoin: miter"/>
     <use xlink:href="#m2d94b2bfa9" x="197.862051" y="132.787862" style="fill: #f5deb3; stroke: #f5deb3; stroke-width: 1.5; stroke-linejoin: miter"/>
     <use xlink:href="#m2d94b2bfa9" x="259.993055" y="47.192276" style="fill: #f5deb3; stroke: #f5deb3; stroke-width: 1.5; stroke-linejoin: miter"/>
     <use xlink:href="#m2d94b2bfa9" x="259.993055" y="42.157241" style="fill: #f5deb3; stroke: #f5deb3; stroke-width: 1.5; stroke-linejoin: miter"/>
     <use xlink:href="#m2d94b2bfa9" x="360.8064" y="42.157241" style="fill: #f5deb3; stroke: #f5deb3; stroke-width: 1.5; stroke-linejoin: miter"/>
    </g>
   </g>
   <g id="line2d_3">
    <path style="fill: none; stroke: #f5deb3; stroke-width: 4; stroke-linecap: square"/>
    <g/>
   </g>
   <g id="line2d_4">
    <path d="M 360.8064 42.157241 
L 380.514816 12.75264 
" style="fill: none; stroke: #f5deb3; stroke-width: 4; stroke-linecap: square"/>
    <g>
     <use xlink:href="#m2d94b2bfa9" x="360.8064" y="42.157241" style="fill: #f5deb3; stroke: #f5deb3; stroke-width: 1.5; stroke-linejoin: miter"/>
     <use xlink:href="#m2d94b2bfa9" x="380.514816" y="12.75264" style="fill: #f5deb3; stroke: #f5deb3; stroke-width: 1.5; stroke-linejoin: miter"/>
    </g>
   </g>
   <g id="matplotlib.axis_1">
    <g id="xtick_1">
     <g id="line2d_5">
      <path d="M 57.6 298.944 
L 57.6 6.912 
" clip-path="url(#pa6a7819478)" style="fill: none; stroke: #b0b0b0; stroke-width: 0.8; stroke-linecap: square"/>
     </g>
     <g id="line2d_6">
      <defs>
       <path id="mc93b55e262" d="M 0 0 
L 0 3.5 
" style="stroke: #000000; stroke-width: 0.8"/>
      </defs>
      <g>
       <use xlink:href="#mc93b55e262" x="57.6" y="298.944" style="stroke: #000000; stroke-width: 0.8"/>
      </g>
     </g>
     <g id="text_1">
      <!-- 0 -->
      <g transform="translate(52.191875 318.861344) scale(0.17 -0.17)">
       <defs>
        <path id="DejaVuSans-30" d="M 2034 4250 
Q 1547 4250 1301 3770 
Q 1056 3291 1056 2328 
Q 1056 1369 1301 889 
Q 1547 409 2034 409 
Q 2525 409 2770 889 
Q 3016 1369 3016 2328 
Q 3016 3291 2770 3770 
Q 2525 4250 2034 4250 
z
M 2034 4750 
Q 2819 4750 3233 4129 
Q 3647 3509 3647 2328 
Q 3647 1150 3233 529 
Q 2819 -91 2034 -91 
Q 1250 -91 836 529 
Q 422 1150 422 2328 
Q 422 3509 836 4129 
Q 1250 4750 2034 4750 
z
" transform="scale(0.015625)"/>
       </defs>
       <use xlink:href="#DejaVuSans-30"/>
      </g>
     </g>
    </g>
    <g id="xtick_2">
     <g id="line2d_7">
      <path d="M 144.2304 298.944 
L 144.2304 6.912 
" clip-path="url(#pa6a7819478)" style="fill: none; stroke: #b0b0b0; stroke-width: 0.8; stroke-linecap: square"/>
     </g>
     <g id="line2d_8">
      <g>
       <use xlink:href="#mc93b55e262" x="144.2304" y="298.944" style="stroke: #000000; stroke-width: 0.8"/>
      </g>
     </g>
     <g id="text_2">
      <!-- 2 -->
      <g transform="translate(138.822275 318.861344) scale(0.17 -0.17)">
       <defs>
        <path id="DejaVuSans-32" d="M 1228 531 
L 3431 531 
L 3431 0 
L 469 0 
L 469 531 
Q 828 903 1448 1529 
Q 2069 2156 2228 2338 
Q 2531 2678 2651 2914 
Q 2772 3150 2772 3378 
Q 2772 3750 2511 3984 
Q 2250 4219 1831 4219 
Q 1534 4219 1204 4116 
Q 875 4013 500 3803 
L 500 4441 
Q 881 4594 1212 4672 
Q 1544 4750 1819 4750 
Q 2544 4750 2975 4387 
Q 3406 4025 3406 3419 
Q 3406 3131 3298 2873 
Q 3191 2616 2906 2266 
Q 2828 2175 2409 1742 
Q 1991 1309 1228 531 
z
" transform="scale(0.015625)"/>
       </defs>
       <use xlink:href="#DejaVuSans-32"/>
      </g>
     </g>
    </g>
    <g id="xtick_3">
     <g id="line2d_9">
      <path d="M 230.8608 298.944 
L 230.8608 6.912 
" clip-path="url(#pa6a7819478)" style="fill: none; stroke: #b0b0b0; stroke-width: 0.8; stroke-linecap: square"/>
     </g>
     <g id="line2d_10">
      <g>
       <use xlink:href="#mc93b55e262" x="230.8608" y="298.944" style="stroke: #000000; stroke-width: 0.8"/>
      </g>
     </g>
     <g id="text_3">
      <!-- 4 -->
      <g transform="translate(225.452675 318.861344) scale(0.17 -0.17)">
       <defs>
        <path id="DejaVuSans-34" d="M 2419 4116 
L 825 1625 
L 2419 1625 
L 2419 4116 
z
M 2253 4666 
L 3047 4666 
L 3047 1625 
L 3713 1625 
L 3713 1100 
L 3047 1100 
L 3047 0 
L 2419 0 
L 2419 1100 
L 313 1100 
L 313 1709 
L 2253 4666 
z
" transform="scale(0.015625)"/>
       </defs>
       <use xlink:href="#DejaVuSans-34"/>
      </g>
     </g>
    </g>
    <g id="xtick_4">
     <g id="line2d_11">
      <path d="M 317.4912 298.944 
L 317.4912 6.912 
" clip-path="url(#pa6a7819478)" style="fill: none; stroke: #b0b0b0; stroke-width: 0.8; stroke-linecap: square"/>
     </g>
     <g id="line2d_12">
      <g>
       <use xlink:href="#mc93b55e262" x="317.4912" y="298.944" style="stroke: #000000; stroke-width: 0.8"/>
      </g>
     </g>
     <g id="text_4">
      <!-- 6 -->
      <g transform="translate(312.083075 318.861344) scale(0.17 -0.17)">
       <defs>
        <path id="DejaVuSans-36" d="M 2113 2584 
Q 1688 2584 1439 2293 
Q 1191 2003 1191 1497 
Q 1191 994 1439 701 
Q 1688 409 2113 409 
Q 2538 409 2786 701 
Q 3034 994 3034 1497 
Q 3034 2003 2786 2293 
Q 2538 2584 2113 2584 
z
M 3366 4563 
L 3366 3988 
Q 3128 4100 2886 4159 
Q 2644 4219 2406 4219 
Q 1781 4219 1451 3797 
Q 1122 3375 1075 2522 
Q 1259 2794 1537 2939 
Q 1816 3084 2150 3084 
Q 2853 3084 3261 2657 
Q 3669 2231 3669 1497 
Q 3669 778 3244 343 
Q 2819 -91 2113 -91 
Q 1303 -91 875 529 
Q 447 1150 447 2328 
Q 447 3434 972 4092 
Q 1497 4750 2381 4750 
Q 2619 4750 2861 4703 
Q 3103 4656 3366 4563 
z
" transform="scale(0.015625)"/>
       </defs>
       <use xlink:href="#DejaVuSans-36"/>
      </g>
     </g>
    </g>
    <g id="xtick_5">
     <g id="line2d_13">
      <path d="M 100.9152 298.944 
L 100.9152 6.912 
" clip-path="url(#pa6a7819478)" style="fill: none; stroke: #b0b0b0; stroke-width: 0.8; stroke-linecap: square"/>
     </g>
     <g id="line2d_14">
      <defs>
       <path id="mbeaf34080c" d="M 0 0 
L 0 2 
" style="stroke: #000000; stroke-width: 0.6"/>
      </defs>
      <g>
       <use xlink:href="#mbeaf34080c" x="100.9152" y="298.944" style="stroke: #000000; stroke-width: 0.6"/>
      </g>
     </g>
    </g>
    <g id="xtick_6">
     <g id="line2d_15">
      <path d="M 187.5456 298.944 
L 187.5456 6.912 
" clip-path="url(#pa6a7819478)" style="fill: none; stroke: #b0b0b0; stroke-width: 0.8; stroke-linecap: square"/>
     </g>
     <g id="line2d_16">
      <g>
       <use xlink:href="#mbeaf34080c" x="187.5456" y="298.944" style="stroke: #000000; stroke-width: 0.6"/>
      </g>
     </g>
    </g>
    <g id="xtick_7">
     <g id="line2d_17">
      <path d="M 274.176 298.944 
L 274.176 6.912 
" clip-path="url(#pa6a7819478)" style="fill: none; stroke: #b0b0b0; stroke-width: 0.8; stroke-linecap: square"/>
     </g>
     <g id="line2d_18">
      <g>
       <use xlink:href="#mbeaf34080c" x="274.176" y="298.944" style="stroke: #000000; stroke-width: 0.6"/>
      </g>
     </g>
    </g>
    <g id="xtick_8">
     <g id="line2d_19">
      <path d="M 360.8064 298.944 
L 360.8064 6.912 
" clip-path="url(#pa6a7819478)" style="fill: none; stroke: #b0b0b0; stroke-width: 0.8; stroke-linecap: square"/>
     </g>
     <g id="line2d_20">
      <g>
       <use xlink:href="#mbeaf34080c" x="360.8064" y="298.944" style="stroke: #000000; stroke-width: 0.6"/>
      </g>
     </g>
    </g>
    <g id="text_5">
     <!-- log10(# f-evals / dimension) -->
     <g transform="translate(88.823278 339.314156) scale(0.17 -0.17)">
      <defs>
       <path id="DejaVuSans-6c" d="M 603 4863 
L 1178 4863 
L 1178 0 
L 603 0 
L 603 4863 
z
" transform="scale(0.015625)"/>
       <path id="DejaVuSans-6f" d="M 1959 3097 
Q 1497 3097 1228 2736 
Q 959 2375 959 1747 
Q 959 1119 1226 758 
Q 1494 397 1959 397 
Q 2419 397 2687 759 
Q 2956 1122 2956 1747 
Q 2956 2369 2687 2733 
Q 2419 3097 1959 3097 
z
M 1959 3584 
Q 2709 3584 3137 3096 
Q 3566 2609 3566 1747 
Q 3566 888 3137 398 
Q 2709 -91 1959 -91 
Q 1206 -91 779 398 
Q 353 888 353 1747 
Q 353 2609 779 3096 
Q 1206 3584 1959 3584 
z
" transform="scale(0.015625)"/>
       <path id="DejaVuSans-67" d="M 2906 1791 
Q 2906 2416 2648 2759 
Q 2391 3103 1925 3103 
Q 1463 3103 1205 2759 
Q 947 2416 947 1791 
Q 947 1169 1205 825 
Q 1463 481 1925 481 
Q 2391 481 2648 825 
Q 2906 1169 2906 1791 
z
M 3481 434 
Q 3481 -459 3084 -895 
Q 2688 -1331 1869 -1331 
Q 1566 -1331 1297 -1286 
Q 1028 -1241 775 -1147 
L 775 -588 
Q 1028 -725 1275 -790 
Q 1522 -856 1778 -856 
Q 2344 -856 2625 -561 
Q 2906 -266 2906 331 
L 2906 616 
Q 2728 306 2450 153 
Q 2172 0 1784 0 
Q 1141 0 747 490 
Q 353 981 353 1791 
Q 353 2603 747 3093 
Q 1141 3584 1784 3584 
Q 2172 3584 2450 3431 
Q 2728 3278 2906 2969 
L 2906 3500 
L 3481 3500 
L 3481 434 
z
" transform="scale(0.015625)"/>
       <path id="DejaVuSans-31" d="M 794 531 
L 1825 531 
L 1825 4091 
L 703 3866 
L 703 4441 
L 1819 4666 
L 2450 4666 
L 2450 531 
L 3481 531 
L 3481 0 
L 794 0 
L 794 531 
z
" transform="scale(0.015625)"/>
       <path id="DejaVuSans-28" d="M 1984 4856 
Q 1566 4138 1362 3434 
Q 1159 2731 1159 2009 
Q 1159 1288 1364 580 
Q 1569 -128 1984 -844 
L 1484 -844 
Q 1016 -109 783 600 
Q 550 1309 550 2009 
Q 550 2706 781 3412 
Q 1013 4119 1484 4856 
L 1984 4856 
z
" transform="scale(0.015625)"/>
       <path id="DejaVuSans-23" d="M 3272 2816 
L 2363 2816 
L 2100 1772 
L 3016 1772 
L 3272 2816 
z
M 2803 4594 
L 2478 3297 
L 3391 3297 
L 3719 4594 
L 4219 4594 
L 3897 3297 
L 4872 3297 
L 4872 2816 
L 3775 2816 
L 3519 1772 
L 4513 1772 
L 4513 1294 
L 3397 1294 
L 3072 0 
L 2572 0 
L 2894 1294 
L 1978 1294 
L 1656 0 
L 1153 0 
L 1478 1294 
L 494 1294 
L 494 1772 
L 1594 1772 
L 1856 2816 
L 850 2816 
L 850 3297 
L 1978 3297 
L 2297 4594 
L 2803 4594 
z
" transform="scale(0.015625)"/>
       <path id="DejaVuSans-20" transform="scale(0.015625)"/>
       <path id="DejaVuSans-66" d="M 2375 4863 
L 2375 4384 
L 1825 4384 
Q 1516 4384 1395 4259 
Q 1275 4134 1275 3809 
L 1275 3500 
L 2222 3500 
L 2222 3053 
L 1275 3053 
L 1275 0 
L 697 0 
L 697 3053 
L 147 3053 
L 147 3500 
L 697 3500 
L 697 3744 
Q 697 4328 969 4595 
Q 1241 4863 1831 4863 
L 2375 4863 
z
" transform="scale(0.015625)"/>
       <path id="DejaVuSans-2d" d="M 313 2009 
L 1997 2009 
L 1997 1497 
L 313 1497 
L 313 2009 
z
" transform="scale(0.015625)"/>
       <path id="DejaVuSans-65" d="M 3597 1894 
L 3597 1613 
L 953 1613 
Q 991 1019 1311 708 
Q 1631 397 2203 397 
Q 2534 397 2845 478 
Q 3156 559 3463 722 
L 3463 178 
Q 3153 47 2828 -22 
Q 2503 -91 2169 -91 
Q 1331 -91 842 396 
Q 353 884 353 1716 
Q 353 2575 817 3079 
Q 1281 3584 2069 3584 
Q 2775 3584 3186 3129 
Q 3597 2675 3597 1894 
z
M 3022 2063 
Q 3016 2534 2758 2815 
Q 2500 3097 2075 3097 
Q 1594 3097 1305 2825 
Q 1016 2553 972 2059 
L 3022 2063 
z
" transform="scale(0.015625)"/>
       <path id="DejaVuSans-76" d="M 191 3500 
L 800 3500 
L 1894 563 
L 2988 3500 
L 3597 3500 
L 2284 0 
L 1503 0 
L 191 3500 
z
" transform="scale(0.015625)"/>
       <path id="DejaVuSans-61" d="M 2194 1759 
Q 1497 1759 1228 1600 
Q 959 1441 959 1056 
Q 959 750 1161 570 
Q 1363 391 1709 391 
Q 2188 391 2477 730 
Q 2766 1069 2766 1631 
L 2766 1759 
L 2194 1759 
z
M 3341 1997 
L 3341 0 
L 2766 0 
L 2766 531 
Q 2569 213 2275 61 
Q 1981 -91 1556 -91 
Q 1019 -91 701 211 
Q 384 513 384 1019 
Q 384 1609 779 1909 
Q 1175 2209 1959 2209 
L 2766 2209 
L 2766 2266 
Q 2766 2663 2505 2880 
Q 2244 3097 1772 3097 
Q 1472 3097 1187 3025 
Q 903 2953 641 2809 
L 641 3341 
Q 956 3463 1253 3523 
Q 1550 3584 1831 3584 
Q 2591 3584 2966 3190 
Q 3341 2797 3341 1997 
z
" transform="scale(0.015625)"/>
       <path id="DejaVuSans-73" d="M 2834 3397 
L 2834 2853 
Q 2591 2978 2328 3040 
Q 2066 3103 1784 3103 
Q 1356 3103 1142 2972 
Q 928 2841 928 2578 
Q 928 2378 1081 2264 
Q 1234 2150 1697 2047 
L 1894 2003 
Q 2506 1872 2764 1633 
Q 3022 1394 3022 966 
Q 3022 478 2636 193 
Q 2250 -91 1575 -91 
Q 1294 -91 989 -36 
Q 684 19 347 128 
L 347 722 
Q 666 556 975 473 
Q 1284 391 1588 391 
Q 1994 391 2212 530 
Q 2431 669 2431 922 
Q 2431 1156 2273 1281 
Q 2116 1406 1581 1522 
L 1381 1569 
Q 847 1681 609 1914 
Q 372 2147 372 2553 
Q 372 3047 722 3315 
Q 1072 3584 1716 3584 
Q 2034 3584 2315 3537 
Q 2597 3491 2834 3397 
z
" transform="scale(0.015625)"/>
       <path id="DejaVuSans-2f" d="M 1625 4666 
L 2156 4666 
L 531 -594 
L 0 -594 
L 1625 4666 
z
" transform="scale(0.015625)"/>
       <path id="DejaVuSans-64" d="M 2906 2969 
L 2906 4863 
L 3481 4863 
L 3481 0 
L 2906 0 
L 2906 525 
Q 2725 213 2448 61 
Q 2172 -91 1784 -91 
Q 1150 -91 751 415 
Q 353 922 353 1747 
Q 353 2572 751 3078 
Q 1150 3584 1784 3584 
Q 2172 3584 2448 3432 
Q 2725 3281 2906 2969 
z
M 947 1747 
Q 947 1113 1208 752 
Q 1469 391 1925 391 
Q 2381 391 2643 752 
Q 2906 1113 2906 1747 
Q 2906 2381 2643 2742 
Q 2381 3103 1925 3103 
Q 1469 3103 1208 2742 
Q 947 2381 947 1747 
z
" transform="scale(0.015625)"/>
       <path id="DejaVuSans-69" d="M 603 3500 
L 1178 3500 
L 1178 0 
L 603 0 
L 603 3500 
z
M 603 4863 
L 1178 4863 
L 1178 4134 
L 603 4134 
L 603 4863 
z
" transform="scale(0.015625)"/>
       <path id="DejaVuSans-6d" d="M 3328 2828 
Q 3544 3216 3844 3400 
Q 4144 3584 4550 3584 
Q 5097 3584 5394 3201 
Q 5691 2819 5691 2113 
L 5691 0 
L 5113 0 
L 5113 2094 
Q 5113 2597 4934 2840 
Q 4756 3084 4391 3084 
Q 3944 3084 3684 2787 
Q 3425 2491 3425 1978 
L 3425 0 
L 2847 0 
L 2847 2094 
Q 2847 2600 2669 2842 
Q 2491 3084 2119 3084 
Q 1678 3084 1418 2786 
Q 1159 2488 1159 1978 
L 1159 0 
L 581 0 
L 581 3500 
L 1159 3500 
L 1159 2956 
Q 1356 3278 1631 3431 
Q 1906 3584 2284 3584 
Q 2666 3584 2933 3390 
Q 3200 3197 3328 2828 
z
" transform="scale(0.015625)"/>
       <path id="DejaVuSans-6e" d="M 3513 2113 
L 3513 0 
L 2938 0 
L 2938 2094 
Q 2938 2591 2744 2837 
Q 2550 3084 2163 3084 
Q 1697 3084 1428 2787 
Q 1159 2491 1159 1978 
L 1159 0 
L 581 0 
L 581 3500 
L 1159 3500 
L 1159 2956 
Q 1366 3272 1645 3428 
Q 1925 3584 2291 3584 
Q 2894 3584 3203 3211 
Q 3513 2838 3513 2113 
z
" transform="scale(0.015625)"/>
       <path id="DejaVuSans-29" d="M 513 4856 
L 1013 4856 
Q 1481 4119 1714 3412 
Q 1947 2706 1947 2009 
Q 1947 1309 1714 600 
Q 1481 -109 1013 -844 
L 513 -844 
Q 928 -128 1133 580 
Q 1338 1288 1338 2009 
Q 1338 2731 1133 3434 
Q 928 4138 513 4856 
z
" transform="scale(0.015625)"/>
      </defs>
      <use xlink:href="#DejaVuSans-6c"/>
      <use xlink:href="#DejaVuSans-6f" x="27.783203"/>
      <use xlink:href="#DejaVuSans-67" x="88.964844"/>
      <use xlink:href="#DejaVuSans-31" x="152.441406"/>
      <use xlink:href="#DejaVuSans-30" x="216.064453"/>
      <use xlink:href="#DejaVuSans-28" x="279.6875"/>
      <use xlink:href="#DejaVuSans-23" x="318.701172"/>
      <use xlink:href="#DejaVuSans-20" x="402.490234"/>
      <use xlink:href="#DejaVuSans-66" x="434.277344"/>
      <use xlink:href="#DejaVuSans-2d" x="463.982422"/>
      <use xlink:href="#DejaVuSans-65" x="500.066406"/>
      <use xlink:href="#DejaVuSans-76" x="561.589844"/>
      <use xlink:href="#DejaVuSans-61" x="620.769531"/>
      <use xlink:href="#DejaVuSans-6c" x="682.048828"/>
      <use xlink:href="#DejaVuSans-73" x="709.832031"/>
      <use xlink:href="#DejaVuSans-20" x="761.931641"/>
      <use xlink:href="#DejaVuSans-2f" x="793.71875"/>
      <use xlink:href="#DejaVuSans-20" x="827.410156"/>
      <use xlink:href="#DejaVuSans-64" x="859.197266"/>
      <use xlink:href="#DejaVuSans-69" x="922.673828"/>
      <use xlink:href="#DejaVuSans-6d" x="950.457031"/>
      <use xlink:href="#DejaVuSans-65" x="1047.869141"/>
      <use xlink:href="#DejaVuSans-6e" x="1109.392578"/>
      <use xlink:href="#DejaVuSans-73" x="1172.771484"/>
      <use xlink:href="#DejaVuSans-69" x="1224.871094"/>
      <use xlink:href="#DejaVuSans-6f" x="1252.654297"/>
      <use xlink:href="#DejaVuSans-6e" x="1313.835938"/>
      <use xlink:href="#DejaVuSans-29" x="1377.214844"/>
     </g>
    </g>
   </g>
   <g id="matplotlib.axis_2">
    <g id="ytick_1">
     <g id="line2d_21">
      <path d="M 57.6 298.944 
L 360.8064 298.944 
" clip-path="url(#pa6a7819478)" style="fill: none; stroke: #b0b0b0; stroke-width: 0.8; stroke-linecap: square"/>
     </g>
     <g id="line2d_22">
      <defs>
       <path id="m757aeb9db6" d="M 0 0 
L -3.5 0 
" style="stroke: #000000; stroke-width: 0.8"/>
      </defs>
      <g>
       <use xlink:href="#m757aeb9db6" x="57.6" y="298.944" style="stroke: #000000; stroke-width: 0.8"/>
      </g>
     </g>
     <g id="text_6">
      <!-- 0.0 -->
      <g transform="translate(25.155 305.02275) scale(0.16 -0.16)">
       <defs>
        <path id="DejaVuSans-2e" d="M 684 794 
L 1344 794 
L 1344 0 
L 684 0 
L 684 794 
z
" transform="scale(0.015625)"/>
       </defs>
       <use xlink:href="#DejaVuSans-30"/>
       <use xlink:href="#DejaVuSans-2e" x="63.623047"/>
       <use xlink:href="#DejaVuSans-30" x="95.410156"/>
      </g>
     </g>
    </g>
    <g id="ytick_2">
     <g id="line2d_23">
      <path d="M 57.6 240.5376 
L 360.8064 240.5376 
" clip-path="url(#pa6a7819478)" style="fill: none; stroke: #b0b0b0; stroke-width: 0.8; stroke-linecap: square"/>
     </g>
     <g id="line2d_24">
      <g>
       <use xlink:href="#m757aeb9db6" x="57.6" y="240.5376" style="stroke: #000000; stroke-width: 0.8"/>
      </g>
     </g>
     <g id="text_7">
      <!-- 0.2 -->
      <g transform="translate(25.155 246.61635) scale(0.16 -0.16)">
       <use xlink:href="#DejaVuSans-30"/>
       <use xlink:href="#DejaVuSans-2e" x="63.623047"/>
       <use xlink:href="#DejaVuSans-32" x="95.410156"/>
      </g>
     </g>
    </g>
    <g id="ytick_3">
     <g id="line2d_25">
      <path d="M 57.6 182.1312 
L 360.8064 182.1312 
" clip-path="url(#pa6a7819478)" style="fill: none; stroke: #b0b0b0; stroke-width: 0.8; stroke-linecap: square"/>
     </g>
     <g id="line2d_26">
      <g>
       <use xlink:href="#m757aeb9db6" x="57.6" y="182.1312" style="stroke: #000000; stroke-width: 0.8"/>
      </g>
     </g>
     <g id="text_8">
      <!-- 0.4 -->
      <g transform="translate(25.155 188.20995) scale(0.16 -0.16)">
       <use xlink:href="#DejaVuSans-30"/>
       <use xlink:href="#DejaVuSans-2e" x="63.623047"/>
       <use xlink:href="#DejaVuSans-34" x="95.410156"/>
      </g>
     </g>
    </g>
    <g id="ytick_4">
     <g id="line2d_27">
      <path d="M 57.6 123.7248 
L 360.8064 123.7248 
" clip-path="url(#pa6a7819478)" style="fill: none; stroke: #b0b0b0; stroke-width: 0.8; stroke-linecap: square"/>
     </g>
     <g id="line2d_28">
      <g>
       <use xlink:href="#m757aeb9db6" x="57.6" y="123.7248" style="stroke: #000000; stroke-width: 0.8"/>
      </g>
     </g>
     <g id="text_9">
      <!-- 0.6 -->
      <g transform="translate(25.155 129.80355) scale(0.16 -0.16)">
       <use xlink:href="#DejaVuSans-30"/>
       <use xlink:href="#DejaVuSans-2e" x="63.623047"/>
       <use xlink:href="#DejaVuSans-36" x="95.410156"/>
      </g>
     </g>
    </g>
    <g id="ytick_5">
     <g id="line2d_29">
      <path d="M 57.6 65.3184 
L 360.8064 65.3184 
" clip-path="url(#pa6a7819478)" style="fill: none; stroke: #b0b0b0; stroke-width: 0.8; stroke-linecap: square"/>
     </g>
     <g id="line2d_30">
      <g>
       <use xlink:href="#m757aeb9db6" x="57.6" y="65.3184" style="stroke: #000000; stroke-width: 0.8"/>
      </g>
     </g>
     <g id="text_10">
      <!-- 0.8 -->
      <g transform="translate(25.155 71.39715) scale(0.16 -0.16)">
       <defs>
        <path id="DejaVuSans-38" d="M 2034 2216 
Q 1584 2216 1326 1975 
Q 1069 1734 1069 1313 
Q 1069 891 1326 650 
Q 1584 409 2034 409 
Q 2484 409 2743 651 
Q 3003 894 3003 1313 
Q 3003 1734 2745 1975 
Q 2488 2216 2034 2216 
z
M 1403 2484 
Q 997 2584 770 2862 
Q 544 3141 544 3541 
Q 544 4100 942 4425 
Q 1341 4750 2034 4750 
Q 2731 4750 3128 4425 
Q 3525 4100 3525 3541 
Q 3525 3141 3298 2862 
Q 3072 2584 2669 2484 
Q 3125 2378 3379 2068 
Q 3634 1759 3634 1313 
Q 3634 634 3220 271 
Q 2806 -91 2034 -91 
Q 1263 -91 848 271 
Q 434 634 434 1313 
Q 434 1759 690 2068 
Q 947 2378 1403 2484 
z
M 1172 3481 
Q 1172 3119 1398 2916 
Q 1625 2713 2034 2713 
Q 2441 2713 2670 2916 
Q 2900 3119 2900 3481 
Q 2900 3844 2670 4047 
Q 2441 4250 2034 4250 
Q 1625 4250 1398 4047 
Q 1172 3844 1172 3481 
z
" transform="scale(0.015625)"/>
       </defs>
       <use xlink:href="#DejaVuSans-30"/>
       <use xlink:href="#DejaVuSans-2e" x="63.623047"/>
       <use xlink:href="#DejaVuSans-38" x="95.410156"/>
      </g>
     </g>
    </g>
    <g id="ytick_6">
     <g id="line2d_31">
      <path d="M 57.6 6.912 
L 360.8064 6.912 
" clip-path="url(#pa6a7819478)" style="fill: none; stroke: #b0b0b0; stroke-width: 0.8; stroke-linecap: square"/>
     </g>
     <g id="line2d_32">
      <g>
       <use xlink:href="#m757aeb9db6" x="57.6" y="6.912" style="stroke: #000000; stroke-width: 0.8"/>
      </g>
     </g>
     <g id="text_11">
      <!-- 1.0 -->
      <g transform="translate(25.155 12.99075) scale(0.16 -0.16)">
       <use xlink:href="#DejaVuSans-31"/>
       <use xlink:href="#DejaVuSans-2e" x="63.623047"/>
       <use xlink:href="#DejaVuSans-30" x="95.410156"/>
      </g>
     </g>
    </g>
    <g id="text_12">
     <!-- Fraction of function,target pairs -->
     <g transform="translate(17.619531 287.313) rotate(-90) scale(0.17 -0.17)">
      <defs>
       <path id="DejaVuSans-46" d="M 628 4666 
L 3309 4666 
L 3309 4134 
L 1259 4134 
L 1259 2759 
L 3109 2759 
L 3109 2228 
L 1259 2228 
L 1259 0 
L 628 0 
L 628 4666 
z
" transform="scale(0.015625)"/>
       <path id="DejaVuSans-72" d="M 2631 2963 
Q 2534 3019 2420 3045 
Q 2306 3072 2169 3072 
Q 1681 3072 1420 2755 
Q 1159 2438 1159 1844 
L 1159 0 
L 581 0 
L 581 3500 
L 1159 3500 
L 1159 2956 
Q 1341 3275 1631 3429 
Q 1922 3584 2338 3584 
Q 2397 3584 2469 3576 
Q 2541 3569 2628 3553 
L 2631 2963 
z
" transform="scale(0.015625)"/>
       <path id="DejaVuSans-63" d="M 3122 3366 
L 3122 2828 
Q 2878 2963 2633 3030 
Q 2388 3097 2138 3097 
Q 1578 3097 1268 2742 
Q 959 2388 959 1747 
Q 959 1106 1268 751 
Q 1578 397 2138 397 
Q 2388 397 2633 464 
Q 2878 531 3122 666 
L 3122 134 
Q 2881 22 2623 -34 
Q 2366 -91 2075 -91 
Q 1284 -91 818 406 
Q 353 903 353 1747 
Q 353 2603 823 3093 
Q 1294 3584 2113 3584 
Q 2378 3584 2631 3529 
Q 2884 3475 3122 3366 
z
" transform="scale(0.015625)"/>
       <path id="DejaVuSans-74" d="M 1172 4494 
L 1172 3500 
L 2356 3500 
L 2356 3053 
L 1172 3053 
L 1172 1153 
Q 1172 725 1289 603 
Q 1406 481 1766 481 
L 2356 481 
L 2356 0 
L 1766 0 
Q 1100 0 847 248 
Q 594 497 594 1153 
L 594 3053 
L 172 3053 
L 172 3500 
L 594 3500 
L 594 4494 
L 1172 4494 
z
" transform="scale(0.015625)"/>
       <path id="DejaVuSans-75" d="M 544 1381 
L 544 3500 
L 1119 3500 
L 1119 1403 
Q 1119 906 1312 657 
Q 1506 409 1894 409 
Q 2359 409 2629 706 
Q 2900 1003 2900 1516 
L 2900 3500 
L 3475 3500 
L 3475 0 
L 2900 0 
L 2900 538 
Q 2691 219 2414 64 
Q 2138 -91 1772 -91 
Q 1169 -91 856 284 
Q 544 659 544 1381 
z
M 1991 3584 
L 1991 3584 
z
" transform="scale(0.015625)"/>
       <path id="DejaVuSans-2c" d="M 750 794 
L 1409 794 
L 1409 256 
L 897 -744 
L 494 -744 
L 750 256 
L 750 794 
z
" transform="scale(0.015625)"/>
       <path id="DejaVuSans-70" d="M 1159 525 
L 1159 -1331 
L 581 -1331 
L 581 3500 
L 1159 3500 
L 1159 2969 
Q 1341 3281 1617 3432 
Q 1894 3584 2278 3584 
Q 2916 3584 3314 3078 
Q 3713 2572 3713 1747 
Q 3713 922 3314 415 
Q 2916 -91 2278 -91 
Q 1894 -91 1617 61 
Q 1341 213 1159 525 
z
M 3116 1747 
Q 3116 2381 2855 2742 
Q 2594 3103 2138 3103 
Q 1681 3103 1420 2742 
Q 1159 2381 1159 1747 
Q 1159 1113 1420 752 
Q 1681 391 2138 391 
Q 2594 391 2855 752 
Q 3116 1113 3116 1747 
z
" transform="scale(0.015625)"/>
      </defs>
      <use xlink:href="#DejaVuSans-46"/>
      <use xlink:href="#DejaVuSans-72" x="50.269531"/>
      <use xlink:href="#DejaVuSans-61" x="91.382812"/>
      <use xlink:href="#DejaVuSans-63" x="152.662109"/>
      <use xlink:href="#DejaVuSans-74" x="207.642578"/>
      <use xlink:href="#DejaVuSans-69" x="246.851562"/>
      <use xlink:href="#DejaVuSans-6f" x="274.634766"/>
      <use xlink:href="#DejaVuSans-6e" x="335.816406"/>
      <use xlink:href="#DejaVuSans-20" x="399.195312"/>
      <use xlink:href="#DejaVuSans-6f" x="430.982422"/>
      <use xlink:href="#DejaVuSans-66" x="492.164062"/>
      <use xlink:href="#DejaVuSans-20" x="527.369141"/>
      <use xlink:href="#DejaVuSans-66" x="559.15625"/>
      <use xlink:href="#DejaVuSans-75" x="594.361328"/>
      <use xlink:href="#DejaVuSans-6e" x="657.740234"/>
      <use xlink:href="#DejaVuSans-63" x="721.119141"/>
      <use xlink:href="#DejaVuSans-74" x="776.099609"/>
      <use xlink:href="#DejaVuSans-69" x="815.308594"/>
      <use xlink:href="#DejaVuSans-6f" x="843.091797"/>
      <use xlink:href="#DejaVuSans-6e" x="904.273438"/>
      <use xlink:href="#DejaVuSans-2c" x="967.652344"/>
      <use xlink:href="#DejaVuSans-74" x="999.439453"/>
      <use xlink:href="#DejaVuSans-61" x="1038.648438"/>
      <use xlink:href="#DejaVuSans-72" x="1099.927734"/>
      <use xlink:href="#DejaVuSans-67" x="1139.291016"/>
      <use xlink:href="#DejaVuSans-65" x="1202.767578"/>
      <use xlink:href="#DejaVuSans-74" x="1264.291016"/>
      <use xlink:href="#DejaVuSans-20" x="1303.5"/>
      <use xlink:href="#DejaVuSans-70" x="1335.287109"/>
      <use xlink:href="#DejaVuSans-61" x="1398.763672"/>
      <use xlink:href="#DejaVuSans-69" x="1460.042969"/>
      <use xlink:href="#DejaVuSans-72" x="1487.826172"/>
      <use xlink:href="#DejaVuSans-73" x="1528.939453"/>
     </g>
    </g>
   </g>
   <g id="line2d_33">
    <defs>
     <path id="mefc80876ac" d="M 0 1.5 
C 0.397805 1.5 0.77937 1.341951 1.06066 1.06066 
C 1.341951 0.77937 1.5 0.397805 1.5 0 
C 1.5 -0.397805 1.341951 -0.77937 1.06066 -1.06066 
C 0.77937 -1.341951 0.397805 -1.5 0 -1.5 
C -0.397805 -1.5 -0.77937 -1.341951 -1.06066 -1.06066 
C -1.341951 -0.77937 -1.5 -0.397805 -1.5 0 
C -1.5 0.397805 -1.341951 0.77937 -1.06066 1.06066 
C -0.77937 1.341951 -0.397805 1.5 0 1.5 
z
" style="stroke: #f5deb3"/>
    </defs>
    <g>
     <use xlink:href="#mefc80876ac" x="259.993055" y="42.157241" style="fill: #f5deb3; stroke: #f5deb3"/>
     <use xlink:href="#mefc80876ac" x="259.993055" y="42.157241" style="fill: #f5deb3; stroke: #f5deb3"/>
    </g>
   </g>
   <g id="line2d_34">
    <defs>
     <path id="m355ac900c6" d="M 0 1.5 
C 0.397805 1.5 0.77937 1.341951 1.06066 1.06066 
C 1.341951 0.77937 1.5 0.397805 1.5 0 
C 1.5 -0.397805 1.341951 -0.77937 1.06066 -1.06066 
C 0.77937 -1.341951 0.397805 -1.5 0 -1.5 
C -0.397805 -1.5 -0.77937 -1.341951 -1.06066 -1.06066 
C -1.341951 -0.77937 -1.5 -0.397805 -1.5 0 
C -1.5 0.397805 -1.341951 0.77937 -1.06066 1.06066 
C -0.77937 1.341951 -0.397805 1.5 0 1.5 
z
" style="stroke: #000080"/>
    </defs>
    <g>
     <use xlink:href="#m355ac900c6" x="191.780862" y="187.166234" style="fill: #000080; stroke: #000080"/>
     <use xlink:href="#m355ac900c6" x="191.780862" y="187.166234" style="fill: #000080; stroke: #000080"/>
    </g>
   </g>
   <g id="line2d_35">
    <path d="M 44.560826 298.944 
L 44.560826 286.356414 
L 57.6 286.356414 
L 57.6 279.978703 
L 83.678349 279.978703 
L 83.678349 277.96469 
L 85.894031 277.96469 
L 85.894031 277.629021 
L 94.205591 277.629021 
L 94.205591 277.461186 
L 95.503454 277.461186 
L 95.503454 275.447172 
L 100.9152 275.447172 
L 100.9152 274.943669 
L 101.833019 274.943669 
L 101.833019 272.593986 
L 102.708132 272.593986 
L 102.708132 272.090483 
L 103.544339 272.090483 
L 103.544339 269.572966 
L 105.850679 269.572966 
L 105.850679 269.237297 
L 106.560633 269.237297 
L 106.560633 268.23029 
L 107.904887 268.23029 
L 107.904887 268.062455 
L 110.335561 268.062455 
L 110.335561 267.726786 
L 110.897141 267.726786 
L 110.897141 267.055448 
L 111.442442 267.055448 
L 111.442442 266.887614 
L 111.97238 266.887614 
L 111.97238 265.377103 
L 112.487797 265.377103 
L 112.487797 265.209269 
L 113.478107 265.209269 
L 113.478107 264.8736 
L 113.954374 264.8736 
L 113.954374 264.537931 
L 115.747307 264.537931 
L 115.747307 263.530924 
L 117.384126 263.530924 
L 117.384126 263.36309 
L 119.599808 263.36309 
L 119.599808 263.195255 
L 119.944983 263.195255 
L 119.944983 262.691752 
L 120.944062 262.691752 
L 120.944062 262.356083 
L 122.19863 262.356083 
L 122.19863 262.188248 
L 122.499621 262.188248 
L 122.499621 261.684745 
L 122.795872 261.684745 
L 122.795872 261.51691 
L 123.374735 261.51691 
L 123.374735 261.181241 
L 123.936316 261.181241 
L 123.936316 260.845572 
L 124.210942 260.845572 
L 124.210942 260.0064 
L 124.481616 260.0064 
L 124.481616 259.335062 
L 124.748451 259.335062 
L 124.748451 258.831559 
L 125.011554 258.831559 
L 125.011554 258.328055 
L 125.779479 258.328055 
L 125.779479 258.160221 
L 126.028642 258.160221 
L 126.028642 257.992386 
L 126.517282 257.992386 
L 126.517282 257.321048 
L 126.756923 257.321048 
L 126.756923 256.985379 
L 126.993549 256.985379 
L 126.993549 256.314041 
L 127.686077 256.314041 
L 127.686077 255.810538 
L 128.133992 255.810538 
L 128.133992 255.1392 
L 128.57149 255.1392 
L 128.57149 254.635697 
L 128.999044 254.635697 
L 128.999044 253.796524 
L 129.417095 253.796524 
L 129.417095 253.125186 
L 129.622688 253.125186 
L 129.622688 252.957352 
L 130.027253 252.957352 
L 130.027253 252.789517 
L 130.226319 252.789517 
L 130.226319 252.286014 
L 130.4233 252.286014 
L 130.4233 251.111172 
L 130.618241 251.111172 
L 130.618241 249.936331 
L 131.191226 249.936331 
L 131.191226 249.264993 
L 131.929028 249.264993 
L 131.929028 248.425821 
L 132.638982 248.425821 
L 132.638982 248.090152 
L 133.154399 248.090152 
L 133.154399 247.754483 
L 133.323114 247.754483 
L 133.323114 247.586648 
L 133.656071 247.586648 
L 133.656071 247.418814 
L 133.820365 247.418814 
L 133.820365 246.747476 
L 134.463557 246.747476 
L 134.463557 246.411807 
L 134.620977 246.411807 
L 134.620977 246.076138 
L 134.931919 246.076138 
L 134.931919 245.908303 
L 135.237805 245.908303 
L 135.237805 245.236966 
L 135.388902 245.236966 
L 135.388902 244.901297 
L 135.835047 244.901297 
L 135.835047 244.733462 
L 135.981441 244.733462 
L 135.981441 244.397793 
L 136.270855 244.397793 
L 136.270855 244.229959 
L 136.555884 244.229959 
L 136.555884 244.062124 
L 136.836659 244.062124 
L 136.836659 243.726455 
L 137.250116 243.726455 
L 137.250116 243.558621 
L 138.050729 243.558621 
L 138.050729 243.222952 
L 138.310202 243.222952 
L 138.310202 243.055117 
L 138.438609 243.055117 
L 138.438609 242.719448 
L 138.566146 242.719448 
L 138.566146 242.215945 
L 139.556456 242.215945 
L 139.556456 242.04811 
L 139.914782 242.04811 
L 139.914782 241.880276 
L 140.032723 241.880276 
L 140.032723 241.544607 
L 141.062184 241.544607 
L 141.173167 240.705434 
L 141.393187 240.705434 
L 141.393187 240.5376 
L 141.825656 240.5376 
L 141.932237 239.866262 
L 142.038218 239.866262 
L 142.038218 239.02709 
L 142.248405 239.02709 
L 142.352625 238.691421 
L 142.45627 238.691421 
L 142.45627 238.523586 
L 142.661862 238.523586 
L 142.661862 238.187917 
L 143.265494 238.187917 
L 143.265494 238.020083 
L 143.657415 238.020083 
L 143.657415 237.852248 
L 144.417581 237.852248 
L 144.417581 237.684414 
L 144.602918 237.684414 
L 144.694906 237.18091 
L 144.786447 237.18091 
L 144.786447 237.013076 
L 144.968202 237.013076 
L 145.058426 236.677407 
L 146.612557 236.677407 
L 146.695245 236.006069 
L 147.022411 236.006069 
L 147.022411 234.495559 
L 147.816265 234.495559 
L 147.893838 234.15989 
L 148.276979 234.15989 
L 148.352679 233.656386 
L 148.503173 233.656386 
L 148.503173 233.320717 
L 148.726679 233.320717 
L 148.800595 232.985048 
L 148.874221 232.985048 
L 148.874221 232.31371 
L 149.595059 232.31371 
L 149.595059 231.978041 
L 150.152479 231.978041 
L 150.221009 231.642372 
L 150.559965 231.642372 
L 150.559965 231.474538 
L 150.760445 231.474538 
L 150.760445 230.8032 
L 151.41369 230.8032 
L 151.41369 230.635366 
L 151.54166 230.635366 
L 151.54166 230.467531 
L 151.668766 230.467531 
L 151.668766 230.131862 
L 151.920429 230.131862 
L 151.982822 229.796193 
L 152.106991 229.796193 
L 152.106991 228.957021 
L 152.655828 228.957021 
L 152.655828 228.621352 
L 153.478964 228.621352 
L 153.478964 228.453517 
L 153.593669 228.453517 
L 153.593669 228.285683 
L 153.707679 228.285683 
L 153.707679 227.110841 
L 154.101358 227.110841 
L 154.101358 226.775172 
L 154.322673 226.775172 
L 154.322673 226.607338 
L 155.235253 226.607338 
L 155.339761 226.271669 
L 155.495444 226.271669 
L 155.598521 225.600331 
L 155.649849 225.600331 
L 155.649849 225.432497 
L 155.85377 225.432497 
L 155.904407 225.096828 
L 156.105602 225.096828 
L 156.155566 224.761159 
L 156.354107 224.761159 
L 156.452597 224.257655 
L 156.550574 224.257655 
L 156.550574 224.089821 
L 156.745011 224.089821 
L 156.745011 223.586317 
L 156.88953 223.586317 
L 156.88953 223.082814 
L 157.549652 223.082814 
L 157.595929 222.747145 
L 157.779907 222.747145 
L 157.825621 221.740138 
L 157.962102 221.740138 
L 157.962102 221.236634 
L 158.0976 221.236634 
L 158.0976 220.733131 
L 158.276759 220.733131 
L 158.276759 220.565297 
L 158.410018 220.565297 
L 158.410018 220.397462 
L 158.717331 220.397462 
L 158.804221 219.726124 
L 160.020999 219.726124 
L 160.102084 219.054786 
L 160.660094 219.054786 
L 160.660094 218.886952 
L 161.163832 218.886952 
L 161.163832 218.719117 
L 162.096211 218.719117 
L 162.205054 218.047779 
L 162.277267 218.047779 
L 162.277267 217.71211 
L 162.634233 217.71211 
L 162.634233 217.544276 
L 162.915008 217.544276 
L 162.949812 217.208607 
L 163.328465 217.208607 
L 163.3965 216.369434 
L 163.632702 216.369434 
L 163.632702 216.2016 
L 163.932096 216.2016 
L 163.932096 215.698097 
L 164.161708 215.698097 
L 164.259262 215.026759 
L 164.484939 215.026759 
L 164.484939 214.69109 
L 165.053116 214.69109 
L 165.053116 214.355421 
L 165.51383 214.355421 
L 165.604634 213.851917 
L 165.725029 213.851917 
L 165.725029 213.516248 
L 166.022686 213.516248 
L 166.022686 213.348414 
L 166.489353 213.348414 
L 166.489353 213.012745 
L 166.718416 213.012745 
L 166.718416 212.677076 
L 166.888401 212.677076 
L 166.972821 212.341407 
L 167.084795 212.341407 
L 167.16834 211.502234 
L 167.361848 211.502234 
L 167.361848 211.166566 
L 167.498859 211.166566 
L 167.607754 210.495228 
L 167.689013 210.495228 
L 167.689013 210.159559 
L 167.930707 210.159559 
L 167.983997 209.152552 
L 168.063651 209.152552 
L 168.063651 208.816883 
L 168.248209 208.816883 
L 168.300609 208.313379 
L 168.508761 208.313379 
L 168.508761 208.145545 
L 168.637696 208.145545 
L 168.637696 207.809876 
L 169.319074 207.809876 
L 169.368578 207.474207 
L 169.540824 207.474207 
L 169.638546 206.802869 
L 169.662898 206.802869 
L 169.735764 205.628028 
L 169.808349 205.628028 
L 169.880655 204.95669 
L 170.09592 204.95669 
L 170.09592 204.788855 
L 170.28522 204.788855 
L 170.28522 204.453186 
L 170.425955 204.453186 
L 170.425955 204.285352 
L 170.841952 204.285352 
L 170.841952 204.117517 
L 171.159263 204.117517 
L 171.181725 203.781848 
L 171.293632 203.781848 
L 171.360458 203.278345 
L 171.625414 203.278345 
L 171.691074 202.607007 
L 171.843395 202.607007 
L 171.9083 202.271338 
L 172.208263 202.271338 
L 172.208263 202.103503 
L 172.587032 202.103503 
L 172.587032 201.935669 
L 172.732295 201.935669 
L 172.814802 200.928662 
L 173.141258 200.928662 
L 173.141258 200.592993 
L 173.501874 200.592993 
L 173.60083 199.753821 
L 173.991531 199.753821 
L 174.010854 199.418152 
L 174.241203 199.418152 
L 174.241203 199.082483 
L 174.562776 199.082483 
L 174.581522 198.578979 
L 174.674972 198.578979 
L 174.712223 198.24331 
L 174.897377 198.24331 
L 174.897377 197.907641 
L 175.098964 197.907641 
L 175.15357 197.404138 
L 175.796762 197.404138 
L 175.796762 197.236303 
L 176.041072 197.236303 
L 176.041072 197.068469 
L 176.486539 197.068469 
L 176.486539 196.900634 
L 176.75552 196.900634 
L 176.772205 196.061462 
L 177.1192 196.061462 
L 177.200883 195.725793 
L 177.265975 195.725793 
L 177.265975 195.054455 
L 177.715419 195.054455 
L 177.715419 194.886621 
L 177.857632 194.886621 
L 177.857632 194.550952 
L 178.045592 194.550952 
L 178.076737 194.047448 
L 178.507438 194.047448 
L 178.507438 193.711779 
L 178.6589 193.711779 
L 178.734177 192.872607 
L 178.83906 192.872607 
L 178.83906 192.704772 
L 178.958215 192.704772 
L 178.958215 192.536938 
L 179.383934 192.536938 
L 179.383934 192.369103 
L 179.586055 192.369103 
L 179.672018 191.8656 
L 179.969833 191.8656 
L 179.969833 191.529931 
L 180.849423 191.529931 
L 180.889661 191.194262 
L 181.102826 191.194262 
L 181.208509 190.690759 
L 181.741008 190.690759 
L 181.741008 190.522924 
L 182.420108 190.522924 
L 182.420108 190.187255 
L 183.123199 190.187255 
L 183.123199 190.019421 
L 183.300836 190.019421 
L 183.300836 189.683752 
L 183.66272 189.683752 
L 183.75499 189.348083 
L 184.029116 189.348083 
L 184.029116 189.180248 
L 184.388512 189.180248 
L 184.388512 189.012414 
L 185.087338 189.012414 
L 185.087338 188.844579 
L 185.406185 188.844579 
L 185.406185 188.173241 
L 186.491374 188.173241 
L 186.491374 188.005407 
L 187.862709 188.005407 
L 187.862709 187.837572 
L 189.457863 187.837572 
L 189.457863 187.501903 
L 191.780862 187.501903 
L 191.780862 187.166234 
L 360.8064 187.166234 
L 360.8064 187.166234 
" style="fill: none; stroke: #000080; stroke-width: 1.5; stroke-linecap: square"/>
   </g>
   <g id="line2d_36">
    <defs>
     <path id="mbfa12f991e" d="M 0 6 
C 1.591219 6 3.117479 5.367802 4.242641 4.242641 
C 5.367802 3.117479 6 1.591219 6 0 
C 6 -1.591219 5.367802 -3.117479 4.242641 -4.242641 
C 3.117479 -5.367802 1.591219 -6 0 -6 
C -1.591219 -6 -3.117479 -5.367802 -4.242641 -4.242641 
C -5.367802 -3.117479 -6 -1.591219 -6 0 
C -6 1.591219 -5.367802 3.117479 -4.242641 4.242641 
C -3.117479 5.367802 -1.591219 6 0 6 
z
" style="stroke: #000080; stroke-width: 1.5"/>
    </defs>
    <g>
     <use xlink:href="#mbfa12f991e" x="148.352679" y="233.992055" style="fill-opacity: 0; stroke: #000080; stroke-width: 1.5"/>
     <use xlink:href="#mbfa12f991e" x="186.491374" y="188.173241" style="fill-opacity: 0; stroke: #000080; stroke-width: 1.5"/>
     <use xlink:href="#mbfa12f991e" x="191.780862" y="187.501903" style="fill-opacity: 0; stroke: #000080; stroke-width: 1.5"/>
     <use xlink:href="#mbfa12f991e" x="191.780862" y="187.166234" style="fill-opacity: 0; stroke: #000080; stroke-width: 1.5"/>
     <use xlink:href="#mbfa12f991e" x="191.780862" y="187.166234" style="fill-opacity: 0; stroke: #000080; stroke-width: 1.5"/>
     <use xlink:href="#mbfa12f991e" x="360.8064" y="187.166234" style="fill-opacity: 0; stroke: #000080; stroke-width: 1.5"/>
    </g>
   </g>
   <g id="line2d_37">
    <path style="fill: none; stroke: #000080; stroke-width: 1.5; stroke-linecap: square"/>
    <g/>
   </g>
   <g id="line2d_38">
    <path d="M 230.856097 187.166234 
" clip-path="url(#pa6a7819478)" style="fill: none; stroke: #000080; stroke-width: 1.5; stroke-linecap: square"/>
    <defs>
     <path id="m6a9aa6aedc" d="M -12 12 
L 12 -12 
M -12 -12 
L 12 12 
" style="stroke: #000080"/>
    </defs>
    <g clip-path="url(#pa6a7819478)">
     <use xlink:href="#m6a9aa6aedc" x="230.856097" y="187.166234" style="fill: #000080; stroke: #000080"/>
    </g>
   </g>
   <g id="line2d_39">
    <defs>
     <path id="m1f68d9352b" d="M 0 1.5 
C 0.397805 1.5 0.77937 1.341951 1.06066 1.06066 
C 1.341951 0.77937 1.5 0.397805 1.5 0 
C 1.5 -0.397805 1.341951 -0.77937 1.06066 -1.06066 
C 0.77937 -1.341951 0.397805 -1.5 0 -1.5 
C -0.397805 -1.5 -0.77937 -1.341951 -1.06066 -1.06066 
C -1.341951 -0.77937 -1.5 -0.397805 -1.5 0 
C -1.5 0.397805 -1.341951 0.77937 -1.06066 1.06066 
C -0.77937 1.341951 -0.397805 1.5 0 1.5 
z
" style="stroke: #ff00ff"/>
    </defs>
    <g>
     <use xlink:href="#m1f68d9352b" x="209.156876" y="181.292028" style="fill: #ff00ff; stroke: #ff00ff"/>
     <use xlink:href="#m1f68d9352b" x="209.156876" y="181.292028" style="fill: #ff00ff; stroke: #ff00ff"/>
    </g>
   </g>
   <g id="line2d_40">
    <path d="M 44.560826 298.944 
L 44.560826 286.356414 
L 57.6 286.356414 
L 57.6 282.160552 
L 85.894031 282.160552 
L 85.894031 279.4752 
L 96.717523 279.4752 
L 96.717523 277.293352 
L 103.544339 277.293352 
L 103.544339 273.936662 
L 108.542628 273.936662 
L 108.542628 272.593986 
L 112.487797 272.593986 
L 112.487797 269.237297 
L 115.747307 269.237297 
L 115.747307 266.38411 
L 118.524569 266.38411 
L 118.524569 265.377103 
L 120.944062 265.377103 
L 120.944062 263.866593 
L 123.08753 263.866593 
L 123.08753 263.530924 
L 125.011554 263.530924 
L 125.011554 261.013407 
L 126.756923 261.013407 
L 126.756923 259.502897 
L 128.354013 259.502897 
L 128.354013 257.656717 
L 129.826058 257.656717 
L 129.826058 255.810538 
L 131.191226 255.810538 
L 131.191226 254.971366 
L 132.46399 254.971366 
L 132.46399 254.635697 
L 133.656071 254.635697 
L 133.656071 253.293021 
L 134.77709 253.293021 
L 134.77709 252.453848 
L 135.835047 252.453848 
L 135.835047 252.286014 
L 136.836659 252.286014 
L 136.836659 251.446841 
L 137.787626 251.446841 
L 137.787626 251.279007 
L 139.556456 251.279007 
L 139.556456 250.607669 
L 140.382174 250.607669 
L 140.382174 250.272 
L 141.932237 250.272 
L 141.932237 249.264993 
L 142.661862 249.264993 
L 142.661862 246.076138 
L 143.364242 246.076138 
L 143.364242 244.565628 
L 144.041338 244.565628 
L 144.041338 244.397793 
L 144.694906 244.397793 
L 144.694906 243.390786 
L 145.326529 243.390786 
L 145.326529 243.222952 
L 145.93763 243.222952 
L 145.93763 242.551614 
L 146.529503 242.551614 
L 146.529503 241.712441 
L 147.103321 241.712441 
L 147.103321 240.873269 
L 147.660152 240.873269 
L 147.660152 240.5376 
L 148.726679 240.5376 
L 148.726679 238.691421 
L 149.238092 238.691421 
L 149.238092 238.187917 
L 150.221009 238.187917 
L 150.221009 238.020083 
L 150.693856 238.020083 
L 150.693856 237.516579 
L 151.155108 237.516579 
L 151.155108 236.173903 
L 151.60532 236.173903 
L 151.60532 235.334731 
L 152.045009 235.334731 
L 152.045009 234.495559 
L 152.894708 234.495559 
L 152.894708 234.327724 
L 153.305585 234.327724 
L 153.305585 233.488552 
L 153.707679 233.488552 
L 153.707679 232.817214 
L 154.101358 232.817214 
L 154.101358 232.145876 
L 154.486967 232.145876 
L 154.486967 231.138869 
L 154.86483 231.138869 
L 154.86483 230.299697 
L 155.235253 230.299697 
L 155.235253 229.796193 
L 155.598521 229.796193 
L 155.598521 229.460524 
L 156.304668 229.460524 
L 156.304668 228.957021 
L 156.648044 228.957021 
L 156.648044 228.789186 
L 156.985263 228.789186 
L 156.985263 228.285683 
L 157.316545 228.285683 
L 157.316545 228.117848 
L 157.642093 228.117848 
L 157.642093 227.44651 
L 157.962102 227.44651 
L 157.962102 226.775172 
L 158.276759 226.775172 
L 158.276759 226.607338 
L 158.58624 226.607338 
L 158.58624 226.439503 
L 158.890711 226.439503 
L 158.890711 226.271669 
L 159.485256 226.271669 
L 159.485256 226.103834 
L 159.775628 226.103834 
L 159.775628 225.600331 
L 160.061585 225.600331 
L 160.061585 225.264662 
L 160.343261 225.264662 
L 160.343261 225.096828 
L 160.620781 225.096828 
L 160.620781 224.928993 
L 160.894266 224.928993 
L 160.894266 224.257655 
L 161.163832 224.257655 
L 161.163832 223.754152 
L 161.691646 223.754152 
L 161.691646 223.586317 
L 161.950101 223.586317 
L 161.950101 223.418483 
L 162.205054 223.418483 
L 162.205054 223.250648 
L 162.456597 223.250648 
L 162.456597 223.082814 
L 163.899064 223.082814 
L 163.899064 222.914979 
L 164.129077 222.914979 
L 164.129077 221.907972 
L 164.356312 221.907972 
L 164.356312 221.740138 
L 164.580835 221.740138 
L 164.580835 221.236634 
L 165.021997 221.236634 
L 165.021997 220.900966 
L 165.45305 220.900966 
L 165.45305 219.893959 
L 166.081656 219.893959 
L 166.081656 219.726124 
L 166.286609 219.726124 
L 166.286609 219.222621 
L 166.689935 219.222621 
L 166.689935 218.215614 
L 166.888401 218.215614 
L 166.888401 217.71211 
L 167.084795 217.71211 
L 167.084795 217.208607 
L 167.279159 217.208607 
L 167.279159 216.872938 
L 167.661966 216.872938 
L 167.661966 216.705103 
L 168.221954 216.705103 
L 168.221954 216.369434 
L 168.765753 216.369434 
L 168.765753 215.865931 
L 168.943582 215.865931 
L 168.943582 215.530262 
L 169.119745 215.530262 
L 169.119745 215.194593 
L 169.294273 215.194593 
L 169.294273 214.858924 
L 169.467197 214.858924 
L 169.467197 214.355421 
L 169.808349 214.355421 
L 169.808349 213.684083 
L 169.976632 213.684083 
L 169.976632 212.677076 
L 170.143423 212.677076 
L 170.143423 212.509241 
L 170.308749 212.509241 
L 170.308749 212.005738 
L 170.796182 212.005738 
L 170.796182 211.166566 
L 170.955893 211.166566 
L 170.955893 210.159559 
L 171.11426 210.159559 
L 171.11426 209.82389 
L 171.271304 209.82389 
L 171.271304 208.816883 
L 171.73472 208.816883 
L 171.73472 208.145545 
L 171.88669 208.145545 
L 171.88669 207.306372 
L 172.186995 207.306372 
L 172.186995 206.635034 
L 172.335368 206.635034 
L 172.335368 206.131531 
L 173.060174 206.131531 
L 173.060174 205.292359 
L 173.620559 205.292359 
L 173.620559 204.453186 
L 173.758086 204.453186 
L 173.758086 204.285352 
L 173.894614 204.285352 
L 173.894614 203.949683 
L 174.298352 203.949683 
L 174.298352 203.614014 
L 174.562776 203.614014 
L 174.562776 203.278345 
L 174.693607 203.278345 
L 174.693607 202.942676 
L 174.823534 202.942676 
L 174.823534 202.271338 
L 175.334451 202.271338 
L 175.334451 201.935669 
L 175.708734 201.935669 
L 175.708734 201.767834 
L 175.831859 201.767834 
L 175.831859 201.432166 
L 176.316452 201.432166 
L 176.316452 201.096497 
L 176.435674 201.096497 
L 176.435674 200.760828 
L 176.671876 200.760828 
L 176.671876 200.592993 
L 176.788874 200.592993 
L 176.788874 200.257324 
L 176.905149 200.257324 
L 176.905149 199.921655 
L 177.135565 199.921655 
L 177.135565 199.753821 
L 177.810347 199.753821 
L 177.920494 199.082483 
L 178.03 199.082483 
L 178.138873 198.411145 
L 178.354746 198.411145 
L 178.354746 198.075476 
L 178.883832 198.075476 
L 178.987886 197.571972 
L 179.398443 197.571972 
L 179.499697 196.397131 
L 179.800231 196.397131 
L 179.800231 196.229297 
L 180.193616 196.229297 
L 180.193616 196.061462 
L 180.387266 196.061462 
L 180.387266 195.893628 
L 180.578943 195.893628 
L 180.578943 195.054455 
L 180.956535 195.054455 
L 180.956535 194.550952 
L 181.142526 194.550952 
L 181.234837 194.047448 
L 181.957455 194.047448 
L 182.045861 192.872607 
L 182.133854 192.872607 
L 182.133854 192.704772 
L 182.395389 192.704772 
L 182.395389 192.369103 
L 182.823359 192.369103 
L 182.823359 192.033434 
L 183.158861 192.033434 
L 183.24181 191.194262 
L 183.488484 191.194262 
L 183.488484 190.690759 
L 183.892552 190.690759 
L 183.972335 190.187255 
L 184.130892 190.187255 
L 184.130892 189.683752 
L 184.752084 189.683752 
L 184.828311 189.180248 
L 184.904229 189.180248 
L 184.904229 188.844579 
L 185.055154 188.844579 
L 185.130164 188.173241 
L 186.079022 188.173241 
L 186.079022 188.005407 
L 186.220844 188.005407 
L 186.291356 187.501903 
L 186.361605 187.501903 
L 186.361605 187.334069 
L 186.708966 187.334069 
L 186.708966 187.166234 
L 186.982309 187.166234 
L 186.982309 186.494897 
L 187.251738 186.494897 
L 187.318496 185.991393 
L 187.385018 185.991393 
L 187.385018 185.823559 
L 187.844202 185.823559 
L 187.844202 185.655724 
L 188.418576 185.655724 
L 188.418576 185.48789 
L 188.730254 185.48789 
L 188.730254 185.320055 
L 188.97593 185.320055 
L 188.97593 185.152221 
L 189.278582 185.152221 
L 189.338532 184.648717 
L 189.694277 184.648717 
L 189.694277 184.480883 
L 189.869658 184.480883 
L 189.869658 184.145214 
L 190.499084 184.145214 
L 190.499084 183.977379 
L 190.611297 183.977379 
L 190.611297 183.64171 
L 190.943973 183.64171 
L 190.943973 183.473876 
L 191.592179 183.473876 
L 191.592179 183.306041 
L 192.874865 183.306041 
L 192.874865 183.138207 
L 193.982354 183.138207 
L 193.982354 182.970372 
L 195.85044 182.970372 
L 195.85044 182.802538 
L 196.475071 182.802538 
L 196.475071 182.634703 
L 197.158785 182.634703 
L 197.158785 182.299034 
L 197.355237 182.299034 
L 197.355237 182.1312 
L 200.180721 182.1312 
L 200.180721 181.963366 
L 203.131946 181.963366 
L 203.131946 181.627697 
L 203.754072 181.627697 
L 203.754072 181.459862 
L 209.156876 181.459862 
L 209.156876 181.292028 
L 360.8064 181.292028 
L 360.8064 181.292028 
" style="fill: none; stroke: #ff00ff; stroke-width: 1.5; stroke-linecap: square"/>
   </g>
   <g id="line2d_41">
    <defs>
     <path id="m87b63bc802" d="M -0 8.485281 
L 5.091169 0 
L 0 -8.485281 
L -5.091169 -0 
z
" style="stroke: #ff00ff; stroke-width: 1.5; stroke-linejoin: miter"/>
    </defs>
    <g>
     <use xlink:href="#m87b63bc802" x="96.717523" y="277.293352" style="fill-opacity: 0; stroke: #ff00ff; stroke-width: 1.5; stroke-linejoin: miter"/>
     <use xlink:href="#m87b63bc802" x="162.456597" y="223.250648" style="fill-opacity: 0; stroke: #ff00ff; stroke-width: 1.5; stroke-linejoin: miter"/>
     <use xlink:href="#m87b63bc802" x="209.156876" y="181.459862" style="fill-opacity: 0; stroke: #ff00ff; stroke-width: 1.5; stroke-linejoin: miter"/>
     <use xlink:href="#m87b63bc802" x="209.156876" y="181.292028" style="fill-opacity: 0; stroke: #ff00ff; stroke-width: 1.5; stroke-linejoin: miter"/>
     <use xlink:href="#m87b63bc802" x="209.156876" y="181.292028" style="fill-opacity: 0; stroke: #ff00ff; stroke-width: 1.5; stroke-linejoin: miter"/>
     <use xlink:href="#m87b63bc802" x="360.8064" y="181.292028" style="fill-opacity: 0; stroke: #ff00ff; stroke-width: 1.5; stroke-linejoin: miter"/>
    </g>
   </g>
   <g id="line2d_42">
    <path style="fill: none; stroke: #ff00ff; stroke-width: 1.5; stroke-linecap: square"/>
    <g/>
   </g>
   <g id="line2d_43">
    <path d="M 230.854215 181.292028 
" clip-path="url(#pa6a7819478)" style="fill: none; stroke: #ff00ff; stroke-width: 1.5; stroke-linecap: square"/>
    <defs>
     <path id="mf47163448f" d="M -12 12 
L 12 -12 
M -12 -12 
L 12 12 
" style="stroke: #ff00ff"/>
    </defs>
    <g clip-path="url(#pa6a7819478)">
     <use xlink:href="#mf47163448f" x="230.854215" y="181.292028" style="fill: #ff00ff; stroke: #ff00ff"/>
    </g>
   </g>
   <g id="line2d_44">
    <path d="M 360.8064 187.166234 
L 380.514816 293.10336 
" style="fill: none; stroke: #000080; stroke-width: 1.5; stroke-linecap: square"/>
    <g>
     <use xlink:href="#mbfa12f991e" x="360.8064" y="187.166234" style="fill-opacity: 0; stroke: #000080; stroke-width: 1.5"/>
     <use xlink:href="#mbfa12f991e" x="380.514816" y="293.10336" style="fill-opacity: 0; stroke: #000080; stroke-width: 1.5"/>
    </g>
   </g>
   <g id="line2d_45">
    <path d="M 360.8064 181.292028 
L 380.514816 152.928 
" style="fill: none; stroke: #ff00ff; stroke-width: 1.5; stroke-linecap: square"/>
    <g>
     <use xlink:href="#m87b63bc802" x="360.8064" y="181.292028" style="fill-opacity: 0; stroke: #ff00ff; stroke-width: 1.5; stroke-linejoin: miter"/>
     <use xlink:href="#m87b63bc802" x="380.514816" y="152.928" style="fill-opacity: 0; stroke: #ff00ff; stroke-width: 1.5; stroke-linejoin: miter"/>
    </g>
   </g>
   <g id="line2d_46">
    <path d="M 360.8064 298.944 
L 360.8064 6.912 
" style="fill: none; stroke: #000000; stroke-width: 1.5; stroke-linecap: square"/>
   </g>
   <g id="patch_3">
    <path d="M 57.6 298.944 
L 360.8064 298.944 
" style="fill: none; stroke: #000000; stroke-width: 0.8; stroke-linejoin: miter; stroke-linecap: square"/>
   </g>
   <g id="patch_4">
    <path d="M 57.6 6.912 
L 360.8064 6.912 
" style="fill: none; stroke: #000000; stroke-width: 0.8; stroke-linejoin: miter; stroke-linecap: square"/>
   </g>
   <g id="text_13">
    <!-- kerLQ -->
    <g transform="translate(386.578944 296.966485) scale(0.14 -0.14)">
     <defs>
      <path id="DejaVuSans-6b" d="M 581 4863 
L 1159 4863 
L 1159 1991 
L 2875 3500 
L 3609 3500 
L 1753 1863 
L 3688 0 
L 2938 0 
L 1159 1709 
L 1159 0 
L 581 0 
L 581 4863 
z
" transform="scale(0.015625)"/>
      <path id="DejaVuSans-4c" d="M 628 4666 
L 1259 4666 
L 1259 531 
L 3531 531 
L 3531 0 
L 628 0 
L 628 4666 
z
" transform="scale(0.015625)"/>
      <path id="DejaVuSans-51" d="M 2522 4238 
Q 1834 4238 1429 3725 
Q 1025 3213 1025 2328 
Q 1025 1447 1429 934 
Q 1834 422 2522 422 
Q 3209 422 3611 934 
Q 4013 1447 4013 2328 
Q 4013 3213 3611 3725 
Q 3209 4238 2522 4238 
z
M 3406 84 
L 4238 -825 
L 3475 -825 
L 2784 -78 
Q 2681 -84 2626 -87 
Q 2572 -91 2522 -91 
Q 1538 -91 948 567 
Q 359 1225 359 2328 
Q 359 3434 948 4092 
Q 1538 4750 2522 4750 
Q 3503 4750 4090 4092 
Q 4678 3434 4678 2328 
Q 4678 1516 4351 937 
Q 4025 359 3406 84 
z
" transform="scale(0.015625)"/>
     </defs>
     <use xlink:href="#DejaVuSans-6b"/>
     <use xlink:href="#DejaVuSans-65" x="54.285156"/>
     <use xlink:href="#DejaVuSans-72" x="115.808594"/>
     <use xlink:href="#DejaVuSans-4c" x="156.921875"/>
     <use xlink:href="#DejaVuSans-51" x="212.634766"/>
    </g>
   </g>
   <g id="text_14">
    <!-- kerComo -->
    <g transform="translate(386.578944 156.791125) scale(0.14 -0.14)">
     <defs>
      <path id="DejaVuSans-43" d="M 4122 4306 
L 4122 3641 
Q 3803 3938 3442 4084 
Q 3081 4231 2675 4231 
Q 1875 4231 1450 3742 
Q 1025 3253 1025 2328 
Q 1025 1406 1450 917 
Q 1875 428 2675 428 
Q 3081 428 3442 575 
Q 3803 722 4122 1019 
L 4122 359 
Q 3791 134 3420 21 
Q 3050 -91 2638 -91 
Q 1578 -91 968 557 
Q 359 1206 359 2328 
Q 359 3453 968 4101 
Q 1578 4750 2638 4750 
Q 3056 4750 3426 4639 
Q 3797 4528 4122 4306 
z
" transform="scale(0.015625)"/>
     </defs>
     <use xlink:href="#DejaVuSans-6b"/>
     <use xlink:href="#DejaVuSans-65" x="54.285156"/>
     <use xlink:href="#DejaVuSans-72" x="115.808594"/>
     <use xlink:href="#DejaVuSans-43" x="156.921875"/>
     <use xlink:href="#DejaVuSans-6f" x="226.746094"/>
     <use xlink:href="#DejaVuSans-6d" x="287.927734"/>
     <use xlink:href="#DejaVuSans-6f" x="385.339844"/>
    </g>
   </g>
   <g id="text_15">
    <!-- best 2016 -->
    <g transform="translate(386.578944 16.615765) scale(0.14 -0.14)">
     <defs>
      <path id="DejaVuSans-62" d="M 3116 1747 
Q 3116 2381 2855 2742 
Q 2594 3103 2138 3103 
Q 1681 3103 1420 2742 
Q 1159 2381 1159 1747 
Q 1159 1113 1420 752 
Q 1681 391 2138 391 
Q 2594 391 2855 752 
Q 3116 1113 3116 1747 
z
M 1159 2969 
Q 1341 3281 1617 3432 
Q 1894 3584 2278 3584 
Q 2916 3584 3314 3078 
Q 3713 2572 3713 1747 
Q 3713 922 3314 415 
Q 2916 -91 2278 -91 
Q 1894 -91 1617 61 
Q 1341 213 1159 525 
L 1159 0 
L 581 0 
L 581 4863 
L 1159 4863 
L 1159 2969 
z
" transform="scale(0.015625)"/>
     </defs>
     <use xlink:href="#DejaVuSans-62"/>
     <use xlink:href="#DejaVuSans-65" x="63.476562"/>
     <use xlink:href="#DejaVuSans-73" x="125"/>
     <use xlink:href="#DejaVuSans-74" x="177.099609"/>
     <use xlink:href="#DejaVuSans-20" x="216.308594"/>
     <use xlink:href="#DejaVuSans-32" x="248.095703"/>
     <use xlink:href="#DejaVuSans-30" x="311.71875"/>
     <use xlink:href="#DejaVuSans-31" x="375.341797"/>
     <use xlink:href="#DejaVuSans-36" x="438.964844"/>
    </g>
   </g>
   <g id="text_16">
    <!-- bbob-biobj f53-f55, 2-D -->
    <g transform="translate(60.632064 17.582726) scale(0.102 -0.102)">
     <defs>
      <path id="DejaVuSans-6a" d="M 603 3500 
L 1178 3500 
L 1178 -63 
Q 1178 -731 923 -1031 
Q 669 -1331 103 -1331 
L -116 -1331 
L -116 -844 
L 38 -844 
Q 366 -844 484 -692 
Q 603 -541 603 -63 
L 603 3500 
z
M 603 4863 
L 1178 4863 
L 1178 4134 
L 603 4134 
L 603 4863 
z
" transform="scale(0.015625)"/>
      <path id="DejaVuSans-35" d="M 691 4666 
L 3169 4666 
L 3169 4134 
L 1269 4134 
L 1269 2991 
Q 1406 3038 1543 3061 
Q 1681 3084 1819 3084 
Q 2600 3084 3056 2656 
Q 3513 2228 3513 1497 
Q 3513 744 3044 326 
Q 2575 -91 1722 -91 
Q 1428 -91 1123 -41 
Q 819 9 494 109 
L 494 744 
Q 775 591 1075 516 
Q 1375 441 1709 441 
Q 2250 441 2565 725 
Q 2881 1009 2881 1497 
Q 2881 1984 2565 2268 
Q 2250 2553 1709 2553 
Q 1456 2553 1204 2497 
Q 953 2441 691 2322 
L 691 4666 
z
" transform="scale(0.015625)"/>
      <path id="DejaVuSans-33" d="M 2597 2516 
Q 3050 2419 3304 2112 
Q 3559 1806 3559 1356 
Q 3559 666 3084 287 
Q 2609 -91 1734 -91 
Q 1441 -91 1130 -33 
Q 819 25 488 141 
L 488 750 
Q 750 597 1062 519 
Q 1375 441 1716 441 
Q 2309 441 2620 675 
Q 2931 909 2931 1356 
Q 2931 1769 2642 2001 
Q 2353 2234 1838 2234 
L 1294 2234 
L 1294 2753 
L 1863 2753 
Q 2328 2753 2575 2939 
Q 2822 3125 2822 3475 
Q 2822 3834 2567 4026 
Q 2313 4219 1838 4219 
Q 1578 4219 1281 4162 
Q 984 4106 628 3988 
L 628 4550 
Q 988 4650 1302 4700 
Q 1616 4750 1894 4750 
Q 2613 4750 3031 4423 
Q 3450 4097 3450 3541 
Q 3450 3153 3228 2886 
Q 3006 2619 2597 2516 
z
" transform="scale(0.015625)"/>
      <path id="DejaVuSans-44" d="M 1259 4147 
L 1259 519 
L 2022 519 
Q 2988 519 3436 956 
Q 3884 1394 3884 2338 
Q 3884 3275 3436 3711 
Q 2988 4147 2022 4147 
L 1259 4147 
z
M 628 4666 
L 1925 4666 
Q 3281 4666 3915 4102 
Q 4550 3538 4550 2338 
Q 4550 1131 3912 565 
Q 3275 0 1925 0 
L 628 0 
L 628 4666 
z
" transform="scale(0.015625)"/>
     </defs>
     <use xlink:href="#DejaVuSans-62"/>
     <use xlink:href="#DejaVuSans-62" x="63.476562"/>
     <use xlink:href="#DejaVuSans-6f" x="126.953125"/>
     <use xlink:href="#DejaVuSans-62" x="188.134766"/>
     <use xlink:href="#DejaVuSans-2d" x="251.611328"/>
     <use xlink:href="#DejaVuSans-62" x="287.695312"/>
     <use xlink:href="#DejaVuSans-69" x="351.171875"/>
     <use xlink:href="#DejaVuSans-6f" x="378.955078"/>
     <use xlink:href="#DejaVuSans-62" x="440.136719"/>
     <use xlink:href="#DejaVuSans-6a" x="503.613281"/>
     <use xlink:href="#DejaVuSans-20" x="531.396484"/>
     <use xlink:href="#DejaVuSans-66" x="563.183594"/>
     <use xlink:href="#DejaVuSans-35" x="598.388672"/>
     <use xlink:href="#DejaVuSans-33" x="662.011719"/>
     <use xlink:href="#DejaVuSans-2d" x="725.634766"/>
     <use xlink:href="#DejaVuSans-66" x="761.71875"/>
     <use xlink:href="#DejaVuSans-35" x="796.923828"/>
     <use xlink:href="#DejaVuSans-35" x="860.546875"/>
     <use xlink:href="#DejaVuSans-2c" x="924.169922"/>
     <use xlink:href="#DejaVuSans-20" x="955.957031"/>
     <use xlink:href="#DejaVuSans-32" x="987.744141"/>
     <use xlink:href="#DejaVuSans-2d" x="1051.367188"/>
     <use xlink:href="#DejaVuSans-44" x="1087.451172"/>
    </g>
    <!-- 58 targets: 1..-1.0e-4 -->
    <g transform="translate(60.632064 29.004495) scale(0.102 -0.102)">
     <defs>
      <path id="DejaVuSans-3a" d="M 750 794 
L 1409 794 
L 1409 0 
L 750 0 
L 750 794 
z
M 750 3309 
L 1409 3309 
L 1409 2516 
L 750 2516 
L 750 3309 
z
" transform="scale(0.015625)"/>
     </defs>
     <use xlink:href="#DejaVuSans-35"/>
     <use xlink:href="#DejaVuSans-38" x="63.623047"/>
     <use xlink:href="#DejaVuSans-20" x="127.246094"/>
     <use xlink:href="#DejaVuSans-74" x="159.033203"/>
     <use xlink:href="#DejaVuSans-61" x="198.242188"/>
     <use xlink:href="#DejaVuSans-72" x="259.521484"/>
     <use xlink:href="#DejaVuSans-67" x="298.884766"/>
     <use xlink:href="#DejaVuSans-65" x="362.361328"/>
     <use xlink:href="#DejaVuSans-74" x="423.884766"/>
     <use xlink:href="#DejaVuSans-73" x="463.09375"/>
     <use xlink:href="#DejaVuSans-3a" x="515.193359"/>
     <use xlink:href="#DejaVuSans-20" x="548.884766"/>
     <use xlink:href="#DejaVuSans-31" x="580.671875"/>
     <use xlink:href="#DejaVuSans-2e" x="644.294922"/>
     <use xlink:href="#DejaVuSans-2e" x="676.082031"/>
     <use xlink:href="#DejaVuSans-2d" x="707.869141"/>
     <use xlink:href="#DejaVuSans-31" x="743.953125"/>
     <use xlink:href="#DejaVuSans-2e" x="807.576172"/>
     <use xlink:href="#DejaVuSans-30" x="839.363281"/>
     <use xlink:href="#DejaVuSans-65" x="902.986328"/>
     <use xlink:href="#DejaVuSans-2d" x="964.509766"/>
     <use xlink:href="#DejaVuSans-34" x="1000.59375"/>
    </g>
    <!-- 10 instances -->
    <g transform="translate(60.632064 40.426264) scale(0.102 -0.102)">
     <use xlink:href="#DejaVuSans-31"/>
     <use xlink:href="#DejaVuSans-30" x="63.623047"/>
     <use xlink:href="#DejaVuSans-20" x="127.246094"/>
     <use xlink:href="#DejaVuSans-69" x="159.033203"/>
     <use xlink:href="#DejaVuSans-6e" x="186.816406"/>
     <use xlink:href="#DejaVuSans-73" x="250.195312"/>
     <use xlink:href="#DejaVuSans-74" x="302.294922"/>
     <use xlink:href="#DejaVuSans-61" x="341.503906"/>
     <use xlink:href="#DejaVuSans-6e" x="402.783203"/>
     <use xlink:href="#DejaVuSans-63" x="466.162109"/>
     <use xlink:href="#DejaVuSans-65" x="521.142578"/>
     <use xlink:href="#DejaVuSans-73" x="582.666016"/>
    </g>
   </g>
   <g id="text_17">
    <!-- v2.6, hv-hash=ff0e71e8cd978373 -->
    <g style="fill: #808080" transform="translate(123.707887 293.943992) scale(0.1 -0.1)">
     <defs>
      <path id="DejaVuSans-68" d="M 3513 2113 
L 3513 0 
L 2938 0 
L 2938 2094 
Q 2938 2591 2744 2837 
Q 2550 3084 2163 3084 
Q 1697 3084 1428 2787 
Q 1159 2491 1159 1978 
L 1159 0 
L 581 0 
L 581 4863 
L 1159 4863 
L 1159 2956 
Q 1366 3272 1645 3428 
Q 1925 3584 2291 3584 
Q 2894 3584 3203 3211 
Q 3513 2838 3513 2113 
z
" transform="scale(0.015625)"/>
      <path id="DejaVuSans-3d" d="M 678 2906 
L 4684 2906 
L 4684 2381 
L 678 2381 
L 678 2906 
z
M 678 1631 
L 4684 1631 
L 4684 1100 
L 678 1100 
L 678 1631 
z
" transform="scale(0.015625)"/>
      <path id="DejaVuSans-37" d="M 525 4666 
L 3525 4666 
L 3525 4397 
L 1831 0 
L 1172 0 
L 2766 4134 
L 525 4134 
L 525 4666 
z
" transform="scale(0.015625)"/>
      <path id="DejaVuSans-39" d="M 703 97 
L 703 672 
Q 941 559 1184 500 
Q 1428 441 1663 441 
Q 2288 441 2617 861 
Q 2947 1281 2994 2138 
Q 2813 1869 2534 1725 
Q 2256 1581 1919 1581 
Q 1219 1581 811 2004 
Q 403 2428 403 3163 
Q 403 3881 828 4315 
Q 1253 4750 1959 4750 
Q 2769 4750 3195 4129 
Q 3622 3509 3622 2328 
Q 3622 1225 3098 567 
Q 2575 -91 1691 -91 
Q 1453 -91 1209 -44 
Q 966 3 703 97 
z
M 1959 2075 
Q 2384 2075 2632 2365 
Q 2881 2656 2881 3163 
Q 2881 3666 2632 3958 
Q 2384 4250 1959 4250 
Q 1534 4250 1286 3958 
Q 1038 3666 1038 3163 
Q 1038 2656 1286 2365 
Q 1534 2075 1959 2075 
z
" transform="scale(0.015625)"/>
     </defs>
     <use xlink:href="#DejaVuSans-76"/>
     <use xlink:href="#DejaVuSans-32" x="59.179688"/>
     <use xlink:href="#DejaVuSans-2e" x="122.802734"/>
     <use xlink:href="#DejaVuSans-36" x="154.589844"/>
     <use xlink:href="#DejaVuSans-2c" x="218.212891"/>
     <use xlink:href="#DejaVuSans-20" x="250"/>
     <use xlink:href="#DejaVuSans-68" x="281.787109"/>
     <use xlink:href="#DejaVuSans-76" x="345.166016"/>
     <use xlink:href="#DejaVuSans-2d" x="401.720703"/>
     <use xlink:href="#DejaVuSans-68" x="437.804688"/>
     <use xlink:href="#DejaVuSans-61" x="501.183594"/>
     <use xlink:href="#DejaVuSans-73" x="562.462891"/>
     <use xlink:href="#DejaVuSans-68" x="614.5625"/>
     <use xlink:href="#DejaVuSans-3d" x="677.941406"/>
     <use xlink:href="#DejaVuSans-66" x="761.730469"/>
     <use xlink:href="#DejaVuSans-66" x="796.935547"/>
     <use xlink:href="#DejaVuSans-30" x="832.140625"/>
     <use xlink:href="#DejaVuSans-65" x="895.763672"/>
     <use xlink:href="#DejaVuSans-37" x="957.287109"/>
     <use xlink:href="#DejaVuSans-31" x="1020.910156"/>
     <use xlink:href="#DejaVuSans-65" x="1084.533203"/>
     <use xlink:href="#DejaVuSans-38" x="1146.056641"/>
     <use xlink:href="#DejaVuSans-63" x="1209.679688"/>
     <use xlink:href="#DejaVuSans-64" x="1264.660156"/>
     <use xlink:href="#DejaVuSans-39" x="1328.136719"/>
     <use xlink:href="#DejaVuSans-37" x="1391.759766"/>
     <use xlink:href="#DejaVuSans-38" x="1455.382812"/>
     <use xlink:href="#DejaVuSans-33" x="1519.005859"/>
     <use xlink:href="#DejaVuSans-37" x="1582.628906"/>
     <use xlink:href="#DejaVuSans-33" x="1646.251953"/>
    </g>
   </g>
  </g>
 </g>
 <defs>
  <clipPath id="pa6a7819478">
   <rect x="57.6" y="6.912" width="303.2064" height="292.032"/>
  </clipPath>
 </defs>
</svg>
