<?xml version="1.0" encoding="utf-8" standalone="no"?>
<!DOCTYPE svg PUBLIC "-//W3C//DTD SVG 1.1//EN"
  "http://www.w3.org/Graphics/SVG/1.1/DTD/svg11.dtd">
<svg xmlns:xlink="http://www.w3.org/1999/xlink" width="460.8pt" height="345.6pt" viewBox="0 0 460.8 345.6" xmlns="http://www.w3.org/2000/svg" version="1.1">
 <metadata>
  <rdf:RDF xmlns:dc="http://purl.org/dc/elements/1.1/" xmlns:cc="http://creativecommons.org/ns#" xmlns:rdf="http://www.w3.org/1999/02/22-rdf-syntax-ns#">
   <cc:Work>
    <dc:type rdf:resource="http://purl.org/dc/dcmitype/StillImage"/>
    <dc:date>2023-02-13T15:00:03.014506</dc:date>
    <dc:format>image/svg+xml</dc:format>
    <dc:creator>
     <cc:Agent>
      <dc:title>Matplotlib v3.6.3, https://matplotlib.org/</dc:title>
     </cc:Agent>
    </dc:creator>
   </cc:Work>
  </rdf:RDF>
 </metadata>
 <defs>
  <style type="text/css">*{stroke-linejoin: round; stroke-linecap: butt}</style>
 </defs>
 <g id="figure_1">
  <g id="patch_1">
   <path d="M 0 345.6 
L 460.8 345.6 
L 460.8 0 
L 0 0 
z
" style="fill: #ffffff"/>
  </g>
  <g id="axes_1">
   <g id="patch_2">
    <path d="M 57.6 298.944 
L 360.8064 298.944 
L 360.8064 6.912 
L 57.6 6.912 
z
" style="fill: #ffffff"/>
   </g>
   <g id="line2d_1">
    <path d="M 40.363149 298.944 
L 40.363149 297.685241 
L 47.990577 297.685241 
L 47.990577 296.426483 
L 53.402323 296.426483 
L 53.402323 293.908966 
L 57.6 293.908966 
L 57.6 292.650207 
L 61.029752 292.650207 
L 61.029752 291.391448 
L 66.441498 291.391448 
L 66.441498 286.356414 
L 74.068926 286.356414 
L 74.068926 283.838897 
L 83.678349 283.838897 
L 83.678349 276.286345 
L 87.1081 276.286345 
L 87.1081 273.768828 
L 90.668036 273.768828 
L 90.668036 272.510069 
L 95.250946 272.510069 
L 95.250946 271.25131 
L 95.752617 271.25131 
L 95.752617 269.992552 
L 97.18203 269.992552 
L 97.18203 268.733793 
L 101.287718 268.733793 
L 101.287718 261.181241 
L 108.034177 261.181241 
L 108.034177 258.663724 
L 108.29012 258.663724 
L 108.29012 256.146207 
L 108.542628 256.146207 
L 108.542628 252.369931 
L 110.221204 252.369931 
L 110.221204 248.593655 
L 114.872193 248.593655 
L 114.872193 247.334897 
L 117.226706 247.334897 
L 117.226706 246.076138 
L 117.384126 246.076138 
L 117.384126 243.558621 
L 123.825333 243.558621 
L 123.825333 241.041103 
L 127.458055 241.041103 
L 127.458055 238.523586 
L 130.964122 238.523586 
L 130.964122 236.006069 
L 132.56918 236.006069 
L 132.56918 232.229793 
L 133.120474 232.229793 
L 133.120474 230.971034 
L 138.36167 230.971034 
L 138.36167 227.194759 
L 141.349389 227.194759 
L 141.349389 224.677241 
L 141.953481 224.677241 
L 142.038218 220.900966 
L 143.888708 220.900966 
L 143.888708 218.383448 
L 147.816265 218.383448 
L 147.816265 214.607172 
L 149.338728 214.607172 
L 149.338728 212.089655 
L 149.931489 212.089655 
L 149.931489 209.572138 
L 150.234685 209.572138 
L 150.234685 207.054621 
L 154.80059 207.054621 
L 154.80059 204.537103 
L 156.442771 204.537103 
L 156.442771 202.019586 
L 156.735336 202.019586 
L 156.735336 199.502069 
L 158.612531 199.502069 
L 158.612531 195.725793 
L 161.869254 195.725793 
L 161.869254 193.208276 
L 162.761101 193.208276 
L 162.8032 189.432 
L 163.27386 189.432 
L 163.27386 188.173241 
L 167.394821 188.173241 
L 167.394821 185.655724 
L 169.491772 185.655724 
L 169.491772 181.879448 
L 171.127772 181.879448 
L 171.127772 178.103172 
L 173.302386 178.103172 
L 173.302386 175.585655 
L 176.086096 175.585655 
L 176.162047 171.809379 
L 177.46634 171.809379 
L 177.46634 170.550621 
L 180.841365 170.550621 
L 180.841365 169.291862 
L 181.428529 169.291862 
L 181.428529 168.033103 
L 183.234714 168.033103 
L 183.234714 164.256828 
L 192.544641 164.256828 
L 192.65106 156.704276 
L 194.252952 156.704276 
L 194.252952 152.928 
L 196.632393 152.928 
L 196.632393 150.410483 
L 197.331771 150.410483 
L 197.331771 147.892966 
L 199.278175 147.892966 
L 199.278175 146.634207 
L 205.230065 146.634207 
L 205.230065 142.857931 
L 205.598232 142.857931 
L 205.598232 141.599172 
L 206.488994 141.599172 
L 206.488994 140.340414 
L 206.717132 140.340414 
L 206.717132 139.081655 
L 212.668941 139.081655 
L 212.668941 136.564138 
L 214.061825 136.564138 
L 214.061825 132.787862 
L 214.354515 132.787862 
L 214.354515 129.011586 
L 215.321728 129.011586 
L 215.321728 125.23531 
L 219.39922 125.23531 
L 219.39922 122.717793 
L 221.310853 122.717793 
L 221.310853 121.459034 
L 222.428375 121.459034 
L 222.428375 120.200276 
L 223.739859 120.200276 
L 223.739859 118.941517 
L 225.631267 118.941517 
L 225.631267 117.682759 
L 228.12829 117.682759 
L 228.12829 113.906483 
L 230.350545 113.906483 
L 230.350545 110.130207 
L 232.491253 110.130207 
L 232.491253 106.353931 
L 233.256211 106.353931 
L 233.256211 102.577655 
L 234.475249 102.577655 
L 234.475249 100.060138 
L 237.945989 100.060138 
L 237.945989 97.542621 
L 240.215376 97.542621 
L 240.215376 96.283862 
L 243.518011 96.283862 
L 243.518011 95.025103 
L 244.133104 95.025103 
L 244.172267 88.73131 
L 246.805807 88.73131 
L 246.805807 86.213793 
L 248.31208 86.213793 
L 248.31208 84.955034 
L 248.706515 84.955034 
L 248.706515 81.178759 
L 248.891515 81.178759 
L 248.891515 78.661241 
L 253.118024 78.661241 
L 253.118024 76.143724 
L 253.928775 76.143724 
L 253.928775 73.626207 
L 254.386539 73.626207 
L 254.386539 71.10869 
L 256.338994 71.10869 
L 256.338994 69.849931 
L 258.80837 69.849931 
L 258.80837 66.073655 
L 259.921311 66.073655 
L 259.921311 63.556138 
L 263.642154 63.556138 
L 263.642154 62.297379 
L 264.700103 62.297379 
L 264.700103 59.779862 
L 266.423815 59.779862 
L 266.423815 58.521103 
L 268.693641 58.521103 
L 268.693641 56.003586 
L 271.432698 56.003586 
L 271.432698 52.22731 
L 273.354503 52.22731 
L 273.354503 48.451034 
L 273.644974 48.451034 
L 273.644974 45.933517 
L 281.664615 45.933517 
L 281.664615 42.157241 
L 360.8064 42.157241 
L 360.8064 42.157241 
" style="fill: none; stroke: #f5deb3; stroke-width: 4; stroke-linecap: square"/>
   </g>
   <g id="line2d_2">
    <defs>
     <path id="m4332d6665d" d="M -0 7.778175 
L 7.778175 0 
L 0 -7.778175 
L -7.778175 -0 
z
" style="stroke: #f5deb3; stroke-width: 1.5; stroke-linejoin: miter"/>
    </defs>
    <g>
     <use xlink:href="#m4332d6665d" x="108.542628" y="252.369931" style="fill: #f5deb3; stroke: #f5deb3; stroke-width: 1.5; stroke-linejoin: miter"/>
     <use xlink:href="#m4332d6665d" x="177.46634" y="171.809379" style="fill: #f5deb3; stroke: #f5deb3; stroke-width: 1.5; stroke-linejoin: miter"/>
     <use xlink:href="#m4332d6665d" x="228.12829" y="113.906483" style="fill: #f5deb3; stroke: #f5deb3; stroke-width: 1.5; stroke-linejoin: miter"/>
     <use xlink:href="#m4332d6665d" x="281.664615" y="45.933517" style="fill: #f5deb3; stroke: #f5deb3; stroke-width: 1.5; stroke-linejoin: miter"/>
     <use xlink:href="#m4332d6665d" x="281.664615" y="42.157241" style="fill: #f5deb3; stroke: #f5deb3; stroke-width: 1.5; stroke-linejoin: miter"/>
     <use xlink:href="#m4332d6665d" x="360.8064" y="42.157241" style="fill: #f5deb3; stroke: #f5deb3; stroke-width: 1.5; stroke-linejoin: miter"/>
    </g>
   </g>
   <g id="line2d_3">
    <path style="fill: none; stroke: #f5deb3; stroke-width: 4; stroke-linecap: square"/>
    <g/>
   </g>
   <g id="line2d_4">
    <path d="M 360.8064 42.157241 
L 380.514816 12.75264 
" style="fill: none; stroke: #f5deb3; stroke-width: 4; stroke-linecap: square"/>
    <g>
     <use xlink:href="#m4332d6665d" x="360.8064" y="42.157241" style="fill: #f5deb3; stroke: #f5deb3; stroke-width: 1.5; stroke-linejoin: miter"/>
     <use xlink:href="#m4332d6665d" x="380.514816" y="12.75264" style="fill: #f5deb3; stroke: #f5deb3; stroke-width: 1.5; stroke-linejoin: miter"/>
    </g>
   </g>
   <g id="matplotlib.axis_1">
    <g id="xtick_1">
     <g id="line2d_5">
      <path d="M 57.6 298.944 
L 57.6 6.912 
" clip-path="url(#pd046b97082)" style="fill: none; stroke: #b0b0b0; stroke-width: 0.8; stroke-linecap: square"/>
     </g>
     <g id="line2d_6">
      <defs>
       <path id="mf19ab6c882" d="M 0 0 
L 0 3.5 
" style="stroke: #000000; stroke-width: 0.8"/>
      </defs>
      <g>
       <use xlink:href="#mf19ab6c882" x="57.6" y="298.944" style="stroke: #000000; stroke-width: 0.8"/>
      </g>
     </g>
     <g id="text_1">
      <!-- 0 -->
      <g transform="translate(52.191875 318.861344) scale(0.17 -0.17)">
       <defs>
        <path id="DejaVuSans-30" d="M 2034 4250 
Q 1547 4250 1301 3770 
Q 1056 3291 1056 2328 
Q 1056 1369 1301 889 
Q 1547 409 2034 409 
Q 2525 409 2770 889 
Q 3016 1369 3016 2328 
Q 3016 3291 2770 3770 
Q 2525 4250 2034 4250 
z
M 2034 4750 
Q 2819 4750 3233 4129 
Q 3647 3509 3647 2328 
Q 3647 1150 3233 529 
Q 2819 -91 2034 -91 
Q 1250 -91 836 529 
Q 422 1150 422 2328 
Q 422 3509 836 4129 
Q 1250 4750 2034 4750 
z
" transform="scale(0.015625)"/>
       </defs>
       <use xlink:href="#DejaVuSans-30"/>
      </g>
     </g>
    </g>
    <g id="xtick_2">
     <g id="line2d_7">
      <path d="M 144.2304 298.944 
L 144.2304 6.912 
" clip-path="url(#pd046b97082)" style="fill: none; stroke: #b0b0b0; stroke-width: 0.8; stroke-linecap: square"/>
     </g>
     <g id="line2d_8">
      <g>
       <use xlink:href="#mf19ab6c882" x="144.2304" y="298.944" style="stroke: #000000; stroke-width: 0.8"/>
      </g>
     </g>
     <g id="text_2">
      <!-- 2 -->
      <g transform="translate(138.822275 318.861344) scale(0.17 -0.17)">
       <defs>
        <path id="DejaVuSans-32" d="M 1228 531 
L 3431 531 
L 3431 0 
L 469 0 
L 469 531 
Q 828 903 1448 1529 
Q 2069 2156 2228 2338 
Q 2531 2678 2651 2914 
Q 2772 3150 2772 3378 
Q 2772 3750 2511 3984 
Q 2250 4219 1831 4219 
Q 1534 4219 1204 4116 
Q 875 4013 500 3803 
L 500 4441 
Q 881 4594 1212 4672 
Q 1544 4750 1819 4750 
Q 2544 4750 2975 4387 
Q 3406 4025 3406 3419 
Q 3406 3131 3298 2873 
Q 3191 2616 2906 2266 
Q 2828 2175 2409 1742 
Q 1991 1309 1228 531 
z
" transform="scale(0.015625)"/>
       </defs>
       <use xlink:href="#DejaVuSans-32"/>
      </g>
     </g>
    </g>
    <g id="xtick_3">
     <g id="line2d_9">
      <path d="M 230.8608 298.944 
L 230.8608 6.912 
" clip-path="url(#pd046b97082)" style="fill: none; stroke: #b0b0b0; stroke-width: 0.8; stroke-linecap: square"/>
     </g>
     <g id="line2d_10">
      <g>
       <use xlink:href="#mf19ab6c882" x="230.8608" y="298.944" style="stroke: #000000; stroke-width: 0.8"/>
      </g>
     </g>
     <g id="text_3">
      <!-- 4 -->
      <g transform="translate(225.452675 318.861344) scale(0.17 -0.17)">
       <defs>
        <path id="DejaVuSans-34" d="M 2419 4116 
L 825 1625 
L 2419 1625 
L 2419 4116 
z
M 2253 4666 
L 3047 4666 
L 3047 1625 
L 3713 1625 
L 3713 1100 
L 3047 1100 
L 3047 0 
L 2419 0 
L 2419 1100 
L 313 1100 
L 313 1709 
L 2253 4666 
z
" transform="scale(0.015625)"/>
       </defs>
       <use xlink:href="#DejaVuSans-34"/>
      </g>
     </g>
    </g>
    <g id="xtick_4">
     <g id="line2d_11">
      <path d="M 317.4912 298.944 
L 317.4912 6.912 
" clip-path="url(#pd046b97082)" style="fill: none; stroke: #b0b0b0; stroke-width: 0.8; stroke-linecap: square"/>
     </g>
     <g id="line2d_12">
      <g>
       <use xlink:href="#mf19ab6c882" x="317.4912" y="298.944" style="stroke: #000000; stroke-width: 0.8"/>
      </g>
     </g>
     <g id="text_4">
      <!-- 6 -->
      <g transform="translate(312.083075 318.861344) scale(0.17 -0.17)">
       <defs>
        <path id="DejaVuSans-36" d="M 2113 2584 
Q 1688 2584 1439 2293 
Q 1191 2003 1191 1497 
Q 1191 994 1439 701 
Q 1688 409 2113 409 
Q 2538 409 2786 701 
Q 3034 994 3034 1497 
Q 3034 2003 2786 2293 
Q 2538 2584 2113 2584 
z
M 3366 4563 
L 3366 3988 
Q 3128 4100 2886 4159 
Q 2644 4219 2406 4219 
Q 1781 4219 1451 3797 
Q 1122 3375 1075 2522 
Q 1259 2794 1537 2939 
Q 1816 3084 2150 3084 
Q 2853 3084 3261 2657 
Q 3669 2231 3669 1497 
Q 3669 778 3244 343 
Q 2819 -91 2113 -91 
Q 1303 -91 875 529 
Q 447 1150 447 2328 
Q 447 3434 972 4092 
Q 1497 4750 2381 4750 
Q 2619 4750 2861 4703 
Q 3103 4656 3366 4563 
z
" transform="scale(0.015625)"/>
       </defs>
       <use xlink:href="#DejaVuSans-36"/>
      </g>
     </g>
    </g>
    <g id="xtick_5">
     <g id="line2d_13">
      <path d="M 100.9152 298.944 
L 100.9152 6.912 
" clip-path="url(#pd046b97082)" style="fill: none; stroke: #b0b0b0; stroke-width: 0.8; stroke-linecap: square"/>
     </g>
     <g id="line2d_14">
      <defs>
       <path id="m93b1cbc74e" d="M 0 0 
L 0 2 
" style="stroke: #000000; stroke-width: 0.6"/>
      </defs>
      <g>
       <use xlink:href="#m93b1cbc74e" x="100.9152" y="298.944" style="stroke: #000000; stroke-width: 0.6"/>
      </g>
     </g>
    </g>
    <g id="xtick_6">
     <g id="line2d_15">
      <path d="M 187.5456 298.944 
L 187.5456 6.912 
" clip-path="url(#pd046b97082)" style="fill: none; stroke: #b0b0b0; stroke-width: 0.8; stroke-linecap: square"/>
     </g>
     <g id="line2d_16">
      <g>
       <use xlink:href="#m93b1cbc74e" x="187.5456" y="298.944" style="stroke: #000000; stroke-width: 0.6"/>
      </g>
     </g>
    </g>
    <g id="xtick_7">
     <g id="line2d_17">
      <path d="M 274.176 298.944 
L 274.176 6.912 
" clip-path="url(#pd046b97082)" style="fill: none; stroke: #b0b0b0; stroke-width: 0.8; stroke-linecap: square"/>
     </g>
     <g id="line2d_18">
      <g>
       <use xlink:href="#m93b1cbc74e" x="274.176" y="298.944" style="stroke: #000000; stroke-width: 0.6"/>
      </g>
     </g>
    </g>
    <g id="xtick_8">
     <g id="line2d_19">
      <path d="M 360.8064 298.944 
L 360.8064 6.912 
" clip-path="url(#pd046b97082)" style="fill: none; stroke: #b0b0b0; stroke-width: 0.8; stroke-linecap: square"/>
     </g>
     <g id="line2d_20">
      <g>
       <use xlink:href="#m93b1cbc74e" x="360.8064" y="298.944" style="stroke: #000000; stroke-width: 0.6"/>
      </g>
     </g>
    </g>
    <g id="text_5">
     <!-- log10(# f-evals / dimension) -->
     <g transform="translate(88.823278 339.314156) scale(0.17 -0.17)">
      <defs>
       <path id="DejaVuSans-6c" d="M 603 4863 
L 1178 4863 
L 1178 0 
L 603 0 
L 603 4863 
z
" transform="scale(0.015625)"/>
       <path id="DejaVuSans-6f" d="M 1959 3097 
Q 1497 3097 1228 2736 
Q 959 2375 959 1747 
Q 959 1119 1226 758 
Q 1494 397 1959 397 
Q 2419 397 2687 759 
Q 2956 1122 2956 1747 
Q 2956 2369 2687 2733 
Q 2419 3097 1959 3097 
z
M 1959 3584 
Q 2709 3584 3137 3096 
Q 3566 2609 3566 1747 
Q 3566 888 3137 398 
Q 2709 -91 1959 -91 
Q 1206 -91 779 398 
Q 353 888 353 1747 
Q 353 2609 779 3096 
Q 1206 3584 1959 3584 
z
" transform="scale(0.015625)"/>
       <path id="DejaVuSans-67" d="M 2906 1791 
Q 2906 2416 2648 2759 
Q 2391 3103 1925 3103 
Q 1463 3103 1205 2759 
Q 947 2416 947 1791 
Q 947 1169 1205 825 
Q 1463 481 1925 481 
Q 2391 481 2648 825 
Q 2906 1169 2906 1791 
z
M 3481 434 
Q 3481 -459 3084 -895 
Q 2688 -1331 1869 -1331 
Q 1566 -1331 1297 -1286 
Q 1028 -1241 775 -1147 
L 775 -588 
Q 1028 -725 1275 -790 
Q 1522 -856 1778 -856 
Q 2344 -856 2625 -561 
Q 2906 -266 2906 331 
L 2906 616 
Q 2728 306 2450 153 
Q 2172 0 1784 0 
Q 1141 0 747 490 
Q 353 981 353 1791 
Q 353 2603 747 3093 
Q 1141 3584 1784 3584 
Q 2172 3584 2450 3431 
Q 2728 3278 2906 2969 
L 2906 3500 
L 3481 3500 
L 3481 434 
z
" transform="scale(0.015625)"/>
       <path id="DejaVuSans-31" d="M 794 531 
L 1825 531 
L 1825 4091 
L 703 3866 
L 703 4441 
L 1819 4666 
L 2450 4666 
L 2450 531 
L 3481 531 
L 3481 0 
L 794 0 
L 794 531 
z
" transform="scale(0.015625)"/>
       <path id="DejaVuSans-28" d="M 1984 4856 
Q 1566 4138 1362 3434 
Q 1159 2731 1159 2009 
Q 1159 1288 1364 580 
Q 1569 -128 1984 -844 
L 1484 -844 
Q 1016 -109 783 600 
Q 550 1309 550 2009 
Q 550 2706 781 3412 
Q 1013 4119 1484 4856 
L 1984 4856 
z
" transform="scale(0.015625)"/>
       <path id="DejaVuSans-23" d="M 3272 2816 
L 2363 2816 
L 2100 1772 
L 3016 1772 
L 3272 2816 
z
M 2803 4594 
L 2478 3297 
L 3391 3297 
L 3719 4594 
L 4219 4594 
L 3897 3297 
L 4872 3297 
L 4872 2816 
L 3775 2816 
L 3519 1772 
L 4513 1772 
L 4513 1294 
L 3397 1294 
L 3072 0 
L 2572 0 
L 2894 1294 
L 1978 1294 
L 1656 0 
L 1153 0 
L 1478 1294 
L 494 1294 
L 494 1772 
L 1594 1772 
L 1856 2816 
L 850 2816 
L 850 3297 
L 1978 3297 
L 2297 4594 
L 2803 4594 
z
" transform="scale(0.015625)"/>
       <path id="DejaVuSans-20" transform="scale(0.015625)"/>
       <path id="DejaVuSans-66" d="M 2375 4863 
L 2375 4384 
L 1825 4384 
Q 1516 4384 1395 4259 
Q 1275 4134 1275 3809 
L 1275 3500 
L 2222 3500 
L 2222 3053 
L 1275 3053 
L 1275 0 
L 697 0 
L 697 3053 
L 147 3053 
L 147 3500 
L 697 3500 
L 697 3744 
Q 697 4328 969 4595 
Q 1241 4863 1831 4863 
L 2375 4863 
z
" transform="scale(0.015625)"/>
       <path id="DejaVuSans-2d" d="M 313 2009 
L 1997 2009 
L 1997 1497 
L 313 1497 
L 313 2009 
z
" transform="scale(0.015625)"/>
       <path id="DejaVuSans-65" d="M 3597 1894 
L 3597 1613 
L 953 1613 
Q 991 1019 1311 708 
Q 1631 397 2203 397 
Q 2534 397 2845 478 
Q 3156 559 3463 722 
L 3463 178 
Q 3153 47 2828 -22 
Q 2503 -91 2169 -91 
Q 1331 -91 842 396 
Q 353 884 353 1716 
Q 353 2575 817 3079 
Q 1281 3584 2069 3584 
Q 2775 3584 3186 3129 
Q 3597 2675 3597 1894 
z
M 3022 2063 
Q 3016 2534 2758 2815 
Q 2500 3097 2075 3097 
Q 1594 3097 1305 2825 
Q 1016 2553 972 2059 
L 3022 2063 
z
" transform="scale(0.015625)"/>
       <path id="DejaVuSans-76" d="M 191 3500 
L 800 3500 
L 1894 563 
L 2988 3500 
L 3597 3500 
L 2284 0 
L 1503 0 
L 191 3500 
z
" transform="scale(0.015625)"/>
       <path id="DejaVuSans-61" d="M 2194 1759 
Q 1497 1759 1228 1600 
Q 959 1441 959 1056 
Q 959 750 1161 570 
Q 1363 391 1709 391 
Q 2188 391 2477 730 
Q 2766 1069 2766 1631 
L 2766 1759 
L 2194 1759 
z
M 3341 1997 
L 3341 0 
L 2766 0 
L 2766 531 
Q 2569 213 2275 61 
Q 1981 -91 1556 -91 
Q 1019 -91 701 211 
Q 384 513 384 1019 
Q 384 1609 779 1909 
Q 1175 2209 1959 2209 
L 2766 2209 
L 2766 2266 
Q 2766 2663 2505 2880 
Q 2244 3097 1772 3097 
Q 1472 3097 1187 3025 
Q 903 2953 641 2809 
L 641 3341 
Q 956 3463 1253 3523 
Q 1550 3584 1831 3584 
Q 2591 3584 2966 3190 
Q 3341 2797 3341 1997 
z
" transform="scale(0.015625)"/>
       <path id="DejaVuSans-73" d="M 2834 3397 
L 2834 2853 
Q 2591 2978 2328 3040 
Q 2066 3103 1784 3103 
Q 1356 3103 1142 2972 
Q 928 2841 928 2578 
Q 928 2378 1081 2264 
Q 1234 2150 1697 2047 
L 1894 2003 
Q 2506 1872 2764 1633 
Q 3022 1394 3022 966 
Q 3022 478 2636 193 
Q 2250 -91 1575 -91 
Q 1294 -91 989 -36 
Q 684 19 347 128 
L 347 722 
Q 666 556 975 473 
Q 1284 391 1588 391 
Q 1994 391 2212 530 
Q 2431 669 2431 922 
Q 2431 1156 2273 1281 
Q 2116 1406 1581 1522 
L 1381 1569 
Q 847 1681 609 1914 
Q 372 2147 372 2553 
Q 372 3047 722 3315 
Q 1072 3584 1716 3584 
Q 2034 3584 2315 3537 
Q 2597 3491 2834 3397 
z
" transform="scale(0.015625)"/>
       <path id="DejaVuSans-2f" d="M 1625 4666 
L 2156 4666 
L 531 -594 
L 0 -594 
L 1625 4666 
z
" transform="scale(0.015625)"/>
       <path id="DejaVuSans-64" d="M 2906 2969 
L 2906 4863 
L 3481 4863 
L 3481 0 
L 2906 0 
L 2906 525 
Q 2725 213 2448 61 
Q 2172 -91 1784 -91 
Q 1150 -91 751 415 
Q 353 922 353 1747 
Q 353 2572 751 3078 
Q 1150 3584 1784 3584 
Q 2172 3584 2448 3432 
Q 2725 3281 2906 2969 
z
M 947 1747 
Q 947 1113 1208 752 
Q 1469 391 1925 391 
Q 2381 391 2643 752 
Q 2906 1113 2906 1747 
Q 2906 2381 2643 2742 
Q 2381 3103 1925 3103 
Q 1469 3103 1208 2742 
Q 947 2381 947 1747 
z
" transform="scale(0.015625)"/>
       <path id="DejaVuSans-69" d="M 603 3500 
L 1178 3500 
L 1178 0 
L 603 0 
L 603 3500 
z
M 603 4863 
L 1178 4863 
L 1178 4134 
L 603 4134 
L 603 4863 
z
" transform="scale(0.015625)"/>
       <path id="DejaVuSans-6d" d="M 3328 2828 
Q 3544 3216 3844 3400 
Q 4144 3584 4550 3584 
Q 5097 3584 5394 3201 
Q 5691 2819 5691 2113 
L 5691 0 
L 5113 0 
L 5113 2094 
Q 5113 2597 4934 2840 
Q 4756 3084 4391 3084 
Q 3944 3084 3684 2787 
Q 3425 2491 3425 1978 
L 3425 0 
L 2847 0 
L 2847 2094 
Q 2847 2600 2669 2842 
Q 2491 3084 2119 3084 
Q 1678 3084 1418 2786 
Q 1159 2488 1159 1978 
L 1159 0 
L 581 0 
L 581 3500 
L 1159 3500 
L 1159 2956 
Q 1356 3278 1631 3431 
Q 1906 3584 2284 3584 
Q 2666 3584 2933 3390 
Q 3200 3197 3328 2828 
z
" transform="scale(0.015625)"/>
       <path id="DejaVuSans-6e" d="M 3513 2113 
L 3513 0 
L 2938 0 
L 2938 2094 
Q 2938 2591 2744 2837 
Q 2550 3084 2163 3084 
Q 1697 3084 1428 2787 
Q 1159 2491 1159 1978 
L 1159 0 
L 581 0 
L 581 3500 
L 1159 3500 
L 1159 2956 
Q 1366 3272 1645 3428 
Q 1925 3584 2291 3584 
Q 2894 3584 3203 3211 
Q 3513 2838 3513 2113 
z
" transform="scale(0.015625)"/>
       <path id="DejaVuSans-29" d="M 513 4856 
L 1013 4856 
Q 1481 4119 1714 3412 
Q 1947 2706 1947 2009 
Q 1947 1309 1714 600 
Q 1481 -109 1013 -844 
L 513 -844 
Q 928 -128 1133 580 
Q 1338 1288 1338 2009 
Q 1338 2731 1133 3434 
Q 928 4138 513 4856 
z
" transform="scale(0.015625)"/>
      </defs>
      <use xlink:href="#DejaVuSans-6c"/>
      <use xlink:href="#DejaVuSans-6f" x="27.783203"/>
      <use xlink:href="#DejaVuSans-67" x="88.964844"/>
      <use xlink:href="#DejaVuSans-31" x="152.441406"/>
      <use xlink:href="#DejaVuSans-30" x="216.064453"/>
      <use xlink:href="#DejaVuSans-28" x="279.6875"/>
      <use xlink:href="#DejaVuSans-23" x="318.701172"/>
      <use xlink:href="#DejaVuSans-20" x="402.490234"/>
      <use xlink:href="#DejaVuSans-66" x="434.277344"/>
      <use xlink:href="#DejaVuSans-2d" x="463.982422"/>
      <use xlink:href="#DejaVuSans-65" x="500.066406"/>
      <use xlink:href="#DejaVuSans-76" x="561.589844"/>
      <use xlink:href="#DejaVuSans-61" x="620.769531"/>
      <use xlink:href="#DejaVuSans-6c" x="682.048828"/>
      <use xlink:href="#DejaVuSans-73" x="709.832031"/>
      <use xlink:href="#DejaVuSans-20" x="761.931641"/>
      <use xlink:href="#DejaVuSans-2f" x="793.71875"/>
      <use xlink:href="#DejaVuSans-20" x="827.410156"/>
      <use xlink:href="#DejaVuSans-64" x="859.197266"/>
      <use xlink:href="#DejaVuSans-69" x="922.673828"/>
      <use xlink:href="#DejaVuSans-6d" x="950.457031"/>
      <use xlink:href="#DejaVuSans-65" x="1047.869141"/>
      <use xlink:href="#DejaVuSans-6e" x="1109.392578"/>
      <use xlink:href="#DejaVuSans-73" x="1172.771484"/>
      <use xlink:href="#DejaVuSans-69" x="1224.871094"/>
      <use xlink:href="#DejaVuSans-6f" x="1252.654297"/>
      <use xlink:href="#DejaVuSans-6e" x="1313.835938"/>
      <use xlink:href="#DejaVuSans-29" x="1377.214844"/>
     </g>
    </g>
   </g>
   <g id="matplotlib.axis_2">
    <g id="ytick_1">
     <g id="line2d_21">
      <path d="M 57.6 298.944 
L 360.8064 298.944 
" clip-path="url(#pd046b97082)" style="fill: none; stroke: #b0b0b0; stroke-width: 0.8; stroke-linecap: square"/>
     </g>
     <g id="line2d_22">
      <defs>
       <path id="ma644f4580e" d="M 0 0 
L -3.5 0 
" style="stroke: #000000; stroke-width: 0.8"/>
      </defs>
      <g>
       <use xlink:href="#ma644f4580e" x="57.6" y="298.944" style="stroke: #000000; stroke-width: 0.8"/>
      </g>
     </g>
     <g id="text_6">
      <!-- 0.0 -->
      <g transform="translate(25.155 305.02275) scale(0.16 -0.16)">
       <defs>
        <path id="DejaVuSans-2e" d="M 684 794 
L 1344 794 
L 1344 0 
L 684 0 
L 684 794 
z
" transform="scale(0.015625)"/>
       </defs>
       <use xlink:href="#DejaVuSans-30"/>
       <use xlink:href="#DejaVuSans-2e" x="63.623047"/>
       <use xlink:href="#DejaVuSans-30" x="95.410156"/>
      </g>
     </g>
    </g>
    <g id="ytick_2">
     <g id="line2d_23">
      <path d="M 57.6 240.5376 
L 360.8064 240.5376 
" clip-path="url(#pd046b97082)" style="fill: none; stroke: #b0b0b0; stroke-width: 0.8; stroke-linecap: square"/>
     </g>
     <g id="line2d_24">
      <g>
       <use xlink:href="#ma644f4580e" x="57.6" y="240.5376" style="stroke: #000000; stroke-width: 0.8"/>
      </g>
     </g>
     <g id="text_7">
      <!-- 0.2 -->
      <g transform="translate(25.155 246.61635) scale(0.16 -0.16)">
       <use xlink:href="#DejaVuSans-30"/>
       <use xlink:href="#DejaVuSans-2e" x="63.623047"/>
       <use xlink:href="#DejaVuSans-32" x="95.410156"/>
      </g>
     </g>
    </g>
    <g id="ytick_3">
     <g id="line2d_25">
      <path d="M 57.6 182.1312 
L 360.8064 182.1312 
" clip-path="url(#pd046b97082)" style="fill: none; stroke: #b0b0b0; stroke-width: 0.8; stroke-linecap: square"/>
     </g>
     <g id="line2d_26">
      <g>
       <use xlink:href="#ma644f4580e" x="57.6" y="182.1312" style="stroke: #000000; stroke-width: 0.8"/>
      </g>
     </g>
     <g id="text_8">
      <!-- 0.4 -->
      <g transform="translate(25.155 188.20995) scale(0.16 -0.16)">
       <use xlink:href="#DejaVuSans-30"/>
       <use xlink:href="#DejaVuSans-2e" x="63.623047"/>
       <use xlink:href="#DejaVuSans-34" x="95.410156"/>
      </g>
     </g>
    </g>
    <g id="ytick_4">
     <g id="line2d_27">
      <path d="M 57.6 123.7248 
L 360.8064 123.7248 
" clip-path="url(#pd046b97082)" style="fill: none; stroke: #b0b0b0; stroke-width: 0.8; stroke-linecap: square"/>
     </g>
     <g id="line2d_28">
      <g>
       <use xlink:href="#ma644f4580e" x="57.6" y="123.7248" style="stroke: #000000; stroke-width: 0.8"/>
      </g>
     </g>
     <g id="text_9">
      <!-- 0.6 -->
      <g transform="translate(25.155 129.80355) scale(0.16 -0.16)">
       <use xlink:href="#DejaVuSans-30"/>
       <use xlink:href="#DejaVuSans-2e" x="63.623047"/>
       <use xlink:href="#DejaVuSans-36" x="95.410156"/>
      </g>
     </g>
    </g>
    <g id="ytick_5">
     <g id="line2d_29">
      <path d="M 57.6 65.3184 
L 360.8064 65.3184 
" clip-path="url(#pd046b97082)" style="fill: none; stroke: #b0b0b0; stroke-width: 0.8; stroke-linecap: square"/>
     </g>
     <g id="line2d_30">
      <g>
       <use xlink:href="#ma644f4580e" x="57.6" y="65.3184" style="stroke: #000000; stroke-width: 0.8"/>
      </g>
     </g>
     <g id="text_10">
      <!-- 0.8 -->
      <g transform="translate(25.155 71.39715) scale(0.16 -0.16)">
       <defs>
        <path id="DejaVuSans-38" d="M 2034 2216 
Q 1584 2216 1326 1975 
Q 1069 1734 1069 1313 
Q 1069 891 1326 650 
Q 1584 409 2034 409 
Q 2484 409 2743 651 
Q 3003 894 3003 1313 
Q 3003 1734 2745 1975 
Q 2488 2216 2034 2216 
z
M 1403 2484 
Q 997 2584 770 2862 
Q 544 3141 544 3541 
Q 544 4100 942 4425 
Q 1341 4750 2034 4750 
Q 2731 4750 3128 4425 
Q 3525 4100 3525 3541 
Q 3525 3141 3298 2862 
Q 3072 2584 2669 2484 
Q 3125 2378 3379 2068 
Q 3634 1759 3634 1313 
Q 3634 634 3220 271 
Q 2806 -91 2034 -91 
Q 1263 -91 848 271 
Q 434 634 434 1313 
Q 434 1759 690 2068 
Q 947 2378 1403 2484 
z
M 1172 3481 
Q 1172 3119 1398 2916 
Q 1625 2713 2034 2713 
Q 2441 2713 2670 2916 
Q 2900 3119 2900 3481 
Q 2900 3844 2670 4047 
Q 2441 4250 2034 4250 
Q 1625 4250 1398 4047 
Q 1172 3844 1172 3481 
z
" transform="scale(0.015625)"/>
       </defs>
       <use xlink:href="#DejaVuSans-30"/>
       <use xlink:href="#DejaVuSans-2e" x="63.623047"/>
       <use xlink:href="#DejaVuSans-38" x="95.410156"/>
      </g>
     </g>
    </g>
    <g id="ytick_6">
     <g id="line2d_31">
      <path d="M 57.6 6.912 
L 360.8064 6.912 
" clip-path="url(#pd046b97082)" style="fill: none; stroke: #b0b0b0; stroke-width: 0.8; stroke-linecap: square"/>
     </g>
     <g id="line2d_32">
      <g>
       <use xlink:href="#ma644f4580e" x="57.6" y="6.912" style="stroke: #000000; stroke-width: 0.8"/>
      </g>
     </g>
     <g id="text_11">
      <!-- 1.0 -->
      <g transform="translate(25.155 12.99075) scale(0.16 -0.16)">
       <use xlink:href="#DejaVuSans-31"/>
       <use xlink:href="#DejaVuSans-2e" x="63.623047"/>
       <use xlink:href="#DejaVuSans-30" x="95.410156"/>
      </g>
     </g>
    </g>
    <g id="text_12">
     <!-- Fraction of function,target pairs -->
     <g transform="translate(17.619531 287.313) rotate(-90) scale(0.17 -0.17)">
      <defs>
       <path id="DejaVuSans-46" d="M 628 4666 
L 3309 4666 
L 3309 4134 
L 1259 4134 
L 1259 2759 
L 3109 2759 
L 3109 2228 
L 1259 2228 
L 1259 0 
L 628 0 
L 628 4666 
z
" transform="scale(0.015625)"/>
       <path id="DejaVuSans-72" d="M 2631 2963 
Q 2534 3019 2420 3045 
Q 2306 3072 2169 3072 
Q 1681 3072 1420 2755 
Q 1159 2438 1159 1844 
L 1159 0 
L 581 0 
L 581 3500 
L 1159 3500 
L 1159 2956 
Q 1341 3275 1631 3429 
Q 1922 3584 2338 3584 
Q 2397 3584 2469 3576 
Q 2541 3569 2628 3553 
L 2631 2963 
z
" transform="scale(0.015625)"/>
       <path id="DejaVuSans-63" d="M 3122 3366 
L 3122 2828 
Q 2878 2963 2633 3030 
Q 2388 3097 2138 3097 
Q 1578 3097 1268 2742 
Q 959 2388 959 1747 
Q 959 1106 1268 751 
Q 1578 397 2138 397 
Q 2388 397 2633 464 
Q 2878 531 3122 666 
L 3122 134 
Q 2881 22 2623 -34 
Q 2366 -91 2075 -91 
Q 1284 -91 818 406 
Q 353 903 353 1747 
Q 353 2603 823 3093 
Q 1294 3584 2113 3584 
Q 2378 3584 2631 3529 
Q 2884 3475 3122 3366 
z
" transform="scale(0.015625)"/>
       <path id="DejaVuSans-74" d="M 1172 4494 
L 1172 3500 
L 2356 3500 
L 2356 3053 
L 1172 3053 
L 1172 1153 
Q 1172 725 1289 603 
Q 1406 481 1766 481 
L 2356 481 
L 2356 0 
L 1766 0 
Q 1100 0 847 248 
Q 594 497 594 1153 
L 594 3053 
L 172 3053 
L 172 3500 
L 594 3500 
L 594 4494 
L 1172 4494 
z
" transform="scale(0.015625)"/>
       <path id="DejaVuSans-75" d="M 544 1381 
L 544 3500 
L 1119 3500 
L 1119 1403 
Q 1119 906 1312 657 
Q 1506 409 1894 409 
Q 2359 409 2629 706 
Q 2900 1003 2900 1516 
L 2900 3500 
L 3475 3500 
L 3475 0 
L 2900 0 
L 2900 538 
Q 2691 219 2414 64 
Q 2138 -91 1772 -91 
Q 1169 -91 856 284 
Q 544 659 544 1381 
z
M 1991 3584 
L 1991 3584 
z
" transform="scale(0.015625)"/>
       <path id="DejaVuSans-2c" d="M 750 794 
L 1409 794 
L 1409 256 
L 897 -744 
L 494 -744 
L 750 256 
L 750 794 
z
" transform="scale(0.015625)"/>
       <path id="DejaVuSans-70" d="M 1159 525 
L 1159 -1331 
L 581 -1331 
L 581 3500 
L 1159 3500 
L 1159 2969 
Q 1341 3281 1617 3432 
Q 1894 3584 2278 3584 
Q 2916 3584 3314 3078 
Q 3713 2572 3713 1747 
Q 3713 922 3314 415 
Q 2916 -91 2278 -91 
Q 1894 -91 1617 61 
Q 1341 213 1159 525 
z
M 3116 1747 
Q 3116 2381 2855 2742 
Q 2594 3103 2138 3103 
Q 1681 3103 1420 2742 
Q 1159 2381 1159 1747 
Q 1159 1113 1420 752 
Q 1681 391 2138 391 
Q 2594 391 2855 752 
Q 3116 1113 3116 1747 
z
" transform="scale(0.015625)"/>
      </defs>
      <use xlink:href="#DejaVuSans-46"/>
      <use xlink:href="#DejaVuSans-72" x="50.269531"/>
      <use xlink:href="#DejaVuSans-61" x="91.382812"/>
      <use xlink:href="#DejaVuSans-63" x="152.662109"/>
      <use xlink:href="#DejaVuSans-74" x="207.642578"/>
      <use xlink:href="#DejaVuSans-69" x="246.851562"/>
      <use xlink:href="#DejaVuSans-6f" x="274.634766"/>
      <use xlink:href="#DejaVuSans-6e" x="335.816406"/>
      <use xlink:href="#DejaVuSans-20" x="399.195312"/>
      <use xlink:href="#DejaVuSans-6f" x="430.982422"/>
      <use xlink:href="#DejaVuSans-66" x="492.164062"/>
      <use xlink:href="#DejaVuSans-20" x="527.369141"/>
      <use xlink:href="#DejaVuSans-66" x="559.15625"/>
      <use xlink:href="#DejaVuSans-75" x="594.361328"/>
      <use xlink:href="#DejaVuSans-6e" x="657.740234"/>
      <use xlink:href="#DejaVuSans-63" x="721.119141"/>
      <use xlink:href="#DejaVuSans-74" x="776.099609"/>
      <use xlink:href="#DejaVuSans-69" x="815.308594"/>
      <use xlink:href="#DejaVuSans-6f" x="843.091797"/>
      <use xlink:href="#DejaVuSans-6e" x="904.273438"/>
      <use xlink:href="#DejaVuSans-2c" x="967.652344"/>
      <use xlink:href="#DejaVuSans-74" x="999.439453"/>
      <use xlink:href="#DejaVuSans-61" x="1038.648438"/>
      <use xlink:href="#DejaVuSans-72" x="1099.927734"/>
      <use xlink:href="#DejaVuSans-67" x="1139.291016"/>
      <use xlink:href="#DejaVuSans-65" x="1202.767578"/>
      <use xlink:href="#DejaVuSans-74" x="1264.291016"/>
      <use xlink:href="#DejaVuSans-20" x="1303.5"/>
      <use xlink:href="#DejaVuSans-70" x="1335.287109"/>
      <use xlink:href="#DejaVuSans-61" x="1398.763672"/>
      <use xlink:href="#DejaVuSans-69" x="1460.042969"/>
      <use xlink:href="#DejaVuSans-72" x="1487.826172"/>
      <use xlink:href="#DejaVuSans-73" x="1528.939453"/>
     </g>
    </g>
   </g>
   <g id="line2d_33">
    <defs>
     <path id="m33ce7b048e" d="M 0 1.5 
C 0.397805 1.5 0.77937 1.341951 1.06066 1.06066 
C 1.341951 0.77937 1.5 0.397805 1.5 0 
C 1.5 -0.397805 1.341951 -0.77937 1.06066 -1.06066 
C 0.77937 -1.341951 0.397805 -1.5 0 -1.5 
C -0.397805 -1.5 -0.77937 -1.341951 -1.06066 -1.06066 
C -1.341951 -0.77937 -1.5 -0.397805 -1.5 0 
C -1.5 0.397805 -1.341951 0.77937 -1.06066 1.06066 
C -0.77937 1.341951 -0.397805 1.5 0 1.5 
z
" style="stroke: #f5deb3"/>
    </defs>
    <g>
     <use xlink:href="#m33ce7b048e" x="281.664615" y="42.157241" style="fill: #f5deb3; stroke: #f5deb3"/>
     <use xlink:href="#m33ce7b048e" x="281.664615" y="42.157241" style="fill: #f5deb3; stroke: #f5deb3"/>
    </g>
   </g>
   <g id="line2d_34">
    <defs>
     <path id="m421535348b" d="M 0 1.5 
C 0.397805 1.5 0.77937 1.341951 1.06066 1.06066 
C 1.341951 0.77937 1.5 0.397805 1.5 0 
C 1.5 -0.397805 1.341951 -0.77937 1.06066 -1.06066 
C 0.77937 -1.341951 0.397805 -1.5 0 -1.5 
C -0.397805 -1.5 -0.77937 -1.341951 -1.06066 -1.06066 
C -1.341951 -0.77937 -1.5 -0.397805 -1.5 0 
C -1.5 0.397805 -1.341951 0.77937 -1.06066 1.06066 
C -0.77937 1.341951 -0.397805 1.5 0 1.5 
z
" style="stroke: #000080"/>
    </defs>
    <g>
     <use xlink:href="#m421535348b" x="197.915241" y="177.977297" style="fill: #000080; stroke: #000080"/>
     <use xlink:href="#m421535348b" x="197.915241" y="177.977297" style="fill: #000080; stroke: #000080"/>
    </g>
   </g>
   <g id="line2d_35">
    <path d="M 27.323974 298.944 
L 27.323974 290.636193 
L 40.363149 290.636193 
L 40.363149 289.629186 
L 66.441498 289.629186 
L 66.441498 288.873931 
L 76.96874 288.873931 
L 76.96874 287.866924 
L 83.678349 287.866924 
L 83.678349 287.237545 
L 88.613828 287.237545 
L 88.613828 286.985793 
L 92.519847 286.985793 
L 92.519847 285.85291 
L 95.752617 285.85291 
L 95.752617 284.720028 
L 98.510456 284.720028 
L 98.510456 284.090648 
L 100.9152 284.090648 
L 100.9152 283.209517 
L 104.961779 283.209517 
L 104.961779 282.83189 
L 105.559021 282.83189 
L 105.559021 282.328386 
L 106.137884 282.328386 
L 106.137884 282.076634 
L 106.699465 282.076634 
L 106.699465 281.950759 
L 107.244765 281.950759 
L 107.244765 281.447255 
L 107.774703 281.447255 
L 107.774703 281.069628 
L 108.29012 281.069628 
L 108.29012 280.314372 
L 108.791791 280.314372 
L 108.791791 280.062621 
L 109.280431 280.062621 
L 109.280431 279.684993 
L 109.756698 279.684993 
L 109.756698 279.18149 
L 110.221204 279.18149 
L 110.221204 278.803862 
L 111.117162 278.803862 
L 111.117162 278.677986 
L 111.762192 278.677986 
L 111.762192 278.55211 
L 111.97238 278.55211 
L 111.97238 278.426234 
L 112.180244 278.426234 
L 112.180244 278.174483 
L 112.589207 278.174483 
L 112.589207 277.922731 
L 113.186449 277.922731 
L 113.186449 277.796855 
L 113.381389 277.796855 
L 113.381389 277.419228 
L 114.326893 277.419228 
L 114.326893 277.167476 
L 115.050503 277.167476 
L 115.050503 277.0416 
L 115.402131 277.0416 
L 115.402131 276.915724 
L 116.253478 276.915724 
L 116.253478 276.663972 
L 116.583514 276.663972 
L 116.583514 276.538097 
L 116.907859 276.538097 
L 116.907859 276.412221 
L 117.067958 276.412221 
L 117.067958 276.286345 
L 117.384126 276.286345 
L 117.384126 276.034593 
L 118.000953 276.034593 
L 118.000953 275.908717 
L 118.301945 275.908717 
L 118.301945 275.53109 
L 118.598196 275.53109 
L 118.598196 275.405214 
L 118.74459 275.405214 
L 118.74459 275.279338 
L 118.889854 275.279338 
L 118.889854 275.153462 
L 119.177058 275.153462 
L 119.177058 275.027586 
L 119.319033 275.027586 
L 119.319033 274.775834 
L 119.459944 274.775834 
L 119.459944 274.398207 
L 119.599808 274.398207 
L 119.599808 274.272331 
L 119.738639 274.272331 
L 119.738639 274.146455 
L 120.28394 274.146455 
L 120.28394 274.020579 
L 121.201758 274.020579 
L 121.201758 273.642952 
L 121.455972 273.642952 
L 121.455972 273.3912 
L 122.076872 273.3912 
L 122.076872 273.139448 
L 122.677931 273.139448 
L 122.677931 273.013572 
L 122.913079 273.013572 
L 122.913079 272.887697 
L 123.029559 272.887697 
L 123.029559 272.258317 
L 123.145323 272.258317 
L 123.145323 272.132441 
L 123.4884 272.132441 
L 123.4884 272.006566 
L 124.695386 272.006566 
L 124.801367 271.503062 
L 124.906754 271.503062 
L 124.906754 271.377186 
L 125.425011 271.377186 
L 125.526971 270.873683 
L 125.929373 270.873683 
L 126.028642 270.496055 
L 126.127391 270.496055 
L 126.225624 270.244303 
L 126.420564 270.244303 
L 126.517282 269.7408 
L 126.613505 269.7408 
L 126.613505 269.614924 
L 126.899255 269.614924 
L 126.899255 269.489048 
L 127.18073 269.489048 
L 127.273627 269.111421 
L 127.731351 269.111421 
L 127.731351 268.985545 
L 127.911368 268.985545 
L 128.000734 268.607917 
L 128.089678 268.607917 
L 128.178203 268.356166 
L 128.786481 268.356166 
L 128.871795 268.104414 
L 129.54072 268.104414 
L 129.622688 267.726786 
L 129.947033 267.726786 
L 130.027253 267.223283 
L 130.107132 267.223283 
L 130.107132 266.971531 
L 130.344755 266.971531 
L 130.4233 266.468028 
L 130.579414 266.468028 
L 130.579414 266.342152 
L 130.734242 266.342152 
L 130.734242 266.216276 
L 131.41562 266.216276 
L 131.41562 266.0904 
L 131.71071 266.0904 
L 131.71071 265.964524 
L 132.216233 265.964524 
L 132.287354 265.712772 
L 132.358208 265.712772 
L 132.358208 265.586897 
L 132.499119 265.586897 
L 132.499119 265.461021 
L 132.638982 265.461021 
L 132.638982 265.335145 
L 132.915628 265.335145 
L 132.915628 265.083393 
L 133.120474 265.083393 
L 133.120474 264.957517 
L 133.25581 264.957517 
L 133.25581 264.831641 
L 133.457005 264.831641 
L 133.457005 264.57989 
L 133.853052 264.57989 
L 133.853052 264.454014 
L 133.983236 264.454014 
L 134.047992 264.202262 
L 134.176839 264.202262 
L 134.176839 263.824634 
L 134.304809 263.824634 
L 134.304809 263.698759 
L 134.620977 263.698759 
L 134.683578 263.195255 
L 135.054871 263.195255 
L 135.054871 263.069379 
L 135.177024 263.069379 
L 135.237805 262.44 
L 135.298389 262.44 
L 135.35878 262.188248 
L 135.478982 262.188248 
L 135.478982 262.062372 
L 135.835047 262.062372 
L 135.835047 261.810621 
L 136.242113 261.810621 
L 136.299553 261.558869 
L 136.356818 261.558869 
L 136.356818 261.432993 
L 136.640557 261.432993 
L 136.640557 261.307117 
L 136.808769 261.307117 
L 136.808769 261.181241 
L 137.358854 261.181241 
L 137.466966 260.92949 
L 137.574461 260.92949 
L 137.627979 260.677738 
L 137.840541 260.677738 
L 137.840541 260.425986 
L 138.258593 260.425986 
L 138.36167 259.922483 
L 138.412998 259.922483 
L 138.464186 259.418979 
L 138.818654 259.418979 
L 138.868751 259.041352 
L 139.018248 259.041352 
L 139.018248 258.915476 
L 139.362521 258.915476 
L 139.362521 258.7896 
L 139.604629 258.7896 
L 139.700607 258.160221 
L 139.748412 258.160221 
L 139.796097 257.656717 
L 140.49723 257.656717 
L 140.49723 257.27909 
L 140.679868 257.27909 
L 140.679868 257.027338 
L 140.905699 257.027338 
L 140.905699 256.775586 
L 141.217377 256.775586 
L 141.305488 256.523834 
L 141.349389 256.523834 
L 141.436884 256.272083 
L 141.65386 256.272083 
L 141.65386 256.146207 
L 142.206555 256.146207 
L 142.206555 255.894455 
L 142.41488 255.894455 
L 142.497568 255.390952 
L 142.620923 255.390952 
L 142.661862 255.1392 
L 142.905644 255.1392 
L 142.986208 254.635697 
L 143.146307 254.635697 
L 143.225848 254.258069 
L 143.657415 254.258069 
L 143.657415 254.132193 
L 143.773417 254.132193 
L 143.850356 253.62869 
L 143.965177 253.62869 
L 143.965177 253.502814 
L 144.342932 253.502814 
L 144.342932 253.376938 
L 144.491935 253.376938 
L 144.602918 252.495807 
L 144.71325 252.495807 
L 144.71325 252.369931 
L 144.85936 252.369931 
L 144.931992 252.118179 
L 145.112353 252.118179 
L 145.219746 251.740552 
L 145.255407 251.740552 
L 145.255407 251.614676 
L 145.397382 251.614676 
L 145.503164 251.362924 
L 145.573357 251.362924 
L 145.573357 251.111172 
L 145.712961 251.111172 
L 145.712961 250.985297 
L 145.920443 250.985297 
L 145.920443 250.859421 
L 146.091614 250.859421 
L 146.091614 250.733545 
L 146.462796 250.733545 
L 146.529503 250.355917 
L 146.989949 250.355917 
L 147.022411 250.104166 
L 147.1517 250.104166 
L 147.1517 249.726538 
L 147.280107 249.726538 
L 147.280107 249.600662 
L 147.660152 249.600662 
L 147.660152 249.474786 
L 147.909315 249.474786 
L 147.909315 249.34891 
L 148.063382 249.34891 
L 148.124658 248.971283 
L 148.246613 248.971283 
L 148.246613 248.845407 
L 148.397954 248.845407 
L 148.397954 248.719531 
L 148.518156 248.719531 
L 148.607806 248.216028 
L 148.726679 248.216028 
L 148.726679 248.090152 
L 148.844805 248.090152 
L 148.844805 247.8384 
L 148.991428 247.8384 
L 148.991428 247.712524 
L 149.194798 247.712524 
L 149.194798 247.586648 
L 149.338728 247.586648 
L 149.42456 247.334897 
L 149.595059 247.334897 
L 149.595059 247.209021 
L 149.847944 247.209021 
L 149.847944 246.957269 
L 150.152479 246.957269 
L 150.262008 246.579641 
L 150.398028 246.579641 
L 150.398028 246.453766 
L 150.533072 246.453766 
L 150.58682 246.076138 
L 150.773735 246.076138 
L 150.773735 245.69851 
L 150.958812 245.69851 
L 151.037576 245.320883 
L 151.089903 245.320883 
L 151.142085 244.817379 
L 151.349377 244.817379 
L 151.349377 244.439752 
L 151.681429 244.439752 
L 151.681429 244.313876 
L 151.907925 244.313876 
L 151.907925 243.936248 
L 152.057422 243.936248 
L 152.15643 243.432745 
L 152.181101 243.432745 
L 152.25492 243.055117 
L 152.450367 243.055117 
L 152.450367 242.929241 
L 152.643804 242.929241 
L 152.643804 242.803366 
L 152.835271 242.803366 
L 152.906572 242.299862 
L 153.142309 242.299862 
L 153.165721 242.04811 
L 153.305585 242.04811 
L 153.375128 241.418731 
L 153.490466 241.418731 
L 153.513449 240.915228 
L 153.627945 240.915228 
L 153.650761 240.285848 
L 153.764426 240.285848 
L 153.764426 240.159972 
L 153.899924 240.159972 
L 153.899924 239.908221 
L 154.056781 239.908221 
L 154.056781 239.530593 
L 154.388563 239.530593 
L 154.497869 238.901214 
L 154.649839 238.901214 
L 154.649839 238.775338 
L 154.928852 238.775338 
L 154.992656 238.39771 
L 155.203786 238.39771 
L 155.22477 238.020083 
L 155.701037 238.020083 
L 155.721473 237.768331 
L 156.025382 237.768331 
L 156.025382 237.642455 
L 156.145584 237.642455 
L 156.145584 237.390703 
L 156.560344 237.390703 
L 156.657763 236.509572 
L 156.870325 236.509572 
L 156.870325 236.383697 
L 157.099504 236.383697 
L 157.175281 235.754317 
L 157.382107 235.754317 
L 157.456756 235.37669 
L 157.752425 235.37669 
L 157.770751 234.873186 
L 157.98928 234.873186 
L 158.07959 234.243807 
L 158.187393 234.243807 
L 158.294582 233.614428 
L 158.507144 233.614428 
L 158.507144 233.362676 
L 158.734741 233.362676 
L 158.786875 233.110924 
L 158.856162 233.110924 
L 158.856162 232.733297 
L 159.062507 232.733297 
L 159.079601 232.355669 
L 159.334159 232.355669 
L 159.435025 231.978041 
L 159.535354 231.978041 
L 159.63515 231.600414 
L 159.816746 231.600414 
L 159.915064 231.348662 
L 159.996606 231.348662 
L 160.029123 230.845159 
L 160.158636 230.845159 
L 160.158636 230.593407 
L 160.303279 230.593407 
L 160.303279 230.341655 
L 160.699326 230.341655 
L 160.699326 230.089903 
L 160.902022 230.089903 
L 160.963953 229.460524 
L 161.087207 229.460524 
L 161.17912 228.957021 
L 161.209658 228.957021 
L 161.300977 228.705269 
L 161.406958 228.705269 
L 161.497325 227.950014 
L 161.572302 227.950014 
L 161.646981 227.572386 
L 161.765853 227.572386 
L 161.869254 226.817131 
L 161.898693 226.817131 
L 161.928087 226.439503 
L 162.248415 226.439503 
L 162.248415 226.187752 
L 162.363559 226.187752 
L 162.420867 225.684248 
L 162.520739 225.684248 
L 162.520739 225.432497 
L 162.634233 225.432497 
L 162.634233 225.306621 
L 162.887118 225.306621 
L 162.901068 224.803117 
L 163.437203 224.803117 
L 163.545315 224.299614 
L 163.706328 224.299614 
L 163.706328 224.173738 
L 164.336942 224.173738 
L 164.336942 224.047862 
L 164.465701 224.047862 
L 164.529751 223.166731 
L 164.63178 223.166731 
L 164.720604 222.411476 
L 164.934588 222.411476 
L 164.934588 222.159724 
L 165.257222 222.159724 
L 165.257222 221.907972 
L 165.489541 221.907972 
L 165.50169 221.152717 
L 165.658907 221.152717 
L 165.682978 220.77509 
L 165.814821 220.77509 
L 165.874446 220.523338 
L 165.969454 220.523338 
L 166.040396 220.271586 
L 166.193193 220.271586 
L 166.298254 219.138703 
L 166.321521 219.138703 
L 166.321521 218.886952 
L 166.495114 218.886952 
L 166.495114 218.383448 
L 166.609959 218.383448 
L 166.712723 217.879945 
L 166.735484 217.879945 
L 166.735484 217.628193 
L 166.939098 217.628193 
L 167.028891 217.12469 
L 167.162782 217.12469 
L 167.273634 216.621186 
L 167.350843 216.621186 
L 167.438697 215.991807 
L 167.721419 215.991807 
L 167.76454 215.362428 
L 168.010586 215.362428 
L 168.010586 215.236552 
L 168.158793 215.236552 
L 168.211442 214.858924 
L 168.4725 214.858924 
L 168.575917 213.726041 
L 168.658244 213.726041 
L 168.750432 213.222538 
L 168.832 213.222538 
L 168.923343 212.341407 
L 168.953693 212.341407 
L 168.994082 211.963779 
L 169.214689 211.963779 
L 169.304197 210.830897 
L 169.452437 210.830897 
L 169.550619 210.327393 
L 169.579974 210.327393 
L 169.648291 209.698014 
L 169.726065 209.698014 
L 169.726065 209.572138 
L 170.242793 209.572138 
L 170.336945 209.19451 
L 170.355719 209.19451 
L 170.355719 208.942759 
L 170.579558 208.942759 
L 170.588827 208.565131 
L 170.708911 208.565131 
L 170.708911 208.313379 
L 171.127772 208.313379 
L 171.172743 207.684 
L 171.253422 207.684 
L 171.307016 206.928745 
L 171.404878 206.928745 
L 171.431479 206.551117 
L 171.895337 206.551117 
L 171.981589 205.795862 
L 172.033151 205.795862 
L 172.033151 205.669986 
L 172.178481 205.669986 
L 172.178481 205.418234 
L 172.407015 205.418234 
L 172.4742 204.788855 
L 172.624492 204.788855 
L 172.624492 204.537103 
L 172.88875 204.537103 
L 172.929707 204.0336 
L 173.125069 204.0336 
L 173.165515 203.404221 
L 173.270271 203.404221 
L 173.366453 203.026593 
L 173.398404 203.026593 
L 173.41436 202.648966 
L 173.573175 202.648966 
L 173.620559 202.019586 
L 173.730661 202.019586 
L 173.832324 201.264331 
L 173.948949 201.264331 
L 173.948949 201.138455 
L 174.064855 201.138455 
L 174.064855 201.012579 
L 174.187707 201.012579 
L 174.187707 200.886703 
L 174.393216 200.886703 
L 174.446132 200.131448 
L 174.581522 200.131448 
L 174.581522 199.879697 
L 174.95257 199.879697 
L 175.011265 199.376193 
L 175.069777 199.376193 
L 175.069777 199.124441 
L 175.251462 199.124441 
L 175.251462 198.998566 
L 175.488631 198.998566 
L 175.538557 198.495062 
L 175.708734 198.495062 
L 175.708734 198.24331 
L 175.863389 198.24331 
L 175.968112 197.739807 
L 175.975072 197.739807 
L 175.975072 197.613931 
L 176.230828 197.613931 
L 176.3267 196.7328 
L 176.388076 196.7328 
L 176.469599 196.481048 
L 176.59796 196.481048 
L 176.631594 196.229297 
L 176.725451 196.229297 
L 176.778874 195.725793 
L 176.878635 195.725793 
L 176.885267 195.22229 
L 177.056883 195.22229 
L 177.12902 194.718786 
L 177.239965 194.718786 
L 177.350259 193.585903 
L 177.427726 193.585903 
L 177.427726 193.460028 
L 177.683669 193.460028 
L 177.683669 193.334152 
L 177.829275 193.334152 
L 177.885946 192.830648 
L 178.290243 192.830648 
L 178.320986 192.453021 
L 178.504396 192.453021 
L 178.51656 192.075393 
L 178.655883 192.075393 
L 178.686034 191.823641 
L 178.931471 191.823641 
L 178.961184 191.446014 
L 179.120831 191.446014 
L 179.150247 190.94251 
L 179.453477 190.94251 
L 179.505467 190.313131 
L 179.568815 190.313131 
L 179.59754 190.061379 
L 179.763281 190.061379 
L 179.763281 189.809628 
L 180.034443 189.809628 
L 180.07926 189.054372 
L 180.532572 189.054372 
L 180.630634 188.550869 
L 180.69031 188.550869 
L 180.792944 187.92149 
L 180.809098 187.92149 
L 180.81986 187.669738 
L 181.134593 187.669738 
L 181.245358 187.166234 
L 181.329315 187.166234 
L 181.329315 187.040359 
L 181.475344 187.040359 
L 181.475344 186.914483 
L 181.646006 186.914483 
L 181.646006 186.788607 
L 181.779386 186.788607 
L 181.840628 186.159228 
L 181.901672 186.159228 
L 181.901672 185.907476 
L 182.028213 185.907476 
L 182.108755 185.655724 
L 182.318551 185.655724 
L 182.387967 185.403972 
L 182.432456 185.403972 
L 182.447262 185.152221 
L 182.682594 185.152221 
L 182.682594 185.026345 
L 183.239445 185.026345 
L 183.30555 184.522841 
L 183.479146 184.522841 
L 183.488484 184.27109 
L 183.637266 184.27109 
L 183.637266 184.145214 
L 183.908536 184.145214 
L 183.995068 183.767586 
L 184.270221 183.767586 
L 184.306009 183.264083 
L 184.395185 183.264083 
L 184.444052 183.012331 
L 184.664589 183.012331 
L 184.664589 182.886455 
L 184.800034 182.886455 
L 184.800034 182.634703 
L 185.042265 182.634703 
L 185.042265 182.508828 
L 185.601191 182.508828 
L 185.601191 182.382952 
L 185.812768 182.382952 
L 185.866322 182.005324 
L 186.139934 182.005324 
L 186.139934 181.879448 
L 186.929901 181.879448 
L 186.988123 181.627697 
L 187.138663 181.627697 
L 187.142507 181.124193 
L 187.310878 181.124193 
L 187.337526 180.872441 
L 188.276166 180.872441 
L 188.276166 180.494814 
L 188.570607 180.494814 
L 188.570607 180.368938 
L 189.121811 180.368938 
L 189.121811 180.243062 
L 189.447664 180.243062 
L 189.478244 179.865434 
L 190.141995 179.865434 
L 190.141995 179.739559 
L 190.811607 179.739559 
L 190.84005 179.487807 
L 192.553292 179.487807 
L 192.553292 179.236055 
L 195.513552 179.236055 
L 195.513552 178.984303 
L 195.915653 178.984303 
L 196.007054 178.732552 
L 196.169511 178.732552 
L 196.278619 178.354924 
L 196.597546 178.354924 
L 196.597546 178.229048 
L 197.915241 178.229048 
L 197.915241 177.977297 
L 360.8064 177.977297 
L 360.8064 177.977297 
" style="fill: none; stroke: #000080; stroke-width: 1.5; stroke-linecap: square"/>
   </g>
   <g id="line2d_36">
    <defs>
     <path id="m9221d11510" d="M 0 6 
C 1.591219 6 3.117479 5.367802 4.242641 4.242641 
C 5.367802 3.117479 6 1.591219 6 0 
C 6 -1.591219 5.367802 -3.117479 4.242641 -4.242641 
C 3.117479 -5.367802 1.591219 -6 0 -6 
C -1.591219 -6 -3.117479 -5.367802 -4.242641 -4.242641 
C -5.367802 -3.117479 -6 -1.591219 -6 0 
C -6 1.591219 -5.367802 3.117479 -4.242641 4.242641 
C -3.117479 5.367802 -1.591219 6 0 6 
z
" style="stroke: #000080; stroke-width: 1.5"/>
    </defs>
    <g>
     <use xlink:href="#m9221d11510" x="136.356818" y="261.432993" style="fill-opacity: 0; stroke: #000080; stroke-width: 1.5"/>
     <use xlink:href="#m9221d11510" x="183.637266" y="184.27109" style="fill-opacity: 0; stroke: #000080; stroke-width: 1.5"/>
     <use xlink:href="#m9221d11510" x="197.915241" y="178.229048" style="fill-opacity: 0; stroke: #000080; stroke-width: 1.5"/>
     <use xlink:href="#m9221d11510" x="197.915241" y="177.977297" style="fill-opacity: 0; stroke: #000080; stroke-width: 1.5"/>
     <use xlink:href="#m9221d11510" x="197.915241" y="177.977297" style="fill-opacity: 0; stroke: #000080; stroke-width: 1.5"/>
     <use xlink:href="#m9221d11510" x="360.8064" y="177.977297" style="fill-opacity: 0; stroke: #000080; stroke-width: 1.5"/>
    </g>
   </g>
   <g id="line2d_37">
    <path style="fill: none; stroke: #000080; stroke-width: 1.5; stroke-linecap: square"/>
    <g/>
   </g>
   <g id="line2d_38">
    <path d="M 230.859671 177.977297 
" clip-path="url(#pd046b97082)" style="fill: none; stroke: #000080; stroke-width: 1.5; stroke-linecap: square"/>
    <defs>
     <path id="m3461fd14b7" d="M -12 12 
L 12 -12 
M -12 -12 
L 12 12 
" style="stroke: #000080"/>
    </defs>
    <g clip-path="url(#pd046b97082)">
     <use xlink:href="#m3461fd14b7" x="230.859671" y="177.977297" style="fill: #000080; stroke: #000080"/>
    </g>
   </g>
   <g id="line2d_39">
    <defs>
     <path id="m9cceef4f72" d="M 0 1.5 
C 0.397805 1.5 0.77937 1.341951 1.06066 1.06066 
C 1.341951 0.77937 1.5 0.397805 1.5 0 
C 1.5 -0.397805 1.341951 -0.77937 1.06066 -1.06066 
C 0.77937 -1.341951 0.397805 -1.5 0 -1.5 
C -0.397805 -1.5 -0.77937 -1.341951 -1.06066 -1.06066 
C -1.341951 -0.77937 -1.5 -0.397805 -1.5 0 
C -1.5 0.397805 -1.341951 0.77937 -1.06066 1.06066 
C -0.77937 1.341951 -0.397805 1.5 0 1.5 
z
" style="stroke: #ff00ff"/>
    </defs>
    <g>
     <use xlink:href="#m9cceef4f72" x="221.707929" y="179.487807" style="fill: #ff00ff; stroke: #ff00ff"/>
     <use xlink:href="#m9cceef4f72" x="221.707929" y="179.487807" style="fill: #ff00ff; stroke: #ff00ff"/>
    </g>
   </g>
   <g id="line2d_40">
    <path d="M 27.323974 298.944 
L 27.323974 290.636193 
L 40.363149 290.636193 
L 40.363149 289.755062 
L 72.432107 289.755062 
L 72.432107 287.9928 
L 83.678349 287.9928 
L 83.678349 287.111669 
L 90.668036 287.111669 
L 90.668036 285.727034 
L 95.752617 285.727034 
L 95.752617 285.475283 
L 99.751228 285.475283 
L 99.751228 284.468276 
L 103.047088 284.468276 
L 103.047088 283.964772 
L 105.850679 283.964772 
L 105.850679 283.209517 
L 108.29012 283.209517 
L 108.29012 282.580138 
L 110.449226 282.580138 
L 110.449226 282.076634 
L 112.385837 282.076634 
L 112.385837 281.950759 
L 114.141556 281.950759 
L 114.141556 281.447255 
L 115.747307 281.447255 
L 115.747307 281.195503 
L 117.226706 281.195503 
L 117.226706 280.440248 
L 118.598196 280.440248 
L 118.598196 279.936745 
L 119.876453 279.936745 
L 119.876453 279.810869 
L 121.073351 279.810869 
L 121.073351 279.684993 
L 122.19863 279.684993 
L 122.19863 279.055614 
L 123.260379 279.055614 
L 123.260379 278.803862 
L 124.265389 278.803862 
L 124.265389 278.174483 
L 125.219419 278.174483 
L 125.219419 277.167476 
L 126.127391 277.167476 
L 126.127391 276.286345 
L 126.993549 276.286345 
L 126.993549 275.656966 
L 127.821575 275.656966 
L 127.821575 274.775834 
L 128.614685 274.775834 
L 128.614685 274.272331 
L 129.375706 274.272331 
L 129.375706 274.146455 
L 130.107132 274.146455 
L 130.107132 273.517076 
L 130.811181 273.517076 
L 130.811181 272.887697 
L 132.144842 272.887697 
L 132.144842 272.635945 
L 132.777813 272.635945 
L 132.777813 272.258317 
L 133.390178 272.258317 
L 133.390178 271.503062 
L 133.983236 271.503062 
L 133.983236 271.25131 
L 134.558167 271.25131 
L 134.558167 270.621931 
L 135.116046 270.621931 
L 135.116046 270.496055 
L 135.657857 270.496055 
L 135.657857 270.244303 
L 136.184497 270.244303 
L 136.184497 269.992552 
L 136.696795 269.992552 
L 136.696795 269.7408 
L 137.195511 269.7408 
L 137.195511 269.111421 
L 137.681345 269.111421 
L 137.681345 268.733793 
L 138.154948 268.733793 
L 138.154948 268.482041 
L 138.616919 268.482041 
L 138.616919 268.104414 
L 139.508159 268.104414 
L 139.508159 267.349159 
L 139.93843 267.349159 
L 139.93843 267.097407 
L 140.359078 267.097407 
L 140.359078 266.719779 
L 140.770526 266.719779 
L 140.770526 265.838648 
L 141.173167 265.838648 
L 141.173167 265.461021 
L 141.953481 265.461021 
L 141.953481 264.957517 
L 142.331827 264.957517 
L 142.331827 264.57989 
L 142.702713 264.57989 
L 142.702713 264.202262 
L 143.066428 264.202262 
L 143.066428 263.698759 
L 143.423243 263.698759 
L 143.423243 263.447007 
L 143.773417 263.447007 
L 143.773417 263.069379 
L 144.117191 263.069379 
L 144.117191 262.817628 
L 144.454795 262.817628 
L 144.454795 262.188248 
L 144.786447 262.188248 
L 144.786447 262.062372 
L 145.112353 262.062372 
L 145.112353 261.684745 
L 145.432709 261.684745 
L 145.432709 261.181241 
L 145.7477 261.181241 
L 145.7477 260.551862 
L 146.362288 260.551862 
L 146.362288 260.30011 
L 146.957431 260.30011 
L 146.957431 259.922483 
L 147.248088 259.922483 
L 147.248088 259.167228 
L 147.534321 259.167228 
L 147.534321 258.7896 
L 147.816265 258.7896 
L 147.816265 258.160221 
L 148.094045 258.160221 
L 148.094045 257.908469 
L 148.367783 257.908469 
L 148.367783 257.656717 
L 148.637595 257.656717 
L 148.637595 256.901462 
L 149.42456 256.901462 
L 149.42456 256.64971 
L 149.679732 256.64971 
L 149.679732 256.146207 
L 149.931489 256.146207 
L 149.931489 255.642703 
L 150.179921 255.642703 
L 150.179921 255.1392 
L 150.425115 255.1392 
L 150.425115 254.761572 
L 150.667154 254.761572 
L 150.667154 254.383945 
L 150.906118 254.383945 
L 150.906118 254.132193 
L 151.142085 254.132193 
L 151.142085 254.006317 
L 151.375128 254.006317 
L 151.375128 253.251062 
L 151.60532 253.251062 
L 151.60532 252.621683 
L 151.832729 252.621683 
L 151.832729 251.992303 
L 152.057422 251.992303 
L 152.057422 251.740552 
L 152.279463 251.740552 
L 152.279463 251.237048 
L 152.498913 251.237048 
L 152.498913 250.733545 
L 152.715833 250.733545 
L 152.715833 250.355917 
L 152.930279 250.355917 
L 152.930279 250.104166 
L 153.142309 250.104166 
L 153.142309 249.97829 
L 153.351976 249.97829 
L 153.351976 249.726538 
L 153.559331 249.726538 
L 153.559331 249.474786 
L 153.764426 249.474786 
L 153.764426 249.34891 
L 153.967309 249.34891 
L 153.967309 248.971283 
L 154.168026 248.971283 
L 154.168026 248.719531 
L 154.366625 248.719531 
L 154.366625 248.467779 
L 154.563149 248.467779 
L 154.563149 248.216028 
L 154.757642 248.216028 
L 154.757642 247.8384 
L 154.950144 247.8384 
L 154.950144 247.460772 
L 155.140696 247.460772 
L 155.140696 247.209021 
L 155.329337 247.209021 
L 155.329337 246.202014 
L 155.516105 246.202014 
L 155.516105 246.076138 
L 155.701037 246.076138 
L 155.701037 245.950262 
L 156.065535 245.950262 
L 156.065535 245.824386 
L 156.245169 245.824386 
L 156.245169 245.572634 
L 156.423104 245.572634 
L 156.423104 244.943255 
L 156.599372 244.943255 
L 156.599372 244.691503 
L 156.774003 244.691503 
L 156.774003 244.439752 
L 157.118477 244.439752 
L 157.118477 244.062124 
L 157.623641 244.062124 
L 157.623641 243.936248 
L 157.789059 243.936248 
L 157.789059 243.306869 
L 157.953034 243.306869 
L 157.953034 242.929241 
L 158.436556 242.929241 
L 158.436556 242.425738 
L 158.595008 242.425738 
L 158.595008 242.299862 
L 158.752135 242.299862 
L 158.752135 241.922234 
L 158.907961 241.922234 
L 158.907961 241.796359 
L 159.215793 241.796359 
L 159.215793 241.292855 
L 159.367841 241.292855 
L 159.367841 240.915228 
L 159.668298 240.915228 
L 159.668298 240.789352 
L 159.816746 240.789352 
L 159.816746 240.285848 
L 159.964032 240.285848 
L 159.964032 240.034097 
L 160.110173 240.034097 
L 160.110173 239.782345 
L 160.255188 239.782345 
L 160.255188 239.656469 
L 160.399093 239.656469 
L 160.399093 239.404717 
L 160.541906 239.404717 
L 160.541906 239.152966 
L 160.82432 239.152966 
L 160.82432 238.39771 
L 161.102557 238.39771 
L 161.102557 237.894207 
L 161.240147 237.894207 
L 161.240147 237.642455 
L 161.646981 237.642455 
L 161.646981 237.138952 
L 161.78066 237.138952 
L 161.78066 236.8872 
L 161.913396 236.8872 
L 161.913396 236.761324 
L 162.045202 236.761324 
L 162.045202 236.131945 
L 162.690724 236.131945 
L 162.690724 236.006069 
L 162.817213 236.006069 
L 162.817213 235.628441 
L 162.942856 235.628441 
L 162.942856 235.502566 
L 163.191653 235.502566 
L 163.191653 235.250814 
L 163.437203 235.250814 
L 163.437203 234.999062 
L 163.558786 234.999062 
L 163.558786 234.873186 
L 163.679588 234.873186 
L 163.679588 234.621434 
L 163.79962 234.621434 
L 163.79962 234.369683 
L 164.037409 234.369683 
L 164.037409 234.117931 
L 164.619057 234.117931 
L 164.619057 233.866179 
L 164.846771 233.866179 
L 164.846771 233.362676 
L 164.959603 233.362676 
L 164.959603 232.859172 
L 165.071763 232.859172 
L 165.071763 232.733297 
L 165.183257 232.733297 
L 165.294095 231.852166 
L 165.731028 231.852166 
L 165.838694 231.222786 
L 165.945747 231.222786 
L 166.052194 230.719283 
L 166.263299 230.719283 
L 166.263299 230.467531 
L 166.47206 230.467531 
L 166.575579 230.089903 
L 166.678531 230.089903 
L 166.780922 229.712276 
L 166.984048 229.712276 
L 167.084795 229.082897 
L 167.185004 229.082897 
L 167.185004 228.831145 
L 167.383837 228.831145 
L 167.48247 228.327641 
L 167.678199 228.327641 
L 167.775305 227.194759 
L 167.871912 227.194759 
L 167.968026 226.691255 
L 168.158793 226.691255 
L 168.158793 226.187752 
L 168.347644 226.187752 
L 168.347644 226.061876 
L 168.534619 226.061876 
L 168.534619 225.810124 
L 168.719753 225.810124 
L 168.811641 225.432497 
L 168.994082 225.432497 
L 168.994082 225.180745 
L 169.174771 225.180745 
L 169.264469 224.677241 
L 169.353741 224.677241 
L 169.353741 224.551366 
L 169.531024 224.551366 
L 169.619042 223.544359 
L 169.880655 223.544359 
L 169.880655 222.789103 
L 170.138678 222.789103 
L 170.223906 222.2856 
L 170.308749 222.2856 
L 170.393211 222.033848 
L 170.477296 222.033848 
L 170.477296 221.782097 
L 170.727317 221.782097 
L 170.727317 221.530345 
L 170.97406 221.530345 
L 170.97406 221.278593 
L 171.136775 221.278593 
L 171.217608 220.397462 
L 171.773916 220.397462 
L 171.852062 220.019834 
L 171.929885 220.019834 
L 171.929885 219.768083 
L 172.237998 219.768083 
L 172.237998 219.516331 
L 172.390182 219.516331 
L 172.465815 218.761076 
L 172.541145 218.761076 
L 172.616174 218.383448 
L 172.765341 218.383448 
L 172.765341 217.879945 
L 172.913335 217.879945 
L 172.986898 217.250566 
L 173.060174 217.250566 
L 173.060174 217.12469 
L 173.278305 217.12469 
L 173.278305 216.872938 
L 173.422332 216.872938 
L 173.493935 216.243559 
L 173.565266 216.243559 
L 173.636328 215.865931 
L 173.917919 215.865931 
L 173.987664 215.488303 
L 174.05715 215.488303 
L 174.126381 214.858924 
L 174.264083 214.858924 
L 174.332558 214.481297 
L 174.400785 214.481297 
L 174.400785 214.229545 
L 174.671243 214.229545 
L 174.738254 213.851917 
L 174.871565 213.851917 
L 174.871565 213.726041 
L 175.003938 213.726041 
L 175.003938 213.47429 
L 175.135386 213.47429 
L 175.135386 213.348414 
L 175.265921 213.348414 
L 175.330851 212.970786 
L 175.460042 212.970786 
L 175.460042 212.467283 
L 175.65218 212.467283 
L 175.65218 212.089655 
L 175.842375 212.089655 
L 175.842375 211.837903 
L 176.030666 211.837903 
L 176.030666 211.586152 
L 176.217092 211.586152 
L 176.217092 211.3344 
L 176.340357 211.3344 
L 176.401688 210.956772 
L 176.523753 210.956772 
L 176.58449 210.579145 
L 176.705378 210.579145 
L 176.765533 210.075641 
L 176.94485 210.075641 
L 176.94485 209.949766 
L 177.239965 209.949766 
L 177.298436 209.572138 
L 177.356727 209.572138 
L 177.356727 209.320386 
L 177.645499 209.320386 
L 177.702725 208.942759 
L 177.759778 208.942759 
L 177.816658 208.439255 
L 178.098508 208.439255 
L 178.098508 208.187503 
L 178.210076 208.187503 
L 178.320986 207.684 
L 178.540864 207.684 
L 178.540864 207.432248 
L 178.865936 207.432248 
L 178.973057 206.802869 
L 179.290807 206.802869 
L 179.290807 206.425241 
L 179.55156 206.425241 
L 179.603279 205.795862 
L 179.75759 205.795862 
L 179.75759 205.669986 
L 180.062466 205.669986 
L 180.163003 204.914731 
L 180.263006 204.914731 
L 180.362479 204.537103 
L 180.510711 204.537103 
L 180.559863 203.781848 
L 180.852108 203.781848 
L 180.948523 203.404221 
L 181.376377 203.404221 
L 181.376377 203.152469 
L 181.563454 203.152469 
L 181.563454 202.900717 
L 181.794715 202.900717 
L 181.840628 202.52309 
L 181.977698 202.52309 
L 182.023168 202.145462 
L 182.516205 202.145462 
L 182.516205 201.89371 
L 182.648457 201.89371 
L 182.648457 201.641959 
L 182.866832 201.641959 
L 182.866832 201.516083 
L 183.125579 201.516083 
L 183.125579 201.264331 
L 183.29612 201.264331 
L 183.380815 200.257324 
L 183.590898 200.257324 
L 183.590898 200.005572 
L 183.71583 200.005572 
L 183.757291 199.627945 
L 183.963234 199.627945 
L 184.004153 199.124441 
L 184.12638 199.124441 
L 184.166946 198.495062 
L 184.488367 198.495062 
L 184.567871 198.117434 
L 184.607497 198.117434 
L 184.686501 197.362179 
L 184.843519 197.362179 
L 184.843519 197.110428 
L 185.076616 197.110428 
L 185.115186 196.7328 
L 185.30686 196.7328 
L 185.30686 196.606924 
L 185.458805 196.606924 
L 185.53432 196.229297 
L 185.571964 196.229297 
L 185.571964 195.977545 
L 186.632107 195.977545 
L 186.703065 195.474041 
L 186.773755 195.474041 
L 186.809001 195.22229 
L 186.949329 195.22229 
L 186.984247 194.970538 
L 187.19241 194.970538 
L 187.19241 194.844662 
L 187.364137 194.844662 
L 187.364137 194.59291 
L 187.669348 194.59291 
L 187.769995 194.089407 
L 187.836795 194.089407 
L 187.836795 193.963531 
L 188.265306 193.963531 
L 188.265306 193.711779 
L 188.459835 193.711779 
L 188.459835 193.585903 
L 188.62042 193.585903 
L 188.62042 193.334152 
L 188.968955 193.334152 
L 189.031638 193.0824 
L 189.187435 193.0824 
L 189.187435 192.704772 
L 189.31115 192.704772 
L 189.31115 192.578897 
L 189.434057 192.578897 
L 189.495211 192.201269 
L 189.586571 192.201269 
L 189.647231 191.823641 
L 189.798033 191.823641 
L 189.798033 191.697766 
L 190.036829 191.697766 
L 190.125601 191.320138 
L 190.418521 191.320138 
L 190.476561 190.94251 
L 190.706949 190.94251 
L 190.706949 190.690759 
L 191.381651 190.690759 
L 191.491786 189.935503 
L 191.791373 189.935503 
L 191.791373 189.809628 
L 192.059645 189.809628 
L 192.139387 189.557876 
L 192.271542 189.557876 
L 192.350392 188.928497 
L 192.559058 188.928497 
L 192.559058 188.676745 
L 193.246689 188.676745 
L 193.246689 188.550869 
L 193.371315 188.550869 
L 193.371315 188.299117 
L 193.519785 188.299117 
L 193.519785 188.173241 
L 193.667092 188.173241 
L 193.667092 188.047366 
L 193.813254 188.047366 
L 193.813254 187.92149 
L 194.221318 187.92149 
L 194.245048 187.669738 
L 194.386805 187.669738 
L 194.386805 187.543862 
L 194.874707 187.543862 
L 194.897627 187.040359 
L 195.260611 187.040359 
L 195.260611 186.914483 
L 195.43951 186.914483 
L 195.550464 186.285103 
L 195.835918 186.285103 
L 195.835918 186.033352 
L 195.966219 186.033352 
L 196.074118 185.7816 
L 196.562635 185.7816 
L 196.562635 185.529848 
L 196.70883 185.529848 
L 196.70883 185.403972 
L 196.997856 185.403972 
L 196.997856 185.152221 
L 197.403196 185.152221 
L 197.403196 184.774593 
L 197.780344 184.774593 
L 197.799986 184.522841 
L 197.975847 184.522841 
L 197.975847 184.396966 
L 198.625757 184.396966 
L 198.719467 184.019338 
L 198.75682 184.019338 
L 198.84988 183.64171 
L 199.416799 183.64171 
L 199.434805 183.389959 
L 199.702852 183.389959 
L 199.791358 183.138207 
L 199.861865 183.138207 
L 199.861865 183.012331 
L 200.399512 183.012331 
L 200.399512 182.886455 
L 200.822177 182.886455 
L 200.822177 182.760579 
L 201.104259 182.760579 
L 201.104259 182.634703 
L 201.268234 182.634703 
L 201.268234 182.508828 
L 202.020334 182.508828 
L 202.020334 182.257076 
L 202.622369 182.257076 
L 202.622369 182.1312 
L 202.908832 182.1312 
L 202.908832 181.879448 
L 203.235167 181.879448 
L 203.235167 181.753572 
L 203.757251 181.753572 
L 203.785835 181.501821 
L 204.348583 181.501821 
L 204.348583 181.250069 
L 205.608317 181.250069 
L 205.608317 181.124193 
L 206.145015 181.124193 
L 206.145015 180.998317 
L 206.617747 180.998317 
L 206.617747 180.872441 
L 207.11482 180.872441 
L 207.210297 180.494814 
L 207.317132 180.494814 
L 207.317132 180.243062 
L 207.888381 180.243062 
L 207.888381 180.117186 
L 208.195892 180.117186 
L 208.195892 179.99131 
L 208.86177 179.99131 
L 208.86177 179.865434 
L 209.196788 179.865434 
L 209.196788 179.613683 
L 221.707929 179.613683 
L 221.707929 179.487807 
L 360.8064 179.487807 
L 360.8064 179.487807 
" style="fill: none; stroke: #ff00ff; stroke-width: 1.5; stroke-linecap: square"/>
   </g>
   <g id="line2d_41">
    <defs>
     <path id="m070cd2149c" d="M -0 8.485281 
L 5.091169 0 
L 0 -8.485281 
L -5.091169 -0 
z
" style="stroke: #ff00ff; stroke-width: 1.5; stroke-linejoin: miter"/>
    </defs>
    <g>
     <use xlink:href="#m070cd2149c" x="83.678349" y="287.111669" style="fill-opacity: 0; stroke: #ff00ff; stroke-width: 1.5; stroke-linejoin: miter"/>
     <use xlink:href="#m070cd2149c" x="161.240147" y="237.894207" style="fill-opacity: 0; stroke: #ff00ff; stroke-width: 1.5; stroke-linejoin: miter"/>
     <use xlink:href="#m070cd2149c" x="209.196788" y="179.865434" style="fill-opacity: 0; stroke: #ff00ff; stroke-width: 1.5; stroke-linejoin: miter"/>
     <use xlink:href="#m070cd2149c" x="221.707929" y="179.487807" style="fill-opacity: 0; stroke: #ff00ff; stroke-width: 1.5; stroke-linejoin: miter"/>
     <use xlink:href="#m070cd2149c" x="221.707929" y="179.487807" style="fill-opacity: 0; stroke: #ff00ff; stroke-width: 1.5; stroke-linejoin: miter"/>
     <use xlink:href="#m070cd2149c" x="360.8064" y="179.487807" style="fill-opacity: 0; stroke: #ff00ff; stroke-width: 1.5; stroke-linejoin: miter"/>
    </g>
   </g>
   <g id="line2d_42">
    <path style="fill: none; stroke: #ff00ff; stroke-width: 1.5; stroke-linecap: square"/>
    <g/>
   </g>
   <g id="line2d_43">
    <path d="M 230.859295 179.487807 
" clip-path="url(#pd046b97082)" style="fill: none; stroke: #ff00ff; stroke-width: 1.5; stroke-linecap: square"/>
    <defs>
     <path id="mbcfcad9190" d="M -12 12 
L 12 -12 
M -12 -12 
L 12 12 
" style="stroke: #ff00ff"/>
    </defs>
    <g clip-path="url(#pd046b97082)">
     <use xlink:href="#mbcfcad9190" x="230.859295" y="179.487807" style="fill: #ff00ff; stroke: #ff00ff"/>
    </g>
   </g>
   <g id="line2d_44">
    <path d="M 360.8064 179.487807 
L 380.514816 293.10336 
" style="fill: none; stroke: #ff00ff; stroke-width: 1.5; stroke-linecap: square"/>
    <g>
     <use xlink:href="#m070cd2149c" x="360.8064" y="179.487807" style="fill-opacity: 0; stroke: #ff00ff; stroke-width: 1.5; stroke-linejoin: miter"/>
     <use xlink:href="#m070cd2149c" x="380.514816" y="293.10336" style="fill-opacity: 0; stroke: #ff00ff; stroke-width: 1.5; stroke-linejoin: miter"/>
    </g>
   </g>
   <g id="line2d_45">
    <path d="M 360.8064 177.977297 
L 380.514816 152.928 
" style="fill: none; stroke: #000080; stroke-width: 1.5; stroke-linecap: square"/>
    <g>
     <use xlink:href="#m9221d11510" x="360.8064" y="177.977297" style="fill-opacity: 0; stroke: #000080; stroke-width: 1.5"/>
     <use xlink:href="#m9221d11510" x="380.514816" y="152.928" style="fill-opacity: 0; stroke: #000080; stroke-width: 1.5"/>
    </g>
   </g>
   <g id="line2d_46">
    <path d="M 360.8064 298.944 
L 360.8064 6.912 
" style="fill: none; stroke: #000000; stroke-width: 1.5; stroke-linecap: square"/>
   </g>
   <g id="patch_3">
    <path d="M 57.6 298.944 
L 360.8064 298.944 
" style="fill: none; stroke: #000000; stroke-width: 0.8; stroke-linejoin: miter; stroke-linecap: square"/>
   </g>
   <g id="patch_4">
    <path d="M 57.6 6.912 
L 360.8064 6.912 
" style="fill: none; stroke: #000000; stroke-width: 0.8; stroke-linejoin: miter; stroke-linecap: square"/>
   </g>
   <g id="text_13">
    <!-- kerComo -->
    <g transform="translate(386.578944 296.966485) scale(0.14 -0.14)">
     <defs>
      <path id="DejaVuSans-6b" d="M 581 4863 
L 1159 4863 
L 1159 1991 
L 2875 3500 
L 3609 3500 
L 1753 1863 
L 3688 0 
L 2938 0 
L 1159 1709 
L 1159 0 
L 581 0 
L 581 4863 
z
" transform="scale(0.015625)"/>
      <path id="DejaVuSans-43" d="M 4122 4306 
L 4122 3641 
Q 3803 3938 3442 4084 
Q 3081 4231 2675 4231 
Q 1875 4231 1450 3742 
Q 1025 3253 1025 2328 
Q 1025 1406 1450 917 
Q 1875 428 2675 428 
Q 3081 428 3442 575 
Q 3803 722 4122 1019 
L 4122 359 
Q 3791 134 3420 21 
Q 3050 -91 2638 -91 
Q 1578 -91 968 557 
Q 359 1206 359 2328 
Q 359 3453 968 4101 
Q 1578 4750 2638 4750 
Q 3056 4750 3426 4639 
Q 3797 4528 4122 4306 
z
" transform="scale(0.015625)"/>
     </defs>
     <use xlink:href="#DejaVuSans-6b"/>
     <use xlink:href="#DejaVuSans-65" x="54.285156"/>
     <use xlink:href="#DejaVuSans-72" x="115.808594"/>
     <use xlink:href="#DejaVuSans-43" x="156.921875"/>
     <use xlink:href="#DejaVuSans-6f" x="226.746094"/>
     <use xlink:href="#DejaVuSans-6d" x="287.927734"/>
     <use xlink:href="#DejaVuSans-6f" x="385.339844"/>
    </g>
   </g>
   <g id="text_14">
    <!-- kerLQ -->
    <g transform="translate(386.578944 156.791125) scale(0.14 -0.14)">
     <defs>
      <path id="DejaVuSans-4c" d="M 628 4666 
L 1259 4666 
L 1259 531 
L 3531 531 
L 3531 0 
L 628 0 
L 628 4666 
z
" transform="scale(0.015625)"/>
      <path id="DejaVuSans-51" d="M 2522 4238 
Q 1834 4238 1429 3725 
Q 1025 3213 1025 2328 
Q 1025 1447 1429 934 
Q 1834 422 2522 422 
Q 3209 422 3611 934 
Q 4013 1447 4013 2328 
Q 4013 3213 3611 3725 
Q 3209 4238 2522 4238 
z
M 3406 84 
L 4238 -825 
L 3475 -825 
L 2784 -78 
Q 2681 -84 2626 -87 
Q 2572 -91 2522 -91 
Q 1538 -91 948 567 
Q 359 1225 359 2328 
Q 359 3434 948 4092 
Q 1538 4750 2522 4750 
Q 3503 4750 4090 4092 
Q 4678 3434 4678 2328 
Q 4678 1516 4351 937 
Q 4025 359 3406 84 
z
" transform="scale(0.015625)"/>
     </defs>
     <use xlink:href="#DejaVuSans-6b"/>
     <use xlink:href="#DejaVuSans-65" x="54.285156"/>
     <use xlink:href="#DejaVuSans-72" x="115.808594"/>
     <use xlink:href="#DejaVuSans-4c" x="156.921875"/>
     <use xlink:href="#DejaVuSans-51" x="212.634766"/>
    </g>
   </g>
   <g id="text_15">
    <!-- best 2016 -->
    <g transform="translate(386.578944 16.615765) scale(0.14 -0.14)">
     <defs>
      <path id="DejaVuSans-62" d="M 3116 1747 
Q 3116 2381 2855 2742 
Q 2594 3103 2138 3103 
Q 1681 3103 1420 2742 
Q 1159 2381 1159 1747 
Q 1159 1113 1420 752 
Q 1681 391 2138 391 
Q 2594 391 2855 752 
Q 3116 1113 3116 1747 
z
M 1159 2969 
Q 1341 3281 1617 3432 
Q 1894 3584 2278 3584 
Q 2916 3584 3314 3078 
Q 3713 2572 3713 1747 
Q 3713 922 3314 415 
Q 2916 -91 2278 -91 
Q 1894 -91 1617 61 
Q 1341 213 1159 525 
L 1159 0 
L 581 0 
L 581 4863 
L 1159 4863 
L 1159 2969 
z
" transform="scale(0.015625)"/>
     </defs>
     <use xlink:href="#DejaVuSans-62"/>
     <use xlink:href="#DejaVuSans-65" x="63.476562"/>
     <use xlink:href="#DejaVuSans-73" x="125"/>
     <use xlink:href="#DejaVuSans-74" x="177.099609"/>
     <use xlink:href="#DejaVuSans-20" x="216.308594"/>
     <use xlink:href="#DejaVuSans-32" x="248.095703"/>
     <use xlink:href="#DejaVuSans-30" x="311.71875"/>
     <use xlink:href="#DejaVuSans-31" x="375.341797"/>
     <use xlink:href="#DejaVuSans-36" x="438.964844"/>
    </g>
   </g>
   <g id="text_16">
    <!-- bbob-biobj f5, f6, f14, f15, 5-D -->
    <g transform="translate(60.632064 17.582726) scale(0.102 -0.102)">
     <defs>
      <path id="DejaVuSans-6a" d="M 603 3500 
L 1178 3500 
L 1178 -63 
Q 1178 -731 923 -1031 
Q 669 -1331 103 -1331 
L -116 -1331 
L -116 -844 
L 38 -844 
Q 366 -844 484 -692 
Q 603 -541 603 -63 
L 603 3500 
z
M 603 4863 
L 1178 4863 
L 1178 4134 
L 603 4134 
L 603 4863 
z
" transform="scale(0.015625)"/>
      <path id="DejaVuSans-35" d="M 691 4666 
L 3169 4666 
L 3169 4134 
L 1269 4134 
L 1269 2991 
Q 1406 3038 1543 3061 
Q 1681 3084 1819 3084 
Q 2600 3084 3056 2656 
Q 3513 2228 3513 1497 
Q 3513 744 3044 326 
Q 2575 -91 1722 -91 
Q 1428 -91 1123 -41 
Q 819 9 494 109 
L 494 744 
Q 775 591 1075 516 
Q 1375 441 1709 441 
Q 2250 441 2565 725 
Q 2881 1009 2881 1497 
Q 2881 1984 2565 2268 
Q 2250 2553 1709 2553 
Q 1456 2553 1204 2497 
Q 953 2441 691 2322 
L 691 4666 
z
" transform="scale(0.015625)"/>
      <path id="DejaVuSans-44" d="M 1259 4147 
L 1259 519 
L 2022 519 
Q 2988 519 3436 956 
Q 3884 1394 3884 2338 
Q 3884 3275 3436 3711 
Q 2988 4147 2022 4147 
L 1259 4147 
z
M 628 4666 
L 1925 4666 
Q 3281 4666 3915 4102 
Q 4550 3538 4550 2338 
Q 4550 1131 3912 565 
Q 3275 0 1925 0 
L 628 0 
L 628 4666 
z
" transform="scale(0.015625)"/>
     </defs>
     <use xlink:href="#DejaVuSans-62"/>
     <use xlink:href="#DejaVuSans-62" x="63.476562"/>
     <use xlink:href="#DejaVuSans-6f" x="126.953125"/>
     <use xlink:href="#DejaVuSans-62" x="188.134766"/>
     <use xlink:href="#DejaVuSans-2d" x="251.611328"/>
     <use xlink:href="#DejaVuSans-62" x="287.695312"/>
     <use xlink:href="#DejaVuSans-69" x="351.171875"/>
     <use xlink:href="#DejaVuSans-6f" x="378.955078"/>
     <use xlink:href="#DejaVuSans-62" x="440.136719"/>
     <use xlink:href="#DejaVuSans-6a" x="503.613281"/>
     <use xlink:href="#DejaVuSans-20" x="531.396484"/>
     <use xlink:href="#DejaVuSans-66" x="563.183594"/>
     <use xlink:href="#DejaVuSans-35" x="598.388672"/>
     <use xlink:href="#DejaVuSans-2c" x="662.011719"/>
     <use xlink:href="#DejaVuSans-20" x="693.798828"/>
     <use xlink:href="#DejaVuSans-66" x="725.585938"/>
     <use xlink:href="#DejaVuSans-36" x="760.791016"/>
     <use xlink:href="#DejaVuSans-2c" x="824.414062"/>
     <use xlink:href="#DejaVuSans-20" x="856.201172"/>
     <use xlink:href="#DejaVuSans-66" x="887.988281"/>
     <use xlink:href="#DejaVuSans-31" x="923.193359"/>
     <use xlink:href="#DejaVuSans-34" x="986.816406"/>
     <use xlink:href="#DejaVuSans-2c" x="1050.439453"/>
     <use xlink:href="#DejaVuSans-20" x="1082.226562"/>
     <use xlink:href="#DejaVuSans-66" x="1114.013672"/>
     <use xlink:href="#DejaVuSans-31" x="1149.21875"/>
     <use xlink:href="#DejaVuSans-35" x="1212.841797"/>
     <use xlink:href="#DejaVuSans-2c" x="1276.464844"/>
     <use xlink:href="#DejaVuSans-20" x="1308.251953"/>
     <use xlink:href="#DejaVuSans-35" x="1340.039062"/>
     <use xlink:href="#DejaVuSans-2d" x="1403.662109"/>
     <use xlink:href="#DejaVuSans-44" x="1439.746094"/>
    </g>
    <!-- 58 targets: 1..-1.0e-4 -->
    <g transform="translate(60.632064 29.004495) scale(0.102 -0.102)">
     <defs>
      <path id="DejaVuSans-3a" d="M 750 794 
L 1409 794 
L 1409 0 
L 750 0 
L 750 794 
z
M 750 3309 
L 1409 3309 
L 1409 2516 
L 750 2516 
L 750 3309 
z
" transform="scale(0.015625)"/>
     </defs>
     <use xlink:href="#DejaVuSans-35"/>
     <use xlink:href="#DejaVuSans-38" x="63.623047"/>
     <use xlink:href="#DejaVuSans-20" x="127.246094"/>
     <use xlink:href="#DejaVuSans-74" x="159.033203"/>
     <use xlink:href="#DejaVuSans-61" x="198.242188"/>
     <use xlink:href="#DejaVuSans-72" x="259.521484"/>
     <use xlink:href="#DejaVuSans-67" x="298.884766"/>
     <use xlink:href="#DejaVuSans-65" x="362.361328"/>
     <use xlink:href="#DejaVuSans-74" x="423.884766"/>
     <use xlink:href="#DejaVuSans-73" x="463.09375"/>
     <use xlink:href="#DejaVuSans-3a" x="515.193359"/>
     <use xlink:href="#DejaVuSans-20" x="548.884766"/>
     <use xlink:href="#DejaVuSans-31" x="580.671875"/>
     <use xlink:href="#DejaVuSans-2e" x="644.294922"/>
     <use xlink:href="#DejaVuSans-2e" x="676.082031"/>
     <use xlink:href="#DejaVuSans-2d" x="707.869141"/>
     <use xlink:href="#DejaVuSans-31" x="743.953125"/>
     <use xlink:href="#DejaVuSans-2e" x="807.576172"/>
     <use xlink:href="#DejaVuSans-30" x="839.363281"/>
     <use xlink:href="#DejaVuSans-65" x="902.986328"/>
     <use xlink:href="#DejaVuSans-2d" x="964.509766"/>
     <use xlink:href="#DejaVuSans-34" x="1000.59375"/>
    </g>
    <!-- 10 instances -->
    <g transform="translate(60.632064 40.426264) scale(0.102 -0.102)">
     <use xlink:href="#DejaVuSans-31"/>
     <use xlink:href="#DejaVuSans-30" x="63.623047"/>
     <use xlink:href="#DejaVuSans-20" x="127.246094"/>
     <use xlink:href="#DejaVuSans-69" x="159.033203"/>
     <use xlink:href="#DejaVuSans-6e" x="186.816406"/>
     <use xlink:href="#DejaVuSans-73" x="250.195312"/>
     <use xlink:href="#DejaVuSans-74" x="302.294922"/>
     <use xlink:href="#DejaVuSans-61" x="341.503906"/>
     <use xlink:href="#DejaVuSans-6e" x="402.783203"/>
     <use xlink:href="#DejaVuSans-63" x="466.162109"/>
     <use xlink:href="#DejaVuSans-65" x="521.142578"/>
     <use xlink:href="#DejaVuSans-73" x="582.666016"/>
    </g>
   </g>
   <g id="text_17">
    <!-- v2.6, hv-hash=ff0e71e8cd978373 -->
    <g style="fill: #808080" transform="translate(123.707887 293.943992) scale(0.1 -0.1)">
     <defs>
      <path id="DejaVuSans-68" d="M 3513 2113 
L 3513 0 
L 2938 0 
L 2938 2094 
Q 2938 2591 2744 2837 
Q 2550 3084 2163 3084 
Q 1697 3084 1428 2787 
Q 1159 2491 1159 1978 
L 1159 0 
L 581 0 
L 581 4863 
L 1159 4863 
L 1159 2956 
Q 1366 3272 1645 3428 
Q 1925 3584 2291 3584 
Q 2894 3584 3203 3211 
Q 3513 2838 3513 2113 
z
" transform="scale(0.015625)"/>
      <path id="DejaVuSans-3d" d="M 678 2906 
L 4684 2906 
L 4684 2381 
L 678 2381 
L 678 2906 
z
M 678 1631 
L 4684 1631 
L 4684 1100 
L 678 1100 
L 678 1631 
z
" transform="scale(0.015625)"/>
      <path id="DejaVuSans-37" d="M 525 4666 
L 3525 4666 
L 3525 4397 
L 1831 0 
L 1172 0 
L 2766 4134 
L 525 4134 
L 525 4666 
z
" transform="scale(0.015625)"/>
      <path id="DejaVuSans-39" d="M 703 97 
L 703 672 
Q 941 559 1184 500 
Q 1428 441 1663 441 
Q 2288 441 2617 861 
Q 2947 1281 2994 2138 
Q 2813 1869 2534 1725 
Q 2256 1581 1919 1581 
Q 1219 1581 811 2004 
Q 403 2428 403 3163 
Q 403 3881 828 4315 
Q 1253 4750 1959 4750 
Q 2769 4750 3195 4129 
Q 3622 3509 3622 2328 
Q 3622 1225 3098 567 
Q 2575 -91 1691 -91 
Q 1453 -91 1209 -44 
Q 966 3 703 97 
z
M 1959 2075 
Q 2384 2075 2632 2365 
Q 2881 2656 2881 3163 
Q 2881 3666 2632 3958 
Q 2384 4250 1959 4250 
Q 1534 4250 1286 3958 
Q 1038 3666 1038 3163 
Q 1038 2656 1286 2365 
Q 1534 2075 1959 2075 
z
" transform="scale(0.015625)"/>
      <path id="DejaVuSans-33" d="M 2597 2516 
Q 3050 2419 3304 2112 
Q 3559 1806 3559 1356 
Q 3559 666 3084 287 
Q 2609 -91 1734 -91 
Q 1441 -91 1130 -33 
Q 819 25 488 141 
L 488 750 
Q 750 597 1062 519 
Q 1375 441 1716 441 
Q 2309 441 2620 675 
Q 2931 909 2931 1356 
Q 2931 1769 2642 2001 
Q 2353 2234 1838 2234 
L 1294 2234 
L 1294 2753 
L 1863 2753 
Q 2328 2753 2575 2939 
Q 2822 3125 2822 3475 
Q 2822 3834 2567 4026 
Q 2313 4219 1838 4219 
Q 1578 4219 1281 4162 
Q 984 4106 628 3988 
L 628 4550 
Q 988 4650 1302 4700 
Q 1616 4750 1894 4750 
Q 2613 4750 3031 4423 
Q 3450 4097 3450 3541 
Q 3450 3153 3228 2886 
Q 3006 2619 2597 2516 
z
" transform="scale(0.015625)"/>
     </defs>
     <use xlink:href="#DejaVuSans-76"/>
     <use xlink:href="#DejaVuSans-32" x="59.179688"/>
     <use xlink:href="#DejaVuSans-2e" x="122.802734"/>
     <use xlink:href="#DejaVuSans-36" x="154.589844"/>
     <use xlink:href="#DejaVuSans-2c" x="218.212891"/>
     <use xlink:href="#DejaVuSans-20" x="250"/>
     <use xlink:href="#DejaVuSans-68" x="281.787109"/>
     <use xlink:href="#DejaVuSans-76" x="345.166016"/>
     <use xlink:href="#DejaVuSans-2d" x="401.720703"/>
     <use xlink:href="#DejaVuSans-68" x="437.804688"/>
     <use xlink:href="#DejaVuSans-61" x="501.183594"/>
     <use xlink:href="#DejaVuSans-73" x="562.462891"/>
     <use xlink:href="#DejaVuSans-68" x="614.5625"/>
     <use xlink:href="#DejaVuSans-3d" x="677.941406"/>
     <use xlink:href="#DejaVuSans-66" x="761.730469"/>
     <use xlink:href="#DejaVuSans-66" x="796.935547"/>
     <use xlink:href="#DejaVuSans-30" x="832.140625"/>
     <use xlink:href="#DejaVuSans-65" x="895.763672"/>
     <use xlink:href="#DejaVuSans-37" x="957.287109"/>
     <use xlink:href="#DejaVuSans-31" x="1020.910156"/>
     <use xlink:href="#DejaVuSans-65" x="1084.533203"/>
     <use xlink:href="#DejaVuSans-38" x="1146.056641"/>
     <use xlink:href="#DejaVuSans-63" x="1209.679688"/>
     <use xlink:href="#DejaVuSans-64" x="1264.660156"/>
     <use xlink:href="#DejaVuSans-39" x="1328.136719"/>
     <use xlink:href="#DejaVuSans-37" x="1391.759766"/>
     <use xlink:href="#DejaVuSans-38" x="1455.382812"/>
     <use xlink:href="#DejaVuSans-33" x="1519.005859"/>
     <use xlink:href="#DejaVuSans-37" x="1582.628906"/>
     <use xlink:href="#DejaVuSans-33" x="1646.251953"/>
    </g>
   </g>
  </g>
 </g>
 <defs>
  <clipPath id="pd046b97082">
   <rect x="57.6" y="6.912" width="303.2064" height="292.032"/>
  </clipPath>
 </defs>
</svg>
