<?xml version="1.0" encoding="utf-8" standalone="no"?>
<!DOCTYPE svg PUBLIC "-//W3C//DTD SVG 1.1//EN"
  "http://www.w3.org/Graphics/SVG/1.1/DTD/svg11.dtd">
<svg xmlns:xlink="http://www.w3.org/1999/xlink" width="460.8pt" height="345.6pt" viewBox="0 0 460.8 345.6" xmlns="http://www.w3.org/2000/svg" version="1.1">
 <metadata>
  <rdf:RDF xmlns:dc="http://purl.org/dc/elements/1.1/" xmlns:cc="http://creativecommons.org/ns#" xmlns:rdf="http://www.w3.org/1999/02/22-rdf-syntax-ns#">
   <cc:Work>
    <dc:type rdf:resource="http://purl.org/dc/dcmitype/StillImage"/>
    <dc:date>2023-02-13T15:00:06.207430</dc:date>
    <dc:format>image/svg+xml</dc:format>
    <dc:creator>
     <cc:Agent>
      <dc:title>Matplotlib v3.6.3, https://matplotlib.org/</dc:title>
     </cc:Agent>
    </dc:creator>
   </cc:Work>
  </rdf:RDF>
 </metadata>
 <defs>
  <style type="text/css">*{stroke-linejoin: round; stroke-linecap: butt}</style>
 </defs>
 <g id="figure_1">
  <g id="patch_1">
   <path d="M 0 345.6 
L 460.8 345.6 
L 460.8 0 
L 0 0 
z
" style="fill: #ffffff"/>
  </g>
  <g id="axes_1">
   <g id="patch_2">
    <path d="M 57.6 298.944 
L 360.8064 298.944 
L 360.8064 6.912 
L 57.6 6.912 
z
" style="fill: #ffffff"/>
   </g>
   <g id="line2d_1">
    <path d="M 1.245626 298.944 
L 1.245626 296.426483 
L 37.851216 296.426483 
L 37.851216 295.167724 
L 46.353758 295.167724 
L 46.353758 293.908966 
L 47.990577 293.908966 
L 47.990577 291.391448 
L 54.542767 291.391448 
L 54.542767 288.873931 
L 59.392932 288.873931 
L 59.392932 286.356414 
L 60.229139 286.356414 
L 60.229139 283.838897 
L 65.227428 283.838897 
L 65.227428 281.321379 
L 68.127242 281.321379 
L 68.127242 278.803862 
L 76.284608 278.803862 
L 76.284608 277.545103 
L 78.577544 277.545103 
L 78.577544 276.286345 
L 81.166416 276.286345 
L 81.166416 273.768828 
L 84.142855 273.768828 
L 84.142855 271.25131 
L 85.683844 271.25131 
L 85.683844 267.475034 
L 88.248544 267.475034 
L 88.248544 262.44 
L 92.073702 262.44 
L 92.073702 261.181241 
L 92.955655 261.181241 
L 92.955655 258.663724 
L 93.934916 258.663724 
L 93.934916 254.887448 
L 94.07074 254.887448 
L 94.07074 252.369931 
L 95.377623 252.369931 
L 95.377623 248.593655 
L 98.077987 248.593655 
L 98.077987 246.076138 
L 99.550033 246.076138 
L 99.550033 244.817379 
L 99.751228 244.817379 
L 99.751228 243.558621 
L 102.362957 243.558621 
L 102.362957 241.041103 
L 105.112877 241.041103 
L 105.112877 238.523586 
L 108.034177 238.523586 
L 108.034177 236.006069 
L 108.29012 236.006069 
L 108.29012 234.74731 
L 112.639708 234.74731 
L 112.639708 230.971034 
L 112.989468 230.971034 
L 112.989468 229.712276 
L 119.704027 229.712276 
L 119.704027 227.194759 
L 120.149089 227.194759 
L 120.149089 223.418483 
L 123.202939 223.418483 
L 123.202939 220.900966 
L 123.908631 220.900966 
L 123.908631 218.383448 
L 126.637484 218.383448 
L 126.637484 214.607172 
L 129.744974 214.607172 
L 129.744974 212.089655 
L 132.760515 212.089655 
L 132.760515 209.572138 
L 134.479359 209.572138 
L 134.479359 205.795862 
L 134.901055 205.795862 
L 134.901055 203.278345 
L 138.604239 203.278345 
L 138.604239 200.760828 
L 140.972924 200.760828 
L 140.972924 198.24331 
L 141.206334 198.24331 
L 141.206334 195.725793 
L 141.782854 195.725793 
L 141.782854 193.208276 
L 146.826795 193.208276 
L 146.826795 190.690759 
L 147.143646 190.690759 
L 147.143646 188.173241 
L 147.534321 188.173241 
L 147.534321 185.655724 
L 151.33004 185.655724 
L 151.33004 184.396966 
L 153.363556 184.396966 
L 153.467455 180.62069 
L 153.507706 180.62069 
L 153.507706 179.361931 
L 159.717911 179.361931 
L 159.717911 178.103172 
L 160.35923 178.103172 
L 160.35923 174.326897 
L 161.721364 174.326897 
L 161.721364 170.550621 
L 162.970663 170.550621 
L 162.970663 166.774345 
L 165.477385 166.774345 
L 165.477385 162.998069 
L 167.837083 162.998069 
L 167.837083 161.73931 
L 168.650541 161.73931 
L 168.650541 160.480552 
L 171.028455 160.480552 
L 171.028455 159.221793 
L 171.24 159.221793 
L 171.24 157.963034 
L 174.878944 157.963034 
L 174.878944 154.186759 
L 176.476377 154.186759 
L 176.476377 150.410483 
L 177.028937 150.410483 
L 177.028937 146.634207 
L 182.507601 146.634207 
L 182.507601 144.11669 
L 184.211918 144.11669 
L 184.211918 141.599172 
L 185.457754 141.599172 
L 185.457754 137.822897 
L 185.841624 137.822897 
L 185.841624 135.305379 
L 192.896817 135.305379 
L 192.896817 134.046621 
L 193.157561 134.046621 
L 193.157561 132.787862 
L 196.154638 132.787862 
L 196.154638 131.529103 
L 202.125921 131.529103 
L 202.125921 127.752828 
L 202.574198 127.752828 
L 202.634604 121.459034 
L 206.931464 121.459034 
L 206.931464 117.682759 
L 210.197395 117.682759 
L 210.197395 116.424 
L 212.322138 116.424 
L 212.322138 115.165241 
L 216.440674 115.165241 
L 216.440674 113.906483 
L 217.805817 113.906483 
L 217.805817 112.647724 
L 218.126707 112.647724 
L 218.126707 108.871448 
L 226.071342 108.871448 
L 226.071342 106.353931 
L 226.605189 106.353931 
L 226.605189 102.577655 
L 232.960412 102.577655 
L 232.960412 98.801379 
L 234.856869 98.801379 
L 234.856869 96.283862 
L 237.157618 96.283862 
L 237.157618 93.766345 
L 239.250434 93.766345 
L 239.250434 91.248828 
L 240.595186 91.248828 
L 240.595186 87.472552 
L 242.775735 87.472552 
L 242.775735 86.213793 
L 245.196809 86.213793 
L 245.196809 84.955034 
L 247.302351 84.955034 
L 247.302351 82.437517 
L 248.094378 82.437517 
L 248.094378 79.92 
L 253.358489 79.92 
L 253.358489 76.143724 
L 256.272894 76.143724 
L 256.272894 73.626207 
L 261.183233 73.626207 
L 261.183233 71.10869 
L 267.296171 71.10869 
L 267.296171 69.849931 
L 267.443117 69.849931 
L 267.443117 66.073655 
L 275.747929 66.073655 
L 275.747929 62.297379 
L 277.647717 62.297379 
L 277.647717 59.779862 
L 280.697668 59.779862 
L 280.697668 57.262345 
L 284.271964 57.262345 
L 284.271964 56.003586 
L 284.616703 56.003586 
L 284.616703 54.744828 
L 286.084448 54.744828 
L 286.084448 52.22731 
L 288.443305 52.22731 
L 288.443305 48.451034 
L 296.874263 48.451034 
L 296.874263 45.933517 
L 310.43387 45.933517 
L 310.43387 42.157241 
L 360.8064 42.157241 
L 360.8064 42.157241 
" style="fill: none; stroke: #f5deb3; stroke-width: 4; stroke-linecap: square"/>
   </g>
   <g id="line2d_2">
    <defs>
     <path id="mde157997c2" d="M -0 7.778175 
L 7.778175 0 
L 0 -7.778175 
L -7.778175 -0 
z
" style="stroke: #f5deb3; stroke-width: 1.5; stroke-linejoin: miter"/>
    </defs>
    <g>
     <use xlink:href="#mde157997c2" x="92.955655" y="258.663724" style="fill: #f5deb3; stroke: #f5deb3; stroke-width: 1.5; stroke-linejoin: miter"/>
     <use xlink:href="#mde157997c2" x="159.717911" y="178.103172" style="fill: #f5deb3; stroke: #f5deb3; stroke-width: 1.5; stroke-linejoin: miter"/>
     <use xlink:href="#mde157997c2" x="216.440674" y="113.906483" style="fill: #f5deb3; stroke: #f5deb3; stroke-width: 1.5; stroke-linejoin: miter"/>
     <use xlink:href="#mde157997c2" x="288.443305" y="52.22731" style="fill: #f5deb3; stroke: #f5deb3; stroke-width: 1.5; stroke-linejoin: miter"/>
     <use xlink:href="#mde157997c2" x="310.43387" y="42.157241" style="fill: #f5deb3; stroke: #f5deb3; stroke-width: 1.5; stroke-linejoin: miter"/>
     <use xlink:href="#mde157997c2" x="360.8064" y="42.157241" style="fill: #f5deb3; stroke: #f5deb3; stroke-width: 1.5; stroke-linejoin: miter"/>
    </g>
   </g>
   <g id="line2d_3">
    <path style="fill: none; stroke: #f5deb3; stroke-width: 4; stroke-linecap: square"/>
    <g/>
   </g>
   <g id="line2d_4">
    <path d="M 360.8064 42.157241 
L 380.514816 12.75264 
" style="fill: none; stroke: #f5deb3; stroke-width: 4; stroke-linecap: square"/>
    <g>
     <use xlink:href="#mde157997c2" x="360.8064" y="42.157241" style="fill: #f5deb3; stroke: #f5deb3; stroke-width: 1.5; stroke-linejoin: miter"/>
     <use xlink:href="#mde157997c2" x="380.514816" y="12.75264" style="fill: #f5deb3; stroke: #f5deb3; stroke-width: 1.5; stroke-linejoin: miter"/>
    </g>
   </g>
   <g id="matplotlib.axis_1">
    <g id="xtick_1">
     <g id="line2d_5">
      <path d="M 57.6 298.944 
L 57.6 6.912 
" clip-path="url(#pae7b4c593e)" style="fill: none; stroke: #b0b0b0; stroke-width: 0.8; stroke-linecap: square"/>
     </g>
     <g id="line2d_6">
      <defs>
       <path id="m052dc930f8" d="M 0 0 
L 0 3.5 
" style="stroke: #000000; stroke-width: 0.8"/>
      </defs>
      <g>
       <use xlink:href="#m052dc930f8" x="57.6" y="298.944" style="stroke: #000000; stroke-width: 0.8"/>
      </g>
     </g>
     <g id="text_1">
      <!-- 0 -->
      <g transform="translate(52.191875 318.861344) scale(0.17 -0.17)">
       <defs>
        <path id="DejaVuSans-30" d="M 2034 4250 
Q 1547 4250 1301 3770 
Q 1056 3291 1056 2328 
Q 1056 1369 1301 889 
Q 1547 409 2034 409 
Q 2525 409 2770 889 
Q 3016 1369 3016 2328 
Q 3016 3291 2770 3770 
Q 2525 4250 2034 4250 
z
M 2034 4750 
Q 2819 4750 3233 4129 
Q 3647 3509 3647 2328 
Q 3647 1150 3233 529 
Q 2819 -91 2034 -91 
Q 1250 -91 836 529 
Q 422 1150 422 2328 
Q 422 3509 836 4129 
Q 1250 4750 2034 4750 
z
" transform="scale(0.015625)"/>
       </defs>
       <use xlink:href="#DejaVuSans-30"/>
      </g>
     </g>
    </g>
    <g id="xtick_2">
     <g id="line2d_7">
      <path d="M 144.2304 298.944 
L 144.2304 6.912 
" clip-path="url(#pae7b4c593e)" style="fill: none; stroke: #b0b0b0; stroke-width: 0.8; stroke-linecap: square"/>
     </g>
     <g id="line2d_8">
      <g>
       <use xlink:href="#m052dc930f8" x="144.2304" y="298.944" style="stroke: #000000; stroke-width: 0.8"/>
      </g>
     </g>
     <g id="text_2">
      <!-- 2 -->
      <g transform="translate(138.822275 318.861344) scale(0.17 -0.17)">
       <defs>
        <path id="DejaVuSans-32" d="M 1228 531 
L 3431 531 
L 3431 0 
L 469 0 
L 469 531 
Q 828 903 1448 1529 
Q 2069 2156 2228 2338 
Q 2531 2678 2651 2914 
Q 2772 3150 2772 3378 
Q 2772 3750 2511 3984 
Q 2250 4219 1831 4219 
Q 1534 4219 1204 4116 
Q 875 4013 500 3803 
L 500 4441 
Q 881 4594 1212 4672 
Q 1544 4750 1819 4750 
Q 2544 4750 2975 4387 
Q 3406 4025 3406 3419 
Q 3406 3131 3298 2873 
Q 3191 2616 2906 2266 
Q 2828 2175 2409 1742 
Q 1991 1309 1228 531 
z
" transform="scale(0.015625)"/>
       </defs>
       <use xlink:href="#DejaVuSans-32"/>
      </g>
     </g>
    </g>
    <g id="xtick_3">
     <g id="line2d_9">
      <path d="M 230.8608 298.944 
L 230.8608 6.912 
" clip-path="url(#pae7b4c593e)" style="fill: none; stroke: #b0b0b0; stroke-width: 0.8; stroke-linecap: square"/>
     </g>
     <g id="line2d_10">
      <g>
       <use xlink:href="#m052dc930f8" x="230.8608" y="298.944" style="stroke: #000000; stroke-width: 0.8"/>
      </g>
     </g>
     <g id="text_3">
      <!-- 4 -->
      <g transform="translate(225.452675 318.861344) scale(0.17 -0.17)">
       <defs>
        <path id="DejaVuSans-34" d="M 2419 4116 
L 825 1625 
L 2419 1625 
L 2419 4116 
z
M 2253 4666 
L 3047 4666 
L 3047 1625 
L 3713 1625 
L 3713 1100 
L 3047 1100 
L 3047 0 
L 2419 0 
L 2419 1100 
L 313 1100 
L 313 1709 
L 2253 4666 
z
" transform="scale(0.015625)"/>
       </defs>
       <use xlink:href="#DejaVuSans-34"/>
      </g>
     </g>
    </g>
    <g id="xtick_4">
     <g id="line2d_11">
      <path d="M 317.4912 298.944 
L 317.4912 6.912 
" clip-path="url(#pae7b4c593e)" style="fill: none; stroke: #b0b0b0; stroke-width: 0.8; stroke-linecap: square"/>
     </g>
     <g id="line2d_12">
      <g>
       <use xlink:href="#m052dc930f8" x="317.4912" y="298.944" style="stroke: #000000; stroke-width: 0.8"/>
      </g>
     </g>
     <g id="text_4">
      <!-- 6 -->
      <g transform="translate(312.083075 318.861344) scale(0.17 -0.17)">
       <defs>
        <path id="DejaVuSans-36" d="M 2113 2584 
Q 1688 2584 1439 2293 
Q 1191 2003 1191 1497 
Q 1191 994 1439 701 
Q 1688 409 2113 409 
Q 2538 409 2786 701 
Q 3034 994 3034 1497 
Q 3034 2003 2786 2293 
Q 2538 2584 2113 2584 
z
M 3366 4563 
L 3366 3988 
Q 3128 4100 2886 4159 
Q 2644 4219 2406 4219 
Q 1781 4219 1451 3797 
Q 1122 3375 1075 2522 
Q 1259 2794 1537 2939 
Q 1816 3084 2150 3084 
Q 2853 3084 3261 2657 
Q 3669 2231 3669 1497 
Q 3669 778 3244 343 
Q 2819 -91 2113 -91 
Q 1303 -91 875 529 
Q 447 1150 447 2328 
Q 447 3434 972 4092 
Q 1497 4750 2381 4750 
Q 2619 4750 2861 4703 
Q 3103 4656 3366 4563 
z
" transform="scale(0.015625)"/>
       </defs>
       <use xlink:href="#DejaVuSans-36"/>
      </g>
     </g>
    </g>
    <g id="xtick_5">
     <g id="line2d_13">
      <path d="M 100.9152 298.944 
L 100.9152 6.912 
" clip-path="url(#pae7b4c593e)" style="fill: none; stroke: #b0b0b0; stroke-width: 0.8; stroke-linecap: square"/>
     </g>
     <g id="line2d_14">
      <defs>
       <path id="m54c64f2643" d="M 0 0 
L 0 2 
" style="stroke: #000000; stroke-width: 0.6"/>
      </defs>
      <g>
       <use xlink:href="#m54c64f2643" x="100.9152" y="298.944" style="stroke: #000000; stroke-width: 0.6"/>
      </g>
     </g>
    </g>
    <g id="xtick_6">
     <g id="line2d_15">
      <path d="M 187.5456 298.944 
L 187.5456 6.912 
" clip-path="url(#pae7b4c593e)" style="fill: none; stroke: #b0b0b0; stroke-width: 0.8; stroke-linecap: square"/>
     </g>
     <g id="line2d_16">
      <g>
       <use xlink:href="#m54c64f2643" x="187.5456" y="298.944" style="stroke: #000000; stroke-width: 0.6"/>
      </g>
     </g>
    </g>
    <g id="xtick_7">
     <g id="line2d_17">
      <path d="M 274.176 298.944 
L 274.176 6.912 
" clip-path="url(#pae7b4c593e)" style="fill: none; stroke: #b0b0b0; stroke-width: 0.8; stroke-linecap: square"/>
     </g>
     <g id="line2d_18">
      <g>
       <use xlink:href="#m54c64f2643" x="274.176" y="298.944" style="stroke: #000000; stroke-width: 0.6"/>
      </g>
     </g>
    </g>
    <g id="xtick_8">
     <g id="line2d_19">
      <path d="M 360.8064 298.944 
L 360.8064 6.912 
" clip-path="url(#pae7b4c593e)" style="fill: none; stroke: #b0b0b0; stroke-width: 0.8; stroke-linecap: square"/>
     </g>
     <g id="line2d_20">
      <g>
       <use xlink:href="#m54c64f2643" x="360.8064" y="298.944" style="stroke: #000000; stroke-width: 0.6"/>
      </g>
     </g>
    </g>
    <g id="text_5">
     <!-- log10(# f-evals / dimension) -->
     <g transform="translate(88.823278 339.314156) scale(0.17 -0.17)">
      <defs>
       <path id="DejaVuSans-6c" d="M 603 4863 
L 1178 4863 
L 1178 0 
L 603 0 
L 603 4863 
z
" transform="scale(0.015625)"/>
       <path id="DejaVuSans-6f" d="M 1959 3097 
Q 1497 3097 1228 2736 
Q 959 2375 959 1747 
Q 959 1119 1226 758 
Q 1494 397 1959 397 
Q 2419 397 2687 759 
Q 2956 1122 2956 1747 
Q 2956 2369 2687 2733 
Q 2419 3097 1959 3097 
z
M 1959 3584 
Q 2709 3584 3137 3096 
Q 3566 2609 3566 1747 
Q 3566 888 3137 398 
Q 2709 -91 1959 -91 
Q 1206 -91 779 398 
Q 353 888 353 1747 
Q 353 2609 779 3096 
Q 1206 3584 1959 3584 
z
" transform="scale(0.015625)"/>
       <path id="DejaVuSans-67" d="M 2906 1791 
Q 2906 2416 2648 2759 
Q 2391 3103 1925 3103 
Q 1463 3103 1205 2759 
Q 947 2416 947 1791 
Q 947 1169 1205 825 
Q 1463 481 1925 481 
Q 2391 481 2648 825 
Q 2906 1169 2906 1791 
z
M 3481 434 
Q 3481 -459 3084 -895 
Q 2688 -1331 1869 -1331 
Q 1566 -1331 1297 -1286 
Q 1028 -1241 775 -1147 
L 775 -588 
Q 1028 -725 1275 -790 
Q 1522 -856 1778 -856 
Q 2344 -856 2625 -561 
Q 2906 -266 2906 331 
L 2906 616 
Q 2728 306 2450 153 
Q 2172 0 1784 0 
Q 1141 0 747 490 
Q 353 981 353 1791 
Q 353 2603 747 3093 
Q 1141 3584 1784 3584 
Q 2172 3584 2450 3431 
Q 2728 3278 2906 2969 
L 2906 3500 
L 3481 3500 
L 3481 434 
z
" transform="scale(0.015625)"/>
       <path id="DejaVuSans-31" d="M 794 531 
L 1825 531 
L 1825 4091 
L 703 3866 
L 703 4441 
L 1819 4666 
L 2450 4666 
L 2450 531 
L 3481 531 
L 3481 0 
L 794 0 
L 794 531 
z
" transform="scale(0.015625)"/>
       <path id="DejaVuSans-28" d="M 1984 4856 
Q 1566 4138 1362 3434 
Q 1159 2731 1159 2009 
Q 1159 1288 1364 580 
Q 1569 -128 1984 -844 
L 1484 -844 
Q 1016 -109 783 600 
Q 550 1309 550 2009 
Q 550 2706 781 3412 
Q 1013 4119 1484 4856 
L 1984 4856 
z
" transform="scale(0.015625)"/>
       <path id="DejaVuSans-23" d="M 3272 2816 
L 2363 2816 
L 2100 1772 
L 3016 1772 
L 3272 2816 
z
M 2803 4594 
L 2478 3297 
L 3391 3297 
L 3719 4594 
L 4219 4594 
L 3897 3297 
L 4872 3297 
L 4872 2816 
L 3775 2816 
L 3519 1772 
L 4513 1772 
L 4513 1294 
L 3397 1294 
L 3072 0 
L 2572 0 
L 2894 1294 
L 1978 1294 
L 1656 0 
L 1153 0 
L 1478 1294 
L 494 1294 
L 494 1772 
L 1594 1772 
L 1856 2816 
L 850 2816 
L 850 3297 
L 1978 3297 
L 2297 4594 
L 2803 4594 
z
" transform="scale(0.015625)"/>
       <path id="DejaVuSans-20" transform="scale(0.015625)"/>
       <path id="DejaVuSans-66" d="M 2375 4863 
L 2375 4384 
L 1825 4384 
Q 1516 4384 1395 4259 
Q 1275 4134 1275 3809 
L 1275 3500 
L 2222 3500 
L 2222 3053 
L 1275 3053 
L 1275 0 
L 697 0 
L 697 3053 
L 147 3053 
L 147 3500 
L 697 3500 
L 697 3744 
Q 697 4328 969 4595 
Q 1241 4863 1831 4863 
L 2375 4863 
z
" transform="scale(0.015625)"/>
       <path id="DejaVuSans-2d" d="M 313 2009 
L 1997 2009 
L 1997 1497 
L 313 1497 
L 313 2009 
z
" transform="scale(0.015625)"/>
       <path id="DejaVuSans-65" d="M 3597 1894 
L 3597 1613 
L 953 1613 
Q 991 1019 1311 708 
Q 1631 397 2203 397 
Q 2534 397 2845 478 
Q 3156 559 3463 722 
L 3463 178 
Q 3153 47 2828 -22 
Q 2503 -91 2169 -91 
Q 1331 -91 842 396 
Q 353 884 353 1716 
Q 353 2575 817 3079 
Q 1281 3584 2069 3584 
Q 2775 3584 3186 3129 
Q 3597 2675 3597 1894 
z
M 3022 2063 
Q 3016 2534 2758 2815 
Q 2500 3097 2075 3097 
Q 1594 3097 1305 2825 
Q 1016 2553 972 2059 
L 3022 2063 
z
" transform="scale(0.015625)"/>
       <path id="DejaVuSans-76" d="M 191 3500 
L 800 3500 
L 1894 563 
L 2988 3500 
L 3597 3500 
L 2284 0 
L 1503 0 
L 191 3500 
z
" transform="scale(0.015625)"/>
       <path id="DejaVuSans-61" d="M 2194 1759 
Q 1497 1759 1228 1600 
Q 959 1441 959 1056 
Q 959 750 1161 570 
Q 1363 391 1709 391 
Q 2188 391 2477 730 
Q 2766 1069 2766 1631 
L 2766 1759 
L 2194 1759 
z
M 3341 1997 
L 3341 0 
L 2766 0 
L 2766 531 
Q 2569 213 2275 61 
Q 1981 -91 1556 -91 
Q 1019 -91 701 211 
Q 384 513 384 1019 
Q 384 1609 779 1909 
Q 1175 2209 1959 2209 
L 2766 2209 
L 2766 2266 
Q 2766 2663 2505 2880 
Q 2244 3097 1772 3097 
Q 1472 3097 1187 3025 
Q 903 2953 641 2809 
L 641 3341 
Q 956 3463 1253 3523 
Q 1550 3584 1831 3584 
Q 2591 3584 2966 3190 
Q 3341 2797 3341 1997 
z
" transform="scale(0.015625)"/>
       <path id="DejaVuSans-73" d="M 2834 3397 
L 2834 2853 
Q 2591 2978 2328 3040 
Q 2066 3103 1784 3103 
Q 1356 3103 1142 2972 
Q 928 2841 928 2578 
Q 928 2378 1081 2264 
Q 1234 2150 1697 2047 
L 1894 2003 
Q 2506 1872 2764 1633 
Q 3022 1394 3022 966 
Q 3022 478 2636 193 
Q 2250 -91 1575 -91 
Q 1294 -91 989 -36 
Q 684 19 347 128 
L 347 722 
Q 666 556 975 473 
Q 1284 391 1588 391 
Q 1994 391 2212 530 
Q 2431 669 2431 922 
Q 2431 1156 2273 1281 
Q 2116 1406 1581 1522 
L 1381 1569 
Q 847 1681 609 1914 
Q 372 2147 372 2553 
Q 372 3047 722 3315 
Q 1072 3584 1716 3584 
Q 2034 3584 2315 3537 
Q 2597 3491 2834 3397 
z
" transform="scale(0.015625)"/>
       <path id="DejaVuSans-2f" d="M 1625 4666 
L 2156 4666 
L 531 -594 
L 0 -594 
L 1625 4666 
z
" transform="scale(0.015625)"/>
       <path id="DejaVuSans-64" d="M 2906 2969 
L 2906 4863 
L 3481 4863 
L 3481 0 
L 2906 0 
L 2906 525 
Q 2725 213 2448 61 
Q 2172 -91 1784 -91 
Q 1150 -91 751 415 
Q 353 922 353 1747 
Q 353 2572 751 3078 
Q 1150 3584 1784 3584 
Q 2172 3584 2448 3432 
Q 2725 3281 2906 2969 
z
M 947 1747 
Q 947 1113 1208 752 
Q 1469 391 1925 391 
Q 2381 391 2643 752 
Q 2906 1113 2906 1747 
Q 2906 2381 2643 2742 
Q 2381 3103 1925 3103 
Q 1469 3103 1208 2742 
Q 947 2381 947 1747 
z
" transform="scale(0.015625)"/>
       <path id="DejaVuSans-69" d="M 603 3500 
L 1178 3500 
L 1178 0 
L 603 0 
L 603 3500 
z
M 603 4863 
L 1178 4863 
L 1178 4134 
L 603 4134 
L 603 4863 
z
" transform="scale(0.015625)"/>
       <path id="DejaVuSans-6d" d="M 3328 2828 
Q 3544 3216 3844 3400 
Q 4144 3584 4550 3584 
Q 5097 3584 5394 3201 
Q 5691 2819 5691 2113 
L 5691 0 
L 5113 0 
L 5113 2094 
Q 5113 2597 4934 2840 
Q 4756 3084 4391 3084 
Q 3944 3084 3684 2787 
Q 3425 2491 3425 1978 
L 3425 0 
L 2847 0 
L 2847 2094 
Q 2847 2600 2669 2842 
Q 2491 3084 2119 3084 
Q 1678 3084 1418 2786 
Q 1159 2488 1159 1978 
L 1159 0 
L 581 0 
L 581 3500 
L 1159 3500 
L 1159 2956 
Q 1356 3278 1631 3431 
Q 1906 3584 2284 3584 
Q 2666 3584 2933 3390 
Q 3200 3197 3328 2828 
z
" transform="scale(0.015625)"/>
       <path id="DejaVuSans-6e" d="M 3513 2113 
L 3513 0 
L 2938 0 
L 2938 2094 
Q 2938 2591 2744 2837 
Q 2550 3084 2163 3084 
Q 1697 3084 1428 2787 
Q 1159 2491 1159 1978 
L 1159 0 
L 581 0 
L 581 3500 
L 1159 3500 
L 1159 2956 
Q 1366 3272 1645 3428 
Q 1925 3584 2291 3584 
Q 2894 3584 3203 3211 
Q 3513 2838 3513 2113 
z
" transform="scale(0.015625)"/>
       <path id="DejaVuSans-29" d="M 513 4856 
L 1013 4856 
Q 1481 4119 1714 3412 
Q 1947 2706 1947 2009 
Q 1947 1309 1714 600 
Q 1481 -109 1013 -844 
L 513 -844 
Q 928 -128 1133 580 
Q 1338 1288 1338 2009 
Q 1338 2731 1133 3434 
Q 928 4138 513 4856 
z
" transform="scale(0.015625)"/>
      </defs>
      <use xlink:href="#DejaVuSans-6c"/>
      <use xlink:href="#DejaVuSans-6f" x="27.783203"/>
      <use xlink:href="#DejaVuSans-67" x="88.964844"/>
      <use xlink:href="#DejaVuSans-31" x="152.441406"/>
      <use xlink:href="#DejaVuSans-30" x="216.064453"/>
      <use xlink:href="#DejaVuSans-28" x="279.6875"/>
      <use xlink:href="#DejaVuSans-23" x="318.701172"/>
      <use xlink:href="#DejaVuSans-20" x="402.490234"/>
      <use xlink:href="#DejaVuSans-66" x="434.277344"/>
      <use xlink:href="#DejaVuSans-2d" x="463.982422"/>
      <use xlink:href="#DejaVuSans-65" x="500.066406"/>
      <use xlink:href="#DejaVuSans-76" x="561.589844"/>
      <use xlink:href="#DejaVuSans-61" x="620.769531"/>
      <use xlink:href="#DejaVuSans-6c" x="682.048828"/>
      <use xlink:href="#DejaVuSans-73" x="709.832031"/>
      <use xlink:href="#DejaVuSans-20" x="761.931641"/>
      <use xlink:href="#DejaVuSans-2f" x="793.71875"/>
      <use xlink:href="#DejaVuSans-20" x="827.410156"/>
      <use xlink:href="#DejaVuSans-64" x="859.197266"/>
      <use xlink:href="#DejaVuSans-69" x="922.673828"/>
      <use xlink:href="#DejaVuSans-6d" x="950.457031"/>
      <use xlink:href="#DejaVuSans-65" x="1047.869141"/>
      <use xlink:href="#DejaVuSans-6e" x="1109.392578"/>
      <use xlink:href="#DejaVuSans-73" x="1172.771484"/>
      <use xlink:href="#DejaVuSans-69" x="1224.871094"/>
      <use xlink:href="#DejaVuSans-6f" x="1252.654297"/>
      <use xlink:href="#DejaVuSans-6e" x="1313.835938"/>
      <use xlink:href="#DejaVuSans-29" x="1377.214844"/>
     </g>
    </g>
   </g>
   <g id="matplotlib.axis_2">
    <g id="ytick_1">
     <g id="line2d_21">
      <path d="M 57.6 298.944 
L 360.8064 298.944 
" clip-path="url(#pae7b4c593e)" style="fill: none; stroke: #b0b0b0; stroke-width: 0.8; stroke-linecap: square"/>
     </g>
     <g id="line2d_22">
      <defs>
       <path id="m112fbe11ce" d="M 0 0 
L -3.5 0 
" style="stroke: #000000; stroke-width: 0.8"/>
      </defs>
      <g>
       <use xlink:href="#m112fbe11ce" x="57.6" y="298.944" style="stroke: #000000; stroke-width: 0.8"/>
      </g>
     </g>
     <g id="text_6">
      <!-- 0.0 -->
      <g transform="translate(25.155 305.02275) scale(0.16 -0.16)">
       <defs>
        <path id="DejaVuSans-2e" d="M 684 794 
L 1344 794 
L 1344 0 
L 684 0 
L 684 794 
z
" transform="scale(0.015625)"/>
       </defs>
       <use xlink:href="#DejaVuSans-30"/>
       <use xlink:href="#DejaVuSans-2e" x="63.623047"/>
       <use xlink:href="#DejaVuSans-30" x="95.410156"/>
      </g>
     </g>
    </g>
    <g id="ytick_2">
     <g id="line2d_23">
      <path d="M 57.6 240.5376 
L 360.8064 240.5376 
" clip-path="url(#pae7b4c593e)" style="fill: none; stroke: #b0b0b0; stroke-width: 0.8; stroke-linecap: square"/>
     </g>
     <g id="line2d_24">
      <g>
       <use xlink:href="#m112fbe11ce" x="57.6" y="240.5376" style="stroke: #000000; stroke-width: 0.8"/>
      </g>
     </g>
     <g id="text_7">
      <!-- 0.2 -->
      <g transform="translate(25.155 246.61635) scale(0.16 -0.16)">
       <use xlink:href="#DejaVuSans-30"/>
       <use xlink:href="#DejaVuSans-2e" x="63.623047"/>
       <use xlink:href="#DejaVuSans-32" x="95.410156"/>
      </g>
     </g>
    </g>
    <g id="ytick_3">
     <g id="line2d_25">
      <path d="M 57.6 182.1312 
L 360.8064 182.1312 
" clip-path="url(#pae7b4c593e)" style="fill: none; stroke: #b0b0b0; stroke-width: 0.8; stroke-linecap: square"/>
     </g>
     <g id="line2d_26">
      <g>
       <use xlink:href="#m112fbe11ce" x="57.6" y="182.1312" style="stroke: #000000; stroke-width: 0.8"/>
      </g>
     </g>
     <g id="text_8">
      <!-- 0.4 -->
      <g transform="translate(25.155 188.20995) scale(0.16 -0.16)">
       <use xlink:href="#DejaVuSans-30"/>
       <use xlink:href="#DejaVuSans-2e" x="63.623047"/>
       <use xlink:href="#DejaVuSans-34" x="95.410156"/>
      </g>
     </g>
    </g>
    <g id="ytick_4">
     <g id="line2d_27">
      <path d="M 57.6 123.7248 
L 360.8064 123.7248 
" clip-path="url(#pae7b4c593e)" style="fill: none; stroke: #b0b0b0; stroke-width: 0.8; stroke-linecap: square"/>
     </g>
     <g id="line2d_28">
      <g>
       <use xlink:href="#m112fbe11ce" x="57.6" y="123.7248" style="stroke: #000000; stroke-width: 0.8"/>
      </g>
     </g>
     <g id="text_9">
      <!-- 0.6 -->
      <g transform="translate(25.155 129.80355) scale(0.16 -0.16)">
       <use xlink:href="#DejaVuSans-30"/>
       <use xlink:href="#DejaVuSans-2e" x="63.623047"/>
       <use xlink:href="#DejaVuSans-36" x="95.410156"/>
      </g>
     </g>
    </g>
    <g id="ytick_5">
     <g id="line2d_29">
      <path d="M 57.6 65.3184 
L 360.8064 65.3184 
" clip-path="url(#pae7b4c593e)" style="fill: none; stroke: #b0b0b0; stroke-width: 0.8; stroke-linecap: square"/>
     </g>
     <g id="line2d_30">
      <g>
       <use xlink:href="#m112fbe11ce" x="57.6" y="65.3184" style="stroke: #000000; stroke-width: 0.8"/>
      </g>
     </g>
     <g id="text_10">
      <!-- 0.8 -->
      <g transform="translate(25.155 71.39715) scale(0.16 -0.16)">
       <defs>
        <path id="DejaVuSans-38" d="M 2034 2216 
Q 1584 2216 1326 1975 
Q 1069 1734 1069 1313 
Q 1069 891 1326 650 
Q 1584 409 2034 409 
Q 2484 409 2743 651 
Q 3003 894 3003 1313 
Q 3003 1734 2745 1975 
Q 2488 2216 2034 2216 
z
M 1403 2484 
Q 997 2584 770 2862 
Q 544 3141 544 3541 
Q 544 4100 942 4425 
Q 1341 4750 2034 4750 
Q 2731 4750 3128 4425 
Q 3525 4100 3525 3541 
Q 3525 3141 3298 2862 
Q 3072 2584 2669 2484 
Q 3125 2378 3379 2068 
Q 3634 1759 3634 1313 
Q 3634 634 3220 271 
Q 2806 -91 2034 -91 
Q 1263 -91 848 271 
Q 434 634 434 1313 
Q 434 1759 690 2068 
Q 947 2378 1403 2484 
z
M 1172 3481 
Q 1172 3119 1398 2916 
Q 1625 2713 2034 2713 
Q 2441 2713 2670 2916 
Q 2900 3119 2900 3481 
Q 2900 3844 2670 4047 
Q 2441 4250 2034 4250 
Q 1625 4250 1398 4047 
Q 1172 3844 1172 3481 
z
" transform="scale(0.015625)"/>
       </defs>
       <use xlink:href="#DejaVuSans-30"/>
       <use xlink:href="#DejaVuSans-2e" x="63.623047"/>
       <use xlink:href="#DejaVuSans-38" x="95.410156"/>
      </g>
     </g>
    </g>
    <g id="ytick_6">
     <g id="line2d_31">
      <path d="M 57.6 6.912 
L 360.8064 6.912 
" clip-path="url(#pae7b4c593e)" style="fill: none; stroke: #b0b0b0; stroke-width: 0.8; stroke-linecap: square"/>
     </g>
     <g id="line2d_32">
      <g>
       <use xlink:href="#m112fbe11ce" x="57.6" y="6.912" style="stroke: #000000; stroke-width: 0.8"/>
      </g>
     </g>
     <g id="text_11">
      <!-- 1.0 -->
      <g transform="translate(25.155 12.99075) scale(0.16 -0.16)">
       <use xlink:href="#DejaVuSans-31"/>
       <use xlink:href="#DejaVuSans-2e" x="63.623047"/>
       <use xlink:href="#DejaVuSans-30" x="95.410156"/>
      </g>
     </g>
    </g>
    <g id="text_12">
     <!-- Fraction of function,target pairs -->
     <g transform="translate(17.619531 287.313) rotate(-90) scale(0.17 -0.17)">
      <defs>
       <path id="DejaVuSans-46" d="M 628 4666 
L 3309 4666 
L 3309 4134 
L 1259 4134 
L 1259 2759 
L 3109 2759 
L 3109 2228 
L 1259 2228 
L 1259 0 
L 628 0 
L 628 4666 
z
" transform="scale(0.015625)"/>
       <path id="DejaVuSans-72" d="M 2631 2963 
Q 2534 3019 2420 3045 
Q 2306 3072 2169 3072 
Q 1681 3072 1420 2755 
Q 1159 2438 1159 1844 
L 1159 0 
L 581 0 
L 581 3500 
L 1159 3500 
L 1159 2956 
Q 1341 3275 1631 3429 
Q 1922 3584 2338 3584 
Q 2397 3584 2469 3576 
Q 2541 3569 2628 3553 
L 2631 2963 
z
" transform="scale(0.015625)"/>
       <path id="DejaVuSans-63" d="M 3122 3366 
L 3122 2828 
Q 2878 2963 2633 3030 
Q 2388 3097 2138 3097 
Q 1578 3097 1268 2742 
Q 959 2388 959 1747 
Q 959 1106 1268 751 
Q 1578 397 2138 397 
Q 2388 397 2633 464 
Q 2878 531 3122 666 
L 3122 134 
Q 2881 22 2623 -34 
Q 2366 -91 2075 -91 
Q 1284 -91 818 406 
Q 353 903 353 1747 
Q 353 2603 823 3093 
Q 1294 3584 2113 3584 
Q 2378 3584 2631 3529 
Q 2884 3475 3122 3366 
z
" transform="scale(0.015625)"/>
       <path id="DejaVuSans-74" d="M 1172 4494 
L 1172 3500 
L 2356 3500 
L 2356 3053 
L 1172 3053 
L 1172 1153 
Q 1172 725 1289 603 
Q 1406 481 1766 481 
L 2356 481 
L 2356 0 
L 1766 0 
Q 1100 0 847 248 
Q 594 497 594 1153 
L 594 3053 
L 172 3053 
L 172 3500 
L 594 3500 
L 594 4494 
L 1172 4494 
z
" transform="scale(0.015625)"/>
       <path id="DejaVuSans-75" d="M 544 1381 
L 544 3500 
L 1119 3500 
L 1119 1403 
Q 1119 906 1312 657 
Q 1506 409 1894 409 
Q 2359 409 2629 706 
Q 2900 1003 2900 1516 
L 2900 3500 
L 3475 3500 
L 3475 0 
L 2900 0 
L 2900 538 
Q 2691 219 2414 64 
Q 2138 -91 1772 -91 
Q 1169 -91 856 284 
Q 544 659 544 1381 
z
M 1991 3584 
L 1991 3584 
z
" transform="scale(0.015625)"/>
       <path id="DejaVuSans-2c" d="M 750 794 
L 1409 794 
L 1409 256 
L 897 -744 
L 494 -744 
L 750 256 
L 750 794 
z
" transform="scale(0.015625)"/>
       <path id="DejaVuSans-70" d="M 1159 525 
L 1159 -1331 
L 581 -1331 
L 581 3500 
L 1159 3500 
L 1159 2969 
Q 1341 3281 1617 3432 
Q 1894 3584 2278 3584 
Q 2916 3584 3314 3078 
Q 3713 2572 3713 1747 
Q 3713 922 3314 415 
Q 2916 -91 2278 -91 
Q 1894 -91 1617 61 
Q 1341 213 1159 525 
z
M 3116 1747 
Q 3116 2381 2855 2742 
Q 2594 3103 2138 3103 
Q 1681 3103 1420 2742 
Q 1159 2381 1159 1747 
Q 1159 1113 1420 752 
Q 1681 391 2138 391 
Q 2594 391 2855 752 
Q 3116 1113 3116 1747 
z
" transform="scale(0.015625)"/>
      </defs>
      <use xlink:href="#DejaVuSans-46"/>
      <use xlink:href="#DejaVuSans-72" x="50.269531"/>
      <use xlink:href="#DejaVuSans-61" x="91.382812"/>
      <use xlink:href="#DejaVuSans-63" x="152.662109"/>
      <use xlink:href="#DejaVuSans-74" x="207.642578"/>
      <use xlink:href="#DejaVuSans-69" x="246.851562"/>
      <use xlink:href="#DejaVuSans-6f" x="274.634766"/>
      <use xlink:href="#DejaVuSans-6e" x="335.816406"/>
      <use xlink:href="#DejaVuSans-20" x="399.195312"/>
      <use xlink:href="#DejaVuSans-6f" x="430.982422"/>
      <use xlink:href="#DejaVuSans-66" x="492.164062"/>
      <use xlink:href="#DejaVuSans-20" x="527.369141"/>
      <use xlink:href="#DejaVuSans-66" x="559.15625"/>
      <use xlink:href="#DejaVuSans-75" x="594.361328"/>
      <use xlink:href="#DejaVuSans-6e" x="657.740234"/>
      <use xlink:href="#DejaVuSans-63" x="721.119141"/>
      <use xlink:href="#DejaVuSans-74" x="776.099609"/>
      <use xlink:href="#DejaVuSans-69" x="815.308594"/>
      <use xlink:href="#DejaVuSans-6f" x="843.091797"/>
      <use xlink:href="#DejaVuSans-6e" x="904.273438"/>
      <use xlink:href="#DejaVuSans-2c" x="967.652344"/>
      <use xlink:href="#DejaVuSans-74" x="999.439453"/>
      <use xlink:href="#DejaVuSans-61" x="1038.648438"/>
      <use xlink:href="#DejaVuSans-72" x="1099.927734"/>
      <use xlink:href="#DejaVuSans-67" x="1139.291016"/>
      <use xlink:href="#DejaVuSans-65" x="1202.767578"/>
      <use xlink:href="#DejaVuSans-74" x="1264.291016"/>
      <use xlink:href="#DejaVuSans-20" x="1303.5"/>
      <use xlink:href="#DejaVuSans-70" x="1335.287109"/>
      <use xlink:href="#DejaVuSans-61" x="1398.763672"/>
      <use xlink:href="#DejaVuSans-69" x="1460.042969"/>
      <use xlink:href="#DejaVuSans-72" x="1487.826172"/>
      <use xlink:href="#DejaVuSans-73" x="1528.939453"/>
     </g>
    </g>
   </g>
   <g id="line2d_33">
    <defs>
     <path id="m2e0d63dfb3" d="M 0 1.5 
C 0.397805 1.5 0.77937 1.341951 1.06066 1.06066 
C 1.341951 0.77937 1.5 0.397805 1.5 0 
C 1.5 -0.397805 1.341951 -0.77937 1.06066 -1.06066 
C 0.77937 -1.341951 0.397805 -1.5 0 -1.5 
C -0.397805 -1.5 -0.77937 -1.341951 -1.06066 -1.06066 
C -1.341951 -0.77937 -1.5 -0.397805 -1.5 0 
C -1.5 0.397805 -1.341951 0.77937 -1.06066 1.06066 
C -0.77937 1.341951 -0.397805 1.5 0 1.5 
z
" style="stroke: #f5deb3"/>
    </defs>
    <g>
     <use xlink:href="#m2e0d63dfb3" x="310.43387" y="42.157241" style="fill: #f5deb3; stroke: #f5deb3"/>
     <use xlink:href="#m2e0d63dfb3" x="310.43387" y="42.157241" style="fill: #f5deb3; stroke: #f5deb3"/>
    </g>
   </g>
   <g id="line2d_34">
    <defs>
     <path id="m8d3fb0cd9d" d="M 0 1.5 
C 0.397805 1.5 0.77937 1.341951 1.06066 1.06066 
C 1.341951 0.77937 1.5 0.397805 1.5 0 
C 1.5 -0.397805 1.341951 -0.77937 1.06066 -1.06066 
C 0.77937 -1.341951 0.397805 -1.5 0 -1.5 
C -0.397805 -1.5 -0.77937 -1.341951 -1.06066 -1.06066 
C -1.341951 -0.77937 -1.5 -0.397805 -1.5 0 
C -1.5 0.397805 -1.341951 0.77937 -1.06066 1.06066 
C -0.77937 1.341951 -0.397805 1.5 0 1.5 
z
" style="stroke: #000080"/>
    </defs>
    <g>
     <use xlink:href="#m8d3fb0cd9d" x="213.981246" y="159.473545" style="fill: #000080; stroke: #000080"/>
     <use xlink:href="#m8d3fb0cd9d" x="213.981246" y="159.473545" style="fill: #000080; stroke: #000080"/>
    </g>
   </g>
   <g id="line2d_35">
    <path d="M 1.245626 298.944 
L 1.245626 290.006814 
L 66.441498 290.006814 
L 66.441498 289.880938 
L 69.674268 289.880938 
L 69.674268 289.755062 
L 74.836851 289.755062 
L 74.836851 289.50331 
L 78.88343 289.50331 
L 78.88343 289.377434 
L 87.876026 289.377434 
L 87.876026 289.251559 
L 88.248544 289.251559 
L 88.248544 289.125683 
L 88.972154 289.125683 
L 88.972154 288.999807 
L 91.922605 288.999807 
L 91.922605 288.873931 
L 93.66029 288.873931 
L 93.66029 288.748055 
L 96.717523 288.748055 
L 96.717523 288.622179 
L 96.95121 288.622179 
L 96.95121 288.496303 
L 98.933205 288.496303 
L 98.933205 288.370428 
L 99.751228 288.370428 
L 99.751228 288.244552 
L 102.878374 288.244552 
L 102.878374 288.118676 
L 103.047088 288.118676 
L 103.047088 287.9928 
L 103.544339 287.9928 
L 103.544339 287.866924 
L 103.707211 287.866924 
L 103.707211 287.741048 
L 105.411479 287.741048 
L 105.411479 287.615172 
L 106.137884 287.615172 
L 106.137884 287.489297 
L 106.279859 287.489297 
L 106.279859 287.363421 
L 107.378656 287.363421 
L 107.378656 287.237545 
L 107.774703 287.237545 
L 107.774703 287.111669 
L 108.791791 287.111669 
L 108.791791 286.985793 
L 109.400633 286.985793 
L 109.400633 286.734041 
L 111.007473 286.734041 
L 111.007473 286.608166 
L 112.076599 286.608166 
L 112.076599 286.48229 
L 112.385837 286.48229 
L 112.385837 286.356414 
L 113.860081 286.356414 
L 113.860081 286.230538 
L 114.7824 286.230538 
L 114.7824 286.104662 
L 115.227139 286.104662 
L 115.227139 285.978786 
L 115.917548 285.978786 
L 115.917548 285.85291 
L 116.211813 285.85291 
L 116.29505 285.601159 
L 116.460428 285.601159 
L 116.460428 285.475283 
L 117.501332 285.475283 
L 117.540239 285.223531 
L 117.65648 285.223531 
L 117.65648 285.097655 
L 117.810359 285.097655 
L 117.848632 284.845903 
L 118.301945 284.845903 
L 118.376446 284.594152 
L 118.634901 284.594152 
L 118.634901 284.468276 
L 118.925995 284.468276 
L 118.925995 284.3424 
L 119.141397 284.3424 
L 119.141397 284.216524 
L 119.28364 284.216524 
L 119.28364 284.090648 
L 119.599808 284.090648 
L 119.599808 283.964772 
L 120.216635 283.964772 
L 120.216635 283.838897 
L 120.451154 283.838897 
L 120.451154 283.587145 
L 120.748446 283.587145 
L 120.748446 283.461269 
L 121.169739 283.461269 
L 121.169739 283.335393 
L 121.455972 283.335393 
L 121.455972 283.209517 
L 121.768984 283.209517 
L 121.8 282.957766 
L 122.13785 282.957766 
L 122.168264 282.706014 
L 122.439807 282.706014 
L 122.439807 282.454262 
L 122.559246 282.454262 
L 122.64833 281.950759 
L 122.913079 281.950759 
L 122.913079 281.824883 
L 123.460048 281.824883 
L 123.460048 281.699007 
L 124.481616 281.699007 
L 124.562065 281.447255 
L 124.615507 281.447255 
L 124.721937 281.069628 
L 124.774928 281.069628 
L 124.880463 280.817876 
L 124.906754 280.817876 
L 124.906754 280.692 
L 125.425011 280.692 
L 125.501533 280.440248 
L 125.552375 280.440248 
L 125.653649 280.062621 
L 125.904473 280.062621 
L 125.904473 279.936745 
L 126.176572 279.936745 
L 126.176572 279.810869 
L 126.420564 279.810869 
L 126.493149 279.307366 
L 126.756923 279.307366 
L 126.756923 279.18149 
L 126.875608 279.18149 
L 126.899255 278.929738 
L 127.040519 278.929738 
L 127.134109 278.677986 
L 127.157434 278.677986 
L 127.157434 278.426234 
L 127.343 278.426234 
L 127.4351 278.174483 
L 127.911368 278.174483 
L 127.933749 277.545103 
L 128.288276 277.545103 
L 128.288276 277.419228 
L 128.441306 277.419228 
L 128.441306 277.293352 
L 128.57149 277.293352 
L 128.657782 276.915724 
L 128.786481 276.915724 
L 128.786481 276.663972 
L 128.935527 276.663972 
L 128.935527 276.538097 
L 129.062347 276.538097 
L 129.062347 276.412221 
L 129.334225 276.412221 
L 129.334225 276.286345 
L 129.54072 276.286345 
L 129.581749 276.034593 
L 129.663538 276.034593 
L 129.744974 275.53109 
L 129.78556 275.53109 
L 129.78556 275.405214 
L 130.047255 275.405214 
L 130.127049 275.027586 
L 130.305359 275.027586 
L 130.305359 274.775834 
L 130.618241 274.775834 
L 130.714958 274.272331 
L 130.811181 274.272331 
L 130.811181 274.146455 
L 131.040128 274.146455 
L 131.134706 273.894703 
L 131.191226 273.894703 
L 131.228811 273.642952 
L 131.41562 273.642952 
L 131.41562 273.517076 
L 131.545292 273.517076 
L 131.545292 273.3912 
L 131.892817 273.3912 
L 131.929028 273.013572 
L 132.019251 273.013572 
L 132.109044 272.635945 
L 132.19841 272.635945 
L 132.269599 272.258317 
L 132.322814 272.258317 
L 132.322814 272.132441 
L 132.481562 272.132441 
L 132.56918 271.88069 
L 132.656392 271.88069 
L 132.725872 271.628938 
L 132.898456 271.628938 
L 132.898456 271.503062 
L 133.05244 271.503062 
L 133.069471 271.125434 
L 133.323114 271.125434 
L 133.390178 270.496055 
L 133.44032 270.496055 
L 133.523594 270.244303 
L 133.556801 270.244303 
L 133.623039 269.866676 
L 133.869374 269.866676 
L 133.967012 269.237297 
L 134.047992 269.237297 
L 134.064146 268.607917 
L 134.272898 268.607917 
L 134.368469 268.356166 
L 134.479359 268.356166 
L 134.573889 267.852662 
L 134.620977 267.852662 
L 134.620977 267.726786 
L 134.839175 267.726786 
L 134.931919 266.971531 
L 135.024208 266.971531 
L 135.024208 266.845655 
L 135.161798 266.845655 
L 135.222628 266.468028 
L 135.298389 266.468028 
L 135.35878 266.0904 
L 135.538796 266.0904 
L 135.643015 265.083393 
L 135.657857 265.083393 
L 135.672686 264.831641 
L 135.805631 264.831641 
L 135.805631 264.705766 
L 136.010584 264.705766 
L 136.112229 264.328138 
L 136.155623 264.328138 
L 136.242113 263.572883 
L 136.584151 263.572883 
L 136.612375 263.321131 
L 136.780838 263.321131 
L 136.780838 263.195255 
L 137.030737 263.195255 
L 137.099568 262.691752 
L 137.181835 262.691752 
L 137.181835 262.565876 
L 137.426497 262.565876 
L 137.520791 262.188248 
L 137.654681 262.188248 
L 137.747841 261.684745 
L 137.787626 261.684745 
L 137.893309 261.055366 
L 137.972183 261.055366 
L 137.972183 260.92949 
L 138.128947 260.92949 
L 138.232735 260.551862 
L 138.310202 260.551862 
L 138.36167 260.048359 
L 138.464186 260.048359 
L 138.502486 259.544855 
L 138.705444 259.544855 
L 138.705444 259.418979 
L 138.868751 259.418979 
L 138.906237 258.915476 
L 138.980985 258.915476 
L 139.067817 258.537848 
L 139.203463 258.537848 
L 139.277041 258.034345 
L 139.325934 258.034345 
L 139.374701 257.782593 
L 139.447614 257.782593 
L 139.508159 257.27909 
L 139.592597 257.27909 
L 139.592597 257.153214 
L 139.819894 257.153214 
L 139.891105 256.775586 
L 140.009194 256.775586 
L 140.114844 256.272083 
L 140.20826 256.272083 
L 140.301214 255.768579 
L 140.335954 255.768579 
L 140.428281 255.390952 
L 140.600182 255.390952 
L 140.657135 254.761572 
L 140.73658 254.761572 
L 140.759217 254.132193 
L 140.995278 254.132193 
L 141.062184 253.880441 
L 141.305488 253.880441 
L 141.305488 253.62869 
L 141.436884 253.62869 
L 141.545685 253.125186 
L 141.632274 253.125186 
L 141.664643 252.873434 
L 141.836341 252.873434 
L 141.879022 252.621683 
L 142.048783 252.621683 
L 142.143605 252.369931 
L 142.227492 252.369931 
L 142.227492 252.244055 
L 142.394151 252.244055 
L 142.445931 251.740552 
L 142.579895 251.740552 
L 142.672083 251.362924 
L 142.743475 251.362924 
L 142.784148 250.985297 
L 142.956037 250.985297 
L 142.956037 250.733545 
L 143.116392 250.733545 
L 143.205995 249.97829 
L 143.334672 249.97829 
L 143.423243 249.600662 
L 143.47227 249.600662 
L 143.530934 249.223034 
L 143.657415 249.223034 
L 143.744483 248.719531 
L 143.926981 248.719531 
L 144.003296 248.216028 
L 144.145557 248.216028 
L 144.249202 247.586648 
L 144.314862 247.586648 
L 144.314862 247.460772 
L 144.454795 247.460772 
L 144.454795 247.334897 
L 144.575234 247.334897 
L 144.639767 246.957269 
L 144.759032 246.957269 
L 144.841158 246.453766 
L 144.904788 246.453766 
L 144.91386 245.950262 
L 145.139259 245.950262 
L 145.246498 245.069131 
L 145.291002 245.069131 
L 145.379694 244.565628 
L 145.44153 244.565628 
L 145.538293 244.062124 
L 145.62583 244.062124 
L 145.62583 243.810372 
L 145.765046 243.810372 
L 145.765046 243.684497 
L 146.134164 243.684497 
L 146.244347 243.432745 
L 146.294984 243.432745 
L 146.353889 243.180993 
L 146.752911 243.180993 
L 146.752911 242.929241 
L 147.022411 242.929241 
L 147.119461 242.425738 
L 147.143646 242.425738 
L 147.143646 242.299862 
L 147.304086 242.299862 
L 147.304086 242.04811 
L 147.447322 242.04811 
L 147.479005 241.796359 
L 147.573734 241.796359 
L 147.667988 241.041103 
L 147.714939 241.041103 
L 147.730563 240.411724 
L 148.009602 240.411724 
L 148.009602 240.159972 
L 148.193355 240.159972 
L 148.284563 239.656469 
L 148.322436 239.656469 
L 148.428077 239.152966 
L 148.450637 239.152966 
L 148.525643 238.901214 
L 148.630152 238.901214 
L 148.630152 238.775338 
L 148.793216 238.775338 
L 148.815343 238.523586 
L 149.165879 238.523586 
L 149.165879 238.39771 
L 149.302848 238.39771 
L 149.302848 238.271834 
L 149.510002 238.271834 
L 149.602129 237.516579 
L 149.728949 237.516579 
L 149.728949 237.390703 
L 149.85492 237.390703 
L 149.868865 237.138952 
L 150.11812 237.138952 
L 150.221009 236.006069 
L 150.660472 236.006069 
L 150.660472 235.754317 
L 150.87311 235.754317 
L 150.971962 235.250814 
L 151.031025 235.250814 
L 151.129053 234.873186 
L 151.33004 234.873186 
L 151.33004 234.74731 
L 151.458579 234.74731 
L 151.458579 234.621434 
L 151.611674 234.621434 
L 151.649755 234.369683 
L 151.782431 234.369683 
L 151.820167 233.866179 
L 151.98905 233.866179 
L 151.98905 233.740303 
L 152.181101 233.740303 
L 152.236493 233.110924 
L 152.419962 233.110924 
L 152.419962 232.985048 
L 152.655828 232.985048 
L 152.655828 232.859172 
L 152.793554 232.859172 
L 152.823362 232.607421 
L 152.924356 232.607421 
L 153.018916 232.103917 
L 153.071898 232.103917 
L 153.071898 231.978041 
L 153.253258 231.978041 
L 153.264899 231.474538 
L 153.455939 231.474538 
L 153.455939 231.222786 
L 153.627945 231.222786 
L 153.701995 230.593407 
L 153.798392 230.593407 
L 153.798392 230.341655 
L 153.944874 230.341655 
L 153.944874 230.215779 
L 154.123607 230.215779 
L 154.123607 230.089903 
L 154.245509 230.089903 
L 154.245509 229.964028 
L 154.960781 229.964028 
L 154.976725 229.5864 
L 155.193286 229.5864 
L 155.298028 229.334648 
L 155.567658 229.334648 
L 155.567658 229.082897 
L 155.716366 229.082897 
L 155.746987 228.579393 
L 156.000243 228.579393 
L 156.000243 228.453517 
L 156.125604 228.453517 
L 156.125604 228.327641 
L 156.359044 228.327641 
L 156.457508 227.572386 
L 156.511445 227.572386 
L 156.589623 227.194759 
L 156.764344 227.194759 
L 156.764344 227.068883 
L 156.966156 227.068883 
L 157.061501 226.313628 
L 157.793633 226.313628 
L 157.880333 225.936 
L 157.943962 225.936 
L 158.011898 225.558372 
L 158.169469 225.558372 
L 158.214248 224.928993 
L 158.347948 224.928993 
L 158.347948 224.677241 
L 158.485114 224.677241 
L 158.581854 223.79611 
L 158.656269 223.79611 
L 158.747788 223.292607 
L 158.830209 223.292607 
L 158.925196 223.040855 
L 159.071056 223.040855 
L 159.083872 222.537352 
L 159.568678 222.537352 
L 159.647587 222.159724 
L 159.68485 222.159724 
L 159.713781 221.656221 
L 159.915064 221.656221 
L 159.915064 221.404469 
L 160.287262 221.404469 
L 160.287262 221.152717 
L 160.656167 221.152717 
L 160.71108 220.523338 
L 161.048777 220.523338 
L 161.068002 219.893959 
L 161.209658 219.893959 
L 161.289586 219.516331 
L 161.43336 219.516331 
L 161.43336 219.264579 
L 161.602209 219.264579 
L 161.602209 219.012828 
L 161.717652 219.012828 
L 161.717652 218.761076 
L 161.964763 218.761076 
L 162.045202 218.257572 
L 162.190578 218.257572 
L 162.190578 218.131697 
L 162.306075 218.131697 
L 162.406556 217.754069 
L 162.417291 217.754069 
L 162.463734 217.12469 
L 162.690724 217.12469 
L 162.690724 216.872938 
L 162.866174 216.872938 
L 162.901068 216.369434 
L 163.03308 216.369434 
L 163.046922 215.991807 
L 163.184786 215.991807 
L 163.239651 215.236552 
L 163.297769 215.236552 
L 163.342092 214.858924 
L 163.699647 214.858924 
L 163.736365 214.481297 
L 163.90237 214.481297 
L 164.00785 213.851917 
L 164.356312 213.851917 
L 164.456074 212.970786 
L 164.638138 212.970786 
L 164.638138 212.84491 
L 164.837338 212.84491 
L 164.915805 211.963779 
L 165.164721 211.963779 
L 165.217194 211.586152 
L 165.340085 211.586152 
L 165.416487 211.3344 
L 165.468263 211.3344 
L 165.574415 211.082648 
L 165.667937 211.082648 
L 165.667937 210.830897 
L 165.826761 210.830897 
L 165.874446 210.453269 
L 166.004959 210.453269 
L 166.114011 210.075641 
L 166.1287 210.075641 
L 166.228279 209.572138 
L 166.463408 209.572138 
L 166.521015 209.320386 
L 166.627125 209.320386 
L 166.709876 208.691007 
L 166.913767 208.691007 
L 167.006483 208.187503 
L 167.07642 208.187503 
L 167.082003 207.809876 
L 167.281921 207.809876 
L 167.306762 207.432248 
L 167.57787 207.432248 
L 167.683607 207.180497 
L 167.69712 207.180497 
L 167.69712 207.054621 
L 168.295375 207.054621 
L 168.295375 206.802869 
L 168.614553 206.802869 
L 168.614553 206.676993 
L 168.737655 206.676993 
L 168.816733 206.17349 
L 168.920812 206.17349 
L 169.011726 205.795862 
L 169.119745 205.795862 
L 169.224656 205.166483 
L 169.28186 205.166483 
L 169.299236 204.662979 
L 169.398218 204.662979 
L 169.398218 204.411228 
L 169.584862 204.411228 
L 169.650726 203.781848 
L 169.701795 203.781848 
L 169.762411 202.774841 
L 170.09592 202.774841 
L 170.126811 202.271338 
L 170.252229 202.271338 
L 170.306397 201.767834 
L 170.372131 201.767834 
L 170.467971 200.760828 
L 170.544758 200.760828 
L 170.544758 200.509076 
L 170.919507 200.509076 
L 171.014871 199.879697 
L 171.060113 199.879697 
L 171.136775 199.124441 
L 171.266835 199.124441 
L 171.266835 198.998566 
L 171.462466 198.998566 
L 171.462466 198.746814 
L 171.603476 198.746814 
L 171.697627 198.117434 
L 171.747795 198.117434 
L 171.773916 197.613931 
L 172.07173 197.613931 
L 172.152916 197.236303 
L 172.227383 197.236303 
L 172.284629 196.984552 
L 172.343812 196.984552 
L 172.343812 196.7328 
L 172.465815 196.7328 
L 172.503517 196.481048 
L 172.709542 196.481048 
L 172.709542 196.355172 
L 172.982818 196.355172 
L 173.062205 196.103421 
L 173.133165 196.103421 
L 173.189742 195.599917 
L 173.49195 195.599917 
L 173.49195 195.348166 
L 173.74046 195.348166 
L 173.826474 194.844662 
L 173.914037 194.844662 
L 173.999263 193.963531 
L 174.055224 193.963531 
L 174.074482 193.585903 
L 174.281225 193.585903 
L 174.33066 192.956524 
L 174.519589 192.956524 
L 174.5365 192.453021 
L 174.643251 192.453021 
L 174.714083 191.823641 
L 174.758683 191.823641 
L 174.825384 191.068386 
L 174.987442 191.068386 
L 175.064299 190.439007 
L 175.129927 190.439007 
L 175.155387 190.061379 
L 175.321846 190.061379 
L 175.404527 189.809628 
L 175.458253 189.809628 
L 175.467193 189.557876 
L 175.570583 189.557876 
L 175.634471 189.180248 
L 175.729899 189.180248 
L 175.773915 188.550869 
L 175.851134 188.550869 
L 175.954182 188.047366 
L 176.011574 188.047366 
L 176.11375 187.795614 
L 176.12411 187.795614 
L 176.146536 187.417986 
L 176.26855 187.417986 
L 176.314743 187.040359 
L 176.589542 187.040359 
L 176.639994 186.662731 
L 176.745503 186.662731 
L 176.75552 186.159228 
L 176.915082 186.159228 
L 177.00095 185.907476 
L 177.161719 185.907476 
L 177.222062 185.655724 
L 177.322746 185.655724 
L 177.345406 185.403972 
L 177.475981 185.403972 
L 177.475981 185.152221 
L 177.645499 185.152221 
L 177.650274 184.900469 
L 177.876513 184.900469 
L 177.929905 184.648717 
L 177.997215 184.648717 
L 178.086071 184.145214 
L 178.242493 184.145214 
L 178.344011 183.893462 
L 178.60754 183.893462 
L 178.639279 183.64171 
L 178.852503 183.64171 
L 178.885322 183.389959 
L 179.122303 183.389959 
L 179.167874 183.012331 
L 179.318502 183.012331 
L 179.318502 182.760579 
L 179.453477 182.760579 
L 179.498255 182.508828 
L 179.581747 182.508828 
L 179.680593 182.257076 
L 179.760436 182.257076 
L 179.832856 181.879448 
L 179.879569 181.879448 
L 179.978273 181.501821 
L 180.282389 181.501821 
L 180.282389 181.375945 
L 180.661852 181.375945 
L 180.661852 181.250069 
L 180.96054 181.250069 
L 180.981885 180.746566 
L 181.188738 180.746566 
L 181.259815 180.494814 
L 181.395951 180.494814 
L 181.451951 180.243062 
L 181.507785 180.243062 
L 181.595744 179.99131 
L 181.788329 179.99131 
L 181.802375 179.739559 
L 182.14639 179.739559 
L 182.241399 179.361931 
L 182.609368 179.361931 
L 182.697205 178.984303 
L 182.853559 178.984303 
L 182.853559 178.858428 
L 183.021789 178.858428 
L 183.086278 178.354924 
L 183.259537 178.354924 
L 183.259537 178.103172 
L 183.52113 178.103172 
L 183.52113 177.977297 
L 184.059706 177.977297 
L 184.159065 177.599669 
L 184.179324 177.599669 
L 184.181574 177.222041 
L 184.307127 177.222041 
L 184.358451 176.718538 
L 185.000314 176.718538 
L 185.000314 176.592662 
L 185.323804 176.592662 
L 185.323804 176.466786 
L 185.46511 176.466786 
L 185.56465 175.963283 
L 185.740436 175.963283 
L 185.740436 175.711531 
L 186.025052 175.711531 
L 186.025052 175.585655 
L 186.2057 175.585655 
L 186.2057 175.333903 
L 186.40063 175.333903 
L 186.40063 175.208028 
L 186.780614 175.208028 
L 186.80411 174.956276 
L 186.94156 174.956276 
L 186.94156 174.8304 
L 187.307069 174.8304 
L 187.307069 174.704524 
L 187.663741 174.704524 
L 187.712282 174.326897 
L 188.144518 174.326897 
L 188.144518 174.201021 
L 188.352913 174.201021 
L 188.409595 173.949269 
L 188.482221 173.949269 
L 188.588413 173.697517 
L 189.220161 173.697517 
L 189.220161 173.571641 
L 189.353917 173.571641 
L 189.353917 173.31989 
L 189.482487 173.31989 
L 189.492667 172.816386 
L 189.998065 172.816386 
L 190.082089 172.564634 
L 190.31814 172.564634 
L 190.31814 172.312883 
L 190.706949 172.312883 
L 190.78233 171.935255 
L 190.954177 171.935255 
L 190.954177 171.809379 
L 191.137683 171.809379 
L 191.137683 171.683503 
L 191.571688 171.683503 
L 191.664102 171.305876 
L 191.714661 171.305876 
L 191.714661 171.054124 
L 192.111368 171.054124 
L 192.166628 170.802372 
L 192.318308 170.802372 
L 192.318308 170.676497 
L 192.783242 170.676497 
L 192.783242 170.550621 
L 193.156863 170.550621 
L 193.156863 170.298869 
L 193.284163 170.298869 
L 193.284163 170.047117 
L 193.417493 170.047117 
L 193.417493 169.921241 
L 193.667771 169.921241 
L 193.667771 169.795366 
L 194.055693 169.795366 
L 194.067667 169.543614 
L 194.199539 169.543614 
L 194.199539 169.417738 
L 194.739801 169.417738 
L 194.757759 169.04011 
L 194.905261 169.04011 
L 194.956076 168.662483 
L 195.303628 168.662483 
L 195.303628 168.536607 
L 195.522787 168.536607 
L 195.522787 168.410731 
L 195.673594 168.410731 
L 195.763744 168.033103 
L 195.943361 168.033103 
L 195.987248 167.655476 
L 196.262648 167.655476 
L 196.262648 167.5296 
L 196.96482 167.5296 
L 197.047301 167.151972 
L 197.392054 167.151972 
L 197.458809 166.900221 
L 197.857702 166.900221 
L 197.909278 166.648469 
L 198.217402 166.648469 
L 198.217402 166.522593 
L 198.486416 166.522593 
L 198.593371 166.144966 
L 198.629932 166.144966 
L 198.629932 166.01909 
L 198.916291 166.01909 
L 198.99936 165.767338 
L 199.030034 165.767338 
L 199.030034 165.641462 
L 199.711721 165.641462 
L 199.711721 165.515586 
L 199.834966 165.515586 
L 199.834966 165.38971 
L 200.03311 165.38971 
L 200.1302 165.012083 
L 200.314304 165.012083 
L 200.381455 164.634455 
L 201.15132 164.634455 
L 201.15132 164.508579 
L 201.333427 164.508579 
L 201.355107 164.256828 
L 201.549563 164.256828 
L 201.627587 163.8792 
L 201.849186 163.8792 
L 201.849186 163.627448 
L 202.144111 163.627448 
L 202.20289 163.375697 
L 202.346899 163.375697 
L 202.346899 163.249821 
L 202.617727 163.249821 
L 202.617727 163.123945 
L 203.064053 163.123945 
L 203.064053 162.872193 
L 203.176253 162.872193 
L 203.176253 162.746317 
L 203.360561 162.746317 
L 203.360561 162.620441 
L 204.022362 162.620441 
L 204.074392 162.242814 
L 204.325082 162.242814 
L 204.325082 161.991062 
L 204.476738 161.991062 
L 204.476738 161.865186 
L 204.984154 161.865186 
L 204.984154 161.73931 
L 205.514465 161.73931 
L 205.514465 161.487559 
L 205.837006 161.487559 
L 205.837006 161.235807 
L 205.987936 161.235807 
L 205.987936 161.109931 
L 206.5853 161.109931 
L 206.5853 160.984055 
L 206.789975 160.984055 
L 206.789975 160.732303 
L 207.443624 160.732303 
L 207.443624 160.606428 
L 207.702785 160.606428 
L 207.702785 160.480552 
L 208.12232 160.480552 
L 208.12232 160.2288 
L 208.481466 160.2288 
L 208.481466 160.102924 
L 208.9147 160.102924 
L 208.9147 159.851172 
L 210.553432 159.851172 
L 210.553432 159.725297 
L 213.701855 159.725297 
L 213.701855 159.599421 
L 213.981246 159.599421 
L 213.981246 159.473545 
L 360.8064 159.473545 
L 360.8064 159.473545 
" style="fill: none; stroke: #000080; stroke-width: 1.5; stroke-linecap: square"/>
   </g>
   <g id="line2d_36">
    <defs>
     <path id="m591cd0832b" d="M 0 6 
C 1.591219 6 3.117479 5.367802 4.242641 4.242641 
C 5.367802 3.117479 6 1.591219 6 0 
C 6 -1.591219 5.367802 -3.117479 4.242641 -4.242641 
C 3.117479 -5.367802 1.591219 -6 0 -6 
C -1.591219 -6 -3.117479 -5.367802 -4.242641 -4.242641 
C -5.367802 -3.117479 -6 -1.591219 -6 0 
C -6 1.591219 -5.367802 3.117479 -4.242641 4.242641 
C -3.117479 5.367802 -1.591219 6 0 6 
z
" style="stroke: #000080; stroke-width: 1.5"/>
    </defs>
    <g>
     <use xlink:href="#m591cd0832b" x="69.674268" y="289.880938" style="fill-opacity: 0; stroke: #000080; stroke-width: 1.5"/>
     <use xlink:href="#m591cd0832b" x="139.277041" y="258.034345" style="fill-opacity: 0; stroke: #000080; stroke-width: 1.5"/>
     <use xlink:href="#m591cd0832b" x="200.1302" y="165.012083" style="fill-opacity: 0; stroke: #000080; stroke-width: 1.5"/>
     <use xlink:href="#m591cd0832b" x="213.981246" y="159.599421" style="fill-opacity: 0; stroke: #000080; stroke-width: 1.5"/>
     <use xlink:href="#m591cd0832b" x="213.981246" y="159.473545" style="fill-opacity: 0; stroke: #000080; stroke-width: 1.5"/>
     <use xlink:href="#m591cd0832b" x="360.8064" y="159.473545" style="fill-opacity: 0; stroke: #000080; stroke-width: 1.5"/>
    </g>
   </g>
   <g id="line2d_37">
    <path style="fill: none; stroke: #000080; stroke-width: 1.5; stroke-linecap: square"/>
    <g/>
   </g>
   <g id="line2d_38">
    <path d="M 230.860518 159.473545 
" clip-path="url(#pae7b4c593e)" style="fill: none; stroke: #000080; stroke-width: 1.5; stroke-linecap: square"/>
    <defs>
     <path id="m8e8bc2c35d" d="M -12 12 
L 12 -12 
M -12 -12 
L 12 12 
" style="stroke: #000080"/>
    </defs>
    <g clip-path="url(#pae7b4c593e)">
     <use xlink:href="#m8e8bc2c35d" x="230.860518" y="159.473545" style="fill: #000080; stroke: #000080"/>
    </g>
   </g>
   <g id="line2d_39">
    <defs>
     <path id="mb70d7bbf44" d="M 0 1.5 
C 0.397805 1.5 0.77937 1.341951 1.06066 1.06066 
C 1.341951 0.77937 1.5 0.397805 1.5 0 
C 1.5 -0.397805 1.341951 -0.77937 1.06066 -1.06066 
C 0.77937 -1.341951 0.397805 -1.5 0 -1.5 
C -0.397805 -1.5 -0.77937 -1.341951 -1.06066 -1.06066 
C -1.341951 -0.77937 -1.5 -0.397805 -1.5 0 
C -1.5 0.397805 -1.341951 0.77937 -1.06066 1.06066 
C -0.77937 1.341951 -0.397805 1.5 0 1.5 
z
" style="stroke: #ff00ff"/>
    </defs>
    <g>
     <use xlink:href="#mb70d7bbf44" x="219.177364" y="158.445559" style="fill: #ff00ff; stroke: #ff00ff"/>
     <use xlink:href="#mb70d7bbf44" x="219.177364" y="158.445559" style="fill: #ff00ff; stroke: #ff00ff"/>
    </g>
   </g>
   <g id="line2d_40">
    <path d="M 1.245626 298.944 
L 1.245626 289.713103 
L 71.103681 289.713103 
L 71.103681 289.083724 
L 88.972154 289.083724 
L 88.972154 288.769034 
L 91.148357 288.769034 
L 91.148357 288.454345 
L 101.833019 288.454345 
L 101.833019 288.034759 
L 108.605229 288.034759 
L 108.605229 287.720069 
L 110.163764 287.720069 
L 110.163764 287.405379 
L 110.897141 287.405379 
L 110.897141 286.985793 
L 114.7824 286.985793 
L 114.7824 286.566207 
L 115.358535 286.566207 
L 115.358535 286.356414 
L 118.487648 286.356414 
L 118.487648 286.041724 
L 120.748446 286.041724 
L 120.748446 285.622138 
L 122.379802 285.622138 
L 122.379802 285.370386 
L 123.145323 285.370386 
L 123.145323 285.055697 
L 123.51671 285.055697 
L 123.51671 284.803945 
L 124.238185 284.803945 
L 124.238185 284.384359 
L 125.60308 284.384359 
L 125.60308 284.069669 
L 126.565455 284.069669 
L 126.565455 283.44029 
L 127.18073 283.44029 
L 127.18073 283.188538 
L 127.480982 283.188538 
L 127.480982 282.978745 
L 127.776517 282.978745 
L 127.776517 282.664055 
L 128.067481 282.664055 
L 128.067481 282.244469 
L 128.354013 282.244469 
L 128.354013 281.824883 
L 128.636246 281.824883 
L 128.636246 281.405297 
L 129.458394 281.405297 
L 129.458394 281.195503 
L 129.987186 281.195503 
L 129.987186 280.98571 
L 130.501519 280.98571 
L 130.501519 280.566124 
L 131.489828 280.566124 
L 131.489828 280.251434 
L 131.965169 280.251434 
L 131.965169 279.999683 
L 132.19841 279.999683 
L 132.19841 279.78989 
L 132.656392 279.78989 
L 132.656392 279.055614 
L 132.881269 279.055614 
L 132.881269 278.845821 
L 133.323114 278.845821 
L 133.323114 277.691959 
L 133.754819 277.691959 
L 133.754819 277.440207 
L 133.967012 277.440207 
L 133.967012 277.230414 
L 134.589598 277.230414 
L 134.589598 276.559076 
L 134.993495 276.559076 
L 134.993495 276.13949 
L 135.388902 276.13949 
L 135.388902 275.51011 
L 135.583532 275.51011 
L 135.583532 274.943669 
L 135.776169 274.943669 
L 135.776169 274.628979 
L 135.966853 274.628979 
L 135.966853 274.377228 
L 136.155623 274.377228 
L 136.155623 274.062538 
L 137.072066 274.062538 
L 137.072066 273.747848 
L 137.250116 273.747848 
L 137.250116 273.433159 
L 137.426497 273.433159 
L 137.426497 273.223366 
L 137.601239 273.223366 
L 137.601239 272.971614 
L 137.945929 272.971614 
L 137.945929 272.510069 
L 138.284415 272.510069 
L 138.284415 271.985586 
L 138.451402 271.985586 
L 138.451402 271.461103 
L 139.104908 271.461103 
L 139.104908 271.209352 
L 139.423341 271.209352 
L 139.423341 270.999559 
L 139.736472 270.999559 
L 139.736472 270.181366 
L 140.044477 270.181366 
L 140.044477 269.929614 
L 140.196609 269.929614 
L 140.196609 269.719821 
L 140.793122 269.719821 
L 140.793122 268.251269 
L 140.939341 268.251269 
L 140.939341 267.936579 
L 141.228414 267.936579 
L 141.228414 266.950552 
L 141.793563 266.950552 
L 141.793563 266.321172 
L 141.932237 266.321172 
L 141.932237 265.649834 
L 142.069896 265.649834 
L 142.069896 265.398083 
L 142.206555 265.398083 
L 142.206555 264.978497 
L 143.006295 264.978497 
L 143.006295 264.160303 
L 143.136341 264.160303 
L 143.136341 263.740717 
L 143.393766 263.740717 
L 143.393766 263.426028 
L 143.521169 263.426028 
L 143.521169 263.006441 
L 143.647716 263.006441 
L 143.647716 261.957476 
L 143.898283 261.957476 
L 143.898283 261.705724 
L 144.389622 261.705724 
L 144.389622 261.076345 
L 144.510478 261.076345 
L 144.510478 260.237172 
L 144.630562 260.237172 
L 144.630562 259.293103 
L 144.868454 259.293103 
L 144.868454 258.873517 
L 145.3354 258.873517 
L 145.3354 258.453931 
L 145.450347 258.453931 
L 145.450347 257.446924 
L 145.791035 257.446924 
L 145.791035 257.237131 
L 145.90324 257.237131 
L 145.90324 256.607752 
L 146.125662 256.607752 
L 146.235895 255.202138 
L 146.345485 255.202138 
L 146.454441 254.740593 
L 146.562769 254.740593 
L 146.562769 254.321007 
L 147.095245 254.321007 
L 147.095245 254.069255 
L 147.407644 254.069255 
L 147.510634 253.02029 
L 147.613064 253.02029 
L 147.714939 252.0972 
L 147.816265 252.0972 
L 147.816265 251.258028 
L 148.017294 251.258028 
L 148.017294 250.628648 
L 148.216198 250.628648 
L 148.216198 250.167103 
L 148.413021 250.167103 
L 148.413021 249.432828 
L 148.704447 249.432828 
L 148.800595 248.929324 
L 149.274095 248.929324 
L 149.274095 246.6216 
L 149.460208 246.6216 
L 149.552579 244.859338 
L 149.644498 244.859338 
L 149.73597 244.292897 
L 150.275654 244.292897 
L 150.275654 243.768414 
L 150.539799 243.768414 
L 150.539799 243.348828 
L 150.800286 243.348828 
L 150.800286 243.139034 
L 151.226573 243.139034 
L 151.310683 242.67749 
L 151.477784 242.67749 
L 151.477784 242.006152 
L 151.643413 242.006152 
L 151.643413 241.586566 
L 152.211895 241.586566 
L 152.211895 241.376772 
L 152.607685 241.376772 
L 152.607685 241.062083 
L 152.91843 241.062083 
L 152.99532 240.432703 
L 153.52493 240.432703 
L 153.52493 240.180952 
L 153.74742 240.180952 
L 153.74742 239.656469 
L 153.894298 239.656469 
L 153.894298 239.446676 
L 154.112486 239.446676 
L 154.184657 238.817297 
L 154.399522 238.817297 
L 154.399522 238.104 
L 154.682245 238.104 
L 154.682245 237.852248 
L 154.822028 237.852248 
L 154.822028 237.222869 
L 154.960781 237.222869 
L 154.960781 236.59349 
L 155.371001 236.59349 
L 155.371001 235.754317 
L 155.639595 235.754317 
L 155.639595 235.502566 
L 155.772467 235.502566 
L 155.838553 235.041021 
L 156.100598 235.041021 
L 156.165543 234.621434 
L 156.802952 234.621434 
L 156.865521 234.15989 
L 157.175281 234.15989 
L 157.175281 232.271752 
L 157.297771 232.271752 
L 157.297771 231.852166 
L 157.540383 231.852166 
L 157.540383 231.348662 
L 157.660526 231.348662 
L 157.660526 230.929076 
L 157.779907 230.929076 
L 157.779907 230.299697 
L 158.307938 230.299697 
L 158.307938 230.089903 
L 158.595008 230.089903 
L 158.595008 229.838152 
L 159.100946 229.838152 
L 159.100946 229.5864 
L 159.266613 229.5864 
L 159.376252 228.747228 
L 159.755035 228.747228 
L 159.755035 228.537434 
L 160.020999 228.537434 
L 160.020999 228.285683 
L 160.178791 228.285683 
L 160.178791 227.866097 
L 160.335271 227.866097 
L 160.335271 227.362593 
L 160.49046 227.362593 
L 160.49046 226.85909 
L 161.048777 226.85909 
L 161.048777 226.019917 
L 161.247762 226.019917 
L 161.247762 225.390538 
L 161.493569 225.390538 
L 161.493569 224.509407 
L 161.639526 224.509407 
L 161.639526 224.005903 
L 161.78436 224.005903 
L 161.78436 223.586317 
L 162.023298 223.586317 
L 162.023298 223.271628 
L 162.492258 223.271628 
L 162.492258 222.432455 
L 162.630697 222.432455 
L 162.630697 222.117766 
L 162.904554 222.117766 
L 162.904554 221.614262 
L 163.129762 221.614262 
L 163.129762 220.77509 
L 163.3965 220.77509 
L 163.3965 219.935917 
L 163.832826 219.935917 
L 163.832826 219.516331 
L 164.004562 219.516331 
L 164.004562 219.306538 
L 164.301378 219.306538 
L 164.301378 218.803034 
L 164.427166 218.803034 
L 164.468908 217.963862 
L 164.593584 217.963862 
L 164.593584 217.460359 
L 164.717439 217.460359 
L 164.717439 216.956855 
L 164.922068 216.956855 
L 164.922068 216.537269 
L 165.364567 216.537269 
L 165.443915 215.068717 
L 165.679971 215.068717 
L 165.679971 214.754028 
L 165.796897 214.754028 
L 165.835711 213.621145 
L 166.028591 213.621145 
L 166.028591 213.201559 
L 166.219513 213.201559 
L 166.219513 212.949807 
L 166.632844 212.949807 
L 166.707029 211.774966 
L 166.744012 211.774966 
L 166.744012 211.355379 
L 167.326061 211.355379 
L 167.361848 210.516207 
L 167.645719 210.516207 
L 167.645719 210.306414 
L 167.786064 210.306414 
L 167.786064 209.467241 
L 167.994637 209.467241 
L 167.994637 209.21549 
L 168.506173 209.21549 
L 168.539786 208.753945 
L 168.872652 208.753945 
L 168.872652 208.439255 
L 169.102202 208.439255 
L 169.102202 207.809876 
L 169.361161 207.809876 
L 169.361161 207.600083 
L 169.489316 207.600083 
L 169.489316 207.096579 
L 169.711507 207.096579 
L 169.743035 206.362303 
L 170.055447 206.362303 
L 170.148167 205.019628 
L 170.514546 205.019628 
L 170.605037 203.886745 
L 170.93316 203.886745 
L 170.992209 202.544069 
L 171.109753 202.544069 
L 171.109753 201.390207 
L 171.313705 201.390207 
L 171.313705 201.138455 
L 171.686704 201.138455 
L 171.686704 200.718869 
L 172.547409 200.718869 
L 172.601609 199.879697 
L 172.896949 199.879697 
L 172.896949 199.565007 
L 173.082507 199.565007 
L 173.082507 199.250317 
L 173.318423 199.250317 
L 173.344454 198.306248 
L 173.474073 198.306248 
L 173.474073 197.802745 
L 173.654051 197.802745 
L 173.730661 196.753779 
L 173.933441 196.753779 
L 173.933441 196.43909 
L 174.747543 196.43909 
L 174.747543 196.019503 
L 175.035057 196.019503 
L 175.035057 195.599917 
L 175.318243 195.599917 
L 175.318243 195.285228 
L 175.458253 195.285228 
L 175.458253 194.865641 
L 175.643327 194.865641 
L 175.689313 194.047448 
L 176.143088 194.047448 
L 176.143088 193.837655 
L 176.299358 193.837655 
L 176.343769 192.075393 
L 176.954762 192.075393 
L 177.040449 190.082359 
L 177.525715 190.082359 
L 177.525715 189.662772 
L 177.815081 189.662772 
L 177.815081 189.411021 
L 178.180699 189.411021 
L 178.24095 188.886538 
L 178.400683 188.886538 
L 178.480044 188.047366 
L 178.5196 188.047366 
L 178.618125 187.334069 
L 178.813642 187.334069 
L 178.813642 186.830566 
L 179.045611 186.830566 
L 179.045611 186.620772 
L 179.198683 186.620772 
L 179.198683 186.201186 
L 179.50114 186.201186 
L 179.50114 185.886497 
L 179.780344 185.886497 
L 179.780344 185.634745 
L 180.822549 185.634745 
L 180.909748 184.543821 
L 181.048432 184.543821 
L 181.048432 184.334028 
L 181.254559 184.334028 
L 181.254559 183.914441 
L 181.407686 183.914441 
L 181.407686 183.599752 
L 181.609934 183.599752 
L 181.609934 182.970372 
L 181.810032 182.970372 
L 181.810032 182.760579 
L 182.171439 182.760579 
L 182.171439 182.44589 
L 182.301157 182.44589 
L 182.301157 181.81651 
L 182.779786 181.81651 
L 182.779786 181.501821 
L 183.292583 181.501821 
L 183.292583 181.292028 
L 183.821604 181.292028 
L 183.881127 180.557752 
L 184.766264 180.557752 
L 184.808739 179.676621 
L 185.434618 179.676621 
L 185.434618 179.361931 
L 186.013832 179.361931 
L 186.013832 179.152138 
L 186.146014 179.152138 
L 186.146014 178.837448 
L 186.342563 178.837448 
L 186.342563 178.417862 
L 186.678457 178.417862 
L 186.678457 178.103172 
L 186.932817 178.103172 
L 186.932817 177.683586 
L 187.308021 177.683586 
L 187.3204 177.054207 
L 187.988989 177.054207 
L 187.988989 176.215034 
L 188.611535 176.215034 
L 188.611535 175.900345 
L 188.886805 175.900345 
L 188.886805 175.480759 
L 189.124406 175.480759 
L 189.124406 174.641586 
L 189.370143 174.641586 
L 189.370143 174.389834 
L 190.024466 174.389834 
L 190.024466 173.760455 
L 190.4274 173.760455 
L 190.4274 173.131076 
L 190.914114 173.131076 
L 190.914114 172.816386 
L 191.378582 172.816386 
L 191.378582 172.501697 
L 191.547372 172.501697 
L 191.557254 171.767421 
L 192.025578 171.767421 
L 192.025578 171.452731 
L 192.236391 171.452731 
L 192.236391 170.823352 
L 192.369326 170.823352 
L 192.369326 170.193972 
L 193.373385 170.193972 
L 193.436071 169.564593 
L 193.578573 169.564593 
L 193.578573 169.249903 
L 194.496327 169.249903 
L 194.496327 168.935214 
L 195.127826 168.935214 
L 195.127826 168.620524 
L 196.106964 168.620524 
L 196.106964 167.991145 
L 196.460437 167.991145 
L 196.460437 167.676455 
L 196.679913 167.676455 
L 196.762497 166.942179 
L 196.807391 166.942179 
L 196.807391 166.62749 
L 197.740451 166.62749 
L 197.740451 166.3128 
L 198.527383 166.3128 
L 198.527383 165.683421 
L 199.83154 165.683421 
L 199.837903 165.158938 
L 201.586163 165.158938 
L 201.586163 164.844248 
L 202.07255 164.844248 
L 202.07255 164.214869 
L 202.297158 164.214869 
L 202.297158 163.900179 
L 202.546677 163.900179 
L 202.546677 163.58549 
L 203.554732 163.58549 
L 203.554732 163.2708 
L 205.689517 163.2708 
L 205.689517 162.641421 
L 207.927892 162.641421 
L 207.927892 162.326731 
L 208.288548 162.326731 
L 208.288548 162.012041 
L 208.713989 162.012041 
L 208.753633 160.753283 
L 215.000811 160.753283 
L 215.000811 160.333697 
L 216.754662 160.333697 
L 216.754662 159.704317 
L 217.485679 159.704317 
L 217.485679 159.389628 
L 218.049738 159.389628 
L 218.049738 159.074938 
L 218.446583 159.074938 
L 218.446583 158.760248 
L 219.177364 158.760248 
L 219.177364 158.445559 
L 360.8064 158.445559 
L 360.8064 158.445559 
" style="fill: none; stroke: #ff00ff; stroke-width: 1.5; stroke-linecap: square"/>
   </g>
   <g id="line2d_41">
    <defs>
     <path id="mf4893ed210" d="M -0 8.485281 
L 5.091169 0 
L 0 -8.485281 
L -5.091169 -0 
z
" style="stroke: #ff00ff; stroke-width: 1.5; stroke-linejoin: miter"/>
    </defs>
    <g>
     <use xlink:href="#mf4893ed210" x="110.897141" y="286.985793" style="fill-opacity: 0; stroke: #ff00ff; stroke-width: 1.5; stroke-linejoin: miter"/>
     <use xlink:href="#mf4893ed210" x="173.654051" y="197.173366" style="fill-opacity: 0; stroke: #ff00ff; stroke-width: 1.5; stroke-linejoin: miter"/>
     <use xlink:href="#mf4893ed210" x="219.177364" y="158.760248" style="fill-opacity: 0; stroke: #ff00ff; stroke-width: 1.5; stroke-linejoin: miter"/>
     <use xlink:href="#mf4893ed210" x="219.177364" y="158.445559" style="fill-opacity: 0; stroke: #ff00ff; stroke-width: 1.5; stroke-linejoin: miter"/>
     <use xlink:href="#mf4893ed210" x="219.177364" y="158.445559" style="fill-opacity: 0; stroke: #ff00ff; stroke-width: 1.5; stroke-linejoin: miter"/>
     <use xlink:href="#mf4893ed210" x="360.8064" y="158.445559" style="fill-opacity: 0; stroke: #ff00ff; stroke-width: 1.5; stroke-linejoin: miter"/>
    </g>
   </g>
   <g id="line2d_42">
    <path style="fill: none; stroke: #ff00ff; stroke-width: 1.5; stroke-linecap: square"/>
    <g/>
   </g>
   <g id="line2d_43">
    <path d="M 230.860142 158.445559 
" clip-path="url(#pae7b4c593e)" style="fill: none; stroke: #ff00ff; stroke-width: 1.5; stroke-linecap: square"/>
    <defs>
     <path id="m8f38ac60ac" d="M -12 12 
L 12 -12 
M -12 -12 
L 12 12 
" style="stroke: #ff00ff"/>
    </defs>
    <g clip-path="url(#pae7b4c593e)">
     <use xlink:href="#m8f38ac60ac" x="230.860142" y="158.445559" style="fill: #ff00ff; stroke: #ff00ff"/>
    </g>
   </g>
   <g id="line2d_44">
    <path d="M 360.8064 159.473545 
L 380.514816 293.10336 
" style="fill: none; stroke: #000080; stroke-width: 1.5; stroke-linecap: square"/>
    <g>
     <use xlink:href="#m591cd0832b" x="360.8064" y="159.473545" style="fill-opacity: 0; stroke: #000080; stroke-width: 1.5"/>
     <use xlink:href="#m591cd0832b" x="380.514816" y="293.10336" style="fill-opacity: 0; stroke: #000080; stroke-width: 1.5"/>
    </g>
   </g>
   <g id="line2d_45">
    <path d="M 360.8064 158.445559 
L 380.514816 152.928 
" style="fill: none; stroke: #ff00ff; stroke-width: 1.5; stroke-linecap: square"/>
    <g>
     <use xlink:href="#mf4893ed210" x="360.8064" y="158.445559" style="fill-opacity: 0; stroke: #ff00ff; stroke-width: 1.5; stroke-linejoin: miter"/>
     <use xlink:href="#mf4893ed210" x="380.514816" y="152.928" style="fill-opacity: 0; stroke: #ff00ff; stroke-width: 1.5; stroke-linejoin: miter"/>
    </g>
   </g>
   <g id="line2d_46">
    <path d="M 360.8064 298.944 
L 360.8064 6.912 
" style="fill: none; stroke: #000000; stroke-width: 1.5; stroke-linecap: square"/>
   </g>
   <g id="patch_3">
    <path d="M 57.6 298.944 
L 360.8064 298.944 
" style="fill: none; stroke: #000000; stroke-width: 0.8; stroke-linejoin: miter; stroke-linecap: square"/>
   </g>
   <g id="patch_4">
    <path d="M 57.6 6.912 
L 360.8064 6.912 
" style="fill: none; stroke: #000000; stroke-width: 0.8; stroke-linejoin: miter; stroke-linecap: square"/>
   </g>
   <g id="text_13">
    <!-- kerLQ -->
    <g transform="translate(386.578944 296.966485) scale(0.14 -0.14)">
     <defs>
      <path id="DejaVuSans-6b" d="M 581 4863 
L 1159 4863 
L 1159 1991 
L 2875 3500 
L 3609 3500 
L 1753 1863 
L 3688 0 
L 2938 0 
L 1159 1709 
L 1159 0 
L 581 0 
L 581 4863 
z
" transform="scale(0.015625)"/>
      <path id="DejaVuSans-4c" d="M 628 4666 
L 1259 4666 
L 1259 531 
L 3531 531 
L 3531 0 
L 628 0 
L 628 4666 
z
" transform="scale(0.015625)"/>
      <path id="DejaVuSans-51" d="M 2522 4238 
Q 1834 4238 1429 3725 
Q 1025 3213 1025 2328 
Q 1025 1447 1429 934 
Q 1834 422 2522 422 
Q 3209 422 3611 934 
Q 4013 1447 4013 2328 
Q 4013 3213 3611 3725 
Q 3209 4238 2522 4238 
z
M 3406 84 
L 4238 -825 
L 3475 -825 
L 2784 -78 
Q 2681 -84 2626 -87 
Q 2572 -91 2522 -91 
Q 1538 -91 948 567 
Q 359 1225 359 2328 
Q 359 3434 948 4092 
Q 1538 4750 2522 4750 
Q 3503 4750 4090 4092 
Q 4678 3434 4678 2328 
Q 4678 1516 4351 937 
Q 4025 359 3406 84 
z
" transform="scale(0.015625)"/>
     </defs>
     <use xlink:href="#DejaVuSans-6b"/>
     <use xlink:href="#DejaVuSans-65" x="54.285156"/>
     <use xlink:href="#DejaVuSans-72" x="115.808594"/>
     <use xlink:href="#DejaVuSans-4c" x="156.921875"/>
     <use xlink:href="#DejaVuSans-51" x="212.634766"/>
    </g>
   </g>
   <g id="text_14">
    <!-- kerComo -->
    <g transform="translate(386.578944 156.791125) scale(0.14 -0.14)">
     <defs>
      <path id="DejaVuSans-43" d="M 4122 4306 
L 4122 3641 
Q 3803 3938 3442 4084 
Q 3081 4231 2675 4231 
Q 1875 4231 1450 3742 
Q 1025 3253 1025 2328 
Q 1025 1406 1450 917 
Q 1875 428 2675 428 
Q 3081 428 3442 575 
Q 3803 722 4122 1019 
L 4122 359 
Q 3791 134 3420 21 
Q 3050 -91 2638 -91 
Q 1578 -91 968 557 
Q 359 1206 359 2328 
Q 359 3453 968 4101 
Q 1578 4750 2638 4750 
Q 3056 4750 3426 4639 
Q 3797 4528 4122 4306 
z
" transform="scale(0.015625)"/>
     </defs>
     <use xlink:href="#DejaVuSans-6b"/>
     <use xlink:href="#DejaVuSans-65" x="54.285156"/>
     <use xlink:href="#DejaVuSans-72" x="115.808594"/>
     <use xlink:href="#DejaVuSans-43" x="156.921875"/>
     <use xlink:href="#DejaVuSans-6f" x="226.746094"/>
     <use xlink:href="#DejaVuSans-6d" x="287.927734"/>
     <use xlink:href="#DejaVuSans-6f" x="385.339844"/>
    </g>
   </g>
   <g id="text_15">
    <!-- best 2016 -->
    <g transform="translate(386.578944 16.615765) scale(0.14 -0.14)">
     <defs>
      <path id="DejaVuSans-62" d="M 3116 1747 
Q 3116 2381 2855 2742 
Q 2594 3103 2138 3103 
Q 1681 3103 1420 2742 
Q 1159 2381 1159 1747 
Q 1159 1113 1420 752 
Q 1681 391 2138 391 
Q 2594 391 2855 752 
Q 3116 1113 3116 1747 
z
M 1159 2969 
Q 1341 3281 1617 3432 
Q 1894 3584 2278 3584 
Q 2916 3584 3314 3078 
Q 3713 2572 3713 1747 
Q 3713 922 3314 415 
Q 2916 -91 2278 -91 
Q 1894 -91 1617 61 
Q 1341 213 1159 525 
L 1159 0 
L 581 0 
L 581 4863 
L 1159 4863 
L 1159 2969 
z
" transform="scale(0.015625)"/>
     </defs>
     <use xlink:href="#DejaVuSans-62"/>
     <use xlink:href="#DejaVuSans-65" x="63.476562"/>
     <use xlink:href="#DejaVuSans-73" x="125"/>
     <use xlink:href="#DejaVuSans-74" x="177.099609"/>
     <use xlink:href="#DejaVuSans-20" x="216.308594"/>
     <use xlink:href="#DejaVuSans-32" x="248.095703"/>
     <use xlink:href="#DejaVuSans-30" x="311.71875"/>
     <use xlink:href="#DejaVuSans-31" x="375.341797"/>
     <use xlink:href="#DejaVuSans-36" x="438.964844"/>
    </g>
   </g>
   <g id="text_16">
    <!-- bbob-biobj f3, f4, f12, f13, 20-D -->
    <g transform="translate(60.632064 17.582726) scale(0.102 -0.102)">
     <defs>
      <path id="DejaVuSans-6a" d="M 603 3500 
L 1178 3500 
L 1178 -63 
Q 1178 -731 923 -1031 
Q 669 -1331 103 -1331 
L -116 -1331 
L -116 -844 
L 38 -844 
Q 366 -844 484 -692 
Q 603 -541 603 -63 
L 603 3500 
z
M 603 4863 
L 1178 4863 
L 1178 4134 
L 603 4134 
L 603 4863 
z
" transform="scale(0.015625)"/>
      <path id="DejaVuSans-33" d="M 2597 2516 
Q 3050 2419 3304 2112 
Q 3559 1806 3559 1356 
Q 3559 666 3084 287 
Q 2609 -91 1734 -91 
Q 1441 -91 1130 -33 
Q 819 25 488 141 
L 488 750 
Q 750 597 1062 519 
Q 1375 441 1716 441 
Q 2309 441 2620 675 
Q 2931 909 2931 1356 
Q 2931 1769 2642 2001 
Q 2353 2234 1838 2234 
L 1294 2234 
L 1294 2753 
L 1863 2753 
Q 2328 2753 2575 2939 
Q 2822 3125 2822 3475 
Q 2822 3834 2567 4026 
Q 2313 4219 1838 4219 
Q 1578 4219 1281 4162 
Q 984 4106 628 3988 
L 628 4550 
Q 988 4650 1302 4700 
Q 1616 4750 1894 4750 
Q 2613 4750 3031 4423 
Q 3450 4097 3450 3541 
Q 3450 3153 3228 2886 
Q 3006 2619 2597 2516 
z
" transform="scale(0.015625)"/>
      <path id="DejaVuSans-44" d="M 1259 4147 
L 1259 519 
L 2022 519 
Q 2988 519 3436 956 
Q 3884 1394 3884 2338 
Q 3884 3275 3436 3711 
Q 2988 4147 2022 4147 
L 1259 4147 
z
M 628 4666 
L 1925 4666 
Q 3281 4666 3915 4102 
Q 4550 3538 4550 2338 
Q 4550 1131 3912 565 
Q 3275 0 1925 0 
L 628 0 
L 628 4666 
z
" transform="scale(0.015625)"/>
     </defs>
     <use xlink:href="#DejaVuSans-62"/>
     <use xlink:href="#DejaVuSans-62" x="63.476562"/>
     <use xlink:href="#DejaVuSans-6f" x="126.953125"/>
     <use xlink:href="#DejaVuSans-62" x="188.134766"/>
     <use xlink:href="#DejaVuSans-2d" x="251.611328"/>
     <use xlink:href="#DejaVuSans-62" x="287.695312"/>
     <use xlink:href="#DejaVuSans-69" x="351.171875"/>
     <use xlink:href="#DejaVuSans-6f" x="378.955078"/>
     <use xlink:href="#DejaVuSans-62" x="440.136719"/>
     <use xlink:href="#DejaVuSans-6a" x="503.613281"/>
     <use xlink:href="#DejaVuSans-20" x="531.396484"/>
     <use xlink:href="#DejaVuSans-66" x="563.183594"/>
     <use xlink:href="#DejaVuSans-33" x="598.388672"/>
     <use xlink:href="#DejaVuSans-2c" x="662.011719"/>
     <use xlink:href="#DejaVuSans-20" x="693.798828"/>
     <use xlink:href="#DejaVuSans-66" x="725.585938"/>
     <use xlink:href="#DejaVuSans-34" x="760.791016"/>
     <use xlink:href="#DejaVuSans-2c" x="824.414062"/>
     <use xlink:href="#DejaVuSans-20" x="856.201172"/>
     <use xlink:href="#DejaVuSans-66" x="887.988281"/>
     <use xlink:href="#DejaVuSans-31" x="923.193359"/>
     <use xlink:href="#DejaVuSans-32" x="986.816406"/>
     <use xlink:href="#DejaVuSans-2c" x="1050.439453"/>
     <use xlink:href="#DejaVuSans-20" x="1082.226562"/>
     <use xlink:href="#DejaVuSans-66" x="1114.013672"/>
     <use xlink:href="#DejaVuSans-31" x="1149.21875"/>
     <use xlink:href="#DejaVuSans-33" x="1212.841797"/>
     <use xlink:href="#DejaVuSans-2c" x="1276.464844"/>
     <use xlink:href="#DejaVuSans-20" x="1308.251953"/>
     <use xlink:href="#DejaVuSans-32" x="1340.039062"/>
     <use xlink:href="#DejaVuSans-30" x="1403.662109"/>
     <use xlink:href="#DejaVuSans-2d" x="1467.285156"/>
     <use xlink:href="#DejaVuSans-44" x="1503.369141"/>
    </g>
    <!-- 58 targets: 1..-1.0e-4 -->
    <g transform="translate(60.632064 29.004495) scale(0.102 -0.102)">
     <defs>
      <path id="DejaVuSans-35" d="M 691 4666 
L 3169 4666 
L 3169 4134 
L 1269 4134 
L 1269 2991 
Q 1406 3038 1543 3061 
Q 1681 3084 1819 3084 
Q 2600 3084 3056 2656 
Q 3513 2228 3513 1497 
Q 3513 744 3044 326 
Q 2575 -91 1722 -91 
Q 1428 -91 1123 -41 
Q 819 9 494 109 
L 494 744 
Q 775 591 1075 516 
Q 1375 441 1709 441 
Q 2250 441 2565 725 
Q 2881 1009 2881 1497 
Q 2881 1984 2565 2268 
Q 2250 2553 1709 2553 
Q 1456 2553 1204 2497 
Q 953 2441 691 2322 
L 691 4666 
z
" transform="scale(0.015625)"/>
      <path id="DejaVuSans-3a" d="M 750 794 
L 1409 794 
L 1409 0 
L 750 0 
L 750 794 
z
M 750 3309 
L 1409 3309 
L 1409 2516 
L 750 2516 
L 750 3309 
z
" transform="scale(0.015625)"/>
     </defs>
     <use xlink:href="#DejaVuSans-35"/>
     <use xlink:href="#DejaVuSans-38" x="63.623047"/>
     <use xlink:href="#DejaVuSans-20" x="127.246094"/>
     <use xlink:href="#DejaVuSans-74" x="159.033203"/>
     <use xlink:href="#DejaVuSans-61" x="198.242188"/>
     <use xlink:href="#DejaVuSans-72" x="259.521484"/>
     <use xlink:href="#DejaVuSans-67" x="298.884766"/>
     <use xlink:href="#DejaVuSans-65" x="362.361328"/>
     <use xlink:href="#DejaVuSans-74" x="423.884766"/>
     <use xlink:href="#DejaVuSans-73" x="463.09375"/>
     <use xlink:href="#DejaVuSans-3a" x="515.193359"/>
     <use xlink:href="#DejaVuSans-20" x="548.884766"/>
     <use xlink:href="#DejaVuSans-31" x="580.671875"/>
     <use xlink:href="#DejaVuSans-2e" x="644.294922"/>
     <use xlink:href="#DejaVuSans-2e" x="676.082031"/>
     <use xlink:href="#DejaVuSans-2d" x="707.869141"/>
     <use xlink:href="#DejaVuSans-31" x="743.953125"/>
     <use xlink:href="#DejaVuSans-2e" x="807.576172"/>
     <use xlink:href="#DejaVuSans-30" x="839.363281"/>
     <use xlink:href="#DejaVuSans-65" x="902.986328"/>
     <use xlink:href="#DejaVuSans-2d" x="964.509766"/>
     <use xlink:href="#DejaVuSans-34" x="1000.59375"/>
    </g>
    <!-- 10, 3 instances -->
    <g transform="translate(60.632064 40.426264) scale(0.102 -0.102)">
     <use xlink:href="#DejaVuSans-31"/>
     <use xlink:href="#DejaVuSans-30" x="63.623047"/>
     <use xlink:href="#DejaVuSans-2c" x="127.246094"/>
     <use xlink:href="#DejaVuSans-20" x="159.033203"/>
     <use xlink:href="#DejaVuSans-33" x="190.820312"/>
     <use xlink:href="#DejaVuSans-20" x="254.443359"/>
     <use xlink:href="#DejaVuSans-69" x="286.230469"/>
     <use xlink:href="#DejaVuSans-6e" x="314.013672"/>
     <use xlink:href="#DejaVuSans-73" x="377.392578"/>
     <use xlink:href="#DejaVuSans-74" x="429.492188"/>
     <use xlink:href="#DejaVuSans-61" x="468.701172"/>
     <use xlink:href="#DejaVuSans-6e" x="529.980469"/>
     <use xlink:href="#DejaVuSans-63" x="593.359375"/>
     <use xlink:href="#DejaVuSans-65" x="648.339844"/>
     <use xlink:href="#DejaVuSans-73" x="709.863281"/>
    </g>
   </g>
   <g id="text_17">
    <!-- v2.6, hv-hash=ff0e71e8cd978373 -->
    <g style="fill: #808080" transform="translate(123.707887 293.943992) scale(0.1 -0.1)">
     <defs>
      <path id="DejaVuSans-68" d="M 3513 2113 
L 3513 0 
L 2938 0 
L 2938 2094 
Q 2938 2591 2744 2837 
Q 2550 3084 2163 3084 
Q 1697 3084 1428 2787 
Q 1159 2491 1159 1978 
L 1159 0 
L 581 0 
L 581 4863 
L 1159 4863 
L 1159 2956 
Q 1366 3272 1645 3428 
Q 1925 3584 2291 3584 
Q 2894 3584 3203 3211 
Q 3513 2838 3513 2113 
z
" transform="scale(0.015625)"/>
      <path id="DejaVuSans-3d" d="M 678 2906 
L 4684 2906 
L 4684 2381 
L 678 2381 
L 678 2906 
z
M 678 1631 
L 4684 1631 
L 4684 1100 
L 678 1100 
L 678 1631 
z
" transform="scale(0.015625)"/>
      <path id="DejaVuSans-37" d="M 525 4666 
L 3525 4666 
L 3525 4397 
L 1831 0 
L 1172 0 
L 2766 4134 
L 525 4134 
L 525 4666 
z
" transform="scale(0.015625)"/>
      <path id="DejaVuSans-39" d="M 703 97 
L 703 672 
Q 941 559 1184 500 
Q 1428 441 1663 441 
Q 2288 441 2617 861 
Q 2947 1281 2994 2138 
Q 2813 1869 2534 1725 
Q 2256 1581 1919 1581 
Q 1219 1581 811 2004 
Q 403 2428 403 3163 
Q 403 3881 828 4315 
Q 1253 4750 1959 4750 
Q 2769 4750 3195 4129 
Q 3622 3509 3622 2328 
Q 3622 1225 3098 567 
Q 2575 -91 1691 -91 
Q 1453 -91 1209 -44 
Q 966 3 703 97 
z
M 1959 2075 
Q 2384 2075 2632 2365 
Q 2881 2656 2881 3163 
Q 2881 3666 2632 3958 
Q 2384 4250 1959 4250 
Q 1534 4250 1286 3958 
Q 1038 3666 1038 3163 
Q 1038 2656 1286 2365 
Q 1534 2075 1959 2075 
z
" transform="scale(0.015625)"/>
     </defs>
     <use xlink:href="#DejaVuSans-76"/>
     <use xlink:href="#DejaVuSans-32" x="59.179688"/>
     <use xlink:href="#DejaVuSans-2e" x="122.802734"/>
     <use xlink:href="#DejaVuSans-36" x="154.589844"/>
     <use xlink:href="#DejaVuSans-2c" x="218.212891"/>
     <use xlink:href="#DejaVuSans-20" x="250"/>
     <use xlink:href="#DejaVuSans-68" x="281.787109"/>
     <use xlink:href="#DejaVuSans-76" x="345.166016"/>
     <use xlink:href="#DejaVuSans-2d" x="401.720703"/>
     <use xlink:href="#DejaVuSans-68" x="437.804688"/>
     <use xlink:href="#DejaVuSans-61" x="501.183594"/>
     <use xlink:href="#DejaVuSans-73" x="562.462891"/>
     <use xlink:href="#DejaVuSans-68" x="614.5625"/>
     <use xlink:href="#DejaVuSans-3d" x="677.941406"/>
     <use xlink:href="#DejaVuSans-66" x="761.730469"/>
     <use xlink:href="#DejaVuSans-66" x="796.935547"/>
     <use xlink:href="#DejaVuSans-30" x="832.140625"/>
     <use xlink:href="#DejaVuSans-65" x="895.763672"/>
     <use xlink:href="#DejaVuSans-37" x="957.287109"/>
     <use xlink:href="#DejaVuSans-31" x="1020.910156"/>
     <use xlink:href="#DejaVuSans-65" x="1084.533203"/>
     <use xlink:href="#DejaVuSans-38" x="1146.056641"/>
     <use xlink:href="#DejaVuSans-63" x="1209.679688"/>
     <use xlink:href="#DejaVuSans-64" x="1264.660156"/>
     <use xlink:href="#DejaVuSans-39" x="1328.136719"/>
     <use xlink:href="#DejaVuSans-37" x="1391.759766"/>
     <use xlink:href="#DejaVuSans-38" x="1455.382812"/>
     <use xlink:href="#DejaVuSans-33" x="1519.005859"/>
     <use xlink:href="#DejaVuSans-37" x="1582.628906"/>
     <use xlink:href="#DejaVuSans-33" x="1646.251953"/>
    </g>
   </g>
  </g>
 </g>
 <defs>
  <clipPath id="pae7b4c593e">
   <rect x="57.6" y="6.912" width="303.2064" height="292.032"/>
  </clipPath>
 </defs>
</svg>
