<?xml version="1.0" encoding="utf-8" standalone="no"?>
<!DOCTYPE svg PUBLIC "-//W3C//DTD SVG 1.1//EN"
  "http://www.w3.org/Graphics/SVG/1.1/DTD/svg11.dtd">
<svg xmlns:xlink="http://www.w3.org/1999/xlink" width="460.8pt" height="345.6pt" viewBox="0 0 460.8 345.6" xmlns="http://www.w3.org/2000/svg" version="1.1">
 <metadata>
  <rdf:RDF xmlns:dc="http://purl.org/dc/elements/1.1/" xmlns:cc="http://creativecommons.org/ns#" xmlns:rdf="http://www.w3.org/1999/02/22-rdf-syntax-ns#">
   <cc:Work>
    <dc:type rdf:resource="http://purl.org/dc/dcmitype/StillImage"/>
    <dc:date>2023-02-13T15:00:05.298467</dc:date>
    <dc:format>image/svg+xml</dc:format>
    <dc:creator>
     <cc:Agent>
      <dc:title>Matplotlib v3.6.3, https://matplotlib.org/</dc:title>
     </cc:Agent>
    </dc:creator>
   </cc:Work>
  </rdf:RDF>
 </metadata>
 <defs>
  <style type="text/css">*{stroke-linejoin: round; stroke-linecap: butt}</style>
 </defs>
 <g id="figure_1">
  <g id="patch_1">
   <path d="M 0 345.6 
L 460.8 345.6 
L 460.8 0 
L 0 0 
z
" style="fill: #ffffff"/>
  </g>
  <g id="axes_1">
   <g id="patch_2">
    <path d="M 57.6 298.944 
L 360.8064 298.944 
L 360.8064 6.912 
L 57.6 6.912 
z
" style="fill: #ffffff"/>
   </g>
   <g id="line2d_1">
    <path d="M 40.363149 298.944 
L 40.363149 297.685241 
L 47.990577 297.685241 
L 47.990577 296.426483 
L 57.6 296.426483 
L 57.6 292.650207 
L 63.929565 292.650207 
L 63.929565 291.391448 
L 68.65718 291.391448 
L 68.65718 286.356414 
L 70.639174 286.356414 
L 70.639174 283.838897 
L 74.068926 283.838897 
L 74.068926 281.321379 
L 76.96874 281.321379 
L 76.96874 278.803862 
L 82.713442 278.803862 
L 82.713442 276.286345 
L 83.678349 276.286345 
L 83.678349 275.027586 
L 87.1081 275.027586 
L 87.1081 273.768828 
L 90.668036 273.768828 
L 90.668036 269.992552 
L 93.66029 269.992552 
L 93.66029 267.475034 
L 97.635342 267.475034 
L 97.635342 262.44 
L 98.510456 262.44 
L 98.510456 259.922483 
L 104.344952 259.922483 
L 104.344952 257.404966 
L 105.559021 257.404966 
L 105.559021 256.146207 
L 106.137884 256.146207 
L 106.137884 254.887448 
L 107.244765 254.887448 
L 107.244765 251.111172 
L 110.221204 251.111172 
L 110.221204 249.852414 
L 111.117162 249.852414 
L 111.117162 247.334897 
L 111.334639 247.334897 
L 111.334639 243.558621 
L 115.575511 243.558621 
L 115.575511 241.041103 
L 116.583514 241.041103 
L 116.583514 238.523586 
L 117.384126 238.523586 
L 117.384126 236.006069 
L 120.813877 236.006069 
L 120.813877 232.229793 
L 123.145323 232.229793 
L 123.145323 228.453517 
L 123.601383 228.453517 
L 123.601383 225.936 
L 129.292652 225.936 
L 129.292652 223.418483 
L 130.579414 223.418483 
L 130.579414 220.900966 
L 131.191226 220.900966 
L 131.191226 218.383448 
L 135.717106 218.383448 
L 135.717106 214.607172 
L 136.010584 214.607172 
L 136.010584 210.830897 
L 138.667556 210.830897 
L 138.667556 208.313379 
L 141.825656 208.313379 
L 141.825656 205.795862 
L 142.373399 205.795862 
L 142.373399 203.278345 
L 146.362288 203.278345 
L 146.362288 200.760828 
L 146.728219 200.760828 
L 146.728219 198.24331 
L 148.903591 198.24331 
L 148.903591 195.725793 
L 149.595059 195.725793 
L 149.595059 193.208276 
L 152.811444 193.208276 
L 152.811444 190.690759 
L 154.928852 190.690759 
L 154.928852 188.173241 
L 155.536743 188.173241 
L 155.536743 185.655724 
L 158.595008 185.655724 
L 158.595008 184.396966 
L 161.691646 184.396966 
L 161.691646 183.138207 
L 162.928937 183.138207 
L 162.928937 181.879448 
L 164.102932 181.879448 
L 164.102932 178.103172 
L 165.802874 178.103172 
L 165.802874 175.585655 
L 168.451748 175.585655 
L 168.451748 171.809379 
L 169.144777 171.809379 
L 169.144777 168.033103 
L 169.755147 168.033103 
L 169.755147 166.774345 
L 171.990192 166.774345 
L 171.990192 165.515586 
L 175.113541 165.515586 
L 175.113541 164.256828 
L 175.736948 164.256828 
L 175.736948 160.480552 
L 178.80616 160.480552 
L 178.80616 159.221793 
L 180.168573 159.221793 
L 180.168573 155.445517 
L 181.977698 155.445517 
L 181.977698 154.186759 
L 183.30555 154.186759 
L 183.30555 150.410483 
L 184.925864 150.410483 
L 184.925864 147.892966 
L 188.17456 147.892966 
L 188.17456 144.11669 
L 189.616925 144.11669 
L 189.616925 140.340414 
L 191.097231 140.340414 
L 191.097231 137.822897 
L 194.15789 137.822897 
L 194.15789 136.564138 
L 195.668098 136.564138 
L 195.668098 134.046621 
L 196.616139 134.046621 
L 196.616139 131.529103 
L 197.389825 131.529103 
L 197.389825 130.270345 
L 202.468127 130.270345 
L 202.468127 126.494069 
L 203.62168 126.494069 
L 203.62168 125.23531 
L 204.485149 125.23531 
L 204.485149 123.976552 
L 205.218305 123.976552 
L 205.218305 120.200276 
L 209.071405 120.200276 
L 209.071405 118.941517 
L 212.092181 118.941517 
L 212.092181 115.165241 
L 213.00825 115.165241 
L 213.00825 113.906483 
L 214.635591 113.906483 
L 214.635591 110.130207 
L 214.831551 110.130207 
L 214.831551 106.353931 
L 217.264149 106.353931 
L 217.264149 105.095172 
L 221.004588 105.095172 
L 221.004588 103.836414 
L 221.701808 103.836414 
L 221.701808 100.060138 
L 223.031194 100.060138 
L 223.031194 97.542621 
L 224.130217 97.542621 
L 224.130217 93.766345 
L 228.500894 93.766345 
L 228.500894 91.248828 
L 228.822286 91.248828 
L 228.822286 87.472552 
L 230.313397 87.472552 
L 230.313397 84.955034 
L 233.395481 84.955034 
L 233.395481 82.437517 
L 233.872718 82.437517 
L 233.872718 79.92 
L 235.949331 79.92 
L 235.949331 78.661241 
L 236.67768 78.661241 
L 236.67768 77.402483 
L 237.112539 77.402483 
L 237.112539 74.884966 
L 238.188887 74.884966 
L 238.188887 72.367448 
L 240.847388 72.367448 
L 240.847388 69.849931 
L 241.197676 69.849931 
L 241.197676 66.073655 
L 242.04422 66.073655 
L 242.04422 63.556138 
L 244.683304 63.556138 
L 244.683304 59.779862 
L 246.562454 59.779862 
L 246.562454 57.262345 
L 249.3714 57.262345 
L 249.3714 56.003586 
L 255.549895 56.003586 
L 255.549895 54.744828 
L 257.255795 54.744828 
L 257.255795 52.22731 
L 261.784188 52.22731 
L 261.784188 49.709793 
L 263.555013 49.709793 
L 263.555013 45.933517 
L 268.347164 45.933517 
L 268.347164 42.157241 
L 360.8064 42.157241 
L 360.8064 42.157241 
" style="fill: none; stroke: #f5deb3; stroke-width: 4; stroke-linecap: square"/>
   </g>
   <g id="line2d_2">
    <defs>
     <path id="m08c9fe32f9" d="M -0 7.778175 
L 7.778175 0 
L 0 -7.778175 
L -7.778175 -0 
z
" style="stroke: #f5deb3; stroke-width: 1.5; stroke-linejoin: miter"/>
    </defs>
    <g>
     <use xlink:href="#m08c9fe32f9" x="130.579414" y="220.900966" style="fill: #f5deb3; stroke: #f5deb3; stroke-width: 1.5; stroke-linejoin: miter"/>
     <use xlink:href="#m08c9fe32f9" x="195.668098" y="134.046621" style="fill: #f5deb3; stroke: #f5deb3; stroke-width: 1.5; stroke-linejoin: miter"/>
     <use xlink:href="#m08c9fe32f9" x="244.683304" y="59.779862" style="fill: #f5deb3; stroke: #f5deb3; stroke-width: 1.5; stroke-linejoin: miter"/>
     <use xlink:href="#m08c9fe32f9" x="268.347164" y="42.157241" style="fill: #f5deb3; stroke: #f5deb3; stroke-width: 1.5; stroke-linejoin: miter"/>
     <use xlink:href="#m08c9fe32f9" x="268.347164" y="42.157241" style="fill: #f5deb3; stroke: #f5deb3; stroke-width: 1.5; stroke-linejoin: miter"/>
     <use xlink:href="#m08c9fe32f9" x="360.8064" y="42.157241" style="fill: #f5deb3; stroke: #f5deb3; stroke-width: 1.5; stroke-linejoin: miter"/>
    </g>
   </g>
   <g id="line2d_3">
    <path style="fill: none; stroke: #f5deb3; stroke-width: 4; stroke-linecap: square"/>
    <g/>
   </g>
   <g id="line2d_4">
    <path d="M 360.8064 42.157241 
L 380.514816 12.75264 
" style="fill: none; stroke: #f5deb3; stroke-width: 4; stroke-linecap: square"/>
    <g>
     <use xlink:href="#m08c9fe32f9" x="360.8064" y="42.157241" style="fill: #f5deb3; stroke: #f5deb3; stroke-width: 1.5; stroke-linejoin: miter"/>
     <use xlink:href="#m08c9fe32f9" x="380.514816" y="12.75264" style="fill: #f5deb3; stroke: #f5deb3; stroke-width: 1.5; stroke-linejoin: miter"/>
    </g>
   </g>
   <g id="matplotlib.axis_1">
    <g id="xtick_1">
     <g id="line2d_5">
      <path d="M 57.6 298.944 
L 57.6 6.912 
" clip-path="url(#p60d57823dc)" style="fill: none; stroke: #b0b0b0; stroke-width: 0.8; stroke-linecap: square"/>
     </g>
     <g id="line2d_6">
      <defs>
       <path id="me5bb86158c" d="M 0 0 
L 0 3.5 
" style="stroke: #000000; stroke-width: 0.8"/>
      </defs>
      <g>
       <use xlink:href="#me5bb86158c" x="57.6" y="298.944" style="stroke: #000000; stroke-width: 0.8"/>
      </g>
     </g>
     <g id="text_1">
      <!-- 0 -->
      <g transform="translate(52.191875 318.861344) scale(0.17 -0.17)">
       <defs>
        <path id="DejaVuSans-30" d="M 2034 4250 
Q 1547 4250 1301 3770 
Q 1056 3291 1056 2328 
Q 1056 1369 1301 889 
Q 1547 409 2034 409 
Q 2525 409 2770 889 
Q 3016 1369 3016 2328 
Q 3016 3291 2770 3770 
Q 2525 4250 2034 4250 
z
M 2034 4750 
Q 2819 4750 3233 4129 
Q 3647 3509 3647 2328 
Q 3647 1150 3233 529 
Q 2819 -91 2034 -91 
Q 1250 -91 836 529 
Q 422 1150 422 2328 
Q 422 3509 836 4129 
Q 1250 4750 2034 4750 
z
" transform="scale(0.015625)"/>
       </defs>
       <use xlink:href="#DejaVuSans-30"/>
      </g>
     </g>
    </g>
    <g id="xtick_2">
     <g id="line2d_7">
      <path d="M 144.2304 298.944 
L 144.2304 6.912 
" clip-path="url(#p60d57823dc)" style="fill: none; stroke: #b0b0b0; stroke-width: 0.8; stroke-linecap: square"/>
     </g>
     <g id="line2d_8">
      <g>
       <use xlink:href="#me5bb86158c" x="144.2304" y="298.944" style="stroke: #000000; stroke-width: 0.8"/>
      </g>
     </g>
     <g id="text_2">
      <!-- 2 -->
      <g transform="translate(138.822275 318.861344) scale(0.17 -0.17)">
       <defs>
        <path id="DejaVuSans-32" d="M 1228 531 
L 3431 531 
L 3431 0 
L 469 0 
L 469 531 
Q 828 903 1448 1529 
Q 2069 2156 2228 2338 
Q 2531 2678 2651 2914 
Q 2772 3150 2772 3378 
Q 2772 3750 2511 3984 
Q 2250 4219 1831 4219 
Q 1534 4219 1204 4116 
Q 875 4013 500 3803 
L 500 4441 
Q 881 4594 1212 4672 
Q 1544 4750 1819 4750 
Q 2544 4750 2975 4387 
Q 3406 4025 3406 3419 
Q 3406 3131 3298 2873 
Q 3191 2616 2906 2266 
Q 2828 2175 2409 1742 
Q 1991 1309 1228 531 
z
" transform="scale(0.015625)"/>
       </defs>
       <use xlink:href="#DejaVuSans-32"/>
      </g>
     </g>
    </g>
    <g id="xtick_3">
     <g id="line2d_9">
      <path d="M 230.8608 298.944 
L 230.8608 6.912 
" clip-path="url(#p60d57823dc)" style="fill: none; stroke: #b0b0b0; stroke-width: 0.8; stroke-linecap: square"/>
     </g>
     <g id="line2d_10">
      <g>
       <use xlink:href="#me5bb86158c" x="230.8608" y="298.944" style="stroke: #000000; stroke-width: 0.8"/>
      </g>
     </g>
     <g id="text_3">
      <!-- 4 -->
      <g transform="translate(225.452675 318.861344) scale(0.17 -0.17)">
       <defs>
        <path id="DejaVuSans-34" d="M 2419 4116 
L 825 1625 
L 2419 1625 
L 2419 4116 
z
M 2253 4666 
L 3047 4666 
L 3047 1625 
L 3713 1625 
L 3713 1100 
L 3047 1100 
L 3047 0 
L 2419 0 
L 2419 1100 
L 313 1100 
L 313 1709 
L 2253 4666 
z
" transform="scale(0.015625)"/>
       </defs>
       <use xlink:href="#DejaVuSans-34"/>
      </g>
     </g>
    </g>
    <g id="xtick_4">
     <g id="line2d_11">
      <path d="M 317.4912 298.944 
L 317.4912 6.912 
" clip-path="url(#p60d57823dc)" style="fill: none; stroke: #b0b0b0; stroke-width: 0.8; stroke-linecap: square"/>
     </g>
     <g id="line2d_12">
      <g>
       <use xlink:href="#me5bb86158c" x="317.4912" y="298.944" style="stroke: #000000; stroke-width: 0.8"/>
      </g>
     </g>
     <g id="text_4">
      <!-- 6 -->
      <g transform="translate(312.083075 318.861344) scale(0.17 -0.17)">
       <defs>
        <path id="DejaVuSans-36" d="M 2113 2584 
Q 1688 2584 1439 2293 
Q 1191 2003 1191 1497 
Q 1191 994 1439 701 
Q 1688 409 2113 409 
Q 2538 409 2786 701 
Q 3034 994 3034 1497 
Q 3034 2003 2786 2293 
Q 2538 2584 2113 2584 
z
M 3366 4563 
L 3366 3988 
Q 3128 4100 2886 4159 
Q 2644 4219 2406 4219 
Q 1781 4219 1451 3797 
Q 1122 3375 1075 2522 
Q 1259 2794 1537 2939 
Q 1816 3084 2150 3084 
Q 2853 3084 3261 2657 
Q 3669 2231 3669 1497 
Q 3669 778 3244 343 
Q 2819 -91 2113 -91 
Q 1303 -91 875 529 
Q 447 1150 447 2328 
Q 447 3434 972 4092 
Q 1497 4750 2381 4750 
Q 2619 4750 2861 4703 
Q 3103 4656 3366 4563 
z
" transform="scale(0.015625)"/>
       </defs>
       <use xlink:href="#DejaVuSans-36"/>
      </g>
     </g>
    </g>
    <g id="xtick_5">
     <g id="line2d_13">
      <path d="M 100.9152 298.944 
L 100.9152 6.912 
" clip-path="url(#p60d57823dc)" style="fill: none; stroke: #b0b0b0; stroke-width: 0.8; stroke-linecap: square"/>
     </g>
     <g id="line2d_14">
      <defs>
       <path id="m116fb8aaa7" d="M 0 0 
L 0 2 
" style="stroke: #000000; stroke-width: 0.6"/>
      </defs>
      <g>
       <use xlink:href="#m116fb8aaa7" x="100.9152" y="298.944" style="stroke: #000000; stroke-width: 0.6"/>
      </g>
     </g>
    </g>
    <g id="xtick_6">
     <g id="line2d_15">
      <path d="M 187.5456 298.944 
L 187.5456 6.912 
" clip-path="url(#p60d57823dc)" style="fill: none; stroke: #b0b0b0; stroke-width: 0.8; stroke-linecap: square"/>
     </g>
     <g id="line2d_16">
      <g>
       <use xlink:href="#m116fb8aaa7" x="187.5456" y="298.944" style="stroke: #000000; stroke-width: 0.6"/>
      </g>
     </g>
    </g>
    <g id="xtick_7">
     <g id="line2d_17">
      <path d="M 274.176 298.944 
L 274.176 6.912 
" clip-path="url(#p60d57823dc)" style="fill: none; stroke: #b0b0b0; stroke-width: 0.8; stroke-linecap: square"/>
     </g>
     <g id="line2d_18">
      <g>
       <use xlink:href="#m116fb8aaa7" x="274.176" y="298.944" style="stroke: #000000; stroke-width: 0.6"/>
      </g>
     </g>
    </g>
    <g id="xtick_8">
     <g id="line2d_19">
      <path d="M 360.8064 298.944 
L 360.8064 6.912 
" clip-path="url(#p60d57823dc)" style="fill: none; stroke: #b0b0b0; stroke-width: 0.8; stroke-linecap: square"/>
     </g>
     <g id="line2d_20">
      <g>
       <use xlink:href="#m116fb8aaa7" x="360.8064" y="298.944" style="stroke: #000000; stroke-width: 0.6"/>
      </g>
     </g>
    </g>
    <g id="text_5">
     <!-- log10(# f-evals / dimension) -->
     <g transform="translate(88.823278 339.314156) scale(0.17 -0.17)">
      <defs>
       <path id="DejaVuSans-6c" d="M 603 4863 
L 1178 4863 
L 1178 0 
L 603 0 
L 603 4863 
z
" transform="scale(0.015625)"/>
       <path id="DejaVuSans-6f" d="M 1959 3097 
Q 1497 3097 1228 2736 
Q 959 2375 959 1747 
Q 959 1119 1226 758 
Q 1494 397 1959 397 
Q 2419 397 2687 759 
Q 2956 1122 2956 1747 
Q 2956 2369 2687 2733 
Q 2419 3097 1959 3097 
z
M 1959 3584 
Q 2709 3584 3137 3096 
Q 3566 2609 3566 1747 
Q 3566 888 3137 398 
Q 2709 -91 1959 -91 
Q 1206 -91 779 398 
Q 353 888 353 1747 
Q 353 2609 779 3096 
Q 1206 3584 1959 3584 
z
" transform="scale(0.015625)"/>
       <path id="DejaVuSans-67" d="M 2906 1791 
Q 2906 2416 2648 2759 
Q 2391 3103 1925 3103 
Q 1463 3103 1205 2759 
Q 947 2416 947 1791 
Q 947 1169 1205 825 
Q 1463 481 1925 481 
Q 2391 481 2648 825 
Q 2906 1169 2906 1791 
z
M 3481 434 
Q 3481 -459 3084 -895 
Q 2688 -1331 1869 -1331 
Q 1566 -1331 1297 -1286 
Q 1028 -1241 775 -1147 
L 775 -588 
Q 1028 -725 1275 -790 
Q 1522 -856 1778 -856 
Q 2344 -856 2625 -561 
Q 2906 -266 2906 331 
L 2906 616 
Q 2728 306 2450 153 
Q 2172 0 1784 0 
Q 1141 0 747 490 
Q 353 981 353 1791 
Q 353 2603 747 3093 
Q 1141 3584 1784 3584 
Q 2172 3584 2450 3431 
Q 2728 3278 2906 2969 
L 2906 3500 
L 3481 3500 
L 3481 434 
z
" transform="scale(0.015625)"/>
       <path id="DejaVuSans-31" d="M 794 531 
L 1825 531 
L 1825 4091 
L 703 3866 
L 703 4441 
L 1819 4666 
L 2450 4666 
L 2450 531 
L 3481 531 
L 3481 0 
L 794 0 
L 794 531 
z
" transform="scale(0.015625)"/>
       <path id="DejaVuSans-28" d="M 1984 4856 
Q 1566 4138 1362 3434 
Q 1159 2731 1159 2009 
Q 1159 1288 1364 580 
Q 1569 -128 1984 -844 
L 1484 -844 
Q 1016 -109 783 600 
Q 550 1309 550 2009 
Q 550 2706 781 3412 
Q 1013 4119 1484 4856 
L 1984 4856 
z
" transform="scale(0.015625)"/>
       <path id="DejaVuSans-23" d="M 3272 2816 
L 2363 2816 
L 2100 1772 
L 3016 1772 
L 3272 2816 
z
M 2803 4594 
L 2478 3297 
L 3391 3297 
L 3719 4594 
L 4219 4594 
L 3897 3297 
L 4872 3297 
L 4872 2816 
L 3775 2816 
L 3519 1772 
L 4513 1772 
L 4513 1294 
L 3397 1294 
L 3072 0 
L 2572 0 
L 2894 1294 
L 1978 1294 
L 1656 0 
L 1153 0 
L 1478 1294 
L 494 1294 
L 494 1772 
L 1594 1772 
L 1856 2816 
L 850 2816 
L 850 3297 
L 1978 3297 
L 2297 4594 
L 2803 4594 
z
" transform="scale(0.015625)"/>
       <path id="DejaVuSans-20" transform="scale(0.015625)"/>
       <path id="DejaVuSans-66" d="M 2375 4863 
L 2375 4384 
L 1825 4384 
Q 1516 4384 1395 4259 
Q 1275 4134 1275 3809 
L 1275 3500 
L 2222 3500 
L 2222 3053 
L 1275 3053 
L 1275 0 
L 697 0 
L 697 3053 
L 147 3053 
L 147 3500 
L 697 3500 
L 697 3744 
Q 697 4328 969 4595 
Q 1241 4863 1831 4863 
L 2375 4863 
z
" transform="scale(0.015625)"/>
       <path id="DejaVuSans-2d" d="M 313 2009 
L 1997 2009 
L 1997 1497 
L 313 1497 
L 313 2009 
z
" transform="scale(0.015625)"/>
       <path id="DejaVuSans-65" d="M 3597 1894 
L 3597 1613 
L 953 1613 
Q 991 1019 1311 708 
Q 1631 397 2203 397 
Q 2534 397 2845 478 
Q 3156 559 3463 722 
L 3463 178 
Q 3153 47 2828 -22 
Q 2503 -91 2169 -91 
Q 1331 -91 842 396 
Q 353 884 353 1716 
Q 353 2575 817 3079 
Q 1281 3584 2069 3584 
Q 2775 3584 3186 3129 
Q 3597 2675 3597 1894 
z
M 3022 2063 
Q 3016 2534 2758 2815 
Q 2500 3097 2075 3097 
Q 1594 3097 1305 2825 
Q 1016 2553 972 2059 
L 3022 2063 
z
" transform="scale(0.015625)"/>
       <path id="DejaVuSans-76" d="M 191 3500 
L 800 3500 
L 1894 563 
L 2988 3500 
L 3597 3500 
L 2284 0 
L 1503 0 
L 191 3500 
z
" transform="scale(0.015625)"/>
       <path id="DejaVuSans-61" d="M 2194 1759 
Q 1497 1759 1228 1600 
Q 959 1441 959 1056 
Q 959 750 1161 570 
Q 1363 391 1709 391 
Q 2188 391 2477 730 
Q 2766 1069 2766 1631 
L 2766 1759 
L 2194 1759 
z
M 3341 1997 
L 3341 0 
L 2766 0 
L 2766 531 
Q 2569 213 2275 61 
Q 1981 -91 1556 -91 
Q 1019 -91 701 211 
Q 384 513 384 1019 
Q 384 1609 779 1909 
Q 1175 2209 1959 2209 
L 2766 2209 
L 2766 2266 
Q 2766 2663 2505 2880 
Q 2244 3097 1772 3097 
Q 1472 3097 1187 3025 
Q 903 2953 641 2809 
L 641 3341 
Q 956 3463 1253 3523 
Q 1550 3584 1831 3584 
Q 2591 3584 2966 3190 
Q 3341 2797 3341 1997 
z
" transform="scale(0.015625)"/>
       <path id="DejaVuSans-73" d="M 2834 3397 
L 2834 2853 
Q 2591 2978 2328 3040 
Q 2066 3103 1784 3103 
Q 1356 3103 1142 2972 
Q 928 2841 928 2578 
Q 928 2378 1081 2264 
Q 1234 2150 1697 2047 
L 1894 2003 
Q 2506 1872 2764 1633 
Q 3022 1394 3022 966 
Q 3022 478 2636 193 
Q 2250 -91 1575 -91 
Q 1294 -91 989 -36 
Q 684 19 347 128 
L 347 722 
Q 666 556 975 473 
Q 1284 391 1588 391 
Q 1994 391 2212 530 
Q 2431 669 2431 922 
Q 2431 1156 2273 1281 
Q 2116 1406 1581 1522 
L 1381 1569 
Q 847 1681 609 1914 
Q 372 2147 372 2553 
Q 372 3047 722 3315 
Q 1072 3584 1716 3584 
Q 2034 3584 2315 3537 
Q 2597 3491 2834 3397 
z
" transform="scale(0.015625)"/>
       <path id="DejaVuSans-2f" d="M 1625 4666 
L 2156 4666 
L 531 -594 
L 0 -594 
L 1625 4666 
z
" transform="scale(0.015625)"/>
       <path id="DejaVuSans-64" d="M 2906 2969 
L 2906 4863 
L 3481 4863 
L 3481 0 
L 2906 0 
L 2906 525 
Q 2725 213 2448 61 
Q 2172 -91 1784 -91 
Q 1150 -91 751 415 
Q 353 922 353 1747 
Q 353 2572 751 3078 
Q 1150 3584 1784 3584 
Q 2172 3584 2448 3432 
Q 2725 3281 2906 2969 
z
M 947 1747 
Q 947 1113 1208 752 
Q 1469 391 1925 391 
Q 2381 391 2643 752 
Q 2906 1113 2906 1747 
Q 2906 2381 2643 2742 
Q 2381 3103 1925 3103 
Q 1469 3103 1208 2742 
Q 947 2381 947 1747 
z
" transform="scale(0.015625)"/>
       <path id="DejaVuSans-69" d="M 603 3500 
L 1178 3500 
L 1178 0 
L 603 0 
L 603 3500 
z
M 603 4863 
L 1178 4863 
L 1178 4134 
L 603 4134 
L 603 4863 
z
" transform="scale(0.015625)"/>
       <path id="DejaVuSans-6d" d="M 3328 2828 
Q 3544 3216 3844 3400 
Q 4144 3584 4550 3584 
Q 5097 3584 5394 3201 
Q 5691 2819 5691 2113 
L 5691 0 
L 5113 0 
L 5113 2094 
Q 5113 2597 4934 2840 
Q 4756 3084 4391 3084 
Q 3944 3084 3684 2787 
Q 3425 2491 3425 1978 
L 3425 0 
L 2847 0 
L 2847 2094 
Q 2847 2600 2669 2842 
Q 2491 3084 2119 3084 
Q 1678 3084 1418 2786 
Q 1159 2488 1159 1978 
L 1159 0 
L 581 0 
L 581 3500 
L 1159 3500 
L 1159 2956 
Q 1356 3278 1631 3431 
Q 1906 3584 2284 3584 
Q 2666 3584 2933 3390 
Q 3200 3197 3328 2828 
z
" transform="scale(0.015625)"/>
       <path id="DejaVuSans-6e" d="M 3513 2113 
L 3513 0 
L 2938 0 
L 2938 2094 
Q 2938 2591 2744 2837 
Q 2550 3084 2163 3084 
Q 1697 3084 1428 2787 
Q 1159 2491 1159 1978 
L 1159 0 
L 581 0 
L 581 3500 
L 1159 3500 
L 1159 2956 
Q 1366 3272 1645 3428 
Q 1925 3584 2291 3584 
Q 2894 3584 3203 3211 
Q 3513 2838 3513 2113 
z
" transform="scale(0.015625)"/>
       <path id="DejaVuSans-29" d="M 513 4856 
L 1013 4856 
Q 1481 4119 1714 3412 
Q 1947 2706 1947 2009 
Q 1947 1309 1714 600 
Q 1481 -109 1013 -844 
L 513 -844 
Q 928 -128 1133 580 
Q 1338 1288 1338 2009 
Q 1338 2731 1133 3434 
Q 928 4138 513 4856 
z
" transform="scale(0.015625)"/>
      </defs>
      <use xlink:href="#DejaVuSans-6c"/>
      <use xlink:href="#DejaVuSans-6f" x="27.783203"/>
      <use xlink:href="#DejaVuSans-67" x="88.964844"/>
      <use xlink:href="#DejaVuSans-31" x="152.441406"/>
      <use xlink:href="#DejaVuSans-30" x="216.064453"/>
      <use xlink:href="#DejaVuSans-28" x="279.6875"/>
      <use xlink:href="#DejaVuSans-23" x="318.701172"/>
      <use xlink:href="#DejaVuSans-20" x="402.490234"/>
      <use xlink:href="#DejaVuSans-66" x="434.277344"/>
      <use xlink:href="#DejaVuSans-2d" x="463.982422"/>
      <use xlink:href="#DejaVuSans-65" x="500.066406"/>
      <use xlink:href="#DejaVuSans-76" x="561.589844"/>
      <use xlink:href="#DejaVuSans-61" x="620.769531"/>
      <use xlink:href="#DejaVuSans-6c" x="682.048828"/>
      <use xlink:href="#DejaVuSans-73" x="709.832031"/>
      <use xlink:href="#DejaVuSans-20" x="761.931641"/>
      <use xlink:href="#DejaVuSans-2f" x="793.71875"/>
      <use xlink:href="#DejaVuSans-20" x="827.410156"/>
      <use xlink:href="#DejaVuSans-64" x="859.197266"/>
      <use xlink:href="#DejaVuSans-69" x="922.673828"/>
      <use xlink:href="#DejaVuSans-6d" x="950.457031"/>
      <use xlink:href="#DejaVuSans-65" x="1047.869141"/>
      <use xlink:href="#DejaVuSans-6e" x="1109.392578"/>
      <use xlink:href="#DejaVuSans-73" x="1172.771484"/>
      <use xlink:href="#DejaVuSans-69" x="1224.871094"/>
      <use xlink:href="#DejaVuSans-6f" x="1252.654297"/>
      <use xlink:href="#DejaVuSans-6e" x="1313.835938"/>
      <use xlink:href="#DejaVuSans-29" x="1377.214844"/>
     </g>
    </g>
   </g>
   <g id="matplotlib.axis_2">
    <g id="ytick_1">
     <g id="line2d_21">
      <path d="M 57.6 298.944 
L 360.8064 298.944 
" clip-path="url(#p60d57823dc)" style="fill: none; stroke: #b0b0b0; stroke-width: 0.8; stroke-linecap: square"/>
     </g>
     <g id="line2d_22">
      <defs>
       <path id="m67049184a5" d="M 0 0 
L -3.5 0 
" style="stroke: #000000; stroke-width: 0.8"/>
      </defs>
      <g>
       <use xlink:href="#m67049184a5" x="57.6" y="298.944" style="stroke: #000000; stroke-width: 0.8"/>
      </g>
     </g>
     <g id="text_6">
      <!-- 0.0 -->
      <g transform="translate(25.155 305.02275) scale(0.16 -0.16)">
       <defs>
        <path id="DejaVuSans-2e" d="M 684 794 
L 1344 794 
L 1344 0 
L 684 0 
L 684 794 
z
" transform="scale(0.015625)"/>
       </defs>
       <use xlink:href="#DejaVuSans-30"/>
       <use xlink:href="#DejaVuSans-2e" x="63.623047"/>
       <use xlink:href="#DejaVuSans-30" x="95.410156"/>
      </g>
     </g>
    </g>
    <g id="ytick_2">
     <g id="line2d_23">
      <path d="M 57.6 240.5376 
L 360.8064 240.5376 
" clip-path="url(#p60d57823dc)" style="fill: none; stroke: #b0b0b0; stroke-width: 0.8; stroke-linecap: square"/>
     </g>
     <g id="line2d_24">
      <g>
       <use xlink:href="#m67049184a5" x="57.6" y="240.5376" style="stroke: #000000; stroke-width: 0.8"/>
      </g>
     </g>
     <g id="text_7">
      <!-- 0.2 -->
      <g transform="translate(25.155 246.61635) scale(0.16 -0.16)">
       <use xlink:href="#DejaVuSans-30"/>
       <use xlink:href="#DejaVuSans-2e" x="63.623047"/>
       <use xlink:href="#DejaVuSans-32" x="95.410156"/>
      </g>
     </g>
    </g>
    <g id="ytick_3">
     <g id="line2d_25">
      <path d="M 57.6 182.1312 
L 360.8064 182.1312 
" clip-path="url(#p60d57823dc)" style="fill: none; stroke: #b0b0b0; stroke-width: 0.8; stroke-linecap: square"/>
     </g>
     <g id="line2d_26">
      <g>
       <use xlink:href="#m67049184a5" x="57.6" y="182.1312" style="stroke: #000000; stroke-width: 0.8"/>
      </g>
     </g>
     <g id="text_8">
      <!-- 0.4 -->
      <g transform="translate(25.155 188.20995) scale(0.16 -0.16)">
       <use xlink:href="#DejaVuSans-30"/>
       <use xlink:href="#DejaVuSans-2e" x="63.623047"/>
       <use xlink:href="#DejaVuSans-34" x="95.410156"/>
      </g>
     </g>
    </g>
    <g id="ytick_4">
     <g id="line2d_27">
      <path d="M 57.6 123.7248 
L 360.8064 123.7248 
" clip-path="url(#p60d57823dc)" style="fill: none; stroke: #b0b0b0; stroke-width: 0.8; stroke-linecap: square"/>
     </g>
     <g id="line2d_28">
      <g>
       <use xlink:href="#m67049184a5" x="57.6" y="123.7248" style="stroke: #000000; stroke-width: 0.8"/>
      </g>
     </g>
     <g id="text_9">
      <!-- 0.6 -->
      <g transform="translate(25.155 129.80355) scale(0.16 -0.16)">
       <use xlink:href="#DejaVuSans-30"/>
       <use xlink:href="#DejaVuSans-2e" x="63.623047"/>
       <use xlink:href="#DejaVuSans-36" x="95.410156"/>
      </g>
     </g>
    </g>
    <g id="ytick_5">
     <g id="line2d_29">
      <path d="M 57.6 65.3184 
L 360.8064 65.3184 
" clip-path="url(#p60d57823dc)" style="fill: none; stroke: #b0b0b0; stroke-width: 0.8; stroke-linecap: square"/>
     </g>
     <g id="line2d_30">
      <g>
       <use xlink:href="#m67049184a5" x="57.6" y="65.3184" style="stroke: #000000; stroke-width: 0.8"/>
      </g>
     </g>
     <g id="text_10">
      <!-- 0.8 -->
      <g transform="translate(25.155 71.39715) scale(0.16 -0.16)">
       <defs>
        <path id="DejaVuSans-38" d="M 2034 2216 
Q 1584 2216 1326 1975 
Q 1069 1734 1069 1313 
Q 1069 891 1326 650 
Q 1584 409 2034 409 
Q 2484 409 2743 651 
Q 3003 894 3003 1313 
Q 3003 1734 2745 1975 
Q 2488 2216 2034 2216 
z
M 1403 2484 
Q 997 2584 770 2862 
Q 544 3141 544 3541 
Q 544 4100 942 4425 
Q 1341 4750 2034 4750 
Q 2731 4750 3128 4425 
Q 3525 4100 3525 3541 
Q 3525 3141 3298 2862 
Q 3072 2584 2669 2484 
Q 3125 2378 3379 2068 
Q 3634 1759 3634 1313 
Q 3634 634 3220 271 
Q 2806 -91 2034 -91 
Q 1263 -91 848 271 
Q 434 634 434 1313 
Q 434 1759 690 2068 
Q 947 2378 1403 2484 
z
M 1172 3481 
Q 1172 3119 1398 2916 
Q 1625 2713 2034 2713 
Q 2441 2713 2670 2916 
Q 2900 3119 2900 3481 
Q 2900 3844 2670 4047 
Q 2441 4250 2034 4250 
Q 1625 4250 1398 4047 
Q 1172 3844 1172 3481 
z
" transform="scale(0.015625)"/>
       </defs>
       <use xlink:href="#DejaVuSans-30"/>
       <use xlink:href="#DejaVuSans-2e" x="63.623047"/>
       <use xlink:href="#DejaVuSans-38" x="95.410156"/>
      </g>
     </g>
    </g>
    <g id="ytick_6">
     <g id="line2d_31">
      <path d="M 57.6 6.912 
L 360.8064 6.912 
" clip-path="url(#p60d57823dc)" style="fill: none; stroke: #b0b0b0; stroke-width: 0.8; stroke-linecap: square"/>
     </g>
     <g id="line2d_32">
      <g>
       <use xlink:href="#m67049184a5" x="57.6" y="6.912" style="stroke: #000000; stroke-width: 0.8"/>
      </g>
     </g>
     <g id="text_11">
      <!-- 1.0 -->
      <g transform="translate(25.155 12.99075) scale(0.16 -0.16)">
       <use xlink:href="#DejaVuSans-31"/>
       <use xlink:href="#DejaVuSans-2e" x="63.623047"/>
       <use xlink:href="#DejaVuSans-30" x="95.410156"/>
      </g>
     </g>
    </g>
    <g id="text_12">
     <!-- Fraction of function,target pairs -->
     <g transform="translate(17.619531 287.313) rotate(-90) scale(0.17 -0.17)">
      <defs>
       <path id="DejaVuSans-46" d="M 628 4666 
L 3309 4666 
L 3309 4134 
L 1259 4134 
L 1259 2759 
L 3109 2759 
L 3109 2228 
L 1259 2228 
L 1259 0 
L 628 0 
L 628 4666 
z
" transform="scale(0.015625)"/>
       <path id="DejaVuSans-72" d="M 2631 2963 
Q 2534 3019 2420 3045 
Q 2306 3072 2169 3072 
Q 1681 3072 1420 2755 
Q 1159 2438 1159 1844 
L 1159 0 
L 581 0 
L 581 3500 
L 1159 3500 
L 1159 2956 
Q 1341 3275 1631 3429 
Q 1922 3584 2338 3584 
Q 2397 3584 2469 3576 
Q 2541 3569 2628 3553 
L 2631 2963 
z
" transform="scale(0.015625)"/>
       <path id="DejaVuSans-63" d="M 3122 3366 
L 3122 2828 
Q 2878 2963 2633 3030 
Q 2388 3097 2138 3097 
Q 1578 3097 1268 2742 
Q 959 2388 959 1747 
Q 959 1106 1268 751 
Q 1578 397 2138 397 
Q 2388 397 2633 464 
Q 2878 531 3122 666 
L 3122 134 
Q 2881 22 2623 -34 
Q 2366 -91 2075 -91 
Q 1284 -91 818 406 
Q 353 903 353 1747 
Q 353 2603 823 3093 
Q 1294 3584 2113 3584 
Q 2378 3584 2631 3529 
Q 2884 3475 3122 3366 
z
" transform="scale(0.015625)"/>
       <path id="DejaVuSans-74" d="M 1172 4494 
L 1172 3500 
L 2356 3500 
L 2356 3053 
L 1172 3053 
L 1172 1153 
Q 1172 725 1289 603 
Q 1406 481 1766 481 
L 2356 481 
L 2356 0 
L 1766 0 
Q 1100 0 847 248 
Q 594 497 594 1153 
L 594 3053 
L 172 3053 
L 172 3500 
L 594 3500 
L 594 4494 
L 1172 4494 
z
" transform="scale(0.015625)"/>
       <path id="DejaVuSans-75" d="M 544 1381 
L 544 3500 
L 1119 3500 
L 1119 1403 
Q 1119 906 1312 657 
Q 1506 409 1894 409 
Q 2359 409 2629 706 
Q 2900 1003 2900 1516 
L 2900 3500 
L 3475 3500 
L 3475 0 
L 2900 0 
L 2900 538 
Q 2691 219 2414 64 
Q 2138 -91 1772 -91 
Q 1169 -91 856 284 
Q 544 659 544 1381 
z
M 1991 3584 
L 1991 3584 
z
" transform="scale(0.015625)"/>
       <path id="DejaVuSans-2c" d="M 750 794 
L 1409 794 
L 1409 256 
L 897 -744 
L 494 -744 
L 750 256 
L 750 794 
z
" transform="scale(0.015625)"/>
       <path id="DejaVuSans-70" d="M 1159 525 
L 1159 -1331 
L 581 -1331 
L 581 3500 
L 1159 3500 
L 1159 2969 
Q 1341 3281 1617 3432 
Q 1894 3584 2278 3584 
Q 2916 3584 3314 3078 
Q 3713 2572 3713 1747 
Q 3713 922 3314 415 
Q 2916 -91 2278 -91 
Q 1894 -91 1617 61 
Q 1341 213 1159 525 
z
M 3116 1747 
Q 3116 2381 2855 2742 
Q 2594 3103 2138 3103 
Q 1681 3103 1420 2742 
Q 1159 2381 1159 1747 
Q 1159 1113 1420 752 
Q 1681 391 2138 391 
Q 2594 391 2855 752 
Q 3116 1113 3116 1747 
z
" transform="scale(0.015625)"/>
      </defs>
      <use xlink:href="#DejaVuSans-46"/>
      <use xlink:href="#DejaVuSans-72" x="50.269531"/>
      <use xlink:href="#DejaVuSans-61" x="91.382812"/>
      <use xlink:href="#DejaVuSans-63" x="152.662109"/>
      <use xlink:href="#DejaVuSans-74" x="207.642578"/>
      <use xlink:href="#DejaVuSans-69" x="246.851562"/>
      <use xlink:href="#DejaVuSans-6f" x="274.634766"/>
      <use xlink:href="#DejaVuSans-6e" x="335.816406"/>
      <use xlink:href="#DejaVuSans-20" x="399.195312"/>
      <use xlink:href="#DejaVuSans-6f" x="430.982422"/>
      <use xlink:href="#DejaVuSans-66" x="492.164062"/>
      <use xlink:href="#DejaVuSans-20" x="527.369141"/>
      <use xlink:href="#DejaVuSans-66" x="559.15625"/>
      <use xlink:href="#DejaVuSans-75" x="594.361328"/>
      <use xlink:href="#DejaVuSans-6e" x="657.740234"/>
      <use xlink:href="#DejaVuSans-63" x="721.119141"/>
      <use xlink:href="#DejaVuSans-74" x="776.099609"/>
      <use xlink:href="#DejaVuSans-69" x="815.308594"/>
      <use xlink:href="#DejaVuSans-6f" x="843.091797"/>
      <use xlink:href="#DejaVuSans-6e" x="904.273438"/>
      <use xlink:href="#DejaVuSans-2c" x="967.652344"/>
      <use xlink:href="#DejaVuSans-74" x="999.439453"/>
      <use xlink:href="#DejaVuSans-61" x="1038.648438"/>
      <use xlink:href="#DejaVuSans-72" x="1099.927734"/>
      <use xlink:href="#DejaVuSans-67" x="1139.291016"/>
      <use xlink:href="#DejaVuSans-65" x="1202.767578"/>
      <use xlink:href="#DejaVuSans-74" x="1264.291016"/>
      <use xlink:href="#DejaVuSans-20" x="1303.5"/>
      <use xlink:href="#DejaVuSans-70" x="1335.287109"/>
      <use xlink:href="#DejaVuSans-61" x="1398.763672"/>
      <use xlink:href="#DejaVuSans-69" x="1460.042969"/>
      <use xlink:href="#DejaVuSans-72" x="1487.826172"/>
      <use xlink:href="#DejaVuSans-73" x="1528.939453"/>
     </g>
    </g>
   </g>
   <g id="line2d_33">
    <defs>
     <path id="m17f4f45fa3" d="M 0 1.5 
C 0.397805 1.5 0.77937 1.341951 1.06066 1.06066 
C 1.341951 0.77937 1.5 0.397805 1.5 0 
C 1.5 -0.397805 1.341951 -0.77937 1.06066 -1.06066 
C 0.77937 -1.341951 0.397805 -1.5 0 -1.5 
C -0.397805 -1.5 -0.77937 -1.341951 -1.06066 -1.06066 
C -1.341951 -0.77937 -1.5 -0.397805 -1.5 0 
C -1.5 0.397805 -1.341951 0.77937 -1.06066 1.06066 
C -0.77937 1.341951 -0.397805 1.5 0 1.5 
z
" style="stroke: #f5deb3"/>
    </defs>
    <g>
     <use xlink:href="#m17f4f45fa3" x="268.347164" y="42.157241" style="fill: #f5deb3; stroke: #f5deb3"/>
     <use xlink:href="#m17f4f45fa3" x="268.347164" y="42.157241" style="fill: #f5deb3; stroke: #f5deb3"/>
    </g>
   </g>
   <g id="line2d_34">
    <defs>
     <path id="m6a91b82c66" d="M 0 1.5 
C 0.397805 1.5 0.77937 1.341951 1.06066 1.06066 
C 1.341951 0.77937 1.5 0.397805 1.5 0 
C 1.5 -0.397805 1.341951 -0.77937 1.06066 -1.06066 
C 0.77937 -1.341951 0.397805 -1.5 0 -1.5 
C -0.397805 -1.5 -0.77937 -1.341951 -1.06066 -1.06066 
C -1.341951 -0.77937 -1.5 -0.397805 -1.5 0 
C -1.5 0.397805 -1.341951 0.77937 -1.06066 1.06066 
C -0.77937 1.341951 -0.397805 1.5 0 1.5 
z
" style="stroke: #000080"/>
    </defs>
    <g>
     <use xlink:href="#m6a91b82c66" x="201.507967" y="140.592166" style="fill: #000080; stroke: #000080"/>
     <use xlink:href="#m6a91b82c66" x="201.507967" y="140.592166" style="fill: #000080; stroke: #000080"/>
    </g>
   </g>
   <g id="line2d_35">
    <path d="M 27.323974 298.944 
L 27.323974 292.524331 
L 40.363149 292.524331 
L 40.363149 290.13269 
L 66.441498 290.13269 
L 66.441498 289.251559 
L 76.96874 289.251559 
L 76.96874 285.223531 
L 83.678349 285.223531 
L 83.678349 283.461269 
L 88.613828 283.461269 
L 88.613828 282.454262 
L 92.519847 282.454262 
L 92.519847 281.195503 
L 95.752617 281.195503 
L 95.752617 279.936745 
L 98.510456 279.936745 
L 98.510456 278.803862 
L 100.9152 278.803862 
L 100.9152 278.677986 
L 103.047088 278.677986 
L 103.047088 278.048607 
L 104.961779 278.048607 
L 104.961779 277.419228 
L 105.559021 277.419228 
L 105.559021 275.908717 
L 106.137884 275.908717 
L 106.137884 275.405214 
L 106.699465 275.405214 
L 106.699465 275.279338 
L 107.244765 275.279338 
L 107.244765 275.027586 
L 108.29012 275.027586 
L 108.29012 274.775834 
L 108.791791 274.775834 
L 108.791791 274.146455 
L 109.280431 274.146455 
L 109.280431 273.3912 
L 109.756698 273.3912 
L 109.756698 272.887697 
L 110.221204 272.887697 
L 110.221204 270.873683 
L 110.674517 270.873683 
L 110.674517 270.496055 
L 111.762192 270.496055 
L 111.762192 270.370179 
L 112.180244 270.370179 
L 112.180244 270.244303 
L 112.385837 270.244303 
L 112.385837 270.118428 
L 112.589207 270.118428 
L 112.589207 269.866676 
L 113.381389 269.866676 
L 113.381389 269.614924 
L 113.765312 269.614924 
L 113.765312 269.489048 
L 113.954374 269.489048 
L 113.954374 269.363172 
L 114.326893 269.363172 
L 114.326893 269.111421 
L 114.510421 269.111421 
L 114.510421 268.985545 
L 115.050503 268.985545 
L 115.050503 267.852662 
L 115.227139 267.852662 
L 115.227139 267.726786 
L 115.747307 267.726786 
L 115.747307 267.349159 
L 116.583514 267.349159 
L 116.583514 266.971531 
L 117.067958 266.971531 
L 117.067958 266.593903 
L 117.226706 266.593903 
L 117.226706 266.342152 
L 117.540239 266.342152 
L 117.540239 265.964524 
L 118.152051 265.964524 
L 118.152051 265.586897 
L 118.450653 265.586897 
L 118.450653 265.461021 
L 118.889854 265.461021 
L 118.889854 264.831641 
L 119.034004 264.831641 
L 119.034004 264.328138 
L 119.459944 264.328138 
L 119.459944 263.824634 
L 119.599808 263.824634 
L 119.599808 263.698759 
L 119.738639 263.698759 
L 119.738639 263.447007 
L 119.876453 263.447007 
L 119.876453 262.943503 
L 120.013265 262.943503 
L 120.013265 262.691752 
L 120.149089 262.691752 
L 120.149089 261.936497 
L 120.41783 261.936497 
L 120.41783 261.558869 
L 120.550775 261.558869 
L 120.550775 261.432993 
L 120.682786 261.432993 
L 120.682786 261.055366 
L 121.201758 261.055366 
L 121.201758 260.803614 
L 121.581803 260.803614 
L 121.581803 260.677738 
L 121.706797 260.677738 
L 121.706797 260.425986 
L 121.954321 260.425986 
L 121.954321 260.30011 
L 122.19863 260.30011 
L 122.19863 259.922483 
L 122.559246 259.922483 
L 122.559246 259.796607 
L 122.795872 259.796607 
L 122.795872 259.670731 
L 122.913079 259.670731 
L 122.913079 259.544855 
L 123.145323 259.544855 
L 123.145323 259.167228 
L 123.601383 259.167228 
L 123.601383 258.7896 
L 123.825333 258.7896 
L 123.825333 258.663724 
L 124.156336 258.663724 
L 124.265389 258.286097 
L 124.373813 258.286097 
L 124.373813 258.160221 
L 124.588805 258.160221 
L 124.588805 257.782593 
L 125.011554 257.782593 
L 125.115773 257.27909 
L 125.322496 257.27909 
L 125.425011 256.901462 
L 125.526971 256.901462 
L 125.526971 256.775586 
L 125.829577 256.775586 
L 125.829577 256.64971 
L 126.028642 256.64971 
L 126.028642 256.523834 
L 126.225624 256.523834 
L 126.225624 256.020331 
L 126.420564 256.020331 
L 126.420564 255.768579 
L 126.709238 255.768579 
L 126.709238 254.635697 
L 126.993549 254.635697 
L 126.993549 254.509821 
L 127.18073 254.509821 
L 127.18073 254.132193 
L 127.549596 254.132193 
L 127.640693 252.747559 
L 128.354013 252.747559 
L 128.441306 251.866428 
L 128.528195 251.866428 
L 128.528195 251.4888 
L 128.871795 251.4888 
L 128.871795 250.859421 
L 129.041269 250.859421 
L 129.041269 250.733545 
L 129.292652 250.733545 
L 129.292652 250.355917 
L 129.54072 250.355917 
L 129.622688 250.104166 
L 130.027253 250.104166 
L 130.027253 249.97829 
L 130.265881 249.97829 
L 130.344755 249.726538 
L 130.579414 249.726538 
L 130.656987 249.34891 
L 130.734242 249.34891 
L 130.734242 249.223034 
L 130.887807 249.223034 
L 130.964122 248.593655 
L 131.341119 248.593655 
L 131.41562 248.216028 
L 131.489828 248.216028 
L 131.563744 247.586648 
L 131.63737 247.586648 
L 131.71071 247.083145 
L 132.073179 247.083145 
L 132.073179 246.957269 
L 132.358208 246.957269 
L 132.358208 246.831393 
L 132.777813 246.831393 
L 132.777813 246.705517 
L 132.915628 246.705517 
L 132.915628 246.453766 
L 133.05244 246.453766 
L 133.05244 245.572634 
L 133.25581 245.572634 
L 133.323114 245.069131 
L 133.457005 245.069131 
L 133.457005 244.691503 
L 133.589949 244.691503 
L 133.589949 244.439752 
L 133.853052 244.439752 
L 133.918257 244.062124 
L 133.983236 244.062124 
L 133.983236 243.684497 
L 134.240933 243.684497 
L 134.304809 242.929241 
L 134.431915 242.929241 
L 134.431915 242.803366 
L 134.683578 242.803366 
L 134.745971 242.425738 
L 135.35878 242.425738 
L 135.35878 242.299862 
L 135.478982 242.299862 
L 135.478982 242.173986 
L 135.657857 242.173986 
L 135.657857 241.292855 
L 135.776169 241.292855 
L 135.776169 241.041103 
L 136.010584 241.041103 
L 136.068734 240.285848 
L 136.184497 240.285848 
L 136.184497 239.908221 
L 136.299553 239.908221 
L 136.299553 239.656469 
L 136.696795 239.656469 
L 136.752866 239.278841 
L 136.92008 239.278841 
L 137.030737 238.271834 
L 137.140746 238.271834 
L 137.250116 238.020083 
L 137.304564 238.020083 
L 137.358854 237.642455 
L 137.574461 237.642455 
L 137.574461 237.390703 
L 137.893309 237.390703 
L 137.998402 236.509572 
L 138.10291 236.509572 
L 138.10291 236.006069 
L 138.36167 236.006069 
L 138.464186 235.628441 
L 138.768422 235.628441 
L 138.868751 235.124938 
L 139.117256 235.124938 
L 139.215746 234.74731 
L 139.313723 234.74731 
L 139.362521 233.992055 
L 139.556456 233.992055 
L 139.556456 233.866179 
L 139.796097 233.866179 
L 139.796097 233.740303 
L 139.985636 233.740303 
L 140.032723 233.2368 
L 140.126547 233.2368 
L 140.126547 233.110924 
L 140.49723 233.110924 
L 140.58877 232.481545 
L 140.634374 232.481545 
L 140.725251 231.348662 
L 140.770526 231.348662 
L 140.770526 231.222786 
L 140.950542 231.222786 
L 141.039908 230.467531 
L 141.128852 230.467531 
L 141.217377 229.964028 
L 141.48048 229.964028 
L 141.48048 229.460524 
L 141.739954 229.460524 
L 141.739954 229.334648 
L 141.910969 229.334648 
L 141.995897 229.082897 
L 142.206555 229.082897 
L 142.248405 228.579393 
L 142.41488 228.579393 
L 142.41488 228.327641 
L 142.579895 228.327641 
L 142.579895 227.824138 
L 142.702713 227.824138 
L 142.702713 227.698262 
L 142.945969 227.698262 
L 142.945969 227.572386 
L 143.305055 227.572386 
L 143.38393 226.943007 
L 143.423243 226.943007 
L 143.423243 226.817131 
L 143.540694 226.817131 
L 143.540694 225.306621 
L 143.657415 225.306621 
L 143.696162 224.803117 
L 143.773417 224.803117 
L 143.850356 224.42549 
L 144.380294 224.42549 
L 144.454795 224.173738 
L 144.602918 224.173738 
L 144.639767 223.79611 
L 145.004344 223.79611 
L 145.004344 223.670234 
L 145.397382 223.670234 
L 145.503164 223.166731 
L 145.782376 223.166731 
L 145.851536 222.914979 
L 145.920443 222.914979 
L 145.920443 222.663228 
L 146.193574 222.663228 
L 146.193574 222.537352 
L 146.328666 222.537352 
L 146.429353 222.033848 
L 146.924857 222.033848 
L 146.989949 221.782097 
L 147.375841 221.782097 
L 147.407644 221.278593 
L 147.691478 221.278593 
L 147.691478 221.152717 
L 147.971093 221.152717 
L 147.971093 221.026841 
L 148.216198 221.026841 
L 148.246613 220.649214 
L 148.337564 220.649214 
L 148.337564 220.523338 
L 148.815343 220.523338 
L 148.815343 220.271586 
L 149.049758 220.271586 
L 149.078856 219.642207 
L 149.252502 219.642207 
L 149.31003 219.390455 
L 149.395993 219.390455 
L 149.395993 219.138703 
L 149.538397 219.138703 
L 149.623325 218.509324 
L 149.707872 218.509324 
L 149.79204 218.131697 
L 149.820013 218.131697 
L 149.847944 217.754069 
L 150.069911 217.754069 
L 150.152479 216.998814 
L 150.425115 216.998814 
L 150.533072 215.991807 
L 150.58682 215.991807 
L 150.640414 215.614179 
L 150.800286 215.614179 
L 150.800286 215.236552 
L 150.985103 215.236552 
L 151.089903 214.858924 
L 151.194122 214.858924 
L 151.246016 214.607172 
L 151.32359 214.607172 
L 151.32359 214.481297 
L 151.452172 214.481297 
L 151.50336 213.851917 
L 151.60532 213.851917 
L 151.681429 213.348414 
L 151.832729 213.348414 
L 151.832729 213.222538 
L 152.007722 213.222538 
L 152.007722 212.970786 
L 152.15643 212.970786 
L 152.15643 212.84491 
L 152.450367 212.84491 
L 152.547334 212.341407 
L 153.02481 212.341407 
L 153.02481 211.712028 
L 153.212458 211.712028 
L 153.212458 211.3344 
L 153.490466 211.3344 
L 153.58223 210.705021 
L 153.673549 210.705021 
L 153.741748 210.327393 
L 153.787077 210.327393 
L 153.787077 209.82389 
L 153.967309 209.82389 
L 153.967309 209.698014 
L 154.300658 209.698014 
L 154.366625 209.320386 
L 154.584859 209.320386 
L 154.584859 209.068634 
L 154.757642 209.068634 
L 154.757642 208.942759 
L 154.928852 208.942759 
L 155.013876 208.439255 
L 155.077392 208.439255 
L 155.077392 208.187503 
L 155.536743 208.187503 
L 155.536743 207.809876 
L 155.660098 207.809876 
L 155.721473 206.802869 
L 156.045469 206.802869 
L 156.125604 205.795862 
L 156.165543 205.795862 
L 156.165543 205.54411 
L 156.34423 205.54411 
L 156.423104 204.914731 
L 156.927882 204.914731 
L 157.023421 204.285352 
L 157.04247 204.285352 
L 157.04247 204.159476 
L 157.213055 204.159476 
L 157.231914 203.655972 
L 157.325925 203.655972 
L 157.419468 203.278345 
L 158.025456 203.278345 
L 158.061563 202.648966 
L 158.169469 202.648966 
L 158.187393 202.145462 
L 158.347948 202.145462 
L 158.436556 201.89371 
L 158.471883 201.89371 
L 158.542339 201.264331 
L 158.665004 201.264331 
L 158.665004 201.012579 
L 158.907961 201.012579 
L 158.907961 200.886703 
L 159.079601 200.886703 
L 159.130788 200.509076 
L 159.266613 200.509076 
L 159.367841 199.124441 
L 159.418251 199.124441 
L 159.485256 198.495062 
L 159.535354 198.495062 
L 159.535354 198.369186 
L 159.898714 198.369186 
L 159.980326 197.991559 
L 160.029123 197.991559 
L 160.093991 197.488055 
L 160.399093 197.488055 
L 160.399093 197.362179 
L 160.746296 197.362179 
L 160.855439 196.7328 
L 160.902022 196.7328 
L 160.902022 196.606924 
L 161.17912 196.606924 
L 161.224909 196.103421 
L 161.406958 196.103421 
L 161.406958 195.977545 
L 161.661881 195.977545 
L 161.736206 195.348166 
L 161.88398 195.348166 
L 161.88398 195.096414 
L 162.11803 195.096414 
L 162.17609 194.718786 
L 162.478002 194.718786 
L 162.520739 194.341159 
L 162.817213 194.341159 
L 162.859187 193.963531 
L 162.956765 193.963531 
L 163.026155 193.334152 
L 163.095289 193.334152 
L 163.191653 192.956524 
L 163.464289 192.956524 
L 163.464289 192.704772 
L 163.639407 192.704772 
L 163.65281 192.201269 
L 163.759694 192.201269 
L 163.82619 191.823641 
L 164.102932 191.823641 
L 164.102932 191.57189 
L 164.233297 191.57189 
L 164.324018 191.194262 
L 164.388551 191.194262 
L 164.440019 190.816634 
L 164.695268 190.816634 
L 164.720604 190.439007 
L 164.80901 190.439007 
L 164.859342 189.809628 
L 164.934588 189.809628 
L 164.972099 189.432 
L 165.084184 189.432 
L 165.084184 189.054372 
L 165.257222 189.054372 
L 165.343147 188.802621 
L 165.404283 188.802621 
L 165.50169 188.299117 
L 165.538087 188.299117 
L 165.538087 188.047366 
L 165.92201 188.047366 
L 166.028591 187.29211 
L 166.040396 187.29211 
L 166.146311 186.662731 
L 166.251633 186.662731 
L 166.251633 186.285103 
L 166.632844 186.285103 
L 166.724107 186.033352 
L 167.028891 186.033352 
L 167.028891 185.907476 
L 167.284683 185.907476 
L 167.383837 184.900469 
L 167.4058 184.900469 
L 167.48247 184.019338 
L 167.54794 184.019338 
L 167.558829 183.767586 
L 167.775305 183.767586 
L 167.786064 183.515834 
L 167.904005 183.515834 
L 167.999955 182.760579 
L 168.200924 182.760579 
L 168.200924 182.634703 
L 168.326754 182.634703 
L 168.326754 182.382952 
L 168.617126 182.382952 
L 168.658244 181.753572 
L 168.79126 181.753572 
L 168.892945 181.124193 
L 168.943582 181.124193 
L 169.014245 180.494814 
L 169.204718 180.494814 
L 169.294273 179.739559 
L 169.32403 179.739559 
L 169.422883 178.732552 
L 169.531024 178.732552 
L 169.628797 177.977297 
L 169.774511 177.977297 
L 169.803519 176.844414 
L 169.899889 176.844414 
L 170.00533 176.34091 
L 170.062595 176.34091 
L 170.062595 176.215034 
L 170.411929 176.215034 
L 170.430628 175.585655 
L 170.625857 175.585655 
L 170.672043 175.333903 
L 170.791599 175.333903 
L 170.864796 174.8304 
L 170.946803 174.8304 
L 171.046551 174.201021 
L 171.217608 174.201021 
L 171.307016 173.697517 
L 171.333756 173.697517 
L 171.440338 172.69051 
L 171.607866 172.69051 
L 171.71291 172.061131 
L 171.860725 172.061131 
L 171.947136 171.557628 
L 172.237998 171.557628 
L 172.237998 170.928248 
L 172.373333 170.928248 
L 172.449034 169.795366 
L 172.516068 169.795366 
L 172.624492 169.04011 
L 172.71575 169.04011 
L 172.773594 168.662483 
L 172.872342 168.662483 
L 172.937888 168.033103 
L 173.03578 168.033103 
L 173.133165 167.5296 
L 173.157433 167.5296 
L 173.205875 167.026097 
L 173.430302 167.026097 
L 173.478047 166.774345 
L 173.541519 166.774345 
L 173.565266 166.522593 
L 173.855707 166.522593 
L 173.879061 166.144966 
L 174.103333 166.144966 
L 174.103333 166.01909 
L 174.423472 166.01909 
L 174.446132 165.515586 
L 174.648853 165.515586 
L 174.745685 165.012083 
L 174.79762 165.012083 
L 174.79762 164.760331 
L 174.923154 164.760331 
L 174.937868 164.382703 
L 175.069777 164.382703 
L 175.178998 163.501572 
L 175.186257 163.501572 
L 175.186257 163.375697 
L 175.445731 163.375697 
L 175.445731 163.249821 
L 175.588351 163.249821 
L 175.65218 162.998069 
L 175.77919 162.998069 
L 175.77919 162.872193 
L 176.058402 162.872193 
L 176.058402 162.746317 
L 176.217092 162.746317 
L 176.217092 162.620441 
L 176.340357 162.620441 
L 176.442464 162.36869 
L 176.55752 162.36869 
L 176.55752 162.116938 
L 176.725451 162.116938 
L 176.792206 161.487559 
L 177.10282 161.487559 
L 177.155184 161.235807 
L 177.421282 161.235807 
L 177.434167 160.984055 
L 177.575318 160.984055 
L 177.575318 160.858179 
L 177.721762 160.858179 
L 177.816658 160.102924 
L 178.005027 160.102924 
L 178.104724 159.725297 
L 178.277932 159.725297 
L 178.382322 159.347669 
L 178.412915 159.347669 
L 178.419027 159.095917 
L 178.5712 159.095917 
L 178.655883 158.592414 
L 178.722153 158.592414 
L 178.80616 158.214786 
L 179.026389 158.214786 
L 179.026389 158.08891 
L 179.150247 158.08891 
L 179.150247 157.963034 
L 179.296641 157.963034 
L 179.331607 157.459531 
L 179.522765 157.459531 
L 179.631951 157.207779 
L 179.643407 157.207779 
L 179.660579 156.830152 
L 179.774658 156.830152 
L 179.854104 156.5784 
L 179.967018 156.5784 
L 179.967018 156.452524 
L 180.112802 156.452524 
L 180.112802 156.326648 
L 180.240829 156.326648 
L 180.268546 156.074897 
L 180.3735 156.074897 
L 180.472392 155.571393 
L 180.559863 155.571393 
L 180.559863 155.445517 
L 180.814479 155.445517 
L 180.835991 155.06789 
L 180.943179 155.06789 
L 180.943179 154.942014 
L 181.150457 154.942014 
L 181.161025 154.690262 
L 181.371153 154.690262 
L 181.371153 154.43851 
L 181.496113 154.43851 
L 181.589291 154.186759 
L 181.712814 154.186759 
L 181.712814 153.935007 
L 181.932119 153.935007 
L 181.932119 153.683255 
L 182.233915 153.683255 
L 182.273791 153.305628 
L 182.442328 153.305628 
L 182.442328 153.179752 
L 182.663095 153.179752 
L 182.702072 152.802124 
L 182.842693 152.802124 
L 182.871656 152.550372 
L 183.054061 152.550372 
L 183.054061 152.424497 
L 183.362027 152.424497 
L 183.362027 152.172745 
L 183.729661 152.172745 
L 183.729661 152.046869 
L 183.90397 152.046869 
L 183.949574 151.795117 
L 184.581089 151.795117 
L 184.581089 151.669241 
L 184.821789 151.669241 
L 184.908558 151.039862 
L 185.251688 151.039862 
L 185.255938 150.662234 
L 185.567785 150.662234 
L 185.630372 150.284607 
L 186.00975 150.284607 
L 186.00975 150.158731 
L 186.261169 150.158731 
L 186.365611 149.781103 
L 186.588612 149.781103 
L 186.608395 149.2776 
L 187.092471 149.2776 
L 187.100178 149.025848 
L 187.303258 149.025848 
L 187.329917 148.522345 
L 187.504169 148.522345 
L 187.571918 148.144717 
L 187.646909 148.144717 
L 187.646909 147.892966 
L 188.057763 147.892966 
L 188.057763 147.641214 
L 188.189109 147.641214 
L 188.189109 147.389462 
L 188.41678 147.389462 
L 188.513516 147.13771 
L 188.599088 147.13771 
L 188.694894 146.382455 
L 188.930547 146.382455 
L 188.930547 146.130703 
L 189.304298 146.130703 
L 189.304298 146.004828 
L 189.80137 146.004828 
L 189.86467 145.249572 
L 189.937699 145.249572 
L 189.937699 144.997821 
L 190.073046 144.997821 
L 190.073046 144.871945 
L 190.20416 144.871945 
L 190.20416 144.746069 
L 190.373254 144.746069 
L 190.412061 144.242566 
L 190.511942 144.242566 
L 190.511942 144.11669 
L 190.652806 144.11669 
L 190.652806 143.990814 
L 190.808445 143.990814 
L 190.855833 143.739062 
L 191.436799 143.739062 
L 191.436799 143.613186 
L 191.99145 143.613186 
L 191.99145 143.48731 
L 192.165892 143.48731 
L 192.165892 143.361434 
L 192.759731 143.361434 
L 192.759731 143.235559 
L 192.932875 143.235559 
L 193.014634 142.857931 
L 193.918114 142.857931 
L 194.006387 142.480303 
L 194.734025 142.480303 
L 194.831336 142.228552 
L 195.481503 142.228552 
L 195.481503 142.102676 
L 195.767997 142.102676 
L 195.767997 141.850924 
L 197.201618 141.850924 
L 197.201618 141.599172 
L 197.975847 141.599172 
L 197.975847 141.473297 
L 198.719467 141.473297 
L 198.719467 141.347421 
L 199.324497 141.347421 
L 199.324497 141.221545 
L 199.689046 141.221545 
L 199.74814 140.969793 
L 200.122008 140.969793 
L 200.122008 140.843917 
L 200.433677 140.843917 
L 200.433677 140.718041 
L 201.507967 140.718041 
L 201.507967 140.592166 
L 360.8064 140.592166 
L 360.8064 140.592166 
" style="fill: none; stroke: #000080; stroke-width: 1.5; stroke-linecap: square"/>
   </g>
   <g id="line2d_36">
    <defs>
     <path id="m7c110d12ab" d="M 0 6 
C 1.591219 6 3.117479 5.367802 4.242641 4.242641 
C 5.367802 3.117479 6 1.591219 6 0 
C 6 -1.591219 5.367802 -3.117479 4.242641 -4.242641 
C 3.117479 -5.367802 1.591219 -6 0 -6 
C -1.591219 -6 -3.117479 -5.367802 -4.242641 -4.242641 
C -5.367802 -3.117479 -6 -1.591219 -6 0 
C -6 1.591219 -5.367802 3.117479 -4.242641 4.242641 
C -3.117479 5.367802 -1.591219 6 0 6 
z
" style="stroke: #000080; stroke-width: 1.5"/>
    </defs>
    <g>
     <use xlink:href="#m7c110d12ab" x="103.047088" y="278.677986" style="fill-opacity: 0; stroke: #000080; stroke-width: 1.5"/>
     <use xlink:href="#m7c110d12ab" x="156.423104" y="204.914731" style="fill-opacity: 0; stroke: #000080; stroke-width: 1.5"/>
     <use xlink:href="#m7c110d12ab" x="201.507967" y="140.718041" style="fill-opacity: 0; stroke: #000080; stroke-width: 1.5"/>
     <use xlink:href="#m7c110d12ab" x="201.507967" y="140.592166" style="fill-opacity: 0; stroke: #000080; stroke-width: 1.5"/>
     <use xlink:href="#m7c110d12ab" x="201.507967" y="140.592166" style="fill-opacity: 0; stroke: #000080; stroke-width: 1.5"/>
     <use xlink:href="#m7c110d12ab" x="360.8064" y="140.592166" style="fill-opacity: 0; stroke: #000080; stroke-width: 1.5"/>
    </g>
   </g>
   <g id="line2d_37">
    <path style="fill: none; stroke: #000080; stroke-width: 1.5; stroke-linecap: square"/>
    <g/>
   </g>
   <g id="line2d_38">
    <path d="M 230.860048 140.592166 
" clip-path="url(#p60d57823dc)" style="fill: none; stroke: #000080; stroke-width: 1.5; stroke-linecap: square"/>
    <defs>
     <path id="m023d0932c2" d="M -12 12 
L 12 -12 
M -12 -12 
L 12 12 
" style="stroke: #000080"/>
    </defs>
    <g clip-path="url(#p60d57823dc)">
     <use xlink:href="#m023d0932c2" x="230.860048" y="140.592166" style="fill: #000080; stroke: #000080"/>
    </g>
   </g>
   <g id="line2d_39">
    <defs>
     <path id="me11df32b88" d="M 0 1.5 
C 0.397805 1.5 0.77937 1.341951 1.06066 1.06066 
C 1.341951 0.77937 1.5 0.397805 1.5 0 
C 1.5 -0.397805 1.341951 -0.77937 1.06066 -1.06066 
C 0.77937 -1.341951 0.397805 -1.5 0 -1.5 
C -0.397805 -1.5 -0.77937 -1.341951 -1.06066 -1.06066 
C -1.341951 -0.77937 -1.5 -0.397805 -1.5 0 
C -1.5 0.397805 -1.341951 0.77937 -1.06066 1.06066 
C -0.77937 1.341951 -0.397805 1.5 0 1.5 
z
" style="stroke: #ff00ff"/>
    </defs>
    <g>
     <use xlink:href="#me11df32b88" x="208.872671" y="143.235559" style="fill: #ff00ff; stroke: #ff00ff"/>
     <use xlink:href="#me11df32b88" x="208.872671" y="143.235559" style="fill: #ff00ff; stroke: #ff00ff"/>
    </g>
   </g>
   <g id="line2d_40">
    <path d="M 27.323974 298.944 
L 27.323974 292.524331 
L 40.363149 292.524331 
L 40.363149 289.125683 
L 72.432107 289.125683 
L 72.432107 286.859917 
L 83.678349 286.859917 
L 83.678349 284.971779 
L 90.668036 284.971779 
L 90.668036 284.090648 
L 95.752617 284.090648 
L 95.752617 282.454262 
L 99.751228 282.454262 
L 99.751228 281.447255 
L 103.047088 281.447255 
L 103.047088 280.440248 
L 105.850679 280.440248 
L 105.850679 279.936745 
L 108.29012 279.936745 
L 108.29012 277.922731 
L 110.449226 277.922731 
L 110.449226 277.670979 
L 112.385837 277.670979 
L 112.385837 277.167476 
L 114.141556 277.167476 
L 114.141556 276.412221 
L 115.747307 276.412221 
L 115.747307 274.775834 
L 117.226706 274.775834 
L 117.226706 273.894703 
L 118.598196 273.894703 
L 118.598196 273.3912 
L 119.876453 273.3912 
L 119.876453 272.761821 
L 121.073351 272.761821 
L 121.073351 272.510069 
L 122.19863 272.510069 
L 122.19863 271.628938 
L 123.260379 271.628938 
L 123.260379 271.25131 
L 124.265389 271.25131 
L 124.265389 270.244303 
L 125.219419 270.244303 
L 125.219419 268.607917 
L 126.127391 268.607917 
L 126.127391 268.104414 
L 126.993549 268.104414 
L 126.993549 267.60091 
L 127.821575 267.60091 
L 127.821575 267.223283 
L 128.614685 267.223283 
L 128.614685 266.342152 
L 129.375706 266.342152 
L 129.375706 265.461021 
L 130.107132 265.461021 
L 130.107132 263.824634 
L 130.811181 263.824634 
L 130.811181 262.565876 
L 131.489828 262.565876 
L 131.489828 262.062372 
L 132.144842 262.062372 
L 132.144842 261.307117 
L 132.777813 261.307117 
L 132.777813 259.670731 
L 133.390178 259.670731 
L 133.390178 259.418979 
L 133.983236 259.418979 
L 133.983236 258.915476 
L 134.558167 258.915476 
L 134.558167 257.153214 
L 135.116046 257.153214 
L 135.116046 256.020331 
L 135.657857 256.020331 
L 135.657857 255.516828 
L 136.184497 255.516828 
L 136.184497 255.265076 
L 136.696795 255.265076 
L 136.696795 253.251062 
L 137.195511 253.251062 
L 137.195511 252.873434 
L 137.681345 252.873434 
L 137.681345 252.118179 
L 138.154948 252.118179 
L 138.154948 250.104166 
L 138.616919 250.104166 
L 138.616919 249.223034 
L 139.067817 249.223034 
L 139.067817 247.8384 
L 139.508159 247.8384 
L 139.508159 246.957269 
L 139.93843 246.957269 
L 139.93843 246.705517 
L 140.359078 246.705517 
L 140.359078 245.69851 
L 140.770526 245.69851 
L 140.770526 245.069131 
L 141.173167 245.069131 
L 141.173167 244.439752 
L 141.56737 244.439752 
L 141.56737 243.936248 
L 141.953481 243.936248 
L 141.953481 243.810372 
L 142.331827 243.810372 
L 142.331827 243.306869 
L 142.702713 243.306869 
L 142.702713 241.796359 
L 143.066428 241.796359 
L 143.066428 241.544607 
L 143.423243 241.544607 
L 143.423243 240.034097 
L 143.773417 240.034097 
L 143.773417 238.901214 
L 144.117191 238.901214 
L 144.117191 238.649462 
L 144.454795 238.649462 
L 144.454795 238.523586 
L 144.786447 238.523586 
L 144.786447 237.642455 
L 145.112353 237.642455 
L 145.112353 237.138952 
L 145.7477 237.138952 
L 145.7477 236.509572 
L 146.057504 236.509572 
L 146.057504 235.754317 
L 146.362288 235.754317 
L 146.362288 235.628441 
L 146.662213 235.628441 
L 146.662213 234.999062 
L 146.957431 234.999062 
L 146.957431 234.621434 
L 147.248088 234.621434 
L 147.248088 233.614428 
L 147.534321 233.614428 
L 147.534321 233.2368 
L 147.816265 233.2368 
L 147.816265 232.859172 
L 148.094045 232.859172 
L 148.094045 232.733297 
L 148.367783 232.733297 
L 148.367783 232.355669 
L 148.637595 232.355669 
L 148.637595 231.600414 
L 148.903591 231.600414 
L 148.903591 231.09691 
L 149.165879 231.09691 
L 149.165879 230.089903 
L 149.42456 230.089903 
L 149.42456 229.334648 
L 149.679732 229.334648 
L 149.679732 229.208772 
L 149.931489 229.208772 
L 149.931489 228.831145 
L 150.179921 228.831145 
L 150.179921 228.201766 
L 150.425115 228.201766 
L 150.425115 227.698262 
L 150.667154 227.698262 
L 150.667154 227.194759 
L 150.906118 227.194759 
L 150.906118 226.439503 
L 151.142085 226.439503 
L 151.142085 225.936 
L 151.375128 225.936 
L 151.375128 225.432497 
L 151.60532 225.432497 
L 151.60532 225.306621 
L 151.832729 225.306621 
L 151.832729 224.928993 
L 152.279463 224.928993 
L 152.279463 224.42549 
L 152.498913 224.42549 
L 152.498913 224.173738 
L 152.715833 224.173738 
L 152.715833 223.921986 
L 152.930279 223.921986 
L 152.930279 223.418483 
L 153.142309 223.418483 
L 153.142309 222.663228 
L 153.351976 222.663228 
L 153.351976 222.537352 
L 153.559331 222.537352 
L 153.559331 222.411476 
L 153.764426 222.411476 
L 153.764426 222.159724 
L 153.967309 222.159724 
L 153.967309 221.656221 
L 154.168026 221.656221 
L 154.168026 221.026841 
L 154.366625 221.026841 
L 154.366625 220.900966 
L 154.563149 220.900966 
L 154.563149 219.642207 
L 154.757642 219.642207 
L 154.757642 219.012828 
L 154.950144 219.012828 
L 154.950144 218.6352 
L 155.140696 218.6352 
L 155.140696 218.131697 
L 155.329337 218.131697 
L 155.329337 217.879945 
L 155.516105 217.879945 
L 155.516105 217.628193 
L 155.701037 217.628193 
L 155.701037 217.12469 
L 156.065535 217.12469 
L 156.065535 216.872938 
L 156.245169 216.872938 
L 156.245169 216.369434 
L 156.423104 216.369434 
L 156.423104 215.991807 
L 156.599372 215.991807 
L 156.599372 215.488303 
L 156.774003 215.488303 
L 156.774003 214.858924 
L 156.947029 214.858924 
L 156.947029 214.229545 
L 157.118477 214.229545 
L 157.118477 213.726041 
L 157.288377 213.726041 
L 157.288377 213.600166 
L 157.456756 213.600166 
L 157.456756 212.970786 
L 157.623641 212.970786 
L 157.623641 212.719034 
L 157.789059 212.719034 
L 157.789059 212.341407 
L 157.953034 212.341407 
L 157.953034 211.460276 
L 158.115593 211.460276 
L 158.115593 211.208524 
L 158.276759 211.208524 
L 158.276759 211.082648 
L 158.436556 211.082648 
L 158.436556 210.579145 
L 158.752135 210.579145 
L 158.752135 210.327393 
L 159.062507 210.327393 
L 159.062507 209.949766 
L 159.215793 209.949766 
L 159.215793 209.698014 
L 159.367841 209.698014 
L 159.367841 209.446262 
L 159.518669 209.446262 
L 159.518669 208.816883 
L 159.816746 208.816883 
L 159.816746 208.439255 
L 159.964032 208.439255 
L 159.964032 208.313379 
L 160.255188 208.313379 
L 160.255188 208.061628 
L 160.399093 208.061628 
L 160.399093 207.180497 
L 160.541906 207.180497 
L 160.541906 206.928745 
L 160.82432 206.928745 
L 160.82432 206.425241 
L 160.963953 206.425241 
L 160.963953 206.17349 
L 161.102557 206.17349 
L 161.102557 205.921738 
L 161.240147 205.921738 
L 161.240147 205.54411 
L 161.512345 205.54411 
L 161.512345 205.040607 
L 161.646981 205.040607 
L 161.646981 204.662979 
L 161.913396 204.662979 
L 161.913396 203.781848 
L 162.17609 203.781848 
L 162.17609 203.655972 
L 162.306075 203.655972 
L 162.306075 203.026593 
L 162.435167 203.026593 
L 162.435167 202.271338 
L 162.56338 202.271338 
L 162.56338 202.019586 
L 162.942856 202.019586 
L 162.942856 201.89371 
L 163.067666 201.89371 
L 163.067666 201.767834 
L 163.191653 201.767834 
L 163.191653 201.264331 
L 163.314829 201.264331 
L 163.314829 201.012579 
L 163.437203 201.012579 
L 163.437203 200.634952 
L 163.558786 200.634952 
L 163.558786 200.131448 
L 163.91889 200.131448 
L 163.91889 199.753821 
L 164.155187 199.753821 
L 164.155187 199.376193 
L 164.272231 199.376193 
L 164.272231 198.998566 
L 164.388551 198.998566 
L 164.388551 198.87269 
L 164.504157 198.87269 
L 164.504157 198.620938 
L 164.619057 198.620938 
L 164.619057 198.369186 
L 164.959603 198.369186 
L 164.959603 198.24331 
L 165.071763 198.24331 
L 165.071763 197.739807 
L 165.183257 197.739807 
L 165.183257 197.488055 
L 165.51383 197.488055 
L 165.51383 197.236303 
L 165.731028 197.236303 
L 165.838694 196.481048 
L 165.945747 196.481048 
L 166.052194 195.599917 
L 166.367969 195.599917 
L 166.47206 194.844662 
L 166.575579 194.844662 
L 166.678531 193.963531 
L 166.882759 193.963531 
L 166.984048 193.208276 
L 167.084795 193.208276 
L 167.185004 192.453021 
L 167.383837 192.453021 
L 167.48247 192.075393 
L 167.678199 192.075393 
L 167.678199 191.823641 
L 167.871912 191.823641 
L 167.968026 191.320138 
L 168.253455 191.320138 
L 168.253455 190.816634 
L 168.903083 190.816634 
L 168.994082 190.564883 
L 169.084644 190.564883 
L 169.174771 189.935503 
L 169.264469 189.935503 
L 169.264469 189.683752 
L 169.442591 189.683752 
L 169.442591 189.557876 
L 169.880655 189.557876 
L 169.880655 188.928497 
L 170.308749 188.928497 
L 170.308749 188.676745 
L 170.477296 188.676745 
L 170.561006 188.299117 
L 170.727317 188.299117 
L 170.809925 187.669738 
L 171.055593 187.669738 
L 171.136775 187.417986 
L 171.298095 187.417986 
L 171.378239 187.040359 
L 171.458043 187.040359 
L 171.537509 186.662731 
L 171.616642 186.662731 
L 171.695443 186.410979 
L 171.773916 186.410979 
L 171.773916 186.285103 
L 171.929885 186.285103 
L 171.929885 186.159228 
L 172.084572 186.159228 
L 172.084572 186.033352 
L 172.237998 186.033352 
L 172.314244 185.403972 
L 172.390182 185.403972 
L 172.390182 185.278097 
L 172.690906 185.278097 
L 172.765341 184.27109 
L 172.839484 184.27109 
L 172.913335 183.515834 
L 173.060174 183.515834 
L 173.060174 183.264083 
L 173.205875 183.264083 
L 173.205875 182.886455 
L 173.493935 182.886455 
L 173.565266 182.005324 
L 173.636328 182.005324 
L 173.707122 181.501821 
L 173.77765 181.501821 
L 173.847916 181.124193 
L 173.987664 181.124193 
L 174.05715 180.746566 
L 174.126381 180.746566 
L 174.195358 180.368938 
L 174.5365 180.368938 
L 174.603992 179.739559 
L 174.871565 179.739559 
L 174.871565 179.361931 
L 175.003938 179.361931 
L 175.003938 179.110179 
L 175.135386 179.110179 
L 175.135386 178.984303 
L 175.395557 178.984303 
L 175.460042 178.354924 
L 175.524306 178.354924 
L 175.524306 178.229048 
L 175.65218 178.229048 
L 175.65218 177.977297 
L 175.77919 177.977297 
L 175.77919 177.222041 
L 175.905348 177.222041 
L 175.968112 176.718538 
L 176.093013 176.718538 
L 176.155155 176.215034 
L 176.523753 176.215034 
L 176.523753 176.089159 
L 176.645031 176.089159 
L 176.645031 175.963283 
L 176.765533 175.963283 
L 176.825495 175.711531 
L 176.885267 175.711531 
L 176.94485 174.956276 
L 177.004244 174.956276 
L 177.004244 174.8304 
L 177.298436 174.8304 
L 177.298436 174.704524 
L 177.414837 174.704524 
L 177.414837 174.452772 
L 177.645499 174.452772 
L 177.645499 173.697517 
L 177.759778 173.697517 
L 177.759778 173.194014 
L 177.986274 173.194014 
L 178.042475 172.564634 
L 178.098508 172.564634 
L 178.098508 172.312883 
L 178.265613 172.312883 
L 178.376197 171.557628 
L 178.431246 171.557628 
L 178.486135 170.802372 
L 178.595434 170.802372 
L 178.704102 170.298869 
L 179.079571 170.298869 
L 179.185485 169.795366 
L 179.55156 169.795366 
L 179.654857 169.417738 
L 179.808747 169.417738 
L 179.859766 169.04011 
L 179.961389 169.04011 
L 180.011995 168.662483 
L 180.46143 168.662483 
L 180.559863 168.284855 
L 180.657783 168.284855 
L 180.755196 167.907228 
L 180.803715 167.907228 
L 180.852108 167.403724 
L 180.996545 167.403724 
L 181.092225 166.900221 
L 181.234837 166.900221 
L 181.282135 166.522593 
L 181.423321 166.522593 
L 181.516859 165.641462 
L 181.794715 165.641462 
L 181.886429 165.137959 
L 181.932119 165.137959 
L 181.977698 164.886207 
L 182.203953 164.886207 
L 182.203953 164.634455 
L 182.383017 164.634455 
L 182.383017 164.382703 
L 182.604477 164.382703 
L 182.604477 164.130952 
L 182.823359 164.130952 
L 182.823359 164.005076 
L 183.082701 164.005076 
L 183.168359 163.753324 
L 183.211043 163.753324 
L 183.211043 163.501572 
L 183.46513 163.501572 
L 183.549068 163.123945 
L 183.590898 163.123945 
L 183.674278 162.872193 
L 183.71583 162.872193 
L 183.757291 162.620441 
L 183.839939 162.620441 
L 183.922225 161.991062 
L 184.004153 161.991062 
L 184.004153 161.865186 
L 184.247818 161.865186 
L 184.247818 161.613434 
L 184.567871 161.613434 
L 184.567871 161.487559 
L 184.725878 161.487559 
L 184.725878 161.361683 
L 184.999237 161.361683 
L 184.999237 161.235807 
L 185.268681 161.235807 
L 185.344961 160.732303 
L 185.420934 160.732303 
L 185.420934 160.102924 
L 185.53432 160.102924 
L 185.53432 159.851172 
L 185.684446 159.851172 
L 185.721791 159.473545 
L 185.833384 159.473545 
L 185.944318 158.844166 
L 186.091221 158.844166 
L 186.127768 158.466538 
L 186.27325 158.466538 
L 186.27325 158.340662 
L 186.525167 158.340662 
L 186.632107 157.837159 
L 187.019102 157.837159 
L 187.019102 157.585407 
L 187.157876 157.585407 
L 187.226881 157.207779 
L 187.295634 157.207779 
L 187.329917 156.5784 
L 187.432391 156.5784 
L 187.500398 156.074897 
L 187.669348 156.074897 
L 187.669348 155.697269 
L 187.836795 155.697269 
L 187.836795 155.445517 
L 188.035783 155.445517 
L 188.035783 155.319641 
L 188.167281 155.319641 
L 188.167281 155.06789 
L 188.297867 155.06789 
L 188.395215 154.564386 
L 188.427553 154.564386 
L 188.427553 154.43851 
L 188.684273 154.43851 
L 188.716118 154.186759 
L 189.0629 154.186759 
L 189.0629 154.060883 
L 189.525714 154.060883 
L 189.525714 153.935007 
L 189.647231 153.935007 
L 189.707697 153.557379 
L 189.858017 153.557379 
L 189.91781 153.179752 
L 190.096057 153.179752 
L 190.096057 153.053876 
L 190.418521 153.053876 
L 190.447563 152.676248 
L 190.620884 152.676248 
L 190.620884 152.424497 
L 190.792622 152.424497 
L 190.849521 151.669241 
L 191.491786 151.669241 
L 191.491786 151.543366 
L 191.655788 151.543366 
L 191.682983 151.039862 
L 192.165892 151.039862 
L 192.165892 150.913986 
L 192.402776 150.913986 
L 192.402776 150.662234 
L 192.559058 150.662234 
L 192.662529 150.284607 
L 192.842244 150.284607 
L 192.918743 149.906979 
L 193.121231 149.906979 
L 193.171515 149.529352 
L 193.27168 149.529352 
L 193.27168 149.403476 
L 193.420935 149.403476 
L 193.420935 149.151724 
L 194.006387 149.151724 
L 194.006387 149.025848 
L 194.126096 149.025848 
L 194.126096 148.774097 
L 195.057295 148.774097 
L 195.057295 148.522345 
L 195.215619 148.522345 
L 195.215619 148.144717 
L 195.327898 148.144717 
L 195.327898 148.018841 
L 195.594663 148.018841 
L 195.68275 147.515338 
L 196.009453 147.515338 
L 196.074118 147.263586 
L 196.159994 147.263586 
L 196.159994 147.011834 
L 196.351793 147.011834 
L 196.457509 146.634207 
L 196.667176 146.634207 
L 196.667176 146.508331 
L 196.853898 146.508331 
L 196.915729 146.130703 
L 197.403196 146.130703 
L 197.403196 146.004828 
L 197.582788 146.004828 
L 197.582788 145.878952 
L 197.839209 145.878952 
L 197.839209 145.753076 
L 198.169339 145.753076 
L 198.169339 145.501324 
L 198.512687 145.501324 
L 198.512687 145.249572 
L 200.450736 145.249572 
L 200.450736 145.123697 
L 200.905582 145.123697 
L 200.922219 144.746069 
L 202.176549 144.746069 
L 202.176549 144.620193 
L 202.713303 144.620193 
L 202.713303 144.494317 
L 203.337824 144.494317 
L 203.38165 144.11669 
L 203.49802 144.11669 
L 203.49802 143.990814 
L 204.306956 143.990814 
L 204.306956 143.739062 
L 205.42596 143.739062 
L 205.42596 143.613186 
L 205.660096 143.613186 
L 205.660096 143.48731 
L 207.11482 143.48731 
L 207.11482 143.361434 
L 208.872671 143.361434 
L 208.872671 143.235559 
L 360.8064 143.235559 
L 360.8064 143.235559 
" style="fill: none; stroke: #ff00ff; stroke-width: 1.5; stroke-linecap: square"/>
   </g>
   <g id="line2d_41">
    <defs>
     <path id="mdccea3666e" d="M -0 8.485281 
L 5.091169 0 
L 0 -8.485281 
L -5.091169 -0 
z
" style="stroke: #ff00ff; stroke-width: 1.5; stroke-linejoin: miter"/>
    </defs>
    <g>
     <use xlink:href="#mdccea3666e" x="105.850679" y="279.936745" style="fill-opacity: 0; stroke: #ff00ff; stroke-width: 1.5; stroke-linejoin: miter"/>
     <use xlink:href="#mdccea3666e" x="159.518669" y="209.446262" style="fill-opacity: 0; stroke: #ff00ff; stroke-width: 1.5; stroke-linejoin: miter"/>
     <use xlink:href="#mdccea3666e" x="208.872671" y="143.361434" style="fill-opacity: 0; stroke: #ff00ff; stroke-width: 1.5; stroke-linejoin: miter"/>
     <use xlink:href="#mdccea3666e" x="208.872671" y="143.235559" style="fill-opacity: 0; stroke: #ff00ff; stroke-width: 1.5; stroke-linejoin: miter"/>
     <use xlink:href="#mdccea3666e" x="208.872671" y="143.235559" style="fill-opacity: 0; stroke: #ff00ff; stroke-width: 1.5; stroke-linejoin: miter"/>
     <use xlink:href="#mdccea3666e" x="360.8064" y="143.235559" style="fill-opacity: 0; stroke: #ff00ff; stroke-width: 1.5; stroke-linejoin: miter"/>
    </g>
   </g>
   <g id="line2d_42">
    <path style="fill: none; stroke: #ff00ff; stroke-width: 1.5; stroke-linecap: square"/>
    <g/>
   </g>
   <g id="line2d_43">
    <path d="M 230.859295 143.235559 
" clip-path="url(#p60d57823dc)" style="fill: none; stroke: #ff00ff; stroke-width: 1.5; stroke-linecap: square"/>
    <defs>
     <path id="mba961bc233" d="M -12 12 
L 12 -12 
M -12 -12 
L 12 12 
" style="stroke: #ff00ff"/>
    </defs>
    <g clip-path="url(#p60d57823dc)">
     <use xlink:href="#mba961bc233" x="230.859295" y="143.235559" style="fill: #ff00ff; stroke: #ff00ff"/>
    </g>
   </g>
   <g id="line2d_44">
    <path d="M 360.8064 143.235559 
L 380.514816 293.10336 
" style="fill: none; stroke: #ff00ff; stroke-width: 1.5; stroke-linecap: square"/>
    <g>
     <use xlink:href="#mdccea3666e" x="360.8064" y="143.235559" style="fill-opacity: 0; stroke: #ff00ff; stroke-width: 1.5; stroke-linejoin: miter"/>
     <use xlink:href="#mdccea3666e" x="380.514816" y="293.10336" style="fill-opacity: 0; stroke: #ff00ff; stroke-width: 1.5; stroke-linejoin: miter"/>
    </g>
   </g>
   <g id="line2d_45">
    <path d="M 360.8064 140.592166 
L 380.514816 152.928 
" style="fill: none; stroke: #000080; stroke-width: 1.5; stroke-linecap: square"/>
    <g>
     <use xlink:href="#m7c110d12ab" x="360.8064" y="140.592166" style="fill-opacity: 0; stroke: #000080; stroke-width: 1.5"/>
     <use xlink:href="#m7c110d12ab" x="380.514816" y="152.928" style="fill-opacity: 0; stroke: #000080; stroke-width: 1.5"/>
    </g>
   </g>
   <g id="line2d_46">
    <path d="M 360.8064 298.944 
L 360.8064 6.912 
" style="fill: none; stroke: #000000; stroke-width: 1.5; stroke-linecap: square"/>
   </g>
   <g id="patch_3">
    <path d="M 57.6 298.944 
L 360.8064 298.944 
" style="fill: none; stroke: #000000; stroke-width: 0.8; stroke-linejoin: miter; stroke-linecap: square"/>
   </g>
   <g id="patch_4">
    <path d="M 57.6 6.912 
L 360.8064 6.912 
" style="fill: none; stroke: #000000; stroke-width: 0.8; stroke-linejoin: miter; stroke-linecap: square"/>
   </g>
   <g id="text_13">
    <!-- kerComo -->
    <g transform="translate(386.578944 296.966485) scale(0.14 -0.14)">
     <defs>
      <path id="DejaVuSans-6b" d="M 581 4863 
L 1159 4863 
L 1159 1991 
L 2875 3500 
L 3609 3500 
L 1753 1863 
L 3688 0 
L 2938 0 
L 1159 1709 
L 1159 0 
L 581 0 
L 581 4863 
z
" transform="scale(0.015625)"/>
      <path id="DejaVuSans-43" d="M 4122 4306 
L 4122 3641 
Q 3803 3938 3442 4084 
Q 3081 4231 2675 4231 
Q 1875 4231 1450 3742 
Q 1025 3253 1025 2328 
Q 1025 1406 1450 917 
Q 1875 428 2675 428 
Q 3081 428 3442 575 
Q 3803 722 4122 1019 
L 4122 359 
Q 3791 134 3420 21 
Q 3050 -91 2638 -91 
Q 1578 -91 968 557 
Q 359 1206 359 2328 
Q 359 3453 968 4101 
Q 1578 4750 2638 4750 
Q 3056 4750 3426 4639 
Q 3797 4528 4122 4306 
z
" transform="scale(0.015625)"/>
     </defs>
     <use xlink:href="#DejaVuSans-6b"/>
     <use xlink:href="#DejaVuSans-65" x="54.285156"/>
     <use xlink:href="#DejaVuSans-72" x="115.808594"/>
     <use xlink:href="#DejaVuSans-43" x="156.921875"/>
     <use xlink:href="#DejaVuSans-6f" x="226.746094"/>
     <use xlink:href="#DejaVuSans-6d" x="287.927734"/>
     <use xlink:href="#DejaVuSans-6f" x="385.339844"/>
    </g>
   </g>
   <g id="text_14">
    <!-- kerLQ -->
    <g transform="translate(386.578944 156.791125) scale(0.14 -0.14)">
     <defs>
      <path id="DejaVuSans-4c" d="M 628 4666 
L 1259 4666 
L 1259 531 
L 3531 531 
L 3531 0 
L 628 0 
L 628 4666 
z
" transform="scale(0.015625)"/>
      <path id="DejaVuSans-51" d="M 2522 4238 
Q 1834 4238 1429 3725 
Q 1025 3213 1025 2328 
Q 1025 1447 1429 934 
Q 1834 422 2522 422 
Q 3209 422 3611 934 
Q 4013 1447 4013 2328 
Q 4013 3213 3611 3725 
Q 3209 4238 2522 4238 
z
M 3406 84 
L 4238 -825 
L 3475 -825 
L 2784 -78 
Q 2681 -84 2626 -87 
Q 2572 -91 2522 -91 
Q 1538 -91 948 567 
Q 359 1225 359 2328 
Q 359 3434 948 4092 
Q 1538 4750 2522 4750 
Q 3503 4750 4090 4092 
Q 4678 3434 4678 2328 
Q 4678 1516 4351 937 
Q 4025 359 3406 84 
z
" transform="scale(0.015625)"/>
     </defs>
     <use xlink:href="#DejaVuSans-6b"/>
     <use xlink:href="#DejaVuSans-65" x="54.285156"/>
     <use xlink:href="#DejaVuSans-72" x="115.808594"/>
     <use xlink:href="#DejaVuSans-4c" x="156.921875"/>
     <use xlink:href="#DejaVuSans-51" x="212.634766"/>
    </g>
   </g>
   <g id="text_15">
    <!-- best 2016 -->
    <g transform="translate(386.578944 16.615765) scale(0.14 -0.14)">
     <defs>
      <path id="DejaVuSans-62" d="M 3116 1747 
Q 3116 2381 2855 2742 
Q 2594 3103 2138 3103 
Q 1681 3103 1420 2742 
Q 1159 2381 1159 1747 
Q 1159 1113 1420 752 
Q 1681 391 2138 391 
Q 2594 391 2855 752 
Q 3116 1113 3116 1747 
z
M 1159 2969 
Q 1341 3281 1617 3432 
Q 1894 3584 2278 3584 
Q 2916 3584 3314 3078 
Q 3713 2572 3713 1747 
Q 3713 922 3314 415 
Q 2916 -91 2278 -91 
Q 1894 -91 1617 61 
Q 1341 213 1159 525 
L 1159 0 
L 581 0 
L 581 4863 
L 1159 4863 
L 1159 2969 
z
" transform="scale(0.015625)"/>
     </defs>
     <use xlink:href="#DejaVuSans-62"/>
     <use xlink:href="#DejaVuSans-65" x="63.476562"/>
     <use xlink:href="#DejaVuSans-73" x="125"/>
     <use xlink:href="#DejaVuSans-74" x="177.099609"/>
     <use xlink:href="#DejaVuSans-20" x="216.308594"/>
     <use xlink:href="#DejaVuSans-32" x="248.095703"/>
     <use xlink:href="#DejaVuSans-30" x="311.71875"/>
     <use xlink:href="#DejaVuSans-31" x="375.341797"/>
     <use xlink:href="#DejaVuSans-36" x="438.964844"/>
    </g>
   </g>
   <g id="text_16">
    <!-- bbob-biobj f3, f4, f12, f13, 5-D -->
    <g transform="translate(60.632064 17.582726) scale(0.102 -0.102)">
     <defs>
      <path id="DejaVuSans-6a" d="M 603 3500 
L 1178 3500 
L 1178 -63 
Q 1178 -731 923 -1031 
Q 669 -1331 103 -1331 
L -116 -1331 
L -116 -844 
L 38 -844 
Q 366 -844 484 -692 
Q 603 -541 603 -63 
L 603 3500 
z
M 603 4863 
L 1178 4863 
L 1178 4134 
L 603 4134 
L 603 4863 
z
" transform="scale(0.015625)"/>
      <path id="DejaVuSans-33" d="M 2597 2516 
Q 3050 2419 3304 2112 
Q 3559 1806 3559 1356 
Q 3559 666 3084 287 
Q 2609 -91 1734 -91 
Q 1441 -91 1130 -33 
Q 819 25 488 141 
L 488 750 
Q 750 597 1062 519 
Q 1375 441 1716 441 
Q 2309 441 2620 675 
Q 2931 909 2931 1356 
Q 2931 1769 2642 2001 
Q 2353 2234 1838 2234 
L 1294 2234 
L 1294 2753 
L 1863 2753 
Q 2328 2753 2575 2939 
Q 2822 3125 2822 3475 
Q 2822 3834 2567 4026 
Q 2313 4219 1838 4219 
Q 1578 4219 1281 4162 
Q 984 4106 628 3988 
L 628 4550 
Q 988 4650 1302 4700 
Q 1616 4750 1894 4750 
Q 2613 4750 3031 4423 
Q 3450 4097 3450 3541 
Q 3450 3153 3228 2886 
Q 3006 2619 2597 2516 
z
" transform="scale(0.015625)"/>
      <path id="DejaVuSans-35" d="M 691 4666 
L 3169 4666 
L 3169 4134 
L 1269 4134 
L 1269 2991 
Q 1406 3038 1543 3061 
Q 1681 3084 1819 3084 
Q 2600 3084 3056 2656 
Q 3513 2228 3513 1497 
Q 3513 744 3044 326 
Q 2575 -91 1722 -91 
Q 1428 -91 1123 -41 
Q 819 9 494 109 
L 494 744 
Q 775 591 1075 516 
Q 1375 441 1709 441 
Q 2250 441 2565 725 
Q 2881 1009 2881 1497 
Q 2881 1984 2565 2268 
Q 2250 2553 1709 2553 
Q 1456 2553 1204 2497 
Q 953 2441 691 2322 
L 691 4666 
z
" transform="scale(0.015625)"/>
      <path id="DejaVuSans-44" d="M 1259 4147 
L 1259 519 
L 2022 519 
Q 2988 519 3436 956 
Q 3884 1394 3884 2338 
Q 3884 3275 3436 3711 
Q 2988 4147 2022 4147 
L 1259 4147 
z
M 628 4666 
L 1925 4666 
Q 3281 4666 3915 4102 
Q 4550 3538 4550 2338 
Q 4550 1131 3912 565 
Q 3275 0 1925 0 
L 628 0 
L 628 4666 
z
" transform="scale(0.015625)"/>
     </defs>
     <use xlink:href="#DejaVuSans-62"/>
     <use xlink:href="#DejaVuSans-62" x="63.476562"/>
     <use xlink:href="#DejaVuSans-6f" x="126.953125"/>
     <use xlink:href="#DejaVuSans-62" x="188.134766"/>
     <use xlink:href="#DejaVuSans-2d" x="251.611328"/>
     <use xlink:href="#DejaVuSans-62" x="287.695312"/>
     <use xlink:href="#DejaVuSans-69" x="351.171875"/>
     <use xlink:href="#DejaVuSans-6f" x="378.955078"/>
     <use xlink:href="#DejaVuSans-62" x="440.136719"/>
     <use xlink:href="#DejaVuSans-6a" x="503.613281"/>
     <use xlink:href="#DejaVuSans-20" x="531.396484"/>
     <use xlink:href="#DejaVuSans-66" x="563.183594"/>
     <use xlink:href="#DejaVuSans-33" x="598.388672"/>
     <use xlink:href="#DejaVuSans-2c" x="662.011719"/>
     <use xlink:href="#DejaVuSans-20" x="693.798828"/>
     <use xlink:href="#DejaVuSans-66" x="725.585938"/>
     <use xlink:href="#DejaVuSans-34" x="760.791016"/>
     <use xlink:href="#DejaVuSans-2c" x="824.414062"/>
     <use xlink:href="#DejaVuSans-20" x="856.201172"/>
     <use xlink:href="#DejaVuSans-66" x="887.988281"/>
     <use xlink:href="#DejaVuSans-31" x="923.193359"/>
     <use xlink:href="#DejaVuSans-32" x="986.816406"/>
     <use xlink:href="#DejaVuSans-2c" x="1050.439453"/>
     <use xlink:href="#DejaVuSans-20" x="1082.226562"/>
     <use xlink:href="#DejaVuSans-66" x="1114.013672"/>
     <use xlink:href="#DejaVuSans-31" x="1149.21875"/>
     <use xlink:href="#DejaVuSans-33" x="1212.841797"/>
     <use xlink:href="#DejaVuSans-2c" x="1276.464844"/>
     <use xlink:href="#DejaVuSans-20" x="1308.251953"/>
     <use xlink:href="#DejaVuSans-35" x="1340.039062"/>
     <use xlink:href="#DejaVuSans-2d" x="1403.662109"/>
     <use xlink:href="#DejaVuSans-44" x="1439.746094"/>
    </g>
    <!-- 58 targets: 1..-1.0e-4 -->
    <g transform="translate(60.632064 29.004495) scale(0.102 -0.102)">
     <defs>
      <path id="DejaVuSans-3a" d="M 750 794 
L 1409 794 
L 1409 0 
L 750 0 
L 750 794 
z
M 750 3309 
L 1409 3309 
L 1409 2516 
L 750 2516 
L 750 3309 
z
" transform="scale(0.015625)"/>
     </defs>
     <use xlink:href="#DejaVuSans-35"/>
     <use xlink:href="#DejaVuSans-38" x="63.623047"/>
     <use xlink:href="#DejaVuSans-20" x="127.246094"/>
     <use xlink:href="#DejaVuSans-74" x="159.033203"/>
     <use xlink:href="#DejaVuSans-61" x="198.242188"/>
     <use xlink:href="#DejaVuSans-72" x="259.521484"/>
     <use xlink:href="#DejaVuSans-67" x="298.884766"/>
     <use xlink:href="#DejaVuSans-65" x="362.361328"/>
     <use xlink:href="#DejaVuSans-74" x="423.884766"/>
     <use xlink:href="#DejaVuSans-73" x="463.09375"/>
     <use xlink:href="#DejaVuSans-3a" x="515.193359"/>
     <use xlink:href="#DejaVuSans-20" x="548.884766"/>
     <use xlink:href="#DejaVuSans-31" x="580.671875"/>
     <use xlink:href="#DejaVuSans-2e" x="644.294922"/>
     <use xlink:href="#DejaVuSans-2e" x="676.082031"/>
     <use xlink:href="#DejaVuSans-2d" x="707.869141"/>
     <use xlink:href="#DejaVuSans-31" x="743.953125"/>
     <use xlink:href="#DejaVuSans-2e" x="807.576172"/>
     <use xlink:href="#DejaVuSans-30" x="839.363281"/>
     <use xlink:href="#DejaVuSans-65" x="902.986328"/>
     <use xlink:href="#DejaVuSans-2d" x="964.509766"/>
     <use xlink:href="#DejaVuSans-34" x="1000.59375"/>
    </g>
    <!-- 10 instances -->
    <g transform="translate(60.632064 40.426264) scale(0.102 -0.102)">
     <use xlink:href="#DejaVuSans-31"/>
     <use xlink:href="#DejaVuSans-30" x="63.623047"/>
     <use xlink:href="#DejaVuSans-20" x="127.246094"/>
     <use xlink:href="#DejaVuSans-69" x="159.033203"/>
     <use xlink:href="#DejaVuSans-6e" x="186.816406"/>
     <use xlink:href="#DejaVuSans-73" x="250.195312"/>
     <use xlink:href="#DejaVuSans-74" x="302.294922"/>
     <use xlink:href="#DejaVuSans-61" x="341.503906"/>
     <use xlink:href="#DejaVuSans-6e" x="402.783203"/>
     <use xlink:href="#DejaVuSans-63" x="466.162109"/>
     <use xlink:href="#DejaVuSans-65" x="521.142578"/>
     <use xlink:href="#DejaVuSans-73" x="582.666016"/>
    </g>
   </g>
   <g id="text_17">
    <!-- v2.6, hv-hash=ff0e71e8cd978373 -->
    <g style="fill: #808080" transform="translate(123.707887 293.943992) scale(0.1 -0.1)">
     <defs>
      <path id="DejaVuSans-68" d="M 3513 2113 
L 3513 0 
L 2938 0 
L 2938 2094 
Q 2938 2591 2744 2837 
Q 2550 3084 2163 3084 
Q 1697 3084 1428 2787 
Q 1159 2491 1159 1978 
L 1159 0 
L 581 0 
L 581 4863 
L 1159 4863 
L 1159 2956 
Q 1366 3272 1645 3428 
Q 1925 3584 2291 3584 
Q 2894 3584 3203 3211 
Q 3513 2838 3513 2113 
z
" transform="scale(0.015625)"/>
      <path id="DejaVuSans-3d" d="M 678 2906 
L 4684 2906 
L 4684 2381 
L 678 2381 
L 678 2906 
z
M 678 1631 
L 4684 1631 
L 4684 1100 
L 678 1100 
L 678 1631 
z
" transform="scale(0.015625)"/>
      <path id="DejaVuSans-37" d="M 525 4666 
L 3525 4666 
L 3525 4397 
L 1831 0 
L 1172 0 
L 2766 4134 
L 525 4134 
L 525 4666 
z
" transform="scale(0.015625)"/>
      <path id="DejaVuSans-39" d="M 703 97 
L 703 672 
Q 941 559 1184 500 
Q 1428 441 1663 441 
Q 2288 441 2617 861 
Q 2947 1281 2994 2138 
Q 2813 1869 2534 1725 
Q 2256 1581 1919 1581 
Q 1219 1581 811 2004 
Q 403 2428 403 3163 
Q 403 3881 828 4315 
Q 1253 4750 1959 4750 
Q 2769 4750 3195 4129 
Q 3622 3509 3622 2328 
Q 3622 1225 3098 567 
Q 2575 -91 1691 -91 
Q 1453 -91 1209 -44 
Q 966 3 703 97 
z
M 1959 2075 
Q 2384 2075 2632 2365 
Q 2881 2656 2881 3163 
Q 2881 3666 2632 3958 
Q 2384 4250 1959 4250 
Q 1534 4250 1286 3958 
Q 1038 3666 1038 3163 
Q 1038 2656 1286 2365 
Q 1534 2075 1959 2075 
z
" transform="scale(0.015625)"/>
     </defs>
     <use xlink:href="#DejaVuSans-76"/>
     <use xlink:href="#DejaVuSans-32" x="59.179688"/>
     <use xlink:href="#DejaVuSans-2e" x="122.802734"/>
     <use xlink:href="#DejaVuSans-36" x="154.589844"/>
     <use xlink:href="#DejaVuSans-2c" x="218.212891"/>
     <use xlink:href="#DejaVuSans-20" x="250"/>
     <use xlink:href="#DejaVuSans-68" x="281.787109"/>
     <use xlink:href="#DejaVuSans-76" x="345.166016"/>
     <use xlink:href="#DejaVuSans-2d" x="401.720703"/>
     <use xlink:href="#DejaVuSans-68" x="437.804688"/>
     <use xlink:href="#DejaVuSans-61" x="501.183594"/>
     <use xlink:href="#DejaVuSans-73" x="562.462891"/>
     <use xlink:href="#DejaVuSans-68" x="614.5625"/>
     <use xlink:href="#DejaVuSans-3d" x="677.941406"/>
     <use xlink:href="#DejaVuSans-66" x="761.730469"/>
     <use xlink:href="#DejaVuSans-66" x="796.935547"/>
     <use xlink:href="#DejaVuSans-30" x="832.140625"/>
     <use xlink:href="#DejaVuSans-65" x="895.763672"/>
     <use xlink:href="#DejaVuSans-37" x="957.287109"/>
     <use xlink:href="#DejaVuSans-31" x="1020.910156"/>
     <use xlink:href="#DejaVuSans-65" x="1084.533203"/>
     <use xlink:href="#DejaVuSans-38" x="1146.056641"/>
     <use xlink:href="#DejaVuSans-63" x="1209.679688"/>
     <use xlink:href="#DejaVuSans-64" x="1264.660156"/>
     <use xlink:href="#DejaVuSans-39" x="1328.136719"/>
     <use xlink:href="#DejaVuSans-37" x="1391.759766"/>
     <use xlink:href="#DejaVuSans-38" x="1455.382812"/>
     <use xlink:href="#DejaVuSans-33" x="1519.005859"/>
     <use xlink:href="#DejaVuSans-37" x="1582.628906"/>
     <use xlink:href="#DejaVuSans-33" x="1646.251953"/>
    </g>
   </g>
  </g>
 </g>
 <defs>
  <clipPath id="p60d57823dc">
   <rect x="57.6" y="6.912" width="303.2064" height="292.032"/>
  </clipPath>
 </defs>
</svg>
