<?xml version="1.0" encoding="utf-8" standalone="no"?>
<!DOCTYPE svg PUBLIC "-//W3C//DTD SVG 1.1//EN"
  "http://www.w3.org/Graphics/SVG/1.1/DTD/svg11.dtd">
<svg xmlns:xlink="http://www.w3.org/1999/xlink" width="460.8pt" height="345.6pt" viewBox="0 0 460.8 345.6" xmlns="http://www.w3.org/2000/svg" version="1.1">
 <metadata>
  <rdf:RDF xmlns:dc="http://purl.org/dc/elements/1.1/" xmlns:cc="http://creativecommons.org/ns#" xmlns:rdf="http://www.w3.org/1999/02/22-rdf-syntax-ns#">
   <cc:Work>
    <dc:type rdf:resource="http://purl.org/dc/dcmitype/StillImage"/>
    <dc:date>2023-02-13T15:00:00.726099</dc:date>
    <dc:format>image/svg+xml</dc:format>
    <dc:creator>
     <cc:Agent>
      <dc:title>Matplotlib v3.6.3, https://matplotlib.org/</dc:title>
     </cc:Agent>
    </dc:creator>
   </cc:Work>
  </rdf:RDF>
 </metadata>
 <defs>
  <style type="text/css">*{stroke-linejoin: round; stroke-linecap: butt}</style>
 </defs>
 <g id="figure_1">
  <g id="patch_1">
   <path d="M 0 345.6 
L 460.8 345.6 
L 460.8 0 
L 0 0 
z
" style="fill: #ffffff"/>
  </g>
  <g id="axes_1">
   <g id="patch_2">
    <path d="M 57.6 298.944 
L 360.8064 298.944 
L 360.8064 6.912 
L 57.6 6.912 
z
" style="fill: #ffffff"/>
   </g>
   <g id="line2d_1">
    <path d="M 27.323974 298.944 
L 27.323974 296.426483 
L 47.990577 296.426483 
L 47.990577 293.908966 
L 53.402323 293.908966 
L 53.402323 288.873931 
L 61.029752 288.873931 
L 61.029752 286.356414 
L 68.65718 286.356414 
L 68.65718 281.321379 
L 70.639174 281.321379 
L 70.639174 278.803862 
L 76.96874 278.803862 
L 76.96874 277.545103 
L 79.480672 277.545103 
L 79.480672 275.027586 
L 86.307488 275.027586 
L 86.307488 269.992552 
L 87.1081 269.992552 
L 87.1081 267.475034 
L 91.922605 267.475034 
L 91.922605 263.698759 
L 93.098709 263.698759 
L 93.098709 261.181241 
L 94.205591 261.181241 
L 94.205591 259.922483 
L 96.717523 259.922483 
L 96.717523 258.663724 
L 98.077987 258.663724 
L 98.077987 257.404966 
L 104.028784 257.404966 
L 104.028784 254.887448 
L 104.655893 254.887448 
L 104.655893 251.111172 
L 106.699465 251.111172 
L 106.699465 248.593655 
L 106.974091 248.593655 
L 106.974091 244.817379 
L 112.385837 244.817379 
L 112.385837 243.558621 
L 113.381389 243.558621 
L 113.381389 241.041103 
L 116.419219 241.041103 
L 116.419219 238.523586 
L 120.813877 238.523586 
L 120.813877 232.229793 
L 127.18073 232.229793 
L 127.18073 230.971034 
L 128.000734 230.971034 
L 128.000734 229.712276 
L 129.458394 229.712276 
L 129.458394 227.194759 
L 131.115828 227.194759 
L 131.115828 223.418483 
L 136.92008 223.418483 
L 136.92008 220.900966 
L 138.36167 220.900966 
L 138.412998 215.865931 
L 140.905699 215.865931 
L 140.905699 213.348414 
L 146.057504 213.348414 
L 146.057504 210.830897 
L 146.362288 210.830897 
L 146.362288 207.054621 
L 146.529503 207.054621 
L 146.529503 203.278345 
L 148.216198 203.278345 
L 148.216198 200.760828 
L 153.650761 200.760828 
L 153.650761 198.24331 
L 153.944874 198.24331 
L 153.944874 196.984552 
L 154.388563 196.984552 
L 154.388563 194.467034 
L 155.495444 194.467034 
L 155.495444 191.949517 
L 160.190875 191.949517 
L 160.190875 189.432 
L 160.415015 189.432 
L 160.415015 185.655724 
L 162.520739 185.655724 
L 162.520739 184.396966 
L 163.773012 184.396966 
L 163.773012 181.879448 
L 166.984048 181.879448 
L 166.984048 180.62069 
L 167.4058 180.62069 
L 167.4058 178.103172 
L 169.442591 178.103172 
L 169.442591 174.326897 
L 172.88875 174.326897 
L 172.88875 170.550621 
L 178.46176 170.550621 
L 178.46176 168.033103 
L 178.698081 168.033103 
L 178.698081 166.774345 
L 182.383017 166.774345 
L 182.383017 165.515586 
L 184.589896 165.515586 
L 184.589896 164.256828 
L 184.730249 164.256828 
L 184.730249 161.73931 
L 185.183561 161.73931 
L 185.183561 157.963034 
L 186.469476 157.963034 
L 186.469476 154.186759 
L 189.297444 154.186759 
L 189.297444 150.410483 
L 196.190909 150.410483 
L 196.190909 149.151724 
L 196.459852 149.151724 
L 196.459852 146.634207 
L 196.945428 146.634207 
L 196.945428 145.375448 
L 197.358587 145.375448 
L 197.358587 144.11669 
L 204.078689 144.11669 
L 204.078689 142.857931 
L 204.944285 142.857931 
L 204.944285 139.081655 
L 206.451849 139.081655 
L 206.451849 135.305379 
L 207.053566 135.305379 
L 207.053566 131.529103 
L 212.42793 131.529103 
L 212.42793 127.752828 
L 213.692486 127.752828 
L 213.692486 125.23531 
L 215.520912 125.23531 
L 215.520912 123.976552 
L 217.901218 123.976552 
L 217.901218 121.459034 
L 220.601956 121.459034 
L 220.601956 120.200276 
L 223.771695 120.200276 
L 223.771695 118.941517 
L 225.492646 118.941517 
L 225.492646 117.682759 
L 227.668079 117.682759 
L 227.668079 113.906483 
L 229.9974 113.906483 
L 229.9974 110.130207 
L 232.580396 110.130207 
L 232.580396 106.353931 
L 235.555696 106.353931 
L 235.555696 103.836414 
L 236.10371 103.836414 
L 236.10371 100.060138 
L 237.660114 100.060138 
L 237.660114 97.542621 
L 238.215881 97.542621 
L 238.215881 96.283862 
L 242.241253 96.283862 
L 242.241253 93.766345 
L 244.165591 93.766345 
L 244.165591 91.248828 
L 245.603425 91.248828 
L 245.672888 86.213793 
L 246.557065 86.213793 
L 246.557065 84.955034 
L 250.937732 84.955034 
L 250.937732 82.437517 
L 251.707381 82.437517 
L 251.707381 79.92 
L 253.304367 79.92 
L 253.304367 78.661241 
L 253.852901 78.661241 
L 253.852901 74.884966 
L 257.877649 74.884966 
L 257.877649 71.10869 
L 258.837387 71.10869 
L 258.939063 66.073655 
L 259.030347 66.073655 
L 259.030347 63.556138 
L 261.168928 63.556138 
L 261.168928 61.038621 
L 264.350132 61.038621 
L 264.350132 59.779862 
L 265.223533 59.779862 
L 265.223533 56.003586 
L 268.432673 56.003586 
L 268.432673 53.486069 
L 273.541593 53.486069 
L 273.541593 49.709793 
L 282.855778 49.709793 
L 282.855778 48.451034 
L 285.971304 48.451034 
L 285.971304 45.933517 
L 288.466161 45.933517 
L 288.466161 42.157241 
L 360.8064 42.157241 
L 360.8064 42.157241 
" style="fill: none; stroke: #f5deb3; stroke-width: 4; stroke-linecap: square"/>
   </g>
   <g id="line2d_2">
    <defs>
     <path id="m6b7f4e13ff" d="M -0 7.778175 
L 7.778175 0 
L 0 -7.778175 
L -7.778175 -0 
z
" style="stroke: #f5deb3; stroke-width: 1.5; stroke-linejoin: miter"/>
    </defs>
    <g>
     <use xlink:href="#m6b7f4e13ff" x="70.639174" y="281.321379" style="fill: #f5deb3; stroke: #f5deb3; stroke-width: 1.5; stroke-linejoin: miter"/>
     <use xlink:href="#m6b7f4e13ff" x="153.650761" y="198.24331" style="fill: #f5deb3; stroke: #f5deb3; stroke-width: 1.5; stroke-linejoin: miter"/>
     <use xlink:href="#m6b7f4e13ff" x="197.358587" y="145.375448" style="fill: #f5deb3; stroke: #f5deb3; stroke-width: 1.5; stroke-linejoin: miter"/>
     <use xlink:href="#m6b7f4e13ff" x="273.541593" y="53.486069" style="fill: #f5deb3; stroke: #f5deb3; stroke-width: 1.5; stroke-linejoin: miter"/>
     <use xlink:href="#m6b7f4e13ff" x="288.466161" y="42.157241" style="fill: #f5deb3; stroke: #f5deb3; stroke-width: 1.5; stroke-linejoin: miter"/>
     <use xlink:href="#m6b7f4e13ff" x="360.8064" y="42.157241" style="fill: #f5deb3; stroke: #f5deb3; stroke-width: 1.5; stroke-linejoin: miter"/>
    </g>
   </g>
   <g id="line2d_3">
    <path style="fill: none; stroke: #f5deb3; stroke-width: 4; stroke-linecap: square"/>
    <g/>
   </g>
   <g id="line2d_4">
    <path d="M 360.8064 42.157241 
L 380.514816 12.75264 
" style="fill: none; stroke: #f5deb3; stroke-width: 4; stroke-linecap: square"/>
    <g>
     <use xlink:href="#m6b7f4e13ff" x="360.8064" y="42.157241" style="fill: #f5deb3; stroke: #f5deb3; stroke-width: 1.5; stroke-linejoin: miter"/>
     <use xlink:href="#m6b7f4e13ff" x="380.514816" y="12.75264" style="fill: #f5deb3; stroke: #f5deb3; stroke-width: 1.5; stroke-linejoin: miter"/>
    </g>
   </g>
   <g id="matplotlib.axis_1">
    <g id="xtick_1">
     <g id="line2d_5">
      <path d="M 57.6 298.944 
L 57.6 6.912 
" clip-path="url(#p1334d3d325)" style="fill: none; stroke: #b0b0b0; stroke-width: 0.8; stroke-linecap: square"/>
     </g>
     <g id="line2d_6">
      <defs>
       <path id="m513f886eab" d="M 0 0 
L 0 3.5 
" style="stroke: #000000; stroke-width: 0.8"/>
      </defs>
      <g>
       <use xlink:href="#m513f886eab" x="57.6" y="298.944" style="stroke: #000000; stroke-width: 0.8"/>
      </g>
     </g>
     <g id="text_1">
      <!-- 0 -->
      <g transform="translate(52.191875 318.861344) scale(0.17 -0.17)">
       <defs>
        <path id="DejaVuSans-30" d="M 2034 4250 
Q 1547 4250 1301 3770 
Q 1056 3291 1056 2328 
Q 1056 1369 1301 889 
Q 1547 409 2034 409 
Q 2525 409 2770 889 
Q 3016 1369 3016 2328 
Q 3016 3291 2770 3770 
Q 2525 4250 2034 4250 
z
M 2034 4750 
Q 2819 4750 3233 4129 
Q 3647 3509 3647 2328 
Q 3647 1150 3233 529 
Q 2819 -91 2034 -91 
Q 1250 -91 836 529 
Q 422 1150 422 2328 
Q 422 3509 836 4129 
Q 1250 4750 2034 4750 
z
" transform="scale(0.015625)"/>
       </defs>
       <use xlink:href="#DejaVuSans-30"/>
      </g>
     </g>
    </g>
    <g id="xtick_2">
     <g id="line2d_7">
      <path d="M 144.2304 298.944 
L 144.2304 6.912 
" clip-path="url(#p1334d3d325)" style="fill: none; stroke: #b0b0b0; stroke-width: 0.8; stroke-linecap: square"/>
     </g>
     <g id="line2d_8">
      <g>
       <use xlink:href="#m513f886eab" x="144.2304" y="298.944" style="stroke: #000000; stroke-width: 0.8"/>
      </g>
     </g>
     <g id="text_2">
      <!-- 2 -->
      <g transform="translate(138.822275 318.861344) scale(0.17 -0.17)">
       <defs>
        <path id="DejaVuSans-32" d="M 1228 531 
L 3431 531 
L 3431 0 
L 469 0 
L 469 531 
Q 828 903 1448 1529 
Q 2069 2156 2228 2338 
Q 2531 2678 2651 2914 
Q 2772 3150 2772 3378 
Q 2772 3750 2511 3984 
Q 2250 4219 1831 4219 
Q 1534 4219 1204 4116 
Q 875 4013 500 3803 
L 500 4441 
Q 881 4594 1212 4672 
Q 1544 4750 1819 4750 
Q 2544 4750 2975 4387 
Q 3406 4025 3406 3419 
Q 3406 3131 3298 2873 
Q 3191 2616 2906 2266 
Q 2828 2175 2409 1742 
Q 1991 1309 1228 531 
z
" transform="scale(0.015625)"/>
       </defs>
       <use xlink:href="#DejaVuSans-32"/>
      </g>
     </g>
    </g>
    <g id="xtick_3">
     <g id="line2d_9">
      <path d="M 230.8608 298.944 
L 230.8608 6.912 
" clip-path="url(#p1334d3d325)" style="fill: none; stroke: #b0b0b0; stroke-width: 0.8; stroke-linecap: square"/>
     </g>
     <g id="line2d_10">
      <g>
       <use xlink:href="#m513f886eab" x="230.8608" y="298.944" style="stroke: #000000; stroke-width: 0.8"/>
      </g>
     </g>
     <g id="text_3">
      <!-- 4 -->
      <g transform="translate(225.452675 318.861344) scale(0.17 -0.17)">
       <defs>
        <path id="DejaVuSans-34" d="M 2419 4116 
L 825 1625 
L 2419 1625 
L 2419 4116 
z
M 2253 4666 
L 3047 4666 
L 3047 1625 
L 3713 1625 
L 3713 1100 
L 3047 1100 
L 3047 0 
L 2419 0 
L 2419 1100 
L 313 1100 
L 313 1709 
L 2253 4666 
z
" transform="scale(0.015625)"/>
       </defs>
       <use xlink:href="#DejaVuSans-34"/>
      </g>
     </g>
    </g>
    <g id="xtick_4">
     <g id="line2d_11">
      <path d="M 317.4912 298.944 
L 317.4912 6.912 
" clip-path="url(#p1334d3d325)" style="fill: none; stroke: #b0b0b0; stroke-width: 0.8; stroke-linecap: square"/>
     </g>
     <g id="line2d_12">
      <g>
       <use xlink:href="#m513f886eab" x="317.4912" y="298.944" style="stroke: #000000; stroke-width: 0.8"/>
      </g>
     </g>
     <g id="text_4">
      <!-- 6 -->
      <g transform="translate(312.083075 318.861344) scale(0.17 -0.17)">
       <defs>
        <path id="DejaVuSans-36" d="M 2113 2584 
Q 1688 2584 1439 2293 
Q 1191 2003 1191 1497 
Q 1191 994 1439 701 
Q 1688 409 2113 409 
Q 2538 409 2786 701 
Q 3034 994 3034 1497 
Q 3034 2003 2786 2293 
Q 2538 2584 2113 2584 
z
M 3366 4563 
L 3366 3988 
Q 3128 4100 2886 4159 
Q 2644 4219 2406 4219 
Q 1781 4219 1451 3797 
Q 1122 3375 1075 2522 
Q 1259 2794 1537 2939 
Q 1816 3084 2150 3084 
Q 2853 3084 3261 2657 
Q 3669 2231 3669 1497 
Q 3669 778 3244 343 
Q 2819 -91 2113 -91 
Q 1303 -91 875 529 
Q 447 1150 447 2328 
Q 447 3434 972 4092 
Q 1497 4750 2381 4750 
Q 2619 4750 2861 4703 
Q 3103 4656 3366 4563 
z
" transform="scale(0.015625)"/>
       </defs>
       <use xlink:href="#DejaVuSans-36"/>
      </g>
     </g>
    </g>
    <g id="xtick_5">
     <g id="line2d_13">
      <path d="M 100.9152 298.944 
L 100.9152 6.912 
" clip-path="url(#p1334d3d325)" style="fill: none; stroke: #b0b0b0; stroke-width: 0.8; stroke-linecap: square"/>
     </g>
     <g id="line2d_14">
      <defs>
       <path id="mfcff284867" d="M 0 0 
L 0 2 
" style="stroke: #000000; stroke-width: 0.6"/>
      </defs>
      <g>
       <use xlink:href="#mfcff284867" x="100.9152" y="298.944" style="stroke: #000000; stroke-width: 0.6"/>
      </g>
     </g>
    </g>
    <g id="xtick_6">
     <g id="line2d_15">
      <path d="M 187.5456 298.944 
L 187.5456 6.912 
" clip-path="url(#p1334d3d325)" style="fill: none; stroke: #b0b0b0; stroke-width: 0.8; stroke-linecap: square"/>
     </g>
     <g id="line2d_16">
      <g>
       <use xlink:href="#mfcff284867" x="187.5456" y="298.944" style="stroke: #000000; stroke-width: 0.6"/>
      </g>
     </g>
    </g>
    <g id="xtick_7">
     <g id="line2d_17">
      <path d="M 274.176 298.944 
L 274.176 6.912 
" clip-path="url(#p1334d3d325)" style="fill: none; stroke: #b0b0b0; stroke-width: 0.8; stroke-linecap: square"/>
     </g>
     <g id="line2d_18">
      <g>
       <use xlink:href="#mfcff284867" x="274.176" y="298.944" style="stroke: #000000; stroke-width: 0.6"/>
      </g>
     </g>
    </g>
    <g id="xtick_8">
     <g id="line2d_19">
      <path d="M 360.8064 298.944 
L 360.8064 6.912 
" clip-path="url(#p1334d3d325)" style="fill: none; stroke: #b0b0b0; stroke-width: 0.8; stroke-linecap: square"/>
     </g>
     <g id="line2d_20">
      <g>
       <use xlink:href="#mfcff284867" x="360.8064" y="298.944" style="stroke: #000000; stroke-width: 0.6"/>
      </g>
     </g>
    </g>
    <g id="text_5">
     <!-- log10(# f-evals / dimension) -->
     <g transform="translate(88.823278 339.314156) scale(0.17 -0.17)">
      <defs>
       <path id="DejaVuSans-6c" d="M 603 4863 
L 1178 4863 
L 1178 0 
L 603 0 
L 603 4863 
z
" transform="scale(0.015625)"/>
       <path id="DejaVuSans-6f" d="M 1959 3097 
Q 1497 3097 1228 2736 
Q 959 2375 959 1747 
Q 959 1119 1226 758 
Q 1494 397 1959 397 
Q 2419 397 2687 759 
Q 2956 1122 2956 1747 
Q 2956 2369 2687 2733 
Q 2419 3097 1959 3097 
z
M 1959 3584 
Q 2709 3584 3137 3096 
Q 3566 2609 3566 1747 
Q 3566 888 3137 398 
Q 2709 -91 1959 -91 
Q 1206 -91 779 398 
Q 353 888 353 1747 
Q 353 2609 779 3096 
Q 1206 3584 1959 3584 
z
" transform="scale(0.015625)"/>
       <path id="DejaVuSans-67" d="M 2906 1791 
Q 2906 2416 2648 2759 
Q 2391 3103 1925 3103 
Q 1463 3103 1205 2759 
Q 947 2416 947 1791 
Q 947 1169 1205 825 
Q 1463 481 1925 481 
Q 2391 481 2648 825 
Q 2906 1169 2906 1791 
z
M 3481 434 
Q 3481 -459 3084 -895 
Q 2688 -1331 1869 -1331 
Q 1566 -1331 1297 -1286 
Q 1028 -1241 775 -1147 
L 775 -588 
Q 1028 -725 1275 -790 
Q 1522 -856 1778 -856 
Q 2344 -856 2625 -561 
Q 2906 -266 2906 331 
L 2906 616 
Q 2728 306 2450 153 
Q 2172 0 1784 0 
Q 1141 0 747 490 
Q 353 981 353 1791 
Q 353 2603 747 3093 
Q 1141 3584 1784 3584 
Q 2172 3584 2450 3431 
Q 2728 3278 2906 2969 
L 2906 3500 
L 3481 3500 
L 3481 434 
z
" transform="scale(0.015625)"/>
       <path id="DejaVuSans-31" d="M 794 531 
L 1825 531 
L 1825 4091 
L 703 3866 
L 703 4441 
L 1819 4666 
L 2450 4666 
L 2450 531 
L 3481 531 
L 3481 0 
L 794 0 
L 794 531 
z
" transform="scale(0.015625)"/>
       <path id="DejaVuSans-28" d="M 1984 4856 
Q 1566 4138 1362 3434 
Q 1159 2731 1159 2009 
Q 1159 1288 1364 580 
Q 1569 -128 1984 -844 
L 1484 -844 
Q 1016 -109 783 600 
Q 550 1309 550 2009 
Q 550 2706 781 3412 
Q 1013 4119 1484 4856 
L 1984 4856 
z
" transform="scale(0.015625)"/>
       <path id="DejaVuSans-23" d="M 3272 2816 
L 2363 2816 
L 2100 1772 
L 3016 1772 
L 3272 2816 
z
M 2803 4594 
L 2478 3297 
L 3391 3297 
L 3719 4594 
L 4219 4594 
L 3897 3297 
L 4872 3297 
L 4872 2816 
L 3775 2816 
L 3519 1772 
L 4513 1772 
L 4513 1294 
L 3397 1294 
L 3072 0 
L 2572 0 
L 2894 1294 
L 1978 1294 
L 1656 0 
L 1153 0 
L 1478 1294 
L 494 1294 
L 494 1772 
L 1594 1772 
L 1856 2816 
L 850 2816 
L 850 3297 
L 1978 3297 
L 2297 4594 
L 2803 4594 
z
" transform="scale(0.015625)"/>
       <path id="DejaVuSans-20" transform="scale(0.015625)"/>
       <path id="DejaVuSans-66" d="M 2375 4863 
L 2375 4384 
L 1825 4384 
Q 1516 4384 1395 4259 
Q 1275 4134 1275 3809 
L 1275 3500 
L 2222 3500 
L 2222 3053 
L 1275 3053 
L 1275 0 
L 697 0 
L 697 3053 
L 147 3053 
L 147 3500 
L 697 3500 
L 697 3744 
Q 697 4328 969 4595 
Q 1241 4863 1831 4863 
L 2375 4863 
z
" transform="scale(0.015625)"/>
       <path id="DejaVuSans-2d" d="M 313 2009 
L 1997 2009 
L 1997 1497 
L 313 1497 
L 313 2009 
z
" transform="scale(0.015625)"/>
       <path id="DejaVuSans-65" d="M 3597 1894 
L 3597 1613 
L 953 1613 
Q 991 1019 1311 708 
Q 1631 397 2203 397 
Q 2534 397 2845 478 
Q 3156 559 3463 722 
L 3463 178 
Q 3153 47 2828 -22 
Q 2503 -91 2169 -91 
Q 1331 -91 842 396 
Q 353 884 353 1716 
Q 353 2575 817 3079 
Q 1281 3584 2069 3584 
Q 2775 3584 3186 3129 
Q 3597 2675 3597 1894 
z
M 3022 2063 
Q 3016 2534 2758 2815 
Q 2500 3097 2075 3097 
Q 1594 3097 1305 2825 
Q 1016 2553 972 2059 
L 3022 2063 
z
" transform="scale(0.015625)"/>
       <path id="DejaVuSans-76" d="M 191 3500 
L 800 3500 
L 1894 563 
L 2988 3500 
L 3597 3500 
L 2284 0 
L 1503 0 
L 191 3500 
z
" transform="scale(0.015625)"/>
       <path id="DejaVuSans-61" d="M 2194 1759 
Q 1497 1759 1228 1600 
Q 959 1441 959 1056 
Q 959 750 1161 570 
Q 1363 391 1709 391 
Q 2188 391 2477 730 
Q 2766 1069 2766 1631 
L 2766 1759 
L 2194 1759 
z
M 3341 1997 
L 3341 0 
L 2766 0 
L 2766 531 
Q 2569 213 2275 61 
Q 1981 -91 1556 -91 
Q 1019 -91 701 211 
Q 384 513 384 1019 
Q 384 1609 779 1909 
Q 1175 2209 1959 2209 
L 2766 2209 
L 2766 2266 
Q 2766 2663 2505 2880 
Q 2244 3097 1772 3097 
Q 1472 3097 1187 3025 
Q 903 2953 641 2809 
L 641 3341 
Q 956 3463 1253 3523 
Q 1550 3584 1831 3584 
Q 2591 3584 2966 3190 
Q 3341 2797 3341 1997 
z
" transform="scale(0.015625)"/>
       <path id="DejaVuSans-73" d="M 2834 3397 
L 2834 2853 
Q 2591 2978 2328 3040 
Q 2066 3103 1784 3103 
Q 1356 3103 1142 2972 
Q 928 2841 928 2578 
Q 928 2378 1081 2264 
Q 1234 2150 1697 2047 
L 1894 2003 
Q 2506 1872 2764 1633 
Q 3022 1394 3022 966 
Q 3022 478 2636 193 
Q 2250 -91 1575 -91 
Q 1294 -91 989 -36 
Q 684 19 347 128 
L 347 722 
Q 666 556 975 473 
Q 1284 391 1588 391 
Q 1994 391 2212 530 
Q 2431 669 2431 922 
Q 2431 1156 2273 1281 
Q 2116 1406 1581 1522 
L 1381 1569 
Q 847 1681 609 1914 
Q 372 2147 372 2553 
Q 372 3047 722 3315 
Q 1072 3584 1716 3584 
Q 2034 3584 2315 3537 
Q 2597 3491 2834 3397 
z
" transform="scale(0.015625)"/>
       <path id="DejaVuSans-2f" d="M 1625 4666 
L 2156 4666 
L 531 -594 
L 0 -594 
L 1625 4666 
z
" transform="scale(0.015625)"/>
       <path id="DejaVuSans-64" d="M 2906 2969 
L 2906 4863 
L 3481 4863 
L 3481 0 
L 2906 0 
L 2906 525 
Q 2725 213 2448 61 
Q 2172 -91 1784 -91 
Q 1150 -91 751 415 
Q 353 922 353 1747 
Q 353 2572 751 3078 
Q 1150 3584 1784 3584 
Q 2172 3584 2448 3432 
Q 2725 3281 2906 2969 
z
M 947 1747 
Q 947 1113 1208 752 
Q 1469 391 1925 391 
Q 2381 391 2643 752 
Q 2906 1113 2906 1747 
Q 2906 2381 2643 2742 
Q 2381 3103 1925 3103 
Q 1469 3103 1208 2742 
Q 947 2381 947 1747 
z
" transform="scale(0.015625)"/>
       <path id="DejaVuSans-69" d="M 603 3500 
L 1178 3500 
L 1178 0 
L 603 0 
L 603 3500 
z
M 603 4863 
L 1178 4863 
L 1178 4134 
L 603 4134 
L 603 4863 
z
" transform="scale(0.015625)"/>
       <path id="DejaVuSans-6d" d="M 3328 2828 
Q 3544 3216 3844 3400 
Q 4144 3584 4550 3584 
Q 5097 3584 5394 3201 
Q 5691 2819 5691 2113 
L 5691 0 
L 5113 0 
L 5113 2094 
Q 5113 2597 4934 2840 
Q 4756 3084 4391 3084 
Q 3944 3084 3684 2787 
Q 3425 2491 3425 1978 
L 3425 0 
L 2847 0 
L 2847 2094 
Q 2847 2600 2669 2842 
Q 2491 3084 2119 3084 
Q 1678 3084 1418 2786 
Q 1159 2488 1159 1978 
L 1159 0 
L 581 0 
L 581 3500 
L 1159 3500 
L 1159 2956 
Q 1356 3278 1631 3431 
Q 1906 3584 2284 3584 
Q 2666 3584 2933 3390 
Q 3200 3197 3328 2828 
z
" transform="scale(0.015625)"/>
       <path id="DejaVuSans-6e" d="M 3513 2113 
L 3513 0 
L 2938 0 
L 2938 2094 
Q 2938 2591 2744 2837 
Q 2550 3084 2163 3084 
Q 1697 3084 1428 2787 
Q 1159 2491 1159 1978 
L 1159 0 
L 581 0 
L 581 3500 
L 1159 3500 
L 1159 2956 
Q 1366 3272 1645 3428 
Q 1925 3584 2291 3584 
Q 2894 3584 3203 3211 
Q 3513 2838 3513 2113 
z
" transform="scale(0.015625)"/>
       <path id="DejaVuSans-29" d="M 513 4856 
L 1013 4856 
Q 1481 4119 1714 3412 
Q 1947 2706 1947 2009 
Q 1947 1309 1714 600 
Q 1481 -109 1013 -844 
L 513 -844 
Q 928 -128 1133 580 
Q 1338 1288 1338 2009 
Q 1338 2731 1133 3434 
Q 928 4138 513 4856 
z
" transform="scale(0.015625)"/>
      </defs>
      <use xlink:href="#DejaVuSans-6c"/>
      <use xlink:href="#DejaVuSans-6f" x="27.783203"/>
      <use xlink:href="#DejaVuSans-67" x="88.964844"/>
      <use xlink:href="#DejaVuSans-31" x="152.441406"/>
      <use xlink:href="#DejaVuSans-30" x="216.064453"/>
      <use xlink:href="#DejaVuSans-28" x="279.6875"/>
      <use xlink:href="#DejaVuSans-23" x="318.701172"/>
      <use xlink:href="#DejaVuSans-20" x="402.490234"/>
      <use xlink:href="#DejaVuSans-66" x="434.277344"/>
      <use xlink:href="#DejaVuSans-2d" x="463.982422"/>
      <use xlink:href="#DejaVuSans-65" x="500.066406"/>
      <use xlink:href="#DejaVuSans-76" x="561.589844"/>
      <use xlink:href="#DejaVuSans-61" x="620.769531"/>
      <use xlink:href="#DejaVuSans-6c" x="682.048828"/>
      <use xlink:href="#DejaVuSans-73" x="709.832031"/>
      <use xlink:href="#DejaVuSans-20" x="761.931641"/>
      <use xlink:href="#DejaVuSans-2f" x="793.71875"/>
      <use xlink:href="#DejaVuSans-20" x="827.410156"/>
      <use xlink:href="#DejaVuSans-64" x="859.197266"/>
      <use xlink:href="#DejaVuSans-69" x="922.673828"/>
      <use xlink:href="#DejaVuSans-6d" x="950.457031"/>
      <use xlink:href="#DejaVuSans-65" x="1047.869141"/>
      <use xlink:href="#DejaVuSans-6e" x="1109.392578"/>
      <use xlink:href="#DejaVuSans-73" x="1172.771484"/>
      <use xlink:href="#DejaVuSans-69" x="1224.871094"/>
      <use xlink:href="#DejaVuSans-6f" x="1252.654297"/>
      <use xlink:href="#DejaVuSans-6e" x="1313.835938"/>
      <use xlink:href="#DejaVuSans-29" x="1377.214844"/>
     </g>
    </g>
   </g>
   <g id="matplotlib.axis_2">
    <g id="ytick_1">
     <g id="line2d_21">
      <path d="M 57.6 298.944 
L 360.8064 298.944 
" clip-path="url(#p1334d3d325)" style="fill: none; stroke: #b0b0b0; stroke-width: 0.8; stroke-linecap: square"/>
     </g>
     <g id="line2d_22">
      <defs>
       <path id="m0a7f0a72ba" d="M 0 0 
L -3.5 0 
" style="stroke: #000000; stroke-width: 0.8"/>
      </defs>
      <g>
       <use xlink:href="#m0a7f0a72ba" x="57.6" y="298.944" style="stroke: #000000; stroke-width: 0.8"/>
      </g>
     </g>
     <g id="text_6">
      <!-- 0.0 -->
      <g transform="translate(25.155 305.02275) scale(0.16 -0.16)">
       <defs>
        <path id="DejaVuSans-2e" d="M 684 794 
L 1344 794 
L 1344 0 
L 684 0 
L 684 794 
z
" transform="scale(0.015625)"/>
       </defs>
       <use xlink:href="#DejaVuSans-30"/>
       <use xlink:href="#DejaVuSans-2e" x="63.623047"/>
       <use xlink:href="#DejaVuSans-30" x="95.410156"/>
      </g>
     </g>
    </g>
    <g id="ytick_2">
     <g id="line2d_23">
      <path d="M 57.6 240.5376 
L 360.8064 240.5376 
" clip-path="url(#p1334d3d325)" style="fill: none; stroke: #b0b0b0; stroke-width: 0.8; stroke-linecap: square"/>
     </g>
     <g id="line2d_24">
      <g>
       <use xlink:href="#m0a7f0a72ba" x="57.6" y="240.5376" style="stroke: #000000; stroke-width: 0.8"/>
      </g>
     </g>
     <g id="text_7">
      <!-- 0.2 -->
      <g transform="translate(25.155 246.61635) scale(0.16 -0.16)">
       <use xlink:href="#DejaVuSans-30"/>
       <use xlink:href="#DejaVuSans-2e" x="63.623047"/>
       <use xlink:href="#DejaVuSans-32" x="95.410156"/>
      </g>
     </g>
    </g>
    <g id="ytick_3">
     <g id="line2d_25">
      <path d="M 57.6 182.1312 
L 360.8064 182.1312 
" clip-path="url(#p1334d3d325)" style="fill: none; stroke: #b0b0b0; stroke-width: 0.8; stroke-linecap: square"/>
     </g>
     <g id="line2d_26">
      <g>
       <use xlink:href="#m0a7f0a72ba" x="57.6" y="182.1312" style="stroke: #000000; stroke-width: 0.8"/>
      </g>
     </g>
     <g id="text_8">
      <!-- 0.4 -->
      <g transform="translate(25.155 188.20995) scale(0.16 -0.16)">
       <use xlink:href="#DejaVuSans-30"/>
       <use xlink:href="#DejaVuSans-2e" x="63.623047"/>
       <use xlink:href="#DejaVuSans-34" x="95.410156"/>
      </g>
     </g>
    </g>
    <g id="ytick_4">
     <g id="line2d_27">
      <path d="M 57.6 123.7248 
L 360.8064 123.7248 
" clip-path="url(#p1334d3d325)" style="fill: none; stroke: #b0b0b0; stroke-width: 0.8; stroke-linecap: square"/>
     </g>
     <g id="line2d_28">
      <g>
       <use xlink:href="#m0a7f0a72ba" x="57.6" y="123.7248" style="stroke: #000000; stroke-width: 0.8"/>
      </g>
     </g>
     <g id="text_9">
      <!-- 0.6 -->
      <g transform="translate(25.155 129.80355) scale(0.16 -0.16)">
       <use xlink:href="#DejaVuSans-30"/>
       <use xlink:href="#DejaVuSans-2e" x="63.623047"/>
       <use xlink:href="#DejaVuSans-36" x="95.410156"/>
      </g>
     </g>
    </g>
    <g id="ytick_5">
     <g id="line2d_29">
      <path d="M 57.6 65.3184 
L 360.8064 65.3184 
" clip-path="url(#p1334d3d325)" style="fill: none; stroke: #b0b0b0; stroke-width: 0.8; stroke-linecap: square"/>
     </g>
     <g id="line2d_30">
      <g>
       <use xlink:href="#m0a7f0a72ba" x="57.6" y="65.3184" style="stroke: #000000; stroke-width: 0.8"/>
      </g>
     </g>
     <g id="text_10">
      <!-- 0.8 -->
      <g transform="translate(25.155 71.39715) scale(0.16 -0.16)">
       <defs>
        <path id="DejaVuSans-38" d="M 2034 2216 
Q 1584 2216 1326 1975 
Q 1069 1734 1069 1313 
Q 1069 891 1326 650 
Q 1584 409 2034 409 
Q 2484 409 2743 651 
Q 3003 894 3003 1313 
Q 3003 1734 2745 1975 
Q 2488 2216 2034 2216 
z
M 1403 2484 
Q 997 2584 770 2862 
Q 544 3141 544 3541 
Q 544 4100 942 4425 
Q 1341 4750 2034 4750 
Q 2731 4750 3128 4425 
Q 3525 4100 3525 3541 
Q 3525 3141 3298 2862 
Q 3072 2584 2669 2484 
Q 3125 2378 3379 2068 
Q 3634 1759 3634 1313 
Q 3634 634 3220 271 
Q 2806 -91 2034 -91 
Q 1263 -91 848 271 
Q 434 634 434 1313 
Q 434 1759 690 2068 
Q 947 2378 1403 2484 
z
M 1172 3481 
Q 1172 3119 1398 2916 
Q 1625 2713 2034 2713 
Q 2441 2713 2670 2916 
Q 2900 3119 2900 3481 
Q 2900 3844 2670 4047 
Q 2441 4250 2034 4250 
Q 1625 4250 1398 4047 
Q 1172 3844 1172 3481 
z
" transform="scale(0.015625)"/>
       </defs>
       <use xlink:href="#DejaVuSans-30"/>
       <use xlink:href="#DejaVuSans-2e" x="63.623047"/>
       <use xlink:href="#DejaVuSans-38" x="95.410156"/>
      </g>
     </g>
    </g>
    <g id="ytick_6">
     <g id="line2d_31">
      <path d="M 57.6 6.912 
L 360.8064 6.912 
" clip-path="url(#p1334d3d325)" style="fill: none; stroke: #b0b0b0; stroke-width: 0.8; stroke-linecap: square"/>
     </g>
     <g id="line2d_32">
      <g>
       <use xlink:href="#m0a7f0a72ba" x="57.6" y="6.912" style="stroke: #000000; stroke-width: 0.8"/>
      </g>
     </g>
     <g id="text_11">
      <!-- 1.0 -->
      <g transform="translate(25.155 12.99075) scale(0.16 -0.16)">
       <use xlink:href="#DejaVuSans-31"/>
       <use xlink:href="#DejaVuSans-2e" x="63.623047"/>
       <use xlink:href="#DejaVuSans-30" x="95.410156"/>
      </g>
     </g>
    </g>
    <g id="text_12">
     <!-- Fraction of function,target pairs -->
     <g transform="translate(17.619531 287.313) rotate(-90) scale(0.17 -0.17)">
      <defs>
       <path id="DejaVuSans-46" d="M 628 4666 
L 3309 4666 
L 3309 4134 
L 1259 4134 
L 1259 2759 
L 3109 2759 
L 3109 2228 
L 1259 2228 
L 1259 0 
L 628 0 
L 628 4666 
z
" transform="scale(0.015625)"/>
       <path id="DejaVuSans-72" d="M 2631 2963 
Q 2534 3019 2420 3045 
Q 2306 3072 2169 3072 
Q 1681 3072 1420 2755 
Q 1159 2438 1159 1844 
L 1159 0 
L 581 0 
L 581 3500 
L 1159 3500 
L 1159 2956 
Q 1341 3275 1631 3429 
Q 1922 3584 2338 3584 
Q 2397 3584 2469 3576 
Q 2541 3569 2628 3553 
L 2631 2963 
z
" transform="scale(0.015625)"/>
       <path id="DejaVuSans-63" d="M 3122 3366 
L 3122 2828 
Q 2878 2963 2633 3030 
Q 2388 3097 2138 3097 
Q 1578 3097 1268 2742 
Q 959 2388 959 1747 
Q 959 1106 1268 751 
Q 1578 397 2138 397 
Q 2388 397 2633 464 
Q 2878 531 3122 666 
L 3122 134 
Q 2881 22 2623 -34 
Q 2366 -91 2075 -91 
Q 1284 -91 818 406 
Q 353 903 353 1747 
Q 353 2603 823 3093 
Q 1294 3584 2113 3584 
Q 2378 3584 2631 3529 
Q 2884 3475 3122 3366 
z
" transform="scale(0.015625)"/>
       <path id="DejaVuSans-74" d="M 1172 4494 
L 1172 3500 
L 2356 3500 
L 2356 3053 
L 1172 3053 
L 1172 1153 
Q 1172 725 1289 603 
Q 1406 481 1766 481 
L 2356 481 
L 2356 0 
L 1766 0 
Q 1100 0 847 248 
Q 594 497 594 1153 
L 594 3053 
L 172 3053 
L 172 3500 
L 594 3500 
L 594 4494 
L 1172 4494 
z
" transform="scale(0.015625)"/>
       <path id="DejaVuSans-75" d="M 544 1381 
L 544 3500 
L 1119 3500 
L 1119 1403 
Q 1119 906 1312 657 
Q 1506 409 1894 409 
Q 2359 409 2629 706 
Q 2900 1003 2900 1516 
L 2900 3500 
L 3475 3500 
L 3475 0 
L 2900 0 
L 2900 538 
Q 2691 219 2414 64 
Q 2138 -91 1772 -91 
Q 1169 -91 856 284 
Q 544 659 544 1381 
z
M 1991 3584 
L 1991 3584 
z
" transform="scale(0.015625)"/>
       <path id="DejaVuSans-2c" d="M 750 794 
L 1409 794 
L 1409 256 
L 897 -744 
L 494 -744 
L 750 256 
L 750 794 
z
" transform="scale(0.015625)"/>
       <path id="DejaVuSans-70" d="M 1159 525 
L 1159 -1331 
L 581 -1331 
L 581 3500 
L 1159 3500 
L 1159 2969 
Q 1341 3281 1617 3432 
Q 1894 3584 2278 3584 
Q 2916 3584 3314 3078 
Q 3713 2572 3713 1747 
Q 3713 922 3314 415 
Q 2916 -91 2278 -91 
Q 1894 -91 1617 61 
Q 1341 213 1159 525 
z
M 3116 1747 
Q 3116 2381 2855 2742 
Q 2594 3103 2138 3103 
Q 1681 3103 1420 2742 
Q 1159 2381 1159 1747 
Q 1159 1113 1420 752 
Q 1681 391 2138 391 
Q 2594 391 2855 752 
Q 3116 1113 3116 1747 
z
" transform="scale(0.015625)"/>
      </defs>
      <use xlink:href="#DejaVuSans-46"/>
      <use xlink:href="#DejaVuSans-72" x="50.269531"/>
      <use xlink:href="#DejaVuSans-61" x="91.382812"/>
      <use xlink:href="#DejaVuSans-63" x="152.662109"/>
      <use xlink:href="#DejaVuSans-74" x="207.642578"/>
      <use xlink:href="#DejaVuSans-69" x="246.851562"/>
      <use xlink:href="#DejaVuSans-6f" x="274.634766"/>
      <use xlink:href="#DejaVuSans-6e" x="335.816406"/>
      <use xlink:href="#DejaVuSans-20" x="399.195312"/>
      <use xlink:href="#DejaVuSans-6f" x="430.982422"/>
      <use xlink:href="#DejaVuSans-66" x="492.164062"/>
      <use xlink:href="#DejaVuSans-20" x="527.369141"/>
      <use xlink:href="#DejaVuSans-66" x="559.15625"/>
      <use xlink:href="#DejaVuSans-75" x="594.361328"/>
      <use xlink:href="#DejaVuSans-6e" x="657.740234"/>
      <use xlink:href="#DejaVuSans-63" x="721.119141"/>
      <use xlink:href="#DejaVuSans-74" x="776.099609"/>
      <use xlink:href="#DejaVuSans-69" x="815.308594"/>
      <use xlink:href="#DejaVuSans-6f" x="843.091797"/>
      <use xlink:href="#DejaVuSans-6e" x="904.273438"/>
      <use xlink:href="#DejaVuSans-2c" x="967.652344"/>
      <use xlink:href="#DejaVuSans-74" x="999.439453"/>
      <use xlink:href="#DejaVuSans-61" x="1038.648438"/>
      <use xlink:href="#DejaVuSans-72" x="1099.927734"/>
      <use xlink:href="#DejaVuSans-67" x="1139.291016"/>
      <use xlink:href="#DejaVuSans-65" x="1202.767578"/>
      <use xlink:href="#DejaVuSans-74" x="1264.291016"/>
      <use xlink:href="#DejaVuSans-20" x="1303.5"/>
      <use xlink:href="#DejaVuSans-70" x="1335.287109"/>
      <use xlink:href="#DejaVuSans-61" x="1398.763672"/>
      <use xlink:href="#DejaVuSans-69" x="1460.042969"/>
      <use xlink:href="#DejaVuSans-72" x="1487.826172"/>
      <use xlink:href="#DejaVuSans-73" x="1528.939453"/>
     </g>
    </g>
   </g>
   <g id="line2d_33">
    <defs>
     <path id="mfe3ef6fbbb" d="M 0 1.5 
C 0.397805 1.5 0.77937 1.341951 1.06066 1.06066 
C 1.341951 0.77937 1.5 0.397805 1.5 0 
C 1.5 -0.397805 1.341951 -0.77937 1.06066 -1.06066 
C 0.77937 -1.341951 0.397805 -1.5 0 -1.5 
C -0.397805 -1.5 -0.77937 -1.341951 -1.06066 -1.06066 
C -1.341951 -0.77937 -1.5 -0.397805 -1.5 0 
C -1.5 0.397805 -1.341951 0.77937 -1.06066 1.06066 
C -0.77937 1.341951 -0.397805 1.5 0 1.5 
z
" style="stroke: #f5deb3"/>
    </defs>
    <g>
     <use xlink:href="#mfe3ef6fbbb" x="288.466161" y="42.157241" style="fill: #f5deb3; stroke: #f5deb3"/>
     <use xlink:href="#mfe3ef6fbbb" x="288.466161" y="42.157241" style="fill: #f5deb3; stroke: #f5deb3"/>
    </g>
   </g>
   <g id="line2d_34">
    <defs>
     <path id="m7d5decf14a" d="M 0 1.5 
C 0.397805 1.5 0.77937 1.341951 1.06066 1.06066 
C 1.341951 0.77937 1.5 0.397805 1.5 0 
C 1.5 -0.397805 1.341951 -0.77937 1.06066 -1.06066 
C 0.77937 -1.341951 0.397805 -1.5 0 -1.5 
C -0.397805 -1.5 -0.77937 -1.341951 -1.06066 -1.06066 
C -1.341951 -0.77937 -1.5 -0.397805 -1.5 0 
C -1.5 0.397805 -1.341951 0.77937 -1.06066 1.06066 
C -0.77937 1.341951 -0.397805 1.5 0 1.5 
z
" style="stroke: #000080"/>
    </defs>
    <g>
     <use xlink:href="#m7d5decf14a" x="208.473738" y="175.585655" style="fill: #000080; stroke: #000080"/>
     <use xlink:href="#m7d5decf14a" x="208.473738" y="175.585655" style="fill: #000080; stroke: #000080"/>
    </g>
   </g>
   <g id="line2d_35">
    <path d="M 27.323974 298.944 
L 27.323974 286.104662 
L 40.363149 286.104662 
L 40.363149 285.349407 
L 66.441498 285.349407 
L 66.441498 284.468276 
L 76.96874 284.468276 
L 76.96874 283.838897 
L 83.678349 283.838897 
L 83.678349 282.83189 
L 88.613828 282.83189 
L 88.613828 282.454262 
L 92.519847 282.454262 
L 92.519847 282.076634 
L 95.752617 282.076634 
L 95.752617 281.321379 
L 98.510456 281.321379 
L 98.510456 280.943752 
L 100.9152 280.943752 
L 100.9152 280.817876 
L 103.047088 280.817876 
L 103.047088 280.440248 
L 104.961779 280.440248 
L 104.961779 279.936745 
L 105.559021 279.936745 
L 105.559021 279.810869 
L 106.137884 279.810869 
L 106.137884 279.433241 
L 106.699465 279.433241 
L 106.699465 279.055614 
L 107.244765 279.055614 
L 107.244765 278.929738 
L 107.774703 278.929738 
L 107.774703 278.677986 
L 108.29012 278.677986 
L 108.29012 278.300359 
L 108.791791 278.300359 
L 108.791791 278.174483 
L 109.280431 278.174483 
L 109.280431 278.048607 
L 109.756698 278.048607 
L 109.756698 277.922731 
L 110.221204 277.922731 
L 110.221204 276.915724 
L 110.674517 276.915724 
L 110.674517 276.663972 
L 112.180244 276.663972 
L 112.180244 276.286345 
L 112.589207 276.286345 
L 112.589207 275.782841 
L 112.989468 275.782841 
L 112.989468 275.53109 
L 113.186449 275.53109 
L 113.186449 275.279338 
L 113.954374 275.279338 
L 113.954374 275.153462 
L 114.141556 275.153462 
L 114.141556 275.027586 
L 114.326893 275.027586 
L 114.326893 274.90171 
L 114.510421 274.90171 
L 114.510421 274.775834 
L 115.050503 274.775834 
L 115.050503 274.524083 
L 115.402131 274.524083 
L 115.402131 274.398207 
L 115.747307 274.398207 
L 115.747307 274.272331 
L 117.540239 274.272331 
L 117.540239 274.146455 
L 117.848632 274.146455 
L 117.848632 274.020579 
L 118.152051 274.020579 
L 118.152051 273.894703 
L 118.301945 273.894703 
L 118.301945 273.768828 
L 118.74459 273.768828 
L 118.74459 273.642952 
L 118.889854 273.642952 
L 118.889854 273.517076 
L 119.034004 273.517076 
L 119.034004 273.3912 
L 119.319033 273.3912 
L 119.319033 273.265324 
L 120.550775 273.265324 
L 120.550775 273.139448 
L 120.682786 273.139448 
L 120.682786 272.510069 
L 120.813877 272.510069 
L 120.813877 272.258317 
L 120.944062 272.258317 
L 120.944062 272.132441 
L 121.201758 272.132441 
L 121.201758 271.88069 
L 121.329295 271.88069 
L 121.329295 271.754814 
L 121.581803 271.754814 
L 121.581803 271.503062 
L 121.706797 271.503062 
L 121.706797 271.377186 
L 121.954321 271.377186 
L 121.954321 271.25131 
L 122.076872 271.25131 
L 122.076872 271.125434 
L 122.319605 271.125434 
L 122.319605 270.747807 
L 123.029559 270.747807 
L 123.029559 270.621931 
L 123.601383 270.621931 
L 123.601383 270.496055 
L 123.825333 270.496055 
L 123.825333 270.370179 
L 124.373813 270.370179 
L 124.373813 270.244303 
L 124.906754 270.244303 
L 124.906754 269.866676 
L 125.322496 269.866676 
L 125.322496 269.7408 
L 125.729248 269.7408 
L 125.829577 268.859669 
L 126.028642 268.859669 
L 126.127391 268.482041 
L 126.517282 268.482041 
L 126.613505 267.978538 
L 126.709238 267.978538 
L 126.709238 267.852662 
L 127.18073 267.852662 
L 127.18073 267.60091 
L 127.458055 267.60091 
L 127.458055 267.475034 
L 127.640693 267.475034 
L 127.640693 267.223283 
L 128.178203 267.223283 
L 128.266313 266.845655 
L 128.528195 266.845655 
L 128.528195 266.468028 
L 128.871795 266.468028 
L 128.956723 266.216276 
L 129.041269 266.216276 
L 129.041269 266.0904 
L 129.375706 266.0904 
L 129.375706 265.964524 
L 129.78556 265.964524 
L 129.78556 265.838648 
L 129.947033 265.838648 
L 129.947033 265.712772 
L 130.344755 265.712772 
L 130.4233 265.083393 
L 130.501519 265.083393 
L 130.501519 264.831641 
L 130.734242 264.831641 
L 130.734242 264.57989 
L 130.887807 264.57989 
L 130.887807 264.328138 
L 131.191226 264.328138 
L 131.191226 264.076386 
L 131.489828 264.076386 
L 131.563744 263.572883 
L 131.71071 263.572883 
L 131.71071 263.321131 
L 131.856536 263.321131 
L 131.929028 261.810621 
L 132.499119 261.810621 
L 132.499119 261.432993 
L 132.708526 261.432993 
L 132.708526 261.307117 
L 132.846847 261.307117 
L 132.915628 260.92949 
L 133.05244 260.92949 
L 133.05244 260.803614 
L 133.188264 260.803614 
L 133.188264 260.677738 
L 133.390178 260.677738 
L 133.457005 260.30011 
L 133.523594 260.30011 
L 133.523594 260.174234 
L 134.431915 260.174234 
L 134.431915 260.048359 
L 134.620977 260.048359 
L 134.620977 259.796607 
L 135.116046 259.796607 
L 135.177024 259.544855 
L 135.35878 259.544855 
L 135.35878 259.418979 
L 135.59842 259.418979 
L 135.657857 258.915476 
L 135.717106 258.915476 
L 135.717106 258.7896 
L 136.242113 258.7896 
L 136.242113 258.663724 
L 136.470828 258.663724 
L 136.470828 258.537848 
L 136.584151 258.537848 
L 136.584151 258.411972 
L 136.808769 258.411972 
L 136.864507 257.908469 
L 136.92008 257.908469 
L 136.92008 257.530841 
L 137.627979 257.530841 
L 137.734561 257.153214 
L 137.787626 257.153214 
L 137.787626 257.027338 
L 137.945929 257.027338 
L 137.945929 256.775586 
L 138.206842 256.775586 
L 138.310202 256.523834 
L 138.616919 256.523834 
L 138.616919 256.397959 
L 138.868751 256.397959 
L 138.918715 255.894455 
L 139.018248 255.894455 
L 139.067817 255.516828 
L 139.264798 255.516828 
L 139.264798 255.390952 
L 139.411192 255.390952 
L 139.411192 255.265076 
L 139.700607 255.265076 
L 139.700607 255.1392 
L 139.985636 255.1392 
L 140.032723 254.635697 
L 140.405242 254.635697 
L 140.405242 254.509821 
L 140.679868 254.509821 
L 140.725251 254.132193 
L 140.905699 254.132193 
L 140.905699 253.880441 
L 141.128852 253.880441 
L 141.128852 253.376938 
L 141.696956 253.376938 
L 141.696956 253.251062 
L 141.868361 253.251062 
L 141.868361 253.125186 
L 142.080444 253.125186 
L 142.080444 252.99931 
L 142.248405 252.99931 
L 142.248405 252.873434 
L 142.579895 252.873434 
L 142.579895 252.369931 
L 142.784148 252.369931 
L 142.784148 252.118179 
L 142.945969 252.118179 
L 143.02636 251.614676 
L 143.423243 251.614676 
L 143.423243 251.362924 
L 143.734829 251.362924 
L 143.734829 251.237048 
L 143.850356 251.237048 
L 143.850356 250.985297 
L 144.117191 250.985297 
L 144.117191 250.859421 
L 144.2304 250.859421 
L 144.267986 249.97829 
L 144.417581 249.97829 
L 144.454795 249.726538 
L 144.529002 249.726538 
L 144.529002 249.600662 
L 144.749884 249.600662 
L 144.85936 249.34891 
L 144.931992 249.34891 
L 144.931992 249.223034 
L 145.076419 249.223034 
L 145.076419 248.971283 
L 145.255407 248.971283 
L 145.255407 248.845407 
L 145.397382 248.845407 
L 145.397382 248.341903 
L 145.678157 248.341903 
L 145.712961 248.090152 
L 145.851536 248.090152 
L 145.886021 247.712524 
L 145.989098 247.712524 
L 145.989098 247.586648 
L 146.395851 247.586648 
L 146.395851 247.460772 
L 146.562769 247.460772 
L 146.562769 247.334897 
L 147.022411 247.334897 
L 147.022411 247.083145 
L 147.1517 247.083145 
L 147.216013 246.579641 
L 147.280107 246.579641 
L 147.280107 246.453766 
L 147.502732 246.453766 
L 147.534321 246.202014 
L 147.909315 246.202014 
L 148.001907 245.446759 
L 148.063382 245.446759 
L 148.063382 244.943255 
L 148.246613 244.943255 
L 148.246613 244.817379 
L 148.57797 244.817379 
L 148.637595 244.313876 
L 148.785835 244.313876 
L 148.785835 243.936248 
L 149.078856 243.936248 
L 149.165879 243.432745 
L 149.252502 243.432745 
L 149.338728 242.425738 
L 149.42456 242.425738 
L 149.42456 242.299862 
L 149.79204 242.299862 
L 149.875833 241.922234 
L 150.152479 241.922234 
L 150.234685 241.418731 
L 150.316534 241.418731 
L 150.316534 241.041103 
L 150.613636 241.041103 
L 150.613636 240.915228 
L 150.906118 240.915228 
L 150.906118 240.5376 
L 151.037576 240.5376 
L 151.142085 240.034097 
L 151.857828 240.034097 
L 151.857828 239.908221 
L 152.082223 239.908221 
L 152.082223 239.782345 
L 152.20574 239.782345 
L 152.25492 239.530593 
L 152.523139 239.530593 
L 152.523139 239.404717 
L 153.165721 239.404717 
L 153.165721 239.278841 
L 153.305585 239.278841 
L 153.305585 239.152966 
L 153.421349 239.152966 
L 153.513449 238.523586 
L 153.536404 238.523586 
L 153.536404 238.271834 
L 153.673549 238.271834 
L 153.741748 237.894207 
L 153.8097 237.894207 
L 153.8097 237.768331 
L 153.944874 237.768331 
L 154.034453 236.635448 
L 154.190197 236.635448 
L 154.190197 236.383697 
L 154.432362 236.383697 
L 154.476059 236.006069 
L 154.693034 236.006069 
L 154.693034 235.754317 
L 154.886195 235.754317 
L 154.886195 235.628441 
L 155.098517 235.628441 
L 155.203786 234.873186 
L 155.24573 234.873186 
L 155.24573 234.74731 
L 155.495444 234.74731 
L 155.536743 234.369683 
L 155.680579 234.369683 
L 155.762279 233.866179 
L 155.843627 233.866179 
L 155.843627 233.740303 
L 155.985143 233.740303 
L 155.985143 233.488552 
L 156.125604 233.488552 
L 156.125604 233.362676 
L 156.265023 233.362676 
L 156.265023 232.985048 
L 156.657763 232.985048 
L 156.696589 232.607421 
L 156.927882 232.607421 
L 157.004352 232.229793 
L 157.605171 232.229793 
L 157.715719 231.978041 
L 157.734081 231.978041 
L 157.752425 231.600414 
L 157.934885 231.600414 
L 158.043518 231.222786 
L 158.07959 231.222786 
L 158.187393 230.467531 
L 158.294582 230.467531 
L 158.294582 230.215779 
L 158.873444 230.215779 
L 158.873444 229.964028 
L 159.451784 229.964028 
L 159.451784 229.712276 
L 159.568678 229.712276 
L 159.618554 229.460524 
L 160.029123 229.460524 
L 160.110173 229.082897 
L 160.158636 229.082897 
L 160.158636 228.705269 
L 160.335271 228.705269 
L 160.383158 228.201766 
L 160.446818 228.201766 
L 160.526092 227.44651 
L 160.839886 227.44651 
L 160.886507 227.068883 
L 161.071844 227.068883 
L 161.071844 226.817131 
L 161.255373 226.817131 
L 161.285788 226.313628 
L 161.391854 226.313628 
L 161.467251 225.810124 
L 161.795455 225.810124 
L 161.88398 225.306621 
L 161.942766 225.306621 
L 162.001369 224.928993 
L 162.17609 224.928993 
L 162.277267 224.42549 
L 162.349204 224.42549 
L 162.349204 224.173738 
L 162.463734 224.173738 
L 162.463734 223.921986 
L 162.620084 223.921986 
L 162.648372 223.544359 
L 162.817213 223.544359 
L 162.817213 223.292607 
L 162.956765 223.292607 
L 162.956765 223.040855 
L 163.095289 223.040855 
L 163.205379 222.411476 
L 163.410077 222.411476 
L 163.423645 222.033848 
L 163.531835 222.033848 
L 163.531835 221.907972 
L 163.82619 221.907972 
L 163.905675 221.530345 
L 164.011136 221.530345 
L 164.102932 220.900966 
L 164.181259 220.900966 
L 164.233297 220.397462 
L 164.414303 220.397462 
L 164.491347 220.14571 
L 164.55531 220.14571 
L 164.619057 219.642207 
L 164.720604 219.642207 
L 164.80901 219.012828 
L 164.972099 219.012828 
L 164.984586 218.509324 
L 165.244914 218.509324 
L 165.244914 218.257572 
L 165.562313 218.257572 
L 165.658907 217.879945 
L 165.826761 217.879945 
L 165.850619 217.376441 
L 166.122826 217.376441 
L 166.122826 217.12469 
L 166.298254 217.12469 
L 166.356368 216.747062 
L 166.425869 216.747062 
L 166.495114 216.117683 
L 166.587046 216.117683 
L 166.587046 215.991807 
L 166.826251 215.991807 
L 166.927844 215.614179 
L 166.950346 215.614179 
L 166.950346 215.488303 
L 167.10711 215.488303 
L 167.207201 214.733048 
L 167.306762 214.733048 
L 167.361848 213.977793 
L 167.624034 213.977793 
L 167.732209 213.348414 
L 167.786064 213.348414 
L 167.807563 213.096662 
L 167.968026 213.096662 
L 167.968026 212.84491 
L 168.084835 212.84491 
L 168.084835 212.719034 
L 168.221954 212.719034 
L 168.242961 212.341407 
L 168.4725 212.341407 
L 168.575917 211.586152 
L 168.647973 211.586152 
L 168.647973 211.3344 
L 168.872652 211.3344 
L 168.913216 210.579145 
L 168.983993 210.579145 
L 168.983993 210.327393 
L 169.134768 210.327393 
L 169.174771 209.949766 
L 169.264469 209.949766 
L 169.343842 209.320386 
L 169.393282 209.320386 
L 169.481946 209.068634 
L 169.540824 209.068634 
L 169.628797 208.565131 
L 169.87103 208.565131 
L 169.880655 208.313379 
L 170.024438 208.313379 
L 170.110183 207.684 
L 170.355719 207.684 
L 170.411929 207.432248 
L 170.635104 207.432248 
L 170.745706 206.802869 
L 170.92861 206.802869 
L 171.010341 206.299366 
L 171.360458 206.299366 
L 171.387122 205.921738 
L 171.537509 205.921738 
L 171.555123 205.166483 
L 171.765213 205.166483 
L 171.860725 204.662979 
L 171.878039 204.662979 
L 171.895337 204.0336 
L 171.990192 204.0336 
L 172.076012 203.781848 
L 172.152916 203.781848 
L 172.237998 203.152469 
L 172.314244 203.152469 
L 172.407015 202.52309 
L 172.482581 202.52309 
L 172.482581 202.397214 
L 172.607852 202.397214 
L 172.71575 201.767834 
L 172.773594 201.767834 
L 172.79833 201.390207 
L 173.011355 201.390207 
L 173.084536 201.012579 
L 173.157433 201.012579 
L 173.213936 200.634952 
L 173.470098 200.634952 
L 173.493935 200.131448 
L 173.61267 200.131448 
L 173.683553 199.627945 
L 173.832324 199.627945 
L 173.910154 198.998566 
L 174.018578 198.998566 
L 174.018578 198.746814 
L 174.157069 198.746814 
L 174.157069 198.495062 
L 174.453679 198.495062 
L 174.528986 197.865683 
L 174.633911 197.865683 
L 174.701055 196.984552 
L 174.745685 196.984552 
L 174.745685 196.7328 
L 175.077078 196.7328 
L 175.178998 195.851669 
L 175.294806 195.851669 
L 175.388379 195.22229 
L 175.452888 195.22229 
L 175.552798 194.59291 
L 175.638014 194.59291 
L 175.743995 193.837655 
L 175.786221 193.837655 
L 175.800275 193.460028 
L 176.00289 193.460028 
L 176.00289 193.208276 
L 176.25827 193.208276 
L 176.25827 193.0824 
L 176.41529 193.0824 
L 176.456037 192.453021 
L 176.550771 192.453021 
L 176.550771 192.201269 
L 176.705378 192.201269 
L 176.785541 191.697766 
L 176.911772 191.697766 
L 176.911772 191.446014 
L 177.083146 191.446014 
L 177.142107 191.194262 
L 177.220434 191.194262 
L 177.252974 190.94251 
L 177.369655 190.94251 
L 177.453477 190.564883 
L 177.530521 190.564883 
L 177.600869 190.061379 
L 177.734443 190.061379 
L 177.841883 189.557876 
L 177.885946 189.557876 
L 177.885946 189.180248 
L 178.02376 189.180248 
L 178.09229 188.550869 
L 178.148176 188.550869 
L 178.148176 188.173241 
L 178.277932 188.173241 
L 178.277932 187.92149 
L 178.4068 187.92149 
L 178.437353 187.669738 
L 178.522639 187.669738 
L 178.522639 187.417986 
L 178.830093 187.417986 
L 178.937417 187.040359 
L 179.044133 187.040359 
L 179.044133 186.914483 
L 179.302473 186.914483 
L 179.354881 186.662731 
L 179.614753 186.662731 
L 179.706294 186.033352 
L 179.837108 186.033352 
L 179.933215 185.529848 
L 179.967018 185.529848 
L 180.062466 185.152221 
L 180.101628 185.152221 
L 180.168573 184.774593 
L 180.41202 184.774593 
L 180.41202 184.648717 
L 180.554408 184.648717 
L 180.581667 184.27109 
L 180.765989 184.27109 
L 180.782166 184.019338 
L 181.081618 184.019338 
L 181.102826 183.767586 
L 181.532404 183.767586 
L 181.532404 183.64171 
L 181.666588 183.64171 
L 181.728198 183.264083 
L 182.048381 183.264083 
L 182.048381 183.012331 
L 182.188953 183.012331 
L 182.188953 182.760579 
L 182.303643 182.760579 
L 182.303643 182.634703 
L 182.550582 182.634703 
L 182.638693 182.257076 
L 182.92464 182.257076 
L 182.92464 182.005324 
L 183.044505 182.005324 
L 183.15411 181.501821 
L 183.196826 181.501821 
L 183.196826 181.375945 
L 183.535105 181.375945 
L 183.535105 181.250069 
L 183.688139 181.250069 
L 183.743481 180.746566 
L 183.839939 180.746566 
L 183.839939 180.62069 
L 184.112838 180.62069 
L 184.175949 180.243062 
L 184.381836 180.243062 
L 184.381836 179.99131 
L 184.594298 179.99131 
L 184.594298 179.865434 
L 184.721507 179.865434 
L 184.721507 179.739559 
L 184.973374 179.739559 
L 184.973374 179.613683 
L 185.812768 179.613683 
L 185.812768 179.487807 
L 186.216807 179.487807 
L 186.216807 179.361931 
L 186.493364 179.361931 
L 186.493364 179.236055 
L 186.663677 179.236055 
L 186.663677 179.110179 
L 186.999746 179.110179 
L 186.999746 178.984303 
L 187.207738 178.984303 
L 187.207738 178.858428 
L 187.511709 178.858428 
L 187.511709 178.732552 
L 187.788574 178.732552 
L 187.799713 178.354924 
L 187.980719 178.354924 
L 187.980719 178.229048 
L 188.247192 178.229048 
L 188.247192 177.977297 
L 188.577732 177.977297 
L 188.577732 177.851421 
L 188.804294 177.851421 
L 188.804294 177.725545 
L 189.697633 177.725545 
L 189.761282 177.473793 
L 190.415291 177.473793 
L 190.463679 177.096166 
L 191.341721 177.096166 
L 191.341721 176.97029 
L 191.857305 176.97029 
L 191.857305 176.844414 
L 193.912751 176.844414 
L 193.912751 176.718538 
L 194.305557 176.718538 
L 194.305557 176.592662 
L 195.203103 176.592662 
L 195.203103 176.34091 
L 196.436413 176.34091 
L 196.436413 176.215034 
L 199.181136 176.215034 
L 199.181136 175.963283 
L 199.826645 175.963283 
L 199.826645 175.837407 
L 200.313827 175.837407 
L 200.313827 175.711531 
L 208.473738 175.711531 
L 208.473738 175.585655 
L 360.8064 175.585655 
L 360.8064 175.585655 
" style="fill: none; stroke: #000080; stroke-width: 1.5; stroke-linecap: square"/>
   </g>
   <g id="line2d_36">
    <defs>
     <path id="m7cac24218a" d="M 0 6 
C 1.591219 6 3.117479 5.367802 4.242641 4.242641 
C 5.367802 3.117479 6 1.591219 6 0 
C 6 -1.591219 5.367802 -3.117479 4.242641 -4.242641 
C 3.117479 -5.367802 1.591219 -6 0 -6 
C -1.591219 -6 -3.117479 -5.367802 -4.242641 -4.242641 
C -5.367802 -3.117479 -6 -1.591219 -6 0 
C -6 1.591219 -5.367802 3.117479 -4.242641 4.242641 
C -3.117479 5.367802 -1.591219 6 0 6 
z
" style="stroke: #000080; stroke-width: 1.5"/>
    </defs>
    <g>
     <use xlink:href="#m7cac24218a" x="107.244765" y="279.055614" style="fill-opacity: 0; stroke: #000080; stroke-width: 1.5"/>
     <use xlink:href="#m7cac24218a" x="166.425869" y="216.621186" style="fill-opacity: 0; stroke: #000080; stroke-width: 1.5"/>
     <use xlink:href="#m7cac24218a" x="208.473738" y="175.711531" style="fill-opacity: 0; stroke: #000080; stroke-width: 1.5"/>
     <use xlink:href="#m7cac24218a" x="208.473738" y="175.585655" style="fill-opacity: 0; stroke: #000080; stroke-width: 1.5"/>
     <use xlink:href="#m7cac24218a" x="208.473738" y="175.585655" style="fill-opacity: 0; stroke: #000080; stroke-width: 1.5"/>
     <use xlink:href="#m7cac24218a" x="360.8064" y="175.585655" style="fill-opacity: 0; stroke: #000080; stroke-width: 1.5"/>
    </g>
   </g>
   <g id="line2d_37">
    <path style="fill: none; stroke: #000080; stroke-width: 1.5; stroke-linecap: square"/>
    <g/>
   </g>
   <g id="line2d_38">
    <path d="M 230.859295 175.585655 
" clip-path="url(#p1334d3d325)" style="fill: none; stroke: #000080; stroke-width: 1.5; stroke-linecap: square"/>
    <defs>
     <path id="mdc3b106a1b" d="M -12 12 
L 12 -12 
M -12 -12 
L 12 12 
" style="stroke: #000080"/>
    </defs>
    <g clip-path="url(#p1334d3d325)">
     <use xlink:href="#mdc3b106a1b" x="230.859295" y="175.585655" style="fill: #000080; stroke: #000080"/>
    </g>
   </g>
   <g id="line2d_39">
    <defs>
     <path id="m68e71408d2" d="M 0 1.5 
C 0.397805 1.5 0.77937 1.341951 1.06066 1.06066 
C 1.341951 0.77937 1.5 0.397805 1.5 0 
C 1.5 -0.397805 1.341951 -0.77937 1.06066 -1.06066 
C 0.77937 -1.341951 0.397805 -1.5 0 -1.5 
C -0.397805 -1.5 -0.77937 -1.341951 -1.06066 -1.06066 
C -1.341951 -0.77937 -1.5 -0.397805 -1.5 0 
C -1.5 0.397805 -1.341951 0.77937 -1.06066 1.06066 
C -0.77937 1.341951 -0.397805 1.5 0 1.5 
z
" style="stroke: #ff00ff"/>
    </defs>
    <g>
     <use xlink:href="#m68e71408d2" x="220.158647" y="172.816386" style="fill: #ff00ff; stroke: #ff00ff"/>
     <use xlink:href="#m68e71408d2" x="220.158647" y="172.816386" style="fill: #ff00ff; stroke: #ff00ff"/>
    </g>
   </g>
   <g id="line2d_40">
    <path d="M 27.323974 298.944 
L 27.323974 286.104662 
L 40.363149 286.104662 
L 40.363149 285.223531 
L 72.432107 285.223531 
L 72.432107 283.713021 
L 83.678349 283.713021 
L 83.678349 282.454262 
L 90.668036 282.454262 
L 90.668036 281.321379 
L 95.752617 281.321379 
L 95.752617 281.069628 
L 99.751228 281.069628 
L 99.751228 279.810869 
L 103.047088 279.810869 
L 103.047088 278.677986 
L 105.850679 278.677986 
L 105.850679 277.922731 
L 108.29012 277.922731 
L 108.29012 277.293352 
L 110.449226 277.293352 
L 110.449226 276.915724 
L 112.385837 276.915724 
L 112.385837 276.412221 
L 114.141556 276.412221 
L 114.141556 276.034593 
L 115.747307 276.034593 
L 115.747307 275.153462 
L 117.226706 275.153462 
L 117.226706 274.524083 
L 118.598196 274.524083 
L 118.598196 274.020579 
L 119.876453 274.020579 
L 119.876453 273.768828 
L 121.073351 273.768828 
L 121.073351 272.132441 
L 122.19863 272.132441 
L 122.19863 271.503062 
L 123.260379 271.503062 
L 123.260379 271.125434 
L 124.265389 271.125434 
L 124.265389 270.747807 
L 125.219419 270.747807 
L 125.219419 270.244303 
L 126.127391 270.244303 
L 126.127391 269.614924 
L 126.993549 269.614924 
L 126.993549 269.237297 
L 127.821575 269.237297 
L 127.821575 268.23029 
L 128.614685 268.23029 
L 128.614685 267.852662 
L 129.375706 267.852662 
L 129.375706 267.097407 
L 130.107132 267.097407 
L 130.107132 266.971531 
L 130.811181 266.971531 
L 130.811181 266.468028 
L 131.489828 266.468028 
L 131.489828 266.0904 
L 132.144842 266.0904 
L 132.144842 265.964524 
L 132.777813 265.964524 
L 132.777813 265.335145 
L 133.390178 265.335145 
L 133.390178 264.454014 
L 133.983236 264.454014 
L 133.983236 263.698759 
L 134.558167 263.698759 
L 134.558167 263.069379 
L 135.116046 263.069379 
L 135.116046 262.44 
L 135.657857 262.44 
L 135.657857 261.810621 
L 136.184497 261.810621 
L 136.184497 261.181241 
L 136.696795 261.181241 
L 136.696795 260.677738 
L 137.195511 260.677738 
L 137.195511 260.30011 
L 137.681345 260.30011 
L 137.681345 260.174234 
L 138.154948 260.174234 
L 138.154948 259.796607 
L 138.616919 259.796607 
L 138.616919 259.167228 
L 139.067817 259.167228 
L 139.067817 258.7896 
L 139.508159 258.7896 
L 139.508159 258.663724 
L 139.93843 258.663724 
L 139.93843 258.160221 
L 140.359078 258.160221 
L 140.359078 258.034345 
L 140.770526 258.034345 
L 140.770526 257.908469 
L 141.173167 257.908469 
L 141.173167 257.530841 
L 141.56737 257.530841 
L 141.56737 257.027338 
L 141.953481 257.027338 
L 141.953481 256.397959 
L 142.331827 256.397959 
L 142.331827 255.642703 
L 143.066428 255.642703 
L 143.066428 255.1392 
L 143.423243 255.1392 
L 143.423243 254.509821 
L 144.117191 254.509821 
L 144.117191 254.258069 
L 144.454795 254.258069 
L 144.454795 254.132193 
L 144.786447 254.132193 
L 144.786447 253.880441 
L 145.112353 253.880441 
L 145.112353 253.754566 
L 145.432709 253.754566 
L 145.432709 253.376938 
L 145.7477 253.376938 
L 145.7477 252.747559 
L 146.057504 252.747559 
L 146.057504 251.866428 
L 146.362288 251.866428 
L 146.362288 251.237048 
L 146.662213 251.237048 
L 146.662213 250.230041 
L 146.957431 250.230041 
L 146.957431 249.726538 
L 147.248088 249.726538 
L 147.248088 249.600662 
L 147.534321 249.600662 
L 147.534321 249.474786 
L 147.816265 249.474786 
L 147.816265 249.097159 
L 148.094045 249.097159 
L 148.094045 248.719531 
L 148.367783 248.719531 
L 148.367783 248.593655 
L 149.165879 248.593655 
L 149.165879 248.467779 
L 149.42456 248.467779 
L 149.42456 247.964276 
L 149.679732 247.964276 
L 149.679732 247.8384 
L 149.931489 247.8384 
L 149.931489 247.586648 
L 150.179921 247.586648 
L 150.179921 247.209021 
L 150.425115 247.209021 
L 150.425115 246.579641 
L 150.667154 246.579641 
L 150.667154 246.202014 
L 150.906118 246.202014 
L 150.906118 245.446759 
L 151.142085 245.446759 
L 151.142085 245.069131 
L 151.375128 245.069131 
L 151.375128 244.691503 
L 151.60532 244.691503 
L 151.60532 243.936248 
L 151.832729 243.936248 
L 151.832729 243.684497 
L 152.057422 243.684497 
L 152.057422 243.432745 
L 152.279463 243.432745 
L 152.279463 243.306869 
L 152.715833 243.306869 
L 152.715833 242.929241 
L 153.142309 242.929241 
L 153.142309 242.551614 
L 153.351976 242.551614 
L 153.351976 242.173986 
L 153.559331 242.173986 
L 153.559331 241.922234 
L 153.967309 241.922234 
L 153.967309 241.796359 
L 154.366625 241.796359 
L 154.366625 241.670483 
L 154.563149 241.670483 
L 154.563149 241.418731 
L 154.757642 241.418731 
L 154.757642 241.041103 
L 154.950144 241.041103 
L 154.950144 240.411724 
L 155.140696 240.411724 
L 155.140696 240.159972 
L 155.329337 240.159972 
L 155.329337 239.530593 
L 155.516105 239.530593 
L 155.516105 239.404717 
L 155.701037 239.404717 
L 155.701037 239.02709 
L 156.947029 239.02709 
L 156.947029 238.523586 
L 157.118477 238.523586 
L 157.118477 238.271834 
L 157.288377 238.271834 
L 157.288377 238.020083 
L 157.623641 238.020083 
L 157.623641 237.768331 
L 157.789059 237.768331 
L 157.789059 237.642455 
L 157.953034 237.642455 
L 157.953034 237.138952 
L 158.115593 237.138952 
L 158.115593 237.013076 
L 158.276759 237.013076 
L 158.276759 236.635448 
L 158.436556 236.635448 
L 158.436556 236.131945 
L 158.595008 236.131945 
L 158.595008 236.006069 
L 158.907961 236.006069 
L 158.907961 235.880193 
L 159.367841 235.880193 
L 159.367841 235.628441 
L 159.518669 235.628441 
L 159.518669 235.37669 
L 159.668298 235.37669 
L 159.668298 235.124938 
L 159.816746 235.124938 
L 159.816746 234.873186 
L 159.964032 234.873186 
L 159.964032 234.74731 
L 160.255188 234.74731 
L 160.255188 234.117931 
L 160.399093 234.117931 
L 160.399093 233.866179 
L 160.683643 233.866179 
L 160.683643 233.740303 
L 161.102557 233.740303 
L 161.102557 233.110924 
L 161.376738 233.110924 
L 161.376738 232.985048 
L 161.646981 232.985048 
L 161.646981 232.481545 
L 161.913396 232.481545 
L 161.913396 232.103917 
L 162.17609 232.103917 
L 162.17609 231.474538 
L 162.690724 231.474538 
L 162.690724 231.222786 
L 162.817213 231.222786 
L 162.817213 230.845159 
L 162.942856 230.845159 
L 162.942856 230.593407 
L 163.067666 230.593407 
L 163.067666 230.341655 
L 163.191653 230.341655 
L 163.191653 230.089903 
L 163.437203 230.089903 
L 163.437203 229.838152 
L 163.558786 229.838152 
L 163.558786 229.460524 
L 163.91889 229.460524 
L 163.91889 228.705269 
L 164.155187 228.705269 
L 164.155187 228.453517 
L 164.272231 228.453517 
L 164.272231 227.824138 
L 164.388551 227.824138 
L 164.388551 227.572386 
L 164.619057 227.572386 
L 164.619057 227.068883 
L 164.733259 227.068883 
L 164.733259 226.943007 
L 164.846771 226.943007 
L 164.846771 226.313628 
L 165.071763 226.313628 
L 165.071763 225.936 
L 165.183257 225.936 
L 165.183257 225.684248 
L 165.51383 225.684248 
L 165.622743 225.180745 
L 165.731028 225.180745 
L 165.838694 224.677241 
L 166.052194 224.677241 
L 166.158043 224.173738 
L 166.263299 224.173738 
L 166.263299 223.921986 
L 166.678531 223.921986 
L 166.780922 223.418483 
L 166.984048 223.418483 
L 166.984048 223.166731 
L 167.185004 223.166731 
L 167.284683 222.789103 
L 167.383837 222.789103 
L 167.383837 222.663228 
L 167.678199 222.663228 
L 167.775305 222.033848 
L 167.871912 222.033848 
L 167.871912 221.907972 
L 168.063651 221.907972 
L 168.158793 221.026841 
L 168.253455 221.026841 
L 168.347644 220.397462 
L 168.534619 220.397462 
L 168.534619 220.271586 
L 168.811641 220.271586 
L 168.903083 219.893959 
L 168.994082 219.893959 
L 169.084644 219.138703 
L 169.174771 219.138703 
L 169.174771 219.012828 
L 169.353741 219.012828 
L 169.442591 218.257572 
L 169.531024 218.257572 
L 169.531024 218.005821 
L 169.706651 218.005821 
L 169.793854 217.628193 
L 170.053063 217.628193 
L 170.053063 217.250566 
L 170.223906 217.250566 
L 170.223906 217.12469 
L 170.477296 217.12469 
L 170.561006 216.872938 
L 170.644345 216.872938 
L 170.727317 216.49531 
L 170.97406 216.49531 
L 170.97406 215.740055 
L 171.298095 215.740055 
L 171.378239 215.362428 
L 171.773916 215.362428 
L 171.852062 214.733048 
L 171.929885 214.733048 
L 171.929885 214.607172 
L 172.161441 214.607172 
L 172.237998 213.851917 
L 172.314244 213.851917 
L 172.314244 213.222538 
L 172.616174 213.222538 
L 172.616174 212.970786 
L 172.765341 212.970786 
L 172.839484 211.963779 
L 173.060174 211.963779 
L 173.133165 211.208524 
L 173.205875 211.208524 
L 173.205875 211.082648 
L 173.493935 211.082648 
L 173.565266 210.830897 
L 173.77765 210.830897 
L 173.77765 210.579145 
L 173.917919 210.579145 
L 173.917919 210.075641 
L 174.05715 210.075641 
L 174.126381 209.446262 
L 174.195358 209.446262 
L 174.195358 209.19451 
L 174.332558 209.19451 
L 174.400785 208.565131 
L 174.5365 208.565131 
L 174.5365 208.187503 
L 174.937868 208.187503 
L 174.937868 207.809876 
L 175.069777 207.809876 
L 175.135386 207.432248 
L 175.200767 207.432248 
L 175.265921 206.802869 
L 175.395557 206.802869 
L 175.460042 206.299366 
L 175.65218 206.299366 
L 175.65218 206.047614 
L 175.842375 206.047614 
L 175.842375 205.921738 
L 176.030666 205.921738 
L 176.093013 205.292359 
L 176.155155 205.292359 
L 176.155155 205.040607 
L 176.462819 205.040607 
L 176.462819 204.662979 
L 176.705378 204.662979 
L 176.765533 204.285352 
L 177.063452 204.285352 
L 177.122474 204.0336 
L 177.298436 204.0336 
L 177.356727 203.404221 
L 177.414837 203.404221 
L 177.472768 203.026593 
L 177.759778 203.026593 
L 177.816658 202.52309 
L 177.929905 202.52309 
L 177.929905 202.397214 
L 178.042475 202.397214 
L 178.098508 201.641959 
L 178.154375 201.641959 
L 178.154375 201.390207 
L 178.265613 201.390207 
L 178.265613 201.264331 
L 178.431246 201.264331 
L 178.540864 200.760828 
L 178.812146 200.760828 
L 178.812146 200.509076 
L 179.079571 200.509076 
L 179.132603 200.131448 
L 179.290807 200.131448 
L 179.343247 199.753821 
L 179.55156 199.753821 
L 179.654857 199.250317 
L 179.859766 199.250317 
L 179.961389 198.369186 
L 180.112802 198.369186 
L 180.112802 198.117434 
L 180.263006 198.117434 
L 180.312808 197.110428 
L 180.755196 197.110428 
L 180.803715 196.606924 
L 180.948523 196.606924 
L 180.948523 196.481048 
L 181.329315 196.481048 
L 181.329315 196.229297 
L 181.516859 196.229297 
L 181.609934 195.725793 
L 181.794715 195.725793 
L 181.840628 195.348166 
L 181.932119 195.348166 
L 181.932119 195.22229 
L 182.113777 195.22229 
L 182.113777 194.970538 
L 182.248879 194.970538 
L 182.248879 194.718786 
L 182.427518 194.718786 
L 182.516205 194.467034 
L 182.560393 194.467034 
L 182.560393 194.341159 
L 182.866832 194.341159 
L 182.953477 193.208276 
L 183.082701 193.208276 
L 183.082701 192.956524 
L 183.25363 192.956524 
L 183.25363 192.704772 
L 183.507146 192.704772 
L 183.507146 192.578897 
L 183.674278 192.578897 
L 183.757291 191.949517 
L 183.79866 191.949517 
L 183.839939 191.320138 
L 183.963234 191.320138 
L 184.044984 190.690759 
L 184.247818 190.690759 
L 184.328343 190.313131 
L 184.368477 190.313131 
L 184.448488 190.061379 
L 184.528161 190.061379 
L 184.528161 189.683752 
L 184.686501 189.683752 
L 184.725878 189.432 
L 184.843519 189.432 
L 184.843519 189.180248 
L 185.30686 189.180248 
L 185.30686 189.054372 
L 185.609533 189.054372 
L 185.609533 188.928497 
L 185.759062 188.928497 
L 185.833384 188.424993 
L 185.907413 188.424993 
L 185.907413 188.299117 
L 186.345571 188.299117 
L 186.345571 188.173241 
L 186.560881 188.173241 
L 186.632107 187.669738 
L 186.738443 187.669738 
L 186.809001 187.29211 
L 187.19241 187.29211 
L 187.295634 186.788607 
L 187.56816 186.788607 
L 187.669348 186.285103 
L 187.936552 186.285103 
L 187.969687 185.907476 
L 188.101647 185.907476 
L 188.101647 185.655724 
L 188.265306 185.655724 
L 188.297867 185.403972 
L 188.459835 185.403972 
L 188.556351 185.152221 
L 188.588413 185.152221 
L 188.62042 184.900469 
L 189.434057 184.900469 
L 189.495211 184.648717 
L 189.947635 184.648717 
L 190.036829 184.396966 
L 190.184551 184.396966 
L 190.184551 184.145214 
L 190.906249 184.145214 
L 190.906249 184.019338 
L 191.159428 184.019338 
L 191.24307 183.64171 
L 191.872257 183.64171 
L 191.872257 183.515834 
L 192.19236 183.515834 
L 192.297862 183.012331 
L 192.584979 183.012331 
L 192.636714 182.634703 
L 192.944174 182.634703 
L 192.96957 182.1312 
L 193.544416 182.1312 
L 193.569015 181.879448 
L 193.764659 181.879448 
L 193.764659 181.627697 
L 194.268749 181.627697 
L 194.268749 181.501821 
L 194.410328 181.501821 
L 194.410328 181.250069 
L 194.782743 181.250069 
L 194.874707 180.872441 
L 194.989032 180.872441 
L 194.989032 180.746566 
L 195.835918 180.746566 
L 195.835918 180.62069 
L 196.245479 180.62069 
L 196.245479 180.494814 
L 196.478581 180.494814 
L 196.583589 180.117186 
L 196.977358 180.117186 
L 196.977358 179.99131 
L 197.181341 179.99131 
L 197.181341 179.739559 
L 197.819608 179.739559 
L 197.897889 179.487807 
L 198.398932 179.487807 
L 198.455896 179.110179 
L 198.700762 179.110179 
L 198.700762 178.984303 
L 199.071364 178.984303 
L 199.071364 178.858428 
L 199.235782 178.858428 
L 199.235782 178.732552 
L 199.416799 178.732552 
L 199.416799 178.4808 
L 199.578239 178.4808 
L 199.578239 178.354924 
L 200.552768 178.354924 
L 200.552768 178.103172 
L 200.771956 178.103172 
L 200.771956 177.977297 
L 202.004641 177.977297 
L 202.020334 177.599669 
L 202.223161 177.599669 
L 202.331476 177.347917 
L 202.8038 177.347917 
L 202.8038 177.222041 
L 203.235167 177.222041 
L 203.235167 176.97029 
L 203.425373 176.97029 
L 203.425373 176.844414 
L 203.728623 176.844414 
L 203.728623 176.718538 
L 204.111469 176.718538 
L 204.111469 176.466786 
L 204.334717 176.466786 
L 204.334717 176.215034 
L 205.082535 176.215034 
L 205.082535 176.089159 
L 205.556395 176.089159 
L 205.556395 175.963283 
L 205.95509 175.963283 
L 205.95509 175.837407 
L 206.506853 175.837407 
L 206.506853 175.585655 
L 206.97069 175.585655 
L 206.97069 175.459779 
L 207.210297 175.459779 
L 207.210297 175.333903 
L 208.353385 175.333903 
L 208.453939 174.956276 
L 209.282285 174.956276 
L 209.335523 174.452772 
L 209.776877 174.452772 
L 209.776877 174.326897 
L 210.599883 174.326897 
L 210.599883 174.201021 
L 211.859119 174.201021 
L 211.859119 173.949269 
L 212.819737 173.949269 
L 212.819737 173.697517 
L 213.074222 173.697517 
L 213.082936 173.31989 
L 214.892317 173.31989 
L 214.892317 173.194014 
L 215.675043 173.194014 
L 215.675043 173.068138 
L 217.489892 173.068138 
L 217.489892 172.942262 
L 220.158647 172.942262 
L 220.158647 172.816386 
L 360.8064 172.816386 
L 360.8064 172.816386 
" style="fill: none; stroke: #ff00ff; stroke-width: 1.5; stroke-linecap: square"/>
   </g>
   <g id="line2d_41">
    <defs>
     <path id="m102e439027" d="M -0 8.485281 
L 5.091169 0 
L 0 -8.485281 
L -5.091169 -0 
z
" style="stroke: #ff00ff; stroke-width: 1.5; stroke-linejoin: miter"/>
    </defs>
    <g>
     <use xlink:href="#m102e439027" x="114.141556" y="276.034593" style="fill-opacity: 0; stroke: #ff00ff; stroke-width: 1.5; stroke-linejoin: miter"/>
     <use xlink:href="#m102e439027" x="167.871912" y="221.907972" style="fill-opacity: 0; stroke: #ff00ff; stroke-width: 1.5; stroke-linejoin: miter"/>
     <use xlink:href="#m102e439027" x="220.158647" y="172.942262" style="fill-opacity: 0; stroke: #ff00ff; stroke-width: 1.5; stroke-linejoin: miter"/>
     <use xlink:href="#m102e439027" x="220.158647" y="172.816386" style="fill-opacity: 0; stroke: #ff00ff; stroke-width: 1.5; stroke-linejoin: miter"/>
     <use xlink:href="#m102e439027" x="220.158647" y="172.816386" style="fill-opacity: 0; stroke: #ff00ff; stroke-width: 1.5; stroke-linejoin: miter"/>
     <use xlink:href="#m102e439027" x="360.8064" y="172.816386" style="fill-opacity: 0; stroke: #ff00ff; stroke-width: 1.5; stroke-linejoin: miter"/>
    </g>
   </g>
   <g id="line2d_42">
    <path style="fill: none; stroke: #ff00ff; stroke-width: 1.5; stroke-linecap: square"/>
    <g/>
   </g>
   <g id="line2d_43">
    <path d="M 230.859295 172.816386 
" clip-path="url(#p1334d3d325)" style="fill: none; stroke: #ff00ff; stroke-width: 1.5; stroke-linecap: square"/>
    <defs>
     <path id="ma4413adf74" d="M -12 12 
L 12 -12 
M -12 -12 
L 12 12 
" style="stroke: #ff00ff"/>
    </defs>
    <g clip-path="url(#p1334d3d325)">
     <use xlink:href="#ma4413adf74" x="230.859295" y="172.816386" style="fill: #ff00ff; stroke: #ff00ff"/>
    </g>
   </g>
   <g id="line2d_44">
    <path d="M 360.8064 175.585655 
L 380.514816 293.10336 
" style="fill: none; stroke: #000080; stroke-width: 1.5; stroke-linecap: square"/>
    <g>
     <use xlink:href="#m7cac24218a" x="360.8064" y="175.585655" style="fill-opacity: 0; stroke: #000080; stroke-width: 1.5"/>
     <use xlink:href="#m7cac24218a" x="380.514816" y="293.10336" style="fill-opacity: 0; stroke: #000080; stroke-width: 1.5"/>
    </g>
   </g>
   <g id="line2d_45">
    <path d="M 360.8064 172.816386 
L 380.514816 152.928 
" style="fill: none; stroke: #ff00ff; stroke-width: 1.5; stroke-linecap: square"/>
    <g>
     <use xlink:href="#m102e439027" x="360.8064" y="172.816386" style="fill-opacity: 0; stroke: #ff00ff; stroke-width: 1.5; stroke-linejoin: miter"/>
     <use xlink:href="#m102e439027" x="380.514816" y="152.928" style="fill-opacity: 0; stroke: #ff00ff; stroke-width: 1.5; stroke-linejoin: miter"/>
    </g>
   </g>
   <g id="line2d_46">
    <path d="M 360.8064 298.944 
L 360.8064 6.912 
" style="fill: none; stroke: #000000; stroke-width: 1.5; stroke-linecap: square"/>
   </g>
   <g id="patch_3">
    <path d="M 57.6 298.944 
L 360.8064 298.944 
" style="fill: none; stroke: #000000; stroke-width: 0.8; stroke-linejoin: miter; stroke-linecap: square"/>
   </g>
   <g id="patch_4">
    <path d="M 57.6 6.912 
L 360.8064 6.912 
" style="fill: none; stroke: #000000; stroke-width: 0.8; stroke-linejoin: miter; stroke-linecap: square"/>
   </g>
   <g id="text_13">
    <!-- kerLQ -->
    <g transform="translate(386.578944 296.966485) scale(0.14 -0.14)">
     <defs>
      <path id="DejaVuSans-6b" d="M 581 4863 
L 1159 4863 
L 1159 1991 
L 2875 3500 
L 3609 3500 
L 1753 1863 
L 3688 0 
L 2938 0 
L 1159 1709 
L 1159 0 
L 581 0 
L 581 4863 
z
" transform="scale(0.015625)"/>
      <path id="DejaVuSans-4c" d="M 628 4666 
L 1259 4666 
L 1259 531 
L 3531 531 
L 3531 0 
L 628 0 
L 628 4666 
z
" transform="scale(0.015625)"/>
      <path id="DejaVuSans-51" d="M 2522 4238 
Q 1834 4238 1429 3725 
Q 1025 3213 1025 2328 
Q 1025 1447 1429 934 
Q 1834 422 2522 422 
Q 3209 422 3611 934 
Q 4013 1447 4013 2328 
Q 4013 3213 3611 3725 
Q 3209 4238 2522 4238 
z
M 3406 84 
L 4238 -825 
L 3475 -825 
L 2784 -78 
Q 2681 -84 2626 -87 
Q 2572 -91 2522 -91 
Q 1538 -91 948 567 
Q 359 1225 359 2328 
Q 359 3434 948 4092 
Q 1538 4750 2522 4750 
Q 3503 4750 4090 4092 
Q 4678 3434 4678 2328 
Q 4678 1516 4351 937 
Q 4025 359 3406 84 
z
" transform="scale(0.015625)"/>
     </defs>
     <use xlink:href="#DejaVuSans-6b"/>
     <use xlink:href="#DejaVuSans-65" x="54.285156"/>
     <use xlink:href="#DejaVuSans-72" x="115.808594"/>
     <use xlink:href="#DejaVuSans-4c" x="156.921875"/>
     <use xlink:href="#DejaVuSans-51" x="212.634766"/>
    </g>
   </g>
   <g id="text_14">
    <!-- kerComo -->
    <g transform="translate(386.578944 156.791125) scale(0.14 -0.14)">
     <defs>
      <path id="DejaVuSans-43" d="M 4122 4306 
L 4122 3641 
Q 3803 3938 3442 4084 
Q 3081 4231 2675 4231 
Q 1875 4231 1450 3742 
Q 1025 3253 1025 2328 
Q 1025 1406 1450 917 
Q 1875 428 2675 428 
Q 3081 428 3442 575 
Q 3803 722 4122 1019 
L 4122 359 
Q 3791 134 3420 21 
Q 3050 -91 2638 -91 
Q 1578 -91 968 557 
Q 359 1206 359 2328 
Q 359 3453 968 4101 
Q 1578 4750 2638 4750 
Q 3056 4750 3426 4639 
Q 3797 4528 4122 4306 
z
" transform="scale(0.015625)"/>
     </defs>
     <use xlink:href="#DejaVuSans-6b"/>
     <use xlink:href="#DejaVuSans-65" x="54.285156"/>
     <use xlink:href="#DejaVuSans-72" x="115.808594"/>
     <use xlink:href="#DejaVuSans-43" x="156.921875"/>
     <use xlink:href="#DejaVuSans-6f" x="226.746094"/>
     <use xlink:href="#DejaVuSans-6d" x="287.927734"/>
     <use xlink:href="#DejaVuSans-6f" x="385.339844"/>
    </g>
   </g>
   <g id="text_15">
    <!-- best 2016 -->
    <g transform="translate(386.578944 16.615765) scale(0.14 -0.14)">
     <defs>
      <path id="DejaVuSans-62" d="M 3116 1747 
Q 3116 2381 2855 2742 
Q 2594 3103 2138 3103 
Q 1681 3103 1420 2742 
Q 1159 2381 1159 1747 
Q 1159 1113 1420 752 
Q 1681 391 2138 391 
Q 2594 391 2855 752 
Q 3116 1113 3116 1747 
z
M 1159 2969 
Q 1341 3281 1617 3432 
Q 1894 3584 2278 3584 
Q 2916 3584 3314 3078 
Q 3713 2572 3713 1747 
Q 3713 922 3314 415 
Q 2916 -91 2278 -91 
Q 1894 -91 1617 61 
Q 1341 213 1159 525 
L 1159 0 
L 581 0 
L 581 4863 
L 1159 4863 
L 1159 2969 
z
" transform="scale(0.015625)"/>
     </defs>
     <use xlink:href="#DejaVuSans-62"/>
     <use xlink:href="#DejaVuSans-65" x="63.476562"/>
     <use xlink:href="#DejaVuSans-73" x="125"/>
     <use xlink:href="#DejaVuSans-74" x="177.099609"/>
     <use xlink:href="#DejaVuSans-20" x="216.308594"/>
     <use xlink:href="#DejaVuSans-32" x="248.095703"/>
     <use xlink:href="#DejaVuSans-30" x="311.71875"/>
     <use xlink:href="#DejaVuSans-31" x="375.341797"/>
     <use xlink:href="#DejaVuSans-36" x="438.964844"/>
    </g>
   </g>
   <g id="text_16">
    <!-- bbob-biobj f22, f23, f29, f30, 5-D -->
    <g transform="translate(60.632064 17.582726) scale(0.102 -0.102)">
     <defs>
      <path id="DejaVuSans-6a" d="M 603 3500 
L 1178 3500 
L 1178 -63 
Q 1178 -731 923 -1031 
Q 669 -1331 103 -1331 
L -116 -1331 
L -116 -844 
L 38 -844 
Q 366 -844 484 -692 
Q 603 -541 603 -63 
L 603 3500 
z
M 603 4863 
L 1178 4863 
L 1178 4134 
L 603 4134 
L 603 4863 
z
" transform="scale(0.015625)"/>
      <path id="DejaVuSans-33" d="M 2597 2516 
Q 3050 2419 3304 2112 
Q 3559 1806 3559 1356 
Q 3559 666 3084 287 
Q 2609 -91 1734 -91 
Q 1441 -91 1130 -33 
Q 819 25 488 141 
L 488 750 
Q 750 597 1062 519 
Q 1375 441 1716 441 
Q 2309 441 2620 675 
Q 2931 909 2931 1356 
Q 2931 1769 2642 2001 
Q 2353 2234 1838 2234 
L 1294 2234 
L 1294 2753 
L 1863 2753 
Q 2328 2753 2575 2939 
Q 2822 3125 2822 3475 
Q 2822 3834 2567 4026 
Q 2313 4219 1838 4219 
Q 1578 4219 1281 4162 
Q 984 4106 628 3988 
L 628 4550 
Q 988 4650 1302 4700 
Q 1616 4750 1894 4750 
Q 2613 4750 3031 4423 
Q 3450 4097 3450 3541 
Q 3450 3153 3228 2886 
Q 3006 2619 2597 2516 
z
" transform="scale(0.015625)"/>
      <path id="DejaVuSans-39" d="M 703 97 
L 703 672 
Q 941 559 1184 500 
Q 1428 441 1663 441 
Q 2288 441 2617 861 
Q 2947 1281 2994 2138 
Q 2813 1869 2534 1725 
Q 2256 1581 1919 1581 
Q 1219 1581 811 2004 
Q 403 2428 403 3163 
Q 403 3881 828 4315 
Q 1253 4750 1959 4750 
Q 2769 4750 3195 4129 
Q 3622 3509 3622 2328 
Q 3622 1225 3098 567 
Q 2575 -91 1691 -91 
Q 1453 -91 1209 -44 
Q 966 3 703 97 
z
M 1959 2075 
Q 2384 2075 2632 2365 
Q 2881 2656 2881 3163 
Q 2881 3666 2632 3958 
Q 2384 4250 1959 4250 
Q 1534 4250 1286 3958 
Q 1038 3666 1038 3163 
Q 1038 2656 1286 2365 
Q 1534 2075 1959 2075 
z
" transform="scale(0.015625)"/>
      <path id="DejaVuSans-35" d="M 691 4666 
L 3169 4666 
L 3169 4134 
L 1269 4134 
L 1269 2991 
Q 1406 3038 1543 3061 
Q 1681 3084 1819 3084 
Q 2600 3084 3056 2656 
Q 3513 2228 3513 1497 
Q 3513 744 3044 326 
Q 2575 -91 1722 -91 
Q 1428 -91 1123 -41 
Q 819 9 494 109 
L 494 744 
Q 775 591 1075 516 
Q 1375 441 1709 441 
Q 2250 441 2565 725 
Q 2881 1009 2881 1497 
Q 2881 1984 2565 2268 
Q 2250 2553 1709 2553 
Q 1456 2553 1204 2497 
Q 953 2441 691 2322 
L 691 4666 
z
" transform="scale(0.015625)"/>
      <path id="DejaVuSans-44" d="M 1259 4147 
L 1259 519 
L 2022 519 
Q 2988 519 3436 956 
Q 3884 1394 3884 2338 
Q 3884 3275 3436 3711 
Q 2988 4147 2022 4147 
L 1259 4147 
z
M 628 4666 
L 1925 4666 
Q 3281 4666 3915 4102 
Q 4550 3538 4550 2338 
Q 4550 1131 3912 565 
Q 3275 0 1925 0 
L 628 0 
L 628 4666 
z
" transform="scale(0.015625)"/>
     </defs>
     <use xlink:href="#DejaVuSans-62"/>
     <use xlink:href="#DejaVuSans-62" x="63.476562"/>
     <use xlink:href="#DejaVuSans-6f" x="126.953125"/>
     <use xlink:href="#DejaVuSans-62" x="188.134766"/>
     <use xlink:href="#DejaVuSans-2d" x="251.611328"/>
     <use xlink:href="#DejaVuSans-62" x="287.695312"/>
     <use xlink:href="#DejaVuSans-69" x="351.171875"/>
     <use xlink:href="#DejaVuSans-6f" x="378.955078"/>
     <use xlink:href="#DejaVuSans-62" x="440.136719"/>
     <use xlink:href="#DejaVuSans-6a" x="503.613281"/>
     <use xlink:href="#DejaVuSans-20" x="531.396484"/>
     <use xlink:href="#DejaVuSans-66" x="563.183594"/>
     <use xlink:href="#DejaVuSans-32" x="598.388672"/>
     <use xlink:href="#DejaVuSans-32" x="662.011719"/>
     <use xlink:href="#DejaVuSans-2c" x="725.634766"/>
     <use xlink:href="#DejaVuSans-20" x="757.421875"/>
     <use xlink:href="#DejaVuSans-66" x="789.208984"/>
     <use xlink:href="#DejaVuSans-32" x="824.414062"/>
     <use xlink:href="#DejaVuSans-33" x="888.037109"/>
     <use xlink:href="#DejaVuSans-2c" x="951.660156"/>
     <use xlink:href="#DejaVuSans-20" x="983.447266"/>
     <use xlink:href="#DejaVuSans-66" x="1015.234375"/>
     <use xlink:href="#DejaVuSans-32" x="1050.439453"/>
     <use xlink:href="#DejaVuSans-39" x="1114.0625"/>
     <use xlink:href="#DejaVuSans-2c" x="1177.685547"/>
     <use xlink:href="#DejaVuSans-20" x="1209.472656"/>
     <use xlink:href="#DejaVuSans-66" x="1241.259766"/>
     <use xlink:href="#DejaVuSans-33" x="1276.464844"/>
     <use xlink:href="#DejaVuSans-30" x="1340.087891"/>
     <use xlink:href="#DejaVuSans-2c" x="1403.710938"/>
     <use xlink:href="#DejaVuSans-20" x="1435.498047"/>
     <use xlink:href="#DejaVuSans-35" x="1467.285156"/>
     <use xlink:href="#DejaVuSans-2d" x="1530.908203"/>
     <use xlink:href="#DejaVuSans-44" x="1566.992188"/>
    </g>
    <!-- 58 targets: 1..-1.0e-4 -->
    <g transform="translate(60.632064 29.004495) scale(0.102 -0.102)">
     <defs>
      <path id="DejaVuSans-3a" d="M 750 794 
L 1409 794 
L 1409 0 
L 750 0 
L 750 794 
z
M 750 3309 
L 1409 3309 
L 1409 2516 
L 750 2516 
L 750 3309 
z
" transform="scale(0.015625)"/>
     </defs>
     <use xlink:href="#DejaVuSans-35"/>
     <use xlink:href="#DejaVuSans-38" x="63.623047"/>
     <use xlink:href="#DejaVuSans-20" x="127.246094"/>
     <use xlink:href="#DejaVuSans-74" x="159.033203"/>
     <use xlink:href="#DejaVuSans-61" x="198.242188"/>
     <use xlink:href="#DejaVuSans-72" x="259.521484"/>
     <use xlink:href="#DejaVuSans-67" x="298.884766"/>
     <use xlink:href="#DejaVuSans-65" x="362.361328"/>
     <use xlink:href="#DejaVuSans-74" x="423.884766"/>
     <use xlink:href="#DejaVuSans-73" x="463.09375"/>
     <use xlink:href="#DejaVuSans-3a" x="515.193359"/>
     <use xlink:href="#DejaVuSans-20" x="548.884766"/>
     <use xlink:href="#DejaVuSans-31" x="580.671875"/>
     <use xlink:href="#DejaVuSans-2e" x="644.294922"/>
     <use xlink:href="#DejaVuSans-2e" x="676.082031"/>
     <use xlink:href="#DejaVuSans-2d" x="707.869141"/>
     <use xlink:href="#DejaVuSans-31" x="743.953125"/>
     <use xlink:href="#DejaVuSans-2e" x="807.576172"/>
     <use xlink:href="#DejaVuSans-30" x="839.363281"/>
     <use xlink:href="#DejaVuSans-65" x="902.986328"/>
     <use xlink:href="#DejaVuSans-2d" x="964.509766"/>
     <use xlink:href="#DejaVuSans-34" x="1000.59375"/>
    </g>
    <!-- 10 instances -->
    <g transform="translate(60.632064 40.426264) scale(0.102 -0.102)">
     <use xlink:href="#DejaVuSans-31"/>
     <use xlink:href="#DejaVuSans-30" x="63.623047"/>
     <use xlink:href="#DejaVuSans-20" x="127.246094"/>
     <use xlink:href="#DejaVuSans-69" x="159.033203"/>
     <use xlink:href="#DejaVuSans-6e" x="186.816406"/>
     <use xlink:href="#DejaVuSans-73" x="250.195312"/>
     <use xlink:href="#DejaVuSans-74" x="302.294922"/>
     <use xlink:href="#DejaVuSans-61" x="341.503906"/>
     <use xlink:href="#DejaVuSans-6e" x="402.783203"/>
     <use xlink:href="#DejaVuSans-63" x="466.162109"/>
     <use xlink:href="#DejaVuSans-65" x="521.142578"/>
     <use xlink:href="#DejaVuSans-73" x="582.666016"/>
    </g>
   </g>
   <g id="text_17">
    <!-- v2.6, hv-hash=ff0e71e8cd978373 -->
    <g style="fill: #808080" transform="translate(123.707887 293.943992) scale(0.1 -0.1)">
     <defs>
      <path id="DejaVuSans-68" d="M 3513 2113 
L 3513 0 
L 2938 0 
L 2938 2094 
Q 2938 2591 2744 2837 
Q 2550 3084 2163 3084 
Q 1697 3084 1428 2787 
Q 1159 2491 1159 1978 
L 1159 0 
L 581 0 
L 581 4863 
L 1159 4863 
L 1159 2956 
Q 1366 3272 1645 3428 
Q 1925 3584 2291 3584 
Q 2894 3584 3203 3211 
Q 3513 2838 3513 2113 
z
" transform="scale(0.015625)"/>
      <path id="DejaVuSans-3d" d="M 678 2906 
L 4684 2906 
L 4684 2381 
L 678 2381 
L 678 2906 
z
M 678 1631 
L 4684 1631 
L 4684 1100 
L 678 1100 
L 678 1631 
z
" transform="scale(0.015625)"/>
      <path id="DejaVuSans-37" d="M 525 4666 
L 3525 4666 
L 3525 4397 
L 1831 0 
L 1172 0 
L 2766 4134 
L 525 4134 
L 525 4666 
z
" transform="scale(0.015625)"/>
     </defs>
     <use xlink:href="#DejaVuSans-76"/>
     <use xlink:href="#DejaVuSans-32" x="59.179688"/>
     <use xlink:href="#DejaVuSans-2e" x="122.802734"/>
     <use xlink:href="#DejaVuSans-36" x="154.589844"/>
     <use xlink:href="#DejaVuSans-2c" x="218.212891"/>
     <use xlink:href="#DejaVuSans-20" x="250"/>
     <use xlink:href="#DejaVuSans-68" x="281.787109"/>
     <use xlink:href="#DejaVuSans-76" x="345.166016"/>
     <use xlink:href="#DejaVuSans-2d" x="401.720703"/>
     <use xlink:href="#DejaVuSans-68" x="437.804688"/>
     <use xlink:href="#DejaVuSans-61" x="501.183594"/>
     <use xlink:href="#DejaVuSans-73" x="562.462891"/>
     <use xlink:href="#DejaVuSans-68" x="614.5625"/>
     <use xlink:href="#DejaVuSans-3d" x="677.941406"/>
     <use xlink:href="#DejaVuSans-66" x="761.730469"/>
     <use xlink:href="#DejaVuSans-66" x="796.935547"/>
     <use xlink:href="#DejaVuSans-30" x="832.140625"/>
     <use xlink:href="#DejaVuSans-65" x="895.763672"/>
     <use xlink:href="#DejaVuSans-37" x="957.287109"/>
     <use xlink:href="#DejaVuSans-31" x="1020.910156"/>
     <use xlink:href="#DejaVuSans-65" x="1084.533203"/>
     <use xlink:href="#DejaVuSans-38" x="1146.056641"/>
     <use xlink:href="#DejaVuSans-63" x="1209.679688"/>
     <use xlink:href="#DejaVuSans-64" x="1264.660156"/>
     <use xlink:href="#DejaVuSans-39" x="1328.136719"/>
     <use xlink:href="#DejaVuSans-37" x="1391.759766"/>
     <use xlink:href="#DejaVuSans-38" x="1455.382812"/>
     <use xlink:href="#DejaVuSans-33" x="1519.005859"/>
     <use xlink:href="#DejaVuSans-37" x="1582.628906"/>
     <use xlink:href="#DejaVuSans-33" x="1646.251953"/>
    </g>
   </g>
  </g>
 </g>
 <defs>
  <clipPath id="p1334d3d325">
   <rect x="57.6" y="6.912" width="303.2064" height="292.032"/>
  </clipPath>
 </defs>
</svg>
