<?xml version="1.0" encoding="utf-8" standalone="no"?>
<!DOCTYPE svg PUBLIC "-//W3C//DTD SVG 1.1//EN"
  "http://www.w3.org/Graphics/SVG/1.1/DTD/svg11.dtd">
<svg xmlns:xlink="http://www.w3.org/1999/xlink" width="460.8pt" height="345.6pt" viewBox="0 0 460.8 345.6" xmlns="http://www.w3.org/2000/svg" version="1.1">
 <metadata>
  <rdf:RDF xmlns:dc="http://purl.org/dc/elements/1.1/" xmlns:cc="http://creativecommons.org/ns#" xmlns:rdf="http://www.w3.org/1999/02/22-rdf-syntax-ns#">
   <cc:Work>
    <dc:type rdf:resource="http://purl.org/dc/dcmitype/StillImage"/>
    <dc:date>2023-02-10T20:19:23.334526</dc:date>
    <dc:format>image/svg+xml</dc:format>
    <dc:creator>
     <cc:Agent>
      <dc:title>Matplotlib v3.6.3, https://matplotlib.org/</dc:title>
     </cc:Agent>
    </dc:creator>
   </cc:Work>
  </rdf:RDF>
 </metadata>
 <defs>
  <style type="text/css">*{stroke-linejoin: round; stroke-linecap: butt}</style>
 </defs>
 <g id="figure_1">
  <g id="patch_1">
   <path d="M 0 345.6 
L 460.8 345.6 
L 460.8 0 
L 0 0 
z
" style="fill: #ffffff"/>
  </g>
  <g id="axes_1">
   <g id="patch_2">
    <path d="M 57.6 298.944 
L 360.8064 298.944 
L 360.8064 27.648 
L 57.6 27.648 
z
" style="fill: #ffffff"/>
   </g>
   <g id="line2d_1">
    <path d="M 14.2848 298.944 
L 14.2848 294.266483 
L 40.363149 294.266483 
L 40.363149 284.911448 
L 57.6 284.911448 
L 57.6 275.556414 
L 72.854856 275.556414 
L 72.854856 270.878897 
L 90.007914 270.878897 
L 90.007914 256.846345 
L 104.732832 256.846345 
L 104.732832 247.49131 
L 114.82735 247.49131 
L 114.82735 242.813793 
L 125.704082 242.813793 
L 125.704082 233.458759 
L 134.495147 233.458759 
L 134.495147 219.426207 
L 141.228414 219.426207 
L 141.228414 210.071172 
L 147.573734 210.071172 
L 147.573734 200.716138 
L 154.090224 200.716138 
L 154.090224 191.361103 
L 162.103487 191.361103 
L 162.103487 186.683586 
L 169.084644 186.683586 
L 169.084644 172.651034 
L 175.736948 172.651034 
L 175.736948 167.973517 
L 183.132716 167.973517 
L 183.132716 153.940966 
L 190.947113 153.940966 
L 190.947113 144.585931 
L 199.837903 144.585931 
L 199.837903 139.908414 
L 207.772237 139.908414 
L 207.772237 125.875862 
L 214.600574 125.875862 
L 214.600574 121.198345 
L 221.305226 121.198345 
L 221.305226 107.165793 
L 227.918518 107.165793 
L 227.918518 97.810759 
L 234.50689 97.810759 
L 234.50689 88.455724 
L 241.330767 88.455724 
L 241.330767 83.778207 
L 249.030871 83.778207 
L 249.030871 74.423172 
L 257.44662 74.423172 
L 257.44662 60.390621 
L 360.8064 60.390621 
" style="fill: none; stroke: #f5deb3; stroke-width: 4; stroke-linecap: square"/>
   </g>
   <g id="line2d_2">
    <defs>
     <path id="md917791ed0" d="M -0 7.778175 
L 7.778175 0 
L 0 -7.778175 
L -7.778175 -0 
z
" style="stroke: #f5deb3; stroke-width: 1.5; stroke-linejoin: miter"/>
    </defs>
    <g>
     <use xlink:href="#md917791ed0" x="104.732832" y="256.846345" style="fill: #f5deb3; stroke: #f5deb3; stroke-width: 1.5; stroke-linejoin: miter"/>
     <use xlink:href="#md917791ed0" x="169.084644" y="186.683586" style="fill: #f5deb3; stroke: #f5deb3; stroke-width: 1.5; stroke-linejoin: miter"/>
     <use xlink:href="#md917791ed0" x="214.600574" y="121.198345" style="fill: #f5deb3; stroke: #f5deb3; stroke-width: 1.5; stroke-linejoin: miter"/>
     <use xlink:href="#md917791ed0" x="257.44662" y="60.390621" style="fill: #f5deb3; stroke: #f5deb3; stroke-width: 1.5; stroke-linejoin: miter"/>
     <use xlink:href="#md917791ed0" x="257.44662" y="60.390621" style="fill: #f5deb3; stroke: #f5deb3; stroke-width: 1.5; stroke-linejoin: miter"/>
     <use xlink:href="#md917791ed0" x="360.8064" y="60.390621" style="fill: #f5deb3; stroke: #f5deb3; stroke-width: 1.5; stroke-linejoin: miter"/>
    </g>
   </g>
   <g id="line2d_3">
    <path style="fill: none; stroke: #f5deb3; stroke-width: 4; stroke-linecap: square"/>
    <g/>
   </g>
   <g id="line2d_4">
    <path d="M 360.8064 60.390621 
L 380.514816 33.07392 
" style="fill: none; stroke: #f5deb3; stroke-width: 4; stroke-linecap: square"/>
    <g>
     <use xlink:href="#md917791ed0" x="360.8064" y="60.390621" style="fill: #f5deb3; stroke: #f5deb3; stroke-width: 1.5; stroke-linejoin: miter"/>
     <use xlink:href="#md917791ed0" x="380.514816" y="33.07392" style="fill: #f5deb3; stroke: #f5deb3; stroke-width: 1.5; stroke-linejoin: miter"/>
    </g>
   </g>
   <g id="matplotlib.axis_1">
    <g id="xtick_1">
     <g id="line2d_5">
      <path d="M 57.6 298.944 
L 57.6 27.648 
" clip-path="url(#pfac7448b58)" style="fill: none; stroke: #b0b0b0; stroke-width: 0.8; stroke-linecap: square"/>
     </g>
     <g id="line2d_6">
      <defs>
       <path id="md0578b9a0d" d="M 0 0 
L 0 3.5 
" style="stroke: #000000; stroke-width: 0.8"/>
      </defs>
      <g>
       <use xlink:href="#md0578b9a0d" x="57.6" y="298.944" style="stroke: #000000; stroke-width: 0.8"/>
      </g>
     </g>
     <g id="text_1">
      <!-- 0 -->
      <g transform="translate(52.191875 318.861344) scale(0.17 -0.17)">
       <defs>
        <path id="DejaVuSans-30" d="M 2034 4250 
Q 1547 4250 1301 3770 
Q 1056 3291 1056 2328 
Q 1056 1369 1301 889 
Q 1547 409 2034 409 
Q 2525 409 2770 889 
Q 3016 1369 3016 2328 
Q 3016 3291 2770 3770 
Q 2525 4250 2034 4250 
z
M 2034 4750 
Q 2819 4750 3233 4129 
Q 3647 3509 3647 2328 
Q 3647 1150 3233 529 
Q 2819 -91 2034 -91 
Q 1250 -91 836 529 
Q 422 1150 422 2328 
Q 422 3509 836 4129 
Q 1250 4750 2034 4750 
z
" transform="scale(0.015625)"/>
       </defs>
       <use xlink:href="#DejaVuSans-30"/>
      </g>
     </g>
    </g>
    <g id="xtick_2">
     <g id="line2d_7">
      <path d="M 144.2304 298.944 
L 144.2304 27.648 
" clip-path="url(#pfac7448b58)" style="fill: none; stroke: #b0b0b0; stroke-width: 0.8; stroke-linecap: square"/>
     </g>
     <g id="line2d_8">
      <g>
       <use xlink:href="#md0578b9a0d" x="144.2304" y="298.944" style="stroke: #000000; stroke-width: 0.8"/>
      </g>
     </g>
     <g id="text_2">
      <!-- 2 -->
      <g transform="translate(138.822275 318.861344) scale(0.17 -0.17)">
       <defs>
        <path id="DejaVuSans-32" d="M 1228 531 
L 3431 531 
L 3431 0 
L 469 0 
L 469 531 
Q 828 903 1448 1529 
Q 2069 2156 2228 2338 
Q 2531 2678 2651 2914 
Q 2772 3150 2772 3378 
Q 2772 3750 2511 3984 
Q 2250 4219 1831 4219 
Q 1534 4219 1204 4116 
Q 875 4013 500 3803 
L 500 4441 
Q 881 4594 1212 4672 
Q 1544 4750 1819 4750 
Q 2544 4750 2975 4387 
Q 3406 4025 3406 3419 
Q 3406 3131 3298 2873 
Q 3191 2616 2906 2266 
Q 2828 2175 2409 1742 
Q 1991 1309 1228 531 
z
" transform="scale(0.015625)"/>
       </defs>
       <use xlink:href="#DejaVuSans-32"/>
      </g>
     </g>
    </g>
    <g id="xtick_3">
     <g id="line2d_9">
      <path d="M 230.8608 298.944 
L 230.8608 27.648 
" clip-path="url(#pfac7448b58)" style="fill: none; stroke: #b0b0b0; stroke-width: 0.8; stroke-linecap: square"/>
     </g>
     <g id="line2d_10">
      <g>
       <use xlink:href="#md0578b9a0d" x="230.8608" y="298.944" style="stroke: #000000; stroke-width: 0.8"/>
      </g>
     </g>
     <g id="text_3">
      <!-- 4 -->
      <g transform="translate(225.452675 318.861344) scale(0.17 -0.17)">
       <defs>
        <path id="DejaVuSans-34" d="M 2419 4116 
L 825 1625 
L 2419 1625 
L 2419 4116 
z
M 2253 4666 
L 3047 4666 
L 3047 1625 
L 3713 1625 
L 3713 1100 
L 3047 1100 
L 3047 0 
L 2419 0 
L 2419 1100 
L 313 1100 
L 313 1709 
L 2253 4666 
z
" transform="scale(0.015625)"/>
       </defs>
       <use xlink:href="#DejaVuSans-34"/>
      </g>
     </g>
    </g>
    <g id="xtick_4">
     <g id="line2d_11">
      <path d="M 317.4912 298.944 
L 317.4912 27.648 
" clip-path="url(#pfac7448b58)" style="fill: none; stroke: #b0b0b0; stroke-width: 0.8; stroke-linecap: square"/>
     </g>
     <g id="line2d_12">
      <g>
       <use xlink:href="#md0578b9a0d" x="317.4912" y="298.944" style="stroke: #000000; stroke-width: 0.8"/>
      </g>
     </g>
     <g id="text_4">
      <!-- 6 -->
      <g transform="translate(312.083075 318.861344) scale(0.17 -0.17)">
       <defs>
        <path id="DejaVuSans-36" d="M 2113 2584 
Q 1688 2584 1439 2293 
Q 1191 2003 1191 1497 
Q 1191 994 1439 701 
Q 1688 409 2113 409 
Q 2538 409 2786 701 
Q 3034 994 3034 1497 
Q 3034 2003 2786 2293 
Q 2538 2584 2113 2584 
z
M 3366 4563 
L 3366 3988 
Q 3128 4100 2886 4159 
Q 2644 4219 2406 4219 
Q 1781 4219 1451 3797 
Q 1122 3375 1075 2522 
Q 1259 2794 1537 2939 
Q 1816 3084 2150 3084 
Q 2853 3084 3261 2657 
Q 3669 2231 3669 1497 
Q 3669 778 3244 343 
Q 2819 -91 2113 -91 
Q 1303 -91 875 529 
Q 447 1150 447 2328 
Q 447 3434 972 4092 
Q 1497 4750 2381 4750 
Q 2619 4750 2861 4703 
Q 3103 4656 3366 4563 
z
" transform="scale(0.015625)"/>
       </defs>
       <use xlink:href="#DejaVuSans-36"/>
      </g>
     </g>
    </g>
    <g id="xtick_5">
     <g id="line2d_13">
      <path d="M 100.9152 298.944 
L 100.9152 27.648 
" clip-path="url(#pfac7448b58)" style="fill: none; stroke: #b0b0b0; stroke-width: 0.8; stroke-linecap: square"/>
     </g>
     <g id="line2d_14">
      <defs>
       <path id="m021aacee29" d="M 0 0 
L 0 2 
" style="stroke: #000000; stroke-width: 0.6"/>
      </defs>
      <g>
       <use xlink:href="#m021aacee29" x="100.9152" y="298.944" style="stroke: #000000; stroke-width: 0.6"/>
      </g>
     </g>
    </g>
    <g id="xtick_6">
     <g id="line2d_15">
      <path d="M 187.5456 298.944 
L 187.5456 27.648 
" clip-path="url(#pfac7448b58)" style="fill: none; stroke: #b0b0b0; stroke-width: 0.8; stroke-linecap: square"/>
     </g>
     <g id="line2d_16">
      <g>
       <use xlink:href="#m021aacee29" x="187.5456" y="298.944" style="stroke: #000000; stroke-width: 0.6"/>
      </g>
     </g>
    </g>
    <g id="xtick_7">
     <g id="line2d_17">
      <path d="M 274.176 298.944 
L 274.176 27.648 
" clip-path="url(#pfac7448b58)" style="fill: none; stroke: #b0b0b0; stroke-width: 0.8; stroke-linecap: square"/>
     </g>
     <g id="line2d_18">
      <g>
       <use xlink:href="#m021aacee29" x="274.176" y="298.944" style="stroke: #000000; stroke-width: 0.6"/>
      </g>
     </g>
    </g>
    <g id="xtick_8">
     <g id="line2d_19">
      <path d="M 360.8064 298.944 
L 360.8064 27.648 
" clip-path="url(#pfac7448b58)" style="fill: none; stroke: #b0b0b0; stroke-width: 0.8; stroke-linecap: square"/>
     </g>
     <g id="line2d_20">
      <g>
       <use xlink:href="#m021aacee29" x="360.8064" y="298.944" style="stroke: #000000; stroke-width: 0.6"/>
      </g>
     </g>
    </g>
    <g id="text_5">
     <!-- log10(# f-evals / dimension) -->
     <g transform="translate(88.823278 339.314156) scale(0.17 -0.17)">
      <defs>
       <path id="DejaVuSans-6c" d="M 603 4863 
L 1178 4863 
L 1178 0 
L 603 0 
L 603 4863 
z
" transform="scale(0.015625)"/>
       <path id="DejaVuSans-6f" d="M 1959 3097 
Q 1497 3097 1228 2736 
Q 959 2375 959 1747 
Q 959 1119 1226 758 
Q 1494 397 1959 397 
Q 2419 397 2687 759 
Q 2956 1122 2956 1747 
Q 2956 2369 2687 2733 
Q 2419 3097 1959 3097 
z
M 1959 3584 
Q 2709 3584 3137 3096 
Q 3566 2609 3566 1747 
Q 3566 888 3137 398 
Q 2709 -91 1959 -91 
Q 1206 -91 779 398 
Q 353 888 353 1747 
Q 353 2609 779 3096 
Q 1206 3584 1959 3584 
z
" transform="scale(0.015625)"/>
       <path id="DejaVuSans-67" d="M 2906 1791 
Q 2906 2416 2648 2759 
Q 2391 3103 1925 3103 
Q 1463 3103 1205 2759 
Q 947 2416 947 1791 
Q 947 1169 1205 825 
Q 1463 481 1925 481 
Q 2391 481 2648 825 
Q 2906 1169 2906 1791 
z
M 3481 434 
Q 3481 -459 3084 -895 
Q 2688 -1331 1869 -1331 
Q 1566 -1331 1297 -1286 
Q 1028 -1241 775 -1147 
L 775 -588 
Q 1028 -725 1275 -790 
Q 1522 -856 1778 -856 
Q 2344 -856 2625 -561 
Q 2906 -266 2906 331 
L 2906 616 
Q 2728 306 2450 153 
Q 2172 0 1784 0 
Q 1141 0 747 490 
Q 353 981 353 1791 
Q 353 2603 747 3093 
Q 1141 3584 1784 3584 
Q 2172 3584 2450 3431 
Q 2728 3278 2906 2969 
L 2906 3500 
L 3481 3500 
L 3481 434 
z
" transform="scale(0.015625)"/>
       <path id="DejaVuSans-31" d="M 794 531 
L 1825 531 
L 1825 4091 
L 703 3866 
L 703 4441 
L 1819 4666 
L 2450 4666 
L 2450 531 
L 3481 531 
L 3481 0 
L 794 0 
L 794 531 
z
" transform="scale(0.015625)"/>
       <path id="DejaVuSans-28" d="M 1984 4856 
Q 1566 4138 1362 3434 
Q 1159 2731 1159 2009 
Q 1159 1288 1364 580 
Q 1569 -128 1984 -844 
L 1484 -844 
Q 1016 -109 783 600 
Q 550 1309 550 2009 
Q 550 2706 781 3412 
Q 1013 4119 1484 4856 
L 1984 4856 
z
" transform="scale(0.015625)"/>
       <path id="DejaVuSans-23" d="M 3272 2816 
L 2363 2816 
L 2100 1772 
L 3016 1772 
L 3272 2816 
z
M 2803 4594 
L 2478 3297 
L 3391 3297 
L 3719 4594 
L 4219 4594 
L 3897 3297 
L 4872 3297 
L 4872 2816 
L 3775 2816 
L 3519 1772 
L 4513 1772 
L 4513 1294 
L 3397 1294 
L 3072 0 
L 2572 0 
L 2894 1294 
L 1978 1294 
L 1656 0 
L 1153 0 
L 1478 1294 
L 494 1294 
L 494 1772 
L 1594 1772 
L 1856 2816 
L 850 2816 
L 850 3297 
L 1978 3297 
L 2297 4594 
L 2803 4594 
z
" transform="scale(0.015625)"/>
       <path id="DejaVuSans-20" transform="scale(0.015625)"/>
       <path id="DejaVuSans-66" d="M 2375 4863 
L 2375 4384 
L 1825 4384 
Q 1516 4384 1395 4259 
Q 1275 4134 1275 3809 
L 1275 3500 
L 2222 3500 
L 2222 3053 
L 1275 3053 
L 1275 0 
L 697 0 
L 697 3053 
L 147 3053 
L 147 3500 
L 697 3500 
L 697 3744 
Q 697 4328 969 4595 
Q 1241 4863 1831 4863 
L 2375 4863 
z
" transform="scale(0.015625)"/>
       <path id="DejaVuSans-2d" d="M 313 2009 
L 1997 2009 
L 1997 1497 
L 313 1497 
L 313 2009 
z
" transform="scale(0.015625)"/>
       <path id="DejaVuSans-65" d="M 3597 1894 
L 3597 1613 
L 953 1613 
Q 991 1019 1311 708 
Q 1631 397 2203 397 
Q 2534 397 2845 478 
Q 3156 559 3463 722 
L 3463 178 
Q 3153 47 2828 -22 
Q 2503 -91 2169 -91 
Q 1331 -91 842 396 
Q 353 884 353 1716 
Q 353 2575 817 3079 
Q 1281 3584 2069 3584 
Q 2775 3584 3186 3129 
Q 3597 2675 3597 1894 
z
M 3022 2063 
Q 3016 2534 2758 2815 
Q 2500 3097 2075 3097 
Q 1594 3097 1305 2825 
Q 1016 2553 972 2059 
L 3022 2063 
z
" transform="scale(0.015625)"/>
       <path id="DejaVuSans-76" d="M 191 3500 
L 800 3500 
L 1894 563 
L 2988 3500 
L 3597 3500 
L 2284 0 
L 1503 0 
L 191 3500 
z
" transform="scale(0.015625)"/>
       <path id="DejaVuSans-61" d="M 2194 1759 
Q 1497 1759 1228 1600 
Q 959 1441 959 1056 
Q 959 750 1161 570 
Q 1363 391 1709 391 
Q 2188 391 2477 730 
Q 2766 1069 2766 1631 
L 2766 1759 
L 2194 1759 
z
M 3341 1997 
L 3341 0 
L 2766 0 
L 2766 531 
Q 2569 213 2275 61 
Q 1981 -91 1556 -91 
Q 1019 -91 701 211 
Q 384 513 384 1019 
Q 384 1609 779 1909 
Q 1175 2209 1959 2209 
L 2766 2209 
L 2766 2266 
Q 2766 2663 2505 2880 
Q 2244 3097 1772 3097 
Q 1472 3097 1187 3025 
Q 903 2953 641 2809 
L 641 3341 
Q 956 3463 1253 3523 
Q 1550 3584 1831 3584 
Q 2591 3584 2966 3190 
Q 3341 2797 3341 1997 
z
" transform="scale(0.015625)"/>
       <path id="DejaVuSans-73" d="M 2834 3397 
L 2834 2853 
Q 2591 2978 2328 3040 
Q 2066 3103 1784 3103 
Q 1356 3103 1142 2972 
Q 928 2841 928 2578 
Q 928 2378 1081 2264 
Q 1234 2150 1697 2047 
L 1894 2003 
Q 2506 1872 2764 1633 
Q 3022 1394 3022 966 
Q 3022 478 2636 193 
Q 2250 -91 1575 -91 
Q 1294 -91 989 -36 
Q 684 19 347 128 
L 347 722 
Q 666 556 975 473 
Q 1284 391 1588 391 
Q 1994 391 2212 530 
Q 2431 669 2431 922 
Q 2431 1156 2273 1281 
Q 2116 1406 1581 1522 
L 1381 1569 
Q 847 1681 609 1914 
Q 372 2147 372 2553 
Q 372 3047 722 3315 
Q 1072 3584 1716 3584 
Q 2034 3584 2315 3537 
Q 2597 3491 2834 3397 
z
" transform="scale(0.015625)"/>
       <path id="DejaVuSans-2f" d="M 1625 4666 
L 2156 4666 
L 531 -594 
L 0 -594 
L 1625 4666 
z
" transform="scale(0.015625)"/>
       <path id="DejaVuSans-64" d="M 2906 2969 
L 2906 4863 
L 3481 4863 
L 3481 0 
L 2906 0 
L 2906 525 
Q 2725 213 2448 61 
Q 2172 -91 1784 -91 
Q 1150 -91 751 415 
Q 353 922 353 1747 
Q 353 2572 751 3078 
Q 1150 3584 1784 3584 
Q 2172 3584 2448 3432 
Q 2725 3281 2906 2969 
z
M 947 1747 
Q 947 1113 1208 752 
Q 1469 391 1925 391 
Q 2381 391 2643 752 
Q 2906 1113 2906 1747 
Q 2906 2381 2643 2742 
Q 2381 3103 1925 3103 
Q 1469 3103 1208 2742 
Q 947 2381 947 1747 
z
" transform="scale(0.015625)"/>
       <path id="DejaVuSans-69" d="M 603 3500 
L 1178 3500 
L 1178 0 
L 603 0 
L 603 3500 
z
M 603 4863 
L 1178 4863 
L 1178 4134 
L 603 4134 
L 603 4863 
z
" transform="scale(0.015625)"/>
       <path id="DejaVuSans-6d" d="M 3328 2828 
Q 3544 3216 3844 3400 
Q 4144 3584 4550 3584 
Q 5097 3584 5394 3201 
Q 5691 2819 5691 2113 
L 5691 0 
L 5113 0 
L 5113 2094 
Q 5113 2597 4934 2840 
Q 4756 3084 4391 3084 
Q 3944 3084 3684 2787 
Q 3425 2491 3425 1978 
L 3425 0 
L 2847 0 
L 2847 2094 
Q 2847 2600 2669 2842 
Q 2491 3084 2119 3084 
Q 1678 3084 1418 2786 
Q 1159 2488 1159 1978 
L 1159 0 
L 581 0 
L 581 3500 
L 1159 3500 
L 1159 2956 
Q 1356 3278 1631 3431 
Q 1906 3584 2284 3584 
Q 2666 3584 2933 3390 
Q 3200 3197 3328 2828 
z
" transform="scale(0.015625)"/>
       <path id="DejaVuSans-6e" d="M 3513 2113 
L 3513 0 
L 2938 0 
L 2938 2094 
Q 2938 2591 2744 2837 
Q 2550 3084 2163 3084 
Q 1697 3084 1428 2787 
Q 1159 2491 1159 1978 
L 1159 0 
L 581 0 
L 581 3500 
L 1159 3500 
L 1159 2956 
Q 1366 3272 1645 3428 
Q 1925 3584 2291 3584 
Q 2894 3584 3203 3211 
Q 3513 2838 3513 2113 
z
" transform="scale(0.015625)"/>
       <path id="DejaVuSans-29" d="M 513 4856 
L 1013 4856 
Q 1481 4119 1714 3412 
Q 1947 2706 1947 2009 
Q 1947 1309 1714 600 
Q 1481 -109 1013 -844 
L 513 -844 
Q 928 -128 1133 580 
Q 1338 1288 1338 2009 
Q 1338 2731 1133 3434 
Q 928 4138 513 4856 
z
" transform="scale(0.015625)"/>
      </defs>
      <use xlink:href="#DejaVuSans-6c"/>
      <use xlink:href="#DejaVuSans-6f" x="27.783203"/>
      <use xlink:href="#DejaVuSans-67" x="88.964844"/>
      <use xlink:href="#DejaVuSans-31" x="152.441406"/>
      <use xlink:href="#DejaVuSans-30" x="216.064453"/>
      <use xlink:href="#DejaVuSans-28" x="279.6875"/>
      <use xlink:href="#DejaVuSans-23" x="318.701172"/>
      <use xlink:href="#DejaVuSans-20" x="402.490234"/>
      <use xlink:href="#DejaVuSans-66" x="434.277344"/>
      <use xlink:href="#DejaVuSans-2d" x="463.982422"/>
      <use xlink:href="#DejaVuSans-65" x="500.066406"/>
      <use xlink:href="#DejaVuSans-76" x="561.589844"/>
      <use xlink:href="#DejaVuSans-61" x="620.769531"/>
      <use xlink:href="#DejaVuSans-6c" x="682.048828"/>
      <use xlink:href="#DejaVuSans-73" x="709.832031"/>
      <use xlink:href="#DejaVuSans-20" x="761.931641"/>
      <use xlink:href="#DejaVuSans-2f" x="793.71875"/>
      <use xlink:href="#DejaVuSans-20" x="827.410156"/>
      <use xlink:href="#DejaVuSans-64" x="859.197266"/>
      <use xlink:href="#DejaVuSans-69" x="922.673828"/>
      <use xlink:href="#DejaVuSans-6d" x="950.457031"/>
      <use xlink:href="#DejaVuSans-65" x="1047.869141"/>
      <use xlink:href="#DejaVuSans-6e" x="1109.392578"/>
      <use xlink:href="#DejaVuSans-73" x="1172.771484"/>
      <use xlink:href="#DejaVuSans-69" x="1224.871094"/>
      <use xlink:href="#DejaVuSans-6f" x="1252.654297"/>
      <use xlink:href="#DejaVuSans-6e" x="1313.835938"/>
      <use xlink:href="#DejaVuSans-29" x="1377.214844"/>
     </g>
    </g>
   </g>
   <g id="matplotlib.axis_2">
    <g id="ytick_1">
     <g id="line2d_21">
      <path d="M 57.6 298.944 
L 360.8064 298.944 
" clip-path="url(#pfac7448b58)" style="fill: none; stroke: #b0b0b0; stroke-width: 0.8; stroke-linecap: square"/>
     </g>
     <g id="line2d_22">
      <defs>
       <path id="m4246b743ba" d="M 0 0 
L -3.5 0 
" style="stroke: #000000; stroke-width: 0.8"/>
      </defs>
      <g>
       <use xlink:href="#m4246b743ba" x="57.6" y="298.944" style="stroke: #000000; stroke-width: 0.8"/>
      </g>
     </g>
     <g id="text_6">
      <!-- 0.0 -->
      <g transform="translate(25.155 305.02275) scale(0.16 -0.16)">
       <defs>
        <path id="DejaVuSans-2e" d="M 684 794 
L 1344 794 
L 1344 0 
L 684 0 
L 684 794 
z
" transform="scale(0.015625)"/>
       </defs>
       <use xlink:href="#DejaVuSans-30"/>
       <use xlink:href="#DejaVuSans-2e" x="63.623047"/>
       <use xlink:href="#DejaVuSans-30" x="95.410156"/>
      </g>
     </g>
    </g>
    <g id="ytick_2">
     <g id="line2d_23">
      <path d="M 57.6 244.6848 
L 360.8064 244.6848 
" clip-path="url(#pfac7448b58)" style="fill: none; stroke: #b0b0b0; stroke-width: 0.8; stroke-linecap: square"/>
     </g>
     <g id="line2d_24">
      <g>
       <use xlink:href="#m4246b743ba" x="57.6" y="244.6848" style="stroke: #000000; stroke-width: 0.8"/>
      </g>
     </g>
     <g id="text_7">
      <!-- 0.2 -->
      <g transform="translate(25.155 250.76355) scale(0.16 -0.16)">
       <use xlink:href="#DejaVuSans-30"/>
       <use xlink:href="#DejaVuSans-2e" x="63.623047"/>
       <use xlink:href="#DejaVuSans-32" x="95.410156"/>
      </g>
     </g>
    </g>
    <g id="ytick_3">
     <g id="line2d_25">
      <path d="M 57.6 190.4256 
L 360.8064 190.4256 
" clip-path="url(#pfac7448b58)" style="fill: none; stroke: #b0b0b0; stroke-width: 0.8; stroke-linecap: square"/>
     </g>
     <g id="line2d_26">
      <g>
       <use xlink:href="#m4246b743ba" x="57.6" y="190.4256" style="stroke: #000000; stroke-width: 0.8"/>
      </g>
     </g>
     <g id="text_8">
      <!-- 0.4 -->
      <g transform="translate(25.155 196.50435) scale(0.16 -0.16)">
       <use xlink:href="#DejaVuSans-30"/>
       <use xlink:href="#DejaVuSans-2e" x="63.623047"/>
       <use xlink:href="#DejaVuSans-34" x="95.410156"/>
      </g>
     </g>
    </g>
    <g id="ytick_4">
     <g id="line2d_27">
      <path d="M 57.6 136.1664 
L 360.8064 136.1664 
" clip-path="url(#pfac7448b58)" style="fill: none; stroke: #b0b0b0; stroke-width: 0.8; stroke-linecap: square"/>
     </g>
     <g id="line2d_28">
      <g>
       <use xlink:href="#m4246b743ba" x="57.6" y="136.1664" style="stroke: #000000; stroke-width: 0.8"/>
      </g>
     </g>
     <g id="text_9">
      <!-- 0.6 -->
      <g transform="translate(25.155 142.24515) scale(0.16 -0.16)">
       <use xlink:href="#DejaVuSans-30"/>
       <use xlink:href="#DejaVuSans-2e" x="63.623047"/>
       <use xlink:href="#DejaVuSans-36" x="95.410156"/>
      </g>
     </g>
    </g>
    <g id="ytick_5">
     <g id="line2d_29">
      <path d="M 57.6 81.9072 
L 360.8064 81.9072 
" clip-path="url(#pfac7448b58)" style="fill: none; stroke: #b0b0b0; stroke-width: 0.8; stroke-linecap: square"/>
     </g>
     <g id="line2d_30">
      <g>
       <use xlink:href="#m4246b743ba" x="57.6" y="81.9072" style="stroke: #000000; stroke-width: 0.8"/>
      </g>
     </g>
     <g id="text_10">
      <!-- 0.8 -->
      <g transform="translate(25.155 87.98595) scale(0.16 -0.16)">
       <defs>
        <path id="DejaVuSans-38" d="M 2034 2216 
Q 1584 2216 1326 1975 
Q 1069 1734 1069 1313 
Q 1069 891 1326 650 
Q 1584 409 2034 409 
Q 2484 409 2743 651 
Q 3003 894 3003 1313 
Q 3003 1734 2745 1975 
Q 2488 2216 2034 2216 
z
M 1403 2484 
Q 997 2584 770 2862 
Q 544 3141 544 3541 
Q 544 4100 942 4425 
Q 1341 4750 2034 4750 
Q 2731 4750 3128 4425 
Q 3525 4100 3525 3541 
Q 3525 3141 3298 2862 
Q 3072 2584 2669 2484 
Q 3125 2378 3379 2068 
Q 3634 1759 3634 1313 
Q 3634 634 3220 271 
Q 2806 -91 2034 -91 
Q 1263 -91 848 271 
Q 434 634 434 1313 
Q 434 1759 690 2068 
Q 947 2378 1403 2484 
z
M 1172 3481 
Q 1172 3119 1398 2916 
Q 1625 2713 2034 2713 
Q 2441 2713 2670 2916 
Q 2900 3119 2900 3481 
Q 2900 3844 2670 4047 
Q 2441 4250 2034 4250 
Q 1625 4250 1398 4047 
Q 1172 3844 1172 3481 
z
" transform="scale(0.015625)"/>
       </defs>
       <use xlink:href="#DejaVuSans-30"/>
       <use xlink:href="#DejaVuSans-2e" x="63.623047"/>
       <use xlink:href="#DejaVuSans-38" x="95.410156"/>
      </g>
     </g>
    </g>
    <g id="ytick_6">
     <g id="line2d_31">
      <path d="M 57.6 27.648 
L 360.8064 27.648 
" clip-path="url(#pfac7448b58)" style="fill: none; stroke: #b0b0b0; stroke-width: 0.8; stroke-linecap: square"/>
     </g>
     <g id="line2d_32">
      <g>
       <use xlink:href="#m4246b743ba" x="57.6" y="27.648" style="stroke: #000000; stroke-width: 0.8"/>
      </g>
     </g>
     <g id="text_11">
      <!-- 1.0 -->
      <g transform="translate(25.155 33.72675) scale(0.16 -0.16)">
       <use xlink:href="#DejaVuSans-31"/>
       <use xlink:href="#DejaVuSans-2e" x="63.623047"/>
       <use xlink:href="#DejaVuSans-30" x="95.410156"/>
      </g>
     </g>
    </g>
    <g id="text_12">
     <!-- Fraction of function,target pairs -->
     <g transform="translate(17.619531 297.681) rotate(-90) scale(0.17 -0.17)">
      <defs>
       <path id="DejaVuSans-46" d="M 628 4666 
L 3309 4666 
L 3309 4134 
L 1259 4134 
L 1259 2759 
L 3109 2759 
L 3109 2228 
L 1259 2228 
L 1259 0 
L 628 0 
L 628 4666 
z
" transform="scale(0.015625)"/>
       <path id="DejaVuSans-72" d="M 2631 2963 
Q 2534 3019 2420 3045 
Q 2306 3072 2169 3072 
Q 1681 3072 1420 2755 
Q 1159 2438 1159 1844 
L 1159 0 
L 581 0 
L 581 3500 
L 1159 3500 
L 1159 2956 
Q 1341 3275 1631 3429 
Q 1922 3584 2338 3584 
Q 2397 3584 2469 3576 
Q 2541 3569 2628 3553 
L 2631 2963 
z
" transform="scale(0.015625)"/>
       <path id="DejaVuSans-63" d="M 3122 3366 
L 3122 2828 
Q 2878 2963 2633 3030 
Q 2388 3097 2138 3097 
Q 1578 3097 1268 2742 
Q 959 2388 959 1747 
Q 959 1106 1268 751 
Q 1578 397 2138 397 
Q 2388 397 2633 464 
Q 2878 531 3122 666 
L 3122 134 
Q 2881 22 2623 -34 
Q 2366 -91 2075 -91 
Q 1284 -91 818 406 
Q 353 903 353 1747 
Q 353 2603 823 3093 
Q 1294 3584 2113 3584 
Q 2378 3584 2631 3529 
Q 2884 3475 3122 3366 
z
" transform="scale(0.015625)"/>
       <path id="DejaVuSans-74" d="M 1172 4494 
L 1172 3500 
L 2356 3500 
L 2356 3053 
L 1172 3053 
L 1172 1153 
Q 1172 725 1289 603 
Q 1406 481 1766 481 
L 2356 481 
L 2356 0 
L 1766 0 
Q 1100 0 847 248 
Q 594 497 594 1153 
L 594 3053 
L 172 3053 
L 172 3500 
L 594 3500 
L 594 4494 
L 1172 4494 
z
" transform="scale(0.015625)"/>
       <path id="DejaVuSans-75" d="M 544 1381 
L 544 3500 
L 1119 3500 
L 1119 1403 
Q 1119 906 1312 657 
Q 1506 409 1894 409 
Q 2359 409 2629 706 
Q 2900 1003 2900 1516 
L 2900 3500 
L 3475 3500 
L 3475 0 
L 2900 0 
L 2900 538 
Q 2691 219 2414 64 
Q 2138 -91 1772 -91 
Q 1169 -91 856 284 
Q 544 659 544 1381 
z
M 1991 3584 
L 1991 3584 
z
" transform="scale(0.015625)"/>
       <path id="DejaVuSans-2c" d="M 750 794 
L 1409 794 
L 1409 256 
L 897 -744 
L 494 -744 
L 750 256 
L 750 794 
z
" transform="scale(0.015625)"/>
       <path id="DejaVuSans-70" d="M 1159 525 
L 1159 -1331 
L 581 -1331 
L 581 3500 
L 1159 3500 
L 1159 2969 
Q 1341 3281 1617 3432 
Q 1894 3584 2278 3584 
Q 2916 3584 3314 3078 
Q 3713 2572 3713 1747 
Q 3713 922 3314 415 
Q 2916 -91 2278 -91 
Q 1894 -91 1617 61 
Q 1341 213 1159 525 
z
M 3116 1747 
Q 3116 2381 2855 2742 
Q 2594 3103 2138 3103 
Q 1681 3103 1420 2742 
Q 1159 2381 1159 1747 
Q 1159 1113 1420 752 
Q 1681 391 2138 391 
Q 2594 391 2855 752 
Q 3116 1113 3116 1747 
z
" transform="scale(0.015625)"/>
      </defs>
      <use xlink:href="#DejaVuSans-46"/>
      <use xlink:href="#DejaVuSans-72" x="50.269531"/>
      <use xlink:href="#DejaVuSans-61" x="91.382812"/>
      <use xlink:href="#DejaVuSans-63" x="152.662109"/>
      <use xlink:href="#DejaVuSans-74" x="207.642578"/>
      <use xlink:href="#DejaVuSans-69" x="246.851562"/>
      <use xlink:href="#DejaVuSans-6f" x="274.634766"/>
      <use xlink:href="#DejaVuSans-6e" x="335.816406"/>
      <use xlink:href="#DejaVuSans-20" x="399.195312"/>
      <use xlink:href="#DejaVuSans-6f" x="430.982422"/>
      <use xlink:href="#DejaVuSans-66" x="492.164062"/>
      <use xlink:href="#DejaVuSans-20" x="527.369141"/>
      <use xlink:href="#DejaVuSans-66" x="559.15625"/>
      <use xlink:href="#DejaVuSans-75" x="594.361328"/>
      <use xlink:href="#DejaVuSans-6e" x="657.740234"/>
      <use xlink:href="#DejaVuSans-63" x="721.119141"/>
      <use xlink:href="#DejaVuSans-74" x="776.099609"/>
      <use xlink:href="#DejaVuSans-69" x="815.308594"/>
      <use xlink:href="#DejaVuSans-6f" x="843.091797"/>
      <use xlink:href="#DejaVuSans-6e" x="904.273438"/>
      <use xlink:href="#DejaVuSans-2c" x="967.652344"/>
      <use xlink:href="#DejaVuSans-74" x="999.439453"/>
      <use xlink:href="#DejaVuSans-61" x="1038.648438"/>
      <use xlink:href="#DejaVuSans-72" x="1099.927734"/>
      <use xlink:href="#DejaVuSans-67" x="1139.291016"/>
      <use xlink:href="#DejaVuSans-65" x="1202.767578"/>
      <use xlink:href="#DejaVuSans-74" x="1264.291016"/>
      <use xlink:href="#DejaVuSans-20" x="1303.5"/>
      <use xlink:href="#DejaVuSans-70" x="1335.287109"/>
      <use xlink:href="#DejaVuSans-61" x="1398.763672"/>
      <use xlink:href="#DejaVuSans-69" x="1460.042969"/>
      <use xlink:href="#DejaVuSans-72" x="1487.826172"/>
      <use xlink:href="#DejaVuSans-73" x="1528.939453"/>
     </g>
    </g>
   </g>
   <g id="line2d_33">
    <defs>
     <path id="m5df30948c5" d="M 0 1.5 
C 0.397805 1.5 0.77937 1.341951 1.06066 1.06066 
C 1.341951 0.77937 1.5 0.397805 1.5 0 
C 1.5 -0.397805 1.341951 -0.77937 1.06066 -1.06066 
C 0.77937 -1.341951 0.397805 -1.5 0 -1.5 
C -0.397805 -1.5 -0.77937 -1.341951 -1.06066 -1.06066 
C -1.341951 -0.77937 -1.5 -0.397805 -1.5 0 
C -1.5 0.397805 -1.341951 0.77937 -1.06066 1.06066 
C -0.77937 1.341951 -0.397805 1.5 0 1.5 
z
" style="stroke: #f5deb3"/>
    </defs>
    <g>
     <use xlink:href="#m5df30948c5" x="257.44662" y="60.390621" style="fill: #f5deb3; stroke: #f5deb3"/>
     <use xlink:href="#m5df30948c5" x="257.44662" y="60.390621" style="fill: #f5deb3; stroke: #f5deb3"/>
    </g>
   </g>
   <g id="line2d_34">
    <defs>
     <path id="m048cad0a42" d="M 0 1.5 
C 0.397805 1.5 0.77937 1.341951 1.06066 1.06066 
C 1.341951 0.77937 1.5 0.397805 1.5 0 
C 1.5 -0.397805 1.341951 -0.77937 1.06066 -1.06066 
C 0.77937 -1.341951 0.397805 -1.5 0 -1.5 
C -0.397805 -1.5 -0.77937 -1.341951 -1.06066 -1.06066 
C -1.341951 -0.77937 -1.5 -0.397805 -1.5 0 
C -1.5 0.397805 -1.341951 0.77937 -1.06066 1.06066 
C -0.77937 1.341951 -0.397805 1.5 0 1.5 
z
" style="stroke: #000080"/>
    </defs>
    <g>
     <use xlink:href="#m048cad0a42" x="185.56047" y="187.61909" style="fill: #000080; stroke: #000080"/>
     <use xlink:href="#m048cad0a42" x="185.56047" y="187.61909" style="fill: #000080; stroke: #000080"/>
    </g>
   </g>
   <g id="line2d_35">
    <path d="M 1.245626 298.944 
L 1.245626 286.782455 
L 14.2848 286.782455 
L 14.2848 286.314703 
L 79.77233 286.314703 
L 79.77233 285.846952 
L 108.729809 285.846952 
L 108.729809 285.3792 
L 110.897141 285.3792 
L 110.897141 284.911448 
L 113.52628 284.911448 
L 113.52628 284.443697 
L 118.634901 284.443697 
L 118.634901 283.975945 
L 119.842094 283.975945 
L 119.842094 283.508193 
L 123.431654 283.508193 
L 123.460048 282.104938 
L 123.963959 282.104938 
L 123.963959 281.637186 
L 126.420564 281.637186 
L 126.420564 281.169434 
L 128.722242 281.169434 
L 128.765092 280.233931 
L 129.250988 280.233931 
L 129.250988 279.766179 
L 130.265881 279.766179 
L 130.265881 279.298428 
L 131.172405 279.298428 
L 131.247576 278.362924 
L 132.516659 278.362924 
L 132.516659 277.427421 
L 133.137444 277.427421 
L 133.137444 276.959669 
L 133.606501 276.959669 
L 133.606501 276.491917 
L 133.836715 276.491917 
L 133.836715 276.024166 
L 134.97812 276.024166 
L 134.97812 275.556414 
L 136.126705 275.556414 
L 136.126705 275.088662 
L 136.44239 275.088662 
L 136.44239 274.62091 
L 137.919637 274.62091 
L 137.919637 274.153159 
L 139.374701 274.153159 
L 139.374701 273.685407 
L 139.843661 273.685407 
L 139.843661 272.749903 
L 140.243172 272.749903 
L 140.28962 271.8144 
L 140.565927 271.8144 
L 140.565927 271.346648 
L 140.860749 271.346648 
L 140.860749 270.878897 
L 140.984104 270.878897 
L 140.984104 269.943393 
L 141.64307 269.943393 
L 141.64307 269.475641 
L 141.921606 269.475641 
L 141.921606 269.00789 
L 142.702713 269.00789 
L 142.702713 268.540138 
L 142.824734 268.540138 
L 142.824734 267.604634 
L 143.48206 267.604634 
L 143.48206 266.669131 
L 143.859951 266.669131 
L 143.859951 266.201379 
L 144.041338 266.201379 
L 144.041338 265.265876 
L 144.164444 265.265876 
L 144.164444 264.798124 
L 144.324223 264.798124 
L 144.324223 264.330372 
L 145.067425 264.330372 
L 145.067425 263.394869 
L 145.415054 263.394869 
L 145.415054 262.927117 
L 146.091614 262.927117 
L 146.091614 262.459366 
L 146.294984 262.459366 
L 146.311833 260.588359 
L 147.264104 260.588359 
L 147.264104 260.120607 
L 147.581606 260.120607 
L 147.581606 259.652855 
L 147.746174 259.652855 
L 147.746174 259.185103 
L 147.986506 259.185103 
L 148.086384 257.781848 
L 149.524205 257.781848 
L 149.524205 257.314097 
L 150.000827 257.314097 
L 150.000827 256.846345 
L 150.179921 256.846345 
L 150.179921 256.378593 
L 150.398028 256.378593 
L 150.425115 254.975338 
L 151.200617 254.975338 
L 151.284843 253.104331 
L 151.452172 253.104331 
L 151.452172 252.168828 
L 151.586245 252.168828 
L 151.586245 251.701076 
L 152.297848 251.701076 
L 152.297848 251.233324 
L 153.276532 251.233324 
L 153.276532 250.297821 
L 153.501961 250.297821 
L 153.501961 249.830069 
L 154.090224 249.830069 
L 154.090224 249.362317 
L 154.44876 249.362317 
L 154.44876 248.894566 
L 155.350181 248.894566 
L 155.350181 248.426814 
L 156.531019 248.426814 
L 156.531019 247.959062 
L 156.643182 247.959062 
L 156.720816 246.555807 
L 156.836668 246.555807 
L 156.836668 246.088055 
L 158.147039 246.088055 
L 158.147039 245.620303 
L 159.028273 245.620303 
L 159.028273 245.152552 
L 159.585318 245.152552 
L 159.585318 244.6848 
L 159.738544 244.6848 
L 159.845475 242.813793 
L 160.162668 242.813793 
L 160.162668 241.87829 
L 160.375185 241.87829 
L 160.375185 240.942786 
L 160.660094 240.942786 
L 160.660094 240.007283 
L 160.983265 240.007283 
L 160.983265 239.539531 
L 161.335107 239.539531 
L 161.335107 239.071779 
L 161.817625 239.071779 
L 161.817625 238.604028 
L 162.81371 238.604028 
L 162.918491 237.200772 
L 162.98108 237.200772 
L 162.98108 236.733021 
L 163.318239 236.733021 
L 163.338686 235.329766 
L 163.68962 235.329766 
L 163.77634 233.458759 
L 164.414303 233.458759 
L 164.414303 232.991007 
L 164.53934 232.991007 
L 164.53934 232.055503 
L 164.657201 232.055503 
L 164.657201 231.12 
L 165.300233 231.12 
L 165.34927 230.184497 
L 165.628775 230.184497 
L 165.628775 229.716745 
L 166.016779 229.716745 
L 166.016779 228.781241 
L 166.213668 228.781241 
L 166.213668 227.845738 
L 166.967205 227.845738 
L 166.967205 227.377986 
L 167.237678 227.377986 
L 167.237678 226.442483 
L 167.477004 226.442483 
L 167.558829 225.039228 
L 167.810248 225.039228 
L 167.810248 224.103724 
L 168.459533 224.103724 
L 168.459533 223.168221 
L 168.611979 223.168221 
L 168.611979 222.232717 
L 169.449976 222.232717 
L 169.449976 221.297214 
L 169.638546 221.297214 
L 169.638546 220.36171 
L 169.916704 220.36171 
L 169.916704 219.426207 
L 170.292282 219.426207 
L 170.292282 218.958455 
L 170.414267 218.958455 
L 170.414267 218.022952 
L 170.787015 218.022952 
L 170.816793 216.151945 
L 170.96952 216.151945 
L 170.96952 215.216441 
L 171.304786 215.216441 
L 171.387122 213.813186 
L 171.446979 213.813186 
L 171.537509 212.409931 
L 172.000941 212.409931 
L 172.037442 211.006676 
L 172.195505 211.006676 
L 172.195505 210.538924 
L 172.717819 210.538924 
L 172.717819 210.071172 
L 173.112918 210.071172 
L 173.155412 208.667917 
L 173.274288 208.667917 
L 173.274288 207.732414 
L 173.569221 207.732414 
L 173.569221 206.79691 
L 173.87517 206.79691 
L 173.908212 204.458152 
L 174.461224 204.458152 
L 174.461224 203.522648 
L 174.574026 203.522648 
L 174.574026 203.054897 
L 174.941545 203.054897 
L 174.941545 202.587145 
L 175.10261 202.587145 
L 175.184443 200.716138 
L 175.705205 200.716138 
L 175.705205 200.248386 
L 176.680257 200.248386 
L 176.680257 199.780634 
L 176.827158 199.780634 
L 176.827158 199.312883 
L 177.117562 199.312883 
L 177.117562 198.845131 
L 177.233457 198.845131 
L 177.288704 196.974124 
L 177.509686 196.974124 
L 177.509686 196.506372 
L 178.244035 196.506372 
L 178.244035 195.570869 
L 178.557555 195.570869 
L 178.557555 195.103117 
L 178.83906 195.103117 
L 178.83906 194.635366 
L 179.741931 194.635366 
L 179.75759 193.23211 
L 180.301752 193.23211 
L 180.403772 192.296607 
L 181.49222 192.296607 
L 181.537582 190.893352 
L 182.459592 190.893352 
L 182.459592 189.957848 
L 183.536269 189.957848 
L 183.536269 189.022345 
L 184.475083 189.022345 
L 184.555746 188.086841 
L 185.56047 188.086841 
L 185.56047 187.61909 
L 360.8064 187.61909 
L 360.8064 187.61909 
" style="fill: none; stroke: #000080; stroke-width: 1.5; stroke-linecap: square"/>
   </g>
   <g id="line2d_36">
    <defs>
     <path id="mc2c6989e2c" d="M 0 6 
C 1.591219 6 3.117479 5.367802 4.242641 4.242641 
C 5.367802 3.117479 6 1.591219 6 0 
C 6 -1.591219 5.367802 -3.117479 4.242641 -4.242641 
C 3.117479 -5.367802 1.591219 -6 0 -6 
C -1.591219 -6 -3.117479 -5.367802 -4.242641 -4.242641 
C -5.367802 -3.117479 -6 -1.591219 -6 0 
C -6 1.591219 -5.367802 3.117479 -4.242641 4.242641 
C -3.117479 5.367802 -1.591219 6 0 6 
z
" style="stroke: #000080; stroke-width: 1.5"/>
    </defs>
    <g>
     <use xlink:href="#mc2c6989e2c" x="150.000827" y="257.314097" style="fill-opacity: 0; stroke: #000080; stroke-width: 1.5"/>
     <use xlink:href="#mc2c6989e2c" x="185.56047" y="188.086841" style="fill-opacity: 0; stroke: #000080; stroke-width: 1.5"/>
     <use xlink:href="#mc2c6989e2c" x="185.56047" y="187.61909" style="fill-opacity: 0; stroke: #000080; stroke-width: 1.5"/>
     <use xlink:href="#mc2c6989e2c" x="185.56047" y="187.61909" style="fill-opacity: 0; stroke: #000080; stroke-width: 1.5"/>
     <use xlink:href="#mc2c6989e2c" x="360.8064" y="187.61909" style="fill-opacity: 0; stroke: #000080; stroke-width: 1.5"/>
    </g>
   </g>
   <g id="line2d_37">
    <path style="fill: none; stroke: #000080; stroke-width: 1.5; stroke-linecap: square"/>
    <g/>
   </g>
   <g id="line2d_38">
    <path d="M 187.549362 187.61909 
" clip-path="url(#pfac7448b58)" style="fill: none; stroke: #000080; stroke-width: 1.5; stroke-linecap: square"/>
    <defs>
     <path id="meded53d9ef" d="M -12 12 
L 12 -12 
M -12 -12 
L 12 12 
" style="stroke: #000080"/>
    </defs>
    <g clip-path="url(#pfac7448b58)">
     <use xlink:href="#meded53d9ef" x="187.549362" y="187.61909" style="fill: #000080; stroke: #000080"/>
    </g>
   </g>
   <g id="line2d_39">
    <defs>
     <path id="m29f0277c77" d="M 0 1.5 
C 0.397805 1.5 0.77937 1.341951 1.06066 1.06066 
C 1.341951 0.77937 1.5 0.397805 1.5 0 
C 1.5 -0.397805 1.341951 -0.77937 1.06066 -1.06066 
C 0.77937 -1.341951 0.397805 -1.5 0 -1.5 
C -0.397805 -1.5 -0.77937 -1.341951 -1.06066 -1.06066 
C -1.341951 -0.77937 -1.5 -0.397805 -1.5 0 
C -1.5 0.397805 -1.341951 0.77937 -1.06066 1.06066 
C -0.77937 1.341951 -0.397805 1.5 0 1.5 
z
" style="stroke: #ff00ff"/>
    </defs>
    <g>
     <use xlink:href="#m29f0277c77" x="185.842653" y="183.409324" style="fill: #ff00ff; stroke: #ff00ff"/>
     <use xlink:href="#m29f0277c77" x="185.842653" y="183.409324" style="fill: #ff00ff; stroke: #ff00ff"/>
    </g>
   </g>
   <g id="line2d_40">
    <path d="M 1.245626 298.944 
L 1.245626 286.782455 
L 55.618005 286.782455 
L 55.618005 286.314703 
L 69.674268 286.314703 
L 69.674268 285.846952 
L 85.683844 285.846952 
L 85.683844 285.3792 
L 88.972154 285.3792 
L 88.972154 284.911448 
L 101.102381 284.911448 
L 101.102381 284.443697 
L 103.707211 284.443697 
L 103.707211 283.975945 
L 104.501065 283.975945 
L 104.501065 283.508193 
L 109.756698 283.508193 
L 109.756698 283.040441 
L 109.873904 283.040441 
L 109.873904 282.57269 
L 111.54963 282.57269 
L 111.656212 281.637186 
L 113.57433 281.637186 
L 113.57433 281.169434 
L 115.618607 281.169434 
L 115.618607 280.701683 
L 116.002095 280.701683 
L 116.002095 280.233931 
L 119.24818 280.233931 
L 119.24818 279.766179 
L 119.842094 279.766179 
L 119.842094 279.298428 
L 120.013265 279.298428 
L 120.013265 278.830676 
L 121.008818 278.830676 
L 121.008818 278.362924 
L 121.39274 278.362924 
L 121.39274 277.895172 
L 123.289033 277.895172 
L 123.289033 277.427421 
L 123.51671 277.427421 
L 123.51671 276.959669 
L 124.238185 276.959669 
L 124.238185 276.491917 
L 124.748451 276.491917 
L 124.748451 276.024166 
L 125.348177 276.024166 
L 125.348177 275.556414 
L 126.347698 275.556414 
L 126.347698 274.62091 
L 127.319904 274.62091 
L 127.319904 274.153159 
L 128.956723 274.153159 
L 128.956723 273.685407 
L 129.663538 273.685407 
L 129.663538 273.217655 
L 130.226319 273.217655 
L 130.226319 272.749903 
L 130.618241 272.749903 
L 130.618241 272.282152 
L 130.887807 272.282152 
L 130.887807 271.8144 
L 131.600593 271.8144 
L 131.600593 271.346648 
L 131.947107 271.346648 
L 131.947107 270.878897 
L 132.216233 270.878897 
L 132.216233 270.411145 
L 132.673786 270.411145 
L 132.673786 269.943393 
L 133.44032 269.943393 
L 133.44032 269.00789 
L 134.605294 269.00789 
L 134.605294 268.072386 
L 135.702311 268.072386 
L 135.76142 267.136883 
L 135.820345 267.136883 
L 135.820345 266.669131 
L 136.155623 266.669131 
L 136.155623 265.733628 
L 136.738864 265.733628 
L 136.738864 265.265876 
L 137.085822 265.265876 
L 137.085822 264.798124 
L 137.627979 264.798124 
L 137.694663 263.862621 
L 138.705444 263.862621 
L 138.743257 262.459366 
L 139.067817 262.459366 
L 139.166565 261.523862 
L 139.215746 261.523862 
L 139.215746 261.05611 
L 139.496066 261.05611 
L 139.496066 260.120607 
L 139.688636 260.120607 
L 139.688636 259.652855 
L 140.781828 259.652855 
L 140.781828 259.185103 
L 141.073312 259.185103 
L 141.073312 258.717352 
L 141.316472 258.717352 
L 141.316472 258.2496 
L 141.50224 258.2496 
L 141.578203 256.846345 
L 142.206555 256.846345 
L 142.206555 256.378593 
L 144.267986 256.378593 
L 144.267986 255.910841 
L 144.565997 255.910841 
L 144.565997 255.44309 
L 144.704081 255.44309 
L 144.804702 254.039834 
L 144.941051 254.039834 
L 144.941051 253.572083 
L 145.085409 253.572083 
L 145.085409 253.104331 
L 145.608355 253.104331 
L 145.608355 252.168828 
L 146.057504 252.168828 
L 146.057504 251.701076 
L 146.670477 251.701076 
L 146.670477 251.233324 
L 147.062909 251.233324 
L 147.062909 250.765572 
L 148.337564 250.765572 
L 148.337564 250.297821 
L 148.585434 250.297821 
L 148.689612 248.894566 
L 148.83008 248.894566 
L 148.83008 248.426814 
L 149.538397 248.426814 
L 149.538397 247.959062 
L 149.700841 247.959062 
L 149.700841 247.49131 
L 149.938434 247.49131 
L 149.938434 246.555807 
L 152.113178 246.555807 
L 152.113178 246.088055 
L 152.24878 246.088055 
L 152.24878 245.620303 
L 153.124731 245.620303 
L 153.124731 245.152552 
L 154.633615 245.152552 
L 154.633615 244.217048 
L 154.997963 244.217048 
L 154.997963 243.749297 
L 156.299717 243.749297 
L 156.299717 242.813793 
L 156.457508 242.813793 
L 156.457508 241.87829 
L 156.648044 241.87829 
L 156.720816 240.942786 
L 156.774003 240.942786 
L 156.774003 240.007283 
L 158.124583 240.007283 
L 158.124583 239.539531 
L 158.414443 239.539531 
L 158.414443 239.071779 
L 158.568692 239.071779 
L 158.568692 238.136276 
L 158.773855 238.136276 
L 158.773855 237.200772 
L 159.614403 237.200772 
L 159.614403 236.733021 
L 160.033184 236.733021 
L 160.033184 236.265269 
L 161.075686 236.265269 
L 161.075686 235.329766 
L 161.486053 235.329766 
L 161.486053 234.862014 
L 161.825009 234.862014 
L 161.825009 233.92651 
L 162.848702 233.92651 
L 162.848702 232.991007 
L 163.084935 232.991007 
L 163.084935 232.055503 
L 163.208809 232.055503 
L 163.208809 231.12 
L 163.325057 231.12 
L 163.325057 230.184497 
L 163.552052 230.184497 
L 163.552052 229.248993 
L 163.782994 229.248993 
L 163.782994 228.31349 
L 163.928796 228.31349 
L 163.928796 227.377986 
L 164.398212 227.377986 
L 164.423951 225.974731 
L 165.006418 225.974731 
L 165.071763 224.571476 
L 165.793908 224.571476 
L 165.793908 224.103724 
L 166.23412 224.103724 
L 166.23412 223.635972 
L 166.638561 223.635972 
L 166.638561 222.700469 
L 166.978435 222.700469 
L 167.062453 220.829462 
L 168.0663 220.829462 
L 168.0663 219.893959 
L 168.417978 219.893959 
L 168.417978 218.958455 
L 168.68646 218.958455 
L 168.68646 218.490703 
L 169.142275 218.490703 
L 169.142275 218.022952 
L 169.459819 218.022952 
L 169.459819 217.087448 
L 169.619042 217.087448 
L 169.648291 215.216441 
L 169.943096 215.216441 
L 169.943096 214.280938 
L 170.05783 214.280938 
L 170.05783 213.345434 
L 170.261661 213.345434 
L 170.261661 212.877683 
L 171.021664 212.877683 
L 171.021664 211.942179 
L 171.315934 211.942179 
L 171.315934 211.474428 
L 172.322696 211.474428 
L 172.425935 210.071172 
L 172.549496 210.071172 
L 172.549496 209.135669 
L 172.724025 209.135669 
L 172.724025 208.200166 
L 173.054078 208.200166 
L 173.054078 207.732414 
L 173.234075 207.732414 
L 173.234075 206.79691 
L 173.408378 206.79691 
L 173.408378 205.861407 
L 173.585032 205.861407 
L 173.585032 204.925903 
L 173.765914 204.925903 
L 173.765914 203.9904 
L 173.927622 203.9904 
L 173.927622 203.054897 
L 174.101411 203.054897 
L 174.101411 202.587145 
L 174.298352 202.587145 
L 174.298352 202.119393 
L 175.115363 202.119393 
L 175.15357 201.18389 
L 175.485059 201.18389 
L 175.485059 200.248386 
L 175.995939 200.248386 
L 176.034135 199.312883 
L 176.184428 199.312883 
L 176.184428 198.845131 
L 176.728795 198.845131 
L 176.815515 197.441876 
L 177.068378 197.441876 
L 177.068378 196.506372 
L 177.395487 196.506372 
L 177.501667 194.635366 
L 177.544932 194.635366 
L 177.620009 192.764359 
L 178.325593 192.764359 
L 178.325593 192.296607 
L 178.610565 192.296607 
L 178.610565 191.828855 
L 178.767203 191.828855 
L 178.767203 191.361103 
L 178.95079 191.361103 
L 178.95079 190.893352 
L 179.357788 190.893352 
L 179.357788 190.4256 
L 179.861181 190.4256 
L 179.861181 189.490097 
L 180.96054 189.490097 
L 180.96054 189.022345 
L 181.382904 189.022345 
L 181.382904 188.554593 
L 181.516859 188.554593 
L 181.516859 188.086841 
L 181.694851 188.086841 
L 181.798546 186.215834 
L 183.554884 186.215834 
L 183.554884 185.748083 
L 184.166946 185.748083 
L 184.187197 184.812579 
L 185.116256 184.812579 
L 185.116256 184.344828 
L 185.842653 184.344828 
L 185.842653 183.409324 
L 360.8064 183.409324 
L 360.8064 183.409324 
" style="fill: none; stroke: #ff00ff; stroke-width: 1.5; stroke-linecap: square"/>
   </g>
   <g id="line2d_41">
    <defs>
     <path id="m9cbf9147e9" d="M -0 8.485281 
L 5.091169 0 
L 0 -8.485281 
L -5.091169 -0 
z
" style="stroke: #ff00ff; stroke-width: 1.5; stroke-linejoin: miter"/>
    </defs>
    <g>
     <use xlink:href="#m9cbf9147e9" x="69.674268" y="285.846952" style="fill-opacity: 0; stroke: #ff00ff; stroke-width: 1.5; stroke-linejoin: miter"/>
     <use xlink:href="#m9cbf9147e9" x="159.614403" y="237.200772" style="fill-opacity: 0; stroke: #ff00ff; stroke-width: 1.5; stroke-linejoin: miter"/>
     <use xlink:href="#m9cbf9147e9" x="185.842653" y="184.344828" style="fill-opacity: 0; stroke: #ff00ff; stroke-width: 1.5; stroke-linejoin: miter"/>
     <use xlink:href="#m9cbf9147e9" x="185.842653" y="183.409324" style="fill-opacity: 0; stroke: #ff00ff; stroke-width: 1.5; stroke-linejoin: miter"/>
     <use xlink:href="#m9cbf9147e9" x="185.842653" y="183.409324" style="fill-opacity: 0; stroke: #ff00ff; stroke-width: 1.5; stroke-linejoin: miter"/>
     <use xlink:href="#m9cbf9147e9" x="360.8064" y="183.409324" style="fill-opacity: 0; stroke: #ff00ff; stroke-width: 1.5; stroke-linejoin: miter"/>
    </g>
   </g>
   <g id="line2d_42">
    <path style="fill: none; stroke: #ff00ff; stroke-width: 1.5; stroke-linecap: square"/>
    <g/>
   </g>
   <g id="line2d_43">
    <path d="M 187.548422 183.409324 
" clip-path="url(#pfac7448b58)" style="fill: none; stroke: #ff00ff; stroke-width: 1.5; stroke-linecap: square"/>
    <defs>
     <path id="m77babc8177" d="M -12 12 
L 12 -12 
M -12 -12 
L 12 12 
" style="stroke: #ff00ff"/>
    </defs>
    <g clip-path="url(#pfac7448b58)">
     <use xlink:href="#m77babc8177" x="187.548422" y="183.409324" style="fill: #ff00ff; stroke: #ff00ff"/>
    </g>
   </g>
   <g id="line2d_44">
    <defs>
     <path id="m97a77dcad1" d="M 0 1.5 
C 0.397805 1.5 0.77937 1.341951 1.06066 1.06066 
C 1.341951 0.77937 1.5 0.397805 1.5 0 
C 1.5 -0.397805 1.341951 -0.77937 1.06066 -1.06066 
C 0.77937 -1.341951 0.397805 -1.5 0 -1.5 
C -0.397805 -1.5 -0.77937 -1.341951 -1.06066 -1.06066 
C -1.341951 -0.77937 -1.5 -0.397805 -1.5 0 
C -1.5 0.397805 -1.341951 0.77937 -1.06066 1.06066 
C -0.77937 1.341951 -0.397805 1.5 0 1.5 
z
" style="stroke: #ff7500"/>
    </defs>
    <g>
     <use xlink:href="#m97a77dcad1" x="197.423236" y="181.538317" style="fill: #ff7500; stroke: #ff7500"/>
     <use xlink:href="#m97a77dcad1" x="197.423236" y="181.538317" style="fill: #ff7500; stroke: #ff7500"/>
    </g>
   </g>
   <g id="line2d_45">
    <path d="M 1.245626 298.944 
L 1.245626 286.782455 
L 61.029752 286.782455 
L 61.029752 285.846952 
L 74.836851 285.846952 
L 74.836851 285.3792 
L 82.713442 285.3792 
L 82.713442 284.911448 
L 90.505165 284.911448 
L 90.505165 284.443697 
L 100.244997 284.443697 
L 100.244997 283.975945 
L 102.62243 283.975945 
L 102.62243 283.508193 
L 117.344894 283.508193 
L 117.344894 283.040441 
L 127.389106 283.040441 
L 127.389106 282.104938 
L 129.104431 282.104938 
L 129.104431 281.637186 
L 129.396412 281.637186 
L 129.396412 281.169434 
L 131.655732 281.169434 
L 131.655732 280.701683 
L 132.126951 280.701683 
L 132.126951 280.233931 
L 132.586655 280.233931 
L 132.586655 279.766179 
L 134.320744 279.766179 
L 134.320744 279.298428 
L 137.01694 279.298428 
L 137.01694 278.830676 
L 138.730661 278.830676 
L 138.730661 278.362924 
L 139.843661 278.362924 
L 139.891105 277.427421 
L 140.301214 277.427421 
L 140.301214 276.959669 
L 141.469591 276.959669 
L 141.469591 276.491917 
L 143.096422 276.491917 
L 143.096422 276.024166 
L 143.984246 276.024166 
L 143.984246 275.556414 
L 144.107726 275.556414 
L 144.173881 274.62091 
L 146.637401 274.62091 
L 146.637401 273.685407 
L 146.957431 273.685407 
L 146.957431 273.217655 
L 147.280107 273.217655 
L 147.375841 272.282152 
L 147.986506 272.282152 
L 147.986506 271.8144 
L 148.322436 271.8144 
L 148.382875 270.411145 
L 149.245299 270.411145 
L 149.245299 269.943393 
L 150.248351 269.943393 
L 150.248351 269.475641 
L 150.512877 269.475641 
L 150.512877 269.00789 
L 150.687184 269.00789 
L 150.687184 268.540138 
L 151.284843 268.540138 
L 151.284843 268.072386 
L 151.452172 268.072386 
L 151.452172 267.136883 
L 152.026375 267.136883 
L 152.026375 266.201379 
L 152.894708 266.201379 
L 152.894708 265.733628 
L 153.798392 265.733628 
L 153.871775 263.394869 
L 154.16248 263.394869 
L 154.16248 262.927117 
L 154.655244 262.927117 
L 154.660647 261.991614 
L 154.870174 261.991614 
L 154.870174 261.523862 
L 155.145961 261.523862 
L 155.145961 261.05611 
L 155.624203 261.05611 
L 155.624203 260.588359 
L 155.818243 260.588359 
L 155.884169 259.185103 
L 156.299717 259.185103 
L 156.299717 258.717352 
L 156.846291 258.717352 
L 156.846291 258.2496 
L 157.018655 258.2496 
L 157.075761 257.314097 
L 157.549652 257.314097 
L 157.642093 255.910841 
L 157.86667 255.910841 
L 157.86667 254.975338 
L 158.115593 254.975338 
L 158.115593 254.507586 
L 158.290128 254.507586 
L 158.290128 254.039834 
L 159.028273 254.039834 
L 159.028273 253.572083 
L 159.160584 253.572083 
L 159.181837 252.168828 
L 159.577 252.168828 
L 159.577 251.701076 
L 160.267222 251.701076 
L 160.319282 250.765572 
L 160.636516 250.765572 
L 160.636516 250.297821 
L 160.765833 250.297821 
L 160.765833 249.362317 
L 161.380518 249.362317 
L 161.380518 248.894566 
L 161.817625 248.894566 
L 161.913396 247.959062 
L 161.961099 247.959062 
L 161.961099 247.49131 
L 162.103487 247.49131 
L 162.103487 247.023559 
L 162.399397 247.023559 
L 162.399397 246.555807 
L 162.778654 246.555807 
L 162.778654 245.620303 
L 163.267023 245.620303 
L 163.294355 244.6848 
L 163.625994 244.6848 
L 163.726358 243.281545 
L 164.119277 243.281545 
L 164.119277 242.813793 
L 164.462492 242.813793 
L 164.462492 241.87829 
L 164.990826 241.87829 
L 165.031338 240.942786 
L 165.254146 240.942786 
L 165.254146 240.007283 
L 165.796897 240.007283 
L 165.796897 239.071779 
L 166.102252 239.071779 
L 166.102252 238.136276 
L 166.692785 238.136276 
L 166.692785 237.200772 
L 166.843221 237.200772 
L 166.902497 235.797517 
L 167.171118 235.797517 
L 167.279159 233.458759 
L 167.960035 233.458759 
L 167.960035 232.991007 
L 168.284904 232.991007 
L 168.292758 231.587752 
L 168.994082 231.587752 
L 168.994082 230.652248 
L 169.202224 230.652248 
L 169.202224 229.716745 
L 169.638546 229.716745 
L 169.638546 228.781241 
L 170.138678 228.781241 
L 170.209728 226.910234 
L 170.256946 226.910234 
L 170.256946 226.442483 
L 170.402572 226.442483 
L 170.481956 225.039228 
L 170.535467 225.039228 
L 170.535467 224.103724 
L 171.082693 224.103724 
L 171.130023 222.700469 
L 171.197432 222.700469 
L 171.224328 221.297214 
L 171.636373 221.297214 
L 171.636373 220.36171 
L 171.988042 220.36171 
L 171.998792 219.426207 
L 172.835373 219.426207 
L 172.835373 218.490703 
L 173.092649 218.490703 
L 173.149347 217.087448 
L 173.628445 217.087448 
L 173.628445 216.151945 
L 173.799148 216.151945 
L 173.799148 215.216441 
L 174.128301 215.216441 
L 174.128301 214.280938 
L 174.309761 214.280938 
L 174.410241 212.877683 
L 174.779089 212.877683 
L 174.779089 211.942179 
L 174.901062 211.942179 
L 174.901062 211.006676 
L 175.02225 211.006676 
L 175.02225 210.538924 
L 175.148116 210.538924 
L 175.148116 209.603421 
L 175.386583 209.603421 
L 175.420661 208.200166 
L 175.812564 208.200166 
L 175.812564 207.264662 
L 176.046272 207.264662 
L 176.046272 206.79691 
L 176.535578 206.79691 
L 176.535578 205.861407 
L 176.75552 205.861407 
L 176.857065 204.458152 
L 177.161719 204.458152 
L 177.161719 203.9904 
L 177.322746 203.9904 
L 177.374501 202.587145 
L 177.607251 202.587145 
L 177.607251 201.651641 
L 178.174508 201.651641 
L 178.234779 200.248386 
L 178.624172 200.248386 
L 178.631727 199.312883 
L 179.101686 199.312883 
L 179.101686 198.845131 
L 179.441905 198.845131 
L 179.465043 196.974124 
L 179.583183 196.974124 
L 179.643407 196.038621 
L 179.774658 196.038621 
L 179.774658 195.103117 
L 180.014803 195.103117 
L 180.014803 194.635366 
L 180.576218 194.635366 
L 180.576218 193.699862 
L 180.70114 193.699862 
L 180.70114 193.23211 
L 181.219045 193.23211 
L 181.219045 192.764359 
L 181.764044 192.764359 
L 181.764044 192.296607 
L 182.021906 192.296607 
L 182.118798 191.361103 
L 182.471914 191.361103 
L 182.471914 190.893352 
L 183.52579 190.893352 
L 183.547905 189.957848 
L 183.937044 189.957848 
L 183.937044 189.490097 
L 184.299304 189.490097 
L 184.299304 189.022345 
L 184.541407 189.022345 
L 184.541407 188.086841 
L 185.914595 188.086841 
L 185.914595 187.61909 
L 186.524174 187.61909 
L 186.524174 186.683586 
L 187.265108 186.683586 
L 187.265108 186.215834 
L 189.347936 186.215834 
L 189.347936 185.748083 
L 189.73702 185.748083 
L 189.73702 185.280331 
L 190.588908 185.280331 
L 190.588908 184.812579 
L 193.748433 184.812579 
L 193.748433 183.877076 
L 196.377102 183.877076 
L 196.377102 183.409324 
L 197.389267 183.409324 
L 197.423236 181.538317 
L 360.8064 181.538317 
L 360.8064 181.538317 
" style="fill: none; stroke: #ff7500; stroke-width: 1.5; stroke-linecap: square"/>
   </g>
   <g id="line2d_46">
    <defs>
     <path id="m3c82463113" d="M 0 -6 
L -1.347084 -1.854102 
L -5.706339 -1.854102 
L -2.179628 0.708204 
L -3.526712 4.854102 
L -0 2.291796 
L 3.526712 4.854102 
L 2.179628 0.708204 
L 5.706339 -1.854102 
L 1.347084 -1.854102 
z
" style="stroke: #ff7500; stroke-width: 1.5; stroke-linejoin: bevel"/>
    </defs>
    <g>
     <use xlink:href="#m3c82463113" x="74.836851" y="285.3792" style="fill-opacity: 0; stroke: #ff7500; stroke-width: 1.5; stroke-linejoin: bevel"/>
     <use xlink:href="#m3c82463113" x="163.625994" y="244.217048" style="fill-opacity: 0; stroke: #ff7500; stroke-width: 1.5; stroke-linejoin: bevel"/>
     <use xlink:href="#m3c82463113" x="197.423236" y="182.473821" style="fill-opacity: 0; stroke: #ff7500; stroke-width: 1.5; stroke-linejoin: bevel"/>
     <use xlink:href="#m3c82463113" x="197.423236" y="181.538317" style="fill-opacity: 0; stroke: #ff7500; stroke-width: 1.5; stroke-linejoin: bevel"/>
     <use xlink:href="#m3c82463113" x="197.423236" y="181.538317" style="fill-opacity: 0; stroke: #ff7500; stroke-width: 1.5; stroke-linejoin: bevel"/>
     <use xlink:href="#m3c82463113" x="360.8064" y="181.538317" style="fill-opacity: 0; stroke: #ff7500; stroke-width: 1.5; stroke-linejoin: bevel"/>
    </g>
   </g>
   <g id="line2d_47">
    <path style="fill: none; stroke: #ff7500; stroke-width: 1.5; stroke-linecap: square"/>
    <g/>
   </g>
   <g id="line2d_48">
    <path d="M 274.176075 181.538317 
" clip-path="url(#pfac7448b58)" style="fill: none; stroke: #ff7500; stroke-width: 1.5; stroke-linecap: square"/>
    <defs>
     <path id="m39ee35a293" d="M -12 12 
L 12 -12 
M -12 -12 
L 12 12 
" style="stroke: #ff7500"/>
    </defs>
    <g clip-path="url(#pfac7448b58)">
     <use xlink:href="#m39ee35a293" x="274.176075" y="181.538317" style="fill: #ff7500; stroke: #ff7500"/>
    </g>
   </g>
   <g id="line2d_49">
    <path d="M 360.8064 187.61909 
L 380.514816 293.51808 
" style="fill: none; stroke: #000080; stroke-width: 1.5; stroke-linecap: square"/>
    <g>
     <use xlink:href="#mc2c6989e2c" x="360.8064" y="187.61909" style="fill-opacity: 0; stroke: #000080; stroke-width: 1.5"/>
     <use xlink:href="#mc2c6989e2c" x="380.514816" y="293.51808" style="fill-opacity: 0; stroke: #000080; stroke-width: 1.5"/>
    </g>
   </g>
   <g id="line2d_50">
    <path d="M 360.8064 183.409324 
L 380.514816 206.70336 
" style="fill: none; stroke: #ff00ff; stroke-width: 1.5; stroke-linecap: square"/>
    <g>
     <use xlink:href="#m9cbf9147e9" x="360.8064" y="183.409324" style="fill-opacity: 0; stroke: #ff00ff; stroke-width: 1.5; stroke-linejoin: miter"/>
     <use xlink:href="#m9cbf9147e9" x="380.514816" y="206.70336" style="fill-opacity: 0; stroke: #ff00ff; stroke-width: 1.5; stroke-linejoin: miter"/>
    </g>
   </g>
   <g id="line2d_51">
    <path d="M 360.8064 181.538317 
L 380.514816 119.88864 
" style="fill: none; stroke: #ff7500; stroke-width: 1.5; stroke-linecap: square"/>
    <g>
     <use xlink:href="#m3c82463113" x="360.8064" y="181.538317" style="fill-opacity: 0; stroke: #ff7500; stroke-width: 1.5; stroke-linejoin: bevel"/>
     <use xlink:href="#m3c82463113" x="380.514816" y="119.88864" style="fill-opacity: 0; stroke: #ff7500; stroke-width: 1.5; stroke-linejoin: bevel"/>
    </g>
   </g>
   <g id="line2d_52">
    <path d="M 360.8064 298.944 
L 360.8064 27.648 
" style="fill: none; stroke: #000000; stroke-width: 1.5; stroke-linecap: square"/>
   </g>
   <g id="patch_3">
    <path d="M 57.6 298.944 
L 360.8064 298.944 
" style="fill: none; stroke: #000000; stroke-width: 0.8; stroke-linejoin: miter; stroke-linecap: square"/>
   </g>
   <g id="patch_4">
    <path d="M 57.6 27.648 
L 360.8064 27.648 
" style="fill: none; stroke: #000000; stroke-width: 0.8; stroke-linejoin: miter; stroke-linecap: square"/>
   </g>
   <g id="text_13">
    <!-- AllComo -->
    <g transform="translate(386.578944 297.381205) scale(0.14 -0.14)">
     <defs>
      <path id="DejaVuSans-41" d="M 2188 4044 
L 1331 1722 
L 3047 1722 
L 2188 4044 
z
M 1831 4666 
L 2547 4666 
L 4325 0 
L 3669 0 
L 3244 1197 
L 1141 1197 
L 716 0 
L 50 0 
L 1831 4666 
z
" transform="scale(0.015625)"/>
      <path id="DejaVuSans-43" d="M 4122 4306 
L 4122 3641 
Q 3803 3938 3442 4084 
Q 3081 4231 2675 4231 
Q 1875 4231 1450 3742 
Q 1025 3253 1025 2328 
Q 1025 1406 1450 917 
Q 1875 428 2675 428 
Q 3081 428 3442 575 
Q 3803 722 4122 1019 
L 4122 359 
Q 3791 134 3420 21 
Q 3050 -91 2638 -91 
Q 1578 -91 968 557 
Q 359 1206 359 2328 
Q 359 3453 968 4101 
Q 1578 4750 2638 4750 
Q 3056 4750 3426 4639 
Q 3797 4528 4122 4306 
z
" transform="scale(0.015625)"/>
     </defs>
     <use xlink:href="#DejaVuSans-41"/>
     <use xlink:href="#DejaVuSans-6c" x="68.408203"/>
     <use xlink:href="#DejaVuSans-6c" x="96.191406"/>
     <use xlink:href="#DejaVuSans-43" x="123.974609"/>
     <use xlink:href="#DejaVuSans-6f" x="193.798828"/>
     <use xlink:href="#DejaVuSans-6d" x="254.980469"/>
     <use xlink:href="#DejaVuSans-6f" x="352.392578"/>
    </g>
   </g>
   <g id="text_14">
    <!-- AllLQ -->
    <g transform="translate(386.578944 210.566485) scale(0.14 -0.14)">
     <defs>
      <path id="DejaVuSans-4c" d="M 628 4666 
L 1259 4666 
L 1259 531 
L 3531 531 
L 3531 0 
L 628 0 
L 628 4666 
z
" transform="scale(0.015625)"/>
      <path id="DejaVuSans-51" d="M 2522 4238 
Q 1834 4238 1429 3725 
Q 1025 3213 1025 2328 
Q 1025 1447 1429 934 
Q 1834 422 2522 422 
Q 3209 422 3611 934 
Q 4013 1447 4013 2328 
Q 4013 3213 3611 3725 
Q 3209 4238 2522 4238 
z
M 3406 84 
L 4238 -825 
L 3475 -825 
L 2784 -78 
Q 2681 -84 2626 -87 
Q 2572 -91 2522 -91 
Q 1538 -91 948 567 
Q 359 1225 359 2328 
Q 359 3434 948 4092 
Q 1538 4750 2522 4750 
Q 3503 4750 4090 4092 
Q 4678 3434 4678 2328 
Q 4678 1516 4351 937 
Q 4025 359 3406 84 
z
" transform="scale(0.015625)"/>
     </defs>
     <use xlink:href="#DejaVuSans-41"/>
     <use xlink:href="#DejaVuSans-6c" x="68.408203"/>
     <use xlink:href="#DejaVuSans-6c" x="96.191406"/>
     <use xlink:href="#DejaVuSans-4c" x="123.974609"/>
     <use xlink:href="#DejaVuSans-51" x="179.6875"/>
    </g>
   </g>
   <g id="text_15">
    <!-- COMO-10 d -->
    <g transform="translate(386.578944 123.751765) scale(0.14 -0.14)">
     <defs>
      <path id="DejaVuSans-4f" d="M 2522 4238 
Q 1834 4238 1429 3725 
Q 1025 3213 1025 2328 
Q 1025 1447 1429 934 
Q 1834 422 2522 422 
Q 3209 422 3611 934 
Q 4013 1447 4013 2328 
Q 4013 3213 3611 3725 
Q 3209 4238 2522 4238 
z
M 2522 4750 
Q 3503 4750 4090 4092 
Q 4678 3434 4678 2328 
Q 4678 1225 4090 567 
Q 3503 -91 2522 -91 
Q 1538 -91 948 565 
Q 359 1222 359 2328 
Q 359 3434 948 4092 
Q 1538 4750 2522 4750 
z
" transform="scale(0.015625)"/>
      <path id="DejaVuSans-4d" d="M 628 4666 
L 1569 4666 
L 2759 1491 
L 3956 4666 
L 4897 4666 
L 4897 0 
L 4281 0 
L 4281 4097 
L 3078 897 
L 2444 897 
L 1241 4097 
L 1241 0 
L 628 0 
L 628 4666 
z
" transform="scale(0.015625)"/>
     </defs>
     <use xlink:href="#DejaVuSans-43"/>
     <use xlink:href="#DejaVuSans-4f" x="69.824219"/>
     <use xlink:href="#DejaVuSans-4d" x="148.535156"/>
     <use xlink:href="#DejaVuSans-4f" x="234.814453"/>
     <use xlink:href="#DejaVuSans-2d" x="316.275391"/>
     <use xlink:href="#DejaVuSans-31" x="352.359375"/>
     <use xlink:href="#DejaVuSans-30" x="415.982422"/>
     <use xlink:href="#DejaVuSans-20" x="479.605469"/>
     <use xlink:href="#DejaVuSans-64" x="511.392578"/>
    </g>
   </g>
   <g id="text_16">
    <!-- best 2016 -->
    <g transform="translate(386.578944 36.937045) scale(0.14 -0.14)">
     <defs>
      <path id="DejaVuSans-62" d="M 3116 1747 
Q 3116 2381 2855 2742 
Q 2594 3103 2138 3103 
Q 1681 3103 1420 2742 
Q 1159 2381 1159 1747 
Q 1159 1113 1420 752 
Q 1681 391 2138 391 
Q 2594 391 2855 752 
Q 3116 1113 3116 1747 
z
M 1159 2969 
Q 1341 3281 1617 3432 
Q 1894 3584 2278 3584 
Q 2916 3584 3314 3078 
Q 3713 2572 3713 1747 
Q 3713 922 3314 415 
Q 2916 -91 2278 -91 
Q 1894 -91 1617 61 
Q 1341 213 1159 525 
L 1159 0 
L 581 0 
L 581 4863 
L 1159 4863 
L 1159 2969 
z
" transform="scale(0.015625)"/>
     </defs>
     <use xlink:href="#DejaVuSans-62"/>
     <use xlink:href="#DejaVuSans-65" x="63.476562"/>
     <use xlink:href="#DejaVuSans-73" x="125"/>
     <use xlink:href="#DejaVuSans-74" x="177.099609"/>
     <use xlink:href="#DejaVuSans-20" x="216.308594"/>
     <use xlink:href="#DejaVuSans-32" x="248.095703"/>
     <use xlink:href="#DejaVuSans-30" x="311.71875"/>
     <use xlink:href="#DejaVuSans-31" x="375.341797"/>
     <use xlink:href="#DejaVuSans-36" x="438.964844"/>
    </g>
   </g>
   <g id="text_17">
    <!-- bbob-biobj f41, 20-D -->
    <g transform="translate(60.632064 38.111366) scale(0.102 -0.102)">
     <defs>
      <path id="DejaVuSans-6a" d="M 603 3500 
L 1178 3500 
L 1178 -63 
Q 1178 -731 923 -1031 
Q 669 -1331 103 -1331 
L -116 -1331 
L -116 -844 
L 38 -844 
Q 366 -844 484 -692 
Q 603 -541 603 -63 
L 603 3500 
z
M 603 4863 
L 1178 4863 
L 1178 4134 
L 603 4134 
L 603 4863 
z
" transform="scale(0.015625)"/>
      <path id="DejaVuSans-44" d="M 1259 4147 
L 1259 519 
L 2022 519 
Q 2988 519 3436 956 
Q 3884 1394 3884 2338 
Q 3884 3275 3436 3711 
Q 2988 4147 2022 4147 
L 1259 4147 
z
M 628 4666 
L 1925 4666 
Q 3281 4666 3915 4102 
Q 4550 3538 4550 2338 
Q 4550 1131 3912 565 
Q 3275 0 1925 0 
L 628 0 
L 628 4666 
z
" transform="scale(0.015625)"/>
     </defs>
     <use xlink:href="#DejaVuSans-62"/>
     <use xlink:href="#DejaVuSans-62" x="63.476562"/>
     <use xlink:href="#DejaVuSans-6f" x="126.953125"/>
     <use xlink:href="#DejaVuSans-62" x="188.134766"/>
     <use xlink:href="#DejaVuSans-2d" x="251.611328"/>
     <use xlink:href="#DejaVuSans-62" x="287.695312"/>
     <use xlink:href="#DejaVuSans-69" x="351.171875"/>
     <use xlink:href="#DejaVuSans-6f" x="378.955078"/>
     <use xlink:href="#DejaVuSans-62" x="440.136719"/>
     <use xlink:href="#DejaVuSans-6a" x="503.613281"/>
     <use xlink:href="#DejaVuSans-20" x="531.396484"/>
     <use xlink:href="#DejaVuSans-66" x="563.183594"/>
     <use xlink:href="#DejaVuSans-34" x="598.388672"/>
     <use xlink:href="#DejaVuSans-31" x="662.011719"/>
     <use xlink:href="#DejaVuSans-2c" x="725.634766"/>
     <use xlink:href="#DejaVuSans-20" x="757.421875"/>
     <use xlink:href="#DejaVuSans-32" x="789.208984"/>
     <use xlink:href="#DejaVuSans-30" x="852.832031"/>
     <use xlink:href="#DejaVuSans-2d" x="916.455078"/>
     <use xlink:href="#DejaVuSans-44" x="952.539062"/>
    </g>
    <!-- 58 targets: 1..-1.0e-4 -->
    <g transform="translate(60.632064 49.533135) scale(0.102 -0.102)">
     <defs>
      <path id="DejaVuSans-35" d="M 691 4666 
L 3169 4666 
L 3169 4134 
L 1269 4134 
L 1269 2991 
Q 1406 3038 1543 3061 
Q 1681 3084 1819 3084 
Q 2600 3084 3056 2656 
Q 3513 2228 3513 1497 
Q 3513 744 3044 326 
Q 2575 -91 1722 -91 
Q 1428 -91 1123 -41 
Q 819 9 494 109 
L 494 744 
Q 775 591 1075 516 
Q 1375 441 1709 441 
Q 2250 441 2565 725 
Q 2881 1009 2881 1497 
Q 2881 1984 2565 2268 
Q 2250 2553 1709 2553 
Q 1456 2553 1204 2497 
Q 953 2441 691 2322 
L 691 4666 
z
" transform="scale(0.015625)"/>
      <path id="DejaVuSans-3a" d="M 750 794 
L 1409 794 
L 1409 0 
L 750 0 
L 750 794 
z
M 750 3309 
L 1409 3309 
L 1409 2516 
L 750 2516 
L 750 3309 
z
" transform="scale(0.015625)"/>
     </defs>
     <use xlink:href="#DejaVuSans-35"/>
     <use xlink:href="#DejaVuSans-38" x="63.623047"/>
     <use xlink:href="#DejaVuSans-20" x="127.246094"/>
     <use xlink:href="#DejaVuSans-74" x="159.033203"/>
     <use xlink:href="#DejaVuSans-61" x="198.242188"/>
     <use xlink:href="#DejaVuSans-72" x="259.521484"/>
     <use xlink:href="#DejaVuSans-67" x="298.884766"/>
     <use xlink:href="#DejaVuSans-65" x="362.361328"/>
     <use xlink:href="#DejaVuSans-74" x="423.884766"/>
     <use xlink:href="#DejaVuSans-73" x="463.09375"/>
     <use xlink:href="#DejaVuSans-3a" x="515.193359"/>
     <use xlink:href="#DejaVuSans-20" x="548.884766"/>
     <use xlink:href="#DejaVuSans-31" x="580.671875"/>
     <use xlink:href="#DejaVuSans-2e" x="644.294922"/>
     <use xlink:href="#DejaVuSans-2e" x="676.082031"/>
     <use xlink:href="#DejaVuSans-2d" x="707.869141"/>
     <use xlink:href="#DejaVuSans-31" x="743.953125"/>
     <use xlink:href="#DejaVuSans-2e" x="807.576172"/>
     <use xlink:href="#DejaVuSans-30" x="839.363281"/>
     <use xlink:href="#DejaVuSans-65" x="902.986328"/>
     <use xlink:href="#DejaVuSans-2d" x="964.509766"/>
     <use xlink:href="#DejaVuSans-34" x="1000.59375"/>
    </g>
    <!-- 10 instances -->
    <g transform="translate(60.632064 60.954904) scale(0.102 -0.102)">
     <use xlink:href="#DejaVuSans-31"/>
     <use xlink:href="#DejaVuSans-30" x="63.623047"/>
     <use xlink:href="#DejaVuSans-20" x="127.246094"/>
     <use xlink:href="#DejaVuSans-69" x="159.033203"/>
     <use xlink:href="#DejaVuSans-6e" x="186.816406"/>
     <use xlink:href="#DejaVuSans-73" x="250.195312"/>
     <use xlink:href="#DejaVuSans-74" x="302.294922"/>
     <use xlink:href="#DejaVuSans-61" x="341.503906"/>
     <use xlink:href="#DejaVuSans-6e" x="402.783203"/>
     <use xlink:href="#DejaVuSans-63" x="466.162109"/>
     <use xlink:href="#DejaVuSans-65" x="521.142578"/>
     <use xlink:href="#DejaVuSans-73" x="582.666016"/>
    </g>
   </g>
   <g id="text_18">
    <!-- v2.6, hv-hash=ff0e71e8cd978373 -->
    <g style="fill: #808080" transform="translate(123.707887 294.151352) scale(0.1 -0.1)">
     <defs>
      <path id="DejaVuSans-68" d="M 3513 2113 
L 3513 0 
L 2938 0 
L 2938 2094 
Q 2938 2591 2744 2837 
Q 2550 3084 2163 3084 
Q 1697 3084 1428 2787 
Q 1159 2491 1159 1978 
L 1159 0 
L 581 0 
L 581 4863 
L 1159 4863 
L 1159 2956 
Q 1366 3272 1645 3428 
Q 1925 3584 2291 3584 
Q 2894 3584 3203 3211 
Q 3513 2838 3513 2113 
z
" transform="scale(0.015625)"/>
      <path id="DejaVuSans-3d" d="M 678 2906 
L 4684 2906 
L 4684 2381 
L 678 2381 
L 678 2906 
z
M 678 1631 
L 4684 1631 
L 4684 1100 
L 678 1100 
L 678 1631 
z
" transform="scale(0.015625)"/>
      <path id="DejaVuSans-37" d="M 525 4666 
L 3525 4666 
L 3525 4397 
L 1831 0 
L 1172 0 
L 2766 4134 
L 525 4134 
L 525 4666 
z
" transform="scale(0.015625)"/>
      <path id="DejaVuSans-39" d="M 703 97 
L 703 672 
Q 941 559 1184 500 
Q 1428 441 1663 441 
Q 2288 441 2617 861 
Q 2947 1281 2994 2138 
Q 2813 1869 2534 1725 
Q 2256 1581 1919 1581 
Q 1219 1581 811 2004 
Q 403 2428 403 3163 
Q 403 3881 828 4315 
Q 1253 4750 1959 4750 
Q 2769 4750 3195 4129 
Q 3622 3509 3622 2328 
Q 3622 1225 3098 567 
Q 2575 -91 1691 -91 
Q 1453 -91 1209 -44 
Q 966 3 703 97 
z
M 1959 2075 
Q 2384 2075 2632 2365 
Q 2881 2656 2881 3163 
Q 2881 3666 2632 3958 
Q 2384 4250 1959 4250 
Q 1534 4250 1286 3958 
Q 1038 3666 1038 3163 
Q 1038 2656 1286 2365 
Q 1534 2075 1959 2075 
z
" transform="scale(0.015625)"/>
      <path id="DejaVuSans-33" d="M 2597 2516 
Q 3050 2419 3304 2112 
Q 3559 1806 3559 1356 
Q 3559 666 3084 287 
Q 2609 -91 1734 -91 
Q 1441 -91 1130 -33 
Q 819 25 488 141 
L 488 750 
Q 750 597 1062 519 
Q 1375 441 1716 441 
Q 2309 441 2620 675 
Q 2931 909 2931 1356 
Q 2931 1769 2642 2001 
Q 2353 2234 1838 2234 
L 1294 2234 
L 1294 2753 
L 1863 2753 
Q 2328 2753 2575 2939 
Q 2822 3125 2822 3475 
Q 2822 3834 2567 4026 
Q 2313 4219 1838 4219 
Q 1578 4219 1281 4162 
Q 984 4106 628 3988 
L 628 4550 
Q 988 4650 1302 4700 
Q 1616 4750 1894 4750 
Q 2613 4750 3031 4423 
Q 3450 4097 3450 3541 
Q 3450 3153 3228 2886 
Q 3006 2619 2597 2516 
z
" transform="scale(0.015625)"/>
     </defs>
     <use xlink:href="#DejaVuSans-76"/>
     <use xlink:href="#DejaVuSans-32" x="59.179688"/>
     <use xlink:href="#DejaVuSans-2e" x="122.802734"/>
     <use xlink:href="#DejaVuSans-36" x="154.589844"/>
     <use xlink:href="#DejaVuSans-2c" x="218.212891"/>
     <use xlink:href="#DejaVuSans-20" x="250"/>
     <use xlink:href="#DejaVuSans-68" x="281.787109"/>
     <use xlink:href="#DejaVuSans-76" x="345.166016"/>
     <use xlink:href="#DejaVuSans-2d" x="401.720703"/>
     <use xlink:href="#DejaVuSans-68" x="437.804688"/>
     <use xlink:href="#DejaVuSans-61" x="501.183594"/>
     <use xlink:href="#DejaVuSans-73" x="562.462891"/>
     <use xlink:href="#DejaVuSans-68" x="614.5625"/>
     <use xlink:href="#DejaVuSans-3d" x="677.941406"/>
     <use xlink:href="#DejaVuSans-66" x="761.730469"/>
     <use xlink:href="#DejaVuSans-66" x="796.935547"/>
     <use xlink:href="#DejaVuSans-30" x="832.140625"/>
     <use xlink:href="#DejaVuSans-65" x="895.763672"/>
     <use xlink:href="#DejaVuSans-37" x="957.287109"/>
     <use xlink:href="#DejaVuSans-31" x="1020.910156"/>
     <use xlink:href="#DejaVuSans-65" x="1084.533203"/>
     <use xlink:href="#DejaVuSans-38" x="1146.056641"/>
     <use xlink:href="#DejaVuSans-63" x="1209.679688"/>
     <use xlink:href="#DejaVuSans-64" x="1264.660156"/>
     <use xlink:href="#DejaVuSans-39" x="1328.136719"/>
     <use xlink:href="#DejaVuSans-37" x="1391.759766"/>
     <use xlink:href="#DejaVuSans-38" x="1455.382812"/>
     <use xlink:href="#DejaVuSans-33" x="1519.005859"/>
     <use xlink:href="#DejaVuSans-37" x="1582.628906"/>
     <use xlink:href="#DejaVuSans-33" x="1646.251953"/>
    </g>
   </g>
   <g id="text_19">
    <!-- 41 Diff. Powers/Diff. Powers -->
    <g transform="translate(72.756325 21.648) scale(0.2 -0.2)">
     <defs>
      <path id="DejaVuSans-50" d="M 1259 4147 
L 1259 2394 
L 2053 2394 
Q 2494 2394 2734 2622 
Q 2975 2850 2975 3272 
Q 2975 3691 2734 3919 
Q 2494 4147 2053 4147 
L 1259 4147 
z
M 628 4666 
L 2053 4666 
Q 2838 4666 3239 4311 
Q 3641 3956 3641 3272 
Q 3641 2581 3239 2228 
Q 2838 1875 2053 1875 
L 1259 1875 
L 1259 0 
L 628 0 
L 628 4666 
z
" transform="scale(0.015625)"/>
      <path id="DejaVuSans-77" d="M 269 3500 
L 844 3500 
L 1563 769 
L 2278 3500 
L 2956 3500 
L 3675 769 
L 4391 3500 
L 4966 3500 
L 4050 0 
L 3372 0 
L 2619 2869 
L 1863 0 
L 1184 0 
L 269 3500 
z
" transform="scale(0.015625)"/>
     </defs>
     <use xlink:href="#DejaVuSans-34"/>
     <use xlink:href="#DejaVuSans-31" x="63.623047"/>
     <use xlink:href="#DejaVuSans-20" x="127.246094"/>
     <use xlink:href="#DejaVuSans-44" x="159.033203"/>
     <use xlink:href="#DejaVuSans-69" x="236.035156"/>
     <use xlink:href="#DejaVuSans-66" x="263.818359"/>
     <use xlink:href="#DejaVuSans-66" x="299.023438"/>
     <use xlink:href="#DejaVuSans-2e" x="326.978516"/>
     <use xlink:href="#DejaVuSans-20" x="358.765625"/>
     <use xlink:href="#DejaVuSans-50" x="390.552734"/>
     <use xlink:href="#DejaVuSans-6f" x="447.230469"/>
     <use xlink:href="#DejaVuSans-77" x="508.412109"/>
     <use xlink:href="#DejaVuSans-65" x="590.199219"/>
     <use xlink:href="#DejaVuSans-72" x="651.722656"/>
     <use xlink:href="#DejaVuSans-73" x="692.835938"/>
     <use xlink:href="#DejaVuSans-2f" x="744.935547"/>
     <use xlink:href="#DejaVuSans-44" x="778.626953"/>
     <use xlink:href="#DejaVuSans-69" x="855.628906"/>
     <use xlink:href="#DejaVuSans-66" x="883.412109"/>
     <use xlink:href="#DejaVuSans-66" x="918.617188"/>
     <use xlink:href="#DejaVuSans-2e" x="946.572266"/>
     <use xlink:href="#DejaVuSans-20" x="978.359375"/>
     <use xlink:href="#DejaVuSans-50" x="1010.146484"/>
     <use xlink:href="#DejaVuSans-6f" x="1066.824219"/>
     <use xlink:href="#DejaVuSans-77" x="1128.005859"/>
     <use xlink:href="#DejaVuSans-65" x="1209.792969"/>
     <use xlink:href="#DejaVuSans-72" x="1271.316406"/>
     <use xlink:href="#DejaVuSans-73" x="1312.429688"/>
    </g>
   </g>
  </g>
 </g>
 <defs>
  <clipPath id="pfac7448b58">
   <rect x="57.6" y="27.648" width="303.2064" height="271.296"/>
  </clipPath>
 </defs>
</svg>
