<?xml version="1.0" encoding="utf-8" standalone="no"?>
<!DOCTYPE svg PUBLIC "-//W3C//DTD SVG 1.1//EN"
  "http://www.w3.org/Graphics/SVG/1.1/DTD/svg11.dtd">
<svg xmlns:xlink="http://www.w3.org/1999/xlink" width="460.8pt" height="345.6pt" viewBox="0 0 460.8 345.6" xmlns="http://www.w3.org/2000/svg" version="1.1">
 <metadata>
  <rdf:RDF xmlns:dc="http://purl.org/dc/elements/1.1/" xmlns:cc="http://creativecommons.org/ns#" xmlns:rdf="http://www.w3.org/1999/02/22-rdf-syntax-ns#">
   <cc:Work>
    <dc:type rdf:resource="http://purl.org/dc/dcmitype/StillImage"/>
    <dc:date>2023-02-21T13:48:43.294434</dc:date>
    <dc:format>image/svg+xml</dc:format>
    <dc:creator>
     <cc:Agent>
      <dc:title>Matplotlib v3.7.0, https://matplotlib.org/</dc:title>
     </cc:Agent>
    </dc:creator>
   </cc:Work>
  </rdf:RDF>
 </metadata>
 <defs>
  <style type="text/css">*{stroke-linejoin: round; stroke-linecap: butt}</style>
 </defs>
 <g id="figure_1">
  <g id="patch_1">
   <path d="M 0 345.6 
L 460.8 345.6 
L 460.8 0 
L 0 0 
z
" style="fill: #ffffff"/>
  </g>
  <g id="axes_1">
   <g id="patch_2">
    <path d="M 57.6 298.944 
L 360.8064 298.944 
L 360.8064 6.912 
L 57.6 6.912 
z
" style="fill: #ffffff"/>
   </g>
   <g id="line2d_1">
    <path d="M 49.972572 298.944 
L 49.972572 266.496 
L 57.6 266.496 
L 57.6 250.272 
L 63.011746 250.272 
L 63.011746 234.048 
L 67.209423 234.048 
L 67.209423 217.824 
L 80.248597 217.824 
L 80.248597 201.6 
L 85.184077 201.6 
L 85.184077 185.376 
L 90.230539 185.376 
L 90.230539 177.264 
L 91.305777 177.264 
L 91.305777 169.152 
L 92.322865 169.152 
L 92.322865 161.04 
L 93.287772 161.04 
L 93.287772 152.928 
L 98.223251 152.928 
L 98.223251 144.816 
L 104.344952 144.816 
L 104.344952 136.704 
L 107.244765 136.704 
L 107.244765 128.592 
L 107.68741 128.592 
L 107.68741 120.48 
L 109.360651 120.48 
L 109.360651 112.368 
L 109.756698 112.368 
L 109.756698 104.256 
L 116.308887 104.256 
L 116.308887 96.144 
L 118.889854 96.144 
L 118.889854 88.032 
L 119.599808 88.032 
L 119.599808 79.92 
L 123.936316 79.92 
L 123.936316 71.808 
L 125.862901 71.808 
L 125.862901 63.696 
L 126.355808 63.696 
L 126.355808 55.584 
L 127.911368 55.584 
L 127.911368 47.472 
L 129.758512 47.472 
L 129.758512 39.36 
L 132.04923 39.36 
L 132.04923 31.248 
L 134.091039 31.248 
L 134.091039 23.136 
L 136.413909 23.136 
L 136.413909 15.024 
L 138.050729 15.024 
L 138.050729 6.912 
L 360.8064 6.912 
" style="fill: none; stroke: #f5deb3; stroke-width: 4; stroke-linecap: square"/>
   </g>
   <g id="line2d_2">
    <defs>
     <path id="m6722c31744" d="M -0 7.778175 
L 7.778175 0 
L 0 -7.778175 
L -7.778175 -0 
z
" style="stroke: #f5deb3; stroke-width: 1.5; stroke-linejoin: miter"/>
    </defs>
    <g>
     <use xlink:href="#m6722c31744" x="63.011746" y="234.048" style="fill: #f5deb3; stroke: #f5deb3; stroke-width: 1.5; stroke-linejoin: miter"/>
     <use xlink:href="#m6722c31744" x="107.244765" y="136.704" style="fill: #f5deb3; stroke: #f5deb3; stroke-width: 1.5; stroke-linejoin: miter"/>
     <use xlink:href="#m6722c31744" x="134.091039" y="23.136" style="fill: #f5deb3; stroke: #f5deb3; stroke-width: 1.5; stroke-linejoin: miter"/>
     <use xlink:href="#m6722c31744" x="138.050729" y="6.912" style="fill: #f5deb3; stroke: #f5deb3; stroke-width: 1.5; stroke-linejoin: miter"/>
     <use xlink:href="#m6722c31744" x="138.050729" y="6.912" style="fill: #f5deb3; stroke: #f5deb3; stroke-width: 1.5; stroke-linejoin: miter"/>
     <use xlink:href="#m6722c31744" x="360.8064" y="6.912" style="fill: #f5deb3; stroke: #f5deb3; stroke-width: 1.5; stroke-linejoin: miter"/>
    </g>
   </g>
   <g id="line2d_3">
    <path style="fill: none; stroke: #f5deb3; stroke-width: 4; stroke-linecap: square"/>
    <g/>
   </g>
   <g id="line2d_4">
    <path d="M 360.8064 6.912 
L 380.514816 12.75264 
" style="fill: none; stroke: #f5deb3; stroke-width: 4; stroke-linecap: square"/>
    <g>
     <use xlink:href="#m6722c31744" x="360.8064" y="6.912" style="fill: #f5deb3; stroke: #f5deb3; stroke-width: 1.5; stroke-linejoin: miter"/>
     <use xlink:href="#m6722c31744" x="380.514816" y="12.75264" style="fill: #f5deb3; stroke: #f5deb3; stroke-width: 1.5; stroke-linejoin: miter"/>
    </g>
   </g>
   <g id="matplotlib.axis_1">
    <g id="xtick_1">
     <g id="line2d_5">
      <path d="M 57.6 298.944 
L 57.6 6.912 
" clip-path="url(#p2181bb1b6d)" style="fill: none; stroke: #b0b0b0; stroke-width: 0.8; stroke-linecap: square"/>
     </g>
     <g id="line2d_6">
      <defs>
       <path id="mf10fd7ecf1" d="M 0 0 
L 0 3.5 
" style="stroke: #000000; stroke-width: 0.8"/>
      </defs>
      <g>
       <use xlink:href="#mf10fd7ecf1" x="57.6" y="298.944" style="stroke: #000000; stroke-width: 0.8"/>
      </g>
     </g>
     <g id="text_1">
      <!-- 0 -->
      <g transform="translate(52.191875 318.861344) scale(0.17 -0.17)">
       <defs>
        <path id="DejaVuSans-30" d="M 2034 4250 
Q 1547 4250 1301 3770 
Q 1056 3291 1056 2328 
Q 1056 1369 1301 889 
Q 1547 409 2034 409 
Q 2525 409 2770 889 
Q 3016 1369 3016 2328 
Q 3016 3291 2770 3770 
Q 2525 4250 2034 4250 
z
M 2034 4750 
Q 2819 4750 3233 4129 
Q 3647 3509 3647 2328 
Q 3647 1150 3233 529 
Q 2819 -91 2034 -91 
Q 1250 -91 836 529 
Q 422 1150 422 2328 
Q 422 3509 836 4129 
Q 1250 4750 2034 4750 
z
" transform="scale(0.015625)"/>
       </defs>
       <use xlink:href="#DejaVuSans-30"/>
      </g>
     </g>
    </g>
    <g id="xtick_2">
     <g id="line2d_7">
      <path d="M 144.2304 298.944 
L 144.2304 6.912 
" clip-path="url(#p2181bb1b6d)" style="fill: none; stroke: #b0b0b0; stroke-width: 0.8; stroke-linecap: square"/>
     </g>
     <g id="line2d_8">
      <g>
       <use xlink:href="#mf10fd7ecf1" x="144.2304" y="298.944" style="stroke: #000000; stroke-width: 0.8"/>
      </g>
     </g>
     <g id="text_2">
      <!-- 2 -->
      <g transform="translate(138.822275 318.861344) scale(0.17 -0.17)">
       <defs>
        <path id="DejaVuSans-32" d="M 1228 531 
L 3431 531 
L 3431 0 
L 469 0 
L 469 531 
Q 828 903 1448 1529 
Q 2069 2156 2228 2338 
Q 2531 2678 2651 2914 
Q 2772 3150 2772 3378 
Q 2772 3750 2511 3984 
Q 2250 4219 1831 4219 
Q 1534 4219 1204 4116 
Q 875 4013 500 3803 
L 500 4441 
Q 881 4594 1212 4672 
Q 1544 4750 1819 4750 
Q 2544 4750 2975 4387 
Q 3406 4025 3406 3419 
Q 3406 3131 3298 2873 
Q 3191 2616 2906 2266 
Q 2828 2175 2409 1742 
Q 1991 1309 1228 531 
z
" transform="scale(0.015625)"/>
       </defs>
       <use xlink:href="#DejaVuSans-32"/>
      </g>
     </g>
    </g>
    <g id="xtick_3">
     <g id="line2d_9">
      <path d="M 230.8608 298.944 
L 230.8608 6.912 
" clip-path="url(#p2181bb1b6d)" style="fill: none; stroke: #b0b0b0; stroke-width: 0.8; stroke-linecap: square"/>
     </g>
     <g id="line2d_10">
      <g>
       <use xlink:href="#mf10fd7ecf1" x="230.8608" y="298.944" style="stroke: #000000; stroke-width: 0.8"/>
      </g>
     </g>
     <g id="text_3">
      <!-- 4 -->
      <g transform="translate(225.452675 318.861344) scale(0.17 -0.17)">
       <defs>
        <path id="DejaVuSans-34" d="M 2419 4116 
L 825 1625 
L 2419 1625 
L 2419 4116 
z
M 2253 4666 
L 3047 4666 
L 3047 1625 
L 3713 1625 
L 3713 1100 
L 3047 1100 
L 3047 0 
L 2419 0 
L 2419 1100 
L 313 1100 
L 313 1709 
L 2253 4666 
z
" transform="scale(0.015625)"/>
       </defs>
       <use xlink:href="#DejaVuSans-34"/>
      </g>
     </g>
    </g>
    <g id="xtick_4">
     <g id="line2d_11">
      <path d="M 317.4912 298.944 
L 317.4912 6.912 
" clip-path="url(#p2181bb1b6d)" style="fill: none; stroke: #b0b0b0; stroke-width: 0.8; stroke-linecap: square"/>
     </g>
     <g id="line2d_12">
      <g>
       <use xlink:href="#mf10fd7ecf1" x="317.4912" y="298.944" style="stroke: #000000; stroke-width: 0.8"/>
      </g>
     </g>
     <g id="text_4">
      <!-- 6 -->
      <g transform="translate(312.083075 318.861344) scale(0.17 -0.17)">
       <defs>
        <path id="DejaVuSans-36" d="M 2113 2584 
Q 1688 2584 1439 2293 
Q 1191 2003 1191 1497 
Q 1191 994 1439 701 
Q 1688 409 2113 409 
Q 2538 409 2786 701 
Q 3034 994 3034 1497 
Q 3034 2003 2786 2293 
Q 2538 2584 2113 2584 
z
M 3366 4563 
L 3366 3988 
Q 3128 4100 2886 4159 
Q 2644 4219 2406 4219 
Q 1781 4219 1451 3797 
Q 1122 3375 1075 2522 
Q 1259 2794 1537 2939 
Q 1816 3084 2150 3084 
Q 2853 3084 3261 2657 
Q 3669 2231 3669 1497 
Q 3669 778 3244 343 
Q 2819 -91 2113 -91 
Q 1303 -91 875 529 
Q 447 1150 447 2328 
Q 447 3434 972 4092 
Q 1497 4750 2381 4750 
Q 2619 4750 2861 4703 
Q 3103 4656 3366 4563 
z
" transform="scale(0.015625)"/>
       </defs>
       <use xlink:href="#DejaVuSans-36"/>
      </g>
     </g>
    </g>
    <g id="xtick_5">
     <g id="line2d_13">
      <path d="M 100.9152 298.944 
L 100.9152 6.912 
" clip-path="url(#p2181bb1b6d)" style="fill: none; stroke: #b0b0b0; stroke-width: 0.8; stroke-linecap: square"/>
     </g>
     <g id="line2d_14">
      <defs>
       <path id="me709f00c43" d="M 0 0 
L 0 2 
" style="stroke: #000000; stroke-width: 0.6"/>
      </defs>
      <g>
       <use xlink:href="#me709f00c43" x="100.9152" y="298.944" style="stroke: #000000; stroke-width: 0.6"/>
      </g>
     </g>
    </g>
    <g id="xtick_6">
     <g id="line2d_15">
      <path d="M 187.5456 298.944 
L 187.5456 6.912 
" clip-path="url(#p2181bb1b6d)" style="fill: none; stroke: #b0b0b0; stroke-width: 0.8; stroke-linecap: square"/>
     </g>
     <g id="line2d_16">
      <g>
       <use xlink:href="#me709f00c43" x="187.5456" y="298.944" style="stroke: #000000; stroke-width: 0.6"/>
      </g>
     </g>
    </g>
    <g id="xtick_7">
     <g id="line2d_17">
      <path d="M 274.176 298.944 
L 274.176 6.912 
" clip-path="url(#p2181bb1b6d)" style="fill: none; stroke: #b0b0b0; stroke-width: 0.8; stroke-linecap: square"/>
     </g>
     <g id="line2d_18">
      <g>
       <use xlink:href="#me709f00c43" x="274.176" y="298.944" style="stroke: #000000; stroke-width: 0.6"/>
      </g>
     </g>
    </g>
    <g id="xtick_8">
     <g id="line2d_19">
      <path d="M 360.8064 298.944 
L 360.8064 6.912 
" clip-path="url(#p2181bb1b6d)" style="fill: none; stroke: #b0b0b0; stroke-width: 0.8; stroke-linecap: square"/>
     </g>
     <g id="line2d_20">
      <g>
       <use xlink:href="#me709f00c43" x="360.8064" y="298.944" style="stroke: #000000; stroke-width: 0.6"/>
      </g>
     </g>
    </g>
    <g id="text_5">
     <!-- log10(# f-evals / dimension) -->
     <g transform="translate(88.823278 339.314156) scale(0.17 -0.17)">
      <defs>
       <path id="DejaVuSans-6c" d="M 603 4863 
L 1178 4863 
L 1178 0 
L 603 0 
L 603 4863 
z
" transform="scale(0.015625)"/>
       <path id="DejaVuSans-6f" d="M 1959 3097 
Q 1497 3097 1228 2736 
Q 959 2375 959 1747 
Q 959 1119 1226 758 
Q 1494 397 1959 397 
Q 2419 397 2687 759 
Q 2956 1122 2956 1747 
Q 2956 2369 2687 2733 
Q 2419 3097 1959 3097 
z
M 1959 3584 
Q 2709 3584 3137 3096 
Q 3566 2609 3566 1747 
Q 3566 888 3137 398 
Q 2709 -91 1959 -91 
Q 1206 -91 779 398 
Q 353 888 353 1747 
Q 353 2609 779 3096 
Q 1206 3584 1959 3584 
z
" transform="scale(0.015625)"/>
       <path id="DejaVuSans-67" d="M 2906 1791 
Q 2906 2416 2648 2759 
Q 2391 3103 1925 3103 
Q 1463 3103 1205 2759 
Q 947 2416 947 1791 
Q 947 1169 1205 825 
Q 1463 481 1925 481 
Q 2391 481 2648 825 
Q 2906 1169 2906 1791 
z
M 3481 434 
Q 3481 -459 3084 -895 
Q 2688 -1331 1869 -1331 
Q 1566 -1331 1297 -1286 
Q 1028 -1241 775 -1147 
L 775 -588 
Q 1028 -725 1275 -790 
Q 1522 -856 1778 -856 
Q 2344 -856 2625 -561 
Q 2906 -266 2906 331 
L 2906 616 
Q 2728 306 2450 153 
Q 2172 0 1784 0 
Q 1141 0 747 490 
Q 353 981 353 1791 
Q 353 2603 747 3093 
Q 1141 3584 1784 3584 
Q 2172 3584 2450 3431 
Q 2728 3278 2906 2969 
L 2906 3500 
L 3481 3500 
L 3481 434 
z
" transform="scale(0.015625)"/>
       <path id="DejaVuSans-31" d="M 794 531 
L 1825 531 
L 1825 4091 
L 703 3866 
L 703 4441 
L 1819 4666 
L 2450 4666 
L 2450 531 
L 3481 531 
L 3481 0 
L 794 0 
L 794 531 
z
" transform="scale(0.015625)"/>
       <path id="DejaVuSans-28" d="M 1984 4856 
Q 1566 4138 1362 3434 
Q 1159 2731 1159 2009 
Q 1159 1288 1364 580 
Q 1569 -128 1984 -844 
L 1484 -844 
Q 1016 -109 783 600 
Q 550 1309 550 2009 
Q 550 2706 781 3412 
Q 1013 4119 1484 4856 
L 1984 4856 
z
" transform="scale(0.015625)"/>
       <path id="DejaVuSans-23" d="M 3272 2816 
L 2363 2816 
L 2100 1772 
L 3016 1772 
L 3272 2816 
z
M 2803 4594 
L 2478 3297 
L 3391 3297 
L 3719 4594 
L 4219 4594 
L 3897 3297 
L 4872 3297 
L 4872 2816 
L 3775 2816 
L 3519 1772 
L 4513 1772 
L 4513 1294 
L 3397 1294 
L 3072 0 
L 2572 0 
L 2894 1294 
L 1978 1294 
L 1656 0 
L 1153 0 
L 1478 1294 
L 494 1294 
L 494 1772 
L 1594 1772 
L 1856 2816 
L 850 2816 
L 850 3297 
L 1978 3297 
L 2297 4594 
L 2803 4594 
z
" transform="scale(0.015625)"/>
       <path id="DejaVuSans-20" transform="scale(0.015625)"/>
       <path id="DejaVuSans-66" d="M 2375 4863 
L 2375 4384 
L 1825 4384 
Q 1516 4384 1395 4259 
Q 1275 4134 1275 3809 
L 1275 3500 
L 2222 3500 
L 2222 3053 
L 1275 3053 
L 1275 0 
L 697 0 
L 697 3053 
L 147 3053 
L 147 3500 
L 697 3500 
L 697 3744 
Q 697 4328 969 4595 
Q 1241 4863 1831 4863 
L 2375 4863 
z
" transform="scale(0.015625)"/>
       <path id="DejaVuSans-2d" d="M 313 2009 
L 1997 2009 
L 1997 1497 
L 313 1497 
L 313 2009 
z
" transform="scale(0.015625)"/>
       <path id="DejaVuSans-65" d="M 3597 1894 
L 3597 1613 
L 953 1613 
Q 991 1019 1311 708 
Q 1631 397 2203 397 
Q 2534 397 2845 478 
Q 3156 559 3463 722 
L 3463 178 
Q 3153 47 2828 -22 
Q 2503 -91 2169 -91 
Q 1331 -91 842 396 
Q 353 884 353 1716 
Q 353 2575 817 3079 
Q 1281 3584 2069 3584 
Q 2775 3584 3186 3129 
Q 3597 2675 3597 1894 
z
M 3022 2063 
Q 3016 2534 2758 2815 
Q 2500 3097 2075 3097 
Q 1594 3097 1305 2825 
Q 1016 2553 972 2059 
L 3022 2063 
z
" transform="scale(0.015625)"/>
       <path id="DejaVuSans-76" d="M 191 3500 
L 800 3500 
L 1894 563 
L 2988 3500 
L 3597 3500 
L 2284 0 
L 1503 0 
L 191 3500 
z
" transform="scale(0.015625)"/>
       <path id="DejaVuSans-61" d="M 2194 1759 
Q 1497 1759 1228 1600 
Q 959 1441 959 1056 
Q 959 750 1161 570 
Q 1363 391 1709 391 
Q 2188 391 2477 730 
Q 2766 1069 2766 1631 
L 2766 1759 
L 2194 1759 
z
M 3341 1997 
L 3341 0 
L 2766 0 
L 2766 531 
Q 2569 213 2275 61 
Q 1981 -91 1556 -91 
Q 1019 -91 701 211 
Q 384 513 384 1019 
Q 384 1609 779 1909 
Q 1175 2209 1959 2209 
L 2766 2209 
L 2766 2266 
Q 2766 2663 2505 2880 
Q 2244 3097 1772 3097 
Q 1472 3097 1187 3025 
Q 903 2953 641 2809 
L 641 3341 
Q 956 3463 1253 3523 
Q 1550 3584 1831 3584 
Q 2591 3584 2966 3190 
Q 3341 2797 3341 1997 
z
" transform="scale(0.015625)"/>
       <path id="DejaVuSans-73" d="M 2834 3397 
L 2834 2853 
Q 2591 2978 2328 3040 
Q 2066 3103 1784 3103 
Q 1356 3103 1142 2972 
Q 928 2841 928 2578 
Q 928 2378 1081 2264 
Q 1234 2150 1697 2047 
L 1894 2003 
Q 2506 1872 2764 1633 
Q 3022 1394 3022 966 
Q 3022 478 2636 193 
Q 2250 -91 1575 -91 
Q 1294 -91 989 -36 
Q 684 19 347 128 
L 347 722 
Q 666 556 975 473 
Q 1284 391 1588 391 
Q 1994 391 2212 530 
Q 2431 669 2431 922 
Q 2431 1156 2273 1281 
Q 2116 1406 1581 1522 
L 1381 1569 
Q 847 1681 609 1914 
Q 372 2147 372 2553 
Q 372 3047 722 3315 
Q 1072 3584 1716 3584 
Q 2034 3584 2315 3537 
Q 2597 3491 2834 3397 
z
" transform="scale(0.015625)"/>
       <path id="DejaVuSans-2f" d="M 1625 4666 
L 2156 4666 
L 531 -594 
L 0 -594 
L 1625 4666 
z
" transform="scale(0.015625)"/>
       <path id="DejaVuSans-64" d="M 2906 2969 
L 2906 4863 
L 3481 4863 
L 3481 0 
L 2906 0 
L 2906 525 
Q 2725 213 2448 61 
Q 2172 -91 1784 -91 
Q 1150 -91 751 415 
Q 353 922 353 1747 
Q 353 2572 751 3078 
Q 1150 3584 1784 3584 
Q 2172 3584 2448 3432 
Q 2725 3281 2906 2969 
z
M 947 1747 
Q 947 1113 1208 752 
Q 1469 391 1925 391 
Q 2381 391 2643 752 
Q 2906 1113 2906 1747 
Q 2906 2381 2643 2742 
Q 2381 3103 1925 3103 
Q 1469 3103 1208 2742 
Q 947 2381 947 1747 
z
" transform="scale(0.015625)"/>
       <path id="DejaVuSans-69" d="M 603 3500 
L 1178 3500 
L 1178 0 
L 603 0 
L 603 3500 
z
M 603 4863 
L 1178 4863 
L 1178 4134 
L 603 4134 
L 603 4863 
z
" transform="scale(0.015625)"/>
       <path id="DejaVuSans-6d" d="M 3328 2828 
Q 3544 3216 3844 3400 
Q 4144 3584 4550 3584 
Q 5097 3584 5394 3201 
Q 5691 2819 5691 2113 
L 5691 0 
L 5113 0 
L 5113 2094 
Q 5113 2597 4934 2840 
Q 4756 3084 4391 3084 
Q 3944 3084 3684 2787 
Q 3425 2491 3425 1978 
L 3425 0 
L 2847 0 
L 2847 2094 
Q 2847 2600 2669 2842 
Q 2491 3084 2119 3084 
Q 1678 3084 1418 2786 
Q 1159 2488 1159 1978 
L 1159 0 
L 581 0 
L 581 3500 
L 1159 3500 
L 1159 2956 
Q 1356 3278 1631 3431 
Q 1906 3584 2284 3584 
Q 2666 3584 2933 3390 
Q 3200 3197 3328 2828 
z
" transform="scale(0.015625)"/>
       <path id="DejaVuSans-6e" d="M 3513 2113 
L 3513 0 
L 2938 0 
L 2938 2094 
Q 2938 2591 2744 2837 
Q 2550 3084 2163 3084 
Q 1697 3084 1428 2787 
Q 1159 2491 1159 1978 
L 1159 0 
L 581 0 
L 581 3500 
L 1159 3500 
L 1159 2956 
Q 1366 3272 1645 3428 
Q 1925 3584 2291 3584 
Q 2894 3584 3203 3211 
Q 3513 2838 3513 2113 
z
" transform="scale(0.015625)"/>
       <path id="DejaVuSans-29" d="M 513 4856 
L 1013 4856 
Q 1481 4119 1714 3412 
Q 1947 2706 1947 2009 
Q 1947 1309 1714 600 
Q 1481 -109 1013 -844 
L 513 -844 
Q 928 -128 1133 580 
Q 1338 1288 1338 2009 
Q 1338 2731 1133 3434 
Q 928 4138 513 4856 
z
" transform="scale(0.015625)"/>
      </defs>
      <use xlink:href="#DejaVuSans-6c"/>
      <use xlink:href="#DejaVuSans-6f" x="27.783203"/>
      <use xlink:href="#DejaVuSans-67" x="88.964844"/>
      <use xlink:href="#DejaVuSans-31" x="152.441406"/>
      <use xlink:href="#DejaVuSans-30" x="216.064453"/>
      <use xlink:href="#DejaVuSans-28" x="279.6875"/>
      <use xlink:href="#DejaVuSans-23" x="318.701172"/>
      <use xlink:href="#DejaVuSans-20" x="402.490234"/>
      <use xlink:href="#DejaVuSans-66" x="434.277344"/>
      <use xlink:href="#DejaVuSans-2d" x="463.982422"/>
      <use xlink:href="#DejaVuSans-65" x="500.066406"/>
      <use xlink:href="#DejaVuSans-76" x="561.589844"/>
      <use xlink:href="#DejaVuSans-61" x="620.769531"/>
      <use xlink:href="#DejaVuSans-6c" x="682.048828"/>
      <use xlink:href="#DejaVuSans-73" x="709.832031"/>
      <use xlink:href="#DejaVuSans-20" x="761.931641"/>
      <use xlink:href="#DejaVuSans-2f" x="793.71875"/>
      <use xlink:href="#DejaVuSans-20" x="827.410156"/>
      <use xlink:href="#DejaVuSans-64" x="859.197266"/>
      <use xlink:href="#DejaVuSans-69" x="922.673828"/>
      <use xlink:href="#DejaVuSans-6d" x="950.457031"/>
      <use xlink:href="#DejaVuSans-65" x="1047.869141"/>
      <use xlink:href="#DejaVuSans-6e" x="1109.392578"/>
      <use xlink:href="#DejaVuSans-73" x="1172.771484"/>
      <use xlink:href="#DejaVuSans-69" x="1224.871094"/>
      <use xlink:href="#DejaVuSans-6f" x="1252.654297"/>
      <use xlink:href="#DejaVuSans-6e" x="1313.835938"/>
      <use xlink:href="#DejaVuSans-29" x="1377.214844"/>
     </g>
    </g>
   </g>
   <g id="matplotlib.axis_2">
    <g id="ytick_1">
     <g id="line2d_21">
      <path d="M 57.6 298.944 
L 360.8064 298.944 
" clip-path="url(#p2181bb1b6d)" style="fill: none; stroke: #b0b0b0; stroke-width: 0.8; stroke-linecap: square"/>
     </g>
     <g id="line2d_22">
      <defs>
       <path id="m5b60c1a669" d="M 0 0 
L -3.5 0 
" style="stroke: #000000; stroke-width: 0.8"/>
      </defs>
      <g>
       <use xlink:href="#m5b60c1a669" x="57.6" y="298.944" style="stroke: #000000; stroke-width: 0.8"/>
      </g>
     </g>
     <g id="text_6">
      <!-- 0.0 -->
      <g transform="translate(25.155 305.02275) scale(0.16 -0.16)">
       <defs>
        <path id="DejaVuSans-2e" d="M 684 794 
L 1344 794 
L 1344 0 
L 684 0 
L 684 794 
z
" transform="scale(0.015625)"/>
       </defs>
       <use xlink:href="#DejaVuSans-30"/>
       <use xlink:href="#DejaVuSans-2e" x="63.623047"/>
       <use xlink:href="#DejaVuSans-30" x="95.410156"/>
      </g>
     </g>
    </g>
    <g id="ytick_2">
     <g id="line2d_23">
      <path d="M 57.6 240.5376 
L 360.8064 240.5376 
" clip-path="url(#p2181bb1b6d)" style="fill: none; stroke: #b0b0b0; stroke-width: 0.8; stroke-linecap: square"/>
     </g>
     <g id="line2d_24">
      <g>
       <use xlink:href="#m5b60c1a669" x="57.6" y="240.5376" style="stroke: #000000; stroke-width: 0.8"/>
      </g>
     </g>
     <g id="text_7">
      <!-- 0.2 -->
      <g transform="translate(25.155 246.61635) scale(0.16 -0.16)">
       <use xlink:href="#DejaVuSans-30"/>
       <use xlink:href="#DejaVuSans-2e" x="63.623047"/>
       <use xlink:href="#DejaVuSans-32" x="95.410156"/>
      </g>
     </g>
    </g>
    <g id="ytick_3">
     <g id="line2d_25">
      <path d="M 57.6 182.1312 
L 360.8064 182.1312 
" clip-path="url(#p2181bb1b6d)" style="fill: none; stroke: #b0b0b0; stroke-width: 0.8; stroke-linecap: square"/>
     </g>
     <g id="line2d_26">
      <g>
       <use xlink:href="#m5b60c1a669" x="57.6" y="182.1312" style="stroke: #000000; stroke-width: 0.8"/>
      </g>
     </g>
     <g id="text_8">
      <!-- 0.4 -->
      <g transform="translate(25.155 188.20995) scale(0.16 -0.16)">
       <use xlink:href="#DejaVuSans-30"/>
       <use xlink:href="#DejaVuSans-2e" x="63.623047"/>
       <use xlink:href="#DejaVuSans-34" x="95.410156"/>
      </g>
     </g>
    </g>
    <g id="ytick_4">
     <g id="line2d_27">
      <path d="M 57.6 123.7248 
L 360.8064 123.7248 
" clip-path="url(#p2181bb1b6d)" style="fill: none; stroke: #b0b0b0; stroke-width: 0.8; stroke-linecap: square"/>
     </g>
     <g id="line2d_28">
      <g>
       <use xlink:href="#m5b60c1a669" x="57.6" y="123.7248" style="stroke: #000000; stroke-width: 0.8"/>
      </g>
     </g>
     <g id="text_9">
      <!-- 0.6 -->
      <g transform="translate(25.155 129.80355) scale(0.16 -0.16)">
       <use xlink:href="#DejaVuSans-30"/>
       <use xlink:href="#DejaVuSans-2e" x="63.623047"/>
       <use xlink:href="#DejaVuSans-36" x="95.410156"/>
      </g>
     </g>
    </g>
    <g id="ytick_5">
     <g id="line2d_29">
      <path d="M 57.6 65.3184 
L 360.8064 65.3184 
" clip-path="url(#p2181bb1b6d)" style="fill: none; stroke: #b0b0b0; stroke-width: 0.8; stroke-linecap: square"/>
     </g>
     <g id="line2d_30">
      <g>
       <use xlink:href="#m5b60c1a669" x="57.6" y="65.3184" style="stroke: #000000; stroke-width: 0.8"/>
      </g>
     </g>
     <g id="text_10">
      <!-- 0.8 -->
      <g transform="translate(25.155 71.39715) scale(0.16 -0.16)">
       <defs>
        <path id="DejaVuSans-38" d="M 2034 2216 
Q 1584 2216 1326 1975 
Q 1069 1734 1069 1313 
Q 1069 891 1326 650 
Q 1584 409 2034 409 
Q 2484 409 2743 651 
Q 3003 894 3003 1313 
Q 3003 1734 2745 1975 
Q 2488 2216 2034 2216 
z
M 1403 2484 
Q 997 2584 770 2862 
Q 544 3141 544 3541 
Q 544 4100 942 4425 
Q 1341 4750 2034 4750 
Q 2731 4750 3128 4425 
Q 3525 4100 3525 3541 
Q 3525 3141 3298 2862 
Q 3072 2584 2669 2484 
Q 3125 2378 3379 2068 
Q 3634 1759 3634 1313 
Q 3634 634 3220 271 
Q 2806 -91 2034 -91 
Q 1263 -91 848 271 
Q 434 634 434 1313 
Q 434 1759 690 2068 
Q 947 2378 1403 2484 
z
M 1172 3481 
Q 1172 3119 1398 2916 
Q 1625 2713 2034 2713 
Q 2441 2713 2670 2916 
Q 2900 3119 2900 3481 
Q 2900 3844 2670 4047 
Q 2441 4250 2034 4250 
Q 1625 4250 1398 4047 
Q 1172 3844 1172 3481 
z
" transform="scale(0.015625)"/>
       </defs>
       <use xlink:href="#DejaVuSans-30"/>
       <use xlink:href="#DejaVuSans-2e" x="63.623047"/>
       <use xlink:href="#DejaVuSans-38" x="95.410156"/>
      </g>
     </g>
    </g>
    <g id="ytick_6">
     <g id="line2d_31">
      <path d="M 57.6 6.912 
L 360.8064 6.912 
" clip-path="url(#p2181bb1b6d)" style="fill: none; stroke: #b0b0b0; stroke-width: 0.8; stroke-linecap: square"/>
     </g>
     <g id="line2d_32">
      <g>
       <use xlink:href="#m5b60c1a669" x="57.6" y="6.912" style="stroke: #000000; stroke-width: 0.8"/>
      </g>
     </g>
     <g id="text_11">
      <!-- 1.0 -->
      <g transform="translate(25.155 12.99075) scale(0.16 -0.16)">
       <use xlink:href="#DejaVuSans-31"/>
       <use xlink:href="#DejaVuSans-2e" x="63.623047"/>
       <use xlink:href="#DejaVuSans-30" x="95.410156"/>
      </g>
     </g>
    </g>
    <g id="text_12">
     <!-- Fraction of function,target pairs -->
     <g transform="translate(17.619531 287.313) rotate(-90) scale(0.17 -0.17)">
      <defs>
       <path id="DejaVuSans-46" d="M 628 4666 
L 3309 4666 
L 3309 4134 
L 1259 4134 
L 1259 2759 
L 3109 2759 
L 3109 2228 
L 1259 2228 
L 1259 0 
L 628 0 
L 628 4666 
z
" transform="scale(0.015625)"/>
       <path id="DejaVuSans-72" d="M 2631 2963 
Q 2534 3019 2420 3045 
Q 2306 3072 2169 3072 
Q 1681 3072 1420 2755 
Q 1159 2438 1159 1844 
L 1159 0 
L 581 0 
L 581 3500 
L 1159 3500 
L 1159 2956 
Q 1341 3275 1631 3429 
Q 1922 3584 2338 3584 
Q 2397 3584 2469 3576 
Q 2541 3569 2628 3553 
L 2631 2963 
z
" transform="scale(0.015625)"/>
       <path id="DejaVuSans-63" d="M 3122 3366 
L 3122 2828 
Q 2878 2963 2633 3030 
Q 2388 3097 2138 3097 
Q 1578 3097 1268 2742 
Q 959 2388 959 1747 
Q 959 1106 1268 751 
Q 1578 397 2138 397 
Q 2388 397 2633 464 
Q 2878 531 3122 666 
L 3122 134 
Q 2881 22 2623 -34 
Q 2366 -91 2075 -91 
Q 1284 -91 818 406 
Q 353 903 353 1747 
Q 353 2603 823 3093 
Q 1294 3584 2113 3584 
Q 2378 3584 2631 3529 
Q 2884 3475 3122 3366 
z
" transform="scale(0.015625)"/>
       <path id="DejaVuSans-74" d="M 1172 4494 
L 1172 3500 
L 2356 3500 
L 2356 3053 
L 1172 3053 
L 1172 1153 
Q 1172 725 1289 603 
Q 1406 481 1766 481 
L 2356 481 
L 2356 0 
L 1766 0 
Q 1100 0 847 248 
Q 594 497 594 1153 
L 594 3053 
L 172 3053 
L 172 3500 
L 594 3500 
L 594 4494 
L 1172 4494 
z
" transform="scale(0.015625)"/>
       <path id="DejaVuSans-75" d="M 544 1381 
L 544 3500 
L 1119 3500 
L 1119 1403 
Q 1119 906 1312 657 
Q 1506 409 1894 409 
Q 2359 409 2629 706 
Q 2900 1003 2900 1516 
L 2900 3500 
L 3475 3500 
L 3475 0 
L 2900 0 
L 2900 538 
Q 2691 219 2414 64 
Q 2138 -91 1772 -91 
Q 1169 -91 856 284 
Q 544 659 544 1381 
z
M 1991 3584 
L 1991 3584 
z
" transform="scale(0.015625)"/>
       <path id="DejaVuSans-2c" d="M 750 794 
L 1409 794 
L 1409 256 
L 897 -744 
L 494 -744 
L 750 256 
L 750 794 
z
" transform="scale(0.015625)"/>
       <path id="DejaVuSans-70" d="M 1159 525 
L 1159 -1331 
L 581 -1331 
L 581 3500 
L 1159 3500 
L 1159 2969 
Q 1341 3281 1617 3432 
Q 1894 3584 2278 3584 
Q 2916 3584 3314 3078 
Q 3713 2572 3713 1747 
Q 3713 922 3314 415 
Q 2916 -91 2278 -91 
Q 1894 -91 1617 61 
Q 1341 213 1159 525 
z
M 3116 1747 
Q 3116 2381 2855 2742 
Q 2594 3103 2138 3103 
Q 1681 3103 1420 2742 
Q 1159 2381 1159 1747 
Q 1159 1113 1420 752 
Q 1681 391 2138 391 
Q 2594 391 2855 752 
Q 3116 1113 3116 1747 
z
" transform="scale(0.015625)"/>
      </defs>
      <use xlink:href="#DejaVuSans-46"/>
      <use xlink:href="#DejaVuSans-72" x="50.269531"/>
      <use xlink:href="#DejaVuSans-61" x="91.382812"/>
      <use xlink:href="#DejaVuSans-63" x="152.662109"/>
      <use xlink:href="#DejaVuSans-74" x="207.642578"/>
      <use xlink:href="#DejaVuSans-69" x="246.851562"/>
      <use xlink:href="#DejaVuSans-6f" x="274.634766"/>
      <use xlink:href="#DejaVuSans-6e" x="335.816406"/>
      <use xlink:href="#DejaVuSans-20" x="399.195312"/>
      <use xlink:href="#DejaVuSans-6f" x="430.982422"/>
      <use xlink:href="#DejaVuSans-66" x="492.164062"/>
      <use xlink:href="#DejaVuSans-20" x="527.369141"/>
      <use xlink:href="#DejaVuSans-66" x="559.15625"/>
      <use xlink:href="#DejaVuSans-75" x="594.361328"/>
      <use xlink:href="#DejaVuSans-6e" x="657.740234"/>
      <use xlink:href="#DejaVuSans-63" x="721.119141"/>
      <use xlink:href="#DejaVuSans-74" x="776.099609"/>
      <use xlink:href="#DejaVuSans-69" x="815.308594"/>
      <use xlink:href="#DejaVuSans-6f" x="843.091797"/>
      <use xlink:href="#DejaVuSans-6e" x="904.273438"/>
      <use xlink:href="#DejaVuSans-2c" x="967.652344"/>
      <use xlink:href="#DejaVuSans-74" x="999.439453"/>
      <use xlink:href="#DejaVuSans-61" x="1038.648438"/>
      <use xlink:href="#DejaVuSans-72" x="1099.927734"/>
      <use xlink:href="#DejaVuSans-67" x="1139.291016"/>
      <use xlink:href="#DejaVuSans-65" x="1202.767578"/>
      <use xlink:href="#DejaVuSans-74" x="1264.291016"/>
      <use xlink:href="#DejaVuSans-20" x="1303.5"/>
      <use xlink:href="#DejaVuSans-70" x="1335.287109"/>
      <use xlink:href="#DejaVuSans-61" x="1398.763672"/>
      <use xlink:href="#DejaVuSans-69" x="1460.042969"/>
      <use xlink:href="#DejaVuSans-72" x="1487.826172"/>
      <use xlink:href="#DejaVuSans-73" x="1528.939453"/>
     </g>
    </g>
   </g>
   <g id="line2d_33">
    <defs>
     <path id="me0bd279319" d="M 0 1.5 
C 0.397805 1.5 0.77937 1.341951 1.06066 1.06066 
C 1.341951 0.77937 1.5 0.397805 1.5 0 
C 1.5 -0.397805 1.341951 -0.77937 1.06066 -1.06066 
C 0.77937 -1.341951 0.397805 -1.5 0 -1.5 
C -0.397805 -1.5 -0.77937 -1.341951 -1.06066 -1.06066 
C -1.341951 -0.77937 -1.5 -0.397805 -1.5 0 
C -1.5 0.397805 -1.341951 0.77937 -1.06066 1.06066 
C -0.77937 1.341951 -0.397805 1.5 0 1.5 
z
" style="stroke: #f5deb3"/>
    </defs>
    <g>
     <use xlink:href="#me0bd279319" x="138.050729" y="6.912" style="fill: #f5deb3; stroke: #f5deb3"/>
     <use xlink:href="#me0bd279319" x="138.050729" y="6.912" style="fill: #f5deb3; stroke: #f5deb3"/>
    </g>
   </g>
   <g id="line2d_34">
    <defs>
     <path id="m06b162d20b" d="M 0 1.5 
C 0.397805 1.5 0.77937 1.341951 1.06066 1.06066 
C 1.341951 0.77937 1.5 0.397805 1.5 0 
C 1.5 -0.397805 1.341951 -0.77937 1.06066 -1.06066 
C 0.77937 -1.341951 0.397805 -1.5 0 -1.5 
C -0.397805 -1.5 -0.77937 -1.341951 -1.06066 -1.06066 
C -1.341951 -0.77937 -1.5 -0.397805 -1.5 0 
C -1.5 0.397805 -1.341951 0.77937 -1.06066 1.06066 
C -0.77937 1.341951 -0.397805 1.5 0 1.5 
z
" style="stroke: #000080"/>
    </defs>
    <g>
     <use xlink:href="#m06b162d20b" x="174.292011" y="6.912" style="fill: #000080; stroke: #000080"/>
     <use xlink:href="#m06b162d20b" x="174.292011" y="6.912" style="fill: #000080; stroke: #000080"/>
    </g>
   </g>
   <g id="line2d_35">
    <path d="M 36.933397 298.944 
L 36.933397 232.4256 
L 49.972572 232.4256 
L 49.972572 224.3136 
L 57.6 224.3136 
L 57.6 220.2576 
L 63.011746 220.2576 
L 63.011746 217.824 
L 67.209423 217.824 
L 67.209423 215.3904 
L 70.639174 215.3904 
L 70.639174 209.712 
L 73.538988 209.712 
L 73.538988 208.0896 
L 76.050921 208.0896 
L 76.050921 203.2224 
L 78.266603 203.2224 
L 78.266603 198.3552 
L 80.248597 198.3552 
L 80.248597 195.1104 
L 82.04153 195.1104 
L 82.04153 193.488 
L 83.678349 193.488 
L 83.678349 191.0544 
L 85.184077 191.0544 
L 85.184077 190.2432 
L 86.578163 190.2432 
L 86.578163 189.432 
L 87.876026 189.432 
L 87.876026 188.6208 
L 90.230539 188.6208 
L 90.230539 186.9984 
L 91.305777 186.9984 
L 91.305777 185.376 
L 92.322865 185.376 
L 92.322865 183.7536 
L 95.080704 183.7536 
L 95.080704 182.9424 
L 95.916911 182.9424 
L 95.916911 182.1312 
L 96.717523 182.1312 
L 96.717523 181.32 
L 97.485448 181.32 
L 97.485448 180.5088 
L 98.223251 180.5088 
L 98.223251 178.0752 
L 99.617337 178.0752 
L 99.617337 176.4528 
L 100.277459 176.4528 
L 100.277459 175.6416 
L 101.532027 175.6416 
L 101.532027 174.0192 
L 102.12927 174.0192 
L 102.12927 172.3968 
L 102.708132 172.3968 
L 102.708132 170.7744 
L 103.269713 170.7744 
L 103.269713 169.9632 
L 104.860369 169.9632 
L 104.860369 169.152 
L 105.36204 169.152 
L 105.36204 168.3408 
L 105.850679 168.3408 
L 105.850679 166.7184 
L 107.68741 166.7184 
L 107.68741 165.9072 
L 110.144579 165.9072 
L 110.144579 165.096 
L 111.620752 165.096 
L 111.620752 163.4736 
L 112.317555 163.4736 
L 112.317555 162.6624 
L 113.316634 162.6624 
L 113.316634 161.8512 
L 114.872193 161.8512 
L 114.872193 159.4176 
L 115.747307 159.4176 
L 115.747307 158.6064 
L 116.854188 158.6064 
L 116.854188 157.7952 
L 117.121023 157.7952 
L 117.121023 156.984 
L 117.384126 156.984 
L 117.384126 156.1728 
L 118.152051 156.1728 
L 118.152051 155.3616 
L 118.401214 155.3616 
L 118.401214 154.5504 
L 118.64712 154.5504 
L 118.64712 152.928 
L 118.889854 152.928 
L 118.889854 151.3056 
L 119.366121 151.3056 
L 119.366121 150.4944 
L 120.28394 150.4944 
L 120.28394 148.872 
L 120.506564 148.872 
L 120.506564 147.2496 
L 120.726585 147.2496 
L 120.726585 146.4384 
L 120.944062 146.4384 
L 120.944062 145.6272 
L 121.159053 145.6272 
L 121.159053 144.816 
L 121.371615 144.816 
L 121.371615 144.0048 
L 121.581803 144.0048 
L 121.581803 142.3824 
L 121.789667 142.3824 
L 121.789667 139.9488 
L 122.399825 139.9488 
L 122.399825 139.1376 
L 122.598891 139.1376 
L 122.598891 138.3264 
L 122.795872 138.3264 
L 122.795872 137.5152 
L 122.990812 137.5152 
L 122.990812 135.0816 
L 123.183753 135.0816 
L 123.183753 133.4592 
L 123.563797 133.4592 
L 123.563797 132.648 
L 124.119844 132.648 
L 124.119844 131.8368 
L 124.481616 131.8368 
L 124.481616 131.0256 
L 125.35673 131.0256 
L 125.35673 130.2144 
L 126.028642 130.2144 
L 126.028642 129.4032 
L 126.192937 129.4032 
L 126.192937 127.7808 
L 126.517282 127.7808 
L 126.517282 126.9696 
L 126.677381 126.9696 
L 126.677381 126.1584 
L 126.993549 126.1584 
L 126.993549 125.3472 
L 127.149662 125.3472 
L 127.149662 123.7248 
L 127.304491 123.7248 
L 127.304491 122.9136 
L 127.458055 122.9136 
L 127.458055 121.2912 
L 127.610376 121.2912 
L 127.610376 120.48 
L 127.761474 120.48 
L 127.761474 119.6688 
L 127.911368 119.6688 
L 127.911368 117.2352 
L 128.060076 117.2352 
L 128.060076 116.424 
L 128.207619 116.424 
L 128.207619 115.6128 
L 128.499277 115.6128 
L 128.499277 114.8016 
L 128.786481 114.8016 
L 128.786481 113.1792 
L 129.758512 113.1792 
L 129.758512 112.368 
L 130.160198 112.368 
L 130.160198 111.5568 
L 130.4233 111.5568 
L 130.4233 110.7456 
L 130.553485 110.7456 
L 130.553485 109.9344 
L 130.682774 109.9344 
L 130.682774 109.1232 
L 131.065395 109.1232 
L 131.065395 108.312 
L 131.31622 108.312 
L 131.31622 107.5008 
L 131.563744 107.5008 
L 131.563744 106.6896 
L 131.808053 106.6896 
L 131.808053 104.256 
L 131.929028 104.256 
L 131.929028 103.4448 
L 132.522502 103.4448 
L 132.522502 102.6336 
L 133.097823 102.6336 
L 133.097823 101.8224 
L 133.210806 101.8224 
L 133.210806 101.0112 
L 133.323114 101.0112 
L 133.323114 100.2 
L 133.434756 100.2 
L 133.434756 99.3888 
L 134.091039 99.3888 
L 134.198228 97.7664 
L 134.304809 97.7664 
L 134.304809 96.9552 
L 134.516177 96.9552 
L 134.516177 96.144 
L 135.338671 96.144 
L 135.438999 93.7104 
L 135.835047 93.7104 
L 135.835047 92.8992 
L 136.126705 92.8992 
L 136.126705 91.2768 
L 136.318661 91.2768 
L 136.318661 89.6544 
L 136.508678 89.6544 
L 136.602972 88.032 
L 137.159019 88.032 
L 137.159019 86.4096 
L 137.340774 86.4096 
L 137.340774 85.5984 
L 138.310202 85.5984 
L 138.395904 83.976 
L 138.566146 83.976 
L 138.650692 81.5424 
L 138.73486 81.5424 
L 138.73486 80.7312 
L 139.150143 80.7312 
L 139.150143 79.92 
L 139.313723 79.92 
L 139.313723 79.1088 
L 139.954178 79.1088 
L 139.954178 78.2976 
L 140.110942 78.2976 
L 140.188837 75.0528 
L 140.343665 75.0528 
L 140.420604 73.4304 
L 140.49723 73.4304 
L 140.49723 72.6192 
L 140.725251 72.6192 
L 140.725251 71.808 
L 141.025043 71.808 
L 141.025043 70.9968 
L 141.320133 70.9968 
L 141.320133 70.1856 
L 141.465959 70.1856 
L 141.465959 68.5632 
L 141.682602 68.5632 
L 141.682602 67.752 
L 141.96763 67.752 
L 142.038218 66.1296 
L 142.932537 66.1296 
L 142.932537 65.3184 
L 143.331383 65.3184 
L 143.331383 64.5072 
L 143.592659 64.5072 
L 143.592659 63.696 
L 143.786262 63.696 
L 143.786262 62.8848 
L 143.914232 62.8848 
L 143.977892 61.2624 
L 144.2304 61.2624 
L 144.2304 59.64 
L 144.417581 59.64 
L 144.417581 58.8288 
L 144.847227 58.8288 
L 144.847227 57.2064 
L 145.088405 57.2064 
L 145.088405 54.7728 
L 145.26728 54.7728 
L 145.26728 53.9616 
L 145.678157 53.9616 
L 145.678157 53.1504 
L 145.908976 53.1504 
L 145.908976 52.3392 
L 146.136998 52.3392 
L 146.193574 50.7168 
L 146.306218 50.7168 
L 146.362288 49.0944 
L 147.130214 49.0944 
L 147.130214 48.2832 
L 147.397049 48.2832 
L 147.397049 47.472 
L 147.712333 47.472 
L 147.712333 46.6608 
L 148.175569 46.6608 
L 148.175569 45.8496 
L 148.478174 45.8496 
L 148.528138 43.416 
L 148.627671 43.416 
L 148.726679 40.9824 
L 148.825169 40.9824 
L 148.825169 40.1712 
L 149.547853 40.1712 
L 149.547853 39.36 
L 149.829328 39.36 
L 149.829328 38.5488 
L 150.014665 38.5488 
L 150.014665 37.7376 
L 150.198193 37.7376 
L 150.289291 36.1152 
L 150.604701 36.1152 
L 150.693856 34.4928 
L 150.78259 34.4928 
L 150.78259 33.6816 
L 151.435079 33.6816 
L 151.435079 32.8704 
L 151.647641 32.8704 
L 151.647641 32.0592 
L 151.899585 32.0592 
L 151.899585 31.248 
L 152.271285 31.248 
L 152.352898 28.8144 
L 153.49813 28.8144 
L 153.5746 27.192 
L 153.914919 27.192 
L 153.914919 26.3808 
L 154.17542 26.3808 
L 154.17542 25.5696 
L 154.322673 25.5696 
L 154.322673 24.7584 
L 154.649839 24.7584 
L 154.685842 23.136 
L 155.077392 23.136 
L 155.112587 21.5136 
L 155.632755 21.5136 
L 155.632755 20.7024 
L 156.793307 20.7024 
L 156.793307 19.8912 
L 157.080512 19.8912 
L 157.080512 19.08 
L 157.580516 19.08 
L 157.580516 18.2688 
L 158.187393 18.2688 
L 158.217229 16.6464 
L 158.833095 16.6464 
L 158.833095 15.8352 
L 159.925957 15.8352 
L 159.925957 15.024 
L 160.436223 15.024 
L 160.4627 13.4016 
L 160.751508 13.4016 
L 160.751508 12.5904 
L 162.420867 12.5904 
L 162.420867 11.7792 
L 163.260183 11.7792 
L 163.260183 10.968 
L 164.855153 10.968 
L 164.959603 9.3456 
L 165.371702 9.3456 
L 165.371702 8.5344 
L 166.460523 8.5344 
L 166.460523 7.7232 
L 174.292011 7.7232 
L 174.292011 6.912 
L 360.8064 6.912 
L 360.8064 6.912 
" style="fill: none; stroke: #000080; stroke-width: 1.5; stroke-linecap: square"/>
   </g>
   <g id="line2d_36">
    <defs>
     <path id="mc7207a5eeb" d="M 0 6 
C 1.591219 6 3.117479 5.367802 4.242641 4.242641 
C 5.367802 3.117479 6 1.591219 6 0 
C 6 -1.591219 5.367802 -3.117479 4.242641 -4.242641 
C 3.117479 -5.367802 1.591219 -6 0 -6 
C -1.591219 -6 -3.117479 -5.367802 -4.242641 -4.242641 
C -5.367802 -3.117479 -6 -1.591219 -6 0 
C -6 1.591219 -5.367802 3.117479 -4.242641 4.242641 
C -3.117479 5.367802 -1.591219 6 0 6 
z
" style="stroke: #000080; stroke-width: 1.5"/>
    </defs>
    <g>
     <use xlink:href="#mc7207a5eeb" x="121.789667" y="139.9488" style="fill-opacity: 0; stroke: #000080; stroke-width: 1.5"/>
     <use xlink:href="#mc7207a5eeb" x="155.632755" y="20.7024" style="fill-opacity: 0; stroke: #000080; stroke-width: 1.5"/>
     <use xlink:href="#mc7207a5eeb" x="174.292011" y="6.912" style="fill-opacity: 0; stroke: #000080; stroke-width: 1.5"/>
     <use xlink:href="#mc7207a5eeb" x="174.292011" y="6.912" style="fill-opacity: 0; stroke: #000080; stroke-width: 1.5"/>
     <use xlink:href="#mc7207a5eeb" x="360.8064" y="6.912" style="fill-opacity: 0; stroke: #000080; stroke-width: 1.5"/>
    </g>
   </g>
   <g id="line2d_37">
    <path style="fill: none; stroke: #000080; stroke-width: 1.5; stroke-linecap: square"/>
    <g/>
   </g>
   <g id="line2d_38">
    <defs>
     <path id="mf08e15ccdc" d="M 0 1.5 
C 0.397805 1.5 0.77937 1.341951 1.06066 1.06066 
C 1.341951 0.77937 1.5 0.397805 1.5 0 
C 1.5 -0.397805 1.341951 -0.77937 1.06066 -1.06066 
C 0.77937 -1.341951 0.397805 -1.5 0 -1.5 
C -0.397805 -1.5 -0.77937 -1.341951 -1.06066 -1.06066 
C -1.341951 -0.77937 -1.5 -0.397805 -1.5 0 
C -1.5 0.397805 -1.341951 0.77937 -1.06066 1.06066 
C -0.77937 1.341951 -0.397805 1.5 0 1.5 
z
" style="stroke: #ff00ff"/>
    </defs>
    <g>
     <use xlink:href="#mf08e15ccdc" x="173.395744" y="6.912" style="fill: #ff00ff; stroke: #ff00ff"/>
     <use xlink:href="#mf08e15ccdc" x="173.395744" y="6.912" style="fill: #ff00ff; stroke: #ff00ff"/>
    </g>
   </g>
   <g id="line2d_39">
    <path d="M 36.933397 298.944 
L 36.933397 232.4256 
L 49.972572 232.4256 
L 49.972572 229.992 
L 57.6 229.992 
L 57.6 229.1808 
L 63.011746 229.1808 
L 63.011746 224.3136 
L 67.209423 224.3136 
L 67.209423 221.0688 
L 70.639174 221.0688 
L 70.639174 219.4464 
L 73.538988 219.4464 
L 73.538988 217.824 
L 76.050921 217.824 
L 76.050921 215.3904 
L 78.266603 215.3904 
L 78.266603 213.768 
L 80.248597 213.768 
L 80.248597 211.3344 
L 82.04153 211.3344 
L 82.04153 208.9008 
L 83.678349 208.9008 
L 83.678349 207.2784 
L 85.184077 207.2784 
L 85.184077 203.2224 
L 86.578163 203.2224 
L 86.578163 201.6 
L 87.876026 201.6 
L 87.876026 199.1664 
L 89.090095 199.1664 
L 89.090095 197.544 
L 91.305777 197.544 
L 91.305777 196.7328 
L 92.322865 196.7328 
L 92.322865 195.9216 
L 93.287772 195.9216 
L 93.287772 195.1104 
L 96.717523 195.1104 
L 96.717523 194.2992 
L 98.933205 194.2992 
L 98.933205 193.488 
L 99.617337 193.488 
L 99.617337 192.6768 
L 100.277459 192.6768 
L 100.277459 191.0544 
L 100.9152 191.0544 
L 100.9152 190.2432 
L 101.532027 190.2432 
L 101.532027 188.6208 
L 102.12927 188.6208 
L 102.12927 186.9984 
L 103.269713 186.9984 
L 103.269713 186.1872 
L 105.36204 186.1872 
L 105.36204 185.376 
L 106.326946 185.376 
L 106.326946 184.5648 
L 107.244765 184.5648 
L 107.244765 182.1312 
L 108.119879 182.1312 
L 108.119879 181.32 
L 108.542628 181.32 
L 108.542628 180.5088 
L 109.360651 180.5088 
L 109.360651 179.6976 
L 110.144579 179.6976 
L 110.144579 178.8864 
L 110.524623 178.8864 
L 110.524623 177.264 
L 110.897141 177.264 
L 110.897141 176.4528 
L 111.620752 176.4528 
L 111.620752 175.6416 
L 112.317555 175.6416 
L 112.317555 174.8304 
L 112.656511 174.8304 
L 112.656511 173.208 
L 115.168444 173.208 
L 115.168444 172.3968 
L 115.747307 172.3968 
L 115.747307 171.5856 
L 116.308887 171.5856 
L 116.308887 170.7744 
L 116.583514 170.7744 
L 116.583514 167.5296 
L 116.854188 167.5296 
L 116.854188 166.7184 
L 117.384126 166.7184 
L 117.384126 165.9072 
L 117.6436 165.9072 
L 117.6436 164.2848 
L 117.899543 164.2848 
L 117.899543 163.4736 
L 118.152051 163.4736 
L 118.152051 162.6624 
L 118.401214 162.6624 
L 118.401214 161.8512 
L 119.599808 161.8512 
L 119.599808 161.04 
L 119.830627 161.04 
L 119.830627 158.6064 
L 120.058649 158.6064 
L 120.058649 157.7952 
L 120.28394 157.7952 
L 120.28394 156.1728 
L 120.726585 156.1728 
L 120.726585 155.3616 
L 121.371615 155.3616 
L 121.371615 153.7392 
L 121.581803 153.7392 
L 121.581803 152.928 
L 121.789667 152.928 
L 121.789667 152.1168 
L 122.19863 152.1168 
L 122.19863 151.3056 
L 122.795872 151.3056 
L 122.795872 149.6832 
L 122.990812 149.6832 
L 122.990812 148.872 
L 123.183753 148.872 
L 123.183753 147.2496 
L 123.374735 147.2496 
L 123.374735 145.6272 
L 123.563797 145.6272 
L 123.563797 144.816 
L 123.936316 144.816 
L 123.936316 144.0048 
L 124.119844 144.0048 
L 124.119844 143.1936 
L 124.3016 143.1936 
L 124.3016 141.5712 
L 124.481616 141.5712 
L 124.481616 138.3264 
L 124.659926 138.3264 
L 124.659926 137.5152 
L 124.836562 137.5152 
L 124.836562 136.704 
L 125.011554 136.704 
L 125.011554 135.8928 
L 125.35673 135.8928 
L 125.35673 135.0816 
L 125.526971 135.0816 
L 125.526971 134.2704 
L 125.695686 134.2704 
L 125.695686 133.4592 
L 126.993549 133.4592 
L 126.993549 131.8368 
L 127.149662 131.8368 
L 127.149662 131.0256 
L 127.304491 131.0256 
L 127.304491 130.2144 
L 127.458055 130.2144 
L 127.458055 129.4032 
L 127.761474 129.4032 
L 127.761474 128.592 
L 128.060076 128.592 
L 128.060076 127.7808 
L 128.354013 127.7808 
L 128.354013 126.1584 
L 128.643427 126.1584 
L 128.643427 124.536 
L 128.786481 124.536 
L 128.786481 123.7248 
L 128.928456 123.7248 
L 128.928456 122.9136 
L 129.069367 122.9136 
L 129.069367 121.2912 
L 129.209231 121.2912 
L 129.209231 120.48 
L 129.485876 120.48 
L 129.485876 119.6688 
L 129.622688 119.6688 
L 129.622688 118.8576 
L 129.758512 118.8576 
L 129.758512 118.0464 
L 129.893363 118.0464 
L 129.893363 117.2352 
L 130.027253 117.2352 
L 130.027253 116.424 
L 130.160198 116.424 
L 130.160198 115.6128 
L 130.553485 115.6128 
L 130.553485 114.8016 
L 130.682774 114.8016 
L 130.682774 113.1792 
L 131.065395 113.1792 
L 131.065395 112.368 
L 131.191226 112.368 
L 131.191226 111.5568 
L 131.440389 111.5568 
L 131.440389 109.9344 
L 131.686295 109.9344 
L 131.686295 109.1232 
L 131.808053 109.1232 
L 131.808053 108.312 
L 132.287354 108.312 
L 132.287354 107.5008 
L 132.405295 107.5008 
L 132.405295 105.8784 
L 132.754746 105.8784 
L 132.754746 104.256 
L 133.323114 104.256 
L 133.323114 103.4448 
L 133.545739 103.4448 
L 133.545739 102.6336 
L 134.516177 102.6336 
L 134.620977 100.2 
L 134.828842 100.2 
L 134.931919 98.5776 
L 135.034434 98.5776 
L 135.136394 96.144 
L 135.638065 96.144 
L 135.638065 95.3328 
L 135.932769 95.3328 
L 135.932769 94.5216 
L 136.790153 94.5216 
L 136.790153 92.8992 
L 136.97549 92.8992 
L 137.067478 87.2208 
L 137.340774 87.2208 
L 137.340774 85.5984 
L 137.610157 85.5984 
L 137.610157 83.976 
L 137.787626 83.976 
L 137.787626 82.3536 
L 138.137618 82.3536 
L 138.224108 80.7312 
L 138.481218 80.7312 
L 138.481218 79.92 
L 138.650692 79.92 
L 138.650692 79.1088 
L 139.067817 79.1088 
L 139.067817 78.2976 
L 139.232111 78.2976 
L 139.232111 77.4864 
L 140.032723 77.4864 
L 140.032723 76.6752 
L 140.26641 76.6752 
L 140.26641 75.864 
L 140.420604 75.864 
L 140.420604 75.0528 
L 140.573544 75.0528 
L 140.573544 74.2416 
L 140.875745 74.2416 
L 140.875745 73.4304 
L 141.173167 73.4304 
L 141.173167 72.6192 
L 141.682602 72.6192 
L 141.682602 70.9968 
L 142.661862 70.9968 
L 142.661862 70.1856 
L 143.397043 70.1856 
L 143.462475 67.752 
L 143.52768 67.752 
L 143.52768 66.9408 
L 143.914232 66.9408 
L 143.977892 65.3184 
L 144.2304 65.3184 
L 144.2304 64.5072 
L 144.355394 64.5072 
L 144.355394 63.696 
L 144.907812 63.696 
L 144.907812 62.8848 
L 145.326529 62.8848 
L 145.326529 62.0736 
L 145.851536 62.0736 
L 145.908976 59.64 
L 146.023332 59.64 
L 146.023332 58.8288 
L 146.136998 58.8288 
L 146.136998 58.0176 
L 146.362288 58.0176 
L 146.362288 57.2064 
L 147.022411 57.2064 
L 147.022411 56.3952 
L 147.183884 56.3952 
L 147.183884 55.584 
L 147.449964 55.584 
L 147.555352 53.1504 
L 147.919625 53.1504 
L 147.919625 51.528 
L 148.377845 51.528 
L 148.478174 49.9056 
L 148.825169 49.9056 
L 148.825169 49.0944 
L 148.971944 49.0944 
L 149.020615 46.6608 
L 149.117582 46.6608 
L 149.117582 45.8496 
L 149.642146 45.8496 
L 149.642146 44.2272 
L 149.782707 44.2272 
L 149.829328 40.9824 
L 149.968501 40.9824 
L 149.968501 40.1712 
L 150.693856 40.1712 
L 150.78259 38.5488 
L 150.914911 38.5488 
L 150.914911 37.7376 
L 151.306379 37.7376 
L 151.349377 36.1152 
L 151.60532 36.1152 
L 151.647641 34.4928 
L 152.230346 34.4928 
L 152.230346 33.6816 
L 152.555392 33.6816 
L 152.635783 32.0592 
L 152.835271 32.0592 
L 152.835271 31.248 
L 153.150116 31.248 
L 153.150116 30.4368 
L 154.468783 30.4368 
L 154.468783 29.6256 
L 154.86483 29.6256 
L 154.935952 28.0032 
L 155.077392 28.0032 
L 155.112587 26.3808 
L 155.217778 26.3808 
L 155.217778 25.5696 
L 155.701037 25.5696 
L 155.701037 24.7584 
L 156.337642 24.7584 
L 156.337642 23.9472 
L 156.825436 23.9472 
L 156.921495 22.3248 
L 156.953406 22.3248 
L 156.953406 21.5136 
L 157.206765 21.5136 
L 157.206765 20.7024 
L 158.483644 20.7024 
L 158.483644 19.8912 
L 159.651731 19.8912 
L 159.651731 19.08 
L 160.088594 19.08 
L 160.088594 18.2688 
L 161.061595 18.2688 
L 161.061595 17.4576 
L 162.444694 17.4576 
L 162.539702 15.8352 
L 163.531835 15.8352 
L 163.531835 15.024 
L 164.750119 15.024 
L 164.750119 14.2128 
L 166.746854 14.2128 
L 166.746854 13.4016 
L 166.860176 13.4016 
L 166.860176 12.5904 
L 169.638546 12.5904 
L 169.638546 11.7792 
L 170.245939 11.7792 
L 170.245939 10.968 
L 170.402572 10.968 
L 170.402572 10.1568 
L 171.929885 10.1568 
L 171.929885 9.3456 
L 172.186995 9.3456 
L 172.186995 8.5344 
L 172.924252 8.5344 
L 172.924252 7.7232 
L 173.395744 7.7232 
L 173.395744 6.912 
L 360.8064 6.912 
L 360.8064 6.912 
" style="fill: none; stroke: #ff00ff; stroke-width: 1.5; stroke-linecap: square"/>
   </g>
   <g id="line2d_40">
    <defs>
     <path id="m0a58372339" d="M -0 8.485281 
L 5.091169 0 
L 0 -8.485281 
L -5.091169 -0 
z
" style="stroke: #ff00ff; stroke-width: 1.5; stroke-linejoin: miter"/>
    </defs>
    <g>
     <use xlink:href="#m0a58372339" x="91.305777" y="196.7328" style="fill-opacity: 0; stroke: #ff00ff; stroke-width: 1.5; stroke-linejoin: miter"/>
     <use xlink:href="#m0a58372339" x="148.825169" y="49.9056" style="fill-opacity: 0; stroke: #ff00ff; stroke-width: 1.5; stroke-linejoin: miter"/>
     <use xlink:href="#m0a58372339" x="173.395744" y="7.7232" style="fill-opacity: 0; stroke: #ff00ff; stroke-width: 1.5; stroke-linejoin: miter"/>
     <use xlink:href="#m0a58372339" x="173.395744" y="6.912" style="fill-opacity: 0; stroke: #ff00ff; stroke-width: 1.5; stroke-linejoin: miter"/>
     <use xlink:href="#m0a58372339" x="173.395744" y="6.912" style="fill-opacity: 0; stroke: #ff00ff; stroke-width: 1.5; stroke-linejoin: miter"/>
     <use xlink:href="#m0a58372339" x="360.8064" y="6.912" style="fill-opacity: 0; stroke: #ff00ff; stroke-width: 1.5; stroke-linejoin: miter"/>
    </g>
   </g>
   <g id="line2d_41">
    <path style="fill: none; stroke: #ff00ff; stroke-width: 1.5; stroke-linecap: square"/>
    <g/>
   </g>
   <g id="line2d_42">
    <defs>
     <path id="m31295455d2" d="M 0 1.5 
C 0.397805 1.5 0.77937 1.341951 1.06066 1.06066 
C 1.341951 0.77937 1.5 0.397805 1.5 0 
C 1.5 -0.397805 1.341951 -0.77937 1.06066 -1.06066 
C 0.77937 -1.341951 0.397805 -1.5 0 -1.5 
C -0.397805 -1.5 -0.77937 -1.341951 -1.06066 -1.06066 
C -1.341951 -0.77937 -1.5 -0.397805 -1.5 0 
C -1.5 0.397805 -1.341951 0.77937 -1.06066 1.06066 
C -0.77937 1.341951 -0.397805 1.5 0 1.5 
z
" style="stroke: #ff7500"/>
    </defs>
    <g>
     <use xlink:href="#m31295455d2" x="178.754199" y="6.912" style="fill: #ff7500; stroke: #ff7500"/>
     <use xlink:href="#m31295455d2" x="178.754199" y="6.912" style="fill: #ff7500; stroke: #ff7500"/>
    </g>
   </g>
   <g id="line2d_43">
    <path d="M 36.933397 298.944 
L 36.933397 232.4256 
L 49.972572 232.4256 
L 49.972572 226.7472 
L 57.6 226.7472 
L 57.6 221.88 
L 63.011746 221.88 
L 63.011746 216.2016 
L 67.209423 216.2016 
L 67.209423 209.712 
L 70.639174 209.712 
L 70.639174 208.9008 
L 73.538988 208.9008 
L 73.538988 208.0896 
L 76.050921 208.0896 
L 76.050921 207.2784 
L 78.266603 207.2784 
L 78.266603 205.656 
L 80.248597 205.656 
L 80.248597 204.8448 
L 82.04153 204.8448 
L 82.04153 204.0336 
L 83.678349 204.0336 
L 83.678349 203.2224 
L 85.184077 203.2224 
L 85.184077 202.4112 
L 87.876026 202.4112 
L 87.876026 201.6 
L 89.090095 201.6 
L 89.090095 199.9776 
L 90.230539 199.9776 
L 90.230539 199.1664 
L 91.305777 199.1664 
L 91.305777 195.9216 
L 92.322865 195.9216 
L 92.322865 193.488 
L 94.205591 193.488 
L 94.205591 190.2432 
L 95.080704 190.2432 
L 95.080704 186.9984 
L 95.916911 186.9984 
L 95.916911 186.1872 
L 97.485448 186.1872 
L 97.485448 185.376 
L 98.223251 185.376 
L 98.223251 184.5648 
L 98.933205 184.5648 
L 98.933205 183.7536 
L 99.617337 183.7536 
L 99.617337 182.9424 
L 100.277459 182.9424 
L 100.277459 182.1312 
L 103.269713 182.1312 
L 103.269713 181.32 
L 105.36204 181.32 
L 105.36204 180.5088 
L 106.791453 180.5088 
L 106.791453 179.6976 
L 107.68741 179.6976 
L 107.68741 178.8864 
L 108.119879 178.8864 
L 108.119879 178.0752 
L 108.542628 178.0752 
L 108.542628 177.264 
L 108.956085 177.264 
L 108.956085 176.4528 
L 110.144579 176.4528 
L 110.144579 175.6416 
L 110.897141 175.6416 
L 110.897141 173.208 
L 111.620752 173.208 
L 111.620752 172.3968 
L 111.97238 172.3968 
L 111.97238 171.5856 
L 112.317555 171.5856 
L 112.317555 169.9632 
L 112.989468 169.9632 
L 112.989468 169.152 
L 114.872193 169.152 
L 114.872193 167.5296 
L 116.030193 167.5296 
L 116.030193 166.7184 
L 118.152051 166.7184 
L 118.152051 165.9072 
L 118.401214 165.9072 
L 118.401214 164.2848 
L 118.889854 164.2848 
L 118.889854 163.4736 
L 119.599808 163.4736 
L 119.599808 162.6624 
L 121.789667 162.6624 
L 121.789667 161.8512 
L 121.99526 161.8512 
L 121.99526 161.04 
L 122.19863 161.04 
L 122.19863 159.4176 
L 122.399825 159.4176 
L 122.399825 157.7952 
L 122.598891 157.7952 
L 122.598891 155.3616 
L 122.795872 155.3616 
L 122.795872 154.5504 
L 123.183753 154.5504 
L 123.183753 153.7392 
L 123.374735 153.7392 
L 123.374735 152.928 
L 123.936316 152.928 
L 123.936316 152.1168 
L 124.481616 152.1168 
L 124.481616 151.3056 
L 124.659926 151.3056 
L 124.659926 150.4944 
L 124.836562 150.4944 
L 124.836562 149.6832 
L 125.526971 149.6832 
L 125.526971 148.0608 
L 126.028642 148.0608 
L 126.028642 146.4384 
L 126.192937 146.4384 
L 126.192937 144.816 
L 126.677381 144.816 
L 126.677381 144.0048 
L 126.836129 144.0048 
L 126.836129 142.3824 
L 127.149662 142.3824 
L 127.149662 141.5712 
L 127.610376 141.5712 
L 127.610376 140.76 
L 127.761474 140.76 
L 127.761474 139.9488 
L 128.354013 139.9488 
L 128.354013 138.3264 
L 128.643427 138.3264 
L 128.643427 136.704 
L 128.786481 136.704 
L 128.786481 135.8928 
L 128.928456 135.8928 
L 128.928456 133.4592 
L 129.348062 133.4592 
L 129.348062 132.648 
L 129.758512 132.648 
L 129.758512 131.8368 
L 130.938718 131.8368 
L 130.938718 131.0256 
L 131.065395 131.0256 
L 131.065395 130.2144 
L 131.191226 130.2144 
L 131.191226 129.4032 
L 131.808053 129.4032 
L 131.808053 126.1584 
L 132.168669 126.1584 
L 132.168669 125.3472 
L 132.287354 125.3472 
L 132.287354 124.536 
L 133.097823 124.536 
L 133.097823 123.7248 
L 133.210806 123.7248 
L 133.210806 122.9136 
L 133.323114 122.9136 
L 133.323114 122.1024 
L 133.545739 122.1024 
L 133.656071 119.6688 
L 133.874812 119.6688 
L 133.874812 118.8576 
L 134.304809 118.8576 
L 134.304809 118.0464 
L 134.516177 118.0464 
L 134.516177 117.2352 
L 134.931919 117.2352 
L 135.034434 114.8016 
L 135.338671 114.8016 
L 135.438999 112.368 
L 135.538796 112.368 
L 135.538796 111.5568 
L 135.835047 111.5568 
L 135.835047 110.7456 
L 136.126705 110.7456 
L 136.126705 108.312 
L 136.88305 108.312 
L 136.88305 107.5008 
L 137.067478 107.5008 
L 137.159019 105.8784 
L 137.610157 105.8784 
L 137.610157 104.256 
L 137.875736 104.256 
L 137.875736 103.4448 
L 138.137618 103.4448 
L 138.137618 101.8224 
L 138.310202 101.8224 
L 138.310202 100.2 
L 138.985129 100.2 
L 138.985129 98.5776 
L 139.394983 98.5776 
L 139.394983 96.9552 
L 139.636676 96.9552 
L 139.716555 94.5216 
L 140.188837 94.5216 
L 140.188837 93.7104 
L 140.649551 93.7104 
L 140.649551 91.2768 
L 140.875745 91.2768 
L 140.875745 88.8432 
L 141.099251 88.8432 
L 141.173167 87.2208 
L 141.246793 87.2208 
L 141.246793 86.4096 
L 142.038218 86.4096 
L 142.038218 85.5984 
L 143.199372 85.5984 
L 143.265494 83.976 
L 143.331383 83.976 
L 143.331383 83.1648 
L 143.52768 83.1648 
L 143.52768 82.3536 
L 143.657415 82.3536 
L 143.657415 81.5424 
L 144.041338 81.5424 
L 144.041338 80.7312 
L 144.16759 80.7312 
L 144.16759 78.2976 
L 144.479563 78.2976 
L 144.479563 77.4864 
L 145.148219 77.4864 
L 145.207843 75.0528 
L 145.503164 75.0528 
L 145.503164 74.2416 
L 145.620007 74.2416 
L 145.620007 73.4304 
L 145.736128 73.4304 
L 145.736128 71.808 
L 146.529503 71.808 
L 146.584913 70.1856 
L 146.968277 70.1856 
L 146.968277 69.3744 
L 147.290768 69.3744 
L 147.343984 67.752 
L 147.816265 67.752 
L 147.816265 66.1296 
L 148.226342 66.1296 
L 148.32748 63.696 
L 148.428077 63.696 
L 148.478174 62.0736 
L 148.57797 62.0736 
L 148.627671 58.8288 
L 149.40552 58.8288 
L 149.40552 58.0176 
L 150.515122 58.0176 
L 150.559965 55.584 
L 150.693856 55.584 
L 150.693856 54.7728 
L 150.870907 54.7728 
L 150.958812 53.1504 
L 151.089903 53.1504 
L 151.089903 52.3392 
L 151.220087 52.3392 
L 151.220087 49.9056 
L 151.899585 49.9056 
L 151.94125 48.2832 
L 152.312136 48.2832 
L 152.312136 47.472 
L 152.675851 47.472 
L 152.715833 45.8496 
L 152.914478 45.8496 
L 152.914478 44.2272 
L 153.189104 44.2272 
L 153.189104 43.416 
L 153.839823 43.416 
L 153.839823 42.6048 
L 154.17542 42.6048 
L 154.17542 41.7936 
L 154.685842 41.7936 
L 154.685842 40.9824 
L 155.252711 40.9824 
L 155.252711 39.36 
L 155.529866 39.36 
L 155.564225 37.7376 
L 155.769072 37.7376 
L 155.769072 36.9264 
L 155.971711 36.9264 
L 155.971711 35.304 
L 156.105602 35.304 
L 156.105602 34.4928 
L 156.436218 34.4928 
L 156.436218 33.6816 
L 156.857511 33.6816 
L 156.857511 32.8704 
L 157.487772 32.8704 
L 157.487772 32.0592 
L 157.672805 32.0592 
L 157.672805 30.4368 
L 157.856036 30.4368 
L 157.856036 29.6256 
L 158.336102 29.6256 
L 158.336102 28.8144 
L 158.659181 28.8144 
L 158.659181 28.0032 
L 159.485256 28.0032 
L 159.485256 27.192 
L 159.651731 27.192 
L 159.651731 26.3808 
L 160.007451 26.3808 
L 160.007451 25.5696 
L 160.356569 25.5696 
L 160.356569 24.7584 
L 161.189305 24.7584 
L 161.189305 23.9472 
L 161.366654 23.9472 
L 161.391854 22.3248 
L 161.96232 22.3248 
L 161.96232 21.5136 
L 162.515995 21.5136 
L 162.587027 19.8912 
L 163.007676 19.8912 
L 163.007676 19.08 
L 163.305732 19.08 
L 163.373849 17.4576 
L 163.419123 17.4576 
L 163.464289 15.8352 
L 164.876089 15.8352 
L 164.876089 15.024 
L 165.146166 15.024 
L 165.146166 14.2128 
L 165.31046 14.2128 
L 165.31046 13.4016 
L 165.794904 13.4016 
L 165.794904 12.5904 
L 166.575579 12.5904 
L 166.575579 11.7792 
L 166.708927 11.7792 
L 166.708927 10.968 
L 166.935348 10.968 
L 166.935348 10.1568 
L 169.458999 10.1568 
L 169.458999 9.3456 
L 170.71198 9.3456 
L 170.71198 8.5344 
L 172.482581 8.5344 
L 172.482581 7.7232 
L 178.754199 7.7232 
L 178.754199 6.912 
L 360.8064 6.912 
L 360.8064 6.912 
" style="fill: none; stroke: #ff7500; stroke-width: 1.5; stroke-linecap: square"/>
   </g>
   <g id="line2d_44">
    <defs>
     <path id="m9825de8902" d="M 0 -6 
L -1.347084 -1.854102 
L -5.706339 -1.854102 
L -2.179628 0.708204 
L -3.526712 4.854102 
L -0 2.291796 
L 3.526712 4.854102 
L 2.179628 0.708204 
L 5.706339 -1.854102 
L 1.347084 -1.854102 
z
" style="stroke: #ff7500; stroke-width: 1.5; stroke-linejoin: bevel"/>
    </defs>
    <g>
     <use xlink:href="#m9825de8902" x="126.192937" y="146.4384" style="fill-opacity: 0; stroke: #ff7500; stroke-width: 1.5; stroke-linejoin: bevel"/>
     <use xlink:href="#m9825de8902" x="156.436218" y="33.6816" style="fill-opacity: 0; stroke: #ff7500; stroke-width: 1.5; stroke-linejoin: bevel"/>
     <use xlink:href="#m9825de8902" x="178.754199" y="7.7232" style="fill-opacity: 0; stroke: #ff7500; stroke-width: 1.5; stroke-linejoin: bevel"/>
     <use xlink:href="#m9825de8902" x="178.754199" y="6.912" style="fill-opacity: 0; stroke: #ff7500; stroke-width: 1.5; stroke-linejoin: bevel"/>
     <use xlink:href="#m9825de8902" x="178.754199" y="6.912" style="fill-opacity: 0; stroke: #ff7500; stroke-width: 1.5; stroke-linejoin: bevel"/>
     <use xlink:href="#m9825de8902" x="360.8064" y="6.912" style="fill-opacity: 0; stroke: #ff7500; stroke-width: 1.5; stroke-linejoin: bevel"/>
    </g>
   </g>
   <g id="line2d_45">
    <path style="fill: none; stroke: #ff7500; stroke-width: 1.5; stroke-linecap: square"/>
    <g/>
   </g>
   <g id="line2d_46">
    <path d="M 360.8064 6.912 
L 380.514816 293.10336 
" style="fill: none; stroke: #ff7500; stroke-width: 1.5; stroke-linecap: square"/>
    <g>
     <use xlink:href="#m9825de8902" x="360.8064" y="6.912" style="fill-opacity: 0; stroke: #ff7500; stroke-width: 1.5; stroke-linejoin: bevel"/>
     <use xlink:href="#m9825de8902" x="380.514816" y="293.10336" style="fill-opacity: 0; stroke: #ff7500; stroke-width: 1.5; stroke-linejoin: bevel"/>
    </g>
   </g>
   <g id="line2d_47">
    <path d="M 360.8064 6.912 
L 380.514816 199.65312 
" style="fill: none; stroke: #000080; stroke-width: 1.5; stroke-linecap: square"/>
    <g>
     <use xlink:href="#mc7207a5eeb" x="360.8064" y="6.912" style="fill-opacity: 0; stroke: #000080; stroke-width: 1.5"/>
     <use xlink:href="#mc7207a5eeb" x="380.514816" y="199.65312" style="fill-opacity: 0; stroke: #000080; stroke-width: 1.5"/>
    </g>
   </g>
   <g id="line2d_48">
    <path d="M 360.8064 6.912 
L 380.514816 106.20288 
" style="fill: none; stroke: #ff00ff; stroke-width: 1.5; stroke-linecap: square"/>
    <g>
     <use xlink:href="#m0a58372339" x="360.8064" y="6.912" style="fill-opacity: 0; stroke: #ff00ff; stroke-width: 1.5; stroke-linejoin: miter"/>
     <use xlink:href="#m0a58372339" x="380.514816" y="106.20288" style="fill-opacity: 0; stroke: #ff00ff; stroke-width: 1.5; stroke-linejoin: miter"/>
    </g>
   </g>
   <g id="line2d_49">
    <path d="M 360.8064 298.944 
L 360.8064 6.912 
" style="fill: none; stroke: #000000; stroke-width: 1.5; stroke-linecap: square"/>
   </g>
   <g id="patch_3">
    <path d="M 57.6 298.944 
L 360.8064 298.944 
" style="fill: none; stroke: #000000; stroke-width: 0.8; stroke-linejoin: miter; stroke-linecap: square"/>
   </g>
   <g id="patch_4">
    <path d="M 57.6 6.912 
L 360.8064 6.912 
" style="fill: none; stroke: #000000; stroke-width: 0.8; stroke-linejoin: miter; stroke-linecap: square"/>
   </g>
   <g id="text_13">
    <!-- COMO-10 d -->
    <g transform="translate(386.578944 296.966485) scale(0.14 -0.14)">
     <defs>
      <path id="DejaVuSans-43" d="M 4122 4306 
L 4122 3641 
Q 3803 3938 3442 4084 
Q 3081 4231 2675 4231 
Q 1875 4231 1450 3742 
Q 1025 3253 1025 2328 
Q 1025 1406 1450 917 
Q 1875 428 2675 428 
Q 3081 428 3442 575 
Q 3803 722 4122 1019 
L 4122 359 
Q 3791 134 3420 21 
Q 3050 -91 2638 -91 
Q 1578 -91 968 557 
Q 359 1206 359 2328 
Q 359 3453 968 4101 
Q 1578 4750 2638 4750 
Q 3056 4750 3426 4639 
Q 3797 4528 4122 4306 
z
" transform="scale(0.015625)"/>
      <path id="DejaVuSans-4f" d="M 2522 4238 
Q 1834 4238 1429 3725 
Q 1025 3213 1025 2328 
Q 1025 1447 1429 934 
Q 1834 422 2522 422 
Q 3209 422 3611 934 
Q 4013 1447 4013 2328 
Q 4013 3213 3611 3725 
Q 3209 4238 2522 4238 
z
M 2522 4750 
Q 3503 4750 4090 4092 
Q 4678 3434 4678 2328 
Q 4678 1225 4090 567 
Q 3503 -91 2522 -91 
Q 1538 -91 948 565 
Q 359 1222 359 2328 
Q 359 3434 948 4092 
Q 1538 4750 2522 4750 
z
" transform="scale(0.015625)"/>
      <path id="DejaVuSans-4d" d="M 628 4666 
L 1569 4666 
L 2759 1491 
L 3956 4666 
L 4897 4666 
L 4897 0 
L 4281 0 
L 4281 4097 
L 3078 897 
L 2444 897 
L 1241 4097 
L 1241 0 
L 628 0 
L 628 4666 
z
" transform="scale(0.015625)"/>
     </defs>
     <use xlink:href="#DejaVuSans-43"/>
     <use xlink:href="#DejaVuSans-4f" x="69.824219"/>
     <use xlink:href="#DejaVuSans-4d" x="148.535156"/>
     <use xlink:href="#DejaVuSans-4f" x="234.814453"/>
     <use xlink:href="#DejaVuSans-2d" x="316.275391"/>
     <use xlink:href="#DejaVuSans-31" x="352.359375"/>
     <use xlink:href="#DejaVuSans-30" x="415.982422"/>
     <use xlink:href="#DejaVuSans-20" x="479.605469"/>
     <use xlink:href="#DejaVuSans-64" x="511.392578"/>
    </g>
   </g>
   <g id="text_14">
    <!-- AllLQ -->
    <g transform="translate(386.578944 203.516245) scale(0.14 -0.14)">
     <defs>
      <path id="DejaVuSans-41" d="M 2188 4044 
L 1331 1722 
L 3047 1722 
L 2188 4044 
z
M 1831 4666 
L 2547 4666 
L 4325 0 
L 3669 0 
L 3244 1197 
L 1141 1197 
L 716 0 
L 50 0 
L 1831 4666 
z
" transform="scale(0.015625)"/>
      <path id="DejaVuSans-4c" d="M 628 4666 
L 1259 4666 
L 1259 531 
L 3531 531 
L 3531 0 
L 628 0 
L 628 4666 
z
" transform="scale(0.015625)"/>
      <path id="DejaVuSans-51" d="M 2522 4238 
Q 1834 4238 1429 3725 
Q 1025 3213 1025 2328 
Q 1025 1447 1429 934 
Q 1834 422 2522 422 
Q 3209 422 3611 934 
Q 4013 1447 4013 2328 
Q 4013 3213 3611 3725 
Q 3209 4238 2522 4238 
z
M 3406 84 
L 4238 -825 
L 3475 -825 
L 2784 -78 
Q 2681 -84 2626 -87 
Q 2572 -91 2522 -91 
Q 1538 -91 948 567 
Q 359 1225 359 2328 
Q 359 3434 948 4092 
Q 1538 4750 2522 4750 
Q 3503 4750 4090 4092 
Q 4678 3434 4678 2328 
Q 4678 1516 4351 937 
Q 4025 359 3406 84 
z
" transform="scale(0.015625)"/>
     </defs>
     <use xlink:href="#DejaVuSans-41"/>
     <use xlink:href="#DejaVuSans-6c" x="68.408203"/>
     <use xlink:href="#DejaVuSans-6c" x="96.191406"/>
     <use xlink:href="#DejaVuSans-4c" x="123.974609"/>
     <use xlink:href="#DejaVuSans-51" x="179.6875"/>
    </g>
   </g>
   <g id="text_15">
    <!-- AllLQ-SK -->
    <g transform="translate(386.578944 110.066005) scale(0.14 -0.14)">
     <defs>
      <path id="DejaVuSans-53" d="M 3425 4513 
L 3425 3897 
Q 3066 4069 2747 4153 
Q 2428 4238 2131 4238 
Q 1616 4238 1336 4038 
Q 1056 3838 1056 3469 
Q 1056 3159 1242 3001 
Q 1428 2844 1947 2747 
L 2328 2669 
Q 3034 2534 3370 2195 
Q 3706 1856 3706 1288 
Q 3706 609 3251 259 
Q 2797 -91 1919 -91 
Q 1588 -91 1214 -16 
Q 841 59 441 206 
L 441 856 
Q 825 641 1194 531 
Q 1563 422 1919 422 
Q 2459 422 2753 634 
Q 3047 847 3047 1241 
Q 3047 1584 2836 1778 
Q 2625 1972 2144 2069 
L 1759 2144 
Q 1053 2284 737 2584 
Q 422 2884 422 3419 
Q 422 4038 858 4394 
Q 1294 4750 2059 4750 
Q 2388 4750 2728 4690 
Q 3069 4631 3425 4513 
z
" transform="scale(0.015625)"/>
      <path id="DejaVuSans-4b" d="M 628 4666 
L 1259 4666 
L 1259 2694 
L 3353 4666 
L 4166 4666 
L 1850 2491 
L 4331 0 
L 3500 0 
L 1259 2247 
L 1259 0 
L 628 0 
L 628 4666 
z
" transform="scale(0.015625)"/>
     </defs>
     <use xlink:href="#DejaVuSans-41"/>
     <use xlink:href="#DejaVuSans-6c" x="68.408203"/>
     <use xlink:href="#DejaVuSans-6c" x="96.191406"/>
     <use xlink:href="#DejaVuSans-4c" x="123.974609"/>
     <use xlink:href="#DejaVuSans-51" x="179.6875"/>
     <use xlink:href="#DejaVuSans-2d" x="261.148438"/>
     <use xlink:href="#DejaVuSans-53" x="297.232422"/>
     <use xlink:href="#DejaVuSans-4b" x="360.708984"/>
    </g>
   </g>
   <g id="text_16">
    <!-- best 2016 -->
    <g transform="translate(386.578944 16.615765) scale(0.14 -0.14)">
     <defs>
      <path id="DejaVuSans-62" d="M 3116 1747 
Q 3116 2381 2855 2742 
Q 2594 3103 2138 3103 
Q 1681 3103 1420 2742 
Q 1159 2381 1159 1747 
Q 1159 1113 1420 752 
Q 1681 391 2138 391 
Q 2594 391 2855 752 
Q 3116 1113 3116 1747 
z
M 1159 2969 
Q 1341 3281 1617 3432 
Q 1894 3584 2278 3584 
Q 2916 3584 3314 3078 
Q 3713 2572 3713 1747 
Q 3713 922 3314 415 
Q 2916 -91 2278 -91 
Q 1894 -91 1617 61 
Q 1341 213 1159 525 
L 1159 0 
L 581 0 
L 581 4863 
L 1159 4863 
L 1159 2969 
z
" transform="scale(0.015625)"/>
     </defs>
     <use xlink:href="#DejaVuSans-62"/>
     <use xlink:href="#DejaVuSans-65" x="63.476562"/>
     <use xlink:href="#DejaVuSans-73" x="125"/>
     <use xlink:href="#DejaVuSans-74" x="177.099609"/>
     <use xlink:href="#DejaVuSans-20" x="216.308594"/>
     <use xlink:href="#DejaVuSans-32" x="248.095703"/>
     <use xlink:href="#DejaVuSans-30" x="311.71875"/>
     <use xlink:href="#DejaVuSans-31" x="375.341797"/>
     <use xlink:href="#DejaVuSans-36" x="438.964844"/>
    </g>
   </g>
   <g id="text_17">
    <!-- bbob-biobj f5, f6, f14, f15, 3-D -->
    <g transform="translate(60.632064 17.582726) scale(0.102 -0.102)">
     <defs>
      <path id="DejaVuSans-6a" d="M 603 3500 
L 1178 3500 
L 1178 -63 
Q 1178 -731 923 -1031 
Q 669 -1331 103 -1331 
L -116 -1331 
L -116 -844 
L 38 -844 
Q 366 -844 484 -692 
Q 603 -541 603 -63 
L 603 3500 
z
M 603 4863 
L 1178 4863 
L 1178 4134 
L 603 4134 
L 603 4863 
z
" transform="scale(0.015625)"/>
      <path id="DejaVuSans-35" d="M 691 4666 
L 3169 4666 
L 3169 4134 
L 1269 4134 
L 1269 2991 
Q 1406 3038 1543 3061 
Q 1681 3084 1819 3084 
Q 2600 3084 3056 2656 
Q 3513 2228 3513 1497 
Q 3513 744 3044 326 
Q 2575 -91 1722 -91 
Q 1428 -91 1123 -41 
Q 819 9 494 109 
L 494 744 
Q 775 591 1075 516 
Q 1375 441 1709 441 
Q 2250 441 2565 725 
Q 2881 1009 2881 1497 
Q 2881 1984 2565 2268 
Q 2250 2553 1709 2553 
Q 1456 2553 1204 2497 
Q 953 2441 691 2322 
L 691 4666 
z
" transform="scale(0.015625)"/>
      <path id="DejaVuSans-33" d="M 2597 2516 
Q 3050 2419 3304 2112 
Q 3559 1806 3559 1356 
Q 3559 666 3084 287 
Q 2609 -91 1734 -91 
Q 1441 -91 1130 -33 
Q 819 25 488 141 
L 488 750 
Q 750 597 1062 519 
Q 1375 441 1716 441 
Q 2309 441 2620 675 
Q 2931 909 2931 1356 
Q 2931 1769 2642 2001 
Q 2353 2234 1838 2234 
L 1294 2234 
L 1294 2753 
L 1863 2753 
Q 2328 2753 2575 2939 
Q 2822 3125 2822 3475 
Q 2822 3834 2567 4026 
Q 2313 4219 1838 4219 
Q 1578 4219 1281 4162 
Q 984 4106 628 3988 
L 628 4550 
Q 988 4650 1302 4700 
Q 1616 4750 1894 4750 
Q 2613 4750 3031 4423 
Q 3450 4097 3450 3541 
Q 3450 3153 3228 2886 
Q 3006 2619 2597 2516 
z
" transform="scale(0.015625)"/>
      <path id="DejaVuSans-44" d="M 1259 4147 
L 1259 519 
L 2022 519 
Q 2988 519 3436 956 
Q 3884 1394 3884 2338 
Q 3884 3275 3436 3711 
Q 2988 4147 2022 4147 
L 1259 4147 
z
M 628 4666 
L 1925 4666 
Q 3281 4666 3915 4102 
Q 4550 3538 4550 2338 
Q 4550 1131 3912 565 
Q 3275 0 1925 0 
L 628 0 
L 628 4666 
z
" transform="scale(0.015625)"/>
     </defs>
     <use xlink:href="#DejaVuSans-62"/>
     <use xlink:href="#DejaVuSans-62" x="63.476562"/>
     <use xlink:href="#DejaVuSans-6f" x="126.953125"/>
     <use xlink:href="#DejaVuSans-62" x="188.134766"/>
     <use xlink:href="#DejaVuSans-2d" x="251.611328"/>
     <use xlink:href="#DejaVuSans-62" x="287.695312"/>
     <use xlink:href="#DejaVuSans-69" x="351.171875"/>
     <use xlink:href="#DejaVuSans-6f" x="378.955078"/>
     <use xlink:href="#DejaVuSans-62" x="440.136719"/>
     <use xlink:href="#DejaVuSans-6a" x="503.613281"/>
     <use xlink:href="#DejaVuSans-20" x="531.396484"/>
     <use xlink:href="#DejaVuSans-66" x="563.183594"/>
     <use xlink:href="#DejaVuSans-35" x="598.388672"/>
     <use xlink:href="#DejaVuSans-2c" x="662.011719"/>
     <use xlink:href="#DejaVuSans-20" x="693.798828"/>
     <use xlink:href="#DejaVuSans-66" x="725.585938"/>
     <use xlink:href="#DejaVuSans-36" x="760.791016"/>
     <use xlink:href="#DejaVuSans-2c" x="824.414062"/>
     <use xlink:href="#DejaVuSans-20" x="856.201172"/>
     <use xlink:href="#DejaVuSans-66" x="887.988281"/>
     <use xlink:href="#DejaVuSans-31" x="923.193359"/>
     <use xlink:href="#DejaVuSans-34" x="986.816406"/>
     <use xlink:href="#DejaVuSans-2c" x="1050.439453"/>
     <use xlink:href="#DejaVuSans-20" x="1082.226562"/>
     <use xlink:href="#DejaVuSans-66" x="1114.013672"/>
     <use xlink:href="#DejaVuSans-31" x="1149.21875"/>
     <use xlink:href="#DejaVuSans-35" x="1212.841797"/>
     <use xlink:href="#DejaVuSans-2c" x="1276.464844"/>
     <use xlink:href="#DejaVuSans-20" x="1308.251953"/>
     <use xlink:href="#DejaVuSans-33" x="1340.039062"/>
     <use xlink:href="#DejaVuSans-2d" x="1403.662109"/>
     <use xlink:href="#DejaVuSans-44" x="1439.746094"/>
    </g>
    <!-- 31 targets RLs/dim: 0.5..50 -->
    <g transform="translate(60.632064 29.004495) scale(0.102 -0.102)">
     <defs>
      <path id="DejaVuSans-52" d="M 2841 2188 
Q 3044 2119 3236 1894 
Q 3428 1669 3622 1275 
L 4263 0 
L 3584 0 
L 2988 1197 
Q 2756 1666 2539 1819 
Q 2322 1972 1947 1972 
L 1259 1972 
L 1259 0 
L 628 0 
L 628 4666 
L 2053 4666 
Q 2853 4666 3247 4331 
Q 3641 3997 3641 3322 
Q 3641 2881 3436 2590 
Q 3231 2300 2841 2188 
z
M 1259 4147 
L 1259 2491 
L 2053 2491 
Q 2509 2491 2742 2702 
Q 2975 2913 2975 3322 
Q 2975 3731 2742 3939 
Q 2509 4147 2053 4147 
L 1259 4147 
z
" transform="scale(0.015625)"/>
      <path id="DejaVuSans-3a" d="M 750 794 
L 1409 794 
L 1409 0 
L 750 0 
L 750 794 
z
M 750 3309 
L 1409 3309 
L 1409 2516 
L 750 2516 
L 750 3309 
z
" transform="scale(0.015625)"/>
     </defs>
     <use xlink:href="#DejaVuSans-33"/>
     <use xlink:href="#DejaVuSans-31" x="63.623047"/>
     <use xlink:href="#DejaVuSans-20" x="127.246094"/>
     <use xlink:href="#DejaVuSans-74" x="159.033203"/>
     <use xlink:href="#DejaVuSans-61" x="198.242188"/>
     <use xlink:href="#DejaVuSans-72" x="259.521484"/>
     <use xlink:href="#DejaVuSans-67" x="298.884766"/>
     <use xlink:href="#DejaVuSans-65" x="362.361328"/>
     <use xlink:href="#DejaVuSans-74" x="423.884766"/>
     <use xlink:href="#DejaVuSans-73" x="463.09375"/>
     <use xlink:href="#DejaVuSans-20" x="515.193359"/>
     <use xlink:href="#DejaVuSans-52" x="546.980469"/>
     <use xlink:href="#DejaVuSans-4c" x="616.462891"/>
     <use xlink:href="#DejaVuSans-73" x="672.175781"/>
     <use xlink:href="#DejaVuSans-2f" x="724.275391"/>
     <use xlink:href="#DejaVuSans-64" x="757.966797"/>
     <use xlink:href="#DejaVuSans-69" x="821.443359"/>
     <use xlink:href="#DejaVuSans-6d" x="849.226562"/>
     <use xlink:href="#DejaVuSans-3a" x="946.638672"/>
     <use xlink:href="#DejaVuSans-20" x="980.330078"/>
     <use xlink:href="#DejaVuSans-30" x="1012.117188"/>
     <use xlink:href="#DejaVuSans-2e" x="1075.740234"/>
     <use xlink:href="#DejaVuSans-35" x="1107.527344"/>
     <use xlink:href="#DejaVuSans-2e" x="1171.150391"/>
     <use xlink:href="#DejaVuSans-2e" x="1202.9375"/>
     <use xlink:href="#DejaVuSans-35" x="1234.724609"/>
     <use xlink:href="#DejaVuSans-30" x="1298.347656"/>
    </g>
    <!--   from refalgs/best2016-bbob-biobj.tar.gz -->
    <g transform="translate(60.632064 40.426264) scale(0.102 -0.102)">
     <defs>
      <path id="DejaVuSans-7a" d="M 353 3500 
L 3084 3500 
L 3084 2975 
L 922 459 
L 3084 459 
L 3084 0 
L 275 0 
L 275 525 
L 2438 3041 
L 353 3041 
L 353 3500 
z
" transform="scale(0.015625)"/>
     </defs>
     <use xlink:href="#DejaVuSans-20"/>
     <use xlink:href="#DejaVuSans-20" x="31.787109"/>
     <use xlink:href="#DejaVuSans-66" x="63.574219"/>
     <use xlink:href="#DejaVuSans-72" x="98.779297"/>
     <use xlink:href="#DejaVuSans-6f" x="137.642578"/>
     <use xlink:href="#DejaVuSans-6d" x="198.824219"/>
     <use xlink:href="#DejaVuSans-20" x="296.236328"/>
     <use xlink:href="#DejaVuSans-72" x="328.023438"/>
     <use xlink:href="#DejaVuSans-65" x="366.886719"/>
     <use xlink:href="#DejaVuSans-66" x="428.410156"/>
     <use xlink:href="#DejaVuSans-61" x="463.615234"/>
     <use xlink:href="#DejaVuSans-6c" x="524.894531"/>
     <use xlink:href="#DejaVuSans-67" x="552.677734"/>
     <use xlink:href="#DejaVuSans-73" x="616.154297"/>
     <use xlink:href="#DejaVuSans-2f" x="668.253906"/>
     <use xlink:href="#DejaVuSans-62" x="701.945312"/>
     <use xlink:href="#DejaVuSans-65" x="765.421875"/>
     <use xlink:href="#DejaVuSans-73" x="826.945312"/>
     <use xlink:href="#DejaVuSans-74" x="879.044922"/>
     <use xlink:href="#DejaVuSans-32" x="918.253906"/>
     <use xlink:href="#DejaVuSans-30" x="981.876953"/>
     <use xlink:href="#DejaVuSans-31" x="1045.5"/>
     <use xlink:href="#DejaVuSans-36" x="1109.123047"/>
     <use xlink:href="#DejaVuSans-2d" x="1172.746094"/>
     <use xlink:href="#DejaVuSans-62" x="1208.830078"/>
     <use xlink:href="#DejaVuSans-62" x="1272.306641"/>
     <use xlink:href="#DejaVuSans-6f" x="1335.783203"/>
     <use xlink:href="#DejaVuSans-62" x="1396.964844"/>
     <use xlink:href="#DejaVuSans-2d" x="1460.441406"/>
     <use xlink:href="#DejaVuSans-62" x="1496.525391"/>
     <use xlink:href="#DejaVuSans-69" x="1560.001953"/>
     <use xlink:href="#DejaVuSans-6f" x="1587.785156"/>
     <use xlink:href="#DejaVuSans-62" x="1648.966797"/>
     <use xlink:href="#DejaVuSans-6a" x="1712.443359"/>
     <use xlink:href="#DejaVuSans-2e" x="1740.226562"/>
     <use xlink:href="#DejaVuSans-74" x="1772.013672"/>
     <use xlink:href="#DejaVuSans-61" x="1811.222656"/>
     <use xlink:href="#DejaVuSans-72" x="1872.501953"/>
     <use xlink:href="#DejaVuSans-2e" x="1904.490234"/>
     <use xlink:href="#DejaVuSans-67" x="1936.277344"/>
     <use xlink:href="#DejaVuSans-7a" x="1999.753906"/>
    </g>
    <!-- 10 instances -->
    <g transform="translate(60.632064 51.848032) scale(0.102 -0.102)">
     <use xlink:href="#DejaVuSans-31"/>
     <use xlink:href="#DejaVuSans-30" x="63.623047"/>
     <use xlink:href="#DejaVuSans-20" x="127.246094"/>
     <use xlink:href="#DejaVuSans-69" x="159.033203"/>
     <use xlink:href="#DejaVuSans-6e" x="186.816406"/>
     <use xlink:href="#DejaVuSans-73" x="250.195312"/>
     <use xlink:href="#DejaVuSans-74" x="302.294922"/>
     <use xlink:href="#DejaVuSans-61" x="341.503906"/>
     <use xlink:href="#DejaVuSans-6e" x="402.783203"/>
     <use xlink:href="#DejaVuSans-63" x="466.162109"/>
     <use xlink:href="#DejaVuSans-65" x="521.142578"/>
     <use xlink:href="#DejaVuSans-73" x="582.666016"/>
    </g>
   </g>
   <g id="text_18">
    <!-- v2.6, hv-hash=ff0e71e8cd978373 -->
    <g style="fill: #808080" transform="translate(123.707887 293.943992) scale(0.1 -0.1)">
     <defs>
      <path id="DejaVuSans-68" d="M 3513 2113 
L 3513 0 
L 2938 0 
L 2938 2094 
Q 2938 2591 2744 2837 
Q 2550 3084 2163 3084 
Q 1697 3084 1428 2787 
Q 1159 2491 1159 1978 
L 1159 0 
L 581 0 
L 581 4863 
L 1159 4863 
L 1159 2956 
Q 1366 3272 1645 3428 
Q 1925 3584 2291 3584 
Q 2894 3584 3203 3211 
Q 3513 2838 3513 2113 
z
" transform="scale(0.015625)"/>
      <path id="DejaVuSans-3d" d="M 678 2906 
L 4684 2906 
L 4684 2381 
L 678 2381 
L 678 2906 
z
M 678 1631 
L 4684 1631 
L 4684 1100 
L 678 1100 
L 678 1631 
z
" transform="scale(0.015625)"/>
      <path id="DejaVuSans-37" d="M 525 4666 
L 3525 4666 
L 3525 4397 
L 1831 0 
L 1172 0 
L 2766 4134 
L 525 4134 
L 525 4666 
z
" transform="scale(0.015625)"/>
      <path id="DejaVuSans-39" d="M 703 97 
L 703 672 
Q 941 559 1184 500 
Q 1428 441 1663 441 
Q 2288 441 2617 861 
Q 2947 1281 2994 2138 
Q 2813 1869 2534 1725 
Q 2256 1581 1919 1581 
Q 1219 1581 811 2004 
Q 403 2428 403 3163 
Q 403 3881 828 4315 
Q 1253 4750 1959 4750 
Q 2769 4750 3195 4129 
Q 3622 3509 3622 2328 
Q 3622 1225 3098 567 
Q 2575 -91 1691 -91 
Q 1453 -91 1209 -44 
Q 966 3 703 97 
z
M 1959 2075 
Q 2384 2075 2632 2365 
Q 2881 2656 2881 3163 
Q 2881 3666 2632 3958 
Q 2384 4250 1959 4250 
Q 1534 4250 1286 3958 
Q 1038 3666 1038 3163 
Q 1038 2656 1286 2365 
Q 1534 2075 1959 2075 
z
" transform="scale(0.015625)"/>
     </defs>
     <use xlink:href="#DejaVuSans-76"/>
     <use xlink:href="#DejaVuSans-32" x="59.179688"/>
     <use xlink:href="#DejaVuSans-2e" x="122.802734"/>
     <use xlink:href="#DejaVuSans-36" x="154.589844"/>
     <use xlink:href="#DejaVuSans-2c" x="218.212891"/>
     <use xlink:href="#DejaVuSans-20" x="250"/>
     <use xlink:href="#DejaVuSans-68" x="281.787109"/>
     <use xlink:href="#DejaVuSans-76" x="345.166016"/>
     <use xlink:href="#DejaVuSans-2d" x="401.720703"/>
     <use xlink:href="#DejaVuSans-68" x="437.804688"/>
     <use xlink:href="#DejaVuSans-61" x="501.183594"/>
     <use xlink:href="#DejaVuSans-73" x="562.462891"/>
     <use xlink:href="#DejaVuSans-68" x="614.5625"/>
     <use xlink:href="#DejaVuSans-3d" x="677.941406"/>
     <use xlink:href="#DejaVuSans-66" x="761.730469"/>
     <use xlink:href="#DejaVuSans-66" x="796.935547"/>
     <use xlink:href="#DejaVuSans-30" x="832.140625"/>
     <use xlink:href="#DejaVuSans-65" x="895.763672"/>
     <use xlink:href="#DejaVuSans-37" x="957.287109"/>
     <use xlink:href="#DejaVuSans-31" x="1020.910156"/>
     <use xlink:href="#DejaVuSans-65" x="1084.533203"/>
     <use xlink:href="#DejaVuSans-38" x="1146.056641"/>
     <use xlink:href="#DejaVuSans-63" x="1209.679688"/>
     <use xlink:href="#DejaVuSans-64" x="1264.660156"/>
     <use xlink:href="#DejaVuSans-39" x="1328.136719"/>
     <use xlink:href="#DejaVuSans-37" x="1391.759766"/>
     <use xlink:href="#DejaVuSans-38" x="1455.382812"/>
     <use xlink:href="#DejaVuSans-33" x="1519.005859"/>
     <use xlink:href="#DejaVuSans-37" x="1582.628906"/>
     <use xlink:href="#DejaVuSans-33" x="1646.251953"/>
    </g>
   </g>
  </g>
 </g>
 <defs>
  <clipPath id="p2181bb1b6d">
   <rect x="57.6" y="6.912" width="303.2064" height="292.032"/>
  </clipPath>
 </defs>
</svg>
