<?xml version="1.0" encoding="utf-8" standalone="no"?>
<!DOCTYPE svg PUBLIC "-//W3C//DTD SVG 1.1//EN"
  "http://www.w3.org/Graphics/SVG/1.1/DTD/svg11.dtd">
<svg xmlns:xlink="http://www.w3.org/1999/xlink" width="460.8pt" height="345.6pt" viewBox="0 0 460.8 345.6" xmlns="http://www.w3.org/2000/svg" version="1.1">
 <metadata>
  <rdf:RDF xmlns:dc="http://purl.org/dc/elements/1.1/" xmlns:cc="http://creativecommons.org/ns#" xmlns:rdf="http://www.w3.org/1999/02/22-rdf-syntax-ns#">
   <cc:Work>
    <dc:type rdf:resource="http://purl.org/dc/dcmitype/StillImage"/>
    <dc:date>2023-02-21T13:48:16.191140</dc:date>
    <dc:format>image/svg+xml</dc:format>
    <dc:creator>
     <cc:Agent>
      <dc:title>Matplotlib v3.7.0, https://matplotlib.org/</dc:title>
     </cc:Agent>
    </dc:creator>
   </cc:Work>
  </rdf:RDF>
 </metadata>
 <defs>
  <style type="text/css">*{stroke-linejoin: round; stroke-linecap: butt}</style>
 </defs>
 <g id="figure_1">
  <g id="patch_1">
   <path d="M 0 345.6 
L 460.8 345.6 
L 460.8 0 
L 0 0 
z
" style="fill: #ffffff"/>
  </g>
  <g id="axes_1">
   <g id="patch_2">
    <path d="M 57.6 298.944 
L 360.8064 298.944 
L 360.8064 6.912 
L 57.6 6.912 
z
" style="fill: #ffffff"/>
   </g>
   <g id="line2d_1">
    <path d="M 50.890391 298.944 
L 50.890391 282.72 
L 57.6 282.72 
L 57.6 266.496 
L 58.517819 266.496 
L 58.517819 250.272 
L 72.854856 250.272 
L 72.854856 234.048 
L 83.678349 234.048 
L 83.678349 217.824 
L 85.894031 217.824 
L 85.894031 201.6 
L 90.007914 201.6 
L 90.007914 185.376 
L 94.995002 185.376 
L 94.995002 169.152 
L 97.18203 169.152 
L 97.18203 152.928 
L 104.732832 152.928 
L 104.732832 136.704 
L 106.837279 136.704 
L 106.837279 120.48 
L 110.786158 120.48 
L 110.786158 104.256 
L 114.82735 104.256 
L 114.82735 88.032 
L 116.336531 88.032 
L 116.336531 71.808 
L 125.704082 71.808 
L 125.704082 55.584 
L 131.929028 55.584 
L 131.929028 39.36 
L 132.216233 39.36 
L 132.216233 23.136 
L 134.495147 23.136 
L 134.495147 6.912 
L 360.8064 6.912 
" style="fill: none; stroke: #f5deb3; stroke-width: 4; stroke-linecap: square"/>
   </g>
   <g id="line2d_2">
    <defs>
     <path id="ma6e3d56660" d="M -0 7.778175 
L 7.778175 0 
L 0 -7.778175 
L -7.778175 -0 
z
" style="stroke: #f5deb3; stroke-width: 1.5; stroke-linejoin: miter"/>
    </defs>
    <g>
     <use xlink:href="#ma6e3d56660" x="85.894031" y="201.6" style="fill: #f5deb3; stroke: #f5deb3; stroke-width: 1.5; stroke-linejoin: miter"/>
     <use xlink:href="#ma6e3d56660" x="116.336531" y="88.032" style="fill: #f5deb3; stroke: #f5deb3; stroke-width: 1.5; stroke-linejoin: miter"/>
     <use xlink:href="#ma6e3d56660" x="134.495147" y="23.136" style="fill: #f5deb3; stroke: #f5deb3; stroke-width: 1.5; stroke-linejoin: miter"/>
     <use xlink:href="#ma6e3d56660" x="134.495147" y="6.912" style="fill: #f5deb3; stroke: #f5deb3; stroke-width: 1.5; stroke-linejoin: miter"/>
     <use xlink:href="#ma6e3d56660" x="134.495147" y="6.912" style="fill: #f5deb3; stroke: #f5deb3; stroke-width: 1.5; stroke-linejoin: miter"/>
     <use xlink:href="#ma6e3d56660" x="360.8064" y="6.912" style="fill: #f5deb3; stroke: #f5deb3; stroke-width: 1.5; stroke-linejoin: miter"/>
    </g>
   </g>
   <g id="line2d_3">
    <path style="fill: none; stroke: #f5deb3; stroke-width: 4; stroke-linecap: square"/>
    <g/>
   </g>
   <g id="line2d_4">
    <path d="M 360.8064 6.912 
L 380.514816 12.75264 
" style="fill: none; stroke: #f5deb3; stroke-width: 4; stroke-linecap: square"/>
    <g>
     <use xlink:href="#ma6e3d56660" x="360.8064" y="6.912" style="fill: #f5deb3; stroke: #f5deb3; stroke-width: 1.5; stroke-linejoin: miter"/>
     <use xlink:href="#ma6e3d56660" x="380.514816" y="12.75264" style="fill: #f5deb3; stroke: #f5deb3; stroke-width: 1.5; stroke-linejoin: miter"/>
    </g>
   </g>
   <g id="matplotlib.axis_1">
    <g id="xtick_1">
     <g id="line2d_5">
      <path d="M 57.6 298.944 
L 57.6 6.912 
" clip-path="url(#pbc09926437)" style="fill: none; stroke: #b0b0b0; stroke-width: 0.8; stroke-linecap: square"/>
     </g>
     <g id="line2d_6">
      <defs>
       <path id="m88f2a1a06d" d="M 0 0 
L 0 3.5 
" style="stroke: #000000; stroke-width: 0.8"/>
      </defs>
      <g>
       <use xlink:href="#m88f2a1a06d" x="57.6" y="298.944" style="stroke: #000000; stroke-width: 0.8"/>
      </g>
     </g>
     <g id="text_1">
      <!-- 0 -->
      <g transform="translate(52.191875 318.861344) scale(0.17 -0.17)">
       <defs>
        <path id="DejaVuSans-30" d="M 2034 4250 
Q 1547 4250 1301 3770 
Q 1056 3291 1056 2328 
Q 1056 1369 1301 889 
Q 1547 409 2034 409 
Q 2525 409 2770 889 
Q 3016 1369 3016 2328 
Q 3016 3291 2770 3770 
Q 2525 4250 2034 4250 
z
M 2034 4750 
Q 2819 4750 3233 4129 
Q 3647 3509 3647 2328 
Q 3647 1150 3233 529 
Q 2819 -91 2034 -91 
Q 1250 -91 836 529 
Q 422 1150 422 2328 
Q 422 3509 836 4129 
Q 1250 4750 2034 4750 
z
" transform="scale(0.015625)"/>
       </defs>
       <use xlink:href="#DejaVuSans-30"/>
      </g>
     </g>
    </g>
    <g id="xtick_2">
     <g id="line2d_7">
      <path d="M 144.2304 298.944 
L 144.2304 6.912 
" clip-path="url(#pbc09926437)" style="fill: none; stroke: #b0b0b0; stroke-width: 0.8; stroke-linecap: square"/>
     </g>
     <g id="line2d_8">
      <g>
       <use xlink:href="#m88f2a1a06d" x="144.2304" y="298.944" style="stroke: #000000; stroke-width: 0.8"/>
      </g>
     </g>
     <g id="text_2">
      <!-- 2 -->
      <g transform="translate(138.822275 318.861344) scale(0.17 -0.17)">
       <defs>
        <path id="DejaVuSans-32" d="M 1228 531 
L 3431 531 
L 3431 0 
L 469 0 
L 469 531 
Q 828 903 1448 1529 
Q 2069 2156 2228 2338 
Q 2531 2678 2651 2914 
Q 2772 3150 2772 3378 
Q 2772 3750 2511 3984 
Q 2250 4219 1831 4219 
Q 1534 4219 1204 4116 
Q 875 4013 500 3803 
L 500 4441 
Q 881 4594 1212 4672 
Q 1544 4750 1819 4750 
Q 2544 4750 2975 4387 
Q 3406 4025 3406 3419 
Q 3406 3131 3298 2873 
Q 3191 2616 2906 2266 
Q 2828 2175 2409 1742 
Q 1991 1309 1228 531 
z
" transform="scale(0.015625)"/>
       </defs>
       <use xlink:href="#DejaVuSans-32"/>
      </g>
     </g>
    </g>
    <g id="xtick_3">
     <g id="line2d_9">
      <path d="M 230.8608 298.944 
L 230.8608 6.912 
" clip-path="url(#pbc09926437)" style="fill: none; stroke: #b0b0b0; stroke-width: 0.8; stroke-linecap: square"/>
     </g>
     <g id="line2d_10">
      <g>
       <use xlink:href="#m88f2a1a06d" x="230.8608" y="298.944" style="stroke: #000000; stroke-width: 0.8"/>
      </g>
     </g>
     <g id="text_3">
      <!-- 4 -->
      <g transform="translate(225.452675 318.861344) scale(0.17 -0.17)">
       <defs>
        <path id="DejaVuSans-34" d="M 2419 4116 
L 825 1625 
L 2419 1625 
L 2419 4116 
z
M 2253 4666 
L 3047 4666 
L 3047 1625 
L 3713 1625 
L 3713 1100 
L 3047 1100 
L 3047 0 
L 2419 0 
L 2419 1100 
L 313 1100 
L 313 1709 
L 2253 4666 
z
" transform="scale(0.015625)"/>
       </defs>
       <use xlink:href="#DejaVuSans-34"/>
      </g>
     </g>
    </g>
    <g id="xtick_4">
     <g id="line2d_11">
      <path d="M 317.4912 298.944 
L 317.4912 6.912 
" clip-path="url(#pbc09926437)" style="fill: none; stroke: #b0b0b0; stroke-width: 0.8; stroke-linecap: square"/>
     </g>
     <g id="line2d_12">
      <g>
       <use xlink:href="#m88f2a1a06d" x="317.4912" y="298.944" style="stroke: #000000; stroke-width: 0.8"/>
      </g>
     </g>
     <g id="text_4">
      <!-- 6 -->
      <g transform="translate(312.083075 318.861344) scale(0.17 -0.17)">
       <defs>
        <path id="DejaVuSans-36" d="M 2113 2584 
Q 1688 2584 1439 2293 
Q 1191 2003 1191 1497 
Q 1191 994 1439 701 
Q 1688 409 2113 409 
Q 2538 409 2786 701 
Q 3034 994 3034 1497 
Q 3034 2003 2786 2293 
Q 2538 2584 2113 2584 
z
M 3366 4563 
L 3366 3988 
Q 3128 4100 2886 4159 
Q 2644 4219 2406 4219 
Q 1781 4219 1451 3797 
Q 1122 3375 1075 2522 
Q 1259 2794 1537 2939 
Q 1816 3084 2150 3084 
Q 2853 3084 3261 2657 
Q 3669 2231 3669 1497 
Q 3669 778 3244 343 
Q 2819 -91 2113 -91 
Q 1303 -91 875 529 
Q 447 1150 447 2328 
Q 447 3434 972 4092 
Q 1497 4750 2381 4750 
Q 2619 4750 2861 4703 
Q 3103 4656 3366 4563 
z
" transform="scale(0.015625)"/>
       </defs>
       <use xlink:href="#DejaVuSans-36"/>
      </g>
     </g>
    </g>
    <g id="xtick_5">
     <g id="line2d_13">
      <path d="M 100.9152 298.944 
L 100.9152 6.912 
" clip-path="url(#pbc09926437)" style="fill: none; stroke: #b0b0b0; stroke-width: 0.8; stroke-linecap: square"/>
     </g>
     <g id="line2d_14">
      <defs>
       <path id="m3a69bc0fcd" d="M 0 0 
L 0 2 
" style="stroke: #000000; stroke-width: 0.6"/>
      </defs>
      <g>
       <use xlink:href="#m3a69bc0fcd" x="100.9152" y="298.944" style="stroke: #000000; stroke-width: 0.6"/>
      </g>
     </g>
    </g>
    <g id="xtick_6">
     <g id="line2d_15">
      <path d="M 187.5456 298.944 
L 187.5456 6.912 
" clip-path="url(#pbc09926437)" style="fill: none; stroke: #b0b0b0; stroke-width: 0.8; stroke-linecap: square"/>
     </g>
     <g id="line2d_16">
      <g>
       <use xlink:href="#m3a69bc0fcd" x="187.5456" y="298.944" style="stroke: #000000; stroke-width: 0.6"/>
      </g>
     </g>
    </g>
    <g id="xtick_7">
     <g id="line2d_17">
      <path d="M 274.176 298.944 
L 274.176 6.912 
" clip-path="url(#pbc09926437)" style="fill: none; stroke: #b0b0b0; stroke-width: 0.8; stroke-linecap: square"/>
     </g>
     <g id="line2d_18">
      <g>
       <use xlink:href="#m3a69bc0fcd" x="274.176" y="298.944" style="stroke: #000000; stroke-width: 0.6"/>
      </g>
     </g>
    </g>
    <g id="xtick_8">
     <g id="line2d_19">
      <path d="M 360.8064 298.944 
L 360.8064 6.912 
" clip-path="url(#pbc09926437)" style="fill: none; stroke: #b0b0b0; stroke-width: 0.8; stroke-linecap: square"/>
     </g>
     <g id="line2d_20">
      <g>
       <use xlink:href="#m3a69bc0fcd" x="360.8064" y="298.944" style="stroke: #000000; stroke-width: 0.6"/>
      </g>
     </g>
    </g>
    <g id="text_5">
     <!-- log10(# f-evals / dimension) -->
     <g transform="translate(88.823278 339.314156) scale(0.17 -0.17)">
      <defs>
       <path id="DejaVuSans-6c" d="M 603 4863 
L 1178 4863 
L 1178 0 
L 603 0 
L 603 4863 
z
" transform="scale(0.015625)"/>
       <path id="DejaVuSans-6f" d="M 1959 3097 
Q 1497 3097 1228 2736 
Q 959 2375 959 1747 
Q 959 1119 1226 758 
Q 1494 397 1959 397 
Q 2419 397 2687 759 
Q 2956 1122 2956 1747 
Q 2956 2369 2687 2733 
Q 2419 3097 1959 3097 
z
M 1959 3584 
Q 2709 3584 3137 3096 
Q 3566 2609 3566 1747 
Q 3566 888 3137 398 
Q 2709 -91 1959 -91 
Q 1206 -91 779 398 
Q 353 888 353 1747 
Q 353 2609 779 3096 
Q 1206 3584 1959 3584 
z
" transform="scale(0.015625)"/>
       <path id="DejaVuSans-67" d="M 2906 1791 
Q 2906 2416 2648 2759 
Q 2391 3103 1925 3103 
Q 1463 3103 1205 2759 
Q 947 2416 947 1791 
Q 947 1169 1205 825 
Q 1463 481 1925 481 
Q 2391 481 2648 825 
Q 2906 1169 2906 1791 
z
M 3481 434 
Q 3481 -459 3084 -895 
Q 2688 -1331 1869 -1331 
Q 1566 -1331 1297 -1286 
Q 1028 -1241 775 -1147 
L 775 -588 
Q 1028 -725 1275 -790 
Q 1522 -856 1778 -856 
Q 2344 -856 2625 -561 
Q 2906 -266 2906 331 
L 2906 616 
Q 2728 306 2450 153 
Q 2172 0 1784 0 
Q 1141 0 747 490 
Q 353 981 353 1791 
Q 353 2603 747 3093 
Q 1141 3584 1784 3584 
Q 2172 3584 2450 3431 
Q 2728 3278 2906 2969 
L 2906 3500 
L 3481 3500 
L 3481 434 
z
" transform="scale(0.015625)"/>
       <path id="DejaVuSans-31" d="M 794 531 
L 1825 531 
L 1825 4091 
L 703 3866 
L 703 4441 
L 1819 4666 
L 2450 4666 
L 2450 531 
L 3481 531 
L 3481 0 
L 794 0 
L 794 531 
z
" transform="scale(0.015625)"/>
       <path id="DejaVuSans-28" d="M 1984 4856 
Q 1566 4138 1362 3434 
Q 1159 2731 1159 2009 
Q 1159 1288 1364 580 
Q 1569 -128 1984 -844 
L 1484 -844 
Q 1016 -109 783 600 
Q 550 1309 550 2009 
Q 550 2706 781 3412 
Q 1013 4119 1484 4856 
L 1984 4856 
z
" transform="scale(0.015625)"/>
       <path id="DejaVuSans-23" d="M 3272 2816 
L 2363 2816 
L 2100 1772 
L 3016 1772 
L 3272 2816 
z
M 2803 4594 
L 2478 3297 
L 3391 3297 
L 3719 4594 
L 4219 4594 
L 3897 3297 
L 4872 3297 
L 4872 2816 
L 3775 2816 
L 3519 1772 
L 4513 1772 
L 4513 1294 
L 3397 1294 
L 3072 0 
L 2572 0 
L 2894 1294 
L 1978 1294 
L 1656 0 
L 1153 0 
L 1478 1294 
L 494 1294 
L 494 1772 
L 1594 1772 
L 1856 2816 
L 850 2816 
L 850 3297 
L 1978 3297 
L 2297 4594 
L 2803 4594 
z
" transform="scale(0.015625)"/>
       <path id="DejaVuSans-20" transform="scale(0.015625)"/>
       <path id="DejaVuSans-66" d="M 2375 4863 
L 2375 4384 
L 1825 4384 
Q 1516 4384 1395 4259 
Q 1275 4134 1275 3809 
L 1275 3500 
L 2222 3500 
L 2222 3053 
L 1275 3053 
L 1275 0 
L 697 0 
L 697 3053 
L 147 3053 
L 147 3500 
L 697 3500 
L 697 3744 
Q 697 4328 969 4595 
Q 1241 4863 1831 4863 
L 2375 4863 
z
" transform="scale(0.015625)"/>
       <path id="DejaVuSans-2d" d="M 313 2009 
L 1997 2009 
L 1997 1497 
L 313 1497 
L 313 2009 
z
" transform="scale(0.015625)"/>
       <path id="DejaVuSans-65" d="M 3597 1894 
L 3597 1613 
L 953 1613 
Q 991 1019 1311 708 
Q 1631 397 2203 397 
Q 2534 397 2845 478 
Q 3156 559 3463 722 
L 3463 178 
Q 3153 47 2828 -22 
Q 2503 -91 2169 -91 
Q 1331 -91 842 396 
Q 353 884 353 1716 
Q 353 2575 817 3079 
Q 1281 3584 2069 3584 
Q 2775 3584 3186 3129 
Q 3597 2675 3597 1894 
z
M 3022 2063 
Q 3016 2534 2758 2815 
Q 2500 3097 2075 3097 
Q 1594 3097 1305 2825 
Q 1016 2553 972 2059 
L 3022 2063 
z
" transform="scale(0.015625)"/>
       <path id="DejaVuSans-76" d="M 191 3500 
L 800 3500 
L 1894 563 
L 2988 3500 
L 3597 3500 
L 2284 0 
L 1503 0 
L 191 3500 
z
" transform="scale(0.015625)"/>
       <path id="DejaVuSans-61" d="M 2194 1759 
Q 1497 1759 1228 1600 
Q 959 1441 959 1056 
Q 959 750 1161 570 
Q 1363 391 1709 391 
Q 2188 391 2477 730 
Q 2766 1069 2766 1631 
L 2766 1759 
L 2194 1759 
z
M 3341 1997 
L 3341 0 
L 2766 0 
L 2766 531 
Q 2569 213 2275 61 
Q 1981 -91 1556 -91 
Q 1019 -91 701 211 
Q 384 513 384 1019 
Q 384 1609 779 1909 
Q 1175 2209 1959 2209 
L 2766 2209 
L 2766 2266 
Q 2766 2663 2505 2880 
Q 2244 3097 1772 3097 
Q 1472 3097 1187 3025 
Q 903 2953 641 2809 
L 641 3341 
Q 956 3463 1253 3523 
Q 1550 3584 1831 3584 
Q 2591 3584 2966 3190 
Q 3341 2797 3341 1997 
z
" transform="scale(0.015625)"/>
       <path id="DejaVuSans-73" d="M 2834 3397 
L 2834 2853 
Q 2591 2978 2328 3040 
Q 2066 3103 1784 3103 
Q 1356 3103 1142 2972 
Q 928 2841 928 2578 
Q 928 2378 1081 2264 
Q 1234 2150 1697 2047 
L 1894 2003 
Q 2506 1872 2764 1633 
Q 3022 1394 3022 966 
Q 3022 478 2636 193 
Q 2250 -91 1575 -91 
Q 1294 -91 989 -36 
Q 684 19 347 128 
L 347 722 
Q 666 556 975 473 
Q 1284 391 1588 391 
Q 1994 391 2212 530 
Q 2431 669 2431 922 
Q 2431 1156 2273 1281 
Q 2116 1406 1581 1522 
L 1381 1569 
Q 847 1681 609 1914 
Q 372 2147 372 2553 
Q 372 3047 722 3315 
Q 1072 3584 1716 3584 
Q 2034 3584 2315 3537 
Q 2597 3491 2834 3397 
z
" transform="scale(0.015625)"/>
       <path id="DejaVuSans-2f" d="M 1625 4666 
L 2156 4666 
L 531 -594 
L 0 -594 
L 1625 4666 
z
" transform="scale(0.015625)"/>
       <path id="DejaVuSans-64" d="M 2906 2969 
L 2906 4863 
L 3481 4863 
L 3481 0 
L 2906 0 
L 2906 525 
Q 2725 213 2448 61 
Q 2172 -91 1784 -91 
Q 1150 -91 751 415 
Q 353 922 353 1747 
Q 353 2572 751 3078 
Q 1150 3584 1784 3584 
Q 2172 3584 2448 3432 
Q 2725 3281 2906 2969 
z
M 947 1747 
Q 947 1113 1208 752 
Q 1469 391 1925 391 
Q 2381 391 2643 752 
Q 2906 1113 2906 1747 
Q 2906 2381 2643 2742 
Q 2381 3103 1925 3103 
Q 1469 3103 1208 2742 
Q 947 2381 947 1747 
z
" transform="scale(0.015625)"/>
       <path id="DejaVuSans-69" d="M 603 3500 
L 1178 3500 
L 1178 0 
L 603 0 
L 603 3500 
z
M 603 4863 
L 1178 4863 
L 1178 4134 
L 603 4134 
L 603 4863 
z
" transform="scale(0.015625)"/>
       <path id="DejaVuSans-6d" d="M 3328 2828 
Q 3544 3216 3844 3400 
Q 4144 3584 4550 3584 
Q 5097 3584 5394 3201 
Q 5691 2819 5691 2113 
L 5691 0 
L 5113 0 
L 5113 2094 
Q 5113 2597 4934 2840 
Q 4756 3084 4391 3084 
Q 3944 3084 3684 2787 
Q 3425 2491 3425 1978 
L 3425 0 
L 2847 0 
L 2847 2094 
Q 2847 2600 2669 2842 
Q 2491 3084 2119 3084 
Q 1678 3084 1418 2786 
Q 1159 2488 1159 1978 
L 1159 0 
L 581 0 
L 581 3500 
L 1159 3500 
L 1159 2956 
Q 1356 3278 1631 3431 
Q 1906 3584 2284 3584 
Q 2666 3584 2933 3390 
Q 3200 3197 3328 2828 
z
" transform="scale(0.015625)"/>
       <path id="DejaVuSans-6e" d="M 3513 2113 
L 3513 0 
L 2938 0 
L 2938 2094 
Q 2938 2591 2744 2837 
Q 2550 3084 2163 3084 
Q 1697 3084 1428 2787 
Q 1159 2491 1159 1978 
L 1159 0 
L 581 0 
L 581 3500 
L 1159 3500 
L 1159 2956 
Q 1366 3272 1645 3428 
Q 1925 3584 2291 3584 
Q 2894 3584 3203 3211 
Q 3513 2838 3513 2113 
z
" transform="scale(0.015625)"/>
       <path id="DejaVuSans-29" d="M 513 4856 
L 1013 4856 
Q 1481 4119 1714 3412 
Q 1947 2706 1947 2009 
Q 1947 1309 1714 600 
Q 1481 -109 1013 -844 
L 513 -844 
Q 928 -128 1133 580 
Q 1338 1288 1338 2009 
Q 1338 2731 1133 3434 
Q 928 4138 513 4856 
z
" transform="scale(0.015625)"/>
      </defs>
      <use xlink:href="#DejaVuSans-6c"/>
      <use xlink:href="#DejaVuSans-6f" x="27.783203"/>
      <use xlink:href="#DejaVuSans-67" x="88.964844"/>
      <use xlink:href="#DejaVuSans-31" x="152.441406"/>
      <use xlink:href="#DejaVuSans-30" x="216.064453"/>
      <use xlink:href="#DejaVuSans-28" x="279.6875"/>
      <use xlink:href="#DejaVuSans-23" x="318.701172"/>
      <use xlink:href="#DejaVuSans-20" x="402.490234"/>
      <use xlink:href="#DejaVuSans-66" x="434.277344"/>
      <use xlink:href="#DejaVuSans-2d" x="463.982422"/>
      <use xlink:href="#DejaVuSans-65" x="500.066406"/>
      <use xlink:href="#DejaVuSans-76" x="561.589844"/>
      <use xlink:href="#DejaVuSans-61" x="620.769531"/>
      <use xlink:href="#DejaVuSans-6c" x="682.048828"/>
      <use xlink:href="#DejaVuSans-73" x="709.832031"/>
      <use xlink:href="#DejaVuSans-20" x="761.931641"/>
      <use xlink:href="#DejaVuSans-2f" x="793.71875"/>
      <use xlink:href="#DejaVuSans-20" x="827.410156"/>
      <use xlink:href="#DejaVuSans-64" x="859.197266"/>
      <use xlink:href="#DejaVuSans-69" x="922.673828"/>
      <use xlink:href="#DejaVuSans-6d" x="950.457031"/>
      <use xlink:href="#DejaVuSans-65" x="1047.869141"/>
      <use xlink:href="#DejaVuSans-6e" x="1109.392578"/>
      <use xlink:href="#DejaVuSans-73" x="1172.771484"/>
      <use xlink:href="#DejaVuSans-69" x="1224.871094"/>
      <use xlink:href="#DejaVuSans-6f" x="1252.654297"/>
      <use xlink:href="#DejaVuSans-6e" x="1313.835938"/>
      <use xlink:href="#DejaVuSans-29" x="1377.214844"/>
     </g>
    </g>
   </g>
   <g id="matplotlib.axis_2">
    <g id="ytick_1">
     <g id="line2d_21">
      <path d="M 57.6 298.944 
L 360.8064 298.944 
" clip-path="url(#pbc09926437)" style="fill: none; stroke: #b0b0b0; stroke-width: 0.8; stroke-linecap: square"/>
     </g>
     <g id="line2d_22">
      <defs>
       <path id="m8d2a4a8652" d="M 0 0 
L -3.5 0 
" style="stroke: #000000; stroke-width: 0.8"/>
      </defs>
      <g>
       <use xlink:href="#m8d2a4a8652" x="57.6" y="298.944" style="stroke: #000000; stroke-width: 0.8"/>
      </g>
     </g>
     <g id="text_6">
      <!-- 0.0 -->
      <g transform="translate(25.155 305.02275) scale(0.16 -0.16)">
       <defs>
        <path id="DejaVuSans-2e" d="M 684 794 
L 1344 794 
L 1344 0 
L 684 0 
L 684 794 
z
" transform="scale(0.015625)"/>
       </defs>
       <use xlink:href="#DejaVuSans-30"/>
       <use xlink:href="#DejaVuSans-2e" x="63.623047"/>
       <use xlink:href="#DejaVuSans-30" x="95.410156"/>
      </g>
     </g>
    </g>
    <g id="ytick_2">
     <g id="line2d_23">
      <path d="M 57.6 240.5376 
L 360.8064 240.5376 
" clip-path="url(#pbc09926437)" style="fill: none; stroke: #b0b0b0; stroke-width: 0.8; stroke-linecap: square"/>
     </g>
     <g id="line2d_24">
      <g>
       <use xlink:href="#m8d2a4a8652" x="57.6" y="240.5376" style="stroke: #000000; stroke-width: 0.8"/>
      </g>
     </g>
     <g id="text_7">
      <!-- 0.2 -->
      <g transform="translate(25.155 246.61635) scale(0.16 -0.16)">
       <use xlink:href="#DejaVuSans-30"/>
       <use xlink:href="#DejaVuSans-2e" x="63.623047"/>
       <use xlink:href="#DejaVuSans-32" x="95.410156"/>
      </g>
     </g>
    </g>
    <g id="ytick_3">
     <g id="line2d_25">
      <path d="M 57.6 182.1312 
L 360.8064 182.1312 
" clip-path="url(#pbc09926437)" style="fill: none; stroke: #b0b0b0; stroke-width: 0.8; stroke-linecap: square"/>
     </g>
     <g id="line2d_26">
      <g>
       <use xlink:href="#m8d2a4a8652" x="57.6" y="182.1312" style="stroke: #000000; stroke-width: 0.8"/>
      </g>
     </g>
     <g id="text_8">
      <!-- 0.4 -->
      <g transform="translate(25.155 188.20995) scale(0.16 -0.16)">
       <use xlink:href="#DejaVuSans-30"/>
       <use xlink:href="#DejaVuSans-2e" x="63.623047"/>
       <use xlink:href="#DejaVuSans-34" x="95.410156"/>
      </g>
     </g>
    </g>
    <g id="ytick_4">
     <g id="line2d_27">
      <path d="M 57.6 123.7248 
L 360.8064 123.7248 
" clip-path="url(#pbc09926437)" style="fill: none; stroke: #b0b0b0; stroke-width: 0.8; stroke-linecap: square"/>
     </g>
     <g id="line2d_28">
      <g>
       <use xlink:href="#m8d2a4a8652" x="57.6" y="123.7248" style="stroke: #000000; stroke-width: 0.8"/>
      </g>
     </g>
     <g id="text_9">
      <!-- 0.6 -->
      <g transform="translate(25.155 129.80355) scale(0.16 -0.16)">
       <use xlink:href="#DejaVuSans-30"/>
       <use xlink:href="#DejaVuSans-2e" x="63.623047"/>
       <use xlink:href="#DejaVuSans-36" x="95.410156"/>
      </g>
     </g>
    </g>
    <g id="ytick_5">
     <g id="line2d_29">
      <path d="M 57.6 65.3184 
L 360.8064 65.3184 
" clip-path="url(#pbc09926437)" style="fill: none; stroke: #b0b0b0; stroke-width: 0.8; stroke-linecap: square"/>
     </g>
     <g id="line2d_30">
      <g>
       <use xlink:href="#m8d2a4a8652" x="57.6" y="65.3184" style="stroke: #000000; stroke-width: 0.8"/>
      </g>
     </g>
     <g id="text_10">
      <!-- 0.8 -->
      <g transform="translate(25.155 71.39715) scale(0.16 -0.16)">
       <defs>
        <path id="DejaVuSans-38" d="M 2034 2216 
Q 1584 2216 1326 1975 
Q 1069 1734 1069 1313 
Q 1069 891 1326 650 
Q 1584 409 2034 409 
Q 2484 409 2743 651 
Q 3003 894 3003 1313 
Q 3003 1734 2745 1975 
Q 2488 2216 2034 2216 
z
M 1403 2484 
Q 997 2584 770 2862 
Q 544 3141 544 3541 
Q 544 4100 942 4425 
Q 1341 4750 2034 4750 
Q 2731 4750 3128 4425 
Q 3525 4100 3525 3541 
Q 3525 3141 3298 2862 
Q 3072 2584 2669 2484 
Q 3125 2378 3379 2068 
Q 3634 1759 3634 1313 
Q 3634 634 3220 271 
Q 2806 -91 2034 -91 
Q 1263 -91 848 271 
Q 434 634 434 1313 
Q 434 1759 690 2068 
Q 947 2378 1403 2484 
z
M 1172 3481 
Q 1172 3119 1398 2916 
Q 1625 2713 2034 2713 
Q 2441 2713 2670 2916 
Q 2900 3119 2900 3481 
Q 2900 3844 2670 4047 
Q 2441 4250 2034 4250 
Q 1625 4250 1398 4047 
Q 1172 3844 1172 3481 
z
" transform="scale(0.015625)"/>
       </defs>
       <use xlink:href="#DejaVuSans-30"/>
       <use xlink:href="#DejaVuSans-2e" x="63.623047"/>
       <use xlink:href="#DejaVuSans-38" x="95.410156"/>
      </g>
     </g>
    </g>
    <g id="ytick_6">
     <g id="line2d_31">
      <path d="M 57.6 6.912 
L 360.8064 6.912 
" clip-path="url(#pbc09926437)" style="fill: none; stroke: #b0b0b0; stroke-width: 0.8; stroke-linecap: square"/>
     </g>
     <g id="line2d_32">
      <g>
       <use xlink:href="#m8d2a4a8652" x="57.6" y="6.912" style="stroke: #000000; stroke-width: 0.8"/>
      </g>
     </g>
     <g id="text_11">
      <!-- 1.0 -->
      <g transform="translate(25.155 12.99075) scale(0.16 -0.16)">
       <use xlink:href="#DejaVuSans-31"/>
       <use xlink:href="#DejaVuSans-2e" x="63.623047"/>
       <use xlink:href="#DejaVuSans-30" x="95.410156"/>
      </g>
     </g>
    </g>
    <g id="text_12">
     <!-- Fraction of function,target pairs -->
     <g transform="translate(17.619531 287.313) rotate(-90) scale(0.17 -0.17)">
      <defs>
       <path id="DejaVuSans-46" d="M 628 4666 
L 3309 4666 
L 3309 4134 
L 1259 4134 
L 1259 2759 
L 3109 2759 
L 3109 2228 
L 1259 2228 
L 1259 0 
L 628 0 
L 628 4666 
z
" transform="scale(0.015625)"/>
       <path id="DejaVuSans-72" d="M 2631 2963 
Q 2534 3019 2420 3045 
Q 2306 3072 2169 3072 
Q 1681 3072 1420 2755 
Q 1159 2438 1159 1844 
L 1159 0 
L 581 0 
L 581 3500 
L 1159 3500 
L 1159 2956 
Q 1341 3275 1631 3429 
Q 1922 3584 2338 3584 
Q 2397 3584 2469 3576 
Q 2541 3569 2628 3553 
L 2631 2963 
z
" transform="scale(0.015625)"/>
       <path id="DejaVuSans-63" d="M 3122 3366 
L 3122 2828 
Q 2878 2963 2633 3030 
Q 2388 3097 2138 3097 
Q 1578 3097 1268 2742 
Q 959 2388 959 1747 
Q 959 1106 1268 751 
Q 1578 397 2138 397 
Q 2388 397 2633 464 
Q 2878 531 3122 666 
L 3122 134 
Q 2881 22 2623 -34 
Q 2366 -91 2075 -91 
Q 1284 -91 818 406 
Q 353 903 353 1747 
Q 353 2603 823 3093 
Q 1294 3584 2113 3584 
Q 2378 3584 2631 3529 
Q 2884 3475 3122 3366 
z
" transform="scale(0.015625)"/>
       <path id="DejaVuSans-74" d="M 1172 4494 
L 1172 3500 
L 2356 3500 
L 2356 3053 
L 1172 3053 
L 1172 1153 
Q 1172 725 1289 603 
Q 1406 481 1766 481 
L 2356 481 
L 2356 0 
L 1766 0 
Q 1100 0 847 248 
Q 594 497 594 1153 
L 594 3053 
L 172 3053 
L 172 3500 
L 594 3500 
L 594 4494 
L 1172 4494 
z
" transform="scale(0.015625)"/>
       <path id="DejaVuSans-75" d="M 544 1381 
L 544 3500 
L 1119 3500 
L 1119 1403 
Q 1119 906 1312 657 
Q 1506 409 1894 409 
Q 2359 409 2629 706 
Q 2900 1003 2900 1516 
L 2900 3500 
L 3475 3500 
L 3475 0 
L 2900 0 
L 2900 538 
Q 2691 219 2414 64 
Q 2138 -91 1772 -91 
Q 1169 -91 856 284 
Q 544 659 544 1381 
z
M 1991 3584 
L 1991 3584 
z
" transform="scale(0.015625)"/>
       <path id="DejaVuSans-2c" d="M 750 794 
L 1409 794 
L 1409 256 
L 897 -744 
L 494 -744 
L 750 256 
L 750 794 
z
" transform="scale(0.015625)"/>
       <path id="DejaVuSans-70" d="M 1159 525 
L 1159 -1331 
L 581 -1331 
L 581 3500 
L 1159 3500 
L 1159 2969 
Q 1341 3281 1617 3432 
Q 1894 3584 2278 3584 
Q 2916 3584 3314 3078 
Q 3713 2572 3713 1747 
Q 3713 922 3314 415 
Q 2916 -91 2278 -91 
Q 1894 -91 1617 61 
Q 1341 213 1159 525 
z
M 3116 1747 
Q 3116 2381 2855 2742 
Q 2594 3103 2138 3103 
Q 1681 3103 1420 2742 
Q 1159 2381 1159 1747 
Q 1159 1113 1420 752 
Q 1681 391 2138 391 
Q 2594 391 2855 752 
Q 3116 1113 3116 1747 
z
" transform="scale(0.015625)"/>
      </defs>
      <use xlink:href="#DejaVuSans-46"/>
      <use xlink:href="#DejaVuSans-72" x="50.269531"/>
      <use xlink:href="#DejaVuSans-61" x="91.382812"/>
      <use xlink:href="#DejaVuSans-63" x="152.662109"/>
      <use xlink:href="#DejaVuSans-74" x="207.642578"/>
      <use xlink:href="#DejaVuSans-69" x="246.851562"/>
      <use xlink:href="#DejaVuSans-6f" x="274.634766"/>
      <use xlink:href="#DejaVuSans-6e" x="335.816406"/>
      <use xlink:href="#DejaVuSans-20" x="399.195312"/>
      <use xlink:href="#DejaVuSans-6f" x="430.982422"/>
      <use xlink:href="#DejaVuSans-66" x="492.164062"/>
      <use xlink:href="#DejaVuSans-20" x="527.369141"/>
      <use xlink:href="#DejaVuSans-66" x="559.15625"/>
      <use xlink:href="#DejaVuSans-75" x="594.361328"/>
      <use xlink:href="#DejaVuSans-6e" x="657.740234"/>
      <use xlink:href="#DejaVuSans-63" x="721.119141"/>
      <use xlink:href="#DejaVuSans-74" x="776.099609"/>
      <use xlink:href="#DejaVuSans-69" x="815.308594"/>
      <use xlink:href="#DejaVuSans-6f" x="843.091797"/>
      <use xlink:href="#DejaVuSans-6e" x="904.273438"/>
      <use xlink:href="#DejaVuSans-2c" x="967.652344"/>
      <use xlink:href="#DejaVuSans-74" x="999.439453"/>
      <use xlink:href="#DejaVuSans-61" x="1038.648438"/>
      <use xlink:href="#DejaVuSans-72" x="1099.927734"/>
      <use xlink:href="#DejaVuSans-67" x="1139.291016"/>
      <use xlink:href="#DejaVuSans-65" x="1202.767578"/>
      <use xlink:href="#DejaVuSans-74" x="1264.291016"/>
      <use xlink:href="#DejaVuSans-20" x="1303.5"/>
      <use xlink:href="#DejaVuSans-70" x="1335.287109"/>
      <use xlink:href="#DejaVuSans-61" x="1398.763672"/>
      <use xlink:href="#DejaVuSans-69" x="1460.042969"/>
      <use xlink:href="#DejaVuSans-72" x="1487.826172"/>
      <use xlink:href="#DejaVuSans-73" x="1528.939453"/>
     </g>
    </g>
   </g>
   <g id="line2d_33">
    <defs>
     <path id="m4291659bb1" d="M 0 1.5 
C 0.397805 1.5 0.77937 1.341951 1.06066 1.06066 
C 1.341951 0.77937 1.5 0.397805 1.5 0 
C 1.5 -0.397805 1.341951 -0.77937 1.06066 -1.06066 
C 0.77937 -1.341951 0.397805 -1.5 0 -1.5 
C -0.397805 -1.5 -0.77937 -1.341951 -1.06066 -1.06066 
C -1.341951 -0.77937 -1.5 -0.397805 -1.5 0 
C -1.5 0.397805 -1.341951 0.77937 -1.06066 1.06066 
C -0.77937 1.341951 -0.397805 1.5 0 1.5 
z
" style="stroke: #f5deb3"/>
    </defs>
    <g>
     <use xlink:href="#m4291659bb1" x="134.495147" y="6.912" style="fill: #f5deb3; stroke: #f5deb3"/>
     <use xlink:href="#m4291659bb1" x="134.495147" y="6.912" style="fill: #f5deb3; stroke: #f5deb3"/>
    </g>
   </g>
   <g id="line2d_34">
    <defs>
     <path id="m9c9026ad8c" d="M 0 1.5 
C 0.397805 1.5 0.77937 1.341951 1.06066 1.06066 
C 1.341951 0.77937 1.5 0.397805 1.5 0 
C 1.5 -0.397805 1.341951 -0.77937 1.06066 -1.06066 
C 0.77937 -1.341951 0.397805 -1.5 0 -1.5 
C -0.397805 -1.5 -0.77937 -1.341951 -1.06066 -1.06066 
C -1.341951 -0.77937 -1.5 -0.397805 -1.5 0 
C -1.5 0.397805 -1.341951 0.77937 -1.06066 1.06066 
C -0.77937 1.341951 -0.397805 1.5 0 1.5 
z
" style="stroke: #000080"/>
    </defs>
    <g>
     <use xlink:href="#m9c9026ad8c" x="170.261661" y="6.912" style="fill: #000080; stroke: #000080"/>
     <use xlink:href="#m9c9026ad8c" x="170.261661" y="6.912" style="fill: #000080; stroke: #000080"/>
    </g>
   </g>
   <g id="line2d_35">
    <path d="M 1.245626 298.944 
L 1.245626 292.4544 
L 14.2848 292.4544 
L 14.2848 290.832 
L 40.363149 290.832 
L 40.363149 289.2096 
L 69.674268 289.2096 
L 69.674268 287.5872 
L 72.854856 287.5872 
L 72.854856 285.9648 
L 85.683844 285.9648 
L 85.683844 284.3424 
L 103.707211 284.3424 
L 103.707211 282.72 
L 110.618446 282.72 
L 110.618446 281.0976 
L 115.532315 281.0976 
L 115.532315 279.4752 
L 116.002095 279.4752 
L 116.086263 276.2304 
L 119.634612 276.2304 
L 119.738639 271.3632 
L 119.979155 271.3632 
L 119.979155 269.7408 
L 121.137664 269.7408 
L 121.137664 268.1184 
L 122.854567 268.1184 
L 122.854567 266.496 
L 123.289033 266.496 
L 123.289033 264.8736 
L 123.51671 264.8736 
L 123.51671 263.2512 
L 124.101572 263.2512 
L 124.210942 258.384 
L 124.748451 258.384 
L 124.748451 256.7616 
L 125.348177 256.7616 
L 125.348177 255.1392 
L 126.225624 255.1392 
L 126.225624 251.8944 
L 126.347698 251.8944 
L 126.347698 250.272 
L 127.319904 250.272 
L 127.319904 248.6496 
L 127.821575 248.6496 
L 127.821575 247.0272 
L 128.111848 247.0272 
L 128.111848 245.4048 
L 128.807846 245.4048 
L 128.807846 243.7824 
L 129.020168 243.7824 
L 129.020168 242.16 
L 130.087194 242.16 
L 130.087194 240.5376 
L 131.41562 240.5376 
L 131.41562 238.9152 
L 132.216233 238.9152 
L 132.216233 237.2928 
L 132.586655 237.2928 
L 132.691164 234.048 
L 132.708526 234.048 
L 132.708526 232.4256 
L 132.932784 232.4256 
L 132.984158 229.1808 
L 133.171339 229.1808 
L 133.171339 227.5584 
L 133.44032 227.5584 
L 133.44032 225.936 
L 133.573382 225.936 
L 133.573382 224.3136 
L 133.999446 224.3136 
L 133.999446 222.6912 
L 134.272898 222.6912 
L 134.272898 221.0688 
L 134.605294 221.0688 
L 134.620977 217.824 
L 135.161798 217.824 
L 135.161798 216.2016 
L 135.76142 216.2016 
L 135.76142 214.5792 
L 136.054213 214.5792 
L 136.155623 211.3344 
L 136.198918 211.3344 
L 136.28521 208.0896 
L 136.371107 208.0896 
L 136.371107 206.4672 
L 136.738864 206.4672 
L 136.738864 204.8448 
L 137.23648 204.8448 
L 137.23648 203.2224 
L 137.358854 203.2224 
L 137.358854 201.6 
L 137.561058 201.6 
L 137.561058 199.9776 
L 138.743257 199.9776 
L 138.743257 196.7328 
L 139.496066 196.7328 
L 139.496066 195.1104 
L 139.688636 195.1104 
L 139.688636 193.488 
L 139.819894 193.488 
L 139.819894 191.8656 
L 140.301214 191.8656 
L 140.301214 190.2432 
L 140.428281 190.2432 
L 140.428281 188.6208 
L 140.622984 188.6208 
L 140.668505 185.376 
L 141.13994 185.376 
L 141.13994 183.7536 
L 141.316472 183.7536 
L 141.316472 182.1312 
L 141.50224 182.1312 
L 141.59985 177.264 
L 141.65386 177.264 
L 141.761416 174.0192 
L 142.048783 174.0192 
L 142.048783 172.3968 
L 143.225848 172.3968 
L 143.225848 170.7744 
L 143.344534 170.7744 
L 143.374088 167.5296 
L 143.72517 167.5296 
L 143.72517 165.9072 
L 144.267986 165.9072 
L 144.267986 164.2848 
L 144.454795 164.2848 
L 144.547509 161.04 
L 144.685728 161.04 
L 144.685728 159.4176 
L 145.094395 159.4176 
L 145.094395 157.7952 
L 145.608355 157.7952 
L 145.608355 156.1728 
L 146.031881 156.1728 
L 146.031881 154.5504 
L 146.670477 154.5504 
L 146.670477 152.928 
L 146.867716 152.928 
L 146.916705 149.6832 
L 146.981825 149.6832 
L 146.981825 148.0608 
L 147.1517 148.0608 
L 147.1517 146.4384 
L 147.423525 146.4384 
L 147.518533 143.1936 
L 148.048032 143.1936 
L 148.055709 139.9488 
L 148.337564 139.9488 
L 148.337564 138.3264 
L 148.689612 138.3264 
L 148.689612 136.704 
L 149.630385 136.704 
L 149.700841 133.4592 
L 150.049213 133.4592 
L 150.049213 131.8368 
L 150.370903 131.8368 
L 150.370903 130.2144 
L 151.148597 130.2144 
L 151.168122 126.9696 
L 151.368694 126.9696 
L 151.432941 123.7248 
L 152.24878 123.7248 
L 152.24878 122.1024 
L 152.456442 122.1024 
L 152.456442 120.48 
L 152.769674 120.48 
L 152.829317 117.2352 
L 153.054254 117.2352 
L 153.054254 115.6128 
L 153.758759 115.6128 
L 153.758759 113.9904 
L 153.88304 113.9904 
L 153.922412 110.7456 
L 154.633615 110.7456 
L 154.633615 109.1232 
L 154.832738 109.1232 
L 154.832738 107.5008 
L 154.997963 107.5008 
L 154.997963 105.8784 
L 155.417764 105.8784 
L 155.417764 104.256 
L 155.536743 104.256 
L 155.536743 102.6336 
L 156.589623 102.6336 
L 156.68689 97.7664 
L 156.725657 97.7664 
L 156.725657 96.144 
L 157.099504 96.144 
L 157.099504 94.5216 
L 157.316545 94.5216 
L 157.316545 92.8992 
L 158.066071 92.8992 
L 158.066071 91.2768 
L 158.401163 91.2768 
L 158.401163 89.6544 
L 159.002557 89.6544 
L 159.002557 88.032 
L 159.313076 88.032 
L 159.313076 86.4096 
L 159.54369 86.4096 
L 159.614403 83.1648 
L 159.910978 83.1648 
L 159.915064 79.92 
L 160.033184 79.92 
L 160.13442 75.0528 
L 160.146532 75.0528 
L 160.146532 73.4304 
L 160.291267 73.4304 
L 160.291267 71.808 
L 160.518179 71.808 
L 160.518179 70.1856 
L 160.898144 70.1856 
L 160.898144 68.5632 
L 161.213472 68.5632 
L 161.213472 66.9408 
L 161.372957 66.9408 
L 161.372957 65.3184 
L 161.602209 65.3184 
L 161.602209 63.696 
L 161.8287 63.696 
L 161.935428 60.4512 
L 162.316866 60.4512 
L 162.316866 58.8288 
L 162.680145 58.8288 
L 162.680145 57.2064 
L 163.084935 57.2064 
L 163.084935 55.584 
L 163.277277 55.584 
L 163.38631 49.0944 
L 163.514971 49.0944 
L 163.589059 45.8496 
L 163.676243 45.8496 
L 163.676243 44.2272 
L 164.089846 44.2272 
L 164.187772 40.9824 
L 164.398212 40.9824 
L 164.465701 37.7376 
L 164.647672 37.7376 
L 164.717439 34.4928 
L 164.764859 34.4928 
L 164.764859 32.8704 
L 165.006418 32.8704 
L 165.053116 29.6256 
L 165.793908 29.6256 
L 165.793908 28.0032 
L 166.23412 28.0032 
L 166.23412 26.3808 
L 166.826251 26.3808 
L 166.91095 23.136 
L 166.978435 23.136 
L 167.056864 19.8912 
L 167.10711 19.8912 
L 167.10711 18.2688 
L 167.295726 18.2688 
L 167.295726 16.6464 
L 167.575151 16.6464 
L 167.575151 15.024 
L 167.866558 15.024 
L 167.866558 13.4016 
L 168.635126 13.4016 
L 168.68646 10.1568 
L 169.142275 10.1568 
L 169.142275 8.5344 
L 170.261661 8.5344 
L 170.261661 6.912 
L 360.8064 6.912 
L 360.8064 6.912 
" style="fill: none; stroke: #000080; stroke-width: 1.5; stroke-linecap: square"/>
   </g>
   <g id="line2d_36">
    <defs>
     <path id="meeab93ac97" d="M 0 6 
C 1.591219 6 3.117479 5.367802 4.242641 4.242641 
C 5.367802 3.117479 6 1.591219 6 0 
C 6 -1.591219 5.367802 -3.117479 4.242641 -4.242641 
C 3.117479 -5.367802 1.591219 -6 0 -6 
C -1.591219 -6 -3.117479 -5.367802 -4.242641 -4.242641 
C -5.367802 -3.117479 -6 -1.591219 -6 0 
C -6 1.591219 -5.367802 3.117479 -4.242641 4.242641 
C -3.117479 5.367802 -1.591219 6 0 6 
z
" style="stroke: #000080; stroke-width: 1.5"/>
    </defs>
    <g>
     <use xlink:href="#meeab93ac97" x="103.707211" y="282.72" style="fill-opacity: 0; stroke: #000080; stroke-width: 1.5"/>
     <use xlink:href="#meeab93ac97" x="156.725657" y="97.7664" style="fill-opacity: 0; stroke: #000080; stroke-width: 1.5"/>
     <use xlink:href="#meeab93ac97" x="170.261661" y="8.5344" style="fill-opacity: 0; stroke: #000080; stroke-width: 1.5"/>
     <use xlink:href="#meeab93ac97" x="170.261661" y="6.912" style="fill-opacity: 0; stroke: #000080; stroke-width: 1.5"/>
     <use xlink:href="#meeab93ac97" x="170.261661" y="6.912" style="fill-opacity: 0; stroke: #000080; stroke-width: 1.5"/>
     <use xlink:href="#meeab93ac97" x="360.8064" y="6.912" style="fill-opacity: 0; stroke: #000080; stroke-width: 1.5"/>
    </g>
   </g>
   <g id="line2d_37">
    <path style="fill: none; stroke: #000080; stroke-width: 1.5; stroke-linecap: square"/>
    <g/>
   </g>
   <g id="line2d_38">
    <defs>
     <path id="m037ac9e0fc" d="M 0 1.5 
C 0.397805 1.5 0.77937 1.341951 1.06066 1.06066 
C 1.341951 0.77937 1.5 0.397805 1.5 0 
C 1.5 -0.397805 1.341951 -0.77937 1.06066 -1.06066 
C 0.77937 -1.341951 0.397805 -1.5 0 -1.5 
C -0.397805 -1.5 -0.77937 -1.341951 -1.06066 -1.06066 
C -1.341951 -0.77937 -1.5 -0.397805 -1.5 0 
C -1.5 0.397805 -1.341951 0.77937 -1.06066 1.06066 
C -0.77937 1.341951 -0.397805 1.5 0 1.5 
z
" style="stroke: #ff00ff"/>
    </defs>
    <g>
     <use xlink:href="#m037ac9e0fc" x="176.196469" y="6.912" style="fill: #ff00ff; stroke: #ff00ff"/>
     <use xlink:href="#m037ac9e0fc" x="176.196469" y="6.912" style="fill: #ff00ff; stroke: #ff00ff"/>
    </g>
   </g>
   <g id="line2d_39">
    <path d="M 1.245626 298.944 
L 1.245626 292.4544 
L 46.353758 292.4544 
L 46.353758 290.832 
L 99.346662 290.832 
L 99.346662 289.2096 
L 102.793446 289.2096 
L 102.793446 287.5872 
L 105.411479 287.5872 
L 105.411479 285.9648 
L 108.162584 285.9648 
L 108.162584 284.3424 
L 108.667622 284.3424 
L 108.667622 282.72 
L 108.915146 282.72 
L 108.976522 279.4752 
L 110.897141 279.4752 
L 110.897141 277.8528 
L 112.180244 277.8528 
L 112.180244 276.2304 
L 115.661605 276.2304 
L 115.661605 274.608 
L 116.460428 274.608 
L 116.460428 272.9856 
L 117.384126 272.9856 
L 117.384126 271.3632 
L 117.579066 271.3632 
L 117.579066 269.7408 
L 117.772007 269.7408 
L 117.772007 268.1184 
L 119.424815 268.1184 
L 119.459944 264.8736 
L 120.976468 264.8736 
L 120.976468 263.2512 
L 121.737916 263.2512 
L 121.737916 261.6288 
L 123.573201 261.6288 
L 123.573201 260.0064 
L 124.400822 260.0064 
L 124.400822 258.384 
L 125.678882 258.384 
L 125.678882 256.7616 
L 125.854575 256.7616 
L 125.854575 255.1392 
L 126.176572 255.1392 
L 126.176572 253.5168 
L 126.828223 253.5168 
L 126.828223 251.8944 
L 128.679293 251.8944 
L 128.679293 250.272 
L 129.0834 250.272 
L 129.188317 247.0272 
L 129.437756 247.0272 
L 129.437756 245.4048 
L 129.96712 245.4048 
L 129.96712 243.7824 
L 130.46245 243.7824 
L 130.46245 242.16 
L 131.452761 242.16 
L 131.452761 240.5376 
L 132.287354 240.5376 
L 132.322814 237.2928 
L 132.499119 237.2928 
L 132.499119 235.6704 
L 132.725872 235.6704 
L 132.725872 234.048 
L 133.035392 234.048 
L 133.035392 232.4256 
L 133.238946 232.4256 
L 133.238946 230.8032 
L 134.015642 230.8032 
L 134.096413 227.5584 
L 134.192883 227.5584 
L 134.192883 224.3136 
L 135.643015 224.3136 
L 135.643015 222.6912 
L 135.820345 222.6912 
L 135.820345 221.0688 
L 135.937642 221.0688 
L 136.025138 217.824 
L 136.097741 217.824 
L 136.141169 214.5792 
L 136.766857 214.5792 
L 136.766857 212.9568 
L 136.92008 212.9568 
L 136.961653 209.712 
L 137.263743 209.712 
L 137.372402 206.4672 
L 137.426497 206.4672 
L 137.426497 204.8448 
L 137.694663 204.8448 
L 137.800869 201.6 
L 139.264798 201.6 
L 139.264798 199.9776 
L 139.77227 199.9776 
L 139.77227 198.3552 
L 140.067962 198.3552 
L 140.126547 195.1104 
L 140.393711 195.1104 
L 140.485756 191.8656 
L 140.860749 191.8656 
L 140.871997 188.6208 
L 141.039908 188.6208 
L 141.039908 186.9984 
L 141.513111 186.9984 
L 141.513111 185.376 
L 142.733292 185.376 
L 142.733292 183.7536 
L 143.096422 183.7536 
L 143.096422 182.1312 
L 143.462475 182.1312 
L 143.462475 180.5088 
L 143.946089 180.5088 
L 143.946089 178.8864 
L 144.192739 178.8864 
L 144.192739 177.264 
L 144.324223 177.264 
L 144.408266 174.0192 
L 144.510478 174.0192 
L 144.510478 172.3968 
L 144.832051 172.3968 
L 144.832051 170.7744 
L 145.031404 170.7744 
L 145.031404 169.152 
L 145.35313 169.152 
L 145.35313 165.9072 
L 145.564597 165.9072 
L 145.652011 161.04 
L 146.01478 161.04 
L 146.01478 159.4176 
L 146.579379 159.4176 
L 146.579379 157.7952 
L 147.375841 157.7952 
L 147.375841 156.1728 
L 147.652312 156.1728 
L 147.652312 154.5504 
L 147.855092 154.5504 
L 147.855092 152.928 
L 148.563035 152.928 
L 148.645035 148.0608 
L 148.896253 148.0608 
L 148.918259 144.816 
L 149.46733 144.816 
L 149.46733 143.1936 
L 150.166205 143.1936 
L 150.268832 139.9488 
L 150.336941 139.9488 
L 150.336941 138.3264 
L 150.747146 138.3264 
L 150.747146 136.704 
L 151.174625 136.704 
L 151.220087 133.4592 
L 151.60532 133.4592 
L 151.700408 130.2144 
L 152.426047 130.2144 
L 152.468586 126.9696 
L 152.583568 126.9696 
L 152.595631 123.7248 
L 152.721823 123.7248 
L 152.787587 120.48 
L 153.438652 120.48 
L 153.438652 118.8576 
L 154.486967 118.8576 
L 154.486967 117.2352 
L 154.816671 117.2352 
L 154.816671 115.6128 
L 156.398491 115.6128 
L 156.398491 113.9904 
L 157.316545 113.9904 
L 157.316545 112.368 
L 157.86667 112.368 
L 157.975696 109.1232 
L 158.061563 109.1232 
L 158.061563 107.5008 
L 158.682463 107.5008 
L 158.682463 105.8784 
L 159.062507 105.8784 
L 159.062507 104.256 
L 159.401463 104.256 
L 159.401463 102.6336 
L 160.045361 102.6336 
L 160.130381 99.3888 
L 160.474602 99.3888 
L 160.573496 94.5216 
L 161.006413 94.5216 
L 161.048777 91.2768 
L 162.255632 91.2768 
L 162.320462 88.032 
L 162.570477 88.032 
L 162.602382 84.7872 
L 162.887118 84.7872 
L 162.887118 83.1648 
L 163.531835 83.1648 
L 163.531835 81.5424 
L 163.928796 81.5424 
L 163.928796 79.92 
L 164.102932 79.92 
L 164.102932 78.2976 
L 164.526554 78.2976 
L 164.526554 76.6752 
L 164.736421 76.6752 
L 164.736421 75.0528 
L 164.950227 75.0528 
L 164.972099 71.808 
L 165.254146 71.808 
L 165.263372 68.5632 
L 165.55626 68.5632 
L 165.55626 66.9408 
L 165.691997 66.9408 
L 165.749015 63.696 
L 165.835711 63.696 
L 165.835711 62.0736 
L 166.019732 62.0736 
L 166.019732 60.4512 
L 166.755376 60.4512 
L 166.755376 58.8288 
L 166.944723 58.8288 
L 167.048476 55.584 
L 167.312278 55.584 
L 167.312278 53.9616 
L 167.615896 53.9616 
L 167.615896 52.3392 
L 167.866558 52.3392 
L 167.968026 49.0944 
L 168.161429 49.0944 
L 168.161429 47.472 
L 168.467314 47.472 
L 168.521694 44.2272 
L 168.701834 44.2272 
L 168.729985 40.9824 
L 169.410555 40.9824 
L 169.516314 37.7376 
L 170.216818 37.7376 
L 170.296988 32.8704 
L 170.425955 32.8704 
L 170.425955 31.248 
L 170.542436 31.248 
L 170.598091 28.0032 
L 170.773255 28.0032 
L 170.832807 24.7584 
L 171.73036 24.7584 
L 171.77174 21.5136 
L 172.011684 21.5136 
L 172.011684 19.8912 
L 172.52234 19.8912 
L 172.52234 18.2688 
L 172.827147 18.2688 
L 172.827147 16.6464 
L 172.970575 16.6464 
L 172.970575 15.024 
L 174.334457 15.024 
L 174.395109 11.7792 
L 174.476303 11.7792 
L 174.476303 10.1568 
L 175.093495 10.1568 
L 175.093495 8.5344 
L 176.196469 8.5344 
L 176.196469 6.912 
L 360.8064 6.912 
L 360.8064 6.912 
" style="fill: none; stroke: #ff00ff; stroke-width: 1.5; stroke-linecap: square"/>
   </g>
   <g id="line2d_40">
    <defs>
     <path id="m9fedddb3aa" d="M -0 8.485281 
L 5.091169 0 
L 0 -8.485281 
L -5.091169 -0 
z
" style="stroke: #ff00ff; stroke-width: 1.5; stroke-linejoin: miter"/>
    </defs>
    <g>
     <use xlink:href="#m9fedddb3aa" x="99.346662" y="289.2096" style="fill-opacity: 0; stroke: #ff00ff; stroke-width: 1.5; stroke-linejoin: miter"/>
     <use xlink:href="#m9fedddb3aa" x="145.35313" y="165.9072" style="fill-opacity: 0; stroke: #ff00ff; stroke-width: 1.5; stroke-linejoin: miter"/>
     <use xlink:href="#m9fedddb3aa" x="170.425955" y="31.248" style="fill-opacity: 0; stroke: #ff00ff; stroke-width: 1.5; stroke-linejoin: miter"/>
     <use xlink:href="#m9fedddb3aa" x="176.196469" y="8.5344" style="fill-opacity: 0; stroke: #ff00ff; stroke-width: 1.5; stroke-linejoin: miter"/>
     <use xlink:href="#m9fedddb3aa" x="176.196469" y="6.912" style="fill-opacity: 0; stroke: #ff00ff; stroke-width: 1.5; stroke-linejoin: miter"/>
     <use xlink:href="#m9fedddb3aa" x="360.8064" y="6.912" style="fill-opacity: 0; stroke: #ff00ff; stroke-width: 1.5; stroke-linejoin: miter"/>
    </g>
   </g>
   <g id="line2d_41">
    <path style="fill: none; stroke: #ff00ff; stroke-width: 1.5; stroke-linecap: square"/>
    <g/>
   </g>
   <g id="line2d_42">
    <defs>
     <path id="mc988c42e40" d="M 0 1.5 
C 0.397805 1.5 0.77937 1.341951 1.06066 1.06066 
C 1.341951 0.77937 1.5 0.397805 1.5 0 
C 1.5 -0.397805 1.341951 -0.77937 1.06066 -1.06066 
C 0.77937 -1.341951 0.397805 -1.5 0 -1.5 
C -0.397805 -1.5 -0.77937 -1.341951 -1.06066 -1.06066 
C -1.341951 -0.77937 -1.5 -0.397805 -1.5 0 
C -1.5 0.397805 -1.341951 0.77937 -1.06066 1.06066 
C -0.77937 1.341951 -0.397805 1.5 0 1.5 
z
" style="stroke: #ff7500"/>
    </defs>
    <g>
     <use xlink:href="#mc988c42e40" x="174.309761" y="6.912" style="fill: #ff7500; stroke: #ff7500"/>
     <use xlink:href="#mc988c42e40" x="174.309761" y="6.912" style="fill: #ff7500; stroke: #ff7500"/>
    </g>
   </g>
   <g id="line2d_43">
    <path d="M 1.245626 298.944 
L 1.245626 292.4544 
L 61.029752 292.4544 
L 61.029752 290.832 
L 116.29505 290.832 
L 116.29505 289.2096 
L 117.344894 289.2096 
L 117.344894 287.5872 
L 118.339232 287.5872 
L 118.339232 285.9648 
L 119.28364 285.9648 
L 119.28364 284.3424 
L 122.259215 284.3424 
L 122.259215 281.0976 
L 126.78072 281.0976 
L 126.78072 279.4752 
L 127.087372 279.4752 
L 127.087372 277.8528 
L 127.389106 277.8528 
L 127.389106 274.608 
L 130.4233 274.608 
L 130.4233 272.9856 
L 132.126951 272.9856 
L 132.126951 271.3632 
L 133.035392 271.3632 
L 133.035392 269.7408 
L 133.25581 269.7408 
L 133.25581 266.496 
L 135.328609 266.496 
L 135.328609 264.8736 
L 138.063788 264.8736 
L 138.063788 263.2512 
L 138.400179 263.2512 
L 138.400179 261.6288 
L 139.055437 261.6288 
L 139.055437 260.0064 
L 139.215746 260.0064 
L 139.215746 258.384 
L 139.843661 258.384 
L 139.843661 256.7616 
L 140.301214 256.7616 
L 140.301214 255.1392 
L 141.039908 255.1392 
L 141.039908 253.5168 
L 141.469591 253.5168 
L 141.469591 251.8944 
L 141.889677 251.8944 
L 141.889677 250.272 
L 142.435586 250.272 
L 142.435586 248.6496 
L 143.859951 248.6496 
L 143.859951 247.0272 
L 144.593695 247.0272 
L 144.593695 243.7824 
L 144.950106 243.7824 
L 144.950106 242.16 
L 145.184016 242.16 
L 145.184016 240.5376 
L 146.420983 240.5376 
L 146.420983 238.9152 
L 146.637401 238.9152 
L 146.637401 235.6704 
L 147.375841 235.6704 
L 147.375841 234.048 
L 147.886095 234.048 
L 147.886095 232.4256 
L 148.480675 232.4256 
L 148.480675 230.8032 
L 149.245299 230.8032 
L 149.245299 229.1808 
L 149.431695 229.1808 
L 149.431695 227.5584 
L 150.069911 227.5584 
L 150.159343 222.6912 
L 150.336941 222.6912 
L 150.425115 219.4464 
L 150.687184 219.4464 
L 150.773735 216.2016 
L 151.116012 216.2016 
L 151.116012 212.9568 
L 151.284843 212.9568 
L 151.284843 211.3344 
L 151.452172 211.3344 
L 151.452172 209.712 
L 151.951652 209.712 
L 152.026375 206.4672 
L 152.504972 206.4672 
L 152.504972 204.8448 
L 152.661837 204.8448 
L 152.661837 203.2224 
L 152.894708 203.2224 
L 152.894708 201.6 
L 153.427118 201.6 
L 153.427118 199.9776 
L 153.798392 199.9776 
L 153.871775 196.7328 
L 154.16248 196.7328 
L 154.206807 193.488 
L 154.870174 193.488 
L 154.870174 191.8656 
L 155.077392 191.8656 
L 155.145961 186.9984 
L 155.282353 186.9984 
L 155.282353 185.376 
L 155.624203 185.376 
L 155.695924 182.1312 
L 155.818243 182.1312 
L 155.884169 178.8864 
L 156.531019 178.8864 
L 156.531019 177.264 
L 156.846291 177.264 
L 156.846291 175.6416 
L 157.032948 175.6416 
L 157.032948 174.0192 
L 157.156365 174.0192 
L 157.156365 172.3968 
L 157.521831 172.3968 
L 157.619025 167.5296 
L 157.642093 167.5296 
L 157.642093 165.9072 
L 157.86667 165.9072 
L 157.86667 164.2848 
L 157.998331 164.2848 
L 157.998331 161.04 
L 158.290128 161.04 
L 158.290128 159.4176 
L 158.860484 159.4176 
L 158.860484 157.7952 
L 159.160584 157.7952 
L 159.194578 154.5504 
L 159.304637 154.5504 
L 159.304637 152.928 
L 159.845475 152.928 
L 159.845475 151.3056 
L 160.110173 151.3056 
L 160.110173 149.6832 
L 160.319282 149.6832 
L 160.319282 148.0608 
L 160.636516 148.0608 
L 160.636516 146.4384 
L 160.832105 146.4384 
L 160.933013 141.5712 
L 161.13322 141.5712 
L 161.13322 139.9488 
L 161.380518 139.9488 
L 161.455961 136.704 
L 161.624608 136.704 
L 161.624608 133.4592 
L 161.747329 133.4592 
L 161.765853 130.2144 
L 162.103487 130.2144 
L 162.103487 128.592 
L 162.485131 128.592 
L 162.485131 126.9696 
L 162.6625 126.9696 
L 162.754075 120.48 
L 163.198517 120.48 
L 163.198517 118.8576 
L 163.471055 118.8576 
L 163.471055 117.2352 
L 163.65616 117.2352 
L 163.726358 113.9904 
L 163.951887 113.9904 
L 164.034127 110.7456 
L 164.102932 110.7456 
L 164.119277 104.256 
L 164.317552 104.256 
L 164.414303 97.7664 
L 164.497753 97.7664 
L 164.497753 96.144 
L 164.868764 96.144 
L 164.868764 94.5216 
L 165.112101 94.5216 
L 165.152353 91.2768 
L 165.238758 91.2768 
L 165.284883 88.032 
L 165.784938 88.032 
L 165.847638 83.1648 
L 166.1287 83.1648 
L 166.1287 81.5424 
L 166.245797 81.5424 
L 166.283697 76.6752 
L 166.359269 76.6752 
L 166.466293 71.808 
L 166.58418 71.808 
L 166.58418 70.1856 
L 166.843221 70.1856 
L 166.953157 66.9408 
L 167.279159 66.9408 
L 167.279159 65.3184 
L 167.634879 65.3184 
L 167.740297 58.8288 
L 168.05305 58.8288 
L 168.100708 55.584 
L 168.258701 55.584 
L 168.292758 50.7168 
L 168.849796 50.7168 
L 168.862497 47.472 
L 168.961272 47.472 
L 169.011726 40.9824 
L 169.222165 40.9824 
L 169.222165 39.36 
L 169.575085 39.36 
L 169.575085 37.7376 
L 169.983811 37.7376 
L 170.093541 34.4928 
L 170.256946 34.4928 
L 170.256946 32.8704 
L 170.474965 32.8704 
L 170.533144 26.3808 
L 170.759486 26.3808 
L 170.775549 23.136 
L 171.130023 23.136 
L 171.224328 19.8912 
L 171.371573 19.8912 
L 171.371573 18.2688 
L 171.506646 18.2688 
L 171.563924 15.024 
L 171.988042 15.024 
L 171.998792 11.7792 
L 172.974657 11.7792 
L 172.974657 10.1568 
L 173.092649 10.1568 
L 173.092649 8.5344 
L 174.309761 8.5344 
L 174.309761 6.912 
L 360.8064 6.912 
L 360.8064 6.912 
" style="fill: none; stroke: #ff7500; stroke-width: 1.5; stroke-linecap: square"/>
   </g>
   <g id="line2d_44">
    <defs>
     <path id="m1012a310ae" d="M 0 -6 
L -1.347084 -1.854102 
L -5.706339 -1.854102 
L -2.179628 0.708204 
L -3.526712 4.854102 
L -0 2.291796 
L 3.526712 4.854102 
L 2.179628 0.708204 
L 5.706339 -1.854102 
L 1.347084 -1.854102 
z
" style="stroke: #ff7500; stroke-width: 1.5; stroke-linejoin: bevel"/>
    </defs>
    <g>
     <use xlink:href="#m1012a310ae" x="61.029752" y="290.832" style="fill-opacity: 0; stroke: #ff7500; stroke-width: 1.5; stroke-linejoin: bevel"/>
     <use xlink:href="#m1012a310ae" x="161.380518" y="139.9488" style="fill-opacity: 0; stroke: #ff7500; stroke-width: 1.5; stroke-linejoin: bevel"/>
     <use xlink:href="#m1012a310ae" x="174.309761" y="8.5344" style="fill-opacity: 0; stroke: #ff7500; stroke-width: 1.5; stroke-linejoin: bevel"/>
     <use xlink:href="#m1012a310ae" x="174.309761" y="6.912" style="fill-opacity: 0; stroke: #ff7500; stroke-width: 1.5; stroke-linejoin: bevel"/>
     <use xlink:href="#m1012a310ae" x="174.309761" y="6.912" style="fill-opacity: 0; stroke: #ff7500; stroke-width: 1.5; stroke-linejoin: bevel"/>
     <use xlink:href="#m1012a310ae" x="360.8064" y="6.912" style="fill-opacity: 0; stroke: #ff7500; stroke-width: 1.5; stroke-linejoin: bevel"/>
    </g>
   </g>
   <g id="line2d_45">
    <path style="fill: none; stroke: #ff7500; stroke-width: 1.5; stroke-linecap: square"/>
    <g/>
   </g>
   <g id="line2d_46">
    <path d="M 360.8064 6.912 
L 380.514816 293.10336 
" style="fill: none; stroke: #ff00ff; stroke-width: 1.5; stroke-linecap: square"/>
    <g>
     <use xlink:href="#m9fedddb3aa" x="360.8064" y="6.912" style="fill-opacity: 0; stroke: #ff00ff; stroke-width: 1.5; stroke-linejoin: miter"/>
     <use xlink:href="#m9fedddb3aa" x="380.514816" y="293.10336" style="fill-opacity: 0; stroke: #ff00ff; stroke-width: 1.5; stroke-linejoin: miter"/>
    </g>
   </g>
   <g id="line2d_47">
    <path d="M 360.8064 6.912 
L 380.514816 199.65312 
" style="fill: none; stroke: #ff7500; stroke-width: 1.5; stroke-linecap: square"/>
    <g>
     <use xlink:href="#m1012a310ae" x="360.8064" y="6.912" style="fill-opacity: 0; stroke: #ff7500; stroke-width: 1.5; stroke-linejoin: bevel"/>
     <use xlink:href="#m1012a310ae" x="380.514816" y="199.65312" style="fill-opacity: 0; stroke: #ff7500; stroke-width: 1.5; stroke-linejoin: bevel"/>
    </g>
   </g>
   <g id="line2d_48">
    <path d="M 360.8064 6.912 
L 380.514816 106.20288 
" style="fill: none; stroke: #000080; stroke-width: 1.5; stroke-linecap: square"/>
    <g>
     <use xlink:href="#meeab93ac97" x="360.8064" y="6.912" style="fill-opacity: 0; stroke: #000080; stroke-width: 1.5"/>
     <use xlink:href="#meeab93ac97" x="380.514816" y="106.20288" style="fill-opacity: 0; stroke: #000080; stroke-width: 1.5"/>
    </g>
   </g>
   <g id="line2d_49">
    <path d="M 360.8064 298.944 
L 360.8064 6.912 
" style="fill: none; stroke: #000000; stroke-width: 1.5; stroke-linecap: square"/>
   </g>
   <g id="patch_3">
    <path d="M 57.6 298.944 
L 360.8064 298.944 
" style="fill: none; stroke: #000000; stroke-width: 0.8; stroke-linejoin: miter; stroke-linecap: square"/>
   </g>
   <g id="patch_4">
    <path d="M 57.6 6.912 
L 360.8064 6.912 
" style="fill: none; stroke: #000000; stroke-width: 0.8; stroke-linejoin: miter; stroke-linecap: square"/>
   </g>
   <g id="text_13">
    <!-- AllLQ-SK -->
    <g transform="translate(386.578944 296.966485) scale(0.14 -0.14)">
     <defs>
      <path id="DejaVuSans-41" d="M 2188 4044 
L 1331 1722 
L 3047 1722 
L 2188 4044 
z
M 1831 4666 
L 2547 4666 
L 4325 0 
L 3669 0 
L 3244 1197 
L 1141 1197 
L 716 0 
L 50 0 
L 1831 4666 
z
" transform="scale(0.015625)"/>
      <path id="DejaVuSans-4c" d="M 628 4666 
L 1259 4666 
L 1259 531 
L 3531 531 
L 3531 0 
L 628 0 
L 628 4666 
z
" transform="scale(0.015625)"/>
      <path id="DejaVuSans-51" d="M 2522 4238 
Q 1834 4238 1429 3725 
Q 1025 3213 1025 2328 
Q 1025 1447 1429 934 
Q 1834 422 2522 422 
Q 3209 422 3611 934 
Q 4013 1447 4013 2328 
Q 4013 3213 3611 3725 
Q 3209 4238 2522 4238 
z
M 3406 84 
L 4238 -825 
L 3475 -825 
L 2784 -78 
Q 2681 -84 2626 -87 
Q 2572 -91 2522 -91 
Q 1538 -91 948 567 
Q 359 1225 359 2328 
Q 359 3434 948 4092 
Q 1538 4750 2522 4750 
Q 3503 4750 4090 4092 
Q 4678 3434 4678 2328 
Q 4678 1516 4351 937 
Q 4025 359 3406 84 
z
" transform="scale(0.015625)"/>
      <path id="DejaVuSans-53" d="M 3425 4513 
L 3425 3897 
Q 3066 4069 2747 4153 
Q 2428 4238 2131 4238 
Q 1616 4238 1336 4038 
Q 1056 3838 1056 3469 
Q 1056 3159 1242 3001 
Q 1428 2844 1947 2747 
L 2328 2669 
Q 3034 2534 3370 2195 
Q 3706 1856 3706 1288 
Q 3706 609 3251 259 
Q 2797 -91 1919 -91 
Q 1588 -91 1214 -16 
Q 841 59 441 206 
L 441 856 
Q 825 641 1194 531 
Q 1563 422 1919 422 
Q 2459 422 2753 634 
Q 3047 847 3047 1241 
Q 3047 1584 2836 1778 
Q 2625 1972 2144 2069 
L 1759 2144 
Q 1053 2284 737 2584 
Q 422 2884 422 3419 
Q 422 4038 858 4394 
Q 1294 4750 2059 4750 
Q 2388 4750 2728 4690 
Q 3069 4631 3425 4513 
z
" transform="scale(0.015625)"/>
      <path id="DejaVuSans-4b" d="M 628 4666 
L 1259 4666 
L 1259 2694 
L 3353 4666 
L 4166 4666 
L 1850 2491 
L 4331 0 
L 3500 0 
L 1259 2247 
L 1259 0 
L 628 0 
L 628 4666 
z
" transform="scale(0.015625)"/>
     </defs>
     <use xlink:href="#DejaVuSans-41"/>
     <use xlink:href="#DejaVuSans-6c" x="68.408203"/>
     <use xlink:href="#DejaVuSans-6c" x="96.191406"/>
     <use xlink:href="#DejaVuSans-4c" x="123.974609"/>
     <use xlink:href="#DejaVuSans-51" x="179.6875"/>
     <use xlink:href="#DejaVuSans-2d" x="261.148438"/>
     <use xlink:href="#DejaVuSans-53" x="297.232422"/>
     <use xlink:href="#DejaVuSans-4b" x="360.708984"/>
    </g>
   </g>
   <g id="text_14">
    <!-- COMO-10 d -->
    <g transform="translate(386.578944 203.516245) scale(0.14 -0.14)">
     <defs>
      <path id="DejaVuSans-43" d="M 4122 4306 
L 4122 3641 
Q 3803 3938 3442 4084 
Q 3081 4231 2675 4231 
Q 1875 4231 1450 3742 
Q 1025 3253 1025 2328 
Q 1025 1406 1450 917 
Q 1875 428 2675 428 
Q 3081 428 3442 575 
Q 3803 722 4122 1019 
L 4122 359 
Q 3791 134 3420 21 
Q 3050 -91 2638 -91 
Q 1578 -91 968 557 
Q 359 1206 359 2328 
Q 359 3453 968 4101 
Q 1578 4750 2638 4750 
Q 3056 4750 3426 4639 
Q 3797 4528 4122 4306 
z
" transform="scale(0.015625)"/>
      <path id="DejaVuSans-4f" d="M 2522 4238 
Q 1834 4238 1429 3725 
Q 1025 3213 1025 2328 
Q 1025 1447 1429 934 
Q 1834 422 2522 422 
Q 3209 422 3611 934 
Q 4013 1447 4013 2328 
Q 4013 3213 3611 3725 
Q 3209 4238 2522 4238 
z
M 2522 4750 
Q 3503 4750 4090 4092 
Q 4678 3434 4678 2328 
Q 4678 1225 4090 567 
Q 3503 -91 2522 -91 
Q 1538 -91 948 565 
Q 359 1222 359 2328 
Q 359 3434 948 4092 
Q 1538 4750 2522 4750 
z
" transform="scale(0.015625)"/>
      <path id="DejaVuSans-4d" d="M 628 4666 
L 1569 4666 
L 2759 1491 
L 3956 4666 
L 4897 4666 
L 4897 0 
L 4281 0 
L 4281 4097 
L 3078 897 
L 2444 897 
L 1241 4097 
L 1241 0 
L 628 0 
L 628 4666 
z
" transform="scale(0.015625)"/>
     </defs>
     <use xlink:href="#DejaVuSans-43"/>
     <use xlink:href="#DejaVuSans-4f" x="69.824219"/>
     <use xlink:href="#DejaVuSans-4d" x="148.535156"/>
     <use xlink:href="#DejaVuSans-4f" x="234.814453"/>
     <use xlink:href="#DejaVuSans-2d" x="316.275391"/>
     <use xlink:href="#DejaVuSans-31" x="352.359375"/>
     <use xlink:href="#DejaVuSans-30" x="415.982422"/>
     <use xlink:href="#DejaVuSans-20" x="479.605469"/>
     <use xlink:href="#DejaVuSans-64" x="511.392578"/>
    </g>
   </g>
   <g id="text_15">
    <!-- AllLQ -->
    <g transform="translate(386.578944 110.066005) scale(0.14 -0.14)">
     <use xlink:href="#DejaVuSans-41"/>
     <use xlink:href="#DejaVuSans-6c" x="68.408203"/>
     <use xlink:href="#DejaVuSans-6c" x="96.191406"/>
     <use xlink:href="#DejaVuSans-4c" x="123.974609"/>
     <use xlink:href="#DejaVuSans-51" x="179.6875"/>
    </g>
   </g>
   <g id="text_16">
    <!-- best 2016 -->
    <g transform="translate(386.578944 16.615765) scale(0.14 -0.14)">
     <defs>
      <path id="DejaVuSans-62" d="M 3116 1747 
Q 3116 2381 2855 2742 
Q 2594 3103 2138 3103 
Q 1681 3103 1420 2742 
Q 1159 2381 1159 1747 
Q 1159 1113 1420 752 
Q 1681 391 2138 391 
Q 2594 391 2855 752 
Q 3116 1113 3116 1747 
z
M 1159 2969 
Q 1341 3281 1617 3432 
Q 1894 3584 2278 3584 
Q 2916 3584 3314 3078 
Q 3713 2572 3713 1747 
Q 3713 922 3314 415 
Q 2916 -91 2278 -91 
Q 1894 -91 1617 61 
Q 1341 213 1159 525 
L 1159 0 
L 581 0 
L 581 4863 
L 1159 4863 
L 1159 2969 
z
" transform="scale(0.015625)"/>
     </defs>
     <use xlink:href="#DejaVuSans-62"/>
     <use xlink:href="#DejaVuSans-65" x="63.476562"/>
     <use xlink:href="#DejaVuSans-73" x="125"/>
     <use xlink:href="#DejaVuSans-74" x="177.099609"/>
     <use xlink:href="#DejaVuSans-20" x="216.308594"/>
     <use xlink:href="#DejaVuSans-32" x="248.095703"/>
     <use xlink:href="#DejaVuSans-30" x="311.71875"/>
     <use xlink:href="#DejaVuSans-31" x="375.341797"/>
     <use xlink:href="#DejaVuSans-36" x="438.964844"/>
    </g>
   </g>
   <g id="text_17">
    <!-- bbob-biobj f35, f36, f41, 20-D -->
    <g transform="translate(60.632064 17.582726) scale(0.102 -0.102)">
     <defs>
      <path id="DejaVuSans-6a" d="M 603 3500 
L 1178 3500 
L 1178 -63 
Q 1178 -731 923 -1031 
Q 669 -1331 103 -1331 
L -116 -1331 
L -116 -844 
L 38 -844 
Q 366 -844 484 -692 
Q 603 -541 603 -63 
L 603 3500 
z
M 603 4863 
L 1178 4863 
L 1178 4134 
L 603 4134 
L 603 4863 
z
" transform="scale(0.015625)"/>
      <path id="DejaVuSans-33" d="M 2597 2516 
Q 3050 2419 3304 2112 
Q 3559 1806 3559 1356 
Q 3559 666 3084 287 
Q 2609 -91 1734 -91 
Q 1441 -91 1130 -33 
Q 819 25 488 141 
L 488 750 
Q 750 597 1062 519 
Q 1375 441 1716 441 
Q 2309 441 2620 675 
Q 2931 909 2931 1356 
Q 2931 1769 2642 2001 
Q 2353 2234 1838 2234 
L 1294 2234 
L 1294 2753 
L 1863 2753 
Q 2328 2753 2575 2939 
Q 2822 3125 2822 3475 
Q 2822 3834 2567 4026 
Q 2313 4219 1838 4219 
Q 1578 4219 1281 4162 
Q 984 4106 628 3988 
L 628 4550 
Q 988 4650 1302 4700 
Q 1616 4750 1894 4750 
Q 2613 4750 3031 4423 
Q 3450 4097 3450 3541 
Q 3450 3153 3228 2886 
Q 3006 2619 2597 2516 
z
" transform="scale(0.015625)"/>
      <path id="DejaVuSans-35" d="M 691 4666 
L 3169 4666 
L 3169 4134 
L 1269 4134 
L 1269 2991 
Q 1406 3038 1543 3061 
Q 1681 3084 1819 3084 
Q 2600 3084 3056 2656 
Q 3513 2228 3513 1497 
Q 3513 744 3044 326 
Q 2575 -91 1722 -91 
Q 1428 -91 1123 -41 
Q 819 9 494 109 
L 494 744 
Q 775 591 1075 516 
Q 1375 441 1709 441 
Q 2250 441 2565 725 
Q 2881 1009 2881 1497 
Q 2881 1984 2565 2268 
Q 2250 2553 1709 2553 
Q 1456 2553 1204 2497 
Q 953 2441 691 2322 
L 691 4666 
z
" transform="scale(0.015625)"/>
      <path id="DejaVuSans-44" d="M 1259 4147 
L 1259 519 
L 2022 519 
Q 2988 519 3436 956 
Q 3884 1394 3884 2338 
Q 3884 3275 3436 3711 
Q 2988 4147 2022 4147 
L 1259 4147 
z
M 628 4666 
L 1925 4666 
Q 3281 4666 3915 4102 
Q 4550 3538 4550 2338 
Q 4550 1131 3912 565 
Q 3275 0 1925 0 
L 628 0 
L 628 4666 
z
" transform="scale(0.015625)"/>
     </defs>
     <use xlink:href="#DejaVuSans-62"/>
     <use xlink:href="#DejaVuSans-62" x="63.476562"/>
     <use xlink:href="#DejaVuSans-6f" x="126.953125"/>
     <use xlink:href="#DejaVuSans-62" x="188.134766"/>
     <use xlink:href="#DejaVuSans-2d" x="251.611328"/>
     <use xlink:href="#DejaVuSans-62" x="287.695312"/>
     <use xlink:href="#DejaVuSans-69" x="351.171875"/>
     <use xlink:href="#DejaVuSans-6f" x="378.955078"/>
     <use xlink:href="#DejaVuSans-62" x="440.136719"/>
     <use xlink:href="#DejaVuSans-6a" x="503.613281"/>
     <use xlink:href="#DejaVuSans-20" x="531.396484"/>
     <use xlink:href="#DejaVuSans-66" x="563.183594"/>
     <use xlink:href="#DejaVuSans-33" x="598.388672"/>
     <use xlink:href="#DejaVuSans-35" x="662.011719"/>
     <use xlink:href="#DejaVuSans-2c" x="725.634766"/>
     <use xlink:href="#DejaVuSans-20" x="757.421875"/>
     <use xlink:href="#DejaVuSans-66" x="789.208984"/>
     <use xlink:href="#DejaVuSans-33" x="824.414062"/>
     <use xlink:href="#DejaVuSans-36" x="888.037109"/>
     <use xlink:href="#DejaVuSans-2c" x="951.660156"/>
     <use xlink:href="#DejaVuSans-20" x="983.447266"/>
     <use xlink:href="#DejaVuSans-66" x="1015.234375"/>
     <use xlink:href="#DejaVuSans-34" x="1050.439453"/>
     <use xlink:href="#DejaVuSans-31" x="1114.0625"/>
     <use xlink:href="#DejaVuSans-2c" x="1177.685547"/>
     <use xlink:href="#DejaVuSans-20" x="1209.472656"/>
     <use xlink:href="#DejaVuSans-32" x="1241.259766"/>
     <use xlink:href="#DejaVuSans-30" x="1304.882812"/>
     <use xlink:href="#DejaVuSans-2d" x="1368.505859"/>
     <use xlink:href="#DejaVuSans-44" x="1404.589844"/>
    </g>
    <!-- 31 targets RLs/dim: 0.5..50 -->
    <g transform="translate(60.632064 29.004495) scale(0.102 -0.102)">
     <defs>
      <path id="DejaVuSans-52" d="M 2841 2188 
Q 3044 2119 3236 1894 
Q 3428 1669 3622 1275 
L 4263 0 
L 3584 0 
L 2988 1197 
Q 2756 1666 2539 1819 
Q 2322 1972 1947 1972 
L 1259 1972 
L 1259 0 
L 628 0 
L 628 4666 
L 2053 4666 
Q 2853 4666 3247 4331 
Q 3641 3997 3641 3322 
Q 3641 2881 3436 2590 
Q 3231 2300 2841 2188 
z
M 1259 4147 
L 1259 2491 
L 2053 2491 
Q 2509 2491 2742 2702 
Q 2975 2913 2975 3322 
Q 2975 3731 2742 3939 
Q 2509 4147 2053 4147 
L 1259 4147 
z
" transform="scale(0.015625)"/>
      <path id="DejaVuSans-3a" d="M 750 794 
L 1409 794 
L 1409 0 
L 750 0 
L 750 794 
z
M 750 3309 
L 1409 3309 
L 1409 2516 
L 750 2516 
L 750 3309 
z
" transform="scale(0.015625)"/>
     </defs>
     <use xlink:href="#DejaVuSans-33"/>
     <use xlink:href="#DejaVuSans-31" x="63.623047"/>
     <use xlink:href="#DejaVuSans-20" x="127.246094"/>
     <use xlink:href="#DejaVuSans-74" x="159.033203"/>
     <use xlink:href="#DejaVuSans-61" x="198.242188"/>
     <use xlink:href="#DejaVuSans-72" x="259.521484"/>
     <use xlink:href="#DejaVuSans-67" x="298.884766"/>
     <use xlink:href="#DejaVuSans-65" x="362.361328"/>
     <use xlink:href="#DejaVuSans-74" x="423.884766"/>
     <use xlink:href="#DejaVuSans-73" x="463.09375"/>
     <use xlink:href="#DejaVuSans-20" x="515.193359"/>
     <use xlink:href="#DejaVuSans-52" x="546.980469"/>
     <use xlink:href="#DejaVuSans-4c" x="616.462891"/>
     <use xlink:href="#DejaVuSans-73" x="672.175781"/>
     <use xlink:href="#DejaVuSans-2f" x="724.275391"/>
     <use xlink:href="#DejaVuSans-64" x="757.966797"/>
     <use xlink:href="#DejaVuSans-69" x="821.443359"/>
     <use xlink:href="#DejaVuSans-6d" x="849.226562"/>
     <use xlink:href="#DejaVuSans-3a" x="946.638672"/>
     <use xlink:href="#DejaVuSans-20" x="980.330078"/>
     <use xlink:href="#DejaVuSans-30" x="1012.117188"/>
     <use xlink:href="#DejaVuSans-2e" x="1075.740234"/>
     <use xlink:href="#DejaVuSans-35" x="1107.527344"/>
     <use xlink:href="#DejaVuSans-2e" x="1171.150391"/>
     <use xlink:href="#DejaVuSans-2e" x="1202.9375"/>
     <use xlink:href="#DejaVuSans-35" x="1234.724609"/>
     <use xlink:href="#DejaVuSans-30" x="1298.347656"/>
    </g>
    <!--   from refalgs/best2016-bbob-biobj.tar.gz -->
    <g transform="translate(60.632064 40.426264) scale(0.102 -0.102)">
     <defs>
      <path id="DejaVuSans-7a" d="M 353 3500 
L 3084 3500 
L 3084 2975 
L 922 459 
L 3084 459 
L 3084 0 
L 275 0 
L 275 525 
L 2438 3041 
L 353 3041 
L 353 3500 
z
" transform="scale(0.015625)"/>
     </defs>
     <use xlink:href="#DejaVuSans-20"/>
     <use xlink:href="#DejaVuSans-20" x="31.787109"/>
     <use xlink:href="#DejaVuSans-66" x="63.574219"/>
     <use xlink:href="#DejaVuSans-72" x="98.779297"/>
     <use xlink:href="#DejaVuSans-6f" x="137.642578"/>
     <use xlink:href="#DejaVuSans-6d" x="198.824219"/>
     <use xlink:href="#DejaVuSans-20" x="296.236328"/>
     <use xlink:href="#DejaVuSans-72" x="328.023438"/>
     <use xlink:href="#DejaVuSans-65" x="366.886719"/>
     <use xlink:href="#DejaVuSans-66" x="428.410156"/>
     <use xlink:href="#DejaVuSans-61" x="463.615234"/>
     <use xlink:href="#DejaVuSans-6c" x="524.894531"/>
     <use xlink:href="#DejaVuSans-67" x="552.677734"/>
     <use xlink:href="#DejaVuSans-73" x="616.154297"/>
     <use xlink:href="#DejaVuSans-2f" x="668.253906"/>
     <use xlink:href="#DejaVuSans-62" x="701.945312"/>
     <use xlink:href="#DejaVuSans-65" x="765.421875"/>
     <use xlink:href="#DejaVuSans-73" x="826.945312"/>
     <use xlink:href="#DejaVuSans-74" x="879.044922"/>
     <use xlink:href="#DejaVuSans-32" x="918.253906"/>
     <use xlink:href="#DejaVuSans-30" x="981.876953"/>
     <use xlink:href="#DejaVuSans-31" x="1045.5"/>
     <use xlink:href="#DejaVuSans-36" x="1109.123047"/>
     <use xlink:href="#DejaVuSans-2d" x="1172.746094"/>
     <use xlink:href="#DejaVuSans-62" x="1208.830078"/>
     <use xlink:href="#DejaVuSans-62" x="1272.306641"/>
     <use xlink:href="#DejaVuSans-6f" x="1335.783203"/>
     <use xlink:href="#DejaVuSans-62" x="1396.964844"/>
     <use xlink:href="#DejaVuSans-2d" x="1460.441406"/>
     <use xlink:href="#DejaVuSans-62" x="1496.525391"/>
     <use xlink:href="#DejaVuSans-69" x="1560.001953"/>
     <use xlink:href="#DejaVuSans-6f" x="1587.785156"/>
     <use xlink:href="#DejaVuSans-62" x="1648.966797"/>
     <use xlink:href="#DejaVuSans-6a" x="1712.443359"/>
     <use xlink:href="#DejaVuSans-2e" x="1740.226562"/>
     <use xlink:href="#DejaVuSans-74" x="1772.013672"/>
     <use xlink:href="#DejaVuSans-61" x="1811.222656"/>
     <use xlink:href="#DejaVuSans-72" x="1872.501953"/>
     <use xlink:href="#DejaVuSans-2e" x="1904.490234"/>
     <use xlink:href="#DejaVuSans-67" x="1936.277344"/>
     <use xlink:href="#DejaVuSans-7a" x="1999.753906"/>
    </g>
    <!-- 10 instances -->
    <g transform="translate(60.632064 51.848032) scale(0.102 -0.102)">
     <use xlink:href="#DejaVuSans-31"/>
     <use xlink:href="#DejaVuSans-30" x="63.623047"/>
     <use xlink:href="#DejaVuSans-20" x="127.246094"/>
     <use xlink:href="#DejaVuSans-69" x="159.033203"/>
     <use xlink:href="#DejaVuSans-6e" x="186.816406"/>
     <use xlink:href="#DejaVuSans-73" x="250.195312"/>
     <use xlink:href="#DejaVuSans-74" x="302.294922"/>
     <use xlink:href="#DejaVuSans-61" x="341.503906"/>
     <use xlink:href="#DejaVuSans-6e" x="402.783203"/>
     <use xlink:href="#DejaVuSans-63" x="466.162109"/>
     <use xlink:href="#DejaVuSans-65" x="521.142578"/>
     <use xlink:href="#DejaVuSans-73" x="582.666016"/>
    </g>
   </g>
   <g id="text_18">
    <!-- v2.6, hv-hash=ff0e71e8cd978373 -->
    <g style="fill: #808080" transform="translate(123.707887 293.943992) scale(0.1 -0.1)">
     <defs>
      <path id="DejaVuSans-68" d="M 3513 2113 
L 3513 0 
L 2938 0 
L 2938 2094 
Q 2938 2591 2744 2837 
Q 2550 3084 2163 3084 
Q 1697 3084 1428 2787 
Q 1159 2491 1159 1978 
L 1159 0 
L 581 0 
L 581 4863 
L 1159 4863 
L 1159 2956 
Q 1366 3272 1645 3428 
Q 1925 3584 2291 3584 
Q 2894 3584 3203 3211 
Q 3513 2838 3513 2113 
z
" transform="scale(0.015625)"/>
      <path id="DejaVuSans-3d" d="M 678 2906 
L 4684 2906 
L 4684 2381 
L 678 2381 
L 678 2906 
z
M 678 1631 
L 4684 1631 
L 4684 1100 
L 678 1100 
L 678 1631 
z
" transform="scale(0.015625)"/>
      <path id="DejaVuSans-37" d="M 525 4666 
L 3525 4666 
L 3525 4397 
L 1831 0 
L 1172 0 
L 2766 4134 
L 525 4134 
L 525 4666 
z
" transform="scale(0.015625)"/>
      <path id="DejaVuSans-39" d="M 703 97 
L 703 672 
Q 941 559 1184 500 
Q 1428 441 1663 441 
Q 2288 441 2617 861 
Q 2947 1281 2994 2138 
Q 2813 1869 2534 1725 
Q 2256 1581 1919 1581 
Q 1219 1581 811 2004 
Q 403 2428 403 3163 
Q 403 3881 828 4315 
Q 1253 4750 1959 4750 
Q 2769 4750 3195 4129 
Q 3622 3509 3622 2328 
Q 3622 1225 3098 567 
Q 2575 -91 1691 -91 
Q 1453 -91 1209 -44 
Q 966 3 703 97 
z
M 1959 2075 
Q 2384 2075 2632 2365 
Q 2881 2656 2881 3163 
Q 2881 3666 2632 3958 
Q 2384 4250 1959 4250 
Q 1534 4250 1286 3958 
Q 1038 3666 1038 3163 
Q 1038 2656 1286 2365 
Q 1534 2075 1959 2075 
z
" transform="scale(0.015625)"/>
     </defs>
     <use xlink:href="#DejaVuSans-76"/>
     <use xlink:href="#DejaVuSans-32" x="59.179688"/>
     <use xlink:href="#DejaVuSans-2e" x="122.802734"/>
     <use xlink:href="#DejaVuSans-36" x="154.589844"/>
     <use xlink:href="#DejaVuSans-2c" x="218.212891"/>
     <use xlink:href="#DejaVuSans-20" x="250"/>
     <use xlink:href="#DejaVuSans-68" x="281.787109"/>
     <use xlink:href="#DejaVuSans-76" x="345.166016"/>
     <use xlink:href="#DejaVuSans-2d" x="401.720703"/>
     <use xlink:href="#DejaVuSans-68" x="437.804688"/>
     <use xlink:href="#DejaVuSans-61" x="501.183594"/>
     <use xlink:href="#DejaVuSans-73" x="562.462891"/>
     <use xlink:href="#DejaVuSans-68" x="614.5625"/>
     <use xlink:href="#DejaVuSans-3d" x="677.941406"/>
     <use xlink:href="#DejaVuSans-66" x="761.730469"/>
     <use xlink:href="#DejaVuSans-66" x="796.935547"/>
     <use xlink:href="#DejaVuSans-30" x="832.140625"/>
     <use xlink:href="#DejaVuSans-65" x="895.763672"/>
     <use xlink:href="#DejaVuSans-37" x="957.287109"/>
     <use xlink:href="#DejaVuSans-31" x="1020.910156"/>
     <use xlink:href="#DejaVuSans-65" x="1084.533203"/>
     <use xlink:href="#DejaVuSans-38" x="1146.056641"/>
     <use xlink:href="#DejaVuSans-63" x="1209.679688"/>
     <use xlink:href="#DejaVuSans-64" x="1264.660156"/>
     <use xlink:href="#DejaVuSans-39" x="1328.136719"/>
     <use xlink:href="#DejaVuSans-37" x="1391.759766"/>
     <use xlink:href="#DejaVuSans-38" x="1455.382812"/>
     <use xlink:href="#DejaVuSans-33" x="1519.005859"/>
     <use xlink:href="#DejaVuSans-37" x="1582.628906"/>
     <use xlink:href="#DejaVuSans-33" x="1646.251953"/>
    </g>
   </g>
  </g>
 </g>
 <defs>
  <clipPath id="pbc09926437">
   <rect x="57.6" y="6.912" width="303.2064" height="292.032"/>
  </clipPath>
 </defs>
</svg>
