<?xml version="1.0" encoding="utf-8" standalone="no"?>
<!DOCTYPE svg PUBLIC "-//W3C//DTD SVG 1.1//EN"
  "http://www.w3.org/Graphics/SVG/1.1/DTD/svg11.dtd">
<svg xmlns:xlink="http://www.w3.org/1999/xlink" width="460.8pt" height="345.6pt" viewBox="0 0 460.8 345.6" xmlns="http://www.w3.org/2000/svg" version="1.1">
 <metadata>
  <rdf:RDF xmlns:dc="http://purl.org/dc/elements/1.1/" xmlns:cc="http://creativecommons.org/ns#" xmlns:rdf="http://www.w3.org/1999/02/22-rdf-syntax-ns#">
   <cc:Work>
    <dc:type rdf:resource="http://purl.org/dc/dcmitype/StillImage"/>
    <dc:date>2023-02-21T13:48:14.888358</dc:date>
    <dc:format>image/svg+xml</dc:format>
    <dc:creator>
     <cc:Agent>
      <dc:title>Matplotlib v3.7.0, https://matplotlib.org/</dc:title>
     </cc:Agent>
    </dc:creator>
   </cc:Work>
  </rdf:RDF>
 </metadata>
 <defs>
  <style type="text/css">*{stroke-linejoin: round; stroke-linecap: butt}</style>
 </defs>
 <g id="figure_1">
  <g id="patch_1">
   <path d="M 0 345.6 
L 460.8 345.6 
L 460.8 0 
L 0 0 
z
" style="fill: #ffffff"/>
  </g>
  <g id="axes_1">
   <g id="patch_2">
    <path d="M 57.6 298.944 
L 360.8064 298.944 
L 360.8064 6.912 
L 57.6 6.912 
z
" style="fill: #ffffff"/>
   </g>
   <g id="line2d_1">
    <path d="M 49.972572 298.944 
L 49.972572 275.58144 
L 57.6 275.58144 
L 57.6 252.21888 
L 63.011746 252.21888 
L 63.011746 228.85632 
L 70.639174 228.85632 
L 70.639174 217.17504 
L 73.538988 217.17504 
L 73.538988 205.49376 
L 76.050921 205.49376 
L 76.050921 182.1312 
L 87.876026 182.1312 
L 87.876026 170.44992 
L 90.230539 170.44992 
L 90.230539 158.76864 
L 91.305777 158.76864 
L 91.305777 147.08736 
L 99.617337 147.08736 
L 99.617337 135.40608 
L 100.9152 135.40608 
L 100.9152 123.7248 
L 103.815014 123.7248 
L 103.815014 112.04352 
L 112.317555 112.04352 
L 112.317555 100.36224 
L 114.872193 100.36224 
L 114.872193 88.68096 
L 116.583514 88.68096 
L 116.583514 76.99968 
L 119.830627 76.99968 
L 119.830627 65.3184 
L 125.526971 65.3184 
L 125.526971 53.63712 
L 129.348062 53.63712 
L 129.348062 41.95584 
L 131.686295 41.95584 
L 131.686295 30.27456 
L 133.097823 30.27456 
L 133.097823 18.59328 
L 137.067478 18.59328 
L 137.067478 6.912 
L 360.8064 6.912 
" style="fill: none; stroke: #f5deb3; stroke-width: 4; stroke-linecap: square"/>
   </g>
   <g id="line2d_2">
    <defs>
     <path id="m1fd7421b45" d="M -0 7.778175 
L 7.778175 0 
L 0 -7.778175 
L -7.778175 -0 
z
" style="stroke: #f5deb3; stroke-width: 1.5; stroke-linejoin: miter"/>
    </defs>
    <g>
     <use xlink:href="#m1fd7421b45" x="73.538988" y="205.49376" style="fill: #f5deb3; stroke: #f5deb3; stroke-width: 1.5; stroke-linejoin: miter"/>
     <use xlink:href="#m1fd7421b45" x="119.830627" y="76.99968" style="fill: #f5deb3; stroke: #f5deb3; stroke-width: 1.5; stroke-linejoin: miter"/>
     <use xlink:href="#m1fd7421b45" x="137.067478" y="18.59328" style="fill: #f5deb3; stroke: #f5deb3; stroke-width: 1.5; stroke-linejoin: miter"/>
     <use xlink:href="#m1fd7421b45" x="137.067478" y="6.912" style="fill: #f5deb3; stroke: #f5deb3; stroke-width: 1.5; stroke-linejoin: miter"/>
     <use xlink:href="#m1fd7421b45" x="137.067478" y="6.912" style="fill: #f5deb3; stroke: #f5deb3; stroke-width: 1.5; stroke-linejoin: miter"/>
     <use xlink:href="#m1fd7421b45" x="360.8064" y="6.912" style="fill: #f5deb3; stroke: #f5deb3; stroke-width: 1.5; stroke-linejoin: miter"/>
    </g>
   </g>
   <g id="line2d_3">
    <path style="fill: none; stroke: #f5deb3; stroke-width: 4; stroke-linecap: square"/>
    <g/>
   </g>
   <g id="line2d_4">
    <path d="M 360.8064 6.912 
L 380.514816 12.75264 
" style="fill: none; stroke: #f5deb3; stroke-width: 4; stroke-linecap: square"/>
    <g>
     <use xlink:href="#m1fd7421b45" x="360.8064" y="6.912" style="fill: #f5deb3; stroke: #f5deb3; stroke-width: 1.5; stroke-linejoin: miter"/>
     <use xlink:href="#m1fd7421b45" x="380.514816" y="12.75264" style="fill: #f5deb3; stroke: #f5deb3; stroke-width: 1.5; stroke-linejoin: miter"/>
    </g>
   </g>
   <g id="matplotlib.axis_1">
    <g id="xtick_1">
     <g id="line2d_5">
      <path d="M 57.6 298.944 
L 57.6 6.912 
" clip-path="url(#p2f507281c6)" style="fill: none; stroke: #b0b0b0; stroke-width: 0.8; stroke-linecap: square"/>
     </g>
     <g id="line2d_6">
      <defs>
       <path id="m6387697a84" d="M 0 0 
L 0 3.5 
" style="stroke: #000000; stroke-width: 0.8"/>
      </defs>
      <g>
       <use xlink:href="#m6387697a84" x="57.6" y="298.944" style="stroke: #000000; stroke-width: 0.8"/>
      </g>
     </g>
     <g id="text_1">
      <!-- 0 -->
      <g transform="translate(52.191875 318.861344) scale(0.17 -0.17)">
       <defs>
        <path id="DejaVuSans-30" d="M 2034 4250 
Q 1547 4250 1301 3770 
Q 1056 3291 1056 2328 
Q 1056 1369 1301 889 
Q 1547 409 2034 409 
Q 2525 409 2770 889 
Q 3016 1369 3016 2328 
Q 3016 3291 2770 3770 
Q 2525 4250 2034 4250 
z
M 2034 4750 
Q 2819 4750 3233 4129 
Q 3647 3509 3647 2328 
Q 3647 1150 3233 529 
Q 2819 -91 2034 -91 
Q 1250 -91 836 529 
Q 422 1150 422 2328 
Q 422 3509 836 4129 
Q 1250 4750 2034 4750 
z
" transform="scale(0.015625)"/>
       </defs>
       <use xlink:href="#DejaVuSans-30"/>
      </g>
     </g>
    </g>
    <g id="xtick_2">
     <g id="line2d_7">
      <path d="M 144.2304 298.944 
L 144.2304 6.912 
" clip-path="url(#p2f507281c6)" style="fill: none; stroke: #b0b0b0; stroke-width: 0.8; stroke-linecap: square"/>
     </g>
     <g id="line2d_8">
      <g>
       <use xlink:href="#m6387697a84" x="144.2304" y="298.944" style="stroke: #000000; stroke-width: 0.8"/>
      </g>
     </g>
     <g id="text_2">
      <!-- 2 -->
      <g transform="translate(138.822275 318.861344) scale(0.17 -0.17)">
       <defs>
        <path id="DejaVuSans-32" d="M 1228 531 
L 3431 531 
L 3431 0 
L 469 0 
L 469 531 
Q 828 903 1448 1529 
Q 2069 2156 2228 2338 
Q 2531 2678 2651 2914 
Q 2772 3150 2772 3378 
Q 2772 3750 2511 3984 
Q 2250 4219 1831 4219 
Q 1534 4219 1204 4116 
Q 875 4013 500 3803 
L 500 4441 
Q 881 4594 1212 4672 
Q 1544 4750 1819 4750 
Q 2544 4750 2975 4387 
Q 3406 4025 3406 3419 
Q 3406 3131 3298 2873 
Q 3191 2616 2906 2266 
Q 2828 2175 2409 1742 
Q 1991 1309 1228 531 
z
" transform="scale(0.015625)"/>
       </defs>
       <use xlink:href="#DejaVuSans-32"/>
      </g>
     </g>
    </g>
    <g id="xtick_3">
     <g id="line2d_9">
      <path d="M 230.8608 298.944 
L 230.8608 6.912 
" clip-path="url(#p2f507281c6)" style="fill: none; stroke: #b0b0b0; stroke-width: 0.8; stroke-linecap: square"/>
     </g>
     <g id="line2d_10">
      <g>
       <use xlink:href="#m6387697a84" x="230.8608" y="298.944" style="stroke: #000000; stroke-width: 0.8"/>
      </g>
     </g>
     <g id="text_3">
      <!-- 4 -->
      <g transform="translate(225.452675 318.861344) scale(0.17 -0.17)">
       <defs>
        <path id="DejaVuSans-34" d="M 2419 4116 
L 825 1625 
L 2419 1625 
L 2419 4116 
z
M 2253 4666 
L 3047 4666 
L 3047 1625 
L 3713 1625 
L 3713 1100 
L 3047 1100 
L 3047 0 
L 2419 0 
L 2419 1100 
L 313 1100 
L 313 1709 
L 2253 4666 
z
" transform="scale(0.015625)"/>
       </defs>
       <use xlink:href="#DejaVuSans-34"/>
      </g>
     </g>
    </g>
    <g id="xtick_4">
     <g id="line2d_11">
      <path d="M 317.4912 298.944 
L 317.4912 6.912 
" clip-path="url(#p2f507281c6)" style="fill: none; stroke: #b0b0b0; stroke-width: 0.8; stroke-linecap: square"/>
     </g>
     <g id="line2d_12">
      <g>
       <use xlink:href="#m6387697a84" x="317.4912" y="298.944" style="stroke: #000000; stroke-width: 0.8"/>
      </g>
     </g>
     <g id="text_4">
      <!-- 6 -->
      <g transform="translate(312.083075 318.861344) scale(0.17 -0.17)">
       <defs>
        <path id="DejaVuSans-36" d="M 2113 2584 
Q 1688 2584 1439 2293 
Q 1191 2003 1191 1497 
Q 1191 994 1439 701 
Q 1688 409 2113 409 
Q 2538 409 2786 701 
Q 3034 994 3034 1497 
Q 3034 2003 2786 2293 
Q 2538 2584 2113 2584 
z
M 3366 4563 
L 3366 3988 
Q 3128 4100 2886 4159 
Q 2644 4219 2406 4219 
Q 1781 4219 1451 3797 
Q 1122 3375 1075 2522 
Q 1259 2794 1537 2939 
Q 1816 3084 2150 3084 
Q 2853 3084 3261 2657 
Q 3669 2231 3669 1497 
Q 3669 778 3244 343 
Q 2819 -91 2113 -91 
Q 1303 -91 875 529 
Q 447 1150 447 2328 
Q 447 3434 972 4092 
Q 1497 4750 2381 4750 
Q 2619 4750 2861 4703 
Q 3103 4656 3366 4563 
z
" transform="scale(0.015625)"/>
       </defs>
       <use xlink:href="#DejaVuSans-36"/>
      </g>
     </g>
    </g>
    <g id="xtick_5">
     <g id="line2d_13">
      <path d="M 100.9152 298.944 
L 100.9152 6.912 
" clip-path="url(#p2f507281c6)" style="fill: none; stroke: #b0b0b0; stroke-width: 0.8; stroke-linecap: square"/>
     </g>
     <g id="line2d_14">
      <defs>
       <path id="m970d126f99" d="M 0 0 
L 0 2 
" style="stroke: #000000; stroke-width: 0.6"/>
      </defs>
      <g>
       <use xlink:href="#m970d126f99" x="100.9152" y="298.944" style="stroke: #000000; stroke-width: 0.6"/>
      </g>
     </g>
    </g>
    <g id="xtick_6">
     <g id="line2d_15">
      <path d="M 187.5456 298.944 
L 187.5456 6.912 
" clip-path="url(#p2f507281c6)" style="fill: none; stroke: #b0b0b0; stroke-width: 0.8; stroke-linecap: square"/>
     </g>
     <g id="line2d_16">
      <g>
       <use xlink:href="#m970d126f99" x="187.5456" y="298.944" style="stroke: #000000; stroke-width: 0.6"/>
      </g>
     </g>
    </g>
    <g id="xtick_7">
     <g id="line2d_17">
      <path d="M 274.176 298.944 
L 274.176 6.912 
" clip-path="url(#p2f507281c6)" style="fill: none; stroke: #b0b0b0; stroke-width: 0.8; stroke-linecap: square"/>
     </g>
     <g id="line2d_18">
      <g>
       <use xlink:href="#m970d126f99" x="274.176" y="298.944" style="stroke: #000000; stroke-width: 0.6"/>
      </g>
     </g>
    </g>
    <g id="xtick_8">
     <g id="line2d_19">
      <path d="M 360.8064 298.944 
L 360.8064 6.912 
" clip-path="url(#p2f507281c6)" style="fill: none; stroke: #b0b0b0; stroke-width: 0.8; stroke-linecap: square"/>
     </g>
     <g id="line2d_20">
      <g>
       <use xlink:href="#m970d126f99" x="360.8064" y="298.944" style="stroke: #000000; stroke-width: 0.6"/>
      </g>
     </g>
    </g>
    <g id="text_5">
     <!-- log10(# f-evals / dimension) -->
     <g transform="translate(88.823278 339.314156) scale(0.17 -0.17)">
      <defs>
       <path id="DejaVuSans-6c" d="M 603 4863 
L 1178 4863 
L 1178 0 
L 603 0 
L 603 4863 
z
" transform="scale(0.015625)"/>
       <path id="DejaVuSans-6f" d="M 1959 3097 
Q 1497 3097 1228 2736 
Q 959 2375 959 1747 
Q 959 1119 1226 758 
Q 1494 397 1959 397 
Q 2419 397 2687 759 
Q 2956 1122 2956 1747 
Q 2956 2369 2687 2733 
Q 2419 3097 1959 3097 
z
M 1959 3584 
Q 2709 3584 3137 3096 
Q 3566 2609 3566 1747 
Q 3566 888 3137 398 
Q 2709 -91 1959 -91 
Q 1206 -91 779 398 
Q 353 888 353 1747 
Q 353 2609 779 3096 
Q 1206 3584 1959 3584 
z
" transform="scale(0.015625)"/>
       <path id="DejaVuSans-67" d="M 2906 1791 
Q 2906 2416 2648 2759 
Q 2391 3103 1925 3103 
Q 1463 3103 1205 2759 
Q 947 2416 947 1791 
Q 947 1169 1205 825 
Q 1463 481 1925 481 
Q 2391 481 2648 825 
Q 2906 1169 2906 1791 
z
M 3481 434 
Q 3481 -459 3084 -895 
Q 2688 -1331 1869 -1331 
Q 1566 -1331 1297 -1286 
Q 1028 -1241 775 -1147 
L 775 -588 
Q 1028 -725 1275 -790 
Q 1522 -856 1778 -856 
Q 2344 -856 2625 -561 
Q 2906 -266 2906 331 
L 2906 616 
Q 2728 306 2450 153 
Q 2172 0 1784 0 
Q 1141 0 747 490 
Q 353 981 353 1791 
Q 353 2603 747 3093 
Q 1141 3584 1784 3584 
Q 2172 3584 2450 3431 
Q 2728 3278 2906 2969 
L 2906 3500 
L 3481 3500 
L 3481 434 
z
" transform="scale(0.015625)"/>
       <path id="DejaVuSans-31" d="M 794 531 
L 1825 531 
L 1825 4091 
L 703 3866 
L 703 4441 
L 1819 4666 
L 2450 4666 
L 2450 531 
L 3481 531 
L 3481 0 
L 794 0 
L 794 531 
z
" transform="scale(0.015625)"/>
       <path id="DejaVuSans-28" d="M 1984 4856 
Q 1566 4138 1362 3434 
Q 1159 2731 1159 2009 
Q 1159 1288 1364 580 
Q 1569 -128 1984 -844 
L 1484 -844 
Q 1016 -109 783 600 
Q 550 1309 550 2009 
Q 550 2706 781 3412 
Q 1013 4119 1484 4856 
L 1984 4856 
z
" transform="scale(0.015625)"/>
       <path id="DejaVuSans-23" d="M 3272 2816 
L 2363 2816 
L 2100 1772 
L 3016 1772 
L 3272 2816 
z
M 2803 4594 
L 2478 3297 
L 3391 3297 
L 3719 4594 
L 4219 4594 
L 3897 3297 
L 4872 3297 
L 4872 2816 
L 3775 2816 
L 3519 1772 
L 4513 1772 
L 4513 1294 
L 3397 1294 
L 3072 0 
L 2572 0 
L 2894 1294 
L 1978 1294 
L 1656 0 
L 1153 0 
L 1478 1294 
L 494 1294 
L 494 1772 
L 1594 1772 
L 1856 2816 
L 850 2816 
L 850 3297 
L 1978 3297 
L 2297 4594 
L 2803 4594 
z
" transform="scale(0.015625)"/>
       <path id="DejaVuSans-20" transform="scale(0.015625)"/>
       <path id="DejaVuSans-66" d="M 2375 4863 
L 2375 4384 
L 1825 4384 
Q 1516 4384 1395 4259 
Q 1275 4134 1275 3809 
L 1275 3500 
L 2222 3500 
L 2222 3053 
L 1275 3053 
L 1275 0 
L 697 0 
L 697 3053 
L 147 3053 
L 147 3500 
L 697 3500 
L 697 3744 
Q 697 4328 969 4595 
Q 1241 4863 1831 4863 
L 2375 4863 
z
" transform="scale(0.015625)"/>
       <path id="DejaVuSans-2d" d="M 313 2009 
L 1997 2009 
L 1997 1497 
L 313 1497 
L 313 2009 
z
" transform="scale(0.015625)"/>
       <path id="DejaVuSans-65" d="M 3597 1894 
L 3597 1613 
L 953 1613 
Q 991 1019 1311 708 
Q 1631 397 2203 397 
Q 2534 397 2845 478 
Q 3156 559 3463 722 
L 3463 178 
Q 3153 47 2828 -22 
Q 2503 -91 2169 -91 
Q 1331 -91 842 396 
Q 353 884 353 1716 
Q 353 2575 817 3079 
Q 1281 3584 2069 3584 
Q 2775 3584 3186 3129 
Q 3597 2675 3597 1894 
z
M 3022 2063 
Q 3016 2534 2758 2815 
Q 2500 3097 2075 3097 
Q 1594 3097 1305 2825 
Q 1016 2553 972 2059 
L 3022 2063 
z
" transform="scale(0.015625)"/>
       <path id="DejaVuSans-76" d="M 191 3500 
L 800 3500 
L 1894 563 
L 2988 3500 
L 3597 3500 
L 2284 0 
L 1503 0 
L 191 3500 
z
" transform="scale(0.015625)"/>
       <path id="DejaVuSans-61" d="M 2194 1759 
Q 1497 1759 1228 1600 
Q 959 1441 959 1056 
Q 959 750 1161 570 
Q 1363 391 1709 391 
Q 2188 391 2477 730 
Q 2766 1069 2766 1631 
L 2766 1759 
L 2194 1759 
z
M 3341 1997 
L 3341 0 
L 2766 0 
L 2766 531 
Q 2569 213 2275 61 
Q 1981 -91 1556 -91 
Q 1019 -91 701 211 
Q 384 513 384 1019 
Q 384 1609 779 1909 
Q 1175 2209 1959 2209 
L 2766 2209 
L 2766 2266 
Q 2766 2663 2505 2880 
Q 2244 3097 1772 3097 
Q 1472 3097 1187 3025 
Q 903 2953 641 2809 
L 641 3341 
Q 956 3463 1253 3523 
Q 1550 3584 1831 3584 
Q 2591 3584 2966 3190 
Q 3341 2797 3341 1997 
z
" transform="scale(0.015625)"/>
       <path id="DejaVuSans-73" d="M 2834 3397 
L 2834 2853 
Q 2591 2978 2328 3040 
Q 2066 3103 1784 3103 
Q 1356 3103 1142 2972 
Q 928 2841 928 2578 
Q 928 2378 1081 2264 
Q 1234 2150 1697 2047 
L 1894 2003 
Q 2506 1872 2764 1633 
Q 3022 1394 3022 966 
Q 3022 478 2636 193 
Q 2250 -91 1575 -91 
Q 1294 -91 989 -36 
Q 684 19 347 128 
L 347 722 
Q 666 556 975 473 
Q 1284 391 1588 391 
Q 1994 391 2212 530 
Q 2431 669 2431 922 
Q 2431 1156 2273 1281 
Q 2116 1406 1581 1522 
L 1381 1569 
Q 847 1681 609 1914 
Q 372 2147 372 2553 
Q 372 3047 722 3315 
Q 1072 3584 1716 3584 
Q 2034 3584 2315 3537 
Q 2597 3491 2834 3397 
z
" transform="scale(0.015625)"/>
       <path id="DejaVuSans-2f" d="M 1625 4666 
L 2156 4666 
L 531 -594 
L 0 -594 
L 1625 4666 
z
" transform="scale(0.015625)"/>
       <path id="DejaVuSans-64" d="M 2906 2969 
L 2906 4863 
L 3481 4863 
L 3481 0 
L 2906 0 
L 2906 525 
Q 2725 213 2448 61 
Q 2172 -91 1784 -91 
Q 1150 -91 751 415 
Q 353 922 353 1747 
Q 353 2572 751 3078 
Q 1150 3584 1784 3584 
Q 2172 3584 2448 3432 
Q 2725 3281 2906 2969 
z
M 947 1747 
Q 947 1113 1208 752 
Q 1469 391 1925 391 
Q 2381 391 2643 752 
Q 2906 1113 2906 1747 
Q 2906 2381 2643 2742 
Q 2381 3103 1925 3103 
Q 1469 3103 1208 2742 
Q 947 2381 947 1747 
z
" transform="scale(0.015625)"/>
       <path id="DejaVuSans-69" d="M 603 3500 
L 1178 3500 
L 1178 0 
L 603 0 
L 603 3500 
z
M 603 4863 
L 1178 4863 
L 1178 4134 
L 603 4134 
L 603 4863 
z
" transform="scale(0.015625)"/>
       <path id="DejaVuSans-6d" d="M 3328 2828 
Q 3544 3216 3844 3400 
Q 4144 3584 4550 3584 
Q 5097 3584 5394 3201 
Q 5691 2819 5691 2113 
L 5691 0 
L 5113 0 
L 5113 2094 
Q 5113 2597 4934 2840 
Q 4756 3084 4391 3084 
Q 3944 3084 3684 2787 
Q 3425 2491 3425 1978 
L 3425 0 
L 2847 0 
L 2847 2094 
Q 2847 2600 2669 2842 
Q 2491 3084 2119 3084 
Q 1678 3084 1418 2786 
Q 1159 2488 1159 1978 
L 1159 0 
L 581 0 
L 581 3500 
L 1159 3500 
L 1159 2956 
Q 1356 3278 1631 3431 
Q 1906 3584 2284 3584 
Q 2666 3584 2933 3390 
Q 3200 3197 3328 2828 
z
" transform="scale(0.015625)"/>
       <path id="DejaVuSans-6e" d="M 3513 2113 
L 3513 0 
L 2938 0 
L 2938 2094 
Q 2938 2591 2744 2837 
Q 2550 3084 2163 3084 
Q 1697 3084 1428 2787 
Q 1159 2491 1159 1978 
L 1159 0 
L 581 0 
L 581 3500 
L 1159 3500 
L 1159 2956 
Q 1366 3272 1645 3428 
Q 1925 3584 2291 3584 
Q 2894 3584 3203 3211 
Q 3513 2838 3513 2113 
z
" transform="scale(0.015625)"/>
       <path id="DejaVuSans-29" d="M 513 4856 
L 1013 4856 
Q 1481 4119 1714 3412 
Q 1947 2706 1947 2009 
Q 1947 1309 1714 600 
Q 1481 -109 1013 -844 
L 513 -844 
Q 928 -128 1133 580 
Q 1338 1288 1338 2009 
Q 1338 2731 1133 3434 
Q 928 4138 513 4856 
z
" transform="scale(0.015625)"/>
      </defs>
      <use xlink:href="#DejaVuSans-6c"/>
      <use xlink:href="#DejaVuSans-6f" x="27.783203"/>
      <use xlink:href="#DejaVuSans-67" x="88.964844"/>
      <use xlink:href="#DejaVuSans-31" x="152.441406"/>
      <use xlink:href="#DejaVuSans-30" x="216.064453"/>
      <use xlink:href="#DejaVuSans-28" x="279.6875"/>
      <use xlink:href="#DejaVuSans-23" x="318.701172"/>
      <use xlink:href="#DejaVuSans-20" x="402.490234"/>
      <use xlink:href="#DejaVuSans-66" x="434.277344"/>
      <use xlink:href="#DejaVuSans-2d" x="463.982422"/>
      <use xlink:href="#DejaVuSans-65" x="500.066406"/>
      <use xlink:href="#DejaVuSans-76" x="561.589844"/>
      <use xlink:href="#DejaVuSans-61" x="620.769531"/>
      <use xlink:href="#DejaVuSans-6c" x="682.048828"/>
      <use xlink:href="#DejaVuSans-73" x="709.832031"/>
      <use xlink:href="#DejaVuSans-20" x="761.931641"/>
      <use xlink:href="#DejaVuSans-2f" x="793.71875"/>
      <use xlink:href="#DejaVuSans-20" x="827.410156"/>
      <use xlink:href="#DejaVuSans-64" x="859.197266"/>
      <use xlink:href="#DejaVuSans-69" x="922.673828"/>
      <use xlink:href="#DejaVuSans-6d" x="950.457031"/>
      <use xlink:href="#DejaVuSans-65" x="1047.869141"/>
      <use xlink:href="#DejaVuSans-6e" x="1109.392578"/>
      <use xlink:href="#DejaVuSans-73" x="1172.771484"/>
      <use xlink:href="#DejaVuSans-69" x="1224.871094"/>
      <use xlink:href="#DejaVuSans-6f" x="1252.654297"/>
      <use xlink:href="#DejaVuSans-6e" x="1313.835938"/>
      <use xlink:href="#DejaVuSans-29" x="1377.214844"/>
     </g>
    </g>
   </g>
   <g id="matplotlib.axis_2">
    <g id="ytick_1">
     <g id="line2d_21">
      <path d="M 57.6 298.944 
L 360.8064 298.944 
" clip-path="url(#p2f507281c6)" style="fill: none; stroke: #b0b0b0; stroke-width: 0.8; stroke-linecap: square"/>
     </g>
     <g id="line2d_22">
      <defs>
       <path id="m8d8a4c307f" d="M 0 0 
L -3.5 0 
" style="stroke: #000000; stroke-width: 0.8"/>
      </defs>
      <g>
       <use xlink:href="#m8d8a4c307f" x="57.6" y="298.944" style="stroke: #000000; stroke-width: 0.8"/>
      </g>
     </g>
     <g id="text_6">
      <!-- 0.0 -->
      <g transform="translate(25.155 305.02275) scale(0.16 -0.16)">
       <defs>
        <path id="DejaVuSans-2e" d="M 684 794 
L 1344 794 
L 1344 0 
L 684 0 
L 684 794 
z
" transform="scale(0.015625)"/>
       </defs>
       <use xlink:href="#DejaVuSans-30"/>
       <use xlink:href="#DejaVuSans-2e" x="63.623047"/>
       <use xlink:href="#DejaVuSans-30" x="95.410156"/>
      </g>
     </g>
    </g>
    <g id="ytick_2">
     <g id="line2d_23">
      <path d="M 57.6 240.5376 
L 360.8064 240.5376 
" clip-path="url(#p2f507281c6)" style="fill: none; stroke: #b0b0b0; stroke-width: 0.8; stroke-linecap: square"/>
     </g>
     <g id="line2d_24">
      <g>
       <use xlink:href="#m8d8a4c307f" x="57.6" y="240.5376" style="stroke: #000000; stroke-width: 0.8"/>
      </g>
     </g>
     <g id="text_7">
      <!-- 0.2 -->
      <g transform="translate(25.155 246.61635) scale(0.16 -0.16)">
       <use xlink:href="#DejaVuSans-30"/>
       <use xlink:href="#DejaVuSans-2e" x="63.623047"/>
       <use xlink:href="#DejaVuSans-32" x="95.410156"/>
      </g>
     </g>
    </g>
    <g id="ytick_3">
     <g id="line2d_25">
      <path d="M 57.6 182.1312 
L 360.8064 182.1312 
" clip-path="url(#p2f507281c6)" style="fill: none; stroke: #b0b0b0; stroke-width: 0.8; stroke-linecap: square"/>
     </g>
     <g id="line2d_26">
      <g>
       <use xlink:href="#m8d8a4c307f" x="57.6" y="182.1312" style="stroke: #000000; stroke-width: 0.8"/>
      </g>
     </g>
     <g id="text_8">
      <!-- 0.4 -->
      <g transform="translate(25.155 188.20995) scale(0.16 -0.16)">
       <use xlink:href="#DejaVuSans-30"/>
       <use xlink:href="#DejaVuSans-2e" x="63.623047"/>
       <use xlink:href="#DejaVuSans-34" x="95.410156"/>
      </g>
     </g>
    </g>
    <g id="ytick_4">
     <g id="line2d_27">
      <path d="M 57.6 123.7248 
L 360.8064 123.7248 
" clip-path="url(#p2f507281c6)" style="fill: none; stroke: #b0b0b0; stroke-width: 0.8; stroke-linecap: square"/>
     </g>
     <g id="line2d_28">
      <g>
       <use xlink:href="#m8d8a4c307f" x="57.6" y="123.7248" style="stroke: #000000; stroke-width: 0.8"/>
      </g>
     </g>
     <g id="text_9">
      <!-- 0.6 -->
      <g transform="translate(25.155 129.80355) scale(0.16 -0.16)">
       <use xlink:href="#DejaVuSans-30"/>
       <use xlink:href="#DejaVuSans-2e" x="63.623047"/>
       <use xlink:href="#DejaVuSans-36" x="95.410156"/>
      </g>
     </g>
    </g>
    <g id="ytick_5">
     <g id="line2d_29">
      <path d="M 57.6 65.3184 
L 360.8064 65.3184 
" clip-path="url(#p2f507281c6)" style="fill: none; stroke: #b0b0b0; stroke-width: 0.8; stroke-linecap: square"/>
     </g>
     <g id="line2d_30">
      <g>
       <use xlink:href="#m8d8a4c307f" x="57.6" y="65.3184" style="stroke: #000000; stroke-width: 0.8"/>
      </g>
     </g>
     <g id="text_10">
      <!-- 0.8 -->
      <g transform="translate(25.155 71.39715) scale(0.16 -0.16)">
       <defs>
        <path id="DejaVuSans-38" d="M 2034 2216 
Q 1584 2216 1326 1975 
Q 1069 1734 1069 1313 
Q 1069 891 1326 650 
Q 1584 409 2034 409 
Q 2484 409 2743 651 
Q 3003 894 3003 1313 
Q 3003 1734 2745 1975 
Q 2488 2216 2034 2216 
z
M 1403 2484 
Q 997 2584 770 2862 
Q 544 3141 544 3541 
Q 544 4100 942 4425 
Q 1341 4750 2034 4750 
Q 2731 4750 3128 4425 
Q 3525 4100 3525 3541 
Q 3525 3141 3298 2862 
Q 3072 2584 2669 2484 
Q 3125 2378 3379 2068 
Q 3634 1759 3634 1313 
Q 3634 634 3220 271 
Q 2806 -91 2034 -91 
Q 1263 -91 848 271 
Q 434 634 434 1313 
Q 434 1759 690 2068 
Q 947 2378 1403 2484 
z
M 1172 3481 
Q 1172 3119 1398 2916 
Q 1625 2713 2034 2713 
Q 2441 2713 2670 2916 
Q 2900 3119 2900 3481 
Q 2900 3844 2670 4047 
Q 2441 4250 2034 4250 
Q 1625 4250 1398 4047 
Q 1172 3844 1172 3481 
z
" transform="scale(0.015625)"/>
       </defs>
       <use xlink:href="#DejaVuSans-30"/>
       <use xlink:href="#DejaVuSans-2e" x="63.623047"/>
       <use xlink:href="#DejaVuSans-38" x="95.410156"/>
      </g>
     </g>
    </g>
    <g id="ytick_6">
     <g id="line2d_31">
      <path d="M 57.6 6.912 
L 360.8064 6.912 
" clip-path="url(#p2f507281c6)" style="fill: none; stroke: #b0b0b0; stroke-width: 0.8; stroke-linecap: square"/>
     </g>
     <g id="line2d_32">
      <g>
       <use xlink:href="#m8d8a4c307f" x="57.6" y="6.912" style="stroke: #000000; stroke-width: 0.8"/>
      </g>
     </g>
     <g id="text_11">
      <!-- 1.0 -->
      <g transform="translate(25.155 12.99075) scale(0.16 -0.16)">
       <use xlink:href="#DejaVuSans-31"/>
       <use xlink:href="#DejaVuSans-2e" x="63.623047"/>
       <use xlink:href="#DejaVuSans-30" x="95.410156"/>
      </g>
     </g>
    </g>
    <g id="text_12">
     <!-- Fraction of function,target pairs -->
     <g transform="translate(17.619531 287.313) rotate(-90) scale(0.17 -0.17)">
      <defs>
       <path id="DejaVuSans-46" d="M 628 4666 
L 3309 4666 
L 3309 4134 
L 1259 4134 
L 1259 2759 
L 3109 2759 
L 3109 2228 
L 1259 2228 
L 1259 0 
L 628 0 
L 628 4666 
z
" transform="scale(0.015625)"/>
       <path id="DejaVuSans-72" d="M 2631 2963 
Q 2534 3019 2420 3045 
Q 2306 3072 2169 3072 
Q 1681 3072 1420 2755 
Q 1159 2438 1159 1844 
L 1159 0 
L 581 0 
L 581 3500 
L 1159 3500 
L 1159 2956 
Q 1341 3275 1631 3429 
Q 1922 3584 2338 3584 
Q 2397 3584 2469 3576 
Q 2541 3569 2628 3553 
L 2631 2963 
z
" transform="scale(0.015625)"/>
       <path id="DejaVuSans-63" d="M 3122 3366 
L 3122 2828 
Q 2878 2963 2633 3030 
Q 2388 3097 2138 3097 
Q 1578 3097 1268 2742 
Q 959 2388 959 1747 
Q 959 1106 1268 751 
Q 1578 397 2138 397 
Q 2388 397 2633 464 
Q 2878 531 3122 666 
L 3122 134 
Q 2881 22 2623 -34 
Q 2366 -91 2075 -91 
Q 1284 -91 818 406 
Q 353 903 353 1747 
Q 353 2603 823 3093 
Q 1294 3584 2113 3584 
Q 2378 3584 2631 3529 
Q 2884 3475 3122 3366 
z
" transform="scale(0.015625)"/>
       <path id="DejaVuSans-74" d="M 1172 4494 
L 1172 3500 
L 2356 3500 
L 2356 3053 
L 1172 3053 
L 1172 1153 
Q 1172 725 1289 603 
Q 1406 481 1766 481 
L 2356 481 
L 2356 0 
L 1766 0 
Q 1100 0 847 248 
Q 594 497 594 1153 
L 594 3053 
L 172 3053 
L 172 3500 
L 594 3500 
L 594 4494 
L 1172 4494 
z
" transform="scale(0.015625)"/>
       <path id="DejaVuSans-75" d="M 544 1381 
L 544 3500 
L 1119 3500 
L 1119 1403 
Q 1119 906 1312 657 
Q 1506 409 1894 409 
Q 2359 409 2629 706 
Q 2900 1003 2900 1516 
L 2900 3500 
L 3475 3500 
L 3475 0 
L 2900 0 
L 2900 538 
Q 2691 219 2414 64 
Q 2138 -91 1772 -91 
Q 1169 -91 856 284 
Q 544 659 544 1381 
z
M 1991 3584 
L 1991 3584 
z
" transform="scale(0.015625)"/>
       <path id="DejaVuSans-2c" d="M 750 794 
L 1409 794 
L 1409 256 
L 897 -744 
L 494 -744 
L 750 256 
L 750 794 
z
" transform="scale(0.015625)"/>
       <path id="DejaVuSans-70" d="M 1159 525 
L 1159 -1331 
L 581 -1331 
L 581 3500 
L 1159 3500 
L 1159 2969 
Q 1341 3281 1617 3432 
Q 1894 3584 2278 3584 
Q 2916 3584 3314 3078 
Q 3713 2572 3713 1747 
Q 3713 922 3314 415 
Q 2916 -91 2278 -91 
Q 1894 -91 1617 61 
Q 1341 213 1159 525 
z
M 3116 1747 
Q 3116 2381 2855 2742 
Q 2594 3103 2138 3103 
Q 1681 3103 1420 2742 
Q 1159 2381 1159 1747 
Q 1159 1113 1420 752 
Q 1681 391 2138 391 
Q 2594 391 2855 752 
Q 3116 1113 3116 1747 
z
" transform="scale(0.015625)"/>
      </defs>
      <use xlink:href="#DejaVuSans-46"/>
      <use xlink:href="#DejaVuSans-72" x="50.269531"/>
      <use xlink:href="#DejaVuSans-61" x="91.382812"/>
      <use xlink:href="#DejaVuSans-63" x="152.662109"/>
      <use xlink:href="#DejaVuSans-74" x="207.642578"/>
      <use xlink:href="#DejaVuSans-69" x="246.851562"/>
      <use xlink:href="#DejaVuSans-6f" x="274.634766"/>
      <use xlink:href="#DejaVuSans-6e" x="335.816406"/>
      <use xlink:href="#DejaVuSans-20" x="399.195312"/>
      <use xlink:href="#DejaVuSans-6f" x="430.982422"/>
      <use xlink:href="#DejaVuSans-66" x="492.164062"/>
      <use xlink:href="#DejaVuSans-20" x="527.369141"/>
      <use xlink:href="#DejaVuSans-66" x="559.15625"/>
      <use xlink:href="#DejaVuSans-75" x="594.361328"/>
      <use xlink:href="#DejaVuSans-6e" x="657.740234"/>
      <use xlink:href="#DejaVuSans-63" x="721.119141"/>
      <use xlink:href="#DejaVuSans-74" x="776.099609"/>
      <use xlink:href="#DejaVuSans-69" x="815.308594"/>
      <use xlink:href="#DejaVuSans-6f" x="843.091797"/>
      <use xlink:href="#DejaVuSans-6e" x="904.273438"/>
      <use xlink:href="#DejaVuSans-2c" x="967.652344"/>
      <use xlink:href="#DejaVuSans-74" x="999.439453"/>
      <use xlink:href="#DejaVuSans-61" x="1038.648438"/>
      <use xlink:href="#DejaVuSans-72" x="1099.927734"/>
      <use xlink:href="#DejaVuSans-67" x="1139.291016"/>
      <use xlink:href="#DejaVuSans-65" x="1202.767578"/>
      <use xlink:href="#DejaVuSans-74" x="1264.291016"/>
      <use xlink:href="#DejaVuSans-20" x="1303.5"/>
      <use xlink:href="#DejaVuSans-70" x="1335.287109"/>
      <use xlink:href="#DejaVuSans-61" x="1398.763672"/>
      <use xlink:href="#DejaVuSans-69" x="1460.042969"/>
      <use xlink:href="#DejaVuSans-72" x="1487.826172"/>
      <use xlink:href="#DejaVuSans-73" x="1528.939453"/>
     </g>
    </g>
   </g>
   <g id="line2d_33">
    <defs>
     <path id="mafd348094d" d="M 0 1.5 
C 0.397805 1.5 0.77937 1.341951 1.06066 1.06066 
C 1.341951 0.77937 1.5 0.397805 1.5 0 
C 1.5 -0.397805 1.341951 -0.77937 1.06066 -1.06066 
C 0.77937 -1.341951 0.397805 -1.5 0 -1.5 
C -0.397805 -1.5 -0.77937 -1.341951 -1.06066 -1.06066 
C -1.341951 -0.77937 -1.5 -0.397805 -1.5 0 
C -1.5 0.397805 -1.341951 0.77937 -1.06066 1.06066 
C -0.77937 1.341951 -0.397805 1.5 0 1.5 
z
" style="stroke: #f5deb3"/>
    </defs>
    <g>
     <use xlink:href="#mafd348094d" x="137.067478" y="6.912" style="fill: #f5deb3; stroke: #f5deb3"/>
     <use xlink:href="#mafd348094d" x="137.067478" y="6.912" style="fill: #f5deb3; stroke: #f5deb3"/>
    </g>
   </g>
   <g id="line2d_34">
    <defs>
     <path id="m248ecd55be" d="M 0 1.5 
C 0.397805 1.5 0.77937 1.341951 1.06066 1.06066 
C 1.341951 0.77937 1.5 0.397805 1.5 0 
C 1.5 -0.397805 1.341951 -0.77937 1.06066 -1.06066 
C 0.77937 -1.341951 0.397805 -1.5 0 -1.5 
C -0.397805 -1.5 -0.77937 -1.341951 -1.06066 -1.06066 
C -1.341951 -0.77937 -1.5 -0.397805 -1.5 0 
C -1.5 0.397805 -1.341951 0.77937 -1.06066 1.06066 
C -0.77937 1.341951 -0.397805 1.5 0 1.5 
z
" style="stroke: #000080"/>
    </defs>
    <g>
     <use xlink:href="#m248ecd55be" x="169.832482" y="6.912" style="fill: #000080; stroke: #000080"/>
     <use xlink:href="#m248ecd55be" x="169.832482" y="6.912" style="fill: #000080; stroke: #000080"/>
    </g>
   </g>
   <g id="line2d_35">
    <path d="M 36.933397 298.944 
L 36.933397 245.210112 
L 49.972572 245.210112 
L 49.972572 240.5376 
L 57.6 240.5376 
L 57.6 238.201344 
L 63.011746 238.201344 
L 63.011746 237.033216 
L 67.209423 237.033216 
L 67.209423 234.69696 
L 70.639174 234.69696 
L 70.639174 231.192576 
L 73.538988 231.192576 
L 73.538988 227.688192 
L 76.050921 227.688192 
L 76.050921 221.847552 
L 82.04153 221.847552 
L 82.04153 219.511296 
L 85.184077 219.511296 
L 85.184077 218.343168 
L 86.578163 218.343168 
L 86.578163 216.006912 
L 89.090095 216.006912 
L 89.090095 214.838784 
L 90.230539 214.838784 
L 90.230539 212.502528 
L 91.305777 212.502528 
L 91.305777 210.166272 
L 96.717523 210.166272 
L 96.717523 208.998144 
L 98.223251 208.998144 
L 98.223251 207.830016 
L 98.933205 207.830016 
L 98.933205 206.661888 
L 99.617337 206.661888 
L 99.617337 203.157504 
L 100.277459 203.157504 
L 100.277459 201.989376 
L 100.9152 201.989376 
L 100.9152 200.821248 
L 102.12927 200.821248 
L 102.12927 198.484992 
L 102.708132 198.484992 
L 102.708132 197.316864 
L 104.344952 197.316864 
L 104.344952 196.148736 
L 104.860369 196.148736 
L 104.860369 192.644352 
L 105.36204 192.644352 
L 105.36204 191.476224 
L 105.850679 191.476224 
L 105.850679 190.308096 
L 107.244765 190.308096 
L 107.244765 189.139968 
L 107.68741 189.139968 
L 107.68741 184.467456 
L 109.360651 184.467456 
L 109.360651 183.299328 
L 110.144579 183.299328 
L 110.144579 182.1312 
L 111.262425 182.1312 
L 111.262425 179.794944 
L 111.97238 179.794944 
L 111.97238 178.626816 
L 113.954374 178.626816 
L 113.954374 176.29056 
L 114.265316 176.29056 
L 114.265316 175.122432 
L 115.747307 175.122432 
L 115.747307 173.954304 
L 116.030193 173.954304 
L 116.030193 171.618048 
L 116.854188 171.618048 
L 116.854188 170.44992 
L 118.64712 170.44992 
L 118.64712 169.281792 
L 118.889854 169.281792 
L 118.889854 168.113664 
L 120.726585 168.113664 
L 120.726585 166.945536 
L 120.944062 166.945536 
L 120.944062 165.777408 
L 121.581803 165.777408 
L 121.581803 162.273024 
L 121.789667 162.273024 
L 121.789667 161.104896 
L 121.99526 161.104896 
L 121.99526 159.936768 
L 122.19863 159.936768 
L 122.19863 156.432384 
L 122.399825 156.432384 
L 122.399825 155.264256 
L 122.598891 155.264256 
L 122.598891 154.096128 
L 122.795872 154.096128 
L 122.795872 152.928 
L 123.183753 152.928 
L 123.183753 150.591744 
L 123.563797 150.591744 
L 123.563797 149.423616 
L 123.750979 149.423616 
L 123.750979 148.255488 
L 123.936316 148.255488 
L 123.936316 147.08736 
L 124.119844 147.08736 
L 124.119844 145.919232 
L 124.3016 145.919232 
L 124.3016 143.582976 
L 125.526971 143.582976 
L 125.526971 142.414848 
L 125.695686 142.414848 
L 125.695686 140.078592 
L 125.862901 140.078592 
L 125.862901 138.910464 
L 126.028642 138.910464 
L 126.028642 137.742336 
L 126.192937 137.742336 
L 126.192937 136.574208 
L 126.517282 136.574208 
L 126.517282 135.40608 
L 126.993549 135.40608 
L 126.993549 134.237952 
L 127.610376 134.237952 
L 127.610376 133.069824 
L 127.911368 133.069824 
L 127.911368 131.901696 
L 128.499277 131.901696 
L 128.499277 130.733568 
L 128.643427 130.733568 
L 128.643427 129.56544 
L 129.348062 129.56544 
L 129.348062 128.397312 
L 129.485876 128.397312 
L 129.485876 127.229184 
L 129.758512 127.229184 
L 129.758512 124.892928 
L 129.893363 124.892928 
L 129.893363 123.7248 
L 130.553485 123.7248 
L 130.553485 122.556672 
L 130.682774 122.556672 
L 130.682774 121.388544 
L 131.065395 121.388544 
L 131.065395 120.220416 
L 131.440389 120.220416 
L 131.440389 119.052288 
L 132.04923 119.052288 
L 132.04923 117.88416 
L 132.287354 117.88416 
L 132.287354 115.547904 
L 133.210806 115.547904 
L 133.210806 114.379776 
L 133.323114 114.379776 
L 133.323114 113.211648 
L 133.545739 113.211648 
L 133.656071 110.875392 
L 133.874812 110.875392 
L 133.874812 109.707264 
L 134.091039 109.707264 
L 134.091039 108.539136 
L 134.516177 108.539136 
L 134.620977 106.20288 
L 134.725196 106.20288 
L 134.725196 105.034752 
L 135.237805 105.034752 
L 135.237805 103.866624 
L 135.736814 103.866624 
L 135.736814 102.698496 
L 136.222928 102.698496 
L 136.318661 99.194112 
L 136.790153 99.194112 
L 136.790153 98.025984 
L 137.340774 98.025984 
L 137.340774 96.857856 
L 137.875736 96.857856 
L 137.875736 95.689728 
L 138.224108 95.689728 
L 138.224108 94.5216 
L 138.395904 94.5216 
L 138.395904 92.185344 
L 138.566146 92.185344 
L 138.650692 89.849088 
L 138.902075 89.849088 
L 138.902075 88.68096 
L 139.394983 88.68096 
L 139.394983 87.512832 
L 139.716555 87.512832 
L 139.716555 85.176576 
L 139.954178 85.176576 
L 140.032723 81.672192 
L 140.343665 81.672192 
L 140.343665 80.504064 
L 141.025043 80.504064 
L 141.025043 79.335936 
L 141.538451 79.335936 
L 141.538451 76.99968 
L 141.682602 76.99968 
L 141.682602 75.831552 
L 141.896777 75.831552 
L 141.896777 74.663424 
L 142.178603 74.663424 
L 142.248405 72.327168 
L 142.729897 72.327168 
L 142.729897 71.15904 
L 142.932537 71.15904 
L 142.932537 69.990912 
L 143.199372 69.990912 
L 143.199372 68.822784 
L 143.786262 68.822784 
L 143.786262 67.654656 
L 144.541342 67.654656 
L 144.541342 66.486528 
L 144.847227 66.486528 
L 144.847227 64.150272 
L 145.678157 64.150272 
L 145.678157 62.982144 
L 146.080251 62.982144 
L 146.080251 61.814016 
L 146.47393 61.814016 
L 146.47393 60.645888 
L 146.968277 60.645888 
L 146.968277 59.47776 
L 147.555352 59.47776 
L 147.660152 57.141504 
L 147.816265 57.141504 
L 147.816265 55.973376 
L 148.073609 55.973376 
L 148.124658 53.63712 
L 148.627671 53.63712 
L 148.67724 51.300864 
L 148.775988 51.300864 
L 148.825169 48.964608 
L 148.923146 48.964608 
L 148.923146 47.79648 
L 149.453084 47.79648 
L 149.453084 46.628352 
L 149.689117 46.628352 
L 149.689117 45.460224 
L 150.559965 45.460224 
L 150.559965 43.123968 
L 150.693856 43.123968 
L 150.693856 41.95584 
L 151.089903 41.95584 
L 151.133398 39.619584 
L 153.071898 39.619584 
L 153.071898 38.451456 
L 153.305585 38.451456 
L 153.305585 37.283328 
L 153.802162 37.283328 
L 153.802162 36.1152 
L 154.027004 36.1152 
L 154.027004 34.947072 
L 154.285968 34.947072 
L 154.322673 32.610816 
L 154.649839 32.610816 
L 154.649839 31.442688 
L 154.829169 31.442688 
L 154.829169 29.106432 
L 155.077392 29.106432 
L 155.112587 26.770176 
L 155.460959 26.770176 
L 155.495444 24.43392 
L 156.038776 24.43392 
L 156.038776 23.265792 
L 156.271636 23.265792 
L 156.271636 22.097664 
L 156.793307 22.097664 
L 156.793307 20.929536 
L 157.487772 20.929536 
L 157.487772 19.761408 
L 157.734081 19.761408 
L 157.734081 18.59328 
L 158.630038 18.59328 
L 158.630038 17.425152 
L 158.861925 17.425152 
L 158.861925 16.257024 
L 159.761902 16.257024 
L 159.761902 15.088896 
L 160.620781 15.088896 
L 160.620781 13.920768 
L 160.803545 13.920768 
L 160.803545 12.75264 
L 161.112783 12.75264 
L 161.112783 11.584512 
L 162.205054 11.584512 
L 162.205054 10.416384 
L 163.44172 10.416384 
L 163.531835 8.080128 
L 169.832482 8.080128 
L 169.832482 6.912 
L 360.8064 6.912 
L 360.8064 6.912 
" style="fill: none; stroke: #000080; stroke-width: 1.5; stroke-linecap: square"/>
   </g>
   <g id="line2d_36">
    <defs>
     <path id="mec93c548d9" d="M 0 6 
C 1.591219 6 3.117479 5.367802 4.242641 4.242641 
C 5.367802 3.117479 6 1.591219 6 0 
C 6 -1.591219 5.367802 -3.117479 4.242641 -4.242641 
C 3.117479 -5.367802 1.591219 -6 0 -6 
C -1.591219 -6 -3.117479 -5.367802 -4.242641 -4.242641 
C -5.367802 -3.117479 -6 -1.591219 -6 0 
C -6 1.591219 -5.367802 3.117479 -4.242641 4.242641 
C -3.117479 5.367802 -1.591219 6 0 6 
z
" style="stroke: #000080; stroke-width: 1.5"/>
    </defs>
    <g>
     <use xlink:href="#mec93c548d9" x="90.230539" y="212.502528" style="fill-opacity: 0; stroke: #000080; stroke-width: 1.5"/>
     <use xlink:href="#mec93c548d9" x="126.517282" y="135.40608" style="fill-opacity: 0; stroke: #000080; stroke-width: 1.5"/>
     <use xlink:href="#mec93c548d9" x="169.832482" y="8.080128" style="fill-opacity: 0; stroke: #000080; stroke-width: 1.5"/>
     <use xlink:href="#mec93c548d9" x="169.832482" y="6.912" style="fill-opacity: 0; stroke: #000080; stroke-width: 1.5"/>
     <use xlink:href="#mec93c548d9" x="169.832482" y="6.912" style="fill-opacity: 0; stroke: #000080; stroke-width: 1.5"/>
     <use xlink:href="#mec93c548d9" x="360.8064" y="6.912" style="fill-opacity: 0; stroke: #000080; stroke-width: 1.5"/>
    </g>
   </g>
   <g id="line2d_37">
    <path style="fill: none; stroke: #000080; stroke-width: 1.5; stroke-linecap: square"/>
    <g/>
   </g>
   <g id="line2d_38">
    <defs>
     <path id="mdb10168647" d="M 0 1.5 
C 0.397805 1.5 0.77937 1.341951 1.06066 1.06066 
C 1.341951 0.77937 1.5 0.397805 1.5 0 
C 1.5 -0.397805 1.341951 -0.77937 1.06066 -1.06066 
C 0.77937 -1.341951 0.397805 -1.5 0 -1.5 
C -0.397805 -1.5 -0.77937 -1.341951 -1.06066 -1.06066 
C -1.341951 -0.77937 -1.5 -0.397805 -1.5 0 
C -1.5 0.397805 -1.341951 0.77937 -1.06066 1.06066 
C -0.77937 1.341951 -0.397805 1.5 0 1.5 
z
" style="stroke: #ff00ff"/>
    </defs>
    <g>
     <use xlink:href="#mdb10168647" x="166.052194" y="6.912" style="fill: #ff00ff; stroke: #ff00ff"/>
     <use xlink:href="#mdb10168647" x="166.052194" y="6.912" style="fill: #ff00ff; stroke: #ff00ff"/>
    </g>
   </g>
   <g id="line2d_39">
    <path d="M 36.933397 298.944 
L 36.933397 245.210112 
L 49.972572 245.210112 
L 49.972572 238.201344 
L 57.6 238.201344 
L 57.6 237.033216 
L 63.011746 237.033216 
L 63.011746 234.69696 
L 67.209423 234.69696 
L 67.209423 231.192576 
L 70.639174 231.192576 
L 70.639174 220.679424 
L 73.538988 220.679424 
L 73.538988 219.511296 
L 76.050921 219.511296 
L 76.050921 218.343168 
L 78.266603 218.343168 
L 78.266603 216.006912 
L 82.04153 216.006912 
L 82.04153 212.502528 
L 83.678349 212.502528 
L 83.678349 211.3344 
L 89.090095 211.3344 
L 89.090095 208.998144 
L 95.080704 208.998144 
L 95.080704 207.830016 
L 95.916911 207.830016 
L 95.916911 206.661888 
L 97.485448 206.661888 
L 97.485448 205.49376 
L 98.933205 205.49376 
L 98.933205 203.157504 
L 99.617337 203.157504 
L 99.617337 201.989376 
L 100.277459 201.989376 
L 100.277459 197.316864 
L 101.532027 197.316864 
L 101.532027 196.148736 
L 102.708132 196.148736 
L 102.708132 194.980608 
L 103.269713 194.980608 
L 103.269713 193.81248 
L 104.860369 193.81248 
L 104.860369 192.644352 
L 105.36204 192.644352 
L 105.36204 191.476224 
L 106.791453 191.476224 
L 106.791453 187.97184 
L 108.542628 187.97184 
L 108.542628 186.803712 
L 109.360651 186.803712 
L 109.360651 184.467456 
L 112.656511 184.467456 
L 112.656511 182.1312 
L 113.316634 182.1312 
L 113.316634 179.794944 
L 113.954374 179.794944 
L 113.954374 177.458688 
L 116.308887 177.458688 
L 116.308887 176.29056 
L 117.121023 176.29056 
L 117.121023 175.122432 
L 117.6436 175.122432 
L 117.6436 173.954304 
L 118.152051 173.954304 
L 118.152051 171.618048 
L 118.401214 171.618048 
L 118.401214 170.44992 
L 118.64712 170.44992 
L 118.64712 169.281792 
L 119.129494 169.281792 
L 119.129494 165.777408 
L 120.058649 165.777408 
L 120.058649 164.60928 
L 120.28394 164.60928 
L 120.28394 163.441152 
L 120.944062 163.441152 
L 120.944062 162.273024 
L 121.581803 162.273024 
L 121.581803 161.104896 
L 121.789667 161.104896 
L 121.789667 159.936768 
L 121.99526 159.936768 
L 121.99526 158.76864 
L 122.598891 158.76864 
L 122.598891 157.600512 
L 123.936316 157.600512 
L 123.936316 155.264256 
L 124.119844 155.264256 
L 124.119844 152.928 
L 124.481616 152.928 
L 124.481616 151.759872 
L 125.35673 151.759872 
L 125.35673 150.591744 
L 125.526971 150.591744 
L 125.526971 149.423616 
L 125.695686 149.423616 
L 125.695686 147.08736 
L 125.862901 147.08736 
L 125.862901 144.751104 
L 126.028642 144.751104 
L 126.028642 143.582976 
L 126.192937 143.582976 
L 126.192937 142.414848 
L 126.355808 142.414848 
L 126.355808 141.24672 
L 126.993549 141.24672 
L 126.993549 140.078592 
L 127.304491 140.078592 
L 127.304491 138.910464 
L 127.761474 138.910464 
L 127.761474 136.574208 
L 127.911368 136.574208 
L 127.911368 135.40608 
L 128.354013 135.40608 
L 128.354013 134.237952 
L 128.499277 134.237952 
L 128.499277 133.069824 
L 128.643427 133.069824 
L 128.643427 130.733568 
L 129.209231 130.733568 
L 129.209231 128.397312 
L 129.758512 128.397312 
L 129.758512 127.229184 
L 130.4233 127.229184 
L 130.4233 123.7248 
L 130.553485 123.7248 
L 130.553485 122.556672 
L 130.682774 122.556672 
L 130.682774 121.388544 
L 131.440389 121.388544 
L 131.440389 120.220416 
L 132.168669 120.220416 
L 132.168669 117.88416 
L 132.638982 117.88416 
L 132.638982 116.716032 
L 132.754746 116.716032 
L 132.754746 115.547904 
L 133.097823 115.547904 
L 133.097823 114.379776 
L 133.874812 114.379776 
L 133.874812 113.211648 
L 134.091039 113.211648 
L 134.091039 112.04352 
L 134.620977 112.04352 
L 134.620977 110.875392 
L 134.828842 110.875392 
L 134.828842 109.707264 
L 135.136394 109.707264 
L 135.237805 107.371008 
L 135.638065 107.371008 
L 135.736814 102.698496 
L 135.932769 102.698496 
L 135.932769 101.530368 
L 136.126705 101.530368 
L 136.126705 100.36224 
L 136.602972 100.36224 
L 136.602972 99.194112 
L 136.790153 99.194112 
L 136.88305 96.857856 
L 137.430998 96.857856 
L 137.430998 94.5216 
L 137.699101 94.5216 
L 137.699101 93.353472 
L 138.137618 93.353472 
L 138.137618 92.185344 
L 138.395904 92.185344 
L 138.481218 89.849088 
L 138.650692 89.849088 
L 138.650692 88.68096 
L 139.150143 88.68096 
L 139.150143 87.512832 
L 139.556456 87.512832 
L 139.556456 86.344704 
L 140.032723 86.344704 
L 140.032723 85.176576 
L 140.26641 85.176576 
L 140.343665 82.84032 
L 140.573544 82.84032 
L 140.573544 81.672192 
L 140.875745 81.672192 
L 140.875745 79.335936 
L 141.682602 79.335936 
L 141.682602 78.167808 
L 142.178603 78.167808 
L 142.178603 76.99968 
L 142.317949 76.99968 
L 142.317949 75.831552 
L 142.661862 75.831552 
L 142.661862 74.663424 
L 143.133017 74.663424 
L 143.133017 73.495296 
L 143.265494 73.495296 
L 143.265494 72.327168 
L 144.10457 72.327168 
L 144.10457 71.15904 
L 144.417581 71.15904 
L 144.417581 69.990912 
L 144.602918 69.990912 
L 144.602918 68.822784 
L 144.725469 68.822784 
L 144.725469 67.654656 
L 144.907812 67.654656 
L 144.907812 66.486528 
L 145.0284 66.486528 
L 145.088405 64.150272 
L 146.64016 64.150272 
L 146.64016 62.982144 
L 146.804934 62.982144 
L 146.804934 60.645888 
L 147.076389 60.645888 
L 147.076389 59.47776 
L 147.502732 59.47776 
L 147.502732 58.309632 
L 147.764371 58.309632 
L 147.816265 55.973376 
L 148.276979 55.973376 
L 148.32748 53.63712 
L 148.478174 53.63712 
L 148.478174 52.468992 
L 149.117582 52.468992 
L 149.165879 50.132736 
L 149.689117 50.132736 
L 149.782707 47.79648 
L 150.106653 47.79648 
L 150.106653 46.628352 
L 150.604701 46.628352 
L 150.604701 45.460224 
L 151.306379 45.460224 
L 151.306379 44.292096 
L 151.435079 44.292096 
L 151.435079 43.123968 
L 151.899585 43.123968 
L 151.94125 40.787712 
L 153.071898 40.787712 
L 153.071898 39.619584 
L 153.989717 39.619584 
L 154.064218 37.283328 
L 154.101358 37.283328 
L 154.101358 36.1152 
L 154.322673 36.1152 
L 154.322673 34.947072 
L 154.505134 34.947072 
L 154.505134 33.778944 
L 154.757642 33.778944 
L 154.757642 32.610816 
L 154.900425 32.610816 
L 154.900425 30.27456 
L 155.322384 30.27456 
L 155.322384 27.938304 
L 155.802997 27.938304 
L 155.802997 26.770176 
L 155.971711 26.770176 
L 155.971711 25.602048 
L 156.238546 25.602048 
L 156.238546 24.43392 
L 156.370558 24.43392 
L 156.468962 22.097664 
L 157.143744 22.097664 
L 157.143744 20.929536 
L 157.332175 20.929536 
L 157.332175 19.761408 
L 158.0375 19.761408 
L 158.0375 18.59328 
L 158.513014 18.59328 
L 158.571617 16.257024 
L 158.976805 16.257024 
L 158.976805 15.088896 
L 160.594526 15.088896 
L 160.594526 13.920768 
L 161.035949 13.920768 
L 161.035949 12.75264 
L 161.642011 12.75264 
L 161.642011 11.584512 
L 161.839769 11.584512 
L 161.839769 10.416384 
L 162.373122 10.416384 
L 162.373122 9.248256 
L 164.280872 9.248256 
L 164.280872 8.080128 
L 166.052194 8.080128 
L 166.052194 6.912 
L 360.8064 6.912 
L 360.8064 6.912 
" style="fill: none; stroke: #ff00ff; stroke-width: 1.5; stroke-linecap: square"/>
   </g>
   <g id="line2d_40">
    <defs>
     <path id="mae7f4aa809" d="M -0 8.485281 
L 5.091169 0 
L 0 -8.485281 
L -5.091169 -0 
z
" style="stroke: #ff00ff; stroke-width: 1.5; stroke-linejoin: miter"/>
    </defs>
    <g>
     <use xlink:href="#mae7f4aa809" x="120.28394" y="164.60928" style="fill-opacity: 0; stroke: #ff00ff; stroke-width: 1.5; stroke-linejoin: miter"/>
     <use xlink:href="#mae7f4aa809" x="142.317949" y="75.831552" style="fill-opacity: 0; stroke: #ff00ff; stroke-width: 1.5; stroke-linejoin: miter"/>
     <use xlink:href="#mae7f4aa809" x="166.052194" y="8.080128" style="fill-opacity: 0; stroke: #ff00ff; stroke-width: 1.5; stroke-linejoin: miter"/>
     <use xlink:href="#mae7f4aa809" x="166.052194" y="6.912" style="fill-opacity: 0; stroke: #ff00ff; stroke-width: 1.5; stroke-linejoin: miter"/>
     <use xlink:href="#mae7f4aa809" x="166.052194" y="6.912" style="fill-opacity: 0; stroke: #ff00ff; stroke-width: 1.5; stroke-linejoin: miter"/>
     <use xlink:href="#mae7f4aa809" x="360.8064" y="6.912" style="fill-opacity: 0; stroke: #ff00ff; stroke-width: 1.5; stroke-linejoin: miter"/>
    </g>
   </g>
   <g id="line2d_41">
    <path style="fill: none; stroke: #ff00ff; stroke-width: 1.5; stroke-linecap: square"/>
    <g/>
   </g>
   <g id="line2d_42">
    <defs>
     <path id="mefcc3b7132" d="M 0 1.5 
C 0.397805 1.5 0.77937 1.341951 1.06066 1.06066 
C 1.341951 0.77937 1.5 0.397805 1.5 0 
C 1.5 -0.397805 1.341951 -0.77937 1.06066 -1.06066 
C 0.77937 -1.341951 0.397805 -1.5 0 -1.5 
C -0.397805 -1.5 -0.77937 -1.341951 -1.06066 -1.06066 
C -1.341951 -0.77937 -1.5 -0.397805 -1.5 0 
C -1.5 0.397805 -1.341951 0.77937 -1.06066 1.06066 
C -0.77937 1.341951 -0.397805 1.5 0 1.5 
z
" style="stroke: #ff7500"/>
    </defs>
    <g>
     <use xlink:href="#mefcc3b7132" x="172.496541" y="6.912" style="fill: #ff7500; stroke: #ff7500"/>
     <use xlink:href="#mefcc3b7132" x="172.496541" y="6.912" style="fill: #ff7500; stroke: #ff7500"/>
    </g>
   </g>
   <g id="line2d_43">
    <path d="M 36.933397 298.944 
L 36.933397 245.210112 
L 49.972572 245.210112 
L 49.972572 239.369472 
L 57.6 239.369472 
L 57.6 231.192576 
L 63.011746 231.192576 
L 63.011746 228.85632 
L 67.209423 228.85632 
L 67.209423 225.351936 
L 73.538988 225.351936 
L 73.538988 218.343168 
L 82.04153 218.343168 
L 82.04153 217.17504 
L 85.184077 217.17504 
L 85.184077 212.502528 
L 87.876026 212.502528 
L 87.876026 210.166272 
L 90.230539 210.166272 
L 90.230539 207.830016 
L 93.287772 207.830016 
L 93.287772 204.325632 
L 95.080704 204.325632 
L 95.080704 197.316864 
L 95.916911 197.316864 
L 95.916911 196.148736 
L 98.933205 196.148736 
L 98.933205 194.980608 
L 100.9152 194.980608 
L 100.9152 193.81248 
L 102.12927 193.81248 
L 102.12927 192.644352 
L 102.708132 192.644352 
L 102.708132 191.476224 
L 105.36204 191.476224 
L 105.36204 190.308096 
L 107.244765 190.308096 
L 107.244765 189.139968 
L 107.68741 189.139968 
L 107.68741 186.803712 
L 108.542628 186.803712 
L 108.542628 185.635584 
L 109.756698 185.635584 
L 109.756698 184.467456 
L 110.144579 184.467456 
L 110.144579 183.299328 
L 110.897141 183.299328 
L 110.897141 180.963072 
L 111.262425 180.963072 
L 111.262425 179.794944 
L 113.638206 179.794944 
L 113.638206 177.458688 
L 113.954374 177.458688 
L 113.954374 176.29056 
L 114.872193 176.29056 
L 114.872193 175.122432 
L 118.889854 175.122432 
L 118.889854 173.954304 
L 119.599808 173.954304 
L 119.599808 171.618048 
L 120.726585 171.618048 
L 120.726585 170.44992 
L 121.581803 170.44992 
L 121.581803 166.945536 
L 121.99526 166.945536 
L 121.99526 164.60928 
L 122.19863 164.60928 
L 122.19863 163.441152 
L 122.598891 163.441152 
L 122.598891 162.273024 
L 122.795872 162.273024 
L 122.795872 159.936768 
L 123.374735 159.936768 
L 123.374735 155.264256 
L 123.750979 155.264256 
L 123.750979 154.096128 
L 124.3016 154.096128 
L 124.3016 152.928 
L 124.659926 152.928 
L 124.659926 149.423616 
L 125.011554 149.423616 
L 125.011554 148.255488 
L 126.192937 148.255488 
L 126.192937 147.08736 
L 126.677381 147.08736 
L 126.677381 145.919232 
L 127.761474 145.919232 
L 127.761474 144.751104 
L 128.354013 144.751104 
L 128.354013 143.582976 
L 128.786481 143.582976 
L 128.786481 142.414848 
L 129.622688 142.414848 
L 129.622688 141.24672 
L 129.758512 141.24672 
L 129.758512 138.910464 
L 129.893363 138.910464 
L 129.893363 137.742336 
L 130.160198 137.742336 
L 130.160198 136.574208 
L 130.811181 136.574208 
L 130.811181 135.40608 
L 131.31622 135.40608 
L 131.31622 134.237952 
L 132.754746 134.237952 
L 132.754746 133.069824 
L 133.656071 133.069824 
L 133.656071 131.901696 
L 134.198228 131.901696 
L 134.198228 130.733568 
L 134.828842 130.733568 
L 134.931919 127.229184 
L 135.034434 127.229184 
L 135.136394 124.892928 
L 135.638065 124.892928 
L 135.638065 123.7248 
L 135.835047 123.7248 
L 135.835047 122.556672 
L 136.790153 122.556672 
L 136.88305 120.220416 
L 137.520791 120.220416 
L 137.520791 119.052288 
L 137.699101 119.052288 
L 137.699101 117.88416 
L 137.875736 117.88416 
L 137.875736 116.716032 
L 138.050729 116.716032 
L 138.050729 114.379776 
L 138.566146 114.379776 
L 138.566146 113.211648 
L 138.73486 113.211648 
L 138.73486 112.04352 
L 138.902075 112.04352 
L 138.902075 110.875392 
L 139.636676 110.875392 
L 139.636676 109.707264 
L 139.875304 109.707264 
L 139.875304 108.539136 
L 140.032723 108.539136 
L 140.032723 107.371008 
L 140.26641 107.371008 
L 140.26641 106.20288 
L 140.420604 106.20288 
L 140.420604 105.034752 
L 140.573544 105.034752 
L 140.573544 103.866624 
L 140.875745 103.866624 
L 140.875745 101.530368 
L 141.099251 101.530368 
L 141.099251 100.36224 
L 141.682602 100.36224 
L 141.682602 99.194112 
L 142.108542 99.194112 
L 142.108542 98.025984 
L 142.317949 98.025984 
L 142.317949 96.857856 
L 142.593581 96.857856 
L 142.593581 94.5216 
L 142.797687 94.5216 
L 142.797687 93.353472 
L 143.133017 93.353472 
L 143.133017 91.017216 
L 143.265494 91.017216 
L 143.265494 89.849088 
L 143.657415 89.849088 
L 143.657415 88.68096 
L 144.041338 88.68096 
L 144.041338 87.512832 
L 144.16759 87.512832 
L 144.16759 86.344704 
L 144.417581 86.344704 
L 144.417581 85.176576 
L 145.385592 85.176576 
L 145.385592 84.008448 
L 146.080251 84.008448 
L 146.136998 81.672192 
L 146.529503 81.672192 
L 146.529503 80.504064 
L 146.968277 80.504064 
L 146.968277 79.335936 
L 147.237402 79.335936 
L 147.343984 76.99968 
L 147.971093 76.99968 
L 148.073609 74.663424 
L 148.627671 74.663424 
L 148.627671 73.495296 
L 148.775988 73.495296 
L 148.775988 72.327168 
L 149.595059 72.327168 
L 149.595059 71.15904 
L 149.782707 71.15904 
L 149.782707 69.990912 
L 150.243797 69.990912 
L 150.243797 68.822784 
L 150.515122 68.822784 
L 150.515122 67.654656 
L 150.78259 67.654656 
L 150.870907 62.982144 
L 151.520392 62.982144 
L 151.520392 61.814016 
L 152.555392 61.814016 
L 152.555392 60.645888 
L 152.75573 60.645888 
L 152.75573 59.47776 
L 153.344252 59.47776 
L 153.344252 58.309632 
L 153.802162 58.309632 
L 153.802162 57.141504 
L 154.101358 57.141504 
L 154.101358 55.973376 
L 154.685842 55.973376 
L 154.685842 54.805248 
L 155.666927 54.805248 
L 155.666927 53.63712 
L 155.802997 53.63712 
L 155.802997 52.468992 
L 156.072219 52.468992 
L 156.172192 50.132736 
L 156.53428 50.132736 
L 156.53428 48.964608 
L 157.112155 48.964608 
L 157.143744 46.628352 
L 157.363398 46.628352 
L 157.363398 45.460224 
L 157.764644 45.460224 
L 157.856036 43.123968 
L 157.886402 43.123968 
L 157.977206 40.787712 
L 158.454228 40.787712 
L 158.454228 39.619584 
L 158.976805 39.619584 
L 158.976805 38.451456 
L 159.345393 38.451456 
L 159.345393 37.283328 
L 160.223059 37.283328 
L 160.223059 36.1152 
L 160.933013 36.1152 
L 161.010268 33.778944 
L 161.240147 33.778944 
L 161.240147 32.610816 
L 161.467251 32.610816 
L 161.467251 31.442688 
L 161.716414 31.442688 
L 161.815163 29.106432 
L 162.05979 29.106432 
L 162.108336 26.770176 
L 162.539702 26.770176 
L 162.539702 25.602048 
L 163.076878 25.602048 
L 163.076878 24.43392 
L 163.305732 24.43392 
L 163.305732 23.265792 
L 163.486831 23.265792 
L 163.509347 20.929536 
L 163.777449 20.929536 
L 163.843882 18.59328 
L 164.855153 18.59328 
L 164.855153 17.425152 
L 165.574415 17.425152 
L 165.574415 16.257024 
L 166.032527 16.257024 
L 166.091467 13.920768 
L 166.325396 13.920768 
L 166.325396 12.75264 
L 166.7279 12.75264 
L 166.7279 11.584512 
L 167.939599 11.584512 
L 167.939599 10.416384 
L 169.426169 10.416384 
L 169.426169 9.248256 
L 171.857838 9.248256 
L 171.857838 8.080128 
L 172.496541 8.080128 
L 172.496541 6.912 
L 360.8064 6.912 
L 360.8064 6.912 
" style="fill: none; stroke: #ff7500; stroke-width: 1.5; stroke-linecap: square"/>
   </g>
   <g id="line2d_44">
    <defs>
     <path id="mc7a60d7923" d="M 0 -6 
L -1.347084 -1.854102 
L -5.706339 -1.854102 
L -2.179628 0.708204 
L -3.526712 4.854102 
L -0 2.291796 
L 3.526712 4.854102 
L 2.179628 0.708204 
L 5.706339 -1.854102 
L 1.347084 -1.854102 
z
" style="stroke: #ff7500; stroke-width: 1.5; stroke-linejoin: bevel"/>
    </defs>
    <g>
     <use xlink:href="#mc7a60d7923" x="114.872193" y="175.122432" style="fill-opacity: 0; stroke: #ff7500; stroke-width: 1.5; stroke-linejoin: bevel"/>
     <use xlink:href="#mc7a60d7923" x="157.977206" y="40.787712" style="fill-opacity: 0; stroke: #ff7500; stroke-width: 1.5; stroke-linejoin: bevel"/>
     <use xlink:href="#mc7a60d7923" x="172.496541" y="8.080128" style="fill-opacity: 0; stroke: #ff7500; stroke-width: 1.5; stroke-linejoin: bevel"/>
     <use xlink:href="#mc7a60d7923" x="172.496541" y="6.912" style="fill-opacity: 0; stroke: #ff7500; stroke-width: 1.5; stroke-linejoin: bevel"/>
     <use xlink:href="#mc7a60d7923" x="172.496541" y="6.912" style="fill-opacity: 0; stroke: #ff7500; stroke-width: 1.5; stroke-linejoin: bevel"/>
     <use xlink:href="#mc7a60d7923" x="360.8064" y="6.912" style="fill-opacity: 0; stroke: #ff7500; stroke-width: 1.5; stroke-linejoin: bevel"/>
    </g>
   </g>
   <g id="line2d_45">
    <path style="fill: none; stroke: #ff7500; stroke-width: 1.5; stroke-linecap: square"/>
    <g/>
   </g>
   <g id="line2d_46">
    <path d="M 360.8064 6.912 
L 380.514816 293.10336 
" style="fill: none; stroke: #ff7500; stroke-width: 1.5; stroke-linecap: square"/>
    <g>
     <use xlink:href="#mc7a60d7923" x="360.8064" y="6.912" style="fill-opacity: 0; stroke: #ff7500; stroke-width: 1.5; stroke-linejoin: bevel"/>
     <use xlink:href="#mc7a60d7923" x="380.514816" y="293.10336" style="fill-opacity: 0; stroke: #ff7500; stroke-width: 1.5; stroke-linejoin: bevel"/>
    </g>
   </g>
   <g id="line2d_47">
    <path d="M 360.8064 6.912 
L 380.514816 199.65312 
" style="fill: none; stroke: #000080; stroke-width: 1.5; stroke-linecap: square"/>
    <g>
     <use xlink:href="#mec93c548d9" x="360.8064" y="6.912" style="fill-opacity: 0; stroke: #000080; stroke-width: 1.5"/>
     <use xlink:href="#mec93c548d9" x="380.514816" y="199.65312" style="fill-opacity: 0; stroke: #000080; stroke-width: 1.5"/>
    </g>
   </g>
   <g id="line2d_48">
    <path d="M 360.8064 6.912 
L 380.514816 106.20288 
" style="fill: none; stroke: #ff00ff; stroke-width: 1.5; stroke-linecap: square"/>
    <g>
     <use xlink:href="#mae7f4aa809" x="360.8064" y="6.912" style="fill-opacity: 0; stroke: #ff00ff; stroke-width: 1.5; stroke-linejoin: miter"/>
     <use xlink:href="#mae7f4aa809" x="380.514816" y="106.20288" style="fill-opacity: 0; stroke: #ff00ff; stroke-width: 1.5; stroke-linejoin: miter"/>
    </g>
   </g>
   <g id="line2d_49">
    <path d="M 360.8064 298.944 
L 360.8064 6.912 
" style="fill: none; stroke: #000000; stroke-width: 1.5; stroke-linecap: square"/>
   </g>
   <g id="patch_3">
    <path d="M 57.6 298.944 
L 360.8064 298.944 
" style="fill: none; stroke: #000000; stroke-width: 0.8; stroke-linejoin: miter; stroke-linecap: square"/>
   </g>
   <g id="patch_4">
    <path d="M 57.6 6.912 
L 360.8064 6.912 
" style="fill: none; stroke: #000000; stroke-width: 0.8; stroke-linejoin: miter; stroke-linecap: square"/>
   </g>
   <g id="text_13">
    <!-- COMO-10 d -->
    <g transform="translate(386.578944 296.966485) scale(0.14 -0.14)">
     <defs>
      <path id="DejaVuSans-43" d="M 4122 4306 
L 4122 3641 
Q 3803 3938 3442 4084 
Q 3081 4231 2675 4231 
Q 1875 4231 1450 3742 
Q 1025 3253 1025 2328 
Q 1025 1406 1450 917 
Q 1875 428 2675 428 
Q 3081 428 3442 575 
Q 3803 722 4122 1019 
L 4122 359 
Q 3791 134 3420 21 
Q 3050 -91 2638 -91 
Q 1578 -91 968 557 
Q 359 1206 359 2328 
Q 359 3453 968 4101 
Q 1578 4750 2638 4750 
Q 3056 4750 3426 4639 
Q 3797 4528 4122 4306 
z
" transform="scale(0.015625)"/>
      <path id="DejaVuSans-4f" d="M 2522 4238 
Q 1834 4238 1429 3725 
Q 1025 3213 1025 2328 
Q 1025 1447 1429 934 
Q 1834 422 2522 422 
Q 3209 422 3611 934 
Q 4013 1447 4013 2328 
Q 4013 3213 3611 3725 
Q 3209 4238 2522 4238 
z
M 2522 4750 
Q 3503 4750 4090 4092 
Q 4678 3434 4678 2328 
Q 4678 1225 4090 567 
Q 3503 -91 2522 -91 
Q 1538 -91 948 565 
Q 359 1222 359 2328 
Q 359 3434 948 4092 
Q 1538 4750 2522 4750 
z
" transform="scale(0.015625)"/>
      <path id="DejaVuSans-4d" d="M 628 4666 
L 1569 4666 
L 2759 1491 
L 3956 4666 
L 4897 4666 
L 4897 0 
L 4281 0 
L 4281 4097 
L 3078 897 
L 2444 897 
L 1241 4097 
L 1241 0 
L 628 0 
L 628 4666 
z
" transform="scale(0.015625)"/>
     </defs>
     <use xlink:href="#DejaVuSans-43"/>
     <use xlink:href="#DejaVuSans-4f" x="69.824219"/>
     <use xlink:href="#DejaVuSans-4d" x="148.535156"/>
     <use xlink:href="#DejaVuSans-4f" x="234.814453"/>
     <use xlink:href="#DejaVuSans-2d" x="316.275391"/>
     <use xlink:href="#DejaVuSans-31" x="352.359375"/>
     <use xlink:href="#DejaVuSans-30" x="415.982422"/>
     <use xlink:href="#DejaVuSans-20" x="479.605469"/>
     <use xlink:href="#DejaVuSans-64" x="511.392578"/>
    </g>
   </g>
   <g id="text_14">
    <!-- AllLQ -->
    <g transform="translate(386.578944 203.516245) scale(0.14 -0.14)">
     <defs>
      <path id="DejaVuSans-41" d="M 2188 4044 
L 1331 1722 
L 3047 1722 
L 2188 4044 
z
M 1831 4666 
L 2547 4666 
L 4325 0 
L 3669 0 
L 3244 1197 
L 1141 1197 
L 716 0 
L 50 0 
L 1831 4666 
z
" transform="scale(0.015625)"/>
      <path id="DejaVuSans-4c" d="M 628 4666 
L 1259 4666 
L 1259 531 
L 3531 531 
L 3531 0 
L 628 0 
L 628 4666 
z
" transform="scale(0.015625)"/>
      <path id="DejaVuSans-51" d="M 2522 4238 
Q 1834 4238 1429 3725 
Q 1025 3213 1025 2328 
Q 1025 1447 1429 934 
Q 1834 422 2522 422 
Q 3209 422 3611 934 
Q 4013 1447 4013 2328 
Q 4013 3213 3611 3725 
Q 3209 4238 2522 4238 
z
M 3406 84 
L 4238 -825 
L 3475 -825 
L 2784 -78 
Q 2681 -84 2626 -87 
Q 2572 -91 2522 -91 
Q 1538 -91 948 567 
Q 359 1225 359 2328 
Q 359 3434 948 4092 
Q 1538 4750 2522 4750 
Q 3503 4750 4090 4092 
Q 4678 3434 4678 2328 
Q 4678 1516 4351 937 
Q 4025 359 3406 84 
z
" transform="scale(0.015625)"/>
     </defs>
     <use xlink:href="#DejaVuSans-41"/>
     <use xlink:href="#DejaVuSans-6c" x="68.408203"/>
     <use xlink:href="#DejaVuSans-6c" x="96.191406"/>
     <use xlink:href="#DejaVuSans-4c" x="123.974609"/>
     <use xlink:href="#DejaVuSans-51" x="179.6875"/>
    </g>
   </g>
   <g id="text_15">
    <!-- AllLQ-SK -->
    <g transform="translate(386.578944 110.066005) scale(0.14 -0.14)">
     <defs>
      <path id="DejaVuSans-53" d="M 3425 4513 
L 3425 3897 
Q 3066 4069 2747 4153 
Q 2428 4238 2131 4238 
Q 1616 4238 1336 4038 
Q 1056 3838 1056 3469 
Q 1056 3159 1242 3001 
Q 1428 2844 1947 2747 
L 2328 2669 
Q 3034 2534 3370 2195 
Q 3706 1856 3706 1288 
Q 3706 609 3251 259 
Q 2797 -91 1919 -91 
Q 1588 -91 1214 -16 
Q 841 59 441 206 
L 441 856 
Q 825 641 1194 531 
Q 1563 422 1919 422 
Q 2459 422 2753 634 
Q 3047 847 3047 1241 
Q 3047 1584 2836 1778 
Q 2625 1972 2144 2069 
L 1759 2144 
Q 1053 2284 737 2584 
Q 422 2884 422 3419 
Q 422 4038 858 4394 
Q 1294 4750 2059 4750 
Q 2388 4750 2728 4690 
Q 3069 4631 3425 4513 
z
" transform="scale(0.015625)"/>
      <path id="DejaVuSans-4b" d="M 628 4666 
L 1259 4666 
L 1259 2694 
L 3353 4666 
L 4166 4666 
L 1850 2491 
L 4331 0 
L 3500 0 
L 1259 2247 
L 1259 0 
L 628 0 
L 628 4666 
z
" transform="scale(0.015625)"/>
     </defs>
     <use xlink:href="#DejaVuSans-41"/>
     <use xlink:href="#DejaVuSans-6c" x="68.408203"/>
     <use xlink:href="#DejaVuSans-6c" x="96.191406"/>
     <use xlink:href="#DejaVuSans-4c" x="123.974609"/>
     <use xlink:href="#DejaVuSans-51" x="179.6875"/>
     <use xlink:href="#DejaVuSans-2d" x="261.148438"/>
     <use xlink:href="#DejaVuSans-53" x="297.232422"/>
     <use xlink:href="#DejaVuSans-4b" x="360.708984"/>
    </g>
   </g>
   <g id="text_16">
    <!-- best 2016 -->
    <g transform="translate(386.578944 16.615765) scale(0.14 -0.14)">
     <defs>
      <path id="DejaVuSans-62" d="M 3116 1747 
Q 3116 2381 2855 2742 
Q 2594 3103 2138 3103 
Q 1681 3103 1420 2742 
Q 1159 2381 1159 1747 
Q 1159 1113 1420 752 
Q 1681 391 2138 391 
Q 2594 391 2855 752 
Q 3116 1113 3116 1747 
z
M 1159 2969 
Q 1341 3281 1617 3432 
Q 1894 3584 2278 3584 
Q 2916 3584 3314 3078 
Q 3713 2572 3713 1747 
Q 3713 922 3314 415 
Q 2916 -91 2278 -91 
Q 1894 -91 1617 61 
Q 1341 213 1159 525 
L 1159 0 
L 581 0 
L 581 4863 
L 1159 4863 
L 1159 2969 
z
" transform="scale(0.015625)"/>
     </defs>
     <use xlink:href="#DejaVuSans-62"/>
     <use xlink:href="#DejaVuSans-65" x="63.476562"/>
     <use xlink:href="#DejaVuSans-73" x="125"/>
     <use xlink:href="#DejaVuSans-74" x="177.099609"/>
     <use xlink:href="#DejaVuSans-20" x="216.308594"/>
     <use xlink:href="#DejaVuSans-32" x="248.095703"/>
     <use xlink:href="#DejaVuSans-30" x="311.71875"/>
     <use xlink:href="#DejaVuSans-31" x="375.341797"/>
     <use xlink:href="#DejaVuSans-36" x="438.964844"/>
    </g>
   </g>
   <g id="text_17">
    <!-- bbob-biobj f35, f36, f41, 3-D -->
    <g transform="translate(60.632064 17.582726) scale(0.102 -0.102)">
     <defs>
      <path id="DejaVuSans-6a" d="M 603 3500 
L 1178 3500 
L 1178 -63 
Q 1178 -731 923 -1031 
Q 669 -1331 103 -1331 
L -116 -1331 
L -116 -844 
L 38 -844 
Q 366 -844 484 -692 
Q 603 -541 603 -63 
L 603 3500 
z
M 603 4863 
L 1178 4863 
L 1178 4134 
L 603 4134 
L 603 4863 
z
" transform="scale(0.015625)"/>
      <path id="DejaVuSans-33" d="M 2597 2516 
Q 3050 2419 3304 2112 
Q 3559 1806 3559 1356 
Q 3559 666 3084 287 
Q 2609 -91 1734 -91 
Q 1441 -91 1130 -33 
Q 819 25 488 141 
L 488 750 
Q 750 597 1062 519 
Q 1375 441 1716 441 
Q 2309 441 2620 675 
Q 2931 909 2931 1356 
Q 2931 1769 2642 2001 
Q 2353 2234 1838 2234 
L 1294 2234 
L 1294 2753 
L 1863 2753 
Q 2328 2753 2575 2939 
Q 2822 3125 2822 3475 
Q 2822 3834 2567 4026 
Q 2313 4219 1838 4219 
Q 1578 4219 1281 4162 
Q 984 4106 628 3988 
L 628 4550 
Q 988 4650 1302 4700 
Q 1616 4750 1894 4750 
Q 2613 4750 3031 4423 
Q 3450 4097 3450 3541 
Q 3450 3153 3228 2886 
Q 3006 2619 2597 2516 
z
" transform="scale(0.015625)"/>
      <path id="DejaVuSans-35" d="M 691 4666 
L 3169 4666 
L 3169 4134 
L 1269 4134 
L 1269 2991 
Q 1406 3038 1543 3061 
Q 1681 3084 1819 3084 
Q 2600 3084 3056 2656 
Q 3513 2228 3513 1497 
Q 3513 744 3044 326 
Q 2575 -91 1722 -91 
Q 1428 -91 1123 -41 
Q 819 9 494 109 
L 494 744 
Q 775 591 1075 516 
Q 1375 441 1709 441 
Q 2250 441 2565 725 
Q 2881 1009 2881 1497 
Q 2881 1984 2565 2268 
Q 2250 2553 1709 2553 
Q 1456 2553 1204 2497 
Q 953 2441 691 2322 
L 691 4666 
z
" transform="scale(0.015625)"/>
      <path id="DejaVuSans-44" d="M 1259 4147 
L 1259 519 
L 2022 519 
Q 2988 519 3436 956 
Q 3884 1394 3884 2338 
Q 3884 3275 3436 3711 
Q 2988 4147 2022 4147 
L 1259 4147 
z
M 628 4666 
L 1925 4666 
Q 3281 4666 3915 4102 
Q 4550 3538 4550 2338 
Q 4550 1131 3912 565 
Q 3275 0 1925 0 
L 628 0 
L 628 4666 
z
" transform="scale(0.015625)"/>
     </defs>
     <use xlink:href="#DejaVuSans-62"/>
     <use xlink:href="#DejaVuSans-62" x="63.476562"/>
     <use xlink:href="#DejaVuSans-6f" x="126.953125"/>
     <use xlink:href="#DejaVuSans-62" x="188.134766"/>
     <use xlink:href="#DejaVuSans-2d" x="251.611328"/>
     <use xlink:href="#DejaVuSans-62" x="287.695312"/>
     <use xlink:href="#DejaVuSans-69" x="351.171875"/>
     <use xlink:href="#DejaVuSans-6f" x="378.955078"/>
     <use xlink:href="#DejaVuSans-62" x="440.136719"/>
     <use xlink:href="#DejaVuSans-6a" x="503.613281"/>
     <use xlink:href="#DejaVuSans-20" x="531.396484"/>
     <use xlink:href="#DejaVuSans-66" x="563.183594"/>
     <use xlink:href="#DejaVuSans-33" x="598.388672"/>
     <use xlink:href="#DejaVuSans-35" x="662.011719"/>
     <use xlink:href="#DejaVuSans-2c" x="725.634766"/>
     <use xlink:href="#DejaVuSans-20" x="757.421875"/>
     <use xlink:href="#DejaVuSans-66" x="789.208984"/>
     <use xlink:href="#DejaVuSans-33" x="824.414062"/>
     <use xlink:href="#DejaVuSans-36" x="888.037109"/>
     <use xlink:href="#DejaVuSans-2c" x="951.660156"/>
     <use xlink:href="#DejaVuSans-20" x="983.447266"/>
     <use xlink:href="#DejaVuSans-66" x="1015.234375"/>
     <use xlink:href="#DejaVuSans-34" x="1050.439453"/>
     <use xlink:href="#DejaVuSans-31" x="1114.0625"/>
     <use xlink:href="#DejaVuSans-2c" x="1177.685547"/>
     <use xlink:href="#DejaVuSans-20" x="1209.472656"/>
     <use xlink:href="#DejaVuSans-33" x="1241.259766"/>
     <use xlink:href="#DejaVuSans-2d" x="1304.882812"/>
     <use xlink:href="#DejaVuSans-44" x="1340.966797"/>
    </g>
    <!-- 31 targets RLs/dim: 0.5..50 -->
    <g transform="translate(60.632064 29.004495) scale(0.102 -0.102)">
     <defs>
      <path id="DejaVuSans-52" d="M 2841 2188 
Q 3044 2119 3236 1894 
Q 3428 1669 3622 1275 
L 4263 0 
L 3584 0 
L 2988 1197 
Q 2756 1666 2539 1819 
Q 2322 1972 1947 1972 
L 1259 1972 
L 1259 0 
L 628 0 
L 628 4666 
L 2053 4666 
Q 2853 4666 3247 4331 
Q 3641 3997 3641 3322 
Q 3641 2881 3436 2590 
Q 3231 2300 2841 2188 
z
M 1259 4147 
L 1259 2491 
L 2053 2491 
Q 2509 2491 2742 2702 
Q 2975 2913 2975 3322 
Q 2975 3731 2742 3939 
Q 2509 4147 2053 4147 
L 1259 4147 
z
" transform="scale(0.015625)"/>
      <path id="DejaVuSans-3a" d="M 750 794 
L 1409 794 
L 1409 0 
L 750 0 
L 750 794 
z
M 750 3309 
L 1409 3309 
L 1409 2516 
L 750 2516 
L 750 3309 
z
" transform="scale(0.015625)"/>
     </defs>
     <use xlink:href="#DejaVuSans-33"/>
     <use xlink:href="#DejaVuSans-31" x="63.623047"/>
     <use xlink:href="#DejaVuSans-20" x="127.246094"/>
     <use xlink:href="#DejaVuSans-74" x="159.033203"/>
     <use xlink:href="#DejaVuSans-61" x="198.242188"/>
     <use xlink:href="#DejaVuSans-72" x="259.521484"/>
     <use xlink:href="#DejaVuSans-67" x="298.884766"/>
     <use xlink:href="#DejaVuSans-65" x="362.361328"/>
     <use xlink:href="#DejaVuSans-74" x="423.884766"/>
     <use xlink:href="#DejaVuSans-73" x="463.09375"/>
     <use xlink:href="#DejaVuSans-20" x="515.193359"/>
     <use xlink:href="#DejaVuSans-52" x="546.980469"/>
     <use xlink:href="#DejaVuSans-4c" x="616.462891"/>
     <use xlink:href="#DejaVuSans-73" x="672.175781"/>
     <use xlink:href="#DejaVuSans-2f" x="724.275391"/>
     <use xlink:href="#DejaVuSans-64" x="757.966797"/>
     <use xlink:href="#DejaVuSans-69" x="821.443359"/>
     <use xlink:href="#DejaVuSans-6d" x="849.226562"/>
     <use xlink:href="#DejaVuSans-3a" x="946.638672"/>
     <use xlink:href="#DejaVuSans-20" x="980.330078"/>
     <use xlink:href="#DejaVuSans-30" x="1012.117188"/>
     <use xlink:href="#DejaVuSans-2e" x="1075.740234"/>
     <use xlink:href="#DejaVuSans-35" x="1107.527344"/>
     <use xlink:href="#DejaVuSans-2e" x="1171.150391"/>
     <use xlink:href="#DejaVuSans-2e" x="1202.9375"/>
     <use xlink:href="#DejaVuSans-35" x="1234.724609"/>
     <use xlink:href="#DejaVuSans-30" x="1298.347656"/>
    </g>
    <!--   from refalgs/best2016-bbob-biobj.tar.gz -->
    <g transform="translate(60.632064 40.426264) scale(0.102 -0.102)">
     <defs>
      <path id="DejaVuSans-7a" d="M 353 3500 
L 3084 3500 
L 3084 2975 
L 922 459 
L 3084 459 
L 3084 0 
L 275 0 
L 275 525 
L 2438 3041 
L 353 3041 
L 353 3500 
z
" transform="scale(0.015625)"/>
     </defs>
     <use xlink:href="#DejaVuSans-20"/>
     <use xlink:href="#DejaVuSans-20" x="31.787109"/>
     <use xlink:href="#DejaVuSans-66" x="63.574219"/>
     <use xlink:href="#DejaVuSans-72" x="98.779297"/>
     <use xlink:href="#DejaVuSans-6f" x="137.642578"/>
     <use xlink:href="#DejaVuSans-6d" x="198.824219"/>
     <use xlink:href="#DejaVuSans-20" x="296.236328"/>
     <use xlink:href="#DejaVuSans-72" x="328.023438"/>
     <use xlink:href="#DejaVuSans-65" x="366.886719"/>
     <use xlink:href="#DejaVuSans-66" x="428.410156"/>
     <use xlink:href="#DejaVuSans-61" x="463.615234"/>
     <use xlink:href="#DejaVuSans-6c" x="524.894531"/>
     <use xlink:href="#DejaVuSans-67" x="552.677734"/>
     <use xlink:href="#DejaVuSans-73" x="616.154297"/>
     <use xlink:href="#DejaVuSans-2f" x="668.253906"/>
     <use xlink:href="#DejaVuSans-62" x="701.945312"/>
     <use xlink:href="#DejaVuSans-65" x="765.421875"/>
     <use xlink:href="#DejaVuSans-73" x="826.945312"/>
     <use xlink:href="#DejaVuSans-74" x="879.044922"/>
     <use xlink:href="#DejaVuSans-32" x="918.253906"/>
     <use xlink:href="#DejaVuSans-30" x="981.876953"/>
     <use xlink:href="#DejaVuSans-31" x="1045.5"/>
     <use xlink:href="#DejaVuSans-36" x="1109.123047"/>
     <use xlink:href="#DejaVuSans-2d" x="1172.746094"/>
     <use xlink:href="#DejaVuSans-62" x="1208.830078"/>
     <use xlink:href="#DejaVuSans-62" x="1272.306641"/>
     <use xlink:href="#DejaVuSans-6f" x="1335.783203"/>
     <use xlink:href="#DejaVuSans-62" x="1396.964844"/>
     <use xlink:href="#DejaVuSans-2d" x="1460.441406"/>
     <use xlink:href="#DejaVuSans-62" x="1496.525391"/>
     <use xlink:href="#DejaVuSans-69" x="1560.001953"/>
     <use xlink:href="#DejaVuSans-6f" x="1587.785156"/>
     <use xlink:href="#DejaVuSans-62" x="1648.966797"/>
     <use xlink:href="#DejaVuSans-6a" x="1712.443359"/>
     <use xlink:href="#DejaVuSans-2e" x="1740.226562"/>
     <use xlink:href="#DejaVuSans-74" x="1772.013672"/>
     <use xlink:href="#DejaVuSans-61" x="1811.222656"/>
     <use xlink:href="#DejaVuSans-72" x="1872.501953"/>
     <use xlink:href="#DejaVuSans-2e" x="1904.490234"/>
     <use xlink:href="#DejaVuSans-67" x="1936.277344"/>
     <use xlink:href="#DejaVuSans-7a" x="1999.753906"/>
    </g>
    <!-- 10 instances -->
    <g transform="translate(60.632064 51.848032) scale(0.102 -0.102)">
     <use xlink:href="#DejaVuSans-31"/>
     <use xlink:href="#DejaVuSans-30" x="63.623047"/>
     <use xlink:href="#DejaVuSans-20" x="127.246094"/>
     <use xlink:href="#DejaVuSans-69" x="159.033203"/>
     <use xlink:href="#DejaVuSans-6e" x="186.816406"/>
     <use xlink:href="#DejaVuSans-73" x="250.195312"/>
     <use xlink:href="#DejaVuSans-74" x="302.294922"/>
     <use xlink:href="#DejaVuSans-61" x="341.503906"/>
     <use xlink:href="#DejaVuSans-6e" x="402.783203"/>
     <use xlink:href="#DejaVuSans-63" x="466.162109"/>
     <use xlink:href="#DejaVuSans-65" x="521.142578"/>
     <use xlink:href="#DejaVuSans-73" x="582.666016"/>
    </g>
   </g>
   <g id="text_18">
    <!-- v2.6, hv-hash=ff0e71e8cd978373 -->
    <g style="fill: #808080" transform="translate(123.707887 293.943992) scale(0.1 -0.1)">
     <defs>
      <path id="DejaVuSans-68" d="M 3513 2113 
L 3513 0 
L 2938 0 
L 2938 2094 
Q 2938 2591 2744 2837 
Q 2550 3084 2163 3084 
Q 1697 3084 1428 2787 
Q 1159 2491 1159 1978 
L 1159 0 
L 581 0 
L 581 4863 
L 1159 4863 
L 1159 2956 
Q 1366 3272 1645 3428 
Q 1925 3584 2291 3584 
Q 2894 3584 3203 3211 
Q 3513 2838 3513 2113 
z
" transform="scale(0.015625)"/>
      <path id="DejaVuSans-3d" d="M 678 2906 
L 4684 2906 
L 4684 2381 
L 678 2381 
L 678 2906 
z
M 678 1631 
L 4684 1631 
L 4684 1100 
L 678 1100 
L 678 1631 
z
" transform="scale(0.015625)"/>
      <path id="DejaVuSans-37" d="M 525 4666 
L 3525 4666 
L 3525 4397 
L 1831 0 
L 1172 0 
L 2766 4134 
L 525 4134 
L 525 4666 
z
" transform="scale(0.015625)"/>
      <path id="DejaVuSans-39" d="M 703 97 
L 703 672 
Q 941 559 1184 500 
Q 1428 441 1663 441 
Q 2288 441 2617 861 
Q 2947 1281 2994 2138 
Q 2813 1869 2534 1725 
Q 2256 1581 1919 1581 
Q 1219 1581 811 2004 
Q 403 2428 403 3163 
Q 403 3881 828 4315 
Q 1253 4750 1959 4750 
Q 2769 4750 3195 4129 
Q 3622 3509 3622 2328 
Q 3622 1225 3098 567 
Q 2575 -91 1691 -91 
Q 1453 -91 1209 -44 
Q 966 3 703 97 
z
M 1959 2075 
Q 2384 2075 2632 2365 
Q 2881 2656 2881 3163 
Q 2881 3666 2632 3958 
Q 2384 4250 1959 4250 
Q 1534 4250 1286 3958 
Q 1038 3666 1038 3163 
Q 1038 2656 1286 2365 
Q 1534 2075 1959 2075 
z
" transform="scale(0.015625)"/>
     </defs>
     <use xlink:href="#DejaVuSans-76"/>
     <use xlink:href="#DejaVuSans-32" x="59.179688"/>
     <use xlink:href="#DejaVuSans-2e" x="122.802734"/>
     <use xlink:href="#DejaVuSans-36" x="154.589844"/>
     <use xlink:href="#DejaVuSans-2c" x="218.212891"/>
     <use xlink:href="#DejaVuSans-20" x="250"/>
     <use xlink:href="#DejaVuSans-68" x="281.787109"/>
     <use xlink:href="#DejaVuSans-76" x="345.166016"/>
     <use xlink:href="#DejaVuSans-2d" x="401.720703"/>
     <use xlink:href="#DejaVuSans-68" x="437.804688"/>
     <use xlink:href="#DejaVuSans-61" x="501.183594"/>
     <use xlink:href="#DejaVuSans-73" x="562.462891"/>
     <use xlink:href="#DejaVuSans-68" x="614.5625"/>
     <use xlink:href="#DejaVuSans-3d" x="677.941406"/>
     <use xlink:href="#DejaVuSans-66" x="761.730469"/>
     <use xlink:href="#DejaVuSans-66" x="796.935547"/>
     <use xlink:href="#DejaVuSans-30" x="832.140625"/>
     <use xlink:href="#DejaVuSans-65" x="895.763672"/>
     <use xlink:href="#DejaVuSans-37" x="957.287109"/>
     <use xlink:href="#DejaVuSans-31" x="1020.910156"/>
     <use xlink:href="#DejaVuSans-65" x="1084.533203"/>
     <use xlink:href="#DejaVuSans-38" x="1146.056641"/>
     <use xlink:href="#DejaVuSans-63" x="1209.679688"/>
     <use xlink:href="#DejaVuSans-64" x="1264.660156"/>
     <use xlink:href="#DejaVuSans-39" x="1328.136719"/>
     <use xlink:href="#DejaVuSans-37" x="1391.759766"/>
     <use xlink:href="#DejaVuSans-38" x="1455.382812"/>
     <use xlink:href="#DejaVuSans-33" x="1519.005859"/>
     <use xlink:href="#DejaVuSans-37" x="1582.628906"/>
     <use xlink:href="#DejaVuSans-33" x="1646.251953"/>
    </g>
   </g>
  </g>
 </g>
 <defs>
  <clipPath id="p2f507281c6">
   <rect x="57.6" y="6.912" width="303.2064" height="292.032"/>
  </clipPath>
 </defs>
</svg>
