<?xml version="1.0" encoding="utf-8" standalone="no"?>
<!DOCTYPE svg PUBLIC "-//W3C//DTD SVG 1.1//EN"
  "http://www.w3.org/Graphics/SVG/1.1/DTD/svg11.dtd">
<svg xmlns:xlink="http://www.w3.org/1999/xlink" width="460.8pt" height="345.6pt" viewBox="0 0 460.8 345.6" xmlns="http://www.w3.org/2000/svg" version="1.1">
 <metadata>
  <rdf:RDF xmlns:dc="http://purl.org/dc/elements/1.1/" xmlns:cc="http://creativecommons.org/ns#" xmlns:rdf="http://www.w3.org/1999/02/22-rdf-syntax-ns#">
   <cc:Work>
    <dc:type rdf:resource="http://purl.org/dc/dcmitype/StillImage"/>
    <dc:date>2023-02-10T20:17:10.922733</dc:date>
    <dc:format>image/svg+xml</dc:format>
    <dc:creator>
     <cc:Agent>
      <dc:title>Matplotlib v3.6.3, https://matplotlib.org/</dc:title>
     </cc:Agent>
    </dc:creator>
   </cc:Work>
  </rdf:RDF>
 </metadata>
 <defs>
  <style type="text/css">*{stroke-linejoin: round; stroke-linecap: butt}</style>
 </defs>
 <g id="figure_1">
  <g id="patch_1">
   <path d="M 0 345.6 
L 460.8 345.6 
L 460.8 0 
L 0 0 
z
" style="fill: #ffffff"/>
  </g>
  <g id="axes_1">
   <g id="patch_2">
    <path d="M 57.6 298.944 
L 360.8064 298.944 
L 360.8064 6.912 
L 57.6 6.912 
z
" style="fill: #ffffff"/>
   </g>
   <g id="line2d_1">
    <path d="M 1.245626 298.944 
L 1.245626 295.167724 
L 14.2848 295.167724 
L 14.2848 293.908966 
L 31.521651 293.908966 
L 31.521651 291.391448 
L 34.951403 291.391448 
L 34.951403 288.873931 
L 86.712053 288.873931 
L 86.712053 286.356414 
L 93.098709 286.356414 
L 93.098709 283.838897 
L 101.471247 283.838897 
L 101.471247 281.321379 
L 121.361044 281.321379 
L 121.361044 278.803862 
L 134.368469 278.803862 
L 134.368469 276.286345 
L 150.479171 276.286345 
L 150.479171 275.027586 
L 157.250754 275.027586 
L 157.250754 272.510069 
L 158.985393 272.510069 
L 158.985393 271.25131 
L 163.912284 271.25131 
L 163.912284 267.475034 
L 167.248749 267.475034 
L 167.248749 266.216276 
L 168.074246 266.216276 
L 168.074246 262.44 
L 171.612255 262.44 
L 171.612255 259.922483 
L 179.875327 259.922483 
L 179.875327 256.146207 
L 186.201659 256.146207 
L 186.201659 254.887448 
L 186.848086 254.887448 
L 186.848086 253.62869 
L 189.594164 253.62869 
L 189.594164 251.111172 
L 206.114195 251.111172 
L 206.114195 249.852414 
L 214.087767 249.852414 
L 214.126499 244.817379 
L 216.305768 244.817379 
L 216.305768 241.041103 
L 223.630633 241.041103 
L 223.630633 238.523586 
L 227.064206 238.523586 
L 227.064206 236.006069 
L 230.162603 236.006069 
L 230.162603 232.229793 
L 234.128626 232.229793 
L 234.128626 228.453517 
L 235.420369 228.453517 
L 235.420369 225.936 
L 239.317694 225.936 
L 239.317694 224.677241 
L 241.641518 224.677241 
L 241.641518 222.159724 
L 246.363211 222.159724 
L 246.363211 220.900966 
L 249.797493 220.900966 
L 249.797493 218.383448 
L 250.22786 218.383448 
L 250.22786 215.865931 
L 260.950366 215.865931 
L 260.950366 213.348414 
L 262.578189 213.348414 
L 262.578189 210.830897 
L 265.774003 210.830897 
L 265.774003 207.054621 
L 266.969992 207.054621 
L 266.969992 204.537103 
L 271.86929 204.537103 
L 271.86929 202.019586 
L 277.956395 202.019586 
L 277.956395 199.502069 
L 278.490053 199.502069 
L 278.490053 198.24331 
L 281.988889 198.24331 
L 281.988889 194.467034 
L 283.744382 194.467034 
L 283.744382 193.208276 
L 290.970842 193.208276 
L 291.077766 188.173241 
L 291.972631 188.173241 
L 291.972631 184.396966 
L 297.200853 184.396966 
L 297.200853 180.62069 
L 299.286356 180.62069 
L 299.286356 178.103172 
L 305.856846 178.103172 
L 305.856846 175.585655 
L 306.327557 175.585655 
L 306.327557 174.326897 
L 308.324417 174.326897 
L 308.324417 173.068138 
L 312.611561 173.068138 
L 312.611561 171.809379 
L 312.764545 171.809379 
L 312.764545 168.033103 
L 315.284989 168.033103 
L 315.284989 166.774345 
L 316.88693 166.774345 
L 316.88693 164.256828 
L 319.548895 164.256828 
L 319.548895 160.480552 
L 320.829921 160.480552 
L 320.829921 156.704276 
L 325.208692 156.704276 
L 325.208692 154.186759 
L 326.632518 154.186759 
L 326.668808 149.151724 
L 329.186132 149.151724 
L 329.290868 144.11669 
L 330.152495 144.11669 
L 330.152495 142.857931 
L 332.824717 142.857931 
L 332.824717 139.081655 
L 340.098728 139.081655 
L 340.098728 137.822897 
L 340.799553 137.822897 
L 340.800624 135.305379 
L 341.293081 135.305379 
L 341.293081 131.529103 
L 349.353306 131.529103 
L 349.353306 127.752828 
L 349.494704 127.752828 
L 349.494704 126.494069 
L 349.686361 126.494069 
L 349.686361 122.717793 
L 349.884515 122.717793 
L 349.884515 118.941517 
L 350.297077 118.941517 
L 350.297077 115.165241 
L 360.8064 115.165241 
L 360.8064 115.165241 
" style="fill: none; stroke: #f5deb3; stroke-width: 4; stroke-linecap: square"/>
   </g>
   <g id="line2d_2">
    <defs>
     <path id="m02b30efd84" d="M -0 7.778175 
L 7.778175 0 
L 0 -7.778175 
L -7.778175 -0 
z
" style="stroke: #f5deb3; stroke-width: 1.5; stroke-linejoin: miter"/>
    </defs>
    <g>
     <use xlink:href="#m02b30efd84" x="121.361044" y="278.803862" style="fill: #f5deb3; stroke: #f5deb3; stroke-width: 1.5; stroke-linejoin: miter"/>
     <use xlink:href="#m02b30efd84" x="216.305768" y="244.817379" style="fill: #f5deb3; stroke: #f5deb3; stroke-width: 1.5; stroke-linejoin: miter"/>
     <use xlink:href="#m02b30efd84" x="283.744382" y="193.208276" style="fill: #f5deb3; stroke: #f5deb3; stroke-width: 1.5; stroke-linejoin: miter"/>
     <use xlink:href="#m02b30efd84" x="332.824717" y="142.857931" style="fill: #f5deb3; stroke: #f5deb3; stroke-width: 1.5; stroke-linejoin: miter"/>
     <use xlink:href="#m02b30efd84" x="350.297077" y="115.165241" style="fill: #f5deb3; stroke: #f5deb3; stroke-width: 1.5; stroke-linejoin: miter"/>
     <use xlink:href="#m02b30efd84" x="360.8064" y="115.165241" style="fill: #f5deb3; stroke: #f5deb3; stroke-width: 1.5; stroke-linejoin: miter"/>
    </g>
   </g>
   <g id="line2d_3">
    <path style="fill: none; stroke: #f5deb3; stroke-width: 4; stroke-linecap: square"/>
    <g/>
   </g>
   <g id="line2d_4">
    <path d="M 360.8064 115.165241 
L 380.514816 12.75264 
" style="fill: none; stroke: #f5deb3; stroke-width: 4; stroke-linecap: square"/>
    <g>
     <use xlink:href="#m02b30efd84" x="360.8064" y="115.165241" style="fill: #f5deb3; stroke: #f5deb3; stroke-width: 1.5; stroke-linejoin: miter"/>
     <use xlink:href="#m02b30efd84" x="380.514816" y="12.75264" style="fill: #f5deb3; stroke: #f5deb3; stroke-width: 1.5; stroke-linejoin: miter"/>
    </g>
   </g>
   <g id="matplotlib.axis_1">
    <g id="xtick_1">
     <g id="line2d_5">
      <path d="M 57.6 298.944 
L 57.6 6.912 
" clip-path="url(#p0b492dc73b)" style="fill: none; stroke: #b0b0b0; stroke-width: 0.8; stroke-linecap: square"/>
     </g>
     <g id="line2d_6">
      <defs>
       <path id="mb339772189" d="M 0 0 
L 0 3.5 
" style="stroke: #000000; stroke-width: 0.8"/>
      </defs>
      <g>
       <use xlink:href="#mb339772189" x="57.6" y="298.944" style="stroke: #000000; stroke-width: 0.8"/>
      </g>
     </g>
     <g id="text_1">
      <!-- 0 -->
      <g transform="translate(52.191875 318.861344) scale(0.17 -0.17)">
       <defs>
        <path id="DejaVuSans-30" d="M 2034 4250 
Q 1547 4250 1301 3770 
Q 1056 3291 1056 2328 
Q 1056 1369 1301 889 
Q 1547 409 2034 409 
Q 2525 409 2770 889 
Q 3016 1369 3016 2328 
Q 3016 3291 2770 3770 
Q 2525 4250 2034 4250 
z
M 2034 4750 
Q 2819 4750 3233 4129 
Q 3647 3509 3647 2328 
Q 3647 1150 3233 529 
Q 2819 -91 2034 -91 
Q 1250 -91 836 529 
Q 422 1150 422 2328 
Q 422 3509 836 4129 
Q 1250 4750 2034 4750 
z
" transform="scale(0.015625)"/>
       </defs>
       <use xlink:href="#DejaVuSans-30"/>
      </g>
     </g>
    </g>
    <g id="xtick_2">
     <g id="line2d_7">
      <path d="M 144.2304 298.944 
L 144.2304 6.912 
" clip-path="url(#p0b492dc73b)" style="fill: none; stroke: #b0b0b0; stroke-width: 0.8; stroke-linecap: square"/>
     </g>
     <g id="line2d_8">
      <g>
       <use xlink:href="#mb339772189" x="144.2304" y="298.944" style="stroke: #000000; stroke-width: 0.8"/>
      </g>
     </g>
     <g id="text_2">
      <!-- 2 -->
      <g transform="translate(138.822275 318.861344) scale(0.17 -0.17)">
       <defs>
        <path id="DejaVuSans-32" d="M 1228 531 
L 3431 531 
L 3431 0 
L 469 0 
L 469 531 
Q 828 903 1448 1529 
Q 2069 2156 2228 2338 
Q 2531 2678 2651 2914 
Q 2772 3150 2772 3378 
Q 2772 3750 2511 3984 
Q 2250 4219 1831 4219 
Q 1534 4219 1204 4116 
Q 875 4013 500 3803 
L 500 4441 
Q 881 4594 1212 4672 
Q 1544 4750 1819 4750 
Q 2544 4750 2975 4387 
Q 3406 4025 3406 3419 
Q 3406 3131 3298 2873 
Q 3191 2616 2906 2266 
Q 2828 2175 2409 1742 
Q 1991 1309 1228 531 
z
" transform="scale(0.015625)"/>
       </defs>
       <use xlink:href="#DejaVuSans-32"/>
      </g>
     </g>
    </g>
    <g id="xtick_3">
     <g id="line2d_9">
      <path d="M 230.8608 298.944 
L 230.8608 6.912 
" clip-path="url(#p0b492dc73b)" style="fill: none; stroke: #b0b0b0; stroke-width: 0.8; stroke-linecap: square"/>
     </g>
     <g id="line2d_10">
      <g>
       <use xlink:href="#mb339772189" x="230.8608" y="298.944" style="stroke: #000000; stroke-width: 0.8"/>
      </g>
     </g>
     <g id="text_3">
      <!-- 4 -->
      <g transform="translate(225.452675 318.861344) scale(0.17 -0.17)">
       <defs>
        <path id="DejaVuSans-34" d="M 2419 4116 
L 825 1625 
L 2419 1625 
L 2419 4116 
z
M 2253 4666 
L 3047 4666 
L 3047 1625 
L 3713 1625 
L 3713 1100 
L 3047 1100 
L 3047 0 
L 2419 0 
L 2419 1100 
L 313 1100 
L 313 1709 
L 2253 4666 
z
" transform="scale(0.015625)"/>
       </defs>
       <use xlink:href="#DejaVuSans-34"/>
      </g>
     </g>
    </g>
    <g id="xtick_4">
     <g id="line2d_11">
      <path d="M 317.4912 298.944 
L 317.4912 6.912 
" clip-path="url(#p0b492dc73b)" style="fill: none; stroke: #b0b0b0; stroke-width: 0.8; stroke-linecap: square"/>
     </g>
     <g id="line2d_12">
      <g>
       <use xlink:href="#mb339772189" x="317.4912" y="298.944" style="stroke: #000000; stroke-width: 0.8"/>
      </g>
     </g>
     <g id="text_4">
      <!-- 6 -->
      <g transform="translate(312.083075 318.861344) scale(0.17 -0.17)">
       <defs>
        <path id="DejaVuSans-36" d="M 2113 2584 
Q 1688 2584 1439 2293 
Q 1191 2003 1191 1497 
Q 1191 994 1439 701 
Q 1688 409 2113 409 
Q 2538 409 2786 701 
Q 3034 994 3034 1497 
Q 3034 2003 2786 2293 
Q 2538 2584 2113 2584 
z
M 3366 4563 
L 3366 3988 
Q 3128 4100 2886 4159 
Q 2644 4219 2406 4219 
Q 1781 4219 1451 3797 
Q 1122 3375 1075 2522 
Q 1259 2794 1537 2939 
Q 1816 3084 2150 3084 
Q 2853 3084 3261 2657 
Q 3669 2231 3669 1497 
Q 3669 778 3244 343 
Q 2819 -91 2113 -91 
Q 1303 -91 875 529 
Q 447 1150 447 2328 
Q 447 3434 972 4092 
Q 1497 4750 2381 4750 
Q 2619 4750 2861 4703 
Q 3103 4656 3366 4563 
z
" transform="scale(0.015625)"/>
       </defs>
       <use xlink:href="#DejaVuSans-36"/>
      </g>
     </g>
    </g>
    <g id="xtick_5">
     <g id="line2d_13">
      <path d="M 100.9152 298.944 
L 100.9152 6.912 
" clip-path="url(#p0b492dc73b)" style="fill: none; stroke: #b0b0b0; stroke-width: 0.8; stroke-linecap: square"/>
     </g>
     <g id="line2d_14">
      <defs>
       <path id="m7ddc05e093" d="M 0 0 
L 0 2 
" style="stroke: #000000; stroke-width: 0.6"/>
      </defs>
      <g>
       <use xlink:href="#m7ddc05e093" x="100.9152" y="298.944" style="stroke: #000000; stroke-width: 0.6"/>
      </g>
     </g>
    </g>
    <g id="xtick_6">
     <g id="line2d_15">
      <path d="M 187.5456 298.944 
L 187.5456 6.912 
" clip-path="url(#p0b492dc73b)" style="fill: none; stroke: #b0b0b0; stroke-width: 0.8; stroke-linecap: square"/>
     </g>
     <g id="line2d_16">
      <g>
       <use xlink:href="#m7ddc05e093" x="187.5456" y="298.944" style="stroke: #000000; stroke-width: 0.6"/>
      </g>
     </g>
    </g>
    <g id="xtick_7">
     <g id="line2d_17">
      <path d="M 274.176 298.944 
L 274.176 6.912 
" clip-path="url(#p0b492dc73b)" style="fill: none; stroke: #b0b0b0; stroke-width: 0.8; stroke-linecap: square"/>
     </g>
     <g id="line2d_18">
      <g>
       <use xlink:href="#m7ddc05e093" x="274.176" y="298.944" style="stroke: #000000; stroke-width: 0.6"/>
      </g>
     </g>
    </g>
    <g id="xtick_8">
     <g id="line2d_19">
      <path d="M 360.8064 298.944 
L 360.8064 6.912 
" clip-path="url(#p0b492dc73b)" style="fill: none; stroke: #b0b0b0; stroke-width: 0.8; stroke-linecap: square"/>
     </g>
     <g id="line2d_20">
      <g>
       <use xlink:href="#m7ddc05e093" x="360.8064" y="298.944" style="stroke: #000000; stroke-width: 0.6"/>
      </g>
     </g>
    </g>
    <g id="text_5">
     <!-- log10(# f-evals / dimension) -->
     <g transform="translate(88.823278 339.314156) scale(0.17 -0.17)">
      <defs>
       <path id="DejaVuSans-6c" d="M 603 4863 
L 1178 4863 
L 1178 0 
L 603 0 
L 603 4863 
z
" transform="scale(0.015625)"/>
       <path id="DejaVuSans-6f" d="M 1959 3097 
Q 1497 3097 1228 2736 
Q 959 2375 959 1747 
Q 959 1119 1226 758 
Q 1494 397 1959 397 
Q 2419 397 2687 759 
Q 2956 1122 2956 1747 
Q 2956 2369 2687 2733 
Q 2419 3097 1959 3097 
z
M 1959 3584 
Q 2709 3584 3137 3096 
Q 3566 2609 3566 1747 
Q 3566 888 3137 398 
Q 2709 -91 1959 -91 
Q 1206 -91 779 398 
Q 353 888 353 1747 
Q 353 2609 779 3096 
Q 1206 3584 1959 3584 
z
" transform="scale(0.015625)"/>
       <path id="DejaVuSans-67" d="M 2906 1791 
Q 2906 2416 2648 2759 
Q 2391 3103 1925 3103 
Q 1463 3103 1205 2759 
Q 947 2416 947 1791 
Q 947 1169 1205 825 
Q 1463 481 1925 481 
Q 2391 481 2648 825 
Q 2906 1169 2906 1791 
z
M 3481 434 
Q 3481 -459 3084 -895 
Q 2688 -1331 1869 -1331 
Q 1566 -1331 1297 -1286 
Q 1028 -1241 775 -1147 
L 775 -588 
Q 1028 -725 1275 -790 
Q 1522 -856 1778 -856 
Q 2344 -856 2625 -561 
Q 2906 -266 2906 331 
L 2906 616 
Q 2728 306 2450 153 
Q 2172 0 1784 0 
Q 1141 0 747 490 
Q 353 981 353 1791 
Q 353 2603 747 3093 
Q 1141 3584 1784 3584 
Q 2172 3584 2450 3431 
Q 2728 3278 2906 2969 
L 2906 3500 
L 3481 3500 
L 3481 434 
z
" transform="scale(0.015625)"/>
       <path id="DejaVuSans-31" d="M 794 531 
L 1825 531 
L 1825 4091 
L 703 3866 
L 703 4441 
L 1819 4666 
L 2450 4666 
L 2450 531 
L 3481 531 
L 3481 0 
L 794 0 
L 794 531 
z
" transform="scale(0.015625)"/>
       <path id="DejaVuSans-28" d="M 1984 4856 
Q 1566 4138 1362 3434 
Q 1159 2731 1159 2009 
Q 1159 1288 1364 580 
Q 1569 -128 1984 -844 
L 1484 -844 
Q 1016 -109 783 600 
Q 550 1309 550 2009 
Q 550 2706 781 3412 
Q 1013 4119 1484 4856 
L 1984 4856 
z
" transform="scale(0.015625)"/>
       <path id="DejaVuSans-23" d="M 3272 2816 
L 2363 2816 
L 2100 1772 
L 3016 1772 
L 3272 2816 
z
M 2803 4594 
L 2478 3297 
L 3391 3297 
L 3719 4594 
L 4219 4594 
L 3897 3297 
L 4872 3297 
L 4872 2816 
L 3775 2816 
L 3519 1772 
L 4513 1772 
L 4513 1294 
L 3397 1294 
L 3072 0 
L 2572 0 
L 2894 1294 
L 1978 1294 
L 1656 0 
L 1153 0 
L 1478 1294 
L 494 1294 
L 494 1772 
L 1594 1772 
L 1856 2816 
L 850 2816 
L 850 3297 
L 1978 3297 
L 2297 4594 
L 2803 4594 
z
" transform="scale(0.015625)"/>
       <path id="DejaVuSans-20" transform="scale(0.015625)"/>
       <path id="DejaVuSans-66" d="M 2375 4863 
L 2375 4384 
L 1825 4384 
Q 1516 4384 1395 4259 
Q 1275 4134 1275 3809 
L 1275 3500 
L 2222 3500 
L 2222 3053 
L 1275 3053 
L 1275 0 
L 697 0 
L 697 3053 
L 147 3053 
L 147 3500 
L 697 3500 
L 697 3744 
Q 697 4328 969 4595 
Q 1241 4863 1831 4863 
L 2375 4863 
z
" transform="scale(0.015625)"/>
       <path id="DejaVuSans-2d" d="M 313 2009 
L 1997 2009 
L 1997 1497 
L 313 1497 
L 313 2009 
z
" transform="scale(0.015625)"/>
       <path id="DejaVuSans-65" d="M 3597 1894 
L 3597 1613 
L 953 1613 
Q 991 1019 1311 708 
Q 1631 397 2203 397 
Q 2534 397 2845 478 
Q 3156 559 3463 722 
L 3463 178 
Q 3153 47 2828 -22 
Q 2503 -91 2169 -91 
Q 1331 -91 842 396 
Q 353 884 353 1716 
Q 353 2575 817 3079 
Q 1281 3584 2069 3584 
Q 2775 3584 3186 3129 
Q 3597 2675 3597 1894 
z
M 3022 2063 
Q 3016 2534 2758 2815 
Q 2500 3097 2075 3097 
Q 1594 3097 1305 2825 
Q 1016 2553 972 2059 
L 3022 2063 
z
" transform="scale(0.015625)"/>
       <path id="DejaVuSans-76" d="M 191 3500 
L 800 3500 
L 1894 563 
L 2988 3500 
L 3597 3500 
L 2284 0 
L 1503 0 
L 191 3500 
z
" transform="scale(0.015625)"/>
       <path id="DejaVuSans-61" d="M 2194 1759 
Q 1497 1759 1228 1600 
Q 959 1441 959 1056 
Q 959 750 1161 570 
Q 1363 391 1709 391 
Q 2188 391 2477 730 
Q 2766 1069 2766 1631 
L 2766 1759 
L 2194 1759 
z
M 3341 1997 
L 3341 0 
L 2766 0 
L 2766 531 
Q 2569 213 2275 61 
Q 1981 -91 1556 -91 
Q 1019 -91 701 211 
Q 384 513 384 1019 
Q 384 1609 779 1909 
Q 1175 2209 1959 2209 
L 2766 2209 
L 2766 2266 
Q 2766 2663 2505 2880 
Q 2244 3097 1772 3097 
Q 1472 3097 1187 3025 
Q 903 2953 641 2809 
L 641 3341 
Q 956 3463 1253 3523 
Q 1550 3584 1831 3584 
Q 2591 3584 2966 3190 
Q 3341 2797 3341 1997 
z
" transform="scale(0.015625)"/>
       <path id="DejaVuSans-73" d="M 2834 3397 
L 2834 2853 
Q 2591 2978 2328 3040 
Q 2066 3103 1784 3103 
Q 1356 3103 1142 2972 
Q 928 2841 928 2578 
Q 928 2378 1081 2264 
Q 1234 2150 1697 2047 
L 1894 2003 
Q 2506 1872 2764 1633 
Q 3022 1394 3022 966 
Q 3022 478 2636 193 
Q 2250 -91 1575 -91 
Q 1294 -91 989 -36 
Q 684 19 347 128 
L 347 722 
Q 666 556 975 473 
Q 1284 391 1588 391 
Q 1994 391 2212 530 
Q 2431 669 2431 922 
Q 2431 1156 2273 1281 
Q 2116 1406 1581 1522 
L 1381 1569 
Q 847 1681 609 1914 
Q 372 2147 372 2553 
Q 372 3047 722 3315 
Q 1072 3584 1716 3584 
Q 2034 3584 2315 3537 
Q 2597 3491 2834 3397 
z
" transform="scale(0.015625)"/>
       <path id="DejaVuSans-2f" d="M 1625 4666 
L 2156 4666 
L 531 -594 
L 0 -594 
L 1625 4666 
z
" transform="scale(0.015625)"/>
       <path id="DejaVuSans-64" d="M 2906 2969 
L 2906 4863 
L 3481 4863 
L 3481 0 
L 2906 0 
L 2906 525 
Q 2725 213 2448 61 
Q 2172 -91 1784 -91 
Q 1150 -91 751 415 
Q 353 922 353 1747 
Q 353 2572 751 3078 
Q 1150 3584 1784 3584 
Q 2172 3584 2448 3432 
Q 2725 3281 2906 2969 
z
M 947 1747 
Q 947 1113 1208 752 
Q 1469 391 1925 391 
Q 2381 391 2643 752 
Q 2906 1113 2906 1747 
Q 2906 2381 2643 2742 
Q 2381 3103 1925 3103 
Q 1469 3103 1208 2742 
Q 947 2381 947 1747 
z
" transform="scale(0.015625)"/>
       <path id="DejaVuSans-69" d="M 603 3500 
L 1178 3500 
L 1178 0 
L 603 0 
L 603 3500 
z
M 603 4863 
L 1178 4863 
L 1178 4134 
L 603 4134 
L 603 4863 
z
" transform="scale(0.015625)"/>
       <path id="DejaVuSans-6d" d="M 3328 2828 
Q 3544 3216 3844 3400 
Q 4144 3584 4550 3584 
Q 5097 3584 5394 3201 
Q 5691 2819 5691 2113 
L 5691 0 
L 5113 0 
L 5113 2094 
Q 5113 2597 4934 2840 
Q 4756 3084 4391 3084 
Q 3944 3084 3684 2787 
Q 3425 2491 3425 1978 
L 3425 0 
L 2847 0 
L 2847 2094 
Q 2847 2600 2669 2842 
Q 2491 3084 2119 3084 
Q 1678 3084 1418 2786 
Q 1159 2488 1159 1978 
L 1159 0 
L 581 0 
L 581 3500 
L 1159 3500 
L 1159 2956 
Q 1356 3278 1631 3431 
Q 1906 3584 2284 3584 
Q 2666 3584 2933 3390 
Q 3200 3197 3328 2828 
z
" transform="scale(0.015625)"/>
       <path id="DejaVuSans-6e" d="M 3513 2113 
L 3513 0 
L 2938 0 
L 2938 2094 
Q 2938 2591 2744 2837 
Q 2550 3084 2163 3084 
Q 1697 3084 1428 2787 
Q 1159 2491 1159 1978 
L 1159 0 
L 581 0 
L 581 3500 
L 1159 3500 
L 1159 2956 
Q 1366 3272 1645 3428 
Q 1925 3584 2291 3584 
Q 2894 3584 3203 3211 
Q 3513 2838 3513 2113 
z
" transform="scale(0.015625)"/>
       <path id="DejaVuSans-29" d="M 513 4856 
L 1013 4856 
Q 1481 4119 1714 3412 
Q 1947 2706 1947 2009 
Q 1947 1309 1714 600 
Q 1481 -109 1013 -844 
L 513 -844 
Q 928 -128 1133 580 
Q 1338 1288 1338 2009 
Q 1338 2731 1133 3434 
Q 928 4138 513 4856 
z
" transform="scale(0.015625)"/>
      </defs>
      <use xlink:href="#DejaVuSans-6c"/>
      <use xlink:href="#DejaVuSans-6f" x="27.783203"/>
      <use xlink:href="#DejaVuSans-67" x="88.964844"/>
      <use xlink:href="#DejaVuSans-31" x="152.441406"/>
      <use xlink:href="#DejaVuSans-30" x="216.064453"/>
      <use xlink:href="#DejaVuSans-28" x="279.6875"/>
      <use xlink:href="#DejaVuSans-23" x="318.701172"/>
      <use xlink:href="#DejaVuSans-20" x="402.490234"/>
      <use xlink:href="#DejaVuSans-66" x="434.277344"/>
      <use xlink:href="#DejaVuSans-2d" x="463.982422"/>
      <use xlink:href="#DejaVuSans-65" x="500.066406"/>
      <use xlink:href="#DejaVuSans-76" x="561.589844"/>
      <use xlink:href="#DejaVuSans-61" x="620.769531"/>
      <use xlink:href="#DejaVuSans-6c" x="682.048828"/>
      <use xlink:href="#DejaVuSans-73" x="709.832031"/>
      <use xlink:href="#DejaVuSans-20" x="761.931641"/>
      <use xlink:href="#DejaVuSans-2f" x="793.71875"/>
      <use xlink:href="#DejaVuSans-20" x="827.410156"/>
      <use xlink:href="#DejaVuSans-64" x="859.197266"/>
      <use xlink:href="#DejaVuSans-69" x="922.673828"/>
      <use xlink:href="#DejaVuSans-6d" x="950.457031"/>
      <use xlink:href="#DejaVuSans-65" x="1047.869141"/>
      <use xlink:href="#DejaVuSans-6e" x="1109.392578"/>
      <use xlink:href="#DejaVuSans-73" x="1172.771484"/>
      <use xlink:href="#DejaVuSans-69" x="1224.871094"/>
      <use xlink:href="#DejaVuSans-6f" x="1252.654297"/>
      <use xlink:href="#DejaVuSans-6e" x="1313.835938"/>
      <use xlink:href="#DejaVuSans-29" x="1377.214844"/>
     </g>
    </g>
   </g>
   <g id="matplotlib.axis_2">
    <g id="ytick_1">
     <g id="line2d_21">
      <path d="M 57.6 298.944 
L 360.8064 298.944 
" clip-path="url(#p0b492dc73b)" style="fill: none; stroke: #b0b0b0; stroke-width: 0.8; stroke-linecap: square"/>
     </g>
     <g id="line2d_22">
      <defs>
       <path id="me6520508da" d="M 0 0 
L -3.5 0 
" style="stroke: #000000; stroke-width: 0.8"/>
      </defs>
      <g>
       <use xlink:href="#me6520508da" x="57.6" y="298.944" style="stroke: #000000; stroke-width: 0.8"/>
      </g>
     </g>
     <g id="text_6">
      <!-- 0.0 -->
      <g transform="translate(25.155 305.02275) scale(0.16 -0.16)">
       <defs>
        <path id="DejaVuSans-2e" d="M 684 794 
L 1344 794 
L 1344 0 
L 684 0 
L 684 794 
z
" transform="scale(0.015625)"/>
       </defs>
       <use xlink:href="#DejaVuSans-30"/>
       <use xlink:href="#DejaVuSans-2e" x="63.623047"/>
       <use xlink:href="#DejaVuSans-30" x="95.410156"/>
      </g>
     </g>
    </g>
    <g id="ytick_2">
     <g id="line2d_23">
      <path d="M 57.6 240.5376 
L 360.8064 240.5376 
" clip-path="url(#p0b492dc73b)" style="fill: none; stroke: #b0b0b0; stroke-width: 0.8; stroke-linecap: square"/>
     </g>
     <g id="line2d_24">
      <g>
       <use xlink:href="#me6520508da" x="57.6" y="240.5376" style="stroke: #000000; stroke-width: 0.8"/>
      </g>
     </g>
     <g id="text_7">
      <!-- 0.2 -->
      <g transform="translate(25.155 246.61635) scale(0.16 -0.16)">
       <use xlink:href="#DejaVuSans-30"/>
       <use xlink:href="#DejaVuSans-2e" x="63.623047"/>
       <use xlink:href="#DejaVuSans-32" x="95.410156"/>
      </g>
     </g>
    </g>
    <g id="ytick_3">
     <g id="line2d_25">
      <path d="M 57.6 182.1312 
L 360.8064 182.1312 
" clip-path="url(#p0b492dc73b)" style="fill: none; stroke: #b0b0b0; stroke-width: 0.8; stroke-linecap: square"/>
     </g>
     <g id="line2d_26">
      <g>
       <use xlink:href="#me6520508da" x="57.6" y="182.1312" style="stroke: #000000; stroke-width: 0.8"/>
      </g>
     </g>
     <g id="text_8">
      <!-- 0.4 -->
      <g transform="translate(25.155 188.20995) scale(0.16 -0.16)">
       <use xlink:href="#DejaVuSans-30"/>
       <use xlink:href="#DejaVuSans-2e" x="63.623047"/>
       <use xlink:href="#DejaVuSans-34" x="95.410156"/>
      </g>
     </g>
    </g>
    <g id="ytick_4">
     <g id="line2d_27">
      <path d="M 57.6 123.7248 
L 360.8064 123.7248 
" clip-path="url(#p0b492dc73b)" style="fill: none; stroke: #b0b0b0; stroke-width: 0.8; stroke-linecap: square"/>
     </g>
     <g id="line2d_28">
      <g>
       <use xlink:href="#me6520508da" x="57.6" y="123.7248" style="stroke: #000000; stroke-width: 0.8"/>
      </g>
     </g>
     <g id="text_9">
      <!-- 0.6 -->
      <g transform="translate(25.155 129.80355) scale(0.16 -0.16)">
       <use xlink:href="#DejaVuSans-30"/>
       <use xlink:href="#DejaVuSans-2e" x="63.623047"/>
       <use xlink:href="#DejaVuSans-36" x="95.410156"/>
      </g>
     </g>
    </g>
    <g id="ytick_5">
     <g id="line2d_29">
      <path d="M 57.6 65.3184 
L 360.8064 65.3184 
" clip-path="url(#p0b492dc73b)" style="fill: none; stroke: #b0b0b0; stroke-width: 0.8; stroke-linecap: square"/>
     </g>
     <g id="line2d_30">
      <g>
       <use xlink:href="#me6520508da" x="57.6" y="65.3184" style="stroke: #000000; stroke-width: 0.8"/>
      </g>
     </g>
     <g id="text_10">
      <!-- 0.8 -->
      <g transform="translate(25.155 71.39715) scale(0.16 -0.16)">
       <defs>
        <path id="DejaVuSans-38" d="M 2034 2216 
Q 1584 2216 1326 1975 
Q 1069 1734 1069 1313 
Q 1069 891 1326 650 
Q 1584 409 2034 409 
Q 2484 409 2743 651 
Q 3003 894 3003 1313 
Q 3003 1734 2745 1975 
Q 2488 2216 2034 2216 
z
M 1403 2484 
Q 997 2584 770 2862 
Q 544 3141 544 3541 
Q 544 4100 942 4425 
Q 1341 4750 2034 4750 
Q 2731 4750 3128 4425 
Q 3525 4100 3525 3541 
Q 3525 3141 3298 2862 
Q 3072 2584 2669 2484 
Q 3125 2378 3379 2068 
Q 3634 1759 3634 1313 
Q 3634 634 3220 271 
Q 2806 -91 2034 -91 
Q 1263 -91 848 271 
Q 434 634 434 1313 
Q 434 1759 690 2068 
Q 947 2378 1403 2484 
z
M 1172 3481 
Q 1172 3119 1398 2916 
Q 1625 2713 2034 2713 
Q 2441 2713 2670 2916 
Q 2900 3119 2900 3481 
Q 2900 3844 2670 4047 
Q 2441 4250 2034 4250 
Q 1625 4250 1398 4047 
Q 1172 3844 1172 3481 
z
" transform="scale(0.015625)"/>
       </defs>
       <use xlink:href="#DejaVuSans-30"/>
       <use xlink:href="#DejaVuSans-2e" x="63.623047"/>
       <use xlink:href="#DejaVuSans-38" x="95.410156"/>
      </g>
     </g>
    </g>
    <g id="ytick_6">
     <g id="line2d_31">
      <path d="M 57.6 6.912 
L 360.8064 6.912 
" clip-path="url(#p0b492dc73b)" style="fill: none; stroke: #b0b0b0; stroke-width: 0.8; stroke-linecap: square"/>
     </g>
     <g id="line2d_32">
      <g>
       <use xlink:href="#me6520508da" x="57.6" y="6.912" style="stroke: #000000; stroke-width: 0.8"/>
      </g>
     </g>
     <g id="text_11">
      <!-- 1.0 -->
      <g transform="translate(25.155 12.99075) scale(0.16 -0.16)">
       <use xlink:href="#DejaVuSans-31"/>
       <use xlink:href="#DejaVuSans-2e" x="63.623047"/>
       <use xlink:href="#DejaVuSans-30" x="95.410156"/>
      </g>
     </g>
    </g>
    <g id="text_12">
     <!-- Fraction of function,target pairs -->
     <g transform="translate(17.619531 287.313) rotate(-90) scale(0.17 -0.17)">
      <defs>
       <path id="DejaVuSans-46" d="M 628 4666 
L 3309 4666 
L 3309 4134 
L 1259 4134 
L 1259 2759 
L 3109 2759 
L 3109 2228 
L 1259 2228 
L 1259 0 
L 628 0 
L 628 4666 
z
" transform="scale(0.015625)"/>
       <path id="DejaVuSans-72" d="M 2631 2963 
Q 2534 3019 2420 3045 
Q 2306 3072 2169 3072 
Q 1681 3072 1420 2755 
Q 1159 2438 1159 1844 
L 1159 0 
L 581 0 
L 581 3500 
L 1159 3500 
L 1159 2956 
Q 1341 3275 1631 3429 
Q 1922 3584 2338 3584 
Q 2397 3584 2469 3576 
Q 2541 3569 2628 3553 
L 2631 2963 
z
" transform="scale(0.015625)"/>
       <path id="DejaVuSans-63" d="M 3122 3366 
L 3122 2828 
Q 2878 2963 2633 3030 
Q 2388 3097 2138 3097 
Q 1578 3097 1268 2742 
Q 959 2388 959 1747 
Q 959 1106 1268 751 
Q 1578 397 2138 397 
Q 2388 397 2633 464 
Q 2878 531 3122 666 
L 3122 134 
Q 2881 22 2623 -34 
Q 2366 -91 2075 -91 
Q 1284 -91 818 406 
Q 353 903 353 1747 
Q 353 2603 823 3093 
Q 1294 3584 2113 3584 
Q 2378 3584 2631 3529 
Q 2884 3475 3122 3366 
z
" transform="scale(0.015625)"/>
       <path id="DejaVuSans-74" d="M 1172 4494 
L 1172 3500 
L 2356 3500 
L 2356 3053 
L 1172 3053 
L 1172 1153 
Q 1172 725 1289 603 
Q 1406 481 1766 481 
L 2356 481 
L 2356 0 
L 1766 0 
Q 1100 0 847 248 
Q 594 497 594 1153 
L 594 3053 
L 172 3053 
L 172 3500 
L 594 3500 
L 594 4494 
L 1172 4494 
z
" transform="scale(0.015625)"/>
       <path id="DejaVuSans-75" d="M 544 1381 
L 544 3500 
L 1119 3500 
L 1119 1403 
Q 1119 906 1312 657 
Q 1506 409 1894 409 
Q 2359 409 2629 706 
Q 2900 1003 2900 1516 
L 2900 3500 
L 3475 3500 
L 3475 0 
L 2900 0 
L 2900 538 
Q 2691 219 2414 64 
Q 2138 -91 1772 -91 
Q 1169 -91 856 284 
Q 544 659 544 1381 
z
M 1991 3584 
L 1991 3584 
z
" transform="scale(0.015625)"/>
       <path id="DejaVuSans-2c" d="M 750 794 
L 1409 794 
L 1409 256 
L 897 -744 
L 494 -744 
L 750 256 
L 750 794 
z
" transform="scale(0.015625)"/>
       <path id="DejaVuSans-70" d="M 1159 525 
L 1159 -1331 
L 581 -1331 
L 581 3500 
L 1159 3500 
L 1159 2969 
Q 1341 3281 1617 3432 
Q 1894 3584 2278 3584 
Q 2916 3584 3314 3078 
Q 3713 2572 3713 1747 
Q 3713 922 3314 415 
Q 2916 -91 2278 -91 
Q 1894 -91 1617 61 
Q 1341 213 1159 525 
z
M 3116 1747 
Q 3116 2381 2855 2742 
Q 2594 3103 2138 3103 
Q 1681 3103 1420 2742 
Q 1159 2381 1159 1747 
Q 1159 1113 1420 752 
Q 1681 391 2138 391 
Q 2594 391 2855 752 
Q 3116 1113 3116 1747 
z
" transform="scale(0.015625)"/>
      </defs>
      <use xlink:href="#DejaVuSans-46"/>
      <use xlink:href="#DejaVuSans-72" x="50.269531"/>
      <use xlink:href="#DejaVuSans-61" x="91.382812"/>
      <use xlink:href="#DejaVuSans-63" x="152.662109"/>
      <use xlink:href="#DejaVuSans-74" x="207.642578"/>
      <use xlink:href="#DejaVuSans-69" x="246.851562"/>
      <use xlink:href="#DejaVuSans-6f" x="274.634766"/>
      <use xlink:href="#DejaVuSans-6e" x="335.816406"/>
      <use xlink:href="#DejaVuSans-20" x="399.195312"/>
      <use xlink:href="#DejaVuSans-6f" x="430.982422"/>
      <use xlink:href="#DejaVuSans-66" x="492.164062"/>
      <use xlink:href="#DejaVuSans-20" x="527.369141"/>
      <use xlink:href="#DejaVuSans-66" x="559.15625"/>
      <use xlink:href="#DejaVuSans-75" x="594.361328"/>
      <use xlink:href="#DejaVuSans-6e" x="657.740234"/>
      <use xlink:href="#DejaVuSans-63" x="721.119141"/>
      <use xlink:href="#DejaVuSans-74" x="776.099609"/>
      <use xlink:href="#DejaVuSans-69" x="815.308594"/>
      <use xlink:href="#DejaVuSans-6f" x="843.091797"/>
      <use xlink:href="#DejaVuSans-6e" x="904.273438"/>
      <use xlink:href="#DejaVuSans-2c" x="967.652344"/>
      <use xlink:href="#DejaVuSans-74" x="999.439453"/>
      <use xlink:href="#DejaVuSans-61" x="1038.648438"/>
      <use xlink:href="#DejaVuSans-72" x="1099.927734"/>
      <use xlink:href="#DejaVuSans-67" x="1139.291016"/>
      <use xlink:href="#DejaVuSans-65" x="1202.767578"/>
      <use xlink:href="#DejaVuSans-74" x="1264.291016"/>
      <use xlink:href="#DejaVuSans-20" x="1303.5"/>
      <use xlink:href="#DejaVuSans-70" x="1335.287109"/>
      <use xlink:href="#DejaVuSans-61" x="1398.763672"/>
      <use xlink:href="#DejaVuSans-69" x="1460.042969"/>
      <use xlink:href="#DejaVuSans-72" x="1487.826172"/>
      <use xlink:href="#DejaVuSans-73" x="1528.939453"/>
     </g>
    </g>
   </g>
   <g id="line2d_33">
    <defs>
     <path id="mdecba8753a" d="M 0 1.5 
C 0.397805 1.5 0.77937 1.341951 1.06066 1.06066 
C 1.341951 0.77937 1.5 0.397805 1.5 0 
C 1.5 -0.397805 1.341951 -0.77937 1.06066 -1.06066 
C 0.77937 -1.341951 0.397805 -1.5 0 -1.5 
C -0.397805 -1.5 -0.77937 -1.341951 -1.06066 -1.06066 
C -1.341951 -0.77937 -1.5 -0.397805 -1.5 0 
C -1.5 0.397805 -1.341951 0.77937 -1.06066 1.06066 
C -0.77937 1.341951 -0.397805 1.5 0 1.5 
z
" style="stroke: #f5deb3"/>
    </defs>
    <g>
     <use xlink:href="#mdecba8753a" x="363.638771" y="102.577655" style="fill: #f5deb3; stroke: #f5deb3"/>
     <use xlink:href="#mdecba8753a" x="363.638771" y="102.577655" style="fill: #f5deb3; stroke: #f5deb3"/>
    </g>
   </g>
   <g id="line2d_34">
    <defs>
     <path id="m783ab853b7" d="M 0 1.5 
C 0.397805 1.5 0.77937 1.341951 1.06066 1.06066 
C 1.341951 0.77937 1.5 0.397805 1.5 0 
C 1.5 -0.397805 1.341951 -0.77937 1.06066 -1.06066 
C 0.77937 -1.341951 0.397805 -1.5 0 -1.5 
C -0.397805 -1.5 -0.77937 -1.341951 -1.06066 -1.06066 
C -1.341951 -0.77937 -1.5 -0.397805 -1.5 0 
C -1.5 0.397805 -1.341951 0.77937 -1.06066 1.06066 
C -0.77937 1.341951 -0.397805 1.5 0 1.5 
z
" style="stroke: #000080"/>
    </defs>
    <g>
     <use xlink:href="#m783ab853b7" x="187.41535" y="239.02709" style="fill: #000080; stroke: #000080"/>
     <use xlink:href="#m783ab853b7" x="187.41535" y="239.02709" style="fill: #000080; stroke: #000080"/>
    </g>
   </g>
   <g id="line2d_35">
    <path d="M 1.245626 298.944 
L 1.245626 288.873931 
L 14.2848 288.873931 
L 14.2848 288.748055 
L 87.303041 288.748055 
L 87.303041 288.622179 
L 91.616719 288.622179 
L 91.616719 288.496303 
L 108.605229 288.496303 
L 108.605229 288.370428 
L 115.183135 288.370428 
L 115.183135 288.244552 
L 117.107771 288.244552 
L 117.107771 288.118676 
L 117.962989 288.118676 
L 117.962989 287.9928 
L 120.182892 287.9928 
L 120.182892 287.866924 
L 123.936316 287.866924 
L 123.936316 287.741048 
L 124.292554 287.741048 
L 124.292554 287.615172 
L 124.508471 287.615172 
L 124.508471 287.489297 
L 125.089773 287.489297 
L 125.089773 287.363421 
L 125.804545 287.363421 
L 125.804545 287.237545 
L 127.203997 287.237545 
L 127.203997 287.111669 
L 127.480982 287.111669 
L 127.480982 286.985793 
L 127.911368 286.985793 
L 127.911368 286.859917 
L 130.540507 286.859917 
L 130.540507 286.734041 
L 130.964122 286.734041 
L 130.964122 286.608166 
L 132.037244 286.608166 
L 132.037244 286.230538 
L 132.287354 286.230538 
L 132.358208 285.727034 
L 132.534182 285.727034 
L 132.534182 285.601159 
L 132.898456 285.601159 
L 132.898456 285.475283 
L 133.289492 285.475283 
L 133.373435 285.223531 
L 133.523594 285.223531 
L 133.523594 285.097655 
L 134.526683 285.097655 
L 134.526683 284.971779 
L 134.730392 284.971779 
L 134.730392 284.720028 
L 134.962732 284.720028 
L 134.962732 284.594152 
L 135.328609 284.594152 
L 135.328609 284.468276 
L 136.025138 284.468276 
L 136.025138 284.3424 
L 136.25649 284.3424 
L 136.299553 284.090648 
L 136.527575 284.090648 
L 136.527575 283.964772 
L 136.668697 283.964772 
L 136.668697 283.838897 
L 136.836659 283.838897 
L 136.836659 283.713021 
L 136.97549 283.713021 
L 137.030737 283.461269 
L 137.507349 283.461269 
L 137.534223 283.209517 
L 137.641335 283.209517 
L 137.721271 282.957766 
L 137.893309 282.957766 
L 137.893309 282.83189 
L 138.400179 282.83189 
L 138.400179 282.706014 
L 138.718057 282.706014 
L 138.718057 282.580138 
L 138.931186 282.580138 
L 138.931186 282.454262 
L 139.043049 282.454262 
L 139.043049 282.328386 
L 139.15425 282.328386 
L 139.15425 282.076634 
L 139.471855 282.076634 
L 139.471855 281.950759 
L 140.079694 281.950759 
L 140.14993 281.573131 
L 140.20826 281.573131 
L 140.20826 281.447255 
L 140.520157 281.447255 
L 140.600182 281.069628 
L 140.645758 281.069628 
L 140.747902 280.692 
L 140.871997 280.692 
L 140.928134 280.314372 
L 141.039908 280.314372 
L 141.039908 280.062621 
L 141.151022 280.062621 
L 141.151022 279.936745 
L 141.371301 279.936745 
L 141.382247 279.684993 
L 141.750688 279.684993 
L 141.750688 279.559117 
L 141.889677 279.559117 
L 141.889677 279.433241 
L 142.027647 279.433241 
L 142.048783 279.055614 
L 142.164612 279.055614 
L 142.175106 278.677986 
L 142.290162 278.677986 
L 142.290162 278.55211 
L 142.528483 278.55211 
L 142.569624 278.300359 
L 143.01633 278.300359 
L 143.116392 277.922731 
L 143.176174 277.922731 
L 143.176174 277.796855 
L 143.314933 277.796855 
L 143.38393 277.293352 
L 143.667109 277.293352 
L 143.734829 277.0416 
L 144.117191 277.0416 
L 144.117191 276.915724 
L 144.239803 276.915724 
L 144.249202 276.663972 
L 144.473374 276.663972 
L 144.510478 276.412221 
L 144.71325 276.412221 
L 144.71325 276.286345 
L 144.832051 276.286345 
L 144.832051 276.160469 
L 145.317653 276.160469 
L 145.317653 276.034593 
L 145.432709 276.034593 
L 145.520737 275.782841 
L 145.860163 275.782841 
L 145.868787 275.53109 
L 146.30341 275.53109 
L 146.328666 275.279338 
L 146.629123 275.279338 
L 146.637401 275.027586 
L 146.744684 275.027586 
L 146.851358 274.775834 
L 147.062909 274.775834 
L 147.143646 274.524083 
L 147.375841 274.524083 
L 147.46317 274.146455 
L 147.502732 274.146455 
L 147.502732 274.020579 
L 147.785146 274.020579 
L 147.785146 273.894703 
L 148.086384 273.894703 
L 148.086384 273.768828 
L 148.261802 273.768828 
L 148.261802 273.642952 
L 148.382875 273.642952 
L 148.382875 273.517076 
L 148.637595 273.517076 
L 148.697031 273.139448 
L 148.866872 273.139448 
L 148.962194 272.887697 
L 149.245299 272.887697 
L 149.338728 272.384193 
L 149.367382 272.384193 
L 149.367382 272.258317 
L 149.524205 272.258317 
L 149.524205 271.88069 
L 150.214167 271.88069 
L 150.214167 271.754814 
L 150.713857 271.754814 
L 150.713857 271.628938 
L 150.85989 271.628938 
L 150.945652 271.125434 
L 151.142085 271.125434 
L 151.142085 270.999559 
L 151.535282 270.999559 
L 151.535282 270.747807 
L 151.864098 270.747807 
L 151.864098 270.621931 
L 152.045009 270.621931 
L 152.045009 270.496055 
L 152.504972 270.496055 
L 152.583568 270.118428 
L 153.101268 270.118428 
L 153.200785 269.866676 
L 153.351976 269.866676 
L 153.427118 269.237297 
L 154.090224 269.237297 
L 154.090224 269.111421 
L 154.306165 269.111421 
L 154.377597 268.859669 
L 154.606544 268.859669 
L 154.649839 268.23029 
L 155.008573 268.23029 
L 155.008573 268.104414 
L 155.282353 268.104414 
L 155.282353 267.978538 
L 155.417764 267.978538 
L 155.490275 267.60091 
L 155.685695 267.60091 
L 155.685695 267.349159 
L 155.818243 267.349159 
L 155.818243 267.223283 
L 156.040449 267.223283 
L 156.040449 267.097407 
L 156.403417 267.097407 
L 156.403417 266.971531 
L 156.93267 266.971531 
L 156.93267 266.845655 
L 157.363398 266.845655 
L 157.363398 266.719779 
L 157.711126 266.719779 
L 157.807349 266.468028 
L 158.084094 266.468028 
L 158.173952 265.964524 
L 158.463058 265.964524 
L 158.52035 265.712772 
L 158.634413 265.712772 
L 158.691186 265.335145 
L 158.747788 265.335145 
L 158.747788 265.209269 
L 158.91658 265.209269 
L 158.91658 264.957517 
L 159.577 264.957517 
L 159.631002 264.705766 
L 159.951802 264.705766 
L 159.955879 264.328138 
L 160.391127 264.328138 
L 160.391127 264.202262 
L 160.577441 264.202262 
L 160.640448 263.824634 
L 161.044929 263.824634 
L 161.044929 263.698759 
L 161.17912 263.698759 
L 161.23253 263.195255 
L 161.331318 263.195255 
L 161.331318 263.069379 
L 161.444664 263.069379 
L 161.444664 262.943503 
L 161.684209 262.943503 
L 161.721364 262.44 
L 161.876619 262.44 
L 161.961099 262.062372 
L 162.008681 262.062372 
L 162.008681 261.936497 
L 162.197817 261.936497 
L 162.197817 261.810621 
L 162.388653 261.810621 
L 162.388653 261.684745 
L 162.616545 261.684745 
L 162.708343 261.055366 
L 162.799696 261.055366 
L 162.799696 260.803614 
L 162.921974 260.803614 
L 162.921974 260.677738 
L 163.160733 260.677738 
L 163.246497 260.425986 
L 163.602498 260.425986 
L 163.636055 260.174234 
L 164.259262 260.174234 
L 164.288429 259.922483 
L 164.663551 259.922483 
L 164.663551 259.796607 
L 164.868764 259.796607 
L 164.868764 259.670731 
L 165.043786 259.670731 
L 165.112101 259.293103 
L 165.312505 259.293103 
L 165.37374 258.915476 
L 165.544147 258.915476 
L 165.550204 258.663724 
L 165.784938 258.663724 
L 165.784938 258.537848 
L 166.093428 258.537848 
L 166.114011 258.286097 
L 166.272043 258.286097 
L 166.272043 258.034345 
L 166.538263 258.034345 
L 166.621405 257.530841 
L 166.729796 257.530841 
L 166.729796 257.27909 
L 167.026092 257.27909 
L 167.026092 257.027338 
L 167.207201 257.027338 
L 167.207201 256.901462 
L 167.392076 256.901462 
L 167.392076 256.775586 
L 167.545216 256.775586 
L 167.596893 256.397959 
L 168.084835 256.397959 
L 168.084835 256.272083 
L 168.258701 256.272083 
L 168.326754 255.894455 
L 168.449153 255.894455 
L 168.449153 255.768579 
L 168.645404 255.768579 
L 168.645404 255.642703 
L 168.798906 255.642703 
L 168.798906 255.516828 
L 169.026835 255.516828 
L 169.127258 255.1392 
L 169.172273 255.1392 
L 169.222165 254.509821 
L 169.834893 254.509821 
L 169.834893 254.383945 
L 170.528496 254.383945 
L 170.528496 254.258069 
L 170.768667 254.258069 
L 170.768667 254.132193 
L 171.188458 254.132193 
L 171.286936 253.880441 
L 171.418183 253.880441 
L 171.418183 253.754566 
L 171.592498 253.754566 
L 171.592498 253.502814 
L 172.584948 253.502814 
L 172.584948 253.376938 
L 172.71575 253.376938 
L 172.742628 252.99931 
L 173.340452 252.99931 
L 173.340452 252.873434 
L 173.4522 252.873434 
L 173.4522 252.747559 
L 173.803054 252.747559 
L 173.803054 252.495807 
L 173.981862 252.495807 
L 173.981862 252.369931 
L 174.239295 252.369931 
L 174.239295 252.244055 
L 174.448019 252.244055 
L 174.487605 251.614676 
L 174.566526 251.614676 
L 174.594633 251.237048 
L 175.193513 251.237048 
L 175.193513 250.985297 
L 175.330851 250.985297 
L 175.330851 250.733545 
L 175.751039 250.733545 
L 175.751039 250.607669 
L 176.001152 250.607669 
L 176.001152 250.481793 
L 176.715418 250.481793 
L 176.770537 250.230041 
L 177.074943 250.230041 
L 177.160085 249.726538 
L 177.244844 249.726538 
L 177.244844 249.474786 
L 177.393873 249.474786 
L 177.414837 249.097159 
L 177.560931 249.097159 
L 177.612036 248.719531 
L 178.042475 248.719531 
L 178.053383 248.467779 
L 178.438879 248.467779 
L 178.438879 248.341903 
L 178.631727 248.341903 
L 178.631727 248.216028 
L 178.882341 248.216028 
L 178.95376 247.586648 
L 179.001223 247.586648 
L 179.001223 247.460772 
L 179.39119 247.460772 
L 179.457815 247.209021 
L 179.560189 247.209021 
L 179.644839 246.705517 
L 179.700586 246.705517 
L 179.777501 246.32789 
L 180.140708 246.32789 
L 180.140708 246.202014 
L 180.356967 246.202014 
L 180.356967 246.076138 
L 180.588476 246.076138 
L 180.588476 245.950262 
L 180.903055 245.950262 
L 180.903055 245.824386 
L 181.03913 245.824386 
L 181.03913 245.69851 
L 181.197967 245.69851 
L 181.197967 245.572634 
L 181.725635 245.572634 
L 181.725635 245.320883 
L 181.963783 245.320883 
L 181.963783 245.069131 
L 182.172691 245.069131 
L 182.172691 244.943255 
L 182.408989 244.943255 
L 182.473146 244.691503 
L 182.537085 244.691503 
L 182.537085 244.439752 
L 182.686248 244.439752 
L 182.686248 244.313876 
L 183.08747 244.313876 
L 183.08747 244.188 
L 183.226433 244.188 
L 183.226433 244.062124 
L 183.522295 244.062124 
L 183.546742 243.684497 
L 183.637266 243.684497 
L 183.652311 243.432745 
L 183.787178 243.432745 
L 183.787178 243.306869 
L 183.980294 243.306869 
L 184.009829 242.803366 
L 184.133147 242.803366 
L 184.200685 242.425738 
L 184.302657 242.425738 
L 184.36068 241.922234 
L 184.432957 241.922234 
L 184.432957 241.796359 
L 185.430409 241.796359 
L 185.430409 241.670483 
L 185.620997 241.670483 
L 185.620997 241.544607 
L 186.000562 241.544607 
L 186.000562 241.418731 
L 186.20772 241.418731 
L 186.312458 240.789352 
L 186.533109 240.789352 
L 186.621243 240.411724 
L 186.68732 240.411724 
L 186.69913 240.159972 
L 186.840276 240.159972 
L 186.840276 239.908221 
L 186.979401 239.908221 
L 186.979401 239.782345 
L 187.167475 239.782345 
L 187.167475 239.530593 
L 187.403034 239.530593 
L 187.41535 239.02709 
L 360.8064 239.02709 
L 360.8064 239.02709 
" style="fill: none; stroke: #000080; stroke-width: 1.5; stroke-linecap: square"/>
   </g>
   <g id="line2d_36">
    <defs>
     <path id="ma2ea221c11" d="M 0 6 
C 1.591219 6 3.117479 5.367802 4.242641 4.242641 
C 5.367802 3.117479 6 1.591219 6 0 
C 6 -1.591219 5.367802 -3.117479 4.242641 -4.242641 
C 3.117479 -5.367802 1.591219 -6 0 -6 
C -1.591219 -6 -3.117479 -5.367802 -4.242641 -4.242641 
C -5.367802 -3.117479 -6 -1.591219 -6 0 
C -6 1.591219 -5.367802 3.117479 -4.242641 4.242641 
C -3.117479 5.367802 -1.591219 6 0 6 
z
" style="stroke: #000080; stroke-width: 1.5"/>
    </defs>
    <g>
     <use xlink:href="#ma2ea221c11" x="108.605229" y="288.370428" style="fill-opacity: 0; stroke: #000080; stroke-width: 1.5"/>
     <use xlink:href="#ma2ea221c11" x="162.921974" y="260.677738" style="fill-opacity: 0; stroke: #000080; stroke-width: 1.5"/>
     <use xlink:href="#ma2ea221c11" x="187.41535" y="239.278841" style="fill-opacity: 0; stroke: #000080; stroke-width: 1.5"/>
     <use xlink:href="#ma2ea221c11" x="187.41535" y="239.02709" style="fill-opacity: 0; stroke: #000080; stroke-width: 1.5"/>
     <use xlink:href="#ma2ea221c11" x="187.41535" y="239.02709" style="fill-opacity: 0; stroke: #000080; stroke-width: 1.5"/>
     <use xlink:href="#ma2ea221c11" x="360.8064" y="239.02709" style="fill-opacity: 0; stroke: #000080; stroke-width: 1.5"/>
    </g>
   </g>
   <g id="line2d_37">
    <path style="fill: none; stroke: #000080; stroke-width: 1.5; stroke-linecap: square"/>
    <g/>
   </g>
   <g id="line2d_38">
    <path d="M 187.549362 239.02709 
" clip-path="url(#p0b492dc73b)" style="fill: none; stroke: #000080; stroke-width: 1.5; stroke-linecap: square"/>
    <defs>
     <path id="m740ce3ee94" d="M -12 12 
L 12 -12 
M -12 -12 
L 12 12 
" style="stroke: #000080"/>
    </defs>
    <g clip-path="url(#p0b492dc73b)">
     <use xlink:href="#m740ce3ee94" x="187.549362" y="239.02709" style="fill: #000080; stroke: #000080"/>
    </g>
   </g>
   <g id="line2d_39">
    <defs>
     <path id="m5a03ff3d66" d="M 0 1.5 
C 0.397805 1.5 0.77937 1.341951 1.06066 1.06066 
C 1.341951 0.77937 1.5 0.397805 1.5 0 
C 1.5 -0.397805 1.341951 -0.77937 1.06066 -1.06066 
C 0.77937 -1.341951 0.397805 -1.5 0 -1.5 
C -0.397805 -1.5 -0.77937 -1.341951 -1.06066 -1.06066 
C -1.341951 -0.77937 -1.5 -0.397805 -1.5 0 
C -1.5 0.397805 -1.341951 0.77937 -1.06066 1.06066 
C -0.77937 1.341951 -0.397805 1.5 0 1.5 
z
" style="stroke: #ff00ff"/>
    </defs>
    <g>
     <use xlink:href="#m5a03ff3d66" x="187.513593" y="240.663476" style="fill: #ff00ff; stroke: #ff00ff"/>
     <use xlink:href="#m5a03ff3d66" x="187.513593" y="240.663476" style="fill: #ff00ff; stroke: #ff00ff"/>
    </g>
   </g>
   <g id="line2d_40">
    <path d="M 1.245626 298.944 
L 1.245626 288.873931 
L 21.912228 288.873931 
L 21.912228 288.748055 
L 37.851216 288.748055 
L 37.851216 288.622179 
L 100.342215 288.622179 
L 100.342215 288.496303 
L 100.726138 288.496303 
L 100.726138 288.370428 
L 105.26277 288.370428 
L 105.26277 288.244552 
L 108.22646 288.244552 
L 108.22646 288.118676 
L 111.709277 288.118676 
L 111.709277 287.9928 
L 116.501546 287.9928 
L 116.501546 287.866924 
L 117.962989 287.866924 
L 117.962989 287.741048 
L 118.817362 287.741048 
L 118.889854 287.489297 
L 121.613129 287.489297 
L 121.613129 287.363421 
L 122.259215 287.363421 
L 122.259215 287.237545 
L 122.795872 287.237545 
L 122.795872 287.111669 
L 123.601383 287.111669 
L 123.601383 286.985793 
L 124.695386 286.985793 
L 124.695386 286.859917 
L 125.245241 286.859917 
L 125.296779 286.608166 
L 125.577745 286.608166 
L 125.577745 286.48229 
L 126.420564 286.48229 
L 126.420564 286.356414 
L 127.572412 286.356414 
L 127.572412 286.230538 
L 127.866525 286.230538 
L 127.866525 286.104662 
L 128.111848 286.104662 
L 128.111848 285.978786 
L 128.354013 285.978786 
L 128.354013 285.85291 
L 129.020168 285.85291 
L 129.020168 285.727034 
L 129.188317 285.727034 
L 129.188317 285.601159 
L 129.334225 285.601159 
L 129.354977 285.349407 
L 129.458394 285.349407 
L 129.458394 285.223531 
L 129.7043 285.223531 
L 129.7043 285.097655 
L 130.146945 285.097655 
L 130.146945 284.971779 
L 130.325068 284.971779 
L 130.325068 284.845903 
L 130.46245 284.845903 
L 130.46245 284.594152 
L 131.096932 284.594152 
L 131.134706 284.3424 
L 131.526822 284.3424 
L 131.526822 284.216524 
L 131.747272 284.216524 
L 131.765527 283.964772 
L 132.19841 283.964772 
L 132.269599 283.587145 
L 132.340519 283.587145 
L 132.375879 283.335393 
L 132.604114 283.335393 
L 132.604114 283.209517 
L 133.154399 283.209517 
L 133.25581 282.957766 
L 133.323114 282.957766 
L 133.390178 282.706014 
L 133.72196 282.706014 
L 133.72196 282.580138 
L 133.885683 282.580138 
L 133.885683 282.454262 
L 133.999446 282.454262 
L 133.999446 282.328386 
L 134.22493 282.328386 
L 134.22493 282.20251 
L 134.463557 282.20251 
L 134.495147 281.950759 
L 134.839175 281.950759 
L 134.839175 281.824883 
L 135.35878 281.824883 
L 135.388902 281.447255 
L 135.805631 281.447255 
L 135.805631 281.321379 
L 135.92302 281.321379 
L 136.025138 281.069628 
L 136.499223 281.069628 
L 136.598268 280.817876 
L 136.92008 280.817876 
L 136.92008 280.692 
L 137.399469 280.692 
L 137.399469 280.566124 
L 137.547645 280.566124 
L 137.601239 280.188497 
L 137.668018 280.188497 
L 137.668018 280.062621 
L 137.787626 280.062621 
L 137.800869 279.810869 
L 138.03766 279.810869 
L 138.063788 279.559117 
L 138.193882 279.559117 
L 138.206842 279.307366 
L 138.943648 279.307366 
L 138.943648 279.18149 
L 139.215746 279.18149 
L 139.228021 278.929738 
L 139.386872 278.929738 
L 139.386872 278.55211 
L 139.580558 278.55211 
L 139.580558 278.426234 
L 140.091418 278.426234 
L 140.091418 278.300359 
L 140.474275 278.300359 
L 140.577352 277.922731 
L 140.645758 277.922731 
L 140.691224 277.670979 
L 140.905699 277.670979 
L 140.950542 277.419228 
L 141.039908 277.419228 
L 141.039908 277.293352 
L 141.50224 277.293352 
L 141.610664 276.915724 
L 141.65386 276.915724 
L 141.761416 276.663972 
L 142.090985 276.663972 
L 142.090985 276.538097 
L 142.723105 276.538097 
L 142.814596 276.286345 
L 142.875344 276.286345 
L 142.976156 276.034593 
L 143.19606 276.034593 
L 143.245681 275.656966 
L 143.35439 275.656966 
L 143.38393 275.405214 
L 143.521169 275.405214 
L 143.628302 275.153462 
L 143.840756 275.153462 
L 143.840756 275.027586 
L 143.965177 275.027586 
L 143.965177 274.90171 
L 144.749884 274.90171 
L 144.841158 274.524083 
L 145.013368 274.524083 
L 145.094395 274.146455 
L 145.175073 274.146455 
L 145.21082 273.894703 
L 145.773713 273.894703 
L 145.877406 273.642952 
L 146.512849 273.642952 
L 146.546143 273.265324 
L 146.785784 273.265324 
L 146.785784 273.013572 
L 147.054816 273.013572 
L 147.054816 272.887697 
L 147.191922 272.887697 
L 147.296097 272.510069 
L 147.660152 272.510069 
L 147.660152 272.384193 
L 148.208587 272.384193 
L 148.276979 272.132441 
L 148.607806 272.132441 
L 148.607806 272.006566 
L 148.734084 272.006566 
L 148.77845 271.628938 
L 148.852164 271.628938 
L 148.852164 271.503062 
L 149.180344 271.503062 
L 149.288477 271.25131 
L 149.331557 271.25131 
L 149.331557 271.125434 
L 149.460208 271.125434 
L 149.460208 270.999559 
L 149.644498 270.999559 
L 149.644498 270.873683 
L 149.875833 270.873683 
L 149.980053 270.496055 
L 149.993905 270.496055 
L 149.993905 270.370179 
L 150.275654 270.370179 
L 150.302917 270.118428 
L 150.39125 270.118428 
L 150.452162 269.7408 
L 150.767091 269.7408 
L 150.767091 269.614924 
L 151.239537 269.614924 
L 151.239537 269.489048 
L 151.381561 269.489048 
L 151.381561 269.363172 
L 151.845283 269.363172 
L 151.845283 269.111421 
L 152.187264 269.111421 
L 152.187264 268.859669 
L 152.352898 268.859669 
L 152.352898 268.733793 
L 152.553378 268.733793 
L 152.577534 268.356166 
L 153.030703 268.356166 
L 153.030703 268.23029 
L 153.404029 268.23029 
L 153.404029 268.104414 
L 153.701995 268.104414 
L 153.707679 267.726786 
L 154.129165 267.726786 
L 154.129165 267.60091 
L 154.568579 267.60091 
L 154.606544 267.097407 
L 154.816671 267.097407 
L 154.880856 266.845655 
L 154.960781 266.845655 
L 155.024477 266.468028 
L 155.391799 266.468028 
L 155.391799 266.342152 
L 155.608798 266.342152 
L 155.634465 266.0904 
L 155.863909 266.0904 
L 155.909463 265.712772 
L 155.97507 265.712772 
L 155.97507 265.586897 
L 156.314566 265.586897 
L 156.314566 265.461021 
L 156.677186 265.461021 
L 156.677186 265.335145 
L 157.442781 265.335145 
L 157.545018 264.957517 
L 157.953034 264.957517 
L 157.953034 264.831641 
L 158.383441 264.831641 
L 158.383441 264.57989 
L 158.946717 264.57989 
L 158.946717 264.328138 
L 159.113741 264.328138 
L 159.220034 263.95051 
L 159.601943 263.95051 
L 159.601943 263.824634 
L 160.057531 263.824634 
L 160.057531 263.698759 
L 160.355239 263.698759 
L 160.355239 263.572883 
L 160.466668 263.572883 
L 160.466668 263.321131 
L 160.605032 263.321131 
L 160.671872 262.943503 
L 160.750205 262.943503 
L 160.847664 262.565876 
L 161.025681 262.565876 
L 161.033383 262.188248 
L 161.471013 262.188248 
L 161.471013 262.062372 
L 161.594737 262.062372 
L 161.594737 261.936497 
L 161.751035 261.936497 
L 161.751035 261.684745 
L 161.935428 261.684745 
L 161.950101 261.181241 
L 162.581118 261.181241 
L 162.644838 260.92949 
L 163.325057 260.92949 
L 163.355708 260.677738 
L 163.622639 260.677738 
L 163.729694 260.425986 
L 163.82619 260.425986 
L 163.82619 260.174234 
L 164.155187 260.174234 
L 164.174745 259.922483 
L 164.548924 259.922483 
L 164.548924 259.670731 
L 164.679416 259.670731 
L 164.777484 259.293103 
L 164.834193 259.293103 
L 164.834193 259.167228 
L 165.025111 259.167228 
L 165.084184 258.663724 
L 165.207944 258.663724 
L 165.207944 258.537848 
L 165.966492 258.537848 
L 165.978336 258.286097 
L 166.315707 258.286097 
L 166.420087 257.908469 
L 166.486472 257.908469 
L 166.486472 257.782593 
L 166.695635 257.782593 
L 166.8036 257.404966 
L 166.826251 257.404966 
L 166.826251 257.27909 
L 167.534319 257.27909 
L 167.550662 257.027338 
L 168.140331 257.027338 
L 168.140331 256.775586 
L 168.326754 256.775586 
L 168.399768 256.397959 
L 168.438767 256.397959 
L 168.438767 256.272083 
L 168.575917 256.272083 
L 168.671075 255.768579 
L 168.77596 255.768579 
L 168.77596 255.642703 
L 169.006686 255.642703 
L 169.006686 255.516828 
L 169.234617 255.516828 
L 169.234617 255.390952 
L 169.385874 255.390952 
L 169.385874 255.265076 
L 169.655596 255.265076 
L 169.655596 255.013324 
L 170.533144 255.013324 
L 170.53779 254.761572 
L 170.720417 254.761572 
L 170.800764 254.383945 
L 171.134525 254.383945 
L 171.134525 254.258069 
L 171.340435 254.258069 
L 171.340435 254.132193 
L 171.537509 254.132193 
L 171.537509 254.006317 
L 171.9083 254.006317 
L 171.9083 253.880441 
L 172.186995 253.880441 
L 172.199758 253.502814 
L 172.436438 253.502814 
L 172.524431 253.251062 
L 172.726093 253.251062 
L 172.726093 253.125186 
L 172.960367 253.125186 
L 172.960367 252.99931 
L 173.368451 252.99931 
L 173.368451 252.873434 
L 173.652083 252.873434 
L 173.652083 252.747559 
L 174.039803 252.747559 
L 174.039803 252.495807 
L 174.47065 252.495807 
L 174.493253 252.118179 
L 174.630174 252.118179 
L 174.630174 251.992303 
L 174.847565 251.992303 
L 174.956244 251.740552 
L 175.078903 251.740552 
L 175.160839 251.4888 
L 175.44931 251.4888 
L 175.534995 251.111172 
L 175.823091 251.111172 
L 175.926293 250.733545 
L 176.254842 250.733545 
L 176.254842 250.607669 
L 176.5322 250.607669 
L 176.5322 250.481793 
L 177.106097 250.481793 
L 177.148646 250.230041 
L 177.233457 250.230041 
L 177.233457 249.97829 
L 177.570524 249.97829 
L 177.594485 249.474786 
L 178.062728 249.474786 
L 178.157474 249.223034 
L 178.327129 249.223034 
L 178.327129 249.097159 
L 178.484613 249.097159 
L 178.484613 248.845407 
L 178.625683 248.845407 
L 178.625683 248.719531 
L 178.815138 248.719531 
L 178.815138 248.593655 
L 179.43322 248.593655 
L 179.441905 248.341903 
L 180.254692 248.341903 
L 180.33904 248.090152 
L 180.48061 248.090152 
L 180.48061 247.964276 
L 180.70114 247.964276 
L 180.70114 247.8384 
L 180.901716 247.8384 
L 180.901716 247.712524 
L 181.064368 247.712524 
L 181.064368 247.460772 
L 181.810032 247.460772 
L 181.859726 247.209021 
L 182.104987 247.209021 
L 182.104987 247.083145 
L 182.318551 247.083145 
L 182.318551 246.957269 
L 182.705722 246.957269 
L 182.705722 246.831393 
L 183.052867 246.831393 
L 183.100578 246.453766 
L 183.201566 246.453766 
L 183.271346 245.950262 
L 183.334986 245.950262 
L 183.334986 245.824386 
L 183.511809 245.824386 
L 183.583933 245.320883 
L 183.721594 245.320883 
L 183.721594 245.195007 
L 183.927926 245.195007 
L 184.023445 244.817379 
L 184.366249 244.817379 
L 184.366249 244.691503 
L 184.51822 244.691503 
L 184.540303 244.439752 
L 184.740078 244.439752 
L 184.740078 244.313876 
L 184.891237 244.313876 
L 184.953953 243.810372 
L 185.021839 243.810372 
L 185.021839 243.558621 
L 185.450396 243.558621 
L 185.459856 243.055117 
L 185.654309 243.055117 
L 185.696903 242.67749 
L 185.931 242.67749 
L 185.931 242.551614 
L 186.20974 242.551614 
L 186.20974 242.299862 
L 186.453534 242.299862 
L 186.496348 241.796359 
L 186.745315 241.796359 
L 186.745315 241.544607 
L 186.986185 241.544607 
L 186.986185 241.292855 
L 187.134818 241.292855 
L 187.134818 241.041103 
L 187.432391 241.041103 
L 187.513593 240.663476 
L 360.8064 240.663476 
L 360.8064 240.663476 
" style="fill: none; stroke: #ff00ff; stroke-width: 1.5; stroke-linecap: square"/>
   </g>
   <g id="line2d_41">
    <defs>
     <path id="mfea021b356" d="M -0 8.485281 
L 5.091169 0 
L 0 -8.485281 
L -5.091169 -0 
z
" style="stroke: #ff00ff; stroke-width: 1.5; stroke-linejoin: miter"/>
    </defs>
    <g>
     <use xlink:href="#mfea021b356" x="100.726138" y="288.370428" style="fill-opacity: 0; stroke: #ff00ff; stroke-width: 1.5; stroke-linejoin: miter"/>
     <use xlink:href="#mfea021b356" x="173.652083" y="252.873434" style="fill-opacity: 0; stroke: #ff00ff; stroke-width: 1.5; stroke-linejoin: miter"/>
     <use xlink:href="#mfea021b356" x="187.513593" y="240.789352" style="fill-opacity: 0; stroke: #ff00ff; stroke-width: 1.5; stroke-linejoin: miter"/>
     <use xlink:href="#mfea021b356" x="187.513593" y="240.663476" style="fill-opacity: 0; stroke: #ff00ff; stroke-width: 1.5; stroke-linejoin: miter"/>
     <use xlink:href="#mfea021b356" x="187.513593" y="240.663476" style="fill-opacity: 0; stroke: #ff00ff; stroke-width: 1.5; stroke-linejoin: miter"/>
     <use xlink:href="#mfea021b356" x="360.8064" y="240.663476" style="fill-opacity: 0; stroke: #ff00ff; stroke-width: 1.5; stroke-linejoin: miter"/>
    </g>
   </g>
   <g id="line2d_42">
    <path style="fill: none; stroke: #ff00ff; stroke-width: 1.5; stroke-linecap: square"/>
    <g/>
   </g>
   <g id="line2d_43">
    <path d="M 187.554063 240.663476 
" clip-path="url(#p0b492dc73b)" style="fill: none; stroke: #ff00ff; stroke-width: 1.5; stroke-linecap: square"/>
    <defs>
     <path id="m8595548ffb" d="M -12 12 
L 12 -12 
M -12 -12 
L 12 12 
" style="stroke: #ff00ff"/>
    </defs>
    <g clip-path="url(#p0b492dc73b)">
     <use xlink:href="#m8595548ffb" x="187.554063" y="240.663476" style="fill: #ff00ff; stroke: #ff00ff"/>
    </g>
   </g>
   <g id="line2d_44">
    <defs>
     <path id="m10d19847bd" d="M 0 1.5 
C 0.397805 1.5 0.77937 1.341951 1.06066 1.06066 
C 1.341951 0.77937 1.5 0.397805 1.5 0 
C 1.5 -0.397805 1.341951 -0.77937 1.06066 -1.06066 
C 0.77937 -1.341951 0.397805 -1.5 0 -1.5 
C -0.397805 -1.5 -0.77937 -1.341951 -1.06066 -1.06066 
C -1.341951 -0.77937 -1.5 -0.397805 -1.5 0 
C -1.5 0.397805 -1.341951 0.77937 -1.06066 1.06066 
C -0.77937 1.341951 -0.397805 1.5 0 1.5 
z
" style="stroke: #ff7500"/>
    </defs>
    <g>
     <use xlink:href="#m10d19847bd" x="227.795266" y="226.313628" style="fill: #ff7500; stroke: #ff7500"/>
     <use xlink:href="#m10d19847bd" x="227.795266" y="226.313628" style="fill: #ff7500; stroke: #ff7500"/>
    </g>
   </g>
   <g id="line2d_45">
    <path d="M 1.245626 298.944 
L 1.245626 288.873931 
L 42.578831 288.873931 
L 42.578831 288.748055 
L 86.911119 288.748055 
L 86.911119 288.622179 
L 122.259215 288.622179 
L 122.259215 288.496303 
L 131.172405 288.496303 
L 131.172405 288.370428 
L 131.41562 288.370428 
L 131.41562 288.244552 
L 133.689044 288.244552 
L 133.689044 288.118676 
L 134.526683 288.118676 
L 134.526683 287.866924 
L 135.966853 287.866924 
L 135.966853 287.741048 
L 136.612375 287.741048 
L 136.612375 287.615172 
L 136.836659 287.615172 
L 136.836659 287.489297 
L 137.195511 287.489297 
L 137.195511 287.363421 
L 138.400179 287.363421 
L 138.400179 287.237545 
L 139.055437 287.237545 
L 139.055437 287.111669 
L 139.215746 287.111669 
L 139.215746 286.985793 
L 139.700607 286.985793 
L 139.700607 286.859917 
L 140.301214 286.859917 
L 140.301214 286.734041 
L 140.416765 286.734041 
L 140.451292 286.48229 
L 140.747902 286.48229 
L 140.747902 286.356414 
L 140.894472 286.356414 
L 140.894472 286.230538 
L 141.184229 286.230538 
L 141.184229 286.104662 
L 141.327451 286.104662 
L 141.327451 285.978786 
L 141.610664 285.978786 
L 141.610664 285.85291 
L 142.300587 285.85291 
L 142.300587 285.727034 
L 142.702713 285.727034 
L 142.702713 285.601159 
L 142.966099 285.601159 
L 142.966099 285.475283 
L 143.734829 285.475283 
L 143.734829 285.223531 
L 143.984246 285.223531 
L 143.984246 285.097655 
L 144.107726 285.097655 
L 144.107726 284.971779 
L 144.2304 284.971779 
L 144.2304 284.845903 
L 144.352279 284.845903 
L 144.352279 284.720028 
L 144.593695 284.720028 
L 144.593695 284.594152 
L 144.71325 284.594152 
L 144.71325 284.468276 
L 144.832051 284.468276 
L 144.832051 284.090648 
L 145.139259 284.090648 
L 145.139259 283.964772 
L 145.29989 283.964772 
L 145.29989 283.838897 
L 145.643288 283.838897 
L 145.643288 283.713021 
L 145.98053 283.713021 
L 146.091614 283.461269 
L 146.420983 283.461269 
L 146.529503 283.209517 
L 146.744684 283.209517 
L 146.851358 282.706014 
L 147.062909 282.706014 
L 147.167799 282.454262 
L 147.375841 282.454262 
L 147.383796 282.20251 
L 147.785146 282.20251 
L 147.785146 282.076634 
L 148.458151 282.076634 
L 148.458151 281.950759 
L 148.771063 281.950759 
L 148.771063 281.824883 
L 149.057037 281.824883 
L 149.151403 281.321379 
L 149.431695 281.321379 
L 149.524205 280.943752 
L 149.707872 280.943752 
L 149.707872 280.817876 
L 149.980053 280.817876 
L 149.980053 280.692 
L 150.159343 280.692 
L 150.159343 280.566124 
L 150.512877 280.566124 
L 150.600232 280.314372 
L 150.687184 280.314372 
L 150.687184 280.062621 
L 150.945652 280.062621 
L 150.945652 279.936745 
L 151.116012 279.936745 
L 151.148597 279.684993 
L 151.535282 279.684993 
L 151.535282 279.433241 
L 151.700408 279.433241 
L 151.782431 279.18149 
L 152.026375 279.18149 
L 152.026375 279.055614 
L 152.346789 279.055614 
L 152.346789 278.803862 
L 152.583568 278.803862 
L 152.583568 278.677986 
L 153.048369 278.677986 
L 153.048369 278.55211 
L 153.235783 278.55211 
L 153.276532 278.174483 
L 153.427118 278.174483 
L 153.501961 277.796855 
L 153.576508 277.796855 
L 153.650761 277.293352 
L 153.798392 277.293352 
L 153.871775 276.915724 
L 154.017689 276.915724 
L 154.090224 276.412221 
L 154.16248 276.412221 
L 154.179115 276.160469 
L 154.660647 276.160469 
L 154.730749 275.908717 
L 154.80059 275.908717 
L 154.870174 275.53109 
L 155.008573 275.53109 
L 155.008573 275.153462 
L 155.282353 275.153462 
L 155.282353 275.027586 
L 155.619069 275.027586 
L 155.685695 274.649959 
L 155.818243 274.649959 
L 155.818243 274.524083 
L 155.949864 274.524083 
L 156.055505 274.146455 
L 156.274942 274.146455 
L 156.339289 273.642952 
L 156.531019 273.642952 
L 156.531019 273.517076 
L 156.657763 273.517076 
L 156.720816 273.013572 
L 156.783658 273.013572 
L 156.875128 272.635945 
L 156.908716 272.635945 
L 156.970935 272.258317 
L 157.032948 272.258317 
L 157.094758 272.006566 
L 157.283678 272.006566 
L 157.382107 271.377186 
L 157.582058 271.377186 
L 157.642093 271.125434 
L 157.701936 271.125434 
L 157.701936 270.873683 
L 157.821055 270.873683 
L 157.821055 270.747807 
L 157.939424 270.747807 
L 157.939424 270.621931 
L 158.115593 270.621931 
L 158.115593 270.370179 
L 158.290128 270.370179 
L 158.290128 270.244303 
L 158.405591 270.244303 
L 158.405591 269.992552 
L 158.691186 269.992552 
L 158.691186 269.614924 
L 158.91658 269.614924 
L 158.91658 269.489048 
L 159.304637 269.489048 
L 159.338372 269.237297 
L 159.522842 269.237297 
L 159.522842 269.111421 
L 159.68485 269.111421 
L 159.738544 268.482041 
L 159.845475 268.482041 
L 159.898714 267.978538 
L 160.00474 267.978538 
L 160.00474 267.852662 
L 160.371198 267.852662 
L 160.474602 267.60091 
L 160.506304 267.60091 
L 160.541906 267.349159 
L 160.933013 267.349159 
L 160.933013 267.223283 
L 161.209658 267.223283 
L 161.23253 266.845655 
L 161.331318 266.845655 
L 161.380518 266.468028 
L 161.478535 266.468028 
L 161.478535 266.342152 
L 161.635798 266.342152 
L 161.635798 266.216276 
L 161.865571 266.216276 
L 161.935428 265.838648 
L 162.008681 265.838648 
L 162.008681 265.712772 
L 162.23036 265.712772 
L 162.23036 265.586897 
L 162.478002 265.586897 
L 162.570477 265.209269 
L 162.616545 265.209269 
L 162.708343 264.831641 
L 162.754075 264.831641 
L 162.799696 264.454014 
L 163.129762 264.454014 
L 163.232801 263.95051 
L 163.514971 263.95051 
L 163.602498 263.572883 
L 163.915587 263.572883 
L 163.991407 263.069379 
L 164.285191 263.069379 
L 164.288429 262.691752 
L 164.456074 262.691752 
L 164.456074 262.565876 
L 164.745905 262.565876 
L 164.831047 262.062372 
L 164.868764 262.062372 
L 164.950227 261.810621 
L 165.031338 261.810621 
L 165.031338 261.684745 
L 165.152353 261.684745 
L 165.220276 261.432993 
L 165.272594 261.432993 
L 165.272594 261.307117 
L 165.471304 261.307117 
L 165.471304 261.055366 
L 165.667937 261.055366 
L 165.667937 260.803614 
L 165.960567 260.803614 
L 165.960567 260.551862 
L 166.20782 260.551862 
L 166.248715 260.048359 
L 166.321521 260.048359 
L 166.350564 259.544855 
L 166.434538 259.544855 
L 166.535389 258.915476 
L 166.797933 258.915476 
L 166.843221 258.537848 
L 167.062453 258.537848 
L 167.16834 258.286097 
L 167.232141 258.286097 
L 167.232141 258.160221 
L 167.386583 258.160221 
L 167.386583 258.034345 
L 168.018555 258.034345 
L 168.018555 257.908469 
L 168.490639 257.908469 
L 168.495819 257.404966 
L 168.624842 257.404966 
L 168.696711 256.901462 
L 168.765753 256.901462 
L 168.765753 256.775586 
L 168.89548 256.775586 
L 168.961272 256.523834 
L 169.222165 256.523834 
L 169.222165 256.397959 
L 169.400686 256.397959 
L 169.499138 256.020331 
L 169.528573 256.020331 
L 169.528573 255.894455 
L 169.701795 255.894455 
L 169.796271 255.516828 
L 169.88787 255.516828 
L 169.88787 255.390952 
L 170.014887 255.390952 
L 170.081645 254.761572 
L 170.320502 254.761572 
L 170.414267 254.509821 
L 170.474965 254.509821 
L 170.474965 254.383945 
L 170.646655 254.383945 
L 170.646655 254.258069 
L 171.125521 254.258069 
L 171.222088 254.006317 
L 171.304786 254.006317 
L 171.342661 253.754566 
L 171.422616 253.754566 
L 171.438123 253.502814 
L 172.061022 253.502814 
L 172.097406 253.251062 
L 172.254968 253.251062 
L 172.301557 252.873434 
L 172.748826 252.873434 
L 172.748826 252.747559 
L 173.021536 252.747559 
L 173.021536 252.621683 
L 173.187724 252.621683 
L 173.284328 252.244055 
L 173.521707 252.244055 
L 173.521707 252.118179 
L 173.699269 252.118179 
L 173.799148 251.614676 
L 173.840121 251.614676 
L 173.925682 251.111172 
L 174.05137 251.111172 
L 174.151319 250.733545 
L 174.423472 250.733545 
L 174.448019 250.355917 
L 174.667513 250.355917 
L 174.667513 250.230041 
L 175.978552 250.230041 
L 176.082637 249.600662 
L 176.099928 249.600662 
L 176.182707 249.34891 
L 176.698683 249.34891 
L 176.75552 248.971283 
L 176.991062 248.971283 
L 176.991062 248.719531 
L 177.140471 248.719531 
L 177.140471 248.593655 
L 177.275719 248.593655 
L 177.275719 248.467779 
L 177.411613 248.467779 
L 177.411613 248.341903 
L 177.61682 248.341903 
L 177.635944 247.964276 
L 177.99409 247.964276 
L 177.99409 247.8384 
L 178.137322 247.8384 
L 178.21471 247.460772 
L 178.569685 247.460772 
L 178.569685 247.209021 
L 178.827103 247.209021 
L 178.827103 247.083145 
L 179.004186 247.083145 
L 179.107579 246.831393 
L 179.119359 246.831393 
L 179.119359 246.705517 
L 179.331607 246.705517 
L 179.363602 246.32789 
L 179.532848 246.32789 
L 179.532848 246.202014 
L 179.700586 246.202014 
L 179.700586 246.076138 
L 179.85835 246.076138 
L 179.882396 245.824386 
L 179.995142 245.824386 
L 180.04846 245.446759 
L 180.193616 245.446759 
L 180.193616 245.195007 
L 180.481979 245.195007 
L 180.481979 244.943255 
L 180.728188 244.943255 
L 180.76464 244.565628 
L 180.939171 244.565628 
L 180.939171 244.439752 
L 181.228258 244.439752 
L 181.325388 243.936248 
L 181.503895 243.936248 
L 181.604776 243.558621 
L 181.755089 243.558621 
L 181.821511 243.180993 
L 182.019383 243.180993 
L 182.068527 242.803366 
L 182.680157 242.803366 
L 182.790689 242.551614 
L 182.853559 242.551614 
L 182.884916 242.173986 
L 183.303193 242.173986 
L 183.303193 242.04811 
L 183.802104 242.04811 
L 183.802104 241.922234 
L 184.038185 241.922234 
L 184.038185 241.796359 
L 184.418524 241.796359 
L 184.432957 241.544607 
L 184.719321 241.544607 
L 184.776074 241.166979 
L 185.078761 241.166979 
L 185.078761 240.915228 
L 185.334385 240.915228 
L 185.430409 240.5376 
L 185.512326 240.5376 
L 185.512326 240.285848 
L 185.688599 240.285848 
L 185.688599 240.034097 
L 186.052566 240.034097 
L 186.141961 239.404717 
L 186.181444 239.404717 
L 186.261169 238.775338 
L 186.32551 238.775338 
L 186.32551 238.523586 
L 186.442566 238.523586 
L 186.442566 238.39771 
L 186.634082 238.39771 
L 186.634082 238.271834 
L 187.008459 238.271834 
L 187.054857 237.516579 
L 187.179947 237.516579 
L 187.179947 237.264828 
L 187.378377 237.264828 
L 187.426712 236.761324 
L 187.501341 236.761324 
L 187.501341 236.635448 
L 187.80528 236.635448 
L 187.913507 235.754317 
L 188.410493 235.754317 
L 188.410493 235.628441 
L 188.63019 235.628441 
L 188.63019 235.37669 
L 188.748791 235.37669 
L 188.748791 235.250814 
L 189.322279 235.250814 
L 189.411073 234.495559 
L 189.512163 234.495559 
L 189.512163 234.369683 
L 189.627875 234.369683 
L 189.674969 233.866179 
L 189.740368 233.866179 
L 189.740368 233.740303 
L 189.999716 233.740303 
L 190.022817 233.2368 
L 190.413676 233.2368 
L 190.413676 233.110924 
L 190.549663 233.110924 
L 190.643235 232.103917 
L 191.195099 232.103917 
L 191.195099 231.852166 
L 191.415372 231.852166 
L 191.415372 231.600414 
L 192.035212 231.600414 
L 192.099558 231.222786 
L 192.17619 231.222786 
L 192.242987 230.719283 
L 192.290555 230.719283 
L 192.290555 230.593407 
L 192.470223 230.593407 
L 192.470223 230.467531 
L 192.918036 230.467531 
L 192.918036 230.341655 
L 193.044851 230.341655 
L 193.044851 230.215779 
L 193.79572 230.215779 
L 193.79572 229.964028 
L 193.934194 229.964028 
L 193.990368 229.5864 
L 194.703834 229.5864 
L 194.703834 229.334648 
L 194.985866 229.334648 
L 195.04341 228.831145 
L 195.206858 228.831145 
L 195.206858 228.705269 
L 195.641205 228.705269 
L 195.641205 228.579393 
L 195.893941 228.579393 
L 195.893941 228.453517 
L 196.32822 228.453517 
L 196.32822 228.327641 
L 196.462779 228.327641 
L 196.462779 228.07589 
L 197.013215 228.07589 
L 197.013215 227.950014 
L 197.189792 227.950014 
L 197.189792 227.698262 
L 197.354121 227.698262 
L 197.354121 227.44651 
L 199.242349 227.44651 
L 199.242349 227.194759 
L 199.50118 227.194759 
L 199.50118 226.943007 
L 200.881525 226.943007 
L 200.881525 226.691255 
L 201.536602 226.691255 
L 201.536602 226.565379 
L 203.379218 226.565379 
L 203.379218 226.439503 
L 227.795266 226.439503 
L 227.795266 226.313628 
L 360.8064 226.313628 
L 360.8064 226.313628 
" style="fill: none; stroke: #ff7500; stroke-width: 1.5; stroke-linecap: square"/>
   </g>
   <g id="line2d_46">
    <defs>
     <path id="mafccd57882" d="M 0 -6 
L -1.347084 -1.854102 
L -5.706339 -1.854102 
L -2.179628 0.708204 
L -3.526712 4.854102 
L -0 2.291796 
L 3.526712 4.854102 
L 2.179628 0.708204 
L 5.706339 -1.854102 
L 1.347084 -1.854102 
z
" style="stroke: #ff7500; stroke-width: 1.5; stroke-linejoin: bevel"/>
    </defs>
    <g>
     <use xlink:href="#mafccd57882" x="122.259215" y="288.622179" style="fill-opacity: 0; stroke: #ff7500; stroke-width: 1.5; stroke-linejoin: bevel"/>
     <use xlink:href="#mafccd57882" x="170.646655" y="254.383945" style="fill-opacity: 0; stroke: #ff7500; stroke-width: 1.5; stroke-linejoin: bevel"/>
     <use xlink:href="#mafccd57882" x="227.795266" y="226.439503" style="fill-opacity: 0; stroke: #ff7500; stroke-width: 1.5; stroke-linejoin: bevel"/>
     <use xlink:href="#mafccd57882" x="227.795266" y="226.313628" style="fill-opacity: 0; stroke: #ff7500; stroke-width: 1.5; stroke-linejoin: bevel"/>
     <use xlink:href="#mafccd57882" x="227.795266" y="226.313628" style="fill-opacity: 0; stroke: #ff7500; stroke-width: 1.5; stroke-linejoin: bevel"/>
     <use xlink:href="#mafccd57882" x="360.8064" y="226.313628" style="fill-opacity: 0; stroke: #ff7500; stroke-width: 1.5; stroke-linejoin: bevel"/>
    </g>
   </g>
   <g id="line2d_47">
    <path style="fill: none; stroke: #ff7500; stroke-width: 1.5; stroke-linecap: square"/>
    <g/>
   </g>
   <g id="line2d_48">
    <path d="M 274.176075 226.313628 
" clip-path="url(#p0b492dc73b)" style="fill: none; stroke: #ff7500; stroke-width: 1.5; stroke-linecap: square"/>
    <defs>
     <path id="m7e5e23e230" d="M -12 12 
L 12 -12 
M -12 -12 
L 12 12 
" style="stroke: #ff7500"/>
    </defs>
    <g clip-path="url(#p0b492dc73b)">
     <use xlink:href="#m7e5e23e230" x="274.176075" y="226.313628" style="fill: #ff7500; stroke: #ff7500"/>
    </g>
   </g>
   <g id="line2d_49">
    <path d="M 360.8064 240.663476 
L 380.514816 293.10336 
" style="fill: none; stroke: #ff00ff; stroke-width: 1.5; stroke-linecap: square"/>
    <g>
     <use xlink:href="#mfea021b356" x="360.8064" y="240.663476" style="fill-opacity: 0; stroke: #ff00ff; stroke-width: 1.5; stroke-linejoin: miter"/>
     <use xlink:href="#mfea021b356" x="380.514816" y="293.10336" style="fill-opacity: 0; stroke: #ff00ff; stroke-width: 1.5; stroke-linejoin: miter"/>
    </g>
   </g>
   <g id="line2d_50">
    <path d="M 360.8064 239.02709 
L 380.514816 199.65312 
" style="fill: none; stroke: #000080; stroke-width: 1.5; stroke-linecap: square"/>
    <g>
     <use xlink:href="#ma2ea221c11" x="360.8064" y="239.02709" style="fill-opacity: 0; stroke: #000080; stroke-width: 1.5"/>
     <use xlink:href="#ma2ea221c11" x="380.514816" y="199.65312" style="fill-opacity: 0; stroke: #000080; stroke-width: 1.5"/>
    </g>
   </g>
   <g id="line2d_51">
    <path d="M 360.8064 226.313628 
L 380.514816 106.20288 
" style="fill: none; stroke: #ff7500; stroke-width: 1.5; stroke-linecap: square"/>
    <g>
     <use xlink:href="#mafccd57882" x="360.8064" y="226.313628" style="fill-opacity: 0; stroke: #ff7500; stroke-width: 1.5; stroke-linejoin: bevel"/>
     <use xlink:href="#mafccd57882" x="380.514816" y="106.20288" style="fill-opacity: 0; stroke: #ff7500; stroke-width: 1.5; stroke-linejoin: bevel"/>
    </g>
   </g>
   <g id="line2d_52">
    <path d="M 360.8064 298.944 
L 360.8064 6.912 
" style="fill: none; stroke: #000000; stroke-width: 1.5; stroke-linecap: square"/>
   </g>
   <g id="patch_3">
    <path d="M 57.6 298.944 
L 360.8064 298.944 
" style="fill: none; stroke: #000000; stroke-width: 0.8; stroke-linejoin: miter; stroke-linecap: square"/>
   </g>
   <g id="patch_4">
    <path d="M 57.6 6.912 
L 360.8064 6.912 
" style="fill: none; stroke: #000000; stroke-width: 0.8; stroke-linejoin: miter; stroke-linecap: square"/>
   </g>
   <g id="text_13">
    <!-- AllLQ -->
    <g transform="translate(386.578944 296.966485) scale(0.14 -0.14)">
     <defs>
      <path id="DejaVuSans-41" d="M 2188 4044 
L 1331 1722 
L 3047 1722 
L 2188 4044 
z
M 1831 4666 
L 2547 4666 
L 4325 0 
L 3669 0 
L 3244 1197 
L 1141 1197 
L 716 0 
L 50 0 
L 1831 4666 
z
" transform="scale(0.015625)"/>
      <path id="DejaVuSans-4c" d="M 628 4666 
L 1259 4666 
L 1259 531 
L 3531 531 
L 3531 0 
L 628 0 
L 628 4666 
z
" transform="scale(0.015625)"/>
      <path id="DejaVuSans-51" d="M 2522 4238 
Q 1834 4238 1429 3725 
Q 1025 3213 1025 2328 
Q 1025 1447 1429 934 
Q 1834 422 2522 422 
Q 3209 422 3611 934 
Q 4013 1447 4013 2328 
Q 4013 3213 3611 3725 
Q 3209 4238 2522 4238 
z
M 3406 84 
L 4238 -825 
L 3475 -825 
L 2784 -78 
Q 2681 -84 2626 -87 
Q 2572 -91 2522 -91 
Q 1538 -91 948 567 
Q 359 1225 359 2328 
Q 359 3434 948 4092 
Q 1538 4750 2522 4750 
Q 3503 4750 4090 4092 
Q 4678 3434 4678 2328 
Q 4678 1516 4351 937 
Q 4025 359 3406 84 
z
" transform="scale(0.015625)"/>
     </defs>
     <use xlink:href="#DejaVuSans-41"/>
     <use xlink:href="#DejaVuSans-6c" x="68.408203"/>
     <use xlink:href="#DejaVuSans-6c" x="96.191406"/>
     <use xlink:href="#DejaVuSans-4c" x="123.974609"/>
     <use xlink:href="#DejaVuSans-51" x="179.6875"/>
    </g>
   </g>
   <g id="text_14">
    <!-- AllComo -->
    <g transform="translate(386.578944 203.516245) scale(0.14 -0.14)">
     <defs>
      <path id="DejaVuSans-43" d="M 4122 4306 
L 4122 3641 
Q 3803 3938 3442 4084 
Q 3081 4231 2675 4231 
Q 1875 4231 1450 3742 
Q 1025 3253 1025 2328 
Q 1025 1406 1450 917 
Q 1875 428 2675 428 
Q 3081 428 3442 575 
Q 3803 722 4122 1019 
L 4122 359 
Q 3791 134 3420 21 
Q 3050 -91 2638 -91 
Q 1578 -91 968 557 
Q 359 1206 359 2328 
Q 359 3453 968 4101 
Q 1578 4750 2638 4750 
Q 3056 4750 3426 4639 
Q 3797 4528 4122 4306 
z
" transform="scale(0.015625)"/>
     </defs>
     <use xlink:href="#DejaVuSans-41"/>
     <use xlink:href="#DejaVuSans-6c" x="68.408203"/>
     <use xlink:href="#DejaVuSans-6c" x="96.191406"/>
     <use xlink:href="#DejaVuSans-43" x="123.974609"/>
     <use xlink:href="#DejaVuSans-6f" x="193.798828"/>
     <use xlink:href="#DejaVuSans-6d" x="254.980469"/>
     <use xlink:href="#DejaVuSans-6f" x="352.392578"/>
    </g>
   </g>
   <g id="text_15">
    <!-- COMO-10 d -->
    <g transform="translate(386.578944 110.066005) scale(0.14 -0.14)">
     <defs>
      <path id="DejaVuSans-4f" d="M 2522 4238 
Q 1834 4238 1429 3725 
Q 1025 3213 1025 2328 
Q 1025 1447 1429 934 
Q 1834 422 2522 422 
Q 3209 422 3611 934 
Q 4013 1447 4013 2328 
Q 4013 3213 3611 3725 
Q 3209 4238 2522 4238 
z
M 2522 4750 
Q 3503 4750 4090 4092 
Q 4678 3434 4678 2328 
Q 4678 1225 4090 567 
Q 3503 -91 2522 -91 
Q 1538 -91 948 565 
Q 359 1222 359 2328 
Q 359 3434 948 4092 
Q 1538 4750 2522 4750 
z
" transform="scale(0.015625)"/>
      <path id="DejaVuSans-4d" d="M 628 4666 
L 1569 4666 
L 2759 1491 
L 3956 4666 
L 4897 4666 
L 4897 0 
L 4281 0 
L 4281 4097 
L 3078 897 
L 2444 897 
L 1241 4097 
L 1241 0 
L 628 0 
L 628 4666 
z
" transform="scale(0.015625)"/>
     </defs>
     <use xlink:href="#DejaVuSans-43"/>
     <use xlink:href="#DejaVuSans-4f" x="69.824219"/>
     <use xlink:href="#DejaVuSans-4d" x="148.535156"/>
     <use xlink:href="#DejaVuSans-4f" x="234.814453"/>
     <use xlink:href="#DejaVuSans-2d" x="316.275391"/>
     <use xlink:href="#DejaVuSans-31" x="352.359375"/>
     <use xlink:href="#DejaVuSans-30" x="415.982422"/>
     <use xlink:href="#DejaVuSans-20" x="479.605469"/>
     <use xlink:href="#DejaVuSans-64" x="511.392578"/>
    </g>
   </g>
   <g id="text_16">
    <!-- best 2016 -->
    <g transform="translate(386.578944 16.615765) scale(0.14 -0.14)">
     <defs>
      <path id="DejaVuSans-62" d="M 3116 1747 
Q 3116 2381 2855 2742 
Q 2594 3103 2138 3103 
Q 1681 3103 1420 2742 
Q 1159 2381 1159 1747 
Q 1159 1113 1420 752 
Q 1681 391 2138 391 
Q 2594 391 2855 752 
Q 3116 1113 3116 1747 
z
M 1159 2969 
Q 1341 3281 1617 3432 
Q 1894 3584 2278 3584 
Q 2916 3584 3314 3078 
Q 3713 2572 3713 1747 
Q 3713 922 3314 415 
Q 2916 -91 2278 -91 
Q 1894 -91 1617 61 
Q 1341 213 1159 525 
L 1159 0 
L 581 0 
L 581 4863 
L 1159 4863 
L 1159 2969 
z
" transform="scale(0.015625)"/>
     </defs>
     <use xlink:href="#DejaVuSans-62"/>
     <use xlink:href="#DejaVuSans-65" x="63.476562"/>
     <use xlink:href="#DejaVuSans-73" x="125"/>
     <use xlink:href="#DejaVuSans-74" x="177.099609"/>
     <use xlink:href="#DejaVuSans-20" x="216.308594"/>
     <use xlink:href="#DejaVuSans-32" x="248.095703"/>
     <use xlink:href="#DejaVuSans-30" x="311.71875"/>
     <use xlink:href="#DejaVuSans-31" x="375.341797"/>
     <use xlink:href="#DejaVuSans-36" x="438.964844"/>
    </g>
   </g>
   <g id="text_17">
    <!-- bbob-biobj f48, f49, f51, f52, 20-D -->
    <g transform="translate(60.632064 17.582726) scale(0.102 -0.102)">
     <defs>
      <path id="DejaVuSans-6a" d="M 603 3500 
L 1178 3500 
L 1178 -63 
Q 1178 -731 923 -1031 
Q 669 -1331 103 -1331 
L -116 -1331 
L -116 -844 
L 38 -844 
Q 366 -844 484 -692 
Q 603 -541 603 -63 
L 603 3500 
z
M 603 4863 
L 1178 4863 
L 1178 4134 
L 603 4134 
L 603 4863 
z
" transform="scale(0.015625)"/>
      <path id="DejaVuSans-39" d="M 703 97 
L 703 672 
Q 941 559 1184 500 
Q 1428 441 1663 441 
Q 2288 441 2617 861 
Q 2947 1281 2994 2138 
Q 2813 1869 2534 1725 
Q 2256 1581 1919 1581 
Q 1219 1581 811 2004 
Q 403 2428 403 3163 
Q 403 3881 828 4315 
Q 1253 4750 1959 4750 
Q 2769 4750 3195 4129 
Q 3622 3509 3622 2328 
Q 3622 1225 3098 567 
Q 2575 -91 1691 -91 
Q 1453 -91 1209 -44 
Q 966 3 703 97 
z
M 1959 2075 
Q 2384 2075 2632 2365 
Q 2881 2656 2881 3163 
Q 2881 3666 2632 3958 
Q 2384 4250 1959 4250 
Q 1534 4250 1286 3958 
Q 1038 3666 1038 3163 
Q 1038 2656 1286 2365 
Q 1534 2075 1959 2075 
z
" transform="scale(0.015625)"/>
      <path id="DejaVuSans-35" d="M 691 4666 
L 3169 4666 
L 3169 4134 
L 1269 4134 
L 1269 2991 
Q 1406 3038 1543 3061 
Q 1681 3084 1819 3084 
Q 2600 3084 3056 2656 
Q 3513 2228 3513 1497 
Q 3513 744 3044 326 
Q 2575 -91 1722 -91 
Q 1428 -91 1123 -41 
Q 819 9 494 109 
L 494 744 
Q 775 591 1075 516 
Q 1375 441 1709 441 
Q 2250 441 2565 725 
Q 2881 1009 2881 1497 
Q 2881 1984 2565 2268 
Q 2250 2553 1709 2553 
Q 1456 2553 1204 2497 
Q 953 2441 691 2322 
L 691 4666 
z
" transform="scale(0.015625)"/>
      <path id="DejaVuSans-44" d="M 1259 4147 
L 1259 519 
L 2022 519 
Q 2988 519 3436 956 
Q 3884 1394 3884 2338 
Q 3884 3275 3436 3711 
Q 2988 4147 2022 4147 
L 1259 4147 
z
M 628 4666 
L 1925 4666 
Q 3281 4666 3915 4102 
Q 4550 3538 4550 2338 
Q 4550 1131 3912 565 
Q 3275 0 1925 0 
L 628 0 
L 628 4666 
z
" transform="scale(0.015625)"/>
     </defs>
     <use xlink:href="#DejaVuSans-62"/>
     <use xlink:href="#DejaVuSans-62" x="63.476562"/>
     <use xlink:href="#DejaVuSans-6f" x="126.953125"/>
     <use xlink:href="#DejaVuSans-62" x="188.134766"/>
     <use xlink:href="#DejaVuSans-2d" x="251.611328"/>
     <use xlink:href="#DejaVuSans-62" x="287.695312"/>
     <use xlink:href="#DejaVuSans-69" x="351.171875"/>
     <use xlink:href="#DejaVuSans-6f" x="378.955078"/>
     <use xlink:href="#DejaVuSans-62" x="440.136719"/>
     <use xlink:href="#DejaVuSans-6a" x="503.613281"/>
     <use xlink:href="#DejaVuSans-20" x="531.396484"/>
     <use xlink:href="#DejaVuSans-66" x="563.183594"/>
     <use xlink:href="#DejaVuSans-34" x="598.388672"/>
     <use xlink:href="#DejaVuSans-38" x="662.011719"/>
     <use xlink:href="#DejaVuSans-2c" x="725.634766"/>
     <use xlink:href="#DejaVuSans-20" x="757.421875"/>
     <use xlink:href="#DejaVuSans-66" x="789.208984"/>
     <use xlink:href="#DejaVuSans-34" x="824.414062"/>
     <use xlink:href="#DejaVuSans-39" x="888.037109"/>
     <use xlink:href="#DejaVuSans-2c" x="951.660156"/>
     <use xlink:href="#DejaVuSans-20" x="983.447266"/>
     <use xlink:href="#DejaVuSans-66" x="1015.234375"/>
     <use xlink:href="#DejaVuSans-35" x="1050.439453"/>
     <use xlink:href="#DejaVuSans-31" x="1114.0625"/>
     <use xlink:href="#DejaVuSans-2c" x="1177.685547"/>
     <use xlink:href="#DejaVuSans-20" x="1209.472656"/>
     <use xlink:href="#DejaVuSans-66" x="1241.259766"/>
     <use xlink:href="#DejaVuSans-35" x="1276.464844"/>
     <use xlink:href="#DejaVuSans-32" x="1340.087891"/>
     <use xlink:href="#DejaVuSans-2c" x="1403.710938"/>
     <use xlink:href="#DejaVuSans-20" x="1435.498047"/>
     <use xlink:href="#DejaVuSans-32" x="1467.285156"/>
     <use xlink:href="#DejaVuSans-30" x="1530.908203"/>
     <use xlink:href="#DejaVuSans-2d" x="1594.53125"/>
     <use xlink:href="#DejaVuSans-44" x="1630.615234"/>
    </g>
    <!-- 58 targets: 1..-1.0e-4 -->
    <g transform="translate(60.632064 29.004495) scale(0.102 -0.102)">
     <defs>
      <path id="DejaVuSans-3a" d="M 750 794 
L 1409 794 
L 1409 0 
L 750 0 
L 750 794 
z
M 750 3309 
L 1409 3309 
L 1409 2516 
L 750 2516 
L 750 3309 
z
" transform="scale(0.015625)"/>
     </defs>
     <use xlink:href="#DejaVuSans-35"/>
     <use xlink:href="#DejaVuSans-38" x="63.623047"/>
     <use xlink:href="#DejaVuSans-20" x="127.246094"/>
     <use xlink:href="#DejaVuSans-74" x="159.033203"/>
     <use xlink:href="#DejaVuSans-61" x="198.242188"/>
     <use xlink:href="#DejaVuSans-72" x="259.521484"/>
     <use xlink:href="#DejaVuSans-67" x="298.884766"/>
     <use xlink:href="#DejaVuSans-65" x="362.361328"/>
     <use xlink:href="#DejaVuSans-74" x="423.884766"/>
     <use xlink:href="#DejaVuSans-73" x="463.09375"/>
     <use xlink:href="#DejaVuSans-3a" x="515.193359"/>
     <use xlink:href="#DejaVuSans-20" x="548.884766"/>
     <use xlink:href="#DejaVuSans-31" x="580.671875"/>
     <use xlink:href="#DejaVuSans-2e" x="644.294922"/>
     <use xlink:href="#DejaVuSans-2e" x="676.082031"/>
     <use xlink:href="#DejaVuSans-2d" x="707.869141"/>
     <use xlink:href="#DejaVuSans-31" x="743.953125"/>
     <use xlink:href="#DejaVuSans-2e" x="807.576172"/>
     <use xlink:href="#DejaVuSans-30" x="839.363281"/>
     <use xlink:href="#DejaVuSans-65" x="902.986328"/>
     <use xlink:href="#DejaVuSans-2d" x="964.509766"/>
     <use xlink:href="#DejaVuSans-34" x="1000.59375"/>
    </g>
    <!-- 10 instances -->
    <g transform="translate(60.632064 40.426264) scale(0.102 -0.102)">
     <use xlink:href="#DejaVuSans-31"/>
     <use xlink:href="#DejaVuSans-30" x="63.623047"/>
     <use xlink:href="#DejaVuSans-20" x="127.246094"/>
     <use xlink:href="#DejaVuSans-69" x="159.033203"/>
     <use xlink:href="#DejaVuSans-6e" x="186.816406"/>
     <use xlink:href="#DejaVuSans-73" x="250.195312"/>
     <use xlink:href="#DejaVuSans-74" x="302.294922"/>
     <use xlink:href="#DejaVuSans-61" x="341.503906"/>
     <use xlink:href="#DejaVuSans-6e" x="402.783203"/>
     <use xlink:href="#DejaVuSans-63" x="466.162109"/>
     <use xlink:href="#DejaVuSans-65" x="521.142578"/>
     <use xlink:href="#DejaVuSans-73" x="582.666016"/>
    </g>
   </g>
   <g id="text_18">
    <!-- v2.6, hv-hash=ff0e71e8cd978373 -->
    <g style="fill: #808080" transform="translate(123.707887 293.943992) scale(0.1 -0.1)">
     <defs>
      <path id="DejaVuSans-68" d="M 3513 2113 
L 3513 0 
L 2938 0 
L 2938 2094 
Q 2938 2591 2744 2837 
Q 2550 3084 2163 3084 
Q 1697 3084 1428 2787 
Q 1159 2491 1159 1978 
L 1159 0 
L 581 0 
L 581 4863 
L 1159 4863 
L 1159 2956 
Q 1366 3272 1645 3428 
Q 1925 3584 2291 3584 
Q 2894 3584 3203 3211 
Q 3513 2838 3513 2113 
z
" transform="scale(0.015625)"/>
      <path id="DejaVuSans-3d" d="M 678 2906 
L 4684 2906 
L 4684 2381 
L 678 2381 
L 678 2906 
z
M 678 1631 
L 4684 1631 
L 4684 1100 
L 678 1100 
L 678 1631 
z
" transform="scale(0.015625)"/>
      <path id="DejaVuSans-37" d="M 525 4666 
L 3525 4666 
L 3525 4397 
L 1831 0 
L 1172 0 
L 2766 4134 
L 525 4134 
L 525 4666 
z
" transform="scale(0.015625)"/>
      <path id="DejaVuSans-33" d="M 2597 2516 
Q 3050 2419 3304 2112 
Q 3559 1806 3559 1356 
Q 3559 666 3084 287 
Q 2609 -91 1734 -91 
Q 1441 -91 1130 -33 
Q 819 25 488 141 
L 488 750 
Q 750 597 1062 519 
Q 1375 441 1716 441 
Q 2309 441 2620 675 
Q 2931 909 2931 1356 
Q 2931 1769 2642 2001 
Q 2353 2234 1838 2234 
L 1294 2234 
L 1294 2753 
L 1863 2753 
Q 2328 2753 2575 2939 
Q 2822 3125 2822 3475 
Q 2822 3834 2567 4026 
Q 2313 4219 1838 4219 
Q 1578 4219 1281 4162 
Q 984 4106 628 3988 
L 628 4550 
Q 988 4650 1302 4700 
Q 1616 4750 1894 4750 
Q 2613 4750 3031 4423 
Q 3450 4097 3450 3541 
Q 3450 3153 3228 2886 
Q 3006 2619 2597 2516 
z
" transform="scale(0.015625)"/>
     </defs>
     <use xlink:href="#DejaVuSans-76"/>
     <use xlink:href="#DejaVuSans-32" x="59.179688"/>
     <use xlink:href="#DejaVuSans-2e" x="122.802734"/>
     <use xlink:href="#DejaVuSans-36" x="154.589844"/>
     <use xlink:href="#DejaVuSans-2c" x="218.212891"/>
     <use xlink:href="#DejaVuSans-20" x="250"/>
     <use xlink:href="#DejaVuSans-68" x="281.787109"/>
     <use xlink:href="#DejaVuSans-76" x="345.166016"/>
     <use xlink:href="#DejaVuSans-2d" x="401.720703"/>
     <use xlink:href="#DejaVuSans-68" x="437.804688"/>
     <use xlink:href="#DejaVuSans-61" x="501.183594"/>
     <use xlink:href="#DejaVuSans-73" x="562.462891"/>
     <use xlink:href="#DejaVuSans-68" x="614.5625"/>
     <use xlink:href="#DejaVuSans-3d" x="677.941406"/>
     <use xlink:href="#DejaVuSans-66" x="761.730469"/>
     <use xlink:href="#DejaVuSans-66" x="796.935547"/>
     <use xlink:href="#DejaVuSans-30" x="832.140625"/>
     <use xlink:href="#DejaVuSans-65" x="895.763672"/>
     <use xlink:href="#DejaVuSans-37" x="957.287109"/>
     <use xlink:href="#DejaVuSans-31" x="1020.910156"/>
     <use xlink:href="#DejaVuSans-65" x="1084.533203"/>
     <use xlink:href="#DejaVuSans-38" x="1146.056641"/>
     <use xlink:href="#DejaVuSans-63" x="1209.679688"/>
     <use xlink:href="#DejaVuSans-64" x="1264.660156"/>
     <use xlink:href="#DejaVuSans-39" x="1328.136719"/>
     <use xlink:href="#DejaVuSans-37" x="1391.759766"/>
     <use xlink:href="#DejaVuSans-38" x="1455.382812"/>
     <use xlink:href="#DejaVuSans-33" x="1519.005859"/>
     <use xlink:href="#DejaVuSans-37" x="1582.628906"/>
     <use xlink:href="#DejaVuSans-33" x="1646.251953"/>
    </g>
   </g>
  </g>
 </g>
 <defs>
  <clipPath id="p0b492dc73b">
   <rect x="57.6" y="6.912" width="303.2064" height="292.032"/>
  </clipPath>
 </defs>
</svg>
