<?xml version="1.0" encoding="utf-8" standalone="no"?>
<!DOCTYPE svg PUBLIC "-//W3C//DTD SVG 1.1//EN"
  "http://www.w3.org/Graphics/SVG/1.1/DTD/svg11.dtd">
<svg xmlns:xlink="http://www.w3.org/1999/xlink" width="460.8pt" height="345.6pt" viewBox="0 0 460.8 345.6" xmlns="http://www.w3.org/2000/svg" version="1.1">
 <metadata>
  <rdf:RDF xmlns:dc="http://purl.org/dc/elements/1.1/" xmlns:cc="http://creativecommons.org/ns#" xmlns:rdf="http://www.w3.org/1999/02/22-rdf-syntax-ns#">
   <cc:Work>
    <dc:type rdf:resource="http://purl.org/dc/dcmitype/StillImage"/>
    <dc:date>2023-02-10T20:17:13.454384</dc:date>
    <dc:format>image/svg+xml</dc:format>
    <dc:creator>
     <cc:Agent>
      <dc:title>Matplotlib v3.6.3, https://matplotlib.org/</dc:title>
     </cc:Agent>
    </dc:creator>
   </cc:Work>
  </rdf:RDF>
 </metadata>
 <defs>
  <style type="text/css">*{stroke-linejoin: round; stroke-linecap: butt}</style>
 </defs>
 <g id="figure_1">
  <g id="patch_1">
   <path d="M 0 345.6 
L 460.8 345.6 
L 460.8 0 
L 0 0 
z
" style="fill: #ffffff"/>
  </g>
  <g id="axes_1">
   <g id="patch_2">
    <path d="M 57.6 298.944 
L 360.8064 298.944 
L 360.8064 6.912 
L 57.6 6.912 
z
" style="fill: #ffffff"/>
   </g>
   <g id="line2d_1">
    <path d="M 1.245626 298.944 
L 1.245626 296.426483 
L 34.951403 296.426483 
L 34.951403 295.167724 
L 37.851216 295.167724 
L 37.851216 293.908966 
L 44.560826 293.908966 
L 44.560826 291.391448 
L 46.353758 291.391448 
L 46.353758 288.873931 
L 57.6 288.873931 
L 57.6 286.356414 
L 74.836851 286.356414 
L 74.836851 285.097655 
L 82.211771 285.097655 
L 82.211771 282.580138 
L 85.038813 282.580138 
L 85.038813 281.321379 
L 87.686963 281.321379 
L 87.686963 277.545103 
L 90.007914 277.545103 
L 90.007914 271.25131 
L 93.381595 271.25131 
L 93.381595 268.733793 
L 94.339481 268.733793 
L 94.339481 266.216276 
L 94.735529 266.216276 
L 94.735529 263.698759 
L 97.18203 263.698759 
L 97.18203 262.44 
L 98.510456 262.44 
L 98.510456 261.181241 
L 101.379706 261.181241 
L 101.379706 258.663724 
L 104.732832 258.663724 
L 104.732832 256.146207 
L 108.034177 256.146207 
L 108.034177 253.62869 
L 119.28364 253.62869 
L 119.28364 249.852414 
L 119.773187 249.852414 
L 119.773187 246.076138 
L 129.926925 246.076138 
L 129.926925 243.558621 
L 133.069471 243.558621 
L 133.069471 241.041103 
L 138.412998 241.041103 
L 138.412998 238.523586 
L 138.906237 238.523586 
L 138.906237 236.006069 
L 143.046405 236.006069 
L 143.046405 233.488552 
L 145.83427 233.488552 
L 145.83427 230.971034 
L 147.597342 230.971034 
L 147.597342 229.712276 
L 153.200785 229.712276 
L 153.200785 225.936 
L 154.982037 225.936 
L 154.982037 224.677241 
L 158.925196 224.677241 
L 158.998267 220.900966 
L 160.351247 220.900966 
L 160.351247 219.642207 
L 160.967817 219.642207 
L 160.967817 218.383448 
L 162.673089 218.383448 
L 162.673089 214.607172 
L 163.232801 214.607172 
L 163.232801 210.830897 
L 164.720604 210.830897 
L 164.720604 207.054621 
L 165.281812 207.054621 
L 165.281812 204.537103 
L 170.207364 204.537103 
L 170.207364 202.019586 
L 171.362682 202.019586 
L 171.362682 198.24331 
L 173.458168 198.24331 
L 173.458168 196.984552 
L 177.778757 196.984552 
L 177.778757 195.725793 
L 184.809827 195.725793 
L 184.809827 191.949517 
L 185.077688 191.949517 
L 185.077688 188.173241 
L 186.470472 188.173241 
L 186.470472 185.655724 
L 193.646701 185.655724 
L 193.646701 184.396966 
L 198.440617 184.396966 
L 198.440617 181.879448 
L 201.988935 181.879448 
L 201.988935 178.103172 
L 209.160752 178.103172 
L 209.160752 176.844414 
L 209.778896 176.844414 
L 209.778896 175.585655 
L 210.507144 175.585655 
L 210.507144 173.068138 
L 211.569967 173.068138 
L 211.569967 171.809379 
L 214.289714 171.809379 
L 214.289714 169.291862 
L 216.004241 169.291862 
L 216.004241 166.774345 
L 219.431713 166.774345 
L 219.431713 164.256828 
L 220.215215 164.256828 
L 220.215215 160.480552 
L 222.867623 160.480552 
L 222.867623 156.704276 
L 223.985187 156.704276 
L 223.985187 152.928 
L 228.995492 152.928 
L 228.995492 151.669241 
L 229.137867 151.669241 
L 229.137867 149.151724 
L 229.93911 149.151724 
L 229.93911 146.634207 
L 231.053475 146.634207 
L 231.053475 144.11669 
L 231.379369 144.11669 
L 231.379369 141.599172 
L 231.902723 141.599172 
L 231.902723 140.340414 
L 232.573355 140.340414 
L 232.573355 136.564138 
L 233.629363 136.564138 
L 233.629363 135.305379 
L 234.278398 135.305379 
L 234.278398 132.787862 
L 234.590774 132.787862 
L 234.590774 129.011586 
L 235.623872 129.011586 
L 235.623872 127.752828 
L 235.91025 127.752828 
L 235.91025 125.23531 
L 238.135997 125.23531 
L 238.135997 123.976552 
L 240.217435 123.976552 
L 240.217435 121.459034 
L 241.887595 121.459034 
L 241.887595 117.682759 
L 245.000894 117.682759 
L 245.000894 113.906483 
L 245.199092 113.906483 
L 245.199092 112.647724 
L 249.328526 112.647724 
L 249.328526 108.871448 
L 252.037308 108.871448 
L 252.037308 106.353931 
L 255.415414 106.353931 
L 255.415414 102.577655 
L 255.731223 102.577655 
L 255.731223 100.060138 
L 260.103578 100.060138 
L 260.103578 97.542621 
L 261.98092 97.542621 
L 261.98092 95.025103 
L 268.317663 95.025103 
L 268.317663 93.766345 
L 270.277458 93.766345 
L 270.277458 92.507586 
L 275.465784 92.507586 
L 275.465784 89.990069 
L 278.271229 89.990069 
L 278.271229 87.472552 
L 281.077599 87.472552 
L 281.077599 83.696276 
L 282.211501 83.696276 
L 282.211501 81.178759 
L 287.172834 81.178759 
L 287.172834 79.92 
L 288.593483 79.92 
L 288.593483 76.143724 
L 289.084366 76.143724 
L 289.084366 74.884966 
L 291.905856 74.884966 
L 291.905856 71.10869 
L 298.91259 71.10869 
L 298.91259 68.591172 
L 299.024498 68.591172 
L 299.024498 64.814897 
L 300.504504 64.814897 
L 300.504504 63.556138 
L 301.184778 63.556138 
L 301.184778 59.779862 
L 310.309242 59.779862 
L 310.309242 58.521103 
L 310.751543 58.521103 
L 310.751543 54.744828 
L 311.972959 54.744828 
L 311.972959 52.22731 
L 315.900032 52.22731 
L 315.900032 49.709793 
L 316.590228 49.709793 
L 316.590228 48.451034 
L 317.364243 48.451034 
L 317.364243 45.933517 
L 318.688117 45.933517 
L 318.688117 42.157241 
L 360.8064 42.157241 
L 360.8064 42.157241 
" style="fill: none; stroke: #f5deb3; stroke-width: 4; stroke-linecap: square"/>
   </g>
   <g id="line2d_2">
    <defs>
     <path id="m0ecfb673f8" d="M -0 7.778175 
L 7.778175 0 
L 0 -7.778175 
L -7.778175 -0 
z
" style="stroke: #f5deb3; stroke-width: 1.5; stroke-linejoin: miter"/>
    </defs>
    <g>
     <use xlink:href="#m0ecfb673f8" x="119.773187" y="246.076138" style="fill: #f5deb3; stroke: #f5deb3; stroke-width: 1.5; stroke-linejoin: miter"/>
     <use xlink:href="#m0ecfb673f8" x="185.077688" y="191.949517" style="fill: #f5deb3; stroke: #f5deb3; stroke-width: 1.5; stroke-linejoin: miter"/>
     <use xlink:href="#m0ecfb673f8" x="255.731223" y="102.577655" style="fill: #f5deb3; stroke: #f5deb3; stroke-width: 1.5; stroke-linejoin: miter"/>
     <use xlink:href="#m0ecfb673f8" x="318.688117" y="45.933517" style="fill: #f5deb3; stroke: #f5deb3; stroke-width: 1.5; stroke-linejoin: miter"/>
     <use xlink:href="#m0ecfb673f8" x="318.688117" y="42.157241" style="fill: #f5deb3; stroke: #f5deb3; stroke-width: 1.5; stroke-linejoin: miter"/>
     <use xlink:href="#m0ecfb673f8" x="360.8064" y="42.157241" style="fill: #f5deb3; stroke: #f5deb3; stroke-width: 1.5; stroke-linejoin: miter"/>
    </g>
   </g>
   <g id="line2d_3">
    <path style="fill: none; stroke: #f5deb3; stroke-width: 4; stroke-linecap: square"/>
    <g/>
   </g>
   <g id="line2d_4">
    <path d="M 360.8064 42.157241 
L 380.514816 12.75264 
" style="fill: none; stroke: #f5deb3; stroke-width: 4; stroke-linecap: square"/>
    <g>
     <use xlink:href="#m0ecfb673f8" x="360.8064" y="42.157241" style="fill: #f5deb3; stroke: #f5deb3; stroke-width: 1.5; stroke-linejoin: miter"/>
     <use xlink:href="#m0ecfb673f8" x="380.514816" y="12.75264" style="fill: #f5deb3; stroke: #f5deb3; stroke-width: 1.5; stroke-linejoin: miter"/>
    </g>
   </g>
   <g id="matplotlib.axis_1">
    <g id="xtick_1">
     <g id="line2d_5">
      <path d="M 57.6 298.944 
L 57.6 6.912 
" clip-path="url(#pa9e62040d3)" style="fill: none; stroke: #b0b0b0; stroke-width: 0.8; stroke-linecap: square"/>
     </g>
     <g id="line2d_6">
      <defs>
       <path id="m4e0110967c" d="M 0 0 
L 0 3.5 
" style="stroke: #000000; stroke-width: 0.8"/>
      </defs>
      <g>
       <use xlink:href="#m4e0110967c" x="57.6" y="298.944" style="stroke: #000000; stroke-width: 0.8"/>
      </g>
     </g>
     <g id="text_1">
      <!-- 0 -->
      <g transform="translate(52.191875 318.861344) scale(0.17 -0.17)">
       <defs>
        <path id="DejaVuSans-30" d="M 2034 4250 
Q 1547 4250 1301 3770 
Q 1056 3291 1056 2328 
Q 1056 1369 1301 889 
Q 1547 409 2034 409 
Q 2525 409 2770 889 
Q 3016 1369 3016 2328 
Q 3016 3291 2770 3770 
Q 2525 4250 2034 4250 
z
M 2034 4750 
Q 2819 4750 3233 4129 
Q 3647 3509 3647 2328 
Q 3647 1150 3233 529 
Q 2819 -91 2034 -91 
Q 1250 -91 836 529 
Q 422 1150 422 2328 
Q 422 3509 836 4129 
Q 1250 4750 2034 4750 
z
" transform="scale(0.015625)"/>
       </defs>
       <use xlink:href="#DejaVuSans-30"/>
      </g>
     </g>
    </g>
    <g id="xtick_2">
     <g id="line2d_7">
      <path d="M 144.2304 298.944 
L 144.2304 6.912 
" clip-path="url(#pa9e62040d3)" style="fill: none; stroke: #b0b0b0; stroke-width: 0.8; stroke-linecap: square"/>
     </g>
     <g id="line2d_8">
      <g>
       <use xlink:href="#m4e0110967c" x="144.2304" y="298.944" style="stroke: #000000; stroke-width: 0.8"/>
      </g>
     </g>
     <g id="text_2">
      <!-- 2 -->
      <g transform="translate(138.822275 318.861344) scale(0.17 -0.17)">
       <defs>
        <path id="DejaVuSans-32" d="M 1228 531 
L 3431 531 
L 3431 0 
L 469 0 
L 469 531 
Q 828 903 1448 1529 
Q 2069 2156 2228 2338 
Q 2531 2678 2651 2914 
Q 2772 3150 2772 3378 
Q 2772 3750 2511 3984 
Q 2250 4219 1831 4219 
Q 1534 4219 1204 4116 
Q 875 4013 500 3803 
L 500 4441 
Q 881 4594 1212 4672 
Q 1544 4750 1819 4750 
Q 2544 4750 2975 4387 
Q 3406 4025 3406 3419 
Q 3406 3131 3298 2873 
Q 3191 2616 2906 2266 
Q 2828 2175 2409 1742 
Q 1991 1309 1228 531 
z
" transform="scale(0.015625)"/>
       </defs>
       <use xlink:href="#DejaVuSans-32"/>
      </g>
     </g>
    </g>
    <g id="xtick_3">
     <g id="line2d_9">
      <path d="M 230.8608 298.944 
L 230.8608 6.912 
" clip-path="url(#pa9e62040d3)" style="fill: none; stroke: #b0b0b0; stroke-width: 0.8; stroke-linecap: square"/>
     </g>
     <g id="line2d_10">
      <g>
       <use xlink:href="#m4e0110967c" x="230.8608" y="298.944" style="stroke: #000000; stroke-width: 0.8"/>
      </g>
     </g>
     <g id="text_3">
      <!-- 4 -->
      <g transform="translate(225.452675 318.861344) scale(0.17 -0.17)">
       <defs>
        <path id="DejaVuSans-34" d="M 2419 4116 
L 825 1625 
L 2419 1625 
L 2419 4116 
z
M 2253 4666 
L 3047 4666 
L 3047 1625 
L 3713 1625 
L 3713 1100 
L 3047 1100 
L 3047 0 
L 2419 0 
L 2419 1100 
L 313 1100 
L 313 1709 
L 2253 4666 
z
" transform="scale(0.015625)"/>
       </defs>
       <use xlink:href="#DejaVuSans-34"/>
      </g>
     </g>
    </g>
    <g id="xtick_4">
     <g id="line2d_11">
      <path d="M 317.4912 298.944 
L 317.4912 6.912 
" clip-path="url(#pa9e62040d3)" style="fill: none; stroke: #b0b0b0; stroke-width: 0.8; stroke-linecap: square"/>
     </g>
     <g id="line2d_12">
      <g>
       <use xlink:href="#m4e0110967c" x="317.4912" y="298.944" style="stroke: #000000; stroke-width: 0.8"/>
      </g>
     </g>
     <g id="text_4">
      <!-- 6 -->
      <g transform="translate(312.083075 318.861344) scale(0.17 -0.17)">
       <defs>
        <path id="DejaVuSans-36" d="M 2113 2584 
Q 1688 2584 1439 2293 
Q 1191 2003 1191 1497 
Q 1191 994 1439 701 
Q 1688 409 2113 409 
Q 2538 409 2786 701 
Q 3034 994 3034 1497 
Q 3034 2003 2786 2293 
Q 2538 2584 2113 2584 
z
M 3366 4563 
L 3366 3988 
Q 3128 4100 2886 4159 
Q 2644 4219 2406 4219 
Q 1781 4219 1451 3797 
Q 1122 3375 1075 2522 
Q 1259 2794 1537 2939 
Q 1816 3084 2150 3084 
Q 2853 3084 3261 2657 
Q 3669 2231 3669 1497 
Q 3669 778 3244 343 
Q 2819 -91 2113 -91 
Q 1303 -91 875 529 
Q 447 1150 447 2328 
Q 447 3434 972 4092 
Q 1497 4750 2381 4750 
Q 2619 4750 2861 4703 
Q 3103 4656 3366 4563 
z
" transform="scale(0.015625)"/>
       </defs>
       <use xlink:href="#DejaVuSans-36"/>
      </g>
     </g>
    </g>
    <g id="xtick_5">
     <g id="line2d_13">
      <path d="M 100.9152 298.944 
L 100.9152 6.912 
" clip-path="url(#pa9e62040d3)" style="fill: none; stroke: #b0b0b0; stroke-width: 0.8; stroke-linecap: square"/>
     </g>
     <g id="line2d_14">
      <defs>
       <path id="m4d1f9c17b5" d="M 0 0 
L 0 2 
" style="stroke: #000000; stroke-width: 0.6"/>
      </defs>
      <g>
       <use xlink:href="#m4d1f9c17b5" x="100.9152" y="298.944" style="stroke: #000000; stroke-width: 0.6"/>
      </g>
     </g>
    </g>
    <g id="xtick_6">
     <g id="line2d_15">
      <path d="M 187.5456 298.944 
L 187.5456 6.912 
" clip-path="url(#pa9e62040d3)" style="fill: none; stroke: #b0b0b0; stroke-width: 0.8; stroke-linecap: square"/>
     </g>
     <g id="line2d_16">
      <g>
       <use xlink:href="#m4d1f9c17b5" x="187.5456" y="298.944" style="stroke: #000000; stroke-width: 0.6"/>
      </g>
     </g>
    </g>
    <g id="xtick_7">
     <g id="line2d_17">
      <path d="M 274.176 298.944 
L 274.176 6.912 
" clip-path="url(#pa9e62040d3)" style="fill: none; stroke: #b0b0b0; stroke-width: 0.8; stroke-linecap: square"/>
     </g>
     <g id="line2d_18">
      <g>
       <use xlink:href="#m4d1f9c17b5" x="274.176" y="298.944" style="stroke: #000000; stroke-width: 0.6"/>
      </g>
     </g>
    </g>
    <g id="xtick_8">
     <g id="line2d_19">
      <path d="M 360.8064 298.944 
L 360.8064 6.912 
" clip-path="url(#pa9e62040d3)" style="fill: none; stroke: #b0b0b0; stroke-width: 0.8; stroke-linecap: square"/>
     </g>
     <g id="line2d_20">
      <g>
       <use xlink:href="#m4d1f9c17b5" x="360.8064" y="298.944" style="stroke: #000000; stroke-width: 0.6"/>
      </g>
     </g>
    </g>
    <g id="text_5">
     <!-- log10(# f-evals / dimension) -->
     <g transform="translate(88.823278 339.314156) scale(0.17 -0.17)">
      <defs>
       <path id="DejaVuSans-6c" d="M 603 4863 
L 1178 4863 
L 1178 0 
L 603 0 
L 603 4863 
z
" transform="scale(0.015625)"/>
       <path id="DejaVuSans-6f" d="M 1959 3097 
Q 1497 3097 1228 2736 
Q 959 2375 959 1747 
Q 959 1119 1226 758 
Q 1494 397 1959 397 
Q 2419 397 2687 759 
Q 2956 1122 2956 1747 
Q 2956 2369 2687 2733 
Q 2419 3097 1959 3097 
z
M 1959 3584 
Q 2709 3584 3137 3096 
Q 3566 2609 3566 1747 
Q 3566 888 3137 398 
Q 2709 -91 1959 -91 
Q 1206 -91 779 398 
Q 353 888 353 1747 
Q 353 2609 779 3096 
Q 1206 3584 1959 3584 
z
" transform="scale(0.015625)"/>
       <path id="DejaVuSans-67" d="M 2906 1791 
Q 2906 2416 2648 2759 
Q 2391 3103 1925 3103 
Q 1463 3103 1205 2759 
Q 947 2416 947 1791 
Q 947 1169 1205 825 
Q 1463 481 1925 481 
Q 2391 481 2648 825 
Q 2906 1169 2906 1791 
z
M 3481 434 
Q 3481 -459 3084 -895 
Q 2688 -1331 1869 -1331 
Q 1566 -1331 1297 -1286 
Q 1028 -1241 775 -1147 
L 775 -588 
Q 1028 -725 1275 -790 
Q 1522 -856 1778 -856 
Q 2344 -856 2625 -561 
Q 2906 -266 2906 331 
L 2906 616 
Q 2728 306 2450 153 
Q 2172 0 1784 0 
Q 1141 0 747 490 
Q 353 981 353 1791 
Q 353 2603 747 3093 
Q 1141 3584 1784 3584 
Q 2172 3584 2450 3431 
Q 2728 3278 2906 2969 
L 2906 3500 
L 3481 3500 
L 3481 434 
z
" transform="scale(0.015625)"/>
       <path id="DejaVuSans-31" d="M 794 531 
L 1825 531 
L 1825 4091 
L 703 3866 
L 703 4441 
L 1819 4666 
L 2450 4666 
L 2450 531 
L 3481 531 
L 3481 0 
L 794 0 
L 794 531 
z
" transform="scale(0.015625)"/>
       <path id="DejaVuSans-28" d="M 1984 4856 
Q 1566 4138 1362 3434 
Q 1159 2731 1159 2009 
Q 1159 1288 1364 580 
Q 1569 -128 1984 -844 
L 1484 -844 
Q 1016 -109 783 600 
Q 550 1309 550 2009 
Q 550 2706 781 3412 
Q 1013 4119 1484 4856 
L 1984 4856 
z
" transform="scale(0.015625)"/>
       <path id="DejaVuSans-23" d="M 3272 2816 
L 2363 2816 
L 2100 1772 
L 3016 1772 
L 3272 2816 
z
M 2803 4594 
L 2478 3297 
L 3391 3297 
L 3719 4594 
L 4219 4594 
L 3897 3297 
L 4872 3297 
L 4872 2816 
L 3775 2816 
L 3519 1772 
L 4513 1772 
L 4513 1294 
L 3397 1294 
L 3072 0 
L 2572 0 
L 2894 1294 
L 1978 1294 
L 1656 0 
L 1153 0 
L 1478 1294 
L 494 1294 
L 494 1772 
L 1594 1772 
L 1856 2816 
L 850 2816 
L 850 3297 
L 1978 3297 
L 2297 4594 
L 2803 4594 
z
" transform="scale(0.015625)"/>
       <path id="DejaVuSans-20" transform="scale(0.015625)"/>
       <path id="DejaVuSans-66" d="M 2375 4863 
L 2375 4384 
L 1825 4384 
Q 1516 4384 1395 4259 
Q 1275 4134 1275 3809 
L 1275 3500 
L 2222 3500 
L 2222 3053 
L 1275 3053 
L 1275 0 
L 697 0 
L 697 3053 
L 147 3053 
L 147 3500 
L 697 3500 
L 697 3744 
Q 697 4328 969 4595 
Q 1241 4863 1831 4863 
L 2375 4863 
z
" transform="scale(0.015625)"/>
       <path id="DejaVuSans-2d" d="M 313 2009 
L 1997 2009 
L 1997 1497 
L 313 1497 
L 313 2009 
z
" transform="scale(0.015625)"/>
       <path id="DejaVuSans-65" d="M 3597 1894 
L 3597 1613 
L 953 1613 
Q 991 1019 1311 708 
Q 1631 397 2203 397 
Q 2534 397 2845 478 
Q 3156 559 3463 722 
L 3463 178 
Q 3153 47 2828 -22 
Q 2503 -91 2169 -91 
Q 1331 -91 842 396 
Q 353 884 353 1716 
Q 353 2575 817 3079 
Q 1281 3584 2069 3584 
Q 2775 3584 3186 3129 
Q 3597 2675 3597 1894 
z
M 3022 2063 
Q 3016 2534 2758 2815 
Q 2500 3097 2075 3097 
Q 1594 3097 1305 2825 
Q 1016 2553 972 2059 
L 3022 2063 
z
" transform="scale(0.015625)"/>
       <path id="DejaVuSans-76" d="M 191 3500 
L 800 3500 
L 1894 563 
L 2988 3500 
L 3597 3500 
L 2284 0 
L 1503 0 
L 191 3500 
z
" transform="scale(0.015625)"/>
       <path id="DejaVuSans-61" d="M 2194 1759 
Q 1497 1759 1228 1600 
Q 959 1441 959 1056 
Q 959 750 1161 570 
Q 1363 391 1709 391 
Q 2188 391 2477 730 
Q 2766 1069 2766 1631 
L 2766 1759 
L 2194 1759 
z
M 3341 1997 
L 3341 0 
L 2766 0 
L 2766 531 
Q 2569 213 2275 61 
Q 1981 -91 1556 -91 
Q 1019 -91 701 211 
Q 384 513 384 1019 
Q 384 1609 779 1909 
Q 1175 2209 1959 2209 
L 2766 2209 
L 2766 2266 
Q 2766 2663 2505 2880 
Q 2244 3097 1772 3097 
Q 1472 3097 1187 3025 
Q 903 2953 641 2809 
L 641 3341 
Q 956 3463 1253 3523 
Q 1550 3584 1831 3584 
Q 2591 3584 2966 3190 
Q 3341 2797 3341 1997 
z
" transform="scale(0.015625)"/>
       <path id="DejaVuSans-73" d="M 2834 3397 
L 2834 2853 
Q 2591 2978 2328 3040 
Q 2066 3103 1784 3103 
Q 1356 3103 1142 2972 
Q 928 2841 928 2578 
Q 928 2378 1081 2264 
Q 1234 2150 1697 2047 
L 1894 2003 
Q 2506 1872 2764 1633 
Q 3022 1394 3022 966 
Q 3022 478 2636 193 
Q 2250 -91 1575 -91 
Q 1294 -91 989 -36 
Q 684 19 347 128 
L 347 722 
Q 666 556 975 473 
Q 1284 391 1588 391 
Q 1994 391 2212 530 
Q 2431 669 2431 922 
Q 2431 1156 2273 1281 
Q 2116 1406 1581 1522 
L 1381 1569 
Q 847 1681 609 1914 
Q 372 2147 372 2553 
Q 372 3047 722 3315 
Q 1072 3584 1716 3584 
Q 2034 3584 2315 3537 
Q 2597 3491 2834 3397 
z
" transform="scale(0.015625)"/>
       <path id="DejaVuSans-2f" d="M 1625 4666 
L 2156 4666 
L 531 -594 
L 0 -594 
L 1625 4666 
z
" transform="scale(0.015625)"/>
       <path id="DejaVuSans-64" d="M 2906 2969 
L 2906 4863 
L 3481 4863 
L 3481 0 
L 2906 0 
L 2906 525 
Q 2725 213 2448 61 
Q 2172 -91 1784 -91 
Q 1150 -91 751 415 
Q 353 922 353 1747 
Q 353 2572 751 3078 
Q 1150 3584 1784 3584 
Q 2172 3584 2448 3432 
Q 2725 3281 2906 2969 
z
M 947 1747 
Q 947 1113 1208 752 
Q 1469 391 1925 391 
Q 2381 391 2643 752 
Q 2906 1113 2906 1747 
Q 2906 2381 2643 2742 
Q 2381 3103 1925 3103 
Q 1469 3103 1208 2742 
Q 947 2381 947 1747 
z
" transform="scale(0.015625)"/>
       <path id="DejaVuSans-69" d="M 603 3500 
L 1178 3500 
L 1178 0 
L 603 0 
L 603 3500 
z
M 603 4863 
L 1178 4863 
L 1178 4134 
L 603 4134 
L 603 4863 
z
" transform="scale(0.015625)"/>
       <path id="DejaVuSans-6d" d="M 3328 2828 
Q 3544 3216 3844 3400 
Q 4144 3584 4550 3584 
Q 5097 3584 5394 3201 
Q 5691 2819 5691 2113 
L 5691 0 
L 5113 0 
L 5113 2094 
Q 5113 2597 4934 2840 
Q 4756 3084 4391 3084 
Q 3944 3084 3684 2787 
Q 3425 2491 3425 1978 
L 3425 0 
L 2847 0 
L 2847 2094 
Q 2847 2600 2669 2842 
Q 2491 3084 2119 3084 
Q 1678 3084 1418 2786 
Q 1159 2488 1159 1978 
L 1159 0 
L 581 0 
L 581 3500 
L 1159 3500 
L 1159 2956 
Q 1356 3278 1631 3431 
Q 1906 3584 2284 3584 
Q 2666 3584 2933 3390 
Q 3200 3197 3328 2828 
z
" transform="scale(0.015625)"/>
       <path id="DejaVuSans-6e" d="M 3513 2113 
L 3513 0 
L 2938 0 
L 2938 2094 
Q 2938 2591 2744 2837 
Q 2550 3084 2163 3084 
Q 1697 3084 1428 2787 
Q 1159 2491 1159 1978 
L 1159 0 
L 581 0 
L 581 3500 
L 1159 3500 
L 1159 2956 
Q 1366 3272 1645 3428 
Q 1925 3584 2291 3584 
Q 2894 3584 3203 3211 
Q 3513 2838 3513 2113 
z
" transform="scale(0.015625)"/>
       <path id="DejaVuSans-29" d="M 513 4856 
L 1013 4856 
Q 1481 4119 1714 3412 
Q 1947 2706 1947 2009 
Q 1947 1309 1714 600 
Q 1481 -109 1013 -844 
L 513 -844 
Q 928 -128 1133 580 
Q 1338 1288 1338 2009 
Q 1338 2731 1133 3434 
Q 928 4138 513 4856 
z
" transform="scale(0.015625)"/>
      </defs>
      <use xlink:href="#DejaVuSans-6c"/>
      <use xlink:href="#DejaVuSans-6f" x="27.783203"/>
      <use xlink:href="#DejaVuSans-67" x="88.964844"/>
      <use xlink:href="#DejaVuSans-31" x="152.441406"/>
      <use xlink:href="#DejaVuSans-30" x="216.064453"/>
      <use xlink:href="#DejaVuSans-28" x="279.6875"/>
      <use xlink:href="#DejaVuSans-23" x="318.701172"/>
      <use xlink:href="#DejaVuSans-20" x="402.490234"/>
      <use xlink:href="#DejaVuSans-66" x="434.277344"/>
      <use xlink:href="#DejaVuSans-2d" x="463.982422"/>
      <use xlink:href="#DejaVuSans-65" x="500.066406"/>
      <use xlink:href="#DejaVuSans-76" x="561.589844"/>
      <use xlink:href="#DejaVuSans-61" x="620.769531"/>
      <use xlink:href="#DejaVuSans-6c" x="682.048828"/>
      <use xlink:href="#DejaVuSans-73" x="709.832031"/>
      <use xlink:href="#DejaVuSans-20" x="761.931641"/>
      <use xlink:href="#DejaVuSans-2f" x="793.71875"/>
      <use xlink:href="#DejaVuSans-20" x="827.410156"/>
      <use xlink:href="#DejaVuSans-64" x="859.197266"/>
      <use xlink:href="#DejaVuSans-69" x="922.673828"/>
      <use xlink:href="#DejaVuSans-6d" x="950.457031"/>
      <use xlink:href="#DejaVuSans-65" x="1047.869141"/>
      <use xlink:href="#DejaVuSans-6e" x="1109.392578"/>
      <use xlink:href="#DejaVuSans-73" x="1172.771484"/>
      <use xlink:href="#DejaVuSans-69" x="1224.871094"/>
      <use xlink:href="#DejaVuSans-6f" x="1252.654297"/>
      <use xlink:href="#DejaVuSans-6e" x="1313.835938"/>
      <use xlink:href="#DejaVuSans-29" x="1377.214844"/>
     </g>
    </g>
   </g>
   <g id="matplotlib.axis_2">
    <g id="ytick_1">
     <g id="line2d_21">
      <path d="M 57.6 298.944 
L 360.8064 298.944 
" clip-path="url(#pa9e62040d3)" style="fill: none; stroke: #b0b0b0; stroke-width: 0.8; stroke-linecap: square"/>
     </g>
     <g id="line2d_22">
      <defs>
       <path id="me885d9a778" d="M 0 0 
L -3.5 0 
" style="stroke: #000000; stroke-width: 0.8"/>
      </defs>
      <g>
       <use xlink:href="#me885d9a778" x="57.6" y="298.944" style="stroke: #000000; stroke-width: 0.8"/>
      </g>
     </g>
     <g id="text_6">
      <!-- 0.0 -->
      <g transform="translate(25.155 305.02275) scale(0.16 -0.16)">
       <defs>
        <path id="DejaVuSans-2e" d="M 684 794 
L 1344 794 
L 1344 0 
L 684 0 
L 684 794 
z
" transform="scale(0.015625)"/>
       </defs>
       <use xlink:href="#DejaVuSans-30"/>
       <use xlink:href="#DejaVuSans-2e" x="63.623047"/>
       <use xlink:href="#DejaVuSans-30" x="95.410156"/>
      </g>
     </g>
    </g>
    <g id="ytick_2">
     <g id="line2d_23">
      <path d="M 57.6 240.5376 
L 360.8064 240.5376 
" clip-path="url(#pa9e62040d3)" style="fill: none; stroke: #b0b0b0; stroke-width: 0.8; stroke-linecap: square"/>
     </g>
     <g id="line2d_24">
      <g>
       <use xlink:href="#me885d9a778" x="57.6" y="240.5376" style="stroke: #000000; stroke-width: 0.8"/>
      </g>
     </g>
     <g id="text_7">
      <!-- 0.2 -->
      <g transform="translate(25.155 246.61635) scale(0.16 -0.16)">
       <use xlink:href="#DejaVuSans-30"/>
       <use xlink:href="#DejaVuSans-2e" x="63.623047"/>
       <use xlink:href="#DejaVuSans-32" x="95.410156"/>
      </g>
     </g>
    </g>
    <g id="ytick_3">
     <g id="line2d_25">
      <path d="M 57.6 182.1312 
L 360.8064 182.1312 
" clip-path="url(#pa9e62040d3)" style="fill: none; stroke: #b0b0b0; stroke-width: 0.8; stroke-linecap: square"/>
     </g>
     <g id="line2d_26">
      <g>
       <use xlink:href="#me885d9a778" x="57.6" y="182.1312" style="stroke: #000000; stroke-width: 0.8"/>
      </g>
     </g>
     <g id="text_8">
      <!-- 0.4 -->
      <g transform="translate(25.155 188.20995) scale(0.16 -0.16)">
       <use xlink:href="#DejaVuSans-30"/>
       <use xlink:href="#DejaVuSans-2e" x="63.623047"/>
       <use xlink:href="#DejaVuSans-34" x="95.410156"/>
      </g>
     </g>
    </g>
    <g id="ytick_4">
     <g id="line2d_27">
      <path d="M 57.6 123.7248 
L 360.8064 123.7248 
" clip-path="url(#pa9e62040d3)" style="fill: none; stroke: #b0b0b0; stroke-width: 0.8; stroke-linecap: square"/>
     </g>
     <g id="line2d_28">
      <g>
       <use xlink:href="#me885d9a778" x="57.6" y="123.7248" style="stroke: #000000; stroke-width: 0.8"/>
      </g>
     </g>
     <g id="text_9">
      <!-- 0.6 -->
      <g transform="translate(25.155 129.80355) scale(0.16 -0.16)">
       <use xlink:href="#DejaVuSans-30"/>
       <use xlink:href="#DejaVuSans-2e" x="63.623047"/>
       <use xlink:href="#DejaVuSans-36" x="95.410156"/>
      </g>
     </g>
    </g>
    <g id="ytick_5">
     <g id="line2d_29">
      <path d="M 57.6 65.3184 
L 360.8064 65.3184 
" clip-path="url(#pa9e62040d3)" style="fill: none; stroke: #b0b0b0; stroke-width: 0.8; stroke-linecap: square"/>
     </g>
     <g id="line2d_30">
      <g>
       <use xlink:href="#me885d9a778" x="57.6" y="65.3184" style="stroke: #000000; stroke-width: 0.8"/>
      </g>
     </g>
     <g id="text_10">
      <!-- 0.8 -->
      <g transform="translate(25.155 71.39715) scale(0.16 -0.16)">
       <defs>
        <path id="DejaVuSans-38" d="M 2034 2216 
Q 1584 2216 1326 1975 
Q 1069 1734 1069 1313 
Q 1069 891 1326 650 
Q 1584 409 2034 409 
Q 2484 409 2743 651 
Q 3003 894 3003 1313 
Q 3003 1734 2745 1975 
Q 2488 2216 2034 2216 
z
M 1403 2484 
Q 997 2584 770 2862 
Q 544 3141 544 3541 
Q 544 4100 942 4425 
Q 1341 4750 2034 4750 
Q 2731 4750 3128 4425 
Q 3525 4100 3525 3541 
Q 3525 3141 3298 2862 
Q 3072 2584 2669 2484 
Q 3125 2378 3379 2068 
Q 3634 1759 3634 1313 
Q 3634 634 3220 271 
Q 2806 -91 2034 -91 
Q 1263 -91 848 271 
Q 434 634 434 1313 
Q 434 1759 690 2068 
Q 947 2378 1403 2484 
z
M 1172 3481 
Q 1172 3119 1398 2916 
Q 1625 2713 2034 2713 
Q 2441 2713 2670 2916 
Q 2900 3119 2900 3481 
Q 2900 3844 2670 4047 
Q 2441 4250 2034 4250 
Q 1625 4250 1398 4047 
Q 1172 3844 1172 3481 
z
" transform="scale(0.015625)"/>
       </defs>
       <use xlink:href="#DejaVuSans-30"/>
       <use xlink:href="#DejaVuSans-2e" x="63.623047"/>
       <use xlink:href="#DejaVuSans-38" x="95.410156"/>
      </g>
     </g>
    </g>
    <g id="ytick_6">
     <g id="line2d_31">
      <path d="M 57.6 6.912 
L 360.8064 6.912 
" clip-path="url(#pa9e62040d3)" style="fill: none; stroke: #b0b0b0; stroke-width: 0.8; stroke-linecap: square"/>
     </g>
     <g id="line2d_32">
      <g>
       <use xlink:href="#me885d9a778" x="57.6" y="6.912" style="stroke: #000000; stroke-width: 0.8"/>
      </g>
     </g>
     <g id="text_11">
      <!-- 1.0 -->
      <g transform="translate(25.155 12.99075) scale(0.16 -0.16)">
       <use xlink:href="#DejaVuSans-31"/>
       <use xlink:href="#DejaVuSans-2e" x="63.623047"/>
       <use xlink:href="#DejaVuSans-30" x="95.410156"/>
      </g>
     </g>
    </g>
    <g id="text_12">
     <!-- Fraction of function,target pairs -->
     <g transform="translate(17.619531 287.313) rotate(-90) scale(0.17 -0.17)">
      <defs>
       <path id="DejaVuSans-46" d="M 628 4666 
L 3309 4666 
L 3309 4134 
L 1259 4134 
L 1259 2759 
L 3109 2759 
L 3109 2228 
L 1259 2228 
L 1259 0 
L 628 0 
L 628 4666 
z
" transform="scale(0.015625)"/>
       <path id="DejaVuSans-72" d="M 2631 2963 
Q 2534 3019 2420 3045 
Q 2306 3072 2169 3072 
Q 1681 3072 1420 2755 
Q 1159 2438 1159 1844 
L 1159 0 
L 581 0 
L 581 3500 
L 1159 3500 
L 1159 2956 
Q 1341 3275 1631 3429 
Q 1922 3584 2338 3584 
Q 2397 3584 2469 3576 
Q 2541 3569 2628 3553 
L 2631 2963 
z
" transform="scale(0.015625)"/>
       <path id="DejaVuSans-63" d="M 3122 3366 
L 3122 2828 
Q 2878 2963 2633 3030 
Q 2388 3097 2138 3097 
Q 1578 3097 1268 2742 
Q 959 2388 959 1747 
Q 959 1106 1268 751 
Q 1578 397 2138 397 
Q 2388 397 2633 464 
Q 2878 531 3122 666 
L 3122 134 
Q 2881 22 2623 -34 
Q 2366 -91 2075 -91 
Q 1284 -91 818 406 
Q 353 903 353 1747 
Q 353 2603 823 3093 
Q 1294 3584 2113 3584 
Q 2378 3584 2631 3529 
Q 2884 3475 3122 3366 
z
" transform="scale(0.015625)"/>
       <path id="DejaVuSans-74" d="M 1172 4494 
L 1172 3500 
L 2356 3500 
L 2356 3053 
L 1172 3053 
L 1172 1153 
Q 1172 725 1289 603 
Q 1406 481 1766 481 
L 2356 481 
L 2356 0 
L 1766 0 
Q 1100 0 847 248 
Q 594 497 594 1153 
L 594 3053 
L 172 3053 
L 172 3500 
L 594 3500 
L 594 4494 
L 1172 4494 
z
" transform="scale(0.015625)"/>
       <path id="DejaVuSans-75" d="M 544 1381 
L 544 3500 
L 1119 3500 
L 1119 1403 
Q 1119 906 1312 657 
Q 1506 409 1894 409 
Q 2359 409 2629 706 
Q 2900 1003 2900 1516 
L 2900 3500 
L 3475 3500 
L 3475 0 
L 2900 0 
L 2900 538 
Q 2691 219 2414 64 
Q 2138 -91 1772 -91 
Q 1169 -91 856 284 
Q 544 659 544 1381 
z
M 1991 3584 
L 1991 3584 
z
" transform="scale(0.015625)"/>
       <path id="DejaVuSans-2c" d="M 750 794 
L 1409 794 
L 1409 256 
L 897 -744 
L 494 -744 
L 750 256 
L 750 794 
z
" transform="scale(0.015625)"/>
       <path id="DejaVuSans-70" d="M 1159 525 
L 1159 -1331 
L 581 -1331 
L 581 3500 
L 1159 3500 
L 1159 2969 
Q 1341 3281 1617 3432 
Q 1894 3584 2278 3584 
Q 2916 3584 3314 3078 
Q 3713 2572 3713 1747 
Q 3713 922 3314 415 
Q 2916 -91 2278 -91 
Q 1894 -91 1617 61 
Q 1341 213 1159 525 
z
M 3116 1747 
Q 3116 2381 2855 2742 
Q 2594 3103 2138 3103 
Q 1681 3103 1420 2742 
Q 1159 2381 1159 1747 
Q 1159 1113 1420 752 
Q 1681 391 2138 391 
Q 2594 391 2855 752 
Q 3116 1113 3116 1747 
z
" transform="scale(0.015625)"/>
      </defs>
      <use xlink:href="#DejaVuSans-46"/>
      <use xlink:href="#DejaVuSans-72" x="50.269531"/>
      <use xlink:href="#DejaVuSans-61" x="91.382812"/>
      <use xlink:href="#DejaVuSans-63" x="152.662109"/>
      <use xlink:href="#DejaVuSans-74" x="207.642578"/>
      <use xlink:href="#DejaVuSans-69" x="246.851562"/>
      <use xlink:href="#DejaVuSans-6f" x="274.634766"/>
      <use xlink:href="#DejaVuSans-6e" x="335.816406"/>
      <use xlink:href="#DejaVuSans-20" x="399.195312"/>
      <use xlink:href="#DejaVuSans-6f" x="430.982422"/>
      <use xlink:href="#DejaVuSans-66" x="492.164062"/>
      <use xlink:href="#DejaVuSans-20" x="527.369141"/>
      <use xlink:href="#DejaVuSans-66" x="559.15625"/>
      <use xlink:href="#DejaVuSans-75" x="594.361328"/>
      <use xlink:href="#DejaVuSans-6e" x="657.740234"/>
      <use xlink:href="#DejaVuSans-63" x="721.119141"/>
      <use xlink:href="#DejaVuSans-74" x="776.099609"/>
      <use xlink:href="#DejaVuSans-69" x="815.308594"/>
      <use xlink:href="#DejaVuSans-6f" x="843.091797"/>
      <use xlink:href="#DejaVuSans-6e" x="904.273438"/>
      <use xlink:href="#DejaVuSans-2c" x="967.652344"/>
      <use xlink:href="#DejaVuSans-74" x="999.439453"/>
      <use xlink:href="#DejaVuSans-61" x="1038.648438"/>
      <use xlink:href="#DejaVuSans-72" x="1099.927734"/>
      <use xlink:href="#DejaVuSans-67" x="1139.291016"/>
      <use xlink:href="#DejaVuSans-65" x="1202.767578"/>
      <use xlink:href="#DejaVuSans-74" x="1264.291016"/>
      <use xlink:href="#DejaVuSans-20" x="1303.5"/>
      <use xlink:href="#DejaVuSans-70" x="1335.287109"/>
      <use xlink:href="#DejaVuSans-61" x="1398.763672"/>
      <use xlink:href="#DejaVuSans-69" x="1460.042969"/>
      <use xlink:href="#DejaVuSans-72" x="1487.826172"/>
      <use xlink:href="#DejaVuSans-73" x="1528.939453"/>
     </g>
    </g>
   </g>
   <g id="line2d_33">
    <defs>
     <path id="mc32bf2d166" d="M 0 1.5 
C 0.397805 1.5 0.77937 1.341951 1.06066 1.06066 
C 1.341951 0.77937 1.5 0.397805 1.5 0 
C 1.5 -0.397805 1.341951 -0.77937 1.06066 -1.06066 
C 0.77937 -1.341951 0.397805 -1.5 0 -1.5 
C -0.397805 -1.5 -0.77937 -1.341951 -1.06066 -1.06066 
C -1.341951 -0.77937 -1.5 -0.397805 -1.5 0 
C -1.5 0.397805 -1.341951 0.77937 -1.06066 1.06066 
C -0.77937 1.341951 -0.397805 1.5 0 1.5 
z
" style="stroke: #f5deb3"/>
    </defs>
    <g>
     <use xlink:href="#mc32bf2d166" x="318.688117" y="42.157241" style="fill: #f5deb3; stroke: #f5deb3"/>
     <use xlink:href="#mc32bf2d166" x="318.688117" y="42.157241" style="fill: #f5deb3; stroke: #f5deb3"/>
    </g>
   </g>
   <g id="line2d_34">
    <defs>
     <path id="m26ca4c3c48" d="M 0 1.5 
C 0.397805 1.5 0.77937 1.341951 1.06066 1.06066 
C 1.341951 0.77937 1.5 0.397805 1.5 0 
C 1.5 -0.397805 1.341951 -0.77937 1.06066 -1.06066 
C 0.77937 -1.341951 0.397805 -1.5 0 -1.5 
C -0.397805 -1.5 -0.77937 -1.341951 -1.06066 -1.06066 
C -1.341951 -0.77937 -1.5 -0.397805 -1.5 0 
C -1.5 0.397805 -1.341951 0.77937 -1.06066 1.06066 
C -0.77937 1.341951 -0.397805 1.5 0 1.5 
z
" style="stroke: #000080"/>
    </defs>
    <g>
     <use xlink:href="#m26ca4c3c48" x="187.272744" y="194.089407" style="fill: #000080; stroke: #000080"/>
     <use xlink:href="#m26ca4c3c48" x="187.272744" y="194.089407" style="fill: #000080; stroke: #000080"/>
    </g>
   </g>
   <g id="line2d_35">
    <path d="M 1.245626 298.944 
L 1.245626 289.629186 
L 34.951403 289.629186 
L 34.951403 289.50331 
L 42.578831 289.50331 
L 42.578831 289.377434 
L 70.639174 289.377434 
L 70.639174 289.251559 
L 77.950435 289.251559 
L 77.950435 289.125683 
L 89.668958 289.125683 
L 89.668958 288.999807 
L 101.379706 288.999807 
L 101.379706 288.873931 
L 109.579508 288.873931 
L 109.579508 288.748055 
L 114.961559 288.748055 
L 114.961559 288.496303 
L 117.423276 288.496303 
L 117.462345 288.244552 
L 118.487648 288.244552 
L 118.487648 288.118676 
L 119.424815 288.118676 
L 119.459944 287.866924 
L 123.825333 287.866924 
L 123.825333 287.741048 
L 124.346766 287.741048 
L 124.373813 287.489297 
L 125.193561 287.489297 
L 125.193561 287.363421 
L 125.60308 287.363421 
L 125.60308 287.237545 
L 125.954239 287.237545 
L 125.954239 287.111669 
L 126.225624 287.111669 
L 126.225624 286.985793 
L 126.851931 286.985793 
L 126.851931 286.734041 
L 127.366067 286.734041 
L 127.366067 286.608166 
L 128.023009 286.608166 
L 128.023009 286.48229 
L 128.222309 286.48229 
L 128.332126 286.230538 
L 129.125437 286.230538 
L 129.146421 285.978786 
L 129.826058 285.978786 
L 129.886643 285.727034 
L 130.186674 285.727034 
L 130.28563 285.475283 
L 130.86868 285.475283 
L 130.86868 285.223531 
L 131.021155 285.223531 
L 131.021155 285.097655 
L 132.216233 285.097655 
L 132.216233 284.971779 
L 132.428795 284.971779 
L 132.481562 284.720028 
L 132.604114 284.720028 
L 132.604114 284.594152 
L 132.881269 284.594152 
L 132.881269 284.468276 
L 133.154399 284.468276 
L 133.154399 284.3424 
L 133.506969 284.3424 
L 133.540205 284.090648 
L 133.623039 284.090648 
L 133.623039 283.964772 
L 134.031824 283.964772 
L 134.112526 283.713021 
L 134.192883 283.713021 
L 134.192883 283.587145 
L 134.304809 283.587145 
L 134.304809 283.461269 
L 134.620977 283.461269 
L 134.620977 283.335393 
L 135.131309 283.335393 
L 135.131309 283.209517 
L 135.373847 283.209517 
L 135.373847 283.083641 
L 135.52386 283.083641 
L 135.583532 282.706014 
L 135.657857 282.706014 
L 135.657857 282.580138 
L 136.371107 282.580138 
L 136.470828 281.950759 
L 136.541735 281.950759 
L 136.541735 281.824883 
L 136.682752 281.824883 
L 136.696795 281.447255 
L 136.836659 281.447255 
L 136.836659 281.321379 
L 137.072066 281.321379 
L 137.181835 280.692 
L 137.372402 280.692 
L 137.372402 280.566124 
L 137.520791 280.566124 
L 137.614614 280.062621 
L 137.959061 280.062621 
L 138.063788 279.810869 
L 138.076838 279.810869 
L 138.076838 279.684993 
L 138.219793 279.684993 
L 138.219793 279.559117 
L 138.335954 279.559117 
L 138.425808 279.18149 
L 138.515235 279.18149 
L 138.566146 278.929738 
L 138.755844 278.929738 
L 138.755844 278.803862 
L 138.89375 278.803862 
L 138.89375 278.677986 
L 139.055437 278.677986 
L 139.055437 278.55211 
L 139.215746 278.55211 
L 139.252547 278.300359 
L 139.350333 278.300359 
L 139.435481 277.922731 
L 139.616653 277.922731 
L 139.616653 277.796855 
L 139.748412 277.796855 
L 139.748412 277.670979 
L 139.879255 277.670979 
L 139.879255 277.545103 
L 139.997419 277.545103 
L 140.067962 277.293352 
L 140.14993 277.293352 
L 140.14993 277.0416 
L 140.520157 277.0416 
L 140.600182 276.663972 
L 140.634374 276.663972 
L 140.634374 276.538097 
L 140.747902 276.538097 
L 140.849495 275.908717 
L 140.91692 275.908717 
L 140.91692 275.782841 
L 141.039908 275.782841 
L 141.13994 275.405214 
L 141.206334 275.405214 
L 141.206334 275.153462 
L 141.415049 275.153462 
L 141.415049 275.027586 
L 141.534833 275.027586 
L 141.534833 274.90171 
L 141.65386 274.90171 
L 141.761416 274.524083 
L 141.782854 274.524083 
L 141.889677 274.146455 
L 141.985302 274.146455 
L 141.985302 274.020579 
L 142.164612 274.020579 
L 142.248405 273.642952 
L 142.279732 273.642952 
L 142.300587 273.3912 
L 142.47693 273.3912 
L 142.569624 273.139448 
L 142.702713 273.139448 
L 142.702713 273.013572 
L 142.966099 273.013572 
L 142.986208 272.761821 
L 143.096422 272.761821 
L 143.096422 272.510069 
L 143.225848 272.510069 
L 143.295173 272.258317 
L 143.35439 272.258317 
L 143.35439 272.132441 
L 143.647716 272.132441 
L 143.734829 271.503062 
L 143.859951 271.503062 
L 143.869541 271.25131 
L 143.984246 271.25131 
L 144.079302 270.999559 
L 144.2304 270.999559 
L 144.2304 270.621931 
L 144.454795 270.621931 
L 144.501209 270.370179 
L 144.740732 270.370179 
L 144.832051 269.992552 
L 144.868454 269.992552 
L 144.950106 269.614924 
L 145.148219 269.614924 
L 145.246498 268.859669 
L 145.529517 268.859669 
L 145.529517 268.733793 
L 145.643288 268.733793 
L 145.643288 268.482041 
L 145.868787 268.482041 
L 145.971958 267.726786 
L 145.98053 267.726786 
L 145.98053 267.60091 
L 146.202046 267.60091 
L 146.202046 267.349159 
L 146.362288 267.349159 
L 146.420983 266.971531 
L 146.487839 266.971531 
L 146.487839 266.845655 
L 146.637401 266.845655 
L 146.744684 265.964524 
L 146.957431 265.964524 
L 146.957431 265.838648 
L 147.111393 265.838648 
L 147.111393 265.586897 
L 147.375841 265.586897 
L 147.479005 265.209269 
L 147.581606 265.209269 
L 147.683651 264.705766 
L 147.785146 264.705766 
L 147.886095 264.328138 
L 147.94795 264.328138 
L 147.94795 264.202262 
L 148.284563 264.202262 
L 148.382875 263.572883 
L 148.674765 263.572883 
L 148.771063 263.069379 
L 148.866872 263.069379 
L 148.962194 262.314124 
L 149.027905 262.314124 
L 149.027905 262.188248 
L 149.151403 262.188248 
L 149.245299 261.810621 
L 149.281288 261.810621 
L 149.281288 261.684745 
L 149.431695 261.684745 
L 149.431695 261.558869 
L 149.616263 261.558869 
L 149.707872 261.055366 
L 149.799037 261.055366 
L 149.799037 260.92949 
L 150.159343 260.92949 
L 150.248351 260.425986 
L 150.472422 260.425986 
L 150.512877 260.174234 
L 150.600232 260.174234 
L 150.600232 259.544855 
L 150.773735 259.544855 
L 150.879716 259.167228 
L 150.971962 259.167228 
L 151.031025 258.537848 
L 151.116012 258.537848 
L 151.116012 258.411972 
L 151.535282 258.411972 
L 151.535282 258.160221 
L 151.700408 258.160221 
L 151.782431 257.782593 
L 151.882893 257.782593 
L 151.882893 257.530841 
L 152.026375 257.530841 
L 152.057422 257.27909 
L 152.187264 257.27909 
L 152.267196 256.64971 
L 152.426047 256.64971 
L 152.426047 256.397959 
L 152.541288 256.397959 
L 152.541288 256.272083 
L 152.661837 256.272083 
L 152.667844 255.894455 
L 152.817404 255.894455 
L 152.894708 255.642703 
L 153.048369 255.642703 
L 153.124731 255.390952 
L 153.276532 255.390952 
L 153.276532 255.1392 
L 153.427118 255.1392 
L 153.501961 254.635697 
L 153.724721 254.635697 
L 153.82665 254.132193 
L 153.944874 254.132193 
L 154.040037 253.62869 
L 154.090224 253.62869 
L 154.090224 253.376938 
L 154.234459 253.376938 
L 154.234459 253.251062 
L 154.377597 253.251062 
L 154.421422 252.99931 
L 154.590283 252.99931 
L 154.671449 252.621683 
L 154.870174 252.621683 
L 154.870174 252.495807 
L 155.077392 252.495807 
L 155.151225 251.992303 
L 155.214281 251.992303 
L 155.214281 251.866428 
L 155.350181 251.866428 
L 155.417764 251.4888 
L 155.619069 251.4888 
L 155.690811 250.733545 
L 155.752086 250.733545 
L 155.752086 250.607669 
L 155.949864 250.607669 
L 156.030406 250.355917 
L 156.145584 250.355917 
L 156.210374 249.726538 
L 156.339289 249.726538 
L 156.34423 249.34891 
L 156.565227 249.34891 
L 156.657763 248.971283 
L 156.846291 248.971283 
L 156.846291 248.845407 
L 157.032948 248.845407 
L 157.094758 248.467779 
L 157.217771 248.467779 
L 157.217771 248.341903 
L 157.339986 248.341903 
L 157.400797 248.090152 
L 157.521831 248.090152 
L 157.582058 247.8384 
L 157.821055 247.8384 
L 157.821055 247.712524 
L 157.998331 247.712524 
L 158.057053 247.209021 
L 158.200825 247.209021 
L 158.200825 247.083145 
L 158.405591 247.083145 
L 158.463058 246.705517 
L 158.52035 246.705517 
L 158.546733 246.453766 
L 158.860484 246.453766 
L 158.91658 245.950262 
L 158.97251 245.950262 
L 159.028273 245.446759 
L 159.447595 245.446759 
L 159.522842 244.817379 
L 159.631002 244.817379 
L 159.734419 244.439752 
L 159.870065 244.439752 
L 159.870065 244.313876 
L 160.00474 244.313876 
L 160.110173 243.558621 
L 160.162668 243.558621 
L 160.174762 243.180993 
L 160.422971 243.180993 
L 160.422971 242.929241 
L 160.765833 242.929241 
L 160.789249 242.299862 
L 160.983265 242.299862 
L 160.983265 242.173986 
L 161.098721 242.173986 
L 161.098721 241.922234 
L 161.319946 241.922234 
L 161.42959 241.544607 
L 161.478535 241.544607 
L 161.478535 241.041103 
L 161.624608 241.041103 
L 161.721364 240.663476 
L 161.769556 240.663476 
L 161.880299 240.159972 
L 161.961099 240.159972 
L 162.056144 239.782345 
L 162.150711 239.782345 
L 162.150711 239.530593 
L 162.288075 239.530593 
L 162.288075 239.404717 
L 162.413713 239.404717 
L 162.524296 238.649462 
L 162.570477 238.649462 
L 162.570477 238.39771 
L 162.925456 238.39771 
L 162.925456 238.271834 
L 163.133205 238.271834 
L 163.205379 237.894207 
L 163.294355 237.894207 
L 163.294355 237.768331 
L 163.514971 237.768331 
L 163.514971 237.642455 
L 163.753032 237.642455 
L 163.822871 236.257821 
L 163.94859 236.257821 
L 163.991407 235.754317 
L 164.161708 235.754317 
L 164.161708 235.502566 
L 164.414303 235.502566 
L 164.520157 234.621434 
L 164.53934 234.621434 
L 164.580835 234.117931 
L 164.663551 234.117931 
L 164.663551 233.992055 
L 164.8279 233.992055 
L 164.915805 233.110924 
L 164.990826 233.110924 
L 165.034451 232.481545 
L 165.112101 232.481545 
L 165.180169 232.229793 
L 165.226438 232.229793 
L 165.312505 231.09691 
L 165.446961 231.09691 
L 165.471304 230.719283 
L 165.595573 230.719283 
L 165.595573 230.467531 
L 165.707018 230.467531 
L 165.784938 230.215779 
L 165.874446 230.215779 
L 165.874446 229.964028 
L 166.175626 229.964028 
L 166.225357 229.5864 
L 166.338952 229.5864 
L 166.396941 228.957021 
L 166.546881 228.957021 
L 166.621405 228.453517 
L 166.695635 228.453517 
L 166.806433 228.201766 
L 166.843221 228.201766 
L 166.91095 227.950014 
L 166.989659 227.950014 
L 166.989659 227.698262 
L 167.140533 227.698262 
L 167.23491 226.817131 
L 167.45786 226.817131 
L 167.566992 226.439503 
L 167.580589 226.439503 
L 167.580589 226.313628 
L 167.777995 226.313628 
L 167.847807 225.558372 
L 168.116567 225.558372 
L 168.206184 224.677241 
L 168.363297 224.677241 
L 168.389355 224.42549 
L 168.52945 224.42549 
L 168.596533 224.047862 
L 168.745323 224.047862 
L 168.788711 223.544359 
L 168.887874 223.544359 
L 168.887874 223.292607 
L 169.006686 223.292607 
L 169.006686 223.040855 
L 169.132265 223.040855 
L 169.234617 222.159724 
L 169.319074 222.159724 
L 169.319074 222.033848 
L 169.619042 222.033848 
L 169.701795 221.530345 
L 169.75999 221.530345 
L 169.837305 221.278593 
L 169.969451 221.278593 
L 170.031598 220.77509 
L 170.117311 220.77509 
L 170.117311 220.523338 
L 170.474965 220.523338 
L 170.528496 220.14571 
L 170.595776 220.14571 
L 170.67435 219.893959 
L 170.805345 219.893959 
L 170.848808 219.138703 
L 170.983137 219.138703 
L 171.071406 218.005821 
L 171.246712 218.005821 
L 171.304786 217.12469 
L 171.362682 217.12469 
L 171.446979 216.49531 
L 171.502232 216.49531 
L 171.502232 216.369434 
L 171.649516 216.369434 
L 171.66265 215.865931 
L 171.929885 215.865931 
L 172.022421 215.110676 
L 172.073871 215.110676 
L 172.182738 214.733048 
L 172.204011 214.733048 
L 172.237998 214.481297 
L 172.385971 214.481297 
L 172.482581 214.229545 
L 172.634885 214.229545 
L 172.634885 214.103669 
L 172.755021 214.103669 
L 172.86208 213.47429 
L 172.995054 213.47429 
L 173.10076 212.593159 
L 173.135189 212.593159 
L 173.199827 212.341407 
L 173.264243 212.341407 
L 173.310406 211.963779 
L 173.388425 211.963779 
L 173.478047 211.3344 
L 173.549438 211.3344 
L 173.604778 210.705021 
L 173.689448 210.705021 
L 173.787425 210.075641 
L 173.855707 210.075641 
L 173.917919 209.82389 
L 173.974123 209.82389 
L 173.974123 209.698014 
L 174.151319 209.698014 
L 174.151319 209.572138 
L 174.374282 209.572138 
L 174.410241 209.068634 
L 174.788357 209.068634 
L 174.867875 208.816883 
L 174.991109 208.816883 
L 174.991109 208.565131 
L 175.166288 208.565131 
L 175.242419 208.187503 
L 175.374013 208.187503 
L 175.374013 208.061628 
L 175.561692 208.061628 
L 175.646869 207.558124 
L 176.006364 207.558124 
L 176.025461 206.676993 
L 176.180987 206.676993 
L 176.180987 206.551117 
L 176.292516 206.551117 
L 176.379563 205.921738 
L 176.587858 205.921738 
L 176.648389 205.54411 
L 176.753851 205.54411 
L 176.832146 205.166483 
L 176.880293 205.166483 
L 176.888582 204.914731 
L 177.199252 204.914731 
L 177.280589 204.285352 
L 177.330842 204.285352 
L 177.330842 204.159476 
L 177.493644 204.159476 
L 177.493644 203.907724 
L 177.629572 203.907724 
L 177.728103 203.404221 
L 177.762943 203.404221 
L 177.762943 203.278345 
L 177.926769 203.278345 
L 177.926769 203.152469 
L 178.056499 203.152469 
L 178.086071 202.648966 
L 178.302547 202.648966 
L 178.360877 201.89371 
L 178.531754 201.89371 
L 178.580292 201.516083 
L 178.773202 201.516083 
L 178.773202 201.390207 
L 178.934444 201.390207 
L 179.039699 200.886703 
L 179.116414 200.886703 
L 179.116414 200.634952 
L 179.235294 200.634952 
L 179.344702 200.257324 
L 179.349065 200.257324 
L 179.447692 199.879697 
L 179.593234 199.879697 
L 179.604714 199.250317 
L 180.12676 199.250317 
L 180.195006 198.87269 
L 180.39277 198.87269 
L 180.455946 198.620938 
L 180.584391 198.620938 
L 180.656427 198.24331 
L 180.833303 198.24331 
L 180.833303 198.117434 
L 181.196649 198.117434 
L 181.266382 197.865683 
L 181.445448 197.865683 
L 181.445448 197.739807 
L 181.778108 197.739807 
L 181.778108 197.488055 
L 182.042081 197.488055 
L 182.042081 197.362179 
L 182.1827 197.362179 
L 182.1827 197.236303 
L 182.609368 197.236303 
L 182.609368 197.110428 
L 182.876479 197.110428 
L 182.876479 196.984552 
L 183.028965 196.984552 
L 183.10177 196.481048 
L 183.235897 196.481048 
L 183.235897 196.355172 
L 183.794068 196.355172 
L 183.858256 195.851669 
L 184.067629 195.851669 
L 184.067629 195.725793 
L 184.307127 195.725793 
L 184.307127 195.599917 
L 184.492792 195.599917 
L 184.492792 195.474041 
L 185.194222 195.474041 
L 185.194222 195.348166 
L 185.943294 195.348166 
L 186.045437 194.718786 
L 186.349581 194.718786 
L 186.349581 194.467034 
L 186.57079 194.467034 
L 186.57079 194.341159 
L 187.272744 194.341159 
L 187.272744 194.089407 
L 360.8064 194.089407 
L 360.8064 194.089407 
" style="fill: none; stroke: #000080; stroke-width: 1.5; stroke-linecap: square"/>
   </g>
   <g id="line2d_36">
    <defs>
     <path id="m8914087aa4" d="M 0 6 
C 1.591219 6 3.117479 5.367802 4.242641 4.242641 
C 5.367802 3.117479 6 1.591219 6 0 
C 6 -1.591219 5.367802 -3.117479 4.242641 -4.242641 
C 3.117479 -5.367802 1.591219 -6 0 -6 
C -1.591219 -6 -3.117479 -5.367802 -4.242641 -4.242641 
C -5.367802 -3.117479 -6 -1.591219 -6 0 
C -6 1.591219 -5.367802 3.117479 -4.242641 4.242641 
C -3.117479 5.367802 -1.591219 6 0 6 
z
" style="stroke: #000080; stroke-width: 1.5"/>
    </defs>
    <g>
     <use xlink:href="#m8914087aa4" x="101.379706" y="288.873931" style="fill-opacity: 0; stroke: #000080; stroke-width: 1.5"/>
     <use xlink:href="#m8914087aa4" x="165.312505" y="231.09691" style="fill-opacity: 0; stroke: #000080; stroke-width: 1.5"/>
     <use xlink:href="#m8914087aa4" x="187.272744" y="194.341159" style="fill-opacity: 0; stroke: #000080; stroke-width: 1.5"/>
     <use xlink:href="#m8914087aa4" x="187.272744" y="194.089407" style="fill-opacity: 0; stroke: #000080; stroke-width: 1.5"/>
     <use xlink:href="#m8914087aa4" x="187.272744" y="194.089407" style="fill-opacity: 0; stroke: #000080; stroke-width: 1.5"/>
     <use xlink:href="#m8914087aa4" x="360.8064" y="194.089407" style="fill-opacity: 0; stroke: #000080; stroke-width: 1.5"/>
    </g>
   </g>
   <g id="line2d_37">
    <path style="fill: none; stroke: #000080; stroke-width: 1.5; stroke-linecap: square"/>
    <g/>
   </g>
   <g id="line2d_38">
    <path d="M 187.549362 194.089407 
" clip-path="url(#pa9e62040d3)" style="fill: none; stroke: #000080; stroke-width: 1.5; stroke-linecap: square"/>
    <defs>
     <path id="m44fe83837c" d="M -12 12 
L 12 -12 
M -12 -12 
L 12 12 
" style="stroke: #000080"/>
    </defs>
    <g clip-path="url(#pa9e62040d3)">
     <use xlink:href="#m44fe83837c" x="187.549362" y="194.089407" style="fill: #000080; stroke: #000080"/>
    </g>
   </g>
   <g id="line2d_39">
    <defs>
     <path id="me2c9775687" d="M 0 1.5 
C 0.397805 1.5 0.77937 1.341951 1.06066 1.06066 
C 1.341951 0.77937 1.5 0.397805 1.5 0 
C 1.5 -0.397805 1.341951 -0.77937 1.06066 -1.06066 
C 0.77937 -1.341951 0.397805 -1.5 0 -1.5 
C -0.397805 -1.5 -0.77937 -1.341951 -1.06066 -1.06066 
C -1.341951 -0.77937 -1.5 -0.397805 -1.5 0 
C -1.5 0.397805 -1.341951 0.77937 -1.06066 1.06066 
C -0.77937 1.341951 -0.397805 1.5 0 1.5 
z
" style="stroke: #ff00ff"/>
    </defs>
    <g>
     <use xlink:href="#me2c9775687" x="187.220183" y="192.830648" style="fill: #ff00ff; stroke: #ff00ff"/>
     <use xlink:href="#me2c9775687" x="187.220183" y="192.830648" style="fill: #ff00ff; stroke: #ff00ff"/>
    </g>
   </g>
   <g id="line2d_40">
    <path d="M 1.245626 298.944 
L 1.245626 289.629186 
L 27.323974 289.629186 
L 27.323974 289.50331 
L 34.951403 289.50331 
L 34.951403 289.251559 
L 46.353758 289.251559 
L 46.353758 289.125683 
L 74.836851 289.125683 
L 74.836851 288.999807 
L 86.712053 288.999807 
L 86.712053 288.873931 
L 90.007914 288.873931 
L 90.007914 288.748055 
L 94.735529 288.748055 
L 94.735529 288.622179 
L 95.998523 288.622179 
L 95.998523 288.496303 
L 98.933205 288.496303 
L 98.933205 288.370428 
L 99.14107 288.370428 
L 99.244147 288.118676 
L 101.287718 288.118676 
L 101.287718 287.9928 
L 102.275664 287.9928 
L 102.275664 287.866924 
L 102.878374 287.866924 
L 102.878374 287.741048 
L 108.791791 287.741048 
L 108.791791 287.615172 
L 115.575511 287.615172 
L 115.618607 287.363421 
L 115.704505 287.363421 
L 115.704505 287.237545 
L 116.044226 287.237545 
L 116.044226 287.111669 
L 117.028061 287.111669 
L 117.028061 286.985793 
L 117.617813 286.985793 
L 117.617813 286.859917 
L 117.924947 286.859917 
L 117.924947 286.734041 
L 118.853643 286.734041 
L 118.853643 286.608166 
L 120.28394 286.608166 
L 120.28394 286.48229 
L 121.201758 286.48229 
L 121.201758 286.356414 
L 121.487509 286.356414 
L 121.550424 286.104662 
L 121.985033 286.104662 
L 121.985033 285.978786 
L 122.168264 285.978786 
L 122.168264 285.85291 
L 122.289434 285.85291 
L 122.349728 285.475283 
L 122.618682 285.475283 
L 122.618682 285.349407 
L 123.058567 285.349407 
L 123.058567 285.223531 
L 123.825333 285.223531 
L 123.825333 285.097655 
L 124.481616 285.097655 
L 124.562065 284.594152 
L 124.721937 284.594152 
L 124.774928 284.3424 
L 124.985409 284.3424 
L 124.985409 284.216524 
L 126.661432 284.216524 
L 126.661432 284.090648 
L 126.78072 284.090648 
L 126.78072 283.964772 
L 127.134109 283.964772 
L 127.227236 283.587145 
L 127.663399 283.587145 
L 127.663399 283.461269 
L 127.79906 283.461269 
L 127.844063 283.209517 
L 128.067481 283.209517 
L 128.067481 282.957766 
L 128.528195 282.957766 
L 128.636246 282.454262 
L 128.935527 282.454262 
L 128.935527 282.328386 
L 129.146421 282.328386 
L 129.146421 282.20251 
L 129.643124 282.20251 
L 129.744974 281.950759 
L 130.344755 281.950759 
L 130.403695 281.699007 
L 130.481995 281.699007 
L 130.55997 281.447255 
L 130.676331 281.447255 
L 130.753507 281.069628 
L 131.021155 281.069628 
L 131.078016 280.817876 
L 131.191226 280.817876 
L 131.191226 280.692 
L 131.41562 280.692 
L 131.41562 280.566124 
L 131.526822 280.566124 
L 131.618991 280.188497 
L 131.692402 280.188497 
L 131.765527 279.936745 
L 131.83837 279.936745 
L 131.83837 279.810869 
L 132.126951 279.810869 
L 132.180571 279.559117 
L 132.305093 279.559117 
L 132.393534 279.307366 
L 132.638982 279.307366 
L 132.725872 278.929738 
L 132.949924 278.929738 
L 132.949924 278.677986 
L 133.069471 278.677986 
L 133.069471 278.55211 
L 133.238946 278.55211 
L 133.289492 278.048607 
L 133.406907 278.048607 
L 133.473674 277.670979 
L 133.606501 277.670979 
L 133.606501 277.545103 
L 133.754819 277.545103 
L 133.771227 277.167476 
L 134.047992 277.167476 
L 134.047992 277.0416 
L 134.160781 277.0416 
L 134.240933 276.789848 
L 134.431915 276.789848 
L 134.463557 276.412221 
L 134.792631 276.412221 
L 134.792631 276.286345 
L 134.962732 276.286345 
L 135.008858 276.034593 
L 135.116046 276.034593 
L 135.161798 275.782841 
L 135.252969 275.782841 
L 135.252969 275.656966 
L 135.418977 275.656966 
L 135.418977 275.53109 
L 135.628162 275.53109 
L 135.717106 275.153462 
L 135.893741 275.153462 
L 135.893741 275.027586 
L 136.097741 275.027586 
L 136.184497 274.649959 
L 136.227726 274.649959 
L 136.313886 274.272331 
L 136.456614 274.272331 
L 136.541735 273.768828 
L 136.752866 273.768828 
L 136.780838 273.265324 
L 136.906202 273.265324 
L 137.01694 272.761821 
L 137.331728 272.761821 
L 137.439996 272.510069 
L 137.480437 272.510069 
L 137.587855 272.006566 
L 137.747841 272.006566 
L 137.853747 271.377186 
L 137.893309 271.377186 
L 137.893309 271.125434 
L 138.03766 271.125434 
L 138.03766 270.999559 
L 138.193882 270.999559 
L 138.193882 270.873683 
L 138.348817 270.873683 
L 138.438609 270.244303 
L 138.65491 270.244303 
L 138.667556 269.992552 
L 138.806108 269.992552 
L 138.843719 269.7408 
L 138.931186 269.7408 
L 139.018248 269.237297 
L 139.117256 269.237297 
L 139.178873 268.859669 
L 139.289277 268.859669 
L 139.350333 268.482041 
L 139.544394 268.482041 
L 139.544394 268.356166 
L 139.676658 268.356166 
L 139.784187 267.978538 
L 139.819894 267.978538 
L 139.891105 267.60091 
L 140.16161 267.60091 
L 140.196609 267.349159 
L 140.312801 267.349159 
L 140.34752 267.097407 
L 140.474275 267.097407 
L 140.474275 266.845655 
L 140.58877 266.845655 
L 140.691224 266.468028 
L 140.793122 266.468028 
L 140.793122 266.216276 
L 140.91692 266.216276 
L 140.91692 265.964524 
L 141.028761 265.964524 
L 141.028761 265.712772 
L 141.195285 265.712772 
L 141.305488 265.335145 
L 141.469591 265.335145 
L 141.523975 265.083393 
L 141.664643 265.083393 
L 141.772138 264.705766 
L 141.995897 264.705766 
L 141.995897 264.454014 
L 142.122575 264.454014 
L 142.133093 264.202262 
L 142.753651 264.202262 
L 142.855116 263.824634 
L 142.895549 263.824634 
L 142.895549 263.698759 
L 143.02636 263.698759 
L 143.126369 263.195255 
L 143.156268 263.195255 
L 143.176174 262.691752 
L 143.324805 262.691752 
L 143.324805 262.565876 
L 143.5114 262.565876 
L 143.579681 261.936497 
L 143.705836 261.936497 
L 143.763777 261.307117 
L 143.850356 261.307117 
L 143.850356 261.181241 
L 144.117191 261.181241 
L 144.145557 260.92949 
L 144.2304 260.92949 
L 144.324223 260.677738 
L 144.389622 260.677738 
L 144.445498 260.425986 
L 144.547509 260.425986 
L 144.648968 260.048359 
L 144.822939 260.048359 
L 144.85936 259.293103 
L 144.959156 259.293103 
L 145.058426 258.915476 
L 145.29989 258.915476 
L 145.326529 258.663724 
L 145.459161 258.663724 
L 145.459161 258.537848 
L 145.652011 258.537848 
L 145.652011 258.411972 
L 145.765046 258.411972 
L 145.765046 258.286097 
L 146.066037 258.286097 
L 146.074567 258.034345 
L 146.185098 258.034345 
L 146.235895 257.404966 
L 146.311833 257.404966 
L 146.328666 257.027338 
L 146.471147 257.027338 
L 146.512849 256.523834 
L 146.686993 256.523834 
L 146.686993 256.272083 
L 146.99807 256.272083 
L 147.054816 255.894455 
L 147.175843 255.894455 
L 147.175843 255.768579 
L 147.494826 255.768579 
L 147.605204 255.390952 
L 147.769567 255.390952 
L 147.855092 255.013324 
L 147.932506 255.013324 
L 147.940229 254.635697 
L 148.048032 254.635697 
L 148.132303 254.132193 
L 148.495677 254.132193 
L 148.495677 253.880441 
L 148.689612 253.880441 
L 148.719271 253.62869 
L 149.115164 253.62869 
L 149.115164 253.502814 
L 149.488678 253.502814 
L 149.488678 253.376938 
L 149.882799 253.376938 
L 149.959255 252.873434 
L 150.007747 252.873434 
L 150.007747 252.747559 
L 150.255181 252.747559 
L 150.289291 252.369931 
L 150.418347 252.369931 
L 150.485917 251.866428 
L 150.600232 251.866428 
L 150.600232 251.4888 
L 150.787015 251.4888 
L 150.787015 251.111172 
L 151.004798 251.111172 
L 151.076835 250.230041 
L 151.445764 250.230041 
L 151.54166 249.97829 
L 152.057422 249.97829 
L 152.131727 249.600662 
L 152.27333 249.600662 
L 152.27333 249.474786 
L 152.426047 249.474786 
L 152.480723 249.097159 
L 152.56546 249.097159 
L 152.619733 248.467779 
L 152.679853 248.467779 
L 152.739781 248.216028 
L 152.876897 248.216028 
L 152.91843 247.964276 
L 153.018916 247.964276 
L 153.018916 247.8384 
L 153.189104 247.8384 
L 153.276532 247.334897 
L 153.328795 247.334897 
L 153.328795 247.209021 
L 153.461698 247.209021 
L 153.559331 246.957269 
L 153.758759 246.957269 
L 153.82665 246.579641 
L 153.877408 246.579641 
L 153.911171 246.076138 
L 154.101358 246.076138 
L 154.173572 245.572634 
L 154.251031 245.572634 
L 154.251031 245.320883 
L 154.552285 245.320883 
L 154.552285 245.195007 
L 154.752266 245.195007 
L 154.848791 244.439752 
L 155.061533 244.439752 
L 155.145961 243.810372 
L 155.230012 243.810372 
L 155.313689 243.180993 
L 155.567658 243.180993 
L 155.598521 242.67749 
L 155.777559 242.67749 
L 155.777559 242.425738 
L 155.980108 242.425738 
L 155.980108 242.173986 
L 156.354107 242.173986 
L 156.457508 241.796359 
L 156.745011 241.796359 
L 156.79813 241.544607 
L 156.951812 241.544607 
L 156.99481 240.789352 
L 157.142166 240.789352 
L 157.142166 240.663476 
L 157.330613 240.663476 
L 157.396126 240.285848 
L 157.540383 240.285848 
L 157.632869 239.656469 
L 157.784483 239.656469 
L 157.848437 239.152966 
L 158.052543 239.152966 
L 158.120089 238.901214 
L 158.493929 238.901214 
L 158.493929 238.649462 
L 158.625663 238.649462 
L 158.625663 238.523586 
L 158.76517 238.523586 
L 158.869125 237.516579 
L 158.938111 237.516579 
L 159.041118 237.138952 
L 159.15633 237.138952 
L 159.15633 237.013076 
L 159.355217 237.013076 
L 159.439216 236.257821 
L 159.476894 236.257821 
L 159.556188 235.754317 
L 159.672437 235.754317 
L 159.767393 235.37669 
L 159.812638 235.37669 
L 159.894624 235.124938 
L 159.935483 235.124938 
L 159.984397 234.495559 
L 160.065639 234.495559 
L 160.065639 234.369683 
L 160.227078 234.369683 
L 160.231096 233.992055 
L 160.632583 233.992055 
L 160.640448 233.614428 
L 160.820427 233.614428 
L 160.890387 232.985048 
L 160.97168 232.985048 
L 160.97168 232.859172 
L 161.091045 232.859172 
L 161.163832 232.229793 
L 161.240147 232.229793 
L 161.297181 231.852166 
L 161.384298 231.852166 
L 161.455961 231.600414 
L 161.504837 231.600414 
L 161.504837 231.474538 
L 161.754741 231.474538 
L 161.825009 230.971034 
L 161.928087 230.971034 
L 161.939097 230.467531 
L 162.05979 230.467531 
L 162.05979 230.341655 
L 162.320462 230.341655 
L 162.406556 229.964028 
L 162.456597 229.964028 
L 162.538518 229.334648 
L 162.623622 229.334648 
L 162.623622 229.208772 
L 163.091839 229.208772 
L 163.091839 229.082897 
L 163.270442 229.082897 
L 163.348901 228.327641 
L 163.410077 228.327641 
L 163.410077 228.201766 
L 163.545315 228.201766 
L 163.65616 227.824138 
L 163.779668 227.824138 
L 163.882527 227.194759 
L 164.125811 227.194759 
L 164.181259 226.439503 
L 164.433594 226.439503 
L 164.433594 226.313628 
L 164.545729 226.313628 
L 164.622238 225.936 
L 164.701605 225.936 
L 164.742744 225.306621 
L 164.931459 225.306621 
L 165.000183 224.677241 
L 165.17708 224.677241 
L 165.17708 224.42549 
L 165.330896 224.42549 
L 165.330896 224.299614 
L 165.50169 224.299614 
L 165.516864 223.921986 
L 165.658907 223.921986 
L 165.670946 223.040855 
L 165.814821 223.040855 
L 165.892297 222.663228 
L 165.987215 222.663228 
L 166.025639 222.2856 
L 166.108133 222.2856 
L 166.201971 221.530345 
L 166.463408 221.530345 
L 166.463408 221.278593 
L 166.766734 221.278593 
L 166.860176 220.900966 
L 166.899679 220.900966 
L 166.944723 220.523338 
L 167.115471 220.523338 
L 167.176674 220.14571 
L 167.237678 220.14571 
L 167.284683 219.642207 
L 167.498859 219.642207 
L 167.566992 218.886952 
L 167.80219 218.886952 
L 167.80219 218.6352 
L 168.098063 218.6352 
L 168.098063 218.383448 
L 168.475092 218.383448 
L 168.500997 218.005821 
L 168.619698 218.005821 
L 168.671075 217.250566 
L 168.890409 217.250566 
L 168.971374 216.49531 
L 169.321552 216.49531 
L 169.321552 216.243559 
L 169.499138 216.243559 
L 169.538374 215.865931 
L 169.655596 215.865931 
L 169.730915 214.9848 
L 169.820419 214.9848 
L 169.909499 214.481297 
L 169.957476 214.481297 
L 170.050679 213.977793 
L 170.076884 213.977793 
L 170.148167 213.47429 
L 170.19554 213.47429 
L 170.28522 212.84491 
L 170.327551 212.84491 
L 170.416606 212.341407 
L 170.697398 212.341407 
L 170.791599 211.963779 
L 170.905844 211.963779 
L 170.935435 211.586152 
L 171.039767 211.586152 
L 171.069148 210.956772 
L 171.190702 210.956772 
L 171.293632 210.579145 
L 171.358235 210.579145 
L 171.358235 210.453269 
L 171.491195 210.453269 
L 171.491195 210.327393 
L 171.865055 210.327393 
L 171.940669 209.949766 
L 172.005239 209.949766 
L 172.035296 209.446262 
L 172.23163 209.446262 
L 172.271923 209.19451 
L 172.377547 209.19451 
L 172.377547 209.068634 
L 172.539056 209.068634 
L 172.539056 208.942759 
L 172.672251 208.942759 
L 172.765341 208.565131 
L 172.988937 208.565131 
L 173.025607 208.061628 
L 173.2381 208.061628 
L 173.28232 207.684 
L 173.44424 207.684 
L 173.44424 207.558124 
L 173.640268 207.558124 
L 173.685518 207.054621 
L 173.828424 207.054621 
L 173.828424 206.928745 
L 173.948949 206.928745 
L 174.020509 206.17349 
L 174.076407 206.17349 
L 174.134058 205.795862 
L 174.315463 205.795862 
L 174.423472 205.166483 
L 174.542134 205.166483 
L 174.633911 204.537103 
L 174.753113 204.537103 
L 174.854953 204.159476 
L 174.877099 204.159476 
L 174.877099 204.0336 
L 175.119005 204.0336 
L 175.164472 203.655972 
L 175.231562 203.655972 
L 175.231562 203.530097 
L 175.542118 203.530097 
L 175.542118 203.404221 
L 175.653949 203.404221 
L 175.687546 202.774841 
L 175.873888 202.774841 
L 175.873888 202.52309 
L 176.046272 202.52309 
L 176.129288 202.145462 
L 176.162047 202.145462 
L 176.194749 201.767834 
L 176.302778 201.767834 
L 176.309616 201.516083 
L 176.450948 201.516083 
L 176.527132 201.264331 
L 176.710399 201.264331 
L 176.710399 201.138455 
L 177.051954 201.138455 
L 177.160085 200.886703 
L 177.348641 200.886703 
L 177.348641 200.634952 
L 177.525715 200.634952 
L 177.525715 200.509076 
L 177.702725 200.509076 
L 177.734443 200.131448 
L 177.940879 200.131448 
L 177.969068 199.753821 
L 178.168316 199.753821 
L 178.254827 199.124441 
L 178.310232 199.124441 
L 178.351679 198.620938 
L 179.116414 198.620938 
L 179.116414 198.495062 
L 179.239683 198.495062 
L 179.298099 197.991559 
L 179.365055 197.991559 
L 179.450585 197.739807 
L 179.527087 197.739807 
L 179.527087 197.613931 
L 179.69202 197.613931 
L 179.69202 197.362179 
L 179.906411 197.362179 
L 179.979679 196.984552 
L 180.070865 196.984552 
L 180.070865 196.858676 
L 180.398272 196.858676 
L 180.398272 196.7328 
L 180.546222 196.7328 
L 180.617045 196.355172 
L 181.061713 196.355172 
L 181.065696 196.103421 
L 181.291318 196.103421 
L 181.394646 195.725793 
L 181.503895 195.725793 
L 181.503895 195.599917 
L 181.644719 195.599917 
L 181.644719 195.474041 
L 181.920707 195.474041 
L 181.920707 195.348166 
L 182.293698 195.348166 
L 182.380542 194.970538 
L 182.644796 194.970538 
L 182.730038 194.467034 
L 183.337339 194.467034 
L 183.437067 194.215283 
L 183.626843 194.215283 
L 183.626843 194.089407 
L 184.346191 194.089407 
L 184.346191 193.837655 
L 184.489473 193.837655 
L 184.489473 193.711779 
L 185.415668 193.711779 
L 185.415668 193.460028 
L 185.702091 193.460028 
L 185.702091 193.334152 
L 186.1865 193.334152 
L 186.1865 193.0824 
L 186.33153 193.0824 
L 186.33153 192.956524 
L 187.220183 192.956524 
L 187.220183 192.830648 
L 360.8064 192.830648 
L 360.8064 192.830648 
" style="fill: none; stroke: #ff00ff; stroke-width: 1.5; stroke-linecap: square"/>
   </g>
   <g id="line2d_41">
    <defs>
     <path id="ma00fd07480" d="M -0 8.485281 
L 5.091169 0 
L 0 -8.485281 
L -5.091169 -0 
z
" style="stroke: #ff00ff; stroke-width: 1.5; stroke-linejoin: miter"/>
    </defs>
    <g>
     <use xlink:href="#ma00fd07480" x="128.067481" y="283.209517" style="fill-opacity: 0; stroke: #ff00ff; stroke-width: 1.5; stroke-linejoin: miter"/>
     <use xlink:href="#ma00fd07480" x="187.220183" y="192.956524" style="fill-opacity: 0; stroke: #ff00ff; stroke-width: 1.5; stroke-linejoin: miter"/>
     <use xlink:href="#ma00fd07480" x="187.220183" y="192.830648" style="fill-opacity: 0; stroke: #ff00ff; stroke-width: 1.5; stroke-linejoin: miter"/>
     <use xlink:href="#ma00fd07480" x="187.220183" y="192.830648" style="fill-opacity: 0; stroke: #ff00ff; stroke-width: 1.5; stroke-linejoin: miter"/>
     <use xlink:href="#ma00fd07480" x="360.8064" y="192.830648" style="fill-opacity: 0; stroke: #ff00ff; stroke-width: 1.5; stroke-linejoin: miter"/>
    </g>
   </g>
   <g id="line2d_42">
    <path style="fill: none; stroke: #ff00ff; stroke-width: 1.5; stroke-linecap: square"/>
    <g/>
   </g>
   <g id="line2d_43">
    <path d="M 187.550302 192.830648 
" clip-path="url(#pa9e62040d3)" style="fill: none; stroke: #ff00ff; stroke-width: 1.5; stroke-linecap: square"/>
    <defs>
     <path id="meda0c0d575" d="M -12 12 
L 12 -12 
M -12 -12 
L 12 12 
" style="stroke: #ff00ff"/>
    </defs>
    <g clip-path="url(#pa9e62040d3)">
     <use xlink:href="#meda0c0d575" x="187.550302" y="192.830648" style="fill: #ff00ff; stroke: #ff00ff"/>
    </g>
   </g>
   <g id="line2d_44">
    <defs>
     <path id="m084174e6c3" d="M 0 1.5 
C 0.397805 1.5 0.77937 1.341951 1.06066 1.06066 
C 1.341951 0.77937 1.5 0.397805 1.5 0 
C 1.5 -0.397805 1.341951 -0.77937 1.06066 -1.06066 
C 0.77937 -1.341951 0.397805 -1.5 0 -1.5 
C -0.397805 -1.5 -0.77937 -1.341951 -1.06066 -1.06066 
C -1.341951 -0.77937 -1.5 -0.397805 -1.5 0 
C -1.5 0.397805 -1.341951 0.77937 -1.06066 1.06066 
C -0.77937 1.341951 -0.397805 1.5 0 1.5 
z
" style="stroke: #ff7500"/>
    </defs>
    <g>
     <use xlink:href="#m084174e6c3" x="214.663647" y="186.788607" style="fill: #ff7500; stroke: #ff7500"/>
     <use xlink:href="#m084174e6c3" x="214.663647" y="186.788607" style="fill: #ff7500; stroke: #ff7500"/>
    </g>
   </g>
   <g id="line2d_45">
    <path d="M 1.245626 298.944 
L 1.245626 289.629186 
L 14.2848 289.629186 
L 14.2848 289.50331 
L 21.912228 289.50331 
L 21.912228 289.377434 
L 31.521651 289.377434 
L 31.521651 289.251559 
L 46.353758 289.251559 
L 46.353758 288.999807 
L 69.172597 288.999807 
L 69.172597 288.873931 
L 82.713442 288.873931 
L 82.713442 288.622179 
L 94.339481 288.622179 
L 94.339481 288.370428 
L 98.933205 288.370428 
L 98.933205 288.244552 
L 108.353566 288.244552 
L 108.353566 288.118676 
L 129.375706 288.118676 
L 129.375706 287.866924 
L 130.676331 287.866924 
L 130.676331 287.741048 
L 132.743202 287.741048 
L 132.743202 287.615172 
L 133.25581 287.615172 
L 133.25581 287.489297 
L 136.097741 287.489297 
L 136.097741 287.237545 
L 136.654633 287.237545 
L 136.654633 287.111669 
L 137.372402 287.111669 
L 137.372402 286.734041 
L 137.893309 286.734041 
L 137.893309 286.608166 
L 138.03766 286.608166 
L 138.03766 286.48229 
L 138.89375 286.48229 
L 138.89375 286.230538 
L 139.215746 286.230538 
L 139.215746 285.978786 
L 140.508697 285.978786 
L 140.600182 285.601159 
L 141.017607 285.601159 
L 141.017607 285.475283 
L 141.184229 285.475283 
L 141.184229 285.349407 
L 141.327451 285.349407 
L 141.327451 285.223531 
L 142.702713 285.223531 
L 142.702713 284.971779 
L 142.834867 284.971779 
L 142.834867 284.594152 
L 143.48206 284.594152 
L 143.48206 284.468276 
L 143.984246 284.468276 
L 144.003296 284.216524 
L 144.107726 284.216524 
L 144.107726 283.964772 
L 144.2304 283.964772 
L 144.2304 283.713021 
L 144.473374 283.713021 
L 144.473374 283.587145 
L 144.71325 283.587145 
L 144.71325 283.335393 
L 144.995315 283.335393 
L 144.995315 283.209517 
L 145.29989 283.209517 
L 145.379694 282.957766 
L 145.415054 282.957766 
L 145.415054 282.83189 
L 145.529517 282.83189 
L 145.529517 282.706014 
L 145.669446 282.706014 
L 145.756375 282.328386 
L 146.311833 282.328386 
L 146.420983 281.824883 
L 146.529503 281.824883 
L 146.529503 281.699007 
L 146.744684 281.699007 
L 146.851358 281.321379 
L 147.062909 281.321379 
L 147.062909 281.195503 
L 147.375841 281.195503 
L 147.375841 281.069628 
L 147.644469 281.069628 
L 147.644469 280.943752 
L 148.086384 280.943752 
L 148.185734 280.440248 
L 148.284563 280.440248 
L 148.382875 279.810869 
L 148.866872 279.810869 
L 148.962194 279.559117 
L 149.057037 279.559117 
L 149.151403 279.18149 
L 149.245299 279.18149 
L 149.245299 279.055614 
L 149.431695 279.055614 
L 149.431695 278.803862 
L 149.623325 278.803862 
L 149.623325 278.677986 
L 149.799037 278.677986 
L 149.889763 278.174483 
L 149.980053 278.174483 
L 150.069911 277.922731 
L 150.159343 277.922731 
L 150.159343 277.670979 
L 150.336941 277.670979 
L 150.425115 277.293352 
L 150.512877 277.293352 
L 150.512877 276.915724 
L 150.687184 276.915724 
L 150.773735 276.663972 
L 150.945652 276.663972 
L 151.031025 276.286345 
L 151.102962 276.286345 
L 151.200617 275.656966 
L 151.284843 275.656966 
L 151.368694 275.405214 
L 151.452172 275.405214 
L 151.535282 274.90171 
L 151.618026 274.90171 
L 151.700408 274.524083 
L 151.782431 274.524083 
L 151.782431 274.398207 
L 152.236493 274.398207 
L 152.346789 274.020579 
L 152.426047 274.020579 
L 152.504972 273.517076 
L 152.583568 273.517076 
L 152.583568 273.3912 
L 152.739781 273.3912 
L 152.817404 273.013572 
L 152.971695 273.013572 
L 152.971695 272.887697 
L 153.095398 272.887697 
L 153.124731 272.510069 
L 153.351976 272.510069 
L 153.427118 272.132441 
L 153.501961 272.132441 
L 153.587951 271.628938 
L 153.650761 271.628938 
L 153.650761 271.25131 
L 153.871775 271.25131 
L 153.871775 270.999559 
L 154.16248 270.999559 
L 154.234459 270.747807 
L 154.289641 270.747807 
L 154.377597 270.118428 
L 154.44876 270.118428 
L 154.525097 269.866676 
L 154.590283 269.866676 
L 154.590283 269.363172 
L 154.730749 269.363172 
L 154.80059 268.985545 
L 154.870174 268.985545 
L 154.870174 268.733793 
L 155.008573 268.733793 
L 155.077392 268.104414 
L 155.145961 268.104414 
L 155.145961 267.978538 
L 155.282353 267.978538 
L 155.282353 267.475034 
L 155.417764 267.475034 
L 155.417764 267.349159 
L 155.552207 267.349159 
L 155.552207 267.223283 
L 155.685695 267.223283 
L 155.685695 266.971531 
L 155.949864 266.971531 
L 155.949864 266.342152 
L 156.145584 266.342152 
L 156.210374 265.712772 
L 156.274942 265.712772 
L 156.274942 265.586897 
L 156.403417 265.586897 
L 156.467326 264.831641 
L 156.531019 264.831641 
L 156.594498 264.57989 
L 156.720816 264.57989 
L 156.783658 264.076386 
L 156.846291 264.076386 
L 156.908716 263.824634 
L 157.127956 263.824634 
L 157.156365 263.572883 
L 157.368077 263.572883 
L 157.461411 263.195255 
L 157.517191 263.195255 
L 157.521831 262.943503 
L 157.637481 262.943503 
L 157.637481 262.817628 
L 157.76159 262.817628 
L 157.76159 262.691752 
L 157.884885 262.691752 
L 157.939424 262.314124 
L 158.1021 262.314124 
L 158.173952 261.936497 
L 158.232129 261.936497 
L 158.290128 261.181241 
L 158.347948 261.181241 
L 158.347948 260.92949 
L 158.52035 260.92949 
L 158.621287 260.677738 
L 158.691186 260.677738 
L 158.691186 260.425986 
L 158.860484 260.425986 
L 158.91658 259.670731 
L 158.97251 259.670731 
L 159.028273 259.293103 
L 159.139306 259.293103 
L 159.194578 258.915476 
L 159.304637 258.915476 
L 159.414056 258.537848 
L 159.468527 258.537848 
L 159.468527 258.411972 
L 159.589476 258.411972 
L 159.68485 257.656717 
L 159.738544 257.656717 
L 159.845475 257.027338 
L 159.951802 257.027338 
L 160.057531 256.397959 
L 160.110173 256.397959 
L 160.110173 256.272083 
L 160.311282 256.272083 
L 160.375185 255.768579 
L 160.474602 255.768579 
L 160.577441 255.265076 
L 160.781447 255.265076 
L 160.878745 254.761572 
L 160.933013 254.761572 
L 160.994842 254.383945 
L 161.052623 254.383945 
L 161.13322 253.880441 
L 161.23253 253.880441 
L 161.331318 253.502814 
L 161.455961 253.502814 
L 161.527352 253.251062 
L 161.624608 253.251062 
L 161.721364 252.621683 
L 161.769556 252.621683 
L 161.769556 252.369931 
L 161.946434 252.369931 
L 162.056144 251.614676 
L 162.103487 251.614676 
L 162.212287 250.859421 
L 162.244805 250.859421 
L 162.320462 249.726538 
L 162.431593 249.726538 
L 162.478002 249.223034 
L 162.570477 249.223034 
L 162.66956 248.719531 
L 162.775144 248.719531 
L 162.775144 248.593655 
L 162.890607 248.593655 
L 162.890607 248.090152 
L 163.177917 248.090152 
L 163.24992 247.334897 
L 163.294355 247.334897 
L 163.345497 246.579641 
L 163.471055 246.579641 
L 163.558786 246.076138 
L 163.73303 246.076138 
L 163.819551 245.446759 
L 163.875908 245.446759 
L 163.875908 245.320883 
L 163.991407 245.320883 
L 164.099661 244.313876 
L 164.119277 244.313876 
L 164.204043 243.810372 
L 164.246284 243.810372 
L 164.330481 243.055117 
L 164.398212 243.055117 
L 164.456074 242.67749 
L 164.622238 242.67749 
L 164.717439 241.922234 
L 164.745905 241.922234 
L 164.786947 241.418731 
L 165.031338 241.418731 
L 165.031338 240.915228 
L 165.152353 240.915228 
L 165.152353 240.789352 
L 165.272594 240.789352 
L 165.272594 240.663476 
L 165.43173 240.663476 
L 165.43173 240.411724 
L 165.613691 240.411724 
L 165.707018 239.908221 
L 165.766985 239.908221 
L 165.862536 239.278841 
L 166.016779 239.278841 
L 166.122826 238.523586 
L 166.201971 238.523586 
L 166.245797 237.894207 
L 166.359269 237.894207 
L 166.359269 237.768331 
L 166.486472 237.768331 
L 166.587046 237.138952 
L 166.678531 237.138952 
L 166.766734 236.635448 
L 166.953157 236.635448 
L 166.953157 236.383697 
L 167.134966 236.383697 
L 167.243215 235.250814 
L 167.279159 235.250814 
L 167.350843 234.74731 
L 167.556107 234.74731 
L 167.599608 234.117931 
L 167.670084 234.117931 
L 167.751075 233.740303 
L 167.845127 233.740303 
L 167.879941 233.2368 
L 167.986658 233.2368 
L 168.061001 232.985048 
L 168.12185 232.985048 
L 168.224581 232.355669 
L 168.326754 232.355669 
L 168.358081 232.103917 
L 168.503585 232.103917 
L 168.604258 230.971034 
L 168.629985 230.971034 
L 168.72487 230.341655 
L 168.783612 230.341655 
L 168.821824 229.838152 
L 168.90815 229.838152 
L 168.928405 229.460524 
L 169.092171 229.460524 
L 169.092171 229.334648 
L 169.222165 229.334648 
L 169.222165 229.208772 
L 169.353741 229.208772 
L 169.447515 228.453517 
L 169.543273 228.453517 
L 169.543273 228.327641 
L 169.701795 228.327641 
L 169.764832 227.698262 
L 169.815592 227.698262 
L 169.892679 226.817131 
L 169.95508 226.817131 
L 169.986203 226.061876 
L 170.1695 226.061876 
L 170.207364 225.558372 
L 170.50524 225.558372 
L 170.609666 224.677241 
L 170.625857 224.677241 
L 170.685877 224.173738 
L 170.905844 224.173738 
L 170.905844 224.047862 
L 171.100737 224.047862 
L 171.157016 223.040855 
L 171.67796 223.040855 
L 171.769565 222.537352 
L 171.813029 222.537352 
L 171.847729 221.907972 
L 171.968676 221.907972 
L 172.04602 221.278593 
L 172.144386 221.278593 
L 172.144386 221.026841 
L 172.360687 221.026841 
L 172.407015 220.271586 
L 172.511885 220.271586 
L 172.620334 219.012828 
L 172.647348 219.012828 
L 172.678471 218.761076 
L 172.75915 218.761076 
L 172.86208 218.257572 
L 172.903095 218.257572 
L 172.997092 217.628193 
L 173.052046 217.628193 
L 173.082507 217.12469 
L 173.169555 217.12469 
L 173.258213 216.117683 
L 173.362455 216.117683 
L 173.46811 215.488303 
L 173.545479 215.488303 
L 173.634357 214.9848 
L 173.748296 214.9848 
L 173.838172 214.481297 
L 173.884895 214.481297 
L 173.948949 214.229545 
L 174.072557 214.229545 
L 174.174309 213.600166 
L 174.248833 213.600166 
L 174.313562 213.222538 
L 174.504544 213.222538 
L 174.551519 212.719034 
L 174.788357 212.719034 
L 174.882632 212.089655 
L 175.011265 212.089655 
L 175.073427 211.712028 
L 175.122646 211.712028 
L 175.193513 211.082648 
L 175.24061 211.082648 
L 175.316441 210.327393 
L 175.497556 210.327393 
L 175.584799 210.075641 
L 175.747517 210.075641 
L 175.854636 209.698014 
L 175.866889 209.698014 
L 175.866889 209.572138 
L 175.978552 209.572138 
L 176.013311 209.320386 
L 176.292516 209.320386 
L 176.386374 208.313379 
L 176.422087 208.313379 
L 176.422087 208.061628 
L 176.579436 208.061628 
L 176.579436 207.935752 
L 176.929972 207.935752 
L 177.012479 206.802869 
L 177.169885 206.802869 
L 177.239965 205.54411 
L 177.410001 205.54411 
L 177.46634 205.040607 
L 177.544932 205.040607 
L 177.618415 204.537103 
L 177.811925 204.537103 
L 177.873367 204.285352 
L 178.00815 204.285352 
L 178.00815 204.159476 
L 178.227063 204.159476 
L 178.236322 203.655972 
L 178.376197 203.655972 
L 178.399154 203.404221 
L 178.510479 203.404221 
L 178.613589 202.900717 
L 178.627194 202.900717 
L 178.627194 202.774841 
L 178.858474 202.774841 
L 178.858474 202.648966 
L 179.137015 202.648966 
L 179.230905 201.89371 
L 179.296641 201.89371 
L 179.331607 201.390207 
L 179.482378 201.390207 
L 179.56594 200.886703 
L 179.739083 200.886703 
L 179.810166 200.257324 
L 179.872498 200.257324 
L 179.958573 199.879697 
L 180.014803 199.879697 
L 180.014803 199.627945 
L 180.186663 199.627945 
L 180.186663 199.376193 
L 180.33904 199.376193 
L 180.372122 198.87269 
L 180.553044 198.87269 
L 180.553044 198.746814 
L 180.675409 198.746814 
L 180.711964 198.24331 
L 180.792944 198.24331 
L 180.885641 197.991559 
L 181.308361 197.991559 
L 181.308361 197.865683 
L 181.755089 197.865683 
L 181.858453 197.236303 
L 182.083622 197.236303 
L 182.161424 196.606924 
L 182.201454 196.606924 
L 182.201454 196.481048 
L 182.342132 196.481048 
L 182.376828 195.977545 
L 182.661875 195.977545 
L 182.661875 195.851669 
L 182.913814 195.851669 
L 182.979872 195.474041 
L 183.031357 195.474041 
L 183.135094 195.22229 
L 183.287866 195.22229 
L 183.365551 194.718786 
L 183.426532 194.718786 
L 183.437067 194.467034 
L 183.707758 194.467034 
L 183.817017 194.215283 
L 184.050648 194.215283 
L 184.075549 193.963531 
L 184.324995 193.963531 
L 184.324995 193.837655 
L 184.579988 193.837655 
L 184.579988 193.711779 
L 184.835916 193.711779 
L 184.835916 193.585903 
L 185.08841 193.585903 
L 185.08841 193.460028 
L 185.214461 193.460028 
L 185.214461 193.334152 
L 185.663667 193.334152 
L 185.663667 193.208276 
L 185.862207 193.208276 
L 185.944318 192.704772 
L 186.132838 192.704772 
L 186.132838 192.578897 
L 186.28834 192.578897 
L 186.28834 192.327145 
L 186.586633 192.327145 
L 186.586633 192.201269 
L 187.015232 192.201269 
L 187.015232 192.075393 
L 187.234533 192.075393 
L 187.237401 191.57189 
L 187.558763 191.57189 
L 187.558763 191.446014 
L 188.117165 191.446014 
L 188.117165 191.320138 
L 188.251722 191.320138 
L 188.251722 191.194262 
L 188.412289 191.194262 
L 188.516196 190.690759 
L 188.531376 190.690759 
L 188.531376 190.564883 
L 188.794615 190.564883 
L 188.794615 190.313131 
L 188.989002 190.313131 
L 188.989002 190.187255 
L 189.306868 190.187255 
L 189.306868 189.935503 
L 190.409638 189.935503 
L 190.409638 189.809628 
L 192.327793 189.809628 
L 192.327793 189.683752 
L 192.886198 189.683752 
L 192.886198 189.557876 
L 193.02026 189.557876 
L 193.061696 189.306124 
L 193.551936 189.306124 
L 193.551936 189.054372 
L 194.157229 189.054372 
L 194.157229 188.802621 
L 194.875981 188.802621 
L 194.875981 188.676745 
L 195.531402 188.676745 
L 195.630192 188.299117 
L 196.221179 188.299117 
L 196.221179 188.173241 
L 197.118682 188.173241 
L 197.118682 188.047366 
L 198.28608 188.047366 
L 198.28608 187.92149 
L 198.838531 187.92149 
L 198.838531 187.669738 
L 201.471214 187.669738 
L 201.471214 187.417986 
L 205.228596 187.417986 
L 205.228596 187.29211 
L 205.699911 187.29211 
L 205.699911 187.166234 
L 211.115241 187.166234 
L 211.115241 186.914483 
L 214.663647 186.914483 
L 214.663647 186.788607 
L 360.8064 186.788607 
L 360.8064 186.788607 
" style="fill: none; stroke: #ff7500; stroke-width: 1.5; stroke-linecap: square"/>
   </g>
   <g id="line2d_46">
    <defs>
     <path id="m916763fed8" d="M 0 -6 
L -1.347084 -1.854102 
L -5.706339 -1.854102 
L -2.179628 0.708204 
L -3.526712 4.854102 
L -0 2.291796 
L 3.526712 4.854102 
L 2.179628 0.708204 
L 5.706339 -1.854102 
L 1.347084 -1.854102 
z
" style="stroke: #ff7500; stroke-width: 1.5; stroke-linejoin: bevel"/>
    </defs>
    <g>
     <use xlink:href="#m916763fed8" x="69.172597" y="288.999807" style="fill-opacity: 0; stroke: #ff7500; stroke-width: 1.5; stroke-linejoin: bevel"/>
     <use xlink:href="#m916763fed8" x="149.623325" y="278.803862" style="fill-opacity: 0; stroke: #ff7500; stroke-width: 1.5; stroke-linejoin: bevel"/>
     <use xlink:href="#m916763fed8" x="197.118682" y="188.173241" style="fill-opacity: 0; stroke: #ff7500; stroke-width: 1.5; stroke-linejoin: bevel"/>
     <use xlink:href="#m916763fed8" x="214.663647" y="186.788607" style="fill-opacity: 0; stroke: #ff7500; stroke-width: 1.5; stroke-linejoin: bevel"/>
     <use xlink:href="#m916763fed8" x="214.663647" y="186.788607" style="fill-opacity: 0; stroke: #ff7500; stroke-width: 1.5; stroke-linejoin: bevel"/>
     <use xlink:href="#m916763fed8" x="360.8064" y="186.788607" style="fill-opacity: 0; stroke: #ff7500; stroke-width: 1.5; stroke-linejoin: bevel"/>
    </g>
   </g>
   <g id="line2d_47">
    <path style="fill: none; stroke: #ff7500; stroke-width: 1.5; stroke-linecap: square"/>
    <g/>
   </g>
   <g id="line2d_48">
    <path d="M 274.176075 186.788607 
" clip-path="url(#pa9e62040d3)" style="fill: none; stroke: #ff7500; stroke-width: 1.5; stroke-linecap: square"/>
    <defs>
     <path id="m180dc62471" d="M -12 12 
L 12 -12 
M -12 -12 
L 12 12 
" style="stroke: #ff7500"/>
    </defs>
    <g clip-path="url(#pa9e62040d3)">
     <use xlink:href="#m180dc62471" x="274.176075" y="186.788607" style="fill: #ff7500; stroke: #ff7500"/>
    </g>
   </g>
   <g id="line2d_49">
    <path d="M 360.8064 194.089407 
L 380.514816 293.10336 
" style="fill: none; stroke: #000080; stroke-width: 1.5; stroke-linecap: square"/>
    <g>
     <use xlink:href="#m8914087aa4" x="360.8064" y="194.089407" style="fill-opacity: 0; stroke: #000080; stroke-width: 1.5"/>
     <use xlink:href="#m8914087aa4" x="380.514816" y="293.10336" style="fill-opacity: 0; stroke: #000080; stroke-width: 1.5"/>
    </g>
   </g>
   <g id="line2d_50">
    <path d="M 360.8064 192.830648 
L 380.514816 199.65312 
" style="fill: none; stroke: #ff00ff; stroke-width: 1.5; stroke-linecap: square"/>
    <g>
     <use xlink:href="#ma00fd07480" x="360.8064" y="192.830648" style="fill-opacity: 0; stroke: #ff00ff; stroke-width: 1.5; stroke-linejoin: miter"/>
     <use xlink:href="#ma00fd07480" x="380.514816" y="199.65312" style="fill-opacity: 0; stroke: #ff00ff; stroke-width: 1.5; stroke-linejoin: miter"/>
    </g>
   </g>
   <g id="line2d_51">
    <path d="M 360.8064 186.788607 
L 380.514816 106.20288 
" style="fill: none; stroke: #ff7500; stroke-width: 1.5; stroke-linecap: square"/>
    <g>
     <use xlink:href="#m916763fed8" x="360.8064" y="186.788607" style="fill-opacity: 0; stroke: #ff7500; stroke-width: 1.5; stroke-linejoin: bevel"/>
     <use xlink:href="#m916763fed8" x="380.514816" y="106.20288" style="fill-opacity: 0; stroke: #ff7500; stroke-width: 1.5; stroke-linejoin: bevel"/>
    </g>
   </g>
   <g id="line2d_52">
    <path d="M 360.8064 298.944 
L 360.8064 6.912 
" style="fill: none; stroke: #000000; stroke-width: 1.5; stroke-linecap: square"/>
   </g>
   <g id="patch_3">
    <path d="M 57.6 298.944 
L 360.8064 298.944 
" style="fill: none; stroke: #000000; stroke-width: 0.8; stroke-linejoin: miter; stroke-linecap: square"/>
   </g>
   <g id="patch_4">
    <path d="M 57.6 6.912 
L 360.8064 6.912 
" style="fill: none; stroke: #000000; stroke-width: 0.8; stroke-linejoin: miter; stroke-linecap: square"/>
   </g>
   <g id="text_13">
    <!-- AllComo -->
    <g transform="translate(386.578944 296.966485) scale(0.14 -0.14)">
     <defs>
      <path id="DejaVuSans-41" d="M 2188 4044 
L 1331 1722 
L 3047 1722 
L 2188 4044 
z
M 1831 4666 
L 2547 4666 
L 4325 0 
L 3669 0 
L 3244 1197 
L 1141 1197 
L 716 0 
L 50 0 
L 1831 4666 
z
" transform="scale(0.015625)"/>
      <path id="DejaVuSans-43" d="M 4122 4306 
L 4122 3641 
Q 3803 3938 3442 4084 
Q 3081 4231 2675 4231 
Q 1875 4231 1450 3742 
Q 1025 3253 1025 2328 
Q 1025 1406 1450 917 
Q 1875 428 2675 428 
Q 3081 428 3442 575 
Q 3803 722 4122 1019 
L 4122 359 
Q 3791 134 3420 21 
Q 3050 -91 2638 -91 
Q 1578 -91 968 557 
Q 359 1206 359 2328 
Q 359 3453 968 4101 
Q 1578 4750 2638 4750 
Q 3056 4750 3426 4639 
Q 3797 4528 4122 4306 
z
" transform="scale(0.015625)"/>
     </defs>
     <use xlink:href="#DejaVuSans-41"/>
     <use xlink:href="#DejaVuSans-6c" x="68.408203"/>
     <use xlink:href="#DejaVuSans-6c" x="96.191406"/>
     <use xlink:href="#DejaVuSans-43" x="123.974609"/>
     <use xlink:href="#DejaVuSans-6f" x="193.798828"/>
     <use xlink:href="#DejaVuSans-6d" x="254.980469"/>
     <use xlink:href="#DejaVuSans-6f" x="352.392578"/>
    </g>
   </g>
   <g id="text_14">
    <!-- AllLQ -->
    <g transform="translate(386.578944 203.516245) scale(0.14 -0.14)">
     <defs>
      <path id="DejaVuSans-4c" d="M 628 4666 
L 1259 4666 
L 1259 531 
L 3531 531 
L 3531 0 
L 628 0 
L 628 4666 
z
" transform="scale(0.015625)"/>
      <path id="DejaVuSans-51" d="M 2522 4238 
Q 1834 4238 1429 3725 
Q 1025 3213 1025 2328 
Q 1025 1447 1429 934 
Q 1834 422 2522 422 
Q 3209 422 3611 934 
Q 4013 1447 4013 2328 
Q 4013 3213 3611 3725 
Q 3209 4238 2522 4238 
z
M 3406 84 
L 4238 -825 
L 3475 -825 
L 2784 -78 
Q 2681 -84 2626 -87 
Q 2572 -91 2522 -91 
Q 1538 -91 948 567 
Q 359 1225 359 2328 
Q 359 3434 948 4092 
Q 1538 4750 2522 4750 
Q 3503 4750 4090 4092 
Q 4678 3434 4678 2328 
Q 4678 1516 4351 937 
Q 4025 359 3406 84 
z
" transform="scale(0.015625)"/>
     </defs>
     <use xlink:href="#DejaVuSans-41"/>
     <use xlink:href="#DejaVuSans-6c" x="68.408203"/>
     <use xlink:href="#DejaVuSans-6c" x="96.191406"/>
     <use xlink:href="#DejaVuSans-4c" x="123.974609"/>
     <use xlink:href="#DejaVuSans-51" x="179.6875"/>
    </g>
   </g>
   <g id="text_15">
    <!-- COMO-10 d -->
    <g transform="translate(386.578944 110.066005) scale(0.14 -0.14)">
     <defs>
      <path id="DejaVuSans-4f" d="M 2522 4238 
Q 1834 4238 1429 3725 
Q 1025 3213 1025 2328 
Q 1025 1447 1429 934 
Q 1834 422 2522 422 
Q 3209 422 3611 934 
Q 4013 1447 4013 2328 
Q 4013 3213 3611 3725 
Q 3209 4238 2522 4238 
z
M 2522 4750 
Q 3503 4750 4090 4092 
Q 4678 3434 4678 2328 
Q 4678 1225 4090 567 
Q 3503 -91 2522 -91 
Q 1538 -91 948 565 
Q 359 1222 359 2328 
Q 359 3434 948 4092 
Q 1538 4750 2522 4750 
z
" transform="scale(0.015625)"/>
      <path id="DejaVuSans-4d" d="M 628 4666 
L 1569 4666 
L 2759 1491 
L 3956 4666 
L 4897 4666 
L 4897 0 
L 4281 0 
L 4281 4097 
L 3078 897 
L 2444 897 
L 1241 4097 
L 1241 0 
L 628 0 
L 628 4666 
z
" transform="scale(0.015625)"/>
     </defs>
     <use xlink:href="#DejaVuSans-43"/>
     <use xlink:href="#DejaVuSans-4f" x="69.824219"/>
     <use xlink:href="#DejaVuSans-4d" x="148.535156"/>
     <use xlink:href="#DejaVuSans-4f" x="234.814453"/>
     <use xlink:href="#DejaVuSans-2d" x="316.275391"/>
     <use xlink:href="#DejaVuSans-31" x="352.359375"/>
     <use xlink:href="#DejaVuSans-30" x="415.982422"/>
     <use xlink:href="#DejaVuSans-20" x="479.605469"/>
     <use xlink:href="#DejaVuSans-64" x="511.392578"/>
    </g>
   </g>
   <g id="text_16">
    <!-- best 2016 -->
    <g transform="translate(386.578944 16.615765) scale(0.14 -0.14)">
     <defs>
      <path id="DejaVuSans-62" d="M 3116 1747 
Q 3116 2381 2855 2742 
Q 2594 3103 2138 3103 
Q 1681 3103 1420 2742 
Q 1159 2381 1159 1747 
Q 1159 1113 1420 752 
Q 1681 391 2138 391 
Q 2594 391 2855 752 
Q 3116 1113 3116 1747 
z
M 1159 2969 
Q 1341 3281 1617 3432 
Q 1894 3584 2278 3584 
Q 2916 3584 3314 3078 
Q 3713 2572 3713 1747 
Q 3713 922 3314 415 
Q 2916 -91 2278 -91 
Q 1894 -91 1617 61 
Q 1341 213 1159 525 
L 1159 0 
L 581 0 
L 581 4863 
L 1159 4863 
L 1159 2969 
z
" transform="scale(0.015625)"/>
     </defs>
     <use xlink:href="#DejaVuSans-62"/>
     <use xlink:href="#DejaVuSans-65" x="63.476562"/>
     <use xlink:href="#DejaVuSans-73" x="125"/>
     <use xlink:href="#DejaVuSans-74" x="177.099609"/>
     <use xlink:href="#DejaVuSans-20" x="216.308594"/>
     <use xlink:href="#DejaVuSans-32" x="248.095703"/>
     <use xlink:href="#DejaVuSans-30" x="311.71875"/>
     <use xlink:href="#DejaVuSans-31" x="375.341797"/>
     <use xlink:href="#DejaVuSans-36" x="438.964844"/>
    </g>
   </g>
   <g id="text_17">
    <!-- bbob-biobj f9, f10, f18, f19, 20-D -->
    <g transform="translate(60.632064 17.582726) scale(0.102 -0.102)">
     <defs>
      <path id="DejaVuSans-6a" d="M 603 3500 
L 1178 3500 
L 1178 -63 
Q 1178 -731 923 -1031 
Q 669 -1331 103 -1331 
L -116 -1331 
L -116 -844 
L 38 -844 
Q 366 -844 484 -692 
Q 603 -541 603 -63 
L 603 3500 
z
M 603 4863 
L 1178 4863 
L 1178 4134 
L 603 4134 
L 603 4863 
z
" transform="scale(0.015625)"/>
      <path id="DejaVuSans-39" d="M 703 97 
L 703 672 
Q 941 559 1184 500 
Q 1428 441 1663 441 
Q 2288 441 2617 861 
Q 2947 1281 2994 2138 
Q 2813 1869 2534 1725 
Q 2256 1581 1919 1581 
Q 1219 1581 811 2004 
Q 403 2428 403 3163 
Q 403 3881 828 4315 
Q 1253 4750 1959 4750 
Q 2769 4750 3195 4129 
Q 3622 3509 3622 2328 
Q 3622 1225 3098 567 
Q 2575 -91 1691 -91 
Q 1453 -91 1209 -44 
Q 966 3 703 97 
z
M 1959 2075 
Q 2384 2075 2632 2365 
Q 2881 2656 2881 3163 
Q 2881 3666 2632 3958 
Q 2384 4250 1959 4250 
Q 1534 4250 1286 3958 
Q 1038 3666 1038 3163 
Q 1038 2656 1286 2365 
Q 1534 2075 1959 2075 
z
" transform="scale(0.015625)"/>
      <path id="DejaVuSans-44" d="M 1259 4147 
L 1259 519 
L 2022 519 
Q 2988 519 3436 956 
Q 3884 1394 3884 2338 
Q 3884 3275 3436 3711 
Q 2988 4147 2022 4147 
L 1259 4147 
z
M 628 4666 
L 1925 4666 
Q 3281 4666 3915 4102 
Q 4550 3538 4550 2338 
Q 4550 1131 3912 565 
Q 3275 0 1925 0 
L 628 0 
L 628 4666 
z
" transform="scale(0.015625)"/>
     </defs>
     <use xlink:href="#DejaVuSans-62"/>
     <use xlink:href="#DejaVuSans-62" x="63.476562"/>
     <use xlink:href="#DejaVuSans-6f" x="126.953125"/>
     <use xlink:href="#DejaVuSans-62" x="188.134766"/>
     <use xlink:href="#DejaVuSans-2d" x="251.611328"/>
     <use xlink:href="#DejaVuSans-62" x="287.695312"/>
     <use xlink:href="#DejaVuSans-69" x="351.171875"/>
     <use xlink:href="#DejaVuSans-6f" x="378.955078"/>
     <use xlink:href="#DejaVuSans-62" x="440.136719"/>
     <use xlink:href="#DejaVuSans-6a" x="503.613281"/>
     <use xlink:href="#DejaVuSans-20" x="531.396484"/>
     <use xlink:href="#DejaVuSans-66" x="563.183594"/>
     <use xlink:href="#DejaVuSans-39" x="598.388672"/>
     <use xlink:href="#DejaVuSans-2c" x="662.011719"/>
     <use xlink:href="#DejaVuSans-20" x="693.798828"/>
     <use xlink:href="#DejaVuSans-66" x="725.585938"/>
     <use xlink:href="#DejaVuSans-31" x="760.791016"/>
     <use xlink:href="#DejaVuSans-30" x="824.414062"/>
     <use xlink:href="#DejaVuSans-2c" x="888.037109"/>
     <use xlink:href="#DejaVuSans-20" x="919.824219"/>
     <use xlink:href="#DejaVuSans-66" x="951.611328"/>
     <use xlink:href="#DejaVuSans-31" x="986.816406"/>
     <use xlink:href="#DejaVuSans-38" x="1050.439453"/>
     <use xlink:href="#DejaVuSans-2c" x="1114.0625"/>
     <use xlink:href="#DejaVuSans-20" x="1145.849609"/>
     <use xlink:href="#DejaVuSans-66" x="1177.636719"/>
     <use xlink:href="#DejaVuSans-31" x="1212.841797"/>
     <use xlink:href="#DejaVuSans-39" x="1276.464844"/>
     <use xlink:href="#DejaVuSans-2c" x="1340.087891"/>
     <use xlink:href="#DejaVuSans-20" x="1371.875"/>
     <use xlink:href="#DejaVuSans-32" x="1403.662109"/>
     <use xlink:href="#DejaVuSans-30" x="1467.285156"/>
     <use xlink:href="#DejaVuSans-2d" x="1530.908203"/>
     <use xlink:href="#DejaVuSans-44" x="1566.992188"/>
    </g>
    <!-- 58 targets: 1..-1.0e-4 -->
    <g transform="translate(60.632064 29.004495) scale(0.102 -0.102)">
     <defs>
      <path id="DejaVuSans-35" d="M 691 4666 
L 3169 4666 
L 3169 4134 
L 1269 4134 
L 1269 2991 
Q 1406 3038 1543 3061 
Q 1681 3084 1819 3084 
Q 2600 3084 3056 2656 
Q 3513 2228 3513 1497 
Q 3513 744 3044 326 
Q 2575 -91 1722 -91 
Q 1428 -91 1123 -41 
Q 819 9 494 109 
L 494 744 
Q 775 591 1075 516 
Q 1375 441 1709 441 
Q 2250 441 2565 725 
Q 2881 1009 2881 1497 
Q 2881 1984 2565 2268 
Q 2250 2553 1709 2553 
Q 1456 2553 1204 2497 
Q 953 2441 691 2322 
L 691 4666 
z
" transform="scale(0.015625)"/>
      <path id="DejaVuSans-3a" d="M 750 794 
L 1409 794 
L 1409 0 
L 750 0 
L 750 794 
z
M 750 3309 
L 1409 3309 
L 1409 2516 
L 750 2516 
L 750 3309 
z
" transform="scale(0.015625)"/>
     </defs>
     <use xlink:href="#DejaVuSans-35"/>
     <use xlink:href="#DejaVuSans-38" x="63.623047"/>
     <use xlink:href="#DejaVuSans-20" x="127.246094"/>
     <use xlink:href="#DejaVuSans-74" x="159.033203"/>
     <use xlink:href="#DejaVuSans-61" x="198.242188"/>
     <use xlink:href="#DejaVuSans-72" x="259.521484"/>
     <use xlink:href="#DejaVuSans-67" x="298.884766"/>
     <use xlink:href="#DejaVuSans-65" x="362.361328"/>
     <use xlink:href="#DejaVuSans-74" x="423.884766"/>
     <use xlink:href="#DejaVuSans-73" x="463.09375"/>
     <use xlink:href="#DejaVuSans-3a" x="515.193359"/>
     <use xlink:href="#DejaVuSans-20" x="548.884766"/>
     <use xlink:href="#DejaVuSans-31" x="580.671875"/>
     <use xlink:href="#DejaVuSans-2e" x="644.294922"/>
     <use xlink:href="#DejaVuSans-2e" x="676.082031"/>
     <use xlink:href="#DejaVuSans-2d" x="707.869141"/>
     <use xlink:href="#DejaVuSans-31" x="743.953125"/>
     <use xlink:href="#DejaVuSans-2e" x="807.576172"/>
     <use xlink:href="#DejaVuSans-30" x="839.363281"/>
     <use xlink:href="#DejaVuSans-65" x="902.986328"/>
     <use xlink:href="#DejaVuSans-2d" x="964.509766"/>
     <use xlink:href="#DejaVuSans-34" x="1000.59375"/>
    </g>
    <!-- 10 instances -->
    <g transform="translate(60.632064 40.426264) scale(0.102 -0.102)">
     <use xlink:href="#DejaVuSans-31"/>
     <use xlink:href="#DejaVuSans-30" x="63.623047"/>
     <use xlink:href="#DejaVuSans-20" x="127.246094"/>
     <use xlink:href="#DejaVuSans-69" x="159.033203"/>
     <use xlink:href="#DejaVuSans-6e" x="186.816406"/>
     <use xlink:href="#DejaVuSans-73" x="250.195312"/>
     <use xlink:href="#DejaVuSans-74" x="302.294922"/>
     <use xlink:href="#DejaVuSans-61" x="341.503906"/>
     <use xlink:href="#DejaVuSans-6e" x="402.783203"/>
     <use xlink:href="#DejaVuSans-63" x="466.162109"/>
     <use xlink:href="#DejaVuSans-65" x="521.142578"/>
     <use xlink:href="#DejaVuSans-73" x="582.666016"/>
    </g>
   </g>
   <g id="text_18">
    <!-- v2.6, hv-hash=ff0e71e8cd978373 -->
    <g style="fill: #808080" transform="translate(123.707887 293.943992) scale(0.1 -0.1)">
     <defs>
      <path id="DejaVuSans-68" d="M 3513 2113 
L 3513 0 
L 2938 0 
L 2938 2094 
Q 2938 2591 2744 2837 
Q 2550 3084 2163 3084 
Q 1697 3084 1428 2787 
Q 1159 2491 1159 1978 
L 1159 0 
L 581 0 
L 581 4863 
L 1159 4863 
L 1159 2956 
Q 1366 3272 1645 3428 
Q 1925 3584 2291 3584 
Q 2894 3584 3203 3211 
Q 3513 2838 3513 2113 
z
" transform="scale(0.015625)"/>
      <path id="DejaVuSans-3d" d="M 678 2906 
L 4684 2906 
L 4684 2381 
L 678 2381 
L 678 2906 
z
M 678 1631 
L 4684 1631 
L 4684 1100 
L 678 1100 
L 678 1631 
z
" transform="scale(0.015625)"/>
      <path id="DejaVuSans-37" d="M 525 4666 
L 3525 4666 
L 3525 4397 
L 1831 0 
L 1172 0 
L 2766 4134 
L 525 4134 
L 525 4666 
z
" transform="scale(0.015625)"/>
      <path id="DejaVuSans-33" d="M 2597 2516 
Q 3050 2419 3304 2112 
Q 3559 1806 3559 1356 
Q 3559 666 3084 287 
Q 2609 -91 1734 -91 
Q 1441 -91 1130 -33 
Q 819 25 488 141 
L 488 750 
Q 750 597 1062 519 
Q 1375 441 1716 441 
Q 2309 441 2620 675 
Q 2931 909 2931 1356 
Q 2931 1769 2642 2001 
Q 2353 2234 1838 2234 
L 1294 2234 
L 1294 2753 
L 1863 2753 
Q 2328 2753 2575 2939 
Q 2822 3125 2822 3475 
Q 2822 3834 2567 4026 
Q 2313 4219 1838 4219 
Q 1578 4219 1281 4162 
Q 984 4106 628 3988 
L 628 4550 
Q 988 4650 1302 4700 
Q 1616 4750 1894 4750 
Q 2613 4750 3031 4423 
Q 3450 4097 3450 3541 
Q 3450 3153 3228 2886 
Q 3006 2619 2597 2516 
z
" transform="scale(0.015625)"/>
     </defs>
     <use xlink:href="#DejaVuSans-76"/>
     <use xlink:href="#DejaVuSans-32" x="59.179688"/>
     <use xlink:href="#DejaVuSans-2e" x="122.802734"/>
     <use xlink:href="#DejaVuSans-36" x="154.589844"/>
     <use xlink:href="#DejaVuSans-2c" x="218.212891"/>
     <use xlink:href="#DejaVuSans-20" x="250"/>
     <use xlink:href="#DejaVuSans-68" x="281.787109"/>
     <use xlink:href="#DejaVuSans-76" x="345.166016"/>
     <use xlink:href="#DejaVuSans-2d" x="401.720703"/>
     <use xlink:href="#DejaVuSans-68" x="437.804688"/>
     <use xlink:href="#DejaVuSans-61" x="501.183594"/>
     <use xlink:href="#DejaVuSans-73" x="562.462891"/>
     <use xlink:href="#DejaVuSans-68" x="614.5625"/>
     <use xlink:href="#DejaVuSans-3d" x="677.941406"/>
     <use xlink:href="#DejaVuSans-66" x="761.730469"/>
     <use xlink:href="#DejaVuSans-66" x="796.935547"/>
     <use xlink:href="#DejaVuSans-30" x="832.140625"/>
     <use xlink:href="#DejaVuSans-65" x="895.763672"/>
     <use xlink:href="#DejaVuSans-37" x="957.287109"/>
     <use xlink:href="#DejaVuSans-31" x="1020.910156"/>
     <use xlink:href="#DejaVuSans-65" x="1084.533203"/>
     <use xlink:href="#DejaVuSans-38" x="1146.056641"/>
     <use xlink:href="#DejaVuSans-63" x="1209.679688"/>
     <use xlink:href="#DejaVuSans-64" x="1264.660156"/>
     <use xlink:href="#DejaVuSans-39" x="1328.136719"/>
     <use xlink:href="#DejaVuSans-37" x="1391.759766"/>
     <use xlink:href="#DejaVuSans-38" x="1455.382812"/>
     <use xlink:href="#DejaVuSans-33" x="1519.005859"/>
     <use xlink:href="#DejaVuSans-37" x="1582.628906"/>
     <use xlink:href="#DejaVuSans-33" x="1646.251953"/>
    </g>
   </g>
  </g>
 </g>
 <defs>
  <clipPath id="pa9e62040d3">
   <rect x="57.6" y="6.912" width="303.2064" height="292.032"/>
  </clipPath>
 </defs>
</svg>
