<?xml version="1.0" encoding="utf-8" standalone="no"?>
<!DOCTYPE svg PUBLIC "-//W3C//DTD SVG 1.1//EN"
  "http://www.w3.org/Graphics/SVG/1.1/DTD/svg11.dtd">
<svg xmlns:xlink="http://www.w3.org/1999/xlink" width="460.8pt" height="345.6pt" viewBox="0 0 460.8 345.6" xmlns="http://www.w3.org/2000/svg" version="1.1">
 <metadata>
  <rdf:RDF xmlns:dc="http://purl.org/dc/elements/1.1/" xmlns:cc="http://creativecommons.org/ns#" xmlns:rdf="http://www.w3.org/1999/02/22-rdf-syntax-ns#">
   <cc:Work>
    <dc:type rdf:resource="http://purl.org/dc/dcmitype/StillImage"/>
    <dc:date>2023-02-10T20:17:37.983009</dc:date>
    <dc:format>image/svg+xml</dc:format>
    <dc:creator>
     <cc:Agent>
      <dc:title>Matplotlib v3.6.3, https://matplotlib.org/</dc:title>
     </cc:Agent>
    </dc:creator>
   </cc:Work>
  </rdf:RDF>
 </metadata>
 <defs>
  <style type="text/css">*{stroke-linejoin: round; stroke-linecap: butt}</style>
 </defs>
 <g id="figure_1">
  <g id="patch_1">
   <path d="M 0 345.6 
L 460.8 345.6 
L 460.8 0 
L 0 0 
z
" style="fill: #ffffff"/>
  </g>
  <g id="axes_1">
   <g id="patch_2">
    <path d="M 57.6 298.944 
L 360.8064 298.944 
L 360.8064 6.912 
L 57.6 6.912 
z
" style="fill: #ffffff"/>
   </g>
   <g id="line2d_1">
    <path d="M 27.323974 298.944 
L 27.323974 297.265655 
L 34.951403 297.265655 
L 34.951403 295.58731 
L 40.363149 295.58731 
L 40.363149 293.908966 
L 57.6 293.908966 
L 57.6 290.552276 
L 79.480672 290.552276 
L 79.480672 287.195586 
L 94.735529 287.195586 
L 94.735529 283.838897 
L 128.000734 283.838897 
L 128.000734 280.482207 
L 148.533127 280.482207 
L 148.533127 277.125517 
L 152.906572 277.125517 
L 152.906572 273.768828 
L 170.458643 273.768828 
L 170.458643 272.090483 
L 171.271304 272.090483 
L 171.271304 270.412138 
L 172.161441 270.412138 
L 172.161441 268.733793 
L 180.641498 268.733793 
L 180.641498 263.698759 
L 185.10448 263.698759 
L 185.10448 258.663724 
L 191.679963 258.663724 
L 191.679963 253.62869 
L 195.321678 253.62869 
L 195.321678 250.272 
L 201.203726 250.272 
L 201.203726 246.91531 
L 207.841754 246.91531 
L 207.841754 243.558621 
L 216.042533 243.558621 
L 216.042533 241.880276 
L 219.407868 241.880276 
L 219.407868 240.201931 
L 227.946872 240.201931 
L 227.946872 238.523586 
L 232.220914 238.523586 
L 232.220914 235.166897 
L 234.391393 235.166897 
L 234.391393 231.810207 
L 235.283912 231.810207 
L 235.283912 228.453517 
L 243.654583 228.453517 
L 243.654583 223.418483 
L 247.596208 223.418483 
L 247.596208 218.383448 
L 249.877103 218.383448 
L 249.877103 213.348414 
L 255.731148 213.348414 
L 255.731148 209.991724 
L 262.931605 209.991724 
L 262.931605 206.635034 
L 266.793821 206.635034 
L 266.793821 203.278345 
L 272.617091 203.278345 
L 272.617091 199.921655 
L 276.247056 199.921655 
L 276.247056 196.564966 
L 281.594226 196.564966 
L 281.594226 193.208276 
L 285.586754 193.208276 
L 285.586754 189.851586 
L 294.110196 189.851586 
L 294.110196 186.494897 
L 295.69193 186.494897 
L 295.69193 184.816552 
L 297.444251 184.816552 
L 297.444251 181.459862 
L 304.408668 181.459862 
L 304.408668 179.781517 
L 305.119406 179.781517 
L 305.119406 174.746483 
L 312.684512 174.746483 
L 312.684512 173.068138 
L 313.961204 173.068138 
L 313.961204 171.389793 
L 315.352395 171.389793 
L 315.352395 166.354759 
L 321.433752 166.354759 
L 321.433752 161.319724 
L 325.958941 161.319724 
L 325.958941 159.641379 
L 330.08509 159.641379 
L 330.08509 156.28469 
L 333.328346 156.28469 
L 333.328346 151.249655 
L 335.783582 151.249655 
L 335.783582 149.57131 
L 340.74844 149.57131 
L 340.74844 147.892966 
L 341.315741 147.892966 
L 341.315741 142.857931 
L 350.397552 142.857931 
L 350.397552 137.822897 
L 360.8064 137.822897 
" style="fill: none; stroke: #f5deb3; stroke-width: 4; stroke-linecap: square"/>
   </g>
   <g id="line2d_2">
    <defs>
     <path id="m8817b3d745" d="M -0 7.778175 
L 7.778175 0 
L 0 -7.778175 
L -7.778175 -0 
z
" style="stroke: #f5deb3; stroke-width: 1.5; stroke-linejoin: miter"/>
    </defs>
    <g>
     <use xlink:href="#m8817b3d745" x="152.906572" y="273.768828" style="fill: #f5deb3; stroke: #f5deb3; stroke-width: 1.5; stroke-linejoin: miter"/>
     <use xlink:href="#m8817b3d745" x="232.220914" y="235.166897" style="fill: #f5deb3; stroke: #f5deb3; stroke-width: 1.5; stroke-linejoin: miter"/>
     <use xlink:href="#m8817b3d745" x="297.444251" y="184.816552" style="fill: #f5deb3; stroke: #f5deb3; stroke-width: 1.5; stroke-linejoin: miter"/>
     <use xlink:href="#m8817b3d745" x="341.315741" y="142.857931" style="fill: #f5deb3; stroke: #f5deb3; stroke-width: 1.5; stroke-linejoin: miter"/>
     <use xlink:href="#m8817b3d745" x="350.397552" y="137.822897" style="fill: #f5deb3; stroke: #f5deb3; stroke-width: 1.5; stroke-linejoin: miter"/>
     <use xlink:href="#m8817b3d745" x="360.8064" y="137.822897" style="fill: #f5deb3; stroke: #f5deb3; stroke-width: 1.5; stroke-linejoin: miter"/>
    </g>
   </g>
   <g id="line2d_3">
    <path style="fill: none; stroke: #f5deb3; stroke-width: 4; stroke-linecap: square"/>
    <g/>
   </g>
   <g id="line2d_4">
    <path d="M 360.8064 137.822897 
L 380.514816 12.75264 
" style="fill: none; stroke: #f5deb3; stroke-width: 4; stroke-linecap: square"/>
    <g>
     <use xlink:href="#m8817b3d745" x="360.8064" y="137.822897" style="fill: #f5deb3; stroke: #f5deb3; stroke-width: 1.5; stroke-linejoin: miter"/>
     <use xlink:href="#m8817b3d745" x="380.514816" y="12.75264" style="fill: #f5deb3; stroke: #f5deb3; stroke-width: 1.5; stroke-linejoin: miter"/>
    </g>
   </g>
   <g id="matplotlib.axis_1">
    <g id="xtick_1">
     <g id="line2d_5">
      <path d="M 57.6 298.944 
L 57.6 6.912 
" clip-path="url(#p95d1b3b7d4)" style="fill: none; stroke: #b0b0b0; stroke-width: 0.8; stroke-linecap: square"/>
     </g>
     <g id="line2d_6">
      <defs>
       <path id="mc0bc75dae3" d="M 0 0 
L 0 3.5 
" style="stroke: #000000; stroke-width: 0.8"/>
      </defs>
      <g>
       <use xlink:href="#mc0bc75dae3" x="57.6" y="298.944" style="stroke: #000000; stroke-width: 0.8"/>
      </g>
     </g>
     <g id="text_1">
      <!-- 0 -->
      <g transform="translate(52.191875 318.861344) scale(0.17 -0.17)">
       <defs>
        <path id="DejaVuSans-30" d="M 2034 4250 
Q 1547 4250 1301 3770 
Q 1056 3291 1056 2328 
Q 1056 1369 1301 889 
Q 1547 409 2034 409 
Q 2525 409 2770 889 
Q 3016 1369 3016 2328 
Q 3016 3291 2770 3770 
Q 2525 4250 2034 4250 
z
M 2034 4750 
Q 2819 4750 3233 4129 
Q 3647 3509 3647 2328 
Q 3647 1150 3233 529 
Q 2819 -91 2034 -91 
Q 1250 -91 836 529 
Q 422 1150 422 2328 
Q 422 3509 836 4129 
Q 1250 4750 2034 4750 
z
" transform="scale(0.015625)"/>
       </defs>
       <use xlink:href="#DejaVuSans-30"/>
      </g>
     </g>
    </g>
    <g id="xtick_2">
     <g id="line2d_7">
      <path d="M 144.2304 298.944 
L 144.2304 6.912 
" clip-path="url(#p95d1b3b7d4)" style="fill: none; stroke: #b0b0b0; stroke-width: 0.8; stroke-linecap: square"/>
     </g>
     <g id="line2d_8">
      <g>
       <use xlink:href="#mc0bc75dae3" x="144.2304" y="298.944" style="stroke: #000000; stroke-width: 0.8"/>
      </g>
     </g>
     <g id="text_2">
      <!-- 2 -->
      <g transform="translate(138.822275 318.861344) scale(0.17 -0.17)">
       <defs>
        <path id="DejaVuSans-32" d="M 1228 531 
L 3431 531 
L 3431 0 
L 469 0 
L 469 531 
Q 828 903 1448 1529 
Q 2069 2156 2228 2338 
Q 2531 2678 2651 2914 
Q 2772 3150 2772 3378 
Q 2772 3750 2511 3984 
Q 2250 4219 1831 4219 
Q 1534 4219 1204 4116 
Q 875 4013 500 3803 
L 500 4441 
Q 881 4594 1212 4672 
Q 1544 4750 1819 4750 
Q 2544 4750 2975 4387 
Q 3406 4025 3406 3419 
Q 3406 3131 3298 2873 
Q 3191 2616 2906 2266 
Q 2828 2175 2409 1742 
Q 1991 1309 1228 531 
z
" transform="scale(0.015625)"/>
       </defs>
       <use xlink:href="#DejaVuSans-32"/>
      </g>
     </g>
    </g>
    <g id="xtick_3">
     <g id="line2d_9">
      <path d="M 230.8608 298.944 
L 230.8608 6.912 
" clip-path="url(#p95d1b3b7d4)" style="fill: none; stroke: #b0b0b0; stroke-width: 0.8; stroke-linecap: square"/>
     </g>
     <g id="line2d_10">
      <g>
       <use xlink:href="#mc0bc75dae3" x="230.8608" y="298.944" style="stroke: #000000; stroke-width: 0.8"/>
      </g>
     </g>
     <g id="text_3">
      <!-- 4 -->
      <g transform="translate(225.452675 318.861344) scale(0.17 -0.17)">
       <defs>
        <path id="DejaVuSans-34" d="M 2419 4116 
L 825 1625 
L 2419 1625 
L 2419 4116 
z
M 2253 4666 
L 3047 4666 
L 3047 1625 
L 3713 1625 
L 3713 1100 
L 3047 1100 
L 3047 0 
L 2419 0 
L 2419 1100 
L 313 1100 
L 313 1709 
L 2253 4666 
z
" transform="scale(0.015625)"/>
       </defs>
       <use xlink:href="#DejaVuSans-34"/>
      </g>
     </g>
    </g>
    <g id="xtick_4">
     <g id="line2d_11">
      <path d="M 317.4912 298.944 
L 317.4912 6.912 
" clip-path="url(#p95d1b3b7d4)" style="fill: none; stroke: #b0b0b0; stroke-width: 0.8; stroke-linecap: square"/>
     </g>
     <g id="line2d_12">
      <g>
       <use xlink:href="#mc0bc75dae3" x="317.4912" y="298.944" style="stroke: #000000; stroke-width: 0.8"/>
      </g>
     </g>
     <g id="text_4">
      <!-- 6 -->
      <g transform="translate(312.083075 318.861344) scale(0.17 -0.17)">
       <defs>
        <path id="DejaVuSans-36" d="M 2113 2584 
Q 1688 2584 1439 2293 
Q 1191 2003 1191 1497 
Q 1191 994 1439 701 
Q 1688 409 2113 409 
Q 2538 409 2786 701 
Q 3034 994 3034 1497 
Q 3034 2003 2786 2293 
Q 2538 2584 2113 2584 
z
M 3366 4563 
L 3366 3988 
Q 3128 4100 2886 4159 
Q 2644 4219 2406 4219 
Q 1781 4219 1451 3797 
Q 1122 3375 1075 2522 
Q 1259 2794 1537 2939 
Q 1816 3084 2150 3084 
Q 2853 3084 3261 2657 
Q 3669 2231 3669 1497 
Q 3669 778 3244 343 
Q 2819 -91 2113 -91 
Q 1303 -91 875 529 
Q 447 1150 447 2328 
Q 447 3434 972 4092 
Q 1497 4750 2381 4750 
Q 2619 4750 2861 4703 
Q 3103 4656 3366 4563 
z
" transform="scale(0.015625)"/>
       </defs>
       <use xlink:href="#DejaVuSans-36"/>
      </g>
     </g>
    </g>
    <g id="xtick_5">
     <g id="line2d_13">
      <path d="M 100.9152 298.944 
L 100.9152 6.912 
" clip-path="url(#p95d1b3b7d4)" style="fill: none; stroke: #b0b0b0; stroke-width: 0.8; stroke-linecap: square"/>
     </g>
     <g id="line2d_14">
      <defs>
       <path id="m5c918d4963" d="M 0 0 
L 0 2 
" style="stroke: #000000; stroke-width: 0.6"/>
      </defs>
      <g>
       <use xlink:href="#m5c918d4963" x="100.9152" y="298.944" style="stroke: #000000; stroke-width: 0.6"/>
      </g>
     </g>
    </g>
    <g id="xtick_6">
     <g id="line2d_15">
      <path d="M 187.5456 298.944 
L 187.5456 6.912 
" clip-path="url(#p95d1b3b7d4)" style="fill: none; stroke: #b0b0b0; stroke-width: 0.8; stroke-linecap: square"/>
     </g>
     <g id="line2d_16">
      <g>
       <use xlink:href="#m5c918d4963" x="187.5456" y="298.944" style="stroke: #000000; stroke-width: 0.6"/>
      </g>
     </g>
    </g>
    <g id="xtick_7">
     <g id="line2d_17">
      <path d="M 274.176 298.944 
L 274.176 6.912 
" clip-path="url(#p95d1b3b7d4)" style="fill: none; stroke: #b0b0b0; stroke-width: 0.8; stroke-linecap: square"/>
     </g>
     <g id="line2d_18">
      <g>
       <use xlink:href="#m5c918d4963" x="274.176" y="298.944" style="stroke: #000000; stroke-width: 0.6"/>
      </g>
     </g>
    </g>
    <g id="xtick_8">
     <g id="line2d_19">
      <path d="M 360.8064 298.944 
L 360.8064 6.912 
" clip-path="url(#p95d1b3b7d4)" style="fill: none; stroke: #b0b0b0; stroke-width: 0.8; stroke-linecap: square"/>
     </g>
     <g id="line2d_20">
      <g>
       <use xlink:href="#m5c918d4963" x="360.8064" y="298.944" style="stroke: #000000; stroke-width: 0.6"/>
      </g>
     </g>
    </g>
    <g id="text_5">
     <!-- log10(# f-evals / dimension) -->
     <g transform="translate(88.823278 339.314156) scale(0.17 -0.17)">
      <defs>
       <path id="DejaVuSans-6c" d="M 603 4863 
L 1178 4863 
L 1178 0 
L 603 0 
L 603 4863 
z
" transform="scale(0.015625)"/>
       <path id="DejaVuSans-6f" d="M 1959 3097 
Q 1497 3097 1228 2736 
Q 959 2375 959 1747 
Q 959 1119 1226 758 
Q 1494 397 1959 397 
Q 2419 397 2687 759 
Q 2956 1122 2956 1747 
Q 2956 2369 2687 2733 
Q 2419 3097 1959 3097 
z
M 1959 3584 
Q 2709 3584 3137 3096 
Q 3566 2609 3566 1747 
Q 3566 888 3137 398 
Q 2709 -91 1959 -91 
Q 1206 -91 779 398 
Q 353 888 353 1747 
Q 353 2609 779 3096 
Q 1206 3584 1959 3584 
z
" transform="scale(0.015625)"/>
       <path id="DejaVuSans-67" d="M 2906 1791 
Q 2906 2416 2648 2759 
Q 2391 3103 1925 3103 
Q 1463 3103 1205 2759 
Q 947 2416 947 1791 
Q 947 1169 1205 825 
Q 1463 481 1925 481 
Q 2391 481 2648 825 
Q 2906 1169 2906 1791 
z
M 3481 434 
Q 3481 -459 3084 -895 
Q 2688 -1331 1869 -1331 
Q 1566 -1331 1297 -1286 
Q 1028 -1241 775 -1147 
L 775 -588 
Q 1028 -725 1275 -790 
Q 1522 -856 1778 -856 
Q 2344 -856 2625 -561 
Q 2906 -266 2906 331 
L 2906 616 
Q 2728 306 2450 153 
Q 2172 0 1784 0 
Q 1141 0 747 490 
Q 353 981 353 1791 
Q 353 2603 747 3093 
Q 1141 3584 1784 3584 
Q 2172 3584 2450 3431 
Q 2728 3278 2906 2969 
L 2906 3500 
L 3481 3500 
L 3481 434 
z
" transform="scale(0.015625)"/>
       <path id="DejaVuSans-31" d="M 794 531 
L 1825 531 
L 1825 4091 
L 703 3866 
L 703 4441 
L 1819 4666 
L 2450 4666 
L 2450 531 
L 3481 531 
L 3481 0 
L 794 0 
L 794 531 
z
" transform="scale(0.015625)"/>
       <path id="DejaVuSans-28" d="M 1984 4856 
Q 1566 4138 1362 3434 
Q 1159 2731 1159 2009 
Q 1159 1288 1364 580 
Q 1569 -128 1984 -844 
L 1484 -844 
Q 1016 -109 783 600 
Q 550 1309 550 2009 
Q 550 2706 781 3412 
Q 1013 4119 1484 4856 
L 1984 4856 
z
" transform="scale(0.015625)"/>
       <path id="DejaVuSans-23" d="M 3272 2816 
L 2363 2816 
L 2100 1772 
L 3016 1772 
L 3272 2816 
z
M 2803 4594 
L 2478 3297 
L 3391 3297 
L 3719 4594 
L 4219 4594 
L 3897 3297 
L 4872 3297 
L 4872 2816 
L 3775 2816 
L 3519 1772 
L 4513 1772 
L 4513 1294 
L 3397 1294 
L 3072 0 
L 2572 0 
L 2894 1294 
L 1978 1294 
L 1656 0 
L 1153 0 
L 1478 1294 
L 494 1294 
L 494 1772 
L 1594 1772 
L 1856 2816 
L 850 2816 
L 850 3297 
L 1978 3297 
L 2297 4594 
L 2803 4594 
z
" transform="scale(0.015625)"/>
       <path id="DejaVuSans-20" transform="scale(0.015625)"/>
       <path id="DejaVuSans-66" d="M 2375 4863 
L 2375 4384 
L 1825 4384 
Q 1516 4384 1395 4259 
Q 1275 4134 1275 3809 
L 1275 3500 
L 2222 3500 
L 2222 3053 
L 1275 3053 
L 1275 0 
L 697 0 
L 697 3053 
L 147 3053 
L 147 3500 
L 697 3500 
L 697 3744 
Q 697 4328 969 4595 
Q 1241 4863 1831 4863 
L 2375 4863 
z
" transform="scale(0.015625)"/>
       <path id="DejaVuSans-2d" d="M 313 2009 
L 1997 2009 
L 1997 1497 
L 313 1497 
L 313 2009 
z
" transform="scale(0.015625)"/>
       <path id="DejaVuSans-65" d="M 3597 1894 
L 3597 1613 
L 953 1613 
Q 991 1019 1311 708 
Q 1631 397 2203 397 
Q 2534 397 2845 478 
Q 3156 559 3463 722 
L 3463 178 
Q 3153 47 2828 -22 
Q 2503 -91 2169 -91 
Q 1331 -91 842 396 
Q 353 884 353 1716 
Q 353 2575 817 3079 
Q 1281 3584 2069 3584 
Q 2775 3584 3186 3129 
Q 3597 2675 3597 1894 
z
M 3022 2063 
Q 3016 2534 2758 2815 
Q 2500 3097 2075 3097 
Q 1594 3097 1305 2825 
Q 1016 2553 972 2059 
L 3022 2063 
z
" transform="scale(0.015625)"/>
       <path id="DejaVuSans-76" d="M 191 3500 
L 800 3500 
L 1894 563 
L 2988 3500 
L 3597 3500 
L 2284 0 
L 1503 0 
L 191 3500 
z
" transform="scale(0.015625)"/>
       <path id="DejaVuSans-61" d="M 2194 1759 
Q 1497 1759 1228 1600 
Q 959 1441 959 1056 
Q 959 750 1161 570 
Q 1363 391 1709 391 
Q 2188 391 2477 730 
Q 2766 1069 2766 1631 
L 2766 1759 
L 2194 1759 
z
M 3341 1997 
L 3341 0 
L 2766 0 
L 2766 531 
Q 2569 213 2275 61 
Q 1981 -91 1556 -91 
Q 1019 -91 701 211 
Q 384 513 384 1019 
Q 384 1609 779 1909 
Q 1175 2209 1959 2209 
L 2766 2209 
L 2766 2266 
Q 2766 2663 2505 2880 
Q 2244 3097 1772 3097 
Q 1472 3097 1187 3025 
Q 903 2953 641 2809 
L 641 3341 
Q 956 3463 1253 3523 
Q 1550 3584 1831 3584 
Q 2591 3584 2966 3190 
Q 3341 2797 3341 1997 
z
" transform="scale(0.015625)"/>
       <path id="DejaVuSans-73" d="M 2834 3397 
L 2834 2853 
Q 2591 2978 2328 3040 
Q 2066 3103 1784 3103 
Q 1356 3103 1142 2972 
Q 928 2841 928 2578 
Q 928 2378 1081 2264 
Q 1234 2150 1697 2047 
L 1894 2003 
Q 2506 1872 2764 1633 
Q 3022 1394 3022 966 
Q 3022 478 2636 193 
Q 2250 -91 1575 -91 
Q 1294 -91 989 -36 
Q 684 19 347 128 
L 347 722 
Q 666 556 975 473 
Q 1284 391 1588 391 
Q 1994 391 2212 530 
Q 2431 669 2431 922 
Q 2431 1156 2273 1281 
Q 2116 1406 1581 1522 
L 1381 1569 
Q 847 1681 609 1914 
Q 372 2147 372 2553 
Q 372 3047 722 3315 
Q 1072 3584 1716 3584 
Q 2034 3584 2315 3537 
Q 2597 3491 2834 3397 
z
" transform="scale(0.015625)"/>
       <path id="DejaVuSans-2f" d="M 1625 4666 
L 2156 4666 
L 531 -594 
L 0 -594 
L 1625 4666 
z
" transform="scale(0.015625)"/>
       <path id="DejaVuSans-64" d="M 2906 2969 
L 2906 4863 
L 3481 4863 
L 3481 0 
L 2906 0 
L 2906 525 
Q 2725 213 2448 61 
Q 2172 -91 1784 -91 
Q 1150 -91 751 415 
Q 353 922 353 1747 
Q 353 2572 751 3078 
Q 1150 3584 1784 3584 
Q 2172 3584 2448 3432 
Q 2725 3281 2906 2969 
z
M 947 1747 
Q 947 1113 1208 752 
Q 1469 391 1925 391 
Q 2381 391 2643 752 
Q 2906 1113 2906 1747 
Q 2906 2381 2643 2742 
Q 2381 3103 1925 3103 
Q 1469 3103 1208 2742 
Q 947 2381 947 1747 
z
" transform="scale(0.015625)"/>
       <path id="DejaVuSans-69" d="M 603 3500 
L 1178 3500 
L 1178 0 
L 603 0 
L 603 3500 
z
M 603 4863 
L 1178 4863 
L 1178 4134 
L 603 4134 
L 603 4863 
z
" transform="scale(0.015625)"/>
       <path id="DejaVuSans-6d" d="M 3328 2828 
Q 3544 3216 3844 3400 
Q 4144 3584 4550 3584 
Q 5097 3584 5394 3201 
Q 5691 2819 5691 2113 
L 5691 0 
L 5113 0 
L 5113 2094 
Q 5113 2597 4934 2840 
Q 4756 3084 4391 3084 
Q 3944 3084 3684 2787 
Q 3425 2491 3425 1978 
L 3425 0 
L 2847 0 
L 2847 2094 
Q 2847 2600 2669 2842 
Q 2491 3084 2119 3084 
Q 1678 3084 1418 2786 
Q 1159 2488 1159 1978 
L 1159 0 
L 581 0 
L 581 3500 
L 1159 3500 
L 1159 2956 
Q 1356 3278 1631 3431 
Q 1906 3584 2284 3584 
Q 2666 3584 2933 3390 
Q 3200 3197 3328 2828 
z
" transform="scale(0.015625)"/>
       <path id="DejaVuSans-6e" d="M 3513 2113 
L 3513 0 
L 2938 0 
L 2938 2094 
Q 2938 2591 2744 2837 
Q 2550 3084 2163 3084 
Q 1697 3084 1428 2787 
Q 1159 2491 1159 1978 
L 1159 0 
L 581 0 
L 581 3500 
L 1159 3500 
L 1159 2956 
Q 1366 3272 1645 3428 
Q 1925 3584 2291 3584 
Q 2894 3584 3203 3211 
Q 3513 2838 3513 2113 
z
" transform="scale(0.015625)"/>
       <path id="DejaVuSans-29" d="M 513 4856 
L 1013 4856 
Q 1481 4119 1714 3412 
Q 1947 2706 1947 2009 
Q 1947 1309 1714 600 
Q 1481 -109 1013 -844 
L 513 -844 
Q 928 -128 1133 580 
Q 1338 1288 1338 2009 
Q 1338 2731 1133 3434 
Q 928 4138 513 4856 
z
" transform="scale(0.015625)"/>
      </defs>
      <use xlink:href="#DejaVuSans-6c"/>
      <use xlink:href="#DejaVuSans-6f" x="27.783203"/>
      <use xlink:href="#DejaVuSans-67" x="88.964844"/>
      <use xlink:href="#DejaVuSans-31" x="152.441406"/>
      <use xlink:href="#DejaVuSans-30" x="216.064453"/>
      <use xlink:href="#DejaVuSans-28" x="279.6875"/>
      <use xlink:href="#DejaVuSans-23" x="318.701172"/>
      <use xlink:href="#DejaVuSans-20" x="402.490234"/>
      <use xlink:href="#DejaVuSans-66" x="434.277344"/>
      <use xlink:href="#DejaVuSans-2d" x="463.982422"/>
      <use xlink:href="#DejaVuSans-65" x="500.066406"/>
      <use xlink:href="#DejaVuSans-76" x="561.589844"/>
      <use xlink:href="#DejaVuSans-61" x="620.769531"/>
      <use xlink:href="#DejaVuSans-6c" x="682.048828"/>
      <use xlink:href="#DejaVuSans-73" x="709.832031"/>
      <use xlink:href="#DejaVuSans-20" x="761.931641"/>
      <use xlink:href="#DejaVuSans-2f" x="793.71875"/>
      <use xlink:href="#DejaVuSans-20" x="827.410156"/>
      <use xlink:href="#DejaVuSans-64" x="859.197266"/>
      <use xlink:href="#DejaVuSans-69" x="922.673828"/>
      <use xlink:href="#DejaVuSans-6d" x="950.457031"/>
      <use xlink:href="#DejaVuSans-65" x="1047.869141"/>
      <use xlink:href="#DejaVuSans-6e" x="1109.392578"/>
      <use xlink:href="#DejaVuSans-73" x="1172.771484"/>
      <use xlink:href="#DejaVuSans-69" x="1224.871094"/>
      <use xlink:href="#DejaVuSans-6f" x="1252.654297"/>
      <use xlink:href="#DejaVuSans-6e" x="1313.835938"/>
      <use xlink:href="#DejaVuSans-29" x="1377.214844"/>
     </g>
    </g>
   </g>
   <g id="matplotlib.axis_2">
    <g id="ytick_1">
     <g id="line2d_21">
      <path d="M 57.6 298.944 
L 360.8064 298.944 
" clip-path="url(#p95d1b3b7d4)" style="fill: none; stroke: #b0b0b0; stroke-width: 0.8; stroke-linecap: square"/>
     </g>
     <g id="line2d_22">
      <defs>
       <path id="mfb031cb7e0" d="M 0 0 
L -3.5 0 
" style="stroke: #000000; stroke-width: 0.8"/>
      </defs>
      <g>
       <use xlink:href="#mfb031cb7e0" x="57.6" y="298.944" style="stroke: #000000; stroke-width: 0.8"/>
      </g>
     </g>
     <g id="text_6">
      <!-- 0.0 -->
      <g transform="translate(25.155 305.02275) scale(0.16 -0.16)">
       <defs>
        <path id="DejaVuSans-2e" d="M 684 794 
L 1344 794 
L 1344 0 
L 684 0 
L 684 794 
z
" transform="scale(0.015625)"/>
       </defs>
       <use xlink:href="#DejaVuSans-30"/>
       <use xlink:href="#DejaVuSans-2e" x="63.623047"/>
       <use xlink:href="#DejaVuSans-30" x="95.410156"/>
      </g>
     </g>
    </g>
    <g id="ytick_2">
     <g id="line2d_23">
      <path d="M 57.6 240.5376 
L 360.8064 240.5376 
" clip-path="url(#p95d1b3b7d4)" style="fill: none; stroke: #b0b0b0; stroke-width: 0.8; stroke-linecap: square"/>
     </g>
     <g id="line2d_24">
      <g>
       <use xlink:href="#mfb031cb7e0" x="57.6" y="240.5376" style="stroke: #000000; stroke-width: 0.8"/>
      </g>
     </g>
     <g id="text_7">
      <!-- 0.2 -->
      <g transform="translate(25.155 246.61635) scale(0.16 -0.16)">
       <use xlink:href="#DejaVuSans-30"/>
       <use xlink:href="#DejaVuSans-2e" x="63.623047"/>
       <use xlink:href="#DejaVuSans-32" x="95.410156"/>
      </g>
     </g>
    </g>
    <g id="ytick_3">
     <g id="line2d_25">
      <path d="M 57.6 182.1312 
L 360.8064 182.1312 
" clip-path="url(#p95d1b3b7d4)" style="fill: none; stroke: #b0b0b0; stroke-width: 0.8; stroke-linecap: square"/>
     </g>
     <g id="line2d_26">
      <g>
       <use xlink:href="#mfb031cb7e0" x="57.6" y="182.1312" style="stroke: #000000; stroke-width: 0.8"/>
      </g>
     </g>
     <g id="text_8">
      <!-- 0.4 -->
      <g transform="translate(25.155 188.20995) scale(0.16 -0.16)">
       <use xlink:href="#DejaVuSans-30"/>
       <use xlink:href="#DejaVuSans-2e" x="63.623047"/>
       <use xlink:href="#DejaVuSans-34" x="95.410156"/>
      </g>
     </g>
    </g>
    <g id="ytick_4">
     <g id="line2d_27">
      <path d="M 57.6 123.7248 
L 360.8064 123.7248 
" clip-path="url(#p95d1b3b7d4)" style="fill: none; stroke: #b0b0b0; stroke-width: 0.8; stroke-linecap: square"/>
     </g>
     <g id="line2d_28">
      <g>
       <use xlink:href="#mfb031cb7e0" x="57.6" y="123.7248" style="stroke: #000000; stroke-width: 0.8"/>
      </g>
     </g>
     <g id="text_9">
      <!-- 0.6 -->
      <g transform="translate(25.155 129.80355) scale(0.16 -0.16)">
       <use xlink:href="#DejaVuSans-30"/>
       <use xlink:href="#DejaVuSans-2e" x="63.623047"/>
       <use xlink:href="#DejaVuSans-36" x="95.410156"/>
      </g>
     </g>
    </g>
    <g id="ytick_5">
     <g id="line2d_29">
      <path d="M 57.6 65.3184 
L 360.8064 65.3184 
" clip-path="url(#p95d1b3b7d4)" style="fill: none; stroke: #b0b0b0; stroke-width: 0.8; stroke-linecap: square"/>
     </g>
     <g id="line2d_30">
      <g>
       <use xlink:href="#mfb031cb7e0" x="57.6" y="65.3184" style="stroke: #000000; stroke-width: 0.8"/>
      </g>
     </g>
     <g id="text_10">
      <!-- 0.8 -->
      <g transform="translate(25.155 71.39715) scale(0.16 -0.16)">
       <defs>
        <path id="DejaVuSans-38" d="M 2034 2216 
Q 1584 2216 1326 1975 
Q 1069 1734 1069 1313 
Q 1069 891 1326 650 
Q 1584 409 2034 409 
Q 2484 409 2743 651 
Q 3003 894 3003 1313 
Q 3003 1734 2745 1975 
Q 2488 2216 2034 2216 
z
M 1403 2484 
Q 997 2584 770 2862 
Q 544 3141 544 3541 
Q 544 4100 942 4425 
Q 1341 4750 2034 4750 
Q 2731 4750 3128 4425 
Q 3525 4100 3525 3541 
Q 3525 3141 3298 2862 
Q 3072 2584 2669 2484 
Q 3125 2378 3379 2068 
Q 3634 1759 3634 1313 
Q 3634 634 3220 271 
Q 2806 -91 2034 -91 
Q 1263 -91 848 271 
Q 434 634 434 1313 
Q 434 1759 690 2068 
Q 947 2378 1403 2484 
z
M 1172 3481 
Q 1172 3119 1398 2916 
Q 1625 2713 2034 2713 
Q 2441 2713 2670 2916 
Q 2900 3119 2900 3481 
Q 2900 3844 2670 4047 
Q 2441 4250 2034 4250 
Q 1625 4250 1398 4047 
Q 1172 3844 1172 3481 
z
" transform="scale(0.015625)"/>
       </defs>
       <use xlink:href="#DejaVuSans-30"/>
       <use xlink:href="#DejaVuSans-2e" x="63.623047"/>
       <use xlink:href="#DejaVuSans-38" x="95.410156"/>
      </g>
     </g>
    </g>
    <g id="ytick_6">
     <g id="line2d_31">
      <path d="M 57.6 6.912 
L 360.8064 6.912 
" clip-path="url(#p95d1b3b7d4)" style="fill: none; stroke: #b0b0b0; stroke-width: 0.8; stroke-linecap: square"/>
     </g>
     <g id="line2d_32">
      <g>
       <use xlink:href="#mfb031cb7e0" x="57.6" y="6.912" style="stroke: #000000; stroke-width: 0.8"/>
      </g>
     </g>
     <g id="text_11">
      <!-- 1.0 -->
      <g transform="translate(25.155 12.99075) scale(0.16 -0.16)">
       <use xlink:href="#DejaVuSans-31"/>
       <use xlink:href="#DejaVuSans-2e" x="63.623047"/>
       <use xlink:href="#DejaVuSans-30" x="95.410156"/>
      </g>
     </g>
    </g>
    <g id="text_12">
     <!-- Fraction of function,target pairs -->
     <g transform="translate(17.619531 287.313) rotate(-90) scale(0.17 -0.17)">
      <defs>
       <path id="DejaVuSans-46" d="M 628 4666 
L 3309 4666 
L 3309 4134 
L 1259 4134 
L 1259 2759 
L 3109 2759 
L 3109 2228 
L 1259 2228 
L 1259 0 
L 628 0 
L 628 4666 
z
" transform="scale(0.015625)"/>
       <path id="DejaVuSans-72" d="M 2631 2963 
Q 2534 3019 2420 3045 
Q 2306 3072 2169 3072 
Q 1681 3072 1420 2755 
Q 1159 2438 1159 1844 
L 1159 0 
L 581 0 
L 581 3500 
L 1159 3500 
L 1159 2956 
Q 1341 3275 1631 3429 
Q 1922 3584 2338 3584 
Q 2397 3584 2469 3576 
Q 2541 3569 2628 3553 
L 2631 2963 
z
" transform="scale(0.015625)"/>
       <path id="DejaVuSans-63" d="M 3122 3366 
L 3122 2828 
Q 2878 2963 2633 3030 
Q 2388 3097 2138 3097 
Q 1578 3097 1268 2742 
Q 959 2388 959 1747 
Q 959 1106 1268 751 
Q 1578 397 2138 397 
Q 2388 397 2633 464 
Q 2878 531 3122 666 
L 3122 134 
Q 2881 22 2623 -34 
Q 2366 -91 2075 -91 
Q 1284 -91 818 406 
Q 353 903 353 1747 
Q 353 2603 823 3093 
Q 1294 3584 2113 3584 
Q 2378 3584 2631 3529 
Q 2884 3475 3122 3366 
z
" transform="scale(0.015625)"/>
       <path id="DejaVuSans-74" d="M 1172 4494 
L 1172 3500 
L 2356 3500 
L 2356 3053 
L 1172 3053 
L 1172 1153 
Q 1172 725 1289 603 
Q 1406 481 1766 481 
L 2356 481 
L 2356 0 
L 1766 0 
Q 1100 0 847 248 
Q 594 497 594 1153 
L 594 3053 
L 172 3053 
L 172 3500 
L 594 3500 
L 594 4494 
L 1172 4494 
z
" transform="scale(0.015625)"/>
       <path id="DejaVuSans-75" d="M 544 1381 
L 544 3500 
L 1119 3500 
L 1119 1403 
Q 1119 906 1312 657 
Q 1506 409 1894 409 
Q 2359 409 2629 706 
Q 2900 1003 2900 1516 
L 2900 3500 
L 3475 3500 
L 3475 0 
L 2900 0 
L 2900 538 
Q 2691 219 2414 64 
Q 2138 -91 1772 -91 
Q 1169 -91 856 284 
Q 544 659 544 1381 
z
M 1991 3584 
L 1991 3584 
z
" transform="scale(0.015625)"/>
       <path id="DejaVuSans-2c" d="M 750 794 
L 1409 794 
L 1409 256 
L 897 -744 
L 494 -744 
L 750 256 
L 750 794 
z
" transform="scale(0.015625)"/>
       <path id="DejaVuSans-70" d="M 1159 525 
L 1159 -1331 
L 581 -1331 
L 581 3500 
L 1159 3500 
L 1159 2969 
Q 1341 3281 1617 3432 
Q 1894 3584 2278 3584 
Q 2916 3584 3314 3078 
Q 3713 2572 3713 1747 
Q 3713 922 3314 415 
Q 2916 -91 2278 -91 
Q 1894 -91 1617 61 
Q 1341 213 1159 525 
z
M 3116 1747 
Q 3116 2381 2855 2742 
Q 2594 3103 2138 3103 
Q 1681 3103 1420 2742 
Q 1159 2381 1159 1747 
Q 1159 1113 1420 752 
Q 1681 391 2138 391 
Q 2594 391 2855 752 
Q 3116 1113 3116 1747 
z
" transform="scale(0.015625)"/>
      </defs>
      <use xlink:href="#DejaVuSans-46"/>
      <use xlink:href="#DejaVuSans-72" x="50.269531"/>
      <use xlink:href="#DejaVuSans-61" x="91.382812"/>
      <use xlink:href="#DejaVuSans-63" x="152.662109"/>
      <use xlink:href="#DejaVuSans-74" x="207.642578"/>
      <use xlink:href="#DejaVuSans-69" x="246.851562"/>
      <use xlink:href="#DejaVuSans-6f" x="274.634766"/>
      <use xlink:href="#DejaVuSans-6e" x="335.816406"/>
      <use xlink:href="#DejaVuSans-20" x="399.195312"/>
      <use xlink:href="#DejaVuSans-6f" x="430.982422"/>
      <use xlink:href="#DejaVuSans-66" x="492.164062"/>
      <use xlink:href="#DejaVuSans-20" x="527.369141"/>
      <use xlink:href="#DejaVuSans-66" x="559.15625"/>
      <use xlink:href="#DejaVuSans-75" x="594.361328"/>
      <use xlink:href="#DejaVuSans-6e" x="657.740234"/>
      <use xlink:href="#DejaVuSans-63" x="721.119141"/>
      <use xlink:href="#DejaVuSans-74" x="776.099609"/>
      <use xlink:href="#DejaVuSans-69" x="815.308594"/>
      <use xlink:href="#DejaVuSans-6f" x="843.091797"/>
      <use xlink:href="#DejaVuSans-6e" x="904.273438"/>
      <use xlink:href="#DejaVuSans-2c" x="967.652344"/>
      <use xlink:href="#DejaVuSans-74" x="999.439453"/>
      <use xlink:href="#DejaVuSans-61" x="1038.648438"/>
      <use xlink:href="#DejaVuSans-72" x="1099.927734"/>
      <use xlink:href="#DejaVuSans-67" x="1139.291016"/>
      <use xlink:href="#DejaVuSans-65" x="1202.767578"/>
      <use xlink:href="#DejaVuSans-74" x="1264.291016"/>
      <use xlink:href="#DejaVuSans-20" x="1303.5"/>
      <use xlink:href="#DejaVuSans-70" x="1335.287109"/>
      <use xlink:href="#DejaVuSans-61" x="1398.763672"/>
      <use xlink:href="#DejaVuSans-69" x="1460.042969"/>
      <use xlink:href="#DejaVuSans-72" x="1487.826172"/>
      <use xlink:href="#DejaVuSans-73" x="1528.939453"/>
     </g>
    </g>
   </g>
   <g id="line2d_33">
    <defs>
     <path id="mc8318ce97d" d="M 0 1.5 
C 0.397805 1.5 0.77937 1.341951 1.06066 1.06066 
C 1.341951 0.77937 1.5 0.397805 1.5 0 
C 1.5 -0.397805 1.341951 -0.77937 1.06066 -1.06066 
C 0.77937 -1.341951 0.397805 -1.5 0 -1.5 
C -0.397805 -1.5 -0.77937 -1.341951 -1.06066 -1.06066 
C -1.341951 -0.77937 -1.5 -0.397805 -1.5 0 
C -1.5 0.397805 -1.341951 0.77937 -1.06066 1.06066 
C -0.77937 1.341951 -0.397805 1.5 0 1.5 
z
" style="stroke: #f5deb3"/>
    </defs>
    <g>
     <use xlink:href="#mc8318ce97d" x="363.554271" y="126.074483" style="fill: #f5deb3; stroke: #f5deb3"/>
     <use xlink:href="#mc8318ce97d" x="363.554271" y="126.074483" style="fill: #f5deb3; stroke: #f5deb3"/>
    </g>
   </g>
   <g id="line2d_34">
    <defs>
     <path id="mc08cb4b91d" d="M 0 1.5 
C 0.397805 1.5 0.77937 1.341951 1.06066 1.06066 
C 1.341951 0.77937 1.5 0.397805 1.5 0 
C 1.5 -0.397805 1.341951 -0.77937 1.06066 -1.06066 
C 0.77937 -1.341951 0.397805 -1.5 0 -1.5 
C -0.397805 -1.5 -0.77937 -1.341951 -1.06066 -1.06066 
C -1.341951 -0.77937 -1.5 -0.397805 -1.5 0 
C -1.5 0.397805 -1.341951 0.77937 -1.06066 1.06066 
C -0.77937 1.341951 -0.397805 1.5 0 1.5 
z
" style="stroke: #000080"/>
    </defs>
    <g>
     <use xlink:href="#mc08cb4b91d" x="187.272744" y="245.740469" style="fill: #000080; stroke: #000080"/>
     <use xlink:href="#mc08cb4b91d" x="187.272744" y="245.740469" style="fill: #000080; stroke: #000080"/>
    </g>
   </g>
   <g id="line2d_35">
    <path d="M 14.2848 298.944 
L 14.2848 292.062786 
L 27.323974 292.062786 
L 27.323974 291.559283 
L 34.951403 291.559283 
L 34.951403 291.223614 
L 40.363149 291.223614 
L 40.363149 291.055779 
L 44.560826 291.055779 
L 44.560826 290.887945 
L 47.990577 290.887945 
L 47.990577 290.72011 
L 55.618005 290.72011 
L 55.618005 290.552276 
L 59.392932 290.552276 
L 59.392932 290.216607 
L 63.929565 290.216607 
L 63.929565 290.048772 
L 76.96874 290.048772 
L 76.96874 289.880938 
L 82.713442 289.880938 
L 82.713442 289.713103 
L 93.381595 289.713103 
L 93.381595 289.545269 
L 97.410051 289.545269 
L 97.410051 289.377434 
L 100.726138 289.377434 
L 100.726138 289.2096 
L 102.708132 289.2096 
L 102.708132 289.041766 
L 102.878374 289.041766 
L 102.878374 288.873931 
L 105.26277 288.873931 
L 105.26277 288.706097 
L 105.411479 288.706097 
L 105.411479 288.538262 
L 107.5116 288.538262 
L 107.5116 288.370428 
L 110.449226 288.370428 
L 110.449226 288.202593 
L 112.180244 288.202593 
L 112.180244 288.034759 
L 112.487797 288.034759 
L 112.487797 287.866924 
L 113.186449 287.866924 
L 113.186449 287.69909 
L 113.765312 287.69909 
L 113.765312 287.531255 
L 114.141556 287.531255 
L 114.141556 287.363421 
L 115.661605 287.363421 
L 115.661605 287.195586 
L 116.419219 287.195586 
L 116.501546 286.692083 
L 116.665126 286.692083 
L 116.665126 286.524248 
L 118.450653 286.524248 
L 118.450653 286.356414 
L 118.817362 286.356414 
L 118.817362 286.188579 
L 119.530006 286.188579 
L 119.530006 286.020745 
L 125.829577 286.020745 
L 125.829577 285.685076 
L 126.420564 285.685076 
L 126.420564 285.517241 
L 127.458055 285.517241 
L 127.458055 285.349407 
L 127.640693 285.349407 
L 127.640693 285.181572 
L 128.045258 285.181572 
L 128.045258 285.013738 
L 128.266313 285.013738 
L 128.266313 284.845903 
L 128.57149 284.845903 
L 128.57149 284.678069 
L 129.499602 284.678069 
L 129.54072 284.174566 
L 130.146945 284.174566 
L 130.146945 284.006731 
L 130.384069 284.006731 
L 130.384069 283.838897 
L 131.153565 283.838897 
L 131.228811 283.503228 
L 132.708526 283.503228 
L 132.708526 283.335393 
L 133.05244 283.335393 
L 133.05244 283.167559 
L 134.87014 283.167559 
L 134.87014 282.999724 
L 135.835047 282.999724 
L 135.864417 282.664055 
L 136.097741 282.664055 
L 136.097741 282.496221 
L 136.270855 282.496221 
L 136.270855 282.328386 
L 136.499223 282.328386 
L 136.499223 282.160552 
L 137.439996 282.160552 
L 137.439996 281.824883 
L 137.627979 281.824883 
L 137.627979 281.657048 
L 138.10291 281.657048 
L 138.206842 281.153545 
L 138.284415 281.153545 
L 138.335954 280.817876 
L 138.540708 280.817876 
L 138.540708 280.482207 
L 138.943648 280.482207 
L 138.943648 280.314372 
L 139.362521 280.314372 
L 139.459738 279.810869 
L 139.508159 279.810869 
L 139.508159 279.643034 
L 139.748412 279.643034 
L 139.843661 279.307366 
L 140.009194 279.307366 
L 140.079694 278.971697 
L 140.634374 278.971697 
L 140.634374 278.803862 
L 141.017607 278.803862 
L 141.017607 278.636028 
L 141.349389 278.636028 
L 141.349389 278.468193 
L 141.804267 278.468193 
L 141.804267 278.300359 
L 142.164612 278.300359 
L 142.164612 278.132524 
L 142.290162 278.132524 
L 142.290162 277.96469 
L 142.620923 277.96469 
L 142.620923 277.796855 
L 142.966099 277.796855 
L 142.966099 277.629021 
L 143.521169 277.629021 
L 143.618588 277.293352 
L 143.850356 277.293352 
L 143.850356 277.125517 
L 144.022326 277.125517 
L 144.022326 276.957683 
L 144.658165 276.957683 
L 144.749884 276.622014 
L 144.950106 276.622014 
L 144.950106 276.454179 
L 145.255407 276.454179 
L 145.255407 276.286345 
L 145.520737 276.286345 
L 145.520737 276.11851 
L 146.395851 276.11851 
L 146.395851 275.950676 
L 147.167799 275.950676 
L 147.167799 275.782841 
L 147.785146 275.782841 
L 147.785146 275.615007 
L 148.017294 275.615007 
L 148.017294 275.447172 
L 148.367783 275.447172 
L 148.367783 275.279338 
L 148.726679 275.279338 
L 148.815343 274.943669 
L 149.122418 274.943669 
L 149.122418 274.775834 
L 149.295664 274.775834 
L 149.367382 274.272331 
L 149.707872 274.272331 
L 149.707872 274.104497 
L 149.903682 274.104497 
L 149.903682 273.936662 
L 150.370903 273.936662 
L 150.370903 273.600993 
L 151.102962 273.600993 
L 151.102962 273.433159 
L 153.177416 273.433159 
L 153.177416 273.265324 
L 153.455939 273.265324 
L 153.455939 272.929655 
L 153.719042 272.929655 
L 153.741748 272.593986 
L 154.552285 272.593986 
L 154.552285 272.426152 
L 154.746889 272.426152 
L 154.746889 272.258317 
L 154.960781 272.258317 
L 155.035072 271.922648 
L 155.098517 271.922648 
L 155.098517 271.754814 
L 155.443693 271.754814 
L 155.443693 271.586979 
L 155.85377 271.586979 
L 155.85377 271.25131 
L 156.025382 271.25131 
L 156.025382 271.083476 
L 156.225294 271.083476 
L 156.225294 270.915641 
L 156.442771 270.915641 
L 156.442771 270.747807 
L 156.975712 270.747807 
L 157.080512 270.412138 
L 157.260166 270.412138 
L 157.260166 270.244303 
L 157.614408 270.244303 
L 157.614408 270.076469 
L 158.339064 270.076469 
L 158.392304 269.572966 
L 158.752135 269.572966 
L 158.752135 269.405131 
L 159.062507 269.405131 
L 159.062507 269.237297 
L 159.317295 269.237297 
L 159.317295 269.069462 
L 159.435025 269.069462 
L 159.435025 268.901628 
L 159.593632 268.901628 
L 159.593632 268.733793 
L 160.335271 268.733793 
L 160.343261 268.398124 
L 160.847664 268.398124 
L 160.847664 268.062455 
L 161.270586 268.062455 
L 161.293384 267.726786 
L 162.074367 267.726786 
L 162.074367 267.558952 
L 162.270058 267.558952 
L 162.270058 267.391117 
L 162.449456 267.391117 
L 162.478002 266.887614 
L 163.088387 266.887614 
L 163.088387 266.719779 
L 163.219095 266.719779 
L 163.219095 266.551945 
L 163.410077 266.551945 
L 163.410077 266.38411 
L 164.783793 266.38411 
L 164.783793 266.216276 
L 164.928329 266.216276 
L 164.928329 266.048441 
L 165.428682 266.048441 
L 165.428682 265.712772 
L 165.92201 265.712772 
L 165.981296 265.377103 
L 166.193193 265.377103 
L 166.280784 264.370097 
L 166.546881 264.370097 
L 166.627125 264.034428 
L 167.284683 264.034428 
L 167.345339 263.36309 
L 168.253455 263.36309 
L 168.253455 263.195255 
L 168.821824 263.195255 
L 168.877727 262.523917 
L 170.791599 262.523917 
L 170.791599 262.356083 
L 171.431479 262.356083 
L 171.431479 262.188248 
L 172.101681 262.188248 
L 172.101681 261.852579 
L 172.440637 261.852579 
L 172.440637 261.684745 
L 172.595363 261.684745 
L 172.595363 261.349076 
L 172.72816 261.349076 
L 172.794209 261.013407 
L 172.913335 261.013407 
L 172.913335 260.845572 
L 173.581081 260.845572 
L 173.592933 260.509903 
L 173.855707 260.509903 
L 173.855707 260.342069 
L 174.393216 260.342069 
L 174.461224 259.838566 
L 174.5365 259.838566 
L 174.5365 259.502897 
L 174.830931 259.502897 
L 174.830931 259.335062 
L 175.28398 259.335062 
L 175.28398 259.167228 
L 175.44931 259.167228 
L 175.44931 258.999393 
L 175.726373 258.999393 
L 175.726373 258.663724 
L 176.009838 258.663724 
L 176.009838 258.328055 
L 176.449252 258.328055 
L 176.489925 257.992386 
L 177.132293 257.992386 
L 177.243218 257.656717 
L 177.607251 257.656717 
L 177.607251 257.488883 
L 177.885946 257.488883 
L 177.954979 256.985379 
L 178.415971 256.985379 
L 178.470904 256.481876 
L 178.916597 256.481876 
L 178.916597 256.314041 
L 179.058907 256.314041 
L 179.058907 256.146207 
L 179.214801 256.146207 
L 179.214801 255.810538 
L 179.62622 255.810538 
L 179.62622 255.642703 
L 179.751898 255.642703 
L 179.751898 255.474869 
L 180.315571 255.474869 
L 180.414768 254.971366 
L 180.600725 254.971366 
L 180.600725 254.803531 
L 180.844051 254.803531 
L 180.844051 254.467862 
L 181.509082 254.467862 
L 181.509082 254.300028 
L 181.992867 254.300028 
L 182.068527 253.796524 
L 182.193954 253.796524 
L 182.261339 253.460855 
L 182.402808 253.460855 
L 182.402808 253.125186 
L 182.670409 253.125186 
L 182.670409 252.957352 
L 182.794322 252.957352 
L 182.895758 252.621683 
L 183.097004 252.621683 
L 183.097004 252.453848 
L 183.444086 252.453848 
L 183.444086 252.286014 
L 183.567671 252.286014 
L 183.567671 252.118179 
L 183.699682 252.118179 
L 183.699682 251.950345 
L 184.026848 251.950345 
L 184.07668 251.446841 
L 184.245576 251.446841 
L 184.245576 251.111172 
L 184.450706 251.111172 
L 184.450706 250.943338 
L 184.653623 250.943338 
L 184.653623 250.775503 
L 184.869562 250.775503 
L 184.966902 250.272 
L 185.053006 250.272 
L 185.098054 249.768497 
L 185.187826 249.768497 
L 185.187826 249.432828 
L 185.340732 249.432828 
L 185.340732 249.264993 
L 185.456703 249.264993 
L 185.559424 248.929324 
L 185.674059 248.929324 
L 185.674059 248.593655 
L 185.927925 248.593655 
L 185.927925 248.425821 
L 186.137907 248.425821 
L 186.137907 248.090152 
L 186.327517 248.090152 
L 186.347576 247.754483 
L 186.620255 247.754483 
L 186.689288 247.250979 
L 186.844181 247.250979 
L 186.844181 247.083145 
L 186.976493 247.083145 
L 187.082834 246.243972 
L 187.155956 246.243972 
L 187.155956 246.076138 
L 187.272744 246.076138 
L 187.272744 245.740469 
L 360.8064 245.740469 
L 360.8064 245.740469 
" style="fill: none; stroke: #000080; stroke-width: 1.5; stroke-linecap: square"/>
   </g>
   <g id="line2d_36">
    <defs>
     <path id="m999fd39009" d="M 0 6 
C 1.591219 6 3.117479 5.367802 4.242641 4.242641 
C 5.367802 3.117479 6 1.591219 6 0 
C 6 -1.591219 5.367802 -3.117479 4.242641 -4.242641 
C 3.117479 -5.367802 1.591219 -6 0 -6 
C -1.591219 -6 -3.117479 -5.367802 -4.242641 -4.242641 
C -5.367802 -3.117479 -6 -1.591219 -6 0 
C -6 1.591219 -5.367802 3.117479 -4.242641 4.242641 
C -3.117479 5.367802 -1.591219 6 0 6 
z
" style="stroke: #000080; stroke-width: 1.5"/>
    </defs>
    <g>
     <use xlink:href="#m999fd39009" x="82.713442" y="289.880938" style="fill-opacity: 0; stroke: #000080; stroke-width: 1.5"/>
     <use xlink:href="#m999fd39009" x="170.791599" y="262.356083" style="fill-opacity: 0; stroke: #000080; stroke-width: 1.5"/>
     <use xlink:href="#m999fd39009" x="187.272744" y="246.076138" style="fill-opacity: 0; stroke: #000080; stroke-width: 1.5"/>
     <use xlink:href="#m999fd39009" x="187.272744" y="245.740469" style="fill-opacity: 0; stroke: #000080; stroke-width: 1.5"/>
     <use xlink:href="#m999fd39009" x="187.272744" y="245.740469" style="fill-opacity: 0; stroke: #000080; stroke-width: 1.5"/>
     <use xlink:href="#m999fd39009" x="360.8064" y="245.740469" style="fill-opacity: 0; stroke: #000080; stroke-width: 1.5"/>
    </g>
   </g>
   <g id="line2d_37">
    <path style="fill: none; stroke: #000080; stroke-width: 1.5; stroke-linecap: square"/>
    <g/>
   </g>
   <g id="line2d_38">
    <path d="M 187.562523 245.740469 
" clip-path="url(#p95d1b3b7d4)" style="fill: none; stroke: #000080; stroke-width: 1.5; stroke-linecap: square"/>
    <defs>
     <path id="m7a6e1819d2" d="M -12 12 
L 12 -12 
M -12 -12 
L 12 12 
" style="stroke: #000080"/>
    </defs>
    <g clip-path="url(#p95d1b3b7d4)">
     <use xlink:href="#m7a6e1819d2" x="187.562523" y="245.740469" style="fill: #000080; stroke: #000080"/>
    </g>
   </g>
   <g id="line2d_39">
    <defs>
     <path id="mac84fe2c50" d="M 0 1.5 
C 0.397805 1.5 0.77937 1.341951 1.06066 1.06066 
C 1.341951 0.77937 1.5 0.397805 1.5 0 
C 1.5 -0.397805 1.341951 -0.77937 1.06066 -1.06066 
C 0.77937 -1.341951 0.397805 -1.5 0 -1.5 
C -0.397805 -1.5 -0.77937 -1.341951 -1.06066 -1.06066 
C -1.341951 -0.77937 -1.5 -0.397805 -1.5 0 
C -1.5 0.397805 -1.341951 0.77937 -1.06066 1.06066 
C -0.77937 1.341951 -0.397805 1.5 0 1.5 
z
" style="stroke: #ff00ff"/>
    </defs>
    <g>
     <use xlink:href="#mac84fe2c50" x="187.299446" y="246.243972" style="fill: #ff00ff; stroke: #ff00ff"/>
     <use xlink:href="#mac84fe2c50" x="187.299446" y="246.243972" style="fill: #ff00ff; stroke: #ff00ff"/>
    </g>
   </g>
   <g id="line2d_40">
    <path d="M 14.2848 298.944 
L 14.2848 292.062786 
L 27.323974 292.062786 
L 27.323974 291.559283 
L 34.951403 291.559283 
L 34.951403 291.391448 
L 40.363149 291.391448 
L 40.363149 291.223614 
L 44.560826 291.223614 
L 44.560826 291.055779 
L 47.990577 291.055779 
L 47.990577 290.887945 
L 50.890391 290.887945 
L 50.890391 290.72011 
L 53.402323 290.72011 
L 53.402323 290.384441 
L 59.392932 290.384441 
L 59.392932 290.216607 
L 71.556993 290.216607 
L 71.556993 290.048772 
L 72.432107 290.048772 
L 72.432107 289.880938 
L 74.836851 289.880938 
L 74.836851 289.713103 
L 75.574654 289.713103 
L 75.574654 289.545269 
L 78.88343 289.545269 
L 78.88343 289.377434 
L 90.340871 289.377434 
L 90.340871 289.2096 
L 91.305777 289.2096 
L 91.305777 288.873931 
L 91.616719 288.873931 
L 91.616719 288.706097 
L 91.922605 288.706097 
L 91.922605 288.538262 
L 95.752617 288.538262 
L 95.752617 288.370428 
L 95.998523 288.370428 
L 95.998523 288.202593 
L 97.857967 288.202593 
L 97.857967 288.034759 
L 100.342215 288.034759 
L 100.342215 287.866924 
L 100.535156 287.866924 
L 100.535156 287.69909 
L 105.850679 287.69909 
L 105.850679 287.531255 
L 106.974091 287.531255 
L 106.974091 287.363421 
L 107.244765 287.363421 
L 107.244765 287.195586 
L 108.791791 287.195586 
L 108.791791 287.027752 
L 110.897141 287.027752 
L 110.897141 286.859917 
L 111.54963 286.859917 
L 111.54963 286.692083 
L 111.86758 286.692083 
L 111.97238 286.356414 
L 112.385837 286.356414 
L 112.385837 286.188579 
L 114.326893 286.188579 
L 114.326893 286.020745 
L 116.170056 286.020745 
L 116.170056 285.85291 
L 116.336531 285.85291 
L 116.336531 285.685076 
L 116.501546 285.685076 
L 116.501546 285.517241 
L 118.962067 285.517241 
L 118.962067 285.181572 
L 119.319033 285.181572 
L 119.319033 285.013738 
L 119.599808 285.013738 
L 119.599808 284.845903 
L 119.944983 284.845903 
L 119.944983 284.678069 
L 120.550775 284.678069 
L 120.550775 284.510234 
L 121.201758 284.510234 
L 121.201758 284.3424 
L 121.39274 284.3424 
L 121.39274 284.174566 
L 121.581803 284.174566 
L 121.581803 284.006731 
L 123.260379 284.006731 
L 123.260379 283.838897 
L 123.601383 283.838897 
L 123.601383 283.671062 
L 123.713691 283.671062 
L 123.713691 283.503228 
L 124.156336 283.503228 
L 124.156336 283.335393 
L 124.801367 283.335393 
L 124.801367 283.167559 
L 124.959227 283.167559 
L 124.959227 282.999724 
L 125.425011 282.999724 
L 125.425011 282.83189 
L 127.134109 282.83189 
L 127.134109 282.664055 
L 127.366067 282.664055 
L 127.458055 282.328386 
L 128.266313 282.328386 
L 128.354013 281.824883 
L 129.125437 281.824883 
L 129.167381 281.489214 
L 129.54072 281.489214 
L 129.54072 281.321379 
L 129.78556 281.321379 
L 129.78556 281.153545 
L 130.344755 281.153545 
L 130.344755 280.98571 
L 130.887807 280.98571 
L 130.887807 280.817876 
L 131.040128 280.817876 
L 131.040128 280.650041 
L 131.892817 280.650041 
L 131.892817 280.482207 
L 132.287354 280.482207 
L 132.287354 280.314372 
L 132.638982 280.314372 
L 132.638982 280.146538 
L 133.490329 280.146538 
L 133.490329 279.978703 
L 134.526683 279.978703 
L 134.620977 279.4752 
L 134.652304 279.4752 
L 134.652304 279.307366 
L 135.805631 279.307366 
L 135.805631 279.139531 
L 135.952253 279.139531 
L 135.952253 278.971697 
L 136.068734 278.971697 
L 136.068734 278.803862 
L 136.242113 278.803862 
L 136.242113 278.636028 
L 136.356818 278.636028 
L 136.356818 278.468193 
L 136.555884 278.468193 
L 136.584151 277.96469 
L 136.696795 277.96469 
L 136.696795 277.796855 
L 137.761112 277.796855 
L 137.866944 277.461186 
L 138.050729 277.461186 
L 138.050729 277.293352 
L 138.768422 277.293352 
L 138.868751 276.789848 
L 138.89375 276.789848 
L 138.89375 276.286345 
L 139.435481 276.286345 
L 139.435481 276.11851 
L 139.77227 276.11851 
L 139.796097 275.782841 
L 140.905699 275.782841 
L 140.905699 275.615007 
L 141.062184 275.615007 
L 141.062184 275.447172 
L 141.217377 275.447172 
L 141.261484 274.943669 
L 141.84702 274.943669 
L 141.84702 274.775834 
L 142.394151 274.775834 
L 142.394151 274.608 
L 142.641404 274.608 
L 142.641404 274.440166 
L 142.784148 274.440166 
L 142.784148 274.272331 
L 143.926981 274.272331 
L 143.926981 274.104497 
L 144.192739 274.104497 
L 144.192739 273.768828 
L 145.076419 273.768828 
L 145.076419 273.600993 
L 145.90324 273.600993 
L 145.90324 273.433159 
L 147.1517 273.433159 
L 147.1517 273.265324 
L 147.391749 273.265324 
L 147.502732 272.929655 
L 147.909315 272.929655 
L 147.971093 272.426152 
L 148.397954 272.426152 
L 148.488177 272.090483 
L 148.726679 272.090483 
L 148.815343 271.754814 
L 149.107908 271.754814 
L 149.107908 271.586979 
L 151.375128 271.586979 
L 151.375128 271.25131 
L 151.50336 271.25131 
L 151.50336 271.083476 
L 151.656094 271.083476 
L 151.656094 270.915641 
L 151.870365 270.915641 
L 151.870365 270.747807 
L 152.007722 270.747807 
L 152.020159 270.244303 
L 152.619733 270.244303 
L 152.679853 269.7408 
L 153.707679 269.7408 
L 153.707679 269.572966 
L 154.190197 269.572966 
L 154.190197 269.405131 
L 154.421422 269.405131 
L 154.421422 269.237297 
L 154.907535 269.237297 
L 154.907535 269.069462 
L 155.045661 269.069462 
L 155.109071 268.565959 
L 155.660098 268.565959 
L 155.660098 268.398124 
L 155.874041 268.398124 
L 155.874041 268.23029 
L 156.304668 268.23029 
L 156.304668 268.062455 
L 156.657763 268.062455 
L 156.657763 267.894621 
L 157.213055 267.894621 
L 157.213055 267.726786 
L 157.586683 267.726786 
L 157.586683 267.391117 
L 158.0976 267.391117 
L 158.1605 267.055448 
L 158.471883 267.055448 
L 158.471883 266.719779 
L 158.647529 266.719779 
L 158.647529 266.551945 
L 159.384659 266.551945 
L 159.384659 266.38411 
L 160.271232 266.38411 
L 160.271232 266.216276 
L 161.064158 266.216276 
L 161.064158 266.048441 
L 161.217285 266.048441 
L 161.224909 265.544938 
L 161.354042 265.544938 
L 161.354042 265.377103 
L 161.994053 265.377103 
L 161.994053 265.209269 
L 162.147083 265.209269 
L 162.147083 265.041434 
L 162.442313 265.041434 
L 162.442313 264.8736 
L 162.8032 264.8736 
L 162.8032 264.370097 
L 165.071763 264.370097 
L 165.071763 264.202262 
L 166.50663 264.202262 
L 166.50663 263.866593 
L 166.758217 263.866593 
L 166.758217 263.530924 
L 166.888401 263.530924 
L 166.888401 263.36309 
L 167.629457 263.36309 
L 167.629457 263.195255 
L 168.05305 263.195255 
L 168.05305 262.859586 
L 168.295375 262.859586 
L 168.295375 262.523917 
L 168.62227 262.523917 
L 168.62227 262.356083 
L 168.852337 262.356083 
L 168.852337 262.020414 
L 169.628797 262.020414 
L 169.628797 261.852579 
L 170.00055 261.852579 
L 170.00055 261.684745 
L 170.383845 261.684745 
L 170.383845 261.51691 
L 170.6582 261.51691 
L 170.718116 261.013407 
L 170.823658 261.013407 
L 170.883051 260.677738 
L 171.298095 260.677738 
L 171.298095 260.509903 
L 172.53279 260.509903 
L 172.53279 260.342069 
L 172.674324 260.342069 
L 172.674324 260.174234 
L 173.072359 260.174234 
L 173.072359 260.0064 
L 173.234075 260.0064 
L 173.234075 259.838566 
L 174.134058 259.838566 
L 174.134058 259.670731 
L 174.566526 259.670731 
L 174.566526 259.502897 
L 175.171736 259.502897 
L 175.171736 259.335062 
L 175.388379 259.335062 
L 175.388379 259.167228 
L 175.733424 259.167228 
L 175.733424 258.999393 
L 175.943728 258.999393 
L 175.943728 258.663724 
L 177.007539 258.663724 
L 177.007539 258.328055 
L 177.311405 258.328055 
L 177.324365 257.656717 
L 177.437387 257.656717 
L 177.437387 257.488883 
L 177.76927 257.488883 
L 177.778757 256.817545 
L 177.898516 256.817545 
L 177.898516 256.64971 
L 178.562105 256.64971 
L 178.562105 256.314041 
L 179.689164 256.314041 
L 179.689164 256.146207 
L 179.81726 256.146207 
L 179.81726 255.810538 
L 179.961389 255.810538 
L 180.01761 255.474869 
L 180.33766 255.474869 
L 180.359723 255.1392 
L 180.641498 255.1392 
L 180.641498 254.971366 
L 180.771383 254.971366 
L 180.873576 254.300028 
L 180.940507 254.300028 
L 180.943179 253.62869 
L 181.078965 253.62869 
L 181.121363 253.125186 
L 181.607355 253.125186 
L 181.694851 252.453848 
L 181.860998 252.453848 
L 181.860998 252.286014 
L 182.518663 252.286014 
L 182.579998 251.950345 
L 183.135094 251.950345 
L 183.135094 251.78251 
L 183.347923 251.78251 
L 183.404274 251.446841 
L 183.502482 251.446841 
L 183.502482 251.111172 
L 184.166946 251.111172 
L 184.267981 250.775503 
L 184.319413 250.775503 
L 184.410747 250.272 
L 184.432957 250.272 
L 184.475083 249.768497 
L 184.717135 249.768497 
L 184.81744 249.432828 
L 185.26231 249.432828 
L 185.26231 249.264993 
L 185.42304 249.264993 
L 185.444086 248.76149 
L 185.649108 248.76149 
L 185.746647 248.090152 
L 185.77147 248.090152 
L 185.845742 247.754483 
L 185.98524 247.754483 
L 186.095285 247.250979 
L 186.395631 247.250979 
L 186.395631 247.083145 
L 186.517221 247.083145 
L 186.517221 246.91531 
L 187.121354 246.91531 
L 187.209654 246.411807 
L 187.299446 246.411807 
L 187.299446 246.243972 
L 360.8064 246.243972 
L 360.8064 246.243972 
" style="fill: none; stroke: #ff00ff; stroke-width: 1.5; stroke-linecap: square"/>
   </g>
   <g id="line2d_41">
    <defs>
     <path id="mef6305045b" d="M -0 8.485281 
L 5.091169 0 
L 0 -8.485281 
L -5.091169 -0 
z
" style="stroke: #ff00ff; stroke-width: 1.5; stroke-linejoin: miter"/>
    </defs>
    <g>
     <use xlink:href="#mef6305045b" x="71.556993" y="290.216607" style="fill-opacity: 0; stroke: #ff00ff; stroke-width: 1.5; stroke-linejoin: miter"/>
     <use xlink:href="#mef6305045b" x="154.421422" y="269.237297" style="fill-opacity: 0; stroke: #ff00ff; stroke-width: 1.5; stroke-linejoin: miter"/>
     <use xlink:href="#mef6305045b" x="187.299446" y="246.411807" style="fill-opacity: 0; stroke: #ff00ff; stroke-width: 1.5; stroke-linejoin: miter"/>
     <use xlink:href="#mef6305045b" x="187.299446" y="246.243972" style="fill-opacity: 0; stroke: #ff00ff; stroke-width: 1.5; stroke-linejoin: miter"/>
     <use xlink:href="#mef6305045b" x="187.299446" y="246.243972" style="fill-opacity: 0; stroke: #ff00ff; stroke-width: 1.5; stroke-linejoin: miter"/>
     <use xlink:href="#mef6305045b" x="360.8064" y="246.243972" style="fill-opacity: 0; stroke: #ff00ff; stroke-width: 1.5; stroke-linejoin: miter"/>
    </g>
   </g>
   <g id="line2d_42">
    <path style="fill: none; stroke: #ff00ff; stroke-width: 1.5; stroke-linecap: square"/>
    <g/>
   </g>
   <g id="line2d_43">
    <path d="M 187.556884 246.243972 
" clip-path="url(#p95d1b3b7d4)" style="fill: none; stroke: #ff00ff; stroke-width: 1.5; stroke-linecap: square"/>
    <defs>
     <path id="m891a2d2697" d="M -12 12 
L 12 -12 
M -12 -12 
L 12 12 
" style="stroke: #ff00ff"/>
    </defs>
    <g clip-path="url(#p95d1b3b7d4)">
     <use xlink:href="#m891a2d2697" x="187.556884" y="246.243972" style="fill: #ff00ff; stroke: #ff00ff"/>
    </g>
   </g>
   <g id="line2d_44">
    <defs>
     <path id="macccffff90" d="M 0 1.5 
C 0.397805 1.5 0.77937 1.341951 1.06066 1.06066 
C 1.341951 0.77937 1.5 0.397805 1.5 0 
C 1.5 -0.397805 1.341951 -0.77937 1.06066 -1.06066 
C 0.77937 -1.341951 0.397805 -1.5 0 -1.5 
C -0.397805 -1.5 -0.77937 -1.341951 -1.06066 -1.06066 
C -1.341951 -0.77937 -1.5 -0.397805 -1.5 0 
C -1.5 0.397805 -1.341951 0.77937 -1.06066 1.06066 
C -0.77937 1.341951 -0.397805 1.5 0 1.5 
z
" style="stroke: #ff7500"/>
    </defs>
    <g>
     <use xlink:href="#macccffff90" x="211.583338" y="233.488552" style="fill: #ff7500; stroke: #ff7500"/>
     <use xlink:href="#macccffff90" x="211.583338" y="233.488552" style="fill: #ff7500; stroke: #ff7500"/>
    </g>
   </g>
   <g id="line2d_45">
    <path d="M 14.2848 298.944 
L 14.2848 292.062786 
L 34.951403 292.062786 
L 34.951403 291.055779 
L 40.363149 291.055779 
L 40.363149 290.887945 
L 47.990577 290.887945 
L 47.990577 290.72011 
L 50.890391 290.72011 
L 50.890391 290.552276 
L 55.618005 290.552276 
L 55.618005 290.216607 
L 57.6 290.216607 
L 57.6 290.048772 
L 59.392932 290.048772 
L 59.392932 289.880938 
L 72.432107 289.880938 
L 72.432107 289.713103 
L 76.284608 289.713103 
L 76.284608 289.377434 
L 80.059535 289.377434 
L 80.059535 288.706097 
L 81.696354 288.706097 
L 81.696354 288.538262 
L 91.305777 288.538262 
L 91.305777 288.370428 
L 94.472426 288.370428 
L 94.472426 288.202593 
L 94.735529 288.202593 
L 94.735529 288.034759 
L 98.510456 288.034759 
L 98.510456 287.866924 
L 98.933205 287.866924 
L 98.933205 287.69909 
L 100.726138 287.69909 
L 100.726138 287.363421 
L 102.536336 287.363421 
L 102.536336 287.195586 
L 106.137884 287.195586 
L 106.137884 287.027752 
L 107.643612 287.027752 
L 107.643612 286.859917 
L 110.335561 286.859917 
L 110.335561 286.524248 
L 112.690074 286.524248 
L 112.690074 286.356414 
L 113.765312 286.356414 
L 113.765312 286.188579 
L 114.7824 286.188579 
L 114.7824 286.020745 
L 115.747307 286.020745 
L 115.747307 285.85291 
L 115.917548 285.85291 
L 115.917548 285.685076 
L 116.665126 285.685076 
L 116.746385 285.349407 
L 116.988079 285.349407 
L 116.988079 285.181572 
L 117.540239 285.181572 
L 117.540239 285.013738 
L 119.177058 285.013738 
L 119.177058 284.678069 
L 119.944983 284.678069 
L 119.944983 284.3424 
L 120.682786 284.3424 
L 120.682786 283.838897 
L 121.201758 283.838897 
L 121.265635 283.503228 
L 121.768984 283.503228 
L 121.768984 283.335393 
L 121.892744 283.335393 
L 121.892744 283.167559 
L 123.374735 283.167559 
L 123.374735 282.999724 
L 125.779479 282.999724 
L 125.779479 282.83189 
L 126.804487 282.83189 
L 126.804487 282.664055 
L 127.319904 282.664055 
L 127.319904 282.496221 
L 127.821575 282.496221 
L 127.821575 282.160552 
L 128.045258 282.160552 
L 128.045258 281.992717 
L 128.310214 281.992717 
L 128.310214 281.824883 
L 128.57149 281.824883 
L 128.57149 281.657048 
L 128.786481 281.657048 
L 128.829186 281.321379 
L 129.7043 281.321379 
L 129.744974 280.817876 
L 130.186674 280.817876 
L 130.186674 280.650041 
L 132.216233 280.650041 
L 132.216233 280.482207 
L 132.604114 280.482207 
L 132.604114 280.314372 
L 132.846847 280.314372 
L 132.846847 280.146538 
L 133.154399 280.146538 
L 133.154399 279.978703 
L 133.623039 279.978703 
L 133.72196 279.643034 
L 134.080287 279.643034 
L 134.080287 279.4752 
L 135.478982 279.4752 
L 135.478982 279.307366 
L 136.724851 279.307366 
L 136.724851 279.139531 
L 137.030737 279.139531 
L 137.030737 278.971697 
L 137.331728 278.971697 
L 137.331728 278.803862 
L 138.36167 278.803862 
L 138.36167 278.636028 
L 138.489728 278.636028 
L 138.515235 278.300359 
L 138.642255 278.300359 
L 138.642255 278.132524 
L 139.191172 278.132524 
L 139.191172 277.96469 
L 139.483965 277.96469 
L 139.483965 277.796855 
L 141.804267 277.796855 
L 141.825656 277.461186 
L 142.059343 277.461186 
L 142.101521 277.125517 
L 142.966099 277.125517 
L 142.966099 276.957683 
L 143.10641 276.957683 
L 143.10641 276.789848 
L 143.403597 276.789848 
L 143.403597 276.622014 
L 143.869541 276.622014 
L 143.869541 276.454179 
L 144.28675 276.454179 
L 144.28675 276.286345 
L 144.510478 276.286345 
L 144.510478 276.11851 
L 145.255407 276.11851 
L 145.255407 275.950676 
L 146.125662 275.950676 
L 146.210514 275.615007 
L 146.379077 275.615007 
L 146.395851 275.279338 
L 146.941151 275.279338 
L 146.957431 274.943669 
L 147.119461 274.943669 
L 147.119461 274.775834 
L 147.439393 274.775834 
L 147.439393 274.608 
L 147.644469 274.608 
L 147.644469 274.440166 
L 148.276979 274.440166 
L 148.276979 274.272331 
L 148.815343 274.272331 
L 148.815343 274.104497 
L 149.035192 274.104497 
L 149.035192 273.936662 
L 149.764026 273.936662 
L 149.764026 273.600993 
L 150.097474 273.600993 
L 150.097474 273.433159 
L 150.72052 273.433159 
L 150.72052 273.265324 
L 150.958812 273.265324 
L 150.958812 273.09749 
L 152.218047 273.09749 
L 152.218047 272.929655 
L 153.398253 272.929655 
L 153.398253 272.761821 
L 153.52493 272.761821 
L 153.52493 272.426152 
L 154.267588 272.426152 
L 154.267588 272.258317 
L 154.388563 272.258317 
L 154.388563 272.090483 
L 154.768388 272.090483 
L 154.768388 271.922648 
L 154.960781 271.922648 
L 154.960781 271.754814 
L 155.329337 271.754814 
L 155.329337 271.586979 
L 155.670341 271.586979 
L 155.670341 271.419145 
L 155.894291 271.419145 
L 155.894291 271.083476 
L 156.735336 271.083476 
L 156.802952 270.579972 
L 156.966156 270.579972 
L 157.071009 270.076469 
L 157.241336 270.076469 
L 157.241336 269.7408 
L 157.651312 269.7408 
L 157.651312 269.572966 
L 157.898535 269.572966 
L 157.898535 269.405131 
L 158.016419 269.405131 
L 158.016419 269.237297 
L 158.778196 269.237297 
L 158.778196 269.069462 
L 159.418251 269.069462 
L 159.418251 268.901628 
L 159.618554 268.901628 
L 159.618554 268.733793 
L 160.231096 268.733793 
L 160.231096 268.565959 
L 160.785349 268.565959 
L 160.785349 268.398124 
L 160.92527 268.398124 
L 160.956223 268.062455 
L 161.758446 268.062455 
L 161.758446 267.894621 
L 162.205054 267.894621 
L 162.205054 267.726786 
L 162.613005 267.726786 
L 162.613005 267.558952 
L 162.894094 267.558952 
L 162.894094 267.391117 
L 163.443978 267.391117 
L 163.491337 266.887614 
L 164.497753 266.887614 
L 164.497753 266.719779 
L 165.090391 266.719779 
L 165.189432 266.048441 
L 165.287954 266.048441 
L 165.287954 265.712772 
L 165.404283 265.712772 
L 165.51383 265.209269 
L 165.850619 265.209269 
L 165.92201 264.705766 
L 166.181484 264.705766 
L 166.181484 264.537931 
L 166.523891 264.537931 
L 166.523891 264.370097 
L 166.792265 264.370097 
L 166.792265 264.034428 
L 166.91095 264.034428 
L 166.933472 263.530924 
L 167.786064 263.530924 
L 167.786064 263.195255 
L 168.311071 263.195255 
L 168.394562 262.691752 
L 168.446557 262.691752 
L 168.446557 262.523917 
L 169.099695 262.523917 
L 169.099695 262.188248 
L 169.560409 262.188248 
L 169.560409 262.020414 
L 169.803519 262.020414 
L 169.803519 261.852579 
L 169.928705 261.852579 
L 169.928705 261.684745 
L 170.901288 261.684745 
L 170.901288 261.51691 
L 171.921254 261.51691 
L 171.921254 261.349076 
L 172.054594 261.349076 
L 172.054594 261.181241 
L 172.267686 261.181241 
L 172.267686 261.013407 
L 172.490958 261.013407 
L 172.490958 260.845572 
L 172.641118 260.845572 
L 172.641118 260.677738 
L 172.995054 260.677738 
L 172.995054 260.509903 
L 173.592933 260.509903 
L 173.592933 260.174234 
L 174.003127 260.174234 
L 174.003127 260.0064 
L 174.267894 260.0064 
L 174.294547 259.335062 
L 174.566526 259.335062 
L 174.566526 259.167228 
L 175.10261 259.167228 
L 175.19714 258.663724 
L 175.215265 258.663724 
L 175.215265 258.49589 
L 175.570583 258.49589 
L 175.648639 258.160221 
L 175.698143 258.160221 
L 175.803787 257.656717 
L 175.863389 257.656717 
L 175.863389 257.488883 
L 176.73548 257.488883 
L 176.73548 257.321048 
L 177.217177 257.321048 
L 177.217177 257.153214 
L 177.45026 257.153214 
L 177.45026 256.817545 
L 177.620009 256.817545 
L 177.620009 256.64971 
L 177.967504 256.64971 
L 178.026881 256.314041 
L 178.110937 256.314041 
L 178.110937 256.146207 
L 178.228607 256.146207 
L 178.296396 255.642703 
L 179.311218 255.642703 
L 179.311218 255.307034 
L 179.473713 255.307034 
L 179.473713 254.971366 
L 179.854104 254.971366 
L 179.854104 254.803531 
L 180.307281 254.803531 
L 180.318334 254.300028 
L 180.619764 254.300028 
L 180.619764 254.132193 
L 180.795637 254.132193 
L 180.868211 253.796524 
L 181.56604 253.796524 
L 181.56604 253.460855 
L 181.710249 253.460855 
L 181.815135 253.125186 
L 182.020644 253.125186 
L 182.020644 252.957352 
L 182.494073 252.957352 
L 182.584897 252.453848 
L 182.842693 252.453848 
L 182.842693 252.286014 
L 183.008625 252.286014 
L 183.008625 252.118179 
L 183.18497 252.118179 
L 183.18497 251.950345 
L 183.371423 251.950345 
L 183.371423 251.78251 
L 183.646526 251.78251 
L 183.646526 251.614676 
L 183.775688 251.614676 
L 183.775688 251.446841 
L 183.983705 251.446841 
L 183.983705 251.279007 
L 184.44627 251.279007 
L 184.528161 250.943338 
L 184.592097 250.943338 
L 184.640456 250.272 
L 184.897734 250.272 
L 184.910723 249.936331 
L 185.046562 249.936331 
L 185.153678 249.600662 
L 185.234679 249.600662 
L 185.234679 249.432828 
L 185.619955 249.432828 
L 185.723864 248.76149 
L 185.742507 248.76149 
L 185.742507 248.593655 
L 185.856035 248.593655 
L 185.856035 248.257986 
L 185.99137 248.257986 
L 185.99137 248.090152 
L 186.263183 248.090152 
L 186.347576 247.250979 
L 186.395631 247.250979 
L 186.395631 247.083145 
L 186.523181 247.083145 
L 186.523181 246.91531 
L 186.689288 246.91531 
L 186.718797 246.579641 
L 187.10403 246.579641 
L 187.10403 246.411807 
L 187.432391 246.411807 
L 187.453197 246.076138 
L 187.72533 246.076138 
L 187.729056 245.572634 
L 188.107125 245.572634 
L 188.189109 245.236966 
L 188.570607 245.236966 
L 188.584853 244.901297 
L 189.015987 244.901297 
L 189.104504 244.565628 
L 189.357335 244.565628 
L 189.357335 244.397793 
L 189.486729 244.397793 
L 189.503689 243.89429 
L 189.648914 243.89429 
L 189.739531 243.558621 
L 189.932728 243.558621 
L 189.949291 243.222952 
L 190.207426 243.222952 
L 190.207426 243.055117 
L 190.962806 243.055117 
L 190.962806 242.719448 
L 191.182699 242.719448 
L 191.182699 242.551614 
L 191.315567 242.551614 
L 191.380117 242.04811 
L 191.640662 242.04811 
L 191.687512 241.376772 
L 191.753808 241.376772 
L 191.780862 240.873269 
L 191.931948 240.873269 
L 191.931948 240.705434 
L 192.262761 240.705434 
L 192.262761 240.5376 
L 192.441968 240.5376 
L 192.441968 240.201931 
L 193.156165 240.201931 
L 193.156165 239.866262 
L 193.586761 239.866262 
L 193.586761 239.530593 
L 193.715939 239.530593 
L 193.715939 239.362759 
L 193.946246 239.362759 
L 194.031723 238.691421 
L 194.096904 238.691421 
L 194.096904 238.523586 
L 194.280588 238.523586 
L 194.280588 238.187917 
L 194.437734 238.187917 
L 194.535287 237.348745 
L 194.773779 237.348745 
L 194.773779 237.013076 
L 194.896355 237.013076 
L 194.982699 236.509572 
L 195.383787 236.509572 
L 195.383787 236.173903 
L 195.708365 236.173903 
L 195.708365 236.006069 
L 195.91927 236.006069 
L 195.91927 235.6704 
L 196.126644 235.6704 
L 196.126644 235.334731 
L 196.681071 235.334731 
L 196.713453 234.999062 
L 197.055813 234.999062 
L 197.055813 234.831228 
L 197.260074 234.831228 
L 197.260074 234.495559 
L 198.835434 234.495559 
L 198.835434 234.327724 
L 201.4173 234.327724 
L 201.4173 234.15989 
L 201.969721 234.15989 
L 201.969721 233.824221 
L 202.391383 233.824221 
L 202.391383 233.656386 
L 211.583338 233.656386 
L 211.583338 233.488552 
L 360.8064 233.488552 
L 360.8064 233.488552 
" style="fill: none; stroke: #ff7500; stroke-width: 1.5; stroke-linecap: square"/>
   </g>
   <g id="line2d_46">
    <defs>
     <path id="m18dcf166d1" d="M 0 -6 
L -1.347084 -1.854102 
L -5.706339 -1.854102 
L -2.179628 0.708204 
L -3.526712 4.854102 
L -0 2.291796 
L 3.526712 4.854102 
L 2.179628 0.708204 
L 5.706339 -1.854102 
L 1.347084 -1.854102 
z
" style="stroke: #ff7500; stroke-width: 1.5; stroke-linejoin: bevel"/>
    </defs>
    <g>
     <use xlink:href="#m18dcf166d1" x="110.335561" y="286.859917" style="fill-opacity: 0; stroke: #ff7500; stroke-width: 1.5; stroke-linejoin: bevel"/>
     <use xlink:href="#m18dcf166d1" x="183.371423" y="251.950345" style="fill-opacity: 0; stroke: #ff7500; stroke-width: 1.5; stroke-linejoin: bevel"/>
     <use xlink:href="#m18dcf166d1" x="211.583338" y="233.656386" style="fill-opacity: 0; stroke: #ff7500; stroke-width: 1.5; stroke-linejoin: bevel"/>
     <use xlink:href="#m18dcf166d1" x="211.583338" y="233.488552" style="fill-opacity: 0; stroke: #ff7500; stroke-width: 1.5; stroke-linejoin: bevel"/>
     <use xlink:href="#m18dcf166d1" x="211.583338" y="233.488552" style="fill-opacity: 0; stroke: #ff7500; stroke-width: 1.5; stroke-linejoin: bevel"/>
     <use xlink:href="#m18dcf166d1" x="360.8064" y="233.488552" style="fill-opacity: 0; stroke: #ff7500; stroke-width: 1.5; stroke-linejoin: bevel"/>
    </g>
   </g>
   <g id="line2d_47">
    <path style="fill: none; stroke: #ff7500; stroke-width: 1.5; stroke-linecap: square"/>
    <g/>
   </g>
   <g id="line2d_48">
    <path d="M 274.176188 233.488552 
" clip-path="url(#p95d1b3b7d4)" style="fill: none; stroke: #ff7500; stroke-width: 1.5; stroke-linecap: square"/>
    <defs>
     <path id="m84ed2c55e1" d="M -12 12 
L 12 -12 
M -12 -12 
L 12 12 
" style="stroke: #ff7500"/>
    </defs>
    <g clip-path="url(#p95d1b3b7d4)">
     <use xlink:href="#m84ed2c55e1" x="274.176188" y="233.488552" style="fill: #ff7500; stroke: #ff7500"/>
    </g>
   </g>
   <g id="line2d_49">
    <path d="M 360.8064 246.243972 
L 380.514816 293.10336 
" style="fill: none; stroke: #ff00ff; stroke-width: 1.5; stroke-linecap: square"/>
    <g>
     <use xlink:href="#mef6305045b" x="360.8064" y="246.243972" style="fill-opacity: 0; stroke: #ff00ff; stroke-width: 1.5; stroke-linejoin: miter"/>
     <use xlink:href="#mef6305045b" x="380.514816" y="293.10336" style="fill-opacity: 0; stroke: #ff00ff; stroke-width: 1.5; stroke-linejoin: miter"/>
    </g>
   </g>
   <g id="line2d_50">
    <path d="M 360.8064 245.740469 
L 380.514816 199.65312 
" style="fill: none; stroke: #000080; stroke-width: 1.5; stroke-linecap: square"/>
    <g>
     <use xlink:href="#m999fd39009" x="360.8064" y="245.740469" style="fill-opacity: 0; stroke: #000080; stroke-width: 1.5"/>
     <use xlink:href="#m999fd39009" x="380.514816" y="199.65312" style="fill-opacity: 0; stroke: #000080; stroke-width: 1.5"/>
    </g>
   </g>
   <g id="line2d_51">
    <path d="M 360.8064 233.488552 
L 380.514816 106.20288 
" style="fill: none; stroke: #ff7500; stroke-width: 1.5; stroke-linecap: square"/>
    <g>
     <use xlink:href="#m18dcf166d1" x="360.8064" y="233.488552" style="fill-opacity: 0; stroke: #ff7500; stroke-width: 1.5; stroke-linejoin: bevel"/>
     <use xlink:href="#m18dcf166d1" x="380.514816" y="106.20288" style="fill-opacity: 0; stroke: #ff7500; stroke-width: 1.5; stroke-linejoin: bevel"/>
    </g>
   </g>
   <g id="line2d_52">
    <path d="M 360.8064 298.944 
L 360.8064 6.912 
" style="fill: none; stroke: #000000; stroke-width: 1.5; stroke-linecap: square"/>
   </g>
   <g id="patch_3">
    <path d="M 57.6 298.944 
L 360.8064 298.944 
" style="fill: none; stroke: #000000; stroke-width: 0.8; stroke-linejoin: miter; stroke-linecap: square"/>
   </g>
   <g id="patch_4">
    <path d="M 57.6 6.912 
L 360.8064 6.912 
" style="fill: none; stroke: #000000; stroke-width: 0.8; stroke-linejoin: miter; stroke-linecap: square"/>
   </g>
   <g id="text_13">
    <!-- AllLQ -->
    <g transform="translate(386.578944 296.966485) scale(0.14 -0.14)">
     <defs>
      <path id="DejaVuSans-41" d="M 2188 4044 
L 1331 1722 
L 3047 1722 
L 2188 4044 
z
M 1831 4666 
L 2547 4666 
L 4325 0 
L 3669 0 
L 3244 1197 
L 1141 1197 
L 716 0 
L 50 0 
L 1831 4666 
z
" transform="scale(0.015625)"/>
      <path id="DejaVuSans-4c" d="M 628 4666 
L 1259 4666 
L 1259 531 
L 3531 531 
L 3531 0 
L 628 0 
L 628 4666 
z
" transform="scale(0.015625)"/>
      <path id="DejaVuSans-51" d="M 2522 4238 
Q 1834 4238 1429 3725 
Q 1025 3213 1025 2328 
Q 1025 1447 1429 934 
Q 1834 422 2522 422 
Q 3209 422 3611 934 
Q 4013 1447 4013 2328 
Q 4013 3213 3611 3725 
Q 3209 4238 2522 4238 
z
M 3406 84 
L 4238 -825 
L 3475 -825 
L 2784 -78 
Q 2681 -84 2626 -87 
Q 2572 -91 2522 -91 
Q 1538 -91 948 567 
Q 359 1225 359 2328 
Q 359 3434 948 4092 
Q 1538 4750 2522 4750 
Q 3503 4750 4090 4092 
Q 4678 3434 4678 2328 
Q 4678 1516 4351 937 
Q 4025 359 3406 84 
z
" transform="scale(0.015625)"/>
     </defs>
     <use xlink:href="#DejaVuSans-41"/>
     <use xlink:href="#DejaVuSans-6c" x="68.408203"/>
     <use xlink:href="#DejaVuSans-6c" x="96.191406"/>
     <use xlink:href="#DejaVuSans-4c" x="123.974609"/>
     <use xlink:href="#DejaVuSans-51" x="179.6875"/>
    </g>
   </g>
   <g id="text_14">
    <!-- AllComo -->
    <g transform="translate(386.578944 203.516245) scale(0.14 -0.14)">
     <defs>
      <path id="DejaVuSans-43" d="M 4122 4306 
L 4122 3641 
Q 3803 3938 3442 4084 
Q 3081 4231 2675 4231 
Q 1875 4231 1450 3742 
Q 1025 3253 1025 2328 
Q 1025 1406 1450 917 
Q 1875 428 2675 428 
Q 3081 428 3442 575 
Q 3803 722 4122 1019 
L 4122 359 
Q 3791 134 3420 21 
Q 3050 -91 2638 -91 
Q 1578 -91 968 557 
Q 359 1206 359 2328 
Q 359 3453 968 4101 
Q 1578 4750 2638 4750 
Q 3056 4750 3426 4639 
Q 3797 4528 4122 4306 
z
" transform="scale(0.015625)"/>
     </defs>
     <use xlink:href="#DejaVuSans-41"/>
     <use xlink:href="#DejaVuSans-6c" x="68.408203"/>
     <use xlink:href="#DejaVuSans-6c" x="96.191406"/>
     <use xlink:href="#DejaVuSans-43" x="123.974609"/>
     <use xlink:href="#DejaVuSans-6f" x="193.798828"/>
     <use xlink:href="#DejaVuSans-6d" x="254.980469"/>
     <use xlink:href="#DejaVuSans-6f" x="352.392578"/>
    </g>
   </g>
   <g id="text_15">
    <!-- COMO-10 d -->
    <g transform="translate(386.578944 110.066005) scale(0.14 -0.14)">
     <defs>
      <path id="DejaVuSans-4f" d="M 2522 4238 
Q 1834 4238 1429 3725 
Q 1025 3213 1025 2328 
Q 1025 1447 1429 934 
Q 1834 422 2522 422 
Q 3209 422 3611 934 
Q 4013 1447 4013 2328 
Q 4013 3213 3611 3725 
Q 3209 4238 2522 4238 
z
M 2522 4750 
Q 3503 4750 4090 4092 
Q 4678 3434 4678 2328 
Q 4678 1225 4090 567 
Q 3503 -91 2522 -91 
Q 1538 -91 948 565 
Q 359 1222 359 2328 
Q 359 3434 948 4092 
Q 1538 4750 2522 4750 
z
" transform="scale(0.015625)"/>
      <path id="DejaVuSans-4d" d="M 628 4666 
L 1569 4666 
L 2759 1491 
L 3956 4666 
L 4897 4666 
L 4897 0 
L 4281 0 
L 4281 4097 
L 3078 897 
L 2444 897 
L 1241 4097 
L 1241 0 
L 628 0 
L 628 4666 
z
" transform="scale(0.015625)"/>
     </defs>
     <use xlink:href="#DejaVuSans-43"/>
     <use xlink:href="#DejaVuSans-4f" x="69.824219"/>
     <use xlink:href="#DejaVuSans-4d" x="148.535156"/>
     <use xlink:href="#DejaVuSans-4f" x="234.814453"/>
     <use xlink:href="#DejaVuSans-2d" x="316.275391"/>
     <use xlink:href="#DejaVuSans-31" x="352.359375"/>
     <use xlink:href="#DejaVuSans-30" x="415.982422"/>
     <use xlink:href="#DejaVuSans-20" x="479.605469"/>
     <use xlink:href="#DejaVuSans-64" x="511.392578"/>
    </g>
   </g>
   <g id="text_16">
    <!-- best 2016 -->
    <g transform="translate(386.578944 16.615765) scale(0.14 -0.14)">
     <defs>
      <path id="DejaVuSans-62" d="M 3116 1747 
Q 3116 2381 2855 2742 
Q 2594 3103 2138 3103 
Q 1681 3103 1420 2742 
Q 1159 2381 1159 1747 
Q 1159 1113 1420 752 
Q 1681 391 2138 391 
Q 2594 391 2855 752 
Q 3116 1113 3116 1747 
z
M 1159 2969 
Q 1341 3281 1617 3432 
Q 1894 3584 2278 3584 
Q 2916 3584 3314 3078 
Q 3713 2572 3713 1747 
Q 3713 922 3314 415 
Q 2916 -91 2278 -91 
Q 1894 -91 1617 61 
Q 1341 213 1159 525 
L 1159 0 
L 581 0 
L 581 4863 
L 1159 4863 
L 1159 2969 
z
" transform="scale(0.015625)"/>
     </defs>
     <use xlink:href="#DejaVuSans-62"/>
     <use xlink:href="#DejaVuSans-65" x="63.476562"/>
     <use xlink:href="#DejaVuSans-73" x="125"/>
     <use xlink:href="#DejaVuSans-74" x="177.099609"/>
     <use xlink:href="#DejaVuSans-20" x="216.308594"/>
     <use xlink:href="#DejaVuSans-32" x="248.095703"/>
     <use xlink:href="#DejaVuSans-30" x="311.71875"/>
     <use xlink:href="#DejaVuSans-31" x="375.341797"/>
     <use xlink:href="#DejaVuSans-36" x="438.964844"/>
    </g>
   </g>
   <g id="text_17">
    <!-- bbob-biobj f46, f47, f50, 10-D -->
    <g transform="translate(60.632064 17.582726) scale(0.102 -0.102)">
     <defs>
      <path id="DejaVuSans-6a" d="M 603 3500 
L 1178 3500 
L 1178 -63 
Q 1178 -731 923 -1031 
Q 669 -1331 103 -1331 
L -116 -1331 
L -116 -844 
L 38 -844 
Q 366 -844 484 -692 
Q 603 -541 603 -63 
L 603 3500 
z
M 603 4863 
L 1178 4863 
L 1178 4134 
L 603 4134 
L 603 4863 
z
" transform="scale(0.015625)"/>
      <path id="DejaVuSans-37" d="M 525 4666 
L 3525 4666 
L 3525 4397 
L 1831 0 
L 1172 0 
L 2766 4134 
L 525 4134 
L 525 4666 
z
" transform="scale(0.015625)"/>
      <path id="DejaVuSans-35" d="M 691 4666 
L 3169 4666 
L 3169 4134 
L 1269 4134 
L 1269 2991 
Q 1406 3038 1543 3061 
Q 1681 3084 1819 3084 
Q 2600 3084 3056 2656 
Q 3513 2228 3513 1497 
Q 3513 744 3044 326 
Q 2575 -91 1722 -91 
Q 1428 -91 1123 -41 
Q 819 9 494 109 
L 494 744 
Q 775 591 1075 516 
Q 1375 441 1709 441 
Q 2250 441 2565 725 
Q 2881 1009 2881 1497 
Q 2881 1984 2565 2268 
Q 2250 2553 1709 2553 
Q 1456 2553 1204 2497 
Q 953 2441 691 2322 
L 691 4666 
z
" transform="scale(0.015625)"/>
      <path id="DejaVuSans-44" d="M 1259 4147 
L 1259 519 
L 2022 519 
Q 2988 519 3436 956 
Q 3884 1394 3884 2338 
Q 3884 3275 3436 3711 
Q 2988 4147 2022 4147 
L 1259 4147 
z
M 628 4666 
L 1925 4666 
Q 3281 4666 3915 4102 
Q 4550 3538 4550 2338 
Q 4550 1131 3912 565 
Q 3275 0 1925 0 
L 628 0 
L 628 4666 
z
" transform="scale(0.015625)"/>
     </defs>
     <use xlink:href="#DejaVuSans-62"/>
     <use xlink:href="#DejaVuSans-62" x="63.476562"/>
     <use xlink:href="#DejaVuSans-6f" x="126.953125"/>
     <use xlink:href="#DejaVuSans-62" x="188.134766"/>
     <use xlink:href="#DejaVuSans-2d" x="251.611328"/>
     <use xlink:href="#DejaVuSans-62" x="287.695312"/>
     <use xlink:href="#DejaVuSans-69" x="351.171875"/>
     <use xlink:href="#DejaVuSans-6f" x="378.955078"/>
     <use xlink:href="#DejaVuSans-62" x="440.136719"/>
     <use xlink:href="#DejaVuSans-6a" x="503.613281"/>
     <use xlink:href="#DejaVuSans-20" x="531.396484"/>
     <use xlink:href="#DejaVuSans-66" x="563.183594"/>
     <use xlink:href="#DejaVuSans-34" x="598.388672"/>
     <use xlink:href="#DejaVuSans-36" x="662.011719"/>
     <use xlink:href="#DejaVuSans-2c" x="725.634766"/>
     <use xlink:href="#DejaVuSans-20" x="757.421875"/>
     <use xlink:href="#DejaVuSans-66" x="789.208984"/>
     <use xlink:href="#DejaVuSans-34" x="824.414062"/>
     <use xlink:href="#DejaVuSans-37" x="888.037109"/>
     <use xlink:href="#DejaVuSans-2c" x="951.660156"/>
     <use xlink:href="#DejaVuSans-20" x="983.447266"/>
     <use xlink:href="#DejaVuSans-66" x="1015.234375"/>
     <use xlink:href="#DejaVuSans-35" x="1050.439453"/>
     <use xlink:href="#DejaVuSans-30" x="1114.0625"/>
     <use xlink:href="#DejaVuSans-2c" x="1177.685547"/>
     <use xlink:href="#DejaVuSans-20" x="1209.472656"/>
     <use xlink:href="#DejaVuSans-31" x="1241.259766"/>
     <use xlink:href="#DejaVuSans-30" x="1304.882812"/>
     <use xlink:href="#DejaVuSans-2d" x="1368.505859"/>
     <use xlink:href="#DejaVuSans-44" x="1404.589844"/>
    </g>
    <!-- 58 targets: 1..-1.0e-4 -->
    <g transform="translate(60.632064 29.004495) scale(0.102 -0.102)">
     <defs>
      <path id="DejaVuSans-3a" d="M 750 794 
L 1409 794 
L 1409 0 
L 750 0 
L 750 794 
z
M 750 3309 
L 1409 3309 
L 1409 2516 
L 750 2516 
L 750 3309 
z
" transform="scale(0.015625)"/>
     </defs>
     <use xlink:href="#DejaVuSans-35"/>
     <use xlink:href="#DejaVuSans-38" x="63.623047"/>
     <use xlink:href="#DejaVuSans-20" x="127.246094"/>
     <use xlink:href="#DejaVuSans-74" x="159.033203"/>
     <use xlink:href="#DejaVuSans-61" x="198.242188"/>
     <use xlink:href="#DejaVuSans-72" x="259.521484"/>
     <use xlink:href="#DejaVuSans-67" x="298.884766"/>
     <use xlink:href="#DejaVuSans-65" x="362.361328"/>
     <use xlink:href="#DejaVuSans-74" x="423.884766"/>
     <use xlink:href="#DejaVuSans-73" x="463.09375"/>
     <use xlink:href="#DejaVuSans-3a" x="515.193359"/>
     <use xlink:href="#DejaVuSans-20" x="548.884766"/>
     <use xlink:href="#DejaVuSans-31" x="580.671875"/>
     <use xlink:href="#DejaVuSans-2e" x="644.294922"/>
     <use xlink:href="#DejaVuSans-2e" x="676.082031"/>
     <use xlink:href="#DejaVuSans-2d" x="707.869141"/>
     <use xlink:href="#DejaVuSans-31" x="743.953125"/>
     <use xlink:href="#DejaVuSans-2e" x="807.576172"/>
     <use xlink:href="#DejaVuSans-30" x="839.363281"/>
     <use xlink:href="#DejaVuSans-65" x="902.986328"/>
     <use xlink:href="#DejaVuSans-2d" x="964.509766"/>
     <use xlink:href="#DejaVuSans-34" x="1000.59375"/>
    </g>
    <!-- 10 instances -->
    <g transform="translate(60.632064 40.426264) scale(0.102 -0.102)">
     <use xlink:href="#DejaVuSans-31"/>
     <use xlink:href="#DejaVuSans-30" x="63.623047"/>
     <use xlink:href="#DejaVuSans-20" x="127.246094"/>
     <use xlink:href="#DejaVuSans-69" x="159.033203"/>
     <use xlink:href="#DejaVuSans-6e" x="186.816406"/>
     <use xlink:href="#DejaVuSans-73" x="250.195312"/>
     <use xlink:href="#DejaVuSans-74" x="302.294922"/>
     <use xlink:href="#DejaVuSans-61" x="341.503906"/>
     <use xlink:href="#DejaVuSans-6e" x="402.783203"/>
     <use xlink:href="#DejaVuSans-63" x="466.162109"/>
     <use xlink:href="#DejaVuSans-65" x="521.142578"/>
     <use xlink:href="#DejaVuSans-73" x="582.666016"/>
    </g>
   </g>
   <g id="text_18">
    <!-- v2.6, hv-hash=ff0e71e8cd978373 -->
    <g style="fill: #808080" transform="translate(123.707887 293.943992) scale(0.1 -0.1)">
     <defs>
      <path id="DejaVuSans-68" d="M 3513 2113 
L 3513 0 
L 2938 0 
L 2938 2094 
Q 2938 2591 2744 2837 
Q 2550 3084 2163 3084 
Q 1697 3084 1428 2787 
Q 1159 2491 1159 1978 
L 1159 0 
L 581 0 
L 581 4863 
L 1159 4863 
L 1159 2956 
Q 1366 3272 1645 3428 
Q 1925 3584 2291 3584 
Q 2894 3584 3203 3211 
Q 3513 2838 3513 2113 
z
" transform="scale(0.015625)"/>
      <path id="DejaVuSans-3d" d="M 678 2906 
L 4684 2906 
L 4684 2381 
L 678 2381 
L 678 2906 
z
M 678 1631 
L 4684 1631 
L 4684 1100 
L 678 1100 
L 678 1631 
z
" transform="scale(0.015625)"/>
      <path id="DejaVuSans-39" d="M 703 97 
L 703 672 
Q 941 559 1184 500 
Q 1428 441 1663 441 
Q 2288 441 2617 861 
Q 2947 1281 2994 2138 
Q 2813 1869 2534 1725 
Q 2256 1581 1919 1581 
Q 1219 1581 811 2004 
Q 403 2428 403 3163 
Q 403 3881 828 4315 
Q 1253 4750 1959 4750 
Q 2769 4750 3195 4129 
Q 3622 3509 3622 2328 
Q 3622 1225 3098 567 
Q 2575 -91 1691 -91 
Q 1453 -91 1209 -44 
Q 966 3 703 97 
z
M 1959 2075 
Q 2384 2075 2632 2365 
Q 2881 2656 2881 3163 
Q 2881 3666 2632 3958 
Q 2384 4250 1959 4250 
Q 1534 4250 1286 3958 
Q 1038 3666 1038 3163 
Q 1038 2656 1286 2365 
Q 1534 2075 1959 2075 
z
" transform="scale(0.015625)"/>
      <path id="DejaVuSans-33" d="M 2597 2516 
Q 3050 2419 3304 2112 
Q 3559 1806 3559 1356 
Q 3559 666 3084 287 
Q 2609 -91 1734 -91 
Q 1441 -91 1130 -33 
Q 819 25 488 141 
L 488 750 
Q 750 597 1062 519 
Q 1375 441 1716 441 
Q 2309 441 2620 675 
Q 2931 909 2931 1356 
Q 2931 1769 2642 2001 
Q 2353 2234 1838 2234 
L 1294 2234 
L 1294 2753 
L 1863 2753 
Q 2328 2753 2575 2939 
Q 2822 3125 2822 3475 
Q 2822 3834 2567 4026 
Q 2313 4219 1838 4219 
Q 1578 4219 1281 4162 
Q 984 4106 628 3988 
L 628 4550 
Q 988 4650 1302 4700 
Q 1616 4750 1894 4750 
Q 2613 4750 3031 4423 
Q 3450 4097 3450 3541 
Q 3450 3153 3228 2886 
Q 3006 2619 2597 2516 
z
" transform="scale(0.015625)"/>
     </defs>
     <use xlink:href="#DejaVuSans-76"/>
     <use xlink:href="#DejaVuSans-32" x="59.179688"/>
     <use xlink:href="#DejaVuSans-2e" x="122.802734"/>
     <use xlink:href="#DejaVuSans-36" x="154.589844"/>
     <use xlink:href="#DejaVuSans-2c" x="218.212891"/>
     <use xlink:href="#DejaVuSans-20" x="250"/>
     <use xlink:href="#DejaVuSans-68" x="281.787109"/>
     <use xlink:href="#DejaVuSans-76" x="345.166016"/>
     <use xlink:href="#DejaVuSans-2d" x="401.720703"/>
     <use xlink:href="#DejaVuSans-68" x="437.804688"/>
     <use xlink:href="#DejaVuSans-61" x="501.183594"/>
     <use xlink:href="#DejaVuSans-73" x="562.462891"/>
     <use xlink:href="#DejaVuSans-68" x="614.5625"/>
     <use xlink:href="#DejaVuSans-3d" x="677.941406"/>
     <use xlink:href="#DejaVuSans-66" x="761.730469"/>
     <use xlink:href="#DejaVuSans-66" x="796.935547"/>
     <use xlink:href="#DejaVuSans-30" x="832.140625"/>
     <use xlink:href="#DejaVuSans-65" x="895.763672"/>
     <use xlink:href="#DejaVuSans-37" x="957.287109"/>
     <use xlink:href="#DejaVuSans-31" x="1020.910156"/>
     <use xlink:href="#DejaVuSans-65" x="1084.533203"/>
     <use xlink:href="#DejaVuSans-38" x="1146.056641"/>
     <use xlink:href="#DejaVuSans-63" x="1209.679688"/>
     <use xlink:href="#DejaVuSans-64" x="1264.660156"/>
     <use xlink:href="#DejaVuSans-39" x="1328.136719"/>
     <use xlink:href="#DejaVuSans-37" x="1391.759766"/>
     <use xlink:href="#DejaVuSans-38" x="1455.382812"/>
     <use xlink:href="#DejaVuSans-33" x="1519.005859"/>
     <use xlink:href="#DejaVuSans-37" x="1582.628906"/>
     <use xlink:href="#DejaVuSans-33" x="1646.251953"/>
    </g>
   </g>
  </g>
 </g>
 <defs>
  <clipPath id="p95d1b3b7d4">
   <rect x="57.6" y="6.912" width="303.2064" height="292.032"/>
  </clipPath>
 </defs>
</svg>
