<?xml version="1.0" encoding="utf-8" standalone="no"?>
<!DOCTYPE svg PUBLIC "-//W3C//DTD SVG 1.1//EN"
  "http://www.w3.org/Graphics/SVG/1.1/DTD/svg11.dtd">
<svg xmlns:xlink="http://www.w3.org/1999/xlink" width="460.8pt" height="345.6pt" viewBox="0 0 460.8 345.6" xmlns="http://www.w3.org/2000/svg" version="1.1">
 <metadata>
  <rdf:RDF xmlns:dc="http://purl.org/dc/elements/1.1/" xmlns:cc="http://creativecommons.org/ns#" xmlns:rdf="http://www.w3.org/1999/02/22-rdf-syntax-ns#">
   <cc:Work>
    <dc:type rdf:resource="http://purl.org/dc/dcmitype/StillImage"/>
    <dc:date>2023-02-10T20:17:40.522162</dc:date>
    <dc:format>image/svg+xml</dc:format>
    <dc:creator>
     <cc:Agent>
      <dc:title>Matplotlib v3.6.3, https://matplotlib.org/</dc:title>
     </cc:Agent>
    </dc:creator>
   </cc:Work>
  </rdf:RDF>
 </metadata>
 <defs>
  <style type="text/css">*{stroke-linejoin: round; stroke-linecap: butt}</style>
 </defs>
 <g id="figure_1">
  <g id="patch_1">
   <path d="M 0 345.6 
L 460.8 345.6 
L 460.8 0 
L 0 0 
z
" style="fill: #ffffff"/>
  </g>
  <g id="axes_1">
   <g id="patch_2">
    <path d="M 57.6 298.944 
L 360.8064 298.944 
L 360.8064 6.912 
L 57.6 6.912 
z
" style="fill: #ffffff"/>
   </g>
   <g id="line2d_1">
    <path d="M 34.951403 298.944 
L 34.951403 297.685241 
L 40.363149 297.685241 
L 40.363149 295.167724 
L 53.402323 295.167724 
L 53.402323 293.908966 
L 61.029752 293.908966 
L 61.029752 291.391448 
L 63.929565 291.391448 
L 63.929565 288.873931 
L 71.556993 288.873931 
L 71.556993 286.356414 
L 76.284608 286.356414 
L 76.284608 283.838897 
L 85.894031 283.838897 
L 85.894031 281.321379 
L 106.974091 281.321379 
L 106.974091 278.803862 
L 114.326893 278.803862 
L 114.326893 276.286345 
L 135.805631 276.286345 
L 135.805631 273.768828 
L 152.847174 273.768828 
L 152.847174 272.510069 
L 155.588239 272.510069 
L 155.588239 271.25131 
L 160.785349 271.25131 
L 160.785349 269.992552 
L 162.928937 269.992552 
L 162.928937 268.733793 
L 168.137692 268.733793 
L 168.137692 264.957517 
L 170.983137 264.957517 
L 170.983137 261.181241 
L 172.00309 261.181241 
L 172.00309 257.404966 
L 177.181311 257.404966 
L 177.181311 253.62869 
L 181.094875 253.62869 
L 181.094875 251.111172 
L 182.178947 251.111172 
L 182.178947 248.593655 
L 186.359601 248.593655 
L 186.359601 247.334897 
L 189.633768 247.334897 
L 189.633768 244.817379 
L 193.690174 244.817379 
L 193.690174 242.299862 
L 197.40431 242.299862 
L 197.40431 239.782345 
L 202.684723 239.782345 
L 202.684723 238.523586 
L 203.138516 238.523586 
L 203.138516 237.264828 
L 212.201045 237.264828 
L 212.201045 233.488552 
L 214.731609 233.488552 
L 214.731609 232.229793 
L 219.188738 232.229793 
L 219.188738 229.712276 
L 228.763914 229.712276 
L 228.763914 227.194759 
L 230.384533 227.194759 
L 230.384533 224.677241 
L 233.392686 224.677241 
L 233.392686 222.159724 
L 235.568443 222.159724 
L 235.568443 218.383448 
L 247.675868 218.383448 
L 247.748908 213.348414 
L 249.182063 213.348414 
L 249.182063 209.572138 
L 251.077228 209.572138 
L 251.077228 205.795862 
L 256.409362 205.795862 
L 256.409362 203.278345 
L 257.734834 203.278345 
L 257.734834 200.760828 
L 261.687539 200.760828 
L 261.687539 198.24331 
L 267.198279 198.24331 
L 267.198279 195.725793 
L 268.215172 195.725793 
L 268.215172 193.208276 
L 269.214954 193.208276 
L 269.214954 191.949517 
L 277.511899 191.949517 
L 277.511899 188.173241 
L 281.155228 188.173241 
L 281.155228 185.655724 
L 285.62365 185.655724 
L 285.62365 183.138207 
L 287.069206 183.138207 
L 287.069206 180.62069 
L 288.136522 180.62069 
L 288.136522 179.361931 
L 292.258064 179.361931 
L 292.258064 176.844414 
L 297.809336 176.844414 
L 297.809336 175.585655 
L 298.455266 175.585655 
L 298.455266 174.326897 
L 300.288724 174.326897 
L 300.288724 170.550621 
L 304.200603 170.550621 
L 304.200603 169.291862 
L 309.862305 169.291862 
L 309.862305 165.515586 
L 312.860466 165.515586 
L 312.860466 161.73931 
L 313.527935 161.73931 
L 313.527935 157.963034 
L 317.498063 157.963034 
L 317.498063 156.704276 
L 317.692998 156.704276 
L 317.692998 154.186759 
L 324.990163 154.186759 
L 324.990163 152.928 
L 325.697994 152.928 
L 325.697994 151.669241 
L 328.053816 151.669241 
L 328.053816 150.410483 
L 330.071673 150.410483 
L 330.071673 146.634207 
L 332.101068 146.634207 
L 332.101068 142.857931 
L 332.678919 142.857931 
L 332.678919 140.340414 
L 335.209415 140.340414 
L 335.209415 136.564138 
L 339.451845 136.564138 
L 339.451845 135.305379 
L 340.528312 135.305379 
L 340.528312 131.529103 
L 342.046182 131.529103 
L 342.090205 126.494069 
L 349.260802 126.494069 
L 349.260802 125.23531 
L 349.403306 125.23531 
L 349.403306 122.717793 
L 360.8064 122.717793 
L 360.8064 122.717793 
" style="fill: none; stroke: #f5deb3; stroke-width: 4; stroke-linecap: square"/>
   </g>
   <g id="line2d_2">
    <defs>
     <path id="md4ca54bdb2" d="M -0 7.778175 
L 7.778175 0 
L 0 -7.778175 
L -7.778175 -0 
z
" style="stroke: #f5deb3; stroke-width: 1.5; stroke-linejoin: miter"/>
    </defs>
    <g>
     <use xlink:href="#md4ca54bdb2" x="135.805631" y="276.286345" style="fill: #f5deb3; stroke: #f5deb3; stroke-width: 1.5; stroke-linejoin: miter"/>
     <use xlink:href="#md4ca54bdb2" x="202.684723" y="239.782345" style="fill: #f5deb3; stroke: #f5deb3; stroke-width: 1.5; stroke-linejoin: miter"/>
     <use xlink:href="#md4ca54bdb2" x="257.734834" y="200.760828" style="fill: #f5deb3; stroke: #f5deb3; stroke-width: 1.5; stroke-linejoin: miter"/>
     <use xlink:href="#md4ca54bdb2" x="332.678919" y="142.857931" style="fill: #f5deb3; stroke: #f5deb3; stroke-width: 1.5; stroke-linejoin: miter"/>
     <use xlink:href="#md4ca54bdb2" x="349.403306" y="122.717793" style="fill: #f5deb3; stroke: #f5deb3; stroke-width: 1.5; stroke-linejoin: miter"/>
     <use xlink:href="#md4ca54bdb2" x="360.8064" y="122.717793" style="fill: #f5deb3; stroke: #f5deb3; stroke-width: 1.5; stroke-linejoin: miter"/>
    </g>
   </g>
   <g id="line2d_3">
    <path style="fill: none; stroke: #f5deb3; stroke-width: 4; stroke-linecap: square"/>
    <g/>
   </g>
   <g id="line2d_4">
    <path d="M 360.8064 122.717793 
L 380.514816 12.75264 
" style="fill: none; stroke: #f5deb3; stroke-width: 4; stroke-linecap: square"/>
    <g>
     <use xlink:href="#md4ca54bdb2" x="360.8064" y="122.717793" style="fill: #f5deb3; stroke: #f5deb3; stroke-width: 1.5; stroke-linejoin: miter"/>
     <use xlink:href="#md4ca54bdb2" x="380.514816" y="12.75264" style="fill: #f5deb3; stroke: #f5deb3; stroke-width: 1.5; stroke-linejoin: miter"/>
    </g>
   </g>
   <g id="matplotlib.axis_1">
    <g id="xtick_1">
     <g id="line2d_5">
      <path d="M 57.6 298.944 
L 57.6 6.912 
" clip-path="url(#peb1e360f48)" style="fill: none; stroke: #b0b0b0; stroke-width: 0.8; stroke-linecap: square"/>
     </g>
     <g id="line2d_6">
      <defs>
       <path id="mef7f3af1a0" d="M 0 0 
L 0 3.5 
" style="stroke: #000000; stroke-width: 0.8"/>
      </defs>
      <g>
       <use xlink:href="#mef7f3af1a0" x="57.6" y="298.944" style="stroke: #000000; stroke-width: 0.8"/>
      </g>
     </g>
     <g id="text_1">
      <!-- 0 -->
      <g transform="translate(52.191875 318.861344) scale(0.17 -0.17)">
       <defs>
        <path id="DejaVuSans-30" d="M 2034 4250 
Q 1547 4250 1301 3770 
Q 1056 3291 1056 2328 
Q 1056 1369 1301 889 
Q 1547 409 2034 409 
Q 2525 409 2770 889 
Q 3016 1369 3016 2328 
Q 3016 3291 2770 3770 
Q 2525 4250 2034 4250 
z
M 2034 4750 
Q 2819 4750 3233 4129 
Q 3647 3509 3647 2328 
Q 3647 1150 3233 529 
Q 2819 -91 2034 -91 
Q 1250 -91 836 529 
Q 422 1150 422 2328 
Q 422 3509 836 4129 
Q 1250 4750 2034 4750 
z
" transform="scale(0.015625)"/>
       </defs>
       <use xlink:href="#DejaVuSans-30"/>
      </g>
     </g>
    </g>
    <g id="xtick_2">
     <g id="line2d_7">
      <path d="M 144.2304 298.944 
L 144.2304 6.912 
" clip-path="url(#peb1e360f48)" style="fill: none; stroke: #b0b0b0; stroke-width: 0.8; stroke-linecap: square"/>
     </g>
     <g id="line2d_8">
      <g>
       <use xlink:href="#mef7f3af1a0" x="144.2304" y="298.944" style="stroke: #000000; stroke-width: 0.8"/>
      </g>
     </g>
     <g id="text_2">
      <!-- 2 -->
      <g transform="translate(138.822275 318.861344) scale(0.17 -0.17)">
       <defs>
        <path id="DejaVuSans-32" d="M 1228 531 
L 3431 531 
L 3431 0 
L 469 0 
L 469 531 
Q 828 903 1448 1529 
Q 2069 2156 2228 2338 
Q 2531 2678 2651 2914 
Q 2772 3150 2772 3378 
Q 2772 3750 2511 3984 
Q 2250 4219 1831 4219 
Q 1534 4219 1204 4116 
Q 875 4013 500 3803 
L 500 4441 
Q 881 4594 1212 4672 
Q 1544 4750 1819 4750 
Q 2544 4750 2975 4387 
Q 3406 4025 3406 3419 
Q 3406 3131 3298 2873 
Q 3191 2616 2906 2266 
Q 2828 2175 2409 1742 
Q 1991 1309 1228 531 
z
" transform="scale(0.015625)"/>
       </defs>
       <use xlink:href="#DejaVuSans-32"/>
      </g>
     </g>
    </g>
    <g id="xtick_3">
     <g id="line2d_9">
      <path d="M 230.8608 298.944 
L 230.8608 6.912 
" clip-path="url(#peb1e360f48)" style="fill: none; stroke: #b0b0b0; stroke-width: 0.8; stroke-linecap: square"/>
     </g>
     <g id="line2d_10">
      <g>
       <use xlink:href="#mef7f3af1a0" x="230.8608" y="298.944" style="stroke: #000000; stroke-width: 0.8"/>
      </g>
     </g>
     <g id="text_3">
      <!-- 4 -->
      <g transform="translate(225.452675 318.861344) scale(0.17 -0.17)">
       <defs>
        <path id="DejaVuSans-34" d="M 2419 4116 
L 825 1625 
L 2419 1625 
L 2419 4116 
z
M 2253 4666 
L 3047 4666 
L 3047 1625 
L 3713 1625 
L 3713 1100 
L 3047 1100 
L 3047 0 
L 2419 0 
L 2419 1100 
L 313 1100 
L 313 1709 
L 2253 4666 
z
" transform="scale(0.015625)"/>
       </defs>
       <use xlink:href="#DejaVuSans-34"/>
      </g>
     </g>
    </g>
    <g id="xtick_4">
     <g id="line2d_11">
      <path d="M 317.4912 298.944 
L 317.4912 6.912 
" clip-path="url(#peb1e360f48)" style="fill: none; stroke: #b0b0b0; stroke-width: 0.8; stroke-linecap: square"/>
     </g>
     <g id="line2d_12">
      <g>
       <use xlink:href="#mef7f3af1a0" x="317.4912" y="298.944" style="stroke: #000000; stroke-width: 0.8"/>
      </g>
     </g>
     <g id="text_4">
      <!-- 6 -->
      <g transform="translate(312.083075 318.861344) scale(0.17 -0.17)">
       <defs>
        <path id="DejaVuSans-36" d="M 2113 2584 
Q 1688 2584 1439 2293 
Q 1191 2003 1191 1497 
Q 1191 994 1439 701 
Q 1688 409 2113 409 
Q 2538 409 2786 701 
Q 3034 994 3034 1497 
Q 3034 2003 2786 2293 
Q 2538 2584 2113 2584 
z
M 3366 4563 
L 3366 3988 
Q 3128 4100 2886 4159 
Q 2644 4219 2406 4219 
Q 1781 4219 1451 3797 
Q 1122 3375 1075 2522 
Q 1259 2794 1537 2939 
Q 1816 3084 2150 3084 
Q 2853 3084 3261 2657 
Q 3669 2231 3669 1497 
Q 3669 778 3244 343 
Q 2819 -91 2113 -91 
Q 1303 -91 875 529 
Q 447 1150 447 2328 
Q 447 3434 972 4092 
Q 1497 4750 2381 4750 
Q 2619 4750 2861 4703 
Q 3103 4656 3366 4563 
z
" transform="scale(0.015625)"/>
       </defs>
       <use xlink:href="#DejaVuSans-36"/>
      </g>
     </g>
    </g>
    <g id="xtick_5">
     <g id="line2d_13">
      <path d="M 100.9152 298.944 
L 100.9152 6.912 
" clip-path="url(#peb1e360f48)" style="fill: none; stroke: #b0b0b0; stroke-width: 0.8; stroke-linecap: square"/>
     </g>
     <g id="line2d_14">
      <defs>
       <path id="m4e80a34896" d="M 0 0 
L 0 2 
" style="stroke: #000000; stroke-width: 0.6"/>
      </defs>
      <g>
       <use xlink:href="#m4e80a34896" x="100.9152" y="298.944" style="stroke: #000000; stroke-width: 0.6"/>
      </g>
     </g>
    </g>
    <g id="xtick_6">
     <g id="line2d_15">
      <path d="M 187.5456 298.944 
L 187.5456 6.912 
" clip-path="url(#peb1e360f48)" style="fill: none; stroke: #b0b0b0; stroke-width: 0.8; stroke-linecap: square"/>
     </g>
     <g id="line2d_16">
      <g>
       <use xlink:href="#m4e80a34896" x="187.5456" y="298.944" style="stroke: #000000; stroke-width: 0.6"/>
      </g>
     </g>
    </g>
    <g id="xtick_7">
     <g id="line2d_17">
      <path d="M 274.176 298.944 
L 274.176 6.912 
" clip-path="url(#peb1e360f48)" style="fill: none; stroke: #b0b0b0; stroke-width: 0.8; stroke-linecap: square"/>
     </g>
     <g id="line2d_18">
      <g>
       <use xlink:href="#m4e80a34896" x="274.176" y="298.944" style="stroke: #000000; stroke-width: 0.6"/>
      </g>
     </g>
    </g>
    <g id="xtick_8">
     <g id="line2d_19">
      <path d="M 360.8064 298.944 
L 360.8064 6.912 
" clip-path="url(#peb1e360f48)" style="fill: none; stroke: #b0b0b0; stroke-width: 0.8; stroke-linecap: square"/>
     </g>
     <g id="line2d_20">
      <g>
       <use xlink:href="#m4e80a34896" x="360.8064" y="298.944" style="stroke: #000000; stroke-width: 0.6"/>
      </g>
     </g>
    </g>
    <g id="text_5">
     <!-- log10(# f-evals / dimension) -->
     <g transform="translate(88.823278 339.314156) scale(0.17 -0.17)">
      <defs>
       <path id="DejaVuSans-6c" d="M 603 4863 
L 1178 4863 
L 1178 0 
L 603 0 
L 603 4863 
z
" transform="scale(0.015625)"/>
       <path id="DejaVuSans-6f" d="M 1959 3097 
Q 1497 3097 1228 2736 
Q 959 2375 959 1747 
Q 959 1119 1226 758 
Q 1494 397 1959 397 
Q 2419 397 2687 759 
Q 2956 1122 2956 1747 
Q 2956 2369 2687 2733 
Q 2419 3097 1959 3097 
z
M 1959 3584 
Q 2709 3584 3137 3096 
Q 3566 2609 3566 1747 
Q 3566 888 3137 398 
Q 2709 -91 1959 -91 
Q 1206 -91 779 398 
Q 353 888 353 1747 
Q 353 2609 779 3096 
Q 1206 3584 1959 3584 
z
" transform="scale(0.015625)"/>
       <path id="DejaVuSans-67" d="M 2906 1791 
Q 2906 2416 2648 2759 
Q 2391 3103 1925 3103 
Q 1463 3103 1205 2759 
Q 947 2416 947 1791 
Q 947 1169 1205 825 
Q 1463 481 1925 481 
Q 2391 481 2648 825 
Q 2906 1169 2906 1791 
z
M 3481 434 
Q 3481 -459 3084 -895 
Q 2688 -1331 1869 -1331 
Q 1566 -1331 1297 -1286 
Q 1028 -1241 775 -1147 
L 775 -588 
Q 1028 -725 1275 -790 
Q 1522 -856 1778 -856 
Q 2344 -856 2625 -561 
Q 2906 -266 2906 331 
L 2906 616 
Q 2728 306 2450 153 
Q 2172 0 1784 0 
Q 1141 0 747 490 
Q 353 981 353 1791 
Q 353 2603 747 3093 
Q 1141 3584 1784 3584 
Q 2172 3584 2450 3431 
Q 2728 3278 2906 2969 
L 2906 3500 
L 3481 3500 
L 3481 434 
z
" transform="scale(0.015625)"/>
       <path id="DejaVuSans-31" d="M 794 531 
L 1825 531 
L 1825 4091 
L 703 3866 
L 703 4441 
L 1819 4666 
L 2450 4666 
L 2450 531 
L 3481 531 
L 3481 0 
L 794 0 
L 794 531 
z
" transform="scale(0.015625)"/>
       <path id="DejaVuSans-28" d="M 1984 4856 
Q 1566 4138 1362 3434 
Q 1159 2731 1159 2009 
Q 1159 1288 1364 580 
Q 1569 -128 1984 -844 
L 1484 -844 
Q 1016 -109 783 600 
Q 550 1309 550 2009 
Q 550 2706 781 3412 
Q 1013 4119 1484 4856 
L 1984 4856 
z
" transform="scale(0.015625)"/>
       <path id="DejaVuSans-23" d="M 3272 2816 
L 2363 2816 
L 2100 1772 
L 3016 1772 
L 3272 2816 
z
M 2803 4594 
L 2478 3297 
L 3391 3297 
L 3719 4594 
L 4219 4594 
L 3897 3297 
L 4872 3297 
L 4872 2816 
L 3775 2816 
L 3519 1772 
L 4513 1772 
L 4513 1294 
L 3397 1294 
L 3072 0 
L 2572 0 
L 2894 1294 
L 1978 1294 
L 1656 0 
L 1153 0 
L 1478 1294 
L 494 1294 
L 494 1772 
L 1594 1772 
L 1856 2816 
L 850 2816 
L 850 3297 
L 1978 3297 
L 2297 4594 
L 2803 4594 
z
" transform="scale(0.015625)"/>
       <path id="DejaVuSans-20" transform="scale(0.015625)"/>
       <path id="DejaVuSans-66" d="M 2375 4863 
L 2375 4384 
L 1825 4384 
Q 1516 4384 1395 4259 
Q 1275 4134 1275 3809 
L 1275 3500 
L 2222 3500 
L 2222 3053 
L 1275 3053 
L 1275 0 
L 697 0 
L 697 3053 
L 147 3053 
L 147 3500 
L 697 3500 
L 697 3744 
Q 697 4328 969 4595 
Q 1241 4863 1831 4863 
L 2375 4863 
z
" transform="scale(0.015625)"/>
       <path id="DejaVuSans-2d" d="M 313 2009 
L 1997 2009 
L 1997 1497 
L 313 1497 
L 313 2009 
z
" transform="scale(0.015625)"/>
       <path id="DejaVuSans-65" d="M 3597 1894 
L 3597 1613 
L 953 1613 
Q 991 1019 1311 708 
Q 1631 397 2203 397 
Q 2534 397 2845 478 
Q 3156 559 3463 722 
L 3463 178 
Q 3153 47 2828 -22 
Q 2503 -91 2169 -91 
Q 1331 -91 842 396 
Q 353 884 353 1716 
Q 353 2575 817 3079 
Q 1281 3584 2069 3584 
Q 2775 3584 3186 3129 
Q 3597 2675 3597 1894 
z
M 3022 2063 
Q 3016 2534 2758 2815 
Q 2500 3097 2075 3097 
Q 1594 3097 1305 2825 
Q 1016 2553 972 2059 
L 3022 2063 
z
" transform="scale(0.015625)"/>
       <path id="DejaVuSans-76" d="M 191 3500 
L 800 3500 
L 1894 563 
L 2988 3500 
L 3597 3500 
L 2284 0 
L 1503 0 
L 191 3500 
z
" transform="scale(0.015625)"/>
       <path id="DejaVuSans-61" d="M 2194 1759 
Q 1497 1759 1228 1600 
Q 959 1441 959 1056 
Q 959 750 1161 570 
Q 1363 391 1709 391 
Q 2188 391 2477 730 
Q 2766 1069 2766 1631 
L 2766 1759 
L 2194 1759 
z
M 3341 1997 
L 3341 0 
L 2766 0 
L 2766 531 
Q 2569 213 2275 61 
Q 1981 -91 1556 -91 
Q 1019 -91 701 211 
Q 384 513 384 1019 
Q 384 1609 779 1909 
Q 1175 2209 1959 2209 
L 2766 2209 
L 2766 2266 
Q 2766 2663 2505 2880 
Q 2244 3097 1772 3097 
Q 1472 3097 1187 3025 
Q 903 2953 641 2809 
L 641 3341 
Q 956 3463 1253 3523 
Q 1550 3584 1831 3584 
Q 2591 3584 2966 3190 
Q 3341 2797 3341 1997 
z
" transform="scale(0.015625)"/>
       <path id="DejaVuSans-73" d="M 2834 3397 
L 2834 2853 
Q 2591 2978 2328 3040 
Q 2066 3103 1784 3103 
Q 1356 3103 1142 2972 
Q 928 2841 928 2578 
Q 928 2378 1081 2264 
Q 1234 2150 1697 2047 
L 1894 2003 
Q 2506 1872 2764 1633 
Q 3022 1394 3022 966 
Q 3022 478 2636 193 
Q 2250 -91 1575 -91 
Q 1294 -91 989 -36 
Q 684 19 347 128 
L 347 722 
Q 666 556 975 473 
Q 1284 391 1588 391 
Q 1994 391 2212 530 
Q 2431 669 2431 922 
Q 2431 1156 2273 1281 
Q 2116 1406 1581 1522 
L 1381 1569 
Q 847 1681 609 1914 
Q 372 2147 372 2553 
Q 372 3047 722 3315 
Q 1072 3584 1716 3584 
Q 2034 3584 2315 3537 
Q 2597 3491 2834 3397 
z
" transform="scale(0.015625)"/>
       <path id="DejaVuSans-2f" d="M 1625 4666 
L 2156 4666 
L 531 -594 
L 0 -594 
L 1625 4666 
z
" transform="scale(0.015625)"/>
       <path id="DejaVuSans-64" d="M 2906 2969 
L 2906 4863 
L 3481 4863 
L 3481 0 
L 2906 0 
L 2906 525 
Q 2725 213 2448 61 
Q 2172 -91 1784 -91 
Q 1150 -91 751 415 
Q 353 922 353 1747 
Q 353 2572 751 3078 
Q 1150 3584 1784 3584 
Q 2172 3584 2448 3432 
Q 2725 3281 2906 2969 
z
M 947 1747 
Q 947 1113 1208 752 
Q 1469 391 1925 391 
Q 2381 391 2643 752 
Q 2906 1113 2906 1747 
Q 2906 2381 2643 2742 
Q 2381 3103 1925 3103 
Q 1469 3103 1208 2742 
Q 947 2381 947 1747 
z
" transform="scale(0.015625)"/>
       <path id="DejaVuSans-69" d="M 603 3500 
L 1178 3500 
L 1178 0 
L 603 0 
L 603 3500 
z
M 603 4863 
L 1178 4863 
L 1178 4134 
L 603 4134 
L 603 4863 
z
" transform="scale(0.015625)"/>
       <path id="DejaVuSans-6d" d="M 3328 2828 
Q 3544 3216 3844 3400 
Q 4144 3584 4550 3584 
Q 5097 3584 5394 3201 
Q 5691 2819 5691 2113 
L 5691 0 
L 5113 0 
L 5113 2094 
Q 5113 2597 4934 2840 
Q 4756 3084 4391 3084 
Q 3944 3084 3684 2787 
Q 3425 2491 3425 1978 
L 3425 0 
L 2847 0 
L 2847 2094 
Q 2847 2600 2669 2842 
Q 2491 3084 2119 3084 
Q 1678 3084 1418 2786 
Q 1159 2488 1159 1978 
L 1159 0 
L 581 0 
L 581 3500 
L 1159 3500 
L 1159 2956 
Q 1356 3278 1631 3431 
Q 1906 3584 2284 3584 
Q 2666 3584 2933 3390 
Q 3200 3197 3328 2828 
z
" transform="scale(0.015625)"/>
       <path id="DejaVuSans-6e" d="M 3513 2113 
L 3513 0 
L 2938 0 
L 2938 2094 
Q 2938 2591 2744 2837 
Q 2550 3084 2163 3084 
Q 1697 3084 1428 2787 
Q 1159 2491 1159 1978 
L 1159 0 
L 581 0 
L 581 3500 
L 1159 3500 
L 1159 2956 
Q 1366 3272 1645 3428 
Q 1925 3584 2291 3584 
Q 2894 3584 3203 3211 
Q 3513 2838 3513 2113 
z
" transform="scale(0.015625)"/>
       <path id="DejaVuSans-29" d="M 513 4856 
L 1013 4856 
Q 1481 4119 1714 3412 
Q 1947 2706 1947 2009 
Q 1947 1309 1714 600 
Q 1481 -109 1013 -844 
L 513 -844 
Q 928 -128 1133 580 
Q 1338 1288 1338 2009 
Q 1338 2731 1133 3434 
Q 928 4138 513 4856 
z
" transform="scale(0.015625)"/>
      </defs>
      <use xlink:href="#DejaVuSans-6c"/>
      <use xlink:href="#DejaVuSans-6f" x="27.783203"/>
      <use xlink:href="#DejaVuSans-67" x="88.964844"/>
      <use xlink:href="#DejaVuSans-31" x="152.441406"/>
      <use xlink:href="#DejaVuSans-30" x="216.064453"/>
      <use xlink:href="#DejaVuSans-28" x="279.6875"/>
      <use xlink:href="#DejaVuSans-23" x="318.701172"/>
      <use xlink:href="#DejaVuSans-20" x="402.490234"/>
      <use xlink:href="#DejaVuSans-66" x="434.277344"/>
      <use xlink:href="#DejaVuSans-2d" x="463.982422"/>
      <use xlink:href="#DejaVuSans-65" x="500.066406"/>
      <use xlink:href="#DejaVuSans-76" x="561.589844"/>
      <use xlink:href="#DejaVuSans-61" x="620.769531"/>
      <use xlink:href="#DejaVuSans-6c" x="682.048828"/>
      <use xlink:href="#DejaVuSans-73" x="709.832031"/>
      <use xlink:href="#DejaVuSans-20" x="761.931641"/>
      <use xlink:href="#DejaVuSans-2f" x="793.71875"/>
      <use xlink:href="#DejaVuSans-20" x="827.410156"/>
      <use xlink:href="#DejaVuSans-64" x="859.197266"/>
      <use xlink:href="#DejaVuSans-69" x="922.673828"/>
      <use xlink:href="#DejaVuSans-6d" x="950.457031"/>
      <use xlink:href="#DejaVuSans-65" x="1047.869141"/>
      <use xlink:href="#DejaVuSans-6e" x="1109.392578"/>
      <use xlink:href="#DejaVuSans-73" x="1172.771484"/>
      <use xlink:href="#DejaVuSans-69" x="1224.871094"/>
      <use xlink:href="#DejaVuSans-6f" x="1252.654297"/>
      <use xlink:href="#DejaVuSans-6e" x="1313.835938"/>
      <use xlink:href="#DejaVuSans-29" x="1377.214844"/>
     </g>
    </g>
   </g>
   <g id="matplotlib.axis_2">
    <g id="ytick_1">
     <g id="line2d_21">
      <path d="M 57.6 298.944 
L 360.8064 298.944 
" clip-path="url(#peb1e360f48)" style="fill: none; stroke: #b0b0b0; stroke-width: 0.8; stroke-linecap: square"/>
     </g>
     <g id="line2d_22">
      <defs>
       <path id="m412fa80c87" d="M 0 0 
L -3.5 0 
" style="stroke: #000000; stroke-width: 0.8"/>
      </defs>
      <g>
       <use xlink:href="#m412fa80c87" x="57.6" y="298.944" style="stroke: #000000; stroke-width: 0.8"/>
      </g>
     </g>
     <g id="text_6">
      <!-- 0.0 -->
      <g transform="translate(25.155 305.02275) scale(0.16 -0.16)">
       <defs>
        <path id="DejaVuSans-2e" d="M 684 794 
L 1344 794 
L 1344 0 
L 684 0 
L 684 794 
z
" transform="scale(0.015625)"/>
       </defs>
       <use xlink:href="#DejaVuSans-30"/>
       <use xlink:href="#DejaVuSans-2e" x="63.623047"/>
       <use xlink:href="#DejaVuSans-30" x="95.410156"/>
      </g>
     </g>
    </g>
    <g id="ytick_2">
     <g id="line2d_23">
      <path d="M 57.6 240.5376 
L 360.8064 240.5376 
" clip-path="url(#peb1e360f48)" style="fill: none; stroke: #b0b0b0; stroke-width: 0.8; stroke-linecap: square"/>
     </g>
     <g id="line2d_24">
      <g>
       <use xlink:href="#m412fa80c87" x="57.6" y="240.5376" style="stroke: #000000; stroke-width: 0.8"/>
      </g>
     </g>
     <g id="text_7">
      <!-- 0.2 -->
      <g transform="translate(25.155 246.61635) scale(0.16 -0.16)">
       <use xlink:href="#DejaVuSans-30"/>
       <use xlink:href="#DejaVuSans-2e" x="63.623047"/>
       <use xlink:href="#DejaVuSans-32" x="95.410156"/>
      </g>
     </g>
    </g>
    <g id="ytick_3">
     <g id="line2d_25">
      <path d="M 57.6 182.1312 
L 360.8064 182.1312 
" clip-path="url(#peb1e360f48)" style="fill: none; stroke: #b0b0b0; stroke-width: 0.8; stroke-linecap: square"/>
     </g>
     <g id="line2d_26">
      <g>
       <use xlink:href="#m412fa80c87" x="57.6" y="182.1312" style="stroke: #000000; stroke-width: 0.8"/>
      </g>
     </g>
     <g id="text_8">
      <!-- 0.4 -->
      <g transform="translate(25.155 188.20995) scale(0.16 -0.16)">
       <use xlink:href="#DejaVuSans-30"/>
       <use xlink:href="#DejaVuSans-2e" x="63.623047"/>
       <use xlink:href="#DejaVuSans-34" x="95.410156"/>
      </g>
     </g>
    </g>
    <g id="ytick_4">
     <g id="line2d_27">
      <path d="M 57.6 123.7248 
L 360.8064 123.7248 
" clip-path="url(#peb1e360f48)" style="fill: none; stroke: #b0b0b0; stroke-width: 0.8; stroke-linecap: square"/>
     </g>
     <g id="line2d_28">
      <g>
       <use xlink:href="#m412fa80c87" x="57.6" y="123.7248" style="stroke: #000000; stroke-width: 0.8"/>
      </g>
     </g>
     <g id="text_9">
      <!-- 0.6 -->
      <g transform="translate(25.155 129.80355) scale(0.16 -0.16)">
       <use xlink:href="#DejaVuSans-30"/>
       <use xlink:href="#DejaVuSans-2e" x="63.623047"/>
       <use xlink:href="#DejaVuSans-36" x="95.410156"/>
      </g>
     </g>
    </g>
    <g id="ytick_5">
     <g id="line2d_29">
      <path d="M 57.6 65.3184 
L 360.8064 65.3184 
" clip-path="url(#peb1e360f48)" style="fill: none; stroke: #b0b0b0; stroke-width: 0.8; stroke-linecap: square"/>
     </g>
     <g id="line2d_30">
      <g>
       <use xlink:href="#m412fa80c87" x="57.6" y="65.3184" style="stroke: #000000; stroke-width: 0.8"/>
      </g>
     </g>
     <g id="text_10">
      <!-- 0.8 -->
      <g transform="translate(25.155 71.39715) scale(0.16 -0.16)">
       <defs>
        <path id="DejaVuSans-38" d="M 2034 2216 
Q 1584 2216 1326 1975 
Q 1069 1734 1069 1313 
Q 1069 891 1326 650 
Q 1584 409 2034 409 
Q 2484 409 2743 651 
Q 3003 894 3003 1313 
Q 3003 1734 2745 1975 
Q 2488 2216 2034 2216 
z
M 1403 2484 
Q 997 2584 770 2862 
Q 544 3141 544 3541 
Q 544 4100 942 4425 
Q 1341 4750 2034 4750 
Q 2731 4750 3128 4425 
Q 3525 4100 3525 3541 
Q 3525 3141 3298 2862 
Q 3072 2584 2669 2484 
Q 3125 2378 3379 2068 
Q 3634 1759 3634 1313 
Q 3634 634 3220 271 
Q 2806 -91 2034 -91 
Q 1263 -91 848 271 
Q 434 634 434 1313 
Q 434 1759 690 2068 
Q 947 2378 1403 2484 
z
M 1172 3481 
Q 1172 3119 1398 2916 
Q 1625 2713 2034 2713 
Q 2441 2713 2670 2916 
Q 2900 3119 2900 3481 
Q 2900 3844 2670 4047 
Q 2441 4250 2034 4250 
Q 1625 4250 1398 4047 
Q 1172 3844 1172 3481 
z
" transform="scale(0.015625)"/>
       </defs>
       <use xlink:href="#DejaVuSans-30"/>
       <use xlink:href="#DejaVuSans-2e" x="63.623047"/>
       <use xlink:href="#DejaVuSans-38" x="95.410156"/>
      </g>
     </g>
    </g>
    <g id="ytick_6">
     <g id="line2d_31">
      <path d="M 57.6 6.912 
L 360.8064 6.912 
" clip-path="url(#peb1e360f48)" style="fill: none; stroke: #b0b0b0; stroke-width: 0.8; stroke-linecap: square"/>
     </g>
     <g id="line2d_32">
      <g>
       <use xlink:href="#m412fa80c87" x="57.6" y="6.912" style="stroke: #000000; stroke-width: 0.8"/>
      </g>
     </g>
     <g id="text_11">
      <!-- 1.0 -->
      <g transform="translate(25.155 12.99075) scale(0.16 -0.16)">
       <use xlink:href="#DejaVuSans-31"/>
       <use xlink:href="#DejaVuSans-2e" x="63.623047"/>
       <use xlink:href="#DejaVuSans-30" x="95.410156"/>
      </g>
     </g>
    </g>
    <g id="text_12">
     <!-- Fraction of function,target pairs -->
     <g transform="translate(17.619531 287.313) rotate(-90) scale(0.17 -0.17)">
      <defs>
       <path id="DejaVuSans-46" d="M 628 4666 
L 3309 4666 
L 3309 4134 
L 1259 4134 
L 1259 2759 
L 3109 2759 
L 3109 2228 
L 1259 2228 
L 1259 0 
L 628 0 
L 628 4666 
z
" transform="scale(0.015625)"/>
       <path id="DejaVuSans-72" d="M 2631 2963 
Q 2534 3019 2420 3045 
Q 2306 3072 2169 3072 
Q 1681 3072 1420 2755 
Q 1159 2438 1159 1844 
L 1159 0 
L 581 0 
L 581 3500 
L 1159 3500 
L 1159 2956 
Q 1341 3275 1631 3429 
Q 1922 3584 2338 3584 
Q 2397 3584 2469 3576 
Q 2541 3569 2628 3553 
L 2631 2963 
z
" transform="scale(0.015625)"/>
       <path id="DejaVuSans-63" d="M 3122 3366 
L 3122 2828 
Q 2878 2963 2633 3030 
Q 2388 3097 2138 3097 
Q 1578 3097 1268 2742 
Q 959 2388 959 1747 
Q 959 1106 1268 751 
Q 1578 397 2138 397 
Q 2388 397 2633 464 
Q 2878 531 3122 666 
L 3122 134 
Q 2881 22 2623 -34 
Q 2366 -91 2075 -91 
Q 1284 -91 818 406 
Q 353 903 353 1747 
Q 353 2603 823 3093 
Q 1294 3584 2113 3584 
Q 2378 3584 2631 3529 
Q 2884 3475 3122 3366 
z
" transform="scale(0.015625)"/>
       <path id="DejaVuSans-74" d="M 1172 4494 
L 1172 3500 
L 2356 3500 
L 2356 3053 
L 1172 3053 
L 1172 1153 
Q 1172 725 1289 603 
Q 1406 481 1766 481 
L 2356 481 
L 2356 0 
L 1766 0 
Q 1100 0 847 248 
Q 594 497 594 1153 
L 594 3053 
L 172 3053 
L 172 3500 
L 594 3500 
L 594 4494 
L 1172 4494 
z
" transform="scale(0.015625)"/>
       <path id="DejaVuSans-75" d="M 544 1381 
L 544 3500 
L 1119 3500 
L 1119 1403 
Q 1119 906 1312 657 
Q 1506 409 1894 409 
Q 2359 409 2629 706 
Q 2900 1003 2900 1516 
L 2900 3500 
L 3475 3500 
L 3475 0 
L 2900 0 
L 2900 538 
Q 2691 219 2414 64 
Q 2138 -91 1772 -91 
Q 1169 -91 856 284 
Q 544 659 544 1381 
z
M 1991 3584 
L 1991 3584 
z
" transform="scale(0.015625)"/>
       <path id="DejaVuSans-2c" d="M 750 794 
L 1409 794 
L 1409 256 
L 897 -744 
L 494 -744 
L 750 256 
L 750 794 
z
" transform="scale(0.015625)"/>
       <path id="DejaVuSans-70" d="M 1159 525 
L 1159 -1331 
L 581 -1331 
L 581 3500 
L 1159 3500 
L 1159 2969 
Q 1341 3281 1617 3432 
Q 1894 3584 2278 3584 
Q 2916 3584 3314 3078 
Q 3713 2572 3713 1747 
Q 3713 922 3314 415 
Q 2916 -91 2278 -91 
Q 1894 -91 1617 61 
Q 1341 213 1159 525 
z
M 3116 1747 
Q 3116 2381 2855 2742 
Q 2594 3103 2138 3103 
Q 1681 3103 1420 2742 
Q 1159 2381 1159 1747 
Q 1159 1113 1420 752 
Q 1681 391 2138 391 
Q 2594 391 2855 752 
Q 3116 1113 3116 1747 
z
" transform="scale(0.015625)"/>
      </defs>
      <use xlink:href="#DejaVuSans-46"/>
      <use xlink:href="#DejaVuSans-72" x="50.269531"/>
      <use xlink:href="#DejaVuSans-61" x="91.382812"/>
      <use xlink:href="#DejaVuSans-63" x="152.662109"/>
      <use xlink:href="#DejaVuSans-74" x="207.642578"/>
      <use xlink:href="#DejaVuSans-69" x="246.851562"/>
      <use xlink:href="#DejaVuSans-6f" x="274.634766"/>
      <use xlink:href="#DejaVuSans-6e" x="335.816406"/>
      <use xlink:href="#DejaVuSans-20" x="399.195312"/>
      <use xlink:href="#DejaVuSans-6f" x="430.982422"/>
      <use xlink:href="#DejaVuSans-66" x="492.164062"/>
      <use xlink:href="#DejaVuSans-20" x="527.369141"/>
      <use xlink:href="#DejaVuSans-66" x="559.15625"/>
      <use xlink:href="#DejaVuSans-75" x="594.361328"/>
      <use xlink:href="#DejaVuSans-6e" x="657.740234"/>
      <use xlink:href="#DejaVuSans-63" x="721.119141"/>
      <use xlink:href="#DejaVuSans-74" x="776.099609"/>
      <use xlink:href="#DejaVuSans-69" x="815.308594"/>
      <use xlink:href="#DejaVuSans-6f" x="843.091797"/>
      <use xlink:href="#DejaVuSans-6e" x="904.273438"/>
      <use xlink:href="#DejaVuSans-2c" x="967.652344"/>
      <use xlink:href="#DejaVuSans-74" x="999.439453"/>
      <use xlink:href="#DejaVuSans-61" x="1038.648438"/>
      <use xlink:href="#DejaVuSans-72" x="1099.927734"/>
      <use xlink:href="#DejaVuSans-67" x="1139.291016"/>
      <use xlink:href="#DejaVuSans-65" x="1202.767578"/>
      <use xlink:href="#DejaVuSans-74" x="1264.291016"/>
      <use xlink:href="#DejaVuSans-20" x="1303.5"/>
      <use xlink:href="#DejaVuSans-70" x="1335.287109"/>
      <use xlink:href="#DejaVuSans-61" x="1398.763672"/>
      <use xlink:href="#DejaVuSans-69" x="1460.042969"/>
      <use xlink:href="#DejaVuSans-72" x="1487.826172"/>
      <use xlink:href="#DejaVuSans-73" x="1528.939453"/>
     </g>
    </g>
   </g>
   <g id="line2d_33">
    <defs>
     <path id="m32e39c5187" d="M 0 1.5 
C 0.397805 1.5 0.77937 1.341951 1.06066 1.06066 
C 1.341951 0.77937 1.5 0.397805 1.5 0 
C 1.5 -0.397805 1.341951 -0.77937 1.06066 -1.06066 
C 0.77937 -1.341951 0.397805 -1.5 0 -1.5 
C -0.397805 -1.5 -0.77937 -1.341951 -1.06066 -1.06066 
C -1.341951 -0.77937 -1.5 -0.397805 -1.5 0 
C -1.5 0.397805 -1.341951 0.77937 -1.06066 1.06066 
C -0.77937 1.341951 -0.397805 1.5 0 1.5 
z
" style="stroke: #f5deb3"/>
    </defs>
    <g>
     <use xlink:href="#m32e39c5187" x="363.376325" y="106.353931" style="fill: #f5deb3; stroke: #f5deb3"/>
     <use xlink:href="#m32e39c5187" x="363.376325" y="106.353931" style="fill: #f5deb3; stroke: #f5deb3"/>
    </g>
   </g>
   <g id="line2d_34">
    <defs>
     <path id="m7bfbc4545d" d="M 0 1.5 
C 0.397805 1.5 0.77937 1.341951 1.06066 1.06066 
C 1.341951 0.77937 1.5 0.397805 1.5 0 
C 1.5 -0.397805 1.341951 -0.77937 1.06066 -1.06066 
C 0.77937 -1.341951 0.397805 -1.5 0 -1.5 
C -0.397805 -1.5 -0.77937 -1.341951 -1.06066 -1.06066 
C -1.341951 -0.77937 -1.5 -0.397805 -1.5 0 
C -1.5 0.397805 -1.341951 0.77937 -1.06066 1.06066 
C -0.77937 1.341951 -0.397805 1.5 0 1.5 
z
" style="stroke: #000080"/>
    </defs>
    <g>
     <use xlink:href="#m7bfbc4545d" x="187.398295" y="232.859172" style="fill: #000080; stroke: #000080"/>
     <use xlink:href="#m7bfbc4545d" x="187.398295" y="232.859172" style="fill: #000080; stroke: #000080"/>
    </g>
   </g>
   <g id="line2d_35">
    <path d="M 14.2848 298.944 
L 14.2848 291.139697 
L 53.402323 291.139697 
L 53.402323 290.762069 
L 55.618005 290.762069 
L 55.618005 290.510317 
L 57.6 290.510317 
L 57.6 290.384441 
L 59.392932 290.384441 
L 59.392932 290.258566 
L 61.029752 290.258566 
L 61.029752 290.13269 
L 73.268314 290.13269 
L 73.268314 290.006814 
L 74.068926 290.006814 
L 74.068926 289.880938 
L 81.166416 289.880938 
L 81.166416 289.50331 
L 81.696354 289.50331 
L 81.696354 289.251559 
L 87.876026 289.251559 
L 87.876026 289.125683 
L 93.381595 289.125683 
L 93.381595 288.999807 
L 93.66029 288.999807 
L 93.66029 288.873931 
L 95.998523 288.873931 
L 95.998523 288.748055 
L 96.717523 288.748055 
L 96.717523 288.622179 
L 98.723018 288.622179 
L 98.723018 288.496303 
L 102.362957 288.496303 
L 102.362957 288.370428 
L 102.708132 288.370428 
L 102.708132 288.244552 
L 103.707211 288.244552 
L 103.707211 288.118676 
L 104.501065 288.118676 
L 104.501065 287.9928 
L 105.26277 287.9928 
L 105.26277 287.866924 
L 107.378656 287.866924 
L 107.378656 287.741048 
L 107.904887 287.741048 
L 107.904887 287.489297 
L 108.416798 287.489297 
L 108.416798 287.363421 
L 109.638757 287.363421 
L 109.638757 287.237545 
L 110.335561 287.237545 
L 110.335561 287.111669 
L 111.656212 287.111669 
L 111.762192 286.734041 
L 111.86758 286.734041 
L 111.86758 286.608166 
L 112.690074 286.608166 
L 112.790402 286.356414 
L 113.765312 286.356414 
L 113.765312 286.230538 
L 115.83262 286.230538 
L 115.83262 286.104662 
L 116.419219 286.104662 
L 116.419219 285.978786 
L 116.746385 285.978786 
L 116.746385 285.727034 
L 116.988079 285.727034 
L 116.988079 285.475283 
L 117.617813 285.475283 
L 117.617813 285.349407 
L 118.74459 285.349407 
L 118.74459 285.223531 
L 119.177058 285.223531 
L 119.177058 285.097655 
L 120.748446 285.097655 
L 120.748446 284.845903 
L 120.879082 284.845903 
L 120.879082 284.720028 
L 121.329295 284.720028 
L 121.329295 284.468276 
L 121.706797 284.468276 
L 121.706797 284.3424 
L 123.202939 284.3424 
L 123.260379 284.090648 
L 123.431654 284.090648 
L 123.4884 283.713021 
L 123.713691 283.713021 
L 123.713691 283.461269 
L 123.991562 283.461269 
L 123.991562 283.335393 
L 124.588805 283.335393 
L 124.642171 283.083641 
L 124.801367 283.083641 
L 124.801367 282.957766 
L 125.167667 282.957766 
L 125.167667 282.83189 
L 125.322496 282.83189 
L 125.425011 282.580138 
L 125.678882 282.580138 
L 125.678882 282.454262 
L 126.851931 282.454262 
L 126.899255 282.076634 
L 127.134109 282.076634 
L 127.134109 281.824883 
L 128.089678 281.824883 
L 128.089678 281.447255 
L 128.743679 281.447255 
L 128.743679 281.321379 
L 128.871795 281.321379 
L 128.871795 281.195503 
L 129.292652 281.195503 
L 129.292652 281.069628 
L 129.7043 281.069628 
L 129.7043 280.943752 
L 130.734242 280.943752 
L 130.734242 280.692 
L 130.849533 280.692 
L 130.887807 280.440248 
L 131.002163 280.440248 
L 131.002163 280.314372 
L 131.341119 280.314372 
L 131.41562 280.062621 
L 131.563744 280.062621 
L 131.563744 279.936745 
L 131.71071 279.936745 
L 131.820186 279.684993 
L 132.322814 279.684993 
L 132.393534 279.433241 
L 133.188264 279.433241 
L 133.188264 279.307366 
L 133.457005 279.307366 
L 133.457005 279.18149 
L 133.78762 279.18149 
L 133.885683 278.929738 
L 134.047992 278.929738 
L 134.112526 278.426234 
L 134.526683 278.426234 
L 134.526683 278.300359 
L 134.931919 278.300359 
L 134.931919 278.174483 
L 135.449003 278.174483 
L 135.508912 277.922731 
L 135.657857 277.922731 
L 135.657857 277.796855 
L 135.835047 277.796855 
L 135.835047 277.670979 
L 136.068734 277.670979 
L 136.068734 277.545103 
L 136.668697 277.545103 
L 136.724851 277.167476 
L 137.030737 277.167476 
L 137.085822 276.915724 
L 137.331728 276.915724 
L 137.331728 276.789848 
L 137.707972 276.789848 
L 137.707972 276.663972 
L 137.972183 276.663972 
L 138.076838 276.160469 
L 138.284415 276.160469 
L 138.284415 276.034593 
L 138.412998 276.034593 
L 138.412998 275.908717 
L 138.642255 275.908717 
L 138.642255 275.782841 
L 139.018248 275.782841 
L 139.092553 275.53109 
L 139.215746 275.53109 
L 139.215746 275.405214 
L 139.676658 275.405214 
L 139.700607 275.153462 
L 139.914782 275.153462 
L 139.914782 275.027586 
L 140.103135 275.027586 
L 140.173284 274.398207 
L 140.359078 274.398207 
L 140.359078 274.272331 
L 140.747902 274.272331 
L 140.770526 273.894703 
L 140.860749 273.894703 
L 140.883238 273.517076 
L 141.062184 273.517076 
L 141.062184 273.3912 
L 141.195285 273.3912 
L 141.195285 273.265324 
L 141.393187 273.265324 
L 141.393187 273.013572 
L 141.718467 273.013572 
L 141.718467 272.887697 
L 141.84702 272.887697 
L 141.84702 272.761821 
L 142.290162 272.761821 
L 142.290162 272.635945 
L 142.518184 272.635945 
L 142.559347 272.384193 
L 142.661862 272.384193 
L 142.763822 272.006566 
L 143.10641 272.006566 
L 143.18612 271.754814 
L 143.521169 271.754814 
L 143.618588 271.377186 
L 144.022326 271.377186 
L 144.041338 271.125434 
L 144.136106 271.125434 
L 144.155003 270.873683 
L 144.454795 270.873683 
L 144.454795 270.621931 
L 144.85936 270.621931 
L 144.85936 270.496055 
L 145.004344 270.496055 
L 145.004344 270.370179 
L 145.308773 270.370179 
L 145.308773 270.244303 
L 145.83427 270.244303 
L 145.868787 269.866676 
L 145.971958 269.866676 
L 146.023332 269.614924 
L 146.159649 269.614924 
L 146.210514 269.363172 
L 146.395851 269.363172 
L 146.446082 268.985545 
L 146.512849 268.985545 
L 146.579379 268.733793 
L 146.662213 268.733793 
L 146.662213 268.482041 
L 147.722752 268.482041 
L 147.722752 268.356166 
L 147.986506 268.356166 
L 147.986506 268.23029 
L 148.307296 268.23029 
L 148.322436 267.978538 
L 148.652472 267.978538 
L 148.652472 267.475034 
L 148.976817 267.475034 
L 148.976817 267.349159 
L 149.180344 267.349159 
L 149.281288 266.971531 
L 149.453084 266.971531 
L 149.495789 266.719779 
L 149.764026 266.719779 
L 149.764026 266.593903 
L 149.91759 266.593903 
L 149.91759 266.468028 
L 150.097474 266.468028 
L 150.179921 266.0904 
L 150.221009 266.0904 
L 150.221009 265.964524 
L 150.370903 265.964524 
L 150.370903 265.838648 
L 150.506141 265.838648 
L 150.573397 265.586897 
L 150.667154 265.586897 
L 150.72052 265.209269 
L 151.246016 265.209269 
L 151.246016 265.083393 
L 151.41369 265.083393 
L 151.41369 264.957517 
L 151.932924 264.957517 
L 151.945411 264.705766 
L 152.352898 264.705766 
L 152.352898 264.57989 
L 152.691854 264.57989 
L 152.691854 264.454014 
L 153.650761 264.454014 
L 153.650761 264.328138 
L 153.775755 264.328138 
L 153.775755 264.076386 
L 153.899924 264.076386 
L 153.933646 263.698759 
L 154.267588 263.698759 
L 154.267588 263.572883 
L 154.388563 263.572883 
L 154.388563 263.447007 
L 154.628204 263.447007 
L 154.73613 263.195255 
L 154.843441 263.195255 
L 154.896868 262.943503 
L 154.982037 262.943503 
L 155.077392 262.691752 
L 155.670341 262.691752 
L 155.670341 262.565876 
L 155.782649 262.565876 
L 155.782649 262.314124 
L 156.005274 262.314124 
L 156.005274 262.188248 
L 156.334347 262.188248 
L 156.442771 261.810621 
L 156.472233 261.810621 
L 156.550574 261.432993 
L 156.75468 261.432993 
L 156.75468 261.307117 
L 157.04247 261.307117 
L 157.080512 261.055366 
L 157.391454 261.055366 
L 157.391454 260.92949 
L 157.540383 260.92949 
L 157.540383 260.803614 
L 157.898535 260.803614 
L 157.898535 260.551862 
L 158.294582 260.551862 
L 158.294582 260.425986 
L 158.436556 260.425986 
L 158.489522 260.174234 
L 158.612531 260.174234 
L 158.612531 259.922483 
L 158.91658 259.922483 
L 158.968213 259.670731 
L 159.376252 259.670731 
L 159.485256 259.167228 
L 159.800309 259.167228 
L 159.800309 259.041352 
L 159.980326 259.041352 
L 159.980326 258.915476 
L 160.118259 258.915476 
L 160.198926 258.286097 
L 160.335271 258.286097 
L 160.335271 258.160221 
L 161.079527 258.160221 
L 161.079527 258.034345 
L 161.23253 258.034345 
L 161.308567 257.656717 
L 161.609678 257.656717 
L 161.669327 257.27909 
L 161.854518 257.27909 
L 161.854518 257.153214 
L 162.413713 257.153214 
L 162.428019 256.901462 
L 163.22595 256.901462 
L 163.22595 256.775586 
L 163.558786 256.775586 
L 163.558786 256.64971 
L 163.672897 256.64971 
L 163.672897 256.523834 
L 163.819551 256.523834 
L 163.925494 256.146207 
L 164.239791 256.146207 
L 164.239791 256.020331 
L 164.356312 256.020331 
L 164.356312 255.894455 
L 164.523356 255.894455 
L 164.523356 255.768579 
L 164.846771 255.768579 
L 164.915805 255.516828 
L 165.065549 255.516828 
L 165.065549 255.390952 
L 165.324768 255.390952 
L 165.324768 255.265076 
L 165.658907 255.265076 
L 165.707018 255.013324 
L 165.92201 255.013324 
L 165.92201 254.887448 
L 166.373767 254.887448 
L 166.437427 254.635697 
L 166.500873 254.635697 
L 166.500873 254.509821 
L 166.695635 254.509821 
L 166.763896 254.132193 
L 166.905315 254.132193 
L 166.905315 254.006317 
L 167.01769 254.006317 
L 167.01769 253.880441 
L 167.162782 253.880441 
L 167.162782 253.754566 
L 167.487935 253.754566 
L 167.498859 253.376938 
L 167.786064 253.376938 
L 167.786064 253.125186 
L 167.957371 253.125186 
L 168.047747 252.621683 
L 168.373724 252.621683 
L 168.373724 252.495807 
L 168.539786 252.495807 
L 168.555279 251.992303 
L 169.194741 251.992303 
L 169.194741 251.614676 
L 169.388343 251.614676 
L 169.447515 251.237048 
L 169.535924 251.237048 
L 169.535924 250.985297 
L 169.653161 250.985297 
L 169.653161 250.859421 
L 169.837305 250.859421 
L 169.856584 250.607669 
L 170.014887 250.607669 
L 170.014887 250.481793 
L 170.219181 250.481793 
L 170.219181 250.355917 
L 170.37916 250.355917 
L 170.37916 249.97829 
L 170.551723 249.97829 
L 170.551723 249.726538 
L 170.777843 249.726538 
L 170.83738 249.474786 
L 171.271304 249.474786 
L 171.271304 249.223034 
L 171.541914 249.223034 
L 171.603476 248.971283 
L 171.704179 248.971283 
L 171.704179 248.845407 
L 172.186995 248.845407 
L 172.186995 248.593655 
L 172.4742 248.593655 
L 172.4742 248.216028 
L 172.62865 248.216028 
L 172.657728 247.964276 
L 172.777719 247.964276 
L 172.777719 247.712524 
L 173.0195 247.712524 
L 173.0195 247.586648 
L 173.330442 247.586648 
L 173.330442 247.460772 
L 173.462145 247.460772 
L 173.462145 247.209021 
L 173.902386 247.209021 
L 173.937319 246.957269 
L 174.141731 246.957269 
L 174.160901 246.453766 
L 174.502663 246.453766 
L 174.596505 245.950262 
L 174.834629 245.950262 
L 174.834629 245.824386 
L 175.088024 245.824386 
L 175.088024 245.572634 
L 175.345249 245.572634 
L 175.345249 245.446759 
L 175.510044 245.446759 
L 175.510044 245.320883 
L 175.77919 245.320883 
L 175.77919 245.195007 
L 176.186149 245.195007 
L 176.247984 244.943255 
L 176.59796 244.943255 
L 176.59796 244.691503 
L 176.974571 244.691503 
L 177.00095 244.313876 
L 177.142107 244.313876 
L 177.142107 244.188 
L 177.35996 244.188 
L 177.35996 244.062124 
L 177.572122 244.062124 
L 177.572122 243.936248 
L 177.911078 243.936248 
L 177.911078 243.684497 
L 178.525678 243.684497 
L 178.525678 243.558621 
L 178.652865 243.558621 
L 178.652865 243.432745 
L 178.993815 243.432745 
L 178.993815 243.180993 
L 179.156125 243.180993 
L 179.188419 242.803366 
L 179.284971 242.803366 
L 179.284971 242.67749 
L 179.476602 242.67749 
L 179.548682 242.173986 
L 179.623354 242.173986 
L 179.623354 241.922234 
L 179.746203 241.922234 
L 179.822933 241.544607 
L 179.873913 241.544607 
L 179.952941 241.292855 
L 180.185272 241.292855 
L 180.185272 241.166979 
L 180.401022 241.166979 
L 180.469652 240.663476 
L 180.765989 240.663476 
L 180.765989 240.411724 
L 181.118716 240.411724 
L 181.174227 240.034097 
L 181.300497 240.034097 
L 181.300497 239.908221 
L 181.509082 239.908221 
L 181.509082 239.656469 
L 181.909288 239.656469 
L 181.909288 239.530593 
L 182.186452 239.530593 
L 182.276281 239.02709 
L 182.567747 239.02709 
L 182.567747 238.901214 
L 182.789478 238.901214 
L 182.816104 238.523586 
L 182.948674 238.523586 
L 183.054061 238.145959 
L 183.26308 238.145959 
L 183.26308 238.020083 
L 183.444086 238.020083 
L 183.444086 237.894207 
L 183.560697 237.894207 
L 183.576965 237.390703 
L 183.736572 237.390703 
L 183.782583 237.138952 
L 184.254541 237.138952 
L 184.323878 236.635448 
L 184.902065 236.635448 
L 184.904229 236.257821 
L 185.164356 236.257821 
L 185.270804 235.880193 
L 185.294142 235.880193 
L 185.294142 235.754317 
L 185.559424 235.754317 
L 185.584495 235.37669 
L 185.802452 235.37669 
L 185.802452 235.250814 
L 185.948414 235.250814 
L 185.968882 234.74731 
L 186.214788 234.74731 
L 186.283311 234.243807 
L 186.483414 234.243807 
L 186.483414 233.992055 
L 186.783553 233.992055 
L 186.783553 233.866179 
L 186.912399 233.866179 
L 186.955153 233.614428 
L 187.278469 233.614428 
L 187.288007 233.110924 
L 187.398295 233.110924 
L 187.398295 232.859172 
L 360.8064 232.859172 
L 360.8064 232.859172 
" style="fill: none; stroke: #000080; stroke-width: 1.5; stroke-linecap: square"/>
   </g>
   <g id="line2d_36">
    <defs>
     <path id="m98cc51e86a" d="M 0 6 
C 1.591219 6 3.117479 5.367802 4.242641 4.242641 
C 5.367802 3.117479 6 1.591219 6 0 
C 6 -1.591219 5.367802 -3.117479 4.242641 -4.242641 
C 3.117479 -5.367802 1.591219 -6 0 -6 
C -1.591219 -6 -3.117479 -5.367802 -4.242641 -4.242641 
C -5.367802 -3.117479 -6 -1.591219 -6 0 
C -6 1.591219 -5.367802 3.117479 -4.242641 4.242641 
C -3.117479 5.367802 -1.591219 6 0 6 
z
" style="stroke: #000080; stroke-width: 1.5"/>
    </defs>
    <g>
     <use xlink:href="#m98cc51e86a" x="61.029752" y="290.13269" style="fill-opacity: 0; stroke: #000080; stroke-width: 1.5"/>
     <use xlink:href="#m98cc51e86a" x="146.662213" y="268.733793" style="fill-opacity: 0; stroke: #000080; stroke-width: 1.5"/>
     <use xlink:href="#m98cc51e86a" x="187.398295" y="233.110924" style="fill-opacity: 0; stroke: #000080; stroke-width: 1.5"/>
     <use xlink:href="#m98cc51e86a" x="187.398295" y="232.859172" style="fill-opacity: 0; stroke: #000080; stroke-width: 1.5"/>
     <use xlink:href="#m98cc51e86a" x="187.398295" y="232.859172" style="fill-opacity: 0; stroke: #000080; stroke-width: 1.5"/>
     <use xlink:href="#m98cc51e86a" x="360.8064" y="232.859172" style="fill-opacity: 0; stroke: #000080; stroke-width: 1.5"/>
    </g>
   </g>
   <g id="line2d_37">
    <path style="fill: none; stroke: #000080; stroke-width: 1.5; stroke-linecap: square"/>
    <g/>
   </g>
   <g id="line2d_38">
    <path d="M 187.562523 232.859172 
" clip-path="url(#peb1e360f48)" style="fill: none; stroke: #000080; stroke-width: 1.5; stroke-linecap: square"/>
    <defs>
     <path id="me1f09324be" d="M -12 12 
L 12 -12 
M -12 -12 
L 12 12 
" style="stroke: #000080"/>
    </defs>
    <g clip-path="url(#peb1e360f48)">
     <use xlink:href="#me1f09324be" x="187.562523" y="232.859172" style="fill: #000080; stroke: #000080"/>
    </g>
   </g>
   <g id="line2d_39">
    <defs>
     <path id="mbe20eaf419" d="M 0 1.5 
C 0.397805 1.5 0.77937 1.341951 1.06066 1.06066 
C 1.341951 0.77937 1.5 0.397805 1.5 0 
C 1.5 -0.397805 1.341951 -0.77937 1.06066 -1.06066 
C 0.77937 -1.341951 0.397805 -1.5 0 -1.5 
C -0.397805 -1.5 -0.77937 -1.341951 -1.06066 -1.06066 
C -1.341951 -0.77937 -1.5 -0.397805 -1.5 0 
C -1.5 0.397805 -1.341951 0.77937 -1.06066 1.06066 
C -0.77937 1.341951 -0.397805 1.5 0 1.5 
z
" style="stroke: #ff00ff"/>
    </defs>
    <g>
     <use xlink:href="#mbe20eaf419" x="187.360338" y="230.971034" style="fill: #ff00ff; stroke: #ff00ff"/>
     <use xlink:href="#mbe20eaf419" x="187.360338" y="230.971034" style="fill: #ff00ff; stroke: #ff00ff"/>
    </g>
   </g>
   <g id="line2d_40">
    <path d="M 14.2848 298.944 
L 14.2848 291.139697 
L 27.323974 291.139697 
L 27.323974 291.013821 
L 34.951403 291.013821 
L 34.951403 290.887945 
L 40.363149 290.887945 
L 40.363149 290.384441 
L 44.560826 290.384441 
L 44.560826 290.258566 
L 50.890391 290.258566 
L 50.890391 290.006814 
L 53.402323 290.006814 
L 53.402323 289.755062 
L 59.392932 289.755062 
L 59.392932 289.50331 
L 62.535479 289.50331 
L 62.535479 289.251559 
L 66.441498 289.251559 
L 66.441498 289.125683 
L 74.068926 289.125683 
L 74.068926 288.999807 
L 76.284608 288.999807 
L 76.284608 288.873931 
L 77.628862 288.873931 
L 77.628862 288.748055 
L 80.059535 288.748055 
L 80.059535 288.622179 
L 81.166416 288.622179 
L 81.166416 288.496303 
L 81.696354 288.496303 
L 81.696354 288.370428 
L 84.142855 288.370428 
L 84.142855 288.244552 
L 85.038813 288.244552 
L 85.038813 288.118676 
L 86.307488 288.118676 
L 86.307488 287.9928 
L 87.495981 287.9928 
L 87.495981 287.866924 
L 88.613828 287.866924 
L 88.613828 287.615172 
L 89.668958 287.615172 
L 89.668958 287.489297 
L 98.510456 287.489297 
L 98.510456 287.363421 
L 99.346662 287.363421 
L 99.346662 287.111669 
L 99.751228 287.111669 
L 99.751228 286.985793 
L 102.011329 286.985793 
L 102.011329 286.734041 
L 102.187964 286.734041 
L 102.187964 286.608166 
L 102.708132 286.608166 
L 102.708132 286.48229 
L 103.214303 286.48229 
L 103.214303 286.356414 
L 104.344952 286.356414 
L 104.344952 286.230538 
L 106.42077 286.230538 
L 106.42077 285.978786 
L 107.244765 285.978786 
L 107.244765 285.85291 
L 107.378656 285.85291 
L 107.378656 285.727034 
L 107.643612 285.727034 
L 107.643612 285.601159 
L 109.520071 285.601159 
L 109.520071 285.475283 
L 109.638757 285.475283 
L 109.638757 285.349407 
L 110.786158 285.349407 
L 110.897141 285.097655 
L 111.007473 285.097655 
L 111.007473 284.971779 
L 111.54963 284.971779 
L 111.54963 284.845903 
L 111.86758 284.845903 
L 111.97238 284.468276 
L 112.283321 284.468276 
L 112.283321 284.3424 
L 112.487797 284.3424 
L 112.487797 284.216524 
L 113.186449 284.216524 
L 113.186449 284.090648 
L 113.765312 284.090648 
L 113.765312 283.964772 
L 114.510421 283.964772 
L 114.510421 283.713021 
L 114.7824 283.713021 
L 114.7824 283.587145 
L 115.489021 283.587145 
L 115.489021 283.335393 
L 115.83262 283.335393 
L 115.83262 283.209517 
L 116.002095 283.209517 
L 116.002095 283.083641 
L 116.419219 283.083641 
L 116.419219 282.957766 
L 116.827295 282.957766 
L 116.827295 282.83189 
L 117.462345 282.83189 
L 117.462345 282.706014 
L 117.848632 282.706014 
L 117.924947 282.454262 
L 118.301945 282.454262 
L 118.301945 282.328386 
L 118.74459 282.328386 
L 118.74459 282.20251 
L 119.105667 282.20251 
L 119.177058 281.950759 
L 119.944983 281.950759 
L 120.013265 281.699007 
L 120.351004 281.699007 
L 120.351004 281.573131 
L 120.879082 281.573131 
L 120.944062 281.321379 
L 121.518993 281.321379 
L 121.518993 281.195503 
L 121.706797 281.195503 
L 121.768984 280.943752 
L 122.677931 280.943752 
L 122.677931 280.817876 
L 122.795872 280.817876 
L 122.854567 280.440248 
L 123.145323 280.440248 
L 123.145323 280.314372 
L 123.317644 280.314372 
L 123.317644 280.188497 
L 123.657621 280.188497 
L 123.657621 280.062621 
L 123.825333 280.062621 
L 123.825333 279.936745 
L 124.101572 279.936745 
L 124.210942 279.684993 
L 125.167667 279.684993 
L 125.271028 279.433241 
L 125.929373 279.433241 
L 125.929373 279.18149 
L 126.127391 279.18149 
L 126.127391 279.055614 
L 126.420564 279.055614 
L 126.420564 278.929738 
L 126.804487 278.929738 
L 126.804487 278.803862 
L 127.18073 278.803862 
L 127.18073 278.677986 
L 127.821575 278.677986 
L 127.866525 278.300359 
L 128.000734 278.300359 
L 128.000734 278.174483 
L 128.266313 278.174483 
L 128.354013 277.796855 
L 128.657782 277.796855 
L 128.743679 277.419228 
L 129.167381 277.419228 
L 129.209231 277.167476 
L 129.417095 277.167476 
L 129.499602 276.915724 
L 129.622688 276.915724 
L 129.622688 276.789848 
L 129.744974 276.789848 
L 129.78556 276.538097 
L 129.906795 276.538097 
L 129.987186 276.286345 
L 130.146945 276.286345 
L 130.146945 276.160469 
L 130.265881 276.160469 
L 130.265881 276.034593 
L 130.46245 276.034593 
L 130.46245 275.908717 
L 131.002163 275.908717 
L 131.002163 275.782841 
L 131.115828 275.782841 
L 131.191226 275.405214 
L 131.341119 275.405214 
L 131.341119 275.279338 
L 131.563744 275.279338 
L 131.563744 275.153462 
L 131.747272 275.153462 
L 131.747272 275.027586 
L 131.929028 275.027586 
L 131.929028 274.775834 
L 132.144842 274.775834 
L 132.144842 274.649959 
L 132.358208 274.649959 
L 132.358208 274.524083 
L 132.534182 274.524083 
L 132.534182 274.398207 
L 132.846847 274.398207 
L 132.846847 274.272331 
L 133.853052 274.272331 
L 133.853052 274.146455 
L 134.015642 274.146455 
L 134.080287 273.768828 
L 134.176839 273.768828 
L 134.208913 273.517076 
L 134.400219 273.517076 
L 134.400219 273.3912 
L 134.87014 273.3912 
L 134.87014 273.265324 
L 135.14656 273.265324 
L 135.14656 273.013572 
L 135.835047 273.013572 
L 135.92302 272.761821 
L 135.981441 272.761821 
L 135.981441 272.635945 
L 136.097741 272.635945 
L 136.097741 272.510069 
L 136.44239 272.510069 
L 136.44239 272.384193 
L 136.724851 272.384193 
L 136.724851 272.132441 
L 136.892314 272.132441 
L 136.892314 271.88069 
L 137.168148 271.88069 
L 137.168148 271.754814 
L 137.358854 271.754814 
L 137.439996 271.503062 
L 137.520791 271.503062 
L 137.520791 271.125434 
L 137.866944 271.125434 
L 137.866944 270.999559 
L 138.128947 270.999559 
L 138.232735 270.621931 
L 138.335954 270.621931 
L 138.335954 270.496055 
L 138.515235 270.496055 
L 138.59155 270.244303 
L 138.642255 270.244303 
L 138.642255 270.118428 
L 138.868751 270.118428 
L 138.868751 269.992552 
L 139.289277 269.992552 
L 139.289277 269.866676 
L 139.676658 269.866676 
L 139.700607 269.614924 
L 139.819894 269.614924 
L 139.819894 269.489048 
L 141.106655 269.489048 
L 141.106655 269.363172 
L 141.371301 269.363172 
L 141.436884 268.985545 
L 141.718467 268.985545 
L 141.718467 268.859669 
L 141.84702 268.859669 
L 141.84702 268.733793 
L 142.080444 268.733793 
L 142.080444 268.607917 
L 142.206555 268.607917 
L 142.206555 268.482041 
L 142.331827 268.482041 
L 142.331827 268.356166 
L 142.824734 268.356166 
L 142.824734 268.23029 
L 143.046405 268.23029 
L 143.046405 267.978538 
L 143.946089 267.978538 
L 143.946089 267.726786 
L 144.28675 267.726786 
L 144.28675 267.60091 
L 144.639767 267.60091 
L 144.639767 267.223283 
L 144.804702 267.223283 
L 144.895711 266.845655 
L 145.326529 266.845655 
L 145.326529 266.719779 
L 145.93763 266.719779 
L 145.989098 266.468028 
L 146.711739 266.468028 
L 146.711739 266.216276 
L 147.087167 266.216276 
L 147.087167 265.964524 
L 147.816265 265.964524 
L 147.924778 265.586897 
L 147.955668 265.586897 
L 148.063382 264.957517 
L 148.109358 264.957517 
L 148.170484 264.57989 
L 148.367783 264.57989 
L 148.367783 264.454014 
L 148.533127 264.454014 
L 148.533127 264.328138 
L 148.667336 264.328138 
L 148.667336 264.076386 
L 148.903591 264.076386 
L 148.903591 263.95051 
L 149.151403 263.95051 
L 149.223672 263.572883 
L 149.524205 263.572883 
L 149.552579 263.321131 
L 149.98698 263.321131 
L 149.98698 263.195255 
L 150.138743 263.195255 
L 150.179921 262.691752 
L 150.370903 262.691752 
L 150.479171 262.44 
L 150.519611 262.44 
L 150.519611 262.314124 
L 150.707193 262.314124 
L 150.707193 262.188248 
L 151.011358 262.188248 
L 151.011358 262.062372 
L 152.082223 262.062372 
L 152.082223 261.936497 
L 152.193425 261.936497 
L 152.193425 261.810621 
L 152.55942 261.810621 
L 152.643804 261.558869 
L 153.455939 261.558869 
L 153.455939 261.432993 
L 153.673549 261.432993 
L 153.673549 261.307117 
L 154.344662 261.307117 
L 154.410475 261.055366 
L 154.497869 261.055366 
L 154.497869 260.92949 
L 154.789862 260.92949 
L 154.896868 260.677738 
L 154.907535 260.677738 
L 154.907535 260.425986 
L 155.318906 260.425986 
L 155.402189 260.174234 
L 155.639595 260.174234 
L 155.639595 259.922483 
L 155.843627 259.922483 
L 155.843627 259.796607 
L 156.423104 259.796607 
L 156.472233 259.544855 
L 156.560344 259.544855 
L 156.560344 259.418979 
L 156.947029 259.418979 
L 156.947029 259.293103 
L 157.061501 259.293103 
L 157.061501 259.167228 
L 157.316545 259.167228 
L 157.316545 258.915476 
L 157.493969 258.915476 
L 157.577432 258.537848 
L 157.669736 258.537848 
L 157.669736 258.286097 
L 158.034489 258.286097 
L 158.034489 258.034345 
L 158.58624 258.034345 
L 158.58624 257.908469 
L 159.088142 257.908469 
L 159.198823 257.530841 
L 159.325729 257.530841 
L 159.325729 257.27909 
L 159.618554 257.27909 
L 159.68485 257.027338 
L 159.890533 257.027338 
L 159.890533 256.901462 
L 160.399093 256.901462 
L 160.454761 256.523834 
L 160.534001 256.523834 
L 160.534001 256.397959 
L 160.675797 256.397959 
L 160.738476 256.020331 
L 160.909774 256.020331 
L 160.940753 255.642703 
L 161.064158 255.642703 
L 161.064158 255.516828 
L 161.316153 255.516828 
L 161.399407 255.265076 
L 161.437128 255.265076 
L 161.51985 255.013324 
L 161.728786 255.013324 
L 161.728786 254.887448 
L 162.248415 254.887448 
L 162.349204 254.509821 
L 162.577572 254.509821 
L 162.605924 254.258069 
L 163.026155 254.258069 
L 163.026155 254.006317 
L 163.191653 254.006317 
L 163.191653 253.880441 
L 163.314829 253.880441 
L 163.314829 253.754566 
L 163.511597 253.754566 
L 163.511597 253.502814 
L 163.746367 253.502814 
L 163.786321 253.125186 
L 163.925494 253.125186 
L 163.925494 252.99931 
L 164.207296 252.99931 
L 164.207296 252.873434 
L 165.021997 252.873434 
L 165.059334 252.621683 
L 165.226438 252.621683 
L 165.226438 252.495807 
L 165.814821 252.495807 
L 165.92201 252.244055 
L 166.093428 252.244055 
L 166.134572 251.992303 
L 166.222436 251.992303 
L 166.222436 251.866428 
L 166.396941 251.866428 
L 166.396941 251.740552 
L 166.529641 251.740552 
L 166.529641 251.614676 
L 166.712723 251.614676 
L 166.712723 251.4888 
L 167.312278 251.4888 
L 167.345339 251.111172 
L 167.493397 251.111172 
L 167.580589 250.859421 
L 168.216699 250.859421 
L 168.216699 250.607669 
L 168.91828 250.607669 
L 168.989038 250.104166 
L 169.044448 250.104166 
L 169.074603 249.600662 
L 169.417952 249.600662 
L 169.501592 249.34891 
L 169.575085 249.34891 
L 169.575085 249.223034 
L 169.832482 249.223034 
L 169.832482 249.097159 
L 170.157651 249.097159 
L 170.228629 248.593655 
L 170.2758 248.593655 
L 170.2758 248.467779 
L 170.421281 248.467779 
L 170.444641 248.090152 
L 170.61198 248.090152 
L 170.61198 247.964276 
L 170.846523 247.964276 
L 170.860229 247.586648 
L 171.064631 247.586648 
L 171.064631 247.334897 
L 171.743437 247.334897 
L 171.743437 247.209021 
L 172.178481 247.209021 
L 172.284629 246.831393 
L 172.415427 246.831393 
L 172.482581 246.453766 
L 173.03578 246.453766 
L 173.10076 246.076138 
L 173.205875 246.076138 
L 173.205875 245.950262 
L 173.714971 245.950262 
L 173.714971 245.69851 
L 173.832324 245.69851 
L 173.871279 245.446759 
L 174.168564 245.446759 
L 174.225934 245.195007 
L 174.423472 245.195007 
L 174.423472 245.069131 
L 174.5365 245.069131 
L 174.5365 244.943255 
L 174.890006 244.943255 
L 174.890006 244.817379 
L 175.178998 244.817379 
L 175.178998 244.691503 
L 175.492201 244.691503 
L 175.492201 244.565628 
L 175.796762 244.565628 
L 175.796762 244.439752 
L 175.912332 244.439752 
L 175.912332 244.188 
L 176.631594 244.188 
L 176.705378 243.936248 
L 176.96797 243.936248 
L 176.96797 243.684497 
L 177.78824 243.684497 
L 177.845034 243.432745 
L 178.274853 243.432745 
L 178.373134 242.803366 
L 178.646828 242.803366 
L 178.680008 242.425738 
L 178.767203 242.425738 
L 178.859967 242.04811 
L 178.898732 242.04811 
L 178.958215 241.796359 
L 179.66344 241.796359 
L 179.66344 241.670483 
L 179.783186 241.670483 
L 179.879569 241.418731 
L 179.896526 241.418731 
L 180.006379 240.663476 
L 180.090447 240.663476 
L 180.151859 240.159972 
L 180.224179 240.159972 
L 180.224179 240.034097 
L 180.56259 240.034097 
L 180.638783 239.530593 
L 180.774079 239.530593 
L 180.774079 239.278841 
L 181.219045 239.278841 
L 181.219045 239.152966 
L 181.720508 239.152966 
L 181.817686 238.775338 
L 181.886429 238.775338 
L 181.886429 238.523586 
L 182.045861 238.523586 
L 182.045861 238.271834 
L 182.271302 238.271834 
L 182.271302 238.145959 
L 182.513747 238.145959 
L 182.513747 238.020083 
L 182.714236 238.020083 
L 182.714236 237.894207 
L 183.054061 237.894207 
L 183.132716 237.138952 
L 183.30555 237.138952 
L 183.385509 236.761324 
L 183.775688 236.761324 
L 183.775688 236.509572 
L 184.157939 236.509572 
L 184.254541 236.006069 
L 184.377384 236.006069 
L 184.377384 235.754317 
L 184.886904 235.754317 
L 184.886904 235.628441 
L 185.187826 235.628441 
L 185.253813 234.74731 
L 185.347076 234.74731 
L 185.347076 234.621434 
L 185.55106 234.621434 
L 185.55106 234.495559 
L 185.684446 234.495559 
L 185.690676 233.992055 
L 185.798324 233.992055 
L 185.798324 233.866179 
L 185.95251 233.866179 
L 185.95251 233.614428 
L 186.079022 233.614428 
L 186.174363 232.859172 
L 186.245049 232.859172 
L 186.245049 232.607421 
L 186.471468 232.607421 
L 186.574752 232.229793 
L 186.588612 232.229793 
L 186.588612 232.103917 
L 186.708966 232.103917 
L 186.708966 231.978041 
L 186.853942 231.978041 
L 186.853942 231.72629 
L 186.972615 231.72629 
L 187.071262 231.348662 
L 187.205823 231.348662 
L 187.205823 231.222786 
L 187.360338 231.222786 
L 187.360338 230.971034 
L 360.8064 230.971034 
L 360.8064 230.971034 
" style="fill: none; stroke: #ff00ff; stroke-width: 1.5; stroke-linecap: square"/>
   </g>
   <g id="line2d_41">
    <defs>
     <path id="m840de0f201" d="M -0 8.485281 
L 5.091169 0 
L 0 -8.485281 
L -5.091169 -0 
z
" style="stroke: #ff00ff; stroke-width: 1.5; stroke-linejoin: miter"/>
    </defs>
    <g>
     <use xlink:href="#m840de0f201" x="80.059535" y="288.748055" style="fill-opacity: 0; stroke: #ff00ff; stroke-width: 1.5; stroke-linejoin: miter"/>
     <use xlink:href="#m840de0f201" x="136.44239" y="272.510069" style="fill-opacity: 0; stroke: #ff00ff; stroke-width: 1.5; stroke-linejoin: miter"/>
     <use xlink:href="#m840de0f201" x="187.360338" y="231.222786" style="fill-opacity: 0; stroke: #ff00ff; stroke-width: 1.5; stroke-linejoin: miter"/>
     <use xlink:href="#m840de0f201" x="187.360338" y="230.971034" style="fill-opacity: 0; stroke: #ff00ff; stroke-width: 1.5; stroke-linejoin: miter"/>
     <use xlink:href="#m840de0f201" x="187.360338" y="230.971034" style="fill-opacity: 0; stroke: #ff00ff; stroke-width: 1.5; stroke-linejoin: miter"/>
     <use xlink:href="#m840de0f201" x="360.8064" y="230.971034" style="fill-opacity: 0; stroke: #ff00ff; stroke-width: 1.5; stroke-linejoin: miter"/>
    </g>
   </g>
   <g id="line2d_42">
    <path style="fill: none; stroke: #ff00ff; stroke-width: 1.5; stroke-linecap: square"/>
    <g/>
   </g>
   <g id="line2d_43">
    <path d="M 187.560643 230.971034 
" clip-path="url(#peb1e360f48)" style="fill: none; stroke: #ff00ff; stroke-width: 1.5; stroke-linecap: square"/>
    <defs>
     <path id="md5f75e34c6" d="M -12 12 
L 12 -12 
M -12 -12 
L 12 12 
" style="stroke: #ff00ff"/>
    </defs>
    <g clip-path="url(#peb1e360f48)">
     <use xlink:href="#md5f75e34c6" x="187.560643" y="230.971034" style="fill: #ff00ff; stroke: #ff00ff"/>
    </g>
   </g>
   <g id="line2d_44">
    <defs>
     <path id="mfcdc0ce03a" d="M 0 1.5 
C 0.397805 1.5 0.77937 1.341951 1.06066 1.06066 
C 1.341951 0.77937 1.5 0.397805 1.5 0 
C 1.5 -0.397805 1.341951 -0.77937 1.06066 -1.06066 
C 0.77937 -1.341951 0.397805 -1.5 0 -1.5 
C -0.397805 -1.5 -0.77937 -1.341951 -1.06066 -1.06066 
C -1.341951 -0.77937 -1.5 -0.397805 -1.5 0 
C -1.5 0.397805 -1.341951 0.77937 -1.06066 1.06066 
C -0.77937 1.341951 -0.397805 1.5 0 1.5 
z
" style="stroke: #ff7500"/>
    </defs>
    <g>
     <use xlink:href="#mfcdc0ce03a" x="222.953167" y="218.257572" style="fill: #ff7500; stroke: #ff7500"/>
     <use xlink:href="#mfcdc0ce03a" x="222.953167" y="218.257572" style="fill: #ff7500; stroke: #ff7500"/>
    </g>
   </g>
   <g id="line2d_45">
    <path d="M 14.2848 298.944 
L 14.2848 291.139697 
L 27.323974 291.139697 
L 27.323974 290.762069 
L 34.951403 290.762069 
L 34.951403 290.258566 
L 47.990577 290.258566 
L 47.990577 290.13269 
L 50.890391 290.13269 
L 50.890391 289.755062 
L 53.402323 289.755062 
L 53.402323 289.629186 
L 55.618005 289.629186 
L 55.618005 289.50331 
L 61.029752 289.50331 
L 61.029752 289.377434 
L 71.556993 289.377434 
L 71.556993 289.251559 
L 72.432107 289.251559 
L 72.432107 288.496303 
L 78.88343 288.496303 
L 78.88343 288.370428 
L 80.059535 288.370428 
L 80.059535 288.244552 
L 93.098709 288.244552 
L 93.098709 287.9928 
L 95.752617 287.9928 
L 95.752617 287.866924 
L 95.998523 287.866924 
L 95.998523 287.741048 
L 96.241256 287.741048 
L 96.241256 287.615172 
L 97.18203 287.615172 
L 97.18203 287.489297 
L 98.510456 287.489297 
L 98.510456 287.111669 
L 100.726138 287.111669 
L 100.726138 286.985793 
L 105.559021 286.985793 
L 105.559021 286.859917 
L 105.705415 286.859917 
L 105.705415 286.734041 
L 106.137884 286.734041 
L 106.137884 286.48229 
L 107.643612 286.48229 
L 107.643612 286.230538 
L 109.520071 286.230538 
L 109.520071 286.104662 
L 111.54963 286.104662 
L 111.54963 285.727034 
L 112.487797 285.727034 
L 112.487797 285.601159 
L 112.690074 285.601159 
L 112.690074 285.475283 
L 113.765312 285.475283 
L 113.765312 285.349407 
L 114.7824 285.349407 
L 114.872193 284.971779 
L 115.747307 284.971779 
L 115.747307 284.468276 
L 116.501546 284.468276 
L 116.501546 284.3424 
L 117.540239 284.3424 
L 117.540239 283.964772 
L 117.848632 283.964772 
L 117.848632 283.838897 
L 118.376446 283.838897 
L 118.376446 283.461269 
L 119.177058 283.461269 
L 119.177058 283.335393 
L 119.944983 283.335393 
L 120.013265 283.083641 
L 120.216635 283.083641 
L 120.216635 282.957766 
L 120.41783 282.957766 
L 120.41783 282.83189 
L 120.550775 282.83189 
L 120.550775 282.706014 
L 120.682786 282.706014 
L 120.682786 282.580138 
L 121.39274 282.580138 
L 121.39274 282.454262 
L 122.076872 282.454262 
L 122.076872 282.328386 
L 122.736994 282.328386 
L 122.736994 282.076634 
L 123.374735 282.076634 
L 123.374735 281.950759 
L 123.991562 281.950759 
L 123.991562 281.824883 
L 124.319679 281.824883 
L 124.319679 281.699007 
L 124.588805 281.699007 
L 124.588805 281.069628 
L 125.219419 281.069628 
L 125.219419 280.943752 
L 125.729248 280.943752 
L 125.729248 280.566124 
L 126.274549 280.566124 
L 126.323346 280.188497 
L 126.804487 280.188497 
L 126.804487 279.936745 
L 127.319904 279.936745 
L 127.319904 279.559117 
L 128.310214 279.559117 
L 128.310214 279.433241 
L 128.441306 279.433241 
L 128.441306 279.18149 
L 128.657782 279.18149 
L 128.657782 279.055614 
L 128.786481 279.055614 
L 128.786481 278.929738 
L 129.250988 278.929738 
L 129.250988 278.803862 
L 129.7043 278.803862 
L 129.78556 278.426234 
L 131.002163 278.426234 
L 131.002163 278.300359 
L 131.341119 278.300359 
L 131.341119 278.174483 
L 132.984158 278.174483 
L 132.984158 277.922731 
L 133.356676 277.922731 
L 133.356676 277.796855 
L 133.983236 277.796855 
L 134.080287 277.419228 
L 134.77709 277.419228 
L 134.77709 277.293352 
L 135.116046 277.293352 
L 135.116046 277.167476 
L 135.449003 277.167476 
L 135.449003 276.915724 
L 135.776169 276.915724 
L 135.776169 276.789848 
L 136.808769 276.789848 
L 136.864507 276.538097 
L 137.030737 276.538097 
L 137.030737 276.412221 
L 137.331728 276.412221 
L 137.331728 276.286345 
L 137.627979 276.286345 
L 137.627979 276.160469 
L 137.919637 276.160469 
L 137.919637 275.908717 
L 138.206842 275.908717 
L 138.206842 275.782841 
L 139.215746 275.782841 
L 139.215746 275.656966 
L 139.580558 275.656966 
L 139.580558 275.53109 
L 139.843661 275.53109 
L 139.843661 275.405214 
L 140.103135 275.405214 
L 140.103135 274.90171 
L 140.359078 274.90171 
L 140.359078 274.775834 
L 140.725251 274.775834 
L 140.725251 274.649959 
L 141.106655 274.649959 
L 141.151022 274.146455 
L 141.349389 274.146455 
L 141.349389 274.020579 
L 141.523975 274.020579 
L 141.589029 273.642952 
L 142.290162 273.642952 
L 142.290162 273.517076 
L 142.966099 273.517076 
L 143.02636 273.013572 
L 143.618588 273.013572 
L 143.618588 272.887697 
L 144.041338 272.887697 
L 144.041338 272.761821 
L 144.398947 272.761821 
L 144.454795 272.510069 
L 145.058426 272.510069 
L 145.058426 272.384193 
L 145.255407 272.384193 
L 145.255407 272.132441 
L 145.450347 272.132441 
L 145.450347 272.006566 
L 145.83427 272.006566 
L 145.83427 271.754814 
L 146.006223 271.754814 
L 146.006223 271.628938 
L 146.210514 271.628938 
L 146.210514 271.503062 
L 146.345485 271.503062 
L 146.345485 271.377186 
L 146.579379 271.377186 
L 146.579379 271.25131 
L 146.761135 271.25131 
L 146.761135 271.125434 
L 147.423525 271.125434 
L 147.471089 270.747807 
L 147.707122 270.747807 
L 147.816265 270.496055 
L 147.986506 270.496055 
L 148.094045 270.244303 
L 148.155221 270.244303 
L 148.155221 269.992552 
L 148.488177 269.992552 
L 148.488177 269.7408 
L 149.453084 269.7408 
L 149.46733 269.489048 
L 149.764026 269.489048 
L 149.764026 269.237297 
L 150.221009 269.237297 
L 150.302917 268.859669 
L 150.370903 268.859669 
L 150.370903 268.607917 
L 151.207109 268.607917 
L 151.246016 268.356166 
L 151.336488 268.356166 
L 151.387991 268.104414 
L 151.592605 268.104414 
L 151.668766 267.852662 
L 151.769835 267.852662 
L 151.870365 267.60091 
L 152.279463 267.60091 
L 152.352898 267.223283 
L 152.486788 267.223283 
L 152.486788 266.971531 
L 152.751744 266.971531 
L 152.751744 266.845655 
L 153.142309 266.845655 
L 153.200785 266.468028 
L 153.639356 266.468028 
L 153.639356 266.342152 
L 153.798392 266.342152 
L 153.899924 265.964524 
L 153.989717 265.964524 
L 153.989717 265.838648 
L 154.14583 265.838648 
L 154.256552 265.461021 
L 154.388563 265.461021 
L 154.476059 265.083393 
L 154.982037 265.083393 
L 155.066821 264.831641 
L 155.443693 264.831641 
L 155.443693 264.328138 
L 155.894291 264.328138 
L 155.894291 264.202262 
L 156.225294 264.202262 
L 156.334347 263.824634 
L 156.491849 263.824634 
L 156.550574 263.447007 
L 156.657763 263.447007 
L 156.764344 263.069379 
L 156.870325 263.069379 
L 156.870325 262.943503 
L 157.061501 262.943503 
L 157.061501 262.817628 
L 157.438121 262.817628 
L 157.493969 262.565876 
L 157.595929 262.565876 
L 157.651312 262.188248 
L 157.807349 262.188248 
L 157.807349 261.936497 
L 158.2053 261.936497 
L 158.294582 261.684745 
L 158.427714 261.684745 
L 158.427714 261.558869 
L 158.665004 261.558869 
L 158.665004 261.432993 
L 158.91658 261.432993 
L 158.91658 261.307117 
L 159.435025 261.307117 
L 159.435025 261.181241 
L 159.552023 261.181241 
L 159.552023 261.055366 
L 159.709651 261.055366 
L 159.709651 260.803614 
L 160.190875 260.803614 
L 160.190875 260.677738 
L 160.303279 260.677738 
L 160.303279 260.425986 
L 160.510264 260.425986 
L 160.510264 260.30011 
L 160.987125 260.30011 
L 160.994842 260.048359 
L 161.110227 260.048359 
L 161.125559 259.670731 
L 161.278189 259.670731 
L 161.278189 259.418979 
L 161.55733 259.418979 
L 161.55733 259.293103 
L 161.691646 259.293103 
L 161.691646 259.167228 
L 161.854518 259.167228 
L 161.854518 258.915476 
L 162.470869 258.915476 
L 162.470869 258.7896 
L 162.59884 258.7896 
L 162.648372 258.537848 
L 162.824215 258.537848 
L 162.824215 258.411972 
L 162.935898 258.411972 
L 162.998429 258.034345 
L 163.389707 258.034345 
L 163.484578 257.782593 
L 163.545315 257.782593 
L 163.545315 257.656717 
L 163.659508 257.656717 
L 163.659508 257.530841 
L 163.85935 257.530841 
L 163.85935 257.404966 
L 163.997986 257.404966 
L 163.997986 257.153214 
L 164.2138 257.153214 
L 164.2138 257.027338 
L 164.523356 257.027338 
L 164.568077 256.775586 
L 164.70794 256.775586 
L 164.80901 256.397959 
L 164.846771 256.397959 
L 164.940845 256.020331 
L 164.984586 256.020331 
L 165.065549 255.768579 
L 165.220276 255.768579 
L 165.220276 255.642703 
L 165.808848 255.642703 
L 165.856578 255.265076 
L 166.028591 255.265076 
L 166.052194 254.761572 
L 166.222436 254.761572 
L 166.269129 254.383945 
L 166.814929 254.383945 
L 166.814929 254.258069 
L 167.134966 254.258069 
L 167.134966 254.006317 
L 168.100708 254.006317 
L 168.100708 253.880441 
L 168.363297 253.880441 
L 168.384146 253.251062 
L 168.539786 253.251062 
L 168.596533 252.873434 
L 168.928405 252.873434 
L 168.983993 252.495807 
L 169.109722 252.495807 
L 169.109722 252.244055 
L 169.555515 252.244055 
L 169.62392 251.866428 
L 169.803519 251.866428 
L 169.832482 251.614676 
L 169.923905 251.614676 
L 169.923905 251.362924 
L 170.100675 251.362924 
L 170.100675 251.111172 
L 170.223906 251.111172 
L 170.261661 250.733545 
L 170.37916 250.733545 
L 170.449309 250.481793 
L 170.523847 250.481793 
L 170.523847 250.355917 
L 170.66743 250.355917 
L 170.685877 250.104166 
L 170.787015 250.104166 
L 170.791599 249.726538 
L 170.951349 249.726538 
L 170.951349 249.600662 
L 171.087206 249.600662 
L 171.087206 249.474786 
L 171.577117 249.474786 
L 171.577117 249.34891 
L 171.81737 249.34891 
L 171.81737 249.223034 
L 172.284629 249.223034 
L 172.335368 248.845407 
L 172.88465 248.845407 
L 172.974657 248.216028 
L 173.18167 248.216028 
L 173.221995 247.8384 
L 173.394413 247.8384 
L 173.394413 247.712524 
L 173.517742 247.712524 
L 173.517742 247.586648 
L 174.064855 247.586648 
L 174.064855 247.460772 
L 174.343947 247.460772 
L 174.343947 247.209021 
L 174.771671 247.209021 
L 174.878944 246.202014 
L 174.893692 246.202014 
L 174.893692 246.076138 
L 175.298414 246.076138 
L 175.298414 245.950262 
L 175.427827 245.950262 
L 175.474342 245.572634 
L 175.570583 245.572634 
L 175.570583 245.446759 
L 176.079176 245.446759 
L 176.103385 245.069131 
L 176.347181 245.069131 
L 176.439069 244.817379 
L 176.489925 244.817379 
L 176.489925 244.691503 
L 176.698683 244.691503 
L 176.702031 244.313876 
L 176.905149 244.313876 
L 176.905149 244.188 
L 177.056883 244.188 
L 177.056883 244.062124 
L 177.217177 244.062124 
L 177.317886 243.684497 
L 177.430947 243.684497 
L 177.430947 243.558621 
L 178.373134 243.558621 
L 178.373134 243.432745 
L 178.97899 243.432745 
L 178.97899 243.180993 
L 179.188419 243.180993 
L 179.188419 243.055117 
L 179.583183 243.055117 
L 179.623354 242.425738 
L 179.927575 242.425738 
L 179.927575 242.299862 
L 180.146284 242.299862 
L 180.185272 241.922234 
L 180.439486 241.922234 
L 180.475132 241.544607 
L 180.693018 241.544607 
L 180.765989 241.166979 
L 180.806406 241.166979 
L 180.806406 241.041103 
L 180.993881 241.041103 
L 180.993881 240.789352 
L 181.14517 240.789352 
L 181.234837 240.411724 
L 181.297875 240.411724 
L 181.297875 240.285848 
L 181.635707 240.285848 
L 181.723072 239.908221 
L 182.166432 239.908221 
L 182.248879 239.656469 
L 182.363205 239.656469 
L 182.385492 239.152966 
L 182.614259 239.152966 
L 182.663095 238.901214 
L 182.869244 238.901214 
L 182.869244 238.775338 
L 183.006231 238.775338 
L 183.006231 238.523586 
L 183.274887 238.523586 
L 183.274887 238.271834 
L 183.511809 238.271834 
L 183.511809 238.145959 
L 183.699682 238.145959 
L 183.699682 237.894207 
L 183.974609 237.894207 
L 184.031383 237.642455 
L 184.117353 237.642455 
L 184.175949 237.138952 
L 184.263503 237.138952 
L 184.263503 237.013076 
L 184.452923 237.013076 
L 184.543614 236.509572 
L 184.640456 236.509572 
L 184.640456 236.257821 
L 184.756448 236.257821 
L 184.756448 236.131945 
L 184.880402 236.131945 
L 184.97553 235.502566 
L 185.093768 235.502566 
L 185.093768 235.250814 
L 185.258062 235.250814 
L 185.258062 234.999062 
L 185.420934 234.999062 
L 185.513374 234.74731 
L 185.674059 234.74731 
L 185.719719 234.243807 
L 185.946366 234.243807 
L 185.99137 233.740303 
L 186.081056 233.740303 
L 186.081056 233.614428 
L 186.192565 233.614428 
L 186.303417 233.110924 
L 186.369616 233.110924 
L 186.369616 232.985048 
L 186.566827 232.985048 
L 186.675502 232.607421 
L 186.697162 232.607421 
L 186.773755 232.355669 
L 187.14635 232.355669 
L 187.196243 231.978041 
L 187.291821 231.978041 
L 187.356538 231.600414 
L 187.47398 231.600414 
L 187.585063 231.09691 
L 187.626316 231.09691 
L 187.729056 230.593407 
L 187.742092 230.593407 
L 187.742092 230.467531 
L 188.333981 230.467531 
L 188.333981 230.215779 
L 188.622197 230.215779 
L 188.622197 229.964028 
L 188.855248 229.964028 
L 188.855248 229.838152 
L 189.054221 229.838152 
L 189.054221 229.5864 
L 189.357335 229.5864 
L 189.432356 229.082897 
L 189.488426 229.082897 
L 189.596694 228.453517 
L 189.61861 228.453517 
L 189.729484 227.698262 
L 189.7479 227.698262 
L 189.821383 227.44651 
L 189.939355 227.44651 
L 190.038476 227.068883 
L 190.148548 227.068883 
L 190.148548 226.943007 
L 190.416906 226.943007 
L 190.500692 226.565379 
L 190.55848 226.565379 
L 190.55848 226.439503 
L 190.730786 226.439503 
L 190.730786 226.313628 
L 191.284751 226.313628 
L 191.284751 226.187752 
L 191.786869 226.187752 
L 191.809377 225.684248 
L 191.951307 225.684248 
L 191.951307 225.558372 
L 192.277394 225.558372 
L 192.277394 225.306621 
L 192.629537 225.306621 
L 192.689739 224.928993 
L 192.939938 224.928993 
L 192.975209 224.551366 
L 193.354746 224.551366 
L 193.354746 224.299614 
L 193.507457 224.299614 
L 193.52663 223.79611 
L 193.849618 223.79611 
L 193.849618 223.670234 
L 194.027725 223.670234 
L 194.027725 223.544359 
L 194.373724 223.544359 
L 194.373724 223.418483 
L 194.718615 223.418483 
L 194.718615 223.292607 
L 195.315455 223.292607 
L 195.424666 222.663228 
L 195.438273 222.663228 
L 195.506161 222.159724 
L 196.093235 222.159724 
L 196.093235 221.907972 
L 196.321142 221.907972 
L 196.354149 221.656221 
L 197.010372 221.656221 
L 197.103409 221.278593 
L 197.363053 221.278593 
L 197.363053 221.026841 
L 199.086648 221.026841 
L 199.086648 220.900966 
L 199.855022 220.900966 
L 199.855022 220.649214 
L 200.248828 220.649214 
L 200.248828 220.523338 
L 200.489535 220.523338 
L 200.535801 220.14571 
L 201.497218 220.14571 
L 201.497218 220.019834 
L 201.691548 220.019834 
L 201.772078 219.516331 
L 203.179531 219.516331 
L 203.179531 219.264579 
L 204.065405 219.264579 
L 204.065405 219.012828 
L 205.220511 219.012828 
L 205.220511 218.761076 
L 206.574699 218.761076 
L 206.574699 218.509324 
L 222.953167 218.509324 
L 222.953167 218.257572 
L 360.8064 218.257572 
L 360.8064 218.257572 
" style="fill: none; stroke: #ff7500; stroke-width: 1.5; stroke-linecap: square"/>
   </g>
   <g id="line2d_46">
    <defs>
     <path id="m8d992e4f04" d="M 0 -6 
L -1.347084 -1.854102 
L -5.706339 -1.854102 
L -2.179628 0.708204 
L -3.526712 4.854102 
L -0 2.291796 
L 3.526712 4.854102 
L 2.179628 0.708204 
L 5.706339 -1.854102 
L 1.347084 -1.854102 
z
" style="stroke: #ff7500; stroke-width: 1.5; stroke-linejoin: bevel"/>
    </defs>
    <g>
     <use xlink:href="#m8d992e4f04" x="72.432107" y="288.496303" style="fill-opacity: 0; stroke: #ff7500; stroke-width: 1.5; stroke-linejoin: bevel"/>
     <use xlink:href="#m8d992e4f04" x="156.491849" y="263.572883" style="fill-opacity: 0; stroke: #ff7500; stroke-width: 1.5; stroke-linejoin: bevel"/>
     <use xlink:href="#m8d992e4f04" x="206.574699" y="218.509324" style="fill-opacity: 0; stroke: #ff7500; stroke-width: 1.5; stroke-linejoin: bevel"/>
     <use xlink:href="#m8d992e4f04" x="222.953167" y="218.257572" style="fill-opacity: 0; stroke: #ff7500; stroke-width: 1.5; stroke-linejoin: bevel"/>
     <use xlink:href="#m8d992e4f04" x="222.953167" y="218.257572" style="fill-opacity: 0; stroke: #ff7500; stroke-width: 1.5; stroke-linejoin: bevel"/>
     <use xlink:href="#m8d992e4f04" x="360.8064" y="218.257572" style="fill-opacity: 0; stroke: #ff7500; stroke-width: 1.5; stroke-linejoin: bevel"/>
    </g>
   </g>
   <g id="line2d_47">
    <path style="fill: none; stroke: #ff7500; stroke-width: 1.5; stroke-linecap: square"/>
    <g/>
   </g>
   <g id="line2d_48">
    <path d="M 274.176188 218.257572 
" clip-path="url(#peb1e360f48)" style="fill: none; stroke: #ff7500; stroke-width: 1.5; stroke-linecap: square"/>
    <defs>
     <path id="mf4e55e012b" d="M -12 12 
L 12 -12 
M -12 -12 
L 12 12 
" style="stroke: #ff7500"/>
    </defs>
    <g clip-path="url(#peb1e360f48)">
     <use xlink:href="#mf4e55e012b" x="274.176188" y="218.257572" style="fill: #ff7500; stroke: #ff7500"/>
    </g>
   </g>
   <g id="line2d_49">
    <path d="M 360.8064 232.859172 
L 380.514816 293.10336 
" style="fill: none; stroke: #000080; stroke-width: 1.5; stroke-linecap: square"/>
    <g>
     <use xlink:href="#m98cc51e86a" x="360.8064" y="232.859172" style="fill-opacity: 0; stroke: #000080; stroke-width: 1.5"/>
     <use xlink:href="#m98cc51e86a" x="380.514816" y="293.10336" style="fill-opacity: 0; stroke: #000080; stroke-width: 1.5"/>
    </g>
   </g>
   <g id="line2d_50">
    <path d="M 360.8064 230.971034 
L 380.514816 199.65312 
" style="fill: none; stroke: #ff00ff; stroke-width: 1.5; stroke-linecap: square"/>
    <g>
     <use xlink:href="#m840de0f201" x="360.8064" y="230.971034" style="fill-opacity: 0; stroke: #ff00ff; stroke-width: 1.5; stroke-linejoin: miter"/>
     <use xlink:href="#m840de0f201" x="380.514816" y="199.65312" style="fill-opacity: 0; stroke: #ff00ff; stroke-width: 1.5; stroke-linejoin: miter"/>
    </g>
   </g>
   <g id="line2d_51">
    <path d="M 360.8064 218.257572 
L 380.514816 106.20288 
" style="fill: none; stroke: #ff7500; stroke-width: 1.5; stroke-linecap: square"/>
    <g>
     <use xlink:href="#m8d992e4f04" x="360.8064" y="218.257572" style="fill-opacity: 0; stroke: #ff7500; stroke-width: 1.5; stroke-linejoin: bevel"/>
     <use xlink:href="#m8d992e4f04" x="380.514816" y="106.20288" style="fill-opacity: 0; stroke: #ff7500; stroke-width: 1.5; stroke-linejoin: bevel"/>
    </g>
   </g>
   <g id="line2d_52">
    <path d="M 360.8064 298.944 
L 360.8064 6.912 
" style="fill: none; stroke: #000000; stroke-width: 1.5; stroke-linecap: square"/>
   </g>
   <g id="patch_3">
    <path d="M 57.6 298.944 
L 360.8064 298.944 
" style="fill: none; stroke: #000000; stroke-width: 0.8; stroke-linejoin: miter; stroke-linecap: square"/>
   </g>
   <g id="patch_4">
    <path d="M 57.6 6.912 
L 360.8064 6.912 
" style="fill: none; stroke: #000000; stroke-width: 0.8; stroke-linejoin: miter; stroke-linecap: square"/>
   </g>
   <g id="text_13">
    <!-- AllComo -->
    <g transform="translate(386.578944 296.966485) scale(0.14 -0.14)">
     <defs>
      <path id="DejaVuSans-41" d="M 2188 4044 
L 1331 1722 
L 3047 1722 
L 2188 4044 
z
M 1831 4666 
L 2547 4666 
L 4325 0 
L 3669 0 
L 3244 1197 
L 1141 1197 
L 716 0 
L 50 0 
L 1831 4666 
z
" transform="scale(0.015625)"/>
      <path id="DejaVuSans-43" d="M 4122 4306 
L 4122 3641 
Q 3803 3938 3442 4084 
Q 3081 4231 2675 4231 
Q 1875 4231 1450 3742 
Q 1025 3253 1025 2328 
Q 1025 1406 1450 917 
Q 1875 428 2675 428 
Q 3081 428 3442 575 
Q 3803 722 4122 1019 
L 4122 359 
Q 3791 134 3420 21 
Q 3050 -91 2638 -91 
Q 1578 -91 968 557 
Q 359 1206 359 2328 
Q 359 3453 968 4101 
Q 1578 4750 2638 4750 
Q 3056 4750 3426 4639 
Q 3797 4528 4122 4306 
z
" transform="scale(0.015625)"/>
     </defs>
     <use xlink:href="#DejaVuSans-41"/>
     <use xlink:href="#DejaVuSans-6c" x="68.408203"/>
     <use xlink:href="#DejaVuSans-6c" x="96.191406"/>
     <use xlink:href="#DejaVuSans-43" x="123.974609"/>
     <use xlink:href="#DejaVuSans-6f" x="193.798828"/>
     <use xlink:href="#DejaVuSans-6d" x="254.980469"/>
     <use xlink:href="#DejaVuSans-6f" x="352.392578"/>
    </g>
   </g>
   <g id="text_14">
    <!-- AllLQ -->
    <g transform="translate(386.578944 203.516245) scale(0.14 -0.14)">
     <defs>
      <path id="DejaVuSans-4c" d="M 628 4666 
L 1259 4666 
L 1259 531 
L 3531 531 
L 3531 0 
L 628 0 
L 628 4666 
z
" transform="scale(0.015625)"/>
      <path id="DejaVuSans-51" d="M 2522 4238 
Q 1834 4238 1429 3725 
Q 1025 3213 1025 2328 
Q 1025 1447 1429 934 
Q 1834 422 2522 422 
Q 3209 422 3611 934 
Q 4013 1447 4013 2328 
Q 4013 3213 3611 3725 
Q 3209 4238 2522 4238 
z
M 3406 84 
L 4238 -825 
L 3475 -825 
L 2784 -78 
Q 2681 -84 2626 -87 
Q 2572 -91 2522 -91 
Q 1538 -91 948 567 
Q 359 1225 359 2328 
Q 359 3434 948 4092 
Q 1538 4750 2522 4750 
Q 3503 4750 4090 4092 
Q 4678 3434 4678 2328 
Q 4678 1516 4351 937 
Q 4025 359 3406 84 
z
" transform="scale(0.015625)"/>
     </defs>
     <use xlink:href="#DejaVuSans-41"/>
     <use xlink:href="#DejaVuSans-6c" x="68.408203"/>
     <use xlink:href="#DejaVuSans-6c" x="96.191406"/>
     <use xlink:href="#DejaVuSans-4c" x="123.974609"/>
     <use xlink:href="#DejaVuSans-51" x="179.6875"/>
    </g>
   </g>
   <g id="text_15">
    <!-- COMO-10 d -->
    <g transform="translate(386.578944 110.066005) scale(0.14 -0.14)">
     <defs>
      <path id="DejaVuSans-4f" d="M 2522 4238 
Q 1834 4238 1429 3725 
Q 1025 3213 1025 2328 
Q 1025 1447 1429 934 
Q 1834 422 2522 422 
Q 3209 422 3611 934 
Q 4013 1447 4013 2328 
Q 4013 3213 3611 3725 
Q 3209 4238 2522 4238 
z
M 2522 4750 
Q 3503 4750 4090 4092 
Q 4678 3434 4678 2328 
Q 4678 1225 4090 567 
Q 3503 -91 2522 -91 
Q 1538 -91 948 565 
Q 359 1222 359 2328 
Q 359 3434 948 4092 
Q 1538 4750 2522 4750 
z
" transform="scale(0.015625)"/>
      <path id="DejaVuSans-4d" d="M 628 4666 
L 1569 4666 
L 2759 1491 
L 3956 4666 
L 4897 4666 
L 4897 0 
L 4281 0 
L 4281 4097 
L 3078 897 
L 2444 897 
L 1241 4097 
L 1241 0 
L 628 0 
L 628 4666 
z
" transform="scale(0.015625)"/>
     </defs>
     <use xlink:href="#DejaVuSans-43"/>
     <use xlink:href="#DejaVuSans-4f" x="69.824219"/>
     <use xlink:href="#DejaVuSans-4d" x="148.535156"/>
     <use xlink:href="#DejaVuSans-4f" x="234.814453"/>
     <use xlink:href="#DejaVuSans-2d" x="316.275391"/>
     <use xlink:href="#DejaVuSans-31" x="352.359375"/>
     <use xlink:href="#DejaVuSans-30" x="415.982422"/>
     <use xlink:href="#DejaVuSans-20" x="479.605469"/>
     <use xlink:href="#DejaVuSans-64" x="511.392578"/>
    </g>
   </g>
   <g id="text_16">
    <!-- best 2016 -->
    <g transform="translate(386.578944 16.615765) scale(0.14 -0.14)">
     <defs>
      <path id="DejaVuSans-62" d="M 3116 1747 
Q 3116 2381 2855 2742 
Q 2594 3103 2138 3103 
Q 1681 3103 1420 2742 
Q 1159 2381 1159 1747 
Q 1159 1113 1420 752 
Q 1681 391 2138 391 
Q 2594 391 2855 752 
Q 3116 1113 3116 1747 
z
M 1159 2969 
Q 1341 3281 1617 3432 
Q 1894 3584 2278 3584 
Q 2916 3584 3314 3078 
Q 3713 2572 3713 1747 
Q 3713 922 3314 415 
Q 2916 -91 2278 -91 
Q 1894 -91 1617 61 
Q 1341 213 1159 525 
L 1159 0 
L 581 0 
L 581 4863 
L 1159 4863 
L 1159 2969 
z
" transform="scale(0.015625)"/>
     </defs>
     <use xlink:href="#DejaVuSans-62"/>
     <use xlink:href="#DejaVuSans-65" x="63.476562"/>
     <use xlink:href="#DejaVuSans-73" x="125"/>
     <use xlink:href="#DejaVuSans-74" x="177.099609"/>
     <use xlink:href="#DejaVuSans-20" x="216.308594"/>
     <use xlink:href="#DejaVuSans-32" x="248.095703"/>
     <use xlink:href="#DejaVuSans-30" x="311.71875"/>
     <use xlink:href="#DejaVuSans-31" x="375.341797"/>
     <use xlink:href="#DejaVuSans-36" x="438.964844"/>
    </g>
   </g>
   <g id="text_17">
    <!-- bbob-biobj f7, f8, f16, f17, 10-D -->
    <g transform="translate(60.632064 17.582726) scale(0.102 -0.102)">
     <defs>
      <path id="DejaVuSans-6a" d="M 603 3500 
L 1178 3500 
L 1178 -63 
Q 1178 -731 923 -1031 
Q 669 -1331 103 -1331 
L -116 -1331 
L -116 -844 
L 38 -844 
Q 366 -844 484 -692 
Q 603 -541 603 -63 
L 603 3500 
z
M 603 4863 
L 1178 4863 
L 1178 4134 
L 603 4134 
L 603 4863 
z
" transform="scale(0.015625)"/>
      <path id="DejaVuSans-37" d="M 525 4666 
L 3525 4666 
L 3525 4397 
L 1831 0 
L 1172 0 
L 2766 4134 
L 525 4134 
L 525 4666 
z
" transform="scale(0.015625)"/>
      <path id="DejaVuSans-44" d="M 1259 4147 
L 1259 519 
L 2022 519 
Q 2988 519 3436 956 
Q 3884 1394 3884 2338 
Q 3884 3275 3436 3711 
Q 2988 4147 2022 4147 
L 1259 4147 
z
M 628 4666 
L 1925 4666 
Q 3281 4666 3915 4102 
Q 4550 3538 4550 2338 
Q 4550 1131 3912 565 
Q 3275 0 1925 0 
L 628 0 
L 628 4666 
z
" transform="scale(0.015625)"/>
     </defs>
     <use xlink:href="#DejaVuSans-62"/>
     <use xlink:href="#DejaVuSans-62" x="63.476562"/>
     <use xlink:href="#DejaVuSans-6f" x="126.953125"/>
     <use xlink:href="#DejaVuSans-62" x="188.134766"/>
     <use xlink:href="#DejaVuSans-2d" x="251.611328"/>
     <use xlink:href="#DejaVuSans-62" x="287.695312"/>
     <use xlink:href="#DejaVuSans-69" x="351.171875"/>
     <use xlink:href="#DejaVuSans-6f" x="378.955078"/>
     <use xlink:href="#DejaVuSans-62" x="440.136719"/>
     <use xlink:href="#DejaVuSans-6a" x="503.613281"/>
     <use xlink:href="#DejaVuSans-20" x="531.396484"/>
     <use xlink:href="#DejaVuSans-66" x="563.183594"/>
     <use xlink:href="#DejaVuSans-37" x="598.388672"/>
     <use xlink:href="#DejaVuSans-2c" x="662.011719"/>
     <use xlink:href="#DejaVuSans-20" x="693.798828"/>
     <use xlink:href="#DejaVuSans-66" x="725.585938"/>
     <use xlink:href="#DejaVuSans-38" x="760.791016"/>
     <use xlink:href="#DejaVuSans-2c" x="824.414062"/>
     <use xlink:href="#DejaVuSans-20" x="856.201172"/>
     <use xlink:href="#DejaVuSans-66" x="887.988281"/>
     <use xlink:href="#DejaVuSans-31" x="923.193359"/>
     <use xlink:href="#DejaVuSans-36" x="986.816406"/>
     <use xlink:href="#DejaVuSans-2c" x="1050.439453"/>
     <use xlink:href="#DejaVuSans-20" x="1082.226562"/>
     <use xlink:href="#DejaVuSans-66" x="1114.013672"/>
     <use xlink:href="#DejaVuSans-31" x="1149.21875"/>
     <use xlink:href="#DejaVuSans-37" x="1212.841797"/>
     <use xlink:href="#DejaVuSans-2c" x="1276.464844"/>
     <use xlink:href="#DejaVuSans-20" x="1308.251953"/>
     <use xlink:href="#DejaVuSans-31" x="1340.039062"/>
     <use xlink:href="#DejaVuSans-30" x="1403.662109"/>
     <use xlink:href="#DejaVuSans-2d" x="1467.285156"/>
     <use xlink:href="#DejaVuSans-44" x="1503.369141"/>
    </g>
    <!-- 58 targets: 1..-1.0e-4 -->
    <g transform="translate(60.632064 29.004495) scale(0.102 -0.102)">
     <defs>
      <path id="DejaVuSans-35" d="M 691 4666 
L 3169 4666 
L 3169 4134 
L 1269 4134 
L 1269 2991 
Q 1406 3038 1543 3061 
Q 1681 3084 1819 3084 
Q 2600 3084 3056 2656 
Q 3513 2228 3513 1497 
Q 3513 744 3044 326 
Q 2575 -91 1722 -91 
Q 1428 -91 1123 -41 
Q 819 9 494 109 
L 494 744 
Q 775 591 1075 516 
Q 1375 441 1709 441 
Q 2250 441 2565 725 
Q 2881 1009 2881 1497 
Q 2881 1984 2565 2268 
Q 2250 2553 1709 2553 
Q 1456 2553 1204 2497 
Q 953 2441 691 2322 
L 691 4666 
z
" transform="scale(0.015625)"/>
      <path id="DejaVuSans-3a" d="M 750 794 
L 1409 794 
L 1409 0 
L 750 0 
L 750 794 
z
M 750 3309 
L 1409 3309 
L 1409 2516 
L 750 2516 
L 750 3309 
z
" transform="scale(0.015625)"/>
     </defs>
     <use xlink:href="#DejaVuSans-35"/>
     <use xlink:href="#DejaVuSans-38" x="63.623047"/>
     <use xlink:href="#DejaVuSans-20" x="127.246094"/>
     <use xlink:href="#DejaVuSans-74" x="159.033203"/>
     <use xlink:href="#DejaVuSans-61" x="198.242188"/>
     <use xlink:href="#DejaVuSans-72" x="259.521484"/>
     <use xlink:href="#DejaVuSans-67" x="298.884766"/>
     <use xlink:href="#DejaVuSans-65" x="362.361328"/>
     <use xlink:href="#DejaVuSans-74" x="423.884766"/>
     <use xlink:href="#DejaVuSans-73" x="463.09375"/>
     <use xlink:href="#DejaVuSans-3a" x="515.193359"/>
     <use xlink:href="#DejaVuSans-20" x="548.884766"/>
     <use xlink:href="#DejaVuSans-31" x="580.671875"/>
     <use xlink:href="#DejaVuSans-2e" x="644.294922"/>
     <use xlink:href="#DejaVuSans-2e" x="676.082031"/>
     <use xlink:href="#DejaVuSans-2d" x="707.869141"/>
     <use xlink:href="#DejaVuSans-31" x="743.953125"/>
     <use xlink:href="#DejaVuSans-2e" x="807.576172"/>
     <use xlink:href="#DejaVuSans-30" x="839.363281"/>
     <use xlink:href="#DejaVuSans-65" x="902.986328"/>
     <use xlink:href="#DejaVuSans-2d" x="964.509766"/>
     <use xlink:href="#DejaVuSans-34" x="1000.59375"/>
    </g>
    <!-- 10 instances -->
    <g transform="translate(60.632064 40.426264) scale(0.102 -0.102)">
     <use xlink:href="#DejaVuSans-31"/>
     <use xlink:href="#DejaVuSans-30" x="63.623047"/>
     <use xlink:href="#DejaVuSans-20" x="127.246094"/>
     <use xlink:href="#DejaVuSans-69" x="159.033203"/>
     <use xlink:href="#DejaVuSans-6e" x="186.816406"/>
     <use xlink:href="#DejaVuSans-73" x="250.195312"/>
     <use xlink:href="#DejaVuSans-74" x="302.294922"/>
     <use xlink:href="#DejaVuSans-61" x="341.503906"/>
     <use xlink:href="#DejaVuSans-6e" x="402.783203"/>
     <use xlink:href="#DejaVuSans-63" x="466.162109"/>
     <use xlink:href="#DejaVuSans-65" x="521.142578"/>
     <use xlink:href="#DejaVuSans-73" x="582.666016"/>
    </g>
   </g>
   <g id="text_18">
    <!-- v2.6, hv-hash=ff0e71e8cd978373 -->
    <g style="fill: #808080" transform="translate(123.707887 293.943992) scale(0.1 -0.1)">
     <defs>
      <path id="DejaVuSans-68" d="M 3513 2113 
L 3513 0 
L 2938 0 
L 2938 2094 
Q 2938 2591 2744 2837 
Q 2550 3084 2163 3084 
Q 1697 3084 1428 2787 
Q 1159 2491 1159 1978 
L 1159 0 
L 581 0 
L 581 4863 
L 1159 4863 
L 1159 2956 
Q 1366 3272 1645 3428 
Q 1925 3584 2291 3584 
Q 2894 3584 3203 3211 
Q 3513 2838 3513 2113 
z
" transform="scale(0.015625)"/>
      <path id="DejaVuSans-3d" d="M 678 2906 
L 4684 2906 
L 4684 2381 
L 678 2381 
L 678 2906 
z
M 678 1631 
L 4684 1631 
L 4684 1100 
L 678 1100 
L 678 1631 
z
" transform="scale(0.015625)"/>
      <path id="DejaVuSans-39" d="M 703 97 
L 703 672 
Q 941 559 1184 500 
Q 1428 441 1663 441 
Q 2288 441 2617 861 
Q 2947 1281 2994 2138 
Q 2813 1869 2534 1725 
Q 2256 1581 1919 1581 
Q 1219 1581 811 2004 
Q 403 2428 403 3163 
Q 403 3881 828 4315 
Q 1253 4750 1959 4750 
Q 2769 4750 3195 4129 
Q 3622 3509 3622 2328 
Q 3622 1225 3098 567 
Q 2575 -91 1691 -91 
Q 1453 -91 1209 -44 
Q 966 3 703 97 
z
M 1959 2075 
Q 2384 2075 2632 2365 
Q 2881 2656 2881 3163 
Q 2881 3666 2632 3958 
Q 2384 4250 1959 4250 
Q 1534 4250 1286 3958 
Q 1038 3666 1038 3163 
Q 1038 2656 1286 2365 
Q 1534 2075 1959 2075 
z
" transform="scale(0.015625)"/>
      <path id="DejaVuSans-33" d="M 2597 2516 
Q 3050 2419 3304 2112 
Q 3559 1806 3559 1356 
Q 3559 666 3084 287 
Q 2609 -91 1734 -91 
Q 1441 -91 1130 -33 
Q 819 25 488 141 
L 488 750 
Q 750 597 1062 519 
Q 1375 441 1716 441 
Q 2309 441 2620 675 
Q 2931 909 2931 1356 
Q 2931 1769 2642 2001 
Q 2353 2234 1838 2234 
L 1294 2234 
L 1294 2753 
L 1863 2753 
Q 2328 2753 2575 2939 
Q 2822 3125 2822 3475 
Q 2822 3834 2567 4026 
Q 2313 4219 1838 4219 
Q 1578 4219 1281 4162 
Q 984 4106 628 3988 
L 628 4550 
Q 988 4650 1302 4700 
Q 1616 4750 1894 4750 
Q 2613 4750 3031 4423 
Q 3450 4097 3450 3541 
Q 3450 3153 3228 2886 
Q 3006 2619 2597 2516 
z
" transform="scale(0.015625)"/>
     </defs>
     <use xlink:href="#DejaVuSans-76"/>
     <use xlink:href="#DejaVuSans-32" x="59.179688"/>
     <use xlink:href="#DejaVuSans-2e" x="122.802734"/>
     <use xlink:href="#DejaVuSans-36" x="154.589844"/>
     <use xlink:href="#DejaVuSans-2c" x="218.212891"/>
     <use xlink:href="#DejaVuSans-20" x="250"/>
     <use xlink:href="#DejaVuSans-68" x="281.787109"/>
     <use xlink:href="#DejaVuSans-76" x="345.166016"/>
     <use xlink:href="#DejaVuSans-2d" x="401.720703"/>
     <use xlink:href="#DejaVuSans-68" x="437.804688"/>
     <use xlink:href="#DejaVuSans-61" x="501.183594"/>
     <use xlink:href="#DejaVuSans-73" x="562.462891"/>
     <use xlink:href="#DejaVuSans-68" x="614.5625"/>
     <use xlink:href="#DejaVuSans-3d" x="677.941406"/>
     <use xlink:href="#DejaVuSans-66" x="761.730469"/>
     <use xlink:href="#DejaVuSans-66" x="796.935547"/>
     <use xlink:href="#DejaVuSans-30" x="832.140625"/>
     <use xlink:href="#DejaVuSans-65" x="895.763672"/>
     <use xlink:href="#DejaVuSans-37" x="957.287109"/>
     <use xlink:href="#DejaVuSans-31" x="1020.910156"/>
     <use xlink:href="#DejaVuSans-65" x="1084.533203"/>
     <use xlink:href="#DejaVuSans-38" x="1146.056641"/>
     <use xlink:href="#DejaVuSans-63" x="1209.679688"/>
     <use xlink:href="#DejaVuSans-64" x="1264.660156"/>
     <use xlink:href="#DejaVuSans-39" x="1328.136719"/>
     <use xlink:href="#DejaVuSans-37" x="1391.759766"/>
     <use xlink:href="#DejaVuSans-38" x="1455.382812"/>
     <use xlink:href="#DejaVuSans-33" x="1519.005859"/>
     <use xlink:href="#DejaVuSans-37" x="1582.628906"/>
     <use xlink:href="#DejaVuSans-33" x="1646.251953"/>
    </g>
   </g>
  </g>
 </g>
 <defs>
  <clipPath id="peb1e360f48">
   <rect x="57.6" y="6.912" width="303.2064" height="292.032"/>
  </clipPath>
 </defs>
</svg>
