<?xml version="1.0" encoding="utf-8" standalone="no"?>
<!DOCTYPE svg PUBLIC "-//W3C//DTD SVG 1.1//EN"
  "http://www.w3.org/Graphics/SVG/1.1/DTD/svg11.dtd">
<svg xmlns:xlink="http://www.w3.org/1999/xlink" width="460.8pt" height="345.6pt" viewBox="0 0 460.8 345.6" xmlns="http://www.w3.org/2000/svg" version="1.1">
 <metadata>
  <rdf:RDF xmlns:dc="http://purl.org/dc/elements/1.1/" xmlns:cc="http://creativecommons.org/ns#" xmlns:rdf="http://www.w3.org/1999/02/22-rdf-syntax-ns#">
   <cc:Work>
    <dc:type rdf:resource="http://purl.org/dc/dcmitype/StillImage"/>
    <dc:date>2023-02-10T20:17:39.998499</dc:date>
    <dc:format>image/svg+xml</dc:format>
    <dc:creator>
     <cc:Agent>
      <dc:title>Matplotlib v3.6.3, https://matplotlib.org/</dc:title>
     </cc:Agent>
    </dc:creator>
   </cc:Work>
  </rdf:RDF>
 </metadata>
 <defs>
  <style type="text/css">*{stroke-linejoin: round; stroke-linecap: butt}</style>
 </defs>
 <g id="figure_1">
  <g id="patch_1">
   <path d="M 0 345.6 
L 460.8 345.6 
L 460.8 0 
L 0 0 
z
" style="fill: #ffffff"/>
  </g>
  <g id="axes_1">
   <g id="patch_2">
    <path d="M 57.6 298.944 
L 360.8064 298.944 
L 360.8064 6.912 
L 57.6 6.912 
z
" style="fill: #ffffff"/>
   </g>
   <g id="line2d_1">
    <path d="M 40.363149 298.944 
L 40.363149 297.685241 
L 47.990577 297.685241 
L 47.990577 295.167724 
L 57.6 295.167724 
L 57.6 292.650207 
L 61.029752 292.650207 
L 61.029752 290.13269 
L 78.266603 290.13269 
L 78.266603 285.097655 
L 90.668036 285.097655 
L 90.668036 283.838897 
L 94.735529 283.838897 
L 94.735529 282.580138 
L 96.717523 282.580138 
L 96.717523 280.062621 
L 97.18203 280.062621 
L 97.18203 277.545103 
L 117.695068 277.545103 
L 117.695068 275.027586 
L 121.455972 275.027586 
L 121.455972 271.25131 
L 127.821575 271.25131 
L 127.821575 269.992552 
L 139.556456 269.992552 
L 139.556456 266.216276 
L 149.223672 266.216276 
L 149.223672 263.698759 
L 154.476059 263.698759 
L 154.476059 262.44 
L 159.668298 262.44 
L 159.668298 261.181241 
L 163.746367 261.181241 
L 163.746367 257.404966 
L 166.204896 257.404966 
L 166.204896 253.62869 
L 171.81737 253.62869 
L 171.81737 251.111172 
L 176.388076 251.111172 
L 176.388076 248.593655 
L 176.705378 248.593655 
L 176.705378 246.076138 
L 177.524113 246.076138 
L 177.524113 243.558621 
L 183.063612 243.558621 
L 183.063612 242.299862 
L 186.357598 242.299862 
L 186.357598 241.041103 
L 190.141995 241.041103 
L 190.141995 239.782345 
L 191.764334 239.782345 
L 191.764334 238.523586 
L 193.335397 238.523586 
L 193.335397 236.006069 
L 200.764504 236.006069 
L 200.764504 233.488552 
L 201.497218 233.488552 
L 201.497218 230.971034 
L 206.177182 230.971034 
L 206.177182 228.453517 
L 208.555189 228.453517 
L 208.555189 224.677241 
L 210.759374 224.677241 
L 210.759374 220.900966 
L 223.006649 220.900966 
L 223.006649 217.12469 
L 229.874099 217.12469 
L 229.893913 210.830897 
L 230.335849 210.830897 
L 230.335849 208.313379 
L 233.435881 208.313379 
L 233.435881 205.795862 
L 239.073231 205.795862 
L 239.073231 203.278345 
L 244.93905 203.278345 
L 244.93905 200.760828 
L 247.961415 200.760828 
L 247.961415 198.24331 
L 252.541956 198.24331 
L 252.541956 195.725793 
L 257.255888 195.725793 
L 257.255888 193.208276 
L 261.944823 193.208276 
L 261.999023 188.173241 
L 263.417808 188.173241 
L 263.417808 185.655724 
L 270.497899 185.655724 
L 270.497899 184.396966 
L 272.385863 184.396966 
L 272.385863 183.138207 
L 273.354543 183.138207 
L 273.354543 181.879448 
L 275.41526 181.879448 
L 275.41526 179.361931 
L 278.837713 179.361931 
L 278.837713 175.585655 
L 280.801787 175.585655 
L 280.801787 174.326897 
L 281.641202 174.326897 
L 281.641202 170.550621 
L 283.775029 170.550621 
L 283.775029 166.774345 
L 290.074268 166.774345 
L 290.074268 165.515586 
L 291.54881 165.515586 
L 291.54881 164.256828 
L 293.321484 164.256828 
L 293.321484 162.998069 
L 294.18556 162.998069 
L 294.18556 159.221793 
L 301.072426 159.221793 
L 301.072426 155.445517 
L 301.765904 155.445517 
L 301.765904 154.186759 
L 304.038151 154.186759 
L 304.038151 150.410483 
L 309.478569 150.410483 
L 309.478569 147.892966 
L 310.293633 147.892966 
L 310.293633 145.375448 
L 311.002172 145.375448 
L 311.002172 141.599172 
L 314.005872 141.599172 
L 314.005872 137.822897 
L 319.437745 137.822897 
L 319.437745 135.305379 
L 319.729602 135.305379 
L 319.729602 134.046621 
L 320.739684 134.046621 
L 320.831919 130.270345 
L 323.315582 130.270345 
L 323.315582 129.011586 
L 324.346486 129.011586 
L 324.346486 125.23531 
L 325.516553 125.23531 
L 325.516553 123.976552 
L 326.985875 123.976552 
L 326.985875 120.200276 
L 327.127935 120.200276 
L 327.127935 118.941517 
L 328.638266 118.941517 
L 328.638266 117.682759 
L 329.937885 117.682759 
L 329.937885 113.906483 
L 330.300675 113.906483 
L 330.300675 111.388966 
L 330.85074 111.388966 
L 330.85074 108.871448 
L 334.139916 108.871448 
L 334.139916 105.095172 
L 334.469876 105.095172 
L 334.469876 101.318897 
L 335.685724 101.318897 
L 335.685724 98.801379 
L 336.203417 98.801379 
L 336.203417 96.283862 
L 336.340942 96.283862 
L 336.340942 95.025103 
L 340.652264 95.025103 
L 340.652264 91.248828 
L 340.88738 91.248828 
L 340.907602 88.73131 
L 341.032423 88.73131 
L 341.116052 81.178759 
L 341.307639 81.178759 
L 341.307639 77.402483 
L 342.267025 77.402483 
L 342.267025 74.884966 
L 342.519297 74.884966 
L 342.519297 71.10869 
L 349.095741 71.10869 
L 349.095741 67.332414 
L 349.496622 67.332414 
L 349.496622 64.814897 
L 349.620692 64.814897 
L 349.620692 62.297379 
L 360.8064 62.297379 
L 360.8064 62.297379 
" style="fill: none; stroke: #f5deb3; stroke-width: 4; stroke-linecap: square"/>
   </g>
   <g id="line2d_2">
    <defs>
     <path id="mc71339acf5" d="M -0 7.778175 
L 7.778175 0 
L 0 -7.778175 
L -7.778175 -0 
z
" style="stroke: #f5deb3; stroke-width: 1.5; stroke-linejoin: miter"/>
    </defs>
    <g>
     <use xlink:href="#mc71339acf5" x="94.735529" y="282.580138" style="fill: #f5deb3; stroke: #f5deb3; stroke-width: 1.5; stroke-linejoin: miter"/>
     <use xlink:href="#mc71339acf5" x="193.335397" y="238.523586" style="fill: #f5deb3; stroke: #f5deb3; stroke-width: 1.5; stroke-linejoin: miter"/>
     <use xlink:href="#mc71339acf5" x="263.417808" y="185.655724" style="fill: #f5deb3; stroke: #f5deb3; stroke-width: 1.5; stroke-linejoin: miter"/>
     <use xlink:href="#mc71339acf5" x="330.85074" y="111.388966" style="fill: #f5deb3; stroke: #f5deb3; stroke-width: 1.5; stroke-linejoin: miter"/>
     <use xlink:href="#mc71339acf5" x="349.620692" y="62.297379" style="fill: #f5deb3; stroke: #f5deb3; stroke-width: 1.5; stroke-linejoin: miter"/>
     <use xlink:href="#mc71339acf5" x="360.8064" y="62.297379" style="fill: #f5deb3; stroke: #f5deb3; stroke-width: 1.5; stroke-linejoin: miter"/>
    </g>
   </g>
   <g id="line2d_3">
    <path style="fill: none; stroke: #f5deb3; stroke-width: 4; stroke-linecap: square"/>
    <g/>
   </g>
   <g id="line2d_4">
    <path d="M 360.8064 62.297379 
L 380.514816 12.75264 
" style="fill: none; stroke: #f5deb3; stroke-width: 4; stroke-linecap: square"/>
    <g>
     <use xlink:href="#mc71339acf5" x="360.8064" y="62.297379" style="fill: #f5deb3; stroke: #f5deb3; stroke-width: 1.5; stroke-linejoin: miter"/>
     <use xlink:href="#mc71339acf5" x="380.514816" y="12.75264" style="fill: #f5deb3; stroke: #f5deb3; stroke-width: 1.5; stroke-linejoin: miter"/>
    </g>
   </g>
   <g id="matplotlib.axis_1">
    <g id="xtick_1">
     <g id="line2d_5">
      <path d="M 57.6 298.944 
L 57.6 6.912 
" clip-path="url(#p434135ad83)" style="fill: none; stroke: #b0b0b0; stroke-width: 0.8; stroke-linecap: square"/>
     </g>
     <g id="line2d_6">
      <defs>
       <path id="m360f9ab38b" d="M 0 0 
L 0 3.5 
" style="stroke: #000000; stroke-width: 0.8"/>
      </defs>
      <g>
       <use xlink:href="#m360f9ab38b" x="57.6" y="298.944" style="stroke: #000000; stroke-width: 0.8"/>
      </g>
     </g>
     <g id="text_1">
      <!-- 0 -->
      <g transform="translate(52.191875 318.861344) scale(0.17 -0.17)">
       <defs>
        <path id="DejaVuSans-30" d="M 2034 4250 
Q 1547 4250 1301 3770 
Q 1056 3291 1056 2328 
Q 1056 1369 1301 889 
Q 1547 409 2034 409 
Q 2525 409 2770 889 
Q 3016 1369 3016 2328 
Q 3016 3291 2770 3770 
Q 2525 4250 2034 4250 
z
M 2034 4750 
Q 2819 4750 3233 4129 
Q 3647 3509 3647 2328 
Q 3647 1150 3233 529 
Q 2819 -91 2034 -91 
Q 1250 -91 836 529 
Q 422 1150 422 2328 
Q 422 3509 836 4129 
Q 1250 4750 2034 4750 
z
" transform="scale(0.015625)"/>
       </defs>
       <use xlink:href="#DejaVuSans-30"/>
      </g>
     </g>
    </g>
    <g id="xtick_2">
     <g id="line2d_7">
      <path d="M 144.2304 298.944 
L 144.2304 6.912 
" clip-path="url(#p434135ad83)" style="fill: none; stroke: #b0b0b0; stroke-width: 0.8; stroke-linecap: square"/>
     </g>
     <g id="line2d_8">
      <g>
       <use xlink:href="#m360f9ab38b" x="144.2304" y="298.944" style="stroke: #000000; stroke-width: 0.8"/>
      </g>
     </g>
     <g id="text_2">
      <!-- 2 -->
      <g transform="translate(138.822275 318.861344) scale(0.17 -0.17)">
       <defs>
        <path id="DejaVuSans-32" d="M 1228 531 
L 3431 531 
L 3431 0 
L 469 0 
L 469 531 
Q 828 903 1448 1529 
Q 2069 2156 2228 2338 
Q 2531 2678 2651 2914 
Q 2772 3150 2772 3378 
Q 2772 3750 2511 3984 
Q 2250 4219 1831 4219 
Q 1534 4219 1204 4116 
Q 875 4013 500 3803 
L 500 4441 
Q 881 4594 1212 4672 
Q 1544 4750 1819 4750 
Q 2544 4750 2975 4387 
Q 3406 4025 3406 3419 
Q 3406 3131 3298 2873 
Q 3191 2616 2906 2266 
Q 2828 2175 2409 1742 
Q 1991 1309 1228 531 
z
" transform="scale(0.015625)"/>
       </defs>
       <use xlink:href="#DejaVuSans-32"/>
      </g>
     </g>
    </g>
    <g id="xtick_3">
     <g id="line2d_9">
      <path d="M 230.8608 298.944 
L 230.8608 6.912 
" clip-path="url(#p434135ad83)" style="fill: none; stroke: #b0b0b0; stroke-width: 0.8; stroke-linecap: square"/>
     </g>
     <g id="line2d_10">
      <g>
       <use xlink:href="#m360f9ab38b" x="230.8608" y="298.944" style="stroke: #000000; stroke-width: 0.8"/>
      </g>
     </g>
     <g id="text_3">
      <!-- 4 -->
      <g transform="translate(225.452675 318.861344) scale(0.17 -0.17)">
       <defs>
        <path id="DejaVuSans-34" d="M 2419 4116 
L 825 1625 
L 2419 1625 
L 2419 4116 
z
M 2253 4666 
L 3047 4666 
L 3047 1625 
L 3713 1625 
L 3713 1100 
L 3047 1100 
L 3047 0 
L 2419 0 
L 2419 1100 
L 313 1100 
L 313 1709 
L 2253 4666 
z
" transform="scale(0.015625)"/>
       </defs>
       <use xlink:href="#DejaVuSans-34"/>
      </g>
     </g>
    </g>
    <g id="xtick_4">
     <g id="line2d_11">
      <path d="M 317.4912 298.944 
L 317.4912 6.912 
" clip-path="url(#p434135ad83)" style="fill: none; stroke: #b0b0b0; stroke-width: 0.8; stroke-linecap: square"/>
     </g>
     <g id="line2d_12">
      <g>
       <use xlink:href="#m360f9ab38b" x="317.4912" y="298.944" style="stroke: #000000; stroke-width: 0.8"/>
      </g>
     </g>
     <g id="text_4">
      <!-- 6 -->
      <g transform="translate(312.083075 318.861344) scale(0.17 -0.17)">
       <defs>
        <path id="DejaVuSans-36" d="M 2113 2584 
Q 1688 2584 1439 2293 
Q 1191 2003 1191 1497 
Q 1191 994 1439 701 
Q 1688 409 2113 409 
Q 2538 409 2786 701 
Q 3034 994 3034 1497 
Q 3034 2003 2786 2293 
Q 2538 2584 2113 2584 
z
M 3366 4563 
L 3366 3988 
Q 3128 4100 2886 4159 
Q 2644 4219 2406 4219 
Q 1781 4219 1451 3797 
Q 1122 3375 1075 2522 
Q 1259 2794 1537 2939 
Q 1816 3084 2150 3084 
Q 2853 3084 3261 2657 
Q 3669 2231 3669 1497 
Q 3669 778 3244 343 
Q 2819 -91 2113 -91 
Q 1303 -91 875 529 
Q 447 1150 447 2328 
Q 447 3434 972 4092 
Q 1497 4750 2381 4750 
Q 2619 4750 2861 4703 
Q 3103 4656 3366 4563 
z
" transform="scale(0.015625)"/>
       </defs>
       <use xlink:href="#DejaVuSans-36"/>
      </g>
     </g>
    </g>
    <g id="xtick_5">
     <g id="line2d_13">
      <path d="M 100.9152 298.944 
L 100.9152 6.912 
" clip-path="url(#p434135ad83)" style="fill: none; stroke: #b0b0b0; stroke-width: 0.8; stroke-linecap: square"/>
     </g>
     <g id="line2d_14">
      <defs>
       <path id="m85c3ffb1c0" d="M 0 0 
L 0 2 
" style="stroke: #000000; stroke-width: 0.6"/>
      </defs>
      <g>
       <use xlink:href="#m85c3ffb1c0" x="100.9152" y="298.944" style="stroke: #000000; stroke-width: 0.6"/>
      </g>
     </g>
    </g>
    <g id="xtick_6">
     <g id="line2d_15">
      <path d="M 187.5456 298.944 
L 187.5456 6.912 
" clip-path="url(#p434135ad83)" style="fill: none; stroke: #b0b0b0; stroke-width: 0.8; stroke-linecap: square"/>
     </g>
     <g id="line2d_16">
      <g>
       <use xlink:href="#m85c3ffb1c0" x="187.5456" y="298.944" style="stroke: #000000; stroke-width: 0.6"/>
      </g>
     </g>
    </g>
    <g id="xtick_7">
     <g id="line2d_17">
      <path d="M 274.176 298.944 
L 274.176 6.912 
" clip-path="url(#p434135ad83)" style="fill: none; stroke: #b0b0b0; stroke-width: 0.8; stroke-linecap: square"/>
     </g>
     <g id="line2d_18">
      <g>
       <use xlink:href="#m85c3ffb1c0" x="274.176" y="298.944" style="stroke: #000000; stroke-width: 0.6"/>
      </g>
     </g>
    </g>
    <g id="xtick_8">
     <g id="line2d_19">
      <path d="M 360.8064 298.944 
L 360.8064 6.912 
" clip-path="url(#p434135ad83)" style="fill: none; stroke: #b0b0b0; stroke-width: 0.8; stroke-linecap: square"/>
     </g>
     <g id="line2d_20">
      <g>
       <use xlink:href="#m85c3ffb1c0" x="360.8064" y="298.944" style="stroke: #000000; stroke-width: 0.6"/>
      </g>
     </g>
    </g>
    <g id="text_5">
     <!-- log10(# f-evals / dimension) -->
     <g transform="translate(88.823278 339.314156) scale(0.17 -0.17)">
      <defs>
       <path id="DejaVuSans-6c" d="M 603 4863 
L 1178 4863 
L 1178 0 
L 603 0 
L 603 4863 
z
" transform="scale(0.015625)"/>
       <path id="DejaVuSans-6f" d="M 1959 3097 
Q 1497 3097 1228 2736 
Q 959 2375 959 1747 
Q 959 1119 1226 758 
Q 1494 397 1959 397 
Q 2419 397 2687 759 
Q 2956 1122 2956 1747 
Q 2956 2369 2687 2733 
Q 2419 3097 1959 3097 
z
M 1959 3584 
Q 2709 3584 3137 3096 
Q 3566 2609 3566 1747 
Q 3566 888 3137 398 
Q 2709 -91 1959 -91 
Q 1206 -91 779 398 
Q 353 888 353 1747 
Q 353 2609 779 3096 
Q 1206 3584 1959 3584 
z
" transform="scale(0.015625)"/>
       <path id="DejaVuSans-67" d="M 2906 1791 
Q 2906 2416 2648 2759 
Q 2391 3103 1925 3103 
Q 1463 3103 1205 2759 
Q 947 2416 947 1791 
Q 947 1169 1205 825 
Q 1463 481 1925 481 
Q 2391 481 2648 825 
Q 2906 1169 2906 1791 
z
M 3481 434 
Q 3481 -459 3084 -895 
Q 2688 -1331 1869 -1331 
Q 1566 -1331 1297 -1286 
Q 1028 -1241 775 -1147 
L 775 -588 
Q 1028 -725 1275 -790 
Q 1522 -856 1778 -856 
Q 2344 -856 2625 -561 
Q 2906 -266 2906 331 
L 2906 616 
Q 2728 306 2450 153 
Q 2172 0 1784 0 
Q 1141 0 747 490 
Q 353 981 353 1791 
Q 353 2603 747 3093 
Q 1141 3584 1784 3584 
Q 2172 3584 2450 3431 
Q 2728 3278 2906 2969 
L 2906 3500 
L 3481 3500 
L 3481 434 
z
" transform="scale(0.015625)"/>
       <path id="DejaVuSans-31" d="M 794 531 
L 1825 531 
L 1825 4091 
L 703 3866 
L 703 4441 
L 1819 4666 
L 2450 4666 
L 2450 531 
L 3481 531 
L 3481 0 
L 794 0 
L 794 531 
z
" transform="scale(0.015625)"/>
       <path id="DejaVuSans-28" d="M 1984 4856 
Q 1566 4138 1362 3434 
Q 1159 2731 1159 2009 
Q 1159 1288 1364 580 
Q 1569 -128 1984 -844 
L 1484 -844 
Q 1016 -109 783 600 
Q 550 1309 550 2009 
Q 550 2706 781 3412 
Q 1013 4119 1484 4856 
L 1984 4856 
z
" transform="scale(0.015625)"/>
       <path id="DejaVuSans-23" d="M 3272 2816 
L 2363 2816 
L 2100 1772 
L 3016 1772 
L 3272 2816 
z
M 2803 4594 
L 2478 3297 
L 3391 3297 
L 3719 4594 
L 4219 4594 
L 3897 3297 
L 4872 3297 
L 4872 2816 
L 3775 2816 
L 3519 1772 
L 4513 1772 
L 4513 1294 
L 3397 1294 
L 3072 0 
L 2572 0 
L 2894 1294 
L 1978 1294 
L 1656 0 
L 1153 0 
L 1478 1294 
L 494 1294 
L 494 1772 
L 1594 1772 
L 1856 2816 
L 850 2816 
L 850 3297 
L 1978 3297 
L 2297 4594 
L 2803 4594 
z
" transform="scale(0.015625)"/>
       <path id="DejaVuSans-20" transform="scale(0.015625)"/>
       <path id="DejaVuSans-66" d="M 2375 4863 
L 2375 4384 
L 1825 4384 
Q 1516 4384 1395 4259 
Q 1275 4134 1275 3809 
L 1275 3500 
L 2222 3500 
L 2222 3053 
L 1275 3053 
L 1275 0 
L 697 0 
L 697 3053 
L 147 3053 
L 147 3500 
L 697 3500 
L 697 3744 
Q 697 4328 969 4595 
Q 1241 4863 1831 4863 
L 2375 4863 
z
" transform="scale(0.015625)"/>
       <path id="DejaVuSans-2d" d="M 313 2009 
L 1997 2009 
L 1997 1497 
L 313 1497 
L 313 2009 
z
" transform="scale(0.015625)"/>
       <path id="DejaVuSans-65" d="M 3597 1894 
L 3597 1613 
L 953 1613 
Q 991 1019 1311 708 
Q 1631 397 2203 397 
Q 2534 397 2845 478 
Q 3156 559 3463 722 
L 3463 178 
Q 3153 47 2828 -22 
Q 2503 -91 2169 -91 
Q 1331 -91 842 396 
Q 353 884 353 1716 
Q 353 2575 817 3079 
Q 1281 3584 2069 3584 
Q 2775 3584 3186 3129 
Q 3597 2675 3597 1894 
z
M 3022 2063 
Q 3016 2534 2758 2815 
Q 2500 3097 2075 3097 
Q 1594 3097 1305 2825 
Q 1016 2553 972 2059 
L 3022 2063 
z
" transform="scale(0.015625)"/>
       <path id="DejaVuSans-76" d="M 191 3500 
L 800 3500 
L 1894 563 
L 2988 3500 
L 3597 3500 
L 2284 0 
L 1503 0 
L 191 3500 
z
" transform="scale(0.015625)"/>
       <path id="DejaVuSans-61" d="M 2194 1759 
Q 1497 1759 1228 1600 
Q 959 1441 959 1056 
Q 959 750 1161 570 
Q 1363 391 1709 391 
Q 2188 391 2477 730 
Q 2766 1069 2766 1631 
L 2766 1759 
L 2194 1759 
z
M 3341 1997 
L 3341 0 
L 2766 0 
L 2766 531 
Q 2569 213 2275 61 
Q 1981 -91 1556 -91 
Q 1019 -91 701 211 
Q 384 513 384 1019 
Q 384 1609 779 1909 
Q 1175 2209 1959 2209 
L 2766 2209 
L 2766 2266 
Q 2766 2663 2505 2880 
Q 2244 3097 1772 3097 
Q 1472 3097 1187 3025 
Q 903 2953 641 2809 
L 641 3341 
Q 956 3463 1253 3523 
Q 1550 3584 1831 3584 
Q 2591 3584 2966 3190 
Q 3341 2797 3341 1997 
z
" transform="scale(0.015625)"/>
       <path id="DejaVuSans-73" d="M 2834 3397 
L 2834 2853 
Q 2591 2978 2328 3040 
Q 2066 3103 1784 3103 
Q 1356 3103 1142 2972 
Q 928 2841 928 2578 
Q 928 2378 1081 2264 
Q 1234 2150 1697 2047 
L 1894 2003 
Q 2506 1872 2764 1633 
Q 3022 1394 3022 966 
Q 3022 478 2636 193 
Q 2250 -91 1575 -91 
Q 1294 -91 989 -36 
Q 684 19 347 128 
L 347 722 
Q 666 556 975 473 
Q 1284 391 1588 391 
Q 1994 391 2212 530 
Q 2431 669 2431 922 
Q 2431 1156 2273 1281 
Q 2116 1406 1581 1522 
L 1381 1569 
Q 847 1681 609 1914 
Q 372 2147 372 2553 
Q 372 3047 722 3315 
Q 1072 3584 1716 3584 
Q 2034 3584 2315 3537 
Q 2597 3491 2834 3397 
z
" transform="scale(0.015625)"/>
       <path id="DejaVuSans-2f" d="M 1625 4666 
L 2156 4666 
L 531 -594 
L 0 -594 
L 1625 4666 
z
" transform="scale(0.015625)"/>
       <path id="DejaVuSans-64" d="M 2906 2969 
L 2906 4863 
L 3481 4863 
L 3481 0 
L 2906 0 
L 2906 525 
Q 2725 213 2448 61 
Q 2172 -91 1784 -91 
Q 1150 -91 751 415 
Q 353 922 353 1747 
Q 353 2572 751 3078 
Q 1150 3584 1784 3584 
Q 2172 3584 2448 3432 
Q 2725 3281 2906 2969 
z
M 947 1747 
Q 947 1113 1208 752 
Q 1469 391 1925 391 
Q 2381 391 2643 752 
Q 2906 1113 2906 1747 
Q 2906 2381 2643 2742 
Q 2381 3103 1925 3103 
Q 1469 3103 1208 2742 
Q 947 2381 947 1747 
z
" transform="scale(0.015625)"/>
       <path id="DejaVuSans-69" d="M 603 3500 
L 1178 3500 
L 1178 0 
L 603 0 
L 603 3500 
z
M 603 4863 
L 1178 4863 
L 1178 4134 
L 603 4134 
L 603 4863 
z
" transform="scale(0.015625)"/>
       <path id="DejaVuSans-6d" d="M 3328 2828 
Q 3544 3216 3844 3400 
Q 4144 3584 4550 3584 
Q 5097 3584 5394 3201 
Q 5691 2819 5691 2113 
L 5691 0 
L 5113 0 
L 5113 2094 
Q 5113 2597 4934 2840 
Q 4756 3084 4391 3084 
Q 3944 3084 3684 2787 
Q 3425 2491 3425 1978 
L 3425 0 
L 2847 0 
L 2847 2094 
Q 2847 2600 2669 2842 
Q 2491 3084 2119 3084 
Q 1678 3084 1418 2786 
Q 1159 2488 1159 1978 
L 1159 0 
L 581 0 
L 581 3500 
L 1159 3500 
L 1159 2956 
Q 1356 3278 1631 3431 
Q 1906 3584 2284 3584 
Q 2666 3584 2933 3390 
Q 3200 3197 3328 2828 
z
" transform="scale(0.015625)"/>
       <path id="DejaVuSans-6e" d="M 3513 2113 
L 3513 0 
L 2938 0 
L 2938 2094 
Q 2938 2591 2744 2837 
Q 2550 3084 2163 3084 
Q 1697 3084 1428 2787 
Q 1159 2491 1159 1978 
L 1159 0 
L 581 0 
L 581 3500 
L 1159 3500 
L 1159 2956 
Q 1366 3272 1645 3428 
Q 1925 3584 2291 3584 
Q 2894 3584 3203 3211 
Q 3513 2838 3513 2113 
z
" transform="scale(0.015625)"/>
       <path id="DejaVuSans-29" d="M 513 4856 
L 1013 4856 
Q 1481 4119 1714 3412 
Q 1947 2706 1947 2009 
Q 1947 1309 1714 600 
Q 1481 -109 1013 -844 
L 513 -844 
Q 928 -128 1133 580 
Q 1338 1288 1338 2009 
Q 1338 2731 1133 3434 
Q 928 4138 513 4856 
z
" transform="scale(0.015625)"/>
      </defs>
      <use xlink:href="#DejaVuSans-6c"/>
      <use xlink:href="#DejaVuSans-6f" x="27.783203"/>
      <use xlink:href="#DejaVuSans-67" x="88.964844"/>
      <use xlink:href="#DejaVuSans-31" x="152.441406"/>
      <use xlink:href="#DejaVuSans-30" x="216.064453"/>
      <use xlink:href="#DejaVuSans-28" x="279.6875"/>
      <use xlink:href="#DejaVuSans-23" x="318.701172"/>
      <use xlink:href="#DejaVuSans-20" x="402.490234"/>
      <use xlink:href="#DejaVuSans-66" x="434.277344"/>
      <use xlink:href="#DejaVuSans-2d" x="463.982422"/>
      <use xlink:href="#DejaVuSans-65" x="500.066406"/>
      <use xlink:href="#DejaVuSans-76" x="561.589844"/>
      <use xlink:href="#DejaVuSans-61" x="620.769531"/>
      <use xlink:href="#DejaVuSans-6c" x="682.048828"/>
      <use xlink:href="#DejaVuSans-73" x="709.832031"/>
      <use xlink:href="#DejaVuSans-20" x="761.931641"/>
      <use xlink:href="#DejaVuSans-2f" x="793.71875"/>
      <use xlink:href="#DejaVuSans-20" x="827.410156"/>
      <use xlink:href="#DejaVuSans-64" x="859.197266"/>
      <use xlink:href="#DejaVuSans-69" x="922.673828"/>
      <use xlink:href="#DejaVuSans-6d" x="950.457031"/>
      <use xlink:href="#DejaVuSans-65" x="1047.869141"/>
      <use xlink:href="#DejaVuSans-6e" x="1109.392578"/>
      <use xlink:href="#DejaVuSans-73" x="1172.771484"/>
      <use xlink:href="#DejaVuSans-69" x="1224.871094"/>
      <use xlink:href="#DejaVuSans-6f" x="1252.654297"/>
      <use xlink:href="#DejaVuSans-6e" x="1313.835938"/>
      <use xlink:href="#DejaVuSans-29" x="1377.214844"/>
     </g>
    </g>
   </g>
   <g id="matplotlib.axis_2">
    <g id="ytick_1">
     <g id="line2d_21">
      <path d="M 57.6 298.944 
L 360.8064 298.944 
" clip-path="url(#p434135ad83)" style="fill: none; stroke: #b0b0b0; stroke-width: 0.8; stroke-linecap: square"/>
     </g>
     <g id="line2d_22">
      <defs>
       <path id="m591d8a88d8" d="M 0 0 
L -3.5 0 
" style="stroke: #000000; stroke-width: 0.8"/>
      </defs>
      <g>
       <use xlink:href="#m591d8a88d8" x="57.6" y="298.944" style="stroke: #000000; stroke-width: 0.8"/>
      </g>
     </g>
     <g id="text_6">
      <!-- 0.0 -->
      <g transform="translate(25.155 305.02275) scale(0.16 -0.16)">
       <defs>
        <path id="DejaVuSans-2e" d="M 684 794 
L 1344 794 
L 1344 0 
L 684 0 
L 684 794 
z
" transform="scale(0.015625)"/>
       </defs>
       <use xlink:href="#DejaVuSans-30"/>
       <use xlink:href="#DejaVuSans-2e" x="63.623047"/>
       <use xlink:href="#DejaVuSans-30" x="95.410156"/>
      </g>
     </g>
    </g>
    <g id="ytick_2">
     <g id="line2d_23">
      <path d="M 57.6 240.5376 
L 360.8064 240.5376 
" clip-path="url(#p434135ad83)" style="fill: none; stroke: #b0b0b0; stroke-width: 0.8; stroke-linecap: square"/>
     </g>
     <g id="line2d_24">
      <g>
       <use xlink:href="#m591d8a88d8" x="57.6" y="240.5376" style="stroke: #000000; stroke-width: 0.8"/>
      </g>
     </g>
     <g id="text_7">
      <!-- 0.2 -->
      <g transform="translate(25.155 246.61635) scale(0.16 -0.16)">
       <use xlink:href="#DejaVuSans-30"/>
       <use xlink:href="#DejaVuSans-2e" x="63.623047"/>
       <use xlink:href="#DejaVuSans-32" x="95.410156"/>
      </g>
     </g>
    </g>
    <g id="ytick_3">
     <g id="line2d_25">
      <path d="M 57.6 182.1312 
L 360.8064 182.1312 
" clip-path="url(#p434135ad83)" style="fill: none; stroke: #b0b0b0; stroke-width: 0.8; stroke-linecap: square"/>
     </g>
     <g id="line2d_26">
      <g>
       <use xlink:href="#m591d8a88d8" x="57.6" y="182.1312" style="stroke: #000000; stroke-width: 0.8"/>
      </g>
     </g>
     <g id="text_8">
      <!-- 0.4 -->
      <g transform="translate(25.155 188.20995) scale(0.16 -0.16)">
       <use xlink:href="#DejaVuSans-30"/>
       <use xlink:href="#DejaVuSans-2e" x="63.623047"/>
       <use xlink:href="#DejaVuSans-34" x="95.410156"/>
      </g>
     </g>
    </g>
    <g id="ytick_4">
     <g id="line2d_27">
      <path d="M 57.6 123.7248 
L 360.8064 123.7248 
" clip-path="url(#p434135ad83)" style="fill: none; stroke: #b0b0b0; stroke-width: 0.8; stroke-linecap: square"/>
     </g>
     <g id="line2d_28">
      <g>
       <use xlink:href="#m591d8a88d8" x="57.6" y="123.7248" style="stroke: #000000; stroke-width: 0.8"/>
      </g>
     </g>
     <g id="text_9">
      <!-- 0.6 -->
      <g transform="translate(25.155 129.80355) scale(0.16 -0.16)">
       <use xlink:href="#DejaVuSans-30"/>
       <use xlink:href="#DejaVuSans-2e" x="63.623047"/>
       <use xlink:href="#DejaVuSans-36" x="95.410156"/>
      </g>
     </g>
    </g>
    <g id="ytick_5">
     <g id="line2d_29">
      <path d="M 57.6 65.3184 
L 360.8064 65.3184 
" clip-path="url(#p434135ad83)" style="fill: none; stroke: #b0b0b0; stroke-width: 0.8; stroke-linecap: square"/>
     </g>
     <g id="line2d_30">
      <g>
       <use xlink:href="#m591d8a88d8" x="57.6" y="65.3184" style="stroke: #000000; stroke-width: 0.8"/>
      </g>
     </g>
     <g id="text_10">
      <!-- 0.8 -->
      <g transform="translate(25.155 71.39715) scale(0.16 -0.16)">
       <defs>
        <path id="DejaVuSans-38" d="M 2034 2216 
Q 1584 2216 1326 1975 
Q 1069 1734 1069 1313 
Q 1069 891 1326 650 
Q 1584 409 2034 409 
Q 2484 409 2743 651 
Q 3003 894 3003 1313 
Q 3003 1734 2745 1975 
Q 2488 2216 2034 2216 
z
M 1403 2484 
Q 997 2584 770 2862 
Q 544 3141 544 3541 
Q 544 4100 942 4425 
Q 1341 4750 2034 4750 
Q 2731 4750 3128 4425 
Q 3525 4100 3525 3541 
Q 3525 3141 3298 2862 
Q 3072 2584 2669 2484 
Q 3125 2378 3379 2068 
Q 3634 1759 3634 1313 
Q 3634 634 3220 271 
Q 2806 -91 2034 -91 
Q 1263 -91 848 271 
Q 434 634 434 1313 
Q 434 1759 690 2068 
Q 947 2378 1403 2484 
z
M 1172 3481 
Q 1172 3119 1398 2916 
Q 1625 2713 2034 2713 
Q 2441 2713 2670 2916 
Q 2900 3119 2900 3481 
Q 2900 3844 2670 4047 
Q 2441 4250 2034 4250 
Q 1625 4250 1398 4047 
Q 1172 3844 1172 3481 
z
" transform="scale(0.015625)"/>
       </defs>
       <use xlink:href="#DejaVuSans-30"/>
       <use xlink:href="#DejaVuSans-2e" x="63.623047"/>
       <use xlink:href="#DejaVuSans-38" x="95.410156"/>
      </g>
     </g>
    </g>
    <g id="ytick_6">
     <g id="line2d_31">
      <path d="M 57.6 6.912 
L 360.8064 6.912 
" clip-path="url(#p434135ad83)" style="fill: none; stroke: #b0b0b0; stroke-width: 0.8; stroke-linecap: square"/>
     </g>
     <g id="line2d_32">
      <g>
       <use xlink:href="#m591d8a88d8" x="57.6" y="6.912" style="stroke: #000000; stroke-width: 0.8"/>
      </g>
     </g>
     <g id="text_11">
      <!-- 1.0 -->
      <g transform="translate(25.155 12.99075) scale(0.16 -0.16)">
       <use xlink:href="#DejaVuSans-31"/>
       <use xlink:href="#DejaVuSans-2e" x="63.623047"/>
       <use xlink:href="#DejaVuSans-30" x="95.410156"/>
      </g>
     </g>
    </g>
    <g id="text_12">
     <!-- Fraction of function,target pairs -->
     <g transform="translate(17.619531 287.313) rotate(-90) scale(0.17 -0.17)">
      <defs>
       <path id="DejaVuSans-46" d="M 628 4666 
L 3309 4666 
L 3309 4134 
L 1259 4134 
L 1259 2759 
L 3109 2759 
L 3109 2228 
L 1259 2228 
L 1259 0 
L 628 0 
L 628 4666 
z
" transform="scale(0.015625)"/>
       <path id="DejaVuSans-72" d="M 2631 2963 
Q 2534 3019 2420 3045 
Q 2306 3072 2169 3072 
Q 1681 3072 1420 2755 
Q 1159 2438 1159 1844 
L 1159 0 
L 581 0 
L 581 3500 
L 1159 3500 
L 1159 2956 
Q 1341 3275 1631 3429 
Q 1922 3584 2338 3584 
Q 2397 3584 2469 3576 
Q 2541 3569 2628 3553 
L 2631 2963 
z
" transform="scale(0.015625)"/>
       <path id="DejaVuSans-63" d="M 3122 3366 
L 3122 2828 
Q 2878 2963 2633 3030 
Q 2388 3097 2138 3097 
Q 1578 3097 1268 2742 
Q 959 2388 959 1747 
Q 959 1106 1268 751 
Q 1578 397 2138 397 
Q 2388 397 2633 464 
Q 2878 531 3122 666 
L 3122 134 
Q 2881 22 2623 -34 
Q 2366 -91 2075 -91 
Q 1284 -91 818 406 
Q 353 903 353 1747 
Q 353 2603 823 3093 
Q 1294 3584 2113 3584 
Q 2378 3584 2631 3529 
Q 2884 3475 3122 3366 
z
" transform="scale(0.015625)"/>
       <path id="DejaVuSans-74" d="M 1172 4494 
L 1172 3500 
L 2356 3500 
L 2356 3053 
L 1172 3053 
L 1172 1153 
Q 1172 725 1289 603 
Q 1406 481 1766 481 
L 2356 481 
L 2356 0 
L 1766 0 
Q 1100 0 847 248 
Q 594 497 594 1153 
L 594 3053 
L 172 3053 
L 172 3500 
L 594 3500 
L 594 4494 
L 1172 4494 
z
" transform="scale(0.015625)"/>
       <path id="DejaVuSans-75" d="M 544 1381 
L 544 3500 
L 1119 3500 
L 1119 1403 
Q 1119 906 1312 657 
Q 1506 409 1894 409 
Q 2359 409 2629 706 
Q 2900 1003 2900 1516 
L 2900 3500 
L 3475 3500 
L 3475 0 
L 2900 0 
L 2900 538 
Q 2691 219 2414 64 
Q 2138 -91 1772 -91 
Q 1169 -91 856 284 
Q 544 659 544 1381 
z
M 1991 3584 
L 1991 3584 
z
" transform="scale(0.015625)"/>
       <path id="DejaVuSans-2c" d="M 750 794 
L 1409 794 
L 1409 256 
L 897 -744 
L 494 -744 
L 750 256 
L 750 794 
z
" transform="scale(0.015625)"/>
       <path id="DejaVuSans-70" d="M 1159 525 
L 1159 -1331 
L 581 -1331 
L 581 3500 
L 1159 3500 
L 1159 2969 
Q 1341 3281 1617 3432 
Q 1894 3584 2278 3584 
Q 2916 3584 3314 3078 
Q 3713 2572 3713 1747 
Q 3713 922 3314 415 
Q 2916 -91 2278 -91 
Q 1894 -91 1617 61 
Q 1341 213 1159 525 
z
M 3116 1747 
Q 3116 2381 2855 2742 
Q 2594 3103 2138 3103 
Q 1681 3103 1420 2742 
Q 1159 2381 1159 1747 
Q 1159 1113 1420 752 
Q 1681 391 2138 391 
Q 2594 391 2855 752 
Q 3116 1113 3116 1747 
z
" transform="scale(0.015625)"/>
      </defs>
      <use xlink:href="#DejaVuSans-46"/>
      <use xlink:href="#DejaVuSans-72" x="50.269531"/>
      <use xlink:href="#DejaVuSans-61" x="91.382812"/>
      <use xlink:href="#DejaVuSans-63" x="152.662109"/>
      <use xlink:href="#DejaVuSans-74" x="207.642578"/>
      <use xlink:href="#DejaVuSans-69" x="246.851562"/>
      <use xlink:href="#DejaVuSans-6f" x="274.634766"/>
      <use xlink:href="#DejaVuSans-6e" x="335.816406"/>
      <use xlink:href="#DejaVuSans-20" x="399.195312"/>
      <use xlink:href="#DejaVuSans-6f" x="430.982422"/>
      <use xlink:href="#DejaVuSans-66" x="492.164062"/>
      <use xlink:href="#DejaVuSans-20" x="527.369141"/>
      <use xlink:href="#DejaVuSans-66" x="559.15625"/>
      <use xlink:href="#DejaVuSans-75" x="594.361328"/>
      <use xlink:href="#DejaVuSans-6e" x="657.740234"/>
      <use xlink:href="#DejaVuSans-63" x="721.119141"/>
      <use xlink:href="#DejaVuSans-74" x="776.099609"/>
      <use xlink:href="#DejaVuSans-69" x="815.308594"/>
      <use xlink:href="#DejaVuSans-6f" x="843.091797"/>
      <use xlink:href="#DejaVuSans-6e" x="904.273438"/>
      <use xlink:href="#DejaVuSans-2c" x="967.652344"/>
      <use xlink:href="#DejaVuSans-74" x="999.439453"/>
      <use xlink:href="#DejaVuSans-61" x="1038.648438"/>
      <use xlink:href="#DejaVuSans-72" x="1099.927734"/>
      <use xlink:href="#DejaVuSans-67" x="1139.291016"/>
      <use xlink:href="#DejaVuSans-65" x="1202.767578"/>
      <use xlink:href="#DejaVuSans-74" x="1264.291016"/>
      <use xlink:href="#DejaVuSans-20" x="1303.5"/>
      <use xlink:href="#DejaVuSans-70" x="1335.287109"/>
      <use xlink:href="#DejaVuSans-61" x="1398.763672"/>
      <use xlink:href="#DejaVuSans-69" x="1460.042969"/>
      <use xlink:href="#DejaVuSans-72" x="1487.826172"/>
      <use xlink:href="#DejaVuSans-73" x="1528.939453"/>
     </g>
    </g>
   </g>
   <g id="line2d_33">
    <defs>
     <path id="me42223b73a" d="M 0 1.5 
C 0.397805 1.5 0.77937 1.341951 1.06066 1.06066 
C 1.341951 0.77937 1.5 0.397805 1.5 0 
C 1.5 -0.397805 1.341951 -0.77937 1.06066 -1.06066 
C 0.77937 -1.341951 0.397805 -1.5 0 -1.5 
C -0.397805 -1.5 -0.77937 -1.341951 -1.06066 -1.06066 
C -1.341951 -0.77937 -1.5 -0.397805 -1.5 0 
C -1.5 0.397805 -1.341951 0.77937 -1.06066 1.06066 
C -0.77937 1.341951 -0.397805 1.5 0 1.5 
z
" style="stroke: #f5deb3"/>
    </defs>
    <g>
     <use xlink:href="#me42223b73a" x="363.077094" y="59.779862" style="fill: #f5deb3; stroke: #f5deb3"/>
     <use xlink:href="#me42223b73a" x="363.077094" y="59.779862" style="fill: #f5deb3; stroke: #f5deb3"/>
    </g>
   </g>
   <g id="line2d_34">
    <defs>
     <path id="me44761a508" d="M 0 1.5 
C 0.397805 1.5 0.77937 1.341951 1.06066 1.06066 
C 1.341951 0.77937 1.5 0.397805 1.5 0 
C 1.5 -0.397805 1.341951 -0.77937 1.06066 -1.06066 
C 0.77937 -1.341951 0.397805 -1.5 0 -1.5 
C -0.397805 -1.5 -0.77937 -1.341951 -1.06066 -1.06066 
C -1.341951 -0.77937 -1.5 -0.397805 -1.5 0 
C -1.5 0.397805 -1.341951 0.77937 -1.06066 1.06066 
C -0.77937 1.341951 -0.397805 1.5 0 1.5 
z
" style="stroke: #000080"/>
    </defs>
    <g>
     <use xlink:href="#me44761a508" x="187.443742" y="223.921986" style="fill: #000080; stroke: #000080"/>
     <use xlink:href="#me44761a508" x="187.443742" y="223.921986" style="fill: #000080; stroke: #000080"/>
    </g>
   </g>
   <g id="line2d_35">
    <path d="M 27.323974 298.944 
L 27.323974 291.265572 
L 40.363149 291.265572 
L 40.363149 290.762069 
L 47.990577 290.762069 
L 47.990577 290.510317 
L 53.402323 290.510317 
L 53.402323 288.748055 
L 61.029752 288.748055 
L 61.029752 288.244552 
L 63.929565 288.244552 
L 63.929565 287.741048 
L 68.65718 287.741048 
L 68.65718 287.363421 
L 70.639174 287.363421 
L 70.639174 286.985793 
L 74.068926 286.985793 
L 74.068926 286.608166 
L 78.266603 286.608166 
L 78.266603 286.356414 
L 79.480672 286.356414 
L 79.480672 286.104662 
L 81.696354 286.104662 
L 81.696354 285.978786 
L 82.713442 285.978786 
L 82.713442 285.85291 
L 84.596168 285.85291 
L 84.596168 285.727034 
L 85.471281 285.727034 
L 85.471281 285.475283 
L 87.1081 285.475283 
L 87.1081 285.349407 
L 88.613828 285.349407 
L 88.613828 285.223531 
L 89.323782 285.223531 
L 89.323782 285.097655 
L 90.668036 285.097655 
L 90.668036 284.971779 
L 93.098709 284.971779 
L 93.098709 284.594152 
L 93.66029 284.594152 
L 93.66029 284.216524 
L 100.147275 284.216524 
L 100.147275 284.090648 
L 100.535156 284.090648 
L 100.535156 283.964772 
L 100.9152 283.964772 
L 100.9152 283.838897 
L 101.287718 283.838897 
L 101.287718 283.587145 
L 104.344952 283.587145 
L 104.344952 283.461269 
L 105.26277 283.461269 
L 105.26277 283.209517 
L 105.559021 283.209517 
L 105.559021 282.957766 
L 105.850679 282.957766 
L 105.850679 282.83189 
L 106.137884 282.83189 
L 106.137884 282.706014 
L 106.699465 282.706014 
L 106.699465 282.580138 
L 107.244765 282.580138 
L 107.244765 282.454262 
L 108.542628 282.454262 
L 108.542628 282.20251 
L 109.037698 282.20251 
L 109.037698 282.076634 
L 109.990385 282.076634 
L 109.990385 281.950759 
L 110.449226 281.950759 
L 110.449226 281.824883 
L 110.674517 281.824883 
L 110.674517 281.573131 
L 110.897141 281.573131 
L 110.897141 281.447255 
L 111.117162 281.447255 
L 111.117162 281.321379 
L 112.180244 281.321379 
L 112.180244 281.069628 
L 112.385837 281.069628 
L 112.385837 280.817876 
L 113.954374 280.817876 
L 113.954374 280.692 
L 114.326893 280.692 
L 114.326893 280.566124 
L 114.692177 280.566124 
L 114.692177 280.440248 
L 115.917548 280.440248 
L 115.917548 280.062621 
L 116.253478 280.062621 
L 116.253478 279.936745 
L 116.583514 279.936745 
L 116.583514 279.810869 
L 116.746385 279.810869 
L 116.746385 279.684993 
L 117.067958 279.684993 
L 117.067958 279.559117 
L 117.226706 279.559117 
L 117.226706 279.433241 
L 117.540239 279.433241 
L 117.540239 279.307366 
L 117.695068 279.307366 
L 117.695068 279.18149 
L 117.848632 279.18149 
L 117.848632 279.055614 
L 118.74459 279.055614 
L 118.74459 278.677986 
L 119.034004 278.677986 
L 119.034004 278.55211 
L 119.177058 278.55211 
L 119.177058 278.426234 
L 119.319033 278.426234 
L 119.319033 278.174483 
L 119.876453 278.174483 
L 119.876453 277.922731 
L 120.149089 277.922731 
L 120.149089 277.796855 
L 120.28394 277.796855 
L 120.28394 277.545103 
L 120.550775 277.545103 
L 120.550775 277.419228 
L 120.813877 277.419228 
L 120.813877 277.293352 
L 121.201758 277.293352 
L 121.201758 277.0416 
L 121.329295 277.0416 
L 121.329295 276.915724 
L 121.581803 276.915724 
L 121.581803 276.789848 
L 122.076872 276.789848 
L 122.076872 276.663972 
L 122.677931 276.663972 
L 122.677931 276.538097 
L 122.795872 276.538097 
L 122.795872 276.412221 
L 122.913079 276.412221 
L 122.913079 276.286345 
L 123.601383 276.286345 
L 123.601383 276.034593 
L 124.265389 276.034593 
L 124.265389 275.782841 
L 124.695386 275.782841 
L 124.695386 275.53109 
L 125.526971 275.53109 
L 125.526971 275.279338 
L 125.929373 275.279338 
L 125.929373 275.153462 
L 126.127391 275.153462 
L 126.127391 275.027586 
L 126.323346 275.027586 
L 126.323346 274.90171 
L 126.709238 274.90171 
L 126.709238 274.775834 
L 127.640693 274.775834 
L 127.640693 274.649959 
L 128.089678 274.649959 
L 128.089678 274.524083 
L 128.528195 274.524083 
L 128.528195 274.398207 
L 128.700779 274.398207 
L 128.700779 274.272331 
L 129.209231 274.272331 
L 129.209231 274.020579 
L 129.458394 274.020579 
L 129.54072 273.642952 
L 129.7043 273.642952 
L 129.7043 273.517076 
L 129.86647 273.517076 
L 129.86647 273.265324 
L 130.107132 273.265324 
L 130.186674 272.761821 
L 130.265881 272.761821 
L 130.265881 272.510069 
L 130.656987 272.510069 
L 130.656987 272.384193 
L 130.811181 272.384193 
L 130.811181 272.258317 
L 131.71071 272.258317 
L 131.783764 272.006566 
L 131.929028 272.006566 
L 131.929028 271.88069 
L 132.708526 271.88069 
L 132.777813 271.503062 
L 132.846847 271.503062 
L 132.915628 271.25131 
L 132.984158 271.25131 
L 132.984158 270.999559 
L 133.120474 270.999559 
L 133.120474 270.873683 
L 133.390178 270.873683 
L 133.390178 270.747807 
L 133.656071 270.747807 
L 133.656071 270.621931 
L 133.853052 270.621931 
L 133.918257 270.370179 
L 133.983236 270.370179 
L 133.983236 270.244303 
L 134.112526 270.244303 
L 134.112526 270.118428 
L 134.240933 270.118428 
L 134.240933 269.992552 
L 134.495147 269.992552 
L 134.558167 269.614924 
L 134.620977 269.614924 
L 134.620977 269.489048 
L 134.808158 269.489048 
L 134.808158 269.363172 
L 135.177024 269.363172 
L 135.177024 269.111421 
L 135.418977 269.111421 
L 135.418977 268.985545 
L 136.299553 268.985545 
L 136.299553 268.859669 
L 136.413909 268.859669 
L 136.470828 268.607917 
L 136.696795 268.607917 
L 136.752866 268.356166 
L 137.412988 268.356166 
L 137.412988 268.23029 
L 137.681345 268.23029 
L 137.734561 267.978538 
L 137.945929 267.978538 
L 138.050729 267.349159 
L 138.667556 267.349159 
L 138.667556 267.223283 
L 138.918715 267.223283 
L 138.918715 266.971531 
L 139.508159 266.971531 
L 139.604629 266.593903 
L 139.93843 266.593903 
L 139.93843 266.0904 
L 140.219905 266.0904 
L 140.312801 265.586897 
L 140.770526 265.586897 
L 140.770526 265.461021 
L 141.128852 265.461021 
L 141.217377 265.209269 
L 141.48048 265.209269 
L 141.48048 264.957517 
L 141.65386 264.957517 
L 141.65386 264.705766 
L 141.953481 264.705766 
L 142.038218 264.202262 
L 142.290162 264.202262 
L 142.373399 263.95051 
L 142.497568 263.95051 
L 142.538777 263.698759 
L 142.702713 263.698759 
L 142.702713 263.321131 
L 142.905644 263.321131 
L 142.905644 263.195255 
L 143.066428 263.195255 
L 143.066428 262.943503 
L 143.423243 262.943503 
L 143.423243 262.817628 
L 143.696162 262.817628 
L 143.773417 262.565876 
L 143.888708 262.565876 
L 143.888708 262.44 
L 144.079302 262.44 
L 144.079302 262.314124 
L 144.529002 262.314124 
L 144.529002 262.188248 
L 144.85936 262.188248 
L 144.85936 262.062372 
L 145.184016 262.062372 
L 145.184016 261.810621 
L 145.503164 261.810621 
L 145.503164 261.684745 
L 145.851536 261.684745 
L 145.851536 261.558869 
L 146.057504 261.558869 
L 146.057504 261.055366 
L 146.193574 261.055366 
L 146.193574 260.92949 
L 146.362288 260.92949 
L 146.395851 260.677738 
L 146.529503 260.677738 
L 146.629123 260.048359 
L 146.793994 260.048359 
L 146.793994 259.796607 
L 146.957431 259.796607 
L 147.054816 259.418979 
L 147.375841 259.418979 
L 147.471089 259.167228 
L 147.534321 259.167228 
L 147.534321 259.041352 
L 147.816265 259.041352 
L 147.878349 258.286097 
L 148.785835 258.286097 
L 148.785835 258.160221 
L 148.903591 258.160221 
L 148.932916 257.782593 
L 149.679732 257.782593 
L 149.679732 257.656717 
L 149.79204 257.656717 
L 149.847944 257.404966 
L 149.959255 257.404966 
L 149.98698 257.153214 
L 150.179921 257.153214 
L 150.179921 257.027338 
L 150.667154 257.027338 
L 150.667154 256.901462 
L 151.116012 256.901462 
L 151.168122 256.64971 
L 152.20574 256.64971 
L 152.20574 256.397959 
L 152.811444 256.397959 
L 152.811444 256.272083 
L 153.189104 256.272083 
L 153.212458 255.894455 
L 153.351976 255.894455 
L 153.421349 255.516828 
L 153.559331 255.516828 
L 153.559331 255.390952 
L 153.696309 255.390952 
L 153.696309 255.265076 
L 154.101358 255.265076 
L 154.101358 255.013324 
L 154.278618 255.013324 
L 154.322673 254.635697 
L 154.432362 254.635697 
L 154.432362 254.509821 
L 154.649839 254.509821 
L 154.649839 254.258069 
L 154.928852 254.258069 
L 154.971412 254.006317 
L 155.140696 254.006317 
L 155.22477 253.502814 
L 155.329337 253.502814 
L 155.329337 253.376938 
L 155.701037 253.376938 
L 155.701037 253.251062 
L 155.863909 253.251062 
L 155.863909 253.125186 
L 156.065535 253.125186 
L 156.065535 252.99931 
L 156.599372 252.99931 
L 156.599372 252.873434 
L 157.715719 252.873434 
L 157.789059 252.369931 
L 158.471883 252.369931 
L 158.471883 252.244055 
L 158.595008 252.244055 
L 158.647529 251.740552 
L 158.925196 251.740552 
L 158.993977 251.4888 
L 159.518669 251.4888 
L 159.518669 251.237048 
L 160.110173 251.237048 
L 160.190875 250.859421 
L 160.494422 250.859421 
L 160.557708 250.607669 
L 160.933013 250.607669 
L 160.933013 250.481793 
L 161.17912 250.481793 
L 161.224909 249.852414 
L 161.512345 249.852414 
L 161.512345 249.726538 
L 161.646981 249.726538 
L 161.646981 249.474786 
L 161.928087 249.474786 
L 161.928087 249.34891 
L 162.045202 249.34891 
L 162.045202 249.097159 
L 162.420867 249.097159 
L 162.420867 248.971283 
L 162.56338 248.971283 
L 162.56338 248.719531 
L 163.040002 248.719531 
L 163.040002 248.593655 
L 163.191653 248.593655 
L 163.191653 248.467779 
L 163.504846 248.467779 
L 163.504846 248.216028 
L 163.692963 248.216028 
L 163.706328 247.8384 
L 164.037409 247.8384 
L 164.037409 247.712524 
L 164.155187 247.712524 
L 164.155187 247.460772 
L 164.529751 247.460772 
L 164.529751 247.334897 
L 164.922068 247.334897 
L 164.922068 247.209021 
L 165.071763 247.209021 
L 165.071763 247.083145 
L 165.294095 247.083145 
L 165.367626 246.705517 
L 165.525963 246.705517 
L 165.525963 246.579641 
L 165.862536 246.579641 
L 165.862536 246.453766 
L 166.158043 246.453766 
L 166.158043 246.076138 
L 166.274957 246.076138 
L 166.379563 245.824386 
L 166.47206 245.824386 
L 166.541136 245.446759 
L 166.950346 245.446759 
L 166.950346 245.320883 
L 167.59146 245.320883 
L 167.613182 244.943255 
L 167.721419 244.943255 
L 167.721419 244.817379 
L 168.010586 244.817379 
L 168.010586 244.565628 
L 168.158793 244.565628 
L 168.23246 244.313876 
L 168.347644 244.313876 
L 168.441364 243.936248 
L 168.689024 243.936248 
L 168.689024 243.810372 
L 169.144777 243.810372 
L 169.224656 243.306869 
L 169.442591 243.306869 
L 169.442591 243.055117 
L 169.755147 243.055117 
L 169.755147 242.929241 
L 170.053063 242.929241 
L 170.081645 242.67749 
L 170.393211 242.67749 
L 170.467971 242.425738 
L 170.718116 242.425738 
L 170.718116 242.299862 
L 170.864796 242.299862 
L 170.864796 242.173986 
L 171.109753 242.173986 
L 171.109753 241.922234 
L 171.413749 241.922234 
L 171.466889 241.418731 
L 171.616642 241.418731 
L 171.642946 241.041103 
L 171.929885 241.041103 
L 171.929885 240.915228 
L 172.076012 240.915228 
L 172.076012 240.789352 
L 172.33959 240.789352 
L 172.33959 240.5376 
L 172.541145 240.5376 
L 172.549496 240.159972 
L 172.765341 240.159972 
L 172.839484 239.656469 
L 172.937888 239.656469 
L 172.937888 239.530593 
L 173.11697 239.530593 
L 173.213936 239.02709 
L 173.581081 239.02709 
L 173.588983 238.649462 
L 174.180052 238.649462 
L 174.241203 238.020083 
L 174.678701 238.020083 
L 174.678701 237.768331 
L 174.967261 237.768331 
L 175.047856 237.516579 
L 175.309232 237.516579 
L 175.330851 237.013076 
L 175.602554 237.013076 
L 175.602554 236.8872 
L 175.751039 236.8872 
L 175.751039 236.761324 
L 175.877386 236.761324 
L 175.912332 236.509572 
L 176.604692 236.509572 
L 176.604692 236.257821 
L 176.738821 236.257821 
L 176.765533 236.006069 
L 177.536927 236.006069 
L 177.536927 235.880193 
L 177.797717 235.880193 
L 177.879658 235.628441 
L 177.929905 235.628441 
L 177.986274 235.124938 
L 178.540864 235.124938 
L 178.540864 234.873186 
L 178.81813 234.873186 
L 178.919572 234.495559 
L 178.955245 234.495559 
L 179.026389 234.117931 
L 179.156125 234.117931 
L 179.26161 233.740303 
L 179.290807 233.740303 
L 179.290807 233.488552 
L 179.511235 233.488552 
L 179.55156 233.2368 
L 179.80307 233.2368 
L 179.899351 232.859172 
L 180.196396 232.859172 
L 180.196396 232.607421 
L 180.717373 232.607421 
L 180.717373 232.355669 
L 181.18742 232.355669 
L 181.276886 231.600414 
L 181.324079 231.600414 
L 181.324079 231.348662 
L 181.547935 231.348662 
L 181.547935 231.09691 
L 181.90675 231.09691 
L 181.90675 230.845159 
L 182.068527 230.845159 
L 182.068527 230.719283 
L 182.318551 230.719283 
L 182.36816 230.215779 
L 182.847523 230.215779 
L 182.847523 229.964028 
L 183.674278 229.964028 
L 183.697374 229.460524 
L 183.881127 229.460524 
L 183.917663 229.082897 
L 184.022311 229.082897 
L 184.022311 228.831145 
L 184.408525 228.831145 
L 184.488367 228.201766 
L 184.786969 228.201766 
L 184.869562 227.572386 
L 185.115186 227.572386 
L 185.115186 227.44651 
L 185.30686 227.44651 
L 185.353418 226.817131 
L 185.4966 226.817131 
L 185.4966 226.565379 
L 185.870435 226.565379 
L 185.870435 226.187752 
L 186.034228 226.187752 
L 186.034228 226.061876 
L 186.27325 226.061876 
L 186.27325 225.684248 
L 186.441569 225.684248 
L 186.441569 225.558372 
L 186.933788 225.558372 
L 187.038437 224.803117 
L 187.069333 224.803117 
L 187.073191 224.42549 
L 187.226881 224.42549 
L 187.226881 224.299614 
L 187.409667 224.299614 
L 187.443742 223.921986 
L 360.8064 223.921986 
L 360.8064 223.921986 
" style="fill: none; stroke: #000080; stroke-width: 1.5; stroke-linecap: square"/>
   </g>
   <g id="line2d_36">
    <defs>
     <path id="m7322023eb9" d="M 0 6 
C 1.591219 6 3.117479 5.367802 4.242641 4.242641 
C 5.367802 3.117479 6 1.591219 6 0 
C 6 -1.591219 5.367802 -3.117479 4.242641 -4.242641 
C 3.117479 -5.367802 1.591219 -6 0 -6 
C -1.591219 -6 -3.117479 -5.367802 -4.242641 -4.242641 
C -5.367802 -3.117479 -6 -1.591219 -6 0 
C -6 1.591219 -5.367802 3.117479 -4.242641 4.242641 
C -3.117479 5.367802 -1.591219 6 0 6 
z
" style="stroke: #000080; stroke-width: 1.5"/>
    </defs>
    <g>
     <use xlink:href="#m7322023eb9" x="136.752866" y="268.356166" style="fill-opacity: 0; stroke: #000080; stroke-width: 1.5"/>
     <use xlink:href="#m7322023eb9" x="175.912332" y="236.509572" style="fill-opacity: 0; stroke: #000080; stroke-width: 1.5"/>
     <use xlink:href="#m7322023eb9" x="187.443742" y="224.173738" style="fill-opacity: 0; stroke: #000080; stroke-width: 1.5"/>
     <use xlink:href="#m7322023eb9" x="187.443742" y="223.921986" style="fill-opacity: 0; stroke: #000080; stroke-width: 1.5"/>
     <use xlink:href="#m7322023eb9" x="187.443742" y="223.921986" style="fill-opacity: 0; stroke: #000080; stroke-width: 1.5"/>
     <use xlink:href="#m7322023eb9" x="360.8064" y="223.921986" style="fill-opacity: 0; stroke: #000080; stroke-width: 1.5"/>
    </g>
   </g>
   <g id="line2d_37">
    <path style="fill: none; stroke: #000080; stroke-width: 1.5; stroke-linecap: square"/>
    <g/>
   </g>
   <g id="line2d_38">
    <path d="M 187.564402 223.921986 
" clip-path="url(#p434135ad83)" style="fill: none; stroke: #000080; stroke-width: 1.5; stroke-linecap: square"/>
    <defs>
     <path id="mbfd105cfe4" d="M -12 12 
L 12 -12 
M -12 -12 
L 12 12 
" style="stroke: #000080"/>
    </defs>
    <g clip-path="url(#p434135ad83)">
     <use xlink:href="#mbfd105cfe4" x="187.564402" y="223.921986" style="fill: #000080; stroke: #000080"/>
    </g>
   </g>
   <g id="line2d_39">
    <defs>
     <path id="m68db44617f" d="M 0 1.5 
C 0.397805 1.5 0.77937 1.341951 1.06066 1.06066 
C 1.341951 0.77937 1.5 0.397805 1.5 0 
C 1.5 -0.397805 1.341951 -0.77937 1.06066 -1.06066 
C 0.77937 -1.341951 0.397805 -1.5 0 -1.5 
C -0.397805 -1.5 -0.77937 -1.341951 -1.06066 -1.06066 
C -1.341951 -0.77937 -1.5 -0.397805 -1.5 0 
C -1.5 0.397805 -1.341951 0.77937 -1.06066 1.06066 
C -0.77937 1.341951 -0.397805 1.5 0 1.5 
z
" style="stroke: #ff00ff"/>
    </defs>
    <g>
     <use xlink:href="#m68db44617f" x="187.322304" y="223.670234" style="fill: #ff00ff; stroke: #ff00ff"/>
     <use xlink:href="#m68db44617f" x="187.322304" y="223.670234" style="fill: #ff00ff; stroke: #ff00ff"/>
    </g>
   </g>
   <g id="line2d_40">
    <path d="M 27.323974 298.944 
L 27.323974 291.265572 
L 40.363149 291.265572 
L 40.363149 290.510317 
L 47.990577 290.510317 
L 47.990577 289.50331 
L 53.402323 289.50331 
L 53.402323 288.873931 
L 57.6 288.873931 
L 57.6 288.370428 
L 61.029752 288.370428 
L 61.029752 287.866924 
L 63.929565 287.866924 
L 63.929565 287.363421 
L 68.65718 287.363421 
L 68.65718 287.111669 
L 70.639174 287.111669 
L 70.639174 286.859917 
L 72.432107 286.859917 
L 72.432107 286.608166 
L 74.068926 286.608166 
L 74.068926 286.356414 
L 75.574654 286.356414 
L 75.574654 285.85291 
L 76.96874 285.85291 
L 76.96874 285.727034 
L 78.266603 285.727034 
L 78.266603 285.601159 
L 79.480672 285.601159 
L 79.480672 285.349407 
L 83.678349 285.349407 
L 83.678349 285.097655 
L 87.876026 285.097655 
L 87.876026 284.720028 
L 88.613828 284.720028 
L 88.613828 284.594152 
L 91.922605 284.594152 
L 91.922605 284.3424 
L 92.519847 284.3424 
L 92.519847 284.216524 
L 94.735529 284.216524 
L 94.735529 283.964772 
L 98.077987 283.964772 
L 98.077987 283.838897 
L 98.510456 283.838897 
L 98.510456 283.587145 
L 100.147275 283.587145 
L 100.147275 283.461269 
L 100.535156 283.461269 
L 100.535156 282.957766 
L 102.011329 282.957766 
L 102.011329 282.83189 
L 102.362957 282.83189 
L 102.362957 282.706014 
L 103.047088 282.706014 
L 103.047088 282.580138 
L 104.028784 282.580138 
L 104.028784 282.454262 
L 107.244765 282.454262 
L 107.244765 282.328386 
L 107.774703 282.328386 
L 107.774703 282.20251 
L 108.034177 282.20251 
L 108.034177 281.950759 
L 108.791791 281.950759 
L 108.791791 281.824883 
L 109.280431 281.824883 
L 109.280431 281.699007 
L 109.520071 281.699007 
L 109.520071 281.573131 
L 109.756698 281.573131 
L 109.756698 281.321379 
L 109.990385 281.321379 
L 109.990385 281.069628 
L 110.221204 281.069628 
L 110.221204 280.817876 
L 112.180244 280.817876 
L 112.180244 280.692 
L 112.385837 280.692 
L 112.385837 280.440248 
L 112.790402 280.440248 
L 112.790402 280.188497 
L 112.989468 280.188497 
L 112.989468 280.062621 
L 113.57433 280.062621 
L 113.57433 279.936745 
L 113.765312 279.936745 
L 113.765312 279.810869 
L 113.954374 279.810869 
L 113.954374 279.684993 
L 114.141556 279.684993 
L 114.141556 279.433241 
L 114.326893 279.433241 
L 114.326893 279.18149 
L 114.510421 279.18149 
L 114.510421 279.055614 
L 115.050503 279.055614 
L 115.050503 278.803862 
L 115.227139 278.803862 
L 115.227139 278.677986 
L 115.402131 278.677986 
L 115.402131 278.426234 
L 116.907859 278.426234 
L 116.907859 278.300359 
L 118.000953 278.300359 
L 118.000953 278.174483 
L 118.301945 278.174483 
L 118.301945 278.048607 
L 118.598196 278.048607 
L 118.598196 277.922731 
L 118.74459 277.922731 
L 118.74459 277.796855 
L 119.459944 277.796855 
L 119.459944 277.670979 
L 120.550775 277.670979 
L 120.550775 277.545103 
L 120.682786 277.545103 
L 120.682786 277.419228 
L 121.073351 277.419228 
L 121.073351 277.293352 
L 121.455972 277.293352 
L 121.455972 277.167476 
L 121.706797 277.167476 
L 121.706797 277.0416 
L 121.954321 277.0416 
L 121.954321 276.915724 
L 122.076872 276.915724 
L 122.076872 276.789848 
L 122.439807 276.789848 
L 122.439807 276.663972 
L 122.795872 276.663972 
L 122.795872 276.538097 
L 123.029559 276.538097 
L 123.029559 276.286345 
L 123.260379 276.286345 
L 123.260379 276.034593 
L 124.265389 276.034593 
L 124.373813 275.405214 
L 124.801367 275.405214 
L 124.906754 275.153462 
L 125.115773 275.153462 
L 125.115773 275.027586 
L 125.526971 275.027586 
L 125.526971 274.90171 
L 125.929373 274.90171 
L 126.028642 274.524083 
L 126.225624 274.524083 
L 126.225624 274.272331 
L 126.517282 274.272331 
L 126.517282 273.894703 
L 126.899255 273.894703 
L 126.899255 273.517076 
L 127.366067 273.517076 
L 127.458055 273.013572 
L 128.266313 273.013572 
L 128.354013 272.761821 
L 128.871795 272.761821 
L 128.956723 272.132441 
L 129.375706 272.132441 
L 129.375706 272.006566 
L 129.78556 272.006566 
L 129.86647 271.754814 
L 129.947033 271.754814 
L 129.947033 271.628938 
L 130.501519 271.628938 
L 130.501519 271.503062 
L 130.656987 271.503062 
L 130.734242 271.25131 
L 130.887807 271.25131 
L 130.887807 271.125434 
L 131.63737 271.125434 
L 131.63737 270.999559 
L 131.929028 270.999559 
L 131.929028 270.747807 
L 132.144842 270.747807 
L 132.144842 270.621931 
L 132.56918 270.621931 
L 132.56918 270.496055 
L 132.915628 270.496055 
L 132.915628 270.370179 
L 133.188264 270.370179 
L 133.188264 270.244303 
L 133.390178 270.244303 
L 133.390178 269.992552 
L 133.918257 269.992552 
L 133.918257 269.866676 
L 134.047992 269.866676 
L 134.047992 269.7408 
L 134.240933 269.7408 
L 134.304809 269.363172 
L 134.431915 269.363172 
L 134.431915 269.111421 
L 134.620977 269.111421 
L 134.620977 268.985545 
L 134.87014 268.985545 
L 134.87014 268.733793 
L 134.993495 268.733793 
L 135.054871 268.23029 
L 135.177024 268.23029 
L 135.177024 268.104414 
L 135.418977 268.104414 
L 135.418977 267.852662 
L 135.538796 267.852662 
L 135.538796 267.726786 
L 136.126705 267.726786 
L 136.126705 267.60091 
L 136.242113 267.60091 
L 136.242113 267.349159 
L 136.527575 267.349159 
L 136.527575 267.223283 
L 137.030737 267.223283 
L 137.140746 266.971531 
L 137.358854 266.971531 
L 137.358854 266.845655 
L 137.787626 266.845655 
L 137.787626 266.719779 
L 138.050729 266.719779 
L 138.154948 266.216276 
L 138.206842 266.216276 
L 138.310202 265.964524 
L 138.768422 265.964524 
L 138.768422 265.838648 
L 139.411192 265.838648 
L 139.411192 265.712772 
L 139.652679 265.712772 
L 139.652679 265.586897 
L 139.93843 265.586897 
L 139.93843 265.335145 
L 140.079694 265.335145 
L 140.079694 265.209269 
L 140.543056 265.209269 
L 140.58877 264.705766 
L 140.950542 264.705766 
L 140.950542 264.57989 
L 141.128852 264.57989 
L 141.128852 264.454014 
L 141.436884 264.454014 
L 141.436884 264.328138 
L 141.782854 264.328138 
L 141.782854 264.076386 
L 142.122575 264.076386 
L 142.206555 263.824634 
L 142.41488 263.824634 
L 142.45627 263.572883 
L 142.661862 263.572883 
L 142.661862 263.321131 
L 142.824734 263.321131 
L 142.824734 263.069379 
L 143.10641 263.069379 
L 143.10641 262.943503 
L 143.265494 262.943503 
L 143.265494 262.817628 
L 143.423243 262.817628 
L 143.423243 262.691752 
L 143.540694 262.691752 
L 143.579681 262.44 
L 143.734829 262.44 
L 143.734829 262.188248 
L 144.117191 262.188248 
L 144.117191 261.936497 
L 144.380294 261.936497 
L 144.454795 261.684745 
L 144.676545 261.684745 
L 144.676545 261.558869 
L 144.931992 261.558869 
L 144.931992 261.055366 
L 145.219746 261.055366 
L 145.291002 260.677738 
L 145.432709 260.677738 
L 145.432709 260.551862 
L 145.851536 260.551862 
L 145.851536 260.425986 
L 146.023332 260.425986 
L 146.023332 260.30011 
L 146.159649 260.30011 
L 146.227438 259.544855 
L 146.429353 259.544855 
L 146.496179 259.293103 
L 146.595975 259.293103 
L 146.695245 258.7896 
L 146.793994 258.7896 
L 146.892226 258.411972 
L 146.924857 258.411972 
L 146.924857 258.286097 
L 147.940229 258.286097 
L 148.001907 257.908469 
L 148.216198 257.908469 
L 148.216198 257.782593 
L 148.337564 257.782593 
L 148.337564 257.656717 
L 148.548087 257.656717 
L 148.57797 257.404966 
L 148.962194 257.404966 
L 148.962194 257.27909 
L 149.165879 257.27909 
L 149.165879 257.153214 
L 149.42456 257.153214 
L 149.42456 256.901462 
L 149.73597 256.901462 
L 149.820013 256.523834 
L 149.931489 256.523834 
L 149.931489 256.397959 
L 150.452162 256.397959 
L 150.506141 256.020331 
L 150.58682 256.020331 
L 150.58682 255.894455 
L 151.375128 255.894455 
L 151.400845 255.642703 
L 151.731998 255.642703 
L 151.731998 255.516828 
L 152.007722 255.516828 
L 152.007722 255.390952 
L 152.25492 255.390952 
L 152.279463 255.1392 
L 152.426047 255.1392 
L 152.426047 255.013324 
L 152.667844 255.013324 
L 152.667844 254.887448 
L 153.02481 254.887448 
L 153.048369 254.635697 
L 153.189104 254.635697 
L 153.259079 254.258069 
L 153.351976 254.258069 
L 153.444416 254.006317 
L 153.899924 254.006317 
L 153.899924 253.880441 
L 154.14583 253.880441 
L 154.14583 253.754566 
L 154.322673 253.754566 
L 154.322673 253.62869 
L 154.519655 253.62869 
L 154.628204 252.99931 
L 154.992656 252.99931 
L 155.077392 252.495807 
L 155.203786 252.495807 
L 155.30847 251.992303 
L 155.660098 251.992303 
L 155.660098 251.740552 
L 156.005274 251.740552 
L 156.105602 251.4888 
L 156.423104 251.4888 
L 156.423104 251.362924 
L 156.579868 251.362924 
L 156.579868 251.111172 
L 156.696589 251.111172 
L 156.696589 250.859421 
L 157.475372 250.859421 
L 157.53111 250.607669 
L 157.807349 250.607669 
L 157.807349 250.481793 
L 158.115593 250.481793 
L 158.187393 250.104166 
L 158.383441 250.104166 
L 158.489522 249.474786 
L 158.542339 249.474786 
L 158.577468 249.223034 
L 158.907961 249.223034 
L 158.976805 248.719531 
L 159.198823 248.719531 
L 159.266613 248.341903 
L 159.367841 248.341903 
L 159.367841 248.216028 
L 159.701388 248.216028 
L 159.701388 248.090152 
L 159.882349 248.090152 
L 159.882349 247.964276 
L 160.045361 247.964276 
L 160.045361 247.8384 
L 160.255188 247.8384 
L 160.255188 247.712524 
L 160.367209 247.712524 
L 160.383158 247.460772 
L 160.573496 247.460772 
L 160.573496 247.334897 
L 160.855439 247.334897 
L 160.917524 247.083145 
L 161.148532 247.083145 
L 161.209658 246.579641 
L 161.36161 246.579641 
L 161.36161 246.202014 
L 161.602209 246.202014 
L 161.602209 246.076138 
L 162.248415 246.076138 
L 162.248415 245.950262 
L 162.56338 245.950262 
L 162.56338 245.69851 
L 163.423645 245.69851 
L 163.423645 245.572634 
L 164.011136 245.572634 
L 164.050532 245.320883 
L 164.142137 245.320883 
L 164.142137 245.069131 
L 164.478528 245.069131 
L 164.478528 244.817379 
L 165.071763 244.817379 
L 165.158538 244.313876 
L 165.207944 244.313876 
L 165.207944 244.062124 
L 165.44087 244.062124 
L 165.44087 243.810372 
L 165.802874 243.810372 
L 165.838694 243.558621 
L 166.216591 243.558621 
L 166.286609 243.180993 
L 166.39115 243.180993 
L 166.448979 242.929241 
L 166.712723 242.929241 
L 166.712723 242.67749 
L 166.916583 242.67749 
L 166.916583 242.425738 
L 167.229371 242.425738 
L 167.229371 242.173986 
L 167.416772 242.173986 
L 167.416772 242.04811 
L 167.613182 242.04811 
L 167.613182 241.796359 
L 168.010586 241.796359 
L 168.063651 241.041103 
L 168.221954 241.041103 
L 168.221954 240.915228 
L 168.347644 240.915228 
L 168.389355 240.663476 
L 168.647973 240.663476 
L 168.699272 240.159972 
L 168.811641 240.159972 
L 168.811641 240.034097 
L 169.134768 240.034097 
L 169.134768 239.782345 
L 169.284344 239.782345 
L 169.284344 239.530593 
L 169.432739 239.530593 
L 169.432739 239.404717 
L 169.677494 239.404717 
L 169.784185 239.02709 
L 170.072123 239.02709 
L 170.100675 238.649462 
L 170.205 238.649462 
L 170.308749 238.145959 
L 170.327551 238.145959 
L 170.327551 238.020083 
L 170.727317 238.020083 
L 170.791599 237.768331 
L 171.955755 237.768331 
L 171.955755 237.642455 
L 172.732295 237.642455 
L 172.732295 237.516579 
L 173.366453 237.516579 
L 173.366453 237.390703 
L 173.596882 237.390703 
L 173.667825 237.013076 
L 173.785471 237.013076 
L 173.840121 236.635448 
L 173.925682 236.635448 
L 173.925682 236.509572 
L 174.064855 236.509572 
L 174.064855 236.257821 
L 174.317363 236.257821 
L 174.317363 236.131945 
L 174.678701 236.131945 
L 174.701055 235.628441 
L 175.309232 235.628441 
L 175.338051 235.250814 
L 175.495771 235.250814 
L 175.495771 234.999062 
L 175.659258 234.999062 
L 175.687546 234.621434 
L 175.968112 234.621434 
L 175.968112 234.495559 
L 176.230828 234.495559 
L 176.230828 234.243807 
L 176.645031 234.243807 
L 176.725451 233.866179 
L 176.765533 233.866179 
L 176.765533 233.740303 
L 177.135565 233.740303 
L 177.135565 233.488552 
L 177.252974 233.488552 
L 177.252974 233.362676 
L 177.427726 233.362676 
L 177.427726 233.2368 
L 177.848184 233.2368 
L 177.848184 232.985048 
L 178.017518 232.985048 
L 178.017518 232.733297 
L 178.498311 232.733297 
L 178.60754 232.229793 
L 178.661917 232.229793 
L 178.661917 232.103917 
L 178.78819 232.103917 
L 178.78819 231.978041 
L 179.162 231.978041 
L 179.162 231.72629 
L 179.325784 231.72629 
L 179.325784 231.474538 
L 179.470823 231.474538 
L 179.568815 231.09691 
L 179.825769 231.09691 
L 179.825769 230.845159 
L 180.174141 230.845159 
L 180.174141 230.719283 
L 180.423011 230.719283 
L 180.488824 230.215779 
L 180.841365 230.215779 
L 180.873576 229.838152 
L 181.313602 229.838152 
L 181.313602 229.712276 
L 181.464951 229.712276 
L 181.496113 229.334648 
L 182.511289 229.334648 
L 182.511289 229.082897 
L 182.760388 229.082897 
L 182.760388 228.831145 
L 182.910204 228.831145 
L 183.006231 228.201766 
L 183.244174 228.201766 
L 183.244174 228.07589 
L 183.437067 228.07589 
L 183.437067 227.950014 
L 183.665032 227.950014 
L 183.71583 227.44651 
L 183.835357 227.44651 
L 183.835357 227.194759 
L 184.054045 227.194759 
L 184.148928 226.817131 
L 184.426297 226.817131 
L 184.532577 226.313628 
L 184.730249 226.313628 
L 184.730249 226.187752 
L 185.187826 226.187752 
L 185.285659 225.684248 
L 185.378765 225.684248 
L 185.412508 225.306621 
L 185.521755 225.306621 
L 185.521755 225.180745 
L 185.734223 225.180745 
L 185.734223 224.928993 
L 185.895095 224.928993 
L 185.895095 224.677241 
L 186.127768 224.677241 
L 186.127768 224.42549 
L 186.572771 224.42549 
L 186.572771 224.299614 
L 186.898776 224.299614 
L 186.898776 224.173738 
L 187.092471 224.173738 
L 187.092471 223.921986 
L 187.322304 223.921986 
L 187.322304 223.670234 
L 360.8064 223.670234 
L 360.8064 223.670234 
" style="fill: none; stroke: #ff00ff; stroke-width: 1.5; stroke-linecap: square"/>
   </g>
   <g id="line2d_41">
    <defs>
     <path id="m67d7b578b9" d="M -0 8.485281 
L 5.091169 0 
L 0 -8.485281 
L -5.091169 -0 
z
" style="stroke: #ff00ff; stroke-width: 1.5; stroke-linejoin: miter"/>
    </defs>
    <g>
     <use xlink:href="#m67d7b578b9" x="110.221204" y="281.069628" style="fill-opacity: 0; stroke: #ff00ff; stroke-width: 1.5; stroke-linejoin: miter"/>
     <use xlink:href="#m67d7b578b9" x="160.045361" y="247.8384" style="fill-opacity: 0; stroke: #ff00ff; stroke-width: 1.5; stroke-linejoin: miter"/>
     <use xlink:href="#m67d7b578b9" x="187.322304" y="223.921986" style="fill-opacity: 0; stroke: #ff00ff; stroke-width: 1.5; stroke-linejoin: miter"/>
     <use xlink:href="#m67d7b578b9" x="187.322304" y="223.670234" style="fill-opacity: 0; stroke: #ff00ff; stroke-width: 1.5; stroke-linejoin: miter"/>
     <use xlink:href="#m67d7b578b9" x="187.322304" y="223.670234" style="fill-opacity: 0; stroke: #ff00ff; stroke-width: 1.5; stroke-linejoin: miter"/>
     <use xlink:href="#m67d7b578b9" x="360.8064" y="223.670234" style="fill-opacity: 0; stroke: #ff00ff; stroke-width: 1.5; stroke-linejoin: miter"/>
    </g>
   </g>
   <g id="line2d_42">
    <path style="fill: none; stroke: #ff00ff; stroke-width: 1.5; stroke-linecap: square"/>
    <g/>
   </g>
   <g id="line2d_43">
    <path d="M 187.560643 223.670234 
" clip-path="url(#p434135ad83)" style="fill: none; stroke: #ff00ff; stroke-width: 1.5; stroke-linecap: square"/>
    <defs>
     <path id="m75a7a233b4" d="M -12 12 
L 12 -12 
M -12 -12 
L 12 12 
" style="stroke: #ff00ff"/>
    </defs>
    <g clip-path="url(#p434135ad83)">
     <use xlink:href="#m75a7a233b4" x="187.560643" y="223.670234" style="fill: #ff00ff; stroke: #ff00ff"/>
    </g>
   </g>
   <g id="line2d_44">
    <defs>
     <path id="mc39ccc768a" d="M 0 1.5 
C 0.397805 1.5 0.77937 1.341951 1.06066 1.06066 
C 1.341951 0.77937 1.5 0.397805 1.5 0 
C 1.5 -0.397805 1.341951 -0.77937 1.06066 -1.06066 
C 0.77937 -1.341951 0.397805 -1.5 0 -1.5 
C -0.397805 -1.5 -0.77937 -1.341951 -1.06066 -1.06066 
C -1.341951 -0.77937 -1.5 -0.397805 -1.5 0 
C -1.5 0.397805 -1.341951 0.77937 -1.06066 1.06066 
C -0.77937 1.341951 -0.397805 1.5 0 1.5 
z
" style="stroke: #ff7500"/>
    </defs>
    <g>
     <use xlink:href="#mc39ccc768a" x="205.181508" y="211.837903" style="fill: #ff7500; stroke: #ff7500"/>
     <use xlink:href="#mc39ccc768a" x="205.181508" y="211.837903" style="fill: #ff7500; stroke: #ff7500"/>
    </g>
   </g>
   <g id="line2d_45">
    <path d="M 27.323974 298.944 
L 27.323974 291.265572 
L 40.363149 291.265572 
L 40.363149 289.755062 
L 47.990577 289.755062 
L 47.990577 289.629186 
L 53.402323 289.629186 
L 53.402323 289.50331 
L 57.6 289.50331 
L 57.6 288.370428 
L 61.029752 288.370428 
L 61.029752 287.9928 
L 63.929565 287.9928 
L 63.929565 287.615172 
L 66.441498 287.615172 
L 66.441498 286.734041 
L 68.65718 286.734041 
L 68.65718 286.356414 
L 72.432107 286.356414 
L 72.432107 285.978786 
L 75.574654 285.978786 
L 75.574654 285.601159 
L 76.96874 285.601159 
L 76.96874 285.475283 
L 79.480672 285.475283 
L 79.480672 285.223531 
L 83.678349 285.223531 
L 83.678349 284.468276 
L 84.596168 284.468276 
L 84.596168 284.216524 
L 85.471281 284.216524 
L 85.471281 284.090648 
L 86.307488 284.090648 
L 86.307488 283.838897 
L 87.1081 283.838897 
L 87.1081 283.713021 
L 88.613828 283.713021 
L 88.613828 283.587145 
L 90.668036 283.587145 
L 90.668036 283.083641 
L 91.305777 283.083641 
L 91.305777 282.83189 
L 91.922605 282.83189 
L 91.922605 282.706014 
L 92.519847 282.706014 
L 92.519847 282.580138 
L 94.205591 282.580138 
L 94.205591 282.454262 
L 95.752617 282.454262 
L 95.752617 281.573131 
L 96.241256 281.573131 
L 96.241256 281.447255 
L 99.751228 281.447255 
L 99.751228 281.195503 
L 101.287718 281.195503 
L 101.287718 281.069628 
L 103.047088 281.069628 
L 103.047088 280.566124 
L 104.028784 280.566124 
L 104.028784 280.314372 
L 105.559021 280.314372 
L 105.559021 280.188497 
L 106.137884 280.188497 
L 106.137884 280.062621 
L 106.974091 280.062621 
L 106.974091 279.936745 
L 108.29012 279.936745 
L 108.29012 279.810869 
L 109.756698 279.810869 
L 109.756698 279.559117 
L 109.990385 279.559117 
L 109.990385 279.433241 
L 110.221204 279.433241 
L 110.221204 279.307366 
L 110.449226 279.307366 
L 110.449226 279.055614 
L 111.54963 279.055614 
L 111.54963 278.929738 
L 113.381389 278.929738 
L 113.381389 278.803862 
L 114.141556 278.803862 
L 114.141556 278.677986 
L 115.050503 278.677986 
L 115.050503 278.300359 
L 115.227139 278.300359 
L 115.227139 278.174483 
L 115.402131 278.174483 
L 115.402131 278.048607 
L 115.747307 278.048607 
L 115.747307 277.293352 
L 115.917548 277.293352 
L 115.917548 277.0416 
L 117.067958 277.0416 
L 117.067958 276.789848 
L 117.226706 276.789848 
L 117.226706 276.538097 
L 117.384126 276.538097 
L 117.384126 276.412221 
L 118.598196 276.412221 
L 118.598196 276.034593 
L 119.177058 276.034593 
L 119.177058 275.908717 
L 119.319033 275.908717 
L 119.319033 275.782841 
L 119.459944 275.782841 
L 119.459944 275.405214 
L 119.876453 275.405214 
L 119.876453 274.90171 
L 120.41783 274.90171 
L 120.41783 274.649959 
L 121.329295 274.649959 
L 121.329295 274.524083 
L 121.830966 274.524083 
L 121.830966 274.398207 
L 122.19863 274.398207 
L 122.19863 274.146455 
L 123.145323 274.146455 
L 123.145323 274.020579 
L 123.260379 274.020579 
L 123.260379 273.642952 
L 123.374735 273.642952 
L 123.374735 273.3912 
L 124.481616 273.3912 
L 124.481616 273.265324 
L 125.219419 273.265324 
L 125.322496 273.013572 
L 125.628382 273.013572 
L 125.628382 272.887697 
L 126.127391 272.887697 
L 126.225624 272.635945 
L 126.517282 272.635945 
L 126.517282 272.384193 
L 126.804487 272.384193 
L 126.899255 272.006566 
L 126.993549 272.006566 
L 126.993549 271.754814 
L 127.18073 271.754814 
L 127.18073 271.628938 
L 127.366067 271.628938 
L 127.366067 271.503062 
L 127.821575 271.503062 
L 127.821575 271.25131 
L 128.178203 271.25131 
L 128.178203 271.125434 
L 128.786481 271.125434 
L 128.871795 270.873683 
L 129.209231 270.873683 
L 129.209231 270.621931 
L 129.458394 270.621931 
L 129.458394 270.496055 
L 130.579414 270.496055 
L 130.579414 270.370179 
L 130.811181 270.370179 
L 130.811181 269.866676 
L 131.41562 269.866676 
L 131.489828 269.363172 
L 131.929028 269.363172 
L 131.929028 269.237297 
L 132.144842 269.237297 
L 132.144842 269.111421 
L 132.287354 269.111421 
L 132.287354 268.859669 
L 132.777813 268.859669 
L 132.777813 268.607917 
L 133.323114 268.607917 
L 133.390178 268.356166 
L 133.656071 268.356166 
L 133.656071 268.23029 
L 133.983236 268.23029 
L 133.983236 267.978538 
L 134.495147 267.978538 
L 134.558167 267.726786 
L 134.87014 267.726786 
L 134.87014 267.475034 
L 134.993495 267.475034 
L 134.993495 267.349159 
L 135.116046 267.349159 
L 135.116046 266.971531 
L 135.835047 266.971531 
L 135.893741 266.593903 
L 136.184497 266.593903 
L 136.184497 266.342152 
L 136.696795 266.342152 
L 136.696795 266.216276 
L 136.808769 266.216276 
L 136.808769 266.0904 
L 136.92008 266.0904 
L 136.92008 265.964524 
L 137.140746 265.964524 
L 137.140746 265.712772 
L 138.616919 265.712772 
L 138.616919 265.586897 
L 138.868751 265.586897 
L 138.868751 265.335145 
L 139.067817 265.335145 
L 139.166565 265.083393 
L 139.748412 265.083393 
L 139.748412 264.831641 
L 139.985636 264.831641 
L 139.985636 264.705766 
L 140.359078 264.705766 
L 140.359078 264.454014 
L 140.543056 264.454014 
L 140.543056 264.328138 
L 141.173167 264.328138 
L 141.261484 263.572883 
L 141.56737 263.572883 
L 141.56737 263.447007 
L 141.696956 263.447007 
L 141.739954 263.195255 
L 141.995897 263.195255 
L 141.995897 263.069379 
L 142.538777 263.069379 
L 142.538777 262.943503 
L 142.702713 262.943503 
L 142.702713 262.817628 
L 142.986208 262.817628 
L 143.066428 262.314124 
L 143.423243 262.314124 
L 143.423243 262.188248 
L 143.811926 262.188248 
L 143.811926 262.062372 
L 144.192739 262.062372 
L 144.192739 261.936497 
L 144.342932 261.936497 
L 144.342932 261.684745 
L 144.454795 261.684745 
L 144.454795 261.558869 
L 144.602918 261.558869 
L 144.602918 261.432993 
L 145.148219 261.432993 
L 145.148219 261.181241 
L 145.538293 261.181241 
L 145.538293 261.055366 
L 145.7477 261.055366 
L 145.7477 260.677738 
L 145.886021 260.677738 
L 145.886021 260.551862 
L 146.057504 260.551862 
L 146.057504 260.30011 
L 146.662213 260.30011 
L 146.662213 260.048359 
L 146.924857 260.048359 
L 146.957431 259.670731 
L 147.816265 259.670731 
L 147.816265 259.544855 
L 148.397954 259.544855 
L 148.397954 259.418979 
L 148.518156 259.418979 
L 148.518156 259.293103 
L 148.874221 259.293103 
L 148.903591 258.915476 
L 149.165879 258.915476 
L 149.252502 258.663724 
L 149.281288 258.663724 
L 149.281288 258.537848 
L 149.42456 258.537848 
L 149.42456 258.160221 
L 149.73597 258.160221 
L 149.73597 258.034345 
L 150.425115 258.034345 
L 150.425115 257.782593 
L 151.452172 257.782593 
L 151.452172 257.656717 
L 151.832729 257.656717 
L 151.832729 257.404966 
L 152.057422 257.404966 
L 152.057422 257.27909 
L 152.377312 257.27909 
L 152.377312 257.153214 
L 152.498913 257.153214 
L 152.498913 257.027338 
L 152.715833 257.027338 
L 152.715833 256.901462 
L 153.351976 256.901462 
L 153.421349 256.64971 
L 153.696309 256.64971 
L 153.764426 256.397959 
L 154.497869 256.397959 
L 154.563149 255.642703 
L 154.757642 255.642703 
L 154.843441 255.390952 
L 155.329337 255.390952 
L 155.329337 255.1392 
L 155.598521 255.1392 
L 155.701037 254.509821 
L 156.245169 254.509821 
L 156.324459 254.132193 
L 156.774003 254.132193 
L 156.774003 254.006317 
L 157.363398 254.006317 
L 157.456756 253.376938 
L 157.623641 253.376938 
L 157.623641 253.251062 
L 158.115593 253.251062 
L 158.133569 252.873434 
L 158.401163 252.873434 
L 158.401163 252.747559 
L 158.907961 252.747559 
L 158.907961 252.495807 
L 159.045398 252.495807 
L 159.045398 252.369931 
L 159.198823 252.369931 
L 159.215793 252.118179 
L 159.451784 252.118179 
L 159.451784 251.992303 
L 159.568678 251.992303 
L 159.568678 251.866428 
L 159.882349 251.866428 
L 159.882349 251.614676 
L 160.271232 251.614676 
L 160.303279 251.362924 
L 160.446818 251.362924 
L 160.526092 250.859421 
L 160.667947 250.859421 
L 160.667947 250.733545 
L 160.994842 250.733545 
L 161.041081 250.104166 
L 161.194395 250.104166 
L 161.194395 249.852414 
L 161.527352 249.852414 
L 161.55733 249.474786 
L 161.646981 249.474786 
L 161.646981 249.34891 
L 162.015991 249.34891 
L 162.045202 248.971283 
L 162.17609 248.971283 
L 162.205054 247.964276 
L 162.775144 247.964276 
L 162.775144 247.8384 
L 162.984551 247.8384 
L 163.067666 247.586648 
L 164.116009 247.586648 
L 164.116009 247.460772 
L 164.388551 247.460772 
L 164.388551 247.334897 
L 164.593584 247.334897 
L 164.593584 247.209021 
L 165.096597 247.209021 
L 165.096597 247.083145 
L 165.477385 247.083145 
L 165.477385 246.831393 
L 165.814821 246.831393 
L 165.92201 246.579641 
L 165.993131 246.579641 
L 165.993131 246.32789 
L 166.134572 246.32789 
L 166.134572 246.076138 
L 166.437427 246.076138 
L 166.437427 245.950262 
L 166.724107 245.950262 
L 166.792265 245.572634 
L 167.084795 245.572634 
L 167.095955 245.195007 
L 167.48247 245.195007 
L 167.580589 244.691503 
L 167.850487 244.691503 
L 167.850487 244.565628 
L 168.709515 244.565628 
L 168.811641 244.188 
L 169.124754 244.188 
L 169.124754 244.062124 
L 169.353741 244.062124 
L 169.442591 243.558621 
L 169.491772 243.558621 
L 169.531024 243.180993 
L 169.65803 243.180993 
L 169.706651 242.425738 
L 169.8614 242.425738 
L 169.8614 242.299862 
L 170.024438 242.299862 
L 170.024438 242.173986 
L 170.533144 242.173986 
L 170.533144 242.04811 
L 170.736514 242.04811 
L 170.764077 241.544607 
L 170.9104 241.544607 
L 170.9104 241.292855 
L 171.100737 241.292855 
L 171.100737 241.166979 
L 171.449192 241.166979 
L 171.449192 241.041103 
L 171.834724 241.041103 
L 171.895337 240.663476 
L 172.076012 240.663476 
L 172.076012 240.5376 
L 172.204011 240.5376 
L 172.314244 240.285848 
L 172.390182 240.285848 
L 172.449034 240.034097 
L 172.616174 240.034097 
L 172.690906 239.656469 
L 173.262233 239.656469 
L 173.262233 239.404717 
L 173.382435 239.404717 
L 173.382435 239.152966 
L 173.667825 239.152966 
L 173.75417 238.901214 
L 173.879061 238.901214 
L 173.879061 238.649462 
L 174.164733 238.649462 
L 174.164733 238.523586 
L 174.332558 238.523586 
L 174.385645 238.271834 
L 174.453679 238.271834 
L 174.453679 238.145959 
L 174.738254 238.145959 
L 174.738254 238.020083 
L 174.98194 238.020083 
L 175.069777 237.390703 
L 175.22251 237.390703 
L 175.22251 237.264828 
L 175.495771 237.264828 
L 175.552798 236.761324 
L 176.217092 236.761324 
L 176.217092 236.635448 
L 176.381266 236.635448 
L 176.381266 236.509572 
L 176.852084 236.509572 
L 176.958065 236.257821 
L 177.246471 236.257821 
L 177.246471 236.006069 
L 177.427726 236.006069 
L 177.427726 235.880193 
L 177.543331 235.880193 
L 177.543331 235.754317 
L 177.702725 235.754317 
L 177.702725 235.502566 
L 178.03 235.502566 
L 178.03 235.250814 
L 178.17296 235.250814 
L 178.247119 234.873186 
L 178.919572 234.873186 
L 178.967121 234.495559 
L 179.325784 234.495559 
L 179.343247 234.117931 
L 179.888049 234.117931 
L 179.893701 233.866179 
L 180.011995 233.866179 
L 180.011995 233.740303 
L 180.312808 233.740303 
L 180.312808 233.614428 
L 180.548951 233.614428 
L 180.559863 233.362676 
L 180.996545 233.362676 
L 180.996545 233.110924 
L 181.139882 233.110924 
L 181.18742 232.607421 
L 181.459752 232.607421 
L 181.459752 232.355669 
L 181.589291 232.355669 
L 181.589291 232.229793 
L 181.707684 232.229793 
L 181.707684 231.978041 
L 181.850816 231.978041 
L 181.850816 231.852166 
L 181.992867 231.852166 
L 181.992867 231.600414 
L 182.427518 231.600414 
L 182.427518 231.348662 
L 182.560393 231.348662 
L 182.560393 231.09691 
L 182.687465 231.09691 
L 182.745826 230.719283 
L 182.953477 230.719283 
L 182.953477 230.593407 
L 183.25363 230.593407 
L 183.258356 230.089903 
L 183.42302 230.089903 
L 183.469803 229.5864 
L 183.641896 229.5864 
L 183.697374 229.208772 
L 183.963234 229.208772 
L 184.044984 228.957021 
L 184.12638 228.957021 
L 184.12638 228.705269 
L 184.247818 228.705269 
L 184.247818 228.453517 
L 184.430737 228.453517 
L 184.452923 228.07589 
L 184.633869 228.07589 
L 184.664589 227.698262 
L 185.226169 227.698262 
L 185.238933 227.44651 
L 185.344961 227.44651 
L 185.344961 227.194759 
L 185.833384 227.194759 
L 185.833384 226.943007 
L 186.576733 226.943007 
L 186.576733 226.817131 
L 186.88709 226.817131 
L 186.984247 226.061876 
L 187.088617 226.061876 
L 187.088617 225.810124 
L 187.367935 225.810124 
L 187.367935 225.558372 
L 187.507939 225.558372 
L 187.605701 224.677241 
L 187.669348 224.677241 
L 187.669348 224.551366 
L 187.936552 224.551366 
L 188.002764 224.047862 
L 188.054101 224.047862 
L 188.072402 223.544359 
L 188.200013 223.544359 
L 188.265306 223.166731 
L 188.366424 223.166731 
L 188.366424 222.914979 
L 188.634629 222.914979 
L 188.684273 222.411476 
L 189.239082 222.411476 
L 189.314575 221.907972 
L 189.359043 221.907972 
L 189.359043 221.782097 
L 189.771312 221.782097 
L 189.804707 221.404469 
L 190.240057 221.404469 
L 190.240057 221.278593 
L 190.40883 221.278593 
L 190.482999 220.900966 
L 190.706949 220.900966 
L 190.706949 220.77509 
L 190.821093 220.77509 
L 190.833733 220.523338 
L 191.041077 220.523338 
L 191.075413 220.019834 
L 191.776356 220.019834 
L 191.782364 219.516331 
L 192.035953 219.516331 
L 192.035953 219.264579 
L 192.344563 219.264579 
L 192.344563 219.012828 
L 192.564821 219.012828 
L 192.610864 218.6352 
L 192.90743 218.6352 
L 192.90743 218.383448 
L 193.02026 218.383448 
L 193.076422 217.754069 
L 193.702383 217.754069 
L 193.702383 217.628193 
L 194.102215 217.628193 
L 194.102215 217.376441 
L 194.339671 217.376441 
L 194.339671 217.250566 
L 194.746858 217.250566 
L 194.746858 216.998814 
L 195.493836 216.998814 
L 195.594663 216.747062 
L 195.748546 216.747062 
L 195.748546 216.49531 
L 195.999854 216.49531 
L 195.999854 216.243559 
L 196.136179 216.243559 
L 196.228888 215.740055 
L 196.706518 215.740055 
L 196.706518 215.488303 
L 196.936295 215.488303 
L 196.936295 215.236552 
L 197.394283 215.236552 
L 197.405424 214.858924 
L 197.642273 214.858924 
L 197.749749 214.481297 
L 197.817428 214.481297 
L 197.817428 214.355421 
L 198.462214 214.355421 
L 198.462214 214.103669 
L 198.598599 214.103669 
L 198.598599 213.977793 
L 198.950691 213.977793 
L 198.950691 213.851917 
L 199.434805 213.851917 
L 199.434805 213.600166 
L 199.834477 213.600166 
L 199.861865 212.970786 
L 200.643 212.970786 
L 200.730935 212.719034 
L 200.916675 212.719034 
L 200.916675 212.593159 
L 201.718134 212.593159 
L 201.820583 212.215531 
L 201.941738 212.215531 
L 201.941738 211.963779 
L 205.181508 211.963779 
L 205.181508 211.837903 
L 360.8064 211.837903 
L 360.8064 211.837903 
" style="fill: none; stroke: #ff7500; stroke-width: 1.5; stroke-linecap: square"/>
   </g>
   <g id="line2d_46">
    <defs>
     <path id="m529ee5ede1" d="M 0 -6 
L -1.347084 -1.854102 
L -5.706339 -1.854102 
L -2.179628 0.708204 
L -3.526712 4.854102 
L -0 2.291796 
L 3.526712 4.854102 
L 2.179628 0.708204 
L 5.706339 -1.854102 
L 1.347084 -1.854102 
z
" style="stroke: #ff7500; stroke-width: 1.5; stroke-linejoin: bevel"/>
    </defs>
    <g>
     <use xlink:href="#m529ee5ede1" x="149.42456" y="258.537848" style="fill-opacity: 0; stroke: #ff7500; stroke-width: 1.5; stroke-linejoin: bevel"/>
     <use xlink:href="#m529ee5ede1" x="201.941738" y="211.963779" style="fill-opacity: 0; stroke: #ff7500; stroke-width: 1.5; stroke-linejoin: bevel"/>
     <use xlink:href="#m529ee5ede1" x="205.181508" y="211.963779" style="fill-opacity: 0; stroke: #ff7500; stroke-width: 1.5; stroke-linejoin: bevel"/>
     <use xlink:href="#m529ee5ede1" x="205.181508" y="211.837903" style="fill-opacity: 0; stroke: #ff7500; stroke-width: 1.5; stroke-linejoin: bevel"/>
     <use xlink:href="#m529ee5ede1" x="205.181508" y="211.837903" style="fill-opacity: 0; stroke: #ff7500; stroke-width: 1.5; stroke-linejoin: bevel"/>
     <use xlink:href="#m529ee5ede1" x="360.8064" y="211.837903" style="fill-opacity: 0; stroke: #ff7500; stroke-width: 1.5; stroke-linejoin: bevel"/>
    </g>
   </g>
   <g id="line2d_47">
    <path style="fill: none; stroke: #ff7500; stroke-width: 1.5; stroke-linecap: square"/>
    <g/>
   </g>
   <g id="line2d_48">
    <path d="M 274.176188 211.837903 
" clip-path="url(#p434135ad83)" style="fill: none; stroke: #ff7500; stroke-width: 1.5; stroke-linecap: square"/>
    <defs>
     <path id="m89db73f589" d="M -12 12 
L 12 -12 
M -12 -12 
L 12 12 
" style="stroke: #ff7500"/>
    </defs>
    <g clip-path="url(#p434135ad83)">
     <use xlink:href="#m89db73f589" x="274.176188" y="211.837903" style="fill: #ff7500; stroke: #ff7500"/>
    </g>
   </g>
   <g id="line2d_49">
    <path d="M 360.8064 223.921986 
L 380.514816 293.10336 
" style="fill: none; stroke: #000080; stroke-width: 1.5; stroke-linecap: square"/>
    <g>
     <use xlink:href="#m7322023eb9" x="360.8064" y="223.921986" style="fill-opacity: 0; stroke: #000080; stroke-width: 1.5"/>
     <use xlink:href="#m7322023eb9" x="380.514816" y="293.10336" style="fill-opacity: 0; stroke: #000080; stroke-width: 1.5"/>
    </g>
   </g>
   <g id="line2d_50">
    <path d="M 360.8064 223.670234 
L 380.514816 199.65312 
" style="fill: none; stroke: #ff00ff; stroke-width: 1.5; stroke-linecap: square"/>
    <g>
     <use xlink:href="#m67d7b578b9" x="360.8064" y="223.670234" style="fill-opacity: 0; stroke: #ff00ff; stroke-width: 1.5; stroke-linejoin: miter"/>
     <use xlink:href="#m67d7b578b9" x="380.514816" y="199.65312" style="fill-opacity: 0; stroke: #ff00ff; stroke-width: 1.5; stroke-linejoin: miter"/>
    </g>
   </g>
   <g id="line2d_51">
    <path d="M 360.8064 211.837903 
L 380.514816 106.20288 
" style="fill: none; stroke: #ff7500; stroke-width: 1.5; stroke-linecap: square"/>
    <g>
     <use xlink:href="#m529ee5ede1" x="360.8064" y="211.837903" style="fill-opacity: 0; stroke: #ff7500; stroke-width: 1.5; stroke-linejoin: bevel"/>
     <use xlink:href="#m529ee5ede1" x="380.514816" y="106.20288" style="fill-opacity: 0; stroke: #ff7500; stroke-width: 1.5; stroke-linejoin: bevel"/>
    </g>
   </g>
   <g id="line2d_52">
    <path d="M 360.8064 298.944 
L 360.8064 6.912 
" style="fill: none; stroke: #000000; stroke-width: 1.5; stroke-linecap: square"/>
   </g>
   <g id="patch_3">
    <path d="M 57.6 298.944 
L 360.8064 298.944 
" style="fill: none; stroke: #000000; stroke-width: 0.8; stroke-linejoin: miter; stroke-linecap: square"/>
   </g>
   <g id="patch_4">
    <path d="M 57.6 6.912 
L 360.8064 6.912 
" style="fill: none; stroke: #000000; stroke-width: 0.8; stroke-linejoin: miter; stroke-linecap: square"/>
   </g>
   <g id="text_13">
    <!-- AllComo -->
    <g transform="translate(386.578944 296.966485) scale(0.14 -0.14)">
     <defs>
      <path id="DejaVuSans-41" d="M 2188 4044 
L 1331 1722 
L 3047 1722 
L 2188 4044 
z
M 1831 4666 
L 2547 4666 
L 4325 0 
L 3669 0 
L 3244 1197 
L 1141 1197 
L 716 0 
L 50 0 
L 1831 4666 
z
" transform="scale(0.015625)"/>
      <path id="DejaVuSans-43" d="M 4122 4306 
L 4122 3641 
Q 3803 3938 3442 4084 
Q 3081 4231 2675 4231 
Q 1875 4231 1450 3742 
Q 1025 3253 1025 2328 
Q 1025 1406 1450 917 
Q 1875 428 2675 428 
Q 3081 428 3442 575 
Q 3803 722 4122 1019 
L 4122 359 
Q 3791 134 3420 21 
Q 3050 -91 2638 -91 
Q 1578 -91 968 557 
Q 359 1206 359 2328 
Q 359 3453 968 4101 
Q 1578 4750 2638 4750 
Q 3056 4750 3426 4639 
Q 3797 4528 4122 4306 
z
" transform="scale(0.015625)"/>
     </defs>
     <use xlink:href="#DejaVuSans-41"/>
     <use xlink:href="#DejaVuSans-6c" x="68.408203"/>
     <use xlink:href="#DejaVuSans-6c" x="96.191406"/>
     <use xlink:href="#DejaVuSans-43" x="123.974609"/>
     <use xlink:href="#DejaVuSans-6f" x="193.798828"/>
     <use xlink:href="#DejaVuSans-6d" x="254.980469"/>
     <use xlink:href="#DejaVuSans-6f" x="352.392578"/>
    </g>
   </g>
   <g id="text_14">
    <!-- AllLQ -->
    <g transform="translate(386.578944 203.516245) scale(0.14 -0.14)">
     <defs>
      <path id="DejaVuSans-4c" d="M 628 4666 
L 1259 4666 
L 1259 531 
L 3531 531 
L 3531 0 
L 628 0 
L 628 4666 
z
" transform="scale(0.015625)"/>
      <path id="DejaVuSans-51" d="M 2522 4238 
Q 1834 4238 1429 3725 
Q 1025 3213 1025 2328 
Q 1025 1447 1429 934 
Q 1834 422 2522 422 
Q 3209 422 3611 934 
Q 4013 1447 4013 2328 
Q 4013 3213 3611 3725 
Q 3209 4238 2522 4238 
z
M 3406 84 
L 4238 -825 
L 3475 -825 
L 2784 -78 
Q 2681 -84 2626 -87 
Q 2572 -91 2522 -91 
Q 1538 -91 948 567 
Q 359 1225 359 2328 
Q 359 3434 948 4092 
Q 1538 4750 2522 4750 
Q 3503 4750 4090 4092 
Q 4678 3434 4678 2328 
Q 4678 1516 4351 937 
Q 4025 359 3406 84 
z
" transform="scale(0.015625)"/>
     </defs>
     <use xlink:href="#DejaVuSans-41"/>
     <use xlink:href="#DejaVuSans-6c" x="68.408203"/>
     <use xlink:href="#DejaVuSans-6c" x="96.191406"/>
     <use xlink:href="#DejaVuSans-4c" x="123.974609"/>
     <use xlink:href="#DejaVuSans-51" x="179.6875"/>
    </g>
   </g>
   <g id="text_15">
    <!-- COMO-10 d -->
    <g transform="translate(386.578944 110.066005) scale(0.14 -0.14)">
     <defs>
      <path id="DejaVuSans-4f" d="M 2522 4238 
Q 1834 4238 1429 3725 
Q 1025 3213 1025 2328 
Q 1025 1447 1429 934 
Q 1834 422 2522 422 
Q 3209 422 3611 934 
Q 4013 1447 4013 2328 
Q 4013 3213 3611 3725 
Q 3209 4238 2522 4238 
z
M 2522 4750 
Q 3503 4750 4090 4092 
Q 4678 3434 4678 2328 
Q 4678 1225 4090 567 
Q 3503 -91 2522 -91 
Q 1538 -91 948 565 
Q 359 1222 359 2328 
Q 359 3434 948 4092 
Q 1538 4750 2522 4750 
z
" transform="scale(0.015625)"/>
      <path id="DejaVuSans-4d" d="M 628 4666 
L 1569 4666 
L 2759 1491 
L 3956 4666 
L 4897 4666 
L 4897 0 
L 4281 0 
L 4281 4097 
L 3078 897 
L 2444 897 
L 1241 4097 
L 1241 0 
L 628 0 
L 628 4666 
z
" transform="scale(0.015625)"/>
     </defs>
     <use xlink:href="#DejaVuSans-43"/>
     <use xlink:href="#DejaVuSans-4f" x="69.824219"/>
     <use xlink:href="#DejaVuSans-4d" x="148.535156"/>
     <use xlink:href="#DejaVuSans-4f" x="234.814453"/>
     <use xlink:href="#DejaVuSans-2d" x="316.275391"/>
     <use xlink:href="#DejaVuSans-31" x="352.359375"/>
     <use xlink:href="#DejaVuSans-30" x="415.982422"/>
     <use xlink:href="#DejaVuSans-20" x="479.605469"/>
     <use xlink:href="#DejaVuSans-64" x="511.392578"/>
    </g>
   </g>
   <g id="text_16">
    <!-- best 2016 -->
    <g transform="translate(386.578944 16.615765) scale(0.14 -0.14)">
     <defs>
      <path id="DejaVuSans-62" d="M 3116 1747 
Q 3116 2381 2855 2742 
Q 2594 3103 2138 3103 
Q 1681 3103 1420 2742 
Q 1159 2381 1159 1747 
Q 1159 1113 1420 752 
Q 1681 391 2138 391 
Q 2594 391 2855 752 
Q 3116 1113 3116 1747 
z
M 1159 2969 
Q 1341 3281 1617 3432 
Q 1894 3584 2278 3584 
Q 2916 3584 3314 3078 
Q 3713 2572 3713 1747 
Q 3713 922 3314 415 
Q 2916 -91 2278 -91 
Q 1894 -91 1617 61 
Q 1341 213 1159 525 
L 1159 0 
L 581 0 
L 581 4863 
L 1159 4863 
L 1159 2969 
z
" transform="scale(0.015625)"/>
     </defs>
     <use xlink:href="#DejaVuSans-62"/>
     <use xlink:href="#DejaVuSans-65" x="63.476562"/>
     <use xlink:href="#DejaVuSans-73" x="125"/>
     <use xlink:href="#DejaVuSans-74" x="177.099609"/>
     <use xlink:href="#DejaVuSans-20" x="216.308594"/>
     <use xlink:href="#DejaVuSans-32" x="248.095703"/>
     <use xlink:href="#DejaVuSans-30" x="311.71875"/>
     <use xlink:href="#DejaVuSans-31" x="375.341797"/>
     <use xlink:href="#DejaVuSans-36" x="438.964844"/>
    </g>
   </g>
   <g id="text_17">
    <!-- bbob-biobj f7, f8, f16, f17, 5-D -->
    <g transform="translate(60.632064 17.582726) scale(0.102 -0.102)">
     <defs>
      <path id="DejaVuSans-6a" d="M 603 3500 
L 1178 3500 
L 1178 -63 
Q 1178 -731 923 -1031 
Q 669 -1331 103 -1331 
L -116 -1331 
L -116 -844 
L 38 -844 
Q 366 -844 484 -692 
Q 603 -541 603 -63 
L 603 3500 
z
M 603 4863 
L 1178 4863 
L 1178 4134 
L 603 4134 
L 603 4863 
z
" transform="scale(0.015625)"/>
      <path id="DejaVuSans-37" d="M 525 4666 
L 3525 4666 
L 3525 4397 
L 1831 0 
L 1172 0 
L 2766 4134 
L 525 4134 
L 525 4666 
z
" transform="scale(0.015625)"/>
      <path id="DejaVuSans-35" d="M 691 4666 
L 3169 4666 
L 3169 4134 
L 1269 4134 
L 1269 2991 
Q 1406 3038 1543 3061 
Q 1681 3084 1819 3084 
Q 2600 3084 3056 2656 
Q 3513 2228 3513 1497 
Q 3513 744 3044 326 
Q 2575 -91 1722 -91 
Q 1428 -91 1123 -41 
Q 819 9 494 109 
L 494 744 
Q 775 591 1075 516 
Q 1375 441 1709 441 
Q 2250 441 2565 725 
Q 2881 1009 2881 1497 
Q 2881 1984 2565 2268 
Q 2250 2553 1709 2553 
Q 1456 2553 1204 2497 
Q 953 2441 691 2322 
L 691 4666 
z
" transform="scale(0.015625)"/>
      <path id="DejaVuSans-44" d="M 1259 4147 
L 1259 519 
L 2022 519 
Q 2988 519 3436 956 
Q 3884 1394 3884 2338 
Q 3884 3275 3436 3711 
Q 2988 4147 2022 4147 
L 1259 4147 
z
M 628 4666 
L 1925 4666 
Q 3281 4666 3915 4102 
Q 4550 3538 4550 2338 
Q 4550 1131 3912 565 
Q 3275 0 1925 0 
L 628 0 
L 628 4666 
z
" transform="scale(0.015625)"/>
     </defs>
     <use xlink:href="#DejaVuSans-62"/>
     <use xlink:href="#DejaVuSans-62" x="63.476562"/>
     <use xlink:href="#DejaVuSans-6f" x="126.953125"/>
     <use xlink:href="#DejaVuSans-62" x="188.134766"/>
     <use xlink:href="#DejaVuSans-2d" x="251.611328"/>
     <use xlink:href="#DejaVuSans-62" x="287.695312"/>
     <use xlink:href="#DejaVuSans-69" x="351.171875"/>
     <use xlink:href="#DejaVuSans-6f" x="378.955078"/>
     <use xlink:href="#DejaVuSans-62" x="440.136719"/>
     <use xlink:href="#DejaVuSans-6a" x="503.613281"/>
     <use xlink:href="#DejaVuSans-20" x="531.396484"/>
     <use xlink:href="#DejaVuSans-66" x="563.183594"/>
     <use xlink:href="#DejaVuSans-37" x="598.388672"/>
     <use xlink:href="#DejaVuSans-2c" x="662.011719"/>
     <use xlink:href="#DejaVuSans-20" x="693.798828"/>
     <use xlink:href="#DejaVuSans-66" x="725.585938"/>
     <use xlink:href="#DejaVuSans-38" x="760.791016"/>
     <use xlink:href="#DejaVuSans-2c" x="824.414062"/>
     <use xlink:href="#DejaVuSans-20" x="856.201172"/>
     <use xlink:href="#DejaVuSans-66" x="887.988281"/>
     <use xlink:href="#DejaVuSans-31" x="923.193359"/>
     <use xlink:href="#DejaVuSans-36" x="986.816406"/>
     <use xlink:href="#DejaVuSans-2c" x="1050.439453"/>
     <use xlink:href="#DejaVuSans-20" x="1082.226562"/>
     <use xlink:href="#DejaVuSans-66" x="1114.013672"/>
     <use xlink:href="#DejaVuSans-31" x="1149.21875"/>
     <use xlink:href="#DejaVuSans-37" x="1212.841797"/>
     <use xlink:href="#DejaVuSans-2c" x="1276.464844"/>
     <use xlink:href="#DejaVuSans-20" x="1308.251953"/>
     <use xlink:href="#DejaVuSans-35" x="1340.039062"/>
     <use xlink:href="#DejaVuSans-2d" x="1403.662109"/>
     <use xlink:href="#DejaVuSans-44" x="1439.746094"/>
    </g>
    <!-- 58 targets: 1..-1.0e-4 -->
    <g transform="translate(60.632064 29.004495) scale(0.102 -0.102)">
     <defs>
      <path id="DejaVuSans-3a" d="M 750 794 
L 1409 794 
L 1409 0 
L 750 0 
L 750 794 
z
M 750 3309 
L 1409 3309 
L 1409 2516 
L 750 2516 
L 750 3309 
z
" transform="scale(0.015625)"/>
     </defs>
     <use xlink:href="#DejaVuSans-35"/>
     <use xlink:href="#DejaVuSans-38" x="63.623047"/>
     <use xlink:href="#DejaVuSans-20" x="127.246094"/>
     <use xlink:href="#DejaVuSans-74" x="159.033203"/>
     <use xlink:href="#DejaVuSans-61" x="198.242188"/>
     <use xlink:href="#DejaVuSans-72" x="259.521484"/>
     <use xlink:href="#DejaVuSans-67" x="298.884766"/>
     <use xlink:href="#DejaVuSans-65" x="362.361328"/>
     <use xlink:href="#DejaVuSans-74" x="423.884766"/>
     <use xlink:href="#DejaVuSans-73" x="463.09375"/>
     <use xlink:href="#DejaVuSans-3a" x="515.193359"/>
     <use xlink:href="#DejaVuSans-20" x="548.884766"/>
     <use xlink:href="#DejaVuSans-31" x="580.671875"/>
     <use xlink:href="#DejaVuSans-2e" x="644.294922"/>
     <use xlink:href="#DejaVuSans-2e" x="676.082031"/>
     <use xlink:href="#DejaVuSans-2d" x="707.869141"/>
     <use xlink:href="#DejaVuSans-31" x="743.953125"/>
     <use xlink:href="#DejaVuSans-2e" x="807.576172"/>
     <use xlink:href="#DejaVuSans-30" x="839.363281"/>
     <use xlink:href="#DejaVuSans-65" x="902.986328"/>
     <use xlink:href="#DejaVuSans-2d" x="964.509766"/>
     <use xlink:href="#DejaVuSans-34" x="1000.59375"/>
    </g>
    <!-- 10 instances -->
    <g transform="translate(60.632064 40.426264) scale(0.102 -0.102)">
     <use xlink:href="#DejaVuSans-31"/>
     <use xlink:href="#DejaVuSans-30" x="63.623047"/>
     <use xlink:href="#DejaVuSans-20" x="127.246094"/>
     <use xlink:href="#DejaVuSans-69" x="159.033203"/>
     <use xlink:href="#DejaVuSans-6e" x="186.816406"/>
     <use xlink:href="#DejaVuSans-73" x="250.195312"/>
     <use xlink:href="#DejaVuSans-74" x="302.294922"/>
     <use xlink:href="#DejaVuSans-61" x="341.503906"/>
     <use xlink:href="#DejaVuSans-6e" x="402.783203"/>
     <use xlink:href="#DejaVuSans-63" x="466.162109"/>
     <use xlink:href="#DejaVuSans-65" x="521.142578"/>
     <use xlink:href="#DejaVuSans-73" x="582.666016"/>
    </g>
   </g>
   <g id="text_18">
    <!-- v2.6, hv-hash=ff0e71e8cd978373 -->
    <g style="fill: #808080" transform="translate(123.707887 293.943992) scale(0.1 -0.1)">
     <defs>
      <path id="DejaVuSans-68" d="M 3513 2113 
L 3513 0 
L 2938 0 
L 2938 2094 
Q 2938 2591 2744 2837 
Q 2550 3084 2163 3084 
Q 1697 3084 1428 2787 
Q 1159 2491 1159 1978 
L 1159 0 
L 581 0 
L 581 4863 
L 1159 4863 
L 1159 2956 
Q 1366 3272 1645 3428 
Q 1925 3584 2291 3584 
Q 2894 3584 3203 3211 
Q 3513 2838 3513 2113 
z
" transform="scale(0.015625)"/>
      <path id="DejaVuSans-3d" d="M 678 2906 
L 4684 2906 
L 4684 2381 
L 678 2381 
L 678 2906 
z
M 678 1631 
L 4684 1631 
L 4684 1100 
L 678 1100 
L 678 1631 
z
" transform="scale(0.015625)"/>
      <path id="DejaVuSans-39" d="M 703 97 
L 703 672 
Q 941 559 1184 500 
Q 1428 441 1663 441 
Q 2288 441 2617 861 
Q 2947 1281 2994 2138 
Q 2813 1869 2534 1725 
Q 2256 1581 1919 1581 
Q 1219 1581 811 2004 
Q 403 2428 403 3163 
Q 403 3881 828 4315 
Q 1253 4750 1959 4750 
Q 2769 4750 3195 4129 
Q 3622 3509 3622 2328 
Q 3622 1225 3098 567 
Q 2575 -91 1691 -91 
Q 1453 -91 1209 -44 
Q 966 3 703 97 
z
M 1959 2075 
Q 2384 2075 2632 2365 
Q 2881 2656 2881 3163 
Q 2881 3666 2632 3958 
Q 2384 4250 1959 4250 
Q 1534 4250 1286 3958 
Q 1038 3666 1038 3163 
Q 1038 2656 1286 2365 
Q 1534 2075 1959 2075 
z
" transform="scale(0.015625)"/>
      <path id="DejaVuSans-33" d="M 2597 2516 
Q 3050 2419 3304 2112 
Q 3559 1806 3559 1356 
Q 3559 666 3084 287 
Q 2609 -91 1734 -91 
Q 1441 -91 1130 -33 
Q 819 25 488 141 
L 488 750 
Q 750 597 1062 519 
Q 1375 441 1716 441 
Q 2309 441 2620 675 
Q 2931 909 2931 1356 
Q 2931 1769 2642 2001 
Q 2353 2234 1838 2234 
L 1294 2234 
L 1294 2753 
L 1863 2753 
Q 2328 2753 2575 2939 
Q 2822 3125 2822 3475 
Q 2822 3834 2567 4026 
Q 2313 4219 1838 4219 
Q 1578 4219 1281 4162 
Q 984 4106 628 3988 
L 628 4550 
Q 988 4650 1302 4700 
Q 1616 4750 1894 4750 
Q 2613 4750 3031 4423 
Q 3450 4097 3450 3541 
Q 3450 3153 3228 2886 
Q 3006 2619 2597 2516 
z
" transform="scale(0.015625)"/>
     </defs>
     <use xlink:href="#DejaVuSans-76"/>
     <use xlink:href="#DejaVuSans-32" x="59.179688"/>
     <use xlink:href="#DejaVuSans-2e" x="122.802734"/>
     <use xlink:href="#DejaVuSans-36" x="154.589844"/>
     <use xlink:href="#DejaVuSans-2c" x="218.212891"/>
     <use xlink:href="#DejaVuSans-20" x="250"/>
     <use xlink:href="#DejaVuSans-68" x="281.787109"/>
     <use xlink:href="#DejaVuSans-76" x="345.166016"/>
     <use xlink:href="#DejaVuSans-2d" x="401.720703"/>
     <use xlink:href="#DejaVuSans-68" x="437.804688"/>
     <use xlink:href="#DejaVuSans-61" x="501.183594"/>
     <use xlink:href="#DejaVuSans-73" x="562.462891"/>
     <use xlink:href="#DejaVuSans-68" x="614.5625"/>
     <use xlink:href="#DejaVuSans-3d" x="677.941406"/>
     <use xlink:href="#DejaVuSans-66" x="761.730469"/>
     <use xlink:href="#DejaVuSans-66" x="796.935547"/>
     <use xlink:href="#DejaVuSans-30" x="832.140625"/>
     <use xlink:href="#DejaVuSans-65" x="895.763672"/>
     <use xlink:href="#DejaVuSans-37" x="957.287109"/>
     <use xlink:href="#DejaVuSans-31" x="1020.910156"/>
     <use xlink:href="#DejaVuSans-65" x="1084.533203"/>
     <use xlink:href="#DejaVuSans-38" x="1146.056641"/>
     <use xlink:href="#DejaVuSans-63" x="1209.679688"/>
     <use xlink:href="#DejaVuSans-64" x="1264.660156"/>
     <use xlink:href="#DejaVuSans-39" x="1328.136719"/>
     <use xlink:href="#DejaVuSans-37" x="1391.759766"/>
     <use xlink:href="#DejaVuSans-38" x="1455.382812"/>
     <use xlink:href="#DejaVuSans-33" x="1519.005859"/>
     <use xlink:href="#DejaVuSans-37" x="1582.628906"/>
     <use xlink:href="#DejaVuSans-33" x="1646.251953"/>
    </g>
   </g>
  </g>
 </g>
 <defs>
  <clipPath id="p434135ad83">
   <rect x="57.6" y="6.912" width="303.2064" height="292.032"/>
  </clipPath>
 </defs>
</svg>
