<?xml version="1.0" encoding="utf-8" standalone="no"?>
<!DOCTYPE svg PUBLIC "-//W3C//DTD SVG 1.1//EN"
  "http://www.w3.org/Graphics/SVG/1.1/DTD/svg11.dtd">
<svg xmlns:xlink="http://www.w3.org/1999/xlink" width="460.8pt" height="345.6pt" viewBox="0 0 460.8 345.6" xmlns="http://www.w3.org/2000/svg" version="1.1">
 <metadata>
  <rdf:RDF xmlns:dc="http://purl.org/dc/elements/1.1/" xmlns:cc="http://creativecommons.org/ns#" xmlns:rdf="http://www.w3.org/1999/02/22-rdf-syntax-ns#">
   <cc:Work>
    <dc:type rdf:resource="http://purl.org/dc/dcmitype/StillImage"/>
    <dc:date>2023-03-13T19:42:06.818897</dc:date>
    <dc:format>image/svg+xml</dc:format>
    <dc:creator>
     <cc:Agent>
      <dc:title>Matplotlib v3.7.0, https://matplotlib.org/</dc:title>
     </cc:Agent>
    </dc:creator>
   </cc:Work>
  </rdf:RDF>
 </metadata>
 <defs>
  <style type="text/css">*{stroke-linejoin: round; stroke-linecap: butt}</style>
 </defs>
 <g id="figure_1">
  <g id="patch_1">
   <path d="M 0 345.6 
L 460.8 345.6 
L 460.8 0 
L 0 0 
z
" style="fill: #ffffff"/>
  </g>
  <g id="axes_1">
   <g id="patch_2">
    <path d="M 34.16 291.28 
L 453.192 291.28 
L 453.192 3 
L 34.16 3 
z
" style="fill: #ffffff"/>
   </g>
   <g id="matplotlib.axis_1">
    <g id="xtick_1">
     <g id="line2d_1">
      <path d="M 151.234838 291.28 
L 151.234838 3 
" clip-path="url(#p568d2dc954)" style="fill: none; stroke: #b0b0b0; stroke-width: 0.8; stroke-linecap: square"/>
     </g>
     <g id="line2d_2">
      <defs>
       <path id="m2d113f79aa" d="M 0 0 
L 0 3.5 
" style="stroke: #000000; stroke-width: 0.8"/>
      </defs>
      <g>
       <use xlink:href="#m2d113f79aa" x="151.234838" y="291.28" style="stroke: #000000; stroke-width: 0.8"/>
      </g>
     </g>
     <g id="text_1">
      <!-- -1 -->
      <g transform="translate(141.264526 313.476875) scale(0.2 -0.2)">
       <defs>
        <path id="DejaVuSans-2d" d="M 313 2009 
L 1997 2009 
L 1997 1497 
L 313 1497 
L 313 2009 
z
" transform="scale(0.015625)"/>
        <path id="DejaVuSans-31" d="M 794 531 
L 1825 531 
L 1825 4091 
L 703 3866 
L 703 4441 
L 1819 4666 
L 2450 4666 
L 2450 531 
L 3481 531 
L 3481 0 
L 794 0 
L 794 531 
z
" transform="scale(0.015625)"/>
       </defs>
       <use xlink:href="#DejaVuSans-2d"/>
       <use xlink:href="#DejaVuSans-31" x="36.083984"/>
      </g>
     </g>
    </g>
    <g id="xtick_2">
     <g id="line2d_3">
      <path d="M 336.117162 291.28 
L 336.117162 3 
" clip-path="url(#p568d2dc954)" style="fill: none; stroke: #b0b0b0; stroke-width: 0.8; stroke-linecap: square"/>
     </g>
     <g id="line2d_4">
      <g>
       <use xlink:href="#m2d113f79aa" x="336.117162" y="291.28" style="stroke: #000000; stroke-width: 0.8"/>
      </g>
     </g>
     <g id="text_2">
      <!-- 1 -->
      <g transform="translate(329.754662 313.476875) scale(0.2 -0.2)">
       <use xlink:href="#DejaVuSans-31"/>
      </g>
     </g>
    </g>
    <g id="xtick_3">
     <g id="line2d_5">
      <defs>
       <path id="m35472d5537" d="M 0 0 
L 0 2 
" style="stroke: #000000; stroke-width: 0.6"/>
      </defs>
      <g>
       <use xlink:href="#m35472d5537" x="38.28572" y="291.28" style="stroke: #000000; stroke-width: 0.6"/>
      </g>
     </g>
    </g>
    <g id="xtick_4">
     <g id="line2d_6">
      <g>
       <use xlink:href="#m35472d5537" x="44.474359" y="291.28" style="stroke: #000000; stroke-width: 0.6"/>
      </g>
     </g>
    </g>
    <g id="xtick_5">
     <g id="line2d_7">
      <g>
       <use xlink:href="#m35472d5537" x="49.835202" y="291.28" style="stroke: #000000; stroke-width: 0.6"/>
      </g>
     </g>
    </g>
    <g id="xtick_6">
     <g id="line2d_8">
      <g>
       <use xlink:href="#m35472d5537" x="54.563801" y="291.28" style="stroke: #000000; stroke-width: 0.6"/>
      </g>
     </g>
    </g>
    <g id="xtick_7">
     <g id="line2d_9">
      <g>
       <use xlink:href="#m35472d5537" x="86.621239" y="291.28" style="stroke: #000000; stroke-width: 0.6"/>
      </g>
     </g>
    </g>
    <g id="xtick_8">
     <g id="line2d_10">
      <g>
       <use xlink:href="#m35472d5537" x="102.89932" y="291.28" style="stroke: #000000; stroke-width: 0.6"/>
      </g>
     </g>
    </g>
    <g id="xtick_9">
     <g id="line2d_11">
      <g>
       <use xlink:href="#m35472d5537" x="114.448802" y="291.28" style="stroke: #000000; stroke-width: 0.6"/>
      </g>
     </g>
    </g>
    <g id="xtick_10">
     <g id="line2d_12">
      <g>
       <use xlink:href="#m35472d5537" x="123.407276" y="291.28" style="stroke: #000000; stroke-width: 0.6"/>
      </g>
     </g>
    </g>
    <g id="xtick_11">
     <g id="line2d_13">
      <g>
       <use xlink:href="#m35472d5537" x="130.726882" y="291.28" style="stroke: #000000; stroke-width: 0.6"/>
      </g>
     </g>
    </g>
    <g id="xtick_12">
     <g id="line2d_14">
      <g>
       <use xlink:href="#m35472d5537" x="136.915521" y="291.28" style="stroke: #000000; stroke-width: 0.6"/>
      </g>
     </g>
    </g>
    <g id="xtick_13">
     <g id="line2d_15">
      <g>
       <use xlink:href="#m35472d5537" x="142.276364" y="291.28" style="stroke: #000000; stroke-width: 0.6"/>
      </g>
     </g>
    </g>
    <g id="xtick_14">
     <g id="line2d_16">
      <g>
       <use xlink:href="#m35472d5537" x="147.004963" y="291.28" style="stroke: #000000; stroke-width: 0.6"/>
      </g>
     </g>
    </g>
    <g id="xtick_15">
     <g id="line2d_17">
      <g>
       <use xlink:href="#m35472d5537" x="179.062401" y="291.28" style="stroke: #000000; stroke-width: 0.6"/>
      </g>
     </g>
    </g>
    <g id="xtick_16">
     <g id="line2d_18">
      <g>
       <use xlink:href="#m35472d5537" x="195.340481" y="291.28" style="stroke: #000000; stroke-width: 0.6"/>
      </g>
     </g>
    </g>
    <g id="xtick_17">
     <g id="line2d_19">
      <g>
       <use xlink:href="#m35472d5537" x="206.889963" y="291.28" style="stroke: #000000; stroke-width: 0.6"/>
      </g>
     </g>
    </g>
    <g id="xtick_18">
     <g id="line2d_20">
      <g>
       <use xlink:href="#m35472d5537" x="215.848437" y="291.28" style="stroke: #000000; stroke-width: 0.6"/>
      </g>
     </g>
    </g>
    <g id="xtick_19">
     <g id="line2d_21">
      <g>
       <use xlink:href="#m35472d5537" x="223.168044" y="291.28" style="stroke: #000000; stroke-width: 0.6"/>
      </g>
     </g>
    </g>
    <g id="xtick_20">
     <g id="line2d_22">
      <g>
       <use xlink:href="#m35472d5537" x="229.356683" y="291.28" style="stroke: #000000; stroke-width: 0.6"/>
      </g>
     </g>
    </g>
    <g id="xtick_21">
     <g id="line2d_23">
      <g>
       <use xlink:href="#m35472d5537" x="234.717526" y="291.28" style="stroke: #000000; stroke-width: 0.6"/>
      </g>
     </g>
    </g>
    <g id="xtick_22">
     <g id="line2d_24">
      <g>
       <use xlink:href="#m35472d5537" x="239.446124" y="291.28" style="stroke: #000000; stroke-width: 0.6"/>
      </g>
     </g>
    </g>
    <g id="xtick_23">
     <g id="line2d_25">
      <g>
       <use xlink:href="#m35472d5537" x="271.503563" y="291.28" style="stroke: #000000; stroke-width: 0.6"/>
      </g>
     </g>
    </g>
    <g id="xtick_24">
     <g id="line2d_26">
      <g>
       <use xlink:href="#m35472d5537" x="287.781643" y="291.28" style="stroke: #000000; stroke-width: 0.6"/>
      </g>
     </g>
    </g>
    <g id="xtick_25">
     <g id="line2d_27">
      <g>
       <use xlink:href="#m35472d5537" x="299.331125" y="291.28" style="stroke: #000000; stroke-width: 0.6"/>
      </g>
     </g>
    </g>
    <g id="xtick_26">
     <g id="line2d_28">
      <g>
       <use xlink:href="#m35472d5537" x="308.289599" y="291.28" style="stroke: #000000; stroke-width: 0.6"/>
      </g>
     </g>
    </g>
    <g id="xtick_27">
     <g id="line2d_29">
      <g>
       <use xlink:href="#m35472d5537" x="315.609206" y="291.28" style="stroke: #000000; stroke-width: 0.6"/>
      </g>
     </g>
    </g>
    <g id="xtick_28">
     <g id="line2d_30">
      <g>
       <use xlink:href="#m35472d5537" x="321.797845" y="291.28" style="stroke: #000000; stroke-width: 0.6"/>
      </g>
     </g>
    </g>
    <g id="xtick_29">
     <g id="line2d_31">
      <g>
       <use xlink:href="#m35472d5537" x="327.158688" y="291.28" style="stroke: #000000; stroke-width: 0.6"/>
      </g>
     </g>
    </g>
    <g id="xtick_30">
     <g id="line2d_32">
      <g>
       <use xlink:href="#m35472d5537" x="331.887286" y="291.28" style="stroke: #000000; stroke-width: 0.6"/>
      </g>
     </g>
    </g>
    <g id="xtick_31">
     <g id="line2d_33">
      <g>
       <use xlink:href="#m35472d5537" x="363.944724" y="291.28" style="stroke: #000000; stroke-width: 0.6"/>
      </g>
     </g>
    </g>
    <g id="xtick_32">
     <g id="line2d_34">
      <g>
       <use xlink:href="#m35472d5537" x="380.222805" y="291.28" style="stroke: #000000; stroke-width: 0.6"/>
      </g>
     </g>
    </g>
    <g id="xtick_33">
     <g id="line2d_35">
      <g>
       <use xlink:href="#m35472d5537" x="391.772287" y="291.28" style="stroke: #000000; stroke-width: 0.6"/>
      </g>
     </g>
    </g>
    <g id="xtick_34">
     <g id="line2d_36">
      <g>
       <use xlink:href="#m35472d5537" x="400.730761" y="291.28" style="stroke: #000000; stroke-width: 0.6"/>
      </g>
     </g>
    </g>
    <g id="xtick_35">
     <g id="line2d_37">
      <g>
       <use xlink:href="#m35472d5537" x="408.050367" y="291.28" style="stroke: #000000; stroke-width: 0.6"/>
      </g>
     </g>
    </g>
    <g id="xtick_36">
     <g id="line2d_38">
      <g>
       <use xlink:href="#m35472d5537" x="414.239006" y="291.28" style="stroke: #000000; stroke-width: 0.6"/>
      </g>
     </g>
    </g>
    <g id="xtick_37">
     <g id="line2d_39">
      <g>
       <use xlink:href="#m35472d5537" x="419.599849" y="291.28" style="stroke: #000000; stroke-width: 0.6"/>
      </g>
     </g>
    </g>
    <g id="xtick_38">
     <g id="line2d_40">
      <g>
       <use xlink:href="#m35472d5537" x="424.328448" y="291.28" style="stroke: #000000; stroke-width: 0.6"/>
      </g>
     </g>
    </g>
    <g id="text_3">
     <!-- log10 of FEvals ratio -->
     <g transform="translate(141.371312 336.833125) scale(0.2 -0.2)">
      <defs>
       <path id="DejaVuSans-6c" d="M 603 4863 
L 1178 4863 
L 1178 0 
L 603 0 
L 603 4863 
z
" transform="scale(0.015625)"/>
       <path id="DejaVuSans-6f" d="M 1959 3097 
Q 1497 3097 1228 2736 
Q 959 2375 959 1747 
Q 959 1119 1226 758 
Q 1494 397 1959 397 
Q 2419 397 2687 759 
Q 2956 1122 2956 1747 
Q 2956 2369 2687 2733 
Q 2419 3097 1959 3097 
z
M 1959 3584 
Q 2709 3584 3137 3096 
Q 3566 2609 3566 1747 
Q 3566 888 3137 398 
Q 2709 -91 1959 -91 
Q 1206 -91 779 398 
Q 353 888 353 1747 
Q 353 2609 779 3096 
Q 1206 3584 1959 3584 
z
" transform="scale(0.015625)"/>
       <path id="DejaVuSans-67" d="M 2906 1791 
Q 2906 2416 2648 2759 
Q 2391 3103 1925 3103 
Q 1463 3103 1205 2759 
Q 947 2416 947 1791 
Q 947 1169 1205 825 
Q 1463 481 1925 481 
Q 2391 481 2648 825 
Q 2906 1169 2906 1791 
z
M 3481 434 
Q 3481 -459 3084 -895 
Q 2688 -1331 1869 -1331 
Q 1566 -1331 1297 -1286 
Q 1028 -1241 775 -1147 
L 775 -588 
Q 1028 -725 1275 -790 
Q 1522 -856 1778 -856 
Q 2344 -856 2625 -561 
Q 2906 -266 2906 331 
L 2906 616 
Q 2728 306 2450 153 
Q 2172 0 1784 0 
Q 1141 0 747 490 
Q 353 981 353 1791 
Q 353 2603 747 3093 
Q 1141 3584 1784 3584 
Q 2172 3584 2450 3431 
Q 2728 3278 2906 2969 
L 2906 3500 
L 3481 3500 
L 3481 434 
z
" transform="scale(0.015625)"/>
       <path id="DejaVuSans-30" d="M 2034 4250 
Q 1547 4250 1301 3770 
Q 1056 3291 1056 2328 
Q 1056 1369 1301 889 
Q 1547 409 2034 409 
Q 2525 409 2770 889 
Q 3016 1369 3016 2328 
Q 3016 3291 2770 3770 
Q 2525 4250 2034 4250 
z
M 2034 4750 
Q 2819 4750 3233 4129 
Q 3647 3509 3647 2328 
Q 3647 1150 3233 529 
Q 2819 -91 2034 -91 
Q 1250 -91 836 529 
Q 422 1150 422 2328 
Q 422 3509 836 4129 
Q 1250 4750 2034 4750 
z
" transform="scale(0.015625)"/>
       <path id="DejaVuSans-20" transform="scale(0.015625)"/>
       <path id="DejaVuSans-66" d="M 2375 4863 
L 2375 4384 
L 1825 4384 
Q 1516 4384 1395 4259 
Q 1275 4134 1275 3809 
L 1275 3500 
L 2222 3500 
L 2222 3053 
L 1275 3053 
L 1275 0 
L 697 0 
L 697 3053 
L 147 3053 
L 147 3500 
L 697 3500 
L 697 3744 
Q 697 4328 969 4595 
Q 1241 4863 1831 4863 
L 2375 4863 
z
" transform="scale(0.015625)"/>
       <path id="DejaVuSans-46" d="M 628 4666 
L 3309 4666 
L 3309 4134 
L 1259 4134 
L 1259 2759 
L 3109 2759 
L 3109 2228 
L 1259 2228 
L 1259 0 
L 628 0 
L 628 4666 
z
" transform="scale(0.015625)"/>
       <path id="DejaVuSans-45" d="M 628 4666 
L 3578 4666 
L 3578 4134 
L 1259 4134 
L 1259 2753 
L 3481 2753 
L 3481 2222 
L 1259 2222 
L 1259 531 
L 3634 531 
L 3634 0 
L 628 0 
L 628 4666 
z
" transform="scale(0.015625)"/>
       <path id="DejaVuSans-76" d="M 191 3500 
L 800 3500 
L 1894 563 
L 2988 3500 
L 3597 3500 
L 2284 0 
L 1503 0 
L 191 3500 
z
" transform="scale(0.015625)"/>
       <path id="DejaVuSans-61" d="M 2194 1759 
Q 1497 1759 1228 1600 
Q 959 1441 959 1056 
Q 959 750 1161 570 
Q 1363 391 1709 391 
Q 2188 391 2477 730 
Q 2766 1069 2766 1631 
L 2766 1759 
L 2194 1759 
z
M 3341 1997 
L 3341 0 
L 2766 0 
L 2766 531 
Q 2569 213 2275 61 
Q 1981 -91 1556 -91 
Q 1019 -91 701 211 
Q 384 513 384 1019 
Q 384 1609 779 1909 
Q 1175 2209 1959 2209 
L 2766 2209 
L 2766 2266 
Q 2766 2663 2505 2880 
Q 2244 3097 1772 3097 
Q 1472 3097 1187 3025 
Q 903 2953 641 2809 
L 641 3341 
Q 956 3463 1253 3523 
Q 1550 3584 1831 3584 
Q 2591 3584 2966 3190 
Q 3341 2797 3341 1997 
z
" transform="scale(0.015625)"/>
       <path id="DejaVuSans-73" d="M 2834 3397 
L 2834 2853 
Q 2591 2978 2328 3040 
Q 2066 3103 1784 3103 
Q 1356 3103 1142 2972 
Q 928 2841 928 2578 
Q 928 2378 1081 2264 
Q 1234 2150 1697 2047 
L 1894 2003 
Q 2506 1872 2764 1633 
Q 3022 1394 3022 966 
Q 3022 478 2636 193 
Q 2250 -91 1575 -91 
Q 1294 -91 989 -36 
Q 684 19 347 128 
L 347 722 
Q 666 556 975 473 
Q 1284 391 1588 391 
Q 1994 391 2212 530 
Q 2431 669 2431 922 
Q 2431 1156 2273 1281 
Q 2116 1406 1581 1522 
L 1381 1569 
Q 847 1681 609 1914 
Q 372 2147 372 2553 
Q 372 3047 722 3315 
Q 1072 3584 1716 3584 
Q 2034 3584 2315 3537 
Q 2597 3491 2834 3397 
z
" transform="scale(0.015625)"/>
       <path id="DejaVuSans-72" d="M 2631 2963 
Q 2534 3019 2420 3045 
Q 2306 3072 2169 3072 
Q 1681 3072 1420 2755 
Q 1159 2438 1159 1844 
L 1159 0 
L 581 0 
L 581 3500 
L 1159 3500 
L 1159 2956 
Q 1341 3275 1631 3429 
Q 1922 3584 2338 3584 
Q 2397 3584 2469 3576 
Q 2541 3569 2628 3553 
L 2631 2963 
z
" transform="scale(0.015625)"/>
       <path id="DejaVuSans-74" d="M 1172 4494 
L 1172 3500 
L 2356 3500 
L 2356 3053 
L 1172 3053 
L 1172 1153 
Q 1172 725 1289 603 
Q 1406 481 1766 481 
L 2356 481 
L 2356 0 
L 1766 0 
Q 1100 0 847 248 
Q 594 497 594 1153 
L 594 3053 
L 172 3053 
L 172 3500 
L 594 3500 
L 594 4494 
L 1172 4494 
z
" transform="scale(0.015625)"/>
       <path id="DejaVuSans-69" d="M 603 3500 
L 1178 3500 
L 1178 0 
L 603 0 
L 603 3500 
z
M 603 4863 
L 1178 4863 
L 1178 4134 
L 603 4134 
L 603 4863 
z
" transform="scale(0.015625)"/>
      </defs>
      <use xlink:href="#DejaVuSans-6c"/>
      <use xlink:href="#DejaVuSans-6f" x="27.783203"/>
      <use xlink:href="#DejaVuSans-67" x="88.964844"/>
      <use xlink:href="#DejaVuSans-31" x="152.441406"/>
      <use xlink:href="#DejaVuSans-30" x="216.064453"/>
      <use xlink:href="#DejaVuSans-20" x="279.6875"/>
      <use xlink:href="#DejaVuSans-6f" x="311.474609"/>
      <use xlink:href="#DejaVuSans-66" x="372.65625"/>
      <use xlink:href="#DejaVuSans-20" x="407.861328"/>
      <use xlink:href="#DejaVuSans-46" x="439.648438"/>
      <use xlink:href="#DejaVuSans-45" x="497.167969"/>
      <use xlink:href="#DejaVuSans-76" x="560.351562"/>
      <use xlink:href="#DejaVuSans-61" x="619.53125"/>
      <use xlink:href="#DejaVuSans-6c" x="680.810547"/>
      <use xlink:href="#DejaVuSans-73" x="708.59375"/>
      <use xlink:href="#DejaVuSans-20" x="760.693359"/>
      <use xlink:href="#DejaVuSans-72" x="792.480469"/>
      <use xlink:href="#DejaVuSans-61" x="833.59375"/>
      <use xlink:href="#DejaVuSans-74" x="894.873047"/>
      <use xlink:href="#DejaVuSans-69" x="934.082031"/>
      <use xlink:href="#DejaVuSans-6f" x="961.865234"/>
     </g>
    </g>
   </g>
   <g id="matplotlib.axis_2">
    <g id="ytick_1">
     <g id="line2d_41">
      <path d="M 34.16 288.453725 
L 453.192 288.453725 
" clip-path="url(#p568d2dc954)" style="fill: none; stroke: #b0b0b0; stroke-width: 0.8; stroke-linecap: square"/>
     </g>
     <g id="line2d_42">
      <defs>
       <path id="m02b91596a6" d="M 0 0 
L -3.5 0 
" style="stroke: #000000; stroke-width: 0.8"/>
      </defs>
      <g>
       <use xlink:href="#m02b91596a6" x="34.16" y="288.453725" style="stroke: #000000; stroke-width: 0.8"/>
      </g>
     </g>
    </g>
    <g id="ytick_2">
     <g id="line2d_43">
      <path d="M 34.16 217.796863 
L 453.192 217.796863 
" clip-path="url(#p568d2dc954)" style="fill: none; stroke: #b0b0b0; stroke-width: 0.8; stroke-linecap: square"/>
     </g>
     <g id="line2d_44">
      <g>
       <use xlink:href="#m02b91596a6" x="34.16" y="217.796863" style="stroke: #000000; stroke-width: 0.8"/>
      </g>
     </g>
    </g>
    <g id="ytick_3">
     <g id="line2d_45">
      <path d="M 34.16 147.14 
L 453.192 147.14 
" clip-path="url(#p568d2dc954)" style="fill: none; stroke: #b0b0b0; stroke-width: 0.8; stroke-linecap: square"/>
     </g>
     <g id="line2d_46">
      <g>
       <use xlink:href="#m02b91596a6" x="34.16" y="147.14" style="stroke: #000000; stroke-width: 0.8"/>
      </g>
     </g>
    </g>
    <g id="ytick_4">
     <g id="line2d_47">
      <path d="M 34.16 76.483137 
L 453.192 76.483137 
" clip-path="url(#p568d2dc954)" style="fill: none; stroke: #b0b0b0; stroke-width: 0.8; stroke-linecap: square"/>
     </g>
     <g id="line2d_48">
      <g>
       <use xlink:href="#m02b91596a6" x="34.16" y="76.483137" style="stroke: #000000; stroke-width: 0.8"/>
      </g>
     </g>
    </g>
    <g id="ytick_5">
     <g id="line2d_49">
      <path d="M 34.16 5.826275 
L 453.192 5.826275 
" clip-path="url(#p568d2dc954)" style="fill: none; stroke: #b0b0b0; stroke-width: 0.8; stroke-linecap: square"/>
     </g>
     <g id="line2d_50">
      <g>
       <use xlink:href="#m02b91596a6" x="34.16" y="5.826275" style="stroke: #000000; stroke-width: 0.8"/>
      </g>
     </g>
    </g>
    <g id="text_4">
     <!-- proportion of trials -->
     <g transform="translate(19.000625 240.14625) rotate(-90) scale(0.2 -0.2)">
      <defs>
       <path id="DejaVuSans-70" d="M 1159 525 
L 1159 -1331 
L 581 -1331 
L 581 3500 
L 1159 3500 
L 1159 2969 
Q 1341 3281 1617 3432 
Q 1894 3584 2278 3584 
Q 2916 3584 3314 3078 
Q 3713 2572 3713 1747 
Q 3713 922 3314 415 
Q 2916 -91 2278 -91 
Q 1894 -91 1617 61 
Q 1341 213 1159 525 
z
M 3116 1747 
Q 3116 2381 2855 2742 
Q 2594 3103 2138 3103 
Q 1681 3103 1420 2742 
Q 1159 2381 1159 1747 
Q 1159 1113 1420 752 
Q 1681 391 2138 391 
Q 2594 391 2855 752 
Q 3116 1113 3116 1747 
z
" transform="scale(0.015625)"/>
       <path id="DejaVuSans-6e" d="M 3513 2113 
L 3513 0 
L 2938 0 
L 2938 2094 
Q 2938 2591 2744 2837 
Q 2550 3084 2163 3084 
Q 1697 3084 1428 2787 
Q 1159 2491 1159 1978 
L 1159 0 
L 581 0 
L 581 3500 
L 1159 3500 
L 1159 2956 
Q 1366 3272 1645 3428 
Q 1925 3584 2291 3584 
Q 2894 3584 3203 3211 
Q 3513 2838 3513 2113 
z
" transform="scale(0.015625)"/>
      </defs>
      <use xlink:href="#DejaVuSans-70"/>
      <use xlink:href="#DejaVuSans-72" x="63.476562"/>
      <use xlink:href="#DejaVuSans-6f" x="102.339844"/>
      <use xlink:href="#DejaVuSans-70" x="163.521484"/>
      <use xlink:href="#DejaVuSans-6f" x="226.998047"/>
      <use xlink:href="#DejaVuSans-72" x="288.179688"/>
      <use xlink:href="#DejaVuSans-74" x="329.292969"/>
      <use xlink:href="#DejaVuSans-69" x="368.501953"/>
      <use xlink:href="#DejaVuSans-6f" x="396.285156"/>
      <use xlink:href="#DejaVuSans-6e" x="457.466797"/>
      <use xlink:href="#DejaVuSans-20" x="520.845703"/>
      <use xlink:href="#DejaVuSans-6f" x="552.632812"/>
      <use xlink:href="#DejaVuSans-66" x="613.814453"/>
      <use xlink:href="#DejaVuSans-20" x="649.019531"/>
      <use xlink:href="#DejaVuSans-74" x="680.806641"/>
      <use xlink:href="#DejaVuSans-72" x="720.015625"/>
      <use xlink:href="#DejaVuSans-69" x="761.128906"/>
      <use xlink:href="#DejaVuSans-61" x="788.912109"/>
      <use xlink:href="#DejaVuSans-6c" x="850.191406"/>
      <use xlink:href="#DejaVuSans-73" x="877.974609"/>
     </g>
    </g>
   </g>
   <g id="line2d_51">
    <path d="M 34.16 271.382269 
L 48.726545 271.382269 
L 48.726545 270.433854 
L 63.472123 270.433854 
L 63.472123 269.48544 
L 67.00637 269.48544 
L 67.00637 268.537026 
L 71.15423 268.537026 
L 71.15423 267.588612 
L 77.025502 267.588612 
L 77.025502 266.640197 
L 86.621239 266.640197 
L 86.621239 265.691783 
L 90.851115 265.691783 
L 90.851115 264.743369 
L 106.465598 264.743369 
L 106.465598 263.794955 
L 109.89903 263.794955 
L 109.89903 262.84654 
L 126.022997 262.84654 
L 126.022997 261.898126 
L 129.750623 261.898126 
L 129.750623 260.949712 
L 130.739237 260.949712 
L 130.739237 260.001298 
L 132.36575 260.001298 
L 132.36575 259.052883 
L 143.049639 259.052883 
L 143.049639 258.104469 
L 144.589982 258.104469 
L 144.589982 257.156055 
L 152.873706 257.156055 
L 152.873706 256.20764 
L 158.08776 256.20764 
L 158.08776 255.259226 
L 166.936013 255.259226 
L 166.936013 254.310812 
L 179.310221 254.310812 
L 179.310221 253.362398 
L 181.681592 253.362398 
L 181.681592 252.413983 
L 185.215839 252.413983 
L 185.215839 251.465569 
L 189.363699 251.465569 
L 189.363699 250.517155 
L 195.234971 250.517155 
L 195.234971 249.568741 
L 201.683828 249.568741 
L 201.683828 248.620326 
L 202.12021 248.620326 
L 202.12021 247.671912 
L 202.433811 247.671912 
L 202.433811 246.723498 
L 203.686017 246.723498 
L 203.686017 245.775084 
L 204.830707 245.775084 
L 204.830707 244.826669 
L 205.324156 244.826669 
L 205.324156 243.878255 
L 209.060583 243.878255 
L 209.060583 242.929841 
L 211.830418 242.929841 
L 211.830418 241.981427 
L 212.764955 241.981427 
L 212.764955 241.033012 
L 215.558044 241.033012 
L 215.558044 240.084598 
L 215.69192 240.084598 
L 215.69192 239.136184 
L 216.546658 239.136184 
L 216.546658 238.187769 
L 217.179389 238.187769 
L 217.228481 236.290941 
L 217.33672 236.290941 
L 217.33672 235.342527 
L 218.464159 235.342527 
L 218.464159 234.394112 
L 219.016222 234.394112 
L 219.016222 232.497284 
L 220.457546 232.497284 
L 220.457546 231.54887 
L 220.713636 231.54887 
L 220.713636 230.600455 
L 221.064346 230.600455 
L 221.064346 229.652041 
L 222.05296 229.652041 
L 222.05296 228.703627 
L 222.191785 228.703627 
L 222.191785 227.755213 
L 222.578724 227.755213 
L 222.578724 226.806798 
L 222.743848 226.806798 
L 222.743848 224.90997 
L 223.180399 224.90997 
L 223.180399 223.961555 
L 223.375789 223.961555 
L 223.375789 223.013141 
L 223.661492 223.013141 
L 223.732463 220.167898 
L 224.346333 220.167898 
L 224.346333 219.219484 
L 224.675067 219.219484 
L 224.675067 218.27107 
L 224.850764 218.27107 
L 224.861496 216.374241 
L 226.398365 216.374241 
L 226.398365 215.425827 
L 227.510533 215.425827 
L 227.550279 213.528999 
L 228.108499 213.528999 
L 228.108499 212.580584 
L 228.85706 212.580584 
L 228.85706 211.63217 
L 230.397403 211.63217 
L 230.437498 209.735341 
L 230.732768 209.735341 
L 230.732768 208.786927 
L 231.04478 208.786927 
L 231.04478 207.838513 
L 231.760357 207.838513 
L 231.760357 206.890099 
L 232.90609 206.890099 
L 232.953349 204.99327 
L 233.094651 204.99327 
L 233.190483 203.096442 
L 233.971745 203.096442 
L 233.971745 202.148027 
L 234.363362 202.148027 
L 234.363362 201.199613 
L 235.19264 201.199613 
L 235.19264 200.251199 
L 235.490801 200.251199 
L 235.565817 198.35437 
L 235.798792 198.35437 
L 235.903706 196.457542 
L 236.042865 196.457542 
L 236.110036 193.612299 
L 236.157295 193.612299 
L 236.157295 192.663885 
L 236.394429 192.663885 
L 236.394429 191.71547 
L 236.514296 191.71547 
L 236.514296 190.767056 
L 237.031144 190.767056 
L 237.031144 189.818642 
L 237.583208 189.818642 
L 237.583208 187.921813 
L 238.119605 187.921813 
L 238.121367 186.024985 
L 238.681128 186.024985 
L 238.681128 185.076571 
L 239.454604 185.076571 
L 239.526418 183.179742 
L 240.241922 183.179742 
L 240.328505 181.282914 
L 240.515032 181.282914 
L 240.515032 180.334499 
L 240.91606 180.334499 
L 240.91606 179.386085 
L 241.063912 179.386085 
L 241.063912 178.437671 
L 241.230536 178.437671 
L 241.230536 177.489256 
L 241.570448 177.489256 
L 241.655615 175.592428 
L 241.756271 175.592428 
L 241.756271 174.644014 
L 243.1881 174.644014 
L 243.1881 173.695599 
L 243.895182 173.695599 
L 243.990878 171.798771 
L 244.18743 171.798771 
L 244.18743 170.850357 
L 244.55838 170.850357 
L 244.55838 169.901942 
L 244.735702 169.901942 
L 244.804847 167.0567 
L 245.314868 167.0567 
L 245.314868 166.108285 
L 245.803474 166.108285 
L 245.866932 163.263043 
L 246.505935 163.263043 
L 246.505935 162.314628 
L 247.076887 162.314628 
L 247.076887 161.366214 
L 248.014361 161.366214 
L 248.06162 159.469385 
L 248.298754 159.469385 
L 248.298754 158.520971 
L 248.624488 158.520971 
L 248.624488 157.572557 
L 249.401484 157.572557 
L 249.401484 156.624143 
L 249.752903 156.624143 
L 249.752903 155.675728 
L 250.040182 155.675728 
L 250.040182 154.727314 
L 250.453599 154.727314 
L 250.528922 152.830486 
L 250.575218 152.830486 
L 250.659649 150.933657 
L 251.080986 150.933657 
L 251.080986 149.036829 
L 251.431988 149.036829 
L 251.431988 148.088414 
L 251.674747 148.088414 
L 251.674747 147.14 
L 252.825434 147.14 
L 252.825434 146.191586 
L 253.364604 146.191586 
L 253.411863 144.294757 
L 253.540938 144.294757 
L 253.648998 141.449514 
L 254.181225 141.449514 
L 254.188042 139.552686 
L 254.365777 139.552686 
L 254.365777 138.604272 
L 254.889524 138.604272 
L 254.889524 137.655857 
L 255.081281 137.655857 
L 255.169839 135.759029 
L 255.320774 135.759029 
L 255.320774 134.810615 
L 255.636644 134.810615 
L 255.683903 132.913786 
L 255.921037 132.913786 
L 255.921037 131.965372 
L 256.418236 131.965372 
L 256.501849 130.068543 
L 256.678719 130.068543 
L 256.678719 129.120129 
L 257.184245 129.120129 
L 257.231505 127.2233 
L 257.468639 127.2233 
L 257.468639 126.274886 
L 257.81649 126.274886 
L 257.81649 125.326472 
L 260.036096 125.326472 
L 260.059314 123.429643 
L 260.172864 123.429643 
L 260.172864 122.481229 
L 260.586325 122.481229 
L 260.586325 121.532815 
L 261.270483 121.532815 
L 261.270483 120.584401 
L 261.657833 120.584401 
L 261.657833 119.635986 
L 262.028962 119.635986 
L 262.028962 118.687572 
L 262.649501 118.687572 
L 262.649501 117.739158 
L 263.365006 117.739158 
L 263.365006 116.790744 
L 263.606296 116.790744 
L 263.606296 115.842329 
L 263.880531 115.842329 
L 263.927791 113.945501 
L 264.164925 113.945501 
L 264.183956 112.048672 
L 264.301002 112.048672 
L 264.313951 110.151844 
L 264.498481 110.151844 
L 264.498481 109.203429 
L 265.117642 109.203429 
L 265.117642 108.255015 
L 265.302565 108.255015 
L 265.302565 107.306601 
L 265.500359 107.306601 
L 265.500359 106.358187 
L 265.848603 106.358187 
L 265.848603 105.409772 
L 267.480241 105.409772 
L 267.480241 104.461358 
L 267.845977 104.461358 
L 267.863555 102.56453 
L 268.032729 102.56453 
L 268.032729 101.616115 
L 268.57906 101.616115 
L 268.57906 100.667701 
L 269.020584 100.667701 
L 269.020584 99.719287 
L 269.655051 99.719287 
L 269.655051 98.770872 
L 270.055228 98.770872 
L 270.055228 97.822458 
L 270.504008 97.822458 
L 270.504008 96.874044 
L 270.623944 96.874044 
L 270.623944 95.92563 
L 271.049923 95.92563 
L 271.049923 94.977215 
L 271.163814 94.977215 
L 271.163814 94.028801 
L 271.751382 94.028801 
L 271.751382 93.080387 
L 272.180588 93.080387 
L 272.180588 92.131973 
L 272.303446 92.131973 
L 272.303446 90.235144 
L 272.544889 90.235144 
L 272.544889 89.28673 
L 272.724315 89.28673 
L 272.724315 88.338316 
L 273.430974 88.338316 
L 273.430974 87.389901 
L 273.884927 87.389901 
L 273.93744 85.493073 
L 274.698061 85.493073 
L 274.698061 84.544659 
L 276.864405 84.544659 
L 276.864405 83.596244 
L 277.304308 83.596244 
L 277.304308 82.64783 
L 277.612967 82.64783 
L 277.612967 81.699416 
L 278.051861 81.699416 
L 278.051861 80.751001 
L 278.845921 80.751001 
L 278.845921 79.802587 
L 279.15331 79.802587 
L 279.15331 78.854173 
L 279.650965 78.854173 
L 279.650965 77.905759 
L 279.995169 77.905759 
L 279.995169 76.957344 
L 281.114843 76.957344 
L 281.114843 76.00893 
L 282.518362 76.00893 
L 282.518362 75.060516 
L 282.954248 75.060516 
L 282.954248 74.112102 
L 283.880841 74.112102 
L 283.883956 72.215273 
L 284.548275 72.215273 
L 284.548275 71.266859 
L 284.717194 71.266859 
L 284.717194 70.318445 
L 286.073016 70.318445 
L 286.073016 69.37003 
L 287.437034 69.37003 
L 287.49125 67.473202 
L 287.647597 67.473202 
L 287.647597 66.524787 
L 288.304491 66.524787 
L 288.304491 65.576373 
L 289.086016 65.576373 
L 289.086016 64.627959 
L 289.493439 64.627959 
L 289.49941 62.73113 
L 289.80152 62.73113 
L 289.80152 61.782716 
L 290.576531 61.782716 
L 290.576531 60.834302 
L 291.061651 60.834302 
L 291.061651 59.885888 
L 291.877473 59.885888 
L 291.877473 58.937473 
L 292.124132 58.937473 
L 292.124132 57.989059 
L 292.443713 57.989059 
L 292.490972 56.092231 
L 292.651088 56.092231 
L 292.728106 54.195402 
L 292.932842 54.195402 
L 292.997552 52.298573 
L 294.12499 52.298573 
L 294.12499 51.350159 
L 294.31293 51.350159 
L 294.31293 50.401745 
L 294.677054 50.401745 
L 294.677054 48.504916 
L 294.950438 48.504916 
L 294.999741 46.608088 
L 296.127179 46.608088 
L 296.127179 45.659674 
L 296.40416 45.659674 
L 296.40416 44.711259 
L 296.679243 44.711259 
L 296.679243 42.814431 
L 298.542806 42.814431 
L 298.542806 41.866017 
L 298.820418 41.866017 
L 298.820418 40.917602 
L 299.331125 40.917602 
L 299.331125 39.969188 
L 299.495324 39.969188 
L 299.495324 39.020774 
L 301.108071 39.020774 
L 301.108071 38.07236 
L 302.928756 38.07236 
L 302.928756 37.123945 
L 303.510195 37.123945 
L 303.557454 35.227117 
L 303.740822 35.227117 
L 303.794588 33.330288 
L 307.014994 33.330288 
L 307.014994 32.381874 
L 307.491957 32.381874 
L 307.491957 31.43346 
L 310.925389 31.43346 
L 310.925389 30.485045 
L 311.459623 30.485045 
L 311.459623 29.536631 
L 312.174553 29.536631 
L 312.175128 27.639803 
L 313.461812 27.639803 
L 313.461812 26.691388 
L 313.873549 26.691388 
L 313.873549 25.742974 
L 314.15729 25.742974 
L 314.177317 23.846146 
L 315.399562 23.846146 
L 315.399562 22.897731 
L 317.590721 22.897731 
L 317.590721 21.949317 
L 325.395476 21.949317 
L 325.395476 21.000903 
L 326.11443 21.000903 
L 326.11443 20.052488 
L 327.3836 20.052488 
L 327.3836 19.104074 
L 328.116619 19.104074 
L 328.116619 18.15566 
L 333.392108 18.15566 
L 333.392108 17.207246 
L 336.247157 17.207246 
L 336.247157 16.258831 
L 338.249345 16.258831 
L 338.249345 15.310417 
L 338.450082 15.310417 
L 338.450082 14.362003 
L 340.057441 14.362003 
L 340.057441 13.413589 
L 453.192 13.413589 
L 453.192 13.413589 
" clip-path="url(#p568d2dc954)" style="fill: none; stroke: #000000; stroke-width: 3; stroke-linecap: square"/>
   </g>
   <g id="line2d_52">
    <path clip-path="url(#p568d2dc954)" style="fill: none; stroke: #000000; stroke-width: 3; stroke-linecap: square"/>
   </g>
   <g id="line2d_53">
    <path d="M 34.16 257.050675 
L 202.261893 257.050675 
L 202.261893 255.480523 
L 207.685958 255.480523 
L 207.685958 253.91037 
L 216.595143 253.91037 
L 216.595143 252.340218 
L 219.173818 252.340218 
L 219.173818 250.770065 
L 220.805285 250.770065 
L 220.805285 249.199913 
L 220.961193 249.199913 
L 220.961193 247.62976 
L 222.085514 247.62976 
L 222.085514 246.059608 
L 223.134532 246.059608 
L 223.134532 244.489455 
L 223.881855 244.489455 
L 223.881855 242.919303 
L 224.273939 242.919303 
L 224.273939 241.34915 
L 224.615521 241.34915 
L 224.615521 239.778998 
L 225.078106 239.778998 
L 225.078106 238.208845 
L 226.043814 238.208845 
L 226.043814 235.06854 
L 227.893564 235.06854 
L 227.893564 233.498388 
L 228.81845 233.498388 
L 228.81845 231.928235 
L 229.911565 231.928235 
L 229.911565 230.358083 
L 230.34333 230.358083 
L 230.34333 228.78793 
L 230.762256 228.78793 
L 230.762256 227.217778 
L 232.280751 227.217778 
L 232.280751 225.647625 
L 235.739703 225.647625 
L 235.739703 224.077473 
L 236.802748 224.077473 
L 236.802748 222.50732 
L 237.727634 222.50732 
L 237.727634 220.937168 
L 239.125309 220.937168 
L 239.125309 219.367015 
L 239.381424 219.367015 
L 239.381424 217.796863 
L 240.30631 217.796863 
L 240.367932 214.656558 
L 240.784815 214.656558 
L 240.784815 213.086405 
L 241.012891 213.086405 
L 241.012891 211.516253 
L 241.189935 211.516253 
L 241.189935 209.9461 
L 241.937777 209.9461 
L 241.937777 208.375948 
L 242.973239 208.375948 
L 242.973239 206.805795 
L 243.342138 206.805795 
L 243.342138 205.235643 
L 243.768611 205.235643 
L 243.777406 202.095338 
L 244.089461 202.095338 
L 244.089461 200.525185 
L 244.267024 200.525185 
L 244.267024 198.955033 
L 244.823126 198.955033 
L 244.823126 197.38488 
L 245.014347 197.38488 
L 245.014347 195.814728 
L 245.400077 195.814728 
L 245.400077 194.244575 
L 245.748012 194.244575 
L 245.748012 192.674423 
L 246.25142 192.674423 
L 246.25142 189.534118 
L 247.176306 189.534118 
L 247.176306 186.393813 
L 247.729325 186.393813 
L 247.729325 184.82366 
L 248.476648 184.82366 
L 248.476648 183.253508 
L 249.042631 183.253508 
L 249.042631 181.683355 
L 249.210313 181.683355 
L 249.277116 178.54305 
L 249.461556 178.54305 
L 249.461556 176.972898 
L 249.735186 176.972898 
L 249.735186 175.402745 
L 250.638607 175.402745 
L 250.638607 172.26244 
L 251.855792 172.26244 
L 251.92361 169.122135 
L 252.727777 169.122135 
L 252.727777 167.551983 
L 253.487259 167.551983 
L 253.487259 165.98183 
L 254.979936 165.98183 
L 254.979936 164.411678 
L 255.563324 164.411678 
L 255.563324 162.841525 
L 255.816506 162.841525 
L 255.816506 161.271373 
L 256.563829 161.271373 
L 256.563829 159.70122 
L 257.297494 159.70122 
L 257.297494 158.131068 
L 257.751749 158.131068 
L 257.751749 156.560915 
L 257.993002 156.560915 
L 257.993002 154.990763 
L 258.411928 154.990763 
L 258.411928 153.42061 
L 258.555916 153.42061 
L 258.555916 151.850458 
L 258.725788 151.850458 
L 258.725788 148.710153 
L 258.94893 148.710153 
L 258.94893 147.14 
L 261.137354 147.14 
L 261.137354 145.569847 
L 261.716287 145.569847 
L 261.716287 143.999695 
L 261.941521 143.999695 
L 261.941521 142.429542 
L 262.69314 142.429542 
L 262.69314 140.85939 
L 263.82114 140.85939 
L 263.88912 137.719085 
L 264.240066 137.719085 
L 264.240066 136.148932 
L 265.561981 136.148932 
L 265.561981 134.57878 
L 266.467796 134.57878 
L 266.467796 133.008627 
L 267.206746 133.008627 
L 267.206746 131.438475 
L 267.625671 131.438475 
L 267.625671 129.868322 
L 268.099263 129.868322 
L 268.099263 128.29817 
L 270.42851 128.29817 
L 270.42851 126.728017 
L 270.625471 126.728017 
L 270.625471 125.157865 
L 271.175833 125.157865 
L 271.258016 122.01756 
L 271.602324 122.01756 
L 271.602324 120.447407 
L 271.909498 120.447407 
L 271.909498 118.877255 
L 273.204147 118.877255 
L 273.204147 117.307102 
L 273.337792 117.307102 
L 273.337792 114.166797 
L 273.631847 114.166797 
L 273.631847 112.596645 
L 274.181 112.596645 
L 274.181 111.026492 
L 274.471165 111.026492 
L 274.471165 109.45634 
L 274.835614 109.45634 
L 274.835614 107.886187 
L 275.812467 107.886187 
L 275.812467 106.316035 
L 277.049841 106.316035 
L 277.049841 104.745882 
L 277.164861 104.745882 
L 277.164861 103.17573 
L 277.912184 103.17573 
L 277.912184 101.605577 
L 278.141714 101.605577 
L 278.141714 100.035425 
L 278.645849 100.035425 
L 278.681308 96.89512 
L 278.889037 96.89512 
L 278.889037 95.324967 
L 279.622703 95.324967 
L 279.622703 93.754815 
L 280.074143 93.754815 
L 280.1672 89.044357 
L 281.010555 89.044357 
L 281.050996 84.3339 
L 281.757878 84.3339 
L 281.757878 82.763747 
L 282.491543 82.763747 
L 282.491543 81.193595 
L 282.745876 81.193595 
L 282.745876 79.623442 
L 283.919837 79.623442 
L 283.919837 76.483137 
L 284.377343 76.483137 
L 284.377343 74.912985 
L 286.70659 74.912985 
L 286.70659 73.342832 
L 287.453913 73.342832 
L 287.453913 71.77268 
L 288.187579 71.77268 
L 288.187579 70.202527 
L 289.615872 70.202527 
L 289.615872 67.062222 
L 293.839453 67.062222 
L 293.839453 65.49207 
L 294.764339 65.49207 
L 294.764339 63.921917 
L 298.22664 63.921917 
L 298.22664 62.351765 
L 306.313821 62.351765 
L 306.313821 60.781612 
L 320.925825 60.781612 
L 320.925825 59.21146 
L 327.662176 59.21146 
L 327.662176 57.641307 
L 328.639029 57.641307 
L 328.639029 56.071155 
L 331.50787 56.071155 
L 331.50787 54.501002 
L 337.203905 54.501002 
L 337.203905 52.93085 
L 453.192 52.93085 
L 453.192 52.93085 
" clip-path="url(#p568d2dc954)" style="fill: none; stroke: #00bfbf; stroke-width: 3; stroke-linecap: square"/>
   </g>
   <g id="line2d_54">
    <path clip-path="url(#p568d2dc954)" style="fill: none; stroke: #00bfbf; stroke-width: 3; stroke-linecap: square"/>
   </g>
   <g id="line2d_55">
    <path d="M 34.16 262.760321 
L 195.895067 262.760321 
L 195.895067 259.905498 
L 197.07209 259.905498 
L 197.07209 257.050675 
L 199.81441 257.050675 
L 199.81441 254.195853 
L 200.991433 254.195853 
L 200.991433 251.34103 
L 201.462745 251.34103 
L 201.462745 248.486207 
L 205.382089 248.486207 
L 205.382089 245.631384 
L 206.58587 245.631384 
L 206.58587 242.776562 
L 207.762893 242.776562 
L 207.762893 239.921739 
L 212.153549 239.921739 
L 212.153549 237.066916 
L 216.469327 237.066916 
L 216.469327 234.212093 
L 217.875385 234.212093 
L 217.875385 231.357271 
L 220.38867 231.357271 
L 220.38867 228.502448 
L 221.794729 228.502448 
L 221.794729 225.647625 
L 222.12011 225.647625 
L 222.12011 222.792803 
L 223.297133 222.792803 
L 223.297133 219.93798 
L 225.980468 219.93798 
L 225.980468 217.083157 
L 227.16013 217.083157 
L 227.16013 214.228334 
L 227.687788 214.228334 
L 227.687788 211.373512 
L 228.566189 211.373512 
L 228.566189 208.518689 
L 228.724646 208.518689 
L 228.724646 205.663866 
L 229.899811 205.663866 
L 229.901669 199.954221 
L 231.014577 199.954221 
L 231.014577 197.099398 
L 231.321751 197.099398 
L 231.321751 194.244575 
L 232.498774 194.244575 
L 232.509902 188.53493 
L 233.686925 188.53493 
L 233.686925 185.680107 
L 234.292324 185.680107 
L 234.292324 182.825284 
L 234.933921 182.825284 
L 234.933921 179.970461 
L 236.671271 179.970461 
L 236.671271 177.115639 
L 236.889429 177.115639 
L 236.889429 174.260816 
L 238.077581 174.260816 
L 238.077581 171.405993 
L 239.106039 171.405993 
L 239.106039 168.551171 
L 241.70538 168.551171 
L 241.70538 165.696348 
L 242.69437 165.696348 
L 242.69437 162.841525 
L 243.025383 162.841525 
L 243.025383 159.986702 
L 244.100428 159.986702 
L 244.100428 157.13188 
L 249.298905 157.13188 
L 249.298905 154.277057 
L 249.796843 154.277057 
L 249.796843 151.422234 
L 250.704964 151.422234 
L 250.704964 148.567411 
L 251.89601 148.567411 
L 251.89601 145.712589 
L 252.205511 145.712589 
L 252.205511 142.857766 
L 253.084162 142.857766 
L 253.084162 140.002943 
L 253.302069 140.002943 
L 253.302069 137.14812 
L 254.337719 137.14812 
L 254.337719 134.293298 
L 254.490221 134.293298 
L 254.490221 131.438475 
L 257.23962 131.438475 
L 257.23962 128.583652 
L 258.257062 128.583652 
L 258.257062 125.728829 
L 258.810047 125.728829 
L 258.810047 122.874007 
L 261.407152 122.874007 
L 261.407152 120.019184 
L 262.595303 120.019184 
L 262.595303 117.164361 
L 263.844156 117.164361 
L 263.844156 114.309539 
L 265.028522 114.309539 
L 265.028522 111.454716 
L 265.331082 111.454716 
L 265.331082 108.599893 
L 266.441261 108.599893 
L 266.441261 105.74507 
L 267.629412 105.74507 
L 267.647023 100.035425 
L 268.824046 100.035425 
L 268.824046 97.180602 
L 271.935618 97.180602 
L 271.935618 94.325779 
L 273.214702 94.325779 
L 273.214702 91.470957 
L 274.532723 91.470957 
L 274.532723 88.616134 
L 274.894358 88.616134 
L 274.894358 85.761311 
L 275.720875 85.761311 
L 275.720875 82.906488 
L 276.071381 82.906488 
L 276.071381 80.051666 
L 280.462037 80.051666 
L 280.562762 74.34202 
L 287.167298 74.34202 
L 287.167298 71.487197 
L 288.221283 71.487197 
L 288.221283 68.632375 
L 289.627341 68.632375 
L 289.627341 65.777552 
L 289.764403 65.777552 
L 289.764403 62.922729 
L 290.952554 62.922729 
L 290.952554 60.067907 
L 295.468618 60.067907 
L 295.468618 57.213084 
L 296.874677 57.213084 
L 296.874677 54.358261 
L 297.732424 54.358261 
L 297.732424 51.503438 
L 302.766533 51.503438 
L 302.766533 48.648616 
L 304.979759 48.648616 
L 304.979759 45.793793 
L 310.013868 45.793793 
L 310.013868 42.93897 
L 310.857996 42.93897 
L 310.857996 40.084147 
L 318.105331 40.084147 
L 318.105331 37.229325 
L 326.089675 37.229325 
L 326.089675 34.374502 
L 333.33701 34.374502 
L 333.33701 31.519679 
L 453.192 31.519679 
L 453.192 31.519679 
" clip-path="url(#p568d2dc954)" style="fill: none; stroke: #bf00bf; stroke-width: 3; stroke-linecap: square"/>
   </g>
   <g id="line2d_56">
    <path clip-path="url(#p568d2dc954)" style="fill: none; stroke: #bf00bf; stroke-width: 3; stroke-linecap: square"/>
   </g>
   <g id="line2d_57">
    <path d="M 36.428651 5.826275 
L 34.16 5.826275 
L 453.192 5.826275 
L 461.8 5.826275 
" clip-path="url(#p568d2dc954)" style="fill: none; stroke: #ff0000; stroke-width: 3; stroke-linecap: square"/>
   </g>
   <g id="line2d_58"/>
   <g id="line2d_59">
    <path d="M 243.676 291.28 
L 243.676 3 
" clip-path="url(#p568d2dc954)" style="fill: none; stroke: #000000; stroke-width: 1.5; stroke-linecap: square"/>
   </g>
   <g id="line2d_60">
    <path d="M 34.16 147.14 
L 453.192 147.14 
" clip-path="url(#p568d2dc954)" style="fill: none; stroke-dasharray: 2,3.3; stroke-dashoffset: 0; stroke: #000000; stroke-width: 2"/>
   </g>
   <g id="patch_3">
    <path d="M 34.16 291.28 
L 34.16 3 
" style="fill: none; stroke: #000000; stroke-width: 0.8; stroke-linejoin: miter; stroke-linecap: square"/>
   </g>
   <g id="patch_4">
    <path d="M 453.192 291.28 
L 453.192 3 
" style="fill: none; stroke: #000000; stroke-width: 0.8; stroke-linejoin: miter; stroke-linecap: square"/>
   </g>
   <g id="patch_5">
    <path d="M 34.16 291.28 
L 453.192 291.28 
" style="fill: none; stroke: #000000; stroke-width: 0.8; stroke-linejoin: miter; stroke-linecap: square"/>
   </g>
   <g id="patch_6">
    <path d="M 34.16 3 
L 453.192 3 
" style="fill: none; stroke: #000000; stroke-width: 0.8; stroke-linejoin: miter; stroke-linecap: square"/>
   </g>
   <g id="text_5">
    <!-- f53-f55,5-D -->
    <g transform="translate(330.91761 285.5144) scale(0.2 -0.2)">
     <defs>
      <path id="DejaVuSans-35" d="M 691 4666 
L 3169 4666 
L 3169 4134 
L 1269 4134 
L 1269 2991 
Q 1406 3038 1543 3061 
Q 1681 3084 1819 3084 
Q 2600 3084 3056 2656 
Q 3513 2228 3513 1497 
Q 3513 744 3044 326 
Q 2575 -91 1722 -91 
Q 1428 -91 1123 -41 
Q 819 9 494 109 
L 494 744 
Q 775 591 1075 516 
Q 1375 441 1709 441 
Q 2250 441 2565 725 
Q 2881 1009 2881 1497 
Q 2881 1984 2565 2268 
Q 2250 2553 1709 2553 
Q 1456 2553 1204 2497 
Q 953 2441 691 2322 
L 691 4666 
z
" transform="scale(0.015625)"/>
      <path id="DejaVuSans-33" d="M 2597 2516 
Q 3050 2419 3304 2112 
Q 3559 1806 3559 1356 
Q 3559 666 3084 287 
Q 2609 -91 1734 -91 
Q 1441 -91 1130 -33 
Q 819 25 488 141 
L 488 750 
Q 750 597 1062 519 
Q 1375 441 1716 441 
Q 2309 441 2620 675 
Q 2931 909 2931 1356 
Q 2931 1769 2642 2001 
Q 2353 2234 1838 2234 
L 1294 2234 
L 1294 2753 
L 1863 2753 
Q 2328 2753 2575 2939 
Q 2822 3125 2822 3475 
Q 2822 3834 2567 4026 
Q 2313 4219 1838 4219 
Q 1578 4219 1281 4162 
Q 984 4106 628 3988 
L 628 4550 
Q 988 4650 1302 4700 
Q 1616 4750 1894 4750 
Q 2613 4750 3031 4423 
Q 3450 4097 3450 3541 
Q 3450 3153 3228 2886 
Q 3006 2619 2597 2516 
z
" transform="scale(0.015625)"/>
      <path id="DejaVuSans-2c" d="M 750 794 
L 1409 794 
L 1409 256 
L 897 -744 
L 494 -744 
L 750 256 
L 750 794 
z
" transform="scale(0.015625)"/>
      <path id="DejaVuSans-44" d="M 1259 4147 
L 1259 519 
L 2022 519 
Q 2988 519 3436 956 
Q 3884 1394 3884 2338 
Q 3884 3275 3436 3711 
Q 2988 4147 2022 4147 
L 1259 4147 
z
M 628 4666 
L 1925 4666 
Q 3281 4666 3915 4102 
Q 4550 3538 4550 2338 
Q 4550 1131 3912 565 
Q 3275 0 1925 0 
L 628 0 
L 628 4666 
z
" transform="scale(0.015625)"/>
     </defs>
     <use xlink:href="#DejaVuSans-66"/>
     <use xlink:href="#DejaVuSans-35" x="35.205078"/>
     <use xlink:href="#DejaVuSans-33" x="98.828125"/>
     <use xlink:href="#DejaVuSans-2d" x="162.451172"/>
     <use xlink:href="#DejaVuSans-66" x="198.535156"/>
     <use xlink:href="#DejaVuSans-35" x="233.740234"/>
     <use xlink:href="#DejaVuSans-35" x="297.363281"/>
     <use xlink:href="#DejaVuSans-2c" x="360.986328"/>
     <use xlink:href="#DejaVuSans-35" x="392.773438"/>
     <use xlink:href="#DejaVuSans-2d" x="456.396484"/>
     <use xlink:href="#DejaVuSans-44" x="492.480469"/>
    </g>
   </g>
   <g id="text_6">
    <!-- v2.6.1.152, hv-hash=ff0e71e8cd978373 -->
    <g style="fill: #808080" transform="translate(142.277562 286.317512) scale(0.1 -0.1)">
     <defs>
      <path id="DejaVuSans-32" d="M 1228 531 
L 3431 531 
L 3431 0 
L 469 0 
L 469 531 
Q 828 903 1448 1529 
Q 2069 2156 2228 2338 
Q 2531 2678 2651 2914 
Q 2772 3150 2772 3378 
Q 2772 3750 2511 3984 
Q 2250 4219 1831 4219 
Q 1534 4219 1204 4116 
Q 875 4013 500 3803 
L 500 4441 
Q 881 4594 1212 4672 
Q 1544 4750 1819 4750 
Q 2544 4750 2975 4387 
Q 3406 4025 3406 3419 
Q 3406 3131 3298 2873 
Q 3191 2616 2906 2266 
Q 2828 2175 2409 1742 
Q 1991 1309 1228 531 
z
" transform="scale(0.015625)"/>
      <path id="DejaVuSans-2e" d="M 684 794 
L 1344 794 
L 1344 0 
L 684 0 
L 684 794 
z
" transform="scale(0.015625)"/>
      <path id="DejaVuSans-36" d="M 2113 2584 
Q 1688 2584 1439 2293 
Q 1191 2003 1191 1497 
Q 1191 994 1439 701 
Q 1688 409 2113 409 
Q 2538 409 2786 701 
Q 3034 994 3034 1497 
Q 3034 2003 2786 2293 
Q 2538 2584 2113 2584 
z
M 3366 4563 
L 3366 3988 
Q 3128 4100 2886 4159 
Q 2644 4219 2406 4219 
Q 1781 4219 1451 3797 
Q 1122 3375 1075 2522 
Q 1259 2794 1537 2939 
Q 1816 3084 2150 3084 
Q 2853 3084 3261 2657 
Q 3669 2231 3669 1497 
Q 3669 778 3244 343 
Q 2819 -91 2113 -91 
Q 1303 -91 875 529 
Q 447 1150 447 2328 
Q 447 3434 972 4092 
Q 1497 4750 2381 4750 
Q 2619 4750 2861 4703 
Q 3103 4656 3366 4563 
z
" transform="scale(0.015625)"/>
      <path id="DejaVuSans-68" d="M 3513 2113 
L 3513 0 
L 2938 0 
L 2938 2094 
Q 2938 2591 2744 2837 
Q 2550 3084 2163 3084 
Q 1697 3084 1428 2787 
Q 1159 2491 1159 1978 
L 1159 0 
L 581 0 
L 581 4863 
L 1159 4863 
L 1159 2956 
Q 1366 3272 1645 3428 
Q 1925 3584 2291 3584 
Q 2894 3584 3203 3211 
Q 3513 2838 3513 2113 
z
" transform="scale(0.015625)"/>
      <path id="DejaVuSans-3d" d="M 678 2906 
L 4684 2906 
L 4684 2381 
L 678 2381 
L 678 2906 
z
M 678 1631 
L 4684 1631 
L 4684 1100 
L 678 1100 
L 678 1631 
z
" transform="scale(0.015625)"/>
      <path id="DejaVuSans-65" d="M 3597 1894 
L 3597 1613 
L 953 1613 
Q 991 1019 1311 708 
Q 1631 397 2203 397 
Q 2534 397 2845 478 
Q 3156 559 3463 722 
L 3463 178 
Q 3153 47 2828 -22 
Q 2503 -91 2169 -91 
Q 1331 -91 842 396 
Q 353 884 353 1716 
Q 353 2575 817 3079 
Q 1281 3584 2069 3584 
Q 2775 3584 3186 3129 
Q 3597 2675 3597 1894 
z
M 3022 2063 
Q 3016 2534 2758 2815 
Q 2500 3097 2075 3097 
Q 1594 3097 1305 2825 
Q 1016 2553 972 2059 
L 3022 2063 
z
" transform="scale(0.015625)"/>
      <path id="DejaVuSans-37" d="M 525 4666 
L 3525 4666 
L 3525 4397 
L 1831 0 
L 1172 0 
L 2766 4134 
L 525 4134 
L 525 4666 
z
" transform="scale(0.015625)"/>
      <path id="DejaVuSans-38" d="M 2034 2216 
Q 1584 2216 1326 1975 
Q 1069 1734 1069 1313 
Q 1069 891 1326 650 
Q 1584 409 2034 409 
Q 2484 409 2743 651 
Q 3003 894 3003 1313 
Q 3003 1734 2745 1975 
Q 2488 2216 2034 2216 
z
M 1403 2484 
Q 997 2584 770 2862 
Q 544 3141 544 3541 
Q 544 4100 942 4425 
Q 1341 4750 2034 4750 
Q 2731 4750 3128 4425 
Q 3525 4100 3525 3541 
Q 3525 3141 3298 2862 
Q 3072 2584 2669 2484 
Q 3125 2378 3379 2068 
Q 3634 1759 3634 1313 
Q 3634 634 3220 271 
Q 2806 -91 2034 -91 
Q 1263 -91 848 271 
Q 434 634 434 1313 
Q 434 1759 690 2068 
Q 947 2378 1403 2484 
z
M 1172 3481 
Q 1172 3119 1398 2916 
Q 1625 2713 2034 2713 
Q 2441 2713 2670 2916 
Q 2900 3119 2900 3481 
Q 2900 3844 2670 4047 
Q 2441 4250 2034 4250 
Q 1625 4250 1398 4047 
Q 1172 3844 1172 3481 
z
" transform="scale(0.015625)"/>
      <path id="DejaVuSans-63" d="M 3122 3366 
L 3122 2828 
Q 2878 2963 2633 3030 
Q 2388 3097 2138 3097 
Q 1578 3097 1268 2742 
Q 959 2388 959 1747 
Q 959 1106 1268 751 
Q 1578 397 2138 397 
Q 2388 397 2633 464 
Q 2878 531 3122 666 
L 3122 134 
Q 2881 22 2623 -34 
Q 2366 -91 2075 -91 
Q 1284 -91 818 406 
Q 353 903 353 1747 
Q 353 2603 823 3093 
Q 1294 3584 2113 3584 
Q 2378 3584 2631 3529 
Q 2884 3475 3122 3366 
z
" transform="scale(0.015625)"/>
      <path id="DejaVuSans-64" d="M 2906 2969 
L 2906 4863 
L 3481 4863 
L 3481 0 
L 2906 0 
L 2906 525 
Q 2725 213 2448 61 
Q 2172 -91 1784 -91 
Q 1150 -91 751 415 
Q 353 922 353 1747 
Q 353 2572 751 3078 
Q 1150 3584 1784 3584 
Q 2172 3584 2448 3432 
Q 2725 3281 2906 2969 
z
M 947 1747 
Q 947 1113 1208 752 
Q 1469 391 1925 391 
Q 2381 391 2643 752 
Q 2906 1113 2906 1747 
Q 2906 2381 2643 2742 
Q 2381 3103 1925 3103 
Q 1469 3103 1208 2742 
Q 947 2381 947 1747 
z
" transform="scale(0.015625)"/>
      <path id="DejaVuSans-39" d="M 703 97 
L 703 672 
Q 941 559 1184 500 
Q 1428 441 1663 441 
Q 2288 441 2617 861 
Q 2947 1281 2994 2138 
Q 2813 1869 2534 1725 
Q 2256 1581 1919 1581 
Q 1219 1581 811 2004 
Q 403 2428 403 3163 
Q 403 3881 828 4315 
Q 1253 4750 1959 4750 
Q 2769 4750 3195 4129 
Q 3622 3509 3622 2328 
Q 3622 1225 3098 567 
Q 2575 -91 1691 -91 
Q 1453 -91 1209 -44 
Q 966 3 703 97 
z
M 1959 2075 
Q 2384 2075 2632 2365 
Q 2881 2656 2881 3163 
Q 2881 3666 2632 3958 
Q 2384 4250 1959 4250 
Q 1534 4250 1286 3958 
Q 1038 3666 1038 3163 
Q 1038 2656 1286 2365 
Q 1534 2075 1959 2075 
z
" transform="scale(0.015625)"/>
     </defs>
     <use xlink:href="#DejaVuSans-76"/>
     <use xlink:href="#DejaVuSans-32" x="59.179688"/>
     <use xlink:href="#DejaVuSans-2e" x="122.802734"/>
     <use xlink:href="#DejaVuSans-36" x="154.589844"/>
     <use xlink:href="#DejaVuSans-2e" x="218.212891"/>
     <use xlink:href="#DejaVuSans-31" x="250"/>
     <use xlink:href="#DejaVuSans-2e" x="313.623047"/>
     <use xlink:href="#DejaVuSans-31" x="345.410156"/>
     <use xlink:href="#DejaVuSans-35" x="409.033203"/>
     <use xlink:href="#DejaVuSans-32" x="472.65625"/>
     <use xlink:href="#DejaVuSans-2c" x="536.279297"/>
     <use xlink:href="#DejaVuSans-20" x="568.066406"/>
     <use xlink:href="#DejaVuSans-68" x="599.853516"/>
     <use xlink:href="#DejaVuSans-76" x="663.232422"/>
     <use xlink:href="#DejaVuSans-2d" x="719.787109"/>
     <use xlink:href="#DejaVuSans-68" x="755.871094"/>
     <use xlink:href="#DejaVuSans-61" x="819.25"/>
     <use xlink:href="#DejaVuSans-73" x="880.529297"/>
     <use xlink:href="#DejaVuSans-68" x="932.628906"/>
     <use xlink:href="#DejaVuSans-3d" x="996.007812"/>
     <use xlink:href="#DejaVuSans-66" x="1079.796875"/>
     <use xlink:href="#DejaVuSans-66" x="1115.001953"/>
     <use xlink:href="#DejaVuSans-30" x="1150.207031"/>
     <use xlink:href="#DejaVuSans-65" x="1213.830078"/>
     <use xlink:href="#DejaVuSans-37" x="1275.353516"/>
     <use xlink:href="#DejaVuSans-31" x="1338.976562"/>
     <use xlink:href="#DejaVuSans-65" x="1402.599609"/>
     <use xlink:href="#DejaVuSans-38" x="1464.123047"/>
     <use xlink:href="#DejaVuSans-63" x="1527.746094"/>
     <use xlink:href="#DejaVuSans-64" x="1582.726562"/>
     <use xlink:href="#DejaVuSans-39" x="1646.203125"/>
     <use xlink:href="#DejaVuSans-37" x="1709.826172"/>
     <use xlink:href="#DejaVuSans-38" x="1773.449219"/>
     <use xlink:href="#DejaVuSans-33" x="1837.072266"/>
     <use xlink:href="#DejaVuSans-37" x="1900.695312"/>
     <use xlink:href="#DejaVuSans-33" x="1964.318359"/>
    </g>
   </g>
   <g id="legend_1">
    <g id="patch_7">
     <path d="M 48.16 165.78125 
L 177.381875 165.78125 
Q 181.381875 165.78125 181.381875 161.78125 
L 181.381875 17 
Q 181.381875 13 177.381875 13 
L 48.16 13 
Q 44.16 13 44.16 17 
L 44.16 161.78125 
Q 44.16 165.78125 48.16 165.78125 
z
" style="fill: #ffffff; opacity: 0.2; stroke: #cccccc; stroke-linejoin: miter"/>
    </g>
    <g id="line2d_61">
     <path d="M 52.16 29.196875 
L 72.16 29.196875 
L 92.16 29.196875 
" style="fill: none; stroke: #000000; stroke-width: 3; stroke-linecap: square"/>
    </g>
    <g id="text_7">
     <!-- -1: 3/3 -->
     <g transform="translate(108.16 36.196875) scale(0.2 -0.2)">
      <defs>
       <path id="DejaVuSans-3a" d="M 750 794 
L 1409 794 
L 1409 0 
L 750 0 
L 750 794 
z
M 750 3309 
L 1409 3309 
L 1409 2516 
L 750 2516 
L 750 3309 
z
" transform="scale(0.015625)"/>
       <path id="DejaVuSans-2f" d="M 1625 4666 
L 2156 4666 
L 531 -594 
L 0 -594 
L 1625 4666 
z
" transform="scale(0.015625)"/>
      </defs>
      <use xlink:href="#DejaVuSans-2d"/>
      <use xlink:href="#DejaVuSans-31" x="36.083984"/>
      <use xlink:href="#DejaVuSans-3a" x="99.707031"/>
      <use xlink:href="#DejaVuSans-20" x="133.398438"/>
      <use xlink:href="#DejaVuSans-33" x="165.185547"/>
      <use xlink:href="#DejaVuSans-2f" x="228.808594"/>
      <use xlink:href="#DejaVuSans-33" x="262.5"/>
     </g>
    </g>
    <g id="line2d_62">
     <path d="M 52.16 58.553125 
L 72.16 58.553125 
L 92.16 58.553125 
" style="fill: none; stroke: #00bfbf; stroke-width: 3; stroke-linecap: square"/>
    </g>
    <g id="text_8">
     <!-- -2: 2/2 -->
     <g transform="translate(108.16 65.553125) scale(0.2 -0.2)">
      <use xlink:href="#DejaVuSans-2d"/>
      <use xlink:href="#DejaVuSans-32" x="36.083984"/>
      <use xlink:href="#DejaVuSans-3a" x="99.707031"/>
      <use xlink:href="#DejaVuSans-20" x="133.398438"/>
      <use xlink:href="#DejaVuSans-32" x="165.185547"/>
      <use xlink:href="#DejaVuSans-2f" x="228.808594"/>
      <use xlink:href="#DejaVuSans-32" x="262.5"/>
     </g>
    </g>
    <g id="line2d_63">
     <path d="M 52.16 87.909375 
L 72.16 87.909375 
L 92.16 87.909375 
" style="fill: none; stroke: #bf00bf; stroke-width: 3; stroke-linecap: square"/>
    </g>
    <g id="text_9">
     <!-- -3: 1/1 -->
     <g transform="translate(108.16 94.909375) scale(0.2 -0.2)">
      <use xlink:href="#DejaVuSans-2d"/>
      <use xlink:href="#DejaVuSans-33" x="36.083984"/>
      <use xlink:href="#DejaVuSans-3a" x="99.707031"/>
      <use xlink:href="#DejaVuSans-20" x="133.398438"/>
      <use xlink:href="#DejaVuSans-31" x="165.185547"/>
      <use xlink:href="#DejaVuSans-2f" x="228.808594"/>
      <use xlink:href="#DejaVuSans-31" x="262.5"/>
     </g>
    </g>
    <g id="line2d_64">
     <path d="M 52.16 117.265625 
L 72.16 117.265625 
L 92.16 117.265625 
" style="fill: none; stroke: #ff0000; stroke-width: 3; stroke-linecap: square"/>
    </g>
    <g id="text_10">
     <!-- -4: 1/0 -->
     <g transform="translate(108.16 124.265625) scale(0.2 -0.2)">
      <defs>
       <path id="DejaVuSans-34" d="M 2419 4116 
L 825 1625 
L 2419 1625 
L 2419 4116 
z
M 2253 4666 
L 3047 4666 
L 3047 1625 
L 3713 1625 
L 3713 1100 
L 3047 1100 
L 3047 0 
L 2419 0 
L 2419 1100 
L 313 1100 
L 313 1709 
L 2253 4666 
z
" transform="scale(0.015625)"/>
      </defs>
      <use xlink:href="#DejaVuSans-2d"/>
      <use xlink:href="#DejaVuSans-34" x="36.083984"/>
      <use xlink:href="#DejaVuSans-3a" x="99.707031"/>
      <use xlink:href="#DejaVuSans-20" x="133.398438"/>
      <use xlink:href="#DejaVuSans-31" x="165.185547"/>
      <use xlink:href="#DejaVuSans-2f" x="228.808594"/>
      <use xlink:href="#DejaVuSans-30" x="262.5"/>
     </g>
    </g>
    <g id="line2d_65">
     <path d="M 52.16 146.621875 
L 72.16 146.621875 
L 92.16 146.621875 
" style="fill: none; stroke: #0000ff; stroke-width: 3; stroke-linecap: square"/>
    </g>
    <g id="text_11">
     <!-- -5: 0/0 -->
     <g transform="translate(108.16 153.621875) scale(0.2 -0.2)">
      <use xlink:href="#DejaVuSans-2d"/>
      <use xlink:href="#DejaVuSans-35" x="36.083984"/>
      <use xlink:href="#DejaVuSans-3a" x="99.707031"/>
      <use xlink:href="#DejaVuSans-20" x="133.398438"/>
      <use xlink:href="#DejaVuSans-30" x="165.185547"/>
      <use xlink:href="#DejaVuSans-2f" x="228.808594"/>
      <use xlink:href="#DejaVuSans-30" x="262.5"/>
     </g>
    </g>
   </g>
  </g>
 </g>
 <defs>
  <clipPath id="p568d2dc954">
   <rect x="34.16" y="3" width="419.032" height="288.28"/>
  </clipPath>
 </defs>
</svg>
