<?xml version="1.0" encoding="utf-8" standalone="no"?>
<!DOCTYPE svg PUBLIC "-//W3C//DTD SVG 1.1//EN"
  "http://www.w3.org/Graphics/SVG/1.1/DTD/svg11.dtd">
<svg xmlns:xlink="http://www.w3.org/1999/xlink" width="460.8pt" height="345.6pt" viewBox="0 0 460.8 345.6" xmlns="http://www.w3.org/2000/svg" version="1.1">
 <metadata>
  <rdf:RDF xmlns:dc="http://purl.org/dc/elements/1.1/" xmlns:cc="http://creativecommons.org/ns#" xmlns:rdf="http://www.w3.org/1999/02/22-rdf-syntax-ns#">
   <cc:Work>
    <dc:type rdf:resource="http://purl.org/dc/dcmitype/StillImage"/>
    <dc:date>2023-03-13T19:42:24.151662</dc:date>
    <dc:format>image/svg+xml</dc:format>
    <dc:creator>
     <cc:Agent>
      <dc:title>Matplotlib v3.7.0, https://matplotlib.org/</dc:title>
     </cc:Agent>
    </dc:creator>
   </cc:Work>
  </rdf:RDF>
 </metadata>
 <defs>
  <style type="text/css">*{stroke-linejoin: round; stroke-linecap: butt}</style>
 </defs>
 <g id="figure_1">
  <g id="patch_1">
   <path d="M 0 345.6 
L 460.8 345.6 
L 460.8 0 
L 0 0 
z
" style="fill: #ffffff"/>
  </g>
  <g id="axes_1">
   <g id="patch_2">
    <path d="M 34.16 291.28 
L 453.192 291.28 
L 453.192 3 
L 34.16 3 
z
" style="fill: #ffffff"/>
   </g>
   <g id="matplotlib.axis_1">
    <g id="xtick_1">
     <g id="line2d_1">
      <path d="M 101.081645 291.28 
L 101.081645 3 
" clip-path="url(#p61584d3cc7)" style="fill: none; stroke: #b0b0b0; stroke-width: 0.8; stroke-linecap: square"/>
     </g>
     <g id="line2d_2">
      <defs>
       <path id="m51d014c90d" d="M 0 0 
L 0 3.5 
" style="stroke: #000000; stroke-width: 0.8"/>
      </defs>
      <g>
       <use xlink:href="#m51d014c90d" x="101.081645" y="291.28" style="stroke: #000000; stroke-width: 0.8"/>
      </g>
     </g>
     <g id="text_1">
      <!-- -1 -->
      <g transform="translate(91.111332 313.476875) scale(0.2 -0.2)">
       <defs>
        <path id="DejaVuSans-2d" d="M 313 2009 
L 1997 2009 
L 1997 1497 
L 313 1497 
L 313 2009 
z
" transform="scale(0.015625)"/>
        <path id="DejaVuSans-31" d="M 794 531 
L 1825 531 
L 1825 4091 
L 703 3866 
L 703 4441 
L 1819 4666 
L 2450 4666 
L 2450 531 
L 3481 531 
L 3481 0 
L 794 0 
L 794 531 
z
" transform="scale(0.015625)"/>
       </defs>
       <use xlink:href="#DejaVuSans-2d"/>
       <use xlink:href="#DejaVuSans-31" x="36.083984"/>
      </g>
     </g>
    </g>
    <g id="xtick_2">
     <g id="line2d_3">
      <path d="M 243.676 291.28 
L 243.676 3 
" clip-path="url(#p61584d3cc7)" style="fill: none; stroke: #b0b0b0; stroke-width: 0.8; stroke-linecap: square"/>
     </g>
     <g id="line2d_4">
      <g>
       <use xlink:href="#m51d014c90d" x="243.676" y="291.28" style="stroke: #000000; stroke-width: 0.8"/>
      </g>
     </g>
     <g id="text_2">
      <!-- 0 -->
      <g transform="translate(237.3135 313.476875) scale(0.2 -0.2)">
       <defs>
        <path id="DejaVuSans-30" d="M 2034 4250 
Q 1547 4250 1301 3770 
Q 1056 3291 1056 2328 
Q 1056 1369 1301 889 
Q 1547 409 2034 409 
Q 2525 409 2770 889 
Q 3016 1369 3016 2328 
Q 3016 3291 2770 3770 
Q 2525 4250 2034 4250 
z
M 2034 4750 
Q 2819 4750 3233 4129 
Q 3647 3509 3647 2328 
Q 3647 1150 3233 529 
Q 2819 -91 2034 -91 
Q 1250 -91 836 529 
Q 422 1150 422 2328 
Q 422 3509 836 4129 
Q 1250 4750 2034 4750 
z
" transform="scale(0.015625)"/>
       </defs>
       <use xlink:href="#DejaVuSans-30"/>
      </g>
     </g>
    </g>
    <g id="xtick_3">
     <g id="line2d_5">
      <path d="M 386.270355 291.28 
L 386.270355 3 
" clip-path="url(#p61584d3cc7)" style="fill: none; stroke: #b0b0b0; stroke-width: 0.8; stroke-linecap: square"/>
     </g>
     <g id="line2d_6">
      <g>
       <use xlink:href="#m51d014c90d" x="386.270355" y="291.28" style="stroke: #000000; stroke-width: 0.8"/>
      </g>
     </g>
     <g id="text_3">
      <!-- 1 -->
      <g transform="translate(379.907855 313.476875) scale(0.2 -0.2)">
       <use xlink:href="#DejaVuSans-31"/>
      </g>
     </g>
    </g>
    <g id="xtick_4">
     <g id="line2d_7">
      <defs>
       <path id="m86b333647e" d="M 0 0 
L 0 2 
" style="stroke: #000000; stroke-width: 0.6"/>
      </defs>
      <g>
       <use xlink:href="#m86b333647e" x="44.337646" y="291.28" style="stroke: #000000; stroke-width: 0.6"/>
      </g>
     </g>
    </g>
    <g id="xtick_5">
     <g id="line2d_8">
      <g>
       <use xlink:href="#m86b333647e" x="58.156467" y="291.28" style="stroke: #000000; stroke-width: 0.6"/>
      </g>
     </g>
    </g>
    <g id="xtick_6">
     <g id="line2d_9">
      <g>
       <use xlink:href="#m86b333647e" x="69.447265" y="291.28" style="stroke: #000000; stroke-width: 0.6"/>
      </g>
     </g>
    </g>
    <g id="xtick_7">
     <g id="line2d_10">
      <g>
       <use xlink:href="#m86b333647e" x="78.9935" y="291.28" style="stroke: #000000; stroke-width: 0.6"/>
      </g>
     </g>
    </g>
    <g id="xtick_8">
     <g id="line2d_11">
      <g>
       <use xlink:href="#m86b333647e" x="87.262824" y="291.28" style="stroke: #000000; stroke-width: 0.6"/>
      </g>
     </g>
    </g>
    <g id="xtick_9">
     <g id="line2d_12">
      <g>
       <use xlink:href="#m86b333647e" x="94.556885" y="291.28" style="stroke: #000000; stroke-width: 0.6"/>
      </g>
     </g>
    </g>
    <g id="xtick_10">
     <g id="line2d_13">
      <g>
       <use xlink:href="#m86b333647e" x="144.006823" y="291.28" style="stroke: #000000; stroke-width: 0.6"/>
      </g>
     </g>
    </g>
    <g id="xtick_11">
     <g id="line2d_14">
      <g>
       <use xlink:href="#m86b333647e" x="169.116442" y="291.28" style="stroke: #000000; stroke-width: 0.6"/>
      </g>
     </g>
    </g>
    <g id="xtick_12">
     <g id="line2d_15">
      <g>
       <use xlink:href="#m86b333647e" x="186.932001" y="291.28" style="stroke: #000000; stroke-width: 0.6"/>
      </g>
     </g>
    </g>
    <g id="xtick_13">
     <g id="line2d_16">
      <g>
       <use xlink:href="#m86b333647e" x="200.750822" y="291.28" style="stroke: #000000; stroke-width: 0.6"/>
      </g>
     </g>
    </g>
    <g id="xtick_14">
     <g id="line2d_17">
      <g>
       <use xlink:href="#m86b333647e" x="212.041621" y="291.28" style="stroke: #000000; stroke-width: 0.6"/>
      </g>
     </g>
    </g>
    <g id="xtick_15">
     <g id="line2d_18">
      <g>
       <use xlink:href="#m86b333647e" x="221.587855" y="291.28" style="stroke: #000000; stroke-width: 0.6"/>
      </g>
     </g>
    </g>
    <g id="xtick_16">
     <g id="line2d_19">
      <g>
       <use xlink:href="#m86b333647e" x="229.857179" y="291.28" style="stroke: #000000; stroke-width: 0.6"/>
      </g>
     </g>
    </g>
    <g id="xtick_17">
     <g id="line2d_20">
      <g>
       <use xlink:href="#m86b333647e" x="237.15124" y="291.28" style="stroke: #000000; stroke-width: 0.6"/>
      </g>
     </g>
    </g>
    <g id="xtick_18">
     <g id="line2d_21">
      <g>
       <use xlink:href="#m86b333647e" x="286.601178" y="291.28" style="stroke: #000000; stroke-width: 0.6"/>
      </g>
     </g>
    </g>
    <g id="xtick_19">
     <g id="line2d_22">
      <g>
       <use xlink:href="#m86b333647e" x="311.710798" y="291.28" style="stroke: #000000; stroke-width: 0.6"/>
      </g>
     </g>
    </g>
    <g id="xtick_20">
     <g id="line2d_23">
      <g>
       <use xlink:href="#m86b333647e" x="329.526356" y="291.28" style="stroke: #000000; stroke-width: 0.6"/>
      </g>
     </g>
    </g>
    <g id="xtick_21">
     <g id="line2d_24">
      <g>
       <use xlink:href="#m86b333647e" x="343.345177" y="291.28" style="stroke: #000000; stroke-width: 0.6"/>
      </g>
     </g>
    </g>
    <g id="xtick_22">
     <g id="line2d_25">
      <g>
       <use xlink:href="#m86b333647e" x="354.635976" y="291.28" style="stroke: #000000; stroke-width: 0.6"/>
      </g>
     </g>
    </g>
    <g id="xtick_23">
     <g id="line2d_26">
      <g>
       <use xlink:href="#m86b333647e" x="364.18221" y="291.28" style="stroke: #000000; stroke-width: 0.6"/>
      </g>
     </g>
    </g>
    <g id="xtick_24">
     <g id="line2d_27">
      <g>
       <use xlink:href="#m86b333647e" x="372.451534" y="291.28" style="stroke: #000000; stroke-width: 0.6"/>
      </g>
     </g>
    </g>
    <g id="xtick_25">
     <g id="line2d_28">
      <g>
       <use xlink:href="#m86b333647e" x="379.745595" y="291.28" style="stroke: #000000; stroke-width: 0.6"/>
      </g>
     </g>
    </g>
    <g id="xtick_26">
     <g id="line2d_29">
      <g>
       <use xlink:href="#m86b333647e" x="429.195533" y="291.28" style="stroke: #000000; stroke-width: 0.6"/>
      </g>
     </g>
    </g>
    <g id="text_4">
     <!-- log10 of FEvals ratio -->
     <g transform="translate(141.371312 336.833125) scale(0.2 -0.2)">
      <defs>
       <path id="DejaVuSans-6c" d="M 603 4863 
L 1178 4863 
L 1178 0 
L 603 0 
L 603 4863 
z
" transform="scale(0.015625)"/>
       <path id="DejaVuSans-6f" d="M 1959 3097 
Q 1497 3097 1228 2736 
Q 959 2375 959 1747 
Q 959 1119 1226 758 
Q 1494 397 1959 397 
Q 2419 397 2687 759 
Q 2956 1122 2956 1747 
Q 2956 2369 2687 2733 
Q 2419 3097 1959 3097 
z
M 1959 3584 
Q 2709 3584 3137 3096 
Q 3566 2609 3566 1747 
Q 3566 888 3137 398 
Q 2709 -91 1959 -91 
Q 1206 -91 779 398 
Q 353 888 353 1747 
Q 353 2609 779 3096 
Q 1206 3584 1959 3584 
z
" transform="scale(0.015625)"/>
       <path id="DejaVuSans-67" d="M 2906 1791 
Q 2906 2416 2648 2759 
Q 2391 3103 1925 3103 
Q 1463 3103 1205 2759 
Q 947 2416 947 1791 
Q 947 1169 1205 825 
Q 1463 481 1925 481 
Q 2391 481 2648 825 
Q 2906 1169 2906 1791 
z
M 3481 434 
Q 3481 -459 3084 -895 
Q 2688 -1331 1869 -1331 
Q 1566 -1331 1297 -1286 
Q 1028 -1241 775 -1147 
L 775 -588 
Q 1028 -725 1275 -790 
Q 1522 -856 1778 -856 
Q 2344 -856 2625 -561 
Q 2906 -266 2906 331 
L 2906 616 
Q 2728 306 2450 153 
Q 2172 0 1784 0 
Q 1141 0 747 490 
Q 353 981 353 1791 
Q 353 2603 747 3093 
Q 1141 3584 1784 3584 
Q 2172 3584 2450 3431 
Q 2728 3278 2906 2969 
L 2906 3500 
L 3481 3500 
L 3481 434 
z
" transform="scale(0.015625)"/>
       <path id="DejaVuSans-20" transform="scale(0.015625)"/>
       <path id="DejaVuSans-66" d="M 2375 4863 
L 2375 4384 
L 1825 4384 
Q 1516 4384 1395 4259 
Q 1275 4134 1275 3809 
L 1275 3500 
L 2222 3500 
L 2222 3053 
L 1275 3053 
L 1275 0 
L 697 0 
L 697 3053 
L 147 3053 
L 147 3500 
L 697 3500 
L 697 3744 
Q 697 4328 969 4595 
Q 1241 4863 1831 4863 
L 2375 4863 
z
" transform="scale(0.015625)"/>
       <path id="DejaVuSans-46" d="M 628 4666 
L 3309 4666 
L 3309 4134 
L 1259 4134 
L 1259 2759 
L 3109 2759 
L 3109 2228 
L 1259 2228 
L 1259 0 
L 628 0 
L 628 4666 
z
" transform="scale(0.015625)"/>
       <path id="DejaVuSans-45" d="M 628 4666 
L 3578 4666 
L 3578 4134 
L 1259 4134 
L 1259 2753 
L 3481 2753 
L 3481 2222 
L 1259 2222 
L 1259 531 
L 3634 531 
L 3634 0 
L 628 0 
L 628 4666 
z
" transform="scale(0.015625)"/>
       <path id="DejaVuSans-76" d="M 191 3500 
L 800 3500 
L 1894 563 
L 2988 3500 
L 3597 3500 
L 2284 0 
L 1503 0 
L 191 3500 
z
" transform="scale(0.015625)"/>
       <path id="DejaVuSans-61" d="M 2194 1759 
Q 1497 1759 1228 1600 
Q 959 1441 959 1056 
Q 959 750 1161 570 
Q 1363 391 1709 391 
Q 2188 391 2477 730 
Q 2766 1069 2766 1631 
L 2766 1759 
L 2194 1759 
z
M 3341 1997 
L 3341 0 
L 2766 0 
L 2766 531 
Q 2569 213 2275 61 
Q 1981 -91 1556 -91 
Q 1019 -91 701 211 
Q 384 513 384 1019 
Q 384 1609 779 1909 
Q 1175 2209 1959 2209 
L 2766 2209 
L 2766 2266 
Q 2766 2663 2505 2880 
Q 2244 3097 1772 3097 
Q 1472 3097 1187 3025 
Q 903 2953 641 2809 
L 641 3341 
Q 956 3463 1253 3523 
Q 1550 3584 1831 3584 
Q 2591 3584 2966 3190 
Q 3341 2797 3341 1997 
z
" transform="scale(0.015625)"/>
       <path id="DejaVuSans-73" d="M 2834 3397 
L 2834 2853 
Q 2591 2978 2328 3040 
Q 2066 3103 1784 3103 
Q 1356 3103 1142 2972 
Q 928 2841 928 2578 
Q 928 2378 1081 2264 
Q 1234 2150 1697 2047 
L 1894 2003 
Q 2506 1872 2764 1633 
Q 3022 1394 3022 966 
Q 3022 478 2636 193 
Q 2250 -91 1575 -91 
Q 1294 -91 989 -36 
Q 684 19 347 128 
L 347 722 
Q 666 556 975 473 
Q 1284 391 1588 391 
Q 1994 391 2212 530 
Q 2431 669 2431 922 
Q 2431 1156 2273 1281 
Q 2116 1406 1581 1522 
L 1381 1569 
Q 847 1681 609 1914 
Q 372 2147 372 2553 
Q 372 3047 722 3315 
Q 1072 3584 1716 3584 
Q 2034 3584 2315 3537 
Q 2597 3491 2834 3397 
z
" transform="scale(0.015625)"/>
       <path id="DejaVuSans-72" d="M 2631 2963 
Q 2534 3019 2420 3045 
Q 2306 3072 2169 3072 
Q 1681 3072 1420 2755 
Q 1159 2438 1159 1844 
L 1159 0 
L 581 0 
L 581 3500 
L 1159 3500 
L 1159 2956 
Q 1341 3275 1631 3429 
Q 1922 3584 2338 3584 
Q 2397 3584 2469 3576 
Q 2541 3569 2628 3553 
L 2631 2963 
z
" transform="scale(0.015625)"/>
       <path id="DejaVuSans-74" d="M 1172 4494 
L 1172 3500 
L 2356 3500 
L 2356 3053 
L 1172 3053 
L 1172 1153 
Q 1172 725 1289 603 
Q 1406 481 1766 481 
L 2356 481 
L 2356 0 
L 1766 0 
Q 1100 0 847 248 
Q 594 497 594 1153 
L 594 3053 
L 172 3053 
L 172 3500 
L 594 3500 
L 594 4494 
L 1172 4494 
z
" transform="scale(0.015625)"/>
       <path id="DejaVuSans-69" d="M 603 3500 
L 1178 3500 
L 1178 0 
L 603 0 
L 603 3500 
z
M 603 4863 
L 1178 4863 
L 1178 4134 
L 603 4134 
L 603 4863 
z
" transform="scale(0.015625)"/>
      </defs>
      <use xlink:href="#DejaVuSans-6c"/>
      <use xlink:href="#DejaVuSans-6f" x="27.783203"/>
      <use xlink:href="#DejaVuSans-67" x="88.964844"/>
      <use xlink:href="#DejaVuSans-31" x="152.441406"/>
      <use xlink:href="#DejaVuSans-30" x="216.064453"/>
      <use xlink:href="#DejaVuSans-20" x="279.6875"/>
      <use xlink:href="#DejaVuSans-6f" x="311.474609"/>
      <use xlink:href="#DejaVuSans-66" x="372.65625"/>
      <use xlink:href="#DejaVuSans-20" x="407.861328"/>
      <use xlink:href="#DejaVuSans-46" x="439.648438"/>
      <use xlink:href="#DejaVuSans-45" x="497.167969"/>
      <use xlink:href="#DejaVuSans-76" x="560.351562"/>
      <use xlink:href="#DejaVuSans-61" x="619.53125"/>
      <use xlink:href="#DejaVuSans-6c" x="680.810547"/>
      <use xlink:href="#DejaVuSans-73" x="708.59375"/>
      <use xlink:href="#DejaVuSans-20" x="760.693359"/>
      <use xlink:href="#DejaVuSans-72" x="792.480469"/>
      <use xlink:href="#DejaVuSans-61" x="833.59375"/>
      <use xlink:href="#DejaVuSans-74" x="894.873047"/>
      <use xlink:href="#DejaVuSans-69" x="934.082031"/>
      <use xlink:href="#DejaVuSans-6f" x="961.865234"/>
     </g>
    </g>
   </g>
   <g id="matplotlib.axis_2">
    <g id="ytick_1">
     <g id="line2d_30">
      <path d="M 34.16 288.453725 
L 453.192 288.453725 
" clip-path="url(#p61584d3cc7)" style="fill: none; stroke: #b0b0b0; stroke-width: 0.8; stroke-linecap: square"/>
     </g>
     <g id="line2d_31">
      <defs>
       <path id="m94da5fc5d0" d="M 0 0 
L -3.5 0 
" style="stroke: #000000; stroke-width: 0.8"/>
      </defs>
      <g>
       <use xlink:href="#m94da5fc5d0" x="34.16" y="288.453725" style="stroke: #000000; stroke-width: 0.8"/>
      </g>
     </g>
    </g>
    <g id="ytick_2">
     <g id="line2d_32">
      <path d="M 34.16 217.796863 
L 453.192 217.796863 
" clip-path="url(#p61584d3cc7)" style="fill: none; stroke: #b0b0b0; stroke-width: 0.8; stroke-linecap: square"/>
     </g>
     <g id="line2d_33">
      <g>
       <use xlink:href="#m94da5fc5d0" x="34.16" y="217.796863" style="stroke: #000000; stroke-width: 0.8"/>
      </g>
     </g>
    </g>
    <g id="ytick_3">
     <g id="line2d_34">
      <path d="M 34.16 147.14 
L 453.192 147.14 
" clip-path="url(#p61584d3cc7)" style="fill: none; stroke: #b0b0b0; stroke-width: 0.8; stroke-linecap: square"/>
     </g>
     <g id="line2d_35">
      <g>
       <use xlink:href="#m94da5fc5d0" x="34.16" y="147.14" style="stroke: #000000; stroke-width: 0.8"/>
      </g>
     </g>
    </g>
    <g id="ytick_4">
     <g id="line2d_36">
      <path d="M 34.16 76.483137 
L 453.192 76.483137 
" clip-path="url(#p61584d3cc7)" style="fill: none; stroke: #b0b0b0; stroke-width: 0.8; stroke-linecap: square"/>
     </g>
     <g id="line2d_37">
      <g>
       <use xlink:href="#m94da5fc5d0" x="34.16" y="76.483137" style="stroke: #000000; stroke-width: 0.8"/>
      </g>
     </g>
    </g>
    <g id="ytick_5">
     <g id="line2d_38">
      <path d="M 34.16 5.826275 
L 453.192 5.826275 
" clip-path="url(#p61584d3cc7)" style="fill: none; stroke: #b0b0b0; stroke-width: 0.8; stroke-linecap: square"/>
     </g>
     <g id="line2d_39">
      <g>
       <use xlink:href="#m94da5fc5d0" x="34.16" y="5.826275" style="stroke: #000000; stroke-width: 0.8"/>
      </g>
     </g>
    </g>
    <g id="text_5">
     <!-- proportion of trials -->
     <g transform="translate(19.000625 240.14625) rotate(-90) scale(0.2 -0.2)">
      <defs>
       <path id="DejaVuSans-70" d="M 1159 525 
L 1159 -1331 
L 581 -1331 
L 581 3500 
L 1159 3500 
L 1159 2969 
Q 1341 3281 1617 3432 
Q 1894 3584 2278 3584 
Q 2916 3584 3314 3078 
Q 3713 2572 3713 1747 
Q 3713 922 3314 415 
Q 2916 -91 2278 -91 
Q 1894 -91 1617 61 
Q 1341 213 1159 525 
z
M 3116 1747 
Q 3116 2381 2855 2742 
Q 2594 3103 2138 3103 
Q 1681 3103 1420 2742 
Q 1159 2381 1159 1747 
Q 1159 1113 1420 752 
Q 1681 391 2138 391 
Q 2594 391 2855 752 
Q 3116 1113 3116 1747 
z
" transform="scale(0.015625)"/>
       <path id="DejaVuSans-6e" d="M 3513 2113 
L 3513 0 
L 2938 0 
L 2938 2094 
Q 2938 2591 2744 2837 
Q 2550 3084 2163 3084 
Q 1697 3084 1428 2787 
Q 1159 2491 1159 1978 
L 1159 0 
L 581 0 
L 581 3500 
L 1159 3500 
L 1159 2956 
Q 1366 3272 1645 3428 
Q 1925 3584 2291 3584 
Q 2894 3584 3203 3211 
Q 3513 2838 3513 2113 
z
" transform="scale(0.015625)"/>
      </defs>
      <use xlink:href="#DejaVuSans-70"/>
      <use xlink:href="#DejaVuSans-72" x="63.476562"/>
      <use xlink:href="#DejaVuSans-6f" x="102.339844"/>
      <use xlink:href="#DejaVuSans-70" x="163.521484"/>
      <use xlink:href="#DejaVuSans-6f" x="226.998047"/>
      <use xlink:href="#DejaVuSans-72" x="288.179688"/>
      <use xlink:href="#DejaVuSans-74" x="329.292969"/>
      <use xlink:href="#DejaVuSans-69" x="368.501953"/>
      <use xlink:href="#DejaVuSans-6f" x="396.285156"/>
      <use xlink:href="#DejaVuSans-6e" x="457.466797"/>
      <use xlink:href="#DejaVuSans-20" x="520.845703"/>
      <use xlink:href="#DejaVuSans-6f" x="552.632812"/>
      <use xlink:href="#DejaVuSans-66" x="613.814453"/>
      <use xlink:href="#DejaVuSans-20" x="649.019531"/>
      <use xlink:href="#DejaVuSans-74" x="680.806641"/>
      <use xlink:href="#DejaVuSans-72" x="720.015625"/>
      <use xlink:href="#DejaVuSans-69" x="761.128906"/>
      <use xlink:href="#DejaVuSans-61" x="788.912109"/>
      <use xlink:href="#DejaVuSans-6c" x="850.191406"/>
      <use xlink:href="#DejaVuSans-73" x="877.974609"/>
     </g>
    </g>
   </g>
   <g id="line2d_40">
    <path d="M 34.16 275.671579 
L 52.030046 275.671579 
L 52.030046 274.96146 
L 58.654467 274.96146 
L 58.654467 274.251341 
L 87.596957 274.251341 
L 87.596957 273.541222 
L 91.48106 273.541222 
L 91.48106 272.831103 
L 101.237542 272.831103 
L 101.237542 272.120983 
L 104.363006 272.120983 
L 104.363006 271.410864 
L 104.582721 271.410864 
L 104.582721 270.700745 
L 110.393534 270.700745 
L 110.393534 269.990626 
L 111.229976 269.990626 
L 111.229976 269.280506 
L 112.838358 269.280506 
L 112.838358 268.570387 
L 116.183537 268.570387 
L 116.188011 267.150149 
L 119.53319 267.150149 
L 119.53319 266.44003 
L 123.593499 266.44003 
L 123.593499 265.72991 
L 128.716536 265.72991 
L 128.716536 265.019791 
L 130.766677 265.019791 
L 130.766677 264.309672 
L 135.340958 264.309672 
L 135.340958 263.599553 
L 141.383925 263.599553 
L 141.383925 262.889433 
L 142.555094 262.889433 
L 142.555094 262.179314 
L 144.729104 262.179314 
L 144.729104 261.469195 
L 145.900273 261.469195 
L 145.900273 260.759076 
L 146.378362 260.759076 
L 146.378362 260.048957 
L 149.723542 260.048957 
L 149.723542 259.338837 
L 151.748223 259.338837 
L 151.748223 258.628718 
L 156.241677 258.628718 
L 156.241677 257.918599 
L 157.501427 257.918599 
L 157.501427 257.20848 
L 158.836599 257.20848 
L 158.926268 255.788241 
L 164.283448 255.788241 
L 164.283448 255.078122 
L 167.842492 255.078122 
L 167.842492 254.368003 
L 168.167551 254.368003 
L 168.167551 253.657884 
L 168.3847 253.657884 
L 168.3847 252.947764 
L 171.192145 252.947764 
L 171.192145 252.237645 
L 175.099423 252.237645 
L 175.099423 251.527526 
L 175.421209 251.527526 
L 175.421209 250.817407 
L 180.852628 250.817407 
L 180.852628 250.107287 
L 181.049497 250.107287 
L 181.049497 249.397168 
L 181.469187 249.397168 
L 181.469187 248.687049 
L 181.760858 248.687049 
L 181.760858 247.97693 
L 182.187799 247.97693 
L 182.277469 246.556691 
L 184.814366 246.556691 
L 184.814366 245.846572 
L 185.228094 245.846572 
L 185.228094 245.136453 
L 187.080025 245.136453 
L 187.080025 244.426334 
L 187.916467 244.426334 
L 187.916467 243.716214 
L 188.647148 243.716214 
L 188.647148 243.006095 
L 188.841299 243.006095 
L 188.841299 242.295976 
L 189.648548 242.295976 
L 189.648548 241.585857 
L 190.981298 241.585857 
L 190.981298 240.875738 
L 191.735901 240.875738 
L 191.735901 240.165618 
L 192.119372 240.165618 
L 192.186478 238.74538 
L 192.31647 238.74538 
L 192.406139 237.325141 
L 193.303111 237.325141 
L 193.361674 235.904903 
L 194.30163 235.904903 
L 194.30163 235.194784 
L 196.27297 235.194784 
L 196.27297 234.484664 
L 196.38806 234.484664 
L 196.38806 233.774545 
L 196.711327 233.774545 
L 196.711327 233.064426 
L 197.559228 233.064426 
L 197.559228 232.354307 
L 198.495277 232.354307 
L 198.495277 231.644188 
L 198.77241 231.644188 
L 198.77241 230.934068 
L 200.247963 230.934068 
L 200.27999 229.51383 
L 201.382497 229.51383 
L 201.382497 228.803711 
L 201.864571 228.803711 
L 201.864571 228.093591 
L 202.054616 228.093591 
L 202.054616 227.383472 
L 203.201785 227.383472 
L 203.201785 226.673353 
L 203.597616 226.673353 
L 203.597616 225.963234 
L 204.385525 225.963234 
L 204.385525 225.253115 
L 204.568382 225.253115 
L 204.568382 224.542995 
L 205.384044 224.542995 
L 205.384044 223.832876 
L 206.042071 223.832876 
L 206.042071 223.122757 
L 207.453167 223.122757 
L 207.453167 222.412638 
L 208.351015 222.412638 
L 208.351015 221.702518 
L 208.90108 221.702518 
L 208.90108 220.992399 
L 209.577691 220.992399 
L 209.577691 220.28228 
L 209.885282 220.28228 
L 209.885282 219.572161 
L 210.791096 219.572161 
L 210.791096 218.862042 
L 211.086804 218.862042 
L 211.086804 218.151922 
L 213.13703 218.151922 
L 213.13703 217.441803 
L 214.10422 217.441803 
L 214.136275 216.021565 
L 215.00064 216.021565 
L 215.00064 215.311445 
L 215.439391 215.311445 
L 215.52906 213.891207 
L 215.815417 213.891207 
L 215.815417 213.181088 
L 216.169198 213.181088 
L 216.18438 211.760849 
L 216.509703 211.760849 
L 216.509703 211.05073 
L 216.781232 211.05073 
L 216.781232 210.340611 
L 217.124484 210.340611 
L 217.182899 208.920372 
L 217.711226 208.920372 
L 217.711226 208.210253 
L 219.518851 208.210253 
L 219.518851 207.500134 
L 221.376546 207.500134 
L 221.376546 206.790015 
L 221.907241 206.790015 
L 221.907241 206.079896 
L 222.439838 206.079896 
L 222.439838 205.369776 
L 223.07841 205.369776 
L 223.07841 204.659657 
L 223.681418 204.659657 
L 223.681418 203.949538 
L 224.935885 203.949538 
L 224.987492 202.529299 
L 225.21546 202.529299 
L 225.21546 201.81918 
L 225.965397 201.81918 
L 225.965397 201.109061 
L 226.901679 201.109061 
L 226.901679 200.398942 
L 227.863646 200.398942 
L 227.863646 199.688823 
L 228.793531 199.688823 
L 228.793531 198.978703 
L 228.923339 198.978703 
L 228.923339 198.268584 
L 229.099563 198.268584 
L 229.099563 197.558465 
L 229.770236 197.558465 
L 229.770236 196.848346 
L 229.964699 196.848346 
L 229.964699 196.138226 
L 230.432845 196.138226 
L 230.432845 195.428107 
L 232.024002 195.428107 
L 232.024002 194.717988 
L 233.787968 194.717988 
L 233.787968 194.007869 
L 235.282233 194.007869 
L 235.282233 193.29775 
L 235.712243 193.29775 
L 235.712243 192.58763 
L 236.473322 192.58763 
L 236.473322 191.877511 
L 236.895982 191.877511 
L 236.895982 191.167392 
L 237.566212 191.167392 
L 237.566212 190.457273 
L 237.894501 190.457273 
L 237.894501 189.747153 
L 238.631886 189.747153 
L 238.631886 189.037034 
L 239.53782 189.037034 
L 239.53782 188.326915 
L 239.662501 188.326915 
L 239.662501 187.616796 
L 240.915865 187.616796 
L 240.938527 186.196557 
L 241.371051 186.196557 
L 241.371051 185.486438 
L 241.981508 185.486438 
L 242.088148 184.0662 
L 243.845434 184.0662 
L 243.845434 183.35608 
L 244.714765 183.35608 
L 244.720704 181.935842 
L 245.419305 181.935842 
L 245.452194 180.515604 
L 245.647487 180.515604 
L 245.703673 179.095365 
L 245.885933 179.095365 
L 245.885933 178.385246 
L 246.653716 178.385246 
L 246.653716 177.675127 
L 247.583139 177.675127 
L 247.599649 176.254888 
L 248.012036 176.254888 
L 248.012036 175.544769 
L 248.766878 175.544769 
L 248.848478 174.12453 
L 249.336297 174.12453 
L 249.336297 173.414411 
L 249.546904 173.414411 
L 249.634942 171.994173 
L 249.709202 171.994173 
L 249.765397 170.573934 
L 250.537819 170.573934 
L 250.620234 169.153696 
L 251.360534 169.153696 
L 251.460399 167.023338 
L 252.247405 167.023338 
L 252.328094 165.6031 
L 252.714206 165.6031 
L 252.714206 164.892981 
L 253.13441 164.892981 
L 253.13441 164.182861 
L 253.352853 164.182861 
L 253.431145 162.762623 
L 253.689247 162.762623 
L 253.784046 160.632265 
L 253.959044 160.632265 
L 253.959044 159.922146 
L 254.429664 159.922146 
L 254.429664 159.212027 
L 254.688025 159.212027 
L 254.777694 157.791788 
L 254.805579 157.791788 
L 254.805579 157.081669 
L 254.961373 157.081669 
L 254.961373 156.37155 
L 255.266431 156.37155 
L 255.266431 155.661431 
L 255.959892 155.661431 
L 255.959892 154.951311 
L 256.110116 154.951311 
L 256.110116 154.241192 
L 257.518383 154.241192 
L 257.518383 153.531073 
L 258.623311 153.531073 
L 258.623311 152.820954 
L 258.887615 152.820954 
L 258.887615 152.110835 
L 259.338628 152.110835 
L 259.442452 150.690596 
L 260.153539 150.690596 
L 260.222786 149.270358 
L 260.312455 149.270358 
L 260.374104 147.850119 
L 260.629317 147.850119 
L 260.629317 147.14 
L 260.777623 147.14 
L 260.867292 145.719762 
L 261.042837 145.719762 
L 261.042837 145.009642 
L 261.212001 145.009642 
L 261.212001 144.299523 
L 261.505838 144.299523 
L 261.505838 143.589404 
L 261.992503 143.589404 
L 261.992503 142.879285 
L 262.18265 142.879285 
L 262.226576 140.748927 
L 262.419089 140.748927 
L 262.419089 140.038808 
L 262.547784 140.038808 
L 262.547784 139.328689 
L 262.96135 139.328689 
L 262.96135 138.618569 
L 263.225095 138.618569 
L 263.225095 137.90845 
L 263.419764 137.90845 
L 263.419764 137.198331 
L 263.712878 137.198331 
L 263.731524 135.778092 
L 263.827801 135.778092 
L 263.912716 134.357854 
L 264.236126 134.357854 
L 264.289728 132.937616 
L 264.730043 132.937616 
L 264.730043 132.227496 
L 264.998969 132.227496 
L 264.998969 131.517377 
L 265.290852 131.517377 
L 265.290852 130.807258 
L 265.795231 130.807258 
L 265.838021 129.387019 
L 266.11178 129.387019 
L 266.170104 127.966781 
L 266.311003 127.966781 
L 266.311003 127.256662 
L 267.19253 127.256662 
L 267.282948 125.836423 
L 267.418742 125.836423 
L 267.418742 125.126304 
L 267.700333 125.126304 
L 267.700333 124.416185 
L 268.148377 124.416185 
L 268.24877 122.995946 
L 268.385179 122.995946 
L 268.385179 122.285827 
L 268.770506 122.285827 
L 268.878793 120.15547 
L 268.92369 120.15547 
L 268.92369 119.44535 
L 269.058751 119.44535 
L 269.085212 118.025112 
L 269.364615 118.025112 
L 269.450292 116.604873 
L 269.770887 116.604873 
L 269.770887 115.894754 
L 269.916619 115.894754 
L 269.916619 115.184635 
L 270.24249 115.184635 
L 270.325724 113.054277 
L 270.978081 113.054277 
L 271.087787 110.92392 
L 271.106217 110.92392 
L 271.106217 110.2138 
L 271.24101 110.2138 
L 271.272636 108.793562 
L 271.591226 108.793562 
L 271.591226 108.083443 
L 272.245 108.083443 
L 272.245 107.373323 
L 272.379228 107.373323 
L 272.483029 104.532847 
L 272.926397 104.532847 
L 273.016066 103.112608 
L 274.178905 103.112608 
L 274.178905 102.402489 
L 274.418398 102.402489 
L 274.418398 101.69237 
L 274.911056 101.69237 
L 275.015347 99.562012 
L 275.434657 99.562012 
L 275.434657 98.851893 
L 276.250905 98.851893 
L 276.250905 98.141774 
L 276.470484 98.141774 
L 276.470484 97.431654 
L 276.807397 97.431654 
L 276.909266 96.011416 
L 277.362234 96.011416 
L 277.362234 95.301297 
L 278.439495 95.301297 
L 278.439495 94.591177 
L 278.899176 94.591177 
L 278.993996 92.46082 
L 279.327716 92.46082 
L 279.327716 91.750701 
L 281.270584 91.750701 
L 281.270584 91.040581 
L 281.448735 91.040581 
L 281.448735 90.330462 
L 281.851466 90.330462 
L 281.927329 88.910224 
L 282.474498 88.910224 
L 282.474498 88.200104 
L 282.650257 88.200104 
L 282.650257 87.489985 
L 282.98145 87.489985 
L 282.98145 86.779866 
L 283.130692 86.779866 
L 283.130692 86.069747 
L 284.800027 86.069747 
L 284.800027 85.359628 
L 285.080921 85.359628 
L 285.154687 83.939389 
L 285.704697 83.939389 
L 285.704697 83.22927 
L 286.416092 83.22927 
L 286.505762 81.809031 
L 287.035638 81.809031 
L 287.035638 81.098912 
L 287.209645 81.098912 
L 287.209645 80.388793 
L 287.37887 80.388793 
L 287.37887 79.678674 
L 288.281118 79.678674 
L 288.281118 78.968555 
L 288.621913 78.968555 
L 288.621913 78.258435 
L 288.963838 78.258435 
L 288.963838 77.548316 
L 289.511008 77.548316 
L 289.511008 76.838197 
L 289.823435 76.838197 
L 289.823435 76.128078 
L 291.314412 76.128078 
L 291.314412 75.417958 
L 291.506917 75.417958 
L 291.506917 74.707839 
L 292.165221 74.707839 
L 292.172139 73.287601 
L 292.678085 73.287601 
L 292.678085 72.577482 
L 293.139775 72.577482 
L 293.139775 71.867362 
L 293.720612 71.867362 
L 293.720612 71.157243 
L 294.552048 71.157243 
L 294.552048 70.447124 
L 295.001588 70.447124 
L 295.001588 69.737005 
L 295.964194 69.737005 
L 295.964194 69.026885 
L 296.501354 69.026885 
L 296.501354 68.316766 
L 297.541319 68.316766 
L 297.541319 67.606647 
L 298.036633 67.606647 
L 298.036633 66.896528 
L 298.200702 66.896528 
L 298.200702 66.186409 
L 299.665854 66.186409 
L 299.702988 64.76617 
L 301.196083 64.76617 
L 301.196083 64.056051 
L 302.022097 64.056051 
L 302.022097 63.345932 
L 303.000703 63.345932 
L 303.000703 62.635812 
L 303.913063 62.635812 
L 303.913063 61.925693 
L 304.067161 61.925693 
L 304.067161 61.215574 
L 304.903603 61.215574 
L 305.010671 59.795336 
L 305.047167 59.795336 
L 305.047167 59.085216 
L 305.202667 59.085216 
L 305.202667 58.375097 
L 306.197042 58.375097 
L 306.197042 57.664978 
L 306.464534 57.664978 
L 306.464534 56.954859 
L 308.461285 56.954859 
L 308.461285 56.244739 
L 309.674938 56.244739 
L 309.674938 55.53462 
L 309.966233 55.53462 
L 310.001881 54.114382 
L 311.077695 54.114382 
L 311.077695 53.404262 
L 311.205166 53.404262 
L 311.285174 51.984024 
L 311.573884 51.984024 
L 311.573884 51.273905 
L 311.914137 51.273905 
L 311.914137 50.563786 
L 313.569153 50.563786 
L 313.569153 49.853666 
L 314.121936 49.853666 
L 314.121936 49.143547 
L 315.331337 49.143547 
L 315.331337 48.433428 
L 316.23815 48.433428 
L 316.23815 47.723309 
L 316.4772 47.723309 
L 316.4772 47.013189 
L 317.267126 47.013189 
L 317.373993 45.592951 
L 317.768379 45.592951 
L 317.768379 44.882832 
L 318.470369 44.882832 
L 318.470369 44.172713 
L 319.975317 44.172713 
L 319.975317 43.462593 
L 324.27766 43.462593 
L 324.27766 42.752474 
L 324.440304 42.752474 
L 324.440304 42.042355 
L 325.033581 42.042355 
L 325.033581 41.332236 
L 326.284271 41.332236 
L 326.284271 40.622116 
L 326.486283 40.622116 
L 326.538529 39.201878 
L 331.450837 39.201878 
L 331.450837 38.491759 
L 331.592179 38.491759 
L 331.592179 37.78164 
L 331.819033 37.78164 
L 331.819033 37.07152 
L 331.983716 37.07152 
L 331.983716 36.361401 
L 332.37387 36.361401 
L 332.37387 35.651282 
L 333.049496 35.651282 
L 333.049496 34.941163 
L 333.234972 34.941163 
L 333.234972 34.231043 
L 335.518951 34.231043 
L 335.518951 33.520924 
L 336.789953 33.520924 
L 336.789953 32.810805 
L 338.454258 32.810805 
L 338.454258 32.100686 
L 338.870005 32.100686 
L 338.964291 30.680447 
L 339.32379 30.680447 
L 339.32379 29.970328 
L 341.270731 29.970328 
L 341.270731 29.260209 
L 342.324714 29.260209 
L 342.324714 28.55009 
L 342.879551 28.55009 
L 342.879551 27.83997 
L 343.975474 27.83997 
L 343.975474 27.129851 
L 344.522644 27.129851 
L 344.522644 26.419732 
L 346.805492 26.419732 
L 346.805492 25.709613 
L 347.36033 25.709613 
L 347.36033 24.999494 
L 354.481156 24.999494 
L 354.481156 24.289374 
L 354.791239 24.289374 
L 354.791239 23.579255 
L 355.028325 23.579255 
L 355.028325 22.869136 
L 358.012339 22.869136 
L 358.012339 22.159017 
L 358.961934 22.159017 
L 358.961934 21.448897 
L 359.509103 21.448897 
L 359.509103 20.738778 
L 360.914088 20.738778 
L 360.914088 20.028659 
L 368.518021 20.028659 
L 368.518021 19.31854 
L 372.998799 19.31854 
L 372.998799 18.608421 
L 373.904275 18.608421 
L 373.904275 17.898301 
L 376.188254 17.898301 
L 376.188254 17.188182 
L 377.702892 17.188182 
L 377.702892 16.478063 
L 379.993093 16.478063 
L 379.993093 15.767944 
L 383.237653 15.767944 
L 383.237653 15.057824 
L 383.792491 15.057824 
L 383.792491 14.347705 
L 395.394095 14.347705 
L 395.394095 13.637586 
L 395.941265 13.637586 
L 395.941265 12.927467 
L 401.583391 12.927467 
L 401.583391 12.217348 
L 409.43096 12.217348 
L 409.43096 11.507228 
L 453.192 11.507228 
L 453.192 11.507228 
" clip-path="url(#p61584d3cc7)" style="fill: none; stroke: #000000; stroke-width: 3; stroke-linecap: square"/>
   </g>
   <g id="line2d_41">
    <path clip-path="url(#p61584d3cc7)" style="fill: none; stroke: #000000; stroke-width: 3; stroke-linecap: square"/>
   </g>
   <g id="line2d_42">
    <path d="M 48.381073 5.826275 
L 34.16 5.826275 
L 453.192 5.826275 
L 461.8 5.826275 
" clip-path="url(#p61584d3cc7)" style="fill: none; stroke: #00bfbf; stroke-width: 3; stroke-linecap: square"/>
   </g>
   <g id="line2d_43"/>
   <g id="line2d_44"/>
   <g id="line2d_45"/>
   <g id="line2d_46">
    <path d="M 243.676 291.28 
L 243.676 3 
" clip-path="url(#p61584d3cc7)" style="fill: none; stroke: #000000; stroke-width: 1.5; stroke-linecap: square"/>
   </g>
   <g id="line2d_47">
    <path d="M 34.16 147.14 
L 453.192 147.14 
" clip-path="url(#p61584d3cc7)" style="fill: none; stroke-dasharray: 2,3.3; stroke-dashoffset: 0; stroke: #000000; stroke-width: 2"/>
   </g>
   <g id="patch_3">
    <path d="M 34.16 291.28 
L 34.16 3 
" style="fill: none; stroke: #000000; stroke-width: 0.8; stroke-linejoin: miter; stroke-linecap: square"/>
   </g>
   <g id="patch_4">
    <path d="M 453.192 291.28 
L 453.192 3 
" style="fill: none; stroke: #000000; stroke-width: 0.8; stroke-linejoin: miter; stroke-linecap: square"/>
   </g>
   <g id="patch_5">
    <path d="M 34.16 291.28 
L 453.192 291.28 
" style="fill: none; stroke: #000000; stroke-width: 0.8; stroke-linejoin: miter; stroke-linecap: square"/>
   </g>
   <g id="patch_6">
    <path d="M 34.16 3 
L 453.192 3 
" style="fill: none; stroke: #000000; stroke-width: 0.8; stroke-linejoin: miter; stroke-linecap: square"/>
   </g>
   <g id="text_6">
    <!-- f7, f8, f16, f17,20-D -->
    <g transform="translate(247.739485 285.5144) scale(0.2 -0.2)">
     <defs>
      <path id="DejaVuSans-37" d="M 525 4666 
L 3525 4666 
L 3525 4397 
L 1831 0 
L 1172 0 
L 2766 4134 
L 525 4134 
L 525 4666 
z
" transform="scale(0.015625)"/>
      <path id="DejaVuSans-2c" d="M 750 794 
L 1409 794 
L 1409 256 
L 897 -744 
L 494 -744 
L 750 256 
L 750 794 
z
" transform="scale(0.015625)"/>
      <path id="DejaVuSans-38" d="M 2034 2216 
Q 1584 2216 1326 1975 
Q 1069 1734 1069 1313 
Q 1069 891 1326 650 
Q 1584 409 2034 409 
Q 2484 409 2743 651 
Q 3003 894 3003 1313 
Q 3003 1734 2745 1975 
Q 2488 2216 2034 2216 
z
M 1403 2484 
Q 997 2584 770 2862 
Q 544 3141 544 3541 
Q 544 4100 942 4425 
Q 1341 4750 2034 4750 
Q 2731 4750 3128 4425 
Q 3525 4100 3525 3541 
Q 3525 3141 3298 2862 
Q 3072 2584 2669 2484 
Q 3125 2378 3379 2068 
Q 3634 1759 3634 1313 
Q 3634 634 3220 271 
Q 2806 -91 2034 -91 
Q 1263 -91 848 271 
Q 434 634 434 1313 
Q 434 1759 690 2068 
Q 947 2378 1403 2484 
z
M 1172 3481 
Q 1172 3119 1398 2916 
Q 1625 2713 2034 2713 
Q 2441 2713 2670 2916 
Q 2900 3119 2900 3481 
Q 2900 3844 2670 4047 
Q 2441 4250 2034 4250 
Q 1625 4250 1398 4047 
Q 1172 3844 1172 3481 
z
" transform="scale(0.015625)"/>
      <path id="DejaVuSans-36" d="M 2113 2584 
Q 1688 2584 1439 2293 
Q 1191 2003 1191 1497 
Q 1191 994 1439 701 
Q 1688 409 2113 409 
Q 2538 409 2786 701 
Q 3034 994 3034 1497 
Q 3034 2003 2786 2293 
Q 2538 2584 2113 2584 
z
M 3366 4563 
L 3366 3988 
Q 3128 4100 2886 4159 
Q 2644 4219 2406 4219 
Q 1781 4219 1451 3797 
Q 1122 3375 1075 2522 
Q 1259 2794 1537 2939 
Q 1816 3084 2150 3084 
Q 2853 3084 3261 2657 
Q 3669 2231 3669 1497 
Q 3669 778 3244 343 
Q 2819 -91 2113 -91 
Q 1303 -91 875 529 
Q 447 1150 447 2328 
Q 447 3434 972 4092 
Q 1497 4750 2381 4750 
Q 2619 4750 2861 4703 
Q 3103 4656 3366 4563 
z
" transform="scale(0.015625)"/>
      <path id="DejaVuSans-32" d="M 1228 531 
L 3431 531 
L 3431 0 
L 469 0 
L 469 531 
Q 828 903 1448 1529 
Q 2069 2156 2228 2338 
Q 2531 2678 2651 2914 
Q 2772 3150 2772 3378 
Q 2772 3750 2511 3984 
Q 2250 4219 1831 4219 
Q 1534 4219 1204 4116 
Q 875 4013 500 3803 
L 500 4441 
Q 881 4594 1212 4672 
Q 1544 4750 1819 4750 
Q 2544 4750 2975 4387 
Q 3406 4025 3406 3419 
Q 3406 3131 3298 2873 
Q 3191 2616 2906 2266 
Q 2828 2175 2409 1742 
Q 1991 1309 1228 531 
z
" transform="scale(0.015625)"/>
      <path id="DejaVuSans-44" d="M 1259 4147 
L 1259 519 
L 2022 519 
Q 2988 519 3436 956 
Q 3884 1394 3884 2338 
Q 3884 3275 3436 3711 
Q 2988 4147 2022 4147 
L 1259 4147 
z
M 628 4666 
L 1925 4666 
Q 3281 4666 3915 4102 
Q 4550 3538 4550 2338 
Q 4550 1131 3912 565 
Q 3275 0 1925 0 
L 628 0 
L 628 4666 
z
" transform="scale(0.015625)"/>
     </defs>
     <use xlink:href="#DejaVuSans-66"/>
     <use xlink:href="#DejaVuSans-37" x="35.205078"/>
     <use xlink:href="#DejaVuSans-2c" x="98.828125"/>
     <use xlink:href="#DejaVuSans-20" x="130.615234"/>
     <use xlink:href="#DejaVuSans-66" x="162.402344"/>
     <use xlink:href="#DejaVuSans-38" x="197.607422"/>
     <use xlink:href="#DejaVuSans-2c" x="261.230469"/>
     <use xlink:href="#DejaVuSans-20" x="293.017578"/>
     <use xlink:href="#DejaVuSans-66" x="324.804688"/>
     <use xlink:href="#DejaVuSans-31" x="360.009766"/>
     <use xlink:href="#DejaVuSans-36" x="423.632812"/>
     <use xlink:href="#DejaVuSans-2c" x="487.255859"/>
     <use xlink:href="#DejaVuSans-20" x="519.042969"/>
     <use xlink:href="#DejaVuSans-66" x="550.830078"/>
     <use xlink:href="#DejaVuSans-31" x="586.035156"/>
     <use xlink:href="#DejaVuSans-37" x="649.658203"/>
     <use xlink:href="#DejaVuSans-2c" x="713.28125"/>
     <use xlink:href="#DejaVuSans-32" x="745.068359"/>
     <use xlink:href="#DejaVuSans-30" x="808.691406"/>
     <use xlink:href="#DejaVuSans-2d" x="872.314453"/>
     <use xlink:href="#DejaVuSans-44" x="908.398438"/>
    </g>
   </g>
   <g id="text_7">
    <!-- v2.6.1.152, hv-hash=ff0e71e8cd978373 -->
    <g style="fill: #808080" transform="translate(142.277562 286.317512) scale(0.1 -0.1)">
     <defs>
      <path id="DejaVuSans-2e" d="M 684 794 
L 1344 794 
L 1344 0 
L 684 0 
L 684 794 
z
" transform="scale(0.015625)"/>
      <path id="DejaVuSans-35" d="M 691 4666 
L 3169 4666 
L 3169 4134 
L 1269 4134 
L 1269 2991 
Q 1406 3038 1543 3061 
Q 1681 3084 1819 3084 
Q 2600 3084 3056 2656 
Q 3513 2228 3513 1497 
Q 3513 744 3044 326 
Q 2575 -91 1722 -91 
Q 1428 -91 1123 -41 
Q 819 9 494 109 
L 494 744 
Q 775 591 1075 516 
Q 1375 441 1709 441 
Q 2250 441 2565 725 
Q 2881 1009 2881 1497 
Q 2881 1984 2565 2268 
Q 2250 2553 1709 2553 
Q 1456 2553 1204 2497 
Q 953 2441 691 2322 
L 691 4666 
z
" transform="scale(0.015625)"/>
      <path id="DejaVuSans-68" d="M 3513 2113 
L 3513 0 
L 2938 0 
L 2938 2094 
Q 2938 2591 2744 2837 
Q 2550 3084 2163 3084 
Q 1697 3084 1428 2787 
Q 1159 2491 1159 1978 
L 1159 0 
L 581 0 
L 581 4863 
L 1159 4863 
L 1159 2956 
Q 1366 3272 1645 3428 
Q 1925 3584 2291 3584 
Q 2894 3584 3203 3211 
Q 3513 2838 3513 2113 
z
" transform="scale(0.015625)"/>
      <path id="DejaVuSans-3d" d="M 678 2906 
L 4684 2906 
L 4684 2381 
L 678 2381 
L 678 2906 
z
M 678 1631 
L 4684 1631 
L 4684 1100 
L 678 1100 
L 678 1631 
z
" transform="scale(0.015625)"/>
      <path id="DejaVuSans-65" d="M 3597 1894 
L 3597 1613 
L 953 1613 
Q 991 1019 1311 708 
Q 1631 397 2203 397 
Q 2534 397 2845 478 
Q 3156 559 3463 722 
L 3463 178 
Q 3153 47 2828 -22 
Q 2503 -91 2169 -91 
Q 1331 -91 842 396 
Q 353 884 353 1716 
Q 353 2575 817 3079 
Q 1281 3584 2069 3584 
Q 2775 3584 3186 3129 
Q 3597 2675 3597 1894 
z
M 3022 2063 
Q 3016 2534 2758 2815 
Q 2500 3097 2075 3097 
Q 1594 3097 1305 2825 
Q 1016 2553 972 2059 
L 3022 2063 
z
" transform="scale(0.015625)"/>
      <path id="DejaVuSans-63" d="M 3122 3366 
L 3122 2828 
Q 2878 2963 2633 3030 
Q 2388 3097 2138 3097 
Q 1578 3097 1268 2742 
Q 959 2388 959 1747 
Q 959 1106 1268 751 
Q 1578 397 2138 397 
Q 2388 397 2633 464 
Q 2878 531 3122 666 
L 3122 134 
Q 2881 22 2623 -34 
Q 2366 -91 2075 -91 
Q 1284 -91 818 406 
Q 353 903 353 1747 
Q 353 2603 823 3093 
Q 1294 3584 2113 3584 
Q 2378 3584 2631 3529 
Q 2884 3475 3122 3366 
z
" transform="scale(0.015625)"/>
      <path id="DejaVuSans-64" d="M 2906 2969 
L 2906 4863 
L 3481 4863 
L 3481 0 
L 2906 0 
L 2906 525 
Q 2725 213 2448 61 
Q 2172 -91 1784 -91 
Q 1150 -91 751 415 
Q 353 922 353 1747 
Q 353 2572 751 3078 
Q 1150 3584 1784 3584 
Q 2172 3584 2448 3432 
Q 2725 3281 2906 2969 
z
M 947 1747 
Q 947 1113 1208 752 
Q 1469 391 1925 391 
Q 2381 391 2643 752 
Q 2906 1113 2906 1747 
Q 2906 2381 2643 2742 
Q 2381 3103 1925 3103 
Q 1469 3103 1208 2742 
Q 947 2381 947 1747 
z
" transform="scale(0.015625)"/>
      <path id="DejaVuSans-39" d="M 703 97 
L 703 672 
Q 941 559 1184 500 
Q 1428 441 1663 441 
Q 2288 441 2617 861 
Q 2947 1281 2994 2138 
Q 2813 1869 2534 1725 
Q 2256 1581 1919 1581 
Q 1219 1581 811 2004 
Q 403 2428 403 3163 
Q 403 3881 828 4315 
Q 1253 4750 1959 4750 
Q 2769 4750 3195 4129 
Q 3622 3509 3622 2328 
Q 3622 1225 3098 567 
Q 2575 -91 1691 -91 
Q 1453 -91 1209 -44 
Q 966 3 703 97 
z
M 1959 2075 
Q 2384 2075 2632 2365 
Q 2881 2656 2881 3163 
Q 2881 3666 2632 3958 
Q 2384 4250 1959 4250 
Q 1534 4250 1286 3958 
Q 1038 3666 1038 3163 
Q 1038 2656 1286 2365 
Q 1534 2075 1959 2075 
z
" transform="scale(0.015625)"/>
      <path id="DejaVuSans-33" d="M 2597 2516 
Q 3050 2419 3304 2112 
Q 3559 1806 3559 1356 
Q 3559 666 3084 287 
Q 2609 -91 1734 -91 
Q 1441 -91 1130 -33 
Q 819 25 488 141 
L 488 750 
Q 750 597 1062 519 
Q 1375 441 1716 441 
Q 2309 441 2620 675 
Q 2931 909 2931 1356 
Q 2931 1769 2642 2001 
Q 2353 2234 1838 2234 
L 1294 2234 
L 1294 2753 
L 1863 2753 
Q 2328 2753 2575 2939 
Q 2822 3125 2822 3475 
Q 2822 3834 2567 4026 
Q 2313 4219 1838 4219 
Q 1578 4219 1281 4162 
Q 984 4106 628 3988 
L 628 4550 
Q 988 4650 1302 4700 
Q 1616 4750 1894 4750 
Q 2613 4750 3031 4423 
Q 3450 4097 3450 3541 
Q 3450 3153 3228 2886 
Q 3006 2619 2597 2516 
z
" transform="scale(0.015625)"/>
     </defs>
     <use xlink:href="#DejaVuSans-76"/>
     <use xlink:href="#DejaVuSans-32" x="59.179688"/>
     <use xlink:href="#DejaVuSans-2e" x="122.802734"/>
     <use xlink:href="#DejaVuSans-36" x="154.589844"/>
     <use xlink:href="#DejaVuSans-2e" x="218.212891"/>
     <use xlink:href="#DejaVuSans-31" x="250"/>
     <use xlink:href="#DejaVuSans-2e" x="313.623047"/>
     <use xlink:href="#DejaVuSans-31" x="345.410156"/>
     <use xlink:href="#DejaVuSans-35" x="409.033203"/>
     <use xlink:href="#DejaVuSans-32" x="472.65625"/>
     <use xlink:href="#DejaVuSans-2c" x="536.279297"/>
     <use xlink:href="#DejaVuSans-20" x="568.066406"/>
     <use xlink:href="#DejaVuSans-68" x="599.853516"/>
     <use xlink:href="#DejaVuSans-76" x="663.232422"/>
     <use xlink:href="#DejaVuSans-2d" x="719.787109"/>
     <use xlink:href="#DejaVuSans-68" x="755.871094"/>
     <use xlink:href="#DejaVuSans-61" x="819.25"/>
     <use xlink:href="#DejaVuSans-73" x="880.529297"/>
     <use xlink:href="#DejaVuSans-68" x="932.628906"/>
     <use xlink:href="#DejaVuSans-3d" x="996.007812"/>
     <use xlink:href="#DejaVuSans-66" x="1079.796875"/>
     <use xlink:href="#DejaVuSans-66" x="1115.001953"/>
     <use xlink:href="#DejaVuSans-30" x="1150.207031"/>
     <use xlink:href="#DejaVuSans-65" x="1213.830078"/>
     <use xlink:href="#DejaVuSans-37" x="1275.353516"/>
     <use xlink:href="#DejaVuSans-31" x="1338.976562"/>
     <use xlink:href="#DejaVuSans-65" x="1402.599609"/>
     <use xlink:href="#DejaVuSans-38" x="1464.123047"/>
     <use xlink:href="#DejaVuSans-63" x="1527.746094"/>
     <use xlink:href="#DejaVuSans-64" x="1582.726562"/>
     <use xlink:href="#DejaVuSans-39" x="1646.203125"/>
     <use xlink:href="#DejaVuSans-37" x="1709.826172"/>
     <use xlink:href="#DejaVuSans-38" x="1773.449219"/>
     <use xlink:href="#DejaVuSans-33" x="1837.072266"/>
     <use xlink:href="#DejaVuSans-37" x="1900.695312"/>
     <use xlink:href="#DejaVuSans-33" x="1964.318359"/>
    </g>
   </g>
   <g id="legend_1">
    <g id="patch_7">
     <path d="M 48.16 165.78125 
L 177.381875 165.78125 
Q 181.381875 165.78125 181.381875 161.78125 
L 181.381875 17 
Q 181.381875 13 177.381875 13 
L 48.16 13 
Q 44.16 13 44.16 17 
L 44.16 161.78125 
Q 44.16 165.78125 48.16 165.78125 
z
" style="fill: #ffffff; opacity: 0.2; stroke: #cccccc; stroke-linejoin: miter"/>
    </g>
    <g id="line2d_48">
     <path d="M 52.16 29.196875 
L 72.16 29.196875 
L 92.16 29.196875 
" style="fill: none; stroke: #000000; stroke-width: 3; stroke-linecap: square"/>
    </g>
    <g id="text_8">
     <!-- -1: 4/4 -->
     <g transform="translate(108.16 36.196875) scale(0.2 -0.2)">
      <defs>
       <path id="DejaVuSans-3a" d="M 750 794 
L 1409 794 
L 1409 0 
L 750 0 
L 750 794 
z
M 750 3309 
L 1409 3309 
L 1409 2516 
L 750 2516 
L 750 3309 
z
" transform="scale(0.015625)"/>
       <path id="DejaVuSans-34" d="M 2419 4116 
L 825 1625 
L 2419 1625 
L 2419 4116 
z
M 2253 4666 
L 3047 4666 
L 3047 1625 
L 3713 1625 
L 3713 1100 
L 3047 1100 
L 3047 0 
L 2419 0 
L 2419 1100 
L 313 1100 
L 313 1709 
L 2253 4666 
z
" transform="scale(0.015625)"/>
       <path id="DejaVuSans-2f" d="M 1625 4666 
L 2156 4666 
L 531 -594 
L 0 -594 
L 1625 4666 
z
" transform="scale(0.015625)"/>
      </defs>
      <use xlink:href="#DejaVuSans-2d"/>
      <use xlink:href="#DejaVuSans-31" x="36.083984"/>
      <use xlink:href="#DejaVuSans-3a" x="99.707031"/>
      <use xlink:href="#DejaVuSans-20" x="133.398438"/>
      <use xlink:href="#DejaVuSans-34" x="165.185547"/>
      <use xlink:href="#DejaVuSans-2f" x="228.808594"/>
      <use xlink:href="#DejaVuSans-34" x="262.5"/>
     </g>
    </g>
    <g id="line2d_49">
     <path d="M 52.16 58.553125 
L 72.16 58.553125 
L 92.16 58.553125 
" style="fill: none; stroke: #00bfbf; stroke-width: 3; stroke-linecap: square"/>
    </g>
    <g id="text_9">
     <!-- -2: 1/0 -->
     <g transform="translate(108.16 65.553125) scale(0.2 -0.2)">
      <use xlink:href="#DejaVuSans-2d"/>
      <use xlink:href="#DejaVuSans-32" x="36.083984"/>
      <use xlink:href="#DejaVuSans-3a" x="99.707031"/>
      <use xlink:href="#DejaVuSans-20" x="133.398438"/>
      <use xlink:href="#DejaVuSans-31" x="165.185547"/>
      <use xlink:href="#DejaVuSans-2f" x="228.808594"/>
      <use xlink:href="#DejaVuSans-30" x="262.5"/>
     </g>
    </g>
    <g id="line2d_50">
     <path d="M 52.16 87.909375 
L 72.16 87.909375 
L 92.16 87.909375 
" style="fill: none; stroke: #bf00bf; stroke-width: 3; stroke-linecap: square"/>
    </g>
    <g id="text_10">
     <!-- -3: 0/0 -->
     <g transform="translate(108.16 94.909375) scale(0.2 -0.2)">
      <use xlink:href="#DejaVuSans-2d"/>
      <use xlink:href="#DejaVuSans-33" x="36.083984"/>
      <use xlink:href="#DejaVuSans-3a" x="99.707031"/>
      <use xlink:href="#DejaVuSans-20" x="133.398438"/>
      <use xlink:href="#DejaVuSans-30" x="165.185547"/>
      <use xlink:href="#DejaVuSans-2f" x="228.808594"/>
      <use xlink:href="#DejaVuSans-30" x="262.5"/>
     </g>
    </g>
    <g id="line2d_51">
     <path d="M 52.16 117.265625 
L 72.16 117.265625 
L 92.16 117.265625 
" style="fill: none; stroke: #ff0000; stroke-width: 3; stroke-linecap: square"/>
    </g>
    <g id="text_11">
     <!-- -4: 0/0 -->
     <g transform="translate(108.16 124.265625) scale(0.2 -0.2)">
      <use xlink:href="#DejaVuSans-2d"/>
      <use xlink:href="#DejaVuSans-34" x="36.083984"/>
      <use xlink:href="#DejaVuSans-3a" x="99.707031"/>
      <use xlink:href="#DejaVuSans-20" x="133.398438"/>
      <use xlink:href="#DejaVuSans-30" x="165.185547"/>
      <use xlink:href="#DejaVuSans-2f" x="228.808594"/>
      <use xlink:href="#DejaVuSans-30" x="262.5"/>
     </g>
    </g>
    <g id="line2d_52">
     <path d="M 52.16 146.621875 
L 72.16 146.621875 
L 92.16 146.621875 
" style="fill: none; stroke: #0000ff; stroke-width: 3; stroke-linecap: square"/>
    </g>
    <g id="text_12">
     <!-- -5: 0/0 -->
     <g transform="translate(108.16 153.621875) scale(0.2 -0.2)">
      <use xlink:href="#DejaVuSans-2d"/>
      <use xlink:href="#DejaVuSans-35" x="36.083984"/>
      <use xlink:href="#DejaVuSans-3a" x="99.707031"/>
      <use xlink:href="#DejaVuSans-20" x="133.398438"/>
      <use xlink:href="#DejaVuSans-30" x="165.185547"/>
      <use xlink:href="#DejaVuSans-2f" x="228.808594"/>
      <use xlink:href="#DejaVuSans-30" x="262.5"/>
     </g>
    </g>
   </g>
  </g>
 </g>
 <defs>
  <clipPath id="p61584d3cc7">
   <rect x="34.16" y="3" width="419.032" height="288.28"/>
  </clipPath>
 </defs>
</svg>
