<?xml version="1.0" encoding="utf-8" standalone="no"?>
<!DOCTYPE svg PUBLIC "-//W3C//DTD SVG 1.1//EN"
  "http://www.w3.org/Graphics/SVG/1.1/DTD/svg11.dtd">
<svg xmlns:xlink="http://www.w3.org/1999/xlink" width="460.8pt" height="345.6pt" viewBox="0 0 460.8 345.6" xmlns="http://www.w3.org/2000/svg" version="1.1">
 <metadata>
  <rdf:RDF xmlns:dc="http://purl.org/dc/elements/1.1/" xmlns:cc="http://creativecommons.org/ns#" xmlns:rdf="http://www.w3.org/1999/02/22-rdf-syntax-ns#">
   <cc:Work>
    <dc:type rdf:resource="http://purl.org/dc/dcmitype/StillImage"/>
    <dc:date>2023-03-13T19:42:18.702471</dc:date>
    <dc:format>image/svg+xml</dc:format>
    <dc:creator>
     <cc:Agent>
      <dc:title>Matplotlib v3.7.0, https://matplotlib.org/</dc:title>
     </cc:Agent>
    </dc:creator>
   </cc:Work>
  </rdf:RDF>
 </metadata>
 <defs>
  <style type="text/css">*{stroke-linejoin: round; stroke-linecap: butt}</style>
 </defs>
 <g id="figure_1">
  <g id="patch_1">
   <path d="M 0 345.6 
L 460.8 345.6 
L 460.8 0 
L 0 0 
z
" style="fill: #ffffff"/>
  </g>
  <g id="axes_1">
   <g id="patch_2">
    <path d="M 34.16 291.28 
L 446.924475 291.28 
L 446.924475 3 
L 34.16 3 
z
" style="fill: #ffffff"/>
   </g>
   <g id="matplotlib.axis_1">
    <g id="xtick_1">
     <g id="line2d_1">
      <path d="M 34.249547 291.28 
L 34.249547 3 
" clip-path="url(#pb6bbbfedb3)" style="fill: none; stroke: #b0b0b0; stroke-width: 0.8; stroke-linecap: square"/>
     </g>
     <g id="line2d_2">
      <defs>
       <path id="mff08f5d8fe" d="M 0 0 
L 0 3.5 
" style="stroke: #000000; stroke-width: 0.8"/>
      </defs>
      <g>
       <use xlink:href="#mff08f5d8fe" x="34.249547" y="291.28" style="stroke: #000000; stroke-width: 0.8"/>
      </g>
     </g>
     <g id="text_1">
      <!-- -1 -->
      <g transform="translate(24.279235 313.476875) scale(0.2 -0.2)">
       <defs>
        <path id="DejaVuSans-2d" d="M 313 2009 
L 1997 2009 
L 1997 1497 
L 313 1497 
L 313 2009 
z
" transform="scale(0.015625)"/>
        <path id="DejaVuSans-31" d="M 794 531 
L 1825 531 
L 1825 4091 
L 703 3866 
L 703 4441 
L 1819 4666 
L 2450 4666 
L 2450 531 
L 3481 531 
L 3481 0 
L 794 0 
L 794 531 
z
" transform="scale(0.015625)"/>
       </defs>
       <use xlink:href="#DejaVuSans-2d"/>
       <use xlink:href="#DejaVuSans-31" x="36.083984"/>
      </g>
     </g>
    </g>
    <g id="xtick_2">
     <g id="line2d_3">
      <path d="M 240.542238 291.28 
L 240.542238 3 
" clip-path="url(#pb6bbbfedb3)" style="fill: none; stroke: #b0b0b0; stroke-width: 0.8; stroke-linecap: square"/>
     </g>
     <g id="line2d_4">
      <g>
       <use xlink:href="#mff08f5d8fe" x="240.542238" y="291.28" style="stroke: #000000; stroke-width: 0.8"/>
      </g>
     </g>
     <g id="text_2">
      <!-- 0 -->
      <g transform="translate(234.179738 313.476875) scale(0.2 -0.2)">
       <defs>
        <path id="DejaVuSans-30" d="M 2034 4250 
Q 1547 4250 1301 3770 
Q 1056 3291 1056 2328 
Q 1056 1369 1301 889 
Q 1547 409 2034 409 
Q 2525 409 2770 889 
Q 3016 1369 3016 2328 
Q 3016 3291 2770 3770 
Q 2525 4250 2034 4250 
z
M 2034 4750 
Q 2819 4750 3233 4129 
Q 3647 3509 3647 2328 
Q 3647 1150 3233 529 
Q 2819 -91 2034 -91 
Q 1250 -91 836 529 
Q 422 1150 422 2328 
Q 422 3509 836 4129 
Q 1250 4750 2034 4750 
z
" transform="scale(0.015625)"/>
       </defs>
       <use xlink:href="#DejaVuSans-30"/>
      </g>
     </g>
    </g>
    <g id="xtick_3">
     <g id="line2d_5">
      <path d="M 446.834928 291.28 
L 446.834928 3 
" clip-path="url(#pb6bbbfedb3)" style="fill: none; stroke: #b0b0b0; stroke-width: 0.8; stroke-linecap: square"/>
     </g>
     <g id="line2d_6">
      <g>
       <use xlink:href="#mff08f5d8fe" x="446.834928" y="291.28" style="stroke: #000000; stroke-width: 0.8"/>
      </g>
     </g>
     <g id="text_3">
      <!-- 1 -->
      <g transform="translate(440.472428 313.476875) scale(0.2 -0.2)">
       <use xlink:href="#DejaVuSans-31"/>
      </g>
     </g>
    </g>
    <g id="xtick_4">
     <g id="line2d_7">
      <defs>
       <path id="ma7c6ee53de" d="M 0 0 
L 0 2 
" style="stroke: #000000; stroke-width: 0.6"/>
      </defs>
      <g>
       <use xlink:href="#ma7c6ee53de" x="96.349835" y="291.28" style="stroke: #000000; stroke-width: 0.6"/>
      </g>
     </g>
    </g>
    <g id="xtick_5">
     <g id="line2d_8">
      <g>
       <use xlink:href="#ma7c6ee53de" x="132.676174" y="291.28" style="stroke: #000000; stroke-width: 0.6"/>
      </g>
     </g>
    </g>
    <g id="xtick_6">
     <g id="line2d_9">
      <g>
       <use xlink:href="#ma7c6ee53de" x="158.450123" y="291.28" style="stroke: #000000; stroke-width: 0.6"/>
      </g>
     </g>
    </g>
    <g id="xtick_7">
     <g id="line2d_10">
      <g>
       <use xlink:href="#ma7c6ee53de" x="178.44195" y="291.28" style="stroke: #000000; stroke-width: 0.6"/>
      </g>
     </g>
    </g>
    <g id="xtick_8">
     <g id="line2d_11">
      <g>
       <use xlink:href="#ma7c6ee53de" x="194.776462" y="291.28" style="stroke: #000000; stroke-width: 0.6"/>
      </g>
     </g>
    </g>
    <g id="xtick_9">
     <g id="line2d_12">
      <g>
       <use xlink:href="#ma7c6ee53de" x="208.587096" y="291.28" style="stroke: #000000; stroke-width: 0.6"/>
      </g>
     </g>
    </g>
    <g id="xtick_10">
     <g id="line2d_13">
      <g>
       <use xlink:href="#ma7c6ee53de" x="220.55041" y="291.28" style="stroke: #000000; stroke-width: 0.6"/>
      </g>
     </g>
    </g>
    <g id="xtick_11">
     <g id="line2d_14">
      <g>
       <use xlink:href="#ma7c6ee53de" x="231.102802" y="291.28" style="stroke: #000000; stroke-width: 0.6"/>
      </g>
     </g>
    </g>
    <g id="xtick_12">
     <g id="line2d_15">
      <g>
       <use xlink:href="#ma7c6ee53de" x="302.642525" y="291.28" style="stroke: #000000; stroke-width: 0.6"/>
      </g>
     </g>
    </g>
    <g id="xtick_13">
     <g id="line2d_16">
      <g>
       <use xlink:href="#ma7c6ee53de" x="338.968865" y="291.28" style="stroke: #000000; stroke-width: 0.6"/>
      </g>
     </g>
    </g>
    <g id="xtick_14">
     <g id="line2d_17">
      <g>
       <use xlink:href="#ma7c6ee53de" x="364.742813" y="291.28" style="stroke: #000000; stroke-width: 0.6"/>
      </g>
     </g>
    </g>
    <g id="xtick_15">
     <g id="line2d_18">
      <g>
       <use xlink:href="#ma7c6ee53de" x="384.73464" y="291.28" style="stroke: #000000; stroke-width: 0.6"/>
      </g>
     </g>
    </g>
    <g id="xtick_16">
     <g id="line2d_19">
      <g>
       <use xlink:href="#ma7c6ee53de" x="401.069153" y="291.28" style="stroke: #000000; stroke-width: 0.6"/>
      </g>
     </g>
    </g>
    <g id="xtick_17">
     <g id="line2d_20">
      <g>
       <use xlink:href="#ma7c6ee53de" x="414.879786" y="291.28" style="stroke: #000000; stroke-width: 0.6"/>
      </g>
     </g>
    </g>
    <g id="xtick_18">
     <g id="line2d_21">
      <g>
       <use xlink:href="#ma7c6ee53de" x="426.843101" y="291.28" style="stroke: #000000; stroke-width: 0.6"/>
      </g>
     </g>
    </g>
    <g id="xtick_19">
     <g id="line2d_22">
      <g>
       <use xlink:href="#ma7c6ee53de" x="437.395492" y="291.28" style="stroke: #000000; stroke-width: 0.6"/>
      </g>
     </g>
    </g>
    <g id="text_4">
     <!-- log10 of FEvals ratio -->
     <g transform="translate(138.23755 336.833125) scale(0.2 -0.2)">
      <defs>
       <path id="DejaVuSans-6c" d="M 603 4863 
L 1178 4863 
L 1178 0 
L 603 0 
L 603 4863 
z
" transform="scale(0.015625)"/>
       <path id="DejaVuSans-6f" d="M 1959 3097 
Q 1497 3097 1228 2736 
Q 959 2375 959 1747 
Q 959 1119 1226 758 
Q 1494 397 1959 397 
Q 2419 397 2687 759 
Q 2956 1122 2956 1747 
Q 2956 2369 2687 2733 
Q 2419 3097 1959 3097 
z
M 1959 3584 
Q 2709 3584 3137 3096 
Q 3566 2609 3566 1747 
Q 3566 888 3137 398 
Q 2709 -91 1959 -91 
Q 1206 -91 779 398 
Q 353 888 353 1747 
Q 353 2609 779 3096 
Q 1206 3584 1959 3584 
z
" transform="scale(0.015625)"/>
       <path id="DejaVuSans-67" d="M 2906 1791 
Q 2906 2416 2648 2759 
Q 2391 3103 1925 3103 
Q 1463 3103 1205 2759 
Q 947 2416 947 1791 
Q 947 1169 1205 825 
Q 1463 481 1925 481 
Q 2391 481 2648 825 
Q 2906 1169 2906 1791 
z
M 3481 434 
Q 3481 -459 3084 -895 
Q 2688 -1331 1869 -1331 
Q 1566 -1331 1297 -1286 
Q 1028 -1241 775 -1147 
L 775 -588 
Q 1028 -725 1275 -790 
Q 1522 -856 1778 -856 
Q 2344 -856 2625 -561 
Q 2906 -266 2906 331 
L 2906 616 
Q 2728 306 2450 153 
Q 2172 0 1784 0 
Q 1141 0 747 490 
Q 353 981 353 1791 
Q 353 2603 747 3093 
Q 1141 3584 1784 3584 
Q 2172 3584 2450 3431 
Q 2728 3278 2906 2969 
L 2906 3500 
L 3481 3500 
L 3481 434 
z
" transform="scale(0.015625)"/>
       <path id="DejaVuSans-20" transform="scale(0.015625)"/>
       <path id="DejaVuSans-66" d="M 2375 4863 
L 2375 4384 
L 1825 4384 
Q 1516 4384 1395 4259 
Q 1275 4134 1275 3809 
L 1275 3500 
L 2222 3500 
L 2222 3053 
L 1275 3053 
L 1275 0 
L 697 0 
L 697 3053 
L 147 3053 
L 147 3500 
L 697 3500 
L 697 3744 
Q 697 4328 969 4595 
Q 1241 4863 1831 4863 
L 2375 4863 
z
" transform="scale(0.015625)"/>
       <path id="DejaVuSans-46" d="M 628 4666 
L 3309 4666 
L 3309 4134 
L 1259 4134 
L 1259 2759 
L 3109 2759 
L 3109 2228 
L 1259 2228 
L 1259 0 
L 628 0 
L 628 4666 
z
" transform="scale(0.015625)"/>
       <path id="DejaVuSans-45" d="M 628 4666 
L 3578 4666 
L 3578 4134 
L 1259 4134 
L 1259 2753 
L 3481 2753 
L 3481 2222 
L 1259 2222 
L 1259 531 
L 3634 531 
L 3634 0 
L 628 0 
L 628 4666 
z
" transform="scale(0.015625)"/>
       <path id="DejaVuSans-76" d="M 191 3500 
L 800 3500 
L 1894 563 
L 2988 3500 
L 3597 3500 
L 2284 0 
L 1503 0 
L 191 3500 
z
" transform="scale(0.015625)"/>
       <path id="DejaVuSans-61" d="M 2194 1759 
Q 1497 1759 1228 1600 
Q 959 1441 959 1056 
Q 959 750 1161 570 
Q 1363 391 1709 391 
Q 2188 391 2477 730 
Q 2766 1069 2766 1631 
L 2766 1759 
L 2194 1759 
z
M 3341 1997 
L 3341 0 
L 2766 0 
L 2766 531 
Q 2569 213 2275 61 
Q 1981 -91 1556 -91 
Q 1019 -91 701 211 
Q 384 513 384 1019 
Q 384 1609 779 1909 
Q 1175 2209 1959 2209 
L 2766 2209 
L 2766 2266 
Q 2766 2663 2505 2880 
Q 2244 3097 1772 3097 
Q 1472 3097 1187 3025 
Q 903 2953 641 2809 
L 641 3341 
Q 956 3463 1253 3523 
Q 1550 3584 1831 3584 
Q 2591 3584 2966 3190 
Q 3341 2797 3341 1997 
z
" transform="scale(0.015625)"/>
       <path id="DejaVuSans-73" d="M 2834 3397 
L 2834 2853 
Q 2591 2978 2328 3040 
Q 2066 3103 1784 3103 
Q 1356 3103 1142 2972 
Q 928 2841 928 2578 
Q 928 2378 1081 2264 
Q 1234 2150 1697 2047 
L 1894 2003 
Q 2506 1872 2764 1633 
Q 3022 1394 3022 966 
Q 3022 478 2636 193 
Q 2250 -91 1575 -91 
Q 1294 -91 989 -36 
Q 684 19 347 128 
L 347 722 
Q 666 556 975 473 
Q 1284 391 1588 391 
Q 1994 391 2212 530 
Q 2431 669 2431 922 
Q 2431 1156 2273 1281 
Q 2116 1406 1581 1522 
L 1381 1569 
Q 847 1681 609 1914 
Q 372 2147 372 2553 
Q 372 3047 722 3315 
Q 1072 3584 1716 3584 
Q 2034 3584 2315 3537 
Q 2597 3491 2834 3397 
z
" transform="scale(0.015625)"/>
       <path id="DejaVuSans-72" d="M 2631 2963 
Q 2534 3019 2420 3045 
Q 2306 3072 2169 3072 
Q 1681 3072 1420 2755 
Q 1159 2438 1159 1844 
L 1159 0 
L 581 0 
L 581 3500 
L 1159 3500 
L 1159 2956 
Q 1341 3275 1631 3429 
Q 1922 3584 2338 3584 
Q 2397 3584 2469 3576 
Q 2541 3569 2628 3553 
L 2631 2963 
z
" transform="scale(0.015625)"/>
       <path id="DejaVuSans-74" d="M 1172 4494 
L 1172 3500 
L 2356 3500 
L 2356 3053 
L 1172 3053 
L 1172 1153 
Q 1172 725 1289 603 
Q 1406 481 1766 481 
L 2356 481 
L 2356 0 
L 1766 0 
Q 1100 0 847 248 
Q 594 497 594 1153 
L 594 3053 
L 172 3053 
L 172 3500 
L 594 3500 
L 594 4494 
L 1172 4494 
z
" transform="scale(0.015625)"/>
       <path id="DejaVuSans-69" d="M 603 3500 
L 1178 3500 
L 1178 0 
L 603 0 
L 603 3500 
z
M 603 4863 
L 1178 4863 
L 1178 4134 
L 603 4134 
L 603 4863 
z
" transform="scale(0.015625)"/>
      </defs>
      <use xlink:href="#DejaVuSans-6c"/>
      <use xlink:href="#DejaVuSans-6f" x="27.783203"/>
      <use xlink:href="#DejaVuSans-67" x="88.964844"/>
      <use xlink:href="#DejaVuSans-31" x="152.441406"/>
      <use xlink:href="#DejaVuSans-30" x="216.064453"/>
      <use xlink:href="#DejaVuSans-20" x="279.6875"/>
      <use xlink:href="#DejaVuSans-6f" x="311.474609"/>
      <use xlink:href="#DejaVuSans-66" x="372.65625"/>
      <use xlink:href="#DejaVuSans-20" x="407.861328"/>
      <use xlink:href="#DejaVuSans-46" x="439.648438"/>
      <use xlink:href="#DejaVuSans-45" x="497.167969"/>
      <use xlink:href="#DejaVuSans-76" x="560.351562"/>
      <use xlink:href="#DejaVuSans-61" x="619.53125"/>
      <use xlink:href="#DejaVuSans-6c" x="680.810547"/>
      <use xlink:href="#DejaVuSans-73" x="708.59375"/>
      <use xlink:href="#DejaVuSans-20" x="760.693359"/>
      <use xlink:href="#DejaVuSans-72" x="792.480469"/>
      <use xlink:href="#DejaVuSans-61" x="833.59375"/>
      <use xlink:href="#DejaVuSans-74" x="894.873047"/>
      <use xlink:href="#DejaVuSans-69" x="934.082031"/>
      <use xlink:href="#DejaVuSans-6f" x="961.865234"/>
     </g>
    </g>
   </g>
   <g id="matplotlib.axis_2">
    <g id="ytick_1">
     <g id="line2d_23">
      <path d="M 34.16 288.453725 
L 446.924475 288.453725 
" clip-path="url(#pb6bbbfedb3)" style="fill: none; stroke: #b0b0b0; stroke-width: 0.8; stroke-linecap: square"/>
     </g>
     <g id="line2d_24">
      <defs>
       <path id="mad92228091" d="M 0 0 
L -3.5 0 
" style="stroke: #000000; stroke-width: 0.8"/>
      </defs>
      <g>
       <use xlink:href="#mad92228091" x="34.16" y="288.453725" style="stroke: #000000; stroke-width: 0.8"/>
      </g>
     </g>
    </g>
    <g id="ytick_2">
     <g id="line2d_25">
      <path d="M 34.16 217.796863 
L 446.924475 217.796863 
" clip-path="url(#pb6bbbfedb3)" style="fill: none; stroke: #b0b0b0; stroke-width: 0.8; stroke-linecap: square"/>
     </g>
     <g id="line2d_26">
      <g>
       <use xlink:href="#mad92228091" x="34.16" y="217.796863" style="stroke: #000000; stroke-width: 0.8"/>
      </g>
     </g>
    </g>
    <g id="ytick_3">
     <g id="line2d_27">
      <path d="M 34.16 147.14 
L 446.924475 147.14 
" clip-path="url(#pb6bbbfedb3)" style="fill: none; stroke: #b0b0b0; stroke-width: 0.8; stroke-linecap: square"/>
     </g>
     <g id="line2d_28">
      <g>
       <use xlink:href="#mad92228091" x="34.16" y="147.14" style="stroke: #000000; stroke-width: 0.8"/>
      </g>
     </g>
    </g>
    <g id="ytick_4">
     <g id="line2d_29">
      <path d="M 34.16 76.483137 
L 446.924475 76.483137 
" clip-path="url(#pb6bbbfedb3)" style="fill: none; stroke: #b0b0b0; stroke-width: 0.8; stroke-linecap: square"/>
     </g>
     <g id="line2d_30">
      <g>
       <use xlink:href="#mad92228091" x="34.16" y="76.483137" style="stroke: #000000; stroke-width: 0.8"/>
      </g>
     </g>
    </g>
    <g id="ytick_5">
     <g id="line2d_31">
      <path d="M 34.16 5.826275 
L 446.924475 5.826275 
" clip-path="url(#pb6bbbfedb3)" style="fill: none; stroke: #b0b0b0; stroke-width: 0.8; stroke-linecap: square"/>
     </g>
     <g id="line2d_32">
      <g>
       <use xlink:href="#mad92228091" x="34.16" y="5.826275" style="stroke: #000000; stroke-width: 0.8"/>
      </g>
     </g>
    </g>
    <g id="text_5">
     <!-- proportion of trials -->
     <g transform="translate(19.000625 240.14625) rotate(-90) scale(0.2 -0.2)">
      <defs>
       <path id="DejaVuSans-70" d="M 1159 525 
L 1159 -1331 
L 581 -1331 
L 581 3500 
L 1159 3500 
L 1159 2969 
Q 1341 3281 1617 3432 
Q 1894 3584 2278 3584 
Q 2916 3584 3314 3078 
Q 3713 2572 3713 1747 
Q 3713 922 3314 415 
Q 2916 -91 2278 -91 
Q 1894 -91 1617 61 
Q 1341 213 1159 525 
z
M 3116 1747 
Q 3116 2381 2855 2742 
Q 2594 3103 2138 3103 
Q 1681 3103 1420 2742 
Q 1159 2381 1159 1747 
Q 1159 1113 1420 752 
Q 1681 391 2138 391 
Q 2594 391 2855 752 
Q 3116 1113 3116 1747 
z
" transform="scale(0.015625)"/>
       <path id="DejaVuSans-6e" d="M 3513 2113 
L 3513 0 
L 2938 0 
L 2938 2094 
Q 2938 2591 2744 2837 
Q 2550 3084 2163 3084 
Q 1697 3084 1428 2787 
Q 1159 2491 1159 1978 
L 1159 0 
L 581 0 
L 581 3500 
L 1159 3500 
L 1159 2956 
Q 1366 3272 1645 3428 
Q 1925 3584 2291 3584 
Q 2894 3584 3203 3211 
Q 3513 2838 3513 2113 
z
" transform="scale(0.015625)"/>
      </defs>
      <use xlink:href="#DejaVuSans-70"/>
      <use xlink:href="#DejaVuSans-72" x="63.476562"/>
      <use xlink:href="#DejaVuSans-6f" x="102.339844"/>
      <use xlink:href="#DejaVuSans-70" x="163.521484"/>
      <use xlink:href="#DejaVuSans-6f" x="226.998047"/>
      <use xlink:href="#DejaVuSans-72" x="288.179688"/>
      <use xlink:href="#DejaVuSans-74" x="329.292969"/>
      <use xlink:href="#DejaVuSans-69" x="368.501953"/>
      <use xlink:href="#DejaVuSans-6f" x="396.285156"/>
      <use xlink:href="#DejaVuSans-6e" x="457.466797"/>
      <use xlink:href="#DejaVuSans-20" x="520.845703"/>
      <use xlink:href="#DejaVuSans-6f" x="552.632812"/>
      <use xlink:href="#DejaVuSans-66" x="613.814453"/>
      <use xlink:href="#DejaVuSans-20" x="649.019531"/>
      <use xlink:href="#DejaVuSans-74" x="680.806641"/>
      <use xlink:href="#DejaVuSans-72" x="720.015625"/>
      <use xlink:href="#DejaVuSans-69" x="761.128906"/>
      <use xlink:href="#DejaVuSans-61" x="788.912109"/>
      <use xlink:href="#DejaVuSans-6c" x="850.191406"/>
      <use xlink:href="#DejaVuSans-73" x="877.974609"/>
     </g>
    </g>
   </g>
   <g id="line2d_33">
    <path d="M 34.16 288.453725 
L 140.958608 288.453725 
L 140.958608 287.511634 
L 172.659829 287.511634 
L 172.659829 286.569542 
L 189.460415 286.569542 
L 189.460415 285.627451 
L 191.067773 285.627451 
L 191.067773 284.685359 
L 192.864998 284.685359 
L 192.864998 283.743268 
L 198.433777 283.743268 
L 198.433777 282.801176 
L 200.326179 282.801176 
L 200.326179 281.859085 
L 203.315471 281.859085 
L 203.315471 280.916993 
L 205.125467 280.916993 
L 205.125467 279.974902 
L 205.616685 279.974902 
L 205.616685 279.03281 
L 207.311507 279.03281 
L 207.311507 278.090719 
L 215.898335 278.090719 
L 215.898335 277.148627 
L 218.401868 277.148627 
L 218.401868 276.206536 
L 221.643006 276.206536 
L 221.643006 275.264444 
L 224.566219 275.264444 
L 224.566219 274.322353 
L 225.443239 274.322353 
L 225.443239 273.380261 
L 226.086521 273.380261 
L 226.086521 272.43817 
L 226.490442 272.43817 
L 226.490442 271.496078 
L 226.651222 271.496078 
L 226.651222 270.553987 
L 226.860458 270.553987 
L 226.860458 269.611895 
L 227.566576 269.611895 
L 227.566576 268.669804 
L 228.432531 268.669804 
L 228.432531 267.727712 
L 229.84975 267.727712 
L 229.84975 266.785621 
L 230.134998 266.785621 
L 230.242527 264.901438 
L 231.659746 264.901438 
L 231.659746 263.959346 
L 234.20463 263.959346 
L 234.20463 263.017255 
L 238.197646 263.017255 
L 238.197646 262.075163 
L 239.515119 262.075163 
L 239.515119 261.133072 
L 241.366805 261.133072 
L 241.366805 260.19098 
L 242.122769 260.19098 
L 242.122769 259.248889 
L 242.504411 259.248889 
L 242.504411 258.306797 
L 242.974164 258.306797 
L 242.974164 257.364706 
L 244.314407 257.364706 
L 244.314407 256.422614 
L 246.001883 256.422614 
L 246.001883 255.480523 
L 246.143548 255.480523 
L 246.143548 254.538431 
L 246.760067 254.538431 
L 246.760067 253.59634 
L 246.931567 253.59634 
L 246.935584 251.712157 
L 247.599556 251.712157 
L 247.599556 250.770065 
L 248.177285 250.770065 
L 248.177285 249.827974 
L 248.542942 249.827974 
L 248.542942 248.885882 
L 249.87949 248.885882 
L 249.920858 247.001699 
L 250.103089 247.001699 
L 250.103089 246.059608 
L 250.316274 246.059608 
L 250.316274 245.117516 
L 251.730855 245.117516 
L 251.730855 244.175425 
L 252.683636 244.175425 
L 252.683636 243.233333 
L 252.868782 243.233333 
L 252.868782 242.291242 
L 254.100855 242.291242 
L 254.100855 241.34915 
L 254.678778 241.34915 
L 254.678778 240.407059 
L 257.523076 240.407059 
L 257.523076 239.464967 
L 257.787742 239.464967 
L 257.787742 238.522876 
L 258.352443 238.522876 
L 258.352443 237.580784 
L 259.217898 237.580784 
L 259.234564 235.696601 
L 260.143281 235.696601 
L 260.143281 234.75451 
L 260.831947 234.75451 
L 260.831947 233.812418 
L 263.091854 233.812418 
L 263.132573 231.928235 
L 263.314707 231.928235 
L 263.314707 230.986144 
L 264.144932 230.986144 
L 264.144932 230.044052 
L 264.400142 230.044052 
L 264.400142 229.101961 
L 264.731925 229.101961 
L 264.786676 227.217778 
L 264.942569 227.217778 
L 264.942569 226.275686 
L 265.905851 226.275686 
L 266.0075 224.391503 
L 266.662387 224.391503 
L 266.755516 222.50732 
L 266.903675 222.50732 
L 266.903675 221.565229 
L 268.248394 221.565229 
L 268.248394 220.623137 
L 268.511034 220.623137 
L 268.511034 219.681046 
L 269.481237 219.681046 
L 269.481237 218.738954 
L 269.932641 218.738954 
L 269.932641 217.796863 
L 271.196318 217.796863 
L 271.260608 215.91268 
L 272.286078 215.91268 
L 272.286078 214.970588 
L 272.49738 214.970588 
L 272.49738 214.028497 
L 272.677826 214.028497 
L 272.677826 213.086405 
L 272.921933 213.086405 
L 272.921933 212.144314 
L 273.82399 212.144314 
L 273.82399 211.202222 
L 274.171963 211.202222 
L 274.171963 210.260131 
L 274.588327 210.260131 
L 274.588327 209.318039 
L 274.73193 209.318039 
L 274.73193 208.375948 
L 275.153029 208.375948 
L 275.153029 207.433856 
L 275.433334 207.433856 
L 275.433334 206.491765 
L 275.805161 206.491765 
L 275.820587 204.607582 
L 276.195686 204.607582 
L 276.195686 203.66549 
L 276.760388 203.66549 
L 276.850553 200.839216 
L 277.119887 200.839216 
L 277.119887 199.897124 
L 277.276741 199.897124 
L 277.386586 198.012941 
L 278.396832 198.012941 
L 278.396832 197.07085 
L 278.624011 197.07085 
L 278.624011 196.128758 
L 278.809879 196.128758 
L 278.809879 195.186667 
L 279.789373 195.186667 
L 279.789373 194.244575 
L 280.283268 194.244575 
L 280.283268 193.302484 
L 280.556412 193.302484 
L 280.619875 191.418301 
L 281.070093 191.418301 
L 281.070093 190.476209 
L 281.428852 190.476209 
L 281.460109 188.592026 
L 281.640154 188.592026 
L 281.640154 187.649935 
L 281.909988 187.649935 
L 281.909988 186.707843 
L 282.251234 186.707843 
L 282.251234 185.765752 
L 282.706437 185.765752 
L 282.706437 184.82366 
L 283.059946 184.82366 
L 283.059946 183.881569 
L 283.304881 183.881569 
L 283.304881 182.939477 
L 283.965611 182.939477 
L 283.965611 181.997386 
L 284.313795 181.997386 
L 284.351625 180.113203 
L 284.596795 180.113203 
L 284.596795 179.171111 
L 284.754768 179.171111 
L 284.803034 177.286928 
L 285.143273 177.286928 
L 285.143273 176.344837 
L 285.332488 176.344837 
L 285.332488 175.402745 
L 285.768843 175.402745 
L 285.768843 174.460654 
L 285.974338 174.460654 
L 285.974338 173.518562 
L 286.123731 173.518562 
L 286.123731 172.576471 
L 286.419515 172.576471 
L 286.419515 171.634379 
L 287.363141 171.634379 
L 287.383678 169.750196 
L 287.750957 169.750196 
L 287.750957 168.808105 
L 288.928572 168.808105 
L 288.928572 167.866013 
L 289.139874 167.866013 
L 289.139874 166.923922 
L 289.261992 166.923922 
L 289.261992 165.98183 
L 289.426042 165.98183 
L 289.505214 163.155556 
L 289.857568 163.155556 
L 289.857568 162.213464 
L 290.624576 162.213464 
L 290.679211 160.329281 
L 290.744598 160.329281 
L 290.744598 159.38719 
L 291.249469 159.38719 
L 291.3093 157.503007 
L 292.231935 157.503007 
L 292.300826 155.618824 
L 292.43942 155.618824 
L 292.43942 154.676732 
L 292.748935 154.676732 
L 292.846859 152.792549 
L 293.004122 152.792549 
L 293.004122 151.850458 
L 293.474057 151.850458 
L 293.474057 150.908366 
L 293.739569 150.908366 
L 293.739569 149.966275 
L 293.919235 149.966275 
L 293.919235 149.024183 
L 294.205043 149.024183 
L 294.286047 147.14 
L 294.656856 147.14 
L 294.656856 146.197908 
L 295.105667 146.197908 
L 295.105667 145.255817 
L 295.316968 145.255817 
L 295.316968 144.313725 
L 295.696859 144.313725 
L 295.696859 143.371634 
L 296.505916 143.371634 
L 296.505916 142.429542 
L 296.921661 142.429542 
L 297.023893 139.603268 
L 297.137415 139.603268 
L 297.173038 137.719085 
L 297.908274 137.719085 
L 298.014748 135.834902 
L 298.423505 135.834902 
L 298.423505 134.89281 
L 298.862707 134.89281 
L 298.862707 133.950719 
L 299.651152 133.950719 
L 299.651152 133.008627 
L 299.828734 133.008627 
L 299.869585 131.124444 
L 300.027989 131.124444 
L 300.096329 128.29817 
L 300.557529 128.29817 
L 300.557529 127.356078 
L 301.017403 127.356078 
L 301.017403 126.413987 
L 301.239289 126.413987 
L 301.239289 125.471895 
L 301.430169 125.471895 
L 301.430169 124.529804 
L 301.785767 124.529804 
L 301.785767 123.587712 
L 302.84684 123.587712 
L 302.84684 122.645621 
L 303.060984 122.645621 
L 303.102857 120.761438 
L 303.333872 120.761438 
L 303.333872 119.819346 
L 303.477052 119.819346 
L 303.477052 118.877255 
L 303.836253 118.877255 
L 303.933702 116.993072 
L 304.005635 116.993072 
L 304.005635 116.05098 
L 304.37422 116.05098 
L 304.37422 115.108889 
L 304.819397 115.108889 
L 304.819397 114.166797 
L 305.18292 114.166797 
L 305.18292 113.224706 
L 305.651681 113.224706 
L 305.651681 112.282614 
L 305.839952 112.282614 
L 305.862982 110.398431 
L 305.96065 110.398431 
L 305.96065 109.45634 
L 306.641095 109.45634 
L 306.641095 108.514248 
L 306.780847 108.514248 
L 306.852396 106.630065 
L 307.416383 106.630065 
L 307.416383 105.687974 
L 307.804109 105.687974 
L 307.825924 103.803791 
L 307.962861 103.803791 
L 308.001771 101.919608 
L 308.475669 101.919608 
L 308.475669 100.977516 
L 308.787875 100.977516 
L 308.787875 100.035425 
L 309.760313 100.035425 
L 309.760313 99.093333 
L 310.133376 99.093333 
L 310.197166 96.267059 
L 310.642344 96.267059 
L 310.75032 94.382876 
L 310.806612 94.382876 
L 310.806612 93.440784 
L 310.94246 93.440784 
L 311.017913 91.556601 
L 311.174395 91.556601 
L 311.18658 89.672418 
L 311.618355 89.672418 
L 311.631757 87.788235 
L 312.139451 87.788235 
L 312.183056 85.904052 
L 312.579163 85.904052 
L 312.685929 84.019869 
L 312.771314 84.019869 
L 312.771314 83.077778 
L 313.648871 83.077778 
L 313.698243 80.251503 
L 313.76131 80.251503 
L 313.76131 79.309412 
L 314.638285 79.309412 
L 314.638285 78.36732 
L 314.905798 78.36732 
L 314.905798 77.425229 
L 315.352097 77.425229 
L 315.384005 75.541046 
L 315.595306 75.541046 
L 315.595306 74.598954 
L 315.75001 74.598954 
L 315.797275 72.714771 
L 316.566151 72.714771 
L 316.566151 71.77268 
L 316.777453 71.77268 
L 316.777453 70.830588 
L 317.097964 70.830588 
L 317.097964 69.888497 
L 317.962397 69.888497 
L 317.962397 68.946405 
L 318.508876 68.946405 
L 318.508876 68.004314 
L 318.803802 68.004314 
L 318.803802 67.062222 
L 318.951811 67.062222 
L 319.051666 65.178039 
L 319.498289 65.178039 
L 319.498289 64.235948 
L 319.736464 64.235948 
L 319.736464 63.293856 
L 319.922736 63.293856 
L 319.92949 61.409673 
L 320.374667 61.409673 
L 320.374667 60.467582 
L 320.728744 60.467582 
L 320.728744 59.52549 
L 320.94161 59.52549 
L 320.94161 58.583399 
L 321.111637 58.583399 
L 321.111637 57.641307 
L 321.556814 57.641307 
L 321.637956 55.757124 
L 321.718158 55.757124 
L 321.718158 54.815033 
L 323.117328 54.815033 
L 323.117328 53.872941 
L 323.381195 53.872941 
L 323.445144 51.988758 
L 323.663807 51.988758 
L 323.663807 51.046667 
L 323.962034 51.046667 
L 323.962034 50.104575 
L 324.563341 50.104575 
L 324.563341 49.162484 
L 325.810682 49.162484 
L 325.883675 47.278301 
L 327.654603 47.278301 
L 327.729035 44.452026 
L 328.241199 44.452026 
L 328.241199 43.509935 
L 328.841027 43.509935 
L 328.876868 41.625752 
L 329.423346 41.625752 
L 329.423346 40.68366 
L 329.5719 40.68366 
L 329.5719 39.741569 
L 330.461068 39.741569 
L 330.461068 38.799477 
L 331.129796 38.799477 
L 331.179259 36.915294 
L 331.643214 36.915294 
L 331.695764 34.08902 
L 333.751394 34.08902 
L 333.816378 32.204837 
L 334.728972 32.204837 
L 334.728972 31.262745 
L 335.674936 31.262745 
L 335.674936 30.320654 
L 337.264542 30.320654 
L 337.264542 29.378562 
L 339.247905 29.378562 
L 339.247905 28.436471 
L 339.385157 28.436471 
L 339.385157 27.494379 
L 339.63934 27.494379 
L 339.63934 26.552288 
L 339.847662 26.552288 
L 339.847662 25.610196 
L 345.728171 25.610196 
L 345.728171 24.668105 
L 347.166045 24.668105 
L 347.166045 23.726013 
L 347.422993 23.726013 
L 347.422993 22.783922 
L 348.765953 22.783922 
L 348.765953 21.84183 
L 353.67632 21.84183 
L 353.67632 20.899739 
L 354.7291 20.899739 
L 354.7291 19.957647 
L 356.849715 19.957647 
L 356.849715 19.015556 
L 357.232634 19.015556 
L 357.232634 18.073464 
L 359.353248 18.073464 
L 359.353248 17.131373 
L 364.917286 17.131373 
L 364.917286 16.189281 
L 365.481988 16.189281 
L 365.481988 15.24719 
L 366.601927 15.24719 
L 366.601927 14.305098 
L 367.0379 14.305098 
L 367.0379 13.363007 
L 367.602602 13.363007 
L 367.602602 12.420915 
L 373.035395 12.420915 
L 373.035395 11.478824 
L 375.15601 11.478824 
L 375.15601 10.536732 
L 380.953535 10.536732 
L 380.953535 9.594641 
L 383.074149 9.594641 
L 383.074149 8.652549 
L 386.113368 8.652549 
L 386.113368 7.710458 
L 419.900858 7.710458 
L 419.900858 6.768366 
L 422.021473 6.768366 
L 422.021473 5.826275 
L 446.924475 5.826275 
L 446.924475 5.826275 
" clip-path="url(#pb6bbbfedb3)" style="fill: none; stroke: #000000; stroke-width: 3; stroke-linecap: square"/>
   </g>
   <g id="line2d_34">
    <path clip-path="url(#pb6bbbfedb3)" style="fill: none; stroke: #000000; stroke-width: 3; stroke-linecap: square"/>
   </g>
   <g id="line2d_35">
    <path d="M 34.16 262.760321 
L 229.666316 262.760321 
L 229.666316 260.19098 
L 230.625223 260.19098 
L 230.625223 257.62164 
L 231.141495 257.62164 
L 231.141495 255.052299 
L 231.585043 255.052299 
L 231.585043 252.482959 
L 235.328119 252.482959 
L 235.328119 249.913619 
L 236.287026 249.913619 
L 236.287026 247.344278 
L 236.803299 247.344278 
L 236.803299 244.774938 
L 237.246846 244.774938 
L 237.246846 242.205597 
L 237.823694 242.205597 
L 237.844364 237.066916 
L 238.803271 237.066916 
L 238.803271 234.497576 
L 239.319543 234.497576 
L 239.319543 231.928235 
L 239.763091 231.928235 
L 239.763091 229.358895 
L 243.34586 229.358895 
L 243.34586 226.789554 
L 243.485498 226.789554 
L 243.485498 224.220214 
L 244.305056 224.220214 
L 244.305056 221.650873 
L 244.53562 221.650873 
L 244.53562 219.081533 
L 245.263963 219.081533 
L 245.263963 216.512193 
L 245.494527 216.512193 
L 245.494527 213.942852 
L 245.780235 213.942852 
L 245.780235 211.373512 
L 246.001743 211.373512 
L 246.010799 206.234831 
L 246.128709 206.234831 
L 246.223783 201.09615 
L 246.454347 201.09615 
L 246.454347 198.526809 
L 249.007663 198.526809 
L 249.007663 195.957469 
L 249.354424 195.957469 
L 249.354424 193.388128 
L 249.898293 193.388128 
L 249.898293 190.818788 
L 250.313331 190.818788 
L 250.313331 188.249447 
L 250.829603 188.249447 
L 250.8572 183.110766 
L 251.273151 183.110766 
L 251.373473 177.972086 
L 251.523908 177.972086 
L 251.523908 175.402745 
L 251.790513 175.402745 
L 251.817021 170.264064 
L 252.462435 170.264064 
L 252.462435 167.694724 
L 252.692999 167.694724 
L 252.692999 165.125383 
L 253.392659 165.125383 
L 253.392659 162.556043 
L 254.306757 162.556043 
L 254.306757 159.986702 
L 254.644351 159.986702 
L 254.644351 157.417362 
L 257.511803 157.417362 
L 257.511803 154.848021 
L 257.9846 154.848021 
L 258.055672 149.70934 
L 258.215164 149.70934 
L 258.215164 147.14 
L 259.054463 147.14 
L 259.054463 144.57066 
L 260.306155 144.57066 
L 260.306155 142.001319 
L 260.767449 142.001319 
L 260.767449 139.431979 
L 260.995285 139.431979 
L 260.998013 134.293298 
L 261.570707 134.293298 
L 261.570707 131.723957 
L 262.8224 131.723957 
L 262.8224 129.154617 
L 263.033968 129.154617 
L 263.033968 126.585276 
L 263.577838 126.585276 
L 263.577838 124.015936 
L 265.816817 124.015936 
L 265.816817 121.446595 
L 266.030983 121.446595 
L 266.030983 118.877255 
L 266.360687 118.877255 
L 266.360687 116.307914 
L 266.657089 116.307914 
L 266.657089 113.738574 
L 266.98989 113.738574 
L 266.98989 111.169234 
L 267.506163 111.169234 
L 267.506163 108.599893 
L 267.94971 108.599893 
L 268.031399 103.461212 
L 268.261963 103.461212 
L 268.261963 100.891872 
L 269.173333 100.891872 
L 269.283092 95.753191 
L 269.32107 95.753191 
L 269.32107 93.18385 
L 269.513656 93.18385 
L 269.513656 90.61451 
L 270.279977 90.61451 
L 270.279977 88.045169 
L 270.796249 88.045169 
L 270.796249 85.475829 
L 271.239797 85.475829 
L 271.239797 82.906488 
L 272.494602 82.906488 
L 272.494602 80.337148 
L 273.080767 80.337148 
L 273.080767 77.767807 
L 273.453509 77.767807 
L 273.453509 75.198467 
L 273.624637 75.198467 
L 273.624637 72.629127 
L 273.969781 72.629127 
L 273.969781 70.059786 
L 274.188362 70.059786 
L 274.188362 67.490446 
L 274.33246 67.490446 
L 274.413329 62.351765 
L 274.876329 62.351765 
L 274.876329 59.782424 
L 275.634025 59.782424 
L 275.634025 57.213084 
L 275.864589 57.213084 
L 275.864589 54.643743 
L 277.478449 54.643743 
L 277.478449 52.074403 
L 279.710527 52.074403 
L 279.710527 49.505062 
L 280.651981 49.505062 
L 280.683393 44.366381 
L 281.227263 44.366381 
L 281.227263 41.797041 
L 282.493377 41.797041 
L 282.493377 39.227701 
L 283.000614 39.227701 
L 283.000614 36.65836 
L 285.783463 36.65836 
L 285.783463 34.08902 
L 286.174146 34.08902 
L 286.174146 31.519679 
L 288.956995 31.519679 
L 288.956995 28.950339 
L 289.757327 28.950339 
L 289.757327 26.380998 
L 291.009019 26.380998 
L 291.009019 23.811658 
L 293.047413 23.811658 
L 293.047413 21.242317 
L 294.299106 21.242317 
L 294.299106 18.672977 
L 296.220945 18.672977 
L 296.220945 16.103636 
L 297.359953 16.103636 
L 297.359953 13.534296 
L 297.472638 13.534296 
L 297.472638 10.964955 
L 300.650039 10.964955 
L 300.650039 8.395615 
L 303.823571 8.395615 
L 303.823571 5.826275 
L 446.924475 5.826275 
L 446.924475 5.826275 
" clip-path="url(#pb6bbbfedb3)" style="fill: none; stroke: #00bfbf; stroke-width: 3; stroke-linecap: square"/>
   </g>
   <g id="line2d_36">
    <path clip-path="url(#pb6bbbfedb3)" style="fill: none; stroke: #00bfbf; stroke-width: 3; stroke-linecap: square"/>
   </g>
   <g id="line2d_37"/>
   <g id="line2d_38"/>
   <g id="line2d_39"/>
   <g id="line2d_40">
    <path d="M 240.542238 291.28 
L 240.542238 3 
" clip-path="url(#pb6bbbfedb3)" style="fill: none; stroke: #000000; stroke-width: 1.5; stroke-linecap: square"/>
   </g>
   <g id="line2d_41">
    <path d="M 34.16 147.14 
L 446.924475 147.14 
" clip-path="url(#pb6bbbfedb3)" style="fill: none; stroke-dasharray: 2,3.3; stroke-dashoffset: 0; stroke: #000000; stroke-width: 2"/>
   </g>
   <g id="patch_3">
    <path d="M 34.16 291.28 
L 34.16 3 
" style="fill: none; stroke: #000000; stroke-width: 0.8; stroke-linejoin: miter; stroke-linecap: square"/>
   </g>
   <g id="patch_4">
    <path d="M 446.924475 291.28 
L 446.924475 3 
" style="fill: none; stroke: #000000; stroke-width: 0.8; stroke-linejoin: miter; stroke-linecap: square"/>
   </g>
   <g id="patch_5">
    <path d="M 34.16 291.28 
L 446.924475 291.28 
" style="fill: none; stroke: #000000; stroke-width: 0.8; stroke-linejoin: miter; stroke-linecap: square"/>
   </g>
   <g id="patch_6">
    <path d="M 34.16 3 
L 446.924475 3 
" style="fill: none; stroke: #000000; stroke-width: 0.8; stroke-linejoin: miter; stroke-linecap: square"/>
   </g>
   <g id="text_6">
    <!-- f1, f2, f11,20-D -->
    <g transform="translate(286.800436 285.5144) scale(0.2 -0.2)">
     <defs>
      <path id="DejaVuSans-2c" d="M 750 794 
L 1409 794 
L 1409 256 
L 897 -744 
L 494 -744 
L 750 256 
L 750 794 
z
" transform="scale(0.015625)"/>
      <path id="DejaVuSans-32" d="M 1228 531 
L 3431 531 
L 3431 0 
L 469 0 
L 469 531 
Q 828 903 1448 1529 
Q 2069 2156 2228 2338 
Q 2531 2678 2651 2914 
Q 2772 3150 2772 3378 
Q 2772 3750 2511 3984 
Q 2250 4219 1831 4219 
Q 1534 4219 1204 4116 
Q 875 4013 500 3803 
L 500 4441 
Q 881 4594 1212 4672 
Q 1544 4750 1819 4750 
Q 2544 4750 2975 4387 
Q 3406 4025 3406 3419 
Q 3406 3131 3298 2873 
Q 3191 2616 2906 2266 
Q 2828 2175 2409 1742 
Q 1991 1309 1228 531 
z
" transform="scale(0.015625)"/>
      <path id="DejaVuSans-44" d="M 1259 4147 
L 1259 519 
L 2022 519 
Q 2988 519 3436 956 
Q 3884 1394 3884 2338 
Q 3884 3275 3436 3711 
Q 2988 4147 2022 4147 
L 1259 4147 
z
M 628 4666 
L 1925 4666 
Q 3281 4666 3915 4102 
Q 4550 3538 4550 2338 
Q 4550 1131 3912 565 
Q 3275 0 1925 0 
L 628 0 
L 628 4666 
z
" transform="scale(0.015625)"/>
     </defs>
     <use xlink:href="#DejaVuSans-66"/>
     <use xlink:href="#DejaVuSans-31" x="35.205078"/>
     <use xlink:href="#DejaVuSans-2c" x="98.828125"/>
     <use xlink:href="#DejaVuSans-20" x="130.615234"/>
     <use xlink:href="#DejaVuSans-66" x="162.402344"/>
     <use xlink:href="#DejaVuSans-32" x="197.607422"/>
     <use xlink:href="#DejaVuSans-2c" x="261.230469"/>
     <use xlink:href="#DejaVuSans-20" x="293.017578"/>
     <use xlink:href="#DejaVuSans-66" x="324.804688"/>
     <use xlink:href="#DejaVuSans-31" x="360.009766"/>
     <use xlink:href="#DejaVuSans-31" x="423.632812"/>
     <use xlink:href="#DejaVuSans-2c" x="487.255859"/>
     <use xlink:href="#DejaVuSans-32" x="519.042969"/>
     <use xlink:href="#DejaVuSans-30" x="582.666016"/>
     <use xlink:href="#DejaVuSans-2d" x="646.289062"/>
     <use xlink:href="#DejaVuSans-44" x="682.373047"/>
    </g>
   </g>
   <g id="text_7">
    <!-- v2.6.1.152, hv-hash=ff0e71e8cd978373 -->
    <g style="fill: #808080" transform="translate(139.1438 286.317512) scale(0.1 -0.1)">
     <defs>
      <path id="DejaVuSans-2e" d="M 684 794 
L 1344 794 
L 1344 0 
L 684 0 
L 684 794 
z
" transform="scale(0.015625)"/>
      <path id="DejaVuSans-36" d="M 2113 2584 
Q 1688 2584 1439 2293 
Q 1191 2003 1191 1497 
Q 1191 994 1439 701 
Q 1688 409 2113 409 
Q 2538 409 2786 701 
Q 3034 994 3034 1497 
Q 3034 2003 2786 2293 
Q 2538 2584 2113 2584 
z
M 3366 4563 
L 3366 3988 
Q 3128 4100 2886 4159 
Q 2644 4219 2406 4219 
Q 1781 4219 1451 3797 
Q 1122 3375 1075 2522 
Q 1259 2794 1537 2939 
Q 1816 3084 2150 3084 
Q 2853 3084 3261 2657 
Q 3669 2231 3669 1497 
Q 3669 778 3244 343 
Q 2819 -91 2113 -91 
Q 1303 -91 875 529 
Q 447 1150 447 2328 
Q 447 3434 972 4092 
Q 1497 4750 2381 4750 
Q 2619 4750 2861 4703 
Q 3103 4656 3366 4563 
z
" transform="scale(0.015625)"/>
      <path id="DejaVuSans-35" d="M 691 4666 
L 3169 4666 
L 3169 4134 
L 1269 4134 
L 1269 2991 
Q 1406 3038 1543 3061 
Q 1681 3084 1819 3084 
Q 2600 3084 3056 2656 
Q 3513 2228 3513 1497 
Q 3513 744 3044 326 
Q 2575 -91 1722 -91 
Q 1428 -91 1123 -41 
Q 819 9 494 109 
L 494 744 
Q 775 591 1075 516 
Q 1375 441 1709 441 
Q 2250 441 2565 725 
Q 2881 1009 2881 1497 
Q 2881 1984 2565 2268 
Q 2250 2553 1709 2553 
Q 1456 2553 1204 2497 
Q 953 2441 691 2322 
L 691 4666 
z
" transform="scale(0.015625)"/>
      <path id="DejaVuSans-68" d="M 3513 2113 
L 3513 0 
L 2938 0 
L 2938 2094 
Q 2938 2591 2744 2837 
Q 2550 3084 2163 3084 
Q 1697 3084 1428 2787 
Q 1159 2491 1159 1978 
L 1159 0 
L 581 0 
L 581 4863 
L 1159 4863 
L 1159 2956 
Q 1366 3272 1645 3428 
Q 1925 3584 2291 3584 
Q 2894 3584 3203 3211 
Q 3513 2838 3513 2113 
z
" transform="scale(0.015625)"/>
      <path id="DejaVuSans-3d" d="M 678 2906 
L 4684 2906 
L 4684 2381 
L 678 2381 
L 678 2906 
z
M 678 1631 
L 4684 1631 
L 4684 1100 
L 678 1100 
L 678 1631 
z
" transform="scale(0.015625)"/>
      <path id="DejaVuSans-65" d="M 3597 1894 
L 3597 1613 
L 953 1613 
Q 991 1019 1311 708 
Q 1631 397 2203 397 
Q 2534 397 2845 478 
Q 3156 559 3463 722 
L 3463 178 
Q 3153 47 2828 -22 
Q 2503 -91 2169 -91 
Q 1331 -91 842 396 
Q 353 884 353 1716 
Q 353 2575 817 3079 
Q 1281 3584 2069 3584 
Q 2775 3584 3186 3129 
Q 3597 2675 3597 1894 
z
M 3022 2063 
Q 3016 2534 2758 2815 
Q 2500 3097 2075 3097 
Q 1594 3097 1305 2825 
Q 1016 2553 972 2059 
L 3022 2063 
z
" transform="scale(0.015625)"/>
      <path id="DejaVuSans-37" d="M 525 4666 
L 3525 4666 
L 3525 4397 
L 1831 0 
L 1172 0 
L 2766 4134 
L 525 4134 
L 525 4666 
z
" transform="scale(0.015625)"/>
      <path id="DejaVuSans-38" d="M 2034 2216 
Q 1584 2216 1326 1975 
Q 1069 1734 1069 1313 
Q 1069 891 1326 650 
Q 1584 409 2034 409 
Q 2484 409 2743 651 
Q 3003 894 3003 1313 
Q 3003 1734 2745 1975 
Q 2488 2216 2034 2216 
z
M 1403 2484 
Q 997 2584 770 2862 
Q 544 3141 544 3541 
Q 544 4100 942 4425 
Q 1341 4750 2034 4750 
Q 2731 4750 3128 4425 
Q 3525 4100 3525 3541 
Q 3525 3141 3298 2862 
Q 3072 2584 2669 2484 
Q 3125 2378 3379 2068 
Q 3634 1759 3634 1313 
Q 3634 634 3220 271 
Q 2806 -91 2034 -91 
Q 1263 -91 848 271 
Q 434 634 434 1313 
Q 434 1759 690 2068 
Q 947 2378 1403 2484 
z
M 1172 3481 
Q 1172 3119 1398 2916 
Q 1625 2713 2034 2713 
Q 2441 2713 2670 2916 
Q 2900 3119 2900 3481 
Q 2900 3844 2670 4047 
Q 2441 4250 2034 4250 
Q 1625 4250 1398 4047 
Q 1172 3844 1172 3481 
z
" transform="scale(0.015625)"/>
      <path id="DejaVuSans-63" d="M 3122 3366 
L 3122 2828 
Q 2878 2963 2633 3030 
Q 2388 3097 2138 3097 
Q 1578 3097 1268 2742 
Q 959 2388 959 1747 
Q 959 1106 1268 751 
Q 1578 397 2138 397 
Q 2388 397 2633 464 
Q 2878 531 3122 666 
L 3122 134 
Q 2881 22 2623 -34 
Q 2366 -91 2075 -91 
Q 1284 -91 818 406 
Q 353 903 353 1747 
Q 353 2603 823 3093 
Q 1294 3584 2113 3584 
Q 2378 3584 2631 3529 
Q 2884 3475 3122 3366 
z
" transform="scale(0.015625)"/>
      <path id="DejaVuSans-64" d="M 2906 2969 
L 2906 4863 
L 3481 4863 
L 3481 0 
L 2906 0 
L 2906 525 
Q 2725 213 2448 61 
Q 2172 -91 1784 -91 
Q 1150 -91 751 415 
Q 353 922 353 1747 
Q 353 2572 751 3078 
Q 1150 3584 1784 3584 
Q 2172 3584 2448 3432 
Q 2725 3281 2906 2969 
z
M 947 1747 
Q 947 1113 1208 752 
Q 1469 391 1925 391 
Q 2381 391 2643 752 
Q 2906 1113 2906 1747 
Q 2906 2381 2643 2742 
Q 2381 3103 1925 3103 
Q 1469 3103 1208 2742 
Q 947 2381 947 1747 
z
" transform="scale(0.015625)"/>
      <path id="DejaVuSans-39" d="M 703 97 
L 703 672 
Q 941 559 1184 500 
Q 1428 441 1663 441 
Q 2288 441 2617 861 
Q 2947 1281 2994 2138 
Q 2813 1869 2534 1725 
Q 2256 1581 1919 1581 
Q 1219 1581 811 2004 
Q 403 2428 403 3163 
Q 403 3881 828 4315 
Q 1253 4750 1959 4750 
Q 2769 4750 3195 4129 
Q 3622 3509 3622 2328 
Q 3622 1225 3098 567 
Q 2575 -91 1691 -91 
Q 1453 -91 1209 -44 
Q 966 3 703 97 
z
M 1959 2075 
Q 2384 2075 2632 2365 
Q 2881 2656 2881 3163 
Q 2881 3666 2632 3958 
Q 2384 4250 1959 4250 
Q 1534 4250 1286 3958 
Q 1038 3666 1038 3163 
Q 1038 2656 1286 2365 
Q 1534 2075 1959 2075 
z
" transform="scale(0.015625)"/>
      <path id="DejaVuSans-33" d="M 2597 2516 
Q 3050 2419 3304 2112 
Q 3559 1806 3559 1356 
Q 3559 666 3084 287 
Q 2609 -91 1734 -91 
Q 1441 -91 1130 -33 
Q 819 25 488 141 
L 488 750 
Q 750 597 1062 519 
Q 1375 441 1716 441 
Q 2309 441 2620 675 
Q 2931 909 2931 1356 
Q 2931 1769 2642 2001 
Q 2353 2234 1838 2234 
L 1294 2234 
L 1294 2753 
L 1863 2753 
Q 2328 2753 2575 2939 
Q 2822 3125 2822 3475 
Q 2822 3834 2567 4026 
Q 2313 4219 1838 4219 
Q 1578 4219 1281 4162 
Q 984 4106 628 3988 
L 628 4550 
Q 988 4650 1302 4700 
Q 1616 4750 1894 4750 
Q 2613 4750 3031 4423 
Q 3450 4097 3450 3541 
Q 3450 3153 3228 2886 
Q 3006 2619 2597 2516 
z
" transform="scale(0.015625)"/>
     </defs>
     <use xlink:href="#DejaVuSans-76"/>
     <use xlink:href="#DejaVuSans-32" x="59.179688"/>
     <use xlink:href="#DejaVuSans-2e" x="122.802734"/>
     <use xlink:href="#DejaVuSans-36" x="154.589844"/>
     <use xlink:href="#DejaVuSans-2e" x="218.212891"/>
     <use xlink:href="#DejaVuSans-31" x="250"/>
     <use xlink:href="#DejaVuSans-2e" x="313.623047"/>
     <use xlink:href="#DejaVuSans-31" x="345.410156"/>
     <use xlink:href="#DejaVuSans-35" x="409.033203"/>
     <use xlink:href="#DejaVuSans-32" x="472.65625"/>
     <use xlink:href="#DejaVuSans-2c" x="536.279297"/>
     <use xlink:href="#DejaVuSans-20" x="568.066406"/>
     <use xlink:href="#DejaVuSans-68" x="599.853516"/>
     <use xlink:href="#DejaVuSans-76" x="663.232422"/>
     <use xlink:href="#DejaVuSans-2d" x="719.787109"/>
     <use xlink:href="#DejaVuSans-68" x="755.871094"/>
     <use xlink:href="#DejaVuSans-61" x="819.25"/>
     <use xlink:href="#DejaVuSans-73" x="880.529297"/>
     <use xlink:href="#DejaVuSans-68" x="932.628906"/>
     <use xlink:href="#DejaVuSans-3d" x="996.007812"/>
     <use xlink:href="#DejaVuSans-66" x="1079.796875"/>
     <use xlink:href="#DejaVuSans-66" x="1115.001953"/>
     <use xlink:href="#DejaVuSans-30" x="1150.207031"/>
     <use xlink:href="#DejaVuSans-65" x="1213.830078"/>
     <use xlink:href="#DejaVuSans-37" x="1275.353516"/>
     <use xlink:href="#DejaVuSans-31" x="1338.976562"/>
     <use xlink:href="#DejaVuSans-65" x="1402.599609"/>
     <use xlink:href="#DejaVuSans-38" x="1464.123047"/>
     <use xlink:href="#DejaVuSans-63" x="1527.746094"/>
     <use xlink:href="#DejaVuSans-64" x="1582.726562"/>
     <use xlink:href="#DejaVuSans-39" x="1646.203125"/>
     <use xlink:href="#DejaVuSans-37" x="1709.826172"/>
     <use xlink:href="#DejaVuSans-38" x="1773.449219"/>
     <use xlink:href="#DejaVuSans-33" x="1837.072266"/>
     <use xlink:href="#DejaVuSans-37" x="1900.695312"/>
     <use xlink:href="#DejaVuSans-33" x="1964.318359"/>
    </g>
   </g>
   <g id="legend_1">
    <g id="patch_7">
     <path d="M 48.16 165.78125 
L 177.381875 165.78125 
Q 181.381875 165.78125 181.381875 161.78125 
L 181.381875 17 
Q 181.381875 13 177.381875 13 
L 48.16 13 
Q 44.16 13 44.16 17 
L 44.16 161.78125 
Q 44.16 165.78125 48.16 165.78125 
z
" style="fill: #ffffff; opacity: 0.2; stroke: #cccccc; stroke-linejoin: miter"/>
    </g>
    <g id="line2d_42">
     <path d="M 52.16 29.196875 
L 72.16 29.196875 
L 92.16 29.196875 
" style="fill: none; stroke: #000000; stroke-width: 3; stroke-linecap: square"/>
    </g>
    <g id="text_8">
     <!-- -1: 3/3 -->
     <g transform="translate(108.16 36.196875) scale(0.2 -0.2)">
      <defs>
       <path id="DejaVuSans-3a" d="M 750 794 
L 1409 794 
L 1409 0 
L 750 0 
L 750 794 
z
M 750 3309 
L 1409 3309 
L 1409 2516 
L 750 2516 
L 750 3309 
z
" transform="scale(0.015625)"/>
       <path id="DejaVuSans-2f" d="M 1625 4666 
L 2156 4666 
L 531 -594 
L 0 -594 
L 1625 4666 
z
" transform="scale(0.015625)"/>
      </defs>
      <use xlink:href="#DejaVuSans-2d"/>
      <use xlink:href="#DejaVuSans-31" x="36.083984"/>
      <use xlink:href="#DejaVuSans-3a" x="99.707031"/>
      <use xlink:href="#DejaVuSans-20" x="133.398438"/>
      <use xlink:href="#DejaVuSans-33" x="165.185547"/>
      <use xlink:href="#DejaVuSans-2f" x="228.808594"/>
      <use xlink:href="#DejaVuSans-33" x="262.5"/>
     </g>
    </g>
    <g id="line2d_43">
     <path d="M 52.16 58.553125 
L 72.16 58.553125 
L 92.16 58.553125 
" style="fill: none; stroke: #00bfbf; stroke-width: 3; stroke-linecap: square"/>
    </g>
    <g id="text_9">
     <!-- -2: 2/1 -->
     <g transform="translate(108.16 65.553125) scale(0.2 -0.2)">
      <use xlink:href="#DejaVuSans-2d"/>
      <use xlink:href="#DejaVuSans-32" x="36.083984"/>
      <use xlink:href="#DejaVuSans-3a" x="99.707031"/>
      <use xlink:href="#DejaVuSans-20" x="133.398438"/>
      <use xlink:href="#DejaVuSans-32" x="165.185547"/>
      <use xlink:href="#DejaVuSans-2f" x="228.808594"/>
      <use xlink:href="#DejaVuSans-31" x="262.5"/>
     </g>
    </g>
    <g id="line2d_44">
     <path d="M 52.16 87.909375 
L 72.16 87.909375 
L 92.16 87.909375 
" style="fill: none; stroke: #bf00bf; stroke-width: 3; stroke-linecap: square"/>
    </g>
    <g id="text_10">
     <!-- -3: 0/0 -->
     <g transform="translate(108.16 94.909375) scale(0.2 -0.2)">
      <use xlink:href="#DejaVuSans-2d"/>
      <use xlink:href="#DejaVuSans-33" x="36.083984"/>
      <use xlink:href="#DejaVuSans-3a" x="99.707031"/>
      <use xlink:href="#DejaVuSans-20" x="133.398438"/>
      <use xlink:href="#DejaVuSans-30" x="165.185547"/>
      <use xlink:href="#DejaVuSans-2f" x="228.808594"/>
      <use xlink:href="#DejaVuSans-30" x="262.5"/>
     </g>
    </g>
    <g id="line2d_45">
     <path d="M 52.16 117.265625 
L 72.16 117.265625 
L 92.16 117.265625 
" style="fill: none; stroke: #ff0000; stroke-width: 3; stroke-linecap: square"/>
    </g>
    <g id="text_11">
     <!-- -4: 0/0 -->
     <g transform="translate(108.16 124.265625) scale(0.2 -0.2)">
      <defs>
       <path id="DejaVuSans-34" d="M 2419 4116 
L 825 1625 
L 2419 1625 
L 2419 4116 
z
M 2253 4666 
L 3047 4666 
L 3047 1625 
L 3713 1625 
L 3713 1100 
L 3047 1100 
L 3047 0 
L 2419 0 
L 2419 1100 
L 313 1100 
L 313 1709 
L 2253 4666 
z
" transform="scale(0.015625)"/>
      </defs>
      <use xlink:href="#DejaVuSans-2d"/>
      <use xlink:href="#DejaVuSans-34" x="36.083984"/>
      <use xlink:href="#DejaVuSans-3a" x="99.707031"/>
      <use xlink:href="#DejaVuSans-20" x="133.398438"/>
      <use xlink:href="#DejaVuSans-30" x="165.185547"/>
      <use xlink:href="#DejaVuSans-2f" x="228.808594"/>
      <use xlink:href="#DejaVuSans-30" x="262.5"/>
     </g>
    </g>
    <g id="line2d_46">
     <path d="M 52.16 146.621875 
L 72.16 146.621875 
L 92.16 146.621875 
" style="fill: none; stroke: #0000ff; stroke-width: 3; stroke-linecap: square"/>
    </g>
    <g id="text_12">
     <!-- -5: 0/0 -->
     <g transform="translate(108.16 153.621875) scale(0.2 -0.2)">
      <use xlink:href="#DejaVuSans-2d"/>
      <use xlink:href="#DejaVuSans-35" x="36.083984"/>
      <use xlink:href="#DejaVuSans-3a" x="99.707031"/>
      <use xlink:href="#DejaVuSans-20" x="133.398438"/>
      <use xlink:href="#DejaVuSans-30" x="165.185547"/>
      <use xlink:href="#DejaVuSans-2f" x="228.808594"/>
      <use xlink:href="#DejaVuSans-30" x="262.5"/>
     </g>
    </g>
   </g>
  </g>
 </g>
 <defs>
  <clipPath id="pb6bbbfedb3">
   <rect x="34.16" y="3" width="412.764475" height="288.28"/>
  </clipPath>
 </defs>
</svg>
