<?xml version="1.0" encoding="utf-8" standalone="no"?>
<!DOCTYPE svg PUBLIC "-//W3C//DTD SVG 1.1//EN"
  "http://www.w3.org/Graphics/SVG/1.1/DTD/svg11.dtd">
<svg xmlns:xlink="http://www.w3.org/1999/xlink" width="460.8pt" height="345.6pt" viewBox="0 0 460.8 345.6" xmlns="http://www.w3.org/2000/svg" version="1.1">
 <metadata>
  <rdf:RDF xmlns:dc="http://purl.org/dc/elements/1.1/" xmlns:cc="http://creativecommons.org/ns#" xmlns:rdf="http://www.w3.org/1999/02/22-rdf-syntax-ns#">
   <cc:Work>
    <dc:type rdf:resource="http://purl.org/dc/dcmitype/StillImage"/>
    <dc:date>2023-03-13T19:42:09.746852</dc:date>
    <dc:format>image/svg+xml</dc:format>
    <dc:creator>
     <cc:Agent>
      <dc:title>Matplotlib v3.7.0, https://matplotlib.org/</dc:title>
     </cc:Agent>
    </dc:creator>
   </cc:Work>
  </rdf:RDF>
 </metadata>
 <defs>
  <style type="text/css">*{stroke-linejoin: round; stroke-linecap: butt}</style>
 </defs>
 <g id="figure_1">
  <g id="patch_1">
   <path d="M 0 345.6 
L 460.8 345.6 
L 460.8 0 
L 0 0 
z
" style="fill: #ffffff"/>
  </g>
  <g id="axes_1">
   <g id="patch_2">
    <path d="M 34.16 291.28 
L 453.192 291.28 
L 453.192 3 
L 34.16 3 
z
" style="fill: #ffffff"/>
   </g>
   <g id="matplotlib.axis_1">
    <g id="xtick_1">
     <g id="line2d_1">
      <path d="M 117.020506 291.28 
L 117.020506 3 
" clip-path="url(#p2a39ef27f5)" style="fill: none; stroke: #b0b0b0; stroke-width: 0.8; stroke-linecap: square"/>
     </g>
     <g id="line2d_2">
      <defs>
       <path id="m79429891cd" d="M 0 0 
L 0 3.5 
" style="stroke: #000000; stroke-width: 0.8"/>
      </defs>
      <g>
       <use xlink:href="#m79429891cd" x="117.020506" y="291.28" style="stroke: #000000; stroke-width: 0.8"/>
      </g>
     </g>
     <g id="text_1">
      <!-- -1 -->
      <g transform="translate(107.050194 313.476875) scale(0.2 -0.2)">
       <defs>
        <path id="DejaVuSans-2d" d="M 313 2009 
L 1997 2009 
L 1997 1497 
L 313 1497 
L 313 2009 
z
" transform="scale(0.015625)"/>
        <path id="DejaVuSans-31" d="M 794 531 
L 1825 531 
L 1825 4091 
L 703 3866 
L 703 4441 
L 1819 4666 
L 2450 4666 
L 2450 531 
L 3481 531 
L 3481 0 
L 794 0 
L 794 531 
z
" transform="scale(0.015625)"/>
       </defs>
       <use xlink:href="#DejaVuSans-2d"/>
       <use xlink:href="#DejaVuSans-31" x="36.083984"/>
      </g>
     </g>
    </g>
    <g id="xtick_2">
     <g id="line2d_3">
      <path d="M 243.676 291.28 
L 243.676 3 
" clip-path="url(#p2a39ef27f5)" style="fill: none; stroke: #b0b0b0; stroke-width: 0.8; stroke-linecap: square"/>
     </g>
     <g id="line2d_4">
      <g>
       <use xlink:href="#m79429891cd" x="243.676" y="291.28" style="stroke: #000000; stroke-width: 0.8"/>
      </g>
     </g>
     <g id="text_2">
      <!-- 0 -->
      <g transform="translate(237.3135 313.476875) scale(0.2 -0.2)">
       <defs>
        <path id="DejaVuSans-30" d="M 2034 4250 
Q 1547 4250 1301 3770 
Q 1056 3291 1056 2328 
Q 1056 1369 1301 889 
Q 1547 409 2034 409 
Q 2525 409 2770 889 
Q 3016 1369 3016 2328 
Q 3016 3291 2770 3770 
Q 2525 4250 2034 4250 
z
M 2034 4750 
Q 2819 4750 3233 4129 
Q 3647 3509 3647 2328 
Q 3647 1150 3233 529 
Q 2819 -91 2034 -91 
Q 1250 -91 836 529 
Q 422 1150 422 2328 
Q 422 3509 836 4129 
Q 1250 4750 2034 4750 
z
" transform="scale(0.015625)"/>
       </defs>
       <use xlink:href="#DejaVuSans-30"/>
      </g>
     </g>
    </g>
    <g id="xtick_3">
     <g id="line2d_5">
      <path d="M 370.331494 291.28 
L 370.331494 3 
" clip-path="url(#p2a39ef27f5)" style="fill: none; stroke: #b0b0b0; stroke-width: 0.8; stroke-linecap: square"/>
     </g>
     <g id="line2d_6">
      <g>
       <use xlink:href="#m79429891cd" x="370.331494" y="291.28" style="stroke: #000000; stroke-width: 0.8"/>
      </g>
     </g>
     <g id="text_3">
      <!-- 1 -->
      <g transform="translate(363.968994 313.476875) scale(0.2 -0.2)">
       <use xlink:href="#DejaVuSans-31"/>
      </g>
     </g>
    </g>
    <g id="xtick_4">
     <g id="line2d_7">
      <defs>
       <path id="m395b6a5edf" d="M 0 0 
L 0 2 
" style="stroke: #000000; stroke-width: 0.6"/>
      </defs>
      <g>
       <use xlink:href="#m395b6a5edf" x="50.795041" y="291.28" style="stroke: #000000; stroke-width: 0.6"/>
      </g>
     </g>
    </g>
    <g id="xtick_5">
     <g id="line2d_8">
      <g>
       <use xlink:href="#m395b6a5edf" x="66.619218" y="291.28" style="stroke: #000000; stroke-width: 0.6"/>
      </g>
     </g>
    </g>
    <g id="xtick_6">
     <g id="line2d_9">
      <g>
       <use xlink:href="#m395b6a5edf" x="78.893404" y="291.28" style="stroke: #000000; stroke-width: 0.6"/>
      </g>
     </g>
    </g>
    <g id="xtick_7">
     <g id="line2d_10">
      <g>
       <use xlink:href="#m395b6a5edf" x="88.922144" y="291.28" style="stroke: #000000; stroke-width: 0.6"/>
      </g>
     </g>
    </g>
    <g id="xtick_8">
     <g id="line2d_11">
      <g>
       <use xlink:href="#m395b6a5edf" x="97.401322" y="291.28" style="stroke: #000000; stroke-width: 0.6"/>
      </g>
     </g>
    </g>
    <g id="xtick_9">
     <g id="line2d_12">
      <g>
       <use xlink:href="#m395b6a5edf" x="104.746321" y="291.28" style="stroke: #000000; stroke-width: 0.6"/>
      </g>
     </g>
    </g>
    <g id="xtick_10">
     <g id="line2d_13">
      <g>
       <use xlink:href="#m395b6a5edf" x="111.225069" y="291.28" style="stroke: #000000; stroke-width: 0.6"/>
      </g>
     </g>
    </g>
    <g id="xtick_11">
     <g id="line2d_14">
      <g>
       <use xlink:href="#m395b6a5edf" x="155.147609" y="291.28" style="stroke: #000000; stroke-width: 0.6"/>
      </g>
     </g>
    </g>
    <g id="xtick_12">
     <g id="line2d_15">
      <g>
       <use xlink:href="#m395b6a5edf" x="177.450534" y="291.28" style="stroke: #000000; stroke-width: 0.6"/>
      </g>
     </g>
    </g>
    <g id="xtick_13">
     <g id="line2d_16">
      <g>
       <use xlink:href="#m395b6a5edf" x="193.274712" y="291.28" style="stroke: #000000; stroke-width: 0.6"/>
      </g>
     </g>
    </g>
    <g id="xtick_14">
     <g id="line2d_17">
      <g>
       <use xlink:href="#m395b6a5edf" x="205.548897" y="291.28" style="stroke: #000000; stroke-width: 0.6"/>
      </g>
     </g>
    </g>
    <g id="xtick_15">
     <g id="line2d_18">
      <g>
       <use xlink:href="#m395b6a5edf" x="215.577637" y="291.28" style="stroke: #000000; stroke-width: 0.6"/>
      </g>
     </g>
    </g>
    <g id="xtick_16">
     <g id="line2d_19">
      <g>
       <use xlink:href="#m395b6a5edf" x="224.056816" y="291.28" style="stroke: #000000; stroke-width: 0.6"/>
      </g>
     </g>
    </g>
    <g id="xtick_17">
     <g id="line2d_20">
      <g>
       <use xlink:href="#m395b6a5edf" x="231.401814" y="291.28" style="stroke: #000000; stroke-width: 0.6"/>
      </g>
     </g>
    </g>
    <g id="xtick_18">
     <g id="line2d_21">
      <g>
       <use xlink:href="#m395b6a5edf" x="237.880562" y="291.28" style="stroke: #000000; stroke-width: 0.6"/>
      </g>
     </g>
    </g>
    <g id="xtick_19">
     <g id="line2d_22">
      <g>
       <use xlink:href="#m395b6a5edf" x="281.803103" y="291.28" style="stroke: #000000; stroke-width: 0.6"/>
      </g>
     </g>
    </g>
    <g id="xtick_20">
     <g id="line2d_23">
      <g>
       <use xlink:href="#m395b6a5edf" x="304.106028" y="291.28" style="stroke: #000000; stroke-width: 0.6"/>
      </g>
     </g>
    </g>
    <g id="xtick_21">
     <g id="line2d_24">
      <g>
       <use xlink:href="#m395b6a5edf" x="319.930205" y="291.28" style="stroke: #000000; stroke-width: 0.6"/>
      </g>
     </g>
    </g>
    <g id="xtick_22">
     <g id="line2d_25">
      <g>
       <use xlink:href="#m395b6a5edf" x="332.204391" y="291.28" style="stroke: #000000; stroke-width: 0.6"/>
      </g>
     </g>
    </g>
    <g id="xtick_23">
     <g id="line2d_26">
      <g>
       <use xlink:href="#m395b6a5edf" x="342.233131" y="291.28" style="stroke: #000000; stroke-width: 0.6"/>
      </g>
     </g>
    </g>
    <g id="xtick_24">
     <g id="line2d_27">
      <g>
       <use xlink:href="#m395b6a5edf" x="350.712309" y="291.28" style="stroke: #000000; stroke-width: 0.6"/>
      </g>
     </g>
    </g>
    <g id="xtick_25">
     <g id="line2d_28">
      <g>
       <use xlink:href="#m395b6a5edf" x="358.057308" y="291.28" style="stroke: #000000; stroke-width: 0.6"/>
      </g>
     </g>
    </g>
    <g id="xtick_26">
     <g id="line2d_29">
      <g>
       <use xlink:href="#m395b6a5edf" x="364.536056" y="291.28" style="stroke: #000000; stroke-width: 0.6"/>
      </g>
     </g>
    </g>
    <g id="xtick_27">
     <g id="line2d_30">
      <g>
       <use xlink:href="#m395b6a5edf" x="408.458596" y="291.28" style="stroke: #000000; stroke-width: 0.6"/>
      </g>
     </g>
    </g>
    <g id="xtick_28">
     <g id="line2d_31">
      <g>
       <use xlink:href="#m395b6a5edf" x="430.761522" y="291.28" style="stroke: #000000; stroke-width: 0.6"/>
      </g>
     </g>
    </g>
    <g id="xtick_29">
     <g id="line2d_32">
      <g>
       <use xlink:href="#m395b6a5edf" x="446.585699" y="291.28" style="stroke: #000000; stroke-width: 0.6"/>
      </g>
     </g>
    </g>
    <g id="text_4">
     <!-- log10 of FEvals ratio -->
     <g transform="translate(141.371312 336.833125) scale(0.2 -0.2)">
      <defs>
       <path id="DejaVuSans-6c" d="M 603 4863 
L 1178 4863 
L 1178 0 
L 603 0 
L 603 4863 
z
" transform="scale(0.015625)"/>
       <path id="DejaVuSans-6f" d="M 1959 3097 
Q 1497 3097 1228 2736 
Q 959 2375 959 1747 
Q 959 1119 1226 758 
Q 1494 397 1959 397 
Q 2419 397 2687 759 
Q 2956 1122 2956 1747 
Q 2956 2369 2687 2733 
Q 2419 3097 1959 3097 
z
M 1959 3584 
Q 2709 3584 3137 3096 
Q 3566 2609 3566 1747 
Q 3566 888 3137 398 
Q 2709 -91 1959 -91 
Q 1206 -91 779 398 
Q 353 888 353 1747 
Q 353 2609 779 3096 
Q 1206 3584 1959 3584 
z
" transform="scale(0.015625)"/>
       <path id="DejaVuSans-67" d="M 2906 1791 
Q 2906 2416 2648 2759 
Q 2391 3103 1925 3103 
Q 1463 3103 1205 2759 
Q 947 2416 947 1791 
Q 947 1169 1205 825 
Q 1463 481 1925 481 
Q 2391 481 2648 825 
Q 2906 1169 2906 1791 
z
M 3481 434 
Q 3481 -459 3084 -895 
Q 2688 -1331 1869 -1331 
Q 1566 -1331 1297 -1286 
Q 1028 -1241 775 -1147 
L 775 -588 
Q 1028 -725 1275 -790 
Q 1522 -856 1778 -856 
Q 2344 -856 2625 -561 
Q 2906 -266 2906 331 
L 2906 616 
Q 2728 306 2450 153 
Q 2172 0 1784 0 
Q 1141 0 747 490 
Q 353 981 353 1791 
Q 353 2603 747 3093 
Q 1141 3584 1784 3584 
Q 2172 3584 2450 3431 
Q 2728 3278 2906 2969 
L 2906 3500 
L 3481 3500 
L 3481 434 
z
" transform="scale(0.015625)"/>
       <path id="DejaVuSans-20" transform="scale(0.015625)"/>
       <path id="DejaVuSans-66" d="M 2375 4863 
L 2375 4384 
L 1825 4384 
Q 1516 4384 1395 4259 
Q 1275 4134 1275 3809 
L 1275 3500 
L 2222 3500 
L 2222 3053 
L 1275 3053 
L 1275 0 
L 697 0 
L 697 3053 
L 147 3053 
L 147 3500 
L 697 3500 
L 697 3744 
Q 697 4328 969 4595 
Q 1241 4863 1831 4863 
L 2375 4863 
z
" transform="scale(0.015625)"/>
       <path id="DejaVuSans-46" d="M 628 4666 
L 3309 4666 
L 3309 4134 
L 1259 4134 
L 1259 2759 
L 3109 2759 
L 3109 2228 
L 1259 2228 
L 1259 0 
L 628 0 
L 628 4666 
z
" transform="scale(0.015625)"/>
       <path id="DejaVuSans-45" d="M 628 4666 
L 3578 4666 
L 3578 4134 
L 1259 4134 
L 1259 2753 
L 3481 2753 
L 3481 2222 
L 1259 2222 
L 1259 531 
L 3634 531 
L 3634 0 
L 628 0 
L 628 4666 
z
" transform="scale(0.015625)"/>
       <path id="DejaVuSans-76" d="M 191 3500 
L 800 3500 
L 1894 563 
L 2988 3500 
L 3597 3500 
L 2284 0 
L 1503 0 
L 191 3500 
z
" transform="scale(0.015625)"/>
       <path id="DejaVuSans-61" d="M 2194 1759 
Q 1497 1759 1228 1600 
Q 959 1441 959 1056 
Q 959 750 1161 570 
Q 1363 391 1709 391 
Q 2188 391 2477 730 
Q 2766 1069 2766 1631 
L 2766 1759 
L 2194 1759 
z
M 3341 1997 
L 3341 0 
L 2766 0 
L 2766 531 
Q 2569 213 2275 61 
Q 1981 -91 1556 -91 
Q 1019 -91 701 211 
Q 384 513 384 1019 
Q 384 1609 779 1909 
Q 1175 2209 1959 2209 
L 2766 2209 
L 2766 2266 
Q 2766 2663 2505 2880 
Q 2244 3097 1772 3097 
Q 1472 3097 1187 3025 
Q 903 2953 641 2809 
L 641 3341 
Q 956 3463 1253 3523 
Q 1550 3584 1831 3584 
Q 2591 3584 2966 3190 
Q 3341 2797 3341 1997 
z
" transform="scale(0.015625)"/>
       <path id="DejaVuSans-73" d="M 2834 3397 
L 2834 2853 
Q 2591 2978 2328 3040 
Q 2066 3103 1784 3103 
Q 1356 3103 1142 2972 
Q 928 2841 928 2578 
Q 928 2378 1081 2264 
Q 1234 2150 1697 2047 
L 1894 2003 
Q 2506 1872 2764 1633 
Q 3022 1394 3022 966 
Q 3022 478 2636 193 
Q 2250 -91 1575 -91 
Q 1294 -91 989 -36 
Q 684 19 347 128 
L 347 722 
Q 666 556 975 473 
Q 1284 391 1588 391 
Q 1994 391 2212 530 
Q 2431 669 2431 922 
Q 2431 1156 2273 1281 
Q 2116 1406 1581 1522 
L 1381 1569 
Q 847 1681 609 1914 
Q 372 2147 372 2553 
Q 372 3047 722 3315 
Q 1072 3584 1716 3584 
Q 2034 3584 2315 3537 
Q 2597 3491 2834 3397 
z
" transform="scale(0.015625)"/>
       <path id="DejaVuSans-72" d="M 2631 2963 
Q 2534 3019 2420 3045 
Q 2306 3072 2169 3072 
Q 1681 3072 1420 2755 
Q 1159 2438 1159 1844 
L 1159 0 
L 581 0 
L 581 3500 
L 1159 3500 
L 1159 2956 
Q 1341 3275 1631 3429 
Q 1922 3584 2338 3584 
Q 2397 3584 2469 3576 
Q 2541 3569 2628 3553 
L 2631 2963 
z
" transform="scale(0.015625)"/>
       <path id="DejaVuSans-74" d="M 1172 4494 
L 1172 3500 
L 2356 3500 
L 2356 3053 
L 1172 3053 
L 1172 1153 
Q 1172 725 1289 603 
Q 1406 481 1766 481 
L 2356 481 
L 2356 0 
L 1766 0 
Q 1100 0 847 248 
Q 594 497 594 1153 
L 594 3053 
L 172 3053 
L 172 3500 
L 594 3500 
L 594 4494 
L 1172 4494 
z
" transform="scale(0.015625)"/>
       <path id="DejaVuSans-69" d="M 603 3500 
L 1178 3500 
L 1178 0 
L 603 0 
L 603 3500 
z
M 603 4863 
L 1178 4863 
L 1178 4134 
L 603 4134 
L 603 4863 
z
" transform="scale(0.015625)"/>
      </defs>
      <use xlink:href="#DejaVuSans-6c"/>
      <use xlink:href="#DejaVuSans-6f" x="27.783203"/>
      <use xlink:href="#DejaVuSans-67" x="88.964844"/>
      <use xlink:href="#DejaVuSans-31" x="152.441406"/>
      <use xlink:href="#DejaVuSans-30" x="216.064453"/>
      <use xlink:href="#DejaVuSans-20" x="279.6875"/>
      <use xlink:href="#DejaVuSans-6f" x="311.474609"/>
      <use xlink:href="#DejaVuSans-66" x="372.65625"/>
      <use xlink:href="#DejaVuSans-20" x="407.861328"/>
      <use xlink:href="#DejaVuSans-46" x="439.648438"/>
      <use xlink:href="#DejaVuSans-45" x="497.167969"/>
      <use xlink:href="#DejaVuSans-76" x="560.351562"/>
      <use xlink:href="#DejaVuSans-61" x="619.53125"/>
      <use xlink:href="#DejaVuSans-6c" x="680.810547"/>
      <use xlink:href="#DejaVuSans-73" x="708.59375"/>
      <use xlink:href="#DejaVuSans-20" x="760.693359"/>
      <use xlink:href="#DejaVuSans-72" x="792.480469"/>
      <use xlink:href="#DejaVuSans-61" x="833.59375"/>
      <use xlink:href="#DejaVuSans-74" x="894.873047"/>
      <use xlink:href="#DejaVuSans-69" x="934.082031"/>
      <use xlink:href="#DejaVuSans-6f" x="961.865234"/>
     </g>
    </g>
   </g>
   <g id="matplotlib.axis_2">
    <g id="ytick_1">
     <g id="line2d_33">
      <path d="M 34.16 288.453725 
L 453.192 288.453725 
" clip-path="url(#p2a39ef27f5)" style="fill: none; stroke: #b0b0b0; stroke-width: 0.8; stroke-linecap: square"/>
     </g>
     <g id="line2d_34">
      <defs>
       <path id="mfe67855664" d="M 0 0 
L -3.5 0 
" style="stroke: #000000; stroke-width: 0.8"/>
      </defs>
      <g>
       <use xlink:href="#mfe67855664" x="34.16" y="288.453725" style="stroke: #000000; stroke-width: 0.8"/>
      </g>
     </g>
    </g>
    <g id="ytick_2">
     <g id="line2d_35">
      <path d="M 34.16 217.796863 
L 453.192 217.796863 
" clip-path="url(#p2a39ef27f5)" style="fill: none; stroke: #b0b0b0; stroke-width: 0.8; stroke-linecap: square"/>
     </g>
     <g id="line2d_36">
      <g>
       <use xlink:href="#mfe67855664" x="34.16" y="217.796863" style="stroke: #000000; stroke-width: 0.8"/>
      </g>
     </g>
    </g>
    <g id="ytick_3">
     <g id="line2d_37">
      <path d="M 34.16 147.14 
L 453.192 147.14 
" clip-path="url(#p2a39ef27f5)" style="fill: none; stroke: #b0b0b0; stroke-width: 0.8; stroke-linecap: square"/>
     </g>
     <g id="line2d_38">
      <g>
       <use xlink:href="#mfe67855664" x="34.16" y="147.14" style="stroke: #000000; stroke-width: 0.8"/>
      </g>
     </g>
    </g>
    <g id="ytick_4">
     <g id="line2d_39">
      <path d="M 34.16 76.483137 
L 453.192 76.483137 
" clip-path="url(#p2a39ef27f5)" style="fill: none; stroke: #b0b0b0; stroke-width: 0.8; stroke-linecap: square"/>
     </g>
     <g id="line2d_40">
      <g>
       <use xlink:href="#mfe67855664" x="34.16" y="76.483137" style="stroke: #000000; stroke-width: 0.8"/>
      </g>
     </g>
    </g>
    <g id="ytick_5">
     <g id="line2d_41">
      <path d="M 34.16 5.826275 
L 453.192 5.826275 
" clip-path="url(#p2a39ef27f5)" style="fill: none; stroke: #b0b0b0; stroke-width: 0.8; stroke-linecap: square"/>
     </g>
     <g id="line2d_42">
      <g>
       <use xlink:href="#mfe67855664" x="34.16" y="5.826275" style="stroke: #000000; stroke-width: 0.8"/>
      </g>
     </g>
    </g>
    <g id="text_5">
     <!-- proportion of trials -->
     <g transform="translate(19.000625 240.14625) rotate(-90) scale(0.2 -0.2)">
      <defs>
       <path id="DejaVuSans-70" d="M 1159 525 
L 1159 -1331 
L 581 -1331 
L 581 3500 
L 1159 3500 
L 1159 2969 
Q 1341 3281 1617 3432 
Q 1894 3584 2278 3584 
Q 2916 3584 3314 3078 
Q 3713 2572 3713 1747 
Q 3713 922 3314 415 
Q 2916 -91 2278 -91 
Q 1894 -91 1617 61 
Q 1341 213 1159 525 
z
M 3116 1747 
Q 3116 2381 2855 2742 
Q 2594 3103 2138 3103 
Q 1681 3103 1420 2742 
Q 1159 2381 1159 1747 
Q 1159 1113 1420 752 
Q 1681 391 2138 391 
Q 2594 391 2855 752 
Q 3116 1113 3116 1747 
z
" transform="scale(0.015625)"/>
       <path id="DejaVuSans-6e" d="M 3513 2113 
L 3513 0 
L 2938 0 
L 2938 2094 
Q 2938 2591 2744 2837 
Q 2550 3084 2163 3084 
Q 1697 3084 1428 2787 
Q 1159 2491 1159 1978 
L 1159 0 
L 581 0 
L 581 3500 
L 1159 3500 
L 1159 2956 
Q 1366 3272 1645 3428 
Q 1925 3584 2291 3584 
Q 2894 3584 3203 3211 
Q 3513 2838 3513 2113 
z
" transform="scale(0.015625)"/>
      </defs>
      <use xlink:href="#DejaVuSans-70"/>
      <use xlink:href="#DejaVuSans-72" x="63.476562"/>
      <use xlink:href="#DejaVuSans-6f" x="102.339844"/>
      <use xlink:href="#DejaVuSans-70" x="163.521484"/>
      <use xlink:href="#DejaVuSans-6f" x="226.998047"/>
      <use xlink:href="#DejaVuSans-72" x="288.179688"/>
      <use xlink:href="#DejaVuSans-74" x="329.292969"/>
      <use xlink:href="#DejaVuSans-69" x="368.501953"/>
      <use xlink:href="#DejaVuSans-6f" x="396.285156"/>
      <use xlink:href="#DejaVuSans-6e" x="457.466797"/>
      <use xlink:href="#DejaVuSans-20" x="520.845703"/>
      <use xlink:href="#DejaVuSans-6f" x="552.632812"/>
      <use xlink:href="#DejaVuSans-66" x="613.814453"/>
      <use xlink:href="#DejaVuSans-20" x="649.019531"/>
      <use xlink:href="#DejaVuSans-74" x="680.806641"/>
      <use xlink:href="#DejaVuSans-72" x="720.015625"/>
      <use xlink:href="#DejaVuSans-69" x="761.128906"/>
      <use xlink:href="#DejaVuSans-61" x="788.912109"/>
      <use xlink:href="#DejaVuSans-6c" x="850.191406"/>
      <use xlink:href="#DejaVuSans-73" x="877.974609"/>
     </g>
    </g>
   </g>
   <g id="line2d_43">
    <path d="M 34.16 254.994052 
L 91.966719 254.994052 
L 91.966719 254.282145 
L 94.116419 254.282145 
L 94.116419 253.570237 
L 104.001852 253.570237 
L 104.001852 252.858329 
L 110.824565 252.858329 
L 110.824565 252.146421 
L 126.00914 252.146421 
L 126.00914 251.434513 
L 129.790759 251.434513 
L 129.790759 250.722605 
L 130.145134 250.722605 
L 130.145134 250.010697 
L 131.940459 250.010697 
L 131.940459 249.298789 
L 141.825892 249.298789 
L 141.825892 248.586881 
L 147.572364 248.586881 
L 147.572364 247.874973 
L 148.648605 247.874973 
L 148.648605 247.163065 
L 151.769405 247.163065 
L 151.769405 246.451157 
L 151.992291 246.451157 
L 151.992291 245.739249 
L 154.141991 245.739249 
L 154.141991 245.027341 
L 155.905399 245.027341 
L 155.905399 244.315433 
L 156.379487 244.315433 
L 156.379487 243.603525 
L 157.09062 243.603525 
L 157.09062 242.891618 
L 158.529187 242.891618 
L 158.529187 242.17971 
L 161.226614 242.17971 
L 161.226614 241.467802 
L 162.371849 241.467802 
L 162.371849 240.755894 
L 164.027424 240.755894 
L 164.027424 240.043986 
L 168.41462 240.043986 
L 168.41462 239.332078 
L 170.850137 239.332078 
L 170.91144 237.908262 
L 171.346927 237.908262 
L 171.346927 237.196354 
L 173.845877 237.196354 
L 173.845877 236.484446 
L 175.237333 236.484446 
L 175.237333 235.772538 
L 175.482921 235.772538 
L 175.482921 235.06063 
L 177.41363 235.06063 
L 177.41363 234.348722 
L 177.557654 234.348722 
L 177.557654 233.636814 
L 179.659419 233.636814 
L 179.659419 232.924906 
L 182.17964 232.924906 
L 182.17964 232.212998 
L 182.512551 232.212998 
L 182.512551 231.501091 
L 183.330208 231.501091 
L 183.330208 230.789183 
L 183.876538 230.789183 
L 183.876538 230.077275 
L 184.806082 230.077275 
L 184.806082 229.365367 
L 186.461174 229.365367 
L 186.461174 228.653459 
L 187.034387 228.653459 
L 187.034387 227.941551 
L 187.201736 227.941551 
L 187.201736 227.229643 
L 188.980026 227.229643 
L 188.980026 226.517735 
L 189.351436 226.517735 
L 189.351436 225.805827 
L 191.607742 225.805827 
L 191.607742 225.093919 
L 193.197145 225.093919 
L 193.197145 224.382011 
L 193.548146 224.382011 
L 193.548146 223.670103 
L 194.417948 223.670103 
L 194.417948 222.958195 
L 197.008802 222.958195 
L 197.008802 222.246287 
L 197.765265 222.246287 
L 197.765265 221.534379 
L 198.136823 221.534379 
L 198.136823 220.822471 
L 198.635067 220.822471 
L 198.635067 220.110564 
L 199.23687 220.110564 
L 199.23687 219.398656 
L 199.606142 219.398656 
L 199.606142 218.686748 
L 200.195888 218.686748 
L 200.195888 217.97484 
L 200.752706 217.97484 
L 200.752706 217.262932 
L 202.272817 217.262932 
L 202.272817 216.551024 
L 204.927356 216.551024 
L 204.927356 215.839116 
L 205.518716 215.839116 
L 205.518716 215.127208 
L 205.851627 215.127208 
L 205.851627 214.4153 
L 206.059583 214.4153 
L 206.158808 212.991484 
L 207.39892 212.991484 
L 207.39892 212.279576 
L 208.145158 212.279576 
L 208.155997 210.85576 
L 208.308509 210.85576 
L 208.308509 210.143852 
L 209.090473 210.143852 
L 209.090473 209.431944 
L 209.468978 209.431944 
L 209.468978 208.720037 
L 210.373463 208.720037 
L 210.373463 208.008129 
L 211.590998 208.008129 
L 211.618679 206.584313 
L 212.16493 206.584313 
L 212.16493 205.872405 
L 212.49784 205.872405 
L 212.49784 205.160497 
L 214.34629 205.160497 
L 214.411687 203.736681 
L 214.791371 203.736681 
L 214.791371 203.024773 
L 215.634172 203.024773 
L 215.634172 202.312865 
L 217.019677 202.312865 
L 217.019677 201.600957 
L 218.193942 201.600957 
L 218.193942 200.889049 
L 218.613209 200.889049 
L 218.613209 200.177141 
L 219.183663 200.177141 
L 219.183663 199.465233 
L 219.85129 199.465233 
L 219.85129 198.753325 
L 220.771913 198.753325 
L 220.771913 198.041417 
L 221.504112 198.041417 
L 221.504112 197.32951 
L 222.397421 197.32951 
L 222.397421 196.617602 
L 222.769067 196.617602 
L 222.769067 195.905694 
L 224.285214 195.905694 
L 224.285214 195.193786 
L 225.016655 195.193786 
L 225.016655 194.481878 
L 225.150171 194.481878 
L 225.150171 193.76997 
L 226.13105 193.76997 
L 226.13105 192.346154 
L 226.481408 192.346154 
L 226.481408 191.634246 
L 226.784617 191.634246 
L 226.784617 190.922338 
L 226.91273 190.922338 
L 226.91273 190.21043 
L 228.090281 190.21043 
L 228.090281 189.498522 
L 228.326825 189.498522 
L 228.326825 188.786614 
L 228.550117 188.786614 
L 228.550117 188.074706 
L 228.667994 188.074706 
L 228.667994 187.362798 
L 228.949442 187.362798 
L 228.949442 186.650891 
L 229.431782 186.650891 
L 229.431782 185.938983 
L 230.699817 185.938983 
L 230.699817 185.227075 
L 231.129849 185.227075 
L 231.129849 184.515167 
L 234.470778 184.515167 
L 234.470778 183.803259 
L 234.930074 183.803259 
L 234.955099 182.379443 
L 237.997263 182.379443 
L 237.997263 181.667535 
L 238.270048 181.667535 
L 238.270048 180.955627 
L 238.872323 180.955627 
L 238.872323 180.243719 
L 239.038898 180.243719 
L 239.038898 179.531811 
L 239.9087 179.531811 
L 239.9087 178.819903 
L 240.106555 178.819903 
L 240.106555 178.107995 
L 240.58525 178.107995 
L 240.58525 177.396087 
L 241.576288 177.396087 
L 241.576288 176.684179 
L 241.952285 176.684179 
L 242.028997 175.260364 
L 242.346588 175.260364 
L 242.346588 174.548456 
L 242.763272 174.548456 
L 242.838169 173.12464 
L 243.096183 173.12464 
L 243.096183 172.412732 
L 243.707971 172.412732 
L 243.707971 171.700824 
L 245.276915 171.700824 
L 245.276915 170.988916 
L 245.389714 170.988916 
L 245.42777 169.5651 
L 245.973559 169.5651 
L 245.976763 168.141284 
L 246.486746 168.141284 
L 246.527978 166.717468 
L 247.407963 166.717468 
L 247.407963 166.00556 
L 247.61802 166.00556 
L 247.61802 165.293652 
L 247.752367 165.293652 
L 247.752367 164.581744 
L 248.47733 164.581744 
L 248.47733 163.869837 
L 248.598499 163.869837 
L 248.598499 163.157929 
L 250.193882 163.157929 
L 250.193882 162.446021 
L 250.873942 162.446021 
L 250.873942 161.734113 
L 251.349604 161.734113 
L 251.349604 161.022205 
L 251.633314 161.022205 
L 251.633314 160.310297 
L 252.241673 160.310297 
L 252.241673 159.598389 
L 252.916517 159.598389 
L 252.916517 158.886481 
L 255.066217 158.886481 
L 255.066217 158.174573 
L 255.45789 158.174573 
L 255.45789 157.462665 
L 255.917724 157.462665 
L 256.02051 154.615033 
L 256.254057 154.615033 
L 256.254057 153.903125 
L 256.787526 153.903125 
L 256.787526 153.191217 
L 257.072973 153.191217 
L 257.072973 152.47931 
L 257.2786 152.47931 
L 257.2786 151.767402 
L 257.562888 151.767402 
L 257.606866 150.343586 
L 257.797936 150.343586 
L 257.797936 149.631678 
L 258.595952 149.631678 
L 258.595952 148.91977 
L 259.684076 148.91977 
L 259.684076 148.207862 
L 260.5543 148.207862 
L 260.5543 147.495954 
L 260.715364 147.495954 
L 260.738326 145.36023 
L 261.071237 145.36023 
L 261.124923 143.224506 
L 261.414594 143.224506 
L 261.414594 142.512598 
L 261.641094 142.512598 
L 261.641094 141.80069 
L 262.366057 141.80069 
L 262.366057 141.088783 
L 262.510896 141.088783 
L 262.510896 140.376875 
L 263.235859 140.376875 
L 263.235859 139.664967 
L 263.364768 139.664967 
L 263.364768 138.241151 
L 263.616231 138.241151 
L 263.616231 137.529243 
L 264.341284 137.529243 
L 264.341284 136.817335 
L 264.623599 136.817335 
L 264.623599 136.105427 
L 264.924194 136.105427 
L 264.95165 134.681611 
L 265.574663 134.681611 
L 265.593073 132.545887 
L 265.765931 132.545887 
L 265.765931 131.833979 
L 266.036579 131.833979 
L 266.125412 130.410163 
L 268.713589 130.410163 
L 268.759593 128.986348 
L 269.014497 128.986348 
L 269.014497 128.27444 
L 269.136484 128.27444 
L 269.136484 127.562532 
L 270.142784 127.562532 
L 270.142784 126.850624 
L 271.012586 126.850624 
L 271.012586 126.138716 
L 271.774363 126.138716 
L 271.819195 124.7149 
L 272.174631 124.7149 
L 272.197338 123.291084 
L 272.403482 123.291084 
L 272.403482 122.579176 
L 273.479598 122.579176 
L 273.479598 121.867268 
L 273.812509 121.867268 
L 273.812509 121.15536 
L 274.757212 121.15536 
L 274.757212 120.443452 
L 275.118181 120.443452 
L 275.118181 119.731544 
L 275.446019 119.731544 
L 275.446019 119.019636 
L 275.651364 119.019636 
L 275.651364 118.307729 
L 276.10604 118.307729 
L 276.202753 116.883913 
L 276.369244 116.883913 
L 276.369244 116.172005 
L 276.563938 116.172005 
L 276.563938 115.460097 
L 278.003749 115.460097 
L 278.003749 114.748189 
L 278.334346 114.748189 
L 278.334346 114.036281 
L 278.893206 114.036281 
L 278.893206 113.324373 
L 279.196842 113.324373 
L 279.196842 112.612465 
L 279.874108 112.612465 
L 279.884191 111.188649 
L 280.014139 111.188649 
L 280.014139 110.476741 
L 280.217102 110.476741 
L 280.292886 109.052925 
L 280.797484 109.052925 
L 280.883941 107.629109 
L 281.135254 107.629109 
L 281.135254 106.917202 
L 281.468165 106.917202 
L 281.468165 106.205294 
L 281.696191 106.205294 
L 281.696191 105.493386 
L 282.474077 105.493386 
L 282.510633 104.06957 
L 283.727119 104.06957 
L 283.761696 102.645754 
L 284.452082 102.645754 
L 284.452082 101.933846 
L 284.738938 101.933846 
L 284.738938 101.221938 
L 285.184681 101.221938 
L 285.184681 100.51003 
L 285.990001 100.51003 
L 285.990001 99.798122 
L 286.314565 99.798122 
L 286.314565 99.086214 
L 286.473972 99.086214 
L 286.473972 98.374306 
L 286.84276 98.374306 
L 286.84276 97.662398 
L 287.230607 97.662398 
L 287.230607 96.95049 
L 289.282308 96.95049 
L 289.282308 96.238583 
L 290.149684 96.238583 
L 290.149684 94.814767 
L 291.467515 94.814767 
L 291.467515 94.102859 
L 291.63578 94.102859 
L 291.63578 93.390951 
L 292.228809 93.390951 
L 292.228809 92.679043 
L 292.353573 92.679043 
L 292.353573 91.967135 
L 295.005678 91.967135 
L 295.005678 91.255227 
L 295.266786 91.255227 
L 295.266786 90.543319 
L 295.730641 90.543319 
L 295.730641 89.831411 
L 297.171895 89.831411 
L 297.171895 88.407595 
L 298.609091 88.407595 
L 298.609091 87.695687 
L 298.955246 87.695687 
L 298.999787 86.271871 
L 300.653264 86.271871 
L 300.653264 85.559963 
L 302.038605 85.559963 
L 302.100164 84.136148 
L 302.165324 84.136148 
L 302.165324 83.42424 
L 302.890957 83.42424 
L 302.890957 82.712332 
L 303.507368 82.712332 
L 303.507368 82.000424 
L 303.963434 82.000424 
L 303.963434 81.288516 
L 305.115337 81.288516 
L 305.115337 80.576608 
L 305.799832 80.576608 
L 305.892087 79.152792 
L 306.804614 79.152792 
L 306.804614 78.440884 
L 307.082782 78.440884 
L 307.137525 77.017068 
L 308.346341 77.017068 
L 308.346341 76.30516 
L 309.110002 76.30516 
L 309.110002 75.593252 
L 309.295549 75.593252 
L 309.295549 74.881344 
L 309.431056 74.881344 
L 309.431056 74.169436 
L 309.913168 74.169436 
L 309.913168 73.457529 
L 310.546612 73.457529 
L 310.546612 72.745621 
L 311.659361 72.745621 
L 311.659361 72.033713 
L 312.460335 72.033713 
L 312.460335 71.321805 
L 312.990872 71.321805 
L 312.990872 70.609897 
L 313.378723 70.609897 
L 313.378723 69.897989 
L 314.069711 69.897989 
L 314.069711 69.186081 
L 314.599668 69.186081 
L 314.599668 68.474173 
L 314.794674 68.474173 
L 314.794674 67.762265 
L 316.00693 67.762265 
L 316.00693 67.050357 
L 316.31776 67.050357 
L 316.31776 66.338449 
L 317.568823 66.338449 
L 317.568823 65.626541 
L 318.312087 65.626541 
L 318.312087 64.914633 
L 321.944666 64.914633 
L 321.944666 64.202725 
L 322.5714 64.202725 
L 322.593948 62.778909 
L 323.044572 62.778909 
L 323.044572 62.067002 
L 323.321646 62.067002 
L 323.321646 61.355094 
L 324.366856 61.355094 
L 324.366856 60.643186 
L 328.19114 60.643186 
L 328.278262 59.21937 
L 328.754053 59.21937 
L 328.754053 58.507462 
L 329.59813 58.507462 
L 329.59813 57.795554 
L 332.078279 57.795554 
L 332.078279 57.083646 
L 332.442756 57.083646 
L 332.442756 56.371738 
L 332.568394 56.371738 
L 332.568394 55.65983 
L 332.681983 55.65983 
L 332.681983 54.947922 
L 334.02136 54.947922 
L 334.02136 54.236014 
L 334.964002 54.236014 
L 334.964002 53.524106 
L 335.62326 53.524106 
L 335.62326 52.812198 
L 336.215972 52.812198 
L 336.215972 52.10029 
L 338.274172 52.10029 
L 338.274172 51.388382 
L 343.238183 51.388382 
L 343.238183 50.676475 
L 345.61575 50.676475 
L 345.61575 49.964567 
L 345.756873 49.964567 
L 345.756873 49.252659 
L 347.410972 49.252659 
L 347.410972 48.540751 
L 347.573183 48.540751 
L 347.573183 47.116935 
L 352.55754 47.116935 
L 352.55754 46.405027 
L 352.960748 46.405027 
L 352.960748 45.693119 
L 357.35531 45.693119 
L 357.35531 44.981211 
L 357.750868 44.981211 
L 357.750868 44.269303 
L 358.110686 44.269303 
L 358.110686 43.557395 
L 359.35829 43.557395 
L 359.35829 42.845487 
L 359.576302 42.845487 
L 359.576302 42.133579 
L 360.314456 42.133579 
L 360.314456 41.421671 
L 363.094361 41.421671 
L 363.094361 40.709763 
L 363.257254 40.709763 
L 363.257254 39.997855 
L 365.095867 39.997855 
L 365.095867 39.285948 
L 366.224559 39.285948 
L 366.224559 38.57404 
L 366.719048 38.57404 
L 366.719048 37.862132 
L 367.970111 37.862132 
L 367.970111 37.150224 
L 373.569558 37.150224 
L 373.569558 36.438316 
L 375.22948 36.438316 
L 375.22948 35.726408 
L 378.533374 35.726408 
L 378.533374 35.0145 
L 381.72171 35.0145 
L 381.72171 34.302592 
L 381.843544 34.302592 
L 381.843544 33.590684 
L 383.703171 33.590684 
L 383.703171 32.878776 
L 391.82376 32.878776 
L 391.82376 32.166868 
L 392.421424 32.166868 
L 392.421424 31.45496 
L 393.639472 31.45496 
L 393.639472 30.743052 
L 399.168759 30.743052 
L 399.168759 30.031144 
L 400.924682 30.031144 
L 400.924682 29.319236 
L 409.302372 29.319236 
L 409.302372 28.607328 
L 418.500067 28.607328 
L 418.500067 27.895421 
L 425.291082 27.895421 
L 425.291082 27.183513 
L 425.845066 27.183513 
L 425.845066 26.471605 
L 435.978679 26.471605 
L 435.990796 25.047789 
L 453.192 25.047789 
L 453.192 25.047789 
" clip-path="url(#p2a39ef27f5)" style="fill: none; stroke: #000000; stroke-width: 3; stroke-linecap: square"/>
   </g>
   <g id="line2d_44">
    <path clip-path="url(#p2a39ef27f5)" style="fill: none; stroke: #000000; stroke-width: 3; stroke-linecap: square"/>
   </g>
   <g id="line2d_45">
    <path d="M 34.16 114.52914 
L 242.265736 114.52914 
L 242.265736 109.093997 
L 252.097634 109.093997 
L 252.097634 103.658854 
L 253.881991 103.658854 
L 253.881991 98.22371 
L 266.341192 98.22371 
L 266.341192 92.788567 
L 266.710932 92.788567 
L 266.710932 87.353424 
L 276.542829 87.353424 
L 276.542829 81.918281 
L 278.327187 81.918281 
L 278.327187 76.483137 
L 290.786388 76.483137 
L 290.786388 71.047994 
L 453.192 71.047994 
" clip-path="url(#p2a39ef27f5)" style="fill: none; stroke: #00bfbf; stroke-width: 3; stroke-linecap: square"/>
   </g>
   <g id="line2d_46">
    <path clip-path="url(#p2a39ef27f5)" style="fill: none; stroke: #00bfbf; stroke-width: 3; stroke-linecap: square"/>
   </g>
   <g id="line2d_47"/>
   <g id="line2d_48"/>
   <g id="line2d_49"/>
   <g id="line2d_50">
    <path d="M 243.676 291.28 
L 243.676 3 
" clip-path="url(#p2a39ef27f5)" style="fill: none; stroke: #000000; stroke-width: 1.5; stroke-linecap: square"/>
   </g>
   <g id="line2d_51">
    <path d="M 34.16 147.14 
L 453.192 147.14 
" clip-path="url(#p2a39ef27f5)" style="fill: none; stroke-dasharray: 2,3.3; stroke-dashoffset: 0; stroke: #000000; stroke-width: 2"/>
   </g>
   <g id="patch_3">
    <path d="M 34.16 291.28 
L 34.16 3 
" style="fill: none; stroke: #000000; stroke-width: 0.8; stroke-linejoin: miter; stroke-linecap: square"/>
   </g>
   <g id="patch_4">
    <path d="M 453.192 291.28 
L 453.192 3 
" style="fill: none; stroke: #000000; stroke-width: 0.8; stroke-linejoin: miter; stroke-linecap: square"/>
   </g>
   <g id="patch_5">
    <path d="M 34.16 291.28 
L 453.192 291.28 
" style="fill: none; stroke: #000000; stroke-width: 0.8; stroke-linejoin: miter; stroke-linecap: square"/>
   </g>
   <g id="patch_6">
    <path d="M 34.16 3 
L 453.192 3 
" style="fill: none; stroke: #000000; stroke-width: 0.8; stroke-linejoin: miter; stroke-linecap: square"/>
   </g>
   <g id="text_6">
    <!-- f48, f49, f51, f52,5-D -->
    <g transform="translate(235.014485 285.5144) scale(0.2 -0.2)">
     <defs>
      <path id="DejaVuSans-34" d="M 2419 4116 
L 825 1625 
L 2419 1625 
L 2419 4116 
z
M 2253 4666 
L 3047 4666 
L 3047 1625 
L 3713 1625 
L 3713 1100 
L 3047 1100 
L 3047 0 
L 2419 0 
L 2419 1100 
L 313 1100 
L 313 1709 
L 2253 4666 
z
" transform="scale(0.015625)"/>
      <path id="DejaVuSans-38" d="M 2034 2216 
Q 1584 2216 1326 1975 
Q 1069 1734 1069 1313 
Q 1069 891 1326 650 
Q 1584 409 2034 409 
Q 2484 409 2743 651 
Q 3003 894 3003 1313 
Q 3003 1734 2745 1975 
Q 2488 2216 2034 2216 
z
M 1403 2484 
Q 997 2584 770 2862 
Q 544 3141 544 3541 
Q 544 4100 942 4425 
Q 1341 4750 2034 4750 
Q 2731 4750 3128 4425 
Q 3525 4100 3525 3541 
Q 3525 3141 3298 2862 
Q 3072 2584 2669 2484 
Q 3125 2378 3379 2068 
Q 3634 1759 3634 1313 
Q 3634 634 3220 271 
Q 2806 -91 2034 -91 
Q 1263 -91 848 271 
Q 434 634 434 1313 
Q 434 1759 690 2068 
Q 947 2378 1403 2484 
z
M 1172 3481 
Q 1172 3119 1398 2916 
Q 1625 2713 2034 2713 
Q 2441 2713 2670 2916 
Q 2900 3119 2900 3481 
Q 2900 3844 2670 4047 
Q 2441 4250 2034 4250 
Q 1625 4250 1398 4047 
Q 1172 3844 1172 3481 
z
" transform="scale(0.015625)"/>
      <path id="DejaVuSans-2c" d="M 750 794 
L 1409 794 
L 1409 256 
L 897 -744 
L 494 -744 
L 750 256 
L 750 794 
z
" transform="scale(0.015625)"/>
      <path id="DejaVuSans-39" d="M 703 97 
L 703 672 
Q 941 559 1184 500 
Q 1428 441 1663 441 
Q 2288 441 2617 861 
Q 2947 1281 2994 2138 
Q 2813 1869 2534 1725 
Q 2256 1581 1919 1581 
Q 1219 1581 811 2004 
Q 403 2428 403 3163 
Q 403 3881 828 4315 
Q 1253 4750 1959 4750 
Q 2769 4750 3195 4129 
Q 3622 3509 3622 2328 
Q 3622 1225 3098 567 
Q 2575 -91 1691 -91 
Q 1453 -91 1209 -44 
Q 966 3 703 97 
z
M 1959 2075 
Q 2384 2075 2632 2365 
Q 2881 2656 2881 3163 
Q 2881 3666 2632 3958 
Q 2384 4250 1959 4250 
Q 1534 4250 1286 3958 
Q 1038 3666 1038 3163 
Q 1038 2656 1286 2365 
Q 1534 2075 1959 2075 
z
" transform="scale(0.015625)"/>
      <path id="DejaVuSans-35" d="M 691 4666 
L 3169 4666 
L 3169 4134 
L 1269 4134 
L 1269 2991 
Q 1406 3038 1543 3061 
Q 1681 3084 1819 3084 
Q 2600 3084 3056 2656 
Q 3513 2228 3513 1497 
Q 3513 744 3044 326 
Q 2575 -91 1722 -91 
Q 1428 -91 1123 -41 
Q 819 9 494 109 
L 494 744 
Q 775 591 1075 516 
Q 1375 441 1709 441 
Q 2250 441 2565 725 
Q 2881 1009 2881 1497 
Q 2881 1984 2565 2268 
Q 2250 2553 1709 2553 
Q 1456 2553 1204 2497 
Q 953 2441 691 2322 
L 691 4666 
z
" transform="scale(0.015625)"/>
      <path id="DejaVuSans-32" d="M 1228 531 
L 3431 531 
L 3431 0 
L 469 0 
L 469 531 
Q 828 903 1448 1529 
Q 2069 2156 2228 2338 
Q 2531 2678 2651 2914 
Q 2772 3150 2772 3378 
Q 2772 3750 2511 3984 
Q 2250 4219 1831 4219 
Q 1534 4219 1204 4116 
Q 875 4013 500 3803 
L 500 4441 
Q 881 4594 1212 4672 
Q 1544 4750 1819 4750 
Q 2544 4750 2975 4387 
Q 3406 4025 3406 3419 
Q 3406 3131 3298 2873 
Q 3191 2616 2906 2266 
Q 2828 2175 2409 1742 
Q 1991 1309 1228 531 
z
" transform="scale(0.015625)"/>
      <path id="DejaVuSans-44" d="M 1259 4147 
L 1259 519 
L 2022 519 
Q 2988 519 3436 956 
Q 3884 1394 3884 2338 
Q 3884 3275 3436 3711 
Q 2988 4147 2022 4147 
L 1259 4147 
z
M 628 4666 
L 1925 4666 
Q 3281 4666 3915 4102 
Q 4550 3538 4550 2338 
Q 4550 1131 3912 565 
Q 3275 0 1925 0 
L 628 0 
L 628 4666 
z
" transform="scale(0.015625)"/>
     </defs>
     <use xlink:href="#DejaVuSans-66"/>
     <use xlink:href="#DejaVuSans-34" x="35.205078"/>
     <use xlink:href="#DejaVuSans-38" x="98.828125"/>
     <use xlink:href="#DejaVuSans-2c" x="162.451172"/>
     <use xlink:href="#DejaVuSans-20" x="194.238281"/>
     <use xlink:href="#DejaVuSans-66" x="226.025391"/>
     <use xlink:href="#DejaVuSans-34" x="261.230469"/>
     <use xlink:href="#DejaVuSans-39" x="324.853516"/>
     <use xlink:href="#DejaVuSans-2c" x="388.476562"/>
     <use xlink:href="#DejaVuSans-20" x="420.263672"/>
     <use xlink:href="#DejaVuSans-66" x="452.050781"/>
     <use xlink:href="#DejaVuSans-35" x="487.255859"/>
     <use xlink:href="#DejaVuSans-31" x="550.878906"/>
     <use xlink:href="#DejaVuSans-2c" x="614.501953"/>
     <use xlink:href="#DejaVuSans-20" x="646.289062"/>
     <use xlink:href="#DejaVuSans-66" x="678.076172"/>
     <use xlink:href="#DejaVuSans-35" x="713.28125"/>
     <use xlink:href="#DejaVuSans-32" x="776.904297"/>
     <use xlink:href="#DejaVuSans-2c" x="840.527344"/>
     <use xlink:href="#DejaVuSans-35" x="872.314453"/>
     <use xlink:href="#DejaVuSans-2d" x="935.9375"/>
     <use xlink:href="#DejaVuSans-44" x="972.021484"/>
    </g>
   </g>
   <g id="text_7">
    <!-- v2.6.1.152, hv-hash=ff0e71e8cd978373 -->
    <g style="fill: #808080" transform="translate(142.277562 286.317512) scale(0.1 -0.1)">
     <defs>
      <path id="DejaVuSans-2e" d="M 684 794 
L 1344 794 
L 1344 0 
L 684 0 
L 684 794 
z
" transform="scale(0.015625)"/>
      <path id="DejaVuSans-36" d="M 2113 2584 
Q 1688 2584 1439 2293 
Q 1191 2003 1191 1497 
Q 1191 994 1439 701 
Q 1688 409 2113 409 
Q 2538 409 2786 701 
Q 3034 994 3034 1497 
Q 3034 2003 2786 2293 
Q 2538 2584 2113 2584 
z
M 3366 4563 
L 3366 3988 
Q 3128 4100 2886 4159 
Q 2644 4219 2406 4219 
Q 1781 4219 1451 3797 
Q 1122 3375 1075 2522 
Q 1259 2794 1537 2939 
Q 1816 3084 2150 3084 
Q 2853 3084 3261 2657 
Q 3669 2231 3669 1497 
Q 3669 778 3244 343 
Q 2819 -91 2113 -91 
Q 1303 -91 875 529 
Q 447 1150 447 2328 
Q 447 3434 972 4092 
Q 1497 4750 2381 4750 
Q 2619 4750 2861 4703 
Q 3103 4656 3366 4563 
z
" transform="scale(0.015625)"/>
      <path id="DejaVuSans-68" d="M 3513 2113 
L 3513 0 
L 2938 0 
L 2938 2094 
Q 2938 2591 2744 2837 
Q 2550 3084 2163 3084 
Q 1697 3084 1428 2787 
Q 1159 2491 1159 1978 
L 1159 0 
L 581 0 
L 581 4863 
L 1159 4863 
L 1159 2956 
Q 1366 3272 1645 3428 
Q 1925 3584 2291 3584 
Q 2894 3584 3203 3211 
Q 3513 2838 3513 2113 
z
" transform="scale(0.015625)"/>
      <path id="DejaVuSans-3d" d="M 678 2906 
L 4684 2906 
L 4684 2381 
L 678 2381 
L 678 2906 
z
M 678 1631 
L 4684 1631 
L 4684 1100 
L 678 1100 
L 678 1631 
z
" transform="scale(0.015625)"/>
      <path id="DejaVuSans-65" d="M 3597 1894 
L 3597 1613 
L 953 1613 
Q 991 1019 1311 708 
Q 1631 397 2203 397 
Q 2534 397 2845 478 
Q 3156 559 3463 722 
L 3463 178 
Q 3153 47 2828 -22 
Q 2503 -91 2169 -91 
Q 1331 -91 842 396 
Q 353 884 353 1716 
Q 353 2575 817 3079 
Q 1281 3584 2069 3584 
Q 2775 3584 3186 3129 
Q 3597 2675 3597 1894 
z
M 3022 2063 
Q 3016 2534 2758 2815 
Q 2500 3097 2075 3097 
Q 1594 3097 1305 2825 
Q 1016 2553 972 2059 
L 3022 2063 
z
" transform="scale(0.015625)"/>
      <path id="DejaVuSans-37" d="M 525 4666 
L 3525 4666 
L 3525 4397 
L 1831 0 
L 1172 0 
L 2766 4134 
L 525 4134 
L 525 4666 
z
" transform="scale(0.015625)"/>
      <path id="DejaVuSans-63" d="M 3122 3366 
L 3122 2828 
Q 2878 2963 2633 3030 
Q 2388 3097 2138 3097 
Q 1578 3097 1268 2742 
Q 959 2388 959 1747 
Q 959 1106 1268 751 
Q 1578 397 2138 397 
Q 2388 397 2633 464 
Q 2878 531 3122 666 
L 3122 134 
Q 2881 22 2623 -34 
Q 2366 -91 2075 -91 
Q 1284 -91 818 406 
Q 353 903 353 1747 
Q 353 2603 823 3093 
Q 1294 3584 2113 3584 
Q 2378 3584 2631 3529 
Q 2884 3475 3122 3366 
z
" transform="scale(0.015625)"/>
      <path id="DejaVuSans-64" d="M 2906 2969 
L 2906 4863 
L 3481 4863 
L 3481 0 
L 2906 0 
L 2906 525 
Q 2725 213 2448 61 
Q 2172 -91 1784 -91 
Q 1150 -91 751 415 
Q 353 922 353 1747 
Q 353 2572 751 3078 
Q 1150 3584 1784 3584 
Q 2172 3584 2448 3432 
Q 2725 3281 2906 2969 
z
M 947 1747 
Q 947 1113 1208 752 
Q 1469 391 1925 391 
Q 2381 391 2643 752 
Q 2906 1113 2906 1747 
Q 2906 2381 2643 2742 
Q 2381 3103 1925 3103 
Q 1469 3103 1208 2742 
Q 947 2381 947 1747 
z
" transform="scale(0.015625)"/>
      <path id="DejaVuSans-33" d="M 2597 2516 
Q 3050 2419 3304 2112 
Q 3559 1806 3559 1356 
Q 3559 666 3084 287 
Q 2609 -91 1734 -91 
Q 1441 -91 1130 -33 
Q 819 25 488 141 
L 488 750 
Q 750 597 1062 519 
Q 1375 441 1716 441 
Q 2309 441 2620 675 
Q 2931 909 2931 1356 
Q 2931 1769 2642 2001 
Q 2353 2234 1838 2234 
L 1294 2234 
L 1294 2753 
L 1863 2753 
Q 2328 2753 2575 2939 
Q 2822 3125 2822 3475 
Q 2822 3834 2567 4026 
Q 2313 4219 1838 4219 
Q 1578 4219 1281 4162 
Q 984 4106 628 3988 
L 628 4550 
Q 988 4650 1302 4700 
Q 1616 4750 1894 4750 
Q 2613 4750 3031 4423 
Q 3450 4097 3450 3541 
Q 3450 3153 3228 2886 
Q 3006 2619 2597 2516 
z
" transform="scale(0.015625)"/>
     </defs>
     <use xlink:href="#DejaVuSans-76"/>
     <use xlink:href="#DejaVuSans-32" x="59.179688"/>
     <use xlink:href="#DejaVuSans-2e" x="122.802734"/>
     <use xlink:href="#DejaVuSans-36" x="154.589844"/>
     <use xlink:href="#DejaVuSans-2e" x="218.212891"/>
     <use xlink:href="#DejaVuSans-31" x="250"/>
     <use xlink:href="#DejaVuSans-2e" x="313.623047"/>
     <use xlink:href="#DejaVuSans-31" x="345.410156"/>
     <use xlink:href="#DejaVuSans-35" x="409.033203"/>
     <use xlink:href="#DejaVuSans-32" x="472.65625"/>
     <use xlink:href="#DejaVuSans-2c" x="536.279297"/>
     <use xlink:href="#DejaVuSans-20" x="568.066406"/>
     <use xlink:href="#DejaVuSans-68" x="599.853516"/>
     <use xlink:href="#DejaVuSans-76" x="663.232422"/>
     <use xlink:href="#DejaVuSans-2d" x="719.787109"/>
     <use xlink:href="#DejaVuSans-68" x="755.871094"/>
     <use xlink:href="#DejaVuSans-61" x="819.25"/>
     <use xlink:href="#DejaVuSans-73" x="880.529297"/>
     <use xlink:href="#DejaVuSans-68" x="932.628906"/>
     <use xlink:href="#DejaVuSans-3d" x="996.007812"/>
     <use xlink:href="#DejaVuSans-66" x="1079.796875"/>
     <use xlink:href="#DejaVuSans-66" x="1115.001953"/>
     <use xlink:href="#DejaVuSans-30" x="1150.207031"/>
     <use xlink:href="#DejaVuSans-65" x="1213.830078"/>
     <use xlink:href="#DejaVuSans-37" x="1275.353516"/>
     <use xlink:href="#DejaVuSans-31" x="1338.976562"/>
     <use xlink:href="#DejaVuSans-65" x="1402.599609"/>
     <use xlink:href="#DejaVuSans-38" x="1464.123047"/>
     <use xlink:href="#DejaVuSans-63" x="1527.746094"/>
     <use xlink:href="#DejaVuSans-64" x="1582.726562"/>
     <use xlink:href="#DejaVuSans-39" x="1646.203125"/>
     <use xlink:href="#DejaVuSans-37" x="1709.826172"/>
     <use xlink:href="#DejaVuSans-38" x="1773.449219"/>
     <use xlink:href="#DejaVuSans-33" x="1837.072266"/>
     <use xlink:href="#DejaVuSans-37" x="1900.695312"/>
     <use xlink:href="#DejaVuSans-33" x="1964.318359"/>
    </g>
   </g>
   <g id="legend_1">
    <g id="patch_7">
     <path d="M 309.970125 281.28 
L 439.192 281.28 
Q 443.192 281.28 443.192 277.28 
L 443.192 132.49875 
Q 443.192 128.49875 439.192 128.49875 
L 309.970125 128.49875 
Q 305.970125 128.49875 305.970125 132.49875 
L 305.970125 277.28 
Q 305.970125 281.28 309.970125 281.28 
z
" style="fill: #ffffff; opacity: 0.2; stroke: #cccccc; stroke-linejoin: miter"/>
    </g>
    <g id="line2d_52">
     <path d="M 313.970125 144.695625 
L 333.970125 144.695625 
L 353.970125 144.695625 
" style="fill: none; stroke: #000000; stroke-width: 3; stroke-linecap: square"/>
    </g>
    <g id="text_8">
     <!-- -1: 4/4 -->
     <g transform="translate(369.970125 151.695625) scale(0.2 -0.2)">
      <defs>
       <path id="DejaVuSans-3a" d="M 750 794 
L 1409 794 
L 1409 0 
L 750 0 
L 750 794 
z
M 750 3309 
L 1409 3309 
L 1409 2516 
L 750 2516 
L 750 3309 
z
" transform="scale(0.015625)"/>
       <path id="DejaVuSans-2f" d="M 1625 4666 
L 2156 4666 
L 531 -594 
L 0 -594 
L 1625 4666 
z
" transform="scale(0.015625)"/>
      </defs>
      <use xlink:href="#DejaVuSans-2d"/>
      <use xlink:href="#DejaVuSans-31" x="36.083984"/>
      <use xlink:href="#DejaVuSans-3a" x="99.707031"/>
      <use xlink:href="#DejaVuSans-20" x="133.398438"/>
      <use xlink:href="#DejaVuSans-34" x="165.185547"/>
      <use xlink:href="#DejaVuSans-2f" x="228.808594"/>
      <use xlink:href="#DejaVuSans-34" x="262.5"/>
     </g>
    </g>
    <g id="line2d_53">
     <path d="M 313.970125 174.051875 
L 333.970125 174.051875 
L 353.970125 174.051875 
" style="fill: none; stroke: #00bfbf; stroke-width: 3; stroke-linecap: square"/>
    </g>
    <g id="text_9">
     <!-- -2: 1/1 -->
     <g transform="translate(369.970125 181.051875) scale(0.2 -0.2)">
      <use xlink:href="#DejaVuSans-2d"/>
      <use xlink:href="#DejaVuSans-32" x="36.083984"/>
      <use xlink:href="#DejaVuSans-3a" x="99.707031"/>
      <use xlink:href="#DejaVuSans-20" x="133.398438"/>
      <use xlink:href="#DejaVuSans-31" x="165.185547"/>
      <use xlink:href="#DejaVuSans-2f" x="228.808594"/>
      <use xlink:href="#DejaVuSans-31" x="262.5"/>
     </g>
    </g>
    <g id="line2d_54">
     <path d="M 313.970125 203.408125 
L 333.970125 203.408125 
L 353.970125 203.408125 
" style="fill: none; stroke: #bf00bf; stroke-width: 3; stroke-linecap: square"/>
    </g>
    <g id="text_10">
     <!-- -3: 0/0 -->
     <g transform="translate(369.970125 210.408125) scale(0.2 -0.2)">
      <use xlink:href="#DejaVuSans-2d"/>
      <use xlink:href="#DejaVuSans-33" x="36.083984"/>
      <use xlink:href="#DejaVuSans-3a" x="99.707031"/>
      <use xlink:href="#DejaVuSans-20" x="133.398438"/>
      <use xlink:href="#DejaVuSans-30" x="165.185547"/>
      <use xlink:href="#DejaVuSans-2f" x="228.808594"/>
      <use xlink:href="#DejaVuSans-30" x="262.5"/>
     </g>
    </g>
    <g id="line2d_55">
     <path d="M 313.970125 232.764375 
L 333.970125 232.764375 
L 353.970125 232.764375 
" style="fill: none; stroke: #ff0000; stroke-width: 3; stroke-linecap: square"/>
    </g>
    <g id="text_11">
     <!-- -4: 0/0 -->
     <g transform="translate(369.970125 239.764375) scale(0.2 -0.2)">
      <use xlink:href="#DejaVuSans-2d"/>
      <use xlink:href="#DejaVuSans-34" x="36.083984"/>
      <use xlink:href="#DejaVuSans-3a" x="99.707031"/>
      <use xlink:href="#DejaVuSans-20" x="133.398438"/>
      <use xlink:href="#DejaVuSans-30" x="165.185547"/>
      <use xlink:href="#DejaVuSans-2f" x="228.808594"/>
      <use xlink:href="#DejaVuSans-30" x="262.5"/>
     </g>
    </g>
    <g id="line2d_56">
     <path d="M 313.970125 262.120625 
L 333.970125 262.120625 
L 353.970125 262.120625 
" style="fill: none; stroke: #0000ff; stroke-width: 3; stroke-linecap: square"/>
    </g>
    <g id="text_12">
     <!-- -5: 0/0 -->
     <g transform="translate(369.970125 269.120625) scale(0.2 -0.2)">
      <use xlink:href="#DejaVuSans-2d"/>
      <use xlink:href="#DejaVuSans-35" x="36.083984"/>
      <use xlink:href="#DejaVuSans-3a" x="99.707031"/>
      <use xlink:href="#DejaVuSans-20" x="133.398438"/>
      <use xlink:href="#DejaVuSans-30" x="165.185547"/>
      <use xlink:href="#DejaVuSans-2f" x="228.808594"/>
      <use xlink:href="#DejaVuSans-30" x="262.5"/>
     </g>
    </g>
   </g>
  </g>
 </g>
 <defs>
  <clipPath id="p2a39ef27f5">
   <rect x="34.16" y="3" width="419.032" height="288.28"/>
  </clipPath>
 </defs>
</svg>
