<?xml version="1.0" encoding="utf-8" standalone="no"?>
<!DOCTYPE svg PUBLIC "-//W3C//DTD SVG 1.1//EN"
  "http://www.w3.org/Graphics/SVG/1.1/DTD/svg11.dtd">
<svg xmlns:xlink="http://www.w3.org/1999/xlink" width="460.8pt" height="345.6pt" viewBox="0 0 460.8 345.6" xmlns="http://www.w3.org/2000/svg" version="1.1">
 <metadata>
  <rdf:RDF xmlns:dc="http://purl.org/dc/elements/1.1/" xmlns:cc="http://creativecommons.org/ns#" xmlns:rdf="http://www.w3.org/1999/02/22-rdf-syntax-ns#">
   <cc:Work>
    <dc:type rdf:resource="http://purl.org/dc/dcmitype/StillImage"/>
    <dc:date>2023-03-13T19:42:20.320691</dc:date>
    <dc:format>image/svg+xml</dc:format>
    <dc:creator>
     <cc:Agent>
      <dc:title>Matplotlib v3.7.0, https://matplotlib.org/</dc:title>
     </cc:Agent>
    </dc:creator>
   </cc:Work>
  </rdf:RDF>
 </metadata>
 <defs>
  <style type="text/css">*{stroke-linejoin: round; stroke-linecap: butt}</style>
 </defs>
 <g id="figure_1">
  <g id="patch_1">
   <path d="M 0 345.6 
L 460.8 345.6 
L 460.8 0 
L 0 0 
z
" style="fill: #ffffff"/>
  </g>
  <g id="axes_1">
   <g id="patch_2">
    <path d="M 34.16 291.28 
L 446.924475 291.28 
L 446.924475 3 
L 34.16 3 
z
" style="fill: #ffffff"/>
   </g>
   <g id="matplotlib.axis_1">
    <g id="xtick_1">
     <g id="line2d_1">
      <path d="M 34.249547 291.28 
L 34.249547 3 
" clip-path="url(#pcae4430e4e)" style="fill: none; stroke: #b0b0b0; stroke-width: 0.8; stroke-linecap: square"/>
     </g>
     <g id="line2d_2">
      <defs>
       <path id="ma9a8b10600" d="M 0 0 
L 0 3.5 
" style="stroke: #000000; stroke-width: 0.8"/>
      </defs>
      <g>
       <use xlink:href="#ma9a8b10600" x="34.249547" y="291.28" style="stroke: #000000; stroke-width: 0.8"/>
      </g>
     </g>
     <g id="text_1">
      <!-- -1 -->
      <g transform="translate(24.279235 313.476875) scale(0.2 -0.2)">
       <defs>
        <path id="DejaVuSans-2d" d="M 313 2009 
L 1997 2009 
L 1997 1497 
L 313 1497 
L 313 2009 
z
" transform="scale(0.015625)"/>
        <path id="DejaVuSans-31" d="M 794 531 
L 1825 531 
L 1825 4091 
L 703 3866 
L 703 4441 
L 1819 4666 
L 2450 4666 
L 2450 531 
L 3481 531 
L 3481 0 
L 794 0 
L 794 531 
z
" transform="scale(0.015625)"/>
       </defs>
       <use xlink:href="#DejaVuSans-2d"/>
       <use xlink:href="#DejaVuSans-31" x="36.083984"/>
      </g>
     </g>
    </g>
    <g id="xtick_2">
     <g id="line2d_3">
      <path d="M 240.542238 291.28 
L 240.542238 3 
" clip-path="url(#pcae4430e4e)" style="fill: none; stroke: #b0b0b0; stroke-width: 0.8; stroke-linecap: square"/>
     </g>
     <g id="line2d_4">
      <g>
       <use xlink:href="#ma9a8b10600" x="240.542238" y="291.28" style="stroke: #000000; stroke-width: 0.8"/>
      </g>
     </g>
     <g id="text_2">
      <!-- 0 -->
      <g transform="translate(234.179738 313.476875) scale(0.2 -0.2)">
       <defs>
        <path id="DejaVuSans-30" d="M 2034 4250 
Q 1547 4250 1301 3770 
Q 1056 3291 1056 2328 
Q 1056 1369 1301 889 
Q 1547 409 2034 409 
Q 2525 409 2770 889 
Q 3016 1369 3016 2328 
Q 3016 3291 2770 3770 
Q 2525 4250 2034 4250 
z
M 2034 4750 
Q 2819 4750 3233 4129 
Q 3647 3509 3647 2328 
Q 3647 1150 3233 529 
Q 2819 -91 2034 -91 
Q 1250 -91 836 529 
Q 422 1150 422 2328 
Q 422 3509 836 4129 
Q 1250 4750 2034 4750 
z
" transform="scale(0.015625)"/>
       </defs>
       <use xlink:href="#DejaVuSans-30"/>
      </g>
     </g>
    </g>
    <g id="xtick_3">
     <g id="line2d_5">
      <path d="M 446.834928 291.28 
L 446.834928 3 
" clip-path="url(#pcae4430e4e)" style="fill: none; stroke: #b0b0b0; stroke-width: 0.8; stroke-linecap: square"/>
     </g>
     <g id="line2d_6">
      <g>
       <use xlink:href="#ma9a8b10600" x="446.834928" y="291.28" style="stroke: #000000; stroke-width: 0.8"/>
      </g>
     </g>
     <g id="text_3">
      <!-- 1 -->
      <g transform="translate(440.472428 313.476875) scale(0.2 -0.2)">
       <use xlink:href="#DejaVuSans-31"/>
      </g>
     </g>
    </g>
    <g id="xtick_4">
     <g id="line2d_7">
      <defs>
       <path id="m5070873fe8" d="M 0 0 
L 0 2 
" style="stroke: #000000; stroke-width: 0.6"/>
      </defs>
      <g>
       <use xlink:href="#m5070873fe8" x="96.349835" y="291.28" style="stroke: #000000; stroke-width: 0.6"/>
      </g>
     </g>
    </g>
    <g id="xtick_5">
     <g id="line2d_8">
      <g>
       <use xlink:href="#m5070873fe8" x="132.676174" y="291.28" style="stroke: #000000; stroke-width: 0.6"/>
      </g>
     </g>
    </g>
    <g id="xtick_6">
     <g id="line2d_9">
      <g>
       <use xlink:href="#m5070873fe8" x="158.450123" y="291.28" style="stroke: #000000; stroke-width: 0.6"/>
      </g>
     </g>
    </g>
    <g id="xtick_7">
     <g id="line2d_10">
      <g>
       <use xlink:href="#m5070873fe8" x="178.44195" y="291.28" style="stroke: #000000; stroke-width: 0.6"/>
      </g>
     </g>
    </g>
    <g id="xtick_8">
     <g id="line2d_11">
      <g>
       <use xlink:href="#m5070873fe8" x="194.776462" y="291.28" style="stroke: #000000; stroke-width: 0.6"/>
      </g>
     </g>
    </g>
    <g id="xtick_9">
     <g id="line2d_12">
      <g>
       <use xlink:href="#m5070873fe8" x="208.587096" y="291.28" style="stroke: #000000; stroke-width: 0.6"/>
      </g>
     </g>
    </g>
    <g id="xtick_10">
     <g id="line2d_13">
      <g>
       <use xlink:href="#m5070873fe8" x="220.55041" y="291.28" style="stroke: #000000; stroke-width: 0.6"/>
      </g>
     </g>
    </g>
    <g id="xtick_11">
     <g id="line2d_14">
      <g>
       <use xlink:href="#m5070873fe8" x="231.102802" y="291.28" style="stroke: #000000; stroke-width: 0.6"/>
      </g>
     </g>
    </g>
    <g id="xtick_12">
     <g id="line2d_15">
      <g>
       <use xlink:href="#m5070873fe8" x="302.642525" y="291.28" style="stroke: #000000; stroke-width: 0.6"/>
      </g>
     </g>
    </g>
    <g id="xtick_13">
     <g id="line2d_16">
      <g>
       <use xlink:href="#m5070873fe8" x="338.968865" y="291.28" style="stroke: #000000; stroke-width: 0.6"/>
      </g>
     </g>
    </g>
    <g id="xtick_14">
     <g id="line2d_17">
      <g>
       <use xlink:href="#m5070873fe8" x="364.742813" y="291.28" style="stroke: #000000; stroke-width: 0.6"/>
      </g>
     </g>
    </g>
    <g id="xtick_15">
     <g id="line2d_18">
      <g>
       <use xlink:href="#m5070873fe8" x="384.73464" y="291.28" style="stroke: #000000; stroke-width: 0.6"/>
      </g>
     </g>
    </g>
    <g id="xtick_16">
     <g id="line2d_19">
      <g>
       <use xlink:href="#m5070873fe8" x="401.069153" y="291.28" style="stroke: #000000; stroke-width: 0.6"/>
      </g>
     </g>
    </g>
    <g id="xtick_17">
     <g id="line2d_20">
      <g>
       <use xlink:href="#m5070873fe8" x="414.879786" y="291.28" style="stroke: #000000; stroke-width: 0.6"/>
      </g>
     </g>
    </g>
    <g id="xtick_18">
     <g id="line2d_21">
      <g>
       <use xlink:href="#m5070873fe8" x="426.843101" y="291.28" style="stroke: #000000; stroke-width: 0.6"/>
      </g>
     </g>
    </g>
    <g id="xtick_19">
     <g id="line2d_22">
      <g>
       <use xlink:href="#m5070873fe8" x="437.395492" y="291.28" style="stroke: #000000; stroke-width: 0.6"/>
      </g>
     </g>
    </g>
    <g id="text_4">
     <!-- log10 of FEvals ratio -->
     <g transform="translate(138.23755 336.833125) scale(0.2 -0.2)">
      <defs>
       <path id="DejaVuSans-6c" d="M 603 4863 
L 1178 4863 
L 1178 0 
L 603 0 
L 603 4863 
z
" transform="scale(0.015625)"/>
       <path id="DejaVuSans-6f" d="M 1959 3097 
Q 1497 3097 1228 2736 
Q 959 2375 959 1747 
Q 959 1119 1226 758 
Q 1494 397 1959 397 
Q 2419 397 2687 759 
Q 2956 1122 2956 1747 
Q 2956 2369 2687 2733 
Q 2419 3097 1959 3097 
z
M 1959 3584 
Q 2709 3584 3137 3096 
Q 3566 2609 3566 1747 
Q 3566 888 3137 398 
Q 2709 -91 1959 -91 
Q 1206 -91 779 398 
Q 353 888 353 1747 
Q 353 2609 779 3096 
Q 1206 3584 1959 3584 
z
" transform="scale(0.015625)"/>
       <path id="DejaVuSans-67" d="M 2906 1791 
Q 2906 2416 2648 2759 
Q 2391 3103 1925 3103 
Q 1463 3103 1205 2759 
Q 947 2416 947 1791 
Q 947 1169 1205 825 
Q 1463 481 1925 481 
Q 2391 481 2648 825 
Q 2906 1169 2906 1791 
z
M 3481 434 
Q 3481 -459 3084 -895 
Q 2688 -1331 1869 -1331 
Q 1566 -1331 1297 -1286 
Q 1028 -1241 775 -1147 
L 775 -588 
Q 1028 -725 1275 -790 
Q 1522 -856 1778 -856 
Q 2344 -856 2625 -561 
Q 2906 -266 2906 331 
L 2906 616 
Q 2728 306 2450 153 
Q 2172 0 1784 0 
Q 1141 0 747 490 
Q 353 981 353 1791 
Q 353 2603 747 3093 
Q 1141 3584 1784 3584 
Q 2172 3584 2450 3431 
Q 2728 3278 2906 2969 
L 2906 3500 
L 3481 3500 
L 3481 434 
z
" transform="scale(0.015625)"/>
       <path id="DejaVuSans-20" transform="scale(0.015625)"/>
       <path id="DejaVuSans-66" d="M 2375 4863 
L 2375 4384 
L 1825 4384 
Q 1516 4384 1395 4259 
Q 1275 4134 1275 3809 
L 1275 3500 
L 2222 3500 
L 2222 3053 
L 1275 3053 
L 1275 0 
L 697 0 
L 697 3053 
L 147 3053 
L 147 3500 
L 697 3500 
L 697 3744 
Q 697 4328 969 4595 
Q 1241 4863 1831 4863 
L 2375 4863 
z
" transform="scale(0.015625)"/>
       <path id="DejaVuSans-46" d="M 628 4666 
L 3309 4666 
L 3309 4134 
L 1259 4134 
L 1259 2759 
L 3109 2759 
L 3109 2228 
L 1259 2228 
L 1259 0 
L 628 0 
L 628 4666 
z
" transform="scale(0.015625)"/>
       <path id="DejaVuSans-45" d="M 628 4666 
L 3578 4666 
L 3578 4134 
L 1259 4134 
L 1259 2753 
L 3481 2753 
L 3481 2222 
L 1259 2222 
L 1259 531 
L 3634 531 
L 3634 0 
L 628 0 
L 628 4666 
z
" transform="scale(0.015625)"/>
       <path id="DejaVuSans-76" d="M 191 3500 
L 800 3500 
L 1894 563 
L 2988 3500 
L 3597 3500 
L 2284 0 
L 1503 0 
L 191 3500 
z
" transform="scale(0.015625)"/>
       <path id="DejaVuSans-61" d="M 2194 1759 
Q 1497 1759 1228 1600 
Q 959 1441 959 1056 
Q 959 750 1161 570 
Q 1363 391 1709 391 
Q 2188 391 2477 730 
Q 2766 1069 2766 1631 
L 2766 1759 
L 2194 1759 
z
M 3341 1997 
L 3341 0 
L 2766 0 
L 2766 531 
Q 2569 213 2275 61 
Q 1981 -91 1556 -91 
Q 1019 -91 701 211 
Q 384 513 384 1019 
Q 384 1609 779 1909 
Q 1175 2209 1959 2209 
L 2766 2209 
L 2766 2266 
Q 2766 2663 2505 2880 
Q 2244 3097 1772 3097 
Q 1472 3097 1187 3025 
Q 903 2953 641 2809 
L 641 3341 
Q 956 3463 1253 3523 
Q 1550 3584 1831 3584 
Q 2591 3584 2966 3190 
Q 3341 2797 3341 1997 
z
" transform="scale(0.015625)"/>
       <path id="DejaVuSans-73" d="M 2834 3397 
L 2834 2853 
Q 2591 2978 2328 3040 
Q 2066 3103 1784 3103 
Q 1356 3103 1142 2972 
Q 928 2841 928 2578 
Q 928 2378 1081 2264 
Q 1234 2150 1697 2047 
L 1894 2003 
Q 2506 1872 2764 1633 
Q 3022 1394 3022 966 
Q 3022 478 2636 193 
Q 2250 -91 1575 -91 
Q 1294 -91 989 -36 
Q 684 19 347 128 
L 347 722 
Q 666 556 975 473 
Q 1284 391 1588 391 
Q 1994 391 2212 530 
Q 2431 669 2431 922 
Q 2431 1156 2273 1281 
Q 2116 1406 1581 1522 
L 1381 1569 
Q 847 1681 609 1914 
Q 372 2147 372 2553 
Q 372 3047 722 3315 
Q 1072 3584 1716 3584 
Q 2034 3584 2315 3537 
Q 2597 3491 2834 3397 
z
" transform="scale(0.015625)"/>
       <path id="DejaVuSans-72" d="M 2631 2963 
Q 2534 3019 2420 3045 
Q 2306 3072 2169 3072 
Q 1681 3072 1420 2755 
Q 1159 2438 1159 1844 
L 1159 0 
L 581 0 
L 581 3500 
L 1159 3500 
L 1159 2956 
Q 1341 3275 1631 3429 
Q 1922 3584 2338 3584 
Q 2397 3584 2469 3576 
Q 2541 3569 2628 3553 
L 2631 2963 
z
" transform="scale(0.015625)"/>
       <path id="DejaVuSans-74" d="M 1172 4494 
L 1172 3500 
L 2356 3500 
L 2356 3053 
L 1172 3053 
L 1172 1153 
Q 1172 725 1289 603 
Q 1406 481 1766 481 
L 2356 481 
L 2356 0 
L 1766 0 
Q 1100 0 847 248 
Q 594 497 594 1153 
L 594 3053 
L 172 3053 
L 172 3500 
L 594 3500 
L 594 4494 
L 1172 4494 
z
" transform="scale(0.015625)"/>
       <path id="DejaVuSans-69" d="M 603 3500 
L 1178 3500 
L 1178 0 
L 603 0 
L 603 3500 
z
M 603 4863 
L 1178 4863 
L 1178 4134 
L 603 4134 
L 603 4863 
z
" transform="scale(0.015625)"/>
      </defs>
      <use xlink:href="#DejaVuSans-6c"/>
      <use xlink:href="#DejaVuSans-6f" x="27.783203"/>
      <use xlink:href="#DejaVuSans-67" x="88.964844"/>
      <use xlink:href="#DejaVuSans-31" x="152.441406"/>
      <use xlink:href="#DejaVuSans-30" x="216.064453"/>
      <use xlink:href="#DejaVuSans-20" x="279.6875"/>
      <use xlink:href="#DejaVuSans-6f" x="311.474609"/>
      <use xlink:href="#DejaVuSans-66" x="372.65625"/>
      <use xlink:href="#DejaVuSans-20" x="407.861328"/>
      <use xlink:href="#DejaVuSans-46" x="439.648438"/>
      <use xlink:href="#DejaVuSans-45" x="497.167969"/>
      <use xlink:href="#DejaVuSans-76" x="560.351562"/>
      <use xlink:href="#DejaVuSans-61" x="619.53125"/>
      <use xlink:href="#DejaVuSans-6c" x="680.810547"/>
      <use xlink:href="#DejaVuSans-73" x="708.59375"/>
      <use xlink:href="#DejaVuSans-20" x="760.693359"/>
      <use xlink:href="#DejaVuSans-72" x="792.480469"/>
      <use xlink:href="#DejaVuSans-61" x="833.59375"/>
      <use xlink:href="#DejaVuSans-74" x="894.873047"/>
      <use xlink:href="#DejaVuSans-69" x="934.082031"/>
      <use xlink:href="#DejaVuSans-6f" x="961.865234"/>
     </g>
    </g>
   </g>
   <g id="matplotlib.axis_2">
    <g id="ytick_1">
     <g id="line2d_23">
      <path d="M 34.16 288.453725 
L 446.924475 288.453725 
" clip-path="url(#pcae4430e4e)" style="fill: none; stroke: #b0b0b0; stroke-width: 0.8; stroke-linecap: square"/>
     </g>
     <g id="line2d_24">
      <defs>
       <path id="m6c238c1d08" d="M 0 0 
L -3.5 0 
" style="stroke: #000000; stroke-width: 0.8"/>
      </defs>
      <g>
       <use xlink:href="#m6c238c1d08" x="34.16" y="288.453725" style="stroke: #000000; stroke-width: 0.8"/>
      </g>
     </g>
    </g>
    <g id="ytick_2">
     <g id="line2d_25">
      <path d="M 34.16 217.796863 
L 446.924475 217.796863 
" clip-path="url(#pcae4430e4e)" style="fill: none; stroke: #b0b0b0; stroke-width: 0.8; stroke-linecap: square"/>
     </g>
     <g id="line2d_26">
      <g>
       <use xlink:href="#m6c238c1d08" x="34.16" y="217.796863" style="stroke: #000000; stroke-width: 0.8"/>
      </g>
     </g>
    </g>
    <g id="ytick_3">
     <g id="line2d_27">
      <path d="M 34.16 147.14 
L 446.924475 147.14 
" clip-path="url(#pcae4430e4e)" style="fill: none; stroke: #b0b0b0; stroke-width: 0.8; stroke-linecap: square"/>
     </g>
     <g id="line2d_28">
      <g>
       <use xlink:href="#m6c238c1d08" x="34.16" y="147.14" style="stroke: #000000; stroke-width: 0.8"/>
      </g>
     </g>
    </g>
    <g id="ytick_4">
     <g id="line2d_29">
      <path d="M 34.16 76.483137 
L 446.924475 76.483137 
" clip-path="url(#pcae4430e4e)" style="fill: none; stroke: #b0b0b0; stroke-width: 0.8; stroke-linecap: square"/>
     </g>
     <g id="line2d_30">
      <g>
       <use xlink:href="#m6c238c1d08" x="34.16" y="76.483137" style="stroke: #000000; stroke-width: 0.8"/>
      </g>
     </g>
    </g>
    <g id="ytick_5">
     <g id="line2d_31">
      <path d="M 34.16 5.826275 
L 446.924475 5.826275 
" clip-path="url(#pcae4430e4e)" style="fill: none; stroke: #b0b0b0; stroke-width: 0.8; stroke-linecap: square"/>
     </g>
     <g id="line2d_32">
      <g>
       <use xlink:href="#m6c238c1d08" x="34.16" y="5.826275" style="stroke: #000000; stroke-width: 0.8"/>
      </g>
     </g>
    </g>
    <g id="text_5">
     <!-- proportion of trials -->
     <g transform="translate(19.000625 240.14625) rotate(-90) scale(0.2 -0.2)">
      <defs>
       <path id="DejaVuSans-70" d="M 1159 525 
L 1159 -1331 
L 581 -1331 
L 581 3500 
L 1159 3500 
L 1159 2969 
Q 1341 3281 1617 3432 
Q 1894 3584 2278 3584 
Q 2916 3584 3314 3078 
Q 3713 2572 3713 1747 
Q 3713 922 3314 415 
Q 2916 -91 2278 -91 
Q 1894 -91 1617 61 
Q 1341 213 1159 525 
z
M 3116 1747 
Q 3116 2381 2855 2742 
Q 2594 3103 2138 3103 
Q 1681 3103 1420 2742 
Q 1159 2381 1159 1747 
Q 1159 1113 1420 752 
Q 1681 391 2138 391 
Q 2594 391 2855 752 
Q 3116 1113 3116 1747 
z
" transform="scale(0.015625)"/>
       <path id="DejaVuSans-6e" d="M 3513 2113 
L 3513 0 
L 2938 0 
L 2938 2094 
Q 2938 2591 2744 2837 
Q 2550 3084 2163 3084 
Q 1697 3084 1428 2787 
Q 1159 2491 1159 1978 
L 1159 0 
L 581 0 
L 581 3500 
L 1159 3500 
L 1159 2956 
Q 1366 3272 1645 3428 
Q 1925 3584 2291 3584 
Q 2894 3584 3203 3211 
Q 3513 2838 3513 2113 
z
" transform="scale(0.015625)"/>
      </defs>
      <use xlink:href="#DejaVuSans-70"/>
      <use xlink:href="#DejaVuSans-72" x="63.476562"/>
      <use xlink:href="#DejaVuSans-6f" x="102.339844"/>
      <use xlink:href="#DejaVuSans-70" x="163.521484"/>
      <use xlink:href="#DejaVuSans-6f" x="226.998047"/>
      <use xlink:href="#DejaVuSans-72" x="288.179688"/>
      <use xlink:href="#DejaVuSans-74" x="329.292969"/>
      <use xlink:href="#DejaVuSans-69" x="368.501953"/>
      <use xlink:href="#DejaVuSans-6f" x="396.285156"/>
      <use xlink:href="#DejaVuSans-6e" x="457.466797"/>
      <use xlink:href="#DejaVuSans-20" x="520.845703"/>
      <use xlink:href="#DejaVuSans-6f" x="552.632812"/>
      <use xlink:href="#DejaVuSans-66" x="613.814453"/>
      <use xlink:href="#DejaVuSans-20" x="649.019531"/>
      <use xlink:href="#DejaVuSans-74" x="680.806641"/>
      <use xlink:href="#DejaVuSans-72" x="720.015625"/>
      <use xlink:href="#DejaVuSans-69" x="761.128906"/>
      <use xlink:href="#DejaVuSans-61" x="788.912109"/>
      <use xlink:href="#DejaVuSans-6c" x="850.191406"/>
      <use xlink:href="#DejaVuSans-73" x="877.974609"/>
     </g>
    </g>
   </g>
   <g id="line2d_33">
    <path d="M 34.16 270.565912 
L 128.188795 270.565912 
L 128.188795 269.8504 
L 143.032729 269.8504 
L 143.032729 269.134887 
L 148.995219 269.134887 
L 148.995219 268.419375 
L 157.345222 268.419375 
L 157.345222 267.703862 
L 159.025683 267.703862 
L 159.025683 266.988349 
L 160.49867 266.988349 
L 160.49867 266.272837 
L 167.881339 266.272837 
L 167.881339 265.557324 
L 168.848673 265.557324 
L 168.848673 264.841812 
L 169.092975 264.841812 
L 169.092975 264.126299 
L 169.759277 264.126299 
L 169.759277 263.410787 
L 170.529133 263.410787 
L 170.529133 262.695274 
L 173.307075 262.695274 
L 173.307075 261.979762 
L 174.575595 261.979762 
L 174.575595 261.264249 
L 179.211952 261.264249 
L 179.211952 260.548737 
L 180.596426 260.548737 
L 180.596426 259.833224 
L 184.60321 259.833224 
L 184.60321 259.117712 
L 184.810525 259.117712 
L 184.810525 258.402199 
L 185.268196 258.402199 
L 185.268196 257.686687 
L 185.640866 257.686687 
L 185.640866 256.971174 
L 186.079045 256.971174 
L 186.079045 256.255661 
L 188.268974 256.255661 
L 188.268974 255.540149 
L 189.732495 255.540149 
L 189.732495 254.824636 
L 190.373564 254.824636 
L 190.373564 254.109124 
L 190.715403 254.109124 
L 190.715403 253.393611 
L 193.344191 253.393611 
L 193.344191 252.678099 
L 193.58203 252.678099 
L 193.58203 251.962586 
L 196.78082 251.962586 
L 196.78082 251.247074 
L 199.434578 251.247074 
L 199.434578 250.531561 
L 200.11213 250.531561 
L 200.11213 249.816049 
L 200.518942 249.816049 
L 200.518942 249.100536 
L 200.85203 249.100536 
L 200.85203 248.385024 
L 201.694194 248.385024 
L 201.694194 247.669511 
L 203.112908 247.669511 
L 203.112908 246.953999 
L 203.374654 246.953999 
L 203.374654 246.238486 
L 204.544544 246.238486 
L 204.576429 244.807461 
L 205.13285 244.807461 
L 205.13285 244.091948 
L 207.653397 244.091948 
L 207.743335 242.660923 
L 209.45182 242.660923 
L 209.45182 241.945411 
L 210.397092 241.945411 
L 210.397092 241.229898 
L 211.664411 241.229898 
L 211.664411 240.514386 
L 212.022392 240.514386 
L 212.022392 239.798873 
L 213.318939 239.798873 
L 213.318939 239.083361 
L 213.441947 239.083361 
L 213.441947 238.367848 
L 216.095365 238.367848 
L 216.095365 237.652336 
L 217.656047 237.652336 
L 217.656047 236.936823 
L 218.924566 236.936823 
L 218.924566 236.22131 
L 220.014414 236.22131 
L 220.014414 235.505798 
L 220.675751 235.505798 
L 220.675751 234.790285 
L 221.694875 234.790285 
L 221.694875 234.074773 
L 222.497331 234.074773 
L 222.497331 233.35926 
L 223.560924 233.35926 
L 223.560924 232.643748 
L 223.874542 232.643748 
L 223.960543 231.212723 
L 224.960739 231.212723 
L 224.960739 230.49721 
L 225.336866 230.49721 
L 225.336866 229.781698 
L 226.528299 229.781698 
L 226.528299 229.066185 
L 227.159333 229.066185 
L 227.211347 227.63516 
L 227.961517 227.63516 
L 227.961517 226.919648 
L 229.425039 226.919648 
L 229.480344 225.488622 
L 229.813091 225.488622 
L 229.813091 224.77311 
L 231.662521 224.77311 
L 231.762168 223.342085 
L 231.814461 223.342085 
L 231.814461 222.626572 
L 231.944045 222.626572 
L 231.944045 221.91106 
L 232.226572 221.91106 
L 232.226572 221.195547 
L 232.679135 221.195547 
L 232.679135 220.480035 
L 233.76658 220.480035 
L 233.76658 219.764522 
L 234.201066 219.764522 
L 234.201066 219.04901 
L 234.975028 219.04901 
L 234.975028 218.333497 
L 235.332892 218.333497 
L 235.332892 217.617985 
L 235.511363 217.617985 
L 235.511363 216.902472 
L 235.976267 216.902472 
L 235.976267 216.18696 
L 236.256809 216.18696 
L 236.256809 215.471447 
L 237.244787 215.471447 
L 237.244787 214.755934 
L 238.262128 214.755934 
L 238.262128 214.040422 
L 239.797585 214.040422 
L 239.906682 212.609397 
L 240.457757 212.609397 
L 240.457757 211.893884 
L 241.031165 211.893884 
L 241.031165 211.178372 
L 241.881144 211.178372 
L 241.881144 210.462859 
L 242.422512 210.462859 
L 242.422512 209.747347 
L 242.596007 209.747347 
L 242.625036 208.316322 
L 242.720267 208.316322 
L 242.776975 206.885297 
L 244.729094 206.885297 
L 244.729094 206.169784 
L 244.867913 206.169784 
L 244.867913 205.454272 
L 245.579789 205.454272 
L 245.579789 204.738759 
L 245.721045 204.738759 
L 245.764232 203.307734 
L 245.883108 203.307734 
L 245.883108 202.592221 
L 246.585421 202.592221 
L 246.585421 201.876709 
L 247.184566 201.876709 
L 247.219323 200.445684 
L 247.345941 200.445684 
L 247.452965 199.014659 
L 248.508704 199.014659 
L 248.508704 198.299146 
L 249.045 198.299146 
L 249.045 197.583634 
L 249.590281 197.583634 
L 249.655491 195.437096 
L 250.005801 195.437096 
L 250.005801 194.721584 
L 250.453743 194.721584 
L 250.453743 194.006071 
L 250.7601 194.006071 
L 250.7601 193.290558 
L 251.220549 193.290558 
L 251.220549 192.575046 
L 251.707495 192.575046 
L 251.707495 191.859533 
L 251.917264 191.859533 
L 251.917264 191.144021 
L 253.385211 191.144021 
L 253.385211 190.428508 
L 253.750716 190.428508 
L 253.750716 189.712996 
L 253.874622 189.712996 
L 253.929792 188.281971 
L 254.361252 188.281971 
L 254.409551 186.850946 
L 254.750615 186.850946 
L 254.750615 186.135433 
L 254.88942 186.135433 
L 254.935424 184.704408 
L 255.112799 184.704408 
L 255.112799 183.988896 
L 255.30169 183.988896 
L 255.30169 183.273383 
L 255.610252 183.273383 
L 255.610252 182.55787 
L 255.928844 182.55787 
L 255.928844 181.842358 
L 256.615885 181.842358 
L 256.615885 181.126845 
L 257.161722 181.126845 
L 257.161722 180.411333 
L 257.276471 180.411333 
L 257.276471 179.69582 
L 257.608342 179.69582 
L 257.626781 178.264795 
L 257.931431 178.264795 
L 257.942612 176.83377 
L 258.056939 176.83377 
L 258.056939 176.118258 
L 258.399899 176.118258 
L 258.399899 175.402745 
L 258.756243 175.402745 
L 258.841528 173.97172 
L 258.908182 173.97172 
L 258.908182 173.256207 
L 259.215945 173.256207 
L 259.215945 172.540695 
L 259.623073 172.540695 
L 259.623073 171.825182 
L 260.059525 171.825182 
L 260.059525 171.10967 
L 260.262099 171.10967 
L 260.262099 170.394157 
L 260.860301 170.394157 
L 260.932209 168.963132 
L 261.250892 168.963132 
L 261.250892 168.24762 
L 261.632821 168.24762 
L 261.632821 167.532107 
L 261.814356 167.532107 
L 261.814356 166.816595 
L 262.041034 166.816595 
L 262.041034 166.101082 
L 262.192974 166.101082 
L 262.207609 164.670057 
L 262.391831 164.670057 
L 262.39573 163.239032 
L 262.956898 163.239032 
L 262.956898 162.523519 
L 263.188134 162.523519 
L 263.188134 161.808007 
L 263.35053 161.808007 
L 263.35053 161.092494 
L 264.145093 161.092494 
L 264.145093 160.376982 
L 264.434214 160.376982 
L 264.537992 158.945957 
L 264.663826 158.945957 
L 264.663826 158.230444 
L 264.919922 158.230444 
L 264.919922 157.514932 
L 265.105468 157.514932 
L 265.105468 156.799419 
L 265.677545 156.799419 
L 265.678932 154.652882 
L 265.902003 154.652882 
L 265.960372 153.221857 
L 266.243998 153.221857 
L 266.274441 151.790831 
L 266.635322 151.790831 
L 266.718049 149.644294 
L 266.891307 149.644294 
L 266.907347 148.213269 
L 267.560836 148.213269 
L 267.560836 147.497756 
L 267.712776 147.497756 
L 267.712776 146.782244 
L 268.555085 146.782244 
L 268.555085 146.066731 
L 268.905396 146.066731 
L 268.905396 145.351219 
L 269.561541 145.351219 
L 269.664894 143.920194 
L 269.690366 143.920194 
L 269.793262 142.489169 
L 269.828589 142.489169 
L 269.891644 140.342631 
L 270.120143 140.342631 
L 270.176098 137.480581 
L 270.398339 137.480581 
L 270.398339 136.765068 
L 270.609308 136.765068 
L 270.609308 136.049556 
L 270.897277 136.049556 
L 270.959618 134.618531 
L 271.160164 134.618531 
L 271.160164 133.903018 
L 271.35832 133.903018 
L 271.35832 133.187506 
L 271.844819 133.187506 
L 271.844819 132.471993 
L 272.040096 132.471993 
L 272.040096 131.756481 
L 272.155124 131.756481 
L 272.174366 129.609943 
L 272.422026 129.609943 
L 272.422026 128.89443 
L 273.181035 128.89443 
L 273.181035 128.178918 
L 273.399117 128.178918 
L 273.399117 127.463405 
L 273.746102 127.463405 
L 273.746102 126.747893 
L 273.89361 126.747893 
L 273.904465 125.316868 
L 274.862639 125.316868 
L 274.862639 124.601355 
L 275.172985 124.601355 
L 275.172985 123.885843 
L 275.6959 123.885843 
L 275.796522 122.454818 
L 275.931355 122.454818 
L 275.931355 121.739305 
L 276.281665 121.739305 
L 276.313285 120.30828 
L 276.663595 120.30828 
L 276.663595 119.592767 
L 276.802154 119.592767 
L 276.802154 118.877255 
L 276.956534 118.877255 
L 277.063645 117.44623 
L 277.072294 117.44623 
L 277.072294 116.730717 
L 277.422605 116.730717 
L 277.496413 115.299692 
L 277.637361 115.299692 
L 277.637361 114.58418 
L 277.878343 114.58418 
L 277.987672 113.153155 
L 278.194711 113.153155 
L 278.194711 112.437642 
L 278.637352 112.437642 
L 278.637352 111.72213 
L 279.010756 111.72213 
L 279.010756 111.006617 
L 279.202419 111.006617 
L 279.202419 110.291104 
L 279.599225 110.291104 
L 279.599225 109.575592 
L 279.809343 109.575592 
L 279.809343 108.860079 
L 280.1503 108.860079 
L 280.1503 108.144567 
L 280.316632 108.144567 
L 280.316632 107.429054 
L 280.954904 107.429054 
L 280.954904 106.713542 
L 281.107204 106.713542 
L 281.107204 105.998029 
L 281.305214 105.998029 
L 281.305214 105.282517 
L 281.829416 105.282517 
L 281.912112 103.851492 
L 282.34538 103.851492 
L 282.416267 102.420467 
L 282.519962 102.420467 
L 282.519962 101.704954 
L 283.110562 101.704954 
L 283.161426 100.273929 
L 284.332804 100.273929 
L 284.332804 99.558416 
L 284.714733 99.558416 
L 284.714733 98.842904 
L 285.417045 98.842904 
L 285.473743 97.411879 
L 285.838057 97.411879 
L 285.838057 96.696366 
L 286.03881 96.696366 
L 286.126212 95.265341 
L 286.589196 95.265341 
L 286.589196 94.549829 
L 286.741135 94.549829 
L 286.741135 93.834316 
L 286.880566 93.834316 
L 286.880566 93.118804 
L 287.394731 93.118804 
L 287.394731 92.403291 
L 288.483473 92.403291 
L 288.483473 91.687779 
L 288.693254 91.687779 
L 288.693254 90.972266 
L 288.865403 90.972266 
L 288.865403 90.256754 
L 289.036848 90.256754 
L 289.036848 89.541241 
L 289.282824 89.541241 
L 289.356353 88.110216 
L 289.450396 88.110216 
L 289.450396 87.394703 
L 289.624413 87.394703 
L 289.624413 86.679191 
L 290.189479 86.679191 
L 290.189479 85.963678 
L 290.773016 85.963678 
L 290.773016 85.248166 
L 291.183483 85.248166 
L 291.183483 84.532653 
L 291.653137 84.532653 
L 291.690605 83.101628 
L 292.031089 83.101628 
L 292.031089 82.386116 
L 292.490043 82.386116 
L 292.490043 81.670603 
L 292.641982 81.670603 
L 292.641982 80.955091 
L 292.783541 80.955091 
L 292.783541 80.239578 
L 293.507022 80.239578 
L 293.507022 79.524066 
L 294.594101 79.524066 
L 294.594101 78.808553 
L 294.72426 78.808553 
L 294.72426 78.09304 
L 295.321197 78.09304 
L 295.321197 77.377528 
L 296.385835 77.377528 
L 296.385835 76.662015 
L 297.08433 76.662015 
L 297.103511 75.23099 
L 297.358752 75.23099 
L 297.388878 73.799965 
L 297.909827 73.799965 
L 297.909827 73.084453 
L 298.109144 73.084453 
L 298.109144 72.36894 
L 298.393996 72.36894 
L 298.393996 71.653428 
L 300.625107 71.653428 
L 300.729011 70.222403 
L 301.116332 70.222403 
L 301.116332 69.50689 
L 301.967188 69.50689 
L 301.967188 68.791378 
L 302.09145 68.791378 
L 302.09145 68.075865 
L 302.642525 68.075865 
L 302.642525 67.360352 
L 302.783233 67.360352 
L 302.783233 66.64484 
L 304.801468 66.64484 
L 304.801468 65.929327 
L 306.864301 65.929327 
L 306.864301 65.213815 
L 307.042351 65.213815 
L 307.042351 64.498302 
L 308.10528 64.498302 
L 308.10528 63.78279 
L 308.48721 63.78279 
L 308.48721 63.067277 
L 309.24622 63.067277 
L 309.24622 62.351765 
L 309.672611 62.351765 
L 309.672611 61.636252 
L 309.811287 61.636252 
L 309.811287 60.92074 
L 310.830116 60.92074 
L 310.910787 59.489715 
L 311.726833 59.489715 
L 311.775049 58.05869 
L 312.569917 58.05869 
L 312.569917 57.343177 
L 313.120992 57.343177 
L 313.12883 55.912152 
L 313.338078 55.912152 
L 313.338078 55.196639 
L 313.830894 55.196639 
L 313.830894 54.481127 
L 315.294416 54.481127 
L 315.294416 53.765614 
L 317.04888 53.765614 
L 317.04888 53.050102 
L 317.43081 53.050102 
L 317.43081 52.334589 
L 318.18982 52.334589 
L 318.18982 51.619077 
L 318.754887 51.619077 
L 318.754887 50.903564 
L 319.288923 50.903564 
L 319.33121 49.472539 
L 322.072429 49.472539 
L 322.072429 48.757027 
L 322.253516 48.757027 
L 322.253516 48.041514 
L 322.487714 48.041514 
L 322.487714 47.326001 
L 323.918549 47.326001 
L 323.918549 46.610489 
L 324.070489 46.610489 
L 324.070489 45.894976 
L 324.681044 45.894976 
L 324.681044 45.179464 
L 325.036825 45.179464 
L 325.141471 43.748439 
L 325.5879 43.748439 
L 325.5879 43.032926 
L 326.022607 43.032926 
L 326.022607 42.317414 
L 328.512837 42.317414 
L 328.512837 41.601901 
L 330.839744 41.601901 
L 330.839744 40.886389 
L 331.349137 40.886389 
L 331.349137 40.170876 
L 332.053613 40.170876 
L 332.053613 39.455364 
L 333.215318 39.455364 
L 333.215318 38.739851 
L 334.720424 38.739851 
L 334.720424 38.024339 
L 337.054753 38.024339 
L 337.054753 37.308826 
L 337.605827 37.308826 
L 337.605827 36.593313 
L 340.189963 36.593313 
L 340.189963 35.877801 
L 343.190741 35.877801 
L 343.190741 35.162288 
L 344.654263 35.162288 
L 344.654263 34.446776 
L 346.738351 34.446776 
L 346.738351 33.731263 
L 357.369415 33.731263 
L 357.369415 33.015751 
L 357.521355 33.015751 
L 357.521355 32.300238 
L 359.473473 32.300238 
L 359.473473 31.584726 
L 359.762987 31.584726 
L 359.762987 30.869213 
L 361.963703 30.869213 
L 361.963703 30.153701 
L 362.575164 30.153701 
L 362.575164 29.438188 
L 365.468602 29.438188 
L 365.504479 28.007163 
L 366.019677 28.007163 
L 366.019677 27.291651 
L 375.152201 27.291651 
L 375.152201 26.576138 
L 389.122833 26.576138 
L 389.122833 25.860625 
L 394.828449 25.860625 
L 394.828449 25.145113 
L 395.379524 25.145113 
L 395.379524 24.4296 
L 404.512048 24.4296 
L 404.512048 23.714088 
L 446.924475 23.714088 
L 446.924475 23.714088 
" clip-path="url(#pcae4430e4e)" style="fill: none; stroke: #000000; stroke-width: 3; stroke-linecap: square"/>
   </g>
   <g id="line2d_34">
    <path clip-path="url(#pcae4430e4e)" style="fill: none; stroke: #000000; stroke-width: 3; stroke-linecap: square"/>
   </g>
   <g id="line2d_35">
    <path d="M 34.16 288.453725 
L 173.932643 288.453725 
L 173.932643 287.040588 
L 182.701952 287.040588 
L 182.701952 285.627451 
L 184.443643 285.627451 
L 184.443643 284.214314 
L 188.075098 284.214314 
L 188.075098 282.801176 
L 199.004002 282.801176 
L 199.004002 281.388039 
L 204.500153 281.388039 
L 204.500153 279.974902 
L 208.21041 279.974902 
L 208.21041 278.561765 
L 213.052999 278.561765 
L 213.052999 277.148627 
L 213.964036 277.148627 
L 213.964036 275.73549 
L 216.97972 275.73549 
L 216.97972 274.322353 
L 218.265503 274.322353 
L 218.265503 272.909216 
L 218.72141 272.909216 
L 218.72141 271.496078 
L 220.234747 271.496078 
L 220.234747 270.082941 
L 221.822309 270.082941 
L 221.822309 268.669804 
L 222.352865 268.669804 
L 222.352865 267.256667 
L 223.563999 267.256667 
L 223.563999 265.843529 
L 224.127135 265.843529 
L 224.127135 264.430392 
L 226.043552 264.430392 
L 226.043552 263.017255 
L 226.604244 263.017255 
L 226.604244 261.604118 
L 227.195454 261.604118 
L 227.195454 260.19098 
L 229.004057 260.19098 
L 229.004057 258.777843 
L 230.745747 258.777843 
L 230.745747 257.364706 
L 233.28177 257.364706 
L 233.28177 255.951569 
L 234.377202 255.951569 
L 234.377202 254.538431 
L 234.812862 254.538431 
L 234.812862 253.125294 
L 235.373554 253.125294 
L 235.373554 251.712157 
L 236.554552 251.712157 
L 236.554552 250.29902 
L 237.115244 250.29902 
L 237.115244 248.885882 
L 238.124359 248.885882 
L 238.124359 247.472745 
L 238.77792 247.472745 
L 238.77792 246.059608 
L 240.071793 246.059608 
L 240.071793 244.646471 
L 240.186007 244.646471 
L 240.186007 243.233333 
L 240.746699 243.233333 
L 240.746699 241.820196 
L 243.04899 241.820196 
L 243.04899 240.407059 
L 243.620509 240.407059 
L 243.620509 238.993922 
L 244.29886 238.993922 
L 244.29886 237.580784 
L 245.306107 237.580784 
L 245.306107 236.167647 
L 245.556642 236.167647 
L 245.556642 234.75451 
L 246.257475 234.75451 
L 246.257475 233.341373 
L 248.241803 233.341373 
L 248.261232 230.515098 
L 248.841103 230.515098 
L 248.841103 229.101961 
L 250.037071 229.101961 
L 250.037071 227.688824 
L 250.258264 227.688824 
L 250.258264 226.275686 
L 250.582793 226.275686 
L 250.582793 224.862549 
L 250.802257 224.862549 
L 250.802257 223.449412 
L 251.114912 223.449412 
L 251.114912 222.036275 
L 251.243817 222.036275 
L 251.243817 220.623137 
L 251.368686 220.623137 
L 251.403495 217.796863 
L 251.675604 217.796863 
L 251.675604 216.383725 
L 252.54327 216.383725 
L 252.544723 213.557451 
L 252.809174 213.557451 
L 252.847802 210.731176 
L 253.06817 210.731176 
L 253.084393 207.904902 
L 253.245556 207.904902 
L 253.245556 206.491765 
L 253.687408 206.491765 
L 253.751469 203.66549 
L 253.911147 203.66549 
L 253.911147 202.252353 
L 254.214248 202.252353 
L 254.214248 200.839216 
L 254.452302 200.839216 
L 254.452302 199.426078 
L 254.61198 199.426078 
L 254.61198 198.012941 
L 254.80986 198.012941 
L 254.80986 196.599804 
L 255.249313 196.599804 
L 255.249313 195.186667 
L 255.800013 195.186667 
L 255.800013 193.773529 
L 256.19506 193.773529 
L 256.19506 192.360392 
L 256.456058 192.360392 
L 256.456058 190.947255 
L 256.611062 190.947255 
L 256.615737 188.12098 
L 256.895893 188.12098 
L 256.895893 186.707843 
L 257.171754 186.707843 
L 257.246345 183.881569 
L 257.38586 183.881569 
L 257.38586 182.468431 
L 258.356767 182.468431 
L 258.453091 176.815882 
L 258.612769 176.815882 
L 258.678619 173.989608 
L 258.824946 173.989608 
L 258.89965 171.163333 
L 259.556219 171.163333 
L 259.563513 168.337059 
L 259.723191 168.337059 
L 259.797254 165.510784 
L 259.835883 165.510784 
L 259.835883 164.097647 
L 260.266141 164.097647 
L 260.266141 162.68451 
L 260.896682 162.68451 
L 261.004 159.858235 
L 261.042629 159.858235 
L 261.042629 158.445098 
L 261.163678 158.445098 
L 261.202307 155.618824 
L 261.332597 155.618824 
L 261.332597 154.205686 
L 262.007104 154.205686 
L 262.063871 149.966275 
L 262.764704 149.966275 
L 262.764704 148.553137 
L 263.247492 148.553137 
L 263.247492 147.14 
L 263.424345 147.14 
L 263.48622 142.900588 
L 264.037187 142.900588 
L 264.037187 141.487451 
L 264.567608 141.487451 
L 264.569323 138.661176 
L 264.768461 138.661176 
L 264.768461 137.248039 
L 265.143153 137.248039 
L 265.143153 135.834902 
L 265.313703 135.834902 
L 265.313703 134.421765 
L 266.03422 134.421765 
L 266.074946 131.59549 
L 266.311013 131.59549 
L 266.311013 130.182353 
L 266.635638 130.182353 
L 266.635638 128.769216 
L 266.765494 128.769216 
L 266.765494 127.356078 
L 267.144642 127.356078 
L 267.144642 125.942941 
L 267.447929 125.942941 
L 267.447929 124.529804 
L 267.875915 124.529804 
L 267.875915 123.116667 
L 268.585129 123.116667 
L 268.623758 120.290392 
L 269.189619 120.290392 
L 269.189619 118.877255 
L 269.316403 118.877255 
L 269.37022 114.637843 
L 269.942468 114.637843 
L 269.942468 113.224706 
L 270.376413 113.224706 
L 270.42924 108.985294 
L 270.639303 108.985294 
L 270.639303 107.572157 
L 270.937105 107.572157 
L 270.937105 106.15902 
L 271.619172 106.15902 
L 271.619172 104.745882 
L 271.77885 104.745882 
L 271.77885 103.332745 
L 272.301784 103.332745 
L 272.301784 101.919608 
L 272.821074 101.919608 
L 272.821074 100.506471 
L 273.50853 100.506471 
L 273.50853 99.093333 
L 273.668208 99.093333 
L 273.668208 97.680196 
L 274.062763 97.680196 
L 274.062763 96.267059 
L 274.86637 96.267059 
L 274.86637 94.853922 
L 275.949536 94.853922 
L 275.952121 92.027647 
L 276.238045 92.027647 
L 276.238045 90.61451 
L 276.734558 90.61451 
L 276.798737 87.788235 
L 277.274033 87.788235 
L 277.274033 86.375098 
L 278.457188 86.375098 
L 278.457188 84.961961 
L 279.158021 84.961961 
L 279.24221 80.722549 
L 279.781685 80.722549 
L 279.781685 79.309412 
L 279.931574 79.309412 
L 279.943043 76.483137 
L 280.103187 76.483137 
L 280.16983 73.656863 
L 280.482518 73.656863 
L 280.482518 72.243725 
L 280.871373 72.243725 
L 280.871373 70.830588 
L 281.089658 70.830588 
L 281.161778 68.004314 
L 281.820932 68.004314 
L 281.820932 66.591176 
L 281.9468 66.591176 
L 281.9468 65.178039 
L 282.486275 65.178039 
L 282.486275 63.764902 
L 283.158811 63.764902 
L 283.158811 62.351765 
L 283.749979 62.351765 
L 283.749979 60.938627 
L 283.943832 60.938627 
L 283.943832 59.52549 
L 284.269232 59.52549 
L 284.330254 56.699216 
L 284.404654 56.699216 
L 284.483307 53.872941 
L 285.054254 53.872941 
L 285.054254 52.459804 
L 285.593729 52.459804 
L 285.593729 51.046667 
L 285.70972 51.046667 
L 285.748349 48.220392 
L 286.367523 48.220392 
L 286.367523 46.807255 
L 286.494741 46.807255 
L 286.53337 43.98098 
L 287.034216 43.98098 
L 287.072845 41.154706 
L 288.631721 41.154706 
L 288.631721 39.741569 
L 289.246129 39.741569 
L 289.246129 38.328431 
L 290.266286 38.328431 
L 290.266286 36.915294 
L 294.493353 36.915294 
L 294.493353 35.502157 
L 295.831406 35.502157 
L 295.831406 34.08902 
L 296.324891 34.08902 
L 296.324891 32.675882 
L 297.109913 32.675882 
L 297.109913 31.262745 
L 297.649388 31.262745 
L 297.649388 29.849608 
L 298.214249 29.849608 
L 298.214249 28.436471 
L 298.710013 28.436471 
L 298.710013 27.023333 
L 298.999271 27.023333 
L 298.999271 25.610196 
L 299.538746 25.610196 
L 299.538746 24.197059 
L 300.132873 24.197059 
L 300.132873 22.783922 
L 303.01148 22.783922 
L 303.01148 21.370784 
L 305.994506 21.370784 
L 305.994506 19.957647 
L 308.873112 19.957647 
L 308.873112 18.54451 
L 314.447597 18.54451 
L 314.447597 17.131373 
L 319.290186 17.131373 
L 319.290186 15.718235 
L 326.471935 15.718235 
L 326.471935 14.305098 
L 332.28074 14.305098 
L 332.28074 12.891961 
L 332.841431 12.891961 
L 332.841431 11.478824 
L 346.308981 11.478824 
L 346.308981 10.065686 
L 350.536047 10.065686 
L 350.536047 8.652549 
L 362.0372 8.652549 
L 362.0372 7.239412 
L 364.915807 7.239412 
L 364.915807 5.826275 
L 446.924475 5.826275 
L 446.924475 5.826275 
" clip-path="url(#pcae4430e4e)" style="fill: none; stroke: #00bfbf; stroke-width: 3; stroke-linecap: square"/>
   </g>
   <g id="line2d_36">
    <path clip-path="url(#pcae4430e4e)" style="fill: none; stroke: #00bfbf; stroke-width: 3; stroke-linecap: square"/>
   </g>
   <g id="line2d_37">
    <path d="M 34.16 100.035425 
L 219.012143 100.035425 
L 219.012143 95.324967 
L 255.134618 95.324967 
L 255.134618 90.61451 
L 260.511077 90.61451 
L 260.511077 85.904052 
L 264.806816 85.904052 
L 264.806816 81.193595 
L 286.692539 81.193595 
L 286.692539 76.483137 
L 296.633552 76.483137 
L 296.633552 71.77268 
L 306.305751 71.77268 
L 306.305751 67.062222 
L 319.567835 67.062222 
L 319.567835 62.351765 
L 328.191473 62.351765 
L 328.191473 57.641307 
L 361.06677 57.641307 
L 361.06677 52.93085 
L 446.924475 52.93085 
" clip-path="url(#pcae4430e4e)" style="fill: none; stroke: #bf00bf; stroke-width: 3; stroke-linecap: square"/>
   </g>
   <g id="line2d_38">
    <path clip-path="url(#pcae4430e4e)" style="fill: none; stroke: #bf00bf; stroke-width: 3; stroke-linecap: square"/>
   </g>
   <g id="line2d_39"/>
   <g id="line2d_40"/>
   <g id="line2d_41">
    <path d="M 240.542238 291.28 
L 240.542238 3 
" clip-path="url(#pcae4430e4e)" style="fill: none; stroke: #000000; stroke-width: 1.5; stroke-linecap: square"/>
   </g>
   <g id="line2d_42">
    <path d="M 34.16 147.14 
L 446.924475 147.14 
" clip-path="url(#pcae4430e4e)" style="fill: none; stroke-dasharray: 2,3.3; stroke-dashoffset: 0; stroke: #000000; stroke-width: 2"/>
   </g>
   <g id="patch_3">
    <path d="M 34.16 291.28 
L 34.16 3 
" style="fill: none; stroke: #000000; stroke-width: 0.8; stroke-linejoin: miter; stroke-linecap: square"/>
   </g>
   <g id="patch_4">
    <path d="M 446.924475 291.28 
L 446.924475 3 
" style="fill: none; stroke: #000000; stroke-width: 0.8; stroke-linejoin: miter; stroke-linecap: square"/>
   </g>
   <g id="patch_5">
    <path d="M 34.16 291.28 
L 446.924475 291.28 
" style="fill: none; stroke: #000000; stroke-width: 0.8; stroke-linejoin: miter; stroke-linecap: square"/>
   </g>
   <g id="patch_6">
    <path d="M 34.16 3 
L 446.924475 3 
" style="fill: none; stroke: #000000; stroke-width: 0.8; stroke-linejoin: miter; stroke-linecap: square"/>
   </g>
   <g id="text_6">
    <!-- f39, f40, f44, f45,20-D -->
    <g transform="translate(216.147311 285.5144) scale(0.2 -0.2)">
     <defs>
      <path id="DejaVuSans-33" d="M 2597 2516 
Q 3050 2419 3304 2112 
Q 3559 1806 3559 1356 
Q 3559 666 3084 287 
Q 2609 -91 1734 -91 
Q 1441 -91 1130 -33 
Q 819 25 488 141 
L 488 750 
Q 750 597 1062 519 
Q 1375 441 1716 441 
Q 2309 441 2620 675 
Q 2931 909 2931 1356 
Q 2931 1769 2642 2001 
Q 2353 2234 1838 2234 
L 1294 2234 
L 1294 2753 
L 1863 2753 
Q 2328 2753 2575 2939 
Q 2822 3125 2822 3475 
Q 2822 3834 2567 4026 
Q 2313 4219 1838 4219 
Q 1578 4219 1281 4162 
Q 984 4106 628 3988 
L 628 4550 
Q 988 4650 1302 4700 
Q 1616 4750 1894 4750 
Q 2613 4750 3031 4423 
Q 3450 4097 3450 3541 
Q 3450 3153 3228 2886 
Q 3006 2619 2597 2516 
z
" transform="scale(0.015625)"/>
      <path id="DejaVuSans-39" d="M 703 97 
L 703 672 
Q 941 559 1184 500 
Q 1428 441 1663 441 
Q 2288 441 2617 861 
Q 2947 1281 2994 2138 
Q 2813 1869 2534 1725 
Q 2256 1581 1919 1581 
Q 1219 1581 811 2004 
Q 403 2428 403 3163 
Q 403 3881 828 4315 
Q 1253 4750 1959 4750 
Q 2769 4750 3195 4129 
Q 3622 3509 3622 2328 
Q 3622 1225 3098 567 
Q 2575 -91 1691 -91 
Q 1453 -91 1209 -44 
Q 966 3 703 97 
z
M 1959 2075 
Q 2384 2075 2632 2365 
Q 2881 2656 2881 3163 
Q 2881 3666 2632 3958 
Q 2384 4250 1959 4250 
Q 1534 4250 1286 3958 
Q 1038 3666 1038 3163 
Q 1038 2656 1286 2365 
Q 1534 2075 1959 2075 
z
" transform="scale(0.015625)"/>
      <path id="DejaVuSans-2c" d="M 750 794 
L 1409 794 
L 1409 256 
L 897 -744 
L 494 -744 
L 750 256 
L 750 794 
z
" transform="scale(0.015625)"/>
      <path id="DejaVuSans-34" d="M 2419 4116 
L 825 1625 
L 2419 1625 
L 2419 4116 
z
M 2253 4666 
L 3047 4666 
L 3047 1625 
L 3713 1625 
L 3713 1100 
L 3047 1100 
L 3047 0 
L 2419 0 
L 2419 1100 
L 313 1100 
L 313 1709 
L 2253 4666 
z
" transform="scale(0.015625)"/>
      <path id="DejaVuSans-35" d="M 691 4666 
L 3169 4666 
L 3169 4134 
L 1269 4134 
L 1269 2991 
Q 1406 3038 1543 3061 
Q 1681 3084 1819 3084 
Q 2600 3084 3056 2656 
Q 3513 2228 3513 1497 
Q 3513 744 3044 326 
Q 2575 -91 1722 -91 
Q 1428 -91 1123 -41 
Q 819 9 494 109 
L 494 744 
Q 775 591 1075 516 
Q 1375 441 1709 441 
Q 2250 441 2565 725 
Q 2881 1009 2881 1497 
Q 2881 1984 2565 2268 
Q 2250 2553 1709 2553 
Q 1456 2553 1204 2497 
Q 953 2441 691 2322 
L 691 4666 
z
" transform="scale(0.015625)"/>
      <path id="DejaVuSans-32" d="M 1228 531 
L 3431 531 
L 3431 0 
L 469 0 
L 469 531 
Q 828 903 1448 1529 
Q 2069 2156 2228 2338 
Q 2531 2678 2651 2914 
Q 2772 3150 2772 3378 
Q 2772 3750 2511 3984 
Q 2250 4219 1831 4219 
Q 1534 4219 1204 4116 
Q 875 4013 500 3803 
L 500 4441 
Q 881 4594 1212 4672 
Q 1544 4750 1819 4750 
Q 2544 4750 2975 4387 
Q 3406 4025 3406 3419 
Q 3406 3131 3298 2873 
Q 3191 2616 2906 2266 
Q 2828 2175 2409 1742 
Q 1991 1309 1228 531 
z
" transform="scale(0.015625)"/>
      <path id="DejaVuSans-44" d="M 1259 4147 
L 1259 519 
L 2022 519 
Q 2988 519 3436 956 
Q 3884 1394 3884 2338 
Q 3884 3275 3436 3711 
Q 2988 4147 2022 4147 
L 1259 4147 
z
M 628 4666 
L 1925 4666 
Q 3281 4666 3915 4102 
Q 4550 3538 4550 2338 
Q 4550 1131 3912 565 
Q 3275 0 1925 0 
L 628 0 
L 628 4666 
z
" transform="scale(0.015625)"/>
     </defs>
     <use xlink:href="#DejaVuSans-66"/>
     <use xlink:href="#DejaVuSans-33" x="35.205078"/>
     <use xlink:href="#DejaVuSans-39" x="98.828125"/>
     <use xlink:href="#DejaVuSans-2c" x="162.451172"/>
     <use xlink:href="#DejaVuSans-20" x="194.238281"/>
     <use xlink:href="#DejaVuSans-66" x="226.025391"/>
     <use xlink:href="#DejaVuSans-34" x="261.230469"/>
     <use xlink:href="#DejaVuSans-30" x="324.853516"/>
     <use xlink:href="#DejaVuSans-2c" x="388.476562"/>
     <use xlink:href="#DejaVuSans-20" x="420.263672"/>
     <use xlink:href="#DejaVuSans-66" x="452.050781"/>
     <use xlink:href="#DejaVuSans-34" x="487.255859"/>
     <use xlink:href="#DejaVuSans-34" x="550.878906"/>
     <use xlink:href="#DejaVuSans-2c" x="614.501953"/>
     <use xlink:href="#DejaVuSans-20" x="646.289062"/>
     <use xlink:href="#DejaVuSans-66" x="678.076172"/>
     <use xlink:href="#DejaVuSans-34" x="713.28125"/>
     <use xlink:href="#DejaVuSans-35" x="776.904297"/>
     <use xlink:href="#DejaVuSans-2c" x="840.527344"/>
     <use xlink:href="#DejaVuSans-32" x="872.314453"/>
     <use xlink:href="#DejaVuSans-30" x="935.9375"/>
     <use xlink:href="#DejaVuSans-2d" x="999.560547"/>
     <use xlink:href="#DejaVuSans-44" x="1035.644531"/>
    </g>
   </g>
   <g id="text_7">
    <!-- v2.6.1.152, hv-hash=ff0e71e8cd978373 -->
    <g style="fill: #808080" transform="translate(139.1438 286.317512) scale(0.1 -0.1)">
     <defs>
      <path id="DejaVuSans-2e" d="M 684 794 
L 1344 794 
L 1344 0 
L 684 0 
L 684 794 
z
" transform="scale(0.015625)"/>
      <path id="DejaVuSans-36" d="M 2113 2584 
Q 1688 2584 1439 2293 
Q 1191 2003 1191 1497 
Q 1191 994 1439 701 
Q 1688 409 2113 409 
Q 2538 409 2786 701 
Q 3034 994 3034 1497 
Q 3034 2003 2786 2293 
Q 2538 2584 2113 2584 
z
M 3366 4563 
L 3366 3988 
Q 3128 4100 2886 4159 
Q 2644 4219 2406 4219 
Q 1781 4219 1451 3797 
Q 1122 3375 1075 2522 
Q 1259 2794 1537 2939 
Q 1816 3084 2150 3084 
Q 2853 3084 3261 2657 
Q 3669 2231 3669 1497 
Q 3669 778 3244 343 
Q 2819 -91 2113 -91 
Q 1303 -91 875 529 
Q 447 1150 447 2328 
Q 447 3434 972 4092 
Q 1497 4750 2381 4750 
Q 2619 4750 2861 4703 
Q 3103 4656 3366 4563 
z
" transform="scale(0.015625)"/>
      <path id="DejaVuSans-68" d="M 3513 2113 
L 3513 0 
L 2938 0 
L 2938 2094 
Q 2938 2591 2744 2837 
Q 2550 3084 2163 3084 
Q 1697 3084 1428 2787 
Q 1159 2491 1159 1978 
L 1159 0 
L 581 0 
L 581 4863 
L 1159 4863 
L 1159 2956 
Q 1366 3272 1645 3428 
Q 1925 3584 2291 3584 
Q 2894 3584 3203 3211 
Q 3513 2838 3513 2113 
z
" transform="scale(0.015625)"/>
      <path id="DejaVuSans-3d" d="M 678 2906 
L 4684 2906 
L 4684 2381 
L 678 2381 
L 678 2906 
z
M 678 1631 
L 4684 1631 
L 4684 1100 
L 678 1100 
L 678 1631 
z
" transform="scale(0.015625)"/>
      <path id="DejaVuSans-65" d="M 3597 1894 
L 3597 1613 
L 953 1613 
Q 991 1019 1311 708 
Q 1631 397 2203 397 
Q 2534 397 2845 478 
Q 3156 559 3463 722 
L 3463 178 
Q 3153 47 2828 -22 
Q 2503 -91 2169 -91 
Q 1331 -91 842 396 
Q 353 884 353 1716 
Q 353 2575 817 3079 
Q 1281 3584 2069 3584 
Q 2775 3584 3186 3129 
Q 3597 2675 3597 1894 
z
M 3022 2063 
Q 3016 2534 2758 2815 
Q 2500 3097 2075 3097 
Q 1594 3097 1305 2825 
Q 1016 2553 972 2059 
L 3022 2063 
z
" transform="scale(0.015625)"/>
      <path id="DejaVuSans-37" d="M 525 4666 
L 3525 4666 
L 3525 4397 
L 1831 0 
L 1172 0 
L 2766 4134 
L 525 4134 
L 525 4666 
z
" transform="scale(0.015625)"/>
      <path id="DejaVuSans-38" d="M 2034 2216 
Q 1584 2216 1326 1975 
Q 1069 1734 1069 1313 
Q 1069 891 1326 650 
Q 1584 409 2034 409 
Q 2484 409 2743 651 
Q 3003 894 3003 1313 
Q 3003 1734 2745 1975 
Q 2488 2216 2034 2216 
z
M 1403 2484 
Q 997 2584 770 2862 
Q 544 3141 544 3541 
Q 544 4100 942 4425 
Q 1341 4750 2034 4750 
Q 2731 4750 3128 4425 
Q 3525 4100 3525 3541 
Q 3525 3141 3298 2862 
Q 3072 2584 2669 2484 
Q 3125 2378 3379 2068 
Q 3634 1759 3634 1313 
Q 3634 634 3220 271 
Q 2806 -91 2034 -91 
Q 1263 -91 848 271 
Q 434 634 434 1313 
Q 434 1759 690 2068 
Q 947 2378 1403 2484 
z
M 1172 3481 
Q 1172 3119 1398 2916 
Q 1625 2713 2034 2713 
Q 2441 2713 2670 2916 
Q 2900 3119 2900 3481 
Q 2900 3844 2670 4047 
Q 2441 4250 2034 4250 
Q 1625 4250 1398 4047 
Q 1172 3844 1172 3481 
z
" transform="scale(0.015625)"/>
      <path id="DejaVuSans-63" d="M 3122 3366 
L 3122 2828 
Q 2878 2963 2633 3030 
Q 2388 3097 2138 3097 
Q 1578 3097 1268 2742 
Q 959 2388 959 1747 
Q 959 1106 1268 751 
Q 1578 397 2138 397 
Q 2388 397 2633 464 
Q 2878 531 3122 666 
L 3122 134 
Q 2881 22 2623 -34 
Q 2366 -91 2075 -91 
Q 1284 -91 818 406 
Q 353 903 353 1747 
Q 353 2603 823 3093 
Q 1294 3584 2113 3584 
Q 2378 3584 2631 3529 
Q 2884 3475 3122 3366 
z
" transform="scale(0.015625)"/>
      <path id="DejaVuSans-64" d="M 2906 2969 
L 2906 4863 
L 3481 4863 
L 3481 0 
L 2906 0 
L 2906 525 
Q 2725 213 2448 61 
Q 2172 -91 1784 -91 
Q 1150 -91 751 415 
Q 353 922 353 1747 
Q 353 2572 751 3078 
Q 1150 3584 1784 3584 
Q 2172 3584 2448 3432 
Q 2725 3281 2906 2969 
z
M 947 1747 
Q 947 1113 1208 752 
Q 1469 391 1925 391 
Q 2381 391 2643 752 
Q 2906 1113 2906 1747 
Q 2906 2381 2643 2742 
Q 2381 3103 1925 3103 
Q 1469 3103 1208 2742 
Q 947 2381 947 1747 
z
" transform="scale(0.015625)"/>
     </defs>
     <use xlink:href="#DejaVuSans-76"/>
     <use xlink:href="#DejaVuSans-32" x="59.179688"/>
     <use xlink:href="#DejaVuSans-2e" x="122.802734"/>
     <use xlink:href="#DejaVuSans-36" x="154.589844"/>
     <use xlink:href="#DejaVuSans-2e" x="218.212891"/>
     <use xlink:href="#DejaVuSans-31" x="250"/>
     <use xlink:href="#DejaVuSans-2e" x="313.623047"/>
     <use xlink:href="#DejaVuSans-31" x="345.410156"/>
     <use xlink:href="#DejaVuSans-35" x="409.033203"/>
     <use xlink:href="#DejaVuSans-32" x="472.65625"/>
     <use xlink:href="#DejaVuSans-2c" x="536.279297"/>
     <use xlink:href="#DejaVuSans-20" x="568.066406"/>
     <use xlink:href="#DejaVuSans-68" x="599.853516"/>
     <use xlink:href="#DejaVuSans-76" x="663.232422"/>
     <use xlink:href="#DejaVuSans-2d" x="719.787109"/>
     <use xlink:href="#DejaVuSans-68" x="755.871094"/>
     <use xlink:href="#DejaVuSans-61" x="819.25"/>
     <use xlink:href="#DejaVuSans-73" x="880.529297"/>
     <use xlink:href="#DejaVuSans-68" x="932.628906"/>
     <use xlink:href="#DejaVuSans-3d" x="996.007812"/>
     <use xlink:href="#DejaVuSans-66" x="1079.796875"/>
     <use xlink:href="#DejaVuSans-66" x="1115.001953"/>
     <use xlink:href="#DejaVuSans-30" x="1150.207031"/>
     <use xlink:href="#DejaVuSans-65" x="1213.830078"/>
     <use xlink:href="#DejaVuSans-37" x="1275.353516"/>
     <use xlink:href="#DejaVuSans-31" x="1338.976562"/>
     <use xlink:href="#DejaVuSans-65" x="1402.599609"/>
     <use xlink:href="#DejaVuSans-38" x="1464.123047"/>
     <use xlink:href="#DejaVuSans-63" x="1527.746094"/>
     <use xlink:href="#DejaVuSans-64" x="1582.726562"/>
     <use xlink:href="#DejaVuSans-39" x="1646.203125"/>
     <use xlink:href="#DejaVuSans-37" x="1709.826172"/>
     <use xlink:href="#DejaVuSans-38" x="1773.449219"/>
     <use xlink:href="#DejaVuSans-33" x="1837.072266"/>
     <use xlink:href="#DejaVuSans-37" x="1900.695312"/>
     <use xlink:href="#DejaVuSans-33" x="1964.318359"/>
    </g>
   </g>
   <g id="legend_1">
    <g id="patch_7">
     <path d="M 303.7026 281.28 
L 432.924475 281.28 
Q 436.924475 281.28 436.924475 277.28 
L 436.924475 132.49875 
Q 436.924475 128.49875 432.924475 128.49875 
L 303.7026 128.49875 
Q 299.7026 128.49875 299.7026 132.49875 
L 299.7026 277.28 
Q 299.7026 281.28 303.7026 281.28 
z
" style="fill: #ffffff; opacity: 0.2; stroke: #cccccc; stroke-linejoin: miter"/>
    </g>
    <g id="line2d_43">
     <path d="M 307.7026 144.695625 
L 327.7026 144.695625 
L 347.7026 144.695625 
" style="fill: none; stroke: #000000; stroke-width: 3; stroke-linecap: square"/>
    </g>
    <g id="text_8">
     <!-- -1: 4/4 -->
     <g transform="translate(363.7026 151.695625) scale(0.2 -0.2)">
      <defs>
       <path id="DejaVuSans-3a" d="M 750 794 
L 1409 794 
L 1409 0 
L 750 0 
L 750 794 
z
M 750 3309 
L 1409 3309 
L 1409 2516 
L 750 2516 
L 750 3309 
z
" transform="scale(0.015625)"/>
       <path id="DejaVuSans-2f" d="M 1625 4666 
L 2156 4666 
L 531 -594 
L 0 -594 
L 1625 4666 
z
" transform="scale(0.015625)"/>
      </defs>
      <use xlink:href="#DejaVuSans-2d"/>
      <use xlink:href="#DejaVuSans-31" x="36.083984"/>
      <use xlink:href="#DejaVuSans-3a" x="99.707031"/>
      <use xlink:href="#DejaVuSans-20" x="133.398438"/>
      <use xlink:href="#DejaVuSans-34" x="165.185547"/>
      <use xlink:href="#DejaVuSans-2f" x="228.808594"/>
      <use xlink:href="#DejaVuSans-34" x="262.5"/>
     </g>
    </g>
    <g id="line2d_44">
     <path d="M 307.7026 174.051875 
L 327.7026 174.051875 
L 347.7026 174.051875 
" style="fill: none; stroke: #00bfbf; stroke-width: 3; stroke-linecap: square"/>
    </g>
    <g id="text_9">
     <!-- -2: 2/2 -->
     <g transform="translate(363.7026 181.051875) scale(0.2 -0.2)">
      <use xlink:href="#DejaVuSans-2d"/>
      <use xlink:href="#DejaVuSans-32" x="36.083984"/>
      <use xlink:href="#DejaVuSans-3a" x="99.707031"/>
      <use xlink:href="#DejaVuSans-20" x="133.398438"/>
      <use xlink:href="#DejaVuSans-32" x="165.185547"/>
      <use xlink:href="#DejaVuSans-2f" x="228.808594"/>
      <use xlink:href="#DejaVuSans-32" x="262.5"/>
     </g>
    </g>
    <g id="line2d_45">
     <path d="M 307.7026 203.408125 
L 327.7026 203.408125 
L 347.7026 203.408125 
" style="fill: none; stroke: #bf00bf; stroke-width: 3; stroke-linecap: square"/>
    </g>
    <g id="text_10">
     <!-- -3: 1/1 -->
     <g transform="translate(363.7026 210.408125) scale(0.2 -0.2)">
      <use xlink:href="#DejaVuSans-2d"/>
      <use xlink:href="#DejaVuSans-33" x="36.083984"/>
      <use xlink:href="#DejaVuSans-3a" x="99.707031"/>
      <use xlink:href="#DejaVuSans-20" x="133.398438"/>
      <use xlink:href="#DejaVuSans-31" x="165.185547"/>
      <use xlink:href="#DejaVuSans-2f" x="228.808594"/>
      <use xlink:href="#DejaVuSans-31" x="262.5"/>
     </g>
    </g>
    <g id="line2d_46">
     <path d="M 307.7026 232.764375 
L 327.7026 232.764375 
L 347.7026 232.764375 
" style="fill: none; stroke: #ff0000; stroke-width: 3; stroke-linecap: square"/>
    </g>
    <g id="text_11">
     <!-- -4: 0/0 -->
     <g transform="translate(363.7026 239.764375) scale(0.2 -0.2)">
      <use xlink:href="#DejaVuSans-2d"/>
      <use xlink:href="#DejaVuSans-34" x="36.083984"/>
      <use xlink:href="#DejaVuSans-3a" x="99.707031"/>
      <use xlink:href="#DejaVuSans-20" x="133.398438"/>
      <use xlink:href="#DejaVuSans-30" x="165.185547"/>
      <use xlink:href="#DejaVuSans-2f" x="228.808594"/>
      <use xlink:href="#DejaVuSans-30" x="262.5"/>
     </g>
    </g>
    <g id="line2d_47">
     <path d="M 307.7026 262.120625 
L 327.7026 262.120625 
L 347.7026 262.120625 
" style="fill: none; stroke: #0000ff; stroke-width: 3; stroke-linecap: square"/>
    </g>
    <g id="text_12">
     <!-- -5: 0/0 -->
     <g transform="translate(363.7026 269.120625) scale(0.2 -0.2)">
      <use xlink:href="#DejaVuSans-2d"/>
      <use xlink:href="#DejaVuSans-35" x="36.083984"/>
      <use xlink:href="#DejaVuSans-3a" x="99.707031"/>
      <use xlink:href="#DejaVuSans-20" x="133.398438"/>
      <use xlink:href="#DejaVuSans-30" x="165.185547"/>
      <use xlink:href="#DejaVuSans-2f" x="228.808594"/>
      <use xlink:href="#DejaVuSans-30" x="262.5"/>
     </g>
    </g>
   </g>
  </g>
 </g>
 <defs>
  <clipPath id="pcae4430e4e">
   <rect x="34.16" y="3" width="412.764475" height="288.28"/>
  </clipPath>
 </defs>
</svg>
