<?xml version="1.0" encoding="utf-8" standalone="no"?>
<!DOCTYPE svg PUBLIC "-//W3C//DTD SVG 1.1//EN"
  "http://www.w3.org/Graphics/SVG/1.1/DTD/svg11.dtd">
<svg xmlns:xlink="http://www.w3.org/1999/xlink" width="460.8pt" height="345.6pt" viewBox="0 0 460.8 345.6" xmlns="http://www.w3.org/2000/svg" version="1.1">
 <metadata>
  <rdf:RDF xmlns:dc="http://purl.org/dc/elements/1.1/" xmlns:cc="http://creativecommons.org/ns#" xmlns:rdf="http://www.w3.org/1999/02/22-rdf-syntax-ns#">
   <cc:Work>
    <dc:type rdf:resource="http://purl.org/dc/dcmitype/StillImage"/>
    <dc:date>2023-03-13T19:42:12.014911</dc:date>
    <dc:format>image/svg+xml</dc:format>
    <dc:creator>
     <cc:Agent>
      <dc:title>Matplotlib v3.7.0, https://matplotlib.org/</dc:title>
     </cc:Agent>
    </dc:creator>
   </cc:Work>
  </rdf:RDF>
 </metadata>
 <defs>
  <style type="text/css">*{stroke-linejoin: round; stroke-linecap: butt}</style>
 </defs>
 <g id="figure_1">
  <g id="patch_1">
   <path d="M 0 345.6 
L 460.8 345.6 
L 460.8 0 
L 0 0 
z
" style="fill: #ffffff"/>
  </g>
  <g id="axes_1">
   <g id="patch_2">
    <path d="M 34.16 291.28 
L 453.192 291.28 
L 453.192 3 
L 34.16 3 
z
" style="fill: #ffffff"/>
   </g>
   <g id="matplotlib.axis_1">
    <g id="xtick_1">
     <g id="line2d_1">
      <path d="M 122.851411 291.28 
L 122.851411 3 
" clip-path="url(#pef9c7cf8a3)" style="fill: none; stroke: #b0b0b0; stroke-width: 0.8; stroke-linecap: square"/>
     </g>
     <g id="line2d_2">
      <defs>
       <path id="m219c3fd6ed" d="M 0 0 
L 0 3.5 
" style="stroke: #000000; stroke-width: 0.8"/>
      </defs>
      <g>
       <use xlink:href="#m219c3fd6ed" x="122.851411" y="291.28" style="stroke: #000000; stroke-width: 0.8"/>
      </g>
     </g>
     <g id="text_1">
      <!-- -2 -->
      <g transform="translate(112.881098 313.476875) scale(0.2 -0.2)">
       <defs>
        <path id="DejaVuSans-2d" d="M 313 2009 
L 1997 2009 
L 1997 1497 
L 313 1497 
L 313 2009 
z
" transform="scale(0.015625)"/>
        <path id="DejaVuSans-32" d="M 1228 531 
L 3431 531 
L 3431 0 
L 469 0 
L 469 531 
Q 828 903 1448 1529 
Q 2069 2156 2228 2338 
Q 2531 2678 2651 2914 
Q 2772 3150 2772 3378 
Q 2772 3750 2511 3984 
Q 2250 4219 1831 4219 
Q 1534 4219 1204 4116 
Q 875 4013 500 3803 
L 500 4441 
Q 881 4594 1212 4672 
Q 1544 4750 1819 4750 
Q 2544 4750 2975 4387 
Q 3406 4025 3406 3419 
Q 3406 3131 3298 2873 
Q 3191 2616 2906 2266 
Q 2828 2175 2409 1742 
Q 1991 1309 1228 531 
z
" transform="scale(0.015625)"/>
       </defs>
       <use xlink:href="#DejaVuSans-2d"/>
       <use xlink:href="#DejaVuSans-32" x="36.083984"/>
      </g>
     </g>
    </g>
    <g id="xtick_2">
     <g id="line2d_3">
      <path d="M 243.676 291.28 
L 243.676 3 
" clip-path="url(#pef9c7cf8a3)" style="fill: none; stroke: #b0b0b0; stroke-width: 0.8; stroke-linecap: square"/>
     </g>
     <g id="line2d_4">
      <g>
       <use xlink:href="#m219c3fd6ed" x="243.676" y="291.28" style="stroke: #000000; stroke-width: 0.8"/>
      </g>
     </g>
     <g id="text_2">
      <!-- 0 -->
      <g transform="translate(237.3135 313.476875) scale(0.2 -0.2)">
       <defs>
        <path id="DejaVuSans-30" d="M 2034 4250 
Q 1547 4250 1301 3770 
Q 1056 3291 1056 2328 
Q 1056 1369 1301 889 
Q 1547 409 2034 409 
Q 2525 409 2770 889 
Q 3016 1369 3016 2328 
Q 3016 3291 2770 3770 
Q 2525 4250 2034 4250 
z
M 2034 4750 
Q 2819 4750 3233 4129 
Q 3647 3509 3647 2328 
Q 3647 1150 3233 529 
Q 2819 -91 2034 -91 
Q 1250 -91 836 529 
Q 422 1150 422 2328 
Q 422 3509 836 4129 
Q 1250 4750 2034 4750 
z
" transform="scale(0.015625)"/>
       </defs>
       <use xlink:href="#DejaVuSans-30"/>
      </g>
     </g>
    </g>
    <g id="xtick_3">
     <g id="line2d_5">
      <path d="M 364.500589 291.28 
L 364.500589 3 
" clip-path="url(#pef9c7cf8a3)" style="fill: none; stroke: #b0b0b0; stroke-width: 0.8; stroke-linecap: square"/>
     </g>
     <g id="line2d_6">
      <g>
       <use xlink:href="#m219c3fd6ed" x="364.500589" y="291.28" style="stroke: #000000; stroke-width: 0.8"/>
      </g>
     </g>
     <g id="text_3">
      <!-- 2 -->
      <g transform="translate(358.138089 313.476875) scale(0.2 -0.2)">
       <use xlink:href="#DejaVuSans-32"/>
      </g>
     </g>
    </g>
    <g id="text_4">
     <!-- log10 of FEvals ratio -->
     <g transform="translate(141.371312 336.833125) scale(0.2 -0.2)">
      <defs>
       <path id="DejaVuSans-6c" d="M 603 4863 
L 1178 4863 
L 1178 0 
L 603 0 
L 603 4863 
z
" transform="scale(0.015625)"/>
       <path id="DejaVuSans-6f" d="M 1959 3097 
Q 1497 3097 1228 2736 
Q 959 2375 959 1747 
Q 959 1119 1226 758 
Q 1494 397 1959 397 
Q 2419 397 2687 759 
Q 2956 1122 2956 1747 
Q 2956 2369 2687 2733 
Q 2419 3097 1959 3097 
z
M 1959 3584 
Q 2709 3584 3137 3096 
Q 3566 2609 3566 1747 
Q 3566 888 3137 398 
Q 2709 -91 1959 -91 
Q 1206 -91 779 398 
Q 353 888 353 1747 
Q 353 2609 779 3096 
Q 1206 3584 1959 3584 
z
" transform="scale(0.015625)"/>
       <path id="DejaVuSans-67" d="M 2906 1791 
Q 2906 2416 2648 2759 
Q 2391 3103 1925 3103 
Q 1463 3103 1205 2759 
Q 947 2416 947 1791 
Q 947 1169 1205 825 
Q 1463 481 1925 481 
Q 2391 481 2648 825 
Q 2906 1169 2906 1791 
z
M 3481 434 
Q 3481 -459 3084 -895 
Q 2688 -1331 1869 -1331 
Q 1566 -1331 1297 -1286 
Q 1028 -1241 775 -1147 
L 775 -588 
Q 1028 -725 1275 -790 
Q 1522 -856 1778 -856 
Q 2344 -856 2625 -561 
Q 2906 -266 2906 331 
L 2906 616 
Q 2728 306 2450 153 
Q 2172 0 1784 0 
Q 1141 0 747 490 
Q 353 981 353 1791 
Q 353 2603 747 3093 
Q 1141 3584 1784 3584 
Q 2172 3584 2450 3431 
Q 2728 3278 2906 2969 
L 2906 3500 
L 3481 3500 
L 3481 434 
z
" transform="scale(0.015625)"/>
       <path id="DejaVuSans-31" d="M 794 531 
L 1825 531 
L 1825 4091 
L 703 3866 
L 703 4441 
L 1819 4666 
L 2450 4666 
L 2450 531 
L 3481 531 
L 3481 0 
L 794 0 
L 794 531 
z
" transform="scale(0.015625)"/>
       <path id="DejaVuSans-20" transform="scale(0.015625)"/>
       <path id="DejaVuSans-66" d="M 2375 4863 
L 2375 4384 
L 1825 4384 
Q 1516 4384 1395 4259 
Q 1275 4134 1275 3809 
L 1275 3500 
L 2222 3500 
L 2222 3053 
L 1275 3053 
L 1275 0 
L 697 0 
L 697 3053 
L 147 3053 
L 147 3500 
L 697 3500 
L 697 3744 
Q 697 4328 969 4595 
Q 1241 4863 1831 4863 
L 2375 4863 
z
" transform="scale(0.015625)"/>
       <path id="DejaVuSans-46" d="M 628 4666 
L 3309 4666 
L 3309 4134 
L 1259 4134 
L 1259 2759 
L 3109 2759 
L 3109 2228 
L 1259 2228 
L 1259 0 
L 628 0 
L 628 4666 
z
" transform="scale(0.015625)"/>
       <path id="DejaVuSans-45" d="M 628 4666 
L 3578 4666 
L 3578 4134 
L 1259 4134 
L 1259 2753 
L 3481 2753 
L 3481 2222 
L 1259 2222 
L 1259 531 
L 3634 531 
L 3634 0 
L 628 0 
L 628 4666 
z
" transform="scale(0.015625)"/>
       <path id="DejaVuSans-76" d="M 191 3500 
L 800 3500 
L 1894 563 
L 2988 3500 
L 3597 3500 
L 2284 0 
L 1503 0 
L 191 3500 
z
" transform="scale(0.015625)"/>
       <path id="DejaVuSans-61" d="M 2194 1759 
Q 1497 1759 1228 1600 
Q 959 1441 959 1056 
Q 959 750 1161 570 
Q 1363 391 1709 391 
Q 2188 391 2477 730 
Q 2766 1069 2766 1631 
L 2766 1759 
L 2194 1759 
z
M 3341 1997 
L 3341 0 
L 2766 0 
L 2766 531 
Q 2569 213 2275 61 
Q 1981 -91 1556 -91 
Q 1019 -91 701 211 
Q 384 513 384 1019 
Q 384 1609 779 1909 
Q 1175 2209 1959 2209 
L 2766 2209 
L 2766 2266 
Q 2766 2663 2505 2880 
Q 2244 3097 1772 3097 
Q 1472 3097 1187 3025 
Q 903 2953 641 2809 
L 641 3341 
Q 956 3463 1253 3523 
Q 1550 3584 1831 3584 
Q 2591 3584 2966 3190 
Q 3341 2797 3341 1997 
z
" transform="scale(0.015625)"/>
       <path id="DejaVuSans-73" d="M 2834 3397 
L 2834 2853 
Q 2591 2978 2328 3040 
Q 2066 3103 1784 3103 
Q 1356 3103 1142 2972 
Q 928 2841 928 2578 
Q 928 2378 1081 2264 
Q 1234 2150 1697 2047 
L 1894 2003 
Q 2506 1872 2764 1633 
Q 3022 1394 3022 966 
Q 3022 478 2636 193 
Q 2250 -91 1575 -91 
Q 1294 -91 989 -36 
Q 684 19 347 128 
L 347 722 
Q 666 556 975 473 
Q 1284 391 1588 391 
Q 1994 391 2212 530 
Q 2431 669 2431 922 
Q 2431 1156 2273 1281 
Q 2116 1406 1581 1522 
L 1381 1569 
Q 847 1681 609 1914 
Q 372 2147 372 2553 
Q 372 3047 722 3315 
Q 1072 3584 1716 3584 
Q 2034 3584 2315 3537 
Q 2597 3491 2834 3397 
z
" transform="scale(0.015625)"/>
       <path id="DejaVuSans-72" d="M 2631 2963 
Q 2534 3019 2420 3045 
Q 2306 3072 2169 3072 
Q 1681 3072 1420 2755 
Q 1159 2438 1159 1844 
L 1159 0 
L 581 0 
L 581 3500 
L 1159 3500 
L 1159 2956 
Q 1341 3275 1631 3429 
Q 1922 3584 2338 3584 
Q 2397 3584 2469 3576 
Q 2541 3569 2628 3553 
L 2631 2963 
z
" transform="scale(0.015625)"/>
       <path id="DejaVuSans-74" d="M 1172 4494 
L 1172 3500 
L 2356 3500 
L 2356 3053 
L 1172 3053 
L 1172 1153 
Q 1172 725 1289 603 
Q 1406 481 1766 481 
L 2356 481 
L 2356 0 
L 1766 0 
Q 1100 0 847 248 
Q 594 497 594 1153 
L 594 3053 
L 172 3053 
L 172 3500 
L 594 3500 
L 594 4494 
L 1172 4494 
z
" transform="scale(0.015625)"/>
       <path id="DejaVuSans-69" d="M 603 3500 
L 1178 3500 
L 1178 0 
L 603 0 
L 603 3500 
z
M 603 4863 
L 1178 4863 
L 1178 4134 
L 603 4134 
L 603 4863 
z
" transform="scale(0.015625)"/>
      </defs>
      <use xlink:href="#DejaVuSans-6c"/>
      <use xlink:href="#DejaVuSans-6f" x="27.783203"/>
      <use xlink:href="#DejaVuSans-67" x="88.964844"/>
      <use xlink:href="#DejaVuSans-31" x="152.441406"/>
      <use xlink:href="#DejaVuSans-30" x="216.064453"/>
      <use xlink:href="#DejaVuSans-20" x="279.6875"/>
      <use xlink:href="#DejaVuSans-6f" x="311.474609"/>
      <use xlink:href="#DejaVuSans-66" x="372.65625"/>
      <use xlink:href="#DejaVuSans-20" x="407.861328"/>
      <use xlink:href="#DejaVuSans-46" x="439.648438"/>
      <use xlink:href="#DejaVuSans-45" x="497.167969"/>
      <use xlink:href="#DejaVuSans-76" x="560.351562"/>
      <use xlink:href="#DejaVuSans-61" x="619.53125"/>
      <use xlink:href="#DejaVuSans-6c" x="680.810547"/>
      <use xlink:href="#DejaVuSans-73" x="708.59375"/>
      <use xlink:href="#DejaVuSans-20" x="760.693359"/>
      <use xlink:href="#DejaVuSans-72" x="792.480469"/>
      <use xlink:href="#DejaVuSans-61" x="833.59375"/>
      <use xlink:href="#DejaVuSans-74" x="894.873047"/>
      <use xlink:href="#DejaVuSans-69" x="934.082031"/>
      <use xlink:href="#DejaVuSans-6f" x="961.865234"/>
     </g>
    </g>
   </g>
   <g id="matplotlib.axis_2">
    <g id="ytick_1">
     <g id="line2d_7">
      <path d="M 34.16 288.453725 
L 453.192 288.453725 
" clip-path="url(#pef9c7cf8a3)" style="fill: none; stroke: #b0b0b0; stroke-width: 0.8; stroke-linecap: square"/>
     </g>
     <g id="line2d_8">
      <defs>
       <path id="m92264ff82b" d="M 0 0 
L -3.5 0 
" style="stroke: #000000; stroke-width: 0.8"/>
      </defs>
      <g>
       <use xlink:href="#m92264ff82b" x="34.16" y="288.453725" style="stroke: #000000; stroke-width: 0.8"/>
      </g>
     </g>
    </g>
    <g id="ytick_2">
     <g id="line2d_9">
      <path d="M 34.16 217.796863 
L 453.192 217.796863 
" clip-path="url(#pef9c7cf8a3)" style="fill: none; stroke: #b0b0b0; stroke-width: 0.8; stroke-linecap: square"/>
     </g>
     <g id="line2d_10">
      <g>
       <use xlink:href="#m92264ff82b" x="34.16" y="217.796863" style="stroke: #000000; stroke-width: 0.8"/>
      </g>
     </g>
    </g>
    <g id="ytick_3">
     <g id="line2d_11">
      <path d="M 34.16 147.14 
L 453.192 147.14 
" clip-path="url(#pef9c7cf8a3)" style="fill: none; stroke: #b0b0b0; stroke-width: 0.8; stroke-linecap: square"/>
     </g>
     <g id="line2d_12">
      <g>
       <use xlink:href="#m92264ff82b" x="34.16" y="147.14" style="stroke: #000000; stroke-width: 0.8"/>
      </g>
     </g>
    </g>
    <g id="ytick_4">
     <g id="line2d_13">
      <path d="M 34.16 76.483137 
L 453.192 76.483137 
" clip-path="url(#pef9c7cf8a3)" style="fill: none; stroke: #b0b0b0; stroke-width: 0.8; stroke-linecap: square"/>
     </g>
     <g id="line2d_14">
      <g>
       <use xlink:href="#m92264ff82b" x="34.16" y="76.483137" style="stroke: #000000; stroke-width: 0.8"/>
      </g>
     </g>
    </g>
    <g id="ytick_5">
     <g id="line2d_15">
      <path d="M 34.16 5.826275 
L 453.192 5.826275 
" clip-path="url(#pef9c7cf8a3)" style="fill: none; stroke: #b0b0b0; stroke-width: 0.8; stroke-linecap: square"/>
     </g>
     <g id="line2d_16">
      <g>
       <use xlink:href="#m92264ff82b" x="34.16" y="5.826275" style="stroke: #000000; stroke-width: 0.8"/>
      </g>
     </g>
    </g>
    <g id="text_5">
     <!-- proportion of trials -->
     <g transform="translate(19.000625 240.14625) rotate(-90) scale(0.2 -0.2)">
      <defs>
       <path id="DejaVuSans-70" d="M 1159 525 
L 1159 -1331 
L 581 -1331 
L 581 3500 
L 1159 3500 
L 1159 2969 
Q 1341 3281 1617 3432 
Q 1894 3584 2278 3584 
Q 2916 3584 3314 3078 
Q 3713 2572 3713 1747 
Q 3713 922 3314 415 
Q 2916 -91 2278 -91 
Q 1894 -91 1617 61 
Q 1341 213 1159 525 
z
M 3116 1747 
Q 3116 2381 2855 2742 
Q 2594 3103 2138 3103 
Q 1681 3103 1420 2742 
Q 1159 2381 1159 1747 
Q 1159 1113 1420 752 
Q 1681 391 2138 391 
Q 2594 391 2855 752 
Q 3116 1113 3116 1747 
z
" transform="scale(0.015625)"/>
       <path id="DejaVuSans-6e" d="M 3513 2113 
L 3513 0 
L 2938 0 
L 2938 2094 
Q 2938 2591 2744 2837 
Q 2550 3084 2163 3084 
Q 1697 3084 1428 2787 
Q 1159 2491 1159 1978 
L 1159 0 
L 581 0 
L 581 3500 
L 1159 3500 
L 1159 2956 
Q 1366 3272 1645 3428 
Q 1925 3584 2291 3584 
Q 2894 3584 3203 3211 
Q 3513 2838 3513 2113 
z
" transform="scale(0.015625)"/>
      </defs>
      <use xlink:href="#DejaVuSans-70"/>
      <use xlink:href="#DejaVuSans-72" x="63.476562"/>
      <use xlink:href="#DejaVuSans-6f" x="102.339844"/>
      <use xlink:href="#DejaVuSans-70" x="163.521484"/>
      <use xlink:href="#DejaVuSans-6f" x="226.998047"/>
      <use xlink:href="#DejaVuSans-72" x="288.179688"/>
      <use xlink:href="#DejaVuSans-74" x="329.292969"/>
      <use xlink:href="#DejaVuSans-69" x="368.501953"/>
      <use xlink:href="#DejaVuSans-6f" x="396.285156"/>
      <use xlink:href="#DejaVuSans-6e" x="457.466797"/>
      <use xlink:href="#DejaVuSans-20" x="520.845703"/>
      <use xlink:href="#DejaVuSans-6f" x="552.632812"/>
      <use xlink:href="#DejaVuSans-66" x="613.814453"/>
      <use xlink:href="#DejaVuSans-20" x="649.019531"/>
      <use xlink:href="#DejaVuSans-74" x="680.806641"/>
      <use xlink:href="#DejaVuSans-72" x="720.015625"/>
      <use xlink:href="#DejaVuSans-69" x="761.128906"/>
      <use xlink:href="#DejaVuSans-61" x="788.912109"/>
      <use xlink:href="#DejaVuSans-6c" x="850.191406"/>
      <use xlink:href="#DejaVuSans-73" x="877.974609"/>
     </g>
    </g>
   </g>
   <g id="line2d_17">
    <path d="M 34.16 288.453725 
L 77.93428 288.453725 
L 77.93428 287.511634 
L 78.460467 287.511634 
L 78.460467 286.569542 
L 83.623602 286.569542 
L 83.623602 285.627451 
L 85.450562 285.627451 
L 85.450562 284.685359 
L 88.172865 284.685359 
L 88.172865 283.743268 
L 93.082625 283.743268 
L 93.082625 282.801176 
L 102.890357 282.801176 
L 102.890357 281.859085 
L 115.967831 281.859085 
L 115.967831 280.916993 
L 122.851411 280.916993 
L 122.851411 279.974902 
L 186.177396 279.974902 
L 186.177396 279.03281 
L 190.389494 279.03281 
L 190.389494 278.090719 
L 197.509378 278.090719 
L 197.509378 277.148627 
L 201.182866 277.148627 
L 201.259496 275.264444 
L 201.428209 275.264444 
L 201.428209 274.322353 
L 201.785683 274.322353 
L 201.785683 273.380261 
L 203.068952 273.380261 
L 203.068952 272.43817 
L 206.271469 272.43817 
L 206.271469 271.496078 
L 206.948818 271.496078 
L 206.948818 270.553987 
L 207.256341 270.553987 
L 207.256341 269.611895 
L 208.775778 269.611895 
L 208.775778 268.669804 
L 211.010988 268.669804 
L 211.010988 267.727712 
L 211.498081 267.727712 
L 211.498081 266.785621 
L 212.76019 266.785621 
L 212.76019 265.843529 
L 213.02611 265.843529 
L 213.02611 264.901438 
L 215.814934 264.901438 
L 215.814934 263.959346 
L 216.407841 263.959346 
L 216.475418 261.133072 
L 217.329011 261.133072 
L 217.329011 260.19098 
L 218.255314 260.19098 
L 218.319765 258.306797 
L 219.353413 258.306797 
L 219.353413 257.364706 
L 220.209034 257.364706 
L 220.209034 256.422614 
L 221.522282 256.422614 
L 221.522282 255.480523 
L 221.700158 255.480523 
L 221.700158 254.538431 
L 222.507154 254.538431 
L 222.507154 253.59634 
L 223.609126 253.59634 
L 223.609126 252.654248 
L 225.012174 252.654248 
L 225.012174 251.712157 
L 225.145429 251.712157 
L 225.145429 250.770065 
L 225.396884 250.770065 
L 225.396884 249.827974 
L 225.532853 249.827974 
L 225.538361 247.943791 
L 226.215573 247.943791 
L 226.215573 247.001699 
L 226.661938 247.001699 
L 226.661938 246.059608 
L 227.025893 246.059608 
L 227.025893 244.175425 
L 228.211879 244.175425 
L 228.211879 243.233333 
L 228.442052 243.233333 
L 228.442052 242.291242 
L 228.559645 242.291242 
L 228.559645 241.34915 
L 228.784027 241.34915 
L 228.784027 240.407059 
L 229.504967 240.407059 
L 229.504967 239.464967 
L 229.855635 239.464967 
L 229.855635 238.522876 
L 230.701496 238.522876 
L 230.701496 237.580784 
L 232.528456 237.580784 
L 232.528456 236.638693 
L 233.315563 236.638693 
L 233.315563 235.696601 
L 233.506127 235.696601 
L 233.506127 234.75451 
L 234.529818 234.75451 
L 234.529818 233.812418 
L 235.250759 233.812418 
L 235.250759 232.870327 
L 236.47741 232.870327 
L 236.47741 231.928235 
L 236.864834 231.928235 
L 236.864834 230.986144 
L 237.096912 230.986144 
L 237.096912 230.044052 
L 237.993919 230.044052 
L 237.993919 229.101961 
L 238.11935 229.101961 
L 238.11935 228.159869 
L 238.385201 228.159869 
L 238.385201 227.217778 
L 238.854565 227.217778 
L 238.854565 226.275686 
L 239.112035 226.275686 
L 239.112035 225.333595 
L 239.293048 225.333595 
L 239.380752 223.449412 
L 239.774033 223.449412 
L 239.774033 222.50732 
L 240.116008 222.50732 
L 240.160519 219.681046 
L 240.538323 219.681046 
L 240.538323 218.738954 
L 241.667408 218.738954 
L 241.667408 217.796863 
L 241.900859 217.796863 
L 241.900859 216.854771 
L 242.036985 216.854771 
L 242.036985 215.91268 
L 242.424409 215.91268 
L 242.424409 214.970588 
L 243.064174 214.970588 
L 243.091735 213.086405 
L 243.414936 213.086405 
L 243.462692 210.260131 
L 243.553494 210.260131 
L 243.553494 209.318039 
L 243.676 209.318039 
L 243.676 208.375948 
L 243.789497 208.375948 
L 243.789497 207.433856 
L 244.543887 207.433856 
L 244.543887 206.491765 
L 245.106448 206.491765 
L 245.19406 204.607582 
L 245.239502 204.607582 
L 245.333608 202.723399 
L 245.439338 202.723399 
L 245.439338 201.781307 
L 245.626925 201.781307 
L 245.720248 198.955033 
L 246.018378 198.955033 
L 246.018378 198.012941 
L 246.176627 198.012941 
L 246.224374 196.128758 
L 246.294959 196.128758 
L 246.370847 194.244575 
L 246.611797 194.244575 
L 246.611797 193.302484 
L 246.756011 193.302484 
L 246.756011 192.360392 
L 247.132025 192.360392 
L 247.132025 191.418301 
L 247.647387 191.418301 
L 247.740883 187.649935 
L 247.786083 187.649935 
L 247.786083 186.707843 
L 248.0335 186.707843 
L 248.0335 185.765752 
L 248.536124 185.765752 
L 248.536124 184.82366 
L 248.729013 184.82366 
L 248.729013 183.881569 
L 248.8781 183.881569 
L 248.898107 181.997386 
L 249.09315 181.997386 
L 249.181139 180.113203 
L 249.451331 180.113203 
L 249.520997 178.22902 
L 249.66251 178.22902 
L 249.69505 175.402745 
L 249.862972 175.402745 
L 249.96825 173.518562 
L 250.822324 173.518562 
L 250.883383 171.634379 
L 251.196262 171.634379 
L 251.271152 169.750196 
L 251.797339 169.750196 
L 251.797339 168.808105 
L 252.211387 168.808105 
L 252.211387 167.866013 
L 252.336401 167.866013 
L 252.336401 166.923922 
L 252.451334 166.923922 
L 252.451334 165.039739 
L 252.710343 165.039739 
L 252.821347 162.213464 
L 253.12482 162.213464 
L 253.12482 161.271373 
L 253.414811 161.271373 
L 253.414811 160.329281 
L 253.937057 160.329281 
L 254.00291 154.676732 
L 254.360803 154.676732 
L 254.423717 152.792549 
L 254.648307 152.792549 
L 254.648307 151.850458 
L 255.010905 151.850458 
L 255.010905 150.908366 
L 255.151312 150.908366 
L 255.216424 149.024183 
L 255.432645 149.024183 
L 255.499163 147.14 
L 255.590892 147.14 
L 255.590892 146.197908 
L 255.952179 146.197908 
L 255.989813 143.371634 
L 256.707549 143.371634 
L 256.707549 142.429542 
L 256.845434 142.429542 
L 256.845434 140.545359 
L 256.960474 140.545359 
L 256.960474 139.603268 
L 257.166435 139.603268 
L 257.223347 137.719085 
L 257.37061 137.719085 
L 257.37061 136.776993 
L 257.523565 136.776993 
L 257.610771 134.89281 
L 257.900709 134.89281 
L 257.900709 133.950719 
L 258.097205 133.950719 
L 258.097205 133.008627 
L 258.213422 133.008627 
L 258.213422 132.066536 
L 258.336558 132.066536 
L 258.379186 129.240261 
L 258.616516 129.240261 
L 258.616516 128.29817 
L 258.739856 128.29817 
L 258.787434 125.471895 
L 259.006695 125.471895 
L 259.104133 123.587712 
L 259.198294 123.587712 
L 259.198294 122.645621 
L 259.72767 122.645621 
L 259.72767 121.703529 
L 259.87031 121.703529 
L 259.955259 119.819346 
L 259.983291 119.819346 
L 259.983291 118.877255 
L 260.230088 118.877255 
L 260.255081 115.108889 
L 260.342406 115.108889 
L 260.342406 114.166797 
L 260.51997 114.166797 
L 260.51997 113.224706 
L 260.861945 113.224706 
L 260.931093 111.340523 
L 261.021818 111.340523 
L 261.021818 110.398431 
L 261.469336 110.398431 
L 261.509737 108.514248 
L 261.779277 108.514248 
L 261.779277 107.572157 
L 262.279482 107.572157 
L 262.28037 105.687974 
L 262.449972 105.687974 
L 262.449972 104.745882 
L 263.045725 104.745882 
L 263.135103 102.861699 
L 263.185808 102.861699 
L 263.185808 101.919608 
L 263.493738 101.919608 
L 263.493738 100.977516 
L 263.653396 100.977516 
L 263.685668 99.093333 
L 263.810642 99.093333 
L 263.903577 96.267059 
L 263.979826 96.267059 
L 263.979826 95.324967 
L 264.17068 95.324967 
L 264.17068 94.382876 
L 264.349359 94.382876 
L 264.349359 93.440784 
L 264.512357 93.440784 
L 264.512357 92.498693 
L 264.626228 92.498693 
L 264.626228 91.556601 
L 265.324719 91.556601 
L 265.324719 90.61451 
L 265.700791 90.61451 
L 265.789662 88.730327 
L 265.840483 88.730327 
L 265.840483 87.788235 
L 266.141367 87.788235 
L 266.141367 85.904052 
L 266.419497 85.904052 
L 266.419497 84.961961 
L 266.535195 84.961961 
L 266.535195 84.019869 
L 267.179912 84.019869 
L 267.179912 83.077778 
L 267.349121 83.077778 
L 267.359732 81.193595 
L 267.567336 81.193595 
L 267.675119 79.309412 
L 267.74945 79.309412 
L 267.74945 78.36732 
L 268.204742 78.36732 
L 268.204742 77.425229 
L 268.489615 77.425229 
L 268.563156 75.541046 
L 268.696421 75.541046 
L 268.696421 74.598954 
L 268.823668 74.598954 
L 268.823668 73.656863 
L 268.992179 73.656863 
L 268.992179 72.714771 
L 269.211092 72.714771 
L 269.211092 71.77268 
L 269.580865 71.77268 
L 269.580865 70.830588 
L 269.695866 70.830588 
L 269.695866 69.888497 
L 269.929305 69.888497 
L 270.003692 67.062222 
L 270.107052 67.062222 
L 270.197267 64.235948 
L 270.340177 64.235948 
L 270.340177 63.293856 
L 270.476535 63.293856 
L 270.476535 62.351765 
L 270.81851 62.351765 
L 270.81851 61.409673 
L 271.604833 61.409673 
L 271.604833 60.467582 
L 272.028094 60.467582 
L 272.120291 57.641307 
L 272.431036 57.641307 
L 272.462266 55.757124 
L 272.883715 55.757124 
L 272.883715 54.815033 
L 273.645292 54.815033 
L 273.645292 53.872941 
L 274.374839 53.872941 
L 274.374839 52.93085 
L 275.169653 52.93085 
L 275.270187 51.046667 
L 276.227229 51.046667 
L 276.283806 49.162484 
L 276.888116 49.162484 
L 276.888116 48.220392 
L 277.097147 48.220392 
L 277.167464 46.336209 
L 277.500675 46.336209 
L 277.500675 45.394118 
L 278.370888 45.394118 
L 278.370888 44.452026 
L 279.81945 44.452026 
L 279.81945 43.509935 
L 280.153833 43.509935 
L 280.153833 42.567843 
L 280.976024 42.567843 
L 280.976024 41.625752 
L 281.797589 41.625752 
L 281.797589 40.68366 
L 282.179648 40.68366 
L 282.179648 39.741569 
L 283.227612 39.741569 
L 283.227612 38.799477 
L 283.771696 38.799477 
L 283.771696 37.857386 
L 284.72921 37.857386 
L 284.72921 36.915294 
L 285.126218 36.915294 
L 285.165577 35.031111 
L 286.769974 35.031111 
L 286.769974 34.08902 
L 287.697045 34.08902 
L 287.697045 33.146928 
L 288.084469 33.146928 
L 288.084469 32.204837 
L 289.213554 32.204837 
L 289.304703 30.320654 
L 290.111191 30.320654 
L 290.111191 29.378562 
L 290.244939 29.378562 
L 290.244939 28.436471 
L 290.93259 28.436471 
L 290.993668 26.552288 
L 291.335643 26.552288 
L 291.335643 25.610196 
L 291.448363 25.610196 
L 291.448363 24.668105 
L 292.049156 24.668105 
L 292.049156 23.726013 
L 292.576346 23.726013 
L 292.576346 22.783922 
L 294.536941 22.783922 
L 294.536941 21.84183 
L 296.188283 21.84183 
L 296.188283 20.899739 
L 297.128518 20.899739 
L 297.128518 19.957647 
L 298.331942 19.957647 
L 298.331942 19.015556 
L 300.670966 19.015556 
L 300.670966 18.073464 
L 305.643352 18.073464 
L 305.643352 17.131373 
L 307.614416 17.131373 
L 307.614416 16.189281 
L 311.449723 16.189281 
L 311.449723 15.24719 
L 314.497996 15.24719 
L 314.497996 14.305098 
L 367.001216 14.305098 
L 367.001216 13.363007 
L 390.753894 13.363007 
L 390.753894 12.420915 
L 404.596285 12.420915 
L 404.596285 11.478824 
L 410.935781 11.478824 
L 410.935781 10.536732 
L 412.873745 10.536732 
L 412.873745 9.594641 
L 417.012872 9.594641 
L 417.012872 8.652549 
L 417.953107 8.652549 
L 417.953107 7.710458 
L 419.156531 7.710458 
L 419.156531 6.768366 
L 435.322585 6.768366 
L 435.322585 5.826275 
L 453.192 5.826275 
L 453.192 5.826275 
" clip-path="url(#pef9c7cf8a3)" style="fill: none; stroke: #000000; stroke-width: 3; stroke-linecap: square"/>
   </g>
   <g id="line2d_18">
    <path clip-path="url(#pef9c7cf8a3)" style="fill: none; stroke: #000000; stroke-width: 3; stroke-linecap: square"/>
   </g>
   <g id="line2d_19">
    <path d="M 34.16 247.801832 
L 167.416586 247.801832 
L 167.416586 246.83393 
L 184.298262 246.83393 
L 184.298262 245.866027 
L 192.063571 245.866027 
L 192.063571 244.898125 
L 194.993167 244.898125 
L 195.04371 242.962321 
L 196.646905 242.962321 
L 196.646905 241.994418 
L 197.786538 241.994418 
L 197.786538 241.026516 
L 198.488765 241.026516 
L 198.488765 240.058614 
L 198.782004 240.058614 
L 198.782004 239.090712 
L 207.937637 239.090712 
L 207.937637 238.12281 
L 208.273182 238.12281 
L 208.273182 237.154907 
L 208.945248 237.154907 
L 208.945248 236.187005 
L 214.668215 236.187005 
L 214.668215 235.219103 
L 215.663681 235.219103 
L 215.663681 234.251201 
L 217.160073 234.251201 
L 217.160073 233.283298 
L 219.690695 233.283298 
L 219.690695 232.315396 
L 220.100268 232.315396 
L 220.100268 231.347494 
L 221.29389 231.347494 
L 221.29389 230.379592 
L 223.83248 230.379592 
L 223.903771 228.443787 
L 224.702568 228.443787 
L 224.702568 227.475885 
L 224.867022 227.475885 
L 224.867022 226.507983 
L 225.413662 226.507983 
L 225.413662 225.540081 
L 225.665819 225.540081 
L 225.665819 224.572178 
L 225.917215 224.572178 
L 225.917215 223.604276 
L 226.409129 223.604276 
L 226.409129 222.636374 
L 226.736232 222.636374 
L 226.736232 221.668472 
L 227.016857 221.668472 
L 227.016857 220.700569 
L 227.82888 220.700569 
L 227.82888 219.732667 
L 228.012323 219.732667 
L 228.012323 218.764765 
L 228.142887 218.764765 
L 228.142887 217.796863 
L 229.412813 217.796863 
L 229.412813 216.828961 
L 230.23183 216.828961 
L 230.262203 214.893156 
L 230.770573 214.893156 
L 230.770573 213.925254 
L 231.061 213.925254 
L 231.061 212.957352 
L 231.569371 212.957352 
L 231.569371 211.989449 
L 232.710928 211.989449 
L 232.710928 211.021547 
L 233.509725 211.021547 
L 233.509725 210.053645 
L 234.948546 210.053645 
L 234.948546 209.085743 
L 235.936951 209.085743 
L 236.002438 207.149938 
L 236.265304 207.149938 
L 236.265304 206.182036 
L 236.801235 206.182036 
L 236.801235 205.214134 
L 237.524783 205.214134 
L 237.524783 204.246232 
L 238.547285 204.246232 
L 238.547285 203.278329 
L 238.861685 203.278329 
L 238.904595 201.342525 
L 239.110495 201.342525 
L 239.197231 199.40672 
L 239.432549 199.40672 
L 239.432549 198.438818 
L 239.680701 198.438818 
L 239.77504 196.503014 
L 239.867846 196.503014 
L 239.909293 194.567209 
L 240.016247 194.567209 
L 240.016247 193.599307 
L 240.714156 193.599307 
L 240.714156 192.631405 
L 240.853607 192.631405 
L 240.853607 191.663503 
L 241.807059 191.663503 
L 241.885241 188.759796 
L 242.042884 188.759796 
L 242.140211 184.888187 
L 242.540034 184.888187 
L 242.540034 183.920285 
L 242.848492 183.920285 
L 242.852117 181.98448 
L 243.01875 181.98448 
L 243.01875 181.016578 
L 243.338831 181.016578 
L 243.338831 180.048676 
L 245.132933 180.048676 
L 245.132933 179.080774 
L 245.263027 179.080774 
L 245.263027 178.112871 
L 245.676316 178.112871 
L 245.771397 176.177067 
L 246.096184 176.177067 
L 246.096184 175.209165 
L 246.639567 175.209165 
L 246.639567 174.241262 
L 247.212039 174.241262 
L 247.212039 173.27336 
L 247.530025 173.27336 
L 247.530025 172.305458 
L 247.711752 172.305458 
L 247.720409 170.369654 
L 248.243673 170.369654 
L 248.243673 169.401751 
L 248.357968 169.401751 
L 248.413931 167.465947 
L 248.525492 167.465947 
L 248.525492 166.498045 
L 248.752043 166.498045 
L 248.752043 165.530142 
L 248.881421 165.530142 
L 248.922301 163.594338 
L 249.216966 163.594338 
L 249.32122 161.658533 
L 249.660764 161.658533 
L 249.660764 160.690631 
L 249.911425 160.690631 
L 249.911425 159.722729 
L 250.436317 159.722729 
L 250.436317 158.754827 
L 250.692397 158.754827 
L 250.692397 157.786925 
L 250.862656 157.786925 
L 250.862656 156.819022 
L 251.003262 156.819022 
L 251.024316 154.883218 
L 251.334773 154.883218 
L 251.399568 152.947413 
L 251.459604 152.947413 
L 251.491755 150.043707 
L 251.827301 150.043707 
L 251.843332 147.14 
L 251.94206 147.14 
L 252.034748 144.236293 
L 252.133571 144.236293 
L 252.133571 143.268391 
L 252.475866 143.268391 
L 252.543118 141.332587 
L 252.789873 141.332587 
L 252.789873 140.364684 
L 252.952274 140.364684 
L 253.062799 138.42888 
L 253.407023 138.42888 
L 253.407023 137.460978 
L 253.940089 137.460978 
L 253.983908 135.525173 
L 254.111319 135.525173 
L 254.154166 133.589369 
L 254.40646 133.589369 
L 254.483473 131.653564 
L 254.716401 131.653564 
L 254.716401 130.685662 
L 255.224771 130.685662 
L 255.224771 129.71776 
L 255.437659 129.71776 
L 255.437659 128.749858 
L 256.060331 128.749858 
L 256.060331 127.781955 
L 256.794749 127.781955 
L 256.794749 126.814053 
L 257.054144 126.814053 
L 257.165125 123.910346 
L 257.2316 123.910346 
L 257.303119 121.00664 
L 257.540857 121.00664 
L 257.540857 120.038738 
L 257.774983 120.038738 
L 257.774983 119.070835 
L 258.198832 119.070835 
L 258.198832 118.102933 
L 258.51284 118.102933 
L 258.51284 117.135031 
L 259.003156 117.135031 
L 259.003156 116.167129 
L 259.194299 116.167129 
L 259.243474 114.231324 
L 259.489869 114.231324 
L 259.508306 112.29552 
L 260.034789 112.29552 
L 260.081031 110.359715 
L 260.205048 110.359715 
L 260.205048 109.391813 
L 260.339657 109.391813 
L 260.339657 108.423911 
L 260.456635 108.423911 
L 260.521503 106.488106 
L 260.691762 106.488106 
L 260.691762 105.520204 
L 260.883041 105.520204 
L 260.91229 103.5844 
L 261.044052 103.5844 
L 261.044052 102.616497 
L 262.534984 102.616497 
L 262.57567 100.680693 
L 262.855895 100.680693 
L 262.855895 99.712791 
L 263.19144 99.712791 
L 263.282481 97.776986 
L 263.564693 97.776986 
L 263.654386 95.841182 
L 263.769195 95.841182 
L 263.825865 93.905377 
L 264.178865 93.905377 
L 264.178865 92.937475 
L 264.312579 92.937475 
L 264.312579 91.969573 
L 264.88653 91.969573 
L 264.88653 91.001671 
L 265.151908 91.001671 
L 265.222076 89.065866 
L 265.643041 89.065866 
L 265.643041 88.097964 
L 266.335597 88.097964 
L 266.445914 86.16216 
L 266.507517 86.16216 
L 266.507517 85.194257 
L 266.635256 85.194257 
L 266.635256 84.226355 
L 266.755102 84.226355 
L 266.787196 82.290551 
L 266.994231 82.290551 
L 266.994231 81.322648 
L 267.630723 81.322648 
L 267.630723 80.354746 
L 268.284609 80.354746 
L 268.284609 79.386844 
L 268.585866 79.386844 
L 268.585866 78.418942 
L 269.072579 78.418942 
L 269.072579 77.451039 
L 269.316243 77.451039 
L 269.316243 76.483137 
L 269.486502 76.483137 
L 269.486502 75.515235 
L 270.699088 75.515235 
L 270.699088 74.547333 
L 271.518104 74.547333 
L 271.518104 73.579431 
L 272.510163 73.579431 
L 272.563935 71.643626 
L 273.107319 71.643626 
L 273.107319 70.675724 
L 273.505629 70.675724 
L 273.575967 68.739919 
L 275.018526 68.739919 
L 275.018526 67.772017 
L 275.788971 67.772017 
L 275.788971 66.804115 
L 276.505222 66.804115 
L 276.505222 65.836213 
L 276.962708 65.836213 
L 277.049161 63.900408 
L 277.867319 63.900408 
L 277.867319 62.932506 
L 280.00082 62.932506 
L 280.00082 61.964604 
L 280.718824 61.964604 
L 280.718824 60.996702 
L 283.329158 60.996702 
L 283.329158 60.028799 
L 284.244774 60.028799 
L 284.244774 59.060897 
L 284.558781 59.060897 
L 284.558781 58.092995 
L 284.692034 58.092995 
L 284.692034 57.125093 
L 287.268271 57.125093 
L 287.268271 56.15719 
L 287.708156 56.15719 
L 287.708156 55.189288 
L 289.31135 55.189288 
L 289.31135 54.221386 
L 289.449692 54.221386 
L 289.449692 53.253484 
L 289.785237 53.253484 
L 289.785237 52.285582 
L 292.681198 52.285582 
L 292.681198 51.317679 
L 294.693298 51.317679 
L 294.693298 50.349777 
L 295.360841 50.349777 
L 295.360841 49.381875 
L 295.674848 49.381875 
L 295.674848 48.413973 
L 296.723933 48.413973 
L 296.723933 47.44607 
L 297.369962 47.44607 
L 297.369962 46.478168 
L 297.937078 46.478168 
L 297.937078 45.510266 
L 298.188978 45.510266 
L 298.251085 43.574461 
L 298.556105 43.574461 
L 298.556105 42.606559 
L 301.612323 42.606559 
L 301.612323 41.638657 
L 303.797264 41.638657 
L 303.797264 40.670755 
L 306.373502 40.670755 
L 306.373502 39.702853 
L 307.389698 39.702853 
L 307.389698 38.73495 
L 309.672171 38.73495 
L 309.672171 37.767048 
L 309.824519 37.767048 
L 309.824519 36.799146 
L 310.000032 36.799146 
L 310.000032 35.831244 
L 312.248408 35.831244 
L 312.248408 34.863341 
L 320.493326 34.863341 
L 320.493326 33.895439 
L 320.807333 33.895439 
L 320.807333 32.927537 
L 321.287095 32.927537 
L 321.364172 30.991732 
L 323.394807 30.991732 
L 323.394807 30.02383 
L 328.92975 30.02383 
L 328.92975 29.055928 
L 334.804657 29.055928 
L 334.804657 28.088026 
L 347.957969 28.088026 
L 347.957969 27.120124 
L 453.192 27.120124 
L 453.192 27.120124 
" clip-path="url(#pef9c7cf8a3)" style="fill: none; stroke: #00bfbf; stroke-width: 3; stroke-linecap: square"/>
   </g>
   <g id="line2d_20">
    <path clip-path="url(#pef9c7cf8a3)" style="fill: none; stroke: #00bfbf; stroke-width: 3; stroke-linecap: square"/>
   </g>
   <g id="line2d_21">
    <path d="M 34.16 210.628775 
L 232.107167 210.628775 
L 232.107167 209.263425 
L 233.395548 209.263425 
L 233.395548 207.898075 
L 234.464812 207.898075 
L 234.464812 206.532725 
L 236.14703 206.532725 
L 236.14703 205.167375 
L 238.57262 205.167375 
L 238.57262 203.802025 
L 239.519228 203.802025 
L 239.519228 202.436675 
L 241.201446 202.436675 
L 241.201446 201.071325 
L 241.995452 201.071325 
L 242.011951 198.340625 
L 243.097998 198.340625 
L 243.097998 196.975275 
L 244.584341 196.975275 
L 244.584341 195.609925 
L 245.507988 195.609925 
L 245.507988 194.244575 
L 246.833846 194.244575 
L 246.833846 192.879225 
L 247.190205 192.879225 
L 247.190205 191.513875 
L 248.175935 191.513875 
L 248.175935 190.148525 
L 248.460905 190.148525 
L 248.460905 188.783175 
L 249.336471 188.783175 
L 249.336471 187.417825 
L 249.563451 187.417825 
L 249.563451 186.052475 
L 249.842059 186.052475 
L 249.842059 184.687125 
L 250.366369 184.687125 
L 250.366369 183.321775 
L 250.601182 183.321775 
L 250.601182 181.956425 
L 251.345131 181.956425 
L 251.345131 180.591075 
L 251.719083 180.591075 
L 251.719083 179.225725 
L 251.884384 179.225725 
L 251.900236 176.495025 
L 253.002782 176.495025 
L 253.002782 175.129675 
L 253.11533 175.129675 
L 253.11533 173.764325 
L 253.299299 173.764325 
L 253.299299 172.398975 
L 254.641387 172.398975 
L 254.641387 171.033625 
L 255.420784 171.033625 
L 255.420784 169.668275 
L 255.801923 169.668275 
L 255.801923 168.302925 
L 256.73863 168.302925 
L 256.73863 166.937575 
L 257.810584 166.937575 
L 257.849769 164.206875 
L 258.080718 164.206875 
L 258.080718 162.841525 
L 258.349837 162.841525 
L 258.349837 161.476175 
L 258.702142 161.476175 
L 258.702142 160.110825 
L 259.241254 160.110825 
L 259.241254 158.745475 
L 259.712178 158.745475 
L 259.730344 156.014775 
L 260.489466 156.014775 
L 260.489466 154.649425 
L 260.83289 154.649425 
L 260.83289 153.284075 
L 261.249915 153.284075 
L 261.249915 151.918725 
L 261.409544 151.918725 
L 261.409544 150.553375 
L 261.592012 150.553375 
L 261.607368 147.822675 
L 261.789168 147.822675 
L 261.789168 146.457325 
L 261.920238 146.457325 
L 261.920238 145.091975 
L 262.709913 145.091975 
L 262.709913 143.726625 
L 263.003615 143.726625 
L 263.003615 142.361275 
L 264.106161 142.361275 
L 264.106161 140.995925 
L 264.568738 140.995925 
L 264.568738 139.630575 
L 265.32786 139.630575 
L 265.32786 138.265225 
L 265.910827 138.265225 
L 265.910827 136.899875 
L 266.177631 136.899875 
L 266.177631 135.534525 
L 266.445761 135.534525 
L 266.445761 134.169175 
L 266.669949 134.169175 
L 266.669949 132.803825 
L 267.071362 132.803825 
L 267.071362 131.438475 
L 267.738054 131.438475 
L 267.842009 125.977075 
L 268.065172 125.977075 
L 268.065172 124.611725 
L 268.590427 124.611725 
L 268.590427 123.246375 
L 268.8406 123.246375 
L 268.948386 120.515675 
L 269.080023 120.515675 
L 269.184097 117.784975 
L 269.616962 117.784975 
L 269.692972 113.688925 
L 269.839145 113.688925 
L 269.839145 112.323575 
L 270.344633 112.323575 
L 270.378398 109.592875 
L 270.957046 109.592875 
L 270.957046 108.227525 
L 271.496299 108.227525 
L 271.496299 106.862175 
L 272.353294 106.862175 
L 272.353294 105.496825 
L 272.576448 105.496825 
L 272.576448 104.131475 
L 272.892547 104.131475 
L 272.892547 102.766125 
L 273.109031 102.766125 
L 273.119588 100.035425 
L 273.42882 100.035425 
L 273.42882 98.670075 
L 273.918537 98.670075 
L 273.918537 97.304725 
L 274.770909 97.304725 
L 274.770909 95.939375 
L 275.079072 95.939375 
L 275.079072 94.574025 
L 275.931445 94.574025 
L 275.931445 93.208675 
L 277.087733 93.208675 
L 277.087733 91.843325 
L 277.44707 91.843325 
L 277.44707 90.477975 
L 277.626986 90.477975 
L 277.626986 89.112625 
L 277.940106 89.112625 
L 277.940106 87.747275 
L 278.206192 87.747275 
L 278.206192 86.381925 
L 278.479358 86.381925 
L 278.479358 85.016575 
L 279.108348 85.016575 
L 279.108348 83.651225 
L 279.324093 83.651225 
L 279.324093 82.285875 
L 280.720341 82.285875 
L 280.720341 80.920525 
L 285.45478 80.920525 
L 285.45478 79.555175 
L 286.307153 79.555175 
L 286.307153 78.189825 
L 287.665461 78.189825 
L 287.665461 76.824475 
L 289.347679 76.824475 
L 289.347679 75.459125 
L 292.287178 75.459125 
L 292.287178 74.093775 
L 303.475971 74.093775 
L 303.567018 71.363075 
L 321.265821 71.363075 
L 321.265821 69.997725 
L 453.192 69.997725 
L 453.192 69.997725 
" clip-path="url(#pef9c7cf8a3)" style="fill: none; stroke: #bf00bf; stroke-width: 3; stroke-linecap: square"/>
   </g>
   <g id="line2d_22">
    <path clip-path="url(#pef9c7cf8a3)" style="fill: none; stroke: #bf00bf; stroke-width: 3; stroke-linecap: square"/>
   </g>
   <g id="line2d_23">
    <path d="M 34.16 159.986702 
L 245.715758 159.986702 
L 245.715758 154.848021 
L 247.449126 154.848021 
L 247.449126 149.70934 
L 251.672991 149.70934 
L 251.672991 144.57066 
L 258.83017 144.57066 
L 258.83017 139.431979 
L 263.054036 139.431979 
L 263.054036 134.293298 
L 453.192 134.293298 
" clip-path="url(#pef9c7cf8a3)" style="fill: none; stroke: #ff0000; stroke-width: 3; stroke-linecap: square"/>
   </g>
   <g id="line2d_24">
    <path clip-path="url(#pef9c7cf8a3)" style="fill: none; stroke: #ff0000; stroke-width: 3; stroke-linecap: square"/>
   </g>
   <g id="line2d_25"/>
   <g id="line2d_26">
    <path d="M 243.676 291.28 
L 243.676 3 
" clip-path="url(#pef9c7cf8a3)" style="fill: none; stroke: #000000; stroke-width: 1.5; stroke-linecap: square"/>
   </g>
   <g id="line2d_27">
    <path d="M 34.16 147.14 
L 453.192 147.14 
" clip-path="url(#pef9c7cf8a3)" style="fill: none; stroke-dasharray: 2,3.3; stroke-dashoffset: 0; stroke: #000000; stroke-width: 2"/>
   </g>
   <g id="patch_3">
    <path d="M 34.16 291.28 
L 34.16 3 
" style="fill: none; stroke: #000000; stroke-width: 0.8; stroke-linejoin: miter; stroke-linecap: square"/>
   </g>
   <g id="patch_4">
    <path d="M 453.192 291.28 
L 453.192 3 
" style="fill: none; stroke: #000000; stroke-width: 0.8; stroke-linejoin: miter; stroke-linecap: square"/>
   </g>
   <g id="patch_5">
    <path d="M 34.16 291.28 
L 453.192 291.28 
" style="fill: none; stroke: #000000; stroke-width: 0.8; stroke-linejoin: miter; stroke-linecap: square"/>
   </g>
   <g id="patch_6">
    <path d="M 34.16 3 
L 453.192 3 
" style="fill: none; stroke: #000000; stroke-width: 0.8; stroke-linejoin: miter; stroke-linecap: square"/>
   </g>
   <g id="text_6">
    <!-- f20, f21, f28,5-D -->
    <g transform="translate(280.21761 285.5144) scale(0.2 -0.2)">
     <defs>
      <path id="DejaVuSans-2c" d="M 750 794 
L 1409 794 
L 1409 256 
L 897 -744 
L 494 -744 
L 750 256 
L 750 794 
z
" transform="scale(0.015625)"/>
      <path id="DejaVuSans-38" d="M 2034 2216 
Q 1584 2216 1326 1975 
Q 1069 1734 1069 1313 
Q 1069 891 1326 650 
Q 1584 409 2034 409 
Q 2484 409 2743 651 
Q 3003 894 3003 1313 
Q 3003 1734 2745 1975 
Q 2488 2216 2034 2216 
z
M 1403 2484 
Q 997 2584 770 2862 
Q 544 3141 544 3541 
Q 544 4100 942 4425 
Q 1341 4750 2034 4750 
Q 2731 4750 3128 4425 
Q 3525 4100 3525 3541 
Q 3525 3141 3298 2862 
Q 3072 2584 2669 2484 
Q 3125 2378 3379 2068 
Q 3634 1759 3634 1313 
Q 3634 634 3220 271 
Q 2806 -91 2034 -91 
Q 1263 -91 848 271 
Q 434 634 434 1313 
Q 434 1759 690 2068 
Q 947 2378 1403 2484 
z
M 1172 3481 
Q 1172 3119 1398 2916 
Q 1625 2713 2034 2713 
Q 2441 2713 2670 2916 
Q 2900 3119 2900 3481 
Q 2900 3844 2670 4047 
Q 2441 4250 2034 4250 
Q 1625 4250 1398 4047 
Q 1172 3844 1172 3481 
z
" transform="scale(0.015625)"/>
      <path id="DejaVuSans-35" d="M 691 4666 
L 3169 4666 
L 3169 4134 
L 1269 4134 
L 1269 2991 
Q 1406 3038 1543 3061 
Q 1681 3084 1819 3084 
Q 2600 3084 3056 2656 
Q 3513 2228 3513 1497 
Q 3513 744 3044 326 
Q 2575 -91 1722 -91 
Q 1428 -91 1123 -41 
Q 819 9 494 109 
L 494 744 
Q 775 591 1075 516 
Q 1375 441 1709 441 
Q 2250 441 2565 725 
Q 2881 1009 2881 1497 
Q 2881 1984 2565 2268 
Q 2250 2553 1709 2553 
Q 1456 2553 1204 2497 
Q 953 2441 691 2322 
L 691 4666 
z
" transform="scale(0.015625)"/>
      <path id="DejaVuSans-44" d="M 1259 4147 
L 1259 519 
L 2022 519 
Q 2988 519 3436 956 
Q 3884 1394 3884 2338 
Q 3884 3275 3436 3711 
Q 2988 4147 2022 4147 
L 1259 4147 
z
M 628 4666 
L 1925 4666 
Q 3281 4666 3915 4102 
Q 4550 3538 4550 2338 
Q 4550 1131 3912 565 
Q 3275 0 1925 0 
L 628 0 
L 628 4666 
z
" transform="scale(0.015625)"/>
     </defs>
     <use xlink:href="#DejaVuSans-66"/>
     <use xlink:href="#DejaVuSans-32" x="35.205078"/>
     <use xlink:href="#DejaVuSans-30" x="98.828125"/>
     <use xlink:href="#DejaVuSans-2c" x="162.451172"/>
     <use xlink:href="#DejaVuSans-20" x="194.238281"/>
     <use xlink:href="#DejaVuSans-66" x="226.025391"/>
     <use xlink:href="#DejaVuSans-32" x="261.230469"/>
     <use xlink:href="#DejaVuSans-31" x="324.853516"/>
     <use xlink:href="#DejaVuSans-2c" x="388.476562"/>
     <use xlink:href="#DejaVuSans-20" x="420.263672"/>
     <use xlink:href="#DejaVuSans-66" x="452.050781"/>
     <use xlink:href="#DejaVuSans-32" x="487.255859"/>
     <use xlink:href="#DejaVuSans-38" x="550.878906"/>
     <use xlink:href="#DejaVuSans-2c" x="614.501953"/>
     <use xlink:href="#DejaVuSans-35" x="646.289062"/>
     <use xlink:href="#DejaVuSans-2d" x="709.912109"/>
     <use xlink:href="#DejaVuSans-44" x="745.996094"/>
    </g>
   </g>
   <g id="text_7">
    <!-- v2.6.1.152, hv-hash=ff0e71e8cd978373 -->
    <g style="fill: #808080" transform="translate(142.277562 286.317512) scale(0.1 -0.1)">
     <defs>
      <path id="DejaVuSans-2e" d="M 684 794 
L 1344 794 
L 1344 0 
L 684 0 
L 684 794 
z
" transform="scale(0.015625)"/>
      <path id="DejaVuSans-36" d="M 2113 2584 
Q 1688 2584 1439 2293 
Q 1191 2003 1191 1497 
Q 1191 994 1439 701 
Q 1688 409 2113 409 
Q 2538 409 2786 701 
Q 3034 994 3034 1497 
Q 3034 2003 2786 2293 
Q 2538 2584 2113 2584 
z
M 3366 4563 
L 3366 3988 
Q 3128 4100 2886 4159 
Q 2644 4219 2406 4219 
Q 1781 4219 1451 3797 
Q 1122 3375 1075 2522 
Q 1259 2794 1537 2939 
Q 1816 3084 2150 3084 
Q 2853 3084 3261 2657 
Q 3669 2231 3669 1497 
Q 3669 778 3244 343 
Q 2819 -91 2113 -91 
Q 1303 -91 875 529 
Q 447 1150 447 2328 
Q 447 3434 972 4092 
Q 1497 4750 2381 4750 
Q 2619 4750 2861 4703 
Q 3103 4656 3366 4563 
z
" transform="scale(0.015625)"/>
      <path id="DejaVuSans-68" d="M 3513 2113 
L 3513 0 
L 2938 0 
L 2938 2094 
Q 2938 2591 2744 2837 
Q 2550 3084 2163 3084 
Q 1697 3084 1428 2787 
Q 1159 2491 1159 1978 
L 1159 0 
L 581 0 
L 581 4863 
L 1159 4863 
L 1159 2956 
Q 1366 3272 1645 3428 
Q 1925 3584 2291 3584 
Q 2894 3584 3203 3211 
Q 3513 2838 3513 2113 
z
" transform="scale(0.015625)"/>
      <path id="DejaVuSans-3d" d="M 678 2906 
L 4684 2906 
L 4684 2381 
L 678 2381 
L 678 2906 
z
M 678 1631 
L 4684 1631 
L 4684 1100 
L 678 1100 
L 678 1631 
z
" transform="scale(0.015625)"/>
      <path id="DejaVuSans-65" d="M 3597 1894 
L 3597 1613 
L 953 1613 
Q 991 1019 1311 708 
Q 1631 397 2203 397 
Q 2534 397 2845 478 
Q 3156 559 3463 722 
L 3463 178 
Q 3153 47 2828 -22 
Q 2503 -91 2169 -91 
Q 1331 -91 842 396 
Q 353 884 353 1716 
Q 353 2575 817 3079 
Q 1281 3584 2069 3584 
Q 2775 3584 3186 3129 
Q 3597 2675 3597 1894 
z
M 3022 2063 
Q 3016 2534 2758 2815 
Q 2500 3097 2075 3097 
Q 1594 3097 1305 2825 
Q 1016 2553 972 2059 
L 3022 2063 
z
" transform="scale(0.015625)"/>
      <path id="DejaVuSans-37" d="M 525 4666 
L 3525 4666 
L 3525 4397 
L 1831 0 
L 1172 0 
L 2766 4134 
L 525 4134 
L 525 4666 
z
" transform="scale(0.015625)"/>
      <path id="DejaVuSans-63" d="M 3122 3366 
L 3122 2828 
Q 2878 2963 2633 3030 
Q 2388 3097 2138 3097 
Q 1578 3097 1268 2742 
Q 959 2388 959 1747 
Q 959 1106 1268 751 
Q 1578 397 2138 397 
Q 2388 397 2633 464 
Q 2878 531 3122 666 
L 3122 134 
Q 2881 22 2623 -34 
Q 2366 -91 2075 -91 
Q 1284 -91 818 406 
Q 353 903 353 1747 
Q 353 2603 823 3093 
Q 1294 3584 2113 3584 
Q 2378 3584 2631 3529 
Q 2884 3475 3122 3366 
z
" transform="scale(0.015625)"/>
      <path id="DejaVuSans-64" d="M 2906 2969 
L 2906 4863 
L 3481 4863 
L 3481 0 
L 2906 0 
L 2906 525 
Q 2725 213 2448 61 
Q 2172 -91 1784 -91 
Q 1150 -91 751 415 
Q 353 922 353 1747 
Q 353 2572 751 3078 
Q 1150 3584 1784 3584 
Q 2172 3584 2448 3432 
Q 2725 3281 2906 2969 
z
M 947 1747 
Q 947 1113 1208 752 
Q 1469 391 1925 391 
Q 2381 391 2643 752 
Q 2906 1113 2906 1747 
Q 2906 2381 2643 2742 
Q 2381 3103 1925 3103 
Q 1469 3103 1208 2742 
Q 947 2381 947 1747 
z
" transform="scale(0.015625)"/>
      <path id="DejaVuSans-39" d="M 703 97 
L 703 672 
Q 941 559 1184 500 
Q 1428 441 1663 441 
Q 2288 441 2617 861 
Q 2947 1281 2994 2138 
Q 2813 1869 2534 1725 
Q 2256 1581 1919 1581 
Q 1219 1581 811 2004 
Q 403 2428 403 3163 
Q 403 3881 828 4315 
Q 1253 4750 1959 4750 
Q 2769 4750 3195 4129 
Q 3622 3509 3622 2328 
Q 3622 1225 3098 567 
Q 2575 -91 1691 -91 
Q 1453 -91 1209 -44 
Q 966 3 703 97 
z
M 1959 2075 
Q 2384 2075 2632 2365 
Q 2881 2656 2881 3163 
Q 2881 3666 2632 3958 
Q 2384 4250 1959 4250 
Q 1534 4250 1286 3958 
Q 1038 3666 1038 3163 
Q 1038 2656 1286 2365 
Q 1534 2075 1959 2075 
z
" transform="scale(0.015625)"/>
      <path id="DejaVuSans-33" d="M 2597 2516 
Q 3050 2419 3304 2112 
Q 3559 1806 3559 1356 
Q 3559 666 3084 287 
Q 2609 -91 1734 -91 
Q 1441 -91 1130 -33 
Q 819 25 488 141 
L 488 750 
Q 750 597 1062 519 
Q 1375 441 1716 441 
Q 2309 441 2620 675 
Q 2931 909 2931 1356 
Q 2931 1769 2642 2001 
Q 2353 2234 1838 2234 
L 1294 2234 
L 1294 2753 
L 1863 2753 
Q 2328 2753 2575 2939 
Q 2822 3125 2822 3475 
Q 2822 3834 2567 4026 
Q 2313 4219 1838 4219 
Q 1578 4219 1281 4162 
Q 984 4106 628 3988 
L 628 4550 
Q 988 4650 1302 4700 
Q 1616 4750 1894 4750 
Q 2613 4750 3031 4423 
Q 3450 4097 3450 3541 
Q 3450 3153 3228 2886 
Q 3006 2619 2597 2516 
z
" transform="scale(0.015625)"/>
     </defs>
     <use xlink:href="#DejaVuSans-76"/>
     <use xlink:href="#DejaVuSans-32" x="59.179688"/>
     <use xlink:href="#DejaVuSans-2e" x="122.802734"/>
     <use xlink:href="#DejaVuSans-36" x="154.589844"/>
     <use xlink:href="#DejaVuSans-2e" x="218.212891"/>
     <use xlink:href="#DejaVuSans-31" x="250"/>
     <use xlink:href="#DejaVuSans-2e" x="313.623047"/>
     <use xlink:href="#DejaVuSans-31" x="345.410156"/>
     <use xlink:href="#DejaVuSans-35" x="409.033203"/>
     <use xlink:href="#DejaVuSans-32" x="472.65625"/>
     <use xlink:href="#DejaVuSans-2c" x="536.279297"/>
     <use xlink:href="#DejaVuSans-20" x="568.066406"/>
     <use xlink:href="#DejaVuSans-68" x="599.853516"/>
     <use xlink:href="#DejaVuSans-76" x="663.232422"/>
     <use xlink:href="#DejaVuSans-2d" x="719.787109"/>
     <use xlink:href="#DejaVuSans-68" x="755.871094"/>
     <use xlink:href="#DejaVuSans-61" x="819.25"/>
     <use xlink:href="#DejaVuSans-73" x="880.529297"/>
     <use xlink:href="#DejaVuSans-68" x="932.628906"/>
     <use xlink:href="#DejaVuSans-3d" x="996.007812"/>
     <use xlink:href="#DejaVuSans-66" x="1079.796875"/>
     <use xlink:href="#DejaVuSans-66" x="1115.001953"/>
     <use xlink:href="#DejaVuSans-30" x="1150.207031"/>
     <use xlink:href="#DejaVuSans-65" x="1213.830078"/>
     <use xlink:href="#DejaVuSans-37" x="1275.353516"/>
     <use xlink:href="#DejaVuSans-31" x="1338.976562"/>
     <use xlink:href="#DejaVuSans-65" x="1402.599609"/>
     <use xlink:href="#DejaVuSans-38" x="1464.123047"/>
     <use xlink:href="#DejaVuSans-63" x="1527.746094"/>
     <use xlink:href="#DejaVuSans-64" x="1582.726562"/>
     <use xlink:href="#DejaVuSans-39" x="1646.203125"/>
     <use xlink:href="#DejaVuSans-37" x="1709.826172"/>
     <use xlink:href="#DejaVuSans-38" x="1773.449219"/>
     <use xlink:href="#DejaVuSans-33" x="1837.072266"/>
     <use xlink:href="#DejaVuSans-37" x="1900.695312"/>
     <use xlink:href="#DejaVuSans-33" x="1964.318359"/>
    </g>
   </g>
   <g id="legend_1">
    <g id="patch_7">
     <path d="M 48.16 165.78125 
L 177.381875 165.78125 
Q 181.381875 165.78125 181.381875 161.78125 
L 181.381875 17 
Q 181.381875 13 177.381875 13 
L 48.16 13 
Q 44.16 13 44.16 17 
L 44.16 161.78125 
Q 44.16 165.78125 48.16 165.78125 
z
" style="fill: #ffffff; opacity: 0.2; stroke: #cccccc; stroke-linejoin: miter"/>
    </g>
    <g id="line2d_28">
     <path d="M 52.16 29.196875 
L 72.16 29.196875 
L 92.16 29.196875 
" style="fill: none; stroke: #000000; stroke-width: 3; stroke-linecap: square"/>
    </g>
    <g id="text_8">
     <!-- -1: 3/3 -->
     <g transform="translate(108.16 36.196875) scale(0.2 -0.2)">
      <defs>
       <path id="DejaVuSans-3a" d="M 750 794 
L 1409 794 
L 1409 0 
L 750 0 
L 750 794 
z
M 750 3309 
L 1409 3309 
L 1409 2516 
L 750 2516 
L 750 3309 
z
" transform="scale(0.015625)"/>
       <path id="DejaVuSans-2f" d="M 1625 4666 
L 2156 4666 
L 531 -594 
L 0 -594 
L 1625 4666 
z
" transform="scale(0.015625)"/>
      </defs>
      <use xlink:href="#DejaVuSans-2d"/>
      <use xlink:href="#DejaVuSans-31" x="36.083984"/>
      <use xlink:href="#DejaVuSans-3a" x="99.707031"/>
      <use xlink:href="#DejaVuSans-20" x="133.398438"/>
      <use xlink:href="#DejaVuSans-33" x="165.185547"/>
      <use xlink:href="#DejaVuSans-2f" x="228.808594"/>
      <use xlink:href="#DejaVuSans-33" x="262.5"/>
     </g>
    </g>
    <g id="line2d_29">
     <path d="M 52.16 58.553125 
L 72.16 58.553125 
L 92.16 58.553125 
" style="fill: none; stroke: #00bfbf; stroke-width: 3; stroke-linecap: square"/>
    </g>
    <g id="text_9">
     <!-- -2: 3/3 -->
     <g transform="translate(108.16 65.553125) scale(0.2 -0.2)">
      <use xlink:href="#DejaVuSans-2d"/>
      <use xlink:href="#DejaVuSans-32" x="36.083984"/>
      <use xlink:href="#DejaVuSans-3a" x="99.707031"/>
      <use xlink:href="#DejaVuSans-20" x="133.398438"/>
      <use xlink:href="#DejaVuSans-33" x="165.185547"/>
      <use xlink:href="#DejaVuSans-2f" x="228.808594"/>
      <use xlink:href="#DejaVuSans-33" x="262.5"/>
     </g>
    </g>
    <g id="line2d_30">
     <path d="M 52.16 87.909375 
L 72.16 87.909375 
L 92.16 87.909375 
" style="fill: none; stroke: #bf00bf; stroke-width: 3; stroke-linecap: square"/>
    </g>
    <g id="text_10">
     <!-- -3: 3/3 -->
     <g transform="translate(108.16 94.909375) scale(0.2 -0.2)">
      <use xlink:href="#DejaVuSans-2d"/>
      <use xlink:href="#DejaVuSans-33" x="36.083984"/>
      <use xlink:href="#DejaVuSans-3a" x="99.707031"/>
      <use xlink:href="#DejaVuSans-20" x="133.398438"/>
      <use xlink:href="#DejaVuSans-33" x="165.185547"/>
      <use xlink:href="#DejaVuSans-2f" x="228.808594"/>
      <use xlink:href="#DejaVuSans-33" x="262.5"/>
     </g>
    </g>
    <g id="line2d_31">
     <path d="M 52.16 117.265625 
L 72.16 117.265625 
L 92.16 117.265625 
" style="fill: none; stroke: #ff0000; stroke-width: 3; stroke-linecap: square"/>
    </g>
    <g id="text_11">
     <!-- -4: 2/2 -->
     <g transform="translate(108.16 124.265625) scale(0.2 -0.2)">
      <defs>
       <path id="DejaVuSans-34" d="M 2419 4116 
L 825 1625 
L 2419 1625 
L 2419 4116 
z
M 2253 4666 
L 3047 4666 
L 3047 1625 
L 3713 1625 
L 3713 1100 
L 3047 1100 
L 3047 0 
L 2419 0 
L 2419 1100 
L 313 1100 
L 313 1709 
L 2253 4666 
z
" transform="scale(0.015625)"/>
      </defs>
      <use xlink:href="#DejaVuSans-2d"/>
      <use xlink:href="#DejaVuSans-34" x="36.083984"/>
      <use xlink:href="#DejaVuSans-3a" x="99.707031"/>
      <use xlink:href="#DejaVuSans-20" x="133.398438"/>
      <use xlink:href="#DejaVuSans-32" x="165.185547"/>
      <use xlink:href="#DejaVuSans-2f" x="228.808594"/>
      <use xlink:href="#DejaVuSans-32" x="262.5"/>
     </g>
    </g>
    <g id="line2d_32">
     <path d="M 52.16 146.621875 
L 72.16 146.621875 
L 92.16 146.621875 
" style="fill: none; stroke: #0000ff; stroke-width: 3; stroke-linecap: square"/>
    </g>
    <g id="text_12">
     <!-- -5: 0/0 -->
     <g transform="translate(108.16 153.621875) scale(0.2 -0.2)">
      <use xlink:href="#DejaVuSans-2d"/>
      <use xlink:href="#DejaVuSans-35" x="36.083984"/>
      <use xlink:href="#DejaVuSans-3a" x="99.707031"/>
      <use xlink:href="#DejaVuSans-20" x="133.398438"/>
      <use xlink:href="#DejaVuSans-30" x="165.185547"/>
      <use xlink:href="#DejaVuSans-2f" x="228.808594"/>
      <use xlink:href="#DejaVuSans-30" x="262.5"/>
     </g>
    </g>
   </g>
  </g>
 </g>
 <defs>
  <clipPath id="pef9c7cf8a3">
   <rect x="34.16" y="3" width="419.032" height="288.28"/>
  </clipPath>
 </defs>
</svg>
