<?xml version="1.0" encoding="utf-8" standalone="no"?>
<!DOCTYPE svg PUBLIC "-//W3C//DTD SVG 1.1//EN"
  "http://www.w3.org/Graphics/SVG/1.1/DTD/svg11.dtd">
<svg xmlns:xlink="http://www.w3.org/1999/xlink" width="460.8pt" height="345.6pt" viewBox="0 0 460.8 345.6" xmlns="http://www.w3.org/2000/svg" version="1.1">
 <metadata>
  <rdf:RDF xmlns:dc="http://purl.org/dc/elements/1.1/" xmlns:cc="http://creativecommons.org/ns#" xmlns:rdf="http://www.w3.org/1999/02/22-rdf-syntax-ns#">
   <cc:Work>
    <dc:type rdf:resource="http://purl.org/dc/dcmitype/StillImage"/>
    <dc:date>2023-03-13T19:42:13.047905</dc:date>
    <dc:format>image/svg+xml</dc:format>
    <dc:creator>
     <cc:Agent>
      <dc:title>Matplotlib v3.7.0, https://matplotlib.org/</dc:title>
     </cc:Agent>
    </dc:creator>
   </cc:Work>
  </rdf:RDF>
 </metadata>
 <defs>
  <style type="text/css">*{stroke-linejoin: round; stroke-linecap: butt}</style>
 </defs>
 <g id="figure_1">
  <g id="patch_1">
   <path d="M 0 345.6 
L 460.8 345.6 
L 460.8 0 
L 0 0 
z
" style="fill: #ffffff"/>
  </g>
  <g id="axes_1">
   <g id="patch_2">
    <path d="M 34.16 291.28 
L 453.192 291.28 
L 453.192 3 
L 34.16 3 
z
" style="fill: #ffffff"/>
   </g>
   <g id="matplotlib.axis_1">
    <g id="xtick_1">
     <g id="line2d_1">
      <path d="M 88.612969 291.28 
L 88.612969 3 
" clip-path="url(#p22cfe7dbc5)" style="fill: none; stroke: #b0b0b0; stroke-width: 0.8; stroke-linecap: square"/>
     </g>
     <g id="line2d_2">
      <defs>
       <path id="mb7815e0387" d="M 0 0 
L 0 3.5 
" style="stroke: #000000; stroke-width: 0.8"/>
      </defs>
      <g>
       <use xlink:href="#mb7815e0387" x="88.612969" y="291.28" style="stroke: #000000; stroke-width: 0.8"/>
      </g>
     </g>
     <g id="text_1">
      <!-- -1 -->
      <g transform="translate(78.642657 313.476875) scale(0.2 -0.2)">
       <defs>
        <path id="DejaVuSans-2d" d="M 313 2009 
L 1997 2009 
L 1997 1497 
L 313 1497 
L 313 2009 
z
" transform="scale(0.015625)"/>
        <path id="DejaVuSans-31" d="M 794 531 
L 1825 531 
L 1825 4091 
L 703 3866 
L 703 4441 
L 1819 4666 
L 2450 4666 
L 2450 531 
L 3481 531 
L 3481 0 
L 794 0 
L 794 531 
z
" transform="scale(0.015625)"/>
       </defs>
       <use xlink:href="#DejaVuSans-2d"/>
       <use xlink:href="#DejaVuSans-31" x="36.083984"/>
      </g>
     </g>
    </g>
    <g id="xtick_2">
     <g id="line2d_3">
      <path d="M 243.676 291.28 
L 243.676 3 
" clip-path="url(#p22cfe7dbc5)" style="fill: none; stroke: #b0b0b0; stroke-width: 0.8; stroke-linecap: square"/>
     </g>
     <g id="line2d_4">
      <g>
       <use xlink:href="#mb7815e0387" x="243.676" y="291.28" style="stroke: #000000; stroke-width: 0.8"/>
      </g>
     </g>
     <g id="text_2">
      <!-- 0 -->
      <g transform="translate(237.3135 313.476875) scale(0.2 -0.2)">
       <defs>
        <path id="DejaVuSans-30" d="M 2034 4250 
Q 1547 4250 1301 3770 
Q 1056 3291 1056 2328 
Q 1056 1369 1301 889 
Q 1547 409 2034 409 
Q 2525 409 2770 889 
Q 3016 1369 3016 2328 
Q 3016 3291 2770 3770 
Q 2525 4250 2034 4250 
z
M 2034 4750 
Q 2819 4750 3233 4129 
Q 3647 3509 3647 2328 
Q 3647 1150 3233 529 
Q 2819 -91 2034 -91 
Q 1250 -91 836 529 
Q 422 1150 422 2328 
Q 422 3509 836 4129 
Q 1250 4750 2034 4750 
z
" transform="scale(0.015625)"/>
       </defs>
       <use xlink:href="#DejaVuSans-30"/>
      </g>
     </g>
    </g>
    <g id="xtick_3">
     <g id="line2d_5">
      <path d="M 398.739031 291.28 
L 398.739031 3 
" clip-path="url(#p22cfe7dbc5)" style="fill: none; stroke: #b0b0b0; stroke-width: 0.8; stroke-linecap: square"/>
     </g>
     <g id="line2d_6">
      <g>
       <use xlink:href="#mb7815e0387" x="398.739031" y="291.28" style="stroke: #000000; stroke-width: 0.8"/>
      </g>
     </g>
     <g id="text_3">
      <!-- 1 -->
      <g transform="translate(392.376531 313.476875) scale(0.2 -0.2)">
       <use xlink:href="#DejaVuSans-31"/>
      </g>
     </g>
    </g>
    <g id="xtick_4">
     <g id="line2d_7">
      <defs>
       <path id="m26fff7c1ab" d="M 0 0 
L 0 2 
" style="stroke: #000000; stroke-width: 0.6"/>
      </defs>
      <g>
       <use xlink:href="#m26fff7c1ab" x="41.934346" y="291.28" style="stroke: #000000; stroke-width: 0.6"/>
      </g>
     </g>
    </g>
    <g id="xtick_5">
     <g id="line2d_8">
      <g>
       <use xlink:href="#m26fff7c1ab" x="54.21243" y="291.28" style="stroke: #000000; stroke-width: 0.6"/>
      </g>
     </g>
    </g>
    <g id="xtick_6">
     <g id="line2d_9">
      <g>
       <use xlink:href="#m26fff7c1ab" x="64.593402" y="291.28" style="stroke: #000000; stroke-width: 0.6"/>
      </g>
     </g>
    </g>
    <g id="xtick_7">
     <g id="line2d_10">
      <g>
       <use xlink:href="#m26fff7c1ab" x="73.585809" y="291.28" style="stroke: #000000; stroke-width: 0.6"/>
      </g>
     </g>
    </g>
    <g id="xtick_8">
     <g id="line2d_11">
      <g>
       <use xlink:href="#m26fff7c1ab" x="81.517674" y="291.28" style="stroke: #000000; stroke-width: 0.6"/>
      </g>
     </g>
    </g>
    <g id="xtick_9">
     <g id="line2d_12">
      <g>
       <use xlink:href="#m26fff7c1ab" x="135.291593" y="291.28" style="stroke: #000000; stroke-width: 0.6"/>
      </g>
     </g>
    </g>
    <g id="xtick_10">
     <g id="line2d_13">
      <g>
       <use xlink:href="#m26fff7c1ab" x="162.596837" y="291.28" style="stroke: #000000; stroke-width: 0.6"/>
      </g>
     </g>
    </g>
    <g id="xtick_11">
     <g id="line2d_14">
      <g>
       <use xlink:href="#m26fff7c1ab" x="181.970216" y="291.28" style="stroke: #000000; stroke-width: 0.6"/>
      </g>
     </g>
    </g>
    <g id="xtick_12">
     <g id="line2d_15">
      <g>
       <use xlink:href="#m26fff7c1ab" x="196.997377" y="291.28" style="stroke: #000000; stroke-width: 0.6"/>
      </g>
     </g>
    </g>
    <g id="xtick_13">
     <g id="line2d_16">
      <g>
       <use xlink:href="#m26fff7c1ab" x="209.275461" y="291.28" style="stroke: #000000; stroke-width: 0.6"/>
      </g>
     </g>
    </g>
    <g id="xtick_14">
     <g id="line2d_17">
      <g>
       <use xlink:href="#m26fff7c1ab" x="219.656433" y="291.28" style="stroke: #000000; stroke-width: 0.6"/>
      </g>
     </g>
    </g>
    <g id="xtick_15">
     <g id="line2d_18">
      <g>
       <use xlink:href="#m26fff7c1ab" x="228.64884" y="291.28" style="stroke: #000000; stroke-width: 0.6"/>
      </g>
     </g>
    </g>
    <g id="xtick_16">
     <g id="line2d_19">
      <g>
       <use xlink:href="#m26fff7c1ab" x="236.580705" y="291.28" style="stroke: #000000; stroke-width: 0.6"/>
      </g>
     </g>
    </g>
    <g id="xtick_17">
     <g id="line2d_20">
      <g>
       <use xlink:href="#m26fff7c1ab" x="290.354623" y="291.28" style="stroke: #000000; stroke-width: 0.6"/>
      </g>
     </g>
    </g>
    <g id="xtick_18">
     <g id="line2d_21">
      <g>
       <use xlink:href="#m26fff7c1ab" x="317.659868" y="291.28" style="stroke: #000000; stroke-width: 0.6"/>
      </g>
     </g>
    </g>
    <g id="xtick_19">
     <g id="line2d_22">
      <g>
       <use xlink:href="#m26fff7c1ab" x="337.033247" y="291.28" style="stroke: #000000; stroke-width: 0.6"/>
      </g>
     </g>
    </g>
    <g id="xtick_20">
     <g id="line2d_23">
      <g>
       <use xlink:href="#m26fff7c1ab" x="352.060407" y="291.28" style="stroke: #000000; stroke-width: 0.6"/>
      </g>
     </g>
    </g>
    <g id="xtick_21">
     <g id="line2d_24">
      <g>
       <use xlink:href="#m26fff7c1ab" x="364.338491" y="291.28" style="stroke: #000000; stroke-width: 0.6"/>
      </g>
     </g>
    </g>
    <g id="xtick_22">
     <g id="line2d_25">
      <g>
       <use xlink:href="#m26fff7c1ab" x="374.719463" y="291.28" style="stroke: #000000; stroke-width: 0.6"/>
      </g>
     </g>
    </g>
    <g id="xtick_23">
     <g id="line2d_26">
      <g>
       <use xlink:href="#m26fff7c1ab" x="383.71187" y="291.28" style="stroke: #000000; stroke-width: 0.6"/>
      </g>
     </g>
    </g>
    <g id="xtick_24">
     <g id="line2d_27">
      <g>
       <use xlink:href="#m26fff7c1ab" x="391.643735" y="291.28" style="stroke: #000000; stroke-width: 0.6"/>
      </g>
     </g>
    </g>
    <g id="xtick_25">
     <g id="line2d_28">
      <g>
       <use xlink:href="#m26fff7c1ab" x="445.417654" y="291.28" style="stroke: #000000; stroke-width: 0.6"/>
      </g>
     </g>
    </g>
    <g id="text_4">
     <!-- log10 of FEvals ratio -->
     <g transform="translate(141.371312 336.833125) scale(0.2 -0.2)">
      <defs>
       <path id="DejaVuSans-6c" d="M 603 4863 
L 1178 4863 
L 1178 0 
L 603 0 
L 603 4863 
z
" transform="scale(0.015625)"/>
       <path id="DejaVuSans-6f" d="M 1959 3097 
Q 1497 3097 1228 2736 
Q 959 2375 959 1747 
Q 959 1119 1226 758 
Q 1494 397 1959 397 
Q 2419 397 2687 759 
Q 2956 1122 2956 1747 
Q 2956 2369 2687 2733 
Q 2419 3097 1959 3097 
z
M 1959 3584 
Q 2709 3584 3137 3096 
Q 3566 2609 3566 1747 
Q 3566 888 3137 398 
Q 2709 -91 1959 -91 
Q 1206 -91 779 398 
Q 353 888 353 1747 
Q 353 2609 779 3096 
Q 1206 3584 1959 3584 
z
" transform="scale(0.015625)"/>
       <path id="DejaVuSans-67" d="M 2906 1791 
Q 2906 2416 2648 2759 
Q 2391 3103 1925 3103 
Q 1463 3103 1205 2759 
Q 947 2416 947 1791 
Q 947 1169 1205 825 
Q 1463 481 1925 481 
Q 2391 481 2648 825 
Q 2906 1169 2906 1791 
z
M 3481 434 
Q 3481 -459 3084 -895 
Q 2688 -1331 1869 -1331 
Q 1566 -1331 1297 -1286 
Q 1028 -1241 775 -1147 
L 775 -588 
Q 1028 -725 1275 -790 
Q 1522 -856 1778 -856 
Q 2344 -856 2625 -561 
Q 2906 -266 2906 331 
L 2906 616 
Q 2728 306 2450 153 
Q 2172 0 1784 0 
Q 1141 0 747 490 
Q 353 981 353 1791 
Q 353 2603 747 3093 
Q 1141 3584 1784 3584 
Q 2172 3584 2450 3431 
Q 2728 3278 2906 2969 
L 2906 3500 
L 3481 3500 
L 3481 434 
z
" transform="scale(0.015625)"/>
       <path id="DejaVuSans-20" transform="scale(0.015625)"/>
       <path id="DejaVuSans-66" d="M 2375 4863 
L 2375 4384 
L 1825 4384 
Q 1516 4384 1395 4259 
Q 1275 4134 1275 3809 
L 1275 3500 
L 2222 3500 
L 2222 3053 
L 1275 3053 
L 1275 0 
L 697 0 
L 697 3053 
L 147 3053 
L 147 3500 
L 697 3500 
L 697 3744 
Q 697 4328 969 4595 
Q 1241 4863 1831 4863 
L 2375 4863 
z
" transform="scale(0.015625)"/>
       <path id="DejaVuSans-46" d="M 628 4666 
L 3309 4666 
L 3309 4134 
L 1259 4134 
L 1259 2759 
L 3109 2759 
L 3109 2228 
L 1259 2228 
L 1259 0 
L 628 0 
L 628 4666 
z
" transform="scale(0.015625)"/>
       <path id="DejaVuSans-45" d="M 628 4666 
L 3578 4666 
L 3578 4134 
L 1259 4134 
L 1259 2753 
L 3481 2753 
L 3481 2222 
L 1259 2222 
L 1259 531 
L 3634 531 
L 3634 0 
L 628 0 
L 628 4666 
z
" transform="scale(0.015625)"/>
       <path id="DejaVuSans-76" d="M 191 3500 
L 800 3500 
L 1894 563 
L 2988 3500 
L 3597 3500 
L 2284 0 
L 1503 0 
L 191 3500 
z
" transform="scale(0.015625)"/>
       <path id="DejaVuSans-61" d="M 2194 1759 
Q 1497 1759 1228 1600 
Q 959 1441 959 1056 
Q 959 750 1161 570 
Q 1363 391 1709 391 
Q 2188 391 2477 730 
Q 2766 1069 2766 1631 
L 2766 1759 
L 2194 1759 
z
M 3341 1997 
L 3341 0 
L 2766 0 
L 2766 531 
Q 2569 213 2275 61 
Q 1981 -91 1556 -91 
Q 1019 -91 701 211 
Q 384 513 384 1019 
Q 384 1609 779 1909 
Q 1175 2209 1959 2209 
L 2766 2209 
L 2766 2266 
Q 2766 2663 2505 2880 
Q 2244 3097 1772 3097 
Q 1472 3097 1187 3025 
Q 903 2953 641 2809 
L 641 3341 
Q 956 3463 1253 3523 
Q 1550 3584 1831 3584 
Q 2591 3584 2966 3190 
Q 3341 2797 3341 1997 
z
" transform="scale(0.015625)"/>
       <path id="DejaVuSans-73" d="M 2834 3397 
L 2834 2853 
Q 2591 2978 2328 3040 
Q 2066 3103 1784 3103 
Q 1356 3103 1142 2972 
Q 928 2841 928 2578 
Q 928 2378 1081 2264 
Q 1234 2150 1697 2047 
L 1894 2003 
Q 2506 1872 2764 1633 
Q 3022 1394 3022 966 
Q 3022 478 2636 193 
Q 2250 -91 1575 -91 
Q 1294 -91 989 -36 
Q 684 19 347 128 
L 347 722 
Q 666 556 975 473 
Q 1284 391 1588 391 
Q 1994 391 2212 530 
Q 2431 669 2431 922 
Q 2431 1156 2273 1281 
Q 2116 1406 1581 1522 
L 1381 1569 
Q 847 1681 609 1914 
Q 372 2147 372 2553 
Q 372 3047 722 3315 
Q 1072 3584 1716 3584 
Q 2034 3584 2315 3537 
Q 2597 3491 2834 3397 
z
" transform="scale(0.015625)"/>
       <path id="DejaVuSans-72" d="M 2631 2963 
Q 2534 3019 2420 3045 
Q 2306 3072 2169 3072 
Q 1681 3072 1420 2755 
Q 1159 2438 1159 1844 
L 1159 0 
L 581 0 
L 581 3500 
L 1159 3500 
L 1159 2956 
Q 1341 3275 1631 3429 
Q 1922 3584 2338 3584 
Q 2397 3584 2469 3576 
Q 2541 3569 2628 3553 
L 2631 2963 
z
" transform="scale(0.015625)"/>
       <path id="DejaVuSans-74" d="M 1172 4494 
L 1172 3500 
L 2356 3500 
L 2356 3053 
L 1172 3053 
L 1172 1153 
Q 1172 725 1289 603 
Q 1406 481 1766 481 
L 2356 481 
L 2356 0 
L 1766 0 
Q 1100 0 847 248 
Q 594 497 594 1153 
L 594 3053 
L 172 3053 
L 172 3500 
L 594 3500 
L 594 4494 
L 1172 4494 
z
" transform="scale(0.015625)"/>
       <path id="DejaVuSans-69" d="M 603 3500 
L 1178 3500 
L 1178 0 
L 603 0 
L 603 3500 
z
M 603 4863 
L 1178 4863 
L 1178 4134 
L 603 4134 
L 603 4863 
z
" transform="scale(0.015625)"/>
      </defs>
      <use xlink:href="#DejaVuSans-6c"/>
      <use xlink:href="#DejaVuSans-6f" x="27.783203"/>
      <use xlink:href="#DejaVuSans-67" x="88.964844"/>
      <use xlink:href="#DejaVuSans-31" x="152.441406"/>
      <use xlink:href="#DejaVuSans-30" x="216.064453"/>
      <use xlink:href="#DejaVuSans-20" x="279.6875"/>
      <use xlink:href="#DejaVuSans-6f" x="311.474609"/>
      <use xlink:href="#DejaVuSans-66" x="372.65625"/>
      <use xlink:href="#DejaVuSans-20" x="407.861328"/>
      <use xlink:href="#DejaVuSans-46" x="439.648438"/>
      <use xlink:href="#DejaVuSans-45" x="497.167969"/>
      <use xlink:href="#DejaVuSans-76" x="560.351562"/>
      <use xlink:href="#DejaVuSans-61" x="619.53125"/>
      <use xlink:href="#DejaVuSans-6c" x="680.810547"/>
      <use xlink:href="#DejaVuSans-73" x="708.59375"/>
      <use xlink:href="#DejaVuSans-20" x="760.693359"/>
      <use xlink:href="#DejaVuSans-72" x="792.480469"/>
      <use xlink:href="#DejaVuSans-61" x="833.59375"/>
      <use xlink:href="#DejaVuSans-74" x="894.873047"/>
      <use xlink:href="#DejaVuSans-69" x="934.082031"/>
      <use xlink:href="#DejaVuSans-6f" x="961.865234"/>
     </g>
    </g>
   </g>
   <g id="matplotlib.axis_2">
    <g id="ytick_1">
     <g id="line2d_29">
      <path d="M 34.16 288.453725 
L 453.192 288.453725 
" clip-path="url(#p22cfe7dbc5)" style="fill: none; stroke: #b0b0b0; stroke-width: 0.8; stroke-linecap: square"/>
     </g>
     <g id="line2d_30">
      <defs>
       <path id="m3755d26b36" d="M 0 0 
L -3.5 0 
" style="stroke: #000000; stroke-width: 0.8"/>
      </defs>
      <g>
       <use xlink:href="#m3755d26b36" x="34.16" y="288.453725" style="stroke: #000000; stroke-width: 0.8"/>
      </g>
     </g>
    </g>
    <g id="ytick_2">
     <g id="line2d_31">
      <path d="M 34.16 217.796863 
L 453.192 217.796863 
" clip-path="url(#p22cfe7dbc5)" style="fill: none; stroke: #b0b0b0; stroke-width: 0.8; stroke-linecap: square"/>
     </g>
     <g id="line2d_32">
      <g>
       <use xlink:href="#m3755d26b36" x="34.16" y="217.796863" style="stroke: #000000; stroke-width: 0.8"/>
      </g>
     </g>
    </g>
    <g id="ytick_3">
     <g id="line2d_33">
      <path d="M 34.16 147.14 
L 453.192 147.14 
" clip-path="url(#p22cfe7dbc5)" style="fill: none; stroke: #b0b0b0; stroke-width: 0.8; stroke-linecap: square"/>
     </g>
     <g id="line2d_34">
      <g>
       <use xlink:href="#m3755d26b36" x="34.16" y="147.14" style="stroke: #000000; stroke-width: 0.8"/>
      </g>
     </g>
    </g>
    <g id="ytick_4">
     <g id="line2d_35">
      <path d="M 34.16 76.483137 
L 453.192 76.483137 
" clip-path="url(#p22cfe7dbc5)" style="fill: none; stroke: #b0b0b0; stroke-width: 0.8; stroke-linecap: square"/>
     </g>
     <g id="line2d_36">
      <g>
       <use xlink:href="#m3755d26b36" x="34.16" y="76.483137" style="stroke: #000000; stroke-width: 0.8"/>
      </g>
     </g>
    </g>
    <g id="ytick_5">
     <g id="line2d_37">
      <path d="M 34.16 5.826275 
L 453.192 5.826275 
" clip-path="url(#p22cfe7dbc5)" style="fill: none; stroke: #b0b0b0; stroke-width: 0.8; stroke-linecap: square"/>
     </g>
     <g id="line2d_38">
      <g>
       <use xlink:href="#m3755d26b36" x="34.16" y="5.826275" style="stroke: #000000; stroke-width: 0.8"/>
      </g>
     </g>
    </g>
    <g id="text_5">
     <!-- proportion of trials -->
     <g transform="translate(19.000625 240.14625) rotate(-90) scale(0.2 -0.2)">
      <defs>
       <path id="DejaVuSans-70" d="M 1159 525 
L 1159 -1331 
L 581 -1331 
L 581 3500 
L 1159 3500 
L 1159 2969 
Q 1341 3281 1617 3432 
Q 1894 3584 2278 3584 
Q 2916 3584 3314 3078 
Q 3713 2572 3713 1747 
Q 3713 922 3314 415 
Q 2916 -91 2278 -91 
Q 1894 -91 1617 61 
Q 1341 213 1159 525 
z
M 3116 1747 
Q 3116 2381 2855 2742 
Q 2594 3103 2138 3103 
Q 1681 3103 1420 2742 
Q 1159 2381 1159 1747 
Q 1159 1113 1420 752 
Q 1681 391 2138 391 
Q 2594 391 2855 752 
Q 3116 1113 3116 1747 
z
" transform="scale(0.015625)"/>
       <path id="DejaVuSans-6e" d="M 3513 2113 
L 3513 0 
L 2938 0 
L 2938 2094 
Q 2938 2591 2744 2837 
Q 2550 3084 2163 3084 
Q 1697 3084 1428 2787 
Q 1159 2491 1159 1978 
L 1159 0 
L 581 0 
L 581 3500 
L 1159 3500 
L 1159 2956 
Q 1366 3272 1645 3428 
Q 1925 3584 2291 3584 
Q 2894 3584 3203 3211 
Q 3513 2838 3513 2113 
z
" transform="scale(0.015625)"/>
      </defs>
      <use xlink:href="#DejaVuSans-70"/>
      <use xlink:href="#DejaVuSans-72" x="63.476562"/>
      <use xlink:href="#DejaVuSans-6f" x="102.339844"/>
      <use xlink:href="#DejaVuSans-70" x="163.521484"/>
      <use xlink:href="#DejaVuSans-6f" x="226.998047"/>
      <use xlink:href="#DejaVuSans-72" x="288.179688"/>
      <use xlink:href="#DejaVuSans-74" x="329.292969"/>
      <use xlink:href="#DejaVuSans-69" x="368.501953"/>
      <use xlink:href="#DejaVuSans-6f" x="396.285156"/>
      <use xlink:href="#DejaVuSans-6e" x="457.466797"/>
      <use xlink:href="#DejaVuSans-20" x="520.845703"/>
      <use xlink:href="#DejaVuSans-6f" x="552.632812"/>
      <use xlink:href="#DejaVuSans-66" x="613.814453"/>
      <use xlink:href="#DejaVuSans-20" x="649.019531"/>
      <use xlink:href="#DejaVuSans-74" x="680.806641"/>
      <use xlink:href="#DejaVuSans-72" x="720.015625"/>
      <use xlink:href="#DejaVuSans-69" x="761.128906"/>
      <use xlink:href="#DejaVuSans-61" x="788.912109"/>
      <use xlink:href="#DejaVuSans-6c" x="850.191406"/>
      <use xlink:href="#DejaVuSans-73" x="877.974609"/>
     </g>
    </g>
   </g>
   <g id="line2d_39">
    <path d="M 34.16 288.453725 
L 125.37843 288.453725 
L 125.37843 287.747157 
L 126.202839 287.747157 
L 126.202839 287.040588 
L 137.584856 287.040588 
L 137.584856 286.33402 
L 139.749744 286.33402 
L 139.749744 285.627451 
L 140.574152 285.627451 
L 140.574152 284.920882 
L 145.928136 284.920882 
L 145.928136 284.214314 
L 146.752545 284.214314 
L 146.752545 283.507745 
L 151.95617 283.507745 
L 151.95617 282.801176 
L 155.161238 282.801176 
L 155.161238 282.094608 
L 158.134563 282.094608 
L 158.134563 281.388039 
L 161.651355 281.388039 
L 161.651355 280.681471 
L 162.475763 280.681471 
L 162.475763 279.974902 
L 169.023071 279.974902 
L 169.023071 279.268333 
L 169.532552 279.268333 
L 169.532552 278.561765 
L 169.84748 278.561765 
L 169.84748 277.855196 
L 173.857781 277.855196 
L 173.857781 277.148627 
L 175.710944 277.148627 
L 175.710944 276.442059 
L 179.901704 276.442059 
L 179.901704 275.73549 
L 181.229497 275.73549 
L 181.229497 275.028922 
L 184.694575 275.028922 
L 184.694575 274.322353 
L 191.434163 274.322353 
L 191.434163 273.615784 
L 192.080812 273.615784 
L 192.083995 272.202647 
L 194.868978 272.202647 
L 194.868978 271.496078 
L 196.382368 271.496078 
L 196.416663 270.082941 
L 198.719369 270.082941 
L 198.805879 268.669804 
L 199.065888 268.669804 
L 199.065888 267.963235 
L 199.921188 267.963235 
L 199.921188 267.256667 
L 201.442556 267.256667 
L 201.442556 266.550098 
L 201.964273 266.550098 
L 201.964273 265.843529 
L 203.05522 265.843529 
L 203.05522 265.136961 
L 203.706086 265.136961 
L 203.706086 264.430392 
L 204.257039 264.430392 
L 204.257039 263.723824 
L 205.244281 263.723824 
L 205.244281 263.017255 
L 208.416012 263.017255 
L 208.416012 262.310686 
L 210.344643 262.310686 
L 210.344643 261.604118 
L 211.546462 261.604118 
L 211.546462 260.897549 
L 212.450924 260.897549 
L 212.450924 260.19098 
L 213.027181 260.19098 
L 213.027181 259.484412 
L 213.6615 259.484412 
L 213.6615 258.777843 
L 215.81387 258.777843 
L 215.81387 258.071275 
L 216.786776 258.071275 
L 216.793452 256.658137 
L 216.931738 256.658137 
L 216.931738 255.951569 
L 217.363032 255.951569 
L 217.363032 255.245 
L 217.756147 255.245 
L 217.756147 254.538431 
L 217.997351 254.538431 
L 217.997351 253.831863 
L 219.826928 253.831863 
L 219.826928 253.125294 
L 220.808463 253.125294 
L 220.808463 252.418725 
L 220.9675 252.418725 
L 220.9675 251.712157 
L 221.992263 251.712157 
L 221.992263 251.005588 
L 222.534477 251.005588 
L 222.534477 250.29902 
L 223.432009 250.29902 
L 223.432009 249.592451 
L 224.076199 249.592451 
L 224.076199 248.885882 
L 224.633829 248.885882 
L 224.652456 247.472745 
L 224.859507 247.472745 
L 224.859507 246.766176 
L 225.286774 246.766176 
L 225.286774 246.059608 
L 225.51237 246.059608 
L 225.51237 245.353039 
L 226.465485 245.353039 
L 226.465485 244.646471 
L 227.44702 244.646471 
L 227.44702 243.939902 
L 227.667305 243.939902 
L 227.667305 243.233333 
L 228.339216 243.233333 
L 228.339216 242.526765 
L 228.64884 242.526765 
L 228.64884 241.820196 
L 228.845462 241.820196 
L 228.845462 241.113627 
L 229.007366 241.113627 
L 229.007366 240.407059 
L 229.138164 240.407059 
L 229.138164 239.70049 
L 232.150927 239.70049 
L 232.150927 238.993922 
L 232.38042 238.993922 
L 232.38042 238.287353 
L 232.855163 238.287353 
L 232.855163 237.580784 
L 233.352746 237.580784 
L 233.352746 236.874216 
L 234.435329 236.874216 
L 234.435329 236.167647 
L 236.008631 236.167647 
L 236.008631 235.461078 
L 236.364812 235.461078 
L 236.364812 234.75451 
L 236.600341 234.75451 
L 236.600341 234.047941 
L 236.971631 234.047941 
L 237.041797 232.634804 
L 237.163565 232.634804 
L 237.163565 231.928235 
L 237.522359 231.928235 
L 237.522359 231.221667 
L 237.715481 231.221667 
L 237.739822 229.808529 
L 238.37414 229.808529 
L 238.37414 229.101961 
L 238.691404 229.101961 
L 238.691404 228.395392 
L 239.397305 228.395392 
L 239.397305 227.688824 
L 239.611282 227.688824 
L 239.611282 226.982255 
L 239.82678 226.982255 
L 239.82678 226.275686 
L 240.197041 226.275686 
L 240.197041 225.569118 
L 240.773298 225.569118 
L 240.773298 224.862549 
L 241.073885 224.862549 
L 241.178576 223.449412 
L 241.189656 223.449412 
L 241.235769 222.036275 
L 241.307482 222.036275 
L 241.407617 219.916569 
L 241.637353 219.916569 
L 241.637353 219.21 
L 241.754833 219.21 
L 241.754833 218.503431 
L 242.275705 218.503431 
L 242.299387 217.090294 
L 242.389152 217.090294 
L 242.389152 216.383725 
L 242.647188 216.383725 
L 242.647188 215.677157 
L 243.366909 215.677157 
L 243.366909 214.970588 
L 243.833344 214.970588 
L 243.849007 213.557451 
L 243.974639 213.557451 
L 243.974639 212.850882 
L 245.087198 212.850882 
L 245.164853 211.437745 
L 245.488029 211.437745 
L 245.488029 210.731176 
L 245.882483 210.731176 
L 245.991459 208.611471 
L 246.193789 208.611471 
L 246.193789 207.904902 
L 246.446283 207.904902 
L 246.458739 206.491765 
L 246.714546 206.491765 
L 246.815867 204.372059 
L 246.922075 204.372059 
L 246.922075 203.66549 
L 247.093058 203.66549 
L 247.093058 202.958922 
L 247.631649 202.958922 
L 247.631649 202.252353 
L 247.948337 202.252353 
L 247.962912 200.839216 
L 248.145897 200.839216 
L 248.145897 200.132647 
L 248.596905 200.132647 
L 248.610371 198.71951 
L 248.845521 198.71951 
L 248.845521 198.012941 
L 249.243247 198.012941 
L 249.243247 197.306373 
L 250.005466 197.306373 
L 250.005466 196.599804 
L 250.705882 196.599804 
L 250.705882 195.893235 
L 250.943198 195.893235 
L 250.943198 195.186667 
L 251.069934 195.186667 
L 251.069934 194.480098 
L 251.207286 194.480098 
L 251.207286 193.773529 
L 251.588223 193.773529 
L 251.588223 193.066961 
L 253.070866 193.066961 
L 253.181372 191.653824 
L 253.373814 191.653824 
L 253.418059 190.240686 
L 253.677146 190.240686 
L 253.677146 189.534118 
L 254.385187 189.534118 
L 254.385187 188.827549 
L 254.805441 188.827549 
L 254.805441 188.12098 
L 255.010795 188.12098 
L 255.010795 187.414412 
L 255.381698 187.414412 
L 255.426089 186.001275 
L 255.703217 186.001275 
L 255.703217 185.294706 
L 256.016017 185.294706 
L 256.016017 184.588137 
L 256.203042 184.588137 
L 256.203042 183.881569 
L 256.365251 183.881569 
L 256.47411 181.761863 
L 256.955 181.761863 
L 256.955 181.055294 
L 257.102567 181.055294 
L 257.102567 180.348725 
L 257.254183 180.348725 
L 257.254183 179.642157 
L 257.521674 179.642157 
L 257.589319 178.22902 
L 257.716432 178.22902 
L 257.716432 177.522451 
L 258.197885 177.522451 
L 258.197885 176.815882 
L 258.500181 176.815882 
L 258.500181 176.109314 
L 259.117844 176.109314 
L 259.162215 174.696176 
L 259.813939 174.696176 
L 259.813939 173.989608 
L 260.011621 173.989608 
L 260.011621 173.283039 
L 260.152734 173.283039 
L 260.152734 172.576471 
L 260.470795 172.576471 
L 260.551824 171.163333 
L 260.825746 171.163333 
L 260.836029 169.750196 
L 261.684271 169.750196 
L 261.737073 168.337059 
L 262.241657 168.337059 
L 262.334225 166.923922 
L 262.598922 166.923922 
L 262.598922 166.217353 
L 263.298337 166.217353 
L 263.298337 165.510784 
L 263.62271 165.510784 
L 263.640976 164.097647 
L 263.737022 164.097647 
L 263.737022 163.391078 
L 264.112312 163.391078 
L 264.112312 162.68451 
L 264.267728 162.68451 
L 264.313279 161.271373 
L 264.717747 161.271373 
L 264.717747 160.564804 
L 264.929762 160.564804 
L 265.009062 157.738529 
L 265.109366 157.738529 
L 265.109366 157.031961 
L 265.428829 157.031961 
L 265.428829 156.325392 
L 265.693764 156.325392 
L 265.699282 154.912255 
L 267.782686 154.912255 
L 267.806026 153.499118 
L 268.512618 153.499118 
L 268.512618 152.792549 
L 269.284857 152.792549 
L 269.390257 150.672843 
L 269.491953 150.672843 
L 269.491953 149.966275 
L 269.694218 149.966275 
L 269.750076 148.553137 
L 269.808757 148.553137 
L 269.808757 147.846569 
L 270.070377 147.846569 
L 270.156962 146.433431 
L 270.403189 146.433431 
L 270.470791 145.020294 
L 270.883148 145.020294 
L 270.894785 143.607157 
L 272.06984 143.607157 
L 272.06984 142.900588 
L 272.218047 142.900588 
L 272.288917 141.487451 
L 273.183708 141.487451 
L 273.183708 140.780882 
L 273.486918 140.780882 
L 273.58323 137.954608 
L 274.32628 137.954608 
L 274.32628 137.248039 
L 274.492813 137.248039 
L 274.492813 136.541471 
L 274.931286 136.541471 
L 274.955308 135.128333 
L 275.268156 135.128333 
L 275.268156 134.421765 
L 275.774267 134.421765 
L 275.774267 133.715196 
L 275.980672 133.715196 
L 275.980672 133.008627 
L 276.145957 133.008627 
L 276.247883 131.59549 
L 276.581244 131.59549 
L 276.591637 130.182353 
L 277.573172 130.182353 
L 277.573172 129.475784 
L 277.812966 129.475784 
L 277.812966 128.769216 
L 278.056464 128.769216 
L 278.056464 128.062647 
L 278.628858 128.062647 
L 278.628858 127.356078 
L 279.114603 127.356078 
L 279.165135 125.942941 
L 279.326148 125.942941 
L 279.326148 125.236373 
L 280.097247 125.236373 
L 280.173931 123.823235 
L 280.717781 123.823235 
L 280.72909 122.410098 
L 280.89945 122.410098 
L 280.99834 120.996961 
L 281.322614 120.996961 
L 281.327971 119.583824 
L 281.748219 119.583824 
L 281.782237 118.170686 
L 281.960825 118.170686 
L 281.960825 117.464118 
L 282.18617 117.464118 
L 282.277079 115.344412 
L 282.743852 115.344412 
L 282.786329 113.931275 
L 283.405886 113.931275 
L 283.405886 113.224706 
L 283.597493 113.224706 
L 283.597493 112.518137 
L 284.212241 112.518137 
L 284.235837 111.105 
L 284.874275 111.105 
L 284.874275 110.398431 
L 285.470474 110.398431 
L 285.470474 109.691863 
L 285.616874 109.691863 
L 285.616874 108.985294 
L 285.87103 108.985294 
L 285.87103 108.278725 
L 287.289249 108.278725 
L 287.289249 107.572157 
L 287.790028 107.572157 
L 287.866381 106.15902 
L 287.959953 106.15902 
L 287.959953 105.452451 
L 288.257728 105.452451 
L 288.257728 104.745882 
L 288.697594 104.745882 
L 288.697594 104.039314 
L 289.33477 104.039314 
L 289.33477 103.332745 
L 289.63947 103.332745 
L 289.668611 101.919608 
L 289.794429 101.919608 
L 289.794429 101.213039 
L 289.986024 101.213039 
L 289.986024 100.506471 
L 290.648058 100.506471 
L 290.648058 99.799902 
L 291.151592 99.799902 
L 291.200037 98.386765 
L 291.607553 98.386765 
L 291.607553 97.680196 
L 292.049697 97.680196 
L 292.049697 96.973627 
L 292.380357 96.973627 
L 292.380357 96.267059 
L 292.702087 96.267059 
L 292.77334 94.853922 
L 292.995865 94.853922 
L 293.1037 93.440784 
L 293.510261 93.440784 
L 293.518087 92.027647 
L 293.683622 92.027647 
L 293.683622 91.321078 
L 294.189228 91.321078 
L 294.189228 90.61451 
L 294.609281 90.61451 
L 294.609281 89.907941 
L 294.869603 89.907941 
L 294.875987 88.494804 
L 295.108553 88.494804 
L 295.108553 87.788235 
L 295.299451 87.788235 
L 295.299451 87.081667 
L 295.817863 87.081667 
L 295.817863 86.375098 
L 296.295245 86.375098 
L 296.295245 85.668529 
L 296.532588 85.668529 
L 296.532588 84.961961 
L 297.157642 84.961961 
L 297.251559 83.548824 
L 297.698876 83.548824 
L 297.808634 82.135686 
L 297.903079 82.135686 
L 298.000977 80.722549 
L 298.153215 80.722549 
L 298.153215 80.01598 
L 298.387528 80.01598 
L 298.387528 79.309412 
L 298.884614 79.309412 
L 298.884614 78.602843 
L 299.291869 78.602843 
L 299.291869 77.896275 
L 299.853185 77.896275 
L 299.853185 77.189706 
L 299.972318 77.189706 
L 299.972318 76.483137 
L 300.131618 76.483137 
L 300.224343 75.07 
L 300.585108 75.07 
L 300.585108 74.363431 
L 301.43381 74.363431 
L 301.43381 73.656863 
L 301.692732 73.656863 
L 301.692732 72.950294 
L 302.757301 72.950294 
L 302.757301 72.243725 
L 303.336035 72.243725 
L 303.39054 70.830588 
L 303.58852 70.830588 
L 303.58852 70.12402 
L 303.77476 70.12402 
L 303.77476 69.417451 
L 304.094757 69.417451 
L 304.094757 68.710882 
L 304.270691 68.710882 
L 304.270691 68.004314 
L 304.455224 68.004314 
L 304.455224 67.297745 
L 305.307604 67.297745 
L 305.307604 66.591176 
L 307.310487 66.591176 
L 307.310487 65.884608 
L 307.466515 65.884608 
L 307.527853 64.471471 
L 308.883789 64.471471 
L 308.883789 63.764902 
L 309.479962 63.764902 
L 309.479962 63.058333 
L 309.597163 63.058333 
L 309.597163 62.351765 
L 309.842279 62.351765 
L 309.852597 60.938627 
L 309.956739 60.938627 
L 310.056026 59.52549 
L 310.335505 59.52549 
L 310.335505 58.818922 
L 310.599205 58.818922 
L 310.599205 58.112353 
L 311.541081 58.112353 
L 311.541081 57.405784 
L 311.686086 57.405784 
L 311.686086 56.699216 
L 312.511479 56.699216 
L 312.511479 55.992647 
L 313.120488 55.992647 
L 313.120488 55.286078 
L 313.565675 55.286078 
L 313.6161 53.872941 
L 313.712157 53.872941 
L 313.712157 53.166373 
L 313.923734 53.166373 
L 313.923734 52.459804 
L 314.084781 52.459804 
L 314.084781 51.753235 
L 314.374191 51.753235 
L 314.374191 51.046667 
L 314.633878 51.046667 
L 314.633878 50.340098 
L 315.875842 50.340098 
L 315.875842 49.633529 
L 316.242068 49.633529 
L 316.304336 48.220392 
L 316.401083 48.220392 
L 316.401083 47.513824 
L 317.914473 47.513824 
L 317.970921 46.100686 
L 318.834686 46.100686 
L 318.912797 44.687549 
L 319.059254 44.687549 
L 319.059254 43.98098 
L 319.327766 43.98098 
L 319.327766 43.274412 
L 320.215784 43.274412 
L 320.215784 42.567843 
L 321.44306 42.567843 
L 321.44306 41.861275 
L 322.055585 41.861275 
L 322.055585 41.154706 
L 323.018002 41.154706 
L 323.018002 40.448137 
L 323.394652 40.448137 
L 323.496378 39.035 
L 325.34676 39.035 
L 325.34676 38.328431 
L 326.43097 38.328431 
L 326.43097 37.621863 
L 326.667523 37.621863 
L 326.667523 36.915294 
L 327.500893 36.915294 
L 327.500893 36.208725 
L 329.386522 36.208725 
L 329.386522 35.502157 
L 329.948117 35.502157 
L 329.948117 34.795588 
L 331.192648 34.795588 
L 331.192648 34.08902 
L 334.28143 34.08902 
L 334.28143 33.382451 
L 336.075747 33.382451 
L 336.075747 32.675882 
L 337.791079 32.675882 
L 337.791079 31.969314 
L 339.490076 31.969314 
L 339.51622 30.556176 
L 340.743487 30.556176 
L 340.743487 29.849608 
L 344.253136 29.849608 
L 344.253136 29.143039 
L 346.134503 29.143039 
L 346.134503 28.436471 
L 347.620056 28.436471 
L 347.620056 27.729902 
L 349.572164 27.729902 
L 349.572164 27.023333 
L 351.106674 27.023333 
L 351.106674 26.316765 
L 354.082113 26.316765 
L 354.082113 25.610196 
L 354.387269 25.610196 
L 354.387269 24.903627 
L 354.616323 24.903627 
L 354.616323 24.197059 
L 356.034221 24.197059 
L 356.034221 23.49049 
L 356.238058 23.49049 
L 356.238058 22.783922 
L 357.896918 22.783922 
L 357.896918 22.077353 
L 364.4453 22.077353 
L 364.4453 21.370784 
L 365.879589 21.370784 
L 365.879589 20.664216 
L 366.397408 20.664216 
L 366.397408 19.957647 
L 366.821464 19.957647 
L 366.821464 19.251078 
L 367.725895 19.251078 
L 367.725895 18.54451 
L 368.575941 18.54451 
L 368.575941 17.837941 
L 369.678003 17.837941 
L 369.678003 17.131373 
L 374.339637 17.131373 
L 374.339637 16.424804 
L 382.596102 16.424804 
L 382.596102 15.718235 
L 392.654859 15.718235 
L 392.654859 15.011667 
L 394.939309 15.011667 
L 394.939309 14.305098 
L 395.881185 14.305098 
L 395.881185 13.598529 
L 402.758413 13.598529 
L 402.758413 12.891961 
L 403.399358 12.891961 
L 403.399358 12.185392 
L 408.959471 12.185392 
L 408.959471 11.478824 
L 409.901347 11.478824 
L 409.901347 10.772255 
L 417.419519 10.772255 
L 417.419519 10.065686 
L 419.018227 10.065686 
L 419.018227 9.359118 
L 419.960103 9.359118 
L 419.960103 8.652549 
L 427.478275 8.652549 
L 427.478275 7.94598 
L 429.121782 7.94598 
L 429.121782 7.239412 
L 430.063657 7.239412 
L 430.063657 6.532843 
L 437.58183 6.532843 
L 437.58183 5.826275 
L 453.192 5.826275 
L 453.192 5.826275 
" clip-path="url(#p22cfe7dbc5)" style="fill: none; stroke: #000000; stroke-width: 3; stroke-linecap: square"/>
   </g>
   <g id="line2d_40">
    <path clip-path="url(#p22cfe7dbc5)" style="fill: none; stroke: #000000; stroke-width: 3; stroke-linecap: square"/>
   </g>
   <g id="line2d_41">
    <path d="M 34.16 254.368003 
L 202.674593 254.368003 
L 202.674593 253.657884 
L 207.218912 253.657884 
L 207.218912 252.947764 
L 212.873665 252.947764 
L 212.873665 252.237645 
L 216.075031 252.237645 
L 216.075031 251.527526 
L 217.417984 251.527526 
L 217.417984 250.817407 
L 218.43799 250.817407 
L 218.43799 250.107287 
L 221.287271 250.107287 
L 221.287271 249.397168 
L 222.98231 249.397168 
L 222.98231 248.687049 
L 225.72285 248.687049 
L 225.831591 247.266811 
L 226.274103 247.266811 
L 226.274103 246.556691 
L 228.040844 246.556691 
L 228.040844 245.846572 
L 231.838428 245.846572 
L 231.838428 245.136453 
L 232.585164 245.136453 
L 232.585164 244.426334 
L 234.312942 244.426334 
L 234.312942 243.716214 
L 234.687709 243.716214 
L 234.687709 243.006095 
L 235.314423 243.006095 
L 235.314423 242.295976 
L 235.921922 242.295976 
L 235.985808 240.875738 
L 237.960711 240.875738 
L 237.960711 240.165618 
L 238.857262 240.165618 
L 238.906703 238.74538 
L 239.868444 238.74538 
L 239.868444 238.035261 
L 240.539828 238.035261 
L 240.635772 236.615022 
L 241.441283 236.615022 
L 241.486247 235.194784 
L 241.591327 235.194784 
L 241.591327 234.484664 
L 242.514731 234.484664 
L 242.514731 233.774545 
L 243.451023 233.774545 
L 243.451023 233.064426 
L 243.836915 233.064426 
L 243.836915 232.354307 
L 244.335528 232.354307 
L 244.335528 231.644188 
L 246.145347 231.644188 
L 246.145347 230.934068 
L 247.713381 230.934068 
L 247.713381 230.223949 
L 248.151043 230.223949 
L 248.151043 229.51383 
L 248.381235 229.51383 
L 248.381235 228.803711 
L 248.822427 228.803711 
L 248.822427 228.093591 
L 249.94597 228.093591 
L 249.94597 227.383472 
L 250.567713 227.383472 
L 250.567713 225.963234 
L 250.79733 225.963234 
L 250.834844 224.542995 
L 251.089101 224.542995 
L 251.089101 223.832876 
L 251.96742 223.832876 
L 252.004976 222.412638 
L 252.307142 222.412638 
L 252.324878 220.992399 
L 252.493319 220.992399 
L 252.493319 220.28228 
L 252.67636 220.28228 
L 252.67636 219.572161 
L 253.03085 219.572161 
L 253.03085 218.862042 
L 253.702234 218.862042 
L 253.702234 218.151922 
L 254.427946 218.151922 
L 254.49029 216.731684 
L 254.651263 216.731684 
L 254.651263 216.021565 
L 255.225846 216.021565 
L 255.225846 215.311445 
L 255.502157 215.311445 
L 255.502157 214.601326 
L 255.677137 214.601326 
L 255.677137 213.891207 
L 256.399169 213.891207 
L 256.399169 213.181088 
L 256.52144 213.181088 
L 256.52144 212.470969 
L 256.869198 212.470969 
L 256.869198 211.760849 
L 257.114841 211.760849 
L 257.114841 211.05073 
L 257.237354 211.05073 
L 257.237354 210.340611 
L 257.361199 210.340611 
L 257.361199 209.630492 
L 257.786225 209.630492 
L 257.786225 208.920372 
L 258.02211 208.920372 
L 258.02211 208.210253 
L 258.281879 208.210253 
L 258.298421 206.790015 
L 258.73237 206.790015 
L 258.73237 206.079896 
L 259.248451 206.079896 
L 259.307753 204.659657 
L 259.761128 204.659657 
L 259.761128 203.949538 
L 260.766785 203.949538 
L 260.766785 202.529299 
L 261.073177 202.529299 
L 261.073177 201.81918 
L 261.528635 201.81918 
L 261.528635 201.109061 
L 261.744562 201.109061 
L 261.744562 200.398942 
L 261.95496 200.398942 
L 261.95496 199.688823 
L 262.19885 199.688823 
L 262.19885 198.978703 
L 262.692391 198.978703 
L 262.692391 198.268584 
L 262.870234 198.268584 
L 262.870234 197.558465 
L 263.203377 197.558465 
L 263.203377 196.848346 
L 263.346408 196.848346 
L 263.391744 195.428107 
L 263.479687 195.428107 
L 263.479687 194.717988 
L 263.719464 194.717988 
L 263.719464 194.007869 
L 264.804039 194.007869 
L 264.845137 192.58763 
L 265.725316 192.58763 
L 265.725316 191.877511 
L 266.002024 191.877511 
L 266.002024 191.167392 
L 266.33111 191.167392 
L 266.33111 189.747153 
L 266.709901 189.747153 
L 266.709901 189.037034 
L 266.885172 189.037034 
L 266.885172 188.326915 
L 267.096142 188.326915 
L 267.096142 187.616796 
L 267.350081 187.616796 
L 267.372453 186.196557 
L 268.256717 186.196557 
L 268.256717 185.486438 
L 268.475753 185.486438 
L 268.475753 184.776319 
L 268.657973 184.776319 
L 268.657973 184.0662 
L 269.180391 184.0662 
L 269.180391 182.645961 
L 269.683846 182.645961 
L 269.683846 181.935842 
L 270.180087 181.935842 
L 270.180087 181.225723 
L 270.602666 181.225723 
L 270.602666 180.515604 
L 270.851471 180.515604 
L 270.851471 179.805484 
L 271.105998 179.805484 
L 271.105998 179.095365 
L 271.972968 179.095365 
L 271.972968 178.385246 
L 272.249279 178.385246 
L 272.274122 176.965007 
L 272.629368 176.965007 
L 272.670493 175.544769 
L 272.826374 175.544769 
L 272.826374 174.83465 
L 272.994227 174.83465 
L 272.994227 174.12453 
L 273.767837 174.12453 
L 273.767837 173.414411 
L 273.918116 173.414411 
L 273.918116 172.704292 
L 274.272819 172.704292 
L 274.272819 171.994173 
L 274.647936 171.994173 
L 274.647936 171.284054 
L 274.924247 171.284054 
L 274.924247 170.573934 
L 275.373135 170.573934 
L 275.479492 169.153696 
L 275.933965 169.153696 
L 275.933965 167.733457 
L 276.45699 167.733457 
L 276.45699 167.023338 
L 276.867883 167.023338 
L 276.867883 166.313219 
L 277.224514 166.313219 
L 277.224514 165.6031 
L 277.726174 165.6031 
L 277.726174 164.892981 
L 277.859571 164.892981 
L 277.859571 164.182861 
L 278.15446 164.182861 
L 278.15446 163.472742 
L 278.472136 163.472742 
L 278.472136 162.762623 
L 278.851847 162.762623 
L 278.851847 162.052504 
L 281.56353 162.052504 
L 281.56353 161.342384 
L 281.798095 161.342384 
L 281.798095 160.632265 
L 282.166876 160.632265 
L 282.206063 158.501908 
L 282.443187 158.501908 
L 282.443187 157.791788 
L 282.82844 157.791788 
L 282.82844 157.081669 
L 283.536004 157.081669 
L 283.536004 156.37155 
L 284.101359 156.37155 
L 284.131669 154.951311 
L 284.37767 154.951311 
L 284.471891 153.531073 
L 285.507113 153.531073 
L 285.507113 152.820954 
L 285.6734 152.820954 
L 285.6734 152.110835 
L 286.367775 152.110835 
L 286.367775 151.400715 
L 286.754735 151.400715 
L 286.833083 148.560238 
L 287.45946 148.560238 
L 287.45946 147.14 
L 287.607883 147.14 
L 287.607883 146.429881 
L 287.8676 146.429881 
L 287.90715 145.009642 
L 288.392765 145.009642 
L 288.392765 144.299523 
L 288.72543 144.299523 
L 288.72543 143.589404 
L 289.16404 143.589404 
L 289.16404 142.879285 
L 289.361046 142.879285 
L 289.361046 142.169165 
L 290.036216 142.169165 
L 290.036216 141.459046 
L 290.286058 141.459046 
L 290.38692 140.038808 
L 290.608668 140.038808 
L 290.608668 139.328689 
L 291.242047 139.328689 
L 291.242047 138.618569 
L 291.568519 138.618569 
L 291.634542 137.198331 
L 291.730036 137.198331 
L 291.730036 135.778092 
L 292.049557 135.778092 
L 292.049557 135.067973 
L 292.278181 135.067973 
L 292.278181 134.357854 
L 292.885498 134.357854 
L 292.885498 133.647735 
L 293.214853 133.647735 
L 293.214853 132.937616 
L 293.540994 132.937616 
L 293.540994 132.227496 
L 293.655642 132.227496 
L 293.655642 131.517377 
L 293.854378 131.517377 
L 293.854378 130.807258 
L 294.345306 130.807258 
L 294.345306 130.097139 
L 294.470911 130.097139 
L 294.470911 129.387019 
L 294.845822 129.387019 
L 294.845822 128.6769 
L 295.638105 128.6769 
L 295.718533 127.256662 
L 295.941301 127.256662 
L 296.033804 125.126304 
L 297.464449 125.126304 
L 297.464449 123.706066 
L 297.768873 123.706066 
L 297.87259 120.15547 
L 297.99562 120.15547 
L 297.99562 119.44535 
L 298.238072 119.44535 
L 298.238072 118.735231 
L 298.408398 118.735231 
L 298.43437 116.604873 
L 298.737566 116.604873 
L 298.737566 115.894754 
L 299.55492 115.894754 
L 299.639071 114.474516 
L 299.67687 114.474516 
L 299.764697 113.054277 
L 299.828579 113.054277 
L 299.828579 112.344158 
L 300.027088 112.344158 
L 300.027088 111.634039 
L 300.217998 111.634039 
L 300.217998 110.2138 
L 300.802542 110.2138 
L 300.802542 109.503681 
L 302.143605 109.503681 
L 302.143605 108.793562 
L 302.283171 108.793562 
L 302.283171 108.083443 
L 303.114898 108.083443 
L 303.114898 107.373323 
L 303.615636 107.373323 
L 303.615636 106.663204 
L 303.752034 106.663204 
L 303.752034 105.242966 
L 303.918832 105.242966 
L 303.919854 103.822727 
L 304.160175 103.822727 
L 304.267718 102.402489 
L 305.789866 102.402489 
L 305.789866 101.69237 
L 305.911169 101.69237 
L 305.972804 100.272131 
L 306.038794 100.272131 
L 306.051472 98.851893 
L 306.690997 98.851893 
L 306.690997 98.141774 
L 307.508402 98.141774 
L 307.536157 96.721535 
L 307.811597 96.721535 
L 307.811597 96.011416 
L 308.570756 96.011416 
L 308.570756 95.301297 
L 308.783779 95.301297 
L 308.861479 93.170939 
L 309.721794 93.170939 
L 309.721794 92.46082 
L 309.905406 92.46082 
L 309.905406 91.750701 
L 310.50493 91.750701 
L 310.54493 90.330462 
L 310.931279 90.330462 
L 310.931279 89.620343 
L 311.471647 89.620343 
L 311.570804 88.200104 
L 312.260389 88.200104 
L 312.326379 86.779866 
L 312.385227 86.779866 
L 312.385227 86.069747 
L 312.620719 86.069747 
L 312.688423 84.649508 
L 313.220682 84.649508 
L 313.308806 83.22927 
L 313.791691 83.22927 
L 313.791691 82.519151 
L 314.275814 82.519151 
L 314.275814 81.809031 
L 314.593193 81.809031 
L 314.593193 81.098912 
L 315.01527 81.098912 
L 315.060195 79.678674 
L 315.193156 79.678674 
L 315.243289 78.258435 
L 315.363391 78.258435 
L 315.435142 76.838197 
L 315.654795 76.838197 
L 315.654795 76.128078 
L 315.94615 76.128078 
L 315.94615 75.417958 
L 318.516648 75.417958 
L 318.516648 73.99772 
L 318.742414 73.99772 
L 318.742414 73.287601 
L 318.924789 73.287601 
L 318.990587 71.157243 
L 319.116611 71.157243 
L 319.116611 69.737005 
L 319.524752 69.737005 
L 319.613132 68.316766 
L 319.900746 68.316766 
L 319.900746 67.606647 
L 320.09928 67.606647 
L 320.09928 66.896528 
L 320.738804 66.896528 
L 320.738804 66.186409 
L 320.925071 66.186409 
L 320.925071 65.476289 
L 321.544197 65.476289 
L 321.544197 64.76617 
L 322.279654 64.76617 
L 322.279654 64.056051 
L 322.558414 64.056051 
L 322.579136 62.635812 
L 322.882331 62.635812 
L 322.882331 61.925693 
L 323.33537 61.925693 
L 323.33537 61.215574 
L 323.923104 61.215574 
L 323.935333 59.085216 
L 324.513619 59.085216 
L 324.513619 58.375097 
L 324.816814 58.375097 
L 324.816814 57.664978 
L 326.412347 57.664978 
L 326.412347 56.954859 
L 327.025003 56.954859 
L 327.090993 55.53462 
L 327.438221 55.53462 
L 327.438221 54.824501 
L 327.624966 54.824501 
L 327.690956 53.404262 
L 327.816446 53.404262 
L 327.816446 52.694143 
L 328.080516 52.694143 
L 328.080516 51.984024 
L 328.720041 51.984024 
L 328.720041 51.273905 
L 329.108871 51.273905 
L 329.108871 50.563786 
L 331.081345 50.563786 
L 331.081345 49.853666 
L 331.522212 49.853666 
L 331.522212 49.143547 
L 332.693272 49.143547 
L 332.693272 48.433428 
L 334.295542 48.433428 
L 334.295542 47.723309 
L 335.0048 47.723309 
L 335.0048 46.30307 
L 335.36824 46.30307 
L 335.412941 44.882832 
L 335.480548 44.882832 
L 335.480548 44.172713 
L 336.268016 44.172713 
L 336.268016 43.462593 
L 336.606221 43.462593 
L 336.606221 42.752474 
L 337.41562 42.752474 
L 337.41562 42.042355 
L 338.057269 42.042355 
L 338.057269 41.332236 
L 339.823522 41.332236 
L 339.823522 40.622116 
L 340.029743 40.622116 
L 340.029743 39.911997 
L 340.191472 39.911997 
L 340.211885 37.78164 
L 340.599613 37.78164 
L 340.599613 37.07152 
L 342.343632 37.07152 
L 342.343632 36.361401 
L 342.88718 36.361401 
L 342.88718 35.651282 
L 343.513155 35.651282 
L 343.579145 34.231043 
L 343.953199 34.231043 
L 343.953199 32.810805 
L 344.316106 32.810805 
L 344.36134 31.390567 
L 344.587458 31.390567 
L 344.587458 30.680447 
L 344.821663 30.680447 
L 344.821663 29.970328 
L 345.010193 29.970328 
L 345.010193 29.260209 
L 345.393151 29.260209 
L 345.393151 28.55009 
L 348.239562 28.55009 
L 348.239562 27.129851 
L 348.647703 27.129851 
L 348.699826 25.709613 
L 348.765817 25.709613 
L 348.77192 24.289374 
L 349.285916 24.289374 
L 349.285916 23.579255 
L 352.461553 23.579255 
L 352.527543 22.159017 
L 353.058283 22.159017 
L 353.058283 21.448897 
L 354.162742 21.448897 
L 354.162742 20.738778 
L 356.747916 20.738778 
L 356.83771 18.608421 
L 364.35665 18.608421 
L 364.35665 17.898301 
L 366.291133 17.898301 
L 366.291133 17.188182 
L 401.644523 17.188182 
L 401.644523 16.478063 
L 404.440788 16.478063 
L 404.440788 15.767944 
L 409.622054 15.767944 
L 409.622054 15.057824 
L 413.51482 15.057824 
L 413.51482 14.347705 
L 418.391645 14.347705 
L 418.391645 13.637586 
L 421.066613 13.637586 
L 421.066613 12.927467 
L 428.585553 12.927467 
L 428.585553 12.217348 
L 430.520037 12.217348 
L 430.520037 11.507228 
L 453.192 11.507228 
L 453.192 11.507228 
" clip-path="url(#p22cfe7dbc5)" style="fill: none; stroke: #00bfbf; stroke-width: 3; stroke-linecap: square"/>
   </g>
   <g id="line2d_42">
    <path clip-path="url(#p22cfe7dbc5)" style="fill: none; stroke: #00bfbf; stroke-width: 3; stroke-linecap: square"/>
   </g>
   <g id="line2d_43">
    <path d="M 34.16 128.707775 
L 295.489734 128.707775 
L 295.489734 122.5637 
L 299.997893 122.5637 
L 299.997893 116.419625 
L 318.679414 116.419625 
L 318.679414 110.27555 
L 323.187573 110.27555 
L 323.187573 104.131475 
L 453.192 104.131475 
" clip-path="url(#p22cfe7dbc5)" style="fill: none; stroke: #bf00bf; stroke-width: 3; stroke-linecap: square"/>
   </g>
   <g id="line2d_44">
    <path clip-path="url(#p22cfe7dbc5)" style="fill: none; stroke: #bf00bf; stroke-width: 3; stroke-linecap: square"/>
   </g>
   <g id="line2d_45"/>
   <g id="line2d_46"/>
   <g id="line2d_47">
    <path d="M 243.676 291.28 
L 243.676 3 
" clip-path="url(#p22cfe7dbc5)" style="fill: none; stroke: #000000; stroke-width: 1.5; stroke-linecap: square"/>
   </g>
   <g id="line2d_48">
    <path d="M 34.16 147.14 
L 453.192 147.14 
" clip-path="url(#p22cfe7dbc5)" style="fill: none; stroke-dasharray: 2,3.3; stroke-dashoffset: 0; stroke: #000000; stroke-width: 2"/>
   </g>
   <g id="patch_3">
    <path d="M 34.16 291.28 
L 34.16 3 
" style="fill: none; stroke: #000000; stroke-width: 0.8; stroke-linejoin: miter; stroke-linecap: square"/>
   </g>
   <g id="patch_4">
    <path d="M 453.192 291.28 
L 453.192 3 
" style="fill: none; stroke: #000000; stroke-width: 0.8; stroke-linejoin: miter; stroke-linecap: square"/>
   </g>
   <g id="patch_5">
    <path d="M 34.16 291.28 
L 453.192 291.28 
" style="fill: none; stroke: #000000; stroke-width: 0.8; stroke-linejoin: miter; stroke-linecap: square"/>
   </g>
   <g id="patch_6">
    <path d="M 34.16 3 
L 453.192 3 
" style="fill: none; stroke: #000000; stroke-width: 0.8; stroke-linejoin: miter; stroke-linecap: square"/>
   </g>
   <g id="text_6">
    <!-- f5, f6, f14, f15,5-D -->
    <g transform="translate(260.464485 285.5144) scale(0.2 -0.2)">
     <defs>
      <path id="DejaVuSans-35" d="M 691 4666 
L 3169 4666 
L 3169 4134 
L 1269 4134 
L 1269 2991 
Q 1406 3038 1543 3061 
Q 1681 3084 1819 3084 
Q 2600 3084 3056 2656 
Q 3513 2228 3513 1497 
Q 3513 744 3044 326 
Q 2575 -91 1722 -91 
Q 1428 -91 1123 -41 
Q 819 9 494 109 
L 494 744 
Q 775 591 1075 516 
Q 1375 441 1709 441 
Q 2250 441 2565 725 
Q 2881 1009 2881 1497 
Q 2881 1984 2565 2268 
Q 2250 2553 1709 2553 
Q 1456 2553 1204 2497 
Q 953 2441 691 2322 
L 691 4666 
z
" transform="scale(0.015625)"/>
      <path id="DejaVuSans-2c" d="M 750 794 
L 1409 794 
L 1409 256 
L 897 -744 
L 494 -744 
L 750 256 
L 750 794 
z
" transform="scale(0.015625)"/>
      <path id="DejaVuSans-36" d="M 2113 2584 
Q 1688 2584 1439 2293 
Q 1191 2003 1191 1497 
Q 1191 994 1439 701 
Q 1688 409 2113 409 
Q 2538 409 2786 701 
Q 3034 994 3034 1497 
Q 3034 2003 2786 2293 
Q 2538 2584 2113 2584 
z
M 3366 4563 
L 3366 3988 
Q 3128 4100 2886 4159 
Q 2644 4219 2406 4219 
Q 1781 4219 1451 3797 
Q 1122 3375 1075 2522 
Q 1259 2794 1537 2939 
Q 1816 3084 2150 3084 
Q 2853 3084 3261 2657 
Q 3669 2231 3669 1497 
Q 3669 778 3244 343 
Q 2819 -91 2113 -91 
Q 1303 -91 875 529 
Q 447 1150 447 2328 
Q 447 3434 972 4092 
Q 1497 4750 2381 4750 
Q 2619 4750 2861 4703 
Q 3103 4656 3366 4563 
z
" transform="scale(0.015625)"/>
      <path id="DejaVuSans-34" d="M 2419 4116 
L 825 1625 
L 2419 1625 
L 2419 4116 
z
M 2253 4666 
L 3047 4666 
L 3047 1625 
L 3713 1625 
L 3713 1100 
L 3047 1100 
L 3047 0 
L 2419 0 
L 2419 1100 
L 313 1100 
L 313 1709 
L 2253 4666 
z
" transform="scale(0.015625)"/>
      <path id="DejaVuSans-44" d="M 1259 4147 
L 1259 519 
L 2022 519 
Q 2988 519 3436 956 
Q 3884 1394 3884 2338 
Q 3884 3275 3436 3711 
Q 2988 4147 2022 4147 
L 1259 4147 
z
M 628 4666 
L 1925 4666 
Q 3281 4666 3915 4102 
Q 4550 3538 4550 2338 
Q 4550 1131 3912 565 
Q 3275 0 1925 0 
L 628 0 
L 628 4666 
z
" transform="scale(0.015625)"/>
     </defs>
     <use xlink:href="#DejaVuSans-66"/>
     <use xlink:href="#DejaVuSans-35" x="35.205078"/>
     <use xlink:href="#DejaVuSans-2c" x="98.828125"/>
     <use xlink:href="#DejaVuSans-20" x="130.615234"/>
     <use xlink:href="#DejaVuSans-66" x="162.402344"/>
     <use xlink:href="#DejaVuSans-36" x="197.607422"/>
     <use xlink:href="#DejaVuSans-2c" x="261.230469"/>
     <use xlink:href="#DejaVuSans-20" x="293.017578"/>
     <use xlink:href="#DejaVuSans-66" x="324.804688"/>
     <use xlink:href="#DejaVuSans-31" x="360.009766"/>
     <use xlink:href="#DejaVuSans-34" x="423.632812"/>
     <use xlink:href="#DejaVuSans-2c" x="487.255859"/>
     <use xlink:href="#DejaVuSans-20" x="519.042969"/>
     <use xlink:href="#DejaVuSans-66" x="550.830078"/>
     <use xlink:href="#DejaVuSans-31" x="586.035156"/>
     <use xlink:href="#DejaVuSans-35" x="649.658203"/>
     <use xlink:href="#DejaVuSans-2c" x="713.28125"/>
     <use xlink:href="#DejaVuSans-35" x="745.068359"/>
     <use xlink:href="#DejaVuSans-2d" x="808.691406"/>
     <use xlink:href="#DejaVuSans-44" x="844.775391"/>
    </g>
   </g>
   <g id="text_7">
    <!-- v2.6.1.152, hv-hash=ff0e71e8cd978373 -->
    <g style="fill: #808080" transform="translate(142.277562 286.317512) scale(0.1 -0.1)">
     <defs>
      <path id="DejaVuSans-32" d="M 1228 531 
L 3431 531 
L 3431 0 
L 469 0 
L 469 531 
Q 828 903 1448 1529 
Q 2069 2156 2228 2338 
Q 2531 2678 2651 2914 
Q 2772 3150 2772 3378 
Q 2772 3750 2511 3984 
Q 2250 4219 1831 4219 
Q 1534 4219 1204 4116 
Q 875 4013 500 3803 
L 500 4441 
Q 881 4594 1212 4672 
Q 1544 4750 1819 4750 
Q 2544 4750 2975 4387 
Q 3406 4025 3406 3419 
Q 3406 3131 3298 2873 
Q 3191 2616 2906 2266 
Q 2828 2175 2409 1742 
Q 1991 1309 1228 531 
z
" transform="scale(0.015625)"/>
      <path id="DejaVuSans-2e" d="M 684 794 
L 1344 794 
L 1344 0 
L 684 0 
L 684 794 
z
" transform="scale(0.015625)"/>
      <path id="DejaVuSans-68" d="M 3513 2113 
L 3513 0 
L 2938 0 
L 2938 2094 
Q 2938 2591 2744 2837 
Q 2550 3084 2163 3084 
Q 1697 3084 1428 2787 
Q 1159 2491 1159 1978 
L 1159 0 
L 581 0 
L 581 4863 
L 1159 4863 
L 1159 2956 
Q 1366 3272 1645 3428 
Q 1925 3584 2291 3584 
Q 2894 3584 3203 3211 
Q 3513 2838 3513 2113 
z
" transform="scale(0.015625)"/>
      <path id="DejaVuSans-3d" d="M 678 2906 
L 4684 2906 
L 4684 2381 
L 678 2381 
L 678 2906 
z
M 678 1631 
L 4684 1631 
L 4684 1100 
L 678 1100 
L 678 1631 
z
" transform="scale(0.015625)"/>
      <path id="DejaVuSans-65" d="M 3597 1894 
L 3597 1613 
L 953 1613 
Q 991 1019 1311 708 
Q 1631 397 2203 397 
Q 2534 397 2845 478 
Q 3156 559 3463 722 
L 3463 178 
Q 3153 47 2828 -22 
Q 2503 -91 2169 -91 
Q 1331 -91 842 396 
Q 353 884 353 1716 
Q 353 2575 817 3079 
Q 1281 3584 2069 3584 
Q 2775 3584 3186 3129 
Q 3597 2675 3597 1894 
z
M 3022 2063 
Q 3016 2534 2758 2815 
Q 2500 3097 2075 3097 
Q 1594 3097 1305 2825 
Q 1016 2553 972 2059 
L 3022 2063 
z
" transform="scale(0.015625)"/>
      <path id="DejaVuSans-37" d="M 525 4666 
L 3525 4666 
L 3525 4397 
L 1831 0 
L 1172 0 
L 2766 4134 
L 525 4134 
L 525 4666 
z
" transform="scale(0.015625)"/>
      <path id="DejaVuSans-38" d="M 2034 2216 
Q 1584 2216 1326 1975 
Q 1069 1734 1069 1313 
Q 1069 891 1326 650 
Q 1584 409 2034 409 
Q 2484 409 2743 651 
Q 3003 894 3003 1313 
Q 3003 1734 2745 1975 
Q 2488 2216 2034 2216 
z
M 1403 2484 
Q 997 2584 770 2862 
Q 544 3141 544 3541 
Q 544 4100 942 4425 
Q 1341 4750 2034 4750 
Q 2731 4750 3128 4425 
Q 3525 4100 3525 3541 
Q 3525 3141 3298 2862 
Q 3072 2584 2669 2484 
Q 3125 2378 3379 2068 
Q 3634 1759 3634 1313 
Q 3634 634 3220 271 
Q 2806 -91 2034 -91 
Q 1263 -91 848 271 
Q 434 634 434 1313 
Q 434 1759 690 2068 
Q 947 2378 1403 2484 
z
M 1172 3481 
Q 1172 3119 1398 2916 
Q 1625 2713 2034 2713 
Q 2441 2713 2670 2916 
Q 2900 3119 2900 3481 
Q 2900 3844 2670 4047 
Q 2441 4250 2034 4250 
Q 1625 4250 1398 4047 
Q 1172 3844 1172 3481 
z
" transform="scale(0.015625)"/>
      <path id="DejaVuSans-63" d="M 3122 3366 
L 3122 2828 
Q 2878 2963 2633 3030 
Q 2388 3097 2138 3097 
Q 1578 3097 1268 2742 
Q 959 2388 959 1747 
Q 959 1106 1268 751 
Q 1578 397 2138 397 
Q 2388 397 2633 464 
Q 2878 531 3122 666 
L 3122 134 
Q 2881 22 2623 -34 
Q 2366 -91 2075 -91 
Q 1284 -91 818 406 
Q 353 903 353 1747 
Q 353 2603 823 3093 
Q 1294 3584 2113 3584 
Q 2378 3584 2631 3529 
Q 2884 3475 3122 3366 
z
" transform="scale(0.015625)"/>
      <path id="DejaVuSans-64" d="M 2906 2969 
L 2906 4863 
L 3481 4863 
L 3481 0 
L 2906 0 
L 2906 525 
Q 2725 213 2448 61 
Q 2172 -91 1784 -91 
Q 1150 -91 751 415 
Q 353 922 353 1747 
Q 353 2572 751 3078 
Q 1150 3584 1784 3584 
Q 2172 3584 2448 3432 
Q 2725 3281 2906 2969 
z
M 947 1747 
Q 947 1113 1208 752 
Q 1469 391 1925 391 
Q 2381 391 2643 752 
Q 2906 1113 2906 1747 
Q 2906 2381 2643 2742 
Q 2381 3103 1925 3103 
Q 1469 3103 1208 2742 
Q 947 2381 947 1747 
z
" transform="scale(0.015625)"/>
      <path id="DejaVuSans-39" d="M 703 97 
L 703 672 
Q 941 559 1184 500 
Q 1428 441 1663 441 
Q 2288 441 2617 861 
Q 2947 1281 2994 2138 
Q 2813 1869 2534 1725 
Q 2256 1581 1919 1581 
Q 1219 1581 811 2004 
Q 403 2428 403 3163 
Q 403 3881 828 4315 
Q 1253 4750 1959 4750 
Q 2769 4750 3195 4129 
Q 3622 3509 3622 2328 
Q 3622 1225 3098 567 
Q 2575 -91 1691 -91 
Q 1453 -91 1209 -44 
Q 966 3 703 97 
z
M 1959 2075 
Q 2384 2075 2632 2365 
Q 2881 2656 2881 3163 
Q 2881 3666 2632 3958 
Q 2384 4250 1959 4250 
Q 1534 4250 1286 3958 
Q 1038 3666 1038 3163 
Q 1038 2656 1286 2365 
Q 1534 2075 1959 2075 
z
" transform="scale(0.015625)"/>
      <path id="DejaVuSans-33" d="M 2597 2516 
Q 3050 2419 3304 2112 
Q 3559 1806 3559 1356 
Q 3559 666 3084 287 
Q 2609 -91 1734 -91 
Q 1441 -91 1130 -33 
Q 819 25 488 141 
L 488 750 
Q 750 597 1062 519 
Q 1375 441 1716 441 
Q 2309 441 2620 675 
Q 2931 909 2931 1356 
Q 2931 1769 2642 2001 
Q 2353 2234 1838 2234 
L 1294 2234 
L 1294 2753 
L 1863 2753 
Q 2328 2753 2575 2939 
Q 2822 3125 2822 3475 
Q 2822 3834 2567 4026 
Q 2313 4219 1838 4219 
Q 1578 4219 1281 4162 
Q 984 4106 628 3988 
L 628 4550 
Q 988 4650 1302 4700 
Q 1616 4750 1894 4750 
Q 2613 4750 3031 4423 
Q 3450 4097 3450 3541 
Q 3450 3153 3228 2886 
Q 3006 2619 2597 2516 
z
" transform="scale(0.015625)"/>
     </defs>
     <use xlink:href="#DejaVuSans-76"/>
     <use xlink:href="#DejaVuSans-32" x="59.179688"/>
     <use xlink:href="#DejaVuSans-2e" x="122.802734"/>
     <use xlink:href="#DejaVuSans-36" x="154.589844"/>
     <use xlink:href="#DejaVuSans-2e" x="218.212891"/>
     <use xlink:href="#DejaVuSans-31" x="250"/>
     <use xlink:href="#DejaVuSans-2e" x="313.623047"/>
     <use xlink:href="#DejaVuSans-31" x="345.410156"/>
     <use xlink:href="#DejaVuSans-35" x="409.033203"/>
     <use xlink:href="#DejaVuSans-32" x="472.65625"/>
     <use xlink:href="#DejaVuSans-2c" x="536.279297"/>
     <use xlink:href="#DejaVuSans-20" x="568.066406"/>
     <use xlink:href="#DejaVuSans-68" x="599.853516"/>
     <use xlink:href="#DejaVuSans-76" x="663.232422"/>
     <use xlink:href="#DejaVuSans-2d" x="719.787109"/>
     <use xlink:href="#DejaVuSans-68" x="755.871094"/>
     <use xlink:href="#DejaVuSans-61" x="819.25"/>
     <use xlink:href="#DejaVuSans-73" x="880.529297"/>
     <use xlink:href="#DejaVuSans-68" x="932.628906"/>
     <use xlink:href="#DejaVuSans-3d" x="996.007812"/>
     <use xlink:href="#DejaVuSans-66" x="1079.796875"/>
     <use xlink:href="#DejaVuSans-66" x="1115.001953"/>
     <use xlink:href="#DejaVuSans-30" x="1150.207031"/>
     <use xlink:href="#DejaVuSans-65" x="1213.830078"/>
     <use xlink:href="#DejaVuSans-37" x="1275.353516"/>
     <use xlink:href="#DejaVuSans-31" x="1338.976562"/>
     <use xlink:href="#DejaVuSans-65" x="1402.599609"/>
     <use xlink:href="#DejaVuSans-38" x="1464.123047"/>
     <use xlink:href="#DejaVuSans-63" x="1527.746094"/>
     <use xlink:href="#DejaVuSans-64" x="1582.726562"/>
     <use xlink:href="#DejaVuSans-39" x="1646.203125"/>
     <use xlink:href="#DejaVuSans-37" x="1709.826172"/>
     <use xlink:href="#DejaVuSans-38" x="1773.449219"/>
     <use xlink:href="#DejaVuSans-33" x="1837.072266"/>
     <use xlink:href="#DejaVuSans-37" x="1900.695312"/>
     <use xlink:href="#DejaVuSans-33" x="1964.318359"/>
    </g>
   </g>
   <g id="legend_1">
    <g id="patch_7">
     <path d="M 309.970125 281.28 
L 439.192 281.28 
Q 443.192 281.28 443.192 277.28 
L 443.192 132.49875 
Q 443.192 128.49875 439.192 128.49875 
L 309.970125 128.49875 
Q 305.970125 128.49875 305.970125 132.49875 
L 305.970125 277.28 
Q 305.970125 281.28 309.970125 281.28 
z
" style="fill: #ffffff; opacity: 0.2; stroke: #cccccc; stroke-linejoin: miter"/>
    </g>
    <g id="line2d_49">
     <path d="M 313.970125 144.695625 
L 333.970125 144.695625 
L 353.970125 144.695625 
" style="fill: none; stroke: #000000; stroke-width: 3; stroke-linecap: square"/>
    </g>
    <g id="text_8">
     <!-- -1: 4/4 -->
     <g transform="translate(369.970125 151.695625) scale(0.2 -0.2)">
      <defs>
       <path id="DejaVuSans-3a" d="M 750 794 
L 1409 794 
L 1409 0 
L 750 0 
L 750 794 
z
M 750 3309 
L 1409 3309 
L 1409 2516 
L 750 2516 
L 750 3309 
z
" transform="scale(0.015625)"/>
       <path id="DejaVuSans-2f" d="M 1625 4666 
L 2156 4666 
L 531 -594 
L 0 -594 
L 1625 4666 
z
" transform="scale(0.015625)"/>
      </defs>
      <use xlink:href="#DejaVuSans-2d"/>
      <use xlink:href="#DejaVuSans-31" x="36.083984"/>
      <use xlink:href="#DejaVuSans-3a" x="99.707031"/>
      <use xlink:href="#DejaVuSans-20" x="133.398438"/>
      <use xlink:href="#DejaVuSans-34" x="165.185547"/>
      <use xlink:href="#DejaVuSans-2f" x="228.808594"/>
      <use xlink:href="#DejaVuSans-34" x="262.5"/>
     </g>
    </g>
    <g id="line2d_50">
     <path d="M 313.970125 174.051875 
L 333.970125 174.051875 
L 353.970125 174.051875 
" style="fill: none; stroke: #00bfbf; stroke-width: 3; stroke-linecap: square"/>
    </g>
    <g id="text_9">
     <!-- -2: 4/4 -->
     <g transform="translate(369.970125 181.051875) scale(0.2 -0.2)">
      <use xlink:href="#DejaVuSans-2d"/>
      <use xlink:href="#DejaVuSans-32" x="36.083984"/>
      <use xlink:href="#DejaVuSans-3a" x="99.707031"/>
      <use xlink:href="#DejaVuSans-20" x="133.398438"/>
      <use xlink:href="#DejaVuSans-34" x="165.185547"/>
      <use xlink:href="#DejaVuSans-2f" x="228.808594"/>
      <use xlink:href="#DejaVuSans-34" x="262.5"/>
     </g>
    </g>
    <g id="line2d_51">
     <path d="M 313.970125 203.408125 
L 333.970125 203.408125 
L 353.970125 203.408125 
" style="fill: none; stroke: #bf00bf; stroke-width: 3; stroke-linecap: square"/>
    </g>
    <g id="text_10">
     <!-- -3: 2/1 -->
     <g transform="translate(369.970125 210.408125) scale(0.2 -0.2)">
      <use xlink:href="#DejaVuSans-2d"/>
      <use xlink:href="#DejaVuSans-33" x="36.083984"/>
      <use xlink:href="#DejaVuSans-3a" x="99.707031"/>
      <use xlink:href="#DejaVuSans-20" x="133.398438"/>
      <use xlink:href="#DejaVuSans-32" x="165.185547"/>
      <use xlink:href="#DejaVuSans-2f" x="228.808594"/>
      <use xlink:href="#DejaVuSans-31" x="262.5"/>
     </g>
    </g>
    <g id="line2d_52">
     <path d="M 313.970125 232.764375 
L 333.970125 232.764375 
L 353.970125 232.764375 
" style="fill: none; stroke: #ff0000; stroke-width: 3; stroke-linecap: square"/>
    </g>
    <g id="text_11">
     <!-- -4: 0/0 -->
     <g transform="translate(369.970125 239.764375) scale(0.2 -0.2)">
      <use xlink:href="#DejaVuSans-2d"/>
      <use xlink:href="#DejaVuSans-34" x="36.083984"/>
      <use xlink:href="#DejaVuSans-3a" x="99.707031"/>
      <use xlink:href="#DejaVuSans-20" x="133.398438"/>
      <use xlink:href="#DejaVuSans-30" x="165.185547"/>
      <use xlink:href="#DejaVuSans-2f" x="228.808594"/>
      <use xlink:href="#DejaVuSans-30" x="262.5"/>
     </g>
    </g>
    <g id="line2d_53">
     <path d="M 313.970125 262.120625 
L 333.970125 262.120625 
L 353.970125 262.120625 
" style="fill: none; stroke: #0000ff; stroke-width: 3; stroke-linecap: square"/>
    </g>
    <g id="text_12">
     <!-- -5: 0/0 -->
     <g transform="translate(369.970125 269.120625) scale(0.2 -0.2)">
      <use xlink:href="#DejaVuSans-2d"/>
      <use xlink:href="#DejaVuSans-35" x="36.083984"/>
      <use xlink:href="#DejaVuSans-3a" x="99.707031"/>
      <use xlink:href="#DejaVuSans-20" x="133.398438"/>
      <use xlink:href="#DejaVuSans-30" x="165.185547"/>
      <use xlink:href="#DejaVuSans-2f" x="228.808594"/>
      <use xlink:href="#DejaVuSans-30" x="262.5"/>
     </g>
    </g>
   </g>
  </g>
 </g>
 <defs>
  <clipPath id="p22cfe7dbc5">
   <rect x="34.16" y="3" width="419.032" height="288.28"/>
  </clipPath>
 </defs>
</svg>
