<?xml version="1.0" encoding="utf-8" standalone="no"?>
<!DOCTYPE svg PUBLIC "-//W3C//DTD SVG 1.1//EN"
  "http://www.w3.org/Graphics/SVG/1.1/DTD/svg11.dtd">
<svg xmlns:xlink="http://www.w3.org/1999/xlink" width="460.8pt" height="345.6pt" viewBox="0 0 460.8 345.6" xmlns="http://www.w3.org/2000/svg" version="1.1">
 <metadata>
  <rdf:RDF xmlns:dc="http://purl.org/dc/elements/1.1/" xmlns:cc="http://creativecommons.org/ns#" xmlns:rdf="http://www.w3.org/1999/02/22-rdf-syntax-ns#">
   <cc:Work>
    <dc:type rdf:resource="http://purl.org/dc/dcmitype/StillImage"/>
    <dc:date>2023-02-10T14:00:53.298129</dc:date>
    <dc:format>image/svg+xml</dc:format>
    <dc:creator>
     <cc:Agent>
      <dc:title>Matplotlib v3.6.3, https://matplotlib.org/</dc:title>
     </cc:Agent>
    </dc:creator>
   </cc:Work>
  </rdf:RDF>
 </metadata>
 <defs>
  <style type="text/css">*{stroke-linejoin: round; stroke-linecap: butt}</style>
 </defs>
 <g id="figure_1">
  <g id="patch_1">
   <path d="M 0 345.6 
L 460.8 345.6 
L 460.8 0 
L 0 0 
z
" style="fill: #ffffff"/>
  </g>
  <g id="axes_1">
   <g id="patch_2">
    <path d="M 57.6 298.944 
L 360.8064 298.944 
L 360.8064 6.912 
L 57.6 6.912 
z
" style="fill: #ffffff"/>
   </g>
   <g id="line2d_1">
    <path d="M 63.011746 298.944 
L 63.011746 297.685241 
L 70.639174 297.685241 
L 70.639174 295.167724 
L 76.050921 295.167724 
L 76.050921 293.908966 
L 82.04153 293.908966 
L 82.04153 292.650207 
L 86.578163 292.650207 
L 86.578163 290.13269 
L 89.090095 290.13269 
L 89.090095 287.615172 
L 91.305777 287.615172 
L 91.305777 285.097655 
L 95.080704 285.097655 
L 95.080704 283.838897 
L 97.485448 283.838897 
L 97.485448 281.321379 
L 100.9152 281.321379 
L 100.9152 278.803862 
L 102.708132 278.803862 
L 102.708132 277.545103 
L 103.815014 277.545103 
L 103.815014 275.027586 
L 114.872193 275.027586 
L 114.872193 273.768828 
L 122.598891 273.768828 
L 122.598891 271.25131 
L 125.862901 271.25131 
L 125.862901 267.475034 
L 132.869802 267.475034 
L 132.869802 266.216276 
L 139.232111 266.216276 
L 139.232111 264.957517 
L 143.133017 264.957517 
L 143.133017 261.181241 
L 149.875833 261.181241 
L 149.875833 257.404966 
L 153.612719 257.404966 
L 153.612719 253.62869 
L 155.735085 253.62869 
L 155.735085 251.111172 
L 156.88953 251.111172 
L 156.88953 248.593655 
L 159.457367 248.593655 
L 159.457367 246.076138 
L 160.777545 246.076138 
L 160.777545 244.817379 
L 161.617145 244.817379 
L 161.617145 243.558621 
L 163.509347 243.558621 
L 163.509347 241.041103 
L 168.396298 241.041103 
L 168.396298 239.782345 
L 168.876036 239.782345 
L 168.876036 237.264828 
L 170.665892 237.264828 
L 170.665892 234.74731 
L 172.229507 234.74731 
L 172.314244 230.971034 
L 173.154738 230.971034 
L 173.154738 228.453517 
L 176.526006 228.453517 
L 176.526006 224.677241 
L 176.72768 224.677241 
L 176.749956 217.12469 
L 178.257396 217.12469 
L 178.257396 213.348414 
L 179.804963 213.348414 
L 179.804963 210.830897 
L 180.853898 210.830897 
L 180.853898 208.313379 
L 180.987662 208.313379 
L 180.987662 205.795862 
L 181.138119 205.795862 
L 181.138119 203.278345 
L 181.313602 203.278345 
L 181.313602 200.760828 
L 181.813434 200.760828 
L 181.813434 199.502069 
L 181.999605 199.502069 
L 181.999605 196.984552 
L 183.14302 196.984552 
L 183.14302 194.467034 
L 184.510485 194.467034 
L 184.510485 190.690759 
L 185.140856 190.690759 
L 185.140856 189.432 
L 186.823342 189.432 
L 186.823342 186.914483 
L 187.620696 186.914483 
L 187.620696 183.138207 
L 188.534946 183.138207 
L 188.570607 179.361931 
L 189.270002 179.361931 
L 189.321423 173.068138 
L 189.531357 173.068138 
L 189.531357 171.809379 
L 190.141995 171.809379 
L 190.240057 165.515586 
L 191.048366 165.515586 
L 191.048366 162.998069 
L 193.658938 162.998069 
L 193.658938 160.480552 
L 196.253375 160.480552 
L 196.253375 159.221793 
L 197.754852 159.221793 
L 197.754852 157.963034 
L 198.336144 157.963034 
L 198.336144 154.186759 
L 198.776159 154.186759 
L 198.776159 151.669241 
L 202.445988 151.669241 
L 202.445988 150.410483 
L 207.04823 150.410483 
L 207.04823 149.151724 
L 208.680787 149.151724 
L 208.719483 144.11669 
L 215.302525 144.11669 
L 215.302525 140.340414 
L 215.779617 140.340414 
L 215.779617 139.081655 
L 215.959087 139.081655 
L 215.959087 137.822897 
L 216.142347 137.822897 
L 216.142347 134.046621 
L 216.511665 134.046621 
L 216.511665 130.270345 
L 217.082418 130.270345 
L 217.163116 125.23531 
L 226.201321 125.23531 
L 226.201321 121.459034 
L 228.396105 121.459034 
L 228.396105 118.941517 
L 229.154764 118.941517 
L 229.154764 116.424 
L 230.077846 116.424 
L 230.077846 113.906483 
L 230.323981 113.906483 
L 230.323981 110.130207 
L 230.508888 110.130207 
L 230.508888 108.871448 
L 230.852647 108.871448 
L 230.852647 107.61269 
L 231.61126 107.61269 
L 231.61126 103.836414 
L 232.264379 103.836414 
L 232.264379 100.060138 
L 232.979247 100.060138 
L 232.979247 98.801379 
L 233.287102 98.801379 
L 233.287102 97.542621 
L 234.286893 97.542621 
L 234.286893 93.766345 
L 235.321001 93.766345 
L 235.321001 89.990069 
L 236.618765 89.990069 
L 236.618765 87.472552 
L 238.587042 87.472552 
L 238.587042 84.955034 
L 239.429124 84.955034 
L 239.429124 82.437517 
L 239.794561 82.437517 
L 239.794561 79.92 
L 242.235431 79.92 
L 242.235431 78.661241 
L 243.240491 78.661241 
L 243.240491 77.402483 
L 247.084102 77.402483 
L 247.084102 74.884966 
L 247.870293 74.884966 
L 247.870293 72.367448 
L 250.396754 72.367448 
L 250.396754 68.591172 
L 252.93874 68.591172 
L 252.93874 64.814897 
L 263.880773 64.814897 
L 263.880773 62.297379 
L 265.335104 62.297379 
L 265.335104 59.779862 
L 267.774425 59.779862 
L 267.774425 57.262345 
L 270.838125 57.262345 
L 270.838125 56.003586 
L 272.058774 56.003586 
L 272.058774 54.744828 
L 273.400627 54.744828 
L 273.400627 52.22731 
L 274.010675 52.22731 
L 274.010675 49.709793 
L 275.003366 49.709793 
L 275.003366 45.933517 
L 277.20837 45.933517 
L 277.20837 42.157241 
L 360.8064 42.157241 
L 360.8064 42.157241 
" style="fill: none; stroke: #f5deb3; stroke-width: 4; stroke-linecap: square"/>
   </g>
   <g id="line2d_2">
    <defs>
     <path id="mff10d27983" d="M -0 7.778175 
L 7.778175 0 
L 0 -7.778175 
L -7.778175 -0 
z
" style="stroke: #f5deb3; stroke-width: 1.5; stroke-linejoin: miter"/>
    </defs>
    <g>
     <use xlink:href="#mff10d27983" x="170.665892" y="234.74731" style="fill: #f5deb3; stroke: #f5deb3; stroke-width: 1.5; stroke-linejoin: miter"/>
     <use xlink:href="#mff10d27983" x="202.445988" y="151.669241" style="fill: #f5deb3; stroke: #f5deb3; stroke-width: 1.5; stroke-linejoin: miter"/>
     <use xlink:href="#mff10d27983" x="273.400627" y="52.22731" style="fill: #f5deb3; stroke: #f5deb3; stroke-width: 1.5; stroke-linejoin: miter"/>
     <use xlink:href="#mff10d27983" x="277.20837" y="42.157241" style="fill: #f5deb3; stroke: #f5deb3; stroke-width: 1.5; stroke-linejoin: miter"/>
     <use xlink:href="#mff10d27983" x="360.8064" y="42.157241" style="fill: #f5deb3; stroke: #f5deb3; stroke-width: 1.5; stroke-linejoin: miter"/>
    </g>
   </g>
   <g id="line2d_3">
    <path style="fill: none; stroke: #f5deb3; stroke-width: 4; stroke-linecap: square"/>
    <g/>
   </g>
   <g id="line2d_4">
    <path d="M 360.8064 42.157241 
L 380.514816 12.75264 
" style="fill: none; stroke: #f5deb3; stroke-width: 4; stroke-linecap: square"/>
    <g>
     <use xlink:href="#mff10d27983" x="360.8064" y="42.157241" style="fill: #f5deb3; stroke: #f5deb3; stroke-width: 1.5; stroke-linejoin: miter"/>
     <use xlink:href="#mff10d27983" x="380.514816" y="12.75264" style="fill: #f5deb3; stroke: #f5deb3; stroke-width: 1.5; stroke-linejoin: miter"/>
    </g>
   </g>
   <g id="matplotlib.axis_1">
    <g id="xtick_1">
     <g id="line2d_5">
      <path d="M 57.6 298.944 
L 57.6 6.912 
" clip-path="url(#pc2fe8be154)" style="fill: none; stroke: #b0b0b0; stroke-width: 0.8; stroke-linecap: square"/>
     </g>
     <g id="line2d_6">
      <defs>
       <path id="md37556c816" d="M 0 0 
L 0 3.5 
" style="stroke: #000000; stroke-width: 0.8"/>
      </defs>
      <g>
       <use xlink:href="#md37556c816" x="57.6" y="298.944" style="stroke: #000000; stroke-width: 0.8"/>
      </g>
     </g>
     <g id="text_1">
      <!-- 0 -->
      <g transform="translate(52.191875 318.861344) scale(0.17 -0.17)">
       <defs>
        <path id="DejaVuSans-30" d="M 2034 4250 
Q 1547 4250 1301 3770 
Q 1056 3291 1056 2328 
Q 1056 1369 1301 889 
Q 1547 409 2034 409 
Q 2525 409 2770 889 
Q 3016 1369 3016 2328 
Q 3016 3291 2770 3770 
Q 2525 4250 2034 4250 
z
M 2034 4750 
Q 2819 4750 3233 4129 
Q 3647 3509 3647 2328 
Q 3647 1150 3233 529 
Q 2819 -91 2034 -91 
Q 1250 -91 836 529 
Q 422 1150 422 2328 
Q 422 3509 836 4129 
Q 1250 4750 2034 4750 
z
" transform="scale(0.015625)"/>
       </defs>
       <use xlink:href="#DejaVuSans-30"/>
      </g>
     </g>
    </g>
    <g id="xtick_2">
     <g id="line2d_7">
      <path d="M 144.2304 298.944 
L 144.2304 6.912 
" clip-path="url(#pc2fe8be154)" style="fill: none; stroke: #b0b0b0; stroke-width: 0.8; stroke-linecap: square"/>
     </g>
     <g id="line2d_8">
      <g>
       <use xlink:href="#md37556c816" x="144.2304" y="298.944" style="stroke: #000000; stroke-width: 0.8"/>
      </g>
     </g>
     <g id="text_2">
      <!-- 2 -->
      <g transform="translate(138.822275 318.861344) scale(0.17 -0.17)">
       <defs>
        <path id="DejaVuSans-32" d="M 1228 531 
L 3431 531 
L 3431 0 
L 469 0 
L 469 531 
Q 828 903 1448 1529 
Q 2069 2156 2228 2338 
Q 2531 2678 2651 2914 
Q 2772 3150 2772 3378 
Q 2772 3750 2511 3984 
Q 2250 4219 1831 4219 
Q 1534 4219 1204 4116 
Q 875 4013 500 3803 
L 500 4441 
Q 881 4594 1212 4672 
Q 1544 4750 1819 4750 
Q 2544 4750 2975 4387 
Q 3406 4025 3406 3419 
Q 3406 3131 3298 2873 
Q 3191 2616 2906 2266 
Q 2828 2175 2409 1742 
Q 1991 1309 1228 531 
z
" transform="scale(0.015625)"/>
       </defs>
       <use xlink:href="#DejaVuSans-32"/>
      </g>
     </g>
    </g>
    <g id="xtick_3">
     <g id="line2d_9">
      <path d="M 230.8608 298.944 
L 230.8608 6.912 
" clip-path="url(#pc2fe8be154)" style="fill: none; stroke: #b0b0b0; stroke-width: 0.8; stroke-linecap: square"/>
     </g>
     <g id="line2d_10">
      <g>
       <use xlink:href="#md37556c816" x="230.8608" y="298.944" style="stroke: #000000; stroke-width: 0.8"/>
      </g>
     </g>
     <g id="text_3">
      <!-- 4 -->
      <g transform="translate(225.452675 318.861344) scale(0.17 -0.17)">
       <defs>
        <path id="DejaVuSans-34" d="M 2419 4116 
L 825 1625 
L 2419 1625 
L 2419 4116 
z
M 2253 4666 
L 3047 4666 
L 3047 1625 
L 3713 1625 
L 3713 1100 
L 3047 1100 
L 3047 0 
L 2419 0 
L 2419 1100 
L 313 1100 
L 313 1709 
L 2253 4666 
z
" transform="scale(0.015625)"/>
       </defs>
       <use xlink:href="#DejaVuSans-34"/>
      </g>
     </g>
    </g>
    <g id="xtick_4">
     <g id="line2d_11">
      <path d="M 317.4912 298.944 
L 317.4912 6.912 
" clip-path="url(#pc2fe8be154)" style="fill: none; stroke: #b0b0b0; stroke-width: 0.8; stroke-linecap: square"/>
     </g>
     <g id="line2d_12">
      <g>
       <use xlink:href="#md37556c816" x="317.4912" y="298.944" style="stroke: #000000; stroke-width: 0.8"/>
      </g>
     </g>
     <g id="text_4">
      <!-- 6 -->
      <g transform="translate(312.083075 318.861344) scale(0.17 -0.17)">
       <defs>
        <path id="DejaVuSans-36" d="M 2113 2584 
Q 1688 2584 1439 2293 
Q 1191 2003 1191 1497 
Q 1191 994 1439 701 
Q 1688 409 2113 409 
Q 2538 409 2786 701 
Q 3034 994 3034 1497 
Q 3034 2003 2786 2293 
Q 2538 2584 2113 2584 
z
M 3366 4563 
L 3366 3988 
Q 3128 4100 2886 4159 
Q 2644 4219 2406 4219 
Q 1781 4219 1451 3797 
Q 1122 3375 1075 2522 
Q 1259 2794 1537 2939 
Q 1816 3084 2150 3084 
Q 2853 3084 3261 2657 
Q 3669 2231 3669 1497 
Q 3669 778 3244 343 
Q 2819 -91 2113 -91 
Q 1303 -91 875 529 
Q 447 1150 447 2328 
Q 447 3434 972 4092 
Q 1497 4750 2381 4750 
Q 2619 4750 2861 4703 
Q 3103 4656 3366 4563 
z
" transform="scale(0.015625)"/>
       </defs>
       <use xlink:href="#DejaVuSans-36"/>
      </g>
     </g>
    </g>
    <g id="xtick_5">
     <g id="line2d_13">
      <path d="M 100.9152 298.944 
L 100.9152 6.912 
" clip-path="url(#pc2fe8be154)" style="fill: none; stroke: #b0b0b0; stroke-width: 0.8; stroke-linecap: square"/>
     </g>
     <g id="line2d_14">
      <defs>
       <path id="m83008e07e4" d="M 0 0 
L 0 2 
" style="stroke: #000000; stroke-width: 0.6"/>
      </defs>
      <g>
       <use xlink:href="#m83008e07e4" x="100.9152" y="298.944" style="stroke: #000000; stroke-width: 0.6"/>
      </g>
     </g>
    </g>
    <g id="xtick_6">
     <g id="line2d_15">
      <path d="M 187.5456 298.944 
L 187.5456 6.912 
" clip-path="url(#pc2fe8be154)" style="fill: none; stroke: #b0b0b0; stroke-width: 0.8; stroke-linecap: square"/>
     </g>
     <g id="line2d_16">
      <g>
       <use xlink:href="#m83008e07e4" x="187.5456" y="298.944" style="stroke: #000000; stroke-width: 0.6"/>
      </g>
     </g>
    </g>
    <g id="xtick_7">
     <g id="line2d_17">
      <path d="M 274.176 298.944 
L 274.176 6.912 
" clip-path="url(#pc2fe8be154)" style="fill: none; stroke: #b0b0b0; stroke-width: 0.8; stroke-linecap: square"/>
     </g>
     <g id="line2d_18">
      <g>
       <use xlink:href="#m83008e07e4" x="274.176" y="298.944" style="stroke: #000000; stroke-width: 0.6"/>
      </g>
     </g>
    </g>
    <g id="xtick_8">
     <g id="line2d_19">
      <path d="M 360.8064 298.944 
L 360.8064 6.912 
" clip-path="url(#pc2fe8be154)" style="fill: none; stroke: #b0b0b0; stroke-width: 0.8; stroke-linecap: square"/>
     </g>
     <g id="line2d_20">
      <g>
       <use xlink:href="#m83008e07e4" x="360.8064" y="298.944" style="stroke: #000000; stroke-width: 0.6"/>
      </g>
     </g>
    </g>
    <g id="text_5">
     <!-- log10(# f-evals / dimension) -->
     <g transform="translate(88.823278 339.314156) scale(0.17 -0.17)">
      <defs>
       <path id="DejaVuSans-6c" d="M 603 4863 
L 1178 4863 
L 1178 0 
L 603 0 
L 603 4863 
z
" transform="scale(0.015625)"/>
       <path id="DejaVuSans-6f" d="M 1959 3097 
Q 1497 3097 1228 2736 
Q 959 2375 959 1747 
Q 959 1119 1226 758 
Q 1494 397 1959 397 
Q 2419 397 2687 759 
Q 2956 1122 2956 1747 
Q 2956 2369 2687 2733 
Q 2419 3097 1959 3097 
z
M 1959 3584 
Q 2709 3584 3137 3096 
Q 3566 2609 3566 1747 
Q 3566 888 3137 398 
Q 2709 -91 1959 -91 
Q 1206 -91 779 398 
Q 353 888 353 1747 
Q 353 2609 779 3096 
Q 1206 3584 1959 3584 
z
" transform="scale(0.015625)"/>
       <path id="DejaVuSans-67" d="M 2906 1791 
Q 2906 2416 2648 2759 
Q 2391 3103 1925 3103 
Q 1463 3103 1205 2759 
Q 947 2416 947 1791 
Q 947 1169 1205 825 
Q 1463 481 1925 481 
Q 2391 481 2648 825 
Q 2906 1169 2906 1791 
z
M 3481 434 
Q 3481 -459 3084 -895 
Q 2688 -1331 1869 -1331 
Q 1566 -1331 1297 -1286 
Q 1028 -1241 775 -1147 
L 775 -588 
Q 1028 -725 1275 -790 
Q 1522 -856 1778 -856 
Q 2344 -856 2625 -561 
Q 2906 -266 2906 331 
L 2906 616 
Q 2728 306 2450 153 
Q 2172 0 1784 0 
Q 1141 0 747 490 
Q 353 981 353 1791 
Q 353 2603 747 3093 
Q 1141 3584 1784 3584 
Q 2172 3584 2450 3431 
Q 2728 3278 2906 2969 
L 2906 3500 
L 3481 3500 
L 3481 434 
z
" transform="scale(0.015625)"/>
       <path id="DejaVuSans-31" d="M 794 531 
L 1825 531 
L 1825 4091 
L 703 3866 
L 703 4441 
L 1819 4666 
L 2450 4666 
L 2450 531 
L 3481 531 
L 3481 0 
L 794 0 
L 794 531 
z
" transform="scale(0.015625)"/>
       <path id="DejaVuSans-28" d="M 1984 4856 
Q 1566 4138 1362 3434 
Q 1159 2731 1159 2009 
Q 1159 1288 1364 580 
Q 1569 -128 1984 -844 
L 1484 -844 
Q 1016 -109 783 600 
Q 550 1309 550 2009 
Q 550 2706 781 3412 
Q 1013 4119 1484 4856 
L 1984 4856 
z
" transform="scale(0.015625)"/>
       <path id="DejaVuSans-23" d="M 3272 2816 
L 2363 2816 
L 2100 1772 
L 3016 1772 
L 3272 2816 
z
M 2803 4594 
L 2478 3297 
L 3391 3297 
L 3719 4594 
L 4219 4594 
L 3897 3297 
L 4872 3297 
L 4872 2816 
L 3775 2816 
L 3519 1772 
L 4513 1772 
L 4513 1294 
L 3397 1294 
L 3072 0 
L 2572 0 
L 2894 1294 
L 1978 1294 
L 1656 0 
L 1153 0 
L 1478 1294 
L 494 1294 
L 494 1772 
L 1594 1772 
L 1856 2816 
L 850 2816 
L 850 3297 
L 1978 3297 
L 2297 4594 
L 2803 4594 
z
" transform="scale(0.015625)"/>
       <path id="DejaVuSans-20" transform="scale(0.015625)"/>
       <path id="DejaVuSans-66" d="M 2375 4863 
L 2375 4384 
L 1825 4384 
Q 1516 4384 1395 4259 
Q 1275 4134 1275 3809 
L 1275 3500 
L 2222 3500 
L 2222 3053 
L 1275 3053 
L 1275 0 
L 697 0 
L 697 3053 
L 147 3053 
L 147 3500 
L 697 3500 
L 697 3744 
Q 697 4328 969 4595 
Q 1241 4863 1831 4863 
L 2375 4863 
z
" transform="scale(0.015625)"/>
       <path id="DejaVuSans-2d" d="M 313 2009 
L 1997 2009 
L 1997 1497 
L 313 1497 
L 313 2009 
z
" transform="scale(0.015625)"/>
       <path id="DejaVuSans-65" d="M 3597 1894 
L 3597 1613 
L 953 1613 
Q 991 1019 1311 708 
Q 1631 397 2203 397 
Q 2534 397 2845 478 
Q 3156 559 3463 722 
L 3463 178 
Q 3153 47 2828 -22 
Q 2503 -91 2169 -91 
Q 1331 -91 842 396 
Q 353 884 353 1716 
Q 353 2575 817 3079 
Q 1281 3584 2069 3584 
Q 2775 3584 3186 3129 
Q 3597 2675 3597 1894 
z
M 3022 2063 
Q 3016 2534 2758 2815 
Q 2500 3097 2075 3097 
Q 1594 3097 1305 2825 
Q 1016 2553 972 2059 
L 3022 2063 
z
" transform="scale(0.015625)"/>
       <path id="DejaVuSans-76" d="M 191 3500 
L 800 3500 
L 1894 563 
L 2988 3500 
L 3597 3500 
L 2284 0 
L 1503 0 
L 191 3500 
z
" transform="scale(0.015625)"/>
       <path id="DejaVuSans-61" d="M 2194 1759 
Q 1497 1759 1228 1600 
Q 959 1441 959 1056 
Q 959 750 1161 570 
Q 1363 391 1709 391 
Q 2188 391 2477 730 
Q 2766 1069 2766 1631 
L 2766 1759 
L 2194 1759 
z
M 3341 1997 
L 3341 0 
L 2766 0 
L 2766 531 
Q 2569 213 2275 61 
Q 1981 -91 1556 -91 
Q 1019 -91 701 211 
Q 384 513 384 1019 
Q 384 1609 779 1909 
Q 1175 2209 1959 2209 
L 2766 2209 
L 2766 2266 
Q 2766 2663 2505 2880 
Q 2244 3097 1772 3097 
Q 1472 3097 1187 3025 
Q 903 2953 641 2809 
L 641 3341 
Q 956 3463 1253 3523 
Q 1550 3584 1831 3584 
Q 2591 3584 2966 3190 
Q 3341 2797 3341 1997 
z
" transform="scale(0.015625)"/>
       <path id="DejaVuSans-73" d="M 2834 3397 
L 2834 2853 
Q 2591 2978 2328 3040 
Q 2066 3103 1784 3103 
Q 1356 3103 1142 2972 
Q 928 2841 928 2578 
Q 928 2378 1081 2264 
Q 1234 2150 1697 2047 
L 1894 2003 
Q 2506 1872 2764 1633 
Q 3022 1394 3022 966 
Q 3022 478 2636 193 
Q 2250 -91 1575 -91 
Q 1294 -91 989 -36 
Q 684 19 347 128 
L 347 722 
Q 666 556 975 473 
Q 1284 391 1588 391 
Q 1994 391 2212 530 
Q 2431 669 2431 922 
Q 2431 1156 2273 1281 
Q 2116 1406 1581 1522 
L 1381 1569 
Q 847 1681 609 1914 
Q 372 2147 372 2553 
Q 372 3047 722 3315 
Q 1072 3584 1716 3584 
Q 2034 3584 2315 3537 
Q 2597 3491 2834 3397 
z
" transform="scale(0.015625)"/>
       <path id="DejaVuSans-2f" d="M 1625 4666 
L 2156 4666 
L 531 -594 
L 0 -594 
L 1625 4666 
z
" transform="scale(0.015625)"/>
       <path id="DejaVuSans-64" d="M 2906 2969 
L 2906 4863 
L 3481 4863 
L 3481 0 
L 2906 0 
L 2906 525 
Q 2725 213 2448 61 
Q 2172 -91 1784 -91 
Q 1150 -91 751 415 
Q 353 922 353 1747 
Q 353 2572 751 3078 
Q 1150 3584 1784 3584 
Q 2172 3584 2448 3432 
Q 2725 3281 2906 2969 
z
M 947 1747 
Q 947 1113 1208 752 
Q 1469 391 1925 391 
Q 2381 391 2643 752 
Q 2906 1113 2906 1747 
Q 2906 2381 2643 2742 
Q 2381 3103 1925 3103 
Q 1469 3103 1208 2742 
Q 947 2381 947 1747 
z
" transform="scale(0.015625)"/>
       <path id="DejaVuSans-69" d="M 603 3500 
L 1178 3500 
L 1178 0 
L 603 0 
L 603 3500 
z
M 603 4863 
L 1178 4863 
L 1178 4134 
L 603 4134 
L 603 4863 
z
" transform="scale(0.015625)"/>
       <path id="DejaVuSans-6d" d="M 3328 2828 
Q 3544 3216 3844 3400 
Q 4144 3584 4550 3584 
Q 5097 3584 5394 3201 
Q 5691 2819 5691 2113 
L 5691 0 
L 5113 0 
L 5113 2094 
Q 5113 2597 4934 2840 
Q 4756 3084 4391 3084 
Q 3944 3084 3684 2787 
Q 3425 2491 3425 1978 
L 3425 0 
L 2847 0 
L 2847 2094 
Q 2847 2600 2669 2842 
Q 2491 3084 2119 3084 
Q 1678 3084 1418 2786 
Q 1159 2488 1159 1978 
L 1159 0 
L 581 0 
L 581 3500 
L 1159 3500 
L 1159 2956 
Q 1356 3278 1631 3431 
Q 1906 3584 2284 3584 
Q 2666 3584 2933 3390 
Q 3200 3197 3328 2828 
z
" transform="scale(0.015625)"/>
       <path id="DejaVuSans-6e" d="M 3513 2113 
L 3513 0 
L 2938 0 
L 2938 2094 
Q 2938 2591 2744 2837 
Q 2550 3084 2163 3084 
Q 1697 3084 1428 2787 
Q 1159 2491 1159 1978 
L 1159 0 
L 581 0 
L 581 3500 
L 1159 3500 
L 1159 2956 
Q 1366 3272 1645 3428 
Q 1925 3584 2291 3584 
Q 2894 3584 3203 3211 
Q 3513 2838 3513 2113 
z
" transform="scale(0.015625)"/>
       <path id="DejaVuSans-29" d="M 513 4856 
L 1013 4856 
Q 1481 4119 1714 3412 
Q 1947 2706 1947 2009 
Q 1947 1309 1714 600 
Q 1481 -109 1013 -844 
L 513 -844 
Q 928 -128 1133 580 
Q 1338 1288 1338 2009 
Q 1338 2731 1133 3434 
Q 928 4138 513 4856 
z
" transform="scale(0.015625)"/>
      </defs>
      <use xlink:href="#DejaVuSans-6c"/>
      <use xlink:href="#DejaVuSans-6f" x="27.783203"/>
      <use xlink:href="#DejaVuSans-67" x="88.964844"/>
      <use xlink:href="#DejaVuSans-31" x="152.441406"/>
      <use xlink:href="#DejaVuSans-30" x="216.064453"/>
      <use xlink:href="#DejaVuSans-28" x="279.6875"/>
      <use xlink:href="#DejaVuSans-23" x="318.701172"/>
      <use xlink:href="#DejaVuSans-20" x="402.490234"/>
      <use xlink:href="#DejaVuSans-66" x="434.277344"/>
      <use xlink:href="#DejaVuSans-2d" x="463.982422"/>
      <use xlink:href="#DejaVuSans-65" x="500.066406"/>
      <use xlink:href="#DejaVuSans-76" x="561.589844"/>
      <use xlink:href="#DejaVuSans-61" x="620.769531"/>
      <use xlink:href="#DejaVuSans-6c" x="682.048828"/>
      <use xlink:href="#DejaVuSans-73" x="709.832031"/>
      <use xlink:href="#DejaVuSans-20" x="761.931641"/>
      <use xlink:href="#DejaVuSans-2f" x="793.71875"/>
      <use xlink:href="#DejaVuSans-20" x="827.410156"/>
      <use xlink:href="#DejaVuSans-64" x="859.197266"/>
      <use xlink:href="#DejaVuSans-69" x="922.673828"/>
      <use xlink:href="#DejaVuSans-6d" x="950.457031"/>
      <use xlink:href="#DejaVuSans-65" x="1047.869141"/>
      <use xlink:href="#DejaVuSans-6e" x="1109.392578"/>
      <use xlink:href="#DejaVuSans-73" x="1172.771484"/>
      <use xlink:href="#DejaVuSans-69" x="1224.871094"/>
      <use xlink:href="#DejaVuSans-6f" x="1252.654297"/>
      <use xlink:href="#DejaVuSans-6e" x="1313.835938"/>
      <use xlink:href="#DejaVuSans-29" x="1377.214844"/>
     </g>
    </g>
   </g>
   <g id="matplotlib.axis_2">
    <g id="ytick_1">
     <g id="line2d_21">
      <path d="M 57.6 298.944 
L 360.8064 298.944 
" clip-path="url(#pc2fe8be154)" style="fill: none; stroke: #b0b0b0; stroke-width: 0.8; stroke-linecap: square"/>
     </g>
     <g id="line2d_22">
      <defs>
       <path id="me8fb11e3a5" d="M 0 0 
L -3.5 0 
" style="stroke: #000000; stroke-width: 0.8"/>
      </defs>
      <g>
       <use xlink:href="#me8fb11e3a5" x="57.6" y="298.944" style="stroke: #000000; stroke-width: 0.8"/>
      </g>
     </g>
     <g id="text_6">
      <!-- 0.0 -->
      <g transform="translate(25.155 305.02275) scale(0.16 -0.16)">
       <defs>
        <path id="DejaVuSans-2e" d="M 684 794 
L 1344 794 
L 1344 0 
L 684 0 
L 684 794 
z
" transform="scale(0.015625)"/>
       </defs>
       <use xlink:href="#DejaVuSans-30"/>
       <use xlink:href="#DejaVuSans-2e" x="63.623047"/>
       <use xlink:href="#DejaVuSans-30" x="95.410156"/>
      </g>
     </g>
    </g>
    <g id="ytick_2">
     <g id="line2d_23">
      <path d="M 57.6 240.5376 
L 360.8064 240.5376 
" clip-path="url(#pc2fe8be154)" style="fill: none; stroke: #b0b0b0; stroke-width: 0.8; stroke-linecap: square"/>
     </g>
     <g id="line2d_24">
      <g>
       <use xlink:href="#me8fb11e3a5" x="57.6" y="240.5376" style="stroke: #000000; stroke-width: 0.8"/>
      </g>
     </g>
     <g id="text_7">
      <!-- 0.2 -->
      <g transform="translate(25.155 246.61635) scale(0.16 -0.16)">
       <use xlink:href="#DejaVuSans-30"/>
       <use xlink:href="#DejaVuSans-2e" x="63.623047"/>
       <use xlink:href="#DejaVuSans-32" x="95.410156"/>
      </g>
     </g>
    </g>
    <g id="ytick_3">
     <g id="line2d_25">
      <path d="M 57.6 182.1312 
L 360.8064 182.1312 
" clip-path="url(#pc2fe8be154)" style="fill: none; stroke: #b0b0b0; stroke-width: 0.8; stroke-linecap: square"/>
     </g>
     <g id="line2d_26">
      <g>
       <use xlink:href="#me8fb11e3a5" x="57.6" y="182.1312" style="stroke: #000000; stroke-width: 0.8"/>
      </g>
     </g>
     <g id="text_8">
      <!-- 0.4 -->
      <g transform="translate(25.155 188.20995) scale(0.16 -0.16)">
       <use xlink:href="#DejaVuSans-30"/>
       <use xlink:href="#DejaVuSans-2e" x="63.623047"/>
       <use xlink:href="#DejaVuSans-34" x="95.410156"/>
      </g>
     </g>
    </g>
    <g id="ytick_4">
     <g id="line2d_27">
      <path d="M 57.6 123.7248 
L 360.8064 123.7248 
" clip-path="url(#pc2fe8be154)" style="fill: none; stroke: #b0b0b0; stroke-width: 0.8; stroke-linecap: square"/>
     </g>
     <g id="line2d_28">
      <g>
       <use xlink:href="#me8fb11e3a5" x="57.6" y="123.7248" style="stroke: #000000; stroke-width: 0.8"/>
      </g>
     </g>
     <g id="text_9">
      <!-- 0.6 -->
      <g transform="translate(25.155 129.80355) scale(0.16 -0.16)">
       <use xlink:href="#DejaVuSans-30"/>
       <use xlink:href="#DejaVuSans-2e" x="63.623047"/>
       <use xlink:href="#DejaVuSans-36" x="95.410156"/>
      </g>
     </g>
    </g>
    <g id="ytick_5">
     <g id="line2d_29">
      <path d="M 57.6 65.3184 
L 360.8064 65.3184 
" clip-path="url(#pc2fe8be154)" style="fill: none; stroke: #b0b0b0; stroke-width: 0.8; stroke-linecap: square"/>
     </g>
     <g id="line2d_30">
      <g>
       <use xlink:href="#me8fb11e3a5" x="57.6" y="65.3184" style="stroke: #000000; stroke-width: 0.8"/>
      </g>
     </g>
     <g id="text_10">
      <!-- 0.8 -->
      <g transform="translate(25.155 71.39715) scale(0.16 -0.16)">
       <defs>
        <path id="DejaVuSans-38" d="M 2034 2216 
Q 1584 2216 1326 1975 
Q 1069 1734 1069 1313 
Q 1069 891 1326 650 
Q 1584 409 2034 409 
Q 2484 409 2743 651 
Q 3003 894 3003 1313 
Q 3003 1734 2745 1975 
Q 2488 2216 2034 2216 
z
M 1403 2484 
Q 997 2584 770 2862 
Q 544 3141 544 3541 
Q 544 4100 942 4425 
Q 1341 4750 2034 4750 
Q 2731 4750 3128 4425 
Q 3525 4100 3525 3541 
Q 3525 3141 3298 2862 
Q 3072 2584 2669 2484 
Q 3125 2378 3379 2068 
Q 3634 1759 3634 1313 
Q 3634 634 3220 271 
Q 2806 -91 2034 -91 
Q 1263 -91 848 271 
Q 434 634 434 1313 
Q 434 1759 690 2068 
Q 947 2378 1403 2484 
z
M 1172 3481 
Q 1172 3119 1398 2916 
Q 1625 2713 2034 2713 
Q 2441 2713 2670 2916 
Q 2900 3119 2900 3481 
Q 2900 3844 2670 4047 
Q 2441 4250 2034 4250 
Q 1625 4250 1398 4047 
Q 1172 3844 1172 3481 
z
" transform="scale(0.015625)"/>
       </defs>
       <use xlink:href="#DejaVuSans-30"/>
       <use xlink:href="#DejaVuSans-2e" x="63.623047"/>
       <use xlink:href="#DejaVuSans-38" x="95.410156"/>
      </g>
     </g>
    </g>
    <g id="ytick_6">
     <g id="line2d_31">
      <path d="M 57.6 6.912 
L 360.8064 6.912 
" clip-path="url(#pc2fe8be154)" style="fill: none; stroke: #b0b0b0; stroke-width: 0.8; stroke-linecap: square"/>
     </g>
     <g id="line2d_32">
      <g>
       <use xlink:href="#me8fb11e3a5" x="57.6" y="6.912" style="stroke: #000000; stroke-width: 0.8"/>
      </g>
     </g>
     <g id="text_11">
      <!-- 1.0 -->
      <g transform="translate(25.155 12.99075) scale(0.16 -0.16)">
       <use xlink:href="#DejaVuSans-31"/>
       <use xlink:href="#DejaVuSans-2e" x="63.623047"/>
       <use xlink:href="#DejaVuSans-30" x="95.410156"/>
      </g>
     </g>
    </g>
    <g id="text_12">
     <!-- Fraction of function,target pairs -->
     <g transform="translate(17.619531 287.313) rotate(-90) scale(0.17 -0.17)">
      <defs>
       <path id="DejaVuSans-46" d="M 628 4666 
L 3309 4666 
L 3309 4134 
L 1259 4134 
L 1259 2759 
L 3109 2759 
L 3109 2228 
L 1259 2228 
L 1259 0 
L 628 0 
L 628 4666 
z
" transform="scale(0.015625)"/>
       <path id="DejaVuSans-72" d="M 2631 2963 
Q 2534 3019 2420 3045 
Q 2306 3072 2169 3072 
Q 1681 3072 1420 2755 
Q 1159 2438 1159 1844 
L 1159 0 
L 581 0 
L 581 3500 
L 1159 3500 
L 1159 2956 
Q 1341 3275 1631 3429 
Q 1922 3584 2338 3584 
Q 2397 3584 2469 3576 
Q 2541 3569 2628 3553 
L 2631 2963 
z
" transform="scale(0.015625)"/>
       <path id="DejaVuSans-63" d="M 3122 3366 
L 3122 2828 
Q 2878 2963 2633 3030 
Q 2388 3097 2138 3097 
Q 1578 3097 1268 2742 
Q 959 2388 959 1747 
Q 959 1106 1268 751 
Q 1578 397 2138 397 
Q 2388 397 2633 464 
Q 2878 531 3122 666 
L 3122 134 
Q 2881 22 2623 -34 
Q 2366 -91 2075 -91 
Q 1284 -91 818 406 
Q 353 903 353 1747 
Q 353 2603 823 3093 
Q 1294 3584 2113 3584 
Q 2378 3584 2631 3529 
Q 2884 3475 3122 3366 
z
" transform="scale(0.015625)"/>
       <path id="DejaVuSans-74" d="M 1172 4494 
L 1172 3500 
L 2356 3500 
L 2356 3053 
L 1172 3053 
L 1172 1153 
Q 1172 725 1289 603 
Q 1406 481 1766 481 
L 2356 481 
L 2356 0 
L 1766 0 
Q 1100 0 847 248 
Q 594 497 594 1153 
L 594 3053 
L 172 3053 
L 172 3500 
L 594 3500 
L 594 4494 
L 1172 4494 
z
" transform="scale(0.015625)"/>
       <path id="DejaVuSans-75" d="M 544 1381 
L 544 3500 
L 1119 3500 
L 1119 1403 
Q 1119 906 1312 657 
Q 1506 409 1894 409 
Q 2359 409 2629 706 
Q 2900 1003 2900 1516 
L 2900 3500 
L 3475 3500 
L 3475 0 
L 2900 0 
L 2900 538 
Q 2691 219 2414 64 
Q 2138 -91 1772 -91 
Q 1169 -91 856 284 
Q 544 659 544 1381 
z
M 1991 3584 
L 1991 3584 
z
" transform="scale(0.015625)"/>
       <path id="DejaVuSans-2c" d="M 750 794 
L 1409 794 
L 1409 256 
L 897 -744 
L 494 -744 
L 750 256 
L 750 794 
z
" transform="scale(0.015625)"/>
       <path id="DejaVuSans-70" d="M 1159 525 
L 1159 -1331 
L 581 -1331 
L 581 3500 
L 1159 3500 
L 1159 2969 
Q 1341 3281 1617 3432 
Q 1894 3584 2278 3584 
Q 2916 3584 3314 3078 
Q 3713 2572 3713 1747 
Q 3713 922 3314 415 
Q 2916 -91 2278 -91 
Q 1894 -91 1617 61 
Q 1341 213 1159 525 
z
M 3116 1747 
Q 3116 2381 2855 2742 
Q 2594 3103 2138 3103 
Q 1681 3103 1420 2742 
Q 1159 2381 1159 1747 
Q 1159 1113 1420 752 
Q 1681 391 2138 391 
Q 2594 391 2855 752 
Q 3116 1113 3116 1747 
z
" transform="scale(0.015625)"/>
      </defs>
      <use xlink:href="#DejaVuSans-46"/>
      <use xlink:href="#DejaVuSans-72" x="50.269531"/>
      <use xlink:href="#DejaVuSans-61" x="91.382812"/>
      <use xlink:href="#DejaVuSans-63" x="152.662109"/>
      <use xlink:href="#DejaVuSans-74" x="207.642578"/>
      <use xlink:href="#DejaVuSans-69" x="246.851562"/>
      <use xlink:href="#DejaVuSans-6f" x="274.634766"/>
      <use xlink:href="#DejaVuSans-6e" x="335.816406"/>
      <use xlink:href="#DejaVuSans-20" x="399.195312"/>
      <use xlink:href="#DejaVuSans-6f" x="430.982422"/>
      <use xlink:href="#DejaVuSans-66" x="492.164062"/>
      <use xlink:href="#DejaVuSans-20" x="527.369141"/>
      <use xlink:href="#DejaVuSans-66" x="559.15625"/>
      <use xlink:href="#DejaVuSans-75" x="594.361328"/>
      <use xlink:href="#DejaVuSans-6e" x="657.740234"/>
      <use xlink:href="#DejaVuSans-63" x="721.119141"/>
      <use xlink:href="#DejaVuSans-74" x="776.099609"/>
      <use xlink:href="#DejaVuSans-69" x="815.308594"/>
      <use xlink:href="#DejaVuSans-6f" x="843.091797"/>
      <use xlink:href="#DejaVuSans-6e" x="904.273438"/>
      <use xlink:href="#DejaVuSans-2c" x="967.652344"/>
      <use xlink:href="#DejaVuSans-74" x="999.439453"/>
      <use xlink:href="#DejaVuSans-61" x="1038.648438"/>
      <use xlink:href="#DejaVuSans-72" x="1099.927734"/>
      <use xlink:href="#DejaVuSans-67" x="1139.291016"/>
      <use xlink:href="#DejaVuSans-65" x="1202.767578"/>
      <use xlink:href="#DejaVuSans-74" x="1264.291016"/>
      <use xlink:href="#DejaVuSans-20" x="1303.5"/>
      <use xlink:href="#DejaVuSans-70" x="1335.287109"/>
      <use xlink:href="#DejaVuSans-61" x="1398.763672"/>
      <use xlink:href="#DejaVuSans-69" x="1460.042969"/>
      <use xlink:href="#DejaVuSans-72" x="1487.826172"/>
      <use xlink:href="#DejaVuSans-73" x="1528.939453"/>
     </g>
    </g>
   </g>
   <g id="line2d_33">
    <defs>
     <path id="m628ecaa02b" d="M 0 1.5 
C 0.397805 1.5 0.77937 1.341951 1.06066 1.06066 
C 1.341951 0.77937 1.5 0.397805 1.5 0 
C 1.5 -0.397805 1.341951 -0.77937 1.06066 -1.06066 
C 0.77937 -1.341951 0.397805 -1.5 0 -1.5 
C -0.397805 -1.5 -0.77937 -1.341951 -1.06066 -1.06066 
C -1.341951 -0.77937 -1.5 -0.397805 -1.5 0 
C -1.5 0.397805 -1.341951 0.77937 -1.06066 1.06066 
C -0.77937 1.341951 -0.397805 1.5 0 1.5 
z
" style="stroke: #f5deb3"/>
    </defs>
    <g>
     <use xlink:href="#m628ecaa02b" x="277.20837" y="42.157241" style="fill: #f5deb3; stroke: #f5deb3"/>
     <use xlink:href="#m628ecaa02b" x="277.20837" y="42.157241" style="fill: #f5deb3; stroke: #f5deb3"/>
    </g>
   </g>
   <g id="line2d_34">
    <defs>
     <path id="m59277cbd6e" d="M 0 1.5 
C 0.397805 1.5 0.77937 1.341951 1.06066 1.06066 
C 1.341951 0.77937 1.5 0.397805 1.5 0 
C 1.5 -0.397805 1.341951 -0.77937 1.06066 -1.06066 
C 0.77937 -1.341951 0.397805 -1.5 0 -1.5 
C -0.397805 -1.5 -0.77937 -1.341951 -1.06066 -1.06066 
C -1.341951 -0.77937 -1.5 -0.397805 -1.5 0 
C -1.5 0.397805 -1.341951 0.77937 -1.06066 1.06066 
C -0.77937 1.341951 -0.397805 1.5 0 1.5 
z
" style="stroke: #000080"/>
    </defs>
    <g>
     <use xlink:href="#m59277cbd6e" x="144.541342" y="234.621434" style="fill: #000080; stroke: #000080"/>
     <use xlink:href="#m59277cbd6e" x="144.541342" y="234.621434" style="fill: #000080; stroke: #000080"/>
    </g>
   </g>
   <g id="line2d_35">
    <path d="M 36.933397 298.944 
L 36.933397 294.538345 
L 49.972572 294.538345 
L 49.972572 292.901959 
L 57.6 292.901959 
L 57.6 291.6432 
L 63.011746 291.6432 
L 63.011746 290.762069 
L 67.209423 290.762069 
L 67.209423 289.50331 
L 70.639174 289.50331 
L 70.639174 289.377434 
L 73.538988 289.377434 
L 73.538988 287.9928 
L 76.050921 287.9928 
L 76.050921 287.363421 
L 78.266603 287.363421 
L 78.266603 287.111669 
L 80.248597 287.111669 
L 80.248597 286.734041 
L 82.04153 286.734041 
L 82.04153 285.601159 
L 83.678349 285.601159 
L 83.678349 285.097655 
L 85.184077 285.097655 
L 85.184077 284.216524 
L 86.578163 284.216524 
L 86.578163 283.335393 
L 87.876026 283.335393 
L 87.876026 282.957766 
L 89.090095 282.957766 
L 89.090095 281.699007 
L 92.322865 281.699007 
L 92.322865 281.447255 
L 93.287772 281.447255 
L 93.287772 280.943752 
L 94.205591 280.943752 
L 94.205591 280.692 
L 95.080704 280.692 
L 95.080704 280.440248 
L 95.916911 280.440248 
L 95.916911 279.307366 
L 97.485448 279.307366 
L 97.485448 279.055614 
L 98.223251 279.055614 
L 98.223251 278.55211 
L 99.617337 278.55211 
L 99.617337 278.426234 
L 100.9152 278.426234 
L 100.9152 277.796855 
L 102.12927 277.796855 
L 102.12927 277.293352 
L 103.815014 277.293352 
L 103.815014 277.0416 
L 104.344952 277.0416 
L 104.344952 276.286345 
L 107.244765 276.286345 
L 107.244765 276.034593 
L 107.68741 276.034593 
L 107.68741 275.153462 
L 108.119879 275.153462 
L 108.119879 274.775834 
L 108.542628 274.775834 
L 108.542628 274.649959 
L 109.360651 274.649959 
L 109.360651 274.272331 
L 109.756698 274.272331 
L 109.756698 274.020579 
L 110.897141 274.020579 
L 110.897141 273.768828 
L 111.262425 273.768828 
L 111.262425 273.517076 
L 111.620752 273.517076 
L 111.620752 272.761821 
L 111.97238 272.761821 
L 111.97238 272.006566 
L 112.317555 272.006566 
L 112.317555 271.88069 
L 113.316634 271.88069 
L 113.316634 269.866676 
L 113.954374 269.866676 
L 113.954374 269.7408 
L 114.265316 269.7408 
L 114.265316 269.614924 
L 114.571202 269.614924 
L 114.571202 269.489048 
L 115.460102 269.489048 
L 115.460102 269.111421 
L 115.747307 269.111421 
L 115.747307 268.859669 
L 116.030193 268.859669 
L 116.030193 268.733793 
L 116.308887 268.733793 
L 116.308887 268.356166 
L 116.583514 268.356166 
L 116.583514 266.971531 
L 117.121023 266.971531 
L 117.121023 266.593903 
L 117.384126 266.593903 
L 117.384126 266.468028 
L 117.6436 266.468028 
L 117.6436 266.0904 
L 118.152051 266.0904 
L 118.152051 265.838648 
L 118.401214 265.838648 
L 118.401214 265.209269 
L 118.889854 265.209269 
L 118.889854 264.831641 
L 119.129494 264.831641 
L 119.129494 263.698759 
L 120.058649 263.698759 
L 120.058649 263.447007 
L 120.28394 263.447007 
L 120.28394 262.188248 
L 120.506564 262.188248 
L 120.506564 262.062372 
L 120.726585 262.062372 
L 120.726585 260.803614 
L 121.789667 260.803614 
L 121.789667 260.551862 
L 122.19863 260.551862 
L 122.19863 259.922483 
L 122.598891 259.922483 
L 122.598891 259.796607 
L 122.990812 259.796607 
L 122.990812 259.670731 
L 123.563797 259.670731 
L 123.563797 258.537848 
L 124.119844 258.537848 
L 124.119844 258.286097 
L 124.836562 258.286097 
L 124.836562 258.034345 
L 125.011554 258.034345 
L 125.011554 257.530841 
L 125.184934 257.530841 
L 125.184934 257.404966 
L 125.35673 257.404966 
L 125.35673 257.153214 
L 125.526971 257.153214 
L 125.526971 257.027338 
L 125.695686 257.027338 
L 125.695686 256.775586 
L 126.192937 256.775586 
L 126.192937 255.768579 
L 126.677381 255.768579 
L 126.677381 254.761572 
L 126.993549 254.761572 
L 126.993549 254.509821 
L 127.458055 254.509821 
L 127.458055 254.258069 
L 127.610376 254.258069 
L 127.610376 253.62869 
L 127.911368 253.62869 
L 127.911368 253.376938 
L 128.060076 253.376938 
L 128.060076 253.251062 
L 128.643427 253.251062 
L 128.643427 252.244055 
L 129.069367 252.244055 
L 129.069367 251.992303 
L 129.485876 251.992303 
L 129.485876 251.866428 
L 129.758512 251.866428 
L 129.758512 251.740552 
L 130.160198 251.740552 
L 130.160198 251.4888 
L 130.292209 251.4888 
L 130.292209 251.362924 
L 131.563744 251.362924 
L 131.563744 251.237048 
L 131.686295 251.237048 
L 131.686295 250.985297 
L 132.04923 250.985297 
L 132.04923 250.733545 
L 132.168669 250.733545 
L 132.168669 250.481793 
L 132.405295 250.481793 
L 132.405295 249.97829 
L 132.522502 249.97829 
L 132.522502 249.852414 
L 132.754746 249.852414 
L 132.754746 249.223034 
L 133.210806 249.223034 
L 133.210806 249.097159 
L 133.434756 249.097159 
L 133.545739 247.712524 
L 133.656071 247.712524 
L 133.656071 247.083145 
L 134.198228 247.083145 
L 134.198228 246.957269 
L 134.516177 246.957269 
L 134.516177 246.705517 
L 135.034434 246.705517 
L 135.136394 246.453766 
L 135.338671 246.453766 
L 135.338671 246.32789 
L 135.538796 246.32789 
L 135.638065 246.076138 
L 136.029987 246.076138 
L 136.126705 245.446759 
L 136.318661 245.446759 
L 136.318661 245.195007 
L 136.88305 245.195007 
L 136.88305 245.069131 
L 137.430998 245.069131 
L 137.430998 244.188 
L 137.610157 244.188 
L 137.610157 243.684497 
L 137.875736 243.684497 
L 137.963436 243.432745 
L 138.395904 243.432745 
L 138.481218 242.67749 
L 139.313723 242.67749 
L 139.394983 242.425738 
L 139.636676 242.425738 
L 139.636676 241.670483 
L 139.796097 241.670483 
L 139.875304 241.292855 
L 140.26641 241.292855 
L 140.343665 240.663476 
L 140.875745 240.663476 
L 140.950542 239.782345 
L 141.173167 239.782345 
L 141.173167 239.656469 
L 141.465959 239.656469 
L 141.465959 239.02709 
L 142.038218 239.02709 
L 142.108542 238.523586 
L 142.178603 238.523586 
L 142.178603 238.39771 
L 142.387236 238.39771 
L 142.387236 238.271834 
L 142.525051 238.271834 
L 142.593581 237.390703 
L 142.661862 237.390703 
L 142.661862 237.138952 
L 142.932537 237.138952 
L 142.932537 236.8872 
L 143.066428 236.8872 
L 143.133017 236.509572 
L 143.199372 236.509572 
L 143.199372 236.383697 
L 143.331383 236.383697 
L 143.331383 236.006069 
L 143.657415 236.006069 
L 143.657415 235.628441 
L 144.16759 235.628441 
L 144.16759 235.37669 
L 144.293001 235.37669 
L 144.355394 234.74731 
L 144.541342 234.74731 
L 144.541342 234.621434 
L 360.8064 234.621434 
L 360.8064 234.621434 
" style="fill: none; stroke: #000080; stroke-width: 1.5; stroke-linecap: square"/>
   </g>
   <g id="line2d_36">
    <defs>
     <path id="m51effcda9c" d="M 0 6 
C 1.591219 6 3.117479 5.367802 4.242641 4.242641 
C 5.367802 3.117479 6 1.591219 6 0 
C 6 -1.591219 5.367802 -3.117479 4.242641 -4.242641 
C 3.117479 -5.367802 1.591219 -6 0 -6 
C -1.591219 -6 -3.117479 -5.367802 -4.242641 -4.242641 
C -5.367802 -3.117479 -6 -1.591219 -6 0 
C -6 1.591219 -5.367802 3.117479 -4.242641 4.242641 
C -3.117479 5.367802 -1.591219 6 0 6 
z
" style="stroke: #000080; stroke-width: 1.5"/>
    </defs>
    <g>
     <use xlink:href="#m51effcda9c" x="117.121023" y="266.593903" style="fill-opacity: 0; stroke: #000080; stroke-width: 1.5"/>
     <use xlink:href="#m51effcda9c" x="144.541342" y="234.74731" style="fill-opacity: 0; stroke: #000080; stroke-width: 1.5"/>
     <use xlink:href="#m51effcda9c" x="144.541342" y="234.621434" style="fill-opacity: 0; stroke: #000080; stroke-width: 1.5"/>
     <use xlink:href="#m51effcda9c" x="144.541342" y="234.621434" style="fill-opacity: 0; stroke: #000080; stroke-width: 1.5"/>
     <use xlink:href="#m51effcda9c" x="144.541342" y="234.621434" style="fill-opacity: 0; stroke: #000080; stroke-width: 1.5"/>
     <use xlink:href="#m51effcda9c" x="360.8064" y="234.621434" style="fill-opacity: 0; stroke: #000080; stroke-width: 1.5"/>
    </g>
   </g>
   <g id="line2d_37">
    <path style="fill: none; stroke: #000080; stroke-width: 1.5; stroke-linecap: square"/>
    <g/>
   </g>
   <g id="line2d_38">
    <path d="M 144.602918 234.621434 
" clip-path="url(#pc2fe8be154)" style="fill: none; stroke: #000080; stroke-width: 1.5; stroke-linecap: square"/>
    <defs>
     <path id="m6f2224aaa8" d="M -12 12 
L 12 -12 
M -12 -12 
L 12 12 
" style="stroke: #000080"/>
    </defs>
    <g clip-path="url(#pc2fe8be154)">
     <use xlink:href="#m6f2224aaa8" x="144.602918" y="234.621434" style="fill: #000080; stroke: #000080"/>
    </g>
   </g>
   <g id="line2d_39">
    <defs>
     <path id="m839d20dda0" d="M 0 1.5 
C 0.397805 1.5 0.77937 1.341951 1.06066 1.06066 
C 1.341951 0.77937 1.5 0.397805 1.5 0 
C 1.5 -0.397805 1.341951 -0.77937 1.06066 -1.06066 
C 0.77937 -1.341951 0.397805 -1.5 0 -1.5 
C -0.397805 -1.5 -0.77937 -1.341951 -1.06066 -1.06066 
C -1.341951 -0.77937 -1.5 -0.397805 -1.5 0 
C -1.5 0.397805 -1.341951 0.77937 -1.06066 1.06066 
C -0.77937 1.341951 -0.397805 1.5 0 1.5 
z
" style="stroke: #ff00ff"/>
    </defs>
    <g>
     <use xlink:href="#m839d20dda0" x="144.16759" y="227.572386" style="fill: #ff00ff; stroke: #ff00ff"/>
     <use xlink:href="#m839d20dda0" x="144.16759" y="227.572386" style="fill: #ff00ff; stroke: #ff00ff"/>
    </g>
   </g>
   <g id="line2d_40">
    <path d="M 36.933397 298.944 
L 36.933397 294.538345 
L 49.972572 294.538345 
L 49.972572 293.531338 
L 57.6 293.531338 
L 57.6 291.894952 
L 63.011746 291.894952 
L 63.011746 291.013821 
L 67.209423 291.013821 
L 67.209423 288.370428 
L 70.639174 288.370428 
L 70.639174 287.237545 
L 73.538988 287.237545 
L 73.538988 285.727034 
L 76.050921 285.727034 
L 76.050921 285.349407 
L 78.266603 285.349407 
L 78.266603 284.594152 
L 80.248597 284.594152 
L 80.248597 283.964772 
L 82.04153 283.964772 
L 82.04153 282.706014 
L 83.678349 282.706014 
L 83.678349 281.321379 
L 85.184077 281.321379 
L 85.184077 281.069628 
L 87.876026 281.069628 
L 87.876026 280.566124 
L 89.090095 280.566124 
L 89.090095 280.314372 
L 90.230539 280.314372 
L 90.230539 280.062621 
L 92.322865 280.062621 
L 92.322865 279.559117 
L 93.287772 279.559117 
L 93.287772 277.796855 
L 96.717523 277.796855 
L 96.717523 277.0416 
L 97.485448 277.0416 
L 97.485448 276.789848 
L 98.223251 276.789848 
L 98.223251 276.286345 
L 98.933205 276.286345 
L 98.933205 276.034593 
L 99.617337 276.034593 
L 99.617337 275.405214 
L 100.277459 275.405214 
L 100.277459 274.775834 
L 100.9152 274.775834 
L 100.9152 274.398207 
L 101.532027 274.398207 
L 101.532027 274.020579 
L 102.12927 274.020579 
L 102.12927 273.3912 
L 103.269713 273.3912 
L 103.269713 273.139448 
L 103.815014 273.139448 
L 103.815014 272.761821 
L 104.344952 272.761821 
L 104.344952 272.635945 
L 105.850679 272.635945 
L 105.850679 272.006566 
L 106.791453 272.006566 
L 106.791453 271.88069 
L 107.244765 271.88069 
L 107.244765 271.503062 
L 108.542628 271.503062 
L 108.542628 271.377186 
L 109.360651 271.377186 
L 109.360651 271.25131 
L 110.144579 271.25131 
L 110.144579 270.999559 
L 110.897141 270.999559 
L 110.897141 270.370179 
L 111.262425 270.370179 
L 111.262425 269.992552 
L 111.620752 269.992552 
L 111.620752 269.614924 
L 111.97238 269.614924 
L 111.97238 269.111421 
L 112.317555 269.111421 
L 112.317555 268.733793 
L 113.316634 268.733793 
L 113.316634 267.978538 
L 113.638206 267.978538 
L 113.638206 267.852662 
L 114.265316 267.852662 
L 114.265316 267.475034 
L 114.571202 267.475034 
L 114.571202 267.097407 
L 115.168444 267.097407 
L 115.168444 266.216276 
L 115.747307 266.216276 
L 115.747307 266.0904 
L 117.6436 266.0904 
L 117.6436 265.964524 
L 118.152051 265.964524 
L 118.152051 265.838648 
L 118.64712 265.838648 
L 118.64712 265.586897 
L 118.889854 265.586897 
L 118.889854 265.335145 
L 119.366121 265.335145 
L 119.366121 264.705766 
L 119.599808 264.705766 
L 119.599808 264.076386 
L 120.058649 264.076386 
L 120.058649 263.321131 
L 120.28394 263.321131 
L 120.28394 263.069379 
L 120.506564 263.069379 
L 120.506564 262.314124 
L 120.726585 262.314124 
L 120.726585 262.188248 
L 120.944062 262.188248 
L 120.944062 261.936497 
L 121.159053 261.936497 
L 121.159053 261.684745 
L 121.371615 261.684745 
L 121.371615 261.181241 
L 121.789667 261.181241 
L 121.789667 260.92949 
L 121.99526 260.92949 
L 121.99526 257.908469 
L 122.19863 257.908469 
L 122.19863 256.397959 
L 122.399825 256.397959 
L 122.399825 255.516828 
L 122.598891 255.516828 
L 122.598891 255.1392 
L 122.795872 255.1392 
L 122.795872 255.013324 
L 123.183753 255.013324 
L 123.183753 254.887448 
L 123.374735 254.887448 
L 123.374735 254.006317 
L 123.750979 254.006317 
L 123.750979 252.873434 
L 123.936316 252.873434 
L 123.936316 252.621683 
L 124.119844 252.621683 
L 124.119844 252.244055 
L 124.3016 252.244055 
L 124.3016 252.118179 
L 124.481616 252.118179 
L 124.481616 251.614676 
L 124.659926 251.614676 
L 124.659926 251.4888 
L 124.836562 251.4888 
L 124.836562 251.111172 
L 125.184934 251.111172 
L 125.184934 250.607669 
L 125.35673 250.607669 
L 125.35673 250.481793 
L 125.526971 250.481793 
L 125.526971 250.355917 
L 125.695686 250.355917 
L 125.695686 250.230041 
L 125.862901 250.230041 
L 125.862901 249.600662 
L 126.355808 249.600662 
L 126.355808 249.474786 
L 126.517282 249.474786 
L 126.517282 249.223034 
L 126.836129 249.223034 
L 126.836129 248.719531 
L 127.458055 248.719531 
L 127.458055 248.467779 
L 127.911368 248.467779 
L 127.911368 248.341903 
L 128.060076 248.341903 
L 128.060076 247.8384 
L 128.354013 247.8384 
L 128.354013 247.586648 
L 128.643427 247.586648 
L 128.643427 247.334897 
L 129.348062 247.334897 
L 129.348062 247.083145 
L 129.893363 247.083145 
L 129.893363 246.705517 
L 130.027253 246.705517 
L 130.027253 246.453766 
L 130.160198 246.453766 
L 130.160198 245.950262 
L 130.4233 245.950262 
L 130.4233 245.824386 
L 130.682774 245.824386 
L 130.682774 245.446759 
L 131.31622 245.446759 
L 131.31622 245.195007 
L 131.563744 245.195007 
L 131.563744 244.943255 
L 131.686295 244.943255 
L 131.686295 244.817379 
L 131.808053 244.817379 
L 131.808053 244.439752 
L 131.929028 244.439752 
L 131.929028 244.313876 
L 132.04923 244.313876 
L 132.04923 243.684497 
L 132.168669 243.684497 
L 132.168669 243.432745 
L 132.522502 243.432745 
L 132.522502 243.306869 
L 132.869802 243.306869 
L 132.869802 242.929241 
L 132.984158 242.929241 
L 132.984158 242.67749 
L 133.097823 242.67749 
L 133.097823 241.922234 
L 133.210806 241.922234 
L 133.210806 241.796359 
L 133.323114 241.796359 
L 133.323114 241.544607 
L 133.545739 241.544607 
L 133.656071 241.041103 
L 133.874812 241.041103 
L 133.983236 240.5376 
L 134.304809 240.5376 
L 134.304809 240.411724 
L 135.034434 240.411724 
L 135.136394 240.159972 
L 135.338671 240.159972 
L 135.338671 239.656469 
L 135.538796 239.656469 
L 135.538796 239.152966 
L 135.736814 239.152966 
L 135.736814 239.02709 
L 135.932769 239.02709 
L 135.932769 238.775338 
L 136.126705 238.775338 
L 136.222928 238.523586 
L 136.508678 238.523586 
L 136.508678 238.145959 
L 136.790153 238.145959 
L 136.790153 237.894207 
L 137.250116 237.894207 
L 137.250116 237.642455 
L 137.610157 237.642455 
L 137.699101 237.013076 
L 137.875736 237.013076 
L 137.875736 236.761324 
L 138.050729 236.761324 
L 138.137618 236.383697 
L 138.395904 236.383697 
L 138.481218 235.754317 
L 138.566146 235.754317 
L 138.650692 234.495559 
L 138.73486 234.495559 
L 138.818654 234.117931 
L 138.985129 234.117931 
L 139.067817 233.110924 
L 139.150143 233.110924 
L 139.150143 232.859172 
L 139.394983 232.859172 
L 139.394983 232.733297 
L 139.556456 232.733297 
L 139.636676 232.355669 
L 140.26641 232.355669 
L 140.26641 232.103917 
L 141.099251 232.103917 
L 141.173167 231.600414 
L 141.393187 231.600414 
L 141.393187 230.971034 
L 141.610664 230.971034 
L 141.610664 230.467531 
L 141.754265 230.467531 
L 141.754265 230.341655 
L 141.896777 230.341655 
L 141.896777 230.215779 
L 142.038218 230.215779 
L 142.108542 229.712276 
L 142.317949 229.712276 
L 142.387236 229.334648 
L 142.865233 229.334648 
L 142.865233 228.957021 
L 143.199372 228.957021 
L 143.199372 228.831145 
L 143.462475 228.831145 
L 143.52768 228.579393 
L 143.592659 228.579393 
L 143.657415 228.201766 
L 143.850356 228.201766 
L 143.850356 228.07589 
L 143.977892 228.07589 
L 143.977892 227.698262 
L 144.16759 227.698262 
L 144.16759 227.572386 
L 360.8064 227.572386 
L 360.8064 227.572386 
" style="fill: none; stroke: #ff00ff; stroke-width: 1.5; stroke-linecap: square"/>
   </g>
   <g id="line2d_41">
    <defs>
     <path id="mbeda94aa95" d="M -0 8.485281 
L 5.091169 0 
L 0 -8.485281 
L -5.091169 -0 
z
" style="stroke: #ff00ff; stroke-width: 1.5; stroke-linejoin: miter"/>
    </defs>
    <g>
     <use xlink:href="#mbeda94aa95" x="120.058649" y="263.321131" style="fill-opacity: 0; stroke: #ff00ff; stroke-width: 1.5; stroke-linejoin: miter"/>
     <use xlink:href="#mbeda94aa95" x="144.16759" y="227.698262" style="fill-opacity: 0; stroke: #ff00ff; stroke-width: 1.5; stroke-linejoin: miter"/>
     <use xlink:href="#mbeda94aa95" x="144.16759" y="227.698262" style="fill-opacity: 0; stroke: #ff00ff; stroke-width: 1.5; stroke-linejoin: miter"/>
     <use xlink:href="#mbeda94aa95" x="144.16759" y="227.572386" style="fill-opacity: 0; stroke: #ff00ff; stroke-width: 1.5; stroke-linejoin: miter"/>
     <use xlink:href="#mbeda94aa95" x="144.16759" y="227.572386" style="fill-opacity: 0; stroke: #ff00ff; stroke-width: 1.5; stroke-linejoin: miter"/>
     <use xlink:href="#mbeda94aa95" x="360.8064" y="227.572386" style="fill-opacity: 0; stroke: #ff00ff; stroke-width: 1.5; stroke-linejoin: miter"/>
    </g>
   </g>
   <g id="line2d_42">
    <path style="fill: none; stroke: #ff00ff; stroke-width: 1.5; stroke-linecap: square"/>
    <g/>
   </g>
   <g id="line2d_43">
    <path d="M 144.417581 227.572386 
" clip-path="url(#pc2fe8be154)" style="fill: none; stroke: #ff00ff; stroke-width: 1.5; stroke-linecap: square"/>
    <defs>
     <path id="m4bec6b08a0" d="M -12 12 
L 12 -12 
M -12 -12 
L 12 12 
" style="stroke: #ff00ff"/>
    </defs>
    <g clip-path="url(#pc2fe8be154)">
     <use xlink:href="#m4bec6b08a0" x="144.417581" y="227.572386" style="fill: #ff00ff; stroke: #ff00ff"/>
    </g>
   </g>
   <g id="line2d_44">
    <defs>
     <path id="m7ae7f9a3fc" d="M 0 1.5 
C 0.397805 1.5 0.77937 1.341951 1.06066 1.06066 
C 1.341951 0.77937 1.5 0.397805 1.5 0 
C 1.5 -0.397805 1.341951 -0.77937 1.06066 -1.06066 
C 0.77937 -1.341951 0.397805 -1.5 0 -1.5 
C -0.397805 -1.5 -0.77937 -1.341951 -1.06066 -1.06066 
C -1.341951 -0.77937 -1.5 -0.397805 -1.5 0 
C -1.5 0.397805 -1.341951 0.77937 -1.06066 1.06066 
C -0.77937 1.341951 -0.397805 1.5 0 1.5 
z
" style="stroke: #ff7500"/>
    </defs>
    <g>
     <use xlink:href="#m7ae7f9a3fc" x="143.592659" y="241.166979" style="fill: #ff7500; stroke: #ff7500"/>
     <use xlink:href="#m7ae7f9a3fc" x="143.592659" y="241.166979" style="fill: #ff7500; stroke: #ff7500"/>
    </g>
   </g>
   <g id="line2d_45">
    <path d="M 36.933397 298.944 
L 36.933397 294.538345 
L 49.972572 294.538345 
L 49.972572 290.006814 
L 80.248597 290.006814 
L 80.248597 287.363421 
L 91.305777 287.363421 
L 91.305777 284.216524 
L 98.223251 284.216524 
L 98.223251 282.328386 
L 103.269713 282.328386 
L 103.269713 281.069628 
L 107.244765 281.069628 
L 107.244765 279.307366 
L 110.524623 279.307366 
L 110.524623 274.146455 
L 113.316634 274.146455 
L 113.316634 272.384193 
L 115.747307 272.384193 
L 115.747307 271.754814 
L 117.899543 271.754814 
L 117.899543 270.873683 
L 119.830627 270.873683 
L 119.830627 269.489048 
L 121.581803 269.489048 
L 121.581803 268.356166 
L 123.183753 268.356166 
L 123.183753 267.475034 
L 124.659926 267.475034 
L 124.659926 264.705766 
L 126.028642 264.705766 
L 126.028642 261.936497 
L 127.304491 261.936497 
L 127.304491 260.425986 
L 128.499277 260.425986 
L 128.499277 259.796607 
L 129.622688 259.796607 
L 129.622688 257.027338 
L 130.682774 257.027338 
L 130.682774 256.020331 
L 131.686295 256.020331 
L 131.686295 255.265076 
L 132.638982 255.265076 
L 132.638982 254.761572 
L 133.545739 254.761572 
L 133.545739 253.251062 
L 134.41079 253.251062 
L 134.41079 251.740552 
L 135.237805 251.740552 
L 135.237805 251.237048 
L 136.029987 251.237048 
L 136.029987 250.733545 
L 136.790153 250.733545 
L 136.790153 249.34891 
L 137.520791 249.34891 
L 137.520791 248.845407 
L 138.224108 248.845407 
L 138.224108 247.586648 
L 138.902075 247.586648 
L 138.902075 246.705517 
L 139.556456 246.705517 
L 139.556456 246.579641 
L 140.188837 246.579641 
L 140.188837 246.453766 
L 140.800648 246.453766 
L 140.800648 245.950262 
L 141.393187 245.950262 
L 141.393187 244.943255 
L 141.96763 244.943255 
L 141.96763 243.432745 
L 142.525051 243.432745 
L 142.525051 242.551614 
L 143.066428 242.551614 
L 143.066428 241.796359 
L 143.592659 241.796359 
L 143.592659 241.166979 
L 360.8064 241.166979 
" style="fill: none; stroke: #ff7500; stroke-width: 1.5; stroke-linecap: square"/>
   </g>
   <g id="line2d_46">
    <defs>
     <path id="mb20509d989" d="M 0 -6 
L -1.347084 -1.854102 
L -5.706339 -1.854102 
L -2.179628 0.708204 
L -3.526712 4.854102 
L -0 2.291796 
L 3.526712 4.854102 
L 2.179628 0.708204 
L 5.706339 -1.854102 
L 1.347084 -1.854102 
z
" style="stroke: #ff7500; stroke-width: 1.5; stroke-linejoin: bevel"/>
    </defs>
    <g>
     <use xlink:href="#mb20509d989" x="127.304491" y="260.425986" style="fill-opacity: 0; stroke: #ff7500; stroke-width: 1.5; stroke-linejoin: bevel"/>
     <use xlink:href="#mb20509d989" x="143.592659" y="241.796359" style="fill-opacity: 0; stroke: #ff7500; stroke-width: 1.5; stroke-linejoin: bevel"/>
     <use xlink:href="#mb20509d989" x="143.592659" y="241.166979" style="fill-opacity: 0; stroke: #ff7500; stroke-width: 1.5; stroke-linejoin: bevel"/>
     <use xlink:href="#mb20509d989" x="143.592659" y="241.166979" style="fill-opacity: 0; stroke: #ff7500; stroke-width: 1.5; stroke-linejoin: bevel"/>
     <use xlink:href="#mb20509d989" x="143.592659" y="241.166979" style="fill-opacity: 0; stroke: #ff7500; stroke-width: 1.5; stroke-linejoin: bevel"/>
     <use xlink:href="#mb20509d989" x="360.8064" y="241.166979" style="fill-opacity: 0; stroke: #ff7500; stroke-width: 1.5; stroke-linejoin: bevel"/>
    </g>
   </g>
   <g id="line2d_47">
    <path style="fill: none; stroke: #ff7500; stroke-width: 1.5; stroke-linecap: square"/>
    <g/>
   </g>
   <g id="line2d_48">
    <path d="M 144.041338 241.166979 
" clip-path="url(#pc2fe8be154)" style="fill: none; stroke: #ff7500; stroke-width: 1.5; stroke-linecap: square"/>
    <defs>
     <path id="m12f76bae05" d="M -12 12 
L 12 -12 
M -12 -12 
L 12 12 
" style="stroke: #ff7500"/>
    </defs>
    <g clip-path="url(#pc2fe8be154)">
     <use xlink:href="#m12f76bae05" x="144.041338" y="241.166979" style="fill: #ff7500; stroke: #ff7500"/>
    </g>
   </g>
   <g id="line2d_49">
    <defs>
     <path id="m6060110791" d="M 0 1.5 
C 0.397805 1.5 0.77937 1.341951 1.06066 1.06066 
C 1.341951 0.77937 1.5 0.397805 1.5 0 
C 1.5 -0.397805 1.341951 -0.77937 1.06066 -1.06066 
C 0.77937 -1.341951 0.397805 -1.5 0 -1.5 
C -0.397805 -1.5 -0.77937 -1.341951 -1.06066 -1.06066 
C -1.341951 -0.77937 -1.5 -0.397805 -1.5 0 
C -1.5 0.397805 -1.341951 0.77937 -1.06066 1.06066 
C -0.77937 1.341951 -0.397805 1.5 0 1.5 
z
" style="stroke: #6495ed"/>
    </defs>
    <g>
     <use xlink:href="#m6060110791" x="143.657415" y="239.656469" style="fill: #6495ed; stroke: #6495ed"/>
     <use xlink:href="#m6060110791" x="143.657415" y="239.656469" style="fill: #6495ed; stroke: #6495ed"/>
    </g>
   </g>
   <g id="line2d_50">
    <path d="M 36.933397 298.944 
L 36.933397 294.538345 
L 49.972572 294.538345 
L 49.972572 290.762069 
L 76.050921 290.762069 
L 76.050921 288.622179 
L 80.248597 288.622179 
L 80.248597 285.978786 
L 86.578163 285.978786 
L 86.578163 285.475283 
L 89.090095 285.475283 
L 89.090095 285.349407 
L 91.305777 285.349407 
L 91.305777 284.971779 
L 95.080704 284.971779 
L 95.080704 283.587145 
L 96.717523 283.587145 
L 96.717523 282.83189 
L 98.223251 282.83189 
L 98.223251 282.076634 
L 99.617337 282.076634 
L 99.617337 281.573131 
L 100.9152 281.573131 
L 100.9152 280.314372 
L 103.269713 280.314372 
L 103.269713 280.062621 
L 105.36204 280.062621 
L 105.36204 279.810869 
L 106.326946 279.810869 
L 106.326946 279.684993 
L 107.244765 279.684993 
L 107.244765 279.307366 
L 108.119879 279.307366 
L 108.119879 278.929738 
L 110.524623 278.929738 
L 110.524623 278.174483 
L 111.97238 278.174483 
L 111.97238 278.048607 
L 112.656511 278.048607 
L 112.656511 277.922731 
L 113.316634 277.922731 
L 113.316634 277.167476 
L 114.571202 277.167476 
L 114.571202 276.034593 
L 115.168444 276.034593 
L 115.168444 274.649959 
L 116.854188 274.649959 
L 116.854188 273.642952 
L 117.899543 273.642952 
L 117.899543 272.635945 
L 118.401214 272.635945 
L 118.401214 272.384193 
L 118.889854 272.384193 
L 118.889854 272.258317 
L 119.366121 272.258317 
L 119.366121 269.992552 
L 119.830627 269.992552 
L 119.830627 269.866676 
L 120.506564 269.866676 
L 120.506564 269.489048 
L 120.726585 269.489048 
L 120.726585 268.733793 
L 121.371615 268.733793 
L 121.371615 268.607917 
L 121.789667 268.607917 
L 121.789667 268.356166 
L 122.399825 268.356166 
L 122.399825 268.104414 
L 122.795872 268.104414 
L 122.795872 267.978538 
L 123.563797 267.978538 
L 123.563797 267.852662 
L 123.936316 267.852662 
L 123.936316 267.223283 
L 124.3016 267.223283 
L 124.3016 267.097407 
L 124.659926 267.097407 
L 124.659926 266.971531 
L 125.011554 266.971531 
L 125.011554 266.216276 
L 125.184934 266.216276 
L 125.184934 265.461021 
L 125.35673 265.461021 
L 125.35673 265.335145 
L 125.526971 265.335145 
L 125.526971 265.209269 
L 126.028642 265.209269 
L 126.028642 264.57989 
L 126.355808 264.57989 
L 126.355808 264.454014 
L 126.517282 264.454014 
L 126.517282 264.076386 
L 126.677381 264.076386 
L 126.677381 262.565876 
L 126.993549 262.565876 
L 126.993549 262.188248 
L 127.304491 262.188248 
L 127.304491 261.307117 
L 127.761474 261.307117 
L 127.761474 261.055366 
L 127.911368 261.055366 
L 127.911368 260.174234 
L 128.207619 260.174234 
L 128.207619 259.418979 
L 129.348062 259.418979 
L 129.348062 259.167228 
L 129.893363 259.167228 
L 129.893363 258.537848 
L 130.027253 258.537848 
L 130.027253 258.160221 
L 130.160198 258.160221 
L 130.160198 257.908469 
L 130.4233 257.908469 
L 130.4233 256.64971 
L 130.553485 256.64971 
L 130.553485 256.523834 
L 130.682774 256.523834 
L 130.682774 256.020331 
L 130.811181 256.020331 
L 130.811181 255.894455 
L 130.938718 255.894455 
L 130.938718 255.390952 
L 131.065395 255.390952 
L 131.065395 255.265076 
L 131.440389 255.265076 
L 131.440389 255.1392 
L 131.808053 255.1392 
L 131.808053 254.761572 
L 132.168669 254.761572 
L 132.168669 254.383945 
L 132.287354 254.383945 
L 132.287354 254.006317 
L 132.638982 254.006317 
L 132.638982 253.502814 
L 132.869802 253.502814 
L 132.869802 253.376938 
L 132.984158 253.376938 
L 132.984158 253.125186 
L 133.210806 253.125186 
L 133.210806 252.99931 
L 133.434756 252.99931 
L 133.434756 252.873434 
L 133.765759 252.873434 
L 133.765759 252.747559 
L 133.983236 252.747559 
L 134.091039 251.866428 
L 134.198228 251.866428 
L 134.198228 251.740552 
L 134.41079 251.740552 
L 134.41079 251.111172 
L 134.725196 251.111172 
L 134.725196 250.985297 
L 134.931919 250.985297 
L 134.931919 250.355917 
L 135.237805 250.355917 
L 135.237805 249.852414 
L 135.736814 249.852414 
L 135.736814 249.600662 
L 135.932769 249.600662 
L 135.932769 249.34891 
L 136.318661 249.34891 
L 136.413909 248.845407 
L 136.696795 248.845407 
L 136.696795 247.964276 
L 136.88305 247.964276 
L 136.88305 247.712524 
L 137.159019 247.712524 
L 137.159019 247.460772 
L 137.430998 247.460772 
L 137.430998 247.334897 
L 137.963436 247.334897 
L 137.963436 247.083145 
L 138.137618 247.083145 
L 138.224108 246.705517 
L 138.310202 246.705517 
L 138.310202 246.579641 
L 138.566146 246.579641 
L 138.566146 246.32789 
L 139.150143 246.32789 
L 139.232111 245.69851 
L 139.636676 245.69851 
L 139.636676 245.446759 
L 139.796097 245.446759 
L 139.796097 245.320883 
L 139.954178 245.320883 
L 139.954178 245.195007 
L 140.26641 245.195007 
L 140.343665 244.313876 
L 140.420604 244.313876 
L 140.420604 244.188 
L 140.875745 244.188 
L 140.875745 244.062124 
L 141.099251 244.062124 
L 141.173167 243.558621 
L 141.465959 243.558621 
L 141.465959 243.432745 
L 141.610664 243.432745 
L 141.682602 243.180993 
L 141.754265 243.180993 
L 141.754265 242.803366 
L 142.108542 242.803366 
L 142.108542 241.922234 
L 142.248405 241.922234 
L 142.248405 241.418731 
L 142.45627 241.418731 
L 142.45627 241.166979 
L 142.661862 241.166979 
L 142.661862 241.041103 
L 142.932537 241.041103 
L 142.932537 240.915228 
L 143.066428 240.915228 
L 143.066428 240.285848 
L 143.331383 240.285848 
L 143.397043 239.908221 
L 143.592659 239.908221 
L 143.657415 239.656469 
L 360.8064 239.656469 
L 360.8064 239.656469 
" style="fill: none; stroke: #6495ed; stroke-width: 1.5; stroke-linecap: square"/>
   </g>
   <g id="line2d_51">
    <defs>
     <path id="m85246197ca" d="M -0 6 
L 6 -6 
L -6 -6 
z
" style="stroke: #6495ed; stroke-width: 1.5; stroke-linejoin: miter"/>
    </defs>
    <g>
     <use xlink:href="#m85246197ca" x="142.248405" y="241.418731" style="fill-opacity: 0; stroke: #6495ed; stroke-width: 1.5; stroke-linejoin: miter"/>
     <use xlink:href="#m85246197ca" x="143.657415" y="239.782345" style="fill-opacity: 0; stroke: #6495ed; stroke-width: 1.5; stroke-linejoin: miter"/>
     <use xlink:href="#m85246197ca" x="143.657415" y="239.656469" style="fill-opacity: 0; stroke: #6495ed; stroke-width: 1.5; stroke-linejoin: miter"/>
     <use xlink:href="#m85246197ca" x="143.657415" y="239.656469" style="fill-opacity: 0; stroke: #6495ed; stroke-width: 1.5; stroke-linejoin: miter"/>
     <use xlink:href="#m85246197ca" x="360.8064" y="239.656469" style="fill-opacity: 0; stroke: #6495ed; stroke-width: 1.5; stroke-linejoin: miter"/>
    </g>
   </g>
   <g id="line2d_52">
    <path style="fill: none; stroke: #6495ed; stroke-width: 1.5; stroke-linecap: square"/>
    <g/>
   </g>
   <g id="line2d_53">
    <path d="M 143.977892 239.656469 
" clip-path="url(#pc2fe8be154)" style="fill: none; stroke: #6495ed; stroke-width: 1.5; stroke-linecap: square"/>
    <defs>
     <path id="m4999181378" d="M -12 12 
L 12 -12 
M -12 -12 
L 12 12 
" style="stroke: #6495ed"/>
    </defs>
    <g clip-path="url(#pc2fe8be154)">
     <use xlink:href="#m4999181378" x="143.977892" y="239.656469" style="fill: #6495ed; stroke: #6495ed"/>
    </g>
   </g>
   <g id="line2d_54">
    <defs>
     <path id="mb77b4b21b9" d="M 0 1.5 
C 0.397805 1.5 0.77937 1.341951 1.06066 1.06066 
C 1.341951 0.77937 1.5 0.397805 1.5 0 
C 1.5 -0.397805 1.341951 -0.77937 1.06066 -1.06066 
C 0.77937 -1.341951 0.397805 -1.5 0 -1.5 
C -0.397805 -1.5 -0.77937 -1.341951 -1.06066 -1.06066 
C -1.341951 -0.77937 -1.5 -0.397805 -1.5 0 
C -1.5 0.397805 -1.341951 0.77937 -1.06066 1.06066 
C -0.77937 1.341951 -0.397805 1.5 0 1.5 
z
" style="stroke: #ff0000"/>
    </defs>
    <g>
     <use xlink:href="#mb77b4b21b9" x="203.238434" y="174.578648" style="fill: #ff0000; stroke: #ff0000"/>
     <use xlink:href="#mb77b4b21b9" x="203.238434" y="174.578648" style="fill: #ff0000; stroke: #ff0000"/>
    </g>
   </g>
   <g id="line2d_55">
    <path d="M 36.933397 298.944 
L 36.933397 294.538345 
L 49.972572 294.538345 
L 49.972572 293.15371 
L 57.6 293.15371 
L 57.6 292.146703 
L 67.209423 292.146703 
L 67.209423 290.887945 
L 70.639174 290.887945 
L 70.639174 290.384441 
L 73.538988 290.384441 
L 73.538988 289.629186 
L 76.050921 289.629186 
L 76.050921 288.873931 
L 78.266603 288.873931 
L 78.266603 287.9928 
L 82.04153 287.9928 
L 82.04153 287.363421 
L 83.678349 287.363421 
L 83.678349 286.104662 
L 85.184077 286.104662 
L 85.184077 284.971779 
L 87.876026 284.971779 
L 87.876026 284.468276 
L 90.230539 284.468276 
L 90.230539 283.964772 
L 91.305777 283.964772 
L 91.305777 283.838897 
L 92.322865 283.838897 
L 92.322865 282.328386 
L 93.287772 282.328386 
L 93.287772 281.699007 
L 94.205591 281.699007 
L 94.205591 281.447255 
L 95.916911 281.447255 
L 95.916911 281.195503 
L 96.717523 281.195503 
L 96.717523 281.069628 
L 98.223251 281.069628 
L 98.223251 280.692 
L 98.933205 280.692 
L 98.933205 279.433241 
L 99.617337 279.433241 
L 99.617337 279.307366 
L 101.532027 279.307366 
L 101.532027 278.929738 
L 102.12927 278.929738 
L 102.12927 278.174483 
L 102.708132 278.174483 
L 102.708132 277.419228 
L 103.815014 277.419228 
L 103.815014 275.656966 
L 104.344952 275.656966 
L 104.344952 275.405214 
L 104.860369 275.405214 
L 104.860369 275.153462 
L 105.850679 275.153462 
L 105.850679 273.265324 
L 106.791453 273.265324 
L 106.791453 273.139448 
L 107.244765 273.139448 
L 107.244765 272.384193 
L 107.68741 272.384193 
L 107.68741 272.132441 
L 108.542628 272.132441 
L 108.542628 272.006566 
L 108.956085 272.006566 
L 108.956085 271.754814 
L 110.144579 271.754814 
L 110.144579 271.377186 
L 111.262425 271.377186 
L 111.262425 270.873683 
L 111.620752 270.873683 
L 111.620752 270.496055 
L 111.97238 270.496055 
L 111.97238 269.992552 
L 112.317555 269.992552 
L 112.317555 269.489048 
L 113.638206 269.489048 
L 113.638206 269.237297 
L 113.954374 269.237297 
L 113.954374 268.733793 
L 114.265316 268.733793 
L 114.265316 268.482041 
L 114.571202 268.482041 
L 114.571202 268.104414 
L 114.872193 268.104414 
L 114.872193 267.475034 
L 115.747307 267.475034 
L 115.747307 267.223283 
L 116.030193 267.223283 
L 116.030193 267.097407 
L 116.308887 267.097407 
L 116.308887 266.971531 
L 117.121023 266.971531 
L 117.121023 266.468028 
L 117.6436 266.468028 
L 117.6436 266.216276 
L 117.899543 266.216276 
L 117.899543 265.964524 
L 118.152051 265.964524 
L 118.152051 265.335145 
L 118.889854 265.335145 
L 118.889854 265.209269 
L 119.599808 265.209269 
L 119.599808 264.454014 
L 120.058649 264.454014 
L 120.058649 264.076386 
L 120.28394 264.076386 
L 120.28394 263.824634 
L 120.506564 263.824634 
L 120.506564 263.447007 
L 120.944062 263.447007 
L 120.944062 262.943503 
L 121.789667 262.943503 
L 121.789667 262.691752 
L 121.99526 262.691752 
L 121.99526 262.565876 
L 122.19863 262.565876 
L 122.19863 262.314124 
L 122.598891 262.314124 
L 122.598891 261.558869 
L 122.990812 261.558869 
L 122.990812 260.92949 
L 123.374735 260.92949 
L 123.374735 260.30011 
L 123.936316 260.30011 
L 123.936316 260.174234 
L 124.659926 260.174234 
L 124.659926 259.922483 
L 124.836562 259.922483 
L 124.836562 259.293103 
L 125.184934 259.293103 
L 125.184934 258.915476 
L 125.35673 258.915476 
L 125.35673 258.411972 
L 125.695686 258.411972 
L 125.695686 258.160221 
L 126.192937 258.160221 
L 126.192937 257.530841 
L 126.517282 257.530841 
L 126.517282 257.404966 
L 127.458055 257.404966 
L 127.458055 257.027338 
L 127.761474 257.027338 
L 127.761474 256.775586 
L 127.911368 256.775586 
L 127.911368 256.272083 
L 128.499277 256.272083 
L 128.499277 256.020331 
L 128.643427 256.020331 
L 128.643427 255.265076 
L 128.786481 255.265076 
L 128.786481 254.887448 
L 128.928456 254.887448 
L 128.928456 254.258069 
L 129.069367 254.258069 
L 129.069367 254.132193 
L 129.209231 254.132193 
L 129.209231 253.880441 
L 129.348062 253.880441 
L 129.348062 253.754566 
L 129.485876 253.754566 
L 129.485876 253.251062 
L 129.622688 253.251062 
L 129.622688 252.873434 
L 129.758512 252.873434 
L 129.758512 252.495807 
L 130.292209 252.495807 
L 130.292209 252.244055 
L 130.811181 252.244055 
L 130.811181 251.740552 
L 131.563744 251.740552 
L 131.563744 251.362924 
L 131.808053 251.362924 
L 131.808053 251.237048 
L 131.929028 251.237048 
L 131.929028 250.481793 
L 132.522502 250.481793 
L 132.522502 250.230041 
L 132.754746 250.230041 
L 132.754746 249.852414 
L 133.210806 249.852414 
L 133.210806 249.726538 
L 133.434756 249.726538 
L 133.434756 248.593655 
L 133.656071 248.593655 
L 133.656071 248.467779 
L 134.198228 248.467779 
L 134.198228 248.216028 
L 134.516177 248.216028 
L 134.620977 247.083145 
L 135.034434 247.083145 
L 135.034434 246.957269 
L 135.338671 246.957269 
L 135.338671 246.453766 
L 135.736814 246.453766 
L 135.736814 246.32789 
L 136.126705 246.32789 
L 136.222928 245.950262 
L 136.508678 245.950262 
L 136.508678 245.824386 
L 136.696795 245.824386 
L 136.790153 245.320883 
L 136.88305 245.320883 
L 136.88305 244.188 
L 137.067478 244.188 
L 137.067478 243.558621 
L 137.430998 243.558621 
L 137.430998 242.803366 
L 137.610157 242.803366 
L 137.610157 242.67749 
L 137.787626 242.67749 
L 137.787626 242.04811 
L 137.963436 242.04811 
L 137.963436 241.922234 
L 138.137618 241.922234 
L 138.224108 241.418731 
L 138.310202 241.418731 
L 138.395904 241.041103 
L 138.481218 241.041103 
L 138.481218 240.915228 
L 139.150143 240.915228 
L 139.232111 240.411724 
L 139.394983 240.411724 
L 139.394983 240.034097 
L 139.636676 240.034097 
L 139.716555 239.404717 
L 139.796097 239.404717 
L 139.796097 239.278841 
L 140.26641 239.278841 
L 140.26641 238.775338 
L 140.950542 238.775338 
L 140.950542 238.649462 
L 141.393187 238.649462 
L 141.465959 238.271834 
L 141.754265 238.271834 
L 141.754265 238.020083 
L 141.896777 238.020083 
L 141.896777 237.768331 
L 142.038218 237.768331 
L 142.038218 237.516579 
L 142.317949 237.516579 
L 142.317949 236.8872 
L 142.593581 236.8872 
L 142.593581 236.383697 
L 142.729897 236.383697 
L 142.729897 236.131945 
L 143.133017 236.131945 
L 143.133017 236.006069 
L 143.265494 236.006069 
L 143.265494 235.754317 
L 143.462475 235.754317 
L 143.52768 234.999062 
L 143.657415 234.999062 
L 143.657415 234.621434 
L 144.041338 234.621434 
L 144.041338 234.369683 
L 144.16759 234.369683 
L 144.16759 234.243807 
L 144.664294 234.243807 
L 144.664294 233.866179 
L 144.847227 233.866179 
L 144.847227 233.740303 
L 145.908976 233.740303 
L 145.908976 233.488552 
L 146.080251 233.488552 
L 146.080251 233.362676 
L 146.193574 233.362676 
L 146.193574 233.2368 
L 146.529503 233.2368 
L 146.584913 232.733297 
L 146.913986 232.733297 
L 146.913986 232.607421 
L 147.183884 232.607421 
L 147.183884 232.481545 
L 147.502732 232.481545 
L 147.607824 232.229793 
L 147.764371 232.229793 
L 147.868016 231.474538 
L 148.073609 231.474538 
L 148.073609 231.348662 
L 148.226342 231.348662 
L 148.226342 231.09691 
L 148.428077 231.09691 
L 148.428077 230.845159 
L 148.627671 230.845159 
L 148.627671 230.719283 
L 149.020615 230.719283 
L 149.069161 230.341655 
L 149.357835 230.341655 
L 149.40552 230.089903 
L 149.642146 230.089903 
L 149.642146 229.460524 
L 149.782707 229.460524 
L 149.782707 229.334648 
L 150.152479 229.334648 
L 150.243797 228.831145 
L 150.289291 228.831145 
L 150.289291 228.579393 
L 151.176793 228.579393 
L 151.263283 227.824138 
L 151.392277 227.824138 
L 151.477784 227.44651 
L 151.562904 227.44651 
L 151.562904 227.068883 
L 151.94125 227.068883 
L 151.94125 226.691255 
L 152.271285 226.691255 
L 152.352898 226.439503 
L 152.555392 226.439503 
L 152.555392 226.313628 
L 153.150116 226.313628 
L 153.189104 225.936 
L 153.305585 225.936 
L 153.305585 225.684248 
L 153.5746 225.684248 
L 153.5746 225.558372 
L 153.802162 225.558372 
L 153.877408 224.803117 
L 154.027004 224.803117 
L 154.027004 224.42549 
L 154.24919 224.42549 
L 154.285968 223.921986 
L 155.252711 223.921986 
L 155.28758 223.544359 
L 155.598521 223.544359 
L 155.598521 223.418483 
L 155.802997 223.418483 
L 155.802997 223.292607 
L 156.105602 223.292607 
L 156.105602 223.166731 
L 156.728884 223.166731 
L 156.793307 222.789103 
L 157.080512 222.789103 
L 157.143744 222.411476 
L 157.363398 222.411476 
L 157.363398 222.033848 
L 157.580516 222.033848 
L 157.672805 221.278593 
L 157.703468 221.278593 
L 157.703468 221.026841 
L 157.916719 221.026841 
L 157.977206 220.649214 
L 158.0976 220.649214 
L 158.0976 220.397462 
L 158.276759 220.397462 
L 158.276759 220.271586 
L 158.804221 220.271586 
L 158.804221 219.642207 
L 158.919453 219.642207 
L 158.976805 219.264579 
L 159.119425 219.264579 
L 159.119425 219.138703 
L 159.232748 219.138703 
L 159.260973 218.761076 
L 159.485256 218.761076 
L 159.513105 218.257572 
L 159.651731 218.257572 
L 159.651731 218.005821 
L 159.844108 218.005821 
L 159.953161 217.250566 
L 160.142495 217.250566 
L 160.142495 216.621186 
L 160.383158 216.621186 
L 160.4627 216.243559 
L 160.594526 216.243559 
L 160.594526 216.117683 
L 160.984551 216.117683 
L 160.984551 215.991807 
L 161.112783 215.991807 
L 161.112783 215.740055 
L 161.265517 215.740055 
L 161.265517 215.614179 
L 161.391854 215.614179 
L 161.492316 215.110676 
L 161.74115 215.110676 
L 161.815163 214.481297 
L 161.96232 214.481297 
L 162.03547 213.851917 
L 162.349204 213.851917 
L 162.373122 213.47429 
L 162.751732 213.47429 
L 162.751732 213.222538 
L 163.351171 213.222538 
L 163.351171 213.096662 
L 163.666204 213.096662 
L 163.688506 212.719034 
L 163.777449 212.719034 
L 163.777449 212.467283 
L 163.910081 212.467283 
L 164.019898 211.963779 
L 164.063646 211.963779 
L 164.063646 211.712028 
L 164.367065 211.712028 
L 164.367065 211.3344 
L 164.538274 211.3344 
L 164.538274 211.208524 
L 164.665667 211.208524 
L 164.665667 211.082648 
L 164.93876 211.082648 
L 164.959603 210.705021 
L 165.166781 210.705021 
L 165.166781 210.201517 
L 165.41242 210.201517 
L 165.45305 209.82389 
L 165.534047 209.82389 
L 165.534047 209.572138 
L 165.674958 209.572138 
L 165.674958 209.320386 
L 166.169767 209.320386 
L 166.247742 208.691007 
L 166.651893 208.691007 
L 166.651893 208.439255 
L 166.784704 208.439255 
L 166.841337 208.187503 
L 166.935348 208.187503 
L 166.972821 207.432248 
L 167.084795 207.432248 
L 167.1776 206.802869 
L 167.380174 206.802869 
L 167.380174 206.551117 
L 167.707023 206.551117 
L 167.707023 206.425241 
L 167.957371 206.425241 
L 167.992864 206.17349 
L 168.239461 206.17349 
L 168.239461 205.921738 
L 168.465585 205.921738 
L 168.517384 205.418234 
L 168.620556 205.418234 
L 168.620556 205.166483 
L 168.859111 205.166483 
L 168.926718 204.662979 
L 168.994082 204.662979 
L 168.994082 204.537103 
L 169.161446 204.537103 
L 169.261154 204.285352 
L 169.327334 204.285352 
L 169.393282 203.907724 
L 169.491772 203.907724 
L 169.491772 203.781848 
L 169.687218 203.781848 
L 169.768058 203.152469 
L 169.848553 203.152469 
L 169.848553 203.026593 
L 170.103845 203.026593 
L 170.214455 202.648966 
L 170.37135 202.648966 
L 170.418164 202.397214 
L 170.526947 202.397214 
L 170.588827 202.019586 
L 170.864796 202.019586 
L 170.940741 201.516083 
L 171.211632 201.516083 
L 171.211632 201.390207 
L 171.596158 201.390207 
L 171.625414 200.886703 
L 171.872269 200.886703 
L 171.958627 200.509076 
L 172.015979 200.509076 
L 172.015979 200.3832 
L 172.144386 200.3832 
L 172.243656 199.753821 
L 172.524431 199.753821 
L 172.62172 199.376193 
L 172.801076 199.376193 
L 172.801076 199.124441 
L 172.965131 199.124441 
L 172.965131 198.998566 
L 173.10076 198.998566 
L 173.10076 198.746814 
L 173.235417 198.746814 
L 173.235417 198.495062 
L 173.422332 198.495062 
L 173.422332 198.369186 
L 173.567903 198.369186 
L 173.607409 197.865683 
L 174.087951 197.865683 
L 174.11358 197.488055 
L 174.253918 197.488055 
L 174.253918 197.362179 
L 174.431028 197.362179 
L 174.431028 197.236303 
L 174.556523 197.236303 
L 174.656319 196.481048 
L 174.681186 196.481048 
L 174.693607 196.103421 
L 174.989276 196.103421 
L 174.989276 195.977545 
L 175.123253 195.977545 
L 175.183838 195.474041 
L 175.292401 195.474041 
L 175.376408 195.22229 
L 175.55517 195.22229 
L 175.661617 194.718786 
L 175.755734 194.718786 
L 175.826014 194.467034 
L 175.988986 194.467034 
L 176.035292 193.963531 
L 176.127562 193.963531 
L 176.219382 193.334152 
L 176.299358 193.334152 
L 176.401688 192.578897 
L 176.816624 192.578897 
L 176.927215 192.075393 
L 177.233457 192.075393 
L 177.233457 191.949517 
L 177.373963 191.949517 
L 177.449188 191.194262 
L 177.630634 191.194262 
L 177.736555 190.816634 
L 177.998778 190.816634 
L 178.07155 190.313131 
L 178.318938 190.313131 
L 178.318938 190.187255 
L 178.603505 190.187255 
L 178.704102 189.935503 
L 178.754199 189.935503 
L 178.804164 189.557876 
L 179.30636 189.557876 
L 179.30636 189.432 
L 179.432255 189.432 
L 179.490078 189.054372 
L 179.643407 189.054372 
L 179.643407 188.928497 
L 179.889933 188.928497 
L 179.946368 188.676745 
L 180.011995 188.676745 
L 180.058732 188.299117 
L 180.19825 188.299117 
L 180.272238 187.543862 
L 180.428504 187.543862 
L 180.428504 187.29211 
L 180.556226 187.29211 
L 180.556226 187.040359 
L 180.827031 187.040359 
L 180.880727 186.662731 
L 181.164546 186.662731 
L 181.164546 186.536855 
L 181.322333 186.536855 
L 181.322333 186.410979 
L 181.539308 186.410979 
L 181.582404 185.907476 
L 181.881346 185.907476 
L 181.881346 185.278097 
L 182.192288 185.278097 
L 182.192288 185.152221 
L 182.316895 185.152221 
L 182.316895 185.026345 
L 182.440683 185.026345 
L 182.440683 184.774593 
L 182.839472 184.774593 
L 182.911809 184.522841 
L 182.951876 184.522841 
L 182.991858 184.27109 
L 183.206305 184.27109 
L 183.308692 183.893462 
L 183.449544 183.893462 
L 183.542864 183.264083 
L 183.573867 183.264083 
L 183.620277 182.886455 
L 184.002639 182.886455 
L 184.002639 182.634703 
L 184.213415 182.634703 
L 184.213415 182.382952 
L 184.340243 182.382952 
L 184.340243 182.1312 
L 184.510485 182.1312 
L 184.532577 181.753572 
L 184.649966 181.753572 
L 184.649966 181.627697 
L 184.79568 181.627697 
L 184.897012 181.250069 
L 185.083765 181.250069 
L 185.083765 181.124193 
L 185.346371 181.124193 
L 185.381579 180.872441 
L 185.46581 180.872441 
L 185.46581 180.746566 
L 185.667825 180.746566 
L 185.743887 180.243062 
L 185.942953 180.243062 
L 185.94978 179.99131 
L 186.294707 179.99131 
L 186.354926 179.487807 
L 186.607077 179.487807 
L 186.607077 179.361931 
L 186.946739 179.361931 
L 186.946739 179.236055 
L 187.210292 179.236055 
L 187.305798 178.732552 
L 187.381856 178.732552 
L 187.413456 177.977297 
L 188.138139 177.977297 
L 188.138139 177.851421 
L 188.94103 177.851421 
L 188.94103 177.725545 
L 189.56518 177.725545 
L 189.56518 177.473793 
L 189.750131 177.473793 
L 189.750131 177.222041 
L 190.021443 177.222041 
L 190.076335 176.844414 
L 190.536563 176.844414 
L 190.536563 176.718538 
L 190.653869 176.718538 
L 190.664497 176.215034 
L 190.912542 176.215034 
L 190.912542 175.963283 
L 191.873253 175.963283 
L 191.873253 175.711531 
L 192.490724 175.711531 
L 192.490724 175.585655 
L 193.852757 175.585655 
L 193.852757 175.459779 
L 195.298022 175.459779 
L 195.298022 175.333903 
L 196.213863 175.333903 
L 196.213863 175.208028 
L 196.504304 175.208028 
L 196.504304 175.082152 
L 197.301184 175.082152 
L 197.301184 174.956276 
L 200.69419 174.956276 
L 200.69419 174.704524 
L 203.238434 174.704524 
L 203.238434 174.578648 
L 360.8064 174.578648 
L 360.8064 174.578648 
" style="fill: none; stroke: #ff0000; stroke-width: 1.5; stroke-linecap: square"/>
   </g>
   <g id="line2d_56">
    <defs>
     <path id="mb9efa102d4" d="M 0 -6 
L -5.196152 -3 
L -5.196152 3 
L -0 6 
L 5.196152 3 
L 5.196152 -3 
z
" style="stroke: #ff0000; stroke-width: 1.5; stroke-linejoin: miter"/>
    </defs>
    <g>
     <use xlink:href="#mb9efa102d4" x="104.344952" y="275.405214" style="fill-opacity: 0; stroke: #ff0000; stroke-width: 1.5; stroke-linejoin: miter"/>
     <use xlink:href="#mb9efa102d4" x="158.976805" y="219.516331" style="fill-opacity: 0; stroke: #ff0000; stroke-width: 1.5; stroke-linejoin: miter"/>
     <use xlink:href="#mb9efa102d4" x="203.238434" y="174.704524" style="fill-opacity: 0; stroke: #ff0000; stroke-width: 1.5; stroke-linejoin: miter"/>
     <use xlink:href="#mb9efa102d4" x="203.238434" y="174.578648" style="fill-opacity: 0; stroke: #ff0000; stroke-width: 1.5; stroke-linejoin: miter"/>
     <use xlink:href="#mb9efa102d4" x="203.238434" y="174.578648" style="fill-opacity: 0; stroke: #ff0000; stroke-width: 1.5; stroke-linejoin: miter"/>
     <use xlink:href="#mb9efa102d4" x="360.8064" y="174.578648" style="fill-opacity: 0; stroke: #ff0000; stroke-width: 1.5; stroke-linejoin: miter"/>
    </g>
   </g>
   <g id="line2d_57">
    <path style="fill: none; stroke: #ff0000; stroke-width: 1.5; stroke-linecap: square"/>
    <g/>
   </g>
   <g id="line2d_58">
    <path d="M 274.176502 174.578648 
" clip-path="url(#pc2fe8be154)" style="fill: none; stroke: #ff0000; stroke-width: 1.5; stroke-linecap: square"/>
    <defs>
     <path id="m9922402810" d="M -12 12 
L 12 -12 
M -12 -12 
L 12 12 
" style="stroke: #ff0000"/>
    </defs>
    <g clip-path="url(#pc2fe8be154)">
     <use xlink:href="#m9922402810" x="274.176502" y="174.578648" style="fill: #ff0000; stroke: #ff0000"/>
    </g>
   </g>
   <g id="line2d_59">
    <path d="M 360.8064 241.166979 
L 380.514816 293.10336 
" style="fill: none; stroke: #ff7500; stroke-width: 1.5; stroke-linecap: square"/>
    <g>
     <use xlink:href="#mb20509d989" x="360.8064" y="241.166979" style="fill-opacity: 0; stroke: #ff7500; stroke-width: 1.5; stroke-linejoin: bevel"/>
     <use xlink:href="#mb20509d989" x="380.514816" y="293.10336" style="fill-opacity: 0; stroke: #ff7500; stroke-width: 1.5; stroke-linejoin: bevel"/>
    </g>
   </g>
   <g id="line2d_60">
    <path d="M 360.8064 239.656469 
L 380.514816 237.033216 
" style="fill: none; stroke: #6495ed; stroke-width: 1.5; stroke-linecap: square"/>
    <g>
     <use xlink:href="#m85246197ca" x="360.8064" y="239.656469" style="fill-opacity: 0; stroke: #6495ed; stroke-width: 1.5; stroke-linejoin: miter"/>
     <use xlink:href="#m85246197ca" x="380.514816" y="237.033216" style="fill-opacity: 0; stroke: #6495ed; stroke-width: 1.5; stroke-linejoin: miter"/>
    </g>
   </g>
   <g id="line2d_61">
    <path d="M 360.8064 234.621434 
L 380.514816 180.963072 
" style="fill: none; stroke: #000080; stroke-width: 1.5; stroke-linecap: square"/>
    <g>
     <use xlink:href="#m51effcda9c" x="360.8064" y="234.621434" style="fill-opacity: 0; stroke: #000080; stroke-width: 1.5"/>
     <use xlink:href="#m51effcda9c" x="380.514816" y="180.963072" style="fill-opacity: 0; stroke: #000080; stroke-width: 1.5"/>
    </g>
   </g>
   <g id="line2d_62">
    <path d="M 360.8064 227.572386 
L 380.514816 124.892928 
" style="fill: none; stroke: #ff00ff; stroke-width: 1.5; stroke-linecap: square"/>
    <g>
     <use xlink:href="#mbeda94aa95" x="360.8064" y="227.572386" style="fill-opacity: 0; stroke: #ff00ff; stroke-width: 1.5; stroke-linejoin: miter"/>
     <use xlink:href="#mbeda94aa95" x="380.514816" y="124.892928" style="fill-opacity: 0; stroke: #ff00ff; stroke-width: 1.5; stroke-linejoin: miter"/>
    </g>
   </g>
   <g id="line2d_63">
    <path d="M 360.8064 174.578648 
L 380.514816 68.822784 
" style="fill: none; stroke: #ff0000; stroke-width: 1.5; stroke-linecap: square"/>
    <g>
     <use xlink:href="#mb9efa102d4" x="360.8064" y="174.578648" style="fill-opacity: 0; stroke: #ff0000; stroke-width: 1.5; stroke-linejoin: miter"/>
     <use xlink:href="#mb9efa102d4" x="380.514816" y="68.822784" style="fill-opacity: 0; stroke: #ff0000; stroke-width: 1.5; stroke-linejoin: miter"/>
    </g>
   </g>
   <g id="line2d_64">
    <path d="M 360.8064 298.944 
L 360.8064 6.912 
" style="fill: none; stroke: #000000; stroke-width: 1.5; stroke-linecap: square"/>
   </g>
   <g id="patch_3">
    <path d="M 57.6 298.944 
L 360.8064 298.944 
" style="fill: none; stroke: #000000; stroke-width: 0.8; stroke-linejoin: miter; stroke-linecap: square"/>
   </g>
   <g id="patch_4">
    <path d="M 57.6 6.912 
L 360.8064 6.912 
" style="fill: none; stroke: #000000; stroke-width: 0.8; stroke-linejoin: miter; stroke-linecap: square"/>
   </g>
   <g id="text_13">
    <!-- kerComo -->
    <g transform="translate(386.578944 296.966485) scale(0.14 -0.14)">
     <defs>
      <path id="DejaVuSans-6b" d="M 581 4863 
L 1159 4863 
L 1159 1991 
L 2875 3500 
L 3609 3500 
L 1753 1863 
L 3688 0 
L 2938 0 
L 1159 1709 
L 1159 0 
L 581 0 
L 581 4863 
z
" transform="scale(0.015625)"/>
      <path id="DejaVuSans-43" d="M 4122 4306 
L 4122 3641 
Q 3803 3938 3442 4084 
Q 3081 4231 2675 4231 
Q 1875 4231 1450 3742 
Q 1025 3253 1025 2328 
Q 1025 1406 1450 917 
Q 1875 428 2675 428 
Q 3081 428 3442 575 
Q 3803 722 4122 1019 
L 4122 359 
Q 3791 134 3420 21 
Q 3050 -91 2638 -91 
Q 1578 -91 968 557 
Q 359 1206 359 2328 
Q 359 3453 968 4101 
Q 1578 4750 2638 4750 
Q 3056 4750 3426 4639 
Q 3797 4528 4122 4306 
z
" transform="scale(0.015625)"/>
     </defs>
     <use xlink:href="#DejaVuSans-6b"/>
     <use xlink:href="#DejaVuSans-65" x="54.285156"/>
     <use xlink:href="#DejaVuSans-72" x="115.808594"/>
     <use xlink:href="#DejaVuSans-43" x="156.921875"/>
     <use xlink:href="#DejaVuSans-6f" x="226.746094"/>
     <use xlink:href="#DejaVuSans-6d" x="287.927734"/>
     <use xlink:href="#DejaVuSans-6f" x="385.339844"/>
    </g>
   </g>
   <g id="text_14">
    <!-- kerLQ -->
    <g transform="translate(386.578944 240.896341) scale(0.14 -0.14)">
     <defs>
      <path id="DejaVuSans-4c" d="M 628 4666 
L 1259 4666 
L 1259 531 
L 3531 531 
L 3531 0 
L 628 0 
L 628 4666 
z
" transform="scale(0.015625)"/>
      <path id="DejaVuSans-51" d="M 2522 4238 
Q 1834 4238 1429 3725 
Q 1025 3213 1025 2328 
Q 1025 1447 1429 934 
Q 1834 422 2522 422 
Q 3209 422 3611 934 
Q 4013 1447 4013 2328 
Q 4013 3213 3611 3725 
Q 3209 4238 2522 4238 
z
M 3406 84 
L 4238 -825 
L 3475 -825 
L 2784 -78 
Q 2681 -84 2626 -87 
Q 2572 -91 2522 -91 
Q 1538 -91 948 567 
Q 359 1225 359 2328 
Q 359 3434 948 4092 
Q 1538 4750 2522 4750 
Q 3503 4750 4090 4092 
Q 4678 3434 4678 2328 
Q 4678 1516 4351 937 
Q 4025 359 3406 84 
z
" transform="scale(0.015625)"/>
     </defs>
     <use xlink:href="#DejaVuSans-6b"/>
     <use xlink:href="#DejaVuSans-65" x="54.285156"/>
     <use xlink:href="#DejaVuSans-72" x="115.808594"/>
     <use xlink:href="#DejaVuSans-4c" x="156.921875"/>
     <use xlink:href="#DejaVuSans-51" x="212.634766"/>
    </g>
   </g>
   <g id="text_15">
    <!-- AllComo -->
    <g transform="translate(386.578944 184.826197) scale(0.14 -0.14)">
     <defs>
      <path id="DejaVuSans-41" d="M 2188 4044 
L 1331 1722 
L 3047 1722 
L 2188 4044 
z
M 1831 4666 
L 2547 4666 
L 4325 0 
L 3669 0 
L 3244 1197 
L 1141 1197 
L 716 0 
L 50 0 
L 1831 4666 
z
" transform="scale(0.015625)"/>
     </defs>
     <use xlink:href="#DejaVuSans-41"/>
     <use xlink:href="#DejaVuSans-6c" x="68.408203"/>
     <use xlink:href="#DejaVuSans-6c" x="96.191406"/>
     <use xlink:href="#DejaVuSans-43" x="123.974609"/>
     <use xlink:href="#DejaVuSans-6f" x="193.798828"/>
     <use xlink:href="#DejaVuSans-6d" x="254.980469"/>
     <use xlink:href="#DejaVuSans-6f" x="352.392578"/>
    </g>
   </g>
   <g id="text_16">
    <!-- AllLQ -->
    <g transform="translate(386.578944 128.756053) scale(0.14 -0.14)">
     <use xlink:href="#DejaVuSans-41"/>
     <use xlink:href="#DejaVuSans-6c" x="68.408203"/>
     <use xlink:href="#DejaVuSans-6c" x="96.191406"/>
     <use xlink:href="#DejaVuSans-4c" x="123.974609"/>
     <use xlink:href="#DejaVuSans-51" x="179.6875"/>
    </g>
   </g>
   <g id="text_17">
    <!-- COMO-10 d -->
    <g transform="translate(386.578944 72.685909) scale(0.14 -0.14)">
     <defs>
      <path id="DejaVuSans-4f" d="M 2522 4238 
Q 1834 4238 1429 3725 
Q 1025 3213 1025 2328 
Q 1025 1447 1429 934 
Q 1834 422 2522 422 
Q 3209 422 3611 934 
Q 4013 1447 4013 2328 
Q 4013 3213 3611 3725 
Q 3209 4238 2522 4238 
z
M 2522 4750 
Q 3503 4750 4090 4092 
Q 4678 3434 4678 2328 
Q 4678 1225 4090 567 
Q 3503 -91 2522 -91 
Q 1538 -91 948 565 
Q 359 1222 359 2328 
Q 359 3434 948 4092 
Q 1538 4750 2522 4750 
z
" transform="scale(0.015625)"/>
      <path id="DejaVuSans-4d" d="M 628 4666 
L 1569 4666 
L 2759 1491 
L 3956 4666 
L 4897 4666 
L 4897 0 
L 4281 0 
L 4281 4097 
L 3078 897 
L 2444 897 
L 1241 4097 
L 1241 0 
L 628 0 
L 628 4666 
z
" transform="scale(0.015625)"/>
     </defs>
     <use xlink:href="#DejaVuSans-43"/>
     <use xlink:href="#DejaVuSans-4f" x="69.824219"/>
     <use xlink:href="#DejaVuSans-4d" x="148.535156"/>
     <use xlink:href="#DejaVuSans-4f" x="234.814453"/>
     <use xlink:href="#DejaVuSans-2d" x="316.275391"/>
     <use xlink:href="#DejaVuSans-31" x="352.359375"/>
     <use xlink:href="#DejaVuSans-30" x="415.982422"/>
     <use xlink:href="#DejaVuSans-20" x="479.605469"/>
     <use xlink:href="#DejaVuSans-64" x="511.392578"/>
    </g>
   </g>
   <g id="text_18">
    <!-- best 2016 -->
    <g transform="translate(386.578944 16.615765) scale(0.14 -0.14)">
     <defs>
      <path id="DejaVuSans-62" d="M 3116 1747 
Q 3116 2381 2855 2742 
Q 2594 3103 2138 3103 
Q 1681 3103 1420 2742 
Q 1159 2381 1159 1747 
Q 1159 1113 1420 752 
Q 1681 391 2138 391 
Q 2594 391 2855 752 
Q 3116 1113 3116 1747 
z
M 1159 2969 
Q 1341 3281 1617 3432 
Q 1894 3584 2278 3584 
Q 2916 3584 3314 3078 
Q 3713 2572 3713 1747 
Q 3713 922 3314 415 
Q 2916 -91 2278 -91 
Q 1894 -91 1617 61 
Q 1341 213 1159 525 
L 1159 0 
L 581 0 
L 581 4863 
L 1159 4863 
L 1159 2969 
z
" transform="scale(0.015625)"/>
     </defs>
     <use xlink:href="#DejaVuSans-62"/>
     <use xlink:href="#DejaVuSans-65" x="63.476562"/>
     <use xlink:href="#DejaVuSans-73" x="125"/>
     <use xlink:href="#DejaVuSans-74" x="177.099609"/>
     <use xlink:href="#DejaVuSans-20" x="216.308594"/>
     <use xlink:href="#DejaVuSans-32" x="248.095703"/>
     <use xlink:href="#DejaVuSans-30" x="311.71875"/>
     <use xlink:href="#DejaVuSans-31" x="375.341797"/>
     <use xlink:href="#DejaVuSans-36" x="438.964844"/>
    </g>
   </g>
   <g id="text_19">
    <!-- bbob-biobj f26, f27, f33, f34, 3-D -->
    <g transform="translate(60.632064 17.582726) scale(0.102 -0.102)">
     <defs>
      <path id="DejaVuSans-6a" d="M 603 3500 
L 1178 3500 
L 1178 -63 
Q 1178 -731 923 -1031 
Q 669 -1331 103 -1331 
L -116 -1331 
L -116 -844 
L 38 -844 
Q 366 -844 484 -692 
Q 603 -541 603 -63 
L 603 3500 
z
M 603 4863 
L 1178 4863 
L 1178 4134 
L 603 4134 
L 603 4863 
z
" transform="scale(0.015625)"/>
      <path id="DejaVuSans-37" d="M 525 4666 
L 3525 4666 
L 3525 4397 
L 1831 0 
L 1172 0 
L 2766 4134 
L 525 4134 
L 525 4666 
z
" transform="scale(0.015625)"/>
      <path id="DejaVuSans-33" d="M 2597 2516 
Q 3050 2419 3304 2112 
Q 3559 1806 3559 1356 
Q 3559 666 3084 287 
Q 2609 -91 1734 -91 
Q 1441 -91 1130 -33 
Q 819 25 488 141 
L 488 750 
Q 750 597 1062 519 
Q 1375 441 1716 441 
Q 2309 441 2620 675 
Q 2931 909 2931 1356 
Q 2931 1769 2642 2001 
Q 2353 2234 1838 2234 
L 1294 2234 
L 1294 2753 
L 1863 2753 
Q 2328 2753 2575 2939 
Q 2822 3125 2822 3475 
Q 2822 3834 2567 4026 
Q 2313 4219 1838 4219 
Q 1578 4219 1281 4162 
Q 984 4106 628 3988 
L 628 4550 
Q 988 4650 1302 4700 
Q 1616 4750 1894 4750 
Q 2613 4750 3031 4423 
Q 3450 4097 3450 3541 
Q 3450 3153 3228 2886 
Q 3006 2619 2597 2516 
z
" transform="scale(0.015625)"/>
      <path id="DejaVuSans-44" d="M 1259 4147 
L 1259 519 
L 2022 519 
Q 2988 519 3436 956 
Q 3884 1394 3884 2338 
Q 3884 3275 3436 3711 
Q 2988 4147 2022 4147 
L 1259 4147 
z
M 628 4666 
L 1925 4666 
Q 3281 4666 3915 4102 
Q 4550 3538 4550 2338 
Q 4550 1131 3912 565 
Q 3275 0 1925 0 
L 628 0 
L 628 4666 
z
" transform="scale(0.015625)"/>
     </defs>
     <use xlink:href="#DejaVuSans-62"/>
     <use xlink:href="#DejaVuSans-62" x="63.476562"/>
     <use xlink:href="#DejaVuSans-6f" x="126.953125"/>
     <use xlink:href="#DejaVuSans-62" x="188.134766"/>
     <use xlink:href="#DejaVuSans-2d" x="251.611328"/>
     <use xlink:href="#DejaVuSans-62" x="287.695312"/>
     <use xlink:href="#DejaVuSans-69" x="351.171875"/>
     <use xlink:href="#DejaVuSans-6f" x="378.955078"/>
     <use xlink:href="#DejaVuSans-62" x="440.136719"/>
     <use xlink:href="#DejaVuSans-6a" x="503.613281"/>
     <use xlink:href="#DejaVuSans-20" x="531.396484"/>
     <use xlink:href="#DejaVuSans-66" x="563.183594"/>
     <use xlink:href="#DejaVuSans-32" x="598.388672"/>
     <use xlink:href="#DejaVuSans-36" x="662.011719"/>
     <use xlink:href="#DejaVuSans-2c" x="725.634766"/>
     <use xlink:href="#DejaVuSans-20" x="757.421875"/>
     <use xlink:href="#DejaVuSans-66" x="789.208984"/>
     <use xlink:href="#DejaVuSans-32" x="824.414062"/>
     <use xlink:href="#DejaVuSans-37" x="888.037109"/>
     <use xlink:href="#DejaVuSans-2c" x="951.660156"/>
     <use xlink:href="#DejaVuSans-20" x="983.447266"/>
     <use xlink:href="#DejaVuSans-66" x="1015.234375"/>
     <use xlink:href="#DejaVuSans-33" x="1050.439453"/>
     <use xlink:href="#DejaVuSans-33" x="1114.0625"/>
     <use xlink:href="#DejaVuSans-2c" x="1177.685547"/>
     <use xlink:href="#DejaVuSans-20" x="1209.472656"/>
     <use xlink:href="#DejaVuSans-66" x="1241.259766"/>
     <use xlink:href="#DejaVuSans-33" x="1276.464844"/>
     <use xlink:href="#DejaVuSans-34" x="1340.087891"/>
     <use xlink:href="#DejaVuSans-2c" x="1403.710938"/>
     <use xlink:href="#DejaVuSans-20" x="1435.498047"/>
     <use xlink:href="#DejaVuSans-33" x="1467.285156"/>
     <use xlink:href="#DejaVuSans-2d" x="1530.908203"/>
     <use xlink:href="#DejaVuSans-44" x="1566.992188"/>
    </g>
    <!-- 58 targets: 1..-1.0e-4 -->
    <g transform="translate(60.632064 29.004495) scale(0.102 -0.102)">
     <defs>
      <path id="DejaVuSans-35" d="M 691 4666 
L 3169 4666 
L 3169 4134 
L 1269 4134 
L 1269 2991 
Q 1406 3038 1543 3061 
Q 1681 3084 1819 3084 
Q 2600 3084 3056 2656 
Q 3513 2228 3513 1497 
Q 3513 744 3044 326 
Q 2575 -91 1722 -91 
Q 1428 -91 1123 -41 
Q 819 9 494 109 
L 494 744 
Q 775 591 1075 516 
Q 1375 441 1709 441 
Q 2250 441 2565 725 
Q 2881 1009 2881 1497 
Q 2881 1984 2565 2268 
Q 2250 2553 1709 2553 
Q 1456 2553 1204 2497 
Q 953 2441 691 2322 
L 691 4666 
z
" transform="scale(0.015625)"/>
      <path id="DejaVuSans-3a" d="M 750 794 
L 1409 794 
L 1409 0 
L 750 0 
L 750 794 
z
M 750 3309 
L 1409 3309 
L 1409 2516 
L 750 2516 
L 750 3309 
z
" transform="scale(0.015625)"/>
     </defs>
     <use xlink:href="#DejaVuSans-35"/>
     <use xlink:href="#DejaVuSans-38" x="63.623047"/>
     <use xlink:href="#DejaVuSans-20" x="127.246094"/>
     <use xlink:href="#DejaVuSans-74" x="159.033203"/>
     <use xlink:href="#DejaVuSans-61" x="198.242188"/>
     <use xlink:href="#DejaVuSans-72" x="259.521484"/>
     <use xlink:href="#DejaVuSans-67" x="298.884766"/>
     <use xlink:href="#DejaVuSans-65" x="362.361328"/>
     <use xlink:href="#DejaVuSans-74" x="423.884766"/>
     <use xlink:href="#DejaVuSans-73" x="463.09375"/>
     <use xlink:href="#DejaVuSans-3a" x="515.193359"/>
     <use xlink:href="#DejaVuSans-20" x="548.884766"/>
     <use xlink:href="#DejaVuSans-31" x="580.671875"/>
     <use xlink:href="#DejaVuSans-2e" x="644.294922"/>
     <use xlink:href="#DejaVuSans-2e" x="676.082031"/>
     <use xlink:href="#DejaVuSans-2d" x="707.869141"/>
     <use xlink:href="#DejaVuSans-31" x="743.953125"/>
     <use xlink:href="#DejaVuSans-2e" x="807.576172"/>
     <use xlink:href="#DejaVuSans-30" x="839.363281"/>
     <use xlink:href="#DejaVuSans-65" x="902.986328"/>
     <use xlink:href="#DejaVuSans-2d" x="964.509766"/>
     <use xlink:href="#DejaVuSans-34" x="1000.59375"/>
    </g>
    <!-- 10 instances -->
    <g transform="translate(60.632064 40.426264) scale(0.102 -0.102)">
     <use xlink:href="#DejaVuSans-31"/>
     <use xlink:href="#DejaVuSans-30" x="63.623047"/>
     <use xlink:href="#DejaVuSans-20" x="127.246094"/>
     <use xlink:href="#DejaVuSans-69" x="159.033203"/>
     <use xlink:href="#DejaVuSans-6e" x="186.816406"/>
     <use xlink:href="#DejaVuSans-73" x="250.195312"/>
     <use xlink:href="#DejaVuSans-74" x="302.294922"/>
     <use xlink:href="#DejaVuSans-61" x="341.503906"/>
     <use xlink:href="#DejaVuSans-6e" x="402.783203"/>
     <use xlink:href="#DejaVuSans-63" x="466.162109"/>
     <use xlink:href="#DejaVuSans-65" x="521.142578"/>
     <use xlink:href="#DejaVuSans-73" x="582.666016"/>
    </g>
   </g>
   <g id="text_20">
    <!-- v2.6, hv-hash=ff0e71e8cd978373 -->
    <g style="fill: #808080" transform="translate(123.707887 293.943992) scale(0.1 -0.1)">
     <defs>
      <path id="DejaVuSans-68" d="M 3513 2113 
L 3513 0 
L 2938 0 
L 2938 2094 
Q 2938 2591 2744 2837 
Q 2550 3084 2163 3084 
Q 1697 3084 1428 2787 
Q 1159 2491 1159 1978 
L 1159 0 
L 581 0 
L 581 4863 
L 1159 4863 
L 1159 2956 
Q 1366 3272 1645 3428 
Q 1925 3584 2291 3584 
Q 2894 3584 3203 3211 
Q 3513 2838 3513 2113 
z
" transform="scale(0.015625)"/>
      <path id="DejaVuSans-3d" d="M 678 2906 
L 4684 2906 
L 4684 2381 
L 678 2381 
L 678 2906 
z
M 678 1631 
L 4684 1631 
L 4684 1100 
L 678 1100 
L 678 1631 
z
" transform="scale(0.015625)"/>
      <path id="DejaVuSans-39" d="M 703 97 
L 703 672 
Q 941 559 1184 500 
Q 1428 441 1663 441 
Q 2288 441 2617 861 
Q 2947 1281 2994 2138 
Q 2813 1869 2534 1725 
Q 2256 1581 1919 1581 
Q 1219 1581 811 2004 
Q 403 2428 403 3163 
Q 403 3881 828 4315 
Q 1253 4750 1959 4750 
Q 2769 4750 3195 4129 
Q 3622 3509 3622 2328 
Q 3622 1225 3098 567 
Q 2575 -91 1691 -91 
Q 1453 -91 1209 -44 
Q 966 3 703 97 
z
M 1959 2075 
Q 2384 2075 2632 2365 
Q 2881 2656 2881 3163 
Q 2881 3666 2632 3958 
Q 2384 4250 1959 4250 
Q 1534 4250 1286 3958 
Q 1038 3666 1038 3163 
Q 1038 2656 1286 2365 
Q 1534 2075 1959 2075 
z
" transform="scale(0.015625)"/>
     </defs>
     <use xlink:href="#DejaVuSans-76"/>
     <use xlink:href="#DejaVuSans-32" x="59.179688"/>
     <use xlink:href="#DejaVuSans-2e" x="122.802734"/>
     <use xlink:href="#DejaVuSans-36" x="154.589844"/>
     <use xlink:href="#DejaVuSans-2c" x="218.212891"/>
     <use xlink:href="#DejaVuSans-20" x="250"/>
     <use xlink:href="#DejaVuSans-68" x="281.787109"/>
     <use xlink:href="#DejaVuSans-76" x="345.166016"/>
     <use xlink:href="#DejaVuSans-2d" x="401.720703"/>
     <use xlink:href="#DejaVuSans-68" x="437.804688"/>
     <use xlink:href="#DejaVuSans-61" x="501.183594"/>
     <use xlink:href="#DejaVuSans-73" x="562.462891"/>
     <use xlink:href="#DejaVuSans-68" x="614.5625"/>
     <use xlink:href="#DejaVuSans-3d" x="677.941406"/>
     <use xlink:href="#DejaVuSans-66" x="761.730469"/>
     <use xlink:href="#DejaVuSans-66" x="796.935547"/>
     <use xlink:href="#DejaVuSans-30" x="832.140625"/>
     <use xlink:href="#DejaVuSans-65" x="895.763672"/>
     <use xlink:href="#DejaVuSans-37" x="957.287109"/>
     <use xlink:href="#DejaVuSans-31" x="1020.910156"/>
     <use xlink:href="#DejaVuSans-65" x="1084.533203"/>
     <use xlink:href="#DejaVuSans-38" x="1146.056641"/>
     <use xlink:href="#DejaVuSans-63" x="1209.679688"/>
     <use xlink:href="#DejaVuSans-64" x="1264.660156"/>
     <use xlink:href="#DejaVuSans-39" x="1328.136719"/>
     <use xlink:href="#DejaVuSans-37" x="1391.759766"/>
     <use xlink:href="#DejaVuSans-38" x="1455.382812"/>
     <use xlink:href="#DejaVuSans-33" x="1519.005859"/>
     <use xlink:href="#DejaVuSans-37" x="1582.628906"/>
     <use xlink:href="#DejaVuSans-33" x="1646.251953"/>
    </g>
   </g>
  </g>
 </g>
 <defs>
  <clipPath id="pc2fe8be154">
   <rect x="57.6" y="6.912" width="303.2064" height="292.032"/>
  </clipPath>
 </defs>
</svg>
