<?xml version="1.0" encoding="utf-8" standalone="no"?>
<!DOCTYPE svg PUBLIC "-//W3C//DTD SVG 1.1//EN"
  "http://www.w3.org/Graphics/SVG/1.1/DTD/svg11.dtd">
<svg xmlns:xlink="http://www.w3.org/1999/xlink" width="460.8pt" height="345.6pt" viewBox="0 0 460.8 345.6" xmlns="http://www.w3.org/2000/svg" version="1.1">
 <metadata>
  <rdf:RDF xmlns:dc="http://purl.org/dc/elements/1.1/" xmlns:cc="http://creativecommons.org/ns#" xmlns:rdf="http://www.w3.org/1999/02/22-rdf-syntax-ns#">
   <cc:Work>
    <dc:type rdf:resource="http://purl.org/dc/dcmitype/StillImage"/>
    <dc:date>2023-02-10T14:01:01.668765</dc:date>
    <dc:format>image/svg+xml</dc:format>
    <dc:creator>
     <cc:Agent>
      <dc:title>Matplotlib v3.6.3, https://matplotlib.org/</dc:title>
     </cc:Agent>
    </dc:creator>
   </cc:Work>
  </rdf:RDF>
 </metadata>
 <defs>
  <style type="text/css">*{stroke-linejoin: round; stroke-linecap: butt}</style>
 </defs>
 <g id="figure_1">
  <g id="patch_1">
   <path d="M 0 345.6 
L 460.8 345.6 
L 460.8 0 
L 0 0 
z
" style="fill: #ffffff"/>
  </g>
  <g id="axes_1">
   <g id="patch_2">
    <path d="M 57.6 298.944 
L 360.8064 298.944 
L 360.8064 6.912 
L 57.6 6.912 
z
" style="fill: #ffffff"/>
   </g>
   <g id="line2d_1">
    <path d="M 27.323974 298.944 
L 27.323974 297.265655 
L 40.363149 297.265655 
L 40.363149 293.908966 
L 57.6 293.908966 
L 57.6 290.552276 
L 63.929565 290.552276 
L 63.929565 283.838897 
L 72.432107 283.838897 
L 72.432107 280.482207 
L 79.480672 280.482207 
L 79.480672 277.125517 
L 84.596168 277.125517 
L 84.596168 273.768828 
L 87.1081 273.768828 
L 87.1081 272.090483 
L 87.876026 272.090483 
L 87.876026 270.412138 
L 93.66029 270.412138 
L 93.66029 265.377103 
L 99.346662 265.377103 
L 99.346662 263.698759 
L 100.147275 263.698759 
L 100.147275 258.663724 
L 103.047088 258.663724 
L 103.047088 255.307034 
L 106.699465 255.307034 
L 106.699465 250.272 
L 108.542628 250.272 
L 108.542628 246.91531 
L 110.674517 246.91531 
L 110.674517 245.236966 
L 112.790402 245.236966 
L 112.790402 243.558621 
L 114.872193 243.558621 
L 114.872193 240.201931 
L 116.907859 240.201931 
L 116.907859 236.845241 
L 120.28394 236.845241 
L 120.28394 235.166897 
L 121.581803 235.166897 
L 121.581803 230.131862 
L 124.373813 230.131862 
L 124.373813 226.775172 
L 126.899255 226.775172 
L 126.899255 223.418483 
L 128.786481 223.418483 
L 128.786481 220.061793 
L 133.983236 220.061793 
L 133.983236 215.026759 
L 134.368469 215.026759 
L 134.368469 209.991724 
L 140.950542 209.991724 
L 140.950542 206.635034 
L 141.65386 206.635034 
L 141.65386 203.278345 
L 142.661862 203.278345 
L 142.661862 199.921655 
L 147.1517 199.921655 
L 147.1517 196.564966 
L 147.691478 196.564966 
L 147.691478 193.208276 
L 149.679732 193.208276 
L 149.679732 189.851586 
L 153.282346 189.851586 
L 153.282346 186.494897 
L 154.73613 186.494897 
L 154.73613 183.138207 
L 158.223191 183.138207 
L 158.223191 181.459862 
L 158.804221 181.459862 
L 158.804221 179.781517 
L 161.010268 179.781517 
L 161.010268 178.103172 
L 165.489541 178.103172 
L 165.489541 173.068138 
L 167.861203 173.068138 
L 167.861203 168.033103 
L 172.263447 168.033103 
L 172.263447 166.354759 
L 173.03578 166.354759 
L 173.03578 161.319724 
L 174.506426 161.319724 
L 174.506426 159.641379 
L 181.67687 159.641379 
L 181.67687 154.606345 
L 181.957455 154.606345 
L 181.957455 149.57131 
L 186.576733 149.57131 
L 186.576733 147.892966 
L 189.884615 147.892966 
L 189.884615 144.536276 
L 194.30293 144.536276 
L 194.30293 141.179586 
L 198.993731 141.179586 
L 198.993731 136.144552 
L 199.46877 136.144552 
L 199.46877 134.466207 
L 201.027245 134.466207 
L 201.027245 132.787862 
L 204.328551 132.787862 
L 204.328551 127.752828 
L 209.84829 127.752828 
L 209.879305 122.717793 
L 210.656134 122.717793 
L 210.656134 117.682759 
L 215.843811 117.682759 
L 215.843811 112.647724 
L 221.688334 112.647724 
L 221.688334 110.969379 
L 222.160236 110.969379 
L 222.160236 107.61269 
L 222.590246 107.61269 
L 222.590246 105.934345 
L 228.773164 105.934345 
L 228.773164 102.577655 
L 230.554705 102.577655 
L 230.554705 97.542621 
L 231.746343 97.542621 
L 231.746343 92.507586 
L 235.614816 92.507586 
L 235.614816 90.829241 
L 237.190365 90.829241 
L 237.190365 87.472552 
L 239.62997 87.472552 
L 239.62997 85.794207 
L 242.674263 85.794207 
L 242.784569 79.080828 
L 244.28632 79.080828 
L 244.28632 74.045793 
L 249.93322 74.045793 
L 249.93322 70.689103 
L 250.082505 70.689103 
L 250.082505 65.654069 
L 250.238003 65.654069 
L 250.238003 63.975724 
L 257.063364 63.975724 
L 257.063364 60.619034 
L 258.670415 60.619034 
L 258.670415 57.262345 
L 265.400902 57.262345 
L 265.400902 52.22731 
L 276.435641 52.22731 
L 276.435641 50.548966 
L 285.267678 50.548966 
L 285.267678 47.192276 
L 288.505705 47.192276 
L 288.505705 42.157241 
L 360.8064 42.157241 
L 360.8064 42.157241 
" style="fill: none; stroke: #f5deb3; stroke-width: 4; stroke-linecap: square"/>
   </g>
   <g id="line2d_2">
    <defs>
     <path id="m82490160f3" d="M -0 7.778175 
L 7.778175 0 
L 0 -7.778175 
L -7.778175 -0 
z
" style="stroke: #f5deb3; stroke-width: 1.5; stroke-linejoin: miter"/>
    </defs>
    <g>
     <use xlink:href="#m82490160f3" x="110.674517" y="245.236966" style="fill: #f5deb3; stroke: #f5deb3; stroke-width: 1.5; stroke-linejoin: miter"/>
     <use xlink:href="#m82490160f3" x="181.67687" y="154.606345" style="fill: #f5deb3; stroke: #f5deb3; stroke-width: 1.5; stroke-linejoin: miter"/>
     <use xlink:href="#m82490160f3" x="230.554705" y="97.542621" style="fill: #f5deb3; stroke: #f5deb3; stroke-width: 1.5; stroke-linejoin: miter"/>
     <use xlink:href="#m82490160f3" x="288.505705" y="42.157241" style="fill: #f5deb3; stroke: #f5deb3; stroke-width: 1.5; stroke-linejoin: miter"/>
     <use xlink:href="#m82490160f3" x="288.505705" y="42.157241" style="fill: #f5deb3; stroke: #f5deb3; stroke-width: 1.5; stroke-linejoin: miter"/>
     <use xlink:href="#m82490160f3" x="360.8064" y="42.157241" style="fill: #f5deb3; stroke: #f5deb3; stroke-width: 1.5; stroke-linejoin: miter"/>
    </g>
   </g>
   <g id="line2d_3">
    <path style="fill: none; stroke: #f5deb3; stroke-width: 4; stroke-linecap: square"/>
    <g/>
   </g>
   <g id="line2d_4">
    <path d="M 360.8064 42.157241 
L 380.514816 12.75264 
" style="fill: none; stroke: #f5deb3; stroke-width: 4; stroke-linecap: square"/>
    <g>
     <use xlink:href="#m82490160f3" x="360.8064" y="42.157241" style="fill: #f5deb3; stroke: #f5deb3; stroke-width: 1.5; stroke-linejoin: miter"/>
     <use xlink:href="#m82490160f3" x="380.514816" y="12.75264" style="fill: #f5deb3; stroke: #f5deb3; stroke-width: 1.5; stroke-linejoin: miter"/>
    </g>
   </g>
   <g id="matplotlib.axis_1">
    <g id="xtick_1">
     <g id="line2d_5">
      <path d="M 57.6 298.944 
L 57.6 6.912 
" clip-path="url(#p05ce301de1)" style="fill: none; stroke: #b0b0b0; stroke-width: 0.8; stroke-linecap: square"/>
     </g>
     <g id="line2d_6">
      <defs>
       <path id="mc3fffe7af6" d="M 0 0 
L 0 3.5 
" style="stroke: #000000; stroke-width: 0.8"/>
      </defs>
      <g>
       <use xlink:href="#mc3fffe7af6" x="57.6" y="298.944" style="stroke: #000000; stroke-width: 0.8"/>
      </g>
     </g>
     <g id="text_1">
      <!-- 0 -->
      <g transform="translate(52.191875 318.861344) scale(0.17 -0.17)">
       <defs>
        <path id="DejaVuSans-30" d="M 2034 4250 
Q 1547 4250 1301 3770 
Q 1056 3291 1056 2328 
Q 1056 1369 1301 889 
Q 1547 409 2034 409 
Q 2525 409 2770 889 
Q 3016 1369 3016 2328 
Q 3016 3291 2770 3770 
Q 2525 4250 2034 4250 
z
M 2034 4750 
Q 2819 4750 3233 4129 
Q 3647 3509 3647 2328 
Q 3647 1150 3233 529 
Q 2819 -91 2034 -91 
Q 1250 -91 836 529 
Q 422 1150 422 2328 
Q 422 3509 836 4129 
Q 1250 4750 2034 4750 
z
" transform="scale(0.015625)"/>
       </defs>
       <use xlink:href="#DejaVuSans-30"/>
      </g>
     </g>
    </g>
    <g id="xtick_2">
     <g id="line2d_7">
      <path d="M 144.2304 298.944 
L 144.2304 6.912 
" clip-path="url(#p05ce301de1)" style="fill: none; stroke: #b0b0b0; stroke-width: 0.8; stroke-linecap: square"/>
     </g>
     <g id="line2d_8">
      <g>
       <use xlink:href="#mc3fffe7af6" x="144.2304" y="298.944" style="stroke: #000000; stroke-width: 0.8"/>
      </g>
     </g>
     <g id="text_2">
      <!-- 2 -->
      <g transform="translate(138.822275 318.861344) scale(0.17 -0.17)">
       <defs>
        <path id="DejaVuSans-32" d="M 1228 531 
L 3431 531 
L 3431 0 
L 469 0 
L 469 531 
Q 828 903 1448 1529 
Q 2069 2156 2228 2338 
Q 2531 2678 2651 2914 
Q 2772 3150 2772 3378 
Q 2772 3750 2511 3984 
Q 2250 4219 1831 4219 
Q 1534 4219 1204 4116 
Q 875 4013 500 3803 
L 500 4441 
Q 881 4594 1212 4672 
Q 1544 4750 1819 4750 
Q 2544 4750 2975 4387 
Q 3406 4025 3406 3419 
Q 3406 3131 3298 2873 
Q 3191 2616 2906 2266 
Q 2828 2175 2409 1742 
Q 1991 1309 1228 531 
z
" transform="scale(0.015625)"/>
       </defs>
       <use xlink:href="#DejaVuSans-32"/>
      </g>
     </g>
    </g>
    <g id="xtick_3">
     <g id="line2d_9">
      <path d="M 230.8608 298.944 
L 230.8608 6.912 
" clip-path="url(#p05ce301de1)" style="fill: none; stroke: #b0b0b0; stroke-width: 0.8; stroke-linecap: square"/>
     </g>
     <g id="line2d_10">
      <g>
       <use xlink:href="#mc3fffe7af6" x="230.8608" y="298.944" style="stroke: #000000; stroke-width: 0.8"/>
      </g>
     </g>
     <g id="text_3">
      <!-- 4 -->
      <g transform="translate(225.452675 318.861344) scale(0.17 -0.17)">
       <defs>
        <path id="DejaVuSans-34" d="M 2419 4116 
L 825 1625 
L 2419 1625 
L 2419 4116 
z
M 2253 4666 
L 3047 4666 
L 3047 1625 
L 3713 1625 
L 3713 1100 
L 3047 1100 
L 3047 0 
L 2419 0 
L 2419 1100 
L 313 1100 
L 313 1709 
L 2253 4666 
z
" transform="scale(0.015625)"/>
       </defs>
       <use xlink:href="#DejaVuSans-34"/>
      </g>
     </g>
    </g>
    <g id="xtick_4">
     <g id="line2d_11">
      <path d="M 317.4912 298.944 
L 317.4912 6.912 
" clip-path="url(#p05ce301de1)" style="fill: none; stroke: #b0b0b0; stroke-width: 0.8; stroke-linecap: square"/>
     </g>
     <g id="line2d_12">
      <g>
       <use xlink:href="#mc3fffe7af6" x="317.4912" y="298.944" style="stroke: #000000; stroke-width: 0.8"/>
      </g>
     </g>
     <g id="text_4">
      <!-- 6 -->
      <g transform="translate(312.083075 318.861344) scale(0.17 -0.17)">
       <defs>
        <path id="DejaVuSans-36" d="M 2113 2584 
Q 1688 2584 1439 2293 
Q 1191 2003 1191 1497 
Q 1191 994 1439 701 
Q 1688 409 2113 409 
Q 2538 409 2786 701 
Q 3034 994 3034 1497 
Q 3034 2003 2786 2293 
Q 2538 2584 2113 2584 
z
M 3366 4563 
L 3366 3988 
Q 3128 4100 2886 4159 
Q 2644 4219 2406 4219 
Q 1781 4219 1451 3797 
Q 1122 3375 1075 2522 
Q 1259 2794 1537 2939 
Q 1816 3084 2150 3084 
Q 2853 3084 3261 2657 
Q 3669 2231 3669 1497 
Q 3669 778 3244 343 
Q 2819 -91 2113 -91 
Q 1303 -91 875 529 
Q 447 1150 447 2328 
Q 447 3434 972 4092 
Q 1497 4750 2381 4750 
Q 2619 4750 2861 4703 
Q 3103 4656 3366 4563 
z
" transform="scale(0.015625)"/>
       </defs>
       <use xlink:href="#DejaVuSans-36"/>
      </g>
     </g>
    </g>
    <g id="xtick_5">
     <g id="line2d_13">
      <path d="M 100.9152 298.944 
L 100.9152 6.912 
" clip-path="url(#p05ce301de1)" style="fill: none; stroke: #b0b0b0; stroke-width: 0.8; stroke-linecap: square"/>
     </g>
     <g id="line2d_14">
      <defs>
       <path id="m0a4cc25b42" d="M 0 0 
L 0 2 
" style="stroke: #000000; stroke-width: 0.6"/>
      </defs>
      <g>
       <use xlink:href="#m0a4cc25b42" x="100.9152" y="298.944" style="stroke: #000000; stroke-width: 0.6"/>
      </g>
     </g>
    </g>
    <g id="xtick_6">
     <g id="line2d_15">
      <path d="M 187.5456 298.944 
L 187.5456 6.912 
" clip-path="url(#p05ce301de1)" style="fill: none; stroke: #b0b0b0; stroke-width: 0.8; stroke-linecap: square"/>
     </g>
     <g id="line2d_16">
      <g>
       <use xlink:href="#m0a4cc25b42" x="187.5456" y="298.944" style="stroke: #000000; stroke-width: 0.6"/>
      </g>
     </g>
    </g>
    <g id="xtick_7">
     <g id="line2d_17">
      <path d="M 274.176 298.944 
L 274.176 6.912 
" clip-path="url(#p05ce301de1)" style="fill: none; stroke: #b0b0b0; stroke-width: 0.8; stroke-linecap: square"/>
     </g>
     <g id="line2d_18">
      <g>
       <use xlink:href="#m0a4cc25b42" x="274.176" y="298.944" style="stroke: #000000; stroke-width: 0.6"/>
      </g>
     </g>
    </g>
    <g id="xtick_8">
     <g id="line2d_19">
      <path d="M 360.8064 298.944 
L 360.8064 6.912 
" clip-path="url(#p05ce301de1)" style="fill: none; stroke: #b0b0b0; stroke-width: 0.8; stroke-linecap: square"/>
     </g>
     <g id="line2d_20">
      <g>
       <use xlink:href="#m0a4cc25b42" x="360.8064" y="298.944" style="stroke: #000000; stroke-width: 0.6"/>
      </g>
     </g>
    </g>
    <g id="text_5">
     <!-- log10(# f-evals / dimension) -->
     <g transform="translate(88.823278 339.314156) scale(0.17 -0.17)">
      <defs>
       <path id="DejaVuSans-6c" d="M 603 4863 
L 1178 4863 
L 1178 0 
L 603 0 
L 603 4863 
z
" transform="scale(0.015625)"/>
       <path id="DejaVuSans-6f" d="M 1959 3097 
Q 1497 3097 1228 2736 
Q 959 2375 959 1747 
Q 959 1119 1226 758 
Q 1494 397 1959 397 
Q 2419 397 2687 759 
Q 2956 1122 2956 1747 
Q 2956 2369 2687 2733 
Q 2419 3097 1959 3097 
z
M 1959 3584 
Q 2709 3584 3137 3096 
Q 3566 2609 3566 1747 
Q 3566 888 3137 398 
Q 2709 -91 1959 -91 
Q 1206 -91 779 398 
Q 353 888 353 1747 
Q 353 2609 779 3096 
Q 1206 3584 1959 3584 
z
" transform="scale(0.015625)"/>
       <path id="DejaVuSans-67" d="M 2906 1791 
Q 2906 2416 2648 2759 
Q 2391 3103 1925 3103 
Q 1463 3103 1205 2759 
Q 947 2416 947 1791 
Q 947 1169 1205 825 
Q 1463 481 1925 481 
Q 2391 481 2648 825 
Q 2906 1169 2906 1791 
z
M 3481 434 
Q 3481 -459 3084 -895 
Q 2688 -1331 1869 -1331 
Q 1566 -1331 1297 -1286 
Q 1028 -1241 775 -1147 
L 775 -588 
Q 1028 -725 1275 -790 
Q 1522 -856 1778 -856 
Q 2344 -856 2625 -561 
Q 2906 -266 2906 331 
L 2906 616 
Q 2728 306 2450 153 
Q 2172 0 1784 0 
Q 1141 0 747 490 
Q 353 981 353 1791 
Q 353 2603 747 3093 
Q 1141 3584 1784 3584 
Q 2172 3584 2450 3431 
Q 2728 3278 2906 2969 
L 2906 3500 
L 3481 3500 
L 3481 434 
z
" transform="scale(0.015625)"/>
       <path id="DejaVuSans-31" d="M 794 531 
L 1825 531 
L 1825 4091 
L 703 3866 
L 703 4441 
L 1819 4666 
L 2450 4666 
L 2450 531 
L 3481 531 
L 3481 0 
L 794 0 
L 794 531 
z
" transform="scale(0.015625)"/>
       <path id="DejaVuSans-28" d="M 1984 4856 
Q 1566 4138 1362 3434 
Q 1159 2731 1159 2009 
Q 1159 1288 1364 580 
Q 1569 -128 1984 -844 
L 1484 -844 
Q 1016 -109 783 600 
Q 550 1309 550 2009 
Q 550 2706 781 3412 
Q 1013 4119 1484 4856 
L 1984 4856 
z
" transform="scale(0.015625)"/>
       <path id="DejaVuSans-23" d="M 3272 2816 
L 2363 2816 
L 2100 1772 
L 3016 1772 
L 3272 2816 
z
M 2803 4594 
L 2478 3297 
L 3391 3297 
L 3719 4594 
L 4219 4594 
L 3897 3297 
L 4872 3297 
L 4872 2816 
L 3775 2816 
L 3519 1772 
L 4513 1772 
L 4513 1294 
L 3397 1294 
L 3072 0 
L 2572 0 
L 2894 1294 
L 1978 1294 
L 1656 0 
L 1153 0 
L 1478 1294 
L 494 1294 
L 494 1772 
L 1594 1772 
L 1856 2816 
L 850 2816 
L 850 3297 
L 1978 3297 
L 2297 4594 
L 2803 4594 
z
" transform="scale(0.015625)"/>
       <path id="DejaVuSans-20" transform="scale(0.015625)"/>
       <path id="DejaVuSans-66" d="M 2375 4863 
L 2375 4384 
L 1825 4384 
Q 1516 4384 1395 4259 
Q 1275 4134 1275 3809 
L 1275 3500 
L 2222 3500 
L 2222 3053 
L 1275 3053 
L 1275 0 
L 697 0 
L 697 3053 
L 147 3053 
L 147 3500 
L 697 3500 
L 697 3744 
Q 697 4328 969 4595 
Q 1241 4863 1831 4863 
L 2375 4863 
z
" transform="scale(0.015625)"/>
       <path id="DejaVuSans-2d" d="M 313 2009 
L 1997 2009 
L 1997 1497 
L 313 1497 
L 313 2009 
z
" transform="scale(0.015625)"/>
       <path id="DejaVuSans-65" d="M 3597 1894 
L 3597 1613 
L 953 1613 
Q 991 1019 1311 708 
Q 1631 397 2203 397 
Q 2534 397 2845 478 
Q 3156 559 3463 722 
L 3463 178 
Q 3153 47 2828 -22 
Q 2503 -91 2169 -91 
Q 1331 -91 842 396 
Q 353 884 353 1716 
Q 353 2575 817 3079 
Q 1281 3584 2069 3584 
Q 2775 3584 3186 3129 
Q 3597 2675 3597 1894 
z
M 3022 2063 
Q 3016 2534 2758 2815 
Q 2500 3097 2075 3097 
Q 1594 3097 1305 2825 
Q 1016 2553 972 2059 
L 3022 2063 
z
" transform="scale(0.015625)"/>
       <path id="DejaVuSans-76" d="M 191 3500 
L 800 3500 
L 1894 563 
L 2988 3500 
L 3597 3500 
L 2284 0 
L 1503 0 
L 191 3500 
z
" transform="scale(0.015625)"/>
       <path id="DejaVuSans-61" d="M 2194 1759 
Q 1497 1759 1228 1600 
Q 959 1441 959 1056 
Q 959 750 1161 570 
Q 1363 391 1709 391 
Q 2188 391 2477 730 
Q 2766 1069 2766 1631 
L 2766 1759 
L 2194 1759 
z
M 3341 1997 
L 3341 0 
L 2766 0 
L 2766 531 
Q 2569 213 2275 61 
Q 1981 -91 1556 -91 
Q 1019 -91 701 211 
Q 384 513 384 1019 
Q 384 1609 779 1909 
Q 1175 2209 1959 2209 
L 2766 2209 
L 2766 2266 
Q 2766 2663 2505 2880 
Q 2244 3097 1772 3097 
Q 1472 3097 1187 3025 
Q 903 2953 641 2809 
L 641 3341 
Q 956 3463 1253 3523 
Q 1550 3584 1831 3584 
Q 2591 3584 2966 3190 
Q 3341 2797 3341 1997 
z
" transform="scale(0.015625)"/>
       <path id="DejaVuSans-73" d="M 2834 3397 
L 2834 2853 
Q 2591 2978 2328 3040 
Q 2066 3103 1784 3103 
Q 1356 3103 1142 2972 
Q 928 2841 928 2578 
Q 928 2378 1081 2264 
Q 1234 2150 1697 2047 
L 1894 2003 
Q 2506 1872 2764 1633 
Q 3022 1394 3022 966 
Q 3022 478 2636 193 
Q 2250 -91 1575 -91 
Q 1294 -91 989 -36 
Q 684 19 347 128 
L 347 722 
Q 666 556 975 473 
Q 1284 391 1588 391 
Q 1994 391 2212 530 
Q 2431 669 2431 922 
Q 2431 1156 2273 1281 
Q 2116 1406 1581 1522 
L 1381 1569 
Q 847 1681 609 1914 
Q 372 2147 372 2553 
Q 372 3047 722 3315 
Q 1072 3584 1716 3584 
Q 2034 3584 2315 3537 
Q 2597 3491 2834 3397 
z
" transform="scale(0.015625)"/>
       <path id="DejaVuSans-2f" d="M 1625 4666 
L 2156 4666 
L 531 -594 
L 0 -594 
L 1625 4666 
z
" transform="scale(0.015625)"/>
       <path id="DejaVuSans-64" d="M 2906 2969 
L 2906 4863 
L 3481 4863 
L 3481 0 
L 2906 0 
L 2906 525 
Q 2725 213 2448 61 
Q 2172 -91 1784 -91 
Q 1150 -91 751 415 
Q 353 922 353 1747 
Q 353 2572 751 3078 
Q 1150 3584 1784 3584 
Q 2172 3584 2448 3432 
Q 2725 3281 2906 2969 
z
M 947 1747 
Q 947 1113 1208 752 
Q 1469 391 1925 391 
Q 2381 391 2643 752 
Q 2906 1113 2906 1747 
Q 2906 2381 2643 2742 
Q 2381 3103 1925 3103 
Q 1469 3103 1208 2742 
Q 947 2381 947 1747 
z
" transform="scale(0.015625)"/>
       <path id="DejaVuSans-69" d="M 603 3500 
L 1178 3500 
L 1178 0 
L 603 0 
L 603 3500 
z
M 603 4863 
L 1178 4863 
L 1178 4134 
L 603 4134 
L 603 4863 
z
" transform="scale(0.015625)"/>
       <path id="DejaVuSans-6d" d="M 3328 2828 
Q 3544 3216 3844 3400 
Q 4144 3584 4550 3584 
Q 5097 3584 5394 3201 
Q 5691 2819 5691 2113 
L 5691 0 
L 5113 0 
L 5113 2094 
Q 5113 2597 4934 2840 
Q 4756 3084 4391 3084 
Q 3944 3084 3684 2787 
Q 3425 2491 3425 1978 
L 3425 0 
L 2847 0 
L 2847 2094 
Q 2847 2600 2669 2842 
Q 2491 3084 2119 3084 
Q 1678 3084 1418 2786 
Q 1159 2488 1159 1978 
L 1159 0 
L 581 0 
L 581 3500 
L 1159 3500 
L 1159 2956 
Q 1356 3278 1631 3431 
Q 1906 3584 2284 3584 
Q 2666 3584 2933 3390 
Q 3200 3197 3328 2828 
z
" transform="scale(0.015625)"/>
       <path id="DejaVuSans-6e" d="M 3513 2113 
L 3513 0 
L 2938 0 
L 2938 2094 
Q 2938 2591 2744 2837 
Q 2550 3084 2163 3084 
Q 1697 3084 1428 2787 
Q 1159 2491 1159 1978 
L 1159 0 
L 581 0 
L 581 3500 
L 1159 3500 
L 1159 2956 
Q 1366 3272 1645 3428 
Q 1925 3584 2291 3584 
Q 2894 3584 3203 3211 
Q 3513 2838 3513 2113 
z
" transform="scale(0.015625)"/>
       <path id="DejaVuSans-29" d="M 513 4856 
L 1013 4856 
Q 1481 4119 1714 3412 
Q 1947 2706 1947 2009 
Q 1947 1309 1714 600 
Q 1481 -109 1013 -844 
L 513 -844 
Q 928 -128 1133 580 
Q 1338 1288 1338 2009 
Q 1338 2731 1133 3434 
Q 928 4138 513 4856 
z
" transform="scale(0.015625)"/>
      </defs>
      <use xlink:href="#DejaVuSans-6c"/>
      <use xlink:href="#DejaVuSans-6f" x="27.783203"/>
      <use xlink:href="#DejaVuSans-67" x="88.964844"/>
      <use xlink:href="#DejaVuSans-31" x="152.441406"/>
      <use xlink:href="#DejaVuSans-30" x="216.064453"/>
      <use xlink:href="#DejaVuSans-28" x="279.6875"/>
      <use xlink:href="#DejaVuSans-23" x="318.701172"/>
      <use xlink:href="#DejaVuSans-20" x="402.490234"/>
      <use xlink:href="#DejaVuSans-66" x="434.277344"/>
      <use xlink:href="#DejaVuSans-2d" x="463.982422"/>
      <use xlink:href="#DejaVuSans-65" x="500.066406"/>
      <use xlink:href="#DejaVuSans-76" x="561.589844"/>
      <use xlink:href="#DejaVuSans-61" x="620.769531"/>
      <use xlink:href="#DejaVuSans-6c" x="682.048828"/>
      <use xlink:href="#DejaVuSans-73" x="709.832031"/>
      <use xlink:href="#DejaVuSans-20" x="761.931641"/>
      <use xlink:href="#DejaVuSans-2f" x="793.71875"/>
      <use xlink:href="#DejaVuSans-20" x="827.410156"/>
      <use xlink:href="#DejaVuSans-64" x="859.197266"/>
      <use xlink:href="#DejaVuSans-69" x="922.673828"/>
      <use xlink:href="#DejaVuSans-6d" x="950.457031"/>
      <use xlink:href="#DejaVuSans-65" x="1047.869141"/>
      <use xlink:href="#DejaVuSans-6e" x="1109.392578"/>
      <use xlink:href="#DejaVuSans-73" x="1172.771484"/>
      <use xlink:href="#DejaVuSans-69" x="1224.871094"/>
      <use xlink:href="#DejaVuSans-6f" x="1252.654297"/>
      <use xlink:href="#DejaVuSans-6e" x="1313.835938"/>
      <use xlink:href="#DejaVuSans-29" x="1377.214844"/>
     </g>
    </g>
   </g>
   <g id="matplotlib.axis_2">
    <g id="ytick_1">
     <g id="line2d_21">
      <path d="M 57.6 298.944 
L 360.8064 298.944 
" clip-path="url(#p05ce301de1)" style="fill: none; stroke: #b0b0b0; stroke-width: 0.8; stroke-linecap: square"/>
     </g>
     <g id="line2d_22">
      <defs>
       <path id="m1be3548474" d="M 0 0 
L -3.5 0 
" style="stroke: #000000; stroke-width: 0.8"/>
      </defs>
      <g>
       <use xlink:href="#m1be3548474" x="57.6" y="298.944" style="stroke: #000000; stroke-width: 0.8"/>
      </g>
     </g>
     <g id="text_6">
      <!-- 0.0 -->
      <g transform="translate(25.155 305.02275) scale(0.16 -0.16)">
       <defs>
        <path id="DejaVuSans-2e" d="M 684 794 
L 1344 794 
L 1344 0 
L 684 0 
L 684 794 
z
" transform="scale(0.015625)"/>
       </defs>
       <use xlink:href="#DejaVuSans-30"/>
       <use xlink:href="#DejaVuSans-2e" x="63.623047"/>
       <use xlink:href="#DejaVuSans-30" x="95.410156"/>
      </g>
     </g>
    </g>
    <g id="ytick_2">
     <g id="line2d_23">
      <path d="M 57.6 240.5376 
L 360.8064 240.5376 
" clip-path="url(#p05ce301de1)" style="fill: none; stroke: #b0b0b0; stroke-width: 0.8; stroke-linecap: square"/>
     </g>
     <g id="line2d_24">
      <g>
       <use xlink:href="#m1be3548474" x="57.6" y="240.5376" style="stroke: #000000; stroke-width: 0.8"/>
      </g>
     </g>
     <g id="text_7">
      <!-- 0.2 -->
      <g transform="translate(25.155 246.61635) scale(0.16 -0.16)">
       <use xlink:href="#DejaVuSans-30"/>
       <use xlink:href="#DejaVuSans-2e" x="63.623047"/>
       <use xlink:href="#DejaVuSans-32" x="95.410156"/>
      </g>
     </g>
    </g>
    <g id="ytick_3">
     <g id="line2d_25">
      <path d="M 57.6 182.1312 
L 360.8064 182.1312 
" clip-path="url(#p05ce301de1)" style="fill: none; stroke: #b0b0b0; stroke-width: 0.8; stroke-linecap: square"/>
     </g>
     <g id="line2d_26">
      <g>
       <use xlink:href="#m1be3548474" x="57.6" y="182.1312" style="stroke: #000000; stroke-width: 0.8"/>
      </g>
     </g>
     <g id="text_8">
      <!-- 0.4 -->
      <g transform="translate(25.155 188.20995) scale(0.16 -0.16)">
       <use xlink:href="#DejaVuSans-30"/>
       <use xlink:href="#DejaVuSans-2e" x="63.623047"/>
       <use xlink:href="#DejaVuSans-34" x="95.410156"/>
      </g>
     </g>
    </g>
    <g id="ytick_4">
     <g id="line2d_27">
      <path d="M 57.6 123.7248 
L 360.8064 123.7248 
" clip-path="url(#p05ce301de1)" style="fill: none; stroke: #b0b0b0; stroke-width: 0.8; stroke-linecap: square"/>
     </g>
     <g id="line2d_28">
      <g>
       <use xlink:href="#m1be3548474" x="57.6" y="123.7248" style="stroke: #000000; stroke-width: 0.8"/>
      </g>
     </g>
     <g id="text_9">
      <!-- 0.6 -->
      <g transform="translate(25.155 129.80355) scale(0.16 -0.16)">
       <use xlink:href="#DejaVuSans-30"/>
       <use xlink:href="#DejaVuSans-2e" x="63.623047"/>
       <use xlink:href="#DejaVuSans-36" x="95.410156"/>
      </g>
     </g>
    </g>
    <g id="ytick_5">
     <g id="line2d_29">
      <path d="M 57.6 65.3184 
L 360.8064 65.3184 
" clip-path="url(#p05ce301de1)" style="fill: none; stroke: #b0b0b0; stroke-width: 0.8; stroke-linecap: square"/>
     </g>
     <g id="line2d_30">
      <g>
       <use xlink:href="#m1be3548474" x="57.6" y="65.3184" style="stroke: #000000; stroke-width: 0.8"/>
      </g>
     </g>
     <g id="text_10">
      <!-- 0.8 -->
      <g transform="translate(25.155 71.39715) scale(0.16 -0.16)">
       <defs>
        <path id="DejaVuSans-38" d="M 2034 2216 
Q 1584 2216 1326 1975 
Q 1069 1734 1069 1313 
Q 1069 891 1326 650 
Q 1584 409 2034 409 
Q 2484 409 2743 651 
Q 3003 894 3003 1313 
Q 3003 1734 2745 1975 
Q 2488 2216 2034 2216 
z
M 1403 2484 
Q 997 2584 770 2862 
Q 544 3141 544 3541 
Q 544 4100 942 4425 
Q 1341 4750 2034 4750 
Q 2731 4750 3128 4425 
Q 3525 4100 3525 3541 
Q 3525 3141 3298 2862 
Q 3072 2584 2669 2484 
Q 3125 2378 3379 2068 
Q 3634 1759 3634 1313 
Q 3634 634 3220 271 
Q 2806 -91 2034 -91 
Q 1263 -91 848 271 
Q 434 634 434 1313 
Q 434 1759 690 2068 
Q 947 2378 1403 2484 
z
M 1172 3481 
Q 1172 3119 1398 2916 
Q 1625 2713 2034 2713 
Q 2441 2713 2670 2916 
Q 2900 3119 2900 3481 
Q 2900 3844 2670 4047 
Q 2441 4250 2034 4250 
Q 1625 4250 1398 4047 
Q 1172 3844 1172 3481 
z
" transform="scale(0.015625)"/>
       </defs>
       <use xlink:href="#DejaVuSans-30"/>
       <use xlink:href="#DejaVuSans-2e" x="63.623047"/>
       <use xlink:href="#DejaVuSans-38" x="95.410156"/>
      </g>
     </g>
    </g>
    <g id="ytick_6">
     <g id="line2d_31">
      <path d="M 57.6 6.912 
L 360.8064 6.912 
" clip-path="url(#p05ce301de1)" style="fill: none; stroke: #b0b0b0; stroke-width: 0.8; stroke-linecap: square"/>
     </g>
     <g id="line2d_32">
      <g>
       <use xlink:href="#m1be3548474" x="57.6" y="6.912" style="stroke: #000000; stroke-width: 0.8"/>
      </g>
     </g>
     <g id="text_11">
      <!-- 1.0 -->
      <g transform="translate(25.155 12.99075) scale(0.16 -0.16)">
       <use xlink:href="#DejaVuSans-31"/>
       <use xlink:href="#DejaVuSans-2e" x="63.623047"/>
       <use xlink:href="#DejaVuSans-30" x="95.410156"/>
      </g>
     </g>
    </g>
    <g id="text_12">
     <!-- Fraction of function,target pairs -->
     <g transform="translate(17.619531 287.313) rotate(-90) scale(0.17 -0.17)">
      <defs>
       <path id="DejaVuSans-46" d="M 628 4666 
L 3309 4666 
L 3309 4134 
L 1259 4134 
L 1259 2759 
L 3109 2759 
L 3109 2228 
L 1259 2228 
L 1259 0 
L 628 0 
L 628 4666 
z
" transform="scale(0.015625)"/>
       <path id="DejaVuSans-72" d="M 2631 2963 
Q 2534 3019 2420 3045 
Q 2306 3072 2169 3072 
Q 1681 3072 1420 2755 
Q 1159 2438 1159 1844 
L 1159 0 
L 581 0 
L 581 3500 
L 1159 3500 
L 1159 2956 
Q 1341 3275 1631 3429 
Q 1922 3584 2338 3584 
Q 2397 3584 2469 3576 
Q 2541 3569 2628 3553 
L 2631 2963 
z
" transform="scale(0.015625)"/>
       <path id="DejaVuSans-63" d="M 3122 3366 
L 3122 2828 
Q 2878 2963 2633 3030 
Q 2388 3097 2138 3097 
Q 1578 3097 1268 2742 
Q 959 2388 959 1747 
Q 959 1106 1268 751 
Q 1578 397 2138 397 
Q 2388 397 2633 464 
Q 2878 531 3122 666 
L 3122 134 
Q 2881 22 2623 -34 
Q 2366 -91 2075 -91 
Q 1284 -91 818 406 
Q 353 903 353 1747 
Q 353 2603 823 3093 
Q 1294 3584 2113 3584 
Q 2378 3584 2631 3529 
Q 2884 3475 3122 3366 
z
" transform="scale(0.015625)"/>
       <path id="DejaVuSans-74" d="M 1172 4494 
L 1172 3500 
L 2356 3500 
L 2356 3053 
L 1172 3053 
L 1172 1153 
Q 1172 725 1289 603 
Q 1406 481 1766 481 
L 2356 481 
L 2356 0 
L 1766 0 
Q 1100 0 847 248 
Q 594 497 594 1153 
L 594 3053 
L 172 3053 
L 172 3500 
L 594 3500 
L 594 4494 
L 1172 4494 
z
" transform="scale(0.015625)"/>
       <path id="DejaVuSans-75" d="M 544 1381 
L 544 3500 
L 1119 3500 
L 1119 1403 
Q 1119 906 1312 657 
Q 1506 409 1894 409 
Q 2359 409 2629 706 
Q 2900 1003 2900 1516 
L 2900 3500 
L 3475 3500 
L 3475 0 
L 2900 0 
L 2900 538 
Q 2691 219 2414 64 
Q 2138 -91 1772 -91 
Q 1169 -91 856 284 
Q 544 659 544 1381 
z
M 1991 3584 
L 1991 3584 
z
" transform="scale(0.015625)"/>
       <path id="DejaVuSans-2c" d="M 750 794 
L 1409 794 
L 1409 256 
L 897 -744 
L 494 -744 
L 750 256 
L 750 794 
z
" transform="scale(0.015625)"/>
       <path id="DejaVuSans-70" d="M 1159 525 
L 1159 -1331 
L 581 -1331 
L 581 3500 
L 1159 3500 
L 1159 2969 
Q 1341 3281 1617 3432 
Q 1894 3584 2278 3584 
Q 2916 3584 3314 3078 
Q 3713 2572 3713 1747 
Q 3713 922 3314 415 
Q 2916 -91 2278 -91 
Q 1894 -91 1617 61 
Q 1341 213 1159 525 
z
M 3116 1747 
Q 3116 2381 2855 2742 
Q 2594 3103 2138 3103 
Q 1681 3103 1420 2742 
Q 1159 2381 1159 1747 
Q 1159 1113 1420 752 
Q 1681 391 2138 391 
Q 2594 391 2855 752 
Q 3116 1113 3116 1747 
z
" transform="scale(0.015625)"/>
      </defs>
      <use xlink:href="#DejaVuSans-46"/>
      <use xlink:href="#DejaVuSans-72" x="50.269531"/>
      <use xlink:href="#DejaVuSans-61" x="91.382812"/>
      <use xlink:href="#DejaVuSans-63" x="152.662109"/>
      <use xlink:href="#DejaVuSans-74" x="207.642578"/>
      <use xlink:href="#DejaVuSans-69" x="246.851562"/>
      <use xlink:href="#DejaVuSans-6f" x="274.634766"/>
      <use xlink:href="#DejaVuSans-6e" x="335.816406"/>
      <use xlink:href="#DejaVuSans-20" x="399.195312"/>
      <use xlink:href="#DejaVuSans-6f" x="430.982422"/>
      <use xlink:href="#DejaVuSans-66" x="492.164062"/>
      <use xlink:href="#DejaVuSans-20" x="527.369141"/>
      <use xlink:href="#DejaVuSans-66" x="559.15625"/>
      <use xlink:href="#DejaVuSans-75" x="594.361328"/>
      <use xlink:href="#DejaVuSans-6e" x="657.740234"/>
      <use xlink:href="#DejaVuSans-63" x="721.119141"/>
      <use xlink:href="#DejaVuSans-74" x="776.099609"/>
      <use xlink:href="#DejaVuSans-69" x="815.308594"/>
      <use xlink:href="#DejaVuSans-6f" x="843.091797"/>
      <use xlink:href="#DejaVuSans-6e" x="904.273438"/>
      <use xlink:href="#DejaVuSans-2c" x="967.652344"/>
      <use xlink:href="#DejaVuSans-74" x="999.439453"/>
      <use xlink:href="#DejaVuSans-61" x="1038.648438"/>
      <use xlink:href="#DejaVuSans-72" x="1099.927734"/>
      <use xlink:href="#DejaVuSans-67" x="1139.291016"/>
      <use xlink:href="#DejaVuSans-65" x="1202.767578"/>
      <use xlink:href="#DejaVuSans-74" x="1264.291016"/>
      <use xlink:href="#DejaVuSans-20" x="1303.5"/>
      <use xlink:href="#DejaVuSans-70" x="1335.287109"/>
      <use xlink:href="#DejaVuSans-61" x="1398.763672"/>
      <use xlink:href="#DejaVuSans-69" x="1460.042969"/>
      <use xlink:href="#DejaVuSans-72" x="1487.826172"/>
      <use xlink:href="#DejaVuSans-73" x="1528.939453"/>
     </g>
    </g>
   </g>
   <g id="line2d_33">
    <defs>
     <path id="me1f15841d9" d="M 0 1.5 
C 0.397805 1.5 0.77937 1.341951 1.06066 1.06066 
C 1.341951 0.77937 1.5 0.397805 1.5 0 
C 1.5 -0.397805 1.341951 -0.77937 1.06066 -1.06066 
C 0.77937 -1.341951 0.397805 -1.5 0 -1.5 
C -0.397805 -1.5 -0.77937 -1.341951 -1.06066 -1.06066 
C -1.341951 -0.77937 -1.5 -0.397805 -1.5 0 
C -1.5 0.397805 -1.341951 0.77937 -1.06066 1.06066 
C -0.77937 1.341951 -0.397805 1.5 0 1.5 
z
" style="stroke: #f5deb3"/>
    </defs>
    <g>
     <use xlink:href="#me1f15841d9" x="288.505705" y="42.157241" style="fill: #f5deb3; stroke: #f5deb3"/>
     <use xlink:href="#me1f15841d9" x="288.505705" y="42.157241" style="fill: #f5deb3; stroke: #f5deb3"/>
    </g>
   </g>
   <g id="line2d_34">
    <defs>
     <path id="mcbd0806040" d="M 0 1.5 
C 0.397805 1.5 0.77937 1.341951 1.06066 1.06066 
C 1.341951 0.77937 1.5 0.397805 1.5 0 
C 1.5 -0.397805 1.341951 -0.77937 1.06066 -1.06066 
C 0.77937 -1.341951 0.397805 -1.5 0 -1.5 
C -0.397805 -1.5 -0.77937 -1.341951 -1.06066 -1.06066 
C -1.341951 -0.77937 -1.5 -0.397805 -1.5 0 
C -1.5 0.397805 -1.341951 0.77937 -1.06066 1.06066 
C -0.77937 1.341951 -0.397805 1.5 0 1.5 
z
" style="stroke: #000080"/>
    </defs>
    <g>
     <use xlink:href="#mcbd0806040" x="144.417581" y="236.173903" style="fill: #000080; stroke: #000080"/>
     <use xlink:href="#mcbd0806040" x="144.417581" y="236.173903" style="fill: #000080; stroke: #000080"/>
    </g>
   </g>
   <g id="line2d_35">
    <path d="M 27.323974 298.944 
L 27.323974 286.524248 
L 40.363149 286.524248 
L 40.363149 285.685076 
L 47.990577 285.685076 
L 47.990577 284.845903 
L 53.402323 284.845903 
L 53.402323 283.503228 
L 61.029752 283.503228 
L 61.029752 282.999724 
L 63.929565 282.999724 
L 63.929565 282.160552 
L 66.441498 282.160552 
L 66.441498 281.824883 
L 68.65718 281.824883 
L 68.65718 280.817876 
L 70.639174 280.817876 
L 70.639174 280.314372 
L 72.432107 280.314372 
L 72.432107 279.643034 
L 74.068926 279.643034 
L 74.068926 279.139531 
L 75.574654 279.139531 
L 75.574654 278.971697 
L 76.96874 278.971697 
L 76.96874 278.468193 
L 79.480672 278.468193 
L 79.480672 278.300359 
L 81.696354 278.300359 
L 81.696354 277.629021 
L 84.596168 277.629021 
L 84.596168 277.461186 
L 85.471281 277.461186 
L 85.471281 277.293352 
L 87.1081 277.293352 
L 87.1081 276.789848 
L 87.876026 276.789848 
L 87.876026 276.454179 
L 88.613828 276.454179 
L 88.613828 276.286345 
L 89.323782 276.286345 
L 89.323782 276.11851 
L 90.007914 276.11851 
L 90.007914 275.950676 
L 91.922605 275.950676 
L 91.922605 275.782841 
L 92.519847 275.782841 
L 92.519847 275.615007 
L 94.735529 275.615007 
L 94.735529 275.279338 
L 96.717523 275.279338 
L 96.717523 274.608 
L 98.077987 274.608 
L 98.077987 274.272331 
L 98.510456 274.272331 
L 98.510456 273.768828 
L 99.751228 273.768828 
L 99.751228 273.433159 
L 100.9152 273.433159 
L 100.9152 273.09749 
L 102.011329 273.09749 
L 102.011329 272.761821 
L 103.380045 272.761821 
L 103.380045 272.593986 
L 104.344952 272.593986 
L 104.344952 272.258317 
L 105.26277 272.258317 
L 105.26277 271.922648 
L 105.559021 271.922648 
L 105.559021 271.754814 
L 106.42077 271.754814 
L 106.42077 271.25131 
L 108.542628 271.25131 
L 108.542628 270.915641 
L 108.791791 270.915641 
L 108.791791 270.747807 
L 109.990385 270.747807 
L 109.990385 270.244303 
L 110.221204 270.244303 
L 110.221204 270.076469 
L 110.674517 270.076469 
L 110.674517 269.908634 
L 110.897141 269.908634 
L 110.897141 269.7408 
L 111.117162 269.7408 
L 111.117162 269.405131 
L 112.790402 269.405131 
L 112.790402 269.237297 
L 112.989468 269.237297 
L 112.989468 269.069462 
L 114.326893 269.069462 
L 114.326893 268.901628 
L 114.872193 268.901628 
L 114.872193 268.733793 
L 115.227139 268.733793 
L 115.227139 268.062455 
L 115.402131 268.062455 
L 115.402131 267.894621 
L 115.747307 267.894621 
L 115.747307 267.726786 
L 116.253478 267.726786 
L 116.253478 267.558952 
L 116.583514 267.558952 
L 116.583514 267.391117 
L 117.226706 267.391117 
L 117.226706 267.223283 
L 117.384126 267.223283 
L 117.384126 267.055448 
L 117.540239 267.055448 
L 117.540239 266.719779 
L 117.695068 266.719779 
L 117.695068 266.38411 
L 118.000953 266.38411 
L 118.000953 266.216276 
L 119.177058 266.216276 
L 119.177058 265.544938 
L 119.459944 265.544938 
L 119.459944 265.209269 
L 120.550775 265.209269 
L 120.550775 264.705766 
L 120.682786 264.705766 
L 120.682786 264.370097 
L 121.201758 264.370097 
L 121.201758 264.202262 
L 121.329295 264.202262 
L 121.329295 264.034428 
L 122.19863 264.034428 
L 122.19863 263.698759 
L 122.319605 263.698759 
L 122.319605 263.195255 
L 123.029559 263.195255 
L 123.029559 262.859586 
L 123.936316 262.859586 
L 124.046648 262.523917 
L 124.695386 262.523917 
L 124.695386 261.852579 
L 125.115773 261.852579 
L 125.115773 261.684745 
L 125.322496 261.684745 
L 125.322496 261.349076 
L 125.526971 261.349076 
L 125.526971 261.181241 
L 125.729248 261.181241 
L 125.829577 260.677738 
L 126.127391 260.677738 
L 126.225624 259.838566 
L 126.323346 259.838566 
L 126.420564 258.831559 
L 126.613505 258.831559 
L 126.709238 258.160221 
L 126.804487 258.160221 
L 126.804487 257.992386 
L 127.18073 257.992386 
L 127.273627 257.488883 
L 128.000734 257.488883 
L 128.089678 256.817545 
L 128.441306 256.817545 
L 128.441306 256.64971 
L 128.786481 256.64971 
L 128.786481 255.978372 
L 129.209231 255.978372 
L 129.209231 255.810538 
L 129.375706 255.810538 
L 129.375706 255.642703 
L 129.54072 255.642703 
L 129.622688 255.307034 
L 129.78556 255.307034 
L 129.86647 254.803531 
L 130.107132 254.803531 
L 130.107132 254.635697 
L 130.811181 254.635697 
L 130.811181 254.467862 
L 131.856536 254.467862 
L 131.856536 254.132193 
L 132.428795 254.132193 
L 132.428795 253.796524 
L 132.638982 253.796524 
L 132.638982 253.62869 
L 133.05244 253.62869 
L 133.05244 253.460855 
L 133.457005 253.460855 
L 133.523594 252.957352 
L 133.589949 252.957352 
L 133.589949 252.789517 
L 133.78762 252.789517 
L 133.78762 252.286014 
L 133.983236 252.286014 
L 133.983236 252.118179 
L 134.304809 252.118179 
L 134.304809 251.950345 
L 134.495147 251.950345 
L 134.495147 251.78251 
L 134.620977 251.78251 
L 134.683578 251.279007 
L 134.808158 251.279007 
L 134.808158 251.111172 
L 135.054871 251.111172 
L 135.054871 250.607669 
L 135.717106 250.607669 
L 135.776169 250.272 
L 135.952253 250.272 
L 135.952253 249.936331 
L 136.356818 249.936331 
L 136.356818 249.768497 
L 136.470828 249.768497 
L 136.527575 248.929324 
L 136.696795 248.929324 
L 136.696795 248.593655 
L 136.808769 248.593655 
L 136.808769 248.425821 
L 137.250116 248.425821 
L 137.250116 248.090152 
L 137.412988 248.090152 
L 137.412988 247.754483 
L 137.734561 247.754483 
L 137.734561 247.250979 
L 137.945929 247.250979 
L 137.945929 247.083145 
L 138.154948 247.083145 
L 138.258593 246.076138 
L 138.310202 246.076138 
L 138.36167 245.740469 
L 138.566146 245.740469 
L 138.667556 244.901297 
L 139.067817 244.901297 
L 139.067817 244.733462 
L 139.362521 244.733462 
L 139.459738 244.397793 
L 139.508159 244.397793 
L 139.508159 244.062124 
L 139.985636 244.062124 
L 139.985636 243.726455 
L 140.359078 243.726455 
L 140.451292 243.222952 
L 140.58877 243.222952 
L 140.679868 242.887283 
L 140.770526 242.887283 
L 140.860749 242.04811 
L 140.950542 242.04811 
L 141.039908 241.544607 
L 141.084433 241.544607 
L 141.173167 240.369766 
L 141.217377 240.369766 
L 141.217377 240.201931 
L 141.610664 240.201931 
L 141.610664 240.034097 
L 141.739954 240.034097 
L 141.739954 239.698428 
L 141.868361 239.698428 
L 141.953481 238.859255 
L 142.080444 238.859255 
L 142.080444 238.691421 
L 142.579895 238.691421 
L 142.661862 238.355752 
L 142.702713 238.355752 
L 142.702713 238.020083 
L 142.865233 238.020083 
L 142.865233 237.852248 
L 143.066428 237.852248 
L 143.146307 237.348745 
L 143.579681 237.348745 
L 143.579681 237.18091 
L 143.926981 237.18091 
L 143.926981 236.845241 
L 144.117191 236.845241 
L 144.117191 236.677407 
L 144.342932 236.677407 
L 144.417581 236.173903 
L 360.8064 236.173903 
L 360.8064 236.173903 
" style="fill: none; stroke: #000080; stroke-width: 1.5; stroke-linecap: square"/>
   </g>
   <g id="line2d_36">
    <defs>
     <path id="mac11ecc3cd" d="M 0 6 
C 1.591219 6 3.117479 5.367802 4.242641 4.242641 
C 5.367802 3.117479 6 1.591219 6 0 
C 6 -1.591219 5.367802 -3.117479 4.242641 -4.242641 
C 3.117479 -5.367802 1.591219 -6 0 -6 
C -1.591219 -6 -3.117479 -5.367802 -4.242641 -4.242641 
C -5.367802 -3.117479 -6 -1.591219 -6 0 
C -6 1.591219 -5.367802 3.117479 -4.242641 4.242641 
C -3.117479 5.367802 -1.591219 6 0 6 
z
" style="stroke: #000080; stroke-width: 1.5"/>
    </defs>
    <g>
     <use xlink:href="#mac11ecc3cd" x="125.322496" y="261.684745" style="fill-opacity: 0; stroke: #000080; stroke-width: 1.5"/>
     <use xlink:href="#mac11ecc3cd" x="144.417581" y="236.509572" style="fill-opacity: 0; stroke: #000080; stroke-width: 1.5"/>
     <use xlink:href="#mac11ecc3cd" x="144.417581" y="236.173903" style="fill-opacity: 0; stroke: #000080; stroke-width: 1.5"/>
     <use xlink:href="#mac11ecc3cd" x="144.417581" y="236.173903" style="fill-opacity: 0; stroke: #000080; stroke-width: 1.5"/>
     <use xlink:href="#mac11ecc3cd" x="144.417581" y="236.173903" style="fill-opacity: 0; stroke: #000080; stroke-width: 1.5"/>
     <use xlink:href="#mac11ecc3cd" x="360.8064" y="236.173903" style="fill-opacity: 0; stroke: #000080; stroke-width: 1.5"/>
    </g>
   </g>
   <g id="line2d_37">
    <path style="fill: none; stroke: #000080; stroke-width: 1.5; stroke-linecap: square"/>
    <g/>
   </g>
   <g id="line2d_38">
    <path d="M 144.417581 236.173903 
" clip-path="url(#p05ce301de1)" style="fill: none; stroke: #000080; stroke-width: 1.5; stroke-linecap: square"/>
    <defs>
     <path id="m37bbf29b3b" d="M -12 12 
L 12 -12 
M -12 -12 
L 12 12 
" style="stroke: #000080"/>
    </defs>
    <g clip-path="url(#p05ce301de1)">
     <use xlink:href="#m37bbf29b3b" x="144.417581" y="236.173903" style="fill: #000080; stroke: #000080"/>
    </g>
   </g>
   <g id="line2d_39">
    <defs>
     <path id="me40f170391" d="M 0 1.5 
C 0.397805 1.5 0.77937 1.341951 1.06066 1.06066 
C 1.341951 0.77937 1.5 0.397805 1.5 0 
C 1.5 -0.397805 1.341951 -0.77937 1.06066 -1.06066 
C 0.77937 -1.341951 0.397805 -1.5 0 -1.5 
C -0.397805 -1.5 -0.77937 -1.341951 -1.06066 -1.06066 
C -1.341951 -0.77937 -1.5 -0.397805 -1.5 0 
C -1.5 0.397805 -1.341951 0.77937 -1.06066 1.06066 
C -0.77937 1.341951 -0.397805 1.5 0 1.5 
z
" style="stroke: #ff00ff"/>
    </defs>
    <g>
     <use xlink:href="#me40f170391" x="144.491935" y="231.978041" style="fill: #ff00ff; stroke: #ff00ff"/>
     <use xlink:href="#me40f170391" x="144.491935" y="231.978041" style="fill: #ff00ff; stroke: #ff00ff"/>
    </g>
   </g>
   <g id="line2d_40">
    <path d="M 27.323974 298.944 
L 27.323974 286.524248 
L 40.363149 286.524248 
L 40.363149 285.85291 
L 47.990577 285.85291 
L 47.990577 285.517241 
L 53.402323 285.517241 
L 53.402323 284.678069 
L 57.6 284.678069 
L 57.6 283.335393 
L 61.029752 283.335393 
L 61.029752 282.496221 
L 63.929565 282.496221 
L 63.929565 281.489214 
L 66.441498 281.489214 
L 66.441498 281.153545 
L 68.65718 281.153545 
L 68.65718 280.314372 
L 72.432107 280.314372 
L 72.432107 279.643034 
L 74.068926 279.643034 
L 74.068926 279.307366 
L 75.574654 279.307366 
L 75.574654 278.636028 
L 79.480672 278.636028 
L 79.480672 278.300359 
L 80.621116 278.300359 
L 80.621116 278.132524 
L 83.678349 278.132524 
L 83.678349 277.629021 
L 84.596168 277.629021 
L 84.596168 277.461186 
L 85.471281 277.461186 
L 85.471281 277.125517 
L 88.613828 277.125517 
L 88.613828 276.11851 
L 90.668036 276.11851 
L 90.668036 275.782841 
L 91.305777 275.782841 
L 91.305777 275.615007 
L 91.922605 275.615007 
L 91.922605 275.447172 
L 92.519847 275.447172 
L 92.519847 274.943669 
L 93.098709 274.943669 
L 93.098709 274.440166 
L 94.205591 274.440166 
L 94.205591 274.272331 
L 95.250946 274.272331 
L 95.250946 274.104497 
L 96.717523 274.104497 
L 96.717523 273.936662 
L 97.635342 273.936662 
L 97.635342 273.600993 
L 98.077987 273.600993 
L 98.077987 273.433159 
L 98.510456 273.433159 
L 98.510456 272.593986 
L 98.933205 272.593986 
L 98.933205 272.426152 
L 99.346662 272.426152 
L 99.346662 272.090483 
L 99.751228 272.090483 
L 99.751228 271.922648 
L 100.9152 271.922648 
L 100.9152 271.754814 
L 101.287718 271.754814 
L 101.287718 271.586979 
L 104.344952 271.586979 
L 104.344952 271.25131 
L 104.655893 271.25131 
L 104.655893 270.915641 
L 104.961779 270.915641 
L 104.961779 270.579972 
L 105.559021 270.579972 
L 105.559021 270.412138 
L 106.137884 270.412138 
L 106.137884 270.076469 
L 106.42077 270.076469 
L 106.42077 269.908634 
L 106.699465 269.908634 
L 106.699465 269.7408 
L 106.974091 269.7408 
L 106.974091 269.572966 
L 108.034177 269.572966 
L 108.034177 269.069462 
L 108.29012 269.069462 
L 108.29012 268.733793 
L 109.520071 268.733793 
L 109.520071 268.565959 
L 109.756698 268.565959 
L 109.756698 268.23029 
L 110.449226 268.23029 
L 110.449226 268.062455 
L 110.674517 268.062455 
L 110.674517 267.558952 
L 111.117162 267.558952 
L 111.117162 267.055448 
L 111.334639 267.055448 
L 111.334639 266.887614 
L 111.54963 266.887614 
L 111.54963 266.38411 
L 111.97238 266.38411 
L 111.97238 266.048441 
L 112.385837 266.048441 
L 112.385837 265.880607 
L 112.589207 265.880607 
L 112.589207 265.544938 
L 112.989468 265.544938 
L 112.989468 265.377103 
L 113.186449 265.377103 
L 113.186449 265.209269 
L 113.381389 265.209269 
L 113.381389 265.041434 
L 113.954374 265.041434 
L 113.954374 264.537931 
L 114.692177 264.537931 
L 114.692177 264.202262 
L 114.872193 264.202262 
L 114.872193 264.034428 
L 115.917548 264.034428 
L 115.917548 263.866593 
L 116.253478 263.866593 
L 116.253478 263.530924 
L 116.419219 263.530924 
L 116.419219 263.36309 
L 116.746385 263.36309 
L 116.746385 263.195255 
L 117.384126 263.195255 
L 117.384126 263.027421 
L 117.540239 263.027421 
L 117.540239 262.859586 
L 117.695068 262.859586 
L 117.695068 262.691752 
L 117.848632 262.691752 
L 117.848632 262.523917 
L 118.000953 262.523917 
L 118.000953 262.356083 
L 118.301945 262.356083 
L 118.301945 262.188248 
L 118.889854 262.188248 
L 118.889854 261.684745 
L 119.177058 261.684745 
L 119.177058 261.349076 
L 119.876453 261.349076 
L 119.876453 261.181241 
L 120.013265 261.181241 
L 120.013265 260.845572 
L 120.41783 260.845572 
L 120.41783 260.509903 
L 121.455972 260.509903 
L 121.455972 260.342069 
L 121.706797 260.342069 
L 121.706797 260.174234 
L 122.076872 260.174234 
L 122.076872 259.838566 
L 122.677931 259.838566 
L 122.677931 259.670731 
L 122.913079 259.670731 
L 122.913079 259.335062 
L 123.145323 259.335062 
L 123.145323 258.663724 
L 123.260379 258.663724 
L 123.260379 258.49589 
L 123.374735 258.49589 
L 123.374735 258.328055 
L 123.601383 258.328055 
L 123.601383 258.160221 
L 123.713691 258.160221 
L 123.713691 257.992386 
L 123.825333 257.992386 
L 123.825333 257.824552 
L 124.265389 257.824552 
L 124.265389 257.656717 
L 124.588805 257.656717 
L 124.588805 257.488883 
L 124.801367 257.488883 
L 124.801367 257.153214 
L 125.011554 257.153214 
L 125.011554 256.985379 
L 125.526971 256.985379 
L 125.526971 256.817545 
L 125.729248 256.817545 
L 125.729248 256.64971 
L 126.127391 256.64971 
L 126.225624 256.146207 
L 126.709238 256.146207 
L 126.709238 255.642703 
L 126.993549 255.642703 
L 127.087372 255.1392 
L 127.18073 255.1392 
L 127.273627 254.635697 
L 127.549596 254.635697 
L 127.640693 254.132193 
L 128.354013 254.132193 
L 128.354013 253.964359 
L 128.614685 253.964359 
L 128.614685 253.62869 
L 128.786481 253.62869 
L 128.871795 253.293021 
L 128.956723 253.293021 
L 128.956723 252.957352 
L 129.209231 252.957352 
L 129.209231 252.453848 
L 129.86647 252.453848 
L 129.86647 252.118179 
L 130.344755 252.118179 
L 130.344755 251.78251 
L 130.501519 251.78251 
L 130.501519 251.279007 
L 130.656987 251.279007 
L 130.656987 250.607669 
L 130.811181 250.607669 
L 130.887807 250.272 
L 130.964122 250.272 
L 131.040128 249.264993 
L 131.191226 249.264993 
L 131.191226 248.929324 
L 131.71071 248.929324 
L 131.783764 248.425821 
L 132.216233 248.425821 
L 132.216233 248.257986 
L 132.428795 248.257986 
L 132.428795 248.090152 
L 132.708526 248.090152 
L 132.777813 247.250979 
L 132.915628 247.250979 
L 132.915628 247.083145 
L 133.457005 247.083145 
L 133.523594 246.747476 
L 133.656071 246.747476 
L 133.72196 245.740469 
L 133.918257 245.740469 
L 133.918257 245.236966 
L 134.304809 245.236966 
L 134.304809 245.069131 
L 134.620977 245.069131 
L 134.620977 244.733462 
L 134.808158 244.733462 
L 134.87014 244.229959 
L 134.993495 244.229959 
L 135.054871 243.726455 
L 135.717106 243.726455 
L 135.717106 243.558621 
L 135.835047 243.558621 
L 135.835047 243.390786 
L 136.010584 243.390786 
L 136.010584 243.222952 
L 136.126705 243.222952 
L 136.126705 243.055117 
L 136.413909 243.055117 
L 136.413909 242.719448 
L 136.97549 242.719448 
L 136.97549 242.551614 
L 137.195511 242.551614 
L 137.304564 241.376772 
L 137.466966 241.376772 
L 137.466966 241.041103 
L 137.627979 241.041103 
L 137.627979 240.705434 
L 137.945929 240.705434 
L 137.945929 240.5376 
L 138.412998 240.5376 
L 138.412998 240.369766 
L 138.616919 240.369766 
L 138.718057 240.034097 
L 138.768422 240.034097 
L 138.768422 239.866262 
L 139.018248 239.866262 
L 139.018248 239.698428 
L 139.215746 239.698428 
L 139.215746 239.530593 
L 139.700607 239.530593 
L 139.700607 239.362759 
L 139.843661 239.362759 
L 139.843661 239.194924 
L 139.985636 239.194924 
L 140.079694 238.859255 
L 140.173284 238.859255 
L 140.26641 238.523586 
L 140.312801 238.523586 
L 140.312801 238.355752 
L 140.543056 238.355752 
L 140.543056 237.852248 
L 140.905699 237.852248 
L 140.905699 237.684414 
L 141.128852 237.684414 
L 141.217377 237.348745 
L 141.349389 237.348745 
L 141.393187 236.845241 
L 141.610664 236.845241 
L 141.610664 236.677407 
L 141.910969 236.677407 
L 141.995897 236.006069 
L 142.038218 236.006069 
L 142.080444 235.6704 
L 142.164612 235.6704 
L 142.206555 235.334731 
L 142.290162 235.334731 
L 142.331827 234.831228 
L 142.743475 234.831228 
L 142.824734 233.992055 
L 143.225848 233.992055 
L 143.305055 232.985048 
L 143.423243 232.985048 
L 143.423243 232.817214 
L 143.618588 232.817214 
L 143.618588 232.649379 
L 143.773417 232.649379 
L 143.773417 232.31371 
L 144.491935 232.31371 
L 144.491935 231.978041 
L 360.8064 231.978041 
L 360.8064 231.978041 
" style="fill: none; stroke: #ff00ff; stroke-width: 1.5; stroke-linecap: square"/>
   </g>
   <g id="line2d_41">
    <defs>
     <path id="m96d3f0a494" d="M -0 8.485281 
L 5.091169 0 
L 0 -8.485281 
L -5.091169 -0 
z
" style="stroke: #ff00ff; stroke-width: 1.5; stroke-linejoin: miter"/>
    </defs>
    <g>
     <use xlink:href="#m96d3f0a494" x="68.65718" y="281.153545" style="fill-opacity: 0; stroke: #ff00ff; stroke-width: 1.5; stroke-linejoin: miter"/>
     <use xlink:href="#m96d3f0a494" x="143.225848" y="233.488552" style="fill-opacity: 0; stroke: #ff00ff; stroke-width: 1.5; stroke-linejoin: miter"/>
     <use xlink:href="#m96d3f0a494" x="144.491935" y="232.31371" style="fill-opacity: 0; stroke: #ff00ff; stroke-width: 1.5; stroke-linejoin: miter"/>
     <use xlink:href="#m96d3f0a494" x="144.491935" y="231.978041" style="fill-opacity: 0; stroke: #ff00ff; stroke-width: 1.5; stroke-linejoin: miter"/>
     <use xlink:href="#m96d3f0a494" x="144.491935" y="231.978041" style="fill-opacity: 0; stroke: #ff00ff; stroke-width: 1.5; stroke-linejoin: miter"/>
     <use xlink:href="#m96d3f0a494" x="360.8064" y="231.978041" style="fill-opacity: 0; stroke: #ff00ff; stroke-width: 1.5; stroke-linejoin: miter"/>
    </g>
   </g>
   <g id="line2d_42">
    <path style="fill: none; stroke: #ff00ff; stroke-width: 1.5; stroke-linecap: square"/>
    <g/>
   </g>
   <g id="line2d_43">
    <path d="M 144.417581 232.31371 
" clip-path="url(#p05ce301de1)" style="fill: none; stroke: #ff00ff; stroke-width: 1.5; stroke-linecap: square"/>
    <defs>
     <path id="m9e9b47b237" d="M -12 12 
L 12 -12 
M -12 -12 
L 12 12 
" style="stroke: #ff00ff"/>
    </defs>
    <g clip-path="url(#p05ce301de1)">
     <use xlink:href="#m9e9b47b237" x="144.417581" y="232.31371" style="fill: #ff00ff; stroke: #ff00ff"/>
    </g>
   </g>
   <g id="line2d_44">
    <defs>
     <path id="ma58e5db0f5" d="M 0 1.5 
C 0.397805 1.5 0.77937 1.341951 1.06066 1.06066 
C 1.341951 0.77937 1.5 0.397805 1.5 0 
C 1.5 -0.397805 1.341951 -0.77937 1.06066 -1.06066 
C 0.77937 -1.341951 0.397805 -1.5 0 -1.5 
C -0.397805 -1.5 -0.77937 -1.341951 -1.06066 -1.06066 
C -1.341951 -0.77937 -1.5 -0.397805 -1.5 0 
C -1.5 0.397805 -1.341951 0.77937 -1.06066 1.06066 
C -0.77937 1.341951 -0.397805 1.5 0 1.5 
z
" style="stroke: #ff7500"/>
    </defs>
    <g>
     <use xlink:href="#ma58e5db0f5" x="143.773417" y="248.76149" style="fill: #ff7500; stroke: #ff7500"/>
     <use xlink:href="#ma58e5db0f5" x="143.773417" y="248.76149" style="fill: #ff7500; stroke: #ff7500"/>
    </g>
   </g>
   <g id="line2d_45">
    <path d="M 27.323974 298.944 
L 27.323974 286.524248 
L 40.363149 286.524248 
L 40.363149 284.006731 
L 72.432107 284.006731 
L 72.432107 282.664055 
L 83.678349 282.664055 
L 83.678349 281.489214 
L 90.668036 281.489214 
L 90.668036 280.146538 
L 95.752617 280.146538 
L 95.752617 278.468193 
L 99.751228 278.468193 
L 99.751228 276.622014 
L 103.047088 276.622014 
L 103.047088 275.950676 
L 105.850679 275.950676 
L 105.850679 275.111503 
L 108.29012 275.111503 
L 108.29012 274.440166 
L 110.449226 274.440166 
L 110.449226 273.433159 
L 112.385837 273.433159 
L 112.385837 272.929655 
L 114.141556 272.929655 
L 114.141556 272.090483 
L 115.747307 272.090483 
L 115.747307 271.754814 
L 117.226706 271.754814 
L 117.226706 271.25131 
L 118.598196 271.25131 
L 118.598196 270.579972 
L 119.876453 270.579972 
L 119.876453 269.572966 
L 121.073351 269.572966 
L 121.073351 269.069462 
L 122.19863 269.069462 
L 122.19863 268.733793 
L 123.260379 268.733793 
L 123.260379 268.398124 
L 124.265389 268.398124 
L 124.265389 267.894621 
L 125.219419 267.894621 
L 125.219419 267.558952 
L 126.127391 267.558952 
L 126.127391 266.887614 
L 126.993549 266.887614 
L 126.993549 266.719779 
L 127.821575 266.719779 
L 127.821575 266.38411 
L 128.614685 266.38411 
L 128.614685 266.048441 
L 129.375706 266.048441 
L 129.375706 265.712772 
L 130.107132 265.712772 
L 130.107132 265.544938 
L 130.811181 265.544938 
L 130.811181 265.041434 
L 131.489828 265.041434 
L 131.489828 264.202262 
L 132.144842 264.202262 
L 132.144842 262.859586 
L 132.777813 262.859586 
L 132.777813 262.356083 
L 133.390178 262.356083 
L 133.390178 262.020414 
L 133.983236 262.020414 
L 133.983236 261.852579 
L 134.558167 261.852579 
L 134.558167 261.013407 
L 135.116046 261.013407 
L 135.116046 259.502897 
L 135.657857 259.502897 
L 135.657857 258.999393 
L 136.184497 258.999393 
L 136.184497 258.831559 
L 136.696795 258.831559 
L 136.696795 258.328055 
L 137.195511 258.328055 
L 137.195511 257.992386 
L 137.681345 257.992386 
L 137.681345 257.321048 
L 138.154948 257.321048 
L 138.154948 256.817545 
L 138.616919 256.817545 
L 138.616919 255.1392 
L 139.067817 255.1392 
L 139.067817 254.971366 
L 139.93843 254.971366 
L 139.93843 254.132193 
L 140.359078 254.132193 
L 140.359078 253.796524 
L 140.770526 253.796524 
L 140.770526 252.957352 
L 141.173167 252.957352 
L 141.173167 252.286014 
L 141.953481 252.286014 
L 141.953481 251.950345 
L 142.331827 251.950345 
L 142.331827 251.614676 
L 142.702713 251.614676 
L 142.702713 250.104166 
L 143.066428 250.104166 
L 143.066428 249.264993 
L 143.773417 249.264993 
L 143.773417 248.76149 
L 360.8064 248.76149 
" style="fill: none; stroke: #ff7500; stroke-width: 1.5; stroke-linecap: square"/>
   </g>
   <g id="line2d_46">
    <defs>
     <path id="m9b9adfe8ff" d="M 0 -6 
L -1.347084 -1.854102 
L -5.706339 -1.854102 
L -2.179628 0.708204 
L -3.526712 4.854102 
L -0 2.291796 
L 3.526712 4.854102 
L 2.179628 0.708204 
L 5.706339 -1.854102 
L 1.347084 -1.854102 
z
" style="stroke: #ff7500; stroke-width: 1.5; stroke-linejoin: bevel"/>
    </defs>
    <g>
     <use xlink:href="#m9b9adfe8ff" x="119.876453" y="270.579972" style="fill-opacity: 0; stroke: #ff7500; stroke-width: 1.5; stroke-linejoin: bevel"/>
     <use xlink:href="#m9b9adfe8ff" x="143.773417" y="249.264993" style="fill-opacity: 0; stroke: #ff7500; stroke-width: 1.5; stroke-linejoin: bevel"/>
     <use xlink:href="#m9b9adfe8ff" x="143.773417" y="248.76149" style="fill-opacity: 0; stroke: #ff7500; stroke-width: 1.5; stroke-linejoin: bevel"/>
     <use xlink:href="#m9b9adfe8ff" x="143.773417" y="248.76149" style="fill-opacity: 0; stroke: #ff7500; stroke-width: 1.5; stroke-linejoin: bevel"/>
     <use xlink:href="#m9b9adfe8ff" x="143.773417" y="248.76149" style="fill-opacity: 0; stroke: #ff7500; stroke-width: 1.5; stroke-linejoin: bevel"/>
     <use xlink:href="#m9b9adfe8ff" x="360.8064" y="248.76149" style="fill-opacity: 0; stroke: #ff7500; stroke-width: 1.5; stroke-linejoin: bevel"/>
    </g>
   </g>
   <g id="line2d_47">
    <path style="fill: none; stroke: #ff7500; stroke-width: 1.5; stroke-linecap: square"/>
    <g/>
   </g>
   <g id="line2d_48">
    <path d="M 144.079302 248.76149 
" clip-path="url(#p05ce301de1)" style="fill: none; stroke: #ff7500; stroke-width: 1.5; stroke-linecap: square"/>
    <defs>
     <path id="m13f69cf4af" d="M -12 12 
L 12 -12 
M -12 -12 
L 12 12 
" style="stroke: #ff7500"/>
    </defs>
    <g clip-path="url(#p05ce301de1)">
     <use xlink:href="#m13f69cf4af" x="144.079302" y="248.76149" style="fill: #ff7500; stroke: #ff7500"/>
    </g>
   </g>
   <g id="line2d_49">
    <defs>
     <path id="m0a3e4ab6c3" d="M 0 1.5 
C 0.397805 1.5 0.77937 1.341951 1.06066 1.06066 
C 1.341951 0.77937 1.5 0.397805 1.5 0 
C 1.5 -0.397805 1.341951 -0.77937 1.06066 -1.06066 
C 0.77937 -1.341951 0.397805 -1.5 0 -1.5 
C -0.397805 -1.5 -0.77937 -1.341951 -1.06066 -1.06066 
C -1.341951 -0.77937 -1.5 -0.397805 -1.5 0 
C -1.5 0.397805 -1.341951 0.77937 -1.06066 1.06066 
C -0.77937 1.341951 -0.397805 1.5 0 1.5 
z
" style="stroke: #6495ed"/>
    </defs>
    <g>
     <use xlink:href="#m0a3e4ab6c3" x="143.965177" y="239.698428" style="fill: #6495ed; stroke: #6495ed"/>
     <use xlink:href="#m0a3e4ab6c3" x="143.965177" y="239.698428" style="fill: #6495ed; stroke: #6495ed"/>
    </g>
   </g>
   <g id="line2d_50">
    <path d="M 27.323974 298.944 
L 27.323974 286.524248 
L 40.363149 286.524248 
L 40.363149 285.685076 
L 66.441498 285.685076 
L 66.441498 284.3424 
L 76.96874 284.3424 
L 76.96874 282.664055 
L 83.678349 282.664055 
L 83.678349 281.992717 
L 88.613828 281.992717 
L 88.613828 281.153545 
L 92.519847 281.153545 
L 92.519847 280.146538 
L 95.752617 280.146538 
L 95.752617 278.803862 
L 98.510456 278.803862 
L 98.510456 278.132524 
L 100.9152 278.132524 
L 100.9152 277.629021 
L 103.047088 277.629021 
L 103.047088 276.622014 
L 104.961779 276.622014 
L 104.961779 276.11851 
L 105.559021 276.11851 
L 105.559021 275.279338 
L 107.244765 275.279338 
L 107.244765 275.111503 
L 108.29012 275.111503 
L 108.29012 274.943669 
L 108.791791 274.943669 
L 108.791791 274.440166 
L 109.756698 274.440166 
L 109.756698 273.768828 
L 110.221204 273.768828 
L 110.221204 273.265324 
L 111.117162 273.265324 
L 111.117162 272.929655 
L 111.762192 272.929655 
L 111.762192 272.761821 
L 111.97238 272.761821 
L 111.97238 272.593986 
L 112.385837 272.593986 
L 112.385837 272.426152 
L 112.589207 272.426152 
L 112.589207 272.258317 
L 112.989468 272.258317 
L 112.989468 272.090483 
L 113.186449 272.090483 
L 113.186449 271.922648 
L 113.954374 271.922648 
L 113.954374 271.754814 
L 114.692177 271.754814 
L 114.692177 271.586979 
L 115.050503 271.586979 
L 115.050503 270.915641 
L 115.227139 270.915641 
L 115.227139 270.747807 
L 115.575511 270.747807 
L 115.575511 270.579972 
L 116.746385 270.579972 
L 116.746385 270.412138 
L 117.226706 270.412138 
L 117.226706 269.908634 
L 118.000953 269.908634 
L 118.000953 269.7408 
L 118.301945 269.7408 
L 118.301945 269.572966 
L 118.889854 269.572966 
L 118.889854 269.405131 
L 119.177058 269.405131 
L 119.177058 269.237297 
L 120.013265 269.237297 
L 120.013265 269.069462 
L 120.28394 269.069462 
L 120.28394 268.733793 
L 120.550775 268.733793 
L 120.550775 268.398124 
L 120.682786 268.398124 
L 120.682786 268.23029 
L 120.944062 268.23029 
L 120.944062 268.062455 
L 121.073351 268.062455 
L 121.073351 267.558952 
L 121.329295 267.558952 
L 121.329295 267.055448 
L 122.076872 267.055448 
L 122.076872 266.551945 
L 122.795872 266.551945 
L 122.795872 266.216276 
L 122.913079 266.216276 
L 122.913079 265.544938 
L 123.713691 265.544938 
L 123.713691 264.705766 
L 123.936316 264.705766 
L 123.936316 264.370097 
L 124.265389 264.370097 
L 124.265389 264.202262 
L 124.695386 264.202262 
L 124.695386 263.698759 
L 125.115773 263.698759 
L 125.115773 263.36309 
L 125.425011 263.36309 
L 125.425011 263.195255 
L 125.628382 263.195255 
L 125.628382 262.859586 
L 126.420564 262.859586 
L 126.420564 262.691752 
L 126.709238 262.691752 
L 126.709238 262.523917 
L 127.273627 262.523917 
L 127.366067 262.020414 
L 127.640693 262.020414 
L 127.731351 261.684745 
L 127.911368 261.684745 
L 127.911368 261.349076 
L 128.266313 261.349076 
L 128.266313 260.845572 
L 128.441306 260.845572 
L 128.441306 260.509903 
L 128.871795 260.509903 
L 128.956723 259.670731 
L 129.125437 259.670731 
L 129.209231 258.831559 
L 129.7043 258.831559 
L 129.78556 258.160221 
L 129.86647 258.160221 
L 129.86647 257.992386 
L 130.186674 257.992386 
L 130.186674 257.656717 
L 130.501519 257.656717 
L 130.501519 257.153214 
L 130.734242 257.153214 
L 130.811181 256.817545 
L 131.341119 256.817545 
L 131.341119 256.64971 
L 131.71071 256.64971 
L 131.71071 256.481876 
L 131.929028 256.481876 
L 131.929028 256.146207 
L 132.144842 256.146207 
L 132.144842 255.810538 
L 132.358208 255.810538 
L 132.428795 255.474869 
L 132.56918 255.474869 
L 132.56918 255.307034 
L 132.708526 255.307034 
L 132.777813 254.467862 
L 133.457005 254.467862 
L 133.457005 254.300028 
L 133.589949 254.300028 
L 133.656071 253.796524 
L 133.918257 253.796524 
L 133.983236 253.293021 
L 134.047992 253.293021 
L 134.047992 252.789517 
L 134.176839 252.789517 
L 134.240933 252.453848 
L 134.431915 252.453848 
L 134.431915 252.118179 
L 134.683578 252.118179 
L 134.683578 251.78251 
L 134.931919 251.78251 
L 134.931919 251.446841 
L 135.054871 251.446841 
L 135.116046 250.775503 
L 135.177024 250.775503 
L 135.177024 250.607669 
L 135.418977 250.607669 
L 135.418977 250.439834 
L 135.717106 250.439834 
L 135.776169 249.936331 
L 136.356818 249.936331 
L 136.356818 249.264993 
L 136.470828 249.264993 
L 136.470828 249.097159 
L 136.640557 249.097159 
L 136.696795 248.593655 
L 136.808769 248.593655 
L 136.808769 248.425821 
L 137.195511 248.425821 
L 137.195511 248.090152 
L 137.840541 248.090152 
L 137.945929 247.586648 
L 138.36167 247.586648 
L 138.412998 246.91531 
L 138.515235 246.91531 
L 138.515235 246.411807 
L 138.818654 246.411807 
L 138.868751 246.076138 
L 138.968547 246.076138 
L 138.968547 245.908303 
L 139.117256 245.908303 
L 139.117256 245.4048 
L 139.459738 245.4048 
L 139.459738 245.069131 
L 139.748412 245.069131 
L 139.748412 244.733462 
L 139.891105 244.733462 
L 139.985636 244.397793 
L 140.219905 244.397793 
L 140.219905 244.062124 
L 140.49723 244.062124 
L 140.49723 243.89429 
L 140.725251 243.89429 
L 140.725251 243.726455 
L 141.128852 243.726455 
L 141.217377 243.055117 
L 141.349389 243.055117 
L 141.349389 242.887283 
L 141.610664 242.887283 
L 141.696956 242.04811 
L 141.739954 242.04811 
L 141.739954 241.712441 
L 142.122575 241.712441 
L 142.164612 241.041103 
L 142.41488 241.041103 
L 142.41488 240.873269 
L 142.743475 240.873269 
L 142.743475 240.705434 
L 142.865233 240.705434 
L 142.945969 240.369766 
L 143.18612 240.369766 
L 143.18612 240.034097 
L 143.734829 240.034097 
L 143.734829 239.866262 
L 143.965177 239.866262 
L 143.965177 239.698428 
L 360.8064 239.698428 
L 360.8064 239.698428 
" style="fill: none; stroke: #6495ed; stroke-width: 1.5; stroke-linecap: square"/>
   </g>
   <g id="line2d_51">
    <defs>
     <path id="m634b54d604" d="M -0 6 
L 6 -6 
L -6 -6 
z
" style="stroke: #6495ed; stroke-width: 1.5; stroke-linejoin: miter"/>
    </defs>
    <g>
     <use xlink:href="#m634b54d604" x="133.589949" y="254.300028" style="fill-opacity: 0; stroke: #6495ed; stroke-width: 1.5; stroke-linejoin: miter"/>
     <use xlink:href="#m634b54d604" x="143.965177" y="239.866262" style="fill-opacity: 0; stroke: #6495ed; stroke-width: 1.5; stroke-linejoin: miter"/>
     <use xlink:href="#m634b54d604" x="143.965177" y="239.698428" style="fill-opacity: 0; stroke: #6495ed; stroke-width: 1.5; stroke-linejoin: miter"/>
     <use xlink:href="#m634b54d604" x="143.965177" y="239.698428" style="fill-opacity: 0; stroke: #6495ed; stroke-width: 1.5; stroke-linejoin: miter"/>
     <use xlink:href="#m634b54d604" x="360.8064" y="239.698428" style="fill-opacity: 0; stroke: #6495ed; stroke-width: 1.5; stroke-linejoin: miter"/>
    </g>
   </g>
   <g id="line2d_52">
    <path style="fill: none; stroke: #6495ed; stroke-width: 1.5; stroke-linecap: square"/>
    <g/>
   </g>
   <g id="line2d_53">
    <path d="M 144.041338 239.698428 
" clip-path="url(#p05ce301de1)" style="fill: none; stroke: #6495ed; stroke-width: 1.5; stroke-linecap: square"/>
    <defs>
     <path id="mffa89dc5e8" d="M -12 12 
L 12 -12 
M -12 -12 
L 12 12 
" style="stroke: #6495ed"/>
    </defs>
    <g clip-path="url(#p05ce301de1)">
     <use xlink:href="#mffa89dc5e8" x="144.041338" y="239.698428" style="fill: #6495ed; stroke: #6495ed"/>
    </g>
   </g>
   <g id="line2d_54">
    <defs>
     <path id="mee8a61b424" d="M 0 1.5 
C 0.397805 1.5 0.77937 1.341951 1.06066 1.06066 
C 1.341951 0.77937 1.5 0.397805 1.5 0 
C 1.5 -0.397805 1.341951 -0.77937 1.06066 -1.06066 
C 0.77937 -1.341951 0.397805 -1.5 0 -1.5 
C -0.397805 -1.5 -0.77937 -1.341951 -1.06066 -1.06066 
C -1.341951 -0.77937 -1.5 -0.397805 -1.5 0 
C -1.5 0.397805 -1.341951 0.77937 -1.06066 1.06066 
C -0.77937 1.341951 -0.397805 1.5 0 1.5 
z
" style="stroke: #ff0000"/>
    </defs>
    <g>
     <use xlink:href="#mee8a61b424" x="274.175172" y="168.536607" style="fill: #ff0000; stroke: #ff0000"/>
     <use xlink:href="#mee8a61b424" x="274.175172" y="168.536607" style="fill: #ff0000; stroke: #ff0000"/>
    </g>
   </g>
   <g id="line2d_55">
    <path d="M 27.323974 298.944 
L 27.323974 286.524248 
L 40.363149 286.524248 
L 40.363149 285.85291 
L 47.990577 285.85291 
L 47.990577 285.517241 
L 53.402323 285.517241 
L 53.402323 285.181572 
L 57.6 285.181572 
L 57.6 283.838897 
L 61.029752 283.838897 
L 61.029752 282.160552 
L 63.929565 282.160552 
L 63.929565 281.489214 
L 66.441498 281.489214 
L 66.441498 280.98571 
L 68.65718 280.98571 
L 68.65718 280.482207 
L 70.639174 280.482207 
L 70.639174 279.307366 
L 72.432107 279.307366 
L 72.432107 278.132524 
L 74.068926 278.132524 
L 74.068926 277.96469 
L 78.266603 277.96469 
L 78.266603 277.461186 
L 79.480672 277.461186 
L 79.480672 276.957683 
L 83.678349 276.957683 
L 83.678349 275.782841 
L 85.471281 275.782841 
L 85.471281 275.615007 
L 86.307488 275.615007 
L 86.307488 274.104497 
L 90.668036 274.104497 
L 90.668036 273.768828 
L 94.735529 273.768828 
L 94.735529 273.600993 
L 95.250946 273.600993 
L 95.250946 273.265324 
L 95.752617 273.265324 
L 95.752617 272.426152 
L 98.077987 272.426152 
L 98.077987 272.090483 
L 98.510456 272.090483 
L 98.510456 271.754814 
L 99.751228 271.754814 
L 99.751228 271.25131 
L 100.9152 271.25131 
L 100.9152 270.747807 
L 101.653002 270.747807 
L 101.653002 270.244303 
L 102.362957 270.244303 
L 102.362957 269.572966 
L 103.047088 269.572966 
L 103.047088 269.069462 
L 103.380045 269.069462 
L 103.380045 268.398124 
L 104.655893 268.398124 
L 104.655893 268.062455 
L 105.26277 268.062455 
L 105.26277 267.894621 
L 105.559021 267.894621 
L 105.559021 267.726786 
L 105.850679 267.726786 
L 105.850679 267.558952 
L 106.699465 267.558952 
L 106.699465 267.223283 
L 107.774703 267.223283 
L 107.774703 266.38411 
L 108.29012 266.38411 
L 108.29012 265.712772 
L 109.520071 265.712772 
L 109.520071 265.544938 
L 110.449226 265.544938 
L 110.449226 265.041434 
L 111.762192 265.041434 
L 111.762192 264.8736 
L 112.385837 264.8736 
L 112.385837 264.705766 
L 112.790402 264.705766 
L 112.790402 264.537931 
L 112.989468 264.537931 
L 112.989468 264.202262 
L 113.57433 264.202262 
L 113.57433 263.698759 
L 114.141556 263.698759 
L 114.141556 263.36309 
L 114.326893 263.36309 
L 114.326893 263.195255 
L 114.510421 263.195255 
L 114.510421 263.027421 
L 114.692177 263.027421 
L 114.692177 262.691752 
L 115.575511 262.691752 
L 115.575511 262.356083 
L 115.747307 262.356083 
L 115.747307 262.020414 
L 116.583514 262.020414 
L 116.583514 261.852579 
L 116.746385 261.852579 
L 116.746385 261.684745 
L 117.067958 261.684745 
L 117.067958 261.013407 
L 117.695068 261.013407 
L 117.695068 260.509903 
L 118.598196 260.509903 
L 118.598196 260.174234 
L 118.74459 260.174234 
L 118.74459 260.0064 
L 119.034004 260.0064 
L 119.034004 259.838566 
L 119.319033 259.838566 
L 119.319033 259.670731 
L 119.459944 259.670731 
L 119.459944 259.502897 
L 119.599808 259.502897 
L 119.599808 259.335062 
L 119.876453 259.335062 
L 119.876453 258.999393 
L 120.28394 258.999393 
L 120.28394 258.49589 
L 120.550775 258.49589 
L 120.550775 258.328055 
L 120.944062 258.328055 
L 120.944062 258.160221 
L 121.073351 258.160221 
L 121.073351 257.488883 
L 121.201758 257.488883 
L 121.201758 257.321048 
L 121.830966 257.321048 
L 121.830966 257.153214 
L 122.19863 257.153214 
L 122.19863 256.64971 
L 122.913079 256.64971 
L 122.913079 256.481876 
L 123.029559 256.481876 
L 123.029559 256.314041 
L 123.4884 256.314041 
L 123.4884 255.978372 
L 123.713691 255.978372 
L 123.713691 255.810538 
L 123.825333 255.810538 
L 123.825333 255.474869 
L 124.265389 255.474869 
L 124.265389 254.971366 
L 124.801367 254.971366 
L 124.801367 254.635697 
L 125.425011 254.635697 
L 125.425011 254.467862 
L 125.929373 254.467862 
L 125.929373 254.132193 
L 126.127391 254.132193 
L 126.127391 253.796524 
L 126.323346 253.796524 
L 126.323346 253.125186 
L 126.993549 253.125186 
L 126.993549 252.957352 
L 127.366067 252.957352 
L 127.366067 252.286014 
L 127.549596 252.286014 
L 127.549596 251.950345 
L 127.731351 251.950345 
L 127.821575 250.775503 
L 128.089678 250.775503 
L 128.089678 250.607669 
L 128.614685 250.607669 
L 128.614685 250.439834 
L 128.786481 250.439834 
L 128.786481 250.272 
L 129.375706 250.272 
L 129.375706 249.600662 
L 129.7043 249.600662 
L 129.78556 248.929324 
L 130.186674 248.929324 
L 130.186674 248.76149 
L 130.4233 248.76149 
L 130.4233 248.425821 
L 130.811181 248.425821 
L 130.811181 248.257986 
L 131.341119 248.257986 
L 131.341119 248.090152 
L 131.489828 248.090152 
L 131.563744 247.418814 
L 132.777813 247.418814 
L 132.846847 246.91531 
L 133.25581 246.91531 
L 133.25581 246.747476 
L 133.390178 246.747476 
L 133.390178 246.579641 
L 133.656071 246.579641 
L 133.656071 246.411807 
L 134.368469 246.411807 
L 134.431915 245.908303 
L 134.558167 245.908303 
L 134.558167 245.572634 
L 135.116046 245.572634 
L 135.116046 245.4048 
L 135.418977 245.4048 
L 135.418977 245.236966 
L 135.538796 245.236966 
L 135.538796 244.901297 
L 135.893741 244.901297 
L 135.893741 244.733462 
L 136.068734 244.733462 
L 136.126705 244.229959 
L 136.184497 244.229959 
L 136.184497 243.89429 
L 136.527575 243.89429 
L 136.527575 243.726455 
L 136.808769 243.726455 
L 136.808769 243.222952 
L 136.97549 243.222952 
L 137.085822 242.719448 
L 137.195511 242.719448 
L 137.195511 242.215945 
L 137.574461 242.215945 
L 137.681345 241.544607 
L 138.310202 241.544607 
L 138.36167 241.208938 
L 138.768422 241.208938 
L 138.768422 241.041103 
L 139.067817 241.041103 
L 139.067817 240.873269 
L 139.411192 240.873269 
L 139.508159 240.034097 
L 140.032723 240.034097 
L 140.126547 239.530593 
L 140.860749 239.530593 
L 140.905699 239.02709 
L 141.217377 239.02709 
L 141.217377 238.691421 
L 141.610664 238.691421 
L 141.610664 238.355752 
L 141.739954 238.355752 
L 141.739954 238.020083 
L 142.702713 238.020083 
L 142.702713 237.852248 
L 142.865233 237.852248 
L 142.865233 237.684414 
L 143.066428 237.684414 
L 143.066428 237.516579 
L 143.423243 237.516579 
L 143.423243 237.348745 
L 143.657415 237.348745 
L 143.657415 237.18091 
L 143.773417 237.18091 
L 143.773417 237.013076 
L 144.454795 237.013076 
L 144.454795 236.845241 
L 144.602918 236.845241 
L 144.602918 236.677407 
L 144.85936 236.677407 
L 144.85936 236.509572 
L 145.112353 236.509572 
L 145.112353 235.838234 
L 145.326529 235.838234 
L 145.326529 235.6704 
L 145.989098 235.6704 
L 145.989098 235.502566 
L 146.294984 235.502566 
L 146.294984 234.999062 
L 146.462796 234.999062 
L 146.462796 234.831228 
L 146.662213 234.831228 
L 146.662213 234.15989 
L 147.248088 234.15989 
L 147.248088 233.824221 
L 147.502732 233.824221 
L 147.597342 233.320717 
L 147.816265 233.320717 
L 147.816265 232.985048 
L 147.940229 232.985048 
L 147.940229 232.817214 
L 148.094045 232.817214 
L 148.094045 231.978041 
L 148.307296 231.978041 
L 148.307296 231.642372 
L 148.637595 231.642372 
L 148.637595 231.306703 
L 148.785835 231.306703 
L 148.785835 231.138869 
L 149.049758 231.138869 
L 149.049758 230.8032 
L 149.165879 230.8032 
L 149.165879 230.467531 
L 149.566749 230.467531 
L 149.566749 230.131862 
L 149.679732 230.131862 
L 149.679732 229.796193 
L 149.98698 229.796193 
L 149.98698 229.460524 
L 150.398028 229.460524 
L 150.425115 228.621352 
L 150.613636 228.621352 
L 150.667154 228.117848 
L 151.375128 228.117848 
L 151.375128 227.950014 
L 151.50336 227.950014 
L 151.50336 227.614345 
L 152.082223 227.614345 
L 152.131727 227.278676 
L 152.279463 227.278676 
L 152.279463 226.775172 
L 152.498913 226.775172 
L 152.498913 226.607338 
L 152.715833 226.607338 
L 152.811444 226.103834 
L 152.930279 226.103834 
L 152.930279 225.936 
L 153.048369 225.936 
L 153.142309 225.264662 
L 153.398253 225.264662 
L 153.398253 225.096828 
L 153.559331 225.096828 
L 153.605101 224.42549 
L 153.8097 224.42549 
L 153.8097 224.257655 
L 153.967309 224.257655 
L 153.967309 223.921986 
L 154.079083 223.921986 
L 154.168026 223.418483 
L 154.822028 223.418483 
L 154.928852 222.747145 
L 155.350181 222.747145 
L 155.412574 222.411476 
L 156.065535 222.411476 
L 156.085579 221.907972 
L 156.363979 221.907972 
L 156.363979 221.740138 
L 156.599372 221.740138 
L 156.677186 221.0688 
L 156.735336 221.0688 
L 156.735336 220.733131 
L 157.288377 220.733131 
L 157.288377 220.565297 
L 157.438121 220.565297 
L 157.438121 220.397462 
L 157.623641 220.397462 
L 157.623641 220.061793 
L 157.789059 220.061793 
L 157.862113 219.55829 
L 157.971166 219.55829 
L 157.971166 219.222621 
L 158.133569 219.222621 
L 158.133569 219.054786 
L 158.436556 219.054786 
L 158.436556 218.719117 
L 158.595008 218.719117 
L 158.595008 218.047779 
L 158.752135 218.047779 
L 158.821551 217.208607 
L 158.873444 217.208607 
L 158.873444 217.040772 
L 159.011133 217.040772 
L 159.011133 216.705103 
L 159.130788 216.705103 
L 159.130788 216.2016 
L 159.300416 216.2016 
L 159.300416 216.033766 
L 160.255188 216.033766 
L 160.271232 215.698097 
L 160.620781 215.698097 
L 160.683643 215.026759 
L 160.808741 215.026759 
L 160.808741 214.69109 
L 160.948489 214.69109 
L 160.948489 214.523255 
L 161.117894 214.523255 
L 161.117894 214.355421 
L 161.300977 214.355421 
L 161.391854 213.516248 
L 161.482294 213.516248 
L 161.482294 213.348414 
L 161.765853 213.348414 
L 161.765853 213.180579 
L 162.045202 213.180579 
L 162.147083 212.173572 
L 162.392235 212.173572 
L 162.392235 211.837903 
L 162.56338 211.837903 
L 162.605924 210.998731 
L 162.942856 210.998731 
L 162.942856 210.663062 
L 163.437203 210.663062 
L 163.450751 210.159559 
L 163.746367 210.159559 
L 163.746367 209.991724 
L 163.91889 209.991724 
L 163.91889 209.82389 
L 164.246284 209.82389 
L 164.349858 209.320386 
L 164.771172 209.320386 
L 164.871904 208.481214 
L 165.281812 208.481214 
L 165.281812 208.145545 
L 165.404283 208.145545 
L 165.45305 207.809876 
L 165.525963 207.809876 
L 165.525963 207.474207 
L 165.731028 207.474207 
L 165.766985 206.802869 
L 166.016779 206.802869 
L 166.075768 205.963697 
L 166.251633 205.963697 
L 166.251633 205.795862 
L 166.47206 205.795862 
L 166.47206 205.124524 
L 166.644276 205.124524 
L 166.644276 204.95669 
L 166.848875 204.95669 
L 166.916583 204.285352 
L 167.10711 204.285352 
L 167.10711 204.117517 
L 167.229371 204.117517 
L 167.229371 203.781848 
L 167.427738 203.781848 
L 167.493397 202.942676 
L 167.656552 202.942676 
L 167.656552 202.607007 
L 167.861203 202.607007 
L 167.861203 202.271338 
L 168.063651 202.271338 
L 168.095418 201.6 
L 168.221954 201.6 
L 168.221954 201.432166 
L 168.389355 201.432166 
L 168.462127 200.592993 
L 168.544952 200.592993 
L 168.627414 200.08949 
L 168.963798 200.08949 
L 168.963798 199.753821 
L 169.373521 199.753821 
L 169.383404 199.250317 
L 169.570194 199.250317 
L 169.570194 198.914648 
L 169.793854 198.914648 
L 169.813178 198.411145 
L 169.909499 198.411145 
L 169.909499 197.907641 
L 170.043526 197.907641 
L 170.043526 197.739807 
L 170.261661 197.739807 
L 170.355719 197.404138 
L 170.421281 197.404138 
L 170.523847 196.397131 
L 170.672043 196.397131 
L 170.764077 195.390124 
L 170.828233 195.390124 
L 170.892171 195.054455 
L 171.028455 195.054455 
L 171.055593 194.383117 
L 171.154768 194.383117 
L 171.226568 193.711779 
L 171.782615 193.711779 
L 171.782615 193.543945 
L 172.007388 193.543945 
L 172.007388 193.208276 
L 172.482581 193.208276 
L 172.482581 193.040441 
L 172.707472 193.040441 
L 172.773594 192.201269 
L 172.823033 192.201269 
L 172.880548 191.362097 
L 173.205875 191.362097 
L 173.270271 190.35509 
L 173.398404 190.35509 
L 173.398404 190.187255 
L 173.667825 190.187255 
L 173.77765 189.851586 
L 173.995397 189.851586 
L 174.05715 189.012414 
L 174.134058 189.012414 
L 174.134058 188.676745 
L 174.400785 188.676745 
L 174.400785 188.341076 
L 174.559024 188.341076 
L 174.656319 187.669738 
L 174.678701 187.669738 
L 174.678701 187.334069 
L 174.827233 187.334069 
L 174.849412 186.9984 
L 174.989276 186.9984 
L 175.069777 186.494897 
L 175.113541 186.494897 
L 175.149934 186.159228 
L 175.273147 186.159228 
L 175.273147 185.823559 
L 175.388379 185.823559 
L 175.460042 185.48789 
L 175.502909 185.48789 
L 175.517176 184.984386 
L 176.030666 184.984386 
L 176.093013 184.313048 
L 176.347181 184.313048 
L 176.428882 183.977379 
L 176.58449 183.977379 
L 176.685284 183.473876 
L 176.778874 183.473876 
L 176.778874 183.306041 
L 176.984467 183.306041 
L 176.984467 183.138207 
L 177.096265 183.138207 
L 177.194361 182.466869 
L 177.220434 182.466869 
L 177.291948 182.1312 
L 177.530521 182.1312 
L 177.588098 181.795531 
L 177.651866 181.795531 
L 177.74078 181.459862 
L 177.948714 181.459862 
L 177.948714 181.292028 
L 178.216255 181.292028 
L 178.320986 180.62069 
L 178.363942 180.62069 
L 178.363942 180.452855 
L 178.528716 180.452855 
L 178.546935 179.781517 
L 179.24407 179.781517 
L 179.296641 179.278014 
L 179.430325 179.278014 
L 179.499697 178.77451 
L 179.557313 178.77451 
L 179.557313 178.606676 
L 179.694876 178.606676 
L 179.694876 178.438841 
L 179.871084 178.438841 
L 179.871084 178.271007 
L 180.045657 178.271007 
L 180.045657 178.103172 
L 180.41202 178.103172 
L 180.41202 177.767503 
L 180.548951 177.767503 
L 180.548951 177.431834 
L 180.668632 177.431834 
L 180.684893 177.096166 
L 180.868211 177.096166 
L 180.953865 176.256993 
L 181.113421 176.256993 
L 181.113421 176.089159 
L 181.444147 176.089159 
L 181.444147 175.921324 
L 181.57896 175.921324 
L 181.609934 175.417821 
L 182.113777 175.417821 
L 182.113777 175.249986 
L 182.628923 175.249986 
L 182.628923 174.914317 
L 182.745826 174.914317 
L 182.745826 174.746483 
L 183.097004 174.746483 
L 183.177853 174.242979 
L 183.29612 174.242979 
L 183.34322 173.739476 
L 183.576965 173.739476 
L 183.576965 173.403807 
L 183.917663 173.403807 
L 183.917663 173.235972 
L 185.115186 173.235972 
L 185.115186 173.068138 
L 185.571964 173.068138 
L 185.571964 172.732469 
L 185.96479 172.732469 
L 186.070886 172.3968 
L 186.718797 172.3968 
L 186.718797 172.228966 
L 186.926013 172.228966 
L 186.984247 171.557628 
L 187.32611 171.557628 
L 187.333722 171.221959 
L 187.620696 171.221959 
L 187.620696 171.054124 
L 188.333981 171.054124 
L 188.333981 170.88629 
L 188.712582 170.88629 
L 188.712582 170.718455 
L 189.362459 170.718455 
L 189.461261 170.382786 
L 189.764626 170.382786 
L 189.764626 170.214952 
L 190.614493 170.214952 
L 190.614493 170.047117 
L 190.821093 170.047117 
L 190.821093 169.879283 
L 191.366303 169.879283 
L 191.366303 169.543614 
L 192.576342 169.543614 
L 192.576342 169.207945 
L 194.88235 169.207945 
L 194.88235 169.04011 
L 198.184305 169.04011 
L 198.184305 168.872276 
L 201.188247 168.872276 
L 201.188247 168.704441 
L 274.175172 168.704441 
L 274.175172 168.536607 
L 360.8064 168.536607 
L 360.8064 168.536607 
" style="fill: none; stroke: #ff0000; stroke-width: 1.5; stroke-linecap: square"/>
   </g>
   <g id="line2d_56">
    <defs>
     <path id="m3c2e887d11" d="M 0 -6 
L -5.196152 -3 
L -5.196152 3 
L -0 6 
L 5.196152 3 
L 5.196152 -3 
z
" style="stroke: #ff0000; stroke-width: 1.5; stroke-linejoin: miter"/>
    </defs>
    <g>
     <use xlink:href="#m3c2e887d11" x="130.4233" y="248.425821" style="fill-opacity: 0; stroke: #ff0000; stroke-width: 1.5; stroke-linejoin: miter"/>
     <use xlink:href="#m3c2e887d11" x="198.184305" y="168.872276" style="fill-opacity: 0; stroke: #ff0000; stroke-width: 1.5; stroke-linejoin: miter"/>
     <use xlink:href="#m3c2e887d11" x="274.175172" y="168.704441" style="fill-opacity: 0; stroke: #ff0000; stroke-width: 1.5; stroke-linejoin: miter"/>
     <use xlink:href="#m3c2e887d11" x="274.175172" y="168.536607" style="fill-opacity: 0; stroke: #ff0000; stroke-width: 1.5; stroke-linejoin: miter"/>
     <use xlink:href="#m3c2e887d11" x="274.175172" y="168.536607" style="fill-opacity: 0; stroke: #ff0000; stroke-width: 1.5; stroke-linejoin: miter"/>
     <use xlink:href="#m3c2e887d11" x="360.8064" y="168.536607" style="fill-opacity: 0; stroke: #ff0000; stroke-width: 1.5; stroke-linejoin: miter"/>
    </g>
   </g>
   <g id="line2d_57">
    <path style="fill: none; stroke: #ff0000; stroke-width: 1.5; stroke-linecap: square"/>
    <g/>
   </g>
   <g id="line2d_58">
    <path d="M 274.176188 168.536607 
" clip-path="url(#p05ce301de1)" style="fill: none; stroke: #ff0000; stroke-width: 1.5; stroke-linecap: square"/>
    <defs>
     <path id="m519c386967" d="M -12 12 
L 12 -12 
M -12 -12 
L 12 12 
" style="stroke: #ff0000"/>
    </defs>
    <g clip-path="url(#p05ce301de1)">
     <use xlink:href="#m519c386967" x="274.176188" y="168.536607" style="fill: #ff0000; stroke: #ff0000"/>
    </g>
   </g>
   <g id="line2d_59">
    <path d="M 360.8064 248.76149 
L 380.514816 293.10336 
" style="fill: none; stroke: #ff7500; stroke-width: 1.5; stroke-linecap: square"/>
    <g>
     <use xlink:href="#m9b9adfe8ff" x="360.8064" y="248.76149" style="fill-opacity: 0; stroke: #ff7500; stroke-width: 1.5; stroke-linejoin: bevel"/>
     <use xlink:href="#m9b9adfe8ff" x="380.514816" y="293.10336" style="fill-opacity: 0; stroke: #ff7500; stroke-width: 1.5; stroke-linejoin: bevel"/>
    </g>
   </g>
   <g id="line2d_60">
    <path d="M 360.8064 239.698428 
L 380.514816 237.033216 
" style="fill: none; stroke: #6495ed; stroke-width: 1.5; stroke-linecap: square"/>
    <g>
     <use xlink:href="#m634b54d604" x="360.8064" y="239.698428" style="fill-opacity: 0; stroke: #6495ed; stroke-width: 1.5; stroke-linejoin: miter"/>
     <use xlink:href="#m634b54d604" x="380.514816" y="237.033216" style="fill-opacity: 0; stroke: #6495ed; stroke-width: 1.5; stroke-linejoin: miter"/>
    </g>
   </g>
   <g id="line2d_61">
    <path d="M 360.8064 236.173903 
L 380.514816 180.963072 
" style="fill: none; stroke: #000080; stroke-width: 1.5; stroke-linecap: square"/>
    <g>
     <use xlink:href="#mac11ecc3cd" x="360.8064" y="236.173903" style="fill-opacity: 0; stroke: #000080; stroke-width: 1.5"/>
     <use xlink:href="#mac11ecc3cd" x="380.514816" y="180.963072" style="fill-opacity: 0; stroke: #000080; stroke-width: 1.5"/>
    </g>
   </g>
   <g id="line2d_62">
    <path d="M 360.8064 231.978041 
L 380.514816 124.892928 
" style="fill: none; stroke: #ff00ff; stroke-width: 1.5; stroke-linecap: square"/>
    <g>
     <use xlink:href="#m96d3f0a494" x="360.8064" y="231.978041" style="fill-opacity: 0; stroke: #ff00ff; stroke-width: 1.5; stroke-linejoin: miter"/>
     <use xlink:href="#m96d3f0a494" x="380.514816" y="124.892928" style="fill-opacity: 0; stroke: #ff00ff; stroke-width: 1.5; stroke-linejoin: miter"/>
    </g>
   </g>
   <g id="line2d_63">
    <path d="M 360.8064 168.536607 
L 380.514816 68.822784 
" style="fill: none; stroke: #ff0000; stroke-width: 1.5; stroke-linecap: square"/>
    <g>
     <use xlink:href="#m3c2e887d11" x="360.8064" y="168.536607" style="fill-opacity: 0; stroke: #ff0000; stroke-width: 1.5; stroke-linejoin: miter"/>
     <use xlink:href="#m3c2e887d11" x="380.514816" y="68.822784" style="fill-opacity: 0; stroke: #ff0000; stroke-width: 1.5; stroke-linejoin: miter"/>
    </g>
   </g>
   <g id="line2d_64">
    <path d="M 360.8064 298.944 
L 360.8064 6.912 
" style="fill: none; stroke: #000000; stroke-width: 1.5; stroke-linecap: square"/>
   </g>
   <g id="patch_3">
    <path d="M 57.6 298.944 
L 360.8064 298.944 
" style="fill: none; stroke: #000000; stroke-width: 0.8; stroke-linejoin: miter; stroke-linecap: square"/>
   </g>
   <g id="patch_4">
    <path d="M 57.6 6.912 
L 360.8064 6.912 
" style="fill: none; stroke: #000000; stroke-width: 0.8; stroke-linejoin: miter; stroke-linecap: square"/>
   </g>
   <g id="text_13">
    <!-- kerComo -->
    <g transform="translate(386.578944 296.966485) scale(0.14 -0.14)">
     <defs>
      <path id="DejaVuSans-6b" d="M 581 4863 
L 1159 4863 
L 1159 1991 
L 2875 3500 
L 3609 3500 
L 1753 1863 
L 3688 0 
L 2938 0 
L 1159 1709 
L 1159 0 
L 581 0 
L 581 4863 
z
" transform="scale(0.015625)"/>
      <path id="DejaVuSans-43" d="M 4122 4306 
L 4122 3641 
Q 3803 3938 3442 4084 
Q 3081 4231 2675 4231 
Q 1875 4231 1450 3742 
Q 1025 3253 1025 2328 
Q 1025 1406 1450 917 
Q 1875 428 2675 428 
Q 3081 428 3442 575 
Q 3803 722 4122 1019 
L 4122 359 
Q 3791 134 3420 21 
Q 3050 -91 2638 -91 
Q 1578 -91 968 557 
Q 359 1206 359 2328 
Q 359 3453 968 4101 
Q 1578 4750 2638 4750 
Q 3056 4750 3426 4639 
Q 3797 4528 4122 4306 
z
" transform="scale(0.015625)"/>
     </defs>
     <use xlink:href="#DejaVuSans-6b"/>
     <use xlink:href="#DejaVuSans-65" x="54.285156"/>
     <use xlink:href="#DejaVuSans-72" x="115.808594"/>
     <use xlink:href="#DejaVuSans-43" x="156.921875"/>
     <use xlink:href="#DejaVuSans-6f" x="226.746094"/>
     <use xlink:href="#DejaVuSans-6d" x="287.927734"/>
     <use xlink:href="#DejaVuSans-6f" x="385.339844"/>
    </g>
   </g>
   <g id="text_14">
    <!-- kerLQ -->
    <g transform="translate(386.578944 240.896341) scale(0.14 -0.14)">
     <defs>
      <path id="DejaVuSans-4c" d="M 628 4666 
L 1259 4666 
L 1259 531 
L 3531 531 
L 3531 0 
L 628 0 
L 628 4666 
z
" transform="scale(0.015625)"/>
      <path id="DejaVuSans-51" d="M 2522 4238 
Q 1834 4238 1429 3725 
Q 1025 3213 1025 2328 
Q 1025 1447 1429 934 
Q 1834 422 2522 422 
Q 3209 422 3611 934 
Q 4013 1447 4013 2328 
Q 4013 3213 3611 3725 
Q 3209 4238 2522 4238 
z
M 3406 84 
L 4238 -825 
L 3475 -825 
L 2784 -78 
Q 2681 -84 2626 -87 
Q 2572 -91 2522 -91 
Q 1538 -91 948 567 
Q 359 1225 359 2328 
Q 359 3434 948 4092 
Q 1538 4750 2522 4750 
Q 3503 4750 4090 4092 
Q 4678 3434 4678 2328 
Q 4678 1516 4351 937 
Q 4025 359 3406 84 
z
" transform="scale(0.015625)"/>
     </defs>
     <use xlink:href="#DejaVuSans-6b"/>
     <use xlink:href="#DejaVuSans-65" x="54.285156"/>
     <use xlink:href="#DejaVuSans-72" x="115.808594"/>
     <use xlink:href="#DejaVuSans-4c" x="156.921875"/>
     <use xlink:href="#DejaVuSans-51" x="212.634766"/>
    </g>
   </g>
   <g id="text_15">
    <!-- AllComo -->
    <g transform="translate(386.578944 184.826197) scale(0.14 -0.14)">
     <defs>
      <path id="DejaVuSans-41" d="M 2188 4044 
L 1331 1722 
L 3047 1722 
L 2188 4044 
z
M 1831 4666 
L 2547 4666 
L 4325 0 
L 3669 0 
L 3244 1197 
L 1141 1197 
L 716 0 
L 50 0 
L 1831 4666 
z
" transform="scale(0.015625)"/>
     </defs>
     <use xlink:href="#DejaVuSans-41"/>
     <use xlink:href="#DejaVuSans-6c" x="68.408203"/>
     <use xlink:href="#DejaVuSans-6c" x="96.191406"/>
     <use xlink:href="#DejaVuSans-43" x="123.974609"/>
     <use xlink:href="#DejaVuSans-6f" x="193.798828"/>
     <use xlink:href="#DejaVuSans-6d" x="254.980469"/>
     <use xlink:href="#DejaVuSans-6f" x="352.392578"/>
    </g>
   </g>
   <g id="text_16">
    <!-- AllLQ -->
    <g transform="translate(386.578944 128.756053) scale(0.14 -0.14)">
     <use xlink:href="#DejaVuSans-41"/>
     <use xlink:href="#DejaVuSans-6c" x="68.408203"/>
     <use xlink:href="#DejaVuSans-6c" x="96.191406"/>
     <use xlink:href="#DejaVuSans-4c" x="123.974609"/>
     <use xlink:href="#DejaVuSans-51" x="179.6875"/>
    </g>
   </g>
   <g id="text_17">
    <!-- COMO-10 d -->
    <g transform="translate(386.578944 72.685909) scale(0.14 -0.14)">
     <defs>
      <path id="DejaVuSans-4f" d="M 2522 4238 
Q 1834 4238 1429 3725 
Q 1025 3213 1025 2328 
Q 1025 1447 1429 934 
Q 1834 422 2522 422 
Q 3209 422 3611 934 
Q 4013 1447 4013 2328 
Q 4013 3213 3611 3725 
Q 3209 4238 2522 4238 
z
M 2522 4750 
Q 3503 4750 4090 4092 
Q 4678 3434 4678 2328 
Q 4678 1225 4090 567 
Q 3503 -91 2522 -91 
Q 1538 -91 948 565 
Q 359 1222 359 2328 
Q 359 3434 948 4092 
Q 1538 4750 2522 4750 
z
" transform="scale(0.015625)"/>
      <path id="DejaVuSans-4d" d="M 628 4666 
L 1569 4666 
L 2759 1491 
L 3956 4666 
L 4897 4666 
L 4897 0 
L 4281 0 
L 4281 4097 
L 3078 897 
L 2444 897 
L 1241 4097 
L 1241 0 
L 628 0 
L 628 4666 
z
" transform="scale(0.015625)"/>
     </defs>
     <use xlink:href="#DejaVuSans-43"/>
     <use xlink:href="#DejaVuSans-4f" x="69.824219"/>
     <use xlink:href="#DejaVuSans-4d" x="148.535156"/>
     <use xlink:href="#DejaVuSans-4f" x="234.814453"/>
     <use xlink:href="#DejaVuSans-2d" x="316.275391"/>
     <use xlink:href="#DejaVuSans-31" x="352.359375"/>
     <use xlink:href="#DejaVuSans-30" x="415.982422"/>
     <use xlink:href="#DejaVuSans-20" x="479.605469"/>
     <use xlink:href="#DejaVuSans-64" x="511.392578"/>
    </g>
   </g>
   <g id="text_18">
    <!-- best 2016 -->
    <g transform="translate(386.578944 16.615765) scale(0.14 -0.14)">
     <defs>
      <path id="DejaVuSans-62" d="M 3116 1747 
Q 3116 2381 2855 2742 
Q 2594 3103 2138 3103 
Q 1681 3103 1420 2742 
Q 1159 2381 1159 1747 
Q 1159 1113 1420 752 
Q 1681 391 2138 391 
Q 2594 391 2855 752 
Q 3116 1113 3116 1747 
z
M 1159 2969 
Q 1341 3281 1617 3432 
Q 1894 3584 2278 3584 
Q 2916 3584 3314 3078 
Q 3713 2572 3713 1747 
Q 3713 922 3314 415 
Q 2916 -91 2278 -91 
Q 1894 -91 1617 61 
Q 1341 213 1159 525 
L 1159 0 
L 581 0 
L 581 4863 
L 1159 4863 
L 1159 2969 
z
" transform="scale(0.015625)"/>
     </defs>
     <use xlink:href="#DejaVuSans-62"/>
     <use xlink:href="#DejaVuSans-65" x="63.476562"/>
     <use xlink:href="#DejaVuSans-73" x="125"/>
     <use xlink:href="#DejaVuSans-74" x="177.099609"/>
     <use xlink:href="#DejaVuSans-20" x="216.308594"/>
     <use xlink:href="#DejaVuSans-32" x="248.095703"/>
     <use xlink:href="#DejaVuSans-30" x="311.71875"/>
     <use xlink:href="#DejaVuSans-31" x="375.341797"/>
     <use xlink:href="#DejaVuSans-36" x="438.964844"/>
    </g>
   </g>
   <g id="text_19">
    <!-- bbob-biobj f1, f2, f11, 5-D -->
    <g transform="translate(60.632064 17.582726) scale(0.102 -0.102)">
     <defs>
      <path id="DejaVuSans-6a" d="M 603 3500 
L 1178 3500 
L 1178 -63 
Q 1178 -731 923 -1031 
Q 669 -1331 103 -1331 
L -116 -1331 
L -116 -844 
L 38 -844 
Q 366 -844 484 -692 
Q 603 -541 603 -63 
L 603 3500 
z
M 603 4863 
L 1178 4863 
L 1178 4134 
L 603 4134 
L 603 4863 
z
" transform="scale(0.015625)"/>
      <path id="DejaVuSans-35" d="M 691 4666 
L 3169 4666 
L 3169 4134 
L 1269 4134 
L 1269 2991 
Q 1406 3038 1543 3061 
Q 1681 3084 1819 3084 
Q 2600 3084 3056 2656 
Q 3513 2228 3513 1497 
Q 3513 744 3044 326 
Q 2575 -91 1722 -91 
Q 1428 -91 1123 -41 
Q 819 9 494 109 
L 494 744 
Q 775 591 1075 516 
Q 1375 441 1709 441 
Q 2250 441 2565 725 
Q 2881 1009 2881 1497 
Q 2881 1984 2565 2268 
Q 2250 2553 1709 2553 
Q 1456 2553 1204 2497 
Q 953 2441 691 2322 
L 691 4666 
z
" transform="scale(0.015625)"/>
      <path id="DejaVuSans-44" d="M 1259 4147 
L 1259 519 
L 2022 519 
Q 2988 519 3436 956 
Q 3884 1394 3884 2338 
Q 3884 3275 3436 3711 
Q 2988 4147 2022 4147 
L 1259 4147 
z
M 628 4666 
L 1925 4666 
Q 3281 4666 3915 4102 
Q 4550 3538 4550 2338 
Q 4550 1131 3912 565 
Q 3275 0 1925 0 
L 628 0 
L 628 4666 
z
" transform="scale(0.015625)"/>
     </defs>
     <use xlink:href="#DejaVuSans-62"/>
     <use xlink:href="#DejaVuSans-62" x="63.476562"/>
     <use xlink:href="#DejaVuSans-6f" x="126.953125"/>
     <use xlink:href="#DejaVuSans-62" x="188.134766"/>
     <use xlink:href="#DejaVuSans-2d" x="251.611328"/>
     <use xlink:href="#DejaVuSans-62" x="287.695312"/>
     <use xlink:href="#DejaVuSans-69" x="351.171875"/>
     <use xlink:href="#DejaVuSans-6f" x="378.955078"/>
     <use xlink:href="#DejaVuSans-62" x="440.136719"/>
     <use xlink:href="#DejaVuSans-6a" x="503.613281"/>
     <use xlink:href="#DejaVuSans-20" x="531.396484"/>
     <use xlink:href="#DejaVuSans-66" x="563.183594"/>
     <use xlink:href="#DejaVuSans-31" x="598.388672"/>
     <use xlink:href="#DejaVuSans-2c" x="662.011719"/>
     <use xlink:href="#DejaVuSans-20" x="693.798828"/>
     <use xlink:href="#DejaVuSans-66" x="725.585938"/>
     <use xlink:href="#DejaVuSans-32" x="760.791016"/>
     <use xlink:href="#DejaVuSans-2c" x="824.414062"/>
     <use xlink:href="#DejaVuSans-20" x="856.201172"/>
     <use xlink:href="#DejaVuSans-66" x="887.988281"/>
     <use xlink:href="#DejaVuSans-31" x="923.193359"/>
     <use xlink:href="#DejaVuSans-31" x="986.816406"/>
     <use xlink:href="#DejaVuSans-2c" x="1050.439453"/>
     <use xlink:href="#DejaVuSans-20" x="1082.226562"/>
     <use xlink:href="#DejaVuSans-35" x="1114.013672"/>
     <use xlink:href="#DejaVuSans-2d" x="1177.636719"/>
     <use xlink:href="#DejaVuSans-44" x="1213.720703"/>
    </g>
    <!-- 58 targets: 1..-1.0e-4 -->
    <g transform="translate(60.632064 29.004495) scale(0.102 -0.102)">
     <defs>
      <path id="DejaVuSans-3a" d="M 750 794 
L 1409 794 
L 1409 0 
L 750 0 
L 750 794 
z
M 750 3309 
L 1409 3309 
L 1409 2516 
L 750 2516 
L 750 3309 
z
" transform="scale(0.015625)"/>
     </defs>
     <use xlink:href="#DejaVuSans-35"/>
     <use xlink:href="#DejaVuSans-38" x="63.623047"/>
     <use xlink:href="#DejaVuSans-20" x="127.246094"/>
     <use xlink:href="#DejaVuSans-74" x="159.033203"/>
     <use xlink:href="#DejaVuSans-61" x="198.242188"/>
     <use xlink:href="#DejaVuSans-72" x="259.521484"/>
     <use xlink:href="#DejaVuSans-67" x="298.884766"/>
     <use xlink:href="#DejaVuSans-65" x="362.361328"/>
     <use xlink:href="#DejaVuSans-74" x="423.884766"/>
     <use xlink:href="#DejaVuSans-73" x="463.09375"/>
     <use xlink:href="#DejaVuSans-3a" x="515.193359"/>
     <use xlink:href="#DejaVuSans-20" x="548.884766"/>
     <use xlink:href="#DejaVuSans-31" x="580.671875"/>
     <use xlink:href="#DejaVuSans-2e" x="644.294922"/>
     <use xlink:href="#DejaVuSans-2e" x="676.082031"/>
     <use xlink:href="#DejaVuSans-2d" x="707.869141"/>
     <use xlink:href="#DejaVuSans-31" x="743.953125"/>
     <use xlink:href="#DejaVuSans-2e" x="807.576172"/>
     <use xlink:href="#DejaVuSans-30" x="839.363281"/>
     <use xlink:href="#DejaVuSans-65" x="902.986328"/>
     <use xlink:href="#DejaVuSans-2d" x="964.509766"/>
     <use xlink:href="#DejaVuSans-34" x="1000.59375"/>
    </g>
    <!-- 10 instances -->
    <g transform="translate(60.632064 40.426264) scale(0.102 -0.102)">
     <use xlink:href="#DejaVuSans-31"/>
     <use xlink:href="#DejaVuSans-30" x="63.623047"/>
     <use xlink:href="#DejaVuSans-20" x="127.246094"/>
     <use xlink:href="#DejaVuSans-69" x="159.033203"/>
     <use xlink:href="#DejaVuSans-6e" x="186.816406"/>
     <use xlink:href="#DejaVuSans-73" x="250.195312"/>
     <use xlink:href="#DejaVuSans-74" x="302.294922"/>
     <use xlink:href="#DejaVuSans-61" x="341.503906"/>
     <use xlink:href="#DejaVuSans-6e" x="402.783203"/>
     <use xlink:href="#DejaVuSans-63" x="466.162109"/>
     <use xlink:href="#DejaVuSans-65" x="521.142578"/>
     <use xlink:href="#DejaVuSans-73" x="582.666016"/>
    </g>
   </g>
   <g id="text_20">
    <!-- v2.6, hv-hash=ff0e71e8cd978373 -->
    <g style="fill: #808080" transform="translate(123.707887 293.943992) scale(0.1 -0.1)">
     <defs>
      <path id="DejaVuSans-68" d="M 3513 2113 
L 3513 0 
L 2938 0 
L 2938 2094 
Q 2938 2591 2744 2837 
Q 2550 3084 2163 3084 
Q 1697 3084 1428 2787 
Q 1159 2491 1159 1978 
L 1159 0 
L 581 0 
L 581 4863 
L 1159 4863 
L 1159 2956 
Q 1366 3272 1645 3428 
Q 1925 3584 2291 3584 
Q 2894 3584 3203 3211 
Q 3513 2838 3513 2113 
z
" transform="scale(0.015625)"/>
      <path id="DejaVuSans-3d" d="M 678 2906 
L 4684 2906 
L 4684 2381 
L 678 2381 
L 678 2906 
z
M 678 1631 
L 4684 1631 
L 4684 1100 
L 678 1100 
L 678 1631 
z
" transform="scale(0.015625)"/>
      <path id="DejaVuSans-37" d="M 525 4666 
L 3525 4666 
L 3525 4397 
L 1831 0 
L 1172 0 
L 2766 4134 
L 525 4134 
L 525 4666 
z
" transform="scale(0.015625)"/>
      <path id="DejaVuSans-39" d="M 703 97 
L 703 672 
Q 941 559 1184 500 
Q 1428 441 1663 441 
Q 2288 441 2617 861 
Q 2947 1281 2994 2138 
Q 2813 1869 2534 1725 
Q 2256 1581 1919 1581 
Q 1219 1581 811 2004 
Q 403 2428 403 3163 
Q 403 3881 828 4315 
Q 1253 4750 1959 4750 
Q 2769 4750 3195 4129 
Q 3622 3509 3622 2328 
Q 3622 1225 3098 567 
Q 2575 -91 1691 -91 
Q 1453 -91 1209 -44 
Q 966 3 703 97 
z
M 1959 2075 
Q 2384 2075 2632 2365 
Q 2881 2656 2881 3163 
Q 2881 3666 2632 3958 
Q 2384 4250 1959 4250 
Q 1534 4250 1286 3958 
Q 1038 3666 1038 3163 
Q 1038 2656 1286 2365 
Q 1534 2075 1959 2075 
z
" transform="scale(0.015625)"/>
      <path id="DejaVuSans-33" d="M 2597 2516 
Q 3050 2419 3304 2112 
Q 3559 1806 3559 1356 
Q 3559 666 3084 287 
Q 2609 -91 1734 -91 
Q 1441 -91 1130 -33 
Q 819 25 488 141 
L 488 750 
Q 750 597 1062 519 
Q 1375 441 1716 441 
Q 2309 441 2620 675 
Q 2931 909 2931 1356 
Q 2931 1769 2642 2001 
Q 2353 2234 1838 2234 
L 1294 2234 
L 1294 2753 
L 1863 2753 
Q 2328 2753 2575 2939 
Q 2822 3125 2822 3475 
Q 2822 3834 2567 4026 
Q 2313 4219 1838 4219 
Q 1578 4219 1281 4162 
Q 984 4106 628 3988 
L 628 4550 
Q 988 4650 1302 4700 
Q 1616 4750 1894 4750 
Q 2613 4750 3031 4423 
Q 3450 4097 3450 3541 
Q 3450 3153 3228 2886 
Q 3006 2619 2597 2516 
z
" transform="scale(0.015625)"/>
     </defs>
     <use xlink:href="#DejaVuSans-76"/>
     <use xlink:href="#DejaVuSans-32" x="59.179688"/>
     <use xlink:href="#DejaVuSans-2e" x="122.802734"/>
     <use xlink:href="#DejaVuSans-36" x="154.589844"/>
     <use xlink:href="#DejaVuSans-2c" x="218.212891"/>
     <use xlink:href="#DejaVuSans-20" x="250"/>
     <use xlink:href="#DejaVuSans-68" x="281.787109"/>
     <use xlink:href="#DejaVuSans-76" x="345.166016"/>
     <use xlink:href="#DejaVuSans-2d" x="401.720703"/>
     <use xlink:href="#DejaVuSans-68" x="437.804688"/>
     <use xlink:href="#DejaVuSans-61" x="501.183594"/>
     <use xlink:href="#DejaVuSans-73" x="562.462891"/>
     <use xlink:href="#DejaVuSans-68" x="614.5625"/>
     <use xlink:href="#DejaVuSans-3d" x="677.941406"/>
     <use xlink:href="#DejaVuSans-66" x="761.730469"/>
     <use xlink:href="#DejaVuSans-66" x="796.935547"/>
     <use xlink:href="#DejaVuSans-30" x="832.140625"/>
     <use xlink:href="#DejaVuSans-65" x="895.763672"/>
     <use xlink:href="#DejaVuSans-37" x="957.287109"/>
     <use xlink:href="#DejaVuSans-31" x="1020.910156"/>
     <use xlink:href="#DejaVuSans-65" x="1084.533203"/>
     <use xlink:href="#DejaVuSans-38" x="1146.056641"/>
     <use xlink:href="#DejaVuSans-63" x="1209.679688"/>
     <use xlink:href="#DejaVuSans-64" x="1264.660156"/>
     <use xlink:href="#DejaVuSans-39" x="1328.136719"/>
     <use xlink:href="#DejaVuSans-37" x="1391.759766"/>
     <use xlink:href="#DejaVuSans-38" x="1455.382812"/>
     <use xlink:href="#DejaVuSans-33" x="1519.005859"/>
     <use xlink:href="#DejaVuSans-37" x="1582.628906"/>
     <use xlink:href="#DejaVuSans-33" x="1646.251953"/>
    </g>
   </g>
  </g>
 </g>
 <defs>
  <clipPath id="p05ce301de1">
   <rect x="57.6" y="6.912" width="303.2064" height="292.032"/>
  </clipPath>
 </defs>
</svg>
