<?xml version="1.0" encoding="utf-8" standalone="no"?>
<!DOCTYPE svg PUBLIC "-//W3C//DTD SVG 1.1//EN"
  "http://www.w3.org/Graphics/SVG/1.1/DTD/svg11.dtd">
<svg xmlns:xlink="http://www.w3.org/1999/xlink" width="460.8pt" height="345.6pt" viewBox="0 0 460.8 345.6" xmlns="http://www.w3.org/2000/svg" version="1.1">
 <metadata>
  <rdf:RDF xmlns:dc="http://purl.org/dc/elements/1.1/" xmlns:cc="http://creativecommons.org/ns#" xmlns:rdf="http://www.w3.org/1999/02/22-rdf-syntax-ns#">
   <cc:Work>
    <dc:type rdf:resource="http://purl.org/dc/dcmitype/StillImage"/>
    <dc:date>2023-02-10T14:01:14.354007</dc:date>
    <dc:format>image/svg+xml</dc:format>
    <dc:creator>
     <cc:Agent>
      <dc:title>Matplotlib v3.6.3, https://matplotlib.org/</dc:title>
     </cc:Agent>
    </dc:creator>
   </cc:Work>
  </rdf:RDF>
 </metadata>
 <defs>
  <style type="text/css">*{stroke-linejoin: round; stroke-linecap: butt}</style>
 </defs>
 <g id="figure_1">
  <g id="patch_1">
   <path d="M 0 345.6 
L 460.8 345.6 
L 460.8 0 
L 0 0 
z
" style="fill: #ffffff"/>
  </g>
  <g id="axes_1">
   <g id="patch_2">
    <path d="M 57.6 298.944 
L 360.8064 298.944 
L 360.8064 6.912 
L 57.6 6.912 
z
" style="fill: #ffffff"/>
   </g>
   <g id="line2d_1">
    <path d="M 57.6 298.944 
L 57.6 290.552276 
L 70.639174 290.552276 
L 70.639174 287.195586 
L 89.668958 287.195586 
L 89.668958 283.838897 
L 97.857967 283.838897 
L 97.857967 280.482207 
L 100.9152 280.482207 
L 100.9152 278.803862 
L 107.904887 278.803862 
L 107.904887 275.447172 
L 110.897141 275.447172 
L 110.897141 272.090483 
L 120.944062 272.090483 
L 120.944062 270.412138 
L 131.929028 270.412138 
L 131.929028 268.733793 
L 134.931919 268.733793 
L 134.931919 263.698759 
L 137.787626 263.698759 
L 137.787626 258.663724 
L 146.859539 258.663724 
L 146.859539 255.307034 
L 147.660152 255.307034 
L 147.660152 251.950345 
L 148.652472 251.950345 
L 148.652472 246.91531 
L 153.764426 246.91531 
L 153.764426 245.236966 
L 154.212341 245.236966 
L 154.212341 241.880276 
L 155.954908 241.880276 
L 155.954908 240.201931 
L 156.648044 240.201931 
L 156.648044 238.523586 
L 159.062507 238.523586 
L 159.062507 235.166897 
L 159.527013 235.166897 
L 159.527013 231.810207 
L 162.349204 231.810207 
L 162.349204 226.775172 
L 162.492258 226.775172 
L 162.527853 220.061793 
L 162.915008 220.061793 
L 162.984551 211.670069 
L 163.260183 211.670069 
L 163.260183 209.991724 
L 164.063646 209.991724 
L 164.063646 204.95669 
L 164.70794 204.95669 
L 164.70794 203.278345 
L 166.460523 203.278345 
L 166.460523 199.921655 
L 166.632844 199.921655 
L 166.718416 191.529931 
L 169.735764 191.529931 
L 169.735764 188.173241 
L 170.704306 188.173241 
L 170.704306 184.816552 
L 172.015979 184.816552 
L 172.015979 183.138207 
L 174.393216 183.138207 
L 174.393216 178.103172 
L 175.135386 178.103172 
L 175.135386 174.746483 
L 176.093013 174.746483 
L 176.093013 169.711448 
L 178.643809 169.711448 
L 178.643809 166.354759 
L 179.194285 166.354759 
L 179.194285 164.676414 
L 179.941672 164.676414 
L 179.941672 159.641379 
L 180.483348 159.641379 
L 180.483348 157.963034 
L 184.410747 157.963034 
L 184.410747 154.606345 
L 186.679442 154.606345 
L 186.679442 149.57131 
L 187.403982 149.57131 
L 187.403982 146.214621 
L 188.337588 146.214621 
L 188.337588 144.536276 
L 189.685885 144.536276 
L 189.685885 142.857931 
L 190.722844 142.857931 
L 190.722844 137.822897 
L 193.801117 137.822897 
L 193.801117 132.787862 
L 197.862051 132.787862 
L 197.862051 131.109517 
L 202.492789 131.109517 
L 202.492789 126.074483 
L 202.666207 126.074483 
L 202.666207 122.717793 
L 207.822558 122.717793 
L 207.822558 119.361103 
L 209.853463 119.361103 
L 209.853463 116.004414 
L 216.789273 116.004414 
L 216.789273 114.326069 
L 216.986958 114.326069 
L 216.986958 110.969379 
L 230.03498 110.969379 
L 230.081114 104.256 
L 230.446172 104.256 
L 230.446172 99.220966 
L 230.563116 99.220966 
L 230.655579 95.864276 
L 230.858919 95.864276 
L 230.858919 90.829241 
L 237.79657 90.829241 
L 237.79657 87.472552 
L 242.477577 87.472552 
L 242.477577 85.794207 
L 242.954365 85.794207 
L 242.954365 80.759172 
L 243.36622 80.759172 
L 243.36622 77.402483 
L 245.010738 77.402483 
L 245.010738 74.045793 
L 247.251574 74.045793 
L 247.251574 70.689103 
L 249.479102 70.689103 
L 249.479102 67.332414 
L 249.614951 67.332414 
L 249.614951 65.654069 
L 249.875528 65.654069 
L 249.875528 63.975724 
L 254.359912 63.975724 
L 254.359912 60.619034 
L 255.029908 60.619034 
L 255.029908 57.262345 
L 256.406362 57.262345 
L 256.406362 52.22731 
L 258.981174 52.22731 
L 258.981174 47.192276 
L 259.993055 47.192276 
L 259.993055 42.157241 
L 360.8064 42.157241 
L 360.8064 42.157241 
" style="fill: none; stroke: #f5deb3; stroke-width: 4; stroke-linecap: square"/>
   </g>
   <g id="line2d_2">
    <defs>
     <path id="m2dc1ed2421" d="M -0 7.778175 
L 7.778175 0 
L 0 -7.778175 
L -7.778175 -0 
z
" style="stroke: #f5deb3; stroke-width: 1.5; stroke-linejoin: miter"/>
    </defs>
    <g>
     <use xlink:href="#m2dc1ed2421" x="162.984551" y="216.705103" style="fill: #f5deb3; stroke: #f5deb3; stroke-width: 1.5; stroke-linejoin: miter"/>
     <use xlink:href="#m2dc1ed2421" x="216.789273" y="116.004414" style="fill: #f5deb3; stroke: #f5deb3; stroke-width: 1.5; stroke-linejoin: miter"/>
     <use xlink:href="#m2dc1ed2421" x="259.993055" y="42.157241" style="fill: #f5deb3; stroke: #f5deb3; stroke-width: 1.5; stroke-linejoin: miter"/>
     <use xlink:href="#m2dc1ed2421" x="259.993055" y="42.157241" style="fill: #f5deb3; stroke: #f5deb3; stroke-width: 1.5; stroke-linejoin: miter"/>
     <use xlink:href="#m2dc1ed2421" x="360.8064" y="42.157241" style="fill: #f5deb3; stroke: #f5deb3; stroke-width: 1.5; stroke-linejoin: miter"/>
    </g>
   </g>
   <g id="line2d_3">
    <path style="fill: none; stroke: #f5deb3; stroke-width: 4; stroke-linecap: square"/>
    <g/>
   </g>
   <g id="line2d_4">
    <path d="M 360.8064 42.157241 
L 380.514816 12.75264 
" style="fill: none; stroke: #f5deb3; stroke-width: 4; stroke-linecap: square"/>
    <g>
     <use xlink:href="#m2dc1ed2421" x="360.8064" y="42.157241" style="fill: #f5deb3; stroke: #f5deb3; stroke-width: 1.5; stroke-linejoin: miter"/>
     <use xlink:href="#m2dc1ed2421" x="380.514816" y="12.75264" style="fill: #f5deb3; stroke: #f5deb3; stroke-width: 1.5; stroke-linejoin: miter"/>
    </g>
   </g>
   <g id="matplotlib.axis_1">
    <g id="xtick_1">
     <g id="line2d_5">
      <path d="M 57.6 298.944 
L 57.6 6.912 
" clip-path="url(#p123fcf21f7)" style="fill: none; stroke: #b0b0b0; stroke-width: 0.8; stroke-linecap: square"/>
     </g>
     <g id="line2d_6">
      <defs>
       <path id="mc668bd2b1f" d="M 0 0 
L 0 3.5 
" style="stroke: #000000; stroke-width: 0.8"/>
      </defs>
      <g>
       <use xlink:href="#mc668bd2b1f" x="57.6" y="298.944" style="stroke: #000000; stroke-width: 0.8"/>
      </g>
     </g>
     <g id="text_1">
      <!-- 0 -->
      <g transform="translate(52.191875 318.861344) scale(0.17 -0.17)">
       <defs>
        <path id="DejaVuSans-30" d="M 2034 4250 
Q 1547 4250 1301 3770 
Q 1056 3291 1056 2328 
Q 1056 1369 1301 889 
Q 1547 409 2034 409 
Q 2525 409 2770 889 
Q 3016 1369 3016 2328 
Q 3016 3291 2770 3770 
Q 2525 4250 2034 4250 
z
M 2034 4750 
Q 2819 4750 3233 4129 
Q 3647 3509 3647 2328 
Q 3647 1150 3233 529 
Q 2819 -91 2034 -91 
Q 1250 -91 836 529 
Q 422 1150 422 2328 
Q 422 3509 836 4129 
Q 1250 4750 2034 4750 
z
" transform="scale(0.015625)"/>
       </defs>
       <use xlink:href="#DejaVuSans-30"/>
      </g>
     </g>
    </g>
    <g id="xtick_2">
     <g id="line2d_7">
      <path d="M 144.2304 298.944 
L 144.2304 6.912 
" clip-path="url(#p123fcf21f7)" style="fill: none; stroke: #b0b0b0; stroke-width: 0.8; stroke-linecap: square"/>
     </g>
     <g id="line2d_8">
      <g>
       <use xlink:href="#mc668bd2b1f" x="144.2304" y="298.944" style="stroke: #000000; stroke-width: 0.8"/>
      </g>
     </g>
     <g id="text_2">
      <!-- 2 -->
      <g transform="translate(138.822275 318.861344) scale(0.17 -0.17)">
       <defs>
        <path id="DejaVuSans-32" d="M 1228 531 
L 3431 531 
L 3431 0 
L 469 0 
L 469 531 
Q 828 903 1448 1529 
Q 2069 2156 2228 2338 
Q 2531 2678 2651 2914 
Q 2772 3150 2772 3378 
Q 2772 3750 2511 3984 
Q 2250 4219 1831 4219 
Q 1534 4219 1204 4116 
Q 875 4013 500 3803 
L 500 4441 
Q 881 4594 1212 4672 
Q 1544 4750 1819 4750 
Q 2544 4750 2975 4387 
Q 3406 4025 3406 3419 
Q 3406 3131 3298 2873 
Q 3191 2616 2906 2266 
Q 2828 2175 2409 1742 
Q 1991 1309 1228 531 
z
" transform="scale(0.015625)"/>
       </defs>
       <use xlink:href="#DejaVuSans-32"/>
      </g>
     </g>
    </g>
    <g id="xtick_3">
     <g id="line2d_9">
      <path d="M 230.8608 298.944 
L 230.8608 6.912 
" clip-path="url(#p123fcf21f7)" style="fill: none; stroke: #b0b0b0; stroke-width: 0.8; stroke-linecap: square"/>
     </g>
     <g id="line2d_10">
      <g>
       <use xlink:href="#mc668bd2b1f" x="230.8608" y="298.944" style="stroke: #000000; stroke-width: 0.8"/>
      </g>
     </g>
     <g id="text_3">
      <!-- 4 -->
      <g transform="translate(225.452675 318.861344) scale(0.17 -0.17)">
       <defs>
        <path id="DejaVuSans-34" d="M 2419 4116 
L 825 1625 
L 2419 1625 
L 2419 4116 
z
M 2253 4666 
L 3047 4666 
L 3047 1625 
L 3713 1625 
L 3713 1100 
L 3047 1100 
L 3047 0 
L 2419 0 
L 2419 1100 
L 313 1100 
L 313 1709 
L 2253 4666 
z
" transform="scale(0.015625)"/>
       </defs>
       <use xlink:href="#DejaVuSans-34"/>
      </g>
     </g>
    </g>
    <g id="xtick_4">
     <g id="line2d_11">
      <path d="M 317.4912 298.944 
L 317.4912 6.912 
" clip-path="url(#p123fcf21f7)" style="fill: none; stroke: #b0b0b0; stroke-width: 0.8; stroke-linecap: square"/>
     </g>
     <g id="line2d_12">
      <g>
       <use xlink:href="#mc668bd2b1f" x="317.4912" y="298.944" style="stroke: #000000; stroke-width: 0.8"/>
      </g>
     </g>
     <g id="text_4">
      <!-- 6 -->
      <g transform="translate(312.083075 318.861344) scale(0.17 -0.17)">
       <defs>
        <path id="DejaVuSans-36" d="M 2113 2584 
Q 1688 2584 1439 2293 
Q 1191 2003 1191 1497 
Q 1191 994 1439 701 
Q 1688 409 2113 409 
Q 2538 409 2786 701 
Q 3034 994 3034 1497 
Q 3034 2003 2786 2293 
Q 2538 2584 2113 2584 
z
M 3366 4563 
L 3366 3988 
Q 3128 4100 2886 4159 
Q 2644 4219 2406 4219 
Q 1781 4219 1451 3797 
Q 1122 3375 1075 2522 
Q 1259 2794 1537 2939 
Q 1816 3084 2150 3084 
Q 2853 3084 3261 2657 
Q 3669 2231 3669 1497 
Q 3669 778 3244 343 
Q 2819 -91 2113 -91 
Q 1303 -91 875 529 
Q 447 1150 447 2328 
Q 447 3434 972 4092 
Q 1497 4750 2381 4750 
Q 2619 4750 2861 4703 
Q 3103 4656 3366 4563 
z
" transform="scale(0.015625)"/>
       </defs>
       <use xlink:href="#DejaVuSans-36"/>
      </g>
     </g>
    </g>
    <g id="xtick_5">
     <g id="line2d_13">
      <path d="M 100.9152 298.944 
L 100.9152 6.912 
" clip-path="url(#p123fcf21f7)" style="fill: none; stroke: #b0b0b0; stroke-width: 0.8; stroke-linecap: square"/>
     </g>
     <g id="line2d_14">
      <defs>
       <path id="m6819000789" d="M 0 0 
L 0 2 
" style="stroke: #000000; stroke-width: 0.6"/>
      </defs>
      <g>
       <use xlink:href="#m6819000789" x="100.9152" y="298.944" style="stroke: #000000; stroke-width: 0.6"/>
      </g>
     </g>
    </g>
    <g id="xtick_6">
     <g id="line2d_15">
      <path d="M 187.5456 298.944 
L 187.5456 6.912 
" clip-path="url(#p123fcf21f7)" style="fill: none; stroke: #b0b0b0; stroke-width: 0.8; stroke-linecap: square"/>
     </g>
     <g id="line2d_16">
      <g>
       <use xlink:href="#m6819000789" x="187.5456" y="298.944" style="stroke: #000000; stroke-width: 0.6"/>
      </g>
     </g>
    </g>
    <g id="xtick_7">
     <g id="line2d_17">
      <path d="M 274.176 298.944 
L 274.176 6.912 
" clip-path="url(#p123fcf21f7)" style="fill: none; stroke: #b0b0b0; stroke-width: 0.8; stroke-linecap: square"/>
     </g>
     <g id="line2d_18">
      <g>
       <use xlink:href="#m6819000789" x="274.176" y="298.944" style="stroke: #000000; stroke-width: 0.6"/>
      </g>
     </g>
    </g>
    <g id="xtick_8">
     <g id="line2d_19">
      <path d="M 360.8064 298.944 
L 360.8064 6.912 
" clip-path="url(#p123fcf21f7)" style="fill: none; stroke: #b0b0b0; stroke-width: 0.8; stroke-linecap: square"/>
     </g>
     <g id="line2d_20">
      <g>
       <use xlink:href="#m6819000789" x="360.8064" y="298.944" style="stroke: #000000; stroke-width: 0.6"/>
      </g>
     </g>
    </g>
    <g id="text_5">
     <!-- log10(# f-evals / dimension) -->
     <g transform="translate(88.823278 339.314156) scale(0.17 -0.17)">
      <defs>
       <path id="DejaVuSans-6c" d="M 603 4863 
L 1178 4863 
L 1178 0 
L 603 0 
L 603 4863 
z
" transform="scale(0.015625)"/>
       <path id="DejaVuSans-6f" d="M 1959 3097 
Q 1497 3097 1228 2736 
Q 959 2375 959 1747 
Q 959 1119 1226 758 
Q 1494 397 1959 397 
Q 2419 397 2687 759 
Q 2956 1122 2956 1747 
Q 2956 2369 2687 2733 
Q 2419 3097 1959 3097 
z
M 1959 3584 
Q 2709 3584 3137 3096 
Q 3566 2609 3566 1747 
Q 3566 888 3137 398 
Q 2709 -91 1959 -91 
Q 1206 -91 779 398 
Q 353 888 353 1747 
Q 353 2609 779 3096 
Q 1206 3584 1959 3584 
z
" transform="scale(0.015625)"/>
       <path id="DejaVuSans-67" d="M 2906 1791 
Q 2906 2416 2648 2759 
Q 2391 3103 1925 3103 
Q 1463 3103 1205 2759 
Q 947 2416 947 1791 
Q 947 1169 1205 825 
Q 1463 481 1925 481 
Q 2391 481 2648 825 
Q 2906 1169 2906 1791 
z
M 3481 434 
Q 3481 -459 3084 -895 
Q 2688 -1331 1869 -1331 
Q 1566 -1331 1297 -1286 
Q 1028 -1241 775 -1147 
L 775 -588 
Q 1028 -725 1275 -790 
Q 1522 -856 1778 -856 
Q 2344 -856 2625 -561 
Q 2906 -266 2906 331 
L 2906 616 
Q 2728 306 2450 153 
Q 2172 0 1784 0 
Q 1141 0 747 490 
Q 353 981 353 1791 
Q 353 2603 747 3093 
Q 1141 3584 1784 3584 
Q 2172 3584 2450 3431 
Q 2728 3278 2906 2969 
L 2906 3500 
L 3481 3500 
L 3481 434 
z
" transform="scale(0.015625)"/>
       <path id="DejaVuSans-31" d="M 794 531 
L 1825 531 
L 1825 4091 
L 703 3866 
L 703 4441 
L 1819 4666 
L 2450 4666 
L 2450 531 
L 3481 531 
L 3481 0 
L 794 0 
L 794 531 
z
" transform="scale(0.015625)"/>
       <path id="DejaVuSans-28" d="M 1984 4856 
Q 1566 4138 1362 3434 
Q 1159 2731 1159 2009 
Q 1159 1288 1364 580 
Q 1569 -128 1984 -844 
L 1484 -844 
Q 1016 -109 783 600 
Q 550 1309 550 2009 
Q 550 2706 781 3412 
Q 1013 4119 1484 4856 
L 1984 4856 
z
" transform="scale(0.015625)"/>
       <path id="DejaVuSans-23" d="M 3272 2816 
L 2363 2816 
L 2100 1772 
L 3016 1772 
L 3272 2816 
z
M 2803 4594 
L 2478 3297 
L 3391 3297 
L 3719 4594 
L 4219 4594 
L 3897 3297 
L 4872 3297 
L 4872 2816 
L 3775 2816 
L 3519 1772 
L 4513 1772 
L 4513 1294 
L 3397 1294 
L 3072 0 
L 2572 0 
L 2894 1294 
L 1978 1294 
L 1656 0 
L 1153 0 
L 1478 1294 
L 494 1294 
L 494 1772 
L 1594 1772 
L 1856 2816 
L 850 2816 
L 850 3297 
L 1978 3297 
L 2297 4594 
L 2803 4594 
z
" transform="scale(0.015625)"/>
       <path id="DejaVuSans-20" transform="scale(0.015625)"/>
       <path id="DejaVuSans-66" d="M 2375 4863 
L 2375 4384 
L 1825 4384 
Q 1516 4384 1395 4259 
Q 1275 4134 1275 3809 
L 1275 3500 
L 2222 3500 
L 2222 3053 
L 1275 3053 
L 1275 0 
L 697 0 
L 697 3053 
L 147 3053 
L 147 3500 
L 697 3500 
L 697 3744 
Q 697 4328 969 4595 
Q 1241 4863 1831 4863 
L 2375 4863 
z
" transform="scale(0.015625)"/>
       <path id="DejaVuSans-2d" d="M 313 2009 
L 1997 2009 
L 1997 1497 
L 313 1497 
L 313 2009 
z
" transform="scale(0.015625)"/>
       <path id="DejaVuSans-65" d="M 3597 1894 
L 3597 1613 
L 953 1613 
Q 991 1019 1311 708 
Q 1631 397 2203 397 
Q 2534 397 2845 478 
Q 3156 559 3463 722 
L 3463 178 
Q 3153 47 2828 -22 
Q 2503 -91 2169 -91 
Q 1331 -91 842 396 
Q 353 884 353 1716 
Q 353 2575 817 3079 
Q 1281 3584 2069 3584 
Q 2775 3584 3186 3129 
Q 3597 2675 3597 1894 
z
M 3022 2063 
Q 3016 2534 2758 2815 
Q 2500 3097 2075 3097 
Q 1594 3097 1305 2825 
Q 1016 2553 972 2059 
L 3022 2063 
z
" transform="scale(0.015625)"/>
       <path id="DejaVuSans-76" d="M 191 3500 
L 800 3500 
L 1894 563 
L 2988 3500 
L 3597 3500 
L 2284 0 
L 1503 0 
L 191 3500 
z
" transform="scale(0.015625)"/>
       <path id="DejaVuSans-61" d="M 2194 1759 
Q 1497 1759 1228 1600 
Q 959 1441 959 1056 
Q 959 750 1161 570 
Q 1363 391 1709 391 
Q 2188 391 2477 730 
Q 2766 1069 2766 1631 
L 2766 1759 
L 2194 1759 
z
M 3341 1997 
L 3341 0 
L 2766 0 
L 2766 531 
Q 2569 213 2275 61 
Q 1981 -91 1556 -91 
Q 1019 -91 701 211 
Q 384 513 384 1019 
Q 384 1609 779 1909 
Q 1175 2209 1959 2209 
L 2766 2209 
L 2766 2266 
Q 2766 2663 2505 2880 
Q 2244 3097 1772 3097 
Q 1472 3097 1187 3025 
Q 903 2953 641 2809 
L 641 3341 
Q 956 3463 1253 3523 
Q 1550 3584 1831 3584 
Q 2591 3584 2966 3190 
Q 3341 2797 3341 1997 
z
" transform="scale(0.015625)"/>
       <path id="DejaVuSans-73" d="M 2834 3397 
L 2834 2853 
Q 2591 2978 2328 3040 
Q 2066 3103 1784 3103 
Q 1356 3103 1142 2972 
Q 928 2841 928 2578 
Q 928 2378 1081 2264 
Q 1234 2150 1697 2047 
L 1894 2003 
Q 2506 1872 2764 1633 
Q 3022 1394 3022 966 
Q 3022 478 2636 193 
Q 2250 -91 1575 -91 
Q 1294 -91 989 -36 
Q 684 19 347 128 
L 347 722 
Q 666 556 975 473 
Q 1284 391 1588 391 
Q 1994 391 2212 530 
Q 2431 669 2431 922 
Q 2431 1156 2273 1281 
Q 2116 1406 1581 1522 
L 1381 1569 
Q 847 1681 609 1914 
Q 372 2147 372 2553 
Q 372 3047 722 3315 
Q 1072 3584 1716 3584 
Q 2034 3584 2315 3537 
Q 2597 3491 2834 3397 
z
" transform="scale(0.015625)"/>
       <path id="DejaVuSans-2f" d="M 1625 4666 
L 2156 4666 
L 531 -594 
L 0 -594 
L 1625 4666 
z
" transform="scale(0.015625)"/>
       <path id="DejaVuSans-64" d="M 2906 2969 
L 2906 4863 
L 3481 4863 
L 3481 0 
L 2906 0 
L 2906 525 
Q 2725 213 2448 61 
Q 2172 -91 1784 -91 
Q 1150 -91 751 415 
Q 353 922 353 1747 
Q 353 2572 751 3078 
Q 1150 3584 1784 3584 
Q 2172 3584 2448 3432 
Q 2725 3281 2906 2969 
z
M 947 1747 
Q 947 1113 1208 752 
Q 1469 391 1925 391 
Q 2381 391 2643 752 
Q 2906 1113 2906 1747 
Q 2906 2381 2643 2742 
Q 2381 3103 1925 3103 
Q 1469 3103 1208 2742 
Q 947 2381 947 1747 
z
" transform="scale(0.015625)"/>
       <path id="DejaVuSans-69" d="M 603 3500 
L 1178 3500 
L 1178 0 
L 603 0 
L 603 3500 
z
M 603 4863 
L 1178 4863 
L 1178 4134 
L 603 4134 
L 603 4863 
z
" transform="scale(0.015625)"/>
       <path id="DejaVuSans-6d" d="M 3328 2828 
Q 3544 3216 3844 3400 
Q 4144 3584 4550 3584 
Q 5097 3584 5394 3201 
Q 5691 2819 5691 2113 
L 5691 0 
L 5113 0 
L 5113 2094 
Q 5113 2597 4934 2840 
Q 4756 3084 4391 3084 
Q 3944 3084 3684 2787 
Q 3425 2491 3425 1978 
L 3425 0 
L 2847 0 
L 2847 2094 
Q 2847 2600 2669 2842 
Q 2491 3084 2119 3084 
Q 1678 3084 1418 2786 
Q 1159 2488 1159 1978 
L 1159 0 
L 581 0 
L 581 3500 
L 1159 3500 
L 1159 2956 
Q 1356 3278 1631 3431 
Q 1906 3584 2284 3584 
Q 2666 3584 2933 3390 
Q 3200 3197 3328 2828 
z
" transform="scale(0.015625)"/>
       <path id="DejaVuSans-6e" d="M 3513 2113 
L 3513 0 
L 2938 0 
L 2938 2094 
Q 2938 2591 2744 2837 
Q 2550 3084 2163 3084 
Q 1697 3084 1428 2787 
Q 1159 2491 1159 1978 
L 1159 0 
L 581 0 
L 581 3500 
L 1159 3500 
L 1159 2956 
Q 1366 3272 1645 3428 
Q 1925 3584 2291 3584 
Q 2894 3584 3203 3211 
Q 3513 2838 3513 2113 
z
" transform="scale(0.015625)"/>
       <path id="DejaVuSans-29" d="M 513 4856 
L 1013 4856 
Q 1481 4119 1714 3412 
Q 1947 2706 1947 2009 
Q 1947 1309 1714 600 
Q 1481 -109 1013 -844 
L 513 -844 
Q 928 -128 1133 580 
Q 1338 1288 1338 2009 
Q 1338 2731 1133 3434 
Q 928 4138 513 4856 
z
" transform="scale(0.015625)"/>
      </defs>
      <use xlink:href="#DejaVuSans-6c"/>
      <use xlink:href="#DejaVuSans-6f" x="27.783203"/>
      <use xlink:href="#DejaVuSans-67" x="88.964844"/>
      <use xlink:href="#DejaVuSans-31" x="152.441406"/>
      <use xlink:href="#DejaVuSans-30" x="216.064453"/>
      <use xlink:href="#DejaVuSans-28" x="279.6875"/>
      <use xlink:href="#DejaVuSans-23" x="318.701172"/>
      <use xlink:href="#DejaVuSans-20" x="402.490234"/>
      <use xlink:href="#DejaVuSans-66" x="434.277344"/>
      <use xlink:href="#DejaVuSans-2d" x="463.982422"/>
      <use xlink:href="#DejaVuSans-65" x="500.066406"/>
      <use xlink:href="#DejaVuSans-76" x="561.589844"/>
      <use xlink:href="#DejaVuSans-61" x="620.769531"/>
      <use xlink:href="#DejaVuSans-6c" x="682.048828"/>
      <use xlink:href="#DejaVuSans-73" x="709.832031"/>
      <use xlink:href="#DejaVuSans-20" x="761.931641"/>
      <use xlink:href="#DejaVuSans-2f" x="793.71875"/>
      <use xlink:href="#DejaVuSans-20" x="827.410156"/>
      <use xlink:href="#DejaVuSans-64" x="859.197266"/>
      <use xlink:href="#DejaVuSans-69" x="922.673828"/>
      <use xlink:href="#DejaVuSans-6d" x="950.457031"/>
      <use xlink:href="#DejaVuSans-65" x="1047.869141"/>
      <use xlink:href="#DejaVuSans-6e" x="1109.392578"/>
      <use xlink:href="#DejaVuSans-73" x="1172.771484"/>
      <use xlink:href="#DejaVuSans-69" x="1224.871094"/>
      <use xlink:href="#DejaVuSans-6f" x="1252.654297"/>
      <use xlink:href="#DejaVuSans-6e" x="1313.835938"/>
      <use xlink:href="#DejaVuSans-29" x="1377.214844"/>
     </g>
    </g>
   </g>
   <g id="matplotlib.axis_2">
    <g id="ytick_1">
     <g id="line2d_21">
      <path d="M 57.6 298.944 
L 360.8064 298.944 
" clip-path="url(#p123fcf21f7)" style="fill: none; stroke: #b0b0b0; stroke-width: 0.8; stroke-linecap: square"/>
     </g>
     <g id="line2d_22">
      <defs>
       <path id="m2aed033e20" d="M 0 0 
L -3.5 0 
" style="stroke: #000000; stroke-width: 0.8"/>
      </defs>
      <g>
       <use xlink:href="#m2aed033e20" x="57.6" y="298.944" style="stroke: #000000; stroke-width: 0.8"/>
      </g>
     </g>
     <g id="text_6">
      <!-- 0.0 -->
      <g transform="translate(25.155 305.02275) scale(0.16 -0.16)">
       <defs>
        <path id="DejaVuSans-2e" d="M 684 794 
L 1344 794 
L 1344 0 
L 684 0 
L 684 794 
z
" transform="scale(0.015625)"/>
       </defs>
       <use xlink:href="#DejaVuSans-30"/>
       <use xlink:href="#DejaVuSans-2e" x="63.623047"/>
       <use xlink:href="#DejaVuSans-30" x="95.410156"/>
      </g>
     </g>
    </g>
    <g id="ytick_2">
     <g id="line2d_23">
      <path d="M 57.6 240.5376 
L 360.8064 240.5376 
" clip-path="url(#p123fcf21f7)" style="fill: none; stroke: #b0b0b0; stroke-width: 0.8; stroke-linecap: square"/>
     </g>
     <g id="line2d_24">
      <g>
       <use xlink:href="#m2aed033e20" x="57.6" y="240.5376" style="stroke: #000000; stroke-width: 0.8"/>
      </g>
     </g>
     <g id="text_7">
      <!-- 0.2 -->
      <g transform="translate(25.155 246.61635) scale(0.16 -0.16)">
       <use xlink:href="#DejaVuSans-30"/>
       <use xlink:href="#DejaVuSans-2e" x="63.623047"/>
       <use xlink:href="#DejaVuSans-32" x="95.410156"/>
      </g>
     </g>
    </g>
    <g id="ytick_3">
     <g id="line2d_25">
      <path d="M 57.6 182.1312 
L 360.8064 182.1312 
" clip-path="url(#p123fcf21f7)" style="fill: none; stroke: #b0b0b0; stroke-width: 0.8; stroke-linecap: square"/>
     </g>
     <g id="line2d_26">
      <g>
       <use xlink:href="#m2aed033e20" x="57.6" y="182.1312" style="stroke: #000000; stroke-width: 0.8"/>
      </g>
     </g>
     <g id="text_8">
      <!-- 0.4 -->
      <g transform="translate(25.155 188.20995) scale(0.16 -0.16)">
       <use xlink:href="#DejaVuSans-30"/>
       <use xlink:href="#DejaVuSans-2e" x="63.623047"/>
       <use xlink:href="#DejaVuSans-34" x="95.410156"/>
      </g>
     </g>
    </g>
    <g id="ytick_4">
     <g id="line2d_27">
      <path d="M 57.6 123.7248 
L 360.8064 123.7248 
" clip-path="url(#p123fcf21f7)" style="fill: none; stroke: #b0b0b0; stroke-width: 0.8; stroke-linecap: square"/>
     </g>
     <g id="line2d_28">
      <g>
       <use xlink:href="#m2aed033e20" x="57.6" y="123.7248" style="stroke: #000000; stroke-width: 0.8"/>
      </g>
     </g>
     <g id="text_9">
      <!-- 0.6 -->
      <g transform="translate(25.155 129.80355) scale(0.16 -0.16)">
       <use xlink:href="#DejaVuSans-30"/>
       <use xlink:href="#DejaVuSans-2e" x="63.623047"/>
       <use xlink:href="#DejaVuSans-36" x="95.410156"/>
      </g>
     </g>
    </g>
    <g id="ytick_5">
     <g id="line2d_29">
      <path d="M 57.6 65.3184 
L 360.8064 65.3184 
" clip-path="url(#p123fcf21f7)" style="fill: none; stroke: #b0b0b0; stroke-width: 0.8; stroke-linecap: square"/>
     </g>
     <g id="line2d_30">
      <g>
       <use xlink:href="#m2aed033e20" x="57.6" y="65.3184" style="stroke: #000000; stroke-width: 0.8"/>
      </g>
     </g>
     <g id="text_10">
      <!-- 0.8 -->
      <g transform="translate(25.155 71.39715) scale(0.16 -0.16)">
       <defs>
        <path id="DejaVuSans-38" d="M 2034 2216 
Q 1584 2216 1326 1975 
Q 1069 1734 1069 1313 
Q 1069 891 1326 650 
Q 1584 409 2034 409 
Q 2484 409 2743 651 
Q 3003 894 3003 1313 
Q 3003 1734 2745 1975 
Q 2488 2216 2034 2216 
z
M 1403 2484 
Q 997 2584 770 2862 
Q 544 3141 544 3541 
Q 544 4100 942 4425 
Q 1341 4750 2034 4750 
Q 2731 4750 3128 4425 
Q 3525 4100 3525 3541 
Q 3525 3141 3298 2862 
Q 3072 2584 2669 2484 
Q 3125 2378 3379 2068 
Q 3634 1759 3634 1313 
Q 3634 634 3220 271 
Q 2806 -91 2034 -91 
Q 1263 -91 848 271 
Q 434 634 434 1313 
Q 434 1759 690 2068 
Q 947 2378 1403 2484 
z
M 1172 3481 
Q 1172 3119 1398 2916 
Q 1625 2713 2034 2713 
Q 2441 2713 2670 2916 
Q 2900 3119 2900 3481 
Q 2900 3844 2670 4047 
Q 2441 4250 2034 4250 
Q 1625 4250 1398 4047 
Q 1172 3844 1172 3481 
z
" transform="scale(0.015625)"/>
       </defs>
       <use xlink:href="#DejaVuSans-30"/>
       <use xlink:href="#DejaVuSans-2e" x="63.623047"/>
       <use xlink:href="#DejaVuSans-38" x="95.410156"/>
      </g>
     </g>
    </g>
    <g id="ytick_6">
     <g id="line2d_31">
      <path d="M 57.6 6.912 
L 360.8064 6.912 
" clip-path="url(#p123fcf21f7)" style="fill: none; stroke: #b0b0b0; stroke-width: 0.8; stroke-linecap: square"/>
     </g>
     <g id="line2d_32">
      <g>
       <use xlink:href="#m2aed033e20" x="57.6" y="6.912" style="stroke: #000000; stroke-width: 0.8"/>
      </g>
     </g>
     <g id="text_11">
      <!-- 1.0 -->
      <g transform="translate(25.155 12.99075) scale(0.16 -0.16)">
       <use xlink:href="#DejaVuSans-31"/>
       <use xlink:href="#DejaVuSans-2e" x="63.623047"/>
       <use xlink:href="#DejaVuSans-30" x="95.410156"/>
      </g>
     </g>
    </g>
    <g id="text_12">
     <!-- Fraction of function,target pairs -->
     <g transform="translate(17.619531 287.313) rotate(-90) scale(0.17 -0.17)">
      <defs>
       <path id="DejaVuSans-46" d="M 628 4666 
L 3309 4666 
L 3309 4134 
L 1259 4134 
L 1259 2759 
L 3109 2759 
L 3109 2228 
L 1259 2228 
L 1259 0 
L 628 0 
L 628 4666 
z
" transform="scale(0.015625)"/>
       <path id="DejaVuSans-72" d="M 2631 2963 
Q 2534 3019 2420 3045 
Q 2306 3072 2169 3072 
Q 1681 3072 1420 2755 
Q 1159 2438 1159 1844 
L 1159 0 
L 581 0 
L 581 3500 
L 1159 3500 
L 1159 2956 
Q 1341 3275 1631 3429 
Q 1922 3584 2338 3584 
Q 2397 3584 2469 3576 
Q 2541 3569 2628 3553 
L 2631 2963 
z
" transform="scale(0.015625)"/>
       <path id="DejaVuSans-63" d="M 3122 3366 
L 3122 2828 
Q 2878 2963 2633 3030 
Q 2388 3097 2138 3097 
Q 1578 3097 1268 2742 
Q 959 2388 959 1747 
Q 959 1106 1268 751 
Q 1578 397 2138 397 
Q 2388 397 2633 464 
Q 2878 531 3122 666 
L 3122 134 
Q 2881 22 2623 -34 
Q 2366 -91 2075 -91 
Q 1284 -91 818 406 
Q 353 903 353 1747 
Q 353 2603 823 3093 
Q 1294 3584 2113 3584 
Q 2378 3584 2631 3529 
Q 2884 3475 3122 3366 
z
" transform="scale(0.015625)"/>
       <path id="DejaVuSans-74" d="M 1172 4494 
L 1172 3500 
L 2356 3500 
L 2356 3053 
L 1172 3053 
L 1172 1153 
Q 1172 725 1289 603 
Q 1406 481 1766 481 
L 2356 481 
L 2356 0 
L 1766 0 
Q 1100 0 847 248 
Q 594 497 594 1153 
L 594 3053 
L 172 3053 
L 172 3500 
L 594 3500 
L 594 4494 
L 1172 4494 
z
" transform="scale(0.015625)"/>
       <path id="DejaVuSans-75" d="M 544 1381 
L 544 3500 
L 1119 3500 
L 1119 1403 
Q 1119 906 1312 657 
Q 1506 409 1894 409 
Q 2359 409 2629 706 
Q 2900 1003 2900 1516 
L 2900 3500 
L 3475 3500 
L 3475 0 
L 2900 0 
L 2900 538 
Q 2691 219 2414 64 
Q 2138 -91 1772 -91 
Q 1169 -91 856 284 
Q 544 659 544 1381 
z
M 1991 3584 
L 1991 3584 
z
" transform="scale(0.015625)"/>
       <path id="DejaVuSans-2c" d="M 750 794 
L 1409 794 
L 1409 256 
L 897 -744 
L 494 -744 
L 750 256 
L 750 794 
z
" transform="scale(0.015625)"/>
       <path id="DejaVuSans-70" d="M 1159 525 
L 1159 -1331 
L 581 -1331 
L 581 3500 
L 1159 3500 
L 1159 2969 
Q 1341 3281 1617 3432 
Q 1894 3584 2278 3584 
Q 2916 3584 3314 3078 
Q 3713 2572 3713 1747 
Q 3713 922 3314 415 
Q 2916 -91 2278 -91 
Q 1894 -91 1617 61 
Q 1341 213 1159 525 
z
M 3116 1747 
Q 3116 2381 2855 2742 
Q 2594 3103 2138 3103 
Q 1681 3103 1420 2742 
Q 1159 2381 1159 1747 
Q 1159 1113 1420 752 
Q 1681 391 2138 391 
Q 2594 391 2855 752 
Q 3116 1113 3116 1747 
z
" transform="scale(0.015625)"/>
      </defs>
      <use xlink:href="#DejaVuSans-46"/>
      <use xlink:href="#DejaVuSans-72" x="50.269531"/>
      <use xlink:href="#DejaVuSans-61" x="91.382812"/>
      <use xlink:href="#DejaVuSans-63" x="152.662109"/>
      <use xlink:href="#DejaVuSans-74" x="207.642578"/>
      <use xlink:href="#DejaVuSans-69" x="246.851562"/>
      <use xlink:href="#DejaVuSans-6f" x="274.634766"/>
      <use xlink:href="#DejaVuSans-6e" x="335.816406"/>
      <use xlink:href="#DejaVuSans-20" x="399.195312"/>
      <use xlink:href="#DejaVuSans-6f" x="430.982422"/>
      <use xlink:href="#DejaVuSans-66" x="492.164062"/>
      <use xlink:href="#DejaVuSans-20" x="527.369141"/>
      <use xlink:href="#DejaVuSans-66" x="559.15625"/>
      <use xlink:href="#DejaVuSans-75" x="594.361328"/>
      <use xlink:href="#DejaVuSans-6e" x="657.740234"/>
      <use xlink:href="#DejaVuSans-63" x="721.119141"/>
      <use xlink:href="#DejaVuSans-74" x="776.099609"/>
      <use xlink:href="#DejaVuSans-69" x="815.308594"/>
      <use xlink:href="#DejaVuSans-6f" x="843.091797"/>
      <use xlink:href="#DejaVuSans-6e" x="904.273438"/>
      <use xlink:href="#DejaVuSans-2c" x="967.652344"/>
      <use xlink:href="#DejaVuSans-74" x="999.439453"/>
      <use xlink:href="#DejaVuSans-61" x="1038.648438"/>
      <use xlink:href="#DejaVuSans-72" x="1099.927734"/>
      <use xlink:href="#DejaVuSans-67" x="1139.291016"/>
      <use xlink:href="#DejaVuSans-65" x="1202.767578"/>
      <use xlink:href="#DejaVuSans-74" x="1264.291016"/>
      <use xlink:href="#DejaVuSans-20" x="1303.5"/>
      <use xlink:href="#DejaVuSans-70" x="1335.287109"/>
      <use xlink:href="#DejaVuSans-61" x="1398.763672"/>
      <use xlink:href="#DejaVuSans-69" x="1460.042969"/>
      <use xlink:href="#DejaVuSans-72" x="1487.826172"/>
      <use xlink:href="#DejaVuSans-73" x="1528.939453"/>
     </g>
    </g>
   </g>
   <g id="line2d_33">
    <defs>
     <path id="mc224f319d8" d="M 0 1.5 
C 0.397805 1.5 0.77937 1.341951 1.06066 1.06066 
C 1.341951 0.77937 1.5 0.397805 1.5 0 
C 1.5 -0.397805 1.341951 -0.77937 1.06066 -1.06066 
C 0.77937 -1.341951 0.397805 -1.5 0 -1.5 
C -0.397805 -1.5 -0.77937 -1.341951 -1.06066 -1.06066 
C -1.341951 -0.77937 -1.5 -0.397805 -1.5 0 
C -1.5 0.397805 -1.341951 0.77937 -1.06066 1.06066 
C -0.77937 1.341951 -0.397805 1.5 0 1.5 
z
" style="stroke: #f5deb3"/>
    </defs>
    <g>
     <use xlink:href="#mc224f319d8" x="259.993055" y="42.157241" style="fill: #f5deb3; stroke: #f5deb3"/>
     <use xlink:href="#mc224f319d8" x="259.993055" y="42.157241" style="fill: #f5deb3; stroke: #f5deb3"/>
    </g>
   </g>
   <g id="line2d_34">
    <defs>
     <path id="ma55b026bcb" d="M 0 1.5 
C 0.397805 1.5 0.77937 1.341951 1.06066 1.06066 
C 1.341951 0.77937 1.5 0.397805 1.5 0 
C 1.5 -0.397805 1.341951 -0.77937 1.06066 -1.06066 
C 0.77937 -1.341951 0.397805 -1.5 0 -1.5 
C -0.397805 -1.5 -0.77937 -1.341951 -1.06066 -1.06066 
C -1.341951 -0.77937 -1.5 -0.397805 -1.5 0 
C -1.5 0.397805 -1.341951 0.77937 -1.06066 1.06066 
C -0.77937 1.341951 -0.397805 1.5 0 1.5 
z
" style="stroke: #000080"/>
    </defs>
    <g>
     <use xlink:href="#ma55b026bcb" x="144.786447" y="223.754152" style="fill: #000080; stroke: #000080"/>
     <use xlink:href="#ma55b026bcb" x="144.786447" y="223.754152" style="fill: #000080; stroke: #000080"/>
    </g>
   </g>
   <g id="line2d_35">
    <path d="M 44.560826 298.944 
L 44.560826 286.356414 
L 57.6 286.356414 
L 57.6 284.3424 
L 65.227428 284.3424 
L 65.227428 280.817876 
L 70.639174 280.817876 
L 70.639174 278.803862 
L 74.836851 278.803862 
L 74.836851 278.132524 
L 78.266603 278.132524 
L 78.266603 274.775834 
L 81.166416 274.775834 
L 81.166416 272.426152 
L 85.894031 272.426152 
L 85.894031 270.579972 
L 87.876026 270.579972 
L 87.876026 270.412138 
L 89.668958 270.412138 
L 89.668958 269.237297 
L 91.305777 269.237297 
L 91.305777 268.901628 
L 92.811505 268.901628 
L 92.811505 267.223283 
L 94.205591 267.223283 
L 94.205591 266.719779 
L 95.503454 266.719779 
L 95.503454 265.880607 
L 97.857967 265.880607 
L 97.857967 265.041434 
L 98.933205 265.041434 
L 98.933205 264.370097 
L 99.950294 264.370097 
L 99.950294 262.859586 
L 100.9152 262.859586 
L 100.9152 262.523917 
L 101.833019 262.523917 
L 101.833019 261.013407 
L 102.708132 261.013407 
L 102.708132 259.670731 
L 103.544339 259.670731 
L 103.544339 258.663724 
L 104.344952 258.663724 
L 104.344952 258.49589 
L 105.112877 258.49589 
L 105.112877 257.488883 
L 105.850679 257.488883 
L 105.850679 256.817545 
L 107.904887 256.817545 
L 107.904887 255.474869 
L 108.542628 255.474869 
L 108.542628 255.1392 
L 109.159456 255.1392 
L 109.159456 254.300028 
L 109.756698 254.300028 
L 109.756698 252.957352 
L 110.897141 252.957352 
L 110.897141 252.621683 
L 111.442442 252.621683 
L 111.442442 252.453848 
L 113.478107 252.453848 
L 113.478107 252.286014 
L 113.954374 252.286014 
L 113.954374 251.279007 
L 114.872193 251.279007 
L 114.872193 251.111172 
L 115.314838 251.111172 
L 115.314838 250.943338 
L 115.747307 250.943338 
L 115.747307 250.439834 
L 116.170056 250.439834 
L 116.170056 249.768497 
L 116.583514 249.768497 
L 116.583514 249.600662 
L 118.889854 249.600662 
L 118.889854 248.929324 
L 119.24818 248.929324 
L 119.24818 248.593655 
L 120.616896 248.593655 
L 120.616896 247.922317 
L 120.944062 247.922317 
L 120.944062 247.418814 
L 121.892744 247.418814 
L 121.892744 247.250979 
L 122.19863 247.250979 
L 122.19863 246.91531 
L 122.795872 246.91531 
L 122.795872 246.579641 
L 123.657621 246.579641 
L 123.657621 245.572634 
L 123.936316 245.572634 
L 123.936316 245.069131 
L 124.210942 245.069131 
L 124.210942 244.733462 
L 124.748451 244.733462 
L 124.748451 244.229959 
L 125.271028 244.229959 
L 125.271028 244.062124 
L 126.274549 244.062124 
L 126.274549 243.726455 
L 126.517282 243.726455 
L 126.517282 243.558621 
L 126.756923 243.558621 
L 126.756923 242.383779 
L 127.686077 242.383779 
L 127.686077 242.04811 
L 127.911368 242.04811 
L 127.911368 241.208938 
L 128.133992 241.208938 
L 128.133992 240.5376 
L 128.57149 240.5376 
L 128.57149 240.201931 
L 128.786481 240.201931 
L 128.786481 239.866262 
L 128.999044 239.866262 
L 128.999044 239.698428 
L 129.826058 239.698428 
L 129.826058 239.530593 
L 130.027253 239.530593 
L 130.027253 239.362759 
L 130.4233 239.362759 
L 130.4233 238.020083 
L 131.002163 238.020083 
L 131.002163 237.684414 
L 131.563744 237.684414 
L 131.563744 236.845241 
L 131.929028 236.845241 
L 131.929028 236.509572 
L 132.812362 236.509572 
L 132.812362 236.006069 
L 132.984158 236.006069 
L 132.984158 235.838234 
L 133.490329 235.838234 
L 133.490329 235.6704 
L 133.820365 235.6704 
L 133.820365 235.502566 
L 134.463557 235.502566 
L 134.463557 235.334731 
L 134.931919 235.334731 
L 134.931919 234.999062 
L 135.085483 234.999062 
L 135.085483 234.15989 
L 135.237805 234.15989 
L 135.237805 233.824221 
L 135.388902 233.824221 
L 135.388902 233.488552 
L 135.687504 233.488552 
L 135.687504 233.320717 
L 136.126705 233.320717 
L 136.126705 232.481545 
L 136.696795 232.481545 
L 136.696795 232.145876 
L 136.836659 232.145876 
L 136.836659 231.978041 
L 137.113304 231.978041 
L 137.113304 231.306703 
L 137.250116 231.306703 
L 137.250116 230.971034 
L 137.38594 230.971034 
L 137.38594 230.467531 
L 137.654681 230.467531 
L 137.654681 230.299697 
L 137.919637 230.299697 
L 137.919637 230.131862 
L 138.050729 230.131862 
L 138.050729 229.796193 
L 138.566146 229.796193 
L 138.566146 229.628359 
L 138.943648 229.628359 
L 138.943648 229.460524 
L 139.067817 229.460524 
L 139.067817 228.789186 
L 140.032723 228.789186 
L 140.032723 228.453517 
L 140.14993 228.453517 
L 140.14993 228.117848 
L 140.950542 228.117848 
L 140.950542 227.782179 
L 141.062184 227.782179 
L 141.062184 227.614345 
L 141.283499 227.614345 
L 141.393187 226.439503 
L 142.352625 226.439503 
L 142.352625 225.768166 
L 143.066428 225.768166 
L 143.166224 225.096828 
L 143.364242 225.096828 
L 143.364242 224.928993 
L 143.560197 224.928993 
L 143.560197 224.257655 
L 144.136106 224.257655 
L 144.136106 224.089821 
L 144.417581 224.089821 
L 144.417581 223.921986 
L 144.786447 223.921986 
L 144.786447 223.754152 
L 360.8064 223.754152 
L 360.8064 223.754152 
" style="fill: none; stroke: #000080; stroke-width: 1.5; stroke-linecap: square"/>
   </g>
   <g id="line2d_36">
    <defs>
     <path id="m782024d8b5" d="M 0 6 
C 1.591219 6 3.117479 5.367802 4.242641 4.242641 
C 5.367802 3.117479 6 1.591219 6 0 
C 6 -1.591219 5.367802 -3.117479 4.242641 -4.242641 
C 3.117479 -5.367802 1.591219 -6 0 -6 
C -1.591219 -6 -3.117479 -5.367802 -4.242641 -4.242641 
C -5.367802 -3.117479 -6 -1.591219 -6 0 
C -6 1.591219 -5.367802 3.117479 -4.242641 4.242641 
C -3.117479 5.367802 -1.591219 6 0 6 
z
" style="stroke: #000080; stroke-width: 1.5"/>
    </defs>
    <g>
     <use xlink:href="#m782024d8b5" x="99.950294" y="264.370097" style="fill-opacity: 0; stroke: #000080; stroke-width: 1.5"/>
     <use xlink:href="#m782024d8b5" x="137.113304" y="231.978041" style="fill-opacity: 0; stroke: #000080; stroke-width: 1.5"/>
     <use xlink:href="#m782024d8b5" x="144.786447" y="223.921986" style="fill-opacity: 0; stroke: #000080; stroke-width: 1.5"/>
     <use xlink:href="#m782024d8b5" x="144.786447" y="223.754152" style="fill-opacity: 0; stroke: #000080; stroke-width: 1.5"/>
     <use xlink:href="#m782024d8b5" x="144.786447" y="223.754152" style="fill-opacity: 0; stroke: #000080; stroke-width: 1.5"/>
     <use xlink:href="#m782024d8b5" x="360.8064" y="223.754152" style="fill-opacity: 0; stroke: #000080; stroke-width: 1.5"/>
    </g>
   </g>
   <g id="line2d_37">
    <path style="fill: none; stroke: #000080; stroke-width: 1.5; stroke-linecap: square"/>
    <g/>
   </g>
   <g id="line2d_38">
    <path d="M 144.786447 223.754152 
" clip-path="url(#p123fcf21f7)" style="fill: none; stroke: #000080; stroke-width: 1.5; stroke-linecap: square"/>
    <defs>
     <path id="m8278425540" d="M -12 12 
L 12 -12 
M -12 -12 
L 12 12 
" style="stroke: #000080"/>
    </defs>
    <g clip-path="url(#p123fcf21f7)">
     <use xlink:href="#m8278425540" x="144.786447" y="223.754152" style="fill: #000080; stroke: #000080"/>
    </g>
   </g>
   <g id="line2d_39">
    <defs>
     <path id="m9466ac498d" d="M 0 1.5 
C 0.397805 1.5 0.77937 1.341951 1.06066 1.06066 
C 1.341951 0.77937 1.5 0.397805 1.5 0 
C 1.5 -0.397805 1.341951 -0.77937 1.06066 -1.06066 
C 0.77937 -1.341951 0.397805 -1.5 0 -1.5 
C -0.397805 -1.5 -0.77937 -1.341951 -1.06066 -1.06066 
C -1.341951 -0.77937 -1.5 -0.397805 -1.5 0 
C -1.5 0.397805 -1.341951 0.77937 -1.06066 1.06066 
C -0.77937 1.341951 -0.397805 1.5 0 1.5 
z
" style="stroke: #ff00ff"/>
    </defs>
    <g>
     <use xlink:href="#m9466ac498d" x="144.417581" y="226.439503" style="fill: #ff00ff; stroke: #ff00ff"/>
     <use xlink:href="#m9466ac498d" x="144.417581" y="226.439503" style="fill: #ff00ff; stroke: #ff00ff"/>
    </g>
   </g>
   <g id="line2d_40">
    <path d="M 44.560826 298.944 
L 44.560826 286.356414 
L 57.6 286.356414 
L 57.6 284.174566 
L 65.227428 284.174566 
L 65.227428 283.167559 
L 70.639174 283.167559 
L 70.639174 279.307366 
L 74.836851 279.307366 
L 74.836851 274.943669 
L 78.266603 274.943669 
L 78.266603 272.761821 
L 81.166416 272.761821 
L 81.166416 272.258317 
L 83.678349 272.258317 
L 83.678349 271.922648 
L 85.894031 271.922648 
L 85.894031 271.419145 
L 87.876026 271.419145 
L 87.876026 271.083476 
L 89.668958 271.083476 
L 89.668958 270.412138 
L 91.305777 270.412138 
L 91.305777 268.565959 
L 92.811505 268.565959 
L 92.811505 267.726786 
L 94.205591 267.726786 
L 94.205591 266.887614 
L 95.503454 266.887614 
L 95.503454 266.216276 
L 96.717523 266.216276 
L 96.717523 265.377103 
L 97.857967 265.377103 
L 97.857967 264.8736 
L 98.933205 264.8736 
L 98.933205 264.202262 
L 99.950294 264.202262 
L 99.950294 263.36309 
L 100.9152 263.36309 
L 100.9152 262.859586 
L 101.833019 262.859586 
L 101.833019 262.188248 
L 103.544339 262.188248 
L 103.544339 262.020414 
L 105.112877 262.020414 
L 105.112877 261.684745 
L 105.850679 261.684745 
L 105.850679 261.013407 
L 106.560633 261.013407 
L 106.560633 260.677738 
L 107.244765 260.677738 
L 107.244765 259.502897 
L 107.904887 259.502897 
L 107.904887 257.824552 
L 108.542628 257.824552 
L 108.542628 257.488883 
L 109.159456 257.488883 
L 109.159456 257.321048 
L 111.97238 257.321048 
L 111.97238 256.314041 
L 113.954374 256.314041 
L 113.954374 256.146207 
L 114.872193 256.146207 
L 114.872193 254.971366 
L 115.314838 254.971366 
L 115.314838 254.467862 
L 115.747307 254.467862 
L 115.747307 254.132193 
L 116.170056 254.132193 
L 116.170056 252.621683 
L 116.583514 252.621683 
L 116.583514 252.453848 
L 116.988079 252.453848 
L 116.988079 252.286014 
L 119.944983 252.286014 
L 119.944983 251.950345 
L 120.28394 251.950345 
L 120.28394 251.279007 
L 120.944062 251.279007 
L 120.944062 250.775503 
L 121.265635 250.775503 
L 121.265635 249.768497 
L 121.581803 249.768497 
L 121.581803 249.600662 
L 121.892744 249.600662 
L 121.892744 249.432828 
L 122.19863 249.432828 
L 122.19863 248.929324 
L 122.499621 248.929324 
L 122.499621 248.090152 
L 122.795872 248.090152 
L 122.795872 247.586648 
L 123.08753 247.586648 
L 123.08753 247.250979 
L 123.374735 247.250979 
L 123.374735 247.083145 
L 124.481616 247.083145 
L 124.481616 246.91531 
L 125.779479 246.91531 
L 125.779479 246.579641 
L 126.274549 246.579641 
L 126.274549 246.243972 
L 126.756923 246.243972 
L 126.756923 245.908303 
L 126.993549 245.908303 
L 126.993549 245.740469 
L 127.227236 245.740469 
L 127.227236 245.572634 
L 127.686077 245.572634 
L 127.686077 245.069131 
L 127.911368 245.069131 
L 127.911368 244.565628 
L 128.133992 244.565628 
L 128.133992 243.726455 
L 129.622688 243.726455 
L 129.622688 243.222952 
L 130.027253 243.222952 
L 130.027253 242.551614 
L 130.226319 242.551614 
L 130.226319 242.383779 
L 130.618241 242.383779 
L 130.618241 242.215945 
L 131.002163 242.215945 
L 131.002163 241.712441 
L 131.563744 241.712441 
L 131.563744 241.376772 
L 131.747272 241.376772 
L 131.747272 240.873269 
L 132.109044 240.873269 
L 132.109044 240.5376 
L 132.287354 240.5376 
L 132.287354 240.369766 
L 132.812362 240.369766 
L 132.812362 239.866262 
L 132.984158 239.866262 
L 132.984158 239.530593 
L 133.323114 239.530593 
L 133.323114 239.194924 
L 133.490329 239.194924 
L 133.490329 238.859255 
L 133.983236 238.859255 
L 133.983236 238.691421 
L 134.620977 238.691421 
L 134.620977 238.523586 
L 134.77709 238.523586 
L 134.77709 237.684414 
L 135.085483 237.684414 
L 135.085483 237.348745 
L 135.388902 237.348745 
L 135.388902 236.677407 
L 135.538796 236.677407 
L 135.538796 236.341738 
L 135.687504 236.341738 
L 135.687504 236.173903 
L 136.126705 236.173903 
L 136.126705 236.006069 
L 136.270855 236.006069 
L 136.270855 235.334731 
L 136.413909 235.334731 
L 136.413909 235.166897 
L 136.97549 235.166897 
L 136.97549 234.999062 
L 137.250116 234.999062 
L 137.250116 234.495559 
L 137.38594 234.495559 
L 137.38594 234.15989 
L 137.654681 234.15989 
L 137.654681 233.824221 
L 138.180913 233.824221 
L 138.180913 233.656386 
L 138.818654 233.656386 
L 138.818654 233.488552 
L 139.191172 233.488552 
L 139.191172 233.320717 
L 139.435481 233.320717 
L 139.435481 233.152883 
L 139.676658 233.152883 
L 139.676658 232.817214 
L 140.032723 232.817214 
L 140.032723 232.31371 
L 140.382174 232.31371 
L 140.382174 231.474538 
L 140.611586 231.474538 
L 140.611586 231.306703 
L 140.725251 231.306703 
L 140.725251 230.8032 
L 140.838234 230.8032 
L 140.838234 230.635366 
L 141.173167 230.635366 
L 141.173167 230.299697 
L 141.50224 230.299697 
L 141.50224 230.131862 
L 141.718467 230.131862 
L 141.718467 229.796193 
L 142.038218 229.796193 
L 142.038218 229.628359 
L 142.248405 229.628359 
L 142.248405 228.789186 
L 142.559347 228.789186 
L 142.661862 228.117848 
L 143.560197 228.117848 
L 143.560197 227.782179 
L 143.754133 227.782179 
L 143.754133 227.614345 
L 144.041338 227.614345 
L 144.136106 226.775172 
L 144.417581 226.775172 
L 144.417581 226.439503 
L 360.8064 226.439503 
L 360.8064 226.439503 
" style="fill: none; stroke: #ff00ff; stroke-width: 1.5; stroke-linecap: square"/>
   </g>
   <g id="line2d_41">
    <defs>
     <path id="m02e727cec2" d="M -0 8.485281 
L 5.091169 0 
L 0 -8.485281 
L -5.091169 -0 
z
" style="stroke: #ff00ff; stroke-width: 1.5; stroke-linejoin: miter"/>
    </defs>
    <g>
     <use xlink:href="#m02e727cec2" x="74.836851" y="274.943669" style="fill-opacity: 0; stroke: #ff00ff; stroke-width: 1.5; stroke-linejoin: miter"/>
     <use xlink:href="#m02e727cec2" x="136.413909" y="235.334731" style="fill-opacity: 0; stroke: #ff00ff; stroke-width: 1.5; stroke-linejoin: miter"/>
     <use xlink:href="#m02e727cec2" x="144.417581" y="226.775172" style="fill-opacity: 0; stroke: #ff00ff; stroke-width: 1.5; stroke-linejoin: miter"/>
     <use xlink:href="#m02e727cec2" x="144.417581" y="226.439503" style="fill-opacity: 0; stroke: #ff00ff; stroke-width: 1.5; stroke-linejoin: miter"/>
     <use xlink:href="#m02e727cec2" x="144.417581" y="226.439503" style="fill-opacity: 0; stroke: #ff00ff; stroke-width: 1.5; stroke-linejoin: miter"/>
     <use xlink:href="#m02e727cec2" x="360.8064" y="226.439503" style="fill-opacity: 0; stroke: #ff00ff; stroke-width: 1.5; stroke-linejoin: miter"/>
    </g>
   </g>
   <g id="line2d_42">
    <path style="fill: none; stroke: #ff00ff; stroke-width: 1.5; stroke-linecap: square"/>
    <g/>
   </g>
   <g id="line2d_43">
    <path d="M 144.602918 226.439503 
" clip-path="url(#p123fcf21f7)" style="fill: none; stroke: #ff00ff; stroke-width: 1.5; stroke-linecap: square"/>
    <defs>
     <path id="m580fcb1d2a" d="M -12 12 
L 12 -12 
M -12 -12 
L 12 12 
" style="stroke: #ff00ff"/>
    </defs>
    <g clip-path="url(#p123fcf21f7)">
     <use xlink:href="#m580fcb1d2a" x="144.602918" y="226.439503" style="fill: #ff00ff; stroke: #ff00ff"/>
    </g>
   </g>
   <g id="line2d_44">
    <defs>
     <path id="md76c434215" d="M 0 1.5 
C 0.397805 1.5 0.77937 1.341951 1.06066 1.06066 
C 1.341951 0.77937 1.5 0.397805 1.5 0 
C 1.5 -0.397805 1.341951 -0.77937 1.06066 -1.06066 
C 0.77937 -1.341951 0.397805 -1.5 0 -1.5 
C -0.397805 -1.5 -0.77937 -1.341951 -1.06066 -1.06066 
C -1.341951 -0.77937 -1.5 -0.397805 -1.5 0 
C -1.5 0.397805 -1.341951 0.77937 -1.06066 1.06066 
C -0.77937 1.341951 -0.397805 1.5 0 1.5 
z
" style="stroke: #ff7500"/>
    </defs>
    <g>
     <use xlink:href="#md76c434215" x="143.364242" y="244.229959" style="fill: #ff7500; stroke: #ff7500"/>
     <use xlink:href="#md76c434215" x="143.364242" y="244.229959" style="fill: #ff7500; stroke: #ff7500"/>
    </g>
   </g>
   <g id="line2d_45">
    <path d="M 44.560826 298.944 
L 44.560826 286.356414 
L 57.6 286.356414 
L 57.6 282.160552 
L 85.894031 282.160552 
L 85.894031 276.286345 
L 96.717523 276.286345 
L 96.717523 273.936662 
L 103.544339 273.936662 
L 103.544339 271.25131 
L 108.542628 271.25131 
L 108.542628 268.062455 
L 112.487797 268.062455 
L 112.487797 266.551945 
L 115.747307 266.551945 
L 115.747307 266.216276 
L 118.524569 266.216276 
L 118.524569 264.8736 
L 120.944062 264.8736 
L 120.944062 263.195255 
L 123.08753 263.195255 
L 123.08753 261.349076 
L 125.011554 261.349076 
L 125.011554 259.838566 
L 126.756923 259.838566 
L 126.756923 257.656717 
L 128.354013 257.656717 
L 128.354013 257.488883 
L 131.191226 257.488883 
L 131.191226 255.1392 
L 132.46399 255.1392 
L 132.46399 253.796524 
L 133.656071 253.796524 
L 133.656071 252.118179 
L 134.77709 252.118179 
L 134.77709 251.78251 
L 135.835047 251.78251 
L 135.835047 251.446841 
L 136.836659 251.446841 
L 136.836659 250.607669 
L 137.787626 250.607669 
L 137.787626 249.600662 
L 138.692823 249.600662 
L 138.692823 249.264993 
L 139.556456 249.264993 
L 139.556456 248.425821 
L 140.382174 248.425821 
L 140.382174 248.090152 
L 141.173167 248.090152 
L 141.173167 247.754483 
L 141.932237 247.754483 
L 141.932237 246.747476 
L 142.661862 246.747476 
L 142.661862 245.740469 
L 143.364242 245.740469 
L 143.364242 244.229959 
L 360.8064 244.229959 
" style="fill: none; stroke: #ff7500; stroke-width: 1.5; stroke-linecap: square"/>
   </g>
   <g id="line2d_46">
    <defs>
     <path id="mb250708e75" d="M 0 -6 
L -1.347084 -1.854102 
L -5.706339 -1.854102 
L -2.179628 0.708204 
L -3.526712 4.854102 
L -0 2.291796 
L 3.526712 4.854102 
L 2.179628 0.708204 
L 5.706339 -1.854102 
L 1.347084 -1.854102 
z
" style="stroke: #ff7500; stroke-width: 1.5; stroke-linejoin: bevel"/>
    </defs>
    <g>
     <use xlink:href="#mb250708e75" x="115.747307" y="266.551945" style="fill-opacity: 0; stroke: #ff7500; stroke-width: 1.5; stroke-linejoin: bevel"/>
     <use xlink:href="#mb250708e75" x="143.364242" y="245.740469" style="fill-opacity: 0; stroke: #ff7500; stroke-width: 1.5; stroke-linejoin: bevel"/>
     <use xlink:href="#mb250708e75" x="143.364242" y="244.229959" style="fill-opacity: 0; stroke: #ff7500; stroke-width: 1.5; stroke-linejoin: bevel"/>
     <use xlink:href="#mb250708e75" x="143.364242" y="244.229959" style="fill-opacity: 0; stroke: #ff7500; stroke-width: 1.5; stroke-linejoin: bevel"/>
     <use xlink:href="#mb250708e75" x="143.364242" y="244.229959" style="fill-opacity: 0; stroke: #ff7500; stroke-width: 1.5; stroke-linejoin: bevel"/>
     <use xlink:href="#mb250708e75" x="360.8064" y="244.229959" style="fill-opacity: 0; stroke: #ff7500; stroke-width: 1.5; stroke-linejoin: bevel"/>
    </g>
   </g>
   <g id="line2d_47">
    <path style="fill: none; stroke: #ff7500; stroke-width: 1.5; stroke-linecap: square"/>
    <g/>
   </g>
   <g id="line2d_48">
    <path d="M 143.946089 244.229959 
" clip-path="url(#p123fcf21f7)" style="fill: none; stroke: #ff7500; stroke-width: 1.5; stroke-linecap: square"/>
    <defs>
     <path id="mcd8080c317" d="M -12 12 
L 12 -12 
M -12 -12 
L 12 12 
" style="stroke: #ff7500"/>
    </defs>
    <g clip-path="url(#p123fcf21f7)">
     <use xlink:href="#mcd8080c317" x="143.946089" y="244.229959" style="fill: #ff7500; stroke: #ff7500"/>
    </g>
   </g>
   <g id="line2d_49">
    <defs>
     <path id="mdffa3c118e" d="M 0 1.5 
C 0.397805 1.5 0.77937 1.341951 1.06066 1.06066 
C 1.341951 0.77937 1.5 0.397805 1.5 0 
C 1.5 -0.397805 1.341951 -0.77937 1.06066 -1.06066 
C 0.77937 -1.341951 0.397805 -1.5 0 -1.5 
C -0.397805 -1.5 -0.77937 -1.341951 -1.06066 -1.06066 
C -1.341951 -0.77937 -1.5 -0.397805 -1.5 0 
C -1.5 0.397805 -1.341951 0.77937 -1.06066 1.06066 
C -0.77937 1.341951 -0.397805 1.5 0 1.5 
z
" style="stroke: #6495ed"/>
    </defs>
    <g>
     <use xlink:href="#mdffa3c118e" x="143.265494" y="238.020083" style="fill: #6495ed; stroke: #6495ed"/>
     <use xlink:href="#mdffa3c118e" x="143.265494" y="238.020083" style="fill: #6495ed; stroke: #6495ed"/>
    </g>
   </g>
   <g id="line2d_50">
    <path d="M 44.560826 298.944 
L 44.560826 286.356414 
L 57.6 286.356414 
L 57.6 282.160552 
L 83.678349 282.160552 
L 83.678349 279.978703 
L 85.894031 279.978703 
L 85.894031 278.300359 
L 94.205591 278.300359 
L 94.205591 277.461186 
L 95.503454 277.461186 
L 95.503454 274.943669 
L 96.717523 274.943669 
L 96.717523 274.272331 
L 100.9152 274.272331 
L 100.9152 274.104497 
L 101.833019 274.104497 
L 101.833019 273.09749 
L 102.708132 273.09749 
L 102.708132 272.593986 
L 103.544339 272.593986 
L 103.544339 272.258317 
L 107.244765 272.258317 
L 107.244765 272.090483 
L 107.904887 272.090483 
L 107.904887 271.754814 
L 108.542628 271.754814 
L 108.542628 271.419145 
L 111.442442 271.419145 
L 111.442442 270.412138 
L 111.97238 270.412138 
L 111.97238 270.244303 
L 113.954374 270.244303 
L 113.954374 269.237297 
L 114.872193 269.237297 
L 114.872193 267.894621 
L 115.747307 267.894621 
L 115.747307 267.558952 
L 116.988079 267.558952 
L 116.988079 266.38411 
L 117.384126 266.38411 
L 117.384126 266.216276 
L 118.152051 266.216276 
L 118.152051 264.705766 
L 118.524569 264.705766 
L 118.524569 263.530924 
L 119.24818 263.530924 
L 119.24818 263.195255 
L 119.944983 263.195255 
L 119.944983 262.691752 
L 120.944062 262.691752 
L 120.944062 262.523917 
L 121.581803 262.523917 
L 121.581803 262.188248 
L 122.19863 262.188248 
L 122.19863 261.852579 
L 122.795872 261.852579 
L 122.795872 261.349076 
L 123.374735 261.349076 
L 123.374735 261.013407 
L 123.936316 261.013407 
L 123.936316 260.677738 
L 124.210942 260.677738 
L 124.210942 260.509903 
L 124.481616 260.509903 
L 124.481616 260.342069 
L 124.748451 260.342069 
L 124.748451 259.502897 
L 125.011554 259.502897 
L 125.011554 259.167228 
L 125.271028 259.167228 
L 125.271028 258.160221 
L 125.526971 258.160221 
L 125.526971 257.992386 
L 125.779479 257.992386 
L 125.779479 257.824552 
L 126.028642 257.824552 
L 126.028642 257.488883 
L 126.274549 257.488883 
L 126.274549 257.321048 
L 126.756923 257.321048 
L 126.756923 256.481876 
L 127.227236 256.481876 
L 127.227236 256.146207 
L 127.458055 256.146207 
L 127.458055 255.810538 
L 127.686077 255.810538 
L 127.686077 255.307034 
L 128.133992 255.307034 
L 128.133992 254.971366 
L 128.57149 254.971366 
L 128.57149 254.803531 
L 128.786481 254.803531 
L 128.786481 254.467862 
L 129.417095 254.467862 
L 129.417095 253.796524 
L 130.027253 253.796524 
L 130.027253 253.62869 
L 130.4233 253.62869 
L 130.4233 253.125186 
L 130.618241 253.125186 
L 130.618241 252.957352 
L 130.811181 252.957352 
L 130.811181 252.453848 
L 131.002163 252.453848 
L 131.002163 251.78251 
L 131.747272 251.78251 
L 131.747272 251.446841 
L 131.929028 251.446841 
L 131.929028 251.279007 
L 132.109044 251.279007 
L 132.109044 250.775503 
L 132.287354 250.775503 
L 132.287354 250.439834 
L 132.46399 250.439834 
L 132.46399 250.272 
L 132.638982 250.272 
L 132.638982 249.936331 
L 133.154399 249.936331 
L 133.154399 249.768497 
L 133.323114 249.768497 
L 133.323114 249.600662 
L 133.656071 249.600662 
L 133.656071 249.432828 
L 133.820365 249.432828 
L 133.820365 249.097159 
L 134.304809 249.097159 
L 134.304809 248.929324 
L 134.463557 248.929324 
L 134.463557 248.76149 
L 134.620977 248.76149 
L 134.620977 248.090152 
L 135.538796 248.090152 
L 135.538796 246.747476 
L 135.981441 246.747476 
L 135.981441 246.579641 
L 136.126705 246.579641 
L 136.126705 246.243972 
L 136.413909 246.243972 
L 136.413909 246.076138 
L 136.97549 246.076138 
L 136.97549 245.908303 
L 137.113304 245.908303 
L 137.113304 245.4048 
L 137.38594 245.4048 
L 137.38594 244.901297 
L 137.654681 244.901297 
L 137.654681 244.565628 
L 137.919637 244.565628 
L 137.919637 244.397793 
L 138.050729 244.397793 
L 138.050729 244.062124 
L 138.438609 244.062124 
L 138.438609 243.89429 
L 138.818654 243.89429 
L 138.818654 243.558621 
L 138.943648 243.558621 
L 138.943648 243.390786 
L 139.191172 243.390786 
L 139.191172 242.887283 
L 139.435481 242.887283 
L 139.435481 242.551614 
L 139.556456 242.551614 
L 139.556456 241.712441 
L 140.032723 241.712441 
L 140.032723 241.208938 
L 140.14993 241.208938 
L 140.14993 240.705434 
L 140.611586 240.705434 
L 140.611586 240.5376 
L 140.950542 240.5376 
L 140.950542 240.369766 
L 141.173167 240.369766 
L 141.173167 240.201931 
L 141.610664 240.201931 
L 141.610664 240.034097 
L 141.825656 240.034097 
L 141.825656 239.530593 
L 142.038218 239.530593 
L 142.038218 239.362759 
L 142.661862 239.362759 
L 142.763822 238.523586 
L 143.166224 238.523586 
L 143.265494 238.020083 
L 360.8064 238.020083 
L 360.8064 238.020083 
" style="fill: none; stroke: #6495ed; stroke-width: 1.5; stroke-linecap: square"/>
   </g>
   <g id="line2d_51">
    <defs>
     <path id="mb539ffcd53" d="M -0 6 
L 6 -6 
L -6 -6 
z
" style="stroke: #6495ed; stroke-width: 1.5; stroke-linejoin: miter"/>
    </defs>
    <g>
     <use xlink:href="#mb539ffcd53" x="124.748451" y="260.342069" style="fill-opacity: 0; stroke: #6495ed; stroke-width: 1.5; stroke-linejoin: miter"/>
     <use xlink:href="#mb539ffcd53" x="143.265494" y="238.187917" style="fill-opacity: 0; stroke: #6495ed; stroke-width: 1.5; stroke-linejoin: miter"/>
     <use xlink:href="#mb539ffcd53" x="143.265494" y="238.020083" style="fill-opacity: 0; stroke: #6495ed; stroke-width: 1.5; stroke-linejoin: miter"/>
     <use xlink:href="#mb539ffcd53" x="143.265494" y="238.020083" style="fill-opacity: 0; stroke: #6495ed; stroke-width: 1.5; stroke-linejoin: miter"/>
     <use xlink:href="#mb539ffcd53" x="143.265494" y="238.020083" style="fill-opacity: 0; stroke: #6495ed; stroke-width: 1.5; stroke-linejoin: miter"/>
     <use xlink:href="#mb539ffcd53" x="360.8064" y="238.020083" style="fill-opacity: 0; stroke: #6495ed; stroke-width: 1.5; stroke-linejoin: miter"/>
    </g>
   </g>
   <g id="line2d_52">
    <path style="fill: none; stroke: #6495ed; stroke-width: 1.5; stroke-linecap: square"/>
    <g/>
   </g>
   <g id="line2d_53">
    <path d="M 143.754133 238.020083 
" clip-path="url(#p123fcf21f7)" style="fill: none; stroke: #6495ed; stroke-width: 1.5; stroke-linecap: square"/>
    <defs>
     <path id="m76b2b00359" d="M -12 12 
L 12 -12 
M -12 -12 
L 12 12 
" style="stroke: #6495ed"/>
    </defs>
    <g clip-path="url(#p123fcf21f7)">
     <use xlink:href="#m76b2b00359" x="143.754133" y="238.020083" style="fill: #6495ed; stroke: #6495ed"/>
    </g>
   </g>
   <g id="line2d_54">
    <defs>
     <path id="m1ae2cd0f57" d="M 0 1.5 
C 0.397805 1.5 0.77937 1.341951 1.06066 1.06066 
C 1.341951 0.77937 1.5 0.397805 1.5 0 
C 1.5 -0.397805 1.341951 -0.77937 1.06066 -1.06066 
C 0.77937 -1.341951 0.397805 -1.5 0 -1.5 
C -0.397805 -1.5 -0.77937 -1.341951 -1.06066 -1.06066 
C -1.341951 -0.77937 -1.5 -0.397805 -1.5 0 
C -1.5 0.397805 -1.341951 0.77937 -1.06066 1.06066 
C -0.77937 1.341951 -0.397805 1.5 0 1.5 
z
" style="stroke: #ff0000"/>
    </defs>
    <g>
     <use xlink:href="#m1ae2cd0f57" x="211.922032" y="166.01909" style="fill: #ff0000; stroke: #ff0000"/>
     <use xlink:href="#m1ae2cd0f57" x="211.922032" y="166.01909" style="fill: #ff0000; stroke: #ff0000"/>
    </g>
   </g>
   <g id="line2d_55">
    <path d="M 44.560826 298.944 
L 44.560826 286.356414 
L 57.6 286.356414 
L 57.6 283.671062 
L 65.227428 283.671062 
L 65.227428 282.160552 
L 70.639174 282.160552 
L 70.639174 280.482207 
L 74.836851 280.482207 
L 74.836851 279.139531 
L 78.266603 279.139531 
L 78.266603 278.636028 
L 81.166416 278.636028 
L 81.166416 277.293352 
L 83.678349 277.293352 
L 83.678349 276.11851 
L 85.894031 276.11851 
L 85.894031 274.272331 
L 87.876026 274.272331 
L 87.876026 273.768828 
L 89.668958 273.768828 
L 89.668958 273.09749 
L 91.305777 273.09749 
L 91.305777 271.754814 
L 92.811505 271.754814 
L 92.811505 270.579972 
L 94.205591 270.579972 
L 94.205591 269.572966 
L 95.503454 269.572966 
L 95.503454 269.069462 
L 96.717523 269.069462 
L 96.717523 268.733793 
L 97.857967 268.733793 
L 97.857967 268.398124 
L 98.933205 268.398124 
L 98.933205 267.726786 
L 99.950294 267.726786 
L 99.950294 267.391117 
L 100.9152 267.391117 
L 100.9152 267.223283 
L 101.833019 267.223283 
L 101.833019 266.719779 
L 103.544339 266.719779 
L 103.544339 266.551945 
L 104.344952 266.551945 
L 104.344952 266.38411 
L 105.112877 266.38411 
L 105.112877 265.544938 
L 105.850679 265.544938 
L 105.850679 265.377103 
L 106.560633 265.377103 
L 106.560633 265.041434 
L 107.904887 265.041434 
L 107.904887 264.537931 
L 108.542628 264.537931 
L 108.542628 263.866593 
L 109.159456 263.866593 
L 109.159456 262.859586 
L 109.756698 262.859586 
L 109.756698 262.523917 
L 110.335561 262.523917 
L 110.335561 262.356083 
L 110.897141 262.356083 
L 110.897141 261.684745 
L 111.442442 261.684745 
L 111.442442 261.349076 
L 112.487797 261.349076 
L 112.487797 261.013407 
L 113.478107 261.013407 
L 113.478107 260.509903 
L 114.418881 260.509903 
L 114.418881 260.174234 
L 114.872193 260.174234 
L 114.872193 259.670731 
L 115.314838 259.670731 
L 115.314838 259.335062 
L 115.747307 259.335062 
L 115.747307 258.663724 
L 116.170056 258.663724 
L 116.170056 257.992386 
L 116.583514 257.992386 
L 116.583514 256.314041 
L 117.772007 256.314041 
L 117.772007 255.642703 
L 118.524569 255.642703 
L 118.524569 255.1392 
L 119.24818 255.1392 
L 119.24818 254.803531 
L 119.599808 254.803531 
L 119.599808 254.132193 
L 120.28394 254.132193 
L 120.28394 253.796524 
L 120.616896 253.796524 
L 120.616896 253.293021 
L 120.944062 253.293021 
L 120.944062 252.957352 
L 121.265635 252.957352 
L 121.265635 252.789517 
L 121.581803 252.789517 
L 121.581803 251.950345 
L 121.892744 251.950345 
L 121.892744 251.614676 
L 122.795872 251.614676 
L 122.795872 251.446841 
L 123.08753 251.446841 
L 123.08753 251.279007 
L 123.657621 251.279007 
L 123.657621 250.439834 
L 126.028642 250.439834 
L 126.028642 250.272 
L 126.274549 250.272 
L 126.274549 250.104166 
L 126.517282 250.104166 
L 126.517282 249.936331 
L 126.756923 249.936331 
L 126.756923 249.768497 
L 126.993549 249.768497 
L 126.993549 249.600662 
L 127.227236 249.600662 
L 127.227236 249.432828 
L 127.458055 249.432828 
L 127.458055 249.264993 
L 127.686077 249.264993 
L 127.686077 249.097159 
L 128.133992 249.097159 
L 128.133992 248.257986 
L 128.354013 248.257986 
L 128.354013 247.754483 
L 129.209231 247.754483 
L 129.209231 247.418814 
L 129.417095 247.418814 
L 129.417095 246.91531 
L 129.622688 246.91531 
L 129.622688 246.747476 
L 130.226319 246.747476 
L 130.226319 246.411807 
L 130.618241 246.411807 
L 130.618241 246.076138 
L 130.811181 246.076138 
L 130.811181 245.908303 
L 131.378407 245.908303 
L 131.378407 245.069131 
L 131.563744 245.069131 
L 131.563744 244.397793 
L 132.287354 244.397793 
L 132.287354 244.062124 
L 132.812362 244.062124 
L 132.812362 243.726455 
L 132.984158 243.726455 
L 132.984158 243.558621 
L 133.154399 243.558621 
L 133.154399 243.222952 
L 133.490329 243.222952 
L 133.490329 242.719448 
L 133.983236 242.719448 
L 133.983236 242.04811 
L 134.304809 242.04811 
L 134.304809 241.880276 
L 134.620977 241.880276 
L 134.620977 239.698428 
L 135.085483 239.698428 
L 135.085483 239.194924 
L 135.237805 239.194924 
L 135.237805 238.691421 
L 135.388902 238.691421 
L 135.388902 238.355752 
L 135.538796 238.355752 
L 135.538796 238.187917 
L 135.835047 238.187917 
L 135.835047 238.020083 
L 136.126705 238.020083 
L 136.126705 237.684414 
L 136.555884 237.684414 
L 136.555884 237.348745 
L 137.113304 237.348745 
L 137.113304 236.341738 
L 137.250116 236.341738 
L 137.250116 236.006069 
L 137.38594 236.006069 
L 137.38594 235.502566 
L 138.050729 235.502566 
L 138.050729 234.831228 
L 138.180913 234.831228 
L 138.180913 234.663393 
L 138.943648 234.663393 
L 138.943648 234.327724 
L 139.067817 234.327724 
L 139.067817 233.656386 
L 139.191172 233.656386 
L 139.191172 233.320717 
L 139.313723 233.320717 
L 139.313723 233.152883 
L 139.435481 233.152883 
L 139.435481 232.985048 
L 139.796097 232.985048 
L 139.796097 232.481545 
L 140.14993 232.481545 
L 140.14993 231.810207 
L 140.382174 231.810207 
L 140.382174 231.642372 
L 141.173167 231.642372 
L 141.173167 231.474538 
L 141.393187 231.474538 
L 141.393187 231.306703 
L 141.825656 231.306703 
L 141.932237 230.299697 
L 142.143605 230.299697 
L 142.143605 229.460524 
L 142.763822 229.460524 
L 142.763822 229.124855 
L 142.966099 229.124855 
L 143.066428 228.453517 
L 143.166224 228.453517 
L 143.265494 228.117848 
L 144.2304 228.117848 
L 144.2304 227.44651 
L 144.694906 227.44651 
L 144.786447 226.439503 
L 145.058426 226.439503 
L 145.058426 225.768166 
L 145.326529 225.768166 
L 145.326529 225.600331 
L 145.503164 225.600331 
L 145.503164 224.928993 
L 145.678157 224.928993 
L 145.765046 224.593324 
L 146.27812 224.593324 
L 146.27812 224.42549 
L 147.264104 224.42549 
L 147.264104 223.754152 
L 147.423525 223.754152 
L 147.423525 223.586317 
L 147.971093 223.586317 
L 147.971093 223.418483 
L 148.124658 223.418483 
L 148.124658 222.914979 
L 148.352679 222.914979 
L 148.352679 222.57931 
L 148.503173 222.57931 
L 148.503173 222.411476 
L 148.874221 222.411476 
L 148.874221 222.243641 
L 149.093387 222.243641 
L 149.093387 222.075807 
L 149.31003 222.075807 
L 149.31003 221.740138 
L 149.453084 221.740138 
L 149.453084 221.0688 
L 150.559965 221.0688 
L 150.62703 220.733131 
L 151.089903 220.733131 
L 151.089903 220.565297 
L 151.349377 220.565297 
L 151.349377 220.229628 
L 151.477784 220.229628 
L 151.54166 219.55829 
L 151.982822 219.55829 
L 151.982822 219.390455 
L 152.291722 219.390455 
L 152.291722 219.054786 
L 152.595631 219.054786 
L 152.595631 218.886952 
L 152.835271 218.886952 
L 152.835271 218.551283 
L 153.01302 218.551283 
L 153.071898 218.215614 
L 153.707679 218.215614 
L 153.707679 218.047779 
L 154.156931 218.047779 
L 154.212341 217.040772 
L 154.432362 217.040772 
L 154.432362 216.705103 
L 154.595705 216.705103 
L 154.649839 216.033766 
L 154.86483 216.033766 
L 154.86483 215.194593 
L 155.13016 215.194593 
L 155.18278 214.523255 
L 155.443693 214.523255 
L 155.547053 214.187586 
L 155.598521 214.187586 
L 155.598521 214.019752 
L 155.904407 214.019752 
L 155.904407 213.684083 
L 156.501649 213.684083 
L 156.501649 213.516248 
L 156.648044 213.516248 
L 156.648044 213.180579 
L 157.127956 213.180579 
L 157.222487 212.677076 
L 157.688143 212.677076 
L 157.688143 212.509241 
L 158.052543 212.509241 
L 158.052543 212.005738 
L 158.187393 212.005738 
L 158.232129 210.998731 
L 158.321284 210.998731 
L 158.365703 210.159559 
L 158.498335 210.159559 
L 158.542339 209.82389 
L 158.847515 209.82389 
L 158.933807 209.488221 
L 158.976805 209.488221 
L 158.976805 209.320386 
L 159.317295 209.320386 
L 159.317295 209.152552 
L 159.693121 209.152552 
L 159.734419 208.649048 
L 160.102084 208.649048 
L 160.102084 208.481214 
L 160.263211 208.481214 
L 160.263211 208.145545 
L 160.4627 208.145545 
L 160.4627 207.97771 
L 160.581385 207.97771 
L 160.581385 207.809876 
L 160.855439 207.809876 
L 160.855439 207.474207 
L 161.240147 207.474207 
L 161.240147 207.306372 
L 161.391854 207.306372 
L 161.391854 207.138538 
L 161.839769 207.138538 
L 161.950101 206.635034 
L 162.096211 206.635034 
L 162.096211 206.299366 
L 162.277267 206.299366 
L 162.277267 205.963697 
L 162.420867 205.963697 
L 162.492258 204.95669 
L 162.56338 204.95669 
L 162.56338 204.788855 
L 163.019227 204.788855 
L 163.053839 204.453186 
L 163.157294 204.453186 
L 163.157294 203.949683 
L 163.498092 203.949683 
L 163.59914 203.446179 
L 164.161708 203.446179 
L 164.194282 202.607007 
L 164.324018 202.607007 
L 164.324018 201.935669 
L 164.548924 201.935669 
L 164.612692 201.264331 
L 164.959603 201.264331 
L 164.959603 201.096497 
L 165.084184 201.096497 
L 165.146166 200.760828 
L 165.238758 200.760828 
L 165.238758 200.592993 
L 165.664928 200.592993 
L 165.664928 200.425159 
L 165.814821 200.425159 
L 165.814821 200.08949 
L 165.933882 200.08949 
L 165.933882 199.585986 
L 166.052194 199.585986 
L 166.052194 199.250317 
L 166.604233 199.250317 
L 166.604233 199.082483 
L 166.860176 199.082483 
L 166.860176 198.24331 
L 167.000877 198.24331 
L 167.000877 198.075476 
L 167.140533 198.075476 
L 167.223831 197.571972 
L 167.334325 197.571972 
L 167.334325 197.068469 
L 167.526142 197.068469 
L 167.526142 196.900634 
L 167.904005 196.900634 
L 167.904005 196.7328 
L 168.378936 196.7328 
L 168.378936 196.564966 
L 168.611979 196.564966 
L 168.663377 196.061462 
L 169.019282 196.061462 
L 169.019282 195.893628 
L 169.294273 195.893628 
L 169.368578 194.886621 
L 169.589749 194.886621 
L 169.589749 194.550952 
L 169.952684 194.550952 
L 169.952684 194.383117 
L 170.072123 194.383117 
L 170.143423 193.879614 
L 170.190808 193.879614 
L 170.28522 193.37611 
L 170.355719 193.37611 
L 170.355719 193.208276 
L 170.588827 193.208276 
L 170.588827 193.040441 
L 170.773255 193.040441 
L 170.773255 192.704772 
L 170.887612 192.704772 
L 170.887612 192.536938 
L 171.001277 192.536938 
L 171.069148 191.529931 
L 171.159263 191.529931 
L 171.20416 191.194262 
L 171.427048 191.194262 
L 171.427048 190.858593 
L 171.71291 190.858593 
L 171.71291 190.690759 
L 172.101681 190.690759 
L 172.144386 190.187255 
L 172.524431 190.187255 
L 172.524431 189.851586 
L 172.649425 189.851586 
L 172.649425 189.683752 
L 172.978738 189.683752 
L 172.978738 189.515917 
L 173.342453 189.515917 
L 173.382435 189.180248 
L 173.541519 189.180248 
L 173.541519 189.012414 
L 173.7385 189.012414 
L 173.77765 188.50891 
L 173.972187 188.50891 
L 174.049442 187.837572 
L 174.298352 187.837572 
L 174.298352 187.669738 
L 174.412132 187.669738 
L 174.468765 187.166234 
L 174.600249 187.166234 
L 174.600249 186.830566 
L 174.989276 186.830566 
L 174.989276 186.662731 
L 175.117184 186.662731 
L 175.117184 186.494897 
L 175.298414 186.494897 
L 175.388379 185.991393 
L 175.743995 185.991393 
L 175.743995 185.655724 
L 176.384671 185.655724 
L 176.469599 184.816552 
L 176.537267 184.816552 
L 176.537267 184.480883 
L 176.75552 184.480883 
L 176.838794 183.977379 
L 177.135565 183.977379 
L 177.184574 183.473876 
L 177.45991 183.473876 
L 177.475981 182.970372 
L 177.667774 182.970372 
L 177.667774 182.802538 
L 177.873367 182.802538 
L 177.873367 182.634703 
L 178.045592 182.634703 
L 178.045592 181.963366 
L 178.169864 181.963366 
L 178.200804 181.459862 
L 178.598461 181.459862 
L 178.598461 181.292028 
L 178.749196 181.292028 
L 178.794182 180.956359 
L 179.06186 180.956359 
L 179.06186 180.788524 
L 179.729109 180.788524 
L 179.729109 180.62069 
L 179.871084 180.62069 
L 179.899351 180.285021 
L 180.054064 180.285021 
L 180.054064 179.949352 
L 180.359723 179.949352 
L 180.469652 179.445848 
L 180.606166 179.445848 
L 180.674054 179.110179 
L 180.916439 179.110179 
L 181.009863 178.438841 
L 181.651154 178.438841 
L 181.651154 178.271007 
L 181.868631 178.271007 
L 181.868631 178.103172 
L 182.196455 178.103172 
L 182.296185 177.599669 
L 182.420108 177.599669 
L 182.420108 177.264 
L 182.677721 177.264 
L 182.677721 177.096166 
L 183.051672 177.096166 
L 183.051672 176.928331 
L 183.441747 176.928331 
L 183.441747 176.760497 
L 183.743481 176.760497 
L 183.835357 176.089159 
L 184.343961 176.089159 
L 184.377384 175.417821 
L 184.87173 175.417821 
L 184.893403 174.914317 
L 185.33227 174.914317 
L 185.33227 174.578648 
L 185.563605 174.578648 
L 185.636619 174.075145 
L 185.936123 174.075145 
L 185.936123 173.90731 
L 186.210749 173.90731 
L 186.210749 173.571641 
L 186.371619 173.571641 
L 186.371619 173.403807 
L 186.550968 173.403807 
L 186.550968 173.068138 
L 186.679442 173.068138 
L 186.679442 172.900303 
L 186.816825 172.900303 
L 186.816825 172.732469 
L 186.991998 172.732469 
L 186.991998 172.564634 
L 187.280377 172.564634 
L 187.356538 172.061131 
L 187.403982 172.061131 
L 187.403982 171.557628 
L 187.630062 171.557628 
L 187.630062 171.221959 
L 187.936552 171.221959 
L 188.02845 170.718455 
L 188.22906 170.718455 
L 188.22906 170.550621 
L 188.355616 170.550621 
L 188.355616 170.382786 
L 189.166736 170.382786 
L 189.166736 170.214952 
L 189.287158 170.214952 
L 189.287158 170.047117 
L 189.559547 170.047117 
L 189.559547 169.879283 
L 190.353821 169.879283 
L 190.458846 169.375779 
L 191.773351 169.375779 
L 191.810877 168.872276 
L 192.041879 168.872276 
L 192.041879 168.704441 
L 192.240789 168.704441 
L 192.335815 168.033103 
L 192.423108 168.033103 
L 192.423108 167.697434 
L 192.589295 167.697434 
L 192.589295 167.361766 
L 193.652141 167.361766 
L 193.652141 167.193931 
L 193.767362 167.193931 
L 193.767362 167.026097 
L 194.049038 167.026097 
L 194.049038 166.690428 
L 195.078734 166.690428 
L 195.078734 166.522593 
L 200.36243 166.522593 
L 200.36243 166.354759 
L 201.997663 166.354759 
L 201.997663 166.186924 
L 211.922032 166.186924 
L 211.922032 166.01909 
L 360.8064 166.01909 
L 360.8064 166.01909 
" style="fill: none; stroke: #ff0000; stroke-width: 1.5; stroke-linecap: square"/>
   </g>
   <g id="line2d_56">
    <defs>
     <path id="m831461fbf7" d="M 0 -6 
L -5.196152 -3 
L -5.196152 3 
L -0 6 
L 5.196152 3 
L 5.196152 -3 
z
" style="stroke: #ff0000; stroke-width: 1.5; stroke-linejoin: miter"/>
    </defs>
    <g>
     <use xlink:href="#m831461fbf7" x="95.503454" y="269.572966" style="fill-opacity: 0; stroke: #ff0000; stroke-width: 1.5; stroke-linejoin: miter"/>
     <use xlink:href="#m831461fbf7" x="156.648044" y="213.516248" style="fill-opacity: 0; stroke: #ff0000; stroke-width: 1.5; stroke-linejoin: miter"/>
     <use xlink:href="#m831461fbf7" x="211.922032" y="166.186924" style="fill-opacity: 0; stroke: #ff0000; stroke-width: 1.5; stroke-linejoin: miter"/>
     <use xlink:href="#m831461fbf7" x="211.922032" y="166.01909" style="fill-opacity: 0; stroke: #ff0000; stroke-width: 1.5; stroke-linejoin: miter"/>
     <use xlink:href="#m831461fbf7" x="211.922032" y="166.01909" style="fill-opacity: 0; stroke: #ff0000; stroke-width: 1.5; stroke-linejoin: miter"/>
     <use xlink:href="#m831461fbf7" x="360.8064" y="166.01909" style="fill-opacity: 0; stroke: #ff0000; stroke-width: 1.5; stroke-linejoin: miter"/>
    </g>
   </g>
   <g id="line2d_57">
    <path style="fill: none; stroke: #ff0000; stroke-width: 1.5; stroke-linecap: square"/>
    <g/>
   </g>
   <g id="line2d_58">
    <path d="M 274.176094 166.01909 
" clip-path="url(#p123fcf21f7)" style="fill: none; stroke: #ff0000; stroke-width: 1.5; stroke-linecap: square"/>
    <defs>
     <path id="m05a71394b2" d="M -12 12 
L 12 -12 
M -12 -12 
L 12 12 
" style="stroke: #ff0000"/>
    </defs>
    <g clip-path="url(#p123fcf21f7)">
     <use xlink:href="#m05a71394b2" x="274.176094" y="166.01909" style="fill: #ff0000; stroke: #ff0000"/>
    </g>
   </g>
   <g id="line2d_59">
    <path d="M 360.8064 244.229959 
L 380.514816 293.10336 
" style="fill: none; stroke: #ff7500; stroke-width: 1.5; stroke-linecap: square"/>
    <g>
     <use xlink:href="#mb250708e75" x="360.8064" y="244.229959" style="fill-opacity: 0; stroke: #ff7500; stroke-width: 1.5; stroke-linejoin: bevel"/>
     <use xlink:href="#mb250708e75" x="380.514816" y="293.10336" style="fill-opacity: 0; stroke: #ff7500; stroke-width: 1.5; stroke-linejoin: bevel"/>
    </g>
   </g>
   <g id="line2d_60">
    <path d="M 360.8064 238.020083 
L 380.514816 237.033216 
" style="fill: none; stroke: #6495ed; stroke-width: 1.5; stroke-linecap: square"/>
    <g>
     <use xlink:href="#mb539ffcd53" x="360.8064" y="238.020083" style="fill-opacity: 0; stroke: #6495ed; stroke-width: 1.5; stroke-linejoin: miter"/>
     <use xlink:href="#mb539ffcd53" x="380.514816" y="237.033216" style="fill-opacity: 0; stroke: #6495ed; stroke-width: 1.5; stroke-linejoin: miter"/>
    </g>
   </g>
   <g id="line2d_61">
    <path d="M 360.8064 226.439503 
L 380.514816 180.963072 
" style="fill: none; stroke: #ff00ff; stroke-width: 1.5; stroke-linecap: square"/>
    <g>
     <use xlink:href="#m02e727cec2" x="360.8064" y="226.439503" style="fill-opacity: 0; stroke: #ff00ff; stroke-width: 1.5; stroke-linejoin: miter"/>
     <use xlink:href="#m02e727cec2" x="380.514816" y="180.963072" style="fill-opacity: 0; stroke: #ff00ff; stroke-width: 1.5; stroke-linejoin: miter"/>
    </g>
   </g>
   <g id="line2d_62">
    <path d="M 360.8064 223.754152 
L 380.514816 124.892928 
" style="fill: none; stroke: #000080; stroke-width: 1.5; stroke-linecap: square"/>
    <g>
     <use xlink:href="#m782024d8b5" x="360.8064" y="223.754152" style="fill-opacity: 0; stroke: #000080; stroke-width: 1.5"/>
     <use xlink:href="#m782024d8b5" x="380.514816" y="124.892928" style="fill-opacity: 0; stroke: #000080; stroke-width: 1.5"/>
    </g>
   </g>
   <g id="line2d_63">
    <path d="M 360.8064 166.01909 
L 380.514816 68.822784 
" style="fill: none; stroke: #ff0000; stroke-width: 1.5; stroke-linecap: square"/>
    <g>
     <use xlink:href="#m831461fbf7" x="360.8064" y="166.01909" style="fill-opacity: 0; stroke: #ff0000; stroke-width: 1.5; stroke-linejoin: miter"/>
     <use xlink:href="#m831461fbf7" x="380.514816" y="68.822784" style="fill-opacity: 0; stroke: #ff0000; stroke-width: 1.5; stroke-linejoin: miter"/>
    </g>
   </g>
   <g id="line2d_64">
    <path d="M 360.8064 298.944 
L 360.8064 6.912 
" style="fill: none; stroke: #000000; stroke-width: 1.5; stroke-linecap: square"/>
   </g>
   <g id="patch_3">
    <path d="M 57.6 298.944 
L 360.8064 298.944 
" style="fill: none; stroke: #000000; stroke-width: 0.8; stroke-linejoin: miter; stroke-linecap: square"/>
   </g>
   <g id="patch_4">
    <path d="M 57.6 6.912 
L 360.8064 6.912 
" style="fill: none; stroke: #000000; stroke-width: 0.8; stroke-linejoin: miter; stroke-linecap: square"/>
   </g>
   <g id="text_13">
    <!-- kerComo -->
    <g transform="translate(386.578944 296.966485) scale(0.14 -0.14)">
     <defs>
      <path id="DejaVuSans-6b" d="M 581 4863 
L 1159 4863 
L 1159 1991 
L 2875 3500 
L 3609 3500 
L 1753 1863 
L 3688 0 
L 2938 0 
L 1159 1709 
L 1159 0 
L 581 0 
L 581 4863 
z
" transform="scale(0.015625)"/>
      <path id="DejaVuSans-43" d="M 4122 4306 
L 4122 3641 
Q 3803 3938 3442 4084 
Q 3081 4231 2675 4231 
Q 1875 4231 1450 3742 
Q 1025 3253 1025 2328 
Q 1025 1406 1450 917 
Q 1875 428 2675 428 
Q 3081 428 3442 575 
Q 3803 722 4122 1019 
L 4122 359 
Q 3791 134 3420 21 
Q 3050 -91 2638 -91 
Q 1578 -91 968 557 
Q 359 1206 359 2328 
Q 359 3453 968 4101 
Q 1578 4750 2638 4750 
Q 3056 4750 3426 4639 
Q 3797 4528 4122 4306 
z
" transform="scale(0.015625)"/>
     </defs>
     <use xlink:href="#DejaVuSans-6b"/>
     <use xlink:href="#DejaVuSans-65" x="54.285156"/>
     <use xlink:href="#DejaVuSans-72" x="115.808594"/>
     <use xlink:href="#DejaVuSans-43" x="156.921875"/>
     <use xlink:href="#DejaVuSans-6f" x="226.746094"/>
     <use xlink:href="#DejaVuSans-6d" x="287.927734"/>
     <use xlink:href="#DejaVuSans-6f" x="385.339844"/>
    </g>
   </g>
   <g id="text_14">
    <!-- kerLQ -->
    <g transform="translate(386.578944 240.896341) scale(0.14 -0.14)">
     <defs>
      <path id="DejaVuSans-4c" d="M 628 4666 
L 1259 4666 
L 1259 531 
L 3531 531 
L 3531 0 
L 628 0 
L 628 4666 
z
" transform="scale(0.015625)"/>
      <path id="DejaVuSans-51" d="M 2522 4238 
Q 1834 4238 1429 3725 
Q 1025 3213 1025 2328 
Q 1025 1447 1429 934 
Q 1834 422 2522 422 
Q 3209 422 3611 934 
Q 4013 1447 4013 2328 
Q 4013 3213 3611 3725 
Q 3209 4238 2522 4238 
z
M 3406 84 
L 4238 -825 
L 3475 -825 
L 2784 -78 
Q 2681 -84 2626 -87 
Q 2572 -91 2522 -91 
Q 1538 -91 948 567 
Q 359 1225 359 2328 
Q 359 3434 948 4092 
Q 1538 4750 2522 4750 
Q 3503 4750 4090 4092 
Q 4678 3434 4678 2328 
Q 4678 1516 4351 937 
Q 4025 359 3406 84 
z
" transform="scale(0.015625)"/>
     </defs>
     <use xlink:href="#DejaVuSans-6b"/>
     <use xlink:href="#DejaVuSans-65" x="54.285156"/>
     <use xlink:href="#DejaVuSans-72" x="115.808594"/>
     <use xlink:href="#DejaVuSans-4c" x="156.921875"/>
     <use xlink:href="#DejaVuSans-51" x="212.634766"/>
    </g>
   </g>
   <g id="text_15">
    <!-- AllLQ -->
    <g transform="translate(386.578944 184.826197) scale(0.14 -0.14)">
     <defs>
      <path id="DejaVuSans-41" d="M 2188 4044 
L 1331 1722 
L 3047 1722 
L 2188 4044 
z
M 1831 4666 
L 2547 4666 
L 4325 0 
L 3669 0 
L 3244 1197 
L 1141 1197 
L 716 0 
L 50 0 
L 1831 4666 
z
" transform="scale(0.015625)"/>
     </defs>
     <use xlink:href="#DejaVuSans-41"/>
     <use xlink:href="#DejaVuSans-6c" x="68.408203"/>
     <use xlink:href="#DejaVuSans-6c" x="96.191406"/>
     <use xlink:href="#DejaVuSans-4c" x="123.974609"/>
     <use xlink:href="#DejaVuSans-51" x="179.6875"/>
    </g>
   </g>
   <g id="text_16">
    <!-- AllComo -->
    <g transform="translate(386.578944 128.756053) scale(0.14 -0.14)">
     <use xlink:href="#DejaVuSans-41"/>
     <use xlink:href="#DejaVuSans-6c" x="68.408203"/>
     <use xlink:href="#DejaVuSans-6c" x="96.191406"/>
     <use xlink:href="#DejaVuSans-43" x="123.974609"/>
     <use xlink:href="#DejaVuSans-6f" x="193.798828"/>
     <use xlink:href="#DejaVuSans-6d" x="254.980469"/>
     <use xlink:href="#DejaVuSans-6f" x="352.392578"/>
    </g>
   </g>
   <g id="text_17">
    <!-- COMO-10 d -->
    <g transform="translate(386.578944 72.685909) scale(0.14 -0.14)">
     <defs>
      <path id="DejaVuSans-4f" d="M 2522 4238 
Q 1834 4238 1429 3725 
Q 1025 3213 1025 2328 
Q 1025 1447 1429 934 
Q 1834 422 2522 422 
Q 3209 422 3611 934 
Q 4013 1447 4013 2328 
Q 4013 3213 3611 3725 
Q 3209 4238 2522 4238 
z
M 2522 4750 
Q 3503 4750 4090 4092 
Q 4678 3434 4678 2328 
Q 4678 1225 4090 567 
Q 3503 -91 2522 -91 
Q 1538 -91 948 565 
Q 359 1222 359 2328 
Q 359 3434 948 4092 
Q 1538 4750 2522 4750 
z
" transform="scale(0.015625)"/>
      <path id="DejaVuSans-4d" d="M 628 4666 
L 1569 4666 
L 2759 1491 
L 3956 4666 
L 4897 4666 
L 4897 0 
L 4281 0 
L 4281 4097 
L 3078 897 
L 2444 897 
L 1241 4097 
L 1241 0 
L 628 0 
L 628 4666 
z
" transform="scale(0.015625)"/>
     </defs>
     <use xlink:href="#DejaVuSans-43"/>
     <use xlink:href="#DejaVuSans-4f" x="69.824219"/>
     <use xlink:href="#DejaVuSans-4d" x="148.535156"/>
     <use xlink:href="#DejaVuSans-4f" x="234.814453"/>
     <use xlink:href="#DejaVuSans-2d" x="316.275391"/>
     <use xlink:href="#DejaVuSans-31" x="352.359375"/>
     <use xlink:href="#DejaVuSans-30" x="415.982422"/>
     <use xlink:href="#DejaVuSans-20" x="479.605469"/>
     <use xlink:href="#DejaVuSans-64" x="511.392578"/>
    </g>
   </g>
   <g id="text_18">
    <!-- best 2016 -->
    <g transform="translate(386.578944 16.615765) scale(0.14 -0.14)">
     <defs>
      <path id="DejaVuSans-62" d="M 3116 1747 
Q 3116 2381 2855 2742 
Q 2594 3103 2138 3103 
Q 1681 3103 1420 2742 
Q 1159 2381 1159 1747 
Q 1159 1113 1420 752 
Q 1681 391 2138 391 
Q 2594 391 2855 752 
Q 3116 1113 3116 1747 
z
M 1159 2969 
Q 1341 3281 1617 3432 
Q 1894 3584 2278 3584 
Q 2916 3584 3314 3078 
Q 3713 2572 3713 1747 
Q 3713 922 3314 415 
Q 2916 -91 2278 -91 
Q 1894 -91 1617 61 
Q 1341 213 1159 525 
L 1159 0 
L 581 0 
L 581 4863 
L 1159 4863 
L 1159 2969 
z
" transform="scale(0.015625)"/>
     </defs>
     <use xlink:href="#DejaVuSans-62"/>
     <use xlink:href="#DejaVuSans-65" x="63.476562"/>
     <use xlink:href="#DejaVuSans-73" x="125"/>
     <use xlink:href="#DejaVuSans-74" x="177.099609"/>
     <use xlink:href="#DejaVuSans-20" x="216.308594"/>
     <use xlink:href="#DejaVuSans-32" x="248.095703"/>
     <use xlink:href="#DejaVuSans-30" x="311.71875"/>
     <use xlink:href="#DejaVuSans-31" x="375.341797"/>
     <use xlink:href="#DejaVuSans-36" x="438.964844"/>
    </g>
   </g>
   <g id="text_19">
    <!-- bbob-biobj f53-f55, 2-D -->
    <g transform="translate(60.632064 17.582726) scale(0.102 -0.102)">
     <defs>
      <path id="DejaVuSans-6a" d="M 603 3500 
L 1178 3500 
L 1178 -63 
Q 1178 -731 923 -1031 
Q 669 -1331 103 -1331 
L -116 -1331 
L -116 -844 
L 38 -844 
Q 366 -844 484 -692 
Q 603 -541 603 -63 
L 603 3500 
z
M 603 4863 
L 1178 4863 
L 1178 4134 
L 603 4134 
L 603 4863 
z
" transform="scale(0.015625)"/>
      <path id="DejaVuSans-35" d="M 691 4666 
L 3169 4666 
L 3169 4134 
L 1269 4134 
L 1269 2991 
Q 1406 3038 1543 3061 
Q 1681 3084 1819 3084 
Q 2600 3084 3056 2656 
Q 3513 2228 3513 1497 
Q 3513 744 3044 326 
Q 2575 -91 1722 -91 
Q 1428 -91 1123 -41 
Q 819 9 494 109 
L 494 744 
Q 775 591 1075 516 
Q 1375 441 1709 441 
Q 2250 441 2565 725 
Q 2881 1009 2881 1497 
Q 2881 1984 2565 2268 
Q 2250 2553 1709 2553 
Q 1456 2553 1204 2497 
Q 953 2441 691 2322 
L 691 4666 
z
" transform="scale(0.015625)"/>
      <path id="DejaVuSans-33" d="M 2597 2516 
Q 3050 2419 3304 2112 
Q 3559 1806 3559 1356 
Q 3559 666 3084 287 
Q 2609 -91 1734 -91 
Q 1441 -91 1130 -33 
Q 819 25 488 141 
L 488 750 
Q 750 597 1062 519 
Q 1375 441 1716 441 
Q 2309 441 2620 675 
Q 2931 909 2931 1356 
Q 2931 1769 2642 2001 
Q 2353 2234 1838 2234 
L 1294 2234 
L 1294 2753 
L 1863 2753 
Q 2328 2753 2575 2939 
Q 2822 3125 2822 3475 
Q 2822 3834 2567 4026 
Q 2313 4219 1838 4219 
Q 1578 4219 1281 4162 
Q 984 4106 628 3988 
L 628 4550 
Q 988 4650 1302 4700 
Q 1616 4750 1894 4750 
Q 2613 4750 3031 4423 
Q 3450 4097 3450 3541 
Q 3450 3153 3228 2886 
Q 3006 2619 2597 2516 
z
" transform="scale(0.015625)"/>
      <path id="DejaVuSans-44" d="M 1259 4147 
L 1259 519 
L 2022 519 
Q 2988 519 3436 956 
Q 3884 1394 3884 2338 
Q 3884 3275 3436 3711 
Q 2988 4147 2022 4147 
L 1259 4147 
z
M 628 4666 
L 1925 4666 
Q 3281 4666 3915 4102 
Q 4550 3538 4550 2338 
Q 4550 1131 3912 565 
Q 3275 0 1925 0 
L 628 0 
L 628 4666 
z
" transform="scale(0.015625)"/>
     </defs>
     <use xlink:href="#DejaVuSans-62"/>
     <use xlink:href="#DejaVuSans-62" x="63.476562"/>
     <use xlink:href="#DejaVuSans-6f" x="126.953125"/>
     <use xlink:href="#DejaVuSans-62" x="188.134766"/>
     <use xlink:href="#DejaVuSans-2d" x="251.611328"/>
     <use xlink:href="#DejaVuSans-62" x="287.695312"/>
     <use xlink:href="#DejaVuSans-69" x="351.171875"/>
     <use xlink:href="#DejaVuSans-6f" x="378.955078"/>
     <use xlink:href="#DejaVuSans-62" x="440.136719"/>
     <use xlink:href="#DejaVuSans-6a" x="503.613281"/>
     <use xlink:href="#DejaVuSans-20" x="531.396484"/>
     <use xlink:href="#DejaVuSans-66" x="563.183594"/>
     <use xlink:href="#DejaVuSans-35" x="598.388672"/>
     <use xlink:href="#DejaVuSans-33" x="662.011719"/>
     <use xlink:href="#DejaVuSans-2d" x="725.634766"/>
     <use xlink:href="#DejaVuSans-66" x="761.71875"/>
     <use xlink:href="#DejaVuSans-35" x="796.923828"/>
     <use xlink:href="#DejaVuSans-35" x="860.546875"/>
     <use xlink:href="#DejaVuSans-2c" x="924.169922"/>
     <use xlink:href="#DejaVuSans-20" x="955.957031"/>
     <use xlink:href="#DejaVuSans-32" x="987.744141"/>
     <use xlink:href="#DejaVuSans-2d" x="1051.367188"/>
     <use xlink:href="#DejaVuSans-44" x="1087.451172"/>
    </g>
    <!-- 58 targets: 1..-1.0e-4 -->
    <g transform="translate(60.632064 29.004495) scale(0.102 -0.102)">
     <defs>
      <path id="DejaVuSans-3a" d="M 750 794 
L 1409 794 
L 1409 0 
L 750 0 
L 750 794 
z
M 750 3309 
L 1409 3309 
L 1409 2516 
L 750 2516 
L 750 3309 
z
" transform="scale(0.015625)"/>
     </defs>
     <use xlink:href="#DejaVuSans-35"/>
     <use xlink:href="#DejaVuSans-38" x="63.623047"/>
     <use xlink:href="#DejaVuSans-20" x="127.246094"/>
     <use xlink:href="#DejaVuSans-74" x="159.033203"/>
     <use xlink:href="#DejaVuSans-61" x="198.242188"/>
     <use xlink:href="#DejaVuSans-72" x="259.521484"/>
     <use xlink:href="#DejaVuSans-67" x="298.884766"/>
     <use xlink:href="#DejaVuSans-65" x="362.361328"/>
     <use xlink:href="#DejaVuSans-74" x="423.884766"/>
     <use xlink:href="#DejaVuSans-73" x="463.09375"/>
     <use xlink:href="#DejaVuSans-3a" x="515.193359"/>
     <use xlink:href="#DejaVuSans-20" x="548.884766"/>
     <use xlink:href="#DejaVuSans-31" x="580.671875"/>
     <use xlink:href="#DejaVuSans-2e" x="644.294922"/>
     <use xlink:href="#DejaVuSans-2e" x="676.082031"/>
     <use xlink:href="#DejaVuSans-2d" x="707.869141"/>
     <use xlink:href="#DejaVuSans-31" x="743.953125"/>
     <use xlink:href="#DejaVuSans-2e" x="807.576172"/>
     <use xlink:href="#DejaVuSans-30" x="839.363281"/>
     <use xlink:href="#DejaVuSans-65" x="902.986328"/>
     <use xlink:href="#DejaVuSans-2d" x="964.509766"/>
     <use xlink:href="#DejaVuSans-34" x="1000.59375"/>
    </g>
    <!-- 10 instances -->
    <g transform="translate(60.632064 40.426264) scale(0.102 -0.102)">
     <use xlink:href="#DejaVuSans-31"/>
     <use xlink:href="#DejaVuSans-30" x="63.623047"/>
     <use xlink:href="#DejaVuSans-20" x="127.246094"/>
     <use xlink:href="#DejaVuSans-69" x="159.033203"/>
     <use xlink:href="#DejaVuSans-6e" x="186.816406"/>
     <use xlink:href="#DejaVuSans-73" x="250.195312"/>
     <use xlink:href="#DejaVuSans-74" x="302.294922"/>
     <use xlink:href="#DejaVuSans-61" x="341.503906"/>
     <use xlink:href="#DejaVuSans-6e" x="402.783203"/>
     <use xlink:href="#DejaVuSans-63" x="466.162109"/>
     <use xlink:href="#DejaVuSans-65" x="521.142578"/>
     <use xlink:href="#DejaVuSans-73" x="582.666016"/>
    </g>
   </g>
   <g id="text_20">
    <!-- v2.6, hv-hash=ff0e71e8cd978373 -->
    <g style="fill: #808080" transform="translate(123.707887 293.943992) scale(0.1 -0.1)">
     <defs>
      <path id="DejaVuSans-68" d="M 3513 2113 
L 3513 0 
L 2938 0 
L 2938 2094 
Q 2938 2591 2744 2837 
Q 2550 3084 2163 3084 
Q 1697 3084 1428 2787 
Q 1159 2491 1159 1978 
L 1159 0 
L 581 0 
L 581 4863 
L 1159 4863 
L 1159 2956 
Q 1366 3272 1645 3428 
Q 1925 3584 2291 3584 
Q 2894 3584 3203 3211 
Q 3513 2838 3513 2113 
z
" transform="scale(0.015625)"/>
      <path id="DejaVuSans-3d" d="M 678 2906 
L 4684 2906 
L 4684 2381 
L 678 2381 
L 678 2906 
z
M 678 1631 
L 4684 1631 
L 4684 1100 
L 678 1100 
L 678 1631 
z
" transform="scale(0.015625)"/>
      <path id="DejaVuSans-37" d="M 525 4666 
L 3525 4666 
L 3525 4397 
L 1831 0 
L 1172 0 
L 2766 4134 
L 525 4134 
L 525 4666 
z
" transform="scale(0.015625)"/>
      <path id="DejaVuSans-39" d="M 703 97 
L 703 672 
Q 941 559 1184 500 
Q 1428 441 1663 441 
Q 2288 441 2617 861 
Q 2947 1281 2994 2138 
Q 2813 1869 2534 1725 
Q 2256 1581 1919 1581 
Q 1219 1581 811 2004 
Q 403 2428 403 3163 
Q 403 3881 828 4315 
Q 1253 4750 1959 4750 
Q 2769 4750 3195 4129 
Q 3622 3509 3622 2328 
Q 3622 1225 3098 567 
Q 2575 -91 1691 -91 
Q 1453 -91 1209 -44 
Q 966 3 703 97 
z
M 1959 2075 
Q 2384 2075 2632 2365 
Q 2881 2656 2881 3163 
Q 2881 3666 2632 3958 
Q 2384 4250 1959 4250 
Q 1534 4250 1286 3958 
Q 1038 3666 1038 3163 
Q 1038 2656 1286 2365 
Q 1534 2075 1959 2075 
z
" transform="scale(0.015625)"/>
     </defs>
     <use xlink:href="#DejaVuSans-76"/>
     <use xlink:href="#DejaVuSans-32" x="59.179688"/>
     <use xlink:href="#DejaVuSans-2e" x="122.802734"/>
     <use xlink:href="#DejaVuSans-36" x="154.589844"/>
     <use xlink:href="#DejaVuSans-2c" x="218.212891"/>
     <use xlink:href="#DejaVuSans-20" x="250"/>
     <use xlink:href="#DejaVuSans-68" x="281.787109"/>
     <use xlink:href="#DejaVuSans-76" x="345.166016"/>
     <use xlink:href="#DejaVuSans-2d" x="401.720703"/>
     <use xlink:href="#DejaVuSans-68" x="437.804688"/>
     <use xlink:href="#DejaVuSans-61" x="501.183594"/>
     <use xlink:href="#DejaVuSans-73" x="562.462891"/>
     <use xlink:href="#DejaVuSans-68" x="614.5625"/>
     <use xlink:href="#DejaVuSans-3d" x="677.941406"/>
     <use xlink:href="#DejaVuSans-66" x="761.730469"/>
     <use xlink:href="#DejaVuSans-66" x="796.935547"/>
     <use xlink:href="#DejaVuSans-30" x="832.140625"/>
     <use xlink:href="#DejaVuSans-65" x="895.763672"/>
     <use xlink:href="#DejaVuSans-37" x="957.287109"/>
     <use xlink:href="#DejaVuSans-31" x="1020.910156"/>
     <use xlink:href="#DejaVuSans-65" x="1084.533203"/>
     <use xlink:href="#DejaVuSans-38" x="1146.056641"/>
     <use xlink:href="#DejaVuSans-63" x="1209.679688"/>
     <use xlink:href="#DejaVuSans-64" x="1264.660156"/>
     <use xlink:href="#DejaVuSans-39" x="1328.136719"/>
     <use xlink:href="#DejaVuSans-37" x="1391.759766"/>
     <use xlink:href="#DejaVuSans-38" x="1455.382812"/>
     <use xlink:href="#DejaVuSans-33" x="1519.005859"/>
     <use xlink:href="#DejaVuSans-37" x="1582.628906"/>
     <use xlink:href="#DejaVuSans-33" x="1646.251953"/>
    </g>
   </g>
  </g>
 </g>
 <defs>
  <clipPath id="p123fcf21f7">
   <rect x="57.6" y="6.912" width="303.2064" height="292.032"/>
  </clipPath>
 </defs>
</svg>
