<?xml version="1.0" encoding="utf-8" standalone="no"?>
<!DOCTYPE svg PUBLIC "-//W3C//DTD SVG 1.1//EN"
  "http://www.w3.org/Graphics/SVG/1.1/DTD/svg11.dtd">
<svg xmlns:xlink="http://www.w3.org/1999/xlink" width="460.8pt" height="345.6pt" viewBox="0 0 460.8 345.6" xmlns="http://www.w3.org/2000/svg" version="1.1">
 <metadata>
  <rdf:RDF xmlns:dc="http://purl.org/dc/elements/1.1/" xmlns:cc="http://creativecommons.org/ns#" xmlns:rdf="http://www.w3.org/1999/02/22-rdf-syntax-ns#">
   <cc:Work>
    <dc:type rdf:resource="http://purl.org/dc/dcmitype/StillImage"/>
    <dc:date>2023-03-13T19:35:25.831368</dc:date>
    <dc:format>image/svg+xml</dc:format>
    <dc:creator>
     <cc:Agent>
      <dc:title>Matplotlib v3.7.0, https://matplotlib.org/</dc:title>
     </cc:Agent>
    </dc:creator>
   </cc:Work>
  </rdf:RDF>
 </metadata>
 <defs>
  <style type="text/css">*{stroke-linejoin: round; stroke-linecap: butt}</style>
 </defs>
 <g id="figure_1">
  <g id="patch_1">
   <path d="M 0 345.6 
L 460.8 345.6 
L 460.8 0 
L 0 0 
z
" style="fill: #ffffff"/>
  </g>
  <g id="axes_1">
   <g id="patch_2">
    <path d="M 57.6 298.944 
L 360.8064 298.944 
L 360.8064 27.648 
L 57.6 27.648 
z
" style="fill: #ffffff"/>
   </g>
   <g id="line2d_1">
    <path d="M 68.65718 298.944 
L 68.65718 294.266483 
L 81.696354 294.266483 
L 81.696354 284.911448 
L 102.708132 284.911448 
L 102.708132 275.556414 
L 134.993495 275.556414 
L 134.993495 270.878897 
L 142.905644 270.878897 
L 142.905644 256.846345 
L 162.088932 256.846345 
L 162.088932 247.49131 
L 164.758543 247.49131 
L 164.758543 242.813793 
L 172.288863 242.813793 
L 172.288863 233.458759 
L 180.07926 233.458759 
L 180.07926 219.426207 
L 189.076778 219.426207 
L 189.076778 210.071172 
L 191.482632 210.071172 
L 191.482632 200.716138 
L 201.772961 200.716138 
L 201.772961 191.361103 
L 202.401634 191.361103 
L 202.401634 186.683586 
L 216.773368 186.683586 
L 216.773368 172.651034 
L 221.773911 172.651034 
L 221.773911 167.973517 
L 241.594158 167.973517 
L 241.594158 153.940966 
L 245.541637 153.940966 
L 245.541637 144.585931 
L 252.704401 144.585931 
L 252.704401 139.908414 
L 256.494304 139.908414 
L 256.494304 125.875862 
L 257.993704 125.875862 
L 257.993704 121.198345 
L 259.547502 121.198345 
L 259.547502 107.165793 
L 278.050641 107.165793 
L 278.050641 97.810759 
L 278.243715 97.810759 
L 278.243715 88.455724 
L 278.488363 88.455724 
L 278.488363 83.778207 
L 278.91616 83.778207 
L 278.91616 74.423172 
L 281.036417 74.423172 
L 281.036417 60.390621 
L 360.8064 60.390621 
" style="fill: none; stroke: #faf0e6; stroke-width: 5; stroke-linecap: square"/>
   </g>
   <g id="line2d_2">
    <defs>
     <path id="m18c277ac79" d="M -0 6.22254 
L 6.22254 0 
L 0 -6.22254 
L -6.22254 -0 
z
" style="stroke: #faf0e6; stroke-linejoin: miter"/>
    </defs>
    <g>
     <use xlink:href="#m18c277ac79" x="180.07926" y="219.426207" style="fill: #faf0e6; stroke: #faf0e6; stroke-linejoin: miter"/>
     <use xlink:href="#m18c277ac79" x="221.773911" y="167.973517" style="fill: #faf0e6; stroke: #faf0e6; stroke-linejoin: miter"/>
     <use xlink:href="#m18c277ac79" x="281.036417" y="74.423172" style="fill: #faf0e6; stroke: #faf0e6; stroke-linejoin: miter"/>
     <use xlink:href="#m18c277ac79" x="281.036417" y="60.390621" style="fill: #faf0e6; stroke: #faf0e6; stroke-linejoin: miter"/>
     <use xlink:href="#m18c277ac79" x="360.8064" y="60.390621" style="fill: #faf0e6; stroke: #faf0e6; stroke-linejoin: miter"/>
    </g>
   </g>
   <g id="line2d_3">
    <path style="fill: none; stroke: #faf0e6; stroke-width: 5; stroke-linecap: square"/>
    <g/>
   </g>
   <g id="line2d_4">
    <path d="M 360.8064 60.390621 
L 380.514816 33.07392 
" style="fill: none; stroke: #faf0e6; stroke-width: 5; stroke-linecap: square"/>
    <g>
     <use xlink:href="#m18c277ac79" x="360.8064" y="60.390621" style="fill: #faf0e6; stroke: #faf0e6; stroke-linejoin: miter"/>
     <use xlink:href="#m18c277ac79" x="380.514816" y="33.07392" style="fill: #faf0e6; stroke: #faf0e6; stroke-linejoin: miter"/>
    </g>
   </g>
   <g id="matplotlib.axis_1">
    <g id="xtick_1">
     <g id="line2d_5">
      <path d="M 57.6 298.944 
L 57.6 27.648 
" clip-path="url(#p80869f4574)" style="fill: none; stroke: #b0b0b0; stroke-width: 0.8; stroke-linecap: square"/>
     </g>
     <g id="line2d_6">
      <defs>
       <path id="m689b322cd9" d="M 0 0 
L 0 3.5 
" style="stroke: #000000; stroke-width: 0.8"/>
      </defs>
      <g>
       <use xlink:href="#m689b322cd9" x="57.6" y="298.944" style="stroke: #000000; stroke-width: 0.8"/>
      </g>
     </g>
     <g id="line2d_7">
      <defs>
       <path id="m006ff84200" d="M 0 0 
L 0 -3.5 
" style="stroke: #000000; stroke-width: 0.8"/>
      </defs>
      <g>
       <use xlink:href="#m006ff84200" x="57.6" y="27.648" style="stroke: #000000; stroke-width: 0.8"/>
      </g>
     </g>
     <g id="text_1">
      <!-- 0 -->
      <g transform="translate(52.51 318.1015) scale(0.16 -0.16)">
       <defs>
        <path id="DejaVuSans-30" d="M 2034 4250 
Q 1547 4250 1301 3770 
Q 1056 3291 1056 2328 
Q 1056 1369 1301 889 
Q 1547 409 2034 409 
Q 2525 409 2770 889 
Q 3016 1369 3016 2328 
Q 3016 3291 2770 3770 
Q 2525 4250 2034 4250 
z
M 2034 4750 
Q 2819 4750 3233 4129 
Q 3647 3509 3647 2328 
Q 3647 1150 3233 529 
Q 2819 -91 2034 -91 
Q 1250 -91 836 529 
Q 422 1150 422 2328 
Q 422 3509 836 4129 
Q 1250 4750 2034 4750 
z
" transform="scale(0.015625)"/>
       </defs>
       <use xlink:href="#DejaVuSans-30"/>
      </g>
     </g>
    </g>
    <g id="xtick_2">
     <g id="line2d_8">
      <path d="M 100.9152 298.944 
L 100.9152 27.648 
" clip-path="url(#p80869f4574)" style="fill: none; stroke: #b0b0b0; stroke-width: 0.8; stroke-linecap: square"/>
     </g>
     <g id="line2d_9">
      <g>
       <use xlink:href="#m689b322cd9" x="100.9152" y="298.944" style="stroke: #000000; stroke-width: 0.8"/>
      </g>
     </g>
     <g id="line2d_10">
      <g>
       <use xlink:href="#m006ff84200" x="100.9152" y="27.648" style="stroke: #000000; stroke-width: 0.8"/>
      </g>
     </g>
     <g id="text_2">
      <!-- 1 -->
      <g transform="translate(95.8252 318.1015) scale(0.16 -0.16)">
       <defs>
        <path id="DejaVuSans-31" d="M 794 531 
L 1825 531 
L 1825 4091 
L 703 3866 
L 703 4441 
L 1819 4666 
L 2450 4666 
L 2450 531 
L 3481 531 
L 3481 0 
L 794 0 
L 794 531 
z
" transform="scale(0.015625)"/>
       </defs>
       <use xlink:href="#DejaVuSans-31"/>
      </g>
     </g>
    </g>
    <g id="xtick_3">
     <g id="line2d_11">
      <path d="M 144.2304 298.944 
L 144.2304 27.648 
" clip-path="url(#p80869f4574)" style="fill: none; stroke: #b0b0b0; stroke-width: 0.8; stroke-linecap: square"/>
     </g>
     <g id="line2d_12">
      <g>
       <use xlink:href="#m689b322cd9" x="144.2304" y="298.944" style="stroke: #000000; stroke-width: 0.8"/>
      </g>
     </g>
     <g id="line2d_13">
      <g>
       <use xlink:href="#m006ff84200" x="144.2304" y="27.648" style="stroke: #000000; stroke-width: 0.8"/>
      </g>
     </g>
     <g id="text_3">
      <!-- 2 -->
      <g transform="translate(139.1404 318.1015) scale(0.16 -0.16)">
       <defs>
        <path id="DejaVuSans-32" d="M 1228 531 
L 3431 531 
L 3431 0 
L 469 0 
L 469 531 
Q 828 903 1448 1529 
Q 2069 2156 2228 2338 
Q 2531 2678 2651 2914 
Q 2772 3150 2772 3378 
Q 2772 3750 2511 3984 
Q 2250 4219 1831 4219 
Q 1534 4219 1204 4116 
Q 875 4013 500 3803 
L 500 4441 
Q 881 4594 1212 4672 
Q 1544 4750 1819 4750 
Q 2544 4750 2975 4387 
Q 3406 4025 3406 3419 
Q 3406 3131 3298 2873 
Q 3191 2616 2906 2266 
Q 2828 2175 2409 1742 
Q 1991 1309 1228 531 
z
" transform="scale(0.015625)"/>
       </defs>
       <use xlink:href="#DejaVuSans-32"/>
      </g>
     </g>
    </g>
    <g id="xtick_4">
     <g id="line2d_14">
      <path d="M 187.5456 298.944 
L 187.5456 27.648 
" clip-path="url(#p80869f4574)" style="fill: none; stroke: #b0b0b0; stroke-width: 0.8; stroke-linecap: square"/>
     </g>
     <g id="line2d_15">
      <g>
       <use xlink:href="#m689b322cd9" x="187.5456" y="298.944" style="stroke: #000000; stroke-width: 0.8"/>
      </g>
     </g>
     <g id="line2d_16">
      <g>
       <use xlink:href="#m006ff84200" x="187.5456" y="27.648" style="stroke: #000000; stroke-width: 0.8"/>
      </g>
     </g>
     <g id="text_4">
      <!-- 3 -->
      <g transform="translate(182.4556 318.1015) scale(0.16 -0.16)">
       <defs>
        <path id="DejaVuSans-33" d="M 2597 2516 
Q 3050 2419 3304 2112 
Q 3559 1806 3559 1356 
Q 3559 666 3084 287 
Q 2609 -91 1734 -91 
Q 1441 -91 1130 -33 
Q 819 25 488 141 
L 488 750 
Q 750 597 1062 519 
Q 1375 441 1716 441 
Q 2309 441 2620 675 
Q 2931 909 2931 1356 
Q 2931 1769 2642 2001 
Q 2353 2234 1838 2234 
L 1294 2234 
L 1294 2753 
L 1863 2753 
Q 2328 2753 2575 2939 
Q 2822 3125 2822 3475 
Q 2822 3834 2567 4026 
Q 2313 4219 1838 4219 
Q 1578 4219 1281 4162 
Q 984 4106 628 3988 
L 628 4550 
Q 988 4650 1302 4700 
Q 1616 4750 1894 4750 
Q 2613 4750 3031 4423 
Q 3450 4097 3450 3541 
Q 3450 3153 3228 2886 
Q 3006 2619 2597 2516 
z
" transform="scale(0.015625)"/>
       </defs>
       <use xlink:href="#DejaVuSans-33"/>
      </g>
     </g>
    </g>
    <g id="xtick_5">
     <g id="line2d_17">
      <path d="M 230.8608 298.944 
L 230.8608 27.648 
" clip-path="url(#p80869f4574)" style="fill: none; stroke: #b0b0b0; stroke-width: 0.8; stroke-linecap: square"/>
     </g>
     <g id="line2d_18">
      <g>
       <use xlink:href="#m689b322cd9" x="230.8608" y="298.944" style="stroke: #000000; stroke-width: 0.8"/>
      </g>
     </g>
     <g id="line2d_19">
      <g>
       <use xlink:href="#m006ff84200" x="230.8608" y="27.648" style="stroke: #000000; stroke-width: 0.8"/>
      </g>
     </g>
     <g id="text_5">
      <!-- 4 -->
      <g transform="translate(225.7708 318.1015) scale(0.16 -0.16)">
       <defs>
        <path id="DejaVuSans-34" d="M 2419 4116 
L 825 1625 
L 2419 1625 
L 2419 4116 
z
M 2253 4666 
L 3047 4666 
L 3047 1625 
L 3713 1625 
L 3713 1100 
L 3047 1100 
L 3047 0 
L 2419 0 
L 2419 1100 
L 313 1100 
L 313 1709 
L 2253 4666 
z
" transform="scale(0.015625)"/>
       </defs>
       <use xlink:href="#DejaVuSans-34"/>
      </g>
     </g>
    </g>
    <g id="xtick_6">
     <g id="line2d_20">
      <path d="M 274.176 298.944 
L 274.176 27.648 
" clip-path="url(#p80869f4574)" style="fill: none; stroke: #b0b0b0; stroke-width: 0.8; stroke-linecap: square"/>
     </g>
     <g id="line2d_21">
      <g>
       <use xlink:href="#m689b322cd9" x="274.176" y="298.944" style="stroke: #000000; stroke-width: 0.8"/>
      </g>
     </g>
     <g id="line2d_22">
      <g>
       <use xlink:href="#m006ff84200" x="274.176" y="27.648" style="stroke: #000000; stroke-width: 0.8"/>
      </g>
     </g>
     <g id="text_6">
      <!-- 5 -->
      <g transform="translate(269.086 318.1015) scale(0.16 -0.16)">
       <defs>
        <path id="DejaVuSans-35" d="M 691 4666 
L 3169 4666 
L 3169 4134 
L 1269 4134 
L 1269 2991 
Q 1406 3038 1543 3061 
Q 1681 3084 1819 3084 
Q 2600 3084 3056 2656 
Q 3513 2228 3513 1497 
Q 3513 744 3044 326 
Q 2575 -91 1722 -91 
Q 1428 -91 1123 -41 
Q 819 9 494 109 
L 494 744 
Q 775 591 1075 516 
Q 1375 441 1709 441 
Q 2250 441 2565 725 
Q 2881 1009 2881 1497 
Q 2881 1984 2565 2268 
Q 2250 2553 1709 2553 
Q 1456 2553 1204 2497 
Q 953 2441 691 2322 
L 691 4666 
z
" transform="scale(0.015625)"/>
       </defs>
       <use xlink:href="#DejaVuSans-35"/>
      </g>
     </g>
    </g>
    <g id="xtick_7">
     <g id="line2d_23">
      <path d="M 317.4912 298.944 
L 317.4912 27.648 
" clip-path="url(#p80869f4574)" style="fill: none; stroke: #b0b0b0; stroke-width: 0.8; stroke-linecap: square"/>
     </g>
     <g id="line2d_24">
      <g>
       <use xlink:href="#m689b322cd9" x="317.4912" y="298.944" style="stroke: #000000; stroke-width: 0.8"/>
      </g>
     </g>
     <g id="line2d_25">
      <g>
       <use xlink:href="#m006ff84200" x="317.4912" y="27.648" style="stroke: #000000; stroke-width: 0.8"/>
      </g>
     </g>
     <g id="text_7">
      <!-- 6 -->
      <g transform="translate(312.4012 318.1015) scale(0.16 -0.16)">
       <defs>
        <path id="DejaVuSans-36" d="M 2113 2584 
Q 1688 2584 1439 2293 
Q 1191 2003 1191 1497 
Q 1191 994 1439 701 
Q 1688 409 2113 409 
Q 2538 409 2786 701 
Q 3034 994 3034 1497 
Q 3034 2003 2786 2293 
Q 2538 2584 2113 2584 
z
M 3366 4563 
L 3366 3988 
Q 3128 4100 2886 4159 
Q 2644 4219 2406 4219 
Q 1781 4219 1451 3797 
Q 1122 3375 1075 2522 
Q 1259 2794 1537 2939 
Q 1816 3084 2150 3084 
Q 2853 3084 3261 2657 
Q 3669 2231 3669 1497 
Q 3669 778 3244 343 
Q 2819 -91 2113 -91 
Q 1303 -91 875 529 
Q 447 1150 447 2328 
Q 447 3434 972 4092 
Q 1497 4750 2381 4750 
Q 2619 4750 2861 4703 
Q 3103 4656 3366 4563 
z
" transform="scale(0.015625)"/>
       </defs>
       <use xlink:href="#DejaVuSans-36"/>
      </g>
     </g>
    </g>
    <g id="xtick_8">
     <g id="line2d_26">
      <path d="M 360.8064 298.944 
L 360.8064 27.648 
" clip-path="url(#p80869f4574)" style="fill: none; stroke: #b0b0b0; stroke-width: 0.8; stroke-linecap: square"/>
     </g>
     <g id="line2d_27">
      <g>
       <use xlink:href="#m689b322cd9" x="360.8064" y="298.944" style="stroke: #000000; stroke-width: 0.8"/>
      </g>
     </g>
     <g id="line2d_28">
      <g>
       <use xlink:href="#m006ff84200" x="360.8064" y="27.648" style="stroke: #000000; stroke-width: 0.8"/>
      </g>
     </g>
     <g id="text_8">
      <!-- 7 -->
      <g transform="translate(355.7164 318.1015) scale(0.16 -0.16)">
       <defs>
        <path id="DejaVuSans-37" d="M 525 4666 
L 3525 4666 
L 3525 4397 
L 1831 0 
L 1172 0 
L 2766 4134 
L 525 4134 
L 525 4666 
z
" transform="scale(0.015625)"/>
       </defs>
       <use xlink:href="#DejaVuSans-37"/>
      </g>
     </g>
    </g>
    <g id="xtick_9">
     <g id="line2d_29">
      <defs>
       <path id="m7115b988c6" d="M 0 0 
L 0 2 
" style="stroke: #000000; stroke-width: 0.6"/>
      </defs>
      <g>
       <use xlink:href="#m7115b988c6" x="70.639174" y="298.944" style="stroke: #000000; stroke-width: 0.6"/>
      </g>
     </g>
     <g id="line2d_30">
      <defs>
       <path id="m387b342141" d="M 0 0 
L 0 -2 
" style="stroke: #000000; stroke-width: 0.6"/>
      </defs>
      <g>
       <use xlink:href="#m387b342141" x="70.639174" y="27.648" style="stroke: #000000; stroke-width: 0.6"/>
      </g>
     </g>
    </g>
    <g id="xtick_10">
     <g id="line2d_31">
      <g>
       <use xlink:href="#m7115b988c6" x="78.266603" y="298.944" style="stroke: #000000; stroke-width: 0.6"/>
      </g>
     </g>
     <g id="line2d_32">
      <g>
       <use xlink:href="#m387b342141" x="78.266603" y="27.648" style="stroke: #000000; stroke-width: 0.6"/>
      </g>
     </g>
    </g>
    <g id="xtick_11">
     <g id="line2d_33">
      <g>
       <use xlink:href="#m7115b988c6" x="83.678349" y="298.944" style="stroke: #000000; stroke-width: 0.6"/>
      </g>
     </g>
     <g id="line2d_34">
      <g>
       <use xlink:href="#m387b342141" x="83.678349" y="27.648" style="stroke: #000000; stroke-width: 0.6"/>
      </g>
     </g>
    </g>
    <g id="xtick_12">
     <g id="line2d_35">
      <g>
       <use xlink:href="#m7115b988c6" x="87.876026" y="298.944" style="stroke: #000000; stroke-width: 0.6"/>
      </g>
     </g>
     <g id="line2d_36">
      <g>
       <use xlink:href="#m387b342141" x="87.876026" y="27.648" style="stroke: #000000; stroke-width: 0.6"/>
      </g>
     </g>
    </g>
    <g id="xtick_13">
     <g id="line2d_37">
      <g>
       <use xlink:href="#m7115b988c6" x="91.305777" y="298.944" style="stroke: #000000; stroke-width: 0.6"/>
      </g>
     </g>
     <g id="line2d_38">
      <g>
       <use xlink:href="#m387b342141" x="91.305777" y="27.648" style="stroke: #000000; stroke-width: 0.6"/>
      </g>
     </g>
    </g>
    <g id="xtick_14">
     <g id="line2d_39">
      <g>
       <use xlink:href="#m7115b988c6" x="94.205591" y="298.944" style="stroke: #000000; stroke-width: 0.6"/>
      </g>
     </g>
     <g id="line2d_40">
      <g>
       <use xlink:href="#m387b342141" x="94.205591" y="27.648" style="stroke: #000000; stroke-width: 0.6"/>
      </g>
     </g>
    </g>
    <g id="xtick_15">
     <g id="line2d_41">
      <g>
       <use xlink:href="#m7115b988c6" x="96.717523" y="298.944" style="stroke: #000000; stroke-width: 0.6"/>
      </g>
     </g>
     <g id="line2d_42">
      <g>
       <use xlink:href="#m387b342141" x="96.717523" y="27.648" style="stroke: #000000; stroke-width: 0.6"/>
      </g>
     </g>
    </g>
    <g id="xtick_16">
     <g id="line2d_43">
      <g>
       <use xlink:href="#m7115b988c6" x="98.933205" y="298.944" style="stroke: #000000; stroke-width: 0.6"/>
      </g>
     </g>
     <g id="line2d_44">
      <g>
       <use xlink:href="#m387b342141" x="98.933205" y="27.648" style="stroke: #000000; stroke-width: 0.6"/>
      </g>
     </g>
    </g>
    <g id="xtick_17">
     <g id="line2d_45">
      <g>
       <use xlink:href="#m7115b988c6" x="113.954374" y="298.944" style="stroke: #000000; stroke-width: 0.6"/>
      </g>
     </g>
     <g id="line2d_46">
      <g>
       <use xlink:href="#m387b342141" x="113.954374" y="27.648" style="stroke: #000000; stroke-width: 0.6"/>
      </g>
     </g>
    </g>
    <g id="xtick_18">
     <g id="line2d_47">
      <g>
       <use xlink:href="#m7115b988c6" x="121.581803" y="298.944" style="stroke: #000000; stroke-width: 0.6"/>
      </g>
     </g>
     <g id="line2d_48">
      <g>
       <use xlink:href="#m387b342141" x="121.581803" y="27.648" style="stroke: #000000; stroke-width: 0.6"/>
      </g>
     </g>
    </g>
    <g id="xtick_19">
     <g id="line2d_49">
      <g>
       <use xlink:href="#m7115b988c6" x="126.993549" y="298.944" style="stroke: #000000; stroke-width: 0.6"/>
      </g>
     </g>
     <g id="line2d_50">
      <g>
       <use xlink:href="#m387b342141" x="126.993549" y="27.648" style="stroke: #000000; stroke-width: 0.6"/>
      </g>
     </g>
    </g>
    <g id="xtick_20">
     <g id="line2d_51">
      <g>
       <use xlink:href="#m7115b988c6" x="131.191226" y="298.944" style="stroke: #000000; stroke-width: 0.6"/>
      </g>
     </g>
     <g id="line2d_52">
      <g>
       <use xlink:href="#m387b342141" x="131.191226" y="27.648" style="stroke: #000000; stroke-width: 0.6"/>
      </g>
     </g>
    </g>
    <g id="xtick_21">
     <g id="line2d_53">
      <g>
       <use xlink:href="#m7115b988c6" x="134.620977" y="298.944" style="stroke: #000000; stroke-width: 0.6"/>
      </g>
     </g>
     <g id="line2d_54">
      <g>
       <use xlink:href="#m387b342141" x="134.620977" y="27.648" style="stroke: #000000; stroke-width: 0.6"/>
      </g>
     </g>
    </g>
    <g id="xtick_22">
     <g id="line2d_55">
      <g>
       <use xlink:href="#m7115b988c6" x="137.520791" y="298.944" style="stroke: #000000; stroke-width: 0.6"/>
      </g>
     </g>
     <g id="line2d_56">
      <g>
       <use xlink:href="#m387b342141" x="137.520791" y="27.648" style="stroke: #000000; stroke-width: 0.6"/>
      </g>
     </g>
    </g>
    <g id="xtick_23">
     <g id="line2d_57">
      <g>
       <use xlink:href="#m7115b988c6" x="140.032723" y="298.944" style="stroke: #000000; stroke-width: 0.6"/>
      </g>
     </g>
     <g id="line2d_58">
      <g>
       <use xlink:href="#m387b342141" x="140.032723" y="27.648" style="stroke: #000000; stroke-width: 0.6"/>
      </g>
     </g>
    </g>
    <g id="xtick_24">
     <g id="line2d_59">
      <g>
       <use xlink:href="#m7115b988c6" x="142.248405" y="298.944" style="stroke: #000000; stroke-width: 0.6"/>
      </g>
     </g>
     <g id="line2d_60">
      <g>
       <use xlink:href="#m387b342141" x="142.248405" y="27.648" style="stroke: #000000; stroke-width: 0.6"/>
      </g>
     </g>
    </g>
    <g id="xtick_25">
     <g id="line2d_61">
      <g>
       <use xlink:href="#m7115b988c6" x="157.269574" y="298.944" style="stroke: #000000; stroke-width: 0.6"/>
      </g>
     </g>
     <g id="line2d_62">
      <g>
       <use xlink:href="#m387b342141" x="157.269574" y="27.648" style="stroke: #000000; stroke-width: 0.6"/>
      </g>
     </g>
    </g>
    <g id="xtick_26">
     <g id="line2d_63">
      <g>
       <use xlink:href="#m7115b988c6" x="164.897003" y="298.944" style="stroke: #000000; stroke-width: 0.6"/>
      </g>
     </g>
     <g id="line2d_64">
      <g>
       <use xlink:href="#m387b342141" x="164.897003" y="27.648" style="stroke: #000000; stroke-width: 0.6"/>
      </g>
     </g>
    </g>
    <g id="xtick_27">
     <g id="line2d_65">
      <g>
       <use xlink:href="#m7115b988c6" x="170.308749" y="298.944" style="stroke: #000000; stroke-width: 0.6"/>
      </g>
     </g>
     <g id="line2d_66">
      <g>
       <use xlink:href="#m387b342141" x="170.308749" y="27.648" style="stroke: #000000; stroke-width: 0.6"/>
      </g>
     </g>
    </g>
    <g id="xtick_28">
     <g id="line2d_67">
      <g>
       <use xlink:href="#m7115b988c6" x="174.506426" y="298.944" style="stroke: #000000; stroke-width: 0.6"/>
      </g>
     </g>
     <g id="line2d_68">
      <g>
       <use xlink:href="#m387b342141" x="174.506426" y="27.648" style="stroke: #000000; stroke-width: 0.6"/>
      </g>
     </g>
    </g>
    <g id="xtick_29">
     <g id="line2d_69">
      <g>
       <use xlink:href="#m7115b988c6" x="177.936177" y="298.944" style="stroke: #000000; stroke-width: 0.6"/>
      </g>
     </g>
     <g id="line2d_70">
      <g>
       <use xlink:href="#m387b342141" x="177.936177" y="27.648" style="stroke: #000000; stroke-width: 0.6"/>
      </g>
     </g>
    </g>
    <g id="xtick_30">
     <g id="line2d_71">
      <g>
       <use xlink:href="#m7115b988c6" x="180.835991" y="298.944" style="stroke: #000000; stroke-width: 0.6"/>
      </g>
     </g>
     <g id="line2d_72">
      <g>
       <use xlink:href="#m387b342141" x="180.835991" y="27.648" style="stroke: #000000; stroke-width: 0.6"/>
      </g>
     </g>
    </g>
    <g id="xtick_31">
     <g id="line2d_73">
      <g>
       <use xlink:href="#m7115b988c6" x="183.347923" y="298.944" style="stroke: #000000; stroke-width: 0.6"/>
      </g>
     </g>
     <g id="line2d_74">
      <g>
       <use xlink:href="#m387b342141" x="183.347923" y="27.648" style="stroke: #000000; stroke-width: 0.6"/>
      </g>
     </g>
    </g>
    <g id="xtick_32">
     <g id="line2d_75">
      <g>
       <use xlink:href="#m7115b988c6" x="185.563605" y="298.944" style="stroke: #000000; stroke-width: 0.6"/>
      </g>
     </g>
     <g id="line2d_76">
      <g>
       <use xlink:href="#m387b342141" x="185.563605" y="27.648" style="stroke: #000000; stroke-width: 0.6"/>
      </g>
     </g>
    </g>
    <g id="xtick_33">
     <g id="line2d_77">
      <g>
       <use xlink:href="#m7115b988c6" x="200.584774" y="298.944" style="stroke: #000000; stroke-width: 0.6"/>
      </g>
     </g>
     <g id="line2d_78">
      <g>
       <use xlink:href="#m387b342141" x="200.584774" y="27.648" style="stroke: #000000; stroke-width: 0.6"/>
      </g>
     </g>
    </g>
    <g id="xtick_34">
     <g id="line2d_79">
      <g>
       <use xlink:href="#m7115b988c6" x="208.212203" y="298.944" style="stroke: #000000; stroke-width: 0.6"/>
      </g>
     </g>
     <g id="line2d_80">
      <g>
       <use xlink:href="#m387b342141" x="208.212203" y="27.648" style="stroke: #000000; stroke-width: 0.6"/>
      </g>
     </g>
    </g>
    <g id="xtick_35">
     <g id="line2d_81">
      <g>
       <use xlink:href="#m7115b988c6" x="213.623949" y="298.944" style="stroke: #000000; stroke-width: 0.6"/>
      </g>
     </g>
     <g id="line2d_82">
      <g>
       <use xlink:href="#m387b342141" x="213.623949" y="27.648" style="stroke: #000000; stroke-width: 0.6"/>
      </g>
     </g>
    </g>
    <g id="xtick_36">
     <g id="line2d_83">
      <g>
       <use xlink:href="#m7115b988c6" x="217.821626" y="298.944" style="stroke: #000000; stroke-width: 0.6"/>
      </g>
     </g>
     <g id="line2d_84">
      <g>
       <use xlink:href="#m387b342141" x="217.821626" y="27.648" style="stroke: #000000; stroke-width: 0.6"/>
      </g>
     </g>
    </g>
    <g id="xtick_37">
     <g id="line2d_85">
      <g>
       <use xlink:href="#m7115b988c6" x="221.251377" y="298.944" style="stroke: #000000; stroke-width: 0.6"/>
      </g>
     </g>
     <g id="line2d_86">
      <g>
       <use xlink:href="#m387b342141" x="221.251377" y="27.648" style="stroke: #000000; stroke-width: 0.6"/>
      </g>
     </g>
    </g>
    <g id="xtick_38">
     <g id="line2d_87">
      <g>
       <use xlink:href="#m7115b988c6" x="224.151191" y="298.944" style="stroke: #000000; stroke-width: 0.6"/>
      </g>
     </g>
     <g id="line2d_88">
      <g>
       <use xlink:href="#m387b342141" x="224.151191" y="27.648" style="stroke: #000000; stroke-width: 0.6"/>
      </g>
     </g>
    </g>
    <g id="xtick_39">
     <g id="line2d_89">
      <g>
       <use xlink:href="#m7115b988c6" x="226.663123" y="298.944" style="stroke: #000000; stroke-width: 0.6"/>
      </g>
     </g>
     <g id="line2d_90">
      <g>
       <use xlink:href="#m387b342141" x="226.663123" y="27.648" style="stroke: #000000; stroke-width: 0.6"/>
      </g>
     </g>
    </g>
    <g id="xtick_40">
     <g id="line2d_91">
      <g>
       <use xlink:href="#m7115b988c6" x="228.878805" y="298.944" style="stroke: #000000; stroke-width: 0.6"/>
      </g>
     </g>
     <g id="line2d_92">
      <g>
       <use xlink:href="#m387b342141" x="228.878805" y="27.648" style="stroke: #000000; stroke-width: 0.6"/>
      </g>
     </g>
    </g>
    <g id="xtick_41">
     <g id="line2d_93">
      <g>
       <use xlink:href="#m7115b988c6" x="243.899974" y="298.944" style="stroke: #000000; stroke-width: 0.6"/>
      </g>
     </g>
     <g id="line2d_94">
      <g>
       <use xlink:href="#m387b342141" x="243.899974" y="27.648" style="stroke: #000000; stroke-width: 0.6"/>
      </g>
     </g>
    </g>
    <g id="xtick_42">
     <g id="line2d_95">
      <g>
       <use xlink:href="#m7115b988c6" x="251.527403" y="298.944" style="stroke: #000000; stroke-width: 0.6"/>
      </g>
     </g>
     <g id="line2d_96">
      <g>
       <use xlink:href="#m387b342141" x="251.527403" y="27.648" style="stroke: #000000; stroke-width: 0.6"/>
      </g>
     </g>
    </g>
    <g id="xtick_43">
     <g id="line2d_97">
      <g>
       <use xlink:href="#m7115b988c6" x="256.939149" y="298.944" style="stroke: #000000; stroke-width: 0.6"/>
      </g>
     </g>
     <g id="line2d_98">
      <g>
       <use xlink:href="#m387b342141" x="256.939149" y="27.648" style="stroke: #000000; stroke-width: 0.6"/>
      </g>
     </g>
    </g>
    <g id="xtick_44">
     <g id="line2d_99">
      <g>
       <use xlink:href="#m7115b988c6" x="261.136826" y="298.944" style="stroke: #000000; stroke-width: 0.6"/>
      </g>
     </g>
     <g id="line2d_100">
      <g>
       <use xlink:href="#m387b342141" x="261.136826" y="27.648" style="stroke: #000000; stroke-width: 0.6"/>
      </g>
     </g>
    </g>
    <g id="xtick_45">
     <g id="line2d_101">
      <g>
       <use xlink:href="#m7115b988c6" x="264.566577" y="298.944" style="stroke: #000000; stroke-width: 0.6"/>
      </g>
     </g>
     <g id="line2d_102">
      <g>
       <use xlink:href="#m387b342141" x="264.566577" y="27.648" style="stroke: #000000; stroke-width: 0.6"/>
      </g>
     </g>
    </g>
    <g id="xtick_46">
     <g id="line2d_103">
      <g>
       <use xlink:href="#m7115b988c6" x="267.466391" y="298.944" style="stroke: #000000; stroke-width: 0.6"/>
      </g>
     </g>
     <g id="line2d_104">
      <g>
       <use xlink:href="#m387b342141" x="267.466391" y="27.648" style="stroke: #000000; stroke-width: 0.6"/>
      </g>
     </g>
    </g>
    <g id="xtick_47">
     <g id="line2d_105">
      <g>
       <use xlink:href="#m7115b988c6" x="269.978323" y="298.944" style="stroke: #000000; stroke-width: 0.6"/>
      </g>
     </g>
     <g id="line2d_106">
      <g>
       <use xlink:href="#m387b342141" x="269.978323" y="27.648" style="stroke: #000000; stroke-width: 0.6"/>
      </g>
     </g>
    </g>
    <g id="xtick_48">
     <g id="line2d_107">
      <g>
       <use xlink:href="#m7115b988c6" x="272.194005" y="298.944" style="stroke: #000000; stroke-width: 0.6"/>
      </g>
     </g>
     <g id="line2d_108">
      <g>
       <use xlink:href="#m387b342141" x="272.194005" y="27.648" style="stroke: #000000; stroke-width: 0.6"/>
      </g>
     </g>
    </g>
    <g id="xtick_49">
     <g id="line2d_109">
      <g>
       <use xlink:href="#m7115b988c6" x="287.215174" y="298.944" style="stroke: #000000; stroke-width: 0.6"/>
      </g>
     </g>
     <g id="line2d_110">
      <g>
       <use xlink:href="#m387b342141" x="287.215174" y="27.648" style="stroke: #000000; stroke-width: 0.6"/>
      </g>
     </g>
    </g>
    <g id="xtick_50">
     <g id="line2d_111">
      <g>
       <use xlink:href="#m7115b988c6" x="294.842603" y="298.944" style="stroke: #000000; stroke-width: 0.6"/>
      </g>
     </g>
     <g id="line2d_112">
      <g>
       <use xlink:href="#m387b342141" x="294.842603" y="27.648" style="stroke: #000000; stroke-width: 0.6"/>
      </g>
     </g>
    </g>
    <g id="xtick_51">
     <g id="line2d_113">
      <g>
       <use xlink:href="#m7115b988c6" x="300.254349" y="298.944" style="stroke: #000000; stroke-width: 0.6"/>
      </g>
     </g>
     <g id="line2d_114">
      <g>
       <use xlink:href="#m387b342141" x="300.254349" y="27.648" style="stroke: #000000; stroke-width: 0.6"/>
      </g>
     </g>
    </g>
    <g id="xtick_52">
     <g id="line2d_115">
      <g>
       <use xlink:href="#m7115b988c6" x="304.452026" y="298.944" style="stroke: #000000; stroke-width: 0.6"/>
      </g>
     </g>
     <g id="line2d_116">
      <g>
       <use xlink:href="#m387b342141" x="304.452026" y="27.648" style="stroke: #000000; stroke-width: 0.6"/>
      </g>
     </g>
    </g>
    <g id="xtick_53">
     <g id="line2d_117">
      <g>
       <use xlink:href="#m7115b988c6" x="307.881777" y="298.944" style="stroke: #000000; stroke-width: 0.6"/>
      </g>
     </g>
     <g id="line2d_118">
      <g>
       <use xlink:href="#m387b342141" x="307.881777" y="27.648" style="stroke: #000000; stroke-width: 0.6"/>
      </g>
     </g>
    </g>
    <g id="xtick_54">
     <g id="line2d_119">
      <g>
       <use xlink:href="#m7115b988c6" x="310.781591" y="298.944" style="stroke: #000000; stroke-width: 0.6"/>
      </g>
     </g>
     <g id="line2d_120">
      <g>
       <use xlink:href="#m387b342141" x="310.781591" y="27.648" style="stroke: #000000; stroke-width: 0.6"/>
      </g>
     </g>
    </g>
    <g id="xtick_55">
     <g id="line2d_121">
      <g>
       <use xlink:href="#m7115b988c6" x="313.293523" y="298.944" style="stroke: #000000; stroke-width: 0.6"/>
      </g>
     </g>
     <g id="line2d_122">
      <g>
       <use xlink:href="#m387b342141" x="313.293523" y="27.648" style="stroke: #000000; stroke-width: 0.6"/>
      </g>
     </g>
    </g>
    <g id="xtick_56">
     <g id="line2d_123">
      <g>
       <use xlink:href="#m7115b988c6" x="315.509205" y="298.944" style="stroke: #000000; stroke-width: 0.6"/>
      </g>
     </g>
     <g id="line2d_124">
      <g>
       <use xlink:href="#m387b342141" x="315.509205" y="27.648" style="stroke: #000000; stroke-width: 0.6"/>
      </g>
     </g>
    </g>
    <g id="xtick_57">
     <g id="line2d_125">
      <g>
       <use xlink:href="#m7115b988c6" x="330.530374" y="298.944" style="stroke: #000000; stroke-width: 0.6"/>
      </g>
     </g>
     <g id="line2d_126">
      <g>
       <use xlink:href="#m387b342141" x="330.530374" y="27.648" style="stroke: #000000; stroke-width: 0.6"/>
      </g>
     </g>
    </g>
    <g id="xtick_58">
     <g id="line2d_127">
      <g>
       <use xlink:href="#m7115b988c6" x="338.157803" y="298.944" style="stroke: #000000; stroke-width: 0.6"/>
      </g>
     </g>
     <g id="line2d_128">
      <g>
       <use xlink:href="#m387b342141" x="338.157803" y="27.648" style="stroke: #000000; stroke-width: 0.6"/>
      </g>
     </g>
    </g>
    <g id="xtick_59">
     <g id="line2d_129">
      <g>
       <use xlink:href="#m7115b988c6" x="343.569549" y="298.944" style="stroke: #000000; stroke-width: 0.6"/>
      </g>
     </g>
     <g id="line2d_130">
      <g>
       <use xlink:href="#m387b342141" x="343.569549" y="27.648" style="stroke: #000000; stroke-width: 0.6"/>
      </g>
     </g>
    </g>
    <g id="xtick_60">
     <g id="line2d_131">
      <g>
       <use xlink:href="#m7115b988c6" x="347.767226" y="298.944" style="stroke: #000000; stroke-width: 0.6"/>
      </g>
     </g>
     <g id="line2d_132">
      <g>
       <use xlink:href="#m387b342141" x="347.767226" y="27.648" style="stroke: #000000; stroke-width: 0.6"/>
      </g>
     </g>
    </g>
    <g id="xtick_61">
     <g id="line2d_133">
      <g>
       <use xlink:href="#m7115b988c6" x="351.196977" y="298.944" style="stroke: #000000; stroke-width: 0.6"/>
      </g>
     </g>
     <g id="line2d_134">
      <g>
       <use xlink:href="#m387b342141" x="351.196977" y="27.648" style="stroke: #000000; stroke-width: 0.6"/>
      </g>
     </g>
    </g>
    <g id="xtick_62">
     <g id="line2d_135">
      <g>
       <use xlink:href="#m7115b988c6" x="354.096791" y="298.944" style="stroke: #000000; stroke-width: 0.6"/>
      </g>
     </g>
     <g id="line2d_136">
      <g>
       <use xlink:href="#m387b342141" x="354.096791" y="27.648" style="stroke: #000000; stroke-width: 0.6"/>
      </g>
     </g>
    </g>
    <g id="xtick_63">
     <g id="line2d_137">
      <g>
       <use xlink:href="#m7115b988c6" x="356.608723" y="298.944" style="stroke: #000000; stroke-width: 0.6"/>
      </g>
     </g>
     <g id="line2d_138">
      <g>
       <use xlink:href="#m387b342141" x="356.608723" y="27.648" style="stroke: #000000; stroke-width: 0.6"/>
      </g>
     </g>
    </g>
    <g id="xtick_64">
     <g id="line2d_139">
      <g>
       <use xlink:href="#m7115b988c6" x="358.824405" y="298.944" style="stroke: #000000; stroke-width: 0.6"/>
      </g>
     </g>
     <g id="line2d_140">
      <g>
       <use xlink:href="#m387b342141" x="358.824405" y="27.648" style="stroke: #000000; stroke-width: 0.6"/>
      </g>
     </g>
    </g>
    <g id="text_9">
     <!-- log10(# f-evals / dimension) -->
     <g transform="translate(102.985622 336.826656) scale(0.15 -0.15)">
      <defs>
       <path id="DejaVuSans-6c" d="M 603 4863 
L 1178 4863 
L 1178 0 
L 603 0 
L 603 4863 
z
" transform="scale(0.015625)"/>
       <path id="DejaVuSans-6f" d="M 1959 3097 
Q 1497 3097 1228 2736 
Q 959 2375 959 1747 
Q 959 1119 1226 758 
Q 1494 397 1959 397 
Q 2419 397 2687 759 
Q 2956 1122 2956 1747 
Q 2956 2369 2687 2733 
Q 2419 3097 1959 3097 
z
M 1959 3584 
Q 2709 3584 3137 3096 
Q 3566 2609 3566 1747 
Q 3566 888 3137 398 
Q 2709 -91 1959 -91 
Q 1206 -91 779 398 
Q 353 888 353 1747 
Q 353 2609 779 3096 
Q 1206 3584 1959 3584 
z
" transform="scale(0.015625)"/>
       <path id="DejaVuSans-67" d="M 2906 1791 
Q 2906 2416 2648 2759 
Q 2391 3103 1925 3103 
Q 1463 3103 1205 2759 
Q 947 2416 947 1791 
Q 947 1169 1205 825 
Q 1463 481 1925 481 
Q 2391 481 2648 825 
Q 2906 1169 2906 1791 
z
M 3481 434 
Q 3481 -459 3084 -895 
Q 2688 -1331 1869 -1331 
Q 1566 -1331 1297 -1286 
Q 1028 -1241 775 -1147 
L 775 -588 
Q 1028 -725 1275 -790 
Q 1522 -856 1778 -856 
Q 2344 -856 2625 -561 
Q 2906 -266 2906 331 
L 2906 616 
Q 2728 306 2450 153 
Q 2172 0 1784 0 
Q 1141 0 747 490 
Q 353 981 353 1791 
Q 353 2603 747 3093 
Q 1141 3584 1784 3584 
Q 2172 3584 2450 3431 
Q 2728 3278 2906 2969 
L 2906 3500 
L 3481 3500 
L 3481 434 
z
" transform="scale(0.015625)"/>
       <path id="DejaVuSans-28" d="M 1984 4856 
Q 1566 4138 1362 3434 
Q 1159 2731 1159 2009 
Q 1159 1288 1364 580 
Q 1569 -128 1984 -844 
L 1484 -844 
Q 1016 -109 783 600 
Q 550 1309 550 2009 
Q 550 2706 781 3412 
Q 1013 4119 1484 4856 
L 1984 4856 
z
" transform="scale(0.015625)"/>
       <path id="DejaVuSans-23" d="M 3272 2816 
L 2363 2816 
L 2100 1772 
L 3016 1772 
L 3272 2816 
z
M 2803 4594 
L 2478 3297 
L 3391 3297 
L 3719 4594 
L 4219 4594 
L 3897 3297 
L 4872 3297 
L 4872 2816 
L 3775 2816 
L 3519 1772 
L 4513 1772 
L 4513 1294 
L 3397 1294 
L 3072 0 
L 2572 0 
L 2894 1294 
L 1978 1294 
L 1656 0 
L 1153 0 
L 1478 1294 
L 494 1294 
L 494 1772 
L 1594 1772 
L 1856 2816 
L 850 2816 
L 850 3297 
L 1978 3297 
L 2297 4594 
L 2803 4594 
z
" transform="scale(0.015625)"/>
       <path id="DejaVuSans-20" transform="scale(0.015625)"/>
       <path id="DejaVuSans-66" d="M 2375 4863 
L 2375 4384 
L 1825 4384 
Q 1516 4384 1395 4259 
Q 1275 4134 1275 3809 
L 1275 3500 
L 2222 3500 
L 2222 3053 
L 1275 3053 
L 1275 0 
L 697 0 
L 697 3053 
L 147 3053 
L 147 3500 
L 697 3500 
L 697 3744 
Q 697 4328 969 4595 
Q 1241 4863 1831 4863 
L 2375 4863 
z
" transform="scale(0.015625)"/>
       <path id="DejaVuSans-2d" d="M 313 2009 
L 1997 2009 
L 1997 1497 
L 313 1497 
L 313 2009 
z
" transform="scale(0.015625)"/>
       <path id="DejaVuSans-65" d="M 3597 1894 
L 3597 1613 
L 953 1613 
Q 991 1019 1311 708 
Q 1631 397 2203 397 
Q 2534 397 2845 478 
Q 3156 559 3463 722 
L 3463 178 
Q 3153 47 2828 -22 
Q 2503 -91 2169 -91 
Q 1331 -91 842 396 
Q 353 884 353 1716 
Q 353 2575 817 3079 
Q 1281 3584 2069 3584 
Q 2775 3584 3186 3129 
Q 3597 2675 3597 1894 
z
M 3022 2063 
Q 3016 2534 2758 2815 
Q 2500 3097 2075 3097 
Q 1594 3097 1305 2825 
Q 1016 2553 972 2059 
L 3022 2063 
z
" transform="scale(0.015625)"/>
       <path id="DejaVuSans-76" d="M 191 3500 
L 800 3500 
L 1894 563 
L 2988 3500 
L 3597 3500 
L 2284 0 
L 1503 0 
L 191 3500 
z
" transform="scale(0.015625)"/>
       <path id="DejaVuSans-61" d="M 2194 1759 
Q 1497 1759 1228 1600 
Q 959 1441 959 1056 
Q 959 750 1161 570 
Q 1363 391 1709 391 
Q 2188 391 2477 730 
Q 2766 1069 2766 1631 
L 2766 1759 
L 2194 1759 
z
M 3341 1997 
L 3341 0 
L 2766 0 
L 2766 531 
Q 2569 213 2275 61 
Q 1981 -91 1556 -91 
Q 1019 -91 701 211 
Q 384 513 384 1019 
Q 384 1609 779 1909 
Q 1175 2209 1959 2209 
L 2766 2209 
L 2766 2266 
Q 2766 2663 2505 2880 
Q 2244 3097 1772 3097 
Q 1472 3097 1187 3025 
Q 903 2953 641 2809 
L 641 3341 
Q 956 3463 1253 3523 
Q 1550 3584 1831 3584 
Q 2591 3584 2966 3190 
Q 3341 2797 3341 1997 
z
" transform="scale(0.015625)"/>
       <path id="DejaVuSans-73" d="M 2834 3397 
L 2834 2853 
Q 2591 2978 2328 3040 
Q 2066 3103 1784 3103 
Q 1356 3103 1142 2972 
Q 928 2841 928 2578 
Q 928 2378 1081 2264 
Q 1234 2150 1697 2047 
L 1894 2003 
Q 2506 1872 2764 1633 
Q 3022 1394 3022 966 
Q 3022 478 2636 193 
Q 2250 -91 1575 -91 
Q 1294 -91 989 -36 
Q 684 19 347 128 
L 347 722 
Q 666 556 975 473 
Q 1284 391 1588 391 
Q 1994 391 2212 530 
Q 2431 669 2431 922 
Q 2431 1156 2273 1281 
Q 2116 1406 1581 1522 
L 1381 1569 
Q 847 1681 609 1914 
Q 372 2147 372 2553 
Q 372 3047 722 3315 
Q 1072 3584 1716 3584 
Q 2034 3584 2315 3537 
Q 2597 3491 2834 3397 
z
" transform="scale(0.015625)"/>
       <path id="DejaVuSans-2f" d="M 1625 4666 
L 2156 4666 
L 531 -594 
L 0 -594 
L 1625 4666 
z
" transform="scale(0.015625)"/>
       <path id="DejaVuSans-64" d="M 2906 2969 
L 2906 4863 
L 3481 4863 
L 3481 0 
L 2906 0 
L 2906 525 
Q 2725 213 2448 61 
Q 2172 -91 1784 -91 
Q 1150 -91 751 415 
Q 353 922 353 1747 
Q 353 2572 751 3078 
Q 1150 3584 1784 3584 
Q 2172 3584 2448 3432 
Q 2725 3281 2906 2969 
z
M 947 1747 
Q 947 1113 1208 752 
Q 1469 391 1925 391 
Q 2381 391 2643 752 
Q 2906 1113 2906 1747 
Q 2906 2381 2643 2742 
Q 2381 3103 1925 3103 
Q 1469 3103 1208 2742 
Q 947 2381 947 1747 
z
" transform="scale(0.015625)"/>
       <path id="DejaVuSans-69" d="M 603 3500 
L 1178 3500 
L 1178 0 
L 603 0 
L 603 3500 
z
M 603 4863 
L 1178 4863 
L 1178 4134 
L 603 4134 
L 603 4863 
z
" transform="scale(0.015625)"/>
       <path id="DejaVuSans-6d" d="M 3328 2828 
Q 3544 3216 3844 3400 
Q 4144 3584 4550 3584 
Q 5097 3584 5394 3201 
Q 5691 2819 5691 2113 
L 5691 0 
L 5113 0 
L 5113 2094 
Q 5113 2597 4934 2840 
Q 4756 3084 4391 3084 
Q 3944 3084 3684 2787 
Q 3425 2491 3425 1978 
L 3425 0 
L 2847 0 
L 2847 2094 
Q 2847 2600 2669 2842 
Q 2491 3084 2119 3084 
Q 1678 3084 1418 2786 
Q 1159 2488 1159 1978 
L 1159 0 
L 581 0 
L 581 3500 
L 1159 3500 
L 1159 2956 
Q 1356 3278 1631 3431 
Q 1906 3584 2284 3584 
Q 2666 3584 2933 3390 
Q 3200 3197 3328 2828 
z
" transform="scale(0.015625)"/>
       <path id="DejaVuSans-6e" d="M 3513 2113 
L 3513 0 
L 2938 0 
L 2938 2094 
Q 2938 2591 2744 2837 
Q 2550 3084 2163 3084 
Q 1697 3084 1428 2787 
Q 1159 2491 1159 1978 
L 1159 0 
L 581 0 
L 581 3500 
L 1159 3500 
L 1159 2956 
Q 1366 3272 1645 3428 
Q 1925 3584 2291 3584 
Q 2894 3584 3203 3211 
Q 3513 2838 3513 2113 
z
" transform="scale(0.015625)"/>
       <path id="DejaVuSans-29" d="M 513 4856 
L 1013 4856 
Q 1481 4119 1714 3412 
Q 1947 2706 1947 2009 
Q 1947 1309 1714 600 
Q 1481 -109 1013 -844 
L 513 -844 
Q 928 -128 1133 580 
Q 1338 1288 1338 2009 
Q 1338 2731 1133 3434 
Q 928 4138 513 4856 
z
" transform="scale(0.015625)"/>
      </defs>
      <use xlink:href="#DejaVuSans-6c"/>
      <use xlink:href="#DejaVuSans-6f" x="27.783203"/>
      <use xlink:href="#DejaVuSans-67" x="88.964844"/>
      <use xlink:href="#DejaVuSans-31" x="152.441406"/>
      <use xlink:href="#DejaVuSans-30" x="216.064453"/>
      <use xlink:href="#DejaVuSans-28" x="279.6875"/>
      <use xlink:href="#DejaVuSans-23" x="318.701172"/>
      <use xlink:href="#DejaVuSans-20" x="402.490234"/>
      <use xlink:href="#DejaVuSans-66" x="434.277344"/>
      <use xlink:href="#DejaVuSans-2d" x="463.982422"/>
      <use xlink:href="#DejaVuSans-65" x="500.066406"/>
      <use xlink:href="#DejaVuSans-76" x="561.589844"/>
      <use xlink:href="#DejaVuSans-61" x="620.769531"/>
      <use xlink:href="#DejaVuSans-6c" x="682.048828"/>
      <use xlink:href="#DejaVuSans-73" x="709.832031"/>
      <use xlink:href="#DejaVuSans-20" x="761.931641"/>
      <use xlink:href="#DejaVuSans-2f" x="793.71875"/>
      <use xlink:href="#DejaVuSans-20" x="827.410156"/>
      <use xlink:href="#DejaVuSans-64" x="859.197266"/>
      <use xlink:href="#DejaVuSans-69" x="922.673828"/>
      <use xlink:href="#DejaVuSans-6d" x="950.457031"/>
      <use xlink:href="#DejaVuSans-65" x="1047.869141"/>
      <use xlink:href="#DejaVuSans-6e" x="1109.392578"/>
      <use xlink:href="#DejaVuSans-73" x="1172.771484"/>
      <use xlink:href="#DejaVuSans-69" x="1224.871094"/>
      <use xlink:href="#DejaVuSans-6f" x="1252.654297"/>
      <use xlink:href="#DejaVuSans-6e" x="1313.835938"/>
      <use xlink:href="#DejaVuSans-29" x="1377.214844"/>
     </g>
    </g>
   </g>
   <g id="matplotlib.axis_2">
    <g id="ytick_1">
     <g id="line2d_141">
      <path d="M 57.6 298.944 
L 360.8064 298.944 
" clip-path="url(#p80869f4574)" style="fill: none; stroke: #b0b0b0; stroke-width: 0.8; stroke-linecap: square"/>
     </g>
     <g id="line2d_142">
      <defs>
       <path id="m265d737ff8" d="M 0 0 
L -3.5 0 
" style="stroke: #000000; stroke-width: 0.8"/>
      </defs>
      <g>
       <use xlink:href="#m265d737ff8" x="57.6" y="298.944" style="stroke: #000000; stroke-width: 0.8"/>
      </g>
     </g>
     <g id="line2d_143">
      <defs>
       <path id="m53e60aae3b" d="M 0 0 
L 3.5 0 
" style="stroke: #000000; stroke-width: 0.8"/>
      </defs>
      <g>
       <use xlink:href="#m53e60aae3b" x="360.8064" y="298.944" style="stroke: #000000; stroke-width: 0.8"/>
      </g>
     </g>
     <g id="text_10">
      <!-- 0.0 -->
      <g transform="translate(28.335625 304.262906) scale(0.14 -0.14)">
       <defs>
        <path id="DejaVuSans-2e" d="M 684 794 
L 1344 794 
L 1344 0 
L 684 0 
L 684 794 
z
" transform="scale(0.015625)"/>
       </defs>
       <use xlink:href="#DejaVuSans-30"/>
       <use xlink:href="#DejaVuSans-2e" x="63.623047"/>
       <use xlink:href="#DejaVuSans-30" x="95.410156"/>
      </g>
     </g>
    </g>
    <g id="ytick_2">
     <g id="line2d_144">
      <path d="M 57.6 244.6848 
L 360.8064 244.6848 
" clip-path="url(#p80869f4574)" style="fill: none; stroke: #b0b0b0; stroke-width: 0.8; stroke-linecap: square"/>
     </g>
     <g id="line2d_145">
      <g>
       <use xlink:href="#m265d737ff8" x="57.6" y="244.6848" style="stroke: #000000; stroke-width: 0.8"/>
      </g>
     </g>
     <g id="line2d_146">
      <g>
       <use xlink:href="#m53e60aae3b" x="360.8064" y="244.6848" style="stroke: #000000; stroke-width: 0.8"/>
      </g>
     </g>
     <g id="text_11">
      <!-- 0.2 -->
      <g transform="translate(28.335625 250.003706) scale(0.14 -0.14)">
       <use xlink:href="#DejaVuSans-30"/>
       <use xlink:href="#DejaVuSans-2e" x="63.623047"/>
       <use xlink:href="#DejaVuSans-32" x="95.410156"/>
      </g>
     </g>
    </g>
    <g id="ytick_3">
     <g id="line2d_147">
      <path d="M 57.6 190.4256 
L 360.8064 190.4256 
" clip-path="url(#p80869f4574)" style="fill: none; stroke: #b0b0b0; stroke-width: 0.8; stroke-linecap: square"/>
     </g>
     <g id="line2d_148">
      <g>
       <use xlink:href="#m265d737ff8" x="57.6" y="190.4256" style="stroke: #000000; stroke-width: 0.8"/>
      </g>
     </g>
     <g id="line2d_149">
      <g>
       <use xlink:href="#m53e60aae3b" x="360.8064" y="190.4256" style="stroke: #000000; stroke-width: 0.8"/>
      </g>
     </g>
     <g id="text_12">
      <!-- 0.4 -->
      <g transform="translate(28.335625 195.744506) scale(0.14 -0.14)">
       <use xlink:href="#DejaVuSans-30"/>
       <use xlink:href="#DejaVuSans-2e" x="63.623047"/>
       <use xlink:href="#DejaVuSans-34" x="95.410156"/>
      </g>
     </g>
    </g>
    <g id="ytick_4">
     <g id="line2d_150">
      <path d="M 57.6 136.1664 
L 360.8064 136.1664 
" clip-path="url(#p80869f4574)" style="fill: none; stroke: #b0b0b0; stroke-width: 0.8; stroke-linecap: square"/>
     </g>
     <g id="line2d_151">
      <g>
       <use xlink:href="#m265d737ff8" x="57.6" y="136.1664" style="stroke: #000000; stroke-width: 0.8"/>
      </g>
     </g>
     <g id="line2d_152">
      <g>
       <use xlink:href="#m53e60aae3b" x="360.8064" y="136.1664" style="stroke: #000000; stroke-width: 0.8"/>
      </g>
     </g>
     <g id="text_13">
      <!-- 0.6 -->
      <g transform="translate(28.335625 141.485306) scale(0.14 -0.14)">
       <use xlink:href="#DejaVuSans-30"/>
       <use xlink:href="#DejaVuSans-2e" x="63.623047"/>
       <use xlink:href="#DejaVuSans-36" x="95.410156"/>
      </g>
     </g>
    </g>
    <g id="ytick_5">
     <g id="line2d_153">
      <path d="M 57.6 81.9072 
L 360.8064 81.9072 
" clip-path="url(#p80869f4574)" style="fill: none; stroke: #b0b0b0; stroke-width: 0.8; stroke-linecap: square"/>
     </g>
     <g id="line2d_154">
      <g>
       <use xlink:href="#m265d737ff8" x="57.6" y="81.9072" style="stroke: #000000; stroke-width: 0.8"/>
      </g>
     </g>
     <g id="line2d_155">
      <g>
       <use xlink:href="#m53e60aae3b" x="360.8064" y="81.9072" style="stroke: #000000; stroke-width: 0.8"/>
      </g>
     </g>
     <g id="text_14">
      <!-- 0.8 -->
      <g transform="translate(28.335625 87.226106) scale(0.14 -0.14)">
       <defs>
        <path id="DejaVuSans-38" d="M 2034 2216 
Q 1584 2216 1326 1975 
Q 1069 1734 1069 1313 
Q 1069 891 1326 650 
Q 1584 409 2034 409 
Q 2484 409 2743 651 
Q 3003 894 3003 1313 
Q 3003 1734 2745 1975 
Q 2488 2216 2034 2216 
z
M 1403 2484 
Q 997 2584 770 2862 
Q 544 3141 544 3541 
Q 544 4100 942 4425 
Q 1341 4750 2034 4750 
Q 2731 4750 3128 4425 
Q 3525 4100 3525 3541 
Q 3525 3141 3298 2862 
Q 3072 2584 2669 2484 
Q 3125 2378 3379 2068 
Q 3634 1759 3634 1313 
Q 3634 634 3220 271 
Q 2806 -91 2034 -91 
Q 1263 -91 848 271 
Q 434 634 434 1313 
Q 434 1759 690 2068 
Q 947 2378 1403 2484 
z
M 1172 3481 
Q 1172 3119 1398 2916 
Q 1625 2713 2034 2713 
Q 2441 2713 2670 2916 
Q 2900 3119 2900 3481 
Q 2900 3844 2670 4047 
Q 2441 4250 2034 4250 
Q 1625 4250 1398 4047 
Q 1172 3844 1172 3481 
z
" transform="scale(0.015625)"/>
       </defs>
       <use xlink:href="#DejaVuSans-30"/>
       <use xlink:href="#DejaVuSans-2e" x="63.623047"/>
       <use xlink:href="#DejaVuSans-38" x="95.410156"/>
      </g>
     </g>
    </g>
    <g id="ytick_6">
     <g id="line2d_156">
      <path d="M 57.6 27.648 
L 360.8064 27.648 
" clip-path="url(#p80869f4574)" style="fill: none; stroke: #b0b0b0; stroke-width: 0.8; stroke-linecap: square"/>
     </g>
     <g id="line2d_157">
      <g>
       <use xlink:href="#m265d737ff8" x="57.6" y="27.648" style="stroke: #000000; stroke-width: 0.8"/>
      </g>
     </g>
     <g id="line2d_158">
      <g>
       <use xlink:href="#m53e60aae3b" x="360.8064" y="27.648" style="stroke: #000000; stroke-width: 0.8"/>
      </g>
     </g>
     <g id="text_15">
      <!-- 1.0 -->
      <g transform="translate(28.335625 32.966906) scale(0.14 -0.14)">
       <use xlink:href="#DejaVuSans-31"/>
       <use xlink:href="#DejaVuSans-2e" x="63.623047"/>
       <use xlink:href="#DejaVuSans-30" x="95.410156"/>
      </g>
     </g>
    </g>
    <g id="ytick_7">
     <g id="line2d_159">
      <defs>
       <path id="m57a24ea0cd" d="M 0 0 
L -2 0 
" style="stroke: #000000; stroke-width: 0.6"/>
      </defs>
      <g>
       <use xlink:href="#m57a24ea0cd" x="57.6" y="285.3792" style="stroke: #000000; stroke-width: 0.6"/>
      </g>
     </g>
     <g id="line2d_160">
      <defs>
       <path id="mf2c378cad5" d="M 0 0 
L 2 0 
" style="stroke: #000000; stroke-width: 0.6"/>
      </defs>
      <g>
       <use xlink:href="#mf2c378cad5" x="360.8064" y="285.3792" style="stroke: #000000; stroke-width: 0.6"/>
      </g>
     </g>
    </g>
    <g id="ytick_8">
     <g id="line2d_161">
      <g>
       <use xlink:href="#m57a24ea0cd" x="57.6" y="271.8144" style="stroke: #000000; stroke-width: 0.6"/>
      </g>
     </g>
     <g id="line2d_162">
      <g>
       <use xlink:href="#mf2c378cad5" x="360.8064" y="271.8144" style="stroke: #000000; stroke-width: 0.6"/>
      </g>
     </g>
    </g>
    <g id="ytick_9">
     <g id="line2d_163">
      <g>
       <use xlink:href="#m57a24ea0cd" x="57.6" y="258.2496" style="stroke: #000000; stroke-width: 0.6"/>
      </g>
     </g>
     <g id="line2d_164">
      <g>
       <use xlink:href="#mf2c378cad5" x="360.8064" y="258.2496" style="stroke: #000000; stroke-width: 0.6"/>
      </g>
     </g>
    </g>
    <g id="ytick_10">
     <g id="line2d_165">
      <g>
       <use xlink:href="#m57a24ea0cd" x="57.6" y="231.12" style="stroke: #000000; stroke-width: 0.6"/>
      </g>
     </g>
     <g id="line2d_166">
      <g>
       <use xlink:href="#mf2c378cad5" x="360.8064" y="231.12" style="stroke: #000000; stroke-width: 0.6"/>
      </g>
     </g>
    </g>
    <g id="ytick_11">
     <g id="line2d_167">
      <g>
       <use xlink:href="#m57a24ea0cd" x="57.6" y="217.5552" style="stroke: #000000; stroke-width: 0.6"/>
      </g>
     </g>
     <g id="line2d_168">
      <g>
       <use xlink:href="#mf2c378cad5" x="360.8064" y="217.5552" style="stroke: #000000; stroke-width: 0.6"/>
      </g>
     </g>
    </g>
    <g id="ytick_12">
     <g id="line2d_169">
      <g>
       <use xlink:href="#m57a24ea0cd" x="57.6" y="203.9904" style="stroke: #000000; stroke-width: 0.6"/>
      </g>
     </g>
     <g id="line2d_170">
      <g>
       <use xlink:href="#mf2c378cad5" x="360.8064" y="203.9904" style="stroke: #000000; stroke-width: 0.6"/>
      </g>
     </g>
    </g>
    <g id="ytick_13">
     <g id="line2d_171">
      <g>
       <use xlink:href="#m57a24ea0cd" x="57.6" y="176.8608" style="stroke: #000000; stroke-width: 0.6"/>
      </g>
     </g>
     <g id="line2d_172">
      <g>
       <use xlink:href="#mf2c378cad5" x="360.8064" y="176.8608" style="stroke: #000000; stroke-width: 0.6"/>
      </g>
     </g>
    </g>
    <g id="ytick_14">
     <g id="line2d_173">
      <g>
       <use xlink:href="#m57a24ea0cd" x="57.6" y="163.296" style="stroke: #000000; stroke-width: 0.6"/>
      </g>
     </g>
     <g id="line2d_174">
      <g>
       <use xlink:href="#mf2c378cad5" x="360.8064" y="163.296" style="stroke: #000000; stroke-width: 0.6"/>
      </g>
     </g>
    </g>
    <g id="ytick_15">
     <g id="line2d_175">
      <g>
       <use xlink:href="#m57a24ea0cd" x="57.6" y="149.7312" style="stroke: #000000; stroke-width: 0.6"/>
      </g>
     </g>
     <g id="line2d_176">
      <g>
       <use xlink:href="#mf2c378cad5" x="360.8064" y="149.7312" style="stroke: #000000; stroke-width: 0.6"/>
      </g>
     </g>
    </g>
    <g id="ytick_16">
     <g id="line2d_177">
      <g>
       <use xlink:href="#m57a24ea0cd" x="57.6" y="122.6016" style="stroke: #000000; stroke-width: 0.6"/>
      </g>
     </g>
     <g id="line2d_178">
      <g>
       <use xlink:href="#mf2c378cad5" x="360.8064" y="122.6016" style="stroke: #000000; stroke-width: 0.6"/>
      </g>
     </g>
    </g>
    <g id="ytick_17">
     <g id="line2d_179">
      <g>
       <use xlink:href="#m57a24ea0cd" x="57.6" y="109.0368" style="stroke: #000000; stroke-width: 0.6"/>
      </g>
     </g>
     <g id="line2d_180">
      <g>
       <use xlink:href="#mf2c378cad5" x="360.8064" y="109.0368" style="stroke: #000000; stroke-width: 0.6"/>
      </g>
     </g>
    </g>
    <g id="ytick_18">
     <g id="line2d_181">
      <g>
       <use xlink:href="#m57a24ea0cd" x="57.6" y="95.472" style="stroke: #000000; stroke-width: 0.6"/>
      </g>
     </g>
     <g id="line2d_182">
      <g>
       <use xlink:href="#mf2c378cad5" x="360.8064" y="95.472" style="stroke: #000000; stroke-width: 0.6"/>
      </g>
     </g>
    </g>
    <g id="ytick_19">
     <g id="line2d_183">
      <g>
       <use xlink:href="#m57a24ea0cd" x="57.6" y="68.3424" style="stroke: #000000; stroke-width: 0.6"/>
      </g>
     </g>
     <g id="line2d_184">
      <g>
       <use xlink:href="#mf2c378cad5" x="360.8064" y="68.3424" style="stroke: #000000; stroke-width: 0.6"/>
      </g>
     </g>
    </g>
    <g id="ytick_20">
     <g id="line2d_185">
      <g>
       <use xlink:href="#m57a24ea0cd" x="57.6" y="54.7776" style="stroke: #000000; stroke-width: 0.6"/>
      </g>
     </g>
     <g id="line2d_186">
      <g>
       <use xlink:href="#mf2c378cad5" x="360.8064" y="54.7776" style="stroke: #000000; stroke-width: 0.6"/>
      </g>
     </g>
    </g>
    <g id="ytick_21">
     <g id="line2d_187">
      <g>
       <use xlink:href="#m57a24ea0cd" x="57.6" y="41.2128" style="stroke: #000000; stroke-width: 0.6"/>
      </g>
     </g>
     <g id="line2d_188">
      <g>
       <use xlink:href="#mf2c378cad5" x="360.8064" y="41.2128" style="stroke: #000000; stroke-width: 0.6"/>
      </g>
     </g>
    </g>
    <g id="text_16">
     <!-- Fraction of function,target pairs -->
     <g transform="translate(21.216094 281.871) rotate(-90) scale(0.15 -0.15)">
      <defs>
       <path id="DejaVuSans-46" d="M 628 4666 
L 3309 4666 
L 3309 4134 
L 1259 4134 
L 1259 2759 
L 3109 2759 
L 3109 2228 
L 1259 2228 
L 1259 0 
L 628 0 
L 628 4666 
z
" transform="scale(0.015625)"/>
       <path id="DejaVuSans-72" d="M 2631 2963 
Q 2534 3019 2420 3045 
Q 2306 3072 2169 3072 
Q 1681 3072 1420 2755 
Q 1159 2438 1159 1844 
L 1159 0 
L 581 0 
L 581 3500 
L 1159 3500 
L 1159 2956 
Q 1341 3275 1631 3429 
Q 1922 3584 2338 3584 
Q 2397 3584 2469 3576 
Q 2541 3569 2628 3553 
L 2631 2963 
z
" transform="scale(0.015625)"/>
       <path id="DejaVuSans-63" d="M 3122 3366 
L 3122 2828 
Q 2878 2963 2633 3030 
Q 2388 3097 2138 3097 
Q 1578 3097 1268 2742 
Q 959 2388 959 1747 
Q 959 1106 1268 751 
Q 1578 397 2138 397 
Q 2388 397 2633 464 
Q 2878 531 3122 666 
L 3122 134 
Q 2881 22 2623 -34 
Q 2366 -91 2075 -91 
Q 1284 -91 818 406 
Q 353 903 353 1747 
Q 353 2603 823 3093 
Q 1294 3584 2113 3584 
Q 2378 3584 2631 3529 
Q 2884 3475 3122 3366 
z
" transform="scale(0.015625)"/>
       <path id="DejaVuSans-74" d="M 1172 4494 
L 1172 3500 
L 2356 3500 
L 2356 3053 
L 1172 3053 
L 1172 1153 
Q 1172 725 1289 603 
Q 1406 481 1766 481 
L 2356 481 
L 2356 0 
L 1766 0 
Q 1100 0 847 248 
Q 594 497 594 1153 
L 594 3053 
L 172 3053 
L 172 3500 
L 594 3500 
L 594 4494 
L 1172 4494 
z
" transform="scale(0.015625)"/>
       <path id="DejaVuSans-75" d="M 544 1381 
L 544 3500 
L 1119 3500 
L 1119 1403 
Q 1119 906 1312 657 
Q 1506 409 1894 409 
Q 2359 409 2629 706 
Q 2900 1003 2900 1516 
L 2900 3500 
L 3475 3500 
L 3475 0 
L 2900 0 
L 2900 538 
Q 2691 219 2414 64 
Q 2138 -91 1772 -91 
Q 1169 -91 856 284 
Q 544 659 544 1381 
z
M 1991 3584 
L 1991 3584 
z
" transform="scale(0.015625)"/>
       <path id="DejaVuSans-2c" d="M 750 794 
L 1409 794 
L 1409 256 
L 897 -744 
L 494 -744 
L 750 256 
L 750 794 
z
" transform="scale(0.015625)"/>
       <path id="DejaVuSans-70" d="M 1159 525 
L 1159 -1331 
L 581 -1331 
L 581 3500 
L 1159 3500 
L 1159 2969 
Q 1341 3281 1617 3432 
Q 1894 3584 2278 3584 
Q 2916 3584 3314 3078 
Q 3713 2572 3713 1747 
Q 3713 922 3314 415 
Q 2916 -91 2278 -91 
Q 1894 -91 1617 61 
Q 1341 213 1159 525 
z
M 3116 1747 
Q 3116 2381 2855 2742 
Q 2594 3103 2138 3103 
Q 1681 3103 1420 2742 
Q 1159 2381 1159 1747 
Q 1159 1113 1420 752 
Q 1681 391 2138 391 
Q 2594 391 2855 752 
Q 3116 1113 3116 1747 
z
" transform="scale(0.015625)"/>
      </defs>
      <use xlink:href="#DejaVuSans-46"/>
      <use xlink:href="#DejaVuSans-72" x="50.269531"/>
      <use xlink:href="#DejaVuSans-61" x="91.382812"/>
      <use xlink:href="#DejaVuSans-63" x="152.662109"/>
      <use xlink:href="#DejaVuSans-74" x="207.642578"/>
      <use xlink:href="#DejaVuSans-69" x="246.851562"/>
      <use xlink:href="#DejaVuSans-6f" x="274.634766"/>
      <use xlink:href="#DejaVuSans-6e" x="335.816406"/>
      <use xlink:href="#DejaVuSans-20" x="399.195312"/>
      <use xlink:href="#DejaVuSans-6f" x="430.982422"/>
      <use xlink:href="#DejaVuSans-66" x="492.164062"/>
      <use xlink:href="#DejaVuSans-20" x="527.369141"/>
      <use xlink:href="#DejaVuSans-66" x="559.15625"/>
      <use xlink:href="#DejaVuSans-75" x="594.361328"/>
      <use xlink:href="#DejaVuSans-6e" x="657.740234"/>
      <use xlink:href="#DejaVuSans-63" x="721.119141"/>
      <use xlink:href="#DejaVuSans-74" x="776.099609"/>
      <use xlink:href="#DejaVuSans-69" x="815.308594"/>
      <use xlink:href="#DejaVuSans-6f" x="843.091797"/>
      <use xlink:href="#DejaVuSans-6e" x="904.273438"/>
      <use xlink:href="#DejaVuSans-2c" x="967.652344"/>
      <use xlink:href="#DejaVuSans-74" x="999.439453"/>
      <use xlink:href="#DejaVuSans-61" x="1038.648438"/>
      <use xlink:href="#DejaVuSans-72" x="1099.927734"/>
      <use xlink:href="#DejaVuSans-67" x="1139.291016"/>
      <use xlink:href="#DejaVuSans-65" x="1202.767578"/>
      <use xlink:href="#DejaVuSans-74" x="1264.291016"/>
      <use xlink:href="#DejaVuSans-20" x="1303.5"/>
      <use xlink:href="#DejaVuSans-70" x="1335.287109"/>
      <use xlink:href="#DejaVuSans-61" x="1398.763672"/>
      <use xlink:href="#DejaVuSans-69" x="1460.042969"/>
      <use xlink:href="#DejaVuSans-72" x="1487.826172"/>
      <use xlink:href="#DejaVuSans-73" x="1528.939453"/>
     </g>
    </g>
   </g>
   <g id="line2d_189">
    <defs>
     <path id="me92120817a" d="M 0 1 
C 0.265203 1 0.51958 0.894634 0.707107 0.707107 
C 0.894634 0.51958 1 0.265203 1 0 
C 1 -0.265203 0.894634 -0.51958 0.707107 -0.707107 
C 0.51958 -0.894634 0.265203 -1 0 -1 
C -0.265203 -1 -0.51958 -0.894634 -0.707107 -0.707107 
C -0.894634 -0.51958 -1 -0.265203 -1 0 
C -1 0.265203 -0.894634 0.51958 -0.707107 0.707107 
C -0.51958 0.894634 -0.265203 1 0 1 
z
" style="stroke: #faf0e6"/>
    </defs>
    <g>
     <use xlink:href="#me92120817a" x="281.036417" y="60.390621" style="fill: #faf0e6; stroke: #faf0e6"/>
    </g>
   </g>
   <g id="line2d_190">
    <defs>
     <path id="m36863cc82f" d="M 0 1 
C 0.265203 1 0.51958 0.894634 0.707107 0.707107 
C 0.894634 0.51958 1 0.265203 1 0 
C 1 -0.265203 0.894634 -0.51958 0.707107 -0.707107 
C 0.51958 -0.894634 0.265203 -1 0 -1 
C -0.265203 -1 -0.51958 -0.894634 -0.707107 -0.707107 
C -0.894634 -0.51958 -1 -0.265203 -1 0 
C -1 0.265203 -0.894634 0.51958 -0.707107 0.707107 
C -0.51958 0.894634 -0.265203 1 0 1 
z
" style="stroke: #1874b4"/>
    </defs>
    <g>
     <use xlink:href="#m36863cc82f" x="184.581089" y="203.054897" style="fill: #1874b4; stroke: #1874b4"/>
    </g>
   </g>
   <g id="line2d_191">
    <path d="M 27.323974 298.944 
L 27.323974 298.476248 
L 40.363149 298.476248 
L 40.363149 298.008497 
L 47.990577 298.008497 
L 47.990577 296.605241 
L 57.6 296.605241 
L 57.6 296.13749 
L 61.029752 296.13749 
L 61.029752 295.669738 
L 63.929565 295.669738 
L 63.929565 295.201986 
L 66.441498 295.201986 
L 66.441498 294.266483 
L 70.639174 294.266483 
L 70.639174 293.330979 
L 75.574654 293.330979 
L 75.574654 292.863228 
L 79.480672 292.863228 
L 79.480672 291.459972 
L 80.621116 291.459972 
L 80.621116 290.524469 
L 81.696354 290.524469 
L 81.696354 288.653462 
L 83.678349 288.653462 
L 83.678349 288.18571 
L 87.876026 288.18571 
L 87.876026 287.717959 
L 97.18203 287.717959 
L 97.18203 287.250207 
L 98.933205 287.250207 
L 98.933205 286.782455 
L 106.42077 286.782455 
L 106.42077 285.3792 
L 107.244765 285.3792 
L 107.244765 284.911448 
L 112.989468 284.911448 
L 112.989468 284.443697 
L 117.848632 284.443697 
L 117.848632 283.508193 
L 118.598196 283.508193 
L 118.598196 283.040441 
L 119.738639 283.040441 
L 119.738639 282.104938 
L 120.813877 282.104938 
L 120.813877 281.637186 
L 123.374735 281.637186 
L 123.374735 281.169434 
L 124.265389 281.169434 
L 124.265389 280.701683 
L 124.695386 280.701683 
L 124.695386 280.233931 
L 125.115773 280.233931 
L 125.115773 279.766179 
L 125.929373 279.766179 
L 125.929373 279.298428 
L 128.178203 279.298428 
L 128.178203 278.830676 
L 129.125437 278.830676 
L 129.125437 278.362924 
L 130.887807 278.362924 
L 130.887807 277.895172 
L 132.144842 277.895172 
L 132.216233 276.959669 
L 132.499119 276.959669 
L 132.499119 276.491917 
L 132.777813 276.491917 
L 132.777813 275.088662 
L 133.983236 275.088662 
L 133.983236 274.62091 
L 134.368469 274.62091 
L 134.368469 274.153159 
L 134.931919 274.153159 
L 134.931919 273.685407 
L 135.116046 273.685407 
L 135.116046 273.217655 
L 135.298389 273.217655 
L 135.298389 272.749903 
L 135.538796 272.749903 
L 135.538796 271.8144 
L 135.657857 271.8144 
L 135.657857 271.346648 
L 136.864507 271.346648 
L 136.864507 270.878897 
L 137.945929 270.878897 
L 137.945929 269.943393 
L 138.154948 269.943393 
L 138.154948 268.540138 
L 138.310202 268.540138 
L 138.36167 266.669131 
L 139.018248 266.669131 
L 139.018248 265.733628 
L 139.264798 265.733628 
L 139.264798 265.265876 
L 139.652679 265.265876 
L 139.652679 264.330372 
L 139.843661 264.330372 
L 139.93843 262.927117 
L 140.58877 262.927117 
L 140.58877 262.459366 
L 140.995278 262.459366 
L 140.995278 261.05611 
L 141.217377 261.05611 
L 141.217377 260.588359 
L 141.523975 260.588359 
L 141.523975 259.652855 
L 141.953481 259.652855 
L 141.953481 259.185103 
L 144.454795 259.185103 
L 144.454795 258.717352 
L 145.989098 258.717352 
L 146.057504 256.378593 
L 146.125662 256.378593 
L 146.125662 255.44309 
L 146.362288 255.44309 
L 146.429353 254.039834 
L 147.971093 254.039834 
L 147.971093 253.104331 
L 148.637595 253.104331 
L 148.667336 252.168828 
L 148.903591 252.168828 
L 148.903591 251.701076 
L 149.903682 251.701076 
L 149.903682 250.765572 
L 150.506141 250.765572 
L 150.506141 249.830069 
L 151.579882 249.830069 
L 151.579882 248.894566 
L 152.691854 248.894566 
L 152.691854 247.959062 
L 153.559331 247.959062 
L 153.559331 247.49131 
L 154.123607 247.49131 
L 154.123607 246.555807 
L 155.557358 246.555807 
L 155.557358 245.620303 
L 155.741887 245.620303 
L 155.741887 245.152552 
L 156.205398 245.152552 
L 156.205398 244.217048 
L 157.419468 244.217048 
L 157.419468 243.749297 
L 157.953034 243.749297 
L 157.953034 242.813793 
L 158.294582 242.813793 
L 158.294582 241.87829 
L 158.436556 241.87829 
L 158.436556 241.410538 
L 159.367841 241.410538 
L 159.367841 240.942786 
L 159.552023 240.942786 
L 159.552023 240.475034 
L 160.012872 240.475034 
L 160.012872 239.539531 
L 160.963953 239.539531 
L 161.041081 238.136276 
L 161.240147 238.136276 
L 161.240147 237.200772 
L 161.376738 237.200772 
L 161.376738 236.733021 
L 161.497325 236.733021 
L 161.497325 236.265269 
L 161.957434 236.265269 
L 161.957434 235.329766 
L 162.676617 235.329766 
L 162.676617 234.394262 
L 163.191653 234.394262 
L 163.191653 233.92651 
L 163.342092 233.92651 
L 163.3965 232.991007 
L 164.272231 232.991007 
L 164.272231 231.587752 
L 164.388551 231.587752 
L 164.388551 230.652248 
L 166.122826 230.652248 
L 166.122826 229.716745 
L 166.356368 229.716745 
L 166.367969 227.377986 
L 166.678531 227.377986 
L 166.678531 226.910234 
L 167.028891 226.910234 
L 167.028891 225.974731 
L 167.569712 225.974731 
L 167.569712 225.506979 
L 168.03183 225.506979 
L 168.03183 225.039228 
L 168.410176 225.039228 
L 168.410176 224.571476 
L 169.472115 224.571476 
L 169.472115 224.103724 
L 169.667764 224.103724 
L 169.667764 223.635972 
L 169.957476 223.635972 
L 169.957476 223.168221 
L 170.138678 223.168221 
L 170.138678 222.232717 
L 171.929885 222.232717 
L 171.929885 221.764966 
L 172.616174 221.764966 
L 172.616174 221.297214 
L 172.748826 221.297214 
L 172.748826 220.36171 
L 173.133165 220.36171 
L 173.205875 218.958455 
L 173.398404 218.958455 
L 173.398404 218.022952 
L 174.003127 218.022952 
L 174.003127 217.5552 
L 174.648853 217.5552 
L 174.648853 216.619697 
L 174.767961 216.619697 
L 174.827233 215.216441 
L 175.638014 215.216441 
L 175.638014 214.280938 
L 175.912332 214.280938 
L 175.912332 212.877683 
L 176.503464 212.877683 
L 176.58449 211.474428 
L 176.671876 211.474428 
L 176.671876 210.538924 
L 178.782196 210.538924 
L 178.782196 210.071172 
L 179.63768 210.071172 
L 179.63768 209.603421 
L 180.056865 209.603421 
L 180.056865 208.667917 
L 180.510711 208.667917 
L 180.538033 207.732414 
L 181.758927 207.732414 
L 181.794715 206.79691 
L 182.481765 206.79691 
L 182.481765 206.329159 
L 182.862007 206.329159 
L 182.862007 205.393655 
L 183.058837 205.393655 
L 183.058837 204.925903 
L 183.390202 204.925903 
L 183.418335 203.522648 
L 184.581089 203.522648 
L 184.581089 203.054897 
L 360.8064 203.054897 
L 360.8064 203.054897 
" style="fill: none; stroke: #1874b4; stroke-width: 1.733333; stroke-linecap: square"/>
   </g>
   <g id="line2d_192">
    <defs>
     <path id="ma77eae41b7" d="M 0 6.673333 
C 1.769789 6.673333 3.46733 5.970189 4.718759 4.718759 
C 5.970189 3.46733 6.673333 1.769789 6.673333 0 
C 6.673333 -1.769789 5.970189 -3.46733 4.718759 -4.718759 
C 3.46733 -5.970189 1.769789 -6.673333 0 -6.673333 
C -1.769789 -6.673333 -3.46733 -5.970189 -4.718759 -4.718759 
C -5.970189 -3.46733 -6.673333 -1.769789 -6.673333 0 
C -6.673333 1.769789 -5.970189 3.46733 -4.718759 4.718759 
C -3.46733 5.970189 -1.769789 6.673333 0 6.673333 
z
" style="stroke: #1874b4"/>
    </defs>
    <g>
     <use xlink:href="#ma77eae41b7" x="125.929373" y="279.298428" style="fill-opacity: 0; stroke: #1874b4"/>
     <use xlink:href="#ma77eae41b7" x="172.748826" y="221.297214" style="fill-opacity: 0; stroke: #1874b4"/>
     <use xlink:href="#ma77eae41b7" x="184.581089" y="203.522648" style="fill-opacity: 0; stroke: #1874b4"/>
     <use xlink:href="#ma77eae41b7" x="184.581089" y="203.054897" style="fill-opacity: 0; stroke: #1874b4"/>
     <use xlink:href="#ma77eae41b7" x="184.581089" y="203.054897" style="fill-opacity: 0; stroke: #1874b4"/>
     <use xlink:href="#ma77eae41b7" x="360.8064" y="203.054897" style="fill-opacity: 0; stroke: #1874b4"/>
    </g>
   </g>
   <g id="line2d_193">
    <path style="fill: none; stroke: #1874b4; stroke-width: 1.733333; stroke-linecap: square"/>
    <g/>
   </g>
   <g id="line2d_194">
    <path d="M 230.862681 203.054897 
" clip-path="url(#p80869f4574)" style="fill: none; stroke: #1874b4; stroke-width: 1.5; stroke-linecap: square"/>
    <defs>
     <path id="m33a1e9dc63" d="M -9.975388 9.975388 
L 9.975388 -9.975388 
M -9.975388 -9.975388 
L 9.975388 9.975388 
" style="stroke: #1874b4"/>
    </defs>
    <g clip-path="url(#p80869f4574)">
     <use xlink:href="#m33a1e9dc63" x="230.862681" y="203.054897" style="fill: #1874b4; stroke: #1874b4"/>
    </g>
   </g>
   <g id="line2d_195">
    <defs>
     <path id="m6c64e60eb6" d="M 0 1 
C 0.265203 1 0.51958 0.894634 0.707107 0.707107 
C 0.894634 0.51958 1 0.265203 1 0 
C 1 -0.265203 0.894634 -0.51958 0.707107 -0.707107 
C 0.51958 -0.894634 0.265203 -1 0 -1 
C -0.265203 -1 -0.51958 -0.894634 -0.707107 -0.707107 
C -0.894634 -0.51958 -1 -0.265203 -1 0 
C -1 0.265203 -0.894634 0.51958 -0.707107 0.707107 
C -0.51958 0.894634 -0.265203 1 0 1 
z
" style="stroke: #ff7d0b"/>
    </defs>
    <g>
     <use xlink:href="#m6c64e60eb6" x="174.864184" y="207.264662" style="fill: #ff7d0b; stroke: #ff7d0b"/>
    </g>
   </g>
   <g id="line2d_196">
    <path d="M 27.323974 298.944 
L 27.323974 298.476248 
L 40.363149 298.476248 
L 40.363149 297.540745 
L 47.990577 297.540745 
L 47.990577 296.13749 
L 53.402323 296.13749 
L 53.402323 295.201986 
L 57.6 295.201986 
L 57.6 294.266483 
L 63.929565 294.266483 
L 63.929565 293.798731 
L 72.432107 293.798731 
L 72.432107 293.330979 
L 83.678349 293.330979 
L 83.678349 292.863228 
L 84.596168 292.863228 
L 84.596168 292.395476 
L 85.471281 292.395476 
L 85.471281 291.927724 
L 87.876026 291.927724 
L 87.876026 291.459972 
L 90.668036 291.459972 
L 90.668036 290.992221 
L 92.519847 290.992221 
L 92.519847 290.524469 
L 94.735529 290.524469 
L 94.735529 290.056717 
L 96.717523 290.056717 
L 96.717523 289.121214 
L 97.18203 289.121214 
L 97.18203 288.653462 
L 97.635342 288.653462 
L 97.635342 288.18571 
L 98.510456 288.18571 
L 98.510456 287.717959 
L 99.346662 287.717959 
L 99.346662 286.314703 
L 100.535156 286.314703 
L 100.535156 285.846952 
L 102.362957 285.846952 
L 102.362957 285.3792 
L 104.961779 285.3792 
L 104.961779 284.911448 
L 106.42077 284.911448 
L 106.42077 283.975945 
L 107.244765 283.975945 
L 107.244765 283.040441 
L 107.5116 283.040441 
L 107.5116 282.104938 
L 108.034177 282.104938 
L 108.034177 281.169434 
L 108.791791 281.169434 
L 108.791791 280.233931 
L 109.037698 280.233931 
L 109.037698 279.766179 
L 110.221204 279.766179 
L 110.221204 278.830676 
L 112.180244 278.830676 
L 112.180244 278.362924 
L 112.385837 278.362924 
L 112.385837 276.959669 
L 115.747307 276.959669 
L 115.747307 276.024166 
L 116.253478 276.024166 
L 116.253478 275.088662 
L 116.583514 275.088662 
L 116.583514 274.62091 
L 116.746385 274.62091 
L 116.746385 274.153159 
L 117.384126 274.153159 
L 117.384126 273.217655 
L 117.540239 273.217655 
L 117.540239 272.749903 
L 117.848632 272.749903 
L 117.848632 272.282152 
L 118.598196 272.282152 
L 118.598196 271.8144 
L 123.029559 271.8144 
L 123.029559 271.346648 
L 125.115773 271.346648 
L 125.115773 270.878897 
L 126.225624 270.878897 
L 126.225624 270.411145 
L 126.899255 270.411145 
L 126.899255 269.00789 
L 129.209231 269.00789 
L 129.292652 268.072386 
L 129.375706 268.072386 
L 129.375706 267.604634 
L 132.144842 267.604634 
L 132.144842 267.136883 
L 132.777813 267.136883 
L 132.777813 264.798124 
L 133.589949 264.798124 
L 133.656071 262.927117 
L 133.72196 262.927117 
L 133.72196 261.991614 
L 135.35878 261.991614 
L 135.418977 261.05611 
L 136.184497 261.05611 
L 136.184497 260.588359 
L 136.752866 260.588359 
L 136.752866 260.120607 
L 137.140746 260.120607 
L 137.140746 259.185103 
L 137.358854 259.185103 
L 137.358854 258.717352 
L 138.616919 258.717352 
L 138.616919 257.314097 
L 139.604629 257.314097 
L 139.604629 256.378593 
L 140.49723 256.378593 
L 140.49723 255.910841 
L 140.815692 255.910841 
L 140.815692 254.975338 
L 141.65386 254.975338 
L 141.65386 254.507586 
L 142.164612 254.507586 
L 142.164612 253.572083 
L 144.079302 253.572083 
L 144.079302 252.636579 
L 145.782376 252.636579 
L 145.782376 251.701076 
L 148.03267 251.701076 
L 148.063382 250.765572 
L 148.932916 250.765572 
L 148.932916 250.297821 
L 150.773735 250.297821 
L 150.773735 249.830069 
L 151.656094 249.830069 
L 151.656094 249.362317 
L 151.832729 249.362317 
L 151.832729 248.894566 
L 152.547334 248.894566 
L 152.619733 247.49131 
L 152.715833 247.49131 
L 152.715833 246.088055 
L 153.536404 246.088055 
L 153.536404 245.620303 
L 153.673549 245.620303 
L 153.673549 245.152552 
L 153.877408 245.152552 
L 153.922412 242.813793 
L 154.079083 242.813793 
L 154.079083 241.87829 
L 154.278618 241.87829 
L 154.278618 240.475034 
L 154.519655 240.475034 
L 154.519655 239.539531 
L 155.741887 239.539531 
L 155.741887 239.071779 
L 156.005274 239.071779 
L 156.005274 237.668524 
L 157.53111 237.668524 
L 157.53111 237.200772 
L 158.0976 237.200772 
L 158.0976 236.265269 
L 159.317295 236.265269 
L 159.317295 235.329766 
L 159.865969 235.329766 
L 159.898714 233.92651 
L 160.223059 233.92651 
L 160.287262 232.055503 
L 160.335271 232.055503 
L 160.335271 231.12 
L 160.714996 231.12 
L 160.714996 229.716745 
L 160.855439 229.716745 
L 160.855439 229.248993 
L 161.194395 229.248993 
L 161.194395 228.781241 
L 161.406958 228.781241 
L 161.406958 227.845738 
L 162.591753 227.845738 
L 162.591753 227.377986 
L 162.8032 227.377986 
L 162.8032 226.910234 
L 163.164171 226.910234 
L 163.164171 225.974731 
L 163.518345 225.974731 
L 163.518345 225.506979 
L 164.089846 225.506979 
L 164.089846 225.039228 
L 164.452864 225.039228 
L 164.478528 224.103724 
L 164.593584 224.103724 
L 164.669899 220.36171 
L 164.70794 220.36171 
L 164.70794 219.426207 
L 165.244914 219.426207 
L 165.244914 217.5552 
L 165.477385 217.5552 
L 165.477385 217.087448 
L 167.218289 217.087448 
L 167.218289 216.151945 
L 167.925369 216.151945 
L 168.021211 214.280938 
L 168.358081 214.280938 
L 168.368511 212.877683 
L 168.4725 212.877683 
L 168.4725 212.409931 
L 168.79126 212.409931 
L 168.79126 211.942179 
L 169.413021 211.942179 
L 169.413021 211.006676 
L 169.9383 211.006676 
L 169.9383 210.538924 
L 170.411929 210.538924 
L 170.411929 210.071172 
L 170.616607 210.071172 
L 170.616607 209.135669 
L 172.050307 209.135669 
L 172.050307 208.667917 
L 173.11697 208.667917 
L 173.11697 208.200166 
L 174.864184 208.200166 
L 174.864184 207.264662 
L 360.8064 207.264662 
L 360.8064 207.264662 
" style="fill: none; stroke: #ff7d0b; stroke-width: 1.733333; stroke-linecap: square"/>
   </g>
   <g id="line2d_197">
    <defs>
     <path id="mc4582316ef" d="M -0 9.437519 
L 5.662511 0 
L 0 -9.437519 
L -5.662511 0 
z
" style="stroke: #ff7d0b; stroke-linejoin: miter"/>
    </defs>
    <g>
     <use xlink:href="#mc4582316ef" x="118.598196" y="271.8144" style="fill-opacity: 0; stroke: #ff7d0b; stroke-linejoin: miter"/>
     <use xlink:href="#mc4582316ef" x="168.368511" y="213.345434" style="fill-opacity: 0; stroke: #ff7d0b; stroke-linejoin: miter"/>
     <use xlink:href="#mc4582316ef" x="174.864184" y="208.200166" style="fill-opacity: 0; stroke: #ff7d0b; stroke-linejoin: miter"/>
     <use xlink:href="#mc4582316ef" x="174.864184" y="207.264662" style="fill-opacity: 0; stroke: #ff7d0b; stroke-linejoin: miter"/>
     <use xlink:href="#mc4582316ef" x="174.864184" y="207.264662" style="fill-opacity: 0; stroke: #ff7d0b; stroke-linejoin: miter"/>
     <use xlink:href="#mc4582316ef" x="360.8064" y="207.264662" style="fill-opacity: 0; stroke: #ff7d0b; stroke-linejoin: miter"/>
    </g>
   </g>
   <g id="line2d_198">
    <path style="fill: none; stroke: #ff7d0b; stroke-width: 1.733333; stroke-linecap: square"/>
    <g/>
   </g>
   <g id="line2d_199">
    <path d="M 230.863057 207.264662 
" clip-path="url(#p80869f4574)" style="fill: none; stroke: #ff7d0b; stroke-width: 1.5; stroke-linecap: square"/>
    <defs>
     <path id="m7f0b8cc890" d="M -9.975388 9.975388 
L 9.975388 -9.975388 
M -9.975388 -9.975388 
L 9.975388 9.975388 
" style="stroke: #ff7d0b"/>
    </defs>
    <g clip-path="url(#p80869f4574)">
     <use xlink:href="#m7f0b8cc890" x="230.863057" y="207.264662" style="fill: #ff7d0b; stroke: #ff7d0b"/>
    </g>
   </g>
   <g id="line2d_200">
    <defs>
     <path id="m51d08a003b" d="M 0 1 
C 0.265203 1 0.51958 0.894634 0.707107 0.707107 
C 0.894634 0.51958 1 0.265203 1 0 
C 1 -0.265203 0.894634 -0.51958 0.707107 -0.707107 
C 0.51958 -0.894634 0.265203 -1 0 -1 
C -0.265203 -1 -0.51958 -0.894634 -0.707107 -0.707107 
C -0.894634 -0.51958 -1 -0.265203 -1 0 
C -1 0.265203 -0.894634 0.51958 -0.707107 0.707107 
C -0.51958 0.894634 -0.265203 1 0 1 
z
" style="stroke: #22a022"/>
    </defs>
    <g>
     <use xlink:href="#m51d08a003b" x="193.585397" y="199.780634" style="fill: #22a022; stroke: #22a022"/>
    </g>
   </g>
   <g id="line2d_201">
    <path d="M 27.323974 298.944 
L 27.323974 298.476248 
L 40.363149 298.476248 
L 40.363149 298.008497 
L 47.990577 298.008497 
L 47.990577 297.072993 
L 53.402323 297.072993 
L 53.402323 296.13749 
L 57.6 296.13749 
L 57.6 293.798731 
L 66.441498 293.798731 
L 66.441498 292.863228 
L 81.696354 292.863228 
L 81.696354 291.927724 
L 83.678349 291.927724 
L 83.678349 290.056717 
L 89.323782 290.056717 
L 89.323782 289.121214 
L 95.752617 289.121214 
L 95.752617 287.250207 
L 97.18203 287.250207 
L 97.18203 286.314703 
L 99.751228 286.314703 
L 99.751228 285.846952 
L 105.26277 285.846952 
L 105.26277 283.975945 
L 107.774703 283.975945 
L 107.774703 283.508193 
L 109.280431 283.508193 
L 109.280431 283.040441 
L 115.747307 283.040441 
L 115.747307 282.57269 
L 116.907859 282.57269 
L 116.907859 281.169434 
L 117.226706 281.169434 
L 117.226706 280.701683 
L 119.599808 280.701683 
L 119.599808 280.233931 
L 119.738639 280.233931 
L 119.738639 279.766179 
L 122.19863 279.766179 
L 122.19863 279.298428 
L 123.374735 279.298428 
L 123.374735 278.362924 
L 123.4884 278.362924 
L 123.4884 277.427421 
L 124.265389 277.427421 
L 124.265389 276.959669 
L 124.481616 276.959669 
L 124.588805 275.556414 
L 126.127391 275.556414 
L 126.127391 275.088662 
L 128.614685 275.088662 
L 128.614685 274.62091 
L 130.964122 274.62091 
L 130.964122 273.685407 
L 131.266322 273.685407 
L 131.266322 273.217655 
L 132.144842 273.217655 
L 132.144842 272.749903 
L 134.495147 272.749903 
L 134.558167 270.878897 
L 136.184497 270.878897 
L 136.184497 270.411145 
L 139.067817 270.411145 
L 139.067817 269.475641 
L 139.264798 269.475641 
L 139.264798 269.00789 
L 140.770526 269.00789 
L 140.770526 268.540138 
L 142.45627 268.540138 
L 142.45627 268.072386 
L 143.773417 268.072386 
L 143.773417 267.604634 
L 144.454795 267.604634 
L 144.454795 265.733628 
L 145.004344 265.733628 
L 145.004344 265.265876 
L 145.291002 265.265876 
L 145.291002 264.798124 
L 146.362288 264.798124 
L 146.362288 263.862621 
L 146.662213 263.862621 
L 146.662213 263.394869 
L 148.367783 263.394869 
L 148.397954 261.523862 
L 148.637595 261.523862 
L 148.697031 260.588359 
L 150.425115 260.588359 
L 150.479171 259.185103 
L 151.142085 259.185103 
L 151.142085 258.717352 
L 151.27191 258.717352 
L 151.27191 258.2496 
L 153.764426 258.2496 
L 153.787077 256.846345 
L 154.234459 256.846345 
L 154.234459 256.378593 
L 155.329337 256.378593 
L 155.329337 255.910841 
L 155.516105 255.910841 
L 155.516105 254.975338 
L 156.065535 254.975338 
L 156.065535 254.507586 
L 156.284856 254.507586 
L 156.284856 254.039834 
L 156.75468 254.039834 
L 156.774003 252.168828 
L 157.30716 252.168828 
L 157.30716 251.701076 
L 157.456756 251.701076 
L 157.493969 250.765572 
L 157.642093 250.765572 
L 157.642093 250.297821 
L 157.789059 250.297821 
L 157.789059 249.830069 
L 157.98928 249.830069 
L 157.98928 249.362317 
L 158.25892 249.362317 
L 158.25892 248.894566 
L 158.907961 248.894566 
L 158.907961 248.426814 
L 159.351007 248.426814 
L 159.367841 247.023559 
L 159.585318 247.023559 
L 159.668298 245.152552 
L 159.816746 245.152552 
L 159.816746 244.6848 
L 160.683643 244.6848 
L 160.683643 244.217048 
L 161.010268 244.217048 
L 161.010268 243.281545 
L 161.376738 243.281545 
L 161.376738 242.346041 
L 161.854518 242.346041 
L 161.854518 241.410538 
L 162.817213 241.410538 
L 162.817213 240.475034 
L 163.3965 240.475034 
L 163.3965 240.007283 
L 164.220301 240.007283 
L 164.220301 239.539531 
L 164.388551 239.539531 
L 164.388551 238.136276 
L 164.783793 238.136276 
L 164.783793 237.200772 
L 166.356368 237.200772 
L 166.356368 236.265269 
L 166.575579 236.265269 
L 166.575579 234.862014 
L 167.284683 234.862014 
L 167.284683 233.92651 
L 167.893313 233.92651 
L 167.968026 232.055503 
L 168.627414 232.055503 
L 168.627414 231.12 
L 168.862497 231.12 
L 168.862497 230.184497 
L 169.174771 230.184497 
L 169.174771 229.248993 
L 169.619042 229.248993 
L 169.687218 227.845738 
L 169.967056 227.845738 
L 170.053063 225.506979 
L 170.570284 225.506979 
L 170.570284 225.039228 
L 171.010341 225.039228 
L 171.055593 223.635972 
L 171.387122 223.635972 
L 171.387122 222.700469 
L 171.878039 222.700469 
L 171.878039 221.764966 
L 172.007388 221.764966 
L 172.007388 221.297214 
L 173.533597 221.297214 
L 173.636328 219.426207 
L 174.603992 219.426207 
L 174.603992 218.958455 
L 175.294806 218.958455 
L 175.294806 218.490703 
L 176.278825 218.490703 
L 176.306197 217.087448 
L 176.523753 217.087448 
L 176.523753 216.151945 
L 176.645031 216.151945 
L 176.645031 215.684193 
L 176.885267 215.684193 
L 176.885267 215.216441 
L 177.122474 215.216441 
L 177.122474 214.74869 
L 177.376117 214.74869 
L 177.376117 214.280938 
L 178.601488 214.280938 
L 178.704102 213.345434 
L 178.80616 213.345434 
L 178.865936 211.942179 
L 179.044133 211.942179 
L 179.044133 211.474428 
L 179.6663 211.474428 
L 179.6663 210.538924 
L 180.614326 210.538924 
L 180.614326 210.071172 
L 181.166307 210.071172 
L 181.166307 209.603421 
L 182.07356 209.603421 
L 182.07356 209.135669 
L 182.540767 209.135669 
L 182.540767 207.732414 
L 182.967879 207.732414 
L 182.967879 206.79691 
L 183.42302 206.79691 
L 183.52579 205.393655 
L 183.609459 205.393655 
L 183.609459 204.925903 
L 183.725052 204.925903 
L 183.725052 203.9904 
L 184.148928 203.9904 
L 184.148928 203.522648 
L 184.475083 203.522648 
L 184.475083 203.054897 
L 185.845742 203.054897 
L 185.845742 202.119393 
L 187.226881 202.119393 
L 187.226881 201.651641 
L 188.083374 201.651641 
L 188.083374 201.18389 
L 191.519219 201.18389 
L 191.519219 200.716138 
L 193.585397 200.716138 
L 193.585397 199.780634 
L 360.8064 199.780634 
L 360.8064 199.780634 
" style="fill: none; stroke: #22a022; stroke-width: 1.733333; stroke-linecap: square"/>
   </g>
   <g id="line2d_202">
    <defs>
     <path id="m42b50e3132" d="M 0 -8.294 
L -1.862119 -2.562987 
L -7.888063 -2.562987 
L -3.012972 0.978974 
L -4.875091 6.709987 
L -0 3.168026 
L 4.875091 6.709987 
L 3.012972 0.978974 
L 7.888063 -2.562987 
L 1.862119 -2.562987 
z
" style="stroke: #22a022; stroke-linejoin: bevel"/>
    </defs>
    <g>
     <use xlink:href="#m42b50e3132" x="99.751228" y="285.846952" style="fill-opacity: 0; stroke: #22a022; stroke-linejoin: bevel"/>
     <use xlink:href="#m42b50e3132" x="168.862497" y="231.12" style="fill-opacity: 0; stroke: #22a022; stroke-linejoin: bevel"/>
     <use xlink:href="#m42b50e3132" x="193.585397" y="200.716138" style="fill-opacity: 0; stroke: #22a022; stroke-linejoin: bevel"/>
     <use xlink:href="#m42b50e3132" x="193.585397" y="199.780634" style="fill-opacity: 0; stroke: #22a022; stroke-linejoin: bevel"/>
     <use xlink:href="#m42b50e3132" x="193.585397" y="199.780634" style="fill-opacity: 0; stroke: #22a022; stroke-linejoin: bevel"/>
     <use xlink:href="#m42b50e3132" x="360.8064" y="199.780634" style="fill-opacity: 0; stroke: #22a022; stroke-linejoin: bevel"/>
    </g>
   </g>
   <g id="line2d_203">
    <path style="fill: none; stroke: #22a022; stroke-width: 1.733333; stroke-linecap: square"/>
    <g/>
   </g>
   <g id="line2d_204">
    <path d="M 274.176188 199.780634 
" clip-path="url(#p80869f4574)" style="fill: none; stroke: #22a022; stroke-width: 1.5; stroke-linecap: square"/>
    <defs>
     <path id="m3387a681f3" d="M -9.975388 9.975388 
L 9.975388 -9.975388 
M -9.975388 -9.975388 
L 9.975388 9.975388 
" style="stroke: #22a022"/>
    </defs>
    <g clip-path="url(#p80869f4574)">
     <use xlink:href="#m3387a681f3" x="274.176188" y="199.780634" style="fill: #22a022; stroke: #22a022"/>
    </g>
   </g>
   <g id="line2d_205">
    <path d="M 360.8064 207.264662 
L 380.514816 293.51808 
" style="fill: none; stroke: #ff7d0b; stroke-width: 1.733333; stroke-linecap: square"/>
    <g>
     <use xlink:href="#mc4582316ef" x="360.8064" y="207.264662" style="fill-opacity: 0; stroke: #ff7d0b; stroke-linejoin: miter"/>
     <use xlink:href="#mc4582316ef" x="380.514816" y="293.51808" style="fill-opacity: 0; stroke: #ff7d0b; stroke-linejoin: miter"/>
    </g>
   </g>
   <g id="line2d_206">
    <path d="M 360.8064 203.054897 
L 380.514816 206.70336 
" style="fill: none; stroke: #1874b4; stroke-width: 1.733333; stroke-linecap: square"/>
    <g>
     <use xlink:href="#ma77eae41b7" x="360.8064" y="203.054897" style="fill-opacity: 0; stroke: #1874b4"/>
     <use xlink:href="#ma77eae41b7" x="380.514816" y="206.70336" style="fill-opacity: 0; stroke: #1874b4"/>
    </g>
   </g>
   <g id="line2d_207">
    <path d="M 360.8064 199.780634 
L 380.514816 119.88864 
" style="fill: none; stroke: #22a022; stroke-width: 1.733333; stroke-linecap: square"/>
    <g>
     <use xlink:href="#m42b50e3132" x="360.8064" y="199.780634" style="fill-opacity: 0; stroke: #22a022; stroke-linejoin: bevel"/>
     <use xlink:href="#m42b50e3132" x="380.514816" y="119.88864" style="fill-opacity: 0; stroke: #22a022; stroke-linejoin: bevel"/>
    </g>
   </g>
   <g id="line2d_208">
    <path d="M 360.8064 298.944 
L 360.8064 27.648 
" style="fill: none; stroke: #000000; stroke-width: 1.5; stroke-linecap: square"/>
   </g>
   <g id="patch_3">
    <path d="M 57.6 298.944 
L 360.8064 298.944 
" style="fill: none; stroke: #000000; stroke-width: 0.8; stroke-linejoin: miter; stroke-linecap: square"/>
   </g>
   <g id="patch_4">
    <path d="M 57.6 27.648 
L 360.8064 27.648 
" style="fill: none; stroke: #000000; stroke-width: 0.8; stroke-linejoin: miter; stroke-linecap: square"/>
   </g>
   <g id="text_17">
    <!-- LQ -->
    <g transform="translate(386.578944 297.381205) scale(0.14 -0.14)">
     <defs>
      <path id="DejaVuSans-4c" d="M 628 4666 
L 1259 4666 
L 1259 531 
L 3531 531 
L 3531 0 
L 628 0 
L 628 4666 
z
" transform="scale(0.015625)"/>
      <path id="DejaVuSans-51" d="M 2522 4238 
Q 1834 4238 1429 3725 
Q 1025 3213 1025 2328 
Q 1025 1447 1429 934 
Q 1834 422 2522 422 
Q 3209 422 3611 934 
Q 4013 1447 4013 2328 
Q 4013 3213 3611 3725 
Q 3209 4238 2522 4238 
z
M 3406 84 
L 4238 -825 
L 3475 -825 
L 2784 -78 
Q 2681 -84 2626 -87 
Q 2572 -91 2522 -91 
Q 1538 -91 948 567 
Q 359 1225 359 2328 
Q 359 3434 948 4092 
Q 1538 4750 2522 4750 
Q 3503 4750 4090 4092 
Q 4678 3434 4678 2328 
Q 4678 1516 4351 937 
Q 4025 359 3406 84 
z
" transform="scale(0.015625)"/>
     </defs>
     <use xlink:href="#DejaVuSans-4c"/>
     <use xlink:href="#DejaVuSans-51" x="55.712891"/>
    </g>
   </g>
   <g id="text_18">
    <!-- Como -->
    <g transform="translate(386.578944 210.566485) scale(0.14 -0.14)">
     <defs>
      <path id="DejaVuSans-43" d="M 4122 4306 
L 4122 3641 
Q 3803 3938 3442 4084 
Q 3081 4231 2675 4231 
Q 1875 4231 1450 3742 
Q 1025 3253 1025 2328 
Q 1025 1406 1450 917 
Q 1875 428 2675 428 
Q 3081 428 3442 575 
Q 3803 722 4122 1019 
L 4122 359 
Q 3791 134 3420 21 
Q 3050 -91 2638 -91 
Q 1578 -91 968 557 
Q 359 1206 359 2328 
Q 359 3453 968 4101 
Q 1578 4750 2638 4750 
Q 3056 4750 3426 4639 
Q 3797 4528 4122 4306 
z
" transform="scale(0.015625)"/>
     </defs>
     <use xlink:href="#DejaVuSans-43"/>
     <use xlink:href="#DejaVuSans-6f" x="69.824219"/>
     <use xlink:href="#DejaVuSans-6d" x="131.005859"/>
     <use xlink:href="#DejaVuSans-6f" x="228.417969"/>
    </g>
   </g>
   <g id="text_19">
    <!-- COMO-10 d -->
    <g transform="translate(386.578944 123.751765) scale(0.14 -0.14)">
     <defs>
      <path id="DejaVuSans-4f" d="M 2522 4238 
Q 1834 4238 1429 3725 
Q 1025 3213 1025 2328 
Q 1025 1447 1429 934 
Q 1834 422 2522 422 
Q 3209 422 3611 934 
Q 4013 1447 4013 2328 
Q 4013 3213 3611 3725 
Q 3209 4238 2522 4238 
z
M 2522 4750 
Q 3503 4750 4090 4092 
Q 4678 3434 4678 2328 
Q 4678 1225 4090 567 
Q 3503 -91 2522 -91 
Q 1538 -91 948 565 
Q 359 1222 359 2328 
Q 359 3434 948 4092 
Q 1538 4750 2522 4750 
z
" transform="scale(0.015625)"/>
      <path id="DejaVuSans-4d" d="M 628 4666 
L 1569 4666 
L 2759 1491 
L 3956 4666 
L 4897 4666 
L 4897 0 
L 4281 0 
L 4281 4097 
L 3078 897 
L 2444 897 
L 1241 4097 
L 1241 0 
L 628 0 
L 628 4666 
z
" transform="scale(0.015625)"/>
     </defs>
     <use xlink:href="#DejaVuSans-43"/>
     <use xlink:href="#DejaVuSans-4f" x="69.824219"/>
     <use xlink:href="#DejaVuSans-4d" x="148.535156"/>
     <use xlink:href="#DejaVuSans-4f" x="234.814453"/>
     <use xlink:href="#DejaVuSans-2d" x="316.275391"/>
     <use xlink:href="#DejaVuSans-31" x="352.359375"/>
     <use xlink:href="#DejaVuSans-30" x="415.982422"/>
     <use xlink:href="#DejaVuSans-20" x="479.605469"/>
     <use xlink:href="#DejaVuSans-64" x="511.392578"/>
    </g>
   </g>
   <g id="text_20">
    <!-- best 2016 -->
    <g transform="translate(386.578944 36.937045) scale(0.14 -0.14)">
     <defs>
      <path id="DejaVuSans-62" d="M 3116 1747 
Q 3116 2381 2855 2742 
Q 2594 3103 2138 3103 
Q 1681 3103 1420 2742 
Q 1159 2381 1159 1747 
Q 1159 1113 1420 752 
Q 1681 391 2138 391 
Q 2594 391 2855 752 
Q 3116 1113 3116 1747 
z
M 1159 2969 
Q 1341 3281 1617 3432 
Q 1894 3584 2278 3584 
Q 2916 3584 3314 3078 
Q 3713 2572 3713 1747 
Q 3713 922 3314 415 
Q 2916 -91 2278 -91 
Q 1894 -91 1617 61 
Q 1341 213 1159 525 
L 1159 0 
L 581 0 
L 581 4863 
L 1159 4863 
L 1159 2969 
z
" transform="scale(0.015625)"/>
     </defs>
     <use xlink:href="#DejaVuSans-62"/>
     <use xlink:href="#DejaVuSans-65" x="63.476562"/>
     <use xlink:href="#DejaVuSans-73" x="125"/>
     <use xlink:href="#DejaVuSans-74" x="177.099609"/>
     <use xlink:href="#DejaVuSans-20" x="216.308594"/>
     <use xlink:href="#DejaVuSans-32" x="248.095703"/>
     <use xlink:href="#DejaVuSans-30" x="311.71875"/>
     <use xlink:href="#DejaVuSans-31" x="375.341797"/>
     <use xlink:href="#DejaVuSans-36" x="438.964844"/>
    </g>
   </g>
   <g id="text_21">
    <!-- bbob-biobj f19, 5-D -->
    <g transform="translate(60.632064 37.199554) scale(0.09 -0.09)">
     <defs>
      <path id="DejaVuSans-6a" d="M 603 3500 
L 1178 3500 
L 1178 -63 
Q 1178 -731 923 -1031 
Q 669 -1331 103 -1331 
L -116 -1331 
L -116 -844 
L 38 -844 
Q 366 -844 484 -692 
Q 603 -541 603 -63 
L 603 3500 
z
M 603 4863 
L 1178 4863 
L 1178 4134 
L 603 4134 
L 603 4863 
z
" transform="scale(0.015625)"/>
      <path id="DejaVuSans-39" d="M 703 97 
L 703 672 
Q 941 559 1184 500 
Q 1428 441 1663 441 
Q 2288 441 2617 861 
Q 2947 1281 2994 2138 
Q 2813 1869 2534 1725 
Q 2256 1581 1919 1581 
Q 1219 1581 811 2004 
Q 403 2428 403 3163 
Q 403 3881 828 4315 
Q 1253 4750 1959 4750 
Q 2769 4750 3195 4129 
Q 3622 3509 3622 2328 
Q 3622 1225 3098 567 
Q 2575 -91 1691 -91 
Q 1453 -91 1209 -44 
Q 966 3 703 97 
z
M 1959 2075 
Q 2384 2075 2632 2365 
Q 2881 2656 2881 3163 
Q 2881 3666 2632 3958 
Q 2384 4250 1959 4250 
Q 1534 4250 1286 3958 
Q 1038 3666 1038 3163 
Q 1038 2656 1286 2365 
Q 1534 2075 1959 2075 
z
" transform="scale(0.015625)"/>
      <path id="DejaVuSans-44" d="M 1259 4147 
L 1259 519 
L 2022 519 
Q 2988 519 3436 956 
Q 3884 1394 3884 2338 
Q 3884 3275 3436 3711 
Q 2988 4147 2022 4147 
L 1259 4147 
z
M 628 4666 
L 1925 4666 
Q 3281 4666 3915 4102 
Q 4550 3538 4550 2338 
Q 4550 1131 3912 565 
Q 3275 0 1925 0 
L 628 0 
L 628 4666 
z
" transform="scale(0.015625)"/>
     </defs>
     <use xlink:href="#DejaVuSans-62"/>
     <use xlink:href="#DejaVuSans-62" x="63.476562"/>
     <use xlink:href="#DejaVuSans-6f" x="126.953125"/>
     <use xlink:href="#DejaVuSans-62" x="188.134766"/>
     <use xlink:href="#DejaVuSans-2d" x="251.611328"/>
     <use xlink:href="#DejaVuSans-62" x="287.695312"/>
     <use xlink:href="#DejaVuSans-69" x="351.171875"/>
     <use xlink:href="#DejaVuSans-6f" x="378.955078"/>
     <use xlink:href="#DejaVuSans-62" x="440.136719"/>
     <use xlink:href="#DejaVuSans-6a" x="503.613281"/>
     <use xlink:href="#DejaVuSans-20" x="531.396484"/>
     <use xlink:href="#DejaVuSans-66" x="563.183594"/>
     <use xlink:href="#DejaVuSans-31" x="598.388672"/>
     <use xlink:href="#DejaVuSans-39" x="662.011719"/>
     <use xlink:href="#DejaVuSans-2c" x="725.634766"/>
     <use xlink:href="#DejaVuSans-20" x="757.421875"/>
     <use xlink:href="#DejaVuSans-35" x="789.208984"/>
     <use xlink:href="#DejaVuSans-2d" x="852.832031"/>
     <use xlink:href="#DejaVuSans-44" x="888.916016"/>
    </g>
    <!-- 58 targets: 1..-1.0e-4 -->
    <g transform="translate(60.632064 47.277585) scale(0.09 -0.09)">
     <defs>
      <path id="DejaVuSans-3a" d="M 750 794 
L 1409 794 
L 1409 0 
L 750 0 
L 750 794 
z
M 750 3309 
L 1409 3309 
L 1409 2516 
L 750 2516 
L 750 3309 
z
" transform="scale(0.015625)"/>
     </defs>
     <use xlink:href="#DejaVuSans-35"/>
     <use xlink:href="#DejaVuSans-38" x="63.623047"/>
     <use xlink:href="#DejaVuSans-20" x="127.246094"/>
     <use xlink:href="#DejaVuSans-74" x="159.033203"/>
     <use xlink:href="#DejaVuSans-61" x="198.242188"/>
     <use xlink:href="#DejaVuSans-72" x="259.521484"/>
     <use xlink:href="#DejaVuSans-67" x="298.884766"/>
     <use xlink:href="#DejaVuSans-65" x="362.361328"/>
     <use xlink:href="#DejaVuSans-74" x="423.884766"/>
     <use xlink:href="#DejaVuSans-73" x="463.09375"/>
     <use xlink:href="#DejaVuSans-3a" x="515.193359"/>
     <use xlink:href="#DejaVuSans-20" x="548.884766"/>
     <use xlink:href="#DejaVuSans-31" x="580.671875"/>
     <use xlink:href="#DejaVuSans-2e" x="644.294922"/>
     <use xlink:href="#DejaVuSans-2e" x="676.082031"/>
     <use xlink:href="#DejaVuSans-2d" x="707.869141"/>
     <use xlink:href="#DejaVuSans-31" x="743.953125"/>
     <use xlink:href="#DejaVuSans-2e" x="807.576172"/>
     <use xlink:href="#DejaVuSans-30" x="839.363281"/>
     <use xlink:href="#DejaVuSans-65" x="902.986328"/>
     <use xlink:href="#DejaVuSans-2d" x="964.509766"/>
     <use xlink:href="#DejaVuSans-34" x="1000.59375"/>
    </g>
    <!-- 10 instances -->
    <g transform="translate(60.632064 57.355616) scale(0.09 -0.09)">
     <use xlink:href="#DejaVuSans-31"/>
     <use xlink:href="#DejaVuSans-30" x="63.623047"/>
     <use xlink:href="#DejaVuSans-20" x="127.246094"/>
     <use xlink:href="#DejaVuSans-69" x="159.033203"/>
     <use xlink:href="#DejaVuSans-6e" x="186.816406"/>
     <use xlink:href="#DejaVuSans-73" x="250.195312"/>
     <use xlink:href="#DejaVuSans-74" x="302.294922"/>
     <use xlink:href="#DejaVuSans-61" x="341.503906"/>
     <use xlink:href="#DejaVuSans-6e" x="402.783203"/>
     <use xlink:href="#DejaVuSans-63" x="466.162109"/>
     <use xlink:href="#DejaVuSans-65" x="521.142578"/>
     <use xlink:href="#DejaVuSans-73" x="582.666016"/>
    </g>
   </g>
   <g id="text_22">
    <!-- v2.6.1.152, hv-hash=ff0e71e8cd978373 -->
    <g style="fill: #808080" transform="translate(107.804762 294.151352) scale(0.1 -0.1)">
     <defs>
      <path id="DejaVuSans-68" d="M 3513 2113 
L 3513 0 
L 2938 0 
L 2938 2094 
Q 2938 2591 2744 2837 
Q 2550 3084 2163 3084 
Q 1697 3084 1428 2787 
Q 1159 2491 1159 1978 
L 1159 0 
L 581 0 
L 581 4863 
L 1159 4863 
L 1159 2956 
Q 1366 3272 1645 3428 
Q 1925 3584 2291 3584 
Q 2894 3584 3203 3211 
Q 3513 2838 3513 2113 
z
" transform="scale(0.015625)"/>
      <path id="DejaVuSans-3d" d="M 678 2906 
L 4684 2906 
L 4684 2381 
L 678 2381 
L 678 2906 
z
M 678 1631 
L 4684 1631 
L 4684 1100 
L 678 1100 
L 678 1631 
z
" transform="scale(0.015625)"/>
     </defs>
     <use xlink:href="#DejaVuSans-76"/>
     <use xlink:href="#DejaVuSans-32" x="59.179688"/>
     <use xlink:href="#DejaVuSans-2e" x="122.802734"/>
     <use xlink:href="#DejaVuSans-36" x="154.589844"/>
     <use xlink:href="#DejaVuSans-2e" x="218.212891"/>
     <use xlink:href="#DejaVuSans-31" x="250"/>
     <use xlink:href="#DejaVuSans-2e" x="313.623047"/>
     <use xlink:href="#DejaVuSans-31" x="345.410156"/>
     <use xlink:href="#DejaVuSans-35" x="409.033203"/>
     <use xlink:href="#DejaVuSans-32" x="472.65625"/>
     <use xlink:href="#DejaVuSans-2c" x="536.279297"/>
     <use xlink:href="#DejaVuSans-20" x="568.066406"/>
     <use xlink:href="#DejaVuSans-68" x="599.853516"/>
     <use xlink:href="#DejaVuSans-76" x="663.232422"/>
     <use xlink:href="#DejaVuSans-2d" x="719.787109"/>
     <use xlink:href="#DejaVuSans-68" x="755.871094"/>
     <use xlink:href="#DejaVuSans-61" x="819.25"/>
     <use xlink:href="#DejaVuSans-73" x="880.529297"/>
     <use xlink:href="#DejaVuSans-68" x="932.628906"/>
     <use xlink:href="#DejaVuSans-3d" x="996.007812"/>
     <use xlink:href="#DejaVuSans-66" x="1079.796875"/>
     <use xlink:href="#DejaVuSans-66" x="1115.001953"/>
     <use xlink:href="#DejaVuSans-30" x="1150.207031"/>
     <use xlink:href="#DejaVuSans-65" x="1213.830078"/>
     <use xlink:href="#DejaVuSans-37" x="1275.353516"/>
     <use xlink:href="#DejaVuSans-31" x="1338.976562"/>
     <use xlink:href="#DejaVuSans-65" x="1402.599609"/>
     <use xlink:href="#DejaVuSans-38" x="1464.123047"/>
     <use xlink:href="#DejaVuSans-63" x="1527.746094"/>
     <use xlink:href="#DejaVuSans-64" x="1582.726562"/>
     <use xlink:href="#DejaVuSans-39" x="1646.203125"/>
     <use xlink:href="#DejaVuSans-37" x="1709.826172"/>
     <use xlink:href="#DejaVuSans-38" x="1773.449219"/>
     <use xlink:href="#DejaVuSans-33" x="1837.072266"/>
     <use xlink:href="#DejaVuSans-37" x="1900.695312"/>
     <use xlink:href="#DejaVuSans-33" x="1964.318359"/>
    </g>
   </g>
   <g id="text_23">
    <!-- 19 sep. Elli./Gallagher 101 -->
    <g transform="translate(77.256325 21.648) scale(0.2 -0.2)">
     <defs>
      <path id="DejaVuSans-45" d="M 628 4666 
L 3578 4666 
L 3578 4134 
L 1259 4134 
L 1259 2753 
L 3481 2753 
L 3481 2222 
L 1259 2222 
L 1259 531 
L 3634 531 
L 3634 0 
L 628 0 
L 628 4666 
z
" transform="scale(0.015625)"/>
      <path id="DejaVuSans-47" d="M 3809 666 
L 3809 1919 
L 2778 1919 
L 2778 2438 
L 4434 2438 
L 4434 434 
Q 4069 175 3628 42 
Q 3188 -91 2688 -91 
Q 1594 -91 976 548 
Q 359 1188 359 2328 
Q 359 3472 976 4111 
Q 1594 4750 2688 4750 
Q 3144 4750 3555 4637 
Q 3966 4525 4313 4306 
L 4313 3634 
Q 3963 3931 3569 4081 
Q 3175 4231 2741 4231 
Q 1884 4231 1454 3753 
Q 1025 3275 1025 2328 
Q 1025 1384 1454 906 
Q 1884 428 2741 428 
Q 3075 428 3337 486 
Q 3600 544 3809 666 
z
" transform="scale(0.015625)"/>
     </defs>
     <use xlink:href="#DejaVuSans-31"/>
     <use xlink:href="#DejaVuSans-39" x="63.623047"/>
     <use xlink:href="#DejaVuSans-20" x="127.246094"/>
     <use xlink:href="#DejaVuSans-73" x="159.033203"/>
     <use xlink:href="#DejaVuSans-65" x="211.132812"/>
     <use xlink:href="#DejaVuSans-70" x="272.65625"/>
     <use xlink:href="#DejaVuSans-2e" x="336.132812"/>
     <use xlink:href="#DejaVuSans-20" x="367.919922"/>
     <use xlink:href="#DejaVuSans-45" x="399.707031"/>
     <use xlink:href="#DejaVuSans-6c" x="462.890625"/>
     <use xlink:href="#DejaVuSans-6c" x="490.673828"/>
     <use xlink:href="#DejaVuSans-69" x="518.457031"/>
     <use xlink:href="#DejaVuSans-2e" x="546.240234"/>
     <use xlink:href="#DejaVuSans-2f" x="578.027344"/>
     <use xlink:href="#DejaVuSans-47" x="611.71875"/>
     <use xlink:href="#DejaVuSans-61" x="689.208984"/>
     <use xlink:href="#DejaVuSans-6c" x="750.488281"/>
     <use xlink:href="#DejaVuSans-6c" x="778.271484"/>
     <use xlink:href="#DejaVuSans-61" x="806.054688"/>
     <use xlink:href="#DejaVuSans-67" x="867.333984"/>
     <use xlink:href="#DejaVuSans-68" x="930.810547"/>
     <use xlink:href="#DejaVuSans-65" x="994.189453"/>
     <use xlink:href="#DejaVuSans-72" x="1055.712891"/>
     <use xlink:href="#DejaVuSans-20" x="1096.826172"/>
     <use xlink:href="#DejaVuSans-31" x="1128.613281"/>
     <use xlink:href="#DejaVuSans-30" x="1192.236328"/>
     <use xlink:href="#DejaVuSans-31" x="1255.859375"/>
    </g>
   </g>
  </g>
 </g>
 <defs>
  <clipPath id="p80869f4574">
   <rect x="57.6" y="27.648" width="303.2064" height="271.296"/>
  </clipPath>
 </defs>
</svg>
