<?xml version="1.0" encoding="utf-8" standalone="no"?>
<!DOCTYPE svg PUBLIC "-//W3C//DTD SVG 1.1//EN"
  "http://www.w3.org/Graphics/SVG/1.1/DTD/svg11.dtd">
<svg xmlns:xlink="http://www.w3.org/1999/xlink" width="460.8pt" height="345.6pt" viewBox="0 0 460.8 345.6" xmlns="http://www.w3.org/2000/svg" version="1.1">
 <metadata>
  <rdf:RDF xmlns:dc="http://purl.org/dc/elements/1.1/" xmlns:cc="http://creativecommons.org/ns#" xmlns:rdf="http://www.w3.org/1999/02/22-rdf-syntax-ns#">
   <cc:Work>
    <dc:type rdf:resource="http://purl.org/dc/dcmitype/StillImage"/>
    <dc:date>2023-03-13T19:37:13.521810</dc:date>
    <dc:format>image/svg+xml</dc:format>
    <dc:creator>
     <cc:Agent>
      <dc:title>Matplotlib v3.7.0, https://matplotlib.org/</dc:title>
     </cc:Agent>
    </dc:creator>
   </cc:Work>
  </rdf:RDF>
 </metadata>
 <defs>
  <style type="text/css">*{stroke-linejoin: round; stroke-linecap: butt}</style>
 </defs>
 <g id="figure_1">
  <g id="patch_1">
   <path d="M 0 345.6 
L 460.8 345.6 
L 460.8 0 
L 0 0 
z
" style="fill: #ffffff"/>
  </g>
  <g id="axes_1">
   <g id="patch_2">
    <path d="M 57.6 298.944 
L 360.8064 298.944 
L 360.8064 27.648 
L 57.6 27.648 
z
" style="fill: #ffffff"/>
   </g>
   <g id="line2d_1">
    <path d="M 78.266603 298.944 
L 78.266603 294.266483 
L 103.544339 294.266483 
L 103.544339 284.911448 
L 128.133992 284.911448 
L 128.133992 275.556414 
L 145.415054 275.556414 
L 145.415054 270.878897 
L 154.156931 270.878897 
L 154.156931 256.846345 
L 159.651731 256.846345 
L 159.651731 247.49131 
L 164.161708 247.49131 
L 164.161708 242.813793 
L 168.560441 242.813793 
L 168.560441 233.458759 
L 174.010854 233.458759 
L 174.010854 219.426207 
L 177.620009 219.426207 
L 177.620009 210.071172 
L 182.444795 210.071172 
L 182.444795 200.716138 
L 185.563605 200.716138 
L 185.563605 191.361103 
L 194.319998 191.361103 
L 194.319998 186.683586 
L 203.690385 186.683586 
L 203.690385 172.651034 
L 228.833813 172.651034 
L 228.833813 167.973517 
L 231.032143 167.973517 
L 231.032143 153.940966 
L 234.892961 153.940966 
L 234.892961 144.585931 
L 236.357243 144.585931 
L 236.357243 139.908414 
L 238.136955 139.908414 
L 238.136955 125.875862 
L 240.41974 125.875862 
L 240.41974 121.198345 
L 244.496159 121.198345 
L 244.496159 107.165793 
L 247.761705 107.165793 
L 247.761705 97.810759 
L 249.851552 97.810759 
L 249.851552 88.455724 
L 252.985897 88.455724 
L 252.985897 83.778207 
L 256.152844 83.778207 
L 256.152844 74.423172 
L 260.113215 74.423172 
L 260.113215 60.390621 
L 360.8064 60.390621 
" style="fill: none; stroke: #faf0e6; stroke-width: 5; stroke-linecap: square"/>
   </g>
   <g id="line2d_2">
    <defs>
     <path id="m2a23c5154a" d="M -0 6.22254 
L 6.22254 0 
L 0 -6.22254 
L -6.22254 -0 
z
" style="stroke: #faf0e6; stroke-linejoin: miter"/>
    </defs>
    <g>
     <use xlink:href="#m2a23c5154a" x="185.563605" y="191.361103" style="fill: #faf0e6; stroke: #faf0e6; stroke-linejoin: miter"/>
     <use xlink:href="#m2a23c5154a" x="247.761705" y="107.165793" style="fill: #faf0e6; stroke: #faf0e6; stroke-linejoin: miter"/>
     <use xlink:href="#m2a23c5154a" x="260.113215" y="60.390621" style="fill: #faf0e6; stroke: #faf0e6; stroke-linejoin: miter"/>
     <use xlink:href="#m2a23c5154a" x="260.113215" y="60.390621" style="fill: #faf0e6; stroke: #faf0e6; stroke-linejoin: miter"/>
     <use xlink:href="#m2a23c5154a" x="360.8064" y="60.390621" style="fill: #faf0e6; stroke: #faf0e6; stroke-linejoin: miter"/>
    </g>
   </g>
   <g id="line2d_3">
    <path style="fill: none; stroke: #faf0e6; stroke-width: 5; stroke-linecap: square"/>
    <g/>
   </g>
   <g id="line2d_4">
    <path d="M 360.8064 60.390621 
L 380.514816 33.07392 
" style="fill: none; stroke: #faf0e6; stroke-width: 5; stroke-linecap: square"/>
    <g>
     <use xlink:href="#m2a23c5154a" x="360.8064" y="60.390621" style="fill: #faf0e6; stroke: #faf0e6; stroke-linejoin: miter"/>
     <use xlink:href="#m2a23c5154a" x="380.514816" y="33.07392" style="fill: #faf0e6; stroke: #faf0e6; stroke-linejoin: miter"/>
    </g>
   </g>
   <g id="matplotlib.axis_1">
    <g id="xtick_1">
     <g id="line2d_5">
      <path d="M 57.6 298.944 
L 57.6 27.648 
" clip-path="url(#p718e60a0b5)" style="fill: none; stroke: #b0b0b0; stroke-width: 0.8; stroke-linecap: square"/>
     </g>
     <g id="line2d_6">
      <defs>
       <path id="m2a1b9cd17d" d="M 0 0 
L 0 3.5 
" style="stroke: #000000; stroke-width: 0.8"/>
      </defs>
      <g>
       <use xlink:href="#m2a1b9cd17d" x="57.6" y="298.944" style="stroke: #000000; stroke-width: 0.8"/>
      </g>
     </g>
     <g id="line2d_7">
      <defs>
       <path id="md61d06fe15" d="M 0 0 
L 0 -3.5 
" style="stroke: #000000; stroke-width: 0.8"/>
      </defs>
      <g>
       <use xlink:href="#md61d06fe15" x="57.6" y="27.648" style="stroke: #000000; stroke-width: 0.8"/>
      </g>
     </g>
     <g id="text_1">
      <!-- 0 -->
      <g transform="translate(52.51 318.1015) scale(0.16 -0.16)">
       <defs>
        <path id="DejaVuSans-30" d="M 2034 4250 
Q 1547 4250 1301 3770 
Q 1056 3291 1056 2328 
Q 1056 1369 1301 889 
Q 1547 409 2034 409 
Q 2525 409 2770 889 
Q 3016 1369 3016 2328 
Q 3016 3291 2770 3770 
Q 2525 4250 2034 4250 
z
M 2034 4750 
Q 2819 4750 3233 4129 
Q 3647 3509 3647 2328 
Q 3647 1150 3233 529 
Q 2819 -91 2034 -91 
Q 1250 -91 836 529 
Q 422 1150 422 2328 
Q 422 3509 836 4129 
Q 1250 4750 2034 4750 
z
" transform="scale(0.015625)"/>
       </defs>
       <use xlink:href="#DejaVuSans-30"/>
      </g>
     </g>
    </g>
    <g id="xtick_2">
     <g id="line2d_8">
      <path d="M 100.9152 298.944 
L 100.9152 27.648 
" clip-path="url(#p718e60a0b5)" style="fill: none; stroke: #b0b0b0; stroke-width: 0.8; stroke-linecap: square"/>
     </g>
     <g id="line2d_9">
      <g>
       <use xlink:href="#m2a1b9cd17d" x="100.9152" y="298.944" style="stroke: #000000; stroke-width: 0.8"/>
      </g>
     </g>
     <g id="line2d_10">
      <g>
       <use xlink:href="#md61d06fe15" x="100.9152" y="27.648" style="stroke: #000000; stroke-width: 0.8"/>
      </g>
     </g>
     <g id="text_2">
      <!-- 1 -->
      <g transform="translate(95.8252 318.1015) scale(0.16 -0.16)">
       <defs>
        <path id="DejaVuSans-31" d="M 794 531 
L 1825 531 
L 1825 4091 
L 703 3866 
L 703 4441 
L 1819 4666 
L 2450 4666 
L 2450 531 
L 3481 531 
L 3481 0 
L 794 0 
L 794 531 
z
" transform="scale(0.015625)"/>
       </defs>
       <use xlink:href="#DejaVuSans-31"/>
      </g>
     </g>
    </g>
    <g id="xtick_3">
     <g id="line2d_11">
      <path d="M 144.2304 298.944 
L 144.2304 27.648 
" clip-path="url(#p718e60a0b5)" style="fill: none; stroke: #b0b0b0; stroke-width: 0.8; stroke-linecap: square"/>
     </g>
     <g id="line2d_12">
      <g>
       <use xlink:href="#m2a1b9cd17d" x="144.2304" y="298.944" style="stroke: #000000; stroke-width: 0.8"/>
      </g>
     </g>
     <g id="line2d_13">
      <g>
       <use xlink:href="#md61d06fe15" x="144.2304" y="27.648" style="stroke: #000000; stroke-width: 0.8"/>
      </g>
     </g>
     <g id="text_3">
      <!-- 2 -->
      <g transform="translate(139.1404 318.1015) scale(0.16 -0.16)">
       <defs>
        <path id="DejaVuSans-32" d="M 1228 531 
L 3431 531 
L 3431 0 
L 469 0 
L 469 531 
Q 828 903 1448 1529 
Q 2069 2156 2228 2338 
Q 2531 2678 2651 2914 
Q 2772 3150 2772 3378 
Q 2772 3750 2511 3984 
Q 2250 4219 1831 4219 
Q 1534 4219 1204 4116 
Q 875 4013 500 3803 
L 500 4441 
Q 881 4594 1212 4672 
Q 1544 4750 1819 4750 
Q 2544 4750 2975 4387 
Q 3406 4025 3406 3419 
Q 3406 3131 3298 2873 
Q 3191 2616 2906 2266 
Q 2828 2175 2409 1742 
Q 1991 1309 1228 531 
z
" transform="scale(0.015625)"/>
       </defs>
       <use xlink:href="#DejaVuSans-32"/>
      </g>
     </g>
    </g>
    <g id="xtick_4">
     <g id="line2d_14">
      <path d="M 187.5456 298.944 
L 187.5456 27.648 
" clip-path="url(#p718e60a0b5)" style="fill: none; stroke: #b0b0b0; stroke-width: 0.8; stroke-linecap: square"/>
     </g>
     <g id="line2d_15">
      <g>
       <use xlink:href="#m2a1b9cd17d" x="187.5456" y="298.944" style="stroke: #000000; stroke-width: 0.8"/>
      </g>
     </g>
     <g id="line2d_16">
      <g>
       <use xlink:href="#md61d06fe15" x="187.5456" y="27.648" style="stroke: #000000; stroke-width: 0.8"/>
      </g>
     </g>
     <g id="text_4">
      <!-- 3 -->
      <g transform="translate(182.4556 318.1015) scale(0.16 -0.16)">
       <defs>
        <path id="DejaVuSans-33" d="M 2597 2516 
Q 3050 2419 3304 2112 
Q 3559 1806 3559 1356 
Q 3559 666 3084 287 
Q 2609 -91 1734 -91 
Q 1441 -91 1130 -33 
Q 819 25 488 141 
L 488 750 
Q 750 597 1062 519 
Q 1375 441 1716 441 
Q 2309 441 2620 675 
Q 2931 909 2931 1356 
Q 2931 1769 2642 2001 
Q 2353 2234 1838 2234 
L 1294 2234 
L 1294 2753 
L 1863 2753 
Q 2328 2753 2575 2939 
Q 2822 3125 2822 3475 
Q 2822 3834 2567 4026 
Q 2313 4219 1838 4219 
Q 1578 4219 1281 4162 
Q 984 4106 628 3988 
L 628 4550 
Q 988 4650 1302 4700 
Q 1616 4750 1894 4750 
Q 2613 4750 3031 4423 
Q 3450 4097 3450 3541 
Q 3450 3153 3228 2886 
Q 3006 2619 2597 2516 
z
" transform="scale(0.015625)"/>
       </defs>
       <use xlink:href="#DejaVuSans-33"/>
      </g>
     </g>
    </g>
    <g id="xtick_5">
     <g id="line2d_17">
      <path d="M 230.8608 298.944 
L 230.8608 27.648 
" clip-path="url(#p718e60a0b5)" style="fill: none; stroke: #b0b0b0; stroke-width: 0.8; stroke-linecap: square"/>
     </g>
     <g id="line2d_18">
      <g>
       <use xlink:href="#m2a1b9cd17d" x="230.8608" y="298.944" style="stroke: #000000; stroke-width: 0.8"/>
      </g>
     </g>
     <g id="line2d_19">
      <g>
       <use xlink:href="#md61d06fe15" x="230.8608" y="27.648" style="stroke: #000000; stroke-width: 0.8"/>
      </g>
     </g>
     <g id="text_5">
      <!-- 4 -->
      <g transform="translate(225.7708 318.1015) scale(0.16 -0.16)">
       <defs>
        <path id="DejaVuSans-34" d="M 2419 4116 
L 825 1625 
L 2419 1625 
L 2419 4116 
z
M 2253 4666 
L 3047 4666 
L 3047 1625 
L 3713 1625 
L 3713 1100 
L 3047 1100 
L 3047 0 
L 2419 0 
L 2419 1100 
L 313 1100 
L 313 1709 
L 2253 4666 
z
" transform="scale(0.015625)"/>
       </defs>
       <use xlink:href="#DejaVuSans-34"/>
      </g>
     </g>
    </g>
    <g id="xtick_6">
     <g id="line2d_20">
      <path d="M 274.176 298.944 
L 274.176 27.648 
" clip-path="url(#p718e60a0b5)" style="fill: none; stroke: #b0b0b0; stroke-width: 0.8; stroke-linecap: square"/>
     </g>
     <g id="line2d_21">
      <g>
       <use xlink:href="#m2a1b9cd17d" x="274.176" y="298.944" style="stroke: #000000; stroke-width: 0.8"/>
      </g>
     </g>
     <g id="line2d_22">
      <g>
       <use xlink:href="#md61d06fe15" x="274.176" y="27.648" style="stroke: #000000; stroke-width: 0.8"/>
      </g>
     </g>
     <g id="text_6">
      <!-- 5 -->
      <g transform="translate(269.086 318.1015) scale(0.16 -0.16)">
       <defs>
        <path id="DejaVuSans-35" d="M 691 4666 
L 3169 4666 
L 3169 4134 
L 1269 4134 
L 1269 2991 
Q 1406 3038 1543 3061 
Q 1681 3084 1819 3084 
Q 2600 3084 3056 2656 
Q 3513 2228 3513 1497 
Q 3513 744 3044 326 
Q 2575 -91 1722 -91 
Q 1428 -91 1123 -41 
Q 819 9 494 109 
L 494 744 
Q 775 591 1075 516 
Q 1375 441 1709 441 
Q 2250 441 2565 725 
Q 2881 1009 2881 1497 
Q 2881 1984 2565 2268 
Q 2250 2553 1709 2553 
Q 1456 2553 1204 2497 
Q 953 2441 691 2322 
L 691 4666 
z
" transform="scale(0.015625)"/>
       </defs>
       <use xlink:href="#DejaVuSans-35"/>
      </g>
     </g>
    </g>
    <g id="xtick_7">
     <g id="line2d_23">
      <path d="M 317.4912 298.944 
L 317.4912 27.648 
" clip-path="url(#p718e60a0b5)" style="fill: none; stroke: #b0b0b0; stroke-width: 0.8; stroke-linecap: square"/>
     </g>
     <g id="line2d_24">
      <g>
       <use xlink:href="#m2a1b9cd17d" x="317.4912" y="298.944" style="stroke: #000000; stroke-width: 0.8"/>
      </g>
     </g>
     <g id="line2d_25">
      <g>
       <use xlink:href="#md61d06fe15" x="317.4912" y="27.648" style="stroke: #000000; stroke-width: 0.8"/>
      </g>
     </g>
     <g id="text_7">
      <!-- 6 -->
      <g transform="translate(312.4012 318.1015) scale(0.16 -0.16)">
       <defs>
        <path id="DejaVuSans-36" d="M 2113 2584 
Q 1688 2584 1439 2293 
Q 1191 2003 1191 1497 
Q 1191 994 1439 701 
Q 1688 409 2113 409 
Q 2538 409 2786 701 
Q 3034 994 3034 1497 
Q 3034 2003 2786 2293 
Q 2538 2584 2113 2584 
z
M 3366 4563 
L 3366 3988 
Q 3128 4100 2886 4159 
Q 2644 4219 2406 4219 
Q 1781 4219 1451 3797 
Q 1122 3375 1075 2522 
Q 1259 2794 1537 2939 
Q 1816 3084 2150 3084 
Q 2853 3084 3261 2657 
Q 3669 2231 3669 1497 
Q 3669 778 3244 343 
Q 2819 -91 2113 -91 
Q 1303 -91 875 529 
Q 447 1150 447 2328 
Q 447 3434 972 4092 
Q 1497 4750 2381 4750 
Q 2619 4750 2861 4703 
Q 3103 4656 3366 4563 
z
" transform="scale(0.015625)"/>
       </defs>
       <use xlink:href="#DejaVuSans-36"/>
      </g>
     </g>
    </g>
    <g id="xtick_8">
     <g id="line2d_26">
      <path d="M 360.8064 298.944 
L 360.8064 27.648 
" clip-path="url(#p718e60a0b5)" style="fill: none; stroke: #b0b0b0; stroke-width: 0.8; stroke-linecap: square"/>
     </g>
     <g id="line2d_27">
      <g>
       <use xlink:href="#m2a1b9cd17d" x="360.8064" y="298.944" style="stroke: #000000; stroke-width: 0.8"/>
      </g>
     </g>
     <g id="line2d_28">
      <g>
       <use xlink:href="#md61d06fe15" x="360.8064" y="27.648" style="stroke: #000000; stroke-width: 0.8"/>
      </g>
     </g>
     <g id="text_8">
      <!-- 7 -->
      <g transform="translate(355.7164 318.1015) scale(0.16 -0.16)">
       <defs>
        <path id="DejaVuSans-37" d="M 525 4666 
L 3525 4666 
L 3525 4397 
L 1831 0 
L 1172 0 
L 2766 4134 
L 525 4134 
L 525 4666 
z
" transform="scale(0.015625)"/>
       </defs>
       <use xlink:href="#DejaVuSans-37"/>
      </g>
     </g>
    </g>
    <g id="xtick_9">
     <g id="line2d_29">
      <defs>
       <path id="mb1595f799b" d="M 0 0 
L 0 2 
" style="stroke: #000000; stroke-width: 0.6"/>
      </defs>
      <g>
       <use xlink:href="#mb1595f799b" x="70.639174" y="298.944" style="stroke: #000000; stroke-width: 0.6"/>
      </g>
     </g>
     <g id="line2d_30">
      <defs>
       <path id="mdecdef725c" d="M 0 0 
L 0 -2 
" style="stroke: #000000; stroke-width: 0.6"/>
      </defs>
      <g>
       <use xlink:href="#mdecdef725c" x="70.639174" y="27.648" style="stroke: #000000; stroke-width: 0.6"/>
      </g>
     </g>
    </g>
    <g id="xtick_10">
     <g id="line2d_31">
      <g>
       <use xlink:href="#mb1595f799b" x="78.266603" y="298.944" style="stroke: #000000; stroke-width: 0.6"/>
      </g>
     </g>
     <g id="line2d_32">
      <g>
       <use xlink:href="#mdecdef725c" x="78.266603" y="27.648" style="stroke: #000000; stroke-width: 0.6"/>
      </g>
     </g>
    </g>
    <g id="xtick_11">
     <g id="line2d_33">
      <g>
       <use xlink:href="#mb1595f799b" x="83.678349" y="298.944" style="stroke: #000000; stroke-width: 0.6"/>
      </g>
     </g>
     <g id="line2d_34">
      <g>
       <use xlink:href="#mdecdef725c" x="83.678349" y="27.648" style="stroke: #000000; stroke-width: 0.6"/>
      </g>
     </g>
    </g>
    <g id="xtick_12">
     <g id="line2d_35">
      <g>
       <use xlink:href="#mb1595f799b" x="87.876026" y="298.944" style="stroke: #000000; stroke-width: 0.6"/>
      </g>
     </g>
     <g id="line2d_36">
      <g>
       <use xlink:href="#mdecdef725c" x="87.876026" y="27.648" style="stroke: #000000; stroke-width: 0.6"/>
      </g>
     </g>
    </g>
    <g id="xtick_13">
     <g id="line2d_37">
      <g>
       <use xlink:href="#mb1595f799b" x="91.305777" y="298.944" style="stroke: #000000; stroke-width: 0.6"/>
      </g>
     </g>
     <g id="line2d_38">
      <g>
       <use xlink:href="#mdecdef725c" x="91.305777" y="27.648" style="stroke: #000000; stroke-width: 0.6"/>
      </g>
     </g>
    </g>
    <g id="xtick_14">
     <g id="line2d_39">
      <g>
       <use xlink:href="#mb1595f799b" x="94.205591" y="298.944" style="stroke: #000000; stroke-width: 0.6"/>
      </g>
     </g>
     <g id="line2d_40">
      <g>
       <use xlink:href="#mdecdef725c" x="94.205591" y="27.648" style="stroke: #000000; stroke-width: 0.6"/>
      </g>
     </g>
    </g>
    <g id="xtick_15">
     <g id="line2d_41">
      <g>
       <use xlink:href="#mb1595f799b" x="96.717523" y="298.944" style="stroke: #000000; stroke-width: 0.6"/>
      </g>
     </g>
     <g id="line2d_42">
      <g>
       <use xlink:href="#mdecdef725c" x="96.717523" y="27.648" style="stroke: #000000; stroke-width: 0.6"/>
      </g>
     </g>
    </g>
    <g id="xtick_16">
     <g id="line2d_43">
      <g>
       <use xlink:href="#mb1595f799b" x="98.933205" y="298.944" style="stroke: #000000; stroke-width: 0.6"/>
      </g>
     </g>
     <g id="line2d_44">
      <g>
       <use xlink:href="#mdecdef725c" x="98.933205" y="27.648" style="stroke: #000000; stroke-width: 0.6"/>
      </g>
     </g>
    </g>
    <g id="xtick_17">
     <g id="line2d_45">
      <g>
       <use xlink:href="#mb1595f799b" x="113.954374" y="298.944" style="stroke: #000000; stroke-width: 0.6"/>
      </g>
     </g>
     <g id="line2d_46">
      <g>
       <use xlink:href="#mdecdef725c" x="113.954374" y="27.648" style="stroke: #000000; stroke-width: 0.6"/>
      </g>
     </g>
    </g>
    <g id="xtick_18">
     <g id="line2d_47">
      <g>
       <use xlink:href="#mb1595f799b" x="121.581803" y="298.944" style="stroke: #000000; stroke-width: 0.6"/>
      </g>
     </g>
     <g id="line2d_48">
      <g>
       <use xlink:href="#mdecdef725c" x="121.581803" y="27.648" style="stroke: #000000; stroke-width: 0.6"/>
      </g>
     </g>
    </g>
    <g id="xtick_19">
     <g id="line2d_49">
      <g>
       <use xlink:href="#mb1595f799b" x="126.993549" y="298.944" style="stroke: #000000; stroke-width: 0.6"/>
      </g>
     </g>
     <g id="line2d_50">
      <g>
       <use xlink:href="#mdecdef725c" x="126.993549" y="27.648" style="stroke: #000000; stroke-width: 0.6"/>
      </g>
     </g>
    </g>
    <g id="xtick_20">
     <g id="line2d_51">
      <g>
       <use xlink:href="#mb1595f799b" x="131.191226" y="298.944" style="stroke: #000000; stroke-width: 0.6"/>
      </g>
     </g>
     <g id="line2d_52">
      <g>
       <use xlink:href="#mdecdef725c" x="131.191226" y="27.648" style="stroke: #000000; stroke-width: 0.6"/>
      </g>
     </g>
    </g>
    <g id="xtick_21">
     <g id="line2d_53">
      <g>
       <use xlink:href="#mb1595f799b" x="134.620977" y="298.944" style="stroke: #000000; stroke-width: 0.6"/>
      </g>
     </g>
     <g id="line2d_54">
      <g>
       <use xlink:href="#mdecdef725c" x="134.620977" y="27.648" style="stroke: #000000; stroke-width: 0.6"/>
      </g>
     </g>
    </g>
    <g id="xtick_22">
     <g id="line2d_55">
      <g>
       <use xlink:href="#mb1595f799b" x="137.520791" y="298.944" style="stroke: #000000; stroke-width: 0.6"/>
      </g>
     </g>
     <g id="line2d_56">
      <g>
       <use xlink:href="#mdecdef725c" x="137.520791" y="27.648" style="stroke: #000000; stroke-width: 0.6"/>
      </g>
     </g>
    </g>
    <g id="xtick_23">
     <g id="line2d_57">
      <g>
       <use xlink:href="#mb1595f799b" x="140.032723" y="298.944" style="stroke: #000000; stroke-width: 0.6"/>
      </g>
     </g>
     <g id="line2d_58">
      <g>
       <use xlink:href="#mdecdef725c" x="140.032723" y="27.648" style="stroke: #000000; stroke-width: 0.6"/>
      </g>
     </g>
    </g>
    <g id="xtick_24">
     <g id="line2d_59">
      <g>
       <use xlink:href="#mb1595f799b" x="142.248405" y="298.944" style="stroke: #000000; stroke-width: 0.6"/>
      </g>
     </g>
     <g id="line2d_60">
      <g>
       <use xlink:href="#mdecdef725c" x="142.248405" y="27.648" style="stroke: #000000; stroke-width: 0.6"/>
      </g>
     </g>
    </g>
    <g id="xtick_25">
     <g id="line2d_61">
      <g>
       <use xlink:href="#mb1595f799b" x="157.269574" y="298.944" style="stroke: #000000; stroke-width: 0.6"/>
      </g>
     </g>
     <g id="line2d_62">
      <g>
       <use xlink:href="#mdecdef725c" x="157.269574" y="27.648" style="stroke: #000000; stroke-width: 0.6"/>
      </g>
     </g>
    </g>
    <g id="xtick_26">
     <g id="line2d_63">
      <g>
       <use xlink:href="#mb1595f799b" x="164.897003" y="298.944" style="stroke: #000000; stroke-width: 0.6"/>
      </g>
     </g>
     <g id="line2d_64">
      <g>
       <use xlink:href="#mdecdef725c" x="164.897003" y="27.648" style="stroke: #000000; stroke-width: 0.6"/>
      </g>
     </g>
    </g>
    <g id="xtick_27">
     <g id="line2d_65">
      <g>
       <use xlink:href="#mb1595f799b" x="170.308749" y="298.944" style="stroke: #000000; stroke-width: 0.6"/>
      </g>
     </g>
     <g id="line2d_66">
      <g>
       <use xlink:href="#mdecdef725c" x="170.308749" y="27.648" style="stroke: #000000; stroke-width: 0.6"/>
      </g>
     </g>
    </g>
    <g id="xtick_28">
     <g id="line2d_67">
      <g>
       <use xlink:href="#mb1595f799b" x="174.506426" y="298.944" style="stroke: #000000; stroke-width: 0.6"/>
      </g>
     </g>
     <g id="line2d_68">
      <g>
       <use xlink:href="#mdecdef725c" x="174.506426" y="27.648" style="stroke: #000000; stroke-width: 0.6"/>
      </g>
     </g>
    </g>
    <g id="xtick_29">
     <g id="line2d_69">
      <g>
       <use xlink:href="#mb1595f799b" x="177.936177" y="298.944" style="stroke: #000000; stroke-width: 0.6"/>
      </g>
     </g>
     <g id="line2d_70">
      <g>
       <use xlink:href="#mdecdef725c" x="177.936177" y="27.648" style="stroke: #000000; stroke-width: 0.6"/>
      </g>
     </g>
    </g>
    <g id="xtick_30">
     <g id="line2d_71">
      <g>
       <use xlink:href="#mb1595f799b" x="180.835991" y="298.944" style="stroke: #000000; stroke-width: 0.6"/>
      </g>
     </g>
     <g id="line2d_72">
      <g>
       <use xlink:href="#mdecdef725c" x="180.835991" y="27.648" style="stroke: #000000; stroke-width: 0.6"/>
      </g>
     </g>
    </g>
    <g id="xtick_31">
     <g id="line2d_73">
      <g>
       <use xlink:href="#mb1595f799b" x="183.347923" y="298.944" style="stroke: #000000; stroke-width: 0.6"/>
      </g>
     </g>
     <g id="line2d_74">
      <g>
       <use xlink:href="#mdecdef725c" x="183.347923" y="27.648" style="stroke: #000000; stroke-width: 0.6"/>
      </g>
     </g>
    </g>
    <g id="xtick_32">
     <g id="line2d_75">
      <g>
       <use xlink:href="#mb1595f799b" x="185.563605" y="298.944" style="stroke: #000000; stroke-width: 0.6"/>
      </g>
     </g>
     <g id="line2d_76">
      <g>
       <use xlink:href="#mdecdef725c" x="185.563605" y="27.648" style="stroke: #000000; stroke-width: 0.6"/>
      </g>
     </g>
    </g>
    <g id="xtick_33">
     <g id="line2d_77">
      <g>
       <use xlink:href="#mb1595f799b" x="200.584774" y="298.944" style="stroke: #000000; stroke-width: 0.6"/>
      </g>
     </g>
     <g id="line2d_78">
      <g>
       <use xlink:href="#mdecdef725c" x="200.584774" y="27.648" style="stroke: #000000; stroke-width: 0.6"/>
      </g>
     </g>
    </g>
    <g id="xtick_34">
     <g id="line2d_79">
      <g>
       <use xlink:href="#mb1595f799b" x="208.212203" y="298.944" style="stroke: #000000; stroke-width: 0.6"/>
      </g>
     </g>
     <g id="line2d_80">
      <g>
       <use xlink:href="#mdecdef725c" x="208.212203" y="27.648" style="stroke: #000000; stroke-width: 0.6"/>
      </g>
     </g>
    </g>
    <g id="xtick_35">
     <g id="line2d_81">
      <g>
       <use xlink:href="#mb1595f799b" x="213.623949" y="298.944" style="stroke: #000000; stroke-width: 0.6"/>
      </g>
     </g>
     <g id="line2d_82">
      <g>
       <use xlink:href="#mdecdef725c" x="213.623949" y="27.648" style="stroke: #000000; stroke-width: 0.6"/>
      </g>
     </g>
    </g>
    <g id="xtick_36">
     <g id="line2d_83">
      <g>
       <use xlink:href="#mb1595f799b" x="217.821626" y="298.944" style="stroke: #000000; stroke-width: 0.6"/>
      </g>
     </g>
     <g id="line2d_84">
      <g>
       <use xlink:href="#mdecdef725c" x="217.821626" y="27.648" style="stroke: #000000; stroke-width: 0.6"/>
      </g>
     </g>
    </g>
    <g id="xtick_37">
     <g id="line2d_85">
      <g>
       <use xlink:href="#mb1595f799b" x="221.251377" y="298.944" style="stroke: #000000; stroke-width: 0.6"/>
      </g>
     </g>
     <g id="line2d_86">
      <g>
       <use xlink:href="#mdecdef725c" x="221.251377" y="27.648" style="stroke: #000000; stroke-width: 0.6"/>
      </g>
     </g>
    </g>
    <g id="xtick_38">
     <g id="line2d_87">
      <g>
       <use xlink:href="#mb1595f799b" x="224.151191" y="298.944" style="stroke: #000000; stroke-width: 0.6"/>
      </g>
     </g>
     <g id="line2d_88">
      <g>
       <use xlink:href="#mdecdef725c" x="224.151191" y="27.648" style="stroke: #000000; stroke-width: 0.6"/>
      </g>
     </g>
    </g>
    <g id="xtick_39">
     <g id="line2d_89">
      <g>
       <use xlink:href="#mb1595f799b" x="226.663123" y="298.944" style="stroke: #000000; stroke-width: 0.6"/>
      </g>
     </g>
     <g id="line2d_90">
      <g>
       <use xlink:href="#mdecdef725c" x="226.663123" y="27.648" style="stroke: #000000; stroke-width: 0.6"/>
      </g>
     </g>
    </g>
    <g id="xtick_40">
     <g id="line2d_91">
      <g>
       <use xlink:href="#mb1595f799b" x="228.878805" y="298.944" style="stroke: #000000; stroke-width: 0.6"/>
      </g>
     </g>
     <g id="line2d_92">
      <g>
       <use xlink:href="#mdecdef725c" x="228.878805" y="27.648" style="stroke: #000000; stroke-width: 0.6"/>
      </g>
     </g>
    </g>
    <g id="xtick_41">
     <g id="line2d_93">
      <g>
       <use xlink:href="#mb1595f799b" x="243.899974" y="298.944" style="stroke: #000000; stroke-width: 0.6"/>
      </g>
     </g>
     <g id="line2d_94">
      <g>
       <use xlink:href="#mdecdef725c" x="243.899974" y="27.648" style="stroke: #000000; stroke-width: 0.6"/>
      </g>
     </g>
    </g>
    <g id="xtick_42">
     <g id="line2d_95">
      <g>
       <use xlink:href="#mb1595f799b" x="251.527403" y="298.944" style="stroke: #000000; stroke-width: 0.6"/>
      </g>
     </g>
     <g id="line2d_96">
      <g>
       <use xlink:href="#mdecdef725c" x="251.527403" y="27.648" style="stroke: #000000; stroke-width: 0.6"/>
      </g>
     </g>
    </g>
    <g id="xtick_43">
     <g id="line2d_97">
      <g>
       <use xlink:href="#mb1595f799b" x="256.939149" y="298.944" style="stroke: #000000; stroke-width: 0.6"/>
      </g>
     </g>
     <g id="line2d_98">
      <g>
       <use xlink:href="#mdecdef725c" x="256.939149" y="27.648" style="stroke: #000000; stroke-width: 0.6"/>
      </g>
     </g>
    </g>
    <g id="xtick_44">
     <g id="line2d_99">
      <g>
       <use xlink:href="#mb1595f799b" x="261.136826" y="298.944" style="stroke: #000000; stroke-width: 0.6"/>
      </g>
     </g>
     <g id="line2d_100">
      <g>
       <use xlink:href="#mdecdef725c" x="261.136826" y="27.648" style="stroke: #000000; stroke-width: 0.6"/>
      </g>
     </g>
    </g>
    <g id="xtick_45">
     <g id="line2d_101">
      <g>
       <use xlink:href="#mb1595f799b" x="264.566577" y="298.944" style="stroke: #000000; stroke-width: 0.6"/>
      </g>
     </g>
     <g id="line2d_102">
      <g>
       <use xlink:href="#mdecdef725c" x="264.566577" y="27.648" style="stroke: #000000; stroke-width: 0.6"/>
      </g>
     </g>
    </g>
    <g id="xtick_46">
     <g id="line2d_103">
      <g>
       <use xlink:href="#mb1595f799b" x="267.466391" y="298.944" style="stroke: #000000; stroke-width: 0.6"/>
      </g>
     </g>
     <g id="line2d_104">
      <g>
       <use xlink:href="#mdecdef725c" x="267.466391" y="27.648" style="stroke: #000000; stroke-width: 0.6"/>
      </g>
     </g>
    </g>
    <g id="xtick_47">
     <g id="line2d_105">
      <g>
       <use xlink:href="#mb1595f799b" x="269.978323" y="298.944" style="stroke: #000000; stroke-width: 0.6"/>
      </g>
     </g>
     <g id="line2d_106">
      <g>
       <use xlink:href="#mdecdef725c" x="269.978323" y="27.648" style="stroke: #000000; stroke-width: 0.6"/>
      </g>
     </g>
    </g>
    <g id="xtick_48">
     <g id="line2d_107">
      <g>
       <use xlink:href="#mb1595f799b" x="272.194005" y="298.944" style="stroke: #000000; stroke-width: 0.6"/>
      </g>
     </g>
     <g id="line2d_108">
      <g>
       <use xlink:href="#mdecdef725c" x="272.194005" y="27.648" style="stroke: #000000; stroke-width: 0.6"/>
      </g>
     </g>
    </g>
    <g id="xtick_49">
     <g id="line2d_109">
      <g>
       <use xlink:href="#mb1595f799b" x="287.215174" y="298.944" style="stroke: #000000; stroke-width: 0.6"/>
      </g>
     </g>
     <g id="line2d_110">
      <g>
       <use xlink:href="#mdecdef725c" x="287.215174" y="27.648" style="stroke: #000000; stroke-width: 0.6"/>
      </g>
     </g>
    </g>
    <g id="xtick_50">
     <g id="line2d_111">
      <g>
       <use xlink:href="#mb1595f799b" x="294.842603" y="298.944" style="stroke: #000000; stroke-width: 0.6"/>
      </g>
     </g>
     <g id="line2d_112">
      <g>
       <use xlink:href="#mdecdef725c" x="294.842603" y="27.648" style="stroke: #000000; stroke-width: 0.6"/>
      </g>
     </g>
    </g>
    <g id="xtick_51">
     <g id="line2d_113">
      <g>
       <use xlink:href="#mb1595f799b" x="300.254349" y="298.944" style="stroke: #000000; stroke-width: 0.6"/>
      </g>
     </g>
     <g id="line2d_114">
      <g>
       <use xlink:href="#mdecdef725c" x="300.254349" y="27.648" style="stroke: #000000; stroke-width: 0.6"/>
      </g>
     </g>
    </g>
    <g id="xtick_52">
     <g id="line2d_115">
      <g>
       <use xlink:href="#mb1595f799b" x="304.452026" y="298.944" style="stroke: #000000; stroke-width: 0.6"/>
      </g>
     </g>
     <g id="line2d_116">
      <g>
       <use xlink:href="#mdecdef725c" x="304.452026" y="27.648" style="stroke: #000000; stroke-width: 0.6"/>
      </g>
     </g>
    </g>
    <g id="xtick_53">
     <g id="line2d_117">
      <g>
       <use xlink:href="#mb1595f799b" x="307.881777" y="298.944" style="stroke: #000000; stroke-width: 0.6"/>
      </g>
     </g>
     <g id="line2d_118">
      <g>
       <use xlink:href="#mdecdef725c" x="307.881777" y="27.648" style="stroke: #000000; stroke-width: 0.6"/>
      </g>
     </g>
    </g>
    <g id="xtick_54">
     <g id="line2d_119">
      <g>
       <use xlink:href="#mb1595f799b" x="310.781591" y="298.944" style="stroke: #000000; stroke-width: 0.6"/>
      </g>
     </g>
     <g id="line2d_120">
      <g>
       <use xlink:href="#mdecdef725c" x="310.781591" y="27.648" style="stroke: #000000; stroke-width: 0.6"/>
      </g>
     </g>
    </g>
    <g id="xtick_55">
     <g id="line2d_121">
      <g>
       <use xlink:href="#mb1595f799b" x="313.293523" y="298.944" style="stroke: #000000; stroke-width: 0.6"/>
      </g>
     </g>
     <g id="line2d_122">
      <g>
       <use xlink:href="#mdecdef725c" x="313.293523" y="27.648" style="stroke: #000000; stroke-width: 0.6"/>
      </g>
     </g>
    </g>
    <g id="xtick_56">
     <g id="line2d_123">
      <g>
       <use xlink:href="#mb1595f799b" x="315.509205" y="298.944" style="stroke: #000000; stroke-width: 0.6"/>
      </g>
     </g>
     <g id="line2d_124">
      <g>
       <use xlink:href="#mdecdef725c" x="315.509205" y="27.648" style="stroke: #000000; stroke-width: 0.6"/>
      </g>
     </g>
    </g>
    <g id="xtick_57">
     <g id="line2d_125">
      <g>
       <use xlink:href="#mb1595f799b" x="330.530374" y="298.944" style="stroke: #000000; stroke-width: 0.6"/>
      </g>
     </g>
     <g id="line2d_126">
      <g>
       <use xlink:href="#mdecdef725c" x="330.530374" y="27.648" style="stroke: #000000; stroke-width: 0.6"/>
      </g>
     </g>
    </g>
    <g id="xtick_58">
     <g id="line2d_127">
      <g>
       <use xlink:href="#mb1595f799b" x="338.157803" y="298.944" style="stroke: #000000; stroke-width: 0.6"/>
      </g>
     </g>
     <g id="line2d_128">
      <g>
       <use xlink:href="#mdecdef725c" x="338.157803" y="27.648" style="stroke: #000000; stroke-width: 0.6"/>
      </g>
     </g>
    </g>
    <g id="xtick_59">
     <g id="line2d_129">
      <g>
       <use xlink:href="#mb1595f799b" x="343.569549" y="298.944" style="stroke: #000000; stroke-width: 0.6"/>
      </g>
     </g>
     <g id="line2d_130">
      <g>
       <use xlink:href="#mdecdef725c" x="343.569549" y="27.648" style="stroke: #000000; stroke-width: 0.6"/>
      </g>
     </g>
    </g>
    <g id="xtick_60">
     <g id="line2d_131">
      <g>
       <use xlink:href="#mb1595f799b" x="347.767226" y="298.944" style="stroke: #000000; stroke-width: 0.6"/>
      </g>
     </g>
     <g id="line2d_132">
      <g>
       <use xlink:href="#mdecdef725c" x="347.767226" y="27.648" style="stroke: #000000; stroke-width: 0.6"/>
      </g>
     </g>
    </g>
    <g id="xtick_61">
     <g id="line2d_133">
      <g>
       <use xlink:href="#mb1595f799b" x="351.196977" y="298.944" style="stroke: #000000; stroke-width: 0.6"/>
      </g>
     </g>
     <g id="line2d_134">
      <g>
       <use xlink:href="#mdecdef725c" x="351.196977" y="27.648" style="stroke: #000000; stroke-width: 0.6"/>
      </g>
     </g>
    </g>
    <g id="xtick_62">
     <g id="line2d_135">
      <g>
       <use xlink:href="#mb1595f799b" x="354.096791" y="298.944" style="stroke: #000000; stroke-width: 0.6"/>
      </g>
     </g>
     <g id="line2d_136">
      <g>
       <use xlink:href="#mdecdef725c" x="354.096791" y="27.648" style="stroke: #000000; stroke-width: 0.6"/>
      </g>
     </g>
    </g>
    <g id="xtick_63">
     <g id="line2d_137">
      <g>
       <use xlink:href="#mb1595f799b" x="356.608723" y="298.944" style="stroke: #000000; stroke-width: 0.6"/>
      </g>
     </g>
     <g id="line2d_138">
      <g>
       <use xlink:href="#mdecdef725c" x="356.608723" y="27.648" style="stroke: #000000; stroke-width: 0.6"/>
      </g>
     </g>
    </g>
    <g id="xtick_64">
     <g id="line2d_139">
      <g>
       <use xlink:href="#mb1595f799b" x="358.824405" y="298.944" style="stroke: #000000; stroke-width: 0.6"/>
      </g>
     </g>
     <g id="line2d_140">
      <g>
       <use xlink:href="#mdecdef725c" x="358.824405" y="27.648" style="stroke: #000000; stroke-width: 0.6"/>
      </g>
     </g>
    </g>
    <g id="text_9">
     <!-- log10(# f-evals / dimension) -->
     <g transform="translate(102.985622 336.826656) scale(0.15 -0.15)">
      <defs>
       <path id="DejaVuSans-6c" d="M 603 4863 
L 1178 4863 
L 1178 0 
L 603 0 
L 603 4863 
z
" transform="scale(0.015625)"/>
       <path id="DejaVuSans-6f" d="M 1959 3097 
Q 1497 3097 1228 2736 
Q 959 2375 959 1747 
Q 959 1119 1226 758 
Q 1494 397 1959 397 
Q 2419 397 2687 759 
Q 2956 1122 2956 1747 
Q 2956 2369 2687 2733 
Q 2419 3097 1959 3097 
z
M 1959 3584 
Q 2709 3584 3137 3096 
Q 3566 2609 3566 1747 
Q 3566 888 3137 398 
Q 2709 -91 1959 -91 
Q 1206 -91 779 398 
Q 353 888 353 1747 
Q 353 2609 779 3096 
Q 1206 3584 1959 3584 
z
" transform="scale(0.015625)"/>
       <path id="DejaVuSans-67" d="M 2906 1791 
Q 2906 2416 2648 2759 
Q 2391 3103 1925 3103 
Q 1463 3103 1205 2759 
Q 947 2416 947 1791 
Q 947 1169 1205 825 
Q 1463 481 1925 481 
Q 2391 481 2648 825 
Q 2906 1169 2906 1791 
z
M 3481 434 
Q 3481 -459 3084 -895 
Q 2688 -1331 1869 -1331 
Q 1566 -1331 1297 -1286 
Q 1028 -1241 775 -1147 
L 775 -588 
Q 1028 -725 1275 -790 
Q 1522 -856 1778 -856 
Q 2344 -856 2625 -561 
Q 2906 -266 2906 331 
L 2906 616 
Q 2728 306 2450 153 
Q 2172 0 1784 0 
Q 1141 0 747 490 
Q 353 981 353 1791 
Q 353 2603 747 3093 
Q 1141 3584 1784 3584 
Q 2172 3584 2450 3431 
Q 2728 3278 2906 2969 
L 2906 3500 
L 3481 3500 
L 3481 434 
z
" transform="scale(0.015625)"/>
       <path id="DejaVuSans-28" d="M 1984 4856 
Q 1566 4138 1362 3434 
Q 1159 2731 1159 2009 
Q 1159 1288 1364 580 
Q 1569 -128 1984 -844 
L 1484 -844 
Q 1016 -109 783 600 
Q 550 1309 550 2009 
Q 550 2706 781 3412 
Q 1013 4119 1484 4856 
L 1984 4856 
z
" transform="scale(0.015625)"/>
       <path id="DejaVuSans-23" d="M 3272 2816 
L 2363 2816 
L 2100 1772 
L 3016 1772 
L 3272 2816 
z
M 2803 4594 
L 2478 3297 
L 3391 3297 
L 3719 4594 
L 4219 4594 
L 3897 3297 
L 4872 3297 
L 4872 2816 
L 3775 2816 
L 3519 1772 
L 4513 1772 
L 4513 1294 
L 3397 1294 
L 3072 0 
L 2572 0 
L 2894 1294 
L 1978 1294 
L 1656 0 
L 1153 0 
L 1478 1294 
L 494 1294 
L 494 1772 
L 1594 1772 
L 1856 2816 
L 850 2816 
L 850 3297 
L 1978 3297 
L 2297 4594 
L 2803 4594 
z
" transform="scale(0.015625)"/>
       <path id="DejaVuSans-20" transform="scale(0.015625)"/>
       <path id="DejaVuSans-66" d="M 2375 4863 
L 2375 4384 
L 1825 4384 
Q 1516 4384 1395 4259 
Q 1275 4134 1275 3809 
L 1275 3500 
L 2222 3500 
L 2222 3053 
L 1275 3053 
L 1275 0 
L 697 0 
L 697 3053 
L 147 3053 
L 147 3500 
L 697 3500 
L 697 3744 
Q 697 4328 969 4595 
Q 1241 4863 1831 4863 
L 2375 4863 
z
" transform="scale(0.015625)"/>
       <path id="DejaVuSans-2d" d="M 313 2009 
L 1997 2009 
L 1997 1497 
L 313 1497 
L 313 2009 
z
" transform="scale(0.015625)"/>
       <path id="DejaVuSans-65" d="M 3597 1894 
L 3597 1613 
L 953 1613 
Q 991 1019 1311 708 
Q 1631 397 2203 397 
Q 2534 397 2845 478 
Q 3156 559 3463 722 
L 3463 178 
Q 3153 47 2828 -22 
Q 2503 -91 2169 -91 
Q 1331 -91 842 396 
Q 353 884 353 1716 
Q 353 2575 817 3079 
Q 1281 3584 2069 3584 
Q 2775 3584 3186 3129 
Q 3597 2675 3597 1894 
z
M 3022 2063 
Q 3016 2534 2758 2815 
Q 2500 3097 2075 3097 
Q 1594 3097 1305 2825 
Q 1016 2553 972 2059 
L 3022 2063 
z
" transform="scale(0.015625)"/>
       <path id="DejaVuSans-76" d="M 191 3500 
L 800 3500 
L 1894 563 
L 2988 3500 
L 3597 3500 
L 2284 0 
L 1503 0 
L 191 3500 
z
" transform="scale(0.015625)"/>
       <path id="DejaVuSans-61" d="M 2194 1759 
Q 1497 1759 1228 1600 
Q 959 1441 959 1056 
Q 959 750 1161 570 
Q 1363 391 1709 391 
Q 2188 391 2477 730 
Q 2766 1069 2766 1631 
L 2766 1759 
L 2194 1759 
z
M 3341 1997 
L 3341 0 
L 2766 0 
L 2766 531 
Q 2569 213 2275 61 
Q 1981 -91 1556 -91 
Q 1019 -91 701 211 
Q 384 513 384 1019 
Q 384 1609 779 1909 
Q 1175 2209 1959 2209 
L 2766 2209 
L 2766 2266 
Q 2766 2663 2505 2880 
Q 2244 3097 1772 3097 
Q 1472 3097 1187 3025 
Q 903 2953 641 2809 
L 641 3341 
Q 956 3463 1253 3523 
Q 1550 3584 1831 3584 
Q 2591 3584 2966 3190 
Q 3341 2797 3341 1997 
z
" transform="scale(0.015625)"/>
       <path id="DejaVuSans-73" d="M 2834 3397 
L 2834 2853 
Q 2591 2978 2328 3040 
Q 2066 3103 1784 3103 
Q 1356 3103 1142 2972 
Q 928 2841 928 2578 
Q 928 2378 1081 2264 
Q 1234 2150 1697 2047 
L 1894 2003 
Q 2506 1872 2764 1633 
Q 3022 1394 3022 966 
Q 3022 478 2636 193 
Q 2250 -91 1575 -91 
Q 1294 -91 989 -36 
Q 684 19 347 128 
L 347 722 
Q 666 556 975 473 
Q 1284 391 1588 391 
Q 1994 391 2212 530 
Q 2431 669 2431 922 
Q 2431 1156 2273 1281 
Q 2116 1406 1581 1522 
L 1381 1569 
Q 847 1681 609 1914 
Q 372 2147 372 2553 
Q 372 3047 722 3315 
Q 1072 3584 1716 3584 
Q 2034 3584 2315 3537 
Q 2597 3491 2834 3397 
z
" transform="scale(0.015625)"/>
       <path id="DejaVuSans-2f" d="M 1625 4666 
L 2156 4666 
L 531 -594 
L 0 -594 
L 1625 4666 
z
" transform="scale(0.015625)"/>
       <path id="DejaVuSans-64" d="M 2906 2969 
L 2906 4863 
L 3481 4863 
L 3481 0 
L 2906 0 
L 2906 525 
Q 2725 213 2448 61 
Q 2172 -91 1784 -91 
Q 1150 -91 751 415 
Q 353 922 353 1747 
Q 353 2572 751 3078 
Q 1150 3584 1784 3584 
Q 2172 3584 2448 3432 
Q 2725 3281 2906 2969 
z
M 947 1747 
Q 947 1113 1208 752 
Q 1469 391 1925 391 
Q 2381 391 2643 752 
Q 2906 1113 2906 1747 
Q 2906 2381 2643 2742 
Q 2381 3103 1925 3103 
Q 1469 3103 1208 2742 
Q 947 2381 947 1747 
z
" transform="scale(0.015625)"/>
       <path id="DejaVuSans-69" d="M 603 3500 
L 1178 3500 
L 1178 0 
L 603 0 
L 603 3500 
z
M 603 4863 
L 1178 4863 
L 1178 4134 
L 603 4134 
L 603 4863 
z
" transform="scale(0.015625)"/>
       <path id="DejaVuSans-6d" d="M 3328 2828 
Q 3544 3216 3844 3400 
Q 4144 3584 4550 3584 
Q 5097 3584 5394 3201 
Q 5691 2819 5691 2113 
L 5691 0 
L 5113 0 
L 5113 2094 
Q 5113 2597 4934 2840 
Q 4756 3084 4391 3084 
Q 3944 3084 3684 2787 
Q 3425 2491 3425 1978 
L 3425 0 
L 2847 0 
L 2847 2094 
Q 2847 2600 2669 2842 
Q 2491 3084 2119 3084 
Q 1678 3084 1418 2786 
Q 1159 2488 1159 1978 
L 1159 0 
L 581 0 
L 581 3500 
L 1159 3500 
L 1159 2956 
Q 1356 3278 1631 3431 
Q 1906 3584 2284 3584 
Q 2666 3584 2933 3390 
Q 3200 3197 3328 2828 
z
" transform="scale(0.015625)"/>
       <path id="DejaVuSans-6e" d="M 3513 2113 
L 3513 0 
L 2938 0 
L 2938 2094 
Q 2938 2591 2744 2837 
Q 2550 3084 2163 3084 
Q 1697 3084 1428 2787 
Q 1159 2491 1159 1978 
L 1159 0 
L 581 0 
L 581 3500 
L 1159 3500 
L 1159 2956 
Q 1366 3272 1645 3428 
Q 1925 3584 2291 3584 
Q 2894 3584 3203 3211 
Q 3513 2838 3513 2113 
z
" transform="scale(0.015625)"/>
       <path id="DejaVuSans-29" d="M 513 4856 
L 1013 4856 
Q 1481 4119 1714 3412 
Q 1947 2706 1947 2009 
Q 1947 1309 1714 600 
Q 1481 -109 1013 -844 
L 513 -844 
Q 928 -128 1133 580 
Q 1338 1288 1338 2009 
Q 1338 2731 1133 3434 
Q 928 4138 513 4856 
z
" transform="scale(0.015625)"/>
      </defs>
      <use xlink:href="#DejaVuSans-6c"/>
      <use xlink:href="#DejaVuSans-6f" x="27.783203"/>
      <use xlink:href="#DejaVuSans-67" x="88.964844"/>
      <use xlink:href="#DejaVuSans-31" x="152.441406"/>
      <use xlink:href="#DejaVuSans-30" x="216.064453"/>
      <use xlink:href="#DejaVuSans-28" x="279.6875"/>
      <use xlink:href="#DejaVuSans-23" x="318.701172"/>
      <use xlink:href="#DejaVuSans-20" x="402.490234"/>
      <use xlink:href="#DejaVuSans-66" x="434.277344"/>
      <use xlink:href="#DejaVuSans-2d" x="463.982422"/>
      <use xlink:href="#DejaVuSans-65" x="500.066406"/>
      <use xlink:href="#DejaVuSans-76" x="561.589844"/>
      <use xlink:href="#DejaVuSans-61" x="620.769531"/>
      <use xlink:href="#DejaVuSans-6c" x="682.048828"/>
      <use xlink:href="#DejaVuSans-73" x="709.832031"/>
      <use xlink:href="#DejaVuSans-20" x="761.931641"/>
      <use xlink:href="#DejaVuSans-2f" x="793.71875"/>
      <use xlink:href="#DejaVuSans-20" x="827.410156"/>
      <use xlink:href="#DejaVuSans-64" x="859.197266"/>
      <use xlink:href="#DejaVuSans-69" x="922.673828"/>
      <use xlink:href="#DejaVuSans-6d" x="950.457031"/>
      <use xlink:href="#DejaVuSans-65" x="1047.869141"/>
      <use xlink:href="#DejaVuSans-6e" x="1109.392578"/>
      <use xlink:href="#DejaVuSans-73" x="1172.771484"/>
      <use xlink:href="#DejaVuSans-69" x="1224.871094"/>
      <use xlink:href="#DejaVuSans-6f" x="1252.654297"/>
      <use xlink:href="#DejaVuSans-6e" x="1313.835938"/>
      <use xlink:href="#DejaVuSans-29" x="1377.214844"/>
     </g>
    </g>
   </g>
   <g id="matplotlib.axis_2">
    <g id="ytick_1">
     <g id="line2d_141">
      <path d="M 57.6 298.944 
L 360.8064 298.944 
" clip-path="url(#p718e60a0b5)" style="fill: none; stroke: #b0b0b0; stroke-width: 0.8; stroke-linecap: square"/>
     </g>
     <g id="line2d_142">
      <defs>
       <path id="m24efd809ae" d="M 0 0 
L -3.5 0 
" style="stroke: #000000; stroke-width: 0.8"/>
      </defs>
      <g>
       <use xlink:href="#m24efd809ae" x="57.6" y="298.944" style="stroke: #000000; stroke-width: 0.8"/>
      </g>
     </g>
     <g id="line2d_143">
      <defs>
       <path id="mc99eae0c46" d="M 0 0 
L 3.5 0 
" style="stroke: #000000; stroke-width: 0.8"/>
      </defs>
      <g>
       <use xlink:href="#mc99eae0c46" x="360.8064" y="298.944" style="stroke: #000000; stroke-width: 0.8"/>
      </g>
     </g>
     <g id="text_10">
      <!-- 0.0 -->
      <g transform="translate(28.335625 304.262906) scale(0.14 -0.14)">
       <defs>
        <path id="DejaVuSans-2e" d="M 684 794 
L 1344 794 
L 1344 0 
L 684 0 
L 684 794 
z
" transform="scale(0.015625)"/>
       </defs>
       <use xlink:href="#DejaVuSans-30"/>
       <use xlink:href="#DejaVuSans-2e" x="63.623047"/>
       <use xlink:href="#DejaVuSans-30" x="95.410156"/>
      </g>
     </g>
    </g>
    <g id="ytick_2">
     <g id="line2d_144">
      <path d="M 57.6 244.6848 
L 360.8064 244.6848 
" clip-path="url(#p718e60a0b5)" style="fill: none; stroke: #b0b0b0; stroke-width: 0.8; stroke-linecap: square"/>
     </g>
     <g id="line2d_145">
      <g>
       <use xlink:href="#m24efd809ae" x="57.6" y="244.6848" style="stroke: #000000; stroke-width: 0.8"/>
      </g>
     </g>
     <g id="line2d_146">
      <g>
       <use xlink:href="#mc99eae0c46" x="360.8064" y="244.6848" style="stroke: #000000; stroke-width: 0.8"/>
      </g>
     </g>
     <g id="text_11">
      <!-- 0.2 -->
      <g transform="translate(28.335625 250.003706) scale(0.14 -0.14)">
       <use xlink:href="#DejaVuSans-30"/>
       <use xlink:href="#DejaVuSans-2e" x="63.623047"/>
       <use xlink:href="#DejaVuSans-32" x="95.410156"/>
      </g>
     </g>
    </g>
    <g id="ytick_3">
     <g id="line2d_147">
      <path d="M 57.6 190.4256 
L 360.8064 190.4256 
" clip-path="url(#p718e60a0b5)" style="fill: none; stroke: #b0b0b0; stroke-width: 0.8; stroke-linecap: square"/>
     </g>
     <g id="line2d_148">
      <g>
       <use xlink:href="#m24efd809ae" x="57.6" y="190.4256" style="stroke: #000000; stroke-width: 0.8"/>
      </g>
     </g>
     <g id="line2d_149">
      <g>
       <use xlink:href="#mc99eae0c46" x="360.8064" y="190.4256" style="stroke: #000000; stroke-width: 0.8"/>
      </g>
     </g>
     <g id="text_12">
      <!-- 0.4 -->
      <g transform="translate(28.335625 195.744506) scale(0.14 -0.14)">
       <use xlink:href="#DejaVuSans-30"/>
       <use xlink:href="#DejaVuSans-2e" x="63.623047"/>
       <use xlink:href="#DejaVuSans-34" x="95.410156"/>
      </g>
     </g>
    </g>
    <g id="ytick_4">
     <g id="line2d_150">
      <path d="M 57.6 136.1664 
L 360.8064 136.1664 
" clip-path="url(#p718e60a0b5)" style="fill: none; stroke: #b0b0b0; stroke-width: 0.8; stroke-linecap: square"/>
     </g>
     <g id="line2d_151">
      <g>
       <use xlink:href="#m24efd809ae" x="57.6" y="136.1664" style="stroke: #000000; stroke-width: 0.8"/>
      </g>
     </g>
     <g id="line2d_152">
      <g>
       <use xlink:href="#mc99eae0c46" x="360.8064" y="136.1664" style="stroke: #000000; stroke-width: 0.8"/>
      </g>
     </g>
     <g id="text_13">
      <!-- 0.6 -->
      <g transform="translate(28.335625 141.485306) scale(0.14 -0.14)">
       <use xlink:href="#DejaVuSans-30"/>
       <use xlink:href="#DejaVuSans-2e" x="63.623047"/>
       <use xlink:href="#DejaVuSans-36" x="95.410156"/>
      </g>
     </g>
    </g>
    <g id="ytick_5">
     <g id="line2d_153">
      <path d="M 57.6 81.9072 
L 360.8064 81.9072 
" clip-path="url(#p718e60a0b5)" style="fill: none; stroke: #b0b0b0; stroke-width: 0.8; stroke-linecap: square"/>
     </g>
     <g id="line2d_154">
      <g>
       <use xlink:href="#m24efd809ae" x="57.6" y="81.9072" style="stroke: #000000; stroke-width: 0.8"/>
      </g>
     </g>
     <g id="line2d_155">
      <g>
       <use xlink:href="#mc99eae0c46" x="360.8064" y="81.9072" style="stroke: #000000; stroke-width: 0.8"/>
      </g>
     </g>
     <g id="text_14">
      <!-- 0.8 -->
      <g transform="translate(28.335625 87.226106) scale(0.14 -0.14)">
       <defs>
        <path id="DejaVuSans-38" d="M 2034 2216 
Q 1584 2216 1326 1975 
Q 1069 1734 1069 1313 
Q 1069 891 1326 650 
Q 1584 409 2034 409 
Q 2484 409 2743 651 
Q 3003 894 3003 1313 
Q 3003 1734 2745 1975 
Q 2488 2216 2034 2216 
z
M 1403 2484 
Q 997 2584 770 2862 
Q 544 3141 544 3541 
Q 544 4100 942 4425 
Q 1341 4750 2034 4750 
Q 2731 4750 3128 4425 
Q 3525 4100 3525 3541 
Q 3525 3141 3298 2862 
Q 3072 2584 2669 2484 
Q 3125 2378 3379 2068 
Q 3634 1759 3634 1313 
Q 3634 634 3220 271 
Q 2806 -91 2034 -91 
Q 1263 -91 848 271 
Q 434 634 434 1313 
Q 434 1759 690 2068 
Q 947 2378 1403 2484 
z
M 1172 3481 
Q 1172 3119 1398 2916 
Q 1625 2713 2034 2713 
Q 2441 2713 2670 2916 
Q 2900 3119 2900 3481 
Q 2900 3844 2670 4047 
Q 2441 4250 2034 4250 
Q 1625 4250 1398 4047 
Q 1172 3844 1172 3481 
z
" transform="scale(0.015625)"/>
       </defs>
       <use xlink:href="#DejaVuSans-30"/>
       <use xlink:href="#DejaVuSans-2e" x="63.623047"/>
       <use xlink:href="#DejaVuSans-38" x="95.410156"/>
      </g>
     </g>
    </g>
    <g id="ytick_6">
     <g id="line2d_156">
      <path d="M 57.6 27.648 
L 360.8064 27.648 
" clip-path="url(#p718e60a0b5)" style="fill: none; stroke: #b0b0b0; stroke-width: 0.8; stroke-linecap: square"/>
     </g>
     <g id="line2d_157">
      <g>
       <use xlink:href="#m24efd809ae" x="57.6" y="27.648" style="stroke: #000000; stroke-width: 0.8"/>
      </g>
     </g>
     <g id="line2d_158">
      <g>
       <use xlink:href="#mc99eae0c46" x="360.8064" y="27.648" style="stroke: #000000; stroke-width: 0.8"/>
      </g>
     </g>
     <g id="text_15">
      <!-- 1.0 -->
      <g transform="translate(28.335625 32.966906) scale(0.14 -0.14)">
       <use xlink:href="#DejaVuSans-31"/>
       <use xlink:href="#DejaVuSans-2e" x="63.623047"/>
       <use xlink:href="#DejaVuSans-30" x="95.410156"/>
      </g>
     </g>
    </g>
    <g id="ytick_7">
     <g id="line2d_159">
      <defs>
       <path id="m0fd59b66be" d="M 0 0 
L -2 0 
" style="stroke: #000000; stroke-width: 0.6"/>
      </defs>
      <g>
       <use xlink:href="#m0fd59b66be" x="57.6" y="285.3792" style="stroke: #000000; stroke-width: 0.6"/>
      </g>
     </g>
     <g id="line2d_160">
      <defs>
       <path id="mc0fdbae5f3" d="M 0 0 
L 2 0 
" style="stroke: #000000; stroke-width: 0.6"/>
      </defs>
      <g>
       <use xlink:href="#mc0fdbae5f3" x="360.8064" y="285.3792" style="stroke: #000000; stroke-width: 0.6"/>
      </g>
     </g>
    </g>
    <g id="ytick_8">
     <g id="line2d_161">
      <g>
       <use xlink:href="#m0fd59b66be" x="57.6" y="271.8144" style="stroke: #000000; stroke-width: 0.6"/>
      </g>
     </g>
     <g id="line2d_162">
      <g>
       <use xlink:href="#mc0fdbae5f3" x="360.8064" y="271.8144" style="stroke: #000000; stroke-width: 0.6"/>
      </g>
     </g>
    </g>
    <g id="ytick_9">
     <g id="line2d_163">
      <g>
       <use xlink:href="#m0fd59b66be" x="57.6" y="258.2496" style="stroke: #000000; stroke-width: 0.6"/>
      </g>
     </g>
     <g id="line2d_164">
      <g>
       <use xlink:href="#mc0fdbae5f3" x="360.8064" y="258.2496" style="stroke: #000000; stroke-width: 0.6"/>
      </g>
     </g>
    </g>
    <g id="ytick_10">
     <g id="line2d_165">
      <g>
       <use xlink:href="#m0fd59b66be" x="57.6" y="231.12" style="stroke: #000000; stroke-width: 0.6"/>
      </g>
     </g>
     <g id="line2d_166">
      <g>
       <use xlink:href="#mc0fdbae5f3" x="360.8064" y="231.12" style="stroke: #000000; stroke-width: 0.6"/>
      </g>
     </g>
    </g>
    <g id="ytick_11">
     <g id="line2d_167">
      <g>
       <use xlink:href="#m0fd59b66be" x="57.6" y="217.5552" style="stroke: #000000; stroke-width: 0.6"/>
      </g>
     </g>
     <g id="line2d_168">
      <g>
       <use xlink:href="#mc0fdbae5f3" x="360.8064" y="217.5552" style="stroke: #000000; stroke-width: 0.6"/>
      </g>
     </g>
    </g>
    <g id="ytick_12">
     <g id="line2d_169">
      <g>
       <use xlink:href="#m0fd59b66be" x="57.6" y="203.9904" style="stroke: #000000; stroke-width: 0.6"/>
      </g>
     </g>
     <g id="line2d_170">
      <g>
       <use xlink:href="#mc0fdbae5f3" x="360.8064" y="203.9904" style="stroke: #000000; stroke-width: 0.6"/>
      </g>
     </g>
    </g>
    <g id="ytick_13">
     <g id="line2d_171">
      <g>
       <use xlink:href="#m0fd59b66be" x="57.6" y="176.8608" style="stroke: #000000; stroke-width: 0.6"/>
      </g>
     </g>
     <g id="line2d_172">
      <g>
       <use xlink:href="#mc0fdbae5f3" x="360.8064" y="176.8608" style="stroke: #000000; stroke-width: 0.6"/>
      </g>
     </g>
    </g>
    <g id="ytick_14">
     <g id="line2d_173">
      <g>
       <use xlink:href="#m0fd59b66be" x="57.6" y="163.296" style="stroke: #000000; stroke-width: 0.6"/>
      </g>
     </g>
     <g id="line2d_174">
      <g>
       <use xlink:href="#mc0fdbae5f3" x="360.8064" y="163.296" style="stroke: #000000; stroke-width: 0.6"/>
      </g>
     </g>
    </g>
    <g id="ytick_15">
     <g id="line2d_175">
      <g>
       <use xlink:href="#m0fd59b66be" x="57.6" y="149.7312" style="stroke: #000000; stroke-width: 0.6"/>
      </g>
     </g>
     <g id="line2d_176">
      <g>
       <use xlink:href="#mc0fdbae5f3" x="360.8064" y="149.7312" style="stroke: #000000; stroke-width: 0.6"/>
      </g>
     </g>
    </g>
    <g id="ytick_16">
     <g id="line2d_177">
      <g>
       <use xlink:href="#m0fd59b66be" x="57.6" y="122.6016" style="stroke: #000000; stroke-width: 0.6"/>
      </g>
     </g>
     <g id="line2d_178">
      <g>
       <use xlink:href="#mc0fdbae5f3" x="360.8064" y="122.6016" style="stroke: #000000; stroke-width: 0.6"/>
      </g>
     </g>
    </g>
    <g id="ytick_17">
     <g id="line2d_179">
      <g>
       <use xlink:href="#m0fd59b66be" x="57.6" y="109.0368" style="stroke: #000000; stroke-width: 0.6"/>
      </g>
     </g>
     <g id="line2d_180">
      <g>
       <use xlink:href="#mc0fdbae5f3" x="360.8064" y="109.0368" style="stroke: #000000; stroke-width: 0.6"/>
      </g>
     </g>
    </g>
    <g id="ytick_18">
     <g id="line2d_181">
      <g>
       <use xlink:href="#m0fd59b66be" x="57.6" y="95.472" style="stroke: #000000; stroke-width: 0.6"/>
      </g>
     </g>
     <g id="line2d_182">
      <g>
       <use xlink:href="#mc0fdbae5f3" x="360.8064" y="95.472" style="stroke: #000000; stroke-width: 0.6"/>
      </g>
     </g>
    </g>
    <g id="ytick_19">
     <g id="line2d_183">
      <g>
       <use xlink:href="#m0fd59b66be" x="57.6" y="68.3424" style="stroke: #000000; stroke-width: 0.6"/>
      </g>
     </g>
     <g id="line2d_184">
      <g>
       <use xlink:href="#mc0fdbae5f3" x="360.8064" y="68.3424" style="stroke: #000000; stroke-width: 0.6"/>
      </g>
     </g>
    </g>
    <g id="ytick_20">
     <g id="line2d_185">
      <g>
       <use xlink:href="#m0fd59b66be" x="57.6" y="54.7776" style="stroke: #000000; stroke-width: 0.6"/>
      </g>
     </g>
     <g id="line2d_186">
      <g>
       <use xlink:href="#mc0fdbae5f3" x="360.8064" y="54.7776" style="stroke: #000000; stroke-width: 0.6"/>
      </g>
     </g>
    </g>
    <g id="ytick_21">
     <g id="line2d_187">
      <g>
       <use xlink:href="#m0fd59b66be" x="57.6" y="41.2128" style="stroke: #000000; stroke-width: 0.6"/>
      </g>
     </g>
     <g id="line2d_188">
      <g>
       <use xlink:href="#mc0fdbae5f3" x="360.8064" y="41.2128" style="stroke: #000000; stroke-width: 0.6"/>
      </g>
     </g>
    </g>
    <g id="text_16">
     <!-- Fraction of function,target pairs -->
     <g transform="translate(21.216094 281.871) rotate(-90) scale(0.15 -0.15)">
      <defs>
       <path id="DejaVuSans-46" d="M 628 4666 
L 3309 4666 
L 3309 4134 
L 1259 4134 
L 1259 2759 
L 3109 2759 
L 3109 2228 
L 1259 2228 
L 1259 0 
L 628 0 
L 628 4666 
z
" transform="scale(0.015625)"/>
       <path id="DejaVuSans-72" d="M 2631 2963 
Q 2534 3019 2420 3045 
Q 2306 3072 2169 3072 
Q 1681 3072 1420 2755 
Q 1159 2438 1159 1844 
L 1159 0 
L 581 0 
L 581 3500 
L 1159 3500 
L 1159 2956 
Q 1341 3275 1631 3429 
Q 1922 3584 2338 3584 
Q 2397 3584 2469 3576 
Q 2541 3569 2628 3553 
L 2631 2963 
z
" transform="scale(0.015625)"/>
       <path id="DejaVuSans-63" d="M 3122 3366 
L 3122 2828 
Q 2878 2963 2633 3030 
Q 2388 3097 2138 3097 
Q 1578 3097 1268 2742 
Q 959 2388 959 1747 
Q 959 1106 1268 751 
Q 1578 397 2138 397 
Q 2388 397 2633 464 
Q 2878 531 3122 666 
L 3122 134 
Q 2881 22 2623 -34 
Q 2366 -91 2075 -91 
Q 1284 -91 818 406 
Q 353 903 353 1747 
Q 353 2603 823 3093 
Q 1294 3584 2113 3584 
Q 2378 3584 2631 3529 
Q 2884 3475 3122 3366 
z
" transform="scale(0.015625)"/>
       <path id="DejaVuSans-74" d="M 1172 4494 
L 1172 3500 
L 2356 3500 
L 2356 3053 
L 1172 3053 
L 1172 1153 
Q 1172 725 1289 603 
Q 1406 481 1766 481 
L 2356 481 
L 2356 0 
L 1766 0 
Q 1100 0 847 248 
Q 594 497 594 1153 
L 594 3053 
L 172 3053 
L 172 3500 
L 594 3500 
L 594 4494 
L 1172 4494 
z
" transform="scale(0.015625)"/>
       <path id="DejaVuSans-75" d="M 544 1381 
L 544 3500 
L 1119 3500 
L 1119 1403 
Q 1119 906 1312 657 
Q 1506 409 1894 409 
Q 2359 409 2629 706 
Q 2900 1003 2900 1516 
L 2900 3500 
L 3475 3500 
L 3475 0 
L 2900 0 
L 2900 538 
Q 2691 219 2414 64 
Q 2138 -91 1772 -91 
Q 1169 -91 856 284 
Q 544 659 544 1381 
z
M 1991 3584 
L 1991 3584 
z
" transform="scale(0.015625)"/>
       <path id="DejaVuSans-2c" d="M 750 794 
L 1409 794 
L 1409 256 
L 897 -744 
L 494 -744 
L 750 256 
L 750 794 
z
" transform="scale(0.015625)"/>
       <path id="DejaVuSans-70" d="M 1159 525 
L 1159 -1331 
L 581 -1331 
L 581 3500 
L 1159 3500 
L 1159 2969 
Q 1341 3281 1617 3432 
Q 1894 3584 2278 3584 
Q 2916 3584 3314 3078 
Q 3713 2572 3713 1747 
Q 3713 922 3314 415 
Q 2916 -91 2278 -91 
Q 1894 -91 1617 61 
Q 1341 213 1159 525 
z
M 3116 1747 
Q 3116 2381 2855 2742 
Q 2594 3103 2138 3103 
Q 1681 3103 1420 2742 
Q 1159 2381 1159 1747 
Q 1159 1113 1420 752 
Q 1681 391 2138 391 
Q 2594 391 2855 752 
Q 3116 1113 3116 1747 
z
" transform="scale(0.015625)"/>
      </defs>
      <use xlink:href="#DejaVuSans-46"/>
      <use xlink:href="#DejaVuSans-72" x="50.269531"/>
      <use xlink:href="#DejaVuSans-61" x="91.382812"/>
      <use xlink:href="#DejaVuSans-63" x="152.662109"/>
      <use xlink:href="#DejaVuSans-74" x="207.642578"/>
      <use xlink:href="#DejaVuSans-69" x="246.851562"/>
      <use xlink:href="#DejaVuSans-6f" x="274.634766"/>
      <use xlink:href="#DejaVuSans-6e" x="335.816406"/>
      <use xlink:href="#DejaVuSans-20" x="399.195312"/>
      <use xlink:href="#DejaVuSans-6f" x="430.982422"/>
      <use xlink:href="#DejaVuSans-66" x="492.164062"/>
      <use xlink:href="#DejaVuSans-20" x="527.369141"/>
      <use xlink:href="#DejaVuSans-66" x="559.15625"/>
      <use xlink:href="#DejaVuSans-75" x="594.361328"/>
      <use xlink:href="#DejaVuSans-6e" x="657.740234"/>
      <use xlink:href="#DejaVuSans-63" x="721.119141"/>
      <use xlink:href="#DejaVuSans-74" x="776.099609"/>
      <use xlink:href="#DejaVuSans-69" x="815.308594"/>
      <use xlink:href="#DejaVuSans-6f" x="843.091797"/>
      <use xlink:href="#DejaVuSans-6e" x="904.273438"/>
      <use xlink:href="#DejaVuSans-2c" x="967.652344"/>
      <use xlink:href="#DejaVuSans-74" x="999.439453"/>
      <use xlink:href="#DejaVuSans-61" x="1038.648438"/>
      <use xlink:href="#DejaVuSans-72" x="1099.927734"/>
      <use xlink:href="#DejaVuSans-67" x="1139.291016"/>
      <use xlink:href="#DejaVuSans-65" x="1202.767578"/>
      <use xlink:href="#DejaVuSans-74" x="1264.291016"/>
      <use xlink:href="#DejaVuSans-20" x="1303.5"/>
      <use xlink:href="#DejaVuSans-70" x="1335.287109"/>
      <use xlink:href="#DejaVuSans-61" x="1398.763672"/>
      <use xlink:href="#DejaVuSans-69" x="1460.042969"/>
      <use xlink:href="#DejaVuSans-72" x="1487.826172"/>
      <use xlink:href="#DejaVuSans-73" x="1528.939453"/>
     </g>
    </g>
   </g>
   <g id="line2d_189">
    <defs>
     <path id="m3c36db0af6" d="M 0 1 
C 0.265203 1 0.51958 0.894634 0.707107 0.707107 
C 0.894634 0.51958 1 0.265203 1 0 
C 1 -0.265203 0.894634 -0.51958 0.707107 -0.707107 
C 0.51958 -0.894634 0.265203 -1 0 -1 
C -0.265203 -1 -0.51958 -0.894634 -0.707107 -0.707107 
C -0.894634 -0.51958 -1 -0.265203 -1 0 
C -1 0.265203 -0.894634 0.51958 -0.707107 0.707107 
C -0.51958 0.894634 -0.265203 1 0 1 
z
" style="stroke: #faf0e6"/>
    </defs>
    <g>
     <use xlink:href="#m3c36db0af6" x="260.113215" y="60.390621" style="fill: #faf0e6; stroke: #faf0e6"/>
    </g>
   </g>
   <g id="line2d_190">
    <defs>
     <path id="m7eca6e4322" d="M 0 1 
C 0.265203 1 0.51958 0.894634 0.707107 0.707107 
C 0.894634 0.51958 1 0.265203 1 0 
C 1 -0.265203 0.894634 -0.51958 0.707107 -0.707107 
C 0.51958 -0.894634 0.265203 -1 0 -1 
C -0.265203 -1 -0.51958 -0.894634 -0.707107 -0.707107 
C -0.894634 -0.51958 -1 -0.265203 -1 0 
C -1 0.265203 -0.894634 0.51958 -0.707107 0.707107 
C -0.51958 0.894634 -0.265203 1 0 1 
z
" style="stroke: #1874b4"/>
    </defs>
    <g>
     <use xlink:href="#m7eca6e4322" x="197.845738" y="202.587145" style="fill: #1874b4; stroke: #1874b4"/>
    </g>
   </g>
   <g id="line2d_191">
    <path d="M 44.560826 298.944 
L 44.560826 297.540745 
L 57.6 297.540745 
L 57.6 296.13749 
L 65.227428 296.13749 
L 65.227428 292.863228 
L 70.639174 292.863228 
L 70.639174 292.395476 
L 74.836851 292.395476 
L 74.836851 290.992221 
L 85.894031 290.992221 
L 85.894031 288.18571 
L 87.876026 288.18571 
L 87.876026 287.717959 
L 91.305777 287.717959 
L 91.305777 286.782455 
L 94.205591 286.782455 
L 94.205591 286.314703 
L 105.112877 286.314703 
L 105.112877 285.3792 
L 111.442442 285.3792 
L 111.442442 284.443697 
L 113.478107 284.443697 
L 113.478107 283.975945 
L 114.418881 283.975945 
L 114.418881 283.508193 
L 116.583514 283.508193 
L 116.583514 283.040441 
L 120.616896 283.040441 
L 120.616896 281.637186 
L 123.657621 281.637186 
L 123.657621 279.766179 
L 129.417095 279.766179 
L 129.417095 278.830676 
L 130.226319 278.830676 
L 130.226319 278.362924 
L 133.323114 278.362924 
L 133.323114 277.427421 
L 133.656071 277.427421 
L 133.656071 276.024166 
L 134.14471 276.024166 
L 134.14471 274.62091 
L 135.085483 274.62091 
L 135.085483 274.153159 
L 136.126705 274.153159 
L 136.126705 272.749903 
L 139.067817 272.749903 
L 139.067817 271.8144 
L 139.796097 271.8144 
L 139.796097 270.878897 
L 140.838234 270.878897 
L 140.838234 270.411145 
L 141.062184 270.411145 
L 141.062184 269.00789 
L 141.283499 269.00789 
L 141.283499 268.540138 
L 141.610664 268.540138 
L 141.610664 268.072386 
L 142.038218 268.072386 
L 142.038218 267.136883 
L 142.763822 267.136883 
L 142.865233 266.201379 
L 144.510478 266.201379 
L 144.510478 265.265876 
L 144.968202 265.265876 
L 144.968202 264.798124 
L 147.103321 264.798124 
L 147.103321 264.330372 
L 149.165879 264.330372 
L 149.165879 263.862621 
L 149.381693 263.862621 
L 149.381693 263.394869 
L 149.875833 263.394869 
L 149.875833 262.459366 
L 150.357325 262.459366 
L 150.357325 261.991614 
L 151.731998 261.991614 
L 151.731998 261.523862 
L 153.247435 261.523862 
L 153.247435 260.588359 
L 153.421349 260.588359 
L 153.421349 260.120607 
L 153.821002 260.120607 
L 153.877408 257.781848 
L 155.18278 257.781848 
L 155.18278 257.314097 
L 157.410135 257.314097 
L 157.410135 256.846345 
L 161.163832 256.846345 
L 161.163832 256.378593 
L 162.527853 256.378593 
L 162.527853 255.910841 
L 163.019227 255.910841 
L 163.019227 254.507586 
L 163.565517 254.507586 
L 163.565517 253.104331 
L 167.444174 253.104331 
L 167.444174 252.168828 
L 167.930707 252.168828 
L 167.930707 251.701076 
L 168.063651 251.701076 
L 168.063651 251.233324 
L 169.06958 251.233324 
L 169.144777 249.830069 
L 169.194741 249.830069 
L 169.194741 249.362317 
L 170.635104 249.362317 
L 170.6582 247.49131 
L 171.972982 247.49131 
L 172.080292 245.152552 
L 172.165703 245.152552 
L 172.165703 244.6848 
L 172.99913 244.6848 
L 172.99913 243.281545 
L 173.242125 243.281545 
L 173.242125 242.813793 
L 173.402394 242.813793 
L 173.402394 241.87829 
L 174.260272 241.87829 
L 174.260272 240.942786 
L 174.600249 240.942786 
L 174.600249 240.475034 
L 174.915793 240.475034 
L 175.007602 238.136276 
L 175.866889 238.136276 
L 175.866889 237.200772 
L 175.988986 237.200772 
L 175.988986 234.862014 
L 177.10282 234.862014 
L 177.10282 233.458759 
L 177.951847 233.458759 
L 177.951847 232.991007 
L 178.169864 232.991007 
L 178.216255 231.12 
L 178.734177 231.12 
L 178.734177 230.652248 
L 179.07662 230.652248 
L 179.07662 230.184497 
L 179.828604 230.184497 
L 179.828604 229.248993 
L 180.221402 229.248993 
L 180.221402 228.31349 
L 180.889661 228.31349 
L 180.889661 227.377986 
L 181.741008 227.377986 
L 181.792161 225.974731 
L 181.919439 225.974731 
L 181.919439 225.039228 
L 182.358249 225.039228 
L 182.358249 224.103724 
L 182.787055 224.103724 
L 182.787055 223.168221 
L 183.170733 223.168221 
L 183.170733 222.700469 
L 183.347923 222.700469 
L 183.418335 221.297214 
L 183.858256 221.297214 
L 183.858256 219.893959 
L 184.265742 219.893959 
L 184.265742 219.426207 
L 184.432957 219.426207 
L 184.543614 217.5552 
L 184.686501 217.5552 
L 184.784791 215.684193 
L 185.087338 215.684193 
L 185.087338 214.74869 
L 185.594932 214.74869 
L 185.594932 214.280938 
L 185.802452 214.280938 
L 185.802452 213.345434 
L 186.291356 213.345434 
L 186.291356 212.877683 
L 186.531124 212.877683 
L 186.531124 212.409931 
L 187.165556 212.409931 
L 187.165556 211.474428 
L 187.658132 211.474428 
L 187.658132 210.538924 
L 188.20183 210.538924 
L 188.20183 210.071172 
L 188.588413 210.071172 
L 188.588413 209.135669 
L 189.381237 209.135669 
L 189.381237 208.667917 
L 189.702666 208.667917 
L 189.702666 208.200166 
L 190.394284 208.200166 
L 190.394284 206.329159 
L 190.817932 206.329159 
L 190.817932 205.861407 
L 190.991021 205.861407 
L 190.991021 205.393655 
L 192.768284 205.393655 
L 192.768284 204.925903 
L 193.69967 204.925903 
L 193.69967 203.9904 
L 194.92052 203.9904 
L 194.92052 203.522648 
L 197.845738 203.522648 
L 197.845738 202.587145 
L 360.8064 202.587145 
L 360.8064 202.587145 
" style="fill: none; stroke: #1874b4; stroke-width: 1.733333; stroke-linecap: square"/>
   </g>
   <g id="line2d_192">
    <defs>
     <path id="med16ad5b8b" d="M 0 6.673333 
C 1.769789 6.673333 3.46733 5.970189 4.718759 4.718759 
C 5.970189 3.46733 6.673333 1.769789 6.673333 0 
C 6.673333 -1.769789 5.970189 -3.46733 4.718759 -4.718759 
C 3.46733 -5.970189 1.769789 -6.673333 0 -6.673333 
C -1.769789 -6.673333 -3.46733 -5.970189 -4.718759 -4.718759 
C -5.970189 -3.46733 -6.673333 -1.769789 -6.673333 0 
C -6.673333 1.769789 -5.970189 3.46733 -4.718759 4.718759 
C -3.46733 5.970189 -1.769789 6.673333 0 6.673333 
z
" style="stroke: #1874b4"/>
    </defs>
    <g>
     <use xlink:href="#med16ad5b8b" x="136.126705" y="274.153159" style="fill-opacity: 0; stroke: #1874b4"/>
     <use xlink:href="#med16ad5b8b" x="190.991021" y="205.861407" style="fill-opacity: 0; stroke: #1874b4"/>
     <use xlink:href="#med16ad5b8b" x="197.845738" y="203.522648" style="fill-opacity: 0; stroke: #1874b4"/>
     <use xlink:href="#med16ad5b8b" x="197.845738" y="202.587145" style="fill-opacity: 0; stroke: #1874b4"/>
     <use xlink:href="#med16ad5b8b" x="197.845738" y="202.587145" style="fill-opacity: 0; stroke: #1874b4"/>
     <use xlink:href="#med16ad5b8b" x="360.8064" y="202.587145" style="fill-opacity: 0; stroke: #1874b4"/>
    </g>
   </g>
   <g id="line2d_193">
    <path style="fill: none; stroke: #1874b4; stroke-width: 1.733333; stroke-linecap: square"/>
    <g/>
   </g>
   <g id="line2d_194">
    <path d="M 230.862681 202.587145 
" clip-path="url(#p718e60a0b5)" style="fill: none; stroke: #1874b4; stroke-width: 1.5; stroke-linecap: square"/>
    <defs>
     <path id="m9497f7a9a7" d="M -9.975388 9.975388 
L 9.975388 -9.975388 
M -9.975388 -9.975388 
L 9.975388 9.975388 
" style="stroke: #1874b4"/>
    </defs>
    <g clip-path="url(#p718e60a0b5)">
     <use xlink:href="#m9497f7a9a7" x="230.862681" y="202.587145" style="fill: #1874b4; stroke: #1874b4"/>
    </g>
   </g>
   <g id="line2d_195">
    <defs>
     <path id="m20e9eb4955" d="M 0 1 
C 0.265203 1 0.51958 0.894634 0.707107 0.707107 
C 0.894634 0.51958 1 0.265203 1 0 
C 1 -0.265203 0.894634 -0.51958 0.707107 -0.707107 
C 0.51958 -0.894634 0.265203 -1 0 -1 
C -0.265203 -1 -0.51958 -0.894634 -0.707107 -0.707107 
C -0.894634 -0.51958 -1 -0.265203 -1 0 
C -1 0.265203 -0.894634 0.51958 -0.707107 0.707107 
C -0.51958 0.894634 -0.265203 1 0 1 
z
" style="stroke: #ff7d0b"/>
    </defs>
    <g>
     <use xlink:href="#m20e9eb4955" x="196.209908" y="197.441876" style="fill: #ff7d0b; stroke: #ff7d0b"/>
    </g>
   </g>
   <g id="line2d_196">
    <path d="M 44.560826 298.944 
L 44.560826 297.540745 
L 65.227428 297.540745 
L 65.227428 295.201986 
L 70.639174 295.201986 
L 70.639174 293.798731 
L 78.266603 293.798731 
L 78.266603 292.395476 
L 81.166416 292.395476 
L 81.166416 291.927724 
L 83.678349 291.927724 
L 83.678349 290.524469 
L 91.305777 290.524469 
L 91.305777 289.588966 
L 94.205591 289.588966 
L 94.205591 288.653462 
L 96.717523 288.653462 
L 96.717523 287.717959 
L 100.9152 287.717959 
L 100.9152 286.314703 
L 105.112877 286.314703 
L 105.112877 284.443697 
L 108.542628 284.443697 
L 108.542628 283.975945 
L 109.756698 283.975945 
L 109.756698 283.508193 
L 115.747307 283.508193 
L 115.747307 282.57269 
L 118.524569 282.57269 
L 118.524569 282.104938 
L 120.616896 282.104938 
L 120.616896 281.637186 
L 120.944062 281.637186 
L 120.944062 281.169434 
L 121.581803 281.169434 
L 121.581803 280.701683 
L 125.011554 280.701683 
L 125.011554 276.491917 
L 126.517282 276.491917 
L 126.517282 276.024166 
L 127.911368 276.024166 
L 127.911368 275.088662 
L 129.622688 275.088662 
L 129.622688 273.685407 
L 130.4233 273.685407 
L 130.4233 273.217655 
L 131.002163 273.217655 
L 131.002163 272.282152 
L 131.378407 272.282152 
L 131.378407 271.8144 
L 132.287354 271.8144 
L 132.287354 270.411145 
L 133.323114 270.411145 
L 133.323114 269.00789 
L 135.085483 269.00789 
L 135.085483 268.540138 
L 135.687504 268.540138 
L 135.687504 267.604634 
L 136.126705 267.604634 
L 136.126705 265.265876 
L 136.555884 265.265876 
L 136.555884 264.798124 
L 137.113304 264.798124 
L 137.113304 264.330372 
L 138.050729 264.330372 
L 138.050729 263.394869 
L 139.067817 263.394869 
L 139.067817 262.927117 
L 139.676658 262.927117 
L 139.676658 261.991614 
L 140.725251 261.991614 
L 140.725251 260.588359 
L 142.661862 260.588359 
L 142.661862 260.120607 
L 144.786447 260.120607 
L 144.786447 257.781848 
L 146.941151 257.781848 
L 146.941151 256.378593 
L 147.660152 256.378593 
L 147.660152 255.910841 
L 150.014665 255.910841 
L 150.014665 255.44309 
L 150.152479 255.44309 
L 150.152479 252.168828 
L 151.731998 252.168828 
L 151.731998 251.233324 
L 152.16877 251.233324 
L 152.16877 249.830069 
L 152.413875 249.830069 
L 152.413875 249.362317 
L 152.894708 249.362317 
L 152.894708 248.426814 
L 153.933646 248.426814 
L 153.933646 247.959062 
L 154.649839 247.959062 
L 154.649839 247.49131 
L 155.495444 247.49131 
L 155.495444 246.555807 
L 156.304668 246.555807 
L 156.304668 245.620303 
L 157.032948 245.620303 
L 157.032948 245.152552 
L 158.14255 245.152552 
L 158.14255 244.6848 
L 158.321284 244.6848 
L 158.321284 242.813793 
L 159.401463 242.813793 
L 159.401463 241.410538 
L 160.383158 241.410538 
L 160.383158 240.942786 
L 160.541906 240.942786 
L 160.541906 239.539531 
L 163.362513 239.539531 
L 163.362513 238.136276 
L 165.51383 238.136276 
L 165.51383 237.668524 
L 167.471536 237.668524 
L 167.471536 236.733021 
L 167.742992 236.733021 
L 167.742992 235.797517 
L 168.090128 235.797517 
L 168.195663 234.394262 
L 168.663377 234.394262 
L 168.663377 233.458759 
L 168.943582 233.458759 
L 168.943582 232.523255 
L 169.808349 232.523255 
L 169.808349 231.12 
L 170.048295 231.12 
L 170.048295 230.652248 
L 170.93316 230.652248 
L 170.93316 230.184497 
L 171.136775 230.184497 
L 171.136775 229.248993 
L 172.377547 229.248993 
L 172.377547 228.31349 
L 173.201843 228.31349 
L 173.201843 226.910234 
L 174.449906 226.910234 
L 174.449906 225.039228 
L 175.298414 225.039228 
L 175.298414 224.571476 
L 175.77919 224.571476 
L 175.77919 223.635972 
L 176.299358 223.635972 
L 176.299358 222.700469 
L 176.638314 222.700469 
L 176.655103 221.764966 
L 177.168252 221.764966 
L 177.168252 221.297214 
L 177.379346 221.297214 
L 177.427726 219.893959 
L 177.60406 219.893959 
L 177.60406 218.490703 
L 177.747115 218.490703 
L 177.747115 216.619697 
L 178.339408 216.619697 
L 178.339408 216.151945 
L 178.779198 216.151945 
L 178.779198 215.216441 
L 179.267453 215.216441 
L 179.267453 214.74869 
L 179.398443 214.74869 
L 179.441905 212.877683 
L 179.955757 212.877683 
L 179.955757 211.942179 
L 181.625402 211.942179 
L 181.625402 211.006676 
L 181.843176 211.006676 
L 181.843176 210.071172 
L 182.283747 210.071172 
L 182.283747 209.135669 
L 182.592241 209.135669 
L 182.689901 207.264662 
L 183.206305 207.264662 
L 183.206305 206.79691 
L 183.731965 206.79691 
L 183.789475 204.925903 
L 184.554643 204.925903 
L 184.554643 203.9904 
L 185.374543 203.9904 
L 185.374543 203.522648 
L 186.068851 203.522648 
L 186.068851 202.587145 
L 186.531124 202.587145 
L 186.531124 201.651641 
L 189.398292 201.651641 
L 189.398292 201.18389 
L 191.115912 201.18389 
L 191.115912 200.716138 
L 191.447503 200.716138 
L 191.447503 200.248386 
L 192.945585 200.248386 
L 192.945585 199.780634 
L 193.474543 199.780634 
L 193.474543 199.312883 
L 194.234505 199.312883 
L 194.234505 198.377379 
L 195.631416 198.377379 
L 195.631416 197.909628 
L 196.209908 197.909628 
L 196.209908 197.441876 
L 360.8064 197.441876 
L 360.8064 197.441876 
" style="fill: none; stroke: #ff7d0b; stroke-width: 1.733333; stroke-linecap: square"/>
   </g>
   <g id="line2d_197">
    <defs>
     <path id="mb8b35b2172" d="M -0 9.437519 
L 5.662511 0 
L 0 -9.437519 
L -5.662511 0 
z
" style="stroke: #ff7d0b; stroke-linejoin: miter"/>
    </defs>
    <g>
     <use xlink:href="#mb8b35b2172" x="135.687504" y="267.604634" style="fill-opacity: 0; stroke: #ff7d0b; stroke-linejoin: miter"/>
     <use xlink:href="#mb8b35b2172" x="196.209908" y="197.909628" style="fill-opacity: 0; stroke: #ff7d0b; stroke-linejoin: miter"/>
     <use xlink:href="#mb8b35b2172" x="196.209908" y="197.441876" style="fill-opacity: 0; stroke: #ff7d0b; stroke-linejoin: miter"/>
     <use xlink:href="#mb8b35b2172" x="196.209908" y="197.441876" style="fill-opacity: 0; stroke: #ff7d0b; stroke-linejoin: miter"/>
     <use xlink:href="#mb8b35b2172" x="196.209908" y="197.441876" style="fill-opacity: 0; stroke: #ff7d0b; stroke-linejoin: miter"/>
     <use xlink:href="#mb8b35b2172" x="360.8064" y="197.441876" style="fill-opacity: 0; stroke: #ff7d0b; stroke-linejoin: miter"/>
    </g>
   </g>
   <g id="line2d_198">
    <path style="fill: none; stroke: #ff7d0b; stroke-width: 1.733333; stroke-linecap: square"/>
    <g/>
   </g>
   <g id="line2d_199">
    <path d="M 230.864562 197.441876 
" clip-path="url(#p718e60a0b5)" style="fill: none; stroke: #ff7d0b; stroke-width: 1.5; stroke-linecap: square"/>
    <defs>
     <path id="m4115d5fc78" d="M -9.975388 9.975388 
L 9.975388 -9.975388 
M -9.975388 -9.975388 
L 9.975388 9.975388 
" style="stroke: #ff7d0b"/>
    </defs>
    <g clip-path="url(#p718e60a0b5)">
     <use xlink:href="#m4115d5fc78" x="230.864562" y="197.441876" style="fill: #ff7d0b; stroke: #ff7d0b"/>
    </g>
   </g>
   <g id="line2d_200">
    <defs>
     <path id="m16f44a0971" d="M 0 1 
C 0.265203 1 0.51958 0.894634 0.707107 0.707107 
C 0.894634 0.51958 1 0.265203 1 0 
C 1 -0.265203 0.894634 -0.51958 0.707107 -0.707107 
C 0.51958 -0.894634 0.265203 -1 0 -1 
C -0.265203 -1 -0.51958 -0.894634 -0.707107 -0.707107 
C -0.894634 -0.51958 -1 -0.265203 -1 0 
C -1 0.265203 -0.894634 0.51958 -0.707107 0.707107 
C -0.51958 0.894634 -0.265203 1 0 1 
z
" style="stroke: #22a022"/>
    </defs>
    <g>
     <use xlink:href="#m16f44a0971" x="194.489825" y="201.18389" style="fill: #22a022; stroke: #22a022"/>
    </g>
   </g>
   <g id="line2d_201">
    <path d="M 44.560826 298.944 
L 44.560826 297.540745 
L 65.227428 297.540745 
L 65.227428 297.072993 
L 70.639174 297.072993 
L 70.639174 295.201986 
L 85.894031 295.201986 
L 85.894031 294.266483 
L 87.876026 294.266483 
L 87.876026 293.330979 
L 91.305777 293.330979 
L 91.305777 291.927724 
L 95.503454 291.927724 
L 95.503454 291.459972 
L 101.833019 291.459972 
L 101.833019 290.992221 
L 102.708132 290.992221 
L 102.708132 290.524469 
L 105.112877 290.524469 
L 105.112877 290.056717 
L 105.850679 290.056717 
L 105.850679 289.121214 
L 107.244765 289.121214 
L 107.244765 288.653462 
L 111.442442 288.653462 
L 111.442442 285.846952 
L 115.747307 285.846952 
L 115.747307 285.3792 
L 117.772007 285.3792 
L 117.772007 284.911448 
L 120.28394 284.911448 
L 120.28394 284.443697 
L 120.616896 284.443697 
L 120.616896 283.975945 
L 126.517282 283.975945 
L 126.517282 282.104938 
L 131.002163 282.104938 
L 131.002163 281.637186 
L 131.191226 281.637186 
L 131.191226 280.233931 
L 131.378407 280.233931 
L 131.378407 279.766179 
L 131.563744 279.766179 
L 131.563744 278.362924 
L 132.109044 278.362924 
L 132.109044 277.895172 
L 132.984158 277.895172 
L 132.984158 276.959669 
L 135.085483 276.959669 
L 135.085483 275.088662 
L 138.438609 275.088662 
L 138.438609 273.685407 
L 138.818654 273.685407 
L 138.818654 272.749903 
L 138.943648 272.749903 
L 138.943648 272.282152 
L 140.725251 272.282152 
L 140.725251 271.8144 
L 141.283499 271.8144 
L 141.393187 270.878897 
L 142.143605 270.878897 
L 142.143605 269.943393 
L 142.352625 269.943393 
L 142.352625 269.475641 
L 143.560197 269.475641 
L 143.560197 269.00789 
L 144.417581 269.00789 
L 144.417581 268.540138 
L 144.877544 268.540138 
L 144.877544 267.136883 
L 145.851536 267.136883 
L 145.851536 265.265876 
L 148.800595 265.265876 
L 148.800595 264.798124 
L 149.020615 264.798124 
L 149.020615 262.927117 
L 149.381693 262.927117 
L 149.381693 262.459366 
L 149.665646 262.459366 
L 149.665646 261.991614 
L 150.014665 261.991614 
L 150.014665 261.523862 
L 153.01302 261.523862 
L 153.01302 260.588359 
L 154.377597 260.588359 
L 154.377597 260.120607 
L 154.595705 260.120607 
L 154.595705 259.652855 
L 155.339761 259.652855 
L 155.339761 257.314097 
L 155.598521 257.314097 
L 155.598521 256.378593 
L 156.985263 256.378593 
L 157.080512 254.507586 
L 157.222487 254.507586 
L 157.222487 254.039834 
L 158.976805 254.039834 
L 158.976805 253.104331 
L 159.939564 253.104331 
L 159.939564 252.636579 
L 161.504837 252.636579 
L 161.504837 252.168828 
L 161.839769 252.168828 
L 161.913396 251.233324 
L 162.527853 251.233324 
L 162.527853 250.765572 
L 163.260183 250.765572 
L 163.260183 249.830069 
L 164.928329 249.830069 
L 164.928329 248.426814 
L 165.207944 248.426814 
L 165.300233 247.023559 
L 165.544147 247.023559 
L 165.544147 245.620303 
L 166.022686 245.620303 
L 166.022686 245.152552 
L 166.944723 245.152552 
L 166.944723 244.217048 
L 167.084795 244.217048 
L 167.084795 243.749297 
L 168.968849 243.749297 
L 168.968849 243.281545 
L 169.491772 243.281545 
L 169.491772 242.813793 
L 170.00055 242.813793 
L 170.024438 240.475034 
L 170.6582 240.475034 
L 170.6582 240.007283 
L 171.404878 240.007283 
L 171.404878 238.604028 
L 171.559524 238.604028 
L 171.559524 238.136276 
L 171.865055 238.136276 
L 171.865055 237.200772 
L 172.144386 237.200772 
L 172.144386 236.265269 
L 172.461621 236.265269 
L 172.461621 233.92651 
L 173.080478 233.92651 
L 173.080478 233.458759 
L 173.521707 233.458759 
L 173.521707 231.587752 
L 174.823534 231.587752 
L 174.823534 230.652248 
L 175.620293 230.652248 
L 175.620293 230.184497 
L 176.265124 230.184497 
L 176.316452 228.781241 
L 176.938239 228.781241 
L 176.938239 228.31349 
L 177.427726 228.31349 
L 177.427726 227.377986 
L 177.620009 227.377986 
L 177.635944 225.506979 
L 177.998778 225.506979 
L 177.998778 225.039228 
L 178.431246 225.039228 
L 178.476998 223.635972 
L 178.689047 223.635972 
L 178.689047 223.168221 
L 179.091369 223.168221 
L 179.091369 222.232717 
L 179.456369 222.232717 
L 179.456369 221.297214 
L 180.483348 221.297214 
L 180.565316 219.893959 
L 180.929814 219.893959 
L 180.929814 218.958455 
L 181.534993 218.958455 
L 181.534993 218.490703 
L 181.855908 218.490703 
L 181.944791 217.087448 
L 182.432456 217.087448 
L 182.506372 215.684193 
L 182.774938 215.684193 
L 182.774938 214.74869 
L 183.08747 214.74869 
L 183.08747 213.345434 
L 183.312619 213.345434 
L 183.312619 212.409931 
L 183.708911 212.409931 
L 183.708911 211.942179 
L 183.960958 211.942179 
L 184.05178 209.603421 
L 184.81744 209.603421 
L 184.81744 209.135669 
L 185.108763 209.135669 
L 185.108763 208.667917 
L 185.605362 208.667917 
L 185.605362 207.732414 
L 186.210749 207.732414 
L 186.210749 207.264662 
L 186.381628 207.264662 
L 186.381628 206.79691 
L 187.526779 206.79691 
L 187.5456 204.925903 
L 187.918118 204.925903 
L 187.918118 203.9904 
L 190.738725 203.9904 
L 190.738725 203.522648 
L 191.162533 203.522648 
L 191.162533 202.587145 
L 192.746895 202.587145 
L 192.746895 202.119393 
L 193.239741 202.119393 
L 193.239741 201.651641 
L 194.489825 201.651641 
L 194.489825 201.18389 
L 360.8064 201.18389 
L 360.8064 201.18389 
" style="fill: none; stroke: #22a022; stroke-width: 1.733333; stroke-linecap: square"/>
   </g>
   <g id="line2d_202">
    <defs>
     <path id="m7d652d55a6" d="M 0 -8.294 
L -1.862119 -2.562987 
L -7.888063 -2.562987 
L -3.012972 0.978974 
L -4.875091 6.709987 
L -0 3.168026 
L 4.875091 6.709987 
L 3.012972 0.978974 
L 7.888063 -2.562987 
L 1.862119 -2.562987 
z
" style="stroke: #22a022; stroke-linejoin: bevel"/>
    </defs>
    <g>
     <use xlink:href="#m7d652d55a6" x="131.563744" y="279.766179" style="fill-opacity: 0; stroke: #22a022; stroke-linejoin: bevel"/>
     <use xlink:href="#m7d652d55a6" x="177.635944" y="226.442483" style="fill-opacity: 0; stroke: #22a022; stroke-linejoin: bevel"/>
     <use xlink:href="#m7d652d55a6" x="194.489825" y="201.651641" style="fill-opacity: 0; stroke: #22a022; stroke-linejoin: bevel"/>
     <use xlink:href="#m7d652d55a6" x="194.489825" y="201.18389" style="fill-opacity: 0; stroke: #22a022; stroke-linejoin: bevel"/>
     <use xlink:href="#m7d652d55a6" x="194.489825" y="201.18389" style="fill-opacity: 0; stroke: #22a022; stroke-linejoin: bevel"/>
     <use xlink:href="#m7d652d55a6" x="360.8064" y="201.18389" style="fill-opacity: 0; stroke: #22a022; stroke-linejoin: bevel"/>
    </g>
   </g>
   <g id="line2d_203">
    <path style="fill: none; stroke: #22a022; stroke-width: 1.733333; stroke-linecap: square"/>
    <g/>
   </g>
   <g id="line2d_204">
    <path d="M 274.176094 201.18389 
" clip-path="url(#p718e60a0b5)" style="fill: none; stroke: #22a022; stroke-width: 1.5; stroke-linecap: square"/>
    <defs>
     <path id="m6d4ea138ec" d="M -9.975388 9.975388 
L 9.975388 -9.975388 
M -9.975388 -9.975388 
L 9.975388 9.975388 
" style="stroke: #22a022"/>
    </defs>
    <g clip-path="url(#p718e60a0b5)">
     <use xlink:href="#m6d4ea138ec" x="274.176094" y="201.18389" style="fill: #22a022; stroke: #22a022"/>
    </g>
   </g>
   <g id="line2d_205">
    <path d="M 360.8064 202.587145 
L 380.514816 293.51808 
" style="fill: none; stroke: #1874b4; stroke-width: 1.733333; stroke-linecap: square"/>
    <g>
     <use xlink:href="#med16ad5b8b" x="360.8064" y="202.587145" style="fill-opacity: 0; stroke: #1874b4"/>
     <use xlink:href="#med16ad5b8b" x="380.514816" y="293.51808" style="fill-opacity: 0; stroke: #1874b4"/>
    </g>
   </g>
   <g id="line2d_206">
    <path d="M 360.8064 201.18389 
L 380.514816 206.70336 
" style="fill: none; stroke: #22a022; stroke-width: 1.733333; stroke-linecap: square"/>
    <g>
     <use xlink:href="#m7d652d55a6" x="360.8064" y="201.18389" style="fill-opacity: 0; stroke: #22a022; stroke-linejoin: bevel"/>
     <use xlink:href="#m7d652d55a6" x="380.514816" y="206.70336" style="fill-opacity: 0; stroke: #22a022; stroke-linejoin: bevel"/>
    </g>
   </g>
   <g id="line2d_207">
    <path d="M 360.8064 197.441876 
L 380.514816 119.88864 
" style="fill: none; stroke: #ff7d0b; stroke-width: 1.733333; stroke-linecap: square"/>
    <g>
     <use xlink:href="#mb8b35b2172" x="360.8064" y="197.441876" style="fill-opacity: 0; stroke: #ff7d0b; stroke-linejoin: miter"/>
     <use xlink:href="#mb8b35b2172" x="380.514816" y="119.88864" style="fill-opacity: 0; stroke: #ff7d0b; stroke-linejoin: miter"/>
    </g>
   </g>
   <g id="line2d_208">
    <path d="M 360.8064 298.944 
L 360.8064 27.648 
" style="fill: none; stroke: #000000; stroke-width: 1.5; stroke-linecap: square"/>
   </g>
   <g id="patch_3">
    <path d="M 57.6 298.944 
L 360.8064 298.944 
" style="fill: none; stroke: #000000; stroke-width: 0.8; stroke-linejoin: miter; stroke-linecap: square"/>
   </g>
   <g id="patch_4">
    <path d="M 57.6 27.648 
L 360.8064 27.648 
" style="fill: none; stroke: #000000; stroke-width: 0.8; stroke-linejoin: miter; stroke-linecap: square"/>
   </g>
   <g id="text_17">
    <!-- Como -->
    <g transform="translate(386.578944 297.381205) scale(0.14 -0.14)">
     <defs>
      <path id="DejaVuSans-43" d="M 4122 4306 
L 4122 3641 
Q 3803 3938 3442 4084 
Q 3081 4231 2675 4231 
Q 1875 4231 1450 3742 
Q 1025 3253 1025 2328 
Q 1025 1406 1450 917 
Q 1875 428 2675 428 
Q 3081 428 3442 575 
Q 3803 722 4122 1019 
L 4122 359 
Q 3791 134 3420 21 
Q 3050 -91 2638 -91 
Q 1578 -91 968 557 
Q 359 1206 359 2328 
Q 359 3453 968 4101 
Q 1578 4750 2638 4750 
Q 3056 4750 3426 4639 
Q 3797 4528 4122 4306 
z
" transform="scale(0.015625)"/>
     </defs>
     <use xlink:href="#DejaVuSans-43"/>
     <use xlink:href="#DejaVuSans-6f" x="69.824219"/>
     <use xlink:href="#DejaVuSans-6d" x="131.005859"/>
     <use xlink:href="#DejaVuSans-6f" x="228.417969"/>
    </g>
   </g>
   <g id="text_18">
    <!-- COMO-10 d -->
    <g transform="translate(386.578944 210.566485) scale(0.14 -0.14)">
     <defs>
      <path id="DejaVuSans-4f" d="M 2522 4238 
Q 1834 4238 1429 3725 
Q 1025 3213 1025 2328 
Q 1025 1447 1429 934 
Q 1834 422 2522 422 
Q 3209 422 3611 934 
Q 4013 1447 4013 2328 
Q 4013 3213 3611 3725 
Q 3209 4238 2522 4238 
z
M 2522 4750 
Q 3503 4750 4090 4092 
Q 4678 3434 4678 2328 
Q 4678 1225 4090 567 
Q 3503 -91 2522 -91 
Q 1538 -91 948 565 
Q 359 1222 359 2328 
Q 359 3434 948 4092 
Q 1538 4750 2522 4750 
z
" transform="scale(0.015625)"/>
      <path id="DejaVuSans-4d" d="M 628 4666 
L 1569 4666 
L 2759 1491 
L 3956 4666 
L 4897 4666 
L 4897 0 
L 4281 0 
L 4281 4097 
L 3078 897 
L 2444 897 
L 1241 4097 
L 1241 0 
L 628 0 
L 628 4666 
z
" transform="scale(0.015625)"/>
     </defs>
     <use xlink:href="#DejaVuSans-43"/>
     <use xlink:href="#DejaVuSans-4f" x="69.824219"/>
     <use xlink:href="#DejaVuSans-4d" x="148.535156"/>
     <use xlink:href="#DejaVuSans-4f" x="234.814453"/>
     <use xlink:href="#DejaVuSans-2d" x="316.275391"/>
     <use xlink:href="#DejaVuSans-31" x="352.359375"/>
     <use xlink:href="#DejaVuSans-30" x="415.982422"/>
     <use xlink:href="#DejaVuSans-20" x="479.605469"/>
     <use xlink:href="#DejaVuSans-64" x="511.392578"/>
    </g>
   </g>
   <g id="text_19">
    <!-- LQ -->
    <g transform="translate(386.578944 123.751765) scale(0.14 -0.14)">
     <defs>
      <path id="DejaVuSans-4c" d="M 628 4666 
L 1259 4666 
L 1259 531 
L 3531 531 
L 3531 0 
L 628 0 
L 628 4666 
z
" transform="scale(0.015625)"/>
      <path id="DejaVuSans-51" d="M 2522 4238 
Q 1834 4238 1429 3725 
Q 1025 3213 1025 2328 
Q 1025 1447 1429 934 
Q 1834 422 2522 422 
Q 3209 422 3611 934 
Q 4013 1447 4013 2328 
Q 4013 3213 3611 3725 
Q 3209 4238 2522 4238 
z
M 3406 84 
L 4238 -825 
L 3475 -825 
L 2784 -78 
Q 2681 -84 2626 -87 
Q 2572 -91 2522 -91 
Q 1538 -91 948 567 
Q 359 1225 359 2328 
Q 359 3434 948 4092 
Q 1538 4750 2522 4750 
Q 3503 4750 4090 4092 
Q 4678 3434 4678 2328 
Q 4678 1516 4351 937 
Q 4025 359 3406 84 
z
" transform="scale(0.015625)"/>
     </defs>
     <use xlink:href="#DejaVuSans-4c"/>
     <use xlink:href="#DejaVuSans-51" x="55.712891"/>
    </g>
   </g>
   <g id="text_20">
    <!-- best 2016 -->
    <g transform="translate(386.578944 36.937045) scale(0.14 -0.14)">
     <defs>
      <path id="DejaVuSans-62" d="M 3116 1747 
Q 3116 2381 2855 2742 
Q 2594 3103 2138 3103 
Q 1681 3103 1420 2742 
Q 1159 2381 1159 1747 
Q 1159 1113 1420 752 
Q 1681 391 2138 391 
Q 2594 391 2855 752 
Q 3116 1113 3116 1747 
z
M 1159 2969 
Q 1341 3281 1617 3432 
Q 1894 3584 2278 3584 
Q 2916 3584 3314 3078 
Q 3713 2572 3713 1747 
Q 3713 922 3314 415 
Q 2916 -91 2278 -91 
Q 1894 -91 1617 61 
Q 1341 213 1159 525 
L 1159 0 
L 581 0 
L 581 4863 
L 1159 4863 
L 1159 2969 
z
" transform="scale(0.015625)"/>
     </defs>
     <use xlink:href="#DejaVuSans-62"/>
     <use xlink:href="#DejaVuSans-65" x="63.476562"/>
     <use xlink:href="#DejaVuSans-73" x="125"/>
     <use xlink:href="#DejaVuSans-74" x="177.099609"/>
     <use xlink:href="#DejaVuSans-20" x="216.308594"/>
     <use xlink:href="#DejaVuSans-32" x="248.095703"/>
     <use xlink:href="#DejaVuSans-30" x="311.71875"/>
     <use xlink:href="#DejaVuSans-31" x="375.341797"/>
     <use xlink:href="#DejaVuSans-36" x="438.964844"/>
    </g>
   </g>
   <g id="text_21">
    <!-- bbob-biobj f49, 2-D -->
    <g transform="translate(60.632064 37.199554) scale(0.09 -0.09)">
     <defs>
      <path id="DejaVuSans-6a" d="M 603 3500 
L 1178 3500 
L 1178 -63 
Q 1178 -731 923 -1031 
Q 669 -1331 103 -1331 
L -116 -1331 
L -116 -844 
L 38 -844 
Q 366 -844 484 -692 
Q 603 -541 603 -63 
L 603 3500 
z
M 603 4863 
L 1178 4863 
L 1178 4134 
L 603 4134 
L 603 4863 
z
" transform="scale(0.015625)"/>
      <path id="DejaVuSans-39" d="M 703 97 
L 703 672 
Q 941 559 1184 500 
Q 1428 441 1663 441 
Q 2288 441 2617 861 
Q 2947 1281 2994 2138 
Q 2813 1869 2534 1725 
Q 2256 1581 1919 1581 
Q 1219 1581 811 2004 
Q 403 2428 403 3163 
Q 403 3881 828 4315 
Q 1253 4750 1959 4750 
Q 2769 4750 3195 4129 
Q 3622 3509 3622 2328 
Q 3622 1225 3098 567 
Q 2575 -91 1691 -91 
Q 1453 -91 1209 -44 
Q 966 3 703 97 
z
M 1959 2075 
Q 2384 2075 2632 2365 
Q 2881 2656 2881 3163 
Q 2881 3666 2632 3958 
Q 2384 4250 1959 4250 
Q 1534 4250 1286 3958 
Q 1038 3666 1038 3163 
Q 1038 2656 1286 2365 
Q 1534 2075 1959 2075 
z
" transform="scale(0.015625)"/>
      <path id="DejaVuSans-44" d="M 1259 4147 
L 1259 519 
L 2022 519 
Q 2988 519 3436 956 
Q 3884 1394 3884 2338 
Q 3884 3275 3436 3711 
Q 2988 4147 2022 4147 
L 1259 4147 
z
M 628 4666 
L 1925 4666 
Q 3281 4666 3915 4102 
Q 4550 3538 4550 2338 
Q 4550 1131 3912 565 
Q 3275 0 1925 0 
L 628 0 
L 628 4666 
z
" transform="scale(0.015625)"/>
     </defs>
     <use xlink:href="#DejaVuSans-62"/>
     <use xlink:href="#DejaVuSans-62" x="63.476562"/>
     <use xlink:href="#DejaVuSans-6f" x="126.953125"/>
     <use xlink:href="#DejaVuSans-62" x="188.134766"/>
     <use xlink:href="#DejaVuSans-2d" x="251.611328"/>
     <use xlink:href="#DejaVuSans-62" x="287.695312"/>
     <use xlink:href="#DejaVuSans-69" x="351.171875"/>
     <use xlink:href="#DejaVuSans-6f" x="378.955078"/>
     <use xlink:href="#DejaVuSans-62" x="440.136719"/>
     <use xlink:href="#DejaVuSans-6a" x="503.613281"/>
     <use xlink:href="#DejaVuSans-20" x="531.396484"/>
     <use xlink:href="#DejaVuSans-66" x="563.183594"/>
     <use xlink:href="#DejaVuSans-34" x="598.388672"/>
     <use xlink:href="#DejaVuSans-39" x="662.011719"/>
     <use xlink:href="#DejaVuSans-2c" x="725.634766"/>
     <use xlink:href="#DejaVuSans-20" x="757.421875"/>
     <use xlink:href="#DejaVuSans-32" x="789.208984"/>
     <use xlink:href="#DejaVuSans-2d" x="852.832031"/>
     <use xlink:href="#DejaVuSans-44" x="888.916016"/>
    </g>
    <!-- 58 targets: 1..-1.0e-4 -->
    <g transform="translate(60.632064 47.277585) scale(0.09 -0.09)">
     <defs>
      <path id="DejaVuSans-3a" d="M 750 794 
L 1409 794 
L 1409 0 
L 750 0 
L 750 794 
z
M 750 3309 
L 1409 3309 
L 1409 2516 
L 750 2516 
L 750 3309 
z
" transform="scale(0.015625)"/>
     </defs>
     <use xlink:href="#DejaVuSans-35"/>
     <use xlink:href="#DejaVuSans-38" x="63.623047"/>
     <use xlink:href="#DejaVuSans-20" x="127.246094"/>
     <use xlink:href="#DejaVuSans-74" x="159.033203"/>
     <use xlink:href="#DejaVuSans-61" x="198.242188"/>
     <use xlink:href="#DejaVuSans-72" x="259.521484"/>
     <use xlink:href="#DejaVuSans-67" x="298.884766"/>
     <use xlink:href="#DejaVuSans-65" x="362.361328"/>
     <use xlink:href="#DejaVuSans-74" x="423.884766"/>
     <use xlink:href="#DejaVuSans-73" x="463.09375"/>
     <use xlink:href="#DejaVuSans-3a" x="515.193359"/>
     <use xlink:href="#DejaVuSans-20" x="548.884766"/>
     <use xlink:href="#DejaVuSans-31" x="580.671875"/>
     <use xlink:href="#DejaVuSans-2e" x="644.294922"/>
     <use xlink:href="#DejaVuSans-2e" x="676.082031"/>
     <use xlink:href="#DejaVuSans-2d" x="707.869141"/>
     <use xlink:href="#DejaVuSans-31" x="743.953125"/>
     <use xlink:href="#DejaVuSans-2e" x="807.576172"/>
     <use xlink:href="#DejaVuSans-30" x="839.363281"/>
     <use xlink:href="#DejaVuSans-65" x="902.986328"/>
     <use xlink:href="#DejaVuSans-2d" x="964.509766"/>
     <use xlink:href="#DejaVuSans-34" x="1000.59375"/>
    </g>
    <!-- 10 instances -->
    <g transform="translate(60.632064 57.355616) scale(0.09 -0.09)">
     <use xlink:href="#DejaVuSans-31"/>
     <use xlink:href="#DejaVuSans-30" x="63.623047"/>
     <use xlink:href="#DejaVuSans-20" x="127.246094"/>
     <use xlink:href="#DejaVuSans-69" x="159.033203"/>
     <use xlink:href="#DejaVuSans-6e" x="186.816406"/>
     <use xlink:href="#DejaVuSans-73" x="250.195312"/>
     <use xlink:href="#DejaVuSans-74" x="302.294922"/>
     <use xlink:href="#DejaVuSans-61" x="341.503906"/>
     <use xlink:href="#DejaVuSans-6e" x="402.783203"/>
     <use xlink:href="#DejaVuSans-63" x="466.162109"/>
     <use xlink:href="#DejaVuSans-65" x="521.142578"/>
     <use xlink:href="#DejaVuSans-73" x="582.666016"/>
    </g>
   </g>
   <g id="text_22">
    <!-- v2.6.1.152, hv-hash=ff0e71e8cd978373 -->
    <g style="fill: #808080" transform="translate(107.804762 294.151352) scale(0.1 -0.1)">
     <defs>
      <path id="DejaVuSans-68" d="M 3513 2113 
L 3513 0 
L 2938 0 
L 2938 2094 
Q 2938 2591 2744 2837 
Q 2550 3084 2163 3084 
Q 1697 3084 1428 2787 
Q 1159 2491 1159 1978 
L 1159 0 
L 581 0 
L 581 4863 
L 1159 4863 
L 1159 2956 
Q 1366 3272 1645 3428 
Q 1925 3584 2291 3584 
Q 2894 3584 3203 3211 
Q 3513 2838 3513 2113 
z
" transform="scale(0.015625)"/>
      <path id="DejaVuSans-3d" d="M 678 2906 
L 4684 2906 
L 4684 2381 
L 678 2381 
L 678 2906 
z
M 678 1631 
L 4684 1631 
L 4684 1100 
L 678 1100 
L 678 1631 
z
" transform="scale(0.015625)"/>
     </defs>
     <use xlink:href="#DejaVuSans-76"/>
     <use xlink:href="#DejaVuSans-32" x="59.179688"/>
     <use xlink:href="#DejaVuSans-2e" x="122.802734"/>
     <use xlink:href="#DejaVuSans-36" x="154.589844"/>
     <use xlink:href="#DejaVuSans-2e" x="218.212891"/>
     <use xlink:href="#DejaVuSans-31" x="250"/>
     <use xlink:href="#DejaVuSans-2e" x="313.623047"/>
     <use xlink:href="#DejaVuSans-31" x="345.410156"/>
     <use xlink:href="#DejaVuSans-35" x="409.033203"/>
     <use xlink:href="#DejaVuSans-32" x="472.65625"/>
     <use xlink:href="#DejaVuSans-2c" x="536.279297"/>
     <use xlink:href="#DejaVuSans-20" x="568.066406"/>
     <use xlink:href="#DejaVuSans-68" x="599.853516"/>
     <use xlink:href="#DejaVuSans-76" x="663.232422"/>
     <use xlink:href="#DejaVuSans-2d" x="719.787109"/>
     <use xlink:href="#DejaVuSans-68" x="755.871094"/>
     <use xlink:href="#DejaVuSans-61" x="819.25"/>
     <use xlink:href="#DejaVuSans-73" x="880.529297"/>
     <use xlink:href="#DejaVuSans-68" x="932.628906"/>
     <use xlink:href="#DejaVuSans-3d" x="996.007812"/>
     <use xlink:href="#DejaVuSans-66" x="1079.796875"/>
     <use xlink:href="#DejaVuSans-66" x="1115.001953"/>
     <use xlink:href="#DejaVuSans-30" x="1150.207031"/>
     <use xlink:href="#DejaVuSans-65" x="1213.830078"/>
     <use xlink:href="#DejaVuSans-37" x="1275.353516"/>
     <use xlink:href="#DejaVuSans-31" x="1338.976562"/>
     <use xlink:href="#DejaVuSans-65" x="1402.599609"/>
     <use xlink:href="#DejaVuSans-38" x="1464.123047"/>
     <use xlink:href="#DejaVuSans-63" x="1527.746094"/>
     <use xlink:href="#DejaVuSans-64" x="1582.726562"/>
     <use xlink:href="#DejaVuSans-39" x="1646.203125"/>
     <use xlink:href="#DejaVuSans-37" x="1709.826172"/>
     <use xlink:href="#DejaVuSans-38" x="1773.449219"/>
     <use xlink:href="#DejaVuSans-33" x="1837.072266"/>
     <use xlink:href="#DejaVuSans-37" x="1900.695312"/>
     <use xlink:href="#DejaVuSans-33" x="1964.318359"/>
    </g>
   </g>
   <g id="text_23">
    <!-- 49 Rastrigin/Gallagher 101 -->
    <g transform="translate(74.820387 21.648) scale(0.2 -0.2)">
     <defs>
      <path id="DejaVuSans-52" d="M 2841 2188 
Q 3044 2119 3236 1894 
Q 3428 1669 3622 1275 
L 4263 0 
L 3584 0 
L 2988 1197 
Q 2756 1666 2539 1819 
Q 2322 1972 1947 1972 
L 1259 1972 
L 1259 0 
L 628 0 
L 628 4666 
L 2053 4666 
Q 2853 4666 3247 4331 
Q 3641 3997 3641 3322 
Q 3641 2881 3436 2590 
Q 3231 2300 2841 2188 
z
M 1259 4147 
L 1259 2491 
L 2053 2491 
Q 2509 2491 2742 2702 
Q 2975 2913 2975 3322 
Q 2975 3731 2742 3939 
Q 2509 4147 2053 4147 
L 1259 4147 
z
" transform="scale(0.015625)"/>
      <path id="DejaVuSans-47" d="M 3809 666 
L 3809 1919 
L 2778 1919 
L 2778 2438 
L 4434 2438 
L 4434 434 
Q 4069 175 3628 42 
Q 3188 -91 2688 -91 
Q 1594 -91 976 548 
Q 359 1188 359 2328 
Q 359 3472 976 4111 
Q 1594 4750 2688 4750 
Q 3144 4750 3555 4637 
Q 3966 4525 4313 4306 
L 4313 3634 
Q 3963 3931 3569 4081 
Q 3175 4231 2741 4231 
Q 1884 4231 1454 3753 
Q 1025 3275 1025 2328 
Q 1025 1384 1454 906 
Q 1884 428 2741 428 
Q 3075 428 3337 486 
Q 3600 544 3809 666 
z
" transform="scale(0.015625)"/>
     </defs>
     <use xlink:href="#DejaVuSans-34"/>
     <use xlink:href="#DejaVuSans-39" x="63.623047"/>
     <use xlink:href="#DejaVuSans-20" x="127.246094"/>
     <use xlink:href="#DejaVuSans-52" x="159.033203"/>
     <use xlink:href="#DejaVuSans-61" x="226.265625"/>
     <use xlink:href="#DejaVuSans-73" x="287.544922"/>
     <use xlink:href="#DejaVuSans-74" x="339.644531"/>
     <use xlink:href="#DejaVuSans-72" x="378.853516"/>
     <use xlink:href="#DejaVuSans-69" x="419.966797"/>
     <use xlink:href="#DejaVuSans-67" x="447.75"/>
     <use xlink:href="#DejaVuSans-69" x="511.226562"/>
     <use xlink:href="#DejaVuSans-6e" x="539.009766"/>
     <use xlink:href="#DejaVuSans-2f" x="602.388672"/>
     <use xlink:href="#DejaVuSans-47" x="636.080078"/>
     <use xlink:href="#DejaVuSans-61" x="713.570312"/>
     <use xlink:href="#DejaVuSans-6c" x="774.849609"/>
     <use xlink:href="#DejaVuSans-6c" x="802.632812"/>
     <use xlink:href="#DejaVuSans-61" x="830.416016"/>
     <use xlink:href="#DejaVuSans-67" x="891.695312"/>
     <use xlink:href="#DejaVuSans-68" x="955.171875"/>
     <use xlink:href="#DejaVuSans-65" x="1018.550781"/>
     <use xlink:href="#DejaVuSans-72" x="1080.074219"/>
     <use xlink:href="#DejaVuSans-20" x="1121.1875"/>
     <use xlink:href="#DejaVuSans-31" x="1152.974609"/>
     <use xlink:href="#DejaVuSans-30" x="1216.597656"/>
     <use xlink:href="#DejaVuSans-31" x="1280.220703"/>
    </g>
   </g>
  </g>
 </g>
 <defs>
  <clipPath id="p718e60a0b5">
   <rect x="57.6" y="27.648" width="303.2064" height="271.296"/>
  </clipPath>
 </defs>
</svg>
