<?xml version="1.0" encoding="utf-8" standalone="no"?>
<!DOCTYPE svg PUBLIC "-//W3C//DTD SVG 1.1//EN"
  "http://www.w3.org/Graphics/SVG/1.1/DTD/svg11.dtd">
<svg xmlns:xlink="http://www.w3.org/1999/xlink" width="460.8pt" height="345.6pt" viewBox="0 0 460.8 345.6" xmlns="http://www.w3.org/2000/svg" version="1.1">
 <metadata>
  <rdf:RDF xmlns:dc="http://purl.org/dc/elements/1.1/" xmlns:cc="http://creativecommons.org/ns#" xmlns:rdf="http://www.w3.org/1999/02/22-rdf-syntax-ns#">
   <cc:Work>
    <dc:type rdf:resource="http://purl.org/dc/dcmitype/StillImage"/>
    <dc:date>2023-02-16T10:11:32.836569</dc:date>
    <dc:format>image/svg+xml</dc:format>
    <dc:creator>
     <cc:Agent>
      <dc:title>Matplotlib v3.6.3, https://matplotlib.org/</dc:title>
     </cc:Agent>
    </dc:creator>
   </cc:Work>
  </rdf:RDF>
 </metadata>
 <defs>
  <style type="text/css">*{stroke-linejoin: round; stroke-linecap: butt}</style>
 </defs>
 <g id="figure_1">
  <g id="patch_1">
   <path d="M 0 345.6 
L 460.8 345.6 
L 460.8 0 
L 0 0 
z
" style="fill: #ffffff"/>
  </g>
  <g id="axes_1">
   <g id="patch_2">
    <path d="M 57.6 298.944 
L 360.8064 298.944 
L 360.8064 6.912 
L 57.6 6.912 
z
" style="fill: #ffffff"/>
   </g>
   <g id="matplotlib.axis_1">
    <g id="xtick_1">
     <g id="line2d_1">
      <path d="M 57.6 298.944 
L 57.6 6.912 
" clip-path="url(#p2f28fc4e0f)" style="fill: none; stroke: #b0b0b0; stroke-width: 0.8; stroke-linecap: square"/>
     </g>
     <g id="line2d_2">
      <defs>
       <path id="mb27b4546ba" d="M 0 0 
L 0 3.5 
" style="stroke: #000000; stroke-width: 0.8"/>
      </defs>
      <g>
       <use xlink:href="#mb27b4546ba" x="57.6" y="298.944" style="stroke: #000000; stroke-width: 0.8"/>
      </g>
     </g>
     <g id="text_1">
      <!-- 0 -->
      <g transform="translate(52.191875 318.861344) scale(0.17 -0.17)">
       <defs>
        <path id="DejaVuSans-30" d="M 2034 4250 
Q 1547 4250 1301 3770 
Q 1056 3291 1056 2328 
Q 1056 1369 1301 889 
Q 1547 409 2034 409 
Q 2525 409 2770 889 
Q 3016 1369 3016 2328 
Q 3016 3291 2770 3770 
Q 2525 4250 2034 4250 
z
M 2034 4750 
Q 2819 4750 3233 4129 
Q 3647 3509 3647 2328 
Q 3647 1150 3233 529 
Q 2819 -91 2034 -91 
Q 1250 -91 836 529 
Q 422 1150 422 2328 
Q 422 3509 836 4129 
Q 1250 4750 2034 4750 
z
" transform="scale(0.015625)"/>
       </defs>
       <use xlink:href="#DejaVuSans-30"/>
      </g>
     </g>
    </g>
    <g id="xtick_2">
     <g id="line2d_3">
      <path d="M 144.2304 298.944 
L 144.2304 6.912 
" clip-path="url(#p2f28fc4e0f)" style="fill: none; stroke: #b0b0b0; stroke-width: 0.8; stroke-linecap: square"/>
     </g>
     <g id="line2d_4">
      <g>
       <use xlink:href="#mb27b4546ba" x="144.2304" y="298.944" style="stroke: #000000; stroke-width: 0.8"/>
      </g>
     </g>
     <g id="text_2">
      <!-- 2 -->
      <g transform="translate(138.822275 318.861344) scale(0.17 -0.17)">
       <defs>
        <path id="DejaVuSans-32" d="M 1228 531 
L 3431 531 
L 3431 0 
L 469 0 
L 469 531 
Q 828 903 1448 1529 
Q 2069 2156 2228 2338 
Q 2531 2678 2651 2914 
Q 2772 3150 2772 3378 
Q 2772 3750 2511 3984 
Q 2250 4219 1831 4219 
Q 1534 4219 1204 4116 
Q 875 4013 500 3803 
L 500 4441 
Q 881 4594 1212 4672 
Q 1544 4750 1819 4750 
Q 2544 4750 2975 4387 
Q 3406 4025 3406 3419 
Q 3406 3131 3298 2873 
Q 3191 2616 2906 2266 
Q 2828 2175 2409 1742 
Q 1991 1309 1228 531 
z
" transform="scale(0.015625)"/>
       </defs>
       <use xlink:href="#DejaVuSans-32"/>
      </g>
     </g>
    </g>
    <g id="xtick_3">
     <g id="line2d_5">
      <path d="M 230.8608 298.944 
L 230.8608 6.912 
" clip-path="url(#p2f28fc4e0f)" style="fill: none; stroke: #b0b0b0; stroke-width: 0.8; stroke-linecap: square"/>
     </g>
     <g id="line2d_6">
      <g>
       <use xlink:href="#mb27b4546ba" x="230.8608" y="298.944" style="stroke: #000000; stroke-width: 0.8"/>
      </g>
     </g>
     <g id="text_3">
      <!-- 4 -->
      <g transform="translate(225.452675 318.861344) scale(0.17 -0.17)">
       <defs>
        <path id="DejaVuSans-34" d="M 2419 4116 
L 825 1625 
L 2419 1625 
L 2419 4116 
z
M 2253 4666 
L 3047 4666 
L 3047 1625 
L 3713 1625 
L 3713 1100 
L 3047 1100 
L 3047 0 
L 2419 0 
L 2419 1100 
L 313 1100 
L 313 1709 
L 2253 4666 
z
" transform="scale(0.015625)"/>
       </defs>
       <use xlink:href="#DejaVuSans-34"/>
      </g>
     </g>
    </g>
    <g id="xtick_4">
     <g id="line2d_7">
      <path d="M 317.4912 298.944 
L 317.4912 6.912 
" clip-path="url(#p2f28fc4e0f)" style="fill: none; stroke: #b0b0b0; stroke-width: 0.8; stroke-linecap: square"/>
     </g>
     <g id="line2d_8">
      <g>
       <use xlink:href="#mb27b4546ba" x="317.4912" y="298.944" style="stroke: #000000; stroke-width: 0.8"/>
      </g>
     </g>
     <g id="text_4">
      <!-- 6 -->
      <g transform="translate(312.083075 318.861344) scale(0.17 -0.17)">
       <defs>
        <path id="DejaVuSans-36" d="M 2113 2584 
Q 1688 2584 1439 2293 
Q 1191 2003 1191 1497 
Q 1191 994 1439 701 
Q 1688 409 2113 409 
Q 2538 409 2786 701 
Q 3034 994 3034 1497 
Q 3034 2003 2786 2293 
Q 2538 2584 2113 2584 
z
M 3366 4563 
L 3366 3988 
Q 3128 4100 2886 4159 
Q 2644 4219 2406 4219 
Q 1781 4219 1451 3797 
Q 1122 3375 1075 2522 
Q 1259 2794 1537 2939 
Q 1816 3084 2150 3084 
Q 2853 3084 3261 2657 
Q 3669 2231 3669 1497 
Q 3669 778 3244 343 
Q 2819 -91 2113 -91 
Q 1303 -91 875 529 
Q 447 1150 447 2328 
Q 447 3434 972 4092 
Q 1497 4750 2381 4750 
Q 2619 4750 2861 4703 
Q 3103 4656 3366 4563 
z
" transform="scale(0.015625)"/>
       </defs>
       <use xlink:href="#DejaVuSans-36"/>
      </g>
     </g>
    </g>
    <g id="xtick_5">
     <g id="line2d_9">
      <path d="M 100.9152 298.944 
L 100.9152 6.912 
" clip-path="url(#p2f28fc4e0f)" style="fill: none; stroke: #b0b0b0; stroke-width: 0.8; stroke-linecap: square"/>
     </g>
     <g id="line2d_10">
      <defs>
       <path id="m15221fbce9" d="M 0 0 
L 0 2 
" style="stroke: #000000; stroke-width: 0.6"/>
      </defs>
      <g>
       <use xlink:href="#m15221fbce9" x="100.9152" y="298.944" style="stroke: #000000; stroke-width: 0.6"/>
      </g>
     </g>
    </g>
    <g id="xtick_6">
     <g id="line2d_11">
      <path d="M 187.5456 298.944 
L 187.5456 6.912 
" clip-path="url(#p2f28fc4e0f)" style="fill: none; stroke: #b0b0b0; stroke-width: 0.8; stroke-linecap: square"/>
     </g>
     <g id="line2d_12">
      <g>
       <use xlink:href="#m15221fbce9" x="187.5456" y="298.944" style="stroke: #000000; stroke-width: 0.6"/>
      </g>
     </g>
    </g>
    <g id="xtick_7">
     <g id="line2d_13">
      <path d="M 274.176 298.944 
L 274.176 6.912 
" clip-path="url(#p2f28fc4e0f)" style="fill: none; stroke: #b0b0b0; stroke-width: 0.8; stroke-linecap: square"/>
     </g>
     <g id="line2d_14">
      <g>
       <use xlink:href="#m15221fbce9" x="274.176" y="298.944" style="stroke: #000000; stroke-width: 0.6"/>
      </g>
     </g>
    </g>
    <g id="xtick_8">
     <g id="line2d_15">
      <path d="M 360.8064 298.944 
L 360.8064 6.912 
" clip-path="url(#p2f28fc4e0f)" style="fill: none; stroke: #b0b0b0; stroke-width: 0.8; stroke-linecap: square"/>
     </g>
     <g id="line2d_16">
      <g>
       <use xlink:href="#m15221fbce9" x="360.8064" y="298.944" style="stroke: #000000; stroke-width: 0.6"/>
      </g>
     </g>
    </g>
    <g id="text_5">
     <!-- log10(# f-evals / dimension) -->
     <g transform="translate(88.823278 339.314156) scale(0.17 -0.17)">
      <defs>
       <path id="DejaVuSans-6c" d="M 603 4863 
L 1178 4863 
L 1178 0 
L 603 0 
L 603 4863 
z
" transform="scale(0.015625)"/>
       <path id="DejaVuSans-6f" d="M 1959 3097 
Q 1497 3097 1228 2736 
Q 959 2375 959 1747 
Q 959 1119 1226 758 
Q 1494 397 1959 397 
Q 2419 397 2687 759 
Q 2956 1122 2956 1747 
Q 2956 2369 2687 2733 
Q 2419 3097 1959 3097 
z
M 1959 3584 
Q 2709 3584 3137 3096 
Q 3566 2609 3566 1747 
Q 3566 888 3137 398 
Q 2709 -91 1959 -91 
Q 1206 -91 779 398 
Q 353 888 353 1747 
Q 353 2609 779 3096 
Q 1206 3584 1959 3584 
z
" transform="scale(0.015625)"/>
       <path id="DejaVuSans-67" d="M 2906 1791 
Q 2906 2416 2648 2759 
Q 2391 3103 1925 3103 
Q 1463 3103 1205 2759 
Q 947 2416 947 1791 
Q 947 1169 1205 825 
Q 1463 481 1925 481 
Q 2391 481 2648 825 
Q 2906 1169 2906 1791 
z
M 3481 434 
Q 3481 -459 3084 -895 
Q 2688 -1331 1869 -1331 
Q 1566 -1331 1297 -1286 
Q 1028 -1241 775 -1147 
L 775 -588 
Q 1028 -725 1275 -790 
Q 1522 -856 1778 -856 
Q 2344 -856 2625 -561 
Q 2906 -266 2906 331 
L 2906 616 
Q 2728 306 2450 153 
Q 2172 0 1784 0 
Q 1141 0 747 490 
Q 353 981 353 1791 
Q 353 2603 747 3093 
Q 1141 3584 1784 3584 
Q 2172 3584 2450 3431 
Q 2728 3278 2906 2969 
L 2906 3500 
L 3481 3500 
L 3481 434 
z
" transform="scale(0.015625)"/>
       <path id="DejaVuSans-31" d="M 794 531 
L 1825 531 
L 1825 4091 
L 703 3866 
L 703 4441 
L 1819 4666 
L 2450 4666 
L 2450 531 
L 3481 531 
L 3481 0 
L 794 0 
L 794 531 
z
" transform="scale(0.015625)"/>
       <path id="DejaVuSans-28" d="M 1984 4856 
Q 1566 4138 1362 3434 
Q 1159 2731 1159 2009 
Q 1159 1288 1364 580 
Q 1569 -128 1984 -844 
L 1484 -844 
Q 1016 -109 783 600 
Q 550 1309 550 2009 
Q 550 2706 781 3412 
Q 1013 4119 1484 4856 
L 1984 4856 
z
" transform="scale(0.015625)"/>
       <path id="DejaVuSans-23" d="M 3272 2816 
L 2363 2816 
L 2100 1772 
L 3016 1772 
L 3272 2816 
z
M 2803 4594 
L 2478 3297 
L 3391 3297 
L 3719 4594 
L 4219 4594 
L 3897 3297 
L 4872 3297 
L 4872 2816 
L 3775 2816 
L 3519 1772 
L 4513 1772 
L 4513 1294 
L 3397 1294 
L 3072 0 
L 2572 0 
L 2894 1294 
L 1978 1294 
L 1656 0 
L 1153 0 
L 1478 1294 
L 494 1294 
L 494 1772 
L 1594 1772 
L 1856 2816 
L 850 2816 
L 850 3297 
L 1978 3297 
L 2297 4594 
L 2803 4594 
z
" transform="scale(0.015625)"/>
       <path id="DejaVuSans-20" transform="scale(0.015625)"/>
       <path id="DejaVuSans-66" d="M 2375 4863 
L 2375 4384 
L 1825 4384 
Q 1516 4384 1395 4259 
Q 1275 4134 1275 3809 
L 1275 3500 
L 2222 3500 
L 2222 3053 
L 1275 3053 
L 1275 0 
L 697 0 
L 697 3053 
L 147 3053 
L 147 3500 
L 697 3500 
L 697 3744 
Q 697 4328 969 4595 
Q 1241 4863 1831 4863 
L 2375 4863 
z
" transform="scale(0.015625)"/>
       <path id="DejaVuSans-2d" d="M 313 2009 
L 1997 2009 
L 1997 1497 
L 313 1497 
L 313 2009 
z
" transform="scale(0.015625)"/>
       <path id="DejaVuSans-65" d="M 3597 1894 
L 3597 1613 
L 953 1613 
Q 991 1019 1311 708 
Q 1631 397 2203 397 
Q 2534 397 2845 478 
Q 3156 559 3463 722 
L 3463 178 
Q 3153 47 2828 -22 
Q 2503 -91 2169 -91 
Q 1331 -91 842 396 
Q 353 884 353 1716 
Q 353 2575 817 3079 
Q 1281 3584 2069 3584 
Q 2775 3584 3186 3129 
Q 3597 2675 3597 1894 
z
M 3022 2063 
Q 3016 2534 2758 2815 
Q 2500 3097 2075 3097 
Q 1594 3097 1305 2825 
Q 1016 2553 972 2059 
L 3022 2063 
z
" transform="scale(0.015625)"/>
       <path id="DejaVuSans-76" d="M 191 3500 
L 800 3500 
L 1894 563 
L 2988 3500 
L 3597 3500 
L 2284 0 
L 1503 0 
L 191 3500 
z
" transform="scale(0.015625)"/>
       <path id="DejaVuSans-61" d="M 2194 1759 
Q 1497 1759 1228 1600 
Q 959 1441 959 1056 
Q 959 750 1161 570 
Q 1363 391 1709 391 
Q 2188 391 2477 730 
Q 2766 1069 2766 1631 
L 2766 1759 
L 2194 1759 
z
M 3341 1997 
L 3341 0 
L 2766 0 
L 2766 531 
Q 2569 213 2275 61 
Q 1981 -91 1556 -91 
Q 1019 -91 701 211 
Q 384 513 384 1019 
Q 384 1609 779 1909 
Q 1175 2209 1959 2209 
L 2766 2209 
L 2766 2266 
Q 2766 2663 2505 2880 
Q 2244 3097 1772 3097 
Q 1472 3097 1187 3025 
Q 903 2953 641 2809 
L 641 3341 
Q 956 3463 1253 3523 
Q 1550 3584 1831 3584 
Q 2591 3584 2966 3190 
Q 3341 2797 3341 1997 
z
" transform="scale(0.015625)"/>
       <path id="DejaVuSans-73" d="M 2834 3397 
L 2834 2853 
Q 2591 2978 2328 3040 
Q 2066 3103 1784 3103 
Q 1356 3103 1142 2972 
Q 928 2841 928 2578 
Q 928 2378 1081 2264 
Q 1234 2150 1697 2047 
L 1894 2003 
Q 2506 1872 2764 1633 
Q 3022 1394 3022 966 
Q 3022 478 2636 193 
Q 2250 -91 1575 -91 
Q 1294 -91 989 -36 
Q 684 19 347 128 
L 347 722 
Q 666 556 975 473 
Q 1284 391 1588 391 
Q 1994 391 2212 530 
Q 2431 669 2431 922 
Q 2431 1156 2273 1281 
Q 2116 1406 1581 1522 
L 1381 1569 
Q 847 1681 609 1914 
Q 372 2147 372 2553 
Q 372 3047 722 3315 
Q 1072 3584 1716 3584 
Q 2034 3584 2315 3537 
Q 2597 3491 2834 3397 
z
" transform="scale(0.015625)"/>
       <path id="DejaVuSans-2f" d="M 1625 4666 
L 2156 4666 
L 531 -594 
L 0 -594 
L 1625 4666 
z
" transform="scale(0.015625)"/>
       <path id="DejaVuSans-64" d="M 2906 2969 
L 2906 4863 
L 3481 4863 
L 3481 0 
L 2906 0 
L 2906 525 
Q 2725 213 2448 61 
Q 2172 -91 1784 -91 
Q 1150 -91 751 415 
Q 353 922 353 1747 
Q 353 2572 751 3078 
Q 1150 3584 1784 3584 
Q 2172 3584 2448 3432 
Q 2725 3281 2906 2969 
z
M 947 1747 
Q 947 1113 1208 752 
Q 1469 391 1925 391 
Q 2381 391 2643 752 
Q 2906 1113 2906 1747 
Q 2906 2381 2643 2742 
Q 2381 3103 1925 3103 
Q 1469 3103 1208 2742 
Q 947 2381 947 1747 
z
" transform="scale(0.015625)"/>
       <path id="DejaVuSans-69" d="M 603 3500 
L 1178 3500 
L 1178 0 
L 603 0 
L 603 3500 
z
M 603 4863 
L 1178 4863 
L 1178 4134 
L 603 4134 
L 603 4863 
z
" transform="scale(0.015625)"/>
       <path id="DejaVuSans-6d" d="M 3328 2828 
Q 3544 3216 3844 3400 
Q 4144 3584 4550 3584 
Q 5097 3584 5394 3201 
Q 5691 2819 5691 2113 
L 5691 0 
L 5113 0 
L 5113 2094 
Q 5113 2597 4934 2840 
Q 4756 3084 4391 3084 
Q 3944 3084 3684 2787 
Q 3425 2491 3425 1978 
L 3425 0 
L 2847 0 
L 2847 2094 
Q 2847 2600 2669 2842 
Q 2491 3084 2119 3084 
Q 1678 3084 1418 2786 
Q 1159 2488 1159 1978 
L 1159 0 
L 581 0 
L 581 3500 
L 1159 3500 
L 1159 2956 
Q 1356 3278 1631 3431 
Q 1906 3584 2284 3584 
Q 2666 3584 2933 3390 
Q 3200 3197 3328 2828 
z
" transform="scale(0.015625)"/>
       <path id="DejaVuSans-6e" d="M 3513 2113 
L 3513 0 
L 2938 0 
L 2938 2094 
Q 2938 2591 2744 2837 
Q 2550 3084 2163 3084 
Q 1697 3084 1428 2787 
Q 1159 2491 1159 1978 
L 1159 0 
L 581 0 
L 581 3500 
L 1159 3500 
L 1159 2956 
Q 1366 3272 1645 3428 
Q 1925 3584 2291 3584 
Q 2894 3584 3203 3211 
Q 3513 2838 3513 2113 
z
" transform="scale(0.015625)"/>
       <path id="DejaVuSans-29" d="M 513 4856 
L 1013 4856 
Q 1481 4119 1714 3412 
Q 1947 2706 1947 2009 
Q 1947 1309 1714 600 
Q 1481 -109 1013 -844 
L 513 -844 
Q 928 -128 1133 580 
Q 1338 1288 1338 2009 
Q 1338 2731 1133 3434 
Q 928 4138 513 4856 
z
" transform="scale(0.015625)"/>
      </defs>
      <use xlink:href="#DejaVuSans-6c"/>
      <use xlink:href="#DejaVuSans-6f" x="27.783203"/>
      <use xlink:href="#DejaVuSans-67" x="88.964844"/>
      <use xlink:href="#DejaVuSans-31" x="152.441406"/>
      <use xlink:href="#DejaVuSans-30" x="216.064453"/>
      <use xlink:href="#DejaVuSans-28" x="279.6875"/>
      <use xlink:href="#DejaVuSans-23" x="318.701172"/>
      <use xlink:href="#DejaVuSans-20" x="402.490234"/>
      <use xlink:href="#DejaVuSans-66" x="434.277344"/>
      <use xlink:href="#DejaVuSans-2d" x="463.982422"/>
      <use xlink:href="#DejaVuSans-65" x="500.066406"/>
      <use xlink:href="#DejaVuSans-76" x="561.589844"/>
      <use xlink:href="#DejaVuSans-61" x="620.769531"/>
      <use xlink:href="#DejaVuSans-6c" x="682.048828"/>
      <use xlink:href="#DejaVuSans-73" x="709.832031"/>
      <use xlink:href="#DejaVuSans-20" x="761.931641"/>
      <use xlink:href="#DejaVuSans-2f" x="793.71875"/>
      <use xlink:href="#DejaVuSans-20" x="827.410156"/>
      <use xlink:href="#DejaVuSans-64" x="859.197266"/>
      <use xlink:href="#DejaVuSans-69" x="922.673828"/>
      <use xlink:href="#DejaVuSans-6d" x="950.457031"/>
      <use xlink:href="#DejaVuSans-65" x="1047.869141"/>
      <use xlink:href="#DejaVuSans-6e" x="1109.392578"/>
      <use xlink:href="#DejaVuSans-73" x="1172.771484"/>
      <use xlink:href="#DejaVuSans-69" x="1224.871094"/>
      <use xlink:href="#DejaVuSans-6f" x="1252.654297"/>
      <use xlink:href="#DejaVuSans-6e" x="1313.835938"/>
      <use xlink:href="#DejaVuSans-29" x="1377.214844"/>
     </g>
    </g>
   </g>
   <g id="matplotlib.axis_2">
    <g id="ytick_1">
     <g id="line2d_17">
      <path d="M 57.6 298.944 
L 360.8064 298.944 
" clip-path="url(#p2f28fc4e0f)" style="fill: none; stroke: #b0b0b0; stroke-width: 0.8; stroke-linecap: square"/>
     </g>
     <g id="line2d_18">
      <defs>
       <path id="m29d7f92965" d="M 0 0 
L -3.5 0 
" style="stroke: #000000; stroke-width: 0.8"/>
      </defs>
      <g>
       <use xlink:href="#m29d7f92965" x="57.6" y="298.944" style="stroke: #000000; stroke-width: 0.8"/>
      </g>
     </g>
     <g id="text_6">
      <!-- 0.0 -->
      <g transform="translate(25.155 305.02275) scale(0.16 -0.16)">
       <defs>
        <path id="DejaVuSans-2e" d="M 684 794 
L 1344 794 
L 1344 0 
L 684 0 
L 684 794 
z
" transform="scale(0.015625)"/>
       </defs>
       <use xlink:href="#DejaVuSans-30"/>
       <use xlink:href="#DejaVuSans-2e" x="63.623047"/>
       <use xlink:href="#DejaVuSans-30" x="95.410156"/>
      </g>
     </g>
    </g>
    <g id="ytick_2">
     <g id="line2d_19">
      <path d="M 57.6 240.5376 
L 360.8064 240.5376 
" clip-path="url(#p2f28fc4e0f)" style="fill: none; stroke: #b0b0b0; stroke-width: 0.8; stroke-linecap: square"/>
     </g>
     <g id="line2d_20">
      <g>
       <use xlink:href="#m29d7f92965" x="57.6" y="240.5376" style="stroke: #000000; stroke-width: 0.8"/>
      </g>
     </g>
     <g id="text_7">
      <!-- 0.2 -->
      <g transform="translate(25.155 246.61635) scale(0.16 -0.16)">
       <use xlink:href="#DejaVuSans-30"/>
       <use xlink:href="#DejaVuSans-2e" x="63.623047"/>
       <use xlink:href="#DejaVuSans-32" x="95.410156"/>
      </g>
     </g>
    </g>
    <g id="ytick_3">
     <g id="line2d_21">
      <path d="M 57.6 182.1312 
L 360.8064 182.1312 
" clip-path="url(#p2f28fc4e0f)" style="fill: none; stroke: #b0b0b0; stroke-width: 0.8; stroke-linecap: square"/>
     </g>
     <g id="line2d_22">
      <g>
       <use xlink:href="#m29d7f92965" x="57.6" y="182.1312" style="stroke: #000000; stroke-width: 0.8"/>
      </g>
     </g>
     <g id="text_8">
      <!-- 0.4 -->
      <g transform="translate(25.155 188.20995) scale(0.16 -0.16)">
       <use xlink:href="#DejaVuSans-30"/>
       <use xlink:href="#DejaVuSans-2e" x="63.623047"/>
       <use xlink:href="#DejaVuSans-34" x="95.410156"/>
      </g>
     </g>
    </g>
    <g id="ytick_4">
     <g id="line2d_23">
      <path d="M 57.6 123.7248 
L 360.8064 123.7248 
" clip-path="url(#p2f28fc4e0f)" style="fill: none; stroke: #b0b0b0; stroke-width: 0.8; stroke-linecap: square"/>
     </g>
     <g id="line2d_24">
      <g>
       <use xlink:href="#m29d7f92965" x="57.6" y="123.7248" style="stroke: #000000; stroke-width: 0.8"/>
      </g>
     </g>
     <g id="text_9">
      <!-- 0.6 -->
      <g transform="translate(25.155 129.80355) scale(0.16 -0.16)">
       <use xlink:href="#DejaVuSans-30"/>
       <use xlink:href="#DejaVuSans-2e" x="63.623047"/>
       <use xlink:href="#DejaVuSans-36" x="95.410156"/>
      </g>
     </g>
    </g>
    <g id="ytick_5">
     <g id="line2d_25">
      <path d="M 57.6 65.3184 
L 360.8064 65.3184 
" clip-path="url(#p2f28fc4e0f)" style="fill: none; stroke: #b0b0b0; stroke-width: 0.8; stroke-linecap: square"/>
     </g>
     <g id="line2d_26">
      <g>
       <use xlink:href="#m29d7f92965" x="57.6" y="65.3184" style="stroke: #000000; stroke-width: 0.8"/>
      </g>
     </g>
     <g id="text_10">
      <!-- 0.8 -->
      <g transform="translate(25.155 71.39715) scale(0.16 -0.16)">
       <defs>
        <path id="DejaVuSans-38" d="M 2034 2216 
Q 1584 2216 1326 1975 
Q 1069 1734 1069 1313 
Q 1069 891 1326 650 
Q 1584 409 2034 409 
Q 2484 409 2743 651 
Q 3003 894 3003 1313 
Q 3003 1734 2745 1975 
Q 2488 2216 2034 2216 
z
M 1403 2484 
Q 997 2584 770 2862 
Q 544 3141 544 3541 
Q 544 4100 942 4425 
Q 1341 4750 2034 4750 
Q 2731 4750 3128 4425 
Q 3525 4100 3525 3541 
Q 3525 3141 3298 2862 
Q 3072 2584 2669 2484 
Q 3125 2378 3379 2068 
Q 3634 1759 3634 1313 
Q 3634 634 3220 271 
Q 2806 -91 2034 -91 
Q 1263 -91 848 271 
Q 434 634 434 1313 
Q 434 1759 690 2068 
Q 947 2378 1403 2484 
z
M 1172 3481 
Q 1172 3119 1398 2916 
Q 1625 2713 2034 2713 
Q 2441 2713 2670 2916 
Q 2900 3119 2900 3481 
Q 2900 3844 2670 4047 
Q 2441 4250 2034 4250 
Q 1625 4250 1398 4047 
Q 1172 3844 1172 3481 
z
" transform="scale(0.015625)"/>
       </defs>
       <use xlink:href="#DejaVuSans-30"/>
       <use xlink:href="#DejaVuSans-2e" x="63.623047"/>
       <use xlink:href="#DejaVuSans-38" x="95.410156"/>
      </g>
     </g>
    </g>
    <g id="ytick_6">
     <g id="line2d_27">
      <path d="M 57.6 6.912 
L 360.8064 6.912 
" clip-path="url(#p2f28fc4e0f)" style="fill: none; stroke: #b0b0b0; stroke-width: 0.8; stroke-linecap: square"/>
     </g>
     <g id="line2d_28">
      <g>
       <use xlink:href="#m29d7f92965" x="57.6" y="6.912" style="stroke: #000000; stroke-width: 0.8"/>
      </g>
     </g>
     <g id="text_11">
      <!-- 1.0 -->
      <g transform="translate(25.155 12.99075) scale(0.16 -0.16)">
       <use xlink:href="#DejaVuSans-31"/>
       <use xlink:href="#DejaVuSans-2e" x="63.623047"/>
       <use xlink:href="#DejaVuSans-30" x="95.410156"/>
      </g>
     </g>
    </g>
    <g id="text_12">
     <!-- Fraction of function,target pairs -->
     <g transform="translate(17.619531 287.313) rotate(-90) scale(0.17 -0.17)">
      <defs>
       <path id="DejaVuSans-46" d="M 628 4666 
L 3309 4666 
L 3309 4134 
L 1259 4134 
L 1259 2759 
L 3109 2759 
L 3109 2228 
L 1259 2228 
L 1259 0 
L 628 0 
L 628 4666 
z
" transform="scale(0.015625)"/>
       <path id="DejaVuSans-72" d="M 2631 2963 
Q 2534 3019 2420 3045 
Q 2306 3072 2169 3072 
Q 1681 3072 1420 2755 
Q 1159 2438 1159 1844 
L 1159 0 
L 581 0 
L 581 3500 
L 1159 3500 
L 1159 2956 
Q 1341 3275 1631 3429 
Q 1922 3584 2338 3584 
Q 2397 3584 2469 3576 
Q 2541 3569 2628 3553 
L 2631 2963 
z
" transform="scale(0.015625)"/>
       <path id="DejaVuSans-63" d="M 3122 3366 
L 3122 2828 
Q 2878 2963 2633 3030 
Q 2388 3097 2138 3097 
Q 1578 3097 1268 2742 
Q 959 2388 959 1747 
Q 959 1106 1268 751 
Q 1578 397 2138 397 
Q 2388 397 2633 464 
Q 2878 531 3122 666 
L 3122 134 
Q 2881 22 2623 -34 
Q 2366 -91 2075 -91 
Q 1284 -91 818 406 
Q 353 903 353 1747 
Q 353 2603 823 3093 
Q 1294 3584 2113 3584 
Q 2378 3584 2631 3529 
Q 2884 3475 3122 3366 
z
" transform="scale(0.015625)"/>
       <path id="DejaVuSans-74" d="M 1172 4494 
L 1172 3500 
L 2356 3500 
L 2356 3053 
L 1172 3053 
L 1172 1153 
Q 1172 725 1289 603 
Q 1406 481 1766 481 
L 2356 481 
L 2356 0 
L 1766 0 
Q 1100 0 847 248 
Q 594 497 594 1153 
L 594 3053 
L 172 3053 
L 172 3500 
L 594 3500 
L 594 4494 
L 1172 4494 
z
" transform="scale(0.015625)"/>
       <path id="DejaVuSans-75" d="M 544 1381 
L 544 3500 
L 1119 3500 
L 1119 1403 
Q 1119 906 1312 657 
Q 1506 409 1894 409 
Q 2359 409 2629 706 
Q 2900 1003 2900 1516 
L 2900 3500 
L 3475 3500 
L 3475 0 
L 2900 0 
L 2900 538 
Q 2691 219 2414 64 
Q 2138 -91 1772 -91 
Q 1169 -91 856 284 
Q 544 659 544 1381 
z
M 1991 3584 
L 1991 3584 
z
" transform="scale(0.015625)"/>
       <path id="DejaVuSans-2c" d="M 750 794 
L 1409 794 
L 1409 256 
L 897 -744 
L 494 -744 
L 750 256 
L 750 794 
z
" transform="scale(0.015625)"/>
       <path id="DejaVuSans-70" d="M 1159 525 
L 1159 -1331 
L 581 -1331 
L 581 3500 
L 1159 3500 
L 1159 2969 
Q 1341 3281 1617 3432 
Q 1894 3584 2278 3584 
Q 2916 3584 3314 3078 
Q 3713 2572 3713 1747 
Q 3713 922 3314 415 
Q 2916 -91 2278 -91 
Q 1894 -91 1617 61 
Q 1341 213 1159 525 
z
M 3116 1747 
Q 3116 2381 2855 2742 
Q 2594 3103 2138 3103 
Q 1681 3103 1420 2742 
Q 1159 2381 1159 1747 
Q 1159 1113 1420 752 
Q 1681 391 2138 391 
Q 2594 391 2855 752 
Q 3116 1113 3116 1747 
z
" transform="scale(0.015625)"/>
      </defs>
      <use xlink:href="#DejaVuSans-46"/>
      <use xlink:href="#DejaVuSans-72" x="50.269531"/>
      <use xlink:href="#DejaVuSans-61" x="91.382812"/>
      <use xlink:href="#DejaVuSans-63" x="152.662109"/>
      <use xlink:href="#DejaVuSans-74" x="207.642578"/>
      <use xlink:href="#DejaVuSans-69" x="246.851562"/>
      <use xlink:href="#DejaVuSans-6f" x="274.634766"/>
      <use xlink:href="#DejaVuSans-6e" x="335.816406"/>
      <use xlink:href="#DejaVuSans-20" x="399.195312"/>
      <use xlink:href="#DejaVuSans-6f" x="430.982422"/>
      <use xlink:href="#DejaVuSans-66" x="492.164062"/>
      <use xlink:href="#DejaVuSans-20" x="527.369141"/>
      <use xlink:href="#DejaVuSans-66" x="559.15625"/>
      <use xlink:href="#DejaVuSans-75" x="594.361328"/>
      <use xlink:href="#DejaVuSans-6e" x="657.740234"/>
      <use xlink:href="#DejaVuSans-63" x="721.119141"/>
      <use xlink:href="#DejaVuSans-74" x="776.099609"/>
      <use xlink:href="#DejaVuSans-69" x="815.308594"/>
      <use xlink:href="#DejaVuSans-6f" x="843.091797"/>
      <use xlink:href="#DejaVuSans-6e" x="904.273438"/>
      <use xlink:href="#DejaVuSans-2c" x="967.652344"/>
      <use xlink:href="#DejaVuSans-74" x="999.439453"/>
      <use xlink:href="#DejaVuSans-61" x="1038.648438"/>
      <use xlink:href="#DejaVuSans-72" x="1099.927734"/>
      <use xlink:href="#DejaVuSans-67" x="1139.291016"/>
      <use xlink:href="#DejaVuSans-65" x="1202.767578"/>
      <use xlink:href="#DejaVuSans-74" x="1264.291016"/>
      <use xlink:href="#DejaVuSans-20" x="1303.5"/>
      <use xlink:href="#DejaVuSans-70" x="1335.287109"/>
      <use xlink:href="#DejaVuSans-61" x="1398.763672"/>
      <use xlink:href="#DejaVuSans-69" x="1460.042969"/>
      <use xlink:href="#DejaVuSans-72" x="1487.826172"/>
      <use xlink:href="#DejaVuSans-73" x="1528.939453"/>
     </g>
    </g>
   </g>
   <g id="line2d_29">
    <defs>
     <path id="madfb8efa0c" d="M 0 1.5 
C 0.397805 1.5 0.77937 1.341951 1.06066 1.06066 
C 1.341951 0.77937 1.5 0.397805 1.5 0 
C 1.5 -0.397805 1.341951 -0.77937 1.06066 -1.06066 
C 0.77937 -1.341951 0.397805 -1.5 0 -1.5 
C -0.397805 -1.5 -0.77937 -1.341951 -1.06066 -1.06066 
C -1.341951 -0.77937 -1.5 -0.397805 -1.5 0 
C -1.5 0.397805 -1.341951 0.77937 -1.06066 1.06066 
C -0.77937 1.341951 -0.397805 1.5 0 1.5 
z
" style="stroke: #000080"/>
    </defs>
    <g>
     <use xlink:href="#madfb8efa0c" x="187.265108" y="222.411476" style="fill: #000080; stroke: #000080"/>
     <use xlink:href="#madfb8efa0c" x="187.265108" y="222.411476" style="fill: #000080; stroke: #000080"/>
    </g>
   </g>
   <g id="line2d_30">
    <path d="M 14.2848 298.944 
L 14.2848 285.349407 
L 27.323974 285.349407 
L 27.323974 284.845903 
L 53.402323 284.845903 
L 53.402323 284.3424 
L 90.007914 284.3424 
L 90.007914 283.335393 
L 92.519847 283.335393 
L 92.519847 282.83189 
L 97.18203 282.83189 
L 97.18203 282.328386 
L 101.653002 282.328386 
L 101.653002 281.824883 
L 106.137884 281.824883 
L 106.137884 281.321379 
L 108.29012 281.321379 
L 108.29012 280.817876 
L 113.284172 280.817876 
L 113.284172 280.314372 
L 113.478107 280.314372 
L 113.478107 279.810869 
L 116.665126 279.810869 
L 116.665126 279.307366 
L 116.907859 279.307366 
L 116.907859 278.803862 
L 117.067958 278.803862 
L 117.067958 278.300359 
L 119.389621 278.300359 
L 119.389621 277.796855 
L 119.807672 277.796855 
L 119.807672 276.789848 
L 120.41783 276.789848 
L 120.41783 276.286345 
L 123.029559 276.286345 
L 123.029559 275.279338 
L 123.657621 275.279338 
L 123.657621 274.775834 
L 124.046648 274.775834 
L 124.046648 274.272331 
L 125.929373 274.272331 
L 125.929373 273.768828 
L 127.458055 273.768828 
L 127.458055 273.265324 
L 128.178203 273.265324 
L 128.178203 272.761821 
L 128.528195 272.761821 
L 128.528195 272.258317 
L 129.209231 272.258317 
L 129.209231 271.754814 
L 130.067235 271.754814 
L 130.067235 271.25131 
L 130.384069 271.25131 
L 130.4233 270.244303 
L 132.287354 270.244303 
L 132.287354 269.7408 
L 132.708526 269.7408 
L 132.708526 269.237297 
L 133.154399 269.237297 
L 133.154399 268.733793 
L 133.78762 268.733793 
L 133.78762 268.23029 
L 134.015642 268.23029 
L 134.080287 267.223283 
L 135.177024 267.223283 
L 135.207439 265.712772 
L 135.298389 265.712772 
L 135.298389 265.209269 
L 138.36167 265.209269 
L 138.464186 264.202262 
L 139.313723 264.202262 
L 139.313723 263.698759 
L 139.435481 263.698759 
L 139.508159 262.188248 
L 139.819894 262.188248 
L 139.867398 260.677738 
L 140.312801 260.677738 
L 140.312801 260.174234 
L 140.928134 260.174234 
L 140.928134 259.670731 
L 142.206555 259.670731 
L 142.206555 259.167228 
L 143.10641 259.167228 
L 143.10641 258.663724 
L 143.521169 258.663724 
L 143.521169 258.160221 
L 144.361622 258.160221 
L 144.361622 257.153214 
L 144.804702 257.153214 
L 144.804702 256.64971 
L 145.46797 256.64971 
L 145.46797 256.146207 
L 145.7477 256.146207 
L 145.7477 255.1392 
L 147.785146 255.1392 
L 147.785146 254.132193 
L 148.063382 254.132193 
L 148.063382 253.62869 
L 148.68219 253.62869 
L 148.68219 253.125186 
L 149.764026 253.125186 
L 149.764026 252.621683 
L 150.014665 252.621683 
L 150.014665 252.118179 
L 150.733838 252.118179 
L 150.733838 251.614676 
L 151.820167 251.614676 
L 151.820167 250.607669 
L 154.311669 250.607669 
L 154.311669 250.104166 
L 155.151225 250.104166 
L 155.203786 249.097159 
L 156.774003 249.097159 
L 156.774003 248.593655 
L 159.460157 248.593655 
L 159.460157 247.586648 
L 161.293384 247.586648 
L 161.293384 246.579641 
L 162.262846 246.579641 
L 162.262846 246.076138 
L 164.161708 246.076138 
L 164.161708 245.069131 
L 165.826761 245.069131 
L 165.826761 244.565628 
L 169.408088 244.565628 
L 169.408088 244.062124 
L 169.599518 244.062124 
L 169.599518 243.558621 
L 171.087206 243.558621 
L 171.087206 242.551614 
L 171.284704 242.551614 
L 171.284704 241.544607 
L 171.704179 241.544607 
L 171.704179 241.041103 
L 172.91743 241.041103 
L 172.91743 240.5376 
L 173.217966 240.5376 
L 173.217966 240.034097 
L 173.762 240.034097 
L 173.762 239.02709 
L 175.456465 239.02709 
L 175.456465 238.020083 
L 176.168936 238.020083 
L 176.168936 237.516579 
L 177.463125 237.516579 
L 177.463125 236.509572 
L 179.100212 236.509572 
L 179.100212 236.006069 
L 180.238055 236.006069 
L 180.238055 235.502566 
L 180.428504 235.502566 
L 180.428504 234.495559 
L 180.660496 234.495559 
L 180.660496 233.992055 
L 181.049761 233.992055 
L 181.049761 233.488552 
L 181.425925 233.488552 
L 181.425925 232.985048 
L 182.606923 232.985048 
L 182.606923 232.481545 
L 182.820941 232.481545 
L 182.820941 231.978041 
L 183.049283 231.978041 
L 183.070773 230.467531 
L 183.189713 230.467531 
L 183.189713 229.460524 
L 183.404274 229.460524 
L 183.404274 228.453517 
L 183.593219 228.453517 
L 183.593219 227.950014 
L 184.029116 227.950014 
L 184.121867 226.943007 
L 184.238849 226.943007 
L 184.238849 226.439503 
L 184.388512 226.439503 
L 184.388512 225.432497 
L 185.215526 225.432497 
L 185.313216 224.42549 
L 186.27325 224.42549 
L 186.27325 223.921986 
L 186.896828 223.921986 
L 186.896828 223.418483 
L 187.265108 223.418483 
L 187.265108 222.411476 
L 360.8064 222.411476 
L 360.8064 222.411476 
" style="fill: none; stroke: #000080; stroke-width: 1.5; stroke-linecap: square"/>
   </g>
   <g id="line2d_31">
    <defs>
     <path id="mf231ef8daa" d="M 0 6 
C 1.591219 6 3.117479 5.367802 4.242641 4.242641 
C 5.367802 3.117479 6 1.591219 6 0 
C 6 -1.591219 5.367802 -3.117479 4.242641 -4.242641 
C 3.117479 -5.367802 1.591219 -6 0 -6 
C -1.591219 -6 -3.117479 -5.367802 -4.242641 -4.242641 
C -5.367802 -3.117479 -6 -1.591219 -6 0 
C -6 1.591219 -5.367802 3.117479 -4.242641 4.242641 
C -3.117479 5.367802 -1.591219 6 0 6 
z
" style="stroke: #000080; stroke-width: 1.5"/>
    </defs>
    <g>
     <use xlink:href="#mf231ef8daa" x="144.361622" y="258.160221" style="fill-opacity: 0; stroke: #000080; stroke-width: 1.5"/>
     <use xlink:href="#mf231ef8daa" x="183.049283" y="231.978041" style="fill-opacity: 0; stroke: #000080; stroke-width: 1.5"/>
     <use xlink:href="#mf231ef8daa" x="187.265108" y="222.411476" style="fill-opacity: 0; stroke: #000080; stroke-width: 1.5"/>
     <use xlink:href="#mf231ef8daa" x="187.265108" y="222.411476" style="fill-opacity: 0; stroke: #000080; stroke-width: 1.5"/>
     <use xlink:href="#mf231ef8daa" x="360.8064" y="222.411476" style="fill-opacity: 0; stroke: #000080; stroke-width: 1.5"/>
    </g>
   </g>
   <g id="line2d_32">
    <path style="fill: none; stroke: #000080; stroke-width: 1.5; stroke-linecap: square"/>
    <g/>
   </g>
   <g id="line2d_33">
    <path d="M 187.539956 222.411476 
" clip-path="url(#p2f28fc4e0f)" style="fill: none; stroke: #000080; stroke-width: 1.5; stroke-linecap: square"/>
    <defs>
     <path id="mc0409cdc1b" d="M -12 12 
L 12 -12 
M -12 -12 
L 12 12 
" style="stroke: #000080"/>
    </defs>
    <g clip-path="url(#p2f28fc4e0f)">
     <use xlink:href="#mc0409cdc1b" x="187.539956" y="222.411476" style="fill: #000080; stroke: #000080"/>
    </g>
   </g>
   <g id="line2d_34">
    <defs>
     <path id="m75d5f8ef0b" d="M 0 1.5 
C 0.397805 1.5 0.77937 1.341951 1.06066 1.06066 
C 1.341951 0.77937 1.5 0.397805 1.5 0 
C 1.5 -0.397805 1.341951 -0.77937 1.06066 -1.06066 
C 0.77937 -1.341951 0.397805 -1.5 0 -1.5 
C -0.397805 -1.5 -0.77937 -1.341951 -1.06066 -1.06066 
C -1.341951 -0.77937 -1.5 -0.397805 -1.5 0 
C -1.5 0.397805 -1.341951 0.77937 -1.06066 1.06066 
C -0.77937 1.341951 -0.397805 1.5 0 1.5 
z
" style="stroke: #ff00ff"/>
    </defs>
    <g>
     <use xlink:href="#m75d5f8ef0b" x="187.453197" y="240.5376" style="fill: #ff00ff; stroke: #ff00ff"/>
     <use xlink:href="#m75d5f8ef0b" x="187.453197" y="240.5376" style="fill: #ff00ff; stroke: #ff00ff"/>
    </g>
   </g>
   <g id="line2d_35">
    <path d="M 14.2848 298.944 
L 14.2848 293.908966 
L 105.559021 293.908966 
L 105.559021 293.405462 
L 109.756698 293.405462 
L 109.756698 292.901959 
L 109.990385 292.901959 
L 109.990385 292.398455 
L 111.117162 292.398455 
L 111.117162 291.894952 
L 116.419219 291.894952 
L 116.501546 290.887945 
L 117.924947 290.887945 
L 117.924947 290.384441 
L 123.029559 290.384441 
L 123.029559 289.377434 
L 124.373813 289.377434 
L 124.373813 288.873931 
L 125.979073 288.873931 
L 125.979073 287.866924 
L 126.709238 287.866924 
L 126.709238 287.363421 
L 127.866525 287.363421 
L 127.866525 286.859917 
L 129.209231 286.859917 
L 129.209231 286.356414 
L 129.334225 286.356414 
L 129.334225 285.85291 
L 130.540507 285.85291 
L 130.540507 285.349407 
L 130.887807 285.349407 
L 130.887807 284.845903 
L 132.001241 284.845903 
L 132.001241 284.3424 
L 132.881269 284.3424 
L 132.881269 283.838897 
L 133.323114 283.838897 
L 133.323114 283.335393 
L 133.589949 283.335393 
L 133.589949 282.83189 
L 134.526683 282.83189 
L 134.526683 282.328386 
L 135.35878 282.328386 
L 135.35878 281.824883 
L 135.568632 281.824883 
L 135.568632 281.321379 
L 136.92008 281.321379 
L 136.92008 280.817876 
L 137.085822 280.817876 
L 137.085822 280.314372 
L 137.893309 280.314372 
L 137.919637 279.307366 
L 138.154948 279.307366 
L 138.154948 278.803862 
L 138.412998 278.803862 
L 138.489728 277.796855 
L 139.962047 277.796855 
L 139.962047 277.293352 
L 140.359078 277.293352 
L 140.359078 276.789848 
L 142.518184 276.789848 
L 142.518184 276.286345 
L 144.041338 276.286345 
L 144.041338 275.782841 
L 144.249202 275.782841 
L 144.249202 275.279338 
L 144.529002 275.279338 
L 144.529002 274.272331 
L 145.765046 274.272331 
L 145.765046 273.768828 
L 146.429353 273.768828 
L 146.429353 273.265324 
L 147.769567 273.265324 
L 147.769567 272.761821 
L 148.533127 272.761821 
L 148.533127 272.258317 
L 149.31003 272.258317 
L 149.31003 271.754814 
L 149.538397 271.754814 
L 149.538397 271.25131 
L 151.452172 271.25131 
L 151.452172 270.747807 
L 152.619733 270.747807 
L 152.619733 270.244303 
L 153.060137 270.244303 
L 153.060137 269.7408 
L 153.189104 269.7408 
L 153.189104 269.237297 
L 154.725366 269.237297 
L 154.725366 268.733793 
L 156.015331 268.733793 
L 156.015331 268.23029 
L 156.462418 268.23029 
L 156.462418 267.726786 
L 156.657763 267.726786 
L 156.657763 266.719779 
L 158.0976 266.719779 
L 158.0976 266.216276 
L 158.471883 266.216276 
L 158.471883 265.712772 
L 159.409859 265.712772 
L 159.451784 264.705766 
L 161.810238 264.705766 
L 161.810238 264.202262 
L 161.994053 264.202262 
L 161.994053 263.698759 
L 162.399397 263.698759 
L 162.399397 263.195255 
L 162.520739 263.195255 
L 162.520739 262.188248 
L 163.925494 262.188248 
L 163.925494 261.684745 
L 166.961587 261.684745 
L 166.961587 261.181241 
L 167.095955 261.181241 
L 167.134966 259.670731 
L 167.38933 259.670731 
L 167.38933 259.167228 
L 167.962699 259.167228 
L 167.962699 258.663724 
L 168.4725 258.663724 
L 168.4725 257.656717 
L 169.368578 257.656717 
L 169.368578 257.153214 
L 169.706651 257.153214 
L 169.706651 256.64971 
L 170.883051 256.64971 
L 170.883051 256.146207 
L 171.546318 256.146207 
L 171.546318 255.642703 
L 171.947136 255.642703 
L 171.947136 254.635697 
L 173.068298 254.635697 
L 173.068298 253.62869 
L 174.030158 253.62869 
L 174.030158 253.125186 
L 174.882632 253.125186 
L 174.882632 252.118179 
L 176.048006 252.118179 
L 176.048006 251.614676 
L 177.56253 251.614676 
L 177.607251 250.104166 
L 177.914217 250.104166 
L 177.914217 249.600662 
L 178.151275 249.600662 
L 178.151275 249.097159 
L 178.522639 249.097159 
L 178.522639 248.090152 
L 179.264532 248.090152 
L 179.264532 247.586648 
L 179.540047 247.586648 
L 179.540047 247.083145 
L 179.811585 247.083145 
L 179.811585 246.579641 
L 180.809098 246.579641 
L 180.809098 245.572634 
L 182.276281 245.572634 
L 182.276281 245.069131 
L 183.203936 245.069131 
L 183.260718 243.558621 
L 183.437067 243.558621 
L 183.437067 243.055117 
L 183.789475 243.055117 
L 183.789475 242.551614 
L 185.283538 242.551614 
L 185.283538 241.544607 
L 187.171313 241.544607 
L 187.171313 241.041103 
L 187.453197 241.041103 
L 187.453197 240.5376 
L 360.8064 240.5376 
L 360.8064 240.5376 
" style="fill: none; stroke: #ff00ff; stroke-width: 1.5; stroke-linecap: square"/>
   </g>
   <g id="line2d_36">
    <defs>
     <path id="m2f9dba76ce" d="M -0 8.485281 
L 5.091169 0 
L 0 -8.485281 
L -5.091169 -0 
z
" style="stroke: #ff00ff; stroke-width: 1.5; stroke-linejoin: miter"/>
    </defs>
    <g>
     <use xlink:href="#m2f9dba76ce" x="137.893309" y="280.314372" style="fill-opacity: 0; stroke: #ff00ff; stroke-width: 1.5; stroke-linejoin: miter"/>
     <use xlink:href="#m2f9dba76ce" x="187.453197" y="241.041103" style="fill-opacity: 0; stroke: #ff00ff; stroke-width: 1.5; stroke-linejoin: miter"/>
     <use xlink:href="#m2f9dba76ce" x="187.453197" y="240.5376" style="fill-opacity: 0; stroke: #ff00ff; stroke-width: 1.5; stroke-linejoin: miter"/>
     <use xlink:href="#m2f9dba76ce" x="187.453197" y="240.5376" style="fill-opacity: 0; stroke: #ff00ff; stroke-width: 1.5; stroke-linejoin: miter"/>
     <use xlink:href="#m2f9dba76ce" x="360.8064" y="240.5376" style="fill-opacity: 0; stroke: #ff00ff; stroke-width: 1.5; stroke-linejoin: miter"/>
    </g>
   </g>
   <g id="line2d_37">
    <path style="fill: none; stroke: #ff00ff; stroke-width: 1.5; stroke-linecap: square"/>
    <g/>
   </g>
   <g id="line2d_38">
    <path d="M 187.53431 240.5376 
" clip-path="url(#p2f28fc4e0f)" style="fill: none; stroke: #ff00ff; stroke-width: 1.5; stroke-linecap: square"/>
    <defs>
     <path id="ma685b6e598" d="M -12 12 
L 12 -12 
M -12 -12 
L 12 12 
" style="stroke: #ff00ff"/>
    </defs>
    <g clip-path="url(#p2f28fc4e0f)">
     <use xlink:href="#ma685b6e598" x="187.53431" y="240.5376" style="fill: #ff00ff; stroke: #ff00ff"/>
    </g>
   </g>
   <g id="line2d_39">
    <defs>
     <path id="m4947e04c02" d="M 0 1.5 
C 0.397805 1.5 0.77937 1.341951 1.06066 1.06066 
C 1.341951 0.77937 1.5 0.397805 1.5 0 
C 1.5 -0.397805 1.341951 -0.77937 1.06066 -1.06066 
C 0.77937 -1.341951 0.397805 -1.5 0 -1.5 
C -0.397805 -1.5 -0.77937 -1.341951 -1.06066 -1.06066 
C -1.341951 -0.77937 -1.5 -0.397805 -1.5 0 
C -1.5 0.397805 -1.341951 0.77937 -1.06066 1.06066 
C -0.77937 1.341951 -0.397805 1.5 0 1.5 
z
" style="stroke: #ff7500"/>
    </defs>
    <g>
     <use xlink:href="#m4947e04c02" x="186.810958" y="215.865931" style="fill: #ff7500; stroke: #ff7500"/>
     <use xlink:href="#m4947e04c02" x="186.810958" y="215.865931" style="fill: #ff7500; stroke: #ff7500"/>
    </g>
   </g>
   <g id="line2d_40">
    <path d="M 14.2848 298.944 
L 14.2848 286.859917 
L 27.323974 286.859917 
L 27.323974 286.356414 
L 53.402323 286.356414 
L 53.402323 285.85291 
L 70.639174 285.85291 
L 70.639174 285.349407 
L 82.713442 285.349407 
L 82.713442 284.845903 
L 93.66029 284.845903 
L 93.66029 284.3424 
L 109.037698 284.3424 
L 109.037698 283.838897 
L 110.674517 283.838897 
L 110.674517 283.335393 
L 111.762192 283.335393 
L 111.762192 282.83189 
L 114.326893 282.83189 
L 114.326893 282.328386 
L 117.772007 282.328386 
L 117.772007 281.824883 
L 118.376446 281.824883 
L 118.376446 281.321379 
L 119.876453 281.321379 
L 119.876453 280.817876 
L 120.013265 280.817876 
L 120.013265 280.314372 
L 120.813877 280.314372 
L 120.813877 279.810869 
L 124.265389 279.810869 
L 124.265389 279.307366 
L 124.588805 279.307366 
L 124.695386 278.300359 
L 125.115773 278.300359 
L 125.115773 277.796855 
L 127.731351 277.796855 
L 127.731351 277.293352 
L 130.772751 277.293352 
L 130.849533 276.286345 
L 131.892817 276.286345 
L 131.892817 275.782841 
L 132.534182 275.782841 
L 132.604114 274.272331 
L 132.915628 274.272331 
L 132.915628 273.768828 
L 133.289492 273.768828 
L 133.289492 273.265324 
L 133.423621 273.265324 
L 133.423621 272.761821 
L 133.656071 272.761821 
L 133.656071 272.258317 
L 134.015642 272.258317 
L 134.015642 271.754814 
L 136.184497 271.754814 
L 136.184497 271.25131 
L 137.250116 271.25131 
L 137.250116 270.747807 
L 137.919637 270.747807 
L 137.919637 270.244303 
L 138.464186 270.244303 
L 138.464186 269.7408 
L 139.411192 269.7408 
L 139.411192 269.237297 
L 140.009194 269.237297 
L 140.009194 268.23029 
L 141.239443 268.23029 
L 141.239443 267.223283 
L 142.227492 267.223283 
L 142.227492 266.719779 
L 142.824734 266.719779 
L 142.905644 265.209269 
L 143.126369 265.209269 
L 143.126369 264.705766 
L 143.364242 264.705766 
L 143.364242 264.202262 
L 143.907854 264.202262 
L 143.907854 263.195255 
L 144.173881 263.195255 
L 144.173881 262.691752 
L 144.841158 262.691752 
L 144.841158 262.188248 
L 147.054816 262.188248 
L 147.054816 261.684745 
L 147.375841 261.684745 
L 147.375841 261.181241 
L 147.924778 261.181241 
L 147.924778 260.677738 
L 148.337564 260.677738 
L 148.337564 260.174234 
L 148.518156 260.174234 
L 148.518156 259.670731 
L 149.42456 259.670731 
L 149.42456 259.167228 
L 149.764026 259.167228 
L 149.764026 258.663724 
L 150.813548 258.663724 
L 150.813548 258.160221 
L 151.336488 258.160221 
L 151.336488 257.153214 
L 152.450367 257.153214 
L 152.450367 256.64971 
L 153.605101 256.64971 
L 153.605101 256.146207 
L 154.156931 256.146207 
L 154.156931 255.642703 
L 155.098517 255.642703 
L 155.098517 255.1392 
L 155.350181 255.1392 
L 155.350181 254.635697 
L 155.924624 254.635697 
L 155.924624 254.132193 
L 156.165543 254.132193 
L 156.265023 252.621683 
L 156.423104 252.621683 
L 156.423104 252.118179 
L 156.8511 252.118179 
L 156.8511 251.111172 
L 158.682463 251.111172 
L 158.682463 250.607669 
L 159.676576 250.607669 
L 159.676576 249.600662 
L 159.939564 249.600662 
L 159.939564 248.593655 
L 160.335271 248.593655 
L 160.335271 247.586648 
L 160.557708 247.586648 
L 160.557708 246.579641 
L 161.399407 246.579641 
L 161.399407 246.076138 
L 162.370732 246.076138 
L 162.370732 245.572634 
L 162.6625 245.572634 
L 162.6625 244.565628 
L 163.253342 244.565628 
L 163.253342 244.062124 
L 163.552052 244.062124 
L 163.552052 243.055117 
L 164.070199 243.055117 
L 164.070199 242.551614 
L 164.510559 242.551614 
L 164.510559 242.04811 
L 165.604634 242.04811 
L 165.604634 241.544607 
L 166.286609 241.544607 
L 166.333144 240.034097 
L 167.748381 240.034097 
L 167.748381 239.02709 
L 167.882616 239.02709 
L 167.909348 237.516579 
L 168.326754 237.516579 
L 168.326754 237.013076 
L 168.729985 237.013076 
L 168.729985 236.509572 
L 169.388343 236.509572 
L 169.388343 236.006069 
L 170.561006 236.006069 
L 170.561006 235.502566 
L 170.713514 235.502566 
L 170.713514 234.999062 
L 171.972982 234.999062 
L 171.972982 234.495559 
L 173.213936 234.495559 
L 173.213936 233.992055 
L 173.354457 233.992055 
L 173.382435 231.978041 
L 174.400785 231.978041 
L 174.400785 231.474538 
L 174.521469 231.474538 
L 174.521469 230.971034 
L 175.485059 230.971034 
L 175.485059 230.467531 
L 176.251413 230.467531 
L 176.251413 229.460524 
L 176.604692 229.460524 
L 176.604692 228.957021 
L 176.828821 228.957021 
L 176.828821 227.950014 
L 178.339408 227.950014 
L 178.339408 226.943007 
L 178.5196 226.943007 
L 178.5196 226.439503 
L 180.323858 226.439503 
L 180.323858 225.936 
L 181.229574 225.936 
L 181.229574 224.928993 
L 181.480538 224.928993 
L 181.480538 223.921986 
L 182.228925 223.921986 
L 182.228925 223.418483 
L 182.757962 223.418483 
L 182.757962 222.411476 
L 184.106064 222.411476 
L 184.106064 221.404469 
L 184.335038 221.404469 
L 184.335038 220.397462 
L 184.506063 220.397462 
L 184.506063 219.893959 
L 184.843519 219.893959 
L 184.843519 218.886952 
L 185.142993 218.886952 
L 185.142993 218.383448 
L 185.713499 218.383448 
L 185.713499 217.376441 
L 186.517221 217.376441 
L 186.517221 216.369434 
L 186.810958 216.369434 
L 186.810958 215.865931 
L 360.8064 215.865931 
L 360.8064 215.865931 
" style="fill: none; stroke: #ff7500; stroke-width: 1.5; stroke-linecap: square"/>
   </g>
   <g id="line2d_41">
    <defs>
     <path id="m831dfd427a" d="M 0 -6 
L -1.347084 -1.854102 
L -5.706339 -1.854102 
L -2.179628 0.708204 
L -3.526712 4.854102 
L -0 2.291796 
L 3.526712 4.854102 
L 2.179628 0.708204 
L 5.706339 -1.854102 
L 1.347084 -1.854102 
z
" style="stroke: #ff7500; stroke-width: 1.5; stroke-linejoin: bevel"/>
    </defs>
    <g>
     <use xlink:href="#m831dfd427a" x="125.115773" y="277.796855" style="fill-opacity: 0; stroke: #ff7500; stroke-width: 1.5; stroke-linejoin: bevel"/>
     <use xlink:href="#m831dfd427a" x="184.506063" y="219.893959" style="fill-opacity: 0; stroke: #ff7500; stroke-width: 1.5; stroke-linejoin: bevel"/>
     <use xlink:href="#m831dfd427a" x="186.810958" y="216.369434" style="fill-opacity: 0; stroke: #ff7500; stroke-width: 1.5; stroke-linejoin: bevel"/>
     <use xlink:href="#m831dfd427a" x="186.810958" y="215.865931" style="fill-opacity: 0; stroke: #ff7500; stroke-width: 1.5; stroke-linejoin: bevel"/>
     <use xlink:href="#m831dfd427a" x="186.810958" y="215.865931" style="fill-opacity: 0; stroke: #ff7500; stroke-width: 1.5; stroke-linejoin: bevel"/>
     <use xlink:href="#m831dfd427a" x="360.8064" y="215.865931" style="fill-opacity: 0; stroke: #ff7500; stroke-width: 1.5; stroke-linejoin: bevel"/>
    </g>
   </g>
   <g id="line2d_42">
    <path style="fill: none; stroke: #ff7500; stroke-width: 1.5; stroke-linecap: square"/>
    <g/>
   </g>
   <g id="line2d_43">
    <path d="M 187.539956 215.865931 
" clip-path="url(#p2f28fc4e0f)" style="fill: none; stroke: #ff7500; stroke-width: 1.5; stroke-linecap: square"/>
    <defs>
     <path id="m699103e7b5" d="M -12 12 
L 12 -12 
M -12 -12 
L 12 12 
" style="stroke: #ff7500"/>
    </defs>
    <g clip-path="url(#p2f28fc4e0f)">
     <use xlink:href="#m699103e7b5" x="187.539956" y="215.865931" style="fill: #ff7500; stroke: #ff7500"/>
    </g>
   </g>
   <g id="line2d_44">
    <defs>
     <path id="m051b55bdbc" d="M 0 1.5 
C 0.397805 1.5 0.77937 1.341951 1.06066 1.06066 
C 1.341951 0.77937 1.5 0.397805 1.5 0 
C 1.5 -0.397805 1.341951 -0.77937 1.06066 -1.06066 
C 0.77937 -1.341951 0.397805 -1.5 0 -1.5 
C -0.397805 -1.5 -0.77937 -1.341951 -1.06066 -1.06066 
C -1.341951 -0.77937 -1.5 -0.397805 -1.5 0 
C -1.5 0.397805 -1.341951 0.77937 -1.06066 1.06066 
C -0.77937 1.341951 -0.397805 1.5 0 1.5 
z
" style="stroke: #6495ed"/>
    </defs>
    <g>
     <use xlink:href="#m051b55bdbc" x="187.388813" y="251.614676" style="fill: #6495ed; stroke: #6495ed"/>
     <use xlink:href="#m051b55bdbc" x="187.388813" y="251.614676" style="fill: #6495ed; stroke: #6495ed"/>
    </g>
   </g>
   <g id="line2d_45">
    <path d="M 14.2848 298.944 
L 14.2848 294.412469 
L 70.639174 294.412469 
L 70.639174 293.908966 
L 75.574654 293.908966 
L 75.574654 292.901959 
L 79.480672 292.901959 
L 79.480672 292.398455 
L 93.66029 292.398455 
L 93.66029 291.894952 
L 108.791791 291.894952 
L 108.791791 291.391448 
L 125.167667 291.391448 
L 125.167667 290.887945 
L 127.273627 290.887945 
L 127.273627 290.384441 
L 129.209231 290.384441 
L 129.209231 289.377434 
L 130.46245 289.377434 
L 130.46245 288.873931 
L 132.915628 288.873931 
L 132.915628 288.370428 
L 133.689044 288.370428 
L 133.689044 287.866924 
L 136.696795 287.866924 
L 136.724851 286.859917 
L 138.10291 286.859917 
L 138.10291 286.356414 
L 139.435481 286.356414 
L 139.435481 285.85291 
L 140.219905 285.85291 
L 140.219905 285.349407 
L 141.974701 285.349407 
L 141.974701 284.845903 
L 144.305496 284.845903 
L 144.305496 284.3424 
L 145.730339 284.3424 
L 145.730339 283.838897 
L 146.074567 283.838897 
L 146.074567 282.83189 
L 146.826795 282.83189 
L 146.826795 282.328386 
L 147.280107 282.328386 
L 147.280107 281.824883 
L 147.924778 281.824883 
L 147.924778 281.321379 
L 148.991428 281.321379 
L 148.991428 280.817876 
L 149.721926 280.817876 
L 149.721926 280.314372 
L 151.554409 280.314372 
L 151.554409 279.810869 
L 153.200785 279.810869 
L 153.200785 279.307366 
L 153.513449 279.307366 
L 153.513449 278.803862 
L 153.650761 278.803862 
L 153.650761 278.300359 
L 154.410475 278.300359 
L 154.410475 277.796855 
L 155.277126 277.796855 
L 155.277126 277.293352 
L 155.526427 277.293352 
L 155.526427 276.789848 
L 155.924624 276.789848 
L 155.924624 276.286345 
L 156.822226 276.286345 
L 156.822226 275.782841 
L 157.363398 275.782841 
L 157.363398 275.279338 
L 157.577432 275.279338 
L 157.577432 274.775834 
L 157.843876 274.775834 
L 157.843876 274.272331 
L 158.856162 274.272331 
L 158.856162 273.768828 
L 159.552023 273.768828 
L 159.552023 273.265324 
L 160.061585 273.265324 
L 160.061585 272.761821 
L 160.863211 272.761821 
L 160.863211 272.258317 
L 161.617145 272.258317 
L 161.661881 271.25131 
L 162.620084 271.25131 
L 162.620084 270.244303 
L 163.205379 270.244303 
L 163.205379 269.7408 
L 163.819551 269.7408 
L 163.852722 268.733793 
L 165.139977 268.733793 
L 165.139977 268.23029 
L 166.569843 268.23029 
L 166.569843 267.726786 
L 167.44965 267.726786 
L 167.493397 266.719779 
L 168.274427 266.719779 
L 168.342424 265.712772 
L 168.550116 265.712772 
L 168.550116 265.209269 
L 169.995769 265.209269 
L 169.995769 264.705766 
L 172.097406 264.705766 
L 172.097406 263.698759 
L 175.352444 263.698759 
L 175.431409 262.691752 
L 176.33353 262.691752 
L 176.33353 262.188248 
L 176.577751 262.188248 
L 176.658458 260.677738 
L 177.076584 260.677738 
L 177.076584 260.174234 
L 179.459261 260.174234 
L 179.459261 259.670731 
L 179.574564 259.670731 
L 179.574564 259.167228 
L 180.110009 259.167228 
L 180.110009 258.160221 
L 180.862845 258.160221 
L 180.862845 257.656717 
L 181.761486 257.656717 
L 181.761486 256.64971 
L 182.636251 256.64971 
L 182.733682 255.642703 
L 184.017773 255.642703 
L 184.017773 255.1392 
L 184.191694 255.1392 
L 184.191694 254.635697 
L 185.802452 254.635697 
L 185.82514 252.621683 
L 186.323502 252.621683 
L 186.323502 252.118179 
L 187.388813 252.118179 
L 187.388813 251.614676 
L 360.8064 251.614676 
L 360.8064 251.614676 
" style="fill: none; stroke: #6495ed; stroke-width: 1.5; stroke-linecap: square"/>
   </g>
   <g id="line2d_46">
    <defs>
     <path id="m3f9d27ac33" d="M -0 6 
L 6 -6 
L -6 -6 
z
" style="stroke: #6495ed; stroke-width: 1.5; stroke-linejoin: miter"/>
    </defs>
    <g>
     <use xlink:href="#m3f9d27ac33" x="75.574654" y="293.908966" style="fill-opacity: 0; stroke: #6495ed; stroke-width: 1.5; stroke-linejoin: miter"/>
     <use xlink:href="#m3f9d27ac33" x="141.974701" y="284.845903" style="fill-opacity: 0; stroke: #6495ed; stroke-width: 1.5; stroke-linejoin: miter"/>
     <use xlink:href="#m3f9d27ac33" x="187.388813" y="252.118179" style="fill-opacity: 0; stroke: #6495ed; stroke-width: 1.5; stroke-linejoin: miter"/>
     <use xlink:href="#m3f9d27ac33" x="187.388813" y="251.614676" style="fill-opacity: 0; stroke: #6495ed; stroke-width: 1.5; stroke-linejoin: miter"/>
     <use xlink:href="#m3f9d27ac33" x="187.388813" y="251.614676" style="fill-opacity: 0; stroke: #6495ed; stroke-width: 1.5; stroke-linejoin: miter"/>
     <use xlink:href="#m3f9d27ac33" x="360.8064" y="251.614676" style="fill-opacity: 0; stroke: #6495ed; stroke-width: 1.5; stroke-linejoin: miter"/>
    </g>
   </g>
   <g id="line2d_47">
    <path style="fill: none; stroke: #6495ed; stroke-width: 1.5; stroke-linecap: square"/>
    <g/>
   </g>
   <g id="line2d_48">
    <path d="M 187.5456 251.614676 
" clip-path="url(#p2f28fc4e0f)" style="fill: none; stroke: #6495ed; stroke-width: 1.5; stroke-linecap: square"/>
    <defs>
     <path id="mf2c9c9e13f" d="M -12 12 
L 12 -12 
M -12 -12 
L 12 12 
" style="stroke: #6495ed"/>
    </defs>
    <g clip-path="url(#p2f28fc4e0f)">
     <use xlink:href="#mf2c9c9e13f" x="187.5456" y="251.614676" style="fill: #6495ed; stroke: #6495ed"/>
    </g>
   </g>
   <g id="line2d_49">
    <path d="M 360.8064 251.614676 
L 380.514816 293.10336 
" style="fill: none; stroke: #6495ed; stroke-width: 1.5; stroke-linecap: square"/>
    <g>
     <use xlink:href="#m3f9d27ac33" x="360.8064" y="251.614676" style="fill-opacity: 0; stroke: #6495ed; stroke-width: 1.5; stroke-linejoin: miter"/>
     <use xlink:href="#m3f9d27ac33" x="380.514816" y="293.10336" style="fill-opacity: 0; stroke: #6495ed; stroke-width: 1.5; stroke-linejoin: miter"/>
    </g>
   </g>
   <g id="line2d_50">
    <path d="M 360.8064 240.5376 
L 380.514816 199.65312 
" style="fill: none; stroke: #ff00ff; stroke-width: 1.5; stroke-linecap: square"/>
    <g>
     <use xlink:href="#m2f9dba76ce" x="360.8064" y="240.5376" style="fill-opacity: 0; stroke: #ff00ff; stroke-width: 1.5; stroke-linejoin: miter"/>
     <use xlink:href="#m2f9dba76ce" x="380.514816" y="199.65312" style="fill-opacity: 0; stroke: #ff00ff; stroke-width: 1.5; stroke-linejoin: miter"/>
    </g>
   </g>
   <g id="line2d_51">
    <path d="M 360.8064 222.411476 
L 380.514816 106.20288 
" style="fill: none; stroke: #000080; stroke-width: 1.5; stroke-linecap: square"/>
    <g>
     <use xlink:href="#mf231ef8daa" x="360.8064" y="222.411476" style="fill-opacity: 0; stroke: #000080; stroke-width: 1.5"/>
     <use xlink:href="#mf231ef8daa" x="380.514816" y="106.20288" style="fill-opacity: 0; stroke: #000080; stroke-width: 1.5"/>
    </g>
   </g>
   <g id="line2d_52">
    <path d="M 360.8064 215.865931 
L 380.514816 12.75264 
" style="fill: none; stroke: #ff7500; stroke-width: 1.5; stroke-linecap: square"/>
    <g>
     <use xlink:href="#m831dfd427a" x="360.8064" y="215.865931" style="fill-opacity: 0; stroke: #ff7500; stroke-width: 1.5; stroke-linejoin: bevel"/>
     <use xlink:href="#m831dfd427a" x="380.514816" y="12.75264" style="fill-opacity: 0; stroke: #ff7500; stroke-width: 1.5; stroke-linejoin: bevel"/>
    </g>
   </g>
   <g id="line2d_53">
    <path d="M 360.8064 298.944 
L 360.8064 6.912 
" style="fill: none; stroke: #000000; stroke-width: 1.5; stroke-linecap: square"/>
   </g>
   <g id="patch_3">
    <path d="M 57.6 298.944 
L 360.8064 298.944 
" style="fill: none; stroke: #000000; stroke-width: 0.8; stroke-linejoin: miter; stroke-linecap: square"/>
   </g>
   <g id="patch_4">
    <path d="M 57.6 6.912 
L 360.8064 6.912 
" style="fill: none; stroke: #000000; stroke-width: 0.8; stroke-linejoin: miter; stroke-linecap: square"/>
   </g>
   <g id="text_13">
    <!-- f52 -->
    <g transform="translate(386.578944 296.966485) scale(0.14 -0.14)">
     <defs>
      <path id="DejaVuSans-35" d="M 691 4666 
L 3169 4666 
L 3169 4134 
L 1269 4134 
L 1269 2991 
Q 1406 3038 1543 3061 
Q 1681 3084 1819 3084 
Q 2600 3084 3056 2656 
Q 3513 2228 3513 1497 
Q 3513 744 3044 326 
Q 2575 -91 1722 -91 
Q 1428 -91 1123 -41 
Q 819 9 494 109 
L 494 744 
Q 775 591 1075 516 
Q 1375 441 1709 441 
Q 2250 441 2565 725 
Q 2881 1009 2881 1497 
Q 2881 1984 2565 2268 
Q 2250 2553 1709 2553 
Q 1456 2553 1204 2497 
Q 953 2441 691 2322 
L 691 4666 
z
" transform="scale(0.015625)"/>
     </defs>
     <use xlink:href="#DejaVuSans-66"/>
     <use xlink:href="#DejaVuSans-35" x="35.205078"/>
     <use xlink:href="#DejaVuSans-32" x="98.828125"/>
    </g>
   </g>
   <g id="text_14">
    <!-- f49 -->
    <g transform="translate(386.578944 203.516245) scale(0.14 -0.14)">
     <defs>
      <path id="DejaVuSans-39" d="M 703 97 
L 703 672 
Q 941 559 1184 500 
Q 1428 441 1663 441 
Q 2288 441 2617 861 
Q 2947 1281 2994 2138 
Q 2813 1869 2534 1725 
Q 2256 1581 1919 1581 
Q 1219 1581 811 2004 
Q 403 2428 403 3163 
Q 403 3881 828 4315 
Q 1253 4750 1959 4750 
Q 2769 4750 3195 4129 
Q 3622 3509 3622 2328 
Q 3622 1225 3098 567 
Q 2575 -91 1691 -91 
Q 1453 -91 1209 -44 
Q 966 3 703 97 
z
M 1959 2075 
Q 2384 2075 2632 2365 
Q 2881 2656 2881 3163 
Q 2881 3666 2632 3958 
Q 2384 4250 1959 4250 
Q 1534 4250 1286 3958 
Q 1038 3666 1038 3163 
Q 1038 2656 1286 2365 
Q 1534 2075 1959 2075 
z
" transform="scale(0.015625)"/>
     </defs>
     <use xlink:href="#DejaVuSans-66"/>
     <use xlink:href="#DejaVuSans-34" x="35.205078"/>
     <use xlink:href="#DejaVuSans-39" x="98.828125"/>
    </g>
   </g>
   <g id="text_15">
    <!-- f48 -->
    <g transform="translate(386.578944 110.066005) scale(0.14 -0.14)">
     <use xlink:href="#DejaVuSans-66"/>
     <use xlink:href="#DejaVuSans-34" x="35.205078"/>
     <use xlink:href="#DejaVuSans-38" x="98.828125"/>
    </g>
   </g>
   <g id="text_16">
    <!-- f51 -->
    <g transform="translate(386.578944 16.615765) scale(0.14 -0.14)">
     <use xlink:href="#DejaVuSans-66"/>
     <use xlink:href="#DejaVuSans-35" x="35.205078"/>
     <use xlink:href="#DejaVuSans-31" x="98.828125"/>
    </g>
   </g>
   <g id="text_17">
    <!-- bbob-biobj -->
    <g transform="translate(60.632064 17.582726) scale(0.102 -0.102)">
     <defs>
      <path id="DejaVuSans-62" d="M 3116 1747 
Q 3116 2381 2855 2742 
Q 2594 3103 2138 3103 
Q 1681 3103 1420 2742 
Q 1159 2381 1159 1747 
Q 1159 1113 1420 752 
Q 1681 391 2138 391 
Q 2594 391 2855 752 
Q 3116 1113 3116 1747 
z
M 1159 2969 
Q 1341 3281 1617 3432 
Q 1894 3584 2278 3584 
Q 2916 3584 3314 3078 
Q 3713 2572 3713 1747 
Q 3713 922 3314 415 
Q 2916 -91 2278 -91 
Q 1894 -91 1617 61 
Q 1341 213 1159 525 
L 1159 0 
L 581 0 
L 581 4863 
L 1159 4863 
L 1159 2969 
z
" transform="scale(0.015625)"/>
      <path id="DejaVuSans-6a" d="M 603 3500 
L 1178 3500 
L 1178 -63 
Q 1178 -731 923 -1031 
Q 669 -1331 103 -1331 
L -116 -1331 
L -116 -844 
L 38 -844 
Q 366 -844 484 -692 
Q 603 -541 603 -63 
L 603 3500 
z
M 603 4863 
L 1178 4863 
L 1178 4134 
L 603 4134 
L 603 4863 
z
" transform="scale(0.015625)"/>
     </defs>
     <use xlink:href="#DejaVuSans-62"/>
     <use xlink:href="#DejaVuSans-62" x="63.476562"/>
     <use xlink:href="#DejaVuSans-6f" x="126.953125"/>
     <use xlink:href="#DejaVuSans-62" x="188.134766"/>
     <use xlink:href="#DejaVuSans-2d" x="251.611328"/>
     <use xlink:href="#DejaVuSans-62" x="287.695312"/>
     <use xlink:href="#DejaVuSans-69" x="351.171875"/>
     <use xlink:href="#DejaVuSans-6f" x="378.955078"/>
     <use xlink:href="#DejaVuSans-62" x="440.136719"/>
     <use xlink:href="#DejaVuSans-6a" x="503.613281"/>
    </g>
    <!-- 4-multi-modal 5-weakly-structured, 10-D -->
    <g transform="translate(60.632064 29.004495) scale(0.102 -0.102)">
     <defs>
      <path id="DejaVuSans-77" d="M 269 3500 
L 844 3500 
L 1563 769 
L 2278 3500 
L 2956 3500 
L 3675 769 
L 4391 3500 
L 4966 3500 
L 4050 0 
L 3372 0 
L 2619 2869 
L 1863 0 
L 1184 0 
L 269 3500 
z
" transform="scale(0.015625)"/>
      <path id="DejaVuSans-6b" d="M 581 4863 
L 1159 4863 
L 1159 1991 
L 2875 3500 
L 3609 3500 
L 1753 1863 
L 3688 0 
L 2938 0 
L 1159 1709 
L 1159 0 
L 581 0 
L 581 4863 
z
" transform="scale(0.015625)"/>
      <path id="DejaVuSans-79" d="M 2059 -325 
Q 1816 -950 1584 -1140 
Q 1353 -1331 966 -1331 
L 506 -1331 
L 506 -850 
L 844 -850 
Q 1081 -850 1212 -737 
Q 1344 -625 1503 -206 
L 1606 56 
L 191 3500 
L 800 3500 
L 1894 763 
L 2988 3500 
L 3597 3500 
L 2059 -325 
z
" transform="scale(0.015625)"/>
      <path id="DejaVuSans-44" d="M 1259 4147 
L 1259 519 
L 2022 519 
Q 2988 519 3436 956 
Q 3884 1394 3884 2338 
Q 3884 3275 3436 3711 
Q 2988 4147 2022 4147 
L 1259 4147 
z
M 628 4666 
L 1925 4666 
Q 3281 4666 3915 4102 
Q 4550 3538 4550 2338 
Q 4550 1131 3912 565 
Q 3275 0 1925 0 
L 628 0 
L 628 4666 
z
" transform="scale(0.015625)"/>
     </defs>
     <use xlink:href="#DejaVuSans-34"/>
     <use xlink:href="#DejaVuSans-2d" x="63.623047"/>
     <use xlink:href="#DejaVuSans-6d" x="99.707031"/>
     <use xlink:href="#DejaVuSans-75" x="197.119141"/>
     <use xlink:href="#DejaVuSans-6c" x="260.498047"/>
     <use xlink:href="#DejaVuSans-74" x="288.28125"/>
     <use xlink:href="#DejaVuSans-69" x="327.490234"/>
     <use xlink:href="#DejaVuSans-2d" x="355.273438"/>
     <use xlink:href="#DejaVuSans-6d" x="391.357422"/>
     <use xlink:href="#DejaVuSans-6f" x="488.769531"/>
     <use xlink:href="#DejaVuSans-64" x="549.951172"/>
     <use xlink:href="#DejaVuSans-61" x="613.427734"/>
     <use xlink:href="#DejaVuSans-6c" x="674.707031"/>
     <use xlink:href="#DejaVuSans-20" x="702.490234"/>
     <use xlink:href="#DejaVuSans-35" x="734.277344"/>
     <use xlink:href="#DejaVuSans-2d" x="797.900391"/>
     <use xlink:href="#DejaVuSans-77" x="833.984375"/>
     <use xlink:href="#DejaVuSans-65" x="915.771484"/>
     <use xlink:href="#DejaVuSans-61" x="977.294922"/>
     <use xlink:href="#DejaVuSans-6b" x="1038.574219"/>
     <use xlink:href="#DejaVuSans-6c" x="1096.484375"/>
     <use xlink:href="#DejaVuSans-79" x="1124.267578"/>
     <use xlink:href="#DejaVuSans-2d" x="1181.697266"/>
     <use xlink:href="#DejaVuSans-73" x="1217.78125"/>
     <use xlink:href="#DejaVuSans-74" x="1269.880859"/>
     <use xlink:href="#DejaVuSans-72" x="1309.089844"/>
     <use xlink:href="#DejaVuSans-75" x="1350.203125"/>
     <use xlink:href="#DejaVuSans-63" x="1413.582031"/>
     <use xlink:href="#DejaVuSans-74" x="1468.5625"/>
     <use xlink:href="#DejaVuSans-75" x="1507.771484"/>
     <use xlink:href="#DejaVuSans-72" x="1571.150391"/>
     <use xlink:href="#DejaVuSans-65" x="1610.013672"/>
     <use xlink:href="#DejaVuSans-64" x="1671.537109"/>
     <use xlink:href="#DejaVuSans-2c" x="1735.013672"/>
     <use xlink:href="#DejaVuSans-20" x="1766.800781"/>
     <use xlink:href="#DejaVuSans-31" x="1798.587891"/>
     <use xlink:href="#DejaVuSans-30" x="1862.210938"/>
     <use xlink:href="#DejaVuSans-2d" x="1925.833984"/>
     <use xlink:href="#DejaVuSans-44" x="1961.917969"/>
    </g>
    <!-- 58 targets: 1..-1.0e-4 -->
    <g transform="translate(60.632064 40.426264) scale(0.102 -0.102)">
     <defs>
      <path id="DejaVuSans-3a" d="M 750 794 
L 1409 794 
L 1409 0 
L 750 0 
L 750 794 
z
M 750 3309 
L 1409 3309 
L 1409 2516 
L 750 2516 
L 750 3309 
z
" transform="scale(0.015625)"/>
     </defs>
     <use xlink:href="#DejaVuSans-35"/>
     <use xlink:href="#DejaVuSans-38" x="63.623047"/>
     <use xlink:href="#DejaVuSans-20" x="127.246094"/>
     <use xlink:href="#DejaVuSans-74" x="159.033203"/>
     <use xlink:href="#DejaVuSans-61" x="198.242188"/>
     <use xlink:href="#DejaVuSans-72" x="259.521484"/>
     <use xlink:href="#DejaVuSans-67" x="298.884766"/>
     <use xlink:href="#DejaVuSans-65" x="362.361328"/>
     <use xlink:href="#DejaVuSans-74" x="423.884766"/>
     <use xlink:href="#DejaVuSans-73" x="463.09375"/>
     <use xlink:href="#DejaVuSans-3a" x="515.193359"/>
     <use xlink:href="#DejaVuSans-20" x="548.884766"/>
     <use xlink:href="#DejaVuSans-31" x="580.671875"/>
     <use xlink:href="#DejaVuSans-2e" x="644.294922"/>
     <use xlink:href="#DejaVuSans-2e" x="676.082031"/>
     <use xlink:href="#DejaVuSans-2d" x="707.869141"/>
     <use xlink:href="#DejaVuSans-31" x="743.953125"/>
     <use xlink:href="#DejaVuSans-2e" x="807.576172"/>
     <use xlink:href="#DejaVuSans-30" x="839.363281"/>
     <use xlink:href="#DejaVuSans-65" x="902.986328"/>
     <use xlink:href="#DejaVuSans-2d" x="964.509766"/>
     <use xlink:href="#DejaVuSans-34" x="1000.59375"/>
    </g>
    <!-- 10 instances -->
    <g transform="translate(60.632064 51.848032) scale(0.102 -0.102)">
     <use xlink:href="#DejaVuSans-31"/>
     <use xlink:href="#DejaVuSans-30" x="63.623047"/>
     <use xlink:href="#DejaVuSans-20" x="127.246094"/>
     <use xlink:href="#DejaVuSans-69" x="159.033203"/>
     <use xlink:href="#DejaVuSans-6e" x="186.816406"/>
     <use xlink:href="#DejaVuSans-73" x="250.195312"/>
     <use xlink:href="#DejaVuSans-74" x="302.294922"/>
     <use xlink:href="#DejaVuSans-61" x="341.503906"/>
     <use xlink:href="#DejaVuSans-6e" x="402.783203"/>
     <use xlink:href="#DejaVuSans-63" x="466.162109"/>
     <use xlink:href="#DejaVuSans-65" x="521.142578"/>
     <use xlink:href="#DejaVuSans-73" x="582.666016"/>
    </g>
   </g>
   <g id="text_18">
    <!-- v2.6, hv-hash=ff0e71e8cd978373 -->
    <g style="fill: #808080" transform="translate(123.707887 293.943992) scale(0.1 -0.1)">
     <defs>
      <path id="DejaVuSans-68" d="M 3513 2113 
L 3513 0 
L 2938 0 
L 2938 2094 
Q 2938 2591 2744 2837 
Q 2550 3084 2163 3084 
Q 1697 3084 1428 2787 
Q 1159 2491 1159 1978 
L 1159 0 
L 581 0 
L 581 4863 
L 1159 4863 
L 1159 2956 
Q 1366 3272 1645 3428 
Q 1925 3584 2291 3584 
Q 2894 3584 3203 3211 
Q 3513 2838 3513 2113 
z
" transform="scale(0.015625)"/>
      <path id="DejaVuSans-3d" d="M 678 2906 
L 4684 2906 
L 4684 2381 
L 678 2381 
L 678 2906 
z
M 678 1631 
L 4684 1631 
L 4684 1100 
L 678 1100 
L 678 1631 
z
" transform="scale(0.015625)"/>
      <path id="DejaVuSans-37" d="M 525 4666 
L 3525 4666 
L 3525 4397 
L 1831 0 
L 1172 0 
L 2766 4134 
L 525 4134 
L 525 4666 
z
" transform="scale(0.015625)"/>
      <path id="DejaVuSans-33" d="M 2597 2516 
Q 3050 2419 3304 2112 
Q 3559 1806 3559 1356 
Q 3559 666 3084 287 
Q 2609 -91 1734 -91 
Q 1441 -91 1130 -33 
Q 819 25 488 141 
L 488 750 
Q 750 597 1062 519 
Q 1375 441 1716 441 
Q 2309 441 2620 675 
Q 2931 909 2931 1356 
Q 2931 1769 2642 2001 
Q 2353 2234 1838 2234 
L 1294 2234 
L 1294 2753 
L 1863 2753 
Q 2328 2753 2575 2939 
Q 2822 3125 2822 3475 
Q 2822 3834 2567 4026 
Q 2313 4219 1838 4219 
Q 1578 4219 1281 4162 
Q 984 4106 628 3988 
L 628 4550 
Q 988 4650 1302 4700 
Q 1616 4750 1894 4750 
Q 2613 4750 3031 4423 
Q 3450 4097 3450 3541 
Q 3450 3153 3228 2886 
Q 3006 2619 2597 2516 
z
" transform="scale(0.015625)"/>
     </defs>
     <use xlink:href="#DejaVuSans-76"/>
     <use xlink:href="#DejaVuSans-32" x="59.179688"/>
     <use xlink:href="#DejaVuSans-2e" x="122.802734"/>
     <use xlink:href="#DejaVuSans-36" x="154.589844"/>
     <use xlink:href="#DejaVuSans-2c" x="218.212891"/>
     <use xlink:href="#DejaVuSans-20" x="250"/>
     <use xlink:href="#DejaVuSans-68" x="281.787109"/>
     <use xlink:href="#DejaVuSans-76" x="345.166016"/>
     <use xlink:href="#DejaVuSans-2d" x="401.720703"/>
     <use xlink:href="#DejaVuSans-68" x="437.804688"/>
     <use xlink:href="#DejaVuSans-61" x="501.183594"/>
     <use xlink:href="#DejaVuSans-73" x="562.462891"/>
     <use xlink:href="#DejaVuSans-68" x="614.5625"/>
     <use xlink:href="#DejaVuSans-3d" x="677.941406"/>
     <use xlink:href="#DejaVuSans-66" x="761.730469"/>
     <use xlink:href="#DejaVuSans-66" x="796.935547"/>
     <use xlink:href="#DejaVuSans-30" x="832.140625"/>
     <use xlink:href="#DejaVuSans-65" x="895.763672"/>
     <use xlink:href="#DejaVuSans-37" x="957.287109"/>
     <use xlink:href="#DejaVuSans-31" x="1020.910156"/>
     <use xlink:href="#DejaVuSans-65" x="1084.533203"/>
     <use xlink:href="#DejaVuSans-38" x="1146.056641"/>
     <use xlink:href="#DejaVuSans-63" x="1209.679688"/>
     <use xlink:href="#DejaVuSans-64" x="1264.660156"/>
     <use xlink:href="#DejaVuSans-39" x="1328.136719"/>
     <use xlink:href="#DejaVuSans-37" x="1391.759766"/>
     <use xlink:href="#DejaVuSans-38" x="1455.382812"/>
     <use xlink:href="#DejaVuSans-33" x="1519.005859"/>
     <use xlink:href="#DejaVuSans-37" x="1582.628906"/>
     <use xlink:href="#DejaVuSans-33" x="1646.251953"/>
    </g>
   </g>
  </g>
 </g>
 <defs>
  <clipPath id="p2f28fc4e0f">
   <rect x="57.6" y="6.912" width="303.2064" height="292.032"/>
  </clipPath>
 </defs>
</svg>
