<?xml version="1.0" encoding="utf-8" standalone="no"?>
<!DOCTYPE svg PUBLIC "-//W3C//DTD SVG 1.1//EN"
  "http://www.w3.org/Graphics/SVG/1.1/DTD/svg11.dtd">
<svg xmlns:xlink="http://www.w3.org/1999/xlink" width="460.8pt" height="345.6pt" viewBox="0 0 460.8 345.6" xmlns="http://www.w3.org/2000/svg" version="1.1">
 <metadata>
  <rdf:RDF xmlns:dc="http://purl.org/dc/elements/1.1/" xmlns:cc="http://creativecommons.org/ns#" xmlns:rdf="http://www.w3.org/1999/02/22-rdf-syntax-ns#">
   <cc:Work>
    <dc:type rdf:resource="http://purl.org/dc/dcmitype/StillImage"/>
    <dc:date>2023-02-16T10:11:18.846663</dc:date>
    <dc:format>image/svg+xml</dc:format>
    <dc:creator>
     <cc:Agent>
      <dc:title>Matplotlib v3.6.3, https://matplotlib.org/</dc:title>
     </cc:Agent>
    </dc:creator>
   </cc:Work>
  </rdf:RDF>
 </metadata>
 <defs>
  <style type="text/css">*{stroke-linejoin: round; stroke-linecap: butt}</style>
 </defs>
 <g id="figure_1">
  <g id="patch_1">
   <path d="M 0 345.6 
L 460.8 345.6 
L 460.8 0 
L 0 0 
z
" style="fill: #ffffff"/>
  </g>
  <g id="axes_1">
   <g id="patch_2">
    <path d="M 57.6 298.944 
L 360.8064 298.944 
L 360.8064 6.912 
L 57.6 6.912 
z
" style="fill: #ffffff"/>
   </g>
   <g id="matplotlib.axis_1">
    <g id="xtick_1">
     <g id="line2d_1">
      <path d="M 57.6 298.944 
L 57.6 6.912 
" clip-path="url(#pc96dbb9e21)" style="fill: none; stroke: #b0b0b0; stroke-width: 0.8; stroke-linecap: square"/>
     </g>
     <g id="line2d_2">
      <defs>
       <path id="mf34a035bdf" d="M 0 0 
L 0 3.5 
" style="stroke: #000000; stroke-width: 0.8"/>
      </defs>
      <g>
       <use xlink:href="#mf34a035bdf" x="57.6" y="298.944" style="stroke: #000000; stroke-width: 0.8"/>
      </g>
     </g>
     <g id="text_1">
      <!-- 0 -->
      <g transform="translate(52.191875 318.861344) scale(0.17 -0.17)">
       <defs>
        <path id="DejaVuSans-30" d="M 2034 4250 
Q 1547 4250 1301 3770 
Q 1056 3291 1056 2328 
Q 1056 1369 1301 889 
Q 1547 409 2034 409 
Q 2525 409 2770 889 
Q 3016 1369 3016 2328 
Q 3016 3291 2770 3770 
Q 2525 4250 2034 4250 
z
M 2034 4750 
Q 2819 4750 3233 4129 
Q 3647 3509 3647 2328 
Q 3647 1150 3233 529 
Q 2819 -91 2034 -91 
Q 1250 -91 836 529 
Q 422 1150 422 2328 
Q 422 3509 836 4129 
Q 1250 4750 2034 4750 
z
" transform="scale(0.015625)"/>
       </defs>
       <use xlink:href="#DejaVuSans-30"/>
      </g>
     </g>
    </g>
    <g id="xtick_2">
     <g id="line2d_3">
      <path d="M 144.2304 298.944 
L 144.2304 6.912 
" clip-path="url(#pc96dbb9e21)" style="fill: none; stroke: #b0b0b0; stroke-width: 0.8; stroke-linecap: square"/>
     </g>
     <g id="line2d_4">
      <g>
       <use xlink:href="#mf34a035bdf" x="144.2304" y="298.944" style="stroke: #000000; stroke-width: 0.8"/>
      </g>
     </g>
     <g id="text_2">
      <!-- 2 -->
      <g transform="translate(138.822275 318.861344) scale(0.17 -0.17)">
       <defs>
        <path id="DejaVuSans-32" d="M 1228 531 
L 3431 531 
L 3431 0 
L 469 0 
L 469 531 
Q 828 903 1448 1529 
Q 2069 2156 2228 2338 
Q 2531 2678 2651 2914 
Q 2772 3150 2772 3378 
Q 2772 3750 2511 3984 
Q 2250 4219 1831 4219 
Q 1534 4219 1204 4116 
Q 875 4013 500 3803 
L 500 4441 
Q 881 4594 1212 4672 
Q 1544 4750 1819 4750 
Q 2544 4750 2975 4387 
Q 3406 4025 3406 3419 
Q 3406 3131 3298 2873 
Q 3191 2616 2906 2266 
Q 2828 2175 2409 1742 
Q 1991 1309 1228 531 
z
" transform="scale(0.015625)"/>
       </defs>
       <use xlink:href="#DejaVuSans-32"/>
      </g>
     </g>
    </g>
    <g id="xtick_3">
     <g id="line2d_5">
      <path d="M 230.8608 298.944 
L 230.8608 6.912 
" clip-path="url(#pc96dbb9e21)" style="fill: none; stroke: #b0b0b0; stroke-width: 0.8; stroke-linecap: square"/>
     </g>
     <g id="line2d_6">
      <g>
       <use xlink:href="#mf34a035bdf" x="230.8608" y="298.944" style="stroke: #000000; stroke-width: 0.8"/>
      </g>
     </g>
     <g id="text_3">
      <!-- 4 -->
      <g transform="translate(225.452675 318.861344) scale(0.17 -0.17)">
       <defs>
        <path id="DejaVuSans-34" d="M 2419 4116 
L 825 1625 
L 2419 1625 
L 2419 4116 
z
M 2253 4666 
L 3047 4666 
L 3047 1625 
L 3713 1625 
L 3713 1100 
L 3047 1100 
L 3047 0 
L 2419 0 
L 2419 1100 
L 313 1100 
L 313 1709 
L 2253 4666 
z
" transform="scale(0.015625)"/>
       </defs>
       <use xlink:href="#DejaVuSans-34"/>
      </g>
     </g>
    </g>
    <g id="xtick_4">
     <g id="line2d_7">
      <path d="M 317.4912 298.944 
L 317.4912 6.912 
" clip-path="url(#pc96dbb9e21)" style="fill: none; stroke: #b0b0b0; stroke-width: 0.8; stroke-linecap: square"/>
     </g>
     <g id="line2d_8">
      <g>
       <use xlink:href="#mf34a035bdf" x="317.4912" y="298.944" style="stroke: #000000; stroke-width: 0.8"/>
      </g>
     </g>
     <g id="text_4">
      <!-- 6 -->
      <g transform="translate(312.083075 318.861344) scale(0.17 -0.17)">
       <defs>
        <path id="DejaVuSans-36" d="M 2113 2584 
Q 1688 2584 1439 2293 
Q 1191 2003 1191 1497 
Q 1191 994 1439 701 
Q 1688 409 2113 409 
Q 2538 409 2786 701 
Q 3034 994 3034 1497 
Q 3034 2003 2786 2293 
Q 2538 2584 2113 2584 
z
M 3366 4563 
L 3366 3988 
Q 3128 4100 2886 4159 
Q 2644 4219 2406 4219 
Q 1781 4219 1451 3797 
Q 1122 3375 1075 2522 
Q 1259 2794 1537 2939 
Q 1816 3084 2150 3084 
Q 2853 3084 3261 2657 
Q 3669 2231 3669 1497 
Q 3669 778 3244 343 
Q 2819 -91 2113 -91 
Q 1303 -91 875 529 
Q 447 1150 447 2328 
Q 447 3434 972 4092 
Q 1497 4750 2381 4750 
Q 2619 4750 2861 4703 
Q 3103 4656 3366 4563 
z
" transform="scale(0.015625)"/>
       </defs>
       <use xlink:href="#DejaVuSans-36"/>
      </g>
     </g>
    </g>
    <g id="xtick_5">
     <g id="line2d_9">
      <path d="M 100.9152 298.944 
L 100.9152 6.912 
" clip-path="url(#pc96dbb9e21)" style="fill: none; stroke: #b0b0b0; stroke-width: 0.8; stroke-linecap: square"/>
     </g>
     <g id="line2d_10">
      <defs>
       <path id="ma8bb9c9bb2" d="M 0 0 
L 0 2 
" style="stroke: #000000; stroke-width: 0.6"/>
      </defs>
      <g>
       <use xlink:href="#ma8bb9c9bb2" x="100.9152" y="298.944" style="stroke: #000000; stroke-width: 0.6"/>
      </g>
     </g>
    </g>
    <g id="xtick_6">
     <g id="line2d_11">
      <path d="M 187.5456 298.944 
L 187.5456 6.912 
" clip-path="url(#pc96dbb9e21)" style="fill: none; stroke: #b0b0b0; stroke-width: 0.8; stroke-linecap: square"/>
     </g>
     <g id="line2d_12">
      <g>
       <use xlink:href="#ma8bb9c9bb2" x="187.5456" y="298.944" style="stroke: #000000; stroke-width: 0.6"/>
      </g>
     </g>
    </g>
    <g id="xtick_7">
     <g id="line2d_13">
      <path d="M 274.176 298.944 
L 274.176 6.912 
" clip-path="url(#pc96dbb9e21)" style="fill: none; stroke: #b0b0b0; stroke-width: 0.8; stroke-linecap: square"/>
     </g>
     <g id="line2d_14">
      <g>
       <use xlink:href="#ma8bb9c9bb2" x="274.176" y="298.944" style="stroke: #000000; stroke-width: 0.6"/>
      </g>
     </g>
    </g>
    <g id="xtick_8">
     <g id="line2d_15">
      <path d="M 360.8064 298.944 
L 360.8064 6.912 
" clip-path="url(#pc96dbb9e21)" style="fill: none; stroke: #b0b0b0; stroke-width: 0.8; stroke-linecap: square"/>
     </g>
     <g id="line2d_16">
      <g>
       <use xlink:href="#ma8bb9c9bb2" x="360.8064" y="298.944" style="stroke: #000000; stroke-width: 0.6"/>
      </g>
     </g>
    </g>
    <g id="text_5">
     <!-- log10(# f-evals / dimension) -->
     <g transform="translate(88.823278 339.314156) scale(0.17 -0.17)">
      <defs>
       <path id="DejaVuSans-6c" d="M 603 4863 
L 1178 4863 
L 1178 0 
L 603 0 
L 603 4863 
z
" transform="scale(0.015625)"/>
       <path id="DejaVuSans-6f" d="M 1959 3097 
Q 1497 3097 1228 2736 
Q 959 2375 959 1747 
Q 959 1119 1226 758 
Q 1494 397 1959 397 
Q 2419 397 2687 759 
Q 2956 1122 2956 1747 
Q 2956 2369 2687 2733 
Q 2419 3097 1959 3097 
z
M 1959 3584 
Q 2709 3584 3137 3096 
Q 3566 2609 3566 1747 
Q 3566 888 3137 398 
Q 2709 -91 1959 -91 
Q 1206 -91 779 398 
Q 353 888 353 1747 
Q 353 2609 779 3096 
Q 1206 3584 1959 3584 
z
" transform="scale(0.015625)"/>
       <path id="DejaVuSans-67" d="M 2906 1791 
Q 2906 2416 2648 2759 
Q 2391 3103 1925 3103 
Q 1463 3103 1205 2759 
Q 947 2416 947 1791 
Q 947 1169 1205 825 
Q 1463 481 1925 481 
Q 2391 481 2648 825 
Q 2906 1169 2906 1791 
z
M 3481 434 
Q 3481 -459 3084 -895 
Q 2688 -1331 1869 -1331 
Q 1566 -1331 1297 -1286 
Q 1028 -1241 775 -1147 
L 775 -588 
Q 1028 -725 1275 -790 
Q 1522 -856 1778 -856 
Q 2344 -856 2625 -561 
Q 2906 -266 2906 331 
L 2906 616 
Q 2728 306 2450 153 
Q 2172 0 1784 0 
Q 1141 0 747 490 
Q 353 981 353 1791 
Q 353 2603 747 3093 
Q 1141 3584 1784 3584 
Q 2172 3584 2450 3431 
Q 2728 3278 2906 2969 
L 2906 3500 
L 3481 3500 
L 3481 434 
z
" transform="scale(0.015625)"/>
       <path id="DejaVuSans-31" d="M 794 531 
L 1825 531 
L 1825 4091 
L 703 3866 
L 703 4441 
L 1819 4666 
L 2450 4666 
L 2450 531 
L 3481 531 
L 3481 0 
L 794 0 
L 794 531 
z
" transform="scale(0.015625)"/>
       <path id="DejaVuSans-28" d="M 1984 4856 
Q 1566 4138 1362 3434 
Q 1159 2731 1159 2009 
Q 1159 1288 1364 580 
Q 1569 -128 1984 -844 
L 1484 -844 
Q 1016 -109 783 600 
Q 550 1309 550 2009 
Q 550 2706 781 3412 
Q 1013 4119 1484 4856 
L 1984 4856 
z
" transform="scale(0.015625)"/>
       <path id="DejaVuSans-23" d="M 3272 2816 
L 2363 2816 
L 2100 1772 
L 3016 1772 
L 3272 2816 
z
M 2803 4594 
L 2478 3297 
L 3391 3297 
L 3719 4594 
L 4219 4594 
L 3897 3297 
L 4872 3297 
L 4872 2816 
L 3775 2816 
L 3519 1772 
L 4513 1772 
L 4513 1294 
L 3397 1294 
L 3072 0 
L 2572 0 
L 2894 1294 
L 1978 1294 
L 1656 0 
L 1153 0 
L 1478 1294 
L 494 1294 
L 494 1772 
L 1594 1772 
L 1856 2816 
L 850 2816 
L 850 3297 
L 1978 3297 
L 2297 4594 
L 2803 4594 
z
" transform="scale(0.015625)"/>
       <path id="DejaVuSans-20" transform="scale(0.015625)"/>
       <path id="DejaVuSans-66" d="M 2375 4863 
L 2375 4384 
L 1825 4384 
Q 1516 4384 1395 4259 
Q 1275 4134 1275 3809 
L 1275 3500 
L 2222 3500 
L 2222 3053 
L 1275 3053 
L 1275 0 
L 697 0 
L 697 3053 
L 147 3053 
L 147 3500 
L 697 3500 
L 697 3744 
Q 697 4328 969 4595 
Q 1241 4863 1831 4863 
L 2375 4863 
z
" transform="scale(0.015625)"/>
       <path id="DejaVuSans-2d" d="M 313 2009 
L 1997 2009 
L 1997 1497 
L 313 1497 
L 313 2009 
z
" transform="scale(0.015625)"/>
       <path id="DejaVuSans-65" d="M 3597 1894 
L 3597 1613 
L 953 1613 
Q 991 1019 1311 708 
Q 1631 397 2203 397 
Q 2534 397 2845 478 
Q 3156 559 3463 722 
L 3463 178 
Q 3153 47 2828 -22 
Q 2503 -91 2169 -91 
Q 1331 -91 842 396 
Q 353 884 353 1716 
Q 353 2575 817 3079 
Q 1281 3584 2069 3584 
Q 2775 3584 3186 3129 
Q 3597 2675 3597 1894 
z
M 3022 2063 
Q 3016 2534 2758 2815 
Q 2500 3097 2075 3097 
Q 1594 3097 1305 2825 
Q 1016 2553 972 2059 
L 3022 2063 
z
" transform="scale(0.015625)"/>
       <path id="DejaVuSans-76" d="M 191 3500 
L 800 3500 
L 1894 563 
L 2988 3500 
L 3597 3500 
L 2284 0 
L 1503 0 
L 191 3500 
z
" transform="scale(0.015625)"/>
       <path id="DejaVuSans-61" d="M 2194 1759 
Q 1497 1759 1228 1600 
Q 959 1441 959 1056 
Q 959 750 1161 570 
Q 1363 391 1709 391 
Q 2188 391 2477 730 
Q 2766 1069 2766 1631 
L 2766 1759 
L 2194 1759 
z
M 3341 1997 
L 3341 0 
L 2766 0 
L 2766 531 
Q 2569 213 2275 61 
Q 1981 -91 1556 -91 
Q 1019 -91 701 211 
Q 384 513 384 1019 
Q 384 1609 779 1909 
Q 1175 2209 1959 2209 
L 2766 2209 
L 2766 2266 
Q 2766 2663 2505 2880 
Q 2244 3097 1772 3097 
Q 1472 3097 1187 3025 
Q 903 2953 641 2809 
L 641 3341 
Q 956 3463 1253 3523 
Q 1550 3584 1831 3584 
Q 2591 3584 2966 3190 
Q 3341 2797 3341 1997 
z
" transform="scale(0.015625)"/>
       <path id="DejaVuSans-73" d="M 2834 3397 
L 2834 2853 
Q 2591 2978 2328 3040 
Q 2066 3103 1784 3103 
Q 1356 3103 1142 2972 
Q 928 2841 928 2578 
Q 928 2378 1081 2264 
Q 1234 2150 1697 2047 
L 1894 2003 
Q 2506 1872 2764 1633 
Q 3022 1394 3022 966 
Q 3022 478 2636 193 
Q 2250 -91 1575 -91 
Q 1294 -91 989 -36 
Q 684 19 347 128 
L 347 722 
Q 666 556 975 473 
Q 1284 391 1588 391 
Q 1994 391 2212 530 
Q 2431 669 2431 922 
Q 2431 1156 2273 1281 
Q 2116 1406 1581 1522 
L 1381 1569 
Q 847 1681 609 1914 
Q 372 2147 372 2553 
Q 372 3047 722 3315 
Q 1072 3584 1716 3584 
Q 2034 3584 2315 3537 
Q 2597 3491 2834 3397 
z
" transform="scale(0.015625)"/>
       <path id="DejaVuSans-2f" d="M 1625 4666 
L 2156 4666 
L 531 -594 
L 0 -594 
L 1625 4666 
z
" transform="scale(0.015625)"/>
       <path id="DejaVuSans-64" d="M 2906 2969 
L 2906 4863 
L 3481 4863 
L 3481 0 
L 2906 0 
L 2906 525 
Q 2725 213 2448 61 
Q 2172 -91 1784 -91 
Q 1150 -91 751 415 
Q 353 922 353 1747 
Q 353 2572 751 3078 
Q 1150 3584 1784 3584 
Q 2172 3584 2448 3432 
Q 2725 3281 2906 2969 
z
M 947 1747 
Q 947 1113 1208 752 
Q 1469 391 1925 391 
Q 2381 391 2643 752 
Q 2906 1113 2906 1747 
Q 2906 2381 2643 2742 
Q 2381 3103 1925 3103 
Q 1469 3103 1208 2742 
Q 947 2381 947 1747 
z
" transform="scale(0.015625)"/>
       <path id="DejaVuSans-69" d="M 603 3500 
L 1178 3500 
L 1178 0 
L 603 0 
L 603 3500 
z
M 603 4863 
L 1178 4863 
L 1178 4134 
L 603 4134 
L 603 4863 
z
" transform="scale(0.015625)"/>
       <path id="DejaVuSans-6d" d="M 3328 2828 
Q 3544 3216 3844 3400 
Q 4144 3584 4550 3584 
Q 5097 3584 5394 3201 
Q 5691 2819 5691 2113 
L 5691 0 
L 5113 0 
L 5113 2094 
Q 5113 2597 4934 2840 
Q 4756 3084 4391 3084 
Q 3944 3084 3684 2787 
Q 3425 2491 3425 1978 
L 3425 0 
L 2847 0 
L 2847 2094 
Q 2847 2600 2669 2842 
Q 2491 3084 2119 3084 
Q 1678 3084 1418 2786 
Q 1159 2488 1159 1978 
L 1159 0 
L 581 0 
L 581 3500 
L 1159 3500 
L 1159 2956 
Q 1356 3278 1631 3431 
Q 1906 3584 2284 3584 
Q 2666 3584 2933 3390 
Q 3200 3197 3328 2828 
z
" transform="scale(0.015625)"/>
       <path id="DejaVuSans-6e" d="M 3513 2113 
L 3513 0 
L 2938 0 
L 2938 2094 
Q 2938 2591 2744 2837 
Q 2550 3084 2163 3084 
Q 1697 3084 1428 2787 
Q 1159 2491 1159 1978 
L 1159 0 
L 581 0 
L 581 3500 
L 1159 3500 
L 1159 2956 
Q 1366 3272 1645 3428 
Q 1925 3584 2291 3584 
Q 2894 3584 3203 3211 
Q 3513 2838 3513 2113 
z
" transform="scale(0.015625)"/>
       <path id="DejaVuSans-29" d="M 513 4856 
L 1013 4856 
Q 1481 4119 1714 3412 
Q 1947 2706 1947 2009 
Q 1947 1309 1714 600 
Q 1481 -109 1013 -844 
L 513 -844 
Q 928 -128 1133 580 
Q 1338 1288 1338 2009 
Q 1338 2731 1133 3434 
Q 928 4138 513 4856 
z
" transform="scale(0.015625)"/>
      </defs>
      <use xlink:href="#DejaVuSans-6c"/>
      <use xlink:href="#DejaVuSans-6f" x="27.783203"/>
      <use xlink:href="#DejaVuSans-67" x="88.964844"/>
      <use xlink:href="#DejaVuSans-31" x="152.441406"/>
      <use xlink:href="#DejaVuSans-30" x="216.064453"/>
      <use xlink:href="#DejaVuSans-28" x="279.6875"/>
      <use xlink:href="#DejaVuSans-23" x="318.701172"/>
      <use xlink:href="#DejaVuSans-20" x="402.490234"/>
      <use xlink:href="#DejaVuSans-66" x="434.277344"/>
      <use xlink:href="#DejaVuSans-2d" x="463.982422"/>
      <use xlink:href="#DejaVuSans-65" x="500.066406"/>
      <use xlink:href="#DejaVuSans-76" x="561.589844"/>
      <use xlink:href="#DejaVuSans-61" x="620.769531"/>
      <use xlink:href="#DejaVuSans-6c" x="682.048828"/>
      <use xlink:href="#DejaVuSans-73" x="709.832031"/>
      <use xlink:href="#DejaVuSans-20" x="761.931641"/>
      <use xlink:href="#DejaVuSans-2f" x="793.71875"/>
      <use xlink:href="#DejaVuSans-20" x="827.410156"/>
      <use xlink:href="#DejaVuSans-64" x="859.197266"/>
      <use xlink:href="#DejaVuSans-69" x="922.673828"/>
      <use xlink:href="#DejaVuSans-6d" x="950.457031"/>
      <use xlink:href="#DejaVuSans-65" x="1047.869141"/>
      <use xlink:href="#DejaVuSans-6e" x="1109.392578"/>
      <use xlink:href="#DejaVuSans-73" x="1172.771484"/>
      <use xlink:href="#DejaVuSans-69" x="1224.871094"/>
      <use xlink:href="#DejaVuSans-6f" x="1252.654297"/>
      <use xlink:href="#DejaVuSans-6e" x="1313.835938"/>
      <use xlink:href="#DejaVuSans-29" x="1377.214844"/>
     </g>
    </g>
   </g>
   <g id="matplotlib.axis_2">
    <g id="ytick_1">
     <g id="line2d_17">
      <path d="M 57.6 298.944 
L 360.8064 298.944 
" clip-path="url(#pc96dbb9e21)" style="fill: none; stroke: #b0b0b0; stroke-width: 0.8; stroke-linecap: square"/>
     </g>
     <g id="line2d_18">
      <defs>
       <path id="m3970d00dec" d="M 0 0 
L -3.5 0 
" style="stroke: #000000; stroke-width: 0.8"/>
      </defs>
      <g>
       <use xlink:href="#m3970d00dec" x="57.6" y="298.944" style="stroke: #000000; stroke-width: 0.8"/>
      </g>
     </g>
     <g id="text_6">
      <!-- 0.0 -->
      <g transform="translate(25.155 305.02275) scale(0.16 -0.16)">
       <defs>
        <path id="DejaVuSans-2e" d="M 684 794 
L 1344 794 
L 1344 0 
L 684 0 
L 684 794 
z
" transform="scale(0.015625)"/>
       </defs>
       <use xlink:href="#DejaVuSans-30"/>
       <use xlink:href="#DejaVuSans-2e" x="63.623047"/>
       <use xlink:href="#DejaVuSans-30" x="95.410156"/>
      </g>
     </g>
    </g>
    <g id="ytick_2">
     <g id="line2d_19">
      <path d="M 57.6 240.5376 
L 360.8064 240.5376 
" clip-path="url(#pc96dbb9e21)" style="fill: none; stroke: #b0b0b0; stroke-width: 0.8; stroke-linecap: square"/>
     </g>
     <g id="line2d_20">
      <g>
       <use xlink:href="#m3970d00dec" x="57.6" y="240.5376" style="stroke: #000000; stroke-width: 0.8"/>
      </g>
     </g>
     <g id="text_7">
      <!-- 0.2 -->
      <g transform="translate(25.155 246.61635) scale(0.16 -0.16)">
       <use xlink:href="#DejaVuSans-30"/>
       <use xlink:href="#DejaVuSans-2e" x="63.623047"/>
       <use xlink:href="#DejaVuSans-32" x="95.410156"/>
      </g>
     </g>
    </g>
    <g id="ytick_3">
     <g id="line2d_21">
      <path d="M 57.6 182.1312 
L 360.8064 182.1312 
" clip-path="url(#pc96dbb9e21)" style="fill: none; stroke: #b0b0b0; stroke-width: 0.8; stroke-linecap: square"/>
     </g>
     <g id="line2d_22">
      <g>
       <use xlink:href="#m3970d00dec" x="57.6" y="182.1312" style="stroke: #000000; stroke-width: 0.8"/>
      </g>
     </g>
     <g id="text_8">
      <!-- 0.4 -->
      <g transform="translate(25.155 188.20995) scale(0.16 -0.16)">
       <use xlink:href="#DejaVuSans-30"/>
       <use xlink:href="#DejaVuSans-2e" x="63.623047"/>
       <use xlink:href="#DejaVuSans-34" x="95.410156"/>
      </g>
     </g>
    </g>
    <g id="ytick_4">
     <g id="line2d_23">
      <path d="M 57.6 123.7248 
L 360.8064 123.7248 
" clip-path="url(#pc96dbb9e21)" style="fill: none; stroke: #b0b0b0; stroke-width: 0.8; stroke-linecap: square"/>
     </g>
     <g id="line2d_24">
      <g>
       <use xlink:href="#m3970d00dec" x="57.6" y="123.7248" style="stroke: #000000; stroke-width: 0.8"/>
      </g>
     </g>
     <g id="text_9">
      <!-- 0.6 -->
      <g transform="translate(25.155 129.80355) scale(0.16 -0.16)">
       <use xlink:href="#DejaVuSans-30"/>
       <use xlink:href="#DejaVuSans-2e" x="63.623047"/>
       <use xlink:href="#DejaVuSans-36" x="95.410156"/>
      </g>
     </g>
    </g>
    <g id="ytick_5">
     <g id="line2d_25">
      <path d="M 57.6 65.3184 
L 360.8064 65.3184 
" clip-path="url(#pc96dbb9e21)" style="fill: none; stroke: #b0b0b0; stroke-width: 0.8; stroke-linecap: square"/>
     </g>
     <g id="line2d_26">
      <g>
       <use xlink:href="#m3970d00dec" x="57.6" y="65.3184" style="stroke: #000000; stroke-width: 0.8"/>
      </g>
     </g>
     <g id="text_10">
      <!-- 0.8 -->
      <g transform="translate(25.155 71.39715) scale(0.16 -0.16)">
       <defs>
        <path id="DejaVuSans-38" d="M 2034 2216 
Q 1584 2216 1326 1975 
Q 1069 1734 1069 1313 
Q 1069 891 1326 650 
Q 1584 409 2034 409 
Q 2484 409 2743 651 
Q 3003 894 3003 1313 
Q 3003 1734 2745 1975 
Q 2488 2216 2034 2216 
z
M 1403 2484 
Q 997 2584 770 2862 
Q 544 3141 544 3541 
Q 544 4100 942 4425 
Q 1341 4750 2034 4750 
Q 2731 4750 3128 4425 
Q 3525 4100 3525 3541 
Q 3525 3141 3298 2862 
Q 3072 2584 2669 2484 
Q 3125 2378 3379 2068 
Q 3634 1759 3634 1313 
Q 3634 634 3220 271 
Q 2806 -91 2034 -91 
Q 1263 -91 848 271 
Q 434 634 434 1313 
Q 434 1759 690 2068 
Q 947 2378 1403 2484 
z
M 1172 3481 
Q 1172 3119 1398 2916 
Q 1625 2713 2034 2713 
Q 2441 2713 2670 2916 
Q 2900 3119 2900 3481 
Q 2900 3844 2670 4047 
Q 2441 4250 2034 4250 
Q 1625 4250 1398 4047 
Q 1172 3844 1172 3481 
z
" transform="scale(0.015625)"/>
       </defs>
       <use xlink:href="#DejaVuSans-30"/>
       <use xlink:href="#DejaVuSans-2e" x="63.623047"/>
       <use xlink:href="#DejaVuSans-38" x="95.410156"/>
      </g>
     </g>
    </g>
    <g id="ytick_6">
     <g id="line2d_27">
      <path d="M 57.6 6.912 
L 360.8064 6.912 
" clip-path="url(#pc96dbb9e21)" style="fill: none; stroke: #b0b0b0; stroke-width: 0.8; stroke-linecap: square"/>
     </g>
     <g id="line2d_28">
      <g>
       <use xlink:href="#m3970d00dec" x="57.6" y="6.912" style="stroke: #000000; stroke-width: 0.8"/>
      </g>
     </g>
     <g id="text_11">
      <!-- 1.0 -->
      <g transform="translate(25.155 12.99075) scale(0.16 -0.16)">
       <use xlink:href="#DejaVuSans-31"/>
       <use xlink:href="#DejaVuSans-2e" x="63.623047"/>
       <use xlink:href="#DejaVuSans-30" x="95.410156"/>
      </g>
     </g>
    </g>
    <g id="text_12">
     <!-- Fraction of function,target pairs -->
     <g transform="translate(17.619531 287.313) rotate(-90) scale(0.17 -0.17)">
      <defs>
       <path id="DejaVuSans-46" d="M 628 4666 
L 3309 4666 
L 3309 4134 
L 1259 4134 
L 1259 2759 
L 3109 2759 
L 3109 2228 
L 1259 2228 
L 1259 0 
L 628 0 
L 628 4666 
z
" transform="scale(0.015625)"/>
       <path id="DejaVuSans-72" d="M 2631 2963 
Q 2534 3019 2420 3045 
Q 2306 3072 2169 3072 
Q 1681 3072 1420 2755 
Q 1159 2438 1159 1844 
L 1159 0 
L 581 0 
L 581 3500 
L 1159 3500 
L 1159 2956 
Q 1341 3275 1631 3429 
Q 1922 3584 2338 3584 
Q 2397 3584 2469 3576 
Q 2541 3569 2628 3553 
L 2631 2963 
z
" transform="scale(0.015625)"/>
       <path id="DejaVuSans-63" d="M 3122 3366 
L 3122 2828 
Q 2878 2963 2633 3030 
Q 2388 3097 2138 3097 
Q 1578 3097 1268 2742 
Q 959 2388 959 1747 
Q 959 1106 1268 751 
Q 1578 397 2138 397 
Q 2388 397 2633 464 
Q 2878 531 3122 666 
L 3122 134 
Q 2881 22 2623 -34 
Q 2366 -91 2075 -91 
Q 1284 -91 818 406 
Q 353 903 353 1747 
Q 353 2603 823 3093 
Q 1294 3584 2113 3584 
Q 2378 3584 2631 3529 
Q 2884 3475 3122 3366 
z
" transform="scale(0.015625)"/>
       <path id="DejaVuSans-74" d="M 1172 4494 
L 1172 3500 
L 2356 3500 
L 2356 3053 
L 1172 3053 
L 1172 1153 
Q 1172 725 1289 603 
Q 1406 481 1766 481 
L 2356 481 
L 2356 0 
L 1766 0 
Q 1100 0 847 248 
Q 594 497 594 1153 
L 594 3053 
L 172 3053 
L 172 3500 
L 594 3500 
L 594 4494 
L 1172 4494 
z
" transform="scale(0.015625)"/>
       <path id="DejaVuSans-75" d="M 544 1381 
L 544 3500 
L 1119 3500 
L 1119 1403 
Q 1119 906 1312 657 
Q 1506 409 1894 409 
Q 2359 409 2629 706 
Q 2900 1003 2900 1516 
L 2900 3500 
L 3475 3500 
L 3475 0 
L 2900 0 
L 2900 538 
Q 2691 219 2414 64 
Q 2138 -91 1772 -91 
Q 1169 -91 856 284 
Q 544 659 544 1381 
z
M 1991 3584 
L 1991 3584 
z
" transform="scale(0.015625)"/>
       <path id="DejaVuSans-2c" d="M 750 794 
L 1409 794 
L 1409 256 
L 897 -744 
L 494 -744 
L 750 256 
L 750 794 
z
" transform="scale(0.015625)"/>
       <path id="DejaVuSans-70" d="M 1159 525 
L 1159 -1331 
L 581 -1331 
L 581 3500 
L 1159 3500 
L 1159 2969 
Q 1341 3281 1617 3432 
Q 1894 3584 2278 3584 
Q 2916 3584 3314 3078 
Q 3713 2572 3713 1747 
Q 3713 922 3314 415 
Q 2916 -91 2278 -91 
Q 1894 -91 1617 61 
Q 1341 213 1159 525 
z
M 3116 1747 
Q 3116 2381 2855 2742 
Q 2594 3103 2138 3103 
Q 1681 3103 1420 2742 
Q 1159 2381 1159 1747 
Q 1159 1113 1420 752 
Q 1681 391 2138 391 
Q 2594 391 2855 752 
Q 3116 1113 3116 1747 
z
" transform="scale(0.015625)"/>
      </defs>
      <use xlink:href="#DejaVuSans-46"/>
      <use xlink:href="#DejaVuSans-72" x="50.269531"/>
      <use xlink:href="#DejaVuSans-61" x="91.382812"/>
      <use xlink:href="#DejaVuSans-63" x="152.662109"/>
      <use xlink:href="#DejaVuSans-74" x="207.642578"/>
      <use xlink:href="#DejaVuSans-69" x="246.851562"/>
      <use xlink:href="#DejaVuSans-6f" x="274.634766"/>
      <use xlink:href="#DejaVuSans-6e" x="335.816406"/>
      <use xlink:href="#DejaVuSans-20" x="399.195312"/>
      <use xlink:href="#DejaVuSans-6f" x="430.982422"/>
      <use xlink:href="#DejaVuSans-66" x="492.164062"/>
      <use xlink:href="#DejaVuSans-20" x="527.369141"/>
      <use xlink:href="#DejaVuSans-66" x="559.15625"/>
      <use xlink:href="#DejaVuSans-75" x="594.361328"/>
      <use xlink:href="#DejaVuSans-6e" x="657.740234"/>
      <use xlink:href="#DejaVuSans-63" x="721.119141"/>
      <use xlink:href="#DejaVuSans-74" x="776.099609"/>
      <use xlink:href="#DejaVuSans-69" x="815.308594"/>
      <use xlink:href="#DejaVuSans-6f" x="843.091797"/>
      <use xlink:href="#DejaVuSans-6e" x="904.273438"/>
      <use xlink:href="#DejaVuSans-2c" x="967.652344"/>
      <use xlink:href="#DejaVuSans-74" x="999.439453"/>
      <use xlink:href="#DejaVuSans-61" x="1038.648438"/>
      <use xlink:href="#DejaVuSans-72" x="1099.927734"/>
      <use xlink:href="#DejaVuSans-67" x="1139.291016"/>
      <use xlink:href="#DejaVuSans-65" x="1202.767578"/>
      <use xlink:href="#DejaVuSans-74" x="1264.291016"/>
      <use xlink:href="#DejaVuSans-20" x="1303.5"/>
      <use xlink:href="#DejaVuSans-70" x="1335.287109"/>
      <use xlink:href="#DejaVuSans-61" x="1398.763672"/>
      <use xlink:href="#DejaVuSans-69" x="1460.042969"/>
      <use xlink:href="#DejaVuSans-72" x="1487.826172"/>
      <use xlink:href="#DejaVuSans-73" x="1528.939453"/>
     </g>
    </g>
   </g>
   <g id="line2d_29">
    <defs>
     <path id="mf188a3203b" d="M 0 1.5 
C 0.397805 1.5 0.77937 1.341951 1.06066 1.06066 
C 1.341951 0.77937 1.5 0.397805 1.5 0 
C 1.5 -0.397805 1.341951 -0.77937 1.06066 -1.06066 
C 0.77937 -1.341951 0.397805 -1.5 0 -1.5 
C -0.397805 -1.5 -0.77937 -1.341951 -1.06066 -1.06066 
C -1.341951 -0.77937 -1.5 -0.397805 -1.5 0 
C -1.5 0.397805 -1.341951 0.77937 -1.06066 1.06066 
C -0.77937 1.341951 -0.397805 1.5 0 1.5 
z
" style="stroke: #000080"/>
    </defs>
    <g>
     <use xlink:href="#mf188a3203b" x="185.805892" y="167.5296" style="fill: #000080; stroke: #000080"/>
     <use xlink:href="#mf188a3203b" x="185.805892" y="167.5296" style="fill: #000080; stroke: #000080"/>
    </g>
   </g>
   <g id="line2d_30">
    <path d="M 36.933397 298.944 
L 36.933397 296.426483 
L 49.972572 296.426483 
L 49.972572 295.419476 
L 76.050921 295.419476 
L 76.050921 282.328386 
L 86.578163 282.328386 
L 86.578163 281.321379 
L 89.090095 281.321379 
L 89.090095 277.293352 
L 95.080704 277.293352 
L 95.080704 274.775834 
L 96.717523 274.775834 
L 96.717523 272.258317 
L 98.223251 272.258317 
L 98.223251 271.754814 
L 103.269713 271.754814 
L 103.269713 271.25131 
L 104.344952 271.25131 
L 104.344952 270.747807 
L 108.956085 270.747807 
L 108.956085 270.244303 
L 109.756698 270.244303 
L 109.756698 269.237297 
L 116.854188 269.237297 
L 116.854188 268.733793 
L 118.889854 268.733793 
L 118.889854 267.223283 
L 120.28394 267.223283 
L 120.28394 264.202262 
L 121.99526 264.202262 
L 121.99526 263.195255 
L 122.795872 263.195255 
L 122.795872 262.188248 
L 123.563797 262.188248 
L 123.563797 261.684745 
L 124.3016 261.684745 
L 124.3016 259.670731 
L 124.659926 259.670731 
L 124.659926 259.167228 
L 125.184934 259.167228 
L 125.184934 258.663724 
L 126.028642 258.663724 
L 126.028642 258.160221 
L 126.677381 258.160221 
L 126.677381 257.656717 
L 127.304491 257.656717 
L 127.304491 254.635697 
L 128.499277 254.635697 
L 128.499277 253.125186 
L 130.160198 253.125186 
L 130.160198 252.118179 
L 130.292209 252.118179 
L 130.292209 251.111172 
L 130.553485 251.111172 
L 130.553485 250.607669 
L 130.682774 250.607669 
L 130.682774 250.104166 
L 131.808053 250.104166 
L 131.808053 248.090152 
L 132.287354 248.090152 
L 132.287354 245.069131 
L 132.522502 245.069131 
L 132.522502 244.565628 
L 133.765759 244.565628 
L 133.874812 243.055117 
L 135.034434 243.055117 
L 135.034434 242.04811 
L 136.222928 242.04811 
L 136.222928 241.041103 
L 137.430998 241.041103 
L 137.430998 240.5376 
L 137.963436 240.5376 
L 138.050729 237.516579 
L 138.310202 237.516579 
L 138.310202 236.006069 
L 138.566146 236.006069 
L 138.566146 235.502566 
L 140.649551 235.502566 
L 140.649551 234.999062 
L 143.592659 234.999062 
L 143.592659 234.495559 
L 144.041338 234.495559 
L 144.041338 233.488552 
L 144.541342 233.488552 
L 144.541342 232.481545 
L 145.26728 232.481545 
L 145.26728 231.474538 
L 145.561676 231.474538 
L 145.561676 230.467531 
L 146.080251 230.467531 
L 146.080251 229.460524 
L 146.24998 229.460524 
L 146.24998 228.453517 
L 147.290768 228.453517 
L 147.290768 227.44651 
L 147.971093 227.44651 
L 147.971093 226.943007 
L 148.175569 226.943007 
L 148.175569 226.439503 
L 148.825169 226.439503 
L 148.825169 225.432497 
L 149.40552 225.432497 
L 149.40552 224.928993 
L 149.782707 224.928993 
L 149.782707 223.921986 
L 150.060715 223.921986 
L 150.060715 223.418483 
L 150.243797 223.418483 
L 150.243797 222.914979 
L 150.515122 222.914979 
L 150.515122 221.404469 
L 150.78259 221.404469 
L 150.78259 220.900966 
L 150.914911 220.900966 
L 150.914911 219.893959 
L 151.133398 219.893959 
L 151.133398 218.886952 
L 151.562904 218.886952 
L 151.562904 217.879945 
L 151.815978 217.879945 
L 151.815978 216.872938 
L 152.953957 216.872938 
L 152.953957 216.369434 
L 153.111048 216.369434 
L 153.189104 214.858924 
L 154.829169 214.858924 
L 154.829169 213.851917 
L 154.971412 213.851917 
L 154.971412 213.348414 
L 155.769072 213.348414 
L 155.769072 212.84491 
L 157.112155 212.84491 
L 157.143744 211.3344 
L 157.61133 211.3344 
L 157.61133 210.327393 
L 157.886402 210.327393 
L 157.916719 208.816883 
L 158.833095 208.816883 
L 158.833095 208.313379 
L 159.706897 208.313379 
L 159.706897 207.809876 
L 161.163832 207.809876 
L 161.163832 207.306372 
L 161.790524 207.306372 
L 161.790524 206.802869 
L 162.05979 206.802869 
L 162.05979 206.299366 
L 162.868502 206.299366 
L 162.891769 205.292359 
L 163.621521 205.292359 
L 163.621521 204.285352 
L 165.187374 204.285352 
L 165.187374 203.278345 
L 166.518139 203.278345 
L 166.518139 202.774841 
L 166.841337 202.774841 
L 166.841337 201.767834 
L 167.269949 201.767834 
L 167.269949 201.264331 
L 167.471536 201.264331 
L 167.471536 200.760828 
L 167.886182 200.760828 
L 167.886182 199.753821 
L 168.221954 199.753821 
L 168.274427 198.746814 
L 168.977264 198.746814 
L 168.977264 197.739807 
L 169.409732 197.739807 
L 169.409732 197.236303 
L 169.524487 197.236303 
L 169.524487 196.7328 
L 170.135514 196.7328 
L 170.135514 195.725793 
L 170.308749 195.725793 
L 170.308749 195.22229 
L 170.773255 195.22229 
L 170.773255 194.215283 
L 171.315934 194.215283 
L 171.315934 193.208276 
L 171.434432 193.208276 
L 171.434432 192.704772 
L 171.929885 192.704772 
L 171.929885 192.201269 
L 172.229507 192.201269 
L 172.229507 191.697766 
L 172.663262 191.697766 
L 172.663262 190.690759 
L 172.801076 190.690759 
L 172.801076 190.187255 
L 173.84272 190.187255 
L 173.84272 189.683752 
L 174.304691 189.683752 
L 174.330027 188.173241 
L 175.171736 188.173241 
L 175.171736 187.166234 
L 175.460042 187.166234 
L 175.495771 186.159228 
L 175.814319 186.159228 
L 175.814319 185.655724 
L 175.930944 185.655724 
L 175.988986 183.64171 
L 176.162047 183.64171 
L 176.162047 183.138207 
L 177.265975 183.138207 
L 177.298436 181.124193 
L 177.43846 181.124193 
L 177.43846 180.62069 
L 177.630634 180.62069 
L 177.630634 180.117186 
L 177.757668 180.117186 
L 177.757668 179.613683 
L 177.873367 179.613683 
L 177.873367 179.110179 
L 178.267667 179.110179 
L 178.267667 178.606676 
L 179.071702 178.606676 
L 179.071702 178.103172 
L 179.277187 178.103172 
L 179.277187 177.096166 
L 180.6107 177.096166 
L 180.719176 176.089159 
L 181.076312 176.089159 
L 181.076312 175.585655 
L 181.339783 175.585655 
L 181.339783 175.082152 
L 181.608215 175.082152 
L 181.608215 174.578648 
L 181.90675 174.578648 
L 181.90675 173.571641 
L 182.588161 173.571641 
L 182.637065 172.061131 
L 182.967879 172.061131 
L 182.967879 171.557628 
L 183.103358 171.557628 
L 183.190504 170.550621 
L 183.519577 170.550621 
L 183.519577 169.543614 
L 183.743481 169.543614 
L 183.743481 169.04011 
L 184.606031 169.04011 
L 184.606031 168.536607 
L 185.805892 168.536607 
L 185.805892 167.5296 
L 360.8064 167.5296 
L 360.8064 167.5296 
" style="fill: none; stroke: #000080; stroke-width: 1.5; stroke-linecap: square"/>
   </g>
   <g id="line2d_31">
    <defs>
     <path id="m8c2f464313" d="M 0 6 
C 1.591219 6 3.117479 5.367802 4.242641 4.242641 
C 5.367802 3.117479 6 1.591219 6 0 
C 6 -1.591219 5.367802 -3.117479 4.242641 -4.242641 
C 3.117479 -5.367802 1.591219 -6 0 -6 
C -1.591219 -6 -3.117479 -5.367802 -4.242641 -4.242641 
C -5.367802 -3.117479 -6 -1.591219 -6 0 
C -6 1.591219 -5.367802 3.117479 -4.242641 4.242641 
C -3.117479 5.367802 -1.591219 6 0 6 
z
" style="stroke: #000080; stroke-width: 1.5"/>
    </defs>
    <g>
     <use xlink:href="#m8c2f464313" x="130.160198" y="253.125186" style="fill-opacity: 0; stroke: #000080; stroke-width: 1.5"/>
     <use xlink:href="#m8c2f464313" x="169.409732" y="197.236303" style="fill-opacity: 0; stroke: #000080; stroke-width: 1.5"/>
     <use xlink:href="#m8c2f464313" x="185.805892" y="168.536607" style="fill-opacity: 0; stroke: #000080; stroke-width: 1.5"/>
     <use xlink:href="#m8c2f464313" x="185.805892" y="167.5296" style="fill-opacity: 0; stroke: #000080; stroke-width: 1.5"/>
     <use xlink:href="#m8c2f464313" x="185.805892" y="167.5296" style="fill-opacity: 0; stroke: #000080; stroke-width: 1.5"/>
     <use xlink:href="#m8c2f464313" x="360.8064" y="167.5296" style="fill-opacity: 0; stroke: #000080; stroke-width: 1.5"/>
    </g>
   </g>
   <g id="line2d_32">
    <path style="fill: none; stroke: #000080; stroke-width: 1.5; stroke-linecap: square"/>
    <g/>
   </g>
   <g id="line2d_33">
    <path d="M 187.507939 167.5296 
" clip-path="url(#pc96dbb9e21)" style="fill: none; stroke: #000080; stroke-width: 1.5; stroke-linecap: square"/>
    <defs>
     <path id="m4475b8f88a" d="M -12 12 
L 12 -12 
M -12 -12 
L 12 12 
" style="stroke: #000080"/>
    </defs>
    <g clip-path="url(#pc96dbb9e21)">
     <use xlink:href="#m4475b8f88a" x="187.507939" y="167.5296" style="fill: #000080; stroke: #000080"/>
    </g>
   </g>
   <g id="line2d_34">
    <defs>
     <path id="m4d82185953" d="M 0 1.5 
C 0.397805 1.5 0.77937 1.341951 1.06066 1.06066 
C 1.341951 0.77937 1.5 0.397805 1.5 0 
C 1.5 -0.397805 1.341951 -0.77937 1.06066 -1.06066 
C 0.77937 -1.341951 0.397805 -1.5 0 -1.5 
C -0.397805 -1.5 -0.77937 -1.341951 -1.06066 -1.06066 
C -1.341951 -0.77937 -1.5 -0.397805 -1.5 0 
C -1.5 0.397805 -1.341951 0.77937 -1.06066 1.06066 
C -0.77937 1.341951 -0.397805 1.5 0 1.5 
z
" style="stroke: #ff00ff"/>
    </defs>
    <g>
     <use xlink:href="#m4d82185953" x="182.24223" y="188.173241" style="fill: #ff00ff; stroke: #ff00ff"/>
     <use xlink:href="#m4d82185953" x="182.24223" y="188.173241" style="fill: #ff00ff; stroke: #ff00ff"/>
    </g>
   </g>
   <g id="line2d_35">
    <path d="M 36.933397 298.944 
L 36.933397 296.929986 
L 49.972572 296.929986 
L 49.972572 294.915972 
L 76.050921 294.915972 
L 76.050921 294.412469 
L 86.578163 294.412469 
L 86.578163 289.880938 
L 93.287772 289.880938 
L 93.287772 285.349407 
L 95.080704 285.349407 
L 95.080704 284.845903 
L 98.223251 284.845903 
L 98.223251 278.300359 
L 99.617337 278.300359 
L 99.617337 277.796855 
L 100.9152 277.796855 
L 100.9152 276.286345 
L 103.269713 276.286345 
L 103.269713 275.279338 
L 111.262425 275.279338 
L 111.262425 274.272331 
L 113.316634 274.272331 
L 113.316634 272.761821 
L 114.571202 272.761821 
L 114.571202 271.754814 
L 116.308887 271.754814 
L 116.308887 271.25131 
L 117.899543 271.25131 
L 117.899543 269.7408 
L 118.401214 269.7408 
L 118.401214 269.237297 
L 119.830627 269.237297 
L 119.830627 268.23029 
L 121.99526 268.23029 
L 121.99526 267.223283 
L 122.399825 267.223283 
L 122.399825 266.216276 
L 125.011554 266.216276 
L 125.011554 263.195255 
L 126.028642 263.195255 
L 126.028642 262.691752 
L 127.304491 262.691752 
L 127.304491 260.677738 
L 127.610376 260.677738 
L 127.610376 260.174234 
L 129.069367 260.174234 
L 129.069367 259.670731 
L 129.348062 259.670731 
L 129.348062 259.167228 
L 130.292209 259.167228 
L 130.292209 258.663724 
L 130.4233 258.663724 
L 130.4233 256.146207 
L 130.682774 256.146207 
L 130.682774 255.642703 
L 131.440389 255.642703 
L 131.440389 255.1392 
L 132.168669 255.1392 
L 132.168669 254.635697 
L 135.136394 254.635697 
L 135.136394 253.125186 
L 135.438999 253.125186 
L 135.438999 252.118179 
L 136.413909 252.118179 
L 136.413909 250.607669 
L 138.481218 250.607669 
L 138.481218 249.600662 
L 141.173167 249.600662 
L 141.173167 249.097159 
L 142.248405 249.097159 
L 142.248405 248.593655 
L 142.525051 248.593655 
L 142.525051 248.090152 
L 143.133017 248.090152 
L 143.133017 247.586648 
L 144.907812 247.586648 
L 144.907812 245.572634 
L 145.561676 245.572634 
L 145.561676 244.062124 
L 146.859539 244.062124 
L 146.859539 242.551614 
L 149.165879 242.551614 
L 149.165879 241.544607 
L 149.595059 241.544607 
L 149.595059 241.041103 
L 150.870907 241.041103 
L 150.958812 237.516579 
L 151.520392 237.516579 
L 151.520392 237.013076 
L 151.774035 237.013076 
L 151.774035 236.006069 
L 151.982822 236.006069 
L 151.982822 235.502566 
L 152.312136 235.502566 
L 152.312136 234.495559 
L 152.874916 234.495559 
L 152.874916 233.488552 
L 153.877408 233.488552 
L 153.877408 232.985048 
L 154.39587 232.985048 
L 154.432362 229.964028 
L 157.300901 229.964028 
L 157.300901 229.460524 
L 157.795157 229.460524 
L 157.795157 228.957021 
L 158.775302 228.957021 
L 158.775302 227.44651 
L 159.429436 227.44651 
L 159.429436 226.439503 
L 159.898714 226.439503 
L 159.898714 224.928993 
L 160.329943 224.928993 
L 160.436223 220.397462 
L 160.82951 220.397462 
L 160.82951 219.893959 
L 161.765853 219.893959 
L 161.765853 219.390455 
L 163.373849 219.390455 
L 163.464289 217.376441 
L 165.146166 217.376441 
L 165.207944 216.369434 
L 165.371702 216.369434 
L 165.371702 215.865931 
L 166.032527 215.865931 
L 166.032527 214.858924 
L 166.860176 214.858924 
L 166.860176 213.851917 
L 168.169334 213.851917 
L 168.169334 213.348414 
L 168.326754 213.348414 
L 168.326754 212.84491 
L 168.482867 212.84491 
L 168.482867 211.837903 
L 168.994082 211.837903 
L 168.994082 210.830897 
L 169.327334 210.830897 
L 169.327334 209.82389 
L 169.735764 209.82389 
L 169.735764 208.816883 
L 170.757955 208.816883 
L 170.819081 206.299366 
L 170.971033 206.299366 
L 170.971033 205.292359 
L 171.929885 205.292359 
L 171.929885 203.781848 
L 172.342405 203.781848 
L 172.342405 202.774841 
L 172.910605 202.774841 
L 172.910605 202.271338 
L 174.594009 202.271338 
L 174.594009 201.767834 
L 174.805028 201.767834 
L 174.903518 200.257324 
L 175.013706 200.257324 
L 175.013706 198.746814 
L 175.930944 198.746814 
L 175.930944 197.739807 
L 177.004244 197.739807 
L 177.004244 197.236303 
L 177.146467 197.236303 
L 177.146467 196.229297 
L 177.492039 196.229297 
L 177.492039 195.725793 
L 177.620009 195.725793 
L 177.694258 194.215283 
L 178.764203 194.215283 
L 178.764203 193.711779 
L 178.893767 193.711779 
L 178.893767 193.208276 
L 179.071702 193.208276 
L 179.111015 192.201269 
L 179.393608 192.201269 
L 179.393608 191.194262 
L 180.188981 191.194262 
L 180.188981 190.690759 
L 180.364317 190.690759 
L 180.364317 189.683752 
L 181.243605 189.683752 
L 181.243605 189.180248 
L 182.24223 189.180248 
L 182.24223 188.173241 
L 360.8064 188.173241 
L 360.8064 188.173241 
" style="fill: none; stroke: #ff00ff; stroke-width: 1.5; stroke-linecap: square"/>
   </g>
   <g id="line2d_36">
    <defs>
     <path id="m1f79414861" d="M -0 8.485281 
L 5.091169 0 
L 0 -8.485281 
L -5.091169 -0 
z
" style="stroke: #ff00ff; stroke-width: 1.5; stroke-linejoin: miter"/>
    </defs>
    <g>
     <use xlink:href="#m1f79414861" x="138.481218" y="250.607669" style="fill-opacity: 0; stroke: #ff00ff; stroke-width: 1.5; stroke-linejoin: miter"/>
     <use xlink:href="#m1f79414861" x="182.24223" y="189.180248" style="fill-opacity: 0; stroke: #ff00ff; stroke-width: 1.5; stroke-linejoin: miter"/>
     <use xlink:href="#m1f79414861" x="182.24223" y="189.180248" style="fill-opacity: 0; stroke: #ff00ff; stroke-width: 1.5; stroke-linejoin: miter"/>
     <use xlink:href="#m1f79414861" x="182.24223" y="188.173241" style="fill-opacity: 0; stroke: #ff00ff; stroke-width: 1.5; stroke-linejoin: miter"/>
     <use xlink:href="#m1f79414861" x="182.24223" y="188.173241" style="fill-opacity: 0; stroke: #ff00ff; stroke-width: 1.5; stroke-linejoin: miter"/>
     <use xlink:href="#m1f79414861" x="360.8064" y="188.173241" style="fill-opacity: 0; stroke: #ff00ff; stroke-width: 1.5; stroke-linejoin: miter"/>
    </g>
   </g>
   <g id="line2d_37">
    <path style="fill: none; stroke: #ff00ff; stroke-width: 1.5; stroke-linecap: square"/>
    <g/>
   </g>
   <g id="line2d_38">
    <path d="M 187.501655 188.173241 
" clip-path="url(#pc96dbb9e21)" style="fill: none; stroke: #ff00ff; stroke-width: 1.5; stroke-linecap: square"/>
    <defs>
     <path id="m4a589ed9e2" d="M -12 12 
L 12 -12 
M -12 -12 
L 12 12 
" style="stroke: #ff00ff"/>
    </defs>
    <g clip-path="url(#pc96dbb9e21)">
     <use xlink:href="#m4a589ed9e2" x="187.501655" y="188.173241" style="fill: #ff00ff; stroke: #ff00ff"/>
    </g>
   </g>
   <g id="line2d_39">
    <defs>
     <path id="ma243660457" d="M 0 1.5 
C 0.397805 1.5 0.77937 1.341951 1.06066 1.06066 
C 1.341951 0.77937 1.5 0.397805 1.5 0 
C 1.5 -0.397805 1.341951 -0.77937 1.06066 -1.06066 
C 0.77937 -1.341951 0.397805 -1.5 0 -1.5 
C -0.397805 -1.5 -0.77937 -1.341951 -1.06066 -1.06066 
C -1.341951 -0.77937 -1.5 -0.397805 -1.5 0 
C -1.5 0.397805 -1.341951 0.77937 -1.06066 1.06066 
C -0.77937 1.341951 -0.397805 1.5 0 1.5 
z
" style="stroke: #ff7500"/>
    </defs>
    <g>
     <use xlink:href="#ma243660457" x="187.343866" y="148.396469" style="fill: #ff7500; stroke: #ff7500"/>
     <use xlink:href="#ma243660457" x="187.343866" y="148.396469" style="fill: #ff7500; stroke: #ff7500"/>
    </g>
   </g>
   <g id="line2d_40">
    <path d="M 36.933397 298.944 
L 36.933397 292.398455 
L 80.248597 292.398455 
L 80.248597 291.894952 
L 86.578163 291.894952 
L 86.578163 288.370428 
L 89.090095 288.370428 
L 89.090095 287.866924 
L 93.287772 287.866924 
L 93.287772 286.356414 
L 96.717523 286.356414 
L 96.717523 285.85291 
L 103.269713 285.85291 
L 103.269713 285.349407 
L 104.344952 285.349407 
L 104.344952 282.328386 
L 105.36204 282.328386 
L 105.36204 278.300359 
L 106.326946 278.300359 
L 106.326946 277.293352 
L 109.756698 277.293352 
L 109.756698 270.244303 
L 111.262425 270.244303 
L 111.262425 269.7408 
L 113.316634 269.7408 
L 113.316634 269.237297 
L 115.747307 269.237297 
L 115.747307 268.733793 
L 116.308887 268.733793 
L 116.308887 267.726786 
L 117.384126 267.726786 
L 117.384126 267.223283 
L 118.401214 267.223283 
L 118.401214 266.216276 
L 119.129494 266.216276 
L 119.129494 265.209269 
L 119.830627 265.209269 
L 119.830627 264.705766 
L 120.944062 264.705766 
L 120.944062 262.188248 
L 121.581803 262.188248 
L 121.581803 260.174234 
L 121.99526 260.174234 
L 121.99526 257.656717 
L 122.990812 257.656717 
L 122.990812 255.1392 
L 123.936316 255.1392 
L 123.936316 254.132193 
L 124.119844 254.132193 
L 124.119844 253.125186 
L 125.35673 253.125186 
L 125.35673 252.621683 
L 126.028642 252.621683 
L 126.028642 251.614676 
L 126.993549 251.614676 
L 126.993549 248.593655 
L 127.304491 248.593655 
L 127.304491 248.090152 
L 127.458055 248.090152 
L 127.458055 246.579641 
L 127.610376 246.579641 
L 127.610376 246.076138 
L 129.209231 246.076138 
L 129.209231 244.062124 
L 130.160198 244.062124 
L 130.160198 242.551614 
L 130.811181 242.551614 
L 130.811181 241.544607 
L 132.754746 241.544607 
L 132.754746 240.5376 
L 133.210806 240.5376 
L 133.210806 240.034097 
L 133.434756 240.034097 
L 133.434756 239.02709 
L 135.438999 239.02709 
L 135.438999 238.020083 
L 135.932769 238.020083 
L 136.029987 236.006069 
L 136.413909 236.006069 
L 136.413909 234.999062 
L 136.696795 234.999062 
L 136.696795 233.488552 
L 137.610157 233.488552 
L 137.610157 232.481545 
L 138.395904 232.481545 
L 138.395904 231.474538 
L 139.067817 231.474538 
L 139.067817 230.971034 
L 139.636676 230.971034 
L 139.636676 229.460524 
L 139.875304 229.460524 
L 139.875304 228.957021 
L 141.025043 228.957021 
L 141.025043 228.453517 
L 141.610664 228.453517 
L 141.610664 226.439503 
L 142.178603 226.439503 
L 142.178603 225.432497 
L 142.387236 225.432497 
L 142.387236 224.928993 
L 143.066428 224.928993 
L 143.066428 224.42549 
L 143.592659 224.42549 
L 143.592659 223.921986 
L 143.914232 223.921986 
L 143.977892 222.914979 
L 144.907812 222.914979 
L 144.907812 222.411476 
L 145.0284 222.411476 
L 145.0284 221.907972 
L 145.148219 221.907972 
L 145.148219 221.404469 
L 145.851536 221.404469 
L 145.908976 218.886952 
L 146.584913 218.886952 
L 146.584913 216.369434 
L 147.183884 216.369434 
L 147.183884 214.355421 
L 148.428077 214.355421 
L 148.428077 213.851917 
L 148.923146 213.851917 
L 148.923146 212.341407 
L 150.334674 212.341407 
L 150.334674 211.837903 
L 151.435079 211.837903 
L 151.520392 210.327393 
L 152.271285 210.327393 
L 152.271285 209.82389 
L 152.635783 209.82389 
L 152.635783 208.816883 
L 152.914478 208.816883 
L 152.914478 208.313379 
L 153.536404 208.313379 
L 153.536404 207.809876 
L 153.952355 207.809876 
L 153.952355 207.306372 
L 154.685842 207.306372 
L 154.685842 206.802869 
L 155.769072 206.802869 
L 155.769072 205.795862 
L 156.172192 205.795862 
L 156.172192 205.292359 
L 156.468962 205.292359 
L 156.468962 204.788855 
L 157.175281 204.788855 
L 157.175281 204.285352 
L 157.332175 204.285352 
L 157.332175 203.781848 
L 159.005416 203.781848 
L 159.005416 203.278345 
L 159.119425 203.278345 
L 159.119425 202.271338 
L 159.651731 202.271338 
L 159.651731 201.264331 
L 160.142495 201.264331 
L 160.142495 200.257324 
L 160.383158 200.257324 
L 160.383158 199.753821 
L 160.620781 199.753821 
L 160.620781 199.250317 
L 161.937874 199.250317 
L 161.937874 198.24331 
L 162.180921 198.24331 
L 162.180921 197.739807 
L 163.79962 197.739807 
L 163.79962 196.7328 
L 164.172572 196.7328 
L 164.215967 195.725793 
L 164.388551 195.725793 
L 164.388551 195.22229 
L 164.602079 195.22229 
L 164.665667 193.208276 
L 165.063478 193.208276 
L 165.063478 192.201269 
L 165.187374 192.201269 
L 165.187374 191.697766 
L 166.878997 191.697766 
L 166.878997 191.194262 
L 167.507957 191.194262 
L 167.507957 190.690759 
L 167.850487 190.690759 
L 167.850487 189.683752 
L 168.344164 189.683752 
L 168.344164 189.180248 
L 168.706102 189.180248 
L 168.706102 188.676745 
L 169.622295 188.676745 
L 169.622295 187.669738 
L 170.087991 187.669738 
L 170.087991 187.166234 
L 170.37135 187.166234 
L 170.37135 186.159228 
L 171.076674 186.159228 
L 171.076674 184.648717 
L 171.271304 184.648717 
L 171.271304 184.145214 
L 171.640025 184.145214 
L 171.640025 183.64171 
L 172.3986 183.64171 
L 172.3986 182.1312 
L 172.78734 182.1312 
L 172.78734 181.627697 
L 173.395744 181.627697 
L 173.395744 181.124193 
L 173.751559 181.124193 
L 173.751559 180.62069 
L 175.471959 180.62069 
L 175.471959 180.117186 
L 175.837702 180.117186 
L 175.837702 179.110179 
L 176.469599 179.110179 
L 176.469599 178.606676 
L 176.772205 178.606676 
L 176.772205 177.096166 
L 176.894106 177.096166 
L 176.894106 176.089159 
L 177.233457 176.089159 
L 177.233457 175.585655 
L 177.577449 175.585655 
L 177.577449 174.075145 
L 177.915264 174.075145 
L 177.915264 173.571641 
L 178.18534 173.571641 
L 178.18534 173.068138 
L 178.318938 173.068138 
L 178.318938 172.564634 
L 178.553005 172.564634 
L 178.553005 172.061131 
L 179.022444 172.061131 
L 179.111015 170.047117 
L 179.403277 170.047117 
L 179.403277 168.536607 
L 179.738608 168.536607 
L 179.804963 167.026097 
L 180.058732 167.026097 
L 180.058732 166.01909 
L 180.23528 166.01909 
L 180.23528 165.012083 
L 180.355129 165.012083 
L 180.455946 164.005076 
L 180.628823 164.005076 
L 180.628823 162.998069 
L 180.978773 162.998069 
L 180.978773 159.977048 
L 181.304866 159.977048 
L 181.304866 159.473545 
L 181.796418 159.473545 
L 181.821936 158.466538 
L 182.448907 158.466538 
L 182.53913 157.459531 
L 182.588161 157.459531 
L 182.588161 156.452524 
L 182.783017 156.452524 
L 182.783017 155.949021 
L 183.079521 155.949021 
L 183.190504 154.43851 
L 183.558372 154.43851 
L 183.558372 153.431503 
L 183.835357 153.431503 
L 183.835357 151.920993 
L 184.473607 151.920993 
L 184.473607 151.41749 
L 185.211977 151.41749 
L 185.211977 150.913986 
L 185.33227 150.913986 
L 185.33227 150.410483 
L 185.472812 150.410483 
L 185.472812 149.906979 
L 185.977062 149.906979 
L 185.977062 148.899972 
L 187.343866 148.899972 
L 187.343866 148.396469 
L 360.8064 148.396469 
L 360.8064 148.396469 
" style="fill: none; stroke: #ff7500; stroke-width: 1.5; stroke-linecap: square"/>
   </g>
   <g id="line2d_41">
    <defs>
     <path id="mb29045edba" d="M 0 -6 
L -1.347084 -1.854102 
L -5.706339 -1.854102 
L -2.179628 0.708204 
L -3.526712 4.854102 
L -0 2.291796 
L 3.526712 4.854102 
L 2.179628 0.708204 
L 5.706339 -1.854102 
L 1.347084 -1.854102 
z
" style="stroke: #ff7500; stroke-width: 1.5; stroke-linejoin: bevel"/>
    </defs>
    <g>
     <use xlink:href="#mb29045edba" x="89.090095" y="287.866924" style="fill-opacity: 0; stroke: #ff7500; stroke-width: 1.5; stroke-linejoin: bevel"/>
     <use xlink:href="#mb29045edba" x="151.435079" y="211.837903" style="fill-opacity: 0; stroke: #ff7500; stroke-width: 1.5; stroke-linejoin: bevel"/>
     <use xlink:href="#mb29045edba" x="187.343866" y="148.899972" style="fill-opacity: 0; stroke: #ff7500; stroke-width: 1.5; stroke-linejoin: bevel"/>
     <use xlink:href="#mb29045edba" x="187.343866" y="148.396469" style="fill-opacity: 0; stroke: #ff7500; stroke-width: 1.5; stroke-linejoin: bevel"/>
     <use xlink:href="#mb29045edba" x="187.343866" y="148.396469" style="fill-opacity: 0; stroke: #ff7500; stroke-width: 1.5; stroke-linejoin: bevel"/>
     <use xlink:href="#mb29045edba" x="360.8064" y="148.396469" style="fill-opacity: 0; stroke: #ff7500; stroke-width: 1.5; stroke-linejoin: bevel"/>
    </g>
   </g>
   <g id="line2d_42">
    <path style="fill: none; stroke: #ff7500; stroke-width: 1.5; stroke-linecap: square"/>
    <g/>
   </g>
   <g id="line2d_43">
    <path d="M 187.507939 148.396469 
" clip-path="url(#pc96dbb9e21)" style="fill: none; stroke: #ff7500; stroke-width: 1.5; stroke-linecap: square"/>
    <defs>
     <path id="m90e766926c" d="M -12 12 
L 12 -12 
M -12 -12 
L 12 12 
" style="stroke: #ff7500"/>
    </defs>
    <g clip-path="url(#pc96dbb9e21)">
     <use xlink:href="#m90e766926c" x="187.507939" y="148.396469" style="fill: #ff7500; stroke: #ff7500"/>
    </g>
   </g>
   <g id="line2d_44">
    <defs>
     <path id="m137337b5b1" d="M 0 1.5 
C 0.397805 1.5 0.77937 1.341951 1.06066 1.06066 
C 1.341951 0.77937 1.5 0.397805 1.5 0 
C 1.5 -0.397805 1.341951 -0.77937 1.06066 -1.06066 
C 0.77937 -1.341951 0.397805 -1.5 0 -1.5 
C -0.397805 -1.5 -0.77937 -1.341951 -1.06066 -1.06066 
C -1.341951 -0.77937 -1.5 -0.397805 -1.5 0 
C -1.5 0.397805 -1.341951 0.77937 -1.06066 1.06066 
C -0.77937 1.341951 -0.397805 1.5 0 1.5 
z
" style="stroke: #6495ed"/>
    </defs>
    <g>
     <use xlink:href="#m137337b5b1" x="182.718289" y="188.173241" style="fill: #6495ed; stroke: #6495ed"/>
     <use xlink:href="#m137337b5b1" x="182.718289" y="188.173241" style="fill: #6495ed; stroke: #6495ed"/>
    </g>
   </g>
   <g id="line2d_45">
    <path d="M 36.933397 298.944 
L 36.933397 292.398455 
L 49.972572 292.398455 
L 49.972572 287.866924 
L 76.050921 287.866924 
L 76.050921 286.356414 
L 80.248597 286.356414 
L 80.248597 285.349407 
L 89.090095 285.349407 
L 89.090095 284.845903 
L 91.305777 284.845903 
L 91.305777 284.3424 
L 96.717523 284.3424 
L 96.717523 282.328386 
L 100.9152 282.328386 
L 100.9152 281.824883 
L 108.119879 281.824883 
L 108.119879 280.817876 
L 111.262425 280.817876 
L 111.262425 279.307366 
L 113.954374 279.307366 
L 113.954374 277.796855 
L 116.854188 277.796855 
L 116.854188 276.789848 
L 118.889854 276.789848 
L 118.889854 275.782841 
L 119.830627 275.782841 
L 119.830627 274.775834 
L 125.011554 274.775834 
L 125.011554 274.272331 
L 126.836129 274.272331 
L 126.836129 272.761821 
L 126.993549 272.761821 
L 126.993549 271.754814 
L 127.304491 271.754814 
L 127.304491 271.25131 
L 127.458055 271.25131 
L 127.458055 270.244303 
L 128.786481 270.244303 
L 128.786481 269.7408 
L 132.168669 269.7408 
L 132.168669 269.237297 
L 132.405295 269.237297 
L 132.405295 268.23029 
L 132.638982 268.23029 
L 132.638982 267.726786 
L 132.754746 267.726786 
L 132.754746 266.216276 
L 134.091039 266.216276 
L 134.091039 264.705766 
L 135.237805 264.705766 
L 135.237805 263.195255 
L 136.97549 263.195255 
L 136.97549 262.691752 
L 138.050729 262.691752 
L 138.050729 262.188248 
L 138.566146 262.188248 
L 138.566146 260.677738 
L 138.985129 260.677738 
L 138.985129 259.670731 
L 139.394983 259.670731 
L 139.394983 259.167228 
L 139.636676 259.167228 
L 139.636676 258.160221 
L 140.26641 258.160221 
L 140.343665 257.153214 
L 140.800648 257.153214 
L 140.800648 256.146207 
L 143.850356 256.146207 
L 143.850356 255.642703 
L 144.541342 255.642703 
L 144.541342 255.1392 
L 146.023332 255.1392 
L 146.023332 254.635697 
L 146.913986 254.635697 
L 146.913986 254.132193 
L 147.449964 254.132193 
L 147.449964 253.62869 
L 147.868016 253.62869 
L 147.868016 253.125186 
L 148.073609 253.125186 
L 148.073609 252.621683 
L 148.478174 252.621683 
L 148.478174 252.118179 
L 149.117582 252.118179 
L 149.117582 251.111172 
L 149.875833 251.111172 
L 149.875833 250.607669 
L 150.106653 250.607669 
L 150.198193 249.097159 
L 150.604701 249.097159 
L 150.604701 248.090152 
L 151.00261 248.090152 
L 151.00261 247.083145 
L 151.435079 247.083145 
L 151.435079 246.076138 
L 151.899585 246.076138 
L 151.899585 244.565628 
L 153.305585 244.565628 
L 153.305585 244.062124 
L 153.612719 244.062124 
L 153.612719 243.558621 
L 153.764426 243.558621 
L 153.764426 242.551614 
L 155.252711 242.551614 
L 155.252711 240.034097 
L 155.426411 240.034097 
L 155.426411 239.530593 
L 156.825436 239.530593 
L 156.825436 239.02709 
L 157.017067 239.02709 
L 157.017067 238.020083 
L 157.175281 238.020083 
L 157.175281 236.006069 
L 157.703468 236.006069 
L 157.703468 235.502566 
L 158.336102 235.502566 
L 158.336102 234.999062 
L 160.515541 234.999062 
L 160.515541 233.992055 
L 161.986735 233.992055 
L 161.986735 233.488552 
L 162.373122 233.488552 
L 162.373122 232.481545 
L 163.888041 232.481545 
L 163.888041 231.474538 
L 165.146166 231.474538 
L 165.146166 230.467531 
L 165.614697 230.467531 
L 165.614697 229.460524 
L 165.894279 229.460524 
L 165.894279 228.453517 
L 166.784704 228.453517 
L 166.784704 227.44651 
L 167.957371 227.44651 
L 167.957371 225.936 
L 168.134173 225.936 
L 168.134173 224.928993 
L 168.413644 224.928993 
L 168.482867 223.921986 
L 168.723164 223.921986 
L 168.757243 221.907972 
L 169.010886 221.907972 
L 169.010886 220.900966 
L 169.277721 220.900966 
L 169.277721 219.893959 
L 169.508137 219.893959 
L 169.589749 217.376441 
L 169.638546 217.376441 
L 169.638546 216.369434 
L 169.864611 216.369434 
L 169.864611 215.362428 
L 170.230204 215.362428 
L 170.340075 213.851917 
L 170.619691 213.851917 
L 170.619691 212.84491 
L 170.773255 212.84491 
L 170.803818 211.3344 
L 171.256404 211.3344 
L 171.256404 210.830897 
L 171.71291 210.830897 
L 171.71291 210.327393 
L 172.243656 210.327393 
L 172.257795 209.320386 
L 172.384567 209.320386 
L 172.384567 208.816883 
L 172.814802 208.816883 
L 172.814802 208.313379 
L 173.409043 208.313379 
L 173.409043 207.809876 
L 173.946365 207.809876 
L 173.946365 207.306372 
L 174.190258 207.306372 
L 174.190258 206.299366 
L 175.111113 206.299366 
L 175.111113 205.795862 
L 175.280369 205.795862 
L 175.388379 203.781848 
L 175.412297 203.781848 
L 175.519553 201.767834 
L 175.685191 201.767834 
L 175.685191 200.760828 
L 175.965791 200.760828 
L 175.965791 199.250317 
L 176.593471 199.250317 
L 176.593471 198.24331 
L 176.883057 198.24331 
L 176.883057 197.739807 
L 177.363192 197.739807 
L 177.363192 197.236303 
L 177.598741 197.236303 
L 177.598741 196.7328 
L 177.736555 196.7328 
L 177.789293 195.22229 
L 178.308695 195.22229 
L 178.400683 191.697766 
L 178.431246 191.697766 
L 178.431246 191.194262 
L 179.36457 191.194262 
L 179.36457 189.683752 
L 179.946368 189.683752 
L 179.946368 189.180248 
L 180.446803 189.180248 
L 180.446803 188.676745 
L 182.718289 188.676745 
L 182.718289 188.173241 
L 360.8064 188.173241 
L 360.8064 188.173241 
" style="fill: none; stroke: #6495ed; stroke-width: 1.5; stroke-linecap: square"/>
   </g>
   <g id="line2d_46">
    <defs>
     <path id="m435af9abd8" d="M -0 6 
L 6 -6 
L -6 -6 
z
" style="stroke: #6495ed; stroke-width: 1.5; stroke-linejoin: miter"/>
    </defs>
    <g>
     <use xlink:href="#m435af9abd8" x="113.954374" y="279.307366" style="fill-opacity: 0; stroke: #6495ed; stroke-width: 1.5; stroke-linejoin: miter"/>
     <use xlink:href="#m435af9abd8" x="150.604701" y="248.090152" style="fill-opacity: 0; stroke: #6495ed; stroke-width: 1.5; stroke-linejoin: miter"/>
     <use xlink:href="#m435af9abd8" x="182.718289" y="188.676745" style="fill-opacity: 0; stroke: #6495ed; stroke-width: 1.5; stroke-linejoin: miter"/>
     <use xlink:href="#m435af9abd8" x="182.718289" y="188.173241" style="fill-opacity: 0; stroke: #6495ed; stroke-width: 1.5; stroke-linejoin: miter"/>
     <use xlink:href="#m435af9abd8" x="182.718289" y="188.173241" style="fill-opacity: 0; stroke: #6495ed; stroke-width: 1.5; stroke-linejoin: miter"/>
     <use xlink:href="#m435af9abd8" x="360.8064" y="188.173241" style="fill-opacity: 0; stroke: #6495ed; stroke-width: 1.5; stroke-linejoin: miter"/>
    </g>
   </g>
   <g id="line2d_47">
    <path style="fill: none; stroke: #6495ed; stroke-width: 1.5; stroke-linecap: square"/>
    <g/>
   </g>
   <g id="line2d_48">
    <path d="M 187.501655 188.173241 
" clip-path="url(#pc96dbb9e21)" style="fill: none; stroke: #6495ed; stroke-width: 1.5; stroke-linecap: square"/>
    <defs>
     <path id="m51d43ba0e9" d="M -12 12 
L 12 -12 
M -12 -12 
L 12 12 
" style="stroke: #6495ed"/>
    </defs>
    <g clip-path="url(#pc96dbb9e21)">
     <use xlink:href="#m51d43ba0e9" x="187.501655" y="188.173241" style="fill: #6495ed; stroke: #6495ed"/>
    </g>
   </g>
   <g id="line2d_49">
    <path d="M 360.8064 188.173241 
L 380.514816 293.10336 
" style="fill: none; stroke: #6495ed; stroke-width: 1.5; stroke-linecap: square"/>
    <g>
     <use xlink:href="#m435af9abd8" x="360.8064" y="188.173241" style="fill-opacity: 0; stroke: #6495ed; stroke-width: 1.5; stroke-linejoin: miter"/>
     <use xlink:href="#m435af9abd8" x="380.514816" y="293.10336" style="fill-opacity: 0; stroke: #6495ed; stroke-width: 1.5; stroke-linejoin: miter"/>
    </g>
   </g>
   <g id="line2d_50">
    <path d="M 360.8064 188.173241 
L 380.514816 199.65312 
" style="fill: none; stroke: #ff00ff; stroke-width: 1.5; stroke-linecap: square"/>
    <g>
     <use xlink:href="#m1f79414861" x="360.8064" y="188.173241" style="fill-opacity: 0; stroke: #ff00ff; stroke-width: 1.5; stroke-linejoin: miter"/>
     <use xlink:href="#m1f79414861" x="380.514816" y="199.65312" style="fill-opacity: 0; stroke: #ff00ff; stroke-width: 1.5; stroke-linejoin: miter"/>
    </g>
   </g>
   <g id="line2d_51">
    <path d="M 360.8064 167.5296 
L 380.514816 106.20288 
" style="fill: none; stroke: #000080; stroke-width: 1.5; stroke-linecap: square"/>
    <g>
     <use xlink:href="#m8c2f464313" x="360.8064" y="167.5296" style="fill-opacity: 0; stroke: #000080; stroke-width: 1.5"/>
     <use xlink:href="#m8c2f464313" x="380.514816" y="106.20288" style="fill-opacity: 0; stroke: #000080; stroke-width: 1.5"/>
    </g>
   </g>
   <g id="line2d_52">
    <path d="M 360.8064 148.396469 
L 380.514816 12.75264 
" style="fill: none; stroke: #ff7500; stroke-width: 1.5; stroke-linecap: square"/>
    <g>
     <use xlink:href="#mb29045edba" x="360.8064" y="148.396469" style="fill-opacity: 0; stroke: #ff7500; stroke-width: 1.5; stroke-linejoin: bevel"/>
     <use xlink:href="#mb29045edba" x="380.514816" y="12.75264" style="fill-opacity: 0; stroke: #ff7500; stroke-width: 1.5; stroke-linejoin: bevel"/>
    </g>
   </g>
   <g id="line2d_53">
    <path d="M 360.8064 298.944 
L 360.8064 6.912 
" style="fill: none; stroke: #000000; stroke-width: 1.5; stroke-linecap: square"/>
   </g>
   <g id="patch_3">
    <path d="M 57.6 298.944 
L 360.8064 298.944 
" style="fill: none; stroke: #000000; stroke-width: 0.8; stroke-linejoin: miter; stroke-linecap: square"/>
   </g>
   <g id="patch_4">
    <path d="M 57.6 6.912 
L 360.8064 6.912 
" style="fill: none; stroke: #000000; stroke-width: 0.8; stroke-linejoin: miter; stroke-linecap: square"/>
   </g>
   <g id="text_13">
    <!-- f34 -->
    <g transform="translate(386.578944 296.966485) scale(0.14 -0.14)">
     <defs>
      <path id="DejaVuSans-33" d="M 2597 2516 
Q 3050 2419 3304 2112 
Q 3559 1806 3559 1356 
Q 3559 666 3084 287 
Q 2609 -91 1734 -91 
Q 1441 -91 1130 -33 
Q 819 25 488 141 
L 488 750 
Q 750 597 1062 519 
Q 1375 441 1716 441 
Q 2309 441 2620 675 
Q 2931 909 2931 1356 
Q 2931 1769 2642 2001 
Q 2353 2234 1838 2234 
L 1294 2234 
L 1294 2753 
L 1863 2753 
Q 2328 2753 2575 2939 
Q 2822 3125 2822 3475 
Q 2822 3834 2567 4026 
Q 2313 4219 1838 4219 
Q 1578 4219 1281 4162 
Q 984 4106 628 3988 
L 628 4550 
Q 988 4650 1302 4700 
Q 1616 4750 1894 4750 
Q 2613 4750 3031 4423 
Q 3450 4097 3450 3541 
Q 3450 3153 3228 2886 
Q 3006 2619 2597 2516 
z
" transform="scale(0.015625)"/>
     </defs>
     <use xlink:href="#DejaVuSans-66"/>
     <use xlink:href="#DejaVuSans-33" x="35.205078"/>
     <use xlink:href="#DejaVuSans-34" x="98.828125"/>
    </g>
   </g>
   <g id="text_14">
    <!-- f27 -->
    <g transform="translate(386.578944 203.516245) scale(0.14 -0.14)">
     <defs>
      <path id="DejaVuSans-37" d="M 525 4666 
L 3525 4666 
L 3525 4397 
L 1831 0 
L 1172 0 
L 2766 4134 
L 525 4134 
L 525 4666 
z
" transform="scale(0.015625)"/>
     </defs>
     <use xlink:href="#DejaVuSans-66"/>
     <use xlink:href="#DejaVuSans-32" x="35.205078"/>
     <use xlink:href="#DejaVuSans-37" x="98.828125"/>
    </g>
   </g>
   <g id="text_15">
    <!-- f26 -->
    <g transform="translate(386.578944 110.066005) scale(0.14 -0.14)">
     <use xlink:href="#DejaVuSans-66"/>
     <use xlink:href="#DejaVuSans-32" x="35.205078"/>
     <use xlink:href="#DejaVuSans-36" x="98.828125"/>
    </g>
   </g>
   <g id="text_16">
    <!-- f33 -->
    <g transform="translate(386.578944 16.615765) scale(0.14 -0.14)">
     <use xlink:href="#DejaVuSans-66"/>
     <use xlink:href="#DejaVuSans-33" x="35.205078"/>
     <use xlink:href="#DejaVuSans-33" x="98.828125"/>
    </g>
   </g>
   <g id="text_17">
    <!-- bbob-biobj -->
    <g transform="translate(60.632064 17.582726) scale(0.102 -0.102)">
     <defs>
      <path id="DejaVuSans-62" d="M 3116 1747 
Q 3116 2381 2855 2742 
Q 2594 3103 2138 3103 
Q 1681 3103 1420 2742 
Q 1159 2381 1159 1747 
Q 1159 1113 1420 752 
Q 1681 391 2138 391 
Q 2594 391 2855 752 
Q 3116 1113 3116 1747 
z
M 1159 2969 
Q 1341 3281 1617 3432 
Q 1894 3584 2278 3584 
Q 2916 3584 3314 3078 
Q 3713 2572 3713 1747 
Q 3713 922 3314 415 
Q 2916 -91 2278 -91 
Q 1894 -91 1617 61 
Q 1341 213 1159 525 
L 1159 0 
L 581 0 
L 581 4863 
L 1159 4863 
L 1159 2969 
z
" transform="scale(0.015625)"/>
      <path id="DejaVuSans-6a" d="M 603 3500 
L 1178 3500 
L 1178 -63 
Q 1178 -731 923 -1031 
Q 669 -1331 103 -1331 
L -116 -1331 
L -116 -844 
L 38 -844 
Q 366 -844 484 -692 
Q 603 -541 603 -63 
L 603 3500 
z
M 603 4863 
L 1178 4863 
L 1178 4134 
L 603 4134 
L 603 4863 
z
" transform="scale(0.015625)"/>
     </defs>
     <use xlink:href="#DejaVuSans-62"/>
     <use xlink:href="#DejaVuSans-62" x="63.476562"/>
     <use xlink:href="#DejaVuSans-6f" x="126.953125"/>
     <use xlink:href="#DejaVuSans-62" x="188.134766"/>
     <use xlink:href="#DejaVuSans-2d" x="251.611328"/>
     <use xlink:href="#DejaVuSans-62" x="287.695312"/>
     <use xlink:href="#DejaVuSans-69" x="351.171875"/>
     <use xlink:href="#DejaVuSans-6f" x="378.955078"/>
     <use xlink:href="#DejaVuSans-62" x="440.136719"/>
     <use xlink:href="#DejaVuSans-6a" x="503.613281"/>
    </g>
    <!-- 2-moderate 5-weakly-structured, 3-D -->
    <g transform="translate(60.632064 29.004495) scale(0.102 -0.102)">
     <defs>
      <path id="DejaVuSans-35" d="M 691 4666 
L 3169 4666 
L 3169 4134 
L 1269 4134 
L 1269 2991 
Q 1406 3038 1543 3061 
Q 1681 3084 1819 3084 
Q 2600 3084 3056 2656 
Q 3513 2228 3513 1497 
Q 3513 744 3044 326 
Q 2575 -91 1722 -91 
Q 1428 -91 1123 -41 
Q 819 9 494 109 
L 494 744 
Q 775 591 1075 516 
Q 1375 441 1709 441 
Q 2250 441 2565 725 
Q 2881 1009 2881 1497 
Q 2881 1984 2565 2268 
Q 2250 2553 1709 2553 
Q 1456 2553 1204 2497 
Q 953 2441 691 2322 
L 691 4666 
z
" transform="scale(0.015625)"/>
      <path id="DejaVuSans-77" d="M 269 3500 
L 844 3500 
L 1563 769 
L 2278 3500 
L 2956 3500 
L 3675 769 
L 4391 3500 
L 4966 3500 
L 4050 0 
L 3372 0 
L 2619 2869 
L 1863 0 
L 1184 0 
L 269 3500 
z
" transform="scale(0.015625)"/>
      <path id="DejaVuSans-6b" d="M 581 4863 
L 1159 4863 
L 1159 1991 
L 2875 3500 
L 3609 3500 
L 1753 1863 
L 3688 0 
L 2938 0 
L 1159 1709 
L 1159 0 
L 581 0 
L 581 4863 
z
" transform="scale(0.015625)"/>
      <path id="DejaVuSans-79" d="M 2059 -325 
Q 1816 -950 1584 -1140 
Q 1353 -1331 966 -1331 
L 506 -1331 
L 506 -850 
L 844 -850 
Q 1081 -850 1212 -737 
Q 1344 -625 1503 -206 
L 1606 56 
L 191 3500 
L 800 3500 
L 1894 763 
L 2988 3500 
L 3597 3500 
L 2059 -325 
z
" transform="scale(0.015625)"/>
      <path id="DejaVuSans-44" d="M 1259 4147 
L 1259 519 
L 2022 519 
Q 2988 519 3436 956 
Q 3884 1394 3884 2338 
Q 3884 3275 3436 3711 
Q 2988 4147 2022 4147 
L 1259 4147 
z
M 628 4666 
L 1925 4666 
Q 3281 4666 3915 4102 
Q 4550 3538 4550 2338 
Q 4550 1131 3912 565 
Q 3275 0 1925 0 
L 628 0 
L 628 4666 
z
" transform="scale(0.015625)"/>
     </defs>
     <use xlink:href="#DejaVuSans-32"/>
     <use xlink:href="#DejaVuSans-2d" x="63.623047"/>
     <use xlink:href="#DejaVuSans-6d" x="99.707031"/>
     <use xlink:href="#DejaVuSans-6f" x="197.119141"/>
     <use xlink:href="#DejaVuSans-64" x="258.300781"/>
     <use xlink:href="#DejaVuSans-65" x="321.777344"/>
     <use xlink:href="#DejaVuSans-72" x="383.300781"/>
     <use xlink:href="#DejaVuSans-61" x="424.414062"/>
     <use xlink:href="#DejaVuSans-74" x="485.693359"/>
     <use xlink:href="#DejaVuSans-65" x="524.902344"/>
     <use xlink:href="#DejaVuSans-20" x="586.425781"/>
     <use xlink:href="#DejaVuSans-35" x="618.212891"/>
     <use xlink:href="#DejaVuSans-2d" x="681.835938"/>
     <use xlink:href="#DejaVuSans-77" x="717.919922"/>
     <use xlink:href="#DejaVuSans-65" x="799.707031"/>
     <use xlink:href="#DejaVuSans-61" x="861.230469"/>
     <use xlink:href="#DejaVuSans-6b" x="922.509766"/>
     <use xlink:href="#DejaVuSans-6c" x="980.419922"/>
     <use xlink:href="#DejaVuSans-79" x="1008.203125"/>
     <use xlink:href="#DejaVuSans-2d" x="1065.632812"/>
     <use xlink:href="#DejaVuSans-73" x="1101.716797"/>
     <use xlink:href="#DejaVuSans-74" x="1153.816406"/>
     <use xlink:href="#DejaVuSans-72" x="1193.025391"/>
     <use xlink:href="#DejaVuSans-75" x="1234.138672"/>
     <use xlink:href="#DejaVuSans-63" x="1297.517578"/>
     <use xlink:href="#DejaVuSans-74" x="1352.498047"/>
     <use xlink:href="#DejaVuSans-75" x="1391.707031"/>
     <use xlink:href="#DejaVuSans-72" x="1455.085938"/>
     <use xlink:href="#DejaVuSans-65" x="1493.949219"/>
     <use xlink:href="#DejaVuSans-64" x="1555.472656"/>
     <use xlink:href="#DejaVuSans-2c" x="1618.949219"/>
     <use xlink:href="#DejaVuSans-20" x="1650.736328"/>
     <use xlink:href="#DejaVuSans-33" x="1682.523438"/>
     <use xlink:href="#DejaVuSans-2d" x="1746.146484"/>
     <use xlink:href="#DejaVuSans-44" x="1782.230469"/>
    </g>
    <!-- 58 targets: 1..-1.0e-4 -->
    <g transform="translate(60.632064 40.426264) scale(0.102 -0.102)">
     <defs>
      <path id="DejaVuSans-3a" d="M 750 794 
L 1409 794 
L 1409 0 
L 750 0 
L 750 794 
z
M 750 3309 
L 1409 3309 
L 1409 2516 
L 750 2516 
L 750 3309 
z
" transform="scale(0.015625)"/>
     </defs>
     <use xlink:href="#DejaVuSans-35"/>
     <use xlink:href="#DejaVuSans-38" x="63.623047"/>
     <use xlink:href="#DejaVuSans-20" x="127.246094"/>
     <use xlink:href="#DejaVuSans-74" x="159.033203"/>
     <use xlink:href="#DejaVuSans-61" x="198.242188"/>
     <use xlink:href="#DejaVuSans-72" x="259.521484"/>
     <use xlink:href="#DejaVuSans-67" x="298.884766"/>
     <use xlink:href="#DejaVuSans-65" x="362.361328"/>
     <use xlink:href="#DejaVuSans-74" x="423.884766"/>
     <use xlink:href="#DejaVuSans-73" x="463.09375"/>
     <use xlink:href="#DejaVuSans-3a" x="515.193359"/>
     <use xlink:href="#DejaVuSans-20" x="548.884766"/>
     <use xlink:href="#DejaVuSans-31" x="580.671875"/>
     <use xlink:href="#DejaVuSans-2e" x="644.294922"/>
     <use xlink:href="#DejaVuSans-2e" x="676.082031"/>
     <use xlink:href="#DejaVuSans-2d" x="707.869141"/>
     <use xlink:href="#DejaVuSans-31" x="743.953125"/>
     <use xlink:href="#DejaVuSans-2e" x="807.576172"/>
     <use xlink:href="#DejaVuSans-30" x="839.363281"/>
     <use xlink:href="#DejaVuSans-65" x="902.986328"/>
     <use xlink:href="#DejaVuSans-2d" x="964.509766"/>
     <use xlink:href="#DejaVuSans-34" x="1000.59375"/>
    </g>
    <!-- 10 instances -->
    <g transform="translate(60.632064 51.848032) scale(0.102 -0.102)">
     <use xlink:href="#DejaVuSans-31"/>
     <use xlink:href="#DejaVuSans-30" x="63.623047"/>
     <use xlink:href="#DejaVuSans-20" x="127.246094"/>
     <use xlink:href="#DejaVuSans-69" x="159.033203"/>
     <use xlink:href="#DejaVuSans-6e" x="186.816406"/>
     <use xlink:href="#DejaVuSans-73" x="250.195312"/>
     <use xlink:href="#DejaVuSans-74" x="302.294922"/>
     <use xlink:href="#DejaVuSans-61" x="341.503906"/>
     <use xlink:href="#DejaVuSans-6e" x="402.783203"/>
     <use xlink:href="#DejaVuSans-63" x="466.162109"/>
     <use xlink:href="#DejaVuSans-65" x="521.142578"/>
     <use xlink:href="#DejaVuSans-73" x="582.666016"/>
    </g>
   </g>
   <g id="text_18">
    <!-- v2.6, hv-hash=ff0e71e8cd978373 -->
    <g style="fill: #808080" transform="translate(123.707887 293.943992) scale(0.1 -0.1)">
     <defs>
      <path id="DejaVuSans-68" d="M 3513 2113 
L 3513 0 
L 2938 0 
L 2938 2094 
Q 2938 2591 2744 2837 
Q 2550 3084 2163 3084 
Q 1697 3084 1428 2787 
Q 1159 2491 1159 1978 
L 1159 0 
L 581 0 
L 581 4863 
L 1159 4863 
L 1159 2956 
Q 1366 3272 1645 3428 
Q 1925 3584 2291 3584 
Q 2894 3584 3203 3211 
Q 3513 2838 3513 2113 
z
" transform="scale(0.015625)"/>
      <path id="DejaVuSans-3d" d="M 678 2906 
L 4684 2906 
L 4684 2381 
L 678 2381 
L 678 2906 
z
M 678 1631 
L 4684 1631 
L 4684 1100 
L 678 1100 
L 678 1631 
z
" transform="scale(0.015625)"/>
      <path id="DejaVuSans-39" d="M 703 97 
L 703 672 
Q 941 559 1184 500 
Q 1428 441 1663 441 
Q 2288 441 2617 861 
Q 2947 1281 2994 2138 
Q 2813 1869 2534 1725 
Q 2256 1581 1919 1581 
Q 1219 1581 811 2004 
Q 403 2428 403 3163 
Q 403 3881 828 4315 
Q 1253 4750 1959 4750 
Q 2769 4750 3195 4129 
Q 3622 3509 3622 2328 
Q 3622 1225 3098 567 
Q 2575 -91 1691 -91 
Q 1453 -91 1209 -44 
Q 966 3 703 97 
z
M 1959 2075 
Q 2384 2075 2632 2365 
Q 2881 2656 2881 3163 
Q 2881 3666 2632 3958 
Q 2384 4250 1959 4250 
Q 1534 4250 1286 3958 
Q 1038 3666 1038 3163 
Q 1038 2656 1286 2365 
Q 1534 2075 1959 2075 
z
" transform="scale(0.015625)"/>
     </defs>
     <use xlink:href="#DejaVuSans-76"/>
     <use xlink:href="#DejaVuSans-32" x="59.179688"/>
     <use xlink:href="#DejaVuSans-2e" x="122.802734"/>
     <use xlink:href="#DejaVuSans-36" x="154.589844"/>
     <use xlink:href="#DejaVuSans-2c" x="218.212891"/>
     <use xlink:href="#DejaVuSans-20" x="250"/>
     <use xlink:href="#DejaVuSans-68" x="281.787109"/>
     <use xlink:href="#DejaVuSans-76" x="345.166016"/>
     <use xlink:href="#DejaVuSans-2d" x="401.720703"/>
     <use xlink:href="#DejaVuSans-68" x="437.804688"/>
     <use xlink:href="#DejaVuSans-61" x="501.183594"/>
     <use xlink:href="#DejaVuSans-73" x="562.462891"/>
     <use xlink:href="#DejaVuSans-68" x="614.5625"/>
     <use xlink:href="#DejaVuSans-3d" x="677.941406"/>
     <use xlink:href="#DejaVuSans-66" x="761.730469"/>
     <use xlink:href="#DejaVuSans-66" x="796.935547"/>
     <use xlink:href="#DejaVuSans-30" x="832.140625"/>
     <use xlink:href="#DejaVuSans-65" x="895.763672"/>
     <use xlink:href="#DejaVuSans-37" x="957.287109"/>
     <use xlink:href="#DejaVuSans-31" x="1020.910156"/>
     <use xlink:href="#DejaVuSans-65" x="1084.533203"/>
     <use xlink:href="#DejaVuSans-38" x="1146.056641"/>
     <use xlink:href="#DejaVuSans-63" x="1209.679688"/>
     <use xlink:href="#DejaVuSans-64" x="1264.660156"/>
     <use xlink:href="#DejaVuSans-39" x="1328.136719"/>
     <use xlink:href="#DejaVuSans-37" x="1391.759766"/>
     <use xlink:href="#DejaVuSans-38" x="1455.382812"/>
     <use xlink:href="#DejaVuSans-33" x="1519.005859"/>
     <use xlink:href="#DejaVuSans-37" x="1582.628906"/>
     <use xlink:href="#DejaVuSans-33" x="1646.251953"/>
    </g>
   </g>
  </g>
 </g>
 <defs>
  <clipPath id="pc96dbb9e21">
   <rect x="57.6" y="6.912" width="303.2064" height="292.032"/>
  </clipPath>
 </defs>
</svg>
