<?xml version="1.0" encoding="utf-8" standalone="no"?>
<!DOCTYPE svg PUBLIC "-//W3C//DTD SVG 1.1//EN"
  "http://www.w3.org/Graphics/SVG/1.1/DTD/svg11.dtd">
<svg xmlns:xlink="http://www.w3.org/1999/xlink" width="460.8pt" height="345.6pt" viewBox="0 0 460.8 345.6" xmlns="http://www.w3.org/2000/svg" version="1.1">
 <metadata>
  <rdf:RDF xmlns:dc="http://purl.org/dc/elements/1.1/" xmlns:cc="http://creativecommons.org/ns#" xmlns:rdf="http://www.w3.org/1999/02/22-rdf-syntax-ns#">
   <cc:Work>
    <dc:type rdf:resource="http://purl.org/dc/dcmitype/StillImage"/>
    <dc:date>2023-02-16T10:10:49.683964</dc:date>
    <dc:format>image/svg+xml</dc:format>
    <dc:creator>
     <cc:Agent>
      <dc:title>Matplotlib v3.6.3, https://matplotlib.org/</dc:title>
     </cc:Agent>
    </dc:creator>
   </cc:Work>
  </rdf:RDF>
 </metadata>
 <defs>
  <style type="text/css">*{stroke-linejoin: round; stroke-linecap: butt}</style>
 </defs>
 <g id="figure_1">
  <g id="patch_1">
   <path d="M 0 345.6 
L 460.8 345.6 
L 460.8 0 
L 0 0 
z
" style="fill: #ffffff"/>
  </g>
  <g id="axes_1">
   <g id="patch_2">
    <path d="M 57.6 298.944 
L 360.8064 298.944 
L 360.8064 27.648 
L 57.6 27.648 
z
" style="fill: #ffffff"/>
   </g>
   <g id="matplotlib.axis_1">
    <g id="xtick_1">
     <g id="line2d_1">
      <path d="M 57.6 298.944 
L 57.6 27.648 
" clip-path="url(#p3ea98308e4)" style="fill: none; stroke: #b0b0b0; stroke-width: 0.8; stroke-linecap: square"/>
     </g>
     <g id="line2d_2">
      <defs>
       <path id="mf51da1ae66" d="M 0 0 
L 0 3.5 
" style="stroke: #000000; stroke-width: 0.8"/>
      </defs>
      <g>
       <use xlink:href="#mf51da1ae66" x="57.6" y="298.944" style="stroke: #000000; stroke-width: 0.8"/>
      </g>
     </g>
     <g id="text_1">
      <!-- 0 -->
      <g transform="translate(52.191875 318.861344) scale(0.17 -0.17)">
       <defs>
        <path id="DejaVuSans-30" d="M 2034 4250 
Q 1547 4250 1301 3770 
Q 1056 3291 1056 2328 
Q 1056 1369 1301 889 
Q 1547 409 2034 409 
Q 2525 409 2770 889 
Q 3016 1369 3016 2328 
Q 3016 3291 2770 3770 
Q 2525 4250 2034 4250 
z
M 2034 4750 
Q 2819 4750 3233 4129 
Q 3647 3509 3647 2328 
Q 3647 1150 3233 529 
Q 2819 -91 2034 -91 
Q 1250 -91 836 529 
Q 422 1150 422 2328 
Q 422 3509 836 4129 
Q 1250 4750 2034 4750 
z
" transform="scale(0.015625)"/>
       </defs>
       <use xlink:href="#DejaVuSans-30"/>
      </g>
     </g>
    </g>
    <g id="xtick_2">
     <g id="line2d_3">
      <path d="M 144.2304 298.944 
L 144.2304 27.648 
" clip-path="url(#p3ea98308e4)" style="fill: none; stroke: #b0b0b0; stroke-width: 0.8; stroke-linecap: square"/>
     </g>
     <g id="line2d_4">
      <g>
       <use xlink:href="#mf51da1ae66" x="144.2304" y="298.944" style="stroke: #000000; stroke-width: 0.8"/>
      </g>
     </g>
     <g id="text_2">
      <!-- 2 -->
      <g transform="translate(138.822275 318.861344) scale(0.17 -0.17)">
       <defs>
        <path id="DejaVuSans-32" d="M 1228 531 
L 3431 531 
L 3431 0 
L 469 0 
L 469 531 
Q 828 903 1448 1529 
Q 2069 2156 2228 2338 
Q 2531 2678 2651 2914 
Q 2772 3150 2772 3378 
Q 2772 3750 2511 3984 
Q 2250 4219 1831 4219 
Q 1534 4219 1204 4116 
Q 875 4013 500 3803 
L 500 4441 
Q 881 4594 1212 4672 
Q 1544 4750 1819 4750 
Q 2544 4750 2975 4387 
Q 3406 4025 3406 3419 
Q 3406 3131 3298 2873 
Q 3191 2616 2906 2266 
Q 2828 2175 2409 1742 
Q 1991 1309 1228 531 
z
" transform="scale(0.015625)"/>
       </defs>
       <use xlink:href="#DejaVuSans-32"/>
      </g>
     </g>
    </g>
    <g id="xtick_3">
     <g id="line2d_5">
      <path d="M 230.8608 298.944 
L 230.8608 27.648 
" clip-path="url(#p3ea98308e4)" style="fill: none; stroke: #b0b0b0; stroke-width: 0.8; stroke-linecap: square"/>
     </g>
     <g id="line2d_6">
      <g>
       <use xlink:href="#mf51da1ae66" x="230.8608" y="298.944" style="stroke: #000000; stroke-width: 0.8"/>
      </g>
     </g>
     <g id="text_3">
      <!-- 4 -->
      <g transform="translate(225.452675 318.861344) scale(0.17 -0.17)">
       <defs>
        <path id="DejaVuSans-34" d="M 2419 4116 
L 825 1625 
L 2419 1625 
L 2419 4116 
z
M 2253 4666 
L 3047 4666 
L 3047 1625 
L 3713 1625 
L 3713 1100 
L 3047 1100 
L 3047 0 
L 2419 0 
L 2419 1100 
L 313 1100 
L 313 1709 
L 2253 4666 
z
" transform="scale(0.015625)"/>
       </defs>
       <use xlink:href="#DejaVuSans-34"/>
      </g>
     </g>
    </g>
    <g id="xtick_4">
     <g id="line2d_7">
      <path d="M 317.4912 298.944 
L 317.4912 27.648 
" clip-path="url(#p3ea98308e4)" style="fill: none; stroke: #b0b0b0; stroke-width: 0.8; stroke-linecap: square"/>
     </g>
     <g id="line2d_8">
      <g>
       <use xlink:href="#mf51da1ae66" x="317.4912" y="298.944" style="stroke: #000000; stroke-width: 0.8"/>
      </g>
     </g>
     <g id="text_4">
      <!-- 6 -->
      <g transform="translate(312.083075 318.861344) scale(0.17 -0.17)">
       <defs>
        <path id="DejaVuSans-36" d="M 2113 2584 
Q 1688 2584 1439 2293 
Q 1191 2003 1191 1497 
Q 1191 994 1439 701 
Q 1688 409 2113 409 
Q 2538 409 2786 701 
Q 3034 994 3034 1497 
Q 3034 2003 2786 2293 
Q 2538 2584 2113 2584 
z
M 3366 4563 
L 3366 3988 
Q 3128 4100 2886 4159 
Q 2644 4219 2406 4219 
Q 1781 4219 1451 3797 
Q 1122 3375 1075 2522 
Q 1259 2794 1537 2939 
Q 1816 3084 2150 3084 
Q 2853 3084 3261 2657 
Q 3669 2231 3669 1497 
Q 3669 778 3244 343 
Q 2819 -91 2113 -91 
Q 1303 -91 875 529 
Q 447 1150 447 2328 
Q 447 3434 972 4092 
Q 1497 4750 2381 4750 
Q 2619 4750 2861 4703 
Q 3103 4656 3366 4563 
z
" transform="scale(0.015625)"/>
       </defs>
       <use xlink:href="#DejaVuSans-36"/>
      </g>
     </g>
    </g>
    <g id="xtick_5">
     <g id="line2d_9">
      <path d="M 100.9152 298.944 
L 100.9152 27.648 
" clip-path="url(#p3ea98308e4)" style="fill: none; stroke: #b0b0b0; stroke-width: 0.8; stroke-linecap: square"/>
     </g>
     <g id="line2d_10">
      <defs>
       <path id="maa326300c0" d="M 0 0 
L 0 2 
" style="stroke: #000000; stroke-width: 0.6"/>
      </defs>
      <g>
       <use xlink:href="#maa326300c0" x="100.9152" y="298.944" style="stroke: #000000; stroke-width: 0.6"/>
      </g>
     </g>
    </g>
    <g id="xtick_6">
     <g id="line2d_11">
      <path d="M 187.5456 298.944 
L 187.5456 27.648 
" clip-path="url(#p3ea98308e4)" style="fill: none; stroke: #b0b0b0; stroke-width: 0.8; stroke-linecap: square"/>
     </g>
     <g id="line2d_12">
      <g>
       <use xlink:href="#maa326300c0" x="187.5456" y="298.944" style="stroke: #000000; stroke-width: 0.6"/>
      </g>
     </g>
    </g>
    <g id="xtick_7">
     <g id="line2d_13">
      <path d="M 274.176 298.944 
L 274.176 27.648 
" clip-path="url(#p3ea98308e4)" style="fill: none; stroke: #b0b0b0; stroke-width: 0.8; stroke-linecap: square"/>
     </g>
     <g id="line2d_14">
      <g>
       <use xlink:href="#maa326300c0" x="274.176" y="298.944" style="stroke: #000000; stroke-width: 0.6"/>
      </g>
     </g>
    </g>
    <g id="xtick_8">
     <g id="line2d_15">
      <path d="M 360.8064 298.944 
L 360.8064 27.648 
" clip-path="url(#p3ea98308e4)" style="fill: none; stroke: #b0b0b0; stroke-width: 0.8; stroke-linecap: square"/>
     </g>
     <g id="line2d_16">
      <g>
       <use xlink:href="#maa326300c0" x="360.8064" y="298.944" style="stroke: #000000; stroke-width: 0.6"/>
      </g>
     </g>
    </g>
    <g id="text_5">
     <!-- log10(# f-evals / dimension) -->
     <g transform="translate(88.823278 339.314156) scale(0.17 -0.17)">
      <defs>
       <path id="DejaVuSans-6c" d="M 603 4863 
L 1178 4863 
L 1178 0 
L 603 0 
L 603 4863 
z
" transform="scale(0.015625)"/>
       <path id="DejaVuSans-6f" d="M 1959 3097 
Q 1497 3097 1228 2736 
Q 959 2375 959 1747 
Q 959 1119 1226 758 
Q 1494 397 1959 397 
Q 2419 397 2687 759 
Q 2956 1122 2956 1747 
Q 2956 2369 2687 2733 
Q 2419 3097 1959 3097 
z
M 1959 3584 
Q 2709 3584 3137 3096 
Q 3566 2609 3566 1747 
Q 3566 888 3137 398 
Q 2709 -91 1959 -91 
Q 1206 -91 779 398 
Q 353 888 353 1747 
Q 353 2609 779 3096 
Q 1206 3584 1959 3584 
z
" transform="scale(0.015625)"/>
       <path id="DejaVuSans-67" d="M 2906 1791 
Q 2906 2416 2648 2759 
Q 2391 3103 1925 3103 
Q 1463 3103 1205 2759 
Q 947 2416 947 1791 
Q 947 1169 1205 825 
Q 1463 481 1925 481 
Q 2391 481 2648 825 
Q 2906 1169 2906 1791 
z
M 3481 434 
Q 3481 -459 3084 -895 
Q 2688 -1331 1869 -1331 
Q 1566 -1331 1297 -1286 
Q 1028 -1241 775 -1147 
L 775 -588 
Q 1028 -725 1275 -790 
Q 1522 -856 1778 -856 
Q 2344 -856 2625 -561 
Q 2906 -266 2906 331 
L 2906 616 
Q 2728 306 2450 153 
Q 2172 0 1784 0 
Q 1141 0 747 490 
Q 353 981 353 1791 
Q 353 2603 747 3093 
Q 1141 3584 1784 3584 
Q 2172 3584 2450 3431 
Q 2728 3278 2906 2969 
L 2906 3500 
L 3481 3500 
L 3481 434 
z
" transform="scale(0.015625)"/>
       <path id="DejaVuSans-31" d="M 794 531 
L 1825 531 
L 1825 4091 
L 703 3866 
L 703 4441 
L 1819 4666 
L 2450 4666 
L 2450 531 
L 3481 531 
L 3481 0 
L 794 0 
L 794 531 
z
" transform="scale(0.015625)"/>
       <path id="DejaVuSans-28" d="M 1984 4856 
Q 1566 4138 1362 3434 
Q 1159 2731 1159 2009 
Q 1159 1288 1364 580 
Q 1569 -128 1984 -844 
L 1484 -844 
Q 1016 -109 783 600 
Q 550 1309 550 2009 
Q 550 2706 781 3412 
Q 1013 4119 1484 4856 
L 1984 4856 
z
" transform="scale(0.015625)"/>
       <path id="DejaVuSans-23" d="M 3272 2816 
L 2363 2816 
L 2100 1772 
L 3016 1772 
L 3272 2816 
z
M 2803 4594 
L 2478 3297 
L 3391 3297 
L 3719 4594 
L 4219 4594 
L 3897 3297 
L 4872 3297 
L 4872 2816 
L 3775 2816 
L 3519 1772 
L 4513 1772 
L 4513 1294 
L 3397 1294 
L 3072 0 
L 2572 0 
L 2894 1294 
L 1978 1294 
L 1656 0 
L 1153 0 
L 1478 1294 
L 494 1294 
L 494 1772 
L 1594 1772 
L 1856 2816 
L 850 2816 
L 850 3297 
L 1978 3297 
L 2297 4594 
L 2803 4594 
z
" transform="scale(0.015625)"/>
       <path id="DejaVuSans-20" transform="scale(0.015625)"/>
       <path id="DejaVuSans-66" d="M 2375 4863 
L 2375 4384 
L 1825 4384 
Q 1516 4384 1395 4259 
Q 1275 4134 1275 3809 
L 1275 3500 
L 2222 3500 
L 2222 3053 
L 1275 3053 
L 1275 0 
L 697 0 
L 697 3053 
L 147 3053 
L 147 3500 
L 697 3500 
L 697 3744 
Q 697 4328 969 4595 
Q 1241 4863 1831 4863 
L 2375 4863 
z
" transform="scale(0.015625)"/>
       <path id="DejaVuSans-2d" d="M 313 2009 
L 1997 2009 
L 1997 1497 
L 313 1497 
L 313 2009 
z
" transform="scale(0.015625)"/>
       <path id="DejaVuSans-65" d="M 3597 1894 
L 3597 1613 
L 953 1613 
Q 991 1019 1311 708 
Q 1631 397 2203 397 
Q 2534 397 2845 478 
Q 3156 559 3463 722 
L 3463 178 
Q 3153 47 2828 -22 
Q 2503 -91 2169 -91 
Q 1331 -91 842 396 
Q 353 884 353 1716 
Q 353 2575 817 3079 
Q 1281 3584 2069 3584 
Q 2775 3584 3186 3129 
Q 3597 2675 3597 1894 
z
M 3022 2063 
Q 3016 2534 2758 2815 
Q 2500 3097 2075 3097 
Q 1594 3097 1305 2825 
Q 1016 2553 972 2059 
L 3022 2063 
z
" transform="scale(0.015625)"/>
       <path id="DejaVuSans-76" d="M 191 3500 
L 800 3500 
L 1894 563 
L 2988 3500 
L 3597 3500 
L 2284 0 
L 1503 0 
L 191 3500 
z
" transform="scale(0.015625)"/>
       <path id="DejaVuSans-61" d="M 2194 1759 
Q 1497 1759 1228 1600 
Q 959 1441 959 1056 
Q 959 750 1161 570 
Q 1363 391 1709 391 
Q 2188 391 2477 730 
Q 2766 1069 2766 1631 
L 2766 1759 
L 2194 1759 
z
M 3341 1997 
L 3341 0 
L 2766 0 
L 2766 531 
Q 2569 213 2275 61 
Q 1981 -91 1556 -91 
Q 1019 -91 701 211 
Q 384 513 384 1019 
Q 384 1609 779 1909 
Q 1175 2209 1959 2209 
L 2766 2209 
L 2766 2266 
Q 2766 2663 2505 2880 
Q 2244 3097 1772 3097 
Q 1472 3097 1187 3025 
Q 903 2953 641 2809 
L 641 3341 
Q 956 3463 1253 3523 
Q 1550 3584 1831 3584 
Q 2591 3584 2966 3190 
Q 3341 2797 3341 1997 
z
" transform="scale(0.015625)"/>
       <path id="DejaVuSans-73" d="M 2834 3397 
L 2834 2853 
Q 2591 2978 2328 3040 
Q 2066 3103 1784 3103 
Q 1356 3103 1142 2972 
Q 928 2841 928 2578 
Q 928 2378 1081 2264 
Q 1234 2150 1697 2047 
L 1894 2003 
Q 2506 1872 2764 1633 
Q 3022 1394 3022 966 
Q 3022 478 2636 193 
Q 2250 -91 1575 -91 
Q 1294 -91 989 -36 
Q 684 19 347 128 
L 347 722 
Q 666 556 975 473 
Q 1284 391 1588 391 
Q 1994 391 2212 530 
Q 2431 669 2431 922 
Q 2431 1156 2273 1281 
Q 2116 1406 1581 1522 
L 1381 1569 
Q 847 1681 609 1914 
Q 372 2147 372 2553 
Q 372 3047 722 3315 
Q 1072 3584 1716 3584 
Q 2034 3584 2315 3537 
Q 2597 3491 2834 3397 
z
" transform="scale(0.015625)"/>
       <path id="DejaVuSans-2f" d="M 1625 4666 
L 2156 4666 
L 531 -594 
L 0 -594 
L 1625 4666 
z
" transform="scale(0.015625)"/>
       <path id="DejaVuSans-64" d="M 2906 2969 
L 2906 4863 
L 3481 4863 
L 3481 0 
L 2906 0 
L 2906 525 
Q 2725 213 2448 61 
Q 2172 -91 1784 -91 
Q 1150 -91 751 415 
Q 353 922 353 1747 
Q 353 2572 751 3078 
Q 1150 3584 1784 3584 
Q 2172 3584 2448 3432 
Q 2725 3281 2906 2969 
z
M 947 1747 
Q 947 1113 1208 752 
Q 1469 391 1925 391 
Q 2381 391 2643 752 
Q 2906 1113 2906 1747 
Q 2906 2381 2643 2742 
Q 2381 3103 1925 3103 
Q 1469 3103 1208 2742 
Q 947 2381 947 1747 
z
" transform="scale(0.015625)"/>
       <path id="DejaVuSans-69" d="M 603 3500 
L 1178 3500 
L 1178 0 
L 603 0 
L 603 3500 
z
M 603 4863 
L 1178 4863 
L 1178 4134 
L 603 4134 
L 603 4863 
z
" transform="scale(0.015625)"/>
       <path id="DejaVuSans-6d" d="M 3328 2828 
Q 3544 3216 3844 3400 
Q 4144 3584 4550 3584 
Q 5097 3584 5394 3201 
Q 5691 2819 5691 2113 
L 5691 0 
L 5113 0 
L 5113 2094 
Q 5113 2597 4934 2840 
Q 4756 3084 4391 3084 
Q 3944 3084 3684 2787 
Q 3425 2491 3425 1978 
L 3425 0 
L 2847 0 
L 2847 2094 
Q 2847 2600 2669 2842 
Q 2491 3084 2119 3084 
Q 1678 3084 1418 2786 
Q 1159 2488 1159 1978 
L 1159 0 
L 581 0 
L 581 3500 
L 1159 3500 
L 1159 2956 
Q 1356 3278 1631 3431 
Q 1906 3584 2284 3584 
Q 2666 3584 2933 3390 
Q 3200 3197 3328 2828 
z
" transform="scale(0.015625)"/>
       <path id="DejaVuSans-6e" d="M 3513 2113 
L 3513 0 
L 2938 0 
L 2938 2094 
Q 2938 2591 2744 2837 
Q 2550 3084 2163 3084 
Q 1697 3084 1428 2787 
Q 1159 2491 1159 1978 
L 1159 0 
L 581 0 
L 581 3500 
L 1159 3500 
L 1159 2956 
Q 1366 3272 1645 3428 
Q 1925 3584 2291 3584 
Q 2894 3584 3203 3211 
Q 3513 2838 3513 2113 
z
" transform="scale(0.015625)"/>
       <path id="DejaVuSans-29" d="M 513 4856 
L 1013 4856 
Q 1481 4119 1714 3412 
Q 1947 2706 1947 2009 
Q 1947 1309 1714 600 
Q 1481 -109 1013 -844 
L 513 -844 
Q 928 -128 1133 580 
Q 1338 1288 1338 2009 
Q 1338 2731 1133 3434 
Q 928 4138 513 4856 
z
" transform="scale(0.015625)"/>
      </defs>
      <use xlink:href="#DejaVuSans-6c"/>
      <use xlink:href="#DejaVuSans-6f" x="27.783203"/>
      <use xlink:href="#DejaVuSans-67" x="88.964844"/>
      <use xlink:href="#DejaVuSans-31" x="152.441406"/>
      <use xlink:href="#DejaVuSans-30" x="216.064453"/>
      <use xlink:href="#DejaVuSans-28" x="279.6875"/>
      <use xlink:href="#DejaVuSans-23" x="318.701172"/>
      <use xlink:href="#DejaVuSans-20" x="402.490234"/>
      <use xlink:href="#DejaVuSans-66" x="434.277344"/>
      <use xlink:href="#DejaVuSans-2d" x="463.982422"/>
      <use xlink:href="#DejaVuSans-65" x="500.066406"/>
      <use xlink:href="#DejaVuSans-76" x="561.589844"/>
      <use xlink:href="#DejaVuSans-61" x="620.769531"/>
      <use xlink:href="#DejaVuSans-6c" x="682.048828"/>
      <use xlink:href="#DejaVuSans-73" x="709.832031"/>
      <use xlink:href="#DejaVuSans-20" x="761.931641"/>
      <use xlink:href="#DejaVuSans-2f" x="793.71875"/>
      <use xlink:href="#DejaVuSans-20" x="827.410156"/>
      <use xlink:href="#DejaVuSans-64" x="859.197266"/>
      <use xlink:href="#DejaVuSans-69" x="922.673828"/>
      <use xlink:href="#DejaVuSans-6d" x="950.457031"/>
      <use xlink:href="#DejaVuSans-65" x="1047.869141"/>
      <use xlink:href="#DejaVuSans-6e" x="1109.392578"/>
      <use xlink:href="#DejaVuSans-73" x="1172.771484"/>
      <use xlink:href="#DejaVuSans-69" x="1224.871094"/>
      <use xlink:href="#DejaVuSans-6f" x="1252.654297"/>
      <use xlink:href="#DejaVuSans-6e" x="1313.835938"/>
      <use xlink:href="#DejaVuSans-29" x="1377.214844"/>
     </g>
    </g>
   </g>
   <g id="matplotlib.axis_2">
    <g id="ytick_1">
     <g id="line2d_17">
      <path d="M 57.6 298.944 
L 360.8064 298.944 
" clip-path="url(#p3ea98308e4)" style="fill: none; stroke: #b0b0b0; stroke-width: 0.8; stroke-linecap: square"/>
     </g>
     <g id="line2d_18">
      <defs>
       <path id="m1f2eb18726" d="M 0 0 
L -3.5 0 
" style="stroke: #000000; stroke-width: 0.8"/>
      </defs>
      <g>
       <use xlink:href="#m1f2eb18726" x="57.6" y="298.944" style="stroke: #000000; stroke-width: 0.8"/>
      </g>
     </g>
     <g id="text_6">
      <!-- 0.0 -->
      <g transform="translate(25.155 305.02275) scale(0.16 -0.16)">
       <defs>
        <path id="DejaVuSans-2e" d="M 684 794 
L 1344 794 
L 1344 0 
L 684 0 
L 684 794 
z
" transform="scale(0.015625)"/>
       </defs>
       <use xlink:href="#DejaVuSans-30"/>
       <use xlink:href="#DejaVuSans-2e" x="63.623047"/>
       <use xlink:href="#DejaVuSans-30" x="95.410156"/>
      </g>
     </g>
    </g>
    <g id="ytick_2">
     <g id="line2d_19">
      <path d="M 57.6 244.6848 
L 360.8064 244.6848 
" clip-path="url(#p3ea98308e4)" style="fill: none; stroke: #b0b0b0; stroke-width: 0.8; stroke-linecap: square"/>
     </g>
     <g id="line2d_20">
      <g>
       <use xlink:href="#m1f2eb18726" x="57.6" y="244.6848" style="stroke: #000000; stroke-width: 0.8"/>
      </g>
     </g>
     <g id="text_7">
      <!-- 0.2 -->
      <g transform="translate(25.155 250.76355) scale(0.16 -0.16)">
       <use xlink:href="#DejaVuSans-30"/>
       <use xlink:href="#DejaVuSans-2e" x="63.623047"/>
       <use xlink:href="#DejaVuSans-32" x="95.410156"/>
      </g>
     </g>
    </g>
    <g id="ytick_3">
     <g id="line2d_21">
      <path d="M 57.6 190.4256 
L 360.8064 190.4256 
" clip-path="url(#p3ea98308e4)" style="fill: none; stroke: #b0b0b0; stroke-width: 0.8; stroke-linecap: square"/>
     </g>
     <g id="line2d_22">
      <g>
       <use xlink:href="#m1f2eb18726" x="57.6" y="190.4256" style="stroke: #000000; stroke-width: 0.8"/>
      </g>
     </g>
     <g id="text_8">
      <!-- 0.4 -->
      <g transform="translate(25.155 196.50435) scale(0.16 -0.16)">
       <use xlink:href="#DejaVuSans-30"/>
       <use xlink:href="#DejaVuSans-2e" x="63.623047"/>
       <use xlink:href="#DejaVuSans-34" x="95.410156"/>
      </g>
     </g>
    </g>
    <g id="ytick_4">
     <g id="line2d_23">
      <path d="M 57.6 136.1664 
L 360.8064 136.1664 
" clip-path="url(#p3ea98308e4)" style="fill: none; stroke: #b0b0b0; stroke-width: 0.8; stroke-linecap: square"/>
     </g>
     <g id="line2d_24">
      <g>
       <use xlink:href="#m1f2eb18726" x="57.6" y="136.1664" style="stroke: #000000; stroke-width: 0.8"/>
      </g>
     </g>
     <g id="text_9">
      <!-- 0.6 -->
      <g transform="translate(25.155 142.24515) scale(0.16 -0.16)">
       <use xlink:href="#DejaVuSans-30"/>
       <use xlink:href="#DejaVuSans-2e" x="63.623047"/>
       <use xlink:href="#DejaVuSans-36" x="95.410156"/>
      </g>
     </g>
    </g>
    <g id="ytick_5">
     <g id="line2d_25">
      <path d="M 57.6 81.9072 
L 360.8064 81.9072 
" clip-path="url(#p3ea98308e4)" style="fill: none; stroke: #b0b0b0; stroke-width: 0.8; stroke-linecap: square"/>
     </g>
     <g id="line2d_26">
      <g>
       <use xlink:href="#m1f2eb18726" x="57.6" y="81.9072" style="stroke: #000000; stroke-width: 0.8"/>
      </g>
     </g>
     <g id="text_10">
      <!-- 0.8 -->
      <g transform="translate(25.155 87.98595) scale(0.16 -0.16)">
       <defs>
        <path id="DejaVuSans-38" d="M 2034 2216 
Q 1584 2216 1326 1975 
Q 1069 1734 1069 1313 
Q 1069 891 1326 650 
Q 1584 409 2034 409 
Q 2484 409 2743 651 
Q 3003 894 3003 1313 
Q 3003 1734 2745 1975 
Q 2488 2216 2034 2216 
z
M 1403 2484 
Q 997 2584 770 2862 
Q 544 3141 544 3541 
Q 544 4100 942 4425 
Q 1341 4750 2034 4750 
Q 2731 4750 3128 4425 
Q 3525 4100 3525 3541 
Q 3525 3141 3298 2862 
Q 3072 2584 2669 2484 
Q 3125 2378 3379 2068 
Q 3634 1759 3634 1313 
Q 3634 634 3220 271 
Q 2806 -91 2034 -91 
Q 1263 -91 848 271 
Q 434 634 434 1313 
Q 434 1759 690 2068 
Q 947 2378 1403 2484 
z
M 1172 3481 
Q 1172 3119 1398 2916 
Q 1625 2713 2034 2713 
Q 2441 2713 2670 2916 
Q 2900 3119 2900 3481 
Q 2900 3844 2670 4047 
Q 2441 4250 2034 4250 
Q 1625 4250 1398 4047 
Q 1172 3844 1172 3481 
z
" transform="scale(0.015625)"/>
       </defs>
       <use xlink:href="#DejaVuSans-30"/>
       <use xlink:href="#DejaVuSans-2e" x="63.623047"/>
       <use xlink:href="#DejaVuSans-38" x="95.410156"/>
      </g>
     </g>
    </g>
    <g id="ytick_6">
     <g id="line2d_27">
      <path d="M 57.6 27.648 
L 360.8064 27.648 
" clip-path="url(#p3ea98308e4)" style="fill: none; stroke: #b0b0b0; stroke-width: 0.8; stroke-linecap: square"/>
     </g>
     <g id="line2d_28">
      <g>
       <use xlink:href="#m1f2eb18726" x="57.6" y="27.648" style="stroke: #000000; stroke-width: 0.8"/>
      </g>
     </g>
     <g id="text_11">
      <!-- 1.0 -->
      <g transform="translate(25.155 33.72675) scale(0.16 -0.16)">
       <use xlink:href="#DejaVuSans-31"/>
       <use xlink:href="#DejaVuSans-2e" x="63.623047"/>
       <use xlink:href="#DejaVuSans-30" x="95.410156"/>
      </g>
     </g>
    </g>
    <g id="text_12">
     <!-- Fraction of function,target pairs -->
     <g transform="translate(17.619531 297.681) rotate(-90) scale(0.17 -0.17)">
      <defs>
       <path id="DejaVuSans-46" d="M 628 4666 
L 3309 4666 
L 3309 4134 
L 1259 4134 
L 1259 2759 
L 3109 2759 
L 3109 2228 
L 1259 2228 
L 1259 0 
L 628 0 
L 628 4666 
z
" transform="scale(0.015625)"/>
       <path id="DejaVuSans-72" d="M 2631 2963 
Q 2534 3019 2420 3045 
Q 2306 3072 2169 3072 
Q 1681 3072 1420 2755 
Q 1159 2438 1159 1844 
L 1159 0 
L 581 0 
L 581 3500 
L 1159 3500 
L 1159 2956 
Q 1341 3275 1631 3429 
Q 1922 3584 2338 3584 
Q 2397 3584 2469 3576 
Q 2541 3569 2628 3553 
L 2631 2963 
z
" transform="scale(0.015625)"/>
       <path id="DejaVuSans-63" d="M 3122 3366 
L 3122 2828 
Q 2878 2963 2633 3030 
Q 2388 3097 2138 3097 
Q 1578 3097 1268 2742 
Q 959 2388 959 1747 
Q 959 1106 1268 751 
Q 1578 397 2138 397 
Q 2388 397 2633 464 
Q 2878 531 3122 666 
L 3122 134 
Q 2881 22 2623 -34 
Q 2366 -91 2075 -91 
Q 1284 -91 818 406 
Q 353 903 353 1747 
Q 353 2603 823 3093 
Q 1294 3584 2113 3584 
Q 2378 3584 2631 3529 
Q 2884 3475 3122 3366 
z
" transform="scale(0.015625)"/>
       <path id="DejaVuSans-74" d="M 1172 4494 
L 1172 3500 
L 2356 3500 
L 2356 3053 
L 1172 3053 
L 1172 1153 
Q 1172 725 1289 603 
Q 1406 481 1766 481 
L 2356 481 
L 2356 0 
L 1766 0 
Q 1100 0 847 248 
Q 594 497 594 1153 
L 594 3053 
L 172 3053 
L 172 3500 
L 594 3500 
L 594 4494 
L 1172 4494 
z
" transform="scale(0.015625)"/>
       <path id="DejaVuSans-75" d="M 544 1381 
L 544 3500 
L 1119 3500 
L 1119 1403 
Q 1119 906 1312 657 
Q 1506 409 1894 409 
Q 2359 409 2629 706 
Q 2900 1003 2900 1516 
L 2900 3500 
L 3475 3500 
L 3475 0 
L 2900 0 
L 2900 538 
Q 2691 219 2414 64 
Q 2138 -91 1772 -91 
Q 1169 -91 856 284 
Q 544 659 544 1381 
z
M 1991 3584 
L 1991 3584 
z
" transform="scale(0.015625)"/>
       <path id="DejaVuSans-2c" d="M 750 794 
L 1409 794 
L 1409 256 
L 897 -744 
L 494 -744 
L 750 256 
L 750 794 
z
" transform="scale(0.015625)"/>
       <path id="DejaVuSans-70" d="M 1159 525 
L 1159 -1331 
L 581 -1331 
L 581 3500 
L 1159 3500 
L 1159 2969 
Q 1341 3281 1617 3432 
Q 1894 3584 2278 3584 
Q 2916 3584 3314 3078 
Q 3713 2572 3713 1747 
Q 3713 922 3314 415 
Q 2916 -91 2278 -91 
Q 1894 -91 1617 61 
Q 1341 213 1159 525 
z
M 3116 1747 
Q 3116 2381 2855 2742 
Q 2594 3103 2138 3103 
Q 1681 3103 1420 2742 
Q 1159 2381 1159 1747 
Q 1159 1113 1420 752 
Q 1681 391 2138 391 
Q 2594 391 2855 752 
Q 3116 1113 3116 1747 
z
" transform="scale(0.015625)"/>
      </defs>
      <use xlink:href="#DejaVuSans-46"/>
      <use xlink:href="#DejaVuSans-72" x="50.269531"/>
      <use xlink:href="#DejaVuSans-61" x="91.382812"/>
      <use xlink:href="#DejaVuSans-63" x="152.662109"/>
      <use xlink:href="#DejaVuSans-74" x="207.642578"/>
      <use xlink:href="#DejaVuSans-69" x="246.851562"/>
      <use xlink:href="#DejaVuSans-6f" x="274.634766"/>
      <use xlink:href="#DejaVuSans-6e" x="335.816406"/>
      <use xlink:href="#DejaVuSans-20" x="399.195312"/>
      <use xlink:href="#DejaVuSans-6f" x="430.982422"/>
      <use xlink:href="#DejaVuSans-66" x="492.164062"/>
      <use xlink:href="#DejaVuSans-20" x="527.369141"/>
      <use xlink:href="#DejaVuSans-66" x="559.15625"/>
      <use xlink:href="#DejaVuSans-75" x="594.361328"/>
      <use xlink:href="#DejaVuSans-6e" x="657.740234"/>
      <use xlink:href="#DejaVuSans-63" x="721.119141"/>
      <use xlink:href="#DejaVuSans-74" x="776.099609"/>
      <use xlink:href="#DejaVuSans-69" x="815.308594"/>
      <use xlink:href="#DejaVuSans-6f" x="843.091797"/>
      <use xlink:href="#DejaVuSans-6e" x="904.273438"/>
      <use xlink:href="#DejaVuSans-2c" x="967.652344"/>
      <use xlink:href="#DejaVuSans-74" x="999.439453"/>
      <use xlink:href="#DejaVuSans-61" x="1038.648438"/>
      <use xlink:href="#DejaVuSans-72" x="1099.927734"/>
      <use xlink:href="#DejaVuSans-67" x="1139.291016"/>
      <use xlink:href="#DejaVuSans-65" x="1202.767578"/>
      <use xlink:href="#DejaVuSans-74" x="1264.291016"/>
      <use xlink:href="#DejaVuSans-20" x="1303.5"/>
      <use xlink:href="#DejaVuSans-70" x="1335.287109"/>
      <use xlink:href="#DejaVuSans-61" x="1398.763672"/>
      <use xlink:href="#DejaVuSans-69" x="1460.042969"/>
      <use xlink:href="#DejaVuSans-72" x="1487.826172"/>
      <use xlink:href="#DejaVuSans-73" x="1528.939453"/>
     </g>
    </g>
   </g>
   <g id="line2d_29">
    <defs>
     <path id="m53c7c08d7f" d="M 0 1.5 
C 0.397805 1.5 0.77937 1.341951 1.06066 1.06066 
C 1.341951 0.77937 1.5 0.397805 1.5 0 
C 1.5 -0.397805 1.341951 -0.77937 1.06066 -1.06066 
C 0.77937 -1.341951 0.397805 -1.5 0 -1.5 
C -0.397805 -1.5 -0.77937 -1.341951 -1.06066 -1.06066 
C -1.341951 -0.77937 -1.5 -0.397805 -1.5 0 
C -1.5 0.397805 -1.341951 0.77937 -1.06066 1.06066 
C -0.77937 1.341951 -0.397805 1.5 0 1.5 
z
" style="stroke: #00bfbf"/>
    </defs>
    <g>
     <use xlink:href="#m53c7c08d7f" x="186.580694" y="94.068745" style="fill: #00bfbf; stroke: #00bfbf"/>
     <use xlink:href="#m53c7c08d7f" x="186.580694" y="94.068745" style="fill: #00bfbf; stroke: #00bfbf"/>
    </g>
   </g>
   <g id="line2d_30">
    <path d="M 44.560826 298.944 
L 44.560826 281.637186 
L 57.6 281.637186 
L 57.6 276.959669 
L 83.678349 276.959669 
L 83.678349 270.411145 
L 85.894031 270.411145 
L 85.894031 268.072386 
L 94.205591 268.072386 
L 94.205591 261.991614 
L 95.503454 261.991614 
L 95.503454 261.523862 
L 101.833019 261.523862 
L 101.833019 254.975338 
L 102.708132 254.975338 
L 102.708132 252.168828 
L 106.560633 252.168828 
L 106.560633 249.362317 
L 107.244765 249.362317 
L 107.244765 248.894566 
L 110.335561 248.894566 
L 110.335561 246.555807 
L 113.478107 246.555807 
L 113.478107 246.088055 
L 116.988079 246.088055 
L 116.988079 240.007283 
L 117.384126 240.007283 
L 117.384126 237.200772 
L 119.944983 237.200772 
L 119.944983 234.862014 
L 123.657621 234.862014 
L 123.657621 232.991007 
L 124.210942 232.991007 
L 124.210942 225.039228 
L 125.779479 225.039228 
L 125.779479 220.829462 
L 126.993549 220.829462 
L 126.993549 220.36171 
L 127.458055 220.36171 
L 127.458055 218.958455 
L 127.911368 218.958455 
L 127.911368 218.490703 
L 129.209231 218.490703 
L 129.209231 218.022952 
L 130.226319 218.022952 
L 130.226319 215.684193 
L 130.4233 215.684193 
L 130.4233 215.216441 
L 130.811181 215.216441 
L 130.811181 214.74869 
L 132.109044 214.74869 
L 132.109044 209.603421 
L 133.490329 209.603421 
L 133.490329 207.264662 
L 134.620977 207.264662 
L 134.620977 204.458152 
L 134.931919 204.458152 
L 134.931919 200.716138 
L 135.835047 200.716138 
L 135.835047 200.248386 
L 136.555884 200.248386 
L 136.555884 199.780634 
L 138.438609 199.780634 
L 138.438609 199.312883 
L 139.796097 199.312883 
L 139.796097 198.377379 
L 140.382174 198.377379 
L 140.382174 196.038621 
L 141.610664 196.038621 
L 141.718467 192.296607 
L 142.143605 192.296607 
L 142.143605 191.828855 
L 142.559347 191.828855 
L 142.559347 191.361103 
L 143.265494 191.361103 
L 143.265494 190.4256 
L 143.754133 190.4256 
L 143.754133 189.490097 
L 144.2304 189.490097 
L 144.324223 177.796303 
L 145.058426 177.796303 
L 145.058426 177.328552 
L 145.765046 177.328552 
L 145.765046 175.925297 
L 146.023332 175.925297 
L 146.023332 174.989793 
L 146.362288 174.989793 
L 146.362288 174.05429 
L 146.859539 174.05429 
L 146.859539 172.651034 
L 148.352679 172.651034 
L 148.352679 170.312276 
L 149.165879 170.312276 
L 149.165879 169.844524 
L 149.945377 169.844524 
L 149.945377 169.376772 
L 150.152479 169.376772 
L 150.152479 168.441269 
L 150.425115 168.441269 
L 150.425115 167.505766 
L 151.920429 167.505766 
L 151.920429 166.10251 
L 152.953957 166.10251 
L 152.953957 165.634759 
L 153.764426 165.634759 
L 153.764426 165.167007 
L 153.989717 165.167007 
L 153.989717 164.699255 
L 154.101358 164.699255 
L 154.101358 163.296 
L 154.486967 163.296 
L 154.486967 161.424993 
L 154.757642 161.424993 
L 154.811312 158.150731 
L 156.055505 158.150731 
L 156.055505 157.215228 
L 156.255099 157.215228 
L 156.354107 155.344221 
L 156.452597 155.344221 
L 156.452597 154.876469 
L 157.222487 154.876469 
L 157.222487 153.473214 
L 157.456756 153.473214 
L 157.456756 152.53771 
L 157.871225 152.53771 
L 157.871225 151.134455 
L 158.542339 151.134455 
L 158.542339 150.198952 
L 158.804221 150.198952 
L 158.804221 149.7312 
L 159.485256 149.7312 
L 159.527013 148.327945 
L 159.693121 148.327945 
L 159.734419 146.92469 
L 160.581385 146.92469 
L 160.660094 144.118179 
L 160.933013 144.118179 
L 160.933013 143.182676 
L 161.125559 143.182676 
L 161.125559 140.843917 
L 161.986735 140.843917 
L 162.05979 138.505159 
L 163.053839 138.505159 
L 163.053839 137.101903 
L 164.09639 137.101903 
L 164.09639 136.634152 
L 165.422585 136.634152 
L 165.422585 136.1664 
L 166.286609 136.1664 
L 166.286609 135.698648 
L 166.575579 135.698648 
L 166.632844 134.295393 
L 166.860176 134.295393 
L 166.860176 133.35989 
L 167.689013 133.35989 
L 167.742992 132.424386 
L 168.586228 132.424386 
L 168.586228 131.488883 
L 168.968849 131.488883 
L 168.968849 131.021131 
L 169.119745 131.021131 
L 169.144777 128.682372 
L 169.343842 128.682372 
L 169.343842 127.746869 
L 169.904695 127.746869 
L 169.904695 127.279117 
L 170.425955 127.279117 
L 170.425955 126.343614 
L 170.542436 126.343614 
L 170.542436 125.875862 
L 171.20416 125.875862 
L 171.20416 124.940359 
L 171.581513 124.940359 
L 171.581513 124.472607 
L 172.144386 124.472607 
L 172.144386 124.004855 
L 173.855707 124.004855 
L 173.855707 123.069352 
L 174.164733 123.069352 
L 174.164733 122.133848 
L 174.842022 122.133848 
L 174.878944 121.198345 
L 175.0442 121.198345 
L 175.098964 119.79509 
L 175.567027 119.79509 
L 175.567027 119.327338 
L 175.954182 119.327338 
L 175.954182 118.391834 
L 176.299358 118.391834 
L 176.299358 117.924083 
L 176.604692 117.924083 
L 176.604692 116.988579 
L 176.805529 116.988579 
L 176.805529 116.520828 
L 177.053597 116.520828 
L 177.053597 116.053076 
L 177.508083 116.053076 
L 177.572122 115.117572 
L 177.983147 115.117572 
L 177.983147 114.182069 
L 178.431246 114.182069 
L 178.537828 111.84331 
L 179.427429 111.84331 
L 179.427429 110.907807 
L 179.686307 110.907807 
L 179.729109 109.504552 
L 179.927575 109.504552 
L 179.927575 108.569048 
L 180.123969 108.569048 
L 180.193616 107.165793 
L 180.387266 107.165793 
L 180.387266 106.23029 
L 180.768686 106.23029 
L 180.795637 104.827034 
L 181.405079 104.827034 
L 181.405079 104.359283 
L 181.522042 104.359283 
L 181.522042 103.423779 
L 182.196455 103.423779 
L 182.196455 102.488276 
L 182.395389 102.488276 
L 182.395389 102.020524 
L 182.811266 102.020524 
L 182.811266 101.085021 
L 183.324394 101.085021 
L 183.324394 100.149517 
L 183.569995 100.149517 
L 183.569995 99.681766 
L 184.108322 99.681766 
L 184.108322 99.214014 
L 184.936672 99.214014 
L 185.022915 97.810759 
L 185.076616 97.810759 
L 185.140856 96.407503 
L 185.574053 96.407503 
L 185.574053 95.472 
L 185.946366 95.472 
L 185.946366 94.536497 
L 186.580694 94.536497 
L 186.580694 94.068745 
L 360.8064 94.068745 
L 360.8064 94.068745 
" style="fill: none; stroke: #00bfbf; stroke-width: 1.5; stroke-linecap: square"/>
   </g>
   <g id="line2d_31">
    <defs>
     <path id="mc575361360" d="M -6 0 
L 6 0 
M 0 6 
L 0 -6 
" style="stroke: #00bfbf; stroke-width: 1.5"/>
    </defs>
    <g>
     <use xlink:href="#mc575361360" x="113.478107" y="246.088055" style="fill-opacity: 0; stroke: #00bfbf; stroke-width: 1.5"/>
     <use xlink:href="#mc575361360" x="148.352679" y="172.651034" style="fill-opacity: 0; stroke: #00bfbf; stroke-width: 1.5"/>
     <use xlink:href="#mc575361360" x="182.395389" y="102.020524" style="fill-opacity: 0; stroke: #00bfbf; stroke-width: 1.5"/>
     <use xlink:href="#mc575361360" x="186.580694" y="94.068745" style="fill-opacity: 0; stroke: #00bfbf; stroke-width: 1.5"/>
     <use xlink:href="#mc575361360" x="186.580694" y="94.068745" style="fill-opacity: 0; stroke: #00bfbf; stroke-width: 1.5"/>
     <use xlink:href="#mc575361360" x="360.8064" y="94.068745" style="fill-opacity: 0; stroke: #00bfbf; stroke-width: 1.5"/>
    </g>
   </g>
   <g id="line2d_32">
    <path style="fill: none; stroke: #00bfbf; stroke-width: 1.5; stroke-linecap: square"/>
    <g/>
   </g>
   <g id="line2d_33">
    <path d="M 187.489081 94.068745 
" clip-path="url(#p3ea98308e4)" style="fill: none; stroke: #00bfbf; stroke-width: 1.5; stroke-linecap: square"/>
    <defs>
     <path id="mccfb3d4acc" d="M -12 12 
L 12 -12 
M -12 -12 
L 12 12 
" style="stroke: #00bfbf"/>
    </defs>
    <g clip-path="url(#p3ea98308e4)">
     <use xlink:href="#mccfb3d4acc" x="187.489081" y="94.068745" style="fill: #00bfbf; stroke: #00bfbf"/>
    </g>
   </g>
   <g id="line2d_34">
    <defs>
     <path id="mf586e6d0df" d="M 0 1.5 
C 0.397805 1.5 0.77937 1.341951 1.06066 1.06066 
C 1.341951 0.77937 1.5 0.397805 1.5 0 
C 1.5 -0.397805 1.341951 -0.77937 1.06066 -1.06066 
C 0.77937 -1.341951 0.397805 -1.5 0 -1.5 
C -0.397805 -1.5 -0.77937 -1.341951 -1.06066 -1.06066 
C -1.341951 -0.77937 -1.5 -0.397805 -1.5 0 
C -1.5 0.397805 -1.341951 0.77937 -1.06066 1.06066 
C -0.77937 1.341951 -0.397805 1.5 0 1.5 
z
" style="stroke: #008000"/>
    </defs>
    <g>
     <use xlink:href="#mf586e6d0df" x="187.261289" y="107.633545" style="fill: #008000; stroke: #008000"/>
     <use xlink:href="#mf586e6d0df" x="187.261289" y="107.633545" style="fill: #008000; stroke: #008000"/>
    </g>
   </g>
   <g id="line2d_35">
    <path d="M 36.933397 298.944 
L 36.933397 289.588966 
L 49.972572 289.588966 
L 49.972572 287.717959 
L 76.050921 287.717959 
L 76.050921 286.314703 
L 86.578163 286.314703 
L 86.578163 277.895172 
L 89.090095 277.895172 
L 89.090095 275.088662 
L 96.717523 275.088662 
L 96.717523 274.62091 
L 98.223251 274.62091 
L 98.223251 272.282152 
L 100.9152 272.282152 
L 100.9152 267.604634 
L 105.36204 267.604634 
L 105.36204 265.733628 
L 106.326946 265.733628 
L 106.326946 262.927117 
L 111.262425 262.927117 
L 111.262425 260.588359 
L 111.97238 260.588359 
L 111.97238 260.120607 
L 115.168444 260.120607 
L 115.168444 259.185103 
L 115.747307 259.185103 
L 115.747307 254.507586 
L 116.854188 254.507586 
L 116.854188 253.572083 
L 117.384126 253.572083 
L 117.384126 251.233324 
L 118.401214 251.233324 
L 118.401214 249.362317 
L 118.889854 249.362317 
L 118.889854 245.152552 
L 119.366121 245.152552 
L 119.366121 242.813793 
L 120.28394 242.813793 
L 120.28394 241.410538 
L 120.726585 241.410538 
L 120.726585 238.604028 
L 121.159053 238.604028 
L 121.159053 237.668524 
L 121.371615 237.668524 
L 121.371615 236.733021 
L 122.19863 236.733021 
L 122.19863 236.265269 
L 122.399825 236.265269 
L 122.399825 233.92651 
L 122.795872 233.92651 
L 122.795872 232.991007 
L 123.183753 232.991007 
L 123.183753 232.055503 
L 125.011554 232.055503 
L 125.011554 230.652248 
L 125.35673 230.652248 
L 125.35673 230.184497 
L 126.192937 230.184497 
L 126.192937 229.248993 
L 126.677381 229.248993 
L 126.677381 228.31349 
L 127.149662 228.31349 
L 127.149662 227.377986 
L 127.610376 227.377986 
L 127.610376 226.442483 
L 128.060076 226.442483 
L 128.060076 225.506979 
L 128.786481 225.506979 
L 128.786481 224.103724 
L 129.348062 224.103724 
L 129.348062 222.700469 
L 130.292209 222.700469 
L 130.292209 221.764966 
L 130.553485 221.764966 
L 130.553485 220.829462 
L 131.440389 220.829462 
L 131.440389 219.893959 
L 131.808053 219.893959 
L 131.808053 218.958455 
L 132.405295 218.958455 
L 132.405295 218.022952 
L 132.638982 218.022952 
L 132.638982 217.087448 
L 132.984158 217.087448 
L 132.984158 216.619697 
L 133.545739 216.619697 
L 133.545739 215.216441 
L 133.874812 215.216441 
L 133.874812 214.74869 
L 136.508678 214.74869 
L 136.508678 214.280938 
L 137.520791 214.280938 
L 137.520791 212.409931 
L 137.875736 212.409931 
L 137.875736 211.474428 
L 138.481218 211.474428 
L 138.481218 211.006676 
L 138.650692 211.006676 
L 138.650692 210.538924 
L 139.313723 210.538924 
L 139.313723 210.071172 
L 139.475893 210.071172 
L 139.475893 206.329159 
L 139.716555 206.329159 
L 139.716555 205.861407 
L 140.110942 205.861407 
L 140.110942 205.393655 
L 140.800648 205.393655 
L 140.800648 204.925903 
L 141.246793 204.925903 
L 141.246793 203.9904 
L 141.465959 203.9904 
L 141.538451 202.119393 
L 141.754265 202.119393 
L 141.754265 201.651641 
L 142.865233 201.651641 
L 142.865233 201.18389 
L 143.657415 201.18389 
L 143.657415 200.716138 
L 144.16759 200.716138 
L 144.16759 199.780634 
L 145.0284 199.780634 
L 145.0284 199.312883 
L 145.503164 199.312883 
L 145.503164 198.377379 
L 145.908976 198.377379 
L 145.966241 197.441876 
L 147.397049 197.441876 
L 147.397049 196.974124 
L 147.712333 196.974124 
L 147.816265 195.103117 
L 147.919625 195.103117 
L 147.919625 194.167614 
L 148.32748 194.167614 
L 148.428077 191.361103 
L 148.726679 191.361103 
L 148.726679 190.893352 
L 149.500528 190.893352 
L 149.500528 190.4256 
L 149.875833 190.4256 
L 149.875833 189.957848 
L 150.106653 189.957848 
L 150.106653 188.554593 
L 150.243797 188.554593 
L 150.243797 188.086841 
L 150.515122 188.086841 
L 150.515122 187.151338 
L 150.8268 187.151338 
L 150.8268 185.280331 
L 151.647641 185.280331 
L 151.689867 183.877076 
L 152.230346 183.877076 
L 152.230346 183.409324 
L 152.715833 183.409324 
L 152.715833 182.473821 
L 153.839823 182.473821 
L 153.839823 182.006069 
L 153.952355 182.006069 
L 153.952355 180.602814 
L 154.24919 180.602814 
L 154.24919 180.135062 
L 154.721776 180.135062 
L 154.721776 178.731807 
L 155.460959 178.731807 
L 155.460959 178.264055 
L 155.598521 178.264055 
L 155.598521 177.796303 
L 156.072219 177.796303 
L 156.072219 177.328552 
L 156.370558 177.328552 
L 156.370558 176.393048 
L 156.501649 176.393048 
L 156.501649 175.457545 
L 157.580516 175.457545 
L 157.672805 174.05429 
L 157.703468 174.05429 
L 157.703468 173.118786 
L 157.856036 173.118786 
L 157.856036 172.651034 
L 158.948151 172.651034 
L 158.948151 172.183283 
L 159.14782 172.183283 
L 159.14782 170.780028 
L 159.871431 170.780028 
L 159.980326 168.909021 
L 160.088594 168.909021 
L 160.088594 168.441269 
L 160.356569 168.441269 
L 160.356569 167.973517 
L 160.803545 167.973517 
L 160.803545 166.570262 
L 162.704821 166.570262 
L 162.704821 165.634759 
L 163.122872 165.634759 
L 163.122872 165.167007 
L 163.821764 165.167007 
L 163.821764 164.699255 
L 164.580835 164.699255 
L 164.602079 163.296 
L 165.51383 163.296 
L 165.51383 161.892745 
L 165.654892 161.892745 
L 165.654892 160.957241 
L 165.834717 160.957241 
L 165.834717 160.48949 
L 166.169767 160.48949 
L 166.169767 160.021738 
L 166.306012 160.021738 
L 166.306012 158.618483 
L 166.632844 158.618483 
L 166.632844 157.682979 
L 167.140533 157.682979 
L 167.140533 157.215228 
L 167.269949 157.215228 
L 167.269949 156.747476 
L 168.063651 156.747476 
L 168.063651 156.279724 
L 168.413644 156.279724 
L 168.413644 155.344221 
L 168.551837 155.344221 
L 168.551837 154.408717 
L 169.010886 154.408717 
L 169.010886 153.940966 
L 169.491772 153.940966 
L 169.524487 153.005462 
L 169.944694 153.005462 
L 169.944694 151.602207 
L 170.480403 151.602207 
L 170.49593 150.198952 
L 170.619691 150.198952 
L 170.619691 149.7312 
L 170.803818 149.7312 
L 170.803818 149.263448 
L 171.330787 149.263448 
L 171.330787 148.327945 
L 171.581513 148.327945 
L 171.654625 146.92469 
L 171.800001 146.92469 
L 171.800001 145.053683 
L 172.087425 145.053683 
L 172.087425 144.118179 
L 172.314244 144.118179 
L 172.3986 143.182676 
L 172.426636 143.182676 
L 172.482581 142.247172 
L 172.593974 142.247172 
L 172.635578 141.311669 
L 172.718509 141.311669 
L 172.718509 140.843917 
L 172.924252 140.843917 
L 172.978738 138.97291 
L 173.48864 138.97291 
L 173.48864 138.037407 
L 173.77765 138.037407 
L 173.790682 137.101903 
L 175.352444 137.101903 
L 175.352444 136.634152 
L 175.861055 136.634152 
L 175.88438 135.698648 
L 176.116053 135.698648 
L 176.116053 135.230897 
L 176.344907 135.230897 
L 176.446989 134.295393 
L 176.99326 134.295393 
L 176.99326 133.35989 
L 177.651866 133.35989 
L 177.72599 132.424386 
L 178.18534 132.424386 
L 178.257396 131.488883 
L 178.532766 131.488883 
L 178.532766 131.021131 
L 178.873892 131.021131 
L 178.923539 129.617876 
L 179.150247 129.617876 
L 179.150247 128.682372 
L 179.518922 128.682372 
L 179.518922 127.746869 
L 180.068066 127.746869 
L 180.123969 126.811366 
L 180.23528 126.811366 
L 180.23528 126.343614 
L 180.455946 126.343614 
L 180.52893 124.472607 
L 180.59256 124.472607 
L 180.601632 123.069352 
L 180.835991 123.069352 
L 180.943179 121.666097 
L 181.539308 121.666097 
L 181.539308 121.198345 
L 182.325173 121.198345 
L 182.415991 118.859586 
L 182.669597 118.859586 
L 182.669597 118.391834 
L 183.174689 118.391834 
L 183.269378 116.988579 
L 184.310478 116.988579 
L 184.407043 115.585324 
L 184.554643 115.585324 
L 184.554643 114.649821 
L 185.119467 114.649821 
L 185.119467 113.714317 
L 185.33227 113.714317 
L 185.346371 112.778814 
L 185.458805 112.778814 
L 185.458805 111.84331 
L 186.045097 111.84331 
L 186.139934 109.972303 
L 186.388297 109.972303 
L 186.388297 109.0368 
L 187.050029 109.0368 
L 187.050029 108.569048 
L 187.261289 108.569048 
L 187.261289 107.633545 
L 360.8064 107.633545 
L 360.8064 107.633545 
" style="fill: none; stroke: #008000; stroke-width: 1.5; stroke-linecap: square"/>
   </g>
   <g id="line2d_36">
    <defs>
     <path id="mb4b8f18837" d="M -0 6 
L 6 -6 
L -6 -6 
z
" style="stroke: #008000; stroke-width: 1.5; stroke-linejoin: miter"/>
    </defs>
    <g>
     <use xlink:href="#mb4b8f18837" x="120.28394" y="241.410538" style="fill-opacity: 0; stroke: #008000; stroke-width: 1.5; stroke-linejoin: miter"/>
     <use xlink:href="#mb4b8f18837" x="160.803545" y="167.973517" style="fill-opacity: 0; stroke: #008000; stroke-width: 1.5; stroke-linejoin: miter"/>
     <use xlink:href="#mb4b8f18837" x="187.261289" y="108.569048" style="fill-opacity: 0; stroke: #008000; stroke-width: 1.5; stroke-linejoin: miter"/>
     <use xlink:href="#mb4b8f18837" x="187.261289" y="107.633545" style="fill-opacity: 0; stroke: #008000; stroke-width: 1.5; stroke-linejoin: miter"/>
     <use xlink:href="#mb4b8f18837" x="187.261289" y="107.633545" style="fill-opacity: 0; stroke: #008000; stroke-width: 1.5; stroke-linejoin: miter"/>
     <use xlink:href="#mb4b8f18837" x="360.8064" y="107.633545" style="fill-opacity: 0; stroke: #008000; stroke-width: 1.5; stroke-linejoin: miter"/>
    </g>
   </g>
   <g id="line2d_37">
    <path style="fill: none; stroke: #008000; stroke-width: 1.5; stroke-linecap: square"/>
    <g/>
   </g>
   <g id="line2d_38">
    <path d="M 187.507939 107.633545 
" clip-path="url(#p3ea98308e4)" style="fill: none; stroke: #008000; stroke-width: 1.5; stroke-linecap: square"/>
    <defs>
     <path id="m3092ef1216" d="M -12 12 
L 12 -12 
M -12 -12 
L 12 12 
" style="stroke: #008000"/>
    </defs>
    <g clip-path="url(#p3ea98308e4)">
     <use xlink:href="#m3092ef1216" x="187.507939" y="107.633545" style="fill: #008000; stroke: #008000"/>
    </g>
   </g>
   <g id="line2d_39">
    <defs>
     <path id="m4e38455c14" d="M 0 1.5 
C 0.397805 1.5 0.77937 1.341951 1.06066 1.06066 
C 1.341951 0.77937 1.5 0.397805 1.5 0 
C 1.5 -0.397805 1.341951 -0.77937 1.06066 -1.06066 
C 0.77937 -1.341951 0.397805 -1.5 0 -1.5 
C -0.397805 -1.5 -0.77937 -1.341951 -1.06066 -1.06066 
C -1.341951 -0.77937 -1.5 -0.397805 -1.5 0 
C -1.5 0.397805 -1.341951 0.77937 -1.06066 1.06066 
C -0.77937 1.341951 -0.397805 1.5 0 1.5 
z
" style="stroke: #0000ff"/>
    </defs>
    <g>
     <use xlink:href="#m4e38455c14" x="187.207738" y="133.35989" style="fill: #0000ff; stroke: #0000ff"/>
     <use xlink:href="#m4e38455c14" x="187.207738" y="133.35989" style="fill: #0000ff; stroke: #0000ff"/>
    </g>
   </g>
   <g id="line2d_40">
    <path d="M 27.323974 298.944 
L 27.323974 293.330979 
L 40.363149 293.330979 
L 40.363149 291.459972 
L 76.96874 291.459972 
L 76.96874 290.056717 
L 92.519847 290.056717 
L 92.519847 289.121214 
L 103.047088 289.121214 
L 103.047088 288.18571 
L 104.961779 288.18571 
L 104.961779 287.717959 
L 105.559021 287.717959 
L 105.559021 286.314703 
L 107.244765 286.314703 
L 107.244765 285.846952 
L 107.774703 285.846952 
L 107.774703 283.040441 
L 108.791791 283.040441 
L 108.791791 282.57269 
L 110.674517 282.57269 
L 110.674517 281.637186 
L 112.180244 281.637186 
L 112.180244 280.233931 
L 112.589207 280.233931 
L 112.589207 278.830676 
L 112.989468 278.830676 
L 112.989468 278.362924 
L 114.326893 278.362924 
L 114.326893 277.895172 
L 114.692177 277.895172 
L 114.692177 276.491917 
L 115.227139 276.491917 
L 115.227139 274.62091 
L 116.253478 274.62091 
L 116.253478 274.153159 
L 116.907859 274.153159 
L 116.907859 273.685407 
L 117.226706 273.685407 
L 117.226706 272.282152 
L 118.74459 272.282152 
L 118.74459 269.943393 
L 120.013265 269.943393 
L 120.013265 269.00789 
L 120.550775 269.00789 
L 120.550775 268.540138 
L 120.682786 268.540138 
L 120.682786 267.604634 
L 121.073351 267.604634 
L 121.073351 267.136883 
L 123.260379 267.136883 
L 123.260379 266.201379 
L 123.713691 266.201379 
L 123.713691 264.798124 
L 124.265389 264.798124 
L 124.373813 261.523862 
L 125.115773 261.523862 
L 125.115773 261.05611 
L 125.322496 261.05611 
L 125.322496 260.588359 
L 125.628382 260.588359 
L 125.628382 259.652855 
L 125.929373 259.652855 
L 125.929373 258.717352 
L 126.993549 258.717352 
L 126.993549 257.781848 
L 127.273627 257.781848 
L 127.273627 257.314097 
L 127.731351 257.314097 
L 127.731351 256.846345 
L 128.000734 256.846345 
L 128.089678 251.701076 
L 129.125437 251.701076 
L 129.125437 250.297821 
L 129.375706 250.297821 
L 129.375706 249.830069 
L 129.78556 249.830069 
L 129.78556 249.362317 
L 130.964122 249.362317 
L 130.964122 248.426814 
L 131.191226 248.426814 
L 131.191226 246.555807 
L 131.489828 246.555807 
L 131.489828 246.088055 
L 132.216233 246.088055 
L 132.287354 242.813793 
L 133.25581 242.813793 
L 133.25581 241.410538 
L 133.72196 241.410538 
L 133.72196 240.475034 
L 133.853052 240.475034 
L 133.853052 240.007283 
L 134.431915 240.007283 
L 134.431915 239.539531 
L 134.620977 239.539531 
L 134.620977 239.071779 
L 135.237805 239.071779 
L 135.237805 238.604028 
L 135.35878 238.604028 
L 135.35878 237.668524 
L 136.242113 237.668524 
L 136.299553 236.733021 
L 136.640557 236.733021 
L 136.640557 236.265269 
L 136.808769 236.265269 
L 136.808769 235.329766 
L 137.140746 235.329766 
L 137.140746 234.394262 
L 137.304564 234.394262 
L 137.304564 229.716745 
L 138.566146 229.716745 
L 138.566146 227.845738 
L 138.918715 227.845738 
L 138.918715 226.442483 
L 139.411192 226.442483 
L 139.411192 225.974731 
L 139.700607 225.974731 
L 139.700607 224.571476 
L 139.93843 224.571476 
L 139.93843 224.103724 
L 140.173284 224.103724 
L 140.173284 222.700469 
L 140.905699 222.700469 
L 140.905699 221.764966 
L 141.217377 221.764966 
L 141.217377 221.297214 
L 142.743475 221.297214 
L 142.824734 219.893959 
L 143.462475 219.893959 
L 143.462475 219.426207 
L 143.811926 219.426207 
L 143.811926 218.490703 
L 143.926981 218.490703 
L 143.926981 218.022952 
L 144.2304 218.022952 
L 144.2304 217.087448 
L 144.342932 217.087448 
L 144.380294 216.151945 
L 145.712961 216.151945 
L 145.712961 215.216441 
L 146.462796 215.216441 
L 146.462796 214.74869 
L 147.183884 214.74869 
L 147.183884 214.280938 
L 148.307296 214.280938 
L 148.307296 213.813186 
L 148.697031 213.813186 
L 148.697031 212.877683 
L 149.020615 212.877683 
L 149.020615 211.942179 
L 149.136916 211.942179 
L 149.136916 211.474428 
L 150.234685 211.474428 
L 150.289291 210.071172 
L 150.533072 210.071172 
L 150.533072 208.667917 
L 150.958812 208.667917 
L 151.063758 207.264662 
L 151.579882 207.264662 
L 151.579882 206.329159 
L 152.082223 206.329159 
L 152.131727 204.925903 
L 153.001222 204.925903 
L 153.001222 204.458152 
L 153.282346 204.458152 
L 153.282346 203.522648 
L 153.764426 203.522648 
L 153.764426 203.054897 
L 153.944874 203.054897 
L 154.012098 201.651641 
L 154.541415 201.651641 
L 154.541415 201.18389 
L 155.013876 201.18389 
L 155.013876 200.716138 
L 155.598521 200.716138 
L 155.598521 199.780634 
L 155.863909 199.780634 
L 155.904407 197.441876 
L 156.025382 197.441876 
L 156.065535 195.103117 
L 156.245169 195.103117 
L 156.245169 194.167614 
L 156.442771 194.167614 
L 156.442771 193.23211 
L 156.560344 193.23211 
L 156.560344 192.764359 
L 156.696589 192.764359 
L 156.696589 191.828855 
L 157.080512 191.828855 
L 157.080512 191.361103 
L 157.325925 191.361103 
L 157.325925 190.893352 
L 157.789059 190.893352 
L 157.789059 190.4256 
L 158.489522 190.4256 
L 158.595008 189.490097 
L 159.096679 189.490097 
L 159.096679 189.022345 
L 159.215793 189.022345 
L 159.215793 188.554593 
L 159.334159 188.554593 
L 159.334159 188.086841 
L 159.668298 188.086841 
L 159.668298 187.151338 
L 160.029123 187.151338 
L 160.029123 186.215834 
L 160.383158 186.215834 
L 160.383158 185.748083 
L 160.652238 185.748083 
L 160.652238 185.280331 
L 161.795455 185.280331 
L 161.795455 184.812579 
L 162.591753 184.812579 
L 162.591753 182.941572 
L 162.718906 182.941572 
L 162.718906 182.006069 
L 163.109086 182.006069 
L 163.109086 181.538317 
L 163.27386 181.538317 
L 163.27386 181.070566 
L 163.491337 181.070566 
L 163.572247 179.66731 
L 163.719684 179.66731 
L 163.719684 177.796303 
L 164.298142 177.796303 
L 164.298142 176.8608 
L 164.427166 176.8608 
L 164.427166 176.393048 
L 164.606324 176.393048 
L 164.606324 175.925297 
L 164.859342 175.925297 
L 164.859342 174.989793 
L 165.232599 174.989793 
L 165.232599 173.586538 
L 165.538087 173.586538 
L 165.538087 172.651034 
L 165.707018 172.651034 
L 165.790918 170.780028 
L 165.91013 170.780028 
L 165.981296 169.376772 
L 166.792265 169.376772 
L 166.848875 168.441269 
L 167.196106 168.441269 
L 167.196106 167.505766 
L 167.515233 167.505766 
L 167.515233 167.038014 
L 167.989318 167.038014 
L 167.989318 166.570262 
L 168.399768 166.570262 
L 168.420577 165.167007 
L 168.943582 165.167007 
L 168.943582 164.699255 
L 169.134768 164.699255 
L 169.134768 164.231503 
L 169.560409 164.231503 
L 169.560409 163.763752 
L 169.803519 163.763752 
L 169.803519 163.296 
L 170.110183 163.296 
L 170.186075 161.892745 
L 171.73036 161.892745 
L 171.73036 161.424993 
L 172.015979 161.424993 
L 172.015979 160.957241 
L 172.348032 160.957241 
L 172.348032 160.48949 
L 172.806568 160.48949 
L 172.806568 160.021738 
L 172.921523 160.021738 
L 172.937888 159.086234 
L 173.374446 159.086234 
L 173.422332 157.682979 
L 173.557354 157.682979 
L 173.557354 156.747476 
L 173.972187 156.747476 
L 174.041731 155.344221 
L 174.141731 155.344221 
L 174.141731 154.876469 
L 174.302156 154.876469 
L 174.302156 153.940966 
L 174.633911 153.940966 
L 174.633911 153.473214 
L 174.937868 153.473214 
L 174.937868 152.53771 
L 175.751039 152.53771 
L 175.800275 151.602207 
L 176.41529 151.602207 
L 176.41529 151.134455 
L 176.725451 151.134455 
L 176.818842 149.7312 
L 176.891897 149.7312 
L 176.97787 148.795697 
L 178.277932 148.795697 
L 178.277932 148.327945 
L 178.655883 148.327945 
L 178.661917 147.392441 
L 178.877868 147.392441 
L 178.889793 145.521434 
L 179.302473 145.521434 
L 179.302473 145.053683 
L 179.499697 145.053683 
L 179.499697 144.585931 
L 179.712 144.585931 
L 179.712 144.118179 
L 179.978273 144.118179 
L 179.978273 143.650428 
L 180.218626 143.650428 
L 180.301752 142.247172 
L 180.862845 142.247172 
L 180.862845 141.311669 
L 181.266382 141.311669 
L 181.266382 140.843917 
L 181.942258 140.843917 
L 182.048381 139.440662 
L 182.481765 139.440662 
L 182.481765 138.505159 
L 182.958279 138.505159 
L 182.958279 138.037407 
L 183.286686 138.037407 
L 183.286686 137.569655 
L 185.029367 137.569655 
L 185.029367 136.634152 
L 185.429356 136.634152 
L 185.517565 135.698648 
L 186.245049 135.698648 
L 186.245049 134.763145 
L 186.60444 134.763145 
L 186.60444 134.295393 
L 187.011362 134.295393 
L 187.011362 133.827641 
L 187.207738 133.827641 
L 187.207738 133.35989 
L 360.8064 133.35989 
L 360.8064 133.35989 
" style="fill: none; stroke: #0000ff; stroke-width: 1.5; stroke-linecap: square"/>
   </g>
   <g id="line2d_41">
    <defs>
     <path id="m675513cb83" d="M 0 -6 
L -1.347084 -1.854102 
L -5.706339 -1.854102 
L -2.179628 0.708204 
L -3.526712 4.854102 
L -0 2.291796 
L 3.526712 4.854102 
L 2.179628 0.708204 
L 5.706339 -1.854102 
L 1.347084 -1.854102 
z
" style="stroke: #0000ff; stroke-width: 1.5; stroke-linejoin: bevel"/>
    </defs>
    <g>
     <use xlink:href="#m675513cb83" x="131.489828" y="246.088055" style="fill-opacity: 0; stroke: #0000ff; stroke-width: 1.5; stroke-linejoin: bevel"/>
     <use xlink:href="#m675513cb83" x="164.859342" y="174.989793" style="fill-opacity: 0; stroke: #0000ff; stroke-width: 1.5; stroke-linejoin: bevel"/>
     <use xlink:href="#m675513cb83" x="187.207738" y="133.827641" style="fill-opacity: 0; stroke: #0000ff; stroke-width: 1.5; stroke-linejoin: bevel"/>
     <use xlink:href="#m675513cb83" x="187.207738" y="133.35989" style="fill-opacity: 0; stroke: #0000ff; stroke-width: 1.5; stroke-linejoin: bevel"/>
     <use xlink:href="#m675513cb83" x="187.207738" y="133.35989" style="fill-opacity: 0; stroke: #0000ff; stroke-width: 1.5; stroke-linejoin: bevel"/>
     <use xlink:href="#m675513cb83" x="360.8064" y="133.35989" style="fill-opacity: 0; stroke: #0000ff; stroke-width: 1.5; stroke-linejoin: bevel"/>
    </g>
   </g>
   <g id="line2d_42">
    <path style="fill: none; stroke: #0000ff; stroke-width: 1.5; stroke-linecap: square"/>
    <g/>
   </g>
   <g id="line2d_43">
    <path d="M 187.523013 133.35989 
" clip-path="url(#p3ea98308e4)" style="fill: none; stroke: #0000ff; stroke-width: 1.5; stroke-linecap: square"/>
    <defs>
     <path id="mb550e7f61c" d="M -12 12 
L 12 -12 
M -12 -12 
L 12 12 
" style="stroke: #0000ff"/>
    </defs>
    <g clip-path="url(#p3ea98308e4)">
     <use xlink:href="#mb550e7f61c" x="187.523013" y="133.35989" style="fill: #0000ff; stroke: #0000ff"/>
    </g>
   </g>
   <g id="line2d_44">
    <defs>
     <path id="m48604d8399" d="M 0 1.5 
C 0.397805 1.5 0.77937 1.341951 1.06066 1.06066 
C 1.341951 0.77937 1.5 0.397805 1.5 0 
C 1.5 -0.397805 1.341951 -0.77937 1.06066 -1.06066 
C 0.77937 -1.341951 0.397805 -1.5 0 -1.5 
C -0.397805 -1.5 -0.77937 -1.341951 -1.06066 -1.06066 
C -1.341951 -0.77937 -1.5 -0.397805 -1.5 0 
C -1.5 0.397805 -1.341951 0.77937 -1.06066 1.06066 
C -0.77937 1.341951 -0.397805 1.5 0 1.5 
z
" style="stroke: #000000"/>
    </defs>
    <g>
     <use xlink:href="#m48604d8399" x="186.596528" y="146.92469" style="stroke: #000000"/>
     <use xlink:href="#m48604d8399" x="186.596528" y="146.92469" style="stroke: #000000"/>
    </g>
   </g>
   <g id="line2d_45">
    <path d="M 14.2848 298.944 
L 14.2848 287.717959 
L 27.323974 287.717959 
L 27.323974 287.250207 
L 53.402323 287.250207 
L 53.402323 285.846952 
L 70.639174 285.846952 
L 70.639174 284.443697 
L 79.480672 284.443697 
L 79.480672 283.508193 
L 90.007914 283.508193 
L 90.007914 283.040441 
L 91.922605 283.040441 
L 91.922605 282.57269 
L 92.519847 282.57269 
L 92.519847 282.104938 
L 94.205591 282.104938 
L 94.205591 281.637186 
L 94.735529 281.637186 
L 94.735529 281.169434 
L 98.510456 281.169434 
L 98.510456 280.701683 
L 98.933205 280.701683 
L 98.933205 280.233931 
L 102.362957 280.233931 
L 102.362957 278.830676 
L 104.344952 278.830676 
L 104.344952 278.362924 
L 104.655893 278.362924 
L 104.655893 277.895172 
L 105.26277 277.895172 
L 105.26277 276.024166 
L 109.756698 276.024166 
L 109.756698 275.556414 
L 110.221204 275.556414 
L 110.221204 274.62091 
L 112.180244 274.62091 
L 112.180244 273.217655 
L 112.989468 273.217655 
L 112.989468 272.749903 
L 113.478107 272.749903 
L 113.478107 272.282152 
L 115.575511 272.282152 
L 115.575511 271.8144 
L 116.336531 271.8144 
L 116.336531 271.346648 
L 117.1475 271.346648 
L 117.1475 270.411145 
L 119.459944 270.411145 
L 119.459944 269.943393 
L 120.813877 269.943393 
L 120.813877 269.475641 
L 121.706797 269.475641 
L 121.706797 269.00789 
L 121.830966 269.00789 
L 121.830966 268.540138 
L 122.076872 268.540138 
L 122.13785 267.136883 
L 122.439807 267.136883 
L 122.439807 266.669131 
L 122.677931 266.669131 
L 122.677931 266.201379 
L 123.145323 266.201379 
L 123.202939 264.798124 
L 123.991562 264.798124 
L 123.991562 264.330372 
L 125.425011 264.330372 
L 125.425011 263.862621 
L 125.628382 263.862621 
L 125.628382 263.394869 
L 125.779479 263.394869 
L 125.779479 262.927117 
L 126.078082 262.927117 
L 126.127391 260.120607 
L 126.225624 260.120607 
L 126.225624 259.652855 
L 126.661432 259.652855 
L 126.661432 259.185103 
L 126.946461 259.185103 
L 126.946461 258.717352 
L 127.319904 258.717352 
L 127.319904 257.781848 
L 127.640693 257.781848 
L 127.731351 256.846345 
L 127.821575 256.846345 
L 127.821575 256.378593 
L 127.956104 256.378593 
L 128.000734 255.44309 
L 128.528195 255.44309 
L 128.528195 254.975338 
L 128.829186 254.975338 
L 128.829186 254.039834 
L 128.999044 254.039834 
L 128.999044 253.104331 
L 129.209231 253.104331 
L 129.250988 251.233324 
L 129.499602 251.233324 
L 129.499602 250.765572 
L 129.86647 250.765572 
L 129.86647 250.297821 
L 130.226319 250.297821 
L 130.305359 247.959062 
L 130.772751 247.959062 
L 130.772751 247.49131 
L 131.266322 247.49131 
L 131.266322 247.023559 
L 131.563744 247.023559 
L 131.563744 246.088055 
L 131.747272 246.088055 
L 131.747272 245.152552 
L 131.892817 245.152552 
L 131.892817 244.6848 
L 133.05244 244.6848 
L 133.05244 244.217048 
L 133.323114 244.217048 
L 133.356676 242.346041 
L 133.556801 242.346041 
L 133.656071 240.475034 
L 133.689044 240.475034 
L 133.689044 239.539531 
L 134.431915 239.539531 
L 134.431915 238.604028 
L 135.478982 238.604028 
L 135.568632 237.668524 
L 135.657857 237.668524 
L 135.657857 237.200772 
L 135.805631 237.200772 
L 135.805631 236.733021 
L 136.499223 236.733021 
L 136.499223 235.797517 
L 136.612375 235.797517 
L 136.612375 234.862014 
L 137.003134 234.862014 
L 137.003134 233.92651 
L 137.734561 233.92651 
L 137.734561 232.991007 
L 138.128947 232.991007 
L 138.128947 232.523255 
L 139.018248 232.523255 
L 139.067817 231.12 
L 139.508159 231.12 
L 139.508159 230.652248 
L 139.77227 230.652248 
L 139.77227 229.716745 
L 140.26641 229.716745 
L 140.335954 228.31349 
L 141.415049 228.31349 
L 141.415049 227.845738 
L 141.995897 227.845738 
L 142.038218 225.974731 
L 142.164612 225.974731 
L 142.164612 225.039228 
L 142.435586 225.039228 
L 142.45627 222.232717 
L 142.945969 222.232717 
L 142.945969 221.764966 
L 143.888708 221.764966 
L 143.888708 220.829462 
L 145.022388 220.829462 
L 145.094395 218.958455 
L 145.219746 218.958455 
L 145.255407 217.087448 
L 145.397382 217.087448 
L 145.397382 216.151945 
L 146.662213 216.151945 
L 146.695245 215.216441 
L 147.135588 215.216441 
L 147.135588 214.74869 
L 147.359919 214.74869 
L 147.359919 213.345434 
L 147.660152 213.345434 
L 147.660152 212.877683 
L 148.307296 212.877683 
L 148.382875 211.942179 
L 148.711861 211.942179 
L 148.711861 211.006676 
L 149.006027 211.006676 
L 149.006027 210.071172 
L 149.180344 210.071172 
L 149.238092 208.667917 
L 149.381693 208.667917 
L 149.381693 207.732414 
L 150.438643 207.732414 
L 150.438643 206.79691 
L 150.667154 206.79691 
L 150.667154 205.861407 
L 151.024471 205.861407 
L 151.024471 205.393655 
L 151.362257 205.393655 
L 151.362257 204.458152 
L 151.656094 204.458152 
L 151.656094 203.522648 
L 152.131727 203.522648 
L 152.131727 202.587145 
L 152.739781 202.587145 
L 152.739781 202.119393 
L 152.989417 202.119393 
L 152.989417 201.651641 
L 153.547871 201.651641 
L 153.547871 200.716138 
L 153.696309 200.716138 
L 153.775755 199.780634 
L 154.693034 199.780634 
L 154.693034 198.845131 
L 154.854139 198.845131 
L 154.854139 197.909628 
L 155.874041 197.909628 
L 155.874041 197.441876 
L 156.135597 197.441876 
L 156.135597 196.974124 
L 156.334347 196.974124 
L 156.403417 195.103117 
L 156.531019 195.103117 
L 156.531019 194.635366 
L 156.802952 194.635366 
L 156.802952 194.167614 
L 156.927882 194.167614 
L 156.927882 193.699862 
L 157.118477 193.699862 
L 157.118477 193.23211 
L 157.614408 193.23211 
L 157.614408 192.764359 
L 158.717331 192.764359 
L 158.717331 192.296607 
L 158.838864 192.296607 
L 158.890711 191.361103 
L 159.224273 191.361103 
L 159.224273 190.893352 
L 159.351007 190.893352 
L 159.351007 190.4256 
L 159.709651 190.4256 
L 159.709651 189.957848 
L 160.589271 189.957848 
L 160.589271 189.490097 
L 160.878745 189.490097 
L 160.878745 189.022345 
L 161.087207 189.022345 
L 161.087207 188.086841 
L 161.898693 188.086841 
L 161.898693 187.151338 
L 162.342023 187.151338 
L 162.435167 185.748083 
L 162.775144 185.748083 
L 162.775144 185.280331 
L 163.095289 185.280331 
L 163.095289 184.812579 
L 163.91889 184.812579 
L 163.91889 184.344828 
L 164.116009 184.344828 
L 164.116009 183.877076 
L 164.427166 183.877076 
L 164.427166 182.941572 
L 164.55531 182.941572 
L 164.55531 182.006069 
L 165.090391 182.006069 
L 165.090391 181.538317 
L 165.294095 181.538317 
L 165.35539 179.66731 
L 165.428682 179.66731 
L 165.428682 178.731807 
L 166.678531 178.731807 
L 166.678531 178.264055 
L 167.000877 178.264055 
L 167.000877 177.796303 
L 167.80219 177.796303 
L 167.80219 176.8608 
L 168.074246 176.8608 
L 168.132413 175.925297 
L 168.321528 175.925297 
L 168.321528 175.457545 
L 168.611979 175.457545 
L 168.611979 174.989793 
L 168.948638 174.989793 
L 168.948638 174.05429 
L 169.638546 174.05429 
L 169.687218 172.651034 
L 170.425955 172.651034 
L 170.425955 172.183283 
L 171.010341 172.183283 
L 171.010341 171.715531 
L 171.284704 171.715531 
L 171.284704 170.780028 
L 171.813029 170.780028 
L 171.813029 170.312276 
L 172.246485 170.312276 
L 172.246485 169.844524 
L 172.465815 169.844524 
L 172.465815 168.909021 
L 172.612014 168.909021 
L 172.612014 168.441269 
L 172.843594 168.441269 
L 172.843594 167.973517 
L 173.076419 167.973517 
L 173.076419 167.505766 
L 173.362455 167.505766 
L 173.362455 166.570262 
L 173.683553 166.570262 
L 173.683553 166.10251 
L 174.218295 166.10251 
L 174.218295 165.634759 
L 174.332558 165.634759 
L 174.332558 165.167007 
L 174.547765 165.167007 
L 174.547765 164.699255 
L 174.77538 164.699255 
L 174.77538 164.231503 
L 175.098964 164.231503 
L 175.098964 163.763752 
L 175.559914 163.763752 
L 175.65218 162.360497 
L 175.992463 162.360497 
L 175.992463 161.892745 
L 176.162047 161.892745 
L 176.162047 160.957241 
L 176.41189 160.957241 
L 176.41189 160.48949 
L 176.62151 160.48949 
L 176.62151 160.021738 
L 177.138836 160.021738 
L 177.138836 159.553986 
L 177.269223 159.553986 
L 177.269223 159.086234 
L 177.527318 159.086234 
L 177.527318 158.150731 
L 177.63913 158.150731 
L 177.63913 157.682979 
L 177.907939 157.682979 
L 177.907939 157.215228 
L 178.253286 157.215228 
L 178.253286 156.279724 
L 178.37926 156.279724 
L 178.37926 155.811972 
L 178.670965 155.811972 
L 178.69507 154.876469 
L 179.560189 154.876469 
L 179.560189 154.408717 
L 179.921934 154.408717 
L 179.938853 153.473214 
L 180.69031 153.473214 
L 180.69031 152.53771 
L 180.991216 152.53771 
L 180.991216 152.069959 
L 182.015597 152.069959 
L 182.015597 151.602207 
L 182.161424 151.602207 
L 182.161424 150.666703 
L 182.866832 150.666703 
L 182.866832 150.198952 
L 184.285887 150.198952 
L 184.285887 149.7312 
L 184.821789 149.7312 
L 184.906394 148.795697 
L 185.213397 148.795697 
L 185.253813 147.392441 
L 186.596528 147.392441 
L 186.596528 146.92469 
L 360.8064 146.92469 
L 360.8064 146.92469 
" style="fill: none; stroke: #000000; stroke-width: 1.5; stroke-linecap: square"/>
   </g>
   <g id="line2d_46">
    <defs>
     <path id="m195581c67e" d="M 0 6 
C 1.591219 6 3.117479 5.367802 4.242641 4.242641 
C 5.367802 3.117479 6 1.591219 6 0 
C 6 -1.591219 5.367802 -3.117479 4.242641 -4.242641 
C 3.117479 -5.367802 1.591219 -6 0 -6 
C -1.591219 -6 -3.117479 -5.367802 -4.242641 -4.242641 
C -5.367802 -3.117479 -6 -1.591219 -6 0 
C -6 1.591219 -5.367802 3.117479 -4.242641 4.242641 
C -3.117479 5.367802 -1.591219 6 0 6 
z
" style="stroke: #000000; stroke-width: 1.5"/>
    </defs>
    <g>
     <use xlink:href="#m195581c67e" x="117.1475" y="271.346648" style="fill-opacity: 0; stroke: #000000; stroke-width: 1.5"/>
     <use xlink:href="#m195581c67e" x="154.854139" y="198.845131" style="fill-opacity: 0; stroke: #000000; stroke-width: 1.5"/>
     <use xlink:href="#m195581c67e" x="186.596528" y="147.392441" style="fill-opacity: 0; stroke: #000000; stroke-width: 1.5"/>
     <use xlink:href="#m195581c67e" x="186.596528" y="146.92469" style="fill-opacity: 0; stroke: #000000; stroke-width: 1.5"/>
     <use xlink:href="#m195581c67e" x="186.596528" y="146.92469" style="fill-opacity: 0; stroke: #000000; stroke-width: 1.5"/>
     <use xlink:href="#m195581c67e" x="360.8064" y="146.92469" style="fill-opacity: 0; stroke: #000000; stroke-width: 1.5"/>
    </g>
   </g>
   <g id="line2d_47">
    <path style="fill: none; stroke: #000000; stroke-width: 1.5; stroke-linecap: square"/>
    <g/>
   </g>
   <g id="line2d_48">
    <path d="M 187.53431 146.92469 
" clip-path="url(#p3ea98308e4)" style="fill: none; stroke: #000000; stroke-width: 1.5; stroke-linecap: square"/>
    <defs>
     <path id="m68fc0e0841" d="M -12 12 
L 12 -12 
M -12 -12 
L 12 12 
" style="stroke: #000000"/>
    </defs>
    <g clip-path="url(#p3ea98308e4)">
     <use xlink:href="#m68fc0e0841" x="187.53431" y="146.92469" style="stroke: #000000"/>
    </g>
   </g>
   <g id="line2d_49">
    <defs>
     <path id="m06fab781af" d="M 0 1.5 
C 0.397805 1.5 0.77937 1.341951 1.06066 1.06066 
C 1.341951 0.77937 1.5 0.397805 1.5 0 
C 1.5 -0.397805 1.341951 -0.77937 1.06066 -1.06066 
C 0.77937 -1.341951 0.397805 -1.5 0 -1.5 
C -0.397805 -1.5 -0.77937 -1.341951 -1.06066 -1.06066 
C -1.341951 -0.77937 -1.5 -0.397805 -1.5 0 
C -1.5 0.397805 -1.341951 0.77937 -1.06066 1.06066 
C -0.77937 1.341951 -0.397805 1.5 0 1.5 
z
" style="stroke: #ff0000"/>
    </defs>
    <g>
     <use xlink:href="#m06fab781af" x="186.808023" y="173.118786" style="fill: #ff0000; stroke: #ff0000"/>
     <use xlink:href="#m06fab781af" x="186.808023" y="173.118786" style="fill: #ff0000; stroke: #ff0000"/>
    </g>
   </g>
   <g id="line2d_50">
    <path d="M 1.245626 298.944 
L 1.245626 291.459972 
L 83.678349 291.459972 
L 83.678349 290.992221 
L 84.596168 290.992221 
L 84.596168 290.524469 
L 98.077987 290.524469 
L 98.077987 290.056717 
L 99.950294 290.056717 
L 99.950294 289.588966 
L 100.342215 289.588966 
L 100.342215 289.121214 
L 105.559021 289.121214 
L 105.559021 288.653462 
L 106.974091 288.653462 
L 106.974091 288.18571 
L 107.109915 288.18571 
L 107.109915 287.717959 
L 115.227139 287.717959 
L 115.227139 287.250207 
L 115.618607 287.250207 
L 115.618607 286.314703 
L 116.377921 286.314703 
L 116.377921 285.846952 
L 117.187145 285.846952 
L 117.187145 284.911448 
L 117.501332 284.911448 
L 117.501332 284.443697 
L 118.038842 284.443697 
L 118.038842 283.975945 
L 118.74459 283.975945 
L 118.74459 283.508193 
L 119.979155 283.508193 
L 120.0813 282.57269 
L 120.182892 282.57269 
L 120.182892 282.104938 
L 120.813877 282.104938 
L 120.813877 281.637186 
L 121.455972 281.637186 
L 121.455972 281.169434 
L 121.613129 281.169434 
L 121.613129 280.701683 
L 121.737916 280.701683 
L 121.737916 280.233931 
L 122.854567 280.233931 
L 122.854567 279.766179 
L 123.4884 279.766179 
L 123.4884 279.298428 
L 123.908631 279.298428 
L 123.908631 278.830676 
L 124.642171 278.830676 
L 124.642171 278.362924 
L 125.271028 278.362924 
L 125.271028 277.895172 
L 126.250102 277.895172 
L 126.250102 277.427421 
L 126.78072 277.427421 
L 126.78072 276.959669 
L 127.157434 276.959669 
L 127.250446 275.556414 
L 128.023009 275.556414 
L 128.067481 274.62091 
L 128.266313 274.62091 
L 128.375874 273.217655 
L 128.57149 273.217655 
L 128.57149 272.749903 
L 128.871795 272.749903 
L 128.956723 271.346648 
L 130.186674 271.346648 
L 130.206507 270.411145 
L 130.521023 270.411145 
L 130.521023 269.475641 
L 130.695654 269.475641 
L 130.695654 269.00789 
L 130.849533 269.00789 
L 130.887807 267.604634 
L 131.322448 267.604634 
L 131.41562 265.733628 
L 131.526822 265.733628 
L 131.526822 265.265876 
L 132.09112 265.265876 
L 132.180571 264.330372 
L 132.708526 264.330372 
L 132.708526 263.862621 
L 133.72196 263.862621 
L 133.804 262.459366 
L 134.272898 262.459366 
L 134.272898 261.991614 
L 134.605294 261.991614 
L 134.667947 261.05611 
L 134.730392 261.05611 
L 134.730392 260.588359 
L 134.993495 260.588359 
L 134.993495 260.120607 
L 135.177024 260.120607 
L 135.177024 259.652855 
L 135.403945 259.652855 
L 135.403945 259.185103 
L 135.613297 259.185103 
L 135.643015 257.781848 
L 135.937642 257.781848 
L 135.937642 257.314097 
L 136.097741 257.314097 
L 136.097741 256.846345 
L 136.242113 256.846345 
L 136.242113 256.378593 
L 136.470828 256.378593 
L 136.470828 255.44309 
L 137.085822 255.44309 
L 137.181835 254.507586 
L 137.209177 254.507586 
L 137.23648 253.572083 
L 137.358854 253.572083 
L 137.358854 253.104331 
L 137.534223 253.104331 
L 137.534223 252.636579 
L 137.919637 252.636579 
L 137.919637 251.701076 
L 138.387352 251.701076 
L 138.387352 251.233324 
L 138.65491 251.233324 
L 138.65491 250.765572 
L 138.780993 250.765572 
L 138.818654 249.830069 
L 139.141927 249.830069 
L 139.141927 249.362317 
L 139.676658 249.362317 
L 139.676658 248.894566 
L 140.126547 248.894566 
L 140.126547 248.426814 
L 140.543056 248.426814 
L 140.645758 245.620303 
L 140.984104 245.620303 
L 140.984104 244.217048 
L 141.371301 244.217048 
L 141.371301 243.749297 
L 142.518184 243.749297 
L 142.518184 243.281545 
L 142.661862 243.281545 
L 142.763822 241.87829 
L 142.966099 241.87829 
L 142.966099 241.410538 
L 143.91742 241.410538 
L 143.91742 240.475034 
L 144.267986 240.475034 
L 144.267986 240.007283 
L 144.389622 240.007283 
L 144.389622 239.071779 
L 145.564597 239.071779 
L 145.573357 237.668524 
L 146.040426 237.668524 
L 146.040426 237.200772 
L 146.826795 237.200772 
L 146.826795 236.265269 
L 146.989949 236.265269 
L 146.989949 235.797517 
L 147.207986 235.797517 
L 147.207986 234.862014 
L 147.328035 234.862014 
L 147.328035 233.92651 
L 147.557979 233.92651 
L 147.557979 232.991007 
L 148.37533 232.991007 
L 148.397954 231.12 
L 149.453084 231.12 
L 149.453084 230.652248 
L 149.813023 230.652248 
L 149.903682 229.248993 
L 150.056115 229.248993 
L 150.166205 228.31349 
L 150.965388 228.31349 
L 150.965388 227.845738 
L 151.662431 227.845738 
L 151.662431 227.377986 
L 152.504972 227.377986 
L 152.504972 226.442483 
L 152.912502 226.442483 
L 152.912502 225.506979 
L 154.779128 225.506979 
L 154.779128 224.571476 
L 156.294765 224.571476 
L 156.294765 224.103724 
L 157.085262 224.103724 
L 157.085262 223.168221 
L 158.223191 223.168221 
L 158.223191 222.232717 
L 158.647529 222.232717 
L 158.647529 221.297214 
L 159.593632 221.297214 
L 159.593632 220.36171 
L 159.775628 220.36171 
L 159.775628 219.426207 
L 159.939564 219.426207 
L 160.041303 217.5552 
L 160.415015 217.5552 
L 160.502345 216.151945 
L 160.648309 216.151945 
L 160.648309 215.216441 
L 161.51985 215.216441 
L 161.51985 214.280938 
L 161.843457 214.280938 
L 161.843457 213.813186 
L 162.345614 213.813186 
L 162.345614 213.345434 
L 162.62716 213.345434 
L 162.722426 212.409931 
L 163.487958 212.409931 
L 163.487958 211.942179 
L 163.997986 211.942179 
L 163.997986 211.006676 
L 164.246284 211.006676 
L 164.246284 210.538924 
L 164.38533 210.538924 
L 164.38533 210.071172 
L 164.58721 210.071172 
L 164.58721 209.135669 
L 164.953353 209.135669 
L 164.953353 208.200166 
L 165.495616 208.200166 
L 165.495616 207.264662 
L 166.370868 207.264662 
L 166.420087 205.861407 
L 167.090376 205.861407 
L 167.090376 205.393655 
L 167.44965 205.393655 
L 167.44965 204.458152 
L 167.626746 204.458152 
L 167.691716 203.054897 
L 167.767232 203.054897 
L 167.767232 202.587145 
L 168.03979 202.587145 
L 168.03979 202.119393 
L 169.638546 202.119393 
L 169.696937 200.248386 
L 170.451643 200.248386 
L 170.451643 199.780634 
L 171.435909 199.780634 
L 171.435909 199.312883 
L 172.169963 199.312883 
L 172.169963 198.377379 
L 172.849758 198.377379 
L 172.868238 196.038621 
L 173.096705 196.038621 
L 173.096705 195.103117 
L 173.730661 195.103117 
L 173.730661 194.167614 
L 174.143649 194.167614 
L 174.143649 193.23211 
L 174.695469 193.23211 
L 174.695469 192.296607 
L 174.959917 192.296607 
L 175.042372 191.361103 
L 175.46183 191.361103 
L 175.46183 190.893352 
L 175.722847 190.893352 
L 175.722847 190.4256 
L 175.917569 190.4256 
L 175.917569 189.957848 
L 176.476377 189.957848 
L 176.483152 189.022345 
L 176.785541 189.022345 
L 176.785541 188.086841 
L 177.024001 188.086841 
L 177.024001 187.61909 
L 177.191099 187.61909 
L 177.210661 186.683586 
L 177.421282 186.683586 
L 177.421282 186.215834 
L 177.549733 186.215834 
L 177.549733 185.748083 
L 178.009712 185.748083 
L 178.009712 184.812579 
L 179.005667 184.812579 
L 179.070718 183.409324 
L 179.164938 183.409324 
L 179.164938 182.941572 
L 179.319959 182.941572 
L 179.319959 182.473821 
L 180.006379 182.473821 
L 180.006379 182.006069 
L 181.362009 182.006069 
L 181.442846 181.070566 
L 182.002973 181.070566 
L 182.063492 178.731807 
L 182.460825 178.731807 
L 182.460825 178.264055 
L 183.092238 178.264055 
L 183.136283 176.8608 
L 183.585094 176.8608 
L 183.585094 176.393048 
L 183.987114 176.393048 
L 183.987114 175.925297 
L 184.29036 175.925297 
L 184.29036 174.989793 
L 184.440724 174.989793 
L 184.440724 174.522041 
L 184.881486 174.522041 
L 184.881486 174.05429 
L 186.808023 174.05429 
L 186.808023 173.118786 
L 360.8064 173.118786 
L 360.8064 173.118786 
" style="fill: none; stroke: #ff0000; stroke-width: 1.5; stroke-linecap: square"/>
   </g>
   <g id="line2d_51">
    <defs>
     <path id="mdc98778358" d="M -6 6 
L 6 6 
L 6 -6 
L -6 -6 
z
" style="stroke: #ff0000; stroke-width: 1.5; stroke-linejoin: miter"/>
    </defs>
    <g>
     <use xlink:href="#mdc98778358" x="84.596168" y="290.992221" style="fill-opacity: 0; stroke: #ff0000; stroke-width: 1.5; stroke-linejoin: miter"/>
     <use xlink:href="#mdc98778358" x="160.041303" y="217.5552" style="fill-opacity: 0; stroke: #ff0000; stroke-width: 1.5; stroke-linejoin: miter"/>
     <use xlink:href="#mdc98778358" x="186.808023" y="174.05429" style="fill-opacity: 0; stroke: #ff0000; stroke-width: 1.5; stroke-linejoin: miter"/>
     <use xlink:href="#mdc98778358" x="186.808023" y="173.118786" style="fill-opacity: 0; stroke: #ff0000; stroke-width: 1.5; stroke-linejoin: miter"/>
     <use xlink:href="#mdc98778358" x="186.808023" y="173.118786" style="fill-opacity: 0; stroke: #ff0000; stroke-width: 1.5; stroke-linejoin: miter"/>
     <use xlink:href="#mdc98778358" x="360.8064" y="173.118786" style="fill-opacity: 0; stroke: #ff0000; stroke-width: 1.5; stroke-linejoin: miter"/>
    </g>
   </g>
   <g id="line2d_52">
    <path style="fill: none; stroke: #ff0000; stroke-width: 1.5; stroke-linecap: square"/>
    <g/>
   </g>
   <g id="line2d_53">
    <path d="M 187.539956 173.118786 
" clip-path="url(#p3ea98308e4)" style="fill: none; stroke: #ff0000; stroke-width: 1.5; stroke-linecap: square"/>
    <defs>
     <path id="md7b45db2b3" d="M -12 12 
L 12 -12 
M -12 -12 
L 12 12 
" style="stroke: #ff0000"/>
    </defs>
    <g clip-path="url(#p3ea98308e4)">
     <use xlink:href="#md7b45db2b3" x="187.539956" y="173.118786" style="fill: #ff0000; stroke: #ff0000"/>
    </g>
   </g>
   <g id="line2d_54">
    <path d="M 360.8064 173.118786 
L 380.514816 293.51808 
" style="fill: none; stroke: #ff0000; stroke-width: 1.5; stroke-linecap: square"/>
    <g>
     <use xlink:href="#mdc98778358" x="360.8064" y="173.118786" style="fill-opacity: 0; stroke: #ff0000; stroke-width: 1.5; stroke-linejoin: miter"/>
     <use xlink:href="#mdc98778358" x="380.514816" y="293.51808" style="fill-opacity: 0; stroke: #ff0000; stroke-width: 1.5; stroke-linejoin: miter"/>
    </g>
   </g>
   <g id="line2d_55">
    <path d="M 360.8064 146.92469 
L 380.514816 228.40704 
" style="fill: none; stroke: #000000; stroke-width: 1.5; stroke-linecap: square"/>
    <g>
     <use xlink:href="#m195581c67e" x="360.8064" y="146.92469" style="fill-opacity: 0; stroke: #000000; stroke-width: 1.5"/>
     <use xlink:href="#m195581c67e" x="380.514816" y="228.40704" style="fill-opacity: 0; stroke: #000000; stroke-width: 1.5"/>
    </g>
   </g>
   <g id="line2d_56">
    <path d="M 360.8064 133.35989 
L 380.514816 163.296 
" style="fill: none; stroke: #0000ff; stroke-width: 1.5; stroke-linecap: square"/>
    <g>
     <use xlink:href="#m675513cb83" x="360.8064" y="133.35989" style="fill-opacity: 0; stroke: #0000ff; stroke-width: 1.5; stroke-linejoin: bevel"/>
     <use xlink:href="#m675513cb83" x="380.514816" y="163.296" style="fill-opacity: 0; stroke: #0000ff; stroke-width: 1.5; stroke-linejoin: bevel"/>
    </g>
   </g>
   <g id="line2d_57">
    <path d="M 360.8064 107.633545 
L 380.514816 98.18496 
" style="fill: none; stroke: #008000; stroke-width: 1.5; stroke-linecap: square"/>
    <g>
     <use xlink:href="#mb4b8f18837" x="360.8064" y="107.633545" style="fill-opacity: 0; stroke: #008000; stroke-width: 1.5; stroke-linejoin: miter"/>
     <use xlink:href="#mb4b8f18837" x="380.514816" y="98.18496" style="fill-opacity: 0; stroke: #008000; stroke-width: 1.5; stroke-linejoin: miter"/>
    </g>
   </g>
   <g id="line2d_58">
    <path d="M 360.8064 94.068745 
L 380.514816 33.07392 
" style="fill: none; stroke: #00bfbf; stroke-width: 1.5; stroke-linecap: square"/>
    <g>
     <use xlink:href="#mc575361360" x="360.8064" y="94.068745" style="fill-opacity: 0; stroke: #00bfbf; stroke-width: 1.5"/>
     <use xlink:href="#mc575361360" x="380.514816" y="33.07392" style="fill-opacity: 0; stroke: #00bfbf; stroke-width: 1.5"/>
    </g>
   </g>
   <g id="line2d_59">
    <path d="M 360.8064 298.944 
L 360.8064 27.648 
" style="fill: none; stroke: #000000; stroke-width: 1.5; stroke-linecap: square"/>
   </g>
   <g id="patch_3">
    <path d="M 57.6 298.944 
L 360.8064 298.944 
" style="fill: none; stroke: #000000; stroke-width: 0.8; stroke-linejoin: miter; stroke-linecap: square"/>
   </g>
   <g id="patch_4">
    <path d="M 57.6 27.648 
L 360.8064 27.648 
" style="fill: none; stroke: #000000; stroke-width: 0.8; stroke-linejoin: miter; stroke-linecap: square"/>
   </g>
   <g id="text_13">
    <!-- 20-D -->
    <g transform="translate(386.578944 297.381205) scale(0.14 -0.14)">
     <defs>
      <path id="DejaVuSans-44" d="M 1259 4147 
L 1259 519 
L 2022 519 
Q 2988 519 3436 956 
Q 3884 1394 3884 2338 
Q 3884 3275 3436 3711 
Q 2988 4147 2022 4147 
L 1259 4147 
z
M 628 4666 
L 1925 4666 
Q 3281 4666 3915 4102 
Q 4550 3538 4550 2338 
Q 4550 1131 3912 565 
Q 3275 0 1925 0 
L 628 0 
L 628 4666 
z
" transform="scale(0.015625)"/>
     </defs>
     <use xlink:href="#DejaVuSans-32"/>
     <use xlink:href="#DejaVuSans-30" x="63.623047"/>
     <use xlink:href="#DejaVuSans-2d" x="127.246094"/>
     <use xlink:href="#DejaVuSans-44" x="163.330078"/>
    </g>
   </g>
   <g id="text_14">
    <!-- 10-D -->
    <g transform="translate(386.578944 232.270165) scale(0.14 -0.14)">
     <use xlink:href="#DejaVuSans-31"/>
     <use xlink:href="#DejaVuSans-30" x="63.623047"/>
     <use xlink:href="#DejaVuSans-2d" x="127.246094"/>
     <use xlink:href="#DejaVuSans-44" x="163.330078"/>
    </g>
   </g>
   <g id="text_15">
    <!-- 5-D -->
    <g transform="translate(386.578944 167.159125) scale(0.14 -0.14)">
     <defs>
      <path id="DejaVuSans-35" d="M 691 4666 
L 3169 4666 
L 3169 4134 
L 1269 4134 
L 1269 2991 
Q 1406 3038 1543 3061 
Q 1681 3084 1819 3084 
Q 2600 3084 3056 2656 
Q 3513 2228 3513 1497 
Q 3513 744 3044 326 
Q 2575 -91 1722 -91 
Q 1428 -91 1123 -41 
Q 819 9 494 109 
L 494 744 
Q 775 591 1075 516 
Q 1375 441 1709 441 
Q 2250 441 2565 725 
Q 2881 1009 2881 1497 
Q 2881 1984 2565 2268 
Q 2250 2553 1709 2553 
Q 1456 2553 1204 2497 
Q 953 2441 691 2322 
L 691 4666 
z
" transform="scale(0.015625)"/>
     </defs>
     <use xlink:href="#DejaVuSans-35"/>
     <use xlink:href="#DejaVuSans-2d" x="63.623047"/>
     <use xlink:href="#DejaVuSans-44" x="99.707031"/>
    </g>
   </g>
   <g id="text_16">
    <!-- 3-D -->
    <g transform="translate(386.578944 102.048085) scale(0.14 -0.14)">
     <defs>
      <path id="DejaVuSans-33" d="M 2597 2516 
Q 3050 2419 3304 2112 
Q 3559 1806 3559 1356 
Q 3559 666 3084 287 
Q 2609 -91 1734 -91 
Q 1441 -91 1130 -33 
Q 819 25 488 141 
L 488 750 
Q 750 597 1062 519 
Q 1375 441 1716 441 
Q 2309 441 2620 675 
Q 2931 909 2931 1356 
Q 2931 1769 2642 2001 
Q 2353 2234 1838 2234 
L 1294 2234 
L 1294 2753 
L 1863 2753 
Q 2328 2753 2575 2939 
Q 2822 3125 2822 3475 
Q 2822 3834 2567 4026 
Q 2313 4219 1838 4219 
Q 1578 4219 1281 4162 
Q 984 4106 628 3988 
L 628 4550 
Q 988 4650 1302 4700 
Q 1616 4750 1894 4750 
Q 2613 4750 3031 4423 
Q 3450 4097 3450 3541 
Q 3450 3153 3228 2886 
Q 3006 2619 2597 2516 
z
" transform="scale(0.015625)"/>
     </defs>
     <use xlink:href="#DejaVuSans-33"/>
     <use xlink:href="#DejaVuSans-2d" x="63.623047"/>
     <use xlink:href="#DejaVuSans-44" x="99.707031"/>
    </g>
   </g>
   <g id="text_17">
    <!-- 2-D -->
    <g transform="translate(386.578944 36.937045) scale(0.14 -0.14)">
     <use xlink:href="#DejaVuSans-32"/>
     <use xlink:href="#DejaVuSans-2d" x="63.623047"/>
     <use xlink:href="#DejaVuSans-44" x="99.707031"/>
    </g>
   </g>
   <g id="text_18">
    <!-- bbob-biobj f13 -->
    <g transform="translate(60.632064 38.111366) scale(0.102 -0.102)">
     <defs>
      <path id="DejaVuSans-62" d="M 3116 1747 
Q 3116 2381 2855 2742 
Q 2594 3103 2138 3103 
Q 1681 3103 1420 2742 
Q 1159 2381 1159 1747 
Q 1159 1113 1420 752 
Q 1681 391 2138 391 
Q 2594 391 2855 752 
Q 3116 1113 3116 1747 
z
M 1159 2969 
Q 1341 3281 1617 3432 
Q 1894 3584 2278 3584 
Q 2916 3584 3314 3078 
Q 3713 2572 3713 1747 
Q 3713 922 3314 415 
Q 2916 -91 2278 -91 
Q 1894 -91 1617 61 
Q 1341 213 1159 525 
L 1159 0 
L 581 0 
L 581 4863 
L 1159 4863 
L 1159 2969 
z
" transform="scale(0.015625)"/>
      <path id="DejaVuSans-6a" d="M 603 3500 
L 1178 3500 
L 1178 -63 
Q 1178 -731 923 -1031 
Q 669 -1331 103 -1331 
L -116 -1331 
L -116 -844 
L 38 -844 
Q 366 -844 484 -692 
Q 603 -541 603 -63 
L 603 3500 
z
M 603 4863 
L 1178 4863 
L 1178 4134 
L 603 4134 
L 603 4863 
z
" transform="scale(0.015625)"/>
     </defs>
     <use xlink:href="#DejaVuSans-62"/>
     <use xlink:href="#DejaVuSans-62" x="63.476562"/>
     <use xlink:href="#DejaVuSans-6f" x="126.953125"/>
     <use xlink:href="#DejaVuSans-62" x="188.134766"/>
     <use xlink:href="#DejaVuSans-2d" x="251.611328"/>
     <use xlink:href="#DejaVuSans-62" x="287.695312"/>
     <use xlink:href="#DejaVuSans-69" x="351.171875"/>
     <use xlink:href="#DejaVuSans-6f" x="378.955078"/>
     <use xlink:href="#DejaVuSans-62" x="440.136719"/>
     <use xlink:href="#DejaVuSans-6a" x="503.613281"/>
     <use xlink:href="#DejaVuSans-20" x="531.396484"/>
     <use xlink:href="#DejaVuSans-66" x="563.183594"/>
     <use xlink:href="#DejaVuSans-31" x="598.388672"/>
     <use xlink:href="#DejaVuSans-33" x="662.011719"/>
    </g>
    <!-- 58 targets: 1..-1.0e-4 -->
    <g transform="translate(60.632064 49.533135) scale(0.102 -0.102)">
     <defs>
      <path id="DejaVuSans-3a" d="M 750 794 
L 1409 794 
L 1409 0 
L 750 0 
L 750 794 
z
M 750 3309 
L 1409 3309 
L 1409 2516 
L 750 2516 
L 750 3309 
z
" transform="scale(0.015625)"/>
     </defs>
     <use xlink:href="#DejaVuSans-35"/>
     <use xlink:href="#DejaVuSans-38" x="63.623047"/>
     <use xlink:href="#DejaVuSans-20" x="127.246094"/>
     <use xlink:href="#DejaVuSans-74" x="159.033203"/>
     <use xlink:href="#DejaVuSans-61" x="198.242188"/>
     <use xlink:href="#DejaVuSans-72" x="259.521484"/>
     <use xlink:href="#DejaVuSans-67" x="298.884766"/>
     <use xlink:href="#DejaVuSans-65" x="362.361328"/>
     <use xlink:href="#DejaVuSans-74" x="423.884766"/>
     <use xlink:href="#DejaVuSans-73" x="463.09375"/>
     <use xlink:href="#DejaVuSans-3a" x="515.193359"/>
     <use xlink:href="#DejaVuSans-20" x="548.884766"/>
     <use xlink:href="#DejaVuSans-31" x="580.671875"/>
     <use xlink:href="#DejaVuSans-2e" x="644.294922"/>
     <use xlink:href="#DejaVuSans-2e" x="676.082031"/>
     <use xlink:href="#DejaVuSans-2d" x="707.869141"/>
     <use xlink:href="#DejaVuSans-31" x="743.953125"/>
     <use xlink:href="#DejaVuSans-2e" x="807.576172"/>
     <use xlink:href="#DejaVuSans-30" x="839.363281"/>
     <use xlink:href="#DejaVuSans-65" x="902.986328"/>
     <use xlink:href="#DejaVuSans-2d" x="964.509766"/>
     <use xlink:href="#DejaVuSans-34" x="1000.59375"/>
    </g>
    <!-- 10 instances -->
    <g transform="translate(60.632064 60.954904) scale(0.102 -0.102)">
     <use xlink:href="#DejaVuSans-31"/>
     <use xlink:href="#DejaVuSans-30" x="63.623047"/>
     <use xlink:href="#DejaVuSans-20" x="127.246094"/>
     <use xlink:href="#DejaVuSans-69" x="159.033203"/>
     <use xlink:href="#DejaVuSans-6e" x="186.816406"/>
     <use xlink:href="#DejaVuSans-73" x="250.195312"/>
     <use xlink:href="#DejaVuSans-74" x="302.294922"/>
     <use xlink:href="#DejaVuSans-61" x="341.503906"/>
     <use xlink:href="#DejaVuSans-6e" x="402.783203"/>
     <use xlink:href="#DejaVuSans-63" x="466.162109"/>
     <use xlink:href="#DejaVuSans-65" x="521.142578"/>
     <use xlink:href="#DejaVuSans-73" x="582.666016"/>
    </g>
   </g>
   <g id="text_19">
    <!-- v2.6, hv-hash=ff0e71e8cd978373 -->
    <g style="fill: #808080" transform="translate(123.707887 294.151352) scale(0.1 -0.1)">
     <defs>
      <path id="DejaVuSans-68" d="M 3513 2113 
L 3513 0 
L 2938 0 
L 2938 2094 
Q 2938 2591 2744 2837 
Q 2550 3084 2163 3084 
Q 1697 3084 1428 2787 
Q 1159 2491 1159 1978 
L 1159 0 
L 581 0 
L 581 4863 
L 1159 4863 
L 1159 2956 
Q 1366 3272 1645 3428 
Q 1925 3584 2291 3584 
Q 2894 3584 3203 3211 
Q 3513 2838 3513 2113 
z
" transform="scale(0.015625)"/>
      <path id="DejaVuSans-3d" d="M 678 2906 
L 4684 2906 
L 4684 2381 
L 678 2381 
L 678 2906 
z
M 678 1631 
L 4684 1631 
L 4684 1100 
L 678 1100 
L 678 1631 
z
" transform="scale(0.015625)"/>
      <path id="DejaVuSans-37" d="M 525 4666 
L 3525 4666 
L 3525 4397 
L 1831 0 
L 1172 0 
L 2766 4134 
L 525 4134 
L 525 4666 
z
" transform="scale(0.015625)"/>
      <path id="DejaVuSans-39" d="M 703 97 
L 703 672 
Q 941 559 1184 500 
Q 1428 441 1663 441 
Q 2288 441 2617 861 
Q 2947 1281 2994 2138 
Q 2813 1869 2534 1725 
Q 2256 1581 1919 1581 
Q 1219 1581 811 2004 
Q 403 2428 403 3163 
Q 403 3881 828 4315 
Q 1253 4750 1959 4750 
Q 2769 4750 3195 4129 
Q 3622 3509 3622 2328 
Q 3622 1225 3098 567 
Q 2575 -91 1691 -91 
Q 1453 -91 1209 -44 
Q 966 3 703 97 
z
M 1959 2075 
Q 2384 2075 2632 2365 
Q 2881 2656 2881 3163 
Q 2881 3666 2632 3958 
Q 2384 4250 1959 4250 
Q 1534 4250 1286 3958 
Q 1038 3666 1038 3163 
Q 1038 2656 1286 2365 
Q 1534 2075 1959 2075 
z
" transform="scale(0.015625)"/>
     </defs>
     <use xlink:href="#DejaVuSans-76"/>
     <use xlink:href="#DejaVuSans-32" x="59.179688"/>
     <use xlink:href="#DejaVuSans-2e" x="122.802734"/>
     <use xlink:href="#DejaVuSans-36" x="154.589844"/>
     <use xlink:href="#DejaVuSans-2c" x="218.212891"/>
     <use xlink:href="#DejaVuSans-20" x="250"/>
     <use xlink:href="#DejaVuSans-68" x="281.787109"/>
     <use xlink:href="#DejaVuSans-76" x="345.166016"/>
     <use xlink:href="#DejaVuSans-2d" x="401.720703"/>
     <use xlink:href="#DejaVuSans-68" x="437.804688"/>
     <use xlink:href="#DejaVuSans-61" x="501.183594"/>
     <use xlink:href="#DejaVuSans-73" x="562.462891"/>
     <use xlink:href="#DejaVuSans-68" x="614.5625"/>
     <use xlink:href="#DejaVuSans-3d" x="677.941406"/>
     <use xlink:href="#DejaVuSans-66" x="761.730469"/>
     <use xlink:href="#DejaVuSans-66" x="796.935547"/>
     <use xlink:href="#DejaVuSans-30" x="832.140625"/>
     <use xlink:href="#DejaVuSans-65" x="895.763672"/>
     <use xlink:href="#DejaVuSans-37" x="957.287109"/>
     <use xlink:href="#DejaVuSans-31" x="1020.910156"/>
     <use xlink:href="#DejaVuSans-65" x="1084.533203"/>
     <use xlink:href="#DejaVuSans-38" x="1146.056641"/>
     <use xlink:href="#DejaVuSans-63" x="1209.679688"/>
     <use xlink:href="#DejaVuSans-64" x="1264.660156"/>
     <use xlink:href="#DejaVuSans-39" x="1328.136719"/>
     <use xlink:href="#DejaVuSans-37" x="1391.759766"/>
     <use xlink:href="#DejaVuSans-38" x="1455.382812"/>
     <use xlink:href="#DejaVuSans-33" x="1519.005859"/>
     <use xlink:href="#DejaVuSans-37" x="1582.628906"/>
     <use xlink:href="#DejaVuSans-33" x="1646.251953"/>
    </g>
   </g>
   <g id="text_20">
    <!-- 13 sep. Ellipsoid/Rosenbrock -->
    <g transform="translate(66.448512 21.648) scale(0.2 -0.2)">
     <defs>
      <path id="DejaVuSans-45" d="M 628 4666 
L 3578 4666 
L 3578 4134 
L 1259 4134 
L 1259 2753 
L 3481 2753 
L 3481 2222 
L 1259 2222 
L 1259 531 
L 3634 531 
L 3634 0 
L 628 0 
L 628 4666 
z
" transform="scale(0.015625)"/>
      <path id="DejaVuSans-52" d="M 2841 2188 
Q 3044 2119 3236 1894 
Q 3428 1669 3622 1275 
L 4263 0 
L 3584 0 
L 2988 1197 
Q 2756 1666 2539 1819 
Q 2322 1972 1947 1972 
L 1259 1972 
L 1259 0 
L 628 0 
L 628 4666 
L 2053 4666 
Q 2853 4666 3247 4331 
Q 3641 3997 3641 3322 
Q 3641 2881 3436 2590 
Q 3231 2300 2841 2188 
z
M 1259 4147 
L 1259 2491 
L 2053 2491 
Q 2509 2491 2742 2702 
Q 2975 2913 2975 3322 
Q 2975 3731 2742 3939 
Q 2509 4147 2053 4147 
L 1259 4147 
z
" transform="scale(0.015625)"/>
      <path id="DejaVuSans-6b" d="M 581 4863 
L 1159 4863 
L 1159 1991 
L 2875 3500 
L 3609 3500 
L 1753 1863 
L 3688 0 
L 2938 0 
L 1159 1709 
L 1159 0 
L 581 0 
L 581 4863 
z
" transform="scale(0.015625)"/>
     </defs>
     <use xlink:href="#DejaVuSans-31"/>
     <use xlink:href="#DejaVuSans-33" x="63.623047"/>
     <use xlink:href="#DejaVuSans-20" x="127.246094"/>
     <use xlink:href="#DejaVuSans-73" x="159.033203"/>
     <use xlink:href="#DejaVuSans-65" x="211.132812"/>
     <use xlink:href="#DejaVuSans-70" x="272.65625"/>
     <use xlink:href="#DejaVuSans-2e" x="336.132812"/>
     <use xlink:href="#DejaVuSans-20" x="367.919922"/>
     <use xlink:href="#DejaVuSans-45" x="399.707031"/>
     <use xlink:href="#DejaVuSans-6c" x="462.890625"/>
     <use xlink:href="#DejaVuSans-6c" x="490.673828"/>
     <use xlink:href="#DejaVuSans-69" x="518.457031"/>
     <use xlink:href="#DejaVuSans-70" x="546.240234"/>
     <use xlink:href="#DejaVuSans-73" x="609.716797"/>
     <use xlink:href="#DejaVuSans-6f" x="661.816406"/>
     <use xlink:href="#DejaVuSans-69" x="722.998047"/>
     <use xlink:href="#DejaVuSans-64" x="750.78125"/>
     <use xlink:href="#DejaVuSans-2f" x="814.257812"/>
     <use xlink:href="#DejaVuSans-52" x="847.949219"/>
     <use xlink:href="#DejaVuSans-6f" x="912.931641"/>
     <use xlink:href="#DejaVuSans-73" x="974.113281"/>
     <use xlink:href="#DejaVuSans-65" x="1026.212891"/>
     <use xlink:href="#DejaVuSans-6e" x="1087.736328"/>
     <use xlink:href="#DejaVuSans-62" x="1151.115234"/>
     <use xlink:href="#DejaVuSans-72" x="1214.591797"/>
     <use xlink:href="#DejaVuSans-6f" x="1253.455078"/>
     <use xlink:href="#DejaVuSans-63" x="1314.636719"/>
     <use xlink:href="#DejaVuSans-6b" x="1369.617188"/>
    </g>
   </g>
  </g>
 </g>
 <defs>
  <clipPath id="p3ea98308e4">
   <rect x="57.6" y="27.648" width="303.2064" height="271.296"/>
  </clipPath>
 </defs>
</svg>
