<?xml version="1.0" encoding="utf-8" standalone="no"?>
<!DOCTYPE svg PUBLIC "-//W3C//DTD SVG 1.1//EN"
  "http://www.w3.org/Graphics/SVG/1.1/DTD/svg11.dtd">
<svg xmlns:xlink="http://www.w3.org/1999/xlink" width="460.8pt" height="345.6pt" viewBox="0 0 460.8 345.6" xmlns="http://www.w3.org/2000/svg" version="1.1">
 <metadata>
  <rdf:RDF xmlns:dc="http://purl.org/dc/elements/1.1/" xmlns:cc="http://creativecommons.org/ns#" xmlns:rdf="http://www.w3.org/1999/02/22-rdf-syntax-ns#">
   <cc:Work>
    <dc:type rdf:resource="http://purl.org/dc/dcmitype/StillImage"/>
    <dc:date>2023-02-16T10:11:29.637008</dc:date>
    <dc:format>image/svg+xml</dc:format>
    <dc:creator>
     <cc:Agent>
      <dc:title>Matplotlib v3.6.3, https://matplotlib.org/</dc:title>
     </cc:Agent>
    </dc:creator>
   </cc:Work>
  </rdf:RDF>
 </metadata>
 <defs>
  <style type="text/css">*{stroke-linejoin: round; stroke-linecap: butt}</style>
 </defs>
 <g id="figure_1">
  <g id="patch_1">
   <path d="M 0 345.6 
L 460.8 345.6 
L 460.8 0 
L 0 0 
z
" style="fill: #ffffff"/>
  </g>
  <g id="axes_1">
   <g id="patch_2">
    <path d="M 57.6 298.944 
L 360.8064 298.944 
L 360.8064 6.912 
L 57.6 6.912 
z
" style="fill: #ffffff"/>
   </g>
   <g id="matplotlib.axis_1">
    <g id="xtick_1">
     <g id="line2d_1">
      <path d="M 57.6 298.944 
L 57.6 6.912 
" clip-path="url(#p19731459d4)" style="fill: none; stroke: #b0b0b0; stroke-width: 0.8; stroke-linecap: square"/>
     </g>
     <g id="line2d_2">
      <defs>
       <path id="m079b9b5d34" d="M 0 0 
L 0 3.5 
" style="stroke: #000000; stroke-width: 0.8"/>
      </defs>
      <g>
       <use xlink:href="#m079b9b5d34" x="57.6" y="298.944" style="stroke: #000000; stroke-width: 0.8"/>
      </g>
     </g>
     <g id="text_1">
      <!-- 0 -->
      <g transform="translate(52.191875 318.861344) scale(0.17 -0.17)">
       <defs>
        <path id="DejaVuSans-30" d="M 2034 4250 
Q 1547 4250 1301 3770 
Q 1056 3291 1056 2328 
Q 1056 1369 1301 889 
Q 1547 409 2034 409 
Q 2525 409 2770 889 
Q 3016 1369 3016 2328 
Q 3016 3291 2770 3770 
Q 2525 4250 2034 4250 
z
M 2034 4750 
Q 2819 4750 3233 4129 
Q 3647 3509 3647 2328 
Q 3647 1150 3233 529 
Q 2819 -91 2034 -91 
Q 1250 -91 836 529 
Q 422 1150 422 2328 
Q 422 3509 836 4129 
Q 1250 4750 2034 4750 
z
" transform="scale(0.015625)"/>
       </defs>
       <use xlink:href="#DejaVuSans-30"/>
      </g>
     </g>
    </g>
    <g id="xtick_2">
     <g id="line2d_3">
      <path d="M 144.2304 298.944 
L 144.2304 6.912 
" clip-path="url(#p19731459d4)" style="fill: none; stroke: #b0b0b0; stroke-width: 0.8; stroke-linecap: square"/>
     </g>
     <g id="line2d_4">
      <g>
       <use xlink:href="#m079b9b5d34" x="144.2304" y="298.944" style="stroke: #000000; stroke-width: 0.8"/>
      </g>
     </g>
     <g id="text_2">
      <!-- 2 -->
      <g transform="translate(138.822275 318.861344) scale(0.17 -0.17)">
       <defs>
        <path id="DejaVuSans-32" d="M 1228 531 
L 3431 531 
L 3431 0 
L 469 0 
L 469 531 
Q 828 903 1448 1529 
Q 2069 2156 2228 2338 
Q 2531 2678 2651 2914 
Q 2772 3150 2772 3378 
Q 2772 3750 2511 3984 
Q 2250 4219 1831 4219 
Q 1534 4219 1204 4116 
Q 875 4013 500 3803 
L 500 4441 
Q 881 4594 1212 4672 
Q 1544 4750 1819 4750 
Q 2544 4750 2975 4387 
Q 3406 4025 3406 3419 
Q 3406 3131 3298 2873 
Q 3191 2616 2906 2266 
Q 2828 2175 2409 1742 
Q 1991 1309 1228 531 
z
" transform="scale(0.015625)"/>
       </defs>
       <use xlink:href="#DejaVuSans-32"/>
      </g>
     </g>
    </g>
    <g id="xtick_3">
     <g id="line2d_5">
      <path d="M 230.8608 298.944 
L 230.8608 6.912 
" clip-path="url(#p19731459d4)" style="fill: none; stroke: #b0b0b0; stroke-width: 0.8; stroke-linecap: square"/>
     </g>
     <g id="line2d_6">
      <g>
       <use xlink:href="#m079b9b5d34" x="230.8608" y="298.944" style="stroke: #000000; stroke-width: 0.8"/>
      </g>
     </g>
     <g id="text_3">
      <!-- 4 -->
      <g transform="translate(225.452675 318.861344) scale(0.17 -0.17)">
       <defs>
        <path id="DejaVuSans-34" d="M 2419 4116 
L 825 1625 
L 2419 1625 
L 2419 4116 
z
M 2253 4666 
L 3047 4666 
L 3047 1625 
L 3713 1625 
L 3713 1100 
L 3047 1100 
L 3047 0 
L 2419 0 
L 2419 1100 
L 313 1100 
L 313 1709 
L 2253 4666 
z
" transform="scale(0.015625)"/>
       </defs>
       <use xlink:href="#DejaVuSans-34"/>
      </g>
     </g>
    </g>
    <g id="xtick_4">
     <g id="line2d_7">
      <path d="M 317.4912 298.944 
L 317.4912 6.912 
" clip-path="url(#p19731459d4)" style="fill: none; stroke: #b0b0b0; stroke-width: 0.8; stroke-linecap: square"/>
     </g>
     <g id="line2d_8">
      <g>
       <use xlink:href="#m079b9b5d34" x="317.4912" y="298.944" style="stroke: #000000; stroke-width: 0.8"/>
      </g>
     </g>
     <g id="text_4">
      <!-- 6 -->
      <g transform="translate(312.083075 318.861344) scale(0.17 -0.17)">
       <defs>
        <path id="DejaVuSans-36" d="M 2113 2584 
Q 1688 2584 1439 2293 
Q 1191 2003 1191 1497 
Q 1191 994 1439 701 
Q 1688 409 2113 409 
Q 2538 409 2786 701 
Q 3034 994 3034 1497 
Q 3034 2003 2786 2293 
Q 2538 2584 2113 2584 
z
M 3366 4563 
L 3366 3988 
Q 3128 4100 2886 4159 
Q 2644 4219 2406 4219 
Q 1781 4219 1451 3797 
Q 1122 3375 1075 2522 
Q 1259 2794 1537 2939 
Q 1816 3084 2150 3084 
Q 2853 3084 3261 2657 
Q 3669 2231 3669 1497 
Q 3669 778 3244 343 
Q 2819 -91 2113 -91 
Q 1303 -91 875 529 
Q 447 1150 447 2328 
Q 447 3434 972 4092 
Q 1497 4750 2381 4750 
Q 2619 4750 2861 4703 
Q 3103 4656 3366 4563 
z
" transform="scale(0.015625)"/>
       </defs>
       <use xlink:href="#DejaVuSans-36"/>
      </g>
     </g>
    </g>
    <g id="xtick_5">
     <g id="line2d_9">
      <path d="M 100.9152 298.944 
L 100.9152 6.912 
" clip-path="url(#p19731459d4)" style="fill: none; stroke: #b0b0b0; stroke-width: 0.8; stroke-linecap: square"/>
     </g>
     <g id="line2d_10">
      <defs>
       <path id="m1608d4dc85" d="M 0 0 
L 0 2 
" style="stroke: #000000; stroke-width: 0.6"/>
      </defs>
      <g>
       <use xlink:href="#m1608d4dc85" x="100.9152" y="298.944" style="stroke: #000000; stroke-width: 0.6"/>
      </g>
     </g>
    </g>
    <g id="xtick_6">
     <g id="line2d_11">
      <path d="M 187.5456 298.944 
L 187.5456 6.912 
" clip-path="url(#p19731459d4)" style="fill: none; stroke: #b0b0b0; stroke-width: 0.8; stroke-linecap: square"/>
     </g>
     <g id="line2d_12">
      <g>
       <use xlink:href="#m1608d4dc85" x="187.5456" y="298.944" style="stroke: #000000; stroke-width: 0.6"/>
      </g>
     </g>
    </g>
    <g id="xtick_7">
     <g id="line2d_13">
      <path d="M 274.176 298.944 
L 274.176 6.912 
" clip-path="url(#p19731459d4)" style="fill: none; stroke: #b0b0b0; stroke-width: 0.8; stroke-linecap: square"/>
     </g>
     <g id="line2d_14">
      <g>
       <use xlink:href="#m1608d4dc85" x="274.176" y="298.944" style="stroke: #000000; stroke-width: 0.6"/>
      </g>
     </g>
    </g>
    <g id="xtick_8">
     <g id="line2d_15">
      <path d="M 360.8064 298.944 
L 360.8064 6.912 
" clip-path="url(#p19731459d4)" style="fill: none; stroke: #b0b0b0; stroke-width: 0.8; stroke-linecap: square"/>
     </g>
     <g id="line2d_16">
      <g>
       <use xlink:href="#m1608d4dc85" x="360.8064" y="298.944" style="stroke: #000000; stroke-width: 0.6"/>
      </g>
     </g>
    </g>
    <g id="text_5">
     <!-- log10(# f-evals / dimension) -->
     <g transform="translate(88.823278 339.314156) scale(0.17 -0.17)">
      <defs>
       <path id="DejaVuSans-6c" d="M 603 4863 
L 1178 4863 
L 1178 0 
L 603 0 
L 603 4863 
z
" transform="scale(0.015625)"/>
       <path id="DejaVuSans-6f" d="M 1959 3097 
Q 1497 3097 1228 2736 
Q 959 2375 959 1747 
Q 959 1119 1226 758 
Q 1494 397 1959 397 
Q 2419 397 2687 759 
Q 2956 1122 2956 1747 
Q 2956 2369 2687 2733 
Q 2419 3097 1959 3097 
z
M 1959 3584 
Q 2709 3584 3137 3096 
Q 3566 2609 3566 1747 
Q 3566 888 3137 398 
Q 2709 -91 1959 -91 
Q 1206 -91 779 398 
Q 353 888 353 1747 
Q 353 2609 779 3096 
Q 1206 3584 1959 3584 
z
" transform="scale(0.015625)"/>
       <path id="DejaVuSans-67" d="M 2906 1791 
Q 2906 2416 2648 2759 
Q 2391 3103 1925 3103 
Q 1463 3103 1205 2759 
Q 947 2416 947 1791 
Q 947 1169 1205 825 
Q 1463 481 1925 481 
Q 2391 481 2648 825 
Q 2906 1169 2906 1791 
z
M 3481 434 
Q 3481 -459 3084 -895 
Q 2688 -1331 1869 -1331 
Q 1566 -1331 1297 -1286 
Q 1028 -1241 775 -1147 
L 775 -588 
Q 1028 -725 1275 -790 
Q 1522 -856 1778 -856 
Q 2344 -856 2625 -561 
Q 2906 -266 2906 331 
L 2906 616 
Q 2728 306 2450 153 
Q 2172 0 1784 0 
Q 1141 0 747 490 
Q 353 981 353 1791 
Q 353 2603 747 3093 
Q 1141 3584 1784 3584 
Q 2172 3584 2450 3431 
Q 2728 3278 2906 2969 
L 2906 3500 
L 3481 3500 
L 3481 434 
z
" transform="scale(0.015625)"/>
       <path id="DejaVuSans-31" d="M 794 531 
L 1825 531 
L 1825 4091 
L 703 3866 
L 703 4441 
L 1819 4666 
L 2450 4666 
L 2450 531 
L 3481 531 
L 3481 0 
L 794 0 
L 794 531 
z
" transform="scale(0.015625)"/>
       <path id="DejaVuSans-28" d="M 1984 4856 
Q 1566 4138 1362 3434 
Q 1159 2731 1159 2009 
Q 1159 1288 1364 580 
Q 1569 -128 1984 -844 
L 1484 -844 
Q 1016 -109 783 600 
Q 550 1309 550 2009 
Q 550 2706 781 3412 
Q 1013 4119 1484 4856 
L 1984 4856 
z
" transform="scale(0.015625)"/>
       <path id="DejaVuSans-23" d="M 3272 2816 
L 2363 2816 
L 2100 1772 
L 3016 1772 
L 3272 2816 
z
M 2803 4594 
L 2478 3297 
L 3391 3297 
L 3719 4594 
L 4219 4594 
L 3897 3297 
L 4872 3297 
L 4872 2816 
L 3775 2816 
L 3519 1772 
L 4513 1772 
L 4513 1294 
L 3397 1294 
L 3072 0 
L 2572 0 
L 2894 1294 
L 1978 1294 
L 1656 0 
L 1153 0 
L 1478 1294 
L 494 1294 
L 494 1772 
L 1594 1772 
L 1856 2816 
L 850 2816 
L 850 3297 
L 1978 3297 
L 2297 4594 
L 2803 4594 
z
" transform="scale(0.015625)"/>
       <path id="DejaVuSans-20" transform="scale(0.015625)"/>
       <path id="DejaVuSans-66" d="M 2375 4863 
L 2375 4384 
L 1825 4384 
Q 1516 4384 1395 4259 
Q 1275 4134 1275 3809 
L 1275 3500 
L 2222 3500 
L 2222 3053 
L 1275 3053 
L 1275 0 
L 697 0 
L 697 3053 
L 147 3053 
L 147 3500 
L 697 3500 
L 697 3744 
Q 697 4328 969 4595 
Q 1241 4863 1831 4863 
L 2375 4863 
z
" transform="scale(0.015625)"/>
       <path id="DejaVuSans-2d" d="M 313 2009 
L 1997 2009 
L 1997 1497 
L 313 1497 
L 313 2009 
z
" transform="scale(0.015625)"/>
       <path id="DejaVuSans-65" d="M 3597 1894 
L 3597 1613 
L 953 1613 
Q 991 1019 1311 708 
Q 1631 397 2203 397 
Q 2534 397 2845 478 
Q 3156 559 3463 722 
L 3463 178 
Q 3153 47 2828 -22 
Q 2503 -91 2169 -91 
Q 1331 -91 842 396 
Q 353 884 353 1716 
Q 353 2575 817 3079 
Q 1281 3584 2069 3584 
Q 2775 3584 3186 3129 
Q 3597 2675 3597 1894 
z
M 3022 2063 
Q 3016 2534 2758 2815 
Q 2500 3097 2075 3097 
Q 1594 3097 1305 2825 
Q 1016 2553 972 2059 
L 3022 2063 
z
" transform="scale(0.015625)"/>
       <path id="DejaVuSans-76" d="M 191 3500 
L 800 3500 
L 1894 563 
L 2988 3500 
L 3597 3500 
L 2284 0 
L 1503 0 
L 191 3500 
z
" transform="scale(0.015625)"/>
       <path id="DejaVuSans-61" d="M 2194 1759 
Q 1497 1759 1228 1600 
Q 959 1441 959 1056 
Q 959 750 1161 570 
Q 1363 391 1709 391 
Q 2188 391 2477 730 
Q 2766 1069 2766 1631 
L 2766 1759 
L 2194 1759 
z
M 3341 1997 
L 3341 0 
L 2766 0 
L 2766 531 
Q 2569 213 2275 61 
Q 1981 -91 1556 -91 
Q 1019 -91 701 211 
Q 384 513 384 1019 
Q 384 1609 779 1909 
Q 1175 2209 1959 2209 
L 2766 2209 
L 2766 2266 
Q 2766 2663 2505 2880 
Q 2244 3097 1772 3097 
Q 1472 3097 1187 3025 
Q 903 2953 641 2809 
L 641 3341 
Q 956 3463 1253 3523 
Q 1550 3584 1831 3584 
Q 2591 3584 2966 3190 
Q 3341 2797 3341 1997 
z
" transform="scale(0.015625)"/>
       <path id="DejaVuSans-73" d="M 2834 3397 
L 2834 2853 
Q 2591 2978 2328 3040 
Q 2066 3103 1784 3103 
Q 1356 3103 1142 2972 
Q 928 2841 928 2578 
Q 928 2378 1081 2264 
Q 1234 2150 1697 2047 
L 1894 2003 
Q 2506 1872 2764 1633 
Q 3022 1394 3022 966 
Q 3022 478 2636 193 
Q 2250 -91 1575 -91 
Q 1294 -91 989 -36 
Q 684 19 347 128 
L 347 722 
Q 666 556 975 473 
Q 1284 391 1588 391 
Q 1994 391 2212 530 
Q 2431 669 2431 922 
Q 2431 1156 2273 1281 
Q 2116 1406 1581 1522 
L 1381 1569 
Q 847 1681 609 1914 
Q 372 2147 372 2553 
Q 372 3047 722 3315 
Q 1072 3584 1716 3584 
Q 2034 3584 2315 3537 
Q 2597 3491 2834 3397 
z
" transform="scale(0.015625)"/>
       <path id="DejaVuSans-2f" d="M 1625 4666 
L 2156 4666 
L 531 -594 
L 0 -594 
L 1625 4666 
z
" transform="scale(0.015625)"/>
       <path id="DejaVuSans-64" d="M 2906 2969 
L 2906 4863 
L 3481 4863 
L 3481 0 
L 2906 0 
L 2906 525 
Q 2725 213 2448 61 
Q 2172 -91 1784 -91 
Q 1150 -91 751 415 
Q 353 922 353 1747 
Q 353 2572 751 3078 
Q 1150 3584 1784 3584 
Q 2172 3584 2448 3432 
Q 2725 3281 2906 2969 
z
M 947 1747 
Q 947 1113 1208 752 
Q 1469 391 1925 391 
Q 2381 391 2643 752 
Q 2906 1113 2906 1747 
Q 2906 2381 2643 2742 
Q 2381 3103 1925 3103 
Q 1469 3103 1208 2742 
Q 947 2381 947 1747 
z
" transform="scale(0.015625)"/>
       <path id="DejaVuSans-69" d="M 603 3500 
L 1178 3500 
L 1178 0 
L 603 0 
L 603 3500 
z
M 603 4863 
L 1178 4863 
L 1178 4134 
L 603 4134 
L 603 4863 
z
" transform="scale(0.015625)"/>
       <path id="DejaVuSans-6d" d="M 3328 2828 
Q 3544 3216 3844 3400 
Q 4144 3584 4550 3584 
Q 5097 3584 5394 3201 
Q 5691 2819 5691 2113 
L 5691 0 
L 5113 0 
L 5113 2094 
Q 5113 2597 4934 2840 
Q 4756 3084 4391 3084 
Q 3944 3084 3684 2787 
Q 3425 2491 3425 1978 
L 3425 0 
L 2847 0 
L 2847 2094 
Q 2847 2600 2669 2842 
Q 2491 3084 2119 3084 
Q 1678 3084 1418 2786 
Q 1159 2488 1159 1978 
L 1159 0 
L 581 0 
L 581 3500 
L 1159 3500 
L 1159 2956 
Q 1356 3278 1631 3431 
Q 1906 3584 2284 3584 
Q 2666 3584 2933 3390 
Q 3200 3197 3328 2828 
z
" transform="scale(0.015625)"/>
       <path id="DejaVuSans-6e" d="M 3513 2113 
L 3513 0 
L 2938 0 
L 2938 2094 
Q 2938 2591 2744 2837 
Q 2550 3084 2163 3084 
Q 1697 3084 1428 2787 
Q 1159 2491 1159 1978 
L 1159 0 
L 581 0 
L 581 3500 
L 1159 3500 
L 1159 2956 
Q 1366 3272 1645 3428 
Q 1925 3584 2291 3584 
Q 2894 3584 3203 3211 
Q 3513 2838 3513 2113 
z
" transform="scale(0.015625)"/>
       <path id="DejaVuSans-29" d="M 513 4856 
L 1013 4856 
Q 1481 4119 1714 3412 
Q 1947 2706 1947 2009 
Q 1947 1309 1714 600 
Q 1481 -109 1013 -844 
L 513 -844 
Q 928 -128 1133 580 
Q 1338 1288 1338 2009 
Q 1338 2731 1133 3434 
Q 928 4138 513 4856 
z
" transform="scale(0.015625)"/>
      </defs>
      <use xlink:href="#DejaVuSans-6c"/>
      <use xlink:href="#DejaVuSans-6f" x="27.783203"/>
      <use xlink:href="#DejaVuSans-67" x="88.964844"/>
      <use xlink:href="#DejaVuSans-31" x="152.441406"/>
      <use xlink:href="#DejaVuSans-30" x="216.064453"/>
      <use xlink:href="#DejaVuSans-28" x="279.6875"/>
      <use xlink:href="#DejaVuSans-23" x="318.701172"/>
      <use xlink:href="#DejaVuSans-20" x="402.490234"/>
      <use xlink:href="#DejaVuSans-66" x="434.277344"/>
      <use xlink:href="#DejaVuSans-2d" x="463.982422"/>
      <use xlink:href="#DejaVuSans-65" x="500.066406"/>
      <use xlink:href="#DejaVuSans-76" x="561.589844"/>
      <use xlink:href="#DejaVuSans-61" x="620.769531"/>
      <use xlink:href="#DejaVuSans-6c" x="682.048828"/>
      <use xlink:href="#DejaVuSans-73" x="709.832031"/>
      <use xlink:href="#DejaVuSans-20" x="761.931641"/>
      <use xlink:href="#DejaVuSans-2f" x="793.71875"/>
      <use xlink:href="#DejaVuSans-20" x="827.410156"/>
      <use xlink:href="#DejaVuSans-64" x="859.197266"/>
      <use xlink:href="#DejaVuSans-69" x="922.673828"/>
      <use xlink:href="#DejaVuSans-6d" x="950.457031"/>
      <use xlink:href="#DejaVuSans-65" x="1047.869141"/>
      <use xlink:href="#DejaVuSans-6e" x="1109.392578"/>
      <use xlink:href="#DejaVuSans-73" x="1172.771484"/>
      <use xlink:href="#DejaVuSans-69" x="1224.871094"/>
      <use xlink:href="#DejaVuSans-6f" x="1252.654297"/>
      <use xlink:href="#DejaVuSans-6e" x="1313.835938"/>
      <use xlink:href="#DejaVuSans-29" x="1377.214844"/>
     </g>
    </g>
   </g>
   <g id="matplotlib.axis_2">
    <g id="ytick_1">
     <g id="line2d_17">
      <path d="M 57.6 298.944 
L 360.8064 298.944 
" clip-path="url(#p19731459d4)" style="fill: none; stroke: #b0b0b0; stroke-width: 0.8; stroke-linecap: square"/>
     </g>
     <g id="line2d_18">
      <defs>
       <path id="mad81d03690" d="M 0 0 
L -3.5 0 
" style="stroke: #000000; stroke-width: 0.8"/>
      </defs>
      <g>
       <use xlink:href="#mad81d03690" x="57.6" y="298.944" style="stroke: #000000; stroke-width: 0.8"/>
      </g>
     </g>
     <g id="text_6">
      <!-- 0.0 -->
      <g transform="translate(25.155 305.02275) scale(0.16 -0.16)">
       <defs>
        <path id="DejaVuSans-2e" d="M 684 794 
L 1344 794 
L 1344 0 
L 684 0 
L 684 794 
z
" transform="scale(0.015625)"/>
       </defs>
       <use xlink:href="#DejaVuSans-30"/>
       <use xlink:href="#DejaVuSans-2e" x="63.623047"/>
       <use xlink:href="#DejaVuSans-30" x="95.410156"/>
      </g>
     </g>
    </g>
    <g id="ytick_2">
     <g id="line2d_19">
      <path d="M 57.6 240.5376 
L 360.8064 240.5376 
" clip-path="url(#p19731459d4)" style="fill: none; stroke: #b0b0b0; stroke-width: 0.8; stroke-linecap: square"/>
     </g>
     <g id="line2d_20">
      <g>
       <use xlink:href="#mad81d03690" x="57.6" y="240.5376" style="stroke: #000000; stroke-width: 0.8"/>
      </g>
     </g>
     <g id="text_7">
      <!-- 0.2 -->
      <g transform="translate(25.155 246.61635) scale(0.16 -0.16)">
       <use xlink:href="#DejaVuSans-30"/>
       <use xlink:href="#DejaVuSans-2e" x="63.623047"/>
       <use xlink:href="#DejaVuSans-32" x="95.410156"/>
      </g>
     </g>
    </g>
    <g id="ytick_3">
     <g id="line2d_21">
      <path d="M 57.6 182.1312 
L 360.8064 182.1312 
" clip-path="url(#p19731459d4)" style="fill: none; stroke: #b0b0b0; stroke-width: 0.8; stroke-linecap: square"/>
     </g>
     <g id="line2d_22">
      <g>
       <use xlink:href="#mad81d03690" x="57.6" y="182.1312" style="stroke: #000000; stroke-width: 0.8"/>
      </g>
     </g>
     <g id="text_8">
      <!-- 0.4 -->
      <g transform="translate(25.155 188.20995) scale(0.16 -0.16)">
       <use xlink:href="#DejaVuSans-30"/>
       <use xlink:href="#DejaVuSans-2e" x="63.623047"/>
       <use xlink:href="#DejaVuSans-34" x="95.410156"/>
      </g>
     </g>
    </g>
    <g id="ytick_4">
     <g id="line2d_23">
      <path d="M 57.6 123.7248 
L 360.8064 123.7248 
" clip-path="url(#p19731459d4)" style="fill: none; stroke: #b0b0b0; stroke-width: 0.8; stroke-linecap: square"/>
     </g>
     <g id="line2d_24">
      <g>
       <use xlink:href="#mad81d03690" x="57.6" y="123.7248" style="stroke: #000000; stroke-width: 0.8"/>
      </g>
     </g>
     <g id="text_9">
      <!-- 0.6 -->
      <g transform="translate(25.155 129.80355) scale(0.16 -0.16)">
       <use xlink:href="#DejaVuSans-30"/>
       <use xlink:href="#DejaVuSans-2e" x="63.623047"/>
       <use xlink:href="#DejaVuSans-36" x="95.410156"/>
      </g>
     </g>
    </g>
    <g id="ytick_5">
     <g id="line2d_25">
      <path d="M 57.6 65.3184 
L 360.8064 65.3184 
" clip-path="url(#p19731459d4)" style="fill: none; stroke: #b0b0b0; stroke-width: 0.8; stroke-linecap: square"/>
     </g>
     <g id="line2d_26">
      <g>
       <use xlink:href="#mad81d03690" x="57.6" y="65.3184" style="stroke: #000000; stroke-width: 0.8"/>
      </g>
     </g>
     <g id="text_10">
      <!-- 0.8 -->
      <g transform="translate(25.155 71.39715) scale(0.16 -0.16)">
       <defs>
        <path id="DejaVuSans-38" d="M 2034 2216 
Q 1584 2216 1326 1975 
Q 1069 1734 1069 1313 
Q 1069 891 1326 650 
Q 1584 409 2034 409 
Q 2484 409 2743 651 
Q 3003 894 3003 1313 
Q 3003 1734 2745 1975 
Q 2488 2216 2034 2216 
z
M 1403 2484 
Q 997 2584 770 2862 
Q 544 3141 544 3541 
Q 544 4100 942 4425 
Q 1341 4750 2034 4750 
Q 2731 4750 3128 4425 
Q 3525 4100 3525 3541 
Q 3525 3141 3298 2862 
Q 3072 2584 2669 2484 
Q 3125 2378 3379 2068 
Q 3634 1759 3634 1313 
Q 3634 634 3220 271 
Q 2806 -91 2034 -91 
Q 1263 -91 848 271 
Q 434 634 434 1313 
Q 434 1759 690 2068 
Q 947 2378 1403 2484 
z
M 1172 3481 
Q 1172 3119 1398 2916 
Q 1625 2713 2034 2713 
Q 2441 2713 2670 2916 
Q 2900 3119 2900 3481 
Q 2900 3844 2670 4047 
Q 2441 4250 2034 4250 
Q 1625 4250 1398 4047 
Q 1172 3844 1172 3481 
z
" transform="scale(0.015625)"/>
       </defs>
       <use xlink:href="#DejaVuSans-30"/>
       <use xlink:href="#DejaVuSans-2e" x="63.623047"/>
       <use xlink:href="#DejaVuSans-38" x="95.410156"/>
      </g>
     </g>
    </g>
    <g id="ytick_6">
     <g id="line2d_27">
      <path d="M 57.6 6.912 
L 360.8064 6.912 
" clip-path="url(#p19731459d4)" style="fill: none; stroke: #b0b0b0; stroke-width: 0.8; stroke-linecap: square"/>
     </g>
     <g id="line2d_28">
      <g>
       <use xlink:href="#mad81d03690" x="57.6" y="6.912" style="stroke: #000000; stroke-width: 0.8"/>
      </g>
     </g>
     <g id="text_11">
      <!-- 1.0 -->
      <g transform="translate(25.155 12.99075) scale(0.16 -0.16)">
       <use xlink:href="#DejaVuSans-31"/>
       <use xlink:href="#DejaVuSans-2e" x="63.623047"/>
       <use xlink:href="#DejaVuSans-30" x="95.410156"/>
      </g>
     </g>
    </g>
    <g id="text_12">
     <!-- Fraction of function,target pairs -->
     <g transform="translate(17.619531 287.313) rotate(-90) scale(0.17 -0.17)">
      <defs>
       <path id="DejaVuSans-46" d="M 628 4666 
L 3309 4666 
L 3309 4134 
L 1259 4134 
L 1259 2759 
L 3109 2759 
L 3109 2228 
L 1259 2228 
L 1259 0 
L 628 0 
L 628 4666 
z
" transform="scale(0.015625)"/>
       <path id="DejaVuSans-72" d="M 2631 2963 
Q 2534 3019 2420 3045 
Q 2306 3072 2169 3072 
Q 1681 3072 1420 2755 
Q 1159 2438 1159 1844 
L 1159 0 
L 581 0 
L 581 3500 
L 1159 3500 
L 1159 2956 
Q 1341 3275 1631 3429 
Q 1922 3584 2338 3584 
Q 2397 3584 2469 3576 
Q 2541 3569 2628 3553 
L 2631 2963 
z
" transform="scale(0.015625)"/>
       <path id="DejaVuSans-63" d="M 3122 3366 
L 3122 2828 
Q 2878 2963 2633 3030 
Q 2388 3097 2138 3097 
Q 1578 3097 1268 2742 
Q 959 2388 959 1747 
Q 959 1106 1268 751 
Q 1578 397 2138 397 
Q 2388 397 2633 464 
Q 2878 531 3122 666 
L 3122 134 
Q 2881 22 2623 -34 
Q 2366 -91 2075 -91 
Q 1284 -91 818 406 
Q 353 903 353 1747 
Q 353 2603 823 3093 
Q 1294 3584 2113 3584 
Q 2378 3584 2631 3529 
Q 2884 3475 3122 3366 
z
" transform="scale(0.015625)"/>
       <path id="DejaVuSans-74" d="M 1172 4494 
L 1172 3500 
L 2356 3500 
L 2356 3053 
L 1172 3053 
L 1172 1153 
Q 1172 725 1289 603 
Q 1406 481 1766 481 
L 2356 481 
L 2356 0 
L 1766 0 
Q 1100 0 847 248 
Q 594 497 594 1153 
L 594 3053 
L 172 3053 
L 172 3500 
L 594 3500 
L 594 4494 
L 1172 4494 
z
" transform="scale(0.015625)"/>
       <path id="DejaVuSans-75" d="M 544 1381 
L 544 3500 
L 1119 3500 
L 1119 1403 
Q 1119 906 1312 657 
Q 1506 409 1894 409 
Q 2359 409 2629 706 
Q 2900 1003 2900 1516 
L 2900 3500 
L 3475 3500 
L 3475 0 
L 2900 0 
L 2900 538 
Q 2691 219 2414 64 
Q 2138 -91 1772 -91 
Q 1169 -91 856 284 
Q 544 659 544 1381 
z
M 1991 3584 
L 1991 3584 
z
" transform="scale(0.015625)"/>
       <path id="DejaVuSans-2c" d="M 750 794 
L 1409 794 
L 1409 256 
L 897 -744 
L 494 -744 
L 750 256 
L 750 794 
z
" transform="scale(0.015625)"/>
       <path id="DejaVuSans-70" d="M 1159 525 
L 1159 -1331 
L 581 -1331 
L 581 3500 
L 1159 3500 
L 1159 2969 
Q 1341 3281 1617 3432 
Q 1894 3584 2278 3584 
Q 2916 3584 3314 3078 
Q 3713 2572 3713 1747 
Q 3713 922 3314 415 
Q 2916 -91 2278 -91 
Q 1894 -91 1617 61 
Q 1341 213 1159 525 
z
M 3116 1747 
Q 3116 2381 2855 2742 
Q 2594 3103 2138 3103 
Q 1681 3103 1420 2742 
Q 1159 2381 1159 1747 
Q 1159 1113 1420 752 
Q 1681 391 2138 391 
Q 2594 391 2855 752 
Q 3116 1113 3116 1747 
z
" transform="scale(0.015625)"/>
      </defs>
      <use xlink:href="#DejaVuSans-46"/>
      <use xlink:href="#DejaVuSans-72" x="50.269531"/>
      <use xlink:href="#DejaVuSans-61" x="91.382812"/>
      <use xlink:href="#DejaVuSans-63" x="152.662109"/>
      <use xlink:href="#DejaVuSans-74" x="207.642578"/>
      <use xlink:href="#DejaVuSans-69" x="246.851562"/>
      <use xlink:href="#DejaVuSans-6f" x="274.634766"/>
      <use xlink:href="#DejaVuSans-6e" x="335.816406"/>
      <use xlink:href="#DejaVuSans-20" x="399.195312"/>
      <use xlink:href="#DejaVuSans-6f" x="430.982422"/>
      <use xlink:href="#DejaVuSans-66" x="492.164062"/>
      <use xlink:href="#DejaVuSans-20" x="527.369141"/>
      <use xlink:href="#DejaVuSans-66" x="559.15625"/>
      <use xlink:href="#DejaVuSans-75" x="594.361328"/>
      <use xlink:href="#DejaVuSans-6e" x="657.740234"/>
      <use xlink:href="#DejaVuSans-63" x="721.119141"/>
      <use xlink:href="#DejaVuSans-74" x="776.099609"/>
      <use xlink:href="#DejaVuSans-69" x="815.308594"/>
      <use xlink:href="#DejaVuSans-6f" x="843.091797"/>
      <use xlink:href="#DejaVuSans-6e" x="904.273438"/>
      <use xlink:href="#DejaVuSans-2c" x="967.652344"/>
      <use xlink:href="#DejaVuSans-74" x="999.439453"/>
      <use xlink:href="#DejaVuSans-61" x="1038.648438"/>
      <use xlink:href="#DejaVuSans-72" x="1099.927734"/>
      <use xlink:href="#DejaVuSans-67" x="1139.291016"/>
      <use xlink:href="#DejaVuSans-65" x="1202.767578"/>
      <use xlink:href="#DejaVuSans-74" x="1264.291016"/>
      <use xlink:href="#DejaVuSans-20" x="1303.5"/>
      <use xlink:href="#DejaVuSans-70" x="1335.287109"/>
      <use xlink:href="#DejaVuSans-61" x="1398.763672"/>
      <use xlink:href="#DejaVuSans-69" x="1460.042969"/>
      <use xlink:href="#DejaVuSans-72" x="1487.826172"/>
      <use xlink:href="#DejaVuSans-73" x="1528.939453"/>
     </g>
    </g>
   </g>
   <g id="line2d_29">
    <defs>
     <path id="m9cd848a29a" d="M 0 1.5 
C 0.397805 1.5 0.77937 1.341951 1.06066 1.06066 
C 1.341951 0.77937 1.5 0.397805 1.5 0 
C 1.5 -0.397805 1.341951 -0.77937 1.06066 -1.06066 
C 0.77937 -1.341951 0.397805 -1.5 0 -1.5 
C -0.397805 -1.5 -0.77937 -1.341951 -1.06066 -1.06066 
C -1.341951 -0.77937 -1.5 -0.397805 -1.5 0 
C -1.5 0.397805 -1.341951 0.77937 -1.06066 1.06066 
C -0.77937 1.341951 -0.397805 1.5 0 1.5 
z
" style="stroke: #000080"/>
    </defs>
    <g>
     <use xlink:href="#m9cd848a29a" x="187.159796" y="128.256331" style="fill: #000080; stroke: #000080"/>
     <use xlink:href="#m9cd848a29a" x="187.159796" y="128.256331" style="fill: #000080; stroke: #000080"/>
    </g>
   </g>
   <g id="line2d_30">
    <path d="M 14.2848 298.944 
L 14.2848 292.901959 
L 53.402323 292.901959 
L 53.402323 292.398455 
L 85.471281 292.398455 
L 85.471281 291.894952 
L 90.007914 291.894952 
L 90.007914 291.391448 
L 96.717523 291.391448 
L 96.717523 290.887945 
L 98.933205 290.887945 
L 98.933205 290.384441 
L 103.380045 290.384441 
L 103.380045 289.880938 
L 104.344952 289.880938 
L 104.344952 289.377434 
L 105.559021 289.377434 
L 105.559021 288.873931 
L 108.542628 288.873931 
L 108.542628 288.370428 
L 109.990385 288.370428 
L 109.990385 287.866924 
L 111.334639 287.866924 
L 111.334639 287.363421 
L 111.54963 287.363421 
L 111.54963 286.356414 
L 112.385837 286.356414 
L 112.385837 285.85291 
L 113.381389 285.85291 
L 113.381389 285.349407 
L 114.7824 285.349407 
L 114.7824 283.335393 
L 117.1475 283.335393 
L 117.1475 282.83189 
L 117.772007 282.83189 
L 117.848632 281.321379 
L 118.598196 281.321379 
L 118.598196 280.817876 
L 118.817362 280.817876 
L 118.817362 280.314372 
L 119.177058 280.314372 
L 119.177058 279.810869 
L 119.669351 279.810869 
L 119.669351 279.307366 
L 120.682786 279.307366 
L 120.682786 278.300359 
L 121.265635 278.300359 
L 121.265635 277.796855 
L 121.39274 277.796855 
L 121.39274 277.293352 
L 121.644403 277.293352 
L 121.644403 276.789848 
L 122.379802 276.789848 
L 122.379802 275.782841 
L 123.880906 275.782841 
L 123.880906 275.279338 
L 124.156336 275.279338 
L 124.156336 272.761821 
L 124.427792 272.761821 
L 124.427792 270.747807 
L 124.588805 270.747807 
L 124.588805 270.244303 
L 124.854134 270.244303 
L 124.906754 268.23029 
L 125.167667 268.23029 
L 125.167667 266.719779 
L 125.322496 266.719779 
L 125.322496 266.216276 
L 125.678882 266.216276 
L 125.678882 265.712772 
L 125.879541 265.712772 
L 125.879541 265.209269 
L 126.661432 265.209269 
L 126.661432 264.202262 
L 127.227236 264.202262 
L 127.227236 263.195255 
L 127.549596 263.195255 
L 127.549596 262.691752 
L 128.39771 262.691752 
L 128.39771 261.684745 
L 129.250988 261.684745 
L 129.250988 261.181241 
L 129.417095 261.181241 
L 129.417095 259.670731 
L 129.7043 259.670731 
L 129.7043 257.656717 
L 130.146945 257.656717 
L 130.146945 257.153214 
L 130.305359 257.153214 
L 130.305359 252.118179 
L 130.618241 252.118179 
L 130.695654 248.593655 
L 131.378407 248.593655 
L 131.378407 247.083145 
L 131.600593 247.083145 
L 131.600593 246.076138 
L 131.929028 246.076138 
L 131.929028 245.572634 
L 132.216233 245.572634 
L 132.216233 245.069131 
L 132.428795 245.069131 
L 132.428795 244.062124 
L 132.56918 244.062124 
L 132.673786 242.551614 
L 132.777813 242.551614 
L 132.777813 241.544607 
L 132.949924 241.544607 
L 132.949924 241.041103 
L 133.323114 241.041103 
L 133.323114 239.530593 
L 133.457005 239.530593 
L 133.457005 235.502566 
L 133.820365 235.502566 
L 133.820365 234.495559 
L 134.047992 234.495559 
L 134.112526 232.985048 
L 134.87014 232.985048 
L 134.87014 232.481545 
L 135.14656 232.481545 
L 135.14656 229.460524 
L 135.628162 229.460524 
L 135.657857 227.950014 
L 135.952253 227.950014 
L 135.981441 226.943007 
L 137.168148 226.943007 
L 137.168148 225.936 
L 137.547645 225.936 
L 137.627979 223.418483 
L 137.945929 223.418483 
L 137.945929 221.907972 
L 138.180913 221.907972 
L 138.180913 220.900966 
L 138.464186 220.900966 
L 138.489728 219.893959 
L 139.191172 219.893959 
L 139.191172 219.390455 
L 139.313723 219.390455 
L 139.313723 216.369434 
L 140.543056 216.369434 
L 140.543056 215.865931 
L 140.770526 215.865931 
L 140.860749 214.858924 
L 141.128852 214.858924 
L 141.217377 213.851917 
L 141.868361 213.851917 
L 141.868361 212.84491 
L 142.080444 212.84491 
L 142.080444 212.341407 
L 142.373399 212.341407 
L 142.394151 210.830897 
L 142.641404 210.830897 
L 142.641404 210.327393 
L 143.265494 210.327393 
L 143.265494 209.82389 
L 143.599145 209.82389 
L 143.599145 208.816883 
L 144.079302 208.816883 
L 144.079302 208.313379 
L 144.211579 208.313379 
L 144.211579 206.802869 
L 144.950106 206.802869 
L 144.950106 205.795862 
L 145.62583 205.795862 
L 145.62583 204.788855 
L 145.954802 204.788855 
L 145.954802 204.285352 
L 146.125662 204.285352 
L 146.125662 203.781848 
L 146.562769 203.781848 
L 146.629123 202.271338 
L 146.87589 202.271338 
L 146.87589 201.767834 
L 147.135588 201.767834 
L 147.135588 200.760828 
L 147.613064 200.760828 
L 147.613064 200.257324 
L 147.893838 200.257324 
L 147.893838 199.753821 
L 148.017294 199.753821 
L 148.017294 198.746814 
L 148.155221 198.746814 
L 148.155221 197.739807 
L 148.503173 197.739807 
L 148.503173 196.7328 
L 149.707872 196.7328 
L 149.79204 194.215283 
L 149.861894 194.215283 
L 149.931489 191.697766 
L 150.083698 191.697766 
L 150.083698 191.194262 
L 150.207323 191.194262 
L 150.289291 189.683752 
L 150.425115 189.683752 
L 150.425115 189.180248 
L 150.813548 189.180248 
L 150.813548 188.676745 
L 151.089903 188.676745 
L 151.089903 188.173241 
L 152.242637 188.173241 
L 152.242637 187.669738 
L 152.739781 187.669738 
L 152.739781 187.166234 
L 153.444416 187.166234 
L 153.444416 186.662731 
L 153.650761 186.662731 
L 153.673549 184.145214 
L 156.055505 184.145214 
L 156.055505 183.64171 
L 157.061501 183.64171 
L 157.061501 181.124193 
L 157.456756 181.124193 
L 157.549652 180.117186 
L 157.816487 180.117186 
L 157.816487 179.613683 
L 158.124583 179.613683 
L 158.187393 178.103172 
L 158.577468 178.103172 
L 158.577468 177.096166 
L 158.838864 177.096166 
L 158.838864 176.089159 
L 159.384659 176.089159 
L 159.384659 175.082152 
L 159.518669 175.082152 
L 159.518669 174.578648 
L 159.660016 174.578648 
L 159.660016 174.075145 
L 160.375185 174.075145 
L 160.375185 173.571641 
L 161.444664 173.571641 
L 161.534851 172.061131 
L 161.847145 172.061131 
L 161.847145 171.557628 
L 162.081651 171.557628 
L 162.081651 171.054124 
L 162.327652 171.054124 
L 162.327652 170.047117 
L 164.174745 170.047117 
L 164.272231 168.033103 
L 165.568365 168.033103 
L 165.568365 167.5296 
L 166.040396 167.5296 
L 166.040396 166.522593 
L 166.535389 166.522593 
L 166.535389 166.01909 
L 167.471536 166.01909 
L 167.520688 164.508579 
L 167.645719 164.508579 
L 167.645719 164.005076 
L 168.206184 164.005076 
L 168.206184 163.501572 
L 168.368511 163.501572 
L 168.368511 162.998069 
L 169.184759 162.998069 
L 169.184759 162.494566 
L 169.373521 162.494566 
L 169.373521 161.487559 
L 169.486859 161.487559 
L 169.486859 160.984055 
L 169.9383 160.984055 
L 169.957476 159.473545 
L 170.062595 159.473545 
L 170.062595 158.970041 
L 170.690486 158.970041 
L 170.690486 157.963034 
L 170.97406 157.963034 
L 170.978599 155.949021 
L 172.007388 155.949021 
L 172.007388 155.445517 
L 172.360687 155.445517 
L 172.360687 154.942014 
L 172.60369 154.942014 
L 172.60369 154.43851 
L 173.565266 154.43851 
L 173.624503 152.928 
L 173.941196 152.928 
L 173.941196 152.424497 
L 174.118701 152.424497 
L 174.118701 151.920993 
L 174.708501 151.920993 
L 174.786503 149.906979 
L 175.743995 149.906979 
L 175.743995 149.403476 
L 176.11375 149.403476 
L 176.186149 148.396469 
L 176.439069 148.396469 
L 176.439069 147.389462 
L 177.050311 147.389462 
L 177.050311 146.885959 
L 177.552933 146.885959 
L 177.552933 145.878952 
L 177.94558 145.878952 
L 177.961242 143.864938 
L 178.46176 143.864938 
L 178.46176 143.361434 
L 179.574564 143.361434 
L 179.574564 142.354428 
L 179.69202 142.354428 
L 179.69202 141.850924 
L 180.304517 141.850924 
L 180.323858 140.843917 
L 180.89502 140.843917 
L 180.972549 139.83691 
L 181.247987 139.83691 
L 181.247987 139.333407 
L 181.689715 139.333407 
L 181.689715 138.829903 
L 182.589793 138.829903 
L 182.589793 138.3264 
L 182.825777 138.3264 
L 182.825777 137.319393 
L 183.075545 137.319393 
L 183.075545 136.81589 
L 183.26308 136.81589 
L 183.26308 135.808883 
L 183.48615 135.808883 
L 183.532776 134.801876 
L 183.833065 134.801876 
L 183.833065 134.298372 
L 183.979157 134.298372 
L 183.979157 133.291366 
L 185.34919 133.291366 
L 185.34919 132.284359 
L 185.490306 132.284359 
L 185.490306 131.277352 
L 185.707277 131.277352 
L 185.759062 130.270345 
L 186.34156 130.270345 
L 186.34156 129.263338 
L 186.527153 129.263338 
L 186.527153 128.759834 
L 187.159796 128.759834 
L 187.159796 128.256331 
L 360.8064 128.256331 
L 360.8064 128.256331 
" style="fill: none; stroke: #000080; stroke-width: 1.5; stroke-linecap: square"/>
   </g>
   <g id="line2d_31">
    <defs>
     <path id="mbf2c2976eb" d="M 0 6 
C 1.591219 6 3.117479 5.367802 4.242641 4.242641 
C 5.367802 3.117479 6 1.591219 6 0 
C 6 -1.591219 5.367802 -3.117479 4.242641 -4.242641 
C 3.117479 -5.367802 1.591219 -6 0 -6 
C -1.591219 -6 -3.117479 -5.367802 -4.242641 -4.242641 
C -5.367802 -3.117479 -6 -1.591219 -6 0 
C -6 1.591219 -5.367802 3.117479 -4.242641 4.242641 
C -3.117479 5.367802 -1.591219 6 0 6 
z
" style="stroke: #000080; stroke-width: 1.5"/>
    </defs>
    <g>
     <use xlink:href="#mbf2c2976eb" x="119.669351" y="279.307366" style="fill-opacity: 0; stroke: #000080; stroke-width: 1.5"/>
     <use xlink:href="#mbf2c2976eb" x="143.265494" y="209.82389" style="fill-opacity: 0; stroke: #000080; stroke-width: 1.5"/>
     <use xlink:href="#mbf2c2976eb" x="174.771671" y="150.410483" style="fill-opacity: 0; stroke: #000080; stroke-width: 1.5"/>
     <use xlink:href="#mbf2c2976eb" x="187.159796" y="128.256331" style="fill-opacity: 0; stroke: #000080; stroke-width: 1.5"/>
     <use xlink:href="#mbf2c2976eb" x="187.159796" y="128.256331" style="fill-opacity: 0; stroke: #000080; stroke-width: 1.5"/>
     <use xlink:href="#mbf2c2976eb" x="360.8064" y="128.256331" style="fill-opacity: 0; stroke: #000080; stroke-width: 1.5"/>
    </g>
   </g>
   <g id="line2d_32">
    <path style="fill: none; stroke: #000080; stroke-width: 1.5; stroke-linecap: square"/>
    <g/>
   </g>
   <g id="line2d_33">
    <path d="M 187.538074 128.256331 
" clip-path="url(#p19731459d4)" style="fill: none; stroke: #000080; stroke-width: 1.5; stroke-linecap: square"/>
    <defs>
     <path id="mb9275fdd1b" d="M -12 12 
L 12 -12 
M -12 -12 
L 12 12 
" style="stroke: #000080"/>
    </defs>
    <g clip-path="url(#p19731459d4)">
     <use xlink:href="#mb9275fdd1b" x="187.538074" y="128.256331" style="fill: #000080; stroke: #000080"/>
    </g>
   </g>
   <g id="line2d_34">
    <defs>
     <path id="mfa02199dc6" d="M 0 1.5 
C 0.397805 1.5 0.77937 1.341951 1.06066 1.06066 
C 1.341951 0.77937 1.5 0.397805 1.5 0 
C 1.5 -0.397805 1.341951 -0.77937 1.06066 -1.06066 
C 0.77937 -1.341951 0.397805 -1.5 0 -1.5 
C -0.397805 -1.5 -0.77937 -1.341951 -1.06066 -1.06066 
C -1.341951 -0.77937 -1.5 -0.397805 -1.5 0 
C -1.5 0.397805 -1.341951 0.77937 -1.06066 1.06066 
C -0.77937 1.341951 -0.397805 1.5 0 1.5 
z
" style="stroke: #ff00ff"/>
    </defs>
    <g>
     <use xlink:href="#mfa02199dc6" x="185.4966" y="159.977048" style="fill: #ff00ff; stroke: #ff00ff"/>
     <use xlink:href="#mfa02199dc6" x="185.4966" y="159.977048" style="fill: #ff00ff; stroke: #ff00ff"/>
    </g>
   </g>
   <g id="line2d_35">
    <path d="M 14.2848 298.944 
L 14.2848 289.377434 
L 27.323974 289.377434 
L 27.323974 288.873931 
L 53.402323 288.873931 
L 53.402323 287.866924 
L 94.735529 287.866924 
L 94.735529 287.363421 
L 97.635342 287.363421 
L 97.635342 286.859917 
L 98.510456 286.859917 
L 98.510456 286.356414 
L 100.9152 286.356414 
L 100.9152 285.85291 
L 103.047088 285.85291 
L 103.047088 285.349407 
L 104.028784 285.349407 
L 104.028784 284.3424 
L 110.674517 284.3424 
L 110.674517 283.838897 
L 110.897141 283.838897 
L 110.897141 283.335393 
L 112.180244 283.335393 
L 112.180244 282.83189 
L 112.589207 282.83189 
L 112.589207 282.328386 
L 113.088217 282.328386 
L 113.088217 281.824883 
L 114.692177 281.824883 
L 114.692177 281.321379 
L 115.050503 281.321379 
L 115.050503 280.817876 
L 116.336531 280.817876 
L 116.336531 280.314372 
L 116.665126 280.314372 
L 116.665126 279.810869 
L 117.226706 279.810869 
L 117.226706 279.307366 
L 117.924947 279.307366 
L 117.924947 278.803862 
L 118.152051 278.803862 
L 118.152051 278.300359 
L 120.28394 278.300359 
L 120.28394 277.796855 
L 120.616896 277.796855 
L 120.616896 276.789848 
L 121.073351 276.789848 
L 121.073351 276.286345 
L 122.499621 276.286345 
L 122.499621 273.768828 
L 122.618682 273.768828 
L 122.618682 273.265324 
L 122.795872 273.265324 
L 122.795872 272.258317 
L 123.08753 272.258317 
L 123.08753 271.25131 
L 123.317644 271.25131 
L 123.317644 270.747807 
L 125.47606 270.747807 
L 125.47606 270.244303 
L 125.628382 270.244303 
L 125.628382 269.7408 
L 125.879541 269.7408 
L 125.879541 268.733793 
L 126.323346 268.733793 
L 126.323346 267.726786 
L 127.821575 267.726786 
L 127.821575 267.223283 
L 128.614685 267.223283 
L 128.700779 265.712772 
L 128.829186 265.712772 
L 128.829186 265.209269 
L 129.167381 265.209269 
L 129.209231 264.202262 
L 129.417095 264.202262 
L 129.417095 263.698759 
L 129.744974 263.698759 
L 129.744974 262.691752 
L 129.906795 262.691752 
L 129.906795 261.684745 
L 130.226319 261.684745 
L 130.305359 259.670731 
L 131.002163 259.670731 
L 131.002163 259.167228 
L 131.341119 259.167228 
L 131.341119 258.663724 
L 131.452761 258.663724 
L 131.563744 257.656717 
L 131.674076 257.656717 
L 131.674076 257.153214 
L 131.929028 257.153214 
L 131.929028 256.64971 
L 132.144842 256.64971 
L 132.144842 256.146207 
L 132.393534 256.146207 
L 132.393534 255.642703 
L 132.846847 255.642703 
L 132.846847 255.1392 
L 133.356676 255.1392 
L 133.423621 253.62869 
L 133.72196 253.62869 
L 133.820365 252.621683 
L 134.240933 252.621683 
L 134.336666 250.607669 
L 134.400219 250.607669 
L 134.400219 249.600662 
L 135.177024 249.600662 
L 135.177024 249.097159 
L 135.35878 249.097159 
L 135.35878 248.090152 
L 135.805631 248.090152 
L 135.805631 247.586648 
L 136.155623 247.586648 
L 136.155623 246.579641 
L 136.470828 246.579641 
L 136.470828 246.076138 
L 137.168148 246.076138 
L 137.168148 244.062124 
L 137.520791 244.062124 
L 137.520791 243.055117 
L 137.972183 243.055117 
L 137.972183 242.551614 
L 138.36167 242.551614 
L 138.36167 241.544607 
L 138.868751 241.544607 
L 138.868751 240.5376 
L 139.264798 240.5376 
L 139.264798 239.530593 
L 139.867398 239.530593 
L 139.867398 238.523586 
L 140.611586 238.523586 
L 140.611586 237.516579 
L 140.725251 237.516579 
L 140.725251 237.013076 
L 140.905699 237.013076 
L 140.905699 236.006069 
L 141.084433 236.006069 
L 141.084433 235.502566 
L 141.545685 235.502566 
L 141.545685 234.495559 
L 141.953481 234.495559 
L 141.953481 233.992055 
L 142.373399 233.992055 
L 142.373399 233.488552 
L 142.844994 233.488552 
L 142.925817 232.481545 
L 143.657415 232.481545 
L 143.657415 231.474538 
L 144.173881 231.474538 
L 144.173881 230.971034 
L 144.342932 230.971034 
L 144.436197 229.460524 
L 145.62583 229.460524 
L 145.62583 228.957021 
L 146.108646 228.957021 
L 146.125662 226.943007 
L 146.395851 226.943007 
L 146.395851 225.936 
L 147.660152 225.936 
L 147.660152 225.432497 
L 148.063382 225.432497 
L 148.063382 224.42549 
L 148.458151 224.42549 
L 148.458151 223.418483 
L 148.637595 223.418483 
L 148.637595 222.411476 
L 149.665646 222.411476 
L 149.665646 221.907972 
L 150.343738 221.907972 
L 150.343738 221.404469 
L 150.533072 221.404469 
L 150.533072 220.397462 
L 151.024471 220.397462 
L 151.063758 217.879945 
L 151.142085 217.879945 
L 151.142085 217.376441 
L 151.310683 217.376441 
L 151.310683 216.872938 
L 151.832729 216.872938 
L 151.832729 216.369434 
L 152.119363 216.369434 
L 152.119363 215.362428 
L 153.060137 215.362428 
L 153.060137 214.355421 
L 153.421349 214.355421 
L 153.421349 213.851917 
L 154.14583 213.851917 
L 154.14583 212.84491 
L 154.366625 212.84491 
L 154.366625 212.341407 
L 154.628204 212.341407 
L 154.628204 211.3344 
L 154.950144 211.3344 
L 154.950144 210.830897 
L 155.536743 210.830897 
L 155.536743 210.327393 
L 155.731683 210.327393 
L 155.731683 209.320386 
L 156.155566 209.320386 
L 156.225294 208.313379 
L 156.667477 208.313379 
L 156.667477 207.306372 
L 156.975712 207.306372 
L 156.975712 206.802869 
L 157.706532 206.802869 
L 157.706532 206.299366 
L 158.463058 206.299366 
L 158.507144 204.788855 
L 159.181837 204.788855 
L 159.232748 202.271338 
L 159.783859 202.271338 
L 159.783859 201.264331 
L 159.939564 201.264331 
L 159.939564 200.257324 
L 160.948489 200.257324 
L 160.948489 199.753821 
L 161.369176 199.753821 
L 161.369176 199.250317 
L 161.602209 199.250317 
L 161.602209 198.24331 
L 161.736206 198.24331 
L 161.736206 197.236303 
L 161.979414 197.236303 
L 161.979414 196.229297 
L 162.306075 196.229297 
L 162.306075 195.725793 
L 162.456597 195.725793 
L 162.55628 194.215283 
L 163.102189 194.215283 
L 163.102189 193.208276 
L 163.328465 193.208276 
L 163.328465 192.704772 
L 163.464289 192.704772 
L 163.464289 192.201269 
L 164.790101 192.201269 
L 164.790101 191.697766 
L 165.214111 191.697766 
L 165.214111 190.690759 
L 165.337023 190.690759 
L 165.337023 189.683752 
L 165.495616 189.683752 
L 165.495616 189.180248 
L 166.105193 189.180248 
L 166.163906 187.669738 
L 166.356368 187.669738 
L 166.356368 187.166234 
L 167.118257 187.166234 
L 167.118257 186.159228 
L 167.866558 186.159228 
L 167.866558 185.152221 
L 168.755541 185.152221 
L 168.796358 183.64171 
L 169.383404 183.64171 
L 169.383404 182.634703 
L 169.545722 182.634703 
L 169.638546 181.627697 
L 170.067359 181.627697 
L 170.067359 181.124193 
L 170.18134 181.124193 
L 170.28522 180.117186 
L 170.996743 180.117186 
L 171.100737 179.110179 
L 171.163758 179.110179 
L 171.199675 178.103172 
L 171.484569 178.103172 
L 171.484569 177.599669 
L 172.297327 177.599669 
L 172.343812 176.089159 
L 172.990976 176.089159 
L 172.990976 175.082152 
L 173.426318 175.082152 
L 173.426318 174.578648 
L 173.604778 174.578648 
L 173.604778 173.571641 
L 174.370492 173.571641 
L 174.370492 172.564634 
L 174.671243 172.564634 
L 174.697331 171.557628 
L 176.36764 171.557628 
L 176.398286 170.550621 
L 176.479765 170.550621 
L 176.479765 170.047117 
L 176.802199 170.047117 
L 176.802199 169.04011 
L 177.690023 169.04011 
L 177.690023 168.536607 
L 177.989401 168.536607 
L 178.02376 167.5296 
L 178.976024 167.5296 
L 179.058907 166.01909 
L 179.185485 166.01909 
L 179.185485 165.012083 
L 179.603279 165.012083 
L 179.603279 164.508579 
L 180.935161 164.508579 
L 180.935161 164.005076 
L 181.203239 164.005076 
L 181.203239 163.501572 
L 181.573793 163.501572 
L 181.573793 162.494566 
L 184.164695 162.494566 
L 184.164695 161.991062 
L 184.581089 161.991062 
L 184.581089 161.487559 
L 185.224041 161.487559 
L 185.224041 160.984055 
L 185.4966 160.984055 
L 185.4966 159.977048 
L 360.8064 159.977048 
L 360.8064 159.977048 
" style="fill: none; stroke: #ff00ff; stroke-width: 1.5; stroke-linecap: square"/>
   </g>
   <g id="line2d_36">
    <defs>
     <path id="m791dead204" d="M -0 8.485281 
L 5.091169 0 
L 0 -8.485281 
L -5.091169 -0 
z
" style="stroke: #ff00ff; stroke-width: 1.5; stroke-linejoin: miter"/>
    </defs>
    <g>
     <use xlink:href="#m791dead204" x="129.906795" y="262.691752" style="fill-opacity: 0; stroke: #ff00ff; stroke-width: 1.5; stroke-linejoin: miter"/>
     <use xlink:href="#m791dead204" x="168.755541" y="184.648717" style="fill-opacity: 0; stroke: #ff00ff; stroke-width: 1.5; stroke-linejoin: miter"/>
     <use xlink:href="#m791dead204" x="185.4966" y="159.977048" style="fill-opacity: 0; stroke: #ff00ff; stroke-width: 1.5; stroke-linejoin: miter"/>
     <use xlink:href="#m791dead204" x="185.4966" y="159.977048" style="fill-opacity: 0; stroke: #ff00ff; stroke-width: 1.5; stroke-linejoin: miter"/>
     <use xlink:href="#m791dead204" x="360.8064" y="159.977048" style="fill-opacity: 0; stroke: #ff00ff; stroke-width: 1.5; stroke-linejoin: miter"/>
    </g>
   </g>
   <g id="line2d_37">
    <path style="fill: none; stroke: #ff00ff; stroke-width: 1.5; stroke-linecap: square"/>
    <g/>
   </g>
   <g id="line2d_38">
    <path d="M 187.53431 159.977048 
" clip-path="url(#p19731459d4)" style="fill: none; stroke: #ff00ff; stroke-width: 1.5; stroke-linecap: square"/>
    <defs>
     <path id="m3942d23fe5" d="M -12 12 
L 12 -12 
M -12 -12 
L 12 12 
" style="stroke: #ff00ff"/>
    </defs>
    <g clip-path="url(#p19731459d4)">
     <use xlink:href="#m3942d23fe5" x="187.53431" y="159.977048" style="fill: #ff00ff; stroke: #ff00ff"/>
    </g>
   </g>
   <g id="line2d_39">
    <defs>
     <path id="m1a89f76ac3" d="M 0 1.5 
C 0.397805 1.5 0.77937 1.341951 1.06066 1.06066 
C 1.341951 0.77937 1.5 0.397805 1.5 0 
C 1.5 -0.397805 1.341951 -0.77937 1.06066 -1.06066 
C 0.77937 -1.341951 0.397805 -1.5 0 -1.5 
C -0.397805 -1.5 -0.77937 -1.341951 -1.06066 -1.06066 
C -1.341951 -0.77937 -1.5 -0.397805 -1.5 0 
C -1.5 0.397805 -1.341951 0.77937 -1.06066 1.06066 
C -0.77937 1.341951 -0.397805 1.5 0 1.5 
z
" style="stroke: #ff7500"/>
    </defs>
    <g>
     <use xlink:href="#m1a89f76ac3" x="186.763953" y="143.864938" style="fill: #ff7500; stroke: #ff7500"/>
     <use xlink:href="#m1a89f76ac3" x="186.763953" y="143.864938" style="fill: #ff7500; stroke: #ff7500"/>
    </g>
   </g>
   <g id="line2d_40">
    <path d="M 14.2848 298.944 
L 14.2848 280.817876 
L 110.897141 280.817876 
L 110.897141 280.314372 
L 113.284172 280.314372 
L 113.284172 279.810869 
L 115.050503 279.810869 
L 115.050503 279.307366 
L 117.617813 279.307366 
L 117.617813 278.803862 
L 120.28394 278.803862 
L 120.28394 277.293352 
L 120.616896 277.293352 
L 120.616896 276.789848 
L 121.008818 276.789848 
L 121.008818 275.782841 
L 121.706797 275.782841 
L 121.706797 275.279338 
L 123.713691 275.279338 
L 123.713691 274.775834 
L 125.011554 274.775834 
L 125.115773 273.768828 
L 125.373824 273.768828 
L 125.373824 271.754814 
L 126.565455 271.754814 
L 126.661432 270.244303 
L 127.549596 270.244303 
L 127.549596 268.733793 
L 128.266313 268.733793 
L 128.266313 268.23029 
L 128.484801 268.23029 
L 128.484801 267.726786 
L 129.947033 267.726786 
L 129.947033 267.223283 
L 130.305359 267.223283 
L 130.305359 266.719779 
L 130.46245 266.719779 
L 130.501519 265.712772 
L 130.772751 265.712772 
L 130.772751 265.209269 
L 131.002163 265.209269 
L 131.002163 264.705766 
L 131.191226 264.705766 
L 131.191226 264.202262 
L 131.600593 264.202262 
L 131.600593 263.195255 
L 131.783764 263.195255 
L 131.783764 262.691752 
L 132.001241 262.691752 
L 132.037244 261.181241 
L 132.358208 261.181241 
L 132.393534 259.670731 
L 132.708526 259.670731 
L 132.708526 259.167228 
L 133.323114 259.167228 
L 133.323114 258.663724 
L 133.490329 258.663724 
L 133.589949 256.64971 
L 134.176839 256.64971 
L 134.176839 256.146207 
L 134.431915 256.146207 
L 134.431915 255.1392 
L 134.745971 255.1392 
L 134.745971 254.132193 
L 134.901055 254.132193 
L 134.901055 253.62869 
L 135.268121 253.62869 
L 135.268121 252.621683 
L 135.538796 252.621683 
L 135.628162 251.111172 
L 135.864417 251.111172 
L 135.864417 250.104166 
L 136.039681 250.104166 
L 136.039681 249.600662 
L 136.155623 249.600662 
L 136.242113 247.083145 
L 136.356818 247.083145 
L 136.356818 246.076138 
L 136.584151 246.076138 
L 136.584151 245.572634 
L 136.696795 245.572634 
L 136.696795 244.565628 
L 136.808769 244.565628 
L 136.836659 243.558621 
L 137.358854 243.558621 
L 137.358854 242.551614 
L 137.547645 242.551614 
L 137.547645 241.544607 
L 138.076838 241.544607 
L 138.076838 240.5376 
L 138.489728 240.5376 
L 138.540708 239.530593 
L 138.768422 239.530593 
L 138.768422 238.523586 
L 138.89375 238.523586 
L 138.89375 238.020083 
L 139.141927 238.020083 
L 139.141927 237.516579 
L 139.411192 237.516579 
L 139.411192 236.509572 
L 139.676658 236.509572 
L 139.724525 234.999062 
L 139.962047 234.999062 
L 139.962047 233.992055 
L 140.611586 233.992055 
L 140.611586 233.488552 
L 140.928134 233.488552 
L 140.928134 232.481545 
L 141.106655 232.481545 
L 141.173167 230.467531 
L 141.696956 230.467531 
L 141.696956 229.964028 
L 142.743475 229.964028 
L 142.743475 228.957021 
L 143.811926 228.957021 
L 143.811926 228.453517 
L 144.022326 228.453517 
L 144.117191 226.943007 
L 144.324223 226.943007 
L 144.324223 225.936 
L 144.584466 225.936 
L 144.584466 224.928993 
L 144.768174 224.928993 
L 144.768174 223.921986 
L 145.851536 223.921986 
L 145.851536 222.914979 
L 146.227438 222.914979 
L 146.311833 221.404469 
L 146.562769 221.404469 
L 146.562769 220.900966 
L 146.941151 220.900966 
L 146.941151 219.893959 
L 147.565858 219.893959 
L 147.565858 219.390455 
L 147.909315 219.390455 
L 148.017294 217.376441 
L 148.711861 217.376441 
L 148.711861 216.872938 
L 148.947561 216.872938 
L 148.991428 215.865931 
L 150.438643 215.865931 
L 150.438643 214.858924 
L 151.037576 214.858924 
L 151.037576 213.851917 
L 151.349377 213.851917 
L 151.439354 212.341407 
L 152.057422 212.341407 
L 152.057422 211.837903 
L 152.595631 211.837903 
L 152.595631 210.830897 
L 154.156931 210.830897 
L 154.156931 210.327393 
L 154.725366 210.327393 
L 154.725366 209.320386 
L 155.371001 209.320386 
L 155.433326 205.292359 
L 155.608798 205.292359 
L 155.608798 204.285352 
L 155.813163 204.285352 
L 155.813163 203.278345 
L 156.383708 203.278345 
L 156.383708 202.271338 
L 156.579868 202.271338 
L 156.579868 201.264331 
L 158.551127 201.264331 
L 158.568692 200.257324 
L 158.976805 200.257324 
L 158.985393 198.746814 
L 159.376252 198.746814 
L 159.376252 197.739807 
L 159.535354 197.739807 
L 159.568678 195.22229 
L 159.996606 195.22229 
L 160.012872 193.711779 
L 160.174762 193.711779 
L 160.174762 192.704772 
L 161.110227 192.704772 
L 161.110227 192.201269 
L 161.594737 192.201269 
L 161.594737 191.697766 
L 161.964763 191.697766 
L 161.964763 191.194262 
L 162.520739 191.194262 
L 162.520739 190.690759 
L 162.824215 190.690759 
L 162.824215 190.187255 
L 163.484578 190.187255 
L 163.545315 189.180248 
L 163.806266 189.180248 
L 163.806266 188.676745 
L 164.542535 188.676745 
L 164.574457 187.166234 
L 165.465221 187.166234 
L 165.465221 186.662731 
L 165.640833 186.662731 
L 165.640833 185.152221 
L 166.239959 185.152221 
L 166.239959 184.648717 
L 166.489353 184.648717 
L 166.541136 183.64171 
L 166.995269 183.64171 
L 167.056864 182.1312 
L 167.726815 182.1312 
L 167.726815 181.124193 
L 168.005271 181.124193 
L 168.042443 179.110179 
L 168.29014 179.110179 
L 168.378936 177.599669 
L 168.581073 177.599669 
L 168.581073 177.096166 
L 169.609283 177.096166 
L 169.65803 175.082152 
L 170.014887 175.082152 
L 170.033985 173.571641 
L 170.190808 173.571641 
L 170.190808 173.068138 
L 170.304045 173.068138 
L 170.304045 172.061131 
L 170.4353 172.061131 
L 170.4353 171.557628 
L 170.584193 171.557628 
L 170.584193 171.054124 
L 170.887612 171.054124 
L 170.946803 170.047117 
L 171.373795 170.047117 
L 171.373795 169.04011 
L 171.691074 169.04011 
L 171.691074 168.033103 
L 171.82171 168.033103 
L 171.82171 167.5296 
L 171.96437 167.5296 
L 171.96437 167.026097 
L 172.148652 167.026097 
L 172.174222 165.515586 
L 172.511885 165.515586 
L 172.570358 164.005076 
L 172.773594 164.005076 
L 172.773594 163.501572 
L 173.137212 163.501572 
L 173.137212 162.998069 
L 173.370449 162.998069 
L 173.370449 162.494566 
L 173.648145 162.494566 
L 173.648145 161.991062 
L 173.948949 161.991062 
L 173.948949 161.487559 
L 174.153236 161.487559 
L 174.153236 160.984055 
L 174.483838 160.984055 
L 174.483838 160.480552 
L 174.607735 160.480552 
L 174.607735 159.977048 
L 175.204392 159.977048 
L 175.204392 159.473545 
L 175.434991 159.473545 
L 175.438571 158.466538 
L 175.591903 158.466538 
L 175.591903 157.963034 
L 175.985509 157.963034 
L 176.061866 156.956028 
L 177.10282 156.956028 
L 177.10282 156.452524 
L 177.456694 156.452524 
L 177.456694 155.949021 
L 178.281011 155.949021 
L 178.281011 155.445517 
L 178.692059 155.445517 
L 178.770203 152.424497 
L 180.059666 152.424497 
L 180.059666 151.41749 
L 180.207514 151.41749 
L 180.207514 150.913986 
L 180.792944 150.913986 
L 180.792944 150.410483 
L 180.983218 150.410483 
L 180.983218 149.906979 
L 181.779386 149.906979 
L 181.779386 149.403476 
L 183.326748 149.403476 
L 183.326748 148.899972 
L 184.424076 148.899972 
L 184.475083 147.389462 
L 184.984155 147.389462 
L 184.984155 146.885959 
L 185.732152 146.885959 
L 185.814831 144.871945 
L 186.011791 144.871945 
L 186.011791 144.368441 
L 186.763953 144.368441 
L 186.763953 143.864938 
L 360.8064 143.864938 
L 360.8064 143.864938 
" style="fill: none; stroke: #ff7500; stroke-width: 1.5; stroke-linecap: square"/>
   </g>
   <g id="line2d_41">
    <defs>
     <path id="m41eb5ded83" d="M 0 -6 
L -1.347084 -1.854102 
L -5.706339 -1.854102 
L -2.179628 0.708204 
L -3.526712 4.854102 
L -0 2.291796 
L 3.526712 4.854102 
L 2.179628 0.708204 
L 5.706339 -1.854102 
L 1.347084 -1.854102 
z
" style="stroke: #ff7500; stroke-width: 1.5; stroke-linejoin: bevel"/>
    </defs>
    <g>
     <use xlink:href="#m41eb5ded83" x="156.383708" y="202.271338" style="fill-opacity: 0; stroke: #ff7500; stroke-width: 1.5; stroke-linejoin: bevel"/>
     <use xlink:href="#m41eb5ded83" x="186.763953" y="144.368441" style="fill-opacity: 0; stroke: #ff7500; stroke-width: 1.5; stroke-linejoin: bevel"/>
     <use xlink:href="#m41eb5ded83" x="186.763953" y="143.864938" style="fill-opacity: 0; stroke: #ff7500; stroke-width: 1.5; stroke-linejoin: bevel"/>
     <use xlink:href="#m41eb5ded83" x="186.763953" y="143.864938" style="fill-opacity: 0; stroke: #ff7500; stroke-width: 1.5; stroke-linejoin: bevel"/>
     <use xlink:href="#m41eb5ded83" x="360.8064" y="143.864938" style="fill-opacity: 0; stroke: #ff7500; stroke-width: 1.5; stroke-linejoin: bevel"/>
    </g>
   </g>
   <g id="line2d_42">
    <path style="fill: none; stroke: #ff7500; stroke-width: 1.5; stroke-linecap: square"/>
    <g/>
   </g>
   <g id="line2d_43">
    <path d="M 187.53431 143.864938 
" clip-path="url(#p19731459d4)" style="fill: none; stroke: #ff7500; stroke-width: 1.5; stroke-linecap: square"/>
    <defs>
     <path id="m4ab0678a45" d="M -12 12 
L 12 -12 
M -12 -12 
L 12 12 
" style="stroke: #ff7500"/>
    </defs>
    <g clip-path="url(#p19731459d4)">
     <use xlink:href="#m4ab0678a45" x="187.53431" y="143.864938" style="fill: #ff7500; stroke: #ff7500"/>
    </g>
   </g>
   <g id="line2d_44">
    <path d="M 360.8064 159.977048 
L 380.514816 293.10336 
" style="fill: none; stroke: #ff00ff; stroke-width: 1.5; stroke-linecap: square"/>
    <g>
     <use xlink:href="#m791dead204" x="360.8064" y="159.977048" style="fill-opacity: 0; stroke: #ff00ff; stroke-width: 1.5; stroke-linejoin: miter"/>
     <use xlink:href="#m791dead204" x="380.514816" y="293.10336" style="fill-opacity: 0; stroke: #ff00ff; stroke-width: 1.5; stroke-linejoin: miter"/>
    </g>
   </g>
   <g id="line2d_45">
    <path d="M 360.8064 143.864938 
L 380.514816 152.928 
" style="fill: none; stroke: #ff7500; stroke-width: 1.5; stroke-linecap: square"/>
    <g>
     <use xlink:href="#m41eb5ded83" x="360.8064" y="143.864938" style="fill-opacity: 0; stroke: #ff7500; stroke-width: 1.5; stroke-linejoin: bevel"/>
     <use xlink:href="#m41eb5ded83" x="380.514816" y="152.928" style="fill-opacity: 0; stroke: #ff7500; stroke-width: 1.5; stroke-linejoin: bevel"/>
    </g>
   </g>
   <g id="line2d_46">
    <path d="M 360.8064 128.256331 
L 380.514816 12.75264 
" style="fill: none; stroke: #000080; stroke-width: 1.5; stroke-linecap: square"/>
    <g>
     <use xlink:href="#mbf2c2976eb" x="360.8064" y="128.256331" style="fill-opacity: 0; stroke: #000080; stroke-width: 1.5"/>
     <use xlink:href="#mbf2c2976eb" x="380.514816" y="12.75264" style="fill-opacity: 0; stroke: #000080; stroke-width: 1.5"/>
    </g>
   </g>
   <g id="line2d_47">
    <path d="M 360.8064 298.944 
L 360.8064 6.912 
" style="fill: none; stroke: #000000; stroke-width: 1.5; stroke-linecap: square"/>
   </g>
   <g id="patch_3">
    <path d="M 57.6 298.944 
L 360.8064 298.944 
" style="fill: none; stroke: #000000; stroke-width: 0.8; stroke-linejoin: miter; stroke-linecap: square"/>
   </g>
   <g id="patch_4">
    <path d="M 57.6 6.912 
L 360.8064 6.912 
" style="fill: none; stroke: #000000; stroke-width: 0.8; stroke-linejoin: miter; stroke-linecap: square"/>
   </g>
   <g id="text_13">
    <!-- f21 -->
    <g transform="translate(386.578944 296.966485) scale(0.14 -0.14)">
     <use xlink:href="#DejaVuSans-66"/>
     <use xlink:href="#DejaVuSans-32" x="35.205078"/>
     <use xlink:href="#DejaVuSans-31" x="98.828125"/>
    </g>
   </g>
   <g id="text_14">
    <!-- f28 -->
    <g transform="translate(386.578944 156.791125) scale(0.14 -0.14)">
     <use xlink:href="#DejaVuSans-66"/>
     <use xlink:href="#DejaVuSans-32" x="35.205078"/>
     <use xlink:href="#DejaVuSans-38" x="98.828125"/>
    </g>
   </g>
   <g id="text_15">
    <!-- f20 -->
    <g transform="translate(386.578944 16.615765) scale(0.14 -0.14)">
     <use xlink:href="#DejaVuSans-66"/>
     <use xlink:href="#DejaVuSans-32" x="35.205078"/>
     <use xlink:href="#DejaVuSans-30" x="98.828125"/>
    </g>
   </g>
   <g id="text_16">
    <!-- bbob-biobj -->
    <g transform="translate(60.632064 17.582726) scale(0.102 -0.102)">
     <defs>
      <path id="DejaVuSans-62" d="M 3116 1747 
Q 3116 2381 2855 2742 
Q 2594 3103 2138 3103 
Q 1681 3103 1420 2742 
Q 1159 2381 1159 1747 
Q 1159 1113 1420 752 
Q 1681 391 2138 391 
Q 2594 391 2855 752 
Q 3116 1113 3116 1747 
z
M 1159 2969 
Q 1341 3281 1617 3432 
Q 1894 3584 2278 3584 
Q 2916 3584 3314 3078 
Q 3713 2572 3713 1747 
Q 3713 922 3314 415 
Q 2916 -91 2278 -91 
Q 1894 -91 1617 61 
Q 1341 213 1159 525 
L 1159 0 
L 581 0 
L 581 4863 
L 1159 4863 
L 1159 2969 
z
" transform="scale(0.015625)"/>
      <path id="DejaVuSans-6a" d="M 603 3500 
L 1178 3500 
L 1178 -63 
Q 1178 -731 923 -1031 
Q 669 -1331 103 -1331 
L -116 -1331 
L -116 -844 
L 38 -844 
Q 366 -844 484 -692 
Q 603 -541 603 -63 
L 603 3500 
z
M 603 4863 
L 1178 4863 
L 1178 4134 
L 603 4134 
L 603 4863 
z
" transform="scale(0.015625)"/>
     </defs>
     <use xlink:href="#DejaVuSans-62"/>
     <use xlink:href="#DejaVuSans-62" x="63.476562"/>
     <use xlink:href="#DejaVuSans-6f" x="126.953125"/>
     <use xlink:href="#DejaVuSans-62" x="188.134766"/>
     <use xlink:href="#DejaVuSans-2d" x="251.611328"/>
     <use xlink:href="#DejaVuSans-62" x="287.695312"/>
     <use xlink:href="#DejaVuSans-69" x="351.171875"/>
     <use xlink:href="#DejaVuSans-6f" x="378.955078"/>
     <use xlink:href="#DejaVuSans-62" x="440.136719"/>
     <use xlink:href="#DejaVuSans-6a" x="503.613281"/>
    </g>
    <!-- 2-moderate 2-moderate, 10-D -->
    <g transform="translate(60.632064 29.004495) scale(0.102 -0.102)">
     <defs>
      <path id="DejaVuSans-44" d="M 1259 4147 
L 1259 519 
L 2022 519 
Q 2988 519 3436 956 
Q 3884 1394 3884 2338 
Q 3884 3275 3436 3711 
Q 2988 4147 2022 4147 
L 1259 4147 
z
M 628 4666 
L 1925 4666 
Q 3281 4666 3915 4102 
Q 4550 3538 4550 2338 
Q 4550 1131 3912 565 
Q 3275 0 1925 0 
L 628 0 
L 628 4666 
z
" transform="scale(0.015625)"/>
     </defs>
     <use xlink:href="#DejaVuSans-32"/>
     <use xlink:href="#DejaVuSans-2d" x="63.623047"/>
     <use xlink:href="#DejaVuSans-6d" x="99.707031"/>
     <use xlink:href="#DejaVuSans-6f" x="197.119141"/>
     <use xlink:href="#DejaVuSans-64" x="258.300781"/>
     <use xlink:href="#DejaVuSans-65" x="321.777344"/>
     <use xlink:href="#DejaVuSans-72" x="383.300781"/>
     <use xlink:href="#DejaVuSans-61" x="424.414062"/>
     <use xlink:href="#DejaVuSans-74" x="485.693359"/>
     <use xlink:href="#DejaVuSans-65" x="524.902344"/>
     <use xlink:href="#DejaVuSans-20" x="586.425781"/>
     <use xlink:href="#DejaVuSans-32" x="618.212891"/>
     <use xlink:href="#DejaVuSans-2d" x="681.835938"/>
     <use xlink:href="#DejaVuSans-6d" x="717.919922"/>
     <use xlink:href="#DejaVuSans-6f" x="815.332031"/>
     <use xlink:href="#DejaVuSans-64" x="876.513672"/>
     <use xlink:href="#DejaVuSans-65" x="939.990234"/>
     <use xlink:href="#DejaVuSans-72" x="1001.513672"/>
     <use xlink:href="#DejaVuSans-61" x="1042.626953"/>
     <use xlink:href="#DejaVuSans-74" x="1103.90625"/>
     <use xlink:href="#DejaVuSans-65" x="1143.115234"/>
     <use xlink:href="#DejaVuSans-2c" x="1204.638672"/>
     <use xlink:href="#DejaVuSans-20" x="1236.425781"/>
     <use xlink:href="#DejaVuSans-31" x="1268.212891"/>
     <use xlink:href="#DejaVuSans-30" x="1331.835938"/>
     <use xlink:href="#DejaVuSans-2d" x="1395.458984"/>
     <use xlink:href="#DejaVuSans-44" x="1431.542969"/>
    </g>
    <!-- 58 targets: 1..-1.0e-4 -->
    <g transform="translate(60.632064 40.426264) scale(0.102 -0.102)">
     <defs>
      <path id="DejaVuSans-35" d="M 691 4666 
L 3169 4666 
L 3169 4134 
L 1269 4134 
L 1269 2991 
Q 1406 3038 1543 3061 
Q 1681 3084 1819 3084 
Q 2600 3084 3056 2656 
Q 3513 2228 3513 1497 
Q 3513 744 3044 326 
Q 2575 -91 1722 -91 
Q 1428 -91 1123 -41 
Q 819 9 494 109 
L 494 744 
Q 775 591 1075 516 
Q 1375 441 1709 441 
Q 2250 441 2565 725 
Q 2881 1009 2881 1497 
Q 2881 1984 2565 2268 
Q 2250 2553 1709 2553 
Q 1456 2553 1204 2497 
Q 953 2441 691 2322 
L 691 4666 
z
" transform="scale(0.015625)"/>
      <path id="DejaVuSans-3a" d="M 750 794 
L 1409 794 
L 1409 0 
L 750 0 
L 750 794 
z
M 750 3309 
L 1409 3309 
L 1409 2516 
L 750 2516 
L 750 3309 
z
" transform="scale(0.015625)"/>
     </defs>
     <use xlink:href="#DejaVuSans-35"/>
     <use xlink:href="#DejaVuSans-38" x="63.623047"/>
     <use xlink:href="#DejaVuSans-20" x="127.246094"/>
     <use xlink:href="#DejaVuSans-74" x="159.033203"/>
     <use xlink:href="#DejaVuSans-61" x="198.242188"/>
     <use xlink:href="#DejaVuSans-72" x="259.521484"/>
     <use xlink:href="#DejaVuSans-67" x="298.884766"/>
     <use xlink:href="#DejaVuSans-65" x="362.361328"/>
     <use xlink:href="#DejaVuSans-74" x="423.884766"/>
     <use xlink:href="#DejaVuSans-73" x="463.09375"/>
     <use xlink:href="#DejaVuSans-3a" x="515.193359"/>
     <use xlink:href="#DejaVuSans-20" x="548.884766"/>
     <use xlink:href="#DejaVuSans-31" x="580.671875"/>
     <use xlink:href="#DejaVuSans-2e" x="644.294922"/>
     <use xlink:href="#DejaVuSans-2e" x="676.082031"/>
     <use xlink:href="#DejaVuSans-2d" x="707.869141"/>
     <use xlink:href="#DejaVuSans-31" x="743.953125"/>
     <use xlink:href="#DejaVuSans-2e" x="807.576172"/>
     <use xlink:href="#DejaVuSans-30" x="839.363281"/>
     <use xlink:href="#DejaVuSans-65" x="902.986328"/>
     <use xlink:href="#DejaVuSans-2d" x="964.509766"/>
     <use xlink:href="#DejaVuSans-34" x="1000.59375"/>
    </g>
    <!-- 10 instances -->
    <g transform="translate(60.632064 51.848032) scale(0.102 -0.102)">
     <use xlink:href="#DejaVuSans-31"/>
     <use xlink:href="#DejaVuSans-30" x="63.623047"/>
     <use xlink:href="#DejaVuSans-20" x="127.246094"/>
     <use xlink:href="#DejaVuSans-69" x="159.033203"/>
     <use xlink:href="#DejaVuSans-6e" x="186.816406"/>
     <use xlink:href="#DejaVuSans-73" x="250.195312"/>
     <use xlink:href="#DejaVuSans-74" x="302.294922"/>
     <use xlink:href="#DejaVuSans-61" x="341.503906"/>
     <use xlink:href="#DejaVuSans-6e" x="402.783203"/>
     <use xlink:href="#DejaVuSans-63" x="466.162109"/>
     <use xlink:href="#DejaVuSans-65" x="521.142578"/>
     <use xlink:href="#DejaVuSans-73" x="582.666016"/>
    </g>
   </g>
   <g id="text_17">
    <!-- v2.6, hv-hash=ff0e71e8cd978373 -->
    <g style="fill: #808080" transform="translate(123.707887 293.943992) scale(0.1 -0.1)">
     <defs>
      <path id="DejaVuSans-68" d="M 3513 2113 
L 3513 0 
L 2938 0 
L 2938 2094 
Q 2938 2591 2744 2837 
Q 2550 3084 2163 3084 
Q 1697 3084 1428 2787 
Q 1159 2491 1159 1978 
L 1159 0 
L 581 0 
L 581 4863 
L 1159 4863 
L 1159 2956 
Q 1366 3272 1645 3428 
Q 1925 3584 2291 3584 
Q 2894 3584 3203 3211 
Q 3513 2838 3513 2113 
z
" transform="scale(0.015625)"/>
      <path id="DejaVuSans-3d" d="M 678 2906 
L 4684 2906 
L 4684 2381 
L 678 2381 
L 678 2906 
z
M 678 1631 
L 4684 1631 
L 4684 1100 
L 678 1100 
L 678 1631 
z
" transform="scale(0.015625)"/>
      <path id="DejaVuSans-37" d="M 525 4666 
L 3525 4666 
L 3525 4397 
L 1831 0 
L 1172 0 
L 2766 4134 
L 525 4134 
L 525 4666 
z
" transform="scale(0.015625)"/>
      <path id="DejaVuSans-39" d="M 703 97 
L 703 672 
Q 941 559 1184 500 
Q 1428 441 1663 441 
Q 2288 441 2617 861 
Q 2947 1281 2994 2138 
Q 2813 1869 2534 1725 
Q 2256 1581 1919 1581 
Q 1219 1581 811 2004 
Q 403 2428 403 3163 
Q 403 3881 828 4315 
Q 1253 4750 1959 4750 
Q 2769 4750 3195 4129 
Q 3622 3509 3622 2328 
Q 3622 1225 3098 567 
Q 2575 -91 1691 -91 
Q 1453 -91 1209 -44 
Q 966 3 703 97 
z
M 1959 2075 
Q 2384 2075 2632 2365 
Q 2881 2656 2881 3163 
Q 2881 3666 2632 3958 
Q 2384 4250 1959 4250 
Q 1534 4250 1286 3958 
Q 1038 3666 1038 3163 
Q 1038 2656 1286 2365 
Q 1534 2075 1959 2075 
z
" transform="scale(0.015625)"/>
      <path id="DejaVuSans-33" d="M 2597 2516 
Q 3050 2419 3304 2112 
Q 3559 1806 3559 1356 
Q 3559 666 3084 287 
Q 2609 -91 1734 -91 
Q 1441 -91 1130 -33 
Q 819 25 488 141 
L 488 750 
Q 750 597 1062 519 
Q 1375 441 1716 441 
Q 2309 441 2620 675 
Q 2931 909 2931 1356 
Q 2931 1769 2642 2001 
Q 2353 2234 1838 2234 
L 1294 2234 
L 1294 2753 
L 1863 2753 
Q 2328 2753 2575 2939 
Q 2822 3125 2822 3475 
Q 2822 3834 2567 4026 
Q 2313 4219 1838 4219 
Q 1578 4219 1281 4162 
Q 984 4106 628 3988 
L 628 4550 
Q 988 4650 1302 4700 
Q 1616 4750 1894 4750 
Q 2613 4750 3031 4423 
Q 3450 4097 3450 3541 
Q 3450 3153 3228 2886 
Q 3006 2619 2597 2516 
z
" transform="scale(0.015625)"/>
     </defs>
     <use xlink:href="#DejaVuSans-76"/>
     <use xlink:href="#DejaVuSans-32" x="59.179688"/>
     <use xlink:href="#DejaVuSans-2e" x="122.802734"/>
     <use xlink:href="#DejaVuSans-36" x="154.589844"/>
     <use xlink:href="#DejaVuSans-2c" x="218.212891"/>
     <use xlink:href="#DejaVuSans-20" x="250"/>
     <use xlink:href="#DejaVuSans-68" x="281.787109"/>
     <use xlink:href="#DejaVuSans-76" x="345.166016"/>
     <use xlink:href="#DejaVuSans-2d" x="401.720703"/>
     <use xlink:href="#DejaVuSans-68" x="437.804688"/>
     <use xlink:href="#DejaVuSans-61" x="501.183594"/>
     <use xlink:href="#DejaVuSans-73" x="562.462891"/>
     <use xlink:href="#DejaVuSans-68" x="614.5625"/>
     <use xlink:href="#DejaVuSans-3d" x="677.941406"/>
     <use xlink:href="#DejaVuSans-66" x="761.730469"/>
     <use xlink:href="#DejaVuSans-66" x="796.935547"/>
     <use xlink:href="#DejaVuSans-30" x="832.140625"/>
     <use xlink:href="#DejaVuSans-65" x="895.763672"/>
     <use xlink:href="#DejaVuSans-37" x="957.287109"/>
     <use xlink:href="#DejaVuSans-31" x="1020.910156"/>
     <use xlink:href="#DejaVuSans-65" x="1084.533203"/>
     <use xlink:href="#DejaVuSans-38" x="1146.056641"/>
     <use xlink:href="#DejaVuSans-63" x="1209.679688"/>
     <use xlink:href="#DejaVuSans-64" x="1264.660156"/>
     <use xlink:href="#DejaVuSans-39" x="1328.136719"/>
     <use xlink:href="#DejaVuSans-37" x="1391.759766"/>
     <use xlink:href="#DejaVuSans-38" x="1455.382812"/>
     <use xlink:href="#DejaVuSans-33" x="1519.005859"/>
     <use xlink:href="#DejaVuSans-37" x="1582.628906"/>
     <use xlink:href="#DejaVuSans-33" x="1646.251953"/>
    </g>
   </g>
  </g>
 </g>
 <defs>
  <clipPath id="p19731459d4">
   <rect x="57.6" y="6.912" width="303.2064" height="292.032"/>
  </clipPath>
 </defs>
</svg>
