<?xml version="1.0" encoding="utf-8" standalone="no"?>
<!DOCTYPE svg PUBLIC "-//W3C//DTD SVG 1.1//EN"
  "http://www.w3.org/Graphics/SVG/1.1/DTD/svg11.dtd">
<svg xmlns:xlink="http://www.w3.org/1999/xlink" width="460.8pt" height="345.6pt" viewBox="0 0 460.8 345.6" xmlns="http://www.w3.org/2000/svg" version="1.1">
 <metadata>
  <rdf:RDF xmlns:dc="http://purl.org/dc/elements/1.1/" xmlns:cc="http://creativecommons.org/ns#" xmlns:rdf="http://www.w3.org/1999/02/22-rdf-syntax-ns#">
   <cc:Work>
    <dc:type rdf:resource="http://purl.org/dc/dcmitype/StillImage"/>
    <dc:date>2023-02-16T10:10:50.599905</dc:date>
    <dc:format>image/svg+xml</dc:format>
    <dc:creator>
     <cc:Agent>
      <dc:title>Matplotlib v3.6.3, https://matplotlib.org/</dc:title>
     </cc:Agent>
    </dc:creator>
   </cc:Work>
  </rdf:RDF>
 </metadata>
 <defs>
  <style type="text/css">*{stroke-linejoin: round; stroke-linecap: butt}</style>
 </defs>
 <g id="figure_1">
  <g id="patch_1">
   <path d="M 0 345.6 
L 460.8 345.6 
L 460.8 0 
L 0 0 
z
" style="fill: #ffffff"/>
  </g>
  <g id="axes_1">
   <g id="patch_2">
    <path d="M 57.6 298.944 
L 360.8064 298.944 
L 360.8064 27.648 
L 57.6 27.648 
z
" style="fill: #ffffff"/>
   </g>
   <g id="matplotlib.axis_1">
    <g id="xtick_1">
     <g id="line2d_1">
      <path d="M 57.6 298.944 
L 57.6 27.648 
" clip-path="url(#pd570ca71c1)" style="fill: none; stroke: #b0b0b0; stroke-width: 0.8; stroke-linecap: square"/>
     </g>
     <g id="line2d_2">
      <defs>
       <path id="m91fe394dec" d="M 0 0 
L 0 3.5 
" style="stroke: #000000; stroke-width: 0.8"/>
      </defs>
      <g>
       <use xlink:href="#m91fe394dec" x="57.6" y="298.944" style="stroke: #000000; stroke-width: 0.8"/>
      </g>
     </g>
     <g id="text_1">
      <!-- 0 -->
      <g transform="translate(52.191875 318.861344) scale(0.17 -0.17)">
       <defs>
        <path id="DejaVuSans-30" d="M 2034 4250 
Q 1547 4250 1301 3770 
Q 1056 3291 1056 2328 
Q 1056 1369 1301 889 
Q 1547 409 2034 409 
Q 2525 409 2770 889 
Q 3016 1369 3016 2328 
Q 3016 3291 2770 3770 
Q 2525 4250 2034 4250 
z
M 2034 4750 
Q 2819 4750 3233 4129 
Q 3647 3509 3647 2328 
Q 3647 1150 3233 529 
Q 2819 -91 2034 -91 
Q 1250 -91 836 529 
Q 422 1150 422 2328 
Q 422 3509 836 4129 
Q 1250 4750 2034 4750 
z
" transform="scale(0.015625)"/>
       </defs>
       <use xlink:href="#DejaVuSans-30"/>
      </g>
     </g>
    </g>
    <g id="xtick_2">
     <g id="line2d_3">
      <path d="M 144.2304 298.944 
L 144.2304 27.648 
" clip-path="url(#pd570ca71c1)" style="fill: none; stroke: #b0b0b0; stroke-width: 0.8; stroke-linecap: square"/>
     </g>
     <g id="line2d_4">
      <g>
       <use xlink:href="#m91fe394dec" x="144.2304" y="298.944" style="stroke: #000000; stroke-width: 0.8"/>
      </g>
     </g>
     <g id="text_2">
      <!-- 2 -->
      <g transform="translate(138.822275 318.861344) scale(0.17 -0.17)">
       <defs>
        <path id="DejaVuSans-32" d="M 1228 531 
L 3431 531 
L 3431 0 
L 469 0 
L 469 531 
Q 828 903 1448 1529 
Q 2069 2156 2228 2338 
Q 2531 2678 2651 2914 
Q 2772 3150 2772 3378 
Q 2772 3750 2511 3984 
Q 2250 4219 1831 4219 
Q 1534 4219 1204 4116 
Q 875 4013 500 3803 
L 500 4441 
Q 881 4594 1212 4672 
Q 1544 4750 1819 4750 
Q 2544 4750 2975 4387 
Q 3406 4025 3406 3419 
Q 3406 3131 3298 2873 
Q 3191 2616 2906 2266 
Q 2828 2175 2409 1742 
Q 1991 1309 1228 531 
z
" transform="scale(0.015625)"/>
       </defs>
       <use xlink:href="#DejaVuSans-32"/>
      </g>
     </g>
    </g>
    <g id="xtick_3">
     <g id="line2d_5">
      <path d="M 230.8608 298.944 
L 230.8608 27.648 
" clip-path="url(#pd570ca71c1)" style="fill: none; stroke: #b0b0b0; stroke-width: 0.8; stroke-linecap: square"/>
     </g>
     <g id="line2d_6">
      <g>
       <use xlink:href="#m91fe394dec" x="230.8608" y="298.944" style="stroke: #000000; stroke-width: 0.8"/>
      </g>
     </g>
     <g id="text_3">
      <!-- 4 -->
      <g transform="translate(225.452675 318.861344) scale(0.17 -0.17)">
       <defs>
        <path id="DejaVuSans-34" d="M 2419 4116 
L 825 1625 
L 2419 1625 
L 2419 4116 
z
M 2253 4666 
L 3047 4666 
L 3047 1625 
L 3713 1625 
L 3713 1100 
L 3047 1100 
L 3047 0 
L 2419 0 
L 2419 1100 
L 313 1100 
L 313 1709 
L 2253 4666 
z
" transform="scale(0.015625)"/>
       </defs>
       <use xlink:href="#DejaVuSans-34"/>
      </g>
     </g>
    </g>
    <g id="xtick_4">
     <g id="line2d_7">
      <path d="M 317.4912 298.944 
L 317.4912 27.648 
" clip-path="url(#pd570ca71c1)" style="fill: none; stroke: #b0b0b0; stroke-width: 0.8; stroke-linecap: square"/>
     </g>
     <g id="line2d_8">
      <g>
       <use xlink:href="#m91fe394dec" x="317.4912" y="298.944" style="stroke: #000000; stroke-width: 0.8"/>
      </g>
     </g>
     <g id="text_4">
      <!-- 6 -->
      <g transform="translate(312.083075 318.861344) scale(0.17 -0.17)">
       <defs>
        <path id="DejaVuSans-36" d="M 2113 2584 
Q 1688 2584 1439 2293 
Q 1191 2003 1191 1497 
Q 1191 994 1439 701 
Q 1688 409 2113 409 
Q 2538 409 2786 701 
Q 3034 994 3034 1497 
Q 3034 2003 2786 2293 
Q 2538 2584 2113 2584 
z
M 3366 4563 
L 3366 3988 
Q 3128 4100 2886 4159 
Q 2644 4219 2406 4219 
Q 1781 4219 1451 3797 
Q 1122 3375 1075 2522 
Q 1259 2794 1537 2939 
Q 1816 3084 2150 3084 
Q 2853 3084 3261 2657 
Q 3669 2231 3669 1497 
Q 3669 778 3244 343 
Q 2819 -91 2113 -91 
Q 1303 -91 875 529 
Q 447 1150 447 2328 
Q 447 3434 972 4092 
Q 1497 4750 2381 4750 
Q 2619 4750 2861 4703 
Q 3103 4656 3366 4563 
z
" transform="scale(0.015625)"/>
       </defs>
       <use xlink:href="#DejaVuSans-36"/>
      </g>
     </g>
    </g>
    <g id="xtick_5">
     <g id="line2d_9">
      <path d="M 100.9152 298.944 
L 100.9152 27.648 
" clip-path="url(#pd570ca71c1)" style="fill: none; stroke: #b0b0b0; stroke-width: 0.8; stroke-linecap: square"/>
     </g>
     <g id="line2d_10">
      <defs>
       <path id="me2e03c73e7" d="M 0 0 
L 0 2 
" style="stroke: #000000; stroke-width: 0.6"/>
      </defs>
      <g>
       <use xlink:href="#me2e03c73e7" x="100.9152" y="298.944" style="stroke: #000000; stroke-width: 0.6"/>
      </g>
     </g>
    </g>
    <g id="xtick_6">
     <g id="line2d_11">
      <path d="M 187.5456 298.944 
L 187.5456 27.648 
" clip-path="url(#pd570ca71c1)" style="fill: none; stroke: #b0b0b0; stroke-width: 0.8; stroke-linecap: square"/>
     </g>
     <g id="line2d_12">
      <g>
       <use xlink:href="#me2e03c73e7" x="187.5456" y="298.944" style="stroke: #000000; stroke-width: 0.6"/>
      </g>
     </g>
    </g>
    <g id="xtick_7">
     <g id="line2d_13">
      <path d="M 274.176 298.944 
L 274.176 27.648 
" clip-path="url(#pd570ca71c1)" style="fill: none; stroke: #b0b0b0; stroke-width: 0.8; stroke-linecap: square"/>
     </g>
     <g id="line2d_14">
      <g>
       <use xlink:href="#me2e03c73e7" x="274.176" y="298.944" style="stroke: #000000; stroke-width: 0.6"/>
      </g>
     </g>
    </g>
    <g id="xtick_8">
     <g id="line2d_15">
      <path d="M 360.8064 298.944 
L 360.8064 27.648 
" clip-path="url(#pd570ca71c1)" style="fill: none; stroke: #b0b0b0; stroke-width: 0.8; stroke-linecap: square"/>
     </g>
     <g id="line2d_16">
      <g>
       <use xlink:href="#me2e03c73e7" x="360.8064" y="298.944" style="stroke: #000000; stroke-width: 0.6"/>
      </g>
     </g>
    </g>
    <g id="text_5">
     <!-- log10(# f-evals / dimension) -->
     <g transform="translate(88.823278 339.314156) scale(0.17 -0.17)">
      <defs>
       <path id="DejaVuSans-6c" d="M 603 4863 
L 1178 4863 
L 1178 0 
L 603 0 
L 603 4863 
z
" transform="scale(0.015625)"/>
       <path id="DejaVuSans-6f" d="M 1959 3097 
Q 1497 3097 1228 2736 
Q 959 2375 959 1747 
Q 959 1119 1226 758 
Q 1494 397 1959 397 
Q 2419 397 2687 759 
Q 2956 1122 2956 1747 
Q 2956 2369 2687 2733 
Q 2419 3097 1959 3097 
z
M 1959 3584 
Q 2709 3584 3137 3096 
Q 3566 2609 3566 1747 
Q 3566 888 3137 398 
Q 2709 -91 1959 -91 
Q 1206 -91 779 398 
Q 353 888 353 1747 
Q 353 2609 779 3096 
Q 1206 3584 1959 3584 
z
" transform="scale(0.015625)"/>
       <path id="DejaVuSans-67" d="M 2906 1791 
Q 2906 2416 2648 2759 
Q 2391 3103 1925 3103 
Q 1463 3103 1205 2759 
Q 947 2416 947 1791 
Q 947 1169 1205 825 
Q 1463 481 1925 481 
Q 2391 481 2648 825 
Q 2906 1169 2906 1791 
z
M 3481 434 
Q 3481 -459 3084 -895 
Q 2688 -1331 1869 -1331 
Q 1566 -1331 1297 -1286 
Q 1028 -1241 775 -1147 
L 775 -588 
Q 1028 -725 1275 -790 
Q 1522 -856 1778 -856 
Q 2344 -856 2625 -561 
Q 2906 -266 2906 331 
L 2906 616 
Q 2728 306 2450 153 
Q 2172 0 1784 0 
Q 1141 0 747 490 
Q 353 981 353 1791 
Q 353 2603 747 3093 
Q 1141 3584 1784 3584 
Q 2172 3584 2450 3431 
Q 2728 3278 2906 2969 
L 2906 3500 
L 3481 3500 
L 3481 434 
z
" transform="scale(0.015625)"/>
       <path id="DejaVuSans-31" d="M 794 531 
L 1825 531 
L 1825 4091 
L 703 3866 
L 703 4441 
L 1819 4666 
L 2450 4666 
L 2450 531 
L 3481 531 
L 3481 0 
L 794 0 
L 794 531 
z
" transform="scale(0.015625)"/>
       <path id="DejaVuSans-28" d="M 1984 4856 
Q 1566 4138 1362 3434 
Q 1159 2731 1159 2009 
Q 1159 1288 1364 580 
Q 1569 -128 1984 -844 
L 1484 -844 
Q 1016 -109 783 600 
Q 550 1309 550 2009 
Q 550 2706 781 3412 
Q 1013 4119 1484 4856 
L 1984 4856 
z
" transform="scale(0.015625)"/>
       <path id="DejaVuSans-23" d="M 3272 2816 
L 2363 2816 
L 2100 1772 
L 3016 1772 
L 3272 2816 
z
M 2803 4594 
L 2478 3297 
L 3391 3297 
L 3719 4594 
L 4219 4594 
L 3897 3297 
L 4872 3297 
L 4872 2816 
L 3775 2816 
L 3519 1772 
L 4513 1772 
L 4513 1294 
L 3397 1294 
L 3072 0 
L 2572 0 
L 2894 1294 
L 1978 1294 
L 1656 0 
L 1153 0 
L 1478 1294 
L 494 1294 
L 494 1772 
L 1594 1772 
L 1856 2816 
L 850 2816 
L 850 3297 
L 1978 3297 
L 2297 4594 
L 2803 4594 
z
" transform="scale(0.015625)"/>
       <path id="DejaVuSans-20" transform="scale(0.015625)"/>
       <path id="DejaVuSans-66" d="M 2375 4863 
L 2375 4384 
L 1825 4384 
Q 1516 4384 1395 4259 
Q 1275 4134 1275 3809 
L 1275 3500 
L 2222 3500 
L 2222 3053 
L 1275 3053 
L 1275 0 
L 697 0 
L 697 3053 
L 147 3053 
L 147 3500 
L 697 3500 
L 697 3744 
Q 697 4328 969 4595 
Q 1241 4863 1831 4863 
L 2375 4863 
z
" transform="scale(0.015625)"/>
       <path id="DejaVuSans-2d" d="M 313 2009 
L 1997 2009 
L 1997 1497 
L 313 1497 
L 313 2009 
z
" transform="scale(0.015625)"/>
       <path id="DejaVuSans-65" d="M 3597 1894 
L 3597 1613 
L 953 1613 
Q 991 1019 1311 708 
Q 1631 397 2203 397 
Q 2534 397 2845 478 
Q 3156 559 3463 722 
L 3463 178 
Q 3153 47 2828 -22 
Q 2503 -91 2169 -91 
Q 1331 -91 842 396 
Q 353 884 353 1716 
Q 353 2575 817 3079 
Q 1281 3584 2069 3584 
Q 2775 3584 3186 3129 
Q 3597 2675 3597 1894 
z
M 3022 2063 
Q 3016 2534 2758 2815 
Q 2500 3097 2075 3097 
Q 1594 3097 1305 2825 
Q 1016 2553 972 2059 
L 3022 2063 
z
" transform="scale(0.015625)"/>
       <path id="DejaVuSans-76" d="M 191 3500 
L 800 3500 
L 1894 563 
L 2988 3500 
L 3597 3500 
L 2284 0 
L 1503 0 
L 191 3500 
z
" transform="scale(0.015625)"/>
       <path id="DejaVuSans-61" d="M 2194 1759 
Q 1497 1759 1228 1600 
Q 959 1441 959 1056 
Q 959 750 1161 570 
Q 1363 391 1709 391 
Q 2188 391 2477 730 
Q 2766 1069 2766 1631 
L 2766 1759 
L 2194 1759 
z
M 3341 1997 
L 3341 0 
L 2766 0 
L 2766 531 
Q 2569 213 2275 61 
Q 1981 -91 1556 -91 
Q 1019 -91 701 211 
Q 384 513 384 1019 
Q 384 1609 779 1909 
Q 1175 2209 1959 2209 
L 2766 2209 
L 2766 2266 
Q 2766 2663 2505 2880 
Q 2244 3097 1772 3097 
Q 1472 3097 1187 3025 
Q 903 2953 641 2809 
L 641 3341 
Q 956 3463 1253 3523 
Q 1550 3584 1831 3584 
Q 2591 3584 2966 3190 
Q 3341 2797 3341 1997 
z
" transform="scale(0.015625)"/>
       <path id="DejaVuSans-73" d="M 2834 3397 
L 2834 2853 
Q 2591 2978 2328 3040 
Q 2066 3103 1784 3103 
Q 1356 3103 1142 2972 
Q 928 2841 928 2578 
Q 928 2378 1081 2264 
Q 1234 2150 1697 2047 
L 1894 2003 
Q 2506 1872 2764 1633 
Q 3022 1394 3022 966 
Q 3022 478 2636 193 
Q 2250 -91 1575 -91 
Q 1294 -91 989 -36 
Q 684 19 347 128 
L 347 722 
Q 666 556 975 473 
Q 1284 391 1588 391 
Q 1994 391 2212 530 
Q 2431 669 2431 922 
Q 2431 1156 2273 1281 
Q 2116 1406 1581 1522 
L 1381 1569 
Q 847 1681 609 1914 
Q 372 2147 372 2553 
Q 372 3047 722 3315 
Q 1072 3584 1716 3584 
Q 2034 3584 2315 3537 
Q 2597 3491 2834 3397 
z
" transform="scale(0.015625)"/>
       <path id="DejaVuSans-2f" d="M 1625 4666 
L 2156 4666 
L 531 -594 
L 0 -594 
L 1625 4666 
z
" transform="scale(0.015625)"/>
       <path id="DejaVuSans-64" d="M 2906 2969 
L 2906 4863 
L 3481 4863 
L 3481 0 
L 2906 0 
L 2906 525 
Q 2725 213 2448 61 
Q 2172 -91 1784 -91 
Q 1150 -91 751 415 
Q 353 922 353 1747 
Q 353 2572 751 3078 
Q 1150 3584 1784 3584 
Q 2172 3584 2448 3432 
Q 2725 3281 2906 2969 
z
M 947 1747 
Q 947 1113 1208 752 
Q 1469 391 1925 391 
Q 2381 391 2643 752 
Q 2906 1113 2906 1747 
Q 2906 2381 2643 2742 
Q 2381 3103 1925 3103 
Q 1469 3103 1208 2742 
Q 947 2381 947 1747 
z
" transform="scale(0.015625)"/>
       <path id="DejaVuSans-69" d="M 603 3500 
L 1178 3500 
L 1178 0 
L 603 0 
L 603 3500 
z
M 603 4863 
L 1178 4863 
L 1178 4134 
L 603 4134 
L 603 4863 
z
" transform="scale(0.015625)"/>
       <path id="DejaVuSans-6d" d="M 3328 2828 
Q 3544 3216 3844 3400 
Q 4144 3584 4550 3584 
Q 5097 3584 5394 3201 
Q 5691 2819 5691 2113 
L 5691 0 
L 5113 0 
L 5113 2094 
Q 5113 2597 4934 2840 
Q 4756 3084 4391 3084 
Q 3944 3084 3684 2787 
Q 3425 2491 3425 1978 
L 3425 0 
L 2847 0 
L 2847 2094 
Q 2847 2600 2669 2842 
Q 2491 3084 2119 3084 
Q 1678 3084 1418 2786 
Q 1159 2488 1159 1978 
L 1159 0 
L 581 0 
L 581 3500 
L 1159 3500 
L 1159 2956 
Q 1356 3278 1631 3431 
Q 1906 3584 2284 3584 
Q 2666 3584 2933 3390 
Q 3200 3197 3328 2828 
z
" transform="scale(0.015625)"/>
       <path id="DejaVuSans-6e" d="M 3513 2113 
L 3513 0 
L 2938 0 
L 2938 2094 
Q 2938 2591 2744 2837 
Q 2550 3084 2163 3084 
Q 1697 3084 1428 2787 
Q 1159 2491 1159 1978 
L 1159 0 
L 581 0 
L 581 3500 
L 1159 3500 
L 1159 2956 
Q 1366 3272 1645 3428 
Q 1925 3584 2291 3584 
Q 2894 3584 3203 3211 
Q 3513 2838 3513 2113 
z
" transform="scale(0.015625)"/>
       <path id="DejaVuSans-29" d="M 513 4856 
L 1013 4856 
Q 1481 4119 1714 3412 
Q 1947 2706 1947 2009 
Q 1947 1309 1714 600 
Q 1481 -109 1013 -844 
L 513 -844 
Q 928 -128 1133 580 
Q 1338 1288 1338 2009 
Q 1338 2731 1133 3434 
Q 928 4138 513 4856 
z
" transform="scale(0.015625)"/>
      </defs>
      <use xlink:href="#DejaVuSans-6c"/>
      <use xlink:href="#DejaVuSans-6f" x="27.783203"/>
      <use xlink:href="#DejaVuSans-67" x="88.964844"/>
      <use xlink:href="#DejaVuSans-31" x="152.441406"/>
      <use xlink:href="#DejaVuSans-30" x="216.064453"/>
      <use xlink:href="#DejaVuSans-28" x="279.6875"/>
      <use xlink:href="#DejaVuSans-23" x="318.701172"/>
      <use xlink:href="#DejaVuSans-20" x="402.490234"/>
      <use xlink:href="#DejaVuSans-66" x="434.277344"/>
      <use xlink:href="#DejaVuSans-2d" x="463.982422"/>
      <use xlink:href="#DejaVuSans-65" x="500.066406"/>
      <use xlink:href="#DejaVuSans-76" x="561.589844"/>
      <use xlink:href="#DejaVuSans-61" x="620.769531"/>
      <use xlink:href="#DejaVuSans-6c" x="682.048828"/>
      <use xlink:href="#DejaVuSans-73" x="709.832031"/>
      <use xlink:href="#DejaVuSans-20" x="761.931641"/>
      <use xlink:href="#DejaVuSans-2f" x="793.71875"/>
      <use xlink:href="#DejaVuSans-20" x="827.410156"/>
      <use xlink:href="#DejaVuSans-64" x="859.197266"/>
      <use xlink:href="#DejaVuSans-69" x="922.673828"/>
      <use xlink:href="#DejaVuSans-6d" x="950.457031"/>
      <use xlink:href="#DejaVuSans-65" x="1047.869141"/>
      <use xlink:href="#DejaVuSans-6e" x="1109.392578"/>
      <use xlink:href="#DejaVuSans-73" x="1172.771484"/>
      <use xlink:href="#DejaVuSans-69" x="1224.871094"/>
      <use xlink:href="#DejaVuSans-6f" x="1252.654297"/>
      <use xlink:href="#DejaVuSans-6e" x="1313.835938"/>
      <use xlink:href="#DejaVuSans-29" x="1377.214844"/>
     </g>
    </g>
   </g>
   <g id="matplotlib.axis_2">
    <g id="ytick_1">
     <g id="line2d_17">
      <path d="M 57.6 298.944 
L 360.8064 298.944 
" clip-path="url(#pd570ca71c1)" style="fill: none; stroke: #b0b0b0; stroke-width: 0.8; stroke-linecap: square"/>
     </g>
     <g id="line2d_18">
      <defs>
       <path id="mc28e1e7019" d="M 0 0 
L -3.5 0 
" style="stroke: #000000; stroke-width: 0.8"/>
      </defs>
      <g>
       <use xlink:href="#mc28e1e7019" x="57.6" y="298.944" style="stroke: #000000; stroke-width: 0.8"/>
      </g>
     </g>
     <g id="text_6">
      <!-- 0.0 -->
      <g transform="translate(25.155 305.02275) scale(0.16 -0.16)">
       <defs>
        <path id="DejaVuSans-2e" d="M 684 794 
L 1344 794 
L 1344 0 
L 684 0 
L 684 794 
z
" transform="scale(0.015625)"/>
       </defs>
       <use xlink:href="#DejaVuSans-30"/>
       <use xlink:href="#DejaVuSans-2e" x="63.623047"/>
       <use xlink:href="#DejaVuSans-30" x="95.410156"/>
      </g>
     </g>
    </g>
    <g id="ytick_2">
     <g id="line2d_19">
      <path d="M 57.6 244.6848 
L 360.8064 244.6848 
" clip-path="url(#pd570ca71c1)" style="fill: none; stroke: #b0b0b0; stroke-width: 0.8; stroke-linecap: square"/>
     </g>
     <g id="line2d_20">
      <g>
       <use xlink:href="#mc28e1e7019" x="57.6" y="244.6848" style="stroke: #000000; stroke-width: 0.8"/>
      </g>
     </g>
     <g id="text_7">
      <!-- 0.2 -->
      <g transform="translate(25.155 250.76355) scale(0.16 -0.16)">
       <use xlink:href="#DejaVuSans-30"/>
       <use xlink:href="#DejaVuSans-2e" x="63.623047"/>
       <use xlink:href="#DejaVuSans-32" x="95.410156"/>
      </g>
     </g>
    </g>
    <g id="ytick_3">
     <g id="line2d_21">
      <path d="M 57.6 190.4256 
L 360.8064 190.4256 
" clip-path="url(#pd570ca71c1)" style="fill: none; stroke: #b0b0b0; stroke-width: 0.8; stroke-linecap: square"/>
     </g>
     <g id="line2d_22">
      <g>
       <use xlink:href="#mc28e1e7019" x="57.6" y="190.4256" style="stroke: #000000; stroke-width: 0.8"/>
      </g>
     </g>
     <g id="text_8">
      <!-- 0.4 -->
      <g transform="translate(25.155 196.50435) scale(0.16 -0.16)">
       <use xlink:href="#DejaVuSans-30"/>
       <use xlink:href="#DejaVuSans-2e" x="63.623047"/>
       <use xlink:href="#DejaVuSans-34" x="95.410156"/>
      </g>
     </g>
    </g>
    <g id="ytick_4">
     <g id="line2d_23">
      <path d="M 57.6 136.1664 
L 360.8064 136.1664 
" clip-path="url(#pd570ca71c1)" style="fill: none; stroke: #b0b0b0; stroke-width: 0.8; stroke-linecap: square"/>
     </g>
     <g id="line2d_24">
      <g>
       <use xlink:href="#mc28e1e7019" x="57.6" y="136.1664" style="stroke: #000000; stroke-width: 0.8"/>
      </g>
     </g>
     <g id="text_9">
      <!-- 0.6 -->
      <g transform="translate(25.155 142.24515) scale(0.16 -0.16)">
       <use xlink:href="#DejaVuSans-30"/>
       <use xlink:href="#DejaVuSans-2e" x="63.623047"/>
       <use xlink:href="#DejaVuSans-36" x="95.410156"/>
      </g>
     </g>
    </g>
    <g id="ytick_5">
     <g id="line2d_25">
      <path d="M 57.6 81.9072 
L 360.8064 81.9072 
" clip-path="url(#pd570ca71c1)" style="fill: none; stroke: #b0b0b0; stroke-width: 0.8; stroke-linecap: square"/>
     </g>
     <g id="line2d_26">
      <g>
       <use xlink:href="#mc28e1e7019" x="57.6" y="81.9072" style="stroke: #000000; stroke-width: 0.8"/>
      </g>
     </g>
     <g id="text_10">
      <!-- 0.8 -->
      <g transform="translate(25.155 87.98595) scale(0.16 -0.16)">
       <defs>
        <path id="DejaVuSans-38" d="M 2034 2216 
Q 1584 2216 1326 1975 
Q 1069 1734 1069 1313 
Q 1069 891 1326 650 
Q 1584 409 2034 409 
Q 2484 409 2743 651 
Q 3003 894 3003 1313 
Q 3003 1734 2745 1975 
Q 2488 2216 2034 2216 
z
M 1403 2484 
Q 997 2584 770 2862 
Q 544 3141 544 3541 
Q 544 4100 942 4425 
Q 1341 4750 2034 4750 
Q 2731 4750 3128 4425 
Q 3525 4100 3525 3541 
Q 3525 3141 3298 2862 
Q 3072 2584 2669 2484 
Q 3125 2378 3379 2068 
Q 3634 1759 3634 1313 
Q 3634 634 3220 271 
Q 2806 -91 2034 -91 
Q 1263 -91 848 271 
Q 434 634 434 1313 
Q 434 1759 690 2068 
Q 947 2378 1403 2484 
z
M 1172 3481 
Q 1172 3119 1398 2916 
Q 1625 2713 2034 2713 
Q 2441 2713 2670 2916 
Q 2900 3119 2900 3481 
Q 2900 3844 2670 4047 
Q 2441 4250 2034 4250 
Q 1625 4250 1398 4047 
Q 1172 3844 1172 3481 
z
" transform="scale(0.015625)"/>
       </defs>
       <use xlink:href="#DejaVuSans-30"/>
       <use xlink:href="#DejaVuSans-2e" x="63.623047"/>
       <use xlink:href="#DejaVuSans-38" x="95.410156"/>
      </g>
     </g>
    </g>
    <g id="ytick_6">
     <g id="line2d_27">
      <path d="M 57.6 27.648 
L 360.8064 27.648 
" clip-path="url(#pd570ca71c1)" style="fill: none; stroke: #b0b0b0; stroke-width: 0.8; stroke-linecap: square"/>
     </g>
     <g id="line2d_28">
      <g>
       <use xlink:href="#mc28e1e7019" x="57.6" y="27.648" style="stroke: #000000; stroke-width: 0.8"/>
      </g>
     </g>
     <g id="text_11">
      <!-- 1.0 -->
      <g transform="translate(25.155 33.72675) scale(0.16 -0.16)">
       <use xlink:href="#DejaVuSans-31"/>
       <use xlink:href="#DejaVuSans-2e" x="63.623047"/>
       <use xlink:href="#DejaVuSans-30" x="95.410156"/>
      </g>
     </g>
    </g>
    <g id="text_12">
     <!-- Fraction of function,target pairs -->
     <g transform="translate(17.619531 297.681) rotate(-90) scale(0.17 -0.17)">
      <defs>
       <path id="DejaVuSans-46" d="M 628 4666 
L 3309 4666 
L 3309 4134 
L 1259 4134 
L 1259 2759 
L 3109 2759 
L 3109 2228 
L 1259 2228 
L 1259 0 
L 628 0 
L 628 4666 
z
" transform="scale(0.015625)"/>
       <path id="DejaVuSans-72" d="M 2631 2963 
Q 2534 3019 2420 3045 
Q 2306 3072 2169 3072 
Q 1681 3072 1420 2755 
Q 1159 2438 1159 1844 
L 1159 0 
L 581 0 
L 581 3500 
L 1159 3500 
L 1159 2956 
Q 1341 3275 1631 3429 
Q 1922 3584 2338 3584 
Q 2397 3584 2469 3576 
Q 2541 3569 2628 3553 
L 2631 2963 
z
" transform="scale(0.015625)"/>
       <path id="DejaVuSans-63" d="M 3122 3366 
L 3122 2828 
Q 2878 2963 2633 3030 
Q 2388 3097 2138 3097 
Q 1578 3097 1268 2742 
Q 959 2388 959 1747 
Q 959 1106 1268 751 
Q 1578 397 2138 397 
Q 2388 397 2633 464 
Q 2878 531 3122 666 
L 3122 134 
Q 2881 22 2623 -34 
Q 2366 -91 2075 -91 
Q 1284 -91 818 406 
Q 353 903 353 1747 
Q 353 2603 823 3093 
Q 1294 3584 2113 3584 
Q 2378 3584 2631 3529 
Q 2884 3475 3122 3366 
z
" transform="scale(0.015625)"/>
       <path id="DejaVuSans-74" d="M 1172 4494 
L 1172 3500 
L 2356 3500 
L 2356 3053 
L 1172 3053 
L 1172 1153 
Q 1172 725 1289 603 
Q 1406 481 1766 481 
L 2356 481 
L 2356 0 
L 1766 0 
Q 1100 0 847 248 
Q 594 497 594 1153 
L 594 3053 
L 172 3053 
L 172 3500 
L 594 3500 
L 594 4494 
L 1172 4494 
z
" transform="scale(0.015625)"/>
       <path id="DejaVuSans-75" d="M 544 1381 
L 544 3500 
L 1119 3500 
L 1119 1403 
Q 1119 906 1312 657 
Q 1506 409 1894 409 
Q 2359 409 2629 706 
Q 2900 1003 2900 1516 
L 2900 3500 
L 3475 3500 
L 3475 0 
L 2900 0 
L 2900 538 
Q 2691 219 2414 64 
Q 2138 -91 1772 -91 
Q 1169 -91 856 284 
Q 544 659 544 1381 
z
M 1991 3584 
L 1991 3584 
z
" transform="scale(0.015625)"/>
       <path id="DejaVuSans-2c" d="M 750 794 
L 1409 794 
L 1409 256 
L 897 -744 
L 494 -744 
L 750 256 
L 750 794 
z
" transform="scale(0.015625)"/>
       <path id="DejaVuSans-70" d="M 1159 525 
L 1159 -1331 
L 581 -1331 
L 581 3500 
L 1159 3500 
L 1159 2969 
Q 1341 3281 1617 3432 
Q 1894 3584 2278 3584 
Q 2916 3584 3314 3078 
Q 3713 2572 3713 1747 
Q 3713 922 3314 415 
Q 2916 -91 2278 -91 
Q 1894 -91 1617 61 
Q 1341 213 1159 525 
z
M 3116 1747 
Q 3116 2381 2855 2742 
Q 2594 3103 2138 3103 
Q 1681 3103 1420 2742 
Q 1159 2381 1159 1747 
Q 1159 1113 1420 752 
Q 1681 391 2138 391 
Q 2594 391 2855 752 
Q 3116 1113 3116 1747 
z
" transform="scale(0.015625)"/>
      </defs>
      <use xlink:href="#DejaVuSans-46"/>
      <use xlink:href="#DejaVuSans-72" x="50.269531"/>
      <use xlink:href="#DejaVuSans-61" x="91.382812"/>
      <use xlink:href="#DejaVuSans-63" x="152.662109"/>
      <use xlink:href="#DejaVuSans-74" x="207.642578"/>
      <use xlink:href="#DejaVuSans-69" x="246.851562"/>
      <use xlink:href="#DejaVuSans-6f" x="274.634766"/>
      <use xlink:href="#DejaVuSans-6e" x="335.816406"/>
      <use xlink:href="#DejaVuSans-20" x="399.195312"/>
      <use xlink:href="#DejaVuSans-6f" x="430.982422"/>
      <use xlink:href="#DejaVuSans-66" x="492.164062"/>
      <use xlink:href="#DejaVuSans-20" x="527.369141"/>
      <use xlink:href="#DejaVuSans-66" x="559.15625"/>
      <use xlink:href="#DejaVuSans-75" x="594.361328"/>
      <use xlink:href="#DejaVuSans-6e" x="657.740234"/>
      <use xlink:href="#DejaVuSans-63" x="721.119141"/>
      <use xlink:href="#DejaVuSans-74" x="776.099609"/>
      <use xlink:href="#DejaVuSans-69" x="815.308594"/>
      <use xlink:href="#DejaVuSans-6f" x="843.091797"/>
      <use xlink:href="#DejaVuSans-6e" x="904.273438"/>
      <use xlink:href="#DejaVuSans-2c" x="967.652344"/>
      <use xlink:href="#DejaVuSans-74" x="999.439453"/>
      <use xlink:href="#DejaVuSans-61" x="1038.648438"/>
      <use xlink:href="#DejaVuSans-72" x="1099.927734"/>
      <use xlink:href="#DejaVuSans-67" x="1139.291016"/>
      <use xlink:href="#DejaVuSans-65" x="1202.767578"/>
      <use xlink:href="#DejaVuSans-74" x="1264.291016"/>
      <use xlink:href="#DejaVuSans-20" x="1303.5"/>
      <use xlink:href="#DejaVuSans-70" x="1335.287109"/>
      <use xlink:href="#DejaVuSans-61" x="1398.763672"/>
      <use xlink:href="#DejaVuSans-69" x="1460.042969"/>
      <use xlink:href="#DejaVuSans-72" x="1487.826172"/>
      <use xlink:href="#DejaVuSans-73" x="1528.939453"/>
     </g>
    </g>
   </g>
   <g id="line2d_29">
    <defs>
     <path id="ma269078a5b" d="M 0 1.5 
C 0.397805 1.5 0.77937 1.341951 1.06066 1.06066 
C 1.341951 0.77937 1.5 0.397805 1.5 0 
C 1.5 -0.397805 1.341951 -0.77937 1.06066 -1.06066 
C 0.77937 -1.341951 0.397805 -1.5 0 -1.5 
C -0.397805 -1.5 -0.77937 -1.341951 -1.06066 -1.06066 
C -1.341951 -0.77937 -1.5 -0.397805 -1.5 0 
C -1.5 0.397805 -1.341951 0.77937 -1.06066 1.06066 
C -0.77937 1.341951 -0.397805 1.5 0 1.5 
z
" style="stroke: #00bfbf"/>
    </defs>
    <g>
     <use xlink:href="#ma269078a5b" x="187.385018" y="163.296" style="fill: #00bfbf; stroke: #00bfbf"/>
     <use xlink:href="#ma269078a5b" x="187.385018" y="163.296" style="fill: #00bfbf; stroke: #00bfbf"/>
    </g>
   </g>
   <g id="line2d_30">
    <path d="M 44.560826 298.944 
L 44.560826 293.330979 
L 57.6 293.330979 
L 57.6 287.717959 
L 83.678349 287.717959 
L 83.678349 287.250207 
L 94.205591 287.250207 
L 94.205591 284.911448 
L 102.708132 284.911448 
L 102.708132 283.040441 
L 105.850679 283.040441 
L 105.850679 279.298428 
L 106.560633 279.298428 
L 106.560633 273.685407 
L 109.756698 273.685407 
L 109.756698 273.217655 
L 110.897141 273.217655 
L 110.897141 271.8144 
L 113.954374 271.8144 
L 113.954374 271.346648 
L 114.418881 271.346648 
L 114.418881 269.943393 
L 114.872193 269.943393 
L 114.872193 268.072386 
L 116.170056 268.072386 
L 116.170056 267.604634 
L 116.988079 267.604634 
L 116.988079 266.669131 
L 118.524569 266.669131 
L 118.524569 266.201379 
L 118.889854 266.201379 
L 118.889854 265.733628 
L 121.265635 265.733628 
L 121.265635 264.798124 
L 122.19863 264.798124 
L 122.19863 264.330372 
L 123.08753 264.330372 
L 123.08753 262.459366 
L 123.936316 262.459366 
L 123.936316 261.991614 
L 124.210942 261.991614 
L 124.210942 261.523862 
L 124.481616 261.523862 
L 124.481616 258.717352 
L 125.271028 258.717352 
L 125.271028 257.314097 
L 125.526971 257.314097 
L 125.526971 256.378593 
L 126.028642 256.378593 
L 126.028642 254.975338 
L 126.517282 254.975338 
L 126.517282 250.765572 
L 126.993549 250.765572 
L 126.993549 250.297821 
L 128.786481 250.297821 
L 128.786481 248.894566 
L 128.999044 248.894566 
L 128.999044 248.426814 
L 129.209231 248.426814 
L 129.209231 247.49131 
L 130.618241 247.49131 
L 130.618241 244.6848 
L 131.563744 244.6848 
L 131.563744 244.217048 
L 132.287354 244.217048 
L 132.287354 243.749297 
L 133.490329 243.749297 
L 133.490329 241.87829 
L 135.538796 241.87829 
L 135.538796 240.007283 
L 136.270855 240.007283 
L 136.270855 239.071779 
L 136.555884 239.071779 
L 136.555884 238.604028 
L 136.836659 238.604028 
L 136.836659 238.136276 
L 137.919637 238.136276 
L 137.919637 237.200772 
L 138.050729 237.200772 
L 138.050729 236.265269 
L 138.310202 236.265269 
L 138.310202 234.394262 
L 139.067817 234.394262 
L 139.067817 233.92651 
L 139.313723 233.92651 
L 139.313723 233.458759 
L 140.14993 233.458759 
L 140.14993 232.055503 
L 141.932237 232.055503 
L 141.932237 231.12 
L 142.352625 231.12 
L 142.352625 230.652248 
L 143.462475 230.652248 
L 143.462475 229.248993 
L 144.041338 229.248993 
L 144.041338 228.781241 
L 145.237585 228.781241 
L 145.237585 228.31349 
L 145.93763 228.31349 
L 145.93763 227.845738 
L 146.695245 227.845738 
L 146.777571 225.039228 
L 147.022411 225.039228 
L 147.103321 223.635972 
L 147.183884 223.635972 
L 147.183884 223.168221 
L 147.502732 223.168221 
L 147.502732 222.232717 
L 148.352679 222.232717 
L 148.428077 220.36171 
L 148.503173 220.36171 
L 148.503173 219.893959 
L 149.73597 219.893959 
L 149.73597 219.426207 
L 150.62703 219.426207 
L 150.62703 218.958455 
L 151.54166 218.958455 
L 151.54166 218.022952 
L 152.045009 218.022952 
L 152.045009 217.087448 
L 153.421349 217.087448 
L 153.421349 216.619697 
L 153.593669 216.619697 
L 153.593669 215.684193 
L 153.877408 215.684193 
L 153.877408 214.74869 
L 155.28758 214.74869 
L 155.391799 210.071172 
L 155.802997 210.071172 
L 155.904407 208.667917 
L 156.648044 208.667917 
L 156.648044 208.200166 
L 156.88953 208.200166 
L 156.88953 206.79691 
L 157.222487 206.79691 
L 157.222487 206.329159 
L 157.503261 206.329159 
L 157.503261 205.861407 
L 157.734081 205.861407 
L 157.734081 205.393655 
L 159.359426 205.393655 
L 159.359426 204.925903 
L 159.898714 204.925903 
L 159.898714 203.9904 
L 160.020999 203.9904 
L 160.020999 203.522648 
L 161.010268 203.522648 
L 161.048777 202.119393 
L 161.202028 202.119393 
L 161.202028 200.248386 
L 162.349204 200.248386 
L 162.349204 198.377379 
L 162.527853 198.377379 
L 162.527853 197.909628 
L 163.157294 197.909628 
L 163.260183 196.974124 
L 163.328465 196.974124 
L 163.328465 196.506372 
L 164.030845 196.506372 
L 164.030845 195.570869 
L 165.146166 195.570869 
L 165.146166 195.103117 
L 166.111072 195.103117 
L 166.111072 194.635366 
L 166.228279 194.635366 
L 166.228279 193.699862 
L 166.604233 193.699862 
L 166.604233 193.23211 
L 167.000877 193.23211 
L 167.084795 191.361103 
L 167.823671 191.361103 
L 167.823671 190.4256 
L 167.983997 190.4256 
L 168.090128 188.554593 
L 169.144777 188.554593 
L 169.144777 187.61909 
L 169.343842 187.61909 
L 169.343842 187.151338 
L 169.491772 187.151338 
L 169.491772 186.683586 
L 170.332249 186.683586 
L 170.355719 185.748083 
L 170.9104 185.748083 
L 170.9104 185.280331 
L 171.226568 185.280331 
L 171.226568 184.344828 
L 171.71291 184.344828 
L 171.71291 183.877076 
L 171.843395 183.877076 
L 171.843395 183.409324 
L 172.037442 183.409324 
L 172.037442 182.941572 
L 172.876446 182.941572 
L 172.876446 182.006069 
L 173.18167 182.006069 
L 173.18167 181.538317 
L 173.758086 181.538317 
L 173.758086 180.602814 
L 174.412132 180.602814 
L 174.412132 179.66731 
L 175.442151 179.66731 
L 175.442151 179.199559 
L 175.655719 179.199559 
L 175.655719 178.731807 
L 176.722107 178.731807 
L 176.722107 178.264055 
L 176.938239 178.264055 
L 177.03716 177.328552 
L 178.169864 177.328552 
L 178.247119 176.393048 
L 178.446509 176.393048 
L 178.507438 175.457545 
L 179.485266 175.457545 
L 179.485266 174.522041 
L 179.814423 174.522041 
L 179.814423 174.05429 
L 179.969833 174.05429 
L 179.969833 173.118786 
L 180.889661 173.118786 
L 180.983218 172.183283 
L 181.009863 172.183283 
L 181.009863 171.715531 
L 181.431133 171.715531 
L 181.431133 170.780028 
L 181.638283 170.780028 
L 181.638283 170.312276 
L 182.058457 170.312276 
L 182.121308 169.376772 
L 182.196455 169.376772 
L 182.196455 168.909021 
L 183.229982 168.909021 
L 183.229982 168.441269 
L 183.858256 168.441269 
L 183.949574 166.10251 
L 184.686501 166.10251 
L 184.686501 165.167007 
L 185.688599 165.167007 
L 185.73008 164.231503 
L 186.441569 164.231503 
L 186.441569 163.763752 
L 187.385018 163.763752 
L 187.385018 163.296 
L 360.8064 163.296 
L 360.8064 163.296 
" style="fill: none; stroke: #00bfbf; stroke-width: 1.5; stroke-linecap: square"/>
   </g>
   <g id="line2d_31">
    <defs>
     <path id="m532c248047" d="M -6 0 
L 6 0 
M 0 6 
L 0 -6 
" style="stroke: #00bfbf; stroke-width: 1.5"/>
    </defs>
    <g>
     <use xlink:href="#m532c248047" x="125.526971" y="256.378593" style="fill-opacity: 0; stroke: #00bfbf; stroke-width: 1.5"/>
     <use xlink:href="#m532c248047" x="167.084795" y="191.361103" style="fill-opacity: 0; stroke: #00bfbf; stroke-width: 1.5"/>
     <use xlink:href="#m532c248047" x="187.385018" y="163.763752" style="fill-opacity: 0; stroke: #00bfbf; stroke-width: 1.5"/>
     <use xlink:href="#m532c248047" x="187.385018" y="163.296" style="fill-opacity: 0; stroke: #00bfbf; stroke-width: 1.5"/>
     <use xlink:href="#m532c248047" x="187.385018" y="163.296" style="fill-opacity: 0; stroke: #00bfbf; stroke-width: 1.5"/>
     <use xlink:href="#m532c248047" x="360.8064" y="163.296" style="fill-opacity: 0; stroke: #00bfbf; stroke-width: 1.5"/>
    </g>
   </g>
   <g id="line2d_32">
    <path style="fill: none; stroke: #00bfbf; stroke-width: 1.5; stroke-linecap: square"/>
    <g/>
   </g>
   <g id="line2d_33">
    <path d="M 187.489081 163.296 
" clip-path="url(#pd570ca71c1)" style="fill: none; stroke: #00bfbf; stroke-width: 1.5; stroke-linecap: square"/>
    <defs>
     <path id="m08a6fe84c0" d="M -12 12 
L 12 -12 
M -12 -12 
L 12 12 
" style="stroke: #00bfbf"/>
    </defs>
    <g clip-path="url(#pd570ca71c1)">
     <use xlink:href="#m08a6fe84c0" x="187.489081" y="163.296" style="fill: #00bfbf; stroke: #00bfbf"/>
    </g>
   </g>
   <g id="line2d_34">
    <defs>
     <path id="m72e0bbe7bc" d="M 0 1.5 
C 0.397805 1.5 0.77937 1.341951 1.06066 1.06066 
C 1.341951 0.77937 1.5 0.397805 1.5 0 
C 1.5 -0.397805 1.341951 -0.77937 1.06066 -1.06066 
C 0.77937 -1.341951 0.397805 -1.5 0 -1.5 
C -0.397805 -1.5 -0.77937 -1.341951 -1.06066 -1.06066 
C -1.341951 -0.77937 -1.5 -0.397805 -1.5 0 
C -1.5 0.397805 -1.341951 0.77937 -1.06066 1.06066 
C -0.77937 1.341951 -0.397805 1.5 0 1.5 
z
" style="stroke: #008000"/>
    </defs>
    <g>
     <use xlink:href="#m72e0bbe7bc" x="186.461507" y="169.844524" style="fill: #008000; stroke: #008000"/>
     <use xlink:href="#m72e0bbe7bc" x="186.461507" y="169.844524" style="fill: #008000; stroke: #008000"/>
    </g>
   </g>
   <g id="line2d_35">
    <path d="M 36.933397 298.944 
L 36.933397 286.314703 
L 49.972572 286.314703 
L 49.972572 284.443697 
L 76.050921 284.443697 
L 76.050921 283.040441 
L 86.578163 283.040441 
L 86.578163 279.766179 
L 89.090095 279.766179 
L 89.090095 276.959669 
L 95.080704 276.959669 
L 95.080704 276.024166 
L 99.617337 276.024166 
L 99.617337 274.62091 
L 100.9152 274.62091 
L 100.9152 274.153159 
L 103.269713 274.153159 
L 103.269713 273.217655 
L 109.756698 273.217655 
L 109.756698 272.749903 
L 115.747307 272.749903 
L 115.747307 271.8144 
L 117.384126 271.8144 
L 117.384126 267.604634 
L 118.889854 267.604634 
L 118.889854 267.136883 
L 119.366121 267.136883 
L 119.366121 266.669131 
L 121.581803 266.669131 
L 121.581803 264.330372 
L 122.795872 264.330372 
L 122.795872 263.862621 
L 125.011554 263.862621 
L 125.011554 263.394869 
L 126.028642 263.394869 
L 126.028642 262.459366 
L 126.355808 262.459366 
L 126.355808 261.991614 
L 126.993549 261.991614 
L 126.993549 261.523862 
L 129.069367 261.523862 
L 129.069367 261.05611 
L 130.4233 261.05611 
L 130.4233 259.652855 
L 131.191226 259.652855 
L 131.191226 259.185103 
L 132.405295 259.185103 
L 132.405295 258.2496 
L 135.438999 258.2496 
L 135.438999 256.846345 
L 135.736814 256.846345 
L 135.736814 255.910841 
L 135.932769 255.910841 
L 135.932769 255.44309 
L 136.696795 255.44309 
L 136.790153 254.039834 
L 137.699101 254.039834 
L 137.787626 252.636579 
L 137.875736 252.636579 
L 137.875736 252.168828 
L 140.343665 252.168828 
L 140.343665 251.701076 
L 140.800648 251.701076 
L 140.800648 250.765572 
L 141.610664 250.765572 
L 141.610664 249.830069 
L 142.45627 249.830069 
L 142.45627 248.894566 
L 142.865233 248.894566 
L 142.865233 247.959062 
L 143.133017 247.959062 
L 143.133017 247.49131 
L 143.265494 247.49131 
L 143.265494 247.023559 
L 144.2304 247.023559 
L 144.2304 246.555807 
L 144.847227 246.555807 
L 144.847227 246.088055 
L 145.207843 246.088055 
L 145.207843 245.620303 
L 147.343984 245.620303 
L 147.343984 244.217048 
L 147.607824 244.217048 
L 147.607824 243.749297 
L 147.868016 243.749297 
L 147.868016 242.813793 
L 148.923146 242.813793 
L 148.971944 240.942786 
L 149.262102 240.942786 
L 149.262102 239.071779 
L 150.738275 239.071779 
L 150.738275 237.668524 
L 151.220087 237.668524 
L 151.220087 237.200772 
L 151.435079 237.200772 
L 151.520392 235.797517 
L 151.899585 235.797517 
L 151.899585 234.862014 
L 152.352898 234.862014 
L 152.352898 234.394262 
L 152.874916 234.394262 
L 152.874916 233.458759 
L 153.344252 233.458759 
L 153.344252 232.991007 
L 154.468783 232.991007 
L 154.577625 230.184497 
L 155.598521 230.184497 
L 155.598521 229.716745 
L 156.138926 229.716745 
L 156.138926 228.781241 
L 156.728884 228.781241 
L 156.728884 227.845738 
L 157.175281 227.845738 
L 157.175281 227.377986 
L 157.61133 227.377986 
L 157.61133 226.910234 
L 158.630038 226.910234 
L 158.659181 225.506979 
L 159.005416 225.506979 
L 159.005416 225.039228 
L 159.119425 225.039228 
L 159.119425 224.103724 
L 159.844108 224.103724 
L 159.871431 222.232717 
L 160.777545 222.232717 
L 160.855439 220.829462 
L 160.9588 220.829462 
L 160.9588 219.893959 
L 161.467251 219.893959 
L 161.467251 219.426207 
L 161.592245 219.426207 
L 161.592245 218.958455 
L 162.180921 218.958455 
L 162.180921 218.490703 
L 162.587027 218.490703 
L 162.587027 218.022952 
L 162.775144 218.022952 
L 162.845206 216.151945 
L 163.688506 216.151945 
L 163.688506 215.684193 
L 163.976048 215.684193 
L 163.976048 214.74869 
L 164.750119 214.74869 
L 164.750119 214.280938 
L 164.980424 214.280938 
L 164.980424 213.345434 
L 165.392072 213.345434 
L 165.392072 212.877683 
L 166.841337 212.877683 
L 166.841337 211.942179 
L 167.066179 211.942179 
L 167.066179 211.006676 
L 167.196106 211.006676 
L 167.269949 209.603421 
L 168.116567 209.603421 
L 168.204431 208.200166 
L 168.309328 208.200166 
L 168.309328 207.732414 
L 168.706102 207.732414 
L 168.79126 205.861407 
L 168.943582 205.861407 
L 168.943582 204.925903 
L 169.128092 204.925903 
L 169.128092 204.458152 
L 169.768058 204.458152 
L 169.768058 203.9904 
L 170.386968 203.9904 
L 170.386968 203.522648 
L 170.557912 203.522648 
L 170.557912 203.054897 
L 170.834332 203.054897 
L 170.834332 202.587145 
L 171.031472 202.587145 
L 171.031472 202.119393 
L 171.226568 202.119393 
L 171.226568 201.18389 
L 171.958627 201.18389 
L 172.058879 199.312883 
L 172.073157 199.312883 
L 172.073157 198.377379 
L 173.221995 198.377379 
L 173.221995 197.441876 
L 173.448884 197.441876 
L 173.448884 196.506372 
L 174.518962 196.506372 
L 174.518962 196.038621 
L 174.842022 196.038621 
L 174.866645 194.635366 
L 175.195931 194.635366 
L 175.280369 192.296607 
L 175.352444 192.296607 
L 175.448117 190.893352 
L 176.000573 190.893352 
L 176.035292 189.957848 
L 176.694218 189.957848 
L 176.694218 189.490097 
L 176.84987 189.490097 
L 176.84987 188.554593 
L 177.059073 188.554593 
L 177.113741 186.683586 
L 177.427726 186.683586 
L 177.427726 186.215834 
L 177.841883 186.215834 
L 177.841883 185.748083 
L 178.47192 185.748083 
L 178.47192 185.280331 
L 179.022444 185.280331 
L 179.120831 184.344828 
L 179.277187 184.344828 
L 179.277187 183.877076 
L 179.767074 183.877076 
L 179.767074 183.409324 
L 179.974522 183.409324 
L 180.077394 182.006069 
L 180.519823 182.006069 
L 180.519823 181.538317 
L 181.146932 181.538317 
L 181.146932 181.070566 
L 181.261129 181.070566 
L 181.278636 179.199559 
L 181.426793 179.199559 
L 181.470148 177.796303 
L 181.539308 177.796303 
L 181.539308 176.8608 
L 182.016438 176.8608 
L 182.016438 176.393048 
L 182.702072 176.393048 
L 182.702072 175.457545 
L 183.007827 175.457545 
L 183.023783 174.522041 
L 183.135094 174.522041 
L 183.190504 173.586538 
L 183.628001 173.586538 
L 183.628001 173.118786 
L 184.488367 173.118786 
L 184.488367 172.651034 
L 185.076616 172.651034 
L 185.076616 172.183283 
L 185.667825 172.183283 
L 185.667825 171.247779 
L 185.881399 171.247779 
L 185.881399 170.780028 
L 186.058675 170.780028 
L 186.058675 170.312276 
L 186.461507 170.312276 
L 186.461507 169.844524 
L 360.8064 169.844524 
L 360.8064 169.844524 
" style="fill: none; stroke: #008000; stroke-width: 1.5; stroke-linecap: square"/>
   </g>
   <g id="line2d_36">
    <defs>
     <path id="m240a6137cb" d="M -0 6 
L 6 -6 
L -6 -6 
z
" style="stroke: #008000; stroke-width: 1.5; stroke-linejoin: miter"/>
    </defs>
    <g>
     <use xlink:href="#m240a6137cb" x="132.405295" y="259.185103" style="fill-opacity: 0; stroke: #008000; stroke-width: 1.5; stroke-linejoin: miter"/>
     <use xlink:href="#m240a6137cb" x="185.076616" y="172.183283" style="fill-opacity: 0; stroke: #008000; stroke-width: 1.5; stroke-linejoin: miter"/>
     <use xlink:href="#m240a6137cb" x="186.461507" y="170.312276" style="fill-opacity: 0; stroke: #008000; stroke-width: 1.5; stroke-linejoin: miter"/>
     <use xlink:href="#m240a6137cb" x="186.461507" y="169.844524" style="fill-opacity: 0; stroke: #008000; stroke-width: 1.5; stroke-linejoin: miter"/>
     <use xlink:href="#m240a6137cb" x="186.461507" y="169.844524" style="fill-opacity: 0; stroke: #008000; stroke-width: 1.5; stroke-linejoin: miter"/>
     <use xlink:href="#m240a6137cb" x="360.8064" y="169.844524" style="fill-opacity: 0; stroke: #008000; stroke-width: 1.5; stroke-linejoin: miter"/>
    </g>
   </g>
   <g id="line2d_37">
    <path style="fill: none; stroke: #008000; stroke-width: 1.5; stroke-linecap: square"/>
    <g/>
   </g>
   <g id="line2d_38">
    <path d="M 187.501655 169.844524 
" clip-path="url(#pd570ca71c1)" style="fill: none; stroke: #008000; stroke-width: 1.5; stroke-linecap: square"/>
    <defs>
     <path id="m4c79e5347a" d="M -12 12 
L 12 -12 
M -12 -12 
L 12 12 
" style="stroke: #008000"/>
    </defs>
    <g clip-path="url(#pd570ca71c1)">
     <use xlink:href="#m4c79e5347a" x="187.501655" y="169.844524" style="fill: #008000; stroke: #008000"/>
    </g>
   </g>
   <g id="line2d_39">
    <defs>
     <path id="m859d0ef99d" d="M 0 1.5 
C 0.397805 1.5 0.77937 1.341951 1.06066 1.06066 
C 1.341951 0.77937 1.5 0.397805 1.5 0 
C 1.5 -0.397805 1.341951 -0.77937 1.06066 -1.06066 
C 0.77937 -1.341951 0.397805 -1.5 0 -1.5 
C -0.397805 -1.5 -0.77937 -1.341951 -1.06066 -1.06066 
C -1.341951 -0.77937 -1.5 -0.397805 -1.5 0 
C -1.5 0.397805 -1.341951 0.77937 -1.06066 1.06066 
C -0.77937 1.341951 -0.397805 1.5 0 1.5 
z
" style="stroke: #0000ff"/>
    </defs>
    <g>
     <use xlink:href="#m859d0ef99d" x="187.02297" y="176.393048" style="fill: #0000ff; stroke: #0000ff"/>
     <use xlink:href="#m859d0ef99d" x="187.02297" y="176.393048" style="fill: #0000ff; stroke: #0000ff"/>
    </g>
   </g>
   <g id="line2d_40">
    <path d="M 27.323974 298.944 
L 27.323974 290.992221 
L 40.363149 290.992221 
L 40.363149 290.056717 
L 66.441498 290.056717 
L 66.441498 287.250207 
L 83.678349 287.250207 
L 83.678349 286.782455 
L 100.9152 286.782455 
L 100.9152 286.314703 
L 103.047088 286.314703 
L 103.047088 284.911448 
L 106.699465 284.911448 
L 106.699465 282.57269 
L 108.29012 282.57269 
L 108.29012 282.104938 
L 109.280431 282.104938 
L 109.280431 281.637186 
L 110.221204 281.637186 
L 110.221204 280.701683 
L 112.180244 280.701683 
L 112.180244 280.233931 
L 114.872193 280.233931 
L 114.872193 279.766179 
L 116.419219 279.766179 
L 116.419219 278.830676 
L 118.450653 278.830676 
L 118.450653 277.895172 
L 118.889854 277.895172 
L 118.889854 277.427421 
L 119.738639 277.427421 
L 119.738639 276.959669 
L 120.149089 276.959669 
L 120.149089 276.491917 
L 123.825333 276.491917 
L 123.825333 276.024166 
L 125.219419 276.024166 
L 125.219419 275.556414 
L 125.526971 275.556414 
L 125.628382 274.153159 
L 128.354013 274.153159 
L 128.354013 273.217655 
L 128.528195 273.217655 
L 128.528195 271.8144 
L 129.86647 271.8144 
L 129.86647 271.346648 
L 130.265881 271.346648 
L 130.265881 270.878897 
L 131.191226 270.878897 
L 131.191226 270.411145 
L 131.41562 270.411145 
L 131.41562 269.943393 
L 131.856536 269.943393 
L 131.856536 269.475641 
L 132.144842 269.475641 
L 132.144842 269.00789 
L 132.638982 269.00789 
L 132.638982 268.540138 
L 133.05244 268.540138 
L 133.05244 268.072386 
L 133.853052 268.072386 
L 133.918257 267.136883 
L 134.620977 267.136883 
L 134.620977 266.201379 
L 136.584151 266.201379 
L 136.584151 265.733628 
L 138.050729 265.733628 
L 138.050729 265.265876 
L 138.718057 265.265876 
L 138.718057 264.798124 
L 138.868751 264.798124 
L 138.868751 264.330372 
L 139.362521 264.330372 
L 139.362521 263.862621 
L 139.556456 263.862621 
L 139.556456 262.927117 
L 140.032723 262.927117 
L 140.032723 261.991614 
L 140.451292 261.991614 
L 140.451292 261.523862 
L 143.540694 261.523862 
L 143.540694 260.588359 
L 144.117191 260.588359 
L 144.117191 259.185103 
L 144.968202 259.185103 
L 144.968202 258.2496 
L 145.503164 258.2496 
L 145.608355 256.846345 
L 146.429353 256.846345 
L 146.429353 255.44309 
L 146.595975 255.44309 
L 146.595975 254.039834 
L 147.087167 254.039834 
L 147.087167 253.572083 
L 147.597342 253.572083 
L 147.597342 252.636579 
L 148.428077 252.636579 
L 148.428077 252.168828 
L 148.726679 252.168828 
L 148.726679 251.701076 
L 149.194798 251.701076 
L 149.194798 251.233324 
L 149.65155 251.233324 
L 149.707872 250.297821 
L 150.479171 250.297821 
L 150.479171 249.830069 
L 150.773735 249.830069 
L 150.8268 248.894566 
L 151.142085 248.894566 
L 151.142085 248.426814 
L 151.807597 248.426814 
L 151.907925 247.023559 
L 151.95789 247.023559 
L 151.95789 246.088055 
L 152.739781 246.088055 
L 152.739781 245.152552 
L 152.930279 245.152552 
L 152.930279 244.6848 
L 153.048369 244.6848 
L 153.048369 244.217048 
L 154.541415 244.217048 
L 154.541415 242.346041 
L 155.474761 242.346041 
L 155.536743 240.942786 
L 157.118477 240.942786 
L 157.118477 239.071779 
L 157.53111 239.071779 
L 157.605171 238.136276 
L 157.934885 238.136276 
L 157.934885 237.668524 
L 158.25892 237.668524 
L 158.25892 237.200772 
L 159.181837 237.200772 
L 159.249688 233.92651 
L 159.367841 233.92651 
L 159.367841 232.991007 
L 159.783859 232.991007 
L 159.849576 232.055503 
L 160.255188 232.055503 
L 160.255188 231.587752 
L 160.933013 231.587752 
L 160.933013 231.12 
L 161.300977 231.12 
L 161.300977 230.652248 
L 161.497325 230.652248 
L 161.497325 229.716745 
L 162.435167 229.716745 
L 162.435167 228.781241 
L 162.817213 228.781241 
L 162.817213 227.845738 
L 162.956765 227.845738 
L 162.956765 226.910234 
L 163.91889 226.910234 
L 163.91889 225.974731 
L 164.568077 225.974731 
L 164.568077 225.039228 
L 164.682588 225.039228 
L 164.682588 224.103724 
L 165.343147 224.103724 
L 165.367626 222.232717 
L 166.004959 222.232717 
L 166.004959 221.764966 
L 166.344759 221.764966 
L 166.344759 220.829462 
L 166.598506 220.829462 
L 166.701332 218.958455 
L 167.372845 218.958455 
L 167.372845 218.490703 
L 167.721419 218.490703 
L 167.721419 218.022952 
L 168.116567 218.022952 
L 168.116567 217.5552 
L 168.430973 217.5552 
L 168.4725 216.151945 
L 168.668509 216.151945 
L 168.719753 214.74869 
L 169.32403 214.74869 
L 169.32403 214.280938 
L 169.87103 214.280938 
L 169.87103 213.813186 
L 170.043526 213.813186 
L 170.043526 212.877683 
L 170.598091 212.877683 
L 170.635104 211.474428 
L 170.992209 211.474428 
L 170.992209 211.006676 
L 171.235523 211.006676 
L 171.235523 210.538924 
L 171.721637 210.538924 
L 171.721637 209.603421 
L 172.135853 209.603421 
L 172.135853 208.667917 
L 172.449034 208.667917 
L 172.449034 208.200166 
L 172.85592 208.200166 
L 172.85592 207.732414 
L 173.043915 207.732414 
L 173.043915 206.79691 
L 173.302386 206.79691 
L 173.342453 205.393655 
L 173.549438 205.393655 
L 173.549438 204.458152 
L 173.675691 204.458152 
L 173.675691 203.9904 
L 173.863495 203.9904 
L 173.886839 202.119393 
L 174.134058 202.119393 
L 174.180052 200.716138 
L 174.248833 200.716138 
L 174.248833 200.248386 
L 174.521469 200.248386 
L 174.521469 199.312883 
L 174.989276 199.312883 
L 175.018589 198.377379 
L 176.044539 198.377379 
L 176.14826 196.506372 
L 176.162047 196.506372 
L 176.162047 195.570869 
L 176.388076 195.570869 
L 176.388076 194.635366 
L 176.885267 194.635366 
L 176.885267 194.167614 
L 177.174783 194.167614 
L 177.174783 193.23211 
L 177.395487 193.23211 
L 177.395487 192.764359 
L 177.588098 192.764359 
L 177.588098 192.296607 
L 177.791399 192.296607 
L 177.791399 191.361103 
L 177.961242 191.361103 
L 177.961242 190.893352 
L 178.086071 190.893352 
L 178.086071 190.4256 
L 178.290243 190.4256 
L 178.290243 189.957848 
L 179.044133 189.957848 
L 179.044133 189.490097 
L 179.296641 189.490097 
L 179.296641 189.022345 
L 179.505467 189.022345 
L 179.517001 188.086841 
L 179.694876 188.086841 
L 179.694876 187.61909 
L 180.334901 187.61909 
L 180.334901 187.151338 
L 180.652356 187.151338 
L 180.652356 186.215834 
L 180.868211 186.215834 
L 180.868211 185.748083 
L 181.055074 185.748083 
L 181.139882 184.812579 
L 181.41811 184.812579 
L 181.41811 184.344828 
L 181.789607 184.344828 
L 181.789607 183.877076 
L 181.982756 183.877076 
L 181.982756 182.941572 
L 182.363205 182.941572 
L 182.363205 182.473821 
L 182.565296 182.473821 
L 182.565296 182.006069 
L 182.871656 182.006069 
L 182.871656 181.538317 
L 183.469803 181.538317 
L 183.469803 180.602814 
L 183.632634 180.602814 
L 183.632634 179.66731 
L 183.922225 179.66731 
L 183.922225 179.199559 
L 184.211918 179.199559 
L 184.211918 178.731807 
L 185.382986 178.731807 
L 185.382986 178.264055 
L 185.576142 178.264055 
L 185.576142 177.796303 
L 185.759062 177.796303 
L 185.759062 177.328552 
L 186.461507 177.328552 
L 186.461507 176.8608 
L 187.02297 176.8608 
L 187.02297 176.393048 
L 360.8064 176.393048 
L 360.8064 176.393048 
" style="fill: none; stroke: #0000ff; stroke-width: 1.5; stroke-linecap: square"/>
   </g>
   <g id="line2d_41">
    <defs>
     <path id="m74f518d660" d="M 0 -6 
L -1.347084 -1.854102 
L -5.706339 -1.854102 
L -2.179628 0.708204 
L -3.526712 4.854102 
L -0 2.291796 
L 3.526712 4.854102 
L 2.179628 0.708204 
L 5.706339 -1.854102 
L 1.347084 -1.854102 
z
" style="stroke: #0000ff; stroke-width: 1.5; stroke-linejoin: bevel"/>
    </defs>
    <g>
     <use xlink:href="#m74f518d660" x="146.595975" y="255.44309" style="fill-opacity: 0; stroke: #0000ff; stroke-width: 1.5; stroke-linejoin: bevel"/>
     <use xlink:href="#m74f518d660" x="178.290243" y="190.4256" style="fill-opacity: 0; stroke: #0000ff; stroke-width: 1.5; stroke-linejoin: bevel"/>
     <use xlink:href="#m74f518d660" x="187.02297" y="176.8608" style="fill-opacity: 0; stroke: #0000ff; stroke-width: 1.5; stroke-linejoin: bevel"/>
     <use xlink:href="#m74f518d660" x="187.02297" y="176.393048" style="fill-opacity: 0; stroke: #0000ff; stroke-width: 1.5; stroke-linejoin: bevel"/>
     <use xlink:href="#m74f518d660" x="187.02297" y="176.393048" style="fill-opacity: 0; stroke: #0000ff; stroke-width: 1.5; stroke-linejoin: bevel"/>
     <use xlink:href="#m74f518d660" x="360.8064" y="176.393048" style="fill-opacity: 0; stroke: #0000ff; stroke-width: 1.5; stroke-linejoin: bevel"/>
    </g>
   </g>
   <g id="line2d_42">
    <path style="fill: none; stroke: #0000ff; stroke-width: 1.5; stroke-linecap: square"/>
    <g/>
   </g>
   <g id="line2d_43">
    <path d="M 187.523013 176.393048 
" clip-path="url(#pd570ca71c1)" style="fill: none; stroke: #0000ff; stroke-width: 1.5; stroke-linecap: square"/>
    <defs>
     <path id="mc70077a5da" d="M -12 12 
L 12 -12 
M -12 -12 
L 12 12 
" style="stroke: #0000ff"/>
    </defs>
    <g clip-path="url(#pd570ca71c1)">
     <use xlink:href="#mc70077a5da" x="187.523013" y="176.393048" style="fill: #0000ff; stroke: #0000ff"/>
    </g>
   </g>
   <g id="line2d_44">
    <defs>
     <path id="m2ff0ceed65" d="M 0 1.5 
C 0.397805 1.5 0.77937 1.341951 1.06066 1.06066 
C 1.341951 0.77937 1.5 0.397805 1.5 0 
C 1.5 -0.397805 1.341951 -0.77937 1.06066 -1.06066 
C 0.77937 -1.341951 0.397805 -1.5 0 -1.5 
C -0.397805 -1.5 -0.77937 -1.341951 -1.06066 -1.06066 
C -1.341951 -0.77937 -1.5 -0.397805 -1.5 0 
C -1.5 0.397805 -1.341951 0.77937 -1.06066 1.06066 
C -0.77937 1.341951 -0.397805 1.5 0 1.5 
z
" style="stroke: #000000"/>
    </defs>
    <g>
     <use xlink:href="#m2ff0ceed65" x="187.034572" y="171.247779" style="stroke: #000000"/>
     <use xlink:href="#m2ff0ceed65" x="187.034572" y="171.247779" style="stroke: #000000"/>
    </g>
   </g>
   <g id="line2d_45">
    <path d="M 14.2848 298.944 
L 14.2848 294.734234 
L 27.323974 294.734234 
L 27.323974 293.798731 
L 53.402323 293.798731 
L 53.402323 293.330979 
L 70.639174 293.330979 
L 70.639174 292.395476 
L 75.574654 292.395476 
L 75.574654 291.927724 
L 79.480672 291.927724 
L 79.480672 291.459972 
L 82.713442 291.459972 
L 82.713442 286.314703 
L 91.922605 286.314703 
L 91.922605 285.846952 
L 93.66029 285.846952 
L 93.66029 284.911448 
L 94.735529 284.911448 
L 94.735529 284.443697 
L 96.241256 284.443697 
L 96.241256 283.975945 
L 98.077987 283.975945 
L 98.077987 283.508193 
L 99.346662 283.508193 
L 99.346662 283.040441 
L 100.147275 283.040441 
L 100.147275 282.57269 
L 101.287718 282.57269 
L 101.287718 282.104938 
L 103.707211 282.104938 
L 103.707211 281.637186 
L 104.028784 281.637186 
L 104.028784 281.169434 
L 108.791791 281.169434 
L 108.791791 280.701683 
L 109.990385 280.701683 
L 109.990385 280.233931 
L 110.897141 280.233931 
L 110.897141 279.298428 
L 111.762192 279.298428 
L 111.762192 278.830676 
L 118.598196 278.830676 
L 118.671535 277.895172 
L 120.748446 277.895172 
L 120.813877 276.959669 
L 122.319605 276.959669 
L 122.319605 276.024166 
L 124.046648 276.024166 
L 124.046648 275.088662 
L 124.373813 275.088662 
L 124.373813 274.62091 
L 124.801367 274.62091 
L 124.801367 273.685407 
L 125.167667 273.685407 
L 125.167667 273.217655 
L 127.911368 273.217655 
L 127.911368 272.749903 
L 128.266313 272.749903 
L 128.266313 272.282152 
L 128.57149 272.282152 
L 128.57149 271.8144 
L 129.125437 271.8144 
L 129.125437 271.346648 
L 130.772751 271.346648 
L 130.772751 270.878897 
L 130.926003 270.878897 
L 130.926003 270.411145 
L 131.600593 270.411145 
L 131.600593 269.943393 
L 133.950775 269.943393 
L 133.950775 269.475641 
L 134.526683 269.475641 
L 134.526683 268.540138 
L 134.931919 268.540138 
L 134.931919 268.072386 
L 135.538796 268.072386 
L 135.628162 267.136883 
L 135.717106 267.136883 
L 135.717106 266.669131 
L 136.92008 266.669131 
L 136.97549 265.733628 
L 137.493898 265.733628 
L 137.493898 265.265876 
L 137.654681 265.265876 
L 137.654681 264.798124 
L 138.050729 264.798124 
L 138.10291 263.862621 
L 138.918715 263.862621 
L 138.918715 262.927117 
L 140.103135 262.927117 
L 140.173284 261.523862 
L 141.039908 261.523862 
L 141.039908 261.05611 
L 141.696956 261.05611 
L 141.696956 260.588359 
L 142.248405 260.588359 
L 142.331827 259.185103 
L 142.47693 259.185103 
L 142.47693 258.2496 
L 142.641404 258.2496 
L 142.641404 257.781848 
L 143.501625 257.781848 
L 143.501625 257.314097 
L 145.326529 257.314097 
L 145.326529 256.846345 
L 145.590864 256.846345 
L 145.590864 255.910841 
L 145.7477 255.910841 
L 145.7477 255.44309 
L 146.091614 255.44309 
L 146.091614 254.975338 
L 147.022411 254.975338 
L 147.022411 254.507586 
L 147.423525 254.507586 
L 147.471089 253.104331 
L 147.847333 253.104331 
L 147.847333 252.636579 
L 149.035192 252.636579 
L 149.035192 252.168828 
L 149.324384 252.168828 
L 149.324384 251.701076 
L 150.028491 251.701076 
L 150.056115 250.297821 
L 150.262008 250.297821 
L 150.262008 249.830069 
L 150.411576 249.830069 
L 150.411576 248.894566 
L 150.600232 248.894566 
L 150.600232 248.426814 
L 151.362257 248.426814 
L 151.362257 247.49131 
L 151.95789 247.49131 
L 152.045009 246.555807 
L 152.144083 246.555807 
L 152.144083 246.088055 
L 152.667844 246.088055 
L 152.775647 245.152552 
L 153.118868 245.152552 
L 153.118868 244.6848 
L 153.58223 244.6848 
L 153.58223 244.217048 
L 154.322673 244.217048 
L 154.333671 243.281545 
L 154.779128 243.281545 
L 154.811312 241.87829 
L 155.995211 241.87829 
L 156.035428 240.007283 
L 157.30716 240.007283 
L 157.354037 239.071779 
L 157.503261 239.071779 
L 157.503261 238.136276 
L 157.834751 238.136276 
L 157.834751 237.200772 
L 158.410018 237.200772 
L 158.410018 236.733021 
L 160.295272 236.733021 
L 160.303279 234.862014 
L 160.620781 234.862014 
L 160.660094 233.458759 
L 160.793149 233.458759 
L 160.793149 232.523255 
L 160.994842 232.523255 
L 160.994842 231.587752 
L 161.609678 231.587752 
L 161.609678 230.652248 
L 162.718906 230.652248 
L 162.718906 230.184497 
L 163.219095 230.184497 
L 163.239651 228.31349 
L 163.558786 228.31349 
L 163.558786 227.377986 
L 164.375662 227.377986 
L 164.375662 226.442483 
L 164.726932 226.442483 
L 164.726932 225.974731 
L 165.021997 225.974731 
L 165.090391 225.039228 
L 165.226438 225.039228 
L 165.226438 224.103724 
L 165.471304 224.103724 
L 165.580463 222.232717 
L 165.688991 222.232717 
L 165.688991 221.764966 
L 165.987215 221.764966 
L 165.987215 221.297214 
L 166.40273 221.297214 
L 166.431649 219.893959 
L 166.769573 219.893959 
L 166.769573 219.426207 
L 166.916583 219.426207 
L 166.916583 218.958455 
L 167.471536 218.958455 
L 167.471536 218.490703 
L 167.775305 218.490703 
L 167.775305 217.5552 
L 168.363297 217.5552 
L 168.363297 216.619697 
L 168.948638 216.619697 
L 168.948638 215.684193 
L 169.064557 215.684193 
L 169.064557 215.216441 
L 169.204718 215.216441 
L 169.204718 214.74869 
L 169.501592 214.74869 
L 169.501592 213.813186 
L 169.696937 213.813186 
L 169.696937 212.877683 
L 169.976632 212.877683 
L 169.976632 211.942179 
L 170.50524 211.942179 
L 170.551723 210.538924 
L 171.528696 210.538924 
L 171.581513 209.135669 
L 171.9083 209.135669 
L 171.9083 208.667917 
L 172.058879 208.667917 
L 172.058879 207.732414 
L 172.254968 207.732414 
L 172.254968 206.79691 
L 172.465815 206.79691 
L 172.465815 205.861407 
L 172.785966 205.861407 
L 172.785966 204.925903 
L 172.921523 204.925903 
L 172.921523 204.458152 
L 173.145303 204.458152 
L 173.145303 203.522648 
L 173.66389 203.522648 
L 173.691413 202.119393 
L 173.87517 202.119393 
L 173.87517 201.651641 
L 173.987664 201.651641 
L 173.987664 200.716138 
L 174.225934 200.716138 
L 174.225934 200.248386 
L 174.412132 200.248386 
L 174.502663 199.312883 
L 174.585269 199.312883 
L 174.585269 198.377379 
L 174.867875 198.377379 
L 174.867875 197.909628 
L 175.036886 197.909628 
L 175.036886 197.441876 
L 175.200767 197.441876 
L 175.200767 196.974124 
L 175.348847 196.974124 
L 175.348847 196.506372 
L 175.524306 196.506372 
L 175.524306 196.038621 
L 175.641557 196.038621 
L 175.648639 194.167614 
L 175.905348 194.167614 
L 175.905348 193.699862 
L 176.11375 193.699862 
L 176.11375 192.764359 
L 176.394883 192.764359 
L 176.418689 191.828855 
L 176.901837 191.828855 
L 176.901837 191.361103 
L 177.017418 191.361103 
L 177.017418 190.893352 
L 177.213919 190.893352 
L 177.213919 189.957848 
L 177.347024 189.957848 
L 177.347024 189.490097 
L 177.543331 189.490097 
L 177.613631 188.554593 
L 177.819813 188.554593 
L 177.819813 187.61909 
L 178.18534 187.61909 
L 178.18534 187.151338 
L 178.385383 187.151338 
L 178.385383 186.683586 
L 178.716138 186.683586 
L 178.716138 185.748083 
L 178.91362 185.748083 
L 179.008628 184.812579 
L 179.07662 184.812579 
L 179.153186 183.877076 
L 179.267453 183.877076 
L 179.267453 183.409324 
L 179.591798 183.409324 
L 179.591798 182.941572 
L 180.36799 182.941572 
L 180.409271 181.070566 
L 180.646928 181.070566 
L 180.717373 179.199559 
L 180.903055 179.199559 
L 180.903055 178.731807 
L 181.342399 178.731807 
L 181.342399 177.796303 
L 182.308614 177.796303 
L 182.348332 176.8608 
L 182.883711 176.8608 
L 182.883711 176.393048 
L 183.632634 176.393048 
L 183.632634 175.457545 
L 184.006424 175.457545 
L 184.087987 174.522041 
L 184.633869 174.522041 
L 184.725878 173.586538 
L 185.647027 173.586538 
L 185.647027 172.651034 
L 186.525167 172.651034 
L 186.525167 172.183283 
L 186.683381 172.183283 
L 186.683381 171.715531 
L 187.034572 171.715531 
L 187.034572 171.247779 
L 360.8064 171.247779 
L 360.8064 171.247779 
" style="fill: none; stroke: #000000; stroke-width: 1.5; stroke-linecap: square"/>
   </g>
   <g id="line2d_46">
    <defs>
     <path id="mac96da1550" d="M 0 6 
C 1.591219 6 3.117479 5.367802 4.242641 4.242641 
C 5.367802 3.117479 6 1.591219 6 0 
C 6 -1.591219 5.367802 -3.117479 4.242641 -4.242641 
C 3.117479 -5.367802 1.591219 -6 0 -6 
C -1.591219 -6 -3.117479 -5.367802 -4.242641 -4.242641 
C -5.367802 -3.117479 -6 -1.591219 -6 0 
C -6 1.591219 -5.367802 3.117479 -4.242641 4.242641 
C -3.117479 5.367802 -1.591219 6 0 6 
z
" style="stroke: #000000; stroke-width: 1.5"/>
    </defs>
    <g>
     <use xlink:href="#mac96da1550" x="79.480672" y="291.927724" style="fill-opacity: 0; stroke: #000000; stroke-width: 1.5"/>
     <use xlink:href="#mac96da1550" x="163.239651" y="229.248993" style="fill-opacity: 0; stroke: #000000; stroke-width: 1.5"/>
     <use xlink:href="#mac96da1550" x="186.683381" y="172.183283" style="fill-opacity: 0; stroke: #000000; stroke-width: 1.5"/>
     <use xlink:href="#mac96da1550" x="187.034572" y="171.247779" style="fill-opacity: 0; stroke: #000000; stroke-width: 1.5"/>
     <use xlink:href="#mac96da1550" x="187.034572" y="171.247779" style="fill-opacity: 0; stroke: #000000; stroke-width: 1.5"/>
     <use xlink:href="#mac96da1550" x="360.8064" y="171.247779" style="fill-opacity: 0; stroke: #000000; stroke-width: 1.5"/>
    </g>
   </g>
   <g id="line2d_47">
    <path style="fill: none; stroke: #000000; stroke-width: 1.5; stroke-linecap: square"/>
    <g/>
   </g>
   <g id="line2d_48">
    <path d="M 187.532427 171.247779 
" clip-path="url(#pd570ca71c1)" style="fill: none; stroke: #000000; stroke-width: 1.5; stroke-linecap: square"/>
    <defs>
     <path id="mabce4bc012" d="M -12 12 
L 12 -12 
M -12 -12 
L 12 12 
" style="stroke: #000000"/>
    </defs>
    <g clip-path="url(#pd570ca71c1)">
     <use xlink:href="#mabce4bc012" x="187.532427" y="171.247779" style="stroke: #000000"/>
    </g>
   </g>
   <g id="line2d_49">
    <defs>
     <path id="m38c8d19df4" d="M 0 1.5 
C 0.397805 1.5 0.77937 1.341951 1.06066 1.06066 
C 1.341951 0.77937 1.5 0.397805 1.5 0 
C 1.5 -0.397805 1.341951 -0.77937 1.06066 -1.06066 
C 0.77937 -1.341951 0.397805 -1.5 0 -1.5 
C -0.397805 -1.5 -0.77937 -1.341951 -1.06066 -1.06066 
C -1.341951 -0.77937 -1.5 -0.397805 -1.5 0 
C -1.5 0.397805 -1.341951 0.77937 -1.06066 1.06066 
C -0.77937 1.341951 -0.397805 1.5 0 1.5 
z
" style="stroke: #ff0000"/>
    </defs>
    <g>
     <use xlink:href="#m38c8d19df4" x="186.972615" y="179.66731" style="fill: #ff0000; stroke: #ff0000"/>
     <use xlink:href="#m38c8d19df4" x="186.972615" y="179.66731" style="fill: #ff0000; stroke: #ff0000"/>
    </g>
   </g>
   <g id="line2d_50">
    <path d="M 1.245626 298.944 
L 1.245626 290.992221 
L 62.535479 290.992221 
L 62.535479 290.524469 
L 66.441498 290.524469 
L 66.441498 290.056717 
L 76.96874 290.056717 
L 76.96874 289.588966 
L 83.678349 289.588966 
L 83.678349 289.121214 
L 86.307488 289.121214 
L 86.307488 288.653462 
L 101.102381 288.653462 
L 101.102381 288.18571 
L 101.833019 288.18571 
L 101.833019 287.717959 
L 102.878374 287.717959 
L 102.878374 287.250207 
L 106.137884 287.250207 
L 106.137884 286.782455 
L 109.400633 286.782455 
L 109.400633 286.314703 
L 116.044226 286.314703 
L 116.044226 285.846952 
L 118.99807 285.846952 
L 118.99807 285.3792 
L 120.517626 285.3792 
L 120.517626 284.911448 
L 121.830966 284.911448 
L 121.830966 284.443697 
L 122.319605 284.443697 
L 122.319605 283.975945 
L 122.942266 283.975945 
L 122.942266 283.508193 
L 123.403216 283.508193 
L 123.403216 283.040441 
L 124.985409 283.040441 
L 124.985409 282.57269 
L 125.75438 282.57269 
L 125.75438 282.104938 
L 126.298963 282.104938 
L 126.298963 281.637186 
L 126.875608 281.637186 
L 126.875608 281.169434 
L 127.087372 281.169434 
L 127.087372 280.701683 
L 128.133992 280.701683 
L 128.133992 280.233931 
L 128.829186 280.233931 
L 128.829186 279.766179 
L 129.31345 279.766179 
L 129.396412 278.830676 
L 129.479009 278.830676 
L 129.479009 278.362924 
L 129.846275 278.362924 
L 129.846275 277.895172 
L 130.676331 277.895172 
L 130.772751 276.959669 
L 131.096932 276.959669 
L 131.096932 276.491917 
L 131.266322 276.491917 
L 131.359772 275.088662 
L 131.83837 275.088662 
L 131.83837 274.62091 
L 132.621556 274.62091 
L 132.621556 274.153159 
L 134.208913 274.153159 
L 134.208913 273.685407 
L 134.416073 273.685407 
L 134.416073 273.217655 
L 135.252969 273.217655 
L 135.252969 272.749903 
L 135.478982 272.749903 
L 135.478982 272.282152 
L 135.702311 272.282152 
L 135.702311 271.8144 
L 136.198918 271.8144 
L 136.198918 271.346648 
L 136.541735 271.346648 
L 136.541735 270.878897 
L 137.853747 270.878897 
L 137.853747 270.411145 
L 138.400179 270.411145 
L 138.438609 269.00789 
L 138.768422 269.00789 
L 138.768422 268.540138 
L 139.203463 268.540138 
L 139.203463 267.604634 
L 139.628669 267.604634 
L 139.688636 266.669131 
L 140.16161 266.669131 
L 140.16161 266.201379 
L 141.294496 266.201379 
L 141.338423 265.265876 
L 141.686191 265.265876 
L 141.686191 264.798124 
L 142.331827 264.798124 
L 142.331827 263.862621 
L 142.579895 263.862621 
L 142.610675 262.927117 
L 144.155003 262.927117 
L 144.155003 262.459366 
L 144.408266 262.459366 
L 144.408266 261.991614 
L 144.575234 261.991614 
L 144.575234 261.05611 
L 144.722415 261.05611 
L 144.832051 259.652855 
L 145.228667 259.652855 
L 145.228667 259.185103 
L 145.511953 259.185103 
L 145.511953 258.717352 
L 145.66073 258.717352 
L 145.739021 257.314097 
L 145.920443 257.314097 
L 145.920443 256.846345 
L 146.379077 256.846345 
L 146.395851 255.44309 
L 147.111393 255.44309 
L 147.111393 254.975338 
L 147.423525 254.975338 
L 147.423525 254.507586 
L 147.8706 254.507586 
L 147.8706 254.039834 
L 148.488177 254.039834 
L 148.495677 253.104331 
L 149.238092 253.104331 
L 149.238092 252.168828 
L 149.395993 252.168828 
L 149.395993 251.233324 
L 149.637443 251.233324 
L 149.637443 250.765572 
L 150.289291 250.765572 
L 150.289291 250.297821 
L 150.512877 250.297821 
L 150.512877 249.830069 
L 150.840043 249.830069 
L 150.840043 249.362317 
L 151.400845 249.362317 
L 151.400845 248.894566 
L 152.026375 248.894566 
L 152.026375 248.426814 
L 152.53524 248.426814 
L 152.53524 247.959062 
L 153.501961 247.959062 
L 153.501961 247.023559 
L 153.950485 247.023559 
L 153.950485 246.555807 
L 154.725366 246.555807 
L 154.725366 245.620303 
L 154.907535 245.620303 
L 154.907535 245.152552 
L 155.644723 245.152552 
L 155.644723 244.6848 
L 156.020357 244.6848 
L 156.040449 243.281545 
L 156.230265 243.281545 
L 156.324459 242.346041 
L 156.657763 242.346041 
L 156.657763 241.87829 
L 158.739091 241.87829 
L 158.739091 241.410538 
L 159.088142 241.410538 
L 159.088142 240.475034 
L 159.676576 240.475034 
L 159.676576 240.007283 
L 160.367209 240.007283 
L 160.367209 239.071779 
L 160.56955 239.071779 
L 160.675797 237.200772 
L 162.081651 237.200772 
L 162.081651 236.265269 
L 163.050381 236.265269 
L 163.074576 234.394262 
L 163.440591 234.394262 
L 163.440591 233.458759 
L 163.629348 233.458759 
L 163.629348 232.523255 
L 163.90237 232.523255 
L 163.90237 231.587752 
L 164.536144 231.587752 
L 164.536144 230.652248 
L 165.062442 230.652248 
L 165.062442 229.716745 
L 165.309438 229.716745 
L 165.309438 229.248993 
L 165.504725 229.248993 
L 165.504725 228.781241 
L 165.64686 228.781241 
L 165.64686 227.845738 
L 165.92201 227.845738 
L 165.92201 227.377986 
L 166.301163 227.377986 
L 166.301163 226.910234 
L 166.515262 226.910234 
L 166.566974 225.506979 
L 166.806433 225.506979 
L 166.806433 224.571476 
L 167.509777 224.571476 
L 167.509777 223.635972 
L 167.874589 223.635972 
L 167.874589 222.700469 
L 169.067069 222.700469 
L 169.172273 220.36171 
L 169.326508 220.36171 
L 169.326508 219.426207 
L 169.687218 219.426207 
L 169.687218 218.958455 
L 169.907097 218.958455 
L 169.976632 217.5552 
L 170.233352 217.5552 
L 170.233352 217.087448 
L 171.201917 217.087448 
L 171.201917 216.619697 
L 171.710727 216.619697 
L 171.710727 215.684193 
L 172.150784 215.684193 
L 172.150784 215.216441 
L 173.201843 215.216441 
L 173.201843 214.280938 
L 173.442249 214.280938 
L 173.533597 212.409931 
L 173.974123 212.409931 
L 173.974123 211.474428 
L 174.162817 211.474428 
L 174.162817 210.538924 
L 174.298352 210.538924 
L 174.298352 209.603421 
L 174.581522 209.603421 
L 174.581522 208.667917 
L 174.919474 208.667917 
L 174.919474 207.732414 
L 175.985509 207.732414 
L 175.985509 207.264662 
L 176.0982 207.264662 
L 176.0982 206.329159 
L 176.653424 206.329159 
L 176.653424 205.861407 
L 176.863705 205.861407 
L 176.863705 204.925903 
L 177.010832 204.925903 
L 177.010832 204.458152 
L 177.243218 204.458152 
L 177.243218 203.522648 
L 177.406777 203.522648 
L 177.506479 201.651641 
L 177.774014 201.651641 
L 177.774014 200.716138 
L 178.273313 200.716138 
L 178.273313 199.780634 
L 178.411386 199.780634 
L 178.411386 198.845131 
L 178.770203 198.845131 
L 178.849516 197.909628 
L 179.131132 197.909628 
L 179.172279 196.506372 
L 179.550121 196.506372 
L 179.550121 196.038621 
L 179.662009 196.038621 
L 179.767548 194.635366 
L 180.304517 194.635366 
L 180.356967 193.699862 
L 180.531206 193.699862 
L 180.531206 193.23211 
L 181.588 193.23211 
L 181.588 192.764359 
L 182.222685 192.764359 
L 182.222685 192.296607 
L 182.532174 192.296607 
L 182.637472 190.893352 
L 182.778574 190.893352 
L 182.87889 189.490097 
L 183.229982 189.490097 
L 183.229982 189.022345 
L 183.454611 189.022345 
L 183.532776 188.086841 
L 183.695066 188.086841 
L 183.695066 187.61909 
L 184.374044 187.61909 
L 184.374044 187.151338 
L 184.589896 187.151338 
L 184.589896 186.215834 
L 184.747719 186.215834 
L 184.747719 185.748083 
L 184.867393 185.748083 
L 184.867393 184.812579 
L 185.019688 184.812579 
L 185.107693 182.941572 
L 185.565695 182.941572 
L 185.598061 180.602814 
L 186.666634 180.602814 
L 186.666634 180.135062 
L 186.972615 180.135062 
L 186.972615 179.66731 
L 360.8064 179.66731 
L 360.8064 179.66731 
" style="fill: none; stroke: #ff0000; stroke-width: 1.5; stroke-linecap: square"/>
   </g>
   <g id="line2d_51">
    <defs>
     <path id="m72d4e3ec47" d="M -6 6 
L 6 6 
L 6 -6 
L -6 -6 
z
" style="stroke: #ff0000; stroke-width: 1.5; stroke-linejoin: miter"/>
    </defs>
    <g>
     <use xlink:href="#m72d4e3ec47" x="131.83837" y="275.088662" style="fill-opacity: 0; stroke: #ff0000; stroke-width: 1.5; stroke-linejoin: miter"/>
     <use xlink:href="#m72d4e3ec47" x="182.87889" y="189.490097" style="fill-opacity: 0; stroke: #ff0000; stroke-width: 1.5; stroke-linejoin: miter"/>
     <use xlink:href="#m72d4e3ec47" x="186.972615" y="179.66731" style="fill-opacity: 0; stroke: #ff0000; stroke-width: 1.5; stroke-linejoin: miter"/>
     <use xlink:href="#m72d4e3ec47" x="186.972615" y="179.66731" style="fill-opacity: 0; stroke: #ff0000; stroke-width: 1.5; stroke-linejoin: miter"/>
     <use xlink:href="#m72d4e3ec47" x="360.8064" y="179.66731" style="fill-opacity: 0; stroke: #ff0000; stroke-width: 1.5; stroke-linejoin: miter"/>
    </g>
   </g>
   <g id="line2d_52">
    <path style="fill: none; stroke: #ff0000; stroke-width: 1.5; stroke-linecap: square"/>
    <g/>
   </g>
   <g id="line2d_53">
    <path d="M 187.540897 179.66731 
" clip-path="url(#pd570ca71c1)" style="fill: none; stroke: #ff0000; stroke-width: 1.5; stroke-linecap: square"/>
    <defs>
     <path id="m635505873f" d="M -12 12 
L 12 -12 
M -12 -12 
L 12 12 
" style="stroke: #ff0000"/>
    </defs>
    <g clip-path="url(#pd570ca71c1)">
     <use xlink:href="#m635505873f" x="187.540897" y="179.66731" style="fill: #ff0000; stroke: #ff0000"/>
    </g>
   </g>
   <g id="line2d_54">
    <path d="M 360.8064 179.66731 
L 380.514816 293.51808 
" style="fill: none; stroke: #ff0000; stroke-width: 1.5; stroke-linecap: square"/>
    <g>
     <use xlink:href="#m72d4e3ec47" x="360.8064" y="179.66731" style="fill-opacity: 0; stroke: #ff0000; stroke-width: 1.5; stroke-linejoin: miter"/>
     <use xlink:href="#m72d4e3ec47" x="380.514816" y="293.51808" style="fill-opacity: 0; stroke: #ff0000; stroke-width: 1.5; stroke-linejoin: miter"/>
    </g>
   </g>
   <g id="line2d_55">
    <path d="M 360.8064 176.393048 
L 380.514816 228.40704 
" style="fill: none; stroke: #0000ff; stroke-width: 1.5; stroke-linecap: square"/>
    <g>
     <use xlink:href="#m74f518d660" x="360.8064" y="176.393048" style="fill-opacity: 0; stroke: #0000ff; stroke-width: 1.5; stroke-linejoin: bevel"/>
     <use xlink:href="#m74f518d660" x="380.514816" y="228.40704" style="fill-opacity: 0; stroke: #0000ff; stroke-width: 1.5; stroke-linejoin: bevel"/>
    </g>
   </g>
   <g id="line2d_56">
    <path d="M 360.8064 171.247779 
L 380.514816 163.296 
" style="fill: none; stroke: #000000; stroke-width: 1.5; stroke-linecap: square"/>
    <g>
     <use xlink:href="#mac96da1550" x="360.8064" y="171.247779" style="fill-opacity: 0; stroke: #000000; stroke-width: 1.5"/>
     <use xlink:href="#mac96da1550" x="380.514816" y="163.296" style="fill-opacity: 0; stroke: #000000; stroke-width: 1.5"/>
    </g>
   </g>
   <g id="line2d_57">
    <path d="M 360.8064 169.844524 
L 380.514816 98.18496 
" style="fill: none; stroke: #008000; stroke-width: 1.5; stroke-linecap: square"/>
    <g>
     <use xlink:href="#m240a6137cb" x="360.8064" y="169.844524" style="fill-opacity: 0; stroke: #008000; stroke-width: 1.5; stroke-linejoin: miter"/>
     <use xlink:href="#m240a6137cb" x="380.514816" y="98.18496" style="fill-opacity: 0; stroke: #008000; stroke-width: 1.5; stroke-linejoin: miter"/>
    </g>
   </g>
   <g id="line2d_58">
    <path d="M 360.8064 163.296 
L 380.514816 33.07392 
" style="fill: none; stroke: #00bfbf; stroke-width: 1.5; stroke-linecap: square"/>
    <g>
     <use xlink:href="#m532c248047" x="360.8064" y="163.296" style="fill-opacity: 0; stroke: #00bfbf; stroke-width: 1.5"/>
     <use xlink:href="#m532c248047" x="380.514816" y="33.07392" style="fill-opacity: 0; stroke: #00bfbf; stroke-width: 1.5"/>
    </g>
   </g>
   <g id="line2d_59">
    <path d="M 360.8064 298.944 
L 360.8064 27.648 
" style="fill: none; stroke: #000000; stroke-width: 1.5; stroke-linecap: square"/>
   </g>
   <g id="patch_3">
    <path d="M 57.6 298.944 
L 360.8064 298.944 
" style="fill: none; stroke: #000000; stroke-width: 0.8; stroke-linejoin: miter; stroke-linecap: square"/>
   </g>
   <g id="patch_4">
    <path d="M 57.6 27.648 
L 360.8064 27.648 
" style="fill: none; stroke: #000000; stroke-width: 0.8; stroke-linejoin: miter; stroke-linecap: square"/>
   </g>
   <g id="text_13">
    <!-- 20-D -->
    <g transform="translate(386.578944 297.381205) scale(0.14 -0.14)">
     <defs>
      <path id="DejaVuSans-44" d="M 1259 4147 
L 1259 519 
L 2022 519 
Q 2988 519 3436 956 
Q 3884 1394 3884 2338 
Q 3884 3275 3436 3711 
Q 2988 4147 2022 4147 
L 1259 4147 
z
M 628 4666 
L 1925 4666 
Q 3281 4666 3915 4102 
Q 4550 3538 4550 2338 
Q 4550 1131 3912 565 
Q 3275 0 1925 0 
L 628 0 
L 628 4666 
z
" transform="scale(0.015625)"/>
     </defs>
     <use xlink:href="#DejaVuSans-32"/>
     <use xlink:href="#DejaVuSans-30" x="63.623047"/>
     <use xlink:href="#DejaVuSans-2d" x="127.246094"/>
     <use xlink:href="#DejaVuSans-44" x="163.330078"/>
    </g>
   </g>
   <g id="text_14">
    <!-- 5-D -->
    <g transform="translate(386.578944 232.270165) scale(0.14 -0.14)">
     <defs>
      <path id="DejaVuSans-35" d="M 691 4666 
L 3169 4666 
L 3169 4134 
L 1269 4134 
L 1269 2991 
Q 1406 3038 1543 3061 
Q 1681 3084 1819 3084 
Q 2600 3084 3056 2656 
Q 3513 2228 3513 1497 
Q 3513 744 3044 326 
Q 2575 -91 1722 -91 
Q 1428 -91 1123 -41 
Q 819 9 494 109 
L 494 744 
Q 775 591 1075 516 
Q 1375 441 1709 441 
Q 2250 441 2565 725 
Q 2881 1009 2881 1497 
Q 2881 1984 2565 2268 
Q 2250 2553 1709 2553 
Q 1456 2553 1204 2497 
Q 953 2441 691 2322 
L 691 4666 
z
" transform="scale(0.015625)"/>
     </defs>
     <use xlink:href="#DejaVuSans-35"/>
     <use xlink:href="#DejaVuSans-2d" x="63.623047"/>
     <use xlink:href="#DejaVuSans-44" x="99.707031"/>
    </g>
   </g>
   <g id="text_15">
    <!-- 10-D -->
    <g transform="translate(386.578944 167.159125) scale(0.14 -0.14)">
     <use xlink:href="#DejaVuSans-31"/>
     <use xlink:href="#DejaVuSans-30" x="63.623047"/>
     <use xlink:href="#DejaVuSans-2d" x="127.246094"/>
     <use xlink:href="#DejaVuSans-44" x="163.330078"/>
    </g>
   </g>
   <g id="text_16">
    <!-- 3-D -->
    <g transform="translate(386.578944 102.048085) scale(0.14 -0.14)">
     <defs>
      <path id="DejaVuSans-33" d="M 2597 2516 
Q 3050 2419 3304 2112 
Q 3559 1806 3559 1356 
Q 3559 666 3084 287 
Q 2609 -91 1734 -91 
Q 1441 -91 1130 -33 
Q 819 25 488 141 
L 488 750 
Q 750 597 1062 519 
Q 1375 441 1716 441 
Q 2309 441 2620 675 
Q 2931 909 2931 1356 
Q 2931 1769 2642 2001 
Q 2353 2234 1838 2234 
L 1294 2234 
L 1294 2753 
L 1863 2753 
Q 2328 2753 2575 2939 
Q 2822 3125 2822 3475 
Q 2822 3834 2567 4026 
Q 2313 4219 1838 4219 
Q 1578 4219 1281 4162 
Q 984 4106 628 3988 
L 628 4550 
Q 988 4650 1302 4700 
Q 1616 4750 1894 4750 
Q 2613 4750 3031 4423 
Q 3450 4097 3450 3541 
Q 3450 3153 3228 2886 
Q 3006 2619 2597 2516 
z
" transform="scale(0.015625)"/>
     </defs>
     <use xlink:href="#DejaVuSans-33"/>
     <use xlink:href="#DejaVuSans-2d" x="63.623047"/>
     <use xlink:href="#DejaVuSans-44" x="99.707031"/>
    </g>
   </g>
   <g id="text_17">
    <!-- 2-D -->
    <g transform="translate(386.578944 36.937045) scale(0.14 -0.14)">
     <use xlink:href="#DejaVuSans-32"/>
     <use xlink:href="#DejaVuSans-2d" x="63.623047"/>
     <use xlink:href="#DejaVuSans-44" x="99.707031"/>
    </g>
   </g>
   <g id="text_18">
    <!-- bbob-biobj f15 -->
    <g transform="translate(60.632064 38.111366) scale(0.102 -0.102)">
     <defs>
      <path id="DejaVuSans-62" d="M 3116 1747 
Q 3116 2381 2855 2742 
Q 2594 3103 2138 3103 
Q 1681 3103 1420 2742 
Q 1159 2381 1159 1747 
Q 1159 1113 1420 752 
Q 1681 391 2138 391 
Q 2594 391 2855 752 
Q 3116 1113 3116 1747 
z
M 1159 2969 
Q 1341 3281 1617 3432 
Q 1894 3584 2278 3584 
Q 2916 3584 3314 3078 
Q 3713 2572 3713 1747 
Q 3713 922 3314 415 
Q 2916 -91 2278 -91 
Q 1894 -91 1617 61 
Q 1341 213 1159 525 
L 1159 0 
L 581 0 
L 581 4863 
L 1159 4863 
L 1159 2969 
z
" transform="scale(0.015625)"/>
      <path id="DejaVuSans-6a" d="M 603 3500 
L 1178 3500 
L 1178 -63 
Q 1178 -731 923 -1031 
Q 669 -1331 103 -1331 
L -116 -1331 
L -116 -844 
L 38 -844 
Q 366 -844 484 -692 
Q 603 -541 603 -63 
L 603 3500 
z
M 603 4863 
L 1178 4863 
L 1178 4134 
L 603 4134 
L 603 4863 
z
" transform="scale(0.015625)"/>
     </defs>
     <use xlink:href="#DejaVuSans-62"/>
     <use xlink:href="#DejaVuSans-62" x="63.476562"/>
     <use xlink:href="#DejaVuSans-6f" x="126.953125"/>
     <use xlink:href="#DejaVuSans-62" x="188.134766"/>
     <use xlink:href="#DejaVuSans-2d" x="251.611328"/>
     <use xlink:href="#DejaVuSans-62" x="287.695312"/>
     <use xlink:href="#DejaVuSans-69" x="351.171875"/>
     <use xlink:href="#DejaVuSans-6f" x="378.955078"/>
     <use xlink:href="#DejaVuSans-62" x="440.136719"/>
     <use xlink:href="#DejaVuSans-6a" x="503.613281"/>
     <use xlink:href="#DejaVuSans-20" x="531.396484"/>
     <use xlink:href="#DejaVuSans-66" x="563.183594"/>
     <use xlink:href="#DejaVuSans-31" x="598.388672"/>
     <use xlink:href="#DejaVuSans-35" x="662.011719"/>
    </g>
    <!-- 58 targets: 1..-1.0e-4 -->
    <g transform="translate(60.632064 49.533135) scale(0.102 -0.102)">
     <defs>
      <path id="DejaVuSans-3a" d="M 750 794 
L 1409 794 
L 1409 0 
L 750 0 
L 750 794 
z
M 750 3309 
L 1409 3309 
L 1409 2516 
L 750 2516 
L 750 3309 
z
" transform="scale(0.015625)"/>
     </defs>
     <use xlink:href="#DejaVuSans-35"/>
     <use xlink:href="#DejaVuSans-38" x="63.623047"/>
     <use xlink:href="#DejaVuSans-20" x="127.246094"/>
     <use xlink:href="#DejaVuSans-74" x="159.033203"/>
     <use xlink:href="#DejaVuSans-61" x="198.242188"/>
     <use xlink:href="#DejaVuSans-72" x="259.521484"/>
     <use xlink:href="#DejaVuSans-67" x="298.884766"/>
     <use xlink:href="#DejaVuSans-65" x="362.361328"/>
     <use xlink:href="#DejaVuSans-74" x="423.884766"/>
     <use xlink:href="#DejaVuSans-73" x="463.09375"/>
     <use xlink:href="#DejaVuSans-3a" x="515.193359"/>
     <use xlink:href="#DejaVuSans-20" x="548.884766"/>
     <use xlink:href="#DejaVuSans-31" x="580.671875"/>
     <use xlink:href="#DejaVuSans-2e" x="644.294922"/>
     <use xlink:href="#DejaVuSans-2e" x="676.082031"/>
     <use xlink:href="#DejaVuSans-2d" x="707.869141"/>
     <use xlink:href="#DejaVuSans-31" x="743.953125"/>
     <use xlink:href="#DejaVuSans-2e" x="807.576172"/>
     <use xlink:href="#DejaVuSans-30" x="839.363281"/>
     <use xlink:href="#DejaVuSans-65" x="902.986328"/>
     <use xlink:href="#DejaVuSans-2d" x="964.509766"/>
     <use xlink:href="#DejaVuSans-34" x="1000.59375"/>
    </g>
    <!-- 10 instances -->
    <g transform="translate(60.632064 60.954904) scale(0.102 -0.102)">
     <use xlink:href="#DejaVuSans-31"/>
     <use xlink:href="#DejaVuSans-30" x="63.623047"/>
     <use xlink:href="#DejaVuSans-20" x="127.246094"/>
     <use xlink:href="#DejaVuSans-69" x="159.033203"/>
     <use xlink:href="#DejaVuSans-6e" x="186.816406"/>
     <use xlink:href="#DejaVuSans-73" x="250.195312"/>
     <use xlink:href="#DejaVuSans-74" x="302.294922"/>
     <use xlink:href="#DejaVuSans-61" x="341.503906"/>
     <use xlink:href="#DejaVuSans-6e" x="402.783203"/>
     <use xlink:href="#DejaVuSans-63" x="466.162109"/>
     <use xlink:href="#DejaVuSans-65" x="521.142578"/>
     <use xlink:href="#DejaVuSans-73" x="582.666016"/>
    </g>
   </g>
   <g id="text_19">
    <!-- v2.6, hv-hash=ff0e71e8cd978373 -->
    <g style="fill: #808080" transform="translate(123.707887 294.151352) scale(0.1 -0.1)">
     <defs>
      <path id="DejaVuSans-68" d="M 3513 2113 
L 3513 0 
L 2938 0 
L 2938 2094 
Q 2938 2591 2744 2837 
Q 2550 3084 2163 3084 
Q 1697 3084 1428 2787 
Q 1159 2491 1159 1978 
L 1159 0 
L 581 0 
L 581 4863 
L 1159 4863 
L 1159 2956 
Q 1366 3272 1645 3428 
Q 1925 3584 2291 3584 
Q 2894 3584 3203 3211 
Q 3513 2838 3513 2113 
z
" transform="scale(0.015625)"/>
      <path id="DejaVuSans-3d" d="M 678 2906 
L 4684 2906 
L 4684 2381 
L 678 2381 
L 678 2906 
z
M 678 1631 
L 4684 1631 
L 4684 1100 
L 678 1100 
L 678 1631 
z
" transform="scale(0.015625)"/>
      <path id="DejaVuSans-37" d="M 525 4666 
L 3525 4666 
L 3525 4397 
L 1831 0 
L 1172 0 
L 2766 4134 
L 525 4134 
L 525 4666 
z
" transform="scale(0.015625)"/>
      <path id="DejaVuSans-39" d="M 703 97 
L 703 672 
Q 941 559 1184 500 
Q 1428 441 1663 441 
Q 2288 441 2617 861 
Q 2947 1281 2994 2138 
Q 2813 1869 2534 1725 
Q 2256 1581 1919 1581 
Q 1219 1581 811 2004 
Q 403 2428 403 3163 
Q 403 3881 828 4315 
Q 1253 4750 1959 4750 
Q 2769 4750 3195 4129 
Q 3622 3509 3622 2328 
Q 3622 1225 3098 567 
Q 2575 -91 1691 -91 
Q 1453 -91 1209 -44 
Q 966 3 703 97 
z
M 1959 2075 
Q 2384 2075 2632 2365 
Q 2881 2656 2881 3163 
Q 2881 3666 2632 3958 
Q 2384 4250 1959 4250 
Q 1534 4250 1286 3958 
Q 1038 3666 1038 3163 
Q 1038 2656 1286 2365 
Q 1534 2075 1959 2075 
z
" transform="scale(0.015625)"/>
     </defs>
     <use xlink:href="#DejaVuSans-76"/>
     <use xlink:href="#DejaVuSans-32" x="59.179688"/>
     <use xlink:href="#DejaVuSans-2e" x="122.802734"/>
     <use xlink:href="#DejaVuSans-36" x="154.589844"/>
     <use xlink:href="#DejaVuSans-2c" x="218.212891"/>
     <use xlink:href="#DejaVuSans-20" x="250"/>
     <use xlink:href="#DejaVuSans-68" x="281.787109"/>
     <use xlink:href="#DejaVuSans-76" x="345.166016"/>
     <use xlink:href="#DejaVuSans-2d" x="401.720703"/>
     <use xlink:href="#DejaVuSans-68" x="437.804688"/>
     <use xlink:href="#DejaVuSans-61" x="501.183594"/>
     <use xlink:href="#DejaVuSans-73" x="562.462891"/>
     <use xlink:href="#DejaVuSans-68" x="614.5625"/>
     <use xlink:href="#DejaVuSans-3d" x="677.941406"/>
     <use xlink:href="#DejaVuSans-66" x="761.730469"/>
     <use xlink:href="#DejaVuSans-66" x="796.935547"/>
     <use xlink:href="#DejaVuSans-30" x="832.140625"/>
     <use xlink:href="#DejaVuSans-65" x="895.763672"/>
     <use xlink:href="#DejaVuSans-37" x="957.287109"/>
     <use xlink:href="#DejaVuSans-31" x="1020.910156"/>
     <use xlink:href="#DejaVuSans-65" x="1084.533203"/>
     <use xlink:href="#DejaVuSans-38" x="1146.056641"/>
     <use xlink:href="#DejaVuSans-63" x="1209.679688"/>
     <use xlink:href="#DejaVuSans-64" x="1264.660156"/>
     <use xlink:href="#DejaVuSans-39" x="1328.136719"/>
     <use xlink:href="#DejaVuSans-37" x="1391.759766"/>
     <use xlink:href="#DejaVuSans-38" x="1455.382812"/>
     <use xlink:href="#DejaVuSans-33" x="1519.005859"/>
     <use xlink:href="#DejaVuSans-37" x="1582.628906"/>
     <use xlink:href="#DejaVuSans-33" x="1646.251953"/>
    </g>
   </g>
   <g id="text_20">
    <!-- 15 sep. Ellipsoid/Diff. Powers -->
    <g transform="translate(65.820387 21.648) scale(0.2 -0.2)">
     <defs>
      <path id="DejaVuSans-45" d="M 628 4666 
L 3578 4666 
L 3578 4134 
L 1259 4134 
L 1259 2753 
L 3481 2753 
L 3481 2222 
L 1259 2222 
L 1259 531 
L 3634 531 
L 3634 0 
L 628 0 
L 628 4666 
z
" transform="scale(0.015625)"/>
      <path id="DejaVuSans-50" d="M 1259 4147 
L 1259 2394 
L 2053 2394 
Q 2494 2394 2734 2622 
Q 2975 2850 2975 3272 
Q 2975 3691 2734 3919 
Q 2494 4147 2053 4147 
L 1259 4147 
z
M 628 4666 
L 2053 4666 
Q 2838 4666 3239 4311 
Q 3641 3956 3641 3272 
Q 3641 2581 3239 2228 
Q 2838 1875 2053 1875 
L 1259 1875 
L 1259 0 
L 628 0 
L 628 4666 
z
" transform="scale(0.015625)"/>
      <path id="DejaVuSans-77" d="M 269 3500 
L 844 3500 
L 1563 769 
L 2278 3500 
L 2956 3500 
L 3675 769 
L 4391 3500 
L 4966 3500 
L 4050 0 
L 3372 0 
L 2619 2869 
L 1863 0 
L 1184 0 
L 269 3500 
z
" transform="scale(0.015625)"/>
     </defs>
     <use xlink:href="#DejaVuSans-31"/>
     <use xlink:href="#DejaVuSans-35" x="63.623047"/>
     <use xlink:href="#DejaVuSans-20" x="127.246094"/>
     <use xlink:href="#DejaVuSans-73" x="159.033203"/>
     <use xlink:href="#DejaVuSans-65" x="211.132812"/>
     <use xlink:href="#DejaVuSans-70" x="272.65625"/>
     <use xlink:href="#DejaVuSans-2e" x="336.132812"/>
     <use xlink:href="#DejaVuSans-20" x="367.919922"/>
     <use xlink:href="#DejaVuSans-45" x="399.707031"/>
     <use xlink:href="#DejaVuSans-6c" x="462.890625"/>
     <use xlink:href="#DejaVuSans-6c" x="490.673828"/>
     <use xlink:href="#DejaVuSans-69" x="518.457031"/>
     <use xlink:href="#DejaVuSans-70" x="546.240234"/>
     <use xlink:href="#DejaVuSans-73" x="609.716797"/>
     <use xlink:href="#DejaVuSans-6f" x="661.816406"/>
     <use xlink:href="#DejaVuSans-69" x="722.998047"/>
     <use xlink:href="#DejaVuSans-64" x="750.78125"/>
     <use xlink:href="#DejaVuSans-2f" x="814.257812"/>
     <use xlink:href="#DejaVuSans-44" x="847.949219"/>
     <use xlink:href="#DejaVuSans-69" x="924.951172"/>
     <use xlink:href="#DejaVuSans-66" x="952.734375"/>
     <use xlink:href="#DejaVuSans-66" x="987.939453"/>
     <use xlink:href="#DejaVuSans-2e" x="1015.894531"/>
     <use xlink:href="#DejaVuSans-20" x="1047.681641"/>
     <use xlink:href="#DejaVuSans-50" x="1079.46875"/>
     <use xlink:href="#DejaVuSans-6f" x="1136.146484"/>
     <use xlink:href="#DejaVuSans-77" x="1197.328125"/>
     <use xlink:href="#DejaVuSans-65" x="1279.115234"/>
     <use xlink:href="#DejaVuSans-72" x="1340.638672"/>
     <use xlink:href="#DejaVuSans-73" x="1381.751953"/>
    </g>
   </g>
  </g>
 </g>
 <defs>
  <clipPath id="pd570ca71c1">
   <rect x="57.6" y="27.648" width="303.2064" height="271.296"/>
  </clipPath>
 </defs>
</svg>
