<?xml version="1.0" encoding="utf-8" standalone="no"?>
<!DOCTYPE svg PUBLIC "-//W3C//DTD SVG 1.1//EN"
  "http://www.w3.org/Graphics/SVG/1.1/DTD/svg11.dtd">
<svg xmlns:xlink="http://www.w3.org/1999/xlink" width="460.8pt" height="345.6pt" viewBox="0 0 460.8 345.6" xmlns="http://www.w3.org/2000/svg" version="1.1">
 <metadata>
  <rdf:RDF xmlns:dc="http://purl.org/dc/elements/1.1/" xmlns:cc="http://creativecommons.org/ns#" xmlns:rdf="http://www.w3.org/1999/02/22-rdf-syntax-ns#">
   <cc:Work>
    <dc:type rdf:resource="http://purl.org/dc/dcmitype/StillImage"/>
    <dc:date>2023-02-16T10:11:12.031955</dc:date>
    <dc:format>image/svg+xml</dc:format>
    <dc:creator>
     <cc:Agent>
      <dc:title>Matplotlib v3.6.3, https://matplotlib.org/</dc:title>
     </cc:Agent>
    </dc:creator>
   </cc:Work>
  </rdf:RDF>
 </metadata>
 <defs>
  <style type="text/css">*{stroke-linejoin: round; stroke-linecap: butt}</style>
 </defs>
 <g id="figure_1">
  <g id="patch_1">
   <path d="M 0 345.6 
L 460.8 345.6 
L 460.8 0 
L 0 0 
z
" style="fill: #ffffff"/>
  </g>
  <g id="axes_1">
   <g id="patch_2">
    <path d="M 57.6 298.944 
L 360.8064 298.944 
L 360.8064 6.912 
L 57.6 6.912 
z
" style="fill: #ffffff"/>
   </g>
   <g id="matplotlib.axis_1">
    <g id="xtick_1">
     <g id="line2d_1">
      <path d="M 57.6 298.944 
L 57.6 6.912 
" clip-path="url(#pd2a7949ae1)" style="fill: none; stroke: #b0b0b0; stroke-width: 0.8; stroke-linecap: square"/>
     </g>
     <g id="line2d_2">
      <defs>
       <path id="m20ee5dcdc0" d="M 0 0 
L 0 3.5 
" style="stroke: #000000; stroke-width: 0.8"/>
      </defs>
      <g>
       <use xlink:href="#m20ee5dcdc0" x="57.6" y="298.944" style="stroke: #000000; stroke-width: 0.8"/>
      </g>
     </g>
     <g id="text_1">
      <!-- 0 -->
      <g transform="translate(52.191875 318.861344) scale(0.17 -0.17)">
       <defs>
        <path id="DejaVuSans-30" d="M 2034 4250 
Q 1547 4250 1301 3770 
Q 1056 3291 1056 2328 
Q 1056 1369 1301 889 
Q 1547 409 2034 409 
Q 2525 409 2770 889 
Q 3016 1369 3016 2328 
Q 3016 3291 2770 3770 
Q 2525 4250 2034 4250 
z
M 2034 4750 
Q 2819 4750 3233 4129 
Q 3647 3509 3647 2328 
Q 3647 1150 3233 529 
Q 2819 -91 2034 -91 
Q 1250 -91 836 529 
Q 422 1150 422 2328 
Q 422 3509 836 4129 
Q 1250 4750 2034 4750 
z
" transform="scale(0.015625)"/>
       </defs>
       <use xlink:href="#DejaVuSans-30"/>
      </g>
     </g>
    </g>
    <g id="xtick_2">
     <g id="line2d_3">
      <path d="M 144.2304 298.944 
L 144.2304 6.912 
" clip-path="url(#pd2a7949ae1)" style="fill: none; stroke: #b0b0b0; stroke-width: 0.8; stroke-linecap: square"/>
     </g>
     <g id="line2d_4">
      <g>
       <use xlink:href="#m20ee5dcdc0" x="144.2304" y="298.944" style="stroke: #000000; stroke-width: 0.8"/>
      </g>
     </g>
     <g id="text_2">
      <!-- 2 -->
      <g transform="translate(138.822275 318.861344) scale(0.17 -0.17)">
       <defs>
        <path id="DejaVuSans-32" d="M 1228 531 
L 3431 531 
L 3431 0 
L 469 0 
L 469 531 
Q 828 903 1448 1529 
Q 2069 2156 2228 2338 
Q 2531 2678 2651 2914 
Q 2772 3150 2772 3378 
Q 2772 3750 2511 3984 
Q 2250 4219 1831 4219 
Q 1534 4219 1204 4116 
Q 875 4013 500 3803 
L 500 4441 
Q 881 4594 1212 4672 
Q 1544 4750 1819 4750 
Q 2544 4750 2975 4387 
Q 3406 4025 3406 3419 
Q 3406 3131 3298 2873 
Q 3191 2616 2906 2266 
Q 2828 2175 2409 1742 
Q 1991 1309 1228 531 
z
" transform="scale(0.015625)"/>
       </defs>
       <use xlink:href="#DejaVuSans-32"/>
      </g>
     </g>
    </g>
    <g id="xtick_3">
     <g id="line2d_5">
      <path d="M 230.8608 298.944 
L 230.8608 6.912 
" clip-path="url(#pd2a7949ae1)" style="fill: none; stroke: #b0b0b0; stroke-width: 0.8; stroke-linecap: square"/>
     </g>
     <g id="line2d_6">
      <g>
       <use xlink:href="#m20ee5dcdc0" x="230.8608" y="298.944" style="stroke: #000000; stroke-width: 0.8"/>
      </g>
     </g>
     <g id="text_3">
      <!-- 4 -->
      <g transform="translate(225.452675 318.861344) scale(0.17 -0.17)">
       <defs>
        <path id="DejaVuSans-34" d="M 2419 4116 
L 825 1625 
L 2419 1625 
L 2419 4116 
z
M 2253 4666 
L 3047 4666 
L 3047 1625 
L 3713 1625 
L 3713 1100 
L 3047 1100 
L 3047 0 
L 2419 0 
L 2419 1100 
L 313 1100 
L 313 1709 
L 2253 4666 
z
" transform="scale(0.015625)"/>
       </defs>
       <use xlink:href="#DejaVuSans-34"/>
      </g>
     </g>
    </g>
    <g id="xtick_4">
     <g id="line2d_7">
      <path d="M 317.4912 298.944 
L 317.4912 6.912 
" clip-path="url(#pd2a7949ae1)" style="fill: none; stroke: #b0b0b0; stroke-width: 0.8; stroke-linecap: square"/>
     </g>
     <g id="line2d_8">
      <g>
       <use xlink:href="#m20ee5dcdc0" x="317.4912" y="298.944" style="stroke: #000000; stroke-width: 0.8"/>
      </g>
     </g>
     <g id="text_4">
      <!-- 6 -->
      <g transform="translate(312.083075 318.861344) scale(0.17 -0.17)">
       <defs>
        <path id="DejaVuSans-36" d="M 2113 2584 
Q 1688 2584 1439 2293 
Q 1191 2003 1191 1497 
Q 1191 994 1439 701 
Q 1688 409 2113 409 
Q 2538 409 2786 701 
Q 3034 994 3034 1497 
Q 3034 2003 2786 2293 
Q 2538 2584 2113 2584 
z
M 3366 4563 
L 3366 3988 
Q 3128 4100 2886 4159 
Q 2644 4219 2406 4219 
Q 1781 4219 1451 3797 
Q 1122 3375 1075 2522 
Q 1259 2794 1537 2939 
Q 1816 3084 2150 3084 
Q 2853 3084 3261 2657 
Q 3669 2231 3669 1497 
Q 3669 778 3244 343 
Q 2819 -91 2113 -91 
Q 1303 -91 875 529 
Q 447 1150 447 2328 
Q 447 3434 972 4092 
Q 1497 4750 2381 4750 
Q 2619 4750 2861 4703 
Q 3103 4656 3366 4563 
z
" transform="scale(0.015625)"/>
       </defs>
       <use xlink:href="#DejaVuSans-36"/>
      </g>
     </g>
    </g>
    <g id="xtick_5">
     <g id="line2d_9">
      <path d="M 100.9152 298.944 
L 100.9152 6.912 
" clip-path="url(#pd2a7949ae1)" style="fill: none; stroke: #b0b0b0; stroke-width: 0.8; stroke-linecap: square"/>
     </g>
     <g id="line2d_10">
      <defs>
       <path id="m08ed9e91b8" d="M 0 0 
L 0 2 
" style="stroke: #000000; stroke-width: 0.6"/>
      </defs>
      <g>
       <use xlink:href="#m08ed9e91b8" x="100.9152" y="298.944" style="stroke: #000000; stroke-width: 0.6"/>
      </g>
     </g>
    </g>
    <g id="xtick_6">
     <g id="line2d_11">
      <path d="M 187.5456 298.944 
L 187.5456 6.912 
" clip-path="url(#pd2a7949ae1)" style="fill: none; stroke: #b0b0b0; stroke-width: 0.8; stroke-linecap: square"/>
     </g>
     <g id="line2d_12">
      <g>
       <use xlink:href="#m08ed9e91b8" x="187.5456" y="298.944" style="stroke: #000000; stroke-width: 0.6"/>
      </g>
     </g>
    </g>
    <g id="xtick_7">
     <g id="line2d_13">
      <path d="M 274.176 298.944 
L 274.176 6.912 
" clip-path="url(#pd2a7949ae1)" style="fill: none; stroke: #b0b0b0; stroke-width: 0.8; stroke-linecap: square"/>
     </g>
     <g id="line2d_14">
      <g>
       <use xlink:href="#m08ed9e91b8" x="274.176" y="298.944" style="stroke: #000000; stroke-width: 0.6"/>
      </g>
     </g>
    </g>
    <g id="xtick_8">
     <g id="line2d_15">
      <path d="M 360.8064 298.944 
L 360.8064 6.912 
" clip-path="url(#pd2a7949ae1)" style="fill: none; stroke: #b0b0b0; stroke-width: 0.8; stroke-linecap: square"/>
     </g>
     <g id="line2d_16">
      <g>
       <use xlink:href="#m08ed9e91b8" x="360.8064" y="298.944" style="stroke: #000000; stroke-width: 0.6"/>
      </g>
     </g>
    </g>
    <g id="text_5">
     <!-- log10(# f-evals / dimension) -->
     <g transform="translate(88.823278 339.314156) scale(0.17 -0.17)">
      <defs>
       <path id="DejaVuSans-6c" d="M 603 4863 
L 1178 4863 
L 1178 0 
L 603 0 
L 603 4863 
z
" transform="scale(0.015625)"/>
       <path id="DejaVuSans-6f" d="M 1959 3097 
Q 1497 3097 1228 2736 
Q 959 2375 959 1747 
Q 959 1119 1226 758 
Q 1494 397 1959 397 
Q 2419 397 2687 759 
Q 2956 1122 2956 1747 
Q 2956 2369 2687 2733 
Q 2419 3097 1959 3097 
z
M 1959 3584 
Q 2709 3584 3137 3096 
Q 3566 2609 3566 1747 
Q 3566 888 3137 398 
Q 2709 -91 1959 -91 
Q 1206 -91 779 398 
Q 353 888 353 1747 
Q 353 2609 779 3096 
Q 1206 3584 1959 3584 
z
" transform="scale(0.015625)"/>
       <path id="DejaVuSans-67" d="M 2906 1791 
Q 2906 2416 2648 2759 
Q 2391 3103 1925 3103 
Q 1463 3103 1205 2759 
Q 947 2416 947 1791 
Q 947 1169 1205 825 
Q 1463 481 1925 481 
Q 2391 481 2648 825 
Q 2906 1169 2906 1791 
z
M 3481 434 
Q 3481 -459 3084 -895 
Q 2688 -1331 1869 -1331 
Q 1566 -1331 1297 -1286 
Q 1028 -1241 775 -1147 
L 775 -588 
Q 1028 -725 1275 -790 
Q 1522 -856 1778 -856 
Q 2344 -856 2625 -561 
Q 2906 -266 2906 331 
L 2906 616 
Q 2728 306 2450 153 
Q 2172 0 1784 0 
Q 1141 0 747 490 
Q 353 981 353 1791 
Q 353 2603 747 3093 
Q 1141 3584 1784 3584 
Q 2172 3584 2450 3431 
Q 2728 3278 2906 2969 
L 2906 3500 
L 3481 3500 
L 3481 434 
z
" transform="scale(0.015625)"/>
       <path id="DejaVuSans-31" d="M 794 531 
L 1825 531 
L 1825 4091 
L 703 3866 
L 703 4441 
L 1819 4666 
L 2450 4666 
L 2450 531 
L 3481 531 
L 3481 0 
L 794 0 
L 794 531 
z
" transform="scale(0.015625)"/>
       <path id="DejaVuSans-28" d="M 1984 4856 
Q 1566 4138 1362 3434 
Q 1159 2731 1159 2009 
Q 1159 1288 1364 580 
Q 1569 -128 1984 -844 
L 1484 -844 
Q 1016 -109 783 600 
Q 550 1309 550 2009 
Q 550 2706 781 3412 
Q 1013 4119 1484 4856 
L 1984 4856 
z
" transform="scale(0.015625)"/>
       <path id="DejaVuSans-23" d="M 3272 2816 
L 2363 2816 
L 2100 1772 
L 3016 1772 
L 3272 2816 
z
M 2803 4594 
L 2478 3297 
L 3391 3297 
L 3719 4594 
L 4219 4594 
L 3897 3297 
L 4872 3297 
L 4872 2816 
L 3775 2816 
L 3519 1772 
L 4513 1772 
L 4513 1294 
L 3397 1294 
L 3072 0 
L 2572 0 
L 2894 1294 
L 1978 1294 
L 1656 0 
L 1153 0 
L 1478 1294 
L 494 1294 
L 494 1772 
L 1594 1772 
L 1856 2816 
L 850 2816 
L 850 3297 
L 1978 3297 
L 2297 4594 
L 2803 4594 
z
" transform="scale(0.015625)"/>
       <path id="DejaVuSans-20" transform="scale(0.015625)"/>
       <path id="DejaVuSans-66" d="M 2375 4863 
L 2375 4384 
L 1825 4384 
Q 1516 4384 1395 4259 
Q 1275 4134 1275 3809 
L 1275 3500 
L 2222 3500 
L 2222 3053 
L 1275 3053 
L 1275 0 
L 697 0 
L 697 3053 
L 147 3053 
L 147 3500 
L 697 3500 
L 697 3744 
Q 697 4328 969 4595 
Q 1241 4863 1831 4863 
L 2375 4863 
z
" transform="scale(0.015625)"/>
       <path id="DejaVuSans-2d" d="M 313 2009 
L 1997 2009 
L 1997 1497 
L 313 1497 
L 313 2009 
z
" transform="scale(0.015625)"/>
       <path id="DejaVuSans-65" d="M 3597 1894 
L 3597 1613 
L 953 1613 
Q 991 1019 1311 708 
Q 1631 397 2203 397 
Q 2534 397 2845 478 
Q 3156 559 3463 722 
L 3463 178 
Q 3153 47 2828 -22 
Q 2503 -91 2169 -91 
Q 1331 -91 842 396 
Q 353 884 353 1716 
Q 353 2575 817 3079 
Q 1281 3584 2069 3584 
Q 2775 3584 3186 3129 
Q 3597 2675 3597 1894 
z
M 3022 2063 
Q 3016 2534 2758 2815 
Q 2500 3097 2075 3097 
Q 1594 3097 1305 2825 
Q 1016 2553 972 2059 
L 3022 2063 
z
" transform="scale(0.015625)"/>
       <path id="DejaVuSans-76" d="M 191 3500 
L 800 3500 
L 1894 563 
L 2988 3500 
L 3597 3500 
L 2284 0 
L 1503 0 
L 191 3500 
z
" transform="scale(0.015625)"/>
       <path id="DejaVuSans-61" d="M 2194 1759 
Q 1497 1759 1228 1600 
Q 959 1441 959 1056 
Q 959 750 1161 570 
Q 1363 391 1709 391 
Q 2188 391 2477 730 
Q 2766 1069 2766 1631 
L 2766 1759 
L 2194 1759 
z
M 3341 1997 
L 3341 0 
L 2766 0 
L 2766 531 
Q 2569 213 2275 61 
Q 1981 -91 1556 -91 
Q 1019 -91 701 211 
Q 384 513 384 1019 
Q 384 1609 779 1909 
Q 1175 2209 1959 2209 
L 2766 2209 
L 2766 2266 
Q 2766 2663 2505 2880 
Q 2244 3097 1772 3097 
Q 1472 3097 1187 3025 
Q 903 2953 641 2809 
L 641 3341 
Q 956 3463 1253 3523 
Q 1550 3584 1831 3584 
Q 2591 3584 2966 3190 
Q 3341 2797 3341 1997 
z
" transform="scale(0.015625)"/>
       <path id="DejaVuSans-73" d="M 2834 3397 
L 2834 2853 
Q 2591 2978 2328 3040 
Q 2066 3103 1784 3103 
Q 1356 3103 1142 2972 
Q 928 2841 928 2578 
Q 928 2378 1081 2264 
Q 1234 2150 1697 2047 
L 1894 2003 
Q 2506 1872 2764 1633 
Q 3022 1394 3022 966 
Q 3022 478 2636 193 
Q 2250 -91 1575 -91 
Q 1294 -91 989 -36 
Q 684 19 347 128 
L 347 722 
Q 666 556 975 473 
Q 1284 391 1588 391 
Q 1994 391 2212 530 
Q 2431 669 2431 922 
Q 2431 1156 2273 1281 
Q 2116 1406 1581 1522 
L 1381 1569 
Q 847 1681 609 1914 
Q 372 2147 372 2553 
Q 372 3047 722 3315 
Q 1072 3584 1716 3584 
Q 2034 3584 2315 3537 
Q 2597 3491 2834 3397 
z
" transform="scale(0.015625)"/>
       <path id="DejaVuSans-2f" d="M 1625 4666 
L 2156 4666 
L 531 -594 
L 0 -594 
L 1625 4666 
z
" transform="scale(0.015625)"/>
       <path id="DejaVuSans-64" d="M 2906 2969 
L 2906 4863 
L 3481 4863 
L 3481 0 
L 2906 0 
L 2906 525 
Q 2725 213 2448 61 
Q 2172 -91 1784 -91 
Q 1150 -91 751 415 
Q 353 922 353 1747 
Q 353 2572 751 3078 
Q 1150 3584 1784 3584 
Q 2172 3584 2448 3432 
Q 2725 3281 2906 2969 
z
M 947 1747 
Q 947 1113 1208 752 
Q 1469 391 1925 391 
Q 2381 391 2643 752 
Q 2906 1113 2906 1747 
Q 2906 2381 2643 2742 
Q 2381 3103 1925 3103 
Q 1469 3103 1208 2742 
Q 947 2381 947 1747 
z
" transform="scale(0.015625)"/>
       <path id="DejaVuSans-69" d="M 603 3500 
L 1178 3500 
L 1178 0 
L 603 0 
L 603 3500 
z
M 603 4863 
L 1178 4863 
L 1178 4134 
L 603 4134 
L 603 4863 
z
" transform="scale(0.015625)"/>
       <path id="DejaVuSans-6d" d="M 3328 2828 
Q 3544 3216 3844 3400 
Q 4144 3584 4550 3584 
Q 5097 3584 5394 3201 
Q 5691 2819 5691 2113 
L 5691 0 
L 5113 0 
L 5113 2094 
Q 5113 2597 4934 2840 
Q 4756 3084 4391 3084 
Q 3944 3084 3684 2787 
Q 3425 2491 3425 1978 
L 3425 0 
L 2847 0 
L 2847 2094 
Q 2847 2600 2669 2842 
Q 2491 3084 2119 3084 
Q 1678 3084 1418 2786 
Q 1159 2488 1159 1978 
L 1159 0 
L 581 0 
L 581 3500 
L 1159 3500 
L 1159 2956 
Q 1356 3278 1631 3431 
Q 1906 3584 2284 3584 
Q 2666 3584 2933 3390 
Q 3200 3197 3328 2828 
z
" transform="scale(0.015625)"/>
       <path id="DejaVuSans-6e" d="M 3513 2113 
L 3513 0 
L 2938 0 
L 2938 2094 
Q 2938 2591 2744 2837 
Q 2550 3084 2163 3084 
Q 1697 3084 1428 2787 
Q 1159 2491 1159 1978 
L 1159 0 
L 581 0 
L 581 3500 
L 1159 3500 
L 1159 2956 
Q 1366 3272 1645 3428 
Q 1925 3584 2291 3584 
Q 2894 3584 3203 3211 
Q 3513 2838 3513 2113 
z
" transform="scale(0.015625)"/>
       <path id="DejaVuSans-29" d="M 513 4856 
L 1013 4856 
Q 1481 4119 1714 3412 
Q 1947 2706 1947 2009 
Q 1947 1309 1714 600 
Q 1481 -109 1013 -844 
L 513 -844 
Q 928 -128 1133 580 
Q 1338 1288 1338 2009 
Q 1338 2731 1133 3434 
Q 928 4138 513 4856 
z
" transform="scale(0.015625)"/>
      </defs>
      <use xlink:href="#DejaVuSans-6c"/>
      <use xlink:href="#DejaVuSans-6f" x="27.783203"/>
      <use xlink:href="#DejaVuSans-67" x="88.964844"/>
      <use xlink:href="#DejaVuSans-31" x="152.441406"/>
      <use xlink:href="#DejaVuSans-30" x="216.064453"/>
      <use xlink:href="#DejaVuSans-28" x="279.6875"/>
      <use xlink:href="#DejaVuSans-23" x="318.701172"/>
      <use xlink:href="#DejaVuSans-20" x="402.490234"/>
      <use xlink:href="#DejaVuSans-66" x="434.277344"/>
      <use xlink:href="#DejaVuSans-2d" x="463.982422"/>
      <use xlink:href="#DejaVuSans-65" x="500.066406"/>
      <use xlink:href="#DejaVuSans-76" x="561.589844"/>
      <use xlink:href="#DejaVuSans-61" x="620.769531"/>
      <use xlink:href="#DejaVuSans-6c" x="682.048828"/>
      <use xlink:href="#DejaVuSans-73" x="709.832031"/>
      <use xlink:href="#DejaVuSans-20" x="761.931641"/>
      <use xlink:href="#DejaVuSans-2f" x="793.71875"/>
      <use xlink:href="#DejaVuSans-20" x="827.410156"/>
      <use xlink:href="#DejaVuSans-64" x="859.197266"/>
      <use xlink:href="#DejaVuSans-69" x="922.673828"/>
      <use xlink:href="#DejaVuSans-6d" x="950.457031"/>
      <use xlink:href="#DejaVuSans-65" x="1047.869141"/>
      <use xlink:href="#DejaVuSans-6e" x="1109.392578"/>
      <use xlink:href="#DejaVuSans-73" x="1172.771484"/>
      <use xlink:href="#DejaVuSans-69" x="1224.871094"/>
      <use xlink:href="#DejaVuSans-6f" x="1252.654297"/>
      <use xlink:href="#DejaVuSans-6e" x="1313.835938"/>
      <use xlink:href="#DejaVuSans-29" x="1377.214844"/>
     </g>
    </g>
   </g>
   <g id="matplotlib.axis_2">
    <g id="ytick_1">
     <g id="line2d_17">
      <path d="M 57.6 298.944 
L 360.8064 298.944 
" clip-path="url(#pd2a7949ae1)" style="fill: none; stroke: #b0b0b0; stroke-width: 0.8; stroke-linecap: square"/>
     </g>
     <g id="line2d_18">
      <defs>
       <path id="m3b935c7915" d="M 0 0 
L -3.5 0 
" style="stroke: #000000; stroke-width: 0.8"/>
      </defs>
      <g>
       <use xlink:href="#m3b935c7915" x="57.6" y="298.944" style="stroke: #000000; stroke-width: 0.8"/>
      </g>
     </g>
     <g id="text_6">
      <!-- 0.0 -->
      <g transform="translate(25.155 305.02275) scale(0.16 -0.16)">
       <defs>
        <path id="DejaVuSans-2e" d="M 684 794 
L 1344 794 
L 1344 0 
L 684 0 
L 684 794 
z
" transform="scale(0.015625)"/>
       </defs>
       <use xlink:href="#DejaVuSans-30"/>
       <use xlink:href="#DejaVuSans-2e" x="63.623047"/>
       <use xlink:href="#DejaVuSans-30" x="95.410156"/>
      </g>
     </g>
    </g>
    <g id="ytick_2">
     <g id="line2d_19">
      <path d="M 57.6 240.5376 
L 360.8064 240.5376 
" clip-path="url(#pd2a7949ae1)" style="fill: none; stroke: #b0b0b0; stroke-width: 0.8; stroke-linecap: square"/>
     </g>
     <g id="line2d_20">
      <g>
       <use xlink:href="#m3b935c7915" x="57.6" y="240.5376" style="stroke: #000000; stroke-width: 0.8"/>
      </g>
     </g>
     <g id="text_7">
      <!-- 0.2 -->
      <g transform="translate(25.155 246.61635) scale(0.16 -0.16)">
       <use xlink:href="#DejaVuSans-30"/>
       <use xlink:href="#DejaVuSans-2e" x="63.623047"/>
       <use xlink:href="#DejaVuSans-32" x="95.410156"/>
      </g>
     </g>
    </g>
    <g id="ytick_3">
     <g id="line2d_21">
      <path d="M 57.6 182.1312 
L 360.8064 182.1312 
" clip-path="url(#pd2a7949ae1)" style="fill: none; stroke: #b0b0b0; stroke-width: 0.8; stroke-linecap: square"/>
     </g>
     <g id="line2d_22">
      <g>
       <use xlink:href="#m3b935c7915" x="57.6" y="182.1312" style="stroke: #000000; stroke-width: 0.8"/>
      </g>
     </g>
     <g id="text_8">
      <!-- 0.4 -->
      <g transform="translate(25.155 188.20995) scale(0.16 -0.16)">
       <use xlink:href="#DejaVuSans-30"/>
       <use xlink:href="#DejaVuSans-2e" x="63.623047"/>
       <use xlink:href="#DejaVuSans-34" x="95.410156"/>
      </g>
     </g>
    </g>
    <g id="ytick_4">
     <g id="line2d_23">
      <path d="M 57.6 123.7248 
L 360.8064 123.7248 
" clip-path="url(#pd2a7949ae1)" style="fill: none; stroke: #b0b0b0; stroke-width: 0.8; stroke-linecap: square"/>
     </g>
     <g id="line2d_24">
      <g>
       <use xlink:href="#m3b935c7915" x="57.6" y="123.7248" style="stroke: #000000; stroke-width: 0.8"/>
      </g>
     </g>
     <g id="text_9">
      <!-- 0.6 -->
      <g transform="translate(25.155 129.80355) scale(0.16 -0.16)">
       <use xlink:href="#DejaVuSans-30"/>
       <use xlink:href="#DejaVuSans-2e" x="63.623047"/>
       <use xlink:href="#DejaVuSans-36" x="95.410156"/>
      </g>
     </g>
    </g>
    <g id="ytick_5">
     <g id="line2d_25">
      <path d="M 57.6 65.3184 
L 360.8064 65.3184 
" clip-path="url(#pd2a7949ae1)" style="fill: none; stroke: #b0b0b0; stroke-width: 0.8; stroke-linecap: square"/>
     </g>
     <g id="line2d_26">
      <g>
       <use xlink:href="#m3b935c7915" x="57.6" y="65.3184" style="stroke: #000000; stroke-width: 0.8"/>
      </g>
     </g>
     <g id="text_10">
      <!-- 0.8 -->
      <g transform="translate(25.155 71.39715) scale(0.16 -0.16)">
       <defs>
        <path id="DejaVuSans-38" d="M 2034 2216 
Q 1584 2216 1326 1975 
Q 1069 1734 1069 1313 
Q 1069 891 1326 650 
Q 1584 409 2034 409 
Q 2484 409 2743 651 
Q 3003 894 3003 1313 
Q 3003 1734 2745 1975 
Q 2488 2216 2034 2216 
z
M 1403 2484 
Q 997 2584 770 2862 
Q 544 3141 544 3541 
Q 544 4100 942 4425 
Q 1341 4750 2034 4750 
Q 2731 4750 3128 4425 
Q 3525 4100 3525 3541 
Q 3525 3141 3298 2862 
Q 3072 2584 2669 2484 
Q 3125 2378 3379 2068 
Q 3634 1759 3634 1313 
Q 3634 634 3220 271 
Q 2806 -91 2034 -91 
Q 1263 -91 848 271 
Q 434 634 434 1313 
Q 434 1759 690 2068 
Q 947 2378 1403 2484 
z
M 1172 3481 
Q 1172 3119 1398 2916 
Q 1625 2713 2034 2713 
Q 2441 2713 2670 2916 
Q 2900 3119 2900 3481 
Q 2900 3844 2670 4047 
Q 2441 4250 2034 4250 
Q 1625 4250 1398 4047 
Q 1172 3844 1172 3481 
z
" transform="scale(0.015625)"/>
       </defs>
       <use xlink:href="#DejaVuSans-30"/>
       <use xlink:href="#DejaVuSans-2e" x="63.623047"/>
       <use xlink:href="#DejaVuSans-38" x="95.410156"/>
      </g>
     </g>
    </g>
    <g id="ytick_6">
     <g id="line2d_27">
      <path d="M 57.6 6.912 
L 360.8064 6.912 
" clip-path="url(#pd2a7949ae1)" style="fill: none; stroke: #b0b0b0; stroke-width: 0.8; stroke-linecap: square"/>
     </g>
     <g id="line2d_28">
      <g>
       <use xlink:href="#m3b935c7915" x="57.6" y="6.912" style="stroke: #000000; stroke-width: 0.8"/>
      </g>
     </g>
     <g id="text_11">
      <!-- 1.0 -->
      <g transform="translate(25.155 12.99075) scale(0.16 -0.16)">
       <use xlink:href="#DejaVuSans-31"/>
       <use xlink:href="#DejaVuSans-2e" x="63.623047"/>
       <use xlink:href="#DejaVuSans-30" x="95.410156"/>
      </g>
     </g>
    </g>
    <g id="text_12">
     <!-- Fraction of function,target pairs -->
     <g transform="translate(17.619531 287.313) rotate(-90) scale(0.17 -0.17)">
      <defs>
       <path id="DejaVuSans-46" d="M 628 4666 
L 3309 4666 
L 3309 4134 
L 1259 4134 
L 1259 2759 
L 3109 2759 
L 3109 2228 
L 1259 2228 
L 1259 0 
L 628 0 
L 628 4666 
z
" transform="scale(0.015625)"/>
       <path id="DejaVuSans-72" d="M 2631 2963 
Q 2534 3019 2420 3045 
Q 2306 3072 2169 3072 
Q 1681 3072 1420 2755 
Q 1159 2438 1159 1844 
L 1159 0 
L 581 0 
L 581 3500 
L 1159 3500 
L 1159 2956 
Q 1341 3275 1631 3429 
Q 1922 3584 2338 3584 
Q 2397 3584 2469 3576 
Q 2541 3569 2628 3553 
L 2631 2963 
z
" transform="scale(0.015625)"/>
       <path id="DejaVuSans-63" d="M 3122 3366 
L 3122 2828 
Q 2878 2963 2633 3030 
Q 2388 3097 2138 3097 
Q 1578 3097 1268 2742 
Q 959 2388 959 1747 
Q 959 1106 1268 751 
Q 1578 397 2138 397 
Q 2388 397 2633 464 
Q 2878 531 3122 666 
L 3122 134 
Q 2881 22 2623 -34 
Q 2366 -91 2075 -91 
Q 1284 -91 818 406 
Q 353 903 353 1747 
Q 353 2603 823 3093 
Q 1294 3584 2113 3584 
Q 2378 3584 2631 3529 
Q 2884 3475 3122 3366 
z
" transform="scale(0.015625)"/>
       <path id="DejaVuSans-74" d="M 1172 4494 
L 1172 3500 
L 2356 3500 
L 2356 3053 
L 1172 3053 
L 1172 1153 
Q 1172 725 1289 603 
Q 1406 481 1766 481 
L 2356 481 
L 2356 0 
L 1766 0 
Q 1100 0 847 248 
Q 594 497 594 1153 
L 594 3053 
L 172 3053 
L 172 3500 
L 594 3500 
L 594 4494 
L 1172 4494 
z
" transform="scale(0.015625)"/>
       <path id="DejaVuSans-75" d="M 544 1381 
L 544 3500 
L 1119 3500 
L 1119 1403 
Q 1119 906 1312 657 
Q 1506 409 1894 409 
Q 2359 409 2629 706 
Q 2900 1003 2900 1516 
L 2900 3500 
L 3475 3500 
L 3475 0 
L 2900 0 
L 2900 538 
Q 2691 219 2414 64 
Q 2138 -91 1772 -91 
Q 1169 -91 856 284 
Q 544 659 544 1381 
z
M 1991 3584 
L 1991 3584 
z
" transform="scale(0.015625)"/>
       <path id="DejaVuSans-2c" d="M 750 794 
L 1409 794 
L 1409 256 
L 897 -744 
L 494 -744 
L 750 256 
L 750 794 
z
" transform="scale(0.015625)"/>
       <path id="DejaVuSans-70" d="M 1159 525 
L 1159 -1331 
L 581 -1331 
L 581 3500 
L 1159 3500 
L 1159 2969 
Q 1341 3281 1617 3432 
Q 1894 3584 2278 3584 
Q 2916 3584 3314 3078 
Q 3713 2572 3713 1747 
Q 3713 922 3314 415 
Q 2916 -91 2278 -91 
Q 1894 -91 1617 61 
Q 1341 213 1159 525 
z
M 3116 1747 
Q 3116 2381 2855 2742 
Q 2594 3103 2138 3103 
Q 1681 3103 1420 2742 
Q 1159 2381 1159 1747 
Q 1159 1113 1420 752 
Q 1681 391 2138 391 
Q 2594 391 2855 752 
Q 3116 1113 3116 1747 
z
" transform="scale(0.015625)"/>
      </defs>
      <use xlink:href="#DejaVuSans-46"/>
      <use xlink:href="#DejaVuSans-72" x="50.269531"/>
      <use xlink:href="#DejaVuSans-61" x="91.382812"/>
      <use xlink:href="#DejaVuSans-63" x="152.662109"/>
      <use xlink:href="#DejaVuSans-74" x="207.642578"/>
      <use xlink:href="#DejaVuSans-69" x="246.851562"/>
      <use xlink:href="#DejaVuSans-6f" x="274.634766"/>
      <use xlink:href="#DejaVuSans-6e" x="335.816406"/>
      <use xlink:href="#DejaVuSans-20" x="399.195312"/>
      <use xlink:href="#DejaVuSans-6f" x="430.982422"/>
      <use xlink:href="#DejaVuSans-66" x="492.164062"/>
      <use xlink:href="#DejaVuSans-20" x="527.369141"/>
      <use xlink:href="#DejaVuSans-66" x="559.15625"/>
      <use xlink:href="#DejaVuSans-75" x="594.361328"/>
      <use xlink:href="#DejaVuSans-6e" x="657.740234"/>
      <use xlink:href="#DejaVuSans-63" x="721.119141"/>
      <use xlink:href="#DejaVuSans-74" x="776.099609"/>
      <use xlink:href="#DejaVuSans-69" x="815.308594"/>
      <use xlink:href="#DejaVuSans-6f" x="843.091797"/>
      <use xlink:href="#DejaVuSans-6e" x="904.273438"/>
      <use xlink:href="#DejaVuSans-2c" x="967.652344"/>
      <use xlink:href="#DejaVuSans-74" x="999.439453"/>
      <use xlink:href="#DejaVuSans-61" x="1038.648438"/>
      <use xlink:href="#DejaVuSans-72" x="1099.927734"/>
      <use xlink:href="#DejaVuSans-67" x="1139.291016"/>
      <use xlink:href="#DejaVuSans-65" x="1202.767578"/>
      <use xlink:href="#DejaVuSans-74" x="1264.291016"/>
      <use xlink:href="#DejaVuSans-20" x="1303.5"/>
      <use xlink:href="#DejaVuSans-70" x="1335.287109"/>
      <use xlink:href="#DejaVuSans-61" x="1398.763672"/>
      <use xlink:href="#DejaVuSans-69" x="1460.042969"/>
      <use xlink:href="#DejaVuSans-72" x="1487.826172"/>
      <use xlink:href="#DejaVuSans-73" x="1528.939453"/>
     </g>
    </g>
   </g>
   <g id="line2d_29">
    <defs>
     <path id="mabe0c5288d" d="M 0 1.5 
C 0.397805 1.5 0.77937 1.341951 1.06066 1.06066 
C 1.341951 0.77937 1.5 0.397805 1.5 0 
C 1.5 -0.397805 1.341951 -0.77937 1.06066 -1.06066 
C 0.77937 -1.341951 0.397805 -1.5 0 -1.5 
C -0.397805 -1.5 -0.77937 -1.341951 -1.06066 -1.06066 
C -1.341951 -0.77937 -1.5 -0.397805 -1.5 0 
C -1.5 0.397805 -1.341951 0.77937 -1.06066 1.06066 
C -0.77937 1.341951 -0.397805 1.5 0 1.5 
z
" style="stroke: #000080"/>
    </defs>
    <g>
     <use xlink:href="#mabe0c5288d" x="185.966836" y="186.159228" style="fill: #000080; stroke: #000080"/>
     <use xlink:href="#mabe0c5288d" x="185.966836" y="186.159228" style="fill: #000080; stroke: #000080"/>
    </g>
   </g>
   <g id="line2d_30">
    <path d="M 44.560826 298.944 
L 44.560826 291.391448 
L 57.6 291.391448 
L 57.6 289.377434 
L 94.205591 289.377434 
L 94.205591 288.873931 
L 95.503454 288.873931 
L 95.503454 288.370428 
L 101.833019 288.370428 
L 101.833019 287.866924 
L 102.708132 287.866924 
L 102.708132 287.363421 
L 106.560633 287.363421 
L 106.560633 286.859917 
L 110.335561 286.859917 
L 110.335561 286.356414 
L 110.897141 286.356414 
L 110.897141 285.85291 
L 111.442442 285.85291 
L 111.442442 282.328386 
L 113.954374 282.328386 
L 113.954374 281.824883 
L 114.872193 281.824883 
L 114.872193 281.321379 
L 115.747307 281.321379 
L 115.747307 280.817876 
L 117.772007 280.817876 
L 117.772007 278.803862 
L 118.524569 278.803862 
L 118.524569 277.796855 
L 119.599808 277.796855 
L 119.599808 276.789848 
L 120.28394 276.789848 
L 120.28394 275.782841 
L 123.374735 275.782841 
L 123.374735 275.279338 
L 124.210942 275.279338 
L 124.210942 274.775834 
L 124.481616 274.775834 
L 124.481616 273.768828 
L 124.748451 273.768828 
L 124.748451 272.258317 
L 125.526971 272.258317 
L 125.526971 271.754814 
L 125.779479 271.754814 
L 125.779479 271.25131 
L 126.274549 271.25131 
L 126.274549 270.747807 
L 126.517282 270.747807 
L 126.517282 270.244303 
L 127.458055 270.244303 
L 127.458055 269.7408 
L 127.686077 269.7408 
L 127.686077 268.733793 
L 128.133992 268.733793 
L 128.133992 268.23029 
L 130.027253 268.23029 
L 130.027253 265.209269 
L 130.4233 265.209269 
L 130.4233 264.202262 
L 131.563744 264.202262 
L 131.563744 263.195255 
L 132.46399 263.195255 
L 132.46399 261.684745 
L 132.638982 261.684745 
L 132.638982 261.181241 
L 132.812362 261.181241 
L 132.812362 260.677738 
L 134.77709 260.677738 
L 134.77709 260.174234 
L 135.538796 260.174234 
L 135.538796 259.167228 
L 135.687504 259.167228 
L 135.687504 258.663724 
L 136.696795 258.663724 
L 136.696795 258.160221 
L 137.250116 258.160221 
L 137.250116 257.153214 
L 137.38594 257.153214 
L 137.38594 256.64971 
L 137.919637 256.64971 
L 137.919637 255.1392 
L 138.438609 255.1392 
L 138.438609 254.132193 
L 139.191172 254.132193 
L 139.191172 253.62869 
L 139.676658 253.62869 
L 139.676658 252.621683 
L 140.14993 252.621683 
L 140.14993 252.118179 
L 141.825656 252.118179 
L 141.825656 251.111172 
L 142.038218 251.111172 
L 142.038218 250.607669 
L 142.559347 250.607669 
L 142.559347 250.104166 
L 143.657415 250.104166 
L 143.657415 249.600662 
L 143.850356 249.600662 
L 143.850356 249.097159 
L 144.602918 249.097159 
L 144.602918 248.090152 
L 145.678157 248.090152 
L 145.765046 245.069131 
L 146.108646 245.069131 
L 146.108646 244.565628 
L 147.423525 244.565628 
L 147.502732 242.551614 
L 148.800595 242.551614 
L 148.800595 240.034097 
L 149.238092 240.034097 
L 149.238092 239.530593 
L 149.524205 239.530593 
L 149.524205 239.02709 
L 149.806031 239.02709 
L 149.806031 238.523586 
L 150.083698 238.523586 
L 150.083698 238.020083 
L 151.477784 238.020083 
L 151.477784 237.516579 
L 151.60532 237.516579 
L 151.668766 236.006069 
L 152.775647 236.006069 
L 152.775647 235.502566 
L 153.421349 235.502566 
L 153.421349 234.999062 
L 154.101358 234.999062 
L 154.101358 234.495559 
L 154.811312 234.495559 
L 154.811312 233.992055 
L 155.024477 233.992055 
L 155.024477 232.985048 
L 155.598521 232.985048 
L 155.598521 232.481545 
L 156.255099 232.481545 
L 156.255099 231.474538 
L 156.84148 231.474538 
L 156.84148 230.971034 
L 157.316545 230.971034 
L 157.316545 229.964028 
L 157.503261 229.964028 
L 157.503261 229.460524 
L 158.498335 229.460524 
L 158.498335 228.453517 
L 159.485256 228.453517 
L 159.485256 227.950014 
L 160.263211 227.950014 
L 160.303279 225.936 
L 160.422971 225.936 
L 160.502345 224.42549 
L 160.855439 224.42549 
L 160.855439 223.921986 
L 161.765853 223.921986 
L 161.765853 222.914979 
L 162.168843 222.914979 
L 162.168843 222.411476 
L 163.088387 222.411476 
L 163.088387 220.900966 
L 164.484939 220.900966 
L 164.484939 220.397462 
L 164.897003 220.397462 
L 164.897003 219.390455 
L 165.725029 219.390455 
L 165.725029 218.383448 
L 166.860176 218.383448 
L 166.860176 217.376441 
L 167.526142 217.376441 
L 167.580589 215.362428 
L 167.823671 215.362428 
L 167.823671 214.858924 
L 168.482867 214.858924 
L 168.482867 213.851917 
L 168.663377 213.851917 
L 168.663377 212.84491 
L 169.019282 212.84491 
L 169.019282 211.837903 
L 169.343842 211.837903 
L 169.343842 210.830897 
L 170.308749 210.830897 
L 170.402572 209.320386 
L 172.524431 209.320386 
L 172.524431 208.313379 
L 172.732295 208.313379 
L 172.732295 207.306372 
L 173.141258 207.306372 
L 173.18167 205.795862 
L 173.718895 205.795862 
L 173.718895 204.788855 
L 174.355328 204.788855 
L 174.355328 204.285352 
L 175.460042 204.285352 
L 175.460042 203.278345 
L 176.006364 203.278345 
L 176.006364 202.774841 
L 176.282249 202.774841 
L 176.384671 201.264331 
L 176.888582 201.264331 
L 176.938239 199.753821 
L 177.45991 199.753821 
L 177.45991 199.250317 
L 178.076737 199.250317 
L 178.154375 197.236303 
L 178.643809 197.236303 
L 178.643809 196.229297 
L 179.729109 196.229297 
L 179.743355 194.718786 
L 179.913468 194.718786 
L 179.913468 194.215283 
L 180.619764 194.215283 
L 180.660496 193.208276 
L 182.096193 193.208276 
L 182.096193 192.201269 
L 182.271302 192.201269 
L 182.271302 191.697766 
L 182.811266 191.697766 
L 182.811266 190.690759 
L 183.015807 190.690759 
L 183.015807 190.187255 
L 183.50015 190.187255 
L 183.50015 189.180248 
L 184.466222 189.180248 
L 184.466222 188.173241 
L 185.055154 188.173241 
L 185.055154 187.669738 
L 185.490306 187.669738 
L 185.490306 187.166234 
L 185.966836 187.166234 
L 185.966836 186.159228 
L 360.8064 186.159228 
L 360.8064 186.159228 
" style="fill: none; stroke: #000080; stroke-width: 1.5; stroke-linecap: square"/>
   </g>
   <g id="line2d_31">
    <defs>
     <path id="mae7a8d8489" d="M 0 6 
C 1.591219 6 3.117479 5.367802 4.242641 4.242641 
C 5.367802 3.117479 6 1.591219 6 0 
C 6 -1.591219 5.367802 -3.117479 4.242641 -4.242641 
C 3.117479 -5.367802 1.591219 -6 0 -6 
C -1.591219 -6 -3.117479 -5.367802 -4.242641 -4.242641 
C -5.367802 -3.117479 -6 -1.591219 -6 0 
C -6 1.591219 -5.367802 3.117479 -4.242641 4.242641 
C -3.117479 5.367802 -1.591219 6 0 6 
z
" style="stroke: #000080; stroke-width: 1.5"/>
    </defs>
    <g>
     <use xlink:href="#mae7a8d8489" x="130.4233" y="264.202262" style="fill-opacity: 0; stroke: #000080; stroke-width: 1.5"/>
     <use xlink:href="#mae7a8d8489" x="167.823671" y="214.858924" style="fill-opacity: 0; stroke: #000080; stroke-width: 1.5"/>
     <use xlink:href="#mae7a8d8489" x="185.966836" y="187.166234" style="fill-opacity: 0; stroke: #000080; stroke-width: 1.5"/>
     <use xlink:href="#mae7a8d8489" x="185.966836" y="186.159228" style="fill-opacity: 0; stroke: #000080; stroke-width: 1.5"/>
     <use xlink:href="#mae7a8d8489" x="185.966836" y="186.159228" style="fill-opacity: 0; stroke: #000080; stroke-width: 1.5"/>
     <use xlink:href="#mae7a8d8489" x="360.8064" y="186.159228" style="fill-opacity: 0; stroke: #000080; stroke-width: 1.5"/>
    </g>
   </g>
   <g id="line2d_32">
    <path style="fill: none; stroke: #000080; stroke-width: 1.5; stroke-linecap: square"/>
    <g/>
   </g>
   <g id="line2d_33">
    <path d="M 187.489081 186.159228 
" clip-path="url(#pd2a7949ae1)" style="fill: none; stroke: #000080; stroke-width: 1.5; stroke-linecap: square"/>
    <defs>
     <path id="mdc316c3d77" d="M -12 12 
L 12 -12 
M -12 -12 
L 12 12 
" style="stroke: #000080"/>
    </defs>
    <g clip-path="url(#pd2a7949ae1)">
     <use xlink:href="#mdc316c3d77" x="187.489081" y="186.159228" style="fill: #000080; stroke: #000080"/>
    </g>
   </g>
   <g id="line2d_34">
    <defs>
     <path id="m04dbed1d92" d="M 0 1.5 
C 0.397805 1.5 0.77937 1.341951 1.06066 1.06066 
C 1.341951 0.77937 1.5 0.397805 1.5 0 
C 1.5 -0.397805 1.341951 -0.77937 1.06066 -1.06066 
C 0.77937 -1.341951 0.397805 -1.5 0 -1.5 
C -0.397805 -1.5 -0.77937 -1.341951 -1.06066 -1.06066 
C -1.341951 -0.77937 -1.5 -0.397805 -1.5 0 
C -1.5 0.397805 -1.341951 0.77937 -1.06066 1.06066 
C -0.77937 1.341951 -0.397805 1.5 0 1.5 
z
" style="stroke: #ff00ff"/>
    </defs>
    <g>
     <use xlink:href="#m04dbed1d92" x="185.194222" y="162.998069" style="fill: #ff00ff; stroke: #ff00ff"/>
     <use xlink:href="#m04dbed1d92" x="185.194222" y="162.998069" style="fill: #ff00ff; stroke: #ff00ff"/>
    </g>
   </g>
   <g id="line2d_35">
    <path d="M 44.560826 298.944 
L 44.560826 281.321379 
L 57.6 281.321379 
L 57.6 272.761821 
L 83.678349 272.761821 
L 83.678349 272.258317 
L 85.894031 272.258317 
L 85.894031 270.747807 
L 95.503454 270.747807 
L 95.503454 267.726786 
L 101.833019 267.726786 
L 101.833019 259.167228 
L 102.708132 259.167228 
L 102.708132 258.160221 
L 103.544339 258.160221 
L 103.544339 257.656717 
L 107.904887 257.656717 
L 107.904887 256.146207 
L 110.897141 256.146207 
L 110.897141 254.635697 
L 113.954374 254.635697 
L 113.954374 253.125186 
L 115.314838 253.125186 
L 115.314838 250.104166 
L 118.152051 250.104166 
L 118.152051 249.097159 
L 118.889854 249.097159 
L 118.889854 248.593655 
L 119.24818 248.593655 
L 119.24818 247.586648 
L 120.616896 247.586648 
L 120.616896 246.076138 
L 121.581803 246.076138 
L 121.581803 245.572634 
L 123.936316 245.572634 
L 123.936316 245.069131 
L 124.481616 245.069131 
L 124.481616 243.055117 
L 124.748451 243.055117 
L 124.748451 241.544607 
L 126.028642 241.544607 
L 126.028642 240.034097 
L 126.274549 240.034097 
L 126.274549 239.530593 
L 126.756923 239.530593 
L 126.756923 237.516579 
L 127.458055 237.516579 
L 127.458055 236.006069 
L 129.826058 236.006069 
L 129.826058 234.999062 
L 130.4233 234.999062 
L 130.4233 233.992055 
L 131.191226 233.992055 
L 131.191226 233.488552 
L 131.378407 233.488552 
L 131.378407 232.481545 
L 131.563744 232.481545 
L 131.563744 231.978041 
L 131.747272 231.978041 
L 131.747272 230.971034 
L 134.14471 230.971034 
L 134.14471 229.964028 
L 134.620977 229.964028 
L 134.620977 229.460524 
L 135.237805 229.460524 
L 135.237805 228.957021 
L 135.388902 228.957021 
L 135.388902 227.950014 
L 137.250116 227.950014 
L 137.250116 226.943007 
L 137.919637 226.943007 
L 137.919637 223.921986 
L 138.692823 223.921986 
L 138.692823 223.418483 
L 139.556456 223.418483 
L 139.556456 222.411476 
L 139.914782 222.411476 
L 139.914782 220.397462 
L 140.032723 220.397462 
L 140.032723 219.390455 
L 140.26641 219.390455 
L 140.26641 218.886952 
L 141.173167 218.886952 
L 141.173167 218.383448 
L 142.248405 218.383448 
L 142.248405 217.879945 
L 142.763822 217.879945 
L 142.763822 217.376441 
L 143.657415 217.376441 
L 143.657415 216.369434 
L 144.417581 216.369434 
L 144.510478 214.858924 
L 144.694906 214.858924 
L 144.694906 213.851917 
L 146.362288 213.851917 
L 146.362288 212.84491 
L 146.529503 212.84491 
L 146.529503 211.837903 
L 146.695245 211.837903 
L 146.695245 211.3344 
L 146.859539 211.3344 
L 146.859539 210.327393 
L 147.264104 210.327393 
L 147.264104 208.816883 
L 147.971093 208.816883 
L 148.048032 207.306372 
L 148.124658 207.306372 
L 148.124658 206.802869 
L 149.875833 206.802869 
L 149.875833 205.795862 
L 150.760445 205.795862 
L 150.760445 205.292359 
L 151.089903 205.292359 
L 151.089903 204.788855 
L 151.349377 204.788855 
L 151.349377 202.774841 
L 153.363556 202.774841 
L 153.363556 202.271338 
L 156.354107 202.271338 
L 156.354107 201.767834 
L 156.745011 201.767834 
L 156.745011 200.760828 
L 156.88953 200.760828 
L 156.88953 199.250317 
L 157.032948 199.250317 
L 157.032948 198.24331 
L 157.363398 198.24331 
L 157.410135 196.7328 
L 157.595929 196.7328 
L 157.595929 195.725793 
L 158.717331 195.725793 
L 158.717331 195.22229 
L 159.105212 195.22229 
L 159.105212 192.704772 
L 159.734419 192.704772 
L 159.734419 192.201269 
L 160.303279 192.201269 
L 160.303279 191.697766 
L 160.933013 191.697766 
L 160.933013 191.194262 
L 162.59884 191.194262 
L 162.59884 190.187255 
L 162.915008 190.187255 
L 162.984551 188.173241 
L 163.3965 188.173241 
L 163.3965 187.669738 
L 163.96507 187.669738 
L 163.96507 187.166234 
L 164.516958 187.166234 
L 164.516958 186.159228 
L 164.897003 186.159228 
L 164.897003 185.655724 
L 165.784938 185.655724 
L 165.784938 185.152221 
L 165.993131 185.152221 
L 165.993131 184.145214 
L 166.228279 184.145214 
L 166.315707 182.634703 
L 166.775248 182.634703 
L 166.8036 181.627697 
L 167.223831 181.627697 
L 167.223831 180.62069 
L 167.661966 180.62069 
L 167.661966 180.117186 
L 168.221954 180.117186 
L 168.221954 178.606676 
L 168.508761 178.606676 
L 168.586228 177.096166 
L 168.994082 177.096166 
L 168.994082 176.592662 
L 169.784185 176.592662 
L 169.784185 176.089159 
L 170.190808 176.089159 
L 170.261661 174.578648 
L 170.472634 174.578648 
L 170.472634 174.075145 
L 170.841952 174.075145 
L 170.841952 173.571641 
L 172.958324 173.571641 
L 172.958324 173.068138 
L 173.161475 173.068138 
L 173.161475 172.564634 
L 173.422332 172.564634 
L 173.422332 172.061131 
L 173.952824 172.061131 
L 173.952824 171.054124 
L 174.581522 171.054124 
L 174.581522 170.550621 
L 174.970932 170.550621 
L 175.007602 169.543614 
L 176.006364 169.543614 
L 176.006364 168.536607 
L 176.435674 168.536607 
L 176.435674 167.5296 
L 176.62151 167.5296 
L 176.62151 167.026097 
L 176.987765 167.026097 
L 177.02071 166.01909 
L 177.1192 166.01909 
L 177.1192 165.515586 
L 177.492039 165.515586 
L 177.492039 165.012083 
L 180.29069 165.012083 
L 180.29069 164.508579 
L 180.956535 164.508579 
L 180.956535 163.501572 
L 185.194222 163.501572 
L 185.194222 162.998069 
L 360.8064 162.998069 
L 360.8064 162.998069 
" style="fill: none; stroke: #ff00ff; stroke-width: 1.5; stroke-linecap: square"/>
   </g>
   <g id="line2d_36">
    <defs>
     <path id="m06020729d4" d="M -0 8.485281 
L 5.091169 0 
L 0 -8.485281 
L -5.091169 -0 
z
" style="stroke: #ff00ff; stroke-width: 1.5; stroke-linejoin: miter"/>
    </defs>
    <g>
     <use xlink:href="#m06020729d4" x="119.24818" y="248.593655" style="fill-opacity: 0; stroke: #ff00ff; stroke-width: 1.5; stroke-linejoin: miter"/>
     <use xlink:href="#m06020729d4" x="180.956535" y="164.508579" style="fill-opacity: 0; stroke: #ff00ff; stroke-width: 1.5; stroke-linejoin: miter"/>
     <use xlink:href="#m06020729d4" x="185.194222" y="163.501572" style="fill-opacity: 0; stroke: #ff00ff; stroke-width: 1.5; stroke-linejoin: miter"/>
     <use xlink:href="#m06020729d4" x="185.194222" y="162.998069" style="fill-opacity: 0; stroke: #ff00ff; stroke-width: 1.5; stroke-linejoin: miter"/>
     <use xlink:href="#m06020729d4" x="185.194222" y="162.998069" style="fill-opacity: 0; stroke: #ff00ff; stroke-width: 1.5; stroke-linejoin: miter"/>
     <use xlink:href="#m06020729d4" x="360.8064" y="162.998069" style="fill-opacity: 0; stroke: #ff00ff; stroke-width: 1.5; stroke-linejoin: miter"/>
    </g>
   </g>
   <g id="line2d_37">
    <path style="fill: none; stroke: #ff00ff; stroke-width: 1.5; stroke-linecap: square"/>
    <g/>
   </g>
   <g id="line2d_38">
    <path d="M 187.489081 162.998069 
" clip-path="url(#pd2a7949ae1)" style="fill: none; stroke: #ff00ff; stroke-width: 1.5; stroke-linecap: square"/>
    <defs>
     <path id="mcfccbf44c0" d="M -12 12 
L 12 -12 
M -12 -12 
L 12 12 
" style="stroke: #ff00ff"/>
    </defs>
    <g clip-path="url(#pd2a7949ae1)">
     <use xlink:href="#mcfccbf44c0" x="187.489081" y="162.998069" style="fill: #ff00ff; stroke: #ff00ff"/>
    </g>
   </g>
   <g id="line2d_39">
    <defs>
     <path id="m53c6006b2b" d="M 0 1.5 
C 0.397805 1.5 0.77937 1.341951 1.06066 1.06066 
C 1.341951 0.77937 1.5 0.397805 1.5 0 
C 1.5 -0.397805 1.341951 -0.77937 1.06066 -1.06066 
C 0.77937 -1.341951 0.397805 -1.5 0 -1.5 
C -0.397805 -1.5 -0.77937 -1.341951 -1.06066 -1.06066 
C -1.341951 -0.77937 -1.5 -0.397805 -1.5 0 
C -1.5 0.397805 -1.341951 0.77937 -1.06066 1.06066 
C -0.77937 1.341951 -0.397805 1.5 0 1.5 
z
" style="stroke: #ff7500"/>
    </defs>
    <g>
     <use xlink:href="#m53c6006b2b" x="186.8266" y="159.473545" style="fill: #ff7500; stroke: #ff7500"/>
     <use xlink:href="#m53c6006b2b" x="186.8266" y="159.473545" style="fill: #ff7500; stroke: #ff7500"/>
    </g>
   </g>
   <g id="line2d_40">
    <path d="M 44.560826 298.944 
L 44.560826 293.908966 
L 57.6 293.908966 
L 57.6 291.894952 
L 83.678349 291.894952 
L 83.678349 287.866924 
L 85.894031 287.866924 
L 85.894031 287.363421 
L 95.503454 287.363421 
L 95.503454 284.845903 
L 102.708132 284.845903 
L 102.708132 283.335393 
L 103.544339 283.335393 
L 103.544339 282.83189 
L 107.904887 282.83189 
L 107.904887 281.824883 
L 111.442442 281.824883 
L 111.442442 281.321379 
L 113.478107 281.321379 
L 113.478107 280.314372 
L 117.772007 280.314372 
L 117.772007 277.796855 
L 118.889854 277.796855 
L 118.889854 276.789848 
L 121.892744 276.789848 
L 121.892744 274.775834 
L 122.19863 274.775834 
L 122.19863 274.272331 
L 122.499621 274.272331 
L 122.499621 270.747807 
L 123.08753 270.747807 
L 123.08753 270.244303 
L 124.481616 270.244303 
L 124.481616 268.733793 
L 124.748451 268.733793 
L 124.748451 268.23029 
L 125.526971 268.23029 
L 125.526971 267.726786 
L 126.274549 267.726786 
L 126.274549 267.223283 
L 126.517282 267.223283 
L 126.517282 266.719779 
L 128.133992 266.719779 
L 128.133992 265.209269 
L 129.622688 265.209269 
L 129.622688 264.202262 
L 130.027253 264.202262 
L 130.027253 263.698759 
L 131.002163 263.698759 
L 131.002163 261.684745 
L 131.378407 261.684745 
L 131.378407 260.174234 
L 131.563744 260.174234 
L 131.563744 259.670731 
L 132.812362 259.670731 
L 132.812362 256.64971 
L 133.154399 256.64971 
L 133.154399 255.642703 
L 134.463557 255.642703 
L 134.463557 254.132193 
L 135.538796 254.132193 
L 135.538796 252.621683 
L 136.126705 252.621683 
L 136.126705 252.118179 
L 136.555884 252.118179 
L 136.555884 251.614676 
L 137.654681 251.614676 
L 137.654681 250.607669 
L 138.566146 250.607669 
L 138.566146 249.600662 
L 138.818654 249.600662 
L 138.818654 248.090152 
L 139.796097 248.090152 
L 139.796097 247.586648 
L 140.26641 247.586648 
L 140.26641 247.083145 
L 140.49723 247.083145 
L 140.49723 246.579641 
L 140.838234 246.579641 
L 140.838234 246.076138 
L 141.718467 246.076138 
L 141.718467 245.572634 
L 142.966099 245.572634 
L 142.966099 245.069131 
L 143.946089 245.069131 
L 143.946089 242.551614 
L 144.602918 242.551614 
L 144.602918 241.544607 
L 145.415054 241.544607 
L 145.415054 241.041103 
L 145.765046 241.041103 
L 145.765046 240.034097 
L 146.108646 240.034097 
L 146.108646 239.02709 
L 146.695245 239.02709 
L 146.695245 238.523586 
L 147.264104 238.523586 
L 147.264104 237.516579 
L 148.200973 237.516579 
L 148.200973 235.502566 
L 148.652472 235.502566 
L 148.652472 234.495559 
L 149.020615 234.495559 
L 149.020615 233.488552 
L 149.165879 233.488552 
L 149.238092 230.971034 
L 150.693856 230.971034 
L 150.760445 229.964028 
L 151.41369 229.964028 
L 151.41369 228.957021 
L 151.857828 228.957021 
L 151.857828 227.950014 
L 151.982822 227.950014 
L 151.982822 226.439503 
L 155.18278 226.439503 
L 155.18278 225.936 
L 156.005274 225.936 
L 156.005274 224.928993 
L 156.155566 224.928993 
L 156.155566 223.921986 
L 156.403417 223.921986 
L 156.403417 221.404469 
L 156.88953 221.404469 
L 156.937458 219.390455 
L 157.363398 219.390455 
L 157.363398 218.383448 
L 157.779907 218.383448 
L 157.779907 217.879945 
L 158.410018 217.879945 
L 158.410018 216.872938 
L 159.232748 216.872938 
L 159.232748 216.369434 
L 159.775628 216.369434 
L 159.775628 215.362428 
L 160.620781 215.362428 
L 160.620781 214.355421 
L 160.97168 214.355421 
L 160.97168 213.348414 
L 161.986735 213.348414 
L 161.986735 212.341407 
L 162.205054 212.341407 
L 162.205054 211.3344 
L 162.456597 211.3344 
L 162.456597 210.830897 
L 163.22595 210.830897 
L 163.22595 209.320386 
L 164.548924 209.320386 
L 164.548924 208.816883 
L 165.330896 208.816883 
L 165.330896 207.809876 
L 166.286609 207.809876 
L 166.286609 206.802869 
L 166.83191 206.802869 
L 166.83191 205.795862 
L 167.769923 205.795862 
L 167.769923 205.292359 
L 168.063651 205.292359 
L 168.063651 204.788855 
L 168.274427 204.788855 
L 168.274427 204.285352 
L 168.508761 204.285352 
L 168.508761 203.278345 
L 168.637696 203.278345 
L 168.637696 202.271338 
L 168.765753 202.271338 
L 168.765753 201.767834 
L 169.662898 201.767834 
L 169.662898 201.264331 
L 170.167131 201.264331 
L 170.167131 200.257324 
L 170.887612 200.257324 
L 170.887612 199.753821 
L 171.023928 199.753821 
L 171.023928 199.250317 
L 171.159263 199.250317 
L 171.159263 198.24331 
L 171.82171 198.24331 
L 171.82171 197.236303 
L 172.461621 197.236303 
L 172.461621 196.229297 
L 172.670177 196.229297 
L 172.732295 194.215283 
L 172.835373 194.215283 
L 172.835373 192.704772 
L 172.978738 192.704772 
L 173.060174 191.697766 
L 173.242125 191.697766 
L 173.242125 191.194262 
L 174.449906 191.194262 
L 174.449906 190.690759 
L 174.7494 190.690759 
L 174.805028 189.683752 
L 175.171736 189.683752 
L 175.189886 188.173241 
L 175.316441 188.173241 
L 175.316441 187.166234 
L 175.51361 187.166234 
L 175.567027 186.159228 
L 175.655719 186.159228 
L 175.655719 185.152221 
L 175.814319 185.152221 
L 175.814319 184.145214 
L 176.888582 184.145214 
L 176.888582 183.138207 
L 178.262532 183.138207 
L 178.277932 182.1312 
L 179.456369 182.1312 
L 179.514118 181.124193 
L 179.629086 181.124193 
L 179.629086 180.62069 
L 179.913468 180.62069 
L 179.913468 180.117186 
L 180.263006 180.117186 
L 180.263006 179.110179 
L 180.59256 179.110179 
L 180.59256 178.103172 
L 180.741697 178.103172 
L 180.741697 177.599669 
L 180.956535 177.599669 
L 181.049761 175.585655 
L 181.274261 175.585655 
L 181.365929 174.075145 
L 181.547935 174.075145 
L 181.651154 173.068138 
L 182.370637 173.068138 
L 182.370637 172.564634 
L 182.604477 172.564634 
L 182.604477 172.061131 
L 183.051672 172.061131 
L 183.135094 169.543614 
L 183.289045 169.543614 
L 183.289045 169.04011 
L 183.697374 169.04011 
L 183.697374 168.033103 
L 184.063102 168.033103 
L 184.063102 167.5296 
L 184.310478 167.5296 
L 184.310478 167.026097 
L 184.598699 167.026097 
L 184.598699 166.01909 
L 185.140856 166.01909 
L 185.140856 165.515586 
L 185.427251 165.515586 
L 185.427251 165.012083 
L 185.615787 165.012083 
L 185.636619 164.005076 
L 186.038305 164.005076 
L 186.089188 162.494566 
L 186.160194 162.494566 
L 186.200649 160.480552 
L 186.361605 160.480552 
L 186.361605 159.977048 
L 186.8266 159.977048 
L 186.8266 159.473545 
L 360.8064 159.473545 
L 360.8064 159.473545 
" style="fill: none; stroke: #ff7500; stroke-width: 1.5; stroke-linecap: square"/>
   </g>
   <g id="line2d_41">
    <defs>
     <path id="md4fa30ccf4" d="M 0 -6 
L -1.347084 -1.854102 
L -5.706339 -1.854102 
L -2.179628 0.708204 
L -3.526712 4.854102 
L -0 2.291796 
L 3.526712 4.854102 
L 2.179628 0.708204 
L 5.706339 -1.854102 
L 1.347084 -1.854102 
z
" style="stroke: #ff7500; stroke-width: 1.5; stroke-linejoin: bevel"/>
    </defs>
    <g>
     <use xlink:href="#md4fa30ccf4" x="131.002163" y="261.684745" style="fill-opacity: 0; stroke: #ff7500; stroke-width: 1.5; stroke-linejoin: bevel"/>
     <use xlink:href="#md4fa30ccf4" x="172.732295" y="195.22229" style="fill-opacity: 0; stroke: #ff7500; stroke-width: 1.5; stroke-linejoin: bevel"/>
     <use xlink:href="#md4fa30ccf4" x="186.8266" y="159.977048" style="fill-opacity: 0; stroke: #ff7500; stroke-width: 1.5; stroke-linejoin: bevel"/>
     <use xlink:href="#md4fa30ccf4" x="186.8266" y="159.473545" style="fill-opacity: 0; stroke: #ff7500; stroke-width: 1.5; stroke-linejoin: bevel"/>
     <use xlink:href="#md4fa30ccf4" x="186.8266" y="159.473545" style="fill-opacity: 0; stroke: #ff7500; stroke-width: 1.5; stroke-linejoin: bevel"/>
     <use xlink:href="#md4fa30ccf4" x="360.8064" y="159.473545" style="fill-opacity: 0; stroke: #ff7500; stroke-width: 1.5; stroke-linejoin: bevel"/>
    </g>
   </g>
   <g id="line2d_42">
    <path style="fill: none; stroke: #ff7500; stroke-width: 1.5; stroke-linecap: square"/>
    <g/>
   </g>
   <g id="line2d_43">
    <path d="M 187.479644 159.473545 
" clip-path="url(#pd2a7949ae1)" style="fill: none; stroke: #ff7500; stroke-width: 1.5; stroke-linecap: square"/>
    <defs>
     <path id="m7adb4309a7" d="M -12 12 
L 12 -12 
M -12 -12 
L 12 12 
" style="stroke: #ff7500"/>
    </defs>
    <g clip-path="url(#pd2a7949ae1)">
     <use xlink:href="#m7adb4309a7" x="187.479644" y="159.473545" style="fill: #ff7500; stroke: #ff7500"/>
    </g>
   </g>
   <g id="line2d_44">
    <defs>
     <path id="m0e76c84670" d="M 0 1.5 
C 0.397805 1.5 0.77937 1.341951 1.06066 1.06066 
C 1.341951 0.77937 1.5 0.397805 1.5 0 
C 1.5 -0.397805 1.341951 -0.77937 1.06066 -1.06066 
C 0.77937 -1.341951 0.397805 -1.5 0 -1.5 
C -0.397805 -1.5 -0.77937 -1.341951 -1.06066 -1.06066 
C -1.341951 -0.77937 -1.5 -0.397805 -1.5 0 
C -1.5 0.397805 -1.341951 0.77937 -1.06066 1.06066 
C -0.77937 1.341951 -0.397805 1.5 0 1.5 
z
" style="stroke: #6495ed"/>
    </defs>
    <g>
     <use xlink:href="#m0e76c84670" x="186.580694" y="153.935007" style="fill: #6495ed; stroke: #6495ed"/>
     <use xlink:href="#m0e76c84670" x="186.580694" y="153.935007" style="fill: #6495ed; stroke: #6495ed"/>
    </g>
   </g>
   <g id="line2d_45">
    <path d="M 44.560826 298.944 
L 44.560826 287.866924 
L 57.6 287.866924 
L 57.6 280.817876 
L 83.678349 280.817876 
L 83.678349 278.300359 
L 85.894031 278.300359 
L 85.894031 276.286345 
L 96.717523 276.286345 
L 96.717523 271.25131 
L 102.708132 271.25131 
L 102.708132 268.733793 
L 103.544339 268.733793 
L 103.544339 267.726786 
L 107.244765 267.726786 
L 107.244765 266.719779 
L 107.904887 266.719779 
L 107.904887 265.209269 
L 108.542628 265.209269 
L 108.542628 263.698759 
L 111.442442 263.698759 
L 111.442442 263.195255 
L 116.988079 263.195255 
L 116.988079 259.167228 
L 117.384126 259.167228 
L 117.384126 258.663724 
L 117.772007 258.663724 
L 117.772007 257.153214 
L 118.152051 257.153214 
L 118.152051 256.146207 
L 119.24818 256.146207 
L 119.24818 251.614676 
L 119.599808 251.614676 
L 119.599808 249.600662 
L 120.616896 249.600662 
L 120.616896 248.593655 
L 121.581803 248.593655 
L 121.581803 247.586648 
L 124.210942 247.586648 
L 124.210942 246.579641 
L 125.011554 246.579641 
L 125.011554 244.565628 
L 125.779479 244.565628 
L 125.779479 242.04811 
L 126.274549 242.04811 
L 126.274549 241.544607 
L 127.686077 241.544607 
L 127.686077 240.5376 
L 128.354013 240.5376 
L 128.354013 240.034097 
L 131.002163 240.034097 
L 131.002163 239.02709 
L 132.109044 239.02709 
L 132.109044 237.013076 
L 132.984158 237.013076 
L 132.984158 234.999062 
L 133.154399 234.999062 
L 133.154399 233.992055 
L 134.620977 233.992055 
L 134.620977 232.481545 
L 135.388902 232.481545 
L 135.388902 231.474538 
L 135.687504 231.474538 
L 135.687504 229.964028 
L 137.520791 229.964028 
L 137.520791 228.453517 
L 137.787626 228.453517 
L 137.787626 227.950014 
L 140.032723 227.950014 
L 140.032723 227.44651 
L 140.49723 227.44651 
L 140.49723 225.936 
L 140.611586 225.936 
L 140.611586 225.432497 
L 141.062184 225.432497 
L 141.062184 224.42549 
L 141.393187 224.42549 
L 141.393187 223.921986 
L 141.825656 223.921986 
L 141.825656 222.914979 
L 142.559347 222.914979 
L 142.559347 221.404469 
L 143.462475 221.404469 
L 143.462475 220.397462 
L 144.136106 220.397462 
L 144.136106 219.893959 
L 145.590864 219.893959 
L 145.590864 219.390455 
L 147.183884 219.390455 
L 147.183884 218.886952 
L 147.423525 218.886952 
L 147.423525 218.383448 
L 148.726679 218.383448 
L 148.726679 216.369434 
L 149.453084 216.369434 
L 149.453084 215.865931 
L 150.083698 215.865931 
L 150.083698 214.858924 
L 150.958812 214.858924 
L 150.958812 213.851917 
L 151.220087 213.851917 
L 151.284843 211.837903 
L 153.536404 211.837903 
L 153.536404 210.327393 
L 153.707679 210.327393 
L 153.707679 209.320386 
L 154.04562 209.320386 
L 154.04562 208.816883 
L 155.339761 208.816883 
L 155.339761 208.313379 
L 156.501649 208.313379 
L 156.501649 207.306372 
L 156.745011 207.306372 
L 156.745011 206.299366 
L 157.080512 206.299366 
L 157.080512 205.795862 
L 157.962102 205.795862 
L 157.962102 205.292359 
L 158.321284 205.292359 
L 158.410018 203.781848 
L 158.760826 203.781848 
L 158.760826 202.774841 
L 160.061585 202.774841 
L 160.061585 201.264331 
L 160.502345 201.264331 
L 160.502345 200.257324 
L 160.738476 200.257324 
L 160.738476 199.753821 
L 160.97168 199.753821 
L 160.97168 198.746814 
L 161.391854 198.746814 
L 161.467251 196.7328 
L 162.349204 196.7328 
L 162.38507 195.22229 
L 163.865975 195.22229 
L 163.865975 194.718786 
L 163.997986 194.718786 
L 163.997986 194.215283 
L 164.129077 194.215283 
L 164.129077 193.711779 
L 165.422585 193.711779 
L 165.51383 192.704772 
L 165.604634 192.704772 
L 165.604634 192.201269 
L 166.022686 192.201269 
L 166.022686 191.194262 
L 166.746854 191.194262 
L 166.8036 189.683752 
L 168.326754 189.683752 
L 168.430973 188.676745 
L 168.456938 188.676745 
L 168.456938 188.173241 
L 168.867575 188.173241 
L 168.867575 187.669738 
L 170.565646 187.669738 
L 170.565646 187.166234 
L 170.841952 187.166234 
L 170.887612 185.655724 
L 171.537509 185.655724 
L 171.537509 184.648717 
L 171.756506 184.648717 
L 171.756506 184.145214 
L 171.9083 184.145214 
L 171.9083 183.138207 
L 172.186995 183.138207 
L 172.186995 182.634703 
L 172.711612 182.634703 
L 172.711612 181.627697 
L 172.896949 181.627697 
L 172.896949 181.124193 
L 173.060174 181.124193 
L 173.060174 180.62069 
L 173.362455 180.62069 
L 173.362455 180.117186 
L 173.56131 180.117186 
L 173.56131 179.613683 
L 173.855707 179.613683 
L 173.894614 177.599669 
L 174.126381 177.599669 
L 174.126381 177.096166 
L 174.317363 177.096166 
L 174.317363 176.089159 
L 174.897377 176.089159 
L 174.897377 175.082152 
L 175.316441 175.082152 
L 175.316441 174.578648 
L 175.567027 174.578648 
L 175.567027 174.075145 
L 175.831859 174.075145 
L 175.88438 172.061131 
L 176.655103 172.061131 
L 176.722107 171.054124 
L 177.475981 171.054124 
L 177.475981 170.550621 
L 177.794559 170.550621 
L 177.810347 168.536607 
L 177.920494 168.536607 
L 177.920494 168.033103 
L 178.704102 168.033103 
L 178.734177 166.522593 
L 179.06186 166.522593 
L 179.06186 166.01909 
L 179.383934 166.01909 
L 179.383934 165.515586 
L 179.557313 165.515586 
L 179.557313 164.508579 
L 179.800231 164.508579 
L 179.800231 164.005076 
L 180.809098 164.005076 
L 180.809098 163.501572 
L 181.023172 163.501572 
L 181.023172 162.998069 
L 181.287383 162.998069 
L 181.313602 161.487559 
L 181.728198 161.487559 
L 181.728198 160.984055 
L 182.008023 160.984055 
L 182.008023 160.480552 
L 182.555488 160.480552 
L 182.616704 159.473545 
L 182.799165 159.473545 
L 182.799165 158.970041 
L 182.919829 158.970041 
L 182.919829 158.466538 
L 183.789475 158.466538 
L 183.789475 157.963034 
L 183.949574 157.963034 
L 184.040451 156.452524 
L 184.198438 156.452524 
L 184.198438 155.949021 
L 185.584495 155.949021 
L 185.584495 154.942014 
L 186.42161 154.942014 
L 186.42161 154.43851 
L 186.580694 154.43851 
L 186.580694 153.935007 
L 360.8064 153.935007 
L 360.8064 153.935007 
" style="fill: none; stroke: #6495ed; stroke-width: 1.5; stroke-linecap: square"/>
   </g>
   <g id="line2d_46">
    <defs>
     <path id="m68c98614ea" d="M -0 6 
L 6 -6 
L -6 -6 
z
" style="stroke: #6495ed; stroke-width: 1.5; stroke-linejoin: miter"/>
    </defs>
    <g>
     <use xlink:href="#m68c98614ea" x="108.542628" y="265.209269" style="fill-opacity: 0; stroke: #6495ed; stroke-width: 1.5; stroke-linejoin: miter"/>
     <use xlink:href="#m68c98614ea" x="174.317363" y="177.096166" style="fill-opacity: 0; stroke: #6495ed; stroke-width: 1.5; stroke-linejoin: miter"/>
     <use xlink:href="#m68c98614ea" x="186.580694" y="154.43851" style="fill-opacity: 0; stroke: #6495ed; stroke-width: 1.5; stroke-linejoin: miter"/>
     <use xlink:href="#m68c98614ea" x="186.580694" y="153.935007" style="fill-opacity: 0; stroke: #6495ed; stroke-width: 1.5; stroke-linejoin: miter"/>
     <use xlink:href="#m68c98614ea" x="186.580694" y="153.935007" style="fill-opacity: 0; stroke: #6495ed; stroke-width: 1.5; stroke-linejoin: miter"/>
     <use xlink:href="#m68c98614ea" x="360.8064" y="153.935007" style="fill-opacity: 0; stroke: #6495ed; stroke-width: 1.5; stroke-linejoin: miter"/>
    </g>
   </g>
   <g id="line2d_47">
    <path style="fill: none; stroke: #6495ed; stroke-width: 1.5; stroke-linecap: square"/>
    <g/>
   </g>
   <g id="line2d_48">
    <path d="M 187.479644 153.935007 
" clip-path="url(#pd2a7949ae1)" style="fill: none; stroke: #6495ed; stroke-width: 1.5; stroke-linecap: square"/>
    <defs>
     <path id="m8faec6e017" d="M -12 12 
L 12 -12 
M -12 -12 
L 12 12 
" style="stroke: #6495ed"/>
    </defs>
    <g clip-path="url(#pd2a7949ae1)">
     <use xlink:href="#m8faec6e017" x="187.479644" y="153.935007" style="fill: #6495ed; stroke: #6495ed"/>
    </g>
   </g>
   <g id="line2d_49">
    <path d="M 360.8064 186.159228 
L 380.514816 293.10336 
" style="fill: none; stroke: #000080; stroke-width: 1.5; stroke-linecap: square"/>
    <g>
     <use xlink:href="#mae7a8d8489" x="360.8064" y="186.159228" style="fill-opacity: 0; stroke: #000080; stroke-width: 1.5"/>
     <use xlink:href="#mae7a8d8489" x="380.514816" y="293.10336" style="fill-opacity: 0; stroke: #000080; stroke-width: 1.5"/>
    </g>
   </g>
   <g id="line2d_50">
    <path d="M 360.8064 162.998069 
L 380.514816 199.65312 
" style="fill: none; stroke: #ff00ff; stroke-width: 1.5; stroke-linecap: square"/>
    <g>
     <use xlink:href="#m06020729d4" x="360.8064" y="162.998069" style="fill-opacity: 0; stroke: #ff00ff; stroke-width: 1.5; stroke-linejoin: miter"/>
     <use xlink:href="#m06020729d4" x="380.514816" y="199.65312" style="fill-opacity: 0; stroke: #ff00ff; stroke-width: 1.5; stroke-linejoin: miter"/>
    </g>
   </g>
   <g id="line2d_51">
    <path d="M 360.8064 159.473545 
L 380.514816 106.20288 
" style="fill: none; stroke: #ff7500; stroke-width: 1.5; stroke-linecap: square"/>
    <g>
     <use xlink:href="#md4fa30ccf4" x="360.8064" y="159.473545" style="fill-opacity: 0; stroke: #ff7500; stroke-width: 1.5; stroke-linejoin: bevel"/>
     <use xlink:href="#md4fa30ccf4" x="380.514816" y="106.20288" style="fill-opacity: 0; stroke: #ff7500; stroke-width: 1.5; stroke-linejoin: bevel"/>
    </g>
   </g>
   <g id="line2d_52">
    <path d="M 360.8064 153.935007 
L 380.514816 12.75264 
" style="fill: none; stroke: #6495ed; stroke-width: 1.5; stroke-linecap: square"/>
    <g>
     <use xlink:href="#m68c98614ea" x="360.8064" y="153.935007" style="fill-opacity: 0; stroke: #6495ed; stroke-width: 1.5; stroke-linejoin: miter"/>
     <use xlink:href="#m68c98614ea" x="380.514816" y="12.75264" style="fill-opacity: 0; stroke: #6495ed; stroke-width: 1.5; stroke-linejoin: miter"/>
    </g>
   </g>
   <g id="line2d_53">
    <path d="M 360.8064 298.944 
L 360.8064 6.912 
" style="fill: none; stroke: #000000; stroke-width: 1.5; stroke-linecap: square"/>
   </g>
   <g id="patch_3">
    <path d="M 57.6 298.944 
L 360.8064 298.944 
" style="fill: none; stroke: #000000; stroke-width: 0.8; stroke-linejoin: miter; stroke-linecap: square"/>
   </g>
   <g id="patch_4">
    <path d="M 57.6 6.912 
L 360.8064 6.912 
" style="fill: none; stroke: #000000; stroke-width: 0.8; stroke-linejoin: miter; stroke-linecap: square"/>
   </g>
   <g id="text_13">
    <!-- f22 -->
    <g transform="translate(386.578944 296.966485) scale(0.14 -0.14)">
     <use xlink:href="#DejaVuSans-66"/>
     <use xlink:href="#DejaVuSans-32" x="35.205078"/>
     <use xlink:href="#DejaVuSans-32" x="98.828125"/>
    </g>
   </g>
   <g id="text_14">
    <!-- f23 -->
    <g transform="translate(386.578944 203.516245) scale(0.14 -0.14)">
     <defs>
      <path id="DejaVuSans-33" d="M 2597 2516 
Q 3050 2419 3304 2112 
Q 3559 1806 3559 1356 
Q 3559 666 3084 287 
Q 2609 -91 1734 -91 
Q 1441 -91 1130 -33 
Q 819 25 488 141 
L 488 750 
Q 750 597 1062 519 
Q 1375 441 1716 441 
Q 2309 441 2620 675 
Q 2931 909 2931 1356 
Q 2931 1769 2642 2001 
Q 2353 2234 1838 2234 
L 1294 2234 
L 1294 2753 
L 1863 2753 
Q 2328 2753 2575 2939 
Q 2822 3125 2822 3475 
Q 2822 3834 2567 4026 
Q 2313 4219 1838 4219 
Q 1578 4219 1281 4162 
Q 984 4106 628 3988 
L 628 4550 
Q 988 4650 1302 4700 
Q 1616 4750 1894 4750 
Q 2613 4750 3031 4423 
Q 3450 4097 3450 3541 
Q 3450 3153 3228 2886 
Q 3006 2619 2597 2516 
z
" transform="scale(0.015625)"/>
     </defs>
     <use xlink:href="#DejaVuSans-66"/>
     <use xlink:href="#DejaVuSans-32" x="35.205078"/>
     <use xlink:href="#DejaVuSans-33" x="98.828125"/>
    </g>
   </g>
   <g id="text_15">
    <!-- f29 -->
    <g transform="translate(386.578944 110.066005) scale(0.14 -0.14)">
     <defs>
      <path id="DejaVuSans-39" d="M 703 97 
L 703 672 
Q 941 559 1184 500 
Q 1428 441 1663 441 
Q 2288 441 2617 861 
Q 2947 1281 2994 2138 
Q 2813 1869 2534 1725 
Q 2256 1581 1919 1581 
Q 1219 1581 811 2004 
Q 403 2428 403 3163 
Q 403 3881 828 4315 
Q 1253 4750 1959 4750 
Q 2769 4750 3195 4129 
Q 3622 3509 3622 2328 
Q 3622 1225 3098 567 
Q 2575 -91 1691 -91 
Q 1453 -91 1209 -44 
Q 966 3 703 97 
z
M 1959 2075 
Q 2384 2075 2632 2365 
Q 2881 2656 2881 3163 
Q 2881 3666 2632 3958 
Q 2384 4250 1959 4250 
Q 1534 4250 1286 3958 
Q 1038 3666 1038 3163 
Q 1038 2656 1286 2365 
Q 1534 2075 1959 2075 
z
" transform="scale(0.015625)"/>
     </defs>
     <use xlink:href="#DejaVuSans-66"/>
     <use xlink:href="#DejaVuSans-32" x="35.205078"/>
     <use xlink:href="#DejaVuSans-39" x="98.828125"/>
    </g>
   </g>
   <g id="text_16">
    <!-- f30 -->
    <g transform="translate(386.578944 16.615765) scale(0.14 -0.14)">
     <use xlink:href="#DejaVuSans-66"/>
     <use xlink:href="#DejaVuSans-33" x="35.205078"/>
     <use xlink:href="#DejaVuSans-30" x="98.828125"/>
    </g>
   </g>
   <g id="text_17">
    <!-- bbob-biobj -->
    <g transform="translate(60.632064 17.582726) scale(0.102 -0.102)">
     <defs>
      <path id="DejaVuSans-62" d="M 3116 1747 
Q 3116 2381 2855 2742 
Q 2594 3103 2138 3103 
Q 1681 3103 1420 2742 
Q 1159 2381 1159 1747 
Q 1159 1113 1420 752 
Q 1681 391 2138 391 
Q 2594 391 2855 752 
Q 3116 1113 3116 1747 
z
M 1159 2969 
Q 1341 3281 1617 3432 
Q 1894 3584 2278 3584 
Q 2916 3584 3314 3078 
Q 3713 2572 3713 1747 
Q 3713 922 3314 415 
Q 2916 -91 2278 -91 
Q 1894 -91 1617 61 
Q 1341 213 1159 525 
L 1159 0 
L 581 0 
L 581 4863 
L 1159 4863 
L 1159 2969 
z
" transform="scale(0.015625)"/>
      <path id="DejaVuSans-6a" d="M 603 3500 
L 1178 3500 
L 1178 -63 
Q 1178 -731 923 -1031 
Q 669 -1331 103 -1331 
L -116 -1331 
L -116 -844 
L 38 -844 
Q 366 -844 484 -692 
Q 603 -541 603 -63 
L 603 3500 
z
M 603 4863 
L 1178 4863 
L 1178 4134 
L 603 4134 
L 603 4863 
z
" transform="scale(0.015625)"/>
     </defs>
     <use xlink:href="#DejaVuSans-62"/>
     <use xlink:href="#DejaVuSans-62" x="63.476562"/>
     <use xlink:href="#DejaVuSans-6f" x="126.953125"/>
     <use xlink:href="#DejaVuSans-62" x="188.134766"/>
     <use xlink:href="#DejaVuSans-2d" x="251.611328"/>
     <use xlink:href="#DejaVuSans-62" x="287.695312"/>
     <use xlink:href="#DejaVuSans-69" x="351.171875"/>
     <use xlink:href="#DejaVuSans-6f" x="378.955078"/>
     <use xlink:href="#DejaVuSans-62" x="440.136719"/>
     <use xlink:href="#DejaVuSans-6a" x="503.613281"/>
    </g>
    <!-- 2-moderate 3-ill-conditioned, 2-D -->
    <g transform="translate(60.632064 29.004495) scale(0.102 -0.102)">
     <defs>
      <path id="DejaVuSans-44" d="M 1259 4147 
L 1259 519 
L 2022 519 
Q 2988 519 3436 956 
Q 3884 1394 3884 2338 
Q 3884 3275 3436 3711 
Q 2988 4147 2022 4147 
L 1259 4147 
z
M 628 4666 
L 1925 4666 
Q 3281 4666 3915 4102 
Q 4550 3538 4550 2338 
Q 4550 1131 3912 565 
Q 3275 0 1925 0 
L 628 0 
L 628 4666 
z
" transform="scale(0.015625)"/>
     </defs>
     <use xlink:href="#DejaVuSans-32"/>
     <use xlink:href="#DejaVuSans-2d" x="63.623047"/>
     <use xlink:href="#DejaVuSans-6d" x="99.707031"/>
     <use xlink:href="#DejaVuSans-6f" x="197.119141"/>
     <use xlink:href="#DejaVuSans-64" x="258.300781"/>
     <use xlink:href="#DejaVuSans-65" x="321.777344"/>
     <use xlink:href="#DejaVuSans-72" x="383.300781"/>
     <use xlink:href="#DejaVuSans-61" x="424.414062"/>
     <use xlink:href="#DejaVuSans-74" x="485.693359"/>
     <use xlink:href="#DejaVuSans-65" x="524.902344"/>
     <use xlink:href="#DejaVuSans-20" x="586.425781"/>
     <use xlink:href="#DejaVuSans-33" x="618.212891"/>
     <use xlink:href="#DejaVuSans-2d" x="681.835938"/>
     <use xlink:href="#DejaVuSans-69" x="717.919922"/>
     <use xlink:href="#DejaVuSans-6c" x="745.703125"/>
     <use xlink:href="#DejaVuSans-6c" x="773.486328"/>
     <use xlink:href="#DejaVuSans-2d" x="801.269531"/>
     <use xlink:href="#DejaVuSans-63" x="837.353516"/>
     <use xlink:href="#DejaVuSans-6f" x="892.333984"/>
     <use xlink:href="#DejaVuSans-6e" x="953.515625"/>
     <use xlink:href="#DejaVuSans-64" x="1016.894531"/>
     <use xlink:href="#DejaVuSans-69" x="1080.371094"/>
     <use xlink:href="#DejaVuSans-74" x="1108.154297"/>
     <use xlink:href="#DejaVuSans-69" x="1147.363281"/>
     <use xlink:href="#DejaVuSans-6f" x="1175.146484"/>
     <use xlink:href="#DejaVuSans-6e" x="1236.328125"/>
     <use xlink:href="#DejaVuSans-65" x="1299.707031"/>
     <use xlink:href="#DejaVuSans-64" x="1361.230469"/>
     <use xlink:href="#DejaVuSans-2c" x="1424.707031"/>
     <use xlink:href="#DejaVuSans-20" x="1456.494141"/>
     <use xlink:href="#DejaVuSans-32" x="1488.28125"/>
     <use xlink:href="#DejaVuSans-2d" x="1551.904297"/>
     <use xlink:href="#DejaVuSans-44" x="1587.988281"/>
    </g>
    <!-- 58 targets: 1..-1.0e-4 -->
    <g transform="translate(60.632064 40.426264) scale(0.102 -0.102)">
     <defs>
      <path id="DejaVuSans-35" d="M 691 4666 
L 3169 4666 
L 3169 4134 
L 1269 4134 
L 1269 2991 
Q 1406 3038 1543 3061 
Q 1681 3084 1819 3084 
Q 2600 3084 3056 2656 
Q 3513 2228 3513 1497 
Q 3513 744 3044 326 
Q 2575 -91 1722 -91 
Q 1428 -91 1123 -41 
Q 819 9 494 109 
L 494 744 
Q 775 591 1075 516 
Q 1375 441 1709 441 
Q 2250 441 2565 725 
Q 2881 1009 2881 1497 
Q 2881 1984 2565 2268 
Q 2250 2553 1709 2553 
Q 1456 2553 1204 2497 
Q 953 2441 691 2322 
L 691 4666 
z
" transform="scale(0.015625)"/>
      <path id="DejaVuSans-3a" d="M 750 794 
L 1409 794 
L 1409 0 
L 750 0 
L 750 794 
z
M 750 3309 
L 1409 3309 
L 1409 2516 
L 750 2516 
L 750 3309 
z
" transform="scale(0.015625)"/>
     </defs>
     <use xlink:href="#DejaVuSans-35"/>
     <use xlink:href="#DejaVuSans-38" x="63.623047"/>
     <use xlink:href="#DejaVuSans-20" x="127.246094"/>
     <use xlink:href="#DejaVuSans-74" x="159.033203"/>
     <use xlink:href="#DejaVuSans-61" x="198.242188"/>
     <use xlink:href="#DejaVuSans-72" x="259.521484"/>
     <use xlink:href="#DejaVuSans-67" x="298.884766"/>
     <use xlink:href="#DejaVuSans-65" x="362.361328"/>
     <use xlink:href="#DejaVuSans-74" x="423.884766"/>
     <use xlink:href="#DejaVuSans-73" x="463.09375"/>
     <use xlink:href="#DejaVuSans-3a" x="515.193359"/>
     <use xlink:href="#DejaVuSans-20" x="548.884766"/>
     <use xlink:href="#DejaVuSans-31" x="580.671875"/>
     <use xlink:href="#DejaVuSans-2e" x="644.294922"/>
     <use xlink:href="#DejaVuSans-2e" x="676.082031"/>
     <use xlink:href="#DejaVuSans-2d" x="707.869141"/>
     <use xlink:href="#DejaVuSans-31" x="743.953125"/>
     <use xlink:href="#DejaVuSans-2e" x="807.576172"/>
     <use xlink:href="#DejaVuSans-30" x="839.363281"/>
     <use xlink:href="#DejaVuSans-65" x="902.986328"/>
     <use xlink:href="#DejaVuSans-2d" x="964.509766"/>
     <use xlink:href="#DejaVuSans-34" x="1000.59375"/>
    </g>
    <!-- 10 instances -->
    <g transform="translate(60.632064 51.848032) scale(0.102 -0.102)">
     <use xlink:href="#DejaVuSans-31"/>
     <use xlink:href="#DejaVuSans-30" x="63.623047"/>
     <use xlink:href="#DejaVuSans-20" x="127.246094"/>
     <use xlink:href="#DejaVuSans-69" x="159.033203"/>
     <use xlink:href="#DejaVuSans-6e" x="186.816406"/>
     <use xlink:href="#DejaVuSans-73" x="250.195312"/>
     <use xlink:href="#DejaVuSans-74" x="302.294922"/>
     <use xlink:href="#DejaVuSans-61" x="341.503906"/>
     <use xlink:href="#DejaVuSans-6e" x="402.783203"/>
     <use xlink:href="#DejaVuSans-63" x="466.162109"/>
     <use xlink:href="#DejaVuSans-65" x="521.142578"/>
     <use xlink:href="#DejaVuSans-73" x="582.666016"/>
    </g>
   </g>
   <g id="text_18">
    <!-- v2.6, hv-hash=ff0e71e8cd978373 -->
    <g style="fill: #808080" transform="translate(123.707887 293.943992) scale(0.1 -0.1)">
     <defs>
      <path id="DejaVuSans-68" d="M 3513 2113 
L 3513 0 
L 2938 0 
L 2938 2094 
Q 2938 2591 2744 2837 
Q 2550 3084 2163 3084 
Q 1697 3084 1428 2787 
Q 1159 2491 1159 1978 
L 1159 0 
L 581 0 
L 581 4863 
L 1159 4863 
L 1159 2956 
Q 1366 3272 1645 3428 
Q 1925 3584 2291 3584 
Q 2894 3584 3203 3211 
Q 3513 2838 3513 2113 
z
" transform="scale(0.015625)"/>
      <path id="DejaVuSans-3d" d="M 678 2906 
L 4684 2906 
L 4684 2381 
L 678 2381 
L 678 2906 
z
M 678 1631 
L 4684 1631 
L 4684 1100 
L 678 1100 
L 678 1631 
z
" transform="scale(0.015625)"/>
      <path id="DejaVuSans-37" d="M 525 4666 
L 3525 4666 
L 3525 4397 
L 1831 0 
L 1172 0 
L 2766 4134 
L 525 4134 
L 525 4666 
z
" transform="scale(0.015625)"/>
     </defs>
     <use xlink:href="#DejaVuSans-76"/>
     <use xlink:href="#DejaVuSans-32" x="59.179688"/>
     <use xlink:href="#DejaVuSans-2e" x="122.802734"/>
     <use xlink:href="#DejaVuSans-36" x="154.589844"/>
     <use xlink:href="#DejaVuSans-2c" x="218.212891"/>
     <use xlink:href="#DejaVuSans-20" x="250"/>
     <use xlink:href="#DejaVuSans-68" x="281.787109"/>
     <use xlink:href="#DejaVuSans-76" x="345.166016"/>
     <use xlink:href="#DejaVuSans-2d" x="401.720703"/>
     <use xlink:href="#DejaVuSans-68" x="437.804688"/>
     <use xlink:href="#DejaVuSans-61" x="501.183594"/>
     <use xlink:href="#DejaVuSans-73" x="562.462891"/>
     <use xlink:href="#DejaVuSans-68" x="614.5625"/>
     <use xlink:href="#DejaVuSans-3d" x="677.941406"/>
     <use xlink:href="#DejaVuSans-66" x="761.730469"/>
     <use xlink:href="#DejaVuSans-66" x="796.935547"/>
     <use xlink:href="#DejaVuSans-30" x="832.140625"/>
     <use xlink:href="#DejaVuSans-65" x="895.763672"/>
     <use xlink:href="#DejaVuSans-37" x="957.287109"/>
     <use xlink:href="#DejaVuSans-31" x="1020.910156"/>
     <use xlink:href="#DejaVuSans-65" x="1084.533203"/>
     <use xlink:href="#DejaVuSans-38" x="1146.056641"/>
     <use xlink:href="#DejaVuSans-63" x="1209.679688"/>
     <use xlink:href="#DejaVuSans-64" x="1264.660156"/>
     <use xlink:href="#DejaVuSans-39" x="1328.136719"/>
     <use xlink:href="#DejaVuSans-37" x="1391.759766"/>
     <use xlink:href="#DejaVuSans-38" x="1455.382812"/>
     <use xlink:href="#DejaVuSans-33" x="1519.005859"/>
     <use xlink:href="#DejaVuSans-37" x="1582.628906"/>
     <use xlink:href="#DejaVuSans-33" x="1646.251953"/>
    </g>
   </g>
  </g>
 </g>
 <defs>
  <clipPath id="pd2a7949ae1">
   <rect x="57.6" y="6.912" width="303.2064" height="292.032"/>
  </clipPath>
 </defs>
</svg>
