<?xml version="1.0" encoding="utf-8" standalone="no"?>
<!DOCTYPE svg PUBLIC "-//W3C//DTD SVG 1.1//EN"
  "http://www.w3.org/Graphics/SVG/1.1/DTD/svg11.dtd">
<svg xmlns:xlink="http://www.w3.org/1999/xlink" width="460.8pt" height="345.6pt" viewBox="0 0 460.8 345.6" xmlns="http://www.w3.org/2000/svg" version="1.1">
 <metadata>
  <rdf:RDF xmlns:dc="http://purl.org/dc/elements/1.1/" xmlns:cc="http://creativecommons.org/ns#" xmlns:rdf="http://www.w3.org/1999/02/22-rdf-syntax-ns#">
   <cc:Work>
    <dc:type rdf:resource="http://purl.org/dc/dcmitype/StillImage"/>
    <dc:date>2023-02-13T15:00:14.157826</dc:date>
    <dc:format>image/svg+xml</dc:format>
    <dc:creator>
     <cc:Agent>
      <dc:title>Matplotlib v3.6.3, https://matplotlib.org/</dc:title>
     </cc:Agent>
    </dc:creator>
   </cc:Work>
  </rdf:RDF>
 </metadata>
 <defs>
  <style type="text/css">*{stroke-linejoin: round; stroke-linecap: butt}</style>
 </defs>
 <g id="figure_1">
  <g id="patch_1">
   <path d="M 0 345.6 
L 460.8 345.6 
L 460.8 0 
L 0 0 
z
" style="fill: #ffffff"/>
  </g>
  <g id="axes_1">
   <g id="patch_2">
    <path d="M 57.6 298.944 
L 360.8064 298.944 
L 360.8064 27.648 
L 57.6 27.648 
z
" style="fill: #ffffff"/>
   </g>
   <g id="line2d_1">
    <path d="M 14.2848 298.944 
L 14.2848 294.266483 
L 66.441498 294.266483 
L 66.441498 284.911448 
L 80.621116 284.911448 
L 80.621116 275.556414 
L 96.95121 275.556414 
L 96.95121 270.878897 
L 100.726138 270.878897 
L 100.726138 256.846345 
L 104.028784 256.846345 
L 104.028784 247.49131 
L 108.542628 247.49131 
L 108.542628 242.813793 
L 122.015696 242.813793 
L 122.015696 233.458759 
L 136.242113 233.458759 
L 136.242113 219.426207 
L 140.219905 219.426207 
L 140.219905 210.071172 
L 144.473374 210.071172 
L 144.473374 200.716138 
L 151.297768 200.716138 
L 151.297768 191.361103 
L 157.363398 191.361103 
L 157.363398 186.683586 
L 163.457521 186.683586 
L 163.457521 172.651034 
L 170.053063 172.651034 
L 170.053063 167.973517 
L 178.704102 167.973517 
L 178.704102 153.940966 
L 186.877347 153.940966 
L 186.877347 144.585931 
L 194.685181 144.585931 
L 194.685181 139.908414 
L 206.131712 139.908414 
L 206.131712 125.875862 
L 215.799456 125.875862 
L 215.799456 121.198345 
L 235.203592 121.198345 
L 235.203592 107.165793 
L 245.274607 107.165793 
L 245.274607 97.810759 
L 251.269492 97.810759 
L 251.269492 88.455724 
L 262.96212 88.455724 
L 262.96212 83.778207 
L 287.837111 83.778207 
L 287.837111 74.423172 
L 289.156906 74.423172 
L 289.156906 60.390621 
L 360.8064 60.390621 
" style="fill: none; stroke: #f5deb3; stroke-width: 4; stroke-linecap: square"/>
   </g>
   <g id="line2d_2">
    <defs>
     <path id="me5aa589bde" d="M -0 7.778175 
L 7.778175 0 
L 0 -7.778175 
L -7.778175 -0 
z
" style="stroke: #f5deb3; stroke-width: 1.5; stroke-linejoin: miter"/>
    </defs>
    <g>
     <use xlink:href="#me5aa589bde" x="66.441498" y="294.266483" style="fill: #f5deb3; stroke: #f5deb3; stroke-width: 1.5; stroke-linejoin: miter"/>
     <use xlink:href="#me5aa589bde" x="151.297768" y="200.716138" style="fill: #f5deb3; stroke: #f5deb3; stroke-width: 1.5; stroke-linejoin: miter"/>
     <use xlink:href="#me5aa589bde" x="186.877347" y="144.585931" style="fill: #f5deb3; stroke: #f5deb3; stroke-width: 1.5; stroke-linejoin: miter"/>
     <use xlink:href="#me5aa589bde" x="262.96212" y="83.778207" style="fill: #f5deb3; stroke: #f5deb3; stroke-width: 1.5; stroke-linejoin: miter"/>
     <use xlink:href="#me5aa589bde" x="289.156906" y="60.390621" style="fill: #f5deb3; stroke: #f5deb3; stroke-width: 1.5; stroke-linejoin: miter"/>
     <use xlink:href="#me5aa589bde" x="360.8064" y="60.390621" style="fill: #f5deb3; stroke: #f5deb3; stroke-width: 1.5; stroke-linejoin: miter"/>
    </g>
   </g>
   <g id="line2d_3">
    <path style="fill: none; stroke: #f5deb3; stroke-width: 4; stroke-linecap: square"/>
    <g/>
   </g>
   <g id="line2d_4">
    <path d="M 360.8064 60.390621 
L 380.514816 33.07392 
" style="fill: none; stroke: #f5deb3; stroke-width: 4; stroke-linecap: square"/>
    <g>
     <use xlink:href="#me5aa589bde" x="360.8064" y="60.390621" style="fill: #f5deb3; stroke: #f5deb3; stroke-width: 1.5; stroke-linejoin: miter"/>
     <use xlink:href="#me5aa589bde" x="380.514816" y="33.07392" style="fill: #f5deb3; stroke: #f5deb3; stroke-width: 1.5; stroke-linejoin: miter"/>
    </g>
   </g>
   <g id="matplotlib.axis_1">
    <g id="xtick_1">
     <g id="line2d_5">
      <path d="M 57.6 298.944 
L 57.6 27.648 
" clip-path="url(#pc8285602b6)" style="fill: none; stroke: #b0b0b0; stroke-width: 0.8; stroke-linecap: square"/>
     </g>
     <g id="line2d_6">
      <defs>
       <path id="m0b2a14725d" d="M 0 0 
L 0 3.5 
" style="stroke: #000000; stroke-width: 0.8"/>
      </defs>
      <g>
       <use xlink:href="#m0b2a14725d" x="57.6" y="298.944" style="stroke: #000000; stroke-width: 0.8"/>
      </g>
     </g>
     <g id="text_1">
      <!-- 0 -->
      <g transform="translate(52.191875 318.861344) scale(0.17 -0.17)">
       <defs>
        <path id="DejaVuSans-30" d="M 2034 4250 
Q 1547 4250 1301 3770 
Q 1056 3291 1056 2328 
Q 1056 1369 1301 889 
Q 1547 409 2034 409 
Q 2525 409 2770 889 
Q 3016 1369 3016 2328 
Q 3016 3291 2770 3770 
Q 2525 4250 2034 4250 
z
M 2034 4750 
Q 2819 4750 3233 4129 
Q 3647 3509 3647 2328 
Q 3647 1150 3233 529 
Q 2819 -91 2034 -91 
Q 1250 -91 836 529 
Q 422 1150 422 2328 
Q 422 3509 836 4129 
Q 1250 4750 2034 4750 
z
" transform="scale(0.015625)"/>
       </defs>
       <use xlink:href="#DejaVuSans-30"/>
      </g>
     </g>
    </g>
    <g id="xtick_2">
     <g id="line2d_7">
      <path d="M 144.2304 298.944 
L 144.2304 27.648 
" clip-path="url(#pc8285602b6)" style="fill: none; stroke: #b0b0b0; stroke-width: 0.8; stroke-linecap: square"/>
     </g>
     <g id="line2d_8">
      <g>
       <use xlink:href="#m0b2a14725d" x="144.2304" y="298.944" style="stroke: #000000; stroke-width: 0.8"/>
      </g>
     </g>
     <g id="text_2">
      <!-- 2 -->
      <g transform="translate(138.822275 318.861344) scale(0.17 -0.17)">
       <defs>
        <path id="DejaVuSans-32" d="M 1228 531 
L 3431 531 
L 3431 0 
L 469 0 
L 469 531 
Q 828 903 1448 1529 
Q 2069 2156 2228 2338 
Q 2531 2678 2651 2914 
Q 2772 3150 2772 3378 
Q 2772 3750 2511 3984 
Q 2250 4219 1831 4219 
Q 1534 4219 1204 4116 
Q 875 4013 500 3803 
L 500 4441 
Q 881 4594 1212 4672 
Q 1544 4750 1819 4750 
Q 2544 4750 2975 4387 
Q 3406 4025 3406 3419 
Q 3406 3131 3298 2873 
Q 3191 2616 2906 2266 
Q 2828 2175 2409 1742 
Q 1991 1309 1228 531 
z
" transform="scale(0.015625)"/>
       </defs>
       <use xlink:href="#DejaVuSans-32"/>
      </g>
     </g>
    </g>
    <g id="xtick_3">
     <g id="line2d_9">
      <path d="M 230.8608 298.944 
L 230.8608 27.648 
" clip-path="url(#pc8285602b6)" style="fill: none; stroke: #b0b0b0; stroke-width: 0.8; stroke-linecap: square"/>
     </g>
     <g id="line2d_10">
      <g>
       <use xlink:href="#m0b2a14725d" x="230.8608" y="298.944" style="stroke: #000000; stroke-width: 0.8"/>
      </g>
     </g>
     <g id="text_3">
      <!-- 4 -->
      <g transform="translate(225.452675 318.861344) scale(0.17 -0.17)">
       <defs>
        <path id="DejaVuSans-34" d="M 2419 4116 
L 825 1625 
L 2419 1625 
L 2419 4116 
z
M 2253 4666 
L 3047 4666 
L 3047 1625 
L 3713 1625 
L 3713 1100 
L 3047 1100 
L 3047 0 
L 2419 0 
L 2419 1100 
L 313 1100 
L 313 1709 
L 2253 4666 
z
" transform="scale(0.015625)"/>
       </defs>
       <use xlink:href="#DejaVuSans-34"/>
      </g>
     </g>
    </g>
    <g id="xtick_4">
     <g id="line2d_11">
      <path d="M 317.4912 298.944 
L 317.4912 27.648 
" clip-path="url(#pc8285602b6)" style="fill: none; stroke: #b0b0b0; stroke-width: 0.8; stroke-linecap: square"/>
     </g>
     <g id="line2d_12">
      <g>
       <use xlink:href="#m0b2a14725d" x="317.4912" y="298.944" style="stroke: #000000; stroke-width: 0.8"/>
      </g>
     </g>
     <g id="text_4">
      <!-- 6 -->
      <g transform="translate(312.083075 318.861344) scale(0.17 -0.17)">
       <defs>
        <path id="DejaVuSans-36" d="M 2113 2584 
Q 1688 2584 1439 2293 
Q 1191 2003 1191 1497 
Q 1191 994 1439 701 
Q 1688 409 2113 409 
Q 2538 409 2786 701 
Q 3034 994 3034 1497 
Q 3034 2003 2786 2293 
Q 2538 2584 2113 2584 
z
M 3366 4563 
L 3366 3988 
Q 3128 4100 2886 4159 
Q 2644 4219 2406 4219 
Q 1781 4219 1451 3797 
Q 1122 3375 1075 2522 
Q 1259 2794 1537 2939 
Q 1816 3084 2150 3084 
Q 2853 3084 3261 2657 
Q 3669 2231 3669 1497 
Q 3669 778 3244 343 
Q 2819 -91 2113 -91 
Q 1303 -91 875 529 
Q 447 1150 447 2328 
Q 447 3434 972 4092 
Q 1497 4750 2381 4750 
Q 2619 4750 2861 4703 
Q 3103 4656 3366 4563 
z
" transform="scale(0.015625)"/>
       </defs>
       <use xlink:href="#DejaVuSans-36"/>
      </g>
     </g>
    </g>
    <g id="xtick_5">
     <g id="line2d_13">
      <path d="M 100.9152 298.944 
L 100.9152 27.648 
" clip-path="url(#pc8285602b6)" style="fill: none; stroke: #b0b0b0; stroke-width: 0.8; stroke-linecap: square"/>
     </g>
     <g id="line2d_14">
      <defs>
       <path id="m03bcd18965" d="M 0 0 
L 0 2 
" style="stroke: #000000; stroke-width: 0.6"/>
      </defs>
      <g>
       <use xlink:href="#m03bcd18965" x="100.9152" y="298.944" style="stroke: #000000; stroke-width: 0.6"/>
      </g>
     </g>
    </g>
    <g id="xtick_6">
     <g id="line2d_15">
      <path d="M 187.5456 298.944 
L 187.5456 27.648 
" clip-path="url(#pc8285602b6)" style="fill: none; stroke: #b0b0b0; stroke-width: 0.8; stroke-linecap: square"/>
     </g>
     <g id="line2d_16">
      <g>
       <use xlink:href="#m03bcd18965" x="187.5456" y="298.944" style="stroke: #000000; stroke-width: 0.6"/>
      </g>
     </g>
    </g>
    <g id="xtick_7">
     <g id="line2d_17">
      <path d="M 274.176 298.944 
L 274.176 27.648 
" clip-path="url(#pc8285602b6)" style="fill: none; stroke: #b0b0b0; stroke-width: 0.8; stroke-linecap: square"/>
     </g>
     <g id="line2d_18">
      <g>
       <use xlink:href="#m03bcd18965" x="274.176" y="298.944" style="stroke: #000000; stroke-width: 0.6"/>
      </g>
     </g>
    </g>
    <g id="xtick_8">
     <g id="line2d_19">
      <path d="M 360.8064 298.944 
L 360.8064 27.648 
" clip-path="url(#pc8285602b6)" style="fill: none; stroke: #b0b0b0; stroke-width: 0.8; stroke-linecap: square"/>
     </g>
     <g id="line2d_20">
      <g>
       <use xlink:href="#m03bcd18965" x="360.8064" y="298.944" style="stroke: #000000; stroke-width: 0.6"/>
      </g>
     </g>
    </g>
    <g id="text_5">
     <!-- log10(# f-evals / dimension) -->
     <g transform="translate(88.823278 339.314156) scale(0.17 -0.17)">
      <defs>
       <path id="DejaVuSans-6c" d="M 603 4863 
L 1178 4863 
L 1178 0 
L 603 0 
L 603 4863 
z
" transform="scale(0.015625)"/>
       <path id="DejaVuSans-6f" d="M 1959 3097 
Q 1497 3097 1228 2736 
Q 959 2375 959 1747 
Q 959 1119 1226 758 
Q 1494 397 1959 397 
Q 2419 397 2687 759 
Q 2956 1122 2956 1747 
Q 2956 2369 2687 2733 
Q 2419 3097 1959 3097 
z
M 1959 3584 
Q 2709 3584 3137 3096 
Q 3566 2609 3566 1747 
Q 3566 888 3137 398 
Q 2709 -91 1959 -91 
Q 1206 -91 779 398 
Q 353 888 353 1747 
Q 353 2609 779 3096 
Q 1206 3584 1959 3584 
z
" transform="scale(0.015625)"/>
       <path id="DejaVuSans-67" d="M 2906 1791 
Q 2906 2416 2648 2759 
Q 2391 3103 1925 3103 
Q 1463 3103 1205 2759 
Q 947 2416 947 1791 
Q 947 1169 1205 825 
Q 1463 481 1925 481 
Q 2391 481 2648 825 
Q 2906 1169 2906 1791 
z
M 3481 434 
Q 3481 -459 3084 -895 
Q 2688 -1331 1869 -1331 
Q 1566 -1331 1297 -1286 
Q 1028 -1241 775 -1147 
L 775 -588 
Q 1028 -725 1275 -790 
Q 1522 -856 1778 -856 
Q 2344 -856 2625 -561 
Q 2906 -266 2906 331 
L 2906 616 
Q 2728 306 2450 153 
Q 2172 0 1784 0 
Q 1141 0 747 490 
Q 353 981 353 1791 
Q 353 2603 747 3093 
Q 1141 3584 1784 3584 
Q 2172 3584 2450 3431 
Q 2728 3278 2906 2969 
L 2906 3500 
L 3481 3500 
L 3481 434 
z
" transform="scale(0.015625)"/>
       <path id="DejaVuSans-31" d="M 794 531 
L 1825 531 
L 1825 4091 
L 703 3866 
L 703 4441 
L 1819 4666 
L 2450 4666 
L 2450 531 
L 3481 531 
L 3481 0 
L 794 0 
L 794 531 
z
" transform="scale(0.015625)"/>
       <path id="DejaVuSans-28" d="M 1984 4856 
Q 1566 4138 1362 3434 
Q 1159 2731 1159 2009 
Q 1159 1288 1364 580 
Q 1569 -128 1984 -844 
L 1484 -844 
Q 1016 -109 783 600 
Q 550 1309 550 2009 
Q 550 2706 781 3412 
Q 1013 4119 1484 4856 
L 1984 4856 
z
" transform="scale(0.015625)"/>
       <path id="DejaVuSans-23" d="M 3272 2816 
L 2363 2816 
L 2100 1772 
L 3016 1772 
L 3272 2816 
z
M 2803 4594 
L 2478 3297 
L 3391 3297 
L 3719 4594 
L 4219 4594 
L 3897 3297 
L 4872 3297 
L 4872 2816 
L 3775 2816 
L 3519 1772 
L 4513 1772 
L 4513 1294 
L 3397 1294 
L 3072 0 
L 2572 0 
L 2894 1294 
L 1978 1294 
L 1656 0 
L 1153 0 
L 1478 1294 
L 494 1294 
L 494 1772 
L 1594 1772 
L 1856 2816 
L 850 2816 
L 850 3297 
L 1978 3297 
L 2297 4594 
L 2803 4594 
z
" transform="scale(0.015625)"/>
       <path id="DejaVuSans-20" transform="scale(0.015625)"/>
       <path id="DejaVuSans-66" d="M 2375 4863 
L 2375 4384 
L 1825 4384 
Q 1516 4384 1395 4259 
Q 1275 4134 1275 3809 
L 1275 3500 
L 2222 3500 
L 2222 3053 
L 1275 3053 
L 1275 0 
L 697 0 
L 697 3053 
L 147 3053 
L 147 3500 
L 697 3500 
L 697 3744 
Q 697 4328 969 4595 
Q 1241 4863 1831 4863 
L 2375 4863 
z
" transform="scale(0.015625)"/>
       <path id="DejaVuSans-2d" d="M 313 2009 
L 1997 2009 
L 1997 1497 
L 313 1497 
L 313 2009 
z
" transform="scale(0.015625)"/>
       <path id="DejaVuSans-65" d="M 3597 1894 
L 3597 1613 
L 953 1613 
Q 991 1019 1311 708 
Q 1631 397 2203 397 
Q 2534 397 2845 478 
Q 3156 559 3463 722 
L 3463 178 
Q 3153 47 2828 -22 
Q 2503 -91 2169 -91 
Q 1331 -91 842 396 
Q 353 884 353 1716 
Q 353 2575 817 3079 
Q 1281 3584 2069 3584 
Q 2775 3584 3186 3129 
Q 3597 2675 3597 1894 
z
M 3022 2063 
Q 3016 2534 2758 2815 
Q 2500 3097 2075 3097 
Q 1594 3097 1305 2825 
Q 1016 2553 972 2059 
L 3022 2063 
z
" transform="scale(0.015625)"/>
       <path id="DejaVuSans-76" d="M 191 3500 
L 800 3500 
L 1894 563 
L 2988 3500 
L 3597 3500 
L 2284 0 
L 1503 0 
L 191 3500 
z
" transform="scale(0.015625)"/>
       <path id="DejaVuSans-61" d="M 2194 1759 
Q 1497 1759 1228 1600 
Q 959 1441 959 1056 
Q 959 750 1161 570 
Q 1363 391 1709 391 
Q 2188 391 2477 730 
Q 2766 1069 2766 1631 
L 2766 1759 
L 2194 1759 
z
M 3341 1997 
L 3341 0 
L 2766 0 
L 2766 531 
Q 2569 213 2275 61 
Q 1981 -91 1556 -91 
Q 1019 -91 701 211 
Q 384 513 384 1019 
Q 384 1609 779 1909 
Q 1175 2209 1959 2209 
L 2766 2209 
L 2766 2266 
Q 2766 2663 2505 2880 
Q 2244 3097 1772 3097 
Q 1472 3097 1187 3025 
Q 903 2953 641 2809 
L 641 3341 
Q 956 3463 1253 3523 
Q 1550 3584 1831 3584 
Q 2591 3584 2966 3190 
Q 3341 2797 3341 1997 
z
" transform="scale(0.015625)"/>
       <path id="DejaVuSans-73" d="M 2834 3397 
L 2834 2853 
Q 2591 2978 2328 3040 
Q 2066 3103 1784 3103 
Q 1356 3103 1142 2972 
Q 928 2841 928 2578 
Q 928 2378 1081 2264 
Q 1234 2150 1697 2047 
L 1894 2003 
Q 2506 1872 2764 1633 
Q 3022 1394 3022 966 
Q 3022 478 2636 193 
Q 2250 -91 1575 -91 
Q 1294 -91 989 -36 
Q 684 19 347 128 
L 347 722 
Q 666 556 975 473 
Q 1284 391 1588 391 
Q 1994 391 2212 530 
Q 2431 669 2431 922 
Q 2431 1156 2273 1281 
Q 2116 1406 1581 1522 
L 1381 1569 
Q 847 1681 609 1914 
Q 372 2147 372 2553 
Q 372 3047 722 3315 
Q 1072 3584 1716 3584 
Q 2034 3584 2315 3537 
Q 2597 3491 2834 3397 
z
" transform="scale(0.015625)"/>
       <path id="DejaVuSans-2f" d="M 1625 4666 
L 2156 4666 
L 531 -594 
L 0 -594 
L 1625 4666 
z
" transform="scale(0.015625)"/>
       <path id="DejaVuSans-64" d="M 2906 2969 
L 2906 4863 
L 3481 4863 
L 3481 0 
L 2906 0 
L 2906 525 
Q 2725 213 2448 61 
Q 2172 -91 1784 -91 
Q 1150 -91 751 415 
Q 353 922 353 1747 
Q 353 2572 751 3078 
Q 1150 3584 1784 3584 
Q 2172 3584 2448 3432 
Q 2725 3281 2906 2969 
z
M 947 1747 
Q 947 1113 1208 752 
Q 1469 391 1925 391 
Q 2381 391 2643 752 
Q 2906 1113 2906 1747 
Q 2906 2381 2643 2742 
Q 2381 3103 1925 3103 
Q 1469 3103 1208 2742 
Q 947 2381 947 1747 
z
" transform="scale(0.015625)"/>
       <path id="DejaVuSans-69" d="M 603 3500 
L 1178 3500 
L 1178 0 
L 603 0 
L 603 3500 
z
M 603 4863 
L 1178 4863 
L 1178 4134 
L 603 4134 
L 603 4863 
z
" transform="scale(0.015625)"/>
       <path id="DejaVuSans-6d" d="M 3328 2828 
Q 3544 3216 3844 3400 
Q 4144 3584 4550 3584 
Q 5097 3584 5394 3201 
Q 5691 2819 5691 2113 
L 5691 0 
L 5113 0 
L 5113 2094 
Q 5113 2597 4934 2840 
Q 4756 3084 4391 3084 
Q 3944 3084 3684 2787 
Q 3425 2491 3425 1978 
L 3425 0 
L 2847 0 
L 2847 2094 
Q 2847 2600 2669 2842 
Q 2491 3084 2119 3084 
Q 1678 3084 1418 2786 
Q 1159 2488 1159 1978 
L 1159 0 
L 581 0 
L 581 3500 
L 1159 3500 
L 1159 2956 
Q 1356 3278 1631 3431 
Q 1906 3584 2284 3584 
Q 2666 3584 2933 3390 
Q 3200 3197 3328 2828 
z
" transform="scale(0.015625)"/>
       <path id="DejaVuSans-6e" d="M 3513 2113 
L 3513 0 
L 2938 0 
L 2938 2094 
Q 2938 2591 2744 2837 
Q 2550 3084 2163 3084 
Q 1697 3084 1428 2787 
Q 1159 2491 1159 1978 
L 1159 0 
L 581 0 
L 581 3500 
L 1159 3500 
L 1159 2956 
Q 1366 3272 1645 3428 
Q 1925 3584 2291 3584 
Q 2894 3584 3203 3211 
Q 3513 2838 3513 2113 
z
" transform="scale(0.015625)"/>
       <path id="DejaVuSans-29" d="M 513 4856 
L 1013 4856 
Q 1481 4119 1714 3412 
Q 1947 2706 1947 2009 
Q 1947 1309 1714 600 
Q 1481 -109 1013 -844 
L 513 -844 
Q 928 -128 1133 580 
Q 1338 1288 1338 2009 
Q 1338 2731 1133 3434 
Q 928 4138 513 4856 
z
" transform="scale(0.015625)"/>
      </defs>
      <use xlink:href="#DejaVuSans-6c"/>
      <use xlink:href="#DejaVuSans-6f" x="27.783203"/>
      <use xlink:href="#DejaVuSans-67" x="88.964844"/>
      <use xlink:href="#DejaVuSans-31" x="152.441406"/>
      <use xlink:href="#DejaVuSans-30" x="216.064453"/>
      <use xlink:href="#DejaVuSans-28" x="279.6875"/>
      <use xlink:href="#DejaVuSans-23" x="318.701172"/>
      <use xlink:href="#DejaVuSans-20" x="402.490234"/>
      <use xlink:href="#DejaVuSans-66" x="434.277344"/>
      <use xlink:href="#DejaVuSans-2d" x="463.982422"/>
      <use xlink:href="#DejaVuSans-65" x="500.066406"/>
      <use xlink:href="#DejaVuSans-76" x="561.589844"/>
      <use xlink:href="#DejaVuSans-61" x="620.769531"/>
      <use xlink:href="#DejaVuSans-6c" x="682.048828"/>
      <use xlink:href="#DejaVuSans-73" x="709.832031"/>
      <use xlink:href="#DejaVuSans-20" x="761.931641"/>
      <use xlink:href="#DejaVuSans-2f" x="793.71875"/>
      <use xlink:href="#DejaVuSans-20" x="827.410156"/>
      <use xlink:href="#DejaVuSans-64" x="859.197266"/>
      <use xlink:href="#DejaVuSans-69" x="922.673828"/>
      <use xlink:href="#DejaVuSans-6d" x="950.457031"/>
      <use xlink:href="#DejaVuSans-65" x="1047.869141"/>
      <use xlink:href="#DejaVuSans-6e" x="1109.392578"/>
      <use xlink:href="#DejaVuSans-73" x="1172.771484"/>
      <use xlink:href="#DejaVuSans-69" x="1224.871094"/>
      <use xlink:href="#DejaVuSans-6f" x="1252.654297"/>
      <use xlink:href="#DejaVuSans-6e" x="1313.835938"/>
      <use xlink:href="#DejaVuSans-29" x="1377.214844"/>
     </g>
    </g>
   </g>
   <g id="matplotlib.axis_2">
    <g id="ytick_1">
     <g id="line2d_21">
      <path d="M 57.6 298.944 
L 360.8064 298.944 
" clip-path="url(#pc8285602b6)" style="fill: none; stroke: #b0b0b0; stroke-width: 0.8; stroke-linecap: square"/>
     </g>
     <g id="line2d_22">
      <defs>
       <path id="m8f435195d6" d="M 0 0 
L -3.5 0 
" style="stroke: #000000; stroke-width: 0.8"/>
      </defs>
      <g>
       <use xlink:href="#m8f435195d6" x="57.6" y="298.944" style="stroke: #000000; stroke-width: 0.8"/>
      </g>
     </g>
     <g id="text_6">
      <!-- 0.0 -->
      <g transform="translate(25.155 305.02275) scale(0.16 -0.16)">
       <defs>
        <path id="DejaVuSans-2e" d="M 684 794 
L 1344 794 
L 1344 0 
L 684 0 
L 684 794 
z
" transform="scale(0.015625)"/>
       </defs>
       <use xlink:href="#DejaVuSans-30"/>
       <use xlink:href="#DejaVuSans-2e" x="63.623047"/>
       <use xlink:href="#DejaVuSans-30" x="95.410156"/>
      </g>
     </g>
    </g>
    <g id="ytick_2">
     <g id="line2d_23">
      <path d="M 57.6 244.6848 
L 360.8064 244.6848 
" clip-path="url(#pc8285602b6)" style="fill: none; stroke: #b0b0b0; stroke-width: 0.8; stroke-linecap: square"/>
     </g>
     <g id="line2d_24">
      <g>
       <use xlink:href="#m8f435195d6" x="57.6" y="244.6848" style="stroke: #000000; stroke-width: 0.8"/>
      </g>
     </g>
     <g id="text_7">
      <!-- 0.2 -->
      <g transform="translate(25.155 250.76355) scale(0.16 -0.16)">
       <use xlink:href="#DejaVuSans-30"/>
       <use xlink:href="#DejaVuSans-2e" x="63.623047"/>
       <use xlink:href="#DejaVuSans-32" x="95.410156"/>
      </g>
     </g>
    </g>
    <g id="ytick_3">
     <g id="line2d_25">
      <path d="M 57.6 190.4256 
L 360.8064 190.4256 
" clip-path="url(#pc8285602b6)" style="fill: none; stroke: #b0b0b0; stroke-width: 0.8; stroke-linecap: square"/>
     </g>
     <g id="line2d_26">
      <g>
       <use xlink:href="#m8f435195d6" x="57.6" y="190.4256" style="stroke: #000000; stroke-width: 0.8"/>
      </g>
     </g>
     <g id="text_8">
      <!-- 0.4 -->
      <g transform="translate(25.155 196.50435) scale(0.16 -0.16)">
       <use xlink:href="#DejaVuSans-30"/>
       <use xlink:href="#DejaVuSans-2e" x="63.623047"/>
       <use xlink:href="#DejaVuSans-34" x="95.410156"/>
      </g>
     </g>
    </g>
    <g id="ytick_4">
     <g id="line2d_27">
      <path d="M 57.6 136.1664 
L 360.8064 136.1664 
" clip-path="url(#pc8285602b6)" style="fill: none; stroke: #b0b0b0; stroke-width: 0.8; stroke-linecap: square"/>
     </g>
     <g id="line2d_28">
      <g>
       <use xlink:href="#m8f435195d6" x="57.6" y="136.1664" style="stroke: #000000; stroke-width: 0.8"/>
      </g>
     </g>
     <g id="text_9">
      <!-- 0.6 -->
      <g transform="translate(25.155 142.24515) scale(0.16 -0.16)">
       <use xlink:href="#DejaVuSans-30"/>
       <use xlink:href="#DejaVuSans-2e" x="63.623047"/>
       <use xlink:href="#DejaVuSans-36" x="95.410156"/>
      </g>
     </g>
    </g>
    <g id="ytick_5">
     <g id="line2d_29">
      <path d="M 57.6 81.9072 
L 360.8064 81.9072 
" clip-path="url(#pc8285602b6)" style="fill: none; stroke: #b0b0b0; stroke-width: 0.8; stroke-linecap: square"/>
     </g>
     <g id="line2d_30">
      <g>
       <use xlink:href="#m8f435195d6" x="57.6" y="81.9072" style="stroke: #000000; stroke-width: 0.8"/>
      </g>
     </g>
     <g id="text_10">
      <!-- 0.8 -->
      <g transform="translate(25.155 87.98595) scale(0.16 -0.16)">
       <defs>
        <path id="DejaVuSans-38" d="M 2034 2216 
Q 1584 2216 1326 1975 
Q 1069 1734 1069 1313 
Q 1069 891 1326 650 
Q 1584 409 2034 409 
Q 2484 409 2743 651 
Q 3003 894 3003 1313 
Q 3003 1734 2745 1975 
Q 2488 2216 2034 2216 
z
M 1403 2484 
Q 997 2584 770 2862 
Q 544 3141 544 3541 
Q 544 4100 942 4425 
Q 1341 4750 2034 4750 
Q 2731 4750 3128 4425 
Q 3525 4100 3525 3541 
Q 3525 3141 3298 2862 
Q 3072 2584 2669 2484 
Q 3125 2378 3379 2068 
Q 3634 1759 3634 1313 
Q 3634 634 3220 271 
Q 2806 -91 2034 -91 
Q 1263 -91 848 271 
Q 434 634 434 1313 
Q 434 1759 690 2068 
Q 947 2378 1403 2484 
z
M 1172 3481 
Q 1172 3119 1398 2916 
Q 1625 2713 2034 2713 
Q 2441 2713 2670 2916 
Q 2900 3119 2900 3481 
Q 2900 3844 2670 4047 
Q 2441 4250 2034 4250 
Q 1625 4250 1398 4047 
Q 1172 3844 1172 3481 
z
" transform="scale(0.015625)"/>
       </defs>
       <use xlink:href="#DejaVuSans-30"/>
       <use xlink:href="#DejaVuSans-2e" x="63.623047"/>
       <use xlink:href="#DejaVuSans-38" x="95.410156"/>
      </g>
     </g>
    </g>
    <g id="ytick_6">
     <g id="line2d_31">
      <path d="M 57.6 27.648 
L 360.8064 27.648 
" clip-path="url(#pc8285602b6)" style="fill: none; stroke: #b0b0b0; stroke-width: 0.8; stroke-linecap: square"/>
     </g>
     <g id="line2d_32">
      <g>
       <use xlink:href="#m8f435195d6" x="57.6" y="27.648" style="stroke: #000000; stroke-width: 0.8"/>
      </g>
     </g>
     <g id="text_11">
      <!-- 1.0 -->
      <g transform="translate(25.155 33.72675) scale(0.16 -0.16)">
       <use xlink:href="#DejaVuSans-31"/>
       <use xlink:href="#DejaVuSans-2e" x="63.623047"/>
       <use xlink:href="#DejaVuSans-30" x="95.410156"/>
      </g>
     </g>
    </g>
    <g id="text_12">
     <!-- Fraction of function,target pairs -->
     <g transform="translate(17.619531 297.681) rotate(-90) scale(0.17 -0.17)">
      <defs>
       <path id="DejaVuSans-46" d="M 628 4666 
L 3309 4666 
L 3309 4134 
L 1259 4134 
L 1259 2759 
L 3109 2759 
L 3109 2228 
L 1259 2228 
L 1259 0 
L 628 0 
L 628 4666 
z
" transform="scale(0.015625)"/>
       <path id="DejaVuSans-72" d="M 2631 2963 
Q 2534 3019 2420 3045 
Q 2306 3072 2169 3072 
Q 1681 3072 1420 2755 
Q 1159 2438 1159 1844 
L 1159 0 
L 581 0 
L 581 3500 
L 1159 3500 
L 1159 2956 
Q 1341 3275 1631 3429 
Q 1922 3584 2338 3584 
Q 2397 3584 2469 3576 
Q 2541 3569 2628 3553 
L 2631 2963 
z
" transform="scale(0.015625)"/>
       <path id="DejaVuSans-63" d="M 3122 3366 
L 3122 2828 
Q 2878 2963 2633 3030 
Q 2388 3097 2138 3097 
Q 1578 3097 1268 2742 
Q 959 2388 959 1747 
Q 959 1106 1268 751 
Q 1578 397 2138 397 
Q 2388 397 2633 464 
Q 2878 531 3122 666 
L 3122 134 
Q 2881 22 2623 -34 
Q 2366 -91 2075 -91 
Q 1284 -91 818 406 
Q 353 903 353 1747 
Q 353 2603 823 3093 
Q 1294 3584 2113 3584 
Q 2378 3584 2631 3529 
Q 2884 3475 3122 3366 
z
" transform="scale(0.015625)"/>
       <path id="DejaVuSans-74" d="M 1172 4494 
L 1172 3500 
L 2356 3500 
L 2356 3053 
L 1172 3053 
L 1172 1153 
Q 1172 725 1289 603 
Q 1406 481 1766 481 
L 2356 481 
L 2356 0 
L 1766 0 
Q 1100 0 847 248 
Q 594 497 594 1153 
L 594 3053 
L 172 3053 
L 172 3500 
L 594 3500 
L 594 4494 
L 1172 4494 
z
" transform="scale(0.015625)"/>
       <path id="DejaVuSans-75" d="M 544 1381 
L 544 3500 
L 1119 3500 
L 1119 1403 
Q 1119 906 1312 657 
Q 1506 409 1894 409 
Q 2359 409 2629 706 
Q 2900 1003 2900 1516 
L 2900 3500 
L 3475 3500 
L 3475 0 
L 2900 0 
L 2900 538 
Q 2691 219 2414 64 
Q 2138 -91 1772 -91 
Q 1169 -91 856 284 
Q 544 659 544 1381 
z
M 1991 3584 
L 1991 3584 
z
" transform="scale(0.015625)"/>
       <path id="DejaVuSans-2c" d="M 750 794 
L 1409 794 
L 1409 256 
L 897 -744 
L 494 -744 
L 750 256 
L 750 794 
z
" transform="scale(0.015625)"/>
       <path id="DejaVuSans-70" d="M 1159 525 
L 1159 -1331 
L 581 -1331 
L 581 3500 
L 1159 3500 
L 1159 2969 
Q 1341 3281 1617 3432 
Q 1894 3584 2278 3584 
Q 2916 3584 3314 3078 
Q 3713 2572 3713 1747 
Q 3713 922 3314 415 
Q 2916 -91 2278 -91 
Q 1894 -91 1617 61 
Q 1341 213 1159 525 
z
M 3116 1747 
Q 3116 2381 2855 2742 
Q 2594 3103 2138 3103 
Q 1681 3103 1420 2742 
Q 1159 2381 1159 1747 
Q 1159 1113 1420 752 
Q 1681 391 2138 391 
Q 2594 391 2855 752 
Q 3116 1113 3116 1747 
z
" transform="scale(0.015625)"/>
      </defs>
      <use xlink:href="#DejaVuSans-46"/>
      <use xlink:href="#DejaVuSans-72" x="50.269531"/>
      <use xlink:href="#DejaVuSans-61" x="91.382812"/>
      <use xlink:href="#DejaVuSans-63" x="152.662109"/>
      <use xlink:href="#DejaVuSans-74" x="207.642578"/>
      <use xlink:href="#DejaVuSans-69" x="246.851562"/>
      <use xlink:href="#DejaVuSans-6f" x="274.634766"/>
      <use xlink:href="#DejaVuSans-6e" x="335.816406"/>
      <use xlink:href="#DejaVuSans-20" x="399.195312"/>
      <use xlink:href="#DejaVuSans-6f" x="430.982422"/>
      <use xlink:href="#DejaVuSans-66" x="492.164062"/>
      <use xlink:href="#DejaVuSans-20" x="527.369141"/>
      <use xlink:href="#DejaVuSans-66" x="559.15625"/>
      <use xlink:href="#DejaVuSans-75" x="594.361328"/>
      <use xlink:href="#DejaVuSans-6e" x="657.740234"/>
      <use xlink:href="#DejaVuSans-63" x="721.119141"/>
      <use xlink:href="#DejaVuSans-74" x="776.099609"/>
      <use xlink:href="#DejaVuSans-69" x="815.308594"/>
      <use xlink:href="#DejaVuSans-6f" x="843.091797"/>
      <use xlink:href="#DejaVuSans-6e" x="904.273438"/>
      <use xlink:href="#DejaVuSans-2c" x="967.652344"/>
      <use xlink:href="#DejaVuSans-74" x="999.439453"/>
      <use xlink:href="#DejaVuSans-61" x="1038.648438"/>
      <use xlink:href="#DejaVuSans-72" x="1099.927734"/>
      <use xlink:href="#DejaVuSans-67" x="1139.291016"/>
      <use xlink:href="#DejaVuSans-65" x="1202.767578"/>
      <use xlink:href="#DejaVuSans-74" x="1264.291016"/>
      <use xlink:href="#DejaVuSans-20" x="1303.5"/>
      <use xlink:href="#DejaVuSans-70" x="1335.287109"/>
      <use xlink:href="#DejaVuSans-61" x="1398.763672"/>
      <use xlink:href="#DejaVuSans-69" x="1460.042969"/>
      <use xlink:href="#DejaVuSans-72" x="1487.826172"/>
      <use xlink:href="#DejaVuSans-73" x="1528.939453"/>
     </g>
    </g>
   </g>
   <g id="line2d_33">
    <defs>
     <path id="m4f63335086" d="M 0 1.5 
C 0.397805 1.5 0.77937 1.341951 1.06066 1.06066 
C 1.341951 0.77937 1.5 0.397805 1.5 0 
C 1.5 -0.397805 1.341951 -0.77937 1.06066 -1.06066 
C 0.77937 -1.341951 0.397805 -1.5 0 -1.5 
C -0.397805 -1.5 -0.77937 -1.341951 -1.06066 -1.06066 
C -1.341951 -0.77937 -1.5 -0.397805 -1.5 0 
C -1.5 0.397805 -1.341951 0.77937 -1.06066 1.06066 
C -0.77937 1.341951 -0.397805 1.5 0 1.5 
z
" style="stroke: #f5deb3"/>
    </defs>
    <g>
     <use xlink:href="#m4f63335086" x="289.156906" y="60.390621" style="fill: #f5deb3; stroke: #f5deb3"/>
     <use xlink:href="#m4f63335086" x="289.156906" y="60.390621" style="fill: #f5deb3; stroke: #f5deb3"/>
    </g>
   </g>
   <g id="line2d_34">
    <defs>
     <path id="mbb5930835a" d="M 0 1.5 
C 0.397805 1.5 0.77937 1.341951 1.06066 1.06066 
C 1.341951 0.77937 1.5 0.397805 1.5 0 
C 1.5 -0.397805 1.341951 -0.77937 1.06066 -1.06066 
C 0.77937 -1.341951 0.397805 -1.5 0 -1.5 
C -0.397805 -1.5 -0.77937 -1.341951 -1.06066 -1.06066 
C -1.341951 -0.77937 -1.5 -0.397805 -1.5 0 
C -1.5 0.397805 -1.341951 0.77937 -1.06066 1.06066 
C -0.77937 1.341951 -0.397805 1.5 0 1.5 
z
" style="stroke: #000080"/>
    </defs>
    <g>
     <use xlink:href="#mbb5930835a" x="181.428529" y="189.022345" style="fill: #000080; stroke: #000080"/>
     <use xlink:href="#mbb5930835a" x="181.428529" y="189.022345" style="fill: #000080; stroke: #000080"/>
    </g>
   </g>
   <g id="line2d_35">
    <path d="M 14.2848 298.944 
L 14.2848 288.18571 
L 92.519847 288.18571 
L 92.519847 287.717959 
L 94.735529 287.717959 
L 94.735529 287.250207 
L 97.18203 287.250207 
L 97.18203 286.782455 
L 105.26277 286.782455 
L 105.26277 286.314703 
L 107.774703 286.314703 
L 107.774703 285.846952 
L 108.791791 285.846952 
L 108.791791 285.3792 
L 110.449226 285.3792 
L 110.449226 284.911448 
L 118.817362 284.911448 
L 118.817362 284.443697 
L 120.0813 284.443697 
L 120.0813 283.975945 
L 121.455972 283.975945 
L 121.455972 283.508193 
L 124.046648 283.508193 
L 124.046648 283.040441 
L 124.695386 283.040441 
L 124.695386 282.57269 
L 126.078082 282.57269 
L 126.078082 282.104938 
L 126.372018 282.104938 
L 126.372018 281.637186 
L 126.613505 281.637186 
L 126.709238 280.701683 
L 128.222309 280.701683 
L 128.222309 280.233931 
L 128.354013 280.233931 
L 128.39771 279.298428 
L 128.657782 279.298428 
L 128.657782 278.830676 
L 129.125437 278.830676 
L 129.125437 278.362924 
L 129.417095 278.362924 
L 129.417095 277.895172 
L 129.744974 277.895172 
L 129.744974 277.427421 
L 129.86647 277.427421 
L 129.86647 276.959669 
L 130.027253 276.959669 
L 130.027253 276.491917 
L 130.618241 276.491917 
L 130.618241 276.024166 
L 132.358208 276.024166 
L 132.358208 275.556414 
L 132.56918 275.556414 
L 132.56918 275.088662 
L 132.881269 275.088662 
L 132.881269 274.62091 
L 133.390178 274.62091 
L 133.390178 274.153159 
L 134.431915 274.153159 
L 134.431915 273.217655 
L 134.652304 273.217655 
L 134.652304 272.749903 
L 134.808158 272.749903 
L 134.808158 271.8144 
L 135.449003 271.8144 
L 135.449003 271.346648 
L 136.385386 271.346648 
L 136.385386 270.878897 
L 136.555884 270.878897 
L 136.640557 269.943393 
L 136.92008 269.943393 
L 136.92008 269.00789 
L 137.304564 269.00789 
L 137.304564 268.540138 
L 137.520791 268.540138 
L 137.520791 268.072386 
L 137.681345 268.072386 
L 137.681345 267.604634 
L 138.412998 267.604634 
L 138.412998 267.136883 
L 138.918715 267.136883 
L 138.918715 266.201379 
L 139.264798 266.201379 
L 139.289277 264.798124 
L 139.676658 264.798124 
L 139.676658 264.330372 
L 140.14993 264.330372 
L 140.14993 263.394869 
L 140.428281 263.394869 
L 140.428281 262.927117 
L 140.928134 262.927117 
L 140.928134 261.991614 
L 141.371301 261.991614 
L 141.371301 261.523862 
L 141.995897 261.523862 
L 141.995897 260.588359 
L 142.164612 260.588359 
L 142.269295 257.781848 
L 142.784148 257.781848 
L 142.885449 256.846345 
L 142.966099 256.846345 
L 143.046405 255.910841 
L 144.192739 255.910841 
L 144.192739 255.44309 
L 144.658165 255.44309 
L 144.658165 254.975338 
L 145.112353 254.975338 
L 145.201889 253.572083 
L 145.415054 253.572083 
L 145.450347 252.636579 
L 145.782376 252.636579 
L 145.782376 252.168828 
L 146.006223 252.168828 
L 146.006223 251.701076 
L 146.142663 251.701076 
L 146.193574 250.765572 
L 146.711739 250.765572 
L 146.711739 250.297821 
L 147.296097 250.297821 
L 147.343984 249.362317 
L 148.322436 249.362317 
L 148.322436 248.426814 
L 148.592894 248.426814 
L 148.592894 247.959062 
L 149.064312 247.959062 
L 149.064312 247.49131 
L 149.324384 247.49131 
L 149.324384 246.088055 
L 149.637443 246.088055 
L 149.637443 245.620303 
L 150.573397 245.620303 
L 150.653788 244.6848 
L 150.932483 244.6848 
L 150.932483 243.749297 
L 152.667844 243.749297 
L 152.667844 243.281545 
L 153.490466 243.281545 
L 153.490466 242.346041 
L 153.605101 242.346041 
L 153.650761 239.539531 
L 153.911171 239.539531 
L 153.911171 239.071779 
L 154.212341 239.071779 
L 154.212341 238.604028 
L 155.381403 238.604028 
L 155.381403 237.668524 
L 156.403417 237.668524 
L 156.403417 237.200772 
L 157.175281 237.200772 
L 157.175281 236.265269 
L 157.907629 236.265269 
L 157.907629 235.329766 
L 158.106599 235.329766 
L 158.115593 233.458759 
L 158.356828 233.458759 
L 158.356828 232.523255 
L 159.668298 232.523255 
L 159.668298 232.055503 
L 160.093991 232.055503 
L 160.093991 231.12 
L 160.303279 231.12 
L 160.303279 230.184497 
L 160.415015 230.184497 
L 160.415015 229.248993 
L 161.064158 229.248993 
L 161.140877 228.31349 
L 161.285788 228.31349 
L 161.285788 227.377986 
L 162.420867 227.377986 
L 162.420867 226.442483 
L 162.761101 226.442483 
L 162.761101 225.506979 
L 163.314829 225.506979 
L 163.314829 225.039228 
L 163.457521 225.039228 
L 163.457521 224.571476 
L 163.578974 224.571476 
L 163.578974 223.635972 
L 164.484939 223.635972 
L 164.484939 222.700469 
L 165.1152 222.700469 
L 165.1152 222.232717 
L 165.404283 222.232717 
L 165.404283 221.297214 
L 165.814821 221.297214 
L 165.814821 220.36171 
L 166.099311 220.36171 
L 166.204896 218.490703 
L 166.356368 218.490703 
L 166.414303 216.619697 
L 167.925369 216.619697 
L 168.015899 215.216441 
L 168.503585 215.216441 
L 168.503585 214.74869 
L 168.632555 214.74869 
L 168.699272 212.877683 
L 169.124754 212.877683 
L 169.124754 211.942179 
L 169.609283 211.942179 
L 169.706651 210.071172 
L 170.110183 210.071172 
L 170.110183 209.603421 
L 170.49593 209.603421 
L 170.49593 208.667917 
L 170.61198 208.667917 
L 170.708911 206.79691 
L 171.001277 206.79691 
L 171.001277 205.861407 
L 171.320391 205.861407 
L 171.333756 203.9904 
L 171.739079 203.9904 
L 171.808687 202.587145 
L 172.436438 202.587145 
L 172.436438 202.119393 
L 172.752956 202.119393 
L 172.752956 201.18389 
L 172.995054 201.18389 
L 173.023571 200.248386 
L 173.254192 200.248386 
L 173.254192 199.312883 
L 173.370449 199.312883 
L 173.370449 198.845131 
L 173.656019 198.845131 
L 173.656019 198.377379 
L 173.773739 198.377379 
L 173.773739 197.441876 
L 173.964444 197.441876 
L 174.034017 196.506372 
L 174.385645 196.506372 
L 174.385645 196.038621 
L 174.712223 196.038621 
L 174.712223 195.103117 
L 175.262307 195.103117 
L 175.359637 194.167614 
L 175.567027 194.167614 
L 175.567027 193.699862 
L 175.722847 193.699862 
L 175.722847 193.23211 
L 175.950698 193.23211 
L 175.950698 192.764359 
L 176.093013 192.764359 
L 176.093013 192.296607 
L 177.030582 192.296607 
L 177.030582 191.828855 
L 177.453477 191.828855 
L 177.453477 191.361103 
L 177.674134 191.361103 
L 177.680491 190.4256 
L 180.070865 190.4256 
L 180.070865 189.957848 
L 181.428529 189.957848 
L 181.428529 189.022345 
L 360.8064 189.022345 
L 360.8064 189.022345 
" style="fill: none; stroke: #000080; stroke-width: 1.5; stroke-linecap: square"/>
   </g>
   <g id="line2d_36">
    <defs>
     <path id="md5cf54423d" d="M 0 6 
C 1.591219 6 3.117479 5.367802 4.242641 4.242641 
C 5.367802 3.117479 6 1.591219 6 0 
C 6 -1.591219 5.367802 -3.117479 4.242641 -4.242641 
C 3.117479 -5.367802 1.591219 -6 0 -6 
C -1.591219 -6 -3.117479 -5.367802 -4.242641 -4.242641 
C -5.367802 -3.117479 -6 -1.591219 -6 0 
C -6 1.591219 -5.367802 3.117479 -4.242641 4.242641 
C -3.117479 5.367802 -1.591219 6 0 6 
z
" style="stroke: #000080; stroke-width: 1.5"/>
    </defs>
    <g>
     <use xlink:href="#md5cf54423d" x="118.817362" y="284.911448" style="fill-opacity: 0; stroke: #000080; stroke-width: 1.5"/>
     <use xlink:href="#md5cf54423d" x="181.428529" y="189.957848" style="fill-opacity: 0; stroke: #000080; stroke-width: 1.5"/>
     <use xlink:href="#md5cf54423d" x="181.428529" y="189.957848" style="fill-opacity: 0; stroke: #000080; stroke-width: 1.5"/>
     <use xlink:href="#md5cf54423d" x="181.428529" y="189.022345" style="fill-opacity: 0; stroke: #000080; stroke-width: 1.5"/>
     <use xlink:href="#md5cf54423d" x="181.428529" y="189.022345" style="fill-opacity: 0; stroke: #000080; stroke-width: 1.5"/>
     <use xlink:href="#md5cf54423d" x="360.8064" y="189.022345" style="fill-opacity: 0; stroke: #000080; stroke-width: 1.5"/>
    </g>
   </g>
   <g id="line2d_37">
    <path style="fill: none; stroke: #000080; stroke-width: 1.5; stroke-linecap: square"/>
    <g/>
   </g>
   <g id="line2d_38">
    <path d="M 230.8608 189.022345 
" clip-path="url(#pc8285602b6)" style="fill: none; stroke: #000080; stroke-width: 1.5; stroke-linecap: square"/>
    <defs>
     <path id="ma592944056" d="M -12 12 
L 12 -12 
M -12 -12 
L 12 12 
" style="stroke: #000080"/>
    </defs>
    <g clip-path="url(#pc8285602b6)">
     <use xlink:href="#ma592944056" x="230.8608" y="189.022345" style="fill: #000080; stroke: #000080"/>
    </g>
   </g>
   <g id="line2d_39">
    <defs>
     <path id="m760d7cc0a8" d="M 0 1.5 
C 0.397805 1.5 0.77937 1.341951 1.06066 1.06066 
C 1.341951 0.77937 1.5 0.397805 1.5 0 
C 1.5 -0.397805 1.341951 -0.77937 1.06066 -1.06066 
C 0.77937 -1.341951 0.397805 -1.5 0 -1.5 
C -0.397805 -1.5 -0.77937 -1.341951 -1.06066 -1.06066 
C -1.341951 -0.77937 -1.5 -0.397805 -1.5 0 
C -1.5 0.397805 -1.341951 0.77937 -1.06066 1.06066 
C -0.77937 1.341951 -0.397805 1.5 0 1.5 
z
" style="stroke: #ff00ff"/>
    </defs>
    <g>
     <use xlink:href="#m760d7cc0a8" x="195.697391" y="188.554593" style="fill: #ff00ff; stroke: #ff00ff"/>
     <use xlink:href="#m760d7cc0a8" x="195.697391" y="188.554593" style="fill: #ff00ff; stroke: #ff00ff"/>
    </g>
   </g>
   <g id="line2d_40">
    <path d="M 14.2848 298.944 
L 14.2848 288.18571 
L 106.42077 288.18571 
L 106.42077 287.717959 
L 109.280431 287.717959 
L 109.280431 287.250207 
L 114.961559 287.250207 
L 114.961559 286.782455 
L 120.813877 286.782455 
L 120.813877 286.314703 
L 121.518993 286.314703 
L 121.518993 285.846952 
L 122.19863 285.846952 
L 122.19863 284.911448 
L 123.4884 284.911448 
L 123.4884 284.443697 
L 124.101572 284.443697 
L 124.101572 283.975945 
L 125.829577 283.975945 
L 125.829577 283.040441 
L 127.911368 283.040441 
L 127.911368 282.57269 
L 129.334225 282.57269 
L 129.334225 282.104938 
L 129.78556 282.104938 
L 129.78556 281.169434 
L 130.226319 281.169434 
L 130.226319 280.701683 
L 131.892817 280.701683 
L 131.892817 280.233931 
L 133.05244 280.233931 
L 133.05244 279.298428 
L 134.14471 279.298428 
L 134.14471 278.830676 
L 134.495147 278.830676 
L 134.495147 278.362924 
L 136.155623 278.362924 
L 136.155623 276.959669 
L 138.258593 276.959669 
L 138.258593 276.024166 
L 138.818654 276.024166 
L 138.818654 275.556414 
L 139.092553 275.556414 
L 139.092553 275.088662 
L 139.362521 275.088662 
L 139.362521 273.217655 
L 139.628669 273.217655 
L 139.628669 272.282152 
L 139.891105 272.282152 
L 139.891105 271.8144 
L 140.905699 271.8144 
L 140.905699 271.346648 
L 141.151022 271.346648 
L 141.151022 269.00789 
L 142.101521 269.00789 
L 142.101521 268.072386 
L 142.559347 268.072386 
L 142.559347 266.669131 
L 142.784148 266.669131 
L 142.784148 265.733628 
L 143.006295 265.733628 
L 143.006295 265.265876 
L 143.442869 265.265876 
L 143.442869 264.330372 
L 143.657415 264.330372 
L 143.657415 263.862621 
L 144.079302 263.862621 
L 144.079302 262.927117 
L 144.491935 262.927117 
L 144.491935 262.459366 
L 144.694906 262.459366 
L 144.694906 261.523862 
L 144.895711 261.523862 
L 144.895711 261.05611 
L 145.094395 261.05611 
L 145.094395 260.588359 
L 145.868787 260.588359 
L 145.868787 260.120607 
L 146.057504 260.120607 
L 146.057504 259.652855 
L 146.244347 259.652855 
L 146.244347 258.717352 
L 146.429353 258.717352 
L 146.429353 258.2496 
L 146.793994 258.2496 
L 146.793994 257.781848 
L 146.973697 257.781848 
L 146.973697 257.314097 
L 147.328035 257.314097 
L 147.328035 256.846345 
L 147.502732 256.846345 
L 147.502732 255.910841 
L 148.352679 255.910841 
L 148.352679 255.44309 
L 148.518156 255.44309 
L 148.518156 254.507586 
L 148.844805 254.507586 
L 148.844805 253.572083 
L 150.097474 253.572083 
L 150.097474 253.104331 
L 150.693856 253.104331 
L 150.693856 252.636579 
L 151.27191 252.636579 
L 151.27191 252.168828 
L 151.554409 252.168828 
L 151.554409 251.701076 
L 151.97036 251.701076 
L 151.97036 251.233324 
L 152.643804 251.233324 
L 152.643804 250.297821 
L 152.775647 250.297821 
L 152.775647 249.830069 
L 153.293969 249.830069 
L 153.293969 248.894566 
L 153.421349 248.894566 
L 153.421349 247.959062 
L 153.547871 247.959062 
L 153.547871 247.49131 
L 153.922412 247.49131 
L 153.922412 247.023559 
L 154.289641 247.023559 
L 154.289641 246.088055 
L 155.119618 246.088055 
L 155.119618 245.620303 
L 155.577951 245.620303 
L 155.577951 245.152552 
L 156.025382 245.152552 
L 156.025382 244.217048 
L 156.783658 244.217048 
L 156.783658 243.749297 
L 156.99481 243.749297 
L 156.99481 243.281545 
L 158.214248 243.281545 
L 158.214248 242.346041 
L 158.410018 242.346041 
L 158.410018 241.87829 
L 159.359426 241.87829 
L 159.359426 240.942786 
L 159.63515 240.942786 
L 159.63515 239.071779 
L 159.816746 239.071779 
L 159.906891 237.668524 
L 159.996606 237.668524 
L 159.996606 237.200772 
L 160.174762 237.200772 
L 160.174762 236.265269 
L 160.956223 236.265269 
L 160.956223 235.329766 
L 161.293384 235.329766 
L 161.293384 234.862014 
L 161.542347 234.862014 
L 161.542347 233.92651 
L 162.11076 233.92651 
L 162.11076 233.458759 
L 162.349204 233.458759 
L 162.349204 232.523255 
L 162.584664 232.523255 
L 162.584664 231.587752 
L 163.122872 231.587752 
L 163.122872 230.652248 
L 164.083299 230.652248 
L 164.083299 230.184497 
L 164.2268 230.184497 
L 164.2268 229.248993 
L 164.859342 229.248993 
L 164.859342 227.845738 
L 165.133786 227.845738 
L 165.133786 226.910234 
L 165.868492 226.910234 
L 165.868492 225.974731 
L 166.385358 225.974731 
L 166.385358 225.039228 
L 166.950346 225.039228 
L 166.950346 223.635972 
L 167.257048 223.635972 
L 167.257048 221.764966 
L 167.378342 221.764966 
L 167.438697 220.829462 
L 168.550116 220.829462 
L 168.550116 220.36171 
L 169.328985 220.36171 
L 169.328985 219.426207 
L 170.024438 219.426207 
L 170.076884 217.5552 
L 170.491273 217.5552 
L 170.491273 216.619697 
L 170.796182 216.619697 
L 170.89673 214.74869 
L 171.342661 214.74869 
L 171.440338 212.409931 
L 171.682333 212.409931 
L 171.682333 211.474428 
L 171.873712 211.474428 
L 171.873712 211.006676 
L 172.390182 211.006676 
L 172.390182 210.538924 
L 172.802449 210.538924 
L 172.802449 209.603421 
L 174.574026 209.603421 
L 174.656319 207.732414 
L 174.819834 207.732414 
L 174.901062 205.861407 
L 174.98194 205.861407 
L 174.98194 204.925903 
L 175.182628 204.925903 
L 175.182628 203.9904 
L 175.381197 203.9904 
L 175.460042 202.587145 
L 176.934932 202.587145 
L 176.934932 202.119393 
L 177.259475 202.119393 
L 177.330842 200.716138 
L 177.437387 200.716138 
L 177.472768 199.780634 
L 178.302547 199.780634 
L 178.302547 199.312883 
L 178.670965 199.312883 
L 178.770203 197.441876 
L 178.999742 197.441876 
L 178.999742 196.974124 
L 180.771383 196.974124 
L 180.771383 196.506372 
L 181.094875 196.506372 
L 181.094875 196.038621 
L 181.269009 196.038621 
L 181.326697 195.103117 
L 183.006231 195.103117 
L 183.006231 194.635366 
L 183.704297 194.635366 
L 183.704297 194.167614 
L 183.931346 194.167614 
L 183.931346 193.699862 
L 184.229876 193.699862 
L 184.229876 193.23211 
L 184.572278 193.23211 
L 184.572278 192.764359 
L 185.401969 192.764359 
L 185.401969 192.296607 
L 188.613312 192.296607 
L 188.613312 191.828855 
L 191.62401 191.828855 
L 191.62401 191.361103 
L 192.407135 191.361103 
L 192.407135 190.893352 
L 192.818097 190.893352 
L 192.818097 190.4256 
L 193.38787 190.4256 
L 193.38787 189.490097 
L 194.291105 189.490097 
L 194.291105 189.022345 
L 195.697391 189.022345 
L 195.697391 188.554593 
L 360.8064 188.554593 
L 360.8064 188.554593 
" style="fill: none; stroke: #ff00ff; stroke-width: 1.5; stroke-linecap: square"/>
   </g>
   <g id="line2d_41">
    <defs>
     <path id="m15ddbebfb9" d="M -0 8.485281 
L 5.091169 0 
L 0 -8.485281 
L -5.091169 -0 
z
" style="stroke: #ff00ff; stroke-width: 1.5; stroke-linejoin: miter"/>
    </defs>
    <g>
     <use xlink:href="#m15ddbebfb9" x="166.385358" y="225.039228" style="fill-opacity: 0; stroke: #ff00ff; stroke-width: 1.5; stroke-linejoin: miter"/>
     <use xlink:href="#m15ddbebfb9" x="195.697391" y="189.022345" style="fill-opacity: 0; stroke: #ff00ff; stroke-width: 1.5; stroke-linejoin: miter"/>
     <use xlink:href="#m15ddbebfb9" x="195.697391" y="188.554593" style="fill-opacity: 0; stroke: #ff00ff; stroke-width: 1.5; stroke-linejoin: miter"/>
     <use xlink:href="#m15ddbebfb9" x="195.697391" y="188.554593" style="fill-opacity: 0; stroke: #ff00ff; stroke-width: 1.5; stroke-linejoin: miter"/>
     <use xlink:href="#m15ddbebfb9" x="360.8064" y="188.554593" style="fill-opacity: 0; stroke: #ff00ff; stroke-width: 1.5; stroke-linejoin: miter"/>
    </g>
   </g>
   <g id="line2d_42">
    <path style="fill: none; stroke: #ff00ff; stroke-width: 1.5; stroke-linecap: square"/>
    <g/>
   </g>
   <g id="line2d_43">
    <path d="M 230.861176 188.554593 
" clip-path="url(#pc8285602b6)" style="fill: none; stroke: #ff00ff; stroke-width: 1.5; stroke-linecap: square"/>
    <defs>
     <path id="m3e31a3e9a9" d="M -12 12 
L 12 -12 
M -12 -12 
L 12 12 
" style="stroke: #ff00ff"/>
    </defs>
    <g clip-path="url(#pc8285602b6)">
     <use xlink:href="#m3e31a3e9a9" x="230.861176" y="188.554593" style="fill: #ff00ff; stroke: #ff00ff"/>
    </g>
   </g>
   <g id="line2d_44">
    <path d="M 360.8064 189.022345 
L 380.514816 293.51808 
" style="fill: none; stroke: #000080; stroke-width: 1.5; stroke-linecap: square"/>
    <g>
     <use xlink:href="#md5cf54423d" x="360.8064" y="189.022345" style="fill-opacity: 0; stroke: #000080; stroke-width: 1.5"/>
     <use xlink:href="#md5cf54423d" x="380.514816" y="293.51808" style="fill-opacity: 0; stroke: #000080; stroke-width: 1.5"/>
    </g>
   </g>
   <g id="line2d_45">
    <path d="M 360.8064 188.554593 
L 380.514816 163.296 
" style="fill: none; stroke: #ff00ff; stroke-width: 1.5; stroke-linecap: square"/>
    <g>
     <use xlink:href="#m15ddbebfb9" x="360.8064" y="188.554593" style="fill-opacity: 0; stroke: #ff00ff; stroke-width: 1.5; stroke-linejoin: miter"/>
     <use xlink:href="#m15ddbebfb9" x="380.514816" y="163.296" style="fill-opacity: 0; stroke: #ff00ff; stroke-width: 1.5; stroke-linejoin: miter"/>
    </g>
   </g>
   <g id="line2d_46">
    <path d="M 360.8064 298.944 
L 360.8064 27.648 
" style="fill: none; stroke: #000000; stroke-width: 1.5; stroke-linecap: square"/>
   </g>
   <g id="patch_3">
    <path d="M 57.6 298.944 
L 360.8064 298.944 
" style="fill: none; stroke: #000000; stroke-width: 0.8; stroke-linejoin: miter; stroke-linecap: square"/>
   </g>
   <g id="patch_4">
    <path d="M 57.6 27.648 
L 360.8064 27.648 
" style="fill: none; stroke: #000000; stroke-width: 0.8; stroke-linejoin: miter; stroke-linecap: square"/>
   </g>
   <g id="text_13">
    <!-- kerLQ -->
    <g transform="translate(386.578944 297.381205) scale(0.14 -0.14)">
     <defs>
      <path id="DejaVuSans-6b" d="M 581 4863 
L 1159 4863 
L 1159 1991 
L 2875 3500 
L 3609 3500 
L 1753 1863 
L 3688 0 
L 2938 0 
L 1159 1709 
L 1159 0 
L 581 0 
L 581 4863 
z
" transform="scale(0.015625)"/>
      <path id="DejaVuSans-4c" d="M 628 4666 
L 1259 4666 
L 1259 531 
L 3531 531 
L 3531 0 
L 628 0 
L 628 4666 
z
" transform="scale(0.015625)"/>
      <path id="DejaVuSans-51" d="M 2522 4238 
Q 1834 4238 1429 3725 
Q 1025 3213 1025 2328 
Q 1025 1447 1429 934 
Q 1834 422 2522 422 
Q 3209 422 3611 934 
Q 4013 1447 4013 2328 
Q 4013 3213 3611 3725 
Q 3209 4238 2522 4238 
z
M 3406 84 
L 4238 -825 
L 3475 -825 
L 2784 -78 
Q 2681 -84 2626 -87 
Q 2572 -91 2522 -91 
Q 1538 -91 948 567 
Q 359 1225 359 2328 
Q 359 3434 948 4092 
Q 1538 4750 2522 4750 
Q 3503 4750 4090 4092 
Q 4678 3434 4678 2328 
Q 4678 1516 4351 937 
Q 4025 359 3406 84 
z
" transform="scale(0.015625)"/>
     </defs>
     <use xlink:href="#DejaVuSans-6b"/>
     <use xlink:href="#DejaVuSans-65" x="54.285156"/>
     <use xlink:href="#DejaVuSans-72" x="115.808594"/>
     <use xlink:href="#DejaVuSans-4c" x="156.921875"/>
     <use xlink:href="#DejaVuSans-51" x="212.634766"/>
    </g>
   </g>
   <g id="text_14">
    <!-- kerComo -->
    <g transform="translate(386.578944 167.159125) scale(0.14 -0.14)">
     <defs>
      <path id="DejaVuSans-43" d="M 4122 4306 
L 4122 3641 
Q 3803 3938 3442 4084 
Q 3081 4231 2675 4231 
Q 1875 4231 1450 3742 
Q 1025 3253 1025 2328 
Q 1025 1406 1450 917 
Q 1875 428 2675 428 
Q 3081 428 3442 575 
Q 3803 722 4122 1019 
L 4122 359 
Q 3791 134 3420 21 
Q 3050 -91 2638 -91 
Q 1578 -91 968 557 
Q 359 1206 359 2328 
Q 359 3453 968 4101 
Q 1578 4750 2638 4750 
Q 3056 4750 3426 4639 
Q 3797 4528 4122 4306 
z
" transform="scale(0.015625)"/>
     </defs>
     <use xlink:href="#DejaVuSans-6b"/>
     <use xlink:href="#DejaVuSans-65" x="54.285156"/>
     <use xlink:href="#DejaVuSans-72" x="115.808594"/>
     <use xlink:href="#DejaVuSans-43" x="156.921875"/>
     <use xlink:href="#DejaVuSans-6f" x="226.746094"/>
     <use xlink:href="#DejaVuSans-6d" x="287.927734"/>
     <use xlink:href="#DejaVuSans-6f" x="385.339844"/>
    </g>
   </g>
   <g id="text_15">
    <!-- best 2016 -->
    <g transform="translate(386.578944 36.937045) scale(0.14 -0.14)">
     <defs>
      <path id="DejaVuSans-62" d="M 3116 1747 
Q 3116 2381 2855 2742 
Q 2594 3103 2138 3103 
Q 1681 3103 1420 2742 
Q 1159 2381 1159 1747 
Q 1159 1113 1420 752 
Q 1681 391 2138 391 
Q 2594 391 2855 752 
Q 3116 1113 3116 1747 
z
M 1159 2969 
Q 1341 3281 1617 3432 
Q 1894 3584 2278 3584 
Q 2916 3584 3314 3078 
Q 3713 2572 3713 1747 
Q 3713 922 3314 415 
Q 2916 -91 2278 -91 
Q 1894 -91 1617 61 
Q 1341 213 1159 525 
L 1159 0 
L 581 0 
L 581 4863 
L 1159 4863 
L 1159 2969 
z
" transform="scale(0.015625)"/>
     </defs>
     <use xlink:href="#DejaVuSans-62"/>
     <use xlink:href="#DejaVuSans-65" x="63.476562"/>
     <use xlink:href="#DejaVuSans-73" x="125"/>
     <use xlink:href="#DejaVuSans-74" x="177.099609"/>
     <use xlink:href="#DejaVuSans-20" x="216.308594"/>
     <use xlink:href="#DejaVuSans-32" x="248.095703"/>
     <use xlink:href="#DejaVuSans-30" x="311.71875"/>
     <use xlink:href="#DejaVuSans-31" x="375.341797"/>
     <use xlink:href="#DejaVuSans-36" x="438.964844"/>
    </g>
   </g>
   <g id="text_16">
    <!-- bbob-biobj f4, 10-D -->
    <g transform="translate(60.632064 38.111366) scale(0.102 -0.102)">
     <defs>
      <path id="DejaVuSans-6a" d="M 603 3500 
L 1178 3500 
L 1178 -63 
Q 1178 -731 923 -1031 
Q 669 -1331 103 -1331 
L -116 -1331 
L -116 -844 
L 38 -844 
Q 366 -844 484 -692 
Q 603 -541 603 -63 
L 603 3500 
z
M 603 4863 
L 1178 4863 
L 1178 4134 
L 603 4134 
L 603 4863 
z
" transform="scale(0.015625)"/>
      <path id="DejaVuSans-44" d="M 1259 4147 
L 1259 519 
L 2022 519 
Q 2988 519 3436 956 
Q 3884 1394 3884 2338 
Q 3884 3275 3436 3711 
Q 2988 4147 2022 4147 
L 1259 4147 
z
M 628 4666 
L 1925 4666 
Q 3281 4666 3915 4102 
Q 4550 3538 4550 2338 
Q 4550 1131 3912 565 
Q 3275 0 1925 0 
L 628 0 
L 628 4666 
z
" transform="scale(0.015625)"/>
     </defs>
     <use xlink:href="#DejaVuSans-62"/>
     <use xlink:href="#DejaVuSans-62" x="63.476562"/>
     <use xlink:href="#DejaVuSans-6f" x="126.953125"/>
     <use xlink:href="#DejaVuSans-62" x="188.134766"/>
     <use xlink:href="#DejaVuSans-2d" x="251.611328"/>
     <use xlink:href="#DejaVuSans-62" x="287.695312"/>
     <use xlink:href="#DejaVuSans-69" x="351.171875"/>
     <use xlink:href="#DejaVuSans-6f" x="378.955078"/>
     <use xlink:href="#DejaVuSans-62" x="440.136719"/>
     <use xlink:href="#DejaVuSans-6a" x="503.613281"/>
     <use xlink:href="#DejaVuSans-20" x="531.396484"/>
     <use xlink:href="#DejaVuSans-66" x="563.183594"/>
     <use xlink:href="#DejaVuSans-34" x="598.388672"/>
     <use xlink:href="#DejaVuSans-2c" x="662.011719"/>
     <use xlink:href="#DejaVuSans-20" x="693.798828"/>
     <use xlink:href="#DejaVuSans-31" x="725.585938"/>
     <use xlink:href="#DejaVuSans-30" x="789.208984"/>
     <use xlink:href="#DejaVuSans-2d" x="852.832031"/>
     <use xlink:href="#DejaVuSans-44" x="888.916016"/>
    </g>
    <!-- 58 targets: 1..-1.0e-4 -->
    <g transform="translate(60.632064 49.533135) scale(0.102 -0.102)">
     <defs>
      <path id="DejaVuSans-35" d="M 691 4666 
L 3169 4666 
L 3169 4134 
L 1269 4134 
L 1269 2991 
Q 1406 3038 1543 3061 
Q 1681 3084 1819 3084 
Q 2600 3084 3056 2656 
Q 3513 2228 3513 1497 
Q 3513 744 3044 326 
Q 2575 -91 1722 -91 
Q 1428 -91 1123 -41 
Q 819 9 494 109 
L 494 744 
Q 775 591 1075 516 
Q 1375 441 1709 441 
Q 2250 441 2565 725 
Q 2881 1009 2881 1497 
Q 2881 1984 2565 2268 
Q 2250 2553 1709 2553 
Q 1456 2553 1204 2497 
Q 953 2441 691 2322 
L 691 4666 
z
" transform="scale(0.015625)"/>
      <path id="DejaVuSans-3a" d="M 750 794 
L 1409 794 
L 1409 0 
L 750 0 
L 750 794 
z
M 750 3309 
L 1409 3309 
L 1409 2516 
L 750 2516 
L 750 3309 
z
" transform="scale(0.015625)"/>
     </defs>
     <use xlink:href="#DejaVuSans-35"/>
     <use xlink:href="#DejaVuSans-38" x="63.623047"/>
     <use xlink:href="#DejaVuSans-20" x="127.246094"/>
     <use xlink:href="#DejaVuSans-74" x="159.033203"/>
     <use xlink:href="#DejaVuSans-61" x="198.242188"/>
     <use xlink:href="#DejaVuSans-72" x="259.521484"/>
     <use xlink:href="#DejaVuSans-67" x="298.884766"/>
     <use xlink:href="#DejaVuSans-65" x="362.361328"/>
     <use xlink:href="#DejaVuSans-74" x="423.884766"/>
     <use xlink:href="#DejaVuSans-73" x="463.09375"/>
     <use xlink:href="#DejaVuSans-3a" x="515.193359"/>
     <use xlink:href="#DejaVuSans-20" x="548.884766"/>
     <use xlink:href="#DejaVuSans-31" x="580.671875"/>
     <use xlink:href="#DejaVuSans-2e" x="644.294922"/>
     <use xlink:href="#DejaVuSans-2e" x="676.082031"/>
     <use xlink:href="#DejaVuSans-2d" x="707.869141"/>
     <use xlink:href="#DejaVuSans-31" x="743.953125"/>
     <use xlink:href="#DejaVuSans-2e" x="807.576172"/>
     <use xlink:href="#DejaVuSans-30" x="839.363281"/>
     <use xlink:href="#DejaVuSans-65" x="902.986328"/>
     <use xlink:href="#DejaVuSans-2d" x="964.509766"/>
     <use xlink:href="#DejaVuSans-34" x="1000.59375"/>
    </g>
    <!-- 10 instances -->
    <g transform="translate(60.632064 60.954904) scale(0.102 -0.102)">
     <use xlink:href="#DejaVuSans-31"/>
     <use xlink:href="#DejaVuSans-30" x="63.623047"/>
     <use xlink:href="#DejaVuSans-20" x="127.246094"/>
     <use xlink:href="#DejaVuSans-69" x="159.033203"/>
     <use xlink:href="#DejaVuSans-6e" x="186.816406"/>
     <use xlink:href="#DejaVuSans-73" x="250.195312"/>
     <use xlink:href="#DejaVuSans-74" x="302.294922"/>
     <use xlink:href="#DejaVuSans-61" x="341.503906"/>
     <use xlink:href="#DejaVuSans-6e" x="402.783203"/>
     <use xlink:href="#DejaVuSans-63" x="466.162109"/>
     <use xlink:href="#DejaVuSans-65" x="521.142578"/>
     <use xlink:href="#DejaVuSans-73" x="582.666016"/>
    </g>
   </g>
   <g id="text_17">
    <!-- v2.6, hv-hash=ff0e71e8cd978373 -->
    <g style="fill: #808080" transform="translate(123.707887 294.151352) scale(0.1 -0.1)">
     <defs>
      <path id="DejaVuSans-68" d="M 3513 2113 
L 3513 0 
L 2938 0 
L 2938 2094 
Q 2938 2591 2744 2837 
Q 2550 3084 2163 3084 
Q 1697 3084 1428 2787 
Q 1159 2491 1159 1978 
L 1159 0 
L 581 0 
L 581 4863 
L 1159 4863 
L 1159 2956 
Q 1366 3272 1645 3428 
Q 1925 3584 2291 3584 
Q 2894 3584 3203 3211 
Q 3513 2838 3513 2113 
z
" transform="scale(0.015625)"/>
      <path id="DejaVuSans-3d" d="M 678 2906 
L 4684 2906 
L 4684 2381 
L 678 2381 
L 678 2906 
z
M 678 1631 
L 4684 1631 
L 4684 1100 
L 678 1100 
L 678 1631 
z
" transform="scale(0.015625)"/>
      <path id="DejaVuSans-37" d="M 525 4666 
L 3525 4666 
L 3525 4397 
L 1831 0 
L 1172 0 
L 2766 4134 
L 525 4134 
L 525 4666 
z
" transform="scale(0.015625)"/>
      <path id="DejaVuSans-39" d="M 703 97 
L 703 672 
Q 941 559 1184 500 
Q 1428 441 1663 441 
Q 2288 441 2617 861 
Q 2947 1281 2994 2138 
Q 2813 1869 2534 1725 
Q 2256 1581 1919 1581 
Q 1219 1581 811 2004 
Q 403 2428 403 3163 
Q 403 3881 828 4315 
Q 1253 4750 1959 4750 
Q 2769 4750 3195 4129 
Q 3622 3509 3622 2328 
Q 3622 1225 3098 567 
Q 2575 -91 1691 -91 
Q 1453 -91 1209 -44 
Q 966 3 703 97 
z
M 1959 2075 
Q 2384 2075 2632 2365 
Q 2881 2656 2881 3163 
Q 2881 3666 2632 3958 
Q 2384 4250 1959 4250 
Q 1534 4250 1286 3958 
Q 1038 3666 1038 3163 
Q 1038 2656 1286 2365 
Q 1534 2075 1959 2075 
z
" transform="scale(0.015625)"/>
      <path id="DejaVuSans-33" d="M 2597 2516 
Q 3050 2419 3304 2112 
Q 3559 1806 3559 1356 
Q 3559 666 3084 287 
Q 2609 -91 1734 -91 
Q 1441 -91 1130 -33 
Q 819 25 488 141 
L 488 750 
Q 750 597 1062 519 
Q 1375 441 1716 441 
Q 2309 441 2620 675 
Q 2931 909 2931 1356 
Q 2931 1769 2642 2001 
Q 2353 2234 1838 2234 
L 1294 2234 
L 1294 2753 
L 1863 2753 
Q 2328 2753 2575 2939 
Q 2822 3125 2822 3475 
Q 2822 3834 2567 4026 
Q 2313 4219 1838 4219 
Q 1578 4219 1281 4162 
Q 984 4106 628 3988 
L 628 4550 
Q 988 4650 1302 4700 
Q 1616 4750 1894 4750 
Q 2613 4750 3031 4423 
Q 3450 4097 3450 3541 
Q 3450 3153 3228 2886 
Q 3006 2619 2597 2516 
z
" transform="scale(0.015625)"/>
     </defs>
     <use xlink:href="#DejaVuSans-76"/>
     <use xlink:href="#DejaVuSans-32" x="59.179688"/>
     <use xlink:href="#DejaVuSans-2e" x="122.802734"/>
     <use xlink:href="#DejaVuSans-36" x="154.589844"/>
     <use xlink:href="#DejaVuSans-2c" x="218.212891"/>
     <use xlink:href="#DejaVuSans-20" x="250"/>
     <use xlink:href="#DejaVuSans-68" x="281.787109"/>
     <use xlink:href="#DejaVuSans-76" x="345.166016"/>
     <use xlink:href="#DejaVuSans-2d" x="401.720703"/>
     <use xlink:href="#DejaVuSans-68" x="437.804688"/>
     <use xlink:href="#DejaVuSans-61" x="501.183594"/>
     <use xlink:href="#DejaVuSans-73" x="562.462891"/>
     <use xlink:href="#DejaVuSans-68" x="614.5625"/>
     <use xlink:href="#DejaVuSans-3d" x="677.941406"/>
     <use xlink:href="#DejaVuSans-66" x="761.730469"/>
     <use xlink:href="#DejaVuSans-66" x="796.935547"/>
     <use xlink:href="#DejaVuSans-30" x="832.140625"/>
     <use xlink:href="#DejaVuSans-65" x="895.763672"/>
     <use xlink:href="#DejaVuSans-37" x="957.287109"/>
     <use xlink:href="#DejaVuSans-31" x="1020.910156"/>
     <use xlink:href="#DejaVuSans-65" x="1084.533203"/>
     <use xlink:href="#DejaVuSans-38" x="1146.056641"/>
     <use xlink:href="#DejaVuSans-63" x="1209.679688"/>
     <use xlink:href="#DejaVuSans-64" x="1264.660156"/>
     <use xlink:href="#DejaVuSans-39" x="1328.136719"/>
     <use xlink:href="#DejaVuSans-37" x="1391.759766"/>
     <use xlink:href="#DejaVuSans-38" x="1455.382812"/>
     <use xlink:href="#DejaVuSans-33" x="1519.005859"/>
     <use xlink:href="#DejaVuSans-37" x="1582.628906"/>
     <use xlink:href="#DejaVuSans-33" x="1646.251953"/>
    </g>
   </g>
   <g id="text_18">
    <!-- 4 Sphere/Rosenbrock -->
    <g transform="translate(103.107887 21.648) scale(0.2 -0.2)">
     <defs>
      <path id="DejaVuSans-53" d="M 3425 4513 
L 3425 3897 
Q 3066 4069 2747 4153 
Q 2428 4238 2131 4238 
Q 1616 4238 1336 4038 
Q 1056 3838 1056 3469 
Q 1056 3159 1242 3001 
Q 1428 2844 1947 2747 
L 2328 2669 
Q 3034 2534 3370 2195 
Q 3706 1856 3706 1288 
Q 3706 609 3251 259 
Q 2797 -91 1919 -91 
Q 1588 -91 1214 -16 
Q 841 59 441 206 
L 441 856 
Q 825 641 1194 531 
Q 1563 422 1919 422 
Q 2459 422 2753 634 
Q 3047 847 3047 1241 
Q 3047 1584 2836 1778 
Q 2625 1972 2144 2069 
L 1759 2144 
Q 1053 2284 737 2584 
Q 422 2884 422 3419 
Q 422 4038 858 4394 
Q 1294 4750 2059 4750 
Q 2388 4750 2728 4690 
Q 3069 4631 3425 4513 
z
" transform="scale(0.015625)"/>
      <path id="DejaVuSans-52" d="M 2841 2188 
Q 3044 2119 3236 1894 
Q 3428 1669 3622 1275 
L 4263 0 
L 3584 0 
L 2988 1197 
Q 2756 1666 2539 1819 
Q 2322 1972 1947 1972 
L 1259 1972 
L 1259 0 
L 628 0 
L 628 4666 
L 2053 4666 
Q 2853 4666 3247 4331 
Q 3641 3997 3641 3322 
Q 3641 2881 3436 2590 
Q 3231 2300 2841 2188 
z
M 1259 4147 
L 1259 2491 
L 2053 2491 
Q 2509 2491 2742 2702 
Q 2975 2913 2975 3322 
Q 2975 3731 2742 3939 
Q 2509 4147 2053 4147 
L 1259 4147 
z
" transform="scale(0.015625)"/>
     </defs>
     <use xlink:href="#DejaVuSans-34"/>
     <use xlink:href="#DejaVuSans-20" x="63.623047"/>
     <use xlink:href="#DejaVuSans-53" x="95.410156"/>
     <use xlink:href="#DejaVuSans-70" x="158.886719"/>
     <use xlink:href="#DejaVuSans-68" x="222.363281"/>
     <use xlink:href="#DejaVuSans-65" x="285.742188"/>
     <use xlink:href="#DejaVuSans-72" x="347.265625"/>
     <use xlink:href="#DejaVuSans-65" x="386.128906"/>
     <use xlink:href="#DejaVuSans-2f" x="447.652344"/>
     <use xlink:href="#DejaVuSans-52" x="481.34375"/>
     <use xlink:href="#DejaVuSans-6f" x="546.326172"/>
     <use xlink:href="#DejaVuSans-73" x="607.507812"/>
     <use xlink:href="#DejaVuSans-65" x="659.607422"/>
     <use xlink:href="#DejaVuSans-6e" x="721.130859"/>
     <use xlink:href="#DejaVuSans-62" x="784.509766"/>
     <use xlink:href="#DejaVuSans-72" x="847.986328"/>
     <use xlink:href="#DejaVuSans-6f" x="886.849609"/>
     <use xlink:href="#DejaVuSans-63" x="948.03125"/>
     <use xlink:href="#DejaVuSans-6b" x="1003.011719"/>
    </g>
   </g>
  </g>
 </g>
 <defs>
  <clipPath id="pc8285602b6">
   <rect x="57.6" y="27.648" width="303.2064" height="271.296"/>
  </clipPath>
 </defs>
</svg>
