<?xml version="1.0" encoding="utf-8" standalone="no"?>
<!DOCTYPE svg PUBLIC "-//W3C//DTD SVG 1.1//EN"
  "http://www.w3.org/Graphics/SVG/1.1/DTD/svg11.dtd">
<svg xmlns:xlink="http://www.w3.org/1999/xlink" width="460.8pt" height="345.6pt" viewBox="0 0 460.8 345.6" xmlns="http://www.w3.org/2000/svg" version="1.1">
 <metadata>
  <rdf:RDF xmlns:dc="http://purl.org/dc/elements/1.1/" xmlns:cc="http://creativecommons.org/ns#" xmlns:rdf="http://www.w3.org/1999/02/22-rdf-syntax-ns#">
   <cc:Work>
    <dc:type rdf:resource="http://purl.org/dc/dcmitype/StillImage"/>
    <dc:date>2023-02-16T10:14:16.890304</dc:date>
    <dc:format>image/svg+xml</dc:format>
    <dc:creator>
     <cc:Agent>
      <dc:title>Matplotlib v3.6.3, https://matplotlib.org/</dc:title>
     </cc:Agent>
    </dc:creator>
   </cc:Work>
  </rdf:RDF>
 </metadata>
 <defs>
  <style type="text/css">*{stroke-linejoin: round; stroke-linecap: butt}</style>
 </defs>
 <g id="figure_1">
  <g id="patch_1">
   <path d="M 0 345.6 
L 460.8 345.6 
L 460.8 0 
L 0 0 
z
" style="fill: #ffffff"/>
  </g>
  <g id="axes_1">
   <g id="patch_2">
    <path d="M 0 293.76 
L 460.8 293.76 
L 460.8 3.456 
L 0 3.456 
z
" style="fill: #ffffff"/>
   </g>
   <g id="matplotlib.axis_1">
    <g id="xtick_1">
     <g id="line2d_1">
      <path d="M 103.494379 293.76 
L 103.494379 3.456 
" clip-path="url(#p07a0f0473f)" style="fill: none; stroke: #b0b0b0; stroke-width: 0.8; stroke-linecap: square"/>
     </g>
     <g id="line2d_2">
      <defs>
       <path id="m38aeac3e1e" d="M 0 0 
L 0 3.5 
" style="stroke: #000000; stroke-width: 0.8"/>
      </defs>
      <g>
       <use xlink:href="#m38aeac3e1e" x="103.494379" y="293.76" style="stroke: #000000; stroke-width: 0.8"/>
      </g>
     </g>
     <g id="text_1">
      <!-- -6 -->
      <g transform="translate(93.524066 315.956875) scale(0.2 -0.2)">
       <defs>
        <path id="DejaVuSans-2d" d="M 313 2009 
L 1997 2009 
L 1997 1497 
L 313 1497 
L 313 2009 
z
" transform="scale(0.015625)"/>
        <path id="DejaVuSans-36" d="M 2113 2584 
Q 1688 2584 1439 2293 
Q 1191 2003 1191 1497 
Q 1191 994 1439 701 
Q 1688 409 2113 409 
Q 2538 409 2786 701 
Q 3034 994 3034 1497 
Q 3034 2003 2786 2293 
Q 2538 2584 2113 2584 
z
M 3366 4563 
L 3366 3988 
Q 3128 4100 2886 4159 
Q 2644 4219 2406 4219 
Q 1781 4219 1451 3797 
Q 1122 3375 1075 2522 
Q 1259 2794 1537 2939 
Q 1816 3084 2150 3084 
Q 2853 3084 3261 2657 
Q 3669 2231 3669 1497 
Q 3669 778 3244 343 
Q 2819 -91 2113 -91 
Q 1303 -91 875 529 
Q 447 1150 447 2328 
Q 447 3434 972 4092 
Q 1497 4750 2381 4750 
Q 2619 4750 2861 4703 
Q 3103 4656 3366 4563 
z
" transform="scale(0.015625)"/>
       </defs>
       <use xlink:href="#DejaVuSans-2d"/>
       <use xlink:href="#DejaVuSans-36" x="36.083984"/>
      </g>
     </g>
    </g>
    <g id="xtick_2">
     <g id="line2d_3">
      <path d="M 207.212861 293.76 
L 207.212861 3.456 
" clip-path="url(#p07a0f0473f)" style="fill: none; stroke: #b0b0b0; stroke-width: 0.8; stroke-linecap: square"/>
     </g>
     <g id="line2d_4">
      <g>
       <use xlink:href="#m38aeac3e1e" x="207.212861" y="293.76" style="stroke: #000000; stroke-width: 0.8"/>
      </g>
     </g>
     <g id="text_2">
      <!-- -4 -->
      <g transform="translate(197.242548 315.956875) scale(0.2 -0.2)">
       <defs>
        <path id="DejaVuSans-34" d="M 2419 4116 
L 825 1625 
L 2419 1625 
L 2419 4116 
z
M 2253 4666 
L 3047 4666 
L 3047 1625 
L 3713 1625 
L 3713 1100 
L 3047 1100 
L 3047 0 
L 2419 0 
L 2419 1100 
L 313 1100 
L 313 1709 
L 2253 4666 
z
" transform="scale(0.015625)"/>
       </defs>
       <use xlink:href="#DejaVuSans-2d"/>
       <use xlink:href="#DejaVuSans-34" x="36.083984"/>
      </g>
     </g>
    </g>
    <g id="xtick_3">
     <g id="line2d_5">
      <path d="M 310.931343 293.76 
L 310.931343 3.456 
" clip-path="url(#p07a0f0473f)" style="fill: none; stroke: #b0b0b0; stroke-width: 0.8; stroke-linecap: square"/>
     </g>
     <g id="line2d_6">
      <g>
       <use xlink:href="#m38aeac3e1e" x="310.931343" y="293.76" style="stroke: #000000; stroke-width: 0.8"/>
      </g>
     </g>
     <g id="text_3">
      <!-- -2 -->
      <g transform="translate(300.96103 315.956875) scale(0.2 -0.2)">
       <defs>
        <path id="DejaVuSans-32" d="M 1228 531 
L 3431 531 
L 3431 0 
L 469 0 
L 469 531 
Q 828 903 1448 1529 
Q 2069 2156 2228 2338 
Q 2531 2678 2651 2914 
Q 2772 3150 2772 3378 
Q 2772 3750 2511 3984 
Q 2250 4219 1831 4219 
Q 1534 4219 1204 4116 
Q 875 4013 500 3803 
L 500 4441 
Q 881 4594 1212 4672 
Q 1544 4750 1819 4750 
Q 2544 4750 2975 4387 
Q 3406 4025 3406 3419 
Q 3406 3131 3298 2873 
Q 3191 2616 2906 2266 
Q 2828 2175 2409 1742 
Q 1991 1309 1228 531 
z
" transform="scale(0.015625)"/>
       </defs>
       <use xlink:href="#DejaVuSans-2d"/>
       <use xlink:href="#DejaVuSans-32" x="36.083984"/>
      </g>
     </g>
    </g>
    <g id="xtick_4">
     <g id="line2d_7">
      <path d="M 414.649825 293.76 
L 414.649825 3.456 
" clip-path="url(#p07a0f0473f)" style="fill: none; stroke: #b0b0b0; stroke-width: 0.8; stroke-linecap: square"/>
     </g>
     <g id="line2d_8">
      <g>
       <use xlink:href="#m38aeac3e1e" x="414.649825" y="293.76" style="stroke: #000000; stroke-width: 0.8"/>
      </g>
     </g>
     <g id="text_4">
      <!-- 0 -->
      <g transform="translate(408.287325 315.956875) scale(0.2 -0.2)">
       <defs>
        <path id="DejaVuSans-30" d="M 2034 4250 
Q 1547 4250 1301 3770 
Q 1056 3291 1056 2328 
Q 1056 1369 1301 889 
Q 1547 409 2034 409 
Q 2525 409 2770 889 
Q 3016 1369 3016 2328 
Q 3016 3291 2770 3770 
Q 2525 4250 2034 4250 
z
M 2034 4750 
Q 2819 4750 3233 4129 
Q 3647 3509 3647 2328 
Q 3647 1150 3233 529 
Q 2819 -91 2034 -91 
Q 1250 -91 836 529 
Q 422 1150 422 2328 
Q 422 3509 836 4129 
Q 1250 4750 2034 4750 
z
" transform="scale(0.015625)"/>
       </defs>
       <use xlink:href="#DejaVuSans-30"/>
      </g>
     </g>
    </g>
    <g id="text_5">
     <!-- log10 of Df -->
     <g transform="translate(175.214063 339.313125) scale(0.2 -0.2)">
      <defs>
       <path id="DejaVuSans-6c" d="M 603 4863 
L 1178 4863 
L 1178 0 
L 603 0 
L 603 4863 
z
" transform="scale(0.015625)"/>
       <path id="DejaVuSans-6f" d="M 1959 3097 
Q 1497 3097 1228 2736 
Q 959 2375 959 1747 
Q 959 1119 1226 758 
Q 1494 397 1959 397 
Q 2419 397 2687 759 
Q 2956 1122 2956 1747 
Q 2956 2369 2687 2733 
Q 2419 3097 1959 3097 
z
M 1959 3584 
Q 2709 3584 3137 3096 
Q 3566 2609 3566 1747 
Q 3566 888 3137 398 
Q 2709 -91 1959 -91 
Q 1206 -91 779 398 
Q 353 888 353 1747 
Q 353 2609 779 3096 
Q 1206 3584 1959 3584 
z
" transform="scale(0.015625)"/>
       <path id="DejaVuSans-67" d="M 2906 1791 
Q 2906 2416 2648 2759 
Q 2391 3103 1925 3103 
Q 1463 3103 1205 2759 
Q 947 2416 947 1791 
Q 947 1169 1205 825 
Q 1463 481 1925 481 
Q 2391 481 2648 825 
Q 2906 1169 2906 1791 
z
M 3481 434 
Q 3481 -459 3084 -895 
Q 2688 -1331 1869 -1331 
Q 1566 -1331 1297 -1286 
Q 1028 -1241 775 -1147 
L 775 -588 
Q 1028 -725 1275 -790 
Q 1522 -856 1778 -856 
Q 2344 -856 2625 -561 
Q 2906 -266 2906 331 
L 2906 616 
Q 2728 306 2450 153 
Q 2172 0 1784 0 
Q 1141 0 747 490 
Q 353 981 353 1791 
Q 353 2603 747 3093 
Q 1141 3584 1784 3584 
Q 2172 3584 2450 3431 
Q 2728 3278 2906 2969 
L 2906 3500 
L 3481 3500 
L 3481 434 
z
" transform="scale(0.015625)"/>
       <path id="DejaVuSans-31" d="M 794 531 
L 1825 531 
L 1825 4091 
L 703 3866 
L 703 4441 
L 1819 4666 
L 2450 4666 
L 2450 531 
L 3481 531 
L 3481 0 
L 794 0 
L 794 531 
z
" transform="scale(0.015625)"/>
       <path id="DejaVuSans-20" transform="scale(0.015625)"/>
       <path id="DejaVuSans-66" d="M 2375 4863 
L 2375 4384 
L 1825 4384 
Q 1516 4384 1395 4259 
Q 1275 4134 1275 3809 
L 1275 3500 
L 2222 3500 
L 2222 3053 
L 1275 3053 
L 1275 0 
L 697 0 
L 697 3053 
L 147 3053 
L 147 3500 
L 697 3500 
L 697 3744 
Q 697 4328 969 4595 
Q 1241 4863 1831 4863 
L 2375 4863 
z
" transform="scale(0.015625)"/>
       <path id="DejaVuSans-44" d="M 1259 4147 
L 1259 519 
L 2022 519 
Q 2988 519 3436 956 
Q 3884 1394 3884 2338 
Q 3884 3275 3436 3711 
Q 2988 4147 2022 4147 
L 1259 4147 
z
M 628 4666 
L 1925 4666 
Q 3281 4666 3915 4102 
Q 4550 3538 4550 2338 
Q 4550 1131 3912 565 
Q 3275 0 1925 0 
L 628 0 
L 628 4666 
z
" transform="scale(0.015625)"/>
      </defs>
      <use xlink:href="#DejaVuSans-6c"/>
      <use xlink:href="#DejaVuSans-6f" x="27.783203"/>
      <use xlink:href="#DejaVuSans-67" x="88.964844"/>
      <use xlink:href="#DejaVuSans-31" x="152.441406"/>
      <use xlink:href="#DejaVuSans-30" x="216.064453"/>
      <use xlink:href="#DejaVuSans-20" x="279.6875"/>
      <use xlink:href="#DejaVuSans-6f" x="311.474609"/>
      <use xlink:href="#DejaVuSans-66" x="372.65625"/>
      <use xlink:href="#DejaVuSans-20" x="407.861328"/>
      <use xlink:href="#DejaVuSans-44" x="439.648438"/>
      <use xlink:href="#DejaVuSans-66" x="516.650391"/>
     </g>
    </g>
   </g>
   <g id="matplotlib.axis_2">
    <g id="ytick_1">
     <g id="line2d_9">
      <path d="M 0 293.76 
L 460.8 293.76 
" clip-path="url(#p07a0f0473f)" style="fill: none; stroke: #b0b0b0; stroke-width: 0.8; stroke-linecap: square"/>
     </g>
     <g id="line2d_10">
      <defs>
       <path id="m4c3b97761a" d="M 0 0 
L -3.5 0 
" style="stroke: #000000; stroke-width: 0.8"/>
      </defs>
      <g>
       <use xlink:href="#m4c3b97761a" x="0" y="293.76" style="stroke: #000000; stroke-width: 0.8"/>
      </g>
     </g>
    </g>
    <g id="ytick_2">
     <g id="line2d_11">
      <path d="M 0 236.274059 
L 460.8 236.274059 
" clip-path="url(#p07a0f0473f)" style="fill: none; stroke: #b0b0b0; stroke-width: 0.8; stroke-linecap: square"/>
     </g>
     <g id="line2d_12">
      <g>
       <use xlink:href="#m4c3b97761a" x="0" y="236.274059" style="stroke: #000000; stroke-width: 0.8"/>
      </g>
     </g>
    </g>
    <g id="ytick_3">
     <g id="line2d_13">
      <path d="M 0 178.788119 
L 460.8 178.788119 
" clip-path="url(#p07a0f0473f)" style="fill: none; stroke: #b0b0b0; stroke-width: 0.8; stroke-linecap: square"/>
     </g>
     <g id="line2d_14">
      <g>
       <use xlink:href="#m4c3b97761a" x="0" y="178.788119" style="stroke: #000000; stroke-width: 0.8"/>
      </g>
     </g>
    </g>
    <g id="ytick_4">
     <g id="line2d_15">
      <path d="M 0 121.302178 
L 460.8 121.302178 
" clip-path="url(#p07a0f0473f)" style="fill: none; stroke: #b0b0b0; stroke-width: 0.8; stroke-linecap: square"/>
     </g>
     <g id="line2d_16">
      <g>
       <use xlink:href="#m4c3b97761a" x="0" y="121.302178" style="stroke: #000000; stroke-width: 0.8"/>
      </g>
     </g>
    </g>
    <g id="ytick_5">
     <g id="line2d_17">
      <path d="M 0 63.816238 
L 460.8 63.816238 
" clip-path="url(#p07a0f0473f)" style="fill: none; stroke: #b0b0b0; stroke-width: 0.8; stroke-linecap: square"/>
     </g>
     <g id="line2d_18">
      <g>
       <use xlink:href="#m4c3b97761a" x="0" y="63.816238" style="stroke: #000000; stroke-width: 0.8"/>
      </g>
     </g>
    </g>
    <g id="ytick_6">
     <g id="line2d_19">
      <path d="M 0 6.330297 
L 460.8 6.330297 
" clip-path="url(#p07a0f0473f)" style="fill: none; stroke: #b0b0b0; stroke-width: 0.8; stroke-linecap: square"/>
     </g>
     <g id="line2d_20">
      <g>
       <use xlink:href="#m4c3b97761a" x="0" y="6.330297" style="stroke: #000000; stroke-width: 0.8"/>
      </g>
     </g>
    </g>
   </g>
   <g id="line2d_21">
    <path d="M 210.614514 293.76 
L 210.614514 293.237401 
L 213.043927 293.237401 
L 213.043927 292.714801 
L 220.812179 292.714801 
L 220.812179 292.192202 
L 221.28901 292.192202 
L 221.28901 291.669602 
L 221.735488 291.669602 
L 221.735488 291.147003 
L 224.682834 291.147003 
L 224.682834 290.624403 
L 229.373816 290.624403 
L 229.402762 289.579204 
L 230.029441 289.579204 
L 230.029441 289.056605 
L 230.351155 289.056605 
L 230.351155 288.534005 
L 230.919693 288.534005 
L 230.919693 288.011406 
L 231.122328 288.011406 
L 231.122328 287.488806 
L 231.364519 287.488806 
L 231.364519 286.966207 
L 233.958704 286.966207 
L 233.958704 286.443608 
L 236.591573 286.443608 
L 236.591573 285.921008 
L 237.274599 285.921008 
L 237.274599 285.398409 
L 238.684485 285.398409 
L 238.684485 284.875809 
L 242.700609 284.875809 
L 242.700609 284.35321 
L 243.525479 284.35321 
L 243.525479 283.83061 
L 244.208132 283.83061 
L 244.208132 283.308011 
L 245.982591 283.308011 
L 245.982591 282.785411 
L 247.35743 282.785411 
L 247.35743 282.262812 
L 248.017101 282.262812 
L 248.017101 281.740212 
L 248.707382 281.740212 
L 248.707382 281.217613 
L 251.38601 281.217613 
L 251.38601 280.695014 
L 252.721146 280.695014 
L 252.750602 279.649815 
L 253.733653 279.649815 
L 253.733653 279.127215 
L 254.696058 279.127215 
L 254.696058 278.604616 
L 257.037087 278.604616 
L 257.037087 278.082016 
L 257.341744 278.082016 
L 257.341744 277.559417 
L 257.917742 277.559417 
L 257.986841 275.991618 
L 258.710311 275.991618 
L 258.710311 275.469019 
L 260.289345 275.469019 
L 260.289345 274.946419 
L 262.482948 274.946419 
L 262.589148 273.378621 
L 263.349656 273.378621 
L 263.349656 272.856022 
L 263.757551 272.856022 
L 263.814076 271.810823 
L 264.568894 271.810823 
L 264.576791 270.765624 
L 264.811292 270.765624 
L 264.844214 269.720425 
L 264.982005 269.720425 
L 264.982005 269.197825 
L 267.107377 269.197825 
L 267.107377 268.675226 
L 267.793468 268.675226 
L 267.793468 268.152626 
L 269.082489 268.152626 
L 269.082489 267.630027 
L 269.63367 267.630027 
L 269.63367 267.107428 
L 271.333253 267.107428 
L 271.333253 266.584828 
L 271.686887 266.584828 
L 271.686887 266.062229 
L 271.800587 266.062229 
L 271.800587 265.539629 
L 272.077137 265.539629 
L 272.077137 265.01703 
L 272.729471 265.01703 
L 272.729471 264.49443 
L 273.073177 264.49443 
L 273.073177 263.971831 
L 273.33893 263.971831 
L 273.33893 263.449231 
L 273.621088 263.449231 
L 273.621088 262.926632 
L 274.116928 262.926632 
L 274.195624 261.881433 
L 274.696908 261.881433 
L 274.696908 261.358833 
L 275.44506 261.358833 
L 275.44506 260.836234 
L 275.814363 260.836234 
L 275.814363 260.313635 
L 277.138169 260.313635 
L 277.138169 259.791035 
L 277.467367 259.791035 
L 277.575756 258.745836 
L 277.641208 258.745836 
L 277.641208 258.223237 
L 278.134746 258.223237 
L 278.134746 257.700637 
L 278.691492 257.700637 
L 278.691492 257.178038 
L 279.040851 257.178038 
L 279.056342 256.132839 
L 279.743976 256.132839 
L 279.743976 255.610239 
L 279.887588 255.610239 
L 279.887588 255.08764 
L 280.070593 255.08764 
L 280.070593 254.565041 
L 280.511641 254.565041 
L 280.511641 254.042441 
L 280.751263 254.042441 
L 280.794855 252.997242 
L 280.912264 252.997242 
L 280.912264 252.474643 
L 281.42003 252.474643 
L 281.42003 251.952043 
L 282.019126 251.952043 
L 282.019126 251.429444 
L 282.83765 251.429444 
L 282.912918 250.384245 
L 283.479828 250.384245 
L 283.479828 249.861645 
L 283.692244 249.861645 
L 283.692244 249.339046 
L 284.180972 249.339046 
L 284.180972 248.816446 
L 284.318052 248.816446 
L 284.318052 248.293847 
L 284.608322 248.293847 
L 284.608322 247.771248 
L 285.994807 247.771248 
L 285.999211 246.726049 
L 286.270848 246.726049 
L 286.270848 246.203449 
L 286.699334 246.203449 
L 286.699334 245.68085 
L 287.012242 245.68085 
L 287.101481 244.635651 
L 287.193143 244.635651 
L 287.193143 244.113051 
L 287.391711 244.113051 
L 287.391711 243.590452 
L 288.14142 243.590452 
L 288.14142 243.067852 
L 288.302983 243.067852 
L 288.302983 242.545253 
L 288.799401 242.545253 
L 288.799401 242.022653 
L 288.942507 242.022653 
L 288.942507 241.500054 
L 289.183067 241.500054 
L 289.293588 239.932256 
L 289.322343 239.932256 
L 289.322343 239.409656 
L 290.533906 239.409656 
L 290.533906 238.887057 
L 290.659376 238.887057 
L 290.659376 238.364457 
L 290.972233 238.364457 
L 290.972233 237.841858 
L 291.341718 237.841858 
L 291.341718 237.319258 
L 291.816625 237.319258 
L 291.816625 236.796659 
L 292.566738 236.796659 
L 292.573944 235.75146 
L 292.750126 235.75146 
L 292.750126 235.22886 
L 293.000244 235.22886 
L 293.083651 234.183662 
L 293.133243 234.183662 
L 293.239368 233.138463 
L 293.29079 233.138463 
L 293.379367 232.093264 
L 293.414118 232.093264 
L 293.522847 230.525465 
L 293.892367 230.525465 
L 293.892367 230.002866 
L 294.231214 230.002866 
L 294.231214 229.480266 
L 294.586644 229.480266 
L 294.669933 228.435068 
L 294.737738 228.435068 
L 294.842646 226.867269 
L 295.11945 226.867269 
L 295.11945 226.34467 
L 295.369252 226.34467 
L 295.369252 225.82207 
L 295.990274 225.82207 
L 296.017827 224.776871 
L 296.329932 224.776871 
L 296.329932 224.254272 
L 296.788374 224.254272 
L 296.876552 223.209073 
L 296.964737 223.209073 
L 297.041419 222.163874 
L 297.548978 222.163874 
L 297.548978 221.641275 
L 297.76366 221.641275 
L 297.782177 220.596076 
L 297.882075 220.596076 
L 297.882075 220.073476 
L 298.014198 220.073476 
L 298.043181 219.028277 
L 298.236649 219.028277 
L 298.236649 218.505678 
L 298.385421 218.505678 
L 298.385421 217.983078 
L 298.697738 217.983078 
L 298.701201 216.937879 
L 298.850951 216.937879 
L 298.862685 215.89268 
L 298.972005 215.89268 
L 298.972005 215.370081 
L 299.119361 215.370081 
L 299.119361 214.847482 
L 299.434603 214.847482 
L 299.518296 213.279683 
L 299.930362 213.279683 
L 299.930362 212.757084 
L 300.488767 212.757084 
L 300.488767 212.234484 
L 300.644825 212.234484 
L 300.709406 210.666686 
L 301.250452 210.666686 
L 301.274257 209.621487 
L 301.381241 209.621487 
L 301.381241 209.098887 
L 301.548569 209.098887 
L 301.654365 208.053689 
L 301.787404 208.053689 
L 301.787404 207.531089 
L 301.929926 207.531089 
L 301.94546 206.48589 
L 302.050649 206.48589 
L 302.11875 205.440691 
L 302.210461 205.440691 
L 302.210461 204.918092 
L 302.521225 204.918092 
L 302.521225 204.395492 
L 302.709986 204.395492 
L 302.709986 203.872893 
L 303.057329 203.872893 
L 303.155062 202.827694 
L 303.178128 202.827694 
L 303.224719 201.782495 
L 303.623819 201.782495 
L 303.701323 200.214697 
L 304.020161 200.214697 
L 304.020161 199.692097 
L 304.28694 199.692097 
L 304.323487 198.646898 
L 304.586194 198.646898 
L 304.638777 197.601699 
L 304.99161 197.601699 
L 305.083629 196.5565 
L 305.127927 196.5565 
L 305.236898 195.511302 
L 305.516684 195.511302 
L 305.593669 193.943503 
L 305.668838 193.943503 
L 305.741304 191.853105 
L 305.850306 191.853105 
L 305.940507 190.285307 
L 305.972311 190.285307 
L 305.972311 189.762707 
L 306.110681 189.762707 
L 306.20055 188.717509 
L 306.309585 188.717509 
L 306.309585 188.194909 
L 306.623932 188.194909 
L 306.682043 186.627111 
L 306.760652 186.627111 
L 306.854694 185.581912 
L 307.006885 185.581912 
L 307.037728 184.536713 
L 307.439887 184.536713 
L 307.439887 184.014113 
L 307.606391 184.014113 
L 307.606391 183.491514 
L 308.028672 183.491514 
L 308.028672 182.968914 
L 308.366517 182.968914 
L 308.366517 182.446315 
L 309.501543 182.446315 
L 309.52109 180.878517 
L 309.756537 180.878517 
L 309.8626 179.833318 
L 309.877313 179.833318 
L 309.986165 177.74292 
L 310.123631 177.74292 
L 310.161931 176.697721 
L 310.34191 176.697721 
L 310.34191 176.175122 
L 311.030104 176.175122 
L 311.030104 175.652522 
L 311.374594 175.652522 
L 311.374594 175.129923 
L 311.903444 175.129923 
L 311.962404 174.084724 
L 312.178323 174.084724 
L 312.178323 173.562124 
L 312.47273 173.562124 
L 312.47273 173.039525 
L 312.815179 173.039525 
L 312.896986 171.994326 
L 313.262346 171.994326 
L 313.262346 171.471726 
L 313.878981 171.471726 
L 313.878981 170.949127 
L 314.203329 170.949127 
L 314.203329 170.426527 
L 315.154803 170.426527 
L 315.154803 169.903928 
L 315.334768 169.903928 
L 315.334768 169.381329 
L 315.538802 169.381329 
L 315.59981 168.33613 
L 315.654966 168.33613 
L 315.654966 167.81353 
L 316.422492 167.81353 
L 316.422492 167.290931 
L 316.56909 167.290931 
L 316.56909 166.768331 
L 317.613771 166.768331 
L 317.613771 166.245732 
L 317.792612 166.245732 
L 317.792612 165.723132 
L 318.471491 165.723132 
L 318.471491 165.200533 
L 318.638648 165.200533 
L 318.638648 164.677933 
L 319.033185 164.677933 
L 319.033185 164.155334 
L 319.14542 164.155334 
L 319.14542 163.632734 
L 319.401491 163.632734 
L 319.401491 163.110135 
L 319.722923 163.110135 
L 319.734886 162.064936 
L 319.837377 162.064936 
L 319.837377 161.542337 
L 319.968698 161.542337 
L 319.98985 160.497138 
L 320.432515 160.497138 
L 320.432515 159.974538 
L 320.650831 159.974538 
L 320.682557 158.929339 
L 321.126142 158.929339 
L 321.126142 158.40674 
L 321.282152 158.40674 
L 321.282152 157.88414 
L 321.64494 157.88414 
L 321.725349 156.316342 
L 322.022365 156.316342 
L 322.022365 155.793743 
L 322.435743 155.793743 
L 322.435743 155.271143 
L 322.636286 155.271143 
L 322.636286 154.748544 
L 322.864708 154.748544 
L 322.9639 153.180745 
L 323.149465 153.180745 
L 323.149465 152.658146 
L 323.971825 152.658146 
L 324.045189 151.090347 
L 324.42187 151.090347 
L 324.437205 150.045149 
L 324.60136 150.045149 
L 324.60136 149.522549 
L 324.760834 149.522549 
L 324.805815 148.47735 
L 325.094834 148.47735 
L 325.094834 147.954751 
L 325.501754 147.954751 
L 325.606537 146.909552 
L 325.661386 146.909552 
L 325.739431 145.341753 
L 325.871891 145.341753 
L 325.871891 144.819154 
L 326.066399 144.819154 
L 326.066399 144.296554 
L 326.365074 144.296554 
L 326.365074 143.773955 
L 326.965866 143.773955 
L 326.965866 143.251356 
L 327.329637 143.251356 
L 327.329637 142.728756 
L 327.956104 142.728756 
L 327.956104 142.206157 
L 328.407961 142.206157 
L 328.407961 141.683557 
L 328.601473 141.683557 
L 328.601473 141.160958 
L 328.984822 141.160958 
L 328.984822 140.638358 
L 329.335989 140.638358 
L 329.335989 140.115759 
L 329.483038 140.115759 
L 329.483038 139.593159 
L 330.127339 139.593159 
L 330.127339 139.07056 
L 330.47594 139.07056 
L 330.531319 138.025361 
L 330.747255 138.025361 
L 330.816204 136.980162 
L 331.041239 136.980162 
L 331.041239 136.457563 
L 331.222531 136.457563 
L 331.222531 135.934963 
L 331.487674 135.934963 
L 331.582709 134.367165 
L 331.84494 134.367165 
L 331.884985 133.321966 
L 332.370659 133.321966 
L 332.370659 132.799366 
L 332.730201 132.799366 
L 332.730201 132.276767 
L 333.179105 132.276767 
L 333.277672 130.708968 
L 333.443441 130.708968 
L 333.546756 129.66377 
L 333.567802 129.66377 
L 333.567802 129.14117 
L 334.126348 129.14117 
L 334.216473 128.095971 
L 334.581405 128.095971 
L 334.581405 127.573372 
L 335.24322 127.573372 
L 335.24322 127.050772 
L 335.389717 127.050772 
L 335.389717 126.528173 
L 335.600391 126.528173 
L 335.617511 125.482974 
L 335.946969 125.482974 
L 335.946969 124.960374 
L 336.381737 124.960374 
L 336.381737 124.437775 
L 336.845011 124.437775 
L 336.845011 123.915176 
L 336.996966 123.915176 
L 336.996966 123.392576 
L 337.497667 123.392576 
L 337.497667 122.869977 
L 337.744405 122.869977 
L 337.786059 121.824778 
L 337.934832 121.824778 
L 337.934832 121.302178 
L 338.32584 121.302178 
L 338.32584 120.779579 
L 339.58345 120.779579 
L 339.58345 120.256979 
L 339.74889 120.256979 
L 339.74889 119.73438 
L 340.201578 119.73438 
L 340.201578 119.21178 
L 340.542036 119.21178 
L 340.542036 118.689181 
L 340.743988 118.689181 
L 340.743988 118.166581 
L 340.949928 118.166581 
L 340.949928 117.643982 
L 341.284974 117.643982 
L 341.383629 116.076184 
L 341.728873 116.076184 
L 341.728873 115.553584 
L 342.21544 115.553584 
L 342.28106 114.508385 
L 342.557199 114.508385 
L 342.557199 113.985786 
L 342.963616 113.985786 
L 342.963616 113.463186 
L 343.172023 113.463186 
L 343.172023 112.940587 
L 343.593083 112.940587 
L 343.685506 110.850189 
L 343.9775 110.850189 
L 343.9775 110.32759 
L 344.552872 110.32759 
L 344.552872 109.80499 
L 344.686305 109.80499 
L 344.787753 108.237192 
L 344.840476 108.237192 
L 344.883432 107.191993 
L 345.219972 107.191993 
L 345.325711 104.578995 
L 345.374526 104.578995 
L 345.374526 104.056396 
L 345.54285 104.056396 
L 345.54285 103.533797 
L 345.718507 103.533797 
L 345.725987 102.488598 
L 345.894586 102.488598 
L 345.930138 101.443399 
L 346.312075 101.443399 
L 346.312075 100.920799 
L 346.493425 100.920799 
L 346.493425 100.3982 
L 346.745295 100.3982 
L 346.745295 99.8756 
L 347.098796 99.8756 
L 347.149436 98.830401 
L 347.669539 98.830401 
L 347.669539 98.307802 
L 347.888199 98.307802 
L 347.89447 96.740004 
L 348.195133 96.740004 
L 348.204679 95.694805 
L 348.342126 95.694805 
L 348.342126 95.172205 
L 348.478633 95.172205 
L 348.537916 93.604407 
L 349.223896 93.604407 
L 349.223896 93.081807 
L 349.339292 93.081807 
L 349.406817 92.036608 
L 349.533185 92.036608 
L 349.533185 91.514009 
L 349.753762 91.514009 
L 349.753762 90.99141 
L 349.932043 90.99141 
L 349.932043 90.46881 
L 350.043526 90.46881 
L 350.112296 88.901012 
L 350.281782 88.901012 
L 350.316088 87.855813 
L 350.569207 87.855813 
L 350.627914 86.810614 
L 350.853578 86.810614 
L 350.899643 85.242815 
L 351.110058 85.242815 
L 351.158885 84.197617 
L 351.242393 84.197617 
L 351.242393 83.675017 
L 351.356505 83.675017 
L 351.420351 82.629818 
L 351.526622 82.629818 
L 351.526622 82.107219 
L 351.916085 82.107219 
L 351.916085 81.584619 
L 352.147574 81.584619 
L 352.147574 81.06202 
L 352.608295 81.06202 
L 352.691606 80.016821 
L 353.029725 80.016821 
L 353.029725 79.494221 
L 353.486043 79.494221 
L 353.486043 78.971622 
L 353.715273 78.971622 
L 353.715273 78.449023 
L 354.129367 78.449023 
L 354.129367 77.926423 
L 354.367742 77.926423 
L 354.410659 76.881224 
L 354.559043 76.881224 
L 354.559043 76.358625 
L 355.09989 76.358625 
L 355.09989 75.836025 
L 355.264011 75.836025 
L 355.264011 75.313426 
L 355.53107 75.313426 
L 355.53107 74.790826 
L 355.758336 74.790826 
L 355.765424 73.745627 
L 356.005032 73.745627 
L 356.005032 73.223028 
L 356.12363 73.223028 
L 356.12363 72.700428 
L 356.292489 72.700428 
L 356.292489 72.177829 
L 356.41679 72.177829 
L 356.506622 71.13263 
L 356.695649 71.13263 
L 356.695649 70.610031 
L 356.904195 70.610031 
L 356.904195 70.087431 
L 357.09273 70.087431 
L 357.155206 69.042232 
L 357.241223 69.042232 
L 357.241223 68.519633 
L 357.510558 68.519633 
L 357.566056 66.951834 
L 357.627498 66.951834 
L 357.724922 65.906635 
L 357.802201 65.906635 
L 357.802201 65.384036 
L 357.916472 65.384036 
L 357.916472 64.861437 
L 358.071675 64.861437 
L 358.071675 64.338837 
L 358.194932 64.338837 
L 358.266452 62.771039 
L 358.346001 62.771039 
L 358.451545 61.72584 
L 358.805384 61.72584 
L 358.910986 60.680641 
L 358.962195 60.680641 
L 358.968085 59.112842 
L 359.083185 59.112842 
L 359.191623 56.499845 
L 359.240375 56.499845 
L 359.306034 55.454646 
L 359.410533 55.454646 
L 359.410533 54.932047 
L 359.610403 54.932047 
L 359.710337 53.364248 
L 360.28469 53.364248 
L 360.36513 51.79645 
L 360.683983 51.79645 
L 360.715058 50.751251 
L 360.799167 50.751251 
L 360.879225 49.706052 
L 361.13168 49.706052 
L 361.13168 49.183453 
L 361.503389 49.183453 
L 361.51976 47.615654 
L 361.922132 47.615654 
L 361.922132 47.093055 
L 362.336899 47.093055 
L 362.336899 46.570455 
L 362.484001 46.570455 
L 362.53358 45.525257 
L 362.871561 45.525257 
L 362.871561 45.002657 
L 363.018009 45.002657 
L 363.018009 44.480058 
L 363.132609 44.480058 
L 363.178097 43.434859 
L 363.308427 43.434859 
L 363.308427 42.912259 
L 363.523444 42.912259 
L 363.589257 41.86706 
L 363.707519 41.86706 
L 363.762826 40.821861 
L 364.104356 40.821861 
L 364.104356 40.299262 
L 364.825117 40.299262 
L 364.825117 39.776662 
L 364.952423 39.776662 
L 364.994429 38.208864 
L 365.14746 38.208864 
L 365.14746 37.686265 
L 365.324214 37.686265 
L 365.433298 36.641066 
L 365.473023 36.641066 
L 365.490038 35.595867 
L 366.013404 35.595867 
L 366.117339 34.550668 
L 366.218428 34.550668 
L 366.272125 33.505469 
L 366.426713 33.505469 
L 366.426713 32.982869 
L 366.627174 32.982869 
L 366.701561 31.937671 
L 366.891222 31.937671 
L 366.929626 30.892472 
L 367.103654 30.892472 
L 367.103654 30.369872 
L 367.691427 30.369872 
L 367.691427 29.847273 
L 367.907436 29.847273 
L 367.919703 28.279474 
L 368.176101 28.279474 
L 368.176101 27.756875 
L 368.398565 27.756875 
L 368.398565 27.234275 
L 368.510492 27.234275 
L 368.510492 26.711676 
L 369.113181 26.711676 
L 369.113181 26.189077 
L 369.341815 26.189077 
L 369.341815 25.666477 
L 369.589743 25.666477 
L 369.589743 25.143878 
L 370.03256 25.143878 
L 370.03256 24.621278 
L 370.533127 24.621278 
L 370.533127 24.098679 
L 370.880343 24.098679 
L 370.963054 22.53088 
L 371.104848 22.53088 
L 371.209655 21.485681 
L 371.40557 21.485681 
L 371.40557 20.963082 
L 371.781468 20.963082 
L 371.781468 20.440482 
L 372.681783 20.440482 
L 372.74552 18.872684 
L 373.847431 18.872684 
L 373.903746 17.827485 
L 374.119434 17.827485 
L 374.144936 16.782286 
L 374.50427 16.782286 
L 374.50427 16.259687 
L 375.096112 16.259687 
L 375.096112 15.737087 
L 375.454268 15.737087 
L 375.454268 15.214488 
L 376.060227 15.214488 
L 376.060227 14.691888 
L 376.423805 14.691888 
L 376.485579 13.646689 
L 376.927366 13.646689 
L 376.927366 13.12409 
L 377.934546 13.12409 
L 377.934546 12.601491 
L 378.883221 12.601491 
L 378.883221 12.078891 
L 381.176201 12.078891 
L 381.208278 11.033692 
L 381.874608 11.033692 
L 381.874608 10.511093 
L 382.811597 10.511093 
L 382.811597 9.988493 
L 384.350071 9.988493 
L 384.350071 9.465894 
L 384.475159 9.465894 
L 384.475159 8.943294 
L 387.014739 8.943294 
L 387.014739 8.420695 
L 388.812651 8.420695 
L 388.812651 7.898095 
L 391.49338 7.898095 
L 391.49338 7.375496 
L 392.54579 7.375496 
L 392.54579 6.852896 
L 403.403973 6.852896 
L 403.403973 6.330297 
L 403.403973 6.330297 
L 460.8 6.330297 
L 460.8 6.330297 
" clip-path="url(#p07a0f0473f)" style="fill: none; stroke: #ff0000; stroke-width: 3; stroke-linecap: square"/>
   </g>
   <g id="line2d_22">
    <path d="M 367.762825 293.76 
L 367.762825 293.237401 
L 369.78701 293.237401 
L 369.78701 292.714801 
L 373.967394 292.714801 
L 373.967394 292.192202 
L 374.95936 292.192202 
L 374.95936 291.669602 
L 380.399087 291.669602 
L 380.399087 291.147003 
L 381.135321 291.147003 
L 381.135321 290.624403 
L 381.318596 290.624403 
L 381.318596 290.101804 
L 382.30462 290.101804 
L 382.30462 289.579204 
L 383.623091 289.579204 
L 383.623091 289.056605 
L 384.233437 289.056605 
L 384.233437 288.534005 
L 384.857876 288.534005 
L 384.857876 288.011406 
L 385.408224 288.011406 
L 385.426351 286.966207 
L 385.884382 286.966207 
L 385.884382 286.443608 
L 386.191638 286.443608 
L 386.191638 285.921008 
L 386.683021 285.921008 
L 386.683021 285.398409 
L 387.219668 285.398409 
L 387.29959 283.83061 
L 387.705354 283.83061 
L 387.705354 283.308011 
L 388.076673 283.308011 
L 388.076673 282.785411 
L 388.590725 282.785411 
L 388.590725 282.262812 
L 388.95306 282.262812 
L 388.95306 281.740212 
L 389.483489 281.740212 
L 389.483489 281.217613 
L 390.956498 281.217613 
L 390.956498 280.695014 
L 391.32134 280.695014 
L 391.425154 279.649815 
L 391.586282 279.649815 
L 391.586282 279.127215 
L 392.061098 279.127215 
L 392.061098 278.604616 
L 392.786213 278.604616 
L 392.786213 278.082016 
L 393.10958 278.082016 
L 393.10958 277.559417 
L 393.436462 277.559417 
L 393.436462 277.036817 
L 393.601475 277.036817 
L 393.601475 276.514218 
L 393.992433 276.514218 
L 393.992433 275.991618 
L 394.131935 275.991618 
L 394.131935 275.469019 
L 394.274751 275.469019 
L 394.274751 274.946419 
L 394.533972 274.946419 
L 394.533972 274.42382 
L 394.664533 274.42382 
L 394.762704 273.378621 
L 394.897264 273.378621 
L 394.997299 272.333422 
L 395.053205 272.333422 
L 395.053205 271.810823 
L 395.578529 271.810823 
L 395.666493 270.243024 
L 395.791667 270.243024 
L 395.806292 269.197825 
L 396.114711 269.197825 
L 396.114711 268.675226 
L 396.469248 268.675226 
L 396.510724 267.630027 
L 396.603848 267.630027 
L 396.603848 267.107428 
L 396.773705 267.107428 
L 396.775146 266.062229 
L 396.963566 266.062229 
L 397.051966 265.01703 
L 397.085457 265.01703 
L 397.18654 262.926632 
L 397.21885 262.926632 
L 397.246478 261.881433 
L 397.373788 261.881433 
L 397.457414 260.313635 
L 397.517244 260.313635 
L 397.583985 258.745836 
L 397.807174 258.745836 
L 397.909587 257.178038 
L 397.988637 257.178038 
L 398.086729 256.132839 
L 398.126396 256.132839 
L 398.191414 254.565041 
L 398.279934 254.565041 
L 398.38612 252.474643 
L 398.462513 252.474643 
L 398.555668 251.429444 
L 398.681356 251.429444 
L 398.766661 248.816446 
L 399.030997 248.816446 
L 399.11093 247.248648 
L 399.165084 247.248648 
L 399.257225 246.203449 
L 399.441213 246.203449 
L 399.537693 243.067852 
L 399.568905 243.067852 
L 399.625119 242.022653 
L 399.690394 242.022653 
L 399.767747 239.409656 
L 399.826398 239.409656 
L 399.901518 237.319258 
L 399.94545 237.319258 
L 399.963064 236.274059 
L 400.377826 236.274059 
L 400.461259 234.183662 
L 400.495658 234.183662 
L 400.60226 233.138463 
L 400.672521 233.138463 
L 400.672521 232.615863 
L 400.825904 232.615863 
L 400.921849 231.048065 
L 400.947898 231.048065 
L 400.975643 227.912468 
L 401.111242 227.912468 
L 401.168006 226.34467 
L 401.271672 226.34467 
L 401.376394 225.299471 
L 401.455807 225.299471 
L 401.540817 223.209073 
L 401.629813 223.209073 
L 401.73592 221.641275 
L 401.805521 221.641275 
L 401.870111 218.505678 
L 401.966153 218.505678 
L 402.049455 216.41528 
L 402.201365 216.41528 
L 402.228376 214.847482 
L 402.375131 214.847482 
L 402.39043 213.802283 
L 402.493808 213.802283 
L 402.565653 210.666686 
L 402.607725 210.666686 
L 402.672006 209.621487 
L 402.738243 209.621487 
L 402.738243 209.098887 
L 402.856097 209.098887 
L 402.946587 208.053689 
L 402.984647 208.053689 
L 403.032695 204.395492 
L 403.125296 204.395492 
L 403.235203 201.782495 
L 403.273394 201.782495 
L 403.31014 200.214697 
L 403.385599 200.214697 
L 403.403686 199.169498 
L 403.498306 199.169498 
L 403.59997 197.601699 
L 403.676284 197.601699 
L 403.74575 195.511302 
L 403.798605 195.511302 
L 403.848872 193.420904 
L 403.911917 193.420904 
L 403.970102 191.330506 
L 404.025648 191.330506 
L 404.10206 189.240108 
L 404.338679 189.240108 
L 404.370416 188.194909 
L 404.506537 188.194909 
L 404.56103 185.581912 
L 404.674326 185.581912 
L 404.729093 182.446315 
L 404.871989 182.446315 
L 404.967859 178.265519 
L 405.045351 178.265519 
L 405.096143 177.22032 
L 405.179044 177.22032 
L 405.227944 176.175122 
L 405.30716 176.175122 
L 405.41469 174.607323 
L 405.41989 174.607323 
L 405.51285 173.039525 
L 405.55103 173.039525 
L 405.661596 169.381329 
L 405.685127 169.381329 
L 405.779259 167.290931 
L 405.82118 167.290931 
L 405.909802 164.677933 
L 405.978026 164.677933 
L 405.978026 164.155334 
L 406.094212 164.155334 
L 406.178442 161.542337 
L 406.266228 161.542337 
L 406.366686 159.451939 
L 406.42498 159.451939 
L 406.535295 156.838941 
L 406.571411 156.838941 
L 406.675859 155.793743 
L 406.684378 155.793743 
L 406.7697 154.225944 
L 406.85823 154.225944 
L 406.938199 152.135546 
L 406.995912 152.135546 
L 407.074912 150.045149 
L 407.112401 150.045149 
L 407.21369 148.47735 
L 407.229996 148.47735 
L 407.33631 145.341753 
L 407.440546 145.341753 
L 407.482877 143.773955 
L 407.576122 143.773955 
L 407.677055 141.683557 
L 407.696216 141.683557 
L 407.806431 137.502761 
L 407.832938 137.502761 
L 407.890205 134.889764 
L 407.951781 134.889764 
L 408.038075 132.799366 
L 408.065185 132.799366 
L 408.1217 131.231568 
L 408.188325 131.231568 
L 408.24902 129.14117 
L 408.32189 129.14117 
L 408.430414 127.573372 
L 408.488297 127.573372 
L 408.532972 125.482974 
L 408.599869 125.482974 
L 408.600344 124.437775 
L 408.759737 124.437775 
L 408.829193 121.824778 
L 408.876543 121.824778 
L 408.943166 119.73438 
L 409.070005 119.73438 
L 409.141313 118.166581 
L 409.21265 118.166581 
L 409.302655 116.076184 
L 409.354739 116.076184 
L 409.460178 113.985786 
L 409.534843 113.985786 
L 409.644295 111.895388 
L 409.707393 111.895388 
L 409.779627 109.80499 
L 409.916877 109.80499 
L 409.996134 107.714592 
L 410.045177 107.714592 
L 410.150867 104.056396 
L 410.171149 104.056396 
L 410.220565 101.443399 
L 410.291265 101.443399 
L 410.329391 98.830401 
L 410.427079 98.830401 
L 410.497569 96.740004 
L 410.559781 96.740004 
L 410.645823 92.559208 
L 410.673662 92.559208 
L 410.729856 91.514009 
L 410.824228 91.514009 
L 410.870157 89.946211 
L 410.948577 89.946211 
L 411.041225 87.855813 
L 411.059771 87.855813 
L 411.091399 86.288014 
L 411.184753 86.288014 
L 411.287047 83.675017 
L 411.336532 83.675017 
L 411.434369 82.107219 
L 411.448187 82.107219 
L 411.466295 80.53942 
L 411.600785 80.53942 
L 411.600785 80.016821 
L 411.739502 80.016821 
L 411.802501 78.449023 
L 411.881578 78.449023 
L 411.972251 76.358625 
L 412.061251 76.358625 
L 412.162083 73.223028 
L 412.192248 73.223028 
L 412.300711 70.610031 
L 412.372041 70.610031 
L 412.410654 68.519633 
L 412.511446 68.519633 
L 412.610876 65.906635 
L 412.646345 65.906635 
L 412.752333 61.20324 
L 412.789706 61.20324 
L 412.891841 57.545044 
L 412.917054 57.545044 
L 412.987992 54.932047 
L 413.063761 54.932047 
L 413.086246 52.841649 
L 413.187651 52.841649 
L 413.273924 50.228652 
L 413.325393 50.228652 
L 413.394199 49.183453 
L 413.450404 49.183453 
L 413.557526 47.615654 
L 413.606659 47.615654 
L 413.711593 44.480058 
L 413.733968 44.480058 
L 413.836986 42.38966 
L 413.860854 42.38966 
L 413.860854 41.86706 
L 414.049208 41.86706 
L 414.124435 39.776662 
L 414.195012 39.776662 
L 414.267061 37.686265 
L 414.367857 37.686265 
L 414.4581 36.118466 
L 414.494024 36.118466 
L 414.522961 34.550668 
L 414.648082 34.550668 
L 414.729798 33.505469 
L 414.772418 33.505469 
L 414.858594 32.46027 
L 414.889459 32.46027 
L 414.889459 31.937671 
L 415.044519 31.937671 
L 415.044519 31.415071 
L 415.210186 31.415071 
L 415.210186 30.892472 
L 415.410243 30.892472 
L 415.493558 29.324673 
L 415.542692 29.324673 
L 415.542692 28.802074 
L 415.790609 28.802074 
L 415.848208 27.756875 
L 415.947024 27.756875 
L 415.947024 27.234275 
L 416.370521 27.234275 
L 416.370521 26.711676 
L 416.547694 26.711676 
L 416.602444 25.666477 
L 416.66683 25.666477 
L 416.66683 25.143878 
L 417.005075 25.143878 
L 417.034692 24.098679 
L 417.223507 24.098679 
L 417.223507 23.576079 
L 417.418462 23.576079 
L 417.418462 23.05348 
L 417.570118 23.05348 
L 417.635645 22.008281 
L 418.309454 22.008281 
L 418.309454 21.485681 
L 418.489725 21.485681 
L 418.489725 20.963082 
L 418.772909 20.963082 
L 418.870602 19.917883 
L 419.621859 19.917883 
L 419.621859 19.395284 
L 420.109104 19.395284 
L 420.109104 18.872684 
L 420.70874 18.872684 
L 420.709319 17.827485 
L 422.558317 17.827485 
L 422.558317 17.304886 
L 423.093705 17.304886 
L 423.151475 16.259687 
L 423.216057 16.259687 
L 423.251552 15.214488 
L 423.370268 15.214488 
L 423.370268 14.691888 
L 423.763316 14.691888 
L 423.763316 14.169289 
L 424.195553 14.169289 
L 424.195553 13.646689 
L 424.317665 13.646689 
L 424.317665 13.12409 
L 425.650048 13.12409 
L 425.650048 12.601491 
L 426.473084 12.601491 
L 426.473084 12.078891 
L 426.814608 12.078891 
L 426.814608 11.556292 
L 427.336359 11.556292 
L 427.336359 11.033692 
L 427.534233 11.033692 
L 427.534233 10.511093 
L 429.381853 10.511093 
L 429.381853 9.988493 
L 430.858544 9.988493 
L 430.858544 9.465894 
L 433.387401 9.465894 
L 433.387401 8.943294 
L 434.021406 8.943294 
L 434.021406 8.420695 
L 435.300559 8.420695 
L 435.300559 7.898095 
L 437.797768 7.898095 
L 437.797768 7.375496 
L 439.065897 7.375496 
L 439.065897 6.852896 
L 448.886405 6.852896 
L 448.886405 6.330297 
L 448.886405 6.330297 
L 460.8 6.330297 
L 460.8 6.330297 
" clip-path="url(#p07a0f0473f)" style="fill: none; stroke: #00bfbf; stroke-width: 1.5; stroke-linecap: square"/>
   </g>
   <g id="line2d_23">
    <path d="M 367.762825 293.76 
L 367.762825 293.237401 
L 369.78701 293.237401 
L 369.78701 292.714801 
L 373.967394 292.714801 
L 373.967394 292.192202 
L 374.95936 292.192202 
L 374.95936 291.669602 
L 380.399087 291.669602 
L 380.399087 291.147003 
L 381.135321 291.147003 
L 381.135321 290.624403 
L 381.318596 290.624403 
L 381.318596 290.101804 
L 382.30462 290.101804 
L 382.30462 289.579204 
L 383.623091 289.579204 
L 383.623091 289.056605 
L 384.233437 289.056605 
L 384.233437 288.534005 
L 384.857876 288.534005 
L 384.857876 288.011406 
L 385.408224 288.011406 
L 385.426351 286.966207 
L 385.884382 286.966207 
L 385.884382 286.443608 
L 386.191638 286.443608 
L 386.191638 285.921008 
L 386.683021 285.921008 
L 386.683021 285.398409 
L 387.219668 285.398409 
L 387.29959 283.83061 
L 387.705354 283.83061 
L 387.705354 283.308011 
L 388.076673 283.308011 
L 388.076673 282.785411 
L 388.590725 282.785411 
L 388.590725 282.262812 
L 388.95306 282.262812 
L 388.95306 281.740212 
L 389.483489 281.740212 
L 389.483489 281.217613 
L 390.956498 281.217613 
L 390.956498 280.695014 
L 391.32134 280.695014 
L 391.425154 279.649815 
L 391.586282 279.649815 
L 391.586282 279.127215 
L 392.061098 279.127215 
L 392.061098 278.604616 
L 392.786213 278.604616 
L 392.786213 278.082016 
L 393.10958 278.082016 
L 393.10958 277.559417 
L 393.436462 277.559417 
L 393.436462 277.036817 
L 393.601475 277.036817 
L 393.601475 276.514218 
L 393.992433 276.514218 
L 393.992433 275.991618 
L 394.131935 275.991618 
L 394.131935 275.469019 
L 394.274751 275.469019 
L 394.274751 274.946419 
L 394.533972 274.946419 
L 394.533972 274.42382 
L 394.664533 274.42382 
L 394.762704 273.378621 
L 394.897264 273.378621 
L 394.997299 272.333422 
L 395.053205 272.333422 
L 395.053205 271.810823 
L 395.578529 271.810823 
L 395.666493 270.243024 
L 395.791667 270.243024 
L 395.806292 269.197825 
L 396.114711 269.197825 
L 396.114711 268.675226 
L 396.469248 268.675226 
L 396.510724 267.630027 
L 396.603848 267.630027 
L 396.603848 267.107428 
L 396.773705 267.107428 
L 396.775146 266.062229 
L 396.963566 266.062229 
L 397.051966 265.01703 
L 397.085457 265.01703 
L 397.18654 262.926632 
L 397.21885 262.926632 
L 397.246478 261.881433 
L 397.373788 261.881433 
L 397.457414 260.313635 
L 397.517244 260.313635 
L 397.583985 258.745836 
L 397.807174 258.745836 
L 397.909587 257.178038 
L 397.988637 257.178038 
L 398.086729 256.132839 
L 398.126396 256.132839 
L 398.191414 254.565041 
L 398.279934 254.565041 
L 398.38612 251.952043 
L 398.462513 251.952043 
L 398.555668 250.906844 
L 398.681356 250.906844 
L 398.766661 248.293847 
L 399.030997 248.293847 
L 399.11093 246.726049 
L 399.161587 246.726049 
L 399.257225 245.15825 
L 399.441213 245.15825 
L 399.537693 242.022653 
L 399.568905 242.022653 
L 399.625119 240.977455 
L 399.72986 240.977455 
L 399.826398 238.364457 
L 399.843443 238.364457 
L 399.94545 236.274059 
L 399.963064 236.274059 
L 399.963064 235.75146 
L 400.377826 235.75146 
L 400.461259 233.661062 
L 400.495658 233.661062 
L 400.60226 232.615863 
L 400.672521 232.615863 
L 400.672521 232.093264 
L 400.825904 232.093264 
L 400.921849 230.525465 
L 400.947898 230.525465 
L 400.975643 227.389869 
L 401.111242 227.389869 
L 401.168006 225.82207 
L 401.376394 225.82207 
L 401.467847 223.731672 
L 401.495102 223.731672 
L 401.540817 222.686473 
L 401.629813 222.686473 
L 401.73592 220.596076 
L 401.805521 220.596076 
L 401.870111 217.460479 
L 401.966153 217.460479 
L 402.024683 215.89268 
L 402.201365 215.89268 
L 402.228376 214.324882 
L 402.375131 214.324882 
L 402.39043 213.279683 
L 402.493808 213.279683 
L 402.565653 210.144086 
L 402.607725 210.144086 
L 402.672006 209.098887 
L 402.738243 209.098887 
L 402.738243 208.576288 
L 402.856097 208.576288 
L 402.946587 207.531089 
L 402.984647 207.531089 
L 403.032695 203.872893 
L 403.125296 203.872893 
L 403.235203 201.259896 
L 403.273394 201.259896 
L 403.274272 200.214697 
L 403.385599 200.214697 
L 403.403686 199.169498 
L 403.498306 199.169498 
L 403.59997 197.0791 
L 403.676284 197.0791 
L 403.74575 194.988702 
L 403.798605 194.988702 
L 403.848872 192.898304 
L 403.911917 192.898304 
L 403.970102 190.807906 
L 404.025648 190.807906 
L 404.10206 188.717509 
L 404.338679 188.717509 
L 404.370416 187.67231 
L 404.473295 187.67231 
L 404.56103 185.059312 
L 404.674326 185.059312 
L 404.729093 181.923716 
L 404.871989 181.923716 
L 404.967859 177.74292 
L 405.045351 177.74292 
L 405.096143 176.697721 
L 405.179044 176.697721 
L 405.179044 176.175122 
L 405.30716 176.175122 
L 405.41469 174.607323 
L 405.41989 174.607323 
L 405.51285 173.039525 
L 405.55103 173.039525 
L 405.661596 169.381329 
L 405.685127 169.381329 
L 405.779259 167.290931 
L 405.82118 167.290931 
L 405.909802 164.677933 
L 405.978026 164.677933 
L 405.978026 164.155334 
L 406.094212 164.155334 
L 406.178442 161.019737 
L 406.266228 161.019737 
L 406.366686 158.929339 
L 406.42498 158.929339 
L 406.535295 156.316342 
L 406.571411 156.316342 
L 406.675859 155.271143 
L 406.684378 155.271143 
L 406.7697 153.703345 
L 406.85823 153.703345 
L 406.938199 151.612947 
L 406.995912 151.612947 
L 407.074912 149.522549 
L 407.112401 149.522549 
L 407.21369 147.954751 
L 407.229996 147.954751 
L 407.33631 144.819154 
L 407.440546 144.819154 
L 407.482877 142.728756 
L 407.576122 142.728756 
L 407.677055 140.638358 
L 407.696216 140.638358 
L 407.806431 135.934963 
L 407.832938 135.934963 
L 407.890205 133.844565 
L 407.951781 133.844565 
L 408.038075 131.754167 
L 408.065185 131.754167 
L 408.1217 130.186369 
L 408.188325 130.186369 
L 408.266827 127.050772 
L 408.32189 127.050772 
L 408.32189 126.528173 
L 408.520748 126.528173 
L 408.600344 123.915176 
L 408.759737 123.915176 
L 408.829193 121.302178 
L 408.876543 121.302178 
L 408.943166 119.21178 
L 409.070005 119.21178 
L 409.141313 117.643982 
L 409.21265 117.643982 
L 409.302655 115.553584 
L 409.354739 115.553584 
L 409.460178 113.463186 
L 409.534843 113.463186 
L 409.644295 111.372788 
L 409.707393 111.372788 
L 409.779627 109.282391 
L 409.916877 109.282391 
L 409.996134 107.191993 
L 410.045177 107.191993 
L 410.150867 103.533797 
L 410.171149 103.533797 
L 410.220565 100.920799 
L 410.291265 100.920799 
L 410.329391 98.307802 
L 410.427079 98.307802 
L 410.497569 96.217404 
L 410.559781 96.217404 
L 410.645823 92.036608 
L 410.673662 92.036608 
L 410.729856 90.99141 
L 410.824228 90.99141 
L 410.870157 89.423611 
L 410.948577 89.423611 
L 411.041225 87.333213 
L 411.059771 87.333213 
L 411.091399 85.765415 
L 411.184753 85.765415 
L 411.287047 83.152418 
L 411.336532 83.152418 
L 411.434369 81.584619 
L 411.448187 81.584619 
L 411.466295 80.016821 
L 411.600785 80.016821 
L 411.600785 79.494221 
L 411.739502 79.494221 
L 411.802501 77.926423 
L 411.881578 77.926423 
L 411.972251 75.836025 
L 412.061251 75.836025 
L 412.162083 72.700428 
L 412.192248 72.700428 
L 412.300711 70.087431 
L 412.372041 70.087431 
L 412.410654 67.997033 
L 412.511446 67.997033 
L 412.610876 65.384036 
L 412.646345 65.384036 
L 412.752333 60.680641 
L 412.760429 60.680641 
L 412.829841 58.067644 
L 412.87959 58.067644 
L 412.987992 54.409447 
L 413.063761 54.409447 
L 413.086246 52.31905 
L 413.187651 52.31905 
L 413.273924 49.706052 
L 413.325393 49.706052 
L 413.394199 48.660853 
L 413.450404 48.660853 
L 413.557526 46.570455 
L 413.606659 46.570455 
L 413.711593 43.434859 
L 413.733968 43.434859 
L 413.836986 41.344461 
L 413.860854 41.344461 
L 413.860854 40.821861 
L 414.049208 40.821861 
L 414.124435 38.731464 
L 414.195012 38.731464 
L 414.267061 36.641066 
L 414.410486 36.641066 
L 414.510716 34.550668 
L 414.522961 34.550668 
L 414.522961 34.028068 
L 414.648082 34.028068 
L 414.729798 32.982869 
L 414.772418 32.982869 
L 414.858594 31.937671 
L 414.889459 31.937671 
L 414.889459 31.415071 
L 415.044519 31.415071 
L 415.044519 30.892472 
L 415.210186 30.892472 
L 415.210186 30.369872 
L 415.410243 30.369872 
L 415.493558 28.802074 
L 415.542692 28.802074 
L 415.542692 28.279474 
L 415.790609 28.279474 
L 415.848208 27.234275 
L 415.947024 27.234275 
L 415.947024 26.711676 
L 416.370521 26.711676 
L 416.370521 26.189077 
L 416.547694 26.189077 
L 416.602444 25.143878 
L 416.66683 25.143878 
L 416.66683 24.621278 
L 416.801112 24.621278 
L 416.801112 24.098679 
L 416.988599 24.098679 
L 417.034692 22.53088 
L 417.223507 22.53088 
L 417.223507 22.008281 
L 417.418462 22.008281 
L 417.418462 21.485681 
L 417.570118 21.485681 
L 417.635645 20.440482 
L 418.309454 20.440482 
L 418.309454 19.917883 
L 418.772909 19.917883 
L 418.870602 18.872684 
L 419.209029 18.872684 
L 419.209029 18.350085 
L 419.621859 18.350085 
L 419.621859 17.827485 
L 420.109104 17.827485 
L 420.109104 17.304886 
L 420.70874 17.304886 
L 420.709319 16.259687 
L 422.558317 16.259687 
L 422.558317 15.737087 
L 423.093705 15.737087 
L 423.151475 14.691888 
L 423.251552 14.691888 
L 423.251552 14.169289 
L 423.370268 14.169289 
L 423.370268 13.646689 
L 423.763316 13.646689 
L 423.763316 13.12409 
L 424.317665 13.12409 
L 424.317665 12.601491 
L 425.650048 12.601491 
L 425.650048 12.078891 
L 426.473084 12.078891 
L 426.473084 11.556292 
L 426.814608 11.556292 
L 426.814608 11.033692 
L 427.534233 11.033692 
L 427.534233 10.511093 
L 428.300799 10.511093 
L 428.300799 9.988493 
L 429.381853 9.988493 
L 429.381853 9.465894 
L 430.858544 9.465894 
L 430.858544 8.943294 
L 433.314694 8.943294 
L 433.387401 7.898095 
L 434.021406 7.898095 
L 434.021406 7.375496 
L 437.797768 7.375496 
L 437.797768 6.852896 
L 448.886405 6.852896 
L 448.886405 6.330297 
L 448.886405 6.330297 
L 460.8 6.330297 
L 460.8 6.330297 
" clip-path="url(#p07a0f0473f)" style="fill: none; stroke: #bf00bf; stroke-width: 1.5; stroke-linecap: square"/>
   </g>
   <g id="line2d_24">
    <path d="M 367.762825 293.76 
L 367.762825 293.237401 
L 369.78701 293.237401 
L 369.78701 292.714801 
L 373.967394 292.714801 
L 373.967394 292.192202 
L 374.95936 292.192202 
L 374.95936 291.669602 
L 380.399087 291.669602 
L 380.399087 291.147003 
L 381.135321 291.147003 
L 381.135321 290.624403 
L 381.318596 290.624403 
L 381.318596 290.101804 
L 382.30462 290.101804 
L 382.30462 289.579204 
L 383.512116 289.579204 
L 383.512116 289.056605 
L 384.233437 289.056605 
L 384.233437 288.534005 
L 384.857876 288.534005 
L 384.857876 288.011406 
L 385.311651 288.011406 
L 385.408224 286.966207 
L 385.884382 286.966207 
L 385.884382 286.443608 
L 386.191638 286.443608 
L 386.191638 285.921008 
L 386.683021 285.921008 
L 386.683021 285.398409 
L 387.219668 285.398409 
L 387.29959 283.83061 
L 387.705354 283.83061 
L 387.705354 283.308011 
L 388.076673 283.308011 
L 388.076673 282.785411 
L 388.590725 282.785411 
L 388.590725 282.262812 
L 388.95306 282.262812 
L 388.95306 281.740212 
L 389.483489 281.740212 
L 389.483489 281.217613 
L 390.236074 281.217613 
L 390.236074 280.695014 
L 390.447966 280.695014 
L 390.447966 280.172414 
L 391.32134 280.172414 
L 391.425154 279.127215 
L 391.586282 279.127215 
L 391.586282 278.604616 
L 392.061098 278.604616 
L 392.061098 278.082016 
L 392.786213 278.082016 
L 392.786213 277.559417 
L 393.026451 277.559417 
L 393.10958 276.514218 
L 393.436462 276.514218 
L 393.436462 275.991618 
L 393.601475 275.991618 
L 393.601475 275.469019 
L 393.992433 275.469019 
L 393.992433 274.946419 
L 394.131935 274.946419 
L 394.131935 274.42382 
L 394.274751 274.42382 
L 394.327312 273.378621 
L 394.664533 273.378621 
L 394.762704 272.333422 
L 394.997299 272.333422 
L 395.053205 271.288223 
L 395.578529 271.288223 
L 395.666493 269.720425 
L 395.791667 269.720425 
L 395.842223 268.152626 
L 396.114711 268.152626 
L 396.114711 267.630027 
L 396.469248 267.630027 
L 396.510724 266.062229 
L 396.603848 266.062229 
L 396.603848 265.539629 
L 396.773705 265.539629 
L 396.775146 264.49443 
L 396.963566 264.49443 
L 397.051966 263.449231 
L 397.085457 263.449231 
L 397.18654 261.358833 
L 397.21885 261.358833 
L 397.246478 260.313635 
L 397.416744 260.313635 
L 397.517244 258.745836 
L 397.548851 258.745836 
L 397.583985 257.700637 
L 397.807174 257.700637 
L 397.909587 256.132839 
L 397.988637 256.132839 
L 398.086729 255.08764 
L 398.126396 255.08764 
L 398.191414 253.519842 
L 398.279934 253.519842 
L 398.38612 250.384245 
L 398.462513 250.384245 
L 398.555668 249.339046 
L 398.681356 249.339046 
L 398.766661 247.248648 
L 399.030997 247.248648 
L 399.11093 245.68085 
L 399.161587 245.68085 
L 399.257225 244.113051 
L 399.441213 244.113051 
L 399.537693 240.977455 
L 399.568905 240.977455 
L 399.625119 239.932256 
L 399.72986 239.932256 
L 399.826398 237.319258 
L 399.843443 237.319258 
L 399.94545 235.22886 
L 400.328712 235.22886 
L 400.433097 233.138463 
L 400.461259 233.138463 
L 400.495658 232.093264 
L 400.60226 232.093264 
L 400.672521 231.048065 
L 400.825904 231.048065 
L 400.921849 229.480266 
L 400.947898 229.480266 
L 400.975643 226.34467 
L 401.111242 226.34467 
L 401.168006 224.776871 
L 401.3642 224.776871 
L 401.467847 221.641275 
L 401.495102 221.641275 
L 401.540817 220.596076 
L 401.645656 220.596076 
L 401.698095 219.550877 
L 401.805521 219.550877 
L 401.870111 216.41528 
L 401.966153 216.41528 
L 402.024683 214.847482 
L 402.201365 214.847482 
L 402.228376 213.279683 
L 402.375131 213.279683 
L 402.39043 212.234484 
L 402.493808 212.234484 
L 402.565653 209.098887 
L 402.607725 209.098887 
L 402.672006 208.053689 
L 402.738243 208.053689 
L 402.738243 207.531089 
L 402.946587 207.531089 
L 403.032695 203.350293 
L 403.125296 203.350293 
L 403.235203 200.737296 
L 403.273394 200.737296 
L 403.274272 199.692097 
L 403.385599 199.692097 
L 403.419083 198.124299 
L 403.498306 198.124299 
L 403.59997 196.033901 
L 403.676284 196.033901 
L 403.74575 193.943503 
L 403.798605 193.943503 
L 403.848872 191.853105 
L 403.911917 191.853105 
L 403.970102 190.285307 
L 404.025648 190.285307 
L 404.129177 187.67231 
L 404.338679 187.67231 
L 404.370416 186.627111 
L 404.473295 186.627111 
L 404.542257 184.014113 
L 404.674326 184.014113 
L 404.729093 180.878517 
L 404.871989 180.878517 
L 404.967859 177.22032 
L 405.045351 177.22032 
L 405.096143 176.175122 
L 405.179044 176.175122 
L 405.283106 175.129923 
L 405.30716 175.129923 
L 405.41469 173.039525 
L 405.41989 173.039525 
L 405.524099 170.426527 
L 405.577223 170.426527 
L 405.685127 167.290931 
L 405.692144 167.290931 
L 405.779259 165.723132 
L 405.82118 165.723132 
L 405.909802 163.110135 
L 405.978026 163.110135 
L 405.978026 162.587536 
L 406.094212 162.587536 
L 406.178442 159.974538 
L 406.253375 159.974538 
L 406.298277 157.88414 
L 406.366686 157.88414 
L 406.469879 155.793743 
L 406.482707 155.793743 
L 406.571411 154.225944 
L 406.612286 154.225944 
L 406.686277 152.658146 
L 406.7697 152.658146 
L 406.797621 151.612947 
L 406.906791 151.612947 
L 406.995912 149.522549 
L 407.051263 149.522549 
L 407.112401 147.432151 
L 407.203425 147.432151 
L 407.287806 143.773955 
L 407.33631 143.773955 
L 407.445491 142.206157 
L 407.482877 142.206157 
L 407.590243 140.115759 
L 407.619621 140.115759 
L 407.722018 137.502761 
L 407.744422 137.502761 
L 407.837772 133.321966 
L 407.890205 133.321966 
L 407.991357 131.754167 
L 408.038075 131.754167 
L 408.1217 129.66377 
L 408.188325 129.66377 
L 408.266827 126.005573 
L 408.32189 126.005573 
L 408.32189 125.482974 
L 408.507746 125.482974 
L 408.600344 122.869977 
L 408.765852 122.869977 
L 408.876543 120.256979 
L 408.892305 120.256979 
L 408.943166 118.689181 
L 409.070005 118.689181 
L 409.141313 117.121383 
L 409.21108 117.121383 
L 409.302655 115.030985 
L 409.354739 115.030985 
L 409.460178 112.417987 
L 409.508168 112.417987 
L 409.617464 110.850189 
L 409.644295 110.850189 
L 409.742845 108.759791 
L 409.779627 108.759791 
L 409.779627 108.237192 
L 409.916877 108.237192 
L 409.996134 106.146794 
L 410.045177 106.146794 
L 410.129138 103.011197 
L 410.171149 103.011197 
L 410.220565 100.3982 
L 410.291265 100.3982 
L 410.334923 96.740004 
L 410.427079 96.740004 
L 410.497569 94.649606 
L 410.559781 94.649606 
L 410.645823 90.99141 
L 410.673662 90.99141 
L 410.729856 89.946211 
L 410.824228 89.946211 
L 410.870157 88.378412 
L 410.948577 88.378412 
L 411.041225 86.810614 
L 411.059771 86.810614 
L 411.091399 85.242815 
L 411.184753 85.242815 
L 411.287047 82.629818 
L 411.336532 82.629818 
L 411.434369 81.06202 
L 411.448187 81.06202 
L 411.505439 78.449023 
L 411.600785 78.449023 
L 411.600785 77.926423 
L 411.739502 77.926423 
L 411.740487 76.881224 
L 411.881578 76.881224 
L 411.972251 75.313426 
L 412.061251 75.313426 
L 412.162083 72.177829 
L 412.192248 72.177829 
L 412.300711 67.997033 
L 412.339993 67.997033 
L 412.410654 65.906635 
L 412.457201 65.906635 
L 412.557964 62.771039 
L 412.610876 62.771039 
L 412.716783 58.590243 
L 412.742215 58.590243 
L 412.829841 54.932047 
L 412.87959 54.932047 
L 412.987992 51.273851 
L 413.063761 51.273851 
L 413.170669 48.660853 
L 413.187651 48.660853 
L 413.273924 46.570455 
L 413.325393 46.570455 
L 413.394199 45.525257 
L 413.450404 45.525257 
L 413.557526 43.434859 
L 413.606659 43.434859 
L 413.711593 40.299262 
L 413.733968 40.299262 
L 413.836986 38.208864 
L 413.860854 38.208864 
L 413.860854 37.686265 
L 414.049208 37.686265 
L 414.124435 35.595867 
L 414.195012 35.595867 
L 414.238557 34.028068 
L 414.308464 34.028068 
L 414.410486 32.982869 
L 414.4581 32.982869 
L 414.522961 30.892472 
L 414.648082 30.892472 
L 414.729798 29.847273 
L 414.772418 29.847273 
L 414.858594 28.279474 
L 414.889459 28.279474 
L 414.989125 27.234275 
L 415.044519 27.234275 
L 415.044519 26.711676 
L 415.210186 26.711676 
L 415.210186 26.189077 
L 415.410243 26.189077 
L 415.43306 25.143878 
L 415.790609 25.143878 
L 415.848208 24.098679 
L 415.947024 24.098679 
L 415.947024 23.576079 
L 416.370521 23.576079 
L 416.370521 23.05348 
L 416.602444 23.05348 
L 416.66683 22.008281 
L 416.988599 22.008281 
L 417.034692 20.440482 
L 417.223507 20.440482 
L 417.223507 19.917883 
L 417.418462 19.917883 
L 417.418462 19.395284 
L 417.570118 19.395284 
L 417.570118 18.872684 
L 418.309454 18.872684 
L 418.355247 17.827485 
L 418.870602 17.827485 
L 418.870602 17.304886 
L 419.209029 17.304886 
L 419.209029 16.782286 
L 419.621859 16.782286 
L 419.621859 16.259687 
L 420.109104 16.259687 
L 420.109104 15.737087 
L 420.70874 15.737087 
L 420.709319 14.691888 
L 422.558317 14.691888 
L 422.558317 14.169289 
L 423.151475 14.169289 
L 423.251552 13.12409 
L 423.763316 13.12409 
L 423.807351 12.078891 
L 424.317665 12.078891 
L 424.317665 11.556292 
L 425.650048 11.556292 
L 425.650048 11.033692 
L 426.473084 11.033692 
L 426.473084 10.511093 
L 426.814608 10.511093 
L 426.814608 9.988493 
L 427.059873 9.988493 
L 427.059873 9.465894 
L 428.300799 9.465894 
L 428.300799 8.943294 
L 430.858544 8.943294 
L 430.858544 8.420695 
L 432.016005 8.420695 
L 432.016005 7.898095 
L 433.314694 7.898095 
L 433.314694 7.375496 
L 437.797768 7.375496 
L 437.797768 6.852896 
L 448.886405 6.852896 
L 448.886405 6.330297 
L 448.886405 6.330297 
L 460.8 6.330297 
L 460.8 6.330297 
" clip-path="url(#p07a0f0473f)" style="fill: none; stroke: #000000; stroke-width: 1.5; stroke-linecap: square"/>
   </g>
   <g id="line2d_25">
    <path d="M 367.762825 293.76 
L 367.762825 293.237401 
L 369.78701 293.237401 
L 369.78701 292.714801 
L 373.967394 292.714801 
L 373.967394 292.192202 
L 374.95936 292.192202 
L 374.95936 291.669602 
L 378.543148 291.669602 
L 378.543148 291.147003 
L 379.157598 291.147003 
L 379.157598 290.624403 
L 380.399087 290.624403 
L 380.399087 290.101804 
L 381.135321 290.101804 
L 381.135321 289.579204 
L 381.318596 289.579204 
L 381.318596 289.056605 
L 382.30462 289.056605 
L 382.30462 288.534005 
L 384.233437 288.534005 
L 384.233437 288.011406 
L 384.857876 288.011406 
L 384.857876 287.488806 
L 385.408224 287.488806 
L 385.408224 286.966207 
L 385.884382 286.966207 
L 385.884382 286.443608 
L 386.191638 286.443608 
L 386.191638 285.921008 
L 386.638692 285.921008 
L 386.683021 284.875809 
L 387.219668 284.875809 
L 387.237419 283.83061 
L 387.506507 283.83061 
L 387.506507 283.308011 
L 387.705354 283.308011 
L 387.705354 282.785411 
L 388.076673 282.785411 
L 388.076673 282.262812 
L 388.590725 282.262812 
L 388.590725 281.740212 
L 388.95306 281.740212 
L 388.95306 281.217613 
L 389.089932 281.217613 
L 389.089932 280.695014 
L 389.483489 280.695014 
L 389.483489 280.172414 
L 390.349775 280.172414 
L 390.349775 279.649815 
L 390.707664 279.649815 
L 390.707664 279.127215 
L 390.843632 279.127215 
L 390.843632 278.604616 
L 391.310397 278.604616 
L 391.407957 277.036817 
L 391.469495 277.036817 
L 391.469495 276.514218 
L 392.374382 276.514218 
L 392.374382 275.991618 
L 392.786213 275.991618 
L 392.885436 274.946419 
L 393.10958 274.946419 
L 393.10958 274.42382 
L 393.436462 274.42382 
L 393.436462 273.901221 
L 393.601475 273.901221 
L 393.601475 273.378621 
L 393.921449 273.378621 
L 393.992433 272.333422 
L 394.131935 272.333422 
L 394.131935 271.810823 
L 394.274751 271.810823 
L 394.274751 271.288223 
L 394.664533 271.288223 
L 394.771149 269.720425 
L 394.997299 269.720425 
L 395.029815 268.675226 
L 395.493857 268.675226 
L 395.529113 267.630027 
L 395.635639 267.630027 
L 395.635639 267.107428 
L 395.806292 267.107428 
L 395.814856 266.062229 
L 395.957242 266.062229 
L 395.957242 265.539629 
L 396.114711 265.539629 
L 396.114711 265.01703 
L 396.469248 265.01703 
L 396.510724 263.971831 
L 396.591363 263.971831 
L 396.603848 262.926632 
L 396.773705 262.926632 
L 396.775146 261.881433 
L 396.963566 261.881433 
L 396.963566 261.358833 
L 397.085457 261.358833 
L 397.18654 259.268436 
L 397.21885 259.268436 
L 397.246478 258.223237 
L 397.335017 258.223237 
L 397.416744 256.132839 
L 397.49809 256.132839 
L 397.583985 254.565041 
L 397.86705 254.565041 
L 397.909587 252.997242 
L 397.988637 252.997242 
L 398.086729 251.952043 
L 398.191414 251.952043 
L 398.297443 249.861645 
L 398.314212 249.861645 
L 398.378256 248.293847 
L 398.48617 248.293847 
L 398.555668 247.248648 
L 398.682561 247.248648 
L 398.766661 245.15825 
L 399.064845 245.15825 
L 399.1273 243.590452 
L 399.257225 243.590452 
L 399.320298 242.545253 
L 399.441213 242.545253 
L 399.537693 239.932256 
L 399.559315 239.932256 
L 399.625119 238.364457 
L 399.72986 238.364457 
L 399.826398 236.274059 
L 399.843443 236.274059 
L 399.94969 233.138463 
L 400.019925 233.138463 
L 400.019925 232.615863 
L 400.297869 232.615863 
L 400.377826 231.570664 
L 400.4263 231.570664 
L 400.504425 228.435068 
L 400.59523 228.435068 
L 400.672521 226.867269 
L 400.724901 226.867269 
L 400.825904 225.82207 
L 400.878903 225.82207 
L 400.975643 221.641275 
L 401.111242 221.641275 
L 401.206811 220.073476 
L 401.249791 220.073476 
L 401.249791 219.550877 
L 401.376394 219.550877 
L 401.480091 217.460479 
L 401.495102 217.460479 
L 401.540817 216.41528 
L 401.698095 216.41528 
L 401.698095 215.89268 
L 401.820231 215.89268 
L 401.870111 213.279683 
L 401.966153 213.279683 
L 401.966153 212.757084 
L 402.201365 212.757084 
L 402.228376 211.189285 
L 402.375131 211.189285 
L 402.407776 209.621487 
L 402.493808 209.621487 
L 402.565653 207.00849 
L 402.607725 207.00849 
L 402.672006 205.963291 
L 402.738243 205.963291 
L 402.738243 205.440691 
L 402.946587 205.440691 
L 403.032695 201.259896 
L 403.107128 201.259896 
L 403.187266 198.646898 
L 403.235203 198.646898 
L 403.273394 197.601699 
L 403.385599 197.601699 
L 403.451447 196.033901 
L 403.498306 196.033901 
L 403.59997 194.466103 
L 403.676284 194.466103 
L 403.762087 192.375705 
L 403.798605 192.375705 
L 403.908199 189.240108 
L 403.963012 189.240108 
L 404.048254 187.14971 
L 404.083167 187.14971 
L 404.14615 185.059312 
L 404.338679 185.059312 
L 404.370416 184.014113 
L 404.473295 184.014113 
L 404.561949 181.923716 
L 404.674326 181.923716 
L 404.729093 178.788119 
L 404.869468 178.788119 
L 404.967859 175.129923 
L 405.027871 175.129923 
L 405.060416 172.516925 
L 405.158291 172.516925 
L 405.179044 171.471726 
L 405.29005 171.471726 
L 405.338577 169.903928 
L 405.41469 169.903928 
L 405.51285 168.33613 
L 405.534515 168.33613 
L 405.634858 165.723132 
L 405.647341 165.723132 
L 405.751976 162.587536 
L 405.779259 162.587536 
L 405.845211 161.019737 
L 405.892922 161.019737 
L 405.978026 158.929339 
L 406.094087 158.929339 
L 406.178442 156.316342 
L 406.221289 156.316342 
L 406.305603 153.703345 
L 406.340664 153.703345 
L 406.447122 152.135546 
L 406.469879 152.135546 
L 406.571411 150.045149 
L 406.675859 150.045149 
L 406.7697 147.954751 
L 406.812167 147.954751 
L 406.920083 145.864353 
L 406.938199 145.864353 
L 407.013456 143.773955 
L 407.050626 143.773955 
L 407.153144 141.683557 
L 407.203425 141.683557 
L 407.287806 139.593159 
L 407.440546 139.593159 
L 407.52052 138.025361 
L 407.579466 138.025361 
L 407.677055 135.412364 
L 407.696216 135.412364 
L 407.795348 131.231568 
L 407.832938 131.231568 
L 407.890205 129.66377 
L 407.951781 129.66377 
L 408.038075 128.095971 
L 408.072436 128.095971 
L 408.156369 125.482974 
L 408.185924 125.482974 
L 408.266827 122.347377 
L 408.523565 122.347377 
L 408.600344 120.256979 
L 408.704315 120.256979 
L 408.808539 118.166581 
L 408.829193 118.166581 
L 408.930327 116.598783 
L 408.943166 116.598783 
L 408.949413 115.553584 
L 409.070005 115.553584 
L 409.141313 113.985786 
L 409.21108 113.985786 
L 409.321419 111.372788 
L 409.398409 111.372788 
L 409.508168 109.282391 
L 409.534843 109.282391 
L 409.644295 106.669393 
L 409.707393 106.669393 
L 409.782833 104.056396 
L 409.85434 104.056396 
L 409.956479 103.011197 
L 409.996134 103.011197 
L 410.103493 99.8756 
L 410.111123 99.8756 
L 410.220565 95.694805 
L 410.291265 95.694805 
L 410.364018 92.559208 
L 410.427079 92.559208 
L 410.525252 89.946211 
L 410.559781 89.946211 
L 410.629609 87.333213 
L 410.673662 87.333213 
L 410.729856 86.288014 
L 410.824228 86.288014 
L 410.911335 83.152418 
L 410.948577 83.152418 
L 411.047245 81.06202 
L 411.059771 81.06202 
L 411.121149 78.971622 
L 411.184753 78.971622 
L 411.257055 77.403824 
L 411.297317 77.403824 
L 411.38829 75.313426 
L 411.434369 75.313426 
L 411.50888 72.700428 
L 411.560731 72.700428 
L 411.669448 71.13263 
L 411.680811 71.13263 
L 411.699543 70.087431 
L 411.923184 70.087431 
L 411.939762 68.519633 
L 412.061251 68.519633 
L 412.156565 65.384036 
L 412.18886 65.384036 
L 412.298955 60.680641 
L 412.300711 60.680641 
L 412.410654 59.112842 
L 412.472679 59.112842 
L 412.557964 57.022445 
L 412.610876 57.022445 
L 412.716783 51.273851 
L 412.752333 51.273851 
L 412.829841 48.138254 
L 412.87959 48.138254 
L 412.988217 43.957458 
L 413.063761 43.957458 
L 413.128085 41.86706 
L 413.187651 41.86706 
L 413.273924 38.731464 
L 413.394199 38.731464 
L 413.488907 36.641066 
L 413.557526 36.641066 
L 413.665919 34.028068 
L 413.711593 34.028068 
L 413.74912 31.937671 
L 413.859389 31.937671 
L 413.860854 30.892472 
L 414.002198 30.892472 
L 414.103331 29.324673 
L 414.124435 29.324673 
L 414.231833 27.234275 
L 414.410486 27.234275 
L 414.510716 25.143878 
L 414.648082 25.143878 
L 414.757708 23.576079 
L 414.772418 23.576079 
L 414.811471 22.53088 
L 414.889459 22.53088 
L 414.889459 22.008281 
L 415.380259 22.008281 
L 415.410243 20.963082 
L 415.790609 20.963082 
L 415.790609 20.440482 
L 415.947024 20.440482 
L 415.947024 19.917883 
L 416.370521 19.917883 
L 416.370521 19.395284 
L 416.602444 19.395284 
L 416.602444 18.872684 
L 417.034692 18.872684 
L 417.034692 18.350085 
L 417.272772 18.350085 
L 417.272772 17.827485 
L 417.418462 17.827485 
L 417.494134 16.782286 
L 417.570118 16.782286 
L 417.570118 16.259687 
L 417.786086 16.259687 
L 417.786086 15.737087 
L 418.870602 15.737087 
L 418.870602 15.214488 
L 419.621859 15.214488 
L 419.621859 14.691888 
L 419.892327 14.691888 
L 419.892327 14.169289 
L 420.109104 14.169289 
L 420.109104 13.646689 
L 420.70874 13.646689 
L 420.709319 12.601491 
L 423.151475 12.601491 
L 423.224638 11.556292 
L 423.763316 11.556292 
L 423.763316 11.033692 
L 424.317665 11.033692 
L 424.317665 10.511093 
L 424.655175 10.511093 
L 424.655175 9.988493 
L 424.950758 9.988493 
L 424.950758 9.465894 
L 426.473084 9.465894 
L 426.473084 8.943294 
L 426.814608 8.943294 
L 426.814608 8.420695 
L 427.059873 8.420695 
L 427.059873 7.898095 
L 427.31642 7.898095 
L 427.31642 7.375496 
L 437.797768 7.375496 
L 437.797768 6.852896 
L 439.209627 6.852896 
L 439.209627 6.330297 
L 439.209627 6.330297 
L 460.8 6.330297 
L 460.8 6.330297 
" clip-path="url(#p07a0f0473f)" style="fill: none; stroke: #00bfbf; stroke-width: 1.5; stroke-linecap: square"/>
   </g>
   <g id="line2d_26">
    <path d="M 332.559929 293.76 
L 332.559929 293.237401 
L 342.079628 293.237401 
L 342.079628 292.714801 
L 343.544202 292.714801 
L 343.544202 292.192202 
L 344.529499 292.192202 
L 344.529499 291.669602 
L 346.109288 291.669602 
L 346.109288 291.147003 
L 346.369263 291.147003 
L 346.395058 290.101804 
L 347.654561 290.101804 
L 347.654561 289.579204 
L 348.209463 289.579204 
L 348.209463 289.056605 
L 348.440258 289.056605 
L 348.440258 288.534005 
L 348.944078 288.534005 
L 348.944078 288.011406 
L 349.346468 288.011406 
L 349.346468 287.488806 
L 349.832792 287.488806 
L 349.832792 286.966207 
L 350.140943 286.966207 
L 350.140943 286.443608 
L 350.404129 286.443608 
L 350.404129 285.921008 
L 352.04043 285.921008 
L 352.04043 285.398409 
L 352.315246 285.398409 
L 352.345041 284.35321 
L 353.057221 284.35321 
L 353.109759 283.308011 
L 353.523715 283.308011 
L 353.62127 282.262812 
L 354.805059 282.262812 
L 354.805059 281.740212 
L 355.379231 281.740212 
L 355.379231 281.217613 
L 355.723461 281.217613 
L 355.723461 280.695014 
L 356.304662 280.695014 
L 356.304662 280.172414 
L 356.559922 280.172414 
L 356.587053 279.127215 
L 357.877374 279.127215 
L 357.877374 278.604616 
L 358.607568 278.604616 
L 358.607568 278.082016 
L 359.269511 278.082016 
L 359.269511 277.559417 
L 359.725707 277.559417 
L 359.801956 276.514218 
L 359.954225 276.514218 
L 359.954225 275.991618 
L 360.252094 275.991618 
L 360.295257 274.946419 
L 360.726739 274.946419 
L 360.728288 273.901221 
L 361.011307 273.901221 
L 361.011307 273.378621 
L 361.410951 273.378621 
L 361.410951 272.856022 
L 361.880956 272.856022 
L 361.880956 272.333422 
L 361.993246 272.333422 
L 362.058931 270.765624 
L 363.007638 270.765624 
L 363.043484 269.720425 
L 363.195157 269.720425 
L 363.195157 269.197825 
L 363.498611 269.197825 
L 363.567756 268.152626 
L 363.683386 268.152626 
L 363.78102 267.107428 
L 363.948162 267.107428 
L 363.948162 266.584828 
L 364.187949 266.584828 
L 364.255921 265.01703 
L 364.420777 265.01703 
L 364.420777 264.49443 
L 364.703555 264.49443 
L 364.703555 263.971831 
L 364.843801 263.971831 
L 364.93833 262.926632 
L 365.035902 262.926632 
L 365.035902 262.404032 
L 365.24808 262.404032 
L 365.26267 261.358833 
L 365.770584 261.358833 
L 365.770584 260.836234 
L 366.007662 260.836234 
L 366.007662 260.313635 
L 366.455147 260.313635 
L 366.522765 259.268436 
L 366.663729 259.268436 
L 366.663729 258.745836 
L 366.806922 258.745836 
L 366.806922 258.223237 
L 367.332902 258.223237 
L 367.38519 256.655438 
L 367.823303 256.655438 
L 367.825721 255.610239 
L 368.044341 255.610239 
L 368.132528 254.565041 
L 368.482695 254.565041 
L 368.482695 254.042441 
L 369.393852 254.042441 
L 369.393852 253.519842 
L 370.193119 253.519842 
L 370.193119 252.997242 
L 370.314439 252.997242 
L 370.314439 252.474643 
L 370.501697 252.474643 
L 370.501697 251.952043 
L 370.813083 251.952043 
L 370.813083 251.429444 
L 371.403296 251.429444 
L 371.452163 249.861645 
L 371.67097 249.861645 
L 371.67097 249.339046 
L 371.844467 249.339046 
L 371.943501 247.771248 
L 371.994923 247.771248 
L 371.994923 247.248648 
L 372.127129 247.248648 
L 372.164457 246.203449 
L 372.732132 246.203449 
L 372.732132 245.68085 
L 373.220696 245.68085 
L 373.220696 245.15825 
L 373.414292 245.15825 
L 373.49111 244.113051 
L 373.839235 244.113051 
L 373.839235 243.590452 
L 373.984104 243.590452 
L 373.984104 243.067852 
L 374.138723 243.067852 
L 374.208208 240.977455 
L 374.318023 240.977455 
L 374.40105 239.932256 
L 374.572552 239.932256 
L 374.629009 238.887057 
L 374.743742 238.887057 
L 374.743742 238.364457 
L 374.93875 238.364457 
L 375.015396 237.319258 
L 375.218341 237.319258 
L 375.218341 236.796659 
L 375.377409 236.796659 
L 375.487825 235.75146 
L 375.515647 235.75146 
L 375.515647 235.22886 
L 376.032024 235.22886 
L 376.058852 234.183662 
L 376.283946 234.183662 
L 376.356218 232.615863 
L 376.473627 232.615863 
L 376.555281 231.570664 
L 376.854782 231.570664 
L 376.854782 231.048065 
L 376.97422 231.048065 
L 376.97422 230.525465 
L 377.280001 230.525465 
L 377.352284 228.435068 
L 377.601889 228.435068 
L 377.658734 226.867269 
L 377.7138 226.867269 
L 377.759483 225.82207 
L 377.836838 225.82207 
L 377.866723 224.254272 
L 378.01993 224.254272 
L 378.01993 223.731672 
L 378.317432 223.731672 
L 378.403322 222.163874 
L 378.454612 222.163874 
L 378.454612 221.641275 
L 378.828835 221.641275 
L 378.932944 219.550877 
L 379.145998 219.550877 
L 379.215175 218.505678 
L 379.368963 218.505678 
L 379.371263 217.460479 
L 379.48801 217.460479 
L 379.48801 216.937879 
L 379.77144 216.937879 
L 379.880617 215.370081 
L 380.059459 215.370081 
L 380.088493 214.324882 
L 380.227452 214.324882 
L 380.227452 213.802283 
L 380.45531 213.802283 
L 380.543252 212.234484 
L 380.579864 212.234484 
L 380.680236 210.144086 
L 381.086032 210.144086 
L 381.159767 208.576288 
L 381.216913 208.576288 
L 381.216913 208.053689 
L 381.376591 208.053689 
L 381.461365 206.48589 
L 381.64338 206.48589 
L 381.731509 204.395492 
L 382.074261 204.395492 
L 382.124663 202.827694 
L 382.256194 202.827694 
L 382.256194 202.305095 
L 382.398865 202.305095 
L 382.469727 200.214697 
L 382.512395 200.214697 
L 382.55409 198.646898 
L 382.67789 198.646898 
L 382.787944 197.601699 
L 382.936376 197.601699 
L 382.936376 197.0791 
L 383.124199 197.0791 
L 383.124199 196.5565 
L 383.236449 196.5565 
L 383.288576 195.511302 
L 383.477548 195.511302 
L 383.559141 193.943503 
L 383.60528 193.943503 
L 383.676345 192.898304 
L 383.773433 192.898304 
L 383.858568 191.853105 
L 383.908854 191.853105 
L 383.965319 190.285307 
L 384.099617 190.285307 
L 384.192455 188.717509 
L 384.248481 188.717509 
L 384.307995 187.14971 
L 384.466562 187.14971 
L 384.466562 186.627111 
L 384.716055 186.627111 
L 384.726593 185.581912 
L 384.849319 185.581912 
L 384.872921 184.014113 
L 384.994823 184.014113 
L 385.076149 182.446315 
L 385.207206 182.446315 
L 385.216104 181.401116 
L 385.370067 181.401116 
L 385.463752 179.833318 
L 385.497738 179.833318 
L 385.527228 178.265519 
L 385.773142 178.265519 
L 385.840341 177.22032 
L 385.908361 177.22032 
L 385.98646 175.652522 
L 386.054567 175.652522 
L 386.119551 174.084724 
L 386.232615 174.084724 
L 386.310266 172.516925 
L 386.389935 172.516925 
L 386.493804 170.949127 
L 386.547991 170.949127 
L 386.565323 169.381329 
L 386.788959 169.381329 
L 386.866763 168.33613 
L 386.942165 168.33613 
L 387.047528 166.245732 
L 387.123514 166.245732 
L 387.123514 165.723132 
L 387.424867 165.723132 
L 387.47978 163.632734 
L 387.62576 163.632734 
L 387.656249 162.587536 
L 387.789159 162.587536 
L 387.789159 162.064936 
L 387.908279 162.064936 
L 387.984149 160.497138 
L 388.025861 160.497138 
L 388.114187 158.929339 
L 388.163767 158.929339 
L 388.179265 157.88414 
L 388.38175 157.88414 
L 388.451475 156.838941 
L 388.503332 156.838941 
L 388.582776 155.271143 
L 388.677599 155.271143 
L 388.742485 153.180745 
L 388.914465 153.180745 
L 389.015489 151.612947 
L 389.054657 151.612947 
L 389.157787 150.045149 
L 389.200436 150.045149 
L 389.276521 148.99995 
L 389.434558 148.99995 
L 389.521114 147.432151 
L 389.592547 147.432151 
L 389.670011 145.864353 
L 389.757698 145.864353 
L 389.757698 145.341753 
L 389.883346 145.341753 
L 389.991264 143.251356 
L 390.057704 143.251356 
L 390.16875 142.206157 
L 390.218518 142.206157 
L 390.241683 141.160958 
L 390.435352 141.160958 
L 390.538873 136.980162 
L 390.575576 136.980162 
L 390.673798 134.367165 
L 390.7611 134.367165 
L 390.860743 133.321966 
L 390.948295 133.321966 
L 391.046363 131.231568 
L 391.157865 131.231568 
L 391.191799 130.186369 
L 391.373727 130.186369 
L 391.469501 127.573372 
L 391.499396 127.573372 
L 391.587253 125.482974 
L 391.671007 125.482974 
L 391.701027 124.437775 
L 391.854972 124.437775 
L 391.953083 122.869977 
L 391.994592 122.869977 
L 392.002763 121.824778 
L 392.111705 121.824778 
L 392.179051 120.779579 
L 392.278255 120.779579 
L 392.380558 119.21178 
L 392.426314 119.21178 
L 392.501496 117.643982 
L 392.583659 117.643982 
L 392.688052 116.598783 
L 392.706962 116.598783 
L 392.762312 115.553584 
L 393.074007 115.553584 
L 393.09499 114.508385 
L 393.224681 114.508385 
L 393.268407 113.463186 
L 393.418583 113.463186 
L 393.418583 112.940587 
L 393.860345 112.940587 
L 393.916337 111.372788 
L 393.974939 111.372788 
L 394.035238 109.282391 
L 394.105363 109.282391 
L 394.177024 107.714592 
L 394.220253 107.714592 
L 394.319065 106.146794 
L 394.365046 106.146794 
L 394.44405 104.578995 
L 394.531908 104.578995 
L 394.531908 104.056396 
L 394.68679 104.056396 
L 394.68679 103.533797 
L 394.799969 103.533797 
L 394.799969 103.011197 
L 394.921069 103.011197 
L 395.030804 101.965998 
L 395.064604 101.965998 
L 395.13301 100.920799 
L 395.236867 100.920799 
L 395.236867 100.3982 
L 395.384658 100.3982 
L 395.384658 99.8756 
L 395.590806 99.8756 
L 395.682999 97.262603 
L 395.70509 97.262603 
L 395.70509 96.740004 
L 395.836276 96.740004 
L 395.852503 95.172205 
L 395.948078 95.172205 
L 395.948078 94.649606 
L 396.08533 94.649606 
L 396.189679 93.081807 
L 396.205256 93.081807 
L 396.284047 92.036608 
L 396.393748 92.036608 
L 396.499361 89.423611 
L 396.911919 89.423611 
L 397.006575 87.855813 
L 397.037712 87.855813 
L 397.058199 86.810614 
L 397.156731 86.810614 
L 397.21651 84.720216 
L 397.389736 84.720216 
L 397.423779 83.675017 
L 397.561476 83.675017 
L 397.654243 81.06202 
L 397.679375 81.06202 
L 397.782869 80.016821 
L 397.807439 80.016821 
L 397.912072 77.926423 
L 397.934831 77.926423 
L 398.019513 75.836025 
L 398.137896 75.836025 
L 398.229154 74.268227 
L 398.332768 74.268227 
L 398.395789 73.223028 
L 398.494981 73.223028 
L 398.577161 72.177829 
L 398.761426 72.177829 
L 398.837661 70.610031 
L 398.886707 70.610031 
L 398.951532 69.564832 
L 399.118127 69.564832 
L 399.118127 69.042232 
L 399.257294 69.042232 
L 399.266775 67.997033 
L 399.406089 67.997033 
L 399.466352 66.951834 
L 399.577762 66.951834 
L 399.659265 65.906635 
L 399.756795 65.906635 
L 399.855107 63.816238 
L 399.982934 63.816238 
L 400.039738 62.771039 
L 400.108339 62.771039 
L 400.219338 60.680641 
L 400.232644 60.680641 
L 400.326906 59.112842 
L 400.484565 59.112842 
L 400.484565 58.590243 
L 400.601561 58.590243 
L 400.651069 57.022445 
L 400.792314 57.022445 
L 400.792314 56.499845 
L 400.942253 56.499845 
L 401.03384 54.932047 
L 401.060981 54.932047 
L 401.060981 54.409447 
L 401.229503 54.409447 
L 401.253948 53.364248 
L 401.396835 53.364248 
L 401.500969 51.273851 
L 401.545635 51.273851 
L 401.643797 50.228652 
L 401.662789 50.228652 
L 401.762286 49.183453 
L 401.787444 49.183453 
L 401.824935 47.615654 
L 401.958538 47.615654 
L 401.958538 47.093055 
L 402.265697 47.093055 
L 402.339621 45.002657 
L 402.476397 45.002657 
L 402.486566 43.957458 
L 402.741766 43.957458 
L 402.792934 42.912259 
L 402.896312 42.912259 
L 402.921514 41.86706 
L 403.069743 41.86706 
L 403.108378 40.821861 
L 403.250893 40.821861 
L 403.250893 40.299262 
L 403.380819 40.299262 
L 403.482222 37.686265 
L 403.543745 37.686265 
L 403.553165 36.641066 
L 403.655506 36.641066 
L 403.701143 35.595867 
L 403.890221 35.595867 
L 403.969296 34.028068 
L 404.068315 34.028068 
L 404.068315 33.505469 
L 404.270169 33.505469 
L 404.345243 31.415071 
L 404.44654 31.415071 
L 404.535687 29.324673 
L 404.593423 29.324673 
L 404.630258 28.279474 
L 404.733517 28.279474 
L 404.733517 27.756875 
L 405.078845 27.756875 
L 405.078845 27.234275 
L 405.214715 27.234275 
L 405.214715 26.711676 
L 405.32898 26.711676 
L 405.401828 25.666477 
L 405.699772 25.666477 
L 405.803785 24.098679 
L 405.847352 24.098679 
L 405.867338 23.05348 
L 406.004952 23.05348 
L 406.080968 22.008281 
L 406.118627 22.008281 
L 406.118627 21.485681 
L 406.303992 21.485681 
L 406.378496 19.917883 
L 406.532187 19.917883 
L 406.606351 18.872684 
L 406.7703 18.872684 
L 406.7703 18.350085 
L 406.988826 18.350085 
L 406.988826 17.827485 
L 407.118819 17.827485 
L 407.118819 17.304886 
L 407.24213 17.304886 
L 407.276313 16.259687 
L 407.366048 16.259687 
L 407.366048 15.737087 
L 407.590011 15.737087 
L 407.685691 13.646689 
L 407.791854 13.646689 
L 407.791854 13.12409 
L 408.002501 13.12409 
L 408.002501 12.601491 
L 408.234899 12.601491 
L 408.234899 12.078891 
L 408.357714 12.078891 
L 408.357714 11.556292 
L 408.729299 11.556292 
L 408.729299 11.033692 
L 409.112485 11.033692 
L 409.112485 10.511093 
L 409.341528 10.511093 
L 409.341528 9.988493 
L 409.648241 9.988493 
L 409.700546 8.943294 
L 410.363189 8.943294 
L 410.363189 8.420695 
L 410.505936 8.420695 
L 410.505936 7.898095 
L 411.141392 7.898095 
L 411.141392 7.375496 
L 412.128143 7.375496 
L 412.128143 6.852896 
L 417.23996 6.852896 
L 417.23996 6.330297 
L 417.23996 6.330297 
L 460.8 6.330297 
L 460.8 6.330297 
" clip-path="url(#p07a0f0473f)" style="fill: none; stroke: #bf00bf; stroke-width: 1.5; stroke-linecap: square"/>
   </g>
   <g id="patch_3">
    <path d="M 0 293.76 
L 0 3.456 
" style="fill: none; stroke: #000000; stroke-width: 0.8; stroke-linejoin: miter; stroke-linecap: square"/>
   </g>
   <g id="patch_4">
    <path d="M 460.8 293.76 
L 460.8 3.456 
" style="fill: none; stroke: #000000; stroke-width: 0.8; stroke-linejoin: miter; stroke-linecap: square"/>
   </g>
   <g id="patch_5">
    <path d="M -0 293.76 
L 460.8 293.76 
" style="fill: none; stroke: #000000; stroke-width: 0.8; stroke-linejoin: miter; stroke-linecap: square"/>
   </g>
   <g id="patch_6">
    <path d="M -0 3.456 
L 460.8 3.456 
" style="fill: none; stroke: #000000; stroke-width: 0.8; stroke-linejoin: miter; stroke-linecap: square"/>
   </g>
   <g id="text_6">
    <!-- {f1-f55}, 20-D -->
    <g transform="translate(305.884 287.95392) scale(0.2 -0.2)">
     <defs>
      <path id="DejaVuSans-7b" d="M 3272 -594 
L 3272 -1044 
L 3078 -1044 
Q 2300 -1044 2036 -812 
Q 1772 -581 1772 109 
L 1772 856 
Q 1772 1328 1603 1509 
Q 1434 1691 991 1691 
L 800 1691 
L 800 2138 
L 991 2138 
Q 1438 2138 1605 2317 
Q 1772 2497 1772 2963 
L 1772 3713 
Q 1772 4403 2036 4633 
Q 2300 4863 3078 4863 
L 3272 4863 
L 3272 4416 
L 3059 4416 
Q 2619 4416 2484 4278 
Q 2350 4141 2350 3700 
L 2350 2925 
Q 2350 2434 2208 2212 
Q 2066 1991 1722 1913 
Q 2069 1828 2209 1606 
Q 2350 1384 2350 897 
L 2350 122 
Q 2350 -319 2484 -456 
Q 2619 -594 3059 -594 
L 3272 -594 
z
" transform="scale(0.015625)"/>
      <path id="DejaVuSans-35" d="M 691 4666 
L 3169 4666 
L 3169 4134 
L 1269 4134 
L 1269 2991 
Q 1406 3038 1543 3061 
Q 1681 3084 1819 3084 
Q 2600 3084 3056 2656 
Q 3513 2228 3513 1497 
Q 3513 744 3044 326 
Q 2575 -91 1722 -91 
Q 1428 -91 1123 -41 
Q 819 9 494 109 
L 494 744 
Q 775 591 1075 516 
Q 1375 441 1709 441 
Q 2250 441 2565 725 
Q 2881 1009 2881 1497 
Q 2881 1984 2565 2268 
Q 2250 2553 1709 2553 
Q 1456 2553 1204 2497 
Q 953 2441 691 2322 
L 691 4666 
z
" transform="scale(0.015625)"/>
      <path id="DejaVuSans-7d" d="M 800 -594 
L 1019 -594 
Q 1456 -594 1589 -459 
Q 1722 -325 1722 122 
L 1722 897 
Q 1722 1384 1862 1606 
Q 2003 1828 2350 1913 
Q 2003 1991 1862 2212 
Q 1722 2434 1722 2925 
L 1722 3700 
Q 1722 4144 1589 4280 
Q 1456 4416 1019 4416 
L 800 4416 
L 800 4863 
L 997 4863 
Q 1775 4863 2036 4633 
Q 2297 4403 2297 3713 
L 2297 2963 
Q 2297 2497 2465 2317 
Q 2634 2138 3078 2138 
L 3272 2138 
L 3272 1691 
L 3078 1691 
Q 2634 1691 2465 1509 
Q 2297 1328 2297 856 
L 2297 109 
Q 2297 -581 2036 -812 
Q 1775 -1044 997 -1044 
L 800 -1044 
L 800 -594 
z
" transform="scale(0.015625)"/>
      <path id="DejaVuSans-2c" d="M 750 794 
L 1409 794 
L 1409 256 
L 897 -744 
L 494 -744 
L 750 256 
L 750 794 
z
" transform="scale(0.015625)"/>
     </defs>
     <use xlink:href="#DejaVuSans-7b"/>
     <use xlink:href="#DejaVuSans-66" x="63.623047"/>
     <use xlink:href="#DejaVuSans-31" x="98.828125"/>
     <use xlink:href="#DejaVuSans-2d" x="162.451172"/>
     <use xlink:href="#DejaVuSans-66" x="198.535156"/>
     <use xlink:href="#DejaVuSans-35" x="233.740234"/>
     <use xlink:href="#DejaVuSans-35" x="297.363281"/>
     <use xlink:href="#DejaVuSans-7d" x="360.986328"/>
     <use xlink:href="#DejaVuSans-2c" x="424.609375"/>
     <use xlink:href="#DejaVuSans-20" x="456.396484"/>
     <use xlink:href="#DejaVuSans-32" x="488.183594"/>
     <use xlink:href="#DejaVuSans-30" x="551.806641"/>
     <use xlink:href="#DejaVuSans-2d" x="615.429688"/>
     <use xlink:href="#DejaVuSans-44" x="651.513672"/>
    </g>
   </g>
   <g id="text_7">
    <!-- v2.6, hv-hash=ff0e71e8cd978373 -->
    <g style="fill: #808080" transform="translate(144.904687 288.777272) scale(0.1 -0.1)">
     <defs>
      <path id="DejaVuSans-76" d="M 191 3500 
L 800 3500 
L 1894 563 
L 2988 3500 
L 3597 3500 
L 2284 0 
L 1503 0 
L 191 3500 
z
" transform="scale(0.015625)"/>
      <path id="DejaVuSans-2e" d="M 684 794 
L 1344 794 
L 1344 0 
L 684 0 
L 684 794 
z
" transform="scale(0.015625)"/>
      <path id="DejaVuSans-68" d="M 3513 2113 
L 3513 0 
L 2938 0 
L 2938 2094 
Q 2938 2591 2744 2837 
Q 2550 3084 2163 3084 
Q 1697 3084 1428 2787 
Q 1159 2491 1159 1978 
L 1159 0 
L 581 0 
L 581 4863 
L 1159 4863 
L 1159 2956 
Q 1366 3272 1645 3428 
Q 1925 3584 2291 3584 
Q 2894 3584 3203 3211 
Q 3513 2838 3513 2113 
z
" transform="scale(0.015625)"/>
      <path id="DejaVuSans-61" d="M 2194 1759 
Q 1497 1759 1228 1600 
Q 959 1441 959 1056 
Q 959 750 1161 570 
Q 1363 391 1709 391 
Q 2188 391 2477 730 
Q 2766 1069 2766 1631 
L 2766 1759 
L 2194 1759 
z
M 3341 1997 
L 3341 0 
L 2766 0 
L 2766 531 
Q 2569 213 2275 61 
Q 1981 -91 1556 -91 
Q 1019 -91 701 211 
Q 384 513 384 1019 
Q 384 1609 779 1909 
Q 1175 2209 1959 2209 
L 2766 2209 
L 2766 2266 
Q 2766 2663 2505 2880 
Q 2244 3097 1772 3097 
Q 1472 3097 1187 3025 
Q 903 2953 641 2809 
L 641 3341 
Q 956 3463 1253 3523 
Q 1550 3584 1831 3584 
Q 2591 3584 2966 3190 
Q 3341 2797 3341 1997 
z
" transform="scale(0.015625)"/>
      <path id="DejaVuSans-73" d="M 2834 3397 
L 2834 2853 
Q 2591 2978 2328 3040 
Q 2066 3103 1784 3103 
Q 1356 3103 1142 2972 
Q 928 2841 928 2578 
Q 928 2378 1081 2264 
Q 1234 2150 1697 2047 
L 1894 2003 
Q 2506 1872 2764 1633 
Q 3022 1394 3022 966 
Q 3022 478 2636 193 
Q 2250 -91 1575 -91 
Q 1294 -91 989 -36 
Q 684 19 347 128 
L 347 722 
Q 666 556 975 473 
Q 1284 391 1588 391 
Q 1994 391 2212 530 
Q 2431 669 2431 922 
Q 2431 1156 2273 1281 
Q 2116 1406 1581 1522 
L 1381 1569 
Q 847 1681 609 1914 
Q 372 2147 372 2553 
Q 372 3047 722 3315 
Q 1072 3584 1716 3584 
Q 2034 3584 2315 3537 
Q 2597 3491 2834 3397 
z
" transform="scale(0.015625)"/>
      <path id="DejaVuSans-3d" d="M 678 2906 
L 4684 2906 
L 4684 2381 
L 678 2381 
L 678 2906 
z
M 678 1631 
L 4684 1631 
L 4684 1100 
L 678 1100 
L 678 1631 
z
" transform="scale(0.015625)"/>
      <path id="DejaVuSans-65" d="M 3597 1894 
L 3597 1613 
L 953 1613 
Q 991 1019 1311 708 
Q 1631 397 2203 397 
Q 2534 397 2845 478 
Q 3156 559 3463 722 
L 3463 178 
Q 3153 47 2828 -22 
Q 2503 -91 2169 -91 
Q 1331 -91 842 396 
Q 353 884 353 1716 
Q 353 2575 817 3079 
Q 1281 3584 2069 3584 
Q 2775 3584 3186 3129 
Q 3597 2675 3597 1894 
z
M 3022 2063 
Q 3016 2534 2758 2815 
Q 2500 3097 2075 3097 
Q 1594 3097 1305 2825 
Q 1016 2553 972 2059 
L 3022 2063 
z
" transform="scale(0.015625)"/>
      <path id="DejaVuSans-37" d="M 525 4666 
L 3525 4666 
L 3525 4397 
L 1831 0 
L 1172 0 
L 2766 4134 
L 525 4134 
L 525 4666 
z
" transform="scale(0.015625)"/>
      <path id="DejaVuSans-38" d="M 2034 2216 
Q 1584 2216 1326 1975 
Q 1069 1734 1069 1313 
Q 1069 891 1326 650 
Q 1584 409 2034 409 
Q 2484 409 2743 651 
Q 3003 894 3003 1313 
Q 3003 1734 2745 1975 
Q 2488 2216 2034 2216 
z
M 1403 2484 
Q 997 2584 770 2862 
Q 544 3141 544 3541 
Q 544 4100 942 4425 
Q 1341 4750 2034 4750 
Q 2731 4750 3128 4425 
Q 3525 4100 3525 3541 
Q 3525 3141 3298 2862 
Q 3072 2584 2669 2484 
Q 3125 2378 3379 2068 
Q 3634 1759 3634 1313 
Q 3634 634 3220 271 
Q 2806 -91 2034 -91 
Q 1263 -91 848 271 
Q 434 634 434 1313 
Q 434 1759 690 2068 
Q 947 2378 1403 2484 
z
M 1172 3481 
Q 1172 3119 1398 2916 
Q 1625 2713 2034 2713 
Q 2441 2713 2670 2916 
Q 2900 3119 2900 3481 
Q 2900 3844 2670 4047 
Q 2441 4250 2034 4250 
Q 1625 4250 1398 4047 
Q 1172 3844 1172 3481 
z
" transform="scale(0.015625)"/>
      <path id="DejaVuSans-63" d="M 3122 3366 
L 3122 2828 
Q 2878 2963 2633 3030 
Q 2388 3097 2138 3097 
Q 1578 3097 1268 2742 
Q 959 2388 959 1747 
Q 959 1106 1268 751 
Q 1578 397 2138 397 
Q 2388 397 2633 464 
Q 2878 531 3122 666 
L 3122 134 
Q 2881 22 2623 -34 
Q 2366 -91 2075 -91 
Q 1284 -91 818 406 
Q 353 903 353 1747 
Q 353 2603 823 3093 
Q 1294 3584 2113 3584 
Q 2378 3584 2631 3529 
Q 2884 3475 3122 3366 
z
" transform="scale(0.015625)"/>
      <path id="DejaVuSans-64" d="M 2906 2969 
L 2906 4863 
L 3481 4863 
L 3481 0 
L 2906 0 
L 2906 525 
Q 2725 213 2448 61 
Q 2172 -91 1784 -91 
Q 1150 -91 751 415 
Q 353 922 353 1747 
Q 353 2572 751 3078 
Q 1150 3584 1784 3584 
Q 2172 3584 2448 3432 
Q 2725 3281 2906 2969 
z
M 947 1747 
Q 947 1113 1208 752 
Q 1469 391 1925 391 
Q 2381 391 2643 752 
Q 2906 1113 2906 1747 
Q 2906 2381 2643 2742 
Q 2381 3103 1925 3103 
Q 1469 3103 1208 2742 
Q 947 2381 947 1747 
z
" transform="scale(0.015625)"/>
      <path id="DejaVuSans-39" d="M 703 97 
L 703 672 
Q 941 559 1184 500 
Q 1428 441 1663 441 
Q 2288 441 2617 861 
Q 2947 1281 2994 2138 
Q 2813 1869 2534 1725 
Q 2256 1581 1919 1581 
Q 1219 1581 811 2004 
Q 403 2428 403 3163 
Q 403 3881 828 4315 
Q 1253 4750 1959 4750 
Q 2769 4750 3195 4129 
Q 3622 3509 3622 2328 
Q 3622 1225 3098 567 
Q 2575 -91 1691 -91 
Q 1453 -91 1209 -44 
Q 966 3 703 97 
z
M 1959 2075 
Q 2384 2075 2632 2365 
Q 2881 2656 2881 3163 
Q 2881 3666 2632 3958 
Q 2384 4250 1959 4250 
Q 1534 4250 1286 3958 
Q 1038 3666 1038 3163 
Q 1038 2656 1286 2365 
Q 1534 2075 1959 2075 
z
" transform="scale(0.015625)"/>
      <path id="DejaVuSans-33" d="M 2597 2516 
Q 3050 2419 3304 2112 
Q 3559 1806 3559 1356 
Q 3559 666 3084 287 
Q 2609 -91 1734 -91 
Q 1441 -91 1130 -33 
Q 819 25 488 141 
L 488 750 
Q 750 597 1062 519 
Q 1375 441 1716 441 
Q 2309 441 2620 675 
Q 2931 909 2931 1356 
Q 2931 1769 2642 2001 
Q 2353 2234 1838 2234 
L 1294 2234 
L 1294 2753 
L 1863 2753 
Q 2328 2753 2575 2939 
Q 2822 3125 2822 3475 
Q 2822 3834 2567 4026 
Q 2313 4219 1838 4219 
Q 1578 4219 1281 4162 
Q 984 4106 628 3988 
L 628 4550 
Q 988 4650 1302 4700 
Q 1616 4750 1894 4750 
Q 2613 4750 3031 4423 
Q 3450 4097 3450 3541 
Q 3450 3153 3228 2886 
Q 3006 2619 2597 2516 
z
" transform="scale(0.015625)"/>
     </defs>
     <use xlink:href="#DejaVuSans-76"/>
     <use xlink:href="#DejaVuSans-32" x="59.179688"/>
     <use xlink:href="#DejaVuSans-2e" x="122.802734"/>
     <use xlink:href="#DejaVuSans-36" x="154.589844"/>
     <use xlink:href="#DejaVuSans-2c" x="218.212891"/>
     <use xlink:href="#DejaVuSans-20" x="250"/>
     <use xlink:href="#DejaVuSans-68" x="281.787109"/>
     <use xlink:href="#DejaVuSans-76" x="345.166016"/>
     <use xlink:href="#DejaVuSans-2d" x="401.720703"/>
     <use xlink:href="#DejaVuSans-68" x="437.804688"/>
     <use xlink:href="#DejaVuSans-61" x="501.183594"/>
     <use xlink:href="#DejaVuSans-73" x="562.462891"/>
     <use xlink:href="#DejaVuSans-68" x="614.5625"/>
     <use xlink:href="#DejaVuSans-3d" x="677.941406"/>
     <use xlink:href="#DejaVuSans-66" x="761.730469"/>
     <use xlink:href="#DejaVuSans-66" x="796.935547"/>
     <use xlink:href="#DejaVuSans-30" x="832.140625"/>
     <use xlink:href="#DejaVuSans-65" x="895.763672"/>
     <use xlink:href="#DejaVuSans-37" x="957.287109"/>
     <use xlink:href="#DejaVuSans-31" x="1020.910156"/>
     <use xlink:href="#DejaVuSans-65" x="1084.533203"/>
     <use xlink:href="#DejaVuSans-38" x="1146.056641"/>
     <use xlink:href="#DejaVuSans-63" x="1209.679688"/>
     <use xlink:href="#DejaVuSans-64" x="1264.660156"/>
     <use xlink:href="#DejaVuSans-39" x="1328.136719"/>
     <use xlink:href="#DejaVuSans-37" x="1391.759766"/>
     <use xlink:href="#DejaVuSans-38" x="1455.382812"/>
     <use xlink:href="#DejaVuSans-33" x="1519.005859"/>
     <use xlink:href="#DejaVuSans-37" x="1582.628906"/>
     <use xlink:href="#DejaVuSans-33" x="1646.251953"/>
    </g>
   </g>
  </g>
 </g>
 <defs>
  <clipPath id="p07a0f0473f">
   <rect x="0" y="3.456" width="460.8" height="290.304"/>
  </clipPath>
 </defs>
</svg>
