<?xml version="1.0" encoding="utf-8" standalone="no"?>
<!DOCTYPE svg PUBLIC "-//W3C//DTD SVG 1.1//EN"
  "http://www.w3.org/Graphics/SVG/1.1/DTD/svg11.dtd">
<svg xmlns:xlink="http://www.w3.org/1999/xlink" width="460.8pt" height="345.6pt" viewBox="0 0 460.8 345.6" xmlns="http://www.w3.org/2000/svg" version="1.1">
 <metadata>
  <rdf:RDF xmlns:dc="http://purl.org/dc/elements/1.1/" xmlns:cc="http://creativecommons.org/ns#" xmlns:rdf="http://www.w3.org/1999/02/22-rdf-syntax-ns#">
   <cc:Work>
    <dc:type rdf:resource="http://purl.org/dc/dcmitype/StillImage"/>
    <dc:date>2023-02-10T02:07:02.882175</dc:date>
    <dc:format>image/svg+xml</dc:format>
    <dc:creator>
     <cc:Agent>
      <dc:title>Matplotlib v3.6.3, https://matplotlib.org/</dc:title>
     </cc:Agent>
    </dc:creator>
   </cc:Work>
  </rdf:RDF>
 </metadata>
 <defs>
  <style type="text/css">*{stroke-linejoin: round; stroke-linecap: butt}</style>
 </defs>
 <g id="figure_1">
  <g id="patch_1">
   <path d="M 0 345.6 
L 460.8 345.6 
L 460.8 0 
L 0 0 
z
" style="fill: #ffffff"/>
  </g>
  <g id="axes_1">
   <g id="patch_2">
    <path d="M 57.6 298.944 
L 360.8064 298.944 
L 360.8064 27.648 
L 57.6 27.648 
z
" style="fill: #ffffff"/>
   </g>
   <g id="line2d_1">
    <path d="M 57.6 298.944 
L 57.6 294.266483 
L 63.929565 294.266483 
L 63.929565 284.911448 
L 84.596168 284.911448 
L 84.596168 275.556414 
L 99.346662 275.556414 
L 99.346662 270.878897 
L 106.699465 270.878897 
L 106.699465 256.846345 
L 114.872193 256.846345 
L 114.872193 247.49131 
L 120.28394 247.49131 
L 120.28394 242.813793 
L 126.899255 242.813793 
L 126.899255 233.458759 
L 134.368469 233.458759 
L 134.368469 219.426207 
L 142.661862 219.426207 
L 142.661862 210.071172 
L 147.691478 210.071172 
L 147.691478 200.716138 
L 153.282346 200.716138 
L 153.282346 191.361103 
L 158.804221 191.361103 
L 158.804221 186.683586 
L 165.489541 186.683586 
L 165.489541 172.651034 
L 172.263447 172.651034 
L 172.263447 167.973517 
L 181.957455 167.973517 
L 181.957455 153.940966 
L 189.884615 153.940966 
L 189.884615 144.585931 
L 201.027245 144.585931 
L 201.027245 139.908414 
L 210.656134 139.908414 
L 210.656134 125.875862 
L 222.590246 125.875862 
L 222.590246 121.198345 
L 231.746343 121.198345 
L 231.746343 107.165793 
L 237.190365 107.165793 
L 237.190365 97.810759 
L 242.674263 97.810759 
L 242.674263 88.455724 
L 250.238003 88.455724 
L 250.238003 83.778207 
L 258.670415 83.778207 
L 258.670415 74.423172 
L 265.400902 74.423172 
L 265.400902 60.390621 
L 360.8064 60.390621 
" style="fill: none; stroke: #f5deb3; stroke-width: 4; stroke-linecap: square"/>
   </g>
   <g id="line2d_2">
    <defs>
     <path id="m99fdf3f366" d="M -0 7.778175 
L 7.778175 0 
L 0 -7.778175 
L -7.778175 -0 
z
" style="stroke: #f5deb3; stroke-width: 1.5; stroke-linejoin: miter"/>
    </defs>
    <g>
     <use xlink:href="#m99fdf3f366" x="147.691478" y="200.716138" style="fill: #f5deb3; stroke: #f5deb3; stroke-width: 1.5; stroke-linejoin: miter"/>
     <use xlink:href="#m99fdf3f366" x="231.746343" y="121.198345" style="fill: #f5deb3; stroke: #f5deb3; stroke-width: 1.5; stroke-linejoin: miter"/>
     <use xlink:href="#m99fdf3f366" x="265.400902" y="74.423172" style="fill: #f5deb3; stroke: #f5deb3; stroke-width: 1.5; stroke-linejoin: miter"/>
     <use xlink:href="#m99fdf3f366" x="265.400902" y="60.390621" style="fill: #f5deb3; stroke: #f5deb3; stroke-width: 1.5; stroke-linejoin: miter"/>
     <use xlink:href="#m99fdf3f366" x="360.8064" y="60.390621" style="fill: #f5deb3; stroke: #f5deb3; stroke-width: 1.5; stroke-linejoin: miter"/>
    </g>
   </g>
   <g id="line2d_3">
    <path style="fill: none; stroke: #f5deb3; stroke-width: 4; stroke-linecap: square"/>
    <g/>
   </g>
   <g id="line2d_4">
    <path d="M 360.8064 60.390621 
L 380.514816 33.07392 
" style="fill: none; stroke: #f5deb3; stroke-width: 4; stroke-linecap: square"/>
    <g>
     <use xlink:href="#m99fdf3f366" x="360.8064" y="60.390621" style="fill: #f5deb3; stroke: #f5deb3; stroke-width: 1.5; stroke-linejoin: miter"/>
     <use xlink:href="#m99fdf3f366" x="380.514816" y="33.07392" style="fill: #f5deb3; stroke: #f5deb3; stroke-width: 1.5; stroke-linejoin: miter"/>
    </g>
   </g>
   <g id="matplotlib.axis_1">
    <g id="xtick_1">
     <g id="line2d_5">
      <path d="M 57.6 298.944 
L 57.6 27.648 
" clip-path="url(#p9b4ff610e1)" style="fill: none; stroke: #b0b0b0; stroke-width: 0.8; stroke-linecap: square"/>
     </g>
     <g id="line2d_6">
      <defs>
       <path id="m4f857f37cd" d="M 0 0 
L 0 3.5 
" style="stroke: #000000; stroke-width: 0.8"/>
      </defs>
      <g>
       <use xlink:href="#m4f857f37cd" x="57.6" y="298.944" style="stroke: #000000; stroke-width: 0.8"/>
      </g>
     </g>
     <g id="text_1">
      <!-- 0 -->
      <g transform="translate(52.191875 318.861344) scale(0.17 -0.17)">
       <defs>
        <path id="DejaVuSans-30" d="M 2034 4250 
Q 1547 4250 1301 3770 
Q 1056 3291 1056 2328 
Q 1056 1369 1301 889 
Q 1547 409 2034 409 
Q 2525 409 2770 889 
Q 3016 1369 3016 2328 
Q 3016 3291 2770 3770 
Q 2525 4250 2034 4250 
z
M 2034 4750 
Q 2819 4750 3233 4129 
Q 3647 3509 3647 2328 
Q 3647 1150 3233 529 
Q 2819 -91 2034 -91 
Q 1250 -91 836 529 
Q 422 1150 422 2328 
Q 422 3509 836 4129 
Q 1250 4750 2034 4750 
z
" transform="scale(0.015625)"/>
       </defs>
       <use xlink:href="#DejaVuSans-30"/>
      </g>
     </g>
    </g>
    <g id="xtick_2">
     <g id="line2d_7">
      <path d="M 144.2304 298.944 
L 144.2304 27.648 
" clip-path="url(#p9b4ff610e1)" style="fill: none; stroke: #b0b0b0; stroke-width: 0.8; stroke-linecap: square"/>
     </g>
     <g id="line2d_8">
      <g>
       <use xlink:href="#m4f857f37cd" x="144.2304" y="298.944" style="stroke: #000000; stroke-width: 0.8"/>
      </g>
     </g>
     <g id="text_2">
      <!-- 2 -->
      <g transform="translate(138.822275 318.861344) scale(0.17 -0.17)">
       <defs>
        <path id="DejaVuSans-32" d="M 1228 531 
L 3431 531 
L 3431 0 
L 469 0 
L 469 531 
Q 828 903 1448 1529 
Q 2069 2156 2228 2338 
Q 2531 2678 2651 2914 
Q 2772 3150 2772 3378 
Q 2772 3750 2511 3984 
Q 2250 4219 1831 4219 
Q 1534 4219 1204 4116 
Q 875 4013 500 3803 
L 500 4441 
Q 881 4594 1212 4672 
Q 1544 4750 1819 4750 
Q 2544 4750 2975 4387 
Q 3406 4025 3406 3419 
Q 3406 3131 3298 2873 
Q 3191 2616 2906 2266 
Q 2828 2175 2409 1742 
Q 1991 1309 1228 531 
z
" transform="scale(0.015625)"/>
       </defs>
       <use xlink:href="#DejaVuSans-32"/>
      </g>
     </g>
    </g>
    <g id="xtick_3">
     <g id="line2d_9">
      <path d="M 230.8608 298.944 
L 230.8608 27.648 
" clip-path="url(#p9b4ff610e1)" style="fill: none; stroke: #b0b0b0; stroke-width: 0.8; stroke-linecap: square"/>
     </g>
     <g id="line2d_10">
      <g>
       <use xlink:href="#m4f857f37cd" x="230.8608" y="298.944" style="stroke: #000000; stroke-width: 0.8"/>
      </g>
     </g>
     <g id="text_3">
      <!-- 4 -->
      <g transform="translate(225.452675 318.861344) scale(0.17 -0.17)">
       <defs>
        <path id="DejaVuSans-34" d="M 2419 4116 
L 825 1625 
L 2419 1625 
L 2419 4116 
z
M 2253 4666 
L 3047 4666 
L 3047 1625 
L 3713 1625 
L 3713 1100 
L 3047 1100 
L 3047 0 
L 2419 0 
L 2419 1100 
L 313 1100 
L 313 1709 
L 2253 4666 
z
" transform="scale(0.015625)"/>
       </defs>
       <use xlink:href="#DejaVuSans-34"/>
      </g>
     </g>
    </g>
    <g id="xtick_4">
     <g id="line2d_11">
      <path d="M 317.4912 298.944 
L 317.4912 27.648 
" clip-path="url(#p9b4ff610e1)" style="fill: none; stroke: #b0b0b0; stroke-width: 0.8; stroke-linecap: square"/>
     </g>
     <g id="line2d_12">
      <g>
       <use xlink:href="#m4f857f37cd" x="317.4912" y="298.944" style="stroke: #000000; stroke-width: 0.8"/>
      </g>
     </g>
     <g id="text_4">
      <!-- 6 -->
      <g transform="translate(312.083075 318.861344) scale(0.17 -0.17)">
       <defs>
        <path id="DejaVuSans-36" d="M 2113 2584 
Q 1688 2584 1439 2293 
Q 1191 2003 1191 1497 
Q 1191 994 1439 701 
Q 1688 409 2113 409 
Q 2538 409 2786 701 
Q 3034 994 3034 1497 
Q 3034 2003 2786 2293 
Q 2538 2584 2113 2584 
z
M 3366 4563 
L 3366 3988 
Q 3128 4100 2886 4159 
Q 2644 4219 2406 4219 
Q 1781 4219 1451 3797 
Q 1122 3375 1075 2522 
Q 1259 2794 1537 2939 
Q 1816 3084 2150 3084 
Q 2853 3084 3261 2657 
Q 3669 2231 3669 1497 
Q 3669 778 3244 343 
Q 2819 -91 2113 -91 
Q 1303 -91 875 529 
Q 447 1150 447 2328 
Q 447 3434 972 4092 
Q 1497 4750 2381 4750 
Q 2619 4750 2861 4703 
Q 3103 4656 3366 4563 
z
" transform="scale(0.015625)"/>
       </defs>
       <use xlink:href="#DejaVuSans-36"/>
      </g>
     </g>
    </g>
    <g id="xtick_5">
     <g id="line2d_13">
      <path d="M 100.9152 298.944 
L 100.9152 27.648 
" clip-path="url(#p9b4ff610e1)" style="fill: none; stroke: #b0b0b0; stroke-width: 0.8; stroke-linecap: square"/>
     </g>
     <g id="line2d_14">
      <defs>
       <path id="m48b50d9cac" d="M 0 0 
L 0 2 
" style="stroke: #000000; stroke-width: 0.6"/>
      </defs>
      <g>
       <use xlink:href="#m48b50d9cac" x="100.9152" y="298.944" style="stroke: #000000; stroke-width: 0.6"/>
      </g>
     </g>
    </g>
    <g id="xtick_6">
     <g id="line2d_15">
      <path d="M 187.5456 298.944 
L 187.5456 27.648 
" clip-path="url(#p9b4ff610e1)" style="fill: none; stroke: #b0b0b0; stroke-width: 0.8; stroke-linecap: square"/>
     </g>
     <g id="line2d_16">
      <g>
       <use xlink:href="#m48b50d9cac" x="187.5456" y="298.944" style="stroke: #000000; stroke-width: 0.6"/>
      </g>
     </g>
    </g>
    <g id="xtick_7">
     <g id="line2d_17">
      <path d="M 274.176 298.944 
L 274.176 27.648 
" clip-path="url(#p9b4ff610e1)" style="fill: none; stroke: #b0b0b0; stroke-width: 0.8; stroke-linecap: square"/>
     </g>
     <g id="line2d_18">
      <g>
       <use xlink:href="#m48b50d9cac" x="274.176" y="298.944" style="stroke: #000000; stroke-width: 0.6"/>
      </g>
     </g>
    </g>
    <g id="xtick_8">
     <g id="line2d_19">
      <path d="M 360.8064 298.944 
L 360.8064 27.648 
" clip-path="url(#p9b4ff610e1)" style="fill: none; stroke: #b0b0b0; stroke-width: 0.8; stroke-linecap: square"/>
     </g>
     <g id="line2d_20">
      <g>
       <use xlink:href="#m48b50d9cac" x="360.8064" y="298.944" style="stroke: #000000; stroke-width: 0.6"/>
      </g>
     </g>
    </g>
    <g id="text_5">
     <!-- log10(# f-evals / dimension) -->
     <g transform="translate(88.823278 339.314156) scale(0.17 -0.17)">
      <defs>
       <path id="DejaVuSans-6c" d="M 603 4863 
L 1178 4863 
L 1178 0 
L 603 0 
L 603 4863 
z
" transform="scale(0.015625)"/>
       <path id="DejaVuSans-6f" d="M 1959 3097 
Q 1497 3097 1228 2736 
Q 959 2375 959 1747 
Q 959 1119 1226 758 
Q 1494 397 1959 397 
Q 2419 397 2687 759 
Q 2956 1122 2956 1747 
Q 2956 2369 2687 2733 
Q 2419 3097 1959 3097 
z
M 1959 3584 
Q 2709 3584 3137 3096 
Q 3566 2609 3566 1747 
Q 3566 888 3137 398 
Q 2709 -91 1959 -91 
Q 1206 -91 779 398 
Q 353 888 353 1747 
Q 353 2609 779 3096 
Q 1206 3584 1959 3584 
z
" transform="scale(0.015625)"/>
       <path id="DejaVuSans-67" d="M 2906 1791 
Q 2906 2416 2648 2759 
Q 2391 3103 1925 3103 
Q 1463 3103 1205 2759 
Q 947 2416 947 1791 
Q 947 1169 1205 825 
Q 1463 481 1925 481 
Q 2391 481 2648 825 
Q 2906 1169 2906 1791 
z
M 3481 434 
Q 3481 -459 3084 -895 
Q 2688 -1331 1869 -1331 
Q 1566 -1331 1297 -1286 
Q 1028 -1241 775 -1147 
L 775 -588 
Q 1028 -725 1275 -790 
Q 1522 -856 1778 -856 
Q 2344 -856 2625 -561 
Q 2906 -266 2906 331 
L 2906 616 
Q 2728 306 2450 153 
Q 2172 0 1784 0 
Q 1141 0 747 490 
Q 353 981 353 1791 
Q 353 2603 747 3093 
Q 1141 3584 1784 3584 
Q 2172 3584 2450 3431 
Q 2728 3278 2906 2969 
L 2906 3500 
L 3481 3500 
L 3481 434 
z
" transform="scale(0.015625)"/>
       <path id="DejaVuSans-31" d="M 794 531 
L 1825 531 
L 1825 4091 
L 703 3866 
L 703 4441 
L 1819 4666 
L 2450 4666 
L 2450 531 
L 3481 531 
L 3481 0 
L 794 0 
L 794 531 
z
" transform="scale(0.015625)"/>
       <path id="DejaVuSans-28" d="M 1984 4856 
Q 1566 4138 1362 3434 
Q 1159 2731 1159 2009 
Q 1159 1288 1364 580 
Q 1569 -128 1984 -844 
L 1484 -844 
Q 1016 -109 783 600 
Q 550 1309 550 2009 
Q 550 2706 781 3412 
Q 1013 4119 1484 4856 
L 1984 4856 
z
" transform="scale(0.015625)"/>
       <path id="DejaVuSans-23" d="M 3272 2816 
L 2363 2816 
L 2100 1772 
L 3016 1772 
L 3272 2816 
z
M 2803 4594 
L 2478 3297 
L 3391 3297 
L 3719 4594 
L 4219 4594 
L 3897 3297 
L 4872 3297 
L 4872 2816 
L 3775 2816 
L 3519 1772 
L 4513 1772 
L 4513 1294 
L 3397 1294 
L 3072 0 
L 2572 0 
L 2894 1294 
L 1978 1294 
L 1656 0 
L 1153 0 
L 1478 1294 
L 494 1294 
L 494 1772 
L 1594 1772 
L 1856 2816 
L 850 2816 
L 850 3297 
L 1978 3297 
L 2297 4594 
L 2803 4594 
z
" transform="scale(0.015625)"/>
       <path id="DejaVuSans-20" transform="scale(0.015625)"/>
       <path id="DejaVuSans-66" d="M 2375 4863 
L 2375 4384 
L 1825 4384 
Q 1516 4384 1395 4259 
Q 1275 4134 1275 3809 
L 1275 3500 
L 2222 3500 
L 2222 3053 
L 1275 3053 
L 1275 0 
L 697 0 
L 697 3053 
L 147 3053 
L 147 3500 
L 697 3500 
L 697 3744 
Q 697 4328 969 4595 
Q 1241 4863 1831 4863 
L 2375 4863 
z
" transform="scale(0.015625)"/>
       <path id="DejaVuSans-2d" d="M 313 2009 
L 1997 2009 
L 1997 1497 
L 313 1497 
L 313 2009 
z
" transform="scale(0.015625)"/>
       <path id="DejaVuSans-65" d="M 3597 1894 
L 3597 1613 
L 953 1613 
Q 991 1019 1311 708 
Q 1631 397 2203 397 
Q 2534 397 2845 478 
Q 3156 559 3463 722 
L 3463 178 
Q 3153 47 2828 -22 
Q 2503 -91 2169 -91 
Q 1331 -91 842 396 
Q 353 884 353 1716 
Q 353 2575 817 3079 
Q 1281 3584 2069 3584 
Q 2775 3584 3186 3129 
Q 3597 2675 3597 1894 
z
M 3022 2063 
Q 3016 2534 2758 2815 
Q 2500 3097 2075 3097 
Q 1594 3097 1305 2825 
Q 1016 2553 972 2059 
L 3022 2063 
z
" transform="scale(0.015625)"/>
       <path id="DejaVuSans-76" d="M 191 3500 
L 800 3500 
L 1894 563 
L 2988 3500 
L 3597 3500 
L 2284 0 
L 1503 0 
L 191 3500 
z
" transform="scale(0.015625)"/>
       <path id="DejaVuSans-61" d="M 2194 1759 
Q 1497 1759 1228 1600 
Q 959 1441 959 1056 
Q 959 750 1161 570 
Q 1363 391 1709 391 
Q 2188 391 2477 730 
Q 2766 1069 2766 1631 
L 2766 1759 
L 2194 1759 
z
M 3341 1997 
L 3341 0 
L 2766 0 
L 2766 531 
Q 2569 213 2275 61 
Q 1981 -91 1556 -91 
Q 1019 -91 701 211 
Q 384 513 384 1019 
Q 384 1609 779 1909 
Q 1175 2209 1959 2209 
L 2766 2209 
L 2766 2266 
Q 2766 2663 2505 2880 
Q 2244 3097 1772 3097 
Q 1472 3097 1187 3025 
Q 903 2953 641 2809 
L 641 3341 
Q 956 3463 1253 3523 
Q 1550 3584 1831 3584 
Q 2591 3584 2966 3190 
Q 3341 2797 3341 1997 
z
" transform="scale(0.015625)"/>
       <path id="DejaVuSans-73" d="M 2834 3397 
L 2834 2853 
Q 2591 2978 2328 3040 
Q 2066 3103 1784 3103 
Q 1356 3103 1142 2972 
Q 928 2841 928 2578 
Q 928 2378 1081 2264 
Q 1234 2150 1697 2047 
L 1894 2003 
Q 2506 1872 2764 1633 
Q 3022 1394 3022 966 
Q 3022 478 2636 193 
Q 2250 -91 1575 -91 
Q 1294 -91 989 -36 
Q 684 19 347 128 
L 347 722 
Q 666 556 975 473 
Q 1284 391 1588 391 
Q 1994 391 2212 530 
Q 2431 669 2431 922 
Q 2431 1156 2273 1281 
Q 2116 1406 1581 1522 
L 1381 1569 
Q 847 1681 609 1914 
Q 372 2147 372 2553 
Q 372 3047 722 3315 
Q 1072 3584 1716 3584 
Q 2034 3584 2315 3537 
Q 2597 3491 2834 3397 
z
" transform="scale(0.015625)"/>
       <path id="DejaVuSans-2f" d="M 1625 4666 
L 2156 4666 
L 531 -594 
L 0 -594 
L 1625 4666 
z
" transform="scale(0.015625)"/>
       <path id="DejaVuSans-64" d="M 2906 2969 
L 2906 4863 
L 3481 4863 
L 3481 0 
L 2906 0 
L 2906 525 
Q 2725 213 2448 61 
Q 2172 -91 1784 -91 
Q 1150 -91 751 415 
Q 353 922 353 1747 
Q 353 2572 751 3078 
Q 1150 3584 1784 3584 
Q 2172 3584 2448 3432 
Q 2725 3281 2906 2969 
z
M 947 1747 
Q 947 1113 1208 752 
Q 1469 391 1925 391 
Q 2381 391 2643 752 
Q 2906 1113 2906 1747 
Q 2906 2381 2643 2742 
Q 2381 3103 1925 3103 
Q 1469 3103 1208 2742 
Q 947 2381 947 1747 
z
" transform="scale(0.015625)"/>
       <path id="DejaVuSans-69" d="M 603 3500 
L 1178 3500 
L 1178 0 
L 603 0 
L 603 3500 
z
M 603 4863 
L 1178 4863 
L 1178 4134 
L 603 4134 
L 603 4863 
z
" transform="scale(0.015625)"/>
       <path id="DejaVuSans-6d" d="M 3328 2828 
Q 3544 3216 3844 3400 
Q 4144 3584 4550 3584 
Q 5097 3584 5394 3201 
Q 5691 2819 5691 2113 
L 5691 0 
L 5113 0 
L 5113 2094 
Q 5113 2597 4934 2840 
Q 4756 3084 4391 3084 
Q 3944 3084 3684 2787 
Q 3425 2491 3425 1978 
L 3425 0 
L 2847 0 
L 2847 2094 
Q 2847 2600 2669 2842 
Q 2491 3084 2119 3084 
Q 1678 3084 1418 2786 
Q 1159 2488 1159 1978 
L 1159 0 
L 581 0 
L 581 3500 
L 1159 3500 
L 1159 2956 
Q 1356 3278 1631 3431 
Q 1906 3584 2284 3584 
Q 2666 3584 2933 3390 
Q 3200 3197 3328 2828 
z
" transform="scale(0.015625)"/>
       <path id="DejaVuSans-6e" d="M 3513 2113 
L 3513 0 
L 2938 0 
L 2938 2094 
Q 2938 2591 2744 2837 
Q 2550 3084 2163 3084 
Q 1697 3084 1428 2787 
Q 1159 2491 1159 1978 
L 1159 0 
L 581 0 
L 581 3500 
L 1159 3500 
L 1159 2956 
Q 1366 3272 1645 3428 
Q 1925 3584 2291 3584 
Q 2894 3584 3203 3211 
Q 3513 2838 3513 2113 
z
" transform="scale(0.015625)"/>
       <path id="DejaVuSans-29" d="M 513 4856 
L 1013 4856 
Q 1481 4119 1714 3412 
Q 1947 2706 1947 2009 
Q 1947 1309 1714 600 
Q 1481 -109 1013 -844 
L 513 -844 
Q 928 -128 1133 580 
Q 1338 1288 1338 2009 
Q 1338 2731 1133 3434 
Q 928 4138 513 4856 
z
" transform="scale(0.015625)"/>
      </defs>
      <use xlink:href="#DejaVuSans-6c"/>
      <use xlink:href="#DejaVuSans-6f" x="27.783203"/>
      <use xlink:href="#DejaVuSans-67" x="88.964844"/>
      <use xlink:href="#DejaVuSans-31" x="152.441406"/>
      <use xlink:href="#DejaVuSans-30" x="216.064453"/>
      <use xlink:href="#DejaVuSans-28" x="279.6875"/>
      <use xlink:href="#DejaVuSans-23" x="318.701172"/>
      <use xlink:href="#DejaVuSans-20" x="402.490234"/>
      <use xlink:href="#DejaVuSans-66" x="434.277344"/>
      <use xlink:href="#DejaVuSans-2d" x="463.982422"/>
      <use xlink:href="#DejaVuSans-65" x="500.066406"/>
      <use xlink:href="#DejaVuSans-76" x="561.589844"/>
      <use xlink:href="#DejaVuSans-61" x="620.769531"/>
      <use xlink:href="#DejaVuSans-6c" x="682.048828"/>
      <use xlink:href="#DejaVuSans-73" x="709.832031"/>
      <use xlink:href="#DejaVuSans-20" x="761.931641"/>
      <use xlink:href="#DejaVuSans-2f" x="793.71875"/>
      <use xlink:href="#DejaVuSans-20" x="827.410156"/>
      <use xlink:href="#DejaVuSans-64" x="859.197266"/>
      <use xlink:href="#DejaVuSans-69" x="922.673828"/>
      <use xlink:href="#DejaVuSans-6d" x="950.457031"/>
      <use xlink:href="#DejaVuSans-65" x="1047.869141"/>
      <use xlink:href="#DejaVuSans-6e" x="1109.392578"/>
      <use xlink:href="#DejaVuSans-73" x="1172.771484"/>
      <use xlink:href="#DejaVuSans-69" x="1224.871094"/>
      <use xlink:href="#DejaVuSans-6f" x="1252.654297"/>
      <use xlink:href="#DejaVuSans-6e" x="1313.835938"/>
      <use xlink:href="#DejaVuSans-29" x="1377.214844"/>
     </g>
    </g>
   </g>
   <g id="matplotlib.axis_2">
    <g id="ytick_1">
     <g id="line2d_21">
      <path d="M 57.6 298.944 
L 360.8064 298.944 
" clip-path="url(#p9b4ff610e1)" style="fill: none; stroke: #b0b0b0; stroke-width: 0.8; stroke-linecap: square"/>
     </g>
     <g id="line2d_22">
      <defs>
       <path id="me3b31b67fd" d="M 0 0 
L -3.5 0 
" style="stroke: #000000; stroke-width: 0.8"/>
      </defs>
      <g>
       <use xlink:href="#me3b31b67fd" x="57.6" y="298.944" style="stroke: #000000; stroke-width: 0.8"/>
      </g>
     </g>
     <g id="text_6">
      <!-- 0.0 -->
      <g transform="translate(25.155 305.02275) scale(0.16 -0.16)">
       <defs>
        <path id="DejaVuSans-2e" d="M 684 794 
L 1344 794 
L 1344 0 
L 684 0 
L 684 794 
z
" transform="scale(0.015625)"/>
       </defs>
       <use xlink:href="#DejaVuSans-30"/>
       <use xlink:href="#DejaVuSans-2e" x="63.623047"/>
       <use xlink:href="#DejaVuSans-30" x="95.410156"/>
      </g>
     </g>
    </g>
    <g id="ytick_2">
     <g id="line2d_23">
      <path d="M 57.6 244.6848 
L 360.8064 244.6848 
" clip-path="url(#p9b4ff610e1)" style="fill: none; stroke: #b0b0b0; stroke-width: 0.8; stroke-linecap: square"/>
     </g>
     <g id="line2d_24">
      <g>
       <use xlink:href="#me3b31b67fd" x="57.6" y="244.6848" style="stroke: #000000; stroke-width: 0.8"/>
      </g>
     </g>
     <g id="text_7">
      <!-- 0.2 -->
      <g transform="translate(25.155 250.76355) scale(0.16 -0.16)">
       <use xlink:href="#DejaVuSans-30"/>
       <use xlink:href="#DejaVuSans-2e" x="63.623047"/>
       <use xlink:href="#DejaVuSans-32" x="95.410156"/>
      </g>
     </g>
    </g>
    <g id="ytick_3">
     <g id="line2d_25">
      <path d="M 57.6 190.4256 
L 360.8064 190.4256 
" clip-path="url(#p9b4ff610e1)" style="fill: none; stroke: #b0b0b0; stroke-width: 0.8; stroke-linecap: square"/>
     </g>
     <g id="line2d_26">
      <g>
       <use xlink:href="#me3b31b67fd" x="57.6" y="190.4256" style="stroke: #000000; stroke-width: 0.8"/>
      </g>
     </g>
     <g id="text_8">
      <!-- 0.4 -->
      <g transform="translate(25.155 196.50435) scale(0.16 -0.16)">
       <use xlink:href="#DejaVuSans-30"/>
       <use xlink:href="#DejaVuSans-2e" x="63.623047"/>
       <use xlink:href="#DejaVuSans-34" x="95.410156"/>
      </g>
     </g>
    </g>
    <g id="ytick_4">
     <g id="line2d_27">
      <path d="M 57.6 136.1664 
L 360.8064 136.1664 
" clip-path="url(#p9b4ff610e1)" style="fill: none; stroke: #b0b0b0; stroke-width: 0.8; stroke-linecap: square"/>
     </g>
     <g id="line2d_28">
      <g>
       <use xlink:href="#me3b31b67fd" x="57.6" y="136.1664" style="stroke: #000000; stroke-width: 0.8"/>
      </g>
     </g>
     <g id="text_9">
      <!-- 0.6 -->
      <g transform="translate(25.155 142.24515) scale(0.16 -0.16)">
       <use xlink:href="#DejaVuSans-30"/>
       <use xlink:href="#DejaVuSans-2e" x="63.623047"/>
       <use xlink:href="#DejaVuSans-36" x="95.410156"/>
      </g>
     </g>
    </g>
    <g id="ytick_5">
     <g id="line2d_29">
      <path d="M 57.6 81.9072 
L 360.8064 81.9072 
" clip-path="url(#p9b4ff610e1)" style="fill: none; stroke: #b0b0b0; stroke-width: 0.8; stroke-linecap: square"/>
     </g>
     <g id="line2d_30">
      <g>
       <use xlink:href="#me3b31b67fd" x="57.6" y="81.9072" style="stroke: #000000; stroke-width: 0.8"/>
      </g>
     </g>
     <g id="text_10">
      <!-- 0.8 -->
      <g transform="translate(25.155 87.98595) scale(0.16 -0.16)">
       <defs>
        <path id="DejaVuSans-38" d="M 2034 2216 
Q 1584 2216 1326 1975 
Q 1069 1734 1069 1313 
Q 1069 891 1326 650 
Q 1584 409 2034 409 
Q 2484 409 2743 651 
Q 3003 894 3003 1313 
Q 3003 1734 2745 1975 
Q 2488 2216 2034 2216 
z
M 1403 2484 
Q 997 2584 770 2862 
Q 544 3141 544 3541 
Q 544 4100 942 4425 
Q 1341 4750 2034 4750 
Q 2731 4750 3128 4425 
Q 3525 4100 3525 3541 
Q 3525 3141 3298 2862 
Q 3072 2584 2669 2484 
Q 3125 2378 3379 2068 
Q 3634 1759 3634 1313 
Q 3634 634 3220 271 
Q 2806 -91 2034 -91 
Q 1263 -91 848 271 
Q 434 634 434 1313 
Q 434 1759 690 2068 
Q 947 2378 1403 2484 
z
M 1172 3481 
Q 1172 3119 1398 2916 
Q 1625 2713 2034 2713 
Q 2441 2713 2670 2916 
Q 2900 3119 2900 3481 
Q 2900 3844 2670 4047 
Q 2441 4250 2034 4250 
Q 1625 4250 1398 4047 
Q 1172 3844 1172 3481 
z
" transform="scale(0.015625)"/>
       </defs>
       <use xlink:href="#DejaVuSans-30"/>
       <use xlink:href="#DejaVuSans-2e" x="63.623047"/>
       <use xlink:href="#DejaVuSans-38" x="95.410156"/>
      </g>
     </g>
    </g>
    <g id="ytick_6">
     <g id="line2d_31">
      <path d="M 57.6 27.648 
L 360.8064 27.648 
" clip-path="url(#p9b4ff610e1)" style="fill: none; stroke: #b0b0b0; stroke-width: 0.8; stroke-linecap: square"/>
     </g>
     <g id="line2d_32">
      <g>
       <use xlink:href="#me3b31b67fd" x="57.6" y="27.648" style="stroke: #000000; stroke-width: 0.8"/>
      </g>
     </g>
     <g id="text_11">
      <!-- 1.0 -->
      <g transform="translate(25.155 33.72675) scale(0.16 -0.16)">
       <use xlink:href="#DejaVuSans-31"/>
       <use xlink:href="#DejaVuSans-2e" x="63.623047"/>
       <use xlink:href="#DejaVuSans-30" x="95.410156"/>
      </g>
     </g>
    </g>
    <g id="text_12">
     <!-- Fraction of function,target pairs -->
     <g transform="translate(17.619531 297.681) rotate(-90) scale(0.17 -0.17)">
      <defs>
       <path id="DejaVuSans-46" d="M 628 4666 
L 3309 4666 
L 3309 4134 
L 1259 4134 
L 1259 2759 
L 3109 2759 
L 3109 2228 
L 1259 2228 
L 1259 0 
L 628 0 
L 628 4666 
z
" transform="scale(0.015625)"/>
       <path id="DejaVuSans-72" d="M 2631 2963 
Q 2534 3019 2420 3045 
Q 2306 3072 2169 3072 
Q 1681 3072 1420 2755 
Q 1159 2438 1159 1844 
L 1159 0 
L 581 0 
L 581 3500 
L 1159 3500 
L 1159 2956 
Q 1341 3275 1631 3429 
Q 1922 3584 2338 3584 
Q 2397 3584 2469 3576 
Q 2541 3569 2628 3553 
L 2631 2963 
z
" transform="scale(0.015625)"/>
       <path id="DejaVuSans-63" d="M 3122 3366 
L 3122 2828 
Q 2878 2963 2633 3030 
Q 2388 3097 2138 3097 
Q 1578 3097 1268 2742 
Q 959 2388 959 1747 
Q 959 1106 1268 751 
Q 1578 397 2138 397 
Q 2388 397 2633 464 
Q 2878 531 3122 666 
L 3122 134 
Q 2881 22 2623 -34 
Q 2366 -91 2075 -91 
Q 1284 -91 818 406 
Q 353 903 353 1747 
Q 353 2603 823 3093 
Q 1294 3584 2113 3584 
Q 2378 3584 2631 3529 
Q 2884 3475 3122 3366 
z
" transform="scale(0.015625)"/>
       <path id="DejaVuSans-74" d="M 1172 4494 
L 1172 3500 
L 2356 3500 
L 2356 3053 
L 1172 3053 
L 1172 1153 
Q 1172 725 1289 603 
Q 1406 481 1766 481 
L 2356 481 
L 2356 0 
L 1766 0 
Q 1100 0 847 248 
Q 594 497 594 1153 
L 594 3053 
L 172 3053 
L 172 3500 
L 594 3500 
L 594 4494 
L 1172 4494 
z
" transform="scale(0.015625)"/>
       <path id="DejaVuSans-75" d="M 544 1381 
L 544 3500 
L 1119 3500 
L 1119 1403 
Q 1119 906 1312 657 
Q 1506 409 1894 409 
Q 2359 409 2629 706 
Q 2900 1003 2900 1516 
L 2900 3500 
L 3475 3500 
L 3475 0 
L 2900 0 
L 2900 538 
Q 2691 219 2414 64 
Q 2138 -91 1772 -91 
Q 1169 -91 856 284 
Q 544 659 544 1381 
z
M 1991 3584 
L 1991 3584 
z
" transform="scale(0.015625)"/>
       <path id="DejaVuSans-2c" d="M 750 794 
L 1409 794 
L 1409 256 
L 897 -744 
L 494 -744 
L 750 256 
L 750 794 
z
" transform="scale(0.015625)"/>
       <path id="DejaVuSans-70" d="M 1159 525 
L 1159 -1331 
L 581 -1331 
L 581 3500 
L 1159 3500 
L 1159 2969 
Q 1341 3281 1617 3432 
Q 1894 3584 2278 3584 
Q 2916 3584 3314 3078 
Q 3713 2572 3713 1747 
Q 3713 922 3314 415 
Q 2916 -91 2278 -91 
Q 1894 -91 1617 61 
Q 1341 213 1159 525 
z
M 3116 1747 
Q 3116 2381 2855 2742 
Q 2594 3103 2138 3103 
Q 1681 3103 1420 2742 
Q 1159 2381 1159 1747 
Q 1159 1113 1420 752 
Q 1681 391 2138 391 
Q 2594 391 2855 752 
Q 3116 1113 3116 1747 
z
" transform="scale(0.015625)"/>
      </defs>
      <use xlink:href="#DejaVuSans-46"/>
      <use xlink:href="#DejaVuSans-72" x="50.269531"/>
      <use xlink:href="#DejaVuSans-61" x="91.382812"/>
      <use xlink:href="#DejaVuSans-63" x="152.662109"/>
      <use xlink:href="#DejaVuSans-74" x="207.642578"/>
      <use xlink:href="#DejaVuSans-69" x="246.851562"/>
      <use xlink:href="#DejaVuSans-6f" x="274.634766"/>
      <use xlink:href="#DejaVuSans-6e" x="335.816406"/>
      <use xlink:href="#DejaVuSans-20" x="399.195312"/>
      <use xlink:href="#DejaVuSans-6f" x="430.982422"/>
      <use xlink:href="#DejaVuSans-66" x="492.164062"/>
      <use xlink:href="#DejaVuSans-20" x="527.369141"/>
      <use xlink:href="#DejaVuSans-66" x="559.15625"/>
      <use xlink:href="#DejaVuSans-75" x="594.361328"/>
      <use xlink:href="#DejaVuSans-6e" x="657.740234"/>
      <use xlink:href="#DejaVuSans-63" x="721.119141"/>
      <use xlink:href="#DejaVuSans-74" x="776.099609"/>
      <use xlink:href="#DejaVuSans-69" x="815.308594"/>
      <use xlink:href="#DejaVuSans-6f" x="843.091797"/>
      <use xlink:href="#DejaVuSans-6e" x="904.273438"/>
      <use xlink:href="#DejaVuSans-2c" x="967.652344"/>
      <use xlink:href="#DejaVuSans-74" x="999.439453"/>
      <use xlink:href="#DejaVuSans-61" x="1038.648438"/>
      <use xlink:href="#DejaVuSans-72" x="1099.927734"/>
      <use xlink:href="#DejaVuSans-67" x="1139.291016"/>
      <use xlink:href="#DejaVuSans-65" x="1202.767578"/>
      <use xlink:href="#DejaVuSans-74" x="1264.291016"/>
      <use xlink:href="#DejaVuSans-20" x="1303.5"/>
      <use xlink:href="#DejaVuSans-70" x="1335.287109"/>
      <use xlink:href="#DejaVuSans-61" x="1398.763672"/>
      <use xlink:href="#DejaVuSans-69" x="1460.042969"/>
      <use xlink:href="#DejaVuSans-72" x="1487.826172"/>
      <use xlink:href="#DejaVuSans-73" x="1528.939453"/>
     </g>
    </g>
   </g>
   <g id="line2d_33">
    <defs>
     <path id="m3802a45ae2" d="M 0 1.5 
C 0.397805 1.5 0.77937 1.341951 1.06066 1.06066 
C 1.341951 0.77937 1.5 0.397805 1.5 0 
C 1.5 -0.397805 1.341951 -0.77937 1.06066 -1.06066 
C 0.77937 -1.341951 0.397805 -1.5 0 -1.5 
C -0.397805 -1.5 -0.77937 -1.341951 -1.06066 -1.06066 
C -1.341951 -0.77937 -1.5 -0.397805 -1.5 0 
C -1.5 0.397805 -1.341951 0.77937 -1.06066 1.06066 
C -0.77937 1.341951 -0.397805 1.5 0 1.5 
z
" style="stroke: #f5deb3"/>
    </defs>
    <g>
     <use xlink:href="#m3802a45ae2" x="265.400902" y="60.390621" style="fill: #f5deb3; stroke: #f5deb3"/>
     <use xlink:href="#m3802a45ae2" x="265.400902" y="60.390621" style="fill: #f5deb3; stroke: #f5deb3"/>
    </g>
   </g>
   <g id="line2d_34">
    <defs>
     <path id="m4553868a4c" d="M 0 1.5 
C 0.397805 1.5 0.77937 1.341951 1.06066 1.06066 
C 1.341951 0.77937 1.5 0.397805 1.5 0 
C 1.5 -0.397805 1.341951 -0.77937 1.06066 -1.06066 
C 0.77937 -1.341951 0.397805 -1.5 0 -1.5 
C -0.397805 -1.5 -0.77937 -1.341951 -1.06066 -1.06066 
C -1.341951 -0.77937 -1.5 -0.397805 -1.5 0 
C -1.5 0.397805 -1.341951 0.77937 -1.06066 1.06066 
C -0.77937 1.341951 -0.397805 1.5 0 1.5 
z
" style="stroke: #000080"/>
    </defs>
    <g>
     <use xlink:href="#m4553868a4c" x="204.78847" y="164.699255" style="fill: #000080; stroke: #000080"/>
     <use xlink:href="#m4553868a4c" x="204.78847" y="164.699255" style="fill: #000080; stroke: #000080"/>
    </g>
   </g>
   <g id="line2d_35">
    <path d="M 27.323974 298.944 
L 27.323974 290.992221 
L 40.363149 290.992221 
L 40.363149 290.056717 
L 61.029752 290.056717 
L 61.029752 289.588966 
L 70.639174 289.588966 
L 70.639174 288.653462 
L 74.068926 288.653462 
L 74.068926 288.18571 
L 90.007914 288.18571 
L 90.007914 287.717959 
L 94.735529 287.717959 
L 94.735529 287.250207 
L 100.9152 287.250207 
L 100.9152 286.782455 
L 111.97238 286.782455 
L 111.97238 286.314703 
L 126.420564 286.314703 
L 126.420564 285.3792 
L 129.54072 285.3792 
L 129.54072 284.911448 
L 131.266322 284.911448 
L 131.266322 284.443697 
L 134.808158 284.443697 
L 134.808158 283.975945 
L 135.054871 283.975945 
L 135.054871 283.508193 
L 135.657857 283.508193 
L 135.657857 283.040441 
L 137.030737 283.040441 
L 137.030737 282.57269 
L 138.718057 282.57269 
L 138.718057 281.637186 
L 139.166565 281.637186 
L 139.215746 280.233931 
L 140.26641 280.233931 
L 140.26641 279.298428 
L 141.128852 279.298428 
L 141.128852 278.830676 
L 142.038218 278.830676 
L 142.038218 278.362924 
L 142.45627 278.362924 
L 142.497568 276.959669 
L 142.661862 276.959669 
L 142.661862 276.491917 
L 143.02636 276.491917 
L 143.02636 276.024166 
L 146.091614 276.024166 
L 146.159649 274.62091 
L 147.183884 274.62091 
L 147.183884 274.153159 
L 147.909315 274.153159 
L 147.909315 273.685407 
L 148.488177 273.685407 
L 148.488177 273.217655 
L 148.697031 273.217655 
L 148.697031 272.749903 
L 150.289291 272.749903 
L 150.289291 272.282152 
L 151.60532 272.282152 
L 151.681429 270.411145 
L 152.181101 270.411145 
L 152.279463 269.00789 
L 152.739781 269.00789 
L 152.739781 268.540138 
L 153.764426 268.540138 
L 153.764426 268.072386 
L 154.212341 268.072386 
L 154.212341 267.604634 
L 154.366625 267.604634 
L 154.366625 266.669131 
L 154.757642 266.669131 
L 154.757642 265.733628 
L 154.928852 265.733628 
L 154.950144 264.798124 
L 155.944819 264.798124 
L 155.985143 263.394869 
L 156.462418 263.394869 
L 156.462418 262.927117 
L 157.250754 262.927117 
L 157.250754 262.459366 
L 157.825621 262.459366 
L 157.825621 261.523862 
L 158.133569 261.523862 
L 158.133569 261.05611 
L 158.276759 261.05611 
L 158.276759 260.588359 
L 158.717331 260.588359 
L 158.717331 260.120607 
L 158.976805 260.120607 
L 158.976805 259.652855 
L 159.518669 259.652855 
L 159.518669 259.185103 
L 159.668298 259.185103 
L 159.668298 258.2496 
L 161.285788 258.2496 
L 161.285788 257.314097 
L 161.676769 257.314097 
L 161.676769 256.846345 
L 162.690724 256.846345 
L 162.690724 255.910841 
L 163.82619 255.910841 
L 163.839461 254.507586 
L 165.183257 254.507586 
L 165.195605 253.104331 
L 165.392072 253.104331 
L 165.392072 252.168828 
L 165.538087 252.168828 
L 165.538087 251.701076 
L 166.052194 251.701076 
L 166.052194 250.765572 
L 167.084795 250.765572 
L 167.084795 250.297821 
L 167.678199 250.297821 
L 167.678199 249.362317 
L 168.211442 249.362317 
L 168.211442 248.426814 
L 168.378936 248.426814 
L 168.441364 245.620303 
L 168.647973 245.620303 
L 168.647973 245.152552 
L 169.194741 245.152552 
L 169.194741 244.6848 
L 169.706651 244.6848 
L 169.706651 243.749297 
L 169.832482 243.749297 
L 169.832482 243.281545 
L 170.561006 243.281545 
L 170.579558 241.87829 
L 171.413749 241.87829 
L 171.413749 241.410538 
L 171.852062 241.410538 
L 171.852062 240.942786 
L 172.356469 240.942786 
L 172.356469 240.475034 
L 173.060174 240.475034 
L 173.060174 240.007283 
L 173.278305 240.007283 
L 173.350456 238.136276 
L 174.468765 238.136276 
L 174.468765 237.668524 
L 174.648853 237.668524 
L 174.648853 236.733021 
L 174.98194 236.733021 
L 174.98194 236.265269 
L 175.171736 236.265269 
L 175.171736 235.797517 
L 175.729899 235.797517 
L 175.729899 234.862014 
L 176.030666 234.862014 
L 176.037604 232.523255 
L 176.765533 232.523255 
L 176.765533 232.055503 
L 177.226946 232.055503 
L 177.226946 231.12 
L 177.929905 231.12 
L 177.929905 230.652248 
L 178.042475 230.652248 
L 178.042475 230.184497 
L 178.595434 230.184497 
L 178.595434 229.716745 
L 178.800172 229.716745 
L 178.800172 228.781241 
L 179.085471 228.781241 
L 179.085471 228.31349 
L 179.859766 228.31349 
L 179.859766 227.845738 
L 180.201956 227.845738 
L 180.201956 226.910234 
L 180.760594 226.910234 
L 180.760594 225.974731 
L 181.423321 225.974731 
L 181.423321 225.039228 
L 181.840628 225.039228 
L 181.840628 224.103724 
L 181.977698 224.103724 
L 181.997921 222.700469 
L 182.516205 222.700469 
L 182.516205 221.764966 
L 182.692336 221.764966 
L 182.692336 220.829462 
L 183.039725 220.829462 
L 183.039725 219.426207 
L 183.59554 219.426207 
L 183.59554 218.490703 
L 184.094768 218.490703 
L 184.094768 217.5552 
L 184.756448 217.5552 
L 184.843519 216.151945 
L 185.003545 216.151945 
L 185.003545 215.684193 
L 185.336501 215.684193 
L 185.336501 214.74869 
L 185.458805 214.74869 
L 185.458805 214.280938 
L 185.609533 214.280938 
L 185.709351 211.474428 
L 186.679442 211.474428 
L 186.679442 211.006676 
L 186.793345 211.006676 
L 186.793345 210.071172 
L 187.050029 210.071172 
L 187.053891 208.667917 
L 187.177069 208.667917 
L 187.177069 208.200166 
L 187.635679 208.200166 
L 187.635679 207.732414 
L 187.966008 207.732414 
L 187.991745 206.79691 
L 188.090686 206.79691 
L 188.09434 205.861407 
L 188.524234 205.861407 
L 188.524234 204.925903 
L 188.677189 204.925903 
L 188.677189 203.9904 
L 189.156378 203.9904 
L 189.156378 203.054897 
L 190.030236 203.054897 
L 190.030236 202.587145 
L 190.321387 202.587145 
L 190.321387 202.119393 
L 190.556877 202.119393 
L 190.556877 201.651641 
L 190.710129 201.651641 
L 190.776786 199.780634 
L 191.047325 199.780634 
L 191.047325 199.312883 
L 191.16874 199.312883 
L 191.16874 198.377379 
L 191.381651 198.377379 
L 191.396986 196.974124 
L 191.619466 196.974124 
L 191.686002 195.570869 
L 191.815375 195.570869 
L 191.863287 194.167614 
L 192.382422 194.167614 
L 192.382422 193.699862 
L 192.719767 193.699862 
L 192.719767 192.764359 
L 193.003378 192.764359 
L 193.079226 191.361103 
L 193.132417 191.361103 
L 193.227228 189.957848 
L 193.503346 189.957848 
L 193.569015 189.022345 
L 193.998379 189.022345 
L 193.998379 188.086841 
L 194.149947 188.086841 
L 194.149947 186.683586 
L 194.266117 186.683586 
L 194.266117 186.215834 
L 194.535287 186.215834 
L 194.535287 185.748083 
L 194.656844 185.748083 
L 194.656844 184.812579 
L 194.826227 184.812579 
L 194.826227 184.344828 
L 195.147929 184.344828 
L 195.152952 182.941572 
L 195.587303 182.941572 
L 195.587303 182.473821 
L 195.709584 182.473821 
L 195.709584 182.006069 
L 196.009453 182.006069 
L 196.009453 181.538317 
L 196.179024 181.538317 
L 196.179024 181.070566 
L 196.4059 181.070566 
L 196.4059 180.135062 
L 196.812564 180.135062 
L 196.812564 179.66731 
L 196.931727 179.66731 
L 196.945428 178.731807 
L 197.560709 178.731807 
L 197.560709 177.796303 
L 197.681825 177.796303 
L 197.784711 175.457545 
L 197.952061 175.457545 
L 197.952061 174.989793 
L 198.434818 174.989793 
L 198.487467 174.05429 
L 198.577681 174.05429 
L 198.577681 173.118786 
L 198.84369 173.118786 
L 198.878739 172.183283 
L 199.050965 172.183283 
L 199.050965 171.715531 
L 199.32852 171.715531 
L 199.32852 170.780028 
L 200.187446 170.780028 
L 200.187446 170.312276 
L 200.365285 170.312276 
L 200.365285 169.844524 
L 200.829606 169.844524 
L 200.829606 168.909021 
L 201.087782 168.909021 
L 201.168197 167.973517 
L 201.28999 167.973517 
L 201.309911 167.038014 
L 202.081239 167.038014 
L 202.081239 166.570262 
L 202.541168 166.570262 
L 202.541168 165.634759 
L 204.635904 165.634759 
L 204.635904 165.167007 
L 204.78847 165.167007 
L 204.78847 164.699255 
L 360.8064 164.699255 
L 360.8064 164.699255 
" style="fill: none; stroke: #000080; stroke-width: 1.5; stroke-linecap: square"/>
   </g>
   <g id="line2d_36">
    <defs>
     <path id="m5b2441c7cd" d="M 0 6 
C 1.591219 6 3.117479 5.367802 4.242641 4.242641 
C 5.367802 3.117479 6 1.591219 6 0 
C 6 -1.591219 5.367802 -3.117479 4.242641 -4.242641 
C 3.117479 -5.367802 1.591219 -6 0 -6 
C -1.591219 -6 -3.117479 -5.367802 -4.242641 -4.242641 
C -5.367802 -3.117479 -6 -1.591219 -6 0 
C -6 1.591219 -5.367802 3.117479 -4.242641 4.242641 
C -3.117479 5.367802 -1.591219 6 0 6 
z
" style="stroke: #000080; stroke-width: 1.5"/>
    </defs>
    <g>
     <use xlink:href="#m5b2441c7cd" x="157.250754" y="262.459366" style="fill-opacity: 0; stroke: #000080; stroke-width: 1.5"/>
     <use xlink:href="#m5b2441c7cd" x="196.4059" y="181.070566" style="fill-opacity: 0; stroke: #000080; stroke-width: 1.5"/>
     <use xlink:href="#m5b2441c7cd" x="204.78847" y="165.167007" style="fill-opacity: 0; stroke: #000080; stroke-width: 1.5"/>
     <use xlink:href="#m5b2441c7cd" x="204.78847" y="164.699255" style="fill-opacity: 0; stroke: #000080; stroke-width: 1.5"/>
     <use xlink:href="#m5b2441c7cd" x="204.78847" y="164.699255" style="fill-opacity: 0; stroke: #000080; stroke-width: 1.5"/>
     <use xlink:href="#m5b2441c7cd" x="360.8064" y="164.699255" style="fill-opacity: 0; stroke: #000080; stroke-width: 1.5"/>
    </g>
   </g>
   <g id="line2d_37">
    <path style="fill: none; stroke: #000080; stroke-width: 1.5; stroke-linecap: square"/>
    <g/>
   </g>
   <g id="line2d_38">
    <path d="M 230.866066 164.699255 
" clip-path="url(#p9b4ff610e1)" style="fill: none; stroke: #000080; stroke-width: 1.5; stroke-linecap: square"/>
    <defs>
     <path id="mdc104f94fc" d="M -12 12 
L 12 -12 
M -12 -12 
L 12 12 
" style="stroke: #000080"/>
    </defs>
    <g clip-path="url(#p9b4ff610e1)">
     <use xlink:href="#mdc104f94fc" x="230.866066" y="164.699255" style="fill: #000080; stroke: #000080"/>
    </g>
   </g>
   <g id="line2d_39">
    <defs>
     <path id="m0ed440f1c1" d="M 0 1.5 
C 0.397805 1.5 0.77937 1.341951 1.06066 1.06066 
C 1.341951 0.77937 1.5 0.397805 1.5 0 
C 1.5 -0.397805 1.341951 -0.77937 1.06066 -1.06066 
C 0.77937 -1.341951 0.397805 -1.5 0 -1.5 
C -0.397805 -1.5 -0.77937 -1.341951 -1.06066 -1.06066 
C -1.341951 -0.77937 -1.5 -0.397805 -1.5 0 
C -1.5 0.397805 -1.341951 0.77937 -1.06066 1.06066 
C -0.77937 1.341951 -0.397805 1.5 0 1.5 
z
" style="stroke: #ff00ff"/>
    </defs>
    <g>
     <use xlink:href="#m0ed440f1c1" x="193.645341" y="172.651034" style="fill: #ff00ff; stroke: #ff00ff"/>
     <use xlink:href="#m0ed440f1c1" x="193.645341" y="172.651034" style="fill: #ff00ff; stroke: #ff00ff"/>
    </g>
   </g>
   <g id="line2d_40">
    <path d="M 27.323974 298.944 
L 27.323974 290.992221 
L 40.363149 290.992221 
L 40.363149 288.653462 
L 53.402323 288.653462 
L 53.402323 288.18571 
L 57.6 288.18571 
L 57.6 287.717959 
L 68.65718 287.717959 
L 68.65718 287.250207 
L 70.639174 287.250207 
L 70.639174 286.782455 
L 91.305777 286.782455 
L 91.305777 286.314703 
L 93.098709 286.314703 
L 93.098709 285.846952 
L 93.66029 285.846952 
L 93.66029 285.3792 
L 94.735529 285.3792 
L 94.735529 284.911448 
L 100.535156 284.911448 
L 100.535156 284.443697 
L 102.011329 284.443697 
L 102.011329 283.975945 
L 103.707211 283.975945 
L 103.707211 283.040441 
L 105.850679 283.040441 
L 105.850679 282.57269 
L 106.137884 282.57269 
L 106.137884 282.104938 
L 109.037698 282.104938 
L 109.037698 280.701683 
L 109.756698 280.701683 
L 109.756698 279.766179 
L 111.762192 279.766179 
L 111.762192 279.298428 
L 111.97238 279.298428 
L 111.97238 278.830676 
L 112.790402 278.830676 
L 112.790402 278.362924 
L 114.692177 278.362924 
L 114.692177 277.895172 
L 115.227139 277.895172 
L 115.227139 276.959669 
L 116.086263 276.959669 
L 116.086263 276.024166 
L 116.253478 276.024166 
L 116.253478 275.556414 
L 117.848632 275.556414 
L 117.848632 275.088662 
L 118.74459 275.088662 
L 118.74459 274.153159 
L 124.695386 274.153159 
L 124.695386 273.685407 
L 125.425011 273.685407 
L 125.425011 272.749903 
L 127.18073 272.749903 
L 127.18073 272.282152 
L 128.089678 272.282152 
L 128.089678 271.8144 
L 130.579414 271.8144 
L 130.579414 271.346648 
L 131.040128 271.346648 
L 131.040128 270.878897 
L 132.287354 270.878897 
L 132.287354 270.411145 
L 132.984158 270.411145 
L 132.984158 269.943393 
L 133.656071 269.943393 
L 133.656071 269.475641 
L 134.431915 269.475641 
L 134.431915 269.00789 
L 134.620977 269.00789 
L 134.620977 268.540138 
L 135.177024 268.540138 
L 135.177024 268.072386 
L 135.657857 268.072386 
L 135.657857 267.604634 
L 136.640557 267.604634 
L 136.640557 266.669131 
L 136.864507 266.669131 
L 136.97549 265.733628 
L 137.030737 265.733628 
L 137.030737 264.330372 
L 137.787626 264.330372 
L 137.787626 263.394869 
L 138.868751 263.394869 
L 138.868751 262.927117 
L 141.173167 262.927117 
L 141.173167 262.459366 
L 143.38393 262.459366 
L 143.38393 261.05611 
L 143.811926 261.05611 
L 143.850356 259.652855 
L 144.003296 259.652855 
L 144.003296 259.185103 
L 144.931992 259.185103 
L 144.931992 258.717352 
L 145.538293 258.717352 
L 145.538293 258.2496 
L 146.826795 258.2496 
L 146.826795 257.781848 
L 147.022411 257.781848 
L 147.022411 257.314097 
L 147.439393 257.314097 
L 147.439393 256.378593 
L 148.548087 256.378593 
L 148.548087 255.44309 
L 149.367382 255.44309 
L 149.367382 254.975338 
L 150.179921 254.975338 
L 150.262008 252.636579 
L 150.316534 252.636579 
L 150.425115 251.233324 
L 150.613636 251.233324 
L 150.613636 250.765572 
L 151.579882 250.765572 
L 151.579882 250.297821 
L 152.691854 250.297821 
L 152.691854 249.362317 
L 153.877408 249.362317 
L 153.877408 248.894566 
L 154.410475 248.894566 
L 154.410475 247.959062 
L 154.907535 247.959062 
L 154.907535 247.023559 
L 156.363979 247.023559 
L 156.363979 246.555807 
L 156.657763 246.555807 
L 156.657763 245.620303 
L 157.175281 245.620303 
L 157.175281 245.152552 
L 157.586683 245.152552 
L 157.586683 244.217048 
L 158.804221 244.217048 
L 158.907961 242.346041 
L 160.012872 242.346041 
L 160.012872 240.942786 
L 160.126341 240.942786 
L 160.126341 240.475034 
L 160.319282 240.475034 
L 160.319282 240.007283 
L 160.510264 240.007283 
L 160.510264 239.071779 
L 163.260183 239.071779 
L 163.260183 238.136276 
L 165.183257 238.136276 
L 165.183257 237.668524 
L 165.586508 237.668524 
L 165.586508 236.265269 
L 165.755007 236.265269 
L 165.755007 235.329766 
L 165.957604 235.329766 
L 165.957604 234.394262 
L 166.075768 234.394262 
L 166.075768 233.458759 
L 166.379563 233.458759 
L 166.379563 232.523255 
L 166.8036 232.523255 
L 166.8036 232.055503 
L 167.493397 232.055503 
L 167.493397 231.587752 
L 167.689013 231.587752 
L 167.689013 231.12 
L 167.829037 231.12 
L 167.829037 230.652248 
L 168.095418 230.652248 
L 168.095418 230.184497 
L 168.709515 230.184497 
L 168.709515 229.716745 
L 170.043526 229.716745 
L 170.043526 229.248993 
L 171.387122 229.248993 
L 171.475731 227.845738 
L 171.826049 227.845738 
L 171.826049 227.377986 
L 172.161441 227.377986 
L 172.161441 226.910234 
L 172.457426 226.910234 
L 172.557844 225.039228 
L 172.773594 225.039228 
L 172.773594 224.103724 
L 173.374446 224.103724 
L 173.374446 223.168221 
L 174.678701 223.168221 
L 174.678701 222.700469 
L 174.819834 222.700469 
L 174.819834 221.764966 
L 174.959917 221.764966 
L 174.959917 220.829462 
L 175.106254 220.829462 
L 175.106254 219.893959 
L 176.265124 219.893959 
L 176.265124 218.958455 
L 176.54402 218.958455 
L 176.54402 218.022952 
L 176.691985 218.022952 
L 176.691985 217.5552 
L 177.272471 217.5552 
L 177.272471 216.619697 
L 177.575318 216.619697 
L 177.575318 216.151945 
L 178.011273 216.151945 
L 178.036239 214.280938 
L 179.774658 214.280938 
L 179.774658 213.345434 
L 179.910646 213.345434 
L 179.910646 212.409931 
L 180.532572 212.409931 
L 180.641498 209.603421 
L 180.646928 209.603421 
L 180.646928 209.135669 
L 181.176866 209.135669 
L 181.282135 207.732414 
L 181.866087 207.732414 
L 181.927048 206.329159 
L 182.048381 206.329159 
L 182.048381 205.861407 
L 182.20895 205.861407 
L 182.20895 204.925903 
L 182.343372 204.925903 
L 182.392915 203.9904 
L 183.063612 203.9904 
L 183.135094 201.651641 
L 183.418335 201.651641 
L 183.418335 200.716138 
L 183.60482 200.716138 
L 183.60482 200.248386 
L 183.849099 200.248386 
L 183.849099 199.312883 
L 183.963234 199.312883 
L 183.963234 198.845131 
L 184.346191 198.845131 
L 184.408525 197.909628 
L 185.399861 197.909628 
L 185.500795 196.974124 
L 185.55106 196.974124 
L 185.55106 196.506372 
L 185.936123 196.506372 
L 185.936123 196.038621 
L 186.675502 196.038621 
L 186.675502 195.570869 
L 187.034572 195.570869 
L 187.034572 195.103117 
L 187.291821 195.103117 
L 187.291821 194.635366 
L 187.489081 194.635366 
L 187.538074 192.764359 
L 187.773712 192.764359 
L 187.773712 191.828855 
L 187.895974 191.828855 
L 187.895974 190.893352 
L 188.152716 190.893352 
L 188.170921 189.490097 
L 188.534946 189.490097 
L 188.645278 188.086841 
L 188.666558 188.086841 
L 188.712582 187.151338 
L 189.000323 187.151338 
L 189.107966 184.812579 
L 189.24252 184.812579 
L 189.24252 183.877076 
L 189.522327 183.877076 
L 189.522327 183.409324 
L 189.647231 183.409324 
L 189.757937 181.538317 
L 189.784677 181.538317 
L 189.818049 180.602814 
L 190.079623 180.602814 
L 190.079623 180.135062 
L 190.649616 180.135062 
L 190.751421 178.731807 
L 190.937691 178.731807 
L 190.937691 177.796303 
L 191.552694 177.796303 
L 191.552694 177.328552 
L 191.964697 177.328552 
L 191.964697 176.8608 
L 192.189421 176.8608 
L 192.189421 176.393048 
L 192.396963 176.393048 
L 192.423108 174.989793 
L 192.619485 174.989793 
L 192.619485 174.522041 
L 193.000563 174.522041 
L 193.000563 174.05429 
L 193.346456 174.05429 
L 193.346456 173.586538 
L 193.527999 173.586538 
L 193.527999 173.118786 
L 193.645341 173.118786 
L 193.645341 172.651034 
L 360.8064 172.651034 
L 360.8064 172.651034 
" style="fill: none; stroke: #ff00ff; stroke-width: 1.5; stroke-linecap: square"/>
   </g>
   <g id="line2d_41">
    <defs>
     <path id="mec6c2fac8e" d="M -0 8.485281 
L 5.091169 0 
L 0 -8.485281 
L -5.091169 -0 
z
" style="stroke: #ff00ff; stroke-width: 1.5; stroke-linejoin: miter"/>
    </defs>
    <g>
     <use xlink:href="#mec6c2fac8e" x="137.787626" y="264.330372" style="fill-opacity: 0; stroke: #ff00ff; stroke-width: 1.5; stroke-linejoin: miter"/>
     <use xlink:href="#mec6c2fac8e" x="184.408525" y="197.909628" style="fill-opacity: 0; stroke: #ff00ff; stroke-width: 1.5; stroke-linejoin: miter"/>
     <use xlink:href="#mec6c2fac8e" x="193.645341" y="173.118786" style="fill-opacity: 0; stroke: #ff00ff; stroke-width: 1.5; stroke-linejoin: miter"/>
     <use xlink:href="#mec6c2fac8e" x="193.645341" y="172.651034" style="fill-opacity: 0; stroke: #ff00ff; stroke-width: 1.5; stroke-linejoin: miter"/>
     <use xlink:href="#mec6c2fac8e" x="193.645341" y="172.651034" style="fill-opacity: 0; stroke: #ff00ff; stroke-width: 1.5; stroke-linejoin: miter"/>
     <use xlink:href="#mec6c2fac8e" x="360.8064" y="172.651034" style="fill-opacity: 0; stroke: #ff00ff; stroke-width: 1.5; stroke-linejoin: miter"/>
    </g>
   </g>
   <g id="line2d_42">
    <path style="fill: none; stroke: #ff00ff; stroke-width: 1.5; stroke-linecap: square"/>
    <g/>
   </g>
   <g id="line2d_43">
    <path d="M 230.869075 172.651034 
" clip-path="url(#p9b4ff610e1)" style="fill: none; stroke: #ff00ff; stroke-width: 1.5; stroke-linecap: square"/>
    <defs>
     <path id="m4678e8ab0c" d="M -12 12 
L 12 -12 
M -12 -12 
L 12 12 
" style="stroke: #ff00ff"/>
    </defs>
    <g clip-path="url(#p9b4ff610e1)">
     <use xlink:href="#m4678e8ab0c" x="230.869075" y="172.651034" style="fill: #ff00ff; stroke: #ff00ff"/>
    </g>
   </g>
   <g id="line2d_44">
    <defs>
     <path id="maf93041c09" d="M 0 1.5 
C 0.397805 1.5 0.77937 1.341951 1.06066 1.06066 
C 1.341951 0.77937 1.5 0.397805 1.5 0 
C 1.5 -0.397805 1.341951 -0.77937 1.06066 -1.06066 
C 0.77937 -1.341951 0.397805 -1.5 0 -1.5 
C -0.397805 -1.5 -0.77937 -1.341951 -1.06066 -1.06066 
C -1.341951 -0.77937 -1.5 -0.397805 -1.5 0 
C -1.5 0.397805 -1.341951 0.77937 -1.06066 1.06066 
C -0.77937 1.341951 -0.397805 1.5 0 1.5 
z
" style="stroke: #ff7500"/>
    </defs>
    <g>
     <use xlink:href="#maf93041c09" x="215.010643" y="187.151338" style="fill: #ff7500; stroke: #ff7500"/>
     <use xlink:href="#maf93041c09" x="215.010643" y="187.151338" style="fill: #ff7500; stroke: #ff7500"/>
    </g>
   </g>
   <g id="line2d_45">
    <path d="M 27.323974 298.944 
L 27.323974 290.992221 
L 40.363149 290.992221 
L 40.363149 289.588966 
L 95.752617 289.588966 
L 95.752617 288.653462 
L 108.29012 288.653462 
L 108.29012 287.250207 
L 121.073351 287.250207 
L 121.073351 286.782455 
L 125.219419 286.782455 
L 125.219419 285.3792 
L 128.614685 285.3792 
L 128.614685 283.975945 
L 131.489828 283.975945 
L 131.489828 283.508193 
L 136.184497 283.508193 
L 136.184497 283.040441 
L 139.93843 283.040441 
L 139.93843 281.637186 
L 141.56737 281.637186 
L 141.56737 279.766179 
L 143.066428 279.766179 
L 143.066428 278.362924 
L 144.454795 278.362924 
L 144.454795 277.895172 
L 145.7477 277.895172 
L 145.7477 276.959669 
L 148.094045 276.959669 
L 148.094045 275.556414 
L 149.165879 275.556414 
L 149.165879 273.217655 
L 151.142085 273.217655 
L 151.142085 271.8144 
L 152.057422 271.8144 
L 152.057422 270.411145 
L 153.764426 270.411145 
L 153.764426 268.540138 
L 154.563149 268.540138 
L 154.563149 267.604634 
L 155.329337 267.604634 
L 155.329337 266.669131 
L 156.065535 266.669131 
L 156.065535 266.201379 
L 156.774003 266.201379 
L 156.774003 264.798124 
L 157.456756 264.798124 
L 157.456756 263.862621 
L 158.115593 263.862621 
L 158.115593 262.459366 
L 158.752135 262.459366 
L 158.752135 261.991614 
L 159.367841 261.991614 
L 159.367841 261.523862 
L 159.964032 261.523862 
L 159.964032 261.05611 
L 160.541906 261.05611 
L 160.541906 260.120607 
L 161.646981 260.120607 
L 161.646981 258.2496 
L 162.17609 258.2496 
L 162.17609 257.781848 
L 163.191653 257.781848 
L 163.191653 256.378593 
L 164.155187 256.378593 
L 164.155187 255.44309 
L 165.071763 255.44309 
L 165.071763 254.975338 
L 165.51383 254.975338 
L 165.51383 254.039834 
L 165.945747 254.039834 
L 165.945747 253.572083 
L 166.780922 253.572083 
L 166.780922 253.104331 
L 167.185004 253.104331 
L 167.185004 252.168828 
L 167.580589 252.168828 
L 167.580589 251.701076 
L 168.347644 251.701076 
L 168.347644 250.765572 
L 169.442591 250.765572 
L 169.442591 249.830069 
L 170.477296 249.830069 
L 170.477296 247.959062 
L 170.809925 247.959062 
L 170.809925 245.620303 
L 171.458043 245.620303 
L 171.458043 244.6848 
L 171.773916 244.6848 
L 171.773916 242.813793 
L 172.084572 242.813793 
L 172.084572 241.87829 
L 172.986898 241.87829 
L 172.986898 240.942786 
L 173.278305 240.942786 
L 173.278305 240.475034 
L 174.671243 240.475034 
L 174.671243 240.007283 
L 175.460042 240.007283 
L 175.460042 239.539531 
L 175.715792 239.539531 
L 175.715792 238.604028 
L 175.968112 238.604028 
L 175.968112 238.136276 
L 176.705378 238.136276 
L 176.705378 237.668524 
L 177.181311 237.668524 
L 177.181311 236.733021 
L 177.645499 236.733021 
L 177.645499 235.797517 
L 177.873367 235.797517 
L 177.873367 234.394262 
L 178.320986 234.394262 
L 178.320986 232.991007 
L 179.603279 232.991007 
L 179.603279 232.523255 
L 179.808747 232.523255 
L 179.808747 230.652248 
L 180.213071 230.652248 
L 180.213071 229.248993 
L 180.41202 229.248993 
L 180.41202 228.31349 
L 180.608887 228.31349 
L 180.608887 226.910234 
L 180.803715 226.910234 
L 180.803715 226.442483 
L 180.996545 226.442483 
L 180.996545 225.506979 
L 181.932119 225.506979 
L 181.932119 225.039228 
L 182.113777 225.039228 
L 182.113777 224.103724 
L 182.823359 224.103724 
L 182.823359 223.168221 
L 182.99665 223.168221 
L 182.99665 222.700469 
L 183.168359 222.700469 
L 183.168359 222.232717 
L 183.674278 222.232717 
L 183.674278 220.829462 
L 184.488367 220.829462 
L 184.488367 219.893959 
L 184.64704 219.893959 
L 184.64704 218.958455 
L 184.804387 218.958455 
L 184.804387 218.022952 
L 185.571964 218.022952 
L 185.571964 216.619697 
L 185.870435 216.619697 
L 185.870435 215.684193 
L 186.453534 215.684193 
L 186.453534 214.74869 
L 186.596528 214.74869 
L 186.596528 213.813186 
L 187.295634 213.813186 
L 187.295634 211.942179 
L 187.56816 211.942179 
L 187.56816 211.474428 
L 187.969687 211.474428 
L 187.969687 211.006676 
L 188.62042 211.006676 
L 188.62042 210.071172 
L 188.874539 210.071172 
L 188.874539 208.667917 
L 189.372704 208.667917 
L 189.372704 207.732414 
L 189.977413 207.732414 
L 189.977413 207.264662 
L 190.792622 207.264662 
L 190.792622 206.79691 
L 191.24307 206.79691 
L 191.24307 206.329159 
L 191.464312 206.329159 
L 191.573965 203.522648 
L 192.006296 203.522648 
L 192.006296 203.054897 
L 192.428913 203.054897 
L 192.428913 202.119393 
L 192.636714 202.119393 
L 192.636714 201.651641 
L 192.944174 201.651641 
L 192.944174 200.716138 
L 193.934194 200.716138 
L 193.934194 200.248386 
L 194.126096 200.248386 
L 194.221318 199.312883 
L 194.504125 199.312883 
L 194.504125 198.845131 
L 194.966223 198.845131 
L 194.966223 197.909628 
L 195.327898 197.909628 
L 195.327898 196.974124 
L 195.857697 196.974124 
L 195.857697 196.038621 
L 196.541656 196.038621 
L 196.625429 195.103117 
L 196.70883 195.103117 
L 196.70883 194.167614 
L 196.874531 194.167614 
L 196.874531 193.23211 
L 197.038785 193.23211 
L 197.038785 192.764359 
L 197.681825 192.764359 
L 197.681825 192.296607 
L 197.917409 192.296607 
L 197.917409 191.828855 
L 198.682039 191.828855 
L 198.682039 191.361103 
L 200.805451 191.361103 
L 200.805451 190.893352 
L 200.938841 190.893352 
L 200.938841 189.957848 
L 202.036014 189.957848 
L 202.036014 189.490097 
L 202.346899 189.490097 
L 202.346899 189.022345 
L 202.773683 189.022345 
L 202.773683 188.554593 
L 213.708411 188.554593 
L 213.708411 187.61909 
L 215.010643 187.61909 
L 215.010643 187.151338 
L 360.8064 187.151338 
L 360.8064 187.151338 
" style="fill: none; stroke: #ff7500; stroke-width: 1.5; stroke-linecap: square"/>
   </g>
   <g id="line2d_46">
    <defs>
     <path id="m36c25bc6b3" d="M 0 -6 
L -1.347084 -1.854102 
L -5.706339 -1.854102 
L -2.179628 0.708204 
L -3.526712 4.854102 
L -0 2.291796 
L 3.526712 4.854102 
L 2.179628 0.708204 
L 5.706339 -1.854102 
L 1.347084 -1.854102 
z
" style="stroke: #ff7500; stroke-width: 1.5; stroke-linejoin: bevel"/>
    </defs>
    <g>
     <use xlink:href="#m36c25bc6b3" x="108.29012" y="287.250207" style="fill-opacity: 0; stroke: #ff7500; stroke-width: 1.5; stroke-linejoin: bevel"/>
     <use xlink:href="#m36c25bc6b3" x="180.213071" y="230.652248" style="fill-opacity: 0; stroke: #ff7500; stroke-width: 1.5; stroke-linejoin: bevel"/>
     <use xlink:href="#m36c25bc6b3" x="215.010643" y="187.61909" style="fill-opacity: 0; stroke: #ff7500; stroke-width: 1.5; stroke-linejoin: bevel"/>
     <use xlink:href="#m36c25bc6b3" x="215.010643" y="187.151338" style="fill-opacity: 0; stroke: #ff7500; stroke-width: 1.5; stroke-linejoin: bevel"/>
     <use xlink:href="#m36c25bc6b3" x="215.010643" y="187.151338" style="fill-opacity: 0; stroke: #ff7500; stroke-width: 1.5; stroke-linejoin: bevel"/>
     <use xlink:href="#m36c25bc6b3" x="360.8064" y="187.151338" style="fill-opacity: 0; stroke: #ff7500; stroke-width: 1.5; stroke-linejoin: bevel"/>
    </g>
   </g>
   <g id="line2d_47">
    <path style="fill: none; stroke: #ff7500; stroke-width: 1.5; stroke-linecap: square"/>
    <g/>
   </g>
   <g id="line2d_48">
    <path d="M 230.862681 187.151338 
" clip-path="url(#p9b4ff610e1)" style="fill: none; stroke: #ff7500; stroke-width: 1.5; stroke-linecap: square"/>
    <defs>
     <path id="m9766c0868d" d="M -12 12 
L 12 -12 
M -12 -12 
L 12 12 
" style="stroke: #ff7500"/>
    </defs>
    <g clip-path="url(#p9b4ff610e1)">
     <use xlink:href="#m9766c0868d" x="230.862681" y="187.151338" style="fill: #ff7500; stroke: #ff7500"/>
    </g>
   </g>
   <g id="line2d_49">
    <defs>
     <path id="m9d4d7433f8" d="M 0 1.5 
C 0.397805 1.5 0.77937 1.341951 1.06066 1.06066 
C 1.341951 0.77937 1.5 0.397805 1.5 0 
C 1.5 -0.397805 1.341951 -0.77937 1.06066 -1.06066 
C 0.77937 -1.341951 0.397805 -1.5 0 -1.5 
C -0.397805 -1.5 -0.77937 -1.341951 -1.06066 -1.06066 
C -1.341951 -0.77937 -1.5 -0.397805 -1.5 0 
C -1.5 0.397805 -1.341951 0.77937 -1.06066 1.06066 
C -0.77937 1.341951 -0.397805 1.5 0 1.5 
z
" style="stroke: #6495ed"/>
    </defs>
    <g>
     <use xlink:href="#m9d4d7433f8" x="191.310948" y="184.344828" style="fill: #6495ed; stroke: #6495ed"/>
     <use xlink:href="#m9d4d7433f8" x="191.310948" y="184.344828" style="fill: #6495ed; stroke: #6495ed"/>
    </g>
   </g>
   <g id="line2d_50">
    <path d="M 27.323974 298.944 
L 27.323974 290.992221 
L 40.363149 290.992221 
L 40.363149 287.717959 
L 66.441498 287.717959 
L 66.441498 286.782455 
L 76.96874 286.782455 
L 76.96874 286.314703 
L 95.752617 286.314703 
L 95.752617 285.846952 
L 100.9152 285.846952 
L 100.9152 284.911448 
L 104.961779 284.911448 
L 104.961779 284.443697 
L 105.559021 284.443697 
L 105.559021 282.104938 
L 106.137884 282.104938 
L 106.137884 281.637186 
L 107.244765 281.637186 
L 107.244765 281.169434 
L 108.29012 281.169434 
L 108.29012 280.701683 
L 108.791791 280.701683 
L 108.791791 279.766179 
L 110.221204 279.766179 
L 110.221204 278.830676 
L 112.180244 278.830676 
L 112.180244 277.895172 
L 112.989468 277.895172 
L 112.989468 277.427421 
L 117.067958 277.427421 
L 117.067958 276.959669 
L 119.177058 276.959669 
L 119.177058 276.024166 
L 127.731351 276.024166 
L 127.731351 275.556414 
L 127.911368 275.556414 
L 127.911368 275.088662 
L 130.501519 275.088662 
L 130.501519 274.62091 
L 131.41562 274.62091 
L 131.41562 274.153159 
L 131.563744 274.153159 
L 131.563744 273.685407 
L 131.929028 273.685407 
L 131.929028 272.749903 
L 132.846847 272.749903 
L 132.846847 272.282152 
L 133.523594 272.282152 
L 133.523594 271.8144 
L 134.304809 271.8144 
L 134.304809 271.346648 
L 136.696795 271.346648 
L 136.696795 270.878897 
L 136.97549 270.878897 
L 136.97549 270.411145 
L 137.998402 270.411145 
L 137.998402 269.943393 
L 138.616919 269.943393 
L 138.616919 269.475641 
L 142.038218 269.475641 
L 142.038218 268.540138 
L 142.331827 268.540138 
L 142.331827 267.136883 
L 143.850356 267.136883 
L 143.850356 265.733628 
L 144.85936 265.733628 
L 144.931992 263.862621 
L 145.112353 263.862621 
L 145.112353 263.394869 
L 146.395851 263.394869 
L 146.395851 262.927117 
L 146.595975 262.927117 
L 146.595975 261.991614 
L 147.375841 261.991614 
L 147.375841 261.05611 
L 147.597342 261.05611 
L 147.597342 260.120607 
L 148.458151 260.120607 
L 148.458151 259.652855 
L 148.607806 259.652855 
L 148.607806 259.185103 
L 149.194798 259.185103 
L 149.194798 258.717352 
L 149.31003 258.717352 
L 149.31003 258.2496 
L 149.679732 258.2496 
L 149.679732 257.781848 
L 150.014665 257.781848 
L 150.014665 256.846345 
L 150.179921 256.846345 
L 150.207323 255.44309 
L 151.011358 255.44309 
L 151.116012 253.572083 
L 152.859068 253.572083 
L 152.859068 253.104331 
L 153.305585 253.104331 
L 153.305585 252.636579 
L 154.101358 252.636579 
L 154.101358 252.168828 
L 154.344662 252.168828 
L 154.344662 251.701076 
L 154.950144 251.701076 
L 154.950144 251.233324 
L 155.412574 251.233324 
L 155.412574 250.765572 
L 156.105602 250.765572 
L 156.105602 250.297821 
L 156.88953 250.297821 
L 156.88953 248.894566 
L 157.770751 248.894566 
L 157.843876 247.49131 
L 159.283522 247.49131 
L 159.283522 246.555807 
L 159.717911 246.555807 
L 159.717911 246.088055 
L 162.045202 246.088055 
L 162.045202 245.620303 
L 162.190578 245.620303 
L 162.262846 244.6848 
L 162.775144 244.6848 
L 162.775144 244.217048 
L 162.942856 244.217048 
L 162.942856 243.749297 
L 163.27386 243.749297 
L 163.27386 243.281545 
L 163.639407 243.281545 
L 163.639407 242.346041 
L 163.786321 242.346041 
L 163.786321 241.87829 
L 165.416487 241.87829 
L 165.416487 241.410538 
L 165.562313 241.410538 
L 165.562313 240.942786 
L 165.707018 240.942786 
L 165.707018 240.007283 
L 166.460523 240.007283 
L 166.460523 239.071779 
L 166.814929 239.071779 
L 166.814929 238.136276 
L 167.871912 238.136276 
L 167.871912 236.265269 
L 167.989318 236.265269 
L 167.989318 235.329766 
L 168.368511 235.329766 
L 168.368511 234.394262 
L 169.667764 234.394262 
L 169.667764 233.458759 
L 170.699701 233.458759 
L 170.699701 232.523255 
L 171.118765 232.523255 
L 171.118765 231.12 
L 172.058879 231.12 
L 172.161441 229.716745 
L 172.204011 229.716745 
L 172.204011 228.781241 
L 172.440637 228.781241 
L 172.524431 226.442483 
L 173.454189 226.442483 
L 173.485993 225.039228 
L 173.722818 225.039228 
L 173.722818 224.103724 
L 174.671243 224.103724 
L 174.671243 223.635972 
L 177.050311 223.635972 
L 177.050311 222.700469 
L 177.168252 222.700469 
L 177.272471 221.297214 
L 177.298436 221.297214 
L 177.298436 220.36171 
L 177.791399 220.36171 
L 177.791399 219.893959 
L 178.357812 219.893959 
L 178.357812 218.958455 
L 178.848023 218.958455 
L 178.848023 218.022952 
L 179.002704 218.022952 
L 179.055953 215.684193 
L 179.80307 215.684193 
L 179.888049 213.345434 
L 180.32938 213.345434 
L 180.395521 211.942179 
L 180.472392 211.942179 
L 180.472392 211.006676 
L 180.657783 211.006676 
L 180.733593 209.603421 
L 182.526034 209.603421 
L 182.526034 208.667917 
L 182.672847 208.667917 
L 182.765239 206.329159 
L 182.852352 206.329159 
L 182.852352 205.861407 
L 183.229982 205.861407 
L 183.229982 205.393655 
L 183.357327 205.393655 
L 183.418335 203.9904 
L 184.30154 203.9904 
L 184.364022 203.054897 
L 184.594298 203.054897 
L 184.594298 202.119393 
L 185.003545 202.119393 
L 185.076616 200.716138 
L 185.123747 200.716138 
L 185.123747 200.248386 
L 185.387206 200.248386 
L 185.437775 198.377379 
L 186.001583 198.377379 
L 186.001583 197.441876 
L 186.139934 197.441876 
L 186.228916 196.506372 
L 186.879296 196.506372 
L 186.88709 195.570869 
L 187.329917 195.570869 
L 187.329917 195.103117 
L 187.810845 195.103117 
L 187.870106 194.167614 
L 188.149073 194.167614 
L 188.149073 193.699862 
L 188.747909 193.699862 
L 188.832424 192.296607 
L 188.923555 192.296607 
L 188.923555 191.828855 
L 189.457863 191.828855 
L 189.457863 191.361103 
L 189.579818 191.361103 
L 189.579818 190.893352 
L 189.741205 190.893352 
L 189.741205 190.4256 
L 189.977413 190.4256 
L 190.063175 189.022345 
L 190.311646 189.022345 
L 190.402367 187.61909 
L 190.505514 187.61909 
L 190.505514 186.683586 
L 190.852677 186.683586 
L 190.852677 186.215834 
L 191.1128 186.215834 
L 191.1128 185.280331 
L 191.29246 185.280331 
L 191.310948 184.344828 
L 360.8064 184.344828 
L 360.8064 184.344828 
" style="fill: none; stroke: #6495ed; stroke-width: 1.5; stroke-linecap: square"/>
   </g>
   <g id="line2d_51">
    <defs>
     <path id="m16407a27cd" d="M -0 6 
L 6 -6 
L -6 -6 
z
" style="stroke: #6495ed; stroke-width: 1.5; stroke-linejoin: miter"/>
    </defs>
    <g>
     <use xlink:href="#m16407a27cd" x="127.911368" y="275.088662" style="fill-opacity: 0; stroke: #6495ed; stroke-width: 1.5; stroke-linejoin: miter"/>
     <use xlink:href="#m16407a27cd" x="188.923555" y="192.296607" style="fill-opacity: 0; stroke: #6495ed; stroke-width: 1.5; stroke-linejoin: miter"/>
     <use xlink:href="#m16407a27cd" x="191.310948" y="184.812579" style="fill-opacity: 0; stroke: #6495ed; stroke-width: 1.5; stroke-linejoin: miter"/>
     <use xlink:href="#m16407a27cd" x="191.310948" y="184.344828" style="fill-opacity: 0; stroke: #6495ed; stroke-width: 1.5; stroke-linejoin: miter"/>
     <use xlink:href="#m16407a27cd" x="191.310948" y="184.344828" style="fill-opacity: 0; stroke: #6495ed; stroke-width: 1.5; stroke-linejoin: miter"/>
     <use xlink:href="#m16407a27cd" x="360.8064" y="184.344828" style="fill-opacity: 0; stroke: #6495ed; stroke-width: 1.5; stroke-linejoin: miter"/>
    </g>
   </g>
   <g id="line2d_52">
    <path style="fill: none; stroke: #6495ed; stroke-width: 1.5; stroke-linecap: square"/>
    <g/>
   </g>
   <g id="line2d_53">
    <path d="M 230.866819 184.344828 
" clip-path="url(#p9b4ff610e1)" style="fill: none; stroke: #6495ed; stroke-width: 1.5; stroke-linecap: square"/>
    <defs>
     <path id="m0d19e49c70" d="M -12 12 
L 12 -12 
M -12 -12 
L 12 12 
" style="stroke: #6495ed"/>
    </defs>
    <g clip-path="url(#p9b4ff610e1)">
     <use xlink:href="#m0d19e49c70" x="230.866819" y="184.344828" style="fill: #6495ed; stroke: #6495ed"/>
    </g>
   </g>
   <g id="line2d_54">
    <defs>
     <path id="m88c0ed5cec" d="M 0 1.5 
C 0.397805 1.5 0.77937 1.341951 1.06066 1.06066 
C 1.341951 0.77937 1.5 0.397805 1.5 0 
C 1.5 -0.397805 1.341951 -0.77937 1.06066 -1.06066 
C 0.77937 -1.341951 0.397805 -1.5 0 -1.5 
C -0.397805 -1.5 -0.77937 -1.341951 -1.06066 -1.06066 
C -1.341951 -0.77937 -1.5 -0.397805 -1.5 0 
C -1.5 0.397805 -1.341951 0.77937 -1.06066 1.06066 
C -0.77937 1.341951 -0.397805 1.5 0 1.5 
z
" style="stroke: #ff0000"/>
    </defs>
    <g>
     <use xlink:href="#m88c0ed5cec" x="201.188247" y="171.715531" style="fill: #ff0000; stroke: #ff0000"/>
     <use xlink:href="#m88c0ed5cec" x="201.188247" y="171.715531" style="fill: #ff0000; stroke: #ff0000"/>
    </g>
   </g>
   <g id="line2d_55">
    <path d="M 27.323974 298.944 
L 27.323974 290.992221 
L 40.363149 290.992221 
L 40.363149 290.524469 
L 47.990577 290.524469 
L 47.990577 290.056717 
L 57.6 290.056717 
L 57.6 289.588966 
L 68.65718 289.588966 
L 68.65718 289.121214 
L 72.432107 289.121214 
L 72.432107 288.653462 
L 78.266603 288.653462 
L 78.266603 288.18571 
L 83.678349 288.18571 
L 83.678349 286.782455 
L 85.471281 286.782455 
L 85.471281 286.314703 
L 86.307488 286.314703 
L 86.307488 284.443697 
L 90.668036 284.443697 
L 90.668036 283.508193 
L 95.250946 283.508193 
L 95.250946 282.57269 
L 95.752617 282.57269 
L 95.752617 281.169434 
L 98.077987 281.169434 
L 98.077987 280.233931 
L 100.9152 280.233931 
L 100.9152 279.766179 
L 101.653002 279.766179 
L 101.653002 279.298428 
L 103.047088 279.298428 
L 103.047088 278.362924 
L 107.774703 278.362924 
L 107.774703 277.895172 
L 111.762192 277.895172 
L 111.762192 277.427421 
L 112.790402 277.427421 
L 112.790402 276.959669 
L 114.510421 276.959669 
L 114.510421 276.491917 
L 114.692177 276.491917 
L 114.692177 275.556414 
L 115.747307 275.556414 
L 115.747307 274.62091 
L 117.067958 274.62091 
L 117.067958 274.153159 
L 117.695068 274.153159 
L 117.695068 273.685407 
L 118.598196 273.685407 
L 118.598196 272.749903 
L 120.28394 272.749903 
L 120.28394 271.346648 
L 120.550775 271.346648 
L 120.550775 270.878897 
L 120.944062 270.878897 
L 120.944062 270.411145 
L 121.073351 270.411145 
L 121.073351 269.943393 
L 121.201758 269.943393 
L 121.201758 269.475641 
L 121.830966 269.475641 
L 121.830966 269.00789 
L 122.19863 269.00789 
L 122.19863 268.072386 
L 126.323346 268.072386 
L 126.323346 267.136883 
L 126.993549 267.136883 
L 126.993549 266.669131 
L 127.366067 266.669131 
L 127.366067 265.733628 
L 127.549596 265.733628 
L 127.549596 265.265876 
L 127.731351 265.265876 
L 127.821575 263.862621 
L 129.7043 263.862621 
L 129.78556 261.991614 
L 131.489828 261.991614 
L 131.489828 261.05611 
L 132.846847 261.05611 
L 132.846847 260.588359 
L 134.558167 260.588359 
L 134.558167 260.120607 
L 135.893741 260.120607 
L 135.893741 259.652855 
L 136.126705 259.652855 
L 136.184497 258.2496 
L 136.808769 258.2496 
L 136.808769 257.781848 
L 137.195511 257.781848 
L 137.195511 256.846345 
L 138.310202 256.846345 
L 138.310202 256.378593 
L 138.768422 256.378593 
L 138.768422 255.910841 
L 139.411192 255.910841 
L 139.411192 254.975338 
L 140.126547 254.975338 
L 140.126547 254.039834 
L 140.905699 254.039834 
L 140.905699 253.572083 
L 144.602918 253.572083 
L 144.602918 253.104331 
L 145.989098 253.104331 
L 145.989098 252.636579 
L 146.294984 252.636579 
L 146.294984 251.233324 
L 147.248088 251.233324 
L 147.248088 250.297821 
L 147.816265 250.297821 
L 147.816265 249.830069 
L 148.094045 249.830069 
L 148.094045 248.426814 
L 148.307296 248.426814 
L 148.307296 247.49131 
L 149.566749 247.49131 
L 149.566749 246.555807 
L 149.679732 246.555807 
L 149.679732 246.088055 
L 150.425115 246.088055 
L 150.425115 244.217048 
L 150.613636 244.217048 
L 150.667154 242.813793 
L 152.131727 242.813793 
L 152.131727 242.346041 
L 152.279463 242.346041 
L 152.279463 241.410538 
L 152.930279 241.410538 
L 152.930279 240.942786 
L 153.559331 240.942786 
L 153.559331 239.539531 
L 153.967309 239.539531 
L 153.967309 238.604028 
L 156.065535 238.604028 
L 156.065535 238.136276 
L 156.735336 238.136276 
L 156.735336 237.200772 
L 157.438121 237.200772 
L 157.438121 236.733021 
L 158.595008 236.733021 
L 158.595008 234.862014 
L 159.011133 234.862014 
L 159.011133 233.92651 
L 159.130788 233.92651 
L 159.130788 232.523255 
L 160.255188 232.523255 
L 160.271232 231.587752 
L 160.620781 231.587752 
L 160.620781 230.652248 
L 160.808741 230.652248 
L 160.808741 229.716745 
L 160.948489 229.716745 
L 160.948489 229.248993 
L 161.34647 229.248993 
L 161.34647 228.31349 
L 161.765853 228.31349 
L 161.765853 227.845738 
L 162.045202 227.845738 
L 162.05979 226.442483 
L 163.437203 226.442483 
L 163.437203 225.974731 
L 163.746367 225.974731 
L 163.746367 225.506979 
L 163.91889 225.506979 
L 163.91889 225.039228 
L 164.771172 225.039228 
L 164.771172 224.103724 
L 165.525963 224.103724 
L 165.525963 223.168221 
L 165.766985 223.168221 
L 165.766985 222.232717 
L 166.016779 222.232717 
L 166.075768 219.893959 
L 166.47206 219.893959 
L 166.47206 219.426207 
L 167.493397 219.426207 
L 167.493397 218.490703 
L 167.656552 218.490703 
L 167.656552 217.5552 
L 167.861203 217.5552 
L 167.861203 216.619697 
L 168.389355 216.619697 
L 168.462127 215.216441 
L 168.627414 215.216441 
L 168.627414 214.74869 
L 169.383404 214.74869 
L 169.383404 214.280938 
L 169.793854 214.280938 
L 169.793854 213.345434 
L 169.909499 213.345434 
L 169.909499 211.942179 
L 170.043526 211.942179 
L 170.043526 211.474428 
L 170.261661 211.474428 
L 170.355719 210.538924 
L 170.439971 210.538924 
L 170.523847 208.667917 
L 170.672043 208.667917 
L 170.672043 207.732414 
L 170.828233 207.732414 
L 170.892171 206.79691 
L 172.482581 206.79691 
L 172.482581 206.329159 
L 172.707472 206.329159 
L 172.707472 205.861407 
L 172.839484 205.861407 
L 172.880548 204.458152 
L 173.77765 204.458152 
L 173.77765 203.9904 
L 173.995397 203.9904 
L 174.05715 202.587145 
L 174.827233 202.587145 
L 174.827233 202.119393 
L 174.989276 202.119393 
L 175.069777 200.716138 
L 175.113541 200.716138 
L 175.113541 200.248386 
L 175.273147 200.248386 
L 175.273147 199.312883 
L 175.502909 199.312883 
L 175.502909 198.845131 
L 176.030666 198.845131 
L 176.093013 197.441876 
L 176.428882 197.441876 
L 176.428882 196.974124 
L 176.58449 196.974124 
L 176.58449 196.038621 
L 176.984467 196.038621 
L 176.984467 195.570869 
L 177.096265 195.570869 
L 177.194361 193.699862 
L 177.588098 193.699862 
L 177.588098 193.23211 
L 178.320986 193.23211 
L 178.320986 192.296607 
L 178.528716 192.296607 
L 178.534791 190.893352 
L 179.24407 190.893352 
L 179.296641 189.957848 
L 179.430325 189.957848 
L 179.430325 189.022345 
L 179.557313 189.022345 
L 179.557313 188.554593 
L 179.694876 188.554593 
L 179.694876 188.086841 
L 179.871084 188.086841 
L 179.871084 187.61909 
L 180.548951 187.61909 
L 180.548951 186.683586 
L 180.668632 186.683586 
L 180.684893 185.748083 
L 180.868211 185.748083 
L 180.948523 184.812579 
L 181.57896 184.812579 
L 181.57896 183.877076 
L 182.113777 183.877076 
L 182.113777 183.409324 
L 182.628923 183.409324 
L 182.628923 182.473821 
L 183.097004 182.473821 
L 183.097004 181.538317 
L 183.34322 181.538317 
L 183.34322 181.070566 
L 183.576965 181.070566 
L 183.576965 180.135062 
L 183.917663 180.135062 
L 183.917663 179.66731 
L 185.115186 179.66731 
L 185.115186 179.199559 
L 185.571964 179.199559 
L 185.571964 178.264055 
L 185.96479 178.264055 
L 186.070886 177.328552 
L 186.718797 177.328552 
L 186.718797 176.8608 
L 186.984247 176.8608 
L 186.984247 175.925297 
L 187.333722 175.925297 
L 187.333722 175.457545 
L 187.620696 175.457545 
L 187.620696 174.989793 
L 188.333981 174.989793 
L 188.333981 174.522041 
L 188.712582 174.522041 
L 188.712582 174.05429 
L 190.614493 174.05429 
L 190.614493 173.586538 
L 190.821093 173.586538 
L 190.821093 173.118786 
L 192.576342 173.118786 
L 192.576342 172.183283 
L 201.188247 172.183283 
L 201.188247 171.715531 
L 360.8064 171.715531 
L 360.8064 171.715531 
" style="fill: none; stroke: #ff0000; stroke-width: 1.5; stroke-linecap: square"/>
   </g>
   <g id="line2d_56">
    <defs>
     <path id="mc2ea2e31d2" d="M 0 -6 
L -5.196152 -3 
L -5.196152 3 
L -0 6 
L 5.196152 3 
L 5.196152 -3 
z
" style="stroke: #ff0000; stroke-width: 1.5; stroke-linejoin: miter"/>
    </defs>
    <g>
     <use xlink:href="#mc2ea2e31d2" x="131.489828" y="261.05611" style="fill-opacity: 0; stroke: #ff0000; stroke-width: 1.5; stroke-linejoin: miter"/>
     <use xlink:href="#mc2ea2e31d2" x="170.892171" y="207.264662" style="fill-opacity: 0; stroke: #ff0000; stroke-width: 1.5; stroke-linejoin: miter"/>
     <use xlink:href="#mc2ea2e31d2" x="201.188247" y="172.183283" style="fill-opacity: 0; stroke: #ff0000; stroke-width: 1.5; stroke-linejoin: miter"/>
     <use xlink:href="#mc2ea2e31d2" x="201.188247" y="171.715531" style="fill-opacity: 0; stroke: #ff0000; stroke-width: 1.5; stroke-linejoin: miter"/>
     <use xlink:href="#mc2ea2e31d2" x="201.188247" y="171.715531" style="fill-opacity: 0; stroke: #ff0000; stroke-width: 1.5; stroke-linejoin: miter"/>
     <use xlink:href="#mc2ea2e31d2" x="360.8064" y="171.715531" style="fill-opacity: 0; stroke: #ff0000; stroke-width: 1.5; stroke-linejoin: miter"/>
    </g>
   </g>
   <g id="line2d_57">
    <path style="fill: none; stroke: #ff0000; stroke-width: 1.5; stroke-linecap: square"/>
    <g/>
   </g>
   <g id="line2d_58">
    <path d="M 274.176188 171.715531 
" clip-path="url(#p9b4ff610e1)" style="fill: none; stroke: #ff0000; stroke-width: 1.5; stroke-linecap: square"/>
    <defs>
     <path id="m8dee40c618" d="M -12 12 
L 12 -12 
M -12 -12 
L 12 12 
" style="stroke: #ff0000"/>
    </defs>
    <g clip-path="url(#p9b4ff610e1)">
     <use xlink:href="#m8dee40c618" x="274.176188" y="171.715531" style="fill: #ff0000; stroke: #ff0000"/>
    </g>
   </g>
   <g id="line2d_59">
    <path d="M 360.8064 187.151338 
L 380.514816 293.51808 
" style="fill: none; stroke: #ff7500; stroke-width: 1.5; stroke-linecap: square"/>
    <g>
     <use xlink:href="#m36c25bc6b3" x="360.8064" y="187.151338" style="fill-opacity: 0; stroke: #ff7500; stroke-width: 1.5; stroke-linejoin: bevel"/>
     <use xlink:href="#m36c25bc6b3" x="380.514816" y="293.51808" style="fill-opacity: 0; stroke: #ff7500; stroke-width: 1.5; stroke-linejoin: bevel"/>
    </g>
   </g>
   <g id="line2d_60">
    <path d="M 360.8064 184.344828 
L 380.514816 241.429248 
" style="fill: none; stroke: #6495ed; stroke-width: 1.5; stroke-linecap: square"/>
    <g>
     <use xlink:href="#m16407a27cd" x="360.8064" y="184.344828" style="fill-opacity: 0; stroke: #6495ed; stroke-width: 1.5; stroke-linejoin: miter"/>
     <use xlink:href="#m16407a27cd" x="380.514816" y="241.429248" style="fill-opacity: 0; stroke: #6495ed; stroke-width: 1.5; stroke-linejoin: miter"/>
    </g>
   </g>
   <g id="line2d_61">
    <path d="M 360.8064 172.651034 
L 380.514816 189.340416 
" style="fill: none; stroke: #ff00ff; stroke-width: 1.5; stroke-linecap: square"/>
    <g>
     <use xlink:href="#mec6c2fac8e" x="360.8064" y="172.651034" style="fill-opacity: 0; stroke: #ff00ff; stroke-width: 1.5; stroke-linejoin: miter"/>
     <use xlink:href="#mec6c2fac8e" x="380.514816" y="189.340416" style="fill-opacity: 0; stroke: #ff00ff; stroke-width: 1.5; stroke-linejoin: miter"/>
    </g>
   </g>
   <g id="line2d_62">
    <path d="M 360.8064 171.715531 
L 380.514816 137.251584 
" style="fill: none; stroke: #ff0000; stroke-width: 1.5; stroke-linecap: square"/>
    <g>
     <use xlink:href="#mc2ea2e31d2" x="360.8064" y="171.715531" style="fill-opacity: 0; stroke: #ff0000; stroke-width: 1.5; stroke-linejoin: miter"/>
     <use xlink:href="#mc2ea2e31d2" x="380.514816" y="137.251584" style="fill-opacity: 0; stroke: #ff0000; stroke-width: 1.5; stroke-linejoin: miter"/>
    </g>
   </g>
   <g id="line2d_63">
    <path d="M 360.8064 164.699255 
L 380.514816 85.162752 
" style="fill: none; stroke: #000080; stroke-width: 1.5; stroke-linecap: square"/>
    <g>
     <use xlink:href="#m5b2441c7cd" x="360.8064" y="164.699255" style="fill-opacity: 0; stroke: #000080; stroke-width: 1.5"/>
     <use xlink:href="#m5b2441c7cd" x="380.514816" y="85.162752" style="fill-opacity: 0; stroke: #000080; stroke-width: 1.5"/>
    </g>
   </g>
   <g id="line2d_64">
    <path d="M 360.8064 298.944 
L 360.8064 27.648 
" style="fill: none; stroke: #000000; stroke-width: 1.5; stroke-linecap: square"/>
   </g>
   <g id="patch_3">
    <path d="M 57.6 298.944 
L 360.8064 298.944 
" style="fill: none; stroke: #000000; stroke-width: 0.8; stroke-linejoin: miter; stroke-linecap: square"/>
   </g>
   <g id="patch_4">
    <path d="M 57.6 27.648 
L 360.8064 27.648 
" style="fill: none; stroke: #000000; stroke-width: 0.8; stroke-linejoin: miter; stroke-linecap: square"/>
   </g>
   <g id="text_13">
    <!-- kerComo -->
    <g transform="translate(386.578944 297.381205) scale(0.14 -0.14)">
     <defs>
      <path id="DejaVuSans-6b" d="M 581 4863 
L 1159 4863 
L 1159 1991 
L 2875 3500 
L 3609 3500 
L 1753 1863 
L 3688 0 
L 2938 0 
L 1159 1709 
L 1159 0 
L 581 0 
L 581 4863 
z
" transform="scale(0.015625)"/>
      <path id="DejaVuSans-43" d="M 4122 4306 
L 4122 3641 
Q 3803 3938 3442 4084 
Q 3081 4231 2675 4231 
Q 1875 4231 1450 3742 
Q 1025 3253 1025 2328 
Q 1025 1406 1450 917 
Q 1875 428 2675 428 
Q 3081 428 3442 575 
Q 3803 722 4122 1019 
L 4122 359 
Q 3791 134 3420 21 
Q 3050 -91 2638 -91 
Q 1578 -91 968 557 
Q 359 1206 359 2328 
Q 359 3453 968 4101 
Q 1578 4750 2638 4750 
Q 3056 4750 3426 4639 
Q 3797 4528 4122 4306 
z
" transform="scale(0.015625)"/>
     </defs>
     <use xlink:href="#DejaVuSans-6b"/>
     <use xlink:href="#DejaVuSans-65" x="54.285156"/>
     <use xlink:href="#DejaVuSans-72" x="115.808594"/>
     <use xlink:href="#DejaVuSans-43" x="156.921875"/>
     <use xlink:href="#DejaVuSans-6f" x="226.746094"/>
     <use xlink:href="#DejaVuSans-6d" x="287.927734"/>
     <use xlink:href="#DejaVuSans-6f" x="385.339844"/>
    </g>
   </g>
   <g id="text_14">
    <!-- kerLQ -->
    <g transform="translate(386.578944 245.292373) scale(0.14 -0.14)">
     <defs>
      <path id="DejaVuSans-4c" d="M 628 4666 
L 1259 4666 
L 1259 531 
L 3531 531 
L 3531 0 
L 628 0 
L 628 4666 
z
" transform="scale(0.015625)"/>
      <path id="DejaVuSans-51" d="M 2522 4238 
Q 1834 4238 1429 3725 
Q 1025 3213 1025 2328 
Q 1025 1447 1429 934 
Q 1834 422 2522 422 
Q 3209 422 3611 934 
Q 4013 1447 4013 2328 
Q 4013 3213 3611 3725 
Q 3209 4238 2522 4238 
z
M 3406 84 
L 4238 -825 
L 3475 -825 
L 2784 -78 
Q 2681 -84 2626 -87 
Q 2572 -91 2522 -91 
Q 1538 -91 948 567 
Q 359 1225 359 2328 
Q 359 3434 948 4092 
Q 1538 4750 2522 4750 
Q 3503 4750 4090 4092 
Q 4678 3434 4678 2328 
Q 4678 1516 4351 937 
Q 4025 359 3406 84 
z
" transform="scale(0.015625)"/>
     </defs>
     <use xlink:href="#DejaVuSans-6b"/>
     <use xlink:href="#DejaVuSans-65" x="54.285156"/>
     <use xlink:href="#DejaVuSans-72" x="115.808594"/>
     <use xlink:href="#DejaVuSans-4c" x="156.921875"/>
     <use xlink:href="#DejaVuSans-51" x="212.634766"/>
    </g>
   </g>
   <g id="text_15">
    <!-- AllLQ -->
    <g transform="translate(386.578944 193.203541) scale(0.14 -0.14)">
     <defs>
      <path id="DejaVuSans-41" d="M 2188 4044 
L 1331 1722 
L 3047 1722 
L 2188 4044 
z
M 1831 4666 
L 2547 4666 
L 4325 0 
L 3669 0 
L 3244 1197 
L 1141 1197 
L 716 0 
L 50 0 
L 1831 4666 
z
" transform="scale(0.015625)"/>
     </defs>
     <use xlink:href="#DejaVuSans-41"/>
     <use xlink:href="#DejaVuSans-6c" x="68.408203"/>
     <use xlink:href="#DejaVuSans-6c" x="96.191406"/>
     <use xlink:href="#DejaVuSans-4c" x="123.974609"/>
     <use xlink:href="#DejaVuSans-51" x="179.6875"/>
    </g>
   </g>
   <g id="text_16">
    <!-- COMO-10 d -->
    <g transform="translate(386.578944 141.114709) scale(0.14 -0.14)">
     <defs>
      <path id="DejaVuSans-4f" d="M 2522 4238 
Q 1834 4238 1429 3725 
Q 1025 3213 1025 2328 
Q 1025 1447 1429 934 
Q 1834 422 2522 422 
Q 3209 422 3611 934 
Q 4013 1447 4013 2328 
Q 4013 3213 3611 3725 
Q 3209 4238 2522 4238 
z
M 2522 4750 
Q 3503 4750 4090 4092 
Q 4678 3434 4678 2328 
Q 4678 1225 4090 567 
Q 3503 -91 2522 -91 
Q 1538 -91 948 565 
Q 359 1222 359 2328 
Q 359 3434 948 4092 
Q 1538 4750 2522 4750 
z
" transform="scale(0.015625)"/>
      <path id="DejaVuSans-4d" d="M 628 4666 
L 1569 4666 
L 2759 1491 
L 3956 4666 
L 4897 4666 
L 4897 0 
L 4281 0 
L 4281 4097 
L 3078 897 
L 2444 897 
L 1241 4097 
L 1241 0 
L 628 0 
L 628 4666 
z
" transform="scale(0.015625)"/>
     </defs>
     <use xlink:href="#DejaVuSans-43"/>
     <use xlink:href="#DejaVuSans-4f" x="69.824219"/>
     <use xlink:href="#DejaVuSans-4d" x="148.535156"/>
     <use xlink:href="#DejaVuSans-4f" x="234.814453"/>
     <use xlink:href="#DejaVuSans-2d" x="316.275391"/>
     <use xlink:href="#DejaVuSans-31" x="352.359375"/>
     <use xlink:href="#DejaVuSans-30" x="415.982422"/>
     <use xlink:href="#DejaVuSans-20" x="479.605469"/>
     <use xlink:href="#DejaVuSans-64" x="511.392578"/>
    </g>
   </g>
   <g id="text_17">
    <!-- AllComo -->
    <g transform="translate(386.578944 89.025877) scale(0.14 -0.14)">
     <use xlink:href="#DejaVuSans-41"/>
     <use xlink:href="#DejaVuSans-6c" x="68.408203"/>
     <use xlink:href="#DejaVuSans-6c" x="96.191406"/>
     <use xlink:href="#DejaVuSans-43" x="123.974609"/>
     <use xlink:href="#DejaVuSans-6f" x="193.798828"/>
     <use xlink:href="#DejaVuSans-6d" x="254.980469"/>
     <use xlink:href="#DejaVuSans-6f" x="352.392578"/>
    </g>
   </g>
   <g id="text_18">
    <!-- best 2016 -->
    <g transform="translate(386.578944 36.937045) scale(0.14 -0.14)">
     <defs>
      <path id="DejaVuSans-62" d="M 3116 1747 
Q 3116 2381 2855 2742 
Q 2594 3103 2138 3103 
Q 1681 3103 1420 2742 
Q 1159 2381 1159 1747 
Q 1159 1113 1420 752 
Q 1681 391 2138 391 
Q 2594 391 2855 752 
Q 3116 1113 3116 1747 
z
M 1159 2969 
Q 1341 3281 1617 3432 
Q 1894 3584 2278 3584 
Q 2916 3584 3314 3078 
Q 3713 2572 3713 1747 
Q 3713 922 3314 415 
Q 2916 -91 2278 -91 
Q 1894 -91 1617 61 
Q 1341 213 1159 525 
L 1159 0 
L 581 0 
L 581 4863 
L 1159 4863 
L 1159 2969 
z
" transform="scale(0.015625)"/>
     </defs>
     <use xlink:href="#DejaVuSans-62"/>
     <use xlink:href="#DejaVuSans-65" x="63.476562"/>
     <use xlink:href="#DejaVuSans-73" x="125"/>
     <use xlink:href="#DejaVuSans-74" x="177.099609"/>
     <use xlink:href="#DejaVuSans-20" x="216.308594"/>
     <use xlink:href="#DejaVuSans-32" x="248.095703"/>
     <use xlink:href="#DejaVuSans-30" x="311.71875"/>
     <use xlink:href="#DejaVuSans-31" x="375.341797"/>
     <use xlink:href="#DejaVuSans-36" x="438.964844"/>
    </g>
   </g>
   <g id="text_19">
    <!-- bbob-biobj f2, 5-D -->
    <g transform="translate(60.632064 38.111366) scale(0.102 -0.102)">
     <defs>
      <path id="DejaVuSans-6a" d="M 603 3500 
L 1178 3500 
L 1178 -63 
Q 1178 -731 923 -1031 
Q 669 -1331 103 -1331 
L -116 -1331 
L -116 -844 
L 38 -844 
Q 366 -844 484 -692 
Q 603 -541 603 -63 
L 603 3500 
z
M 603 4863 
L 1178 4863 
L 1178 4134 
L 603 4134 
L 603 4863 
z
" transform="scale(0.015625)"/>
      <path id="DejaVuSans-35" d="M 691 4666 
L 3169 4666 
L 3169 4134 
L 1269 4134 
L 1269 2991 
Q 1406 3038 1543 3061 
Q 1681 3084 1819 3084 
Q 2600 3084 3056 2656 
Q 3513 2228 3513 1497 
Q 3513 744 3044 326 
Q 2575 -91 1722 -91 
Q 1428 -91 1123 -41 
Q 819 9 494 109 
L 494 744 
Q 775 591 1075 516 
Q 1375 441 1709 441 
Q 2250 441 2565 725 
Q 2881 1009 2881 1497 
Q 2881 1984 2565 2268 
Q 2250 2553 1709 2553 
Q 1456 2553 1204 2497 
Q 953 2441 691 2322 
L 691 4666 
z
" transform="scale(0.015625)"/>
      <path id="DejaVuSans-44" d="M 1259 4147 
L 1259 519 
L 2022 519 
Q 2988 519 3436 956 
Q 3884 1394 3884 2338 
Q 3884 3275 3436 3711 
Q 2988 4147 2022 4147 
L 1259 4147 
z
M 628 4666 
L 1925 4666 
Q 3281 4666 3915 4102 
Q 4550 3538 4550 2338 
Q 4550 1131 3912 565 
Q 3275 0 1925 0 
L 628 0 
L 628 4666 
z
" transform="scale(0.015625)"/>
     </defs>
     <use xlink:href="#DejaVuSans-62"/>
     <use xlink:href="#DejaVuSans-62" x="63.476562"/>
     <use xlink:href="#DejaVuSans-6f" x="126.953125"/>
     <use xlink:href="#DejaVuSans-62" x="188.134766"/>
     <use xlink:href="#DejaVuSans-2d" x="251.611328"/>
     <use xlink:href="#DejaVuSans-62" x="287.695312"/>
     <use xlink:href="#DejaVuSans-69" x="351.171875"/>
     <use xlink:href="#DejaVuSans-6f" x="378.955078"/>
     <use xlink:href="#DejaVuSans-62" x="440.136719"/>
     <use xlink:href="#DejaVuSans-6a" x="503.613281"/>
     <use xlink:href="#DejaVuSans-20" x="531.396484"/>
     <use xlink:href="#DejaVuSans-66" x="563.183594"/>
     <use xlink:href="#DejaVuSans-32" x="598.388672"/>
     <use xlink:href="#DejaVuSans-2c" x="662.011719"/>
     <use xlink:href="#DejaVuSans-20" x="693.798828"/>
     <use xlink:href="#DejaVuSans-35" x="725.585938"/>
     <use xlink:href="#DejaVuSans-2d" x="789.208984"/>
     <use xlink:href="#DejaVuSans-44" x="825.292969"/>
    </g>
    <!-- 58 targets: 1..-1.0e-4 -->
    <g transform="translate(60.632064 49.533135) scale(0.102 -0.102)">
     <defs>
      <path id="DejaVuSans-3a" d="M 750 794 
L 1409 794 
L 1409 0 
L 750 0 
L 750 794 
z
M 750 3309 
L 1409 3309 
L 1409 2516 
L 750 2516 
L 750 3309 
z
" transform="scale(0.015625)"/>
     </defs>
     <use xlink:href="#DejaVuSans-35"/>
     <use xlink:href="#DejaVuSans-38" x="63.623047"/>
     <use xlink:href="#DejaVuSans-20" x="127.246094"/>
     <use xlink:href="#DejaVuSans-74" x="159.033203"/>
     <use xlink:href="#DejaVuSans-61" x="198.242188"/>
     <use xlink:href="#DejaVuSans-72" x="259.521484"/>
     <use xlink:href="#DejaVuSans-67" x="298.884766"/>
     <use xlink:href="#DejaVuSans-65" x="362.361328"/>
     <use xlink:href="#DejaVuSans-74" x="423.884766"/>
     <use xlink:href="#DejaVuSans-73" x="463.09375"/>
     <use xlink:href="#DejaVuSans-3a" x="515.193359"/>
     <use xlink:href="#DejaVuSans-20" x="548.884766"/>
     <use xlink:href="#DejaVuSans-31" x="580.671875"/>
     <use xlink:href="#DejaVuSans-2e" x="644.294922"/>
     <use xlink:href="#DejaVuSans-2e" x="676.082031"/>
     <use xlink:href="#DejaVuSans-2d" x="707.869141"/>
     <use xlink:href="#DejaVuSans-31" x="743.953125"/>
     <use xlink:href="#DejaVuSans-2e" x="807.576172"/>
     <use xlink:href="#DejaVuSans-30" x="839.363281"/>
     <use xlink:href="#DejaVuSans-65" x="902.986328"/>
     <use xlink:href="#DejaVuSans-2d" x="964.509766"/>
     <use xlink:href="#DejaVuSans-34" x="1000.59375"/>
    </g>
    <!-- 10 instances -->
    <g transform="translate(60.632064 60.954904) scale(0.102 -0.102)">
     <use xlink:href="#DejaVuSans-31"/>
     <use xlink:href="#DejaVuSans-30" x="63.623047"/>
     <use xlink:href="#DejaVuSans-20" x="127.246094"/>
     <use xlink:href="#DejaVuSans-69" x="159.033203"/>
     <use xlink:href="#DejaVuSans-6e" x="186.816406"/>
     <use xlink:href="#DejaVuSans-73" x="250.195312"/>
     <use xlink:href="#DejaVuSans-74" x="302.294922"/>
     <use xlink:href="#DejaVuSans-61" x="341.503906"/>
     <use xlink:href="#DejaVuSans-6e" x="402.783203"/>
     <use xlink:href="#DejaVuSans-63" x="466.162109"/>
     <use xlink:href="#DejaVuSans-65" x="521.142578"/>
     <use xlink:href="#DejaVuSans-73" x="582.666016"/>
    </g>
   </g>
   <g id="text_20">
    <!-- v2.6, hv-hash=d240b271ab0b4926 -->
    <g style="fill: #808080" transform="translate(120.362575 294.151352) scale(0.1 -0.1)">
     <defs>
      <path id="DejaVuSans-68" d="M 3513 2113 
L 3513 0 
L 2938 0 
L 2938 2094 
Q 2938 2591 2744 2837 
Q 2550 3084 2163 3084 
Q 1697 3084 1428 2787 
Q 1159 2491 1159 1978 
L 1159 0 
L 581 0 
L 581 4863 
L 1159 4863 
L 1159 2956 
Q 1366 3272 1645 3428 
Q 1925 3584 2291 3584 
Q 2894 3584 3203 3211 
Q 3513 2838 3513 2113 
z
" transform="scale(0.015625)"/>
      <path id="DejaVuSans-3d" d="M 678 2906 
L 4684 2906 
L 4684 2381 
L 678 2381 
L 678 2906 
z
M 678 1631 
L 4684 1631 
L 4684 1100 
L 678 1100 
L 678 1631 
z
" transform="scale(0.015625)"/>
      <path id="DejaVuSans-37" d="M 525 4666 
L 3525 4666 
L 3525 4397 
L 1831 0 
L 1172 0 
L 2766 4134 
L 525 4134 
L 525 4666 
z
" transform="scale(0.015625)"/>
      <path id="DejaVuSans-39" d="M 703 97 
L 703 672 
Q 941 559 1184 500 
Q 1428 441 1663 441 
Q 2288 441 2617 861 
Q 2947 1281 2994 2138 
Q 2813 1869 2534 1725 
Q 2256 1581 1919 1581 
Q 1219 1581 811 2004 
Q 403 2428 403 3163 
Q 403 3881 828 4315 
Q 1253 4750 1959 4750 
Q 2769 4750 3195 4129 
Q 3622 3509 3622 2328 
Q 3622 1225 3098 567 
Q 2575 -91 1691 -91 
Q 1453 -91 1209 -44 
Q 966 3 703 97 
z
M 1959 2075 
Q 2384 2075 2632 2365 
Q 2881 2656 2881 3163 
Q 2881 3666 2632 3958 
Q 2384 4250 1959 4250 
Q 1534 4250 1286 3958 
Q 1038 3666 1038 3163 
Q 1038 2656 1286 2365 
Q 1534 2075 1959 2075 
z
" transform="scale(0.015625)"/>
     </defs>
     <use xlink:href="#DejaVuSans-76"/>
     <use xlink:href="#DejaVuSans-32" x="59.179688"/>
     <use xlink:href="#DejaVuSans-2e" x="122.802734"/>
     <use xlink:href="#DejaVuSans-36" x="154.589844"/>
     <use xlink:href="#DejaVuSans-2c" x="218.212891"/>
     <use xlink:href="#DejaVuSans-20" x="250"/>
     <use xlink:href="#DejaVuSans-68" x="281.787109"/>
     <use xlink:href="#DejaVuSans-76" x="345.166016"/>
     <use xlink:href="#DejaVuSans-2d" x="401.720703"/>
     <use xlink:href="#DejaVuSans-68" x="437.804688"/>
     <use xlink:href="#DejaVuSans-61" x="501.183594"/>
     <use xlink:href="#DejaVuSans-73" x="562.462891"/>
     <use xlink:href="#DejaVuSans-68" x="614.5625"/>
     <use xlink:href="#DejaVuSans-3d" x="677.941406"/>
     <use xlink:href="#DejaVuSans-64" x="761.730469"/>
     <use xlink:href="#DejaVuSans-32" x="825.207031"/>
     <use xlink:href="#DejaVuSans-34" x="888.830078"/>
     <use xlink:href="#DejaVuSans-30" x="952.453125"/>
     <use xlink:href="#DejaVuSans-62" x="1016.076172"/>
     <use xlink:href="#DejaVuSans-32" x="1079.552734"/>
     <use xlink:href="#DejaVuSans-37" x="1143.175781"/>
     <use xlink:href="#DejaVuSans-31" x="1206.798828"/>
     <use xlink:href="#DejaVuSans-61" x="1270.421875"/>
     <use xlink:href="#DejaVuSans-62" x="1331.701172"/>
     <use xlink:href="#DejaVuSans-30" x="1395.177734"/>
     <use xlink:href="#DejaVuSans-62" x="1458.800781"/>
     <use xlink:href="#DejaVuSans-34" x="1522.277344"/>
     <use xlink:href="#DejaVuSans-39" x="1585.900391"/>
     <use xlink:href="#DejaVuSans-32" x="1649.523438"/>
     <use xlink:href="#DejaVuSans-36" x="1713.146484"/>
    </g>
   </g>
   <g id="text_21">
    <!-- 2 Sphere/sep. Ellipsoid -->
    <g transform="translate(95.543825 21.648) scale(0.2 -0.2)">
     <defs>
      <path id="DejaVuSans-53" d="M 3425 4513 
L 3425 3897 
Q 3066 4069 2747 4153 
Q 2428 4238 2131 4238 
Q 1616 4238 1336 4038 
Q 1056 3838 1056 3469 
Q 1056 3159 1242 3001 
Q 1428 2844 1947 2747 
L 2328 2669 
Q 3034 2534 3370 2195 
Q 3706 1856 3706 1288 
Q 3706 609 3251 259 
Q 2797 -91 1919 -91 
Q 1588 -91 1214 -16 
Q 841 59 441 206 
L 441 856 
Q 825 641 1194 531 
Q 1563 422 1919 422 
Q 2459 422 2753 634 
Q 3047 847 3047 1241 
Q 3047 1584 2836 1778 
Q 2625 1972 2144 2069 
L 1759 2144 
Q 1053 2284 737 2584 
Q 422 2884 422 3419 
Q 422 4038 858 4394 
Q 1294 4750 2059 4750 
Q 2388 4750 2728 4690 
Q 3069 4631 3425 4513 
z
" transform="scale(0.015625)"/>
      <path id="DejaVuSans-45" d="M 628 4666 
L 3578 4666 
L 3578 4134 
L 1259 4134 
L 1259 2753 
L 3481 2753 
L 3481 2222 
L 1259 2222 
L 1259 531 
L 3634 531 
L 3634 0 
L 628 0 
L 628 4666 
z
" transform="scale(0.015625)"/>
     </defs>
     <use xlink:href="#DejaVuSans-32"/>
     <use xlink:href="#DejaVuSans-20" x="63.623047"/>
     <use xlink:href="#DejaVuSans-53" x="95.410156"/>
     <use xlink:href="#DejaVuSans-70" x="158.886719"/>
     <use xlink:href="#DejaVuSans-68" x="222.363281"/>
     <use xlink:href="#DejaVuSans-65" x="285.742188"/>
     <use xlink:href="#DejaVuSans-72" x="347.265625"/>
     <use xlink:href="#DejaVuSans-65" x="386.128906"/>
     <use xlink:href="#DejaVuSans-2f" x="447.652344"/>
     <use xlink:href="#DejaVuSans-73" x="481.34375"/>
     <use xlink:href="#DejaVuSans-65" x="533.443359"/>
     <use xlink:href="#DejaVuSans-70" x="594.966797"/>
     <use xlink:href="#DejaVuSans-2e" x="658.443359"/>
     <use xlink:href="#DejaVuSans-20" x="690.230469"/>
     <use xlink:href="#DejaVuSans-45" x="722.017578"/>
     <use xlink:href="#DejaVuSans-6c" x="785.201172"/>
     <use xlink:href="#DejaVuSans-6c" x="812.984375"/>
     <use xlink:href="#DejaVuSans-69" x="840.767578"/>
     <use xlink:href="#DejaVuSans-70" x="868.550781"/>
     <use xlink:href="#DejaVuSans-73" x="932.027344"/>
     <use xlink:href="#DejaVuSans-6f" x="984.126953"/>
     <use xlink:href="#DejaVuSans-69" x="1045.308594"/>
     <use xlink:href="#DejaVuSans-64" x="1073.091797"/>
    </g>
   </g>
  </g>
 </g>
 <defs>
  <clipPath id="p9b4ff610e1">
   <rect x="57.6" y="27.648" width="303.2064" height="271.296"/>
  </clipPath>
 </defs>
</svg>
