<?xml version="1.0" encoding="utf-8" standalone="no"?>
<!DOCTYPE svg PUBLIC "-//W3C//DTD SVG 1.1//EN"
  "http://www.w3.org/Graphics/SVG/1.1/DTD/svg11.dtd">
<svg xmlns:xlink="http://www.w3.org/1999/xlink" width="460.8pt" height="345.6pt" viewBox="0 0 460.8 345.6" xmlns="http://www.w3.org/2000/svg" version="1.1">
 <metadata>
  <rdf:RDF xmlns:dc="http://purl.org/dc/elements/1.1/" xmlns:cc="http://creativecommons.org/ns#" xmlns:rdf="http://www.w3.org/1999/02/22-rdf-syntax-ns#">
   <cc:Work>
    <dc:type rdf:resource="http://purl.org/dc/dcmitype/StillImage"/>
    <dc:date>2023-02-10T02:08:43.263094</dc:date>
    <dc:format>image/svg+xml</dc:format>
    <dc:creator>
     <cc:Agent>
      <dc:title>Matplotlib v3.6.3, https://matplotlib.org/</dc:title>
     </cc:Agent>
    </dc:creator>
   </cc:Work>
  </rdf:RDF>
 </metadata>
 <defs>
  <style type="text/css">*{stroke-linejoin: round; stroke-linecap: butt}</style>
 </defs>
 <g id="figure_1">
  <g id="patch_1">
   <path d="M 0 345.6 
L 460.8 345.6 
L 460.8 0 
L 0 0 
z
" style="fill: #ffffff"/>
  </g>
  <g id="axes_1">
   <g id="patch_2">
    <path d="M 57.6 298.944 
L 360.8064 298.944 
L 360.8064 27.648 
L 57.6 27.648 
z
" style="fill: #ffffff"/>
   </g>
   <g id="line2d_1">
    <path d="M 53.402323 298.944 
L 53.402323 294.266483 
L 89.323782 294.266483 
L 89.323782 284.911448 
L 145.184016 284.911448 
L 145.184016 275.556414 
L 171.466889 275.556414 
L 171.466889 270.878897 
L 189.717756 270.878897 
L 189.717756 256.846345 
L 203.896585 256.846345 
L 203.896585 247.49131 
L 213.962317 247.49131 
L 213.962317 242.813793 
L 229.747989 242.813793 
L 229.747989 233.458759 
L 252.978643 233.458759 
L 252.978643 219.426207 
L 262.890178 219.426207 
L 262.890178 210.071172 
L 273.674441 210.071172 
L 273.674441 200.716138 
L 286.455086 200.716138 
L 286.455086 191.361103 
L 306.166223 191.361103 
L 306.166223 186.683586 
L 321.850988 186.683586 
L 321.850988 172.651034 
L 340.41381 172.651034 
L 340.41381 167.973517 
L 360.8064 167.973517 
" style="fill: none; stroke: #f5deb3; stroke-width: 4; stroke-linecap: square"/>
   </g>
   <g id="line2d_2">
    <defs>
     <path id="mcddb2f8139" d="M -0 7.778175 
L 7.778175 0 
L 0 -7.778175 
L -7.778175 -0 
z
" style="stroke: #f5deb3; stroke-width: 1.5; stroke-linejoin: miter"/>
    </defs>
    <g>
     <use xlink:href="#mcddb2f8139" x="89.323782" y="294.266483" style="fill: #f5deb3; stroke: #f5deb3; stroke-width: 1.5; stroke-linejoin: miter"/>
     <use xlink:href="#mcddb2f8139" x="189.717756" y="270.878897" style="fill: #f5deb3; stroke: #f5deb3; stroke-width: 1.5; stroke-linejoin: miter"/>
     <use xlink:href="#mcddb2f8139" x="229.747989" y="233.458759" style="fill: #f5deb3; stroke: #f5deb3; stroke-width: 1.5; stroke-linejoin: miter"/>
     <use xlink:href="#mcddb2f8139" x="306.166223" y="186.683586" style="fill: #f5deb3; stroke: #f5deb3; stroke-width: 1.5; stroke-linejoin: miter"/>
     <use xlink:href="#mcddb2f8139" x="340.41381" y="167.973517" style="fill: #f5deb3; stroke: #f5deb3; stroke-width: 1.5; stroke-linejoin: miter"/>
     <use xlink:href="#mcddb2f8139" x="360.8064" y="167.973517" style="fill: #f5deb3; stroke: #f5deb3; stroke-width: 1.5; stroke-linejoin: miter"/>
    </g>
   </g>
   <g id="line2d_3">
    <path style="fill: none; stroke: #f5deb3; stroke-width: 4; stroke-linecap: square"/>
    <g/>
   </g>
   <g id="line2d_4">
    <path d="M 360.8064 167.973517 
L 380.514816 33.07392 
" style="fill: none; stroke: #f5deb3; stroke-width: 4; stroke-linecap: square"/>
    <g>
     <use xlink:href="#mcddb2f8139" x="360.8064" y="167.973517" style="fill: #f5deb3; stroke: #f5deb3; stroke-width: 1.5; stroke-linejoin: miter"/>
     <use xlink:href="#mcddb2f8139" x="380.514816" y="33.07392" style="fill: #f5deb3; stroke: #f5deb3; stroke-width: 1.5; stroke-linejoin: miter"/>
    </g>
   </g>
   <g id="matplotlib.axis_1">
    <g id="xtick_1">
     <g id="line2d_5">
      <path d="M 57.6 298.944 
L 57.6 27.648 
" clip-path="url(#p5055109a42)" style="fill: none; stroke: #b0b0b0; stroke-width: 0.8; stroke-linecap: square"/>
     </g>
     <g id="line2d_6">
      <defs>
       <path id="m9f64f1d3eb" d="M 0 0 
L 0 3.5 
" style="stroke: #000000; stroke-width: 0.8"/>
      </defs>
      <g>
       <use xlink:href="#m9f64f1d3eb" x="57.6" y="298.944" style="stroke: #000000; stroke-width: 0.8"/>
      </g>
     </g>
     <g id="text_1">
      <!-- 0 -->
      <g transform="translate(52.191875 318.861344) scale(0.17 -0.17)">
       <defs>
        <path id="DejaVuSans-30" d="M 2034 4250 
Q 1547 4250 1301 3770 
Q 1056 3291 1056 2328 
Q 1056 1369 1301 889 
Q 1547 409 2034 409 
Q 2525 409 2770 889 
Q 3016 1369 3016 2328 
Q 3016 3291 2770 3770 
Q 2525 4250 2034 4250 
z
M 2034 4750 
Q 2819 4750 3233 4129 
Q 3647 3509 3647 2328 
Q 3647 1150 3233 529 
Q 2819 -91 2034 -91 
Q 1250 -91 836 529 
Q 422 1150 422 2328 
Q 422 3509 836 4129 
Q 1250 4750 2034 4750 
z
" transform="scale(0.015625)"/>
       </defs>
       <use xlink:href="#DejaVuSans-30"/>
      </g>
     </g>
    </g>
    <g id="xtick_2">
     <g id="line2d_7">
      <path d="M 144.2304 298.944 
L 144.2304 27.648 
" clip-path="url(#p5055109a42)" style="fill: none; stroke: #b0b0b0; stroke-width: 0.8; stroke-linecap: square"/>
     </g>
     <g id="line2d_8">
      <g>
       <use xlink:href="#m9f64f1d3eb" x="144.2304" y="298.944" style="stroke: #000000; stroke-width: 0.8"/>
      </g>
     </g>
     <g id="text_2">
      <!-- 2 -->
      <g transform="translate(138.822275 318.861344) scale(0.17 -0.17)">
       <defs>
        <path id="DejaVuSans-32" d="M 1228 531 
L 3431 531 
L 3431 0 
L 469 0 
L 469 531 
Q 828 903 1448 1529 
Q 2069 2156 2228 2338 
Q 2531 2678 2651 2914 
Q 2772 3150 2772 3378 
Q 2772 3750 2511 3984 
Q 2250 4219 1831 4219 
Q 1534 4219 1204 4116 
Q 875 4013 500 3803 
L 500 4441 
Q 881 4594 1212 4672 
Q 1544 4750 1819 4750 
Q 2544 4750 2975 4387 
Q 3406 4025 3406 3419 
Q 3406 3131 3298 2873 
Q 3191 2616 2906 2266 
Q 2828 2175 2409 1742 
Q 1991 1309 1228 531 
z
" transform="scale(0.015625)"/>
       </defs>
       <use xlink:href="#DejaVuSans-32"/>
      </g>
     </g>
    </g>
    <g id="xtick_3">
     <g id="line2d_9">
      <path d="M 230.8608 298.944 
L 230.8608 27.648 
" clip-path="url(#p5055109a42)" style="fill: none; stroke: #b0b0b0; stroke-width: 0.8; stroke-linecap: square"/>
     </g>
     <g id="line2d_10">
      <g>
       <use xlink:href="#m9f64f1d3eb" x="230.8608" y="298.944" style="stroke: #000000; stroke-width: 0.8"/>
      </g>
     </g>
     <g id="text_3">
      <!-- 4 -->
      <g transform="translate(225.452675 318.861344) scale(0.17 -0.17)">
       <defs>
        <path id="DejaVuSans-34" d="M 2419 4116 
L 825 1625 
L 2419 1625 
L 2419 4116 
z
M 2253 4666 
L 3047 4666 
L 3047 1625 
L 3713 1625 
L 3713 1100 
L 3047 1100 
L 3047 0 
L 2419 0 
L 2419 1100 
L 313 1100 
L 313 1709 
L 2253 4666 
z
" transform="scale(0.015625)"/>
       </defs>
       <use xlink:href="#DejaVuSans-34"/>
      </g>
     </g>
    </g>
    <g id="xtick_4">
     <g id="line2d_11">
      <path d="M 317.4912 298.944 
L 317.4912 27.648 
" clip-path="url(#p5055109a42)" style="fill: none; stroke: #b0b0b0; stroke-width: 0.8; stroke-linecap: square"/>
     </g>
     <g id="line2d_12">
      <g>
       <use xlink:href="#m9f64f1d3eb" x="317.4912" y="298.944" style="stroke: #000000; stroke-width: 0.8"/>
      </g>
     </g>
     <g id="text_4">
      <!-- 6 -->
      <g transform="translate(312.083075 318.861344) scale(0.17 -0.17)">
       <defs>
        <path id="DejaVuSans-36" d="M 2113 2584 
Q 1688 2584 1439 2293 
Q 1191 2003 1191 1497 
Q 1191 994 1439 701 
Q 1688 409 2113 409 
Q 2538 409 2786 701 
Q 3034 994 3034 1497 
Q 3034 2003 2786 2293 
Q 2538 2584 2113 2584 
z
M 3366 4563 
L 3366 3988 
Q 3128 4100 2886 4159 
Q 2644 4219 2406 4219 
Q 1781 4219 1451 3797 
Q 1122 3375 1075 2522 
Q 1259 2794 1537 2939 
Q 1816 3084 2150 3084 
Q 2853 3084 3261 2657 
Q 3669 2231 3669 1497 
Q 3669 778 3244 343 
Q 2819 -91 2113 -91 
Q 1303 -91 875 529 
Q 447 1150 447 2328 
Q 447 3434 972 4092 
Q 1497 4750 2381 4750 
Q 2619 4750 2861 4703 
Q 3103 4656 3366 4563 
z
" transform="scale(0.015625)"/>
       </defs>
       <use xlink:href="#DejaVuSans-36"/>
      </g>
     </g>
    </g>
    <g id="xtick_5">
     <g id="line2d_13">
      <path d="M 100.9152 298.944 
L 100.9152 27.648 
" clip-path="url(#p5055109a42)" style="fill: none; stroke: #b0b0b0; stroke-width: 0.8; stroke-linecap: square"/>
     </g>
     <g id="line2d_14">
      <defs>
       <path id="m478af31c5e" d="M 0 0 
L 0 2 
" style="stroke: #000000; stroke-width: 0.6"/>
      </defs>
      <g>
       <use xlink:href="#m478af31c5e" x="100.9152" y="298.944" style="stroke: #000000; stroke-width: 0.6"/>
      </g>
     </g>
    </g>
    <g id="xtick_6">
     <g id="line2d_15">
      <path d="M 187.5456 298.944 
L 187.5456 27.648 
" clip-path="url(#p5055109a42)" style="fill: none; stroke: #b0b0b0; stroke-width: 0.8; stroke-linecap: square"/>
     </g>
     <g id="line2d_16">
      <g>
       <use xlink:href="#m478af31c5e" x="187.5456" y="298.944" style="stroke: #000000; stroke-width: 0.6"/>
      </g>
     </g>
    </g>
    <g id="xtick_7">
     <g id="line2d_17">
      <path d="M 274.176 298.944 
L 274.176 27.648 
" clip-path="url(#p5055109a42)" style="fill: none; stroke: #b0b0b0; stroke-width: 0.8; stroke-linecap: square"/>
     </g>
     <g id="line2d_18">
      <g>
       <use xlink:href="#m478af31c5e" x="274.176" y="298.944" style="stroke: #000000; stroke-width: 0.6"/>
      </g>
     </g>
    </g>
    <g id="xtick_8">
     <g id="line2d_19">
      <path d="M 360.8064 298.944 
L 360.8064 27.648 
" clip-path="url(#p5055109a42)" style="fill: none; stroke: #b0b0b0; stroke-width: 0.8; stroke-linecap: square"/>
     </g>
     <g id="line2d_20">
      <g>
       <use xlink:href="#m478af31c5e" x="360.8064" y="298.944" style="stroke: #000000; stroke-width: 0.6"/>
      </g>
     </g>
    </g>
    <g id="text_5">
     <!-- log10(# f-evals / dimension) -->
     <g transform="translate(88.823278 339.314156) scale(0.17 -0.17)">
      <defs>
       <path id="DejaVuSans-6c" d="M 603 4863 
L 1178 4863 
L 1178 0 
L 603 0 
L 603 4863 
z
" transform="scale(0.015625)"/>
       <path id="DejaVuSans-6f" d="M 1959 3097 
Q 1497 3097 1228 2736 
Q 959 2375 959 1747 
Q 959 1119 1226 758 
Q 1494 397 1959 397 
Q 2419 397 2687 759 
Q 2956 1122 2956 1747 
Q 2956 2369 2687 2733 
Q 2419 3097 1959 3097 
z
M 1959 3584 
Q 2709 3584 3137 3096 
Q 3566 2609 3566 1747 
Q 3566 888 3137 398 
Q 2709 -91 1959 -91 
Q 1206 -91 779 398 
Q 353 888 353 1747 
Q 353 2609 779 3096 
Q 1206 3584 1959 3584 
z
" transform="scale(0.015625)"/>
       <path id="DejaVuSans-67" d="M 2906 1791 
Q 2906 2416 2648 2759 
Q 2391 3103 1925 3103 
Q 1463 3103 1205 2759 
Q 947 2416 947 1791 
Q 947 1169 1205 825 
Q 1463 481 1925 481 
Q 2391 481 2648 825 
Q 2906 1169 2906 1791 
z
M 3481 434 
Q 3481 -459 3084 -895 
Q 2688 -1331 1869 -1331 
Q 1566 -1331 1297 -1286 
Q 1028 -1241 775 -1147 
L 775 -588 
Q 1028 -725 1275 -790 
Q 1522 -856 1778 -856 
Q 2344 -856 2625 -561 
Q 2906 -266 2906 331 
L 2906 616 
Q 2728 306 2450 153 
Q 2172 0 1784 0 
Q 1141 0 747 490 
Q 353 981 353 1791 
Q 353 2603 747 3093 
Q 1141 3584 1784 3584 
Q 2172 3584 2450 3431 
Q 2728 3278 2906 2969 
L 2906 3500 
L 3481 3500 
L 3481 434 
z
" transform="scale(0.015625)"/>
       <path id="DejaVuSans-31" d="M 794 531 
L 1825 531 
L 1825 4091 
L 703 3866 
L 703 4441 
L 1819 4666 
L 2450 4666 
L 2450 531 
L 3481 531 
L 3481 0 
L 794 0 
L 794 531 
z
" transform="scale(0.015625)"/>
       <path id="DejaVuSans-28" d="M 1984 4856 
Q 1566 4138 1362 3434 
Q 1159 2731 1159 2009 
Q 1159 1288 1364 580 
Q 1569 -128 1984 -844 
L 1484 -844 
Q 1016 -109 783 600 
Q 550 1309 550 2009 
Q 550 2706 781 3412 
Q 1013 4119 1484 4856 
L 1984 4856 
z
" transform="scale(0.015625)"/>
       <path id="DejaVuSans-23" d="M 3272 2816 
L 2363 2816 
L 2100 1772 
L 3016 1772 
L 3272 2816 
z
M 2803 4594 
L 2478 3297 
L 3391 3297 
L 3719 4594 
L 4219 4594 
L 3897 3297 
L 4872 3297 
L 4872 2816 
L 3775 2816 
L 3519 1772 
L 4513 1772 
L 4513 1294 
L 3397 1294 
L 3072 0 
L 2572 0 
L 2894 1294 
L 1978 1294 
L 1656 0 
L 1153 0 
L 1478 1294 
L 494 1294 
L 494 1772 
L 1594 1772 
L 1856 2816 
L 850 2816 
L 850 3297 
L 1978 3297 
L 2297 4594 
L 2803 4594 
z
" transform="scale(0.015625)"/>
       <path id="DejaVuSans-20" transform="scale(0.015625)"/>
       <path id="DejaVuSans-66" d="M 2375 4863 
L 2375 4384 
L 1825 4384 
Q 1516 4384 1395 4259 
Q 1275 4134 1275 3809 
L 1275 3500 
L 2222 3500 
L 2222 3053 
L 1275 3053 
L 1275 0 
L 697 0 
L 697 3053 
L 147 3053 
L 147 3500 
L 697 3500 
L 697 3744 
Q 697 4328 969 4595 
Q 1241 4863 1831 4863 
L 2375 4863 
z
" transform="scale(0.015625)"/>
       <path id="DejaVuSans-2d" d="M 313 2009 
L 1997 2009 
L 1997 1497 
L 313 1497 
L 313 2009 
z
" transform="scale(0.015625)"/>
       <path id="DejaVuSans-65" d="M 3597 1894 
L 3597 1613 
L 953 1613 
Q 991 1019 1311 708 
Q 1631 397 2203 397 
Q 2534 397 2845 478 
Q 3156 559 3463 722 
L 3463 178 
Q 3153 47 2828 -22 
Q 2503 -91 2169 -91 
Q 1331 -91 842 396 
Q 353 884 353 1716 
Q 353 2575 817 3079 
Q 1281 3584 2069 3584 
Q 2775 3584 3186 3129 
Q 3597 2675 3597 1894 
z
M 3022 2063 
Q 3016 2534 2758 2815 
Q 2500 3097 2075 3097 
Q 1594 3097 1305 2825 
Q 1016 2553 972 2059 
L 3022 2063 
z
" transform="scale(0.015625)"/>
       <path id="DejaVuSans-76" d="M 191 3500 
L 800 3500 
L 1894 563 
L 2988 3500 
L 3597 3500 
L 2284 0 
L 1503 0 
L 191 3500 
z
" transform="scale(0.015625)"/>
       <path id="DejaVuSans-61" d="M 2194 1759 
Q 1497 1759 1228 1600 
Q 959 1441 959 1056 
Q 959 750 1161 570 
Q 1363 391 1709 391 
Q 2188 391 2477 730 
Q 2766 1069 2766 1631 
L 2766 1759 
L 2194 1759 
z
M 3341 1997 
L 3341 0 
L 2766 0 
L 2766 531 
Q 2569 213 2275 61 
Q 1981 -91 1556 -91 
Q 1019 -91 701 211 
Q 384 513 384 1019 
Q 384 1609 779 1909 
Q 1175 2209 1959 2209 
L 2766 2209 
L 2766 2266 
Q 2766 2663 2505 2880 
Q 2244 3097 1772 3097 
Q 1472 3097 1187 3025 
Q 903 2953 641 2809 
L 641 3341 
Q 956 3463 1253 3523 
Q 1550 3584 1831 3584 
Q 2591 3584 2966 3190 
Q 3341 2797 3341 1997 
z
" transform="scale(0.015625)"/>
       <path id="DejaVuSans-73" d="M 2834 3397 
L 2834 2853 
Q 2591 2978 2328 3040 
Q 2066 3103 1784 3103 
Q 1356 3103 1142 2972 
Q 928 2841 928 2578 
Q 928 2378 1081 2264 
Q 1234 2150 1697 2047 
L 1894 2003 
Q 2506 1872 2764 1633 
Q 3022 1394 3022 966 
Q 3022 478 2636 193 
Q 2250 -91 1575 -91 
Q 1294 -91 989 -36 
Q 684 19 347 128 
L 347 722 
Q 666 556 975 473 
Q 1284 391 1588 391 
Q 1994 391 2212 530 
Q 2431 669 2431 922 
Q 2431 1156 2273 1281 
Q 2116 1406 1581 1522 
L 1381 1569 
Q 847 1681 609 1914 
Q 372 2147 372 2553 
Q 372 3047 722 3315 
Q 1072 3584 1716 3584 
Q 2034 3584 2315 3537 
Q 2597 3491 2834 3397 
z
" transform="scale(0.015625)"/>
       <path id="DejaVuSans-2f" d="M 1625 4666 
L 2156 4666 
L 531 -594 
L 0 -594 
L 1625 4666 
z
" transform="scale(0.015625)"/>
       <path id="DejaVuSans-64" d="M 2906 2969 
L 2906 4863 
L 3481 4863 
L 3481 0 
L 2906 0 
L 2906 525 
Q 2725 213 2448 61 
Q 2172 -91 1784 -91 
Q 1150 -91 751 415 
Q 353 922 353 1747 
Q 353 2572 751 3078 
Q 1150 3584 1784 3584 
Q 2172 3584 2448 3432 
Q 2725 3281 2906 2969 
z
M 947 1747 
Q 947 1113 1208 752 
Q 1469 391 1925 391 
Q 2381 391 2643 752 
Q 2906 1113 2906 1747 
Q 2906 2381 2643 2742 
Q 2381 3103 1925 3103 
Q 1469 3103 1208 2742 
Q 947 2381 947 1747 
z
" transform="scale(0.015625)"/>
       <path id="DejaVuSans-69" d="M 603 3500 
L 1178 3500 
L 1178 0 
L 603 0 
L 603 3500 
z
M 603 4863 
L 1178 4863 
L 1178 4134 
L 603 4134 
L 603 4863 
z
" transform="scale(0.015625)"/>
       <path id="DejaVuSans-6d" d="M 3328 2828 
Q 3544 3216 3844 3400 
Q 4144 3584 4550 3584 
Q 5097 3584 5394 3201 
Q 5691 2819 5691 2113 
L 5691 0 
L 5113 0 
L 5113 2094 
Q 5113 2597 4934 2840 
Q 4756 3084 4391 3084 
Q 3944 3084 3684 2787 
Q 3425 2491 3425 1978 
L 3425 0 
L 2847 0 
L 2847 2094 
Q 2847 2600 2669 2842 
Q 2491 3084 2119 3084 
Q 1678 3084 1418 2786 
Q 1159 2488 1159 1978 
L 1159 0 
L 581 0 
L 581 3500 
L 1159 3500 
L 1159 2956 
Q 1356 3278 1631 3431 
Q 1906 3584 2284 3584 
Q 2666 3584 2933 3390 
Q 3200 3197 3328 2828 
z
" transform="scale(0.015625)"/>
       <path id="DejaVuSans-6e" d="M 3513 2113 
L 3513 0 
L 2938 0 
L 2938 2094 
Q 2938 2591 2744 2837 
Q 2550 3084 2163 3084 
Q 1697 3084 1428 2787 
Q 1159 2491 1159 1978 
L 1159 0 
L 581 0 
L 581 3500 
L 1159 3500 
L 1159 2956 
Q 1366 3272 1645 3428 
Q 1925 3584 2291 3584 
Q 2894 3584 3203 3211 
Q 3513 2838 3513 2113 
z
" transform="scale(0.015625)"/>
       <path id="DejaVuSans-29" d="M 513 4856 
L 1013 4856 
Q 1481 4119 1714 3412 
Q 1947 2706 1947 2009 
Q 1947 1309 1714 600 
Q 1481 -109 1013 -844 
L 513 -844 
Q 928 -128 1133 580 
Q 1338 1288 1338 2009 
Q 1338 2731 1133 3434 
Q 928 4138 513 4856 
z
" transform="scale(0.015625)"/>
      </defs>
      <use xlink:href="#DejaVuSans-6c"/>
      <use xlink:href="#DejaVuSans-6f" x="27.783203"/>
      <use xlink:href="#DejaVuSans-67" x="88.964844"/>
      <use xlink:href="#DejaVuSans-31" x="152.441406"/>
      <use xlink:href="#DejaVuSans-30" x="216.064453"/>
      <use xlink:href="#DejaVuSans-28" x="279.6875"/>
      <use xlink:href="#DejaVuSans-23" x="318.701172"/>
      <use xlink:href="#DejaVuSans-20" x="402.490234"/>
      <use xlink:href="#DejaVuSans-66" x="434.277344"/>
      <use xlink:href="#DejaVuSans-2d" x="463.982422"/>
      <use xlink:href="#DejaVuSans-65" x="500.066406"/>
      <use xlink:href="#DejaVuSans-76" x="561.589844"/>
      <use xlink:href="#DejaVuSans-61" x="620.769531"/>
      <use xlink:href="#DejaVuSans-6c" x="682.048828"/>
      <use xlink:href="#DejaVuSans-73" x="709.832031"/>
      <use xlink:href="#DejaVuSans-20" x="761.931641"/>
      <use xlink:href="#DejaVuSans-2f" x="793.71875"/>
      <use xlink:href="#DejaVuSans-20" x="827.410156"/>
      <use xlink:href="#DejaVuSans-64" x="859.197266"/>
      <use xlink:href="#DejaVuSans-69" x="922.673828"/>
      <use xlink:href="#DejaVuSans-6d" x="950.457031"/>
      <use xlink:href="#DejaVuSans-65" x="1047.869141"/>
      <use xlink:href="#DejaVuSans-6e" x="1109.392578"/>
      <use xlink:href="#DejaVuSans-73" x="1172.771484"/>
      <use xlink:href="#DejaVuSans-69" x="1224.871094"/>
      <use xlink:href="#DejaVuSans-6f" x="1252.654297"/>
      <use xlink:href="#DejaVuSans-6e" x="1313.835938"/>
      <use xlink:href="#DejaVuSans-29" x="1377.214844"/>
     </g>
    </g>
   </g>
   <g id="matplotlib.axis_2">
    <g id="ytick_1">
     <g id="line2d_21">
      <path d="M 57.6 298.944 
L 360.8064 298.944 
" clip-path="url(#p5055109a42)" style="fill: none; stroke: #b0b0b0; stroke-width: 0.8; stroke-linecap: square"/>
     </g>
     <g id="line2d_22">
      <defs>
       <path id="mc21b7ac054" d="M 0 0 
L -3.5 0 
" style="stroke: #000000; stroke-width: 0.8"/>
      </defs>
      <g>
       <use xlink:href="#mc21b7ac054" x="57.6" y="298.944" style="stroke: #000000; stroke-width: 0.8"/>
      </g>
     </g>
     <g id="text_6">
      <!-- 0.0 -->
      <g transform="translate(25.155 305.02275) scale(0.16 -0.16)">
       <defs>
        <path id="DejaVuSans-2e" d="M 684 794 
L 1344 794 
L 1344 0 
L 684 0 
L 684 794 
z
" transform="scale(0.015625)"/>
       </defs>
       <use xlink:href="#DejaVuSans-30"/>
       <use xlink:href="#DejaVuSans-2e" x="63.623047"/>
       <use xlink:href="#DejaVuSans-30" x="95.410156"/>
      </g>
     </g>
    </g>
    <g id="ytick_2">
     <g id="line2d_23">
      <path d="M 57.6 244.6848 
L 360.8064 244.6848 
" clip-path="url(#p5055109a42)" style="fill: none; stroke: #b0b0b0; stroke-width: 0.8; stroke-linecap: square"/>
     </g>
     <g id="line2d_24">
      <g>
       <use xlink:href="#mc21b7ac054" x="57.6" y="244.6848" style="stroke: #000000; stroke-width: 0.8"/>
      </g>
     </g>
     <g id="text_7">
      <!-- 0.2 -->
      <g transform="translate(25.155 250.76355) scale(0.16 -0.16)">
       <use xlink:href="#DejaVuSans-30"/>
       <use xlink:href="#DejaVuSans-2e" x="63.623047"/>
       <use xlink:href="#DejaVuSans-32" x="95.410156"/>
      </g>
     </g>
    </g>
    <g id="ytick_3">
     <g id="line2d_25">
      <path d="M 57.6 190.4256 
L 360.8064 190.4256 
" clip-path="url(#p5055109a42)" style="fill: none; stroke: #b0b0b0; stroke-width: 0.8; stroke-linecap: square"/>
     </g>
     <g id="line2d_26">
      <g>
       <use xlink:href="#mc21b7ac054" x="57.6" y="190.4256" style="stroke: #000000; stroke-width: 0.8"/>
      </g>
     </g>
     <g id="text_8">
      <!-- 0.4 -->
      <g transform="translate(25.155 196.50435) scale(0.16 -0.16)">
       <use xlink:href="#DejaVuSans-30"/>
       <use xlink:href="#DejaVuSans-2e" x="63.623047"/>
       <use xlink:href="#DejaVuSans-34" x="95.410156"/>
      </g>
     </g>
    </g>
    <g id="ytick_4">
     <g id="line2d_27">
      <path d="M 57.6 136.1664 
L 360.8064 136.1664 
" clip-path="url(#p5055109a42)" style="fill: none; stroke: #b0b0b0; stroke-width: 0.8; stroke-linecap: square"/>
     </g>
     <g id="line2d_28">
      <g>
       <use xlink:href="#mc21b7ac054" x="57.6" y="136.1664" style="stroke: #000000; stroke-width: 0.8"/>
      </g>
     </g>
     <g id="text_9">
      <!-- 0.6 -->
      <g transform="translate(25.155 142.24515) scale(0.16 -0.16)">
       <use xlink:href="#DejaVuSans-30"/>
       <use xlink:href="#DejaVuSans-2e" x="63.623047"/>
       <use xlink:href="#DejaVuSans-36" x="95.410156"/>
      </g>
     </g>
    </g>
    <g id="ytick_5">
     <g id="line2d_29">
      <path d="M 57.6 81.9072 
L 360.8064 81.9072 
" clip-path="url(#p5055109a42)" style="fill: none; stroke: #b0b0b0; stroke-width: 0.8; stroke-linecap: square"/>
     </g>
     <g id="line2d_30">
      <g>
       <use xlink:href="#mc21b7ac054" x="57.6" y="81.9072" style="stroke: #000000; stroke-width: 0.8"/>
      </g>
     </g>
     <g id="text_10">
      <!-- 0.8 -->
      <g transform="translate(25.155 87.98595) scale(0.16 -0.16)">
       <defs>
        <path id="DejaVuSans-38" d="M 2034 2216 
Q 1584 2216 1326 1975 
Q 1069 1734 1069 1313 
Q 1069 891 1326 650 
Q 1584 409 2034 409 
Q 2484 409 2743 651 
Q 3003 894 3003 1313 
Q 3003 1734 2745 1975 
Q 2488 2216 2034 2216 
z
M 1403 2484 
Q 997 2584 770 2862 
Q 544 3141 544 3541 
Q 544 4100 942 4425 
Q 1341 4750 2034 4750 
Q 2731 4750 3128 4425 
Q 3525 4100 3525 3541 
Q 3525 3141 3298 2862 
Q 3072 2584 2669 2484 
Q 3125 2378 3379 2068 
Q 3634 1759 3634 1313 
Q 3634 634 3220 271 
Q 2806 -91 2034 -91 
Q 1263 -91 848 271 
Q 434 634 434 1313 
Q 434 1759 690 2068 
Q 947 2378 1403 2484 
z
M 1172 3481 
Q 1172 3119 1398 2916 
Q 1625 2713 2034 2713 
Q 2441 2713 2670 2916 
Q 2900 3119 2900 3481 
Q 2900 3844 2670 4047 
Q 2441 4250 2034 4250 
Q 1625 4250 1398 4047 
Q 1172 3844 1172 3481 
z
" transform="scale(0.015625)"/>
       </defs>
       <use xlink:href="#DejaVuSans-30"/>
       <use xlink:href="#DejaVuSans-2e" x="63.623047"/>
       <use xlink:href="#DejaVuSans-38" x="95.410156"/>
      </g>
     </g>
    </g>
    <g id="ytick_6">
     <g id="line2d_31">
      <path d="M 57.6 27.648 
L 360.8064 27.648 
" clip-path="url(#p5055109a42)" style="fill: none; stroke: #b0b0b0; stroke-width: 0.8; stroke-linecap: square"/>
     </g>
     <g id="line2d_32">
      <g>
       <use xlink:href="#mc21b7ac054" x="57.6" y="27.648" style="stroke: #000000; stroke-width: 0.8"/>
      </g>
     </g>
     <g id="text_11">
      <!-- 1.0 -->
      <g transform="translate(25.155 33.72675) scale(0.16 -0.16)">
       <use xlink:href="#DejaVuSans-31"/>
       <use xlink:href="#DejaVuSans-2e" x="63.623047"/>
       <use xlink:href="#DejaVuSans-30" x="95.410156"/>
      </g>
     </g>
    </g>
    <g id="text_12">
     <!-- Fraction of function,target pairs -->
     <g transform="translate(17.619531 297.681) rotate(-90) scale(0.17 -0.17)">
      <defs>
       <path id="DejaVuSans-46" d="M 628 4666 
L 3309 4666 
L 3309 4134 
L 1259 4134 
L 1259 2759 
L 3109 2759 
L 3109 2228 
L 1259 2228 
L 1259 0 
L 628 0 
L 628 4666 
z
" transform="scale(0.015625)"/>
       <path id="DejaVuSans-72" d="M 2631 2963 
Q 2534 3019 2420 3045 
Q 2306 3072 2169 3072 
Q 1681 3072 1420 2755 
Q 1159 2438 1159 1844 
L 1159 0 
L 581 0 
L 581 3500 
L 1159 3500 
L 1159 2956 
Q 1341 3275 1631 3429 
Q 1922 3584 2338 3584 
Q 2397 3584 2469 3576 
Q 2541 3569 2628 3553 
L 2631 2963 
z
" transform="scale(0.015625)"/>
       <path id="DejaVuSans-63" d="M 3122 3366 
L 3122 2828 
Q 2878 2963 2633 3030 
Q 2388 3097 2138 3097 
Q 1578 3097 1268 2742 
Q 959 2388 959 1747 
Q 959 1106 1268 751 
Q 1578 397 2138 397 
Q 2388 397 2633 464 
Q 2878 531 3122 666 
L 3122 134 
Q 2881 22 2623 -34 
Q 2366 -91 2075 -91 
Q 1284 -91 818 406 
Q 353 903 353 1747 
Q 353 2603 823 3093 
Q 1294 3584 2113 3584 
Q 2378 3584 2631 3529 
Q 2884 3475 3122 3366 
z
" transform="scale(0.015625)"/>
       <path id="DejaVuSans-74" d="M 1172 4494 
L 1172 3500 
L 2356 3500 
L 2356 3053 
L 1172 3053 
L 1172 1153 
Q 1172 725 1289 603 
Q 1406 481 1766 481 
L 2356 481 
L 2356 0 
L 1766 0 
Q 1100 0 847 248 
Q 594 497 594 1153 
L 594 3053 
L 172 3053 
L 172 3500 
L 594 3500 
L 594 4494 
L 1172 4494 
z
" transform="scale(0.015625)"/>
       <path id="DejaVuSans-75" d="M 544 1381 
L 544 3500 
L 1119 3500 
L 1119 1403 
Q 1119 906 1312 657 
Q 1506 409 1894 409 
Q 2359 409 2629 706 
Q 2900 1003 2900 1516 
L 2900 3500 
L 3475 3500 
L 3475 0 
L 2900 0 
L 2900 538 
Q 2691 219 2414 64 
Q 2138 -91 1772 -91 
Q 1169 -91 856 284 
Q 544 659 544 1381 
z
M 1991 3584 
L 1991 3584 
z
" transform="scale(0.015625)"/>
       <path id="DejaVuSans-2c" d="M 750 794 
L 1409 794 
L 1409 256 
L 897 -744 
L 494 -744 
L 750 256 
L 750 794 
z
" transform="scale(0.015625)"/>
       <path id="DejaVuSans-70" d="M 1159 525 
L 1159 -1331 
L 581 -1331 
L 581 3500 
L 1159 3500 
L 1159 2969 
Q 1341 3281 1617 3432 
Q 1894 3584 2278 3584 
Q 2916 3584 3314 3078 
Q 3713 2572 3713 1747 
Q 3713 922 3314 415 
Q 2916 -91 2278 -91 
Q 1894 -91 1617 61 
Q 1341 213 1159 525 
z
M 3116 1747 
Q 3116 2381 2855 2742 
Q 2594 3103 2138 3103 
Q 1681 3103 1420 2742 
Q 1159 2381 1159 1747 
Q 1159 1113 1420 752 
Q 1681 391 2138 391 
Q 2594 391 2855 752 
Q 3116 1113 3116 1747 
z
" transform="scale(0.015625)"/>
      </defs>
      <use xlink:href="#DejaVuSans-46"/>
      <use xlink:href="#DejaVuSans-72" x="50.269531"/>
      <use xlink:href="#DejaVuSans-61" x="91.382812"/>
      <use xlink:href="#DejaVuSans-63" x="152.662109"/>
      <use xlink:href="#DejaVuSans-74" x="207.642578"/>
      <use xlink:href="#DejaVuSans-69" x="246.851562"/>
      <use xlink:href="#DejaVuSans-6f" x="274.634766"/>
      <use xlink:href="#DejaVuSans-6e" x="335.816406"/>
      <use xlink:href="#DejaVuSans-20" x="399.195312"/>
      <use xlink:href="#DejaVuSans-6f" x="430.982422"/>
      <use xlink:href="#DejaVuSans-66" x="492.164062"/>
      <use xlink:href="#DejaVuSans-20" x="527.369141"/>
      <use xlink:href="#DejaVuSans-66" x="559.15625"/>
      <use xlink:href="#DejaVuSans-75" x="594.361328"/>
      <use xlink:href="#DejaVuSans-6e" x="657.740234"/>
      <use xlink:href="#DejaVuSans-63" x="721.119141"/>
      <use xlink:href="#DejaVuSans-74" x="776.099609"/>
      <use xlink:href="#DejaVuSans-69" x="815.308594"/>
      <use xlink:href="#DejaVuSans-6f" x="843.091797"/>
      <use xlink:href="#DejaVuSans-6e" x="904.273438"/>
      <use xlink:href="#DejaVuSans-2c" x="967.652344"/>
      <use xlink:href="#DejaVuSans-74" x="999.439453"/>
      <use xlink:href="#DejaVuSans-61" x="1038.648438"/>
      <use xlink:href="#DejaVuSans-72" x="1099.927734"/>
      <use xlink:href="#DejaVuSans-67" x="1139.291016"/>
      <use xlink:href="#DejaVuSans-65" x="1202.767578"/>
      <use xlink:href="#DejaVuSans-74" x="1264.291016"/>
      <use xlink:href="#DejaVuSans-20" x="1303.5"/>
      <use xlink:href="#DejaVuSans-70" x="1335.287109"/>
      <use xlink:href="#DejaVuSans-61" x="1398.763672"/>
      <use xlink:href="#DejaVuSans-69" x="1460.042969"/>
      <use xlink:href="#DejaVuSans-72" x="1487.826172"/>
      <use xlink:href="#DejaVuSans-73" x="1528.939453"/>
     </g>
    </g>
   </g>
   <g id="line2d_33">
    <defs>
     <path id="m32618a2f0a" d="M 0 1.5 
C 0.397805 1.5 0.77937 1.341951 1.06066 1.06066 
C 1.341951 0.77937 1.5 0.397805 1.5 0 
C 1.5 -0.397805 1.341951 -0.77937 1.06066 -1.06066 
C 0.77937 -1.341951 0.397805 -1.5 0 -1.5 
C -0.397805 -1.5 -0.77937 -1.341951 -1.06066 -1.06066 
C -1.341951 -0.77937 -1.5 -0.397805 -1.5 0 
C -1.5 0.397805 -1.341951 0.77937 -1.06066 1.06066 
C -0.77937 1.341951 -0.397805 1.5 0 1.5 
z
" style="stroke: #f5deb3"/>
    </defs>
    <g>
     <use xlink:href="#m32618a2f0a" x="363.078418" y="153.940966" style="fill: #f5deb3; stroke: #f5deb3"/>
     <use xlink:href="#m32618a2f0a" x="363.078418" y="153.940966" style="fill: #f5deb3; stroke: #f5deb3"/>
    </g>
   </g>
   <g id="line2d_34">
    <defs>
     <path id="m3737ceb533" d="M 0 1.5 
C 0.397805 1.5 0.77937 1.341951 1.06066 1.06066 
C 1.341951 0.77937 1.5 0.397805 1.5 0 
C 1.5 -0.397805 1.341951 -0.77937 1.06066 -1.06066 
C 0.77937 -1.341951 0.397805 -1.5 0 -1.5 
C -0.397805 -1.5 -0.77937 -1.341951 -1.06066 -1.06066 
C -1.341951 -0.77937 -1.5 -0.397805 -1.5 0 
C -1.5 0.397805 -1.341951 0.77937 -1.06066 1.06066 
C -0.77937 1.341951 -0.397805 1.5 0 1.5 
z
" style="stroke: #000080"/>
    </defs>
    <g>
     <use xlink:href="#m3737ceb533" x="218.03784" y="233.92651" style="fill: #000080; stroke: #000080"/>
     <use xlink:href="#m3737ceb533" x="218.03784" y="233.92651" style="fill: #000080; stroke: #000080"/>
    </g>
   </g>
   <g id="line2d_35">
    <path d="M 27.323974 298.944 
L 27.323974 294.266483 
L 47.990577 294.266483 
L 47.990577 293.798731 
L 53.402323 293.798731 
L 53.402323 292.863228 
L 57.6 292.863228 
L 57.6 292.395476 
L 63.929565 292.395476 
L 63.929565 291.927724 
L 75.574654 291.927724 
L 75.574654 291.459972 
L 93.098709 291.459972 
L 93.098709 290.992221 
L 110.674517 290.992221 
L 110.674517 290.524469 
L 113.765312 290.524469 
L 113.765312 290.056717 
L 115.747307 290.056717 
L 115.747307 289.588966 
L 122.795872 289.588966 
L 122.795872 289.121214 
L 124.481616 289.121214 
L 124.481616 288.653462 
L 126.613505 288.653462 
L 126.613505 288.18571 
L 127.18073 288.18571 
L 127.18073 287.717959 
L 128.089678 287.717959 
L 128.178203 286.782455 
L 132.358208 286.782455 
L 132.358208 286.314703 
L 136.126705 286.314703 
L 136.126705 285.846952 
L 139.796097 285.846952 
L 139.796097 285.3792 
L 140.770526 285.3792 
L 140.770526 284.911448 
L 141.436884 284.911448 
L 141.523975 283.508193 
L 142.373399 283.508193 
L 142.373399 283.040441 
L 144.003296 283.040441 
L 144.003296 282.57269 
L 147.439393 282.57269 
L 147.439393 282.104938 
L 148.094045 282.104938 
L 148.094045 281.637186 
L 151.400845 281.637186 
L 151.477784 280.701683 
L 151.681429 280.701683 
L 151.681429 280.233931 
L 152.032588 280.233931 
L 152.032588 279.766179 
L 152.20574 279.766179 
L 152.20574 279.298428 
L 152.619733 279.298428 
L 152.619733 278.830676 
L 153.967309 278.830676 
L 153.967309 277.895172 
L 154.168026 277.895172 
L 154.168026 277.427421 
L 155.18278 277.427421 
L 155.18278 276.959669 
L 157.623641 276.959669 
L 157.623641 276.491917 
L 158.07959 276.491917 
L 158.07959 276.024166 
L 159.518669 276.024166 
L 159.518669 275.556414 
L 160.541906 275.556414 
L 160.541906 275.088662 
L 163.287526 275.088662 
L 163.287526 274.62091 
L 164.272231 274.62091 
L 164.272231 273.217655 
L 166.052194 273.217655 
L 166.052194 272.749903 
L 168.811641 272.749903 
L 168.811641 271.346648 
L 169.174771 271.346648 
L 169.174771 270.878897 
L 172.373333 270.878897 
L 172.373333 270.411145 
L 173.470098 270.411145 
L 173.470098 269.943393 
L 174.362912 269.943393 
L 174.362912 269.475641 
L 174.908429 269.475641 
L 174.908429 269.00789 
L 175.149934 269.00789 
L 175.149934 268.540138 
L 176.624872 268.540138 
L 176.624872 268.072386 
L 177.272471 268.072386 
L 177.272471 267.604634 
L 177.702725 267.604634 
L 177.702725 267.136883 
L 178.680008 267.136883 
L 178.680008 266.201379 
L 179.904999 266.201379 
L 179.904999 265.733628 
L 180.263006 265.733628 
L 180.263006 265.265876 
L 180.884301 265.265876 
L 180.884301 264.798124 
L 181.615092 264.798124 
L 181.615092 264.330372 
L 182.721531 264.330372 
L 182.721531 263.394869 
L 183.039725 263.394869 
L 183.039725 262.927117 
L 184.717135 262.927117 
L 184.786969 261.523862 
L 185.989327 261.523862 
L 185.989327 261.05611 
L 186.517221 261.05611 
L 186.517221 260.588359 
L 187.53431 260.588359 
L 187.53431 260.120607 
L 187.773712 260.120607 
L 187.773712 259.652855 
L 188.524234 259.652855 
L 188.524234 258.717352 
L 188.825395 258.717352 
L 188.825395 258.2496 
L 189.204666 258.2496 
L 189.204666 257.781848 
L 190.040124 257.781848 
L 190.040124 257.314097 
L 190.243317 257.314097 
L 190.243317 256.846345 
L 191.381651 256.846345 
L 191.381651 256.378593 
L 191.869267 256.378593 
L 191.869267 255.910841 
L 193.093238 255.910841 
L 193.151976 254.507586 
L 193.90202 254.507586 
L 193.90202 254.039834 
L 197.823965 254.039834 
L 197.823965 253.572083 
L 199.434805 253.572083 
L 199.544471 252.168828 
L 200.552768 252.168828 
L 200.552768 251.701076 
L 200.907431 251.701076 
L 200.907431 251.233324 
L 201.087782 251.233324 
L 201.087782 250.765572 
L 202.053421 250.765572 
L 202.053421 249.830069 
L 203.217185 249.830069 
L 203.217185 248.894566 
L 203.795354 248.894566 
L 203.842874 247.49131 
L 204.272969 247.49131 
L 204.377821 246.088055 
L 205.391024 246.088055 
L 205.391024 245.152552 
L 205.963572 245.152552 
L 205.963572 244.6848 
L 206.996126 244.6848 
L 206.996126 244.217048 
L 207.924072 244.217048 
L 207.924072 243.749297 
L 208.28605 243.749297 
L 208.28605 243.281545 
L 208.697497 243.281545 
L 208.697497 242.813793 
L 209.205117 242.813793 
L 209.205117 242.346041 
L 209.335523 242.346041 
L 209.335523 241.87829 
L 210.194574 241.87829 
L 210.194574 240.942786 
L 210.570035 240.942786 
L 210.570035 240.007283 
L 210.692443 240.007283 
L 210.786736 239.071779 
L 212.210173 239.071779 
L 212.210173 238.604028 
L 212.748925 238.604028 
L 212.748925 237.668524 
L 212.930339 237.668524 
L 212.930339 237.200772 
L 213.114853 237.200772 
L 213.114853 236.733021 
L 214.472665 236.733021 
L 214.472665 235.797517 
L 215.081283 235.797517 
L 215.081283 234.862014 
L 215.878051 234.862014 
L 215.878051 234.394262 
L 218.03784 234.394262 
L 218.03784 233.92651 
L 360.8064 233.92651 
L 360.8064 233.92651 
" style="fill: none; stroke: #000080; stroke-width: 1.5; stroke-linecap: square"/>
   </g>
   <g id="line2d_36">
    <defs>
     <path id="m07a39e9ceb" d="M 0 6 
C 1.591219 6 3.117479 5.367802 4.242641 4.242641 
C 5.367802 3.117479 6 1.591219 6 0 
C 6 -1.591219 5.367802 -3.117479 4.242641 -4.242641 
C 3.117479 -5.367802 1.591219 -6 0 -6 
C -1.591219 -6 -3.117479 -5.367802 -4.242641 -4.242641 
C -5.367802 -3.117479 -6 -1.591219 -6 0 
C -6 1.591219 -5.367802 3.117479 -4.242641 4.242641 
C -3.117479 5.367802 -1.591219 6 0 6 
z
" style="stroke: #000080; stroke-width: 1.5"/>
    </defs>
    <g>
     <use xlink:href="#m07a39e9ceb" x="75.574654" y="291.459972" style="fill-opacity: 0; stroke: #000080; stroke-width: 1.5"/>
     <use xlink:href="#m07a39e9ceb" x="154.168026" y="277.427421" style="fill-opacity: 0; stroke: #000080; stroke-width: 1.5"/>
     <use xlink:href="#m07a39e9ceb" x="218.03784" y="234.394262" style="fill-opacity: 0; stroke: #000080; stroke-width: 1.5"/>
     <use xlink:href="#m07a39e9ceb" x="218.03784" y="233.92651" style="fill-opacity: 0; stroke: #000080; stroke-width: 1.5"/>
     <use xlink:href="#m07a39e9ceb" x="218.03784" y="233.92651" style="fill-opacity: 0; stroke: #000080; stroke-width: 1.5"/>
     <use xlink:href="#m07a39e9ceb" x="360.8064" y="233.92651" style="fill-opacity: 0; stroke: #000080; stroke-width: 1.5"/>
    </g>
   </g>
   <g id="line2d_37">
    <path style="fill: none; stroke: #000080; stroke-width: 1.5; stroke-linecap: square"/>
    <g/>
   </g>
   <g id="line2d_38">
    <path d="M 230.866066 233.92651 
" clip-path="url(#p5055109a42)" style="fill: none; stroke: #000080; stroke-width: 1.5; stroke-linecap: square"/>
    <defs>
     <path id="m0d91fd2d6c" d="M -12 12 
L 12 -12 
M -12 -12 
L 12 12 
" style="stroke: #000080"/>
    </defs>
    <g clip-path="url(#p5055109a42)">
     <use xlink:href="#m0d91fd2d6c" x="230.866066" y="233.92651" style="fill: #000080; stroke: #000080"/>
    </g>
   </g>
   <g id="line2d_39">
    <defs>
     <path id="m99e19f77d1" d="M 0 1.5 
C 0.397805 1.5 0.77937 1.341951 1.06066 1.06066 
C 1.341951 0.77937 1.5 0.397805 1.5 0 
C 1.5 -0.397805 1.341951 -0.77937 1.06066 -1.06066 
C 0.77937 -1.341951 0.397805 -1.5 0 -1.5 
C -0.397805 -1.5 -0.77937 -1.341951 -1.06066 -1.06066 
C -1.341951 -0.77937 -1.5 -0.397805 -1.5 0 
C -1.5 0.397805 -1.341951 0.77937 -1.06066 1.06066 
C -0.77937 1.341951 -0.397805 1.5 0 1.5 
z
" style="stroke: #ff00ff"/>
    </defs>
    <g>
     <use xlink:href="#m99e19f77d1" x="215.207943" y="235.797517" style="fill: #ff00ff; stroke: #ff00ff"/>
     <use xlink:href="#m99e19f77d1" x="215.207943" y="235.797517" style="fill: #ff00ff; stroke: #ff00ff"/>
    </g>
   </g>
   <g id="line2d_40">
    <path d="M 27.323974 298.944 
L 27.323974 294.266483 
L 40.363149 294.266483 
L 40.363149 293.798731 
L 53.402323 293.798731 
L 53.402323 293.330979 
L 63.929565 293.330979 
L 63.929565 292.863228 
L 68.65718 292.863228 
L 68.65718 292.395476 
L 70.639174 292.395476 
L 70.639174 291.459972 
L 88.613828 291.459972 
L 88.613828 290.992221 
L 94.735529 290.992221 
L 94.735529 290.524469 
L 96.717523 290.524469 
L 96.717523 290.056717 
L 99.346662 290.056717 
L 99.346662 289.588966 
L 109.520071 289.588966 
L 109.520071 289.121214 
L 110.674517 289.121214 
L 110.674517 288.653462 
L 111.762192 288.653462 
L 111.762192 287.717959 
L 112.180244 287.717959 
L 112.180244 287.250207 
L 112.385837 287.250207 
L 112.385837 286.782455 
L 114.872193 286.782455 
L 114.872193 286.314703 
L 119.177058 286.314703 
L 119.177058 285.846952 
L 119.876453 285.846952 
L 119.876453 284.911448 
L 120.013265 284.911448 
L 120.013265 284.443697 
L 121.329295 284.443697 
L 121.329295 283.975945 
L 123.936316 283.975945 
L 123.936316 283.508193 
L 124.588805 283.508193 
L 124.588805 283.040441 
L 126.709238 283.040441 
L 126.709238 282.57269 
L 128.614685 282.57269 
L 128.614685 282.104938 
L 130.186674 282.104938 
L 130.186674 281.637186 
L 130.887807 281.637186 
L 130.887807 281.169434 
L 132.287354 281.169434 
L 132.287354 280.701683 
L 132.638982 280.701683 
L 132.638982 280.233931 
L 134.176839 280.233931 
L 134.176839 279.766179 
L 136.527575 279.766179 
L 136.527575 278.830676 
L 137.140746 278.830676 
L 137.140746 278.362924 
L 137.681345 278.362924 
L 137.681345 277.895172 
L 140.49723 277.895172 
L 140.49723 277.427421 
L 141.782854 277.427421 
L 141.782854 276.959669 
L 143.38393 276.959669 
L 143.462475 276.024166 
L 145.148219 276.024166 
L 145.148219 275.556414 
L 145.361989 275.556414 
L 145.361989 275.088662 
L 147.407644 275.088662 
L 147.407644 274.62091 
L 148.155221 274.62091 
L 148.155221 274.153159 
L 149.481565 274.153159 
L 149.481565 273.685407 
L 151.452172 273.685407 
L 151.452172 273.217655 
L 153.467455 273.217655 
L 153.467455 272.282152 
L 154.056781 272.282152 
L 154.056781 271.8144 
L 154.80059 271.8144 
L 154.80059 270.878897 
L 155.762279 270.878897 
L 155.762279 270.411145 
L 156.403417 270.411145 
L 156.403417 269.943393 
L 161.721364 269.943393 
L 161.721364 269.475641 
L 162.334839 269.475641 
L 162.334839 269.00789 
L 162.634233 269.00789 
L 162.634233 268.540138 
L 163.706328 268.540138 
L 163.706328 268.072386 
L 164.9471 268.072386 
L 164.9471 267.604634 
L 166.609959 267.604634 
L 166.609959 267.136883 
L 168.503585 267.136883 
L 168.503585 266.201379 
L 171.154768 266.201379 
L 171.154768 265.733628 
L 172.007388 265.733628 
L 172.007388 265.265876 
L 173.060174 265.265876 
L 173.060174 264.798124 
L 175.142661 264.798124 
L 175.142661 263.862621 
L 176.10684 263.862621 
L 176.10684 263.394869 
L 176.530511 263.394869 
L 176.550771 261.991614 
L 177.556133 261.991614 
L 177.556133 261.05611 
L 177.917356 261.05611 
L 177.917356 260.588359 
L 179.343247 260.588359 
L 179.343247 260.120607 
L 181.023172 260.120607 
L 181.023172 259.652855 
L 182.755535 259.652855 
L 182.755535 259.185103 
L 183.082701 259.185103 
L 183.082701 258.717352 
L 184.004153 258.717352 
L 184.004153 258.2496 
L 188.054101 258.2496 
L 188.127199 257.314097 
L 188.531376 257.314097 
L 188.531376 256.846345 
L 189.10104 256.846345 
L 189.10104 256.378593 
L 191.84234 256.378593 
L 191.84234 255.44309 
L 192.370781 255.44309 
L 192.370781 254.507586 
L 192.599364 254.507586 
L 192.599364 253.572083 
L 195.064865 253.572083 
L 195.125312 252.636579 
L 195.27309 252.636579 
L 195.27309 252.168828 
L 195.560295 252.168828 
L 195.560295 251.701076 
L 198.057786 251.701076 
L 198.057786 251.233324 
L 198.214202 251.233324 
L 198.297237 249.830069 
L 199.720586 249.830069 
L 199.720586 249.362317 
L 199.871637 249.362317 
L 199.871637 248.894566 
L 200.050536 248.894566 
L 200.050536 248.426814 
L 201.491841 248.426814 
L 201.491841 247.49131 
L 201.730528 247.49131 
L 201.730528 247.023559 
L 204.134848 247.023559 
L 204.134848 246.555807 
L 204.388581 246.555807 
L 204.388581 246.088055 
L 204.688914 246.088055 
L 204.688914 245.620303 
L 205.414322 245.620303 
L 205.414322 245.152552 
L 205.990406 245.152552 
L 205.990406 244.6848 
L 206.172989 244.6848 
L 206.172989 244.217048 
L 207.644388 244.217048 
L 207.644388 243.281545 
L 208.144359 243.281545 
L 208.144359 242.813793 
L 208.453939 242.813793 
L 208.453939 241.87829 
L 208.739005 241.87829 
L 208.739005 241.410538 
L 209.277545 241.410538 
L 209.277545 240.942786 
L 210.024507 240.942786 
L 210.024507 240.475034 
L 210.450166 240.475034 
L 210.450166 239.539531 
L 211.123837 239.539531 
L 211.123837 238.604028 
L 211.628363 238.604028 
L 211.628363 237.668524 
L 212.381766 237.668524 
L 212.381766 236.733021 
L 215.207943 236.733021 
L 215.207943 235.797517 
L 360.8064 235.797517 
L 360.8064 235.797517 
" style="fill: none; stroke: #ff00ff; stroke-width: 1.5; stroke-linecap: square"/>
   </g>
   <g id="line2d_41">
    <defs>
     <path id="ma2523e29c2" d="M -0 8.485281 
L 5.091169 0 
L 0 -8.485281 
L -5.091169 -0 
z
" style="stroke: #ff00ff; stroke-width: 1.5; stroke-linejoin: miter"/>
    </defs>
    <g>
     <use xlink:href="#ma2523e29c2" x="132.638982" y="280.701683" style="fill-opacity: 0; stroke: #ff00ff; stroke-width: 1.5; stroke-linejoin: miter"/>
     <use xlink:href="#ma2523e29c2" x="188.531376" y="257.314097" style="fill-opacity: 0; stroke: #ff00ff; stroke-width: 1.5; stroke-linejoin: miter"/>
     <use xlink:href="#ma2523e29c2" x="215.207943" y="236.733021" style="fill-opacity: 0; stroke: #ff00ff; stroke-width: 1.5; stroke-linejoin: miter"/>
     <use xlink:href="#ma2523e29c2" x="215.207943" y="235.797517" style="fill-opacity: 0; stroke: #ff00ff; stroke-width: 1.5; stroke-linejoin: miter"/>
     <use xlink:href="#ma2523e29c2" x="215.207943" y="235.797517" style="fill-opacity: 0; stroke: #ff00ff; stroke-width: 1.5; stroke-linejoin: miter"/>
     <use xlink:href="#ma2523e29c2" x="360.8064" y="235.797517" style="fill-opacity: 0; stroke: #ff00ff; stroke-width: 1.5; stroke-linejoin: miter"/>
    </g>
   </g>
   <g id="line2d_42">
    <path style="fill: none; stroke: #ff00ff; stroke-width: 1.5; stroke-linecap: square"/>
    <g/>
   </g>
   <g id="line2d_43">
    <path d="M 230.867947 235.797517 
" clip-path="url(#p5055109a42)" style="fill: none; stroke: #ff00ff; stroke-width: 1.5; stroke-linecap: square"/>
    <defs>
     <path id="m2df8c4748c" d="M -12 12 
L 12 -12 
M -12 -12 
L 12 12 
" style="stroke: #ff00ff"/>
    </defs>
    <g clip-path="url(#p5055109a42)">
     <use xlink:href="#m2df8c4748c" x="230.867947" y="235.797517" style="fill: #ff00ff; stroke: #ff00ff"/>
    </g>
   </g>
   <g id="line2d_44">
    <defs>
     <path id="m24bf356795" d="M 0 1.5 
C 0.397805 1.5 0.77937 1.341951 1.06066 1.06066 
C 1.341951 0.77937 1.5 0.397805 1.5 0 
C 1.5 -0.397805 1.341951 -0.77937 1.06066 -1.06066 
C 0.77937 -1.341951 0.397805 -1.5 0 -1.5 
C -0.397805 -1.5 -0.77937 -1.341951 -1.06066 -1.06066 
C -1.341951 -0.77937 -1.5 -0.397805 -1.5 0 
C -1.5 0.397805 -1.341951 0.77937 -1.06066 1.06066 
C -0.77937 1.341951 -0.397805 1.5 0 1.5 
z
" style="stroke: #ff7500"/>
    </defs>
    <g>
     <use xlink:href="#m24bf356795" x="221.580813" y="235.329766" style="fill: #ff7500; stroke: #ff7500"/>
     <use xlink:href="#m24bf356795" x="221.580813" y="235.329766" style="fill: #ff7500; stroke: #ff7500"/>
    </g>
   </g>
   <g id="line2d_45">
    <path d="M 27.323974 298.944 
L 27.323974 294.266483 
L 40.363149 294.266483 
L 40.363149 293.330979 
L 95.752617 293.330979 
L 95.752617 291.459972 
L 108.29012 291.459972 
L 108.29012 290.992221 
L 115.747307 290.992221 
L 115.747307 290.056717 
L 121.073351 290.056717 
L 121.073351 289.121214 
L 131.489828 289.121214 
L 131.489828 288.653462 
L 136.184497 288.653462 
L 136.184497 288.18571 
L 138.154948 288.18571 
L 138.154948 286.782455 
L 139.93843 286.782455 
L 139.93843 286.314703 
L 141.56737 286.314703 
L 141.56737 285.846952 
L 143.066428 285.846952 
L 143.066428 285.3792 
L 146.957431 285.3792 
L 146.957431 284.443697 
L 151.142085 284.443697 
L 151.142085 283.508193 
L 152.057422 283.508193 
L 152.057422 282.104938 
L 152.930279 282.104938 
L 152.930279 281.637186 
L 154.563149 281.637186 
L 154.563149 281.169434 
L 155.329337 281.169434 
L 155.329337 280.233931 
L 158.115593 280.233931 
L 158.115593 279.298428 
L 158.752135 279.298428 
L 158.752135 278.830676 
L 159.367841 278.830676 
L 159.367841 278.362924 
L 159.964032 278.362924 
L 159.964032 277.895172 
L 161.646981 277.895172 
L 161.646981 277.427421 
L 162.17609 277.427421 
L 162.17609 276.491917 
L 163.679588 276.491917 
L 163.679588 276.024166 
L 164.155187 276.024166 
L 164.155187 275.556414 
L 166.780922 275.556414 
L 166.780922 274.62091 
L 169.793854 274.62091 
L 169.793854 273.685407 
L 171.773916 273.685407 
L 171.773916 273.217655 
L 172.690906 273.217655 
L 172.690906 272.749903 
L 175.200767 272.749903 
L 175.200767 272.282152 
L 175.460042 272.282152 
L 175.460042 271.8144 
L 175.968112 271.8144 
L 175.968112 271.346648 
L 176.94485 271.346648 
L 176.94485 270.411145 
L 177.181311 270.411145 
L 177.181311 269.943393 
L 180.996545 269.943393 
L 180.996545 269.475641 
L 183.338515 269.475641 
L 183.338515 269.00789 
L 185.571964 269.00789 
L 185.571964 268.072386 
L 185.870435 268.072386 
L 185.870435 267.136883 
L 186.309445 267.136883 
L 186.309445 266.669131 
L 186.879296 266.669131 
L 186.879296 266.201379 
L 195.057295 266.201379 
L 195.057295 265.733628 
L 196.541656 265.733628 
L 196.541656 265.265876 
L 196.791863 265.265876 
L 196.791863 264.798124 
L 197.201618 264.798124 
L 197.201618 264.330372 
L 198.75682 264.330372 
L 198.75682 263.862621 
L 199.053006 263.862621 
L 199.053006 262.927117 
L 199.272125 262.927117 
L 199.272125 262.459366 
L 200.123936 262.459366 
L 200.123936 261.523862 
L 200.46778 261.523862 
L 200.46778 261.05611 
L 201.463137 261.05611 
L 201.463137 260.120607 
L 203.249867 260.120607 
L 203.249867 259.652855 
L 204.500432 259.652855 
L 204.500432 259.185103 
L 204.93533 259.185103 
L 204.93533 258.717352 
L 205.30779 258.717352 
L 205.30779 257.781848 
L 205.517359 257.781848 
L 205.569389 256.846345 
L 206.081919 256.846345 
L 206.081919 256.378593 
L 206.333041 256.378593 
L 206.333041 255.910841 
L 206.482121 255.910841 
L 206.482121 254.975338 
L 207.162619 254.975338 
L 207.162619 254.039834 
L 207.352609 254.039834 
L 207.352609 253.104331 
L 208.139324 253.104331 
L 208.139324 252.636579 
L 208.364584 252.636579 
L 208.409315 251.233324 
L 208.498457 251.233324 
L 208.498457 250.765572 
L 208.675485 250.765572 
L 208.675485 250.297821 
L 209.367394 250.297821 
L 209.367394 249.830069 
L 209.536467 249.830069 
L 209.536467 249.362317 
L 209.745693 249.362317 
L 209.745693 248.426814 
L 209.952617 248.426814 
L 210.034754 247.023559 
L 210.075688 247.023559 
L 210.075688 246.088055 
L 211.109866 246.088055 
L 211.109866 245.620303 
L 211.378851 245.620303 
L 211.378851 244.217048 
L 211.568655 244.217048 
L 211.568655 243.749297 
L 211.868414 243.749297 
L 211.942614 242.813793 
L 212.20003 242.813793 
L 212.20003 241.87829 
L 212.489971 241.87829 
L 212.489971 240.475034 
L 213.539106 240.475034 
L 213.539106 240.007283 
L 214.272911 240.007283 
L 214.272911 239.071779 
L 215.104771 239.071779 
L 215.104771 237.668524 
L 217.37235 237.668524 
L 217.37235 236.733021 
L 220.271944 236.733021 
L 220.271944 235.797517 
L 221.580813 235.797517 
L 221.580813 235.329766 
L 360.8064 235.329766 
L 360.8064 235.329766 
" style="fill: none; stroke: #ff7500; stroke-width: 1.5; stroke-linecap: square"/>
   </g>
   <g id="line2d_46">
    <defs>
     <path id="mc10db95520" d="M 0 -6 
L -1.347084 -1.854102 
L -5.706339 -1.854102 
L -2.179628 0.708204 
L -3.526712 4.854102 
L -0 2.291796 
L 3.526712 4.854102 
L 2.179628 0.708204 
L 5.706339 -1.854102 
L 1.347084 -1.854102 
z
" style="stroke: #ff7500; stroke-width: 1.5; stroke-linejoin: bevel"/>
    </defs>
    <g>
     <use xlink:href="#mc10db95520" x="162.17609" y="276.491917" style="fill-opacity: 0; stroke: #ff7500; stroke-width: 1.5; stroke-linejoin: bevel"/>
     <use xlink:href="#mc10db95520" x="221.580813" y="235.797517" style="fill-opacity: 0; stroke: #ff7500; stroke-width: 1.5; stroke-linejoin: bevel"/>
     <use xlink:href="#mc10db95520" x="221.580813" y="235.329766" style="fill-opacity: 0; stroke: #ff7500; stroke-width: 1.5; stroke-linejoin: bevel"/>
     <use xlink:href="#mc10db95520" x="221.580813" y="235.329766" style="fill-opacity: 0; stroke: #ff7500; stroke-width: 1.5; stroke-linejoin: bevel"/>
     <use xlink:href="#mc10db95520" x="360.8064" y="235.329766" style="fill-opacity: 0; stroke: #ff7500; stroke-width: 1.5; stroke-linejoin: bevel"/>
    </g>
   </g>
   <g id="line2d_47">
    <path style="fill: none; stroke: #ff7500; stroke-width: 1.5; stroke-linecap: square"/>
    <g/>
   </g>
   <g id="line2d_48">
    <path d="M 230.862681 235.329766 
" clip-path="url(#p5055109a42)" style="fill: none; stroke: #ff7500; stroke-width: 1.5; stroke-linecap: square"/>
    <defs>
     <path id="me34e906c1b" d="M -12 12 
L 12 -12 
M -12 -12 
L 12 12 
" style="stroke: #ff7500"/>
    </defs>
    <g clip-path="url(#p5055109a42)">
     <use xlink:href="#me34e906c1b" x="230.862681" y="235.329766" style="fill: #ff7500; stroke: #ff7500"/>
    </g>
   </g>
   <g id="line2d_49">
    <defs>
     <path id="mbd8e0c49bf" d="M 0 1.5 
C 0.397805 1.5 0.77937 1.341951 1.06066 1.06066 
C 1.341951 0.77937 1.5 0.397805 1.5 0 
C 1.5 -0.397805 1.341951 -0.77937 1.06066 -1.06066 
C 0.77937 -1.341951 0.397805 -1.5 0 -1.5 
C -0.397805 -1.5 -0.77937 -1.341951 -1.06066 -1.06066 
C -1.341951 -0.77937 -1.5 -0.397805 -1.5 0 
C -1.5 0.397805 -1.341951 0.77937 -1.06066 1.06066 
C -0.77937 1.341951 -0.397805 1.5 0 1.5 
z
" style="stroke: #6495ed"/>
    </defs>
    <g>
     <use xlink:href="#mbd8e0c49bf" x="217.323737" y="233.92651" style="fill: #6495ed; stroke: #6495ed"/>
     <use xlink:href="#mbd8e0c49bf" x="217.323737" y="233.92651" style="fill: #6495ed; stroke: #6495ed"/>
    </g>
   </g>
   <g id="line2d_50">
    <path d="M 27.323974 298.944 
L 27.323974 294.266483 
L 76.96874 294.266483 
L 76.96874 293.798731 
L 92.519847 293.798731 
L 92.519847 293.330979 
L 100.9152 293.330979 
L 100.9152 292.863228 
L 103.047088 292.863228 
L 103.047088 290.992221 
L 104.961779 290.992221 
L 104.961779 289.588966 
L 108.29012 289.588966 
L 108.29012 289.121214 
L 109.280431 289.121214 
L 109.280431 288.653462 
L 109.756698 288.653462 
L 109.756698 288.18571 
L 110.221204 288.18571 
L 110.221204 287.250207 
L 110.897141 287.250207 
L 110.897141 286.314703 
L 116.086263 286.314703 
L 116.086263 285.846952 
L 116.253478 285.846952 
L 116.253478 284.911448 
L 118.889854 284.911448 
L 118.889854 284.443697 
L 120.013265 284.443697 
L 120.013265 283.975945 
L 122.439807 283.975945 
L 122.439807 283.508193 
L 126.323346 283.508193 
L 126.323346 283.040441 
L 129.209231 283.040441 
L 129.209231 282.57269 
L 129.375706 282.57269 
L 129.375706 282.104938 
L 131.929028 282.104938 
L 131.929028 281.637186 
L 132.708526 281.637186 
L 132.708526 281.169434 
L 134.368469 281.169434 
L 134.368469 280.701683 
L 135.418977 280.701683 
L 135.418977 280.233931 
L 135.776169 280.233931 
L 135.776169 279.766179 
L 137.412988 279.766179 
L 137.412988 279.298428 
L 140.032723 279.298428 
L 140.032723 278.830676 
L 140.312801 278.830676 
L 140.312801 278.362924 
L 141.696956 278.362924 
L 141.696956 277.895172 
L 142.164612 277.895172 
L 142.164612 277.427421 
L 144.565997 277.427421 
L 144.565997 276.959669 
L 147.785146 276.959669 
L 147.785146 276.491917 
L 148.962194 276.491917 
L 148.962194 276.024166 
L 149.510002 276.024166 
L 149.510002 275.556414 
L 151.011358 275.556414 
L 151.011358 275.088662 
L 151.757231 275.088662 
L 151.757231 274.62091 
L 152.739781 274.62091 
L 152.739781 273.685407 
L 154.168026 273.685407 
L 154.168026 273.217655 
L 154.843441 273.217655 
L 154.843441 272.749903 
L 155.329337 272.749903 
L 155.329337 272.282152 
L 155.741887 272.282152 
L 155.741887 271.8144 
L 156.304668 271.8144 
L 156.304668 271.346648 
L 160.589271 271.346648 
L 160.589271 270.411145 
L 164.298142 270.411145 
L 164.298142 269.943393 
L 165.538087 269.943393 
L 165.538087 269.475641 
L 165.886348 269.475641 
L 165.886348 269.00789 
L 173.19781 269.00789 
L 173.19781 268.540138 
L 173.691413 268.540138 
L 173.691413 268.072386 
L 178.961184 268.072386 
L 178.961184 267.136883 
L 179.888049 267.136883 
L 179.888049 266.669131 
L 182.740969 266.669131 
L 182.740969 266.201379 
L 185.200616 266.201379 
L 185.200616 265.265876 
L 187.999092 265.265876 
L 187.999092 264.798124 
L 191.047325 264.798124 
L 191.047325 264.330372 
L 191.209038 264.330372 
L 191.209038 263.862621 
L 191.344796 263.862621 
L 191.344796 263.394869 
L 192.038916 263.394869 
L 192.038916 262.927117 
L 194.0517 262.927117 
L 194.0517 261.991614 
L 195.599567 261.991614 
L 195.663211 260.588359 
L 195.724204 260.588359 
L 195.724204 260.120607 
L 196.954556 260.120607 
L 196.954556 259.185103 
L 198.443252 259.185103 
L 198.443252 258.717352 
L 198.679957 258.717352 
L 198.679957 258.2496 
L 199.484733 258.2496 
L 199.484733 257.781848 
L 200.19705 257.781848 
L 200.19705 257.314097 
L 200.350053 257.314097 
L 200.350053 256.378593 
L 200.870412 256.378593 
L 200.870412 255.910841 
L 201.371351 255.910841 
L 201.371351 254.975338 
L 201.817059 254.975338 
L 201.817059 254.507586 
L 202.166175 254.507586 
L 202.166175 253.572083 
L 202.860557 253.572083 
L 202.940394 252.636579 
L 203.236801 252.636579 
L 203.236801 252.168828 
L 203.82863 252.168828 
L 203.82863 251.701076 
L 203.945424 251.701076 
L 203.945424 251.233324 
L 204.246665 251.233324 
L 204.246665 250.765572 
L 204.623767 250.765572 
L 204.623767 250.297821 
L 205.277032 250.297821 
L 205.277032 249.830069 
L 205.465185 249.830069 
L 205.465185 249.362317 
L 205.931037 249.362317 
L 205.931037 248.894566 
L 206.495865 248.894566 
L 206.495865 248.426814 
L 207.547198 248.426814 
L 207.547198 247.49131 
L 208.156941 247.49131 
L 208.156941 247.023559 
L 208.339688 247.023559 
L 208.368316 246.088055 
L 209.047428 246.088055 
L 209.047428 245.620303 
L 209.949187 245.620303 
L 209.978895 244.217048 
L 210.342971 244.217048 
L 210.349689 243.281545 
L 210.753897 243.281545 
L 210.753897 242.346041 
L 211.005294 242.346041 
L 211.005294 241.410538 
L 211.148529 241.410538 
L 211.151747 240.007283 
L 212.735125 240.007283 
L 212.735125 239.071779 
L 213.848344 239.071779 
L 213.884557 237.668524 
L 214.021348 237.668524 
L 214.115964 236.265269 
L 215.215723 236.265269 
L 215.215723 235.329766 
L 215.904731 235.329766 
L 215.904731 234.862014 
L 217.323737 234.862014 
L 217.323737 233.92651 
L 360.8064 233.92651 
L 360.8064 233.92651 
" style="fill: none; stroke: #6495ed; stroke-width: 1.5; stroke-linecap: square"/>
   </g>
   <g id="line2d_51">
    <defs>
     <path id="m6d49e18ef7" d="M -0 6 
L 6 -6 
L -6 -6 
z
" style="stroke: #6495ed; stroke-width: 1.5; stroke-linejoin: miter"/>
    </defs>
    <g>
     <use xlink:href="#m6d49e18ef7" x="120.013265" y="284.443697" style="fill-opacity: 0; stroke: #6495ed; stroke-width: 1.5; stroke-linejoin: miter"/>
     <use xlink:href="#m6d49e18ef7" x="182.740969" y="266.669131" style="fill-opacity: 0; stroke: #6495ed; stroke-width: 1.5; stroke-linejoin: miter"/>
     <use xlink:href="#m6d49e18ef7" x="217.323737" y="234.862014" style="fill-opacity: 0; stroke: #6495ed; stroke-width: 1.5; stroke-linejoin: miter"/>
     <use xlink:href="#m6d49e18ef7" x="217.323737" y="233.92651" style="fill-opacity: 0; stroke: #6495ed; stroke-width: 1.5; stroke-linejoin: miter"/>
     <use xlink:href="#m6d49e18ef7" x="217.323737" y="233.92651" style="fill-opacity: 0; stroke: #6495ed; stroke-width: 1.5; stroke-linejoin: miter"/>
     <use xlink:href="#m6d49e18ef7" x="360.8064" y="233.92651" style="fill-opacity: 0; stroke: #6495ed; stroke-width: 1.5; stroke-linejoin: miter"/>
    </g>
   </g>
   <g id="line2d_52">
    <path style="fill: none; stroke: #6495ed; stroke-width: 1.5; stroke-linecap: square"/>
    <g/>
   </g>
   <g id="line2d_53">
    <path d="M 230.859671 233.92651 
" clip-path="url(#p5055109a42)" style="fill: none; stroke: #6495ed; stroke-width: 1.5; stroke-linecap: square"/>
    <defs>
     <path id="m980eaef113" d="M -12 12 
L 12 -12 
M -12 -12 
L 12 12 
" style="stroke: #6495ed"/>
    </defs>
    <g clip-path="url(#p5055109a42)">
     <use xlink:href="#m980eaef113" x="230.859671" y="233.92651" style="fill: #6495ed; stroke: #6495ed"/>
    </g>
   </g>
   <g id="line2d_54">
    <defs>
     <path id="mf9251c9ccb" d="M 0 1.5 
C 0.397805 1.5 0.77937 1.341951 1.06066 1.06066 
C 1.341951 0.77937 1.5 0.397805 1.5 0 
C 1.5 -0.397805 1.341951 -0.77937 1.06066 -1.06066 
C 0.77937 -1.341951 0.397805 -1.5 0 -1.5 
C -0.397805 -1.5 -0.77937 -1.341951 -1.06066 -1.06066 
C -1.341951 -0.77937 -1.5 -0.397805 -1.5 0 
C -1.5 0.397805 -1.341951 0.77937 -1.06066 1.06066 
C -0.77937 1.341951 -0.397805 1.5 0 1.5 
z
" style="stroke: #ff0000"/>
    </defs>
    <g>
     <use xlink:href="#mf9251c9ccb" x="201.648932" y="240.475034" style="fill: #ff0000; stroke: #ff0000"/>
     <use xlink:href="#mf9251c9ccb" x="201.648932" y="240.475034" style="fill: #ff0000; stroke: #ff0000"/>
    </g>
   </g>
   <g id="line2d_55">
    <path d="M 27.323974 298.944 
L 27.323974 294.266483 
L 40.363149 294.266483 
L 40.363149 293.798731 
L 63.929565 293.798731 
L 63.929565 293.330979 
L 70.639174 293.330979 
L 70.639174 292.863228 
L 79.480672 292.863228 
L 79.480672 292.395476 
L 87.876026 292.395476 
L 87.876026 291.459972 
L 88.613828 291.459972 
L 88.613828 290.992221 
L 100.147275 290.992221 
L 100.147275 290.524469 
L 102.708132 290.524469 
L 102.708132 290.056717 
L 106.137884 290.056717 
L 106.137884 289.121214 
L 106.42077 289.121214 
L 106.42077 288.653462 
L 108.29012 288.653462 
L 108.29012 288.18571 
L 110.449226 288.18571 
L 110.449226 287.717959 
L 114.326893 287.717959 
L 114.326893 287.250207 
L 115.747307 287.250207 
L 115.747307 286.314703 
L 117.226706 286.314703 
L 117.226706 284.911448 
L 120.550775 284.911448 
L 120.550775 284.443697 
L 121.073351 284.443697 
L 121.073351 283.975945 
L 121.954321 283.975945 
L 121.954321 283.508193 
L 122.19863 283.508193 
L 122.19863 283.040441 
L 122.439807 283.040441 
L 122.439807 282.57269 
L 123.825333 282.57269 
L 123.825333 282.104938 
L 125.829577 282.104938 
L 125.829577 281.637186 
L 128.700779 281.637186 
L 128.700779 281.169434 
L 129.375706 281.169434 
L 129.375706 280.233931 
L 130.964122 280.233931 
L 131.040128 279.298428 
L 134.558167 279.298428 
L 134.558167 278.830676 
L 135.657857 278.830676 
L 135.657857 278.362924 
L 137.195511 278.362924 
L 137.195511 277.895172 
L 138.154948 277.895172 
L 138.154948 277.427421 
L 138.515235 277.427421 
L 138.515235 276.959669 
L 139.459738 276.959669 
L 139.459738 276.491917 
L 141.173167 276.491917 
L 141.173167 276.024166 
L 141.953481 276.024166 
L 141.953481 275.556414 
L 144.117191 275.556414 
L 144.117191 275.088662 
L 144.895711 275.088662 
L 144.895711 273.685407 
L 145.503164 273.685407 
L 145.503164 272.749903 
L 146.159649 272.749903 
L 146.159649 272.282152 
L 149.281288 272.282152 
L 149.281288 271.8144 
L 149.679732 271.8144 
L 149.679732 271.346648 
L 149.931489 271.346648 
L 149.931489 270.878897 
L 150.533072 270.878897 
L 150.533072 270.411145 
L 153.764426 270.411145 
L 153.764426 269.475641 
L 159.401463 269.475641 
L 159.401463 269.00789 
L 160.399093 269.00789 
L 160.399093 268.540138 
L 160.777545 268.540138 
L 160.777545 268.072386 
L 162.11803 268.072386 
L 162.11803 267.604634 
L 162.449456 267.604634 
L 162.449456 267.136883 
L 162.648372 267.136883 
L 162.648372 266.669131 
L 162.817213 266.669131 
L 162.817213 265.733628 
L 163.164171 265.733628 
L 163.164171 265.265876 
L 164.63178 265.265876 
L 164.63178 264.798124 
L 164.972099 264.798124 
L 164.972099 264.330372 
L 167.48247 264.330372 
L 167.48247 263.862621 
L 172.101681 263.862621 
L 172.161441 262.459366 
L 173.326436 262.459366 
L 173.326436 261.991614 
L 174.324962 261.991614 
L 174.324962 261.523862 
L 174.923154 261.523862 
L 174.923154 260.588359 
L 175.374013 260.588359 
L 175.381197 259.185103 
L 176.127562 259.185103 
L 176.127562 258.717352 
L 177.581709 258.717352 
L 177.581709 258.2496 
L 180.889661 258.2496 
L 180.889661 257.781848 
L 181.532404 257.781848 
L 181.532404 256.846345 
L 181.74869 256.846345 
L 181.850816 255.44309 
L 181.97264 255.44309 
L 181.97264 254.975338 
L 183.08747 254.975338 
L 183.08747 254.507586 
L 183.544415 254.507586 
L 183.544415 254.039834 
L 184.514905 254.039834 
L 184.514905 253.572083 
L 185.272927 253.572083 
L 185.272927 253.104331 
L 185.546876 253.104331 
L 185.546876 252.636579 
L 186.703065 252.636579 
L 186.703065 252.168828 
L 187.962329 252.168828 
L 188.054101 251.233324 
L 188.156358 251.233324 
L 188.156358 250.297821 
L 188.333981 250.297821 
L 188.333981 249.830069 
L 188.772598 249.830069 
L 188.772598 249.362317 
L 189.235643 249.362317 
L 189.235643 248.894566 
L 190.687857 248.894566 
L 190.687857 248.426814 
L 190.821093 248.426814 
L 190.821093 247.49131 
L 191.289377 247.49131 
L 191.369374 245.620303 
L 191.89317 245.620303 
L 191.89317 245.152552 
L 192.553292 245.152552 
L 192.553292 244.6848 
L 192.93005 244.6848 
L 192.93005 244.217048 
L 194.943385 244.217048 
L 194.943385 243.281545 
L 196.564964 243.281545 
L 196.564964 242.813793 
L 197.694991 242.813793 
L 197.694991 241.87829 
L 198.736077 241.87829 
L 198.736077 241.410538 
L 201.648932 241.410538 
L 201.648932 240.475034 
L 360.8064 240.475034 
L 360.8064 240.475034 
" style="fill: none; stroke: #ff0000; stroke-width: 1.5; stroke-linecap: square"/>
   </g>
   <g id="line2d_56">
    <defs>
     <path id="ma8fc03cac9" d="M 0 -6 
L -5.196152 -3 
L -5.196152 3 
L -0 6 
L 5.196152 3 
L 5.196152 -3 
z
" style="stroke: #ff0000; stroke-width: 1.5; stroke-linejoin: miter"/>
    </defs>
    <g>
     <use xlink:href="#ma8fc03cac9" x="102.708132" y="290.056717" style="fill-opacity: 0; stroke: #ff0000; stroke-width: 1.5; stroke-linejoin: miter"/>
     <use xlink:href="#ma8fc03cac9" x="164.972099" y="264.798124" style="fill-opacity: 0; stroke: #ff0000; stroke-width: 1.5; stroke-linejoin: miter"/>
     <use xlink:href="#ma8fc03cac9" x="201.648932" y="241.410538" style="fill-opacity: 0; stroke: #ff0000; stroke-width: 1.5; stroke-linejoin: miter"/>
     <use xlink:href="#ma8fc03cac9" x="201.648932" y="240.475034" style="fill-opacity: 0; stroke: #ff0000; stroke-width: 1.5; stroke-linejoin: miter"/>
     <use xlink:href="#ma8fc03cac9" x="201.648932" y="240.475034" style="fill-opacity: 0; stroke: #ff0000; stroke-width: 1.5; stroke-linejoin: miter"/>
     <use xlink:href="#ma8fc03cac9" x="360.8064" y="240.475034" style="fill-opacity: 0; stroke: #ff0000; stroke-width: 1.5; stroke-linejoin: miter"/>
    </g>
   </g>
   <g id="line2d_57">
    <path style="fill: none; stroke: #ff0000; stroke-width: 1.5; stroke-linecap: square"/>
    <g/>
   </g>
   <g id="line2d_58">
    <path d="M 274.176188 240.475034 
" clip-path="url(#p5055109a42)" style="fill: none; stroke: #ff0000; stroke-width: 1.5; stroke-linecap: square"/>
    <defs>
     <path id="m36f329b6de" d="M -12 12 
L 12 -12 
M -12 -12 
L 12 12 
" style="stroke: #ff0000"/>
    </defs>
    <g clip-path="url(#p5055109a42)">
     <use xlink:href="#m36f329b6de" x="274.176188" y="240.475034" style="fill: #ff0000; stroke: #ff0000"/>
    </g>
   </g>
   <g id="line2d_59">
    <path d="M 360.8064 240.475034 
L 380.514816 293.51808 
" style="fill: none; stroke: #ff0000; stroke-width: 1.5; stroke-linecap: square"/>
    <g>
     <use xlink:href="#ma8fc03cac9" x="360.8064" y="240.475034" style="fill-opacity: 0; stroke: #ff0000; stroke-width: 1.5; stroke-linejoin: miter"/>
     <use xlink:href="#ma8fc03cac9" x="380.514816" y="293.51808" style="fill-opacity: 0; stroke: #ff0000; stroke-width: 1.5; stroke-linejoin: miter"/>
    </g>
   </g>
   <g id="line2d_60">
    <path d="M 360.8064 235.797517 
L 380.514816 241.429248 
" style="fill: none; stroke: #ff00ff; stroke-width: 1.5; stroke-linecap: square"/>
    <g>
     <use xlink:href="#ma2523e29c2" x="360.8064" y="235.797517" style="fill-opacity: 0; stroke: #ff00ff; stroke-width: 1.5; stroke-linejoin: miter"/>
     <use xlink:href="#ma2523e29c2" x="380.514816" y="241.429248" style="fill-opacity: 0; stroke: #ff00ff; stroke-width: 1.5; stroke-linejoin: miter"/>
    </g>
   </g>
   <g id="line2d_61">
    <path d="M 360.8064 235.329766 
L 380.514816 189.340416 
" style="fill: none; stroke: #ff7500; stroke-width: 1.5; stroke-linecap: square"/>
    <g>
     <use xlink:href="#mc10db95520" x="360.8064" y="235.329766" style="fill-opacity: 0; stroke: #ff7500; stroke-width: 1.5; stroke-linejoin: bevel"/>
     <use xlink:href="#mc10db95520" x="380.514816" y="189.340416" style="fill-opacity: 0; stroke: #ff7500; stroke-width: 1.5; stroke-linejoin: bevel"/>
    </g>
   </g>
   <g id="line2d_62">
    <path d="M 360.8064 233.92651 
L 380.514816 137.251584 
" style="fill: none; stroke: #000080; stroke-width: 1.5; stroke-linecap: square"/>
    <g>
     <use xlink:href="#m07a39e9ceb" x="360.8064" y="233.92651" style="fill-opacity: 0; stroke: #000080; stroke-width: 1.5"/>
     <use xlink:href="#m07a39e9ceb" x="380.514816" y="137.251584" style="fill-opacity: 0; stroke: #000080; stroke-width: 1.5"/>
    </g>
   </g>
   <g id="line2d_63">
    <path d="M 360.8064 233.92651 
L 380.514816 85.162752 
" style="fill: none; stroke: #6495ed; stroke-width: 1.5; stroke-linecap: square"/>
    <g>
     <use xlink:href="#m6d49e18ef7" x="360.8064" y="233.92651" style="fill-opacity: 0; stroke: #6495ed; stroke-width: 1.5; stroke-linejoin: miter"/>
     <use xlink:href="#m6d49e18ef7" x="380.514816" y="85.162752" style="fill-opacity: 0; stroke: #6495ed; stroke-width: 1.5; stroke-linejoin: miter"/>
    </g>
   </g>
   <g id="line2d_64">
    <path d="M 360.8064 298.944 
L 360.8064 27.648 
" style="fill: none; stroke: #000000; stroke-width: 1.5; stroke-linecap: square"/>
   </g>
   <g id="patch_3">
    <path d="M 57.6 298.944 
L 360.8064 298.944 
" style="fill: none; stroke: #000000; stroke-width: 0.8; stroke-linejoin: miter; stroke-linecap: square"/>
   </g>
   <g id="patch_4">
    <path d="M 57.6 27.648 
L 360.8064 27.648 
" style="fill: none; stroke: #000000; stroke-width: 0.8; stroke-linejoin: miter; stroke-linecap: square"/>
   </g>
   <g id="text_13">
    <!-- COMO-10 d -->
    <g transform="translate(386.578944 297.381205) scale(0.14 -0.14)">
     <defs>
      <path id="DejaVuSans-43" d="M 4122 4306 
L 4122 3641 
Q 3803 3938 3442 4084 
Q 3081 4231 2675 4231 
Q 1875 4231 1450 3742 
Q 1025 3253 1025 2328 
Q 1025 1406 1450 917 
Q 1875 428 2675 428 
Q 3081 428 3442 575 
Q 3803 722 4122 1019 
L 4122 359 
Q 3791 134 3420 21 
Q 3050 -91 2638 -91 
Q 1578 -91 968 557 
Q 359 1206 359 2328 
Q 359 3453 968 4101 
Q 1578 4750 2638 4750 
Q 3056 4750 3426 4639 
Q 3797 4528 4122 4306 
z
" transform="scale(0.015625)"/>
      <path id="DejaVuSans-4f" d="M 2522 4238 
Q 1834 4238 1429 3725 
Q 1025 3213 1025 2328 
Q 1025 1447 1429 934 
Q 1834 422 2522 422 
Q 3209 422 3611 934 
Q 4013 1447 4013 2328 
Q 4013 3213 3611 3725 
Q 3209 4238 2522 4238 
z
M 2522 4750 
Q 3503 4750 4090 4092 
Q 4678 3434 4678 2328 
Q 4678 1225 4090 567 
Q 3503 -91 2522 -91 
Q 1538 -91 948 565 
Q 359 1222 359 2328 
Q 359 3434 948 4092 
Q 1538 4750 2522 4750 
z
" transform="scale(0.015625)"/>
      <path id="DejaVuSans-4d" d="M 628 4666 
L 1569 4666 
L 2759 1491 
L 3956 4666 
L 4897 4666 
L 4897 0 
L 4281 0 
L 4281 4097 
L 3078 897 
L 2444 897 
L 1241 4097 
L 1241 0 
L 628 0 
L 628 4666 
z
" transform="scale(0.015625)"/>
     </defs>
     <use xlink:href="#DejaVuSans-43"/>
     <use xlink:href="#DejaVuSans-4f" x="69.824219"/>
     <use xlink:href="#DejaVuSans-4d" x="148.535156"/>
     <use xlink:href="#DejaVuSans-4f" x="234.814453"/>
     <use xlink:href="#DejaVuSans-2d" x="316.275391"/>
     <use xlink:href="#DejaVuSans-31" x="352.359375"/>
     <use xlink:href="#DejaVuSans-30" x="415.982422"/>
     <use xlink:href="#DejaVuSans-20" x="479.605469"/>
     <use xlink:href="#DejaVuSans-64" x="511.392578"/>
    </g>
   </g>
   <g id="text_14">
    <!-- AllLQ -->
    <g transform="translate(386.578944 245.292373) scale(0.14 -0.14)">
     <defs>
      <path id="DejaVuSans-41" d="M 2188 4044 
L 1331 1722 
L 3047 1722 
L 2188 4044 
z
M 1831 4666 
L 2547 4666 
L 4325 0 
L 3669 0 
L 3244 1197 
L 1141 1197 
L 716 0 
L 50 0 
L 1831 4666 
z
" transform="scale(0.015625)"/>
      <path id="DejaVuSans-4c" d="M 628 4666 
L 1259 4666 
L 1259 531 
L 3531 531 
L 3531 0 
L 628 0 
L 628 4666 
z
" transform="scale(0.015625)"/>
      <path id="DejaVuSans-51" d="M 2522 4238 
Q 1834 4238 1429 3725 
Q 1025 3213 1025 2328 
Q 1025 1447 1429 934 
Q 1834 422 2522 422 
Q 3209 422 3611 934 
Q 4013 1447 4013 2328 
Q 4013 3213 3611 3725 
Q 3209 4238 2522 4238 
z
M 3406 84 
L 4238 -825 
L 3475 -825 
L 2784 -78 
Q 2681 -84 2626 -87 
Q 2572 -91 2522 -91 
Q 1538 -91 948 567 
Q 359 1225 359 2328 
Q 359 3434 948 4092 
Q 1538 4750 2522 4750 
Q 3503 4750 4090 4092 
Q 4678 3434 4678 2328 
Q 4678 1516 4351 937 
Q 4025 359 3406 84 
z
" transform="scale(0.015625)"/>
     </defs>
     <use xlink:href="#DejaVuSans-41"/>
     <use xlink:href="#DejaVuSans-6c" x="68.408203"/>
     <use xlink:href="#DejaVuSans-6c" x="96.191406"/>
     <use xlink:href="#DejaVuSans-4c" x="123.974609"/>
     <use xlink:href="#DejaVuSans-51" x="179.6875"/>
    </g>
   </g>
   <g id="text_15">
    <!-- kerComo -->
    <g transform="translate(386.578944 193.203541) scale(0.14 -0.14)">
     <defs>
      <path id="DejaVuSans-6b" d="M 581 4863 
L 1159 4863 
L 1159 1991 
L 2875 3500 
L 3609 3500 
L 1753 1863 
L 3688 0 
L 2938 0 
L 1159 1709 
L 1159 0 
L 581 0 
L 581 4863 
z
" transform="scale(0.015625)"/>
     </defs>
     <use xlink:href="#DejaVuSans-6b"/>
     <use xlink:href="#DejaVuSans-65" x="54.285156"/>
     <use xlink:href="#DejaVuSans-72" x="115.808594"/>
     <use xlink:href="#DejaVuSans-43" x="156.921875"/>
     <use xlink:href="#DejaVuSans-6f" x="226.746094"/>
     <use xlink:href="#DejaVuSans-6d" x="287.927734"/>
     <use xlink:href="#DejaVuSans-6f" x="385.339844"/>
    </g>
   </g>
   <g id="text_16">
    <!-- AllComo -->
    <g transform="translate(386.578944 141.114709) scale(0.14 -0.14)">
     <use xlink:href="#DejaVuSans-41"/>
     <use xlink:href="#DejaVuSans-6c" x="68.408203"/>
     <use xlink:href="#DejaVuSans-6c" x="96.191406"/>
     <use xlink:href="#DejaVuSans-43" x="123.974609"/>
     <use xlink:href="#DejaVuSans-6f" x="193.798828"/>
     <use xlink:href="#DejaVuSans-6d" x="254.980469"/>
     <use xlink:href="#DejaVuSans-6f" x="352.392578"/>
    </g>
   </g>
   <g id="text_17">
    <!-- kerLQ -->
    <g transform="translate(386.578944 89.025877) scale(0.14 -0.14)">
     <use xlink:href="#DejaVuSans-6b"/>
     <use xlink:href="#DejaVuSans-65" x="54.285156"/>
     <use xlink:href="#DejaVuSans-72" x="115.808594"/>
     <use xlink:href="#DejaVuSans-4c" x="156.921875"/>
     <use xlink:href="#DejaVuSans-51" x="212.634766"/>
    </g>
   </g>
   <g id="text_18">
    <!-- best 2016 -->
    <g transform="translate(386.578944 36.937045) scale(0.14 -0.14)">
     <defs>
      <path id="DejaVuSans-62" d="M 3116 1747 
Q 3116 2381 2855 2742 
Q 2594 3103 2138 3103 
Q 1681 3103 1420 2742 
Q 1159 2381 1159 1747 
Q 1159 1113 1420 752 
Q 1681 391 2138 391 
Q 2594 391 2855 752 
Q 3116 1113 3116 1747 
z
M 1159 2969 
Q 1341 3281 1617 3432 
Q 1894 3584 2278 3584 
Q 2916 3584 3314 3078 
Q 3713 2572 3713 1747 
Q 3713 922 3314 415 
Q 2916 -91 2278 -91 
Q 1894 -91 1617 61 
Q 1341 213 1159 525 
L 1159 0 
L 581 0 
L 581 4863 
L 1159 4863 
L 1159 2969 
z
" transform="scale(0.015625)"/>
     </defs>
     <use xlink:href="#DejaVuSans-62"/>
     <use xlink:href="#DejaVuSans-65" x="63.476562"/>
     <use xlink:href="#DejaVuSans-73" x="125"/>
     <use xlink:href="#DejaVuSans-74" x="177.099609"/>
     <use xlink:href="#DejaVuSans-20" x="216.308594"/>
     <use xlink:href="#DejaVuSans-32" x="248.095703"/>
     <use xlink:href="#DejaVuSans-30" x="311.71875"/>
     <use xlink:href="#DejaVuSans-31" x="375.341797"/>
     <use xlink:href="#DejaVuSans-36" x="438.964844"/>
    </g>
   </g>
   <g id="text_19">
    <!-- bbob-biobj f46, 5-D -->
    <g transform="translate(60.632064 38.111366) scale(0.102 -0.102)">
     <defs>
      <path id="DejaVuSans-6a" d="M 603 3500 
L 1178 3500 
L 1178 -63 
Q 1178 -731 923 -1031 
Q 669 -1331 103 -1331 
L -116 -1331 
L -116 -844 
L 38 -844 
Q 366 -844 484 -692 
Q 603 -541 603 -63 
L 603 3500 
z
M 603 4863 
L 1178 4863 
L 1178 4134 
L 603 4134 
L 603 4863 
z
" transform="scale(0.015625)"/>
      <path id="DejaVuSans-35" d="M 691 4666 
L 3169 4666 
L 3169 4134 
L 1269 4134 
L 1269 2991 
Q 1406 3038 1543 3061 
Q 1681 3084 1819 3084 
Q 2600 3084 3056 2656 
Q 3513 2228 3513 1497 
Q 3513 744 3044 326 
Q 2575 -91 1722 -91 
Q 1428 -91 1123 -41 
Q 819 9 494 109 
L 494 744 
Q 775 591 1075 516 
Q 1375 441 1709 441 
Q 2250 441 2565 725 
Q 2881 1009 2881 1497 
Q 2881 1984 2565 2268 
Q 2250 2553 1709 2553 
Q 1456 2553 1204 2497 
Q 953 2441 691 2322 
L 691 4666 
z
" transform="scale(0.015625)"/>
      <path id="DejaVuSans-44" d="M 1259 4147 
L 1259 519 
L 2022 519 
Q 2988 519 3436 956 
Q 3884 1394 3884 2338 
Q 3884 3275 3436 3711 
Q 2988 4147 2022 4147 
L 1259 4147 
z
M 628 4666 
L 1925 4666 
Q 3281 4666 3915 4102 
Q 4550 3538 4550 2338 
Q 4550 1131 3912 565 
Q 3275 0 1925 0 
L 628 0 
L 628 4666 
z
" transform="scale(0.015625)"/>
     </defs>
     <use xlink:href="#DejaVuSans-62"/>
     <use xlink:href="#DejaVuSans-62" x="63.476562"/>
     <use xlink:href="#DejaVuSans-6f" x="126.953125"/>
     <use xlink:href="#DejaVuSans-62" x="188.134766"/>
     <use xlink:href="#DejaVuSans-2d" x="251.611328"/>
     <use xlink:href="#DejaVuSans-62" x="287.695312"/>
     <use xlink:href="#DejaVuSans-69" x="351.171875"/>
     <use xlink:href="#DejaVuSans-6f" x="378.955078"/>
     <use xlink:href="#DejaVuSans-62" x="440.136719"/>
     <use xlink:href="#DejaVuSans-6a" x="503.613281"/>
     <use xlink:href="#DejaVuSans-20" x="531.396484"/>
     <use xlink:href="#DejaVuSans-66" x="563.183594"/>
     <use xlink:href="#DejaVuSans-34" x="598.388672"/>
     <use xlink:href="#DejaVuSans-36" x="662.011719"/>
     <use xlink:href="#DejaVuSans-2c" x="725.634766"/>
     <use xlink:href="#DejaVuSans-20" x="757.421875"/>
     <use xlink:href="#DejaVuSans-35" x="789.208984"/>
     <use xlink:href="#DejaVuSans-2d" x="852.832031"/>
     <use xlink:href="#DejaVuSans-44" x="888.916016"/>
    </g>
    <!-- 58 targets: 1..-1.0e-4 -->
    <g transform="translate(60.632064 49.533135) scale(0.102 -0.102)">
     <defs>
      <path id="DejaVuSans-3a" d="M 750 794 
L 1409 794 
L 1409 0 
L 750 0 
L 750 794 
z
M 750 3309 
L 1409 3309 
L 1409 2516 
L 750 2516 
L 750 3309 
z
" transform="scale(0.015625)"/>
     </defs>
     <use xlink:href="#DejaVuSans-35"/>
     <use xlink:href="#DejaVuSans-38" x="63.623047"/>
     <use xlink:href="#DejaVuSans-20" x="127.246094"/>
     <use xlink:href="#DejaVuSans-74" x="159.033203"/>
     <use xlink:href="#DejaVuSans-61" x="198.242188"/>
     <use xlink:href="#DejaVuSans-72" x="259.521484"/>
     <use xlink:href="#DejaVuSans-67" x="298.884766"/>
     <use xlink:href="#DejaVuSans-65" x="362.361328"/>
     <use xlink:href="#DejaVuSans-74" x="423.884766"/>
     <use xlink:href="#DejaVuSans-73" x="463.09375"/>
     <use xlink:href="#DejaVuSans-3a" x="515.193359"/>
     <use xlink:href="#DejaVuSans-20" x="548.884766"/>
     <use xlink:href="#DejaVuSans-31" x="580.671875"/>
     <use xlink:href="#DejaVuSans-2e" x="644.294922"/>
     <use xlink:href="#DejaVuSans-2e" x="676.082031"/>
     <use xlink:href="#DejaVuSans-2d" x="707.869141"/>
     <use xlink:href="#DejaVuSans-31" x="743.953125"/>
     <use xlink:href="#DejaVuSans-2e" x="807.576172"/>
     <use xlink:href="#DejaVuSans-30" x="839.363281"/>
     <use xlink:href="#DejaVuSans-65" x="902.986328"/>
     <use xlink:href="#DejaVuSans-2d" x="964.509766"/>
     <use xlink:href="#DejaVuSans-34" x="1000.59375"/>
    </g>
    <!-- 10 instances -->
    <g transform="translate(60.632064 60.954904) scale(0.102 -0.102)">
     <use xlink:href="#DejaVuSans-31"/>
     <use xlink:href="#DejaVuSans-30" x="63.623047"/>
     <use xlink:href="#DejaVuSans-20" x="127.246094"/>
     <use xlink:href="#DejaVuSans-69" x="159.033203"/>
     <use xlink:href="#DejaVuSans-6e" x="186.816406"/>
     <use xlink:href="#DejaVuSans-73" x="250.195312"/>
     <use xlink:href="#DejaVuSans-74" x="302.294922"/>
     <use xlink:href="#DejaVuSans-61" x="341.503906"/>
     <use xlink:href="#DejaVuSans-6e" x="402.783203"/>
     <use xlink:href="#DejaVuSans-63" x="466.162109"/>
     <use xlink:href="#DejaVuSans-65" x="521.142578"/>
     <use xlink:href="#DejaVuSans-73" x="582.666016"/>
    </g>
   </g>
   <g id="text_20">
    <!-- v2.6, hv-hash=d240b271ab0b4926 -->
    <g style="fill: #808080" transform="translate(120.362575 294.151352) scale(0.1 -0.1)">
     <defs>
      <path id="DejaVuSans-68" d="M 3513 2113 
L 3513 0 
L 2938 0 
L 2938 2094 
Q 2938 2591 2744 2837 
Q 2550 3084 2163 3084 
Q 1697 3084 1428 2787 
Q 1159 2491 1159 1978 
L 1159 0 
L 581 0 
L 581 4863 
L 1159 4863 
L 1159 2956 
Q 1366 3272 1645 3428 
Q 1925 3584 2291 3584 
Q 2894 3584 3203 3211 
Q 3513 2838 3513 2113 
z
" transform="scale(0.015625)"/>
      <path id="DejaVuSans-3d" d="M 678 2906 
L 4684 2906 
L 4684 2381 
L 678 2381 
L 678 2906 
z
M 678 1631 
L 4684 1631 
L 4684 1100 
L 678 1100 
L 678 1631 
z
" transform="scale(0.015625)"/>
      <path id="DejaVuSans-37" d="M 525 4666 
L 3525 4666 
L 3525 4397 
L 1831 0 
L 1172 0 
L 2766 4134 
L 525 4134 
L 525 4666 
z
" transform="scale(0.015625)"/>
      <path id="DejaVuSans-39" d="M 703 97 
L 703 672 
Q 941 559 1184 500 
Q 1428 441 1663 441 
Q 2288 441 2617 861 
Q 2947 1281 2994 2138 
Q 2813 1869 2534 1725 
Q 2256 1581 1919 1581 
Q 1219 1581 811 2004 
Q 403 2428 403 3163 
Q 403 3881 828 4315 
Q 1253 4750 1959 4750 
Q 2769 4750 3195 4129 
Q 3622 3509 3622 2328 
Q 3622 1225 3098 567 
Q 2575 -91 1691 -91 
Q 1453 -91 1209 -44 
Q 966 3 703 97 
z
M 1959 2075 
Q 2384 2075 2632 2365 
Q 2881 2656 2881 3163 
Q 2881 3666 2632 3958 
Q 2384 4250 1959 4250 
Q 1534 4250 1286 3958 
Q 1038 3666 1038 3163 
Q 1038 2656 1286 2365 
Q 1534 2075 1959 2075 
z
" transform="scale(0.015625)"/>
     </defs>
     <use xlink:href="#DejaVuSans-76"/>
     <use xlink:href="#DejaVuSans-32" x="59.179688"/>
     <use xlink:href="#DejaVuSans-2e" x="122.802734"/>
     <use xlink:href="#DejaVuSans-36" x="154.589844"/>
     <use xlink:href="#DejaVuSans-2c" x="218.212891"/>
     <use xlink:href="#DejaVuSans-20" x="250"/>
     <use xlink:href="#DejaVuSans-68" x="281.787109"/>
     <use xlink:href="#DejaVuSans-76" x="345.166016"/>
     <use xlink:href="#DejaVuSans-2d" x="401.720703"/>
     <use xlink:href="#DejaVuSans-68" x="437.804688"/>
     <use xlink:href="#DejaVuSans-61" x="501.183594"/>
     <use xlink:href="#DejaVuSans-73" x="562.462891"/>
     <use xlink:href="#DejaVuSans-68" x="614.5625"/>
     <use xlink:href="#DejaVuSans-3d" x="677.941406"/>
     <use xlink:href="#DejaVuSans-64" x="761.730469"/>
     <use xlink:href="#DejaVuSans-32" x="825.207031"/>
     <use xlink:href="#DejaVuSans-34" x="888.830078"/>
     <use xlink:href="#DejaVuSans-30" x="952.453125"/>
     <use xlink:href="#DejaVuSans-62" x="1016.076172"/>
     <use xlink:href="#DejaVuSans-32" x="1079.552734"/>
     <use xlink:href="#DejaVuSans-37" x="1143.175781"/>
     <use xlink:href="#DejaVuSans-31" x="1206.798828"/>
     <use xlink:href="#DejaVuSans-61" x="1270.421875"/>
     <use xlink:href="#DejaVuSans-62" x="1331.701172"/>
     <use xlink:href="#DejaVuSans-30" x="1395.177734"/>
     <use xlink:href="#DejaVuSans-62" x="1458.800781"/>
     <use xlink:href="#DejaVuSans-34" x="1522.277344"/>
     <use xlink:href="#DejaVuSans-39" x="1585.900391"/>
     <use xlink:href="#DejaVuSans-32" x="1649.523438"/>
     <use xlink:href="#DejaVuSans-36" x="1713.146484"/>
    </g>
   </g>
   <g id="text_21">
    <!-- 46 Rastrigin/Rastrigin -->
    <g transform="translate(101.262575 21.648) scale(0.2 -0.2)">
     <defs>
      <path id="DejaVuSans-52" d="M 2841 2188 
Q 3044 2119 3236 1894 
Q 3428 1669 3622 1275 
L 4263 0 
L 3584 0 
L 2988 1197 
Q 2756 1666 2539 1819 
Q 2322 1972 1947 1972 
L 1259 1972 
L 1259 0 
L 628 0 
L 628 4666 
L 2053 4666 
Q 2853 4666 3247 4331 
Q 3641 3997 3641 3322 
Q 3641 2881 3436 2590 
Q 3231 2300 2841 2188 
z
M 1259 4147 
L 1259 2491 
L 2053 2491 
Q 2509 2491 2742 2702 
Q 2975 2913 2975 3322 
Q 2975 3731 2742 3939 
Q 2509 4147 2053 4147 
L 1259 4147 
z
" transform="scale(0.015625)"/>
     </defs>
     <use xlink:href="#DejaVuSans-34"/>
     <use xlink:href="#DejaVuSans-36" x="63.623047"/>
     <use xlink:href="#DejaVuSans-20" x="127.246094"/>
     <use xlink:href="#DejaVuSans-52" x="159.033203"/>
     <use xlink:href="#DejaVuSans-61" x="226.265625"/>
     <use xlink:href="#DejaVuSans-73" x="287.544922"/>
     <use xlink:href="#DejaVuSans-74" x="339.644531"/>
     <use xlink:href="#DejaVuSans-72" x="378.853516"/>
     <use xlink:href="#DejaVuSans-69" x="419.966797"/>
     <use xlink:href="#DejaVuSans-67" x="447.75"/>
     <use xlink:href="#DejaVuSans-69" x="511.226562"/>
     <use xlink:href="#DejaVuSans-6e" x="539.009766"/>
     <use xlink:href="#DejaVuSans-2f" x="602.388672"/>
     <use xlink:href="#DejaVuSans-52" x="636.080078"/>
     <use xlink:href="#DejaVuSans-61" x="703.3125"/>
     <use xlink:href="#DejaVuSans-73" x="764.591797"/>
     <use xlink:href="#DejaVuSans-74" x="816.691406"/>
     <use xlink:href="#DejaVuSans-72" x="855.900391"/>
     <use xlink:href="#DejaVuSans-69" x="897.013672"/>
     <use xlink:href="#DejaVuSans-67" x="924.796875"/>
     <use xlink:href="#DejaVuSans-69" x="988.273438"/>
     <use xlink:href="#DejaVuSans-6e" x="1016.056641"/>
    </g>
   </g>
  </g>
 </g>
 <defs>
  <clipPath id="p5055109a42">
   <rect x="57.6" y="27.648" width="303.2064" height="271.296"/>
  </clipPath>
 </defs>
</svg>
