<?xml version="1.0" encoding="utf-8" standalone="no"?>
<!DOCTYPE svg PUBLIC "-//W3C//DTD SVG 1.1//EN"
  "http://www.w3.org/Graphics/SVG/1.1/DTD/svg11.dtd">
<svg xmlns:xlink="http://www.w3.org/1999/xlink" width="460.8pt" height="345.6pt" viewBox="0 0 460.8 345.6" xmlns="http://www.w3.org/2000/svg" version="1.1">
 <metadata>
  <rdf:RDF xmlns:dc="http://purl.org/dc/elements/1.1/" xmlns:cc="http://creativecommons.org/ns#" xmlns:rdf="http://www.w3.org/1999/02/22-rdf-syntax-ns#">
   <cc:Work>
    <dc:type rdf:resource="http://purl.org/dc/dcmitype/StillImage"/>
    <dc:date>2023-02-10T02:08:20.609507</dc:date>
    <dc:format>image/svg+xml</dc:format>
    <dc:creator>
     <cc:Agent>
      <dc:title>Matplotlib v3.6.3, https://matplotlib.org/</dc:title>
     </cc:Agent>
    </dc:creator>
   </cc:Work>
  </rdf:RDF>
 </metadata>
 <defs>
  <style type="text/css">*{stroke-linejoin: round; stroke-linecap: butt}</style>
 </defs>
 <g id="figure_1">
  <g id="patch_1">
   <path d="M 0 345.6 
L 460.8 345.6 
L 460.8 0 
L 0 0 
z
" style="fill: #ffffff"/>
  </g>
  <g id="axes_1">
   <g id="patch_2">
    <path d="M 57.6 298.944 
L 360.8064 298.944 
L 360.8064 27.648 
L 57.6 27.648 
z
" style="fill: #ffffff"/>
   </g>
   <g id="line2d_1">
    <path d="M 40.363149 298.944 
L 40.363149 294.266483 
L 63.929565 294.266483 
L 63.929565 284.911448 
L 84.596168 284.911448 
L 84.596168 275.556414 
L 95.250946 275.556414 
L 95.250946 270.878897 
L 114.326893 270.878897 
L 114.326893 256.846345 
L 127.366067 256.846345 
L 127.366067 247.49131 
L 136.696795 247.49131 
L 136.696795 242.813793 
L 146.193574 242.813793 
L 146.193574 233.458759 
L 169.284344 233.458759 
L 169.284344 219.426207 
L 172.896949 219.426207 
L 172.896949 210.071172 
L 186.139934 210.071172 
L 186.139934 200.716138 
L 188.506367 200.716138 
L 188.506367 191.361103 
L 195.609373 191.361103 
L 195.609373 186.683586 
L 206.714416 186.683586 
L 206.714416 172.651034 
L 220.122727 172.651034 
L 220.122727 167.973517 
L 227.236057 167.973517 
L 227.236057 153.940966 
L 236.216121 153.940966 
L 236.216121 144.585931 
L 237.652774 144.585931 
L 237.652774 139.908414 
L 239.820439 139.908414 
L 239.820439 125.875862 
L 242.935464 125.875862 
L 242.935464 121.198345 
L 246.894895 121.198345 
L 246.894895 107.165793 
L 252.113135 107.165793 
L 252.113135 97.810759 
L 257.812843 97.810759 
L 257.812843 88.455724 
L 262.7093 88.455724 
L 262.7093 83.778207 
L 268.279186 83.778207 
L 268.279186 74.423172 
L 274.995599 74.423172 
L 274.995599 60.390621 
L 360.8064 60.390621 
" style="fill: none; stroke: #f5deb3; stroke-width: 4; stroke-linecap: square"/>
   </g>
   <g id="line2d_2">
    <defs>
     <path id="m9b815b14a2" d="M -0 7.778175 
L 7.778175 0 
L 0 -7.778175 
L -7.778175 -0 
z
" style="stroke: #f5deb3; stroke-width: 1.5; stroke-linejoin: miter"/>
    </defs>
    <g>
     <use xlink:href="#m9b815b14a2" x="84.596168" y="275.556414" style="fill: #f5deb3; stroke: #f5deb3; stroke-width: 1.5; stroke-linejoin: miter"/>
     <use xlink:href="#m9b815b14a2" x="172.896949" y="210.071172" style="fill: #f5deb3; stroke: #f5deb3; stroke-width: 1.5; stroke-linejoin: miter"/>
     <use xlink:href="#m9b815b14a2" x="237.652774" y="144.585931" style="fill: #f5deb3; stroke: #f5deb3; stroke-width: 1.5; stroke-linejoin: miter"/>
     <use xlink:href="#m9b815b14a2" x="274.995599" y="74.423172" style="fill: #f5deb3; stroke: #f5deb3; stroke-width: 1.5; stroke-linejoin: miter"/>
     <use xlink:href="#m9b815b14a2" x="274.995599" y="60.390621" style="fill: #f5deb3; stroke: #f5deb3; stroke-width: 1.5; stroke-linejoin: miter"/>
     <use xlink:href="#m9b815b14a2" x="360.8064" y="60.390621" style="fill: #f5deb3; stroke: #f5deb3; stroke-width: 1.5; stroke-linejoin: miter"/>
    </g>
   </g>
   <g id="line2d_3">
    <path style="fill: none; stroke: #f5deb3; stroke-width: 4; stroke-linecap: square"/>
    <g/>
   </g>
   <g id="line2d_4">
    <path d="M 360.8064 60.390621 
L 380.514816 33.07392 
" style="fill: none; stroke: #f5deb3; stroke-width: 4; stroke-linecap: square"/>
    <g>
     <use xlink:href="#m9b815b14a2" x="360.8064" y="60.390621" style="fill: #f5deb3; stroke: #f5deb3; stroke-width: 1.5; stroke-linejoin: miter"/>
     <use xlink:href="#m9b815b14a2" x="380.514816" y="33.07392" style="fill: #f5deb3; stroke: #f5deb3; stroke-width: 1.5; stroke-linejoin: miter"/>
    </g>
   </g>
   <g id="matplotlib.axis_1">
    <g id="xtick_1">
     <g id="line2d_5">
      <path d="M 57.6 298.944 
L 57.6 27.648 
" clip-path="url(#p3a04c41cef)" style="fill: none; stroke: #b0b0b0; stroke-width: 0.8; stroke-linecap: square"/>
     </g>
     <g id="line2d_6">
      <defs>
       <path id="mbe5b3d2931" d="M 0 0 
L 0 3.5 
" style="stroke: #000000; stroke-width: 0.8"/>
      </defs>
      <g>
       <use xlink:href="#mbe5b3d2931" x="57.6" y="298.944" style="stroke: #000000; stroke-width: 0.8"/>
      </g>
     </g>
     <g id="text_1">
      <!-- 0 -->
      <g transform="translate(52.191875 318.861344) scale(0.17 -0.17)">
       <defs>
        <path id="DejaVuSans-30" d="M 2034 4250 
Q 1547 4250 1301 3770 
Q 1056 3291 1056 2328 
Q 1056 1369 1301 889 
Q 1547 409 2034 409 
Q 2525 409 2770 889 
Q 3016 1369 3016 2328 
Q 3016 3291 2770 3770 
Q 2525 4250 2034 4250 
z
M 2034 4750 
Q 2819 4750 3233 4129 
Q 3647 3509 3647 2328 
Q 3647 1150 3233 529 
Q 2819 -91 2034 -91 
Q 1250 -91 836 529 
Q 422 1150 422 2328 
Q 422 3509 836 4129 
Q 1250 4750 2034 4750 
z
" transform="scale(0.015625)"/>
       </defs>
       <use xlink:href="#DejaVuSans-30"/>
      </g>
     </g>
    </g>
    <g id="xtick_2">
     <g id="line2d_7">
      <path d="M 144.2304 298.944 
L 144.2304 27.648 
" clip-path="url(#p3a04c41cef)" style="fill: none; stroke: #b0b0b0; stroke-width: 0.8; stroke-linecap: square"/>
     </g>
     <g id="line2d_8">
      <g>
       <use xlink:href="#mbe5b3d2931" x="144.2304" y="298.944" style="stroke: #000000; stroke-width: 0.8"/>
      </g>
     </g>
     <g id="text_2">
      <!-- 2 -->
      <g transform="translate(138.822275 318.861344) scale(0.17 -0.17)">
       <defs>
        <path id="DejaVuSans-32" d="M 1228 531 
L 3431 531 
L 3431 0 
L 469 0 
L 469 531 
Q 828 903 1448 1529 
Q 2069 2156 2228 2338 
Q 2531 2678 2651 2914 
Q 2772 3150 2772 3378 
Q 2772 3750 2511 3984 
Q 2250 4219 1831 4219 
Q 1534 4219 1204 4116 
Q 875 4013 500 3803 
L 500 4441 
Q 881 4594 1212 4672 
Q 1544 4750 1819 4750 
Q 2544 4750 2975 4387 
Q 3406 4025 3406 3419 
Q 3406 3131 3298 2873 
Q 3191 2616 2906 2266 
Q 2828 2175 2409 1742 
Q 1991 1309 1228 531 
z
" transform="scale(0.015625)"/>
       </defs>
       <use xlink:href="#DejaVuSans-32"/>
      </g>
     </g>
    </g>
    <g id="xtick_3">
     <g id="line2d_9">
      <path d="M 230.8608 298.944 
L 230.8608 27.648 
" clip-path="url(#p3a04c41cef)" style="fill: none; stroke: #b0b0b0; stroke-width: 0.8; stroke-linecap: square"/>
     </g>
     <g id="line2d_10">
      <g>
       <use xlink:href="#mbe5b3d2931" x="230.8608" y="298.944" style="stroke: #000000; stroke-width: 0.8"/>
      </g>
     </g>
     <g id="text_3">
      <!-- 4 -->
      <g transform="translate(225.452675 318.861344) scale(0.17 -0.17)">
       <defs>
        <path id="DejaVuSans-34" d="M 2419 4116 
L 825 1625 
L 2419 1625 
L 2419 4116 
z
M 2253 4666 
L 3047 4666 
L 3047 1625 
L 3713 1625 
L 3713 1100 
L 3047 1100 
L 3047 0 
L 2419 0 
L 2419 1100 
L 313 1100 
L 313 1709 
L 2253 4666 
z
" transform="scale(0.015625)"/>
       </defs>
       <use xlink:href="#DejaVuSans-34"/>
      </g>
     </g>
    </g>
    <g id="xtick_4">
     <g id="line2d_11">
      <path d="M 317.4912 298.944 
L 317.4912 27.648 
" clip-path="url(#p3a04c41cef)" style="fill: none; stroke: #b0b0b0; stroke-width: 0.8; stroke-linecap: square"/>
     </g>
     <g id="line2d_12">
      <g>
       <use xlink:href="#mbe5b3d2931" x="317.4912" y="298.944" style="stroke: #000000; stroke-width: 0.8"/>
      </g>
     </g>
     <g id="text_4">
      <!-- 6 -->
      <g transform="translate(312.083075 318.861344) scale(0.17 -0.17)">
       <defs>
        <path id="DejaVuSans-36" d="M 2113 2584 
Q 1688 2584 1439 2293 
Q 1191 2003 1191 1497 
Q 1191 994 1439 701 
Q 1688 409 2113 409 
Q 2538 409 2786 701 
Q 3034 994 3034 1497 
Q 3034 2003 2786 2293 
Q 2538 2584 2113 2584 
z
M 3366 4563 
L 3366 3988 
Q 3128 4100 2886 4159 
Q 2644 4219 2406 4219 
Q 1781 4219 1451 3797 
Q 1122 3375 1075 2522 
Q 1259 2794 1537 2939 
Q 1816 3084 2150 3084 
Q 2853 3084 3261 2657 
Q 3669 2231 3669 1497 
Q 3669 778 3244 343 
Q 2819 -91 2113 -91 
Q 1303 -91 875 529 
Q 447 1150 447 2328 
Q 447 3434 972 4092 
Q 1497 4750 2381 4750 
Q 2619 4750 2861 4703 
Q 3103 4656 3366 4563 
z
" transform="scale(0.015625)"/>
       </defs>
       <use xlink:href="#DejaVuSans-36"/>
      </g>
     </g>
    </g>
    <g id="xtick_5">
     <g id="line2d_13">
      <path d="M 100.9152 298.944 
L 100.9152 27.648 
" clip-path="url(#p3a04c41cef)" style="fill: none; stroke: #b0b0b0; stroke-width: 0.8; stroke-linecap: square"/>
     </g>
     <g id="line2d_14">
      <defs>
       <path id="ma8524bd9d4" d="M 0 0 
L 0 2 
" style="stroke: #000000; stroke-width: 0.6"/>
      </defs>
      <g>
       <use xlink:href="#ma8524bd9d4" x="100.9152" y="298.944" style="stroke: #000000; stroke-width: 0.6"/>
      </g>
     </g>
    </g>
    <g id="xtick_6">
     <g id="line2d_15">
      <path d="M 187.5456 298.944 
L 187.5456 27.648 
" clip-path="url(#p3a04c41cef)" style="fill: none; stroke: #b0b0b0; stroke-width: 0.8; stroke-linecap: square"/>
     </g>
     <g id="line2d_16">
      <g>
       <use xlink:href="#ma8524bd9d4" x="187.5456" y="298.944" style="stroke: #000000; stroke-width: 0.6"/>
      </g>
     </g>
    </g>
    <g id="xtick_7">
     <g id="line2d_17">
      <path d="M 274.176 298.944 
L 274.176 27.648 
" clip-path="url(#p3a04c41cef)" style="fill: none; stroke: #b0b0b0; stroke-width: 0.8; stroke-linecap: square"/>
     </g>
     <g id="line2d_18">
      <g>
       <use xlink:href="#ma8524bd9d4" x="274.176" y="298.944" style="stroke: #000000; stroke-width: 0.6"/>
      </g>
     </g>
    </g>
    <g id="xtick_8">
     <g id="line2d_19">
      <path d="M 360.8064 298.944 
L 360.8064 27.648 
" clip-path="url(#p3a04c41cef)" style="fill: none; stroke: #b0b0b0; stroke-width: 0.8; stroke-linecap: square"/>
     </g>
     <g id="line2d_20">
      <g>
       <use xlink:href="#ma8524bd9d4" x="360.8064" y="298.944" style="stroke: #000000; stroke-width: 0.6"/>
      </g>
     </g>
    </g>
    <g id="text_5">
     <!-- log10(# f-evals / dimension) -->
     <g transform="translate(88.823278 339.314156) scale(0.17 -0.17)">
      <defs>
       <path id="DejaVuSans-6c" d="M 603 4863 
L 1178 4863 
L 1178 0 
L 603 0 
L 603 4863 
z
" transform="scale(0.015625)"/>
       <path id="DejaVuSans-6f" d="M 1959 3097 
Q 1497 3097 1228 2736 
Q 959 2375 959 1747 
Q 959 1119 1226 758 
Q 1494 397 1959 397 
Q 2419 397 2687 759 
Q 2956 1122 2956 1747 
Q 2956 2369 2687 2733 
Q 2419 3097 1959 3097 
z
M 1959 3584 
Q 2709 3584 3137 3096 
Q 3566 2609 3566 1747 
Q 3566 888 3137 398 
Q 2709 -91 1959 -91 
Q 1206 -91 779 398 
Q 353 888 353 1747 
Q 353 2609 779 3096 
Q 1206 3584 1959 3584 
z
" transform="scale(0.015625)"/>
       <path id="DejaVuSans-67" d="M 2906 1791 
Q 2906 2416 2648 2759 
Q 2391 3103 1925 3103 
Q 1463 3103 1205 2759 
Q 947 2416 947 1791 
Q 947 1169 1205 825 
Q 1463 481 1925 481 
Q 2391 481 2648 825 
Q 2906 1169 2906 1791 
z
M 3481 434 
Q 3481 -459 3084 -895 
Q 2688 -1331 1869 -1331 
Q 1566 -1331 1297 -1286 
Q 1028 -1241 775 -1147 
L 775 -588 
Q 1028 -725 1275 -790 
Q 1522 -856 1778 -856 
Q 2344 -856 2625 -561 
Q 2906 -266 2906 331 
L 2906 616 
Q 2728 306 2450 153 
Q 2172 0 1784 0 
Q 1141 0 747 490 
Q 353 981 353 1791 
Q 353 2603 747 3093 
Q 1141 3584 1784 3584 
Q 2172 3584 2450 3431 
Q 2728 3278 2906 2969 
L 2906 3500 
L 3481 3500 
L 3481 434 
z
" transform="scale(0.015625)"/>
       <path id="DejaVuSans-31" d="M 794 531 
L 1825 531 
L 1825 4091 
L 703 3866 
L 703 4441 
L 1819 4666 
L 2450 4666 
L 2450 531 
L 3481 531 
L 3481 0 
L 794 0 
L 794 531 
z
" transform="scale(0.015625)"/>
       <path id="DejaVuSans-28" d="M 1984 4856 
Q 1566 4138 1362 3434 
Q 1159 2731 1159 2009 
Q 1159 1288 1364 580 
Q 1569 -128 1984 -844 
L 1484 -844 
Q 1016 -109 783 600 
Q 550 1309 550 2009 
Q 550 2706 781 3412 
Q 1013 4119 1484 4856 
L 1984 4856 
z
" transform="scale(0.015625)"/>
       <path id="DejaVuSans-23" d="M 3272 2816 
L 2363 2816 
L 2100 1772 
L 3016 1772 
L 3272 2816 
z
M 2803 4594 
L 2478 3297 
L 3391 3297 
L 3719 4594 
L 4219 4594 
L 3897 3297 
L 4872 3297 
L 4872 2816 
L 3775 2816 
L 3519 1772 
L 4513 1772 
L 4513 1294 
L 3397 1294 
L 3072 0 
L 2572 0 
L 2894 1294 
L 1978 1294 
L 1656 0 
L 1153 0 
L 1478 1294 
L 494 1294 
L 494 1772 
L 1594 1772 
L 1856 2816 
L 850 2816 
L 850 3297 
L 1978 3297 
L 2297 4594 
L 2803 4594 
z
" transform="scale(0.015625)"/>
       <path id="DejaVuSans-20" transform="scale(0.015625)"/>
       <path id="DejaVuSans-66" d="M 2375 4863 
L 2375 4384 
L 1825 4384 
Q 1516 4384 1395 4259 
Q 1275 4134 1275 3809 
L 1275 3500 
L 2222 3500 
L 2222 3053 
L 1275 3053 
L 1275 0 
L 697 0 
L 697 3053 
L 147 3053 
L 147 3500 
L 697 3500 
L 697 3744 
Q 697 4328 969 4595 
Q 1241 4863 1831 4863 
L 2375 4863 
z
" transform="scale(0.015625)"/>
       <path id="DejaVuSans-2d" d="M 313 2009 
L 1997 2009 
L 1997 1497 
L 313 1497 
L 313 2009 
z
" transform="scale(0.015625)"/>
       <path id="DejaVuSans-65" d="M 3597 1894 
L 3597 1613 
L 953 1613 
Q 991 1019 1311 708 
Q 1631 397 2203 397 
Q 2534 397 2845 478 
Q 3156 559 3463 722 
L 3463 178 
Q 3153 47 2828 -22 
Q 2503 -91 2169 -91 
Q 1331 -91 842 396 
Q 353 884 353 1716 
Q 353 2575 817 3079 
Q 1281 3584 2069 3584 
Q 2775 3584 3186 3129 
Q 3597 2675 3597 1894 
z
M 3022 2063 
Q 3016 2534 2758 2815 
Q 2500 3097 2075 3097 
Q 1594 3097 1305 2825 
Q 1016 2553 972 2059 
L 3022 2063 
z
" transform="scale(0.015625)"/>
       <path id="DejaVuSans-76" d="M 191 3500 
L 800 3500 
L 1894 563 
L 2988 3500 
L 3597 3500 
L 2284 0 
L 1503 0 
L 191 3500 
z
" transform="scale(0.015625)"/>
       <path id="DejaVuSans-61" d="M 2194 1759 
Q 1497 1759 1228 1600 
Q 959 1441 959 1056 
Q 959 750 1161 570 
Q 1363 391 1709 391 
Q 2188 391 2477 730 
Q 2766 1069 2766 1631 
L 2766 1759 
L 2194 1759 
z
M 3341 1997 
L 3341 0 
L 2766 0 
L 2766 531 
Q 2569 213 2275 61 
Q 1981 -91 1556 -91 
Q 1019 -91 701 211 
Q 384 513 384 1019 
Q 384 1609 779 1909 
Q 1175 2209 1959 2209 
L 2766 2209 
L 2766 2266 
Q 2766 2663 2505 2880 
Q 2244 3097 1772 3097 
Q 1472 3097 1187 3025 
Q 903 2953 641 2809 
L 641 3341 
Q 956 3463 1253 3523 
Q 1550 3584 1831 3584 
Q 2591 3584 2966 3190 
Q 3341 2797 3341 1997 
z
" transform="scale(0.015625)"/>
       <path id="DejaVuSans-73" d="M 2834 3397 
L 2834 2853 
Q 2591 2978 2328 3040 
Q 2066 3103 1784 3103 
Q 1356 3103 1142 2972 
Q 928 2841 928 2578 
Q 928 2378 1081 2264 
Q 1234 2150 1697 2047 
L 1894 2003 
Q 2506 1872 2764 1633 
Q 3022 1394 3022 966 
Q 3022 478 2636 193 
Q 2250 -91 1575 -91 
Q 1294 -91 989 -36 
Q 684 19 347 128 
L 347 722 
Q 666 556 975 473 
Q 1284 391 1588 391 
Q 1994 391 2212 530 
Q 2431 669 2431 922 
Q 2431 1156 2273 1281 
Q 2116 1406 1581 1522 
L 1381 1569 
Q 847 1681 609 1914 
Q 372 2147 372 2553 
Q 372 3047 722 3315 
Q 1072 3584 1716 3584 
Q 2034 3584 2315 3537 
Q 2597 3491 2834 3397 
z
" transform="scale(0.015625)"/>
       <path id="DejaVuSans-2f" d="M 1625 4666 
L 2156 4666 
L 531 -594 
L 0 -594 
L 1625 4666 
z
" transform="scale(0.015625)"/>
       <path id="DejaVuSans-64" d="M 2906 2969 
L 2906 4863 
L 3481 4863 
L 3481 0 
L 2906 0 
L 2906 525 
Q 2725 213 2448 61 
Q 2172 -91 1784 -91 
Q 1150 -91 751 415 
Q 353 922 353 1747 
Q 353 2572 751 3078 
Q 1150 3584 1784 3584 
Q 2172 3584 2448 3432 
Q 2725 3281 2906 2969 
z
M 947 1747 
Q 947 1113 1208 752 
Q 1469 391 1925 391 
Q 2381 391 2643 752 
Q 2906 1113 2906 1747 
Q 2906 2381 2643 2742 
Q 2381 3103 1925 3103 
Q 1469 3103 1208 2742 
Q 947 2381 947 1747 
z
" transform="scale(0.015625)"/>
       <path id="DejaVuSans-69" d="M 603 3500 
L 1178 3500 
L 1178 0 
L 603 0 
L 603 3500 
z
M 603 4863 
L 1178 4863 
L 1178 4134 
L 603 4134 
L 603 4863 
z
" transform="scale(0.015625)"/>
       <path id="DejaVuSans-6d" d="M 3328 2828 
Q 3544 3216 3844 3400 
Q 4144 3584 4550 3584 
Q 5097 3584 5394 3201 
Q 5691 2819 5691 2113 
L 5691 0 
L 5113 0 
L 5113 2094 
Q 5113 2597 4934 2840 
Q 4756 3084 4391 3084 
Q 3944 3084 3684 2787 
Q 3425 2491 3425 1978 
L 3425 0 
L 2847 0 
L 2847 2094 
Q 2847 2600 2669 2842 
Q 2491 3084 2119 3084 
Q 1678 3084 1418 2786 
Q 1159 2488 1159 1978 
L 1159 0 
L 581 0 
L 581 3500 
L 1159 3500 
L 1159 2956 
Q 1356 3278 1631 3431 
Q 1906 3584 2284 3584 
Q 2666 3584 2933 3390 
Q 3200 3197 3328 2828 
z
" transform="scale(0.015625)"/>
       <path id="DejaVuSans-6e" d="M 3513 2113 
L 3513 0 
L 2938 0 
L 2938 2094 
Q 2938 2591 2744 2837 
Q 2550 3084 2163 3084 
Q 1697 3084 1428 2787 
Q 1159 2491 1159 1978 
L 1159 0 
L 581 0 
L 581 3500 
L 1159 3500 
L 1159 2956 
Q 1366 3272 1645 3428 
Q 1925 3584 2291 3584 
Q 2894 3584 3203 3211 
Q 3513 2838 3513 2113 
z
" transform="scale(0.015625)"/>
       <path id="DejaVuSans-29" d="M 513 4856 
L 1013 4856 
Q 1481 4119 1714 3412 
Q 1947 2706 1947 2009 
Q 1947 1309 1714 600 
Q 1481 -109 1013 -844 
L 513 -844 
Q 928 -128 1133 580 
Q 1338 1288 1338 2009 
Q 1338 2731 1133 3434 
Q 928 4138 513 4856 
z
" transform="scale(0.015625)"/>
      </defs>
      <use xlink:href="#DejaVuSans-6c"/>
      <use xlink:href="#DejaVuSans-6f" x="27.783203"/>
      <use xlink:href="#DejaVuSans-67" x="88.964844"/>
      <use xlink:href="#DejaVuSans-31" x="152.441406"/>
      <use xlink:href="#DejaVuSans-30" x="216.064453"/>
      <use xlink:href="#DejaVuSans-28" x="279.6875"/>
      <use xlink:href="#DejaVuSans-23" x="318.701172"/>
      <use xlink:href="#DejaVuSans-20" x="402.490234"/>
      <use xlink:href="#DejaVuSans-66" x="434.277344"/>
      <use xlink:href="#DejaVuSans-2d" x="463.982422"/>
      <use xlink:href="#DejaVuSans-65" x="500.066406"/>
      <use xlink:href="#DejaVuSans-76" x="561.589844"/>
      <use xlink:href="#DejaVuSans-61" x="620.769531"/>
      <use xlink:href="#DejaVuSans-6c" x="682.048828"/>
      <use xlink:href="#DejaVuSans-73" x="709.832031"/>
      <use xlink:href="#DejaVuSans-20" x="761.931641"/>
      <use xlink:href="#DejaVuSans-2f" x="793.71875"/>
      <use xlink:href="#DejaVuSans-20" x="827.410156"/>
      <use xlink:href="#DejaVuSans-64" x="859.197266"/>
      <use xlink:href="#DejaVuSans-69" x="922.673828"/>
      <use xlink:href="#DejaVuSans-6d" x="950.457031"/>
      <use xlink:href="#DejaVuSans-65" x="1047.869141"/>
      <use xlink:href="#DejaVuSans-6e" x="1109.392578"/>
      <use xlink:href="#DejaVuSans-73" x="1172.771484"/>
      <use xlink:href="#DejaVuSans-69" x="1224.871094"/>
      <use xlink:href="#DejaVuSans-6f" x="1252.654297"/>
      <use xlink:href="#DejaVuSans-6e" x="1313.835938"/>
      <use xlink:href="#DejaVuSans-29" x="1377.214844"/>
     </g>
    </g>
   </g>
   <g id="matplotlib.axis_2">
    <g id="ytick_1">
     <g id="line2d_21">
      <path d="M 57.6 298.944 
L 360.8064 298.944 
" clip-path="url(#p3a04c41cef)" style="fill: none; stroke: #b0b0b0; stroke-width: 0.8; stroke-linecap: square"/>
     </g>
     <g id="line2d_22">
      <defs>
       <path id="m7d67debbcd" d="M 0 0 
L -3.5 0 
" style="stroke: #000000; stroke-width: 0.8"/>
      </defs>
      <g>
       <use xlink:href="#m7d67debbcd" x="57.6" y="298.944" style="stroke: #000000; stroke-width: 0.8"/>
      </g>
     </g>
     <g id="text_6">
      <!-- 0.0 -->
      <g transform="translate(25.155 305.02275) scale(0.16 -0.16)">
       <defs>
        <path id="DejaVuSans-2e" d="M 684 794 
L 1344 794 
L 1344 0 
L 684 0 
L 684 794 
z
" transform="scale(0.015625)"/>
       </defs>
       <use xlink:href="#DejaVuSans-30"/>
       <use xlink:href="#DejaVuSans-2e" x="63.623047"/>
       <use xlink:href="#DejaVuSans-30" x="95.410156"/>
      </g>
     </g>
    </g>
    <g id="ytick_2">
     <g id="line2d_23">
      <path d="M 57.6 244.6848 
L 360.8064 244.6848 
" clip-path="url(#p3a04c41cef)" style="fill: none; stroke: #b0b0b0; stroke-width: 0.8; stroke-linecap: square"/>
     </g>
     <g id="line2d_24">
      <g>
       <use xlink:href="#m7d67debbcd" x="57.6" y="244.6848" style="stroke: #000000; stroke-width: 0.8"/>
      </g>
     </g>
     <g id="text_7">
      <!-- 0.2 -->
      <g transform="translate(25.155 250.76355) scale(0.16 -0.16)">
       <use xlink:href="#DejaVuSans-30"/>
       <use xlink:href="#DejaVuSans-2e" x="63.623047"/>
       <use xlink:href="#DejaVuSans-32" x="95.410156"/>
      </g>
     </g>
    </g>
    <g id="ytick_3">
     <g id="line2d_25">
      <path d="M 57.6 190.4256 
L 360.8064 190.4256 
" clip-path="url(#p3a04c41cef)" style="fill: none; stroke: #b0b0b0; stroke-width: 0.8; stroke-linecap: square"/>
     </g>
     <g id="line2d_26">
      <g>
       <use xlink:href="#m7d67debbcd" x="57.6" y="190.4256" style="stroke: #000000; stroke-width: 0.8"/>
      </g>
     </g>
     <g id="text_8">
      <!-- 0.4 -->
      <g transform="translate(25.155 196.50435) scale(0.16 -0.16)">
       <use xlink:href="#DejaVuSans-30"/>
       <use xlink:href="#DejaVuSans-2e" x="63.623047"/>
       <use xlink:href="#DejaVuSans-34" x="95.410156"/>
      </g>
     </g>
    </g>
    <g id="ytick_4">
     <g id="line2d_27">
      <path d="M 57.6 136.1664 
L 360.8064 136.1664 
" clip-path="url(#p3a04c41cef)" style="fill: none; stroke: #b0b0b0; stroke-width: 0.8; stroke-linecap: square"/>
     </g>
     <g id="line2d_28">
      <g>
       <use xlink:href="#m7d67debbcd" x="57.6" y="136.1664" style="stroke: #000000; stroke-width: 0.8"/>
      </g>
     </g>
     <g id="text_9">
      <!-- 0.6 -->
      <g transform="translate(25.155 142.24515) scale(0.16 -0.16)">
       <use xlink:href="#DejaVuSans-30"/>
       <use xlink:href="#DejaVuSans-2e" x="63.623047"/>
       <use xlink:href="#DejaVuSans-36" x="95.410156"/>
      </g>
     </g>
    </g>
    <g id="ytick_5">
     <g id="line2d_29">
      <path d="M 57.6 81.9072 
L 360.8064 81.9072 
" clip-path="url(#p3a04c41cef)" style="fill: none; stroke: #b0b0b0; stroke-width: 0.8; stroke-linecap: square"/>
     </g>
     <g id="line2d_30">
      <g>
       <use xlink:href="#m7d67debbcd" x="57.6" y="81.9072" style="stroke: #000000; stroke-width: 0.8"/>
      </g>
     </g>
     <g id="text_10">
      <!-- 0.8 -->
      <g transform="translate(25.155 87.98595) scale(0.16 -0.16)">
       <defs>
        <path id="DejaVuSans-38" d="M 2034 2216 
Q 1584 2216 1326 1975 
Q 1069 1734 1069 1313 
Q 1069 891 1326 650 
Q 1584 409 2034 409 
Q 2484 409 2743 651 
Q 3003 894 3003 1313 
Q 3003 1734 2745 1975 
Q 2488 2216 2034 2216 
z
M 1403 2484 
Q 997 2584 770 2862 
Q 544 3141 544 3541 
Q 544 4100 942 4425 
Q 1341 4750 2034 4750 
Q 2731 4750 3128 4425 
Q 3525 4100 3525 3541 
Q 3525 3141 3298 2862 
Q 3072 2584 2669 2484 
Q 3125 2378 3379 2068 
Q 3634 1759 3634 1313 
Q 3634 634 3220 271 
Q 2806 -91 2034 -91 
Q 1263 -91 848 271 
Q 434 634 434 1313 
Q 434 1759 690 2068 
Q 947 2378 1403 2484 
z
M 1172 3481 
Q 1172 3119 1398 2916 
Q 1625 2713 2034 2713 
Q 2441 2713 2670 2916 
Q 2900 3119 2900 3481 
Q 2900 3844 2670 4047 
Q 2441 4250 2034 4250 
Q 1625 4250 1398 4047 
Q 1172 3844 1172 3481 
z
" transform="scale(0.015625)"/>
       </defs>
       <use xlink:href="#DejaVuSans-30"/>
       <use xlink:href="#DejaVuSans-2e" x="63.623047"/>
       <use xlink:href="#DejaVuSans-38" x="95.410156"/>
      </g>
     </g>
    </g>
    <g id="ytick_6">
     <g id="line2d_31">
      <path d="M 57.6 27.648 
L 360.8064 27.648 
" clip-path="url(#p3a04c41cef)" style="fill: none; stroke: #b0b0b0; stroke-width: 0.8; stroke-linecap: square"/>
     </g>
     <g id="line2d_32">
      <g>
       <use xlink:href="#m7d67debbcd" x="57.6" y="27.648" style="stroke: #000000; stroke-width: 0.8"/>
      </g>
     </g>
     <g id="text_11">
      <!-- 1.0 -->
      <g transform="translate(25.155 33.72675) scale(0.16 -0.16)">
       <use xlink:href="#DejaVuSans-31"/>
       <use xlink:href="#DejaVuSans-2e" x="63.623047"/>
       <use xlink:href="#DejaVuSans-30" x="95.410156"/>
      </g>
     </g>
    </g>
    <g id="text_12">
     <!-- Fraction of function,target pairs -->
     <g transform="translate(17.619531 297.681) rotate(-90) scale(0.17 -0.17)">
      <defs>
       <path id="DejaVuSans-46" d="M 628 4666 
L 3309 4666 
L 3309 4134 
L 1259 4134 
L 1259 2759 
L 3109 2759 
L 3109 2228 
L 1259 2228 
L 1259 0 
L 628 0 
L 628 4666 
z
" transform="scale(0.015625)"/>
       <path id="DejaVuSans-72" d="M 2631 2963 
Q 2534 3019 2420 3045 
Q 2306 3072 2169 3072 
Q 1681 3072 1420 2755 
Q 1159 2438 1159 1844 
L 1159 0 
L 581 0 
L 581 3500 
L 1159 3500 
L 1159 2956 
Q 1341 3275 1631 3429 
Q 1922 3584 2338 3584 
Q 2397 3584 2469 3576 
Q 2541 3569 2628 3553 
L 2631 2963 
z
" transform="scale(0.015625)"/>
       <path id="DejaVuSans-63" d="M 3122 3366 
L 3122 2828 
Q 2878 2963 2633 3030 
Q 2388 3097 2138 3097 
Q 1578 3097 1268 2742 
Q 959 2388 959 1747 
Q 959 1106 1268 751 
Q 1578 397 2138 397 
Q 2388 397 2633 464 
Q 2878 531 3122 666 
L 3122 134 
Q 2881 22 2623 -34 
Q 2366 -91 2075 -91 
Q 1284 -91 818 406 
Q 353 903 353 1747 
Q 353 2603 823 3093 
Q 1294 3584 2113 3584 
Q 2378 3584 2631 3529 
Q 2884 3475 3122 3366 
z
" transform="scale(0.015625)"/>
       <path id="DejaVuSans-74" d="M 1172 4494 
L 1172 3500 
L 2356 3500 
L 2356 3053 
L 1172 3053 
L 1172 1153 
Q 1172 725 1289 603 
Q 1406 481 1766 481 
L 2356 481 
L 2356 0 
L 1766 0 
Q 1100 0 847 248 
Q 594 497 594 1153 
L 594 3053 
L 172 3053 
L 172 3500 
L 594 3500 
L 594 4494 
L 1172 4494 
z
" transform="scale(0.015625)"/>
       <path id="DejaVuSans-75" d="M 544 1381 
L 544 3500 
L 1119 3500 
L 1119 1403 
Q 1119 906 1312 657 
Q 1506 409 1894 409 
Q 2359 409 2629 706 
Q 2900 1003 2900 1516 
L 2900 3500 
L 3475 3500 
L 3475 0 
L 2900 0 
L 2900 538 
Q 2691 219 2414 64 
Q 2138 -91 1772 -91 
Q 1169 -91 856 284 
Q 544 659 544 1381 
z
M 1991 3584 
L 1991 3584 
z
" transform="scale(0.015625)"/>
       <path id="DejaVuSans-2c" d="M 750 794 
L 1409 794 
L 1409 256 
L 897 -744 
L 494 -744 
L 750 256 
L 750 794 
z
" transform="scale(0.015625)"/>
       <path id="DejaVuSans-70" d="M 1159 525 
L 1159 -1331 
L 581 -1331 
L 581 3500 
L 1159 3500 
L 1159 2969 
Q 1341 3281 1617 3432 
Q 1894 3584 2278 3584 
Q 2916 3584 3314 3078 
Q 3713 2572 3713 1747 
Q 3713 922 3314 415 
Q 2916 -91 2278 -91 
Q 1894 -91 1617 61 
Q 1341 213 1159 525 
z
M 3116 1747 
Q 3116 2381 2855 2742 
Q 2594 3103 2138 3103 
Q 1681 3103 1420 2742 
Q 1159 2381 1159 1747 
Q 1159 1113 1420 752 
Q 1681 391 2138 391 
Q 2594 391 2855 752 
Q 3116 1113 3116 1747 
z
" transform="scale(0.015625)"/>
      </defs>
      <use xlink:href="#DejaVuSans-46"/>
      <use xlink:href="#DejaVuSans-72" x="50.269531"/>
      <use xlink:href="#DejaVuSans-61" x="91.382812"/>
      <use xlink:href="#DejaVuSans-63" x="152.662109"/>
      <use xlink:href="#DejaVuSans-74" x="207.642578"/>
      <use xlink:href="#DejaVuSans-69" x="246.851562"/>
      <use xlink:href="#DejaVuSans-6f" x="274.634766"/>
      <use xlink:href="#DejaVuSans-6e" x="335.816406"/>
      <use xlink:href="#DejaVuSans-20" x="399.195312"/>
      <use xlink:href="#DejaVuSans-6f" x="430.982422"/>
      <use xlink:href="#DejaVuSans-66" x="492.164062"/>
      <use xlink:href="#DejaVuSans-20" x="527.369141"/>
      <use xlink:href="#DejaVuSans-66" x="559.15625"/>
      <use xlink:href="#DejaVuSans-75" x="594.361328"/>
      <use xlink:href="#DejaVuSans-6e" x="657.740234"/>
      <use xlink:href="#DejaVuSans-63" x="721.119141"/>
      <use xlink:href="#DejaVuSans-74" x="776.099609"/>
      <use xlink:href="#DejaVuSans-69" x="815.308594"/>
      <use xlink:href="#DejaVuSans-6f" x="843.091797"/>
      <use xlink:href="#DejaVuSans-6e" x="904.273438"/>
      <use xlink:href="#DejaVuSans-2c" x="967.652344"/>
      <use xlink:href="#DejaVuSans-74" x="999.439453"/>
      <use xlink:href="#DejaVuSans-61" x="1038.648438"/>
      <use xlink:href="#DejaVuSans-72" x="1099.927734"/>
      <use xlink:href="#DejaVuSans-67" x="1139.291016"/>
      <use xlink:href="#DejaVuSans-65" x="1202.767578"/>
      <use xlink:href="#DejaVuSans-74" x="1264.291016"/>
      <use xlink:href="#DejaVuSans-20" x="1303.5"/>
      <use xlink:href="#DejaVuSans-70" x="1335.287109"/>
      <use xlink:href="#DejaVuSans-61" x="1398.763672"/>
      <use xlink:href="#DejaVuSans-69" x="1460.042969"/>
      <use xlink:href="#DejaVuSans-72" x="1487.826172"/>
      <use xlink:href="#DejaVuSans-73" x="1528.939453"/>
     </g>
    </g>
   </g>
   <g id="line2d_33">
    <defs>
     <path id="m2c6da5d72b" d="M 0 1.5 
C 0.397805 1.5 0.77937 1.341951 1.06066 1.06066 
C 1.341951 0.77937 1.5 0.397805 1.5 0 
C 1.5 -0.397805 1.341951 -0.77937 1.06066 -1.06066 
C 0.77937 -1.341951 0.397805 -1.5 0 -1.5 
C -0.397805 -1.5 -0.77937 -1.341951 -1.06066 -1.06066 
C -1.341951 -0.77937 -1.5 -0.397805 -1.5 0 
C -1.5 0.397805 -1.341951 0.77937 -1.06066 1.06066 
C -0.77937 1.341951 -0.397805 1.5 0 1.5 
z
" style="stroke: #f5deb3"/>
    </defs>
    <g>
     <use xlink:href="#m2c6da5d72b" x="274.995599" y="60.390621" style="fill: #f5deb3; stroke: #f5deb3"/>
     <use xlink:href="#m2c6da5d72b" x="274.995599" y="60.390621" style="fill: #f5deb3; stroke: #f5deb3"/>
    </g>
   </g>
   <g id="line2d_34">
    <defs>
     <path id="mf944e6e7f1" d="M 0 1.5 
C 0.397805 1.5 0.77937 1.341951 1.06066 1.06066 
C 1.341951 0.77937 1.5 0.397805 1.5 0 
C 1.5 -0.397805 1.341951 -0.77937 1.06066 -1.06066 
C 0.77937 -1.341951 0.397805 -1.5 0 -1.5 
C -0.397805 -1.5 -0.77937 -1.341951 -1.06066 -1.06066 
C -1.341951 -0.77937 -1.5 -0.397805 -1.5 0 
C -1.5 0.397805 -1.341951 0.77937 -1.06066 1.06066 
C -0.77937 1.341951 -0.397805 1.5 0 1.5 
z
" style="stroke: #000080"/>
    </defs>
    <g>
     <use xlink:href="#mf944e6e7f1" x="219.118987" y="173.586538" style="fill: #000080; stroke: #000080"/>
     <use xlink:href="#mf944e6e7f1" x="219.118987" y="173.586538" style="fill: #000080; stroke: #000080"/>
    </g>
   </g>
   <g id="line2d_35">
    <path d="M 27.323974 298.944 
L 27.323974 290.524469 
L 47.990577 290.524469 
L 47.990577 290.056717 
L 66.441498 290.056717 
L 66.441498 289.588966 
L 70.639174 289.588966 
L 70.639174 289.121214 
L 75.574654 289.121214 
L 75.574654 287.717959 
L 83.678349 287.717959 
L 83.678349 286.782455 
L 85.471281 286.782455 
L 85.471281 286.314703 
L 96.717523 286.314703 
L 96.717523 285.846952 
L 99.751228 285.846952 
L 99.751228 285.3792 
L 100.147275 285.3792 
L 100.147275 284.911448 
L 100.535156 284.911448 
L 100.535156 284.443697 
L 102.708132 284.443697 
L 102.708132 283.975945 
L 105.850679 283.975945 
L 105.850679 283.508193 
L 106.137884 283.508193 
L 106.137884 282.104938 
L 106.974091 282.104938 
L 106.974091 281.169434 
L 111.334639 281.169434 
L 111.334639 280.701683 
L 117.384126 280.701683 
L 117.384126 280.233931 
L 117.540239 280.233931 
L 117.540239 279.766179 
L 118.889854 279.766179 
L 118.889854 278.830676 
L 129.458394 278.830676 
L 129.54072 277.895172 
L 133.72196 277.895172 
L 133.72196 277.427421 
L 140.451292 277.427421 
L 140.451292 276.959669 
L 141.910969 276.959669 
L 141.910969 276.491917 
L 142.497568 276.491917 
L 142.497568 276.024166 
L 143.423243 276.024166 
L 143.423243 275.556414 
L 143.965177 275.556414 
L 143.965177 275.088662 
L 144.85936 275.088662 
L 144.931992 274.153159 
L 145.643288 274.153159 
L 145.643288 273.685407 
L 146.091614 273.685407 
L 146.091614 273.217655 
L 147.248088 273.217655 
L 147.248088 272.749903 
L 148.185734 272.749903 
L 148.185734 272.282152 
L 152.131727 272.282152 
L 152.131727 271.8144 
L 152.25492 271.8144 
L 152.25492 271.346648 
L 153.536404 271.346648 
L 153.536404 270.878897 
L 153.8097 270.878897 
L 153.854866 269.943393 
L 154.012098 269.943393 
L 154.012098 269.475641 
L 154.497869 269.475641 
L 154.606544 268.072386 
L 156.423104 268.072386 
L 156.423104 267.604634 
L 156.774003 267.604634 
L 156.774003 267.136883 
L 156.947029 267.136883 
L 156.947029 266.201379 
L 157.156365 266.201379 
L 157.156365 265.265876 
L 157.605171 265.265876 
L 157.605171 264.330372 
L 159.300416 264.330372 
L 159.300416 263.862621 
L 159.518669 263.862621 
L 159.518669 262.927117 
L 161.240147 262.927117 
L 161.240147 262.459366 
L 162.817213 262.459366 
L 162.817213 261.991614 
L 163.971658 261.991614 
L 163.971658 261.523862 
L 165.64686 261.523862 
L 165.64686 260.588359 
L 165.945747 260.588359 
L 165.945747 259.652855 
L 166.724107 259.652855 
L 166.724107 258.717352 
L 168.513935 258.717352 
L 168.513935 258.2496 
L 168.811641 258.2496 
L 168.811641 257.314097 
L 169.501592 257.314097 
L 169.501592 256.846345 
L 169.880655 256.846345 
L 169.880655 256.378593 
L 170.754894 256.378593 
L 170.754894 255.910841 
L 171.217608 255.910841 
L 171.217608 255.44309 
L 171.351562 255.44309 
L 171.351562 254.975338 
L 171.537509 254.975338 
L 171.537509 254.507586 
L 171.860725 254.507586 
L 171.860725 253.572083 
L 172.748826 253.572083 
L 172.748826 253.104331 
L 173.11697 253.104331 
L 173.11697 252.636579 
L 173.636328 252.636579 
L 173.675691 251.701076 
L 174.760539 251.701076 
L 174.760539 251.233324 
L 175.200767 251.233324 
L 175.200767 250.765572 
L 175.77919 250.765572 
L 175.77919 250.297821 
L 176.030666 250.297821 
L 176.030666 249.362317 
L 176.182707 249.362317 
L 176.21022 248.426814 
L 177.492039 248.426814 
L 177.492039 247.959062 
L 178.141974 247.959062 
L 178.141974 247.49131 
L 179.23822 247.49131 
L 179.23822 246.555807 
L 179.447692 246.555807 
L 179.453477 245.620303 
L 179.859766 245.620303 
L 179.859766 244.6848 
L 180.196396 244.6848 
L 180.196396 244.217048 
L 180.857477 244.217048 
L 180.905733 242.813793 
L 181.044446 242.813793 
L 181.139882 240.942786 
L 181.376377 240.942786 
L 181.376377 240.475034 
L 182.138869 240.475034 
L 182.138869 240.007283 
L 182.866832 240.007283 
L 182.866832 239.539531 
L 183.116059 239.539531 
L 183.116059 239.071779 
L 183.881127 239.071779 
L 183.967785 238.136276 
L 184.207426 238.136276 
L 184.207426 237.200772 
L 184.466222 237.200772 
L 184.466222 236.265269 
L 185.746647 236.265269 
L 185.746647 235.329766 
L 185.907413 235.329766 
L 185.907413 234.394262 
L 186.333537 234.394262 
L 186.345571 232.991007 
L 186.914345 232.991007 
L 186.914345 232.523255 
L 187.038437 232.523255 
L 187.038437 231.587752 
L 187.200076 231.587752 
L 187.200076 231.12 
L 187.766277 231.12 
L 187.766277 230.184497 
L 189.525714 230.184497 
L 189.525714 229.248993 
L 189.967492 229.248993 
L 189.967492 228.31349 
L 190.31814 228.31349 
L 190.35058 226.910234 
L 190.476561 226.910234 
L 190.476561 225.974731 
L 190.592108 225.974731 
L 190.592108 225.039228 
L 190.991021 225.039228 
L 191.047325 223.635972 
L 191.613406 223.635972 
L 191.613406 222.700469 
L 191.848327 222.700469 
L 191.848327 222.232717 
L 192.139387 222.232717 
L 192.139387 221.297214 
L 192.321227 221.297214 
L 192.321227 220.36171 
L 192.463707 220.36171 
L 192.463707 219.426207 
L 192.978028 219.426207 
L 192.978028 218.958455 
L 193.335397 218.958455 
L 193.335397 218.022952 
L 193.558086 218.022952 
L 193.558086 217.5552 
L 193.764659 217.5552 
L 193.764659 217.087448 
L 194.054362 217.087448 
L 194.054362 216.151945 
L 194.462495 216.151945 
L 194.462495 215.216441 
L 195.110218 215.216441 
L 195.110218 214.280938 
L 195.278079 214.280938 
L 195.278079 213.345434 
L 195.799562 213.345434 
L 195.799562 212.409931 
L 196.014251 212.409931 
L 196.014251 211.474428 
L 196.657907 211.474428 
L 196.657907 210.538924 
L 197.059217 210.538924 
L 197.161042 208.667917 
L 197.740998 208.667917 
L 197.740998 207.732414 
L 198.066391 207.732414 
L 198.066391 206.79691 
L 198.295112 206.79691 
L 198.295112 206.329159 
L 198.411606 206.329159 
L 198.500081 204.458152 
L 198.884917 204.458152 
L 198.884917 203.522648 
L 199.245884 203.522648 
L 199.245884 203.054897 
L 199.649547 203.054897 
L 199.649547 202.587145 
L 199.945736 202.587145 
L 199.949628 201.651641 
L 200.141278 201.651641 
L 200.181682 200.248386 
L 200.603577 200.248386 
L 200.71226 198.845131 
L 201.219192 198.845131 
L 201.284554 196.506372 
L 201.783554 196.506372 
L 201.783554 195.570869 
L 202.72338 195.570869 
L 202.72338 195.103117 
L 203.63928 195.103117 
L 203.63928 194.635366 
L 204.141077 194.635366 
L 204.231174 193.23211 
L 204.360899 193.23211 
L 204.462201 192.296607 
L 205.288755 192.296607 
L 205.288755 191.828855 
L 205.634224 191.828855 
L 205.634224 191.361103 
L 205.932453 191.361103 
L 205.932453 190.893352 
L 206.564435 190.893352 
L 206.564435 190.4256 
L 206.719847 190.4256 
L 206.719847 189.957848 
L 207.715344 189.957848 
L 207.715344 189.022345 
L 208.232258 189.022345 
L 208.232258 188.554593 
L 208.611751 188.554593 
L 208.687717 185.748083 
L 209.095352 185.748083 
L 209.095352 185.280331 
L 209.54932 185.280331 
L 209.598314 183.409324 
L 209.664603 183.409324 
L 209.765333 182.473821 
L 209.984602 182.473821 
L 210.084773 181.538317 
L 210.339612 181.538317 
L 210.339612 181.070566 
L 210.534598 181.070566 
L 210.534598 180.602814 
L 210.975 180.602814 
L 210.975 180.135062 
L 211.439163 180.135062 
L 211.439163 179.66731 
L 211.681625 179.66731 
L 211.681625 178.731807 
L 212.982964 178.731807 
L 212.982964 177.796303 
L 213.662473 177.796303 
L 213.662473 177.328552 
L 214.000155 177.328552 
L 214.000155 176.8608 
L 216.267804 176.8608 
L 216.267804 175.925297 
L 217.138163 175.925297 
L 217.138163 175.457545 
L 218.428741 175.457545 
L 218.428741 174.989793 
L 218.952506 174.989793 
L 218.952506 174.522041 
L 219.118987 174.522041 
L 219.118987 173.586538 
L 360.8064 173.586538 
L 360.8064 173.586538 
" style="fill: none; stroke: #000080; stroke-width: 1.5; stroke-linecap: square"/>
   </g>
   <g id="line2d_36">
    <defs>
     <path id="m2390812337" d="M 0 6 
C 1.591219 6 3.117479 5.367802 4.242641 4.242641 
C 5.367802 3.117479 6 1.591219 6 0 
C 6 -1.591219 5.367802 -3.117479 4.242641 -4.242641 
C 3.117479 -5.367802 1.591219 -6 0 -6 
C -1.591219 -6 -3.117479 -5.367802 -4.242641 -4.242641 
C -5.367802 -3.117479 -6 -1.591219 -6 0 
C -6 1.591219 -5.367802 3.117479 -4.242641 4.242641 
C -3.117479 5.367802 -1.591219 6 0 6 
z
" style="stroke: #000080; stroke-width: 1.5"/>
    </defs>
    <g>
     <use xlink:href="#m2390812337" x="75.574654" y="289.121214" style="fill-opacity: 0; stroke: #000080; stroke-width: 1.5"/>
     <use xlink:href="#m2390812337" x="152.131727" y="271.8144" style="fill-opacity: 0; stroke: #000080; stroke-width: 1.5"/>
     <use xlink:href="#m2390812337" x="205.932453" y="191.361103" style="fill-opacity: 0; stroke: #000080; stroke-width: 1.5"/>
     <use xlink:href="#m2390812337" x="219.118987" y="173.586538" style="fill-opacity: 0; stroke: #000080; stroke-width: 1.5"/>
     <use xlink:href="#m2390812337" x="219.118987" y="173.586538" style="fill-opacity: 0; stroke: #000080; stroke-width: 1.5"/>
     <use xlink:href="#m2390812337" x="360.8064" y="173.586538" style="fill-opacity: 0; stroke: #000080; stroke-width: 1.5"/>
    </g>
   </g>
   <g id="line2d_37">
    <path style="fill: none; stroke: #000080; stroke-width: 1.5; stroke-linecap: square"/>
    <g/>
   </g>
   <g id="line2d_38">
    <path d="M 230.866066 173.586538 
" clip-path="url(#p3a04c41cef)" style="fill: none; stroke: #000080; stroke-width: 1.5; stroke-linecap: square"/>
    <defs>
     <path id="mbce5efd2b9" d="M -12 12 
L 12 -12 
M -12 -12 
L 12 12 
" style="stroke: #000080"/>
    </defs>
    <g clip-path="url(#p3a04c41cef)">
     <use xlink:href="#mbce5efd2b9" x="230.866066" y="173.586538" style="fill: #000080; stroke: #000080"/>
    </g>
   </g>
   <g id="line2d_39">
    <defs>
     <path id="mbbb39c14d2" d="M 0 1.5 
C 0.397805 1.5 0.77937 1.341951 1.06066 1.06066 
C 1.341951 0.77937 1.5 0.397805 1.5 0 
C 1.5 -0.397805 1.341951 -0.77937 1.06066 -1.06066 
C 0.77937 -1.341951 0.397805 -1.5 0 -1.5 
C -0.397805 -1.5 -0.77937 -1.341951 -1.06066 -1.06066 
C -1.341951 -0.77937 -1.5 -0.397805 -1.5 0 
C -1.5 0.397805 -1.341951 0.77937 -1.06066 1.06066 
C -0.77937 1.341951 -0.397805 1.5 0 1.5 
z
" style="stroke: #ff00ff"/>
    </defs>
    <g>
     <use xlink:href="#mbbb39c14d2" x="207.867956" y="181.070566" style="fill: #ff00ff; stroke: #ff00ff"/>
     <use xlink:href="#mbbb39c14d2" x="207.867956" y="181.070566" style="fill: #ff00ff; stroke: #ff00ff"/>
    </g>
   </g>
   <g id="line2d_40">
    <path d="M 27.323974 298.944 
L 27.323974 290.524469 
L 53.402323 290.524469 
L 53.402323 290.056717 
L 68.65718 290.056717 
L 68.65718 288.653462 
L 72.432107 288.653462 
L 72.432107 288.18571 
L 87.876026 288.18571 
L 87.876026 287.717959 
L 90.007914 287.717959 
L 90.007914 287.250207 
L 91.305777 287.250207 
L 91.305777 286.782455 
L 94.735529 286.782455 
L 94.735529 286.314703 
L 101.287718 286.314703 
L 101.287718 285.846952 
L 102.708132 285.846952 
L 102.708132 285.3792 
L 103.380045 285.3792 
L 103.380045 284.911448 
L 103.707211 284.911448 
L 103.707211 283.975945 
L 108.034177 283.975945 
L 108.034177 283.508193 
L 108.29012 283.508193 
L 108.29012 282.57269 
L 109.520071 282.57269 
L 109.520071 282.104938 
L 110.221204 282.104938 
L 110.221204 281.637186 
L 111.54963 281.637186 
L 111.54963 281.169434 
L 111.97238 281.169434 
L 111.97238 280.233931 
L 112.180244 280.233931 
L 112.180244 279.766179 
L 114.141556 279.766179 
L 114.141556 278.830676 
L 115.227139 278.830676 
L 115.227139 278.362924 
L 115.747307 278.362924 
L 115.747307 277.895172 
L 118.450653 277.895172 
L 118.450653 277.427421 
L 118.74459 277.427421 
L 118.74459 276.959669 
L 119.319033 276.959669 
L 119.319033 276.491917 
L 119.459944 276.491917 
L 119.459944 276.024166 
L 123.4884 276.024166 
L 123.4884 275.556414 
L 126.225624 275.556414 
L 126.225624 275.088662 
L 126.709238 275.088662 
L 126.709238 274.62091 
L 127.366067 274.62091 
L 127.366067 274.153159 
L 133.390178 274.153159 
L 133.390178 273.685407 
L 133.523594 273.685407 
L 133.523594 273.217655 
L 133.853052 273.217655 
L 133.853052 272.749903 
L 135.478982 272.749903 
L 135.478982 272.282152 
L 137.250116 272.282152 
L 137.358854 271.346648 
L 137.627979 271.346648 
L 137.627979 269.943393 
L 139.264798 269.943393 
L 139.264798 269.475641 
L 139.985636 269.475641 
L 139.985636 269.00789 
L 141.128852 269.00789 
L 141.128852 268.540138 
L 141.261484 268.540138 
L 141.261484 268.072386 
L 141.782854 268.072386 
L 141.782854 267.136883 
L 142.038218 267.136883 
L 142.038218 266.669131 
L 142.331827 266.669131 
L 142.331827 266.201379 
L 142.497568 266.201379 
L 142.497568 265.265876 
L 147.087167 265.265876 
L 147.087167 264.330372 
L 150.932483 264.330372 
L 150.932483 263.862621 
L 152.082223 263.862621 
L 152.181101 262.459366 
L 152.328451 262.459366 
L 152.328451 261.991614 
L 153.001222 261.991614 
L 153.001222 261.523862 
L 154.012098 261.523862 
L 154.012098 260.588359 
L 154.410475 260.588359 
L 154.410475 259.652855 
L 154.693034 259.652855 
L 154.757642 258.717352 
L 155.30847 258.717352 
L 155.30847 257.781848 
L 155.802997 257.781848 
L 155.802997 257.314097 
L 155.944819 257.314097 
L 155.944819 256.846345 
L 156.105602 256.846345 
L 156.105602 256.378593 
L 156.501649 256.378593 
L 156.501649 255.910841 
L 157.69734 255.910841 
L 157.69734 255.44309 
L 158.294582 255.44309 
L 158.294582 254.507586 
L 158.595008 254.507586 
L 158.595008 254.039834 
L 158.769513 254.039834 
L 158.769513 253.572083 
L 159.181837 253.572083 
L 159.181837 253.104331 
L 159.485256 253.104331 
L 159.485256 252.168828 
L 161.13322 252.168828 
L 161.13322 251.701076 
L 162.676617 251.701076 
L 162.676617 251.233324 
L 163.109086 251.233324 
L 163.109086 250.765572 
L 163.639407 250.765572 
L 163.639407 250.297821 
L 165.133786 250.297821 
L 165.133786 249.830069 
L 165.244914 249.830069 
L 165.244914 249.362317 
L 165.574415 249.362317 
L 165.574415 248.894566 
L 166.040396 248.894566 
L 166.040396 248.426814 
L 166.552624 248.426814 
L 166.552624 247.959062 
L 169.491772 247.959062 
L 169.491772 247.49131 
L 170.355719 247.49131 
L 170.355719 247.023559 
L 170.514546 247.023559 
L 170.514546 246.555807 
L 171.082693 246.555807 
L 171.082693 245.620303 
L 171.808687 245.620303 
L 171.808687 244.6848 
L 172.127316 244.6848 
L 172.127316 244.217048 
L 172.263447 244.217048 
L 172.263447 243.281545 
L 172.607852 243.281545 
L 172.607852 242.346041 
L 174.018578 242.346041 
L 174.018578 241.87829 
L 174.309761 241.87829 
L 174.309761 241.410538 
L 174.945221 241.410538 
L 174.945221 240.475034 
L 175.786221 240.475034 
L 175.863389 239.539531 
L 175.961148 239.539531 
L 176.072254 238.604028 
L 176.516992 238.604028 
L 176.516992 237.668524 
L 177.024001 237.668524 
L 177.024001 236.733021 
L 177.148646 236.733021 
L 177.259475 234.394262 
L 178.296396 234.394262 
L 178.296396 233.92651 
L 178.51656 233.92651 
L 178.51656 233.458759 
L 179.138486 233.458759 
L 179.138486 232.523255 
L 179.591798 232.523255 
L 179.643407 230.652248 
L 181.376377 230.652248 
L 181.376377 229.716745 
L 182.013073 229.716745 
L 182.013073 228.781241 
L 182.153909 228.781241 
L 182.233915 226.910234 
L 182.804006 226.910234 
L 182.804006 225.974731 
L 183.039725 225.974731 
L 183.097004 224.103724 
L 183.220515 224.103724 
L 183.220515 223.168221 
L 183.535105 223.168221 
L 183.535105 222.232717 
L 184.83483 222.232717 
L 184.83483 221.297214 
L 185.123747 221.297214 
L 185.140856 219.426207 
L 185.412508 219.426207 
L 185.412508 218.490703 
L 185.663667 218.490703 
L 185.663667 218.022952 
L 185.816893 218.022952 
L 185.816893 217.5552 
L 186.200649 217.5552 
L 186.249081 216.619697 
L 186.580694 216.619697 
L 186.60444 215.216441 
L 187.026838 215.216441 
L 187.026838 214.280938 
L 187.348935 214.280938 
L 187.348935 213.345434 
L 187.466425 213.345434 
L 187.530545 211.474428 
L 187.598199 211.474428 
L 187.598199 210.538924 
L 187.851607 210.538924 
L 187.925494 208.200166 
L 188.16 208.200166 
L 188.243567 207.264662 
L 188.445494 207.264662 
L 188.452666 206.329159 
L 188.567044 206.329159 
L 188.567044 205.861407 
L 188.797255 205.861407 
L 188.797255 204.458152 
L 189.049012 204.458152 
L 189.049012 203.522648 
L 189.338532 203.522648 
L 189.372704 202.119393 
L 189.5291 202.119393 
L 189.60344 199.780634 
L 189.811379 199.780634 
L 189.811379 199.312883 
L 189.931071 199.312883 
L 189.964184 197.441876 
L 190.243317 197.441876 
L 190.243317 196.974124 
L 190.402367 196.974124 
L 190.444339 196.038621 
L 190.713308 196.038621 
L 190.786289 193.699862 
L 190.877907 193.699862 
L 190.877907 193.23211 
L 191.221421 193.23211 
L 191.221421 192.296607 
L 191.378582 192.296607 
L 191.378582 191.828855 
L 191.546612 191.828855 
L 191.580039 190.893352 
L 191.818373 190.893352 
L 191.818373 190.4256 
L 191.964697 190.4256 
L 192.065564 189.022345 
L 192.79961 189.022345 
L 192.79961 188.554593 
L 193.179882 188.554593 
L 193.179882 188.086841 
L 193.343691 188.086841 
L 193.376835 186.215834 
L 193.850963 186.215834 
L 193.850963 185.748083 
L 194.181701 185.748083 
L 194.181701 185.280331 
L 194.659422 185.280331 
L 194.690328 183.409324 
L 194.88999 183.409324 
L 194.88999 182.941572 
L 196.06216 182.941572 
L 196.06216 182.473821 
L 196.302255 182.473821 
L 196.302255 182.006069 
L 202.372576 182.006069 
L 202.372576 181.538317 
L 207.867956 181.538317 
L 207.867956 181.070566 
L 360.8064 181.070566 
L 360.8064 181.070566 
" style="fill: none; stroke: #ff00ff; stroke-width: 1.5; stroke-linecap: square"/>
   </g>
   <g id="line2d_41">
    <defs>
     <path id="m55dcc25d8a" d="M -0 8.485281 
L 5.091169 0 
L 0 -8.485281 
L -5.091169 -0 
z
" style="stroke: #ff00ff; stroke-width: 1.5; stroke-linejoin: miter"/>
    </defs>
    <g>
     <use xlink:href="#m55dcc25d8a" x="142.497568" y="266.201379" style="fill-opacity: 0; stroke: #ff00ff; stroke-width: 1.5; stroke-linejoin: miter"/>
     <use xlink:href="#m55dcc25d8a" x="196.06216" y="182.473821" style="fill-opacity: 0; stroke: #ff00ff; stroke-width: 1.5; stroke-linejoin: miter"/>
     <use xlink:href="#m55dcc25d8a" x="207.867956" y="181.538317" style="fill-opacity: 0; stroke: #ff00ff; stroke-width: 1.5; stroke-linejoin: miter"/>
     <use xlink:href="#m55dcc25d8a" x="207.867956" y="181.070566" style="fill-opacity: 0; stroke: #ff00ff; stroke-width: 1.5; stroke-linejoin: miter"/>
     <use xlink:href="#m55dcc25d8a" x="207.867956" y="181.070566" style="fill-opacity: 0; stroke: #ff00ff; stroke-width: 1.5; stroke-linejoin: miter"/>
     <use xlink:href="#m55dcc25d8a" x="360.8064" y="181.070566" style="fill-opacity: 0; stroke: #ff00ff; stroke-width: 1.5; stroke-linejoin: miter"/>
    </g>
   </g>
   <g id="line2d_42">
    <path style="fill: none; stroke: #ff00ff; stroke-width: 1.5; stroke-linecap: square"/>
    <g/>
   </g>
   <g id="line2d_43">
    <path d="M 230.866819 181.070566 
" clip-path="url(#p3a04c41cef)" style="fill: none; stroke: #ff00ff; stroke-width: 1.5; stroke-linecap: square"/>
    <defs>
     <path id="mf08751fe7c" d="M -12 12 
L 12 -12 
M -12 -12 
L 12 12 
" style="stroke: #ff00ff"/>
    </defs>
    <g clip-path="url(#p3a04c41cef)">
     <use xlink:href="#mf08751fe7c" x="230.866819" y="181.070566" style="fill: #ff00ff; stroke: #ff00ff"/>
    </g>
   </g>
   <g id="line2d_44">
    <defs>
     <path id="m48b2b1b047" d="M 0 1.5 
C 0.397805 1.5 0.77937 1.341951 1.06066 1.06066 
C 1.341951 0.77937 1.5 0.397805 1.5 0 
C 1.5 -0.397805 1.341951 -0.77937 1.06066 -1.06066 
C 0.77937 -1.341951 0.397805 -1.5 0 -1.5 
C -0.397805 -1.5 -0.77937 -1.341951 -1.06066 -1.06066 
C -1.341951 -0.77937 -1.5 -0.397805 -1.5 0 
C -1.5 0.397805 -1.341951 0.77937 -1.06066 1.06066 
C -0.77937 1.341951 -0.397805 1.5 0 1.5 
z
" style="stroke: #ff7500"/>
    </defs>
    <g>
     <use xlink:href="#m48b2b1b047" x="229.472154" y="182.006069" style="fill: #ff7500; stroke: #ff7500"/>
     <use xlink:href="#m48b2b1b047" x="229.472154" y="182.006069" style="fill: #ff7500; stroke: #ff7500"/>
    </g>
   </g>
   <g id="line2d_45">
    <path d="M 27.323974 298.944 
L 27.323974 290.524469 
L 40.363149 290.524469 
L 40.363149 290.056717 
L 108.29012 290.056717 
L 108.29012 288.653462 
L 115.747307 288.653462 
L 115.747307 288.18571 
L 121.073351 288.18571 
L 121.073351 287.717959 
L 128.614685 287.717959 
L 128.614685 287.250207 
L 133.983236 287.250207 
L 133.983236 284.911448 
L 139.93843 284.911448 
L 139.93843 283.975945 
L 141.56737 283.975945 
L 141.56737 282.57269 
L 143.066428 282.57269 
L 143.066428 281.169434 
L 146.957431 281.169434 
L 146.957431 280.233931 
L 148.094045 280.233931 
L 148.094045 279.298428 
L 149.165879 279.298428 
L 149.165879 278.830676 
L 150.179921 278.830676 
L 150.179921 277.895172 
L 151.142085 277.895172 
L 151.142085 277.427421 
L 152.930279 277.427421 
L 152.930279 276.491917 
L 154.563149 276.491917 
L 154.563149 275.088662 
L 155.329337 275.088662 
L 155.329337 273.217655 
L 157.456756 273.217655 
L 157.456756 272.749903 
L 158.752135 272.749903 
L 158.752135 271.8144 
L 159.367841 271.8144 
L 159.367841 271.346648 
L 159.964032 271.346648 
L 159.964032 270.878897 
L 160.541906 270.878897 
L 160.541906 269.943393 
L 161.646981 269.943393 
L 161.646981 269.00789 
L 164.155187 269.00789 
L 164.155187 268.540138 
L 166.367969 268.540138 
L 166.367969 267.136883 
L 167.580589 267.136883 
L 167.580589 266.201379 
L 167.968026 266.201379 
L 167.968026 264.798124 
L 169.084644 264.798124 
L 169.084644 263.862621 
L 171.136775 263.862621 
L 171.136775 261.991614 
L 173.565266 261.991614 
L 173.565266 260.588359 
L 174.671243 260.588359 
L 174.671243 260.120607 
L 175.460042 260.120607 
L 175.460042 259.185103 
L 175.715792 259.185103 
L 175.715792 257.781848 
L 176.705378 257.781848 
L 176.705378 256.846345 
L 176.94485 256.846345 
L 176.94485 256.378593 
L 177.414837 256.378593 
L 177.414837 255.44309 
L 178.320986 255.44309 
L 178.320986 254.975338 
L 178.758202 254.975338 
L 178.758202 254.507586 
L 179.185485 254.507586 
L 179.185485 253.572083 
L 180.011995 253.572083 
L 180.011995 253.104331 
L 180.608887 253.104331 
L 180.608887 252.636579 
L 180.996545 252.636579 
L 180.996545 252.168828 
L 181.74869 252.168828 
L 181.74869 251.701076 
L 181.932119 251.701076 
L 181.932119 248.894566 
L 182.471914 248.894566 
L 182.471914 247.959062 
L 182.823359 247.959062 
L 182.823359 247.49131 
L 183.507146 247.49131 
L 183.507146 246.555807 
L 184.004153 246.555807 
L 184.004153 246.088055 
L 184.328343 246.088055 
L 184.328343 245.620303 
L 184.488367 245.620303 
L 184.488367 245.152552 
L 184.64704 245.152552 
L 184.64704 244.6848 
L 184.960429 244.6848 
L 184.960429 244.217048 
L 185.420934 244.217048 
L 185.420934 242.813793 
L 186.164244 242.813793 
L 186.164244 242.346041 
L 186.596528 242.346041 
L 186.596528 241.87829 
L 186.738443 241.87829 
L 186.738443 240.942786 
L 186.879296 240.942786 
L 186.879296 240.007283 
L 187.56816 240.007283 
L 187.56816 239.539531 
L 188.232688 239.539531 
L 188.232688 239.071779 
L 188.747909 239.071779 
L 188.747909 237.668524 
L 189.616925 237.668524 
L 189.616925 235.797517 
L 189.977413 235.797517 
L 189.977413 234.862014 
L 190.447563 234.862014 
L 190.447563 233.92651 
L 190.563288 233.92651 
L 190.563288 232.055503 
L 190.906249 232.055503 
L 190.906249 231.12 
L 191.24307 231.12 
L 191.24307 230.184497 
L 192.324146 230.184497 
L 192.428913 228.781241 
L 192.842244 228.781241 
L 192.842244 227.845738 
L 193.045554 227.845738 
L 193.14639 226.442483 
L 193.837504 226.442483 
L 193.837504 225.974731 
L 194.03039 225.974731 
L 194.03039 223.635972 
L 194.221318 223.635972 
L 194.221318 223.168221 
L 195.057295 223.168221 
L 195.057295 221.764966 
L 195.238129 221.764966 
L 195.238129 220.829462 
L 195.857697 220.829462 
L 195.857697 219.893959 
L 196.031033 219.893959 
L 196.031033 218.958455 
L 196.288077 218.958455 
L 196.288077 218.022952 
L 196.874531 218.022952 
L 196.956838 216.619697 
L 197.523114 216.619697 
L 197.523114 216.151945 
L 197.839209 216.151945 
L 197.839209 215.216441 
L 198.227001 215.216441 
L 198.227001 214.280938 
L 198.682039 214.280938 
L 198.682039 213.345434 
L 199.053006 213.345434 
L 199.053006 212.877683 
L 200.399512 212.877683 
L 200.399512 211.942179 
L 200.535801 211.942179 
L 200.535801 211.006676 
L 201.656041 211.006676 
L 201.656041 210.071172 
L 202.160986 210.071172 
L 202.160986 209.603421 
L 202.285132 209.603421 
L 202.285132 208.667917 
L 203.249867 208.667917 
L 203.249867 207.732414 
L 203.425373 207.732414 
L 203.483513 205.861407 
L 203.885539 205.861407 
L 203.942276 204.458152 
L 204.334717 204.458152 
L 204.334717 203.522648 
L 204.555347 203.522648 
L 204.610103 202.587145 
L 204.773419 202.587145 
L 204.773419 201.651641 
L 205.77608 201.651641 
L 205.77608 200.716138 
L 206.382866 200.716138 
L 206.382866 200.248386 
L 207.162619 200.248386 
L 207.257854 198.845131 
L 207.5407 198.845131 
L 207.5407 198.377379 
L 207.865401 198.377379 
L 207.865401 197.909628 
L 208.002861 197.909628 
L 208.002861 197.441876 
L 208.139324 197.441876 
L 208.139324 196.974124 
L 208.453939 196.974124 
L 208.453939 196.506372 
L 209.494341 196.506372 
L 209.494341 196.038621 
L 210.075688 196.038621 
L 210.075688 195.570869 
L 210.480205 195.570869 
L 210.480205 195.103117 
L 210.836979 195.103117 
L 210.836979 194.635366 
L 211.071124 194.635366 
L 211.071124 194.167614 
L 211.30239 194.167614 
L 211.30239 193.699862 
L 211.644044 193.699862 
L 211.644044 193.23211 
L 212.309282 193.23211 
L 212.309282 192.764359 
L 213.876206 192.764359 
L 213.876206 192.296607 
L 214.468169 192.296607 
L 214.565044 190.893352 
L 215.568472 190.893352 
L 215.659856 189.490097 
L 216.257995 189.490097 
L 216.257995 188.554593 
L 217.400073 188.554593 
L 217.400073 188.086841 
L 217.620398 188.086841 
L 217.620398 187.151338 
L 217.756802 187.151338 
L 217.756802 186.683586 
L 218.160178 186.683586 
L 218.160178 185.748083 
L 218.633083 185.748083 
L 218.633083 185.280331 
L 219.495154 185.280331 
L 219.495154 184.812579 
L 220.080733 184.812579 
L 220.080733 183.877076 
L 222.36288 183.877076 
L 222.36288 183.409324 
L 223.637953 183.409324 
L 223.637953 182.473821 
L 229.472154 182.473821 
L 229.472154 182.006069 
L 360.8064 182.006069 
L 360.8064 182.006069 
" style="fill: none; stroke: #ff7500; stroke-width: 1.5; stroke-linecap: square"/>
   </g>
   <g id="line2d_46">
    <defs>
     <path id="m05edd48d7d" d="M 0 -6 
L -1.347084 -1.854102 
L -5.706339 -1.854102 
L -2.179628 0.708204 
L -3.526712 4.854102 
L -0 2.291796 
L 3.526712 4.854102 
L 2.179628 0.708204 
L 5.706339 -1.854102 
L 1.347084 -1.854102 
z
" style="stroke: #ff7500; stroke-width: 1.5; stroke-linejoin: bevel"/>
    </defs>
    <g>
     <use xlink:href="#m05edd48d7d" x="146.957431" y="280.233931" style="fill-opacity: 0; stroke: #ff7500; stroke-width: 1.5; stroke-linejoin: bevel"/>
     <use xlink:href="#m05edd48d7d" x="193.14639" y="226.910234" style="fill-opacity: 0; stroke: #ff7500; stroke-width: 1.5; stroke-linejoin: bevel"/>
     <use xlink:href="#m05edd48d7d" x="229.472154" y="182.473821" style="fill-opacity: 0; stroke: #ff7500; stroke-width: 1.5; stroke-linejoin: bevel"/>
     <use xlink:href="#m05edd48d7d" x="229.472154" y="182.006069" style="fill-opacity: 0; stroke: #ff7500; stroke-width: 1.5; stroke-linejoin: bevel"/>
     <use xlink:href="#m05edd48d7d" x="229.472154" y="182.006069" style="fill-opacity: 0; stroke: #ff7500; stroke-width: 1.5; stroke-linejoin: bevel"/>
     <use xlink:href="#m05edd48d7d" x="360.8064" y="182.006069" style="fill-opacity: 0; stroke: #ff7500; stroke-width: 1.5; stroke-linejoin: bevel"/>
    </g>
   </g>
   <g id="line2d_47">
    <path style="fill: none; stroke: #ff7500; stroke-width: 1.5; stroke-linecap: square"/>
    <g/>
   </g>
   <g id="line2d_48">
    <path d="M 230.862681 182.006069 
" clip-path="url(#p3a04c41cef)" style="fill: none; stroke: #ff7500; stroke-width: 1.5; stroke-linecap: square"/>
    <defs>
     <path id="m273b613f73" d="M -12 12 
L 12 -12 
M -12 -12 
L 12 12 
" style="stroke: #ff7500"/>
    </defs>
    <g clip-path="url(#p3a04c41cef)">
     <use xlink:href="#m273b613f73" x="230.862681" y="182.006069" style="fill: #ff7500; stroke: #ff7500"/>
    </g>
   </g>
   <g id="line2d_49">
    <defs>
     <path id="m1928aa8e6a" d="M 0 1.5 
C 0.397805 1.5 0.77937 1.341951 1.06066 1.06066 
C 1.341951 0.77937 1.5 0.397805 1.5 0 
C 1.5 -0.397805 1.341951 -0.77937 1.06066 -1.06066 
C 0.77937 -1.341951 0.397805 -1.5 0 -1.5 
C -0.397805 -1.5 -0.77937 -1.341951 -1.06066 -1.06066 
C -1.341951 -0.77937 -1.5 -0.397805 -1.5 0 
C -1.5 0.397805 -1.341951 0.77937 -1.06066 1.06066 
C -0.77937 1.341951 -0.397805 1.5 0 1.5 
z
" style="stroke: #6495ed"/>
    </defs>
    <g>
     <use xlink:href="#m1928aa8e6a" x="198.748526" y="186.215834" style="fill: #6495ed; stroke: #6495ed"/>
     <use xlink:href="#m1928aa8e6a" x="198.748526" y="186.215834" style="fill: #6495ed; stroke: #6495ed"/>
    </g>
   </g>
   <g id="line2d_50">
    <path d="M 27.323974 298.944 
L 27.323974 290.524469 
L 66.441498 290.524469 
L 66.441498 290.056717 
L 76.96874 290.056717 
L 76.96874 289.588966 
L 83.678349 289.588966 
L 83.678349 288.653462 
L 88.613828 288.653462 
L 88.613828 287.717959 
L 100.9152 287.717959 
L 100.9152 286.782455 
L 104.961779 286.782455 
L 104.961779 286.314703 
L 105.559021 286.314703 
L 105.559021 285.3792 
L 109.280431 285.3792 
L 109.280431 284.911448 
L 110.221204 284.911448 
L 110.221204 283.975945 
L 110.674517 283.975945 
L 110.674517 283.508193 
L 116.907859 283.508193 
L 116.907859 283.040441 
L 117.067958 283.040441 
L 117.067958 282.57269 
L 117.695068 282.57269 
L 117.695068 282.104938 
L 119.177058 282.104938 
L 119.177058 281.637186 
L 123.260379 281.637186 
L 123.260379 280.701683 
L 123.601383 280.701683 
L 123.601383 280.233931 
L 123.936316 280.233931 
L 123.936316 279.766179 
L 126.127391 279.766179 
L 126.127391 279.298428 
L 128.178203 279.298428 
L 128.178203 278.830676 
L 128.614685 278.830676 
L 128.614685 278.362924 
L 129.209231 278.362924 
L 129.209231 277.427421 
L 129.458394 277.427421 
L 129.458394 276.959669 
L 131.929028 276.959669 
L 131.929028 276.491917 
L 132.984158 276.491917 
L 132.984158 276.024166 
L 133.25581 276.024166 
L 133.25581 275.556414 
L 133.656071 275.556414 
L 133.656071 275.088662 
L 134.047992 275.088662 
L 134.047992 274.62091 
L 134.368469 274.62091 
L 134.368469 274.153159 
L 136.010584 274.153159 
L 136.010584 273.685407 
L 138.566146 273.685407 
L 138.566146 273.217655 
L 139.459738 273.217655 
L 139.459738 272.749903 
L 140.312801 272.749903 
L 140.312801 272.282152 
L 140.995278 272.282152 
L 140.995278 271.8144 
L 142.497568 271.8144 
L 142.497568 271.346648 
L 143.926981 271.346648 
L 143.926981 270.878897 
L 144.267986 270.878897 
L 144.267986 270.411145 
L 144.895711 270.411145 
L 144.895711 269.943393 
L 148.001907 269.943393 
L 148.001907 269.00789 
L 148.75628 269.00789 
L 148.75628 268.540138 
L 152.082223 268.540138 
L 152.082223 267.604634 
L 152.691854 267.604634 
L 152.691854 267.136883 
L 155.035072 267.136883 
L 155.035072 266.669131 
L 157.493969 266.669131 
L 157.493969 266.201379 
L 157.752425 266.201379 
L 157.752425 265.265876 
L 159.651731 265.265876 
L 159.651731 264.330372 
L 161.041081 264.330372 
L 161.041081 263.862621 
L 162.349204 263.862621 
L 162.349204 263.394869 
L 162.478002 263.394869 
L 162.478002 262.927117 
L 163.905675 262.927117 
L 163.905675 262.459366 
L 164.024277 262.459366 
L 164.024277 261.991614 
L 165.121398 261.991614 
L 165.121398 261.523862 
L 166.146311 261.523862 
L 166.146311 260.120607 
L 166.871471 260.120607 
L 166.871471 259.652855 
L 167.796816 259.652855 
L 167.796816 258.2496 
L 168.17987 258.2496 
L 168.263944 257.314097 
L 168.451748 257.314097 
L 168.451748 256.846345 
L 169.024318 256.846345 
L 169.074603 254.975338 
L 169.224656 254.975338 
L 169.224656 254.507586 
L 169.609283 254.507586 
L 169.609283 254.039834 
L 169.755147 254.039834 
L 169.755147 253.572083 
L 171.369351 253.572083 
L 171.475731 251.233324 
L 171.581513 251.233324 
L 171.581513 250.765572 
L 171.895337 250.765572 
L 171.998792 248.894566 
L 172.449034 248.894566 
L 172.449034 248.426814 
L 173.366453 248.426814 
L 173.366453 247.959062 
L 173.501874 247.959062 
L 173.501874 247.49131 
L 173.793288 247.49131 
L 173.793288 246.088055 
L 174.446132 246.088055 
L 174.446132 245.152552 
L 175.149934 245.152552 
L 175.149934 244.217048 
L 175.495771 244.217048 
L 175.495771 243.749297 
L 176.564266 243.749297 
L 176.564266 242.813793 
L 177.395487 242.813793 
L 177.395487 241.87829 
L 178.154375 241.87829 
L 178.25945 240.475034 
L 178.412915 240.475034 
L 178.412915 239.539531 
L 179.20308 239.539531 
L 179.20308 238.604028 
L 179.768971 238.604028 
L 179.768971 237.668524 
L 180.89502 237.668524 
L 180.89502 237.200772 
L 181.480538 237.200772 
L 181.480538 236.265269 
L 182.048381 236.265269 
L 182.048381 235.329766 
L 182.353291 235.329766 
L 182.353291 234.862014 
L 182.876479 234.862014 
L 182.876479 233.92651 
L 183.553721 233.92651 
L 183.553721 232.991007 
L 184.031383 232.991007 
L 184.12638 231.12 
L 184.359566 231.12 
L 184.372931 229.248993 
L 184.567871 229.248993 
L 184.567871 228.31349 
L 184.760812 228.31349 
L 184.847862 225.506979 
L 185.140856 225.506979 
L 185.140856 225.039228 
L 185.659508 225.039228 
L 185.73008 224.103724 
L 185.821017 224.103724 
L 185.821017 223.168221 
L 186.083089 223.168221 
L 186.083089 222.232717 
L 186.20873 222.232717 
L 186.317479 221.297214 
L 187.34133 221.297214 
L 187.34133 220.36171 
L 187.575674 220.36171 
L 187.575674 219.893959 
L 187.821971 219.893959 
L 187.932867 218.022952 
L 187.94392 218.022952 
L 188.039448 216.619697 
L 188.123551 216.619697 
L 188.123551 215.684193 
L 188.341195 215.684193 
L 188.388022 212.877683 
L 188.509942 212.877683 
L 188.591972 211.006676 
L 188.811331 211.006676 
L 188.91656 210.071172 
L 188.982903 210.071172 
L 188.982903 209.603421 
L 189.118351 209.603421 
L 189.177088 208.200166 
L 189.232204 208.200166 
L 189.232204 207.732414 
L 189.451064 207.732414 
L 189.485033 206.79691 
L 189.589946 206.79691 
L 189.589946 206.329159 
L 189.937699 206.329159 
L 189.937699 205.393655 
L 190.086199 205.393655 
L 190.096057 203.522648 
L 190.288897 203.522648 
L 190.36354 202.119393 
L 190.511942 202.119393 
L 190.511942 201.651641 
L 190.726021 201.651641 
L 190.726021 200.716138 
L 190.918832 200.716138 
L 190.928264 198.845131 
L 191.301706 198.845131 
L 191.307868 197.441876 
L 191.522264 197.441876 
L 191.631581 196.038621 
L 192.015198 196.038621 
L 192.077395 195.103117 
L 192.154117 195.103117 
L 192.154117 194.635366 
L 192.309548 194.635366 
L 192.309548 194.167614 
L 192.579222 194.167614 
L 192.682582 193.23211 
L 192.935701 193.23211 
L 192.935701 192.764359 
L 193.246689 192.764359 
L 193.324331 190.893352 
L 193.541681 190.893352 
L 193.607217 189.957848 
L 193.748433 189.957848 
L 193.748433 189.022345 
L 194.41294 189.022345 
L 194.41294 188.554593 
L 194.527502 188.554593 
L 194.527502 188.086841 
L 194.996629 188.086841 
L 194.996629 187.61909 
L 195.860116 187.61909 
L 195.860116 186.683586 
L 198.748526 186.683586 
L 198.748526 186.215834 
L 360.8064 186.215834 
L 360.8064 186.215834 
" style="fill: none; stroke: #6495ed; stroke-width: 1.5; stroke-linecap: square"/>
   </g>
   <g id="line2d_51">
    <defs>
     <path id="m034f2c4d7b" d="M -0 6 
L 6 -6 
L -6 -6 
z
" style="stroke: #6495ed; stroke-width: 1.5; stroke-linejoin: miter"/>
    </defs>
    <g>
     <use xlink:href="#m034f2c4d7b" x="144.895711" y="270.411145" style="fill-opacity: 0; stroke: #6495ed; stroke-width: 1.5; stroke-linejoin: miter"/>
     <use xlink:href="#m034f2c4d7b" x="198.748526" y="186.683586" style="fill-opacity: 0; stroke: #6495ed; stroke-width: 1.5; stroke-linejoin: miter"/>
     <use xlink:href="#m034f2c4d7b" x="198.748526" y="186.215834" style="fill-opacity: 0; stroke: #6495ed; stroke-width: 1.5; stroke-linejoin: miter"/>
     <use xlink:href="#m034f2c4d7b" x="198.748526" y="186.215834" style="fill-opacity: 0; stroke: #6495ed; stroke-width: 1.5; stroke-linejoin: miter"/>
     <use xlink:href="#m034f2c4d7b" x="198.748526" y="186.215834" style="fill-opacity: 0; stroke: #6495ed; stroke-width: 1.5; stroke-linejoin: miter"/>
     <use xlink:href="#m034f2c4d7b" x="360.8064" y="186.215834" style="fill-opacity: 0; stroke: #6495ed; stroke-width: 1.5; stroke-linejoin: miter"/>
    </g>
   </g>
   <g id="line2d_52">
    <path style="fill: none; stroke: #6495ed; stroke-width: 1.5; stroke-linecap: square"/>
    <g/>
   </g>
   <g id="line2d_53">
    <path d="M 230.861929 186.215834 
" clip-path="url(#p3a04c41cef)" style="fill: none; stroke: #6495ed; stroke-width: 1.5; stroke-linecap: square"/>
    <defs>
     <path id="m82e531ec08" d="M -12 12 
L 12 -12 
M -12 -12 
L 12 12 
" style="stroke: #6495ed"/>
    </defs>
    <g clip-path="url(#p3a04c41cef)">
     <use xlink:href="#m82e531ec08" x="230.861929" y="186.215834" style="fill: #6495ed; stroke: #6495ed"/>
    </g>
   </g>
   <g id="line2d_54">
    <defs>
     <path id="m6842b101d8" d="M 0 1.5 
C 0.397805 1.5 0.77937 1.341951 1.06066 1.06066 
C 1.341951 0.77937 1.5 0.397805 1.5 0 
C 1.5 -0.397805 1.341951 -0.77937 1.06066 -1.06066 
C 0.77937 -1.341951 0.397805 -1.5 0 -1.5 
C -0.397805 -1.5 -0.77937 -1.341951 -1.06066 -1.06066 
C -1.341951 -0.77937 -1.5 -0.397805 -1.5 0 
C -1.5 0.397805 -1.341951 0.77937 -1.06066 1.06066 
C -0.77937 1.341951 -0.397805 1.5 0 1.5 
z
" style="stroke: #ff0000"/>
    </defs>
    <g>
     <use xlink:href="#m6842b101d8" x="224.298418" y="176.8608" style="fill: #ff0000; stroke: #ff0000"/>
     <use xlink:href="#m6842b101d8" x="224.298418" y="176.8608" style="fill: #ff0000; stroke: #ff0000"/>
    </g>
   </g>
   <g id="line2d_55">
    <path d="M 27.323974 298.944 
L 27.323974 290.524469 
L 47.990577 290.524469 
L 47.990577 288.653462 
L 53.402323 288.653462 
L 53.402323 288.18571 
L 66.441498 288.18571 
L 66.441498 287.250207 
L 68.65718 287.250207 
L 68.65718 286.314703 
L 76.96874 286.314703 
L 76.96874 284.911448 
L 81.696354 284.911448 
L 81.696354 283.975945 
L 92.519847 283.975945 
L 92.519847 283.508193 
L 94.205591 283.508193 
L 94.205591 283.040441 
L 95.752617 283.040441 
L 95.752617 282.57269 
L 97.635342 282.57269 
L 97.635342 282.104938 
L 104.344952 282.104938 
L 104.344952 281.637186 
L 108.29012 281.637186 
L 108.29012 281.169434 
L 112.385837 281.169434 
L 112.385837 280.701683 
L 115.917548 280.701683 
L 115.917548 280.233931 
L 117.067958 280.233931 
L 117.067958 279.766179 
L 118.598196 279.766179 
L 118.598196 279.298428 
L 120.28394 279.298428 
L 120.28394 278.830676 
L 121.073351 278.830676 
L 121.073351 278.362924 
L 121.706797 278.362924 
L 121.706797 277.895172 
L 122.19863 277.895172 
L 122.19863 277.427421 
L 122.559246 277.427421 
L 122.559246 276.491917 
L 123.145323 276.491917 
L 123.145323 275.556414 
L 125.219419 275.556414 
L 125.219419 274.62091 
L 125.526971 274.62091 
L 125.526971 274.153159 
L 126.225624 274.153159 
L 126.225624 273.685407 
L 127.821575 273.685407 
L 127.821575 273.217655 
L 129.292652 273.217655 
L 129.292652 272.749903 
L 130.107132 272.749903 
L 130.107132 272.282152 
L 131.41562 272.282152 
L 131.489828 271.346648 
L 132.846847 271.346648 
L 132.846847 270.878897 
L 134.112526 270.878897 
L 134.112526 269.943393 
L 134.558167 269.943393 
L 134.558167 269.475641 
L 135.657857 269.475641 
L 135.657857 269.00789 
L 135.952253 269.00789 
L 135.952253 268.540138 
L 136.184497 268.540138 
L 136.184497 268.072386 
L 137.840541 268.072386 
L 137.840541 267.604634 
L 138.154948 267.604634 
L 138.154948 266.669131 
L 139.508159 266.669131 
L 139.508159 266.201379 
L 141.56737 266.201379 
L 141.56737 265.733628 
L 141.910969 265.733628 
L 141.910969 265.265876 
L 143.066428 265.265876 
L 143.066428 264.330372 
L 144.786447 264.330372 
L 144.786447 263.862621 
L 145.112353 263.862621 
L 145.112353 262.459366 
L 145.46797 262.459366 
L 145.46797 261.991614 
L 146.362288 261.991614 
L 146.395851 261.05611 
L 146.957431 261.05611 
L 146.957431 260.588359 
L 147.909315 260.588359 
L 147.909315 260.120607 
L 148.637595 260.120607 
L 148.697031 259.185103 
L 148.903591 259.185103 
L 148.903591 258.717352 
L 151.60532 258.717352 
L 151.60532 257.781848 
L 152.057422 257.781848 
L 152.057422 256.846345 
L 153.967309 256.846345 
L 153.967309 255.910841 
L 154.168026 255.910841 
L 154.168026 254.975338 
L 154.73613 254.975338 
L 154.73613 254.507586 
L 155.013876 254.507586 
L 155.013876 253.572083 
L 155.30847 253.572083 
L 155.30847 252.636579 
L 155.516105 252.636579 
L 155.516105 252.168828 
L 155.701037 252.168828 
L 155.701037 251.701076 
L 155.843627 251.701076 
L 155.843627 251.233324 
L 156.927882 251.233324 
L 156.927882 250.765572 
L 157.118477 250.765572 
L 157.118477 250.297821 
L 157.269574 250.297821 
L 157.269574 249.830069 
L 157.456756 249.830069 
L 157.456756 249.362317 
L 158.0976 249.362317 
L 158.0976 248.894566 
L 159.062507 248.894566 
L 159.062507 248.426814 
L 160.077795 248.426814 
L 160.077795 247.959062 
L 160.683643 247.959062 
L 160.683643 247.49131 
L 160.87098 247.49131 
L 160.87098 247.023559 
L 161.602209 247.023559 
L 161.617145 246.088055 
L 161.854518 246.088055 
L 161.854518 245.620303 
L 162.320462 245.620303 
L 162.320462 245.152552 
L 162.928937 245.152552 
L 162.928937 244.6848 
L 163.191653 244.6848 
L 163.191653 244.217048 
L 163.679588 244.217048 
L 163.679588 243.749297 
L 165.232599 243.749297 
L 165.343147 242.813793 
L 165.933882 242.813793 
L 165.933882 241.87829 
L 166.644276 241.87829 
L 166.712723 240.007283 
L 167.48247 240.007283 
L 167.48247 239.539531 
L 167.978675 239.539531 
L 167.978675 239.071779 
L 168.441364 239.071779 
L 168.441364 238.604028 
L 168.637696 238.604028 
L 168.637696 237.668524 
L 169.214689 237.668524 
L 169.214689 236.733021 
L 169.599518 236.733021 
L 169.599518 235.797517 
L 170.892171 235.797517 
L 170.892171 234.862014 
L 171.271304 234.862014 
L 171.271304 233.92651 
L 171.782615 233.92651 
L 171.782615 232.991007 
L 172.237998 232.991007 
L 172.237998 232.523255 
L 172.765341 232.523255 
L 172.765341 231.587752 
L 173.730661 231.587752 
L 173.730661 231.12 
L 173.847916 231.12 
L 173.847916 230.184497 
L 174.126381 230.184497 
L 174.126381 229.248993 
L 174.551519 229.248993 
L 174.641383 227.377986 
L 175.316441 227.377986 
L 175.316441 226.442483 
L 175.438571 226.442483 
L 175.524306 224.571476 
L 176.278825 224.571476 
L 176.278825 224.103724 
L 176.483152 224.103724 
L 176.591226 222.232717 
L 176.964669 222.232717 
L 176.964669 221.764966 
L 177.181311 221.764966 
L 177.181311 221.297214 
L 177.337316 221.297214 
L 177.337316 220.36171 
L 177.797717 220.36171 
L 177.797717 219.426207 
L 177.917356 219.426207 
L 177.917356 218.490703 
L 178.895753 218.490703 
L 178.895753 218.022952 
L 179.511235 218.022952 
L 179.511235 217.087448 
L 179.706294 217.087448 
L 179.706294 216.151945 
L 179.910646 216.151945 
L 179.933215 214.280938 
L 180.32938 214.280938 
L 180.32938 213.345434 
L 180.803715 213.345434 
L 180.803715 212.409931 
L 181.799822 212.409931 
L 181.799822 211.942179 
L 183.177853 211.942179 
L 183.281967 210.071172 
L 183.926786 210.071172 
L 183.926786 209.135669 
L 184.198438 209.135669 
L 184.198438 208.200166 
L 185.149405 208.200166 
L 185.149405 207.264662 
L 185.613703 207.264662 
L 185.613703 206.79691 
L 187.107881 206.79691 
L 187.107881 205.861407 
L 187.654392 205.861407 
L 187.654392 205.393655 
L 188.043112 205.393655 
L 188.043112 204.458152 
L 189.440862 204.458152 
L 189.440862 203.9904 
L 189.600068 203.9904 
L 189.600068 203.054897 
L 190.956531 203.054897 
L 190.956531 202.587145 
L 192.218791 202.587145 
L 192.218791 201.651641 
L 192.449217 201.651641 
L 192.486866 200.716138 
L 193.177094 200.716138 
L 193.177094 200.248386 
L 193.952938 200.248386 
L 193.952938 199.312883 
L 194.120792 199.312883 
L 194.229232 198.377379 
L 194.43643 198.377379 
L 194.43643 197.441876 
L 194.872158 197.441876 
L 194.872158 196.506372 
L 195.975835 196.506372 
L 195.975835 196.038621 
L 196.398851 196.038621 
L 196.398851 195.570869 
L 197.260074 195.570869 
L 197.260074 194.635366 
L 197.416558 194.635366 
L 197.456588 192.764359 
L 197.863138 192.764359 
L 197.863138 192.296607 
L 198.441144 192.296607 
L 198.441144 191.828855 
L 198.800305 191.828855 
L 198.800305 191.361103 
L 199.518608 191.361103 
L 199.518608 190.893352 
L 199.990445 190.893352 
L 200.098858 189.957848 
L 200.554652 189.957848 
L 200.554652 189.490097 
L 200.706654 189.490097 
L 200.706654 189.022345 
L 201.876868 189.022345 
L 201.883892 187.61909 
L 202.183462 187.61909 
L 202.183462 187.151338 
L 202.508929 187.151338 
L 202.508929 186.683586 
L 202.798784 186.683586 
L 202.798784 185.748083 
L 203.768372 185.748083 
L 203.768372 185.280331 
L 204.393191 185.280331 
L 204.393191 184.344828 
L 205.909788 184.344828 
L 205.909788 183.877076 
L 206.356586 183.877076 
L 206.356586 183.409324 
L 206.986759 183.409324 
L 206.986759 182.941572 
L 207.322392 182.941572 
L 207.342105 181.538317 
L 207.580947 181.538317 
L 207.580947 181.070566 
L 208.268553 181.070566 
L 208.268553 180.602814 
L 209.163434 180.602814 
L 209.163434 180.135062 
L 209.460337 180.135062 
L 209.460337 179.66731 
L 209.978895 179.66731 
L 209.978895 179.199559 
L 211.137797 179.199559 
L 211.137797 178.731807 
L 211.364008 178.731807 
L 211.364008 178.264055 
L 212.492968 178.264055 
L 212.492968 177.328552 
L 224.298418 177.328552 
L 224.298418 176.8608 
L 360.8064 176.8608 
L 360.8064 176.8608 
" style="fill: none; stroke: #ff0000; stroke-width: 1.5; stroke-linecap: square"/>
   </g>
   <g id="line2d_56">
    <defs>
     <path id="me861fb2dec" d="M 0 -6 
L -5.196152 -3 
L -5.196152 3 
L -0 6 
L 5.196152 3 
L 5.196152 -3 
z
" style="stroke: #ff0000; stroke-width: 1.5; stroke-linejoin: miter"/>
    </defs>
    <g>
     <use xlink:href="#me861fb2dec" x="123.145323" y="276.491917" style="fill-opacity: 0; stroke: #ff0000; stroke-width: 1.5; stroke-linejoin: miter"/>
     <use xlink:href="#me861fb2dec" x="184.198438" y="208.200166" style="fill-opacity: 0; stroke: #ff0000; stroke-width: 1.5; stroke-linejoin: miter"/>
     <use xlink:href="#me861fb2dec" x="224.298418" y="177.328552" style="fill-opacity: 0; stroke: #ff0000; stroke-width: 1.5; stroke-linejoin: miter"/>
     <use xlink:href="#me861fb2dec" x="224.298418" y="176.8608" style="fill-opacity: 0; stroke: #ff0000; stroke-width: 1.5; stroke-linejoin: miter"/>
     <use xlink:href="#me861fb2dec" x="224.298418" y="176.8608" style="fill-opacity: 0; stroke: #ff0000; stroke-width: 1.5; stroke-linejoin: miter"/>
     <use xlink:href="#me861fb2dec" x="360.8064" y="176.8608" style="fill-opacity: 0; stroke: #ff0000; stroke-width: 1.5; stroke-linejoin: miter"/>
    </g>
   </g>
   <g id="line2d_57">
    <path style="fill: none; stroke: #ff0000; stroke-width: 1.5; stroke-linecap: square"/>
    <g/>
   </g>
   <g id="line2d_58">
    <path d="M 274.176188 176.8608 
" clip-path="url(#p3a04c41cef)" style="fill: none; stroke: #ff0000; stroke-width: 1.5; stroke-linecap: square"/>
    <defs>
     <path id="mefadc73b14" d="M -12 12 
L 12 -12 
M -12 -12 
L 12 12 
" style="stroke: #ff0000"/>
    </defs>
    <g clip-path="url(#p3a04c41cef)">
     <use xlink:href="#mefadc73b14" x="274.176188" y="176.8608" style="fill: #ff0000; stroke: #ff0000"/>
    </g>
   </g>
   <g id="line2d_59">
    <path d="M 360.8064 186.215834 
L 380.514816 293.51808 
" style="fill: none; stroke: #6495ed; stroke-width: 1.5; stroke-linecap: square"/>
    <g>
     <use xlink:href="#m034f2c4d7b" x="360.8064" y="186.215834" style="fill-opacity: 0; stroke: #6495ed; stroke-width: 1.5; stroke-linejoin: miter"/>
     <use xlink:href="#m034f2c4d7b" x="380.514816" y="293.51808" style="fill-opacity: 0; stroke: #6495ed; stroke-width: 1.5; stroke-linejoin: miter"/>
    </g>
   </g>
   <g id="line2d_60">
    <path d="M 360.8064 182.006069 
L 380.514816 241.429248 
" style="fill: none; stroke: #ff7500; stroke-width: 1.5; stroke-linecap: square"/>
    <g>
     <use xlink:href="#m05edd48d7d" x="360.8064" y="182.006069" style="fill-opacity: 0; stroke: #ff7500; stroke-width: 1.5; stroke-linejoin: bevel"/>
     <use xlink:href="#m05edd48d7d" x="380.514816" y="241.429248" style="fill-opacity: 0; stroke: #ff7500; stroke-width: 1.5; stroke-linejoin: bevel"/>
    </g>
   </g>
   <g id="line2d_61">
    <path d="M 360.8064 181.070566 
L 380.514816 189.340416 
" style="fill: none; stroke: #ff00ff; stroke-width: 1.5; stroke-linecap: square"/>
    <g>
     <use xlink:href="#m55dcc25d8a" x="360.8064" y="181.070566" style="fill-opacity: 0; stroke: #ff00ff; stroke-width: 1.5; stroke-linejoin: miter"/>
     <use xlink:href="#m55dcc25d8a" x="380.514816" y="189.340416" style="fill-opacity: 0; stroke: #ff00ff; stroke-width: 1.5; stroke-linejoin: miter"/>
    </g>
   </g>
   <g id="line2d_62">
    <path d="M 360.8064 176.8608 
L 380.514816 137.251584 
" style="fill: none; stroke: #ff0000; stroke-width: 1.5; stroke-linecap: square"/>
    <g>
     <use xlink:href="#me861fb2dec" x="360.8064" y="176.8608" style="fill-opacity: 0; stroke: #ff0000; stroke-width: 1.5; stroke-linejoin: miter"/>
     <use xlink:href="#me861fb2dec" x="380.514816" y="137.251584" style="fill-opacity: 0; stroke: #ff0000; stroke-width: 1.5; stroke-linejoin: miter"/>
    </g>
   </g>
   <g id="line2d_63">
    <path d="M 360.8064 173.586538 
L 380.514816 85.162752 
" style="fill: none; stroke: #000080; stroke-width: 1.5; stroke-linecap: square"/>
    <g>
     <use xlink:href="#m2390812337" x="360.8064" y="173.586538" style="fill-opacity: 0; stroke: #000080; stroke-width: 1.5"/>
     <use xlink:href="#m2390812337" x="380.514816" y="85.162752" style="fill-opacity: 0; stroke: #000080; stroke-width: 1.5"/>
    </g>
   </g>
   <g id="line2d_64">
    <path d="M 360.8064 298.944 
L 360.8064 27.648 
" style="fill: none; stroke: #000000; stroke-width: 1.5; stroke-linecap: square"/>
   </g>
   <g id="patch_3">
    <path d="M 57.6 298.944 
L 360.8064 298.944 
" style="fill: none; stroke: #000000; stroke-width: 0.8; stroke-linejoin: miter; stroke-linecap: square"/>
   </g>
   <g id="patch_4">
    <path d="M 57.6 27.648 
L 360.8064 27.648 
" style="fill: none; stroke: #000000; stroke-width: 0.8; stroke-linejoin: miter; stroke-linecap: square"/>
   </g>
   <g id="text_13">
    <!-- kerLQ -->
    <g transform="translate(386.578944 297.381205) scale(0.14 -0.14)">
     <defs>
      <path id="DejaVuSans-6b" d="M 581 4863 
L 1159 4863 
L 1159 1991 
L 2875 3500 
L 3609 3500 
L 1753 1863 
L 3688 0 
L 2938 0 
L 1159 1709 
L 1159 0 
L 581 0 
L 581 4863 
z
" transform="scale(0.015625)"/>
      <path id="DejaVuSans-4c" d="M 628 4666 
L 1259 4666 
L 1259 531 
L 3531 531 
L 3531 0 
L 628 0 
L 628 4666 
z
" transform="scale(0.015625)"/>
      <path id="DejaVuSans-51" d="M 2522 4238 
Q 1834 4238 1429 3725 
Q 1025 3213 1025 2328 
Q 1025 1447 1429 934 
Q 1834 422 2522 422 
Q 3209 422 3611 934 
Q 4013 1447 4013 2328 
Q 4013 3213 3611 3725 
Q 3209 4238 2522 4238 
z
M 3406 84 
L 4238 -825 
L 3475 -825 
L 2784 -78 
Q 2681 -84 2626 -87 
Q 2572 -91 2522 -91 
Q 1538 -91 948 567 
Q 359 1225 359 2328 
Q 359 3434 948 4092 
Q 1538 4750 2522 4750 
Q 3503 4750 4090 4092 
Q 4678 3434 4678 2328 
Q 4678 1516 4351 937 
Q 4025 359 3406 84 
z
" transform="scale(0.015625)"/>
     </defs>
     <use xlink:href="#DejaVuSans-6b"/>
     <use xlink:href="#DejaVuSans-65" x="54.285156"/>
     <use xlink:href="#DejaVuSans-72" x="115.808594"/>
     <use xlink:href="#DejaVuSans-4c" x="156.921875"/>
     <use xlink:href="#DejaVuSans-51" x="212.634766"/>
    </g>
   </g>
   <g id="text_14">
    <!-- kerComo -->
    <g transform="translate(386.578944 245.292373) scale(0.14 -0.14)">
     <defs>
      <path id="DejaVuSans-43" d="M 4122 4306 
L 4122 3641 
Q 3803 3938 3442 4084 
Q 3081 4231 2675 4231 
Q 1875 4231 1450 3742 
Q 1025 3253 1025 2328 
Q 1025 1406 1450 917 
Q 1875 428 2675 428 
Q 3081 428 3442 575 
Q 3803 722 4122 1019 
L 4122 359 
Q 3791 134 3420 21 
Q 3050 -91 2638 -91 
Q 1578 -91 968 557 
Q 359 1206 359 2328 
Q 359 3453 968 4101 
Q 1578 4750 2638 4750 
Q 3056 4750 3426 4639 
Q 3797 4528 4122 4306 
z
" transform="scale(0.015625)"/>
     </defs>
     <use xlink:href="#DejaVuSans-6b"/>
     <use xlink:href="#DejaVuSans-65" x="54.285156"/>
     <use xlink:href="#DejaVuSans-72" x="115.808594"/>
     <use xlink:href="#DejaVuSans-43" x="156.921875"/>
     <use xlink:href="#DejaVuSans-6f" x="226.746094"/>
     <use xlink:href="#DejaVuSans-6d" x="287.927734"/>
     <use xlink:href="#DejaVuSans-6f" x="385.339844"/>
    </g>
   </g>
   <g id="text_15">
    <!-- AllLQ -->
    <g transform="translate(386.578944 193.203541) scale(0.14 -0.14)">
     <defs>
      <path id="DejaVuSans-41" d="M 2188 4044 
L 1331 1722 
L 3047 1722 
L 2188 4044 
z
M 1831 4666 
L 2547 4666 
L 4325 0 
L 3669 0 
L 3244 1197 
L 1141 1197 
L 716 0 
L 50 0 
L 1831 4666 
z
" transform="scale(0.015625)"/>
     </defs>
     <use xlink:href="#DejaVuSans-41"/>
     <use xlink:href="#DejaVuSans-6c" x="68.408203"/>
     <use xlink:href="#DejaVuSans-6c" x="96.191406"/>
     <use xlink:href="#DejaVuSans-4c" x="123.974609"/>
     <use xlink:href="#DejaVuSans-51" x="179.6875"/>
    </g>
   </g>
   <g id="text_16">
    <!-- COMO-10 d -->
    <g transform="translate(386.578944 141.114709) scale(0.14 -0.14)">
     <defs>
      <path id="DejaVuSans-4f" d="M 2522 4238 
Q 1834 4238 1429 3725 
Q 1025 3213 1025 2328 
Q 1025 1447 1429 934 
Q 1834 422 2522 422 
Q 3209 422 3611 934 
Q 4013 1447 4013 2328 
Q 4013 3213 3611 3725 
Q 3209 4238 2522 4238 
z
M 2522 4750 
Q 3503 4750 4090 4092 
Q 4678 3434 4678 2328 
Q 4678 1225 4090 567 
Q 3503 -91 2522 -91 
Q 1538 -91 948 565 
Q 359 1222 359 2328 
Q 359 3434 948 4092 
Q 1538 4750 2522 4750 
z
" transform="scale(0.015625)"/>
      <path id="DejaVuSans-4d" d="M 628 4666 
L 1569 4666 
L 2759 1491 
L 3956 4666 
L 4897 4666 
L 4897 0 
L 4281 0 
L 4281 4097 
L 3078 897 
L 2444 897 
L 1241 4097 
L 1241 0 
L 628 0 
L 628 4666 
z
" transform="scale(0.015625)"/>
     </defs>
     <use xlink:href="#DejaVuSans-43"/>
     <use xlink:href="#DejaVuSans-4f" x="69.824219"/>
     <use xlink:href="#DejaVuSans-4d" x="148.535156"/>
     <use xlink:href="#DejaVuSans-4f" x="234.814453"/>
     <use xlink:href="#DejaVuSans-2d" x="316.275391"/>
     <use xlink:href="#DejaVuSans-31" x="352.359375"/>
     <use xlink:href="#DejaVuSans-30" x="415.982422"/>
     <use xlink:href="#DejaVuSans-20" x="479.605469"/>
     <use xlink:href="#DejaVuSans-64" x="511.392578"/>
    </g>
   </g>
   <g id="text_17">
    <!-- AllComo -->
    <g transform="translate(386.578944 89.025877) scale(0.14 -0.14)">
     <use xlink:href="#DejaVuSans-41"/>
     <use xlink:href="#DejaVuSans-6c" x="68.408203"/>
     <use xlink:href="#DejaVuSans-6c" x="96.191406"/>
     <use xlink:href="#DejaVuSans-43" x="123.974609"/>
     <use xlink:href="#DejaVuSans-6f" x="193.798828"/>
     <use xlink:href="#DejaVuSans-6d" x="254.980469"/>
     <use xlink:href="#DejaVuSans-6f" x="352.392578"/>
    </g>
   </g>
   <g id="text_18">
    <!-- best 2016 -->
    <g transform="translate(386.578944 36.937045) scale(0.14 -0.14)">
     <defs>
      <path id="DejaVuSans-62" d="M 3116 1747 
Q 3116 2381 2855 2742 
Q 2594 3103 2138 3103 
Q 1681 3103 1420 2742 
Q 1159 2381 1159 1747 
Q 1159 1113 1420 752 
Q 1681 391 2138 391 
Q 2594 391 2855 752 
Q 3116 1113 3116 1747 
z
M 1159 2969 
Q 1341 3281 1617 3432 
Q 1894 3584 2278 3584 
Q 2916 3584 3314 3078 
Q 3713 2572 3713 1747 
Q 3713 922 3314 415 
Q 2916 -91 2278 -91 
Q 1894 -91 1617 61 
Q 1341 213 1159 525 
L 1159 0 
L 581 0 
L 581 4863 
L 1159 4863 
L 1159 2969 
z
" transform="scale(0.015625)"/>
     </defs>
     <use xlink:href="#DejaVuSans-62"/>
     <use xlink:href="#DejaVuSans-65" x="63.476562"/>
     <use xlink:href="#DejaVuSans-73" x="125"/>
     <use xlink:href="#DejaVuSans-74" x="177.099609"/>
     <use xlink:href="#DejaVuSans-20" x="216.308594"/>
     <use xlink:href="#DejaVuSans-32" x="248.095703"/>
     <use xlink:href="#DejaVuSans-30" x="311.71875"/>
     <use xlink:href="#DejaVuSans-31" x="375.341797"/>
     <use xlink:href="#DejaVuSans-36" x="438.964844"/>
    </g>
   </g>
   <g id="text_19">
    <!-- bbob-biobj f36, 5-D -->
    <g transform="translate(60.632064 38.111366) scale(0.102 -0.102)">
     <defs>
      <path id="DejaVuSans-6a" d="M 603 3500 
L 1178 3500 
L 1178 -63 
Q 1178 -731 923 -1031 
Q 669 -1331 103 -1331 
L -116 -1331 
L -116 -844 
L 38 -844 
Q 366 -844 484 -692 
Q 603 -541 603 -63 
L 603 3500 
z
M 603 4863 
L 1178 4863 
L 1178 4134 
L 603 4134 
L 603 4863 
z
" transform="scale(0.015625)"/>
      <path id="DejaVuSans-33" d="M 2597 2516 
Q 3050 2419 3304 2112 
Q 3559 1806 3559 1356 
Q 3559 666 3084 287 
Q 2609 -91 1734 -91 
Q 1441 -91 1130 -33 
Q 819 25 488 141 
L 488 750 
Q 750 597 1062 519 
Q 1375 441 1716 441 
Q 2309 441 2620 675 
Q 2931 909 2931 1356 
Q 2931 1769 2642 2001 
Q 2353 2234 1838 2234 
L 1294 2234 
L 1294 2753 
L 1863 2753 
Q 2328 2753 2575 2939 
Q 2822 3125 2822 3475 
Q 2822 3834 2567 4026 
Q 2313 4219 1838 4219 
Q 1578 4219 1281 4162 
Q 984 4106 628 3988 
L 628 4550 
Q 988 4650 1302 4700 
Q 1616 4750 1894 4750 
Q 2613 4750 3031 4423 
Q 3450 4097 3450 3541 
Q 3450 3153 3228 2886 
Q 3006 2619 2597 2516 
z
" transform="scale(0.015625)"/>
      <path id="DejaVuSans-35" d="M 691 4666 
L 3169 4666 
L 3169 4134 
L 1269 4134 
L 1269 2991 
Q 1406 3038 1543 3061 
Q 1681 3084 1819 3084 
Q 2600 3084 3056 2656 
Q 3513 2228 3513 1497 
Q 3513 744 3044 326 
Q 2575 -91 1722 -91 
Q 1428 -91 1123 -41 
Q 819 9 494 109 
L 494 744 
Q 775 591 1075 516 
Q 1375 441 1709 441 
Q 2250 441 2565 725 
Q 2881 1009 2881 1497 
Q 2881 1984 2565 2268 
Q 2250 2553 1709 2553 
Q 1456 2553 1204 2497 
Q 953 2441 691 2322 
L 691 4666 
z
" transform="scale(0.015625)"/>
      <path id="DejaVuSans-44" d="M 1259 4147 
L 1259 519 
L 2022 519 
Q 2988 519 3436 956 
Q 3884 1394 3884 2338 
Q 3884 3275 3436 3711 
Q 2988 4147 2022 4147 
L 1259 4147 
z
M 628 4666 
L 1925 4666 
Q 3281 4666 3915 4102 
Q 4550 3538 4550 2338 
Q 4550 1131 3912 565 
Q 3275 0 1925 0 
L 628 0 
L 628 4666 
z
" transform="scale(0.015625)"/>
     </defs>
     <use xlink:href="#DejaVuSans-62"/>
     <use xlink:href="#DejaVuSans-62" x="63.476562"/>
     <use xlink:href="#DejaVuSans-6f" x="126.953125"/>
     <use xlink:href="#DejaVuSans-62" x="188.134766"/>
     <use xlink:href="#DejaVuSans-2d" x="251.611328"/>
     <use xlink:href="#DejaVuSans-62" x="287.695312"/>
     <use xlink:href="#DejaVuSans-69" x="351.171875"/>
     <use xlink:href="#DejaVuSans-6f" x="378.955078"/>
     <use xlink:href="#DejaVuSans-62" x="440.136719"/>
     <use xlink:href="#DejaVuSans-6a" x="503.613281"/>
     <use xlink:href="#DejaVuSans-20" x="531.396484"/>
     <use xlink:href="#DejaVuSans-66" x="563.183594"/>
     <use xlink:href="#DejaVuSans-33" x="598.388672"/>
     <use xlink:href="#DejaVuSans-36" x="662.011719"/>
     <use xlink:href="#DejaVuSans-2c" x="725.634766"/>
     <use xlink:href="#DejaVuSans-20" x="757.421875"/>
     <use xlink:href="#DejaVuSans-35" x="789.208984"/>
     <use xlink:href="#DejaVuSans-2d" x="852.832031"/>
     <use xlink:href="#DejaVuSans-44" x="888.916016"/>
    </g>
    <!-- 58 targets: 1..-1.0e-4 -->
    <g transform="translate(60.632064 49.533135) scale(0.102 -0.102)">
     <defs>
      <path id="DejaVuSans-3a" d="M 750 794 
L 1409 794 
L 1409 0 
L 750 0 
L 750 794 
z
M 750 3309 
L 1409 3309 
L 1409 2516 
L 750 2516 
L 750 3309 
z
" transform="scale(0.015625)"/>
     </defs>
     <use xlink:href="#DejaVuSans-35"/>
     <use xlink:href="#DejaVuSans-38" x="63.623047"/>
     <use xlink:href="#DejaVuSans-20" x="127.246094"/>
     <use xlink:href="#DejaVuSans-74" x="159.033203"/>
     <use xlink:href="#DejaVuSans-61" x="198.242188"/>
     <use xlink:href="#DejaVuSans-72" x="259.521484"/>
     <use xlink:href="#DejaVuSans-67" x="298.884766"/>
     <use xlink:href="#DejaVuSans-65" x="362.361328"/>
     <use xlink:href="#DejaVuSans-74" x="423.884766"/>
     <use xlink:href="#DejaVuSans-73" x="463.09375"/>
     <use xlink:href="#DejaVuSans-3a" x="515.193359"/>
     <use xlink:href="#DejaVuSans-20" x="548.884766"/>
     <use xlink:href="#DejaVuSans-31" x="580.671875"/>
     <use xlink:href="#DejaVuSans-2e" x="644.294922"/>
     <use xlink:href="#DejaVuSans-2e" x="676.082031"/>
     <use xlink:href="#DejaVuSans-2d" x="707.869141"/>
     <use xlink:href="#DejaVuSans-31" x="743.953125"/>
     <use xlink:href="#DejaVuSans-2e" x="807.576172"/>
     <use xlink:href="#DejaVuSans-30" x="839.363281"/>
     <use xlink:href="#DejaVuSans-65" x="902.986328"/>
     <use xlink:href="#DejaVuSans-2d" x="964.509766"/>
     <use xlink:href="#DejaVuSans-34" x="1000.59375"/>
    </g>
    <!-- 10 instances -->
    <g transform="translate(60.632064 60.954904) scale(0.102 -0.102)">
     <use xlink:href="#DejaVuSans-31"/>
     <use xlink:href="#DejaVuSans-30" x="63.623047"/>
     <use xlink:href="#DejaVuSans-20" x="127.246094"/>
     <use xlink:href="#DejaVuSans-69" x="159.033203"/>
     <use xlink:href="#DejaVuSans-6e" x="186.816406"/>
     <use xlink:href="#DejaVuSans-73" x="250.195312"/>
     <use xlink:href="#DejaVuSans-74" x="302.294922"/>
     <use xlink:href="#DejaVuSans-61" x="341.503906"/>
     <use xlink:href="#DejaVuSans-6e" x="402.783203"/>
     <use xlink:href="#DejaVuSans-63" x="466.162109"/>
     <use xlink:href="#DejaVuSans-65" x="521.142578"/>
     <use xlink:href="#DejaVuSans-73" x="582.666016"/>
    </g>
   </g>
   <g id="text_20">
    <!-- v2.6, hv-hash=d240b271ab0b4926 -->
    <g style="fill: #808080" transform="translate(120.362575 294.151352) scale(0.1 -0.1)">
     <defs>
      <path id="DejaVuSans-68" d="M 3513 2113 
L 3513 0 
L 2938 0 
L 2938 2094 
Q 2938 2591 2744 2837 
Q 2550 3084 2163 3084 
Q 1697 3084 1428 2787 
Q 1159 2491 1159 1978 
L 1159 0 
L 581 0 
L 581 4863 
L 1159 4863 
L 1159 2956 
Q 1366 3272 1645 3428 
Q 1925 3584 2291 3584 
Q 2894 3584 3203 3211 
Q 3513 2838 3513 2113 
z
" transform="scale(0.015625)"/>
      <path id="DejaVuSans-3d" d="M 678 2906 
L 4684 2906 
L 4684 2381 
L 678 2381 
L 678 2906 
z
M 678 1631 
L 4684 1631 
L 4684 1100 
L 678 1100 
L 678 1631 
z
" transform="scale(0.015625)"/>
      <path id="DejaVuSans-37" d="M 525 4666 
L 3525 4666 
L 3525 4397 
L 1831 0 
L 1172 0 
L 2766 4134 
L 525 4134 
L 525 4666 
z
" transform="scale(0.015625)"/>
      <path id="DejaVuSans-39" d="M 703 97 
L 703 672 
Q 941 559 1184 500 
Q 1428 441 1663 441 
Q 2288 441 2617 861 
Q 2947 1281 2994 2138 
Q 2813 1869 2534 1725 
Q 2256 1581 1919 1581 
Q 1219 1581 811 2004 
Q 403 2428 403 3163 
Q 403 3881 828 4315 
Q 1253 4750 1959 4750 
Q 2769 4750 3195 4129 
Q 3622 3509 3622 2328 
Q 3622 1225 3098 567 
Q 2575 -91 1691 -91 
Q 1453 -91 1209 -44 
Q 966 3 703 97 
z
M 1959 2075 
Q 2384 2075 2632 2365 
Q 2881 2656 2881 3163 
Q 2881 3666 2632 3958 
Q 2384 4250 1959 4250 
Q 1534 4250 1286 3958 
Q 1038 3666 1038 3163 
Q 1038 2656 1286 2365 
Q 1534 2075 1959 2075 
z
" transform="scale(0.015625)"/>
     </defs>
     <use xlink:href="#DejaVuSans-76"/>
     <use xlink:href="#DejaVuSans-32" x="59.179688"/>
     <use xlink:href="#DejaVuSans-2e" x="122.802734"/>
     <use xlink:href="#DejaVuSans-36" x="154.589844"/>
     <use xlink:href="#DejaVuSans-2c" x="218.212891"/>
     <use xlink:href="#DejaVuSans-20" x="250"/>
     <use xlink:href="#DejaVuSans-68" x="281.787109"/>
     <use xlink:href="#DejaVuSans-76" x="345.166016"/>
     <use xlink:href="#DejaVuSans-2d" x="401.720703"/>
     <use xlink:href="#DejaVuSans-68" x="437.804688"/>
     <use xlink:href="#DejaVuSans-61" x="501.183594"/>
     <use xlink:href="#DejaVuSans-73" x="562.462891"/>
     <use xlink:href="#DejaVuSans-68" x="614.5625"/>
     <use xlink:href="#DejaVuSans-3d" x="677.941406"/>
     <use xlink:href="#DejaVuSans-64" x="761.730469"/>
     <use xlink:href="#DejaVuSans-32" x="825.207031"/>
     <use xlink:href="#DejaVuSans-34" x="888.830078"/>
     <use xlink:href="#DejaVuSans-30" x="952.453125"/>
     <use xlink:href="#DejaVuSans-62" x="1016.076172"/>
     <use xlink:href="#DejaVuSans-32" x="1079.552734"/>
     <use xlink:href="#DejaVuSans-37" x="1143.175781"/>
     <use xlink:href="#DejaVuSans-31" x="1206.798828"/>
     <use xlink:href="#DejaVuSans-61" x="1270.421875"/>
     <use xlink:href="#DejaVuSans-62" x="1331.701172"/>
     <use xlink:href="#DejaVuSans-30" x="1395.177734"/>
     <use xlink:href="#DejaVuSans-62" x="1458.800781"/>
     <use xlink:href="#DejaVuSans-34" x="1522.277344"/>
     <use xlink:href="#DejaVuSans-39" x="1585.900391"/>
     <use xlink:href="#DejaVuSans-32" x="1649.523438"/>
     <use xlink:href="#DejaVuSans-36" x="1713.146484"/>
    </g>
   </g>
   <g id="text_21">
    <!-- 36 Sharp ridge/Diff. Powers -->
    <g transform="translate(73.1532 21.648) scale(0.2 -0.2)">
     <defs>
      <path id="DejaVuSans-53" d="M 3425 4513 
L 3425 3897 
Q 3066 4069 2747 4153 
Q 2428 4238 2131 4238 
Q 1616 4238 1336 4038 
Q 1056 3838 1056 3469 
Q 1056 3159 1242 3001 
Q 1428 2844 1947 2747 
L 2328 2669 
Q 3034 2534 3370 2195 
Q 3706 1856 3706 1288 
Q 3706 609 3251 259 
Q 2797 -91 1919 -91 
Q 1588 -91 1214 -16 
Q 841 59 441 206 
L 441 856 
Q 825 641 1194 531 
Q 1563 422 1919 422 
Q 2459 422 2753 634 
Q 3047 847 3047 1241 
Q 3047 1584 2836 1778 
Q 2625 1972 2144 2069 
L 1759 2144 
Q 1053 2284 737 2584 
Q 422 2884 422 3419 
Q 422 4038 858 4394 
Q 1294 4750 2059 4750 
Q 2388 4750 2728 4690 
Q 3069 4631 3425 4513 
z
" transform="scale(0.015625)"/>
      <path id="DejaVuSans-50" d="M 1259 4147 
L 1259 2394 
L 2053 2394 
Q 2494 2394 2734 2622 
Q 2975 2850 2975 3272 
Q 2975 3691 2734 3919 
Q 2494 4147 2053 4147 
L 1259 4147 
z
M 628 4666 
L 2053 4666 
Q 2838 4666 3239 4311 
Q 3641 3956 3641 3272 
Q 3641 2581 3239 2228 
Q 2838 1875 2053 1875 
L 1259 1875 
L 1259 0 
L 628 0 
L 628 4666 
z
" transform="scale(0.015625)"/>
      <path id="DejaVuSans-77" d="M 269 3500 
L 844 3500 
L 1563 769 
L 2278 3500 
L 2956 3500 
L 3675 769 
L 4391 3500 
L 4966 3500 
L 4050 0 
L 3372 0 
L 2619 2869 
L 1863 0 
L 1184 0 
L 269 3500 
z
" transform="scale(0.015625)"/>
     </defs>
     <use xlink:href="#DejaVuSans-33"/>
     <use xlink:href="#DejaVuSans-36" x="63.623047"/>
     <use xlink:href="#DejaVuSans-20" x="127.246094"/>
     <use xlink:href="#DejaVuSans-53" x="159.033203"/>
     <use xlink:href="#DejaVuSans-68" x="222.509766"/>
     <use xlink:href="#DejaVuSans-61" x="285.888672"/>
     <use xlink:href="#DejaVuSans-72" x="347.167969"/>
     <use xlink:href="#DejaVuSans-70" x="388.28125"/>
     <use xlink:href="#DejaVuSans-20" x="451.757812"/>
     <use xlink:href="#DejaVuSans-72" x="483.544922"/>
     <use xlink:href="#DejaVuSans-69" x="524.658203"/>
     <use xlink:href="#DejaVuSans-64" x="552.441406"/>
     <use xlink:href="#DejaVuSans-67" x="615.917969"/>
     <use xlink:href="#DejaVuSans-65" x="679.394531"/>
     <use xlink:href="#DejaVuSans-2f" x="740.917969"/>
     <use xlink:href="#DejaVuSans-44" x="774.609375"/>
     <use xlink:href="#DejaVuSans-69" x="851.611328"/>
     <use xlink:href="#DejaVuSans-66" x="879.394531"/>
     <use xlink:href="#DejaVuSans-66" x="914.599609"/>
     <use xlink:href="#DejaVuSans-2e" x="942.554688"/>
     <use xlink:href="#DejaVuSans-20" x="974.341797"/>
     <use xlink:href="#DejaVuSans-50" x="1006.128906"/>
     <use xlink:href="#DejaVuSans-6f" x="1062.806641"/>
     <use xlink:href="#DejaVuSans-77" x="1123.988281"/>
     <use xlink:href="#DejaVuSans-65" x="1205.775391"/>
     <use xlink:href="#DejaVuSans-72" x="1267.298828"/>
     <use xlink:href="#DejaVuSans-73" x="1308.412109"/>
    </g>
   </g>
  </g>
 </g>
 <defs>
  <clipPath id="p3a04c41cef">
   <rect x="57.6" y="27.648" width="303.2064" height="271.296"/>
  </clipPath>
 </defs>
</svg>
