<?xml version="1.0" encoding="utf-8" standalone="no"?>
<!DOCTYPE svg PUBLIC "-//W3C//DTD SVG 1.1//EN"
  "http://www.w3.org/Graphics/SVG/1.1/DTD/svg11.dtd">
<svg xmlns:xlink="http://www.w3.org/1999/xlink" width="460.8pt" height="345.6pt" viewBox="0 0 460.8 345.6" xmlns="http://www.w3.org/2000/svg" version="1.1">
 <metadata>
  <rdf:RDF xmlns:dc="http://purl.org/dc/elements/1.1/" xmlns:cc="http://creativecommons.org/ns#" xmlns:rdf="http://www.w3.org/1999/02/22-rdf-syntax-ns#">
   <cc:Work>
    <dc:type rdf:resource="http://purl.org/dc/dcmitype/StillImage"/>
    <dc:date>2023-02-10T02:07:23.635699</dc:date>
    <dc:format>image/svg+xml</dc:format>
    <dc:creator>
     <cc:Agent>
      <dc:title>Matplotlib v3.6.3, https://matplotlib.org/</dc:title>
     </cc:Agent>
    </dc:creator>
   </cc:Work>
  </rdf:RDF>
 </metadata>
 <defs>
  <style type="text/css">*{stroke-linejoin: round; stroke-linecap: butt}</style>
 </defs>
 <g id="figure_1">
  <g id="patch_1">
   <path d="M 0 345.6 
L 460.8 345.6 
L 460.8 0 
L 0 0 
z
" style="fill: #ffffff"/>
  </g>
  <g id="axes_1">
   <g id="patch_2">
    <path d="M 57.6 298.944 
L 360.8064 298.944 
L 360.8064 27.648 
L 57.6 27.648 
z
" style="fill: #ffffff"/>
   </g>
   <g id="line2d_1">
    <path d="M 57.6 298.944 
L 57.6 294.266483 
L 72.432107 294.266483 
L 72.432107 284.911448 
L 79.480672 284.911448 
L 79.480672 275.556414 
L 87.876026 275.556414 
L 87.876026 270.878897 
L 93.66029 270.878897 
L 93.66029 256.846345 
L 103.047088 256.846345 
L 103.047088 247.49131 
L 110.674517 247.49131 
L 110.674517 242.813793 
L 116.907859 242.813793 
L 116.907859 233.458759 
L 121.581803 233.458759 
L 121.581803 219.426207 
L 128.786481 219.426207 
L 128.786481 210.071172 
L 141.65386 210.071172 
L 141.65386 200.716138 
L 149.679732 200.716138 
L 149.679732 191.361103 
L 158.223191 191.361103 
L 158.223191 186.683586 
L 173.03578 186.683586 
L 173.03578 172.651034 
L 186.576733 172.651034 
L 186.576733 167.973517 
L 198.993731 167.973517 
L 198.993731 153.940966 
L 209.879305 153.940966 
L 209.879305 144.585931 
L 221.688334 144.585931 
L 221.688334 139.908414 
L 230.554705 139.908414 
L 230.554705 125.875862 
L 239.62997 125.875862 
L 239.62997 121.198345 
L 244.28632 121.198345 
L 244.28632 107.165793 
L 249.93322 107.165793 
L 249.93322 97.810759 
L 257.063364 97.810759 
L 257.063364 88.455724 
L 276.435641 88.455724 
L 276.435641 83.778207 
L 285.267678 83.778207 
L 285.267678 74.423172 
L 288.505705 74.423172 
L 288.505705 60.390621 
L 360.8064 60.390621 
" style="fill: none; stroke: #f5deb3; stroke-width: 4; stroke-linecap: square"/>
   </g>
   <g id="line2d_2">
    <defs>
     <path id="m37c90f98ff" d="M -0 7.778175 
L 7.778175 0 
L 0 -7.778175 
L -7.778175 -0 
z
" style="stroke: #f5deb3; stroke-width: 1.5; stroke-linejoin: miter"/>
    </defs>
    <g>
     <use xlink:href="#m37c90f98ff" x="121.581803" y="233.458759" style="fill: #f5deb3; stroke: #f5deb3; stroke-width: 1.5; stroke-linejoin: miter"/>
     <use xlink:href="#m37c90f98ff" x="198.993731" y="153.940966" style="fill: #f5deb3; stroke: #f5deb3; stroke-width: 1.5; stroke-linejoin: miter"/>
     <use xlink:href="#m37c90f98ff" x="285.267678" y="74.423172" style="fill: #f5deb3; stroke: #f5deb3; stroke-width: 1.5; stroke-linejoin: miter"/>
     <use xlink:href="#m37c90f98ff" x="288.505705" y="60.390621" style="fill: #f5deb3; stroke: #f5deb3; stroke-width: 1.5; stroke-linejoin: miter"/>
     <use xlink:href="#m37c90f98ff" x="360.8064" y="60.390621" style="fill: #f5deb3; stroke: #f5deb3; stroke-width: 1.5; stroke-linejoin: miter"/>
    </g>
   </g>
   <g id="line2d_3">
    <path style="fill: none; stroke: #f5deb3; stroke-width: 4; stroke-linecap: square"/>
    <g/>
   </g>
   <g id="line2d_4">
    <path d="M 360.8064 60.390621 
L 380.514816 33.07392 
" style="fill: none; stroke: #f5deb3; stroke-width: 4; stroke-linecap: square"/>
    <g>
     <use xlink:href="#m37c90f98ff" x="360.8064" y="60.390621" style="fill: #f5deb3; stroke: #f5deb3; stroke-width: 1.5; stroke-linejoin: miter"/>
     <use xlink:href="#m37c90f98ff" x="380.514816" y="33.07392" style="fill: #f5deb3; stroke: #f5deb3; stroke-width: 1.5; stroke-linejoin: miter"/>
    </g>
   </g>
   <g id="matplotlib.axis_1">
    <g id="xtick_1">
     <g id="line2d_5">
      <path d="M 57.6 298.944 
L 57.6 27.648 
" clip-path="url(#p0bc9a28043)" style="fill: none; stroke: #b0b0b0; stroke-width: 0.8; stroke-linecap: square"/>
     </g>
     <g id="line2d_6">
      <defs>
       <path id="m1d52658b6e" d="M 0 0 
L 0 3.5 
" style="stroke: #000000; stroke-width: 0.8"/>
      </defs>
      <g>
       <use xlink:href="#m1d52658b6e" x="57.6" y="298.944" style="stroke: #000000; stroke-width: 0.8"/>
      </g>
     </g>
     <g id="text_1">
      <!-- 0 -->
      <g transform="translate(52.191875 318.861344) scale(0.17 -0.17)">
       <defs>
        <path id="DejaVuSans-30" d="M 2034 4250 
Q 1547 4250 1301 3770 
Q 1056 3291 1056 2328 
Q 1056 1369 1301 889 
Q 1547 409 2034 409 
Q 2525 409 2770 889 
Q 3016 1369 3016 2328 
Q 3016 3291 2770 3770 
Q 2525 4250 2034 4250 
z
M 2034 4750 
Q 2819 4750 3233 4129 
Q 3647 3509 3647 2328 
Q 3647 1150 3233 529 
Q 2819 -91 2034 -91 
Q 1250 -91 836 529 
Q 422 1150 422 2328 
Q 422 3509 836 4129 
Q 1250 4750 2034 4750 
z
" transform="scale(0.015625)"/>
       </defs>
       <use xlink:href="#DejaVuSans-30"/>
      </g>
     </g>
    </g>
    <g id="xtick_2">
     <g id="line2d_7">
      <path d="M 144.2304 298.944 
L 144.2304 27.648 
" clip-path="url(#p0bc9a28043)" style="fill: none; stroke: #b0b0b0; stroke-width: 0.8; stroke-linecap: square"/>
     </g>
     <g id="line2d_8">
      <g>
       <use xlink:href="#m1d52658b6e" x="144.2304" y="298.944" style="stroke: #000000; stroke-width: 0.8"/>
      </g>
     </g>
     <g id="text_2">
      <!-- 2 -->
      <g transform="translate(138.822275 318.861344) scale(0.17 -0.17)">
       <defs>
        <path id="DejaVuSans-32" d="M 1228 531 
L 3431 531 
L 3431 0 
L 469 0 
L 469 531 
Q 828 903 1448 1529 
Q 2069 2156 2228 2338 
Q 2531 2678 2651 2914 
Q 2772 3150 2772 3378 
Q 2772 3750 2511 3984 
Q 2250 4219 1831 4219 
Q 1534 4219 1204 4116 
Q 875 4013 500 3803 
L 500 4441 
Q 881 4594 1212 4672 
Q 1544 4750 1819 4750 
Q 2544 4750 2975 4387 
Q 3406 4025 3406 3419 
Q 3406 3131 3298 2873 
Q 3191 2616 2906 2266 
Q 2828 2175 2409 1742 
Q 1991 1309 1228 531 
z
" transform="scale(0.015625)"/>
       </defs>
       <use xlink:href="#DejaVuSans-32"/>
      </g>
     </g>
    </g>
    <g id="xtick_3">
     <g id="line2d_9">
      <path d="M 230.8608 298.944 
L 230.8608 27.648 
" clip-path="url(#p0bc9a28043)" style="fill: none; stroke: #b0b0b0; stroke-width: 0.8; stroke-linecap: square"/>
     </g>
     <g id="line2d_10">
      <g>
       <use xlink:href="#m1d52658b6e" x="230.8608" y="298.944" style="stroke: #000000; stroke-width: 0.8"/>
      </g>
     </g>
     <g id="text_3">
      <!-- 4 -->
      <g transform="translate(225.452675 318.861344) scale(0.17 -0.17)">
       <defs>
        <path id="DejaVuSans-34" d="M 2419 4116 
L 825 1625 
L 2419 1625 
L 2419 4116 
z
M 2253 4666 
L 3047 4666 
L 3047 1625 
L 3713 1625 
L 3713 1100 
L 3047 1100 
L 3047 0 
L 2419 0 
L 2419 1100 
L 313 1100 
L 313 1709 
L 2253 4666 
z
" transform="scale(0.015625)"/>
       </defs>
       <use xlink:href="#DejaVuSans-34"/>
      </g>
     </g>
    </g>
    <g id="xtick_4">
     <g id="line2d_11">
      <path d="M 317.4912 298.944 
L 317.4912 27.648 
" clip-path="url(#p0bc9a28043)" style="fill: none; stroke: #b0b0b0; stroke-width: 0.8; stroke-linecap: square"/>
     </g>
     <g id="line2d_12">
      <g>
       <use xlink:href="#m1d52658b6e" x="317.4912" y="298.944" style="stroke: #000000; stroke-width: 0.8"/>
      </g>
     </g>
     <g id="text_4">
      <!-- 6 -->
      <g transform="translate(312.083075 318.861344) scale(0.17 -0.17)">
       <defs>
        <path id="DejaVuSans-36" d="M 2113 2584 
Q 1688 2584 1439 2293 
Q 1191 2003 1191 1497 
Q 1191 994 1439 701 
Q 1688 409 2113 409 
Q 2538 409 2786 701 
Q 3034 994 3034 1497 
Q 3034 2003 2786 2293 
Q 2538 2584 2113 2584 
z
M 3366 4563 
L 3366 3988 
Q 3128 4100 2886 4159 
Q 2644 4219 2406 4219 
Q 1781 4219 1451 3797 
Q 1122 3375 1075 2522 
Q 1259 2794 1537 2939 
Q 1816 3084 2150 3084 
Q 2853 3084 3261 2657 
Q 3669 2231 3669 1497 
Q 3669 778 3244 343 
Q 2819 -91 2113 -91 
Q 1303 -91 875 529 
Q 447 1150 447 2328 
Q 447 3434 972 4092 
Q 1497 4750 2381 4750 
Q 2619 4750 2861 4703 
Q 3103 4656 3366 4563 
z
" transform="scale(0.015625)"/>
       </defs>
       <use xlink:href="#DejaVuSans-36"/>
      </g>
     </g>
    </g>
    <g id="xtick_5">
     <g id="line2d_13">
      <path d="M 100.9152 298.944 
L 100.9152 27.648 
" clip-path="url(#p0bc9a28043)" style="fill: none; stroke: #b0b0b0; stroke-width: 0.8; stroke-linecap: square"/>
     </g>
     <g id="line2d_14">
      <defs>
       <path id="m7b310dd644" d="M 0 0 
L 0 2 
" style="stroke: #000000; stroke-width: 0.6"/>
      </defs>
      <g>
       <use xlink:href="#m7b310dd644" x="100.9152" y="298.944" style="stroke: #000000; stroke-width: 0.6"/>
      </g>
     </g>
    </g>
    <g id="xtick_6">
     <g id="line2d_15">
      <path d="M 187.5456 298.944 
L 187.5456 27.648 
" clip-path="url(#p0bc9a28043)" style="fill: none; stroke: #b0b0b0; stroke-width: 0.8; stroke-linecap: square"/>
     </g>
     <g id="line2d_16">
      <g>
       <use xlink:href="#m7b310dd644" x="187.5456" y="298.944" style="stroke: #000000; stroke-width: 0.6"/>
      </g>
     </g>
    </g>
    <g id="xtick_7">
     <g id="line2d_17">
      <path d="M 274.176 298.944 
L 274.176 27.648 
" clip-path="url(#p0bc9a28043)" style="fill: none; stroke: #b0b0b0; stroke-width: 0.8; stroke-linecap: square"/>
     </g>
     <g id="line2d_18">
      <g>
       <use xlink:href="#m7b310dd644" x="274.176" y="298.944" style="stroke: #000000; stroke-width: 0.6"/>
      </g>
     </g>
    </g>
    <g id="xtick_8">
     <g id="line2d_19">
      <path d="M 360.8064 298.944 
L 360.8064 27.648 
" clip-path="url(#p0bc9a28043)" style="fill: none; stroke: #b0b0b0; stroke-width: 0.8; stroke-linecap: square"/>
     </g>
     <g id="line2d_20">
      <g>
       <use xlink:href="#m7b310dd644" x="360.8064" y="298.944" style="stroke: #000000; stroke-width: 0.6"/>
      </g>
     </g>
    </g>
    <g id="text_5">
     <!-- log10(# f-evals / dimension) -->
     <g transform="translate(88.823278 339.314156) scale(0.17 -0.17)">
      <defs>
       <path id="DejaVuSans-6c" d="M 603 4863 
L 1178 4863 
L 1178 0 
L 603 0 
L 603 4863 
z
" transform="scale(0.015625)"/>
       <path id="DejaVuSans-6f" d="M 1959 3097 
Q 1497 3097 1228 2736 
Q 959 2375 959 1747 
Q 959 1119 1226 758 
Q 1494 397 1959 397 
Q 2419 397 2687 759 
Q 2956 1122 2956 1747 
Q 2956 2369 2687 2733 
Q 2419 3097 1959 3097 
z
M 1959 3584 
Q 2709 3584 3137 3096 
Q 3566 2609 3566 1747 
Q 3566 888 3137 398 
Q 2709 -91 1959 -91 
Q 1206 -91 779 398 
Q 353 888 353 1747 
Q 353 2609 779 3096 
Q 1206 3584 1959 3584 
z
" transform="scale(0.015625)"/>
       <path id="DejaVuSans-67" d="M 2906 1791 
Q 2906 2416 2648 2759 
Q 2391 3103 1925 3103 
Q 1463 3103 1205 2759 
Q 947 2416 947 1791 
Q 947 1169 1205 825 
Q 1463 481 1925 481 
Q 2391 481 2648 825 
Q 2906 1169 2906 1791 
z
M 3481 434 
Q 3481 -459 3084 -895 
Q 2688 -1331 1869 -1331 
Q 1566 -1331 1297 -1286 
Q 1028 -1241 775 -1147 
L 775 -588 
Q 1028 -725 1275 -790 
Q 1522 -856 1778 -856 
Q 2344 -856 2625 -561 
Q 2906 -266 2906 331 
L 2906 616 
Q 2728 306 2450 153 
Q 2172 0 1784 0 
Q 1141 0 747 490 
Q 353 981 353 1791 
Q 353 2603 747 3093 
Q 1141 3584 1784 3584 
Q 2172 3584 2450 3431 
Q 2728 3278 2906 2969 
L 2906 3500 
L 3481 3500 
L 3481 434 
z
" transform="scale(0.015625)"/>
       <path id="DejaVuSans-31" d="M 794 531 
L 1825 531 
L 1825 4091 
L 703 3866 
L 703 4441 
L 1819 4666 
L 2450 4666 
L 2450 531 
L 3481 531 
L 3481 0 
L 794 0 
L 794 531 
z
" transform="scale(0.015625)"/>
       <path id="DejaVuSans-28" d="M 1984 4856 
Q 1566 4138 1362 3434 
Q 1159 2731 1159 2009 
Q 1159 1288 1364 580 
Q 1569 -128 1984 -844 
L 1484 -844 
Q 1016 -109 783 600 
Q 550 1309 550 2009 
Q 550 2706 781 3412 
Q 1013 4119 1484 4856 
L 1984 4856 
z
" transform="scale(0.015625)"/>
       <path id="DejaVuSans-23" d="M 3272 2816 
L 2363 2816 
L 2100 1772 
L 3016 1772 
L 3272 2816 
z
M 2803 4594 
L 2478 3297 
L 3391 3297 
L 3719 4594 
L 4219 4594 
L 3897 3297 
L 4872 3297 
L 4872 2816 
L 3775 2816 
L 3519 1772 
L 4513 1772 
L 4513 1294 
L 3397 1294 
L 3072 0 
L 2572 0 
L 2894 1294 
L 1978 1294 
L 1656 0 
L 1153 0 
L 1478 1294 
L 494 1294 
L 494 1772 
L 1594 1772 
L 1856 2816 
L 850 2816 
L 850 3297 
L 1978 3297 
L 2297 4594 
L 2803 4594 
z
" transform="scale(0.015625)"/>
       <path id="DejaVuSans-20" transform="scale(0.015625)"/>
       <path id="DejaVuSans-66" d="M 2375 4863 
L 2375 4384 
L 1825 4384 
Q 1516 4384 1395 4259 
Q 1275 4134 1275 3809 
L 1275 3500 
L 2222 3500 
L 2222 3053 
L 1275 3053 
L 1275 0 
L 697 0 
L 697 3053 
L 147 3053 
L 147 3500 
L 697 3500 
L 697 3744 
Q 697 4328 969 4595 
Q 1241 4863 1831 4863 
L 2375 4863 
z
" transform="scale(0.015625)"/>
       <path id="DejaVuSans-2d" d="M 313 2009 
L 1997 2009 
L 1997 1497 
L 313 1497 
L 313 2009 
z
" transform="scale(0.015625)"/>
       <path id="DejaVuSans-65" d="M 3597 1894 
L 3597 1613 
L 953 1613 
Q 991 1019 1311 708 
Q 1631 397 2203 397 
Q 2534 397 2845 478 
Q 3156 559 3463 722 
L 3463 178 
Q 3153 47 2828 -22 
Q 2503 -91 2169 -91 
Q 1331 -91 842 396 
Q 353 884 353 1716 
Q 353 2575 817 3079 
Q 1281 3584 2069 3584 
Q 2775 3584 3186 3129 
Q 3597 2675 3597 1894 
z
M 3022 2063 
Q 3016 2534 2758 2815 
Q 2500 3097 2075 3097 
Q 1594 3097 1305 2825 
Q 1016 2553 972 2059 
L 3022 2063 
z
" transform="scale(0.015625)"/>
       <path id="DejaVuSans-76" d="M 191 3500 
L 800 3500 
L 1894 563 
L 2988 3500 
L 3597 3500 
L 2284 0 
L 1503 0 
L 191 3500 
z
" transform="scale(0.015625)"/>
       <path id="DejaVuSans-61" d="M 2194 1759 
Q 1497 1759 1228 1600 
Q 959 1441 959 1056 
Q 959 750 1161 570 
Q 1363 391 1709 391 
Q 2188 391 2477 730 
Q 2766 1069 2766 1631 
L 2766 1759 
L 2194 1759 
z
M 3341 1997 
L 3341 0 
L 2766 0 
L 2766 531 
Q 2569 213 2275 61 
Q 1981 -91 1556 -91 
Q 1019 -91 701 211 
Q 384 513 384 1019 
Q 384 1609 779 1909 
Q 1175 2209 1959 2209 
L 2766 2209 
L 2766 2266 
Q 2766 2663 2505 2880 
Q 2244 3097 1772 3097 
Q 1472 3097 1187 3025 
Q 903 2953 641 2809 
L 641 3341 
Q 956 3463 1253 3523 
Q 1550 3584 1831 3584 
Q 2591 3584 2966 3190 
Q 3341 2797 3341 1997 
z
" transform="scale(0.015625)"/>
       <path id="DejaVuSans-73" d="M 2834 3397 
L 2834 2853 
Q 2591 2978 2328 3040 
Q 2066 3103 1784 3103 
Q 1356 3103 1142 2972 
Q 928 2841 928 2578 
Q 928 2378 1081 2264 
Q 1234 2150 1697 2047 
L 1894 2003 
Q 2506 1872 2764 1633 
Q 3022 1394 3022 966 
Q 3022 478 2636 193 
Q 2250 -91 1575 -91 
Q 1294 -91 989 -36 
Q 684 19 347 128 
L 347 722 
Q 666 556 975 473 
Q 1284 391 1588 391 
Q 1994 391 2212 530 
Q 2431 669 2431 922 
Q 2431 1156 2273 1281 
Q 2116 1406 1581 1522 
L 1381 1569 
Q 847 1681 609 1914 
Q 372 2147 372 2553 
Q 372 3047 722 3315 
Q 1072 3584 1716 3584 
Q 2034 3584 2315 3537 
Q 2597 3491 2834 3397 
z
" transform="scale(0.015625)"/>
       <path id="DejaVuSans-2f" d="M 1625 4666 
L 2156 4666 
L 531 -594 
L 0 -594 
L 1625 4666 
z
" transform="scale(0.015625)"/>
       <path id="DejaVuSans-64" d="M 2906 2969 
L 2906 4863 
L 3481 4863 
L 3481 0 
L 2906 0 
L 2906 525 
Q 2725 213 2448 61 
Q 2172 -91 1784 -91 
Q 1150 -91 751 415 
Q 353 922 353 1747 
Q 353 2572 751 3078 
Q 1150 3584 1784 3584 
Q 2172 3584 2448 3432 
Q 2725 3281 2906 2969 
z
M 947 1747 
Q 947 1113 1208 752 
Q 1469 391 1925 391 
Q 2381 391 2643 752 
Q 2906 1113 2906 1747 
Q 2906 2381 2643 2742 
Q 2381 3103 1925 3103 
Q 1469 3103 1208 2742 
Q 947 2381 947 1747 
z
" transform="scale(0.015625)"/>
       <path id="DejaVuSans-69" d="M 603 3500 
L 1178 3500 
L 1178 0 
L 603 0 
L 603 3500 
z
M 603 4863 
L 1178 4863 
L 1178 4134 
L 603 4134 
L 603 4863 
z
" transform="scale(0.015625)"/>
       <path id="DejaVuSans-6d" d="M 3328 2828 
Q 3544 3216 3844 3400 
Q 4144 3584 4550 3584 
Q 5097 3584 5394 3201 
Q 5691 2819 5691 2113 
L 5691 0 
L 5113 0 
L 5113 2094 
Q 5113 2597 4934 2840 
Q 4756 3084 4391 3084 
Q 3944 3084 3684 2787 
Q 3425 2491 3425 1978 
L 3425 0 
L 2847 0 
L 2847 2094 
Q 2847 2600 2669 2842 
Q 2491 3084 2119 3084 
Q 1678 3084 1418 2786 
Q 1159 2488 1159 1978 
L 1159 0 
L 581 0 
L 581 3500 
L 1159 3500 
L 1159 2956 
Q 1356 3278 1631 3431 
Q 1906 3584 2284 3584 
Q 2666 3584 2933 3390 
Q 3200 3197 3328 2828 
z
" transform="scale(0.015625)"/>
       <path id="DejaVuSans-6e" d="M 3513 2113 
L 3513 0 
L 2938 0 
L 2938 2094 
Q 2938 2591 2744 2837 
Q 2550 3084 2163 3084 
Q 1697 3084 1428 2787 
Q 1159 2491 1159 1978 
L 1159 0 
L 581 0 
L 581 3500 
L 1159 3500 
L 1159 2956 
Q 1366 3272 1645 3428 
Q 1925 3584 2291 3584 
Q 2894 3584 3203 3211 
Q 3513 2838 3513 2113 
z
" transform="scale(0.015625)"/>
       <path id="DejaVuSans-29" d="M 513 4856 
L 1013 4856 
Q 1481 4119 1714 3412 
Q 1947 2706 1947 2009 
Q 1947 1309 1714 600 
Q 1481 -109 1013 -844 
L 513 -844 
Q 928 -128 1133 580 
Q 1338 1288 1338 2009 
Q 1338 2731 1133 3434 
Q 928 4138 513 4856 
z
" transform="scale(0.015625)"/>
      </defs>
      <use xlink:href="#DejaVuSans-6c"/>
      <use xlink:href="#DejaVuSans-6f" x="27.783203"/>
      <use xlink:href="#DejaVuSans-67" x="88.964844"/>
      <use xlink:href="#DejaVuSans-31" x="152.441406"/>
      <use xlink:href="#DejaVuSans-30" x="216.064453"/>
      <use xlink:href="#DejaVuSans-28" x="279.6875"/>
      <use xlink:href="#DejaVuSans-23" x="318.701172"/>
      <use xlink:href="#DejaVuSans-20" x="402.490234"/>
      <use xlink:href="#DejaVuSans-66" x="434.277344"/>
      <use xlink:href="#DejaVuSans-2d" x="463.982422"/>
      <use xlink:href="#DejaVuSans-65" x="500.066406"/>
      <use xlink:href="#DejaVuSans-76" x="561.589844"/>
      <use xlink:href="#DejaVuSans-61" x="620.769531"/>
      <use xlink:href="#DejaVuSans-6c" x="682.048828"/>
      <use xlink:href="#DejaVuSans-73" x="709.832031"/>
      <use xlink:href="#DejaVuSans-20" x="761.931641"/>
      <use xlink:href="#DejaVuSans-2f" x="793.71875"/>
      <use xlink:href="#DejaVuSans-20" x="827.410156"/>
      <use xlink:href="#DejaVuSans-64" x="859.197266"/>
      <use xlink:href="#DejaVuSans-69" x="922.673828"/>
      <use xlink:href="#DejaVuSans-6d" x="950.457031"/>
      <use xlink:href="#DejaVuSans-65" x="1047.869141"/>
      <use xlink:href="#DejaVuSans-6e" x="1109.392578"/>
      <use xlink:href="#DejaVuSans-73" x="1172.771484"/>
      <use xlink:href="#DejaVuSans-69" x="1224.871094"/>
      <use xlink:href="#DejaVuSans-6f" x="1252.654297"/>
      <use xlink:href="#DejaVuSans-6e" x="1313.835938"/>
      <use xlink:href="#DejaVuSans-29" x="1377.214844"/>
     </g>
    </g>
   </g>
   <g id="matplotlib.axis_2">
    <g id="ytick_1">
     <g id="line2d_21">
      <path d="M 57.6 298.944 
L 360.8064 298.944 
" clip-path="url(#p0bc9a28043)" style="fill: none; stroke: #b0b0b0; stroke-width: 0.8; stroke-linecap: square"/>
     </g>
     <g id="line2d_22">
      <defs>
       <path id="m37b4e09871" d="M 0 0 
L -3.5 0 
" style="stroke: #000000; stroke-width: 0.8"/>
      </defs>
      <g>
       <use xlink:href="#m37b4e09871" x="57.6" y="298.944" style="stroke: #000000; stroke-width: 0.8"/>
      </g>
     </g>
     <g id="text_6">
      <!-- 0.0 -->
      <g transform="translate(25.155 305.02275) scale(0.16 -0.16)">
       <defs>
        <path id="DejaVuSans-2e" d="M 684 794 
L 1344 794 
L 1344 0 
L 684 0 
L 684 794 
z
" transform="scale(0.015625)"/>
       </defs>
       <use xlink:href="#DejaVuSans-30"/>
       <use xlink:href="#DejaVuSans-2e" x="63.623047"/>
       <use xlink:href="#DejaVuSans-30" x="95.410156"/>
      </g>
     </g>
    </g>
    <g id="ytick_2">
     <g id="line2d_23">
      <path d="M 57.6 244.6848 
L 360.8064 244.6848 
" clip-path="url(#p0bc9a28043)" style="fill: none; stroke: #b0b0b0; stroke-width: 0.8; stroke-linecap: square"/>
     </g>
     <g id="line2d_24">
      <g>
       <use xlink:href="#m37b4e09871" x="57.6" y="244.6848" style="stroke: #000000; stroke-width: 0.8"/>
      </g>
     </g>
     <g id="text_7">
      <!-- 0.2 -->
      <g transform="translate(25.155 250.76355) scale(0.16 -0.16)">
       <use xlink:href="#DejaVuSans-30"/>
       <use xlink:href="#DejaVuSans-2e" x="63.623047"/>
       <use xlink:href="#DejaVuSans-32" x="95.410156"/>
      </g>
     </g>
    </g>
    <g id="ytick_3">
     <g id="line2d_25">
      <path d="M 57.6 190.4256 
L 360.8064 190.4256 
" clip-path="url(#p0bc9a28043)" style="fill: none; stroke: #b0b0b0; stroke-width: 0.8; stroke-linecap: square"/>
     </g>
     <g id="line2d_26">
      <g>
       <use xlink:href="#m37b4e09871" x="57.6" y="190.4256" style="stroke: #000000; stroke-width: 0.8"/>
      </g>
     </g>
     <g id="text_8">
      <!-- 0.4 -->
      <g transform="translate(25.155 196.50435) scale(0.16 -0.16)">
       <use xlink:href="#DejaVuSans-30"/>
       <use xlink:href="#DejaVuSans-2e" x="63.623047"/>
       <use xlink:href="#DejaVuSans-34" x="95.410156"/>
      </g>
     </g>
    </g>
    <g id="ytick_4">
     <g id="line2d_27">
      <path d="M 57.6 136.1664 
L 360.8064 136.1664 
" clip-path="url(#p0bc9a28043)" style="fill: none; stroke: #b0b0b0; stroke-width: 0.8; stroke-linecap: square"/>
     </g>
     <g id="line2d_28">
      <g>
       <use xlink:href="#m37b4e09871" x="57.6" y="136.1664" style="stroke: #000000; stroke-width: 0.8"/>
      </g>
     </g>
     <g id="text_9">
      <!-- 0.6 -->
      <g transform="translate(25.155 142.24515) scale(0.16 -0.16)">
       <use xlink:href="#DejaVuSans-30"/>
       <use xlink:href="#DejaVuSans-2e" x="63.623047"/>
       <use xlink:href="#DejaVuSans-36" x="95.410156"/>
      </g>
     </g>
    </g>
    <g id="ytick_5">
     <g id="line2d_29">
      <path d="M 57.6 81.9072 
L 360.8064 81.9072 
" clip-path="url(#p0bc9a28043)" style="fill: none; stroke: #b0b0b0; stroke-width: 0.8; stroke-linecap: square"/>
     </g>
     <g id="line2d_30">
      <g>
       <use xlink:href="#m37b4e09871" x="57.6" y="81.9072" style="stroke: #000000; stroke-width: 0.8"/>
      </g>
     </g>
     <g id="text_10">
      <!-- 0.8 -->
      <g transform="translate(25.155 87.98595) scale(0.16 -0.16)">
       <defs>
        <path id="DejaVuSans-38" d="M 2034 2216 
Q 1584 2216 1326 1975 
Q 1069 1734 1069 1313 
Q 1069 891 1326 650 
Q 1584 409 2034 409 
Q 2484 409 2743 651 
Q 3003 894 3003 1313 
Q 3003 1734 2745 1975 
Q 2488 2216 2034 2216 
z
M 1403 2484 
Q 997 2584 770 2862 
Q 544 3141 544 3541 
Q 544 4100 942 4425 
Q 1341 4750 2034 4750 
Q 2731 4750 3128 4425 
Q 3525 4100 3525 3541 
Q 3525 3141 3298 2862 
Q 3072 2584 2669 2484 
Q 3125 2378 3379 2068 
Q 3634 1759 3634 1313 
Q 3634 634 3220 271 
Q 2806 -91 2034 -91 
Q 1263 -91 848 271 
Q 434 634 434 1313 
Q 434 1759 690 2068 
Q 947 2378 1403 2484 
z
M 1172 3481 
Q 1172 3119 1398 2916 
Q 1625 2713 2034 2713 
Q 2441 2713 2670 2916 
Q 2900 3119 2900 3481 
Q 2900 3844 2670 4047 
Q 2441 4250 2034 4250 
Q 1625 4250 1398 4047 
Q 1172 3844 1172 3481 
z
" transform="scale(0.015625)"/>
       </defs>
       <use xlink:href="#DejaVuSans-30"/>
       <use xlink:href="#DejaVuSans-2e" x="63.623047"/>
       <use xlink:href="#DejaVuSans-38" x="95.410156"/>
      </g>
     </g>
    </g>
    <g id="ytick_6">
     <g id="line2d_31">
      <path d="M 57.6 27.648 
L 360.8064 27.648 
" clip-path="url(#p0bc9a28043)" style="fill: none; stroke: #b0b0b0; stroke-width: 0.8; stroke-linecap: square"/>
     </g>
     <g id="line2d_32">
      <g>
       <use xlink:href="#m37b4e09871" x="57.6" y="27.648" style="stroke: #000000; stroke-width: 0.8"/>
      </g>
     </g>
     <g id="text_11">
      <!-- 1.0 -->
      <g transform="translate(25.155 33.72675) scale(0.16 -0.16)">
       <use xlink:href="#DejaVuSans-31"/>
       <use xlink:href="#DejaVuSans-2e" x="63.623047"/>
       <use xlink:href="#DejaVuSans-30" x="95.410156"/>
      </g>
     </g>
    </g>
    <g id="text_12">
     <!-- Fraction of function,target pairs -->
     <g transform="translate(17.619531 297.681) rotate(-90) scale(0.17 -0.17)">
      <defs>
       <path id="DejaVuSans-46" d="M 628 4666 
L 3309 4666 
L 3309 4134 
L 1259 4134 
L 1259 2759 
L 3109 2759 
L 3109 2228 
L 1259 2228 
L 1259 0 
L 628 0 
L 628 4666 
z
" transform="scale(0.015625)"/>
       <path id="DejaVuSans-72" d="M 2631 2963 
Q 2534 3019 2420 3045 
Q 2306 3072 2169 3072 
Q 1681 3072 1420 2755 
Q 1159 2438 1159 1844 
L 1159 0 
L 581 0 
L 581 3500 
L 1159 3500 
L 1159 2956 
Q 1341 3275 1631 3429 
Q 1922 3584 2338 3584 
Q 2397 3584 2469 3576 
Q 2541 3569 2628 3553 
L 2631 2963 
z
" transform="scale(0.015625)"/>
       <path id="DejaVuSans-63" d="M 3122 3366 
L 3122 2828 
Q 2878 2963 2633 3030 
Q 2388 3097 2138 3097 
Q 1578 3097 1268 2742 
Q 959 2388 959 1747 
Q 959 1106 1268 751 
Q 1578 397 2138 397 
Q 2388 397 2633 464 
Q 2878 531 3122 666 
L 3122 134 
Q 2881 22 2623 -34 
Q 2366 -91 2075 -91 
Q 1284 -91 818 406 
Q 353 903 353 1747 
Q 353 2603 823 3093 
Q 1294 3584 2113 3584 
Q 2378 3584 2631 3529 
Q 2884 3475 3122 3366 
z
" transform="scale(0.015625)"/>
       <path id="DejaVuSans-74" d="M 1172 4494 
L 1172 3500 
L 2356 3500 
L 2356 3053 
L 1172 3053 
L 1172 1153 
Q 1172 725 1289 603 
Q 1406 481 1766 481 
L 2356 481 
L 2356 0 
L 1766 0 
Q 1100 0 847 248 
Q 594 497 594 1153 
L 594 3053 
L 172 3053 
L 172 3500 
L 594 3500 
L 594 4494 
L 1172 4494 
z
" transform="scale(0.015625)"/>
       <path id="DejaVuSans-75" d="M 544 1381 
L 544 3500 
L 1119 3500 
L 1119 1403 
Q 1119 906 1312 657 
Q 1506 409 1894 409 
Q 2359 409 2629 706 
Q 2900 1003 2900 1516 
L 2900 3500 
L 3475 3500 
L 3475 0 
L 2900 0 
L 2900 538 
Q 2691 219 2414 64 
Q 2138 -91 1772 -91 
Q 1169 -91 856 284 
Q 544 659 544 1381 
z
M 1991 3584 
L 1991 3584 
z
" transform="scale(0.015625)"/>
       <path id="DejaVuSans-2c" d="M 750 794 
L 1409 794 
L 1409 256 
L 897 -744 
L 494 -744 
L 750 256 
L 750 794 
z
" transform="scale(0.015625)"/>
       <path id="DejaVuSans-70" d="M 1159 525 
L 1159 -1331 
L 581 -1331 
L 581 3500 
L 1159 3500 
L 1159 2969 
Q 1341 3281 1617 3432 
Q 1894 3584 2278 3584 
Q 2916 3584 3314 3078 
Q 3713 2572 3713 1747 
Q 3713 922 3314 415 
Q 2916 -91 2278 -91 
Q 1894 -91 1617 61 
Q 1341 213 1159 525 
z
M 3116 1747 
Q 3116 2381 2855 2742 
Q 2594 3103 2138 3103 
Q 1681 3103 1420 2742 
Q 1159 2381 1159 1747 
Q 1159 1113 1420 752 
Q 1681 391 2138 391 
Q 2594 391 2855 752 
Q 3116 1113 3116 1747 
z
" transform="scale(0.015625)"/>
      </defs>
      <use xlink:href="#DejaVuSans-46"/>
      <use xlink:href="#DejaVuSans-72" x="50.269531"/>
      <use xlink:href="#DejaVuSans-61" x="91.382812"/>
      <use xlink:href="#DejaVuSans-63" x="152.662109"/>
      <use xlink:href="#DejaVuSans-74" x="207.642578"/>
      <use xlink:href="#DejaVuSans-69" x="246.851562"/>
      <use xlink:href="#DejaVuSans-6f" x="274.634766"/>
      <use xlink:href="#DejaVuSans-6e" x="335.816406"/>
      <use xlink:href="#DejaVuSans-20" x="399.195312"/>
      <use xlink:href="#DejaVuSans-6f" x="430.982422"/>
      <use xlink:href="#DejaVuSans-66" x="492.164062"/>
      <use xlink:href="#DejaVuSans-20" x="527.369141"/>
      <use xlink:href="#DejaVuSans-66" x="559.15625"/>
      <use xlink:href="#DejaVuSans-75" x="594.361328"/>
      <use xlink:href="#DejaVuSans-6e" x="657.740234"/>
      <use xlink:href="#DejaVuSans-63" x="721.119141"/>
      <use xlink:href="#DejaVuSans-74" x="776.099609"/>
      <use xlink:href="#DejaVuSans-69" x="815.308594"/>
      <use xlink:href="#DejaVuSans-6f" x="843.091797"/>
      <use xlink:href="#DejaVuSans-6e" x="904.273438"/>
      <use xlink:href="#DejaVuSans-2c" x="967.652344"/>
      <use xlink:href="#DejaVuSans-74" x="999.439453"/>
      <use xlink:href="#DejaVuSans-61" x="1038.648438"/>
      <use xlink:href="#DejaVuSans-72" x="1099.927734"/>
      <use xlink:href="#DejaVuSans-67" x="1139.291016"/>
      <use xlink:href="#DejaVuSans-65" x="1202.767578"/>
      <use xlink:href="#DejaVuSans-74" x="1264.291016"/>
      <use xlink:href="#DejaVuSans-20" x="1303.5"/>
      <use xlink:href="#DejaVuSans-70" x="1335.287109"/>
      <use xlink:href="#DejaVuSans-61" x="1398.763672"/>
      <use xlink:href="#DejaVuSans-69" x="1460.042969"/>
      <use xlink:href="#DejaVuSans-72" x="1487.826172"/>
      <use xlink:href="#DejaVuSans-73" x="1528.939453"/>
     </g>
    </g>
   </g>
   <g id="line2d_33">
    <defs>
     <path id="m127542261e" d="M 0 1.5 
C 0.397805 1.5 0.77937 1.341951 1.06066 1.06066 
C 1.341951 0.77937 1.5 0.397805 1.5 0 
C 1.5 -0.397805 1.341951 -0.77937 1.06066 -1.06066 
C 0.77937 -1.341951 0.397805 -1.5 0 -1.5 
C -0.397805 -1.5 -0.77937 -1.341951 -1.06066 -1.06066 
C -1.341951 -0.77937 -1.5 -0.397805 -1.5 0 
C -1.5 0.397805 -1.341951 0.77937 -1.06066 1.06066 
C -0.77937 1.341951 -0.397805 1.5 0 1.5 
z
" style="stroke: #f5deb3"/>
    </defs>
    <g>
     <use xlink:href="#m127542261e" x="288.505705" y="60.390621" style="fill: #f5deb3; stroke: #f5deb3"/>
     <use xlink:href="#m127542261e" x="288.505705" y="60.390621" style="fill: #f5deb3; stroke: #f5deb3"/>
    </g>
   </g>
   <g id="line2d_34">
    <defs>
     <path id="m0168e7a71c" d="M 0 1.5 
C 0.397805 1.5 0.77937 1.341951 1.06066 1.06066 
C 1.341951 0.77937 1.5 0.397805 1.5 0 
C 1.5 -0.397805 1.341951 -0.77937 1.06066 -1.06066 
C 0.77937 -1.341951 0.397805 -1.5 0 -1.5 
C -0.397805 -1.5 -0.77937 -1.341951 -1.06066 -1.06066 
C -1.341951 -0.77937 -1.5 -0.397805 -1.5 0 
C -1.5 0.397805 -1.341951 0.77937 -1.06066 1.06066 
C -0.77937 1.341951 -0.397805 1.5 0 1.5 
z
" style="stroke: #000080"/>
    </defs>
    <g>
     <use xlink:href="#m0168e7a71c" x="207.296077" y="162.360497" style="fill: #000080; stroke: #000080"/>
     <use xlink:href="#m0168e7a71c" x="207.296077" y="162.360497" style="fill: #000080; stroke: #000080"/>
    </g>
   </g>
   <g id="line2d_35">
    <path d="M 27.323974 298.944 
L 27.323974 287.717959 
L 40.363149 287.717959 
L 40.363149 285.846952 
L 47.990577 285.846952 
L 47.990577 284.443697 
L 53.402323 284.443697 
L 53.402323 283.975945 
L 57.6 283.975945 
L 57.6 279.298428 
L 61.029752 279.298428 
L 61.029752 277.895172 
L 63.929565 277.895172 
L 63.929565 276.491917 
L 68.65718 276.491917 
L 68.65718 276.024166 
L 70.639174 276.024166 
L 70.639174 275.088662 
L 74.068926 275.088662 
L 74.068926 274.153159 
L 75.574654 274.153159 
L 75.574654 273.217655 
L 76.96874 273.217655 
L 76.96874 271.8144 
L 78.266603 271.8144 
L 78.266603 271.346648 
L 80.621116 271.346648 
L 80.621116 270.878897 
L 83.678349 270.878897 
L 83.678349 270.411145 
L 86.307488 270.411145 
L 86.307488 269.475641 
L 100.9152 269.475641 
L 100.9152 269.00789 
L 101.287718 269.00789 
L 101.287718 266.669131 
L 101.653002 266.669131 
L 101.653002 266.201379 
L 106.137884 266.201379 
L 106.137884 265.265876 
L 108.29012 265.265876 
L 108.29012 264.798124 
L 109.280431 264.798124 
L 109.280431 262.927117 
L 111.334639 262.927117 
L 111.334639 261.05611 
L 111.762192 261.05611 
L 111.762192 260.588359 
L 112.180244 260.588359 
L 112.180244 260.120607 
L 113.954374 260.120607 
L 113.954374 259.652855 
L 114.692177 259.652855 
L 114.692177 258.717352 
L 115.575511 258.717352 
L 115.575511 258.2496 
L 116.086263 258.2496 
L 116.086263 257.781848 
L 117.226706 257.781848 
L 117.226706 256.846345 
L 117.384126 256.846345 
L 117.384126 256.378593 
L 117.540239 256.378593 
L 117.540239 254.975338 
L 117.695068 254.975338 
L 117.695068 254.507586 
L 117.848632 254.507586 
L 117.848632 254.039834 
L 118.000953 254.039834 
L 118.000953 253.572083 
L 120.149089 253.572083 
L 120.149089 253.104331 
L 120.28394 253.104331 
L 120.28394 252.168828 
L 122.319605 252.168828 
L 122.319605 251.233324 
L 122.559246 251.233324 
L 122.559246 250.297821 
L 123.374735 250.297821 
L 123.374735 249.362317 
L 123.936316 249.362317 
L 123.936316 248.894566 
L 128.871795 248.894566 
L 128.871795 247.959062 
L 129.78556 247.959062 
L 129.78556 247.023559 
L 132.287354 247.023559 
L 132.358208 246.088055 
L 132.499119 246.088055 
L 132.499119 245.620303 
L 132.915628 245.620303 
L 132.984158 244.6848 
L 134.240933 244.6848 
L 134.240933 244.217048 
L 134.931919 244.217048 
L 134.931919 243.281545 
L 135.116046 243.281545 
L 135.116046 242.346041 
L 137.030737 242.346041 
L 137.030737 241.87829 
L 137.304564 241.87829 
L 137.304564 240.942786 
L 138.154948 240.942786 
L 138.154948 240.475034 
L 138.667556 240.475034 
L 138.768422 238.136276 
L 138.868751 238.136276 
L 138.868751 237.668524 
L 139.459738 237.668524 
L 139.459738 236.733021 
L 139.843661 236.733021 
L 139.843661 235.797517 
L 139.985636 235.797517 
L 139.985636 234.862014 
L 140.725251 234.862014 
L 140.725251 234.394262 
L 141.128852 234.394262 
L 141.128852 233.458759 
L 141.523975 233.458759 
L 141.523975 232.523255 
L 142.620923 232.523255 
L 142.620923 231.587752 
L 145.432709 231.587752 
L 145.432709 230.652248 
L 146.261241 230.652248 
L 146.261241 229.716745 
L 147.054816 229.716745 
L 147.054816 228.781241 
L 147.312072 228.781241 
L 147.312072 227.845738 
L 148.548087 227.845738 
L 148.548087 226.910234 
L 148.874221 226.910234 
L 148.874221 226.442483 
L 149.31003 226.442483 
L 149.31003 225.974731 
L 151.037576 225.974731 
L 151.037576 225.039228 
L 151.375128 225.039228 
L 151.375128 224.571476 
L 152.859068 224.571476 
L 152.859068 223.635972 
L 153.071898 223.635972 
L 153.118868 221.764966 
L 153.212458 221.764966 
L 153.212458 219.893959 
L 153.328795 219.893959 
L 153.328795 218.958455 
L 154.843441 218.958455 
L 154.843441 218.490703 
L 155.536743 218.490703 
L 155.536743 217.5552 
L 155.802997 217.5552 
L 155.802997 217.087448 
L 155.944819 217.087448 
L 156.005274 216.151945 
L 156.540799 216.151945 
L 156.540799 215.684193 
L 157.023421 215.684193 
L 157.023421 215.216441 
L 157.770751 215.216441 
L 157.770751 214.74869 
L 158.717331 214.74869 
L 158.717331 213.813186 
L 159.028273 213.813186 
L 159.028273 213.345434 
L 159.668298 213.345434 
L 159.668298 212.877683 
L 159.800309 212.877683 
L 159.898714 211.474428 
L 159.964032 211.474428 
L 159.964032 211.006676 
L 160.142495 211.006676 
L 160.142495 210.538924 
L 161.839769 210.538924 
L 161.839769 210.071172 
L 162.205054 210.071172 
L 162.248415 209.135669 
L 162.334839 209.135669 
L 162.334839 208.667917 
L 164.349858 208.667917 
L 164.414303 207.732414 
L 164.733259 207.732414 
L 164.745905 205.861407 
L 165.330896 205.861407 
L 165.330896 205.393655 
L 167.656552 205.393655 
L 167.656552 204.925903 
L 168.03183 204.925903 
L 168.03183 204.458152 
L 168.811641 204.458152 
L 168.842171 203.522648 
L 169.174771 203.522648 
L 169.174771 202.587145 
L 169.706651 202.587145 
L 169.706651 202.119393 
L 170.919507 202.119393 
L 170.919507 201.18389 
L 171.852062 201.18389 
L 171.852062 200.716138 
L 172.041731 200.716138 
L 172.11023 199.312883 
L 172.457426 199.312883 
L 172.457426 198.845131 
L 172.937888 198.845131 
L 172.937888 198.377379 
L 174.498899 198.377379 
L 174.498899 197.441876 
L 174.805028 197.441876 
L 174.805028 196.974124 
L 175.330851 196.974124 
L 175.330851 196.506372 
L 175.77919 196.506372 
L 175.77919 195.570869 
L 176.428882 195.570869 
L 176.428882 195.103117 
L 176.878635 195.103117 
L 176.878635 194.635366 
L 177.089707 194.635366 
L 177.10282 192.764359 
L 177.51129 192.764359 
L 177.51129 191.828855 
L 177.898516 191.828855 
L 177.898516 190.893352 
L 178.455661 190.893352 
L 178.455661 190.4256 
L 179.522765 190.4256 
L 179.62622 189.490097 
L 180.062466 189.490097 
L 180.062466 188.554593 
L 180.423011 188.554593 
L 180.423011 187.61909 
L 180.943179 187.61909 
L 180.943179 187.151338 
L 181.271635 187.151338 
L 181.271635 186.683586 
L 182.565296 186.683586 
L 182.575099 185.280331 
L 183.329102 185.280331 
L 183.380815 183.877076 
L 183.483815 183.877076 
L 183.586255 182.941572 
L 184.800034 182.941572 
L 184.800034 182.473821 
L 185.110905 182.473821 
L 185.110905 182.006069 
L 185.997499 182.006069 
L 185.997499 181.538317 
L 186.576733 181.538317 
L 186.576733 181.070566 
L 187.590694 181.070566 
L 187.598199 180.135062 
L 188.141784 180.135062 
L 188.141784 179.199559 
L 188.652374 179.199559 
L 188.652374 178.731807 
L 189.307725 178.731807 
L 189.403406 177.328552 
L 189.60344 177.328552 
L 189.704343 176.393048 
L 190.207426 176.393048 
L 190.207426 175.457545 
L 191.643688 175.457545 
L 191.643688 174.989793 
L 192.630973 174.989793 
L 192.630973 174.522041 
L 193.138008 174.522041 
L 193.138008 173.586538 
L 193.47317 173.586538 
L 193.47317 173.118786 
L 194.192274 173.118786 
L 194.192274 172.651034 
L 194.58711 172.651034 
L 194.58711 172.183283 
L 195.881867 172.183283 
L 195.881867 171.715531 
L 196.276254 171.715531 
L 196.276254 171.247779 
L 196.736549 171.247779 
L 196.736549 170.780028 
L 196.986471 170.780028 
L 197.081892 169.844524 
L 198.2078 169.844524 
L 198.284486 168.441269 
L 200.981253 168.441269 
L 200.981253 167.973517 
L 201.159076 167.973517 
L 201.159076 167.505766 
L 202.180005 167.505766 
L 202.180005 167.038014 
L 202.331476 167.038014 
L 202.331476 166.10251 
L 202.536081 166.10251 
L 202.536081 165.167007 
L 203.409191 165.167007 
L 203.409191 164.699255 
L 204.322384 164.699255 
L 204.322384 163.763752 
L 205.28436 163.763752 
L 205.28436 162.828248 
L 207.296077 162.828248 
L 207.296077 162.360497 
L 360.8064 162.360497 
L 360.8064 162.360497 
" style="fill: none; stroke: #000080; stroke-width: 1.5; stroke-linecap: square"/>
   </g>
   <g id="line2d_36">
    <defs>
     <path id="maf94d84efd" d="M 0 6 
C 1.591219 6 3.117479 5.367802 4.242641 4.242641 
C 5.367802 3.117479 6 1.591219 6 0 
C 6 -1.591219 5.367802 -3.117479 4.242641 -4.242641 
C 3.117479 -5.367802 1.591219 -6 0 -6 
C -1.591219 -6 -3.117479 -5.367802 -4.242641 -4.242641 
C -5.367802 -3.117479 -6 -1.591219 -6 0 
C -6 1.591219 -5.367802 3.117479 -4.242641 4.242641 
C -3.117479 5.367802 -1.591219 6 0 6 
z
" style="stroke: #000080; stroke-width: 1.5"/>
    </defs>
    <g>
     <use xlink:href="#maf94d84efd" x="86.307488" y="269.475641" style="fill-opacity: 0; stroke: #000080; stroke-width: 1.5"/>
     <use xlink:href="#maf94d84efd" x="155.536743" y="218.490703" style="fill-opacity: 0; stroke: #000080; stroke-width: 1.5"/>
     <use xlink:href="#maf94d84efd" x="207.296077" y="162.828248" style="fill-opacity: 0; stroke: #000080; stroke-width: 1.5"/>
     <use xlink:href="#maf94d84efd" x="207.296077" y="162.360497" style="fill-opacity: 0; stroke: #000080; stroke-width: 1.5"/>
     <use xlink:href="#maf94d84efd" x="207.296077" y="162.360497" style="fill-opacity: 0; stroke: #000080; stroke-width: 1.5"/>
     <use xlink:href="#maf94d84efd" x="360.8064" y="162.360497" style="fill-opacity: 0; stroke: #000080; stroke-width: 1.5"/>
    </g>
   </g>
   <g id="line2d_37">
    <path style="fill: none; stroke: #000080; stroke-width: 1.5; stroke-linecap: square"/>
    <g/>
   </g>
   <g id="line2d_38">
    <path d="M 230.866066 162.360497 
" clip-path="url(#p0bc9a28043)" style="fill: none; stroke: #000080; stroke-width: 1.5; stroke-linecap: square"/>
    <defs>
     <path id="m94021a0421" d="M -12 12 
L 12 -12 
M -12 -12 
L 12 12 
" style="stroke: #000080"/>
    </defs>
    <g clip-path="url(#p0bc9a28043)">
     <use xlink:href="#m94021a0421" x="230.866066" y="162.360497" style="fill: #000080; stroke: #000080"/>
    </g>
   </g>
   <g id="line2d_39">
    <defs>
     <path id="mb380c469bc" d="M 0 1.5 
C 0.397805 1.5 0.77937 1.341951 1.06066 1.06066 
C 1.341951 0.77937 1.5 0.397805 1.5 0 
C 1.5 -0.397805 1.341951 -0.77937 1.06066 -1.06066 
C 0.77937 -1.341951 0.397805 -1.5 0 -1.5 
C -0.397805 -1.5 -0.77937 -1.341951 -1.06066 -1.06066 
C -1.341951 -0.77937 -1.5 -0.397805 -1.5 0 
C -1.5 0.397805 -1.341951 0.77937 -1.06066 1.06066 
C -0.77937 1.341951 -0.397805 1.5 0 1.5 
z
" style="stroke: #ff00ff"/>
    </defs>
    <g>
     <use xlink:href="#mb380c469bc" x="194.935767" y="171.715531" style="fill: #ff00ff; stroke: #ff00ff"/>
     <use xlink:href="#mb380c469bc" x="194.935767" y="171.715531" style="fill: #ff00ff; stroke: #ff00ff"/>
    </g>
   </g>
   <g id="line2d_40">
    <path d="M 27.323974 298.944 
L 27.323974 287.717959 
L 47.990577 287.717959 
L 47.990577 283.508193 
L 53.402323 283.508193 
L 53.402323 280.233931 
L 57.6 280.233931 
L 57.6 276.959669 
L 61.029752 276.959669 
L 61.029752 275.088662 
L 63.929565 275.088662 
L 63.929565 272.749903 
L 68.65718 272.749903 
L 68.65718 269.943393 
L 70.639174 269.943393 
L 70.639174 269.475641 
L 72.432107 269.475641 
L 72.432107 268.072386 
L 74.068926 268.072386 
L 74.068926 266.669131 
L 75.574654 266.669131 
L 75.574654 264.330372 
L 76.96874 264.330372 
L 76.96874 262.459366 
L 78.266603 262.459366 
L 78.266603 261.523862 
L 80.621116 261.523862 
L 80.621116 260.588359 
L 82.713442 260.588359 
L 82.713442 260.120607 
L 83.678349 260.120607 
L 83.678349 258.717352 
L 84.596168 258.717352 
L 84.596168 257.781848 
L 87.1081 257.781848 
L 87.1081 257.314097 
L 87.876026 257.314097 
L 87.876026 255.910841 
L 91.305777 255.910841 
L 91.305777 254.507586 
L 92.519847 254.507586 
L 92.519847 254.039834 
L 94.735529 254.039834 
L 94.735529 253.572083 
L 96.241256 253.572083 
L 96.241256 253.104331 
L 99.751228 253.104331 
L 99.751228 252.168828 
L 100.9152 252.168828 
L 100.9152 251.701076 
L 102.708132 251.701076 
L 102.708132 251.233324 
L 103.380045 251.233324 
L 103.380045 250.765572 
L 104.655893 250.765572 
L 104.655893 249.830069 
L 105.26277 249.830069 
L 105.26277 248.894566 
L 106.137884 248.894566 
L 106.137884 248.426814 
L 107.244765 248.426814 
L 107.244765 246.555807 
L 108.034177 246.555807 
L 108.034177 246.088055 
L 108.791791 246.088055 
L 108.791791 245.620303 
L 109.037698 245.620303 
L 109.037698 245.152552 
L 109.520071 245.152552 
L 109.520071 244.6848 
L 113.954374 244.6848 
L 113.954374 242.813793 
L 114.141556 242.813793 
L 114.141556 241.87829 
L 116.253478 241.87829 
L 116.253478 240.475034 
L 117.540239 240.475034 
L 117.540239 240.007283 
L 119.319033 240.007283 
L 119.319033 238.604028 
L 120.682786 238.604028 
L 120.682786 237.668524 
L 120.944062 237.668524 
L 120.944062 235.797517 
L 122.19863 235.797517 
L 122.19863 234.862014 
L 122.319605 234.862014 
L 122.319605 234.394262 
L 122.795872 234.394262 
L 122.795872 233.92651 
L 124.046648 233.92651 
L 124.046648 232.991007 
L 125.115773 232.991007 
L 125.115773 232.523255 
L 127.273627 232.523255 
L 127.273627 231.587752 
L 128.354013 231.587752 
L 128.354013 231.12 
L 130.027253 231.12 
L 130.027253 229.716745 
L 130.501519 229.716745 
L 130.501519 229.248993 
L 131.563744 229.248993 
L 131.563744 228.31349 
L 132.638982 228.31349 
L 132.638982 227.845738 
L 133.78762 227.845738 
L 133.78762 226.910234 
L 133.918257 226.910234 
L 133.918257 226.442483 
L 134.620977 226.442483 
L 134.620977 225.974731 
L 137.945929 225.974731 
L 137.945929 224.103724 
L 138.206842 224.103724 
L 138.206842 223.635972 
L 139.796097 223.635972 
L 139.796097 222.700469 
L 140.312801 222.700469 
L 140.312801 222.232717 
L 141.868361 222.232717 
L 141.868361 221.764966 
L 142.41488 221.764966 
L 142.41488 220.829462 
L 142.661862 220.829462 
L 142.661862 219.893959 
L 143.501625 219.893959 
L 143.501625 219.426207 
L 143.811926 219.426207 
L 143.811926 218.490703 
L 144.079302 218.490703 
L 144.079302 217.5552 
L 144.786447 217.5552 
L 144.786447 216.619697 
L 146.695245 216.619697 
L 146.695245 215.684193 
L 147.280107 215.684193 
L 147.280107 215.216441 
L 148.001907 215.216441 
L 148.001907 214.74869 
L 148.874221 214.74869 
L 148.874221 214.280938 
L 151.089903 214.280938 
L 151.089903 213.345434 
L 151.400845 213.345434 
L 151.400845 212.409931 
L 151.554409 212.409931 
L 151.554409 211.942179 
L 152.977604 211.942179 
L 152.977604 211.006676 
L 153.142309 211.006676 
L 153.212458 209.603421 
L 153.259079 209.603421 
L 153.259079 209.135669 
L 156.225294 209.135669 
L 156.225294 208.667917 
L 157.023421 208.667917 
L 157.023421 208.200166 
L 157.898535 208.200166 
L 158.007377 206.329159 
L 158.025456 206.329159 
L 158.025456 205.861407 
L 158.169469 205.861407 
L 158.169469 205.393655 
L 160.206974 205.393655 
L 160.206974 204.458152 
L 161.706511 204.458152 
L 161.706511 203.9904 
L 162.520739 203.9904 
L 162.520739 203.522648 
L 163.260183 203.522648 
L 163.260183 202.587145 
L 163.746367 202.587145 
L 163.746367 202.119393 
L 164.859342 202.119393 
L 164.859342 201.651641 
L 165.343147 201.651641 
L 165.416487 199.312883 
L 165.826761 199.312883 
L 165.826761 198.845131 
L 166.251633 198.845131 
L 166.251633 198.377379 
L 166.39115 198.377379 
L 166.39115 197.909628 
L 168.575917 197.909628 
L 168.647973 196.506372 
L 170.355719 196.506372 
L 170.355719 195.570869 
L 172.707472 195.570869 
L 172.707472 195.103117 
L 172.872342 195.103117 
L 172.872342 194.167614 
L 173.230049 194.167614 
L 173.2381 193.23211 
L 173.493935 193.23211 
L 173.493935 192.764359 
L 173.659955 192.764359 
L 173.659955 191.828855 
L 174.332558 191.828855 
L 174.332558 191.361103 
L 174.5365 191.361103 
L 174.5365 190.893352 
L 174.871565 190.893352 
L 174.871565 189.957848 
L 175.424244 189.957848 
L 175.424244 189.490097 
L 177.472768 189.490097 
L 177.472768 188.554593 
L 177.709073 188.554593 
L 177.709073 188.086841 
L 177.929905 188.086841 
L 177.929905 187.151338 
L 178.154375 187.151338 
L 178.154375 186.683586 
L 178.990851 186.683586 
L 179.067766 184.812579 
L 179.774658 184.812579 
L 179.774658 183.877076 
L 180.13513 183.877076 
L 180.13513 183.409324 
L 180.516178 183.409324 
L 180.516178 182.941572 
L 181.271635 182.941572 
L 181.271635 182.006069 
L 181.758927 182.006069 
L 181.758927 181.538317 
L 181.977698 181.538317 
L 181.977698 181.070566 
L 182.471914 181.070566 
L 182.471914 180.602814 
L 183.632634 180.602814 
L 183.632634 180.135062 
L 184.193942 180.135062 
L 184.193942 179.66731 
L 184.399633 179.66731 
L 184.399633 179.199559 
L 185.79626 179.199559 
L 185.837504 178.264055 
L 186.196608 178.264055 
L 186.196608 177.796303 
L 186.576733 177.796303 
L 186.576733 176.8608 
L 187.130972 176.8608 
L 187.130972 176.393048 
L 187.500398 176.393048 
L 187.500398 175.925297 
L 188.097994 175.925297 
L 188.097994 175.457545 
L 189.331691 175.457545 
L 189.331691 174.522041 
L 190.275885 174.522041 
L 190.275885 174.05429 
L 190.997286 174.05429 
L 190.997286 173.586538 
L 191.785367 173.586538 
L 191.785367 173.118786 
L 192.978028 173.118786 
L 192.978028 172.651034 
L 193.837504 172.651034 
L 193.837504 172.183283 
L 194.935767 172.183283 
L 194.935767 171.715531 
L 360.8064 171.715531 
L 360.8064 171.715531 
" style="fill: none; stroke: #ff00ff; stroke-width: 1.5; stroke-linecap: square"/>
   </g>
   <g id="line2d_41">
    <defs>
     <path id="mc54a23855f" d="M -0 8.485281 
L 5.091169 0 
L 0 -8.485281 
L -5.091169 -0 
z
" style="stroke: #ff00ff; stroke-width: 1.5; stroke-linejoin: miter"/>
    </defs>
    <g>
     <use xlink:href="#mc54a23855f" x="76.96874" y="264.330372" style="fill-opacity: 0; stroke: #ff00ff; stroke-width: 1.5; stroke-linejoin: miter"/>
     <use xlink:href="#mc54a23855f" x="142.41488" y="220.829462" style="fill-opacity: 0; stroke: #ff00ff; stroke-width: 1.5; stroke-linejoin: miter"/>
     <use xlink:href="#mc54a23855f" x="194.935767" y="172.183283" style="fill-opacity: 0; stroke: #ff00ff; stroke-width: 1.5; stroke-linejoin: miter"/>
     <use xlink:href="#mc54a23855f" x="194.935767" y="171.715531" style="fill-opacity: 0; stroke: #ff00ff; stroke-width: 1.5; stroke-linejoin: miter"/>
     <use xlink:href="#mc54a23855f" x="194.935767" y="171.715531" style="fill-opacity: 0; stroke: #ff00ff; stroke-width: 1.5; stroke-linejoin: miter"/>
     <use xlink:href="#mc54a23855f" x="360.8064" y="171.715531" style="fill-opacity: 0; stroke: #ff00ff; stroke-width: 1.5; stroke-linejoin: miter"/>
    </g>
   </g>
   <g id="line2d_42">
    <path style="fill: none; stroke: #ff00ff; stroke-width: 1.5; stroke-linecap: square"/>
    <g/>
   </g>
   <g id="line2d_43">
    <path d="M 230.869075 171.715531 
" clip-path="url(#p0bc9a28043)" style="fill: none; stroke: #ff00ff; stroke-width: 1.5; stroke-linecap: square"/>
    <defs>
     <path id="m5a57ad7b64" d="M -12 12 
L 12 -12 
M -12 -12 
L 12 12 
" style="stroke: #ff00ff"/>
    </defs>
    <g clip-path="url(#p0bc9a28043)">
     <use xlink:href="#m5a57ad7b64" x="230.869075" y="171.715531" style="fill: #ff00ff; stroke: #ff00ff"/>
    </g>
   </g>
   <g id="line2d_44">
    <defs>
     <path id="mf121c3f8e2" d="M 0 1.5 
C 0.397805 1.5 0.77937 1.341951 1.06066 1.06066 
C 1.341951 0.77937 1.5 0.397805 1.5 0 
C 1.5 -0.397805 1.341951 -0.77937 1.06066 -1.06066 
C 0.77937 -1.341951 0.397805 -1.5 0 -1.5 
C -0.397805 -1.5 -0.77937 -1.341951 -1.06066 -1.06066 
C -1.341951 -0.77937 -1.5 -0.397805 -1.5 0 
C -1.5 0.397805 -1.341951 0.77937 -1.06066 1.06066 
C -0.77937 1.341951 -0.397805 1.5 0 1.5 
z
" style="stroke: #ff7500"/>
    </defs>
    <g>
     <use xlink:href="#mf121c3f8e2" x="212.09014" y="198.377379" style="fill: #ff7500; stroke: #ff7500"/>
     <use xlink:href="#mf121c3f8e2" x="212.09014" y="198.377379" style="fill: #ff7500; stroke: #ff7500"/>
    </g>
   </g>
   <g id="line2d_45">
    <path d="M 27.323974 298.944 
L 27.323974 287.717959 
L 40.363149 287.717959 
L 40.363149 283.040441 
L 95.752617 283.040441 
L 95.752617 278.362924 
L 108.29012 278.362924 
L 108.29012 272.749903 
L 115.747307 272.749903 
L 115.747307 270.878897 
L 121.073351 270.878897 
L 121.073351 267.604634 
L 125.219419 267.604634 
L 125.219419 266.201379 
L 128.614685 266.201379 
L 128.614685 264.798124 
L 131.489828 264.798124 
L 131.489828 264.330372 
L 133.983236 264.330372 
L 133.983236 263.394869 
L 136.184497 263.394869 
L 136.184497 261.05611 
L 138.154948 261.05611 
L 138.154948 260.588359 
L 139.93843 260.588359 
L 139.93843 257.781848 
L 141.56737 257.781848 
L 141.56737 257.314097 
L 143.066428 257.314097 
L 143.066428 254.975338 
L 144.454795 254.975338 
L 144.454795 253.104331 
L 145.7477 253.104331 
L 145.7477 252.168828 
L 148.094045 252.168828 
L 148.094045 250.765572 
L 149.165879 250.765572 
L 149.165879 249.830069 
L 150.179921 249.830069 
L 150.179921 248.894566 
L 152.057422 248.894566 
L 152.057422 248.426814 
L 152.930279 248.426814 
L 152.930279 247.49131 
L 153.764426 247.49131 
L 153.764426 246.555807 
L 154.563149 246.555807 
L 154.563149 245.620303 
L 155.329337 245.620303 
L 155.329337 244.6848 
L 156.774003 244.6848 
L 156.774003 244.217048 
L 158.115593 244.217048 
L 158.115593 242.813793 
L 158.752135 242.813793 
L 158.752135 241.87829 
L 159.367841 241.87829 
L 159.367841 240.475034 
L 159.964032 240.475034 
L 159.964032 239.539531 
L 161.102557 239.539531 
L 161.102557 238.604028 
L 162.17609 238.604028 
L 162.17609 238.136276 
L 162.690724 238.136276 
L 162.690724 237.668524 
L 163.191653 237.668524 
L 163.191653 236.265269 
L 164.619057 236.265269 
L 164.619057 235.797517 
L 165.071763 235.797517 
L 165.071763 235.329766 
L 165.51383 235.329766 
L 165.51383 234.862014 
L 167.580589 234.862014 
L 167.580589 233.92651 
L 168.719753 233.92651 
L 168.719753 233.458759 
L 169.084644 233.458759 
L 169.084644 232.523255 
L 170.477296 232.523255 
L 170.477296 232.055503 
L 171.136775 232.055503 
L 171.136775 231.12 
L 171.458043 231.12 
L 171.458043 230.652248 
L 172.084572 230.652248 
L 172.084572 229.248993 
L 172.986898 229.248993 
L 172.986898 228.31349 
L 173.847916 228.31349 
L 173.847916 226.910234 
L 174.126381 226.910234 
L 174.126381 225.974731 
L 174.671243 225.974731 
L 174.671243 225.506979 
L 175.200767 225.506979 
L 175.200767 225.039228 
L 175.968112 225.039228 
L 175.968112 224.103724 
L 177.645499 224.103724 
L 177.645499 223.635972 
L 178.320986 223.635972 
L 178.320986 222.700469 
L 178.540864 222.700469 
L 178.540864 221.764966 
L 179.603279 221.764966 
L 179.603279 221.297214 
L 181.563454 221.297214 
L 181.563454 220.36171 
L 182.471914 220.36171 
L 182.471914 219.426207 
L 182.648457 219.426207 
L 182.648457 218.490703 
L 183.338515 218.490703 
L 183.338515 218.022952 
L 183.839939 218.022952 
L 183.839939 217.087448 
L 184.64704 217.087448 
L 184.64704 216.619697 
L 185.115186 216.619697 
L 185.115186 215.684193 
L 185.571964 215.684193 
L 185.571964 214.74869 
L 185.721791 214.74869 
L 185.721791 212.877683 
L 186.596528 212.877683 
L 186.596528 211.942179 
L 188.62042 211.942179 
L 188.62042 211.006676 
L 189.372704 211.006676 
L 189.372704 210.071172 
L 189.977413 210.071172 
L 189.977413 209.603421 
L 190.792622 209.603421 
L 190.792622 208.667917 
L 191.791373 208.667917 
L 191.791373 208.200166 
L 192.112844 208.200166 
L 192.112844 207.264662 
L 193.445696 207.264662 
L 193.544416 205.393655 
L 194.221318 205.393655 
L 194.31606 204.458152 
L 197.120378 204.458152 
L 197.120378 203.522648 
L 197.363053 203.522648 
L 197.363053 203.054897 
L 197.917409 203.054897 
L 197.917409 202.119393 
L 198.682039 202.119393 
L 198.682039 201.651641 
L 201.268234 201.651641 
L 201.268234 200.716138 
L 202.59196 200.716138 
L 202.59196 200.248386 
L 209.110901 200.248386 
L 209.110901 199.312883 
L 212.09014 199.312883 
L 212.09014 198.377379 
L 360.8064 198.377379 
L 360.8064 198.377379 
" style="fill: none; stroke: #ff7500; stroke-width: 1.5; stroke-linecap: square"/>
   </g>
   <g id="line2d_46">
    <defs>
     <path id="mfd6618797d" d="M 0 -6 
L -1.347084 -1.854102 
L -5.706339 -1.854102 
L -2.179628 0.708204 
L -3.526712 4.854102 
L -0 2.291796 
L 3.526712 4.854102 
L 2.179628 0.708204 
L 5.706339 -1.854102 
L 1.347084 -1.854102 
z
" style="stroke: #ff7500; stroke-width: 1.5; stroke-linejoin: bevel"/>
    </defs>
    <g>
     <use xlink:href="#mfd6618797d" x="141.56737" y="257.781848" style="fill-opacity: 0; stroke: #ff7500; stroke-width: 1.5; stroke-linejoin: bevel"/>
     <use xlink:href="#mfd6618797d" x="183.338515" y="218.490703" style="fill-opacity: 0; stroke: #ff7500; stroke-width: 1.5; stroke-linejoin: bevel"/>
     <use xlink:href="#mfd6618797d" x="212.09014" y="199.312883" style="fill-opacity: 0; stroke: #ff7500; stroke-width: 1.5; stroke-linejoin: bevel"/>
     <use xlink:href="#mfd6618797d" x="212.09014" y="198.377379" style="fill-opacity: 0; stroke: #ff7500; stroke-width: 1.5; stroke-linejoin: bevel"/>
     <use xlink:href="#mfd6618797d" x="212.09014" y="198.377379" style="fill-opacity: 0; stroke: #ff7500; stroke-width: 1.5; stroke-linejoin: bevel"/>
     <use xlink:href="#mfd6618797d" x="360.8064" y="198.377379" style="fill-opacity: 0; stroke: #ff7500; stroke-width: 1.5; stroke-linejoin: bevel"/>
    </g>
   </g>
   <g id="line2d_47">
    <path style="fill: none; stroke: #ff7500; stroke-width: 1.5; stroke-linecap: square"/>
    <g/>
   </g>
   <g id="line2d_48">
    <path d="M 230.862681 198.377379 
" clip-path="url(#p0bc9a28043)" style="fill: none; stroke: #ff7500; stroke-width: 1.5; stroke-linecap: square"/>
    <defs>
     <path id="m0648e6c0a9" d="M -12 12 
L 12 -12 
M -12 -12 
L 12 12 
" style="stroke: #ff7500"/>
    </defs>
    <g clip-path="url(#p0bc9a28043)">
     <use xlink:href="#m0648e6c0a9" x="230.862681" y="198.377379" style="fill: #ff7500; stroke: #ff7500"/>
    </g>
   </g>
   <g id="line2d_49">
    <defs>
     <path id="m9164f72001" d="M 0 1.5 
C 0.397805 1.5 0.77937 1.341951 1.06066 1.06066 
C 1.341951 0.77937 1.5 0.397805 1.5 0 
C 1.5 -0.397805 1.341951 -0.77937 1.06066 -1.06066 
C 0.77937 -1.341951 0.397805 -1.5 0 -1.5 
C -0.397805 -1.5 -0.77937 -1.341951 -1.06066 -1.06066 
C -1.341951 -0.77937 -1.5 -0.397805 -1.5 0 
C -1.5 0.397805 -1.341951 0.77937 -1.06066 1.06066 
C -0.77937 1.341951 -0.397805 1.5 0 1.5 
z
" style="stroke: #6495ed"/>
    </defs>
    <g>
     <use xlink:href="#m9164f72001" x="193.530736" y="199.312883" style="fill: #6495ed; stroke: #6495ed"/>
     <use xlink:href="#m9164f72001" x="193.530736" y="199.312883" style="fill: #6495ed; stroke: #6495ed"/>
    </g>
   </g>
   <g id="line2d_50">
    <path d="M 27.323974 298.944 
L 27.323974 287.717959 
L 40.363149 287.717959 
L 40.363149 283.975945 
L 66.441498 283.975945 
L 66.441498 282.57269 
L 76.96874 282.57269 
L 76.96874 280.701683 
L 83.678349 280.701683 
L 83.678349 276.491917 
L 88.613828 276.491917 
L 88.613828 276.024166 
L 92.519847 276.024166 
L 92.519847 272.749903 
L 95.752617 272.749903 
L 95.752617 272.282152 
L 98.510456 272.282152 
L 98.510456 270.878897 
L 100.9152 270.878897 
L 100.9152 270.411145 
L 103.047088 270.411145 
L 103.047088 267.136883 
L 104.961779 267.136883 
L 104.961779 266.201379 
L 105.559021 266.201379 
L 105.559021 264.330372 
L 106.137884 264.330372 
L 106.137884 263.862621 
L 106.699465 263.862621 
L 106.699465 262.927117 
L 107.244765 262.927117 
L 107.244765 261.523862 
L 109.756698 261.523862 
L 109.756698 258.2496 
L 110.221204 258.2496 
L 110.221204 256.378593 
L 110.674517 256.378593 
L 110.674517 255.910841 
L 117.067958 255.910841 
L 117.067958 253.572083 
L 123.029559 253.572083 
L 123.029559 253.104331 
L 124.373813 253.104331 
L 124.373813 252.636579 
L 125.729248 252.636579 
L 125.729248 252.168828 
L 126.225624 252.168828 
L 126.225624 251.701076 
L 126.420564 251.701076 
L 126.420564 251.233324 
L 128.700779 251.233324 
L 128.700779 250.297821 
L 129.86647 250.297821 
L 129.86647 249.830069 
L 132.001241 249.830069 
L 132.073179 248.894566 
L 132.499119 248.894566 
L 132.499119 247.959062 
L 133.918257 247.959062 
L 133.918257 247.49131 
L 134.431915 247.49131 
L 134.431915 247.023559 
L 136.126705 247.023559 
L 136.126705 246.555807 
L 137.140746 246.555807 
L 137.140746 245.620303 
L 138.258593 245.620303 
L 138.258593 245.152552 
L 139.215746 245.152552 
L 139.215746 244.217048 
L 142.945969 244.217048 
L 142.945969 243.749297 
L 143.657415 243.749297 
L 143.657415 242.813793 
L 144.822939 242.813793 
L 144.822939 241.87829 
L 145.326529 241.87829 
L 145.326529 240.942786 
L 146.529503 240.942786 
L 146.529503 240.007283 
L 147.407644 240.007283 
L 147.471089 239.071779 
L 148.001907 239.071779 
L 148.001907 237.668524 
L 149.65155 237.668524 
L 149.65155 236.733021 
L 149.764026 236.733021 
L 149.764026 236.265269 
L 149.903682 236.265269 
L 149.903682 235.797517 
L 150.800286 235.797517 
L 150.800286 235.329766 
L 153.741748 235.329766 
L 153.741748 234.394262 
L 155.350181 234.394262 
L 155.350181 233.92651 
L 157.213055 233.92651 
L 157.213055 233.458759 
L 161.056469 233.458759 
L 161.056469 232.523255 
L 162.956765 232.523255 
L 162.956765 231.587752 
L 163.109086 231.587752 
L 163.136649 230.184497 
L 163.585698 230.184497 
L 163.585698 229.716745 
L 164.063646 229.716745 
L 164.063646 229.248993 
L 164.606324 229.248993 
L 164.606324 228.31349 
L 164.997064 228.31349 
L 164.997064 227.845738 
L 166.712723 227.845738 
L 166.712723 226.910234 
L 169.452437 226.910234 
L 169.452437 225.974731 
L 169.755147 225.974731 
L 169.755147 225.506979 
L 169.986203 225.506979 
L 170.014887 223.635972 
L 171.127772 223.635972 
L 171.127772 223.168221 
L 171.878039 223.168221 
L 171.878039 222.232717 
L 172.390182 222.232717 
L 172.390182 221.297214 
L 172.666028 221.297214 
L 172.666028 220.36171 
L 173.879061 220.36171 
L 173.879061 219.426207 
L 174.967261 219.426207 
L 174.996608 218.490703 
L 176.127562 218.490703 
L 176.127562 217.5552 
L 178.357812 217.5552 
L 178.357812 216.619697 
L 179.296641 216.619697 
L 179.296641 215.684193 
L 180.112802 215.684193 
L 180.12955 213.813186 
L 180.543493 213.813186 
L 180.576218 212.409931 
L 181.438943 212.409931 
L 181.438943 211.942179 
L 181.697418 211.942179 
L 181.697418 211.006676 
L 182.706939 211.006676 
L 182.706939 210.538924 
L 184.452923 210.538924 
L 184.452923 209.603421 
L 184.664589 209.603421 
L 184.664589 208.667917 
L 184.839175 208.667917 
L 184.839175 208.200166 
L 185.260186 208.200166 
L 185.260186 207.264662 
L 186.289345 207.264662 
L 186.289345 206.329159 
L 187.276561 206.329159 
L 187.276561 205.861407 
L 188.09434 205.861407 
L 188.09434 204.925903 
L 189.183987 204.925903 
L 189.24252 202.587145 
L 189.410222 202.587145 
L 189.410222 201.651641 
L 189.980719 201.651641 
L 189.993936 200.248386 
L 190.508729 200.248386 
L 190.508729 199.780634 
L 193.530736 199.780634 
L 193.530736 199.312883 
L 360.8064 199.312883 
L 360.8064 199.312883 
" style="fill: none; stroke: #6495ed; stroke-width: 1.5; stroke-linecap: square"/>
   </g>
   <g id="line2d_51">
    <defs>
     <path id="m79df943fd1" d="M -0 6 
L 6 -6 
L -6 -6 
z
" style="stroke: #6495ed; stroke-width: 1.5; stroke-linejoin: miter"/>
    </defs>
    <g>
     <use xlink:href="#m79df943fd1" x="138.258593" y="245.152552" style="fill-opacity: 0; stroke: #6495ed; stroke-width: 1.5; stroke-linejoin: miter"/>
     <use xlink:href="#m79df943fd1" x="193.530736" y="199.780634" style="fill-opacity: 0; stroke: #6495ed; stroke-width: 1.5; stroke-linejoin: miter"/>
     <use xlink:href="#m79df943fd1" x="193.530736" y="199.312883" style="fill-opacity: 0; stroke: #6495ed; stroke-width: 1.5; stroke-linejoin: miter"/>
     <use xlink:href="#m79df943fd1" x="193.530736" y="199.312883" style="fill-opacity: 0; stroke: #6495ed; stroke-width: 1.5; stroke-linejoin: miter"/>
     <use xlink:href="#m79df943fd1" x="360.8064" y="199.312883" style="fill-opacity: 0; stroke: #6495ed; stroke-width: 1.5; stroke-linejoin: miter"/>
    </g>
   </g>
   <g id="line2d_52">
    <path style="fill: none; stroke: #6495ed; stroke-width: 1.5; stroke-linecap: square"/>
    <g/>
   </g>
   <g id="line2d_53">
    <path d="M 230.865314 199.312883 
" clip-path="url(#p0bc9a28043)" style="fill: none; stroke: #6495ed; stroke-width: 1.5; stroke-linecap: square"/>
    <defs>
     <path id="mbec80605e2" d="M -12 12 
L 12 -12 
M -12 -12 
L 12 12 
" style="stroke: #6495ed"/>
    </defs>
    <g clip-path="url(#p0bc9a28043)">
     <use xlink:href="#mbec80605e2" x="230.865314" y="199.312883" style="fill: #6495ed; stroke: #6495ed"/>
    </g>
   </g>
   <g id="line2d_54">
    <defs>
     <path id="madfbf96975" d="M 0 1.5 
C 0.397805 1.5 0.77937 1.341951 1.06066 1.06066 
C 1.341951 0.77937 1.5 0.397805 1.5 0 
C 1.5 -0.397805 1.341951 -0.77937 1.06066 -1.06066 
C 0.77937 -1.341951 0.397805 -1.5 0 -1.5 
C -0.397805 -1.5 -0.77937 -1.341951 -1.06066 -1.06066 
C -1.341951 -0.77937 -1.5 -0.397805 -1.5 0 
C -1.5 0.397805 -1.341951 0.77937 -1.06066 1.06066 
C -0.77937 1.341951 -0.397805 1.5 0 1.5 
z
" style="stroke: #ff0000"/>
    </defs>
    <g>
     <use xlink:href="#madfbf96975" x="274.175172" y="171.247779" style="fill: #ff0000; stroke: #ff0000"/>
     <use xlink:href="#madfbf96975" x="274.175172" y="171.247779" style="fill: #ff0000; stroke: #ff0000"/>
    </g>
   </g>
   <g id="line2d_55">
    <path d="M 27.323974 298.944 
L 27.323974 287.717959 
L 47.990577 287.717959 
L 47.990577 287.250207 
L 57.6 287.250207 
L 57.6 283.975945 
L 61.029752 283.975945 
L 61.029752 279.298428 
L 63.929565 279.298428 
L 63.929565 277.427421 
L 66.441498 277.427421 
L 66.441498 276.024166 
L 68.65718 276.024166 
L 68.65718 275.556414 
L 70.639174 275.556414 
L 70.639174 272.282152 
L 72.432107 272.282152 
L 72.432107 269.943393 
L 78.266603 269.943393 
L 78.266603 269.475641 
L 79.480672 269.475641 
L 79.480672 268.540138 
L 83.678349 268.540138 
L 83.678349 266.669131 
L 86.307488 266.669131 
L 86.307488 264.330372 
L 94.735529 264.330372 
L 94.735529 263.862621 
L 95.752617 263.862621 
L 95.752617 263.394869 
L 98.510456 263.394869 
L 98.510456 262.459366 
L 99.751228 262.459366 
L 99.751228 261.05611 
L 100.9152 261.05611 
L 100.9152 260.588359 
L 101.653002 260.588359 
L 101.653002 259.652855 
L 102.362957 259.652855 
L 102.362957 257.781848 
L 103.047088 257.781848 
L 103.047088 257.314097 
L 103.380045 257.314097 
L 103.380045 255.44309 
L 104.655893 255.44309 
L 104.655893 254.507586 
L 105.26277 254.507586 
L 105.26277 254.039834 
L 105.559021 254.039834 
L 105.559021 253.572083 
L 106.699465 253.572083 
L 106.699465 252.636579 
L 107.774703 252.636579 
L 107.774703 251.701076 
L 108.29012 251.701076 
L 108.29012 251.233324 
L 109.520071 251.233324 
L 109.520071 250.765572 
L 110.449226 250.765572 
L 110.449226 249.830069 
L 112.385837 249.830069 
L 112.385837 249.362317 
L 112.989468 249.362317 
L 112.989468 248.426814 
L 113.57433 248.426814 
L 113.57433 247.023559 
L 114.141556 247.023559 
L 114.141556 246.088055 
L 114.326893 246.088055 
L 114.326893 245.620303 
L 115.575511 245.620303 
L 115.575511 244.6848 
L 116.583514 244.6848 
L 116.583514 244.217048 
L 116.746385 244.217048 
L 116.746385 243.749297 
L 117.067958 243.749297 
L 117.067958 242.346041 
L 117.695068 242.346041 
L 117.695068 241.410538 
L 119.459944 241.410538 
L 119.459944 240.942786 
L 119.599808 240.942786 
L 119.599808 240.475034 
L 119.876453 240.475034 
L 119.876453 239.539531 
L 122.913079 239.539531 
L 122.913079 239.071779 
L 123.4884 239.071779 
L 123.4884 238.136276 
L 124.265389 238.136276 
L 124.265389 236.733021 
L 124.801367 236.733021 
L 124.801367 235.797517 
L 125.929373 235.797517 
L 125.929373 234.862014 
L 127.366067 234.862014 
L 127.366067 233.92651 
L 127.549596 233.92651 
L 127.549596 233.458759 
L 127.821575 233.458759 
L 127.821575 232.523255 
L 128.786481 232.523255 
L 128.786481 232.055503 
L 129.375706 232.055503 
L 129.375706 230.652248 
L 130.811181 230.652248 
L 130.811181 230.184497 
L 131.563744 230.184497 
L 131.563744 229.716745 
L 132.777813 229.716745 
L 132.777813 228.781241 
L 133.656071 228.781241 
L 133.656071 228.31349 
L 134.368469 228.31349 
L 134.368469 227.377986 
L 135.538796 227.377986 
L 135.538796 226.442483 
L 136.527575 226.442483 
L 136.527575 225.974731 
L 136.808769 225.974731 
L 136.808769 225.039228 
L 137.681345 225.039228 
L 137.681345 224.103724 
L 138.36167 224.103724 
L 138.36167 223.635972 
L 139.459738 223.635972 
L 139.459738 222.700469 
L 140.860749 222.700469 
L 140.860749 221.764966 
L 141.217377 221.764966 
L 141.217377 220.829462 
L 141.739954 220.829462 
L 141.739954 219.893959 
L 142.865233 219.893959 
L 142.865233 219.426207 
L 143.423243 219.426207 
L 143.423243 218.958455 
L 144.85936 218.958455 
L 144.85936 218.490703 
L 145.112353 218.490703 
L 145.112353 217.087448 
L 147.502732 217.087448 
L 147.597342 215.684193 
L 148.785835 215.684193 
L 148.785835 215.216441 
L 149.049758 215.216441 
L 149.049758 214.280938 
L 149.165879 214.280938 
L 149.165879 213.345434 
L 149.98698 213.345434 
L 149.98698 212.409931 
L 150.398028 212.409931 
L 150.398028 211.942179 
L 152.082223 211.942179 
L 152.082223 211.474428 
L 152.498913 211.474428 
L 152.498913 211.006676 
L 152.811444 211.006676 
L 152.811444 210.538924 
L 153.142309 210.538924 
L 153.142309 209.603421 
L 153.398253 209.603421 
L 153.398253 209.135669 
L 153.605101 209.135669 
L 153.605101 208.667917 
L 154.168026 208.667917 
L 154.168026 208.200166 
L 154.928852 208.200166 
L 154.928852 207.732414 
L 155.350181 207.732414 
L 155.412574 206.79691 
L 156.677186 206.79691 
L 156.677186 205.861407 
L 157.288377 205.861407 
L 157.288377 205.393655 
L 157.789059 205.393655 
L 157.862113 204.458152 
L 158.804221 204.458152 
L 158.873444 203.522648 
L 159.300416 203.522648 
L 159.300416 203.054897 
L 160.683643 203.054897 
L 160.683643 202.119393 
L 161.391854 202.119393 
L 161.391854 201.18389 
L 162.577572 201.18389 
L 162.577572 200.716138 
L 162.942856 200.716138 
L 162.942856 199.780634 
L 164.349858 199.780634 
L 164.349858 198.845131 
L 165.281812 198.845131 
L 165.281812 197.909628 
L 165.45305 197.909628 
L 165.45305 197.441876 
L 166.251633 197.441876 
L 166.251633 196.974124 
L 166.47206 196.974124 
L 166.47206 196.506372 
L 166.644276 196.506372 
L 166.644276 196.038621 
L 167.10711 196.038621 
L 167.10711 195.570869 
L 167.460596 195.570869 
L 167.460596 194.635366 
L 168.221954 194.635366 
L 168.221954 194.167614 
L 168.617126 194.167614 
L 168.617126 193.699862 
L 169.373521 193.699862 
L 169.373521 192.764359 
L 169.813178 192.764359 
L 169.813178 192.296607 
L 170.699701 192.296607 
L 170.764077 190.4256 
L 171.226568 190.4256 
L 171.226568 189.490097 
L 171.782615 189.490097 
L 171.782615 189.022345 
L 172.007388 189.022345 
L 172.007388 188.086841 
L 172.823033 188.086841 
L 172.823033 187.151338 
L 173.205875 187.151338 
L 173.221995 186.215834 
L 173.667825 186.215834 
L 173.667825 185.748083 
L 174.018578 185.748083 
L 174.018578 184.812579 
L 174.134058 184.812579 
L 174.134058 183.877076 
L 174.574026 183.877076 
L 174.574026 183.409324 
L 175.460042 183.409324 
L 175.460042 182.941572 
L 176.086096 182.941572 
L 176.086096 182.473821 
L 176.347181 182.473821 
L 176.347181 182.006069 
L 177.220434 182.006069 
L 177.220434 181.538317 
L 177.530521 181.538317 
L 177.530521 181.070566 
L 178.216255 181.070566 
L 178.216255 180.602814 
L 178.363942 180.602814 
L 178.363942 180.135062 
L 179.499697 180.135062 
L 179.499697 179.66731 
L 180.89502 179.66731 
L 180.953865 178.264055 
L 181.113421 178.264055 
L 181.113421 177.796303 
L 181.444147 177.796303 
L 181.444147 177.328552 
L 182.745826 177.328552 
L 182.745826 176.8608 
L 183.177853 176.8608 
L 183.177853 176.393048 
L 183.29612 176.393048 
L 183.29612 175.457545 
L 186.926013 175.457545 
L 186.926013 174.522041 
L 187.32611 174.522041 
L 187.32611 174.05429 
L 189.362459 174.05429 
L 189.461261 173.118786 
L 191.366303 173.118786 
L 191.366303 172.183283 
L 194.88235 172.183283 
L 194.88235 171.715531 
L 274.175172 171.715531 
L 274.175172 171.247779 
L 360.8064 171.247779 
L 360.8064 171.247779 
" style="fill: none; stroke: #ff0000; stroke-width: 1.5; stroke-linecap: square"/>
   </g>
   <g id="line2d_56">
    <defs>
     <path id="m5e23321b51" d="M 0 -6 
L -5.196152 -3 
L -5.196152 3 
L -0 6 
L 5.196152 3 
L 5.196152 -3 
z
" style="stroke: #ff0000; stroke-width: 1.5; stroke-linejoin: miter"/>
    </defs>
    <g>
     <use xlink:href="#m5e23321b51" x="112.989468" y="249.362317" style="fill-opacity: 0; stroke: #ff0000; stroke-width: 1.5; stroke-linejoin: miter"/>
     <use xlink:href="#m5e23321b51" x="183.29612" y="175.457545" style="fill-opacity: 0; stroke: #ff0000; stroke-width: 1.5; stroke-linejoin: miter"/>
     <use xlink:href="#m5e23321b51" x="194.88235" y="171.715531" style="fill-opacity: 0; stroke: #ff0000; stroke-width: 1.5; stroke-linejoin: miter"/>
     <use xlink:href="#m5e23321b51" x="274.175172" y="171.247779" style="fill-opacity: 0; stroke: #ff0000; stroke-width: 1.5; stroke-linejoin: miter"/>
     <use xlink:href="#m5e23321b51" x="274.175172" y="171.247779" style="fill-opacity: 0; stroke: #ff0000; stroke-width: 1.5; stroke-linejoin: miter"/>
     <use xlink:href="#m5e23321b51" x="360.8064" y="171.247779" style="fill-opacity: 0; stroke: #ff0000; stroke-width: 1.5; stroke-linejoin: miter"/>
    </g>
   </g>
   <g id="line2d_57">
    <path style="fill: none; stroke: #ff0000; stroke-width: 1.5; stroke-linecap: square"/>
    <g/>
   </g>
   <g id="line2d_58">
    <path d="M 274.176188 171.247779 
" clip-path="url(#p0bc9a28043)" style="fill: none; stroke: #ff0000; stroke-width: 1.5; stroke-linecap: square"/>
    <defs>
     <path id="m7a1a3034b9" d="M -12 12 
L 12 -12 
M -12 -12 
L 12 12 
" style="stroke: #ff0000"/>
    </defs>
    <g clip-path="url(#p0bc9a28043)">
     <use xlink:href="#m7a1a3034b9" x="274.176188" y="171.247779" style="fill: #ff0000; stroke: #ff0000"/>
    </g>
   </g>
   <g id="line2d_59">
    <path d="M 360.8064 199.312883 
L 380.514816 293.51808 
" style="fill: none; stroke: #6495ed; stroke-width: 1.5; stroke-linecap: square"/>
    <g>
     <use xlink:href="#m79df943fd1" x="360.8064" y="199.312883" style="fill-opacity: 0; stroke: #6495ed; stroke-width: 1.5; stroke-linejoin: miter"/>
     <use xlink:href="#m79df943fd1" x="380.514816" y="293.51808" style="fill-opacity: 0; stroke: #6495ed; stroke-width: 1.5; stroke-linejoin: miter"/>
    </g>
   </g>
   <g id="line2d_60">
    <path d="M 360.8064 198.377379 
L 380.514816 241.429248 
" style="fill: none; stroke: #ff7500; stroke-width: 1.5; stroke-linecap: square"/>
    <g>
     <use xlink:href="#mfd6618797d" x="360.8064" y="198.377379" style="fill-opacity: 0; stroke: #ff7500; stroke-width: 1.5; stroke-linejoin: bevel"/>
     <use xlink:href="#mfd6618797d" x="380.514816" y="241.429248" style="fill-opacity: 0; stroke: #ff7500; stroke-width: 1.5; stroke-linejoin: bevel"/>
    </g>
   </g>
   <g id="line2d_61">
    <path d="M 360.8064 171.715531 
L 380.514816 189.340416 
" style="fill: none; stroke: #ff00ff; stroke-width: 1.5; stroke-linecap: square"/>
    <g>
     <use xlink:href="#mc54a23855f" x="360.8064" y="171.715531" style="fill-opacity: 0; stroke: #ff00ff; stroke-width: 1.5; stroke-linejoin: miter"/>
     <use xlink:href="#mc54a23855f" x="380.514816" y="189.340416" style="fill-opacity: 0; stroke: #ff00ff; stroke-width: 1.5; stroke-linejoin: miter"/>
    </g>
   </g>
   <g id="line2d_62">
    <path d="M 360.8064 171.247779 
L 380.514816 137.251584 
" style="fill: none; stroke: #ff0000; stroke-width: 1.5; stroke-linecap: square"/>
    <g>
     <use xlink:href="#m5e23321b51" x="360.8064" y="171.247779" style="fill-opacity: 0; stroke: #ff0000; stroke-width: 1.5; stroke-linejoin: miter"/>
     <use xlink:href="#m5e23321b51" x="380.514816" y="137.251584" style="fill-opacity: 0; stroke: #ff0000; stroke-width: 1.5; stroke-linejoin: miter"/>
    </g>
   </g>
   <g id="line2d_63">
    <path d="M 360.8064 162.360497 
L 380.514816 85.162752 
" style="fill: none; stroke: #000080; stroke-width: 1.5; stroke-linecap: square"/>
    <g>
     <use xlink:href="#maf94d84efd" x="360.8064" y="162.360497" style="fill-opacity: 0; stroke: #000080; stroke-width: 1.5"/>
     <use xlink:href="#maf94d84efd" x="380.514816" y="85.162752" style="fill-opacity: 0; stroke: #000080; stroke-width: 1.5"/>
    </g>
   </g>
   <g id="line2d_64">
    <path d="M 360.8064 298.944 
L 360.8064 27.648 
" style="fill: none; stroke: #000000; stroke-width: 1.5; stroke-linecap: square"/>
   </g>
   <g id="patch_3">
    <path d="M 57.6 298.944 
L 360.8064 298.944 
" style="fill: none; stroke: #000000; stroke-width: 0.8; stroke-linejoin: miter; stroke-linecap: square"/>
   </g>
   <g id="patch_4">
    <path d="M 57.6 27.648 
L 360.8064 27.648 
" style="fill: none; stroke: #000000; stroke-width: 0.8; stroke-linejoin: miter; stroke-linecap: square"/>
   </g>
   <g id="text_13">
    <!-- kerLQ -->
    <g transform="translate(386.578944 297.381205) scale(0.14 -0.14)">
     <defs>
      <path id="DejaVuSans-6b" d="M 581 4863 
L 1159 4863 
L 1159 1991 
L 2875 3500 
L 3609 3500 
L 1753 1863 
L 3688 0 
L 2938 0 
L 1159 1709 
L 1159 0 
L 581 0 
L 581 4863 
z
" transform="scale(0.015625)"/>
      <path id="DejaVuSans-4c" d="M 628 4666 
L 1259 4666 
L 1259 531 
L 3531 531 
L 3531 0 
L 628 0 
L 628 4666 
z
" transform="scale(0.015625)"/>
      <path id="DejaVuSans-51" d="M 2522 4238 
Q 1834 4238 1429 3725 
Q 1025 3213 1025 2328 
Q 1025 1447 1429 934 
Q 1834 422 2522 422 
Q 3209 422 3611 934 
Q 4013 1447 4013 2328 
Q 4013 3213 3611 3725 
Q 3209 4238 2522 4238 
z
M 3406 84 
L 4238 -825 
L 3475 -825 
L 2784 -78 
Q 2681 -84 2626 -87 
Q 2572 -91 2522 -91 
Q 1538 -91 948 567 
Q 359 1225 359 2328 
Q 359 3434 948 4092 
Q 1538 4750 2522 4750 
Q 3503 4750 4090 4092 
Q 4678 3434 4678 2328 
Q 4678 1516 4351 937 
Q 4025 359 3406 84 
z
" transform="scale(0.015625)"/>
     </defs>
     <use xlink:href="#DejaVuSans-6b"/>
     <use xlink:href="#DejaVuSans-65" x="54.285156"/>
     <use xlink:href="#DejaVuSans-72" x="115.808594"/>
     <use xlink:href="#DejaVuSans-4c" x="156.921875"/>
     <use xlink:href="#DejaVuSans-51" x="212.634766"/>
    </g>
   </g>
   <g id="text_14">
    <!-- kerComo -->
    <g transform="translate(386.578944 245.292373) scale(0.14 -0.14)">
     <defs>
      <path id="DejaVuSans-43" d="M 4122 4306 
L 4122 3641 
Q 3803 3938 3442 4084 
Q 3081 4231 2675 4231 
Q 1875 4231 1450 3742 
Q 1025 3253 1025 2328 
Q 1025 1406 1450 917 
Q 1875 428 2675 428 
Q 3081 428 3442 575 
Q 3803 722 4122 1019 
L 4122 359 
Q 3791 134 3420 21 
Q 3050 -91 2638 -91 
Q 1578 -91 968 557 
Q 359 1206 359 2328 
Q 359 3453 968 4101 
Q 1578 4750 2638 4750 
Q 3056 4750 3426 4639 
Q 3797 4528 4122 4306 
z
" transform="scale(0.015625)"/>
     </defs>
     <use xlink:href="#DejaVuSans-6b"/>
     <use xlink:href="#DejaVuSans-65" x="54.285156"/>
     <use xlink:href="#DejaVuSans-72" x="115.808594"/>
     <use xlink:href="#DejaVuSans-43" x="156.921875"/>
     <use xlink:href="#DejaVuSans-6f" x="226.746094"/>
     <use xlink:href="#DejaVuSans-6d" x="287.927734"/>
     <use xlink:href="#DejaVuSans-6f" x="385.339844"/>
    </g>
   </g>
   <g id="text_15">
    <!-- AllLQ -->
    <g transform="translate(386.578944 193.203541) scale(0.14 -0.14)">
     <defs>
      <path id="DejaVuSans-41" d="M 2188 4044 
L 1331 1722 
L 3047 1722 
L 2188 4044 
z
M 1831 4666 
L 2547 4666 
L 4325 0 
L 3669 0 
L 3244 1197 
L 1141 1197 
L 716 0 
L 50 0 
L 1831 4666 
z
" transform="scale(0.015625)"/>
     </defs>
     <use xlink:href="#DejaVuSans-41"/>
     <use xlink:href="#DejaVuSans-6c" x="68.408203"/>
     <use xlink:href="#DejaVuSans-6c" x="96.191406"/>
     <use xlink:href="#DejaVuSans-4c" x="123.974609"/>
     <use xlink:href="#DejaVuSans-51" x="179.6875"/>
    </g>
   </g>
   <g id="text_16">
    <!-- COMO-10 d -->
    <g transform="translate(386.578944 141.114709) scale(0.14 -0.14)">
     <defs>
      <path id="DejaVuSans-4f" d="M 2522 4238 
Q 1834 4238 1429 3725 
Q 1025 3213 1025 2328 
Q 1025 1447 1429 934 
Q 1834 422 2522 422 
Q 3209 422 3611 934 
Q 4013 1447 4013 2328 
Q 4013 3213 3611 3725 
Q 3209 4238 2522 4238 
z
M 2522 4750 
Q 3503 4750 4090 4092 
Q 4678 3434 4678 2328 
Q 4678 1225 4090 567 
Q 3503 -91 2522 -91 
Q 1538 -91 948 565 
Q 359 1222 359 2328 
Q 359 3434 948 4092 
Q 1538 4750 2522 4750 
z
" transform="scale(0.015625)"/>
      <path id="DejaVuSans-4d" d="M 628 4666 
L 1569 4666 
L 2759 1491 
L 3956 4666 
L 4897 4666 
L 4897 0 
L 4281 0 
L 4281 4097 
L 3078 897 
L 2444 897 
L 1241 4097 
L 1241 0 
L 628 0 
L 628 4666 
z
" transform="scale(0.015625)"/>
     </defs>
     <use xlink:href="#DejaVuSans-43"/>
     <use xlink:href="#DejaVuSans-4f" x="69.824219"/>
     <use xlink:href="#DejaVuSans-4d" x="148.535156"/>
     <use xlink:href="#DejaVuSans-4f" x="234.814453"/>
     <use xlink:href="#DejaVuSans-2d" x="316.275391"/>
     <use xlink:href="#DejaVuSans-31" x="352.359375"/>
     <use xlink:href="#DejaVuSans-30" x="415.982422"/>
     <use xlink:href="#DejaVuSans-20" x="479.605469"/>
     <use xlink:href="#DejaVuSans-64" x="511.392578"/>
    </g>
   </g>
   <g id="text_17">
    <!-- AllComo -->
    <g transform="translate(386.578944 89.025877) scale(0.14 -0.14)">
     <use xlink:href="#DejaVuSans-41"/>
     <use xlink:href="#DejaVuSans-6c" x="68.408203"/>
     <use xlink:href="#DejaVuSans-6c" x="96.191406"/>
     <use xlink:href="#DejaVuSans-43" x="123.974609"/>
     <use xlink:href="#DejaVuSans-6f" x="193.798828"/>
     <use xlink:href="#DejaVuSans-6d" x="254.980469"/>
     <use xlink:href="#DejaVuSans-6f" x="352.392578"/>
    </g>
   </g>
   <g id="text_18">
    <!-- best 2016 -->
    <g transform="translate(386.578944 36.937045) scale(0.14 -0.14)">
     <defs>
      <path id="DejaVuSans-62" d="M 3116 1747 
Q 3116 2381 2855 2742 
Q 2594 3103 2138 3103 
Q 1681 3103 1420 2742 
Q 1159 2381 1159 1747 
Q 1159 1113 1420 752 
Q 1681 391 2138 391 
Q 2594 391 2855 752 
Q 3116 1113 3116 1747 
z
M 1159 2969 
Q 1341 3281 1617 3432 
Q 1894 3584 2278 3584 
Q 2916 3584 3314 3078 
Q 3713 2572 3713 1747 
Q 3713 922 3314 415 
Q 2916 -91 2278 -91 
Q 1894 -91 1617 61 
Q 1341 213 1159 525 
L 1159 0 
L 581 0 
L 581 4863 
L 1159 4863 
L 1159 2969 
z
" transform="scale(0.015625)"/>
     </defs>
     <use xlink:href="#DejaVuSans-62"/>
     <use xlink:href="#DejaVuSans-65" x="63.476562"/>
     <use xlink:href="#DejaVuSans-73" x="125"/>
     <use xlink:href="#DejaVuSans-74" x="177.099609"/>
     <use xlink:href="#DejaVuSans-20" x="216.308594"/>
     <use xlink:href="#DejaVuSans-32" x="248.095703"/>
     <use xlink:href="#DejaVuSans-30" x="311.71875"/>
     <use xlink:href="#DejaVuSans-31" x="375.341797"/>
     <use xlink:href="#DejaVuSans-36" x="438.964844"/>
    </g>
   </g>
   <g id="text_19">
    <!-- bbob-biobj f11, 5-D -->
    <g transform="translate(60.632064 38.111366) scale(0.102 -0.102)">
     <defs>
      <path id="DejaVuSans-6a" d="M 603 3500 
L 1178 3500 
L 1178 -63 
Q 1178 -731 923 -1031 
Q 669 -1331 103 -1331 
L -116 -1331 
L -116 -844 
L 38 -844 
Q 366 -844 484 -692 
Q 603 -541 603 -63 
L 603 3500 
z
M 603 4863 
L 1178 4863 
L 1178 4134 
L 603 4134 
L 603 4863 
z
" transform="scale(0.015625)"/>
      <path id="DejaVuSans-35" d="M 691 4666 
L 3169 4666 
L 3169 4134 
L 1269 4134 
L 1269 2991 
Q 1406 3038 1543 3061 
Q 1681 3084 1819 3084 
Q 2600 3084 3056 2656 
Q 3513 2228 3513 1497 
Q 3513 744 3044 326 
Q 2575 -91 1722 -91 
Q 1428 -91 1123 -41 
Q 819 9 494 109 
L 494 744 
Q 775 591 1075 516 
Q 1375 441 1709 441 
Q 2250 441 2565 725 
Q 2881 1009 2881 1497 
Q 2881 1984 2565 2268 
Q 2250 2553 1709 2553 
Q 1456 2553 1204 2497 
Q 953 2441 691 2322 
L 691 4666 
z
" transform="scale(0.015625)"/>
      <path id="DejaVuSans-44" d="M 1259 4147 
L 1259 519 
L 2022 519 
Q 2988 519 3436 956 
Q 3884 1394 3884 2338 
Q 3884 3275 3436 3711 
Q 2988 4147 2022 4147 
L 1259 4147 
z
M 628 4666 
L 1925 4666 
Q 3281 4666 3915 4102 
Q 4550 3538 4550 2338 
Q 4550 1131 3912 565 
Q 3275 0 1925 0 
L 628 0 
L 628 4666 
z
" transform="scale(0.015625)"/>
     </defs>
     <use xlink:href="#DejaVuSans-62"/>
     <use xlink:href="#DejaVuSans-62" x="63.476562"/>
     <use xlink:href="#DejaVuSans-6f" x="126.953125"/>
     <use xlink:href="#DejaVuSans-62" x="188.134766"/>
     <use xlink:href="#DejaVuSans-2d" x="251.611328"/>
     <use xlink:href="#DejaVuSans-62" x="287.695312"/>
     <use xlink:href="#DejaVuSans-69" x="351.171875"/>
     <use xlink:href="#DejaVuSans-6f" x="378.955078"/>
     <use xlink:href="#DejaVuSans-62" x="440.136719"/>
     <use xlink:href="#DejaVuSans-6a" x="503.613281"/>
     <use xlink:href="#DejaVuSans-20" x="531.396484"/>
     <use xlink:href="#DejaVuSans-66" x="563.183594"/>
     <use xlink:href="#DejaVuSans-31" x="598.388672"/>
     <use xlink:href="#DejaVuSans-31" x="662.011719"/>
     <use xlink:href="#DejaVuSans-2c" x="725.634766"/>
     <use xlink:href="#DejaVuSans-20" x="757.421875"/>
     <use xlink:href="#DejaVuSans-35" x="789.208984"/>
     <use xlink:href="#DejaVuSans-2d" x="852.832031"/>
     <use xlink:href="#DejaVuSans-44" x="888.916016"/>
    </g>
    <!-- 58 targets: 1..-1.0e-4 -->
    <g transform="translate(60.632064 49.533135) scale(0.102 -0.102)">
     <defs>
      <path id="DejaVuSans-3a" d="M 750 794 
L 1409 794 
L 1409 0 
L 750 0 
L 750 794 
z
M 750 3309 
L 1409 3309 
L 1409 2516 
L 750 2516 
L 750 3309 
z
" transform="scale(0.015625)"/>
     </defs>
     <use xlink:href="#DejaVuSans-35"/>
     <use xlink:href="#DejaVuSans-38" x="63.623047"/>
     <use xlink:href="#DejaVuSans-20" x="127.246094"/>
     <use xlink:href="#DejaVuSans-74" x="159.033203"/>
     <use xlink:href="#DejaVuSans-61" x="198.242188"/>
     <use xlink:href="#DejaVuSans-72" x="259.521484"/>
     <use xlink:href="#DejaVuSans-67" x="298.884766"/>
     <use xlink:href="#DejaVuSans-65" x="362.361328"/>
     <use xlink:href="#DejaVuSans-74" x="423.884766"/>
     <use xlink:href="#DejaVuSans-73" x="463.09375"/>
     <use xlink:href="#DejaVuSans-3a" x="515.193359"/>
     <use xlink:href="#DejaVuSans-20" x="548.884766"/>
     <use xlink:href="#DejaVuSans-31" x="580.671875"/>
     <use xlink:href="#DejaVuSans-2e" x="644.294922"/>
     <use xlink:href="#DejaVuSans-2e" x="676.082031"/>
     <use xlink:href="#DejaVuSans-2d" x="707.869141"/>
     <use xlink:href="#DejaVuSans-31" x="743.953125"/>
     <use xlink:href="#DejaVuSans-2e" x="807.576172"/>
     <use xlink:href="#DejaVuSans-30" x="839.363281"/>
     <use xlink:href="#DejaVuSans-65" x="902.986328"/>
     <use xlink:href="#DejaVuSans-2d" x="964.509766"/>
     <use xlink:href="#DejaVuSans-34" x="1000.59375"/>
    </g>
    <!-- 10 instances -->
    <g transform="translate(60.632064 60.954904) scale(0.102 -0.102)">
     <use xlink:href="#DejaVuSans-31"/>
     <use xlink:href="#DejaVuSans-30" x="63.623047"/>
     <use xlink:href="#DejaVuSans-20" x="127.246094"/>
     <use xlink:href="#DejaVuSans-69" x="159.033203"/>
     <use xlink:href="#DejaVuSans-6e" x="186.816406"/>
     <use xlink:href="#DejaVuSans-73" x="250.195312"/>
     <use xlink:href="#DejaVuSans-74" x="302.294922"/>
     <use xlink:href="#DejaVuSans-61" x="341.503906"/>
     <use xlink:href="#DejaVuSans-6e" x="402.783203"/>
     <use xlink:href="#DejaVuSans-63" x="466.162109"/>
     <use xlink:href="#DejaVuSans-65" x="521.142578"/>
     <use xlink:href="#DejaVuSans-73" x="582.666016"/>
    </g>
   </g>
   <g id="text_20">
    <!-- v2.6, hv-hash=d240b271ab0b4926 -->
    <g style="fill: #808080" transform="translate(120.362575 294.151352) scale(0.1 -0.1)">
     <defs>
      <path id="DejaVuSans-68" d="M 3513 2113 
L 3513 0 
L 2938 0 
L 2938 2094 
Q 2938 2591 2744 2837 
Q 2550 3084 2163 3084 
Q 1697 3084 1428 2787 
Q 1159 2491 1159 1978 
L 1159 0 
L 581 0 
L 581 4863 
L 1159 4863 
L 1159 2956 
Q 1366 3272 1645 3428 
Q 1925 3584 2291 3584 
Q 2894 3584 3203 3211 
Q 3513 2838 3513 2113 
z
" transform="scale(0.015625)"/>
      <path id="DejaVuSans-3d" d="M 678 2906 
L 4684 2906 
L 4684 2381 
L 678 2381 
L 678 2906 
z
M 678 1631 
L 4684 1631 
L 4684 1100 
L 678 1100 
L 678 1631 
z
" transform="scale(0.015625)"/>
      <path id="DejaVuSans-37" d="M 525 4666 
L 3525 4666 
L 3525 4397 
L 1831 0 
L 1172 0 
L 2766 4134 
L 525 4134 
L 525 4666 
z
" transform="scale(0.015625)"/>
      <path id="DejaVuSans-39" d="M 703 97 
L 703 672 
Q 941 559 1184 500 
Q 1428 441 1663 441 
Q 2288 441 2617 861 
Q 2947 1281 2994 2138 
Q 2813 1869 2534 1725 
Q 2256 1581 1919 1581 
Q 1219 1581 811 2004 
Q 403 2428 403 3163 
Q 403 3881 828 4315 
Q 1253 4750 1959 4750 
Q 2769 4750 3195 4129 
Q 3622 3509 3622 2328 
Q 3622 1225 3098 567 
Q 2575 -91 1691 -91 
Q 1453 -91 1209 -44 
Q 966 3 703 97 
z
M 1959 2075 
Q 2384 2075 2632 2365 
Q 2881 2656 2881 3163 
Q 2881 3666 2632 3958 
Q 2384 4250 1959 4250 
Q 1534 4250 1286 3958 
Q 1038 3666 1038 3163 
Q 1038 2656 1286 2365 
Q 1534 2075 1959 2075 
z
" transform="scale(0.015625)"/>
     </defs>
     <use xlink:href="#DejaVuSans-76"/>
     <use xlink:href="#DejaVuSans-32" x="59.179688"/>
     <use xlink:href="#DejaVuSans-2e" x="122.802734"/>
     <use xlink:href="#DejaVuSans-36" x="154.589844"/>
     <use xlink:href="#DejaVuSans-2c" x="218.212891"/>
     <use xlink:href="#DejaVuSans-20" x="250"/>
     <use xlink:href="#DejaVuSans-68" x="281.787109"/>
     <use xlink:href="#DejaVuSans-76" x="345.166016"/>
     <use xlink:href="#DejaVuSans-2d" x="401.720703"/>
     <use xlink:href="#DejaVuSans-68" x="437.804688"/>
     <use xlink:href="#DejaVuSans-61" x="501.183594"/>
     <use xlink:href="#DejaVuSans-73" x="562.462891"/>
     <use xlink:href="#DejaVuSans-68" x="614.5625"/>
     <use xlink:href="#DejaVuSans-3d" x="677.941406"/>
     <use xlink:href="#DejaVuSans-64" x="761.730469"/>
     <use xlink:href="#DejaVuSans-32" x="825.207031"/>
     <use xlink:href="#DejaVuSans-34" x="888.830078"/>
     <use xlink:href="#DejaVuSans-30" x="952.453125"/>
     <use xlink:href="#DejaVuSans-62" x="1016.076172"/>
     <use xlink:href="#DejaVuSans-32" x="1079.552734"/>
     <use xlink:href="#DejaVuSans-37" x="1143.175781"/>
     <use xlink:href="#DejaVuSans-31" x="1206.798828"/>
     <use xlink:href="#DejaVuSans-61" x="1270.421875"/>
     <use xlink:href="#DejaVuSans-62" x="1331.701172"/>
     <use xlink:href="#DejaVuSans-30" x="1395.177734"/>
     <use xlink:href="#DejaVuSans-62" x="1458.800781"/>
     <use xlink:href="#DejaVuSans-34" x="1522.277344"/>
     <use xlink:href="#DejaVuSans-39" x="1585.900391"/>
     <use xlink:href="#DejaVuSans-32" x="1649.523438"/>
     <use xlink:href="#DejaVuSans-36" x="1713.146484"/>
    </g>
   </g>
   <g id="text_21">
    <!-- 11 sep. Ellipsoid/sep. Elli. -->
    <g transform="translate(82.50945 21.648) scale(0.2 -0.2)">
     <defs>
      <path id="DejaVuSans-45" d="M 628 4666 
L 3578 4666 
L 3578 4134 
L 1259 4134 
L 1259 2753 
L 3481 2753 
L 3481 2222 
L 1259 2222 
L 1259 531 
L 3634 531 
L 3634 0 
L 628 0 
L 628 4666 
z
" transform="scale(0.015625)"/>
     </defs>
     <use xlink:href="#DejaVuSans-31"/>
     <use xlink:href="#DejaVuSans-31" x="63.623047"/>
     <use xlink:href="#DejaVuSans-20" x="127.246094"/>
     <use xlink:href="#DejaVuSans-73" x="159.033203"/>
     <use xlink:href="#DejaVuSans-65" x="211.132812"/>
     <use xlink:href="#DejaVuSans-70" x="272.65625"/>
     <use xlink:href="#DejaVuSans-2e" x="336.132812"/>
     <use xlink:href="#DejaVuSans-20" x="367.919922"/>
     <use xlink:href="#DejaVuSans-45" x="399.707031"/>
     <use xlink:href="#DejaVuSans-6c" x="462.890625"/>
     <use xlink:href="#DejaVuSans-6c" x="490.673828"/>
     <use xlink:href="#DejaVuSans-69" x="518.457031"/>
     <use xlink:href="#DejaVuSans-70" x="546.240234"/>
     <use xlink:href="#DejaVuSans-73" x="609.716797"/>
     <use xlink:href="#DejaVuSans-6f" x="661.816406"/>
     <use xlink:href="#DejaVuSans-69" x="722.998047"/>
     <use xlink:href="#DejaVuSans-64" x="750.78125"/>
     <use xlink:href="#DejaVuSans-2f" x="814.257812"/>
     <use xlink:href="#DejaVuSans-73" x="847.949219"/>
     <use xlink:href="#DejaVuSans-65" x="900.048828"/>
     <use xlink:href="#DejaVuSans-70" x="961.572266"/>
     <use xlink:href="#DejaVuSans-2e" x="1025.048828"/>
     <use xlink:href="#DejaVuSans-20" x="1056.835938"/>
     <use xlink:href="#DejaVuSans-45" x="1088.623047"/>
     <use xlink:href="#DejaVuSans-6c" x="1151.806641"/>
     <use xlink:href="#DejaVuSans-6c" x="1179.589844"/>
     <use xlink:href="#DejaVuSans-69" x="1207.373047"/>
     <use xlink:href="#DejaVuSans-2e" x="1235.15625"/>
    </g>
   </g>
  </g>
 </g>
 <defs>
  <clipPath id="p0bc9a28043">
   <rect x="57.6" y="27.648" width="303.2064" height="271.296"/>
  </clipPath>
 </defs>
</svg>
