<?xml version="1.0" encoding="utf-8" standalone="no"?>
<!DOCTYPE svg PUBLIC "-//W3C//DTD SVG 1.1//EN"
  "http://www.w3.org/Graphics/SVG/1.1/DTD/svg11.dtd">
<svg xmlns:xlink="http://www.w3.org/1999/xlink" width="460.8pt" height="345.6pt" viewBox="0 0 460.8 345.6" xmlns="http://www.w3.org/2000/svg" version="1.1">
 <metadata>
  <rdf:RDF xmlns:dc="http://purl.org/dc/elements/1.1/" xmlns:cc="http://creativecommons.org/ns#" xmlns:rdf="http://www.w3.org/1999/02/22-rdf-syntax-ns#">
   <cc:Work>
    <dc:type rdf:resource="http://purl.org/dc/dcmitype/StillImage"/>
    <dc:date>2023-02-10T02:08:17.823803</dc:date>
    <dc:format>image/svg+xml</dc:format>
    <dc:creator>
     <cc:Agent>
      <dc:title>Matplotlib v3.6.3, https://matplotlib.org/</dc:title>
     </cc:Agent>
    </dc:creator>
   </cc:Work>
  </rdf:RDF>
 </metadata>
 <defs>
  <style type="text/css">*{stroke-linejoin: round; stroke-linecap: butt}</style>
 </defs>
 <g id="figure_1">
  <g id="patch_1">
   <path d="M 0 345.6 
L 460.8 345.6 
L 460.8 0 
L 0 0 
z
" style="fill: #ffffff"/>
  </g>
  <g id="axes_1">
   <g id="patch_2">
    <path d="M 57.6 298.944 
L 360.8064 298.944 
L 360.8064 27.648 
L 57.6 27.648 
z
" style="fill: #ffffff"/>
   </g>
   <g id="line2d_1">
    <path d="M 36.933397 298.944 
L 36.933397 294.266483 
L 57.6 294.266483 
L 57.6 284.911448 
L 73.538988 284.911448 
L 73.538988 275.556414 
L 87.876026 275.556414 
L 87.876026 270.878897 
L 103.815014 270.878897 
L 103.815014 256.846345 
L 116.583514 256.846345 
L 116.583514 247.49131 
L 131.686295 247.49131 
L 131.686295 242.813793 
L 146.695245 242.813793 
L 146.695245 233.458759 
L 164.729041 233.458759 
L 164.729041 219.426207 
L 169.442591 219.426207 
L 169.442591 210.071172 
L 172.801076 210.071172 
L 172.801076 200.716138 
L 189.178238 200.716138 
L 189.178238 191.361103 
L 192.017176 191.361103 
L 192.017176 186.683586 
L 196.613042 186.683586 
L 196.613042 172.651034 
L 204.991969 172.651034 
L 204.991969 167.973517 
L 217.632563 167.973517 
L 217.632563 153.940966 
L 234.901816 153.940966 
L 234.901816 144.585931 
L 237.219903 144.585931 
L 237.219903 139.908414 
L 240.233216 139.908414 
L 240.233216 125.875862 
L 243.869538 125.875862 
L 243.869538 121.198345 
L 248.284087 121.198345 
L 248.284087 107.165793 
L 253.572123 107.165793 
L 253.572123 97.810759 
L 259.510265 97.810759 
L 259.510265 88.455724 
L 266.117976 88.455724 
L 266.117976 83.778207 
L 273.053208 83.778207 
L 273.053208 74.423172 
L 280.109884 74.423172 
L 280.109884 60.390621 
L 360.8064 60.390621 
" style="fill: none; stroke: #f5deb3; stroke-width: 4; stroke-linecap: square"/>
   </g>
   <g id="line2d_2">
    <defs>
     <path id="med26c97c40" d="M -0 7.778175 
L 7.778175 0 
L 0 -7.778175 
L -7.778175 -0 
z
" style="stroke: #f5deb3; stroke-width: 1.5; stroke-linejoin: miter"/>
    </defs>
    <g>
     <use xlink:href="#med26c97c40" x="103.815014" y="256.846345" style="fill: #f5deb3; stroke: #f5deb3; stroke-width: 1.5; stroke-linejoin: miter"/>
     <use xlink:href="#med26c97c40" x="172.801076" y="210.071172" style="fill: #f5deb3; stroke: #f5deb3; stroke-width: 1.5; stroke-linejoin: miter"/>
     <use xlink:href="#med26c97c40" x="217.632563" y="153.940966" style="fill: #f5deb3; stroke: #f5deb3; stroke-width: 1.5; stroke-linejoin: miter"/>
     <use xlink:href="#med26c97c40" x="280.109884" y="74.423172" style="fill: #f5deb3; stroke: #f5deb3; stroke-width: 1.5; stroke-linejoin: miter"/>
     <use xlink:href="#med26c97c40" x="280.109884" y="60.390621" style="fill: #f5deb3; stroke: #f5deb3; stroke-width: 1.5; stroke-linejoin: miter"/>
     <use xlink:href="#med26c97c40" x="360.8064" y="60.390621" style="fill: #f5deb3; stroke: #f5deb3; stroke-width: 1.5; stroke-linejoin: miter"/>
    </g>
   </g>
   <g id="line2d_3">
    <path style="fill: none; stroke: #f5deb3; stroke-width: 4; stroke-linecap: square"/>
    <g/>
   </g>
   <g id="line2d_4">
    <path d="M 360.8064 60.390621 
L 380.514816 33.07392 
" style="fill: none; stroke: #f5deb3; stroke-width: 4; stroke-linecap: square"/>
    <g>
     <use xlink:href="#med26c97c40" x="360.8064" y="60.390621" style="fill: #f5deb3; stroke: #f5deb3; stroke-width: 1.5; stroke-linejoin: miter"/>
     <use xlink:href="#med26c97c40" x="380.514816" y="33.07392" style="fill: #f5deb3; stroke: #f5deb3; stroke-width: 1.5; stroke-linejoin: miter"/>
    </g>
   </g>
   <g id="matplotlib.axis_1">
    <g id="xtick_1">
     <g id="line2d_5">
      <path d="M 57.6 298.944 
L 57.6 27.648 
" clip-path="url(#p87efb052bf)" style="fill: none; stroke: #b0b0b0; stroke-width: 0.8; stroke-linecap: square"/>
     </g>
     <g id="line2d_6">
      <defs>
       <path id="m318842c642" d="M 0 0 
L 0 3.5 
" style="stroke: #000000; stroke-width: 0.8"/>
      </defs>
      <g>
       <use xlink:href="#m318842c642" x="57.6" y="298.944" style="stroke: #000000; stroke-width: 0.8"/>
      </g>
     </g>
     <g id="text_1">
      <!-- 0 -->
      <g transform="translate(52.191875 318.861344) scale(0.17 -0.17)">
       <defs>
        <path id="DejaVuSans-30" d="M 2034 4250 
Q 1547 4250 1301 3770 
Q 1056 3291 1056 2328 
Q 1056 1369 1301 889 
Q 1547 409 2034 409 
Q 2525 409 2770 889 
Q 3016 1369 3016 2328 
Q 3016 3291 2770 3770 
Q 2525 4250 2034 4250 
z
M 2034 4750 
Q 2819 4750 3233 4129 
Q 3647 3509 3647 2328 
Q 3647 1150 3233 529 
Q 2819 -91 2034 -91 
Q 1250 -91 836 529 
Q 422 1150 422 2328 
Q 422 3509 836 4129 
Q 1250 4750 2034 4750 
z
" transform="scale(0.015625)"/>
       </defs>
       <use xlink:href="#DejaVuSans-30"/>
      </g>
     </g>
    </g>
    <g id="xtick_2">
     <g id="line2d_7">
      <path d="M 144.2304 298.944 
L 144.2304 27.648 
" clip-path="url(#p87efb052bf)" style="fill: none; stroke: #b0b0b0; stroke-width: 0.8; stroke-linecap: square"/>
     </g>
     <g id="line2d_8">
      <g>
       <use xlink:href="#m318842c642" x="144.2304" y="298.944" style="stroke: #000000; stroke-width: 0.8"/>
      </g>
     </g>
     <g id="text_2">
      <!-- 2 -->
      <g transform="translate(138.822275 318.861344) scale(0.17 -0.17)">
       <defs>
        <path id="DejaVuSans-32" d="M 1228 531 
L 3431 531 
L 3431 0 
L 469 0 
L 469 531 
Q 828 903 1448 1529 
Q 2069 2156 2228 2338 
Q 2531 2678 2651 2914 
Q 2772 3150 2772 3378 
Q 2772 3750 2511 3984 
Q 2250 4219 1831 4219 
Q 1534 4219 1204 4116 
Q 875 4013 500 3803 
L 500 4441 
Q 881 4594 1212 4672 
Q 1544 4750 1819 4750 
Q 2544 4750 2975 4387 
Q 3406 4025 3406 3419 
Q 3406 3131 3298 2873 
Q 3191 2616 2906 2266 
Q 2828 2175 2409 1742 
Q 1991 1309 1228 531 
z
" transform="scale(0.015625)"/>
       </defs>
       <use xlink:href="#DejaVuSans-32"/>
      </g>
     </g>
    </g>
    <g id="xtick_3">
     <g id="line2d_9">
      <path d="M 230.8608 298.944 
L 230.8608 27.648 
" clip-path="url(#p87efb052bf)" style="fill: none; stroke: #b0b0b0; stroke-width: 0.8; stroke-linecap: square"/>
     </g>
     <g id="line2d_10">
      <g>
       <use xlink:href="#m318842c642" x="230.8608" y="298.944" style="stroke: #000000; stroke-width: 0.8"/>
      </g>
     </g>
     <g id="text_3">
      <!-- 4 -->
      <g transform="translate(225.452675 318.861344) scale(0.17 -0.17)">
       <defs>
        <path id="DejaVuSans-34" d="M 2419 4116 
L 825 1625 
L 2419 1625 
L 2419 4116 
z
M 2253 4666 
L 3047 4666 
L 3047 1625 
L 3713 1625 
L 3713 1100 
L 3047 1100 
L 3047 0 
L 2419 0 
L 2419 1100 
L 313 1100 
L 313 1709 
L 2253 4666 
z
" transform="scale(0.015625)"/>
       </defs>
       <use xlink:href="#DejaVuSans-34"/>
      </g>
     </g>
    </g>
    <g id="xtick_4">
     <g id="line2d_11">
      <path d="M 317.4912 298.944 
L 317.4912 27.648 
" clip-path="url(#p87efb052bf)" style="fill: none; stroke: #b0b0b0; stroke-width: 0.8; stroke-linecap: square"/>
     </g>
     <g id="line2d_12">
      <g>
       <use xlink:href="#m318842c642" x="317.4912" y="298.944" style="stroke: #000000; stroke-width: 0.8"/>
      </g>
     </g>
     <g id="text_4">
      <!-- 6 -->
      <g transform="translate(312.083075 318.861344) scale(0.17 -0.17)">
       <defs>
        <path id="DejaVuSans-36" d="M 2113 2584 
Q 1688 2584 1439 2293 
Q 1191 2003 1191 1497 
Q 1191 994 1439 701 
Q 1688 409 2113 409 
Q 2538 409 2786 701 
Q 3034 994 3034 1497 
Q 3034 2003 2786 2293 
Q 2538 2584 2113 2584 
z
M 3366 4563 
L 3366 3988 
Q 3128 4100 2886 4159 
Q 2644 4219 2406 4219 
Q 1781 4219 1451 3797 
Q 1122 3375 1075 2522 
Q 1259 2794 1537 2939 
Q 1816 3084 2150 3084 
Q 2853 3084 3261 2657 
Q 3669 2231 3669 1497 
Q 3669 778 3244 343 
Q 2819 -91 2113 -91 
Q 1303 -91 875 529 
Q 447 1150 447 2328 
Q 447 3434 972 4092 
Q 1497 4750 2381 4750 
Q 2619 4750 2861 4703 
Q 3103 4656 3366 4563 
z
" transform="scale(0.015625)"/>
       </defs>
       <use xlink:href="#DejaVuSans-36"/>
      </g>
     </g>
    </g>
    <g id="xtick_5">
     <g id="line2d_13">
      <path d="M 100.9152 298.944 
L 100.9152 27.648 
" clip-path="url(#p87efb052bf)" style="fill: none; stroke: #b0b0b0; stroke-width: 0.8; stroke-linecap: square"/>
     </g>
     <g id="line2d_14">
      <defs>
       <path id="m43bf4559a8" d="M 0 0 
L 0 2 
" style="stroke: #000000; stroke-width: 0.6"/>
      </defs>
      <g>
       <use xlink:href="#m43bf4559a8" x="100.9152" y="298.944" style="stroke: #000000; stroke-width: 0.6"/>
      </g>
     </g>
    </g>
    <g id="xtick_6">
     <g id="line2d_15">
      <path d="M 187.5456 298.944 
L 187.5456 27.648 
" clip-path="url(#p87efb052bf)" style="fill: none; stroke: #b0b0b0; stroke-width: 0.8; stroke-linecap: square"/>
     </g>
     <g id="line2d_16">
      <g>
       <use xlink:href="#m43bf4559a8" x="187.5456" y="298.944" style="stroke: #000000; stroke-width: 0.6"/>
      </g>
     </g>
    </g>
    <g id="xtick_7">
     <g id="line2d_17">
      <path d="M 274.176 298.944 
L 274.176 27.648 
" clip-path="url(#p87efb052bf)" style="fill: none; stroke: #b0b0b0; stroke-width: 0.8; stroke-linecap: square"/>
     </g>
     <g id="line2d_18">
      <g>
       <use xlink:href="#m43bf4559a8" x="274.176" y="298.944" style="stroke: #000000; stroke-width: 0.6"/>
      </g>
     </g>
    </g>
    <g id="xtick_8">
     <g id="line2d_19">
      <path d="M 360.8064 298.944 
L 360.8064 27.648 
" clip-path="url(#p87efb052bf)" style="fill: none; stroke: #b0b0b0; stroke-width: 0.8; stroke-linecap: square"/>
     </g>
     <g id="line2d_20">
      <g>
       <use xlink:href="#m43bf4559a8" x="360.8064" y="298.944" style="stroke: #000000; stroke-width: 0.6"/>
      </g>
     </g>
    </g>
    <g id="text_5">
     <!-- log10(# f-evals / dimension) -->
     <g transform="translate(88.823278 339.314156) scale(0.17 -0.17)">
      <defs>
       <path id="DejaVuSans-6c" d="M 603 4863 
L 1178 4863 
L 1178 0 
L 603 0 
L 603 4863 
z
" transform="scale(0.015625)"/>
       <path id="DejaVuSans-6f" d="M 1959 3097 
Q 1497 3097 1228 2736 
Q 959 2375 959 1747 
Q 959 1119 1226 758 
Q 1494 397 1959 397 
Q 2419 397 2687 759 
Q 2956 1122 2956 1747 
Q 2956 2369 2687 2733 
Q 2419 3097 1959 3097 
z
M 1959 3584 
Q 2709 3584 3137 3096 
Q 3566 2609 3566 1747 
Q 3566 888 3137 398 
Q 2709 -91 1959 -91 
Q 1206 -91 779 398 
Q 353 888 353 1747 
Q 353 2609 779 3096 
Q 1206 3584 1959 3584 
z
" transform="scale(0.015625)"/>
       <path id="DejaVuSans-67" d="M 2906 1791 
Q 2906 2416 2648 2759 
Q 2391 3103 1925 3103 
Q 1463 3103 1205 2759 
Q 947 2416 947 1791 
Q 947 1169 1205 825 
Q 1463 481 1925 481 
Q 2391 481 2648 825 
Q 2906 1169 2906 1791 
z
M 3481 434 
Q 3481 -459 3084 -895 
Q 2688 -1331 1869 -1331 
Q 1566 -1331 1297 -1286 
Q 1028 -1241 775 -1147 
L 775 -588 
Q 1028 -725 1275 -790 
Q 1522 -856 1778 -856 
Q 2344 -856 2625 -561 
Q 2906 -266 2906 331 
L 2906 616 
Q 2728 306 2450 153 
Q 2172 0 1784 0 
Q 1141 0 747 490 
Q 353 981 353 1791 
Q 353 2603 747 3093 
Q 1141 3584 1784 3584 
Q 2172 3584 2450 3431 
Q 2728 3278 2906 2969 
L 2906 3500 
L 3481 3500 
L 3481 434 
z
" transform="scale(0.015625)"/>
       <path id="DejaVuSans-31" d="M 794 531 
L 1825 531 
L 1825 4091 
L 703 3866 
L 703 4441 
L 1819 4666 
L 2450 4666 
L 2450 531 
L 3481 531 
L 3481 0 
L 794 0 
L 794 531 
z
" transform="scale(0.015625)"/>
       <path id="DejaVuSans-28" d="M 1984 4856 
Q 1566 4138 1362 3434 
Q 1159 2731 1159 2009 
Q 1159 1288 1364 580 
Q 1569 -128 1984 -844 
L 1484 -844 
Q 1016 -109 783 600 
Q 550 1309 550 2009 
Q 550 2706 781 3412 
Q 1013 4119 1484 4856 
L 1984 4856 
z
" transform="scale(0.015625)"/>
       <path id="DejaVuSans-23" d="M 3272 2816 
L 2363 2816 
L 2100 1772 
L 3016 1772 
L 3272 2816 
z
M 2803 4594 
L 2478 3297 
L 3391 3297 
L 3719 4594 
L 4219 4594 
L 3897 3297 
L 4872 3297 
L 4872 2816 
L 3775 2816 
L 3519 1772 
L 4513 1772 
L 4513 1294 
L 3397 1294 
L 3072 0 
L 2572 0 
L 2894 1294 
L 1978 1294 
L 1656 0 
L 1153 0 
L 1478 1294 
L 494 1294 
L 494 1772 
L 1594 1772 
L 1856 2816 
L 850 2816 
L 850 3297 
L 1978 3297 
L 2297 4594 
L 2803 4594 
z
" transform="scale(0.015625)"/>
       <path id="DejaVuSans-20" transform="scale(0.015625)"/>
       <path id="DejaVuSans-66" d="M 2375 4863 
L 2375 4384 
L 1825 4384 
Q 1516 4384 1395 4259 
Q 1275 4134 1275 3809 
L 1275 3500 
L 2222 3500 
L 2222 3053 
L 1275 3053 
L 1275 0 
L 697 0 
L 697 3053 
L 147 3053 
L 147 3500 
L 697 3500 
L 697 3744 
Q 697 4328 969 4595 
Q 1241 4863 1831 4863 
L 2375 4863 
z
" transform="scale(0.015625)"/>
       <path id="DejaVuSans-2d" d="M 313 2009 
L 1997 2009 
L 1997 1497 
L 313 1497 
L 313 2009 
z
" transform="scale(0.015625)"/>
       <path id="DejaVuSans-65" d="M 3597 1894 
L 3597 1613 
L 953 1613 
Q 991 1019 1311 708 
Q 1631 397 2203 397 
Q 2534 397 2845 478 
Q 3156 559 3463 722 
L 3463 178 
Q 3153 47 2828 -22 
Q 2503 -91 2169 -91 
Q 1331 -91 842 396 
Q 353 884 353 1716 
Q 353 2575 817 3079 
Q 1281 3584 2069 3584 
Q 2775 3584 3186 3129 
Q 3597 2675 3597 1894 
z
M 3022 2063 
Q 3016 2534 2758 2815 
Q 2500 3097 2075 3097 
Q 1594 3097 1305 2825 
Q 1016 2553 972 2059 
L 3022 2063 
z
" transform="scale(0.015625)"/>
       <path id="DejaVuSans-76" d="M 191 3500 
L 800 3500 
L 1894 563 
L 2988 3500 
L 3597 3500 
L 2284 0 
L 1503 0 
L 191 3500 
z
" transform="scale(0.015625)"/>
       <path id="DejaVuSans-61" d="M 2194 1759 
Q 1497 1759 1228 1600 
Q 959 1441 959 1056 
Q 959 750 1161 570 
Q 1363 391 1709 391 
Q 2188 391 2477 730 
Q 2766 1069 2766 1631 
L 2766 1759 
L 2194 1759 
z
M 3341 1997 
L 3341 0 
L 2766 0 
L 2766 531 
Q 2569 213 2275 61 
Q 1981 -91 1556 -91 
Q 1019 -91 701 211 
Q 384 513 384 1019 
Q 384 1609 779 1909 
Q 1175 2209 1959 2209 
L 2766 2209 
L 2766 2266 
Q 2766 2663 2505 2880 
Q 2244 3097 1772 3097 
Q 1472 3097 1187 3025 
Q 903 2953 641 2809 
L 641 3341 
Q 956 3463 1253 3523 
Q 1550 3584 1831 3584 
Q 2591 3584 2966 3190 
Q 3341 2797 3341 1997 
z
" transform="scale(0.015625)"/>
       <path id="DejaVuSans-73" d="M 2834 3397 
L 2834 2853 
Q 2591 2978 2328 3040 
Q 2066 3103 1784 3103 
Q 1356 3103 1142 2972 
Q 928 2841 928 2578 
Q 928 2378 1081 2264 
Q 1234 2150 1697 2047 
L 1894 2003 
Q 2506 1872 2764 1633 
Q 3022 1394 3022 966 
Q 3022 478 2636 193 
Q 2250 -91 1575 -91 
Q 1294 -91 989 -36 
Q 684 19 347 128 
L 347 722 
Q 666 556 975 473 
Q 1284 391 1588 391 
Q 1994 391 2212 530 
Q 2431 669 2431 922 
Q 2431 1156 2273 1281 
Q 2116 1406 1581 1522 
L 1381 1569 
Q 847 1681 609 1914 
Q 372 2147 372 2553 
Q 372 3047 722 3315 
Q 1072 3584 1716 3584 
Q 2034 3584 2315 3537 
Q 2597 3491 2834 3397 
z
" transform="scale(0.015625)"/>
       <path id="DejaVuSans-2f" d="M 1625 4666 
L 2156 4666 
L 531 -594 
L 0 -594 
L 1625 4666 
z
" transform="scale(0.015625)"/>
       <path id="DejaVuSans-64" d="M 2906 2969 
L 2906 4863 
L 3481 4863 
L 3481 0 
L 2906 0 
L 2906 525 
Q 2725 213 2448 61 
Q 2172 -91 1784 -91 
Q 1150 -91 751 415 
Q 353 922 353 1747 
Q 353 2572 751 3078 
Q 1150 3584 1784 3584 
Q 2172 3584 2448 3432 
Q 2725 3281 2906 2969 
z
M 947 1747 
Q 947 1113 1208 752 
Q 1469 391 1925 391 
Q 2381 391 2643 752 
Q 2906 1113 2906 1747 
Q 2906 2381 2643 2742 
Q 2381 3103 1925 3103 
Q 1469 3103 1208 2742 
Q 947 2381 947 1747 
z
" transform="scale(0.015625)"/>
       <path id="DejaVuSans-69" d="M 603 3500 
L 1178 3500 
L 1178 0 
L 603 0 
L 603 3500 
z
M 603 4863 
L 1178 4863 
L 1178 4134 
L 603 4134 
L 603 4863 
z
" transform="scale(0.015625)"/>
       <path id="DejaVuSans-6d" d="M 3328 2828 
Q 3544 3216 3844 3400 
Q 4144 3584 4550 3584 
Q 5097 3584 5394 3201 
Q 5691 2819 5691 2113 
L 5691 0 
L 5113 0 
L 5113 2094 
Q 5113 2597 4934 2840 
Q 4756 3084 4391 3084 
Q 3944 3084 3684 2787 
Q 3425 2491 3425 1978 
L 3425 0 
L 2847 0 
L 2847 2094 
Q 2847 2600 2669 2842 
Q 2491 3084 2119 3084 
Q 1678 3084 1418 2786 
Q 1159 2488 1159 1978 
L 1159 0 
L 581 0 
L 581 3500 
L 1159 3500 
L 1159 2956 
Q 1356 3278 1631 3431 
Q 1906 3584 2284 3584 
Q 2666 3584 2933 3390 
Q 3200 3197 3328 2828 
z
" transform="scale(0.015625)"/>
       <path id="DejaVuSans-6e" d="M 3513 2113 
L 3513 0 
L 2938 0 
L 2938 2094 
Q 2938 2591 2744 2837 
Q 2550 3084 2163 3084 
Q 1697 3084 1428 2787 
Q 1159 2491 1159 1978 
L 1159 0 
L 581 0 
L 581 3500 
L 1159 3500 
L 1159 2956 
Q 1366 3272 1645 3428 
Q 1925 3584 2291 3584 
Q 2894 3584 3203 3211 
Q 3513 2838 3513 2113 
z
" transform="scale(0.015625)"/>
       <path id="DejaVuSans-29" d="M 513 4856 
L 1013 4856 
Q 1481 4119 1714 3412 
Q 1947 2706 1947 2009 
Q 1947 1309 1714 600 
Q 1481 -109 1013 -844 
L 513 -844 
Q 928 -128 1133 580 
Q 1338 1288 1338 2009 
Q 1338 2731 1133 3434 
Q 928 4138 513 4856 
z
" transform="scale(0.015625)"/>
      </defs>
      <use xlink:href="#DejaVuSans-6c"/>
      <use xlink:href="#DejaVuSans-6f" x="27.783203"/>
      <use xlink:href="#DejaVuSans-67" x="88.964844"/>
      <use xlink:href="#DejaVuSans-31" x="152.441406"/>
      <use xlink:href="#DejaVuSans-30" x="216.064453"/>
      <use xlink:href="#DejaVuSans-28" x="279.6875"/>
      <use xlink:href="#DejaVuSans-23" x="318.701172"/>
      <use xlink:href="#DejaVuSans-20" x="402.490234"/>
      <use xlink:href="#DejaVuSans-66" x="434.277344"/>
      <use xlink:href="#DejaVuSans-2d" x="463.982422"/>
      <use xlink:href="#DejaVuSans-65" x="500.066406"/>
      <use xlink:href="#DejaVuSans-76" x="561.589844"/>
      <use xlink:href="#DejaVuSans-61" x="620.769531"/>
      <use xlink:href="#DejaVuSans-6c" x="682.048828"/>
      <use xlink:href="#DejaVuSans-73" x="709.832031"/>
      <use xlink:href="#DejaVuSans-20" x="761.931641"/>
      <use xlink:href="#DejaVuSans-2f" x="793.71875"/>
      <use xlink:href="#DejaVuSans-20" x="827.410156"/>
      <use xlink:href="#DejaVuSans-64" x="859.197266"/>
      <use xlink:href="#DejaVuSans-69" x="922.673828"/>
      <use xlink:href="#DejaVuSans-6d" x="950.457031"/>
      <use xlink:href="#DejaVuSans-65" x="1047.869141"/>
      <use xlink:href="#DejaVuSans-6e" x="1109.392578"/>
      <use xlink:href="#DejaVuSans-73" x="1172.771484"/>
      <use xlink:href="#DejaVuSans-69" x="1224.871094"/>
      <use xlink:href="#DejaVuSans-6f" x="1252.654297"/>
      <use xlink:href="#DejaVuSans-6e" x="1313.835938"/>
      <use xlink:href="#DejaVuSans-29" x="1377.214844"/>
     </g>
    </g>
   </g>
   <g id="matplotlib.axis_2">
    <g id="ytick_1">
     <g id="line2d_21">
      <path d="M 57.6 298.944 
L 360.8064 298.944 
" clip-path="url(#p87efb052bf)" style="fill: none; stroke: #b0b0b0; stroke-width: 0.8; stroke-linecap: square"/>
     </g>
     <g id="line2d_22">
      <defs>
       <path id="m54d69efe47" d="M 0 0 
L -3.5 0 
" style="stroke: #000000; stroke-width: 0.8"/>
      </defs>
      <g>
       <use xlink:href="#m54d69efe47" x="57.6" y="298.944" style="stroke: #000000; stroke-width: 0.8"/>
      </g>
     </g>
     <g id="text_6">
      <!-- 0.0 -->
      <g transform="translate(25.155 305.02275) scale(0.16 -0.16)">
       <defs>
        <path id="DejaVuSans-2e" d="M 684 794 
L 1344 794 
L 1344 0 
L 684 0 
L 684 794 
z
" transform="scale(0.015625)"/>
       </defs>
       <use xlink:href="#DejaVuSans-30"/>
       <use xlink:href="#DejaVuSans-2e" x="63.623047"/>
       <use xlink:href="#DejaVuSans-30" x="95.410156"/>
      </g>
     </g>
    </g>
    <g id="ytick_2">
     <g id="line2d_23">
      <path d="M 57.6 244.6848 
L 360.8064 244.6848 
" clip-path="url(#p87efb052bf)" style="fill: none; stroke: #b0b0b0; stroke-width: 0.8; stroke-linecap: square"/>
     </g>
     <g id="line2d_24">
      <g>
       <use xlink:href="#m54d69efe47" x="57.6" y="244.6848" style="stroke: #000000; stroke-width: 0.8"/>
      </g>
     </g>
     <g id="text_7">
      <!-- 0.2 -->
      <g transform="translate(25.155 250.76355) scale(0.16 -0.16)">
       <use xlink:href="#DejaVuSans-30"/>
       <use xlink:href="#DejaVuSans-2e" x="63.623047"/>
       <use xlink:href="#DejaVuSans-32" x="95.410156"/>
      </g>
     </g>
    </g>
    <g id="ytick_3">
     <g id="line2d_25">
      <path d="M 57.6 190.4256 
L 360.8064 190.4256 
" clip-path="url(#p87efb052bf)" style="fill: none; stroke: #b0b0b0; stroke-width: 0.8; stroke-linecap: square"/>
     </g>
     <g id="line2d_26">
      <g>
       <use xlink:href="#m54d69efe47" x="57.6" y="190.4256" style="stroke: #000000; stroke-width: 0.8"/>
      </g>
     </g>
     <g id="text_8">
      <!-- 0.4 -->
      <g transform="translate(25.155 196.50435) scale(0.16 -0.16)">
       <use xlink:href="#DejaVuSans-30"/>
       <use xlink:href="#DejaVuSans-2e" x="63.623047"/>
       <use xlink:href="#DejaVuSans-34" x="95.410156"/>
      </g>
     </g>
    </g>
    <g id="ytick_4">
     <g id="line2d_27">
      <path d="M 57.6 136.1664 
L 360.8064 136.1664 
" clip-path="url(#p87efb052bf)" style="fill: none; stroke: #b0b0b0; stroke-width: 0.8; stroke-linecap: square"/>
     </g>
     <g id="line2d_28">
      <g>
       <use xlink:href="#m54d69efe47" x="57.6" y="136.1664" style="stroke: #000000; stroke-width: 0.8"/>
      </g>
     </g>
     <g id="text_9">
      <!-- 0.6 -->
      <g transform="translate(25.155 142.24515) scale(0.16 -0.16)">
       <use xlink:href="#DejaVuSans-30"/>
       <use xlink:href="#DejaVuSans-2e" x="63.623047"/>
       <use xlink:href="#DejaVuSans-36" x="95.410156"/>
      </g>
     </g>
    </g>
    <g id="ytick_5">
     <g id="line2d_29">
      <path d="M 57.6 81.9072 
L 360.8064 81.9072 
" clip-path="url(#p87efb052bf)" style="fill: none; stroke: #b0b0b0; stroke-width: 0.8; stroke-linecap: square"/>
     </g>
     <g id="line2d_30">
      <g>
       <use xlink:href="#m54d69efe47" x="57.6" y="81.9072" style="stroke: #000000; stroke-width: 0.8"/>
      </g>
     </g>
     <g id="text_10">
      <!-- 0.8 -->
      <g transform="translate(25.155 87.98595) scale(0.16 -0.16)">
       <defs>
        <path id="DejaVuSans-38" d="M 2034 2216 
Q 1584 2216 1326 1975 
Q 1069 1734 1069 1313 
Q 1069 891 1326 650 
Q 1584 409 2034 409 
Q 2484 409 2743 651 
Q 3003 894 3003 1313 
Q 3003 1734 2745 1975 
Q 2488 2216 2034 2216 
z
M 1403 2484 
Q 997 2584 770 2862 
Q 544 3141 544 3541 
Q 544 4100 942 4425 
Q 1341 4750 2034 4750 
Q 2731 4750 3128 4425 
Q 3525 4100 3525 3541 
Q 3525 3141 3298 2862 
Q 3072 2584 2669 2484 
Q 3125 2378 3379 2068 
Q 3634 1759 3634 1313 
Q 3634 634 3220 271 
Q 2806 -91 2034 -91 
Q 1263 -91 848 271 
Q 434 634 434 1313 
Q 434 1759 690 2068 
Q 947 2378 1403 2484 
z
M 1172 3481 
Q 1172 3119 1398 2916 
Q 1625 2713 2034 2713 
Q 2441 2713 2670 2916 
Q 2900 3119 2900 3481 
Q 2900 3844 2670 4047 
Q 2441 4250 2034 4250 
Q 1625 4250 1398 4047 
Q 1172 3844 1172 3481 
z
" transform="scale(0.015625)"/>
       </defs>
       <use xlink:href="#DejaVuSans-30"/>
       <use xlink:href="#DejaVuSans-2e" x="63.623047"/>
       <use xlink:href="#DejaVuSans-38" x="95.410156"/>
      </g>
     </g>
    </g>
    <g id="ytick_6">
     <g id="line2d_31">
      <path d="M 57.6 27.648 
L 360.8064 27.648 
" clip-path="url(#p87efb052bf)" style="fill: none; stroke: #b0b0b0; stroke-width: 0.8; stroke-linecap: square"/>
     </g>
     <g id="line2d_32">
      <g>
       <use xlink:href="#m54d69efe47" x="57.6" y="27.648" style="stroke: #000000; stroke-width: 0.8"/>
      </g>
     </g>
     <g id="text_11">
      <!-- 1.0 -->
      <g transform="translate(25.155 33.72675) scale(0.16 -0.16)">
       <use xlink:href="#DejaVuSans-31"/>
       <use xlink:href="#DejaVuSans-2e" x="63.623047"/>
       <use xlink:href="#DejaVuSans-30" x="95.410156"/>
      </g>
     </g>
    </g>
    <g id="text_12">
     <!-- Fraction of function,target pairs -->
     <g transform="translate(17.619531 297.681) rotate(-90) scale(0.17 -0.17)">
      <defs>
       <path id="DejaVuSans-46" d="M 628 4666 
L 3309 4666 
L 3309 4134 
L 1259 4134 
L 1259 2759 
L 3109 2759 
L 3109 2228 
L 1259 2228 
L 1259 0 
L 628 0 
L 628 4666 
z
" transform="scale(0.015625)"/>
       <path id="DejaVuSans-72" d="M 2631 2963 
Q 2534 3019 2420 3045 
Q 2306 3072 2169 3072 
Q 1681 3072 1420 2755 
Q 1159 2438 1159 1844 
L 1159 0 
L 581 0 
L 581 3500 
L 1159 3500 
L 1159 2956 
Q 1341 3275 1631 3429 
Q 1922 3584 2338 3584 
Q 2397 3584 2469 3576 
Q 2541 3569 2628 3553 
L 2631 2963 
z
" transform="scale(0.015625)"/>
       <path id="DejaVuSans-63" d="M 3122 3366 
L 3122 2828 
Q 2878 2963 2633 3030 
Q 2388 3097 2138 3097 
Q 1578 3097 1268 2742 
Q 959 2388 959 1747 
Q 959 1106 1268 751 
Q 1578 397 2138 397 
Q 2388 397 2633 464 
Q 2878 531 3122 666 
L 3122 134 
Q 2881 22 2623 -34 
Q 2366 -91 2075 -91 
Q 1284 -91 818 406 
Q 353 903 353 1747 
Q 353 2603 823 3093 
Q 1294 3584 2113 3584 
Q 2378 3584 2631 3529 
Q 2884 3475 3122 3366 
z
" transform="scale(0.015625)"/>
       <path id="DejaVuSans-74" d="M 1172 4494 
L 1172 3500 
L 2356 3500 
L 2356 3053 
L 1172 3053 
L 1172 1153 
Q 1172 725 1289 603 
Q 1406 481 1766 481 
L 2356 481 
L 2356 0 
L 1766 0 
Q 1100 0 847 248 
Q 594 497 594 1153 
L 594 3053 
L 172 3053 
L 172 3500 
L 594 3500 
L 594 4494 
L 1172 4494 
z
" transform="scale(0.015625)"/>
       <path id="DejaVuSans-75" d="M 544 1381 
L 544 3500 
L 1119 3500 
L 1119 1403 
Q 1119 906 1312 657 
Q 1506 409 1894 409 
Q 2359 409 2629 706 
Q 2900 1003 2900 1516 
L 2900 3500 
L 3475 3500 
L 3475 0 
L 2900 0 
L 2900 538 
Q 2691 219 2414 64 
Q 2138 -91 1772 -91 
Q 1169 -91 856 284 
Q 544 659 544 1381 
z
M 1991 3584 
L 1991 3584 
z
" transform="scale(0.015625)"/>
       <path id="DejaVuSans-2c" d="M 750 794 
L 1409 794 
L 1409 256 
L 897 -744 
L 494 -744 
L 750 256 
L 750 794 
z
" transform="scale(0.015625)"/>
       <path id="DejaVuSans-70" d="M 1159 525 
L 1159 -1331 
L 581 -1331 
L 581 3500 
L 1159 3500 
L 1159 2969 
Q 1341 3281 1617 3432 
Q 1894 3584 2278 3584 
Q 2916 3584 3314 3078 
Q 3713 2572 3713 1747 
Q 3713 922 3314 415 
Q 2916 -91 2278 -91 
Q 1894 -91 1617 61 
Q 1341 213 1159 525 
z
M 3116 1747 
Q 3116 2381 2855 2742 
Q 2594 3103 2138 3103 
Q 1681 3103 1420 2742 
Q 1159 2381 1159 1747 
Q 1159 1113 1420 752 
Q 1681 391 2138 391 
Q 2594 391 2855 752 
Q 3116 1113 3116 1747 
z
" transform="scale(0.015625)"/>
      </defs>
      <use xlink:href="#DejaVuSans-46"/>
      <use xlink:href="#DejaVuSans-72" x="50.269531"/>
      <use xlink:href="#DejaVuSans-61" x="91.382812"/>
      <use xlink:href="#DejaVuSans-63" x="152.662109"/>
      <use xlink:href="#DejaVuSans-74" x="207.642578"/>
      <use xlink:href="#DejaVuSans-69" x="246.851562"/>
      <use xlink:href="#DejaVuSans-6f" x="274.634766"/>
      <use xlink:href="#DejaVuSans-6e" x="335.816406"/>
      <use xlink:href="#DejaVuSans-20" x="399.195312"/>
      <use xlink:href="#DejaVuSans-6f" x="430.982422"/>
      <use xlink:href="#DejaVuSans-66" x="492.164062"/>
      <use xlink:href="#DejaVuSans-20" x="527.369141"/>
      <use xlink:href="#DejaVuSans-66" x="559.15625"/>
      <use xlink:href="#DejaVuSans-75" x="594.361328"/>
      <use xlink:href="#DejaVuSans-6e" x="657.740234"/>
      <use xlink:href="#DejaVuSans-63" x="721.119141"/>
      <use xlink:href="#DejaVuSans-74" x="776.099609"/>
      <use xlink:href="#DejaVuSans-69" x="815.308594"/>
      <use xlink:href="#DejaVuSans-6f" x="843.091797"/>
      <use xlink:href="#DejaVuSans-6e" x="904.273438"/>
      <use xlink:href="#DejaVuSans-2c" x="967.652344"/>
      <use xlink:href="#DejaVuSans-74" x="999.439453"/>
      <use xlink:href="#DejaVuSans-61" x="1038.648438"/>
      <use xlink:href="#DejaVuSans-72" x="1099.927734"/>
      <use xlink:href="#DejaVuSans-67" x="1139.291016"/>
      <use xlink:href="#DejaVuSans-65" x="1202.767578"/>
      <use xlink:href="#DejaVuSans-74" x="1264.291016"/>
      <use xlink:href="#DejaVuSans-20" x="1303.5"/>
      <use xlink:href="#DejaVuSans-70" x="1335.287109"/>
      <use xlink:href="#DejaVuSans-61" x="1398.763672"/>
      <use xlink:href="#DejaVuSans-69" x="1460.042969"/>
      <use xlink:href="#DejaVuSans-72" x="1487.826172"/>
      <use xlink:href="#DejaVuSans-73" x="1528.939453"/>
     </g>
    </g>
   </g>
   <g id="line2d_33">
    <defs>
     <path id="medba3bf0ef" d="M 0 1.5 
C 0.397805 1.5 0.77937 1.341951 1.06066 1.06066 
C 1.341951 0.77937 1.5 0.397805 1.5 0 
C 1.5 -0.397805 1.341951 -0.77937 1.06066 -1.06066 
C 0.77937 -1.341951 0.397805 -1.5 0 -1.5 
C -0.397805 -1.5 -0.77937 -1.341951 -1.06066 -1.06066 
C -1.341951 -0.77937 -1.5 -0.397805 -1.5 0 
C -1.5 0.397805 -1.341951 0.77937 -1.06066 1.06066 
C -0.77937 1.341951 -0.397805 1.5 0 1.5 
z
" style="stroke: #f5deb3"/>
    </defs>
    <g>
     <use xlink:href="#medba3bf0ef" x="280.109884" y="60.390621" style="fill: #f5deb3; stroke: #f5deb3"/>
     <use xlink:href="#medba3bf0ef" x="280.109884" y="60.390621" style="fill: #f5deb3; stroke: #f5deb3"/>
    </g>
   </g>
   <g id="line2d_34">
    <defs>
     <path id="m7921fda05a" d="M 0 1.5 
C 0.397805 1.5 0.77937 1.341951 1.06066 1.06066 
C 1.341951 0.77937 1.5 0.397805 1.5 0 
C 1.5 -0.397805 1.341951 -0.77937 1.06066 -1.06066 
C 0.77937 -1.341951 0.397805 -1.5 0 -1.5 
C -0.397805 -1.5 -0.77937 -1.341951 -1.06066 -1.06066 
C -1.341951 -0.77937 -1.5 -0.397805 -1.5 0 
C -1.5 0.397805 -1.341951 0.77937 -1.06066 1.06066 
C -0.77937 1.341951 -0.397805 1.5 0 1.5 
z
" style="stroke: #000080"/>
    </defs>
    <g>
     <use xlink:href="#m7921fda05a" x="218.163381" y="182.941572" style="fill: #000080; stroke: #000080"/>
     <use xlink:href="#m7921fda05a" x="218.163381" y="182.941572" style="fill: #000080; stroke: #000080"/>
    </g>
   </g>
   <g id="line2d_35">
    <path d="M 36.933397 298.944 
L 36.933397 288.18571 
L 57.6 288.18571 
L 57.6 287.717959 
L 63.011746 287.717959 
L 63.011746 287.250207 
L 67.209423 287.250207 
L 67.209423 284.443697 
L 70.639174 284.443697 
L 70.639174 283.040441 
L 80.248597 283.040441 
L 80.248597 282.57269 
L 85.184077 282.57269 
L 85.184077 282.104938 
L 92.322865 282.104938 
L 92.322865 281.637186 
L 99.617337 281.637186 
L 99.617337 281.169434 
L 100.9152 281.169434 
L 100.9152 280.701683 
L 101.532027 280.701683 
L 101.532027 280.233931 
L 109.360651 280.233931 
L 109.360651 279.298428 
L 109.756698 279.298428 
L 109.756698 278.362924 
L 111.97238 278.362924 
L 111.97238 277.895172 
L 113.316634 277.895172 
L 113.316634 277.427421 
L 114.265316 277.427421 
L 114.265316 276.959669 
L 116.854188 276.959669 
L 116.854188 276.491917 
L 131.563744 276.491917 
L 131.563744 276.024166 
L 132.984158 276.024166 
L 132.984158 275.556414 
L 135.237805 275.556414 
L 135.237805 275.088662 
L 135.835047 275.088662 
L 135.835047 274.62091 
L 136.222928 274.62091 
L 136.318661 273.685407 
L 136.97549 273.685407 
L 136.97549 273.217655 
L 138.137618 273.217655 
L 138.137618 272.749903 
L 139.556456 272.749903 
L 139.556456 272.282152 
L 139.954178 272.282152 
L 139.954178 271.8144 
L 140.875745 271.8144 
L 140.950542 270.878897 
L 141.465959 270.878897 
L 141.465959 270.411145 
L 141.825656 270.411145 
L 141.825656 269.943393 
L 142.661862 269.943393 
L 142.661862 269.00789 
L 145.736128 269.00789 
L 145.736128 268.540138 
L 145.851536 268.540138 
L 145.851536 268.072386 
L 146.023332 268.072386 
L 146.080251 266.669131 
L 146.418192 266.669131 
L 146.418192 265.265876 
L 146.64016 265.265876 
L 146.695245 264.330372 
L 147.343984 264.330372 
L 147.343984 263.862621 
L 147.607824 263.862621 
L 147.712333 262.927117 
L 148.226342 262.927117 
L 148.226342 262.459366 
L 149.922224 262.459366 
L 149.922224 261.991614 
L 150.289291 261.991614 
L 150.289291 261.523862 
L 150.958812 261.523862 
L 150.958812 260.588359 
L 151.349377 260.588359 
L 151.435079 259.652855 
L 152.106991 259.652855 
L 152.106991 258.717352 
L 153.49813 258.717352 
L 153.49813 257.781848 
L 153.688725 257.781848 
L 153.688725 257.314097 
L 154.935952 257.314097 
L 154.935952 256.846345 
L 155.769072 256.846345 
L 155.836861 255.910841 
L 156.304668 255.910841 
L 156.304668 255.44309 
L 156.631834 255.44309 
L 156.631834 254.507586 
L 157.795157 254.507586 
L 157.795157 253.572083 
L 157.946987 253.572083 
L 157.946987 253.104331 
L 158.717331 253.104331 
L 158.717331 252.636579 
L 159.090988 252.636579 
L 159.090988 252.168828 
L 159.204482 252.168828 
L 159.204482 251.701076 
L 159.373449 251.701076 
L 159.373449 251.233324 
L 160.115564 251.233324 
L 160.196243 249.830069 
L 160.249837 249.830069 
L 160.249837 249.362317 
L 160.541906 249.362317 
L 160.541906 248.426814 
L 162.728291 248.426814 
L 162.728291 247.959062 
L 163.076878 247.959062 
L 163.076878 247.023559 
L 163.821764 247.023559 
L 163.843882 245.620303 
L 164.495618 245.620303 
L 164.495618 245.152552 
L 165.084184 245.152552 
L 165.187374 244.217048 
L 165.290001 244.217048 
L 165.290001 243.749297 
L 166.479748 243.749297 
L 166.479748 243.281545 
L 168.239461 243.281545 
L 168.274427 242.346041 
L 168.396298 242.346041 
L 168.396298 241.87829 
L 170.135514 241.87829 
L 170.135514 240.942786 
L 170.71198 240.942786 
L 170.71198 240.007283 
L 171.843395 240.007283 
L 171.843395 239.539531 
L 172.257795 239.539531 
L 172.257795 239.071779 
L 173.881654 239.071779 
L 173.907565 237.200772 
L 175.376408 237.200772 
L 175.376408 236.265269 
L 175.977392 236.265269 
L 175.977392 235.329766 
L 176.230828 235.329766 
L 176.310755 234.394262 
L 177.352415 234.394262 
L 177.352415 233.458759 
L 178.431246 233.458759 
L 178.431246 232.523255 
L 178.643809 232.523255 
L 178.704102 230.652248 
L 179.633861 230.652248 
L 179.633861 229.716745 
L 180.33674 229.716745 
L 180.33674 229.248993 
L 180.501594 229.248993 
L 180.501594 228.31349 
L 181.461485 228.31349 
L 181.461485 227.845738 
L 183.363593 227.845738 
L 183.37925 225.039228 
L 183.79713 225.039228 
L 183.79713 224.103724 
L 183.941981 224.103724 
L 183.941981 223.168221 
L 184.055555 223.168221 
L 184.055555 222.232717 
L 184.759357 222.232717 
L 184.759357 221.297214 
L 185.549665 221.297214 
L 185.549665 220.829462 
L 186.092575 220.829462 
L 186.092575 220.36171 
L 186.254454 220.36171 
L 186.254454 219.426207 
L 186.718797 219.426207 
L 186.718797 218.490703 
L 186.959682 218.490703 
L 186.959682 217.5552 
L 187.197521 217.5552 
L 187.197521 217.087448 
L 188.17456 217.087448 
L 188.17456 216.151945 
L 188.415583 216.151945 
L 188.415583 215.216441 
L 188.917726 215.216441 
L 188.917726 214.280938 
L 189.126424 214.280938 
L 189.126424 213.813186 
L 189.395451 213.813186 
L 189.395451 212.877683 
L 189.570812 212.877683 
L 189.570812 211.942179 
L 190.180191 211.942179 
L 190.180191 211.474428 
L 190.536563 211.474428 
L 190.536563 210.538924 
L 191.342746 210.538924 
L 191.342746 210.071172 
L 191.582063 210.071172 
L 191.582063 209.135669 
L 191.768342 209.135669 
L 191.768342 208.667917 
L 192.140369 208.667917 
L 192.140369 207.732414 
L 192.919686 207.732414 
L 192.919686 206.79691 
L 193.242057 206.79691 
L 193.251319 205.393655 
L 194.0446 205.393655 
L 194.0446 204.458152 
L 194.243292 204.458152 
L 194.243292 203.522648 
L 194.703191 203.522648 
L 194.703191 203.054897 
L 194.827078 203.054897 
L 194.899324 201.651641 
L 195.35607 201.651641 
L 195.35607 201.18389 
L 195.73719 201.18389 
L 195.73719 200.248386 
L 196.126644 200.248386 
L 196.229678 199.312883 
L 196.558752 199.312883 
L 196.558752 198.845131 
L 196.755773 198.845131 
L 196.755773 198.377379 
L 197.409136 198.377379 
L 197.409136 197.909628 
L 197.538603 197.909628 
L 197.538603 197.441876 
L 198.389069 197.441876 
L 198.389069 196.974124 
L 198.595811 196.974124 
L 198.595811 196.506372 
L 198.817534 196.506372 
L 198.817534 196.038621 
L 199.04348 196.038621 
L 199.04348 195.103117 
L 199.155444 195.103117 
L 199.179109 193.23211 
L 199.669307 193.23211 
L 199.669307 192.764359 
L 200.239889 192.764359 
L 200.239889 192.296607 
L 200.672358 192.296607 
L 200.672358 191.828855 
L 201.265211 191.828855 
L 201.325591 190.893352 
L 201.448769 190.893352 
L 201.448769 189.957848 
L 204.568036 189.957848 
L 204.66167 188.554593 
L 206.548001 188.554593 
L 206.582223 187.61909 
L 207.389767 187.61909 
L 207.389767 186.683586 
L 210.284277 186.683586 
L 210.288021 185.280331 
L 211.827411 185.280331 
L 211.827411 184.812579 
L 215.070254 184.812579 
L 215.070254 184.344828 
L 215.604063 184.344828 
L 215.604063 183.877076 
L 218.163381 183.877076 
L 218.163381 182.941572 
L 360.8064 182.941572 
L 360.8064 182.941572 
" style="fill: none; stroke: #000080; stroke-width: 1.5; stroke-linecap: square"/>
   </g>
   <g id="line2d_36">
    <defs>
     <path id="ma4b7dbb084" d="M 0 6 
C 1.591219 6 3.117479 5.367802 4.242641 4.242641 
C 5.367802 3.117479 6 1.591219 6 0 
C 6 -1.591219 5.367802 -3.117479 4.242641 -4.242641 
C 3.117479 -5.367802 1.591219 -6 0 -6 
C -1.591219 -6 -3.117479 -5.367802 -4.242641 -4.242641 
C -5.367802 -3.117479 -6 -1.591219 -6 0 
C -6 1.591219 -5.367802 3.117479 -4.242641 4.242641 
C -3.117479 5.367802 -1.591219 6 0 6 
z
" style="stroke: #000080; stroke-width: 1.5"/>
    </defs>
    <g>
     <use xlink:href="#ma4b7dbb084" x="116.854188" y="276.491917" style="fill-opacity: 0; stroke: #000080; stroke-width: 1.5"/>
     <use xlink:href="#ma4b7dbb084" x="188.917726" y="214.280938" style="fill-opacity: 0; stroke: #000080; stroke-width: 1.5"/>
     <use xlink:href="#ma4b7dbb084" x="218.163381" y="183.877076" style="fill-opacity: 0; stroke: #000080; stroke-width: 1.5"/>
     <use xlink:href="#ma4b7dbb084" x="218.163381" y="182.941572" style="fill-opacity: 0; stroke: #000080; stroke-width: 1.5"/>
     <use xlink:href="#ma4b7dbb084" x="218.163381" y="182.941572" style="fill-opacity: 0; stroke: #000080; stroke-width: 1.5"/>
     <use xlink:href="#ma4b7dbb084" x="360.8064" y="182.941572" style="fill-opacity: 0; stroke: #000080; stroke-width: 1.5"/>
    </g>
   </g>
   <g id="line2d_37">
    <path style="fill: none; stroke: #000080; stroke-width: 1.5; stroke-linecap: square"/>
    <g/>
   </g>
   <g id="line2d_38">
    <path d="M 230.867069 182.941572 
" clip-path="url(#p87efb052bf)" style="fill: none; stroke: #000080; stroke-width: 1.5; stroke-linecap: square"/>
    <defs>
     <path id="ma6fcc825a1" d="M -12 12 
L 12 -12 
M -12 -12 
L 12 12 
" style="stroke: #000080"/>
    </defs>
    <g clip-path="url(#p87efb052bf)">
     <use xlink:href="#ma6fcc825a1" x="230.867069" y="182.941572" style="fill: #000080; stroke: #000080"/>
    </g>
   </g>
   <g id="line2d_39">
    <defs>
     <path id="me4a8df0290" d="M 0 1.5 
C 0.397805 1.5 0.77937 1.341951 1.06066 1.06066 
C 1.341951 0.77937 1.5 0.397805 1.5 0 
C 1.5 -0.397805 1.341951 -0.77937 1.06066 -1.06066 
C 0.77937 -1.341951 0.397805 -1.5 0 -1.5 
C -0.397805 -1.5 -0.77937 -1.341951 -1.06066 -1.06066 
C -1.341951 -0.77937 -1.5 -0.397805 -1.5 0 
C -1.5 0.397805 -1.341951 0.77937 -1.06066 1.06066 
C -0.77937 1.341951 -0.397805 1.5 0 1.5 
z
" style="stroke: #ff00ff"/>
    </defs>
    <g>
     <use xlink:href="#me4a8df0290" x="206.568542" y="190.4256" style="fill: #ff00ff; stroke: #ff00ff"/>
     <use xlink:href="#me4a8df0290" x="206.568542" y="190.4256" style="fill: #ff00ff; stroke: #ff00ff"/>
    </g>
   </g>
   <g id="line2d_40">
    <path d="M 36.933397 298.944 
L 36.933397 288.18571 
L 49.972572 288.18571 
L 49.972572 287.250207 
L 57.6 287.250207 
L 57.6 286.314703 
L 73.538988 286.314703 
L 73.538988 285.3792 
L 80.248597 285.3792 
L 80.248597 284.911448 
L 85.184077 284.911448 
L 85.184077 284.443697 
L 86.578163 284.443697 
L 86.578163 283.508193 
L 87.876026 283.508193 
L 87.876026 282.57269 
L 90.230539 282.57269 
L 90.230539 282.104938 
L 92.322865 282.104938 
L 92.322865 281.169434 
L 93.287772 281.169434 
L 93.287772 279.766179 
L 98.223251 279.766179 
L 98.223251 279.298428 
L 98.933205 279.298428 
L 98.933205 278.830676 
L 100.9152 278.830676 
L 100.9152 277.895172 
L 106.326946 277.895172 
L 106.326946 277.427421 
L 106.791453 277.427421 
L 106.791453 276.959669 
L 108.542628 276.959669 
L 108.542628 276.491917 
L 110.524623 276.491917 
L 110.524623 275.556414 
L 111.620752 275.556414 
L 111.620752 275.088662 
L 114.872193 275.088662 
L 114.872193 274.62091 
L 115.747307 274.62091 
L 115.747307 274.153159 
L 116.030193 274.153159 
L 116.030193 273.217655 
L 116.583514 273.217655 
L 116.583514 272.282152 
L 117.6436 272.282152 
L 117.6436 271.8144 
L 121.159053 271.8144 
L 121.159053 271.346648 
L 122.598891 271.346648 
L 122.598891 270.878897 
L 123.374735 270.878897 
L 123.374735 270.411145 
L 123.750979 270.411145 
L 123.750979 269.943393 
L 124.3016 269.943393 
L 124.3016 268.540138 
L 124.836562 268.540138 
L 124.836562 268.072386 
L 125.35673 268.072386 
L 125.35673 267.604634 
L 125.526971 267.604634 
L 125.526971 266.669131 
L 125.695686 266.669131 
L 125.695686 266.201379 
L 125.862901 266.201379 
L 125.862901 265.733628 
L 126.517282 265.733628 
L 126.517282 264.798124 
L 127.911368 264.798124 
L 127.911368 264.330372 
L 128.928456 264.330372 
L 128.928456 263.862621 
L 131.065395 263.862621 
L 131.065395 263.394869 
L 131.31622 263.394869 
L 131.31622 262.927117 
L 131.808053 262.927117 
L 131.808053 262.459366 
L 132.405295 262.459366 
L 132.405295 261.991614 
L 132.984158 261.991614 
L 132.984158 261.523862 
L 134.091039 261.523862 
L 134.091039 261.05611 
L 137.520791 261.05611 
L 137.520791 260.588359 
L 137.699101 260.588359 
L 137.699101 259.652855 
L 138.818654 259.652855 
L 138.818654 259.185103 
L 138.985129 259.185103 
L 138.985129 258.2496 
L 140.343665 258.2496 
L 140.343665 257.314097 
L 140.649551 257.314097 
L 140.649551 256.846345 
L 141.025043 256.846345 
L 141.025043 255.44309 
L 141.393187 255.44309 
L 141.393187 254.975338 
L 142.178603 254.975338 
L 142.178603 254.507586 
L 142.593581 254.507586 
L 142.593581 253.572083 
L 142.729897 253.572083 
L 142.729897 252.636579 
L 144.786447 252.636579 
L 144.786447 252.168828 
L 146.750169 252.168828 
L 146.750169 251.701076 
L 146.968277 251.701076 
L 146.968277 251.233324 
L 147.183884 251.233324 
L 147.290768 249.830069 
L 147.397049 249.830069 
L 147.397049 249.362317 
L 148.57797 249.362317 
L 148.57797 248.894566 
L 149.782707 248.894566 
L 149.782707 247.959062 
L 150.425115 247.959062 
L 150.425115 247.023559 
L 151.133398 247.023559 
L 151.133398 246.555807 
L 151.731998 246.555807 
L 151.731998 246.088055 
L 153.150116 246.088055 
L 153.150116 245.620303 
L 154.577625 245.620303 
L 154.577625 244.6848 
L 156.403417 244.6848 
L 156.403417 244.217048 
L 156.825436 244.217048 
L 156.825436 243.749297 
L 157.642093 243.749297 
L 157.642093 243.281545 
L 157.856036 243.281545 
L 157.856036 241.87829 
L 158.217229 241.87829 
L 158.217229 241.410538 
L 161.061595 241.410538 
L 161.061595 240.475034 
L 161.74115 240.475034 
L 161.74115 239.539531 
L 162.229155 239.539531 
L 162.229155 239.071779 
L 163.666204 239.071779 
L 163.688506 238.136276 
L 164.172572 238.136276 
L 164.172572 237.200772 
L 164.431451 237.200772 
L 164.431451 235.797517 
L 164.644495 235.797517 
L 164.644495 234.862014 
L 165.715025 234.862014 
L 165.715025 234.394262 
L 167.398482 234.394262 
L 167.398482 233.458759 
L 168.413644 233.458759 
L 168.413644 232.991007 
L 168.637696 232.991007 
L 168.637696 232.523255 
L 169.061207 232.523255 
L 169.061207 231.587752 
L 169.442591 231.587752 
L 169.442591 230.652248 
L 169.880655 230.652248 
L 169.880655 230.184497 
L 171.106748 230.184497 
L 171.106748 229.248993 
L 172.215347 229.248993 
L 172.257795 227.377986 
L 172.342405 227.377986 
L 172.426636 225.974731 
L 173.060174 225.974731 
L 173.127768 224.571476 
L 173.435613 224.571476 
L 173.435613 223.635972 
L 174.581522 223.635972 
L 174.581522 223.168221 
L 177.957067 223.168221 
L 177.957067 222.232717 
L 178.226549 222.232717 
L 178.226549 221.297214 
L 178.532766 221.297214 
L 178.532766 220.36171 
L 179.012577 220.36171 
L 179.012577 219.426207 
L 180.161146 219.426207 
L 180.161146 218.490703 
L 181.252369 218.490703 
L 181.252369 217.5552 
L 181.461485 217.5552 
L 181.522042 215.684193 
L 181.830435 215.684193 
L 181.830435 215.216441 
L 182.374764 215.216441 
L 182.374764 213.813186 
L 183.340084 213.813186 
L 183.340084 213.345434 
L 183.658865 213.345434 
L 183.658865 212.409931 
L 184.048005 212.409931 
L 184.048005 211.942179 
L 185.46581 211.942179 
L 185.46581 211.006676 
L 186.03151 211.006676 
L 186.03151 210.538924 
L 186.314801 210.538924 
L 186.314801 209.603421 
L 186.692569 209.603421 
L 186.764607 208.200166 
L 187.312148 208.200166 
L 187.312148 207.264662 
L 187.463906 207.264662 
L 187.463906 206.329159 
L 187.745194 206.329159 
L 187.745194 205.861407 
L 188.107734 205.861407 
L 188.107734 204.925903 
L 188.27134 204.925903 
L 188.27134 204.458152 
L 188.570607 204.458152 
L 188.612127 202.587145 
L 188.742026 202.587145 
L 188.742026 202.119393 
L 189.10912 202.119393 
L 189.10912 201.651641 
L 189.372704 201.651641 
L 189.372704 201.18389 
L 190.169286 201.18389 
L 190.240057 199.780634 
L 190.461531 199.780634 
L 190.568628 198.845131 
L 190.749305 198.845131 
L 190.84426 197.441876 
L 191.327367 197.441876 
L 191.327367 196.974124 
L 191.465331 196.974124 
L 191.465331 196.506372 
L 192.046816 196.506372 
L 192.046816 195.570869 
L 192.763533 195.570869 
L 192.763533 195.103117 
L 194.164066 195.103117 
L 194.164066 194.635366 
L 195.168847 194.635366 
L 195.235629 193.23211 
L 196.146502 193.23211 
L 196.146502 192.764359 
L 196.736549 192.764359 
L 196.736549 191.828855 
L 197.512781 191.828855 
L 197.512781 191.361103 
L 206.568542 191.361103 
L 206.568542 190.4256 
L 360.8064 190.4256 
L 360.8064 190.4256 
" style="fill: none; stroke: #ff00ff; stroke-width: 1.5; stroke-linecap: square"/>
   </g>
   <g id="line2d_41">
    <defs>
     <path id="m78102a2732" d="M -0 8.485281 
L 5.091169 0 
L 0 -8.485281 
L -5.091169 -0 
z
" style="stroke: #ff00ff; stroke-width: 1.5; stroke-linejoin: miter"/>
    </defs>
    <g>
     <use xlink:href="#m78102a2732" x="116.030193" y="273.217655" style="fill-opacity: 0; stroke: #ff00ff; stroke-width: 1.5; stroke-linejoin: miter"/>
     <use xlink:href="#m78102a2732" x="187.745194" y="205.861407" style="fill-opacity: 0; stroke: #ff00ff; stroke-width: 1.5; stroke-linejoin: miter"/>
     <use xlink:href="#m78102a2732" x="206.568542" y="191.361103" style="fill-opacity: 0; stroke: #ff00ff; stroke-width: 1.5; stroke-linejoin: miter"/>
     <use xlink:href="#m78102a2732" x="206.568542" y="190.4256" style="fill-opacity: 0; stroke: #ff00ff; stroke-width: 1.5; stroke-linejoin: miter"/>
     <use xlink:href="#m78102a2732" x="206.568542" y="190.4256" style="fill-opacity: 0; stroke: #ff00ff; stroke-width: 1.5; stroke-linejoin: miter"/>
     <use xlink:href="#m78102a2732" x="360.8064" y="190.4256" style="fill-opacity: 0; stroke: #ff00ff; stroke-width: 1.5; stroke-linejoin: miter"/>
    </g>
   </g>
   <g id="line2d_42">
    <path style="fill: none; stroke: #ff00ff; stroke-width: 1.5; stroke-linecap: square"/>
    <g/>
   </g>
   <g id="line2d_43">
    <path d="M 230.872084 190.4256 
" clip-path="url(#p87efb052bf)" style="fill: none; stroke: #ff00ff; stroke-width: 1.5; stroke-linecap: square"/>
    <defs>
     <path id="me8331240bb" d="M -12 12 
L 12 -12 
M -12 -12 
L 12 12 
" style="stroke: #ff00ff"/>
    </defs>
    <g clip-path="url(#p87efb052bf)">
     <use xlink:href="#me8331240bb" x="230.872084" y="190.4256" style="fill: #ff00ff; stroke: #ff00ff"/>
    </g>
   </g>
   <g id="line2d_44">
    <defs>
     <path id="m3c77d1821a" d="M 0 1.5 
C 0.397805 1.5 0.77937 1.341951 1.06066 1.06066 
C 1.341951 0.77937 1.5 0.397805 1.5 0 
C 1.5 -0.397805 1.341951 -0.77937 1.06066 -1.06066 
C 0.77937 -1.341951 0.397805 -1.5 0 -1.5 
C -0.397805 -1.5 -0.77937 -1.341951 -1.06066 -1.06066 
C -1.341951 -0.77937 -1.5 -0.397805 -1.5 0 
C -1.5 0.397805 -1.341951 0.77937 -1.06066 1.06066 
C -0.77937 1.341951 -0.397805 1.5 0 1.5 
z
" style="stroke: #ff7500"/>
    </defs>
    <g>
     <use xlink:href="#m3c77d1821a" x="216.580113" y="205.861407" style="fill: #ff7500; stroke: #ff7500"/>
     <use xlink:href="#m3c77d1821a" x="216.580113" y="205.861407" style="fill: #ff7500; stroke: #ff7500"/>
    </g>
   </g>
   <g id="line2d_45">
    <path d="M 36.933397 298.944 
L 36.933397 288.18571 
L 49.972572 288.18571 
L 49.972572 283.040441 
L 102.12927 283.040441 
L 102.12927 281.169434 
L 114.571202 281.169434 
L 114.571202 279.766179 
L 121.99526 279.766179 
L 121.99526 278.362924 
L 127.304491 278.362924 
L 127.304491 277.895172 
L 131.440389 277.895172 
L 131.440389 277.427421 
L 134.828842 277.427421 
L 134.828842 276.491917 
L 137.699101 276.491917 
L 137.699101 276.024166 
L 142.387236 276.024166 
L 142.387236 275.556414 
L 144.355394 275.556414 
L 144.355394 273.685407 
L 146.136998 273.685407 
L 146.136998 271.8144 
L 147.764371 271.8144 
L 147.764371 269.475641 
L 149.262102 269.475641 
L 149.262102 267.604634 
L 150.649331 267.604634 
L 150.649331 265.265876 
L 153.150116 265.265876 
L 153.150116 263.862621 
L 154.285968 263.862621 
L 154.285968 263.394869 
L 155.357123 263.394869 
L 155.357123 262.927117 
L 156.370558 262.927117 
L 156.370558 261.991614 
L 157.332175 261.991614 
L 157.332175 261.05611 
L 158.247018 261.05611 
L 158.247018 258.717352 
L 159.953161 258.717352 
L 159.953161 256.846345 
L 161.517348 256.846345 
L 161.517348 255.44309 
L 162.253227 255.44309 
L 162.253227 254.975338 
L 164.302457 254.975338 
L 164.302457 254.507586 
L 164.93876 254.507586 
L 164.93876 254.039834 
L 165.554242 254.039834 
L 165.554242 253.572083 
L 166.150222 253.572083 
L 166.150222 252.636579 
L 166.7279 252.636579 
L 166.7279 250.297821 
L 167.288365 250.297821 
L 167.288365 249.830069 
L 169.864611 249.830069 
L 169.864611 249.362317 
L 170.803818 249.362317 
L 170.803818 248.894566 
L 171.256404 248.894566 
L 171.256404 248.426814 
L 173.369117 248.426814 
L 173.369117 247.959062 
L 174.903518 247.959062 
L 174.903518 247.023559 
L 175.626202 247.023559 
L 175.626202 246.555807 
L 175.977392 246.555807 
L 175.977392 246.088055 
L 176.322146 246.088055 
L 176.322146 244.6848 
L 176.99326 244.6848 
L 176.99326 243.749297 
L 177.320046 243.749297 
L 177.320046 242.813793 
L 178.573221 242.813793 
L 178.573221 242.346041 
L 179.169832 242.346041 
L 179.169832 241.87829 
L 179.461189 241.87829 
L 179.461189 241.410538 
L 180.309124 241.410538 
L 180.309124 240.475034 
L 180.853898 240.475034 
L 180.853898 240.007283 
L 181.898286 240.007283 
L 181.898286 239.539531 
L 182.887728 239.539531 
L 182.887728 238.604028 
L 183.127165 238.604028 
L 183.127165 237.668524 
L 183.827718 237.668524 
L 183.827718 237.200772 
L 184.503115 237.200772 
L 184.503115 234.394262 
L 184.722964 234.394262 
L 184.722964 233.458759 
L 186.985539 233.458759 
L 186.985539 232.991007 
L 187.558137 232.991007 
L 187.558137 231.12 
L 187.930409 231.12 
L 187.930409 230.652248 
L 188.295457 230.652248 
L 188.295457 229.248993 
L 189.688683 229.248993 
L 189.688683 228.31349 
L 189.855798 228.31349 
L 189.855798 227.377986 
L 190.021443 227.377986 
L 190.021443 226.442483 
L 190.348419 226.442483 
L 190.348419 225.506979 
L 190.5098 225.506979 
L 190.5098 225.039228 
L 191.141827 225.039228 
L 191.141827 224.571476 
L 192.051751 224.571476 
L 192.051751 224.103724 
L 193.884121 224.103724 
L 193.884121 223.635972 
L 195.055613 223.635972 
L 195.055613 222.700469 
L 195.43044 222.700469 
L 195.43044 221.764966 
L 196.158407 221.764966 
L 196.158407 220.829462 
L 196.277043 220.829462 
L 196.277043 218.958455 
L 196.85925 218.958455 
L 196.85925 218.022952 
L 197.200117 218.022952 
L 197.200117 217.5552 
L 197.423977 217.5552 
L 197.534917 216.151945 
L 197.972245 216.151945 
L 197.972245 215.216441 
L 198.187155 215.216441 
L 198.187155 214.74869 
L 198.713926 214.74869 
L 198.713926 213.813186 
L 202.125199 213.813186 
L 202.125199 211.942179 
L 202.383407 211.942179 
L 202.468694 210.071172 
L 203.38219 210.071172 
L 203.38219 209.135669 
L 204.097948 209.135669 
L 204.097948 208.667917 
L 205.883312 208.667917 
L 205.883312 208.200166 
L 213.999541 208.200166 
L 213.999541 207.264662 
L 214.589482 207.264662 
L 214.589482 206.79691 
L 216.580113 206.79691 
L 216.580113 205.861407 
L 360.8064 205.861407 
L 360.8064 205.861407 
" style="fill: none; stroke: #ff7500; stroke-width: 1.5; stroke-linecap: square"/>
   </g>
   <g id="line2d_46">
    <defs>
     <path id="m68eecde2ed" d="M 0 -6 
L -1.347084 -1.854102 
L -5.706339 -1.854102 
L -2.179628 0.708204 
L -3.526712 4.854102 
L -0 2.291796 
L 3.526712 4.854102 
L 2.179628 0.708204 
L 5.706339 -1.854102 
L 1.347084 -1.854102 
z
" style="stroke: #ff7500; stroke-width: 1.5; stroke-linejoin: bevel"/>
    </defs>
    <g>
     <use xlink:href="#m68eecde2ed" x="146.136998" y="271.8144" style="fill-opacity: 0; stroke: #ff7500; stroke-width: 1.5; stroke-linejoin: bevel"/>
     <use xlink:href="#m68eecde2ed" x="216.580113" y="206.79691" style="fill-opacity: 0; stroke: #ff7500; stroke-width: 1.5; stroke-linejoin: bevel"/>
     <use xlink:href="#m68eecde2ed" x="216.580113" y="205.861407" style="fill-opacity: 0; stroke: #ff7500; stroke-width: 1.5; stroke-linejoin: bevel"/>
     <use xlink:href="#m68eecde2ed" x="216.580113" y="205.861407" style="fill-opacity: 0; stroke: #ff7500; stroke-width: 1.5; stroke-linejoin: bevel"/>
     <use xlink:href="#m68eecde2ed" x="360.8064" y="205.861407" style="fill-opacity: 0; stroke: #ff7500; stroke-width: 1.5; stroke-linejoin: bevel"/>
    </g>
   </g>
   <g id="line2d_47">
    <path style="fill: none; stroke: #ff7500; stroke-width: 1.5; stroke-linecap: square"/>
    <g/>
   </g>
   <g id="line2d_48">
    <path d="M 230.861427 205.861407 
" clip-path="url(#p87efb052bf)" style="fill: none; stroke: #ff7500; stroke-width: 1.5; stroke-linecap: square"/>
    <defs>
     <path id="m44775155e5" d="M -12 12 
L 12 -12 
M -12 -12 
L 12 12 
" style="stroke: #ff7500"/>
    </defs>
    <g clip-path="url(#p87efb052bf)">
     <use xlink:href="#m44775155e5" x="230.861427" y="205.861407" style="fill: #ff7500; stroke: #ff7500"/>
    </g>
   </g>
   <g id="line2d_49">
    <defs>
     <path id="mc917d49415" d="M 0 1.5 
C 0.397805 1.5 0.77937 1.341951 1.06066 1.06066 
C 1.341951 0.77937 1.5 0.397805 1.5 0 
C 1.5 -0.397805 1.341951 -0.77937 1.06066 -1.06066 
C 0.77937 -1.341951 0.397805 -1.5 0 -1.5 
C -0.397805 -1.5 -0.77937 -1.341951 -1.06066 -1.06066 
C -1.341951 -0.77937 -1.5 -0.397805 -1.5 0 
C -1.5 0.397805 -1.341951 0.77937 -1.06066 1.06066 
C -0.77937 1.341951 -0.397805 1.5 0 1.5 
z
" style="stroke: #6495ed"/>
    </defs>
    <g>
     <use xlink:href="#mc917d49415" x="194.941693" y="203.054897" style="fill: #6495ed; stroke: #6495ed"/>
     <use xlink:href="#mc917d49415" x="194.941693" y="203.054897" style="fill: #6495ed; stroke: #6495ed"/>
    </g>
   </g>
   <g id="line2d_50">
    <path d="M 36.933397 298.944 
L 36.933397 288.18571 
L 49.972572 288.18571 
L 49.972572 284.911448 
L 76.050921 284.911448 
L 76.050921 279.298428 
L 86.578163 279.298428 
L 86.578163 278.830676 
L 93.287772 278.830676 
L 93.287772 278.362924 
L 98.933205 278.362924 
L 98.933205 277.427421 
L 102.12927 277.427421 
L 102.12927 276.959669 
L 102.708132 276.959669 
L 102.708132 276.491917 
L 105.36204 276.491917 
L 105.36204 276.024166 
L 109.756698 276.024166 
L 109.756698 275.556414 
L 114.265316 275.556414 
L 114.265316 275.088662 
L 119.599808 275.088662 
L 119.599808 274.62091 
L 120.726585 274.62091 
L 120.726585 273.685407 
L 122.19863 273.685407 
L 122.19863 273.217655 
L 123.750979 273.217655 
L 123.750979 272.749903 
L 124.836562 272.749903 
L 124.836562 272.282152 
L 127.458055 272.282152 
L 127.458055 271.346648 
L 127.610376 271.346648 
L 127.610376 270.878897 
L 128.786481 270.878897 
L 128.786481 270.411145 
L 129.485876 270.411145 
L 129.485876 269.943393 
L 132.04923 269.943393 
L 132.04923 269.475641 
L 132.522502 269.475641 
L 132.522502 268.540138 
L 132.869802 268.540138 
L 132.869802 268.072386 
L 133.210806 268.072386 
L 133.210806 267.604634 
L 134.620977 267.604634 
L 134.620977 267.136883 
L 137.699101 267.136883 
L 137.699101 266.669131 
L 138.050729 266.669131 
L 138.050729 265.733628 
L 138.310202 265.733628 
L 138.310202 265.265876 
L 138.650692 265.265876 
L 138.650692 264.798124 
L 140.875745 264.798124 
L 140.875745 263.862621 
L 141.025043 263.862621 
L 141.025043 263.394869 
L 141.825656 263.394869 
L 141.825656 262.927117 
L 143.265494 262.927117 
L 143.265494 261.991614 
L 145.148219 261.991614 
L 145.148219 261.05611 
L 145.620007 261.05611 
L 145.620007 260.588359 
L 146.695245 260.588359 
L 146.695245 260.120607 
L 147.237402 260.120607 
L 147.237402 259.185103 
L 150.379949 259.185103 
L 150.379949 258.717352 
L 151.60532 258.717352 
L 151.60532 258.2496 
L 151.815978 258.2496 
L 151.815978 257.314097 
L 152.635783 257.314097 
L 152.635783 256.846345 
L 154.064218 256.846345 
L 154.064218 256.378593 
L 154.721776 256.378593 
L 154.721776 255.44309 
L 154.971412 255.44309 
L 155.077392 254.039834 
L 155.632755 254.039834 
L 155.632755 253.572083 
L 155.769072 253.572083 
L 155.769072 253.104331 
L 156.105602 253.104331 
L 156.105602 252.636579 
L 156.985263 252.636579 
L 157.080512 250.765572 
L 157.269574 250.765572 
L 157.269574 250.297821 
L 158.659181 250.297821 
L 158.659181 249.830069 
L 159.401463 249.830069 
L 159.401463 248.894566 
L 159.679334 248.894566 
L 159.679334 248.426814 
L 159.953161 248.426814 
L 159.953161 247.959062 
L 161.492316 247.959062 
L 161.492316 247.49131 
L 162.05979 247.49131 
L 162.05979 246.555807 
L 162.205054 246.555807 
L 162.205054 246.088055 
L 162.915008 246.088055 
L 162.915008 245.620303 
L 163.419123 245.620303 
L 163.419123 245.152552 
L 163.554297 245.152552 
L 163.554297 244.6848 
L 164.431451 244.6848 
L 164.431451 244.217048 
L 165.554242 244.217048 
L 165.554242 243.749297 
L 166.651893 243.749297 
L 166.651893 243.281545 
L 168.028291 243.281545 
L 168.028291 242.813793 
L 168.926718 242.813793 
L 168.926718 241.87829 
L 170.056241 241.87829 
L 170.056241 241.410538 
L 171.031472 241.410538 
L 171.031472 240.475034 
L 171.256404 240.475034 
L 171.256404 240.007283 
L 171.929885 240.007283 
L 171.929885 239.071779 
L 172.370523 239.071779 
L 172.370523 238.136276 
L 172.992335 238.136276 
L 172.992335 237.200772 
L 174.940319 237.200772 
L 174.940319 236.265269 
L 175.743995 236.265269 
L 175.743995 235.797517 
L 176.36764 235.797517 
L 176.36764 234.862014 
L 177.715419 234.862014 
L 177.715419 233.92651 
L 178.216255 233.92651 
L 178.216255 232.991007 
L 178.329176 232.991007 
L 178.421064 231.12 
L 179.412941 231.12 
L 179.518922 228.781241 
L 180.151859 228.781241 
L 180.151859 227.845738 
L 180.446803 227.845738 
L 180.446803 227.377986 
L 181.444147 227.377986 
L 181.444147 226.442483 
L 182.05006 226.442483 
L 182.05006 225.506979 
L 183.119233 225.506979 
L 183.119233 224.571476 
L 183.519577 224.571476 
L 183.566121 223.168221 
L 183.842993 223.168221 
L 183.842993 222.700469 
L 184.145923 222.700469 
L 184.145923 221.764966 
L 184.591363 221.764966 
L 184.613361 220.36171 
L 185.17645 220.36171 
L 185.197774 218.958455 
L 185.479812 218.958455 
L 185.479812 218.490703 
L 185.598409 218.490703 
L 185.674752 217.087448 
L 186.521195 217.087448 
L 186.521195 216.151945 
L 187.280377 216.151945 
L 187.280377 215.684193 
L 187.60195 215.684193 
L 187.60195 214.74869 
L 187.881197 214.74869 
L 187.991745 212.877683 
L 188.119902 212.877683 
L 188.119902 211.942179 
L 188.98755 211.942179 
L 188.98755 211.474428 
L 189.212702 211.474428 
L 189.241374 209.603421 
L 190.833733 209.603421 
L 190.833733 209.135669 
L 191.017109 209.135669 
L 191.017109 208.200166 
L 191.913066 208.200166 
L 191.913066 207.264662 
L 192.120712 207.264662 
L 192.120712 206.329159 
L 193.508827 206.329159 
L 193.508827 205.393655 
L 194.026836 205.393655 
L 194.026836 204.925903 
L 194.365871 204.925903 
L 194.365871 204.458152 
L 194.509322 204.458152 
L 194.509322 203.9904 
L 194.941693 203.9904 
L 194.941693 203.054897 
L 360.8064 203.054897 
L 360.8064 203.054897 
" style="fill: none; stroke: #6495ed; stroke-width: 1.5; stroke-linecap: square"/>
   </g>
   <g id="line2d_51">
    <defs>
     <path id="m9722ebfd09" d="M -0 6 
L 6 -6 
L -6 -6 
z
" style="stroke: #6495ed; stroke-width: 1.5; stroke-linejoin: miter"/>
    </defs>
    <g>
     <use xlink:href="#m9722ebfd09" x="76.050921" y="279.298428" style="fill-opacity: 0; stroke: #6495ed; stroke-width: 1.5; stroke-linejoin: miter"/>
     <use xlink:href="#m9722ebfd09" x="155.077392" y="254.039834" style="fill-opacity: 0; stroke: #6495ed; stroke-width: 1.5; stroke-linejoin: miter"/>
     <use xlink:href="#m9722ebfd09" x="194.365871" y="204.925903" style="fill-opacity: 0; stroke: #6495ed; stroke-width: 1.5; stroke-linejoin: miter"/>
     <use xlink:href="#m9722ebfd09" x="194.941693" y="203.054897" style="fill-opacity: 0; stroke: #6495ed; stroke-width: 1.5; stroke-linejoin: miter"/>
     <use xlink:href="#m9722ebfd09" x="194.941693" y="203.054897" style="fill-opacity: 0; stroke: #6495ed; stroke-width: 1.5; stroke-linejoin: miter"/>
     <use xlink:href="#m9722ebfd09" x="360.8064" y="203.054897" style="fill-opacity: 0; stroke: #6495ed; stroke-width: 1.5; stroke-linejoin: miter"/>
    </g>
   </g>
   <g id="line2d_52">
    <path style="fill: none; stroke: #6495ed; stroke-width: 1.5; stroke-linecap: square"/>
    <g/>
   </g>
   <g id="line2d_53">
    <path d="M 230.862054 203.054897 
" clip-path="url(#p87efb052bf)" style="fill: none; stroke: #6495ed; stroke-width: 1.5; stroke-linecap: square"/>
    <defs>
     <path id="m05388dabbe" d="M -12 12 
L 12 -12 
M -12 -12 
L 12 12 
" style="stroke: #6495ed"/>
    </defs>
    <g clip-path="url(#p87efb052bf)">
     <use xlink:href="#m05388dabbe" x="230.862054" y="203.054897" style="fill: #6495ed; stroke: #6495ed"/>
    </g>
   </g>
   <g id="line2d_54">
    <defs>
     <path id="m4696d73f47" d="M 0 1.5 
C 0.397805 1.5 0.77937 1.341951 1.06066 1.06066 
C 1.341951 0.77937 1.5 0.397805 1.5 0 
C 1.5 -0.397805 1.341951 -0.77937 1.06066 -1.06066 
C 0.77937 -1.341951 0.397805 -1.5 0 -1.5 
C -0.397805 -1.5 -0.77937 -1.341951 -1.06066 -1.06066 
C -1.341951 -0.77937 -1.5 -0.397805 -1.5 0 
C -1.5 0.397805 -1.341951 0.77937 -1.06066 1.06066 
C -0.77937 1.341951 -0.397805 1.5 0 1.5 
z
" style="stroke: #ff0000"/>
    </defs>
    <g>
     <use xlink:href="#m4696d73f47" x="213.589429" y="189.957848" style="fill: #ff0000; stroke: #ff0000"/>
     <use xlink:href="#m4696d73f47" x="213.589429" y="189.957848" style="fill: #ff0000; stroke: #ff0000"/>
    </g>
   </g>
   <g id="line2d_55">
    <path d="M 36.933397 298.944 
L 36.933397 288.18571 
L 49.972572 288.18571 
L 49.972572 287.250207 
L 63.011746 287.250207 
L 63.011746 286.314703 
L 67.209423 286.314703 
L 67.209423 285.846952 
L 70.639174 285.846952 
L 70.639174 285.3792 
L 73.538988 285.3792 
L 73.538988 280.701683 
L 80.248597 280.701683 
L 80.248597 280.233931 
L 83.678349 280.233931 
L 83.678349 279.766179 
L 89.090095 279.766179 
L 89.090095 279.298428 
L 92.322865 279.298428 
L 92.322865 278.830676 
L 93.287772 278.830676 
L 93.287772 278.362924 
L 95.080704 278.362924 
L 95.080704 277.895172 
L 98.933205 277.895172 
L 98.933205 277.427421 
L 103.815014 277.427421 
L 103.815014 276.959669 
L 107.244765 276.959669 
L 107.244765 276.024166 
L 110.897141 276.024166 
L 110.897141 275.088662 
L 112.989468 275.088662 
L 112.989468 274.62091 
L 113.638206 274.62091 
L 113.638206 274.153159 
L 114.265316 274.153159 
L 114.265316 273.685407 
L 114.872193 273.685407 
L 114.872193 273.217655 
L 116.030193 273.217655 
L 116.030193 272.749903 
L 119.830627 272.749903 
L 119.830627 272.282152 
L 120.726585 272.282152 
L 120.726585 271.8144 
L 121.99526 271.8144 
L 121.99526 270.878897 
L 122.19863 270.878897 
L 122.19863 270.411145 
L 122.795872 270.411145 
L 122.795872 269.475641 
L 122.990812 269.475641 
L 122.990812 269.00789 
L 127.458055 269.00789 
L 127.458055 268.540138 
L 129.758512 268.540138 
L 129.758512 267.136883 
L 130.160198 267.136883 
L 130.160198 266.201379 
L 130.811181 266.201379 
L 130.811181 265.733628 
L 132.287354 265.733628 
L 132.287354 265.265876 
L 132.754746 265.265876 
L 132.754746 264.330372 
L 133.656071 264.330372 
L 133.656071 263.862621 
L 134.516177 263.862621 
L 134.516177 263.394869 
L 135.338671 263.394869 
L 135.338671 262.927117 
L 135.538796 262.927117 
L 135.538796 262.459366 
L 136.413909 262.459366 
L 136.413909 261.991614 
L 138.73486 261.991614 
L 138.73486 261.523862 
L 140.573544 261.523862 
L 140.573544 260.588359 
L 141.465959 260.588359 
L 141.465959 260.120607 
L 141.682602 260.120607 
L 141.682602 259.185103 
L 141.825656 259.185103 
L 141.825656 258.717352 
L 142.317949 258.717352 
L 142.317949 258.2496 
L 142.525051 258.2496 
L 142.593581 256.846345 
L 142.797687 256.846345 
L 142.797687 255.910841 
L 143.133017 255.910841 
L 143.133017 254.039834 
L 143.657415 254.039834 
L 143.657415 253.572083 
L 144.16759 253.572083 
L 144.16759 252.168828 
L 146.080251 252.168828 
L 146.080251 251.701076 
L 146.584913 251.701076 
L 146.584913 251.233324 
L 147.712333 251.233324 
L 147.712333 250.297821 
L 148.971944 250.297821 
L 148.971944 249.362317 
L 150.738275 249.362317 
L 150.738275 248.894566 
L 151.220087 248.894566 
L 151.220087 247.959062 
L 151.520392 247.959062 
L 151.520392 247.023559 
L 151.982822 247.023559 
L 152.024303 246.088055 
L 152.1482 246.088055 
L 152.1482 245.620303 
L 152.874916 245.620303 
L 152.874916 245.152552 
L 154.101358 245.152552 
L 154.101358 244.6848 
L 154.685842 244.6848 
L 154.685842 244.217048 
L 155.252711 244.217048 
L 155.252711 243.749297 
L 155.802997 243.749297 
L 155.802997 243.281545 
L 156.205398 243.281545 
L 156.205398 242.346041 
L 157.112155 242.346041 
L 157.143744 241.410538 
L 157.61133 241.410538 
L 157.61133 240.475034 
L 157.886402 240.475034 
L 157.886402 240.007283 
L 158.0976 240.007283 
L 158.0976 239.539531 
L 159.062507 239.539531 
L 159.062507 239.071779 
L 160.196243 239.071779 
L 160.196243 238.604028 
L 161.035949 238.604028 
L 161.035949 238.136276 
L 161.189305 238.136276 
L 161.189305 237.200772 
L 161.74115 237.200772 
L 161.74115 236.265269 
L 162.349204 236.265269 
L 162.349204 235.797517 
L 163.865975 235.797517 
L 163.865975 234.862014 
L 164.410013 234.862014 
L 164.410013 233.92651 
L 165.001222 233.92651 
L 165.042749 232.055503 
L 165.432746 232.055503 
L 165.432746 231.12 
L 166.169767 231.12 
L 166.169767 230.184497 
L 166.537305 230.184497 
L 166.594686 228.781241 
L 166.991529 228.781241 
L 166.991529 227.845738 
L 167.380174 227.845738 
L 167.380174 227.377986 
L 167.92181 227.377986 
L 167.92181 226.910234 
L 168.378936 226.910234 
L 168.378936 225.974731 
L 168.825216 225.974731 
L 168.825216 225.039228 
L 170.803818 225.039228 
L 170.803818 224.571476 
L 170.971033 224.571476 
L 170.971033 224.103724 
L 172.201176 224.103724 
L 172.257795 222.232717 
L 172.328329 222.232717 
L 172.328329 221.297214 
L 172.85592 221.297214 
L 172.85592 220.36171 
L 173.168209 220.36171 
L 173.221995 218.490703 
L 173.35579 218.490703 
L 173.35579 217.5552 
L 174.431028 217.5552 
L 174.431028 217.087448 
L 174.693607 217.087448 
L 174.693607 216.619697 
L 174.891235 216.619697 
L 174.891235 215.684193 
L 175.02591 215.684193 
L 175.02591 214.74869 
L 176.116053 214.74869 
L 176.116053 214.280938 
L 176.36764 214.280938 
L 176.36764 213.813186 
L 177.45991 213.813186 
L 177.45991 213.345434 
L 178.400683 213.345434 
L 178.400683 212.409931 
L 179.140447 212.409931 
L 179.140447 211.474428 
L 179.345187 211.474428 
L 179.374254 209.603421 
L 180.253768 209.603421 
L 180.281466 208.200166 
L 180.547132 208.200166 
L 180.547132 207.264662 
L 181.444147 207.264662 
L 181.496113 205.861407 
L 181.668302 205.861407 
L 181.668302 205.393655 
L 182.943869 205.393655 
L 183.023783 203.9904 
L 183.340084 203.9904 
L 183.340084 203.522648 
L 184.325367 203.522648 
L 184.347677 202.119393 
L 184.591363 202.119393 
L 184.591363 201.651641 
L 186.004306 201.651641 
L 186.004306 200.716138 
L 186.868898 200.716138 
L 186.868898 200.248386 
L 187.626941 200.248386 
L 187.651898 198.845131 
L 188.445494 198.845131 
L 188.445494 198.377379 
L 188.594344 198.377379 
L 188.594344 197.441876 
L 189.503124 197.441876 
L 189.503124 196.974124 
L 191.063975 196.974124 
L 191.063975 196.038621 
L 191.858302 196.038621 
L 191.858302 195.570869 
L 192.272518 195.570869 
L 192.272518 195.103117 
L 192.442452 195.103117 
L 192.442452 194.167614 
L 193.214243 194.167614 
L 193.214243 193.699862 
L 198.087169 193.699862 
L 198.087169 193.23211 
L 199.293629 193.23211 
L 199.293629 192.764359 
L 200.364016 192.764359 
L 200.364016 192.296607 
L 203.468457 192.296607 
L 203.468457 191.828855 
L 204.343448 191.828855 
L 204.343448 191.361103 
L 205.835939 191.361103 
L 205.835939 190.893352 
L 213.589429 190.893352 
L 213.589429 189.957848 
L 360.8064 189.957848 
L 360.8064 189.957848 
" style="fill: none; stroke: #ff0000; stroke-width: 1.5; stroke-linecap: square"/>
   </g>
   <g id="line2d_56">
    <defs>
     <path id="m8a88dba639" d="M 0 -6 
L -5.196152 -3 
L -5.196152 3 
L -0 6 
L 5.196152 3 
L 5.196152 -3 
z
" style="stroke: #ff0000; stroke-width: 1.5; stroke-linejoin: miter"/>
    </defs>
    <g>
     <use xlink:href="#m8a88dba639" x="73.538988" y="285.3792" style="fill-opacity: 0; stroke: #ff0000; stroke-width: 1.5; stroke-linejoin: miter"/>
     <use xlink:href="#m8a88dba639" x="146.584913" y="251.233324" style="fill-opacity: 0; stroke: #ff0000; stroke-width: 1.5; stroke-linejoin: miter"/>
     <use xlink:href="#m8a88dba639" x="205.835939" y="191.361103" style="fill-opacity: 0; stroke: #ff0000; stroke-width: 1.5; stroke-linejoin: miter"/>
     <use xlink:href="#m8a88dba639" x="213.589429" y="189.957848" style="fill-opacity: 0; stroke: #ff0000; stroke-width: 1.5; stroke-linejoin: miter"/>
     <use xlink:href="#m8a88dba639" x="213.589429" y="189.957848" style="fill-opacity: 0; stroke: #ff0000; stroke-width: 1.5; stroke-linejoin: miter"/>
     <use xlink:href="#m8a88dba639" x="360.8064" y="189.957848" style="fill-opacity: 0; stroke: #ff0000; stroke-width: 1.5; stroke-linejoin: miter"/>
    </g>
   </g>
   <g id="line2d_57">
    <path style="fill: none; stroke: #ff0000; stroke-width: 1.5; stroke-linecap: square"/>
    <g/>
   </g>
   <g id="line2d_58">
    <path d="M 274.176502 189.957848 
" clip-path="url(#p87efb052bf)" style="fill: none; stroke: #ff0000; stroke-width: 1.5; stroke-linecap: square"/>
    <defs>
     <path id="mc4ccd03c90" d="M -12 12 
L 12 -12 
M -12 -12 
L 12 12 
" style="stroke: #ff0000"/>
    </defs>
    <g clip-path="url(#p87efb052bf)">
     <use xlink:href="#mc4ccd03c90" x="274.176502" y="189.957848" style="fill: #ff0000; stroke: #ff0000"/>
    </g>
   </g>
   <g id="line2d_59">
    <path d="M 360.8064 205.861407 
L 380.514816 293.51808 
" style="fill: none; stroke: #ff7500; stroke-width: 1.5; stroke-linecap: square"/>
    <g>
     <use xlink:href="#m68eecde2ed" x="360.8064" y="205.861407" style="fill-opacity: 0; stroke: #ff7500; stroke-width: 1.5; stroke-linejoin: bevel"/>
     <use xlink:href="#m68eecde2ed" x="380.514816" y="293.51808" style="fill-opacity: 0; stroke: #ff7500; stroke-width: 1.5; stroke-linejoin: bevel"/>
    </g>
   </g>
   <g id="line2d_60">
    <path d="M 360.8064 203.054897 
L 380.514816 241.429248 
" style="fill: none; stroke: #6495ed; stroke-width: 1.5; stroke-linecap: square"/>
    <g>
     <use xlink:href="#m9722ebfd09" x="360.8064" y="203.054897" style="fill-opacity: 0; stroke: #6495ed; stroke-width: 1.5; stroke-linejoin: miter"/>
     <use xlink:href="#m9722ebfd09" x="380.514816" y="241.429248" style="fill-opacity: 0; stroke: #6495ed; stroke-width: 1.5; stroke-linejoin: miter"/>
    </g>
   </g>
   <g id="line2d_61">
    <path d="M 360.8064 190.4256 
L 380.514816 189.340416 
" style="fill: none; stroke: #ff00ff; stroke-width: 1.5; stroke-linecap: square"/>
    <g>
     <use xlink:href="#m78102a2732" x="360.8064" y="190.4256" style="fill-opacity: 0; stroke: #ff00ff; stroke-width: 1.5; stroke-linejoin: miter"/>
     <use xlink:href="#m78102a2732" x="380.514816" y="189.340416" style="fill-opacity: 0; stroke: #ff00ff; stroke-width: 1.5; stroke-linejoin: miter"/>
    </g>
   </g>
   <g id="line2d_62">
    <path d="M 360.8064 189.957848 
L 380.514816 137.251584 
" style="fill: none; stroke: #ff0000; stroke-width: 1.5; stroke-linecap: square"/>
    <g>
     <use xlink:href="#m8a88dba639" x="360.8064" y="189.957848" style="fill-opacity: 0; stroke: #ff0000; stroke-width: 1.5; stroke-linejoin: miter"/>
     <use xlink:href="#m8a88dba639" x="380.514816" y="137.251584" style="fill-opacity: 0; stroke: #ff0000; stroke-width: 1.5; stroke-linejoin: miter"/>
    </g>
   </g>
   <g id="line2d_63">
    <path d="M 360.8064 182.941572 
L 380.514816 85.162752 
" style="fill: none; stroke: #000080; stroke-width: 1.5; stroke-linecap: square"/>
    <g>
     <use xlink:href="#ma4b7dbb084" x="360.8064" y="182.941572" style="fill-opacity: 0; stroke: #000080; stroke-width: 1.5"/>
     <use xlink:href="#ma4b7dbb084" x="380.514816" y="85.162752" style="fill-opacity: 0; stroke: #000080; stroke-width: 1.5"/>
    </g>
   </g>
   <g id="line2d_64">
    <path d="M 360.8064 298.944 
L 360.8064 27.648 
" style="fill: none; stroke: #000000; stroke-width: 1.5; stroke-linecap: square"/>
   </g>
   <g id="patch_3">
    <path d="M 57.6 298.944 
L 360.8064 298.944 
" style="fill: none; stroke: #000000; stroke-width: 0.8; stroke-linejoin: miter; stroke-linecap: square"/>
   </g>
   <g id="patch_4">
    <path d="M 57.6 27.648 
L 360.8064 27.648 
" style="fill: none; stroke: #000000; stroke-width: 0.8; stroke-linejoin: miter; stroke-linecap: square"/>
   </g>
   <g id="text_13">
    <!-- kerComo -->
    <g transform="translate(386.578944 297.381205) scale(0.14 -0.14)">
     <defs>
      <path id="DejaVuSans-6b" d="M 581 4863 
L 1159 4863 
L 1159 1991 
L 2875 3500 
L 3609 3500 
L 1753 1863 
L 3688 0 
L 2938 0 
L 1159 1709 
L 1159 0 
L 581 0 
L 581 4863 
z
" transform="scale(0.015625)"/>
      <path id="DejaVuSans-43" d="M 4122 4306 
L 4122 3641 
Q 3803 3938 3442 4084 
Q 3081 4231 2675 4231 
Q 1875 4231 1450 3742 
Q 1025 3253 1025 2328 
Q 1025 1406 1450 917 
Q 1875 428 2675 428 
Q 3081 428 3442 575 
Q 3803 722 4122 1019 
L 4122 359 
Q 3791 134 3420 21 
Q 3050 -91 2638 -91 
Q 1578 -91 968 557 
Q 359 1206 359 2328 
Q 359 3453 968 4101 
Q 1578 4750 2638 4750 
Q 3056 4750 3426 4639 
Q 3797 4528 4122 4306 
z
" transform="scale(0.015625)"/>
     </defs>
     <use xlink:href="#DejaVuSans-6b"/>
     <use xlink:href="#DejaVuSans-65" x="54.285156"/>
     <use xlink:href="#DejaVuSans-72" x="115.808594"/>
     <use xlink:href="#DejaVuSans-43" x="156.921875"/>
     <use xlink:href="#DejaVuSans-6f" x="226.746094"/>
     <use xlink:href="#DejaVuSans-6d" x="287.927734"/>
     <use xlink:href="#DejaVuSans-6f" x="385.339844"/>
    </g>
   </g>
   <g id="text_14">
    <!-- kerLQ -->
    <g transform="translate(386.578944 245.292373) scale(0.14 -0.14)">
     <defs>
      <path id="DejaVuSans-4c" d="M 628 4666 
L 1259 4666 
L 1259 531 
L 3531 531 
L 3531 0 
L 628 0 
L 628 4666 
z
" transform="scale(0.015625)"/>
      <path id="DejaVuSans-51" d="M 2522 4238 
Q 1834 4238 1429 3725 
Q 1025 3213 1025 2328 
Q 1025 1447 1429 934 
Q 1834 422 2522 422 
Q 3209 422 3611 934 
Q 4013 1447 4013 2328 
Q 4013 3213 3611 3725 
Q 3209 4238 2522 4238 
z
M 3406 84 
L 4238 -825 
L 3475 -825 
L 2784 -78 
Q 2681 -84 2626 -87 
Q 2572 -91 2522 -91 
Q 1538 -91 948 567 
Q 359 1225 359 2328 
Q 359 3434 948 4092 
Q 1538 4750 2522 4750 
Q 3503 4750 4090 4092 
Q 4678 3434 4678 2328 
Q 4678 1516 4351 937 
Q 4025 359 3406 84 
z
" transform="scale(0.015625)"/>
     </defs>
     <use xlink:href="#DejaVuSans-6b"/>
     <use xlink:href="#DejaVuSans-65" x="54.285156"/>
     <use xlink:href="#DejaVuSans-72" x="115.808594"/>
     <use xlink:href="#DejaVuSans-4c" x="156.921875"/>
     <use xlink:href="#DejaVuSans-51" x="212.634766"/>
    </g>
   </g>
   <g id="text_15">
    <!-- AllLQ -->
    <g transform="translate(386.578944 193.203541) scale(0.14 -0.14)">
     <defs>
      <path id="DejaVuSans-41" d="M 2188 4044 
L 1331 1722 
L 3047 1722 
L 2188 4044 
z
M 1831 4666 
L 2547 4666 
L 4325 0 
L 3669 0 
L 3244 1197 
L 1141 1197 
L 716 0 
L 50 0 
L 1831 4666 
z
" transform="scale(0.015625)"/>
     </defs>
     <use xlink:href="#DejaVuSans-41"/>
     <use xlink:href="#DejaVuSans-6c" x="68.408203"/>
     <use xlink:href="#DejaVuSans-6c" x="96.191406"/>
     <use xlink:href="#DejaVuSans-4c" x="123.974609"/>
     <use xlink:href="#DejaVuSans-51" x="179.6875"/>
    </g>
   </g>
   <g id="text_16">
    <!-- COMO-10 d -->
    <g transform="translate(386.578944 141.114709) scale(0.14 -0.14)">
     <defs>
      <path id="DejaVuSans-4f" d="M 2522 4238 
Q 1834 4238 1429 3725 
Q 1025 3213 1025 2328 
Q 1025 1447 1429 934 
Q 1834 422 2522 422 
Q 3209 422 3611 934 
Q 4013 1447 4013 2328 
Q 4013 3213 3611 3725 
Q 3209 4238 2522 4238 
z
M 2522 4750 
Q 3503 4750 4090 4092 
Q 4678 3434 4678 2328 
Q 4678 1225 4090 567 
Q 3503 -91 2522 -91 
Q 1538 -91 948 565 
Q 359 1222 359 2328 
Q 359 3434 948 4092 
Q 1538 4750 2522 4750 
z
" transform="scale(0.015625)"/>
      <path id="DejaVuSans-4d" d="M 628 4666 
L 1569 4666 
L 2759 1491 
L 3956 4666 
L 4897 4666 
L 4897 0 
L 4281 0 
L 4281 4097 
L 3078 897 
L 2444 897 
L 1241 4097 
L 1241 0 
L 628 0 
L 628 4666 
z
" transform="scale(0.015625)"/>
     </defs>
     <use xlink:href="#DejaVuSans-43"/>
     <use xlink:href="#DejaVuSans-4f" x="69.824219"/>
     <use xlink:href="#DejaVuSans-4d" x="148.535156"/>
     <use xlink:href="#DejaVuSans-4f" x="234.814453"/>
     <use xlink:href="#DejaVuSans-2d" x="316.275391"/>
     <use xlink:href="#DejaVuSans-31" x="352.359375"/>
     <use xlink:href="#DejaVuSans-30" x="415.982422"/>
     <use xlink:href="#DejaVuSans-20" x="479.605469"/>
     <use xlink:href="#DejaVuSans-64" x="511.392578"/>
    </g>
   </g>
   <g id="text_17">
    <!-- AllComo -->
    <g transform="translate(386.578944 89.025877) scale(0.14 -0.14)">
     <use xlink:href="#DejaVuSans-41"/>
     <use xlink:href="#DejaVuSans-6c" x="68.408203"/>
     <use xlink:href="#DejaVuSans-6c" x="96.191406"/>
     <use xlink:href="#DejaVuSans-43" x="123.974609"/>
     <use xlink:href="#DejaVuSans-6f" x="193.798828"/>
     <use xlink:href="#DejaVuSans-6d" x="254.980469"/>
     <use xlink:href="#DejaVuSans-6f" x="352.392578"/>
    </g>
   </g>
   <g id="text_18">
    <!-- best 2016 -->
    <g transform="translate(386.578944 36.937045) scale(0.14 -0.14)">
     <defs>
      <path id="DejaVuSans-62" d="M 3116 1747 
Q 3116 2381 2855 2742 
Q 2594 3103 2138 3103 
Q 1681 3103 1420 2742 
Q 1159 2381 1159 1747 
Q 1159 1113 1420 752 
Q 1681 391 2138 391 
Q 2594 391 2855 752 
Q 3116 1113 3116 1747 
z
M 1159 2969 
Q 1341 3281 1617 3432 
Q 1894 3584 2278 3584 
Q 2916 3584 3314 3078 
Q 3713 2572 3713 1747 
Q 3713 922 3314 415 
Q 2916 -91 2278 -91 
Q 1894 -91 1617 61 
Q 1341 213 1159 525 
L 1159 0 
L 581 0 
L 581 4863 
L 1159 4863 
L 1159 2969 
z
" transform="scale(0.015625)"/>
     </defs>
     <use xlink:href="#DejaVuSans-62"/>
     <use xlink:href="#DejaVuSans-65" x="63.476562"/>
     <use xlink:href="#DejaVuSans-73" x="125"/>
     <use xlink:href="#DejaVuSans-74" x="177.099609"/>
     <use xlink:href="#DejaVuSans-20" x="216.308594"/>
     <use xlink:href="#DejaVuSans-32" x="248.095703"/>
     <use xlink:href="#DejaVuSans-30" x="311.71875"/>
     <use xlink:href="#DejaVuSans-31" x="375.341797"/>
     <use xlink:href="#DejaVuSans-36" x="438.964844"/>
    </g>
   </g>
   <g id="text_19">
    <!-- bbob-biobj f35, 3-D -->
    <g transform="translate(60.632064 38.111366) scale(0.102 -0.102)">
     <defs>
      <path id="DejaVuSans-6a" d="M 603 3500 
L 1178 3500 
L 1178 -63 
Q 1178 -731 923 -1031 
Q 669 -1331 103 -1331 
L -116 -1331 
L -116 -844 
L 38 -844 
Q 366 -844 484 -692 
Q 603 -541 603 -63 
L 603 3500 
z
M 603 4863 
L 1178 4863 
L 1178 4134 
L 603 4134 
L 603 4863 
z
" transform="scale(0.015625)"/>
      <path id="DejaVuSans-33" d="M 2597 2516 
Q 3050 2419 3304 2112 
Q 3559 1806 3559 1356 
Q 3559 666 3084 287 
Q 2609 -91 1734 -91 
Q 1441 -91 1130 -33 
Q 819 25 488 141 
L 488 750 
Q 750 597 1062 519 
Q 1375 441 1716 441 
Q 2309 441 2620 675 
Q 2931 909 2931 1356 
Q 2931 1769 2642 2001 
Q 2353 2234 1838 2234 
L 1294 2234 
L 1294 2753 
L 1863 2753 
Q 2328 2753 2575 2939 
Q 2822 3125 2822 3475 
Q 2822 3834 2567 4026 
Q 2313 4219 1838 4219 
Q 1578 4219 1281 4162 
Q 984 4106 628 3988 
L 628 4550 
Q 988 4650 1302 4700 
Q 1616 4750 1894 4750 
Q 2613 4750 3031 4423 
Q 3450 4097 3450 3541 
Q 3450 3153 3228 2886 
Q 3006 2619 2597 2516 
z
" transform="scale(0.015625)"/>
      <path id="DejaVuSans-35" d="M 691 4666 
L 3169 4666 
L 3169 4134 
L 1269 4134 
L 1269 2991 
Q 1406 3038 1543 3061 
Q 1681 3084 1819 3084 
Q 2600 3084 3056 2656 
Q 3513 2228 3513 1497 
Q 3513 744 3044 326 
Q 2575 -91 1722 -91 
Q 1428 -91 1123 -41 
Q 819 9 494 109 
L 494 744 
Q 775 591 1075 516 
Q 1375 441 1709 441 
Q 2250 441 2565 725 
Q 2881 1009 2881 1497 
Q 2881 1984 2565 2268 
Q 2250 2553 1709 2553 
Q 1456 2553 1204 2497 
Q 953 2441 691 2322 
L 691 4666 
z
" transform="scale(0.015625)"/>
      <path id="DejaVuSans-44" d="M 1259 4147 
L 1259 519 
L 2022 519 
Q 2988 519 3436 956 
Q 3884 1394 3884 2338 
Q 3884 3275 3436 3711 
Q 2988 4147 2022 4147 
L 1259 4147 
z
M 628 4666 
L 1925 4666 
Q 3281 4666 3915 4102 
Q 4550 3538 4550 2338 
Q 4550 1131 3912 565 
Q 3275 0 1925 0 
L 628 0 
L 628 4666 
z
" transform="scale(0.015625)"/>
     </defs>
     <use xlink:href="#DejaVuSans-62"/>
     <use xlink:href="#DejaVuSans-62" x="63.476562"/>
     <use xlink:href="#DejaVuSans-6f" x="126.953125"/>
     <use xlink:href="#DejaVuSans-62" x="188.134766"/>
     <use xlink:href="#DejaVuSans-2d" x="251.611328"/>
     <use xlink:href="#DejaVuSans-62" x="287.695312"/>
     <use xlink:href="#DejaVuSans-69" x="351.171875"/>
     <use xlink:href="#DejaVuSans-6f" x="378.955078"/>
     <use xlink:href="#DejaVuSans-62" x="440.136719"/>
     <use xlink:href="#DejaVuSans-6a" x="503.613281"/>
     <use xlink:href="#DejaVuSans-20" x="531.396484"/>
     <use xlink:href="#DejaVuSans-66" x="563.183594"/>
     <use xlink:href="#DejaVuSans-33" x="598.388672"/>
     <use xlink:href="#DejaVuSans-35" x="662.011719"/>
     <use xlink:href="#DejaVuSans-2c" x="725.634766"/>
     <use xlink:href="#DejaVuSans-20" x="757.421875"/>
     <use xlink:href="#DejaVuSans-33" x="789.208984"/>
     <use xlink:href="#DejaVuSans-2d" x="852.832031"/>
     <use xlink:href="#DejaVuSans-44" x="888.916016"/>
    </g>
    <!-- 58 targets: 1..-1.0e-4 -->
    <g transform="translate(60.632064 49.533135) scale(0.102 -0.102)">
     <defs>
      <path id="DejaVuSans-3a" d="M 750 794 
L 1409 794 
L 1409 0 
L 750 0 
L 750 794 
z
M 750 3309 
L 1409 3309 
L 1409 2516 
L 750 2516 
L 750 3309 
z
" transform="scale(0.015625)"/>
     </defs>
     <use xlink:href="#DejaVuSans-35"/>
     <use xlink:href="#DejaVuSans-38" x="63.623047"/>
     <use xlink:href="#DejaVuSans-20" x="127.246094"/>
     <use xlink:href="#DejaVuSans-74" x="159.033203"/>
     <use xlink:href="#DejaVuSans-61" x="198.242188"/>
     <use xlink:href="#DejaVuSans-72" x="259.521484"/>
     <use xlink:href="#DejaVuSans-67" x="298.884766"/>
     <use xlink:href="#DejaVuSans-65" x="362.361328"/>
     <use xlink:href="#DejaVuSans-74" x="423.884766"/>
     <use xlink:href="#DejaVuSans-73" x="463.09375"/>
     <use xlink:href="#DejaVuSans-3a" x="515.193359"/>
     <use xlink:href="#DejaVuSans-20" x="548.884766"/>
     <use xlink:href="#DejaVuSans-31" x="580.671875"/>
     <use xlink:href="#DejaVuSans-2e" x="644.294922"/>
     <use xlink:href="#DejaVuSans-2e" x="676.082031"/>
     <use xlink:href="#DejaVuSans-2d" x="707.869141"/>
     <use xlink:href="#DejaVuSans-31" x="743.953125"/>
     <use xlink:href="#DejaVuSans-2e" x="807.576172"/>
     <use xlink:href="#DejaVuSans-30" x="839.363281"/>
     <use xlink:href="#DejaVuSans-65" x="902.986328"/>
     <use xlink:href="#DejaVuSans-2d" x="964.509766"/>
     <use xlink:href="#DejaVuSans-34" x="1000.59375"/>
    </g>
    <!-- 10 instances -->
    <g transform="translate(60.632064 60.954904) scale(0.102 -0.102)">
     <use xlink:href="#DejaVuSans-31"/>
     <use xlink:href="#DejaVuSans-30" x="63.623047"/>
     <use xlink:href="#DejaVuSans-20" x="127.246094"/>
     <use xlink:href="#DejaVuSans-69" x="159.033203"/>
     <use xlink:href="#DejaVuSans-6e" x="186.816406"/>
     <use xlink:href="#DejaVuSans-73" x="250.195312"/>
     <use xlink:href="#DejaVuSans-74" x="302.294922"/>
     <use xlink:href="#DejaVuSans-61" x="341.503906"/>
     <use xlink:href="#DejaVuSans-6e" x="402.783203"/>
     <use xlink:href="#DejaVuSans-63" x="466.162109"/>
     <use xlink:href="#DejaVuSans-65" x="521.142578"/>
     <use xlink:href="#DejaVuSans-73" x="582.666016"/>
    </g>
   </g>
   <g id="text_20">
    <!-- v2.6, hv-hash=d240b271ab0b4926 -->
    <g style="fill: #808080" transform="translate(120.362575 294.151352) scale(0.1 -0.1)">
     <defs>
      <path id="DejaVuSans-68" d="M 3513 2113 
L 3513 0 
L 2938 0 
L 2938 2094 
Q 2938 2591 2744 2837 
Q 2550 3084 2163 3084 
Q 1697 3084 1428 2787 
Q 1159 2491 1159 1978 
L 1159 0 
L 581 0 
L 581 4863 
L 1159 4863 
L 1159 2956 
Q 1366 3272 1645 3428 
Q 1925 3584 2291 3584 
Q 2894 3584 3203 3211 
Q 3513 2838 3513 2113 
z
" transform="scale(0.015625)"/>
      <path id="DejaVuSans-3d" d="M 678 2906 
L 4684 2906 
L 4684 2381 
L 678 2381 
L 678 2906 
z
M 678 1631 
L 4684 1631 
L 4684 1100 
L 678 1100 
L 678 1631 
z
" transform="scale(0.015625)"/>
      <path id="DejaVuSans-37" d="M 525 4666 
L 3525 4666 
L 3525 4397 
L 1831 0 
L 1172 0 
L 2766 4134 
L 525 4134 
L 525 4666 
z
" transform="scale(0.015625)"/>
      <path id="DejaVuSans-39" d="M 703 97 
L 703 672 
Q 941 559 1184 500 
Q 1428 441 1663 441 
Q 2288 441 2617 861 
Q 2947 1281 2994 2138 
Q 2813 1869 2534 1725 
Q 2256 1581 1919 1581 
Q 1219 1581 811 2004 
Q 403 2428 403 3163 
Q 403 3881 828 4315 
Q 1253 4750 1959 4750 
Q 2769 4750 3195 4129 
Q 3622 3509 3622 2328 
Q 3622 1225 3098 567 
Q 2575 -91 1691 -91 
Q 1453 -91 1209 -44 
Q 966 3 703 97 
z
M 1959 2075 
Q 2384 2075 2632 2365 
Q 2881 2656 2881 3163 
Q 2881 3666 2632 3958 
Q 2384 4250 1959 4250 
Q 1534 4250 1286 3958 
Q 1038 3666 1038 3163 
Q 1038 2656 1286 2365 
Q 1534 2075 1959 2075 
z
" transform="scale(0.015625)"/>
     </defs>
     <use xlink:href="#DejaVuSans-76"/>
     <use xlink:href="#DejaVuSans-32" x="59.179688"/>
     <use xlink:href="#DejaVuSans-2e" x="122.802734"/>
     <use xlink:href="#DejaVuSans-36" x="154.589844"/>
     <use xlink:href="#DejaVuSans-2c" x="218.212891"/>
     <use xlink:href="#DejaVuSans-20" x="250"/>
     <use xlink:href="#DejaVuSans-68" x="281.787109"/>
     <use xlink:href="#DejaVuSans-76" x="345.166016"/>
     <use xlink:href="#DejaVuSans-2d" x="401.720703"/>
     <use xlink:href="#DejaVuSans-68" x="437.804688"/>
     <use xlink:href="#DejaVuSans-61" x="501.183594"/>
     <use xlink:href="#DejaVuSans-73" x="562.462891"/>
     <use xlink:href="#DejaVuSans-68" x="614.5625"/>
     <use xlink:href="#DejaVuSans-3d" x="677.941406"/>
     <use xlink:href="#DejaVuSans-64" x="761.730469"/>
     <use xlink:href="#DejaVuSans-32" x="825.207031"/>
     <use xlink:href="#DejaVuSans-34" x="888.830078"/>
     <use xlink:href="#DejaVuSans-30" x="952.453125"/>
     <use xlink:href="#DejaVuSans-62" x="1016.076172"/>
     <use xlink:href="#DejaVuSans-32" x="1079.552734"/>
     <use xlink:href="#DejaVuSans-37" x="1143.175781"/>
     <use xlink:href="#DejaVuSans-31" x="1206.798828"/>
     <use xlink:href="#DejaVuSans-61" x="1270.421875"/>
     <use xlink:href="#DejaVuSans-62" x="1331.701172"/>
     <use xlink:href="#DejaVuSans-30" x="1395.177734"/>
     <use xlink:href="#DejaVuSans-62" x="1458.800781"/>
     <use xlink:href="#DejaVuSans-34" x="1522.277344"/>
     <use xlink:href="#DejaVuSans-39" x="1585.900391"/>
     <use xlink:href="#DejaVuSans-32" x="1649.523438"/>
     <use xlink:href="#DejaVuSans-36" x="1713.146484"/>
    </g>
   </g>
   <g id="text_21">
    <!-- 35 Sharp ridge/Sharp ridge -->
    <g transform="translate(73.550075 21.648) scale(0.2 -0.2)">
     <defs>
      <path id="DejaVuSans-53" d="M 3425 4513 
L 3425 3897 
Q 3066 4069 2747 4153 
Q 2428 4238 2131 4238 
Q 1616 4238 1336 4038 
Q 1056 3838 1056 3469 
Q 1056 3159 1242 3001 
Q 1428 2844 1947 2747 
L 2328 2669 
Q 3034 2534 3370 2195 
Q 3706 1856 3706 1288 
Q 3706 609 3251 259 
Q 2797 -91 1919 -91 
Q 1588 -91 1214 -16 
Q 841 59 441 206 
L 441 856 
Q 825 641 1194 531 
Q 1563 422 1919 422 
Q 2459 422 2753 634 
Q 3047 847 3047 1241 
Q 3047 1584 2836 1778 
Q 2625 1972 2144 2069 
L 1759 2144 
Q 1053 2284 737 2584 
Q 422 2884 422 3419 
Q 422 4038 858 4394 
Q 1294 4750 2059 4750 
Q 2388 4750 2728 4690 
Q 3069 4631 3425 4513 
z
" transform="scale(0.015625)"/>
     </defs>
     <use xlink:href="#DejaVuSans-33"/>
     <use xlink:href="#DejaVuSans-35" x="63.623047"/>
     <use xlink:href="#DejaVuSans-20" x="127.246094"/>
     <use xlink:href="#DejaVuSans-53" x="159.033203"/>
     <use xlink:href="#DejaVuSans-68" x="222.509766"/>
     <use xlink:href="#DejaVuSans-61" x="285.888672"/>
     <use xlink:href="#DejaVuSans-72" x="347.167969"/>
     <use xlink:href="#DejaVuSans-70" x="388.28125"/>
     <use xlink:href="#DejaVuSans-20" x="451.757812"/>
     <use xlink:href="#DejaVuSans-72" x="483.544922"/>
     <use xlink:href="#DejaVuSans-69" x="524.658203"/>
     <use xlink:href="#DejaVuSans-64" x="552.441406"/>
     <use xlink:href="#DejaVuSans-67" x="615.917969"/>
     <use xlink:href="#DejaVuSans-65" x="679.394531"/>
     <use xlink:href="#DejaVuSans-2f" x="740.917969"/>
     <use xlink:href="#DejaVuSans-53" x="774.609375"/>
     <use xlink:href="#DejaVuSans-68" x="838.085938"/>
     <use xlink:href="#DejaVuSans-61" x="901.464844"/>
     <use xlink:href="#DejaVuSans-72" x="962.744141"/>
     <use xlink:href="#DejaVuSans-70" x="1003.857422"/>
     <use xlink:href="#DejaVuSans-20" x="1067.333984"/>
     <use xlink:href="#DejaVuSans-72" x="1099.121094"/>
     <use xlink:href="#DejaVuSans-69" x="1140.234375"/>
     <use xlink:href="#DejaVuSans-64" x="1168.017578"/>
     <use xlink:href="#DejaVuSans-67" x="1231.494141"/>
     <use xlink:href="#DejaVuSans-65" x="1294.970703"/>
    </g>
   </g>
  </g>
 </g>
 <defs>
  <clipPath id="p87efb052bf">
   <rect x="57.6" y="27.648" width="303.2064" height="271.296"/>
  </clipPath>
 </defs>
</svg>
