<?xml version="1.0" encoding="utf-8" standalone="no"?>
<!DOCTYPE svg PUBLIC "-//W3C//DTD SVG 1.1//EN"
  "http://www.w3.org/Graphics/SVG/1.1/DTD/svg11.dtd">
<svg xmlns:xlink="http://www.w3.org/1999/xlink" width="460.8pt" height="345.6pt" viewBox="0 0 460.8 345.6" xmlns="http://www.w3.org/2000/svg" version="1.1">
 <metadata>
  <rdf:RDF xmlns:dc="http://purl.org/dc/elements/1.1/" xmlns:cc="http://creativecommons.org/ns#" xmlns:rdf="http://www.w3.org/1999/02/22-rdf-syntax-ns#">
   <cc:Work>
    <dc:type rdf:resource="http://purl.org/dc/dcmitype/StillImage"/>
    <dc:date>2023-02-10T02:08:42.816112</dc:date>
    <dc:format>image/svg+xml</dc:format>
    <dc:creator>
     <cc:Agent>
      <dc:title>Matplotlib v3.6.3, https://matplotlib.org/</dc:title>
     </cc:Agent>
    </dc:creator>
   </cc:Work>
  </rdf:RDF>
 </metadata>
 <defs>
  <style type="text/css">*{stroke-linejoin: round; stroke-linecap: butt}</style>
 </defs>
 <g id="figure_1">
  <g id="patch_1">
   <path d="M 0 345.6 
L 460.8 345.6 
L 460.8 0 
L 0 0 
z
" style="fill: #ffffff"/>
  </g>
  <g id="axes_1">
   <g id="patch_2">
    <path d="M 57.6 298.944 
L 360.8064 298.944 
L 360.8064 27.648 
L 57.6 27.648 
z
" style="fill: #ffffff"/>
   </g>
   <g id="line2d_1">
    <path d="M 57.6 298.944 
L 57.6 294.266483 
L 76.050921 294.266483 
L 76.050921 284.911448 
L 102.12927 284.911448 
L 102.12927 275.556414 
L 130.938718 275.556414 
L 130.938718 270.878897 
L 158.746339 270.878897 
L 158.746339 256.846345 
L 179.316074 256.846345 
L 179.316074 247.49131 
L 193.329865 247.49131 
L 193.329865 242.813793 
L 202.116531 242.813793 
L 202.116531 233.458759 
L 210.440885 233.458759 
L 210.440885 219.426207 
L 220.038422 219.426207 
L 220.038422 210.071172 
L 228.727005 210.071172 
L 228.727005 200.716138 
L 240.01748 200.716138 
L 240.01748 191.361103 
L 248.248789 191.361103 
L 248.248789 186.683586 
L 258.397934 186.683586 
L 258.397934 172.651034 
L 267.442099 172.651034 
L 267.442099 167.973517 
L 275.169748 167.973517 
L 275.169748 153.940966 
L 280.997144 153.940966 
L 280.997144 144.585931 
L 288.025911 144.585931 
L 288.025911 139.908414 
L 291.571153 139.908414 
L 291.571153 125.875862 
L 302.529034 125.875862 
L 302.529034 121.198345 
L 303.763906 121.198345 
L 303.763906 107.165793 
L 305.537811 107.165793 
L 305.537811 97.810759 
L 307.409808 97.810759 
L 307.409808 88.455724 
L 311.671611 88.455724 
L 311.671611 83.778207 
L 312.762027 83.778207 
L 312.762027 74.423172 
L 313.004286 74.423172 
L 313.004286 60.390621 
L 360.8064 60.390621 
" style="fill: none; stroke: #f5deb3; stroke-width: 4; stroke-linecap: square"/>
   </g>
   <g id="line2d_2">
    <defs>
     <path id="m6e7a3d4ccb" d="M -0 7.778175 
L 7.778175 0 
L 0 -7.778175 
L -7.778175 -0 
z
" style="stroke: #f5deb3; stroke-width: 1.5; stroke-linejoin: miter"/>
    </defs>
    <g>
     <use xlink:href="#m6e7a3d4ccb" x="193.329865" y="247.49131" style="fill: #f5deb3; stroke: #f5deb3; stroke-width: 1.5; stroke-linejoin: miter"/>
     <use xlink:href="#m6e7a3d4ccb" x="280.997144" y="144.585931" style="fill: #f5deb3; stroke: #f5deb3; stroke-width: 1.5; stroke-linejoin: miter"/>
     <use xlink:href="#m6e7a3d4ccb" x="313.004286" y="74.423172" style="fill: #f5deb3; stroke: #f5deb3; stroke-width: 1.5; stroke-linejoin: miter"/>
     <use xlink:href="#m6e7a3d4ccb" x="313.004286" y="60.390621" style="fill: #f5deb3; stroke: #f5deb3; stroke-width: 1.5; stroke-linejoin: miter"/>
     <use xlink:href="#m6e7a3d4ccb" x="360.8064" y="60.390621" style="fill: #f5deb3; stroke: #f5deb3; stroke-width: 1.5; stroke-linejoin: miter"/>
    </g>
   </g>
   <g id="line2d_3">
    <path style="fill: none; stroke: #f5deb3; stroke-width: 4; stroke-linecap: square"/>
    <g/>
   </g>
   <g id="line2d_4">
    <path d="M 360.8064 60.390621 
L 380.514816 33.07392 
" style="fill: none; stroke: #f5deb3; stroke-width: 4; stroke-linecap: square"/>
    <g>
     <use xlink:href="#m6e7a3d4ccb" x="360.8064" y="60.390621" style="fill: #f5deb3; stroke: #f5deb3; stroke-width: 1.5; stroke-linejoin: miter"/>
     <use xlink:href="#m6e7a3d4ccb" x="380.514816" y="33.07392" style="fill: #f5deb3; stroke: #f5deb3; stroke-width: 1.5; stroke-linejoin: miter"/>
    </g>
   </g>
   <g id="matplotlib.axis_1">
    <g id="xtick_1">
     <g id="line2d_5">
      <path d="M 57.6 298.944 
L 57.6 27.648 
" clip-path="url(#pa22c609c53)" style="fill: none; stroke: #b0b0b0; stroke-width: 0.8; stroke-linecap: square"/>
     </g>
     <g id="line2d_6">
      <defs>
       <path id="me6e2b0fe72" d="M 0 0 
L 0 3.5 
" style="stroke: #000000; stroke-width: 0.8"/>
      </defs>
      <g>
       <use xlink:href="#me6e2b0fe72" x="57.6" y="298.944" style="stroke: #000000; stroke-width: 0.8"/>
      </g>
     </g>
     <g id="text_1">
      <!-- 0 -->
      <g transform="translate(52.191875 318.861344) scale(0.17 -0.17)">
       <defs>
        <path id="DejaVuSans-30" d="M 2034 4250 
Q 1547 4250 1301 3770 
Q 1056 3291 1056 2328 
Q 1056 1369 1301 889 
Q 1547 409 2034 409 
Q 2525 409 2770 889 
Q 3016 1369 3016 2328 
Q 3016 3291 2770 3770 
Q 2525 4250 2034 4250 
z
M 2034 4750 
Q 2819 4750 3233 4129 
Q 3647 3509 3647 2328 
Q 3647 1150 3233 529 
Q 2819 -91 2034 -91 
Q 1250 -91 836 529 
Q 422 1150 422 2328 
Q 422 3509 836 4129 
Q 1250 4750 2034 4750 
z
" transform="scale(0.015625)"/>
       </defs>
       <use xlink:href="#DejaVuSans-30"/>
      </g>
     </g>
    </g>
    <g id="xtick_2">
     <g id="line2d_7">
      <path d="M 144.2304 298.944 
L 144.2304 27.648 
" clip-path="url(#pa22c609c53)" style="fill: none; stroke: #b0b0b0; stroke-width: 0.8; stroke-linecap: square"/>
     </g>
     <g id="line2d_8">
      <g>
       <use xlink:href="#me6e2b0fe72" x="144.2304" y="298.944" style="stroke: #000000; stroke-width: 0.8"/>
      </g>
     </g>
     <g id="text_2">
      <!-- 2 -->
      <g transform="translate(138.822275 318.861344) scale(0.17 -0.17)">
       <defs>
        <path id="DejaVuSans-32" d="M 1228 531 
L 3431 531 
L 3431 0 
L 469 0 
L 469 531 
Q 828 903 1448 1529 
Q 2069 2156 2228 2338 
Q 2531 2678 2651 2914 
Q 2772 3150 2772 3378 
Q 2772 3750 2511 3984 
Q 2250 4219 1831 4219 
Q 1534 4219 1204 4116 
Q 875 4013 500 3803 
L 500 4441 
Q 881 4594 1212 4672 
Q 1544 4750 1819 4750 
Q 2544 4750 2975 4387 
Q 3406 4025 3406 3419 
Q 3406 3131 3298 2873 
Q 3191 2616 2906 2266 
Q 2828 2175 2409 1742 
Q 1991 1309 1228 531 
z
" transform="scale(0.015625)"/>
       </defs>
       <use xlink:href="#DejaVuSans-32"/>
      </g>
     </g>
    </g>
    <g id="xtick_3">
     <g id="line2d_9">
      <path d="M 230.8608 298.944 
L 230.8608 27.648 
" clip-path="url(#pa22c609c53)" style="fill: none; stroke: #b0b0b0; stroke-width: 0.8; stroke-linecap: square"/>
     </g>
     <g id="line2d_10">
      <g>
       <use xlink:href="#me6e2b0fe72" x="230.8608" y="298.944" style="stroke: #000000; stroke-width: 0.8"/>
      </g>
     </g>
     <g id="text_3">
      <!-- 4 -->
      <g transform="translate(225.452675 318.861344) scale(0.17 -0.17)">
       <defs>
        <path id="DejaVuSans-34" d="M 2419 4116 
L 825 1625 
L 2419 1625 
L 2419 4116 
z
M 2253 4666 
L 3047 4666 
L 3047 1625 
L 3713 1625 
L 3713 1100 
L 3047 1100 
L 3047 0 
L 2419 0 
L 2419 1100 
L 313 1100 
L 313 1709 
L 2253 4666 
z
" transform="scale(0.015625)"/>
       </defs>
       <use xlink:href="#DejaVuSans-34"/>
      </g>
     </g>
    </g>
    <g id="xtick_4">
     <g id="line2d_11">
      <path d="M 317.4912 298.944 
L 317.4912 27.648 
" clip-path="url(#pa22c609c53)" style="fill: none; stroke: #b0b0b0; stroke-width: 0.8; stroke-linecap: square"/>
     </g>
     <g id="line2d_12">
      <g>
       <use xlink:href="#me6e2b0fe72" x="317.4912" y="298.944" style="stroke: #000000; stroke-width: 0.8"/>
      </g>
     </g>
     <g id="text_4">
      <!-- 6 -->
      <g transform="translate(312.083075 318.861344) scale(0.17 -0.17)">
       <defs>
        <path id="DejaVuSans-36" d="M 2113 2584 
Q 1688 2584 1439 2293 
Q 1191 2003 1191 1497 
Q 1191 994 1439 701 
Q 1688 409 2113 409 
Q 2538 409 2786 701 
Q 3034 994 3034 1497 
Q 3034 2003 2786 2293 
Q 2538 2584 2113 2584 
z
M 3366 4563 
L 3366 3988 
Q 3128 4100 2886 4159 
Q 2644 4219 2406 4219 
Q 1781 4219 1451 3797 
Q 1122 3375 1075 2522 
Q 1259 2794 1537 2939 
Q 1816 3084 2150 3084 
Q 2853 3084 3261 2657 
Q 3669 2231 3669 1497 
Q 3669 778 3244 343 
Q 2819 -91 2113 -91 
Q 1303 -91 875 529 
Q 447 1150 447 2328 
Q 447 3434 972 4092 
Q 1497 4750 2381 4750 
Q 2619 4750 2861 4703 
Q 3103 4656 3366 4563 
z
" transform="scale(0.015625)"/>
       </defs>
       <use xlink:href="#DejaVuSans-36"/>
      </g>
     </g>
    </g>
    <g id="xtick_5">
     <g id="line2d_13">
      <path d="M 100.9152 298.944 
L 100.9152 27.648 
" clip-path="url(#pa22c609c53)" style="fill: none; stroke: #b0b0b0; stroke-width: 0.8; stroke-linecap: square"/>
     </g>
     <g id="line2d_14">
      <defs>
       <path id="m469194b46e" d="M 0 0 
L 0 2 
" style="stroke: #000000; stroke-width: 0.6"/>
      </defs>
      <g>
       <use xlink:href="#m469194b46e" x="100.9152" y="298.944" style="stroke: #000000; stroke-width: 0.6"/>
      </g>
     </g>
    </g>
    <g id="xtick_6">
     <g id="line2d_15">
      <path d="M 187.5456 298.944 
L 187.5456 27.648 
" clip-path="url(#pa22c609c53)" style="fill: none; stroke: #b0b0b0; stroke-width: 0.8; stroke-linecap: square"/>
     </g>
     <g id="line2d_16">
      <g>
       <use xlink:href="#m469194b46e" x="187.5456" y="298.944" style="stroke: #000000; stroke-width: 0.6"/>
      </g>
     </g>
    </g>
    <g id="xtick_7">
     <g id="line2d_17">
      <path d="M 274.176 298.944 
L 274.176 27.648 
" clip-path="url(#pa22c609c53)" style="fill: none; stroke: #b0b0b0; stroke-width: 0.8; stroke-linecap: square"/>
     </g>
     <g id="line2d_18">
      <g>
       <use xlink:href="#m469194b46e" x="274.176" y="298.944" style="stroke: #000000; stroke-width: 0.6"/>
      </g>
     </g>
    </g>
    <g id="xtick_8">
     <g id="line2d_19">
      <path d="M 360.8064 298.944 
L 360.8064 27.648 
" clip-path="url(#pa22c609c53)" style="fill: none; stroke: #b0b0b0; stroke-width: 0.8; stroke-linecap: square"/>
     </g>
     <g id="line2d_20">
      <g>
       <use xlink:href="#m469194b46e" x="360.8064" y="298.944" style="stroke: #000000; stroke-width: 0.6"/>
      </g>
     </g>
    </g>
    <g id="text_5">
     <!-- log10(# f-evals / dimension) -->
     <g transform="translate(88.823278 339.314156) scale(0.17 -0.17)">
      <defs>
       <path id="DejaVuSans-6c" d="M 603 4863 
L 1178 4863 
L 1178 0 
L 603 0 
L 603 4863 
z
" transform="scale(0.015625)"/>
       <path id="DejaVuSans-6f" d="M 1959 3097 
Q 1497 3097 1228 2736 
Q 959 2375 959 1747 
Q 959 1119 1226 758 
Q 1494 397 1959 397 
Q 2419 397 2687 759 
Q 2956 1122 2956 1747 
Q 2956 2369 2687 2733 
Q 2419 3097 1959 3097 
z
M 1959 3584 
Q 2709 3584 3137 3096 
Q 3566 2609 3566 1747 
Q 3566 888 3137 398 
Q 2709 -91 1959 -91 
Q 1206 -91 779 398 
Q 353 888 353 1747 
Q 353 2609 779 3096 
Q 1206 3584 1959 3584 
z
" transform="scale(0.015625)"/>
       <path id="DejaVuSans-67" d="M 2906 1791 
Q 2906 2416 2648 2759 
Q 2391 3103 1925 3103 
Q 1463 3103 1205 2759 
Q 947 2416 947 1791 
Q 947 1169 1205 825 
Q 1463 481 1925 481 
Q 2391 481 2648 825 
Q 2906 1169 2906 1791 
z
M 3481 434 
Q 3481 -459 3084 -895 
Q 2688 -1331 1869 -1331 
Q 1566 -1331 1297 -1286 
Q 1028 -1241 775 -1147 
L 775 -588 
Q 1028 -725 1275 -790 
Q 1522 -856 1778 -856 
Q 2344 -856 2625 -561 
Q 2906 -266 2906 331 
L 2906 616 
Q 2728 306 2450 153 
Q 2172 0 1784 0 
Q 1141 0 747 490 
Q 353 981 353 1791 
Q 353 2603 747 3093 
Q 1141 3584 1784 3584 
Q 2172 3584 2450 3431 
Q 2728 3278 2906 2969 
L 2906 3500 
L 3481 3500 
L 3481 434 
z
" transform="scale(0.015625)"/>
       <path id="DejaVuSans-31" d="M 794 531 
L 1825 531 
L 1825 4091 
L 703 3866 
L 703 4441 
L 1819 4666 
L 2450 4666 
L 2450 531 
L 3481 531 
L 3481 0 
L 794 0 
L 794 531 
z
" transform="scale(0.015625)"/>
       <path id="DejaVuSans-28" d="M 1984 4856 
Q 1566 4138 1362 3434 
Q 1159 2731 1159 2009 
Q 1159 1288 1364 580 
Q 1569 -128 1984 -844 
L 1484 -844 
Q 1016 -109 783 600 
Q 550 1309 550 2009 
Q 550 2706 781 3412 
Q 1013 4119 1484 4856 
L 1984 4856 
z
" transform="scale(0.015625)"/>
       <path id="DejaVuSans-23" d="M 3272 2816 
L 2363 2816 
L 2100 1772 
L 3016 1772 
L 3272 2816 
z
M 2803 4594 
L 2478 3297 
L 3391 3297 
L 3719 4594 
L 4219 4594 
L 3897 3297 
L 4872 3297 
L 4872 2816 
L 3775 2816 
L 3519 1772 
L 4513 1772 
L 4513 1294 
L 3397 1294 
L 3072 0 
L 2572 0 
L 2894 1294 
L 1978 1294 
L 1656 0 
L 1153 0 
L 1478 1294 
L 494 1294 
L 494 1772 
L 1594 1772 
L 1856 2816 
L 850 2816 
L 850 3297 
L 1978 3297 
L 2297 4594 
L 2803 4594 
z
" transform="scale(0.015625)"/>
       <path id="DejaVuSans-20" transform="scale(0.015625)"/>
       <path id="DejaVuSans-66" d="M 2375 4863 
L 2375 4384 
L 1825 4384 
Q 1516 4384 1395 4259 
Q 1275 4134 1275 3809 
L 1275 3500 
L 2222 3500 
L 2222 3053 
L 1275 3053 
L 1275 0 
L 697 0 
L 697 3053 
L 147 3053 
L 147 3500 
L 697 3500 
L 697 3744 
Q 697 4328 969 4595 
Q 1241 4863 1831 4863 
L 2375 4863 
z
" transform="scale(0.015625)"/>
       <path id="DejaVuSans-2d" d="M 313 2009 
L 1997 2009 
L 1997 1497 
L 313 1497 
L 313 2009 
z
" transform="scale(0.015625)"/>
       <path id="DejaVuSans-65" d="M 3597 1894 
L 3597 1613 
L 953 1613 
Q 991 1019 1311 708 
Q 1631 397 2203 397 
Q 2534 397 2845 478 
Q 3156 559 3463 722 
L 3463 178 
Q 3153 47 2828 -22 
Q 2503 -91 2169 -91 
Q 1331 -91 842 396 
Q 353 884 353 1716 
Q 353 2575 817 3079 
Q 1281 3584 2069 3584 
Q 2775 3584 3186 3129 
Q 3597 2675 3597 1894 
z
M 3022 2063 
Q 3016 2534 2758 2815 
Q 2500 3097 2075 3097 
Q 1594 3097 1305 2825 
Q 1016 2553 972 2059 
L 3022 2063 
z
" transform="scale(0.015625)"/>
       <path id="DejaVuSans-76" d="M 191 3500 
L 800 3500 
L 1894 563 
L 2988 3500 
L 3597 3500 
L 2284 0 
L 1503 0 
L 191 3500 
z
" transform="scale(0.015625)"/>
       <path id="DejaVuSans-61" d="M 2194 1759 
Q 1497 1759 1228 1600 
Q 959 1441 959 1056 
Q 959 750 1161 570 
Q 1363 391 1709 391 
Q 2188 391 2477 730 
Q 2766 1069 2766 1631 
L 2766 1759 
L 2194 1759 
z
M 3341 1997 
L 3341 0 
L 2766 0 
L 2766 531 
Q 2569 213 2275 61 
Q 1981 -91 1556 -91 
Q 1019 -91 701 211 
Q 384 513 384 1019 
Q 384 1609 779 1909 
Q 1175 2209 1959 2209 
L 2766 2209 
L 2766 2266 
Q 2766 2663 2505 2880 
Q 2244 3097 1772 3097 
Q 1472 3097 1187 3025 
Q 903 2953 641 2809 
L 641 3341 
Q 956 3463 1253 3523 
Q 1550 3584 1831 3584 
Q 2591 3584 2966 3190 
Q 3341 2797 3341 1997 
z
" transform="scale(0.015625)"/>
       <path id="DejaVuSans-73" d="M 2834 3397 
L 2834 2853 
Q 2591 2978 2328 3040 
Q 2066 3103 1784 3103 
Q 1356 3103 1142 2972 
Q 928 2841 928 2578 
Q 928 2378 1081 2264 
Q 1234 2150 1697 2047 
L 1894 2003 
Q 2506 1872 2764 1633 
Q 3022 1394 3022 966 
Q 3022 478 2636 193 
Q 2250 -91 1575 -91 
Q 1294 -91 989 -36 
Q 684 19 347 128 
L 347 722 
Q 666 556 975 473 
Q 1284 391 1588 391 
Q 1994 391 2212 530 
Q 2431 669 2431 922 
Q 2431 1156 2273 1281 
Q 2116 1406 1581 1522 
L 1381 1569 
Q 847 1681 609 1914 
Q 372 2147 372 2553 
Q 372 3047 722 3315 
Q 1072 3584 1716 3584 
Q 2034 3584 2315 3537 
Q 2597 3491 2834 3397 
z
" transform="scale(0.015625)"/>
       <path id="DejaVuSans-2f" d="M 1625 4666 
L 2156 4666 
L 531 -594 
L 0 -594 
L 1625 4666 
z
" transform="scale(0.015625)"/>
       <path id="DejaVuSans-64" d="M 2906 2969 
L 2906 4863 
L 3481 4863 
L 3481 0 
L 2906 0 
L 2906 525 
Q 2725 213 2448 61 
Q 2172 -91 1784 -91 
Q 1150 -91 751 415 
Q 353 922 353 1747 
Q 353 2572 751 3078 
Q 1150 3584 1784 3584 
Q 2172 3584 2448 3432 
Q 2725 3281 2906 2969 
z
M 947 1747 
Q 947 1113 1208 752 
Q 1469 391 1925 391 
Q 2381 391 2643 752 
Q 2906 1113 2906 1747 
Q 2906 2381 2643 2742 
Q 2381 3103 1925 3103 
Q 1469 3103 1208 2742 
Q 947 2381 947 1747 
z
" transform="scale(0.015625)"/>
       <path id="DejaVuSans-69" d="M 603 3500 
L 1178 3500 
L 1178 0 
L 603 0 
L 603 3500 
z
M 603 4863 
L 1178 4863 
L 1178 4134 
L 603 4134 
L 603 4863 
z
" transform="scale(0.015625)"/>
       <path id="DejaVuSans-6d" d="M 3328 2828 
Q 3544 3216 3844 3400 
Q 4144 3584 4550 3584 
Q 5097 3584 5394 3201 
Q 5691 2819 5691 2113 
L 5691 0 
L 5113 0 
L 5113 2094 
Q 5113 2597 4934 2840 
Q 4756 3084 4391 3084 
Q 3944 3084 3684 2787 
Q 3425 2491 3425 1978 
L 3425 0 
L 2847 0 
L 2847 2094 
Q 2847 2600 2669 2842 
Q 2491 3084 2119 3084 
Q 1678 3084 1418 2786 
Q 1159 2488 1159 1978 
L 1159 0 
L 581 0 
L 581 3500 
L 1159 3500 
L 1159 2956 
Q 1356 3278 1631 3431 
Q 1906 3584 2284 3584 
Q 2666 3584 2933 3390 
Q 3200 3197 3328 2828 
z
" transform="scale(0.015625)"/>
       <path id="DejaVuSans-6e" d="M 3513 2113 
L 3513 0 
L 2938 0 
L 2938 2094 
Q 2938 2591 2744 2837 
Q 2550 3084 2163 3084 
Q 1697 3084 1428 2787 
Q 1159 2491 1159 1978 
L 1159 0 
L 581 0 
L 581 3500 
L 1159 3500 
L 1159 2956 
Q 1366 3272 1645 3428 
Q 1925 3584 2291 3584 
Q 2894 3584 3203 3211 
Q 3513 2838 3513 2113 
z
" transform="scale(0.015625)"/>
       <path id="DejaVuSans-29" d="M 513 4856 
L 1013 4856 
Q 1481 4119 1714 3412 
Q 1947 2706 1947 2009 
Q 1947 1309 1714 600 
Q 1481 -109 1013 -844 
L 513 -844 
Q 928 -128 1133 580 
Q 1338 1288 1338 2009 
Q 1338 2731 1133 3434 
Q 928 4138 513 4856 
z
" transform="scale(0.015625)"/>
      </defs>
      <use xlink:href="#DejaVuSans-6c"/>
      <use xlink:href="#DejaVuSans-6f" x="27.783203"/>
      <use xlink:href="#DejaVuSans-67" x="88.964844"/>
      <use xlink:href="#DejaVuSans-31" x="152.441406"/>
      <use xlink:href="#DejaVuSans-30" x="216.064453"/>
      <use xlink:href="#DejaVuSans-28" x="279.6875"/>
      <use xlink:href="#DejaVuSans-23" x="318.701172"/>
      <use xlink:href="#DejaVuSans-20" x="402.490234"/>
      <use xlink:href="#DejaVuSans-66" x="434.277344"/>
      <use xlink:href="#DejaVuSans-2d" x="463.982422"/>
      <use xlink:href="#DejaVuSans-65" x="500.066406"/>
      <use xlink:href="#DejaVuSans-76" x="561.589844"/>
      <use xlink:href="#DejaVuSans-61" x="620.769531"/>
      <use xlink:href="#DejaVuSans-6c" x="682.048828"/>
      <use xlink:href="#DejaVuSans-73" x="709.832031"/>
      <use xlink:href="#DejaVuSans-20" x="761.931641"/>
      <use xlink:href="#DejaVuSans-2f" x="793.71875"/>
      <use xlink:href="#DejaVuSans-20" x="827.410156"/>
      <use xlink:href="#DejaVuSans-64" x="859.197266"/>
      <use xlink:href="#DejaVuSans-69" x="922.673828"/>
      <use xlink:href="#DejaVuSans-6d" x="950.457031"/>
      <use xlink:href="#DejaVuSans-65" x="1047.869141"/>
      <use xlink:href="#DejaVuSans-6e" x="1109.392578"/>
      <use xlink:href="#DejaVuSans-73" x="1172.771484"/>
      <use xlink:href="#DejaVuSans-69" x="1224.871094"/>
      <use xlink:href="#DejaVuSans-6f" x="1252.654297"/>
      <use xlink:href="#DejaVuSans-6e" x="1313.835938"/>
      <use xlink:href="#DejaVuSans-29" x="1377.214844"/>
     </g>
    </g>
   </g>
   <g id="matplotlib.axis_2">
    <g id="ytick_1">
     <g id="line2d_21">
      <path d="M 57.6 298.944 
L 360.8064 298.944 
" clip-path="url(#pa22c609c53)" style="fill: none; stroke: #b0b0b0; stroke-width: 0.8; stroke-linecap: square"/>
     </g>
     <g id="line2d_22">
      <defs>
       <path id="m0cf68ec624" d="M 0 0 
L -3.5 0 
" style="stroke: #000000; stroke-width: 0.8"/>
      </defs>
      <g>
       <use xlink:href="#m0cf68ec624" x="57.6" y="298.944" style="stroke: #000000; stroke-width: 0.8"/>
      </g>
     </g>
     <g id="text_6">
      <!-- 0.0 -->
      <g transform="translate(25.155 305.02275) scale(0.16 -0.16)">
       <defs>
        <path id="DejaVuSans-2e" d="M 684 794 
L 1344 794 
L 1344 0 
L 684 0 
L 684 794 
z
" transform="scale(0.015625)"/>
       </defs>
       <use xlink:href="#DejaVuSans-30"/>
       <use xlink:href="#DejaVuSans-2e" x="63.623047"/>
       <use xlink:href="#DejaVuSans-30" x="95.410156"/>
      </g>
     </g>
    </g>
    <g id="ytick_2">
     <g id="line2d_23">
      <path d="M 57.6 244.6848 
L 360.8064 244.6848 
" clip-path="url(#pa22c609c53)" style="fill: none; stroke: #b0b0b0; stroke-width: 0.8; stroke-linecap: square"/>
     </g>
     <g id="line2d_24">
      <g>
       <use xlink:href="#m0cf68ec624" x="57.6" y="244.6848" style="stroke: #000000; stroke-width: 0.8"/>
      </g>
     </g>
     <g id="text_7">
      <!-- 0.2 -->
      <g transform="translate(25.155 250.76355) scale(0.16 -0.16)">
       <use xlink:href="#DejaVuSans-30"/>
       <use xlink:href="#DejaVuSans-2e" x="63.623047"/>
       <use xlink:href="#DejaVuSans-32" x="95.410156"/>
      </g>
     </g>
    </g>
    <g id="ytick_3">
     <g id="line2d_25">
      <path d="M 57.6 190.4256 
L 360.8064 190.4256 
" clip-path="url(#pa22c609c53)" style="fill: none; stroke: #b0b0b0; stroke-width: 0.8; stroke-linecap: square"/>
     </g>
     <g id="line2d_26">
      <g>
       <use xlink:href="#m0cf68ec624" x="57.6" y="190.4256" style="stroke: #000000; stroke-width: 0.8"/>
      </g>
     </g>
     <g id="text_8">
      <!-- 0.4 -->
      <g transform="translate(25.155 196.50435) scale(0.16 -0.16)">
       <use xlink:href="#DejaVuSans-30"/>
       <use xlink:href="#DejaVuSans-2e" x="63.623047"/>
       <use xlink:href="#DejaVuSans-34" x="95.410156"/>
      </g>
     </g>
    </g>
    <g id="ytick_4">
     <g id="line2d_27">
      <path d="M 57.6 136.1664 
L 360.8064 136.1664 
" clip-path="url(#pa22c609c53)" style="fill: none; stroke: #b0b0b0; stroke-width: 0.8; stroke-linecap: square"/>
     </g>
     <g id="line2d_28">
      <g>
       <use xlink:href="#m0cf68ec624" x="57.6" y="136.1664" style="stroke: #000000; stroke-width: 0.8"/>
      </g>
     </g>
     <g id="text_9">
      <!-- 0.6 -->
      <g transform="translate(25.155 142.24515) scale(0.16 -0.16)">
       <use xlink:href="#DejaVuSans-30"/>
       <use xlink:href="#DejaVuSans-2e" x="63.623047"/>
       <use xlink:href="#DejaVuSans-36" x="95.410156"/>
      </g>
     </g>
    </g>
    <g id="ytick_5">
     <g id="line2d_29">
      <path d="M 57.6 81.9072 
L 360.8064 81.9072 
" clip-path="url(#pa22c609c53)" style="fill: none; stroke: #b0b0b0; stroke-width: 0.8; stroke-linecap: square"/>
     </g>
     <g id="line2d_30">
      <g>
       <use xlink:href="#m0cf68ec624" x="57.6" y="81.9072" style="stroke: #000000; stroke-width: 0.8"/>
      </g>
     </g>
     <g id="text_10">
      <!-- 0.8 -->
      <g transform="translate(25.155 87.98595) scale(0.16 -0.16)">
       <defs>
        <path id="DejaVuSans-38" d="M 2034 2216 
Q 1584 2216 1326 1975 
Q 1069 1734 1069 1313 
Q 1069 891 1326 650 
Q 1584 409 2034 409 
Q 2484 409 2743 651 
Q 3003 894 3003 1313 
Q 3003 1734 2745 1975 
Q 2488 2216 2034 2216 
z
M 1403 2484 
Q 997 2584 770 2862 
Q 544 3141 544 3541 
Q 544 4100 942 4425 
Q 1341 4750 2034 4750 
Q 2731 4750 3128 4425 
Q 3525 4100 3525 3541 
Q 3525 3141 3298 2862 
Q 3072 2584 2669 2484 
Q 3125 2378 3379 2068 
Q 3634 1759 3634 1313 
Q 3634 634 3220 271 
Q 2806 -91 2034 -91 
Q 1263 -91 848 271 
Q 434 634 434 1313 
Q 434 1759 690 2068 
Q 947 2378 1403 2484 
z
M 1172 3481 
Q 1172 3119 1398 2916 
Q 1625 2713 2034 2713 
Q 2441 2713 2670 2916 
Q 2900 3119 2900 3481 
Q 2900 3844 2670 4047 
Q 2441 4250 2034 4250 
Q 1625 4250 1398 4047 
Q 1172 3844 1172 3481 
z
" transform="scale(0.015625)"/>
       </defs>
       <use xlink:href="#DejaVuSans-30"/>
       <use xlink:href="#DejaVuSans-2e" x="63.623047"/>
       <use xlink:href="#DejaVuSans-38" x="95.410156"/>
      </g>
     </g>
    </g>
    <g id="ytick_6">
     <g id="line2d_31">
      <path d="M 57.6 27.648 
L 360.8064 27.648 
" clip-path="url(#pa22c609c53)" style="fill: none; stroke: #b0b0b0; stroke-width: 0.8; stroke-linecap: square"/>
     </g>
     <g id="line2d_32">
      <g>
       <use xlink:href="#m0cf68ec624" x="57.6" y="27.648" style="stroke: #000000; stroke-width: 0.8"/>
      </g>
     </g>
     <g id="text_11">
      <!-- 1.0 -->
      <g transform="translate(25.155 33.72675) scale(0.16 -0.16)">
       <use xlink:href="#DejaVuSans-31"/>
       <use xlink:href="#DejaVuSans-2e" x="63.623047"/>
       <use xlink:href="#DejaVuSans-30" x="95.410156"/>
      </g>
     </g>
    </g>
    <g id="text_12">
     <!-- Fraction of function,target pairs -->
     <g transform="translate(17.619531 297.681) rotate(-90) scale(0.17 -0.17)">
      <defs>
       <path id="DejaVuSans-46" d="M 628 4666 
L 3309 4666 
L 3309 4134 
L 1259 4134 
L 1259 2759 
L 3109 2759 
L 3109 2228 
L 1259 2228 
L 1259 0 
L 628 0 
L 628 4666 
z
" transform="scale(0.015625)"/>
       <path id="DejaVuSans-72" d="M 2631 2963 
Q 2534 3019 2420 3045 
Q 2306 3072 2169 3072 
Q 1681 3072 1420 2755 
Q 1159 2438 1159 1844 
L 1159 0 
L 581 0 
L 581 3500 
L 1159 3500 
L 1159 2956 
Q 1341 3275 1631 3429 
Q 1922 3584 2338 3584 
Q 2397 3584 2469 3576 
Q 2541 3569 2628 3553 
L 2631 2963 
z
" transform="scale(0.015625)"/>
       <path id="DejaVuSans-63" d="M 3122 3366 
L 3122 2828 
Q 2878 2963 2633 3030 
Q 2388 3097 2138 3097 
Q 1578 3097 1268 2742 
Q 959 2388 959 1747 
Q 959 1106 1268 751 
Q 1578 397 2138 397 
Q 2388 397 2633 464 
Q 2878 531 3122 666 
L 3122 134 
Q 2881 22 2623 -34 
Q 2366 -91 2075 -91 
Q 1284 -91 818 406 
Q 353 903 353 1747 
Q 353 2603 823 3093 
Q 1294 3584 2113 3584 
Q 2378 3584 2631 3529 
Q 2884 3475 3122 3366 
z
" transform="scale(0.015625)"/>
       <path id="DejaVuSans-74" d="M 1172 4494 
L 1172 3500 
L 2356 3500 
L 2356 3053 
L 1172 3053 
L 1172 1153 
Q 1172 725 1289 603 
Q 1406 481 1766 481 
L 2356 481 
L 2356 0 
L 1766 0 
Q 1100 0 847 248 
Q 594 497 594 1153 
L 594 3053 
L 172 3053 
L 172 3500 
L 594 3500 
L 594 4494 
L 1172 4494 
z
" transform="scale(0.015625)"/>
       <path id="DejaVuSans-75" d="M 544 1381 
L 544 3500 
L 1119 3500 
L 1119 1403 
Q 1119 906 1312 657 
Q 1506 409 1894 409 
Q 2359 409 2629 706 
Q 2900 1003 2900 1516 
L 2900 3500 
L 3475 3500 
L 3475 0 
L 2900 0 
L 2900 538 
Q 2691 219 2414 64 
Q 2138 -91 1772 -91 
Q 1169 -91 856 284 
Q 544 659 544 1381 
z
M 1991 3584 
L 1991 3584 
z
" transform="scale(0.015625)"/>
       <path id="DejaVuSans-2c" d="M 750 794 
L 1409 794 
L 1409 256 
L 897 -744 
L 494 -744 
L 750 256 
L 750 794 
z
" transform="scale(0.015625)"/>
       <path id="DejaVuSans-70" d="M 1159 525 
L 1159 -1331 
L 581 -1331 
L 581 3500 
L 1159 3500 
L 1159 2969 
Q 1341 3281 1617 3432 
Q 1894 3584 2278 3584 
Q 2916 3584 3314 3078 
Q 3713 2572 3713 1747 
Q 3713 922 3314 415 
Q 2916 -91 2278 -91 
Q 1894 -91 1617 61 
Q 1341 213 1159 525 
z
M 3116 1747 
Q 3116 2381 2855 2742 
Q 2594 3103 2138 3103 
Q 1681 3103 1420 2742 
Q 1159 2381 1159 1747 
Q 1159 1113 1420 752 
Q 1681 391 2138 391 
Q 2594 391 2855 752 
Q 3116 1113 3116 1747 
z
" transform="scale(0.015625)"/>
      </defs>
      <use xlink:href="#DejaVuSans-46"/>
      <use xlink:href="#DejaVuSans-72" x="50.269531"/>
      <use xlink:href="#DejaVuSans-61" x="91.382812"/>
      <use xlink:href="#DejaVuSans-63" x="152.662109"/>
      <use xlink:href="#DejaVuSans-74" x="207.642578"/>
      <use xlink:href="#DejaVuSans-69" x="246.851562"/>
      <use xlink:href="#DejaVuSans-6f" x="274.634766"/>
      <use xlink:href="#DejaVuSans-6e" x="335.816406"/>
      <use xlink:href="#DejaVuSans-20" x="399.195312"/>
      <use xlink:href="#DejaVuSans-6f" x="430.982422"/>
      <use xlink:href="#DejaVuSans-66" x="492.164062"/>
      <use xlink:href="#DejaVuSans-20" x="527.369141"/>
      <use xlink:href="#DejaVuSans-66" x="559.15625"/>
      <use xlink:href="#DejaVuSans-75" x="594.361328"/>
      <use xlink:href="#DejaVuSans-6e" x="657.740234"/>
      <use xlink:href="#DejaVuSans-63" x="721.119141"/>
      <use xlink:href="#DejaVuSans-74" x="776.099609"/>
      <use xlink:href="#DejaVuSans-69" x="815.308594"/>
      <use xlink:href="#DejaVuSans-6f" x="843.091797"/>
      <use xlink:href="#DejaVuSans-6e" x="904.273438"/>
      <use xlink:href="#DejaVuSans-2c" x="967.652344"/>
      <use xlink:href="#DejaVuSans-74" x="999.439453"/>
      <use xlink:href="#DejaVuSans-61" x="1038.648438"/>
      <use xlink:href="#DejaVuSans-72" x="1099.927734"/>
      <use xlink:href="#DejaVuSans-67" x="1139.291016"/>
      <use xlink:href="#DejaVuSans-65" x="1202.767578"/>
      <use xlink:href="#DejaVuSans-74" x="1264.291016"/>
      <use xlink:href="#DejaVuSans-20" x="1303.5"/>
      <use xlink:href="#DejaVuSans-70" x="1335.287109"/>
      <use xlink:href="#DejaVuSans-61" x="1398.763672"/>
      <use xlink:href="#DejaVuSans-69" x="1460.042969"/>
      <use xlink:href="#DejaVuSans-72" x="1487.826172"/>
      <use xlink:href="#DejaVuSans-73" x="1528.939453"/>
     </g>
    </g>
   </g>
   <g id="line2d_33">
    <defs>
     <path id="m6db903402f" d="M 0 1.5 
C 0.397805 1.5 0.77937 1.341951 1.06066 1.06066 
C 1.341951 0.77937 1.5 0.397805 1.5 0 
C 1.5 -0.397805 1.341951 -0.77937 1.06066 -1.06066 
C 0.77937 -1.341951 0.397805 -1.5 0 -1.5 
C -0.397805 -1.5 -0.77937 -1.341951 -1.06066 -1.06066 
C -1.341951 -0.77937 -1.5 -0.397805 -1.5 0 
C -1.5 0.397805 -1.341951 0.77937 -1.06066 1.06066 
C -0.77937 1.341951 -0.397805 1.5 0 1.5 
z
" style="stroke: #f5deb3"/>
    </defs>
    <g>
     <use xlink:href="#m6db903402f" x="313.004286" y="60.390621" style="fill: #f5deb3; stroke: #f5deb3"/>
     <use xlink:href="#m6db903402f" x="313.004286" y="60.390621" style="fill: #f5deb3; stroke: #f5deb3"/>
    </g>
   </g>
   <g id="line2d_34">
    <defs>
     <path id="mafefe5780e" d="M 0 1.5 
C 0.397805 1.5 0.77937 1.341951 1.06066 1.06066 
C 1.341951 0.77937 1.5 0.397805 1.5 0 
C 1.5 -0.397805 1.341951 -0.77937 1.06066 -1.06066 
C 0.77937 -1.341951 0.397805 -1.5 0 -1.5 
C -0.397805 -1.5 -0.77937 -1.341951 -1.06066 -1.06066 
C -1.341951 -0.77937 -1.5 -0.397805 -1.5 0 
C -1.5 0.397805 -1.341951 0.77937 -1.06066 1.06066 
C -0.77937 1.341951 -0.397805 1.5 0 1.5 
z
" style="stroke: #000080"/>
    </defs>
    <g>
     <use xlink:href="#mafefe5780e" x="221.83176" y="218.490703" style="fill: #000080; stroke: #000080"/>
     <use xlink:href="#mafefe5780e" x="221.83176" y="218.490703" style="fill: #000080; stroke: #000080"/>
    </g>
   </g>
   <g id="line2d_35">
    <path d="M 36.933397 298.944 
L 36.933397 292.395476 
L 49.972572 292.395476 
L 49.972572 290.992221 
L 67.209423 290.992221 
L 67.209423 290.524469 
L 70.639174 290.524469 
L 70.639174 290.056717 
L 78.266603 290.056717 
L 78.266603 289.588966 
L 85.184077 289.588966 
L 85.184077 289.121214 
L 86.578163 289.121214 
L 86.578163 288.18571 
L 90.230539 288.18571 
L 90.230539 287.717959 
L 91.305777 287.717959 
L 91.305777 287.250207 
L 92.322865 287.250207 
L 92.322865 286.782455 
L 107.244765 286.782455 
L 107.244765 286.314703 
L 115.460102 286.314703 
L 115.460102 285.846952 
L 118.64712 285.846952 
L 118.64712 285.3792 
L 118.889854 285.3792 
L 118.889854 284.911448 
L 119.366121 284.911448 
L 119.366121 284.443697 
L 120.28394 284.443697 
L 120.28394 283.508193 
L 121.371615 283.508193 
L 121.371615 283.040441 
L 123.750979 283.040441 
L 123.750979 282.57269 
L 125.184934 282.57269 
L 125.184934 282.104938 
L 126.192937 282.104938 
L 126.192937 281.169434 
L 129.348062 281.169434 
L 129.348062 280.701683 
L 136.88305 280.701683 
L 136.88305 280.233931 
L 139.636676 280.233931 
L 139.636676 279.298428 
L 141.173167 279.298428 
L 141.173167 278.830676 
L 141.393187 278.830676 
L 141.393187 278.362924 
L 142.999601 278.362924 
L 142.999601 277.895172 
L 145.326529 277.895172 
L 145.385592 276.959669 
L 145.966241 276.959669 
L 145.966241 276.491917 
L 146.306218 276.491917 
L 146.306218 276.024166 
L 146.968277 276.024166 
L 147.022411 275.088662 
L 148.32748 275.088662 
L 148.32748 274.62091 
L 148.528138 274.62091 
L 148.57797 273.685407 
L 149.31003 273.685407 
L 149.31003 273.217655 
L 150.604701 273.217655 
L 150.604701 272.749903 
L 152.312136 272.749903 
L 152.312136 272.282152 
L 155.147716 272.282152 
L 155.147716 271.8144 
L 155.666927 271.8144 
L 155.666927 271.346648 
L 155.870664 271.346648 
L 155.938089 270.411145 
L 156.038776 270.411145 
L 156.038776 269.475641 
L 156.664239 269.475641 
L 156.664239 268.540138 
L 156.88953 268.540138 
L 156.88953 268.072386 
L 157.394569 268.072386 
L 157.394569 267.604634 
L 157.946987 267.604634 
L 157.946987 267.136883 
L 158.513014 267.136883 
L 158.513014 266.669131 
L 159.119425 266.669131 
L 159.119425 265.733628 
L 160.034538 265.733628 
L 160.061585 264.798124 
L 165.41242 264.798124 
L 165.41242 263.862621 
L 166.325396 263.862621 
L 166.325396 262.459366 
L 167.507957 262.459366 
L 167.507957 261.991614 
L 169.211366 261.991614 
L 169.211366 261.523862 
L 170.008516 261.523862 
L 170.008516 260.120607 
L 170.971033 260.120607 
L 170.971033 259.652855 
L 171.15177 259.652855 
L 171.15177 259.185103 
L 172.03029 259.185103 
L 172.03029 257.781848 
L 172.677089 257.781848 
L 172.677089 257.314097 
L 174.903518 257.314097 
L 174.903518 256.846345 
L 175.135386 256.846345 
L 175.195931 255.44309 
L 175.32845 255.44309 
L 175.32845 254.507586 
L 177.113741 254.507586 
L 177.113741 254.039834 
L 178.133703 254.039834 
L 178.133703 253.572083 
L 178.277932 253.572083 
L 178.277932 253.104331 
L 179.042162 253.104331 
L 179.042162 252.636579 
L 180.93427 252.636579 
L 180.93427 252.168828 
L 181.33106 252.168828 
L 181.339783 250.765572 
L 182.645203 250.765572 
L 182.645203 250.297821 
L 183.519577 250.297821 
L 183.519577 249.830069 
L 183.635722 249.830069 
L 183.635722 248.894566 
L 183.979915 248.894566 
L 183.979915 248.426814 
L 185.083765 248.426814 
L 185.083765 247.49131 
L 185.833384 247.49131 
L 185.833384 247.023559 
L 186.234295 247.023559 
L 186.234295 246.555807 
L 186.49469 246.555807 
L 186.49469 246.088055 
L 186.666305 246.088055 
L 186.666305 245.620303 
L 187.017812 245.620303 
L 187.017812 245.152552 
L 187.343866 245.152552 
L 187.343866 244.6848 
L 188.168495 244.6848 
L 188.168495 243.749297 
L 189.822494 243.749297 
L 189.822494 243.281545 
L 191.048366 243.281545 
L 191.048366 242.813793 
L 191.942871 242.813793 
L 191.942871 241.87829 
L 192.820466 241.87829 
L 192.820466 241.410538 
L 195.557837 241.410538 
L 195.557837 240.475034 
L 195.878647 240.475034 
L 195.878647 239.539531 
L 196.07093 239.539531 
L 196.158407 238.136276 
L 196.332151 238.136276 
L 196.422337 236.733021 
L 197.714722 236.733021 
L 197.714722 236.265269 
L 198.201395 236.265269 
L 198.201395 235.329766 
L 199.859258 235.329766 
L 199.859258 234.862014 
L 201.241004 234.862014 
L 201.241004 233.92651 
L 202.528166 233.92651 
L 202.528166 232.991007 
L 203.575737 232.991007 
L 203.575737 232.523255 
L 204.281729 232.523255 
L 204.29203 230.652248 
L 204.453525 230.652248 
L 204.555347 228.781241 
L 207.729503 228.781241 
L 207.729503 227.845738 
L 208.921847 227.845738 
L 208.966076 225.974731 
L 210.444598 225.974731 
L 210.444598 225.039228 
L 211.077945 225.039228 
L 211.077945 224.103724 
L 211.83086 224.103724 
L 211.83086 223.635972 
L 213.398432 223.635972 
L 213.398432 222.700469 
L 213.684987 222.700469 
L 213.684987 221.764966 
L 214.749632 221.764966 
L 214.780615 220.36171 
L 216.147831 220.36171 
L 216.147831 219.426207 
L 221.83176 219.426207 
L 221.83176 218.490703 
L 360.8064 218.490703 
L 360.8064 218.490703 
" style="fill: none; stroke: #000080; stroke-width: 1.5; stroke-linecap: square"/>
   </g>
   <g id="line2d_36">
    <defs>
     <path id="mb5124132c0" d="M 0 6 
C 1.591219 6 3.117479 5.367802 4.242641 4.242641 
C 5.367802 3.117479 6 1.591219 6 0 
C 6 -1.591219 5.367802 -3.117479 4.242641 -4.242641 
C 3.117479 -5.367802 1.591219 -6 0 -6 
C -1.591219 -6 -3.117479 -5.367802 -4.242641 -4.242641 
C -5.367802 -3.117479 -6 -1.591219 -6 0 
C -6 1.591219 -5.367802 3.117479 -4.242641 4.242641 
C -3.117479 5.367802 -1.591219 6 0 6 
z
" style="stroke: #000080; stroke-width: 1.5"/>
    </defs>
    <g>
     <use xlink:href="#mb5124132c0" x="70.639174" y="290.056717" style="fill-opacity: 0; stroke: #000080; stroke-width: 1.5"/>
     <use xlink:href="#mb5124132c0" x="156.038776" y="269.475641" style="fill-opacity: 0; stroke: #000080; stroke-width: 1.5"/>
     <use xlink:href="#mb5124132c0" x="204.555347" y="229.716745" style="fill-opacity: 0; stroke: #000080; stroke-width: 1.5"/>
     <use xlink:href="#mb5124132c0" x="221.83176" y="219.426207" style="fill-opacity: 0; stroke: #000080; stroke-width: 1.5"/>
     <use xlink:href="#mb5124132c0" x="221.83176" y="218.490703" style="fill-opacity: 0; stroke: #000080; stroke-width: 1.5"/>
     <use xlink:href="#mb5124132c0" x="360.8064" y="218.490703" style="fill-opacity: 0; stroke: #000080; stroke-width: 1.5"/>
    </g>
   </g>
   <g id="line2d_37">
    <path style="fill: none; stroke: #000080; stroke-width: 1.5; stroke-linecap: square"/>
    <g/>
   </g>
   <g id="line2d_38">
    <path d="M 230.867069 218.490703 
" clip-path="url(#pa22c609c53)" style="fill: none; stroke: #000080; stroke-width: 1.5; stroke-linecap: square"/>
    <defs>
     <path id="m5ef8e7692f" d="M -12 12 
L 12 -12 
M -12 -12 
L 12 12 
" style="stroke: #000080"/>
    </defs>
    <g clip-path="url(#pa22c609c53)">
     <use xlink:href="#m5ef8e7692f" x="230.867069" y="218.490703" style="fill: #000080; stroke: #000080"/>
    </g>
   </g>
   <g id="line2d_39">
    <defs>
     <path id="m173fed86cb" d="M 0 1.5 
C 0.397805 1.5 0.77937 1.341951 1.06066 1.06066 
C 1.341951 0.77937 1.5 0.397805 1.5 0 
C 1.5 -0.397805 1.341951 -0.77937 1.06066 -1.06066 
C 0.77937 -1.341951 0.397805 -1.5 0 -1.5 
C -0.397805 -1.5 -0.77937 -1.341951 -1.06066 -1.06066 
C -1.341951 -0.77937 -1.5 -0.397805 -1.5 0 
C -1.5 0.397805 -1.341951 0.77937 -1.06066 1.06066 
C -0.77937 1.341951 -0.397805 1.5 0 1.5 
z
" style="stroke: #ff00ff"/>
    </defs>
    <g>
     <use xlink:href="#m173fed86cb" x="212.731509" y="221.297214" style="fill: #ff00ff; stroke: #ff00ff"/>
     <use xlink:href="#m173fed86cb" x="212.731509" y="221.297214" style="fill: #ff00ff; stroke: #ff00ff"/>
    </g>
   </g>
   <g id="line2d_40">
    <path d="M 36.933397 298.944 
L 36.933397 292.395476 
L 57.6 292.395476 
L 57.6 290.524469 
L 63.011746 290.524469 
L 63.011746 288.653462 
L 67.209423 288.653462 
L 67.209423 288.18571 
L 73.538988 288.18571 
L 73.538988 287.250207 
L 89.090095 287.250207 
L 89.090095 285.3792 
L 92.322865 285.3792 
L 92.322865 284.911448 
L 95.916911 284.911448 
L 95.916911 284.443697 
L 102.12927 284.443697 
L 102.12927 283.975945 
L 104.344952 283.975945 
L 104.344952 283.508193 
L 109.360651 283.508193 
L 109.360651 283.040441 
L 110.144579 283.040441 
L 110.144579 282.57269 
L 110.897141 282.57269 
L 110.897141 282.104938 
L 113.954374 282.104938 
L 113.954374 281.637186 
L 114.872193 281.637186 
L 114.872193 281.169434 
L 115.747307 281.169434 
L 115.747307 280.701683 
L 116.030193 280.701683 
L 116.030193 280.233931 
L 117.899543 280.233931 
L 117.899543 279.766179 
L 121.371615 279.766179 
L 121.371615 279.298428 
L 122.19863 279.298428 
L 122.19863 278.362924 
L 125.184934 278.362924 
L 125.184934 277.427421 
L 125.35673 277.427421 
L 125.35673 276.959669 
L 127.458055 276.959669 
L 127.458055 276.491917 
L 129.622688 276.491917 
L 129.622688 275.556414 
L 129.758512 275.556414 
L 129.758512 275.088662 
L 131.31622 275.088662 
L 131.31622 274.153159 
L 131.808053 274.153159 
L 131.808053 273.685407 
L 133.097823 273.685407 
L 133.097823 273.217655 
L 133.983236 273.217655 
L 133.983236 272.749903 
L 135.638065 272.749903 
L 135.638065 272.282152 
L 136.126705 272.282152 
L 136.126705 271.8144 
L 138.395904 271.8144 
L 138.395904 271.346648 
L 138.73486 271.346648 
L 138.73486 270.878897 
L 140.343665 270.878897 
L 140.343665 270.411145 
L 140.49723 270.411145 
L 140.49723 269.943393 
L 142.317949 269.943393 
L 142.317949 269.475641 
L 142.729897 269.475641 
L 142.729897 269.00789 
L 146.584913 269.00789 
L 146.64016 267.136883 
L 148.124658 267.136883 
L 148.124658 266.201379 
L 150.559965 266.201379 
L 150.559965 265.733628 
L 151.133398 265.733628 
L 151.133398 264.798124 
L 152.393571 264.798124 
L 152.393571 264.330372 
L 152.993353 264.330372 
L 152.993353 263.394869 
L 153.305585 263.394869 
L 153.305585 262.459366 
L 153.49813 262.459366 
L 153.49813 261.991614 
L 156.005274 261.991614 
L 156.005274 261.523862 
L 157.672805 261.523862 
L 157.672805 261.05611 
L 157.886402 261.05611 
L 157.886402 260.588359 
L 158.0976 260.588359 
L 158.0976 260.120607 
L 158.276759 260.120607 
L 158.276759 259.652855 
L 158.513014 259.652855 
L 158.513014 259.185103 
L 160.329943 259.185103 
L 160.329943 258.717352 
L 160.777545 258.717352 
L 160.777545 258.2496 
L 162.444694 258.2496 
L 162.444694 257.314097 
L 162.681321 257.314097 
L 162.751732 255.44309 
L 164.980424 255.44309 
L 164.980424 254.975338 
L 165.914091 254.975338 
L 165.914091 254.039834 
L 166.613775 254.039834 
L 166.613775 253.572083 
L 166.784704 253.572083 
L 166.784704 253.104331 
L 169.638546 253.104331 
L 169.638546 252.636579 
L 170.024438 252.636579 
L 170.024438 251.701076 
L 170.214455 251.701076 
L 170.214455 251.233324 
L 171.581513 251.233324 
L 171.581513 250.765572 
L 171.901099 250.765572 
L 171.901099 250.297821 
L 172.496541 250.297821 
L 172.496541 249.830069 
L 173.541519 249.830069 
L 173.6337 248.894566 
L 174.266624 248.894566 
L 174.266624 248.426814 
L 176.68305 248.426814 
L 176.68305 247.959062 
L 177.287622 247.959062 
L 177.287622 247.49131 
L 177.630634 247.49131 
L 177.630634 247.023559 
L 179.776554 247.023559 
L 179.776554 246.555807 
L 180.318334 246.555807 
L 180.318334 246.088055 
L 181.138119 246.088055 
L 181.138119 245.152552 
L 181.591012 245.152552 
L 181.591012 244.217048 
L 182.489971 244.217048 
L 182.489971 243.281545 
L 184.235859 243.281545 
L 184.235859 242.813793 
L 185.204877 242.813793 
L 185.204877 242.346041 
L 186.966149 242.346041 
L 186.966149 241.87829 
L 187.514221 241.87829 
L 187.514221 240.942786 
L 188.517089 240.942786 
L 188.517089 240.475034 
L 191.404138 240.475034 
L 191.404138 240.007283 
L 192.056685 240.007283 
L 192.056685 239.071779 
L 192.194319 239.071779 
L 192.194319 238.136276 
L 193.722261 238.136276 
L 193.722261 237.668524 
L 194.805776 237.668524 
L 194.805776 237.200772 
L 195.059819 237.200772 
L 195.059819 236.733021 
L 196.2731 236.733021 
L 196.2731 235.797517 
L 198.550453 235.797517 
L 198.627149 233.92651 
L 198.720851 233.92651 
L 198.738153 232.055503 
L 201.454757 232.055503 
L 201.454757 231.12 
L 202.038336 231.12 
L 202.038336 230.652248 
L 202.530993 230.652248 
L 202.530993 230.184497 
L 204.792481 230.184497 
L 204.792481 229.248993 
L 205.011802 229.248993 
L 205.011802 228.31349 
L 206.829047 228.31349 
L 206.829047 227.377986 
L 207.900285 227.377986 
L 207.90241 225.506979 
L 208.440728 225.506979 
L 208.440728 224.571476 
L 209.25897 224.571476 
L 209.25897 223.635972 
L 211.006015 223.635972 
L 211.011419 222.232717 
L 212.731509 222.232717 
L 212.731509 221.297214 
L 360.8064 221.297214 
L 360.8064 221.297214 
" style="fill: none; stroke: #ff00ff; stroke-width: 1.5; stroke-linecap: square"/>
   </g>
   <g id="line2d_41">
    <defs>
     <path id="m696e9ac4d6" d="M -0 8.485281 
L 5.091169 0 
L 0 -8.485281 
L -5.091169 -0 
z
" style="stroke: #ff00ff; stroke-width: 1.5; stroke-linejoin: miter"/>
    </defs>
    <g>
     <use xlink:href="#m696e9ac4d6" x="146.64016" y="268.540138" style="fill-opacity: 0; stroke: #ff00ff; stroke-width: 1.5; stroke-linejoin: miter"/>
     <use xlink:href="#m696e9ac4d6" x="196.2731" y="236.733021" style="fill-opacity: 0; stroke: #ff00ff; stroke-width: 1.5; stroke-linejoin: miter"/>
     <use xlink:href="#m696e9ac4d6" x="212.731509" y="222.232717" style="fill-opacity: 0; stroke: #ff00ff; stroke-width: 1.5; stroke-linejoin: miter"/>
     <use xlink:href="#m696e9ac4d6" x="212.731509" y="221.297214" style="fill-opacity: 0; stroke: #ff00ff; stroke-width: 1.5; stroke-linejoin: miter"/>
     <use xlink:href="#m696e9ac4d6" x="212.731509" y="221.297214" style="fill-opacity: 0; stroke: #ff00ff; stroke-width: 1.5; stroke-linejoin: miter"/>
     <use xlink:href="#m696e9ac4d6" x="360.8064" y="221.297214" style="fill-opacity: 0; stroke: #ff00ff; stroke-width: 1.5; stroke-linejoin: miter"/>
    </g>
   </g>
   <g id="line2d_42">
    <path style="fill: none; stroke: #ff00ff; stroke-width: 1.5; stroke-linecap: square"/>
    <g/>
   </g>
   <g id="line2d_43">
    <path d="M 230.867696 221.297214 
" clip-path="url(#pa22c609c53)" style="fill: none; stroke: #ff00ff; stroke-width: 1.5; stroke-linecap: square"/>
    <defs>
     <path id="mae31b1e5b7" d="M -12 12 
L 12 -12 
M -12 -12 
L 12 12 
" style="stroke: #ff00ff"/>
    </defs>
    <g clip-path="url(#pa22c609c53)">
     <use xlink:href="#mae31b1e5b7" x="230.867696" y="221.297214" style="fill: #ff00ff; stroke: #ff00ff"/>
    </g>
   </g>
   <g id="line2d_44">
    <defs>
     <path id="m6a549308f1" d="M 0 1.5 
C 0.397805 1.5 0.77937 1.341951 1.06066 1.06066 
C 1.341951 0.77937 1.5 0.397805 1.5 0 
C 1.5 -0.397805 1.341951 -0.77937 1.06066 -1.06066 
C 0.77937 -1.341951 0.397805 -1.5 0 -1.5 
C -0.397805 -1.5 -0.77937 -1.341951 -1.06066 -1.06066 
C -1.341951 -0.77937 -1.5 -0.397805 -1.5 0 
C -1.5 0.397805 -1.341951 0.77937 -1.06066 1.06066 
C -0.77937 1.341951 -0.397805 1.5 0 1.5 
z
" style="stroke: #ff7500"/>
    </defs>
    <g>
     <use xlink:href="#m6a549308f1" x="222.319879" y="229.248993" style="fill: #ff7500; stroke: #ff7500"/>
     <use xlink:href="#m6a549308f1" x="222.319879" y="229.248993" style="fill: #ff7500; stroke: #ff7500"/>
    </g>
   </g>
   <g id="line2d_45">
    <path d="M 36.933397 298.944 
L 36.933397 292.395476 
L 49.972572 292.395476 
L 49.972572 290.992221 
L 102.12927 290.992221 
L 102.12927 289.588966 
L 114.571202 289.588966 
L 114.571202 287.250207 
L 121.99526 287.250207 
L 121.99526 285.3792 
L 127.304491 285.3792 
L 127.304491 283.975945 
L 131.440389 283.975945 
L 131.440389 283.508193 
L 142.387236 283.508193 
L 142.387236 282.104938 
L 144.355394 282.104938 
L 144.355394 281.169434 
L 146.136998 281.169434 
L 146.136998 280.233931 
L 147.764371 280.233931 
L 147.764371 279.766179 
L 149.262102 279.766179 
L 149.262102 277.427421 
L 153.150116 277.427421 
L 153.150116 276.491917 
L 157.332175 276.491917 
L 157.332175 275.556414 
L 159.953161 275.556414 
L 159.953161 275.088662 
L 161.517348 275.088662 
L 161.517348 274.62091 
L 162.961399 274.62091 
L 162.961399 274.153159 
L 165.554242 274.153159 
L 165.554242 272.282152 
L 166.7279 272.282152 
L 166.7279 271.346648 
L 169.864611 271.346648 
L 169.864611 270.411145 
L 171.256404 270.411145 
L 171.256404 269.00789 
L 171.698355 269.00789 
L 171.698355 268.540138 
L 172.130162 268.540138 
L 172.130162 268.072386 
L 173.369117 268.072386 
L 173.369117 265.733628 
L 176.660695 265.733628 
L 176.660695 265.265876 
L 177.641253 265.265876 
L 177.641253 264.330372 
L 178.267667 264.330372 
L 178.267667 263.862621 
L 180.309124 263.862621 
L 180.309124 263.394869 
L 181.383339 263.394869 
L 181.383339 262.927117 
L 182.399511 262.927117 
L 182.399511 262.459366 
L 184.055555 262.459366 
L 184.055555 261.991614 
L 186.790734 261.991614 
L 186.790734 261.523862 
L 187.178348 261.523862 
L 187.178348 260.588359 
L 189.004965 260.588359 
L 189.004965 259.652855 
L 191.141827 259.652855 
L 191.141827 258.717352 
L 191.60229 258.717352 
L 191.60229 258.2496 
L 192.6348 258.2496 
L 192.6348 257.781848 
L 193.200321 257.781848 
L 193.200321 257.314097 
L 194.928992 257.314097 
L 194.928992 255.910841 
L 198.080007 255.910841 
L 198.187155 254.507586 
L 198.504984 254.507586 
L 198.609746 253.104331 
L 198.713926 253.104331 
L 198.713926 252.636579 
L 199.82338 252.636579 
L 199.82338 251.233324 
L 200.402045 251.233324 
L 200.402045 250.765572 
L 201.597902 250.765572 
L 201.597902 250.297821 
L 201.951071 250.297821 
L 201.951071 249.830069 
L 202.125199 249.830069 
L 202.125199 249.362317 
L 202.468694 249.362317 
L 202.468694 248.894566 
L 203.300954 248.894566 
L 203.300954 246.088055 
L 204.48413 246.088055 
L 204.48413 245.620303 
L 204.71209 245.620303 
L 204.71209 244.6848 
L 205.525076 244.6848 
L 205.525076 244.217048 
L 206.165067 244.217048 
L 206.234852 243.281545 
L 206.304379 243.281545 
L 206.304379 241.87829 
L 206.442666 241.87829 
L 206.442666 241.410538 
L 207.119251 241.410538 
L 207.119251 240.475034 
L 207.772344 240.475034 
L 207.772344 240.007283 
L 208.341349 240.007283 
L 208.341349 239.539531 
L 209.894602 239.539531 
L 209.894602 238.604028 
L 210.735628 238.604028 
L 210.735628 238.136276 
L 211.801522 238.136276 
L 211.801522 237.200772 
L 212.00764 237.200772 
L 212.00764 236.733021 
L 212.363001 236.733021 
L 212.363001 235.797517 
L 214.137332 235.797517 
L 214.137332 234.862014 
L 215.204773 234.862014 
L 215.204773 233.92651 
L 215.758637 233.92651 
L 215.758637 232.991007 
L 216.459155 232.991007 
L 216.459155 232.055503 
L 217.328629 232.055503 
L 217.328629 231.587752 
L 219.445063 231.587752 
L 219.445063 230.652248 
L 219.582608 230.652248 
L 219.582608 229.716745 
L 222.319879 229.716745 
L 222.319879 229.248993 
L 360.8064 229.248993 
L 360.8064 229.248993 
" style="fill: none; stroke: #ff7500; stroke-width: 1.5; stroke-linecap: square"/>
   </g>
   <g id="line2d_46">
    <defs>
     <path id="m00219f129c" d="M 0 -6 
L -1.347084 -1.854102 
L -5.706339 -1.854102 
L -2.179628 0.708204 
L -3.526712 4.854102 
L -0 2.291796 
L 3.526712 4.854102 
L 2.179628 0.708204 
L 5.706339 -1.854102 
L 1.347084 -1.854102 
z
" style="stroke: #ff7500; stroke-width: 1.5; stroke-linejoin: bevel"/>
    </defs>
    <g>
     <use xlink:href="#m00219f129c" x="102.12927" y="290.992221" style="fill-opacity: 0; stroke: #ff7500; stroke-width: 1.5; stroke-linejoin: bevel"/>
     <use xlink:href="#m00219f129c" x="186.790734" y="261.523862" style="fill-opacity: 0; stroke: #ff7500; stroke-width: 1.5; stroke-linejoin: bevel"/>
     <use xlink:href="#m00219f129c" x="222.319879" y="229.716745" style="fill-opacity: 0; stroke: #ff7500; stroke-width: 1.5; stroke-linejoin: bevel"/>
     <use xlink:href="#m00219f129c" x="222.319879" y="229.248993" style="fill-opacity: 0; stroke: #ff7500; stroke-width: 1.5; stroke-linejoin: bevel"/>
     <use xlink:href="#m00219f129c" x="222.319879" y="229.248993" style="fill-opacity: 0; stroke: #ff7500; stroke-width: 1.5; stroke-linejoin: bevel"/>
     <use xlink:href="#m00219f129c" x="360.8064" y="229.248993" style="fill-opacity: 0; stroke: #ff7500; stroke-width: 1.5; stroke-linejoin: bevel"/>
    </g>
   </g>
   <g id="line2d_47">
    <path style="fill: none; stroke: #ff7500; stroke-width: 1.5; stroke-linecap: square"/>
    <g/>
   </g>
   <g id="line2d_48">
    <path d="M 230.861427 229.248993 
" clip-path="url(#pa22c609c53)" style="fill: none; stroke: #ff7500; stroke-width: 1.5; stroke-linecap: square"/>
    <defs>
     <path id="m5f896aea33" d="M -12 12 
L 12 -12 
M -12 -12 
L 12 12 
" style="stroke: #ff7500"/>
    </defs>
    <g clip-path="url(#pa22c609c53)">
     <use xlink:href="#m5f896aea33" x="230.861427" y="229.248993" style="fill: #ff7500; stroke: #ff7500"/>
    </g>
   </g>
   <g id="line2d_49">
    <defs>
     <path id="m9ac6e91c89" d="M 0 1.5 
C 0.397805 1.5 0.77937 1.341951 1.06066 1.06066 
C 1.341951 0.77937 1.5 0.397805 1.5 0 
C 1.5 -0.397805 1.341951 -0.77937 1.06066 -1.06066 
C 0.77937 -1.341951 0.397805 -1.5 0 -1.5 
C -0.397805 -1.5 -0.77937 -1.341951 -1.06066 -1.06066 
C -1.341951 -0.77937 -1.5 -0.397805 -1.5 0 
C -1.5 0.397805 -1.341951 0.77937 -1.06066 1.06066 
C -0.77937 1.341951 -0.397805 1.5 0 1.5 
z
" style="stroke: #6495ed"/>
    </defs>
    <g>
     <use xlink:href="#m9ac6e91c89" x="214.852709" y="228.781241" style="fill: #6495ed; stroke: #6495ed"/>
     <use xlink:href="#m9ac6e91c89" x="214.852709" y="228.781241" style="fill: #6495ed; stroke: #6495ed"/>
    </g>
   </g>
   <g id="line2d_50">
    <path d="M 36.933397 298.944 
L 36.933397 292.395476 
L 49.972572 292.395476 
L 49.972572 291.459972 
L 76.050921 291.459972 
L 76.050921 290.992221 
L 86.578163 290.992221 
L 86.578163 290.056717 
L 100.277459 290.056717 
L 100.277459 289.588966 
L 100.9152 289.588966 
L 100.9152 289.121214 
L 113.638206 289.121214 
L 113.638206 288.653462 
L 116.308887 288.653462 
L 116.308887 288.18571 
L 117.384126 288.18571 
L 117.384126 287.717959 
L 117.899543 287.717959 
L 117.899543 286.782455 
L 118.889854 286.782455 
L 118.889854 286.314703 
L 121.581803 286.314703 
L 121.581803 284.911448 
L 122.19863 284.911448 
L 122.19863 283.508193 
L 122.598891 283.508193 
L 122.598891 283.040441 
L 122.990812 283.040441 
L 122.990812 282.57269 
L 123.936316 282.57269 
L 123.936316 281.637186 
L 124.3016 281.637186 
L 124.3016 281.169434 
L 125.011554 281.169434 
L 125.011554 280.233931 
L 128.060076 280.233931 
L 128.060076 278.830676 
L 129.622688 278.830676 
L 129.622688 278.362924 
L 130.160198 278.362924 
L 130.160198 277.895172 
L 133.434756 277.895172 
L 133.434756 277.427421 
L 135.932769 277.427421 
L 136.029987 276.491917 
L 137.610157 276.491917 
L 137.610157 276.024166 
L 138.566146 276.024166 
L 138.650692 275.088662 
L 143.52768 275.088662 
L 143.52768 274.153159 
L 145.44447 274.153159 
L 145.44447 273.685407 
L 145.561676 273.685407 
L 145.561676 273.217655 
L 146.804934 273.217655 
L 146.804934 272.749903 
L 147.076389 272.749903 
L 147.076389 272.282152 
L 147.555352 272.282152 
L 147.555352 271.8144 
L 148.528138 271.8144 
L 148.528138 271.346648 
L 152.555392 271.346648 
L 152.555392 270.878897 
L 156.696589 270.878897 
L 156.696589 269.943393 
L 156.88953 269.943393 
L 156.88953 269.475641 
L 158.600851 269.475641 
L 158.600851 268.540138 
L 159.651731 268.540138 
L 159.651731 268.072386 
L 162.349204 268.072386 
L 162.349204 267.136883 
L 163.191653 267.136883 
L 163.191653 266.669131 
L 165.063478 266.669131 
L 165.063478 266.201379 
L 166.071841 266.201379 
L 166.071841 265.733628 
L 167.742992 265.733628 
L 167.742992 265.265876 
L 168.309328 265.265876 
L 168.309328 264.798124 
L 171.434432 264.798124 
L 171.434432 264.330372 
L 172.243656 264.330372 
L 172.243656 263.394869 
L 172.649425 263.394869 
L 172.690906 261.991614 
L 175.732249 261.991614 
L 175.732249 261.523862 
L 176.242267 261.523862 
L 176.242267 261.05611 
L 177.946625 261.05611 
L 177.946625 260.588359 
L 181.923667 260.588359 
L 181.923667 260.120607 
L 182.620778 260.120607 
L 182.620778 259.652855 
L 184.160942 259.652855 
L 184.160942 258.717352 
L 188.463419 258.717352 
L 188.463419 258.2496 
L 188.847643 258.2496 
L 188.847643 257.781848 
L 189.367013 257.781848 
L 189.367013 257.314097 
L 190.928264 257.314097 
L 190.928264 256.378593 
L 194.681748 256.378593 
L 194.681748 254.975338 
L 195.405683 254.975338 
L 195.405683 254.507586 
L 195.602836 254.507586 
L 195.680309 253.104331 
L 196.984953 253.104331 
L 196.984953 252.168828 
L 197.20387 252.168828 
L 197.20387 251.701076 
L 197.656199 251.701076 
L 197.656199 250.765572 
L 198.58884 250.765572 
L 198.58884 250.297821 
L 198.755438 250.297821 
L 198.820977 249.362317 
L 198.882858 249.362317 
L 198.882858 248.894566 
L 199.530549 248.894566 
L 199.530549 248.426814 
L 199.666015 248.426814 
L 199.666015 247.49131 
L 200.734668 247.49131 
L 200.734668 247.023559 
L 201.769428 247.023559 
L 201.769428 246.555807 
L 201.907285 246.555807 
L 201.907285 246.088055 
L 202.038336 246.088055 
L 202.052841 245.152552 
L 202.494205 245.152552 
L 202.494205 244.217048 
L 203.079848 244.217048 
L 203.11825 243.281545 
L 203.444234 243.281545 
L 203.444234 242.813793 
L 203.854471 242.813793 
L 203.854471 242.346041 
L 204.969632 242.346041 
L 205.006846 241.410538 
L 205.272634 241.410538 
L 205.272634 240.942786 
L 206.059903 240.942786 
L 206.069275 239.539531 
L 206.639121 239.539531 
L 206.639121 238.604028 
L 206.75692 238.604028 
L 206.75692 238.136276 
L 207.227484 238.136276 
L 207.227484 237.200772 
L 208.285217 237.200772 
L 208.285217 236.265269 
L 208.415932 236.265269 
L 208.415932 235.329766 
L 208.939953 235.329766 
L 209.034227 233.458759 
L 209.088171 233.458759 
L 209.088171 232.523255 
L 209.518146 232.523255 
L 209.518146 232.055503 
L 211.773868 232.055503 
L 211.773868 231.12 
L 212.069038 231.12 
L 212.069038 230.652248 
L 212.829879 230.652248 
L 212.829879 229.716745 
L 214.852709 229.716745 
L 214.852709 228.781241 
L 360.8064 228.781241 
L 360.8064 228.781241 
" style="fill: none; stroke: #6495ed; stroke-width: 1.5; stroke-linecap: square"/>
   </g>
   <g id="line2d_51">
    <defs>
     <path id="m420b8d866f" d="M -0 6 
L 6 -6 
L -6 -6 
z
" style="stroke: #6495ed; stroke-width: 1.5; stroke-linejoin: miter"/>
    </defs>
    <g>
     <use xlink:href="#m420b8d866f" x="122.990812" y="282.57269" style="fill-opacity: 0; stroke: #6495ed; stroke-width: 1.5; stroke-linejoin: miter"/>
     <use xlink:href="#m420b8d866f" x="184.160942" y="258.717352" style="fill-opacity: 0; stroke: #6495ed; stroke-width: 1.5; stroke-linejoin: miter"/>
     <use xlink:href="#m420b8d866f" x="214.852709" y="229.716745" style="fill-opacity: 0; stroke: #6495ed; stroke-width: 1.5; stroke-linejoin: miter"/>
     <use xlink:href="#m420b8d866f" x="214.852709" y="228.781241" style="fill-opacity: 0; stroke: #6495ed; stroke-width: 1.5; stroke-linejoin: miter"/>
     <use xlink:href="#m420b8d866f" x="214.852709" y="228.781241" style="fill-opacity: 0; stroke: #6495ed; stroke-width: 1.5; stroke-linejoin: miter"/>
     <use xlink:href="#m420b8d866f" x="360.8064" y="228.781241" style="fill-opacity: 0; stroke: #6495ed; stroke-width: 1.5; stroke-linejoin: miter"/>
    </g>
   </g>
   <g id="line2d_52">
    <path style="fill: none; stroke: #6495ed; stroke-width: 1.5; stroke-linecap: square"/>
    <g/>
   </g>
   <g id="line2d_53">
    <path d="M 230.866443 228.781241 
" clip-path="url(#pa22c609c53)" style="fill: none; stroke: #6495ed; stroke-width: 1.5; stroke-linecap: square"/>
    <defs>
     <path id="md9aea08d65" d="M -12 12 
L 12 -12 
M -12 -12 
L 12 12 
" style="stroke: #6495ed"/>
    </defs>
    <g clip-path="url(#pa22c609c53)">
     <use xlink:href="#md9aea08d65" x="230.866443" y="228.781241" style="fill: #6495ed; stroke: #6495ed"/>
    </g>
   </g>
   <g id="line2d_54">
    <defs>
     <path id="md2ee94c0af" d="M 0 1.5 
C 0.397805 1.5 0.77937 1.341951 1.06066 1.06066 
C 1.341951 0.77937 1.5 0.397805 1.5 0 
C 1.5 -0.397805 1.341951 -0.77937 1.06066 -1.06066 
C 0.77937 -1.341951 0.397805 -1.5 0 -1.5 
C -0.397805 -1.5 -0.77937 -1.341951 -1.06066 -1.06066 
C -1.341951 -0.77937 -1.5 -0.397805 -1.5 0 
C -1.5 0.397805 -1.341951 0.77937 -1.06066 1.06066 
C -0.77937 1.341951 -0.397805 1.5 0 1.5 
z
" style="stroke: #ff0000"/>
    </defs>
    <g>
     <use xlink:href="#md2ee94c0af" x="199.067286" y="225.506979" style="fill: #ff0000; stroke: #ff0000"/>
     <use xlink:href="#md2ee94c0af" x="199.067286" y="225.506979" style="fill: #ff0000; stroke: #ff0000"/>
    </g>
   </g>
   <g id="line2d_55">
    <path d="M 36.933397 298.944 
L 36.933397 292.395476 
L 49.972572 292.395476 
L 49.972572 290.992221 
L 63.011746 290.992221 
L 63.011746 290.524469 
L 67.209423 290.524469 
L 67.209423 289.588966 
L 76.050921 289.588966 
L 76.050921 289.121214 
L 78.266603 289.121214 
L 78.266603 287.717959 
L 83.678349 287.717959 
L 83.678349 285.846952 
L 101.532027 285.846952 
L 101.532027 285.3792 
L 103.815014 285.3792 
L 103.815014 284.443697 
L 107.244765 284.443697 
L 107.244765 283.975945 
L 107.68741 283.975945 
L 107.68741 283.508193 
L 108.119879 283.508193 
L 108.119879 283.040441 
L 113.316634 283.040441 
L 113.316634 282.104938 
L 113.954374 282.104938 
L 113.954374 281.637186 
L 114.872193 281.637186 
L 114.872193 281.169434 
L 116.030193 281.169434 
L 116.030193 280.701683 
L 116.854188 280.701683 
L 116.854188 279.766179 
L 118.152051 279.766179 
L 118.152051 279.298428 
L 122.19863 279.298428 
L 122.19863 278.830676 
L 125.695686 278.830676 
L 125.695686 278.362924 
L 127.149662 278.362924 
L 127.149662 277.895172 
L 127.458055 277.895172 
L 127.458055 277.427421 
L 130.553485 277.427421 
L 130.553485 276.959669 
L 131.563744 276.959669 
L 131.563744 276.491917 
L 131.808053 276.491917 
L 131.808053 275.088662 
L 133.656071 275.088662 
L 133.656071 274.62091 
L 133.874812 274.62091 
L 133.874812 274.153159 
L 134.516177 274.153159 
L 134.516177 273.685407 
L 135.638065 273.685407 
L 135.638065 272.749903 
L 135.932769 272.749903 
L 135.932769 272.282152 
L 136.222928 272.282152 
L 136.222928 271.8144 
L 136.88305 271.8144 
L 136.88305 271.346648 
L 137.520791 271.346648 
L 137.520791 270.878897 
L 138.310202 270.878897 
L 138.310202 270.411145 
L 138.902075 270.411145 
L 138.985129 268.540138 
L 139.636676 268.540138 
L 139.636676 268.072386 
L 140.26641 268.072386 
L 140.26641 267.136883 
L 144.602918 267.136883 
L 144.602918 266.669131 
L 144.786447 266.669131 
L 144.786447 266.201379 
L 145.148219 266.201379 
L 145.148219 265.733628 
L 147.076389 265.733628 
L 147.076389 265.265876 
L 147.816265 265.265876 
L 147.816265 264.330372 
L 148.073609 264.330372 
L 148.073609 263.394869 
L 151.306379 263.394869 
L 151.306379 262.927117 
L 152.515067 262.927117 
L 152.515067 262.459366 
L 153.189104 262.459366 
L 153.189104 261.991614 
L 154.721776 261.991614 
L 154.721776 261.523862 
L 154.86483 261.523862 
L 154.86483 261.05611 
L 155.460959 261.05611 
L 155.460959 260.588359 
L 156.337642 260.588359 
L 156.337642 260.120607 
L 157.363398 260.120607 
L 157.363398 259.652855 
L 157.61133 259.652855 
L 157.61133 258.717352 
L 158.187393 258.717352 
L 158.187393 258.2496 
L 158.395258 258.2496 
L 158.395258 257.781848 
L 158.919453 257.781848 
L 158.919453 256.846345 
L 159.485256 256.846345 
L 159.485256 255.910841 
L 162.539702 255.910841 
L 162.539702 255.44309 
L 163.076878 255.44309 
L 163.076878 254.975338 
L 163.328465 254.975338 
L 163.328465 254.039834 
L 164.644495 254.039834 
L 164.644495 253.572083 
L 165.290001 253.572083 
L 165.290001 252.636579 
L 167.214594 252.636579 
L 167.214594 252.168828 
L 168.186891 252.168828 
L 168.186891 251.701076 
L 170.308749 251.701076 
L 170.308749 251.233324 
L 170.727317 251.233324 
L 170.727317 250.297821 
L 171.741985 250.297821 
L 171.741985 249.830069 
L 171.857838 249.830069 
L 171.872269 248.894566 
L 172.482581 248.894566 
L 172.482581 248.426814 
L 174.126381 248.426814 
L 174.164733 247.023559 
L 174.606487 247.023559 
L 174.606487 246.555807 
L 176.805529 246.555807 
L 176.805529 245.620303 
L 178.38028 245.620303 
L 178.38028 245.152552 
L 178.532766 245.152552 
L 178.532766 244.6848 
L 179.335488 244.6848 
L 179.335488 243.749297 
L 179.528527 243.749297 
L 179.528527 242.813793 
L 180.746198 242.813793 
L 180.746198 242.346041 
L 181.90675 242.346041 
L 181.940568 240.942786 
L 182.742588 240.942786 
L 182.799165 239.539531 
L 183.25363 239.539531 
L 183.25363 239.071779 
L 183.743481 239.071779 
L 183.743481 238.604028 
L 184.235859 238.604028 
L 184.235859 238.136276 
L 184.525216 238.136276 
L 184.525216 237.668524 
L 185.409698 237.668524 
L 185.409698 236.733021 
L 185.888248 236.733021 
L 185.888248 235.797517 
L 186.106119 235.797517 
L 186.106119 234.862014 
L 186.434918 234.862014 
L 186.49469 233.458759 
L 187.633183 233.458759 
L 187.633183 232.991007 
L 189.004965 232.991007 
L 189.004965 232.523255 
L 189.960876 232.523255 
L 189.960876 232.055503 
L 190.429282 232.055503 
L 190.429282 231.12 
L 193.246689 231.12 
L 193.246689 230.184497 
L 193.463101 230.184497 
L 193.568105 228.31349 
L 195.206441 228.31349 
L 195.206441 227.377986 
L 198.487467 227.377986 
L 198.487467 226.442483 
L 199.067286 226.442483 
L 199.067286 225.506979 
L 360.8064 225.506979 
L 360.8064 225.506979 
" style="fill: none; stroke: #ff0000; stroke-width: 1.5; stroke-linecap: square"/>
   </g>
   <g id="line2d_56">
    <defs>
     <path id="ma7ce899482" d="M 0 -6 
L -5.196152 -3 
L -5.196152 3 
L -0 6 
L 5.196152 3 
L 5.196152 -3 
z
" style="stroke: #ff0000; stroke-width: 1.5; stroke-linejoin: miter"/>
    </defs>
    <g>
     <use xlink:href="#ma7ce899482" x="136.222928" y="272.282152" style="fill-opacity: 0; stroke: #ff0000; stroke-width: 1.5; stroke-linejoin: miter"/>
     <use xlink:href="#ma7ce899482" x="187.633183" y="232.991007" style="fill-opacity: 0; stroke: #ff0000; stroke-width: 1.5; stroke-linejoin: miter"/>
     <use xlink:href="#ma7ce899482" x="199.067286" y="226.442483" style="fill-opacity: 0; stroke: #ff0000; stroke-width: 1.5; stroke-linejoin: miter"/>
     <use xlink:href="#ma7ce899482" x="199.067286" y="225.506979" style="fill-opacity: 0; stroke: #ff0000; stroke-width: 1.5; stroke-linejoin: miter"/>
     <use xlink:href="#ma7ce899482" x="199.067286" y="225.506979" style="fill-opacity: 0; stroke: #ff0000; stroke-width: 1.5; stroke-linejoin: miter"/>
     <use xlink:href="#ma7ce899482" x="360.8064" y="225.506979" style="fill-opacity: 0; stroke: #ff0000; stroke-width: 1.5; stroke-linejoin: miter"/>
    </g>
   </g>
   <g id="line2d_57">
    <path style="fill: none; stroke: #ff0000; stroke-width: 1.5; stroke-linecap: square"/>
    <g/>
   </g>
   <g id="line2d_58">
    <path d="M 274.176502 225.506979 
" clip-path="url(#pa22c609c53)" style="fill: none; stroke: #ff0000; stroke-width: 1.5; stroke-linecap: square"/>
    <defs>
     <path id="m436a696d43" d="M -12 12 
L 12 -12 
M -12 -12 
L 12 12 
" style="stroke: #ff0000"/>
    </defs>
    <g clip-path="url(#pa22c609c53)">
     <use xlink:href="#m436a696d43" x="274.176502" y="225.506979" style="fill: #ff0000; stroke: #ff0000"/>
    </g>
   </g>
   <g id="line2d_59">
    <path d="M 360.8064 229.248993 
L 380.514816 293.51808 
" style="fill: none; stroke: #ff7500; stroke-width: 1.5; stroke-linecap: square"/>
    <g>
     <use xlink:href="#m00219f129c" x="360.8064" y="229.248993" style="fill-opacity: 0; stroke: #ff7500; stroke-width: 1.5; stroke-linejoin: bevel"/>
     <use xlink:href="#m00219f129c" x="380.514816" y="293.51808" style="fill-opacity: 0; stroke: #ff7500; stroke-width: 1.5; stroke-linejoin: bevel"/>
    </g>
   </g>
   <g id="line2d_60">
    <path d="M 360.8064 228.781241 
L 380.514816 241.429248 
" style="fill: none; stroke: #6495ed; stroke-width: 1.5; stroke-linecap: square"/>
    <g>
     <use xlink:href="#m420b8d866f" x="360.8064" y="228.781241" style="fill-opacity: 0; stroke: #6495ed; stroke-width: 1.5; stroke-linejoin: miter"/>
     <use xlink:href="#m420b8d866f" x="380.514816" y="241.429248" style="fill-opacity: 0; stroke: #6495ed; stroke-width: 1.5; stroke-linejoin: miter"/>
    </g>
   </g>
   <g id="line2d_61">
    <path d="M 360.8064 225.506979 
L 380.514816 189.340416 
" style="fill: none; stroke: #ff0000; stroke-width: 1.5; stroke-linecap: square"/>
    <g>
     <use xlink:href="#ma7ce899482" x="360.8064" y="225.506979" style="fill-opacity: 0; stroke: #ff0000; stroke-width: 1.5; stroke-linejoin: miter"/>
     <use xlink:href="#ma7ce899482" x="380.514816" y="189.340416" style="fill-opacity: 0; stroke: #ff0000; stroke-width: 1.5; stroke-linejoin: miter"/>
    </g>
   </g>
   <g id="line2d_62">
    <path d="M 360.8064 221.297214 
L 380.514816 137.251584 
" style="fill: none; stroke: #ff00ff; stroke-width: 1.5; stroke-linecap: square"/>
    <g>
     <use xlink:href="#m696e9ac4d6" x="360.8064" y="221.297214" style="fill-opacity: 0; stroke: #ff00ff; stroke-width: 1.5; stroke-linejoin: miter"/>
     <use xlink:href="#m696e9ac4d6" x="380.514816" y="137.251584" style="fill-opacity: 0; stroke: #ff00ff; stroke-width: 1.5; stroke-linejoin: miter"/>
    </g>
   </g>
   <g id="line2d_63">
    <path d="M 360.8064 218.490703 
L 380.514816 85.162752 
" style="fill: none; stroke: #000080; stroke-width: 1.5; stroke-linecap: square"/>
    <g>
     <use xlink:href="#mb5124132c0" x="360.8064" y="218.490703" style="fill-opacity: 0; stroke: #000080; stroke-width: 1.5"/>
     <use xlink:href="#mb5124132c0" x="380.514816" y="85.162752" style="fill-opacity: 0; stroke: #000080; stroke-width: 1.5"/>
    </g>
   </g>
   <g id="line2d_64">
    <path d="M 360.8064 298.944 
L 360.8064 27.648 
" style="fill: none; stroke: #000000; stroke-width: 1.5; stroke-linecap: square"/>
   </g>
   <g id="patch_3">
    <path d="M 57.6 298.944 
L 360.8064 298.944 
" style="fill: none; stroke: #000000; stroke-width: 0.8; stroke-linejoin: miter; stroke-linecap: square"/>
   </g>
   <g id="patch_4">
    <path d="M 57.6 27.648 
L 360.8064 27.648 
" style="fill: none; stroke: #000000; stroke-width: 0.8; stroke-linejoin: miter; stroke-linecap: square"/>
   </g>
   <g id="text_13">
    <!-- kerComo -->
    <g transform="translate(386.578944 297.381205) scale(0.14 -0.14)">
     <defs>
      <path id="DejaVuSans-6b" d="M 581 4863 
L 1159 4863 
L 1159 1991 
L 2875 3500 
L 3609 3500 
L 1753 1863 
L 3688 0 
L 2938 0 
L 1159 1709 
L 1159 0 
L 581 0 
L 581 4863 
z
" transform="scale(0.015625)"/>
      <path id="DejaVuSans-43" d="M 4122 4306 
L 4122 3641 
Q 3803 3938 3442 4084 
Q 3081 4231 2675 4231 
Q 1875 4231 1450 3742 
Q 1025 3253 1025 2328 
Q 1025 1406 1450 917 
Q 1875 428 2675 428 
Q 3081 428 3442 575 
Q 3803 722 4122 1019 
L 4122 359 
Q 3791 134 3420 21 
Q 3050 -91 2638 -91 
Q 1578 -91 968 557 
Q 359 1206 359 2328 
Q 359 3453 968 4101 
Q 1578 4750 2638 4750 
Q 3056 4750 3426 4639 
Q 3797 4528 4122 4306 
z
" transform="scale(0.015625)"/>
     </defs>
     <use xlink:href="#DejaVuSans-6b"/>
     <use xlink:href="#DejaVuSans-65" x="54.285156"/>
     <use xlink:href="#DejaVuSans-72" x="115.808594"/>
     <use xlink:href="#DejaVuSans-43" x="156.921875"/>
     <use xlink:href="#DejaVuSans-6f" x="226.746094"/>
     <use xlink:href="#DejaVuSans-6d" x="287.927734"/>
     <use xlink:href="#DejaVuSans-6f" x="385.339844"/>
    </g>
   </g>
   <g id="text_14">
    <!-- kerLQ -->
    <g transform="translate(386.578944 245.292373) scale(0.14 -0.14)">
     <defs>
      <path id="DejaVuSans-4c" d="M 628 4666 
L 1259 4666 
L 1259 531 
L 3531 531 
L 3531 0 
L 628 0 
L 628 4666 
z
" transform="scale(0.015625)"/>
      <path id="DejaVuSans-51" d="M 2522 4238 
Q 1834 4238 1429 3725 
Q 1025 3213 1025 2328 
Q 1025 1447 1429 934 
Q 1834 422 2522 422 
Q 3209 422 3611 934 
Q 4013 1447 4013 2328 
Q 4013 3213 3611 3725 
Q 3209 4238 2522 4238 
z
M 3406 84 
L 4238 -825 
L 3475 -825 
L 2784 -78 
Q 2681 -84 2626 -87 
Q 2572 -91 2522 -91 
Q 1538 -91 948 567 
Q 359 1225 359 2328 
Q 359 3434 948 4092 
Q 1538 4750 2522 4750 
Q 3503 4750 4090 4092 
Q 4678 3434 4678 2328 
Q 4678 1516 4351 937 
Q 4025 359 3406 84 
z
" transform="scale(0.015625)"/>
     </defs>
     <use xlink:href="#DejaVuSans-6b"/>
     <use xlink:href="#DejaVuSans-65" x="54.285156"/>
     <use xlink:href="#DejaVuSans-72" x="115.808594"/>
     <use xlink:href="#DejaVuSans-4c" x="156.921875"/>
     <use xlink:href="#DejaVuSans-51" x="212.634766"/>
    </g>
   </g>
   <g id="text_15">
    <!-- COMO-10 d -->
    <g transform="translate(386.578944 193.203541) scale(0.14 -0.14)">
     <defs>
      <path id="DejaVuSans-4f" d="M 2522 4238 
Q 1834 4238 1429 3725 
Q 1025 3213 1025 2328 
Q 1025 1447 1429 934 
Q 1834 422 2522 422 
Q 3209 422 3611 934 
Q 4013 1447 4013 2328 
Q 4013 3213 3611 3725 
Q 3209 4238 2522 4238 
z
M 2522 4750 
Q 3503 4750 4090 4092 
Q 4678 3434 4678 2328 
Q 4678 1225 4090 567 
Q 3503 -91 2522 -91 
Q 1538 -91 948 565 
Q 359 1222 359 2328 
Q 359 3434 948 4092 
Q 1538 4750 2522 4750 
z
" transform="scale(0.015625)"/>
      <path id="DejaVuSans-4d" d="M 628 4666 
L 1569 4666 
L 2759 1491 
L 3956 4666 
L 4897 4666 
L 4897 0 
L 4281 0 
L 4281 4097 
L 3078 897 
L 2444 897 
L 1241 4097 
L 1241 0 
L 628 0 
L 628 4666 
z
" transform="scale(0.015625)"/>
     </defs>
     <use xlink:href="#DejaVuSans-43"/>
     <use xlink:href="#DejaVuSans-4f" x="69.824219"/>
     <use xlink:href="#DejaVuSans-4d" x="148.535156"/>
     <use xlink:href="#DejaVuSans-4f" x="234.814453"/>
     <use xlink:href="#DejaVuSans-2d" x="316.275391"/>
     <use xlink:href="#DejaVuSans-31" x="352.359375"/>
     <use xlink:href="#DejaVuSans-30" x="415.982422"/>
     <use xlink:href="#DejaVuSans-20" x="479.605469"/>
     <use xlink:href="#DejaVuSans-64" x="511.392578"/>
    </g>
   </g>
   <g id="text_16">
    <!-- AllLQ -->
    <g transform="translate(386.578944 141.114709) scale(0.14 -0.14)">
     <defs>
      <path id="DejaVuSans-41" d="M 2188 4044 
L 1331 1722 
L 3047 1722 
L 2188 4044 
z
M 1831 4666 
L 2547 4666 
L 4325 0 
L 3669 0 
L 3244 1197 
L 1141 1197 
L 716 0 
L 50 0 
L 1831 4666 
z
" transform="scale(0.015625)"/>
     </defs>
     <use xlink:href="#DejaVuSans-41"/>
     <use xlink:href="#DejaVuSans-6c" x="68.408203"/>
     <use xlink:href="#DejaVuSans-6c" x="96.191406"/>
     <use xlink:href="#DejaVuSans-4c" x="123.974609"/>
     <use xlink:href="#DejaVuSans-51" x="179.6875"/>
    </g>
   </g>
   <g id="text_17">
    <!-- AllComo -->
    <g transform="translate(386.578944 89.025877) scale(0.14 -0.14)">
     <use xlink:href="#DejaVuSans-41"/>
     <use xlink:href="#DejaVuSans-6c" x="68.408203"/>
     <use xlink:href="#DejaVuSans-6c" x="96.191406"/>
     <use xlink:href="#DejaVuSans-43" x="123.974609"/>
     <use xlink:href="#DejaVuSans-6f" x="193.798828"/>
     <use xlink:href="#DejaVuSans-6d" x="254.980469"/>
     <use xlink:href="#DejaVuSans-6f" x="352.392578"/>
    </g>
   </g>
   <g id="text_18">
    <!-- best 2016 -->
    <g transform="translate(386.578944 36.937045) scale(0.14 -0.14)">
     <defs>
      <path id="DejaVuSans-62" d="M 3116 1747 
Q 3116 2381 2855 2742 
Q 2594 3103 2138 3103 
Q 1681 3103 1420 2742 
Q 1159 2381 1159 1747 
Q 1159 1113 1420 752 
Q 1681 391 2138 391 
Q 2594 391 2855 752 
Q 3116 1113 3116 1747 
z
M 1159 2969 
Q 1341 3281 1617 3432 
Q 1894 3584 2278 3584 
Q 2916 3584 3314 3078 
Q 3713 2572 3713 1747 
Q 3713 922 3314 415 
Q 2916 -91 2278 -91 
Q 1894 -91 1617 61 
Q 1341 213 1159 525 
L 1159 0 
L 581 0 
L 581 4863 
L 1159 4863 
L 1159 2969 
z
" transform="scale(0.015625)"/>
     </defs>
     <use xlink:href="#DejaVuSans-62"/>
     <use xlink:href="#DejaVuSans-65" x="63.476562"/>
     <use xlink:href="#DejaVuSans-73" x="125"/>
     <use xlink:href="#DejaVuSans-74" x="177.099609"/>
     <use xlink:href="#DejaVuSans-20" x="216.308594"/>
     <use xlink:href="#DejaVuSans-32" x="248.095703"/>
     <use xlink:href="#DejaVuSans-30" x="311.71875"/>
     <use xlink:href="#DejaVuSans-31" x="375.341797"/>
     <use xlink:href="#DejaVuSans-36" x="438.964844"/>
    </g>
   </g>
   <g id="text_19">
    <!-- bbob-biobj f46, 3-D -->
    <g transform="translate(60.632064 38.111366) scale(0.102 -0.102)">
     <defs>
      <path id="DejaVuSans-6a" d="M 603 3500 
L 1178 3500 
L 1178 -63 
Q 1178 -731 923 -1031 
Q 669 -1331 103 -1331 
L -116 -1331 
L -116 -844 
L 38 -844 
Q 366 -844 484 -692 
Q 603 -541 603 -63 
L 603 3500 
z
M 603 4863 
L 1178 4863 
L 1178 4134 
L 603 4134 
L 603 4863 
z
" transform="scale(0.015625)"/>
      <path id="DejaVuSans-33" d="M 2597 2516 
Q 3050 2419 3304 2112 
Q 3559 1806 3559 1356 
Q 3559 666 3084 287 
Q 2609 -91 1734 -91 
Q 1441 -91 1130 -33 
Q 819 25 488 141 
L 488 750 
Q 750 597 1062 519 
Q 1375 441 1716 441 
Q 2309 441 2620 675 
Q 2931 909 2931 1356 
Q 2931 1769 2642 2001 
Q 2353 2234 1838 2234 
L 1294 2234 
L 1294 2753 
L 1863 2753 
Q 2328 2753 2575 2939 
Q 2822 3125 2822 3475 
Q 2822 3834 2567 4026 
Q 2313 4219 1838 4219 
Q 1578 4219 1281 4162 
Q 984 4106 628 3988 
L 628 4550 
Q 988 4650 1302 4700 
Q 1616 4750 1894 4750 
Q 2613 4750 3031 4423 
Q 3450 4097 3450 3541 
Q 3450 3153 3228 2886 
Q 3006 2619 2597 2516 
z
" transform="scale(0.015625)"/>
      <path id="DejaVuSans-44" d="M 1259 4147 
L 1259 519 
L 2022 519 
Q 2988 519 3436 956 
Q 3884 1394 3884 2338 
Q 3884 3275 3436 3711 
Q 2988 4147 2022 4147 
L 1259 4147 
z
M 628 4666 
L 1925 4666 
Q 3281 4666 3915 4102 
Q 4550 3538 4550 2338 
Q 4550 1131 3912 565 
Q 3275 0 1925 0 
L 628 0 
L 628 4666 
z
" transform="scale(0.015625)"/>
     </defs>
     <use xlink:href="#DejaVuSans-62"/>
     <use xlink:href="#DejaVuSans-62" x="63.476562"/>
     <use xlink:href="#DejaVuSans-6f" x="126.953125"/>
     <use xlink:href="#DejaVuSans-62" x="188.134766"/>
     <use xlink:href="#DejaVuSans-2d" x="251.611328"/>
     <use xlink:href="#DejaVuSans-62" x="287.695312"/>
     <use xlink:href="#DejaVuSans-69" x="351.171875"/>
     <use xlink:href="#DejaVuSans-6f" x="378.955078"/>
     <use xlink:href="#DejaVuSans-62" x="440.136719"/>
     <use xlink:href="#DejaVuSans-6a" x="503.613281"/>
     <use xlink:href="#DejaVuSans-20" x="531.396484"/>
     <use xlink:href="#DejaVuSans-66" x="563.183594"/>
     <use xlink:href="#DejaVuSans-34" x="598.388672"/>
     <use xlink:href="#DejaVuSans-36" x="662.011719"/>
     <use xlink:href="#DejaVuSans-2c" x="725.634766"/>
     <use xlink:href="#DejaVuSans-20" x="757.421875"/>
     <use xlink:href="#DejaVuSans-33" x="789.208984"/>
     <use xlink:href="#DejaVuSans-2d" x="852.832031"/>
     <use xlink:href="#DejaVuSans-44" x="888.916016"/>
    </g>
    <!-- 58 targets: 1..-1.0e-4 -->
    <g transform="translate(60.632064 49.533135) scale(0.102 -0.102)">
     <defs>
      <path id="DejaVuSans-35" d="M 691 4666 
L 3169 4666 
L 3169 4134 
L 1269 4134 
L 1269 2991 
Q 1406 3038 1543 3061 
Q 1681 3084 1819 3084 
Q 2600 3084 3056 2656 
Q 3513 2228 3513 1497 
Q 3513 744 3044 326 
Q 2575 -91 1722 -91 
Q 1428 -91 1123 -41 
Q 819 9 494 109 
L 494 744 
Q 775 591 1075 516 
Q 1375 441 1709 441 
Q 2250 441 2565 725 
Q 2881 1009 2881 1497 
Q 2881 1984 2565 2268 
Q 2250 2553 1709 2553 
Q 1456 2553 1204 2497 
Q 953 2441 691 2322 
L 691 4666 
z
" transform="scale(0.015625)"/>
      <path id="DejaVuSans-3a" d="M 750 794 
L 1409 794 
L 1409 0 
L 750 0 
L 750 794 
z
M 750 3309 
L 1409 3309 
L 1409 2516 
L 750 2516 
L 750 3309 
z
" transform="scale(0.015625)"/>
     </defs>
     <use xlink:href="#DejaVuSans-35"/>
     <use xlink:href="#DejaVuSans-38" x="63.623047"/>
     <use xlink:href="#DejaVuSans-20" x="127.246094"/>
     <use xlink:href="#DejaVuSans-74" x="159.033203"/>
     <use xlink:href="#DejaVuSans-61" x="198.242188"/>
     <use xlink:href="#DejaVuSans-72" x="259.521484"/>
     <use xlink:href="#DejaVuSans-67" x="298.884766"/>
     <use xlink:href="#DejaVuSans-65" x="362.361328"/>
     <use xlink:href="#DejaVuSans-74" x="423.884766"/>
     <use xlink:href="#DejaVuSans-73" x="463.09375"/>
     <use xlink:href="#DejaVuSans-3a" x="515.193359"/>
     <use xlink:href="#DejaVuSans-20" x="548.884766"/>
     <use xlink:href="#DejaVuSans-31" x="580.671875"/>
     <use xlink:href="#DejaVuSans-2e" x="644.294922"/>
     <use xlink:href="#DejaVuSans-2e" x="676.082031"/>
     <use xlink:href="#DejaVuSans-2d" x="707.869141"/>
     <use xlink:href="#DejaVuSans-31" x="743.953125"/>
     <use xlink:href="#DejaVuSans-2e" x="807.576172"/>
     <use xlink:href="#DejaVuSans-30" x="839.363281"/>
     <use xlink:href="#DejaVuSans-65" x="902.986328"/>
     <use xlink:href="#DejaVuSans-2d" x="964.509766"/>
     <use xlink:href="#DejaVuSans-34" x="1000.59375"/>
    </g>
    <!-- 10 instances -->
    <g transform="translate(60.632064 60.954904) scale(0.102 -0.102)">
     <use xlink:href="#DejaVuSans-31"/>
     <use xlink:href="#DejaVuSans-30" x="63.623047"/>
     <use xlink:href="#DejaVuSans-20" x="127.246094"/>
     <use xlink:href="#DejaVuSans-69" x="159.033203"/>
     <use xlink:href="#DejaVuSans-6e" x="186.816406"/>
     <use xlink:href="#DejaVuSans-73" x="250.195312"/>
     <use xlink:href="#DejaVuSans-74" x="302.294922"/>
     <use xlink:href="#DejaVuSans-61" x="341.503906"/>
     <use xlink:href="#DejaVuSans-6e" x="402.783203"/>
     <use xlink:href="#DejaVuSans-63" x="466.162109"/>
     <use xlink:href="#DejaVuSans-65" x="521.142578"/>
     <use xlink:href="#DejaVuSans-73" x="582.666016"/>
    </g>
   </g>
   <g id="text_20">
    <!-- v2.6, hv-hash=d240b271ab0b4926 -->
    <g style="fill: #808080" transform="translate(120.362575 294.151352) scale(0.1 -0.1)">
     <defs>
      <path id="DejaVuSans-68" d="M 3513 2113 
L 3513 0 
L 2938 0 
L 2938 2094 
Q 2938 2591 2744 2837 
Q 2550 3084 2163 3084 
Q 1697 3084 1428 2787 
Q 1159 2491 1159 1978 
L 1159 0 
L 581 0 
L 581 4863 
L 1159 4863 
L 1159 2956 
Q 1366 3272 1645 3428 
Q 1925 3584 2291 3584 
Q 2894 3584 3203 3211 
Q 3513 2838 3513 2113 
z
" transform="scale(0.015625)"/>
      <path id="DejaVuSans-3d" d="M 678 2906 
L 4684 2906 
L 4684 2381 
L 678 2381 
L 678 2906 
z
M 678 1631 
L 4684 1631 
L 4684 1100 
L 678 1100 
L 678 1631 
z
" transform="scale(0.015625)"/>
      <path id="DejaVuSans-37" d="M 525 4666 
L 3525 4666 
L 3525 4397 
L 1831 0 
L 1172 0 
L 2766 4134 
L 525 4134 
L 525 4666 
z
" transform="scale(0.015625)"/>
      <path id="DejaVuSans-39" d="M 703 97 
L 703 672 
Q 941 559 1184 500 
Q 1428 441 1663 441 
Q 2288 441 2617 861 
Q 2947 1281 2994 2138 
Q 2813 1869 2534 1725 
Q 2256 1581 1919 1581 
Q 1219 1581 811 2004 
Q 403 2428 403 3163 
Q 403 3881 828 4315 
Q 1253 4750 1959 4750 
Q 2769 4750 3195 4129 
Q 3622 3509 3622 2328 
Q 3622 1225 3098 567 
Q 2575 -91 1691 -91 
Q 1453 -91 1209 -44 
Q 966 3 703 97 
z
M 1959 2075 
Q 2384 2075 2632 2365 
Q 2881 2656 2881 3163 
Q 2881 3666 2632 3958 
Q 2384 4250 1959 4250 
Q 1534 4250 1286 3958 
Q 1038 3666 1038 3163 
Q 1038 2656 1286 2365 
Q 1534 2075 1959 2075 
z
" transform="scale(0.015625)"/>
     </defs>
     <use xlink:href="#DejaVuSans-76"/>
     <use xlink:href="#DejaVuSans-32" x="59.179688"/>
     <use xlink:href="#DejaVuSans-2e" x="122.802734"/>
     <use xlink:href="#DejaVuSans-36" x="154.589844"/>
     <use xlink:href="#DejaVuSans-2c" x="218.212891"/>
     <use xlink:href="#DejaVuSans-20" x="250"/>
     <use xlink:href="#DejaVuSans-68" x="281.787109"/>
     <use xlink:href="#DejaVuSans-76" x="345.166016"/>
     <use xlink:href="#DejaVuSans-2d" x="401.720703"/>
     <use xlink:href="#DejaVuSans-68" x="437.804688"/>
     <use xlink:href="#DejaVuSans-61" x="501.183594"/>
     <use xlink:href="#DejaVuSans-73" x="562.462891"/>
     <use xlink:href="#DejaVuSans-68" x="614.5625"/>
     <use xlink:href="#DejaVuSans-3d" x="677.941406"/>
     <use xlink:href="#DejaVuSans-64" x="761.730469"/>
     <use xlink:href="#DejaVuSans-32" x="825.207031"/>
     <use xlink:href="#DejaVuSans-34" x="888.830078"/>
     <use xlink:href="#DejaVuSans-30" x="952.453125"/>
     <use xlink:href="#DejaVuSans-62" x="1016.076172"/>
     <use xlink:href="#DejaVuSans-32" x="1079.552734"/>
     <use xlink:href="#DejaVuSans-37" x="1143.175781"/>
     <use xlink:href="#DejaVuSans-31" x="1206.798828"/>
     <use xlink:href="#DejaVuSans-61" x="1270.421875"/>
     <use xlink:href="#DejaVuSans-62" x="1331.701172"/>
     <use xlink:href="#DejaVuSans-30" x="1395.177734"/>
     <use xlink:href="#DejaVuSans-62" x="1458.800781"/>
     <use xlink:href="#DejaVuSans-34" x="1522.277344"/>
     <use xlink:href="#DejaVuSans-39" x="1585.900391"/>
     <use xlink:href="#DejaVuSans-32" x="1649.523438"/>
     <use xlink:href="#DejaVuSans-36" x="1713.146484"/>
    </g>
   </g>
   <g id="text_21">
    <!-- 46 Rastrigin/Rastrigin -->
    <g transform="translate(101.262575 21.648) scale(0.2 -0.2)">
     <defs>
      <path id="DejaVuSans-52" d="M 2841 2188 
Q 3044 2119 3236 1894 
Q 3428 1669 3622 1275 
L 4263 0 
L 3584 0 
L 2988 1197 
Q 2756 1666 2539 1819 
Q 2322 1972 1947 1972 
L 1259 1972 
L 1259 0 
L 628 0 
L 628 4666 
L 2053 4666 
Q 2853 4666 3247 4331 
Q 3641 3997 3641 3322 
Q 3641 2881 3436 2590 
Q 3231 2300 2841 2188 
z
M 1259 4147 
L 1259 2491 
L 2053 2491 
Q 2509 2491 2742 2702 
Q 2975 2913 2975 3322 
Q 2975 3731 2742 3939 
Q 2509 4147 2053 4147 
L 1259 4147 
z
" transform="scale(0.015625)"/>
     </defs>
     <use xlink:href="#DejaVuSans-34"/>
     <use xlink:href="#DejaVuSans-36" x="63.623047"/>
     <use xlink:href="#DejaVuSans-20" x="127.246094"/>
     <use xlink:href="#DejaVuSans-52" x="159.033203"/>
     <use xlink:href="#DejaVuSans-61" x="226.265625"/>
     <use xlink:href="#DejaVuSans-73" x="287.544922"/>
     <use xlink:href="#DejaVuSans-74" x="339.644531"/>
     <use xlink:href="#DejaVuSans-72" x="378.853516"/>
     <use xlink:href="#DejaVuSans-69" x="419.966797"/>
     <use xlink:href="#DejaVuSans-67" x="447.75"/>
     <use xlink:href="#DejaVuSans-69" x="511.226562"/>
     <use xlink:href="#DejaVuSans-6e" x="539.009766"/>
     <use xlink:href="#DejaVuSans-2f" x="602.388672"/>
     <use xlink:href="#DejaVuSans-52" x="636.080078"/>
     <use xlink:href="#DejaVuSans-61" x="703.3125"/>
     <use xlink:href="#DejaVuSans-73" x="764.591797"/>
     <use xlink:href="#DejaVuSans-74" x="816.691406"/>
     <use xlink:href="#DejaVuSans-72" x="855.900391"/>
     <use xlink:href="#DejaVuSans-69" x="897.013672"/>
     <use xlink:href="#DejaVuSans-67" x="924.796875"/>
     <use xlink:href="#DejaVuSans-69" x="988.273438"/>
     <use xlink:href="#DejaVuSans-6e" x="1016.056641"/>
    </g>
   </g>
  </g>
 </g>
 <defs>
  <clipPath id="pa22c609c53">
   <rect x="57.6" y="27.648" width="303.2064" height="271.296"/>
  </clipPath>
 </defs>
</svg>
