<?xml version="1.0" encoding="utf-8" standalone="no"?>
<!DOCTYPE svg PUBLIC "-//W3C//DTD SVG 1.1//EN"
  "http://www.w3.org/Graphics/SVG/1.1/DTD/svg11.dtd">
<svg xmlns:xlink="http://www.w3.org/1999/xlink" width="460.8pt" height="345.6pt" viewBox="0 0 460.8 345.6" xmlns="http://www.w3.org/2000/svg" version="1.1">
 <metadata>
  <rdf:RDF xmlns:dc="http://purl.org/dc/elements/1.1/" xmlns:cc="http://creativecommons.org/ns#" xmlns:rdf="http://www.w3.org/1999/02/22-rdf-syntax-ns#">
   <cc:Work>
    <dc:type rdf:resource="http://purl.org/dc/dcmitype/StillImage"/>
    <dc:date>2023-02-10T02:08:20.168979</dc:date>
    <dc:format>image/svg+xml</dc:format>
    <dc:creator>
     <cc:Agent>
      <dc:title>Matplotlib v3.6.3, https://matplotlib.org/</dc:title>
     </cc:Agent>
    </dc:creator>
   </cc:Work>
  </rdf:RDF>
 </metadata>
 <defs>
  <style type="text/css">*{stroke-linejoin: round; stroke-linecap: butt}</style>
 </defs>
 <g id="figure_1">
  <g id="patch_1">
   <path d="M 0 345.6 
L 460.8 345.6 
L 460.8 0 
L 0 0 
z
" style="fill: #ffffff"/>
  </g>
  <g id="axes_1">
   <g id="patch_2">
    <path d="M 57.6 298.944 
L 360.8064 298.944 
L 360.8064 27.648 
L 57.6 27.648 
z
" style="fill: #ffffff"/>
   </g>
   <g id="line2d_1">
    <path d="M 49.972572 298.944 
L 49.972572 294.266483 
L 63.011746 294.266483 
L 63.011746 284.911448 
L 76.050921 284.911448 
L 76.050921 275.556414 
L 90.230539 275.556414 
L 90.230539 270.878897 
L 100.9152 270.878897 
L 100.9152 256.846345 
L 114.872193 256.846345 
L 114.872193 247.49131 
L 129.348062 247.49131 
L 129.348062 242.813793 
L 137.067478 242.813793 
L 137.067478 233.458759 
L 145.207843 233.458759 
L 145.207843 219.426207 
L 151.774035 219.426207 
L 151.774035 210.071172 
L 159.898714 210.071172 
L 159.898714 200.716138 
L 166.632844 200.716138 
L 166.632844 191.361103 
L 174.618958 191.361103 
L 174.618958 186.683586 
L 182.341718 186.683586 
L 182.341718 172.651034 
L 195.635495 172.651034 
L 195.635495 167.973517 
L 204.666718 167.973517 
L 204.666718 153.940966 
L 212.491636 153.940966 
L 212.491636 144.585931 
L 226.930069 144.585931 
L 226.930069 139.908414 
L 235.587718 139.908414 
L 235.587718 125.875862 
L 242.467938 125.875862 
L 242.467938 121.198345 
L 246.621581 121.198345 
L 246.621581 107.165793 
L 251.610824 107.165793 
L 251.610824 97.810759 
L 257.360324 97.810759 
L 257.360324 88.455724 
L 263.774687 88.455724 
L 263.774687 83.778207 
L 270.572381 83.778207 
L 270.572381 74.423172 
L 277.517549 74.423172 
L 277.517549 60.390621 
L 360.8064 60.390621 
" style="fill: none; stroke: #f5deb3; stroke-width: 4; stroke-linecap: square"/>
   </g>
   <g id="line2d_2">
    <defs>
     <path id="m0ecba85d88" d="M -0 7.778175 
L 7.778175 0 
L 0 -7.778175 
L -7.778175 -0 
z
" style="stroke: #f5deb3; stroke-width: 1.5; stroke-linejoin: miter"/>
    </defs>
    <g>
     <use xlink:href="#m0ecba85d88" x="114.872193" y="247.49131" style="fill: #f5deb3; stroke: #f5deb3; stroke-width: 1.5; stroke-linejoin: miter"/>
     <use xlink:href="#m0ecba85d88" x="182.341718" y="186.683586" style="fill: #f5deb3; stroke: #f5deb3; stroke-width: 1.5; stroke-linejoin: miter"/>
     <use xlink:href="#m0ecba85d88" x="246.621581" y="121.198345" style="fill: #f5deb3; stroke: #f5deb3; stroke-width: 1.5; stroke-linejoin: miter"/>
     <use xlink:href="#m0ecba85d88" x="277.517549" y="74.423172" style="fill: #f5deb3; stroke: #f5deb3; stroke-width: 1.5; stroke-linejoin: miter"/>
     <use xlink:href="#m0ecba85d88" x="277.517549" y="60.390621" style="fill: #f5deb3; stroke: #f5deb3; stroke-width: 1.5; stroke-linejoin: miter"/>
     <use xlink:href="#m0ecba85d88" x="360.8064" y="60.390621" style="fill: #f5deb3; stroke: #f5deb3; stroke-width: 1.5; stroke-linejoin: miter"/>
    </g>
   </g>
   <g id="line2d_3">
    <path style="fill: none; stroke: #f5deb3; stroke-width: 4; stroke-linecap: square"/>
    <g/>
   </g>
   <g id="line2d_4">
    <path d="M 360.8064 60.390621 
L 380.514816 33.07392 
" style="fill: none; stroke: #f5deb3; stroke-width: 4; stroke-linecap: square"/>
    <g>
     <use xlink:href="#m0ecba85d88" x="360.8064" y="60.390621" style="fill: #f5deb3; stroke: #f5deb3; stroke-width: 1.5; stroke-linejoin: miter"/>
     <use xlink:href="#m0ecba85d88" x="380.514816" y="33.07392" style="fill: #f5deb3; stroke: #f5deb3; stroke-width: 1.5; stroke-linejoin: miter"/>
    </g>
   </g>
   <g id="matplotlib.axis_1">
    <g id="xtick_1">
     <g id="line2d_5">
      <path d="M 57.6 298.944 
L 57.6 27.648 
" clip-path="url(#pbe03425de6)" style="fill: none; stroke: #b0b0b0; stroke-width: 0.8; stroke-linecap: square"/>
     </g>
     <g id="line2d_6">
      <defs>
       <path id="m98973376f6" d="M 0 0 
L 0 3.5 
" style="stroke: #000000; stroke-width: 0.8"/>
      </defs>
      <g>
       <use xlink:href="#m98973376f6" x="57.6" y="298.944" style="stroke: #000000; stroke-width: 0.8"/>
      </g>
     </g>
     <g id="text_1">
      <!-- 0 -->
      <g transform="translate(52.191875 318.861344) scale(0.17 -0.17)">
       <defs>
        <path id="DejaVuSans-30" d="M 2034 4250 
Q 1547 4250 1301 3770 
Q 1056 3291 1056 2328 
Q 1056 1369 1301 889 
Q 1547 409 2034 409 
Q 2525 409 2770 889 
Q 3016 1369 3016 2328 
Q 3016 3291 2770 3770 
Q 2525 4250 2034 4250 
z
M 2034 4750 
Q 2819 4750 3233 4129 
Q 3647 3509 3647 2328 
Q 3647 1150 3233 529 
Q 2819 -91 2034 -91 
Q 1250 -91 836 529 
Q 422 1150 422 2328 
Q 422 3509 836 4129 
Q 1250 4750 2034 4750 
z
" transform="scale(0.015625)"/>
       </defs>
       <use xlink:href="#DejaVuSans-30"/>
      </g>
     </g>
    </g>
    <g id="xtick_2">
     <g id="line2d_7">
      <path d="M 144.2304 298.944 
L 144.2304 27.648 
" clip-path="url(#pbe03425de6)" style="fill: none; stroke: #b0b0b0; stroke-width: 0.8; stroke-linecap: square"/>
     </g>
     <g id="line2d_8">
      <g>
       <use xlink:href="#m98973376f6" x="144.2304" y="298.944" style="stroke: #000000; stroke-width: 0.8"/>
      </g>
     </g>
     <g id="text_2">
      <!-- 2 -->
      <g transform="translate(138.822275 318.861344) scale(0.17 -0.17)">
       <defs>
        <path id="DejaVuSans-32" d="M 1228 531 
L 3431 531 
L 3431 0 
L 469 0 
L 469 531 
Q 828 903 1448 1529 
Q 2069 2156 2228 2338 
Q 2531 2678 2651 2914 
Q 2772 3150 2772 3378 
Q 2772 3750 2511 3984 
Q 2250 4219 1831 4219 
Q 1534 4219 1204 4116 
Q 875 4013 500 3803 
L 500 4441 
Q 881 4594 1212 4672 
Q 1544 4750 1819 4750 
Q 2544 4750 2975 4387 
Q 3406 4025 3406 3419 
Q 3406 3131 3298 2873 
Q 3191 2616 2906 2266 
Q 2828 2175 2409 1742 
Q 1991 1309 1228 531 
z
" transform="scale(0.015625)"/>
       </defs>
       <use xlink:href="#DejaVuSans-32"/>
      </g>
     </g>
    </g>
    <g id="xtick_3">
     <g id="line2d_9">
      <path d="M 230.8608 298.944 
L 230.8608 27.648 
" clip-path="url(#pbe03425de6)" style="fill: none; stroke: #b0b0b0; stroke-width: 0.8; stroke-linecap: square"/>
     </g>
     <g id="line2d_10">
      <g>
       <use xlink:href="#m98973376f6" x="230.8608" y="298.944" style="stroke: #000000; stroke-width: 0.8"/>
      </g>
     </g>
     <g id="text_3">
      <!-- 4 -->
      <g transform="translate(225.452675 318.861344) scale(0.17 -0.17)">
       <defs>
        <path id="DejaVuSans-34" d="M 2419 4116 
L 825 1625 
L 2419 1625 
L 2419 4116 
z
M 2253 4666 
L 3047 4666 
L 3047 1625 
L 3713 1625 
L 3713 1100 
L 3047 1100 
L 3047 0 
L 2419 0 
L 2419 1100 
L 313 1100 
L 313 1709 
L 2253 4666 
z
" transform="scale(0.015625)"/>
       </defs>
       <use xlink:href="#DejaVuSans-34"/>
      </g>
     </g>
    </g>
    <g id="xtick_4">
     <g id="line2d_11">
      <path d="M 317.4912 298.944 
L 317.4912 27.648 
" clip-path="url(#pbe03425de6)" style="fill: none; stroke: #b0b0b0; stroke-width: 0.8; stroke-linecap: square"/>
     </g>
     <g id="line2d_12">
      <g>
       <use xlink:href="#m98973376f6" x="317.4912" y="298.944" style="stroke: #000000; stroke-width: 0.8"/>
      </g>
     </g>
     <g id="text_4">
      <!-- 6 -->
      <g transform="translate(312.083075 318.861344) scale(0.17 -0.17)">
       <defs>
        <path id="DejaVuSans-36" d="M 2113 2584 
Q 1688 2584 1439 2293 
Q 1191 2003 1191 1497 
Q 1191 994 1439 701 
Q 1688 409 2113 409 
Q 2538 409 2786 701 
Q 3034 994 3034 1497 
Q 3034 2003 2786 2293 
Q 2538 2584 2113 2584 
z
M 3366 4563 
L 3366 3988 
Q 3128 4100 2886 4159 
Q 2644 4219 2406 4219 
Q 1781 4219 1451 3797 
Q 1122 3375 1075 2522 
Q 1259 2794 1537 2939 
Q 1816 3084 2150 3084 
Q 2853 3084 3261 2657 
Q 3669 2231 3669 1497 
Q 3669 778 3244 343 
Q 2819 -91 2113 -91 
Q 1303 -91 875 529 
Q 447 1150 447 2328 
Q 447 3434 972 4092 
Q 1497 4750 2381 4750 
Q 2619 4750 2861 4703 
Q 3103 4656 3366 4563 
z
" transform="scale(0.015625)"/>
       </defs>
       <use xlink:href="#DejaVuSans-36"/>
      </g>
     </g>
    </g>
    <g id="xtick_5">
     <g id="line2d_13">
      <path d="M 100.9152 298.944 
L 100.9152 27.648 
" clip-path="url(#pbe03425de6)" style="fill: none; stroke: #b0b0b0; stroke-width: 0.8; stroke-linecap: square"/>
     </g>
     <g id="line2d_14">
      <defs>
       <path id="mf8023f6f1b" d="M 0 0 
L 0 2 
" style="stroke: #000000; stroke-width: 0.6"/>
      </defs>
      <g>
       <use xlink:href="#mf8023f6f1b" x="100.9152" y="298.944" style="stroke: #000000; stroke-width: 0.6"/>
      </g>
     </g>
    </g>
    <g id="xtick_6">
     <g id="line2d_15">
      <path d="M 187.5456 298.944 
L 187.5456 27.648 
" clip-path="url(#pbe03425de6)" style="fill: none; stroke: #b0b0b0; stroke-width: 0.8; stroke-linecap: square"/>
     </g>
     <g id="line2d_16">
      <g>
       <use xlink:href="#mf8023f6f1b" x="187.5456" y="298.944" style="stroke: #000000; stroke-width: 0.6"/>
      </g>
     </g>
    </g>
    <g id="xtick_7">
     <g id="line2d_17">
      <path d="M 274.176 298.944 
L 274.176 27.648 
" clip-path="url(#pbe03425de6)" style="fill: none; stroke: #b0b0b0; stroke-width: 0.8; stroke-linecap: square"/>
     </g>
     <g id="line2d_18">
      <g>
       <use xlink:href="#mf8023f6f1b" x="274.176" y="298.944" style="stroke: #000000; stroke-width: 0.6"/>
      </g>
     </g>
    </g>
    <g id="xtick_8">
     <g id="line2d_19">
      <path d="M 360.8064 298.944 
L 360.8064 27.648 
" clip-path="url(#pbe03425de6)" style="fill: none; stroke: #b0b0b0; stroke-width: 0.8; stroke-linecap: square"/>
     </g>
     <g id="line2d_20">
      <g>
       <use xlink:href="#mf8023f6f1b" x="360.8064" y="298.944" style="stroke: #000000; stroke-width: 0.6"/>
      </g>
     </g>
    </g>
    <g id="text_5">
     <!-- log10(# f-evals / dimension) -->
     <g transform="translate(88.823278 339.314156) scale(0.17 -0.17)">
      <defs>
       <path id="DejaVuSans-6c" d="M 603 4863 
L 1178 4863 
L 1178 0 
L 603 0 
L 603 4863 
z
" transform="scale(0.015625)"/>
       <path id="DejaVuSans-6f" d="M 1959 3097 
Q 1497 3097 1228 2736 
Q 959 2375 959 1747 
Q 959 1119 1226 758 
Q 1494 397 1959 397 
Q 2419 397 2687 759 
Q 2956 1122 2956 1747 
Q 2956 2369 2687 2733 
Q 2419 3097 1959 3097 
z
M 1959 3584 
Q 2709 3584 3137 3096 
Q 3566 2609 3566 1747 
Q 3566 888 3137 398 
Q 2709 -91 1959 -91 
Q 1206 -91 779 398 
Q 353 888 353 1747 
Q 353 2609 779 3096 
Q 1206 3584 1959 3584 
z
" transform="scale(0.015625)"/>
       <path id="DejaVuSans-67" d="M 2906 1791 
Q 2906 2416 2648 2759 
Q 2391 3103 1925 3103 
Q 1463 3103 1205 2759 
Q 947 2416 947 1791 
Q 947 1169 1205 825 
Q 1463 481 1925 481 
Q 2391 481 2648 825 
Q 2906 1169 2906 1791 
z
M 3481 434 
Q 3481 -459 3084 -895 
Q 2688 -1331 1869 -1331 
Q 1566 -1331 1297 -1286 
Q 1028 -1241 775 -1147 
L 775 -588 
Q 1028 -725 1275 -790 
Q 1522 -856 1778 -856 
Q 2344 -856 2625 -561 
Q 2906 -266 2906 331 
L 2906 616 
Q 2728 306 2450 153 
Q 2172 0 1784 0 
Q 1141 0 747 490 
Q 353 981 353 1791 
Q 353 2603 747 3093 
Q 1141 3584 1784 3584 
Q 2172 3584 2450 3431 
Q 2728 3278 2906 2969 
L 2906 3500 
L 3481 3500 
L 3481 434 
z
" transform="scale(0.015625)"/>
       <path id="DejaVuSans-31" d="M 794 531 
L 1825 531 
L 1825 4091 
L 703 3866 
L 703 4441 
L 1819 4666 
L 2450 4666 
L 2450 531 
L 3481 531 
L 3481 0 
L 794 0 
L 794 531 
z
" transform="scale(0.015625)"/>
       <path id="DejaVuSans-28" d="M 1984 4856 
Q 1566 4138 1362 3434 
Q 1159 2731 1159 2009 
Q 1159 1288 1364 580 
Q 1569 -128 1984 -844 
L 1484 -844 
Q 1016 -109 783 600 
Q 550 1309 550 2009 
Q 550 2706 781 3412 
Q 1013 4119 1484 4856 
L 1984 4856 
z
" transform="scale(0.015625)"/>
       <path id="DejaVuSans-23" d="M 3272 2816 
L 2363 2816 
L 2100 1772 
L 3016 1772 
L 3272 2816 
z
M 2803 4594 
L 2478 3297 
L 3391 3297 
L 3719 4594 
L 4219 4594 
L 3897 3297 
L 4872 3297 
L 4872 2816 
L 3775 2816 
L 3519 1772 
L 4513 1772 
L 4513 1294 
L 3397 1294 
L 3072 0 
L 2572 0 
L 2894 1294 
L 1978 1294 
L 1656 0 
L 1153 0 
L 1478 1294 
L 494 1294 
L 494 1772 
L 1594 1772 
L 1856 2816 
L 850 2816 
L 850 3297 
L 1978 3297 
L 2297 4594 
L 2803 4594 
z
" transform="scale(0.015625)"/>
       <path id="DejaVuSans-20" transform="scale(0.015625)"/>
       <path id="DejaVuSans-66" d="M 2375 4863 
L 2375 4384 
L 1825 4384 
Q 1516 4384 1395 4259 
Q 1275 4134 1275 3809 
L 1275 3500 
L 2222 3500 
L 2222 3053 
L 1275 3053 
L 1275 0 
L 697 0 
L 697 3053 
L 147 3053 
L 147 3500 
L 697 3500 
L 697 3744 
Q 697 4328 969 4595 
Q 1241 4863 1831 4863 
L 2375 4863 
z
" transform="scale(0.015625)"/>
       <path id="DejaVuSans-2d" d="M 313 2009 
L 1997 2009 
L 1997 1497 
L 313 1497 
L 313 2009 
z
" transform="scale(0.015625)"/>
       <path id="DejaVuSans-65" d="M 3597 1894 
L 3597 1613 
L 953 1613 
Q 991 1019 1311 708 
Q 1631 397 2203 397 
Q 2534 397 2845 478 
Q 3156 559 3463 722 
L 3463 178 
Q 3153 47 2828 -22 
Q 2503 -91 2169 -91 
Q 1331 -91 842 396 
Q 353 884 353 1716 
Q 353 2575 817 3079 
Q 1281 3584 2069 3584 
Q 2775 3584 3186 3129 
Q 3597 2675 3597 1894 
z
M 3022 2063 
Q 3016 2534 2758 2815 
Q 2500 3097 2075 3097 
Q 1594 3097 1305 2825 
Q 1016 2553 972 2059 
L 3022 2063 
z
" transform="scale(0.015625)"/>
       <path id="DejaVuSans-76" d="M 191 3500 
L 800 3500 
L 1894 563 
L 2988 3500 
L 3597 3500 
L 2284 0 
L 1503 0 
L 191 3500 
z
" transform="scale(0.015625)"/>
       <path id="DejaVuSans-61" d="M 2194 1759 
Q 1497 1759 1228 1600 
Q 959 1441 959 1056 
Q 959 750 1161 570 
Q 1363 391 1709 391 
Q 2188 391 2477 730 
Q 2766 1069 2766 1631 
L 2766 1759 
L 2194 1759 
z
M 3341 1997 
L 3341 0 
L 2766 0 
L 2766 531 
Q 2569 213 2275 61 
Q 1981 -91 1556 -91 
Q 1019 -91 701 211 
Q 384 513 384 1019 
Q 384 1609 779 1909 
Q 1175 2209 1959 2209 
L 2766 2209 
L 2766 2266 
Q 2766 2663 2505 2880 
Q 2244 3097 1772 3097 
Q 1472 3097 1187 3025 
Q 903 2953 641 2809 
L 641 3341 
Q 956 3463 1253 3523 
Q 1550 3584 1831 3584 
Q 2591 3584 2966 3190 
Q 3341 2797 3341 1997 
z
" transform="scale(0.015625)"/>
       <path id="DejaVuSans-73" d="M 2834 3397 
L 2834 2853 
Q 2591 2978 2328 3040 
Q 2066 3103 1784 3103 
Q 1356 3103 1142 2972 
Q 928 2841 928 2578 
Q 928 2378 1081 2264 
Q 1234 2150 1697 2047 
L 1894 2003 
Q 2506 1872 2764 1633 
Q 3022 1394 3022 966 
Q 3022 478 2636 193 
Q 2250 -91 1575 -91 
Q 1294 -91 989 -36 
Q 684 19 347 128 
L 347 722 
Q 666 556 975 473 
Q 1284 391 1588 391 
Q 1994 391 2212 530 
Q 2431 669 2431 922 
Q 2431 1156 2273 1281 
Q 2116 1406 1581 1522 
L 1381 1569 
Q 847 1681 609 1914 
Q 372 2147 372 2553 
Q 372 3047 722 3315 
Q 1072 3584 1716 3584 
Q 2034 3584 2315 3537 
Q 2597 3491 2834 3397 
z
" transform="scale(0.015625)"/>
       <path id="DejaVuSans-2f" d="M 1625 4666 
L 2156 4666 
L 531 -594 
L 0 -594 
L 1625 4666 
z
" transform="scale(0.015625)"/>
       <path id="DejaVuSans-64" d="M 2906 2969 
L 2906 4863 
L 3481 4863 
L 3481 0 
L 2906 0 
L 2906 525 
Q 2725 213 2448 61 
Q 2172 -91 1784 -91 
Q 1150 -91 751 415 
Q 353 922 353 1747 
Q 353 2572 751 3078 
Q 1150 3584 1784 3584 
Q 2172 3584 2448 3432 
Q 2725 3281 2906 2969 
z
M 947 1747 
Q 947 1113 1208 752 
Q 1469 391 1925 391 
Q 2381 391 2643 752 
Q 2906 1113 2906 1747 
Q 2906 2381 2643 2742 
Q 2381 3103 1925 3103 
Q 1469 3103 1208 2742 
Q 947 2381 947 1747 
z
" transform="scale(0.015625)"/>
       <path id="DejaVuSans-69" d="M 603 3500 
L 1178 3500 
L 1178 0 
L 603 0 
L 603 3500 
z
M 603 4863 
L 1178 4863 
L 1178 4134 
L 603 4134 
L 603 4863 
z
" transform="scale(0.015625)"/>
       <path id="DejaVuSans-6d" d="M 3328 2828 
Q 3544 3216 3844 3400 
Q 4144 3584 4550 3584 
Q 5097 3584 5394 3201 
Q 5691 2819 5691 2113 
L 5691 0 
L 5113 0 
L 5113 2094 
Q 5113 2597 4934 2840 
Q 4756 3084 4391 3084 
Q 3944 3084 3684 2787 
Q 3425 2491 3425 1978 
L 3425 0 
L 2847 0 
L 2847 2094 
Q 2847 2600 2669 2842 
Q 2491 3084 2119 3084 
Q 1678 3084 1418 2786 
Q 1159 2488 1159 1978 
L 1159 0 
L 581 0 
L 581 3500 
L 1159 3500 
L 1159 2956 
Q 1356 3278 1631 3431 
Q 1906 3584 2284 3584 
Q 2666 3584 2933 3390 
Q 3200 3197 3328 2828 
z
" transform="scale(0.015625)"/>
       <path id="DejaVuSans-6e" d="M 3513 2113 
L 3513 0 
L 2938 0 
L 2938 2094 
Q 2938 2591 2744 2837 
Q 2550 3084 2163 3084 
Q 1697 3084 1428 2787 
Q 1159 2491 1159 1978 
L 1159 0 
L 581 0 
L 581 3500 
L 1159 3500 
L 1159 2956 
Q 1366 3272 1645 3428 
Q 1925 3584 2291 3584 
Q 2894 3584 3203 3211 
Q 3513 2838 3513 2113 
z
" transform="scale(0.015625)"/>
       <path id="DejaVuSans-29" d="M 513 4856 
L 1013 4856 
Q 1481 4119 1714 3412 
Q 1947 2706 1947 2009 
Q 1947 1309 1714 600 
Q 1481 -109 1013 -844 
L 513 -844 
Q 928 -128 1133 580 
Q 1338 1288 1338 2009 
Q 1338 2731 1133 3434 
Q 928 4138 513 4856 
z
" transform="scale(0.015625)"/>
      </defs>
      <use xlink:href="#DejaVuSans-6c"/>
      <use xlink:href="#DejaVuSans-6f" x="27.783203"/>
      <use xlink:href="#DejaVuSans-67" x="88.964844"/>
      <use xlink:href="#DejaVuSans-31" x="152.441406"/>
      <use xlink:href="#DejaVuSans-30" x="216.064453"/>
      <use xlink:href="#DejaVuSans-28" x="279.6875"/>
      <use xlink:href="#DejaVuSans-23" x="318.701172"/>
      <use xlink:href="#DejaVuSans-20" x="402.490234"/>
      <use xlink:href="#DejaVuSans-66" x="434.277344"/>
      <use xlink:href="#DejaVuSans-2d" x="463.982422"/>
      <use xlink:href="#DejaVuSans-65" x="500.066406"/>
      <use xlink:href="#DejaVuSans-76" x="561.589844"/>
      <use xlink:href="#DejaVuSans-61" x="620.769531"/>
      <use xlink:href="#DejaVuSans-6c" x="682.048828"/>
      <use xlink:href="#DejaVuSans-73" x="709.832031"/>
      <use xlink:href="#DejaVuSans-20" x="761.931641"/>
      <use xlink:href="#DejaVuSans-2f" x="793.71875"/>
      <use xlink:href="#DejaVuSans-20" x="827.410156"/>
      <use xlink:href="#DejaVuSans-64" x="859.197266"/>
      <use xlink:href="#DejaVuSans-69" x="922.673828"/>
      <use xlink:href="#DejaVuSans-6d" x="950.457031"/>
      <use xlink:href="#DejaVuSans-65" x="1047.869141"/>
      <use xlink:href="#DejaVuSans-6e" x="1109.392578"/>
      <use xlink:href="#DejaVuSans-73" x="1172.771484"/>
      <use xlink:href="#DejaVuSans-69" x="1224.871094"/>
      <use xlink:href="#DejaVuSans-6f" x="1252.654297"/>
      <use xlink:href="#DejaVuSans-6e" x="1313.835938"/>
      <use xlink:href="#DejaVuSans-29" x="1377.214844"/>
     </g>
    </g>
   </g>
   <g id="matplotlib.axis_2">
    <g id="ytick_1">
     <g id="line2d_21">
      <path d="M 57.6 298.944 
L 360.8064 298.944 
" clip-path="url(#pbe03425de6)" style="fill: none; stroke: #b0b0b0; stroke-width: 0.8; stroke-linecap: square"/>
     </g>
     <g id="line2d_22">
      <defs>
       <path id="mbe87fcd3c6" d="M 0 0 
L -3.5 0 
" style="stroke: #000000; stroke-width: 0.8"/>
      </defs>
      <g>
       <use xlink:href="#mbe87fcd3c6" x="57.6" y="298.944" style="stroke: #000000; stroke-width: 0.8"/>
      </g>
     </g>
     <g id="text_6">
      <!-- 0.0 -->
      <g transform="translate(25.155 305.02275) scale(0.16 -0.16)">
       <defs>
        <path id="DejaVuSans-2e" d="M 684 794 
L 1344 794 
L 1344 0 
L 684 0 
L 684 794 
z
" transform="scale(0.015625)"/>
       </defs>
       <use xlink:href="#DejaVuSans-30"/>
       <use xlink:href="#DejaVuSans-2e" x="63.623047"/>
       <use xlink:href="#DejaVuSans-30" x="95.410156"/>
      </g>
     </g>
    </g>
    <g id="ytick_2">
     <g id="line2d_23">
      <path d="M 57.6 244.6848 
L 360.8064 244.6848 
" clip-path="url(#pbe03425de6)" style="fill: none; stroke: #b0b0b0; stroke-width: 0.8; stroke-linecap: square"/>
     </g>
     <g id="line2d_24">
      <g>
       <use xlink:href="#mbe87fcd3c6" x="57.6" y="244.6848" style="stroke: #000000; stroke-width: 0.8"/>
      </g>
     </g>
     <g id="text_7">
      <!-- 0.2 -->
      <g transform="translate(25.155 250.76355) scale(0.16 -0.16)">
       <use xlink:href="#DejaVuSans-30"/>
       <use xlink:href="#DejaVuSans-2e" x="63.623047"/>
       <use xlink:href="#DejaVuSans-32" x="95.410156"/>
      </g>
     </g>
    </g>
    <g id="ytick_3">
     <g id="line2d_25">
      <path d="M 57.6 190.4256 
L 360.8064 190.4256 
" clip-path="url(#pbe03425de6)" style="fill: none; stroke: #b0b0b0; stroke-width: 0.8; stroke-linecap: square"/>
     </g>
     <g id="line2d_26">
      <g>
       <use xlink:href="#mbe87fcd3c6" x="57.6" y="190.4256" style="stroke: #000000; stroke-width: 0.8"/>
      </g>
     </g>
     <g id="text_8">
      <!-- 0.4 -->
      <g transform="translate(25.155 196.50435) scale(0.16 -0.16)">
       <use xlink:href="#DejaVuSans-30"/>
       <use xlink:href="#DejaVuSans-2e" x="63.623047"/>
       <use xlink:href="#DejaVuSans-34" x="95.410156"/>
      </g>
     </g>
    </g>
    <g id="ytick_4">
     <g id="line2d_27">
      <path d="M 57.6 136.1664 
L 360.8064 136.1664 
" clip-path="url(#pbe03425de6)" style="fill: none; stroke: #b0b0b0; stroke-width: 0.8; stroke-linecap: square"/>
     </g>
     <g id="line2d_28">
      <g>
       <use xlink:href="#mbe87fcd3c6" x="57.6" y="136.1664" style="stroke: #000000; stroke-width: 0.8"/>
      </g>
     </g>
     <g id="text_9">
      <!-- 0.6 -->
      <g transform="translate(25.155 142.24515) scale(0.16 -0.16)">
       <use xlink:href="#DejaVuSans-30"/>
       <use xlink:href="#DejaVuSans-2e" x="63.623047"/>
       <use xlink:href="#DejaVuSans-36" x="95.410156"/>
      </g>
     </g>
    </g>
    <g id="ytick_5">
     <g id="line2d_29">
      <path d="M 57.6 81.9072 
L 360.8064 81.9072 
" clip-path="url(#pbe03425de6)" style="fill: none; stroke: #b0b0b0; stroke-width: 0.8; stroke-linecap: square"/>
     </g>
     <g id="line2d_30">
      <g>
       <use xlink:href="#mbe87fcd3c6" x="57.6" y="81.9072" style="stroke: #000000; stroke-width: 0.8"/>
      </g>
     </g>
     <g id="text_10">
      <!-- 0.8 -->
      <g transform="translate(25.155 87.98595) scale(0.16 -0.16)">
       <defs>
        <path id="DejaVuSans-38" d="M 2034 2216 
Q 1584 2216 1326 1975 
Q 1069 1734 1069 1313 
Q 1069 891 1326 650 
Q 1584 409 2034 409 
Q 2484 409 2743 651 
Q 3003 894 3003 1313 
Q 3003 1734 2745 1975 
Q 2488 2216 2034 2216 
z
M 1403 2484 
Q 997 2584 770 2862 
Q 544 3141 544 3541 
Q 544 4100 942 4425 
Q 1341 4750 2034 4750 
Q 2731 4750 3128 4425 
Q 3525 4100 3525 3541 
Q 3525 3141 3298 2862 
Q 3072 2584 2669 2484 
Q 3125 2378 3379 2068 
Q 3634 1759 3634 1313 
Q 3634 634 3220 271 
Q 2806 -91 2034 -91 
Q 1263 -91 848 271 
Q 434 634 434 1313 
Q 434 1759 690 2068 
Q 947 2378 1403 2484 
z
M 1172 3481 
Q 1172 3119 1398 2916 
Q 1625 2713 2034 2713 
Q 2441 2713 2670 2916 
Q 2900 3119 2900 3481 
Q 2900 3844 2670 4047 
Q 2441 4250 2034 4250 
Q 1625 4250 1398 4047 
Q 1172 3844 1172 3481 
z
" transform="scale(0.015625)"/>
       </defs>
       <use xlink:href="#DejaVuSans-30"/>
       <use xlink:href="#DejaVuSans-2e" x="63.623047"/>
       <use xlink:href="#DejaVuSans-38" x="95.410156"/>
      </g>
     </g>
    </g>
    <g id="ytick_6">
     <g id="line2d_31">
      <path d="M 57.6 27.648 
L 360.8064 27.648 
" clip-path="url(#pbe03425de6)" style="fill: none; stroke: #b0b0b0; stroke-width: 0.8; stroke-linecap: square"/>
     </g>
     <g id="line2d_32">
      <g>
       <use xlink:href="#mbe87fcd3c6" x="57.6" y="27.648" style="stroke: #000000; stroke-width: 0.8"/>
      </g>
     </g>
     <g id="text_11">
      <!-- 1.0 -->
      <g transform="translate(25.155 33.72675) scale(0.16 -0.16)">
       <use xlink:href="#DejaVuSans-31"/>
       <use xlink:href="#DejaVuSans-2e" x="63.623047"/>
       <use xlink:href="#DejaVuSans-30" x="95.410156"/>
      </g>
     </g>
    </g>
    <g id="text_12">
     <!-- Fraction of function,target pairs -->
     <g transform="translate(17.619531 297.681) rotate(-90) scale(0.17 -0.17)">
      <defs>
       <path id="DejaVuSans-46" d="M 628 4666 
L 3309 4666 
L 3309 4134 
L 1259 4134 
L 1259 2759 
L 3109 2759 
L 3109 2228 
L 1259 2228 
L 1259 0 
L 628 0 
L 628 4666 
z
" transform="scale(0.015625)"/>
       <path id="DejaVuSans-72" d="M 2631 2963 
Q 2534 3019 2420 3045 
Q 2306 3072 2169 3072 
Q 1681 3072 1420 2755 
Q 1159 2438 1159 1844 
L 1159 0 
L 581 0 
L 581 3500 
L 1159 3500 
L 1159 2956 
Q 1341 3275 1631 3429 
Q 1922 3584 2338 3584 
Q 2397 3584 2469 3576 
Q 2541 3569 2628 3553 
L 2631 2963 
z
" transform="scale(0.015625)"/>
       <path id="DejaVuSans-63" d="M 3122 3366 
L 3122 2828 
Q 2878 2963 2633 3030 
Q 2388 3097 2138 3097 
Q 1578 3097 1268 2742 
Q 959 2388 959 1747 
Q 959 1106 1268 751 
Q 1578 397 2138 397 
Q 2388 397 2633 464 
Q 2878 531 3122 666 
L 3122 134 
Q 2881 22 2623 -34 
Q 2366 -91 2075 -91 
Q 1284 -91 818 406 
Q 353 903 353 1747 
Q 353 2603 823 3093 
Q 1294 3584 2113 3584 
Q 2378 3584 2631 3529 
Q 2884 3475 3122 3366 
z
" transform="scale(0.015625)"/>
       <path id="DejaVuSans-74" d="M 1172 4494 
L 1172 3500 
L 2356 3500 
L 2356 3053 
L 1172 3053 
L 1172 1153 
Q 1172 725 1289 603 
Q 1406 481 1766 481 
L 2356 481 
L 2356 0 
L 1766 0 
Q 1100 0 847 248 
Q 594 497 594 1153 
L 594 3053 
L 172 3053 
L 172 3500 
L 594 3500 
L 594 4494 
L 1172 4494 
z
" transform="scale(0.015625)"/>
       <path id="DejaVuSans-75" d="M 544 1381 
L 544 3500 
L 1119 3500 
L 1119 1403 
Q 1119 906 1312 657 
Q 1506 409 1894 409 
Q 2359 409 2629 706 
Q 2900 1003 2900 1516 
L 2900 3500 
L 3475 3500 
L 3475 0 
L 2900 0 
L 2900 538 
Q 2691 219 2414 64 
Q 2138 -91 1772 -91 
Q 1169 -91 856 284 
Q 544 659 544 1381 
z
M 1991 3584 
L 1991 3584 
z
" transform="scale(0.015625)"/>
       <path id="DejaVuSans-2c" d="M 750 794 
L 1409 794 
L 1409 256 
L 897 -744 
L 494 -744 
L 750 256 
L 750 794 
z
" transform="scale(0.015625)"/>
       <path id="DejaVuSans-70" d="M 1159 525 
L 1159 -1331 
L 581 -1331 
L 581 3500 
L 1159 3500 
L 1159 2969 
Q 1341 3281 1617 3432 
Q 1894 3584 2278 3584 
Q 2916 3584 3314 3078 
Q 3713 2572 3713 1747 
Q 3713 922 3314 415 
Q 2916 -91 2278 -91 
Q 1894 -91 1617 61 
Q 1341 213 1159 525 
z
M 3116 1747 
Q 3116 2381 2855 2742 
Q 2594 3103 2138 3103 
Q 1681 3103 1420 2742 
Q 1159 2381 1159 1747 
Q 1159 1113 1420 752 
Q 1681 391 2138 391 
Q 2594 391 2855 752 
Q 3116 1113 3116 1747 
z
" transform="scale(0.015625)"/>
      </defs>
      <use xlink:href="#DejaVuSans-46"/>
      <use xlink:href="#DejaVuSans-72" x="50.269531"/>
      <use xlink:href="#DejaVuSans-61" x="91.382812"/>
      <use xlink:href="#DejaVuSans-63" x="152.662109"/>
      <use xlink:href="#DejaVuSans-74" x="207.642578"/>
      <use xlink:href="#DejaVuSans-69" x="246.851562"/>
      <use xlink:href="#DejaVuSans-6f" x="274.634766"/>
      <use xlink:href="#DejaVuSans-6e" x="335.816406"/>
      <use xlink:href="#DejaVuSans-20" x="399.195312"/>
      <use xlink:href="#DejaVuSans-6f" x="430.982422"/>
      <use xlink:href="#DejaVuSans-66" x="492.164062"/>
      <use xlink:href="#DejaVuSans-20" x="527.369141"/>
      <use xlink:href="#DejaVuSans-66" x="559.15625"/>
      <use xlink:href="#DejaVuSans-75" x="594.361328"/>
      <use xlink:href="#DejaVuSans-6e" x="657.740234"/>
      <use xlink:href="#DejaVuSans-63" x="721.119141"/>
      <use xlink:href="#DejaVuSans-74" x="776.099609"/>
      <use xlink:href="#DejaVuSans-69" x="815.308594"/>
      <use xlink:href="#DejaVuSans-6f" x="843.091797"/>
      <use xlink:href="#DejaVuSans-6e" x="904.273438"/>
      <use xlink:href="#DejaVuSans-2c" x="967.652344"/>
      <use xlink:href="#DejaVuSans-74" x="999.439453"/>
      <use xlink:href="#DejaVuSans-61" x="1038.648438"/>
      <use xlink:href="#DejaVuSans-72" x="1099.927734"/>
      <use xlink:href="#DejaVuSans-67" x="1139.291016"/>
      <use xlink:href="#DejaVuSans-65" x="1202.767578"/>
      <use xlink:href="#DejaVuSans-74" x="1264.291016"/>
      <use xlink:href="#DejaVuSans-20" x="1303.5"/>
      <use xlink:href="#DejaVuSans-70" x="1335.287109"/>
      <use xlink:href="#DejaVuSans-61" x="1398.763672"/>
      <use xlink:href="#DejaVuSans-69" x="1460.042969"/>
      <use xlink:href="#DejaVuSans-72" x="1487.826172"/>
      <use xlink:href="#DejaVuSans-73" x="1528.939453"/>
     </g>
    </g>
   </g>
   <g id="line2d_33">
    <defs>
     <path id="m5d9ef95549" d="M 0 1.5 
C 0.397805 1.5 0.77937 1.341951 1.06066 1.06066 
C 1.341951 0.77937 1.5 0.397805 1.5 0 
C 1.5 -0.397805 1.341951 -0.77937 1.06066 -1.06066 
C 0.77937 -1.341951 0.397805 -1.5 0 -1.5 
C -0.397805 -1.5 -0.77937 -1.341951 -1.06066 -1.06066 
C -1.341951 -0.77937 -1.5 -0.397805 -1.5 0 
C -1.5 0.397805 -1.341951 0.77937 -1.06066 1.06066 
C -0.77937 1.341951 -0.397805 1.5 0 1.5 
z
" style="stroke: #f5deb3"/>
    </defs>
    <g>
     <use xlink:href="#m5d9ef95549" x="277.517549" y="60.390621" style="fill: #f5deb3; stroke: #f5deb3"/>
     <use xlink:href="#m5d9ef95549" x="277.517549" y="60.390621" style="fill: #f5deb3; stroke: #f5deb3"/>
    </g>
   </g>
   <g id="line2d_34">
    <defs>
     <path id="m0338097d0d" d="M 0 1.5 
C 0.397805 1.5 0.77937 1.341951 1.06066 1.06066 
C 1.341951 0.77937 1.5 0.397805 1.5 0 
C 1.5 -0.397805 1.341951 -0.77937 1.06066 -1.06066 
C 0.77937 -1.341951 0.397805 -1.5 0 -1.5 
C -0.397805 -1.5 -0.77937 -1.341951 -1.06066 -1.06066 
C -1.341951 -0.77937 -1.5 -0.397805 -1.5 0 
C -1.5 0.397805 -1.341951 0.77937 -1.06066 1.06066 
C -0.77937 1.341951 -0.397805 1.5 0 1.5 
z
" style="stroke: #000080"/>
    </defs>
    <g>
     <use xlink:href="#m0338097d0d" x="221.106599" y="178.264055" style="fill: #000080; stroke: #000080"/>
     <use xlink:href="#m0338097d0d" x="221.106599" y="178.264055" style="fill: #000080; stroke: #000080"/>
    </g>
   </g>
   <g id="line2d_35">
    <path d="M 36.933397 298.944 
L 36.933397 289.588966 
L 57.6 289.588966 
L 57.6 288.653462 
L 67.209423 288.653462 
L 67.209423 287.250207 
L 70.639174 287.250207 
L 70.639174 286.314703 
L 73.538988 286.314703 
L 73.538988 285.3792 
L 76.050921 285.3792 
L 76.050921 283.508193 
L 78.266603 283.508193 
L 78.266603 283.040441 
L 80.248597 283.040441 
L 80.248597 281.637186 
L 82.04153 281.637186 
L 82.04153 280.233931 
L 89.090095 280.233931 
L 89.090095 279.766179 
L 90.230539 279.766179 
L 90.230539 279.298428 
L 96.717523 279.298428 
L 96.717523 278.830676 
L 97.485448 278.830676 
L 97.485448 277.895172 
L 108.542628 277.895172 
L 108.542628 277.427421 
L 108.956085 277.427421 
L 108.956085 276.491917 
L 112.656511 276.491917 
L 112.656511 276.024166 
L 114.265316 276.024166 
L 114.265316 275.088662 
L 114.872193 275.088662 
L 114.872193 274.62091 
L 116.030193 274.62091 
L 116.030193 274.153159 
L 124.119844 274.153159 
L 124.119844 273.217655 
L 125.695686 273.217655 
L 125.695686 272.282152 
L 128.499277 272.282152 
L 128.499277 271.8144 
L 134.091039 271.8144 
L 134.091039 271.346648 
L 134.304809 271.346648 
L 134.304809 269.943393 
L 135.835047 269.943393 
L 135.835047 269.475641 
L 136.413909 269.475641 
L 136.508678 268.072386 
L 136.88305 268.072386 
L 136.88305 267.604634 
L 137.067478 267.604634 
L 137.067478 267.136883 
L 137.610157 267.136883 
L 137.610157 266.669131 
L 138.73486 266.669131 
L 138.73486 266.201379 
L 138.902075 266.201379 
L 138.902075 265.733628 
L 139.636676 265.733628 
L 139.636676 265.265876 
L 140.420604 265.265876 
L 140.420604 264.330372 
L 141.025043 264.330372 
L 141.025043 263.862621 
L 142.317949 263.862621 
L 142.317949 262.927117 
L 145.326529 262.927117 
L 145.326529 262.459366 
L 146.859539 262.459366 
L 146.859539 261.991614 
L 148.175569 261.991614 
L 148.226342 260.588359 
L 149.214052 260.588359 
L 149.214052 260.120607 
L 150.8268 260.120607 
L 150.8268 259.185103 
L 151.00261 259.185103 
L 151.046307 257.781848 
L 151.562904 257.781848 
L 151.562904 257.314097 
L 152.271285 257.314097 
L 152.271285 256.846345 
L 152.635783 256.846345 
L 152.635783 256.378593 
L 153.032666 256.378593 
L 153.032666 255.910841 
L 153.49813 255.910841 
L 153.49813 254.975338 
L 153.802162 254.975338 
L 153.802162 254.507586 
L 154.757642 254.507586 
L 154.757642 254.039834 
L 155.147716 254.039834 
L 155.147716 253.572083 
L 155.322384 253.572083 
L 155.322384 253.104331 
L 155.870664 253.104331 
L 155.870664 252.636579 
L 156.304668 252.636579 
L 156.304668 252.168828 
L 158.424766 252.168828 
L 158.424766 251.233324 
L 159.119425 251.233324 
L 159.119425 250.765572 
L 160.061585 250.765572 
L 160.061585 249.830069 
L 160.303279 249.830069 
L 160.303279 249.362317 
L 161.010268 249.362317 
L 161.010268 248.894566 
L 161.341421 248.894566 
L 161.442152 247.49131 
L 162.205054 247.49131 
L 162.205054 247.023559 
L 162.728291 247.023559 
L 162.728291 246.555807 
L 163.843882 246.555807 
L 163.843882 246.088055 
L 164.559567 246.088055 
L 164.559567 245.152552 
L 166.247742 245.152552 
L 166.247742 244.6848 
L 167.214594 244.6848 
L 167.214594 243.749297 
L 169.524487 243.749297 
L 169.524487 243.281545 
L 170.557912 243.281545 
L 170.557912 242.346041 
L 170.940741 242.346041 
L 170.940741 241.87829 
L 171.211632 241.87829 
L 171.211632 241.410538 
L 171.828941 241.410538 
L 171.828941 240.475034 
L 172.215347 240.475034 
L 172.229507 239.539531 
L 172.510491 239.539531 
L 172.510491 238.604028 
L 172.746072 238.604028 
L 172.746072 238.136276 
L 173.751559 238.136276 
L 173.751559 237.200772 
L 174.468765 237.200772 
L 174.468765 236.265269 
L 174.693607 236.265269 
L 174.693607 235.329766 
L 174.915793 235.329766 
L 174.915793 234.862014 
L 175.602554 234.862014 
L 175.602554 233.92651 
L 176.446989 233.92651 
L 176.446989 233.458759 
L 176.761083 233.458759 
L 176.761083 232.523255 
L 177.588098 232.523255 
L 177.588098 232.055503 
L 177.852384 232.055503 
L 177.852384 231.587752 
L 178.236837 231.587752 
L 178.236837 230.652248 
L 178.431246 230.652248 
L 178.431246 230.184497 
L 179.509312 230.184497 
L 179.509312 228.781241 
L 180.428504 228.781241 
L 180.428504 228.31349 
L 180.692116 228.31349 
L 180.692116 227.377986 
L 180.93427 227.377986 
L 180.93427 226.442483 
L 181.102826 226.442483 
L 181.102826 225.974731 
L 181.974326 225.974731 
L 181.974326 225.506979 
L 182.133854 225.506979 
L 182.133854 225.039228 
L 182.522758 225.039228 
L 182.522758 224.103724 
L 183.198406 224.103724 
L 183.198406 223.168221 
L 183.418335 223.168221 
L 183.418335 222.232717 
L 183.542864 222.232717 
L 183.542864 221.764966 
L 183.658865 221.764966 
L 183.658865 220.829462 
L 184.258276 220.829462 
L 184.258276 219.893959 
L 184.451445 219.893959 
L 184.451445 218.958455 
L 185.847115 218.958455 
L 185.847115 217.5552 
L 186.368281 217.5552 
L 186.454863 216.151945 
L 186.527815 216.151945 
L 186.527815 215.216441 
L 186.991998 215.216441 
L 186.991998 214.280938 
L 187.356538 214.280938 
L 187.356538 213.345434 
L 187.862709 213.345434 
L 187.862709 212.409931 
L 188.003988 212.409931 
L 188.003988 211.474428 
L 188.511134 211.474428 
L 188.511134 211.006676 
L 189.097576 211.006676 
L 189.097576 210.538924 
L 189.406814 210.538924 
L 189.406814 209.603421 
L 189.59332 209.603421 
L 189.59332 208.667917 
L 189.705461 208.667917 
L 189.711051 206.79691 
L 190.158374 206.79691 
L 190.158374 206.329159 
L 190.712249 206.329159 
L 190.802117 204.458152 
L 190.860039 204.458152 
L 190.860039 203.9904 
L 191.147005 203.9904 
L 191.147005 203.054897 
L 191.937906 203.054897 
L 191.937906 202.587145 
L 192.184522 202.587145 
L 192.184522 202.119393 
L 192.335815 202.119393 
L 192.335815 201.651641 
L 192.649148 201.651641 
L 192.649148 200.716138 
L 192.962049 200.716138 
L 192.962049 199.780634 
L 193.111905 199.780634 
L 193.111905 199.312883 
L 193.421853 199.312883 
L 193.421853 198.377379 
L 193.663468 198.377379 
L 193.663468 197.909628 
L 193.991259 197.909628 
L 193.991259 197.441876 
L 194.252074 197.441876 
L 194.252074 196.974124 
L 194.810039 196.974124 
L 194.899324 196.038621 
L 195.206441 196.038621 
L 195.206441 195.570869 
L 195.82623 195.570869 
L 195.846407 194.167614 
L 195.954994 194.167614 
L 195.954994 193.23211 
L 196.142532 193.23211 
L 196.142532 192.764359 
L 196.874531 192.764359 
L 196.97356 191.361103 
L 197.301184 191.361103 
L 197.3757 189.957848 
L 198.360861 189.957848 
L 198.360861 189.490097 
L 198.64106 189.490097 
L 198.64106 189.022345 
L 199.751418 189.022345 
L 199.751418 188.554593 
L 200.124579 188.554593 
L 200.22072 187.61909 
L 200.550255 187.61909 
L 200.550255 187.151338 
L 201.265211 187.151338 
L 201.265211 186.683586 
L 201.886817 186.683586 
L 201.886817 185.748083 
L 202.428941 185.748083 
L 202.428941 185.280331 
L 202.883878 185.280331 
L 202.991776 182.473821 
L 203.142896 182.473821 
L 203.142896 182.006069 
L 205.164803 182.006069 
L 205.164803 181.538317 
L 206.605003 181.538317 
L 206.605003 181.070566 
L 213.070347 181.070566 
L 213.070347 180.602814 
L 215.058637 180.602814 
L 215.058637 179.66731 
L 215.52488 179.66731 
L 215.52488 179.199559 
L 221.106599 179.199559 
L 221.106599 178.264055 
L 360.8064 178.264055 
L 360.8064 178.264055 
" style="fill: none; stroke: #000080; stroke-width: 1.5; stroke-linecap: square"/>
   </g>
   <g id="line2d_36">
    <defs>
     <path id="me92f3f0a23" d="M 0 6 
C 1.591219 6 3.117479 5.367802 4.242641 4.242641 
C 5.367802 3.117479 6 1.591219 6 0 
C 6 -1.591219 5.367802 -3.117479 4.242641 -4.242641 
C 3.117479 -5.367802 1.591219 -6 0 -6 
C -1.591219 -6 -3.117479 -5.367802 -4.242641 -4.242641 
C -5.367802 -3.117479 -6 -1.591219 -6 0 
C -6 1.591219 -5.367802 3.117479 -4.242641 4.242641 
C -3.117479 5.367802 -1.591219 6 0 6 
z
" style="stroke: #000080; stroke-width: 1.5"/>
    </defs>
    <g>
     <use xlink:href="#me92f3f0a23" x="82.04153" y="281.637186" style="fill-opacity: 0; stroke: #000080; stroke-width: 1.5"/>
     <use xlink:href="#me92f3f0a23" x="171.828941" y="240.475034" style="fill-opacity: 0; stroke: #000080; stroke-width: 1.5"/>
     <use xlink:href="#me92f3f0a23" x="221.106599" y="179.199559" style="fill-opacity: 0; stroke: #000080; stroke-width: 1.5"/>
     <use xlink:href="#me92f3f0a23" x="221.106599" y="178.264055" style="fill-opacity: 0; stroke: #000080; stroke-width: 1.5"/>
     <use xlink:href="#me92f3f0a23" x="221.106599" y="178.264055" style="fill-opacity: 0; stroke: #000080; stroke-width: 1.5"/>
     <use xlink:href="#me92f3f0a23" x="360.8064" y="178.264055" style="fill-opacity: 0; stroke: #000080; stroke-width: 1.5"/>
    </g>
   </g>
   <g id="line2d_37">
    <path style="fill: none; stroke: #000080; stroke-width: 1.5; stroke-linecap: square"/>
    <g/>
   </g>
   <g id="line2d_38">
    <path d="M 230.867069 178.264055 
" clip-path="url(#pbe03425de6)" style="fill: none; stroke: #000080; stroke-width: 1.5; stroke-linecap: square"/>
    <defs>
     <path id="me656e06b22" d="M -12 12 
L 12 -12 
M -12 -12 
L 12 12 
" style="stroke: #000080"/>
    </defs>
    <g clip-path="url(#pbe03425de6)">
     <use xlink:href="#me656e06b22" x="230.867069" y="178.264055" style="fill: #000080; stroke: #000080"/>
    </g>
   </g>
   <g id="line2d_39">
    <defs>
     <path id="m8c94b9957b" d="M 0 1.5 
C 0.397805 1.5 0.77937 1.341951 1.06066 1.06066 
C 1.341951 0.77937 1.5 0.397805 1.5 0 
C 1.5 -0.397805 1.341951 -0.77937 1.06066 -1.06066 
C 0.77937 -1.341951 0.397805 -1.5 0 -1.5 
C -0.397805 -1.5 -0.77937 -1.341951 -1.06066 -1.06066 
C -1.341951 -0.77937 -1.5 -0.397805 -1.5 0 
C -1.5 0.397805 -1.341951 0.77937 -1.06066 1.06066 
C -0.77937 1.341951 -0.397805 1.5 0 1.5 
z
" style="stroke: #ff00ff"/>
    </defs>
    <g>
     <use xlink:href="#m8c94b9957b" x="197.185097" y="187.61909" style="fill: #ff00ff; stroke: #ff00ff"/>
     <use xlink:href="#m8c94b9957b" x="197.185097" y="187.61909" style="fill: #ff00ff; stroke: #ff00ff"/>
    </g>
   </g>
   <g id="line2d_40">
    <path d="M 36.933397 298.944 
L 36.933397 289.588966 
L 49.972572 289.588966 
L 49.972572 286.782455 
L 57.6 286.782455 
L 57.6 286.314703 
L 63.011746 286.314703 
L 63.011746 284.911448 
L 67.209423 284.911448 
L 67.209423 282.57269 
L 70.639174 282.57269 
L 70.639174 282.104938 
L 76.050921 282.104938 
L 76.050921 281.637186 
L 80.248597 281.637186 
L 80.248597 281.169434 
L 90.230539 281.169434 
L 90.230539 280.233931 
L 92.322865 280.233931 
L 92.322865 279.766179 
L 97.485448 279.766179 
L 97.485448 279.298428 
L 102.12927 279.298428 
L 102.12927 278.830676 
L 107.244765 278.830676 
L 107.244765 278.362924 
L 108.542628 278.362924 
L 108.542628 277.895172 
L 108.956085 277.895172 
L 108.956085 276.491917 
L 110.524623 276.491917 
L 110.524623 275.556414 
L 110.897141 275.556414 
L 110.897141 274.62091 
L 111.97238 274.62091 
L 111.97238 273.685407 
L 112.989468 273.685407 
L 112.989468 273.217655 
L 113.638206 273.217655 
L 113.638206 272.749903 
L 113.954374 272.749903 
L 113.954374 271.8144 
L 115.460102 271.8144 
L 115.460102 271.346648 
L 116.030193 271.346648 
L 116.030193 270.878897 
L 118.401214 270.878897 
L 118.401214 270.411145 
L 121.371615 270.411145 
L 121.371615 269.943393 
L 121.99526 269.943393 
L 121.99526 269.475641 
L 122.598891 269.475641 
L 122.598891 268.540138 
L 122.990812 268.540138 
L 122.990812 268.072386 
L 123.374735 268.072386 
L 123.374735 267.604634 
L 126.192937 267.604634 
L 126.192937 267.136883 
L 127.761474 267.136883 
L 127.761474 266.201379 
L 127.911368 266.201379 
L 127.911368 264.798124 
L 128.928456 264.798124 
L 128.928456 263.862621 
L 129.348062 263.862621 
L 129.348062 262.927117 
L 131.563744 262.927117 
L 131.563744 262.459366 
L 135.034434 262.459366 
L 135.034434 261.991614 
L 135.237805 261.991614 
L 135.237805 261.523862 
L 135.932769 261.523862 
L 135.932769 261.05611 
L 136.222928 261.05611 
L 136.222928 260.120607 
L 136.88305 260.120607 
L 136.88305 259.185103 
L 137.340774 259.185103 
L 137.340774 258.717352 
L 137.610157 258.717352 
L 137.699101 257.314097 
L 138.650692 257.314097 
L 138.650692 256.846345 
L 138.818654 256.846345 
L 138.902075 255.910841 
L 139.716555 255.910841 
L 139.796097 254.507586 
L 140.420604 254.507586 
L 140.420604 254.039834 
L 141.320133 254.039834 
L 141.320133 253.104331 
L 141.682602 253.104331 
L 141.682602 252.636579 
L 142.317949 252.636579 
L 142.317949 252.168828 
L 142.797687 252.168828 
L 142.797687 251.233324 
L 144.786447 251.233324 
L 144.786447 250.765572 
L 145.385592 250.765572 
L 145.385592 250.297821 
L 146.080251 250.297821 
L 146.080251 249.830069 
L 147.237402 249.830069 
L 147.290768 248.894566 
L 147.712333 248.894566 
L 147.816265 247.959062 
L 148.175569 247.959062 
L 148.175569 247.023559 
L 148.57797 247.023559 
L 148.57797 246.555807 
L 148.726679 246.555807 
L 148.726679 246.088055 
L 149.782707 246.088055 
L 149.782707 245.620303 
L 150.515122 245.620303 
L 150.515122 244.6848 
L 151.562904 244.6848 
L 151.562904 244.217048 
L 152.595631 244.217048 
L 152.595631 243.281545 
L 153.49813 243.281545 
L 153.49813 242.346041 
L 155.701037 242.346041 
L 155.701037 240.475034 
L 156.501649 240.475034 
L 156.501649 239.539531 
L 157.825621 239.539531 
L 157.886402 238.136276 
L 158.306454 238.136276 
L 158.306454 237.200772 
L 158.424766 237.200772 
L 158.424766 236.265269 
L 158.542339 236.265269 
L 158.542339 235.329766 
L 158.861925 235.329766 
L 158.861925 234.862014 
L 159.596403 234.862014 
L 159.596403 234.394262 
L 161.41702 234.394262 
L 161.41702 233.92651 
L 161.567313 233.92651 
L 161.567313 232.991007 
L 163.260183 232.991007 
L 163.260183 232.055503 
L 163.59914 232.055503 
L 163.59914 231.12 
L 163.755253 231.12 
L 163.755253 230.652248 
L 164.237627 230.652248 
L 164.237627 229.716745 
L 164.623299 229.716745 
L 164.623299 228.781241 
L 165.063478 228.781241 
L 165.063478 228.31349 
L 165.228492 228.31349 
L 165.228492 227.377986 
L 165.35131 227.377986 
L 165.35131 226.442483 
L 167.343504 226.442483 
L 167.343504 225.974731 
L 168.256952 225.974731 
L 168.256952 225.039228 
L 168.909839 225.039228 
L 168.909839 224.103724 
L 169.327334 224.103724 
L 169.327334 223.635972 
L 169.638546 223.635972 
L 169.638546 223.168221 
L 170.103845 223.168221 
L 170.103845 222.232717 
L 170.604265 222.232717 
L 170.604265 221.764966 
L 171.166753 221.764966 
L 171.166753 220.829462 
L 171.901099 220.829462 
L 171.901099 219.893959 
L 172.101681 219.893959 
L 172.101681 218.958455 
L 173.395744 218.958455 
L 173.395744 218.022952 
L 173.803705 218.022952 
L 173.803705 217.087448 
L 174.718424 217.087448 
L 174.718424 216.151945 
L 175.062472 216.151945 
L 175.062472 215.216441 
L 176.816624 215.216441 
L 176.838794 214.280938 
L 176.949256 214.280938 
L 176.949256 213.813186 
L 177.341632 213.813186 
L 177.341632 212.877683 
L 177.977934 212.877683 
L 177.977934 211.942179 
L 178.784194 211.942179 
L 178.784194 211.006676 
L 180.253768 211.006676 
L 180.253768 210.538924 
L 181.023172 210.538924 
L 181.023172 210.071172 
L 181.608215 210.071172 
L 181.608215 209.135669 
L 182.092004 209.135669 
L 182.092004 208.667917 
L 182.669597 208.667917 
L 182.718289 206.79691 
L 183.055653 206.79691 
L 183.055653 205.861407 
L 183.222093 205.861407 
L 183.222093 204.925903 
L 183.60482 204.925903 
L 183.666573 203.054897 
L 183.820075 203.054897 
L 183.820075 202.119393 
L 185.047994 202.119393 
L 185.047994 201.651641 
L 185.233261 201.651641 
L 185.233261 201.18389 
L 185.936123 201.18389 
L 185.997499 198.845131 
L 186.394964 198.845131 
L 186.394964 197.909628 
L 186.666305 197.909628 
L 186.666305 197.441876 
L 187.152754 197.441876 
L 187.152754 196.974124 
L 187.274017 196.974124 
L 187.337526 196.038621 
L 187.862709 196.038621 
L 187.868873 194.635366 
L 188.162427 194.635366 
L 188.265306 193.699862 
L 188.46939 193.699862 
L 188.576544 192.764359 
L 188.706688 192.764359 
L 188.706688 192.296607 
L 189.132188 192.296607 
L 189.132188 191.828855 
L 189.42952 191.828855 
L 189.42952 190.893352 
L 189.761282 190.893352 
L 189.761282 190.4256 
L 189.944323 190.4256 
L 189.944323 189.957848 
L 191.342746 189.957848 
L 191.34787 189.022345 
L 191.64268 189.022345 
L 191.64268 188.554593 
L 195.051406 188.554593 
L 195.051406 188.086841 
L 197.185097 188.086841 
L 197.185097 187.61909 
L 360.8064 187.61909 
L 360.8064 187.61909 
" style="fill: none; stroke: #ff00ff; stroke-width: 1.5; stroke-linecap: square"/>
   </g>
   <g id="line2d_41">
    <defs>
     <path id="m423dfee8de" d="M -0 8.485281 
L 5.091169 0 
L 0 -8.485281 
L -5.091169 -0 
z
" style="stroke: #ff00ff; stroke-width: 1.5; stroke-linejoin: miter"/>
    </defs>
    <g>
     <use xlink:href="#m423dfee8de" x="128.928456" y="264.798124" style="fill-opacity: 0; stroke: #ff00ff; stroke-width: 1.5; stroke-linejoin: miter"/>
     <use xlink:href="#m423dfee8de" x="185.047994" y="201.651641" style="fill-opacity: 0; stroke: #ff00ff; stroke-width: 1.5; stroke-linejoin: miter"/>
     <use xlink:href="#m423dfee8de" x="197.185097" y="188.086841" style="fill-opacity: 0; stroke: #ff00ff; stroke-width: 1.5; stroke-linejoin: miter"/>
     <use xlink:href="#m423dfee8de" x="197.185097" y="187.61909" style="fill-opacity: 0; stroke: #ff00ff; stroke-width: 1.5; stroke-linejoin: miter"/>
     <use xlink:href="#m423dfee8de" x="197.185097" y="187.61909" style="fill-opacity: 0; stroke: #ff00ff; stroke-width: 1.5; stroke-linejoin: miter"/>
     <use xlink:href="#m423dfee8de" x="360.8064" y="187.61909" style="fill-opacity: 0; stroke: #ff00ff; stroke-width: 1.5; stroke-linejoin: miter"/>
    </g>
   </g>
   <g id="line2d_42">
    <path style="fill: none; stroke: #ff00ff; stroke-width: 1.5; stroke-linecap: square"/>
    <g/>
   </g>
   <g id="line2d_43">
    <path d="M 230.872084 187.61909 
" clip-path="url(#pbe03425de6)" style="fill: none; stroke: #ff00ff; stroke-width: 1.5; stroke-linecap: square"/>
    <defs>
     <path id="mbee9e87de2" d="M -12 12 
L 12 -12 
M -12 -12 
L 12 12 
" style="stroke: #ff00ff"/>
    </defs>
    <g clip-path="url(#pbe03425de6)">
     <use xlink:href="#mbee9e87de2" x="230.872084" y="187.61909" style="fill: #ff00ff; stroke: #ff00ff"/>
    </g>
   </g>
   <g id="line2d_44">
    <defs>
     <path id="mafc86322ab" d="M 0 1.5 
C 0.397805 1.5 0.77937 1.341951 1.06066 1.06066 
C 1.341951 0.77937 1.5 0.397805 1.5 0 
C 1.5 -0.397805 1.341951 -0.77937 1.06066 -1.06066 
C 0.77937 -1.341951 0.397805 -1.5 0 -1.5 
C -0.397805 -1.5 -0.77937 -1.341951 -1.06066 -1.06066 
C -1.341951 -0.77937 -1.5 -0.397805 -1.5 0 
C -1.5 0.397805 -1.341951 0.77937 -1.06066 1.06066 
C -0.77937 1.341951 -0.397805 1.5 0 1.5 
z
" style="stroke: #ff7500"/>
    </defs>
    <g>
     <use xlink:href="#mafc86322ab" x="223.827733" y="200.248386" style="fill: #ff7500; stroke: #ff7500"/>
     <use xlink:href="#mafc86322ab" x="223.827733" y="200.248386" style="fill: #ff7500; stroke: #ff7500"/>
    </g>
   </g>
   <g id="line2d_45">
    <path d="M 36.933397 298.944 
L 36.933397 289.588966 
L 49.972572 289.588966 
L 49.972572 283.508193 
L 102.12927 283.508193 
L 102.12927 282.57269 
L 114.571202 282.57269 
L 114.571202 282.104938 
L 121.99526 282.104938 
L 121.99526 279.766179 
L 131.440389 279.766179 
L 131.440389 278.362924 
L 134.828842 278.362924 
L 134.828842 277.895172 
L 137.699101 277.895172 
L 137.699101 276.959669 
L 140.188837 276.959669 
L 140.188837 276.024166 
L 142.387236 276.024166 
L 142.387236 275.088662 
L 144.355394 275.088662 
L 144.355394 274.153159 
L 146.136998 274.153159 
L 146.136998 272.282152 
L 147.764371 272.282152 
L 147.764371 271.8144 
L 149.262102 271.8144 
L 149.262102 271.346648 
L 150.649331 271.346648 
L 150.649331 270.878897 
L 153.150116 270.878897 
L 153.150116 269.943393 
L 154.285968 269.943393 
L 154.285968 269.475641 
L 155.357123 269.475641 
L 155.357123 267.604634 
L 156.370558 267.604634 
L 156.370558 266.669131 
L 158.247018 266.669131 
L 158.247018 264.798124 
L 159.119425 264.798124 
L 159.119425 261.991614 
L 159.953161 261.991614 
L 159.953161 261.523862 
L 160.751508 261.523862 
L 160.751508 260.588359 
L 161.517348 260.588359 
L 161.517348 260.120607 
L 162.253227 260.120607 
L 162.253227 259.652855 
L 162.961399 259.652855 
L 162.961399 259.185103 
L 163.643876 259.185103 
L 163.643876 258.717352 
L 164.302457 258.717352 
L 164.302457 257.314097 
L 164.93876 257.314097 
L 164.93876 255.910841 
L 168.361558 255.910841 
L 168.361558 255.44309 
L 169.376816 255.44309 
L 169.376816 254.039834 
L 169.864611 254.039834 
L 169.864611 253.104331 
L 170.340075 253.104331 
L 170.340075 252.636579 
L 171.698355 252.636579 
L 171.698355 251.701076 
L 172.552279 251.701076 
L 172.552279 250.765572 
L 172.965131 250.765572 
L 172.965131 250.297821 
L 174.151958 250.297821 
L 174.151958 249.830069 
L 175.626202 249.830069 
L 175.626202 249.362317 
L 175.977392 249.362317 
L 175.977392 247.959062 
L 176.99326 247.959062 
L 176.99326 247.49131 
L 177.320046 247.49131 
L 177.320046 247.023559 
L 177.641253 247.023559 
L 177.641253 246.555807 
L 178.873892 246.555807 
L 178.873892 246.088055 
L 179.461189 246.088055 
L 179.461189 245.620303 
L 179.748101 245.620303 
L 179.748101 244.6848 
L 180.030704 244.6848 
L 180.030704 243.749297 
L 180.583483 243.749297 
L 180.583483 242.813793 
L 180.853898 242.813793 
L 180.853898 240.475034 
L 181.383339 240.475034 
L 181.383339 239.071779 
L 182.150568 239.071779 
L 182.150568 237.668524 
L 184.940274 237.668524 
L 184.940274 235.797517 
L 186.193913 235.797517 
L 186.193913 234.862014 
L 186.985539 234.862014 
L 186.985539 234.394262 
L 187.178348 234.394262 
L 187.178348 233.458759 
L 187.369201 233.458759 
L 187.369201 231.587752 
L 187.558137 231.587752 
L 187.558137 230.652248 
L 188.475359 230.652248 
L 188.475359 229.248993 
L 188.653556 229.248993 
L 188.653556 228.31349 
L 189.004965 228.31349 
L 189.004965 227.845738 
L 189.520069 227.845738 
L 189.520069 227.377986 
L 190.021443 227.377986 
L 190.021443 226.442483 
L 190.185641 226.442483 
L 190.185641 225.974731 
L 191.450051 225.974731 
L 191.450051 225.506979 
L 191.753307 225.506979 
L 191.753307 224.103724 
L 191.903121 224.103724 
L 191.903121 223.168221 
L 192.345535 223.168221 
L 192.345535 222.232717 
L 192.6348 222.232717 
L 192.6348 221.297214 
L 192.919686 221.297214 
L 192.919686 219.426207 
L 193.749335 219.426207 
L 193.749335 218.958455 
L 193.884121 218.958455 
L 193.884121 218.022952 
L 194.41381 218.022952 
L 194.41381 217.087448 
L 195.181387 217.087448 
L 195.181387 216.151945 
L 195.43044 216.151945 
L 195.43044 215.216441 
L 196.744241 215.216441 
L 196.744241 213.813186 
L 199.226348 213.813186 
L 199.226348 212.877683 
L 200.871029 212.877683 
L 200.963439 211.474428 
L 201.328605 211.474428 
L 201.328605 210.538924 
L 201.863398 210.538924 
L 201.863398 209.603421 
L 202.806029 209.603421 
L 202.806029 208.667917 
L 203.463077 208.667917 
L 203.463077 207.732414 
L 205.66919 207.732414 
L 205.66919 206.79691 
L 206.716227 206.79691 
L 206.716227 205.861407 
L 208.216382 205.861407 
L 208.216382 204.925903 
L 208.772308 204.925903 
L 208.772308 204.458152 
L 210.844976 204.458152 
L 210.844976 203.054897 
L 213.102609 203.054897 
L 213.102609 202.587145 
L 213.720892 202.587145 
L 213.720892 202.119393 
L 220.056249 202.119393 
L 220.056249 201.651641 
L 222.141306 201.651641 
L 222.141306 201.18389 
L 223.827733 201.18389 
L 223.827733 200.248386 
L 360.8064 200.248386 
L 360.8064 200.248386 
" style="fill: none; stroke: #ff7500; stroke-width: 1.5; stroke-linecap: square"/>
   </g>
   <g id="line2d_46">
    <defs>
     <path id="m14c28f5c71" d="M 0 -6 
L -1.347084 -1.854102 
L -5.706339 -1.854102 
L -2.179628 0.708204 
L -3.526712 4.854102 
L -0 2.291796 
L 3.526712 4.854102 
L 2.179628 0.708204 
L 5.706339 -1.854102 
L 1.347084 -1.854102 
z
" style="stroke: #ff7500; stroke-width: 1.5; stroke-linejoin: bevel"/>
    </defs>
    <g>
     <use xlink:href="#m14c28f5c71" x="121.99526" y="282.104938" style="fill-opacity: 0; stroke: #ff7500; stroke-width: 1.5; stroke-linejoin: bevel"/>
     <use xlink:href="#m14c28f5c71" x="178.873892" y="246.555807" style="fill-opacity: 0; stroke: #ff7500; stroke-width: 1.5; stroke-linejoin: bevel"/>
     <use xlink:href="#m14c28f5c71" x="223.827733" y="201.18389" style="fill-opacity: 0; stroke: #ff7500; stroke-width: 1.5; stroke-linejoin: bevel"/>
     <use xlink:href="#m14c28f5c71" x="223.827733" y="200.248386" style="fill-opacity: 0; stroke: #ff7500; stroke-width: 1.5; stroke-linejoin: bevel"/>
     <use xlink:href="#m14c28f5c71" x="223.827733" y="200.248386" style="fill-opacity: 0; stroke: #ff7500; stroke-width: 1.5; stroke-linejoin: bevel"/>
     <use xlink:href="#m14c28f5c71" x="360.8064" y="200.248386" style="fill-opacity: 0; stroke: #ff7500; stroke-width: 1.5; stroke-linejoin: bevel"/>
    </g>
   </g>
   <g id="line2d_47">
    <path style="fill: none; stroke: #ff7500; stroke-width: 1.5; stroke-linecap: square"/>
    <g/>
   </g>
   <g id="line2d_48">
    <path d="M 230.861427 200.248386 
" clip-path="url(#pbe03425de6)" style="fill: none; stroke: #ff7500; stroke-width: 1.5; stroke-linecap: square"/>
    <defs>
     <path id="m4a7c48f580" d="M -12 12 
L 12 -12 
M -12 -12 
L 12 12 
" style="stroke: #ff7500"/>
    </defs>
    <g clip-path="url(#pbe03425de6)">
     <use xlink:href="#m4a7c48f580" x="230.861427" y="200.248386" style="fill: #ff7500; stroke: #ff7500"/>
    </g>
   </g>
   <g id="line2d_49">
    <defs>
     <path id="me5254f2f60" d="M 0 1.5 
C 0.397805 1.5 0.77937 1.341951 1.06066 1.06066 
C 1.341951 0.77937 1.5 0.397805 1.5 0 
C 1.5 -0.397805 1.341951 -0.77937 1.06066 -1.06066 
C 0.77937 -1.341951 0.397805 -1.5 0 -1.5 
C -0.397805 -1.5 -0.77937 -1.341951 -1.06066 -1.06066 
C -1.341951 -0.77937 -1.5 -0.397805 -1.5 0 
C -1.5 0.397805 -1.341951 0.77937 -1.06066 1.06066 
C -0.77937 1.341951 -0.397805 1.5 0 1.5 
z
" style="stroke: #6495ed"/>
    </defs>
    <g>
     <use xlink:href="#me5254f2f60" x="196.636261" y="196.038621" style="fill: #6495ed; stroke: #6495ed"/>
     <use xlink:href="#me5254f2f60" x="196.636261" y="196.038621" style="fill: #6495ed; stroke: #6495ed"/>
    </g>
   </g>
   <g id="line2d_50">
    <path d="M 36.933397 298.944 
L 36.933397 289.588966 
L 76.050921 289.588966 
L 76.050921 288.18571 
L 86.578163 288.18571 
L 86.578163 286.782455 
L 93.287772 286.782455 
L 93.287772 285.846952 
L 98.223251 285.846952 
L 98.223251 284.443697 
L 102.12927 284.443697 
L 102.12927 283.508193 
L 109.360651 283.508193 
L 109.360651 283.040441 
L 111.97238 283.040441 
L 111.97238 280.233931 
L 112.989468 280.233931 
L 112.989468 279.298428 
L 117.899543 279.298428 
L 117.899543 278.362924 
L 120.726585 278.362924 
L 120.726585 277.427421 
L 121.159053 277.427421 
L 121.159053 276.491917 
L 122.795872 276.491917 
L 122.795872 276.024166 
L 123.936316 276.024166 
L 123.936316 275.556414 
L 125.184934 275.556414 
L 125.184934 275.088662 
L 125.35673 275.088662 
L 125.35673 274.62091 
L 129.209231 274.62091 
L 129.209231 274.153159 
L 131.065395 274.153159 
L 131.065395 273.685407 
L 131.191226 273.685407 
L 131.191226 273.217655 
L 131.31622 273.217655 
L 131.31622 272.749903 
L 133.545739 272.749903 
L 133.545739 269.943393 
L 135.034434 269.943393 
L 135.136394 268.540138 
L 137.067478 268.540138 
L 137.067478 268.072386 
L 137.430998 268.072386 
L 137.430998 267.604634 
L 137.699101 267.604634 
L 137.699101 267.136883 
L 137.963436 267.136883 
L 137.963436 266.669131 
L 139.875304 266.669131 
L 139.875304 266.201379 
L 140.188837 266.201379 
L 140.188837 265.733628 
L 142.999601 265.733628 
L 142.999601 264.798124 
L 146.695245 264.798124 
L 146.695245 264.330372 
L 147.237402 264.330372 
L 147.237402 263.862621 
L 148.073609 263.862621 
L 148.175569 262.459366 
L 149.069161 262.459366 
L 149.069161 261.991614 
L 149.968501 261.991614 
L 149.968501 261.523862 
L 151.220087 261.523862 
L 151.220087 260.588359 
L 151.815978 260.588359 
L 151.815978 260.120607 
L 153.032666 260.120607 
L 153.032666 259.652855 
L 153.914919 259.652855 
L 153.914919 258.2496 
L 154.613767 258.2496 
L 154.721776 256.846345 
L 155.252711 256.846345 
L 155.252711 255.910841 
L 155.426411 255.910841 
L 155.426411 255.44309 
L 157.238196 255.44309 
L 157.300901 254.507586 
L 157.487772 254.507586 
L 157.487772 254.039834 
L 157.795157 254.039834 
L 157.795157 253.572083 
L 159.204482 253.572083 
L 159.289155 252.636579 
L 159.373449 252.636579 
L 159.373449 251.701076 
L 160.196243 251.701076 
L 160.196243 251.233324 
L 161.617145 251.233324 
L 161.617145 250.765572 
L 161.986735 250.765572 
L 161.986735 250.297821 
L 162.108336 250.297821 
L 162.108336 249.830069 
L 162.492258 249.830069 
L 162.515995 248.426814 
L 162.610645 248.426814 
L 162.610645 247.959062 
L 164.813209 247.959062 
L 164.813209 247.49131 
L 165.35131 247.49131 
L 165.35131 247.023559 
L 165.755007 247.023559 
L 165.755007 246.555807 
L 165.953653 246.555807 
L 165.953653 245.620303 
L 166.689935 245.620303 
L 166.689935 245.152552 
L 167.886182 245.152552 
L 167.886182 244.6848 
L 168.361558 244.6848 
L 168.361558 244.217048 
L 168.876036 244.217048 
L 168.876036 243.749297 
L 169.360337 243.749297 
L 169.360337 242.813793 
L 169.864611 242.813793 
L 169.864611 242.346041 
L 170.49593 242.346041 
L 170.49593 241.410538 
L 170.895211 241.410538 
L 170.925576 240.007283 
L 171.814477 240.007283 
L 171.814477 239.539531 
L 172.015979 239.539531 
L 172.015979 239.071779 
L 173.087241 239.071779 
L 173.087241 238.136276 
L 173.221995 238.136276 
L 173.221995 237.668524 
L 174.151958 237.668524 
L 174.151958 236.733021 
L 174.506426 236.733021 
L 174.506426 235.797517 
L 175.001495 235.797517 
L 175.062472 233.92651 
L 175.614382 233.92651 
L 175.614382 232.991007 
L 175.896032 232.991007 
L 175.896032 232.055503 
L 176.230828 232.055503 
L 176.230828 231.12 
L 176.838794 231.12 
L 176.838794 230.652248 
L 177.04812 230.652248 
L 177.04812 230.184497 
L 177.492039 230.184497 
L 177.492039 229.248993 
L 177.915264 229.248993 
L 177.915264 228.31349 
L 178.329176 228.31349 
L 178.38028 226.442483 
L 179.804963 226.442483 
L 179.804963 225.506979 
L 180.3735 225.506979 
L 180.3735 225.039228 
L 181.023172 225.039228 
L 181.023172 224.103724 
L 182.192288 224.103724 
L 182.192288 223.168221 
L 182.308614 223.168221 
L 182.349985 221.764966 
L 182.710183 221.764966 
L 182.710183 221.297214 
L 182.919829 221.297214 
L 182.919829 220.36171 
L 183.387073 220.36171 
L 183.480702 218.958455 
L 183.689679 218.958455 
L 183.689679 218.022952 
L 184.288124 218.022952 
L 184.288124 217.087448 
L 184.788421 217.087448 
L 184.788421 216.151945 
L 185.275757 216.151945 
L 185.367504 214.74869 
L 185.409698 214.74869 
L 185.409698 214.280938 
L 186.49469 214.280938 
L 186.587293 212.877683 
L 186.666305 212.877683 
L 186.666305 212.409931 
L 186.84288 212.409931 
L 186.84288 211.474428 
L 187.133536 211.474428 
L 187.133536 210.538924 
L 188.107734 210.538924 
L 188.192744 208.667917 
L 188.439516 208.667917 
L 188.439516 207.732414 
L 188.653556 207.732414 
L 188.653556 206.79691 
L 188.794908 206.79691 
L 188.794908 206.329159 
L 189.744553 206.329159 
L 189.744553 205.393655 
L 190.256351 205.393655 
L 190.256351 204.925903 
L 190.386198 204.925903 
L 190.386198 204.458152 
L 190.744016 204.458152 
L 190.744016 203.9904 
L 190.870552 203.9904 
L 190.870552 203.054897 
L 191.75832 203.054897 
L 191.798376 201.651641 
L 192.204112 201.651641 
L 192.204112 201.18389 
L 192.437618 201.18389 
L 192.437618 200.248386 
L 193.631734 200.248386 
L 193.636271 198.845131 
L 194.017948 198.845131 
L 194.017948 198.377379 
L 195.147929 198.377379 
L 195.147929 197.441876 
L 195.664025 197.441876 
L 195.664025 196.974124 
L 196.110743 196.974124 
L 196.110743 196.506372 
L 196.636261 196.506372 
L 196.636261 196.038621 
L 360.8064 196.038621 
L 360.8064 196.038621 
" style="fill: none; stroke: #6495ed; stroke-width: 1.5; stroke-linecap: square"/>
   </g>
   <g id="line2d_51">
    <defs>
     <path id="mc7201a9c6f" d="M -0 6 
L 6 -6 
L -6 -6 
z
" style="stroke: #6495ed; stroke-width: 1.5; stroke-linejoin: miter"/>
    </defs>
    <g>
     <use xlink:href="#mc7201a9c6f" x="98.223251" y="285.846952" style="fill-opacity: 0; stroke: #6495ed; stroke-width: 1.5; stroke-linejoin: miter"/>
     <use xlink:href="#mc7201a9c6f" x="161.617145" y="251.233324" style="fill-opacity: 0; stroke: #6495ed; stroke-width: 1.5; stroke-linejoin: miter"/>
     <use xlink:href="#mc7201a9c6f" x="196.636261" y="196.506372" style="fill-opacity: 0; stroke: #6495ed; stroke-width: 1.5; stroke-linejoin: miter"/>
     <use xlink:href="#mc7201a9c6f" x="196.636261" y="196.038621" style="fill-opacity: 0; stroke: #6495ed; stroke-width: 1.5; stroke-linejoin: miter"/>
     <use xlink:href="#mc7201a9c6f" x="196.636261" y="196.038621" style="fill-opacity: 0; stroke: #6495ed; stroke-width: 1.5; stroke-linejoin: miter"/>
     <use xlink:href="#mc7201a9c6f" x="360.8064" y="196.038621" style="fill-opacity: 0; stroke: #6495ed; stroke-width: 1.5; stroke-linejoin: miter"/>
    </g>
   </g>
   <g id="line2d_52">
    <path style="fill: none; stroke: #6495ed; stroke-width: 1.5; stroke-linecap: square"/>
    <g/>
   </g>
   <g id="line2d_53">
    <path d="M 230.862681 196.038621 
" clip-path="url(#pbe03425de6)" style="fill: none; stroke: #6495ed; stroke-width: 1.5; stroke-linecap: square"/>
    <defs>
     <path id="m0e89e8efcf" d="M -12 12 
L 12 -12 
M -12 -12 
L 12 12 
" style="stroke: #6495ed"/>
    </defs>
    <g clip-path="url(#pbe03425de6)">
     <use xlink:href="#m0e89e8efcf" x="230.862681" y="196.038621" style="fill: #6495ed; stroke: #6495ed"/>
    </g>
   </g>
   <g id="line2d_54">
    <defs>
     <path id="m728c232455" d="M 0 1.5 
C 0.397805 1.5 0.77937 1.341951 1.06066 1.06066 
C 1.341951 0.77937 1.5 0.397805 1.5 0 
C 1.5 -0.397805 1.341951 -0.77937 1.06066 -1.06066 
C 0.77937 -1.341951 0.397805 -1.5 0 -1.5 
C -0.397805 -1.5 -0.77937 -1.341951 -1.06066 -1.06066 
C -1.341951 -0.77937 -1.5 -0.397805 -1.5 0 
C -1.5 0.397805 -1.341951 0.77937 -1.06066 1.06066 
C -0.77937 1.341951 -0.397805 1.5 0 1.5 
z
" style="stroke: #ff0000"/>
    </defs>
    <g>
     <use xlink:href="#m728c232455" x="208.652223" y="186.215834" style="fill: #ff0000; stroke: #ff0000"/>
     <use xlink:href="#m728c232455" x="208.652223" y="186.215834" style="fill: #ff0000; stroke: #ff0000"/>
    </g>
   </g>
   <g id="line2d_55">
    <path d="M 36.933397 298.944 
L 36.933397 289.588966 
L 49.972572 289.588966 
L 49.972572 288.18571 
L 57.6 288.18571 
L 57.6 286.782455 
L 70.639174 286.782455 
L 70.639174 285.846952 
L 73.538988 285.846952 
L 73.538988 285.3792 
L 82.04153 285.3792 
L 82.04153 283.975945 
L 83.678349 283.975945 
L 83.678349 283.508193 
L 87.876026 283.508193 
L 87.876026 283.040441 
L 92.322865 283.040441 
L 92.322865 282.57269 
L 93.287772 282.57269 
L 93.287772 282.104938 
L 100.9152 282.104938 
L 100.9152 281.169434 
L 105.36204 281.169434 
L 105.36204 280.701683 
L 106.326946 280.701683 
L 106.326946 280.233931 
L 107.68741 280.233931 
L 107.68741 279.298428 
L 108.956085 279.298428 
L 108.956085 278.830676 
L 110.897141 278.830676 
L 110.897141 278.362924 
L 111.262425 278.362924 
L 111.262425 277.895172 
L 111.620752 277.895172 
L 111.620752 277.427421 
L 112.656511 277.427421 
L 112.656511 276.959669 
L 113.638206 276.959669 
L 113.638206 276.024166 
L 115.168444 276.024166 
L 115.168444 275.556414 
L 118.889854 275.556414 
L 118.889854 275.088662 
L 119.599808 275.088662 
L 119.599808 274.62091 
L 119.830627 274.62091 
L 119.830627 274.153159 
L 120.058649 274.153159 
L 120.058649 273.685407 
L 122.19863 273.685407 
L 122.19863 272.749903 
L 122.598891 272.749903 
L 122.598891 272.282152 
L 123.374735 272.282152 
L 123.374735 271.346648 
L 123.936316 271.346648 
L 123.936316 270.878897 
L 124.3016 270.878897 
L 124.3016 269.943393 
L 124.659926 269.943393 
L 124.659926 268.540138 
L 125.011554 268.540138 
L 125.011554 268.072386 
L 126.028642 268.072386 
L 126.028642 267.604634 
L 126.993549 267.604634 
L 126.993549 266.669131 
L 127.458055 266.669131 
L 127.458055 266.201379 
L 129.758512 266.201379 
L 129.758512 265.733628 
L 129.893363 265.733628 
L 129.893363 264.798124 
L 130.811181 264.798124 
L 130.811181 264.330372 
L 130.938718 264.330372 
L 130.938718 263.862621 
L 131.563744 263.862621 
L 131.563744 263.394869 
L 131.929028 263.394869 
L 131.929028 262.927117 
L 134.198228 262.927117 
L 134.198228 261.991614 
L 134.931919 261.991614 
L 134.931919 261.523862 
L 135.136394 261.523862 
L 135.136394 260.588359 
L 136.88305 260.588359 
L 136.97549 259.652855 
L 137.067478 259.652855 
L 137.067478 259.185103 
L 137.340774 259.185103 
L 137.340774 258.717352 
L 137.875736 258.717352 
L 137.875736 257.781848 
L 138.310202 257.781848 
L 138.310202 257.314097 
L 139.232111 257.314097 
L 139.232111 256.846345 
L 139.954178 256.846345 
L 139.954178 256.378593 
L 140.26641 256.378593 
L 140.26641 255.44309 
L 140.420604 255.44309 
L 140.420604 254.507586 
L 140.649551 254.507586 
L 140.649551 254.039834 
L 140.875745 254.039834 
L 140.875745 253.572083 
L 142.038218 253.572083 
L 142.038218 253.104331 
L 143.462475 253.104331 
L 143.462475 252.636579 
L 143.786262 252.636579 
L 143.786262 251.701076 
L 143.914232 251.701076 
L 143.914232 251.233324 
L 145.385592 251.233324 
L 145.385592 250.297821 
L 146.64016 250.297821 
L 146.64016 249.830069 
L 146.804934 249.830069 
L 146.804934 248.894566 
L 146.968277 248.894566 
L 146.968277 248.426814 
L 148.073609 248.426814 
L 148.073609 247.959062 
L 148.627671 247.959062 
L 148.627671 247.49131 
L 149.453084 247.49131 
L 149.453084 247.023559 
L 149.595059 247.023559 
L 149.595059 246.555807 
L 150.8268 246.555807 
L 150.8268 246.088055 
L 151.435079 246.088055 
L 151.435079 245.620303 
L 154.064218 245.620303 
L 154.101358 243.749297 
L 154.39587 243.749297 
L 154.39587 242.813793 
L 154.685842 242.813793 
L 154.685842 242.346041 
L 155.252711 242.346041 
L 155.252711 241.87829 
L 155.529866 241.87829 
L 155.529866 241.410538 
L 156.072219 241.410538 
L 156.072219 240.942786 
L 156.825436 240.942786 
L 156.857511 239.071779 
L 157.363398 239.071779 
L 157.363398 238.136276 
L 158.571617 238.136276 
L 158.571617 237.668524 
L 159.033983 237.668524 
L 159.033983 236.733021 
L 159.706897 236.733021 
L 159.706897 236.265269 
L 160.142495 236.265269 
L 160.142495 235.797517 
L 160.933013 235.797517 
L 160.933013 235.329766 
L 161.716414 235.329766 
L 161.716414 234.862014 
L 162.325256 234.862014 
L 162.325256 233.92651 
L 163.214524 233.92651 
L 163.305732 232.523255 
L 163.821764 232.523255 
L 163.821764 231.587752 
L 164.538274 231.587752 
L 164.538274 230.652248 
L 165.993131 230.652248 
L 166.091467 227.845738 
L 166.632844 227.845738 
L 166.632844 227.377986 
L 167.598703 227.377986 
L 167.598703 226.910234 
L 168.010586 226.910234 
L 168.063651 225.039228 
L 168.620556 225.039228 
L 168.67193 223.168221 
L 168.926718 223.168221 
L 168.926718 222.232717 
L 169.638546 222.232717 
L 169.638546 221.764966 
L 170.27737 221.764966 
L 170.27737 221.297214 
L 170.402572 221.297214 
L 170.402572 220.36171 
L 171.625414 220.36171 
L 171.625414 219.893959 
L 171.958627 219.893959 
L 171.958627 218.958455 
L 172.3986 218.958455 
L 172.3986 218.022952 
L 172.965131 218.022952 
L 172.978738 216.619697 
L 173.501874 216.619697 
L 173.501874 215.684193 
L 174.075124 215.684193 
L 174.075124 214.74869 
L 174.228479 214.74869 
L 174.228479 213.813186 
L 174.668757 213.813186 
L 174.668757 212.877683 
L 175.708734 212.877683 
L 175.708734 211.942179 
L 176.058402 211.942179 
L 176.093013 210.538924 
L 176.253699 210.538924 
L 176.253699 209.603421 
L 176.84987 209.603421 
L 176.84987 209.135669 
L 177.556133 209.135669 
L 177.556133 208.667917 
L 178.339408 208.667917 
L 178.339408 207.732414 
L 178.46176 207.732414 
L 178.46176 206.79691 
L 178.704102 206.79691 
L 178.754199 205.393655 
L 179.169832 205.393655 
L 179.169832 204.925903 
L 179.880511 204.925903 
L 179.880511 203.9904 
L 180.244527 203.9904 
L 180.263006 202.119393 
L 180.583483 202.119393 
L 180.583483 201.651641 
L 181.357217 201.651641 
L 181.444147 199.780634 
L 181.556559 199.780634 
L 181.556559 199.312883 
L 181.719653 199.312883 
L 181.719653 198.845131 
L 182.125491 198.845131 
L 182.125491 198.377379 
L 182.903785 198.377379 
L 182.903785 197.909628 
L 184.130892 197.909628 
L 184.183448 196.974124 
L 184.766627 196.974124 
L 184.766627 196.506372 
L 185.105194 196.506372 
L 185.17645 194.635366 
L 186.207383 194.635366 
L 186.234295 193.699862 
L 187.114298 193.699862 
L 187.114298 193.23211 
L 188.403605 193.23211 
L 188.457446 192.296607 
L 188.552785 192.296607 
L 188.612127 191.361103 
L 190.278055 191.361103 
L 190.278055 190.893352 
L 190.701648 190.893352 
L 190.717547 189.490097 
L 196.086865 189.490097 
L 196.086865 189.022345 
L 197.838483 189.022345 
L 197.838483 188.554593 
L 199.256654 188.554593 
L 199.256654 188.086841 
L 201.621654 188.086841 
L 201.621654 187.61909 
L 207.139177 187.61909 
L 207.139177 187.151338 
L 208.299786 187.151338 
L 208.299786 186.683586 
L 208.652223 186.683586 
L 208.652223 186.215834 
L 360.8064 186.215834 
L 360.8064 186.215834 
" style="fill: none; stroke: #ff0000; stroke-width: 1.5; stroke-linecap: square"/>
   </g>
   <g id="line2d_56">
    <defs>
     <path id="m3d9f70ee09" d="M 0 -6 
L -5.196152 -3 
L -5.196152 3 
L -0 6 
L 5.196152 3 
L 5.196152 -3 
z
" style="stroke: #ff0000; stroke-width: 1.5; stroke-linejoin: miter"/>
    </defs>
    <g>
     <use xlink:href="#m3d9f70ee09" x="142.038218" y="253.104331" style="fill-opacity: 0; stroke: #ff0000; stroke-width: 1.5; stroke-linejoin: miter"/>
     <use xlink:href="#m3d9f70ee09" x="197.838483" y="188.554593" style="fill-opacity: 0; stroke: #ff0000; stroke-width: 1.5; stroke-linejoin: miter"/>
     <use xlink:href="#m3d9f70ee09" x="208.652223" y="186.683586" style="fill-opacity: 0; stroke: #ff0000; stroke-width: 1.5; stroke-linejoin: miter"/>
     <use xlink:href="#m3d9f70ee09" x="208.652223" y="186.215834" style="fill-opacity: 0; stroke: #ff0000; stroke-width: 1.5; stroke-linejoin: miter"/>
     <use xlink:href="#m3d9f70ee09" x="208.652223" y="186.215834" style="fill-opacity: 0; stroke: #ff0000; stroke-width: 1.5; stroke-linejoin: miter"/>
     <use xlink:href="#m3d9f70ee09" x="360.8064" y="186.215834" style="fill-opacity: 0; stroke: #ff0000; stroke-width: 1.5; stroke-linejoin: miter"/>
    </g>
   </g>
   <g id="line2d_57">
    <path style="fill: none; stroke: #ff0000; stroke-width: 1.5; stroke-linecap: square"/>
    <g/>
   </g>
   <g id="line2d_58">
    <path d="M 274.176502 186.215834 
" clip-path="url(#pbe03425de6)" style="fill: none; stroke: #ff0000; stroke-width: 1.5; stroke-linecap: square"/>
    <defs>
     <path id="mad2d1be5c0" d="M -12 12 
L 12 -12 
M -12 -12 
L 12 12 
" style="stroke: #ff0000"/>
    </defs>
    <g clip-path="url(#pbe03425de6)">
     <use xlink:href="#mad2d1be5c0" x="274.176502" y="186.215834" style="fill: #ff0000; stroke: #ff0000"/>
    </g>
   </g>
   <g id="line2d_59">
    <path d="M 360.8064 200.248386 
L 380.514816 293.51808 
" style="fill: none; stroke: #ff7500; stroke-width: 1.5; stroke-linecap: square"/>
    <g>
     <use xlink:href="#m14c28f5c71" x="360.8064" y="200.248386" style="fill-opacity: 0; stroke: #ff7500; stroke-width: 1.5; stroke-linejoin: bevel"/>
     <use xlink:href="#m14c28f5c71" x="380.514816" y="293.51808" style="fill-opacity: 0; stroke: #ff7500; stroke-width: 1.5; stroke-linejoin: bevel"/>
    </g>
   </g>
   <g id="line2d_60">
    <path d="M 360.8064 196.038621 
L 380.514816 241.429248 
" style="fill: none; stroke: #6495ed; stroke-width: 1.5; stroke-linecap: square"/>
    <g>
     <use xlink:href="#mc7201a9c6f" x="360.8064" y="196.038621" style="fill-opacity: 0; stroke: #6495ed; stroke-width: 1.5; stroke-linejoin: miter"/>
     <use xlink:href="#mc7201a9c6f" x="380.514816" y="241.429248" style="fill-opacity: 0; stroke: #6495ed; stroke-width: 1.5; stroke-linejoin: miter"/>
    </g>
   </g>
   <g id="line2d_61">
    <path d="M 360.8064 187.61909 
L 380.514816 189.340416 
" style="fill: none; stroke: #ff00ff; stroke-width: 1.5; stroke-linecap: square"/>
    <g>
     <use xlink:href="#m423dfee8de" x="360.8064" y="187.61909" style="fill-opacity: 0; stroke: #ff00ff; stroke-width: 1.5; stroke-linejoin: miter"/>
     <use xlink:href="#m423dfee8de" x="380.514816" y="189.340416" style="fill-opacity: 0; stroke: #ff00ff; stroke-width: 1.5; stroke-linejoin: miter"/>
    </g>
   </g>
   <g id="line2d_62">
    <path d="M 360.8064 186.215834 
L 380.514816 137.251584 
" style="fill: none; stroke: #ff0000; stroke-width: 1.5; stroke-linecap: square"/>
    <g>
     <use xlink:href="#m3d9f70ee09" x="360.8064" y="186.215834" style="fill-opacity: 0; stroke: #ff0000; stroke-width: 1.5; stroke-linejoin: miter"/>
     <use xlink:href="#m3d9f70ee09" x="380.514816" y="137.251584" style="fill-opacity: 0; stroke: #ff0000; stroke-width: 1.5; stroke-linejoin: miter"/>
    </g>
   </g>
   <g id="line2d_63">
    <path d="M 360.8064 178.264055 
L 380.514816 85.162752 
" style="fill: none; stroke: #000080; stroke-width: 1.5; stroke-linecap: square"/>
    <g>
     <use xlink:href="#me92f3f0a23" x="360.8064" y="178.264055" style="fill-opacity: 0; stroke: #000080; stroke-width: 1.5"/>
     <use xlink:href="#me92f3f0a23" x="380.514816" y="85.162752" style="fill-opacity: 0; stroke: #000080; stroke-width: 1.5"/>
    </g>
   </g>
   <g id="line2d_64">
    <path d="M 360.8064 298.944 
L 360.8064 27.648 
" style="fill: none; stroke: #000000; stroke-width: 1.5; stroke-linecap: square"/>
   </g>
   <g id="patch_3">
    <path d="M 57.6 298.944 
L 360.8064 298.944 
" style="fill: none; stroke: #000000; stroke-width: 0.8; stroke-linejoin: miter; stroke-linecap: square"/>
   </g>
   <g id="patch_4">
    <path d="M 57.6 27.648 
L 360.8064 27.648 
" style="fill: none; stroke: #000000; stroke-width: 0.8; stroke-linejoin: miter; stroke-linecap: square"/>
   </g>
   <g id="text_13">
    <!-- kerComo -->
    <g transform="translate(386.578944 297.381205) scale(0.14 -0.14)">
     <defs>
      <path id="DejaVuSans-6b" d="M 581 4863 
L 1159 4863 
L 1159 1991 
L 2875 3500 
L 3609 3500 
L 1753 1863 
L 3688 0 
L 2938 0 
L 1159 1709 
L 1159 0 
L 581 0 
L 581 4863 
z
" transform="scale(0.015625)"/>
      <path id="DejaVuSans-43" d="M 4122 4306 
L 4122 3641 
Q 3803 3938 3442 4084 
Q 3081 4231 2675 4231 
Q 1875 4231 1450 3742 
Q 1025 3253 1025 2328 
Q 1025 1406 1450 917 
Q 1875 428 2675 428 
Q 3081 428 3442 575 
Q 3803 722 4122 1019 
L 4122 359 
Q 3791 134 3420 21 
Q 3050 -91 2638 -91 
Q 1578 -91 968 557 
Q 359 1206 359 2328 
Q 359 3453 968 4101 
Q 1578 4750 2638 4750 
Q 3056 4750 3426 4639 
Q 3797 4528 4122 4306 
z
" transform="scale(0.015625)"/>
     </defs>
     <use xlink:href="#DejaVuSans-6b"/>
     <use xlink:href="#DejaVuSans-65" x="54.285156"/>
     <use xlink:href="#DejaVuSans-72" x="115.808594"/>
     <use xlink:href="#DejaVuSans-43" x="156.921875"/>
     <use xlink:href="#DejaVuSans-6f" x="226.746094"/>
     <use xlink:href="#DejaVuSans-6d" x="287.927734"/>
     <use xlink:href="#DejaVuSans-6f" x="385.339844"/>
    </g>
   </g>
   <g id="text_14">
    <!-- kerLQ -->
    <g transform="translate(386.578944 245.292373) scale(0.14 -0.14)">
     <defs>
      <path id="DejaVuSans-4c" d="M 628 4666 
L 1259 4666 
L 1259 531 
L 3531 531 
L 3531 0 
L 628 0 
L 628 4666 
z
" transform="scale(0.015625)"/>
      <path id="DejaVuSans-51" d="M 2522 4238 
Q 1834 4238 1429 3725 
Q 1025 3213 1025 2328 
Q 1025 1447 1429 934 
Q 1834 422 2522 422 
Q 3209 422 3611 934 
Q 4013 1447 4013 2328 
Q 4013 3213 3611 3725 
Q 3209 4238 2522 4238 
z
M 3406 84 
L 4238 -825 
L 3475 -825 
L 2784 -78 
Q 2681 -84 2626 -87 
Q 2572 -91 2522 -91 
Q 1538 -91 948 567 
Q 359 1225 359 2328 
Q 359 3434 948 4092 
Q 1538 4750 2522 4750 
Q 3503 4750 4090 4092 
Q 4678 3434 4678 2328 
Q 4678 1516 4351 937 
Q 4025 359 3406 84 
z
" transform="scale(0.015625)"/>
     </defs>
     <use xlink:href="#DejaVuSans-6b"/>
     <use xlink:href="#DejaVuSans-65" x="54.285156"/>
     <use xlink:href="#DejaVuSans-72" x="115.808594"/>
     <use xlink:href="#DejaVuSans-4c" x="156.921875"/>
     <use xlink:href="#DejaVuSans-51" x="212.634766"/>
    </g>
   </g>
   <g id="text_15">
    <!-- AllLQ -->
    <g transform="translate(386.578944 193.203541) scale(0.14 -0.14)">
     <defs>
      <path id="DejaVuSans-41" d="M 2188 4044 
L 1331 1722 
L 3047 1722 
L 2188 4044 
z
M 1831 4666 
L 2547 4666 
L 4325 0 
L 3669 0 
L 3244 1197 
L 1141 1197 
L 716 0 
L 50 0 
L 1831 4666 
z
" transform="scale(0.015625)"/>
     </defs>
     <use xlink:href="#DejaVuSans-41"/>
     <use xlink:href="#DejaVuSans-6c" x="68.408203"/>
     <use xlink:href="#DejaVuSans-6c" x="96.191406"/>
     <use xlink:href="#DejaVuSans-4c" x="123.974609"/>
     <use xlink:href="#DejaVuSans-51" x="179.6875"/>
    </g>
   </g>
   <g id="text_16">
    <!-- COMO-10 d -->
    <g transform="translate(386.578944 141.114709) scale(0.14 -0.14)">
     <defs>
      <path id="DejaVuSans-4f" d="M 2522 4238 
Q 1834 4238 1429 3725 
Q 1025 3213 1025 2328 
Q 1025 1447 1429 934 
Q 1834 422 2522 422 
Q 3209 422 3611 934 
Q 4013 1447 4013 2328 
Q 4013 3213 3611 3725 
Q 3209 4238 2522 4238 
z
M 2522 4750 
Q 3503 4750 4090 4092 
Q 4678 3434 4678 2328 
Q 4678 1225 4090 567 
Q 3503 -91 2522 -91 
Q 1538 -91 948 565 
Q 359 1222 359 2328 
Q 359 3434 948 4092 
Q 1538 4750 2522 4750 
z
" transform="scale(0.015625)"/>
      <path id="DejaVuSans-4d" d="M 628 4666 
L 1569 4666 
L 2759 1491 
L 3956 4666 
L 4897 4666 
L 4897 0 
L 4281 0 
L 4281 4097 
L 3078 897 
L 2444 897 
L 1241 4097 
L 1241 0 
L 628 0 
L 628 4666 
z
" transform="scale(0.015625)"/>
     </defs>
     <use xlink:href="#DejaVuSans-43"/>
     <use xlink:href="#DejaVuSans-4f" x="69.824219"/>
     <use xlink:href="#DejaVuSans-4d" x="148.535156"/>
     <use xlink:href="#DejaVuSans-4f" x="234.814453"/>
     <use xlink:href="#DejaVuSans-2d" x="316.275391"/>
     <use xlink:href="#DejaVuSans-31" x="352.359375"/>
     <use xlink:href="#DejaVuSans-30" x="415.982422"/>
     <use xlink:href="#DejaVuSans-20" x="479.605469"/>
     <use xlink:href="#DejaVuSans-64" x="511.392578"/>
    </g>
   </g>
   <g id="text_17">
    <!-- AllComo -->
    <g transform="translate(386.578944 89.025877) scale(0.14 -0.14)">
     <use xlink:href="#DejaVuSans-41"/>
     <use xlink:href="#DejaVuSans-6c" x="68.408203"/>
     <use xlink:href="#DejaVuSans-6c" x="96.191406"/>
     <use xlink:href="#DejaVuSans-43" x="123.974609"/>
     <use xlink:href="#DejaVuSans-6f" x="193.798828"/>
     <use xlink:href="#DejaVuSans-6d" x="254.980469"/>
     <use xlink:href="#DejaVuSans-6f" x="352.392578"/>
    </g>
   </g>
   <g id="text_18">
    <!-- best 2016 -->
    <g transform="translate(386.578944 36.937045) scale(0.14 -0.14)">
     <defs>
      <path id="DejaVuSans-62" d="M 3116 1747 
Q 3116 2381 2855 2742 
Q 2594 3103 2138 3103 
Q 1681 3103 1420 2742 
Q 1159 2381 1159 1747 
Q 1159 1113 1420 752 
Q 1681 391 2138 391 
Q 2594 391 2855 752 
Q 3116 1113 3116 1747 
z
M 1159 2969 
Q 1341 3281 1617 3432 
Q 1894 3584 2278 3584 
Q 2916 3584 3314 3078 
Q 3713 2572 3713 1747 
Q 3713 922 3314 415 
Q 2916 -91 2278 -91 
Q 1894 -91 1617 61 
Q 1341 213 1159 525 
L 1159 0 
L 581 0 
L 581 4863 
L 1159 4863 
L 1159 2969 
z
" transform="scale(0.015625)"/>
     </defs>
     <use xlink:href="#DejaVuSans-62"/>
     <use xlink:href="#DejaVuSans-65" x="63.476562"/>
     <use xlink:href="#DejaVuSans-73" x="125"/>
     <use xlink:href="#DejaVuSans-74" x="177.099609"/>
     <use xlink:href="#DejaVuSans-20" x="216.308594"/>
     <use xlink:href="#DejaVuSans-32" x="248.095703"/>
     <use xlink:href="#DejaVuSans-30" x="311.71875"/>
     <use xlink:href="#DejaVuSans-31" x="375.341797"/>
     <use xlink:href="#DejaVuSans-36" x="438.964844"/>
    </g>
   </g>
   <g id="text_19">
    <!-- bbob-biobj f36, 3-D -->
    <g transform="translate(60.632064 38.111366) scale(0.102 -0.102)">
     <defs>
      <path id="DejaVuSans-6a" d="M 603 3500 
L 1178 3500 
L 1178 -63 
Q 1178 -731 923 -1031 
Q 669 -1331 103 -1331 
L -116 -1331 
L -116 -844 
L 38 -844 
Q 366 -844 484 -692 
Q 603 -541 603 -63 
L 603 3500 
z
M 603 4863 
L 1178 4863 
L 1178 4134 
L 603 4134 
L 603 4863 
z
" transform="scale(0.015625)"/>
      <path id="DejaVuSans-33" d="M 2597 2516 
Q 3050 2419 3304 2112 
Q 3559 1806 3559 1356 
Q 3559 666 3084 287 
Q 2609 -91 1734 -91 
Q 1441 -91 1130 -33 
Q 819 25 488 141 
L 488 750 
Q 750 597 1062 519 
Q 1375 441 1716 441 
Q 2309 441 2620 675 
Q 2931 909 2931 1356 
Q 2931 1769 2642 2001 
Q 2353 2234 1838 2234 
L 1294 2234 
L 1294 2753 
L 1863 2753 
Q 2328 2753 2575 2939 
Q 2822 3125 2822 3475 
Q 2822 3834 2567 4026 
Q 2313 4219 1838 4219 
Q 1578 4219 1281 4162 
Q 984 4106 628 3988 
L 628 4550 
Q 988 4650 1302 4700 
Q 1616 4750 1894 4750 
Q 2613 4750 3031 4423 
Q 3450 4097 3450 3541 
Q 3450 3153 3228 2886 
Q 3006 2619 2597 2516 
z
" transform="scale(0.015625)"/>
      <path id="DejaVuSans-44" d="M 1259 4147 
L 1259 519 
L 2022 519 
Q 2988 519 3436 956 
Q 3884 1394 3884 2338 
Q 3884 3275 3436 3711 
Q 2988 4147 2022 4147 
L 1259 4147 
z
M 628 4666 
L 1925 4666 
Q 3281 4666 3915 4102 
Q 4550 3538 4550 2338 
Q 4550 1131 3912 565 
Q 3275 0 1925 0 
L 628 0 
L 628 4666 
z
" transform="scale(0.015625)"/>
     </defs>
     <use xlink:href="#DejaVuSans-62"/>
     <use xlink:href="#DejaVuSans-62" x="63.476562"/>
     <use xlink:href="#DejaVuSans-6f" x="126.953125"/>
     <use xlink:href="#DejaVuSans-62" x="188.134766"/>
     <use xlink:href="#DejaVuSans-2d" x="251.611328"/>
     <use xlink:href="#DejaVuSans-62" x="287.695312"/>
     <use xlink:href="#DejaVuSans-69" x="351.171875"/>
     <use xlink:href="#DejaVuSans-6f" x="378.955078"/>
     <use xlink:href="#DejaVuSans-62" x="440.136719"/>
     <use xlink:href="#DejaVuSans-6a" x="503.613281"/>
     <use xlink:href="#DejaVuSans-20" x="531.396484"/>
     <use xlink:href="#DejaVuSans-66" x="563.183594"/>
     <use xlink:href="#DejaVuSans-33" x="598.388672"/>
     <use xlink:href="#DejaVuSans-36" x="662.011719"/>
     <use xlink:href="#DejaVuSans-2c" x="725.634766"/>
     <use xlink:href="#DejaVuSans-20" x="757.421875"/>
     <use xlink:href="#DejaVuSans-33" x="789.208984"/>
     <use xlink:href="#DejaVuSans-2d" x="852.832031"/>
     <use xlink:href="#DejaVuSans-44" x="888.916016"/>
    </g>
    <!-- 58 targets: 1..-1.0e-4 -->
    <g transform="translate(60.632064 49.533135) scale(0.102 -0.102)">
     <defs>
      <path id="DejaVuSans-35" d="M 691 4666 
L 3169 4666 
L 3169 4134 
L 1269 4134 
L 1269 2991 
Q 1406 3038 1543 3061 
Q 1681 3084 1819 3084 
Q 2600 3084 3056 2656 
Q 3513 2228 3513 1497 
Q 3513 744 3044 326 
Q 2575 -91 1722 -91 
Q 1428 -91 1123 -41 
Q 819 9 494 109 
L 494 744 
Q 775 591 1075 516 
Q 1375 441 1709 441 
Q 2250 441 2565 725 
Q 2881 1009 2881 1497 
Q 2881 1984 2565 2268 
Q 2250 2553 1709 2553 
Q 1456 2553 1204 2497 
Q 953 2441 691 2322 
L 691 4666 
z
" transform="scale(0.015625)"/>
      <path id="DejaVuSans-3a" d="M 750 794 
L 1409 794 
L 1409 0 
L 750 0 
L 750 794 
z
M 750 3309 
L 1409 3309 
L 1409 2516 
L 750 2516 
L 750 3309 
z
" transform="scale(0.015625)"/>
     </defs>
     <use xlink:href="#DejaVuSans-35"/>
     <use xlink:href="#DejaVuSans-38" x="63.623047"/>
     <use xlink:href="#DejaVuSans-20" x="127.246094"/>
     <use xlink:href="#DejaVuSans-74" x="159.033203"/>
     <use xlink:href="#DejaVuSans-61" x="198.242188"/>
     <use xlink:href="#DejaVuSans-72" x="259.521484"/>
     <use xlink:href="#DejaVuSans-67" x="298.884766"/>
     <use xlink:href="#DejaVuSans-65" x="362.361328"/>
     <use xlink:href="#DejaVuSans-74" x="423.884766"/>
     <use xlink:href="#DejaVuSans-73" x="463.09375"/>
     <use xlink:href="#DejaVuSans-3a" x="515.193359"/>
     <use xlink:href="#DejaVuSans-20" x="548.884766"/>
     <use xlink:href="#DejaVuSans-31" x="580.671875"/>
     <use xlink:href="#DejaVuSans-2e" x="644.294922"/>
     <use xlink:href="#DejaVuSans-2e" x="676.082031"/>
     <use xlink:href="#DejaVuSans-2d" x="707.869141"/>
     <use xlink:href="#DejaVuSans-31" x="743.953125"/>
     <use xlink:href="#DejaVuSans-2e" x="807.576172"/>
     <use xlink:href="#DejaVuSans-30" x="839.363281"/>
     <use xlink:href="#DejaVuSans-65" x="902.986328"/>
     <use xlink:href="#DejaVuSans-2d" x="964.509766"/>
     <use xlink:href="#DejaVuSans-34" x="1000.59375"/>
    </g>
    <!-- 10 instances -->
    <g transform="translate(60.632064 60.954904) scale(0.102 -0.102)">
     <use xlink:href="#DejaVuSans-31"/>
     <use xlink:href="#DejaVuSans-30" x="63.623047"/>
     <use xlink:href="#DejaVuSans-20" x="127.246094"/>
     <use xlink:href="#DejaVuSans-69" x="159.033203"/>
     <use xlink:href="#DejaVuSans-6e" x="186.816406"/>
     <use xlink:href="#DejaVuSans-73" x="250.195312"/>
     <use xlink:href="#DejaVuSans-74" x="302.294922"/>
     <use xlink:href="#DejaVuSans-61" x="341.503906"/>
     <use xlink:href="#DejaVuSans-6e" x="402.783203"/>
     <use xlink:href="#DejaVuSans-63" x="466.162109"/>
     <use xlink:href="#DejaVuSans-65" x="521.142578"/>
     <use xlink:href="#DejaVuSans-73" x="582.666016"/>
    </g>
   </g>
   <g id="text_20">
    <!-- v2.6, hv-hash=d240b271ab0b4926 -->
    <g style="fill: #808080" transform="translate(120.362575 294.151352) scale(0.1 -0.1)">
     <defs>
      <path id="DejaVuSans-68" d="M 3513 2113 
L 3513 0 
L 2938 0 
L 2938 2094 
Q 2938 2591 2744 2837 
Q 2550 3084 2163 3084 
Q 1697 3084 1428 2787 
Q 1159 2491 1159 1978 
L 1159 0 
L 581 0 
L 581 4863 
L 1159 4863 
L 1159 2956 
Q 1366 3272 1645 3428 
Q 1925 3584 2291 3584 
Q 2894 3584 3203 3211 
Q 3513 2838 3513 2113 
z
" transform="scale(0.015625)"/>
      <path id="DejaVuSans-3d" d="M 678 2906 
L 4684 2906 
L 4684 2381 
L 678 2381 
L 678 2906 
z
M 678 1631 
L 4684 1631 
L 4684 1100 
L 678 1100 
L 678 1631 
z
" transform="scale(0.015625)"/>
      <path id="DejaVuSans-37" d="M 525 4666 
L 3525 4666 
L 3525 4397 
L 1831 0 
L 1172 0 
L 2766 4134 
L 525 4134 
L 525 4666 
z
" transform="scale(0.015625)"/>
      <path id="DejaVuSans-39" d="M 703 97 
L 703 672 
Q 941 559 1184 500 
Q 1428 441 1663 441 
Q 2288 441 2617 861 
Q 2947 1281 2994 2138 
Q 2813 1869 2534 1725 
Q 2256 1581 1919 1581 
Q 1219 1581 811 2004 
Q 403 2428 403 3163 
Q 403 3881 828 4315 
Q 1253 4750 1959 4750 
Q 2769 4750 3195 4129 
Q 3622 3509 3622 2328 
Q 3622 1225 3098 567 
Q 2575 -91 1691 -91 
Q 1453 -91 1209 -44 
Q 966 3 703 97 
z
M 1959 2075 
Q 2384 2075 2632 2365 
Q 2881 2656 2881 3163 
Q 2881 3666 2632 3958 
Q 2384 4250 1959 4250 
Q 1534 4250 1286 3958 
Q 1038 3666 1038 3163 
Q 1038 2656 1286 2365 
Q 1534 2075 1959 2075 
z
" transform="scale(0.015625)"/>
     </defs>
     <use xlink:href="#DejaVuSans-76"/>
     <use xlink:href="#DejaVuSans-32" x="59.179688"/>
     <use xlink:href="#DejaVuSans-2e" x="122.802734"/>
     <use xlink:href="#DejaVuSans-36" x="154.589844"/>
     <use xlink:href="#DejaVuSans-2c" x="218.212891"/>
     <use xlink:href="#DejaVuSans-20" x="250"/>
     <use xlink:href="#DejaVuSans-68" x="281.787109"/>
     <use xlink:href="#DejaVuSans-76" x="345.166016"/>
     <use xlink:href="#DejaVuSans-2d" x="401.720703"/>
     <use xlink:href="#DejaVuSans-68" x="437.804688"/>
     <use xlink:href="#DejaVuSans-61" x="501.183594"/>
     <use xlink:href="#DejaVuSans-73" x="562.462891"/>
     <use xlink:href="#DejaVuSans-68" x="614.5625"/>
     <use xlink:href="#DejaVuSans-3d" x="677.941406"/>
     <use xlink:href="#DejaVuSans-64" x="761.730469"/>
     <use xlink:href="#DejaVuSans-32" x="825.207031"/>
     <use xlink:href="#DejaVuSans-34" x="888.830078"/>
     <use xlink:href="#DejaVuSans-30" x="952.453125"/>
     <use xlink:href="#DejaVuSans-62" x="1016.076172"/>
     <use xlink:href="#DejaVuSans-32" x="1079.552734"/>
     <use xlink:href="#DejaVuSans-37" x="1143.175781"/>
     <use xlink:href="#DejaVuSans-31" x="1206.798828"/>
     <use xlink:href="#DejaVuSans-61" x="1270.421875"/>
     <use xlink:href="#DejaVuSans-62" x="1331.701172"/>
     <use xlink:href="#DejaVuSans-30" x="1395.177734"/>
     <use xlink:href="#DejaVuSans-62" x="1458.800781"/>
     <use xlink:href="#DejaVuSans-34" x="1522.277344"/>
     <use xlink:href="#DejaVuSans-39" x="1585.900391"/>
     <use xlink:href="#DejaVuSans-32" x="1649.523438"/>
     <use xlink:href="#DejaVuSans-36" x="1713.146484"/>
    </g>
   </g>
   <g id="text_21">
    <!-- 36 Sharp ridge/Diff. Powers -->
    <g transform="translate(73.1532 21.648) scale(0.2 -0.2)">
     <defs>
      <path id="DejaVuSans-53" d="M 3425 4513 
L 3425 3897 
Q 3066 4069 2747 4153 
Q 2428 4238 2131 4238 
Q 1616 4238 1336 4038 
Q 1056 3838 1056 3469 
Q 1056 3159 1242 3001 
Q 1428 2844 1947 2747 
L 2328 2669 
Q 3034 2534 3370 2195 
Q 3706 1856 3706 1288 
Q 3706 609 3251 259 
Q 2797 -91 1919 -91 
Q 1588 -91 1214 -16 
Q 841 59 441 206 
L 441 856 
Q 825 641 1194 531 
Q 1563 422 1919 422 
Q 2459 422 2753 634 
Q 3047 847 3047 1241 
Q 3047 1584 2836 1778 
Q 2625 1972 2144 2069 
L 1759 2144 
Q 1053 2284 737 2584 
Q 422 2884 422 3419 
Q 422 4038 858 4394 
Q 1294 4750 2059 4750 
Q 2388 4750 2728 4690 
Q 3069 4631 3425 4513 
z
" transform="scale(0.015625)"/>
      <path id="DejaVuSans-50" d="M 1259 4147 
L 1259 2394 
L 2053 2394 
Q 2494 2394 2734 2622 
Q 2975 2850 2975 3272 
Q 2975 3691 2734 3919 
Q 2494 4147 2053 4147 
L 1259 4147 
z
M 628 4666 
L 2053 4666 
Q 2838 4666 3239 4311 
Q 3641 3956 3641 3272 
Q 3641 2581 3239 2228 
Q 2838 1875 2053 1875 
L 1259 1875 
L 1259 0 
L 628 0 
L 628 4666 
z
" transform="scale(0.015625)"/>
      <path id="DejaVuSans-77" d="M 269 3500 
L 844 3500 
L 1563 769 
L 2278 3500 
L 2956 3500 
L 3675 769 
L 4391 3500 
L 4966 3500 
L 4050 0 
L 3372 0 
L 2619 2869 
L 1863 0 
L 1184 0 
L 269 3500 
z
" transform="scale(0.015625)"/>
     </defs>
     <use xlink:href="#DejaVuSans-33"/>
     <use xlink:href="#DejaVuSans-36" x="63.623047"/>
     <use xlink:href="#DejaVuSans-20" x="127.246094"/>
     <use xlink:href="#DejaVuSans-53" x="159.033203"/>
     <use xlink:href="#DejaVuSans-68" x="222.509766"/>
     <use xlink:href="#DejaVuSans-61" x="285.888672"/>
     <use xlink:href="#DejaVuSans-72" x="347.167969"/>
     <use xlink:href="#DejaVuSans-70" x="388.28125"/>
     <use xlink:href="#DejaVuSans-20" x="451.757812"/>
     <use xlink:href="#DejaVuSans-72" x="483.544922"/>
     <use xlink:href="#DejaVuSans-69" x="524.658203"/>
     <use xlink:href="#DejaVuSans-64" x="552.441406"/>
     <use xlink:href="#DejaVuSans-67" x="615.917969"/>
     <use xlink:href="#DejaVuSans-65" x="679.394531"/>
     <use xlink:href="#DejaVuSans-2f" x="740.917969"/>
     <use xlink:href="#DejaVuSans-44" x="774.609375"/>
     <use xlink:href="#DejaVuSans-69" x="851.611328"/>
     <use xlink:href="#DejaVuSans-66" x="879.394531"/>
     <use xlink:href="#DejaVuSans-66" x="914.599609"/>
     <use xlink:href="#DejaVuSans-2e" x="942.554688"/>
     <use xlink:href="#DejaVuSans-20" x="974.341797"/>
     <use xlink:href="#DejaVuSans-50" x="1006.128906"/>
     <use xlink:href="#DejaVuSans-6f" x="1062.806641"/>
     <use xlink:href="#DejaVuSans-77" x="1123.988281"/>
     <use xlink:href="#DejaVuSans-65" x="1205.775391"/>
     <use xlink:href="#DejaVuSans-72" x="1267.298828"/>
     <use xlink:href="#DejaVuSans-73" x="1308.412109"/>
    </g>
   </g>
  </g>
 </g>
 <defs>
  <clipPath id="pbe03425de6">
   <rect x="57.6" y="27.648" width="303.2064" height="271.296"/>
  </clipPath>
 </defs>
</svg>
