<?xml version="1.0" encoding="utf-8" standalone="no"?>
<!DOCTYPE svg PUBLIC "-//W3C//DTD SVG 1.1//EN"
  "http://www.w3.org/Graphics/SVG/1.1/DTD/svg11.dtd">
<svg xmlns:xlink="http://www.w3.org/1999/xlink" width="460.8pt" height="345.6pt" viewBox="0 0 460.8 345.6" xmlns="http://www.w3.org/2000/svg" version="1.1">
 <metadata>
  <rdf:RDF xmlns:dc="http://purl.org/dc/elements/1.1/" xmlns:cc="http://creativecommons.org/ns#" xmlns:rdf="http://www.w3.org/1999/02/22-rdf-syntax-ns#">
   <cc:Work>
    <dc:type rdf:resource="http://purl.org/dc/dcmitype/StillImage"/>
    <dc:date>2023-02-10T02:07:41.404021</dc:date>
    <dc:format>image/svg+xml</dc:format>
    <dc:creator>
     <cc:Agent>
      <dc:title>Matplotlib v3.6.3, https://matplotlib.org/</dc:title>
     </cc:Agent>
    </dc:creator>
   </cc:Work>
  </rdf:RDF>
 </metadata>
 <defs>
  <style type="text/css">*{stroke-linejoin: round; stroke-linecap: butt}</style>
 </defs>
 <g id="figure_1">
  <g id="patch_1">
   <path d="M 0 345.6 
L 460.8 345.6 
L 460.8 0 
L 0 0 
z
" style="fill: #ffffff"/>
  </g>
  <g id="axes_1">
   <g id="patch_2">
    <path d="M 57.6 298.944 
L 360.8064 298.944 
L 360.8064 27.648 
L 57.6 27.648 
z
" style="fill: #ffffff"/>
   </g>
   <g id="line2d_1">
    <path d="M 63.011746 298.944 
L 63.011746 294.266483 
L 70.639174 294.266483 
L 70.639174 284.911448 
L 95.916911 284.911448 
L 95.916911 275.556414 
L 111.262425 275.556414 
L 111.262425 270.878897 
L 113.638206 270.878897 
L 113.638206 256.846345 
L 138.566146 256.846345 
L 138.566146 247.49131 
L 150.198193 247.49131 
L 150.198193 242.813793 
L 172.1586 242.813793 
L 172.1586 233.458759 
L 180.428504 233.458759 
L 180.428504 219.426207 
L 183.237868 219.426207 
L 183.237868 210.071172 
L 200.35767 210.071172 
L 200.35767 200.716138 
L 207.791591 200.716138 
L 207.791591 191.361103 
L 207.995673 191.361103 
L 207.995673 186.683586 
L 215.797781 186.683586 
L 215.797781 172.651034 
L 221.534544 172.651034 
L 221.534544 167.973517 
L 230.52996 167.973517 
L 230.52996 153.940966 
L 251.522176 153.940966 
L 251.522176 144.585931 
L 252.262994 144.585931 
L 252.262994 139.908414 
L 255.686246 139.908414 
L 255.686246 125.875862 
L 259.476734 125.875862 
L 259.476734 121.198345 
L 260.950043 121.198345 
L 260.950043 107.165793 
L 261.689585 107.165793 
L 261.689585 97.810759 
L 262.334899 97.810759 
L 262.334899 88.455724 
L 262.919837 88.455724 
L 262.919837 83.778207 
L 264.364314 83.778207 
L 264.364314 74.423172 
L 265.175919 74.423172 
L 265.175919 60.390621 
L 360.8064 60.390621 
" style="fill: none; stroke: #f5deb3; stroke-width: 4; stroke-linecap: square"/>
   </g>
   <g id="line2d_2">
    <defs>
     <path id="m55289804ab" d="M -0 7.778175 
L 7.778175 0 
L 0 -7.778175 
L -7.778175 -0 
z
" style="stroke: #f5deb3; stroke-width: 1.5; stroke-linejoin: miter"/>
    </defs>
    <g>
     <use xlink:href="#m55289804ab" x="172.1586" y="233.458759" style="fill: #f5deb3; stroke: #f5deb3; stroke-width: 1.5; stroke-linejoin: miter"/>
     <use xlink:href="#m55289804ab" x="255.686246" y="125.875862" style="fill: #f5deb3; stroke: #f5deb3; stroke-width: 1.5; stroke-linejoin: miter"/>
     <use xlink:href="#m55289804ab" x="265.175919" y="60.390621" style="fill: #f5deb3; stroke: #f5deb3; stroke-width: 1.5; stroke-linejoin: miter"/>
     <use xlink:href="#m55289804ab" x="265.175919" y="60.390621" style="fill: #f5deb3; stroke: #f5deb3; stroke-width: 1.5; stroke-linejoin: miter"/>
     <use xlink:href="#m55289804ab" x="360.8064" y="60.390621" style="fill: #f5deb3; stroke: #f5deb3; stroke-width: 1.5; stroke-linejoin: miter"/>
    </g>
   </g>
   <g id="line2d_3">
    <path style="fill: none; stroke: #f5deb3; stroke-width: 4; stroke-linecap: square"/>
    <g/>
   </g>
   <g id="line2d_4">
    <path d="M 360.8064 60.390621 
L 380.514816 33.07392 
" style="fill: none; stroke: #f5deb3; stroke-width: 4; stroke-linecap: square"/>
    <g>
     <use xlink:href="#m55289804ab" x="360.8064" y="60.390621" style="fill: #f5deb3; stroke: #f5deb3; stroke-width: 1.5; stroke-linejoin: miter"/>
     <use xlink:href="#m55289804ab" x="380.514816" y="33.07392" style="fill: #f5deb3; stroke: #f5deb3; stroke-width: 1.5; stroke-linejoin: miter"/>
    </g>
   </g>
   <g id="matplotlib.axis_1">
    <g id="xtick_1">
     <g id="line2d_5">
      <path d="M 57.6 298.944 
L 57.6 27.648 
" clip-path="url(#p3fa0104731)" style="fill: none; stroke: #b0b0b0; stroke-width: 0.8; stroke-linecap: square"/>
     </g>
     <g id="line2d_6">
      <defs>
       <path id="m326be0448d" d="M 0 0 
L 0 3.5 
" style="stroke: #000000; stroke-width: 0.8"/>
      </defs>
      <g>
       <use xlink:href="#m326be0448d" x="57.6" y="298.944" style="stroke: #000000; stroke-width: 0.8"/>
      </g>
     </g>
     <g id="text_1">
      <!-- 0 -->
      <g transform="translate(52.191875 318.861344) scale(0.17 -0.17)">
       <defs>
        <path id="DejaVuSans-30" d="M 2034 4250 
Q 1547 4250 1301 3770 
Q 1056 3291 1056 2328 
Q 1056 1369 1301 889 
Q 1547 409 2034 409 
Q 2525 409 2770 889 
Q 3016 1369 3016 2328 
Q 3016 3291 2770 3770 
Q 2525 4250 2034 4250 
z
M 2034 4750 
Q 2819 4750 3233 4129 
Q 3647 3509 3647 2328 
Q 3647 1150 3233 529 
Q 2819 -91 2034 -91 
Q 1250 -91 836 529 
Q 422 1150 422 2328 
Q 422 3509 836 4129 
Q 1250 4750 2034 4750 
z
" transform="scale(0.015625)"/>
       </defs>
       <use xlink:href="#DejaVuSans-30"/>
      </g>
     </g>
    </g>
    <g id="xtick_2">
     <g id="line2d_7">
      <path d="M 144.2304 298.944 
L 144.2304 27.648 
" clip-path="url(#p3fa0104731)" style="fill: none; stroke: #b0b0b0; stroke-width: 0.8; stroke-linecap: square"/>
     </g>
     <g id="line2d_8">
      <g>
       <use xlink:href="#m326be0448d" x="144.2304" y="298.944" style="stroke: #000000; stroke-width: 0.8"/>
      </g>
     </g>
     <g id="text_2">
      <!-- 2 -->
      <g transform="translate(138.822275 318.861344) scale(0.17 -0.17)">
       <defs>
        <path id="DejaVuSans-32" d="M 1228 531 
L 3431 531 
L 3431 0 
L 469 0 
L 469 531 
Q 828 903 1448 1529 
Q 2069 2156 2228 2338 
Q 2531 2678 2651 2914 
Q 2772 3150 2772 3378 
Q 2772 3750 2511 3984 
Q 2250 4219 1831 4219 
Q 1534 4219 1204 4116 
Q 875 4013 500 3803 
L 500 4441 
Q 881 4594 1212 4672 
Q 1544 4750 1819 4750 
Q 2544 4750 2975 4387 
Q 3406 4025 3406 3419 
Q 3406 3131 3298 2873 
Q 3191 2616 2906 2266 
Q 2828 2175 2409 1742 
Q 1991 1309 1228 531 
z
" transform="scale(0.015625)"/>
       </defs>
       <use xlink:href="#DejaVuSans-32"/>
      </g>
     </g>
    </g>
    <g id="xtick_3">
     <g id="line2d_9">
      <path d="M 230.8608 298.944 
L 230.8608 27.648 
" clip-path="url(#p3fa0104731)" style="fill: none; stroke: #b0b0b0; stroke-width: 0.8; stroke-linecap: square"/>
     </g>
     <g id="line2d_10">
      <g>
       <use xlink:href="#m326be0448d" x="230.8608" y="298.944" style="stroke: #000000; stroke-width: 0.8"/>
      </g>
     </g>
     <g id="text_3">
      <!-- 4 -->
      <g transform="translate(225.452675 318.861344) scale(0.17 -0.17)">
       <defs>
        <path id="DejaVuSans-34" d="M 2419 4116 
L 825 1625 
L 2419 1625 
L 2419 4116 
z
M 2253 4666 
L 3047 4666 
L 3047 1625 
L 3713 1625 
L 3713 1100 
L 3047 1100 
L 3047 0 
L 2419 0 
L 2419 1100 
L 313 1100 
L 313 1709 
L 2253 4666 
z
" transform="scale(0.015625)"/>
       </defs>
       <use xlink:href="#DejaVuSans-34"/>
      </g>
     </g>
    </g>
    <g id="xtick_4">
     <g id="line2d_11">
      <path d="M 317.4912 298.944 
L 317.4912 27.648 
" clip-path="url(#p3fa0104731)" style="fill: none; stroke: #b0b0b0; stroke-width: 0.8; stroke-linecap: square"/>
     </g>
     <g id="line2d_12">
      <g>
       <use xlink:href="#m326be0448d" x="317.4912" y="298.944" style="stroke: #000000; stroke-width: 0.8"/>
      </g>
     </g>
     <g id="text_4">
      <!-- 6 -->
      <g transform="translate(312.083075 318.861344) scale(0.17 -0.17)">
       <defs>
        <path id="DejaVuSans-36" d="M 2113 2584 
Q 1688 2584 1439 2293 
Q 1191 2003 1191 1497 
Q 1191 994 1439 701 
Q 1688 409 2113 409 
Q 2538 409 2786 701 
Q 3034 994 3034 1497 
Q 3034 2003 2786 2293 
Q 2538 2584 2113 2584 
z
M 3366 4563 
L 3366 3988 
Q 3128 4100 2886 4159 
Q 2644 4219 2406 4219 
Q 1781 4219 1451 3797 
Q 1122 3375 1075 2522 
Q 1259 2794 1537 2939 
Q 1816 3084 2150 3084 
Q 2853 3084 3261 2657 
Q 3669 2231 3669 1497 
Q 3669 778 3244 343 
Q 2819 -91 2113 -91 
Q 1303 -91 875 529 
Q 447 1150 447 2328 
Q 447 3434 972 4092 
Q 1497 4750 2381 4750 
Q 2619 4750 2861 4703 
Q 3103 4656 3366 4563 
z
" transform="scale(0.015625)"/>
       </defs>
       <use xlink:href="#DejaVuSans-36"/>
      </g>
     </g>
    </g>
    <g id="xtick_5">
     <g id="line2d_13">
      <path d="M 100.9152 298.944 
L 100.9152 27.648 
" clip-path="url(#p3fa0104731)" style="fill: none; stroke: #b0b0b0; stroke-width: 0.8; stroke-linecap: square"/>
     </g>
     <g id="line2d_14">
      <defs>
       <path id="m7da3db84d4" d="M 0 0 
L 0 2 
" style="stroke: #000000; stroke-width: 0.6"/>
      </defs>
      <g>
       <use xlink:href="#m7da3db84d4" x="100.9152" y="298.944" style="stroke: #000000; stroke-width: 0.6"/>
      </g>
     </g>
    </g>
    <g id="xtick_6">
     <g id="line2d_15">
      <path d="M 187.5456 298.944 
L 187.5456 27.648 
" clip-path="url(#p3fa0104731)" style="fill: none; stroke: #b0b0b0; stroke-width: 0.8; stroke-linecap: square"/>
     </g>
     <g id="line2d_16">
      <g>
       <use xlink:href="#m7da3db84d4" x="187.5456" y="298.944" style="stroke: #000000; stroke-width: 0.6"/>
      </g>
     </g>
    </g>
    <g id="xtick_7">
     <g id="line2d_17">
      <path d="M 274.176 298.944 
L 274.176 27.648 
" clip-path="url(#p3fa0104731)" style="fill: none; stroke: #b0b0b0; stroke-width: 0.8; stroke-linecap: square"/>
     </g>
     <g id="line2d_18">
      <g>
       <use xlink:href="#m7da3db84d4" x="274.176" y="298.944" style="stroke: #000000; stroke-width: 0.6"/>
      </g>
     </g>
    </g>
    <g id="xtick_8">
     <g id="line2d_19">
      <path d="M 360.8064 298.944 
L 360.8064 27.648 
" clip-path="url(#p3fa0104731)" style="fill: none; stroke: #b0b0b0; stroke-width: 0.8; stroke-linecap: square"/>
     </g>
     <g id="line2d_20">
      <g>
       <use xlink:href="#m7da3db84d4" x="360.8064" y="298.944" style="stroke: #000000; stroke-width: 0.6"/>
      </g>
     </g>
    </g>
    <g id="text_5">
     <!-- log10(# f-evals / dimension) -->
     <g transform="translate(88.823278 339.314156) scale(0.17 -0.17)">
      <defs>
       <path id="DejaVuSans-6c" d="M 603 4863 
L 1178 4863 
L 1178 0 
L 603 0 
L 603 4863 
z
" transform="scale(0.015625)"/>
       <path id="DejaVuSans-6f" d="M 1959 3097 
Q 1497 3097 1228 2736 
Q 959 2375 959 1747 
Q 959 1119 1226 758 
Q 1494 397 1959 397 
Q 2419 397 2687 759 
Q 2956 1122 2956 1747 
Q 2956 2369 2687 2733 
Q 2419 3097 1959 3097 
z
M 1959 3584 
Q 2709 3584 3137 3096 
Q 3566 2609 3566 1747 
Q 3566 888 3137 398 
Q 2709 -91 1959 -91 
Q 1206 -91 779 398 
Q 353 888 353 1747 
Q 353 2609 779 3096 
Q 1206 3584 1959 3584 
z
" transform="scale(0.015625)"/>
       <path id="DejaVuSans-67" d="M 2906 1791 
Q 2906 2416 2648 2759 
Q 2391 3103 1925 3103 
Q 1463 3103 1205 2759 
Q 947 2416 947 1791 
Q 947 1169 1205 825 
Q 1463 481 1925 481 
Q 2391 481 2648 825 
Q 2906 1169 2906 1791 
z
M 3481 434 
Q 3481 -459 3084 -895 
Q 2688 -1331 1869 -1331 
Q 1566 -1331 1297 -1286 
Q 1028 -1241 775 -1147 
L 775 -588 
Q 1028 -725 1275 -790 
Q 1522 -856 1778 -856 
Q 2344 -856 2625 -561 
Q 2906 -266 2906 331 
L 2906 616 
Q 2728 306 2450 153 
Q 2172 0 1784 0 
Q 1141 0 747 490 
Q 353 981 353 1791 
Q 353 2603 747 3093 
Q 1141 3584 1784 3584 
Q 2172 3584 2450 3431 
Q 2728 3278 2906 2969 
L 2906 3500 
L 3481 3500 
L 3481 434 
z
" transform="scale(0.015625)"/>
       <path id="DejaVuSans-31" d="M 794 531 
L 1825 531 
L 1825 4091 
L 703 3866 
L 703 4441 
L 1819 4666 
L 2450 4666 
L 2450 531 
L 3481 531 
L 3481 0 
L 794 0 
L 794 531 
z
" transform="scale(0.015625)"/>
       <path id="DejaVuSans-28" d="M 1984 4856 
Q 1566 4138 1362 3434 
Q 1159 2731 1159 2009 
Q 1159 1288 1364 580 
Q 1569 -128 1984 -844 
L 1484 -844 
Q 1016 -109 783 600 
Q 550 1309 550 2009 
Q 550 2706 781 3412 
Q 1013 4119 1484 4856 
L 1984 4856 
z
" transform="scale(0.015625)"/>
       <path id="DejaVuSans-23" d="M 3272 2816 
L 2363 2816 
L 2100 1772 
L 3016 1772 
L 3272 2816 
z
M 2803 4594 
L 2478 3297 
L 3391 3297 
L 3719 4594 
L 4219 4594 
L 3897 3297 
L 4872 3297 
L 4872 2816 
L 3775 2816 
L 3519 1772 
L 4513 1772 
L 4513 1294 
L 3397 1294 
L 3072 0 
L 2572 0 
L 2894 1294 
L 1978 1294 
L 1656 0 
L 1153 0 
L 1478 1294 
L 494 1294 
L 494 1772 
L 1594 1772 
L 1856 2816 
L 850 2816 
L 850 3297 
L 1978 3297 
L 2297 4594 
L 2803 4594 
z
" transform="scale(0.015625)"/>
       <path id="DejaVuSans-20" transform="scale(0.015625)"/>
       <path id="DejaVuSans-66" d="M 2375 4863 
L 2375 4384 
L 1825 4384 
Q 1516 4384 1395 4259 
Q 1275 4134 1275 3809 
L 1275 3500 
L 2222 3500 
L 2222 3053 
L 1275 3053 
L 1275 0 
L 697 0 
L 697 3053 
L 147 3053 
L 147 3500 
L 697 3500 
L 697 3744 
Q 697 4328 969 4595 
Q 1241 4863 1831 4863 
L 2375 4863 
z
" transform="scale(0.015625)"/>
       <path id="DejaVuSans-2d" d="M 313 2009 
L 1997 2009 
L 1997 1497 
L 313 1497 
L 313 2009 
z
" transform="scale(0.015625)"/>
       <path id="DejaVuSans-65" d="M 3597 1894 
L 3597 1613 
L 953 1613 
Q 991 1019 1311 708 
Q 1631 397 2203 397 
Q 2534 397 2845 478 
Q 3156 559 3463 722 
L 3463 178 
Q 3153 47 2828 -22 
Q 2503 -91 2169 -91 
Q 1331 -91 842 396 
Q 353 884 353 1716 
Q 353 2575 817 3079 
Q 1281 3584 2069 3584 
Q 2775 3584 3186 3129 
Q 3597 2675 3597 1894 
z
M 3022 2063 
Q 3016 2534 2758 2815 
Q 2500 3097 2075 3097 
Q 1594 3097 1305 2825 
Q 1016 2553 972 2059 
L 3022 2063 
z
" transform="scale(0.015625)"/>
       <path id="DejaVuSans-76" d="M 191 3500 
L 800 3500 
L 1894 563 
L 2988 3500 
L 3597 3500 
L 2284 0 
L 1503 0 
L 191 3500 
z
" transform="scale(0.015625)"/>
       <path id="DejaVuSans-61" d="M 2194 1759 
Q 1497 1759 1228 1600 
Q 959 1441 959 1056 
Q 959 750 1161 570 
Q 1363 391 1709 391 
Q 2188 391 2477 730 
Q 2766 1069 2766 1631 
L 2766 1759 
L 2194 1759 
z
M 3341 1997 
L 3341 0 
L 2766 0 
L 2766 531 
Q 2569 213 2275 61 
Q 1981 -91 1556 -91 
Q 1019 -91 701 211 
Q 384 513 384 1019 
Q 384 1609 779 1909 
Q 1175 2209 1959 2209 
L 2766 2209 
L 2766 2266 
Q 2766 2663 2505 2880 
Q 2244 3097 1772 3097 
Q 1472 3097 1187 3025 
Q 903 2953 641 2809 
L 641 3341 
Q 956 3463 1253 3523 
Q 1550 3584 1831 3584 
Q 2591 3584 2966 3190 
Q 3341 2797 3341 1997 
z
" transform="scale(0.015625)"/>
       <path id="DejaVuSans-73" d="M 2834 3397 
L 2834 2853 
Q 2591 2978 2328 3040 
Q 2066 3103 1784 3103 
Q 1356 3103 1142 2972 
Q 928 2841 928 2578 
Q 928 2378 1081 2264 
Q 1234 2150 1697 2047 
L 1894 2003 
Q 2506 1872 2764 1633 
Q 3022 1394 3022 966 
Q 3022 478 2636 193 
Q 2250 -91 1575 -91 
Q 1294 -91 989 -36 
Q 684 19 347 128 
L 347 722 
Q 666 556 975 473 
Q 1284 391 1588 391 
Q 1994 391 2212 530 
Q 2431 669 2431 922 
Q 2431 1156 2273 1281 
Q 2116 1406 1581 1522 
L 1381 1569 
Q 847 1681 609 1914 
Q 372 2147 372 2553 
Q 372 3047 722 3315 
Q 1072 3584 1716 3584 
Q 2034 3584 2315 3537 
Q 2597 3491 2834 3397 
z
" transform="scale(0.015625)"/>
       <path id="DejaVuSans-2f" d="M 1625 4666 
L 2156 4666 
L 531 -594 
L 0 -594 
L 1625 4666 
z
" transform="scale(0.015625)"/>
       <path id="DejaVuSans-64" d="M 2906 2969 
L 2906 4863 
L 3481 4863 
L 3481 0 
L 2906 0 
L 2906 525 
Q 2725 213 2448 61 
Q 2172 -91 1784 -91 
Q 1150 -91 751 415 
Q 353 922 353 1747 
Q 353 2572 751 3078 
Q 1150 3584 1784 3584 
Q 2172 3584 2448 3432 
Q 2725 3281 2906 2969 
z
M 947 1747 
Q 947 1113 1208 752 
Q 1469 391 1925 391 
Q 2381 391 2643 752 
Q 2906 1113 2906 1747 
Q 2906 2381 2643 2742 
Q 2381 3103 1925 3103 
Q 1469 3103 1208 2742 
Q 947 2381 947 1747 
z
" transform="scale(0.015625)"/>
       <path id="DejaVuSans-69" d="M 603 3500 
L 1178 3500 
L 1178 0 
L 603 0 
L 603 3500 
z
M 603 4863 
L 1178 4863 
L 1178 4134 
L 603 4134 
L 603 4863 
z
" transform="scale(0.015625)"/>
       <path id="DejaVuSans-6d" d="M 3328 2828 
Q 3544 3216 3844 3400 
Q 4144 3584 4550 3584 
Q 5097 3584 5394 3201 
Q 5691 2819 5691 2113 
L 5691 0 
L 5113 0 
L 5113 2094 
Q 5113 2597 4934 2840 
Q 4756 3084 4391 3084 
Q 3944 3084 3684 2787 
Q 3425 2491 3425 1978 
L 3425 0 
L 2847 0 
L 2847 2094 
Q 2847 2600 2669 2842 
Q 2491 3084 2119 3084 
Q 1678 3084 1418 2786 
Q 1159 2488 1159 1978 
L 1159 0 
L 581 0 
L 581 3500 
L 1159 3500 
L 1159 2956 
Q 1356 3278 1631 3431 
Q 1906 3584 2284 3584 
Q 2666 3584 2933 3390 
Q 3200 3197 3328 2828 
z
" transform="scale(0.015625)"/>
       <path id="DejaVuSans-6e" d="M 3513 2113 
L 3513 0 
L 2938 0 
L 2938 2094 
Q 2938 2591 2744 2837 
Q 2550 3084 2163 3084 
Q 1697 3084 1428 2787 
Q 1159 2491 1159 1978 
L 1159 0 
L 581 0 
L 581 3500 
L 1159 3500 
L 1159 2956 
Q 1366 3272 1645 3428 
Q 1925 3584 2291 3584 
Q 2894 3584 3203 3211 
Q 3513 2838 3513 2113 
z
" transform="scale(0.015625)"/>
       <path id="DejaVuSans-29" d="M 513 4856 
L 1013 4856 
Q 1481 4119 1714 3412 
Q 1947 2706 1947 2009 
Q 1947 1309 1714 600 
Q 1481 -109 1013 -844 
L 513 -844 
Q 928 -128 1133 580 
Q 1338 1288 1338 2009 
Q 1338 2731 1133 3434 
Q 928 4138 513 4856 
z
" transform="scale(0.015625)"/>
      </defs>
      <use xlink:href="#DejaVuSans-6c"/>
      <use xlink:href="#DejaVuSans-6f" x="27.783203"/>
      <use xlink:href="#DejaVuSans-67" x="88.964844"/>
      <use xlink:href="#DejaVuSans-31" x="152.441406"/>
      <use xlink:href="#DejaVuSans-30" x="216.064453"/>
      <use xlink:href="#DejaVuSans-28" x="279.6875"/>
      <use xlink:href="#DejaVuSans-23" x="318.701172"/>
      <use xlink:href="#DejaVuSans-20" x="402.490234"/>
      <use xlink:href="#DejaVuSans-66" x="434.277344"/>
      <use xlink:href="#DejaVuSans-2d" x="463.982422"/>
      <use xlink:href="#DejaVuSans-65" x="500.066406"/>
      <use xlink:href="#DejaVuSans-76" x="561.589844"/>
      <use xlink:href="#DejaVuSans-61" x="620.769531"/>
      <use xlink:href="#DejaVuSans-6c" x="682.048828"/>
      <use xlink:href="#DejaVuSans-73" x="709.832031"/>
      <use xlink:href="#DejaVuSans-20" x="761.931641"/>
      <use xlink:href="#DejaVuSans-2f" x="793.71875"/>
      <use xlink:href="#DejaVuSans-20" x="827.410156"/>
      <use xlink:href="#DejaVuSans-64" x="859.197266"/>
      <use xlink:href="#DejaVuSans-69" x="922.673828"/>
      <use xlink:href="#DejaVuSans-6d" x="950.457031"/>
      <use xlink:href="#DejaVuSans-65" x="1047.869141"/>
      <use xlink:href="#DejaVuSans-6e" x="1109.392578"/>
      <use xlink:href="#DejaVuSans-73" x="1172.771484"/>
      <use xlink:href="#DejaVuSans-69" x="1224.871094"/>
      <use xlink:href="#DejaVuSans-6f" x="1252.654297"/>
      <use xlink:href="#DejaVuSans-6e" x="1313.835938"/>
      <use xlink:href="#DejaVuSans-29" x="1377.214844"/>
     </g>
    </g>
   </g>
   <g id="matplotlib.axis_2">
    <g id="ytick_1">
     <g id="line2d_21">
      <path d="M 57.6 298.944 
L 360.8064 298.944 
" clip-path="url(#p3fa0104731)" style="fill: none; stroke: #b0b0b0; stroke-width: 0.8; stroke-linecap: square"/>
     </g>
     <g id="line2d_22">
      <defs>
       <path id="mca295db1ff" d="M 0 0 
L -3.5 0 
" style="stroke: #000000; stroke-width: 0.8"/>
      </defs>
      <g>
       <use xlink:href="#mca295db1ff" x="57.6" y="298.944" style="stroke: #000000; stroke-width: 0.8"/>
      </g>
     </g>
     <g id="text_6">
      <!-- 0.0 -->
      <g transform="translate(25.155 305.02275) scale(0.16 -0.16)">
       <defs>
        <path id="DejaVuSans-2e" d="M 684 794 
L 1344 794 
L 1344 0 
L 684 0 
L 684 794 
z
" transform="scale(0.015625)"/>
       </defs>
       <use xlink:href="#DejaVuSans-30"/>
       <use xlink:href="#DejaVuSans-2e" x="63.623047"/>
       <use xlink:href="#DejaVuSans-30" x="95.410156"/>
      </g>
     </g>
    </g>
    <g id="ytick_2">
     <g id="line2d_23">
      <path d="M 57.6 244.6848 
L 360.8064 244.6848 
" clip-path="url(#p3fa0104731)" style="fill: none; stroke: #b0b0b0; stroke-width: 0.8; stroke-linecap: square"/>
     </g>
     <g id="line2d_24">
      <g>
       <use xlink:href="#mca295db1ff" x="57.6" y="244.6848" style="stroke: #000000; stroke-width: 0.8"/>
      </g>
     </g>
     <g id="text_7">
      <!-- 0.2 -->
      <g transform="translate(25.155 250.76355) scale(0.16 -0.16)">
       <use xlink:href="#DejaVuSans-30"/>
       <use xlink:href="#DejaVuSans-2e" x="63.623047"/>
       <use xlink:href="#DejaVuSans-32" x="95.410156"/>
      </g>
     </g>
    </g>
    <g id="ytick_3">
     <g id="line2d_25">
      <path d="M 57.6 190.4256 
L 360.8064 190.4256 
" clip-path="url(#p3fa0104731)" style="fill: none; stroke: #b0b0b0; stroke-width: 0.8; stroke-linecap: square"/>
     </g>
     <g id="line2d_26">
      <g>
       <use xlink:href="#mca295db1ff" x="57.6" y="190.4256" style="stroke: #000000; stroke-width: 0.8"/>
      </g>
     </g>
     <g id="text_8">
      <!-- 0.4 -->
      <g transform="translate(25.155 196.50435) scale(0.16 -0.16)">
       <use xlink:href="#DejaVuSans-30"/>
       <use xlink:href="#DejaVuSans-2e" x="63.623047"/>
       <use xlink:href="#DejaVuSans-34" x="95.410156"/>
      </g>
     </g>
    </g>
    <g id="ytick_4">
     <g id="line2d_27">
      <path d="M 57.6 136.1664 
L 360.8064 136.1664 
" clip-path="url(#p3fa0104731)" style="fill: none; stroke: #b0b0b0; stroke-width: 0.8; stroke-linecap: square"/>
     </g>
     <g id="line2d_28">
      <g>
       <use xlink:href="#mca295db1ff" x="57.6" y="136.1664" style="stroke: #000000; stroke-width: 0.8"/>
      </g>
     </g>
     <g id="text_9">
      <!-- 0.6 -->
      <g transform="translate(25.155 142.24515) scale(0.16 -0.16)">
       <use xlink:href="#DejaVuSans-30"/>
       <use xlink:href="#DejaVuSans-2e" x="63.623047"/>
       <use xlink:href="#DejaVuSans-36" x="95.410156"/>
      </g>
     </g>
    </g>
    <g id="ytick_5">
     <g id="line2d_29">
      <path d="M 57.6 81.9072 
L 360.8064 81.9072 
" clip-path="url(#p3fa0104731)" style="fill: none; stroke: #b0b0b0; stroke-width: 0.8; stroke-linecap: square"/>
     </g>
     <g id="line2d_30">
      <g>
       <use xlink:href="#mca295db1ff" x="57.6" y="81.9072" style="stroke: #000000; stroke-width: 0.8"/>
      </g>
     </g>
     <g id="text_10">
      <!-- 0.8 -->
      <g transform="translate(25.155 87.98595) scale(0.16 -0.16)">
       <defs>
        <path id="DejaVuSans-38" d="M 2034 2216 
Q 1584 2216 1326 1975 
Q 1069 1734 1069 1313 
Q 1069 891 1326 650 
Q 1584 409 2034 409 
Q 2484 409 2743 651 
Q 3003 894 3003 1313 
Q 3003 1734 2745 1975 
Q 2488 2216 2034 2216 
z
M 1403 2484 
Q 997 2584 770 2862 
Q 544 3141 544 3541 
Q 544 4100 942 4425 
Q 1341 4750 2034 4750 
Q 2731 4750 3128 4425 
Q 3525 4100 3525 3541 
Q 3525 3141 3298 2862 
Q 3072 2584 2669 2484 
Q 3125 2378 3379 2068 
Q 3634 1759 3634 1313 
Q 3634 634 3220 271 
Q 2806 -91 2034 -91 
Q 1263 -91 848 271 
Q 434 634 434 1313 
Q 434 1759 690 2068 
Q 947 2378 1403 2484 
z
M 1172 3481 
Q 1172 3119 1398 2916 
Q 1625 2713 2034 2713 
Q 2441 2713 2670 2916 
Q 2900 3119 2900 3481 
Q 2900 3844 2670 4047 
Q 2441 4250 2034 4250 
Q 1625 4250 1398 4047 
Q 1172 3844 1172 3481 
z
" transform="scale(0.015625)"/>
       </defs>
       <use xlink:href="#DejaVuSans-30"/>
       <use xlink:href="#DejaVuSans-2e" x="63.623047"/>
       <use xlink:href="#DejaVuSans-38" x="95.410156"/>
      </g>
     </g>
    </g>
    <g id="ytick_6">
     <g id="line2d_31">
      <path d="M 57.6 27.648 
L 360.8064 27.648 
" clip-path="url(#p3fa0104731)" style="fill: none; stroke: #b0b0b0; stroke-width: 0.8; stroke-linecap: square"/>
     </g>
     <g id="line2d_32">
      <g>
       <use xlink:href="#mca295db1ff" x="57.6" y="27.648" style="stroke: #000000; stroke-width: 0.8"/>
      </g>
     </g>
     <g id="text_11">
      <!-- 1.0 -->
      <g transform="translate(25.155 33.72675) scale(0.16 -0.16)">
       <use xlink:href="#DejaVuSans-31"/>
       <use xlink:href="#DejaVuSans-2e" x="63.623047"/>
       <use xlink:href="#DejaVuSans-30" x="95.410156"/>
      </g>
     </g>
    </g>
    <g id="text_12">
     <!-- Fraction of function,target pairs -->
     <g transform="translate(17.619531 297.681) rotate(-90) scale(0.17 -0.17)">
      <defs>
       <path id="DejaVuSans-46" d="M 628 4666 
L 3309 4666 
L 3309 4134 
L 1259 4134 
L 1259 2759 
L 3109 2759 
L 3109 2228 
L 1259 2228 
L 1259 0 
L 628 0 
L 628 4666 
z
" transform="scale(0.015625)"/>
       <path id="DejaVuSans-72" d="M 2631 2963 
Q 2534 3019 2420 3045 
Q 2306 3072 2169 3072 
Q 1681 3072 1420 2755 
Q 1159 2438 1159 1844 
L 1159 0 
L 581 0 
L 581 3500 
L 1159 3500 
L 1159 2956 
Q 1341 3275 1631 3429 
Q 1922 3584 2338 3584 
Q 2397 3584 2469 3576 
Q 2541 3569 2628 3553 
L 2631 2963 
z
" transform="scale(0.015625)"/>
       <path id="DejaVuSans-63" d="M 3122 3366 
L 3122 2828 
Q 2878 2963 2633 3030 
Q 2388 3097 2138 3097 
Q 1578 3097 1268 2742 
Q 959 2388 959 1747 
Q 959 1106 1268 751 
Q 1578 397 2138 397 
Q 2388 397 2633 464 
Q 2878 531 3122 666 
L 3122 134 
Q 2881 22 2623 -34 
Q 2366 -91 2075 -91 
Q 1284 -91 818 406 
Q 353 903 353 1747 
Q 353 2603 823 3093 
Q 1294 3584 2113 3584 
Q 2378 3584 2631 3529 
Q 2884 3475 3122 3366 
z
" transform="scale(0.015625)"/>
       <path id="DejaVuSans-74" d="M 1172 4494 
L 1172 3500 
L 2356 3500 
L 2356 3053 
L 1172 3053 
L 1172 1153 
Q 1172 725 1289 603 
Q 1406 481 1766 481 
L 2356 481 
L 2356 0 
L 1766 0 
Q 1100 0 847 248 
Q 594 497 594 1153 
L 594 3053 
L 172 3053 
L 172 3500 
L 594 3500 
L 594 4494 
L 1172 4494 
z
" transform="scale(0.015625)"/>
       <path id="DejaVuSans-75" d="M 544 1381 
L 544 3500 
L 1119 3500 
L 1119 1403 
Q 1119 906 1312 657 
Q 1506 409 1894 409 
Q 2359 409 2629 706 
Q 2900 1003 2900 1516 
L 2900 3500 
L 3475 3500 
L 3475 0 
L 2900 0 
L 2900 538 
Q 2691 219 2414 64 
Q 2138 -91 1772 -91 
Q 1169 -91 856 284 
Q 544 659 544 1381 
z
M 1991 3584 
L 1991 3584 
z
" transform="scale(0.015625)"/>
       <path id="DejaVuSans-2c" d="M 750 794 
L 1409 794 
L 1409 256 
L 897 -744 
L 494 -744 
L 750 256 
L 750 794 
z
" transform="scale(0.015625)"/>
       <path id="DejaVuSans-70" d="M 1159 525 
L 1159 -1331 
L 581 -1331 
L 581 3500 
L 1159 3500 
L 1159 2969 
Q 1341 3281 1617 3432 
Q 1894 3584 2278 3584 
Q 2916 3584 3314 3078 
Q 3713 2572 3713 1747 
Q 3713 922 3314 415 
Q 2916 -91 2278 -91 
Q 1894 -91 1617 61 
Q 1341 213 1159 525 
z
M 3116 1747 
Q 3116 2381 2855 2742 
Q 2594 3103 2138 3103 
Q 1681 3103 1420 2742 
Q 1159 2381 1159 1747 
Q 1159 1113 1420 752 
Q 1681 391 2138 391 
Q 2594 391 2855 752 
Q 3116 1113 3116 1747 
z
" transform="scale(0.015625)"/>
      </defs>
      <use xlink:href="#DejaVuSans-46"/>
      <use xlink:href="#DejaVuSans-72" x="50.269531"/>
      <use xlink:href="#DejaVuSans-61" x="91.382812"/>
      <use xlink:href="#DejaVuSans-63" x="152.662109"/>
      <use xlink:href="#DejaVuSans-74" x="207.642578"/>
      <use xlink:href="#DejaVuSans-69" x="246.851562"/>
      <use xlink:href="#DejaVuSans-6f" x="274.634766"/>
      <use xlink:href="#DejaVuSans-6e" x="335.816406"/>
      <use xlink:href="#DejaVuSans-20" x="399.195312"/>
      <use xlink:href="#DejaVuSans-6f" x="430.982422"/>
      <use xlink:href="#DejaVuSans-66" x="492.164062"/>
      <use xlink:href="#DejaVuSans-20" x="527.369141"/>
      <use xlink:href="#DejaVuSans-66" x="559.15625"/>
      <use xlink:href="#DejaVuSans-75" x="594.361328"/>
      <use xlink:href="#DejaVuSans-6e" x="657.740234"/>
      <use xlink:href="#DejaVuSans-63" x="721.119141"/>
      <use xlink:href="#DejaVuSans-74" x="776.099609"/>
      <use xlink:href="#DejaVuSans-69" x="815.308594"/>
      <use xlink:href="#DejaVuSans-6f" x="843.091797"/>
      <use xlink:href="#DejaVuSans-6e" x="904.273438"/>
      <use xlink:href="#DejaVuSans-2c" x="967.652344"/>
      <use xlink:href="#DejaVuSans-74" x="999.439453"/>
      <use xlink:href="#DejaVuSans-61" x="1038.648438"/>
      <use xlink:href="#DejaVuSans-72" x="1099.927734"/>
      <use xlink:href="#DejaVuSans-67" x="1139.291016"/>
      <use xlink:href="#DejaVuSans-65" x="1202.767578"/>
      <use xlink:href="#DejaVuSans-74" x="1264.291016"/>
      <use xlink:href="#DejaVuSans-20" x="1303.5"/>
      <use xlink:href="#DejaVuSans-70" x="1335.287109"/>
      <use xlink:href="#DejaVuSans-61" x="1398.763672"/>
      <use xlink:href="#DejaVuSans-69" x="1460.042969"/>
      <use xlink:href="#DejaVuSans-72" x="1487.826172"/>
      <use xlink:href="#DejaVuSans-73" x="1528.939453"/>
     </g>
    </g>
   </g>
   <g id="line2d_33">
    <defs>
     <path id="me18cadbba1" d="M 0 1.5 
C 0.397805 1.5 0.77937 1.341951 1.06066 1.06066 
C 1.341951 0.77937 1.5 0.397805 1.5 0 
C 1.5 -0.397805 1.341951 -0.77937 1.06066 -1.06066 
C 0.77937 -1.341951 0.397805 -1.5 0 -1.5 
C -0.397805 -1.5 -0.77937 -1.341951 -1.06066 -1.06066 
C -1.341951 -0.77937 -1.5 -0.397805 -1.5 0 
C -1.5 0.397805 -1.341951 0.77937 -1.06066 1.06066 
C -0.77937 1.341951 -0.397805 1.5 0 1.5 
z
" style="stroke: #f5deb3"/>
    </defs>
    <g>
     <use xlink:href="#me18cadbba1" x="265.175919" y="60.390621" style="fill: #f5deb3; stroke: #f5deb3"/>
     <use xlink:href="#me18cadbba1" x="265.175919" y="60.390621" style="fill: #f5deb3; stroke: #f5deb3"/>
    </g>
   </g>
   <g id="line2d_34">
    <defs>
     <path id="m4674eff414" d="M 0 1.5 
C 0.397805 1.5 0.77937 1.341951 1.06066 1.06066 
C 1.341951 0.77937 1.5 0.397805 1.5 0 
C 1.5 -0.397805 1.341951 -0.77937 1.06066 -1.06066 
C 0.77937 -1.341951 0.397805 -1.5 0 -1.5 
C -0.397805 -1.5 -0.77937 -1.341951 -1.06066 -1.06066 
C -1.341951 -0.77937 -1.5 -0.397805 -1.5 0 
C -1.5 0.397805 -1.341951 0.77937 -1.06066 1.06066 
C -0.77937 1.341951 -0.397805 1.5 0 1.5 
z
" style="stroke: #000080"/>
    </defs>
    <g>
     <use xlink:href="#m4674eff414" x="211.142448" y="163.296" style="fill: #000080; stroke: #000080"/>
     <use xlink:href="#m4674eff414" x="211.142448" y="163.296" style="fill: #000080; stroke: #000080"/>
    </g>
   </g>
   <g id="line2d_35">
    <path d="M 36.933397 298.944 
L 36.933397 296.13749 
L 49.972572 296.13749 
L 49.972572 293.330979 
L 57.6 293.330979 
L 57.6 292.395476 
L 63.011746 292.395476 
L 63.011746 291.927724 
L 70.639174 291.927724 
L 70.639174 291.459972 
L 76.050921 291.459972 
L 76.050921 290.992221 
L 78.266603 290.992221 
L 78.266603 289.121214 
L 82.04153 289.121214 
L 82.04153 288.653462 
L 85.184077 288.653462 
L 85.184077 287.250207 
L 86.578163 287.250207 
L 86.578163 285.846952 
L 92.322865 285.846952 
L 92.322865 285.3792 
L 93.287772 285.3792 
L 93.287772 284.911448 
L 99.617337 284.911448 
L 99.617337 283.508193 
L 100.9152 283.508193 
L 100.9152 283.040441 
L 105.36204 283.040441 
L 105.36204 282.104938 
L 108.119879 282.104938 
L 108.119879 281.637186 
L 108.542628 281.637186 
L 108.542628 281.169434 
L 108.956085 281.169434 
L 108.956085 280.701683 
L 109.360651 280.701683 
L 109.360651 278.830676 
L 110.897141 278.830676 
L 110.897141 278.362924 
L 111.262425 278.362924 
L 111.262425 277.895172 
L 111.97238 277.895172 
L 111.97238 277.427421 
L 112.317555 277.427421 
L 112.317555 276.959669 
L 112.656511 276.959669 
L 112.656511 276.491917 
L 113.316634 276.491917 
L 113.316634 276.024166 
L 113.638206 276.024166 
L 113.638206 275.556414 
L 115.168444 275.556414 
L 115.168444 273.217655 
L 115.747307 273.217655 
L 115.747307 271.346648 
L 116.583514 271.346648 
L 116.583514 268.540138 
L 117.121023 268.540138 
L 117.121023 267.136883 
L 117.899543 267.136883 
L 117.899543 266.201379 
L 118.152051 266.201379 
L 118.152051 265.265876 
L 119.830627 265.265876 
L 119.830627 264.798124 
L 120.28394 264.798124 
L 120.28394 261.991614 
L 122.795872 261.991614 
L 122.795872 261.523862 
L 124.119844 261.523862 
L 124.119844 261.05611 
L 125.35673 261.05611 
L 125.35673 260.588359 
L 126.028642 260.588359 
L 126.028642 260.120607 
L 127.610376 260.120607 
L 127.610376 259.652855 
L 128.499277 259.652855 
L 128.499277 259.185103 
L 130.682774 259.185103 
L 130.682774 258.2496 
L 131.686295 258.2496 
L 131.686295 256.846345 
L 134.304809 256.846345 
L 134.304809 256.378593 
L 137.875736 256.378593 
L 137.875736 255.910841 
L 139.150143 255.910841 
L 139.232111 254.975338 
L 141.538451 254.975338 
L 141.538451 254.507586 
L 141.96763 254.507586 
L 141.96763 254.039834 
L 145.26728 254.039834 
L 145.26728 253.104331 
L 146.859539 253.104331 
L 146.859539 252.636579 
L 148.175569 252.636579 
L 148.226342 250.297821 
L 148.377845 250.297821 
L 148.377845 249.362317 
L 149.500528 249.362317 
L 149.500528 248.426814 
L 153.5746 248.426814 
L 153.5746 247.959062 
L 154.468783 247.959062 
L 154.468783 246.555807 
L 156.005274 246.555807 
L 156.038776 245.152552 
L 157.269574 245.152552 
L 157.269574 244.6848 
L 158.0375 244.6848 
L 158.0375 244.217048 
L 159.005416 244.217048 
L 159.005416 243.281545 
L 159.898714 243.281545 
L 159.898714 242.346041 
L 160.777545 242.346041 
L 160.777545 241.410538 
L 160.984551 241.410538 
L 160.984551 240.942786 
L 161.442152 240.942786 
L 161.442152 239.071779 
L 161.888886 239.071779 
L 161.888886 238.604028 
L 162.39701 238.604028 
L 162.39701 238.136276 
L 163.053839 238.136276 
L 163.053839 237.668524 
L 164.388551 237.668524 
L 164.388551 237.200772 
L 166.8978 237.200772 
L 166.8978 236.265269 
L 167.1776 236.265269 
L 167.1776 235.797517 
L 167.598703 235.797517 
L 167.598703 234.394262 
L 167.778892 234.394262 
L 167.796816 232.991007 
L 167.92181 232.991007 
L 167.92181 232.055503 
L 168.517384 232.055503 
L 168.569041 230.184497 
L 169.010886 230.184497 
L 169.010886 229.716745 
L 170.008516 229.716745 
L 170.008516 228.781241 
L 170.49593 228.781241 
L 170.49593 228.31349 
L 171.136775 228.31349 
L 171.136775 227.845738 
L 171.404878 227.845738 
L 171.404878 226.910234 
L 171.552189 226.910234 
L 171.552189 226.442483 
L 171.828941 226.442483 
L 171.828941 225.974731 
L 172.677089 225.974731 
L 172.78734 223.635972 
L 173.382435 223.635972 
L 173.382435 222.700469 
L 174.405829 222.700469 
L 174.405829 221.764966 
L 175.074644 221.764966 
L 175.074644 220.829462 
L 175.567027 220.829462 
L 175.567027 219.893959 
L 175.802616 219.893959 
L 175.802616 219.426207 
L 178.050787 219.426207 
L 178.050787 218.958455 
L 178.573221 218.958455 
L 178.573221 218.022952 
L 178.724157 218.022952 
L 178.774201 215.684193 
L 178.923539 215.684193 
L 178.923539 214.74869 
L 179.316074 214.74869 
L 179.316074 214.280938 
L 179.672018 214.280938 
L 179.681545 213.345434 
L 179.927575 213.345434 
L 179.965142 211.474428 
L 181.085154 211.474428 
L 181.085154 211.006676 
L 181.685435 211.006676 
L 181.762339 208.667917 
L 182.903785 208.667917 
L 182.951876 207.264662 
L 183.300836 207.264662 
L 183.300836 206.329159 
L 183.535105 206.329159 
L 183.535105 205.861407 
L 183.79713 205.861407 
L 183.79713 205.393655 
L 184.788421 205.393655 
L 184.79568 204.458152 
L 185.183561 204.458152 
L 185.183561 203.522648 
L 185.479812 203.522648 
L 185.479812 203.054897 
L 186.051887 203.054897 
L 186.058675 202.119393 
L 186.881894 202.119393 
L 186.881894 201.651641 
L 187.133536 201.651641 
L 187.235808 197.441876 
L 187.254922 197.441876 
L 187.254922 196.974124 
L 187.98562 196.974124 
L 187.98562 196.506372 
L 188.706688 196.506372 
L 188.706688 195.570869 
L 188.911896 195.570869 
L 188.911896 195.103117 
L 189.401133 195.103117 
L 189.401133 194.635366 
L 189.643866 194.635366 
L 189.643866 194.167614 
L 190.070853 194.167614 
L 190.169286 192.296607 
L 191.147005 192.296607 
L 191.147005 191.361103 
L 191.270868 191.361103 
L 191.270868 190.893352 
L 191.495852 190.893352 
L 191.495852 189.957848 
L 191.798376 189.957848 
L 191.798376 189.490097 
L 192.252999 189.490097 
L 192.28227 186.683586 
L 192.749273 186.683586 
L 192.749273 185.748083 
L 192.877227 185.748083 
L 192.877227 183.877076 
L 192.994932 183.877076 
L 193.04649 182.006069 
L 193.785372 182.006069 
L 193.785372 181.538317 
L 193.924369 181.538317 
L 193.968988 180.602814 
L 194.177294 180.602814 
L 194.177294 180.135062 
L 194.835592 180.135062 
L 194.924757 179.199559 
L 195.218956 179.199559 
L 195.218956 178.731807 
L 195.451047 178.731807 
L 195.451047 177.796303 
L 195.696578 177.796303 
L 195.696578 177.328552 
L 195.834303 177.328552 
L 195.854472 176.393048 
L 196.312488 176.393048 
L 196.332151 175.457545 
L 197.457328 175.457545 
L 197.457328 174.522041 
L 197.787621 174.522041 
L 197.787621 173.586538 
L 198.229843 173.586538 
L 198.229843 173.118786 
L 198.399637 173.118786 
L 198.399637 172.651034 
L 199.050285 172.651034 
L 199.050285 172.183283 
L 199.233087 172.183283 
L 199.233087 171.715531 
L 199.474093 171.715531 
L 199.474093 171.247779 
L 199.829908 171.247779 
L 199.829908 170.312276 
L 200.063434 170.312276 
L 200.143846 169.376772 
L 200.731557 169.376772 
L 200.731557 168.909021 
L 201.355709 168.909021 
L 201.406799 167.038014 
L 202.320616 167.038014 
L 202.320616 166.570262 
L 202.914373 166.570262 
L 202.914373 166.10251 
L 204.095346 166.10251 
L 204.095346 165.634759 
L 205.159887 165.634759 
L 205.159887 165.167007 
L 209.533739 165.167007 
L 209.533739 164.699255 
L 210.655033 164.699255 
L 210.655033 163.763752 
L 211.142448 163.763752 
L 211.142448 163.296 
L 360.8064 163.296 
L 360.8064 163.296 
" style="fill: none; stroke: #000080; stroke-width: 1.5; stroke-linecap: square"/>
   </g>
   <g id="line2d_36">
    <defs>
     <path id="mf1cff591a3" d="M 0 6 
C 1.591219 6 3.117479 5.367802 4.242641 4.242641 
C 5.367802 3.117479 6 1.591219 6 0 
C 6 -1.591219 5.367802 -3.117479 4.242641 -4.242641 
C 3.117479 -5.367802 1.591219 -6 0 -6 
C -1.591219 -6 -3.117479 -5.367802 -4.242641 -4.242641 
C -5.367802 -3.117479 -6 -1.591219 -6 0 
C -6 1.591219 -5.367802 3.117479 -4.242641 4.242641 
C -3.117479 5.367802 -1.591219 6 0 6 
z
" style="stroke: #000080; stroke-width: 1.5"/>
    </defs>
    <g>
     <use xlink:href="#mf1cff591a3" x="126.028642" y="260.588359" style="fill-opacity: 0; stroke: #000080; stroke-width: 1.5"/>
     <use xlink:href="#mf1cff591a3" x="184.788421" y="205.393655" style="fill-opacity: 0; stroke: #000080; stroke-width: 1.5"/>
     <use xlink:href="#mf1cff591a3" x="211.142448" y="163.763752" style="fill-opacity: 0; stroke: #000080; stroke-width: 1.5"/>
     <use xlink:href="#mf1cff591a3" x="211.142448" y="163.296" style="fill-opacity: 0; stroke: #000080; stroke-width: 1.5"/>
     <use xlink:href="#mf1cff591a3" x="211.142448" y="163.296" style="fill-opacity: 0; stroke: #000080; stroke-width: 1.5"/>
     <use xlink:href="#mf1cff591a3" x="360.8064" y="163.296" style="fill-opacity: 0; stroke: #000080; stroke-width: 1.5"/>
    </g>
   </g>
   <g id="line2d_37">
    <path style="fill: none; stroke: #000080; stroke-width: 1.5; stroke-linecap: square"/>
    <g/>
   </g>
   <g id="line2d_38">
    <path d="M 230.867069 163.296 
" clip-path="url(#p3fa0104731)" style="fill: none; stroke: #000080; stroke-width: 1.5; stroke-linecap: square"/>
    <defs>
     <path id="ma161eae5e3" d="M -12 12 
L 12 -12 
M -12 -12 
L 12 12 
" style="stroke: #000080"/>
    </defs>
    <g clip-path="url(#p3fa0104731)">
     <use xlink:href="#ma161eae5e3" x="230.867069" y="163.296" style="fill: #000080; stroke: #000080"/>
    </g>
   </g>
   <g id="line2d_39">
    <defs>
     <path id="m265534283b" d="M 0 1.5 
C 0.397805 1.5 0.77937 1.341951 1.06066 1.06066 
C 1.341951 0.77937 1.5 0.397805 1.5 0 
C 1.5 -0.397805 1.341951 -0.77937 1.06066 -1.06066 
C 0.77937 -1.341951 0.397805 -1.5 0 -1.5 
C -0.397805 -1.5 -0.77937 -1.341951 -1.06066 -1.06066 
C -1.341951 -0.77937 -1.5 -0.397805 -1.5 0 
C -1.5 0.397805 -1.341951 0.77937 -1.06066 1.06066 
C -0.77937 1.341951 -0.397805 1.5 0 1.5 
z
" style="stroke: #ff00ff"/>
    </defs>
    <g>
     <use xlink:href="#m265534283b" x="204.737249" y="177.796303" style="fill: #ff00ff; stroke: #ff00ff"/>
     <use xlink:href="#m265534283b" x="204.737249" y="177.796303" style="fill: #ff00ff; stroke: #ff00ff"/>
    </g>
   </g>
   <g id="line2d_40">
    <path d="M 36.933397 298.944 
L 36.933397 296.13749 
L 49.972572 296.13749 
L 49.972572 294.266483 
L 67.209423 294.266483 
L 67.209423 293.798731 
L 70.639174 293.798731 
L 70.639174 290.524469 
L 73.538988 290.524469 
L 73.538988 289.588966 
L 80.248597 289.588966 
L 80.248597 289.121214 
L 83.678349 289.121214 
L 83.678349 288.653462 
L 85.184077 288.653462 
L 85.184077 288.18571 
L 86.578163 288.18571 
L 86.578163 287.250207 
L 90.230539 287.250207 
L 90.230539 286.782455 
L 91.305777 286.782455 
L 91.305777 286.314703 
L 92.322865 286.314703 
L 92.322865 285.3792 
L 93.287772 285.3792 
L 93.287772 284.911448 
L 95.080704 284.911448 
L 95.080704 283.975945 
L 96.717523 283.975945 
L 96.717523 281.169434 
L 97.485448 281.169434 
L 97.485448 279.298428 
L 98.933205 279.298428 
L 98.933205 278.362924 
L 100.9152 278.362924 
L 100.9152 277.427421 
L 101.532027 277.427421 
L 101.532027 276.959669 
L 102.12927 276.959669 
L 102.12927 276.491917 
L 105.850679 276.491917 
L 105.850679 276.024166 
L 106.326946 276.024166 
L 106.326946 275.088662 
L 108.119879 275.088662 
L 108.119879 274.62091 
L 115.460102 274.62091 
L 115.460102 273.685407 
L 116.308887 273.685407 
L 116.308887 273.217655 
L 116.854188 273.217655 
L 116.854188 272.749903 
L 118.152051 272.749903 
L 118.152051 271.8144 
L 119.830627 271.8144 
L 119.830627 269.943393 
L 120.726585 269.943393 
L 120.726585 269.475641 
L 121.581803 269.475641 
L 121.581803 269.00789 
L 122.795872 269.00789 
L 122.795872 267.604634 
L 122.990812 267.604634 
L 122.990812 266.201379 
L 125.184934 266.201379 
L 125.184934 264.798124 
L 126.192937 264.798124 
L 126.192937 263.862621 
L 127.304491 263.862621 
L 127.304491 262.927117 
L 127.610376 262.927117 
L 127.610376 261.523862 
L 127.911368 261.523862 
L 127.911368 260.588359 
L 129.069367 260.588359 
L 129.069367 254.039834 
L 130.160198 254.039834 
L 130.160198 253.572083 
L 131.31622 253.572083 
L 131.31622 252.636579 
L 131.563744 252.636579 
L 131.563744 252.168828 
L 131.808053 252.168828 
L 131.808053 250.765572 
L 133.545739 250.765572 
L 133.545739 248.894566 
L 136.126705 248.894566 
L 136.126705 248.426814 
L 136.790153 248.426814 
L 136.790153 247.023559 
L 137.610157 247.023559 
L 137.610157 246.555807 
L 140.188837 246.555807 
L 140.188837 246.088055 
L 141.754265 246.088055 
L 141.754265 245.152552 
L 142.661862 245.152552 
L 142.661862 243.749297 
L 142.932537 243.749297 
L 142.932537 243.281545 
L 144.355394 243.281545 
L 144.355394 242.813793 
L 144.479563 242.813793 
L 144.479563 242.346041 
L 146.913986 242.346041 
L 146.913986 240.007283 
L 147.712333 240.007283 
L 147.712333 239.539531 
L 148.874221 239.539531 
L 148.874221 238.604028 
L 150.649331 238.604028 
L 150.649331 237.200772 
L 153.877408 237.200772 
L 153.952355 236.265269 
L 154.064218 236.265269 
L 154.064218 235.329766 
L 154.17542 235.329766 
L 154.17542 234.862014 
L 154.468783 234.862014 
L 154.468783 234.394262 
L 154.613767 234.394262 
L 154.613767 233.458759 
L 156.664239 233.458759 
L 156.664239 232.523255 
L 157.642093 232.523255 
L 157.642093 231.587752 
L 158.217229 231.587752 
L 158.217229 230.184497 
L 159.062507 230.184497 
L 159.062507 229.716745 
L 161.290852 229.716745 
L 161.290852 228.781241 
L 161.442152 228.781241 
L 161.442152 227.845738 
L 162.229155 227.845738 
L 162.229155 226.910234 
L 163.888041 226.910234 
L 163.888041 226.442483 
L 164.041785 226.442483 
L 164.041785 225.506979 
L 165.894279 225.506979 
L 165.914091 223.168221 
L 166.071841 223.168221 
L 166.071841 222.700469 
L 166.670924 222.700469 
L 166.670924 222.232717 
L 169.244573 222.232717 
L 169.244573 221.764966 
L 170.386968 221.764966 
L 170.386968 221.297214 
L 172.356469 221.297214 
L 172.356469 219.426207 
L 172.663262 219.426207 
L 172.732295 218.490703 
L 173.073712 218.490703 
L 173.073712 217.5552 
L 173.289011 217.5552 
L 173.289011 217.087448 
L 174.643874 217.087448 
L 174.643874 216.151945 
L 175.062472 216.151945 
L 175.062472 215.216441 
L 175.567027 215.216441 
L 175.638014 213.813186 
L 176.116053 213.813186 
L 176.116053 213.345434 
L 176.458298 213.345434 
L 176.458298 212.409931 
L 177.566794 212.409931 
L 177.566794 211.474428 
L 177.810347 211.474428 
L 177.810347 211.006676 
L 179.120831 211.006676 
L 179.120831 210.538924 
L 179.586055 210.538924 
L 179.586055 210.071172 
L 182.951876 210.071172 
L 182.951876 208.667917 
L 183.245751 208.667917 
L 183.245751 207.732414 
L 184.310478 207.732414 
L 184.310478 207.264662 
L 186.816825 207.264662 
L 186.816825 206.79691 
L 187.139944 206.79691 
L 187.139944 205.861407 
L 188.095558 205.861407 
L 188.095558 205.393655 
L 188.25927 205.393655 
L 188.25927 204.458152 
L 188.993357 204.458152 
L 189.068684 202.587145 
L 189.178238 202.587145 
L 189.178238 201.651641 
L 189.660685 201.651641 
L 189.660685 201.18389 
L 189.777996 201.18389 
L 189.777996 200.716138 
L 189.938803 200.716138 
L 189.938803 200.248386 
L 190.860039 200.248386 
L 190.860039 199.312883 
L 192.15019 199.312883 
L 192.15019 198.845131 
L 193.05117 198.845131 
L 193.05117 198.377379 
L 193.167795 198.377379 
L 193.23279 197.441876 
L 193.306797 197.441876 
L 193.306797 196.974124 
L 193.44478 196.974124 
L 193.44478 196.038621 
L 193.744825 196.038621 
L 193.744825 195.570869 
L 194.115486 195.570869 
L 194.186107 194.167614 
L 194.64309 194.167614 
L 194.64309 193.23211 
L 194.975519 193.23211 
L 194.975519 192.296607 
L 195.198093 192.296607 
L 195.198093 191.828855 
L 195.322922 191.828855 
L 195.397423 189.957848 
L 195.508625 189.957848 
L 195.508625 189.022345 
L 195.729075 189.022345 
L 195.729075 188.086841 
L 195.886698 188.086841 
L 195.886698 187.61909 
L 196.023043 187.61909 
L 196.023043 187.151338 
L 196.383178 187.151338 
L 196.383178 186.683586 
L 196.558752 186.683586 
L 196.558752 186.215834 
L 196.674897 186.215834 
L 196.674897 185.748083 
L 196.81333 185.748083 
L 196.81333 184.812579 
L 197.383135 184.812579 
L 197.383135 184.344828 
L 197.601168 184.344828 
L 197.601168 183.409324 
L 197.747562 183.409324 
L 197.773064 182.473821 
L 197.921744 182.473821 
L 197.921744 182.006069 
L 198.441847 182.006069 
L 198.441847 181.538317 
L 198.838187 181.538317 
L 198.838187 180.602814 
L 199.229718 180.602814 
L 199.229718 180.135062 
L 199.39744 180.135062 
L 199.39744 179.66731 
L 200.236695 179.66731 
L 200.236695 179.199559 
L 203.322651 179.199559 
L 203.322651 178.731807 
L 204.737249 178.731807 
L 204.737249 177.796303 
L 360.8064 177.796303 
L 360.8064 177.796303 
" style="fill: none; stroke: #ff00ff; stroke-width: 1.5; stroke-linecap: square"/>
   </g>
   <g id="line2d_41">
    <defs>
     <path id="m2dc502131a" d="M -0 8.485281 
L 5.091169 0 
L 0 -8.485281 
L -5.091169 -0 
z
" style="stroke: #ff00ff; stroke-width: 1.5; stroke-linejoin: miter"/>
    </defs>
    <g>
     <use xlink:href="#m2dc502131a" x="80.248597" y="289.588966" style="fill-opacity: 0; stroke: #ff00ff; stroke-width: 1.5; stroke-linejoin: miter"/>
     <use xlink:href="#m2dc502131a" x="154.064218" y="236.265269" style="fill-opacity: 0; stroke: #ff00ff; stroke-width: 1.5; stroke-linejoin: miter"/>
     <use xlink:href="#m2dc502131a" x="200.236695" y="179.66731" style="fill-opacity: 0; stroke: #ff00ff; stroke-width: 1.5; stroke-linejoin: miter"/>
     <use xlink:href="#m2dc502131a" x="204.737249" y="177.796303" style="fill-opacity: 0; stroke: #ff00ff; stroke-width: 1.5; stroke-linejoin: miter"/>
     <use xlink:href="#m2dc502131a" x="204.737249" y="177.796303" style="fill-opacity: 0; stroke: #ff00ff; stroke-width: 1.5; stroke-linejoin: miter"/>
     <use xlink:href="#m2dc502131a" x="360.8064" y="177.796303" style="fill-opacity: 0; stroke: #ff00ff; stroke-width: 1.5; stroke-linejoin: miter"/>
    </g>
   </g>
   <g id="line2d_42">
    <path style="fill: none; stroke: #ff00ff; stroke-width: 1.5; stroke-linecap: square"/>
    <g/>
   </g>
   <g id="line2d_43">
    <path d="M 230.87647 177.796303 
" clip-path="url(#p3fa0104731)" style="fill: none; stroke: #ff00ff; stroke-width: 1.5; stroke-linecap: square"/>
    <defs>
     <path id="meb297f8839" d="M -12 12 
L 12 -12 
M -12 -12 
L 12 12 
" style="stroke: #ff00ff"/>
    </defs>
    <g clip-path="url(#p3fa0104731)">
     <use xlink:href="#meb297f8839" x="230.87647" y="177.796303" style="fill: #ff00ff; stroke: #ff00ff"/>
    </g>
   </g>
   <g id="line2d_44">
    <defs>
     <path id="mcebb20bd8c" d="M 0 1.5 
C 0.397805 1.5 0.77937 1.341951 1.06066 1.06066 
C 1.341951 0.77937 1.5 0.397805 1.5 0 
C 1.5 -0.397805 1.341951 -0.77937 1.06066 -1.06066 
C 0.77937 -1.341951 0.397805 -1.5 0 -1.5 
C -0.397805 -1.5 -0.77937 -1.341951 -1.06066 -1.06066 
C -1.341951 -0.77937 -1.5 -0.397805 -1.5 0 
C -1.5 0.397805 -1.341951 0.77937 -1.06066 1.06066 
C -0.77937 1.341951 -0.397805 1.5 0 1.5 
z
" style="stroke: #ff7500"/>
    </defs>
    <g>
     <use xlink:href="#mcebb20bd8c" x="207.448632" y="192.764359" style="fill: #ff7500; stroke: #ff7500"/>
     <use xlink:href="#mcebb20bd8c" x="207.448632" y="192.764359" style="fill: #ff7500; stroke: #ff7500"/>
    </g>
   </g>
   <g id="line2d_45">
    <path d="M 36.933397 298.944 
L 36.933397 296.13749 
L 102.12927 296.13749 
L 102.12927 293.798731 
L 114.571202 293.798731 
L 114.571202 287.717959 
L 121.99526 287.717959 
L 121.99526 277.895172 
L 127.304491 277.895172 
L 127.304491 276.959669 
L 131.440389 276.959669 
L 131.440389 276.024166 
L 134.828842 276.024166 
L 134.828842 270.411145 
L 137.699101 270.411145 
L 137.699101 267.604634 
L 140.188837 267.604634 
L 140.188837 266.669131 
L 142.387236 266.669131 
L 142.387236 265.733628 
L 147.764371 265.733628 
L 147.764371 263.394869 
L 149.262102 263.394869 
L 149.262102 259.652855 
L 150.649331 259.652855 
L 150.649331 259.185103 
L 151.94125 259.185103 
L 151.94125 257.781848 
L 153.150116 257.781848 
L 153.150116 256.378593 
L 155.357123 256.378593 
L 155.357123 255.44309 
L 157.332175 255.44309 
L 157.332175 254.975338 
L 158.247018 254.975338 
L 158.247018 252.636579 
L 159.119425 252.636579 
L 159.119425 251.233324 
L 161.517348 251.233324 
L 161.517348 250.765572 
L 162.253227 250.765572 
L 162.253227 248.894566 
L 162.961399 248.894566 
L 162.961399 248.426814 
L 163.643876 248.426814 
L 163.643876 244.6848 
L 164.302457 244.6848 
L 164.302457 242.813793 
L 165.554242 242.813793 
L 165.554242 240.475034 
L 166.150222 240.475034 
L 166.150222 239.539531 
L 167.832614 239.539531 
L 167.832614 238.604028 
L 168.361558 238.604028 
L 168.361558 238.136276 
L 169.864611 238.136276 
L 169.864611 236.733021 
L 171.256404 236.733021 
L 171.256404 235.329766 
L 174.903518 235.329766 
L 174.903518 234.394262 
L 175.626202 234.394262 
L 175.626202 232.523255 
L 176.99326 232.523255 
L 176.99326 231.587752 
L 177.957067 231.587752 
L 177.957067 230.652248 
L 178.573221 230.652248 
L 178.573221 230.184497 
L 181.642574 230.184497 
L 181.642574 229.248993 
L 181.898286 229.248993 
L 181.898286 228.31349 
L 182.399511 228.31349 
L 182.399511 227.845738 
L 183.597087 227.845738 
L 183.597087 226.910234 
L 184.055555 226.910234 
L 184.055555 225.974731 
L 184.722964 225.974731 
L 184.722964 225.039228 
L 185.155102 225.039228 
L 185.155102 224.103724 
L 185.785246 224.103724 
L 185.785246 222.700469 
L 186.193913 222.700469 
L 186.193913 221.764966 
L 187.930409 221.764966 
L 187.930409 220.829462 
L 188.830081 220.829462 
L 188.830081 220.36171 
L 190.185641 220.36171 
L 190.185641 219.893959 
L 190.348419 219.893959 
L 190.348419 217.5552 
L 191.450051 217.5552 
L 191.450051 216.619697 
L 191.903121 216.619697 
L 191.903121 216.151945 
L 193.749335 216.151945 
L 193.749335 212.877683 
L 194.282779 212.877683 
L 194.282779 211.474428 
L 194.543934 211.474428 
L 194.543934 211.006676 
L 194.673165 211.006676 
L 194.673165 210.538924 
L 195.306326 210.538924 
L 195.306326 210.071172 
L 195.918868 210.071172 
L 195.918868 209.603421 
L 196.039019 209.603421 
L 196.039019 209.135669 
L 196.628525 209.135669 
L 196.628525 208.200166 
L 196.97356 208.200166 
L 196.97356 207.264662 
L 197.200117 207.264662 
L 197.200117 203.9904 
L 197.423977 203.9904 
L 197.423977 203.522648 
L 198.187155 203.522648 
L 198.187155 202.587145 
L 199.527233 202.587145 
L 199.527233 202.119393 
L 199.725181 202.119393 
L 199.82338 200.248386 
L 200.591044 200.248386 
L 200.591044 197.909628 
L 201.951071 197.909628 
L 201.951071 196.974124 
L 202.297731 196.974124 
L 202.297731 195.570869 
L 202.468694 195.570869 
L 202.553597 194.635366 
L 203.78319 194.635366 
L 203.78319 193.699862 
L 205.525076 193.699862 
L 205.525076 193.23211 
L 207.448632 193.23211 
L 207.448632 192.764359 
L 360.8064 192.764359 
L 360.8064 192.764359 
" style="fill: none; stroke: #ff7500; stroke-width: 1.5; stroke-linecap: square"/>
   </g>
   <g id="line2d_46">
    <defs>
     <path id="mf9a3e2dd56" d="M 0 -6 
L -1.347084 -1.854102 
L -5.706339 -1.854102 
L -2.179628 0.708204 
L -3.526712 4.854102 
L -0 2.291796 
L 3.526712 4.854102 
L 2.179628 0.708204 
L 5.706339 -1.854102 
L 1.347084 -1.854102 
z
" style="stroke: #ff7500; stroke-width: 1.5; stroke-linejoin: bevel"/>
    </defs>
    <g>
     <use xlink:href="#mf9a3e2dd56" x="114.571202" y="293.798731" style="fill-opacity: 0; stroke: #ff7500; stroke-width: 1.5; stroke-linejoin: bevel"/>
     <use xlink:href="#mf9a3e2dd56" x="163.643876" y="244.6848" style="fill-opacity: 0; stroke: #ff7500; stroke-width: 1.5; stroke-linejoin: bevel"/>
     <use xlink:href="#mf9a3e2dd56" x="207.448632" y="193.23211" style="fill-opacity: 0; stroke: #ff7500; stroke-width: 1.5; stroke-linejoin: bevel"/>
     <use xlink:href="#mf9a3e2dd56" x="207.448632" y="192.764359" style="fill-opacity: 0; stroke: #ff7500; stroke-width: 1.5; stroke-linejoin: bevel"/>
     <use xlink:href="#mf9a3e2dd56" x="207.448632" y="192.764359" style="fill-opacity: 0; stroke: #ff7500; stroke-width: 1.5; stroke-linejoin: bevel"/>
     <use xlink:href="#mf9a3e2dd56" x="360.8064" y="192.764359" style="fill-opacity: 0; stroke: #ff7500; stroke-width: 1.5; stroke-linejoin: bevel"/>
    </g>
   </g>
   <g id="line2d_47">
    <path style="fill: none; stroke: #ff7500; stroke-width: 1.5; stroke-linecap: square"/>
    <g/>
   </g>
   <g id="line2d_48">
    <path d="M 230.861427 192.764359 
" clip-path="url(#p3fa0104731)" style="fill: none; stroke: #ff7500; stroke-width: 1.5; stroke-linecap: square"/>
    <defs>
     <path id="mec9dbe4c1b" d="M -12 12 
L 12 -12 
M -12 -12 
L 12 12 
" style="stroke: #ff7500"/>
    </defs>
    <g clip-path="url(#p3fa0104731)">
     <use xlink:href="#mec9dbe4c1b" x="230.861427" y="192.764359" style="fill: #ff7500; stroke: #ff7500"/>
    </g>
   </g>
   <g id="line2d_49">
    <defs>
     <path id="m76f0423b1c" d="M 0 1.5 
C 0.397805 1.5 0.77937 1.341951 1.06066 1.06066 
C 1.341951 0.77937 1.5 0.397805 1.5 0 
C 1.5 -0.397805 1.341951 -0.77937 1.06066 -1.06066 
C 0.77937 -1.341951 0.397805 -1.5 0 -1.5 
C -0.397805 -1.5 -0.77937 -1.341951 -1.06066 -1.06066 
C -1.341951 -0.77937 -1.5 -0.397805 -1.5 0 
C -1.5 0.397805 -1.341951 0.77937 -1.06066 1.06066 
C -0.77937 1.341951 -0.397805 1.5 0 1.5 
z
" style="stroke: #6495ed"/>
    </defs>
    <g>
     <use xlink:href="#m76f0423b1c" x="199.826645" y="189.490097" style="fill: #6495ed; stroke: #6495ed"/>
     <use xlink:href="#m76f0423b1c" x="199.826645" y="189.490097" style="fill: #6495ed; stroke: #6495ed"/>
    </g>
   </g>
   <g id="line2d_50">
    <path d="M 36.933397 298.944 
L 36.933397 296.13749 
L 49.972572 296.13749 
L 49.972572 289.588966 
L 76.050921 289.588966 
L 76.050921 289.121214 
L 82.04153 289.121214 
L 82.04153 288.18571 
L 104.344952 288.18571 
L 104.344952 286.782455 
L 105.36204 286.782455 
L 105.36204 285.3792 
L 108.119879 285.3792 
L 108.119879 284.911448 
L 110.524623 284.911448 
L 110.524623 284.443697 
L 116.308887 284.443697 
L 116.308887 283.975945 
L 116.583514 283.975945 
L 116.583514 283.040441 
L 117.899543 283.040441 
L 117.899543 282.57269 
L 119.366121 282.57269 
L 119.366121 281.637186 
L 121.371615 281.637186 
L 121.371615 281.169434 
L 124.3016 281.169434 
L 124.3016 280.233931 
L 128.207619 280.233931 
L 128.207619 279.766179 
L 129.622688 279.766179 
L 129.622688 279.298428 
L 129.893363 279.298428 
L 129.893363 278.362924 
L 130.027253 278.362924 
L 130.027253 277.895172 
L 130.160198 277.895172 
L 130.160198 276.024166 
L 131.686295 276.024166 
L 131.686295 275.088662 
L 132.168669 275.088662 
L 132.168669 274.62091 
L 133.210806 274.62091 
L 133.210806 274.153159 
L 133.656071 274.153159 
L 133.656071 273.685407 
L 134.828842 273.685407 
L 134.828842 271.346648 
L 135.034434 271.346648 
L 135.034434 270.878897 
L 135.638065 270.878897 
L 135.638065 269.475641 
L 138.224108 269.475641 
L 138.224108 268.540138 
L 141.96763 268.540138 
L 141.96763 268.072386 
L 142.932537 268.072386 
L 142.999601 264.798124 
L 143.331383 264.798124 
L 143.331383 261.05611 
L 143.914232 261.05611 
L 143.914232 260.120607 
L 145.44447 260.120607 
L 145.44447 259.652855 
L 146.418192 259.652855 
L 146.418192 258.717352 
L 146.584913 258.717352 
L 146.584913 258.2496 
L 146.750169 258.2496 
L 146.750169 257.314097 
L 148.124658 257.314097 
L 148.124658 256.846345 
L 150.289291 256.846345 
L 150.289291 254.507586 
L 151.60532 254.507586 
L 151.60532 254.039834 
L 152.474656 254.039834 
L 152.474656 253.572083 
L 153.150116 253.572083 
L 153.150116 251.233324 
L 155.938089 251.233324 
L 155.938089 250.765572 
L 157.549652 250.765572 
L 157.549652 250.297821 
L 159.090988 250.297821 
L 159.090988 249.830069 
L 160.061585 249.830069 
L 160.061585 246.555807 
L 160.223059 246.555807 
L 160.223059 246.088055 
L 161.888886 246.088055 
L 161.888886 245.620303 
L 162.868502 245.620303 
L 162.868502 242.813793 
L 163.122872 242.813793 
L 163.122872 240.942786 
L 165.084184 240.942786 
L 165.084184 240.475034 
L 166.670924 240.475034 
L 166.670924 238.604028 
L 167.084795 238.604028 
L 167.084795 238.136276 
L 167.707023 238.136276 
L 167.707023 236.265269 
L 168.430973 236.265269 
L 168.430973 235.797517 
L 169.161446 235.797517 
L 169.161446 234.862014 
L 169.589749 234.862014 
L 169.589749 233.458759 
L 169.928705 233.458759 
L 169.928705 232.991007 
L 171.315934 232.991007 
L 171.315934 232.055503 
L 171.71291 232.055503 
L 171.71291 231.587752 
L 172.314244 231.587752 
L 172.314244 231.12 
L 172.842224 231.12 
L 172.842224 230.184497 
L 174.418433 230.184497 
L 174.418433 229.716745 
L 175.001495 229.716745 
L 175.001495 228.31349 
L 175.638014 228.31349 
L 175.638014 227.845738 
L 176.344907 227.845738 
L 176.344907 226.910234 
L 176.480894 226.910234 
L 176.480894 225.974731 
L 176.705378 225.974731 
L 176.705378 225.506979 
L 179.052014 225.506979 
L 179.052014 225.039228 
L 179.974522 225.039228 
L 179.974522 224.103724 
L 180.428504 224.103724 
L 180.428504 223.168221 
L 180.987662 223.168221 
L 180.987662 222.232717 
L 182.083622 222.232717 
L 182.158919 221.297214 
L 182.325173 221.297214 
L 182.325173 220.36171 
L 182.481765 220.36171 
L 182.53913 218.958455 
L 182.791093 218.958455 
L 182.791093 218.490703 
L 183.651154 218.490703 
L 183.712756 217.087448 
L 184.295578 217.087448 
L 184.295578 215.216441 
L 184.657279 215.216441 
L 184.657279 214.280938 
L 185.296969 214.280938 
L 185.296969 213.345434 
L 185.716263 213.345434 
L 185.716263 212.877683 
L 186.153443 212.877683 
L 186.153443 212.409931 
L 186.534433 212.409931 
L 186.534433 211.942179 
L 187.331185 211.942179 
L 187.381856 211.006676 
L 187.726572 211.006676 
L 187.726572 210.071172 
L 188.150287 210.071172 
L 188.150287 209.603421 
L 188.397613 209.603421 
L 188.397613 208.667917 
L 188.54684 208.667917 
L 188.54684 207.732414 
L 189.022364 207.732414 
L 189.022364 206.329159 
L 189.275723 206.329159 
L 189.361321 203.9904 
L 190.032434 203.9904 
L 190.032434 202.587145 
L 190.353821 202.587145 
L 190.353821 202.119393 
L 191.193549 202.119393 
L 191.193549 201.18389 
L 191.311975 201.18389 
L 191.342746 200.248386 
L 191.465331 200.248386 
L 191.465331 199.780634 
L 191.883214 199.780634 
L 191.883214 199.312883 
L 192.101035 199.312883 
L 192.101035 198.845131 
L 192.461775 198.845131 
L 192.461775 198.377379 
L 192.644367 198.377379 
L 192.644367 197.909628 
L 194.916283 197.909628 
L 194.916283 196.506372 
L 195.080835 196.506372 
L 195.189742 193.23211 
L 195.647728 193.23211 
L 195.647728 192.764359 
L 196.094828 192.764359 
L 196.094828 191.828855 
L 196.245479 191.828855 
L 196.245479 191.361103 
L 196.996339 191.361103 
L 196.996339 190.893352 
L 197.696453 190.893352 
L 197.696453 189.957848 
L 199.826645 189.957848 
L 199.826645 189.490097 
L 360.8064 189.490097 
L 360.8064 189.490097 
" style="fill: none; stroke: #6495ed; stroke-width: 1.5; stroke-linecap: square"/>
   </g>
   <g id="line2d_51">
    <defs>
     <path id="mf68641884b" d="M -0 6 
L 6 -6 
L -6 -6 
z
" style="stroke: #6495ed; stroke-width: 1.5; stroke-linejoin: miter"/>
    </defs>
    <g>
     <use xlink:href="#mf68641884b" x="110.524623" y="284.911448" style="fill-opacity: 0; stroke: #6495ed; stroke-width: 1.5; stroke-linejoin: miter"/>
     <use xlink:href="#mf68641884b" x="160.223059" y="246.088055" style="fill-opacity: 0; stroke: #6495ed; stroke-width: 1.5; stroke-linejoin: miter"/>
     <use xlink:href="#mf68641884b" x="199.826645" y="189.957848" style="fill-opacity: 0; stroke: #6495ed; stroke-width: 1.5; stroke-linejoin: miter"/>
     <use xlink:href="#mf68641884b" x="199.826645" y="189.490097" style="fill-opacity: 0; stroke: #6495ed; stroke-width: 1.5; stroke-linejoin: miter"/>
     <use xlink:href="#mf68641884b" x="199.826645" y="189.490097" style="fill-opacity: 0; stroke: #6495ed; stroke-width: 1.5; stroke-linejoin: miter"/>
     <use xlink:href="#mf68641884b" x="360.8064" y="189.490097" style="fill-opacity: 0; stroke: #6495ed; stroke-width: 1.5; stroke-linejoin: miter"/>
    </g>
   </g>
   <g id="line2d_52">
    <path style="fill: none; stroke: #6495ed; stroke-width: 1.5; stroke-linecap: square"/>
    <g/>
   </g>
   <g id="line2d_53">
    <path d="M 230.865189 189.490097 
" clip-path="url(#p3fa0104731)" style="fill: none; stroke: #6495ed; stroke-width: 1.5; stroke-linecap: square"/>
    <defs>
     <path id="m8415afce57" d="M -12 12 
L 12 -12 
M -12 -12 
L 12 12 
" style="stroke: #6495ed"/>
    </defs>
    <g clip-path="url(#p3fa0104731)">
     <use xlink:href="#m8415afce57" x="230.865189" y="189.490097" style="fill: #6495ed; stroke: #6495ed"/>
    </g>
   </g>
   <g id="line2d_54">
    <defs>
     <path id="mfee5a4260b" d="M 0 1.5 
C 0.397805 1.5 0.77937 1.341951 1.06066 1.06066 
C 1.341951 0.77937 1.5 0.397805 1.5 0 
C 1.5 -0.397805 1.341951 -0.77937 1.06066 -1.06066 
C 0.77937 -1.341951 0.397805 -1.5 0 -1.5 
C -0.397805 -1.5 -0.77937 -1.341951 -1.06066 -1.06066 
C -1.341951 -0.77937 -1.5 -0.397805 -1.5 0 
C -1.5 0.397805 -1.341951 0.77937 -1.06066 1.06066 
C -0.77937 1.341951 -0.397805 1.5 0 1.5 
z
" style="stroke: #ff0000"/>
    </defs>
    <g>
     <use xlink:href="#mfee5a4260b" x="191.60229" y="184.344828" style="fill: #ff0000; stroke: #ff0000"/>
     <use xlink:href="#mfee5a4260b" x="191.60229" y="184.344828" style="fill: #ff0000; stroke: #ff0000"/>
    </g>
   </g>
   <g id="line2d_55">
    <path d="M 36.933397 298.944 
L 36.933397 296.13749 
L 57.6 296.13749 
L 57.6 295.669738 
L 70.639174 295.669738 
L 70.639174 294.734234 
L 73.538988 294.734234 
L 73.538988 291.459972 
L 76.050921 291.459972 
L 76.050921 289.121214 
L 78.266603 289.121214 
L 78.266603 288.653462 
L 86.578163 288.653462 
L 86.578163 288.18571 
L 92.322865 288.18571 
L 92.322865 287.250207 
L 93.287772 287.250207 
L 93.287772 285.846952 
L 94.205591 285.846952 
L 94.205591 285.3792 
L 96.717523 285.3792 
L 96.717523 284.911448 
L 97.485448 284.911448 
L 97.485448 283.975945 
L 98.933205 283.975945 
L 98.933205 283.040441 
L 100.277459 283.040441 
L 100.277459 282.57269 
L 103.269713 282.57269 
L 103.269713 282.104938 
L 104.344952 282.104938 
L 104.344952 278.830676 
L 104.860369 278.830676 
L 104.860369 278.362924 
L 106.326946 278.362924 
L 106.326946 277.427421 
L 107.68741 277.427421 
L 107.68741 275.556414 
L 110.897141 275.556414 
L 110.897141 274.62091 
L 113.954374 274.62091 
L 113.954374 273.685407 
L 114.265316 273.685407 
L 114.265316 272.749903 
L 114.872193 272.749903 
L 114.872193 272.282152 
L 115.747307 272.282152 
L 115.747307 271.8144 
L 117.121023 271.8144 
L 117.121023 271.346648 
L 118.889854 271.346648 
L 118.889854 268.540138 
L 119.599808 268.540138 
L 119.599808 268.072386 
L 120.28394 268.072386 
L 120.28394 267.136883 
L 120.506564 267.136883 
L 120.506564 266.669131 
L 121.789667 266.669131 
L 121.789667 265.733628 
L 123.936316 265.733628 
L 123.936316 264.798124 
L 125.695686 264.798124 
L 125.695686 264.330372 
L 126.517282 264.330372 
L 126.517282 263.394869 
L 127.458055 263.394869 
L 127.458055 262.927117 
L 129.069367 262.927117 
L 129.069367 262.459366 
L 129.758512 262.459366 
L 129.758512 261.991614 
L 130.938718 261.991614 
L 130.938718 261.523862 
L 131.440389 261.523862 
L 131.440389 261.05611 
L 132.168669 261.05611 
L 132.168669 260.588359 
L 133.656071 260.588359 
L 133.656071 260.120607 
L 133.874812 260.120607 
L 133.874812 259.185103 
L 134.620977 259.185103 
L 134.620977 258.717352 
L 135.136394 258.717352 
L 135.136394 257.314097 
L 135.338671 257.314097 
L 135.338671 256.846345 
L 136.88305 256.846345 
L 136.88305 255.910841 
L 138.985129 255.910841 
L 138.985129 253.572083 
L 139.556456 253.572083 
L 139.556456 253.104331 
L 142.865233 253.104331 
L 142.865233 252.168828 
L 147.397049 252.168828 
L 147.397049 251.233324 
L 148.226342 251.233324 
L 148.226342 249.830069 
L 149.968501 249.830069 
L 149.968501 248.426814 
L 150.152479 248.426814 
L 150.152479 247.959062 
L 150.870907 247.959062 
L 150.958812 246.555807 
L 151.046307 246.555807 
L 151.046307 245.620303 
L 152.312136 245.620303 
L 152.312136 245.152552 
L 152.555392 245.152552 
L 152.555392 243.749297 
L 153.266838 243.749297 
L 153.266838 242.813793 
L 153.459779 242.813793 
L 153.459779 242.346041 
L 153.802162 242.346041 
L 153.802162 240.942786 
L 154.322673 240.942786 
L 154.39587 239.539531 
L 155.701037 239.539531 
L 155.701037 239.071779 
L 157.703468 239.071779 
L 157.703468 238.604028 
L 158.746339 238.604028 
L 158.804221 237.668524 
L 159.706897 237.668524 
L 159.706897 236.733021 
L 161.163832 236.733021 
L 161.163832 235.797517 
L 161.986735 235.797517 
L 161.986735 234.862014 
L 162.132562 234.862014 
L 162.132562 233.92651 
L 162.938218 233.92651 
L 162.938218 232.991007 
L 163.666204 232.991007 
L 163.666204 232.523255 
L 163.821764 232.523255 
L 163.821764 231.587752 
L 164.980424 231.587752 
L 164.980424 231.12 
L 165.493592 231.12 
L 165.493592 230.184497 
L 165.695002 230.184497 
L 165.695002 229.248993 
L 166.556452 229.248993 
L 166.556452 228.31349 
L 166.670924 228.31349 
L 166.670924 227.377986 
L 167.598703 227.377986 
L 167.652941 225.974731 
L 167.957371 225.974731 
L 168.063651 224.571476 
L 168.116567 224.571476 
L 168.116567 224.103724 
L 168.517384 224.103724 
L 168.569041 222.700469 
L 169.458999 222.700469 
L 169.491772 220.829462 
L 169.768058 220.829462 
L 169.768058 220.36171 
L 169.976632 220.36171 
L 169.976632 219.893959 
L 170.245939 219.893959 
L 170.245939 218.958455 
L 170.864796 218.958455 
L 170.864796 218.490703 
L 171.727453 218.490703 
L 171.771015 216.619697 
L 171.88669 216.619697 
L 171.88669 216.151945 
L 172.03029 216.151945 
L 172.03029 215.684193 
L 172.677089 215.684193 
L 172.704712 213.813186 
L 173.033068 213.813186 
L 173.033068 212.877683 
L 173.422332 212.877683 
L 173.422332 212.409931 
L 173.77765 212.409931 
L 173.77765 211.474428 
L 174.304691 211.474428 
L 174.304691 211.006676 
L 175.111113 211.006676 
L 175.111113 210.538924 
L 175.755734 210.538924 
L 175.755734 210.071172 
L 176.615906 210.071172 
L 176.638314 208.200166 
L 176.860939 208.200166 
L 176.860939 207.732414 
L 177.04812 207.732414 
L 177.04812 205.861407 
L 177.222605 205.861407 
L 177.222605 204.925903 
L 177.45991 204.925903 
L 177.45991 203.9904 
L 177.894327 203.9904 
L 177.894327 202.587145 
L 178.684026 202.587145 
L 178.684026 201.651641 
L 178.883832 201.651641 
L 178.883832 201.18389 
L 179.538128 201.18389 
L 179.538128 200.716138 
L 179.652949 200.716138 
L 179.652949 200.248386 
L 180.281466 200.248386 
L 180.318334 198.845131 
L 180.6107 198.845131 
L 180.646928 197.441876 
L 182.489971 197.441876 
L 182.506372 196.038621 
L 183.300836 196.038621 
L 183.363593 194.635366 
L 183.480702 194.635366 
L 183.480702 193.699862 
L 185.346371 193.699862 
L 185.346371 193.23211 
L 186.514572 193.23211 
L 186.514572 192.764359 
L 186.803784 192.764359 
L 186.803784 192.296607 
L 187.318496 192.296607 
L 187.318496 191.828855 
L 187.868873 191.828855 
L 187.868873 190.893352 
L 188.552785 190.893352 
L 188.552785 190.4256 
L 189.65508 190.4256 
L 189.744553 189.022345 
L 190.396979 189.022345 
L 190.396979 188.086841 
L 190.754593 188.086841 
L 190.802117 184.812579 
L 191.60229 184.812579 
L 191.60229 184.344828 
L 360.8064 184.344828 
L 360.8064 184.344828 
" style="fill: none; stroke: #ff0000; stroke-width: 1.5; stroke-linecap: square"/>
   </g>
   <g id="line2d_56">
    <defs>
     <path id="mb4e827123c" d="M 0 -6 
L -5.196152 -3 
L -5.196152 3 
L -0 6 
L 5.196152 3 
L 5.196152 -3 
z
" style="stroke: #ff0000; stroke-width: 1.5; stroke-linejoin: miter"/>
    </defs>
    <g>
     <use xlink:href="#mb4e827123c" x="78.266603" y="289.121214" style="fill-opacity: 0; stroke: #ff0000; stroke-width: 1.5; stroke-linejoin: miter"/>
     <use xlink:href="#mb4e827123c" x="150.152479" y="247.959062" style="fill-opacity: 0; stroke: #ff0000; stroke-width: 1.5; stroke-linejoin: miter"/>
     <use xlink:href="#mb4e827123c" x="185.346371" y="193.699862" style="fill-opacity: 0; stroke: #ff0000; stroke-width: 1.5; stroke-linejoin: miter"/>
     <use xlink:href="#mb4e827123c" x="191.60229" y="184.344828" style="fill-opacity: 0; stroke: #ff0000; stroke-width: 1.5; stroke-linejoin: miter"/>
     <use xlink:href="#mb4e827123c" x="191.60229" y="184.344828" style="fill-opacity: 0; stroke: #ff0000; stroke-width: 1.5; stroke-linejoin: miter"/>
     <use xlink:href="#mb4e827123c" x="360.8064" y="184.344828" style="fill-opacity: 0; stroke: #ff0000; stroke-width: 1.5; stroke-linejoin: miter"/>
    </g>
   </g>
   <g id="line2d_57">
    <path style="fill: none; stroke: #ff0000; stroke-width: 1.5; stroke-linecap: square"/>
    <g/>
   </g>
   <g id="line2d_58">
    <path d="M 274.176502 184.344828 
" clip-path="url(#p3fa0104731)" style="fill: none; stroke: #ff0000; stroke-width: 1.5; stroke-linecap: square"/>
    <defs>
     <path id="mc6b59fa5b0" d="M -12 12 
L 12 -12 
M -12 -12 
L 12 12 
" style="stroke: #ff0000"/>
    </defs>
    <g clip-path="url(#p3fa0104731)">
     <use xlink:href="#mc6b59fa5b0" x="274.176502" y="184.344828" style="fill: #ff0000; stroke: #ff0000"/>
    </g>
   </g>
   <g id="line2d_59">
    <path d="M 360.8064 192.764359 
L 380.514816 293.51808 
" style="fill: none; stroke: #ff7500; stroke-width: 1.5; stroke-linecap: square"/>
    <g>
     <use xlink:href="#mf9a3e2dd56" x="360.8064" y="192.764359" style="fill-opacity: 0; stroke: #ff7500; stroke-width: 1.5; stroke-linejoin: bevel"/>
     <use xlink:href="#mf9a3e2dd56" x="380.514816" y="293.51808" style="fill-opacity: 0; stroke: #ff7500; stroke-width: 1.5; stroke-linejoin: bevel"/>
    </g>
   </g>
   <g id="line2d_60">
    <path d="M 360.8064 189.490097 
L 380.514816 241.429248 
" style="fill: none; stroke: #6495ed; stroke-width: 1.5; stroke-linecap: square"/>
    <g>
     <use xlink:href="#mf68641884b" x="360.8064" y="189.490097" style="fill-opacity: 0; stroke: #6495ed; stroke-width: 1.5; stroke-linejoin: miter"/>
     <use xlink:href="#mf68641884b" x="380.514816" y="241.429248" style="fill-opacity: 0; stroke: #6495ed; stroke-width: 1.5; stroke-linejoin: miter"/>
    </g>
   </g>
   <g id="line2d_61">
    <path d="M 360.8064 184.344828 
L 380.514816 189.340416 
" style="fill: none; stroke: #ff0000; stroke-width: 1.5; stroke-linecap: square"/>
    <g>
     <use xlink:href="#mb4e827123c" x="360.8064" y="184.344828" style="fill-opacity: 0; stroke: #ff0000; stroke-width: 1.5; stroke-linejoin: miter"/>
     <use xlink:href="#mb4e827123c" x="380.514816" y="189.340416" style="fill-opacity: 0; stroke: #ff0000; stroke-width: 1.5; stroke-linejoin: miter"/>
    </g>
   </g>
   <g id="line2d_62">
    <path d="M 360.8064 177.796303 
L 380.514816 137.251584 
" style="fill: none; stroke: #ff00ff; stroke-width: 1.5; stroke-linecap: square"/>
    <g>
     <use xlink:href="#m2dc502131a" x="360.8064" y="177.796303" style="fill-opacity: 0; stroke: #ff00ff; stroke-width: 1.5; stroke-linejoin: miter"/>
     <use xlink:href="#m2dc502131a" x="380.514816" y="137.251584" style="fill-opacity: 0; stroke: #ff00ff; stroke-width: 1.5; stroke-linejoin: miter"/>
    </g>
   </g>
   <g id="line2d_63">
    <path d="M 360.8064 163.296 
L 380.514816 85.162752 
" style="fill: none; stroke: #000080; stroke-width: 1.5; stroke-linecap: square"/>
    <g>
     <use xlink:href="#mf1cff591a3" x="360.8064" y="163.296" style="fill-opacity: 0; stroke: #000080; stroke-width: 1.5"/>
     <use xlink:href="#mf1cff591a3" x="380.514816" y="85.162752" style="fill-opacity: 0; stroke: #000080; stroke-width: 1.5"/>
    </g>
   </g>
   <g id="line2d_64">
    <path d="M 360.8064 298.944 
L 360.8064 27.648 
" style="fill: none; stroke: #000000; stroke-width: 1.5; stroke-linecap: square"/>
   </g>
   <g id="patch_3">
    <path d="M 57.6 298.944 
L 360.8064 298.944 
" style="fill: none; stroke: #000000; stroke-width: 0.8; stroke-linejoin: miter; stroke-linecap: square"/>
   </g>
   <g id="patch_4">
    <path d="M 57.6 27.648 
L 360.8064 27.648 
" style="fill: none; stroke: #000000; stroke-width: 0.8; stroke-linejoin: miter; stroke-linecap: square"/>
   </g>
   <g id="text_13">
    <!-- kerComo -->
    <g transform="translate(386.578944 297.381205) scale(0.14 -0.14)">
     <defs>
      <path id="DejaVuSans-6b" d="M 581 4863 
L 1159 4863 
L 1159 1991 
L 2875 3500 
L 3609 3500 
L 1753 1863 
L 3688 0 
L 2938 0 
L 1159 1709 
L 1159 0 
L 581 0 
L 581 4863 
z
" transform="scale(0.015625)"/>
      <path id="DejaVuSans-43" d="M 4122 4306 
L 4122 3641 
Q 3803 3938 3442 4084 
Q 3081 4231 2675 4231 
Q 1875 4231 1450 3742 
Q 1025 3253 1025 2328 
Q 1025 1406 1450 917 
Q 1875 428 2675 428 
Q 3081 428 3442 575 
Q 3803 722 4122 1019 
L 4122 359 
Q 3791 134 3420 21 
Q 3050 -91 2638 -91 
Q 1578 -91 968 557 
Q 359 1206 359 2328 
Q 359 3453 968 4101 
Q 1578 4750 2638 4750 
Q 3056 4750 3426 4639 
Q 3797 4528 4122 4306 
z
" transform="scale(0.015625)"/>
     </defs>
     <use xlink:href="#DejaVuSans-6b"/>
     <use xlink:href="#DejaVuSans-65" x="54.285156"/>
     <use xlink:href="#DejaVuSans-72" x="115.808594"/>
     <use xlink:href="#DejaVuSans-43" x="156.921875"/>
     <use xlink:href="#DejaVuSans-6f" x="226.746094"/>
     <use xlink:href="#DejaVuSans-6d" x="287.927734"/>
     <use xlink:href="#DejaVuSans-6f" x="385.339844"/>
    </g>
   </g>
   <g id="text_14">
    <!-- kerLQ -->
    <g transform="translate(386.578944 245.292373) scale(0.14 -0.14)">
     <defs>
      <path id="DejaVuSans-4c" d="M 628 4666 
L 1259 4666 
L 1259 531 
L 3531 531 
L 3531 0 
L 628 0 
L 628 4666 
z
" transform="scale(0.015625)"/>
      <path id="DejaVuSans-51" d="M 2522 4238 
Q 1834 4238 1429 3725 
Q 1025 3213 1025 2328 
Q 1025 1447 1429 934 
Q 1834 422 2522 422 
Q 3209 422 3611 934 
Q 4013 1447 4013 2328 
Q 4013 3213 3611 3725 
Q 3209 4238 2522 4238 
z
M 3406 84 
L 4238 -825 
L 3475 -825 
L 2784 -78 
Q 2681 -84 2626 -87 
Q 2572 -91 2522 -91 
Q 1538 -91 948 567 
Q 359 1225 359 2328 
Q 359 3434 948 4092 
Q 1538 4750 2522 4750 
Q 3503 4750 4090 4092 
Q 4678 3434 4678 2328 
Q 4678 1516 4351 937 
Q 4025 359 3406 84 
z
" transform="scale(0.015625)"/>
     </defs>
     <use xlink:href="#DejaVuSans-6b"/>
     <use xlink:href="#DejaVuSans-65" x="54.285156"/>
     <use xlink:href="#DejaVuSans-72" x="115.808594"/>
     <use xlink:href="#DejaVuSans-4c" x="156.921875"/>
     <use xlink:href="#DejaVuSans-51" x="212.634766"/>
    </g>
   </g>
   <g id="text_15">
    <!-- COMO-10 d -->
    <g transform="translate(386.578944 193.203541) scale(0.14 -0.14)">
     <defs>
      <path id="DejaVuSans-4f" d="M 2522 4238 
Q 1834 4238 1429 3725 
Q 1025 3213 1025 2328 
Q 1025 1447 1429 934 
Q 1834 422 2522 422 
Q 3209 422 3611 934 
Q 4013 1447 4013 2328 
Q 4013 3213 3611 3725 
Q 3209 4238 2522 4238 
z
M 2522 4750 
Q 3503 4750 4090 4092 
Q 4678 3434 4678 2328 
Q 4678 1225 4090 567 
Q 3503 -91 2522 -91 
Q 1538 -91 948 565 
Q 359 1222 359 2328 
Q 359 3434 948 4092 
Q 1538 4750 2522 4750 
z
" transform="scale(0.015625)"/>
      <path id="DejaVuSans-4d" d="M 628 4666 
L 1569 4666 
L 2759 1491 
L 3956 4666 
L 4897 4666 
L 4897 0 
L 4281 0 
L 4281 4097 
L 3078 897 
L 2444 897 
L 1241 4097 
L 1241 0 
L 628 0 
L 628 4666 
z
" transform="scale(0.015625)"/>
     </defs>
     <use xlink:href="#DejaVuSans-43"/>
     <use xlink:href="#DejaVuSans-4f" x="69.824219"/>
     <use xlink:href="#DejaVuSans-4d" x="148.535156"/>
     <use xlink:href="#DejaVuSans-4f" x="234.814453"/>
     <use xlink:href="#DejaVuSans-2d" x="316.275391"/>
     <use xlink:href="#DejaVuSans-31" x="352.359375"/>
     <use xlink:href="#DejaVuSans-30" x="415.982422"/>
     <use xlink:href="#DejaVuSans-20" x="479.605469"/>
     <use xlink:href="#DejaVuSans-64" x="511.392578"/>
    </g>
   </g>
   <g id="text_16">
    <!-- AllLQ -->
    <g transform="translate(386.578944 141.114709) scale(0.14 -0.14)">
     <defs>
      <path id="DejaVuSans-41" d="M 2188 4044 
L 1331 1722 
L 3047 1722 
L 2188 4044 
z
M 1831 4666 
L 2547 4666 
L 4325 0 
L 3669 0 
L 3244 1197 
L 1141 1197 
L 716 0 
L 50 0 
L 1831 4666 
z
" transform="scale(0.015625)"/>
     </defs>
     <use xlink:href="#DejaVuSans-41"/>
     <use xlink:href="#DejaVuSans-6c" x="68.408203"/>
     <use xlink:href="#DejaVuSans-6c" x="96.191406"/>
     <use xlink:href="#DejaVuSans-4c" x="123.974609"/>
     <use xlink:href="#DejaVuSans-51" x="179.6875"/>
    </g>
   </g>
   <g id="text_17">
    <!-- AllComo -->
    <g transform="translate(386.578944 89.025877) scale(0.14 -0.14)">
     <use xlink:href="#DejaVuSans-41"/>
     <use xlink:href="#DejaVuSans-6c" x="68.408203"/>
     <use xlink:href="#DejaVuSans-6c" x="96.191406"/>
     <use xlink:href="#DejaVuSans-43" x="123.974609"/>
     <use xlink:href="#DejaVuSans-6f" x="193.798828"/>
     <use xlink:href="#DejaVuSans-6d" x="254.980469"/>
     <use xlink:href="#DejaVuSans-6f" x="352.392578"/>
    </g>
   </g>
   <g id="text_18">
    <!-- best 2016 -->
    <g transform="translate(386.578944 36.937045) scale(0.14 -0.14)">
     <defs>
      <path id="DejaVuSans-62" d="M 3116 1747 
Q 3116 2381 2855 2742 
Q 2594 3103 2138 3103 
Q 1681 3103 1420 2742 
Q 1159 2381 1159 1747 
Q 1159 1113 1420 752 
Q 1681 391 2138 391 
Q 2594 391 2855 752 
Q 3116 1113 3116 1747 
z
M 1159 2969 
Q 1341 3281 1617 3432 
Q 1894 3584 2278 3584 
Q 2916 3584 3314 3078 
Q 3713 2572 3713 1747 
Q 3713 922 3314 415 
Q 2916 -91 2278 -91 
Q 1894 -91 1617 61 
Q 1341 213 1159 525 
L 1159 0 
L 581 0 
L 581 4863 
L 1159 4863 
L 1159 2969 
z
" transform="scale(0.015625)"/>
     </defs>
     <use xlink:href="#DejaVuSans-62"/>
     <use xlink:href="#DejaVuSans-65" x="63.476562"/>
     <use xlink:href="#DejaVuSans-73" x="125"/>
     <use xlink:href="#DejaVuSans-74" x="177.099609"/>
     <use xlink:href="#DejaVuSans-20" x="216.308594"/>
     <use xlink:href="#DejaVuSans-32" x="248.095703"/>
     <use xlink:href="#DejaVuSans-30" x="311.71875"/>
     <use xlink:href="#DejaVuSans-31" x="375.341797"/>
     <use xlink:href="#DejaVuSans-36" x="438.964844"/>
    </g>
   </g>
   <g id="text_19">
    <!-- bbob-biobj f19, 3-D -->
    <g transform="translate(60.632064 38.111366) scale(0.102 -0.102)">
     <defs>
      <path id="DejaVuSans-6a" d="M 603 3500 
L 1178 3500 
L 1178 -63 
Q 1178 -731 923 -1031 
Q 669 -1331 103 -1331 
L -116 -1331 
L -116 -844 
L 38 -844 
Q 366 -844 484 -692 
Q 603 -541 603 -63 
L 603 3500 
z
M 603 4863 
L 1178 4863 
L 1178 4134 
L 603 4134 
L 603 4863 
z
" transform="scale(0.015625)"/>
      <path id="DejaVuSans-39" d="M 703 97 
L 703 672 
Q 941 559 1184 500 
Q 1428 441 1663 441 
Q 2288 441 2617 861 
Q 2947 1281 2994 2138 
Q 2813 1869 2534 1725 
Q 2256 1581 1919 1581 
Q 1219 1581 811 2004 
Q 403 2428 403 3163 
Q 403 3881 828 4315 
Q 1253 4750 1959 4750 
Q 2769 4750 3195 4129 
Q 3622 3509 3622 2328 
Q 3622 1225 3098 567 
Q 2575 -91 1691 -91 
Q 1453 -91 1209 -44 
Q 966 3 703 97 
z
M 1959 2075 
Q 2384 2075 2632 2365 
Q 2881 2656 2881 3163 
Q 2881 3666 2632 3958 
Q 2384 4250 1959 4250 
Q 1534 4250 1286 3958 
Q 1038 3666 1038 3163 
Q 1038 2656 1286 2365 
Q 1534 2075 1959 2075 
z
" transform="scale(0.015625)"/>
      <path id="DejaVuSans-33" d="M 2597 2516 
Q 3050 2419 3304 2112 
Q 3559 1806 3559 1356 
Q 3559 666 3084 287 
Q 2609 -91 1734 -91 
Q 1441 -91 1130 -33 
Q 819 25 488 141 
L 488 750 
Q 750 597 1062 519 
Q 1375 441 1716 441 
Q 2309 441 2620 675 
Q 2931 909 2931 1356 
Q 2931 1769 2642 2001 
Q 2353 2234 1838 2234 
L 1294 2234 
L 1294 2753 
L 1863 2753 
Q 2328 2753 2575 2939 
Q 2822 3125 2822 3475 
Q 2822 3834 2567 4026 
Q 2313 4219 1838 4219 
Q 1578 4219 1281 4162 
Q 984 4106 628 3988 
L 628 4550 
Q 988 4650 1302 4700 
Q 1616 4750 1894 4750 
Q 2613 4750 3031 4423 
Q 3450 4097 3450 3541 
Q 3450 3153 3228 2886 
Q 3006 2619 2597 2516 
z
" transform="scale(0.015625)"/>
      <path id="DejaVuSans-44" d="M 1259 4147 
L 1259 519 
L 2022 519 
Q 2988 519 3436 956 
Q 3884 1394 3884 2338 
Q 3884 3275 3436 3711 
Q 2988 4147 2022 4147 
L 1259 4147 
z
M 628 4666 
L 1925 4666 
Q 3281 4666 3915 4102 
Q 4550 3538 4550 2338 
Q 4550 1131 3912 565 
Q 3275 0 1925 0 
L 628 0 
L 628 4666 
z
" transform="scale(0.015625)"/>
     </defs>
     <use xlink:href="#DejaVuSans-62"/>
     <use xlink:href="#DejaVuSans-62" x="63.476562"/>
     <use xlink:href="#DejaVuSans-6f" x="126.953125"/>
     <use xlink:href="#DejaVuSans-62" x="188.134766"/>
     <use xlink:href="#DejaVuSans-2d" x="251.611328"/>
     <use xlink:href="#DejaVuSans-62" x="287.695312"/>
     <use xlink:href="#DejaVuSans-69" x="351.171875"/>
     <use xlink:href="#DejaVuSans-6f" x="378.955078"/>
     <use xlink:href="#DejaVuSans-62" x="440.136719"/>
     <use xlink:href="#DejaVuSans-6a" x="503.613281"/>
     <use xlink:href="#DejaVuSans-20" x="531.396484"/>
     <use xlink:href="#DejaVuSans-66" x="563.183594"/>
     <use xlink:href="#DejaVuSans-31" x="598.388672"/>
     <use xlink:href="#DejaVuSans-39" x="662.011719"/>
     <use xlink:href="#DejaVuSans-2c" x="725.634766"/>
     <use xlink:href="#DejaVuSans-20" x="757.421875"/>
     <use xlink:href="#DejaVuSans-33" x="789.208984"/>
     <use xlink:href="#DejaVuSans-2d" x="852.832031"/>
     <use xlink:href="#DejaVuSans-44" x="888.916016"/>
    </g>
    <!-- 58 targets: 1..-1.0e-4 -->
    <g transform="translate(60.632064 49.533135) scale(0.102 -0.102)">
     <defs>
      <path id="DejaVuSans-35" d="M 691 4666 
L 3169 4666 
L 3169 4134 
L 1269 4134 
L 1269 2991 
Q 1406 3038 1543 3061 
Q 1681 3084 1819 3084 
Q 2600 3084 3056 2656 
Q 3513 2228 3513 1497 
Q 3513 744 3044 326 
Q 2575 -91 1722 -91 
Q 1428 -91 1123 -41 
Q 819 9 494 109 
L 494 744 
Q 775 591 1075 516 
Q 1375 441 1709 441 
Q 2250 441 2565 725 
Q 2881 1009 2881 1497 
Q 2881 1984 2565 2268 
Q 2250 2553 1709 2553 
Q 1456 2553 1204 2497 
Q 953 2441 691 2322 
L 691 4666 
z
" transform="scale(0.015625)"/>
      <path id="DejaVuSans-3a" d="M 750 794 
L 1409 794 
L 1409 0 
L 750 0 
L 750 794 
z
M 750 3309 
L 1409 3309 
L 1409 2516 
L 750 2516 
L 750 3309 
z
" transform="scale(0.015625)"/>
     </defs>
     <use xlink:href="#DejaVuSans-35"/>
     <use xlink:href="#DejaVuSans-38" x="63.623047"/>
     <use xlink:href="#DejaVuSans-20" x="127.246094"/>
     <use xlink:href="#DejaVuSans-74" x="159.033203"/>
     <use xlink:href="#DejaVuSans-61" x="198.242188"/>
     <use xlink:href="#DejaVuSans-72" x="259.521484"/>
     <use xlink:href="#DejaVuSans-67" x="298.884766"/>
     <use xlink:href="#DejaVuSans-65" x="362.361328"/>
     <use xlink:href="#DejaVuSans-74" x="423.884766"/>
     <use xlink:href="#DejaVuSans-73" x="463.09375"/>
     <use xlink:href="#DejaVuSans-3a" x="515.193359"/>
     <use xlink:href="#DejaVuSans-20" x="548.884766"/>
     <use xlink:href="#DejaVuSans-31" x="580.671875"/>
     <use xlink:href="#DejaVuSans-2e" x="644.294922"/>
     <use xlink:href="#DejaVuSans-2e" x="676.082031"/>
     <use xlink:href="#DejaVuSans-2d" x="707.869141"/>
     <use xlink:href="#DejaVuSans-31" x="743.953125"/>
     <use xlink:href="#DejaVuSans-2e" x="807.576172"/>
     <use xlink:href="#DejaVuSans-30" x="839.363281"/>
     <use xlink:href="#DejaVuSans-65" x="902.986328"/>
     <use xlink:href="#DejaVuSans-2d" x="964.509766"/>
     <use xlink:href="#DejaVuSans-34" x="1000.59375"/>
    </g>
    <!-- 10 instances -->
    <g transform="translate(60.632064 60.954904) scale(0.102 -0.102)">
     <use xlink:href="#DejaVuSans-31"/>
     <use xlink:href="#DejaVuSans-30" x="63.623047"/>
     <use xlink:href="#DejaVuSans-20" x="127.246094"/>
     <use xlink:href="#DejaVuSans-69" x="159.033203"/>
     <use xlink:href="#DejaVuSans-6e" x="186.816406"/>
     <use xlink:href="#DejaVuSans-73" x="250.195312"/>
     <use xlink:href="#DejaVuSans-74" x="302.294922"/>
     <use xlink:href="#DejaVuSans-61" x="341.503906"/>
     <use xlink:href="#DejaVuSans-6e" x="402.783203"/>
     <use xlink:href="#DejaVuSans-63" x="466.162109"/>
     <use xlink:href="#DejaVuSans-65" x="521.142578"/>
     <use xlink:href="#DejaVuSans-73" x="582.666016"/>
    </g>
   </g>
   <g id="text_20">
    <!-- v2.6, hv-hash=d240b271ab0b4926 -->
    <g style="fill: #808080" transform="translate(120.362575 294.151352) scale(0.1 -0.1)">
     <defs>
      <path id="DejaVuSans-68" d="M 3513 2113 
L 3513 0 
L 2938 0 
L 2938 2094 
Q 2938 2591 2744 2837 
Q 2550 3084 2163 3084 
Q 1697 3084 1428 2787 
Q 1159 2491 1159 1978 
L 1159 0 
L 581 0 
L 581 4863 
L 1159 4863 
L 1159 2956 
Q 1366 3272 1645 3428 
Q 1925 3584 2291 3584 
Q 2894 3584 3203 3211 
Q 3513 2838 3513 2113 
z
" transform="scale(0.015625)"/>
      <path id="DejaVuSans-3d" d="M 678 2906 
L 4684 2906 
L 4684 2381 
L 678 2381 
L 678 2906 
z
M 678 1631 
L 4684 1631 
L 4684 1100 
L 678 1100 
L 678 1631 
z
" transform="scale(0.015625)"/>
      <path id="DejaVuSans-37" d="M 525 4666 
L 3525 4666 
L 3525 4397 
L 1831 0 
L 1172 0 
L 2766 4134 
L 525 4134 
L 525 4666 
z
" transform="scale(0.015625)"/>
     </defs>
     <use xlink:href="#DejaVuSans-76"/>
     <use xlink:href="#DejaVuSans-32" x="59.179688"/>
     <use xlink:href="#DejaVuSans-2e" x="122.802734"/>
     <use xlink:href="#DejaVuSans-36" x="154.589844"/>
     <use xlink:href="#DejaVuSans-2c" x="218.212891"/>
     <use xlink:href="#DejaVuSans-20" x="250"/>
     <use xlink:href="#DejaVuSans-68" x="281.787109"/>
     <use xlink:href="#DejaVuSans-76" x="345.166016"/>
     <use xlink:href="#DejaVuSans-2d" x="401.720703"/>
     <use xlink:href="#DejaVuSans-68" x="437.804688"/>
     <use xlink:href="#DejaVuSans-61" x="501.183594"/>
     <use xlink:href="#DejaVuSans-73" x="562.462891"/>
     <use xlink:href="#DejaVuSans-68" x="614.5625"/>
     <use xlink:href="#DejaVuSans-3d" x="677.941406"/>
     <use xlink:href="#DejaVuSans-64" x="761.730469"/>
     <use xlink:href="#DejaVuSans-32" x="825.207031"/>
     <use xlink:href="#DejaVuSans-34" x="888.830078"/>
     <use xlink:href="#DejaVuSans-30" x="952.453125"/>
     <use xlink:href="#DejaVuSans-62" x="1016.076172"/>
     <use xlink:href="#DejaVuSans-32" x="1079.552734"/>
     <use xlink:href="#DejaVuSans-37" x="1143.175781"/>
     <use xlink:href="#DejaVuSans-31" x="1206.798828"/>
     <use xlink:href="#DejaVuSans-61" x="1270.421875"/>
     <use xlink:href="#DejaVuSans-62" x="1331.701172"/>
     <use xlink:href="#DejaVuSans-30" x="1395.177734"/>
     <use xlink:href="#DejaVuSans-62" x="1458.800781"/>
     <use xlink:href="#DejaVuSans-34" x="1522.277344"/>
     <use xlink:href="#DejaVuSans-39" x="1585.900391"/>
     <use xlink:href="#DejaVuSans-32" x="1649.523438"/>
     <use xlink:href="#DejaVuSans-36" x="1713.146484"/>
    </g>
   </g>
   <g id="text_21">
    <!-- 19 sep. Elli./Gallagher 101 -->
    <g transform="translate(77.256325 21.648) scale(0.2 -0.2)">
     <defs>
      <path id="DejaVuSans-45" d="M 628 4666 
L 3578 4666 
L 3578 4134 
L 1259 4134 
L 1259 2753 
L 3481 2753 
L 3481 2222 
L 1259 2222 
L 1259 531 
L 3634 531 
L 3634 0 
L 628 0 
L 628 4666 
z
" transform="scale(0.015625)"/>
      <path id="DejaVuSans-47" d="M 3809 666 
L 3809 1919 
L 2778 1919 
L 2778 2438 
L 4434 2438 
L 4434 434 
Q 4069 175 3628 42 
Q 3188 -91 2688 -91 
Q 1594 -91 976 548 
Q 359 1188 359 2328 
Q 359 3472 976 4111 
Q 1594 4750 2688 4750 
Q 3144 4750 3555 4637 
Q 3966 4525 4313 4306 
L 4313 3634 
Q 3963 3931 3569 4081 
Q 3175 4231 2741 4231 
Q 1884 4231 1454 3753 
Q 1025 3275 1025 2328 
Q 1025 1384 1454 906 
Q 1884 428 2741 428 
Q 3075 428 3337 486 
Q 3600 544 3809 666 
z
" transform="scale(0.015625)"/>
     </defs>
     <use xlink:href="#DejaVuSans-31"/>
     <use xlink:href="#DejaVuSans-39" x="63.623047"/>
     <use xlink:href="#DejaVuSans-20" x="127.246094"/>
     <use xlink:href="#DejaVuSans-73" x="159.033203"/>
     <use xlink:href="#DejaVuSans-65" x="211.132812"/>
     <use xlink:href="#DejaVuSans-70" x="272.65625"/>
     <use xlink:href="#DejaVuSans-2e" x="336.132812"/>
     <use xlink:href="#DejaVuSans-20" x="367.919922"/>
     <use xlink:href="#DejaVuSans-45" x="399.707031"/>
     <use xlink:href="#DejaVuSans-6c" x="462.890625"/>
     <use xlink:href="#DejaVuSans-6c" x="490.673828"/>
     <use xlink:href="#DejaVuSans-69" x="518.457031"/>
     <use xlink:href="#DejaVuSans-2e" x="546.240234"/>
     <use xlink:href="#DejaVuSans-2f" x="578.027344"/>
     <use xlink:href="#DejaVuSans-47" x="611.71875"/>
     <use xlink:href="#DejaVuSans-61" x="689.208984"/>
     <use xlink:href="#DejaVuSans-6c" x="750.488281"/>
     <use xlink:href="#DejaVuSans-6c" x="778.271484"/>
     <use xlink:href="#DejaVuSans-61" x="806.054688"/>
     <use xlink:href="#DejaVuSans-67" x="867.333984"/>
     <use xlink:href="#DejaVuSans-68" x="930.810547"/>
     <use xlink:href="#DejaVuSans-65" x="994.189453"/>
     <use xlink:href="#DejaVuSans-72" x="1055.712891"/>
     <use xlink:href="#DejaVuSans-20" x="1096.826172"/>
     <use xlink:href="#DejaVuSans-31" x="1128.613281"/>
     <use xlink:href="#DejaVuSans-30" x="1192.236328"/>
     <use xlink:href="#DejaVuSans-31" x="1255.859375"/>
    </g>
   </g>
  </g>
 </g>
 <defs>
  <clipPath id="p3fa0104731">
   <rect x="57.6" y="27.648" width="303.2064" height="271.296"/>
  </clipPath>
 </defs>
</svg>
