<?xml version="1.0" encoding="utf-8" standalone="no"?>
<!DOCTYPE svg PUBLIC "-//W3C//DTD SVG 1.1//EN"
  "http://www.w3.org/Graphics/SVG/1.1/DTD/svg11.dtd">
<svg xmlns:xlink="http://www.w3.org/1999/xlink" width="460.8pt" height="345.6pt" viewBox="0 0 460.8 345.6" xmlns="http://www.w3.org/2000/svg" version="1.1">
 <metadata>
  <rdf:RDF xmlns:dc="http://purl.org/dc/elements/1.1/" xmlns:cc="http://creativecommons.org/ns#" xmlns:rdf="http://www.w3.org/1999/02/22-rdf-syntax-ns#">
   <cc:Work>
    <dc:type rdf:resource="http://purl.org/dc/dcmitype/StillImage"/>
    <dc:date>2023-02-10T02:07:44.138953</dc:date>
    <dc:format>image/svg+xml</dc:format>
    <dc:creator>
     <cc:Agent>
      <dc:title>Matplotlib v3.6.3, https://matplotlib.org/</dc:title>
     </cc:Agent>
    </dc:creator>
   </cc:Work>
  </rdf:RDF>
 </metadata>
 <defs>
  <style type="text/css">*{stroke-linejoin: round; stroke-linecap: butt}</style>
 </defs>
 <g id="figure_1">
  <g id="patch_1">
   <path d="M 0 345.6 
L 460.8 345.6 
L 460.8 0 
L 0 0 
z
" style="fill: #ffffff"/>
  </g>
  <g id="axes_1">
   <g id="patch_2">
    <path d="M 57.6 298.944 
L 360.8064 298.944 
L 360.8064 27.648 
L 57.6 27.648 
z
" style="fill: #ffffff"/>
   </g>
   <g id="line2d_1">
    <path d="M 53.402323 298.944 
L 53.402323 294.266483 
L 61.029752 294.266483 
L 61.029752 284.911448 
L 76.96874 284.911448 
L 76.96874 275.556414 
L 85.471281 275.556414 
L 85.471281 270.878897 
L 93.66029 270.878897 
L 93.66029 256.846345 
L 107.244765 256.846345 
L 107.244765 247.49131 
L 120.28394 247.49131 
L 120.28394 242.813793 
L 130.4233 242.813793 
L 130.4233 233.458759 
L 136.752866 233.458759 
L 136.752866 219.426207 
L 146.193574 219.426207 
L 146.193574 210.071172 
L 160.093991 210.071172 
L 160.093991 200.716138 
L 164.063646 200.716138 
L 164.063646 191.361103 
L 167.569712 191.361103 
L 167.569712 186.683586 
L 175.258693 186.683586 
L 175.258693 172.651034 
L 182.427518 172.651034 
L 182.427518 167.973517 
L 190.089485 167.973517 
L 190.089485 153.940966 
L 194.337049 153.940966 
L 194.337049 144.585931 
L 201.613344 144.585931 
L 201.613344 139.908414 
L 209.022218 139.908414 
L 209.022218 125.875862 
L 216.257177 125.875862 
L 216.257177 121.198345 
L 223.816065 121.198345 
L 223.816065 107.165793 
L 232.39822 107.165793 
L 232.39822 97.810759 
L 241.193984 97.810759 
L 241.193984 88.455724 
L 250.074242 88.455724 
L 250.074242 83.778207 
L 255.287822 83.778207 
L 255.287822 74.423172 
L 261.140362 74.423172 
L 261.140362 60.390621 
L 360.8064 60.390621 
" style="fill: none; stroke: #f5deb3; stroke-width: 4; stroke-linecap: square"/>
   </g>
   <g id="line2d_2">
    <defs>
     <path id="mb55d87cf5d" d="M -0 7.778175 
L 7.778175 0 
L 0 -7.778175 
L -7.778175 -0 
z
" style="stroke: #f5deb3; stroke-width: 1.5; stroke-linejoin: miter"/>
    </defs>
    <g>
     <use xlink:href="#mb55d87cf5d" x="146.193574" y="210.071172" style="fill: #f5deb3; stroke: #f5deb3; stroke-width: 1.5; stroke-linejoin: miter"/>
     <use xlink:href="#mb55d87cf5d" x="194.337049" y="153.940966" style="fill: #f5deb3; stroke: #f5deb3; stroke-width: 1.5; stroke-linejoin: miter"/>
     <use xlink:href="#mb55d87cf5d" x="241.193984" y="97.810759" style="fill: #f5deb3; stroke: #f5deb3; stroke-width: 1.5; stroke-linejoin: miter"/>
     <use xlink:href="#mb55d87cf5d" x="261.140362" y="60.390621" style="fill: #f5deb3; stroke: #f5deb3; stroke-width: 1.5; stroke-linejoin: miter"/>
     <use xlink:href="#mb55d87cf5d" x="261.140362" y="60.390621" style="fill: #f5deb3; stroke: #f5deb3; stroke-width: 1.5; stroke-linejoin: miter"/>
     <use xlink:href="#mb55d87cf5d" x="360.8064" y="60.390621" style="fill: #f5deb3; stroke: #f5deb3; stroke-width: 1.5; stroke-linejoin: miter"/>
    </g>
   </g>
   <g id="line2d_3">
    <path style="fill: none; stroke: #f5deb3; stroke-width: 4; stroke-linecap: square"/>
    <g/>
   </g>
   <g id="line2d_4">
    <path d="M 360.8064 60.390621 
L 380.514816 33.07392 
" style="fill: none; stroke: #f5deb3; stroke-width: 4; stroke-linecap: square"/>
    <g>
     <use xlink:href="#mb55d87cf5d" x="360.8064" y="60.390621" style="fill: #f5deb3; stroke: #f5deb3; stroke-width: 1.5; stroke-linejoin: miter"/>
     <use xlink:href="#mb55d87cf5d" x="380.514816" y="33.07392" style="fill: #f5deb3; stroke: #f5deb3; stroke-width: 1.5; stroke-linejoin: miter"/>
    </g>
   </g>
   <g id="matplotlib.axis_1">
    <g id="xtick_1">
     <g id="line2d_5">
      <path d="M 57.6 298.944 
L 57.6 27.648 
" clip-path="url(#p84dab05d76)" style="fill: none; stroke: #b0b0b0; stroke-width: 0.8; stroke-linecap: square"/>
     </g>
     <g id="line2d_6">
      <defs>
       <path id="mcc48c3d2b1" d="M 0 0 
L 0 3.5 
" style="stroke: #000000; stroke-width: 0.8"/>
      </defs>
      <g>
       <use xlink:href="#mcc48c3d2b1" x="57.6" y="298.944" style="stroke: #000000; stroke-width: 0.8"/>
      </g>
     </g>
     <g id="text_1">
      <!-- 0 -->
      <g transform="translate(52.191875 318.861344) scale(0.17 -0.17)">
       <defs>
        <path id="DejaVuSans-30" d="M 2034 4250 
Q 1547 4250 1301 3770 
Q 1056 3291 1056 2328 
Q 1056 1369 1301 889 
Q 1547 409 2034 409 
Q 2525 409 2770 889 
Q 3016 1369 3016 2328 
Q 3016 3291 2770 3770 
Q 2525 4250 2034 4250 
z
M 2034 4750 
Q 2819 4750 3233 4129 
Q 3647 3509 3647 2328 
Q 3647 1150 3233 529 
Q 2819 -91 2034 -91 
Q 1250 -91 836 529 
Q 422 1150 422 2328 
Q 422 3509 836 4129 
Q 1250 4750 2034 4750 
z
" transform="scale(0.015625)"/>
       </defs>
       <use xlink:href="#DejaVuSans-30"/>
      </g>
     </g>
    </g>
    <g id="xtick_2">
     <g id="line2d_7">
      <path d="M 144.2304 298.944 
L 144.2304 27.648 
" clip-path="url(#p84dab05d76)" style="fill: none; stroke: #b0b0b0; stroke-width: 0.8; stroke-linecap: square"/>
     </g>
     <g id="line2d_8">
      <g>
       <use xlink:href="#mcc48c3d2b1" x="144.2304" y="298.944" style="stroke: #000000; stroke-width: 0.8"/>
      </g>
     </g>
     <g id="text_2">
      <!-- 2 -->
      <g transform="translate(138.822275 318.861344) scale(0.17 -0.17)">
       <defs>
        <path id="DejaVuSans-32" d="M 1228 531 
L 3431 531 
L 3431 0 
L 469 0 
L 469 531 
Q 828 903 1448 1529 
Q 2069 2156 2228 2338 
Q 2531 2678 2651 2914 
Q 2772 3150 2772 3378 
Q 2772 3750 2511 3984 
Q 2250 4219 1831 4219 
Q 1534 4219 1204 4116 
Q 875 4013 500 3803 
L 500 4441 
Q 881 4594 1212 4672 
Q 1544 4750 1819 4750 
Q 2544 4750 2975 4387 
Q 3406 4025 3406 3419 
Q 3406 3131 3298 2873 
Q 3191 2616 2906 2266 
Q 2828 2175 2409 1742 
Q 1991 1309 1228 531 
z
" transform="scale(0.015625)"/>
       </defs>
       <use xlink:href="#DejaVuSans-32"/>
      </g>
     </g>
    </g>
    <g id="xtick_3">
     <g id="line2d_9">
      <path d="M 230.8608 298.944 
L 230.8608 27.648 
" clip-path="url(#p84dab05d76)" style="fill: none; stroke: #b0b0b0; stroke-width: 0.8; stroke-linecap: square"/>
     </g>
     <g id="line2d_10">
      <g>
       <use xlink:href="#mcc48c3d2b1" x="230.8608" y="298.944" style="stroke: #000000; stroke-width: 0.8"/>
      </g>
     </g>
     <g id="text_3">
      <!-- 4 -->
      <g transform="translate(225.452675 318.861344) scale(0.17 -0.17)">
       <defs>
        <path id="DejaVuSans-34" d="M 2419 4116 
L 825 1625 
L 2419 1625 
L 2419 4116 
z
M 2253 4666 
L 3047 4666 
L 3047 1625 
L 3713 1625 
L 3713 1100 
L 3047 1100 
L 3047 0 
L 2419 0 
L 2419 1100 
L 313 1100 
L 313 1709 
L 2253 4666 
z
" transform="scale(0.015625)"/>
       </defs>
       <use xlink:href="#DejaVuSans-34"/>
      </g>
     </g>
    </g>
    <g id="xtick_4">
     <g id="line2d_11">
      <path d="M 317.4912 298.944 
L 317.4912 27.648 
" clip-path="url(#p84dab05d76)" style="fill: none; stroke: #b0b0b0; stroke-width: 0.8; stroke-linecap: square"/>
     </g>
     <g id="line2d_12">
      <g>
       <use xlink:href="#mcc48c3d2b1" x="317.4912" y="298.944" style="stroke: #000000; stroke-width: 0.8"/>
      </g>
     </g>
     <g id="text_4">
      <!-- 6 -->
      <g transform="translate(312.083075 318.861344) scale(0.17 -0.17)">
       <defs>
        <path id="DejaVuSans-36" d="M 2113 2584 
Q 1688 2584 1439 2293 
Q 1191 2003 1191 1497 
Q 1191 994 1439 701 
Q 1688 409 2113 409 
Q 2538 409 2786 701 
Q 3034 994 3034 1497 
Q 3034 2003 2786 2293 
Q 2538 2584 2113 2584 
z
M 3366 4563 
L 3366 3988 
Q 3128 4100 2886 4159 
Q 2644 4219 2406 4219 
Q 1781 4219 1451 3797 
Q 1122 3375 1075 2522 
Q 1259 2794 1537 2939 
Q 1816 3084 2150 3084 
Q 2853 3084 3261 2657 
Q 3669 2231 3669 1497 
Q 3669 778 3244 343 
Q 2819 -91 2113 -91 
Q 1303 -91 875 529 
Q 447 1150 447 2328 
Q 447 3434 972 4092 
Q 1497 4750 2381 4750 
Q 2619 4750 2861 4703 
Q 3103 4656 3366 4563 
z
" transform="scale(0.015625)"/>
       </defs>
       <use xlink:href="#DejaVuSans-36"/>
      </g>
     </g>
    </g>
    <g id="xtick_5">
     <g id="line2d_13">
      <path d="M 100.9152 298.944 
L 100.9152 27.648 
" clip-path="url(#p84dab05d76)" style="fill: none; stroke: #b0b0b0; stroke-width: 0.8; stroke-linecap: square"/>
     </g>
     <g id="line2d_14">
      <defs>
       <path id="m47265bc101" d="M 0 0 
L 0 2 
" style="stroke: #000000; stroke-width: 0.6"/>
      </defs>
      <g>
       <use xlink:href="#m47265bc101" x="100.9152" y="298.944" style="stroke: #000000; stroke-width: 0.6"/>
      </g>
     </g>
    </g>
    <g id="xtick_6">
     <g id="line2d_15">
      <path d="M 187.5456 298.944 
L 187.5456 27.648 
" clip-path="url(#p84dab05d76)" style="fill: none; stroke: #b0b0b0; stroke-width: 0.8; stroke-linecap: square"/>
     </g>
     <g id="line2d_16">
      <g>
       <use xlink:href="#m47265bc101" x="187.5456" y="298.944" style="stroke: #000000; stroke-width: 0.6"/>
      </g>
     </g>
    </g>
    <g id="xtick_7">
     <g id="line2d_17">
      <path d="M 274.176 298.944 
L 274.176 27.648 
" clip-path="url(#p84dab05d76)" style="fill: none; stroke: #b0b0b0; stroke-width: 0.8; stroke-linecap: square"/>
     </g>
     <g id="line2d_18">
      <g>
       <use xlink:href="#m47265bc101" x="274.176" y="298.944" style="stroke: #000000; stroke-width: 0.6"/>
      </g>
     </g>
    </g>
    <g id="xtick_8">
     <g id="line2d_19">
      <path d="M 360.8064 298.944 
L 360.8064 27.648 
" clip-path="url(#p84dab05d76)" style="fill: none; stroke: #b0b0b0; stroke-width: 0.8; stroke-linecap: square"/>
     </g>
     <g id="line2d_20">
      <g>
       <use xlink:href="#m47265bc101" x="360.8064" y="298.944" style="stroke: #000000; stroke-width: 0.6"/>
      </g>
     </g>
    </g>
    <g id="text_5">
     <!-- log10(# f-evals / dimension) -->
     <g transform="translate(88.823278 339.314156) scale(0.17 -0.17)">
      <defs>
       <path id="DejaVuSans-6c" d="M 603 4863 
L 1178 4863 
L 1178 0 
L 603 0 
L 603 4863 
z
" transform="scale(0.015625)"/>
       <path id="DejaVuSans-6f" d="M 1959 3097 
Q 1497 3097 1228 2736 
Q 959 2375 959 1747 
Q 959 1119 1226 758 
Q 1494 397 1959 397 
Q 2419 397 2687 759 
Q 2956 1122 2956 1747 
Q 2956 2369 2687 2733 
Q 2419 3097 1959 3097 
z
M 1959 3584 
Q 2709 3584 3137 3096 
Q 3566 2609 3566 1747 
Q 3566 888 3137 398 
Q 2709 -91 1959 -91 
Q 1206 -91 779 398 
Q 353 888 353 1747 
Q 353 2609 779 3096 
Q 1206 3584 1959 3584 
z
" transform="scale(0.015625)"/>
       <path id="DejaVuSans-67" d="M 2906 1791 
Q 2906 2416 2648 2759 
Q 2391 3103 1925 3103 
Q 1463 3103 1205 2759 
Q 947 2416 947 1791 
Q 947 1169 1205 825 
Q 1463 481 1925 481 
Q 2391 481 2648 825 
Q 2906 1169 2906 1791 
z
M 3481 434 
Q 3481 -459 3084 -895 
Q 2688 -1331 1869 -1331 
Q 1566 -1331 1297 -1286 
Q 1028 -1241 775 -1147 
L 775 -588 
Q 1028 -725 1275 -790 
Q 1522 -856 1778 -856 
Q 2344 -856 2625 -561 
Q 2906 -266 2906 331 
L 2906 616 
Q 2728 306 2450 153 
Q 2172 0 1784 0 
Q 1141 0 747 490 
Q 353 981 353 1791 
Q 353 2603 747 3093 
Q 1141 3584 1784 3584 
Q 2172 3584 2450 3431 
Q 2728 3278 2906 2969 
L 2906 3500 
L 3481 3500 
L 3481 434 
z
" transform="scale(0.015625)"/>
       <path id="DejaVuSans-31" d="M 794 531 
L 1825 531 
L 1825 4091 
L 703 3866 
L 703 4441 
L 1819 4666 
L 2450 4666 
L 2450 531 
L 3481 531 
L 3481 0 
L 794 0 
L 794 531 
z
" transform="scale(0.015625)"/>
       <path id="DejaVuSans-28" d="M 1984 4856 
Q 1566 4138 1362 3434 
Q 1159 2731 1159 2009 
Q 1159 1288 1364 580 
Q 1569 -128 1984 -844 
L 1484 -844 
Q 1016 -109 783 600 
Q 550 1309 550 2009 
Q 550 2706 781 3412 
Q 1013 4119 1484 4856 
L 1984 4856 
z
" transform="scale(0.015625)"/>
       <path id="DejaVuSans-23" d="M 3272 2816 
L 2363 2816 
L 2100 1772 
L 3016 1772 
L 3272 2816 
z
M 2803 4594 
L 2478 3297 
L 3391 3297 
L 3719 4594 
L 4219 4594 
L 3897 3297 
L 4872 3297 
L 4872 2816 
L 3775 2816 
L 3519 1772 
L 4513 1772 
L 4513 1294 
L 3397 1294 
L 3072 0 
L 2572 0 
L 2894 1294 
L 1978 1294 
L 1656 0 
L 1153 0 
L 1478 1294 
L 494 1294 
L 494 1772 
L 1594 1772 
L 1856 2816 
L 850 2816 
L 850 3297 
L 1978 3297 
L 2297 4594 
L 2803 4594 
z
" transform="scale(0.015625)"/>
       <path id="DejaVuSans-20" transform="scale(0.015625)"/>
       <path id="DejaVuSans-66" d="M 2375 4863 
L 2375 4384 
L 1825 4384 
Q 1516 4384 1395 4259 
Q 1275 4134 1275 3809 
L 1275 3500 
L 2222 3500 
L 2222 3053 
L 1275 3053 
L 1275 0 
L 697 0 
L 697 3053 
L 147 3053 
L 147 3500 
L 697 3500 
L 697 3744 
Q 697 4328 969 4595 
Q 1241 4863 1831 4863 
L 2375 4863 
z
" transform="scale(0.015625)"/>
       <path id="DejaVuSans-2d" d="M 313 2009 
L 1997 2009 
L 1997 1497 
L 313 1497 
L 313 2009 
z
" transform="scale(0.015625)"/>
       <path id="DejaVuSans-65" d="M 3597 1894 
L 3597 1613 
L 953 1613 
Q 991 1019 1311 708 
Q 1631 397 2203 397 
Q 2534 397 2845 478 
Q 3156 559 3463 722 
L 3463 178 
Q 3153 47 2828 -22 
Q 2503 -91 2169 -91 
Q 1331 -91 842 396 
Q 353 884 353 1716 
Q 353 2575 817 3079 
Q 1281 3584 2069 3584 
Q 2775 3584 3186 3129 
Q 3597 2675 3597 1894 
z
M 3022 2063 
Q 3016 2534 2758 2815 
Q 2500 3097 2075 3097 
Q 1594 3097 1305 2825 
Q 1016 2553 972 2059 
L 3022 2063 
z
" transform="scale(0.015625)"/>
       <path id="DejaVuSans-76" d="M 191 3500 
L 800 3500 
L 1894 563 
L 2988 3500 
L 3597 3500 
L 2284 0 
L 1503 0 
L 191 3500 
z
" transform="scale(0.015625)"/>
       <path id="DejaVuSans-61" d="M 2194 1759 
Q 1497 1759 1228 1600 
Q 959 1441 959 1056 
Q 959 750 1161 570 
Q 1363 391 1709 391 
Q 2188 391 2477 730 
Q 2766 1069 2766 1631 
L 2766 1759 
L 2194 1759 
z
M 3341 1997 
L 3341 0 
L 2766 0 
L 2766 531 
Q 2569 213 2275 61 
Q 1981 -91 1556 -91 
Q 1019 -91 701 211 
Q 384 513 384 1019 
Q 384 1609 779 1909 
Q 1175 2209 1959 2209 
L 2766 2209 
L 2766 2266 
Q 2766 2663 2505 2880 
Q 2244 3097 1772 3097 
Q 1472 3097 1187 3025 
Q 903 2953 641 2809 
L 641 3341 
Q 956 3463 1253 3523 
Q 1550 3584 1831 3584 
Q 2591 3584 2966 3190 
Q 3341 2797 3341 1997 
z
" transform="scale(0.015625)"/>
       <path id="DejaVuSans-73" d="M 2834 3397 
L 2834 2853 
Q 2591 2978 2328 3040 
Q 2066 3103 1784 3103 
Q 1356 3103 1142 2972 
Q 928 2841 928 2578 
Q 928 2378 1081 2264 
Q 1234 2150 1697 2047 
L 1894 2003 
Q 2506 1872 2764 1633 
Q 3022 1394 3022 966 
Q 3022 478 2636 193 
Q 2250 -91 1575 -91 
Q 1294 -91 989 -36 
Q 684 19 347 128 
L 347 722 
Q 666 556 975 473 
Q 1284 391 1588 391 
Q 1994 391 2212 530 
Q 2431 669 2431 922 
Q 2431 1156 2273 1281 
Q 2116 1406 1581 1522 
L 1381 1569 
Q 847 1681 609 1914 
Q 372 2147 372 2553 
Q 372 3047 722 3315 
Q 1072 3584 1716 3584 
Q 2034 3584 2315 3537 
Q 2597 3491 2834 3397 
z
" transform="scale(0.015625)"/>
       <path id="DejaVuSans-2f" d="M 1625 4666 
L 2156 4666 
L 531 -594 
L 0 -594 
L 1625 4666 
z
" transform="scale(0.015625)"/>
       <path id="DejaVuSans-64" d="M 2906 2969 
L 2906 4863 
L 3481 4863 
L 3481 0 
L 2906 0 
L 2906 525 
Q 2725 213 2448 61 
Q 2172 -91 1784 -91 
Q 1150 -91 751 415 
Q 353 922 353 1747 
Q 353 2572 751 3078 
Q 1150 3584 1784 3584 
Q 2172 3584 2448 3432 
Q 2725 3281 2906 2969 
z
M 947 1747 
Q 947 1113 1208 752 
Q 1469 391 1925 391 
Q 2381 391 2643 752 
Q 2906 1113 2906 1747 
Q 2906 2381 2643 2742 
Q 2381 3103 1925 3103 
Q 1469 3103 1208 2742 
Q 947 2381 947 1747 
z
" transform="scale(0.015625)"/>
       <path id="DejaVuSans-69" d="M 603 3500 
L 1178 3500 
L 1178 0 
L 603 0 
L 603 3500 
z
M 603 4863 
L 1178 4863 
L 1178 4134 
L 603 4134 
L 603 4863 
z
" transform="scale(0.015625)"/>
       <path id="DejaVuSans-6d" d="M 3328 2828 
Q 3544 3216 3844 3400 
Q 4144 3584 4550 3584 
Q 5097 3584 5394 3201 
Q 5691 2819 5691 2113 
L 5691 0 
L 5113 0 
L 5113 2094 
Q 5113 2597 4934 2840 
Q 4756 3084 4391 3084 
Q 3944 3084 3684 2787 
Q 3425 2491 3425 1978 
L 3425 0 
L 2847 0 
L 2847 2094 
Q 2847 2600 2669 2842 
Q 2491 3084 2119 3084 
Q 1678 3084 1418 2786 
Q 1159 2488 1159 1978 
L 1159 0 
L 581 0 
L 581 3500 
L 1159 3500 
L 1159 2956 
Q 1356 3278 1631 3431 
Q 1906 3584 2284 3584 
Q 2666 3584 2933 3390 
Q 3200 3197 3328 2828 
z
" transform="scale(0.015625)"/>
       <path id="DejaVuSans-6e" d="M 3513 2113 
L 3513 0 
L 2938 0 
L 2938 2094 
Q 2938 2591 2744 2837 
Q 2550 3084 2163 3084 
Q 1697 3084 1428 2787 
Q 1159 2491 1159 1978 
L 1159 0 
L 581 0 
L 581 3500 
L 1159 3500 
L 1159 2956 
Q 1366 3272 1645 3428 
Q 1925 3584 2291 3584 
Q 2894 3584 3203 3211 
Q 3513 2838 3513 2113 
z
" transform="scale(0.015625)"/>
       <path id="DejaVuSans-29" d="M 513 4856 
L 1013 4856 
Q 1481 4119 1714 3412 
Q 1947 2706 1947 2009 
Q 1947 1309 1714 600 
Q 1481 -109 1013 -844 
L 513 -844 
Q 928 -128 1133 580 
Q 1338 1288 1338 2009 
Q 1338 2731 1133 3434 
Q 928 4138 513 4856 
z
" transform="scale(0.015625)"/>
      </defs>
      <use xlink:href="#DejaVuSans-6c"/>
      <use xlink:href="#DejaVuSans-6f" x="27.783203"/>
      <use xlink:href="#DejaVuSans-67" x="88.964844"/>
      <use xlink:href="#DejaVuSans-31" x="152.441406"/>
      <use xlink:href="#DejaVuSans-30" x="216.064453"/>
      <use xlink:href="#DejaVuSans-28" x="279.6875"/>
      <use xlink:href="#DejaVuSans-23" x="318.701172"/>
      <use xlink:href="#DejaVuSans-20" x="402.490234"/>
      <use xlink:href="#DejaVuSans-66" x="434.277344"/>
      <use xlink:href="#DejaVuSans-2d" x="463.982422"/>
      <use xlink:href="#DejaVuSans-65" x="500.066406"/>
      <use xlink:href="#DejaVuSans-76" x="561.589844"/>
      <use xlink:href="#DejaVuSans-61" x="620.769531"/>
      <use xlink:href="#DejaVuSans-6c" x="682.048828"/>
      <use xlink:href="#DejaVuSans-73" x="709.832031"/>
      <use xlink:href="#DejaVuSans-20" x="761.931641"/>
      <use xlink:href="#DejaVuSans-2f" x="793.71875"/>
      <use xlink:href="#DejaVuSans-20" x="827.410156"/>
      <use xlink:href="#DejaVuSans-64" x="859.197266"/>
      <use xlink:href="#DejaVuSans-69" x="922.673828"/>
      <use xlink:href="#DejaVuSans-6d" x="950.457031"/>
      <use xlink:href="#DejaVuSans-65" x="1047.869141"/>
      <use xlink:href="#DejaVuSans-6e" x="1109.392578"/>
      <use xlink:href="#DejaVuSans-73" x="1172.771484"/>
      <use xlink:href="#DejaVuSans-69" x="1224.871094"/>
      <use xlink:href="#DejaVuSans-6f" x="1252.654297"/>
      <use xlink:href="#DejaVuSans-6e" x="1313.835938"/>
      <use xlink:href="#DejaVuSans-29" x="1377.214844"/>
     </g>
    </g>
   </g>
   <g id="matplotlib.axis_2">
    <g id="ytick_1">
     <g id="line2d_21">
      <path d="M 57.6 298.944 
L 360.8064 298.944 
" clip-path="url(#p84dab05d76)" style="fill: none; stroke: #b0b0b0; stroke-width: 0.8; stroke-linecap: square"/>
     </g>
     <g id="line2d_22">
      <defs>
       <path id="mcc9590a044" d="M 0 0 
L -3.5 0 
" style="stroke: #000000; stroke-width: 0.8"/>
      </defs>
      <g>
       <use xlink:href="#mcc9590a044" x="57.6" y="298.944" style="stroke: #000000; stroke-width: 0.8"/>
      </g>
     </g>
     <g id="text_6">
      <!-- 0.0 -->
      <g transform="translate(25.155 305.02275) scale(0.16 -0.16)">
       <defs>
        <path id="DejaVuSans-2e" d="M 684 794 
L 1344 794 
L 1344 0 
L 684 0 
L 684 794 
z
" transform="scale(0.015625)"/>
       </defs>
       <use xlink:href="#DejaVuSans-30"/>
       <use xlink:href="#DejaVuSans-2e" x="63.623047"/>
       <use xlink:href="#DejaVuSans-30" x="95.410156"/>
      </g>
     </g>
    </g>
    <g id="ytick_2">
     <g id="line2d_23">
      <path d="M 57.6 244.6848 
L 360.8064 244.6848 
" clip-path="url(#p84dab05d76)" style="fill: none; stroke: #b0b0b0; stroke-width: 0.8; stroke-linecap: square"/>
     </g>
     <g id="line2d_24">
      <g>
       <use xlink:href="#mcc9590a044" x="57.6" y="244.6848" style="stroke: #000000; stroke-width: 0.8"/>
      </g>
     </g>
     <g id="text_7">
      <!-- 0.2 -->
      <g transform="translate(25.155 250.76355) scale(0.16 -0.16)">
       <use xlink:href="#DejaVuSans-30"/>
       <use xlink:href="#DejaVuSans-2e" x="63.623047"/>
       <use xlink:href="#DejaVuSans-32" x="95.410156"/>
      </g>
     </g>
    </g>
    <g id="ytick_3">
     <g id="line2d_25">
      <path d="M 57.6 190.4256 
L 360.8064 190.4256 
" clip-path="url(#p84dab05d76)" style="fill: none; stroke: #b0b0b0; stroke-width: 0.8; stroke-linecap: square"/>
     </g>
     <g id="line2d_26">
      <g>
       <use xlink:href="#mcc9590a044" x="57.6" y="190.4256" style="stroke: #000000; stroke-width: 0.8"/>
      </g>
     </g>
     <g id="text_8">
      <!-- 0.4 -->
      <g transform="translate(25.155 196.50435) scale(0.16 -0.16)">
       <use xlink:href="#DejaVuSans-30"/>
       <use xlink:href="#DejaVuSans-2e" x="63.623047"/>
       <use xlink:href="#DejaVuSans-34" x="95.410156"/>
      </g>
     </g>
    </g>
    <g id="ytick_4">
     <g id="line2d_27">
      <path d="M 57.6 136.1664 
L 360.8064 136.1664 
" clip-path="url(#p84dab05d76)" style="fill: none; stroke: #b0b0b0; stroke-width: 0.8; stroke-linecap: square"/>
     </g>
     <g id="line2d_28">
      <g>
       <use xlink:href="#mcc9590a044" x="57.6" y="136.1664" style="stroke: #000000; stroke-width: 0.8"/>
      </g>
     </g>
     <g id="text_9">
      <!-- 0.6 -->
      <g transform="translate(25.155 142.24515) scale(0.16 -0.16)">
       <use xlink:href="#DejaVuSans-30"/>
       <use xlink:href="#DejaVuSans-2e" x="63.623047"/>
       <use xlink:href="#DejaVuSans-36" x="95.410156"/>
      </g>
     </g>
    </g>
    <g id="ytick_5">
     <g id="line2d_29">
      <path d="M 57.6 81.9072 
L 360.8064 81.9072 
" clip-path="url(#p84dab05d76)" style="fill: none; stroke: #b0b0b0; stroke-width: 0.8; stroke-linecap: square"/>
     </g>
     <g id="line2d_30">
      <g>
       <use xlink:href="#mcc9590a044" x="57.6" y="81.9072" style="stroke: #000000; stroke-width: 0.8"/>
      </g>
     </g>
     <g id="text_10">
      <!-- 0.8 -->
      <g transform="translate(25.155 87.98595) scale(0.16 -0.16)">
       <defs>
        <path id="DejaVuSans-38" d="M 2034 2216 
Q 1584 2216 1326 1975 
Q 1069 1734 1069 1313 
Q 1069 891 1326 650 
Q 1584 409 2034 409 
Q 2484 409 2743 651 
Q 3003 894 3003 1313 
Q 3003 1734 2745 1975 
Q 2488 2216 2034 2216 
z
M 1403 2484 
Q 997 2584 770 2862 
Q 544 3141 544 3541 
Q 544 4100 942 4425 
Q 1341 4750 2034 4750 
Q 2731 4750 3128 4425 
Q 3525 4100 3525 3541 
Q 3525 3141 3298 2862 
Q 3072 2584 2669 2484 
Q 3125 2378 3379 2068 
Q 3634 1759 3634 1313 
Q 3634 634 3220 271 
Q 2806 -91 2034 -91 
Q 1263 -91 848 271 
Q 434 634 434 1313 
Q 434 1759 690 2068 
Q 947 2378 1403 2484 
z
M 1172 3481 
Q 1172 3119 1398 2916 
Q 1625 2713 2034 2713 
Q 2441 2713 2670 2916 
Q 2900 3119 2900 3481 
Q 2900 3844 2670 4047 
Q 2441 4250 2034 4250 
Q 1625 4250 1398 4047 
Q 1172 3844 1172 3481 
z
" transform="scale(0.015625)"/>
       </defs>
       <use xlink:href="#DejaVuSans-30"/>
       <use xlink:href="#DejaVuSans-2e" x="63.623047"/>
       <use xlink:href="#DejaVuSans-38" x="95.410156"/>
      </g>
     </g>
    </g>
    <g id="ytick_6">
     <g id="line2d_31">
      <path d="M 57.6 27.648 
L 360.8064 27.648 
" clip-path="url(#p84dab05d76)" style="fill: none; stroke: #b0b0b0; stroke-width: 0.8; stroke-linecap: square"/>
     </g>
     <g id="line2d_32">
      <g>
       <use xlink:href="#mcc9590a044" x="57.6" y="27.648" style="stroke: #000000; stroke-width: 0.8"/>
      </g>
     </g>
     <g id="text_11">
      <!-- 1.0 -->
      <g transform="translate(25.155 33.72675) scale(0.16 -0.16)">
       <use xlink:href="#DejaVuSans-31"/>
       <use xlink:href="#DejaVuSans-2e" x="63.623047"/>
       <use xlink:href="#DejaVuSans-30" x="95.410156"/>
      </g>
     </g>
    </g>
    <g id="text_12">
     <!-- Fraction of function,target pairs -->
     <g transform="translate(17.619531 297.681) rotate(-90) scale(0.17 -0.17)">
      <defs>
       <path id="DejaVuSans-46" d="M 628 4666 
L 3309 4666 
L 3309 4134 
L 1259 4134 
L 1259 2759 
L 3109 2759 
L 3109 2228 
L 1259 2228 
L 1259 0 
L 628 0 
L 628 4666 
z
" transform="scale(0.015625)"/>
       <path id="DejaVuSans-72" d="M 2631 2963 
Q 2534 3019 2420 3045 
Q 2306 3072 2169 3072 
Q 1681 3072 1420 2755 
Q 1159 2438 1159 1844 
L 1159 0 
L 581 0 
L 581 3500 
L 1159 3500 
L 1159 2956 
Q 1341 3275 1631 3429 
Q 1922 3584 2338 3584 
Q 2397 3584 2469 3576 
Q 2541 3569 2628 3553 
L 2631 2963 
z
" transform="scale(0.015625)"/>
       <path id="DejaVuSans-63" d="M 3122 3366 
L 3122 2828 
Q 2878 2963 2633 3030 
Q 2388 3097 2138 3097 
Q 1578 3097 1268 2742 
Q 959 2388 959 1747 
Q 959 1106 1268 751 
Q 1578 397 2138 397 
Q 2388 397 2633 464 
Q 2878 531 3122 666 
L 3122 134 
Q 2881 22 2623 -34 
Q 2366 -91 2075 -91 
Q 1284 -91 818 406 
Q 353 903 353 1747 
Q 353 2603 823 3093 
Q 1294 3584 2113 3584 
Q 2378 3584 2631 3529 
Q 2884 3475 3122 3366 
z
" transform="scale(0.015625)"/>
       <path id="DejaVuSans-74" d="M 1172 4494 
L 1172 3500 
L 2356 3500 
L 2356 3053 
L 1172 3053 
L 1172 1153 
Q 1172 725 1289 603 
Q 1406 481 1766 481 
L 2356 481 
L 2356 0 
L 1766 0 
Q 1100 0 847 248 
Q 594 497 594 1153 
L 594 3053 
L 172 3053 
L 172 3500 
L 594 3500 
L 594 4494 
L 1172 4494 
z
" transform="scale(0.015625)"/>
       <path id="DejaVuSans-75" d="M 544 1381 
L 544 3500 
L 1119 3500 
L 1119 1403 
Q 1119 906 1312 657 
Q 1506 409 1894 409 
Q 2359 409 2629 706 
Q 2900 1003 2900 1516 
L 2900 3500 
L 3475 3500 
L 3475 0 
L 2900 0 
L 2900 538 
Q 2691 219 2414 64 
Q 2138 -91 1772 -91 
Q 1169 -91 856 284 
Q 544 659 544 1381 
z
M 1991 3584 
L 1991 3584 
z
" transform="scale(0.015625)"/>
       <path id="DejaVuSans-2c" d="M 750 794 
L 1409 794 
L 1409 256 
L 897 -744 
L 494 -744 
L 750 256 
L 750 794 
z
" transform="scale(0.015625)"/>
       <path id="DejaVuSans-70" d="M 1159 525 
L 1159 -1331 
L 581 -1331 
L 581 3500 
L 1159 3500 
L 1159 2969 
Q 1341 3281 1617 3432 
Q 1894 3584 2278 3584 
Q 2916 3584 3314 3078 
Q 3713 2572 3713 1747 
Q 3713 922 3314 415 
Q 2916 -91 2278 -91 
Q 1894 -91 1617 61 
Q 1341 213 1159 525 
z
M 3116 1747 
Q 3116 2381 2855 2742 
Q 2594 3103 2138 3103 
Q 1681 3103 1420 2742 
Q 1159 2381 1159 1747 
Q 1159 1113 1420 752 
Q 1681 391 2138 391 
Q 2594 391 2855 752 
Q 3116 1113 3116 1747 
z
" transform="scale(0.015625)"/>
      </defs>
      <use xlink:href="#DejaVuSans-46"/>
      <use xlink:href="#DejaVuSans-72" x="50.269531"/>
      <use xlink:href="#DejaVuSans-61" x="91.382812"/>
      <use xlink:href="#DejaVuSans-63" x="152.662109"/>
      <use xlink:href="#DejaVuSans-74" x="207.642578"/>
      <use xlink:href="#DejaVuSans-69" x="246.851562"/>
      <use xlink:href="#DejaVuSans-6f" x="274.634766"/>
      <use xlink:href="#DejaVuSans-6e" x="335.816406"/>
      <use xlink:href="#DejaVuSans-20" x="399.195312"/>
      <use xlink:href="#DejaVuSans-6f" x="430.982422"/>
      <use xlink:href="#DejaVuSans-66" x="492.164062"/>
      <use xlink:href="#DejaVuSans-20" x="527.369141"/>
      <use xlink:href="#DejaVuSans-66" x="559.15625"/>
      <use xlink:href="#DejaVuSans-75" x="594.361328"/>
      <use xlink:href="#DejaVuSans-6e" x="657.740234"/>
      <use xlink:href="#DejaVuSans-63" x="721.119141"/>
      <use xlink:href="#DejaVuSans-74" x="776.099609"/>
      <use xlink:href="#DejaVuSans-69" x="815.308594"/>
      <use xlink:href="#DejaVuSans-6f" x="843.091797"/>
      <use xlink:href="#DejaVuSans-6e" x="904.273438"/>
      <use xlink:href="#DejaVuSans-2c" x="967.652344"/>
      <use xlink:href="#DejaVuSans-74" x="999.439453"/>
      <use xlink:href="#DejaVuSans-61" x="1038.648438"/>
      <use xlink:href="#DejaVuSans-72" x="1099.927734"/>
      <use xlink:href="#DejaVuSans-67" x="1139.291016"/>
      <use xlink:href="#DejaVuSans-65" x="1202.767578"/>
      <use xlink:href="#DejaVuSans-74" x="1264.291016"/>
      <use xlink:href="#DejaVuSans-20" x="1303.5"/>
      <use xlink:href="#DejaVuSans-70" x="1335.287109"/>
      <use xlink:href="#DejaVuSans-61" x="1398.763672"/>
      <use xlink:href="#DejaVuSans-69" x="1460.042969"/>
      <use xlink:href="#DejaVuSans-72" x="1487.826172"/>
      <use xlink:href="#DejaVuSans-73" x="1528.939453"/>
     </g>
    </g>
   </g>
   <g id="line2d_33">
    <defs>
     <path id="m79243a975f" d="M 0 1.5 
C 0.397805 1.5 0.77937 1.341951 1.06066 1.06066 
C 1.341951 0.77937 1.5 0.397805 1.5 0 
C 1.5 -0.397805 1.341951 -0.77937 1.06066 -1.06066 
C 0.77937 -1.341951 0.397805 -1.5 0 -1.5 
C -0.397805 -1.5 -0.77937 -1.341951 -1.06066 -1.06066 
C -1.341951 -0.77937 -1.5 -0.397805 -1.5 0 
C -1.5 0.397805 -1.341951 0.77937 -1.06066 1.06066 
C -0.77937 1.341951 -0.397805 1.5 0 1.5 
z
" style="stroke: #f5deb3"/>
    </defs>
    <g>
     <use xlink:href="#m79243a975f" x="261.140362" y="60.390621" style="fill: #f5deb3; stroke: #f5deb3"/>
     <use xlink:href="#m79243a975f" x="261.140362" y="60.390621" style="fill: #f5deb3; stroke: #f5deb3"/>
    </g>
   </g>
   <g id="line2d_34">
    <defs>
     <path id="m628a31d4f0" d="M 0 1.5 
C 0.397805 1.5 0.77937 1.341951 1.06066 1.06066 
C 1.341951 0.77937 1.5 0.397805 1.5 0 
C 1.5 -0.397805 1.341951 -0.77937 1.06066 -1.06066 
C 0.77937 -1.341951 0.397805 -1.5 0 -1.5 
C -0.397805 -1.5 -0.77937 -1.341951 -1.06066 -1.06066 
C -1.341951 -0.77937 -1.5 -0.397805 -1.5 0 
C -1.5 0.397805 -1.341951 0.77937 -1.06066 1.06066 
C -0.77937 1.341951 -0.397805 1.5 0 1.5 
z
" style="stroke: #000080"/>
    </defs>
    <g>
     <use xlink:href="#m628a31d4f0" x="217.462301" y="147.392441" style="fill: #000080; stroke: #000080"/>
     <use xlink:href="#m628a31d4f0" x="217.462301" y="147.392441" style="fill: #000080; stroke: #000080"/>
    </g>
   </g>
   <g id="line2d_35">
    <path d="M 27.323974 298.944 
L 27.323974 290.524469 
L 53.402323 290.524469 
L 53.402323 289.588966 
L 57.6 289.588966 
L 57.6 289.121214 
L 70.639174 289.121214 
L 70.639174 288.18571 
L 102.011329 288.18571 
L 102.011329 287.717959 
L 107.5116 287.717959 
L 107.5116 287.250207 
L 109.990385 287.250207 
L 109.990385 286.782455 
L 110.449226 286.782455 
L 110.449226 286.314703 
L 111.117162 286.314703 
L 111.117162 285.846952 
L 112.385837 285.846952 
L 112.385837 284.911448 
L 114.872193 284.911448 
L 114.872193 284.443697 
L 117.695068 284.443697 
L 117.695068 282.57269 
L 120.41783 282.57269 
L 120.41783 282.104938 
L 121.455972 282.104938 
L 121.455972 281.637186 
L 126.323346 281.637186 
L 126.323346 281.169434 
L 128.089678 281.169434 
L 128.089678 280.701683 
L 128.700779 280.701683 
L 128.700779 280.233931 
L 129.458394 280.233931 
L 129.458394 279.766179 
L 131.115828 279.766179 
L 131.115828 278.830676 
L 136.010584 278.830676 
L 136.010584 278.362924 
L 136.584151 278.362924 
L 136.584151 277.427421 
L 138.154948 277.427421 
L 138.154948 276.959669 
L 138.718057 276.959669 
L 138.718057 276.491917 
L 139.166565 276.491917 
L 139.166565 276.024166 
L 139.362521 276.024166 
L 139.362521 275.556414 
L 140.219905 275.556414 
L 140.219905 275.088662 
L 140.725251 275.088662 
L 140.725251 274.62091 
L 141.523975 274.62091 
L 141.610664 273.685407 
L 142.497568 273.685407 
L 142.497568 273.217655 
L 145.004344 273.217655 
L 145.004344 272.749903 
L 145.608355 272.749903 
L 145.678157 270.411145 
L 146.989949 270.411145 
L 147.054816 269.00789 
L 148.124658 269.00789 
L 148.124658 268.540138 
L 148.397954 268.540138 
L 148.458151 266.669131 
L 148.637595 266.669131 
L 148.667336 265.733628 
L 149.338728 265.733628 
L 149.338728 265.265876 
L 149.481565 265.265876 
L 149.481565 264.798124 
L 150.289291 264.798124 
L 150.289291 263.862621 
L 151.656094 263.862621 
L 151.757231 261.523862 
L 152.279463 261.523862 
L 152.377312 259.185103 
L 152.715833 259.185103 
L 152.715833 258.2496 
L 152.859068 258.2496 
L 152.930279 255.910841 
L 153.142309 255.910841 
L 153.235783 254.039834 
L 153.282346 254.039834 
L 153.282346 252.636579 
L 154.779128 252.636579 
L 154.779128 252.168828 
L 155.140696 252.168828 
L 155.140696 251.701076 
L 155.619069 251.701076 
L 155.619069 251.233324 
L 156.599372 251.233324 
L 156.677186 249.830069 
L 156.8511 249.830069 
L 156.8511 248.894566 
L 157.061501 248.894566 
L 157.061501 247.959062 
L 157.605171 247.959062 
L 157.623641 246.088055 
L 159.931401 246.088055 
L 159.931401 245.620303 
L 160.045361 245.620303 
L 160.045361 245.152552 
L 160.190875 245.152552 
L 160.190875 244.6848 
L 160.683643 244.6848 
L 160.683643 243.749297 
L 161.163832 243.749297 
L 161.163832 242.813793 
L 161.391854 242.813793 
L 161.391854 241.87829 
L 161.78066 241.87829 
L 161.78066 241.410538 
L 163.219095 241.410538 
L 163.219095 240.942786 
L 163.786321 240.942786 
L 163.786321 240.475034 
L 164.272231 240.475034 
L 164.272231 240.007283 
L 164.70794 240.007283 
L 164.70794 239.539531 
L 165.084184 239.539531 
L 165.183257 238.136276 
L 165.622743 238.136276 
L 165.622743 237.200772 
L 166.052194 237.200772 
L 166.052194 236.733021 
L 166.882759 236.733021 
L 166.882759 235.797517 
L 168.063651 235.797517 
L 168.063651 235.329766 
L 168.399768 235.329766 
L 168.441364 233.458759 
L 168.811641 233.458759 
L 168.811641 232.523255 
L 168.933465 232.523255 
L 168.933465 232.055503 
L 170.393211 232.055503 
L 170.402572 231.12 
L 171.90398 231.12 
L 171.90398 230.652248 
L 172.297327 230.652248 
L 172.297327 230.184497 
L 173.254192 230.184497 
L 173.286335 228.781241 
L 173.691413 228.781241 
L 173.746337 225.974731 
L 174.738254 225.974731 
L 174.842022 224.571476 
L 175.157205 224.571476 
L 175.157205 223.635972 
L 175.659258 223.635972 
L 175.659258 223.168221 
L 175.800275 223.168221 
L 175.800275 222.700469 
L 175.933269 222.700469 
L 175.933269 222.232717 
L 176.523753 222.232717 
L 176.523753 221.297214 
L 176.94485 221.297214 
L 176.94485 220.36171 
L 177.568925 220.36171 
L 177.568925 219.426207 
L 177.917356 219.426207 
L 177.917356 218.958455 
L 178.203895 218.958455 
L 178.203895 218.490703 
L 178.595434 218.490703 
L 178.595434 217.5552 
L 179.649133 217.5552 
L 179.649133 217.087448 
L 179.98952 217.087448 
L 179.98952 216.151945 
L 180.101628 216.151945 
L 180.101628 215.684193 
L 180.755196 215.684193 
L 180.755196 215.216441 
L 181.044446 215.216441 
L 181.044446 214.280938 
L 181.542759 214.280938 
L 181.609934 213.345434 
L 182.093679 213.345434 
L 182.133854 211.942179 
L 182.604477 211.942179 
L 182.604477 211.006676 
L 182.823359 211.006676 
L 182.866832 209.135669 
L 183.215779 209.135669 
L 183.319685 208.200166 
L 183.380815 208.200166 
L 183.380815 207.732414 
L 183.572318 207.732414 
L 183.572318 206.79691 
L 184.207426 206.79691 
L 184.207426 206.329159 
L 184.999237 206.329159 
L 185.055154 204.925903 
L 185.458805 204.925903 
L 185.555243 203.522648 
L 187.165556 203.522648 
L 187.165556 202.587145 
L 187.60195 202.587145 
L 187.60195 202.119393 
L 187.892281 202.119393 
L 187.94392 200.248386 
L 188.236315 200.248386 
L 188.236315 199.780634 
L 188.779646 199.780634 
L 188.779646 198.845131 
L 189.211554 198.845131 
L 189.211554 197.909628 
L 189.5291 197.909628 
L 189.5291 196.974124 
L 189.87132 196.974124 
L 189.87132 196.506372 
L 190.007144 196.506372 
L 190.007144 195.570869 
L 190.592108 195.570869 
L 190.659184 194.167614 
L 190.953392 194.167614 
L 190.96908 192.764359 
L 191.066055 192.764359 
L 191.066055 191.828855 
L 191.613406 191.828855 
L 191.613406 191.361103 
L 192.109892 191.361103 
L 192.168835 189.490097 
L 192.839405 189.490097 
L 192.867779 186.683586 
L 192.961108 186.683586 
L 192.980846 185.748083 
L 193.110039 185.748083 
L 193.110039 185.280331 
L 193.268905 185.280331 
L 193.296638 184.344828 
L 193.481405 184.344828 
L 193.481405 183.877076 
L 193.861723 183.877076 
L 193.861723 183.409324 
L 194.025059 183.409324 
L 194.025059 182.941572 
L 194.472911 182.941572 
L 194.472911 182.473821 
L 194.716045 182.473821 
L 194.716045 182.006069 
L 194.92052 182.006069 
L 194.92052 181.538317 
L 195.340332 181.538317 
L 195.340332 181.070566 
L 195.724204 181.070566 
L 195.724204 180.135062 
L 195.920475 180.135062 
L 195.951786 178.264055 
L 196.129028 178.264055 
L 196.129028 177.796303 
L 196.667176 177.796303 
L 196.757311 176.393048 
L 197.194861 176.393048 
L 197.194861 175.925297 
L 197.383135 175.925297 
L 197.383135 175.457545 
L 198.156501 175.457545 
L 198.209934 174.05429 
L 198.337557 174.05429 
L 198.398932 172.651034 
L 198.60487 172.651034 
L 198.60487 172.183283 
L 198.818911 172.183283 
L 198.818911 171.715531 
L 198.936323 171.715531 
L 198.936323 170.780028 
L 199.144616 170.780028 
L 199.144616 169.844524 
L 199.322485 169.844524 
L 199.372711 167.973517 
L 199.89897 167.973517 
L 199.89897 167.505766 
L 200.048601 167.505766 
L 200.048601 167.038014 
L 200.629868 167.038014 
L 200.689825 165.634759 
L 200.848165 165.634759 
L 200.848165 164.699255 
L 201.005183 164.699255 
L 201.005183 164.231503 
L 201.148125 164.231503 
L 201.148125 163.763752 
L 201.349689 163.763752 
L 201.349689 162.828248 
L 201.760594 162.828248 
L 201.799432 161.892745 
L 201.88038 161.892745 
L 201.896177 160.021738 
L 202.384546 160.021738 
L 202.384546 159.553986 
L 202.618993 159.553986 
L 202.618993 159.086234 
L 202.978529 159.086234 
L 202.978529 158.618483 
L 203.113865 158.618483 
L 203.146726 157.215228 
L 203.827047 157.215228 
L 203.879224 155.811972 
L 205.113612 155.811972 
L 205.118048 154.408717 
L 205.263834 154.408717 
L 205.294614 153.005462 
L 206.617747 153.005462 
L 206.617747 152.53771 
L 206.805185 152.53771 
L 206.805185 152.069959 
L 207.155987 152.069959 
L 207.155987 151.602207 
L 208.365828 151.602207 
L 208.365828 151.134455 
L 208.691385 151.134455 
L 208.691385 150.666703 
L 209.017413 150.666703 
L 209.017413 150.198952 
L 211.56131 150.198952 
L 211.56131 149.7312 
L 212.597557 149.7312 
L 212.597557 149.263448 
L 216.523494 149.263448 
L 216.523494 148.327945 
L 217.462301 148.327945 
L 217.462301 147.392441 
L 360.8064 147.392441 
L 360.8064 147.392441 
" style="fill: none; stroke: #000080; stroke-width: 1.5; stroke-linecap: square"/>
   </g>
   <g id="line2d_36">
    <defs>
     <path id="ma44dc11fda" d="M 0 6 
C 1.591219 6 3.117479 5.367802 4.242641 4.242641 
C 5.367802 3.117479 6 1.591219 6 0 
C 6 -1.591219 5.367802 -3.117479 4.242641 -4.242641 
C 3.117479 -5.367802 1.591219 -6 0 -6 
C -1.591219 -6 -3.117479 -5.367802 -4.242641 -4.242641 
C -5.367802 -3.117479 -6 -1.591219 -6 0 
C -6 1.591219 -5.367802 3.117479 -4.242641 4.242641 
C -3.117479 5.367802 -1.591219 6 0 6 
z
" style="stroke: #000080; stroke-width: 1.5"/>
    </defs>
    <g>
     <use xlink:href="#ma44dc11fda" x="70.639174" y="289.121214" style="fill-opacity: 0; stroke: #000080; stroke-width: 1.5"/>
     <use xlink:href="#ma44dc11fda" x="166.052194" y="236.733021" style="fill-opacity: 0; stroke: #000080; stroke-width: 1.5"/>
     <use xlink:href="#ma44dc11fda" x="198.201395" y="174.989793" style="fill-opacity: 0; stroke: #000080; stroke-width: 1.5"/>
     <use xlink:href="#ma44dc11fda" x="217.462301" y="147.392441" style="fill-opacity: 0; stroke: #000080; stroke-width: 1.5"/>
     <use xlink:href="#ma44dc11fda" x="217.462301" y="147.392441" style="fill-opacity: 0; stroke: #000080; stroke-width: 1.5"/>
     <use xlink:href="#ma44dc11fda" x="360.8064" y="147.392441" style="fill-opacity: 0; stroke: #000080; stroke-width: 1.5"/>
    </g>
   </g>
   <g id="line2d_37">
    <path style="fill: none; stroke: #000080; stroke-width: 1.5; stroke-linecap: square"/>
    <g/>
   </g>
   <g id="line2d_38">
    <path d="M 230.866066 147.392441 
" clip-path="url(#p84dab05d76)" style="fill: none; stroke: #000080; stroke-width: 1.5; stroke-linecap: square"/>
    <defs>
     <path id="m9a45f5c2c6" d="M -12 12 
L 12 -12 
M -12 -12 
L 12 12 
" style="stroke: #000080"/>
    </defs>
    <g clip-path="url(#p84dab05d76)">
     <use xlink:href="#m9a45f5c2c6" x="230.866066" y="147.392441" style="fill: #000080; stroke: #000080"/>
    </g>
   </g>
   <g id="line2d_39">
    <defs>
     <path id="m953b847462" d="M 0 1.5 
C 0.397805 1.5 0.77937 1.341951 1.06066 1.06066 
C 1.341951 0.77937 1.5 0.397805 1.5 0 
C 1.5 -0.397805 1.341951 -0.77937 1.06066 -1.06066 
C 0.77937 -1.341951 0.397805 -1.5 0 -1.5 
C -0.397805 -1.5 -0.77937 -1.341951 -1.06066 -1.06066 
C -1.341951 -0.77937 -1.5 -0.397805 -1.5 0 
C -1.5 0.397805 -1.341951 0.77937 -1.06066 1.06066 
C -0.77937 1.341951 -0.397805 1.5 0 1.5 
z
" style="stroke: #ff00ff"/>
    </defs>
    <g>
     <use xlink:href="#m953b847462" x="206.784902" y="159.553986" style="fill: #ff00ff; stroke: #ff00ff"/>
     <use xlink:href="#m953b847462" x="206.784902" y="159.553986" style="fill: #ff00ff; stroke: #ff00ff"/>
    </g>
   </g>
   <g id="line2d_40">
    <path d="M 27.323974 298.944 
L 27.323974 290.524469 
L 40.363149 290.524469 
L 40.363149 290.056717 
L 47.990577 290.056717 
L 47.990577 289.588966 
L 53.402323 289.588966 
L 53.402323 289.121214 
L 63.929565 289.121214 
L 63.929565 288.18571 
L 70.639174 288.18571 
L 70.639174 286.314703 
L 86.307488 286.314703 
L 86.307488 284.911448 
L 87.1081 284.911448 
L 87.1081 283.508193 
L 98.510456 283.508193 
L 98.510456 283.040441 
L 98.933205 283.040441 
L 98.933205 282.104938 
L 99.751228 282.104938 
L 99.751228 281.637186 
L 102.362957 281.637186 
L 102.362957 281.169434 
L 104.655893 281.169434 
L 104.655893 280.701683 
L 106.42077 280.701683 
L 106.42077 280.233931 
L 108.034177 280.233931 
L 108.034177 278.362924 
L 108.29012 278.362924 
L 108.29012 271.8144 
L 108.542628 271.8144 
L 108.542628 270.878897 
L 113.57433 270.878897 
L 113.57433 269.943393 
L 113.954374 269.943393 
L 113.954374 269.475641 
L 114.326893 269.475641 
L 114.326893 269.00789 
L 114.510421 269.00789 
L 114.510421 267.604634 
L 116.253478 267.604634 
L 116.253478 266.669131 
L 116.583514 266.669131 
L 116.583514 266.201379 
L 117.384126 266.201379 
L 117.384126 264.330372 
L 118.450653 264.330372 
L 118.450653 263.862621 
L 124.695386 263.862621 
L 124.695386 263.394869 
L 125.425011 263.394869 
L 125.425011 262.459366 
L 125.729248 262.459366 
L 125.729248 261.991614 
L 127.821575 261.991614 
L 127.821575 261.523862 
L 129.78556 261.523862 
L 129.86647 260.588359 
L 130.579414 260.588359 
L 130.579414 259.185103 
L 130.734242 259.185103 
L 130.734242 257.781848 
L 131.191226 257.781848 
L 131.191226 257.314097 
L 133.457005 257.314097 
L 133.457005 256.846345 
L 134.87014 256.846345 
L 134.87014 254.507586 
L 135.59842 254.507586 
L 135.59842 254.039834 
L 135.776169 254.039834 
L 135.776169 253.572083 
L 136.126705 253.572083 
L 136.126705 253.104331 
L 137.412988 253.104331 
L 137.412988 250.765572 
L 137.945929 250.765572 
L 137.945929 250.297821 
L 139.067817 250.297821 
L 139.067817 249.830069 
L 139.362521 249.830069 
L 139.362521 249.362317 
L 140.725251 249.362317 
L 140.725251 248.894566 
L 140.905699 248.894566 
L 140.905699 248.426814 
L 141.349389 248.426814 
L 141.349389 247.959062 
L 141.523975 247.959062 
L 141.523975 247.49131 
L 142.080444 247.49131 
L 142.080444 247.023559 
L 142.661862 247.023559 
L 142.661862 246.088055 
L 142.824734 246.088055 
L 142.824734 245.620303 
L 144.117191 245.620303 
L 144.117191 244.6848 
L 144.749884 244.6848 
L 144.749884 243.749297 
L 145.148219 243.749297 
L 145.148219 242.813793 
L 145.326529 242.813793 
L 145.326529 242.346041 
L 146.193574 242.346041 
L 146.193574 241.87829 
L 148.063382 241.87829 
L 148.063382 241.410538 
L 148.216198 241.410538 
L 148.216198 240.942786 
L 148.991428 240.942786 
L 148.991428 240.475034 
L 149.903682 240.475034 
L 149.903682 239.539531 
L 150.124997 239.539531 
L 150.124997 238.604028 
L 151.426526 238.604028 
L 151.426526 237.668524 
L 151.554409 237.668524 
L 151.554409 233.92651 
L 152.977604 233.92651 
L 152.977604 233.458759 
L 153.189104 233.458759 
L 153.189104 232.523255 
L 154.322673 232.523255 
L 154.322673 231.587752 
L 154.822028 231.587752 
L 154.886195 230.184497 
L 156.185481 230.184497 
L 156.185481 229.248993 
L 156.599372 229.248993 
L 156.599372 228.781241 
L 156.715973 228.781241 
L 156.715973 227.845738 
L 156.870325 227.845738 
L 156.870325 226.910234 
L 157.419468 226.910234 
L 157.419468 226.442483 
L 158.115593 226.442483 
L 158.115593 225.974731 
L 158.734741 225.974731 
L 158.734741 225.506979 
L 159.334159 225.506979 
L 159.334159 225.039228 
L 159.980326 225.039228 
L 159.980326 224.571476 
L 160.319282 224.571476 
L 160.319282 224.103724 
L 162.349204 224.103724 
L 162.349204 223.635972 
L 163.879217 223.635972 
L 163.879217 222.700469 
L 164.465701 222.700469 
L 164.465701 221.764966 
L 165.269521 221.764966 
L 165.269521 220.829462 
L 166.575579 220.829462 
L 166.621405 218.958455 
L 166.701332 218.958455 
L 166.701332 218.490703 
L 167.251516 218.490703 
L 167.251516 218.022952 
L 168.221954 218.022952 
L 168.221954 217.5552 
L 168.555279 217.5552 
L 168.555279 217.087448 
L 168.689024 217.087448 
L 168.689024 216.619697 
L 168.852337 216.619697 
L 168.852337 215.684193 
L 169.432739 215.684193 
L 169.432739 214.74869 
L 170.233352 214.74869 
L 170.233352 214.280938 
L 171.599086 214.280938 
L 171.599086 213.345434 
L 172.195505 213.345434 
L 172.263447 212.409931 
L 173.157433 212.409931 
L 173.157433 211.942179 
L 173.620559 211.942179 
L 173.620559 211.474428 
L 174.400785 211.474428 
L 174.400785 211.006676 
L 174.95257 211.006676 
L 174.95257 210.071172 
L 175.495771 210.071172 
L 175.495771 209.135669 
L 177.12902 209.135669 
L 177.12902 208.667917 
L 178.643809 208.667917 
L 178.643809 207.732414 
L 179.156125 207.732414 
L 179.156125 206.79691 
L 179.740507 206.79691 
L 179.842775 204.925903 
L 179.893701 204.925903 
L 179.893701 203.9904 
L 180.34042 203.9904 
L 180.34042 203.054897 
L 181.29263 203.054897 
L 181.29263 201.651641 
L 181.454552 201.651641 
L 181.454552 200.716138 
L 182.706939 200.716138 
L 182.799165 198.845131 
L 183.182598 198.845131 
L 183.182598 197.909628 
L 183.437067 197.909628 
L 183.497817 196.974124 
L 184.270221 196.974124 
L 184.270221 196.506372 
L 184.444052 196.506372 
L 184.475083 195.103117 
L 184.964745 195.103117 
L 184.964745 194.635366 
L 185.204877 194.635366 
L 185.204877 194.167614 
L 185.525944 194.167614 
L 185.546876 193.23211 
L 185.989327 193.23211 
L 185.989327 192.764359 
L 186.285323 192.764359 
L 186.333537 190.893352 
L 187.042302 190.893352 
L 187.042302 190.4256 
L 187.177069 190.4256 
L 187.177069 189.957848 
L 187.83309 189.957848 
L 187.836795 189.022345 
L 188.039448 189.022345 
L 188.08703 188.086841 
L 188.599088 188.086841 
L 188.652374 186.215834 
L 188.871033 186.215834 
L 188.871033 185.748083 
L 189.159832 185.748083 
L 189.159832 184.812579 
L 189.389767 184.812579 
L 189.389767 183.877076 
L 189.546021 183.877076 
L 189.546021 183.409324 
L 190.366778 183.409324 
L 190.366778 182.941572 
L 191.323263 182.941572 
L 191.323263 182.006069 
L 191.485684 182.006069 
L 191.485684 181.538317 
L 191.601279 181.538317 
L 191.601279 181.070566 
L 191.731233 181.070566 
L 191.84234 179.199559 
L 192.671125 179.199559 
L 192.671125 178.264055 
L 192.836566 178.264055 
L 192.836566 176.8608 
L 193.151976 176.8608 
L 193.151976 176.393048 
L 193.877852 176.393048 
L 193.893967 175.457545 
L 194.059685 175.457545 
L 194.10487 174.522041 
L 194.20284 174.522041 
L 194.213401 173.586538 
L 194.966223 173.586538 
L 194.966223 172.651034 
L 195.525864 172.651034 
L 195.525864 171.715531 
L 195.968623 171.715531 
L 195.999854 170.312276 
L 196.271523 170.312276 
L 196.271523 169.844524 
L 196.65327 169.844524 
L 196.664859 168.909021 
L 196.807966 168.909021 
L 196.807966 167.973517 
L 197.063754 167.973517 
L 197.063754 167.038014 
L 197.192608 167.038014 
L 197.295957 166.10251 
L 198.993731 166.10251 
L 199.071364 164.699255 
L 199.29027 164.699255 
L 199.29027 164.231503 
L 199.576254 164.231503 
L 199.576254 163.763752 
L 200.264142 163.763752 
L 200.264142 162.828248 
L 201.120721 162.828248 
L 201.120721 162.360497 
L 202.077764 162.360497 
L 202.077764 161.892745 
L 202.216263 161.892745 
L 202.216263 160.957241 
L 204.204811 160.957241 
L 204.277607 160.021738 
L 206.784902 160.021738 
L 206.784902 159.553986 
L 360.8064 159.553986 
L 360.8064 159.553986 
" style="fill: none; stroke: #ff00ff; stroke-width: 1.5; stroke-linecap: square"/>
   </g>
   <g id="line2d_41">
    <defs>
     <path id="m09c6c471d8" d="M -0 8.485281 
L 5.091169 0 
L 0 -8.485281 
L -5.091169 -0 
z
" style="stroke: #ff00ff; stroke-width: 1.5; stroke-linejoin: miter"/>
    </defs>
    <g>
     <use xlink:href="#m09c6c471d8" x="104.655893" y="281.169434" style="fill-opacity: 0; stroke: #ff00ff; stroke-width: 1.5; stroke-linejoin: miter"/>
     <use xlink:href="#m09c6c471d8" x="182.706939" y="199.780634" style="fill-opacity: 0; stroke: #ff00ff; stroke-width: 1.5; stroke-linejoin: miter"/>
     <use xlink:href="#m09c6c471d8" x="206.784902" y="160.021738" style="fill-opacity: 0; stroke: #ff00ff; stroke-width: 1.5; stroke-linejoin: miter"/>
     <use xlink:href="#m09c6c471d8" x="206.784902" y="159.553986" style="fill-opacity: 0; stroke: #ff00ff; stroke-width: 1.5; stroke-linejoin: miter"/>
     <use xlink:href="#m09c6c471d8" x="206.784902" y="159.553986" style="fill-opacity: 0; stroke: #ff00ff; stroke-width: 1.5; stroke-linejoin: miter"/>
     <use xlink:href="#m09c6c471d8" x="360.8064" y="159.553986" style="fill-opacity: 0; stroke: #ff00ff; stroke-width: 1.5; stroke-linejoin: miter"/>
    </g>
   </g>
   <g id="line2d_42">
    <path style="fill: none; stroke: #ff00ff; stroke-width: 1.5; stroke-linecap: square"/>
    <g/>
   </g>
   <g id="line2d_43">
    <path d="M 230.870579 159.553986 
" clip-path="url(#p84dab05d76)" style="fill: none; stroke: #ff00ff; stroke-width: 1.5; stroke-linecap: square"/>
    <defs>
     <path id="mdf95f02d1d" d="M -12 12 
L 12 -12 
M -12 -12 
L 12 12 
" style="stroke: #ff00ff"/>
    </defs>
    <g clip-path="url(#p84dab05d76)">
     <use xlink:href="#mdf95f02d1d" x="230.870579" y="159.553986" style="fill: #ff00ff; stroke: #ff00ff"/>
    </g>
   </g>
   <g id="line2d_44">
    <defs>
     <path id="m364a73db4f" d="M 0 1.5 
C 0.397805 1.5 0.77937 1.341951 1.06066 1.06066 
C 1.341951 0.77937 1.5 0.397805 1.5 0 
C 1.5 -0.397805 1.341951 -0.77937 1.06066 -1.06066 
C 0.77937 -1.341951 0.397805 -1.5 0 -1.5 
C -0.397805 -1.5 -0.77937 -1.341951 -1.06066 -1.06066 
C -1.341951 -0.77937 -1.5 -0.397805 -1.5 0 
C -1.5 0.397805 -1.341951 0.77937 -1.06066 1.06066 
C -0.77937 1.341951 -0.397805 1.5 0 1.5 
z
" style="stroke: #ff7500"/>
    </defs>
    <g>
     <use xlink:href="#m364a73db4f" x="214.075604" y="173.586538" style="fill: #ff7500; stroke: #ff7500"/>
     <use xlink:href="#m364a73db4f" x="214.075604" y="173.586538" style="fill: #ff7500; stroke: #ff7500"/>
    </g>
   </g>
   <g id="line2d_45">
    <path d="M 27.323974 298.944 
L 27.323974 290.524469 
L 95.752617 290.524469 
L 95.752617 289.588966 
L 108.29012 289.588966 
L 108.29012 287.717959 
L 121.073351 287.717959 
L 121.073351 287.250207 
L 125.219419 287.250207 
L 125.219419 285.846952 
L 131.489828 285.846952 
L 131.489828 282.104938 
L 133.983236 282.104938 
L 133.983236 280.701683 
L 136.184497 280.701683 
L 136.184497 279.766179 
L 138.154948 279.766179 
L 138.154948 279.298428 
L 139.93843 279.298428 
L 139.93843 278.362924 
L 141.56737 278.362924 
L 141.56737 277.895172 
L 143.066428 277.895172 
L 143.066428 277.427421 
L 144.454795 277.427421 
L 144.454795 276.959669 
L 145.7477 276.959669 
L 145.7477 275.088662 
L 146.957431 275.088662 
L 146.957431 270.411145 
L 148.094045 270.411145 
L 148.094045 266.669131 
L 151.142085 266.669131 
L 151.142085 265.733628 
L 152.057422 265.733628 
L 152.057422 263.394869 
L 152.930279 263.394869 
L 152.930279 261.991614 
L 153.764426 261.991614 
L 153.764426 261.05611 
L 154.563149 261.05611 
L 154.563149 260.588359 
L 155.329337 260.588359 
L 155.329337 256.846345 
L 156.065535 256.846345 
L 156.065535 256.378593 
L 156.774003 256.378593 
L 156.774003 255.44309 
L 157.456756 255.44309 
L 157.456756 254.039834 
L 158.115593 254.039834 
L 158.115593 253.104331 
L 158.752135 253.104331 
L 158.752135 252.168828 
L 159.367841 252.168828 
L 159.367841 251.701076 
L 160.541906 251.701076 
L 160.541906 250.765572 
L 161.102557 250.765572 
L 161.102557 249.830069 
L 162.17609 249.830069 
L 162.17609 249.362317 
L 162.690724 249.362317 
L 162.690724 248.426814 
L 163.191653 248.426814 
L 163.191653 247.49131 
L 163.679588 247.49131 
L 163.679588 246.088055 
L 165.071763 246.088055 
L 165.071763 245.152552 
L 166.780922 245.152552 
L 166.780922 243.749297 
L 167.185004 243.749297 
L 167.185004 242.813793 
L 169.442591 242.813793 
L 169.442591 241.87829 
L 169.793854 241.87829 
L 169.793854 241.410538 
L 170.138678 241.410538 
L 170.138678 240.942786 
L 170.477296 240.942786 
L 170.477296 240.007283 
L 171.136775 240.007283 
L 171.136775 239.539531 
L 172.986898 239.539531 
L 172.986898 238.604028 
L 173.278305 238.604028 
L 173.278305 237.200772 
L 173.847916 237.200772 
L 173.847916 235.797517 
L 175.460042 235.797517 
L 175.460042 235.329766 
L 175.968112 235.329766 
L 175.968112 234.862014 
L 177.645499 234.862014 
L 177.645499 234.394262 
L 177.873367 234.394262 
L 177.873367 233.92651 
L 178.320986 233.92651 
L 178.320986 232.991007 
L 178.540864 232.991007 
L 178.540864 232.055503 
L 178.758202 232.055503 
L 178.758202 229.716745 
L 179.185485 229.716745 
L 179.185485 229.248993 
L 180.213071 229.248993 
L 180.213071 226.910234 
L 181.18742 226.910234 
L 181.18742 225.974731 
L 181.376377 225.974731 
L 181.376377 225.039228 
L 181.74869 225.039228 
L 181.74869 224.571476 
L 181.932119 224.571476 
L 181.932119 223.635972 
L 182.113777 223.635972 
L 182.113777 223.168221 
L 182.471914 223.168221 
L 182.471914 222.232717 
L 183.168359 222.232717 
L 183.168359 221.764966 
L 183.507146 221.764966 
L 183.507146 221.297214 
L 184.166946 221.297214 
L 184.166946 220.829462 
L 185.571964 220.829462 
L 185.571964 220.36171 
L 185.721791 220.36171 
L 185.721791 219.426207 
L 185.870435 219.426207 
L 185.870435 218.022952 
L 186.017913 218.022952 
L 186.017913 217.087448 
L 186.164244 217.087448 
L 186.164244 215.684193 
L 186.309445 215.684193 
L 186.309445 214.74869 
L 186.879296 214.74869 
L 186.879296 213.345434 
L 187.702957 213.345434 
L 187.702957 212.409931 
L 187.969687 212.409931 
L 187.969687 211.006676 
L 188.362822 211.006676 
L 188.362822 210.538924 
L 189.249394 210.538924 
L 189.249394 209.603421 
L 189.737857 209.603421 
L 189.737857 208.200166 
L 190.213957 208.200166 
L 190.213957 207.264662 
L 190.678304 207.264662 
L 190.678304 206.329159 
L 191.573965 206.329159 
L 191.573965 205.393655 
L 192.324146 205.393655 
L 192.428913 202.587145 
L 192.636714 202.587145 
L 192.636714 202.119393 
L 192.842244 202.119393 
L 192.842244 201.18389 
L 193.14639 201.18389 
L 193.14639 200.248386 
L 194.221318 200.248386 
L 194.221318 199.780634 
L 194.410328 199.780634 
L 194.410328 199.312883 
L 194.966223 199.312883 
L 194.966223 198.845131 
L 195.147929 198.845131 
L 195.147929 197.909628 
L 195.594663 197.909628 
L 195.594663 197.441876 
L 195.770427 197.441876 
L 195.770427 196.974124 
L 195.944565 196.974124 
L 195.944565 196.038621 
L 196.117105 196.038621 
L 196.117105 195.570869 
L 196.457509 195.570869 
L 196.457509 194.635366 
L 197.038785 194.635366 
L 197.038785 194.167614 
L 198.072842 194.167614 
L 198.072842 192.764359 
L 199.199369 192.764359 
L 199.272125 190.893352 
L 199.488721 190.893352 
L 199.488721 190.4256 
L 200.603577 190.4256 
L 200.603577 189.490097 
L 200.7384 189.490097 
L 200.7384 188.554593 
L 201.005183 188.554593 
L 201.005183 188.086841 
L 201.333427 188.086841 
L 201.333427 187.61909 
L 201.463137 187.61909 
L 201.463137 186.215834 
L 201.656041 186.215834 
L 201.656041 185.748083 
L 202.036014 185.748083 
L 202.036014 185.280331 
L 202.285132 185.280331 
L 202.285132 184.344828 
L 202.893864 184.344828 
L 202.893864 183.409324 
L 203.072707 183.409324 
L 203.072707 182.941572 
L 203.190999 182.941572 
L 203.190999 182.473821 
L 204.16753 182.473821 
L 204.16753 182.006069 
L 204.390118 182.006069 
L 204.445356 180.602814 
L 205.77608 180.602814 
L 205.77608 180.135062 
L 206.873986 180.135062 
L 206.873986 179.66731 
L 207.7732 179.66731 
L 207.819357 178.264055 
L 209.409805 178.264055 
L 209.409805 177.328552 
L 212.8109 177.328552 
L 212.8109 176.393048 
L 212.986857 176.393048 
L 212.986857 175.925297 
L 213.333908 175.925297 
L 213.333908 175.457545 
L 213.74209 175.457545 
L 213.74209 174.05429 
L 214.075604 174.05429 
L 214.075604 173.586538 
L 360.8064 173.586538 
L 360.8064 173.586538 
" style="fill: none; stroke: #ff7500; stroke-width: 1.5; stroke-linecap: square"/>
   </g>
   <g id="line2d_46">
    <defs>
     <path id="m4de205c732" d="M 0 -6 
L -1.347084 -1.854102 
L -5.706339 -1.854102 
L -2.179628 0.708204 
L -3.526712 4.854102 
L -0 2.291796 
L 3.526712 4.854102 
L 2.179628 0.708204 
L 5.706339 -1.854102 
L 1.347084 -1.854102 
z
" style="stroke: #ff7500; stroke-width: 1.5; stroke-linejoin: bevel"/>
    </defs>
    <g>
     <use xlink:href="#m4de205c732" x="95.752617" y="290.524469" style="fill-opacity: 0; stroke: #ff7500; stroke-width: 1.5; stroke-linejoin: bevel"/>
     <use xlink:href="#m4de205c732" x="173.847916" y="237.200772" style="fill-opacity: 0; stroke: #ff7500; stroke-width: 1.5; stroke-linejoin: bevel"/>
     <use xlink:href="#m4de205c732" x="214.075604" y="174.05429" style="fill-opacity: 0; stroke: #ff7500; stroke-width: 1.5; stroke-linejoin: bevel"/>
     <use xlink:href="#m4de205c732" x="214.075604" y="173.586538" style="fill-opacity: 0; stroke: #ff7500; stroke-width: 1.5; stroke-linejoin: bevel"/>
     <use xlink:href="#m4de205c732" x="214.075604" y="173.586538" style="fill-opacity: 0; stroke: #ff7500; stroke-width: 1.5; stroke-linejoin: bevel"/>
     <use xlink:href="#m4de205c732" x="360.8064" y="173.586538" style="fill-opacity: 0; stroke: #ff7500; stroke-width: 1.5; stroke-linejoin: bevel"/>
    </g>
   </g>
   <g id="line2d_47">
    <path style="fill: none; stroke: #ff7500; stroke-width: 1.5; stroke-linecap: square"/>
    <g/>
   </g>
   <g id="line2d_48">
    <path d="M 230.862681 173.586538 
" clip-path="url(#p84dab05d76)" style="fill: none; stroke: #ff7500; stroke-width: 1.5; stroke-linecap: square"/>
    <defs>
     <path id="md554101a96" d="M -12 12 
L 12 -12 
M -12 -12 
L 12 12 
" style="stroke: #ff7500"/>
    </defs>
    <g clip-path="url(#p84dab05d76)">
     <use xlink:href="#md554101a96" x="230.862681" y="173.586538" style="fill: #ff7500; stroke: #ff7500"/>
    </g>
   </g>
   <g id="line2d_49">
    <defs>
     <path id="m3ac9627f99" d="M 0 1.5 
C 0.397805 1.5 0.77937 1.341951 1.06066 1.06066 
C 1.341951 0.77937 1.5 0.397805 1.5 0 
C 1.5 -0.397805 1.341951 -0.77937 1.06066 -1.06066 
C 0.77937 -1.341951 0.397805 -1.5 0 -1.5 
C -0.397805 -1.5 -0.77937 -1.341951 -1.06066 -1.06066 
C -1.341951 -0.77937 -1.5 -0.397805 -1.5 0 
C -1.5 0.397805 -1.341951 0.77937 -1.06066 1.06066 
C -0.77937 1.341951 -0.397805 1.5 0 1.5 
z
" style="stroke: #6495ed"/>
    </defs>
    <g>
     <use xlink:href="#m3ac9627f99" x="214.651628" y="173.586538" style="fill: #6495ed; stroke: #6495ed"/>
     <use xlink:href="#m3ac9627f99" x="214.651628" y="173.586538" style="fill: #6495ed; stroke: #6495ed"/>
    </g>
   </g>
   <g id="line2d_50">
    <path d="M 27.323974 298.944 
L 27.323974 290.524469 
L 40.363149 290.524469 
L 40.363149 290.056717 
L 76.96874 290.056717 
L 76.96874 288.653462 
L 88.613828 288.653462 
L 88.613828 288.18571 
L 92.519847 288.18571 
L 92.519847 286.314703 
L 95.752617 286.314703 
L 95.752617 284.911448 
L 100.9152 284.911448 
L 100.9152 283.975945 
L 103.047088 283.975945 
L 103.047088 283.508193 
L 104.961779 283.508193 
L 104.961779 282.57269 
L 105.559021 282.57269 
L 105.559021 282.104938 
L 107.244765 282.104938 
L 107.244765 281.637186 
L 108.29012 281.637186 
L 108.29012 280.701683 
L 109.756698 280.701683 
L 109.756698 277.895172 
L 110.221204 277.895172 
L 110.221204 277.427421 
L 111.54963 277.427421 
L 111.54963 273.685407 
L 116.419219 273.685407 
L 116.419219 273.217655 
L 117.695068 273.217655 
L 117.695068 271.8144 
L 118.889854 271.8144 
L 118.889854 271.346648 
L 120.013265 271.346648 
L 120.013265 270.878897 
L 120.41783 270.878897 
L 120.41783 269.943393 
L 122.076872 269.943393 
L 122.076872 269.475641 
L 122.559246 269.475641 
L 122.559246 269.00789 
L 124.906754 269.00789 
L 124.906754 268.540138 
L 126.420564 268.540138 
L 126.420564 268.072386 
L 130.579414 268.072386 
L 130.579414 266.669131 
L 131.040128 266.669131 
L 131.040128 266.201379 
L 131.191226 266.201379 
L 131.191226 265.265876 
L 132.708526 265.265876 
L 132.708526 264.330372 
L 133.120474 264.330372 
L 133.120474 262.927117 
L 134.87014 262.927117 
L 134.87014 262.459366 
L 135.177024 262.459366 
L 135.177024 261.523862 
L 136.640557 261.523862 
L 136.640557 261.05611 
L 137.412988 261.05611 
L 137.466966 256.846345 
L 141.436884 256.846345 
L 141.436884 255.910841 
L 142.702713 255.910841 
L 142.702713 254.975338 
L 143.225848 254.975338 
L 143.225848 252.168828 
L 144.305496 252.168828 
L 144.305496 251.701076 
L 144.491935 251.701076 
L 144.491935 251.233324 
L 146.193574 251.233324 
L 146.193574 250.297821 
L 146.328666 250.297821 
L 146.328666 249.830069 
L 146.761135 249.830069 
L 146.761135 248.894566 
L 147.534321 248.894566 
L 147.534321 248.426814 
L 147.660152 248.426814 
L 147.660152 247.959062 
L 148.124658 247.959062 
L 148.124658 247.023559 
L 150.097474 247.023559 
L 150.152479 245.620303 
L 150.613636 245.620303 
L 150.640414 242.346041 
L 151.656094 242.346041 
L 151.656094 241.410538 
L 155.350181 241.410538 
L 155.350181 240.942786 
L 156.165543 240.942786 
L 156.165543 240.475034 
L 156.75468 240.475034 
L 156.75468 239.071779 
L 157.898535 239.071779 
L 157.898535 238.604028 
L 158.365703 238.604028 
L 158.365703 238.136276 
L 162.956765 238.136276 
L 162.956765 237.668524 
L 163.081483 237.668524 
L 163.081483 236.733021 
L 164.504157 236.733021 
L 164.504157 235.797517 
L 164.972099 235.797517 
L 164.972099 234.862014 
L 165.562313 234.862014 
L 165.562313 233.92651 
L 166.075768 233.92651 
L 166.075768 232.991007 
L 166.263299 232.991007 
L 166.263299 231.587752 
L 167.634879 231.587752 
L 167.634879 231.12 
L 168.3163 231.12 
L 168.3163 230.184497 
L 169.314117 230.184497 
L 169.314117 229.248993 
L 170.19554 229.248993 
L 170.19554 228.781241 
L 170.754894 228.781241 
L 170.754894 228.31349 
L 170.919507 228.31349 
L 170.919507 227.845738 
L 171.912619 227.845738 
L 171.912619 226.910234 
L 172.381759 226.910234 
L 172.381759 226.442483 
L 172.674324 226.442483 
L 172.674324 225.974731 
L 172.896949 225.974731 
L 172.896949 225.039228 
L 173.699269 225.039228 
L 173.699269 224.571476 
L 174.782796 224.571476 
L 174.782796 223.635972 
L 175.011265 223.635972 
L 175.040543 221.764966 
L 175.236991 221.764966 
L 175.236991 220.829462 
L 177.272471 220.829462 
L 177.324365 219.426207 
L 177.721762 219.426207 
L 177.721762 218.958455 
L 178.141974 218.958455 
L 178.141974 218.022952 
L 178.528716 218.022952 
L 178.528716 217.5552 
L 178.7762 217.5552 
L 178.7762 216.619697 
L 178.925523 216.619697 
L 178.925523 215.684193 
L 179.763281 215.684193 
L 179.763281 215.216441 
L 180.034443 215.216441 
L 180.034443 214.74869 
L 180.185272 214.74869 
L 180.185272 214.280938 
L 180.312808 214.280938 
L 180.312808 213.345434 
L 180.868211 213.345434 
L 180.878939 211.474428 
L 181.485731 211.474428 
L 181.485731 211.006676 
L 181.738447 211.006676 
L 181.738447 210.071172 
L 182.881301 210.071172 
L 182.939064 208.667917 
L 183.097004 208.667917 
L 183.097004 208.200166 
L 183.366726 208.200166 
L 183.366726 207.264662 
L 183.479146 207.264662 
L 183.586255 205.393655 
L 183.84452 205.393655 
L 183.84452 204.925903 
L 184.448488 204.925903 
L 184.448488 204.458152 
L 184.79568 204.458152 
L 184.865224 202.587145 
L 186.038305 202.587145 
L 186.038305 202.119393 
L 186.789428 202.119393 
L 186.789428 201.18389 
L 187.177069 201.18389 
L 187.177069 200.716138 
L 187.318496 200.716138 
L 187.318496 200.248386 
L 187.462647 200.248386 
L 187.462647 199.312883 
L 188.301482 199.312883 
L 188.305096 197.441876 
L 188.534946 197.441876 
L 188.534946 196.974124 
L 189.583195 196.974124 
L 189.583195 196.506372 
L 189.774654 196.506372 
L 189.774654 195.570869 
L 190.092771 195.570869 
L 190.092771 194.167614 
L 190.716487 194.167614 
L 190.773617 192.296607 
L 191.156323 192.296607 
L 191.18735 190.4256 
L 191.589145 190.4256 
L 191.589145 189.957848 
L 192.041879 189.957848 
L 192.041879 189.490097 
L 192.271542 189.490097 
L 192.271542 189.022345 
L 192.507108 189.022345 
L 192.507108 188.086841 
L 193.280003 188.086841 
L 193.280003 187.61909 
L 193.467679 187.61909 
L 193.577208 186.215834 
L 194.046375 186.215834 
L 194.046375 185.748083 
L 194.252952 185.748083 
L 194.252952 185.280331 
L 194.527502 185.280331 
L 194.527502 184.344828 
L 195.223125 184.344828 
L 195.223125 183.877076 
L 195.562752 183.877076 
L 195.57012 182.473821 
L 196.45048 182.473821 
L 196.45048 182.006069 
L 197.002408 182.006069 
L 197.002408 181.538317 
L 197.188102 181.538317 
L 197.188102 181.070566 
L 197.55408 181.070566 
L 197.55408 180.135062 
L 197.756309 180.135062 
L 197.756309 179.66731 
L 198.241921 179.66731 
L 198.241921 178.731807 
L 199.902872 178.731807 
L 199.902872 178.264055 
L 200.370994 178.264055 
L 200.370994 177.796303 
L 200.796153 177.796303 
L 200.796153 177.328552 
L 202.387965 177.328552 
L 202.387965 176.8608 
L 203.357315 176.8608 
L 203.357315 175.925297 
L 205.353103 175.925297 
L 205.353103 174.989793 
L 214.09029 174.989793 
L 214.09029 174.05429 
L 214.651628 174.05429 
L 214.651628 173.586538 
L 360.8064 173.586538 
L 360.8064 173.586538 
" style="fill: none; stroke: #6495ed; stroke-width: 1.5; stroke-linecap: square"/>
   </g>
   <g id="line2d_51">
    <defs>
     <path id="m165bb9f6c3" d="M -0 6 
L 6 -6 
L -6 -6 
z
" style="stroke: #6495ed; stroke-width: 1.5; stroke-linejoin: miter"/>
    </defs>
    <g>
     <use xlink:href="#m165bb9f6c3" x="100.9152" y="283.975945" style="fill-opacity: 0; stroke: #6495ed; stroke-width: 1.5; stroke-linejoin: miter"/>
     <use xlink:href="#m165bb9f6c3" x="147.660152" y="247.959062" style="fill-opacity: 0; stroke: #6495ed; stroke-width: 1.5; stroke-linejoin: miter"/>
     <use xlink:href="#m165bb9f6c3" x="202.387965" y="177.328552" style="fill-opacity: 0; stroke: #6495ed; stroke-width: 1.5; stroke-linejoin: miter"/>
     <use xlink:href="#m165bb9f6c3" x="214.651628" y="173.586538" style="fill-opacity: 0; stroke: #6495ed; stroke-width: 1.5; stroke-linejoin: miter"/>
     <use xlink:href="#m165bb9f6c3" x="214.651628" y="173.586538" style="fill-opacity: 0; stroke: #6495ed; stroke-width: 1.5; stroke-linejoin: miter"/>
     <use xlink:href="#m165bb9f6c3" x="360.8064" y="173.586538" style="fill-opacity: 0; stroke: #6495ed; stroke-width: 1.5; stroke-linejoin: miter"/>
    </g>
   </g>
   <g id="line2d_52">
    <path style="fill: none; stroke: #6495ed; stroke-width: 1.5; stroke-linecap: square"/>
    <g/>
   </g>
   <g id="line2d_53">
    <path d="M 230.866819 173.586538 
" clip-path="url(#p84dab05d76)" style="fill: none; stroke: #6495ed; stroke-width: 1.5; stroke-linecap: square"/>
    <defs>
     <path id="m1d75fc59ef" d="M -12 12 
L 12 -12 
M -12 -12 
L 12 12 
" style="stroke: #6495ed"/>
    </defs>
    <g clip-path="url(#p84dab05d76)">
     <use xlink:href="#m1d75fc59ef" x="230.866819" y="173.586538" style="fill: #6495ed; stroke: #6495ed"/>
    </g>
   </g>
   <g id="line2d_54">
    <defs>
     <path id="ma42ab895e6" d="M 0 1.5 
C 0.397805 1.5 0.77937 1.341951 1.06066 1.06066 
C 1.341951 0.77937 1.5 0.397805 1.5 0 
C 1.5 -0.397805 1.341951 -0.77937 1.06066 -1.06066 
C 0.77937 -1.341951 0.397805 -1.5 0 -1.5 
C -0.397805 -1.5 -0.77937 -1.341951 -1.06066 -1.06066 
C -1.341951 -0.77937 -1.5 -0.397805 -1.5 0 
C -1.5 0.397805 -1.341951 0.77937 -1.06066 1.06066 
C -0.77937 1.341951 -0.397805 1.5 0 1.5 
z
" style="stroke: #ff0000"/>
    </defs>
    <g>
     <use xlink:href="#ma42ab895e6" x="206.680434" y="160.021738" style="fill: #ff0000; stroke: #ff0000"/>
     <use xlink:href="#ma42ab895e6" x="206.680434" y="160.021738" style="fill: #ff0000; stroke: #ff0000"/>
    </g>
   </g>
   <g id="line2d_55">
    <path d="M 27.323974 298.944 
L 27.323974 290.524469 
L 47.990577 290.524469 
L 47.990577 290.056717 
L 53.402323 290.056717 
L 53.402323 289.588966 
L 57.6 289.588966 
L 57.6 289.121214 
L 61.029752 289.121214 
L 61.029752 286.314703 
L 63.929565 286.314703 
L 63.929565 283.508193 
L 66.441498 283.508193 
L 66.441498 283.040441 
L 68.65718 283.040441 
L 68.65718 282.104938 
L 75.574654 282.104938 
L 75.574654 281.637186 
L 79.480672 281.637186 
L 79.480672 280.233931 
L 83.678349 280.233931 
L 83.678349 277.427421 
L 90.668036 277.427421 
L 90.668036 276.491917 
L 100.535156 276.491917 
L 100.535156 274.62091 
L 104.028784 274.62091 
L 104.028784 274.153159 
L 105.850679 274.153159 
L 105.850679 273.685407 
L 108.29012 273.685407 
L 108.29012 272.749903 
L 109.037698 272.749903 
L 109.037698 272.282152 
L 110.449226 272.282152 
L 110.449226 271.8144 
L 115.747307 271.8144 
L 115.747307 271.346648 
L 117.695068 271.346648 
L 117.695068 268.540138 
L 118.598196 268.540138 
L 118.598196 268.072386 
L 121.073351 268.072386 
L 121.073351 267.136883 
L 121.830966 267.136883 
L 121.830966 264.798124 
L 122.19863 264.798124 
L 122.19863 260.588359 
L 123.601383 260.588359 
L 123.601383 259.652855 
L 123.825333 259.652855 
L 123.936316 258.2496 
L 124.265389 258.2496 
L 124.265389 257.314097 
L 125.219419 257.314097 
L 125.219419 256.846345 
L 127.549596 256.846345 
L 127.640693 255.910841 
L 127.731351 255.910841 
L 127.731351 255.44309 
L 128.614685 255.44309 
L 128.614685 254.975338 
L 129.041269 254.975338 
L 129.041269 254.039834 
L 129.292652 254.039834 
L 129.292652 253.572083 
L 129.622688 253.572083 
L 129.622688 253.104331 
L 130.107132 253.104331 
L 130.107132 252.168828 
L 130.887807 252.168828 
L 130.887807 251.701076 
L 132.144842 251.701076 
L 132.144842 250.765572 
L 134.558167 250.765572 
L 134.558167 250.297821 
L 134.808158 250.297821 
L 134.808158 249.362317 
L 134.993495 249.362317 
L 134.993495 248.426814 
L 136.696795 248.426814 
L 136.696795 247.49131 
L 137.358854 247.49131 
L 137.358854 247.023559 
L 138.154948 247.023559 
L 138.154948 246.555807 
L 139.843661 246.555807 
L 139.93843 245.152552 
L 142.865233 245.152552 
L 142.865233 244.6848 
L 143.423243 244.6848 
L 143.423243 244.217048 
L 144.079302 244.217048 
L 144.079302 243.749297 
L 144.85936 243.749297 
L 144.85936 242.813793 
L 145.7477 242.813793 
L 145.782376 241.410538 
L 146.057504 241.410538 
L 146.057504 240.942786 
L 146.662213 240.942786 
L 146.662213 239.539531 
L 147.534321 239.539531 
L 147.534321 238.604028 
L 148.903591 238.604028 
L 148.903591 238.136276 
L 149.73597 238.136276 
L 149.73597 237.668524 
L 150.667154 237.668524 
L 150.72052 235.329766 
L 151.220087 235.329766 
L 151.220087 234.862014 
L 151.375128 234.862014 
L 151.400845 233.92651 
L 151.807597 233.92651 
L 151.807597 232.991007 
L 152.279463 232.991007 
L 152.279463 232.055503 
L 152.450367 232.055503 
L 152.450367 229.716745 
L 152.930279 229.716745 
L 152.930279 229.248993 
L 154.212341 229.248993 
L 154.300658 227.845738 
L 154.432362 227.845738 
L 154.432362 227.377986 
L 154.907535 227.377986 
L 154.907535 226.910234 
L 155.680579 226.910234 
L 155.680579 225.974731 
L 156.065535 225.974731 
L 156.065535 225.039228 
L 156.423104 225.039228 
L 156.423104 224.103724 
L 156.715973 224.103724 
L 156.715973 223.168221 
L 157.789059 223.168221 
L 157.789059 222.232717 
L 157.953034 222.232717 
L 157.953034 221.297214 
L 158.401163 221.297214 
L 158.401163 220.36171 
L 158.559911 220.36171 
L 158.559911 219.893959 
L 158.752135 219.893959 
L 158.752135 219.426207 
L 159.096679 219.426207 
L 159.096679 218.958455 
L 159.215793 218.958455 
L 159.215793 218.490703 
L 160.430923 218.490703 
L 160.430923 217.5552 
L 160.963953 217.5552 
L 160.963953 217.087448 
L 161.34647 217.087448 
L 161.391854 214.74869 
L 161.632069 214.74869 
L 161.632069 214.280938 
L 162.045202 214.280938 
L 162.045202 213.813186 
L 163.518345 213.813186 
L 163.518345 213.345434 
L 164.796406 213.345434 
L 164.796406 212.877683 
L 165.886348 212.877683 
L 165.886348 211.942179 
L 166.575579 211.942179 
L 166.667119 210.071172 
L 166.769573 210.071172 
L 166.769573 209.135669 
L 167.196106 209.135669 
L 167.196106 208.200166 
L 167.361848 208.200166 
L 167.361848 207.264662 
L 167.48247 207.264662 
L 167.48247 206.329159 
L 167.710623 206.329159 
L 167.710623 205.861407 
L 168.263944 205.861407 
L 168.347644 204.458152 
L 168.451748 204.458152 
L 168.451748 203.522648 
L 168.943582 203.522648 
L 168.943582 202.587145 
L 169.393282 202.587145 
L 169.393282 202.119393 
L 170.110183 202.119393 
L 170.110183 201.18389 
L 170.223906 201.18389 
L 170.223906 200.248386 
L 171.226568 200.248386 
L 171.324847 199.312883 
L 171.695443 199.312883 
L 171.695443 198.845131 
L 171.88669 198.845131 
L 171.96437 196.974124 
L 172.415427 196.974124 
L 172.415427 196.506372 
L 172.566188 196.506372 
L 172.566188 196.038621 
L 172.913335 196.038621 
L 172.913335 195.570869 
L 173.149347 195.570869 
L 173.205875 193.699862 
L 173.588983 193.699862 
L 173.644207 192.296607 
L 173.816719 192.296607 
L 173.832324 190.893352 
L 175.047856 190.893352 
L 175.047856 189.957848 
L 175.366826 189.957848 
L 175.366826 189.490097 
L 175.905348 189.490097 
L 175.905348 189.022345 
L 176.099928 189.022345 
L 176.196469 187.61909 
L 176.59796 187.61909 
L 176.645031 186.215834 
L 176.718763 186.215834 
L 176.718763 185.280331 
L 177.004244 185.280331 
L 177.089707 183.877076 
L 177.791399 183.877076 
L 177.791399 183.409324 
L 178.005027 183.409324 
L 178.048709 182.006069 
L 178.339408 182.006069 
L 178.4068 181.070566 
L 178.559072 181.070566 
L 178.559072 180.602814 
L 179.603279 180.602814 
L 179.603279 179.66731 
L 179.876741 179.66731 
L 179.893701 178.264055 
L 180.023223 178.264055 
L 180.118386 176.393048 
L 180.157432 176.393048 
L 180.157432 175.925297 
L 180.268546 175.925297 
L 180.268546 174.989793 
L 180.543493 174.989793 
L 180.543493 174.522041 
L 182.002973 174.522041 
L 182.008023 173.586538 
L 182.871656 173.586538 
L 182.871656 173.118786 
L 183.371423 173.118786 
L 183.42302 172.183283 
L 183.614096 172.183283 
L 183.614096 171.715531 
L 183.821604 171.715531 
L 183.821604 170.780028 
L 184.049515 170.780028 
L 184.07668 169.844524 
L 184.314946 169.844524 
L 184.314946 169.376772 
L 185.709351 169.376772 
L 185.709351 168.441269 
L 186.030151 168.441269 
L 186.030151 167.505766 
L 186.60444 167.505766 
L 186.683381 166.10251 
L 187.781145 166.10251 
L 187.781145 165.634759 
L 189.183987 165.634759 
L 189.183987 165.167007 
L 189.454464 165.167007 
L 189.454464 164.231503 
L 189.596694 164.231503 
L 189.690921 163.296 
L 190.846365 163.296 
L 190.846365 162.360497 
L 193.729485 162.360497 
L 193.729485 161.892745 
L 194.20284 161.892745 
L 194.20284 161.424993 
L 195.877036 161.424993 
L 195.877036 160.957241 
L 197.534179 160.957241 
L 197.534179 160.48949 
L 206.680434 160.48949 
L 206.680434 160.021738 
L 360.8064 160.021738 
L 360.8064 160.021738 
" style="fill: none; stroke: #ff0000; stroke-width: 1.5; stroke-linecap: square"/>
   </g>
   <g id="line2d_56">
    <defs>
     <path id="m65bd794831" d="M 0 -6 
L -5.196152 -3 
L -5.196152 3 
L -0 6 
L 5.196152 3 
L 5.196152 -3 
z
" style="stroke: #ff0000; stroke-width: 1.5; stroke-linejoin: miter"/>
    </defs>
    <g>
     <use xlink:href="#m65bd794831" x="129.292652" y="253.572083" style="fill-opacity: 0; stroke: #ff0000; stroke-width: 1.5; stroke-linejoin: miter"/>
     <use xlink:href="#m65bd794831" x="178.005027" y="182.473821" style="fill-opacity: 0; stroke: #ff0000; stroke-width: 1.5; stroke-linejoin: miter"/>
     <use xlink:href="#m65bd794831" x="206.680434" y="160.48949" style="fill-opacity: 0; stroke: #ff0000; stroke-width: 1.5; stroke-linejoin: miter"/>
     <use xlink:href="#m65bd794831" x="206.680434" y="160.021738" style="fill-opacity: 0; stroke: #ff0000; stroke-width: 1.5; stroke-linejoin: miter"/>
     <use xlink:href="#m65bd794831" x="206.680434" y="160.021738" style="fill-opacity: 0; stroke: #ff0000; stroke-width: 1.5; stroke-linejoin: miter"/>
     <use xlink:href="#m65bd794831" x="360.8064" y="160.021738" style="fill-opacity: 0; stroke: #ff0000; stroke-width: 1.5; stroke-linejoin: miter"/>
    </g>
   </g>
   <g id="line2d_57">
    <path style="fill: none; stroke: #ff0000; stroke-width: 1.5; stroke-linecap: square"/>
    <g/>
   </g>
   <g id="line2d_58">
    <path d="M 274.176188 160.021738 
" clip-path="url(#p84dab05d76)" style="fill: none; stroke: #ff0000; stroke-width: 1.5; stroke-linecap: square"/>
    <defs>
     <path id="mdf4c259e59" d="M -12 12 
L 12 -12 
M -12 -12 
L 12 12 
" style="stroke: #ff0000"/>
    </defs>
    <g clip-path="url(#p84dab05d76)">
     <use xlink:href="#mdf4c259e59" x="274.176188" y="160.021738" style="fill: #ff0000; stroke: #ff0000"/>
    </g>
   </g>
   <g id="line2d_59">
    <path d="M 360.8064 173.586538 
L 380.514816 293.51808 
" style="fill: none; stroke: #6495ed; stroke-width: 1.5; stroke-linecap: square"/>
    <g>
     <use xlink:href="#m165bb9f6c3" x="360.8064" y="173.586538" style="fill-opacity: 0; stroke: #6495ed; stroke-width: 1.5; stroke-linejoin: miter"/>
     <use xlink:href="#m165bb9f6c3" x="380.514816" y="293.51808" style="fill-opacity: 0; stroke: #6495ed; stroke-width: 1.5; stroke-linejoin: miter"/>
    </g>
   </g>
   <g id="line2d_60">
    <path d="M 360.8064 173.586538 
L 380.514816 241.429248 
" style="fill: none; stroke: #ff7500; stroke-width: 1.5; stroke-linecap: square"/>
    <g>
     <use xlink:href="#m4de205c732" x="360.8064" y="173.586538" style="fill-opacity: 0; stroke: #ff7500; stroke-width: 1.5; stroke-linejoin: bevel"/>
     <use xlink:href="#m4de205c732" x="380.514816" y="241.429248" style="fill-opacity: 0; stroke: #ff7500; stroke-width: 1.5; stroke-linejoin: bevel"/>
    </g>
   </g>
   <g id="line2d_61">
    <path d="M 360.8064 160.021738 
L 380.514816 189.340416 
" style="fill: none; stroke: #ff0000; stroke-width: 1.5; stroke-linecap: square"/>
    <g>
     <use xlink:href="#m65bd794831" x="360.8064" y="160.021738" style="fill-opacity: 0; stroke: #ff0000; stroke-width: 1.5; stroke-linejoin: miter"/>
     <use xlink:href="#m65bd794831" x="380.514816" y="189.340416" style="fill-opacity: 0; stroke: #ff0000; stroke-width: 1.5; stroke-linejoin: miter"/>
    </g>
   </g>
   <g id="line2d_62">
    <path d="M 360.8064 159.553986 
L 380.514816 137.251584 
" style="fill: none; stroke: #ff00ff; stroke-width: 1.5; stroke-linecap: square"/>
    <g>
     <use xlink:href="#m09c6c471d8" x="360.8064" y="159.553986" style="fill-opacity: 0; stroke: #ff00ff; stroke-width: 1.5; stroke-linejoin: miter"/>
     <use xlink:href="#m09c6c471d8" x="380.514816" y="137.251584" style="fill-opacity: 0; stroke: #ff00ff; stroke-width: 1.5; stroke-linejoin: miter"/>
    </g>
   </g>
   <g id="line2d_63">
    <path d="M 360.8064 147.392441 
L 380.514816 85.162752 
" style="fill: none; stroke: #000080; stroke-width: 1.5; stroke-linecap: square"/>
    <g>
     <use xlink:href="#ma44dc11fda" x="360.8064" y="147.392441" style="fill-opacity: 0; stroke: #000080; stroke-width: 1.5"/>
     <use xlink:href="#ma44dc11fda" x="380.514816" y="85.162752" style="fill-opacity: 0; stroke: #000080; stroke-width: 1.5"/>
    </g>
   </g>
   <g id="line2d_64">
    <path d="M 360.8064 298.944 
L 360.8064 27.648 
" style="fill: none; stroke: #000000; stroke-width: 1.5; stroke-linecap: square"/>
   </g>
   <g id="patch_3">
    <path d="M 57.6 298.944 
L 360.8064 298.944 
" style="fill: none; stroke: #000000; stroke-width: 0.8; stroke-linejoin: miter; stroke-linecap: square"/>
   </g>
   <g id="patch_4">
    <path d="M 57.6 27.648 
L 360.8064 27.648 
" style="fill: none; stroke: #000000; stroke-width: 0.8; stroke-linejoin: miter; stroke-linecap: square"/>
   </g>
   <g id="text_13">
    <!-- kerLQ -->
    <g transform="translate(386.578944 297.381205) scale(0.14 -0.14)">
     <defs>
      <path id="DejaVuSans-6b" d="M 581 4863 
L 1159 4863 
L 1159 1991 
L 2875 3500 
L 3609 3500 
L 1753 1863 
L 3688 0 
L 2938 0 
L 1159 1709 
L 1159 0 
L 581 0 
L 581 4863 
z
" transform="scale(0.015625)"/>
      <path id="DejaVuSans-4c" d="M 628 4666 
L 1259 4666 
L 1259 531 
L 3531 531 
L 3531 0 
L 628 0 
L 628 4666 
z
" transform="scale(0.015625)"/>
      <path id="DejaVuSans-51" d="M 2522 4238 
Q 1834 4238 1429 3725 
Q 1025 3213 1025 2328 
Q 1025 1447 1429 934 
Q 1834 422 2522 422 
Q 3209 422 3611 934 
Q 4013 1447 4013 2328 
Q 4013 3213 3611 3725 
Q 3209 4238 2522 4238 
z
M 3406 84 
L 4238 -825 
L 3475 -825 
L 2784 -78 
Q 2681 -84 2626 -87 
Q 2572 -91 2522 -91 
Q 1538 -91 948 567 
Q 359 1225 359 2328 
Q 359 3434 948 4092 
Q 1538 4750 2522 4750 
Q 3503 4750 4090 4092 
Q 4678 3434 4678 2328 
Q 4678 1516 4351 937 
Q 4025 359 3406 84 
z
" transform="scale(0.015625)"/>
     </defs>
     <use xlink:href="#DejaVuSans-6b"/>
     <use xlink:href="#DejaVuSans-65" x="54.285156"/>
     <use xlink:href="#DejaVuSans-72" x="115.808594"/>
     <use xlink:href="#DejaVuSans-4c" x="156.921875"/>
     <use xlink:href="#DejaVuSans-51" x="212.634766"/>
    </g>
   </g>
   <g id="text_14">
    <!-- kerComo -->
    <g transform="translate(386.578944 245.292373) scale(0.14 -0.14)">
     <defs>
      <path id="DejaVuSans-43" d="M 4122 4306 
L 4122 3641 
Q 3803 3938 3442 4084 
Q 3081 4231 2675 4231 
Q 1875 4231 1450 3742 
Q 1025 3253 1025 2328 
Q 1025 1406 1450 917 
Q 1875 428 2675 428 
Q 3081 428 3442 575 
Q 3803 722 4122 1019 
L 4122 359 
Q 3791 134 3420 21 
Q 3050 -91 2638 -91 
Q 1578 -91 968 557 
Q 359 1206 359 2328 
Q 359 3453 968 4101 
Q 1578 4750 2638 4750 
Q 3056 4750 3426 4639 
Q 3797 4528 4122 4306 
z
" transform="scale(0.015625)"/>
     </defs>
     <use xlink:href="#DejaVuSans-6b"/>
     <use xlink:href="#DejaVuSans-65" x="54.285156"/>
     <use xlink:href="#DejaVuSans-72" x="115.808594"/>
     <use xlink:href="#DejaVuSans-43" x="156.921875"/>
     <use xlink:href="#DejaVuSans-6f" x="226.746094"/>
     <use xlink:href="#DejaVuSans-6d" x="287.927734"/>
     <use xlink:href="#DejaVuSans-6f" x="385.339844"/>
    </g>
   </g>
   <g id="text_15">
    <!-- COMO-10 d -->
    <g transform="translate(386.578944 193.203541) scale(0.14 -0.14)">
     <defs>
      <path id="DejaVuSans-4f" d="M 2522 4238 
Q 1834 4238 1429 3725 
Q 1025 3213 1025 2328 
Q 1025 1447 1429 934 
Q 1834 422 2522 422 
Q 3209 422 3611 934 
Q 4013 1447 4013 2328 
Q 4013 3213 3611 3725 
Q 3209 4238 2522 4238 
z
M 2522 4750 
Q 3503 4750 4090 4092 
Q 4678 3434 4678 2328 
Q 4678 1225 4090 567 
Q 3503 -91 2522 -91 
Q 1538 -91 948 565 
Q 359 1222 359 2328 
Q 359 3434 948 4092 
Q 1538 4750 2522 4750 
z
" transform="scale(0.015625)"/>
      <path id="DejaVuSans-4d" d="M 628 4666 
L 1569 4666 
L 2759 1491 
L 3956 4666 
L 4897 4666 
L 4897 0 
L 4281 0 
L 4281 4097 
L 3078 897 
L 2444 897 
L 1241 4097 
L 1241 0 
L 628 0 
L 628 4666 
z
" transform="scale(0.015625)"/>
     </defs>
     <use xlink:href="#DejaVuSans-43"/>
     <use xlink:href="#DejaVuSans-4f" x="69.824219"/>
     <use xlink:href="#DejaVuSans-4d" x="148.535156"/>
     <use xlink:href="#DejaVuSans-4f" x="234.814453"/>
     <use xlink:href="#DejaVuSans-2d" x="316.275391"/>
     <use xlink:href="#DejaVuSans-31" x="352.359375"/>
     <use xlink:href="#DejaVuSans-30" x="415.982422"/>
     <use xlink:href="#DejaVuSans-20" x="479.605469"/>
     <use xlink:href="#DejaVuSans-64" x="511.392578"/>
    </g>
   </g>
   <g id="text_16">
    <!-- AllLQ -->
    <g transform="translate(386.578944 141.114709) scale(0.14 -0.14)">
     <defs>
      <path id="DejaVuSans-41" d="M 2188 4044 
L 1331 1722 
L 3047 1722 
L 2188 4044 
z
M 1831 4666 
L 2547 4666 
L 4325 0 
L 3669 0 
L 3244 1197 
L 1141 1197 
L 716 0 
L 50 0 
L 1831 4666 
z
" transform="scale(0.015625)"/>
     </defs>
     <use xlink:href="#DejaVuSans-41"/>
     <use xlink:href="#DejaVuSans-6c" x="68.408203"/>
     <use xlink:href="#DejaVuSans-6c" x="96.191406"/>
     <use xlink:href="#DejaVuSans-4c" x="123.974609"/>
     <use xlink:href="#DejaVuSans-51" x="179.6875"/>
    </g>
   </g>
   <g id="text_17">
    <!-- AllComo -->
    <g transform="translate(386.578944 89.025877) scale(0.14 -0.14)">
     <use xlink:href="#DejaVuSans-41"/>
     <use xlink:href="#DejaVuSans-6c" x="68.408203"/>
     <use xlink:href="#DejaVuSans-6c" x="96.191406"/>
     <use xlink:href="#DejaVuSans-43" x="123.974609"/>
     <use xlink:href="#DejaVuSans-6f" x="193.798828"/>
     <use xlink:href="#DejaVuSans-6d" x="254.980469"/>
     <use xlink:href="#DejaVuSans-6f" x="352.392578"/>
    </g>
   </g>
   <g id="text_18">
    <!-- best 2016 -->
    <g transform="translate(386.578944 36.937045) scale(0.14 -0.14)">
     <defs>
      <path id="DejaVuSans-62" d="M 3116 1747 
Q 3116 2381 2855 2742 
Q 2594 3103 2138 3103 
Q 1681 3103 1420 2742 
Q 1159 2381 1159 1747 
Q 1159 1113 1420 752 
Q 1681 391 2138 391 
Q 2594 391 2855 752 
Q 3116 1113 3116 1747 
z
M 1159 2969 
Q 1341 3281 1617 3432 
Q 1894 3584 2278 3584 
Q 2916 3584 3314 3078 
Q 3713 2572 3713 1747 
Q 3713 922 3314 415 
Q 2916 -91 2278 -91 
Q 1894 -91 1617 61 
Q 1341 213 1159 525 
L 1159 0 
L 581 0 
L 581 4863 
L 1159 4863 
L 1159 2969 
z
" transform="scale(0.015625)"/>
     </defs>
     <use xlink:href="#DejaVuSans-62"/>
     <use xlink:href="#DejaVuSans-65" x="63.476562"/>
     <use xlink:href="#DejaVuSans-73" x="125"/>
     <use xlink:href="#DejaVuSans-74" x="177.099609"/>
     <use xlink:href="#DejaVuSans-20" x="216.308594"/>
     <use xlink:href="#DejaVuSans-32" x="248.095703"/>
     <use xlink:href="#DejaVuSans-30" x="311.71875"/>
     <use xlink:href="#DejaVuSans-31" x="375.341797"/>
     <use xlink:href="#DejaVuSans-36" x="438.964844"/>
    </g>
   </g>
   <g id="text_19">
    <!-- bbob-biobj f20, 5-D -->
    <g transform="translate(60.632064 38.111366) scale(0.102 -0.102)">
     <defs>
      <path id="DejaVuSans-6a" d="M 603 3500 
L 1178 3500 
L 1178 -63 
Q 1178 -731 923 -1031 
Q 669 -1331 103 -1331 
L -116 -1331 
L -116 -844 
L 38 -844 
Q 366 -844 484 -692 
Q 603 -541 603 -63 
L 603 3500 
z
M 603 4863 
L 1178 4863 
L 1178 4134 
L 603 4134 
L 603 4863 
z
" transform="scale(0.015625)"/>
      <path id="DejaVuSans-35" d="M 691 4666 
L 3169 4666 
L 3169 4134 
L 1269 4134 
L 1269 2991 
Q 1406 3038 1543 3061 
Q 1681 3084 1819 3084 
Q 2600 3084 3056 2656 
Q 3513 2228 3513 1497 
Q 3513 744 3044 326 
Q 2575 -91 1722 -91 
Q 1428 -91 1123 -41 
Q 819 9 494 109 
L 494 744 
Q 775 591 1075 516 
Q 1375 441 1709 441 
Q 2250 441 2565 725 
Q 2881 1009 2881 1497 
Q 2881 1984 2565 2268 
Q 2250 2553 1709 2553 
Q 1456 2553 1204 2497 
Q 953 2441 691 2322 
L 691 4666 
z
" transform="scale(0.015625)"/>
      <path id="DejaVuSans-44" d="M 1259 4147 
L 1259 519 
L 2022 519 
Q 2988 519 3436 956 
Q 3884 1394 3884 2338 
Q 3884 3275 3436 3711 
Q 2988 4147 2022 4147 
L 1259 4147 
z
M 628 4666 
L 1925 4666 
Q 3281 4666 3915 4102 
Q 4550 3538 4550 2338 
Q 4550 1131 3912 565 
Q 3275 0 1925 0 
L 628 0 
L 628 4666 
z
" transform="scale(0.015625)"/>
     </defs>
     <use xlink:href="#DejaVuSans-62"/>
     <use xlink:href="#DejaVuSans-62" x="63.476562"/>
     <use xlink:href="#DejaVuSans-6f" x="126.953125"/>
     <use xlink:href="#DejaVuSans-62" x="188.134766"/>
     <use xlink:href="#DejaVuSans-2d" x="251.611328"/>
     <use xlink:href="#DejaVuSans-62" x="287.695312"/>
     <use xlink:href="#DejaVuSans-69" x="351.171875"/>
     <use xlink:href="#DejaVuSans-6f" x="378.955078"/>
     <use xlink:href="#DejaVuSans-62" x="440.136719"/>
     <use xlink:href="#DejaVuSans-6a" x="503.613281"/>
     <use xlink:href="#DejaVuSans-20" x="531.396484"/>
     <use xlink:href="#DejaVuSans-66" x="563.183594"/>
     <use xlink:href="#DejaVuSans-32" x="598.388672"/>
     <use xlink:href="#DejaVuSans-30" x="662.011719"/>
     <use xlink:href="#DejaVuSans-2c" x="725.634766"/>
     <use xlink:href="#DejaVuSans-20" x="757.421875"/>
     <use xlink:href="#DejaVuSans-35" x="789.208984"/>
     <use xlink:href="#DejaVuSans-2d" x="852.832031"/>
     <use xlink:href="#DejaVuSans-44" x="888.916016"/>
    </g>
    <!-- 58 targets: 1..-1.0e-4 -->
    <g transform="translate(60.632064 49.533135) scale(0.102 -0.102)">
     <defs>
      <path id="DejaVuSans-3a" d="M 750 794 
L 1409 794 
L 1409 0 
L 750 0 
L 750 794 
z
M 750 3309 
L 1409 3309 
L 1409 2516 
L 750 2516 
L 750 3309 
z
" transform="scale(0.015625)"/>
     </defs>
     <use xlink:href="#DejaVuSans-35"/>
     <use xlink:href="#DejaVuSans-38" x="63.623047"/>
     <use xlink:href="#DejaVuSans-20" x="127.246094"/>
     <use xlink:href="#DejaVuSans-74" x="159.033203"/>
     <use xlink:href="#DejaVuSans-61" x="198.242188"/>
     <use xlink:href="#DejaVuSans-72" x="259.521484"/>
     <use xlink:href="#DejaVuSans-67" x="298.884766"/>
     <use xlink:href="#DejaVuSans-65" x="362.361328"/>
     <use xlink:href="#DejaVuSans-74" x="423.884766"/>
     <use xlink:href="#DejaVuSans-73" x="463.09375"/>
     <use xlink:href="#DejaVuSans-3a" x="515.193359"/>
     <use xlink:href="#DejaVuSans-20" x="548.884766"/>
     <use xlink:href="#DejaVuSans-31" x="580.671875"/>
     <use xlink:href="#DejaVuSans-2e" x="644.294922"/>
     <use xlink:href="#DejaVuSans-2e" x="676.082031"/>
     <use xlink:href="#DejaVuSans-2d" x="707.869141"/>
     <use xlink:href="#DejaVuSans-31" x="743.953125"/>
     <use xlink:href="#DejaVuSans-2e" x="807.576172"/>
     <use xlink:href="#DejaVuSans-30" x="839.363281"/>
     <use xlink:href="#DejaVuSans-65" x="902.986328"/>
     <use xlink:href="#DejaVuSans-2d" x="964.509766"/>
     <use xlink:href="#DejaVuSans-34" x="1000.59375"/>
    </g>
    <!-- 10 instances -->
    <g transform="translate(60.632064 60.954904) scale(0.102 -0.102)">
     <use xlink:href="#DejaVuSans-31"/>
     <use xlink:href="#DejaVuSans-30" x="63.623047"/>
     <use xlink:href="#DejaVuSans-20" x="127.246094"/>
     <use xlink:href="#DejaVuSans-69" x="159.033203"/>
     <use xlink:href="#DejaVuSans-6e" x="186.816406"/>
     <use xlink:href="#DejaVuSans-73" x="250.195312"/>
     <use xlink:href="#DejaVuSans-74" x="302.294922"/>
     <use xlink:href="#DejaVuSans-61" x="341.503906"/>
     <use xlink:href="#DejaVuSans-6e" x="402.783203"/>
     <use xlink:href="#DejaVuSans-63" x="466.162109"/>
     <use xlink:href="#DejaVuSans-65" x="521.142578"/>
     <use xlink:href="#DejaVuSans-73" x="582.666016"/>
    </g>
   </g>
   <g id="text_20">
    <!-- v2.6, hv-hash=d240b271ab0b4926 -->
    <g style="fill: #808080" transform="translate(120.362575 294.151352) scale(0.1 -0.1)">
     <defs>
      <path id="DejaVuSans-68" d="M 3513 2113 
L 3513 0 
L 2938 0 
L 2938 2094 
Q 2938 2591 2744 2837 
Q 2550 3084 2163 3084 
Q 1697 3084 1428 2787 
Q 1159 2491 1159 1978 
L 1159 0 
L 581 0 
L 581 4863 
L 1159 4863 
L 1159 2956 
Q 1366 3272 1645 3428 
Q 1925 3584 2291 3584 
Q 2894 3584 3203 3211 
Q 3513 2838 3513 2113 
z
" transform="scale(0.015625)"/>
      <path id="DejaVuSans-3d" d="M 678 2906 
L 4684 2906 
L 4684 2381 
L 678 2381 
L 678 2906 
z
M 678 1631 
L 4684 1631 
L 4684 1100 
L 678 1100 
L 678 1631 
z
" transform="scale(0.015625)"/>
      <path id="DejaVuSans-37" d="M 525 4666 
L 3525 4666 
L 3525 4397 
L 1831 0 
L 1172 0 
L 2766 4134 
L 525 4134 
L 525 4666 
z
" transform="scale(0.015625)"/>
      <path id="DejaVuSans-39" d="M 703 97 
L 703 672 
Q 941 559 1184 500 
Q 1428 441 1663 441 
Q 2288 441 2617 861 
Q 2947 1281 2994 2138 
Q 2813 1869 2534 1725 
Q 2256 1581 1919 1581 
Q 1219 1581 811 2004 
Q 403 2428 403 3163 
Q 403 3881 828 4315 
Q 1253 4750 1959 4750 
Q 2769 4750 3195 4129 
Q 3622 3509 3622 2328 
Q 3622 1225 3098 567 
Q 2575 -91 1691 -91 
Q 1453 -91 1209 -44 
Q 966 3 703 97 
z
M 1959 2075 
Q 2384 2075 2632 2365 
Q 2881 2656 2881 3163 
Q 2881 3666 2632 3958 
Q 2384 4250 1959 4250 
Q 1534 4250 1286 3958 
Q 1038 3666 1038 3163 
Q 1038 2656 1286 2365 
Q 1534 2075 1959 2075 
z
" transform="scale(0.015625)"/>
     </defs>
     <use xlink:href="#DejaVuSans-76"/>
     <use xlink:href="#DejaVuSans-32" x="59.179688"/>
     <use xlink:href="#DejaVuSans-2e" x="122.802734"/>
     <use xlink:href="#DejaVuSans-36" x="154.589844"/>
     <use xlink:href="#DejaVuSans-2c" x="218.212891"/>
     <use xlink:href="#DejaVuSans-20" x="250"/>
     <use xlink:href="#DejaVuSans-68" x="281.787109"/>
     <use xlink:href="#DejaVuSans-76" x="345.166016"/>
     <use xlink:href="#DejaVuSans-2d" x="401.720703"/>
     <use xlink:href="#DejaVuSans-68" x="437.804688"/>
     <use xlink:href="#DejaVuSans-61" x="501.183594"/>
     <use xlink:href="#DejaVuSans-73" x="562.462891"/>
     <use xlink:href="#DejaVuSans-68" x="614.5625"/>
     <use xlink:href="#DejaVuSans-3d" x="677.941406"/>
     <use xlink:href="#DejaVuSans-64" x="761.730469"/>
     <use xlink:href="#DejaVuSans-32" x="825.207031"/>
     <use xlink:href="#DejaVuSans-34" x="888.830078"/>
     <use xlink:href="#DejaVuSans-30" x="952.453125"/>
     <use xlink:href="#DejaVuSans-62" x="1016.076172"/>
     <use xlink:href="#DejaVuSans-32" x="1079.552734"/>
     <use xlink:href="#DejaVuSans-37" x="1143.175781"/>
     <use xlink:href="#DejaVuSans-31" x="1206.798828"/>
     <use xlink:href="#DejaVuSans-61" x="1270.421875"/>
     <use xlink:href="#DejaVuSans-62" x="1331.701172"/>
     <use xlink:href="#DejaVuSans-30" x="1395.177734"/>
     <use xlink:href="#DejaVuSans-62" x="1458.800781"/>
     <use xlink:href="#DejaVuSans-34" x="1522.277344"/>
     <use xlink:href="#DejaVuSans-39" x="1585.900391"/>
     <use xlink:href="#DejaVuSans-32" x="1649.523438"/>
     <use xlink:href="#DejaVuSans-36" x="1713.146484"/>
    </g>
   </g>
   <g id="text_21">
    <!-- 20 Attr. sector/Attr. sector -->
    <g transform="translate(79.787575 21.648) scale(0.2 -0.2)">
     <use xlink:href="#DejaVuSans-32"/>
     <use xlink:href="#DejaVuSans-30" x="63.623047"/>
     <use xlink:href="#DejaVuSans-20" x="127.246094"/>
     <use xlink:href="#DejaVuSans-41" x="159.033203"/>
     <use xlink:href="#DejaVuSans-74" x="225.691406"/>
     <use xlink:href="#DejaVuSans-74" x="264.900391"/>
     <use xlink:href="#DejaVuSans-72" x="304.109375"/>
     <use xlink:href="#DejaVuSans-2e" x="336.097656"/>
     <use xlink:href="#DejaVuSans-20" x="367.884766"/>
     <use xlink:href="#DejaVuSans-73" x="399.671875"/>
     <use xlink:href="#DejaVuSans-65" x="451.771484"/>
     <use xlink:href="#DejaVuSans-63" x="513.294922"/>
     <use xlink:href="#DejaVuSans-74" x="568.275391"/>
     <use xlink:href="#DejaVuSans-6f" x="607.484375"/>
     <use xlink:href="#DejaVuSans-72" x="668.666016"/>
     <use xlink:href="#DejaVuSans-2f" x="709.779297"/>
     <use xlink:href="#DejaVuSans-41" x="743.470703"/>
     <use xlink:href="#DejaVuSans-74" x="810.128906"/>
     <use xlink:href="#DejaVuSans-74" x="849.337891"/>
     <use xlink:href="#DejaVuSans-72" x="888.546875"/>
     <use xlink:href="#DejaVuSans-2e" x="920.535156"/>
     <use xlink:href="#DejaVuSans-20" x="952.322266"/>
     <use xlink:href="#DejaVuSans-73" x="984.109375"/>
     <use xlink:href="#DejaVuSans-65" x="1036.208984"/>
     <use xlink:href="#DejaVuSans-63" x="1097.732422"/>
     <use xlink:href="#DejaVuSans-74" x="1152.712891"/>
     <use xlink:href="#DejaVuSans-6f" x="1191.921875"/>
     <use xlink:href="#DejaVuSans-72" x="1253.103516"/>
    </g>
   </g>
  </g>
 </g>
 <defs>
  <clipPath id="p84dab05d76">
   <rect x="57.6" y="27.648" width="303.2064" height="271.296"/>
  </clipPath>
 </defs>
</svg>
