<?xml version="1.0" encoding="utf-8" standalone="no"?>
<!DOCTYPE svg PUBLIC "-//W3C//DTD SVG 1.1//EN"
  "http://www.w3.org/Graphics/SVG/1.1/DTD/svg11.dtd">
<svg xmlns:xlink="http://www.w3.org/1999/xlink" width="460.8pt" height="345.6pt" viewBox="0 0 460.8 345.6" xmlns="http://www.w3.org/2000/svg" version="1.1">
 <metadata>
  <rdf:RDF xmlns:dc="http://purl.org/dc/elements/1.1/" xmlns:cc="http://creativecommons.org/ns#" xmlns:rdf="http://www.w3.org/1999/02/22-rdf-syntax-ns#">
   <cc:Work>
    <dc:type rdf:resource="http://purl.org/dc/dcmitype/StillImage"/>
    <dc:date>2023-02-10T02:07:49.197170</dc:date>
    <dc:format>image/svg+xml</dc:format>
    <dc:creator>
     <cc:Agent>
      <dc:title>Matplotlib v3.6.3, https://matplotlib.org/</dc:title>
     </cc:Agent>
    </dc:creator>
   </cc:Work>
  </rdf:RDF>
 </metadata>
 <defs>
  <style type="text/css">*{stroke-linejoin: round; stroke-linecap: butt}</style>
 </defs>
 <g id="figure_1">
  <g id="patch_1">
   <path d="M 0 345.6 
L 460.8 345.6 
L 460.8 0 
L 0 0 
z
" style="fill: #ffffff"/>
  </g>
  <g id="axes_1">
   <g id="patch_2">
    <path d="M 57.6 298.944 
L 360.8064 298.944 
L 360.8064 27.648 
L 57.6 27.648 
z
" style="fill: #ffffff"/>
   </g>
   <g id="line2d_1">
    <path d="M 27.323974 298.944 
L 27.323974 294.266483 
L 61.029752 294.266483 
L 61.029752 284.911448 
L 75.574654 284.911448 
L 75.574654 275.556414 
L 89.668958 275.556414 
L 89.668958 270.878897 
L 100.535156 270.878897 
L 100.535156 256.846345 
L 120.682786 256.846345 
L 120.682786 247.49131 
L 129.7043 247.49131 
L 129.7043 242.813793 
L 141.393187 242.813793 
L 141.393187 233.458759 
L 148.607806 233.458759 
L 148.607806 219.426207 
L 155.474761 219.426207 
L 155.474761 210.071172 
L 162.442313 210.071172 
L 162.442313 200.716138 
L 168.462127 200.716138 
L 168.462127 191.361103 
L 175.477915 191.361103 
L 175.477915 186.683586 
L 181.428529 186.683586 
L 181.428529 172.651034 
L 191.147005 172.651034 
L 191.147005 167.973517 
L 202.806308 167.973517 
L 202.806308 153.940966 
L 217.412766 153.940966 
L 217.412766 144.585931 
L 225.123701 144.585931 
L 225.123701 139.908414 
L 235.271566 139.908414 
L 235.271566 125.875862 
L 243.91436 125.875862 
L 243.91436 121.198345 
L 250.745233 121.198345 
L 250.745233 107.165793 
L 259.58803 107.165793 
L 259.58803 97.810759 
L 267.79808 97.810759 
L 267.79808 88.455724 
L 275.319117 88.455724 
L 275.319117 83.778207 
L 284.473494 83.778207 
L 284.473494 74.423172 
L 291.465832 74.423172 
L 291.465832 60.390621 
L 360.8064 60.390621 
" style="fill: none; stroke: #f5deb3; stroke-width: 4; stroke-linecap: square"/>
   </g>
   <g id="line2d_2">
    <defs>
     <path id="m388b5ada15" d="M -0 7.778175 
L 7.778175 0 
L 0 -7.778175 
L -7.778175 -0 
z
" style="stroke: #f5deb3; stroke-width: 1.5; stroke-linejoin: miter"/>
    </defs>
    <g>
     <use xlink:href="#m388b5ada15" x="75.574654" y="284.911448" style="fill: #f5deb3; stroke: #f5deb3; stroke-width: 1.5; stroke-linejoin: miter"/>
     <use xlink:href="#m388b5ada15" x="162.442313" y="210.071172" style="fill: #f5deb3; stroke: #f5deb3; stroke-width: 1.5; stroke-linejoin: miter"/>
     <use xlink:href="#m388b5ada15" x="217.412766" y="144.585931" style="fill: #f5deb3; stroke: #f5deb3; stroke-width: 1.5; stroke-linejoin: miter"/>
     <use xlink:href="#m388b5ada15" x="291.465832" y="74.423172" style="fill: #f5deb3; stroke: #f5deb3; stroke-width: 1.5; stroke-linejoin: miter"/>
     <use xlink:href="#m388b5ada15" x="291.465832" y="60.390621" style="fill: #f5deb3; stroke: #f5deb3; stroke-width: 1.5; stroke-linejoin: miter"/>
     <use xlink:href="#m388b5ada15" x="360.8064" y="60.390621" style="fill: #f5deb3; stroke: #f5deb3; stroke-width: 1.5; stroke-linejoin: miter"/>
    </g>
   </g>
   <g id="line2d_3">
    <path style="fill: none; stroke: #f5deb3; stroke-width: 4; stroke-linecap: square"/>
    <g/>
   </g>
   <g id="line2d_4">
    <path d="M 360.8064 60.390621 
L 380.514816 33.07392 
" style="fill: none; stroke: #f5deb3; stroke-width: 4; stroke-linecap: square"/>
    <g>
     <use xlink:href="#m388b5ada15" x="360.8064" y="60.390621" style="fill: #f5deb3; stroke: #f5deb3; stroke-width: 1.5; stroke-linejoin: miter"/>
     <use xlink:href="#m388b5ada15" x="380.514816" y="33.07392" style="fill: #f5deb3; stroke: #f5deb3; stroke-width: 1.5; stroke-linejoin: miter"/>
    </g>
   </g>
   <g id="matplotlib.axis_1">
    <g id="xtick_1">
     <g id="line2d_5">
      <path d="M 57.6 298.944 
L 57.6 27.648 
" clip-path="url(#peaa5e07f29)" style="fill: none; stroke: #b0b0b0; stroke-width: 0.8; stroke-linecap: square"/>
     </g>
     <g id="line2d_6">
      <defs>
       <path id="m27024c191b" d="M 0 0 
L 0 3.5 
" style="stroke: #000000; stroke-width: 0.8"/>
      </defs>
      <g>
       <use xlink:href="#m27024c191b" x="57.6" y="298.944" style="stroke: #000000; stroke-width: 0.8"/>
      </g>
     </g>
     <g id="text_1">
      <!-- 0 -->
      <g transform="translate(52.191875 318.861344) scale(0.17 -0.17)">
       <defs>
        <path id="DejaVuSans-30" d="M 2034 4250 
Q 1547 4250 1301 3770 
Q 1056 3291 1056 2328 
Q 1056 1369 1301 889 
Q 1547 409 2034 409 
Q 2525 409 2770 889 
Q 3016 1369 3016 2328 
Q 3016 3291 2770 3770 
Q 2525 4250 2034 4250 
z
M 2034 4750 
Q 2819 4750 3233 4129 
Q 3647 3509 3647 2328 
Q 3647 1150 3233 529 
Q 2819 -91 2034 -91 
Q 1250 -91 836 529 
Q 422 1150 422 2328 
Q 422 3509 836 4129 
Q 1250 4750 2034 4750 
z
" transform="scale(0.015625)"/>
       </defs>
       <use xlink:href="#DejaVuSans-30"/>
      </g>
     </g>
    </g>
    <g id="xtick_2">
     <g id="line2d_7">
      <path d="M 144.2304 298.944 
L 144.2304 27.648 
" clip-path="url(#peaa5e07f29)" style="fill: none; stroke: #b0b0b0; stroke-width: 0.8; stroke-linecap: square"/>
     </g>
     <g id="line2d_8">
      <g>
       <use xlink:href="#m27024c191b" x="144.2304" y="298.944" style="stroke: #000000; stroke-width: 0.8"/>
      </g>
     </g>
     <g id="text_2">
      <!-- 2 -->
      <g transform="translate(138.822275 318.861344) scale(0.17 -0.17)">
       <defs>
        <path id="DejaVuSans-32" d="M 1228 531 
L 3431 531 
L 3431 0 
L 469 0 
L 469 531 
Q 828 903 1448 1529 
Q 2069 2156 2228 2338 
Q 2531 2678 2651 2914 
Q 2772 3150 2772 3378 
Q 2772 3750 2511 3984 
Q 2250 4219 1831 4219 
Q 1534 4219 1204 4116 
Q 875 4013 500 3803 
L 500 4441 
Q 881 4594 1212 4672 
Q 1544 4750 1819 4750 
Q 2544 4750 2975 4387 
Q 3406 4025 3406 3419 
Q 3406 3131 3298 2873 
Q 3191 2616 2906 2266 
Q 2828 2175 2409 1742 
Q 1991 1309 1228 531 
z
" transform="scale(0.015625)"/>
       </defs>
       <use xlink:href="#DejaVuSans-32"/>
      </g>
     </g>
    </g>
    <g id="xtick_3">
     <g id="line2d_9">
      <path d="M 230.8608 298.944 
L 230.8608 27.648 
" clip-path="url(#peaa5e07f29)" style="fill: none; stroke: #b0b0b0; stroke-width: 0.8; stroke-linecap: square"/>
     </g>
     <g id="line2d_10">
      <g>
       <use xlink:href="#m27024c191b" x="230.8608" y="298.944" style="stroke: #000000; stroke-width: 0.8"/>
      </g>
     </g>
     <g id="text_3">
      <!-- 4 -->
      <g transform="translate(225.452675 318.861344) scale(0.17 -0.17)">
       <defs>
        <path id="DejaVuSans-34" d="M 2419 4116 
L 825 1625 
L 2419 1625 
L 2419 4116 
z
M 2253 4666 
L 3047 4666 
L 3047 1625 
L 3713 1625 
L 3713 1100 
L 3047 1100 
L 3047 0 
L 2419 0 
L 2419 1100 
L 313 1100 
L 313 1709 
L 2253 4666 
z
" transform="scale(0.015625)"/>
       </defs>
       <use xlink:href="#DejaVuSans-34"/>
      </g>
     </g>
    </g>
    <g id="xtick_4">
     <g id="line2d_11">
      <path d="M 317.4912 298.944 
L 317.4912 27.648 
" clip-path="url(#peaa5e07f29)" style="fill: none; stroke: #b0b0b0; stroke-width: 0.8; stroke-linecap: square"/>
     </g>
     <g id="line2d_12">
      <g>
       <use xlink:href="#m27024c191b" x="317.4912" y="298.944" style="stroke: #000000; stroke-width: 0.8"/>
      </g>
     </g>
     <g id="text_4">
      <!-- 6 -->
      <g transform="translate(312.083075 318.861344) scale(0.17 -0.17)">
       <defs>
        <path id="DejaVuSans-36" d="M 2113 2584 
Q 1688 2584 1439 2293 
Q 1191 2003 1191 1497 
Q 1191 994 1439 701 
Q 1688 409 2113 409 
Q 2538 409 2786 701 
Q 3034 994 3034 1497 
Q 3034 2003 2786 2293 
Q 2538 2584 2113 2584 
z
M 3366 4563 
L 3366 3988 
Q 3128 4100 2886 4159 
Q 2644 4219 2406 4219 
Q 1781 4219 1451 3797 
Q 1122 3375 1075 2522 
Q 1259 2794 1537 2939 
Q 1816 3084 2150 3084 
Q 2853 3084 3261 2657 
Q 3669 2231 3669 1497 
Q 3669 778 3244 343 
Q 2819 -91 2113 -91 
Q 1303 -91 875 529 
Q 447 1150 447 2328 
Q 447 3434 972 4092 
Q 1497 4750 2381 4750 
Q 2619 4750 2861 4703 
Q 3103 4656 3366 4563 
z
" transform="scale(0.015625)"/>
       </defs>
       <use xlink:href="#DejaVuSans-36"/>
      </g>
     </g>
    </g>
    <g id="xtick_5">
     <g id="line2d_13">
      <path d="M 100.9152 298.944 
L 100.9152 27.648 
" clip-path="url(#peaa5e07f29)" style="fill: none; stroke: #b0b0b0; stroke-width: 0.8; stroke-linecap: square"/>
     </g>
     <g id="line2d_14">
      <defs>
       <path id="m6ce8315e1f" d="M 0 0 
L 0 2 
" style="stroke: #000000; stroke-width: 0.6"/>
      </defs>
      <g>
       <use xlink:href="#m6ce8315e1f" x="100.9152" y="298.944" style="stroke: #000000; stroke-width: 0.6"/>
      </g>
     </g>
    </g>
    <g id="xtick_6">
     <g id="line2d_15">
      <path d="M 187.5456 298.944 
L 187.5456 27.648 
" clip-path="url(#peaa5e07f29)" style="fill: none; stroke: #b0b0b0; stroke-width: 0.8; stroke-linecap: square"/>
     </g>
     <g id="line2d_16">
      <g>
       <use xlink:href="#m6ce8315e1f" x="187.5456" y="298.944" style="stroke: #000000; stroke-width: 0.6"/>
      </g>
     </g>
    </g>
    <g id="xtick_7">
     <g id="line2d_17">
      <path d="M 274.176 298.944 
L 274.176 27.648 
" clip-path="url(#peaa5e07f29)" style="fill: none; stroke: #b0b0b0; stroke-width: 0.8; stroke-linecap: square"/>
     </g>
     <g id="line2d_18">
      <g>
       <use xlink:href="#m6ce8315e1f" x="274.176" y="298.944" style="stroke: #000000; stroke-width: 0.6"/>
      </g>
     </g>
    </g>
    <g id="xtick_8">
     <g id="line2d_19">
      <path d="M 360.8064 298.944 
L 360.8064 27.648 
" clip-path="url(#peaa5e07f29)" style="fill: none; stroke: #b0b0b0; stroke-width: 0.8; stroke-linecap: square"/>
     </g>
     <g id="line2d_20">
      <g>
       <use xlink:href="#m6ce8315e1f" x="360.8064" y="298.944" style="stroke: #000000; stroke-width: 0.6"/>
      </g>
     </g>
    </g>
    <g id="text_5">
     <!-- log10(# f-evals / dimension) -->
     <g transform="translate(88.823278 339.314156) scale(0.17 -0.17)">
      <defs>
       <path id="DejaVuSans-6c" d="M 603 4863 
L 1178 4863 
L 1178 0 
L 603 0 
L 603 4863 
z
" transform="scale(0.015625)"/>
       <path id="DejaVuSans-6f" d="M 1959 3097 
Q 1497 3097 1228 2736 
Q 959 2375 959 1747 
Q 959 1119 1226 758 
Q 1494 397 1959 397 
Q 2419 397 2687 759 
Q 2956 1122 2956 1747 
Q 2956 2369 2687 2733 
Q 2419 3097 1959 3097 
z
M 1959 3584 
Q 2709 3584 3137 3096 
Q 3566 2609 3566 1747 
Q 3566 888 3137 398 
Q 2709 -91 1959 -91 
Q 1206 -91 779 398 
Q 353 888 353 1747 
Q 353 2609 779 3096 
Q 1206 3584 1959 3584 
z
" transform="scale(0.015625)"/>
       <path id="DejaVuSans-67" d="M 2906 1791 
Q 2906 2416 2648 2759 
Q 2391 3103 1925 3103 
Q 1463 3103 1205 2759 
Q 947 2416 947 1791 
Q 947 1169 1205 825 
Q 1463 481 1925 481 
Q 2391 481 2648 825 
Q 2906 1169 2906 1791 
z
M 3481 434 
Q 3481 -459 3084 -895 
Q 2688 -1331 1869 -1331 
Q 1566 -1331 1297 -1286 
Q 1028 -1241 775 -1147 
L 775 -588 
Q 1028 -725 1275 -790 
Q 1522 -856 1778 -856 
Q 2344 -856 2625 -561 
Q 2906 -266 2906 331 
L 2906 616 
Q 2728 306 2450 153 
Q 2172 0 1784 0 
Q 1141 0 747 490 
Q 353 981 353 1791 
Q 353 2603 747 3093 
Q 1141 3584 1784 3584 
Q 2172 3584 2450 3431 
Q 2728 3278 2906 2969 
L 2906 3500 
L 3481 3500 
L 3481 434 
z
" transform="scale(0.015625)"/>
       <path id="DejaVuSans-31" d="M 794 531 
L 1825 531 
L 1825 4091 
L 703 3866 
L 703 4441 
L 1819 4666 
L 2450 4666 
L 2450 531 
L 3481 531 
L 3481 0 
L 794 0 
L 794 531 
z
" transform="scale(0.015625)"/>
       <path id="DejaVuSans-28" d="M 1984 4856 
Q 1566 4138 1362 3434 
Q 1159 2731 1159 2009 
Q 1159 1288 1364 580 
Q 1569 -128 1984 -844 
L 1484 -844 
Q 1016 -109 783 600 
Q 550 1309 550 2009 
Q 550 2706 781 3412 
Q 1013 4119 1484 4856 
L 1984 4856 
z
" transform="scale(0.015625)"/>
       <path id="DejaVuSans-23" d="M 3272 2816 
L 2363 2816 
L 2100 1772 
L 3016 1772 
L 3272 2816 
z
M 2803 4594 
L 2478 3297 
L 3391 3297 
L 3719 4594 
L 4219 4594 
L 3897 3297 
L 4872 3297 
L 4872 2816 
L 3775 2816 
L 3519 1772 
L 4513 1772 
L 4513 1294 
L 3397 1294 
L 3072 0 
L 2572 0 
L 2894 1294 
L 1978 1294 
L 1656 0 
L 1153 0 
L 1478 1294 
L 494 1294 
L 494 1772 
L 1594 1772 
L 1856 2816 
L 850 2816 
L 850 3297 
L 1978 3297 
L 2297 4594 
L 2803 4594 
z
" transform="scale(0.015625)"/>
       <path id="DejaVuSans-20" transform="scale(0.015625)"/>
       <path id="DejaVuSans-66" d="M 2375 4863 
L 2375 4384 
L 1825 4384 
Q 1516 4384 1395 4259 
Q 1275 4134 1275 3809 
L 1275 3500 
L 2222 3500 
L 2222 3053 
L 1275 3053 
L 1275 0 
L 697 0 
L 697 3053 
L 147 3053 
L 147 3500 
L 697 3500 
L 697 3744 
Q 697 4328 969 4595 
Q 1241 4863 1831 4863 
L 2375 4863 
z
" transform="scale(0.015625)"/>
       <path id="DejaVuSans-2d" d="M 313 2009 
L 1997 2009 
L 1997 1497 
L 313 1497 
L 313 2009 
z
" transform="scale(0.015625)"/>
       <path id="DejaVuSans-65" d="M 3597 1894 
L 3597 1613 
L 953 1613 
Q 991 1019 1311 708 
Q 1631 397 2203 397 
Q 2534 397 2845 478 
Q 3156 559 3463 722 
L 3463 178 
Q 3153 47 2828 -22 
Q 2503 -91 2169 -91 
Q 1331 -91 842 396 
Q 353 884 353 1716 
Q 353 2575 817 3079 
Q 1281 3584 2069 3584 
Q 2775 3584 3186 3129 
Q 3597 2675 3597 1894 
z
M 3022 2063 
Q 3016 2534 2758 2815 
Q 2500 3097 2075 3097 
Q 1594 3097 1305 2825 
Q 1016 2553 972 2059 
L 3022 2063 
z
" transform="scale(0.015625)"/>
       <path id="DejaVuSans-76" d="M 191 3500 
L 800 3500 
L 1894 563 
L 2988 3500 
L 3597 3500 
L 2284 0 
L 1503 0 
L 191 3500 
z
" transform="scale(0.015625)"/>
       <path id="DejaVuSans-61" d="M 2194 1759 
Q 1497 1759 1228 1600 
Q 959 1441 959 1056 
Q 959 750 1161 570 
Q 1363 391 1709 391 
Q 2188 391 2477 730 
Q 2766 1069 2766 1631 
L 2766 1759 
L 2194 1759 
z
M 3341 1997 
L 3341 0 
L 2766 0 
L 2766 531 
Q 2569 213 2275 61 
Q 1981 -91 1556 -91 
Q 1019 -91 701 211 
Q 384 513 384 1019 
Q 384 1609 779 1909 
Q 1175 2209 1959 2209 
L 2766 2209 
L 2766 2266 
Q 2766 2663 2505 2880 
Q 2244 3097 1772 3097 
Q 1472 3097 1187 3025 
Q 903 2953 641 2809 
L 641 3341 
Q 956 3463 1253 3523 
Q 1550 3584 1831 3584 
Q 2591 3584 2966 3190 
Q 3341 2797 3341 1997 
z
" transform="scale(0.015625)"/>
       <path id="DejaVuSans-73" d="M 2834 3397 
L 2834 2853 
Q 2591 2978 2328 3040 
Q 2066 3103 1784 3103 
Q 1356 3103 1142 2972 
Q 928 2841 928 2578 
Q 928 2378 1081 2264 
Q 1234 2150 1697 2047 
L 1894 2003 
Q 2506 1872 2764 1633 
Q 3022 1394 3022 966 
Q 3022 478 2636 193 
Q 2250 -91 1575 -91 
Q 1294 -91 989 -36 
Q 684 19 347 128 
L 347 722 
Q 666 556 975 473 
Q 1284 391 1588 391 
Q 1994 391 2212 530 
Q 2431 669 2431 922 
Q 2431 1156 2273 1281 
Q 2116 1406 1581 1522 
L 1381 1569 
Q 847 1681 609 1914 
Q 372 2147 372 2553 
Q 372 3047 722 3315 
Q 1072 3584 1716 3584 
Q 2034 3584 2315 3537 
Q 2597 3491 2834 3397 
z
" transform="scale(0.015625)"/>
       <path id="DejaVuSans-2f" d="M 1625 4666 
L 2156 4666 
L 531 -594 
L 0 -594 
L 1625 4666 
z
" transform="scale(0.015625)"/>
       <path id="DejaVuSans-64" d="M 2906 2969 
L 2906 4863 
L 3481 4863 
L 3481 0 
L 2906 0 
L 2906 525 
Q 2725 213 2448 61 
Q 2172 -91 1784 -91 
Q 1150 -91 751 415 
Q 353 922 353 1747 
Q 353 2572 751 3078 
Q 1150 3584 1784 3584 
Q 2172 3584 2448 3432 
Q 2725 3281 2906 2969 
z
M 947 1747 
Q 947 1113 1208 752 
Q 1469 391 1925 391 
Q 2381 391 2643 752 
Q 2906 1113 2906 1747 
Q 2906 2381 2643 2742 
Q 2381 3103 1925 3103 
Q 1469 3103 1208 2742 
Q 947 2381 947 1747 
z
" transform="scale(0.015625)"/>
       <path id="DejaVuSans-69" d="M 603 3500 
L 1178 3500 
L 1178 0 
L 603 0 
L 603 3500 
z
M 603 4863 
L 1178 4863 
L 1178 4134 
L 603 4134 
L 603 4863 
z
" transform="scale(0.015625)"/>
       <path id="DejaVuSans-6d" d="M 3328 2828 
Q 3544 3216 3844 3400 
Q 4144 3584 4550 3584 
Q 5097 3584 5394 3201 
Q 5691 2819 5691 2113 
L 5691 0 
L 5113 0 
L 5113 2094 
Q 5113 2597 4934 2840 
Q 4756 3084 4391 3084 
Q 3944 3084 3684 2787 
Q 3425 2491 3425 1978 
L 3425 0 
L 2847 0 
L 2847 2094 
Q 2847 2600 2669 2842 
Q 2491 3084 2119 3084 
Q 1678 3084 1418 2786 
Q 1159 2488 1159 1978 
L 1159 0 
L 581 0 
L 581 3500 
L 1159 3500 
L 1159 2956 
Q 1356 3278 1631 3431 
Q 1906 3584 2284 3584 
Q 2666 3584 2933 3390 
Q 3200 3197 3328 2828 
z
" transform="scale(0.015625)"/>
       <path id="DejaVuSans-6e" d="M 3513 2113 
L 3513 0 
L 2938 0 
L 2938 2094 
Q 2938 2591 2744 2837 
Q 2550 3084 2163 3084 
Q 1697 3084 1428 2787 
Q 1159 2491 1159 1978 
L 1159 0 
L 581 0 
L 581 3500 
L 1159 3500 
L 1159 2956 
Q 1366 3272 1645 3428 
Q 1925 3584 2291 3584 
Q 2894 3584 3203 3211 
Q 3513 2838 3513 2113 
z
" transform="scale(0.015625)"/>
       <path id="DejaVuSans-29" d="M 513 4856 
L 1013 4856 
Q 1481 4119 1714 3412 
Q 1947 2706 1947 2009 
Q 1947 1309 1714 600 
Q 1481 -109 1013 -844 
L 513 -844 
Q 928 -128 1133 580 
Q 1338 1288 1338 2009 
Q 1338 2731 1133 3434 
Q 928 4138 513 4856 
z
" transform="scale(0.015625)"/>
      </defs>
      <use xlink:href="#DejaVuSans-6c"/>
      <use xlink:href="#DejaVuSans-6f" x="27.783203"/>
      <use xlink:href="#DejaVuSans-67" x="88.964844"/>
      <use xlink:href="#DejaVuSans-31" x="152.441406"/>
      <use xlink:href="#DejaVuSans-30" x="216.064453"/>
      <use xlink:href="#DejaVuSans-28" x="279.6875"/>
      <use xlink:href="#DejaVuSans-23" x="318.701172"/>
      <use xlink:href="#DejaVuSans-20" x="402.490234"/>
      <use xlink:href="#DejaVuSans-66" x="434.277344"/>
      <use xlink:href="#DejaVuSans-2d" x="463.982422"/>
      <use xlink:href="#DejaVuSans-65" x="500.066406"/>
      <use xlink:href="#DejaVuSans-76" x="561.589844"/>
      <use xlink:href="#DejaVuSans-61" x="620.769531"/>
      <use xlink:href="#DejaVuSans-6c" x="682.048828"/>
      <use xlink:href="#DejaVuSans-73" x="709.832031"/>
      <use xlink:href="#DejaVuSans-20" x="761.931641"/>
      <use xlink:href="#DejaVuSans-2f" x="793.71875"/>
      <use xlink:href="#DejaVuSans-20" x="827.410156"/>
      <use xlink:href="#DejaVuSans-64" x="859.197266"/>
      <use xlink:href="#DejaVuSans-69" x="922.673828"/>
      <use xlink:href="#DejaVuSans-6d" x="950.457031"/>
      <use xlink:href="#DejaVuSans-65" x="1047.869141"/>
      <use xlink:href="#DejaVuSans-6e" x="1109.392578"/>
      <use xlink:href="#DejaVuSans-73" x="1172.771484"/>
      <use xlink:href="#DejaVuSans-69" x="1224.871094"/>
      <use xlink:href="#DejaVuSans-6f" x="1252.654297"/>
      <use xlink:href="#DejaVuSans-6e" x="1313.835938"/>
      <use xlink:href="#DejaVuSans-29" x="1377.214844"/>
     </g>
    </g>
   </g>
   <g id="matplotlib.axis_2">
    <g id="ytick_1">
     <g id="line2d_21">
      <path d="M 57.6 298.944 
L 360.8064 298.944 
" clip-path="url(#peaa5e07f29)" style="fill: none; stroke: #b0b0b0; stroke-width: 0.8; stroke-linecap: square"/>
     </g>
     <g id="line2d_22">
      <defs>
       <path id="m5f00a3d684" d="M 0 0 
L -3.5 0 
" style="stroke: #000000; stroke-width: 0.8"/>
      </defs>
      <g>
       <use xlink:href="#m5f00a3d684" x="57.6" y="298.944" style="stroke: #000000; stroke-width: 0.8"/>
      </g>
     </g>
     <g id="text_6">
      <!-- 0.0 -->
      <g transform="translate(25.155 305.02275) scale(0.16 -0.16)">
       <defs>
        <path id="DejaVuSans-2e" d="M 684 794 
L 1344 794 
L 1344 0 
L 684 0 
L 684 794 
z
" transform="scale(0.015625)"/>
       </defs>
       <use xlink:href="#DejaVuSans-30"/>
       <use xlink:href="#DejaVuSans-2e" x="63.623047"/>
       <use xlink:href="#DejaVuSans-30" x="95.410156"/>
      </g>
     </g>
    </g>
    <g id="ytick_2">
     <g id="line2d_23">
      <path d="M 57.6 244.6848 
L 360.8064 244.6848 
" clip-path="url(#peaa5e07f29)" style="fill: none; stroke: #b0b0b0; stroke-width: 0.8; stroke-linecap: square"/>
     </g>
     <g id="line2d_24">
      <g>
       <use xlink:href="#m5f00a3d684" x="57.6" y="244.6848" style="stroke: #000000; stroke-width: 0.8"/>
      </g>
     </g>
     <g id="text_7">
      <!-- 0.2 -->
      <g transform="translate(25.155 250.76355) scale(0.16 -0.16)">
       <use xlink:href="#DejaVuSans-30"/>
       <use xlink:href="#DejaVuSans-2e" x="63.623047"/>
       <use xlink:href="#DejaVuSans-32" x="95.410156"/>
      </g>
     </g>
    </g>
    <g id="ytick_3">
     <g id="line2d_25">
      <path d="M 57.6 190.4256 
L 360.8064 190.4256 
" clip-path="url(#peaa5e07f29)" style="fill: none; stroke: #b0b0b0; stroke-width: 0.8; stroke-linecap: square"/>
     </g>
     <g id="line2d_26">
      <g>
       <use xlink:href="#m5f00a3d684" x="57.6" y="190.4256" style="stroke: #000000; stroke-width: 0.8"/>
      </g>
     </g>
     <g id="text_8">
      <!-- 0.4 -->
      <g transform="translate(25.155 196.50435) scale(0.16 -0.16)">
       <use xlink:href="#DejaVuSans-30"/>
       <use xlink:href="#DejaVuSans-2e" x="63.623047"/>
       <use xlink:href="#DejaVuSans-34" x="95.410156"/>
      </g>
     </g>
    </g>
    <g id="ytick_4">
     <g id="line2d_27">
      <path d="M 57.6 136.1664 
L 360.8064 136.1664 
" clip-path="url(#peaa5e07f29)" style="fill: none; stroke: #b0b0b0; stroke-width: 0.8; stroke-linecap: square"/>
     </g>
     <g id="line2d_28">
      <g>
       <use xlink:href="#m5f00a3d684" x="57.6" y="136.1664" style="stroke: #000000; stroke-width: 0.8"/>
      </g>
     </g>
     <g id="text_9">
      <!-- 0.6 -->
      <g transform="translate(25.155 142.24515) scale(0.16 -0.16)">
       <use xlink:href="#DejaVuSans-30"/>
       <use xlink:href="#DejaVuSans-2e" x="63.623047"/>
       <use xlink:href="#DejaVuSans-36" x="95.410156"/>
      </g>
     </g>
    </g>
    <g id="ytick_5">
     <g id="line2d_29">
      <path d="M 57.6 81.9072 
L 360.8064 81.9072 
" clip-path="url(#peaa5e07f29)" style="fill: none; stroke: #b0b0b0; stroke-width: 0.8; stroke-linecap: square"/>
     </g>
     <g id="line2d_30">
      <g>
       <use xlink:href="#m5f00a3d684" x="57.6" y="81.9072" style="stroke: #000000; stroke-width: 0.8"/>
      </g>
     </g>
     <g id="text_10">
      <!-- 0.8 -->
      <g transform="translate(25.155 87.98595) scale(0.16 -0.16)">
       <defs>
        <path id="DejaVuSans-38" d="M 2034 2216 
Q 1584 2216 1326 1975 
Q 1069 1734 1069 1313 
Q 1069 891 1326 650 
Q 1584 409 2034 409 
Q 2484 409 2743 651 
Q 3003 894 3003 1313 
Q 3003 1734 2745 1975 
Q 2488 2216 2034 2216 
z
M 1403 2484 
Q 997 2584 770 2862 
Q 544 3141 544 3541 
Q 544 4100 942 4425 
Q 1341 4750 2034 4750 
Q 2731 4750 3128 4425 
Q 3525 4100 3525 3541 
Q 3525 3141 3298 2862 
Q 3072 2584 2669 2484 
Q 3125 2378 3379 2068 
Q 3634 1759 3634 1313 
Q 3634 634 3220 271 
Q 2806 -91 2034 -91 
Q 1263 -91 848 271 
Q 434 634 434 1313 
Q 434 1759 690 2068 
Q 947 2378 1403 2484 
z
M 1172 3481 
Q 1172 3119 1398 2916 
Q 1625 2713 2034 2713 
Q 2441 2713 2670 2916 
Q 2900 3119 2900 3481 
Q 2900 3844 2670 4047 
Q 2441 4250 2034 4250 
Q 1625 4250 1398 4047 
Q 1172 3844 1172 3481 
z
" transform="scale(0.015625)"/>
       </defs>
       <use xlink:href="#DejaVuSans-30"/>
       <use xlink:href="#DejaVuSans-2e" x="63.623047"/>
       <use xlink:href="#DejaVuSans-38" x="95.410156"/>
      </g>
     </g>
    </g>
    <g id="ytick_6">
     <g id="line2d_31">
      <path d="M 57.6 27.648 
L 360.8064 27.648 
" clip-path="url(#peaa5e07f29)" style="fill: none; stroke: #b0b0b0; stroke-width: 0.8; stroke-linecap: square"/>
     </g>
     <g id="line2d_32">
      <g>
       <use xlink:href="#m5f00a3d684" x="57.6" y="27.648" style="stroke: #000000; stroke-width: 0.8"/>
      </g>
     </g>
     <g id="text_11">
      <!-- 1.0 -->
      <g transform="translate(25.155 33.72675) scale(0.16 -0.16)">
       <use xlink:href="#DejaVuSans-31"/>
       <use xlink:href="#DejaVuSans-2e" x="63.623047"/>
       <use xlink:href="#DejaVuSans-30" x="95.410156"/>
      </g>
     </g>
    </g>
    <g id="text_12">
     <!-- Fraction of function,target pairs -->
     <g transform="translate(17.619531 297.681) rotate(-90) scale(0.17 -0.17)">
      <defs>
       <path id="DejaVuSans-46" d="M 628 4666 
L 3309 4666 
L 3309 4134 
L 1259 4134 
L 1259 2759 
L 3109 2759 
L 3109 2228 
L 1259 2228 
L 1259 0 
L 628 0 
L 628 4666 
z
" transform="scale(0.015625)"/>
       <path id="DejaVuSans-72" d="M 2631 2963 
Q 2534 3019 2420 3045 
Q 2306 3072 2169 3072 
Q 1681 3072 1420 2755 
Q 1159 2438 1159 1844 
L 1159 0 
L 581 0 
L 581 3500 
L 1159 3500 
L 1159 2956 
Q 1341 3275 1631 3429 
Q 1922 3584 2338 3584 
Q 2397 3584 2469 3576 
Q 2541 3569 2628 3553 
L 2631 2963 
z
" transform="scale(0.015625)"/>
       <path id="DejaVuSans-63" d="M 3122 3366 
L 3122 2828 
Q 2878 2963 2633 3030 
Q 2388 3097 2138 3097 
Q 1578 3097 1268 2742 
Q 959 2388 959 1747 
Q 959 1106 1268 751 
Q 1578 397 2138 397 
Q 2388 397 2633 464 
Q 2878 531 3122 666 
L 3122 134 
Q 2881 22 2623 -34 
Q 2366 -91 2075 -91 
Q 1284 -91 818 406 
Q 353 903 353 1747 
Q 353 2603 823 3093 
Q 1294 3584 2113 3584 
Q 2378 3584 2631 3529 
Q 2884 3475 3122 3366 
z
" transform="scale(0.015625)"/>
       <path id="DejaVuSans-74" d="M 1172 4494 
L 1172 3500 
L 2356 3500 
L 2356 3053 
L 1172 3053 
L 1172 1153 
Q 1172 725 1289 603 
Q 1406 481 1766 481 
L 2356 481 
L 2356 0 
L 1766 0 
Q 1100 0 847 248 
Q 594 497 594 1153 
L 594 3053 
L 172 3053 
L 172 3500 
L 594 3500 
L 594 4494 
L 1172 4494 
z
" transform="scale(0.015625)"/>
       <path id="DejaVuSans-75" d="M 544 1381 
L 544 3500 
L 1119 3500 
L 1119 1403 
Q 1119 906 1312 657 
Q 1506 409 1894 409 
Q 2359 409 2629 706 
Q 2900 1003 2900 1516 
L 2900 3500 
L 3475 3500 
L 3475 0 
L 2900 0 
L 2900 538 
Q 2691 219 2414 64 
Q 2138 -91 1772 -91 
Q 1169 -91 856 284 
Q 544 659 544 1381 
z
M 1991 3584 
L 1991 3584 
z
" transform="scale(0.015625)"/>
       <path id="DejaVuSans-2c" d="M 750 794 
L 1409 794 
L 1409 256 
L 897 -744 
L 494 -744 
L 750 256 
L 750 794 
z
" transform="scale(0.015625)"/>
       <path id="DejaVuSans-70" d="M 1159 525 
L 1159 -1331 
L 581 -1331 
L 581 3500 
L 1159 3500 
L 1159 2969 
Q 1341 3281 1617 3432 
Q 1894 3584 2278 3584 
Q 2916 3584 3314 3078 
Q 3713 2572 3713 1747 
Q 3713 922 3314 415 
Q 2916 -91 2278 -91 
Q 1894 -91 1617 61 
Q 1341 213 1159 525 
z
M 3116 1747 
Q 3116 2381 2855 2742 
Q 2594 3103 2138 3103 
Q 1681 3103 1420 2742 
Q 1159 2381 1159 1747 
Q 1159 1113 1420 752 
Q 1681 391 2138 391 
Q 2594 391 2855 752 
Q 3116 1113 3116 1747 
z
" transform="scale(0.015625)"/>
      </defs>
      <use xlink:href="#DejaVuSans-46"/>
      <use xlink:href="#DejaVuSans-72" x="50.269531"/>
      <use xlink:href="#DejaVuSans-61" x="91.382812"/>
      <use xlink:href="#DejaVuSans-63" x="152.662109"/>
      <use xlink:href="#DejaVuSans-74" x="207.642578"/>
      <use xlink:href="#DejaVuSans-69" x="246.851562"/>
      <use xlink:href="#DejaVuSans-6f" x="274.634766"/>
      <use xlink:href="#DejaVuSans-6e" x="335.816406"/>
      <use xlink:href="#DejaVuSans-20" x="399.195312"/>
      <use xlink:href="#DejaVuSans-6f" x="430.982422"/>
      <use xlink:href="#DejaVuSans-66" x="492.164062"/>
      <use xlink:href="#DejaVuSans-20" x="527.369141"/>
      <use xlink:href="#DejaVuSans-66" x="559.15625"/>
      <use xlink:href="#DejaVuSans-75" x="594.361328"/>
      <use xlink:href="#DejaVuSans-6e" x="657.740234"/>
      <use xlink:href="#DejaVuSans-63" x="721.119141"/>
      <use xlink:href="#DejaVuSans-74" x="776.099609"/>
      <use xlink:href="#DejaVuSans-69" x="815.308594"/>
      <use xlink:href="#DejaVuSans-6f" x="843.091797"/>
      <use xlink:href="#DejaVuSans-6e" x="904.273438"/>
      <use xlink:href="#DejaVuSans-2c" x="967.652344"/>
      <use xlink:href="#DejaVuSans-74" x="999.439453"/>
      <use xlink:href="#DejaVuSans-61" x="1038.648438"/>
      <use xlink:href="#DejaVuSans-72" x="1099.927734"/>
      <use xlink:href="#DejaVuSans-67" x="1139.291016"/>
      <use xlink:href="#DejaVuSans-65" x="1202.767578"/>
      <use xlink:href="#DejaVuSans-74" x="1264.291016"/>
      <use xlink:href="#DejaVuSans-20" x="1303.5"/>
      <use xlink:href="#DejaVuSans-70" x="1335.287109"/>
      <use xlink:href="#DejaVuSans-61" x="1398.763672"/>
      <use xlink:href="#DejaVuSans-69" x="1460.042969"/>
      <use xlink:href="#DejaVuSans-72" x="1487.826172"/>
      <use xlink:href="#DejaVuSans-73" x="1528.939453"/>
     </g>
    </g>
   </g>
   <g id="line2d_33">
    <defs>
     <path id="md1336a67e7" d="M 0 1.5 
C 0.397805 1.5 0.77937 1.341951 1.06066 1.06066 
C 1.341951 0.77937 1.5 0.397805 1.5 0 
C 1.5 -0.397805 1.341951 -0.77937 1.06066 -1.06066 
C 0.77937 -1.341951 0.397805 -1.5 0 -1.5 
C -0.397805 -1.5 -0.77937 -1.341951 -1.06066 -1.06066 
C -1.341951 -0.77937 -1.5 -0.397805 -1.5 0 
C -1.5 0.397805 -1.341951 0.77937 -1.06066 1.06066 
C -0.77937 1.341951 -0.397805 1.5 0 1.5 
z
" style="stroke: #f5deb3"/>
    </defs>
    <g>
     <use xlink:href="#md1336a67e7" x="291.465832" y="60.390621" style="fill: #f5deb3; stroke: #f5deb3"/>
     <use xlink:href="#md1336a67e7" x="291.465832" y="60.390621" style="fill: #f5deb3; stroke: #f5deb3"/>
    </g>
   </g>
   <g id="line2d_34">
    <defs>
     <path id="m9c87504306" d="M 0 1.5 
C 0.397805 1.5 0.77937 1.341951 1.06066 1.06066 
C 1.341951 0.77937 1.5 0.397805 1.5 0 
C 1.5 -0.397805 1.341951 -0.77937 1.06066 -1.06066 
C 0.77937 -1.341951 0.397805 -1.5 0 -1.5 
C -0.397805 -1.5 -0.77937 -1.341951 -1.06066 -1.06066 
C -1.341951 -0.77937 -1.5 -0.397805 -1.5 0 
C -1.5 0.397805 -1.341951 0.77937 -1.06066 1.06066 
C -0.77937 1.341951 -0.397805 1.5 0 1.5 
z
" style="stroke: #000080"/>
    </defs>
    <g>
     <use xlink:href="#m9c87504306" x="220.596763" y="196.038621" style="fill: #000080; stroke: #000080"/>
     <use xlink:href="#m9c87504306" x="220.596763" y="196.038621" style="fill: #000080; stroke: #000080"/>
    </g>
   </g>
   <g id="line2d_35">
    <path d="M 14.2848 298.944 
L 14.2848 290.056717 
L 53.402323 290.056717 
L 53.402323 289.588966 
L 57.6 289.588966 
L 57.6 289.121214 
L 105.411479 289.121214 
L 105.411479 288.653462 
L 122.971409 288.653462 
L 122.971409 288.18571 
L 131.191226 288.18571 
L 131.191226 287.717959 
L 131.600593 287.717959 
L 131.600593 287.250207 
L 133.05244 287.250207 
L 133.05244 286.782455 
L 133.289492 286.782455 
L 133.289492 286.314703 
L 135.538796 286.314703 
L 135.538796 285.846952 
L 140.196609 285.846952 
L 140.196609 285.3792 
L 142.227492 285.3792 
L 142.227492 284.911448 
L 142.661862 284.911448 
L 142.661862 284.443697 
L 143.086429 284.443697 
L 143.086429 283.975945 
L 143.926981 283.975945 
L 143.926981 283.508193 
L 144.267986 283.508193 
L 144.267986 283.040441 
L 145.678157 283.040441 
L 145.7477 282.104938 
L 146.761135 282.104938 
L 146.761135 281.637186 
L 149.252502 281.637186 
L 149.252502 281.169434 
L 149.693807 281.169434 
L 149.79204 280.233931 
L 150.221009 280.233931 
L 150.221009 279.766179 
L 150.425115 279.766179 
L 150.425115 279.298428 
L 153.247435 279.298428 
L 153.247435 278.830676 
L 154.432362 278.830676 
L 154.432362 278.362924 
L 154.886195 278.362924 
L 154.982037 277.427421 
L 155.894291 277.427421 
L 155.894291 276.959669 
L 156.540799 276.959669 
L 156.540799 276.491917 
L 156.764344 276.491917 
L 156.764344 276.024166 
L 157.184731 276.024166 
L 157.184731 275.556414 
L 158.778196 275.556414 
L 158.88208 274.62091 
L 159.15633 274.62091 
L 159.15633 274.153159 
L 160.597153 274.153159 
L 160.597153 273.685407 
L 161.891338 273.685407 
L 161.891338 273.217655 
L 162.570477 273.217655 
L 162.570477 272.749903 
L 163.184786 272.749903 
L 163.184786 272.282152 
L 163.484578 272.282152 
L 163.484578 271.8144 
L 164.915805 271.8144 
L 164.915805 271.346648 
L 165.189432 271.346648 
L 165.189432 270.878897 
L 165.459136 270.878897 
L 165.459136 269.943393 
L 167.487935 269.943393 
L 167.487935 268.072386 
L 167.962699 268.072386 
L 167.962699 267.136883 
L 168.195663 267.136883 
L 168.195663 266.669131 
L 169.962267 266.669131 
L 169.962267 265.733628 
L 170.37916 265.733628 
L 170.37916 264.798124 
L 170.987673 264.798124 
L 170.987673 264.330372 
L 171.382681 264.330372 
L 171.382681 262.927117 
L 172.335368 262.927117 
L 172.335368 262.459366 
L 173.242125 262.459366 
L 173.242125 261.991614 
L 173.418347 261.991614 
L 173.418347 260.120607 
L 174.195358 260.120607 
L 174.195358 259.652855 
L 174.771671 259.652855 
L 174.771671 258.717352 
L 175.095318 258.717352 
L 175.095318 258.2496 
L 175.255078 258.2496 
L 175.255078 257.781848 
L 175.413492 257.781848 
L 175.413492 257.314097 
L 175.726373 257.314097 
L 175.726373 256.846345 
L 176.034135 256.846345 
L 176.034135 256.378593 
L 176.155155 256.378593 
L 176.186149 255.44309 
L 177.217177 255.44309 
L 177.217177 254.975338 
L 177.781919 254.975338 
L 177.781919 254.507586 
L 178.993815 254.507586 
L 178.993815 254.039834 
L 179.123774 254.039834 
L 179.123774 253.572083 
L 179.508351 253.572083 
L 179.508351 253.104331 
L 180.009187 253.104331 
L 180.009187 252.168828 
L 181.089573 252.168828 
L 181.089573 251.701076 
L 181.205874 251.701076 
L 181.205874 251.233324 
L 181.43634 251.233324 
L 181.43634 250.297821 
L 181.664017 250.297821 
L 181.717944 249.362317 
L 181.77683 249.362317 
L 181.77683 248.894566 
L 182.439861 248.894566 
L 182.548129 247.49131 
L 183.59786 247.49131 
L 183.59786 247.023559 
L 183.901687 247.023559 
L 183.901687 245.620303 
L 184.200685 245.620303 
L 184.200685 243.749297 
L 185.07018 243.749297 
L 185.07018 242.813793 
L 185.444086 242.813793 
L 185.444086 241.87829 
L 185.810706 241.87829 
L 185.810706 240.942786 
L 186.081056 240.942786 
L 186.081056 240.475034 
L 186.200649 240.475034 
L 186.200649 239.539531 
L 186.955153 239.539531 
L 186.955153 239.071779 
L 187.730919 239.071779 
L 187.790431 237.668524 
L 187.936552 237.668524 
L 187.936552 237.200772 
L 188.194562 237.200772 
L 188.274356 235.329766 
L 188.561698 235.329766 
L 188.590193 233.458759 
L 189.704343 233.458759 
L 189.704343 232.523255 
L 189.949291 232.523255 
L 189.949291 231.587752 
L 190.094414 231.587752 
L 190.094414 230.652248 
L 190.238427 230.652248 
L 190.238427 229.716745 
L 190.452399 229.716745 
L 190.452399 228.781241 
L 190.663966 228.781241 
L 190.663966 228.31349 
L 190.89838 228.31349 
L 190.89838 227.845738 
L 191.089442 227.845738 
L 191.089442 227.377986 
L 191.687512 227.377986 
L 191.687512 226.910234 
L 192.016681 226.910234 
L 192.031508 225.506979 
L 192.230527 225.506979 
L 192.230527 225.039228 
L 192.531658 225.039228 
L 192.531658 224.103724 
L 193.400276 224.103724 
L 193.400276 223.168221 
L 193.649421 223.168221 
L 193.649421 222.232717 
L 193.838851 222.232717 
L 193.838851 221.297214 
L 194.365871 221.297214 
L 194.365871 220.829462 
L 194.826227 220.829462 
L 194.826227 218.958455 
L 195.301759 218.958455 
L 195.301759 218.490703 
L 195.428378 218.490703 
L 195.467927 215.684193 
L 195.627744 215.684193 
L 195.627744 214.74869 
L 196.624268 214.74869 
L 196.648633 213.345434 
L 196.96254 213.345434 
L 196.96254 212.877683 
L 197.974766 212.877683 
L 197.974766 211.942179 
L 198.146867 211.942179 
L 198.146867 211.006676 
L 198.755783 211.006676 
L 198.773398 209.135669 
L 198.929134 209.135669 
L 198.929134 208.200166 
L 199.068306 208.200166 
L 199.068306 207.732414 
L 199.357657 207.732414 
L 199.357657 207.264662 
L 200.14513 207.264662 
L 200.14513 206.79691 
L 200.371945 206.79691 
L 200.371945 205.861407 
L 200.639249 205.861407 
L 200.639249 204.925903 
L 201.103344 204.925903 
L 201.143561 203.522648 
L 201.366841 203.522648 
L 201.366841 202.587145 
L 202.322045 202.587145 
L 202.322045 202.119393 
L 202.743517 202.119393 
L 202.743517 201.651641 
L 203.67842 201.651641 
L 203.67842 201.18389 
L 204.916662 201.18389 
L 204.916662 200.248386 
L 212.520417 200.248386 
L 212.520417 199.312883 
L 212.858473 199.312883 
L 212.858473 198.845131 
L 213.377319 198.845131 
L 213.377319 198.377379 
L 214.377572 198.377379 
L 214.377572 197.909628 
L 215.94094 197.909628 
L 215.94094 196.974124 
L 216.552898 196.974124 
L 216.552898 196.506372 
L 220.596763 196.506372 
L 220.596763 196.038621 
L 360.8064 196.038621 
L 360.8064 196.038621 
" style="fill: none; stroke: #000080; stroke-width: 1.5; stroke-linecap: square"/>
   </g>
   <g id="line2d_36">
    <defs>
     <path id="m7b077c5517" d="M 0 6 
C 1.591219 6 3.117479 5.367802 4.242641 4.242641 
C 5.367802 3.117479 6 1.591219 6 0 
C 6 -1.591219 5.367802 -3.117479 4.242641 -4.242641 
C 3.117479 -5.367802 1.591219 -6 0 -6 
C -1.591219 -6 -3.117479 -5.367802 -4.242641 -4.242641 
C -5.367802 -3.117479 -6 -1.591219 -6 0 
C -6 1.591219 -5.367802 3.117479 -4.242641 4.242641 
C -3.117479 5.367802 -1.591219 6 0 6 
z
" style="stroke: #000080; stroke-width: 1.5"/>
    </defs>
    <g>
     <use xlink:href="#m7b077c5517" x="135.538796" y="285.846952" style="fill-opacity: 0; stroke: #000080; stroke-width: 1.5"/>
     <use xlink:href="#m7b077c5517" x="196.96254" y="212.877683" style="fill-opacity: 0; stroke: #000080; stroke-width: 1.5"/>
     <use xlink:href="#m7b077c5517" x="220.596763" y="196.506372" style="fill-opacity: 0; stroke: #000080; stroke-width: 1.5"/>
     <use xlink:href="#m7b077c5517" x="220.596763" y="196.038621" style="fill-opacity: 0; stroke: #000080; stroke-width: 1.5"/>
     <use xlink:href="#m7b077c5517" x="360.8064" y="196.038621" style="fill-opacity: 0; stroke: #000080; stroke-width: 1.5"/>
    </g>
   </g>
   <g id="line2d_37">
    <path style="fill: none; stroke: #000080; stroke-width: 1.5; stroke-linecap: square"/>
    <g/>
   </g>
   <g id="line2d_38">
    <path d="M 230.864938 196.038621 
" clip-path="url(#peaa5e07f29)" style="fill: none; stroke: #000080; stroke-width: 1.5; stroke-linecap: square"/>
    <defs>
     <path id="m6420538b47" d="M -12 12 
L 12 -12 
M -12 -12 
L 12 12 
" style="stroke: #000080"/>
    </defs>
    <g clip-path="url(#peaa5e07f29)">
     <use xlink:href="#m6420538b47" x="230.864938" y="196.038621" style="fill: #000080; stroke: #000080"/>
    </g>
   </g>
   <g id="line2d_39">
    <defs>
     <path id="m9011e6b759" d="M 0 1.5 
C 0.397805 1.5 0.77937 1.341951 1.06066 1.06066 
C 1.341951 0.77937 1.5 0.397805 1.5 0 
C 1.5 -0.397805 1.341951 -0.77937 1.06066 -1.06066 
C 0.77937 -1.341951 0.397805 -1.5 0 -1.5 
C -0.397805 -1.5 -0.77937 -1.341951 -1.06066 -1.06066 
C -1.341951 -0.77937 -1.5 -0.397805 -1.5 0 
C -1.5 0.397805 -1.341951 0.77937 -1.06066 1.06066 
C -0.77937 1.341951 -0.397805 1.5 0 1.5 
z
" style="stroke: #ff00ff"/>
    </defs>
    <g>
     <use xlink:href="#m9011e6b759" x="213.249662" y="189.957848" style="fill: #ff00ff; stroke: #ff00ff"/>
     <use xlink:href="#m9011e6b759" x="213.249662" y="189.957848" style="fill: #ff00ff; stroke: #ff00ff"/>
    </g>
   </g>
   <g id="line2d_40">
    <path d="M 14.2848 298.944 
L 14.2848 290.056717 
L 27.323974 290.056717 
L 27.323974 289.588966 
L 50.890391 289.588966 
L 50.890391 289.121214 
L 62.535479 289.121214 
L 62.535479 288.653462 
L 94.995002 288.653462 
L 94.995002 288.18571 
L 99.950294 288.18571 
L 99.950294 287.717959 
L 103.047088 287.717959 
L 103.047088 287.250207 
L 106.42077 287.250207 
L 106.42077 286.782455 
L 106.560633 286.782455 
L 106.560633 286.314703 
L 111.86758 286.314703 
L 111.86758 285.846952 
L 112.890198 285.846952 
L 112.890198 285.3792 
L 116.253478 285.3792 
L 116.253478 284.911448 
L 116.988079 284.911448 
L 116.988079 284.443697 
L 122.971409 284.443697 
L 122.971409 283.975945 
L 125.373824 283.975945 
L 125.373824 283.508193 
L 128.614685 283.508193 
L 128.614685 283.040441 
L 131.153565 283.040441 
L 131.153565 282.57269 
L 139.411192 282.57269 
L 139.411192 282.104938 
L 139.819894 282.104938 
L 139.819894 281.637186 
L 141.327451 281.637186 
L 141.327451 281.169434 
L 144.079302 281.169434 
L 144.079302 280.701683 
L 146.379077 280.701683 
L 146.379077 280.233931 
L 146.941151 280.233931 
L 146.941151 279.766179 
L 148.382875 279.766179 
L 148.382875 279.298428 
L 154.918196 279.298428 
L 154.918196 278.830676 
L 155.13016 278.830676 
L 155.13016 278.362924 
L 157.632869 278.362924 
L 157.678942 276.959669 
L 159.325729 276.959669 
L 159.325729 276.491917 
L 159.518669 276.491917 
L 159.518669 276.024166 
L 161.171478 276.024166 
L 161.171478 275.556414 
L 163.504846 275.556414 
L 163.504846 275.088662 
L 163.79962 275.088662 
L 163.79962 274.62091 
L 164.109472 274.62091 
L 164.109472 274.153159 
L 164.317552 274.153159 
L 164.317552 273.685407 
L 164.695268 273.685407 
L 164.695268 273.217655 
L 165.152353 273.217655 
L 165.152353 272.282152 
L 165.850619 272.282152 
L 165.951676 270.411145 
L 166.546881 270.411145 
L 166.552624 269.475641 
L 166.8036 269.475641 
L 166.8036 269.00789 
L 166.984048 269.00789 
L 166.984048 268.540138 
L 167.101533 268.540138 
L 167.101533 268.072386 
L 168.263944 268.072386 
L 168.263944 267.604634 
L 168.637696 267.604634 
L 168.637696 266.669131 
L 169.109722 266.669131 
L 169.109722 266.201379 
L 170.561006 266.201379 
L 170.561006 265.733628 
L 171.673587 265.733628 
L 171.756506 264.330372 
L 171.90398 264.330372 
L 171.90398 263.862621 
L 172.024567 263.862621 
L 172.024567 263.394869 
L 172.913335 263.394869 
L 172.933798 261.991614 
L 173.129118 261.991614 
L 173.129118 261.05611 
L 174.122542 261.05611 
L 174.122542 260.588359 
L 174.35912 260.588359 
L 174.35912 260.120607 
L 175.011265 260.120607 
L 175.011265 259.652855 
L 175.24061 259.652855 
L 175.24061 258.717352 
L 175.662797 258.717352 
L 175.662797 257.781848 
L 175.929781 257.781848 
L 175.929781 257.314097 
L 176.55752 257.314097 
L 176.55752 256.846345 
L 176.708725 256.846345 
L 176.708725 256.378593 
L 177.488828 256.378593 
L 177.591292 255.44309 
L 177.629572 255.44309 
L 177.629572 254.975338 
L 178.559072 254.975338 
L 178.649847 253.572083 
L 178.707112 253.572083 
L 178.707112 253.104331 
L 178.859967 253.104331 
L 178.886813 252.168828 
L 179.002704 252.168828 
L 179.002704 251.701076 
L 179.55156 251.701076 
L 179.55156 251.233324 
L 179.712 251.233324 
L 179.712 250.297821 
L 180.249148 250.297821 
L 180.326619 248.894566 
L 180.464171 248.894566 
L 180.499771 247.49131 
L 180.983218 247.49131 
L 181.020511 246.555807 
L 181.360702 246.555807 
L 181.360702 245.620303 
L 181.866087 245.620303 
L 181.866087 244.6848 
L 182.148897 244.6848 
L 182.148897 244.217048 
L 182.266321 244.217048 
L 182.266321 243.749297 
L 182.484228 243.749297 
L 182.484228 242.813793 
L 182.631366 242.813793 
L 182.631366 242.346041 
L 182.787055 242.346041 
L 182.787055 241.87829 
L 184.432957 241.87829 
L 184.477298 240.942786 
L 184.752084 240.942786 
L 184.832657 239.539531 
L 184.87173 239.539531 
L 184.87173 239.071779 
L 185.142993 239.071779 
L 185.142993 238.136276 
L 185.463008 238.136276 
L 185.475612 236.265269 
L 185.866322 236.265269 
L 185.866322 235.329766 
L 186.351585 235.329766 
L 186.351585 234.394262 
L 186.556917 234.394262 
L 186.556917 233.92651 
L 186.695194 233.92651 
L 186.783553 232.991007 
L 187.142507 232.991007 
L 187.201992 232.055503 
L 187.430498 232.055503 
L 187.447525 231.12 
L 187.652521 231.12 
L 187.74023 229.248993 
L 188.379026 229.248993 
L 188.379026 228.781241 
L 189.192606 228.781241 
L 189.256266 226.910234 
L 189.508774 226.910234 
L 189.540946 225.039228 
L 189.721108 225.039228 
L 189.721108 224.571476 
L 190.585707 224.571476 
L 190.585707 223.635972 
L 190.846365 223.635972 
L 190.846365 223.168221 
L 191.006678 223.168221 
L 191.006678 222.232717 
L 191.327879 222.232717 
L 191.373979 218.490703 
L 191.508555 218.490703 
L 191.508555 217.5552 
L 192.36787 217.5552 
L 192.36787 217.087448 
L 192.839405 217.087448 
L 192.94982 216.151945 
L 192.976618 216.151945 
L 192.976618 215.216441 
L 193.379594 215.216441 
L 193.489636 213.345434 
L 193.661656 213.345434 
L 193.661656 212.409931 
L 194.270065 212.409931 
L 194.270065 211.474428 
L 194.64137 211.474428 
L 194.64137 211.006676 
L 195.083775 211.006676 
L 195.132854 208.200166 
L 195.300514 208.200166 
L 195.300514 207.732414 
L 195.519709 207.732414 
L 195.624071 206.329159 
L 195.73151 206.329159 
L 195.782572 205.393655 
L 196.362391 205.393655 
L 196.362391 204.925903 
L 196.56147 204.925903 
L 196.56147 204.458152 
L 196.918016 204.458152 
L 196.918016 203.522648 
L 197.451033 203.522648 
L 197.451033 202.587145 
L 197.564022 202.587145 
L 197.564022 201.651641 
L 198.270663 201.651641 
L 198.270663 201.18389 
L 199.17404 201.18389 
L 199.17404 200.248386 
L 199.30135 200.248386 
L 199.30135 199.780634 
L 199.565335 199.780634 
L 199.565335 198.845131 
L 200.269882 198.845131 
L 200.269882 198.377379 
L 200.412806 198.377379 
L 200.412806 197.909628 
L 201.525869 197.909628 
L 201.525869 197.441876 
L 201.807366 197.441876 
L 201.807366 196.506372 
L 202.770334 196.506372 
L 202.870555 195.570869 
L 207.564729 195.570869 
L 207.564729 194.635366 
L 208.055415 194.635366 
L 208.055415 194.167614 
L 208.89022 194.167614 
L 208.89022 193.699862 
L 210.546787 193.699862 
L 210.546787 193.23211 
L 211.059809 193.23211 
L 211.1233 191.828855 
L 211.824996 191.828855 
L 211.824996 191.361103 
L 211.996533 191.361103 
L 211.996533 190.4256 
L 213.249662 190.4256 
L 213.249662 189.957848 
L 360.8064 189.957848 
L 360.8064 189.957848 
" style="fill: none; stroke: #ff00ff; stroke-width: 1.5; stroke-linecap: square"/>
   </g>
   <g id="line2d_41">
    <defs>
     <path id="md8d1431ffe" d="M -0 8.485281 
L 5.091169 0 
L 0 -8.485281 
L -5.091169 -0 
z
" style="stroke: #ff00ff; stroke-width: 1.5; stroke-linejoin: miter"/>
    </defs>
    <g>
     <use xlink:href="#md8d1431ffe" x="62.535479" y="288.653462" style="fill-opacity: 0; stroke: #ff00ff; stroke-width: 1.5; stroke-linejoin: miter"/>
     <use xlink:href="#md8d1431ffe" x="169.109722" y="266.201379" style="fill-opacity: 0; stroke: #ff00ff; stroke-width: 1.5; stroke-linejoin: miter"/>
     <use xlink:href="#md8d1431ffe" x="210.546787" y="193.23211" style="fill-opacity: 0; stroke: #ff00ff; stroke-width: 1.5; stroke-linejoin: miter"/>
     <use xlink:href="#md8d1431ffe" x="213.249662" y="189.957848" style="fill-opacity: 0; stroke: #ff00ff; stroke-width: 1.5; stroke-linejoin: miter"/>
     <use xlink:href="#md8d1431ffe" x="213.249662" y="189.957848" style="fill-opacity: 0; stroke: #ff00ff; stroke-width: 1.5; stroke-linejoin: miter"/>
     <use xlink:href="#md8d1431ffe" x="360.8064" y="189.957848" style="fill-opacity: 0; stroke: #ff00ff; stroke-width: 1.5; stroke-linejoin: miter"/>
    </g>
   </g>
   <g id="line2d_42">
    <path style="fill: none; stroke: #ff00ff; stroke-width: 1.5; stroke-linecap: square"/>
    <g/>
   </g>
   <g id="line2d_43">
    <path d="M 230.865126 189.957848 
" clip-path="url(#peaa5e07f29)" style="fill: none; stroke: #ff00ff; stroke-width: 1.5; stroke-linecap: square"/>
    <defs>
     <path id="m60b050475d" d="M -12 12 
L 12 -12 
M -12 -12 
L 12 12 
" style="stroke: #ff00ff"/>
    </defs>
    <g clip-path="url(#peaa5e07f29)">
     <use xlink:href="#m60b050475d" x="230.865126" y="189.957848" style="fill: #ff00ff; stroke: #ff00ff"/>
    </g>
   </g>
   <g id="line2d_44">
    <defs>
     <path id="m5c1bca6dc7" d="M 0 1.5 
C 0.397805 1.5 0.77937 1.341951 1.06066 1.06066 
C 1.341951 0.77937 1.5 0.397805 1.5 0 
C 1.5 -0.397805 1.341951 -0.77937 1.06066 -1.06066 
C 0.77937 -1.341951 0.397805 -1.5 0 -1.5 
C -0.397805 -1.5 -0.77937 -1.341951 -1.06066 -1.06066 
C -1.341951 -0.77937 -1.5 -0.397805 -1.5 0 
C -1.5 0.397805 -1.341951 0.77937 -1.06066 1.06066 
C -0.77937 1.341951 -0.397805 1.5 0 1.5 
z
" style="stroke: #ff7500"/>
    </defs>
    <g>
     <use xlink:href="#m5c1bca6dc7" x="217.997628" y="203.9904" style="fill: #ff7500; stroke: #ff7500"/>
     <use xlink:href="#m5c1bca6dc7" x="217.997628" y="203.9904" style="fill: #ff7500; stroke: #ff7500"/>
    </g>
   </g>
   <g id="line2d_45">
    <path d="M 14.2848 298.944 
L 14.2848 290.056717 
L 98.933205 290.056717 
L 98.933205 289.121214 
L 115.917548 289.121214 
L 115.917548 288.653462 
L 119.319033 288.653462 
L 119.319033 288.18571 
L 126.899255 288.18571 
L 126.899255 287.717959 
L 132.287354 287.717959 
L 132.287354 287.250207 
L 139.891105 287.250207 
L 139.891105 286.782455 
L 141.868361 286.782455 
L 141.868361 285.3792 
L 142.784148 285.3792 
L 142.784148 284.443697 
L 144.491935 284.443697 
L 144.491935 283.508193 
L 146.057504 283.508193 
L 146.057504 283.040441 
L 146.793994 283.040441 
L 146.793994 282.57269 
L 149.481565 282.57269 
L 149.481565 282.104938 
L 150.693856 282.104938 
L 150.693856 281.637186 
L 151.27191 281.637186 
L 151.27191 280.701683 
L 152.906572 280.701683 
L 152.906572 280.233931 
L 153.421349 280.233931 
L 153.421349 278.830676 
L 153.922412 278.830676 
L 153.922412 278.362924 
L 154.886195 278.362924 
L 154.886195 276.491917 
L 156.677186 276.491917 
L 156.677186 274.62091 
L 157.512549 274.62091 
L 157.512549 274.153159 
L 158.312387 274.153159 
L 158.312387 273.685407 
L 159.079601 273.685407 
L 159.079601 273.217655 
L 159.816746 273.217655 
L 159.816746 272.749903 
L 161.542347 272.749903 
L 161.542347 272.282152 
L 163.122872 272.282152 
L 163.122872 271.8144 
L 164.011136 271.8144 
L 164.011136 271.346648 
L 165.133786 271.346648 
L 165.133786 269.943393 
L 165.670946 269.943393 
L 165.670946 269.00789 
L 166.448979 269.00789 
L 166.448979 268.540138 
L 169.491772 268.540138 
L 169.491772 268.072386 
L 169.706651 268.072386 
L 169.706651 267.136883 
L 170.542436 267.136883 
L 170.542436 266.669131 
L 170.745706 266.669131 
L 170.745706 265.265876 
L 170.946803 265.265876 
L 170.946803 264.330372 
L 171.145773 264.330372 
L 171.145773 263.394869 
L 171.342661 263.394869 
L 171.342661 262.927117 
L 172.11023 262.927117 
L 172.11023 262.459366 
L 172.847704 262.459366 
L 172.847704 261.523862 
L 173.027642 261.523862 
L 173.027642 261.05611 
L 173.557354 261.05611 
L 173.557354 260.120607 
L 174.072557 260.120607 
L 174.072557 259.652855 
L 175.22251 259.652855 
L 175.22251 258.717352 
L 175.381197 258.717352 
L 175.381197 258.2496 
L 176.604692 258.2496 
L 176.604692 256.846345 
L 176.752182 256.846345 
L 176.752182 256.378593 
L 177.043737 256.378593 
L 177.043737 255.910841 
L 177.613631 255.910841 
L 177.613631 255.44309 
L 177.753447 255.44309 
L 177.753447 254.975338 
L 178.704102 254.975338 
L 178.704102 254.039834 
L 179.226514 254.039834 
L 179.226514 253.572083 
L 179.609017 253.572083 
L 179.609017 253.104331 
L 179.734809 253.104331 
L 179.734809 252.636579 
L 180.107216 252.636579 
L 180.107216 252.168828 
L 180.472392 252.168828 
L 180.472392 251.701076 
L 180.59256 251.701076 
L 180.59256 251.233324 
L 180.830615 251.233324 
L 180.830615 250.297821 
L 180.948523 250.297821 
L 180.948523 249.362317 
L 181.182144 249.362317 
L 181.182144 248.426814 
L 181.412899 248.426814 
L 181.412899 247.49131 
L 182.308614 247.49131 
L 182.417638 246.088055 
L 183.267804 246.088055 
L 183.267804 245.620303 
L 183.780285 245.620303 
L 183.881127 244.217048 
L 183.981431 244.217048 
L 183.981431 243.749297 
L 184.180449 243.749297 
L 184.180449 243.281545 
L 184.572278 243.281545 
L 184.572278 242.813793 
L 185.33227 242.813793 
L 185.425145 241.410538 
L 185.517565 241.410538 
L 185.517565 240.475034 
L 185.882769 240.475034 
L 185.972973 239.071779 
L 187.691761 239.071779 
L 187.691761 238.136276 
L 188.097994 238.136276 
L 188.178198 236.265269 
L 188.337588 236.265269 
L 188.337588 235.797517 
L 188.961978 235.797517 
L 189.038589 233.458759 
L 190.151824 233.458759 
L 190.151824 232.523255 
L 190.366778 232.523255 
L 190.366778 232.055503 
L 190.508729 232.055503 
L 190.508729 231.587752 
L 190.649616 231.587752 
L 190.649616 230.652248 
L 190.928264 230.652248 
L 190.997286 228.781241 
L 191.066055 228.781241 
L 191.066055 228.31349 
L 191.202844 228.31349 
L 191.202844 227.377986 
L 191.806377 227.377986 
L 191.806377 226.442483 
L 192.133491 226.442483 
L 192.133491 225.974731 
L 192.262761 225.974731 
L 192.262761 225.506979 
L 192.896109 225.506979 
L 192.896109 225.039228 
L 193.082029 225.039228 
L 193.082029 224.103724 
L 193.569015 224.103724 
L 193.569015 223.168221 
L 193.748433 223.168221 
L 193.748433 222.700469 
L 194.334427 222.700469 
L 194.334427 221.764966 
L 195.06991 221.764966 
L 195.06991 220.829462 
L 195.235629 220.829462 
L 195.345303 219.426207 
L 195.616723 219.426207 
L 195.616723 218.958455 
L 197.16781 218.958455 
L 197.16781 218.022952 
L 197.512043 218.022952 
L 197.512043 217.087448 
L 198.087885 217.087448 
L 198.087885 216.151945 
L 198.600689 216.151945 
L 198.600689 215.684193 
L 199.410793 215.684193 
L 199.410793 214.74869 
L 200.017607 214.74869 
L 200.017607 212.877683 
L 201.135342 212.877683 
L 201.135342 211.942179 
L 202.454506 211.942179 
L 202.454506 211.474428 
L 203.861848 211.474428 
L 203.861848 210.538924 
L 205.683063 210.538924 
L 205.683063 210.071172 
L 207.081554 210.071172 
L 207.081554 209.135669 
L 214.093043 209.135669 
L 214.093043 208.200166 
L 214.512183 208.200166 
L 214.512183 207.732414 
L 214.747565 207.732414 
L 214.747565 207.264662 
L 215.900565 207.264662 
L 215.973758 205.861407 
L 216.986958 205.861407 
L 216.986958 204.925903 
L 217.733381 204.925903 
L 217.733381 204.458152 
L 217.997628 204.458152 
L 217.997628 203.9904 
L 360.8064 203.9904 
L 360.8064 203.9904 
" style="fill: none; stroke: #ff7500; stroke-width: 1.5; stroke-linecap: square"/>
   </g>
   <g id="line2d_46">
    <defs>
     <path id="me28239f747" d="M 0 -6 
L -1.347084 -1.854102 
L -5.706339 -1.854102 
L -2.179628 0.708204 
L -3.526712 4.854102 
L -0 2.291796 
L 3.526712 4.854102 
L 2.179628 0.708204 
L 5.706339 -1.854102 
L 1.347084 -1.854102 
z
" style="stroke: #ff7500; stroke-width: 1.5; stroke-linejoin: bevel"/>
    </defs>
    <g>
     <use xlink:href="#me28239f747" x="157.512549" y="274.62091" style="fill-opacity: 0; stroke: #ff7500; stroke-width: 1.5; stroke-linejoin: bevel"/>
     <use xlink:href="#me28239f747" x="205.683063" y="210.538924" style="fill-opacity: 0; stroke: #ff7500; stroke-width: 1.5; stroke-linejoin: bevel"/>
     <use xlink:href="#me28239f747" x="217.997628" y="204.458152" style="fill-opacity: 0; stroke: #ff7500; stroke-width: 1.5; stroke-linejoin: bevel"/>
     <use xlink:href="#me28239f747" x="217.997628" y="203.9904" style="fill-opacity: 0; stroke: #ff7500; stroke-width: 1.5; stroke-linejoin: bevel"/>
     <use xlink:href="#me28239f747" x="360.8064" y="203.9904" style="fill-opacity: 0; stroke: #ff7500; stroke-width: 1.5; stroke-linejoin: bevel"/>
    </g>
   </g>
   <g id="line2d_47">
    <path style="fill: none; stroke: #ff7500; stroke-width: 1.5; stroke-linecap: square"/>
    <g/>
   </g>
   <g id="line2d_48">
    <path d="M 230.863245 203.9904 
" clip-path="url(#peaa5e07f29)" style="fill: none; stroke: #ff7500; stroke-width: 1.5; stroke-linecap: square"/>
    <defs>
     <path id="m12d80eb08c" d="M -12 12 
L 12 -12 
M -12 -12 
L 12 12 
" style="stroke: #ff7500"/>
    </defs>
    <g clip-path="url(#peaa5e07f29)">
     <use xlink:href="#m12d80eb08c" x="230.863245" y="203.9904" style="fill: #ff7500; stroke: #ff7500"/>
    </g>
   </g>
   <g id="line2d_49">
    <defs>
     <path id="mae997afadf" d="M 0 1.5 
C 0.397805 1.5 0.77937 1.341951 1.06066 1.06066 
C 1.341951 0.77937 1.5 0.397805 1.5 0 
C 1.5 -0.397805 1.341951 -0.77937 1.06066 -1.06066 
C 0.77937 -1.341951 0.397805 -1.5 0 -1.5 
C -0.397805 -1.5 -0.77937 -1.341951 -1.06066 -1.06066 
C -1.341951 -0.77937 -1.5 -0.397805 -1.5 0 
C -1.5 0.397805 -1.341951 0.77937 -1.06066 1.06066 
C -0.77937 1.341951 -0.397805 1.5 0 1.5 
z
" style="stroke: #6495ed"/>
    </defs>
    <g>
     <use xlink:href="#mae997afadf" x="210.946284" y="196.038621" style="fill: #6495ed; stroke: #6495ed"/>
     <use xlink:href="#mae997afadf" x="210.946284" y="196.038621" style="fill: #6495ed; stroke: #6495ed"/>
    </g>
   </g>
   <g id="line2d_50">
    <path d="M 14.2848 298.944 
L 14.2848 290.056717 
L 27.323974 290.056717 
L 27.323974 289.588966 
L 63.929565 289.588966 
L 63.929565 288.653462 
L 96.717523 288.653462 
L 96.717523 288.18571 
L 97.18203 288.18571 
L 97.18203 287.717959 
L 100.535156 287.717959 
L 100.535156 287.250207 
L 104.028784 287.250207 
L 104.028784 286.782455 
L 106.42077 286.782455 
L 106.42077 286.314703 
L 106.699465 286.314703 
L 106.699465 285.846952 
L 109.280431 285.846952 
L 109.280431 285.3792 
L 121.768984 285.3792 
L 121.768984 284.911448 
L 122.439807 284.911448 
L 122.439807 284.443697 
L 136.640557 284.443697 
L 136.640557 283.975945 
L 137.030737 283.975945 
L 137.030737 283.508193 
L 137.919637 283.508193 
L 137.919637 283.040441 
L 138.515235 283.040441 
L 138.515235 282.57269 
L 143.773417 282.57269 
L 143.773417 282.104938 
L 146.595975 282.104938 
L 146.595975 281.637186 
L 148.458151 281.637186 
L 148.458151 281.169434 
L 148.83008 281.169434 
L 148.83008 280.701683 
L 151.116012 280.701683 
L 151.194122 279.766179 
L 151.297768 279.766179 
L 151.297768 278.830676 
L 151.882893 278.830676 
L 151.882893 278.362924 
L 153.142309 278.362924 
L 153.142309 277.895172 
L 155.18278 277.895172 
L 155.18278 277.427421 
L 155.391799 277.427421 
L 155.391799 276.959669 
L 156.304668 276.959669 
L 156.304668 276.491917 
L 157.288377 276.491917 
L 157.288377 276.024166 
L 160.029123 276.024166 
L 160.029123 275.556414 
L 160.287262 275.556414 
L 160.287262 275.088662 
L 162.463734 275.088662 
L 162.463734 274.62091 
L 162.683672 274.62091 
L 162.683672 273.685407 
L 163.205379 273.685407 
L 163.205379 273.217655 
L 164.129077 273.217655 
L 164.129077 272.749903 
L 165.586508 272.749903 
L 165.586508 271.8144 
L 165.772971 271.8144 
L 165.862536 269.943393 
L 165.927947 269.943393 
L 165.927947 269.00789 
L 166.661411 269.00789 
L 166.661411 268.540138 
L 166.939098 268.540138 
L 166.939098 268.072386 
L 168.467314 268.072386 
L 168.565601 266.201379 
L 168.637696 266.201379 
L 168.637696 265.733628 
L 168.867575 265.733628 
L 168.867575 264.798124 
L 169.214689 264.798124 
L 169.214689 264.330372 
L 169.403154 264.330372 
L 169.452437 262.927117 
L 169.604401 262.927117 
L 169.604401 262.459366 
L 169.721213 262.459366 
L 169.721213 261.991614 
L 170.228629 261.991614 
L 170.228629 261.523862 
L 170.841952 261.523862 
L 170.841952 261.05611 
L 171.271304 261.05611 
L 171.293632 260.120607 
L 172.131585 260.120607 
L 172.178481 259.185103 
L 172.419631 259.185103 
L 172.419631 258.2496 
L 173.11697 258.2496 
L 173.11697 257.314097 
L 173.242125 257.314097 
L 173.242125 256.846345 
L 173.398404 256.846345 
L 173.398404 256.378593 
L 174.756826 256.378593 
L 174.756826 255.910841 
L 175.431409 255.910841 
L 175.431409 255.44309 
L 176.10684 255.44309 
L 176.189589 253.572083 
L 176.343769 253.572083 
L 176.343769 253.104331 
L 176.57101 253.104331 
L 176.57101 252.636579 
L 177.311405 252.636579 
L 177.311405 252.168828 
L 177.867075 252.168828 
L 177.867075 251.701076 
L 178.219344 251.701076 
L 178.219344 251.233324 
L 178.495268 251.233324 
L 178.495268 250.297821 
L 179.167874 250.297821 
L 179.167874 249.830069 
L 179.360695 249.830069 
L 179.360695 249.362317 
L 179.519883 249.362317 
L 179.519883 248.426814 
L 179.646271 248.426814 
L 179.646271 247.49131 
L 179.941672 247.49131 
L 179.941672 247.023559 
L 180.090447 247.023559 
L 180.090447 246.088055 
L 180.943179 246.088055 
L 181.001874 245.152552 
L 181.635707 245.152552 
L 181.635707 244.6848 
L 181.812584 244.6848 
L 181.812584 244.217048 
L 182.303643 244.217048 
L 182.303643 243.281545 
L 182.457127 243.281545 
L 182.52112 241.87829 
L 183.080316 241.87829 
L 183.080316 241.410538 
L 183.274887 241.410538 
L 183.274887 240.475034 
L 183.537433 240.475034 
L 183.537433 239.539531 
L 184.441834 239.539531 
L 184.45514 237.668524 
L 184.988465 237.668524 
L 184.988465 236.733021 
L 185.302622 236.733021 
L 185.302622 235.797517 
L 185.553151 235.797517 
L 185.642864 234.394262 
L 187.105955 234.394262 
L 187.148272 232.991007 
L 187.49474 232.991007 
L 187.509824 231.12 
L 187.607576 231.12 
L 187.607576 230.652248 
L 187.938394 230.652248 
L 188.022949 229.716745 
L 188.283402 229.716745 
L 188.333981 227.845738 
L 188.694894 227.845738 
L 188.802535 226.442483 
L 189.257984 226.442483 
L 189.257984 225.974731 
L 190.155099 225.974731 
L 190.155099 225.039228 
L 190.379727 225.039228 
L 190.379727 224.103724 
L 190.495868 224.103724 
L 190.495868 223.168221 
L 190.783122 223.168221 
L 190.783122 222.232717 
L 191.011372 222.232717 
L 191.011372 221.297214 
L 191.513126 221.297214 
L 191.513126 220.36171 
L 191.813875 220.36171 
L 191.819872 218.958455 
L 192.019647 218.958455 
L 192.10694 217.5552 
L 192.828044 217.5552 
L 192.828044 216.619697 
L 193.842889 216.619697 
L 193.863068 213.813186 
L 194.13935 213.813186 
L 194.13935 212.877683 
L 194.472911 212.877683 
L 194.472911 211.942179 
L 194.703191 211.942179 
L 194.71476 210.538924 
L 194.970026 210.538924 
L 195.008019 209.135669 
L 195.240628 209.135669 
L 195.240628 208.667917 
L 195.603245 208.667917 
L 195.603245 207.732414 
L 196.595221 207.732414 
L 196.616139 205.861407 
L 196.784958 205.861407 
L 196.784958 205.393655 
L 197.022879 205.393655 
L 197.022879 204.925903 
L 198.531579 204.925903 
L 198.531579 203.9904 
L 198.737115 203.9904 
L 198.737115 203.054897 
L 202.183462 203.054897 
L 202.246424 201.18389 
L 203.275156 201.18389 
L 203.275156 200.248386 
L 203.443157 200.248386 
L 203.443157 199.780634 
L 205.506502 199.780634 
L 205.506502 199.312883 
L 205.708151 199.312883 
L 205.708151 198.845131 
L 206.188358 198.845131 
L 206.188358 198.377379 
L 206.818695 198.377379 
L 206.818695 197.909628 
L 208.536708 197.909628 
L 208.536708 197.441876 
L 210.517409 197.441876 
L 210.517409 196.974124 
L 210.946284 196.974124 
L 210.946284 196.038621 
L 360.8064 196.038621 
L 360.8064 196.038621 
" style="fill: none; stroke: #6495ed; stroke-width: 1.5; stroke-linecap: square"/>
   </g>
   <g id="line2d_51">
    <defs>
     <path id="m2815268ae4" d="M -0 6 
L 6 -6 
L -6 -6 
z
" style="stroke: #6495ed; stroke-width: 1.5; stroke-linejoin: miter"/>
    </defs>
    <g>
     <use xlink:href="#m2815268ae4" x="104.028784" y="286.782455" style="fill-opacity: 0; stroke: #6495ed; stroke-width: 1.5; stroke-linejoin: miter"/>
     <use xlink:href="#m2815268ae4" x="166.939098" y="268.072386" style="fill-opacity: 0; stroke: #6495ed; stroke-width: 1.5; stroke-linejoin: miter"/>
     <use xlink:href="#m2815268ae4" x="210.946284" y="196.974124" style="fill-opacity: 0; stroke: #6495ed; stroke-width: 1.5; stroke-linejoin: miter"/>
     <use xlink:href="#m2815268ae4" x="210.946284" y="196.038621" style="fill-opacity: 0; stroke: #6495ed; stroke-width: 1.5; stroke-linejoin: miter"/>
     <use xlink:href="#m2815268ae4" x="210.946284" y="196.038621" style="fill-opacity: 0; stroke: #6495ed; stroke-width: 1.5; stroke-linejoin: miter"/>
     <use xlink:href="#m2815268ae4" x="360.8064" y="196.038621" style="fill-opacity: 0; stroke: #6495ed; stroke-width: 1.5; stroke-linejoin: miter"/>
    </g>
   </g>
   <g id="line2d_52">
    <path style="fill: none; stroke: #6495ed; stroke-width: 1.5; stroke-linecap: square"/>
    <g/>
   </g>
   <g id="line2d_53">
    <path d="M 230.862117 196.038621 
" clip-path="url(#peaa5e07f29)" style="fill: none; stroke: #6495ed; stroke-width: 1.5; stroke-linecap: square"/>
    <defs>
     <path id="m617c6c9d8b" d="M -12 12 
L 12 -12 
M -12 -12 
L 12 12 
" style="stroke: #6495ed"/>
    </defs>
    <g clip-path="url(#peaa5e07f29)">
     <use xlink:href="#m617c6c9d8b" x="230.862117" y="196.038621" style="fill: #6495ed; stroke: #6495ed"/>
    </g>
   </g>
   <g id="line2d_54">
    <defs>
     <path id="m7a74bf8110" d="M 0 1.5 
C 0.397805 1.5 0.77937 1.341951 1.06066 1.06066 
C 1.341951 0.77937 1.5 0.397805 1.5 0 
C 1.5 -0.397805 1.341951 -0.77937 1.06066 -1.06066 
C 0.77937 -1.341951 0.397805 -1.5 0 -1.5 
C -0.397805 -1.5 -0.77937 -1.341951 -1.06066 -1.06066 
C -1.341951 -0.77937 -1.5 -0.397805 -1.5 0 
C -1.5 0.397805 -1.341951 0.77937 -1.06066 1.06066 
C -0.77937 1.341951 -0.397805 1.5 0 1.5 
z
" style="stroke: #ff0000"/>
    </defs>
    <g>
     <use xlink:href="#m7a74bf8110" x="205.533272" y="197.441876" style="fill: #ff0000; stroke: #ff0000"/>
     <use xlink:href="#m7a74bf8110" x="205.533272" y="197.441876" style="fill: #ff0000; stroke: #ff0000"/>
    </g>
   </g>
   <g id="line2d_55">
    <path d="M 14.2848 298.944 
L 14.2848 290.056717 
L 55.618005 290.056717 
L 55.618005 289.588966 
L 72.432107 289.588966 
L 72.432107 289.121214 
L 81.166416 289.121214 
L 81.166416 288.653462 
L 91.305777 288.653462 
L 91.305777 288.18571 
L 92.223596 288.18571 
L 92.223596 287.717959 
L 93.098709 287.717959 
L 93.098709 287.250207 
L 101.287718 287.250207 
L 101.287718 286.782455 
L 103.047088 286.782455 
L 103.047088 286.314703 
L 103.544339 286.314703 
L 103.544339 285.846952 
L 106.137884 285.846952 
L 106.137884 285.3792 
L 107.643612 285.3792 
L 107.643612 284.911448 
L 110.335561 284.911448 
L 110.335561 284.443697 
L 115.747307 284.443697 
L 115.747307 283.975945 
L 116.665126 283.975945 
L 116.665126 283.508193 
L 118.301945 283.508193 
L 118.301945 283.040441 
L 122.736994 283.040441 
L 122.736994 282.104938 
L 124.373813 282.104938 
L 124.373813 281.637186 
L 125.167667 281.637186 
L 125.167667 281.169434 
L 127.273627 281.169434 
L 127.319904 279.766179 
L 131.783764 279.766179 
L 131.820186 278.830676 
L 133.72196 278.830676 
L 133.72196 278.362924 
L 134.176839 278.362924 
L 134.176839 277.895172 
L 137.331728 277.895172 
L 137.331728 277.427421 
L 137.919637 277.427421 
L 137.919637 276.959669 
L 139.043049 276.959669 
L 139.043049 276.491917 
L 139.313723 276.491917 
L 139.313723 276.024166 
L 140.103135 276.024166 
L 140.103135 275.556414 
L 142.080444 275.556414 
L 142.080444 275.088662 
L 143.18612 275.088662 
L 143.18612 274.62091 
L 145.450347 274.62091 
L 145.450347 273.685407 
L 146.379077 273.685407 
L 146.395851 272.749903 
L 147.518533 272.749903 
L 147.518533 272.282152 
L 147.644469 272.282152 
L 147.644469 271.346648 
L 148.667336 271.346648 
L 148.667336 270.878897 
L 149.020615 270.878897 
L 149.020615 269.943393 
L 149.295664 269.943393 
L 149.295664 269.475641 
L 150.813548 269.475641 
L 150.813548 269.00789 
L 151.246016 269.00789 
L 151.246016 268.540138 
L 152.882835 268.540138 
L 152.882835 267.136883 
L 153.118868 267.136883 
L 153.142309 266.201379 
L 153.398253 266.201379 
L 153.398253 265.265876 
L 153.52493 265.265876 
L 153.52493 264.798124 
L 154.156931 264.798124 
L 154.156931 264.330372 
L 155.098517 264.330372 
L 155.098517 263.862621 
L 155.214281 263.862621 
L 155.214281 263.394869 
L 155.557358 263.394869 
L 155.557358 262.927117 
L 155.670341 262.927117 
L 155.670341 261.991614 
L 156.550574 261.991614 
L 156.657763 261.05611 
L 157.288377 261.05611 
L 157.382107 259.185103 
L 157.595929 259.185103 
L 157.595929 258.717352 
L 157.798206 258.717352 
L 157.798206 257.781848 
L 158.58624 257.781848 
L 158.58624 257.314097 
L 159.890533 257.314097 
L 159.890533 256.846345 
L 160.335271 256.846345 
L 160.335271 256.378593 
L 160.549809 256.378593 
L 160.549809 255.910841 
L 160.667947 255.910841 
L 160.746296 254.975338 
L 161.23253 254.975338 
L 161.23253 254.507586 
L 161.354042 254.507586 
L 161.36161 253.572083 
L 161.474774 253.572083 
L 161.474774 253.104331 
L 161.950101 253.104331 
L 161.950101 252.636579 
L 162.168843 252.636579 
L 162.17609 251.701076 
L 162.991492 251.701076 
L 162.991492 251.233324 
L 163.632702 251.233324 
L 163.706328 250.297821 
L 163.779668 250.297821 
L 163.779668 249.830069 
L 164.09639 249.830069 
L 164.09639 249.362317 
L 165.071763 249.362317 
L 165.071763 248.894566 
L 165.330896 248.894566 
L 165.330896 247.959062 
L 165.592552 247.959062 
L 165.592552 247.49131 
L 165.790918 247.49131 
L 165.790918 247.023559 
L 165.987215 247.023559 
L 165.987215 246.555807 
L 166.396941 246.555807 
L 166.500873 244.6848 
L 167.062453 244.6848 
L 167.123829 243.281545 
L 167.952041 243.281545 
L 168.042443 241.87829 
L 168.195663 241.87829 
L 168.195663 240.942786 
L 169.808349 240.942786 
L 169.909499 240.007283 
L 169.962267 240.007283 
L 170.067359 238.136276 
L 170.076884 238.136276 
L 170.119687 236.265269 
L 170.369787 236.265269 
L 170.369787 235.797517 
L 170.754894 235.797517 
L 170.754894 234.862014 
L 171.916937 234.862014 
L 171.916937 234.394262 
L 172.054594 234.394262 
L 172.054594 233.92651 
L 172.310016 233.92651 
L 172.33959 232.055503 
L 172.748826 232.055503 
L 172.748826 231.12 
L 172.905144 231.12 
L 172.905144 230.652248 
L 173.722818 230.652248 
L 173.722818 229.716745 
L 173.937319 229.716745 
L 173.937319 228.781241 
L 174.275513 228.781241 
L 174.275513 227.845738 
L 174.434805 227.845738 
L 174.434805 226.910234 
L 174.607735 226.910234 
L 174.607735 226.442483 
L 174.738254 226.442483 
L 174.738254 225.974731 
L 174.963589 225.974731 
L 174.963589 225.039228 
L 175.124467 225.039228 
L 175.124467 224.571476 
L 175.323647 224.571476 
L 175.323647 222.700469 
L 176.384671 222.700469 
L 176.384671 222.232717 
L 176.587858 222.232717 
L 176.587858 221.297214 
L 177.262725 221.297214 
L 177.262725 220.829462 
L 177.781919 220.829462 
L 177.781919 219.893959 
L 177.951847 219.893959 
L 177.951847 219.426207 
L 178.19462 219.426207 
L 178.19462 218.490703 
L 178.961184 218.490703 
L 178.961184 218.022952 
L 179.220658 218.022952 
L 179.220658 217.087448 
L 179.760436 217.087448 
L 179.760436 216.151945 
L 180.483348 216.151945 
L 180.483348 215.216441 
L 180.892341 215.216441 
L 180.892341 214.280938 
L 181.358089 214.280938 
L 181.360702 212.877683 
L 181.635707 212.877683 
L 181.635707 211.942179 
L 181.891511 211.942179 
L 181.891511 211.006676 
L 182.333448 211.006676 
L 182.333448 210.071172 
L 185.458805 210.071172 
L 185.458805 208.200166 
L 185.588671 208.200166 
L 185.588671 207.264662 
L 186.59455 207.264662 
L 186.59455 206.329159 
L 187.888587 206.329159 
L 187.888587 205.393655 
L 188.484905 205.393655 
L 188.484905 204.458152 
L 188.6506 204.458152 
L 188.694894 203.054897 
L 190.339232 203.054897 
L 190.339232 202.587145 
L 190.794205 202.587145 
L 190.794205 202.119393 
L 196.52299 202.119393 
L 196.52299 201.18389 
L 196.781504 201.18389 
L 196.781504 200.716138 
L 197.644473 200.716138 
L 197.644473 200.248386 
L 198.817878 200.248386 
L 198.817878 199.780634 
L 200.248828 199.780634 
L 200.248828 199.312883 
L 202.340046 199.312883 
L 202.340046 198.377379 
L 204.969632 198.377379 
L 204.969632 197.909628 
L 205.533272 197.909628 
L 205.533272 197.441876 
L 360.8064 197.441876 
L 360.8064 197.441876 
" style="fill: none; stroke: #ff0000; stroke-width: 1.5; stroke-linecap: square"/>
   </g>
   <g id="line2d_56">
    <defs>
     <path id="mfa0234077a" d="M 0 -6 
L -5.196152 -3 
L -5.196152 3 
L -0 6 
L 5.196152 3 
L 5.196152 -3 
z
" style="stroke: #ff0000; stroke-width: 1.5; stroke-linejoin: miter"/>
    </defs>
    <g>
     <use xlink:href="#mfa0234077a" x="142.080444" y="275.088662" style="fill-opacity: 0; stroke: #ff0000; stroke-width: 1.5; stroke-linejoin: miter"/>
     <use xlink:href="#mfa0234077a" x="205.533272" y="197.909628" style="fill-opacity: 0; stroke: #ff0000; stroke-width: 1.5; stroke-linejoin: miter"/>
     <use xlink:href="#mfa0234077a" x="205.533272" y="197.441876" style="fill-opacity: 0; stroke: #ff0000; stroke-width: 1.5; stroke-linejoin: miter"/>
     <use xlink:href="#mfa0234077a" x="205.533272" y="197.441876" style="fill-opacity: 0; stroke: #ff0000; stroke-width: 1.5; stroke-linejoin: miter"/>
     <use xlink:href="#mfa0234077a" x="360.8064" y="197.441876" style="fill-opacity: 0; stroke: #ff0000; stroke-width: 1.5; stroke-linejoin: miter"/>
    </g>
   </g>
   <g id="line2d_57">
    <path style="fill: none; stroke: #ff0000; stroke-width: 1.5; stroke-linecap: square"/>
    <g/>
   </g>
   <g id="line2d_58">
    <path d="M 274.176188 197.441876 
" clip-path="url(#peaa5e07f29)" style="fill: none; stroke: #ff0000; stroke-width: 1.5; stroke-linecap: square"/>
    <defs>
     <path id="mb974c6ec68" d="M -12 12 
L 12 -12 
M -12 -12 
L 12 12 
" style="stroke: #ff0000"/>
    </defs>
    <g clip-path="url(#peaa5e07f29)">
     <use xlink:href="#mb974c6ec68" x="274.176188" y="197.441876" style="fill: #ff0000; stroke: #ff0000"/>
    </g>
   </g>
   <g id="line2d_59">
    <path d="M 360.8064 203.9904 
L 380.514816 293.51808 
" style="fill: none; stroke: #ff7500; stroke-width: 1.5; stroke-linecap: square"/>
    <g>
     <use xlink:href="#me28239f747" x="360.8064" y="203.9904" style="fill-opacity: 0; stroke: #ff7500; stroke-width: 1.5; stroke-linejoin: bevel"/>
     <use xlink:href="#me28239f747" x="380.514816" y="293.51808" style="fill-opacity: 0; stroke: #ff7500; stroke-width: 1.5; stroke-linejoin: bevel"/>
    </g>
   </g>
   <g id="line2d_60">
    <path d="M 360.8064 197.441876 
L 380.514816 241.429248 
" style="fill: none; stroke: #ff0000; stroke-width: 1.5; stroke-linecap: square"/>
    <g>
     <use xlink:href="#mfa0234077a" x="360.8064" y="197.441876" style="fill-opacity: 0; stroke: #ff0000; stroke-width: 1.5; stroke-linejoin: miter"/>
     <use xlink:href="#mfa0234077a" x="380.514816" y="241.429248" style="fill-opacity: 0; stroke: #ff0000; stroke-width: 1.5; stroke-linejoin: miter"/>
    </g>
   </g>
   <g id="line2d_61">
    <path d="M 360.8064 196.038621 
L 380.514816 189.340416 
" style="fill: none; stroke: #000080; stroke-width: 1.5; stroke-linecap: square"/>
    <g>
     <use xlink:href="#m7b077c5517" x="360.8064" y="196.038621" style="fill-opacity: 0; stroke: #000080; stroke-width: 1.5"/>
     <use xlink:href="#m7b077c5517" x="380.514816" y="189.340416" style="fill-opacity: 0; stroke: #000080; stroke-width: 1.5"/>
    </g>
   </g>
   <g id="line2d_62">
    <path d="M 360.8064 196.038621 
L 380.514816 137.251584 
" style="fill: none; stroke: #6495ed; stroke-width: 1.5; stroke-linecap: square"/>
    <g>
     <use xlink:href="#m2815268ae4" x="360.8064" y="196.038621" style="fill-opacity: 0; stroke: #6495ed; stroke-width: 1.5; stroke-linejoin: miter"/>
     <use xlink:href="#m2815268ae4" x="380.514816" y="137.251584" style="fill-opacity: 0; stroke: #6495ed; stroke-width: 1.5; stroke-linejoin: miter"/>
    </g>
   </g>
   <g id="line2d_63">
    <path d="M 360.8064 189.957848 
L 380.514816 85.162752 
" style="fill: none; stroke: #ff00ff; stroke-width: 1.5; stroke-linecap: square"/>
    <g>
     <use xlink:href="#md8d1431ffe" x="360.8064" y="189.957848" style="fill-opacity: 0; stroke: #ff00ff; stroke-width: 1.5; stroke-linejoin: miter"/>
     <use xlink:href="#md8d1431ffe" x="380.514816" y="85.162752" style="fill-opacity: 0; stroke: #ff00ff; stroke-width: 1.5; stroke-linejoin: miter"/>
    </g>
   </g>
   <g id="line2d_64">
    <path d="M 360.8064 298.944 
L 360.8064 27.648 
" style="fill: none; stroke: #000000; stroke-width: 1.5; stroke-linecap: square"/>
   </g>
   <g id="patch_3">
    <path d="M 57.6 298.944 
L 360.8064 298.944 
" style="fill: none; stroke: #000000; stroke-width: 0.8; stroke-linejoin: miter; stroke-linecap: square"/>
   </g>
   <g id="patch_4">
    <path d="M 57.6 27.648 
L 360.8064 27.648 
" style="fill: none; stroke: #000000; stroke-width: 0.8; stroke-linejoin: miter; stroke-linecap: square"/>
   </g>
   <g id="text_13">
    <!-- kerComo -->
    <g transform="translate(386.578944 297.381205) scale(0.14 -0.14)">
     <defs>
      <path id="DejaVuSans-6b" d="M 581 4863 
L 1159 4863 
L 1159 1991 
L 2875 3500 
L 3609 3500 
L 1753 1863 
L 3688 0 
L 2938 0 
L 1159 1709 
L 1159 0 
L 581 0 
L 581 4863 
z
" transform="scale(0.015625)"/>
      <path id="DejaVuSans-43" d="M 4122 4306 
L 4122 3641 
Q 3803 3938 3442 4084 
Q 3081 4231 2675 4231 
Q 1875 4231 1450 3742 
Q 1025 3253 1025 2328 
Q 1025 1406 1450 917 
Q 1875 428 2675 428 
Q 3081 428 3442 575 
Q 3803 722 4122 1019 
L 4122 359 
Q 3791 134 3420 21 
Q 3050 -91 2638 -91 
Q 1578 -91 968 557 
Q 359 1206 359 2328 
Q 359 3453 968 4101 
Q 1578 4750 2638 4750 
Q 3056 4750 3426 4639 
Q 3797 4528 4122 4306 
z
" transform="scale(0.015625)"/>
     </defs>
     <use xlink:href="#DejaVuSans-6b"/>
     <use xlink:href="#DejaVuSans-65" x="54.285156"/>
     <use xlink:href="#DejaVuSans-72" x="115.808594"/>
     <use xlink:href="#DejaVuSans-43" x="156.921875"/>
     <use xlink:href="#DejaVuSans-6f" x="226.746094"/>
     <use xlink:href="#DejaVuSans-6d" x="287.927734"/>
     <use xlink:href="#DejaVuSans-6f" x="385.339844"/>
    </g>
   </g>
   <g id="text_14">
    <!-- COMO-10 d -->
    <g transform="translate(386.578944 245.292373) scale(0.14 -0.14)">
     <defs>
      <path id="DejaVuSans-4f" d="M 2522 4238 
Q 1834 4238 1429 3725 
Q 1025 3213 1025 2328 
Q 1025 1447 1429 934 
Q 1834 422 2522 422 
Q 3209 422 3611 934 
Q 4013 1447 4013 2328 
Q 4013 3213 3611 3725 
Q 3209 4238 2522 4238 
z
M 2522 4750 
Q 3503 4750 4090 4092 
Q 4678 3434 4678 2328 
Q 4678 1225 4090 567 
Q 3503 -91 2522 -91 
Q 1538 -91 948 565 
Q 359 1222 359 2328 
Q 359 3434 948 4092 
Q 1538 4750 2522 4750 
z
" transform="scale(0.015625)"/>
      <path id="DejaVuSans-4d" d="M 628 4666 
L 1569 4666 
L 2759 1491 
L 3956 4666 
L 4897 4666 
L 4897 0 
L 4281 0 
L 4281 4097 
L 3078 897 
L 2444 897 
L 1241 4097 
L 1241 0 
L 628 0 
L 628 4666 
z
" transform="scale(0.015625)"/>
     </defs>
     <use xlink:href="#DejaVuSans-43"/>
     <use xlink:href="#DejaVuSans-4f" x="69.824219"/>
     <use xlink:href="#DejaVuSans-4d" x="148.535156"/>
     <use xlink:href="#DejaVuSans-4f" x="234.814453"/>
     <use xlink:href="#DejaVuSans-2d" x="316.275391"/>
     <use xlink:href="#DejaVuSans-31" x="352.359375"/>
     <use xlink:href="#DejaVuSans-30" x="415.982422"/>
     <use xlink:href="#DejaVuSans-20" x="479.605469"/>
     <use xlink:href="#DejaVuSans-64" x="511.392578"/>
    </g>
   </g>
   <g id="text_15">
    <!-- AllComo -->
    <g transform="translate(386.578944 193.203541) scale(0.14 -0.14)">
     <defs>
      <path id="DejaVuSans-41" d="M 2188 4044 
L 1331 1722 
L 3047 1722 
L 2188 4044 
z
M 1831 4666 
L 2547 4666 
L 4325 0 
L 3669 0 
L 3244 1197 
L 1141 1197 
L 716 0 
L 50 0 
L 1831 4666 
z
" transform="scale(0.015625)"/>
     </defs>
     <use xlink:href="#DejaVuSans-41"/>
     <use xlink:href="#DejaVuSans-6c" x="68.408203"/>
     <use xlink:href="#DejaVuSans-6c" x="96.191406"/>
     <use xlink:href="#DejaVuSans-43" x="123.974609"/>
     <use xlink:href="#DejaVuSans-6f" x="193.798828"/>
     <use xlink:href="#DejaVuSans-6d" x="254.980469"/>
     <use xlink:href="#DejaVuSans-6f" x="352.392578"/>
    </g>
   </g>
   <g id="text_16">
    <!-- kerLQ -->
    <g transform="translate(386.578944 141.114709) scale(0.14 -0.14)">
     <defs>
      <path id="DejaVuSans-4c" d="M 628 4666 
L 1259 4666 
L 1259 531 
L 3531 531 
L 3531 0 
L 628 0 
L 628 4666 
z
" transform="scale(0.015625)"/>
      <path id="DejaVuSans-51" d="M 2522 4238 
Q 1834 4238 1429 3725 
Q 1025 3213 1025 2328 
Q 1025 1447 1429 934 
Q 1834 422 2522 422 
Q 3209 422 3611 934 
Q 4013 1447 4013 2328 
Q 4013 3213 3611 3725 
Q 3209 4238 2522 4238 
z
M 3406 84 
L 4238 -825 
L 3475 -825 
L 2784 -78 
Q 2681 -84 2626 -87 
Q 2572 -91 2522 -91 
Q 1538 -91 948 567 
Q 359 1225 359 2328 
Q 359 3434 948 4092 
Q 1538 4750 2522 4750 
Q 3503 4750 4090 4092 
Q 4678 3434 4678 2328 
Q 4678 1516 4351 937 
Q 4025 359 3406 84 
z
" transform="scale(0.015625)"/>
     </defs>
     <use xlink:href="#DejaVuSans-6b"/>
     <use xlink:href="#DejaVuSans-65" x="54.285156"/>
     <use xlink:href="#DejaVuSans-72" x="115.808594"/>
     <use xlink:href="#DejaVuSans-4c" x="156.921875"/>
     <use xlink:href="#DejaVuSans-51" x="212.634766"/>
    </g>
   </g>
   <g id="text_17">
    <!-- AllLQ -->
    <g transform="translate(386.578944 89.025877) scale(0.14 -0.14)">
     <use xlink:href="#DejaVuSans-41"/>
     <use xlink:href="#DejaVuSans-6c" x="68.408203"/>
     <use xlink:href="#DejaVuSans-6c" x="96.191406"/>
     <use xlink:href="#DejaVuSans-4c" x="123.974609"/>
     <use xlink:href="#DejaVuSans-51" x="179.6875"/>
    </g>
   </g>
   <g id="text_18">
    <!-- best 2016 -->
    <g transform="translate(386.578944 36.937045) scale(0.14 -0.14)">
     <defs>
      <path id="DejaVuSans-62" d="M 3116 1747 
Q 3116 2381 2855 2742 
Q 2594 3103 2138 3103 
Q 1681 3103 1420 2742 
Q 1159 2381 1159 1747 
Q 1159 1113 1420 752 
Q 1681 391 2138 391 
Q 2594 391 2855 752 
Q 3116 1113 3116 1747 
z
M 1159 2969 
Q 1341 3281 1617 3432 
Q 1894 3584 2278 3584 
Q 2916 3584 3314 3078 
Q 3713 2572 3713 1747 
Q 3713 922 3314 415 
Q 2916 -91 2278 -91 
Q 1894 -91 1617 61 
Q 1341 213 1159 525 
L 1159 0 
L 581 0 
L 581 4863 
L 1159 4863 
L 1159 2969 
z
" transform="scale(0.015625)"/>
     </defs>
     <use xlink:href="#DejaVuSans-62"/>
     <use xlink:href="#DejaVuSans-65" x="63.476562"/>
     <use xlink:href="#DejaVuSans-73" x="125"/>
     <use xlink:href="#DejaVuSans-74" x="177.099609"/>
     <use xlink:href="#DejaVuSans-20" x="216.308594"/>
     <use xlink:href="#DejaVuSans-32" x="248.095703"/>
     <use xlink:href="#DejaVuSans-30" x="311.71875"/>
     <use xlink:href="#DejaVuSans-31" x="375.341797"/>
     <use xlink:href="#DejaVuSans-36" x="438.964844"/>
    </g>
   </g>
   <g id="text_19">
    <!-- bbob-biobj f22, 10-D -->
    <g transform="translate(60.632064 38.111366) scale(0.102 -0.102)">
     <defs>
      <path id="DejaVuSans-6a" d="M 603 3500 
L 1178 3500 
L 1178 -63 
Q 1178 -731 923 -1031 
Q 669 -1331 103 -1331 
L -116 -1331 
L -116 -844 
L 38 -844 
Q 366 -844 484 -692 
Q 603 -541 603 -63 
L 603 3500 
z
M 603 4863 
L 1178 4863 
L 1178 4134 
L 603 4134 
L 603 4863 
z
" transform="scale(0.015625)"/>
      <path id="DejaVuSans-44" d="M 1259 4147 
L 1259 519 
L 2022 519 
Q 2988 519 3436 956 
Q 3884 1394 3884 2338 
Q 3884 3275 3436 3711 
Q 2988 4147 2022 4147 
L 1259 4147 
z
M 628 4666 
L 1925 4666 
Q 3281 4666 3915 4102 
Q 4550 3538 4550 2338 
Q 4550 1131 3912 565 
Q 3275 0 1925 0 
L 628 0 
L 628 4666 
z
" transform="scale(0.015625)"/>
     </defs>
     <use xlink:href="#DejaVuSans-62"/>
     <use xlink:href="#DejaVuSans-62" x="63.476562"/>
     <use xlink:href="#DejaVuSans-6f" x="126.953125"/>
     <use xlink:href="#DejaVuSans-62" x="188.134766"/>
     <use xlink:href="#DejaVuSans-2d" x="251.611328"/>
     <use xlink:href="#DejaVuSans-62" x="287.695312"/>
     <use xlink:href="#DejaVuSans-69" x="351.171875"/>
     <use xlink:href="#DejaVuSans-6f" x="378.955078"/>
     <use xlink:href="#DejaVuSans-62" x="440.136719"/>
     <use xlink:href="#DejaVuSans-6a" x="503.613281"/>
     <use xlink:href="#DejaVuSans-20" x="531.396484"/>
     <use xlink:href="#DejaVuSans-66" x="563.183594"/>
     <use xlink:href="#DejaVuSans-32" x="598.388672"/>
     <use xlink:href="#DejaVuSans-32" x="662.011719"/>
     <use xlink:href="#DejaVuSans-2c" x="725.634766"/>
     <use xlink:href="#DejaVuSans-20" x="757.421875"/>
     <use xlink:href="#DejaVuSans-31" x="789.208984"/>
     <use xlink:href="#DejaVuSans-30" x="852.832031"/>
     <use xlink:href="#DejaVuSans-2d" x="916.455078"/>
     <use xlink:href="#DejaVuSans-44" x="952.539062"/>
    </g>
    <!-- 58 targets: 1..-1.0e-4 -->
    <g transform="translate(60.632064 49.533135) scale(0.102 -0.102)">
     <defs>
      <path id="DejaVuSans-35" d="M 691 4666 
L 3169 4666 
L 3169 4134 
L 1269 4134 
L 1269 2991 
Q 1406 3038 1543 3061 
Q 1681 3084 1819 3084 
Q 2600 3084 3056 2656 
Q 3513 2228 3513 1497 
Q 3513 744 3044 326 
Q 2575 -91 1722 -91 
Q 1428 -91 1123 -41 
Q 819 9 494 109 
L 494 744 
Q 775 591 1075 516 
Q 1375 441 1709 441 
Q 2250 441 2565 725 
Q 2881 1009 2881 1497 
Q 2881 1984 2565 2268 
Q 2250 2553 1709 2553 
Q 1456 2553 1204 2497 
Q 953 2441 691 2322 
L 691 4666 
z
" transform="scale(0.015625)"/>
      <path id="DejaVuSans-3a" d="M 750 794 
L 1409 794 
L 1409 0 
L 750 0 
L 750 794 
z
M 750 3309 
L 1409 3309 
L 1409 2516 
L 750 2516 
L 750 3309 
z
" transform="scale(0.015625)"/>
     </defs>
     <use xlink:href="#DejaVuSans-35"/>
     <use xlink:href="#DejaVuSans-38" x="63.623047"/>
     <use xlink:href="#DejaVuSans-20" x="127.246094"/>
     <use xlink:href="#DejaVuSans-74" x="159.033203"/>
     <use xlink:href="#DejaVuSans-61" x="198.242188"/>
     <use xlink:href="#DejaVuSans-72" x="259.521484"/>
     <use xlink:href="#DejaVuSans-67" x="298.884766"/>
     <use xlink:href="#DejaVuSans-65" x="362.361328"/>
     <use xlink:href="#DejaVuSans-74" x="423.884766"/>
     <use xlink:href="#DejaVuSans-73" x="463.09375"/>
     <use xlink:href="#DejaVuSans-3a" x="515.193359"/>
     <use xlink:href="#DejaVuSans-20" x="548.884766"/>
     <use xlink:href="#DejaVuSans-31" x="580.671875"/>
     <use xlink:href="#DejaVuSans-2e" x="644.294922"/>
     <use xlink:href="#DejaVuSans-2e" x="676.082031"/>
     <use xlink:href="#DejaVuSans-2d" x="707.869141"/>
     <use xlink:href="#DejaVuSans-31" x="743.953125"/>
     <use xlink:href="#DejaVuSans-2e" x="807.576172"/>
     <use xlink:href="#DejaVuSans-30" x="839.363281"/>
     <use xlink:href="#DejaVuSans-65" x="902.986328"/>
     <use xlink:href="#DejaVuSans-2d" x="964.509766"/>
     <use xlink:href="#DejaVuSans-34" x="1000.59375"/>
    </g>
    <!-- 10 instances -->
    <g transform="translate(60.632064 60.954904) scale(0.102 -0.102)">
     <use xlink:href="#DejaVuSans-31"/>
     <use xlink:href="#DejaVuSans-30" x="63.623047"/>
     <use xlink:href="#DejaVuSans-20" x="127.246094"/>
     <use xlink:href="#DejaVuSans-69" x="159.033203"/>
     <use xlink:href="#DejaVuSans-6e" x="186.816406"/>
     <use xlink:href="#DejaVuSans-73" x="250.195312"/>
     <use xlink:href="#DejaVuSans-74" x="302.294922"/>
     <use xlink:href="#DejaVuSans-61" x="341.503906"/>
     <use xlink:href="#DejaVuSans-6e" x="402.783203"/>
     <use xlink:href="#DejaVuSans-63" x="466.162109"/>
     <use xlink:href="#DejaVuSans-65" x="521.142578"/>
     <use xlink:href="#DejaVuSans-73" x="582.666016"/>
    </g>
   </g>
   <g id="text_20">
    <!-- v2.6, hv-hash=d240b271ab0b4926 -->
    <g style="fill: #808080" transform="translate(120.362575 294.151352) scale(0.1 -0.1)">
     <defs>
      <path id="DejaVuSans-68" d="M 3513 2113 
L 3513 0 
L 2938 0 
L 2938 2094 
Q 2938 2591 2744 2837 
Q 2550 3084 2163 3084 
Q 1697 3084 1428 2787 
Q 1159 2491 1159 1978 
L 1159 0 
L 581 0 
L 581 4863 
L 1159 4863 
L 1159 2956 
Q 1366 3272 1645 3428 
Q 1925 3584 2291 3584 
Q 2894 3584 3203 3211 
Q 3513 2838 3513 2113 
z
" transform="scale(0.015625)"/>
      <path id="DejaVuSans-3d" d="M 678 2906 
L 4684 2906 
L 4684 2381 
L 678 2381 
L 678 2906 
z
M 678 1631 
L 4684 1631 
L 4684 1100 
L 678 1100 
L 678 1631 
z
" transform="scale(0.015625)"/>
      <path id="DejaVuSans-37" d="M 525 4666 
L 3525 4666 
L 3525 4397 
L 1831 0 
L 1172 0 
L 2766 4134 
L 525 4134 
L 525 4666 
z
" transform="scale(0.015625)"/>
      <path id="DejaVuSans-39" d="M 703 97 
L 703 672 
Q 941 559 1184 500 
Q 1428 441 1663 441 
Q 2288 441 2617 861 
Q 2947 1281 2994 2138 
Q 2813 1869 2534 1725 
Q 2256 1581 1919 1581 
Q 1219 1581 811 2004 
Q 403 2428 403 3163 
Q 403 3881 828 4315 
Q 1253 4750 1959 4750 
Q 2769 4750 3195 4129 
Q 3622 3509 3622 2328 
Q 3622 1225 3098 567 
Q 2575 -91 1691 -91 
Q 1453 -91 1209 -44 
Q 966 3 703 97 
z
M 1959 2075 
Q 2384 2075 2632 2365 
Q 2881 2656 2881 3163 
Q 2881 3666 2632 3958 
Q 2384 4250 1959 4250 
Q 1534 4250 1286 3958 
Q 1038 3666 1038 3163 
Q 1038 2656 1286 2365 
Q 1534 2075 1959 2075 
z
" transform="scale(0.015625)"/>
     </defs>
     <use xlink:href="#DejaVuSans-76"/>
     <use xlink:href="#DejaVuSans-32" x="59.179688"/>
     <use xlink:href="#DejaVuSans-2e" x="122.802734"/>
     <use xlink:href="#DejaVuSans-36" x="154.589844"/>
     <use xlink:href="#DejaVuSans-2c" x="218.212891"/>
     <use xlink:href="#DejaVuSans-20" x="250"/>
     <use xlink:href="#DejaVuSans-68" x="281.787109"/>
     <use xlink:href="#DejaVuSans-76" x="345.166016"/>
     <use xlink:href="#DejaVuSans-2d" x="401.720703"/>
     <use xlink:href="#DejaVuSans-68" x="437.804688"/>
     <use xlink:href="#DejaVuSans-61" x="501.183594"/>
     <use xlink:href="#DejaVuSans-73" x="562.462891"/>
     <use xlink:href="#DejaVuSans-68" x="614.5625"/>
     <use xlink:href="#DejaVuSans-3d" x="677.941406"/>
     <use xlink:href="#DejaVuSans-64" x="761.730469"/>
     <use xlink:href="#DejaVuSans-32" x="825.207031"/>
     <use xlink:href="#DejaVuSans-34" x="888.830078"/>
     <use xlink:href="#DejaVuSans-30" x="952.453125"/>
     <use xlink:href="#DejaVuSans-62" x="1016.076172"/>
     <use xlink:href="#DejaVuSans-32" x="1079.552734"/>
     <use xlink:href="#DejaVuSans-37" x="1143.175781"/>
     <use xlink:href="#DejaVuSans-31" x="1206.798828"/>
     <use xlink:href="#DejaVuSans-61" x="1270.421875"/>
     <use xlink:href="#DejaVuSans-62" x="1331.701172"/>
     <use xlink:href="#DejaVuSans-30" x="1395.177734"/>
     <use xlink:href="#DejaVuSans-62" x="1458.800781"/>
     <use xlink:href="#DejaVuSans-34" x="1522.277344"/>
     <use xlink:href="#DejaVuSans-39" x="1585.900391"/>
     <use xlink:href="#DejaVuSans-32" x="1649.523438"/>
     <use xlink:href="#DejaVuSans-36" x="1713.146484"/>
    </g>
   </g>
   <g id="text_21">
    <!-- 22 Attr. sector/Sharp ridge -->
    <g transform="translate(76.668825 21.648) scale(0.2 -0.2)">
     <defs>
      <path id="DejaVuSans-53" d="M 3425 4513 
L 3425 3897 
Q 3066 4069 2747 4153 
Q 2428 4238 2131 4238 
Q 1616 4238 1336 4038 
Q 1056 3838 1056 3469 
Q 1056 3159 1242 3001 
Q 1428 2844 1947 2747 
L 2328 2669 
Q 3034 2534 3370 2195 
Q 3706 1856 3706 1288 
Q 3706 609 3251 259 
Q 2797 -91 1919 -91 
Q 1588 -91 1214 -16 
Q 841 59 441 206 
L 441 856 
Q 825 641 1194 531 
Q 1563 422 1919 422 
Q 2459 422 2753 634 
Q 3047 847 3047 1241 
Q 3047 1584 2836 1778 
Q 2625 1972 2144 2069 
L 1759 2144 
Q 1053 2284 737 2584 
Q 422 2884 422 3419 
Q 422 4038 858 4394 
Q 1294 4750 2059 4750 
Q 2388 4750 2728 4690 
Q 3069 4631 3425 4513 
z
" transform="scale(0.015625)"/>
     </defs>
     <use xlink:href="#DejaVuSans-32"/>
     <use xlink:href="#DejaVuSans-32" x="63.623047"/>
     <use xlink:href="#DejaVuSans-20" x="127.246094"/>
     <use xlink:href="#DejaVuSans-41" x="159.033203"/>
     <use xlink:href="#DejaVuSans-74" x="225.691406"/>
     <use xlink:href="#DejaVuSans-74" x="264.900391"/>
     <use xlink:href="#DejaVuSans-72" x="304.109375"/>
     <use xlink:href="#DejaVuSans-2e" x="336.097656"/>
     <use xlink:href="#DejaVuSans-20" x="367.884766"/>
     <use xlink:href="#DejaVuSans-73" x="399.671875"/>
     <use xlink:href="#DejaVuSans-65" x="451.771484"/>
     <use xlink:href="#DejaVuSans-63" x="513.294922"/>
     <use xlink:href="#DejaVuSans-74" x="568.275391"/>
     <use xlink:href="#DejaVuSans-6f" x="607.484375"/>
     <use xlink:href="#DejaVuSans-72" x="668.666016"/>
     <use xlink:href="#DejaVuSans-2f" x="709.779297"/>
     <use xlink:href="#DejaVuSans-53" x="743.470703"/>
     <use xlink:href="#DejaVuSans-68" x="806.947266"/>
     <use xlink:href="#DejaVuSans-61" x="870.326172"/>
     <use xlink:href="#DejaVuSans-72" x="931.605469"/>
     <use xlink:href="#DejaVuSans-70" x="972.71875"/>
     <use xlink:href="#DejaVuSans-20" x="1036.195312"/>
     <use xlink:href="#DejaVuSans-72" x="1067.982422"/>
     <use xlink:href="#DejaVuSans-69" x="1109.095703"/>
     <use xlink:href="#DejaVuSans-64" x="1136.878906"/>
     <use xlink:href="#DejaVuSans-67" x="1200.355469"/>
     <use xlink:href="#DejaVuSans-65" x="1263.832031"/>
    </g>
   </g>
  </g>
 </g>
 <defs>
  <clipPath id="peaa5e07f29">
   <rect x="57.6" y="27.648" width="303.2064" height="271.296"/>
  </clipPath>
 </defs>
</svg>
