<?xml version="1.0" encoding="utf-8" standalone="no"?>
<!DOCTYPE svg PUBLIC "-//W3C//DTD SVG 1.1//EN"
  "http://www.w3.org/Graphics/SVG/1.1/DTD/svg11.dtd">
<svg xmlns:xlink="http://www.w3.org/1999/xlink" width="460.8pt" height="345.6pt" viewBox="0 0 460.8 345.6" xmlns="http://www.w3.org/2000/svg" version="1.1">
 <metadata>
  <rdf:RDF xmlns:dc="http://purl.org/dc/elements/1.1/" xmlns:cc="http://creativecommons.org/ns#" xmlns:rdf="http://www.w3.org/1999/02/22-rdf-syntax-ns#">
   <cc:Work>
    <dc:type rdf:resource="http://purl.org/dc/dcmitype/StillImage"/>
    <dc:date>2023-02-10T02:07:50.999466</dc:date>
    <dc:format>image/svg+xml</dc:format>
    <dc:creator>
     <cc:Agent>
      <dc:title>Matplotlib v3.6.3, https://matplotlib.org/</dc:title>
     </cc:Agent>
    </dc:creator>
   </cc:Work>
  </rdf:RDF>
 </metadata>
 <defs>
  <style type="text/css">*{stroke-linejoin: round; stroke-linecap: butt}</style>
 </defs>
 <g id="figure_1">
  <g id="patch_1">
   <path d="M 0 345.6 
L 460.8 345.6 
L 460.8 0 
L 0 0 
z
" style="fill: #ffffff"/>
  </g>
  <g id="axes_1">
   <g id="patch_2">
    <path d="M 57.6 298.944 
L 360.8064 298.944 
L 360.8064 27.648 
L 57.6 27.648 
z
" style="fill: #ffffff"/>
   </g>
   <g id="line2d_1">
    <path d="M 27.323974 298.944 
L 27.323974 294.266483 
L 53.402323 294.266483 
L 53.402323 284.911448 
L 68.65718 284.911448 
L 68.65718 275.556414 
L 86.307488 275.556414 
L 86.307488 270.878897 
L 91.922605 270.878897 
L 91.922605 256.846345 
L 104.028784 256.846345 
L 104.028784 247.49131 
L 112.385837 247.49131 
L 112.385837 242.813793 
L 120.813877 242.813793 
L 120.813877 233.458759 
L 131.115828 233.458759 
L 131.115828 219.426207 
L 140.905699 219.426207 
L 140.905699 210.071172 
L 148.216198 210.071172 
L 148.216198 200.716138 
L 155.495444 200.716138 
L 155.495444 191.361103 
L 162.520739 191.361103 
L 162.520739 186.683586 
L 169.442591 186.683586 
L 169.442591 172.651034 
L 178.698081 172.651034 
L 178.698081 167.973517 
L 185.183561 167.973517 
L 185.183561 153.940966 
L 196.459852 153.940966 
L 196.459852 144.585931 
L 204.078689 144.585931 
L 204.078689 139.908414 
L 212.42793 139.908414 
L 212.42793 125.875862 
L 220.601956 125.875862 
L 220.601956 121.198345 
L 227.668079 121.198345 
L 227.668079 107.165793 
L 235.555696 107.165793 
L 235.555696 97.810759 
L 244.165591 97.810759 
L 244.165591 88.455724 
L 253.304367 88.455724 
L 253.304367 83.778207 
L 259.030347 83.778207 
L 259.030347 74.423172 
L 265.223533 74.423172 
L 265.223533 60.390621 
L 360.8064 60.390621 
" style="fill: none; stroke: #f5deb3; stroke-width: 4; stroke-linecap: square"/>
   </g>
   <g id="line2d_2">
    <defs>
     <path id="m68b9a40984" d="M -0 7.778175 
L 7.778175 0 
L 0 -7.778175 
L -7.778175 -0 
z
" style="stroke: #f5deb3; stroke-width: 1.5; stroke-linejoin: miter"/>
    </defs>
    <g>
     <use xlink:href="#m68b9a40984" x="86.307488" y="275.556414" style="fill: #f5deb3; stroke: #f5deb3; stroke-width: 1.5; stroke-linejoin: miter"/>
     <use xlink:href="#m68b9a40984" x="148.216198" y="200.716138" style="fill: #f5deb3; stroke: #f5deb3; stroke-width: 1.5; stroke-linejoin: miter"/>
     <use xlink:href="#m68b9a40984" x="204.078689" y="144.585931" style="fill: #f5deb3; stroke: #f5deb3; stroke-width: 1.5; stroke-linejoin: miter"/>
     <use xlink:href="#m68b9a40984" x="265.223533" y="74.423172" style="fill: #f5deb3; stroke: #f5deb3; stroke-width: 1.5; stroke-linejoin: miter"/>
     <use xlink:href="#m68b9a40984" x="265.223533" y="60.390621" style="fill: #f5deb3; stroke: #f5deb3; stroke-width: 1.5; stroke-linejoin: miter"/>
     <use xlink:href="#m68b9a40984" x="360.8064" y="60.390621" style="fill: #f5deb3; stroke: #f5deb3; stroke-width: 1.5; stroke-linejoin: miter"/>
    </g>
   </g>
   <g id="line2d_3">
    <path style="fill: none; stroke: #f5deb3; stroke-width: 4; stroke-linecap: square"/>
    <g/>
   </g>
   <g id="line2d_4">
    <path d="M 360.8064 60.390621 
L 380.514816 33.07392 
" style="fill: none; stroke: #f5deb3; stroke-width: 4; stroke-linecap: square"/>
    <g>
     <use xlink:href="#m68b9a40984" x="360.8064" y="60.390621" style="fill: #f5deb3; stroke: #f5deb3; stroke-width: 1.5; stroke-linejoin: miter"/>
     <use xlink:href="#m68b9a40984" x="380.514816" y="33.07392" style="fill: #f5deb3; stroke: #f5deb3; stroke-width: 1.5; stroke-linejoin: miter"/>
    </g>
   </g>
   <g id="matplotlib.axis_1">
    <g id="xtick_1">
     <g id="line2d_5">
      <path d="M 57.6 298.944 
L 57.6 27.648 
" clip-path="url(#pdc6d5558e7)" style="fill: none; stroke: #b0b0b0; stroke-width: 0.8; stroke-linecap: square"/>
     </g>
     <g id="line2d_6">
      <defs>
       <path id="m71502b7fc7" d="M 0 0 
L 0 3.5 
" style="stroke: #000000; stroke-width: 0.8"/>
      </defs>
      <g>
       <use xlink:href="#m71502b7fc7" x="57.6" y="298.944" style="stroke: #000000; stroke-width: 0.8"/>
      </g>
     </g>
     <g id="text_1">
      <!-- 0 -->
      <g transform="translate(52.191875 318.861344) scale(0.17 -0.17)">
       <defs>
        <path id="DejaVuSans-30" d="M 2034 4250 
Q 1547 4250 1301 3770 
Q 1056 3291 1056 2328 
Q 1056 1369 1301 889 
Q 1547 409 2034 409 
Q 2525 409 2770 889 
Q 3016 1369 3016 2328 
Q 3016 3291 2770 3770 
Q 2525 4250 2034 4250 
z
M 2034 4750 
Q 2819 4750 3233 4129 
Q 3647 3509 3647 2328 
Q 3647 1150 3233 529 
Q 2819 -91 2034 -91 
Q 1250 -91 836 529 
Q 422 1150 422 2328 
Q 422 3509 836 4129 
Q 1250 4750 2034 4750 
z
" transform="scale(0.015625)"/>
       </defs>
       <use xlink:href="#DejaVuSans-30"/>
      </g>
     </g>
    </g>
    <g id="xtick_2">
     <g id="line2d_7">
      <path d="M 144.2304 298.944 
L 144.2304 27.648 
" clip-path="url(#pdc6d5558e7)" style="fill: none; stroke: #b0b0b0; stroke-width: 0.8; stroke-linecap: square"/>
     </g>
     <g id="line2d_8">
      <g>
       <use xlink:href="#m71502b7fc7" x="144.2304" y="298.944" style="stroke: #000000; stroke-width: 0.8"/>
      </g>
     </g>
     <g id="text_2">
      <!-- 2 -->
      <g transform="translate(138.822275 318.861344) scale(0.17 -0.17)">
       <defs>
        <path id="DejaVuSans-32" d="M 1228 531 
L 3431 531 
L 3431 0 
L 469 0 
L 469 531 
Q 828 903 1448 1529 
Q 2069 2156 2228 2338 
Q 2531 2678 2651 2914 
Q 2772 3150 2772 3378 
Q 2772 3750 2511 3984 
Q 2250 4219 1831 4219 
Q 1534 4219 1204 4116 
Q 875 4013 500 3803 
L 500 4441 
Q 881 4594 1212 4672 
Q 1544 4750 1819 4750 
Q 2544 4750 2975 4387 
Q 3406 4025 3406 3419 
Q 3406 3131 3298 2873 
Q 3191 2616 2906 2266 
Q 2828 2175 2409 1742 
Q 1991 1309 1228 531 
z
" transform="scale(0.015625)"/>
       </defs>
       <use xlink:href="#DejaVuSans-32"/>
      </g>
     </g>
    </g>
    <g id="xtick_3">
     <g id="line2d_9">
      <path d="M 230.8608 298.944 
L 230.8608 27.648 
" clip-path="url(#pdc6d5558e7)" style="fill: none; stroke: #b0b0b0; stroke-width: 0.8; stroke-linecap: square"/>
     </g>
     <g id="line2d_10">
      <g>
       <use xlink:href="#m71502b7fc7" x="230.8608" y="298.944" style="stroke: #000000; stroke-width: 0.8"/>
      </g>
     </g>
     <g id="text_3">
      <!-- 4 -->
      <g transform="translate(225.452675 318.861344) scale(0.17 -0.17)">
       <defs>
        <path id="DejaVuSans-34" d="M 2419 4116 
L 825 1625 
L 2419 1625 
L 2419 4116 
z
M 2253 4666 
L 3047 4666 
L 3047 1625 
L 3713 1625 
L 3713 1100 
L 3047 1100 
L 3047 0 
L 2419 0 
L 2419 1100 
L 313 1100 
L 313 1709 
L 2253 4666 
z
" transform="scale(0.015625)"/>
       </defs>
       <use xlink:href="#DejaVuSans-34"/>
      </g>
     </g>
    </g>
    <g id="xtick_4">
     <g id="line2d_11">
      <path d="M 317.4912 298.944 
L 317.4912 27.648 
" clip-path="url(#pdc6d5558e7)" style="fill: none; stroke: #b0b0b0; stroke-width: 0.8; stroke-linecap: square"/>
     </g>
     <g id="line2d_12">
      <g>
       <use xlink:href="#m71502b7fc7" x="317.4912" y="298.944" style="stroke: #000000; stroke-width: 0.8"/>
      </g>
     </g>
     <g id="text_4">
      <!-- 6 -->
      <g transform="translate(312.083075 318.861344) scale(0.17 -0.17)">
       <defs>
        <path id="DejaVuSans-36" d="M 2113 2584 
Q 1688 2584 1439 2293 
Q 1191 2003 1191 1497 
Q 1191 994 1439 701 
Q 1688 409 2113 409 
Q 2538 409 2786 701 
Q 3034 994 3034 1497 
Q 3034 2003 2786 2293 
Q 2538 2584 2113 2584 
z
M 3366 4563 
L 3366 3988 
Q 3128 4100 2886 4159 
Q 2644 4219 2406 4219 
Q 1781 4219 1451 3797 
Q 1122 3375 1075 2522 
Q 1259 2794 1537 2939 
Q 1816 3084 2150 3084 
Q 2853 3084 3261 2657 
Q 3669 2231 3669 1497 
Q 3669 778 3244 343 
Q 2819 -91 2113 -91 
Q 1303 -91 875 529 
Q 447 1150 447 2328 
Q 447 3434 972 4092 
Q 1497 4750 2381 4750 
Q 2619 4750 2861 4703 
Q 3103 4656 3366 4563 
z
" transform="scale(0.015625)"/>
       </defs>
       <use xlink:href="#DejaVuSans-36"/>
      </g>
     </g>
    </g>
    <g id="xtick_5">
     <g id="line2d_13">
      <path d="M 100.9152 298.944 
L 100.9152 27.648 
" clip-path="url(#pdc6d5558e7)" style="fill: none; stroke: #b0b0b0; stroke-width: 0.8; stroke-linecap: square"/>
     </g>
     <g id="line2d_14">
      <defs>
       <path id="m6486b74ade" d="M 0 0 
L 0 2 
" style="stroke: #000000; stroke-width: 0.6"/>
      </defs>
      <g>
       <use xlink:href="#m6486b74ade" x="100.9152" y="298.944" style="stroke: #000000; stroke-width: 0.6"/>
      </g>
     </g>
    </g>
    <g id="xtick_6">
     <g id="line2d_15">
      <path d="M 187.5456 298.944 
L 187.5456 27.648 
" clip-path="url(#pdc6d5558e7)" style="fill: none; stroke: #b0b0b0; stroke-width: 0.8; stroke-linecap: square"/>
     </g>
     <g id="line2d_16">
      <g>
       <use xlink:href="#m6486b74ade" x="187.5456" y="298.944" style="stroke: #000000; stroke-width: 0.6"/>
      </g>
     </g>
    </g>
    <g id="xtick_7">
     <g id="line2d_17">
      <path d="M 274.176 298.944 
L 274.176 27.648 
" clip-path="url(#pdc6d5558e7)" style="fill: none; stroke: #b0b0b0; stroke-width: 0.8; stroke-linecap: square"/>
     </g>
     <g id="line2d_18">
      <g>
       <use xlink:href="#m6486b74ade" x="274.176" y="298.944" style="stroke: #000000; stroke-width: 0.6"/>
      </g>
     </g>
    </g>
    <g id="xtick_8">
     <g id="line2d_19">
      <path d="M 360.8064 298.944 
L 360.8064 27.648 
" clip-path="url(#pdc6d5558e7)" style="fill: none; stroke: #b0b0b0; stroke-width: 0.8; stroke-linecap: square"/>
     </g>
     <g id="line2d_20">
      <g>
       <use xlink:href="#m6486b74ade" x="360.8064" y="298.944" style="stroke: #000000; stroke-width: 0.6"/>
      </g>
     </g>
    </g>
    <g id="text_5">
     <!-- log10(# f-evals / dimension) -->
     <g transform="translate(88.823278 339.314156) scale(0.17 -0.17)">
      <defs>
       <path id="DejaVuSans-6c" d="M 603 4863 
L 1178 4863 
L 1178 0 
L 603 0 
L 603 4863 
z
" transform="scale(0.015625)"/>
       <path id="DejaVuSans-6f" d="M 1959 3097 
Q 1497 3097 1228 2736 
Q 959 2375 959 1747 
Q 959 1119 1226 758 
Q 1494 397 1959 397 
Q 2419 397 2687 759 
Q 2956 1122 2956 1747 
Q 2956 2369 2687 2733 
Q 2419 3097 1959 3097 
z
M 1959 3584 
Q 2709 3584 3137 3096 
Q 3566 2609 3566 1747 
Q 3566 888 3137 398 
Q 2709 -91 1959 -91 
Q 1206 -91 779 398 
Q 353 888 353 1747 
Q 353 2609 779 3096 
Q 1206 3584 1959 3584 
z
" transform="scale(0.015625)"/>
       <path id="DejaVuSans-67" d="M 2906 1791 
Q 2906 2416 2648 2759 
Q 2391 3103 1925 3103 
Q 1463 3103 1205 2759 
Q 947 2416 947 1791 
Q 947 1169 1205 825 
Q 1463 481 1925 481 
Q 2391 481 2648 825 
Q 2906 1169 2906 1791 
z
M 3481 434 
Q 3481 -459 3084 -895 
Q 2688 -1331 1869 -1331 
Q 1566 -1331 1297 -1286 
Q 1028 -1241 775 -1147 
L 775 -588 
Q 1028 -725 1275 -790 
Q 1522 -856 1778 -856 
Q 2344 -856 2625 -561 
Q 2906 -266 2906 331 
L 2906 616 
Q 2728 306 2450 153 
Q 2172 0 1784 0 
Q 1141 0 747 490 
Q 353 981 353 1791 
Q 353 2603 747 3093 
Q 1141 3584 1784 3584 
Q 2172 3584 2450 3431 
Q 2728 3278 2906 2969 
L 2906 3500 
L 3481 3500 
L 3481 434 
z
" transform="scale(0.015625)"/>
       <path id="DejaVuSans-31" d="M 794 531 
L 1825 531 
L 1825 4091 
L 703 3866 
L 703 4441 
L 1819 4666 
L 2450 4666 
L 2450 531 
L 3481 531 
L 3481 0 
L 794 0 
L 794 531 
z
" transform="scale(0.015625)"/>
       <path id="DejaVuSans-28" d="M 1984 4856 
Q 1566 4138 1362 3434 
Q 1159 2731 1159 2009 
Q 1159 1288 1364 580 
Q 1569 -128 1984 -844 
L 1484 -844 
Q 1016 -109 783 600 
Q 550 1309 550 2009 
Q 550 2706 781 3412 
Q 1013 4119 1484 4856 
L 1984 4856 
z
" transform="scale(0.015625)"/>
       <path id="DejaVuSans-23" d="M 3272 2816 
L 2363 2816 
L 2100 1772 
L 3016 1772 
L 3272 2816 
z
M 2803 4594 
L 2478 3297 
L 3391 3297 
L 3719 4594 
L 4219 4594 
L 3897 3297 
L 4872 3297 
L 4872 2816 
L 3775 2816 
L 3519 1772 
L 4513 1772 
L 4513 1294 
L 3397 1294 
L 3072 0 
L 2572 0 
L 2894 1294 
L 1978 1294 
L 1656 0 
L 1153 0 
L 1478 1294 
L 494 1294 
L 494 1772 
L 1594 1772 
L 1856 2816 
L 850 2816 
L 850 3297 
L 1978 3297 
L 2297 4594 
L 2803 4594 
z
" transform="scale(0.015625)"/>
       <path id="DejaVuSans-20" transform="scale(0.015625)"/>
       <path id="DejaVuSans-66" d="M 2375 4863 
L 2375 4384 
L 1825 4384 
Q 1516 4384 1395 4259 
Q 1275 4134 1275 3809 
L 1275 3500 
L 2222 3500 
L 2222 3053 
L 1275 3053 
L 1275 0 
L 697 0 
L 697 3053 
L 147 3053 
L 147 3500 
L 697 3500 
L 697 3744 
Q 697 4328 969 4595 
Q 1241 4863 1831 4863 
L 2375 4863 
z
" transform="scale(0.015625)"/>
       <path id="DejaVuSans-2d" d="M 313 2009 
L 1997 2009 
L 1997 1497 
L 313 1497 
L 313 2009 
z
" transform="scale(0.015625)"/>
       <path id="DejaVuSans-65" d="M 3597 1894 
L 3597 1613 
L 953 1613 
Q 991 1019 1311 708 
Q 1631 397 2203 397 
Q 2534 397 2845 478 
Q 3156 559 3463 722 
L 3463 178 
Q 3153 47 2828 -22 
Q 2503 -91 2169 -91 
Q 1331 -91 842 396 
Q 353 884 353 1716 
Q 353 2575 817 3079 
Q 1281 3584 2069 3584 
Q 2775 3584 3186 3129 
Q 3597 2675 3597 1894 
z
M 3022 2063 
Q 3016 2534 2758 2815 
Q 2500 3097 2075 3097 
Q 1594 3097 1305 2825 
Q 1016 2553 972 2059 
L 3022 2063 
z
" transform="scale(0.015625)"/>
       <path id="DejaVuSans-76" d="M 191 3500 
L 800 3500 
L 1894 563 
L 2988 3500 
L 3597 3500 
L 2284 0 
L 1503 0 
L 191 3500 
z
" transform="scale(0.015625)"/>
       <path id="DejaVuSans-61" d="M 2194 1759 
Q 1497 1759 1228 1600 
Q 959 1441 959 1056 
Q 959 750 1161 570 
Q 1363 391 1709 391 
Q 2188 391 2477 730 
Q 2766 1069 2766 1631 
L 2766 1759 
L 2194 1759 
z
M 3341 1997 
L 3341 0 
L 2766 0 
L 2766 531 
Q 2569 213 2275 61 
Q 1981 -91 1556 -91 
Q 1019 -91 701 211 
Q 384 513 384 1019 
Q 384 1609 779 1909 
Q 1175 2209 1959 2209 
L 2766 2209 
L 2766 2266 
Q 2766 2663 2505 2880 
Q 2244 3097 1772 3097 
Q 1472 3097 1187 3025 
Q 903 2953 641 2809 
L 641 3341 
Q 956 3463 1253 3523 
Q 1550 3584 1831 3584 
Q 2591 3584 2966 3190 
Q 3341 2797 3341 1997 
z
" transform="scale(0.015625)"/>
       <path id="DejaVuSans-73" d="M 2834 3397 
L 2834 2853 
Q 2591 2978 2328 3040 
Q 2066 3103 1784 3103 
Q 1356 3103 1142 2972 
Q 928 2841 928 2578 
Q 928 2378 1081 2264 
Q 1234 2150 1697 2047 
L 1894 2003 
Q 2506 1872 2764 1633 
Q 3022 1394 3022 966 
Q 3022 478 2636 193 
Q 2250 -91 1575 -91 
Q 1294 -91 989 -36 
Q 684 19 347 128 
L 347 722 
Q 666 556 975 473 
Q 1284 391 1588 391 
Q 1994 391 2212 530 
Q 2431 669 2431 922 
Q 2431 1156 2273 1281 
Q 2116 1406 1581 1522 
L 1381 1569 
Q 847 1681 609 1914 
Q 372 2147 372 2553 
Q 372 3047 722 3315 
Q 1072 3584 1716 3584 
Q 2034 3584 2315 3537 
Q 2597 3491 2834 3397 
z
" transform="scale(0.015625)"/>
       <path id="DejaVuSans-2f" d="M 1625 4666 
L 2156 4666 
L 531 -594 
L 0 -594 
L 1625 4666 
z
" transform="scale(0.015625)"/>
       <path id="DejaVuSans-64" d="M 2906 2969 
L 2906 4863 
L 3481 4863 
L 3481 0 
L 2906 0 
L 2906 525 
Q 2725 213 2448 61 
Q 2172 -91 1784 -91 
Q 1150 -91 751 415 
Q 353 922 353 1747 
Q 353 2572 751 3078 
Q 1150 3584 1784 3584 
Q 2172 3584 2448 3432 
Q 2725 3281 2906 2969 
z
M 947 1747 
Q 947 1113 1208 752 
Q 1469 391 1925 391 
Q 2381 391 2643 752 
Q 2906 1113 2906 1747 
Q 2906 2381 2643 2742 
Q 2381 3103 1925 3103 
Q 1469 3103 1208 2742 
Q 947 2381 947 1747 
z
" transform="scale(0.015625)"/>
       <path id="DejaVuSans-69" d="M 603 3500 
L 1178 3500 
L 1178 0 
L 603 0 
L 603 3500 
z
M 603 4863 
L 1178 4863 
L 1178 4134 
L 603 4134 
L 603 4863 
z
" transform="scale(0.015625)"/>
       <path id="DejaVuSans-6d" d="M 3328 2828 
Q 3544 3216 3844 3400 
Q 4144 3584 4550 3584 
Q 5097 3584 5394 3201 
Q 5691 2819 5691 2113 
L 5691 0 
L 5113 0 
L 5113 2094 
Q 5113 2597 4934 2840 
Q 4756 3084 4391 3084 
Q 3944 3084 3684 2787 
Q 3425 2491 3425 1978 
L 3425 0 
L 2847 0 
L 2847 2094 
Q 2847 2600 2669 2842 
Q 2491 3084 2119 3084 
Q 1678 3084 1418 2786 
Q 1159 2488 1159 1978 
L 1159 0 
L 581 0 
L 581 3500 
L 1159 3500 
L 1159 2956 
Q 1356 3278 1631 3431 
Q 1906 3584 2284 3584 
Q 2666 3584 2933 3390 
Q 3200 3197 3328 2828 
z
" transform="scale(0.015625)"/>
       <path id="DejaVuSans-6e" d="M 3513 2113 
L 3513 0 
L 2938 0 
L 2938 2094 
Q 2938 2591 2744 2837 
Q 2550 3084 2163 3084 
Q 1697 3084 1428 2787 
Q 1159 2491 1159 1978 
L 1159 0 
L 581 0 
L 581 3500 
L 1159 3500 
L 1159 2956 
Q 1366 3272 1645 3428 
Q 1925 3584 2291 3584 
Q 2894 3584 3203 3211 
Q 3513 2838 3513 2113 
z
" transform="scale(0.015625)"/>
       <path id="DejaVuSans-29" d="M 513 4856 
L 1013 4856 
Q 1481 4119 1714 3412 
Q 1947 2706 1947 2009 
Q 1947 1309 1714 600 
Q 1481 -109 1013 -844 
L 513 -844 
Q 928 -128 1133 580 
Q 1338 1288 1338 2009 
Q 1338 2731 1133 3434 
Q 928 4138 513 4856 
z
" transform="scale(0.015625)"/>
      </defs>
      <use xlink:href="#DejaVuSans-6c"/>
      <use xlink:href="#DejaVuSans-6f" x="27.783203"/>
      <use xlink:href="#DejaVuSans-67" x="88.964844"/>
      <use xlink:href="#DejaVuSans-31" x="152.441406"/>
      <use xlink:href="#DejaVuSans-30" x="216.064453"/>
      <use xlink:href="#DejaVuSans-28" x="279.6875"/>
      <use xlink:href="#DejaVuSans-23" x="318.701172"/>
      <use xlink:href="#DejaVuSans-20" x="402.490234"/>
      <use xlink:href="#DejaVuSans-66" x="434.277344"/>
      <use xlink:href="#DejaVuSans-2d" x="463.982422"/>
      <use xlink:href="#DejaVuSans-65" x="500.066406"/>
      <use xlink:href="#DejaVuSans-76" x="561.589844"/>
      <use xlink:href="#DejaVuSans-61" x="620.769531"/>
      <use xlink:href="#DejaVuSans-6c" x="682.048828"/>
      <use xlink:href="#DejaVuSans-73" x="709.832031"/>
      <use xlink:href="#DejaVuSans-20" x="761.931641"/>
      <use xlink:href="#DejaVuSans-2f" x="793.71875"/>
      <use xlink:href="#DejaVuSans-20" x="827.410156"/>
      <use xlink:href="#DejaVuSans-64" x="859.197266"/>
      <use xlink:href="#DejaVuSans-69" x="922.673828"/>
      <use xlink:href="#DejaVuSans-6d" x="950.457031"/>
      <use xlink:href="#DejaVuSans-65" x="1047.869141"/>
      <use xlink:href="#DejaVuSans-6e" x="1109.392578"/>
      <use xlink:href="#DejaVuSans-73" x="1172.771484"/>
      <use xlink:href="#DejaVuSans-69" x="1224.871094"/>
      <use xlink:href="#DejaVuSans-6f" x="1252.654297"/>
      <use xlink:href="#DejaVuSans-6e" x="1313.835938"/>
      <use xlink:href="#DejaVuSans-29" x="1377.214844"/>
     </g>
    </g>
   </g>
   <g id="matplotlib.axis_2">
    <g id="ytick_1">
     <g id="line2d_21">
      <path d="M 57.6 298.944 
L 360.8064 298.944 
" clip-path="url(#pdc6d5558e7)" style="fill: none; stroke: #b0b0b0; stroke-width: 0.8; stroke-linecap: square"/>
     </g>
     <g id="line2d_22">
      <defs>
       <path id="m358daf784e" d="M 0 0 
L -3.5 0 
" style="stroke: #000000; stroke-width: 0.8"/>
      </defs>
      <g>
       <use xlink:href="#m358daf784e" x="57.6" y="298.944" style="stroke: #000000; stroke-width: 0.8"/>
      </g>
     </g>
     <g id="text_6">
      <!-- 0.0 -->
      <g transform="translate(25.155 305.02275) scale(0.16 -0.16)">
       <defs>
        <path id="DejaVuSans-2e" d="M 684 794 
L 1344 794 
L 1344 0 
L 684 0 
L 684 794 
z
" transform="scale(0.015625)"/>
       </defs>
       <use xlink:href="#DejaVuSans-30"/>
       <use xlink:href="#DejaVuSans-2e" x="63.623047"/>
       <use xlink:href="#DejaVuSans-30" x="95.410156"/>
      </g>
     </g>
    </g>
    <g id="ytick_2">
     <g id="line2d_23">
      <path d="M 57.6 244.6848 
L 360.8064 244.6848 
" clip-path="url(#pdc6d5558e7)" style="fill: none; stroke: #b0b0b0; stroke-width: 0.8; stroke-linecap: square"/>
     </g>
     <g id="line2d_24">
      <g>
       <use xlink:href="#m358daf784e" x="57.6" y="244.6848" style="stroke: #000000; stroke-width: 0.8"/>
      </g>
     </g>
     <g id="text_7">
      <!-- 0.2 -->
      <g transform="translate(25.155 250.76355) scale(0.16 -0.16)">
       <use xlink:href="#DejaVuSans-30"/>
       <use xlink:href="#DejaVuSans-2e" x="63.623047"/>
       <use xlink:href="#DejaVuSans-32" x="95.410156"/>
      </g>
     </g>
    </g>
    <g id="ytick_3">
     <g id="line2d_25">
      <path d="M 57.6 190.4256 
L 360.8064 190.4256 
" clip-path="url(#pdc6d5558e7)" style="fill: none; stroke: #b0b0b0; stroke-width: 0.8; stroke-linecap: square"/>
     </g>
     <g id="line2d_26">
      <g>
       <use xlink:href="#m358daf784e" x="57.6" y="190.4256" style="stroke: #000000; stroke-width: 0.8"/>
      </g>
     </g>
     <g id="text_8">
      <!-- 0.4 -->
      <g transform="translate(25.155 196.50435) scale(0.16 -0.16)">
       <use xlink:href="#DejaVuSans-30"/>
       <use xlink:href="#DejaVuSans-2e" x="63.623047"/>
       <use xlink:href="#DejaVuSans-34" x="95.410156"/>
      </g>
     </g>
    </g>
    <g id="ytick_4">
     <g id="line2d_27">
      <path d="M 57.6 136.1664 
L 360.8064 136.1664 
" clip-path="url(#pdc6d5558e7)" style="fill: none; stroke: #b0b0b0; stroke-width: 0.8; stroke-linecap: square"/>
     </g>
     <g id="line2d_28">
      <g>
       <use xlink:href="#m358daf784e" x="57.6" y="136.1664" style="stroke: #000000; stroke-width: 0.8"/>
      </g>
     </g>
     <g id="text_9">
      <!-- 0.6 -->
      <g transform="translate(25.155 142.24515) scale(0.16 -0.16)">
       <use xlink:href="#DejaVuSans-30"/>
       <use xlink:href="#DejaVuSans-2e" x="63.623047"/>
       <use xlink:href="#DejaVuSans-36" x="95.410156"/>
      </g>
     </g>
    </g>
    <g id="ytick_5">
     <g id="line2d_29">
      <path d="M 57.6 81.9072 
L 360.8064 81.9072 
" clip-path="url(#pdc6d5558e7)" style="fill: none; stroke: #b0b0b0; stroke-width: 0.8; stroke-linecap: square"/>
     </g>
     <g id="line2d_30">
      <g>
       <use xlink:href="#m358daf784e" x="57.6" y="81.9072" style="stroke: #000000; stroke-width: 0.8"/>
      </g>
     </g>
     <g id="text_10">
      <!-- 0.8 -->
      <g transform="translate(25.155 87.98595) scale(0.16 -0.16)">
       <defs>
        <path id="DejaVuSans-38" d="M 2034 2216 
Q 1584 2216 1326 1975 
Q 1069 1734 1069 1313 
Q 1069 891 1326 650 
Q 1584 409 2034 409 
Q 2484 409 2743 651 
Q 3003 894 3003 1313 
Q 3003 1734 2745 1975 
Q 2488 2216 2034 2216 
z
M 1403 2484 
Q 997 2584 770 2862 
Q 544 3141 544 3541 
Q 544 4100 942 4425 
Q 1341 4750 2034 4750 
Q 2731 4750 3128 4425 
Q 3525 4100 3525 3541 
Q 3525 3141 3298 2862 
Q 3072 2584 2669 2484 
Q 3125 2378 3379 2068 
Q 3634 1759 3634 1313 
Q 3634 634 3220 271 
Q 2806 -91 2034 -91 
Q 1263 -91 848 271 
Q 434 634 434 1313 
Q 434 1759 690 2068 
Q 947 2378 1403 2484 
z
M 1172 3481 
Q 1172 3119 1398 2916 
Q 1625 2713 2034 2713 
Q 2441 2713 2670 2916 
Q 2900 3119 2900 3481 
Q 2900 3844 2670 4047 
Q 2441 4250 2034 4250 
Q 1625 4250 1398 4047 
Q 1172 3844 1172 3481 
z
" transform="scale(0.015625)"/>
       </defs>
       <use xlink:href="#DejaVuSans-30"/>
       <use xlink:href="#DejaVuSans-2e" x="63.623047"/>
       <use xlink:href="#DejaVuSans-38" x="95.410156"/>
      </g>
     </g>
    </g>
    <g id="ytick_6">
     <g id="line2d_31">
      <path d="M 57.6 27.648 
L 360.8064 27.648 
" clip-path="url(#pdc6d5558e7)" style="fill: none; stroke: #b0b0b0; stroke-width: 0.8; stroke-linecap: square"/>
     </g>
     <g id="line2d_32">
      <g>
       <use xlink:href="#m358daf784e" x="57.6" y="27.648" style="stroke: #000000; stroke-width: 0.8"/>
      </g>
     </g>
     <g id="text_11">
      <!-- 1.0 -->
      <g transform="translate(25.155 33.72675) scale(0.16 -0.16)">
       <use xlink:href="#DejaVuSans-31"/>
       <use xlink:href="#DejaVuSans-2e" x="63.623047"/>
       <use xlink:href="#DejaVuSans-30" x="95.410156"/>
      </g>
     </g>
    </g>
    <g id="text_12">
     <!-- Fraction of function,target pairs -->
     <g transform="translate(17.619531 297.681) rotate(-90) scale(0.17 -0.17)">
      <defs>
       <path id="DejaVuSans-46" d="M 628 4666 
L 3309 4666 
L 3309 4134 
L 1259 4134 
L 1259 2759 
L 3109 2759 
L 3109 2228 
L 1259 2228 
L 1259 0 
L 628 0 
L 628 4666 
z
" transform="scale(0.015625)"/>
       <path id="DejaVuSans-72" d="M 2631 2963 
Q 2534 3019 2420 3045 
Q 2306 3072 2169 3072 
Q 1681 3072 1420 2755 
Q 1159 2438 1159 1844 
L 1159 0 
L 581 0 
L 581 3500 
L 1159 3500 
L 1159 2956 
Q 1341 3275 1631 3429 
Q 1922 3584 2338 3584 
Q 2397 3584 2469 3576 
Q 2541 3569 2628 3553 
L 2631 2963 
z
" transform="scale(0.015625)"/>
       <path id="DejaVuSans-63" d="M 3122 3366 
L 3122 2828 
Q 2878 2963 2633 3030 
Q 2388 3097 2138 3097 
Q 1578 3097 1268 2742 
Q 959 2388 959 1747 
Q 959 1106 1268 751 
Q 1578 397 2138 397 
Q 2388 397 2633 464 
Q 2878 531 3122 666 
L 3122 134 
Q 2881 22 2623 -34 
Q 2366 -91 2075 -91 
Q 1284 -91 818 406 
Q 353 903 353 1747 
Q 353 2603 823 3093 
Q 1294 3584 2113 3584 
Q 2378 3584 2631 3529 
Q 2884 3475 3122 3366 
z
" transform="scale(0.015625)"/>
       <path id="DejaVuSans-74" d="M 1172 4494 
L 1172 3500 
L 2356 3500 
L 2356 3053 
L 1172 3053 
L 1172 1153 
Q 1172 725 1289 603 
Q 1406 481 1766 481 
L 2356 481 
L 2356 0 
L 1766 0 
Q 1100 0 847 248 
Q 594 497 594 1153 
L 594 3053 
L 172 3053 
L 172 3500 
L 594 3500 
L 594 4494 
L 1172 4494 
z
" transform="scale(0.015625)"/>
       <path id="DejaVuSans-75" d="M 544 1381 
L 544 3500 
L 1119 3500 
L 1119 1403 
Q 1119 906 1312 657 
Q 1506 409 1894 409 
Q 2359 409 2629 706 
Q 2900 1003 2900 1516 
L 2900 3500 
L 3475 3500 
L 3475 0 
L 2900 0 
L 2900 538 
Q 2691 219 2414 64 
Q 2138 -91 1772 -91 
Q 1169 -91 856 284 
Q 544 659 544 1381 
z
M 1991 3584 
L 1991 3584 
z
" transform="scale(0.015625)"/>
       <path id="DejaVuSans-2c" d="M 750 794 
L 1409 794 
L 1409 256 
L 897 -744 
L 494 -744 
L 750 256 
L 750 794 
z
" transform="scale(0.015625)"/>
       <path id="DejaVuSans-70" d="M 1159 525 
L 1159 -1331 
L 581 -1331 
L 581 3500 
L 1159 3500 
L 1159 2969 
Q 1341 3281 1617 3432 
Q 1894 3584 2278 3584 
Q 2916 3584 3314 3078 
Q 3713 2572 3713 1747 
Q 3713 922 3314 415 
Q 2916 -91 2278 -91 
Q 1894 -91 1617 61 
Q 1341 213 1159 525 
z
M 3116 1747 
Q 3116 2381 2855 2742 
Q 2594 3103 2138 3103 
Q 1681 3103 1420 2742 
Q 1159 2381 1159 1747 
Q 1159 1113 1420 752 
Q 1681 391 2138 391 
Q 2594 391 2855 752 
Q 3116 1113 3116 1747 
z
" transform="scale(0.015625)"/>
      </defs>
      <use xlink:href="#DejaVuSans-46"/>
      <use xlink:href="#DejaVuSans-72" x="50.269531"/>
      <use xlink:href="#DejaVuSans-61" x="91.382812"/>
      <use xlink:href="#DejaVuSans-63" x="152.662109"/>
      <use xlink:href="#DejaVuSans-74" x="207.642578"/>
      <use xlink:href="#DejaVuSans-69" x="246.851562"/>
      <use xlink:href="#DejaVuSans-6f" x="274.634766"/>
      <use xlink:href="#DejaVuSans-6e" x="335.816406"/>
      <use xlink:href="#DejaVuSans-20" x="399.195312"/>
      <use xlink:href="#DejaVuSans-6f" x="430.982422"/>
      <use xlink:href="#DejaVuSans-66" x="492.164062"/>
      <use xlink:href="#DejaVuSans-20" x="527.369141"/>
      <use xlink:href="#DejaVuSans-66" x="559.15625"/>
      <use xlink:href="#DejaVuSans-75" x="594.361328"/>
      <use xlink:href="#DejaVuSans-6e" x="657.740234"/>
      <use xlink:href="#DejaVuSans-63" x="721.119141"/>
      <use xlink:href="#DejaVuSans-74" x="776.099609"/>
      <use xlink:href="#DejaVuSans-69" x="815.308594"/>
      <use xlink:href="#DejaVuSans-6f" x="843.091797"/>
      <use xlink:href="#DejaVuSans-6e" x="904.273438"/>
      <use xlink:href="#DejaVuSans-2c" x="967.652344"/>
      <use xlink:href="#DejaVuSans-74" x="999.439453"/>
      <use xlink:href="#DejaVuSans-61" x="1038.648438"/>
      <use xlink:href="#DejaVuSans-72" x="1099.927734"/>
      <use xlink:href="#DejaVuSans-67" x="1139.291016"/>
      <use xlink:href="#DejaVuSans-65" x="1202.767578"/>
      <use xlink:href="#DejaVuSans-74" x="1264.291016"/>
      <use xlink:href="#DejaVuSans-20" x="1303.5"/>
      <use xlink:href="#DejaVuSans-70" x="1335.287109"/>
      <use xlink:href="#DejaVuSans-61" x="1398.763672"/>
      <use xlink:href="#DejaVuSans-69" x="1460.042969"/>
      <use xlink:href="#DejaVuSans-72" x="1487.826172"/>
      <use xlink:href="#DejaVuSans-73" x="1528.939453"/>
     </g>
    </g>
   </g>
   <g id="line2d_33">
    <defs>
     <path id="m3d8deb820c" d="M 0 1.5 
C 0.397805 1.5 0.77937 1.341951 1.06066 1.06066 
C 1.341951 0.77937 1.5 0.397805 1.5 0 
C 1.5 -0.397805 1.341951 -0.77937 1.06066 -1.06066 
C 0.77937 -1.341951 0.397805 -1.5 0 -1.5 
C -0.397805 -1.5 -0.77937 -1.341951 -1.06066 -1.06066 
C -1.341951 -0.77937 -1.5 -0.397805 -1.5 0 
C -1.5 0.397805 -1.341951 0.77937 -1.06066 1.06066 
C -0.77937 1.341951 -0.397805 1.5 0 1.5 
z
" style="stroke: #f5deb3"/>
    </defs>
    <g>
     <use xlink:href="#m3d8deb820c" x="265.223533" y="60.390621" style="fill: #f5deb3; stroke: #f5deb3"/>
     <use xlink:href="#m3d8deb820c" x="265.223533" y="60.390621" style="fill: #f5deb3; stroke: #f5deb3"/>
    </g>
   </g>
   <g id="line2d_34">
    <defs>
     <path id="m8c459d3248" d="M 0 1.5 
C 0.397805 1.5 0.77937 1.341951 1.06066 1.06066 
C 1.341951 0.77937 1.5 0.397805 1.5 0 
C 1.5 -0.397805 1.341951 -0.77937 1.06066 -1.06066 
C 0.77937 -1.341951 0.397805 -1.5 0 -1.5 
C -0.397805 -1.5 -0.77937 -1.341951 -1.06066 -1.06066 
C -1.341951 -0.77937 -1.5 -0.397805 -1.5 0 
C -1.5 0.397805 -1.341951 0.77937 -1.06066 1.06066 
C -0.77937 1.341951 -0.397805 1.5 0 1.5 
z
" style="stroke: #000080"/>
    </defs>
    <g>
     <use xlink:href="#m8c459d3248" x="204.285335" y="168.909021" style="fill: #000080; stroke: #000080"/>
     <use xlink:href="#m8c459d3248" x="204.285335" y="168.909021" style="fill: #000080; stroke: #000080"/>
    </g>
   </g>
   <g id="line2d_35">
    <path d="M 27.323974 298.944 
L 27.323974 282.57269 
L 40.363149 282.57269 
L 40.363149 281.637186 
L 63.929565 281.637186 
L 63.929565 279.298428 
L 70.639174 279.298428 
L 70.639174 278.830676 
L 76.96874 278.830676 
L 76.96874 278.362924 
L 81.696354 278.362924 
L 81.696354 277.895172 
L 87.876026 277.895172 
L 87.876026 277.427421 
L 101.287718 277.427421 
L 101.287718 276.959669 
L 104.961779 276.959669 
L 104.961779 276.024166 
L 108.542628 276.024166 
L 108.542628 275.088662 
L 110.674517 275.088662 
L 110.674517 274.62091 
L 111.117162 274.62091 
L 111.117162 274.153159 
L 111.97238 274.153159 
L 111.97238 273.217655 
L 114.872193 273.217655 
L 114.872193 272.282152 
L 116.086263 272.282152 
L 116.086263 271.8144 
L 118.152051 271.8144 
L 118.152051 271.346648 
L 118.889854 271.346648 
L 118.889854 270.878897 
L 121.455972 270.878897 
L 121.455972 270.411145 
L 124.156336 270.411145 
L 124.156336 269.943393 
L 127.087372 269.943393 
L 127.087372 269.475641 
L 127.273627 269.475641 
L 127.273627 268.540138 
L 127.821575 268.540138 
L 127.821575 268.072386 
L 132.216233 268.072386 
L 132.216233 267.604634 
L 132.358208 267.604634 
L 132.358208 267.136883 
L 132.984158 267.136883 
L 132.984158 266.669131 
L 134.304809 266.669131 
L 134.304809 265.733628 
L 136.752866 265.733628 
L 136.752866 265.265876 
L 137.787626 265.265876 
L 137.787626 264.330372 
L 140.451292 264.330372 
L 140.451292 263.862621 
L 140.58877 263.862621 
L 140.58877 262.927117 
L 140.725251 262.927117 
L 140.815692 261.991614 
L 141.128852 261.991614 
L 141.128852 260.588359 
L 142.248405 260.588359 
L 142.248405 260.120607 
L 142.620923 260.120607 
L 142.620923 259.652855 
L 144.003296 259.652855 
L 144.003296 259.185103 
L 144.85936 259.185103 
L 144.931992 257.314097 
L 145.076419 257.314097 
L 145.076419 256.846345 
L 145.219746 256.846345 
L 145.219746 256.378593 
L 146.362288 256.378593 
L 146.362288 255.910841 
L 147.691478 255.910841 
L 147.691478 255.44309 
L 148.03267 255.44309 
L 148.03267 254.975338 
L 150.479171 254.975338 
L 150.479171 254.507586 
L 150.879716 254.507586 
L 150.879716 254.039834 
L 151.375128 254.039834 
L 151.375128 253.572083 
L 151.50336 253.572083 
L 151.50336 253.104331 
L 151.882893 253.104331 
L 151.882893 252.168828 
L 152.279463 252.168828 
L 152.377312 250.297821 
L 153.142309 250.297821 
L 153.142309 249.830069 
L 153.605101 249.830069 
L 153.673549 247.959062 
L 153.967309 247.959062 
L 153.967309 247.023559 
L 154.322673 247.023559 
L 154.322673 246.555807 
L 155.266666 246.555807 
L 155.266666 245.620303 
L 155.412574 245.620303 
L 155.412574 245.152552 
L 156.284856 245.152552 
L 156.284856 244.217048 
L 157.269574 244.217048 
L 157.269574 243.281545 
L 157.789059 243.281545 
L 157.789059 242.813793 
L 158.043518 242.813793 
L 158.043518 241.87829 
L 159.096679 241.87829 
L 159.130788 240.942786 
L 159.865969 240.942786 
L 159.865969 240.475034 
L 162.363559 240.475034 
L 162.363559 239.539531 
L 163.314829 239.539531 
L 163.410077 238.136276 
L 165.44087 238.136276 
L 165.44087 237.668524 
L 165.64686 237.668524 
L 165.64686 236.733021 
L 166.239959 236.733021 
L 166.239959 235.797517 
L 166.882759 235.797517 
L 166.882759 234.394262 
L 167.284683 234.394262 
L 167.284683 233.92651 
L 168.420577 233.92651 
L 168.420577 233.458759 
L 168.811641 233.458759 
L 168.811641 232.991007 
L 169.174771 232.991007 
L 169.254523 231.587752 
L 169.531024 231.587752 
L 169.531024 230.652248 
L 170.167131 230.652248 
L 170.167131 229.716745 
L 171.217608 229.716745 
L 171.217608 229.248993 
L 172.161441 229.248993 
L 172.161441 228.781241 
L 173.133165 228.781241 
L 173.230049 227.377986 
L 173.565266 227.377986 
L 173.565266 226.442483 
L 174.663783 226.442483 
L 174.693607 225.506979 
L 176.765533 225.506979 
L 176.765533 224.571476 
L 177.734443 224.571476 
L 177.734443 224.103724 
L 178.154375 224.103724 
L 178.166767 222.232717 
L 179.763281 222.232717 
L 179.763281 221.764966 
L 179.882396 221.764966 
L 179.882396 221.297214 
L 180.771383 221.297214 
L 180.852108 218.490703 
L 181.794715 218.490703 
L 181.896592 216.619697 
L 181.957455 216.619697 
L 181.957455 215.684193 
L 182.198954 215.684193 
L 182.198954 214.74869 
L 182.516205 214.74869 
L 182.516205 214.280938 
L 182.633809 214.280938 
L 182.633809 213.813186 
L 183.26308 213.813186 
L 183.26308 213.345434 
L 184.049515 213.345434 
L 184.049515 212.877683 
L 184.207426 212.877683 
L 184.238849 211.474428 
L 184.576684 211.474428 
L 184.576684 210.538924 
L 184.786969 210.538924 
L 184.843519 209.603421 
L 185.576142 209.603421 
L 185.576142 209.135669 
L 185.853977 209.135669 
L 185.853977 208.200166 
L 186.489385 208.200166 
L 186.545017 206.79691 
L 186.647899 206.79691 
L 186.647899 206.329159 
L 187.523013 206.329159 
L 187.60195 203.9904 
L 187.736506 203.9904 
L 187.736506 203.054897 
L 187.925494 203.054897 
L 187.925494 202.587145 
L 188.913062 202.587145 
L 188.993357 201.18389 
L 189.163284 201.18389 
L 189.163284 200.716138 
L 189.307725 200.716138 
L 189.307725 200.248386 
L 189.764626 200.248386 
L 189.851361 198.377379 
L 189.90122 198.377379 
L 189.90122 197.441876 
L 190.174739 197.441876 
L 190.174739 196.974124 
L 190.665559 196.974124 
L 190.668746 195.103117 
L 191.25234 195.103117 
L 191.25234 194.635366 
L 191.491786 194.635366 
L 191.491786 193.699862 
L 191.797376 193.699862 
L 191.797376 193.23211 
L 192.271542 193.23211 
L 192.350392 192.296607 
L 192.688308 192.296607 
L 192.796765 190.4256 
L 192.856434 190.4256 
L 192.876282 188.554593 
L 193.168725 188.554593 
L 193.168725 187.61909 
L 193.955614 187.61909 
L 193.955614 187.151338 
L 194.200199 187.151338 
L 194.200199 186.683586 
L 194.420773 186.683586 
L 194.420773 186.215834 
L 194.746858 186.215834 
L 194.746858 185.748083 
L 195.085035 185.748083 
L 195.087555 184.344828 
L 195.446927 184.344828 
L 195.535708 182.941572 
L 195.84318 182.941572 
L 195.84318 182.473821 
L 196.26679 182.473821 
L 196.26679 181.538317 
L 196.462194 181.538317 
L 196.480921 180.602814 
L 196.648633 180.602814 
L 196.648633 180.135062 
L 197.03197 180.135062 
L 197.03197 179.66731 
L 197.635673 179.66731 
L 197.712531 178.264055 
L 197.756309 178.264055 
L 197.756309 177.796303 
L 198.186442 177.796303 
L 198.28236 176.8608 
L 198.413717 176.8608 
L 198.413717 175.925297 
L 198.903439 175.925297 
L 198.903439 175.457545 
L 199.422803 175.457545 
L 199.492709 174.522041 
L 199.586175 174.522041 
L 199.586175 174.05429 
L 200.141278 174.05429 
L 200.141278 173.118786 
L 201.014378 173.118786 
L 201.014378 172.183283 
L 201.280928 172.183283 
L 201.299048 171.247779 
L 201.732298 171.247779 
L 201.732298 170.780028 
L 203.215549 170.780028 
L 203.215549 169.844524 
L 204.274515 169.844524 
L 204.285335 168.909021 
L 360.8064 168.909021 
L 360.8064 168.909021 
" style="fill: none; stroke: #000080; stroke-width: 1.5; stroke-linecap: square"/>
   </g>
   <g id="line2d_36">
    <defs>
     <path id="m6b2582c825" d="M 0 6 
C 1.591219 6 3.117479 5.367802 4.242641 4.242641 
C 5.367802 3.117479 6 1.591219 6 0 
C 6 -1.591219 5.367802 -3.117479 4.242641 -4.242641 
C 3.117479 -5.367802 1.591219 -6 0 -6 
C -1.591219 -6 -3.117479 -5.367802 -4.242641 -4.242641 
C -5.367802 -3.117479 -6 -1.591219 -6 0 
C -6 1.591219 -5.367802 3.117479 -4.242641 4.242641 
C -3.117479 5.367802 -1.591219 6 0 6 
z
" style="stroke: #000080; stroke-width: 1.5"/>
    </defs>
    <g>
     <use xlink:href="#m6b2582c825" x="111.97238" y="273.217655" style="fill-opacity: 0; stroke: #000080; stroke-width: 1.5"/>
     <use xlink:href="#m6b2582c825" x="170.167131" y="229.716745" style="fill-opacity: 0; stroke: #000080; stroke-width: 1.5"/>
     <use xlink:href="#m6b2582c825" x="204.285335" y="169.376772" style="fill-opacity: 0; stroke: #000080; stroke-width: 1.5"/>
     <use xlink:href="#m6b2582c825" x="204.285335" y="168.909021" style="fill-opacity: 0; stroke: #000080; stroke-width: 1.5"/>
     <use xlink:href="#m6b2582c825" x="204.285335" y="168.909021" style="fill-opacity: 0; stroke: #000080; stroke-width: 1.5"/>
     <use xlink:href="#m6b2582c825" x="360.8064" y="168.909021" style="fill-opacity: 0; stroke: #000080; stroke-width: 1.5"/>
    </g>
   </g>
   <g id="line2d_37">
    <path style="fill: none; stroke: #000080; stroke-width: 1.5; stroke-linecap: square"/>
    <g/>
   </g>
   <g id="line2d_38">
    <path d="M 230.866066 168.909021 
" clip-path="url(#pdc6d5558e7)" style="fill: none; stroke: #000080; stroke-width: 1.5; stroke-linecap: square"/>
    <defs>
     <path id="me2737838f2" d="M -12 12 
L 12 -12 
M -12 -12 
L 12 12 
" style="stroke: #000080"/>
    </defs>
    <g clip-path="url(#pdc6d5558e7)">
     <use xlink:href="#me2737838f2" x="230.866066" y="168.909021" style="fill: #000080; stroke: #000080"/>
    </g>
   </g>
   <g id="line2d_39">
    <defs>
     <path id="m9923a3068c" d="M 0 1.5 
C 0.397805 1.5 0.77937 1.341951 1.06066 1.06066 
C 1.341951 0.77937 1.5 0.397805 1.5 0 
C 1.5 -0.397805 1.341951 -0.77937 1.06066 -1.06066 
C 0.77937 -1.341951 0.397805 -1.5 0 -1.5 
C -0.397805 -1.5 -0.77937 -1.341951 -1.06066 -1.06066 
C -1.341951 -0.77937 -1.5 -0.397805 -1.5 0 
C -1.5 0.397805 -1.341951 0.77937 -1.06066 1.06066 
C -0.77937 1.341951 -0.397805 1.5 0 1.5 
z
" style="stroke: #ff00ff"/>
    </defs>
    <g>
     <use xlink:href="#m9923a3068c" x="197.921744" y="179.199559" style="fill: #ff00ff; stroke: #ff00ff"/>
     <use xlink:href="#m9923a3068c" x="197.921744" y="179.199559" style="fill: #ff00ff; stroke: #ff00ff"/>
    </g>
   </g>
   <g id="line2d_40">
    <path d="M 27.323974 298.944 
L 27.323974 282.57269 
L 53.402323 282.57269 
L 53.402323 282.104938 
L 61.029752 282.104938 
L 61.029752 281.637186 
L 63.929565 281.637186 
L 63.929565 280.701683 
L 66.441498 280.701683 
L 66.441498 279.298428 
L 68.65718 279.298428 
L 68.65718 278.830676 
L 70.639174 278.830676 
L 70.639174 277.895172 
L 78.266603 277.895172 
L 78.266603 276.959669 
L 82.713442 276.959669 
L 82.713442 276.491917 
L 85.471281 276.491917 
L 85.471281 276.024166 
L 92.519847 276.024166 
L 92.519847 275.088662 
L 93.66029 275.088662 
L 93.66029 274.153159 
L 95.250946 274.153159 
L 95.250946 273.685407 
L 102.362957 273.685407 
L 102.362957 272.749903 
L 106.137884 272.749903 
L 106.137884 272.282152 
L 106.974091 272.282152 
L 106.974091 271.8144 
L 107.774703 271.8144 
L 107.774703 269.943393 
L 108.29012 269.943393 
L 108.29012 269.475641 
L 108.542628 269.475641 
L 108.542628 269.00789 
L 109.756698 269.00789 
L 109.756698 267.604634 
L 109.990385 267.604634 
L 109.990385 267.136883 
L 110.897141 267.136883 
L 110.897141 266.201379 
L 111.117162 266.201379 
L 111.117162 265.733628 
L 111.97238 265.733628 
L 111.97238 265.265876 
L 112.180244 265.265876 
L 112.180244 264.798124 
L 115.747307 264.798124 
L 115.747307 263.862621 
L 117.384126 263.862621 
L 117.384126 263.394869 
L 119.319033 263.394869 
L 119.319033 262.459366 
L 120.013265 262.459366 
L 120.013265 261.991614 
L 125.115773 261.991614 
L 125.115773 261.523862 
L 125.829577 261.523862 
L 125.829577 261.05611 
L 126.709238 261.05611 
L 126.709238 260.588359 
L 128.441306 260.588359 
L 128.441306 260.120607 
L 128.786481 260.120607 
L 128.786481 259.185103 
L 128.956723 259.185103 
L 128.956723 258.717352 
L 129.7043 258.717352 
L 129.7043 258.2496 
L 133.589949 258.2496 
L 133.656071 257.314097 
L 133.72196 257.314097 
L 133.72196 256.846345 
L 134.808158 256.846345 
L 134.808158 256.378593 
L 135.776169 256.378593 
L 135.776169 255.910841 
L 136.527575 255.910841 
L 136.527575 254.975338 
L 138.050729 254.975338 
L 138.050729 254.507586 
L 138.818654 254.507586 
L 138.818654 254.039834 
L 138.968547 254.039834 
L 138.968547 253.104331 
L 139.93843 253.104331 
L 139.93843 252.636579 
L 140.359078 252.636579 
L 140.359078 252.168828 
L 143.265494 252.168828 
L 143.265494 251.701076 
L 144.117191 251.701076 
L 144.117191 250.765572 
L 145.538293 250.765572 
L 145.538293 249.830069 
L 148.216198 249.830069 
L 148.216198 249.362317 
L 152.25492 249.362317 
L 152.25492 248.894566 
L 152.930279 248.894566 
L 152.930279 247.959062 
L 153.605101 247.959062 
L 153.605101 247.49131 
L 153.741748 247.49131 
L 153.741748 245.620303 
L 153.967309 245.620303 
L 153.967309 244.6848 
L 154.410475 244.6848 
L 154.410475 243.749297 
L 155.077392 243.749297 
L 155.077392 243.281545 
L 157.023421 243.281545 
L 157.023421 242.813793 
L 157.586683 242.813793 
L 157.586683 241.87829 
L 158.454228 241.87829 
L 158.454228 240.942786 
L 158.942415 240.942786 
L 159.045398 240.007283 
L 159.384659 240.007283 
L 159.384659 239.539531 
L 160.855439 239.539531 
L 160.948489 238.604028 
L 161.224909 238.604028 
L 161.224909 237.668524 
L 163.122872 237.668524 
L 163.122872 237.200772 
L 163.79962 237.200772 
L 163.79962 236.733021 
L 164.181259 236.733021 
L 164.181259 236.265269 
L 165.343147 236.265269 
L 165.343147 235.329766 
L 167.251516 235.329766 
L 167.306762 233.458759 
L 167.471536 233.458759 
L 167.471536 232.991007 
L 168.544952 232.991007 
L 168.544952 232.523255 
L 168.750432 232.523255 
L 168.750432 231.587752 
L 169.822832 231.587752 
L 169.909499 230.184497 
L 170.50524 230.184497 
L 170.50524 229.716745 
L 170.873925 229.716745 
L 170.873925 228.781241 
L 171.172743 228.781241 
L 171.181725 227.377986 
L 172.11023 227.377986 
L 172.11023 226.442483 
L 172.457426 226.442483 
L 172.457426 225.974731 
L 172.83126 225.974731 
L 172.83126 225.506979 
L 173.221995 225.506979 
L 173.221995 224.571476 
L 173.430302 224.571476 
L 173.430302 224.103724 
L 174.498899 224.103724 
L 174.498899 223.168221 
L 175.244228 223.168221 
L 175.244228 222.232717 
L 176.778874 222.232717 
L 176.778874 221.764966 
L 177.74078 221.764966 
L 177.74078 220.829462 
L 177.923632 220.829462 
L 177.923632 220.36171 
L 178.492224 220.36171 
L 178.51656 218.490703 
L 178.990851 218.490703 
L 178.990851 217.5552 
L 179.482378 217.5552 
L 179.534288 216.151945 
L 179.62622 216.151945 
L 179.62622 215.216441 
L 179.865426 215.216441 
L 179.865426 214.280938 
L 180.483348 214.280938 
L 180.483348 213.345434 
L 181.397255 213.345434 
L 181.397255 212.877683 
L 182.128837 212.877683 
L 182.158919 211.942179 
L 182.442328 211.942179 
L 182.452195 211.006676 
L 183.362027 211.006676 
L 183.432385 209.603421 
L 183.553721 209.603421 
L 183.553721 208.667917 
L 184.725878 208.667917 
L 184.725878 207.732414 
L 184.869562 207.732414 
L 184.869562 205.861407 
L 184.99062 205.861407 
L 184.99062 205.393655 
L 185.742507 205.393655 
L 185.742507 204.458152 
L 185.895095 204.458152 
L 185.895095 203.9904 
L 186.552951 203.9904 
L 186.552951 203.522648 
L 186.999746 203.522648 
L 187.011362 201.651641 
L 187.246004 201.651641 
L 187.246004 200.716138 
L 187.364137 200.716138 
L 187.402086 198.845131 
L 187.500398 198.845131 
L 187.500398 198.377379 
L 187.962329 198.377379 
L 187.962329 197.909628 
L 188.492062 197.909628 
L 188.492062 197.441876 
L 188.726721 197.441876 
L 188.807813 196.038621 
L 189.107966 196.038621 
L 189.107966 195.570869 
L 189.280298 195.570869 
L 189.280298 194.635366 
L 189.633768 194.635366 
L 189.643866 193.23211 
L 189.7479 193.23211 
L 189.7479 192.764359 
L 190.337611 192.764359 
L 190.437887 191.361103 
L 190.5023 191.361103 
L 190.6081 189.490097 
L 191.270868 189.490097 
L 191.289377 188.554593 
L 191.534442 188.554593 
L 191.534442 188.086841 
L 191.661835 188.086841 
L 191.661835 187.61909 
L 191.839346 187.61909 
L 191.839346 187.151338 
L 192.35622 187.151338 
L 192.35622 186.215834 
L 192.498436 186.215834 
L 192.544641 185.280331 
L 192.636714 185.280331 
L 192.636714 184.812579 
L 192.751175 184.812579 
L 192.78253 183.409324 
L 192.890447 183.409324 
L 192.890447 182.941572 
L 193.810558 182.941572 
L 193.810558 182.473821 
L 194.080962 182.473821 
L 194.080962 181.538317 
L 194.213401 181.538317 
L 194.263485 180.602814 
L 194.695475 180.602814 
L 194.695475 179.66731 
L 197.921744 179.66731 
L 197.921744 179.199559 
L 360.8064 179.199559 
L 360.8064 179.199559 
" style="fill: none; stroke: #ff00ff; stroke-width: 1.5; stroke-linecap: square"/>
   </g>
   <g id="line2d_41">
    <defs>
     <path id="m5022b573a5" d="M -0 8.485281 
L 5.091169 0 
L 0 -8.485281 
L -5.091169 -0 
z
" style="stroke: #ff00ff; stroke-width: 1.5; stroke-linejoin: miter"/>
    </defs>
    <g>
     <use xlink:href="#m5022b573a5" x="78.266603" y="276.959669" style="fill-opacity: 0; stroke: #ff00ff; stroke-width: 1.5; stroke-linejoin: miter"/>
     <use xlink:href="#m5022b573a5" x="169.909499" y="230.652248" style="fill-opacity: 0; stroke: #ff00ff; stroke-width: 1.5; stroke-linejoin: miter"/>
     <use xlink:href="#m5022b573a5" x="197.921744" y="179.66731" style="fill-opacity: 0; stroke: #ff00ff; stroke-width: 1.5; stroke-linejoin: miter"/>
     <use xlink:href="#m5022b573a5" x="197.921744" y="179.199559" style="fill-opacity: 0; stroke: #ff00ff; stroke-width: 1.5; stroke-linejoin: miter"/>
     <use xlink:href="#m5022b573a5" x="197.921744" y="179.199559" style="fill-opacity: 0; stroke: #ff00ff; stroke-width: 1.5; stroke-linejoin: miter"/>
     <use xlink:href="#m5022b573a5" x="360.8064" y="179.199559" style="fill-opacity: 0; stroke: #ff00ff; stroke-width: 1.5; stroke-linejoin: miter"/>
    </g>
   </g>
   <g id="line2d_42">
    <path style="fill: none; stroke: #ff00ff; stroke-width: 1.5; stroke-linecap: square"/>
    <g/>
   </g>
   <g id="line2d_43">
    <path d="M 230.868511 179.199559 
" clip-path="url(#pdc6d5558e7)" style="fill: none; stroke: #ff00ff; stroke-width: 1.5; stroke-linecap: square"/>
    <defs>
     <path id="m473c847021" d="M -12 12 
L 12 -12 
M -12 -12 
L 12 12 
" style="stroke: #ff00ff"/>
    </defs>
    <g clip-path="url(#pdc6d5558e7)">
     <use xlink:href="#m473c847021" x="230.868511" y="179.199559" style="fill: #ff00ff; stroke: #ff00ff"/>
    </g>
   </g>
   <g id="line2d_44">
    <defs>
     <path id="m065ecdbfc2" d="M 0 1.5 
C 0.397805 1.5 0.77937 1.341951 1.06066 1.06066 
C 1.341951 0.77937 1.5 0.397805 1.5 0 
C 1.5 -0.397805 1.341951 -0.77937 1.06066 -1.06066 
C 0.77937 -1.341951 0.397805 -1.5 0 -1.5 
C -0.397805 -1.5 -0.77937 -1.341951 -1.06066 -1.06066 
C -1.341951 -0.77937 -1.5 -0.397805 -1.5 0 
C -1.5 0.397805 -1.341951 0.77937 -1.06066 1.06066 
C -0.77937 1.341951 -0.397805 1.5 0 1.5 
z
" style="stroke: #ff7500"/>
    </defs>
    <g>
     <use xlink:href="#m065ecdbfc2" x="213.299489" y="190.893352" style="fill: #ff7500; stroke: #ff7500"/>
     <use xlink:href="#m065ecdbfc2" x="213.299489" y="190.893352" style="fill: #ff7500; stroke: #ff7500"/>
    </g>
   </g>
   <g id="line2d_45">
    <path d="M 27.323974 298.944 
L 27.323974 282.57269 
L 40.363149 282.57269 
L 40.363149 281.169434 
L 95.752617 281.169434 
L 95.752617 276.959669 
L 115.747307 276.959669 
L 115.747307 274.153159 
L 125.219419 274.153159 
L 125.219419 273.685407 
L 128.614685 273.685407 
L 128.614685 273.217655 
L 133.983236 273.217655 
L 133.983236 272.282152 
L 136.184497 272.282152 
L 136.184497 270.878897 
L 138.154948 270.878897 
L 138.154948 269.475641 
L 139.93843 269.475641 
L 139.93843 267.136883 
L 141.56737 267.136883 
L 141.56737 266.201379 
L 143.066428 266.201379 
L 143.066428 265.733628 
L 144.454795 265.733628 
L 144.454795 264.798124 
L 145.7477 264.798124 
L 145.7477 264.330372 
L 146.957431 264.330372 
L 146.957431 263.394869 
L 148.094045 263.394869 
L 148.094045 262.459366 
L 149.165879 262.459366 
L 149.165879 261.991614 
L 151.142085 261.991614 
L 151.142085 261.523862 
L 152.930279 261.523862 
L 152.930279 261.05611 
L 153.764426 261.05611 
L 153.764426 260.120607 
L 154.563149 260.120607 
L 154.563149 259.652855 
L 155.329337 259.652855 
L 155.329337 258.2496 
L 156.774003 258.2496 
L 156.774003 257.314097 
L 157.456756 257.314097 
L 157.456756 255.44309 
L 158.115593 255.44309 
L 158.115593 254.507586 
L 159.367841 254.507586 
L 159.367841 252.636579 
L 159.964032 252.636579 
L 159.964032 252.168828 
L 160.541906 252.168828 
L 160.541906 250.765572 
L 161.646981 250.765572 
L 161.646981 250.297821 
L 162.17609 250.297821 
L 162.17609 249.830069 
L 162.690724 249.830069 
L 162.690724 248.894566 
L 163.191653 248.894566 
L 163.191653 246.088055 
L 164.155187 246.088055 
L 164.155187 245.620303 
L 164.619057 245.620303 
L 164.619057 245.152552 
L 165.071763 245.152552 
L 165.071763 243.281545 
L 165.51383 243.281545 
L 165.51383 242.346041 
L 165.945747 242.346041 
L 165.945747 241.87829 
L 166.367969 241.87829 
L 166.367969 241.410538 
L 166.780922 241.410538 
L 166.780922 240.475034 
L 167.185004 240.475034 
L 167.185004 240.007283 
L 167.968026 240.007283 
L 167.968026 239.539531 
L 169.442591 239.539531 
L 169.442591 238.604028 
L 171.136775 238.604028 
L 171.136775 238.136276 
L 171.773916 238.136276 
L 171.773916 237.668524 
L 172.084572 237.668524 
L 172.084572 236.733021 
L 172.690906 236.733021 
L 172.690906 235.797517 
L 174.671243 235.797517 
L 174.671243 235.329766 
L 174.937868 235.329766 
L 174.937868 234.394262 
L 176.705378 234.394262 
L 176.705378 233.92651 
L 178.098508 233.92651 
L 178.098508 232.055503 
L 178.320986 232.055503 
L 178.320986 231.587752 
L 178.973057 231.587752 
L 178.973057 228.781241 
L 179.185485 228.781241 
L 179.185485 227.845738 
L 179.808747 227.845738 
L 179.808747 227.377986 
L 180.608887 227.377986 
L 180.608887 226.442483 
L 180.996545 226.442483 
L 180.996545 225.974731 
L 181.74869 225.974731 
L 181.74869 225.039228 
L 181.932119 225.039228 
L 181.932119 224.103724 
L 182.113777 224.103724 
L 182.113777 223.635972 
L 182.823359 223.635972 
L 182.823359 222.700469 
L 183.338515 222.700469 
L 183.338515 221.764966 
L 183.839939 221.764966 
L 183.839939 221.297214 
L 185.115186 221.297214 
L 185.115186 219.426207 
L 185.268681 219.426207 
L 185.268681 218.490703 
L 185.571964 218.490703 
L 185.571964 216.619697 
L 186.453534 216.619697 
L 186.453534 215.684193 
L 187.295634 215.684193 
L 187.295634 214.74869 
L 188.101647 214.74869 
L 188.101647 214.280938 
L 188.362822 214.280938 
L 188.362822 213.345434 
L 188.492062 213.345434 
L 188.492062 212.877683 
L 189.000323 212.877683 
L 189.000323 212.409931 
L 189.495211 212.409931 
L 189.495211 211.474428 
L 190.096057 211.474428 
L 190.096057 210.538924 
L 190.563288 210.538924 
L 190.563288 209.603421 
L 190.678304 209.603421 
L 190.678304 206.79691 
L 190.792622 206.79691 
L 190.792622 205.861407 
L 191.354016 205.861407 
L 191.354016 205.393655 
L 191.573965 205.393655 
L 191.573965 204.925903 
L 191.899141 204.925903 
L 191.899141 204.458152 
L 193.346456 204.458152 
L 193.445696 203.054897 
L 194.874707 203.054897 
L 194.874707 201.651641 
L 196.288077 201.651641 
L 196.288077 200.716138 
L 196.457509 200.716138 
L 196.457509 199.780634 
L 196.791863 199.780634 
L 196.791863 198.845131 
L 197.282509 198.845131 
L 197.282509 198.377379 
L 197.443254 198.377379 
L 197.443254 197.909628 
L 198.531579 197.909628 
L 198.606959 196.506372 
L 198.979396 196.506372 
L 198.979396 195.570869 
L 199.416799 195.570869 
L 199.416799 195.103117 
L 199.560369 195.103117 
L 199.560369 194.635366 
L 199.914572 194.635366 
L 199.914572 194.167614 
L 200.399512 194.167614 
L 200.399512 193.23211 
L 200.535801 193.23211 
L 200.535801 192.764359 
L 201.591959 192.764359 
L 201.591959 192.296607 
L 202.530993 192.296607 
L 202.530993 191.828855 
L 203.483513 191.828855 
L 203.483513 191.361103 
L 213.299489 191.361103 
L 213.299489 190.893352 
L 360.8064 190.893352 
L 360.8064 190.893352 
" style="fill: none; stroke: #ff7500; stroke-width: 1.5; stroke-linecap: square"/>
   </g>
   <g id="line2d_46">
    <defs>
     <path id="m095c34822a" d="M 0 -6 
L -1.347084 -1.854102 
L -5.706339 -1.854102 
L -2.179628 0.708204 
L -3.526712 4.854102 
L -0 2.291796 
L 3.526712 4.854102 
L 2.179628 0.708204 
L 5.706339 -1.854102 
L 1.347084 -1.854102 
z
" style="stroke: #ff7500; stroke-width: 1.5; stroke-linejoin: bevel"/>
    </defs>
    <g>
     <use xlink:href="#m095c34822a" x="95.752617" y="281.169434" style="fill-opacity: 0; stroke: #ff7500; stroke-width: 1.5; stroke-linejoin: bevel"/>
     <use xlink:href="#m095c34822a" x="183.338515" y="222.700469" style="fill-opacity: 0; stroke: #ff7500; stroke-width: 1.5; stroke-linejoin: bevel"/>
     <use xlink:href="#m095c34822a" x="213.299489" y="191.361103" style="fill-opacity: 0; stroke: #ff7500; stroke-width: 1.5; stroke-linejoin: bevel"/>
     <use xlink:href="#m095c34822a" x="213.299489" y="190.893352" style="fill-opacity: 0; stroke: #ff7500; stroke-width: 1.5; stroke-linejoin: bevel"/>
     <use xlink:href="#m095c34822a" x="213.299489" y="190.893352" style="fill-opacity: 0; stroke: #ff7500; stroke-width: 1.5; stroke-linejoin: bevel"/>
     <use xlink:href="#m095c34822a" x="360.8064" y="190.893352" style="fill-opacity: 0; stroke: #ff7500; stroke-width: 1.5; stroke-linejoin: bevel"/>
    </g>
   </g>
   <g id="line2d_47">
    <path style="fill: none; stroke: #ff7500; stroke-width: 1.5; stroke-linecap: square"/>
    <g/>
   </g>
   <g id="line2d_48">
    <path d="M 230.862681 190.893352 
" clip-path="url(#pdc6d5558e7)" style="fill: none; stroke: #ff7500; stroke-width: 1.5; stroke-linecap: square"/>
    <defs>
     <path id="ma8db18efd4" d="M -12 12 
L 12 -12 
M -12 -12 
L 12 12 
" style="stroke: #ff7500"/>
    </defs>
    <g clip-path="url(#pdc6d5558e7)">
     <use xlink:href="#ma8db18efd4" x="230.862681" y="190.893352" style="fill: #ff7500; stroke: #ff7500"/>
    </g>
   </g>
   <g id="line2d_49">
    <defs>
     <path id="md7faa4e971" d="M 0 1.5 
C 0.397805 1.5 0.77937 1.341951 1.06066 1.06066 
C 1.341951 0.77937 1.5 0.397805 1.5 0 
C 1.5 -0.397805 1.341951 -0.77937 1.06066 -1.06066 
C 0.77937 -1.341951 0.397805 -1.5 0 -1.5 
C -0.397805 -1.5 -0.77937 -1.341951 -1.06066 -1.06066 
C -1.341951 -0.77937 -1.5 -0.397805 -1.5 0 
C -1.5 0.397805 -1.341951 0.77937 -1.06066 1.06066 
C -0.77937 1.341951 -0.397805 1.5 0 1.5 
z
" style="stroke: #6495ed"/>
    </defs>
    <g>
     <use xlink:href="#md7faa4e971" x="199.508651" y="185.280331" style="fill: #6495ed; stroke: #6495ed"/>
     <use xlink:href="#md7faa4e971" x="199.508651" y="185.280331" style="fill: #6495ed; stroke: #6495ed"/>
    </g>
   </g>
   <g id="line2d_50">
    <path d="M 27.323974 298.944 
L 27.323974 282.57269 
L 66.441498 282.57269 
L 66.441498 282.104938 
L 83.678349 282.104938 
L 83.678349 280.701683 
L 88.613828 280.701683 
L 88.613828 279.298428 
L 95.752617 279.298428 
L 95.752617 277.427421 
L 100.9152 277.427421 
L 100.9152 276.959669 
L 104.961779 276.959669 
L 104.961779 276.491917 
L 107.244765 276.491917 
L 107.244765 275.088662 
L 107.774703 275.088662 
L 107.774703 274.153159 
L 108.791791 274.153159 
L 108.791791 272.282152 
L 109.280431 272.282152 
L 109.280431 271.346648 
L 110.221204 271.346648 
L 110.221204 270.411145 
L 114.141556 270.411145 
L 114.141556 269.943393 
L 117.067958 269.943393 
L 117.067958 268.540138 
L 117.695068 268.540138 
L 117.695068 267.604634 
L 122.319605 267.604634 
L 122.319605 267.136883 
L 122.559246 267.136883 
L 122.559246 266.669131 
L 126.993549 266.669131 
L 126.993549 266.201379 
L 127.458055 266.201379 
L 127.458055 265.733628 
L 132.777813 265.733628 
L 132.777813 264.798124 
L 133.589949 264.798124 
L 133.589949 264.330372 
L 135.237805 264.330372 
L 135.237805 263.862621 
L 135.893741 263.862621 
L 135.893741 263.394869 
L 136.242113 263.394869 
L 136.242113 262.927117 
L 136.752866 262.927117 
L 136.752866 262.459366 
L 138.412998 262.459366 
L 138.412998 261.991614 
L 139.652679 261.991614 
L 139.652679 259.652855 
L 141.995897 259.652855 
L 141.995897 258.717352 
L 142.164612 258.717352 
L 142.164612 257.314097 
L 142.945969 257.314097 
L 142.945969 256.378593 
L 143.265494 256.378593 
L 143.265494 255.910841 
L 144.71325 255.910841 
L 144.71325 255.44309 
L 145.712961 255.44309 
L 145.712961 254.975338 
L 146.261241 254.975338 
L 146.261241 254.507586 
L 147.087167 254.507586 
L 147.087167 253.572083 
L 147.628773 253.572083 
L 147.628773 253.104331 
L 147.940229 253.104331 
L 147.940229 252.636579 
L 148.697031 252.636579 
L 148.697031 252.168828 
L 149.049758 252.168828 
L 149.049758 251.233324 
L 150.425115 251.233324 
L 150.425115 250.297821 
L 152.279463 250.297821 
L 152.279463 249.830069 
L 153.02481 249.830069 
L 153.02481 247.959062 
L 153.328795 247.959062 
L 153.328795 247.023559 
L 157.118477 247.023559 
L 157.118477 246.555807 
L 157.419468 246.555807 
L 157.419468 245.620303 
L 158.383441 245.620303 
L 158.383441 245.152552 
L 159.130788 245.152552 
L 159.130788 244.6848 
L 161.163832 244.6848 
L 161.163832 244.217048 
L 162.030602 244.217048 
L 162.030602 243.749297 
L 163.314829 243.749297 
L 163.314829 242.346041 
L 163.437203 242.346041 
L 163.437203 241.410538 
L 163.759694 241.410538 
L 163.759694 240.475034 
L 165.574415 240.475034 
L 165.574415 240.007283 
L 166.228279 240.007283 
L 166.228279 239.539531 
L 167.893313 239.539531 
L 167.893313 239.071779 
L 168.063651 239.071779 
L 168.063651 238.604028 
L 168.221954 238.604028 
L 168.221954 238.136276 
L 170.072123 238.136276 
L 170.072123 237.668524 
L 170.261661 237.668524 
L 170.365099 236.733021 
L 171.537509 236.733021 
L 171.537509 235.797517 
L 172.186995 235.797517 
L 172.186995 234.862014 
L 172.356469 234.862014 
L 172.356469 233.92651 
L 173.0195 233.92651 
L 173.060174 232.991007 
L 174.034017 232.991007 
L 174.034017 232.055503 
L 174.157069 232.055503 
L 174.157069 231.587752 
L 174.738254 231.587752 
L 174.738254 230.652248 
L 174.901062 230.652248 
L 174.901062 229.716745 
L 175.919314 229.716745 
L 175.919314 228.781241 
L 177.10282 228.781241 
L 177.10282 228.31349 
L 177.395487 228.31349 
L 177.395487 227.845738 
L 178.036239 227.845738 
L 178.036239 226.910234 
L 178.643809 226.910234 
L 178.746193 224.103724 
L 178.883832 224.103724 
L 178.883832 223.168221 
L 179.325784 223.168221 
L 179.325784 222.232717 
L 179.786028 222.232717 
L 179.786028 221.764966 
L 180.937834 221.764966 
L 181.0072 220.829462 
L 181.438943 220.829462 
L 181.438943 220.36171 
L 182.203953 220.36171 
L 182.203953 219.426207 
L 182.318551 219.426207 
L 182.318551 218.958455 
L 183.211043 218.958455 
L 183.211043 218.022952 
L 183.52579 218.022952 
L 183.623367 216.619697 
L 184.616292 216.619697 
L 184.616292 216.151945 
L 185.115186 216.151945 
L 185.115186 215.216441 
L 185.475612 215.216441 
L 185.546876 213.345434 
L 185.837504 213.345434 
L 185.837504 212.409931 
L 185.95251 212.409931 
L 185.95251 211.942179 
L 186.143988 211.942179 
L 186.143988 211.006676 
L 186.481424 211.006676 
L 186.548984 210.071172 
L 187.200076 210.071172 
L 187.288007 208.667917 
L 187.932867 208.667917 
L 187.98807 207.732414 
L 188.599088 207.732414 
L 188.599088 207.264662 
L 188.762021 207.264662 
L 188.762021 206.329159 
L 188.97593 206.329159 
L 189.003805 204.458152 
L 189.276866 204.458152 
L 189.276866 203.522648 
L 189.5291 203.522648 
L 189.5291 202.587145 
L 189.781337 202.587145 
L 189.781337 201.651641 
L 190.017044 201.651641 
L 190.017044 201.18389 
L 190.184551 201.18389 
L 190.184551 200.716138 
L 190.620884 200.716138 
L 190.633659 198.845131 
L 190.789456 198.845131 
L 190.789456 197.909628 
L 191.081649 197.909628 
L 191.18425 196.506372 
L 191.381651 196.506372 
L 191.381651 195.570869 
L 191.661835 195.570869 
L 191.728221 194.635366 
L 191.91406 194.635366 
L 191.91406 194.167614 
L 192.165892 194.167614 
L 192.22466 192.764359 
L 192.452116 192.764359 
L 192.452116 192.296607 
L 192.696893 192.296607 
L 192.696893 191.361103 
L 192.983664 191.361103 
L 192.983664 190.4256 
L 193.168725 190.4256 
L 193.168725 189.957848 
L 193.751138 189.957848 
L 193.751138 189.022345 
L 193.974336 189.022345 
L 193.974336 188.554593 
L 194.091592 188.554593 
L 194.152595 187.61909 
L 194.457285 187.61909 
L 194.457285 187.151338 
L 195.37014 187.151338 
L 195.37014 186.683586 
L 195.956598 186.683586 
L 195.956598 186.215834 
L 199.508651 186.215834 
L 199.508651 185.280331 
L 360.8064 185.280331 
L 360.8064 185.280331 
" style="fill: none; stroke: #6495ed; stroke-width: 1.5; stroke-linecap: square"/>
   </g>
   <g id="line2d_51">
    <defs>
     <path id="m6eb1ea3efb" d="M -0 6 
L 6 -6 
L -6 -6 
z
" style="stroke: #6495ed; stroke-width: 1.5; stroke-linejoin: miter"/>
    </defs>
    <g>
     <use xlink:href="#m6eb1ea3efb" x="66.441498" y="282.104938" style="fill-opacity: 0; stroke: #6495ed; stroke-width: 1.5; stroke-linejoin: miter"/>
     <use xlink:href="#m6eb1ea3efb" x="147.940229" y="252.636579" style="fill-opacity: 0; stroke: #6495ed; stroke-width: 1.5; stroke-linejoin: miter"/>
     <use xlink:href="#m6eb1ea3efb" x="199.508651" y="186.215834" style="fill-opacity: 0; stroke: #6495ed; stroke-width: 1.5; stroke-linejoin: miter"/>
     <use xlink:href="#m6eb1ea3efb" x="199.508651" y="185.280331" style="fill-opacity: 0; stroke: #6495ed; stroke-width: 1.5; stroke-linejoin: miter"/>
     <use xlink:href="#m6eb1ea3efb" x="199.508651" y="185.280331" style="fill-opacity: 0; stroke: #6495ed; stroke-width: 1.5; stroke-linejoin: miter"/>
     <use xlink:href="#m6eb1ea3efb" x="360.8064" y="185.280331" style="fill-opacity: 0; stroke: #6495ed; stroke-width: 1.5; stroke-linejoin: miter"/>
    </g>
   </g>
   <g id="line2d_52">
    <path style="fill: none; stroke: #6495ed; stroke-width: 1.5; stroke-linecap: square"/>
    <g/>
   </g>
   <g id="line2d_53">
    <path d="M 230.86381 185.280331 
" clip-path="url(#pdc6d5558e7)" style="fill: none; stroke: #6495ed; stroke-width: 1.5; stroke-linecap: square"/>
    <defs>
     <path id="md615c15a8c" d="M -12 12 
L 12 -12 
M -12 -12 
L 12 12 
" style="stroke: #6495ed"/>
    </defs>
    <g clip-path="url(#pdc6d5558e7)">
     <use xlink:href="#md615c15a8c" x="230.86381" y="185.280331" style="fill: #6495ed; stroke: #6495ed"/>
    </g>
   </g>
   <g id="line2d_54">
    <defs>
     <path id="m7be406550a" d="M 0 1.5 
C 0.397805 1.5 0.77937 1.341951 1.06066 1.06066 
C 1.341951 0.77937 1.5 0.397805 1.5 0 
C 1.5 -0.397805 1.341951 -0.77937 1.06066 -1.06066 
C 0.77937 -1.341951 0.397805 -1.5 0 -1.5 
C -0.397805 -1.5 -0.77937 -1.341951 -1.06066 -1.06066 
C -1.341951 -0.77937 -1.5 -0.397805 -1.5 0 
C -1.5 0.397805 -1.341951 0.77937 -1.06066 1.06066 
C -0.77937 1.341951 -0.397805 1.5 0 1.5 
z
" style="stroke: #ff0000"/>
    </defs>
    <g>
     <use xlink:href="#m7be406550a" x="199.095813" y="178.731807" style="fill: #ff0000; stroke: #ff0000"/>
     <use xlink:href="#m7be406550a" x="199.095813" y="178.731807" style="fill: #ff0000; stroke: #ff0000"/>
    </g>
   </g>
   <g id="line2d_55">
    <path d="M 27.323974 298.944 
L 27.323974 282.57269 
L 40.363149 282.57269 
L 40.363149 281.637186 
L 53.402323 281.637186 
L 53.402323 280.233931 
L 57.6 280.233931 
L 57.6 279.766179 
L 68.65718 279.766179 
L 68.65718 279.298428 
L 70.639174 279.298428 
L 70.639174 277.895172 
L 74.068926 277.895172 
L 74.068926 277.427421 
L 75.574654 277.427421 
L 75.574654 276.491917 
L 76.96874 276.491917 
L 76.96874 276.024166 
L 83.678349 276.024166 
L 83.678349 275.556414 
L 86.307488 275.556414 
L 86.307488 275.088662 
L 90.007914 275.088662 
L 90.007914 274.62091 
L 95.752617 274.62091 
L 95.752617 273.685407 
L 98.077987 273.685407 
L 98.077987 272.749903 
L 101.653002 272.749903 
L 101.653002 271.8144 
L 102.708132 271.8144 
L 102.708132 271.346648 
L 104.961779 271.346648 
L 104.961779 270.878897 
L 106.42077 270.878897 
L 106.42077 269.943393 
L 107.5116 269.943393 
L 107.5116 268.072386 
L 109.520071 268.072386 
L 109.520071 267.604634 
L 110.449226 267.604634 
L 110.449226 267.136883 
L 112.385837 267.136883 
L 112.385837 266.201379 
L 115.747307 266.201379 
L 115.747307 265.265876 
L 115.917548 265.265876 
L 115.917548 264.798124 
L 116.746385 264.798124 
L 116.746385 264.330372 
L 116.907859 264.330372 
L 116.907859 263.862621 
L 120.682786 263.862621 
L 120.682786 263.394869 
L 121.581803 263.394869 
L 121.581803 262.459366 
L 121.706797 262.459366 
L 121.706797 261.991614 
L 122.19863 261.991614 
L 122.19863 261.523862 
L 123.260379 261.523862 
L 123.260379 261.05611 
L 124.046648 261.05611 
L 124.046648 260.588359 
L 126.127391 260.588359 
L 126.127391 260.120607 
L 127.640693 260.120607 
L 127.640693 258.717352 
L 128.266313 258.717352 
L 128.266313 258.2496 
L 133.390178 258.2496 
L 133.390178 257.781848 
L 134.047992 257.781848 
L 134.047992 257.314097 
L 134.176839 257.314097 
L 134.176839 256.378593 
L 134.304809 256.378593 
L 134.304809 255.44309 
L 134.683578 255.44309 
L 134.683578 254.975338 
L 135.657857 254.975338 
L 135.657857 254.507586 
L 136.068734 254.507586 
L 136.068734 253.572083 
L 136.184497 253.572083 
L 136.184497 252.168828 
L 137.195511 252.168828 
L 137.195511 251.233324 
L 139.508159 251.233324 
L 139.508159 248.894566 
L 139.700607 248.894566 
L 139.700607 247.959062 
L 140.770526 247.959062 
L 140.770526 247.49131 
L 143.18612 247.49131 
L 143.18612 247.023559 
L 143.423243 247.023559 
L 143.423243 246.555807 
L 144.454795 246.555807 
L 144.454795 246.088055 
L 144.85936 246.088055 
L 144.85936 245.620303 
L 145.184016 245.620303 
L 145.184016 245.152552 
L 145.920443 245.152552 
L 145.920443 244.217048 
L 146.362288 244.217048 
L 146.362288 243.749297 
L 146.957431 243.749297 
L 146.957431 243.281545 
L 147.248088 243.281545 
L 147.248088 242.346041 
L 148.667336 242.346041 
L 148.667336 241.87829 
L 149.453084 241.87829 
L 149.453084 241.410538 
L 150.042308 241.410538 
L 150.097474 240.007283 
L 152.032588 240.007283 
L 152.032588 239.539531 
L 152.595631 239.539531 
L 152.595631 239.071779 
L 152.811444 239.071779 
L 152.811444 238.604028 
L 153.001222 238.604028 
L 153.02481 237.200772 
L 153.351976 237.200772 
L 153.351976 236.265269 
L 153.627945 236.265269 
L 153.627945 235.797517 
L 153.967309 235.797517 
L 153.967309 235.329766 
L 154.563149 235.329766 
L 154.563149 234.394262 
L 155.516105 234.394262 
L 155.516105 233.92651 
L 155.843627 233.92651 
L 155.843627 232.991007 
L 155.964992 232.991007 
L 155.964992 232.523255 
L 156.908716 232.523255 
L 156.908716 231.587752 
L 157.250754 231.587752 
L 157.250754 231.12 
L 158.115593 231.12 
L 158.115593 230.652248 
L 158.436556 230.652248 
L 158.436556 229.716745 
L 159.215793 229.716745 
L 159.215793 228.781241 
L 159.68485 228.781241 
L 159.68485 227.845738 
L 161.512345 227.845738 
L 161.587261 225.974731 
L 161.913396 225.974731 
L 161.913396 225.039228 
L 162.690724 225.039228 
L 162.690724 224.103724 
L 163.053839 224.103724 
L 163.053839 223.168221 
L 163.191653 223.168221 
L 163.191653 222.700469 
L 164.388551 222.700469 
L 164.388551 221.764966 
L 164.846771 221.764966 
L 164.846771 220.829462 
L 165.059334 220.829462 
L 165.059334 220.36171 
L 165.207944 220.36171 
L 165.207944 219.426207 
L 165.622743 219.426207 
L 165.622743 218.490703 
L 166.564105 218.490703 
L 166.564105 218.022952 
L 166.678531 218.022952 
L 166.678531 217.087448 
L 167.394821 217.087448 
L 167.394821 216.151945 
L 167.580589 216.151945 
L 167.580589 215.684193 
L 167.753769 215.684193 
L 167.753769 215.216441 
L 168.347644 215.216441 
L 168.347644 214.74869 
L 168.903083 214.74869 
L 168.903083 214.280938 
L 169.919104 214.280938 
L 169.919104 213.345434 
L 170.129185 213.345434 
L 170.223906 211.474428 
L 170.252229 211.474428 
L 170.252229 210.538924 
L 170.708911 210.538924 
L 170.708911 209.603421 
L 171.001277 209.603421 
L 171.001277 209.135669 
L 171.145773 209.135669 
L 171.226568 207.732414 
L 172.314244 207.732414 
L 172.314244 207.264662 
L 172.482581 207.264662 
L 172.482581 206.329159 
L 172.765341 206.329159 
L 172.765341 205.861407 
L 173.205875 205.861407 
L 173.205875 204.925903 
L 173.382435 204.925903 
L 173.382435 203.9904 
L 173.714971 203.9904 
L 173.714971 203.054897 
L 174.438582 203.054897 
L 174.438582 202.587145 
L 174.648853 202.587145 
L 174.745685 199.312883 
L 174.819834 199.312883 
L 174.819834 198.845131 
L 175.236991 198.845131 
L 175.236991 198.377379 
L 175.445731 198.377379 
L 175.445731 197.441876 
L 175.588351 197.441876 
L 175.588351 196.506372 
L 175.729899 196.506372 
L 175.729899 196.038621 
L 176.044539 196.038621 
L 176.044539 195.570869 
L 177.109374 195.570869 
L 177.220434 194.167614 
L 177.239965 194.167614 
L 177.291948 192.764359 
L 178.271774 192.764359 
L 178.271774 191.828855 
L 178.498311 191.828855 
L 178.498311 191.361103 
L 178.619637 191.361103 
L 178.692059 190.4256 
L 179.138486 190.4256 
L 179.138486 189.957848 
L 179.649133 189.957848 
L 179.649133 189.022345 
L 180.401022 189.022345 
L 180.401022 188.086841 
L 180.516178 188.086841 
L 180.516178 187.61909 
L 181.0072 187.61909 
L 181.0072 187.151338 
L 182.238904 187.151338 
L 182.238904 186.683586 
L 182.353291 186.683586 
L 182.353291 185.748083 
L 183.576965 185.748083 
L 183.618732 184.812579 
L 183.771091 184.812579 
L 183.771091 183.877076 
L 185.183561 183.877076 
L 185.183561 183.409324 
L 185.750786 183.409324 
L 185.750786 182.941572 
L 186.995873 182.941572 
L 187.02297 181.070566 
L 189.711051 181.070566 
L 189.711051 180.602814 
L 196.646314 180.602814 
L 196.646314 180.135062 
L 197.771608 180.135062 
L 197.771608 179.199559 
L 199.095813 179.199559 
L 199.095813 178.731807 
L 360.8064 178.731807 
L 360.8064 178.731807 
" style="fill: none; stroke: #ff0000; stroke-width: 1.5; stroke-linecap: square"/>
   </g>
   <g id="line2d_56">
    <defs>
     <path id="m0b17176701" d="M 0 -6 
L -5.196152 -3 
L -5.196152 3 
L -0 6 
L 5.196152 3 
L 5.196152 -3 
z
" style="stroke: #ff0000; stroke-width: 1.5; stroke-linejoin: miter"/>
    </defs>
    <g>
     <use xlink:href="#m0b17176701" x="86.307488" y="275.556414" style="fill-opacity: 0; stroke: #ff0000; stroke-width: 1.5; stroke-linejoin: miter"/>
     <use xlink:href="#m0b17176701" x="140.770526" y="247.959062" style="fill-opacity: 0; stroke: #ff0000; stroke-width: 1.5; stroke-linejoin: miter"/>
     <use xlink:href="#m0b17176701" x="199.095813" y="179.199559" style="fill-opacity: 0; stroke: #ff0000; stroke-width: 1.5; stroke-linejoin: miter"/>
     <use xlink:href="#m0b17176701" x="199.095813" y="179.199559" style="fill-opacity: 0; stroke: #ff0000; stroke-width: 1.5; stroke-linejoin: miter"/>
     <use xlink:href="#m0b17176701" x="199.095813" y="178.731807" style="fill-opacity: 0; stroke: #ff0000; stroke-width: 1.5; stroke-linejoin: miter"/>
     <use xlink:href="#m0b17176701" x="360.8064" y="178.731807" style="fill-opacity: 0; stroke: #ff0000; stroke-width: 1.5; stroke-linejoin: miter"/>
    </g>
   </g>
   <g id="line2d_57">
    <path style="fill: none; stroke: #ff0000; stroke-width: 1.5; stroke-linecap: square"/>
    <g/>
   </g>
   <g id="line2d_58">
    <path d="M 274.176188 178.731807 
" clip-path="url(#pdc6d5558e7)" style="fill: none; stroke: #ff0000; stroke-width: 1.5; stroke-linecap: square"/>
    <defs>
     <path id="m40c688c2af" d="M -12 12 
L 12 -12 
M -12 -12 
L 12 12 
" style="stroke: #ff0000"/>
    </defs>
    <g clip-path="url(#pdc6d5558e7)">
     <use xlink:href="#m40c688c2af" x="274.176188" y="178.731807" style="fill: #ff0000; stroke: #ff0000"/>
    </g>
   </g>
   <g id="line2d_59">
    <path d="M 360.8064 190.893352 
L 380.514816 293.51808 
" style="fill: none; stroke: #ff7500; stroke-width: 1.5; stroke-linecap: square"/>
    <g>
     <use xlink:href="#m095c34822a" x="360.8064" y="190.893352" style="fill-opacity: 0; stroke: #ff7500; stroke-width: 1.5; stroke-linejoin: bevel"/>
     <use xlink:href="#m095c34822a" x="380.514816" y="293.51808" style="fill-opacity: 0; stroke: #ff7500; stroke-width: 1.5; stroke-linejoin: bevel"/>
    </g>
   </g>
   <g id="line2d_60">
    <path d="M 360.8064 185.280331 
L 380.514816 241.429248 
" style="fill: none; stroke: #6495ed; stroke-width: 1.5; stroke-linecap: square"/>
    <g>
     <use xlink:href="#m6eb1ea3efb" x="360.8064" y="185.280331" style="fill-opacity: 0; stroke: #6495ed; stroke-width: 1.5; stroke-linejoin: miter"/>
     <use xlink:href="#m6eb1ea3efb" x="380.514816" y="241.429248" style="fill-opacity: 0; stroke: #6495ed; stroke-width: 1.5; stroke-linejoin: miter"/>
    </g>
   </g>
   <g id="line2d_61">
    <path d="M 360.8064 179.199559 
L 380.514816 189.340416 
" style="fill: none; stroke: #ff00ff; stroke-width: 1.5; stroke-linecap: square"/>
    <g>
     <use xlink:href="#m5022b573a5" x="360.8064" y="179.199559" style="fill-opacity: 0; stroke: #ff00ff; stroke-width: 1.5; stroke-linejoin: miter"/>
     <use xlink:href="#m5022b573a5" x="380.514816" y="189.340416" style="fill-opacity: 0; stroke: #ff00ff; stroke-width: 1.5; stroke-linejoin: miter"/>
    </g>
   </g>
   <g id="line2d_62">
    <path d="M 360.8064 178.731807 
L 380.514816 137.251584 
" style="fill: none; stroke: #ff0000; stroke-width: 1.5; stroke-linecap: square"/>
    <g>
     <use xlink:href="#m0b17176701" x="360.8064" y="178.731807" style="fill-opacity: 0; stroke: #ff0000; stroke-width: 1.5; stroke-linejoin: miter"/>
     <use xlink:href="#m0b17176701" x="380.514816" y="137.251584" style="fill-opacity: 0; stroke: #ff0000; stroke-width: 1.5; stroke-linejoin: miter"/>
    </g>
   </g>
   <g id="line2d_63">
    <path d="M 360.8064 168.909021 
L 380.514816 85.162752 
" style="fill: none; stroke: #000080; stroke-width: 1.5; stroke-linecap: square"/>
    <g>
     <use xlink:href="#m6b2582c825" x="360.8064" y="168.909021" style="fill-opacity: 0; stroke: #000080; stroke-width: 1.5"/>
     <use xlink:href="#m6b2582c825" x="380.514816" y="85.162752" style="fill-opacity: 0; stroke: #000080; stroke-width: 1.5"/>
    </g>
   </g>
   <g id="line2d_64">
    <path d="M 360.8064 298.944 
L 360.8064 27.648 
" style="fill: none; stroke: #000000; stroke-width: 1.5; stroke-linecap: square"/>
   </g>
   <g id="patch_3">
    <path d="M 57.6 298.944 
L 360.8064 298.944 
" style="fill: none; stroke: #000000; stroke-width: 0.8; stroke-linejoin: miter; stroke-linecap: square"/>
   </g>
   <g id="patch_4">
    <path d="M 57.6 27.648 
L 360.8064 27.648 
" style="fill: none; stroke: #000000; stroke-width: 0.8; stroke-linejoin: miter; stroke-linecap: square"/>
   </g>
   <g id="text_13">
    <!-- kerComo -->
    <g transform="translate(386.578944 297.381205) scale(0.14 -0.14)">
     <defs>
      <path id="DejaVuSans-6b" d="M 581 4863 
L 1159 4863 
L 1159 1991 
L 2875 3500 
L 3609 3500 
L 1753 1863 
L 3688 0 
L 2938 0 
L 1159 1709 
L 1159 0 
L 581 0 
L 581 4863 
z
" transform="scale(0.015625)"/>
      <path id="DejaVuSans-43" d="M 4122 4306 
L 4122 3641 
Q 3803 3938 3442 4084 
Q 3081 4231 2675 4231 
Q 1875 4231 1450 3742 
Q 1025 3253 1025 2328 
Q 1025 1406 1450 917 
Q 1875 428 2675 428 
Q 3081 428 3442 575 
Q 3803 722 4122 1019 
L 4122 359 
Q 3791 134 3420 21 
Q 3050 -91 2638 -91 
Q 1578 -91 968 557 
Q 359 1206 359 2328 
Q 359 3453 968 4101 
Q 1578 4750 2638 4750 
Q 3056 4750 3426 4639 
Q 3797 4528 4122 4306 
z
" transform="scale(0.015625)"/>
     </defs>
     <use xlink:href="#DejaVuSans-6b"/>
     <use xlink:href="#DejaVuSans-65" x="54.285156"/>
     <use xlink:href="#DejaVuSans-72" x="115.808594"/>
     <use xlink:href="#DejaVuSans-43" x="156.921875"/>
     <use xlink:href="#DejaVuSans-6f" x="226.746094"/>
     <use xlink:href="#DejaVuSans-6d" x="287.927734"/>
     <use xlink:href="#DejaVuSans-6f" x="385.339844"/>
    </g>
   </g>
   <g id="text_14">
    <!-- kerLQ -->
    <g transform="translate(386.578944 245.292373) scale(0.14 -0.14)">
     <defs>
      <path id="DejaVuSans-4c" d="M 628 4666 
L 1259 4666 
L 1259 531 
L 3531 531 
L 3531 0 
L 628 0 
L 628 4666 
z
" transform="scale(0.015625)"/>
      <path id="DejaVuSans-51" d="M 2522 4238 
Q 1834 4238 1429 3725 
Q 1025 3213 1025 2328 
Q 1025 1447 1429 934 
Q 1834 422 2522 422 
Q 3209 422 3611 934 
Q 4013 1447 4013 2328 
Q 4013 3213 3611 3725 
Q 3209 4238 2522 4238 
z
M 3406 84 
L 4238 -825 
L 3475 -825 
L 2784 -78 
Q 2681 -84 2626 -87 
Q 2572 -91 2522 -91 
Q 1538 -91 948 567 
Q 359 1225 359 2328 
Q 359 3434 948 4092 
Q 1538 4750 2522 4750 
Q 3503 4750 4090 4092 
Q 4678 3434 4678 2328 
Q 4678 1516 4351 937 
Q 4025 359 3406 84 
z
" transform="scale(0.015625)"/>
     </defs>
     <use xlink:href="#DejaVuSans-6b"/>
     <use xlink:href="#DejaVuSans-65" x="54.285156"/>
     <use xlink:href="#DejaVuSans-72" x="115.808594"/>
     <use xlink:href="#DejaVuSans-4c" x="156.921875"/>
     <use xlink:href="#DejaVuSans-51" x="212.634766"/>
    </g>
   </g>
   <g id="text_15">
    <!-- AllLQ -->
    <g transform="translate(386.578944 193.203541) scale(0.14 -0.14)">
     <defs>
      <path id="DejaVuSans-41" d="M 2188 4044 
L 1331 1722 
L 3047 1722 
L 2188 4044 
z
M 1831 4666 
L 2547 4666 
L 4325 0 
L 3669 0 
L 3244 1197 
L 1141 1197 
L 716 0 
L 50 0 
L 1831 4666 
z
" transform="scale(0.015625)"/>
     </defs>
     <use xlink:href="#DejaVuSans-41"/>
     <use xlink:href="#DejaVuSans-6c" x="68.408203"/>
     <use xlink:href="#DejaVuSans-6c" x="96.191406"/>
     <use xlink:href="#DejaVuSans-4c" x="123.974609"/>
     <use xlink:href="#DejaVuSans-51" x="179.6875"/>
    </g>
   </g>
   <g id="text_16">
    <!-- COMO-10 d -->
    <g transform="translate(386.578944 141.114709) scale(0.14 -0.14)">
     <defs>
      <path id="DejaVuSans-4f" d="M 2522 4238 
Q 1834 4238 1429 3725 
Q 1025 3213 1025 2328 
Q 1025 1447 1429 934 
Q 1834 422 2522 422 
Q 3209 422 3611 934 
Q 4013 1447 4013 2328 
Q 4013 3213 3611 3725 
Q 3209 4238 2522 4238 
z
M 2522 4750 
Q 3503 4750 4090 4092 
Q 4678 3434 4678 2328 
Q 4678 1225 4090 567 
Q 3503 -91 2522 -91 
Q 1538 -91 948 565 
Q 359 1222 359 2328 
Q 359 3434 948 4092 
Q 1538 4750 2522 4750 
z
" transform="scale(0.015625)"/>
      <path id="DejaVuSans-4d" d="M 628 4666 
L 1569 4666 
L 2759 1491 
L 3956 4666 
L 4897 4666 
L 4897 0 
L 4281 0 
L 4281 4097 
L 3078 897 
L 2444 897 
L 1241 4097 
L 1241 0 
L 628 0 
L 628 4666 
z
" transform="scale(0.015625)"/>
     </defs>
     <use xlink:href="#DejaVuSans-43"/>
     <use xlink:href="#DejaVuSans-4f" x="69.824219"/>
     <use xlink:href="#DejaVuSans-4d" x="148.535156"/>
     <use xlink:href="#DejaVuSans-4f" x="234.814453"/>
     <use xlink:href="#DejaVuSans-2d" x="316.275391"/>
     <use xlink:href="#DejaVuSans-31" x="352.359375"/>
     <use xlink:href="#DejaVuSans-30" x="415.982422"/>
     <use xlink:href="#DejaVuSans-20" x="479.605469"/>
     <use xlink:href="#DejaVuSans-64" x="511.392578"/>
    </g>
   </g>
   <g id="text_17">
    <!-- AllComo -->
    <g transform="translate(386.578944 89.025877) scale(0.14 -0.14)">
     <use xlink:href="#DejaVuSans-41"/>
     <use xlink:href="#DejaVuSans-6c" x="68.408203"/>
     <use xlink:href="#DejaVuSans-6c" x="96.191406"/>
     <use xlink:href="#DejaVuSans-43" x="123.974609"/>
     <use xlink:href="#DejaVuSans-6f" x="193.798828"/>
     <use xlink:href="#DejaVuSans-6d" x="254.980469"/>
     <use xlink:href="#DejaVuSans-6f" x="352.392578"/>
    </g>
   </g>
   <g id="text_18">
    <!-- best 2016 -->
    <g transform="translate(386.578944 36.937045) scale(0.14 -0.14)">
     <defs>
      <path id="DejaVuSans-62" d="M 3116 1747 
Q 3116 2381 2855 2742 
Q 2594 3103 2138 3103 
Q 1681 3103 1420 2742 
Q 1159 2381 1159 1747 
Q 1159 1113 1420 752 
Q 1681 391 2138 391 
Q 2594 391 2855 752 
Q 3116 1113 3116 1747 
z
M 1159 2969 
Q 1341 3281 1617 3432 
Q 1894 3584 2278 3584 
Q 2916 3584 3314 3078 
Q 3713 2572 3713 1747 
Q 3713 922 3314 415 
Q 2916 -91 2278 -91 
Q 1894 -91 1617 61 
Q 1341 213 1159 525 
L 1159 0 
L 581 0 
L 581 4863 
L 1159 4863 
L 1159 2969 
z
" transform="scale(0.015625)"/>
     </defs>
     <use xlink:href="#DejaVuSans-62"/>
     <use xlink:href="#DejaVuSans-65" x="63.476562"/>
     <use xlink:href="#DejaVuSans-73" x="125"/>
     <use xlink:href="#DejaVuSans-74" x="177.099609"/>
     <use xlink:href="#DejaVuSans-20" x="216.308594"/>
     <use xlink:href="#DejaVuSans-32" x="248.095703"/>
     <use xlink:href="#DejaVuSans-30" x="311.71875"/>
     <use xlink:href="#DejaVuSans-31" x="375.341797"/>
     <use xlink:href="#DejaVuSans-36" x="438.964844"/>
    </g>
   </g>
   <g id="text_19">
    <!-- bbob-biobj f23, 5-D -->
    <g transform="translate(60.632064 38.111366) scale(0.102 -0.102)">
     <defs>
      <path id="DejaVuSans-6a" d="M 603 3500 
L 1178 3500 
L 1178 -63 
Q 1178 -731 923 -1031 
Q 669 -1331 103 -1331 
L -116 -1331 
L -116 -844 
L 38 -844 
Q 366 -844 484 -692 
Q 603 -541 603 -63 
L 603 3500 
z
M 603 4863 
L 1178 4863 
L 1178 4134 
L 603 4134 
L 603 4863 
z
" transform="scale(0.015625)"/>
      <path id="DejaVuSans-33" d="M 2597 2516 
Q 3050 2419 3304 2112 
Q 3559 1806 3559 1356 
Q 3559 666 3084 287 
Q 2609 -91 1734 -91 
Q 1441 -91 1130 -33 
Q 819 25 488 141 
L 488 750 
Q 750 597 1062 519 
Q 1375 441 1716 441 
Q 2309 441 2620 675 
Q 2931 909 2931 1356 
Q 2931 1769 2642 2001 
Q 2353 2234 1838 2234 
L 1294 2234 
L 1294 2753 
L 1863 2753 
Q 2328 2753 2575 2939 
Q 2822 3125 2822 3475 
Q 2822 3834 2567 4026 
Q 2313 4219 1838 4219 
Q 1578 4219 1281 4162 
Q 984 4106 628 3988 
L 628 4550 
Q 988 4650 1302 4700 
Q 1616 4750 1894 4750 
Q 2613 4750 3031 4423 
Q 3450 4097 3450 3541 
Q 3450 3153 3228 2886 
Q 3006 2619 2597 2516 
z
" transform="scale(0.015625)"/>
      <path id="DejaVuSans-35" d="M 691 4666 
L 3169 4666 
L 3169 4134 
L 1269 4134 
L 1269 2991 
Q 1406 3038 1543 3061 
Q 1681 3084 1819 3084 
Q 2600 3084 3056 2656 
Q 3513 2228 3513 1497 
Q 3513 744 3044 326 
Q 2575 -91 1722 -91 
Q 1428 -91 1123 -41 
Q 819 9 494 109 
L 494 744 
Q 775 591 1075 516 
Q 1375 441 1709 441 
Q 2250 441 2565 725 
Q 2881 1009 2881 1497 
Q 2881 1984 2565 2268 
Q 2250 2553 1709 2553 
Q 1456 2553 1204 2497 
Q 953 2441 691 2322 
L 691 4666 
z
" transform="scale(0.015625)"/>
      <path id="DejaVuSans-44" d="M 1259 4147 
L 1259 519 
L 2022 519 
Q 2988 519 3436 956 
Q 3884 1394 3884 2338 
Q 3884 3275 3436 3711 
Q 2988 4147 2022 4147 
L 1259 4147 
z
M 628 4666 
L 1925 4666 
Q 3281 4666 3915 4102 
Q 4550 3538 4550 2338 
Q 4550 1131 3912 565 
Q 3275 0 1925 0 
L 628 0 
L 628 4666 
z
" transform="scale(0.015625)"/>
     </defs>
     <use xlink:href="#DejaVuSans-62"/>
     <use xlink:href="#DejaVuSans-62" x="63.476562"/>
     <use xlink:href="#DejaVuSans-6f" x="126.953125"/>
     <use xlink:href="#DejaVuSans-62" x="188.134766"/>
     <use xlink:href="#DejaVuSans-2d" x="251.611328"/>
     <use xlink:href="#DejaVuSans-62" x="287.695312"/>
     <use xlink:href="#DejaVuSans-69" x="351.171875"/>
     <use xlink:href="#DejaVuSans-6f" x="378.955078"/>
     <use xlink:href="#DejaVuSans-62" x="440.136719"/>
     <use xlink:href="#DejaVuSans-6a" x="503.613281"/>
     <use xlink:href="#DejaVuSans-20" x="531.396484"/>
     <use xlink:href="#DejaVuSans-66" x="563.183594"/>
     <use xlink:href="#DejaVuSans-32" x="598.388672"/>
     <use xlink:href="#DejaVuSans-33" x="662.011719"/>
     <use xlink:href="#DejaVuSans-2c" x="725.634766"/>
     <use xlink:href="#DejaVuSans-20" x="757.421875"/>
     <use xlink:href="#DejaVuSans-35" x="789.208984"/>
     <use xlink:href="#DejaVuSans-2d" x="852.832031"/>
     <use xlink:href="#DejaVuSans-44" x="888.916016"/>
    </g>
    <!-- 58 targets: 1..-1.0e-4 -->
    <g transform="translate(60.632064 49.533135) scale(0.102 -0.102)">
     <defs>
      <path id="DejaVuSans-3a" d="M 750 794 
L 1409 794 
L 1409 0 
L 750 0 
L 750 794 
z
M 750 3309 
L 1409 3309 
L 1409 2516 
L 750 2516 
L 750 3309 
z
" transform="scale(0.015625)"/>
     </defs>
     <use xlink:href="#DejaVuSans-35"/>
     <use xlink:href="#DejaVuSans-38" x="63.623047"/>
     <use xlink:href="#DejaVuSans-20" x="127.246094"/>
     <use xlink:href="#DejaVuSans-74" x="159.033203"/>
     <use xlink:href="#DejaVuSans-61" x="198.242188"/>
     <use xlink:href="#DejaVuSans-72" x="259.521484"/>
     <use xlink:href="#DejaVuSans-67" x="298.884766"/>
     <use xlink:href="#DejaVuSans-65" x="362.361328"/>
     <use xlink:href="#DejaVuSans-74" x="423.884766"/>
     <use xlink:href="#DejaVuSans-73" x="463.09375"/>
     <use xlink:href="#DejaVuSans-3a" x="515.193359"/>
     <use xlink:href="#DejaVuSans-20" x="548.884766"/>
     <use xlink:href="#DejaVuSans-31" x="580.671875"/>
     <use xlink:href="#DejaVuSans-2e" x="644.294922"/>
     <use xlink:href="#DejaVuSans-2e" x="676.082031"/>
     <use xlink:href="#DejaVuSans-2d" x="707.869141"/>
     <use xlink:href="#DejaVuSans-31" x="743.953125"/>
     <use xlink:href="#DejaVuSans-2e" x="807.576172"/>
     <use xlink:href="#DejaVuSans-30" x="839.363281"/>
     <use xlink:href="#DejaVuSans-65" x="902.986328"/>
     <use xlink:href="#DejaVuSans-2d" x="964.509766"/>
     <use xlink:href="#DejaVuSans-34" x="1000.59375"/>
    </g>
    <!-- 10 instances -->
    <g transform="translate(60.632064 60.954904) scale(0.102 -0.102)">
     <use xlink:href="#DejaVuSans-31"/>
     <use xlink:href="#DejaVuSans-30" x="63.623047"/>
     <use xlink:href="#DejaVuSans-20" x="127.246094"/>
     <use xlink:href="#DejaVuSans-69" x="159.033203"/>
     <use xlink:href="#DejaVuSans-6e" x="186.816406"/>
     <use xlink:href="#DejaVuSans-73" x="250.195312"/>
     <use xlink:href="#DejaVuSans-74" x="302.294922"/>
     <use xlink:href="#DejaVuSans-61" x="341.503906"/>
     <use xlink:href="#DejaVuSans-6e" x="402.783203"/>
     <use xlink:href="#DejaVuSans-63" x="466.162109"/>
     <use xlink:href="#DejaVuSans-65" x="521.142578"/>
     <use xlink:href="#DejaVuSans-73" x="582.666016"/>
    </g>
   </g>
   <g id="text_20">
    <!-- v2.6, hv-hash=d240b271ab0b4926 -->
    <g style="fill: #808080" transform="translate(120.362575 294.151352) scale(0.1 -0.1)">
     <defs>
      <path id="DejaVuSans-68" d="M 3513 2113 
L 3513 0 
L 2938 0 
L 2938 2094 
Q 2938 2591 2744 2837 
Q 2550 3084 2163 3084 
Q 1697 3084 1428 2787 
Q 1159 2491 1159 1978 
L 1159 0 
L 581 0 
L 581 4863 
L 1159 4863 
L 1159 2956 
Q 1366 3272 1645 3428 
Q 1925 3584 2291 3584 
Q 2894 3584 3203 3211 
Q 3513 2838 3513 2113 
z
" transform="scale(0.015625)"/>
      <path id="DejaVuSans-3d" d="M 678 2906 
L 4684 2906 
L 4684 2381 
L 678 2381 
L 678 2906 
z
M 678 1631 
L 4684 1631 
L 4684 1100 
L 678 1100 
L 678 1631 
z
" transform="scale(0.015625)"/>
      <path id="DejaVuSans-37" d="M 525 4666 
L 3525 4666 
L 3525 4397 
L 1831 0 
L 1172 0 
L 2766 4134 
L 525 4134 
L 525 4666 
z
" transform="scale(0.015625)"/>
      <path id="DejaVuSans-39" d="M 703 97 
L 703 672 
Q 941 559 1184 500 
Q 1428 441 1663 441 
Q 2288 441 2617 861 
Q 2947 1281 2994 2138 
Q 2813 1869 2534 1725 
Q 2256 1581 1919 1581 
Q 1219 1581 811 2004 
Q 403 2428 403 3163 
Q 403 3881 828 4315 
Q 1253 4750 1959 4750 
Q 2769 4750 3195 4129 
Q 3622 3509 3622 2328 
Q 3622 1225 3098 567 
Q 2575 -91 1691 -91 
Q 1453 -91 1209 -44 
Q 966 3 703 97 
z
M 1959 2075 
Q 2384 2075 2632 2365 
Q 2881 2656 2881 3163 
Q 2881 3666 2632 3958 
Q 2384 4250 1959 4250 
Q 1534 4250 1286 3958 
Q 1038 3666 1038 3163 
Q 1038 2656 1286 2365 
Q 1534 2075 1959 2075 
z
" transform="scale(0.015625)"/>
     </defs>
     <use xlink:href="#DejaVuSans-76"/>
     <use xlink:href="#DejaVuSans-32" x="59.179688"/>
     <use xlink:href="#DejaVuSans-2e" x="122.802734"/>
     <use xlink:href="#DejaVuSans-36" x="154.589844"/>
     <use xlink:href="#DejaVuSans-2c" x="218.212891"/>
     <use xlink:href="#DejaVuSans-20" x="250"/>
     <use xlink:href="#DejaVuSans-68" x="281.787109"/>
     <use xlink:href="#DejaVuSans-76" x="345.166016"/>
     <use xlink:href="#DejaVuSans-2d" x="401.720703"/>
     <use xlink:href="#DejaVuSans-68" x="437.804688"/>
     <use xlink:href="#DejaVuSans-61" x="501.183594"/>
     <use xlink:href="#DejaVuSans-73" x="562.462891"/>
     <use xlink:href="#DejaVuSans-68" x="614.5625"/>
     <use xlink:href="#DejaVuSans-3d" x="677.941406"/>
     <use xlink:href="#DejaVuSans-64" x="761.730469"/>
     <use xlink:href="#DejaVuSans-32" x="825.207031"/>
     <use xlink:href="#DejaVuSans-34" x="888.830078"/>
     <use xlink:href="#DejaVuSans-30" x="952.453125"/>
     <use xlink:href="#DejaVuSans-62" x="1016.076172"/>
     <use xlink:href="#DejaVuSans-32" x="1079.552734"/>
     <use xlink:href="#DejaVuSans-37" x="1143.175781"/>
     <use xlink:href="#DejaVuSans-31" x="1206.798828"/>
     <use xlink:href="#DejaVuSans-61" x="1270.421875"/>
     <use xlink:href="#DejaVuSans-62" x="1331.701172"/>
     <use xlink:href="#DejaVuSans-30" x="1395.177734"/>
     <use xlink:href="#DejaVuSans-62" x="1458.800781"/>
     <use xlink:href="#DejaVuSans-34" x="1522.277344"/>
     <use xlink:href="#DejaVuSans-39" x="1585.900391"/>
     <use xlink:href="#DejaVuSans-32" x="1649.523438"/>
     <use xlink:href="#DejaVuSans-36" x="1713.146484"/>
    </g>
   </g>
   <g id="text_21">
    <!-- 23 Attr. sector/Diff. Powers -->
    <g transform="translate(76.27195 21.648) scale(0.2 -0.2)">
     <defs>
      <path id="DejaVuSans-50" d="M 1259 4147 
L 1259 2394 
L 2053 2394 
Q 2494 2394 2734 2622 
Q 2975 2850 2975 3272 
Q 2975 3691 2734 3919 
Q 2494 4147 2053 4147 
L 1259 4147 
z
M 628 4666 
L 2053 4666 
Q 2838 4666 3239 4311 
Q 3641 3956 3641 3272 
Q 3641 2581 3239 2228 
Q 2838 1875 2053 1875 
L 1259 1875 
L 1259 0 
L 628 0 
L 628 4666 
z
" transform="scale(0.015625)"/>
      <path id="DejaVuSans-77" d="M 269 3500 
L 844 3500 
L 1563 769 
L 2278 3500 
L 2956 3500 
L 3675 769 
L 4391 3500 
L 4966 3500 
L 4050 0 
L 3372 0 
L 2619 2869 
L 1863 0 
L 1184 0 
L 269 3500 
z
" transform="scale(0.015625)"/>
     </defs>
     <use xlink:href="#DejaVuSans-32"/>
     <use xlink:href="#DejaVuSans-33" x="63.623047"/>
     <use xlink:href="#DejaVuSans-20" x="127.246094"/>
     <use xlink:href="#DejaVuSans-41" x="159.033203"/>
     <use xlink:href="#DejaVuSans-74" x="225.691406"/>
     <use xlink:href="#DejaVuSans-74" x="264.900391"/>
     <use xlink:href="#DejaVuSans-72" x="304.109375"/>
     <use xlink:href="#DejaVuSans-2e" x="336.097656"/>
     <use xlink:href="#DejaVuSans-20" x="367.884766"/>
     <use xlink:href="#DejaVuSans-73" x="399.671875"/>
     <use xlink:href="#DejaVuSans-65" x="451.771484"/>
     <use xlink:href="#DejaVuSans-63" x="513.294922"/>
     <use xlink:href="#DejaVuSans-74" x="568.275391"/>
     <use xlink:href="#DejaVuSans-6f" x="607.484375"/>
     <use xlink:href="#DejaVuSans-72" x="668.666016"/>
     <use xlink:href="#DejaVuSans-2f" x="709.779297"/>
     <use xlink:href="#DejaVuSans-44" x="743.470703"/>
     <use xlink:href="#DejaVuSans-69" x="820.472656"/>
     <use xlink:href="#DejaVuSans-66" x="848.255859"/>
     <use xlink:href="#DejaVuSans-66" x="883.460938"/>
     <use xlink:href="#DejaVuSans-2e" x="911.416016"/>
     <use xlink:href="#DejaVuSans-20" x="943.203125"/>
     <use xlink:href="#DejaVuSans-50" x="974.990234"/>
     <use xlink:href="#DejaVuSans-6f" x="1031.667969"/>
     <use xlink:href="#DejaVuSans-77" x="1092.849609"/>
     <use xlink:href="#DejaVuSans-65" x="1174.636719"/>
     <use xlink:href="#DejaVuSans-72" x="1236.160156"/>
     <use xlink:href="#DejaVuSans-73" x="1277.273438"/>
    </g>
   </g>
  </g>
 </g>
 <defs>
  <clipPath id="pdc6d5558e7">
   <rect x="57.6" y="27.648" width="303.2064" height="271.296"/>
  </clipPath>
 </defs>
</svg>
