<?xml version="1.0" encoding="utf-8" standalone="no"?>
<!DOCTYPE svg PUBLIC "-//W3C//DTD SVG 1.1//EN"
  "http://www.w3.org/Graphics/SVG/1.1/DTD/svg11.dtd">
<svg xmlns:xlink="http://www.w3.org/1999/xlink" width="460.8pt" height="345.6pt" viewBox="0 0 460.8 345.6" xmlns="http://www.w3.org/2000/svg" version="1.1">
 <metadata>
  <rdf:RDF xmlns:dc="http://purl.org/dc/elements/1.1/" xmlns:cc="http://creativecommons.org/ns#" xmlns:rdf="http://www.w3.org/1999/02/22-rdf-syntax-ns#">
   <cc:Work>
    <dc:type rdf:resource="http://purl.org/dc/dcmitype/StillImage"/>
    <dc:date>2023-02-10T02:07:56.048784</dc:date>
    <dc:format>image/svg+xml</dc:format>
    <dc:creator>
     <cc:Agent>
      <dc:title>Matplotlib v3.6.3, https://matplotlib.org/</dc:title>
     </cc:Agent>
    </dc:creator>
   </cc:Work>
  </rdf:RDF>
 </metadata>
 <defs>
  <style type="text/css">*{stroke-linejoin: round; stroke-linecap: butt}</style>
 </defs>
 <g id="figure_1">
  <g id="patch_1">
   <path d="M 0 345.6 
L 460.8 345.6 
L 460.8 0 
L 0 0 
z
" style="fill: #ffffff"/>
  </g>
  <g id="axes_1">
   <g id="patch_2">
    <path d="M 57.6 298.944 
L 360.8064 298.944 
L 360.8064 27.648 
L 57.6 27.648 
z
" style="fill: #ffffff"/>
   </g>
   <g id="line2d_1">
    <path d="M 27.323974 298.944 
L 27.323974 294.266483 
L 59.392932 294.266483 
L 59.392932 284.911448 
L 127.087372 284.911448 
L 127.087372 275.556414 
L 153.877408 275.556414 
L 153.877408 270.878897 
L 173.027642 270.878897 
L 173.027642 256.846345 
L 183.008625 256.846345 
L 183.008625 247.49131 
L 202.457061 247.49131 
L 202.457061 242.813793 
L 229.261976 242.813793 
L 229.261976 233.458759 
L 229.761755 233.458759 
L 229.761755 219.426207 
L 259.213431 219.426207 
L 259.213431 210.071172 
L 271.96195 210.071172 
L 271.96195 200.716138 
L 280.326503 200.716138 
L 280.326503 191.361103 
L 292.321172 191.361103 
L 292.321172 186.683586 
L 299.722549 186.683586 
L 299.722549 172.651034 
L 309.626424 172.651034 
L 309.626424 167.973517 
L 324.812542 167.973517 
L 324.812542 153.940966 
L 339.90644 153.940966 
L 339.90644 144.585931 
L 340.190739 144.585931 
L 340.190739 139.908414 
L 349.15659 139.908414 
L 349.15659 125.875862 
L 360.8064 125.875862 
" style="fill: none; stroke: #f5deb3; stroke-width: 4; stroke-linecap: square"/>
   </g>
   <g id="line2d_2">
    <defs>
     <path id="m3c4eacb1d4" d="M -0 7.778175 
L 7.778175 0 
L 0 -7.778175 
L -7.778175 -0 
z
" style="stroke: #f5deb3; stroke-width: 1.5; stroke-linejoin: miter"/>
    </defs>
    <g>
     <use xlink:href="#m3c4eacb1d4" x="127.087372" y="275.556414" style="fill: #f5deb3; stroke: #f5deb3; stroke-width: 1.5; stroke-linejoin: miter"/>
     <use xlink:href="#m3c4eacb1d4" x="229.261976" y="242.813793" style="fill: #f5deb3; stroke: #f5deb3; stroke-width: 1.5; stroke-linejoin: miter"/>
     <use xlink:href="#m3c4eacb1d4" x="280.326503" y="191.361103" style="fill: #f5deb3; stroke: #f5deb3; stroke-width: 1.5; stroke-linejoin: miter"/>
     <use xlink:href="#m3c4eacb1d4" x="349.15659" y="139.908414" style="fill: #f5deb3; stroke: #f5deb3; stroke-width: 1.5; stroke-linejoin: miter"/>
     <use xlink:href="#m3c4eacb1d4" x="349.15659" y="125.875862" style="fill: #f5deb3; stroke: #f5deb3; stroke-width: 1.5; stroke-linejoin: miter"/>
     <use xlink:href="#m3c4eacb1d4" x="360.8064" y="125.875862" style="fill: #f5deb3; stroke: #f5deb3; stroke-width: 1.5; stroke-linejoin: miter"/>
    </g>
   </g>
   <g id="line2d_3">
    <path style="fill: none; stroke: #f5deb3; stroke-width: 4; stroke-linecap: square"/>
    <g/>
   </g>
   <g id="line2d_4">
    <path d="M 360.8064 125.875862 
L 380.514816 33.07392 
" style="fill: none; stroke: #f5deb3; stroke-width: 4; stroke-linecap: square"/>
    <g>
     <use xlink:href="#m3c4eacb1d4" x="360.8064" y="125.875862" style="fill: #f5deb3; stroke: #f5deb3; stroke-width: 1.5; stroke-linejoin: miter"/>
     <use xlink:href="#m3c4eacb1d4" x="380.514816" y="33.07392" style="fill: #f5deb3; stroke: #f5deb3; stroke-width: 1.5; stroke-linejoin: miter"/>
    </g>
   </g>
   <g id="matplotlib.axis_1">
    <g id="xtick_1">
     <g id="line2d_5">
      <path d="M 57.6 298.944 
L 57.6 27.648 
" clip-path="url(#p167f5ddfe5)" style="fill: none; stroke: #b0b0b0; stroke-width: 0.8; stroke-linecap: square"/>
     </g>
     <g id="line2d_6">
      <defs>
       <path id="mae49f59d0c" d="M 0 0 
L 0 3.5 
" style="stroke: #000000; stroke-width: 0.8"/>
      </defs>
      <g>
       <use xlink:href="#mae49f59d0c" x="57.6" y="298.944" style="stroke: #000000; stroke-width: 0.8"/>
      </g>
     </g>
     <g id="text_1">
      <!-- 0 -->
      <g transform="translate(52.191875 318.861344) scale(0.17 -0.17)">
       <defs>
        <path id="DejaVuSans-30" d="M 2034 4250 
Q 1547 4250 1301 3770 
Q 1056 3291 1056 2328 
Q 1056 1369 1301 889 
Q 1547 409 2034 409 
Q 2525 409 2770 889 
Q 3016 1369 3016 2328 
Q 3016 3291 2770 3770 
Q 2525 4250 2034 4250 
z
M 2034 4750 
Q 2819 4750 3233 4129 
Q 3647 3509 3647 2328 
Q 3647 1150 3233 529 
Q 2819 -91 2034 -91 
Q 1250 -91 836 529 
Q 422 1150 422 2328 
Q 422 3509 836 4129 
Q 1250 4750 2034 4750 
z
" transform="scale(0.015625)"/>
       </defs>
       <use xlink:href="#DejaVuSans-30"/>
      </g>
     </g>
    </g>
    <g id="xtick_2">
     <g id="line2d_7">
      <path d="M 144.2304 298.944 
L 144.2304 27.648 
" clip-path="url(#p167f5ddfe5)" style="fill: none; stroke: #b0b0b0; stroke-width: 0.8; stroke-linecap: square"/>
     </g>
     <g id="line2d_8">
      <g>
       <use xlink:href="#mae49f59d0c" x="144.2304" y="298.944" style="stroke: #000000; stroke-width: 0.8"/>
      </g>
     </g>
     <g id="text_2">
      <!-- 2 -->
      <g transform="translate(138.822275 318.861344) scale(0.17 -0.17)">
       <defs>
        <path id="DejaVuSans-32" d="M 1228 531 
L 3431 531 
L 3431 0 
L 469 0 
L 469 531 
Q 828 903 1448 1529 
Q 2069 2156 2228 2338 
Q 2531 2678 2651 2914 
Q 2772 3150 2772 3378 
Q 2772 3750 2511 3984 
Q 2250 4219 1831 4219 
Q 1534 4219 1204 4116 
Q 875 4013 500 3803 
L 500 4441 
Q 881 4594 1212 4672 
Q 1544 4750 1819 4750 
Q 2544 4750 2975 4387 
Q 3406 4025 3406 3419 
Q 3406 3131 3298 2873 
Q 3191 2616 2906 2266 
Q 2828 2175 2409 1742 
Q 1991 1309 1228 531 
z
" transform="scale(0.015625)"/>
       </defs>
       <use xlink:href="#DejaVuSans-32"/>
      </g>
     </g>
    </g>
    <g id="xtick_3">
     <g id="line2d_9">
      <path d="M 230.8608 298.944 
L 230.8608 27.648 
" clip-path="url(#p167f5ddfe5)" style="fill: none; stroke: #b0b0b0; stroke-width: 0.8; stroke-linecap: square"/>
     </g>
     <g id="line2d_10">
      <g>
       <use xlink:href="#mae49f59d0c" x="230.8608" y="298.944" style="stroke: #000000; stroke-width: 0.8"/>
      </g>
     </g>
     <g id="text_3">
      <!-- 4 -->
      <g transform="translate(225.452675 318.861344) scale(0.17 -0.17)">
       <defs>
        <path id="DejaVuSans-34" d="M 2419 4116 
L 825 1625 
L 2419 1625 
L 2419 4116 
z
M 2253 4666 
L 3047 4666 
L 3047 1625 
L 3713 1625 
L 3713 1100 
L 3047 1100 
L 3047 0 
L 2419 0 
L 2419 1100 
L 313 1100 
L 313 1709 
L 2253 4666 
z
" transform="scale(0.015625)"/>
       </defs>
       <use xlink:href="#DejaVuSans-34"/>
      </g>
     </g>
    </g>
    <g id="xtick_4">
     <g id="line2d_11">
      <path d="M 317.4912 298.944 
L 317.4912 27.648 
" clip-path="url(#p167f5ddfe5)" style="fill: none; stroke: #b0b0b0; stroke-width: 0.8; stroke-linecap: square"/>
     </g>
     <g id="line2d_12">
      <g>
       <use xlink:href="#mae49f59d0c" x="317.4912" y="298.944" style="stroke: #000000; stroke-width: 0.8"/>
      </g>
     </g>
     <g id="text_4">
      <!-- 6 -->
      <g transform="translate(312.083075 318.861344) scale(0.17 -0.17)">
       <defs>
        <path id="DejaVuSans-36" d="M 2113 2584 
Q 1688 2584 1439 2293 
Q 1191 2003 1191 1497 
Q 1191 994 1439 701 
Q 1688 409 2113 409 
Q 2538 409 2786 701 
Q 3034 994 3034 1497 
Q 3034 2003 2786 2293 
Q 2538 2584 2113 2584 
z
M 3366 4563 
L 3366 3988 
Q 3128 4100 2886 4159 
Q 2644 4219 2406 4219 
Q 1781 4219 1451 3797 
Q 1122 3375 1075 2522 
Q 1259 2794 1537 2939 
Q 1816 3084 2150 3084 
Q 2853 3084 3261 2657 
Q 3669 2231 3669 1497 
Q 3669 778 3244 343 
Q 2819 -91 2113 -91 
Q 1303 -91 875 529 
Q 447 1150 447 2328 
Q 447 3434 972 4092 
Q 1497 4750 2381 4750 
Q 2619 4750 2861 4703 
Q 3103 4656 3366 4563 
z
" transform="scale(0.015625)"/>
       </defs>
       <use xlink:href="#DejaVuSans-36"/>
      </g>
     </g>
    </g>
    <g id="xtick_5">
     <g id="line2d_13">
      <path d="M 100.9152 298.944 
L 100.9152 27.648 
" clip-path="url(#p167f5ddfe5)" style="fill: none; stroke: #b0b0b0; stroke-width: 0.8; stroke-linecap: square"/>
     </g>
     <g id="line2d_14">
      <defs>
       <path id="maa665dfd85" d="M 0 0 
L 0 2 
" style="stroke: #000000; stroke-width: 0.6"/>
      </defs>
      <g>
       <use xlink:href="#maa665dfd85" x="100.9152" y="298.944" style="stroke: #000000; stroke-width: 0.6"/>
      </g>
     </g>
    </g>
    <g id="xtick_6">
     <g id="line2d_15">
      <path d="M 187.5456 298.944 
L 187.5456 27.648 
" clip-path="url(#p167f5ddfe5)" style="fill: none; stroke: #b0b0b0; stroke-width: 0.8; stroke-linecap: square"/>
     </g>
     <g id="line2d_16">
      <g>
       <use xlink:href="#maa665dfd85" x="187.5456" y="298.944" style="stroke: #000000; stroke-width: 0.6"/>
      </g>
     </g>
    </g>
    <g id="xtick_7">
     <g id="line2d_17">
      <path d="M 274.176 298.944 
L 274.176 27.648 
" clip-path="url(#p167f5ddfe5)" style="fill: none; stroke: #b0b0b0; stroke-width: 0.8; stroke-linecap: square"/>
     </g>
     <g id="line2d_18">
      <g>
       <use xlink:href="#maa665dfd85" x="274.176" y="298.944" style="stroke: #000000; stroke-width: 0.6"/>
      </g>
     </g>
    </g>
    <g id="xtick_8">
     <g id="line2d_19">
      <path d="M 360.8064 298.944 
L 360.8064 27.648 
" clip-path="url(#p167f5ddfe5)" style="fill: none; stroke: #b0b0b0; stroke-width: 0.8; stroke-linecap: square"/>
     </g>
     <g id="line2d_20">
      <g>
       <use xlink:href="#maa665dfd85" x="360.8064" y="298.944" style="stroke: #000000; stroke-width: 0.6"/>
      </g>
     </g>
    </g>
    <g id="text_5">
     <!-- log10(# f-evals / dimension) -->
     <g transform="translate(88.823278 339.314156) scale(0.17 -0.17)">
      <defs>
       <path id="DejaVuSans-6c" d="M 603 4863 
L 1178 4863 
L 1178 0 
L 603 0 
L 603 4863 
z
" transform="scale(0.015625)"/>
       <path id="DejaVuSans-6f" d="M 1959 3097 
Q 1497 3097 1228 2736 
Q 959 2375 959 1747 
Q 959 1119 1226 758 
Q 1494 397 1959 397 
Q 2419 397 2687 759 
Q 2956 1122 2956 1747 
Q 2956 2369 2687 2733 
Q 2419 3097 1959 3097 
z
M 1959 3584 
Q 2709 3584 3137 3096 
Q 3566 2609 3566 1747 
Q 3566 888 3137 398 
Q 2709 -91 1959 -91 
Q 1206 -91 779 398 
Q 353 888 353 1747 
Q 353 2609 779 3096 
Q 1206 3584 1959 3584 
z
" transform="scale(0.015625)"/>
       <path id="DejaVuSans-67" d="M 2906 1791 
Q 2906 2416 2648 2759 
Q 2391 3103 1925 3103 
Q 1463 3103 1205 2759 
Q 947 2416 947 1791 
Q 947 1169 1205 825 
Q 1463 481 1925 481 
Q 2391 481 2648 825 
Q 2906 1169 2906 1791 
z
M 3481 434 
Q 3481 -459 3084 -895 
Q 2688 -1331 1869 -1331 
Q 1566 -1331 1297 -1286 
Q 1028 -1241 775 -1147 
L 775 -588 
Q 1028 -725 1275 -790 
Q 1522 -856 1778 -856 
Q 2344 -856 2625 -561 
Q 2906 -266 2906 331 
L 2906 616 
Q 2728 306 2450 153 
Q 2172 0 1784 0 
Q 1141 0 747 490 
Q 353 981 353 1791 
Q 353 2603 747 3093 
Q 1141 3584 1784 3584 
Q 2172 3584 2450 3431 
Q 2728 3278 2906 2969 
L 2906 3500 
L 3481 3500 
L 3481 434 
z
" transform="scale(0.015625)"/>
       <path id="DejaVuSans-31" d="M 794 531 
L 1825 531 
L 1825 4091 
L 703 3866 
L 703 4441 
L 1819 4666 
L 2450 4666 
L 2450 531 
L 3481 531 
L 3481 0 
L 794 0 
L 794 531 
z
" transform="scale(0.015625)"/>
       <path id="DejaVuSans-28" d="M 1984 4856 
Q 1566 4138 1362 3434 
Q 1159 2731 1159 2009 
Q 1159 1288 1364 580 
Q 1569 -128 1984 -844 
L 1484 -844 
Q 1016 -109 783 600 
Q 550 1309 550 2009 
Q 550 2706 781 3412 
Q 1013 4119 1484 4856 
L 1984 4856 
z
" transform="scale(0.015625)"/>
       <path id="DejaVuSans-23" d="M 3272 2816 
L 2363 2816 
L 2100 1772 
L 3016 1772 
L 3272 2816 
z
M 2803 4594 
L 2478 3297 
L 3391 3297 
L 3719 4594 
L 4219 4594 
L 3897 3297 
L 4872 3297 
L 4872 2816 
L 3775 2816 
L 3519 1772 
L 4513 1772 
L 4513 1294 
L 3397 1294 
L 3072 0 
L 2572 0 
L 2894 1294 
L 1978 1294 
L 1656 0 
L 1153 0 
L 1478 1294 
L 494 1294 
L 494 1772 
L 1594 1772 
L 1856 2816 
L 850 2816 
L 850 3297 
L 1978 3297 
L 2297 4594 
L 2803 4594 
z
" transform="scale(0.015625)"/>
       <path id="DejaVuSans-20" transform="scale(0.015625)"/>
       <path id="DejaVuSans-66" d="M 2375 4863 
L 2375 4384 
L 1825 4384 
Q 1516 4384 1395 4259 
Q 1275 4134 1275 3809 
L 1275 3500 
L 2222 3500 
L 2222 3053 
L 1275 3053 
L 1275 0 
L 697 0 
L 697 3053 
L 147 3053 
L 147 3500 
L 697 3500 
L 697 3744 
Q 697 4328 969 4595 
Q 1241 4863 1831 4863 
L 2375 4863 
z
" transform="scale(0.015625)"/>
       <path id="DejaVuSans-2d" d="M 313 2009 
L 1997 2009 
L 1997 1497 
L 313 1497 
L 313 2009 
z
" transform="scale(0.015625)"/>
       <path id="DejaVuSans-65" d="M 3597 1894 
L 3597 1613 
L 953 1613 
Q 991 1019 1311 708 
Q 1631 397 2203 397 
Q 2534 397 2845 478 
Q 3156 559 3463 722 
L 3463 178 
Q 3153 47 2828 -22 
Q 2503 -91 2169 -91 
Q 1331 -91 842 396 
Q 353 884 353 1716 
Q 353 2575 817 3079 
Q 1281 3584 2069 3584 
Q 2775 3584 3186 3129 
Q 3597 2675 3597 1894 
z
M 3022 2063 
Q 3016 2534 2758 2815 
Q 2500 3097 2075 3097 
Q 1594 3097 1305 2825 
Q 1016 2553 972 2059 
L 3022 2063 
z
" transform="scale(0.015625)"/>
       <path id="DejaVuSans-76" d="M 191 3500 
L 800 3500 
L 1894 563 
L 2988 3500 
L 3597 3500 
L 2284 0 
L 1503 0 
L 191 3500 
z
" transform="scale(0.015625)"/>
       <path id="DejaVuSans-61" d="M 2194 1759 
Q 1497 1759 1228 1600 
Q 959 1441 959 1056 
Q 959 750 1161 570 
Q 1363 391 1709 391 
Q 2188 391 2477 730 
Q 2766 1069 2766 1631 
L 2766 1759 
L 2194 1759 
z
M 3341 1997 
L 3341 0 
L 2766 0 
L 2766 531 
Q 2569 213 2275 61 
Q 1981 -91 1556 -91 
Q 1019 -91 701 211 
Q 384 513 384 1019 
Q 384 1609 779 1909 
Q 1175 2209 1959 2209 
L 2766 2209 
L 2766 2266 
Q 2766 2663 2505 2880 
Q 2244 3097 1772 3097 
Q 1472 3097 1187 3025 
Q 903 2953 641 2809 
L 641 3341 
Q 956 3463 1253 3523 
Q 1550 3584 1831 3584 
Q 2591 3584 2966 3190 
Q 3341 2797 3341 1997 
z
" transform="scale(0.015625)"/>
       <path id="DejaVuSans-73" d="M 2834 3397 
L 2834 2853 
Q 2591 2978 2328 3040 
Q 2066 3103 1784 3103 
Q 1356 3103 1142 2972 
Q 928 2841 928 2578 
Q 928 2378 1081 2264 
Q 1234 2150 1697 2047 
L 1894 2003 
Q 2506 1872 2764 1633 
Q 3022 1394 3022 966 
Q 3022 478 2636 193 
Q 2250 -91 1575 -91 
Q 1294 -91 989 -36 
Q 684 19 347 128 
L 347 722 
Q 666 556 975 473 
Q 1284 391 1588 391 
Q 1994 391 2212 530 
Q 2431 669 2431 922 
Q 2431 1156 2273 1281 
Q 2116 1406 1581 1522 
L 1381 1569 
Q 847 1681 609 1914 
Q 372 2147 372 2553 
Q 372 3047 722 3315 
Q 1072 3584 1716 3584 
Q 2034 3584 2315 3537 
Q 2597 3491 2834 3397 
z
" transform="scale(0.015625)"/>
       <path id="DejaVuSans-2f" d="M 1625 4666 
L 2156 4666 
L 531 -594 
L 0 -594 
L 1625 4666 
z
" transform="scale(0.015625)"/>
       <path id="DejaVuSans-64" d="M 2906 2969 
L 2906 4863 
L 3481 4863 
L 3481 0 
L 2906 0 
L 2906 525 
Q 2725 213 2448 61 
Q 2172 -91 1784 -91 
Q 1150 -91 751 415 
Q 353 922 353 1747 
Q 353 2572 751 3078 
Q 1150 3584 1784 3584 
Q 2172 3584 2448 3432 
Q 2725 3281 2906 2969 
z
M 947 1747 
Q 947 1113 1208 752 
Q 1469 391 1925 391 
Q 2381 391 2643 752 
Q 2906 1113 2906 1747 
Q 2906 2381 2643 2742 
Q 2381 3103 1925 3103 
Q 1469 3103 1208 2742 
Q 947 2381 947 1747 
z
" transform="scale(0.015625)"/>
       <path id="DejaVuSans-69" d="M 603 3500 
L 1178 3500 
L 1178 0 
L 603 0 
L 603 3500 
z
M 603 4863 
L 1178 4863 
L 1178 4134 
L 603 4134 
L 603 4863 
z
" transform="scale(0.015625)"/>
       <path id="DejaVuSans-6d" d="M 3328 2828 
Q 3544 3216 3844 3400 
Q 4144 3584 4550 3584 
Q 5097 3584 5394 3201 
Q 5691 2819 5691 2113 
L 5691 0 
L 5113 0 
L 5113 2094 
Q 5113 2597 4934 2840 
Q 4756 3084 4391 3084 
Q 3944 3084 3684 2787 
Q 3425 2491 3425 1978 
L 3425 0 
L 2847 0 
L 2847 2094 
Q 2847 2600 2669 2842 
Q 2491 3084 2119 3084 
Q 1678 3084 1418 2786 
Q 1159 2488 1159 1978 
L 1159 0 
L 581 0 
L 581 3500 
L 1159 3500 
L 1159 2956 
Q 1356 3278 1631 3431 
Q 1906 3584 2284 3584 
Q 2666 3584 2933 3390 
Q 3200 3197 3328 2828 
z
" transform="scale(0.015625)"/>
       <path id="DejaVuSans-6e" d="M 3513 2113 
L 3513 0 
L 2938 0 
L 2938 2094 
Q 2938 2591 2744 2837 
Q 2550 3084 2163 3084 
Q 1697 3084 1428 2787 
Q 1159 2491 1159 1978 
L 1159 0 
L 581 0 
L 581 3500 
L 1159 3500 
L 1159 2956 
Q 1366 3272 1645 3428 
Q 1925 3584 2291 3584 
Q 2894 3584 3203 3211 
Q 3513 2838 3513 2113 
z
" transform="scale(0.015625)"/>
       <path id="DejaVuSans-29" d="M 513 4856 
L 1013 4856 
Q 1481 4119 1714 3412 
Q 1947 2706 1947 2009 
Q 1947 1309 1714 600 
Q 1481 -109 1013 -844 
L 513 -844 
Q 928 -128 1133 580 
Q 1338 1288 1338 2009 
Q 1338 2731 1133 3434 
Q 928 4138 513 4856 
z
" transform="scale(0.015625)"/>
      </defs>
      <use xlink:href="#DejaVuSans-6c"/>
      <use xlink:href="#DejaVuSans-6f" x="27.783203"/>
      <use xlink:href="#DejaVuSans-67" x="88.964844"/>
      <use xlink:href="#DejaVuSans-31" x="152.441406"/>
      <use xlink:href="#DejaVuSans-30" x="216.064453"/>
      <use xlink:href="#DejaVuSans-28" x="279.6875"/>
      <use xlink:href="#DejaVuSans-23" x="318.701172"/>
      <use xlink:href="#DejaVuSans-20" x="402.490234"/>
      <use xlink:href="#DejaVuSans-66" x="434.277344"/>
      <use xlink:href="#DejaVuSans-2d" x="463.982422"/>
      <use xlink:href="#DejaVuSans-65" x="500.066406"/>
      <use xlink:href="#DejaVuSans-76" x="561.589844"/>
      <use xlink:href="#DejaVuSans-61" x="620.769531"/>
      <use xlink:href="#DejaVuSans-6c" x="682.048828"/>
      <use xlink:href="#DejaVuSans-73" x="709.832031"/>
      <use xlink:href="#DejaVuSans-20" x="761.931641"/>
      <use xlink:href="#DejaVuSans-2f" x="793.71875"/>
      <use xlink:href="#DejaVuSans-20" x="827.410156"/>
      <use xlink:href="#DejaVuSans-64" x="859.197266"/>
      <use xlink:href="#DejaVuSans-69" x="922.673828"/>
      <use xlink:href="#DejaVuSans-6d" x="950.457031"/>
      <use xlink:href="#DejaVuSans-65" x="1047.869141"/>
      <use xlink:href="#DejaVuSans-6e" x="1109.392578"/>
      <use xlink:href="#DejaVuSans-73" x="1172.771484"/>
      <use xlink:href="#DejaVuSans-69" x="1224.871094"/>
      <use xlink:href="#DejaVuSans-6f" x="1252.654297"/>
      <use xlink:href="#DejaVuSans-6e" x="1313.835938"/>
      <use xlink:href="#DejaVuSans-29" x="1377.214844"/>
     </g>
    </g>
   </g>
   <g id="matplotlib.axis_2">
    <g id="ytick_1">
     <g id="line2d_21">
      <path d="M 57.6 298.944 
L 360.8064 298.944 
" clip-path="url(#p167f5ddfe5)" style="fill: none; stroke: #b0b0b0; stroke-width: 0.8; stroke-linecap: square"/>
     </g>
     <g id="line2d_22">
      <defs>
       <path id="m320aa89241" d="M 0 0 
L -3.5 0 
" style="stroke: #000000; stroke-width: 0.8"/>
      </defs>
      <g>
       <use xlink:href="#m320aa89241" x="57.6" y="298.944" style="stroke: #000000; stroke-width: 0.8"/>
      </g>
     </g>
     <g id="text_6">
      <!-- 0.0 -->
      <g transform="translate(25.155 305.02275) scale(0.16 -0.16)">
       <defs>
        <path id="DejaVuSans-2e" d="M 684 794 
L 1344 794 
L 1344 0 
L 684 0 
L 684 794 
z
" transform="scale(0.015625)"/>
       </defs>
       <use xlink:href="#DejaVuSans-30"/>
       <use xlink:href="#DejaVuSans-2e" x="63.623047"/>
       <use xlink:href="#DejaVuSans-30" x="95.410156"/>
      </g>
     </g>
    </g>
    <g id="ytick_2">
     <g id="line2d_23">
      <path d="M 57.6 244.6848 
L 360.8064 244.6848 
" clip-path="url(#p167f5ddfe5)" style="fill: none; stroke: #b0b0b0; stroke-width: 0.8; stroke-linecap: square"/>
     </g>
     <g id="line2d_24">
      <g>
       <use xlink:href="#m320aa89241" x="57.6" y="244.6848" style="stroke: #000000; stroke-width: 0.8"/>
      </g>
     </g>
     <g id="text_7">
      <!-- 0.2 -->
      <g transform="translate(25.155 250.76355) scale(0.16 -0.16)">
       <use xlink:href="#DejaVuSans-30"/>
       <use xlink:href="#DejaVuSans-2e" x="63.623047"/>
       <use xlink:href="#DejaVuSans-32" x="95.410156"/>
      </g>
     </g>
    </g>
    <g id="ytick_3">
     <g id="line2d_25">
      <path d="M 57.6 190.4256 
L 360.8064 190.4256 
" clip-path="url(#p167f5ddfe5)" style="fill: none; stroke: #b0b0b0; stroke-width: 0.8; stroke-linecap: square"/>
     </g>
     <g id="line2d_26">
      <g>
       <use xlink:href="#m320aa89241" x="57.6" y="190.4256" style="stroke: #000000; stroke-width: 0.8"/>
      </g>
     </g>
     <g id="text_8">
      <!-- 0.4 -->
      <g transform="translate(25.155 196.50435) scale(0.16 -0.16)">
       <use xlink:href="#DejaVuSans-30"/>
       <use xlink:href="#DejaVuSans-2e" x="63.623047"/>
       <use xlink:href="#DejaVuSans-34" x="95.410156"/>
      </g>
     </g>
    </g>
    <g id="ytick_4">
     <g id="line2d_27">
      <path d="M 57.6 136.1664 
L 360.8064 136.1664 
" clip-path="url(#p167f5ddfe5)" style="fill: none; stroke: #b0b0b0; stroke-width: 0.8; stroke-linecap: square"/>
     </g>
     <g id="line2d_28">
      <g>
       <use xlink:href="#m320aa89241" x="57.6" y="136.1664" style="stroke: #000000; stroke-width: 0.8"/>
      </g>
     </g>
     <g id="text_9">
      <!-- 0.6 -->
      <g transform="translate(25.155 142.24515) scale(0.16 -0.16)">
       <use xlink:href="#DejaVuSans-30"/>
       <use xlink:href="#DejaVuSans-2e" x="63.623047"/>
       <use xlink:href="#DejaVuSans-36" x="95.410156"/>
      </g>
     </g>
    </g>
    <g id="ytick_5">
     <g id="line2d_29">
      <path d="M 57.6 81.9072 
L 360.8064 81.9072 
" clip-path="url(#p167f5ddfe5)" style="fill: none; stroke: #b0b0b0; stroke-width: 0.8; stroke-linecap: square"/>
     </g>
     <g id="line2d_30">
      <g>
       <use xlink:href="#m320aa89241" x="57.6" y="81.9072" style="stroke: #000000; stroke-width: 0.8"/>
      </g>
     </g>
     <g id="text_10">
      <!-- 0.8 -->
      <g transform="translate(25.155 87.98595) scale(0.16 -0.16)">
       <defs>
        <path id="DejaVuSans-38" d="M 2034 2216 
Q 1584 2216 1326 1975 
Q 1069 1734 1069 1313 
Q 1069 891 1326 650 
Q 1584 409 2034 409 
Q 2484 409 2743 651 
Q 3003 894 3003 1313 
Q 3003 1734 2745 1975 
Q 2488 2216 2034 2216 
z
M 1403 2484 
Q 997 2584 770 2862 
Q 544 3141 544 3541 
Q 544 4100 942 4425 
Q 1341 4750 2034 4750 
Q 2731 4750 3128 4425 
Q 3525 4100 3525 3541 
Q 3525 3141 3298 2862 
Q 3072 2584 2669 2484 
Q 3125 2378 3379 2068 
Q 3634 1759 3634 1313 
Q 3634 634 3220 271 
Q 2806 -91 2034 -91 
Q 1263 -91 848 271 
Q 434 634 434 1313 
Q 434 1759 690 2068 
Q 947 2378 1403 2484 
z
M 1172 3481 
Q 1172 3119 1398 2916 
Q 1625 2713 2034 2713 
Q 2441 2713 2670 2916 
Q 2900 3119 2900 3481 
Q 2900 3844 2670 4047 
Q 2441 4250 2034 4250 
Q 1625 4250 1398 4047 
Q 1172 3844 1172 3481 
z
" transform="scale(0.015625)"/>
       </defs>
       <use xlink:href="#DejaVuSans-30"/>
       <use xlink:href="#DejaVuSans-2e" x="63.623047"/>
       <use xlink:href="#DejaVuSans-38" x="95.410156"/>
      </g>
     </g>
    </g>
    <g id="ytick_6">
     <g id="line2d_31">
      <path d="M 57.6 27.648 
L 360.8064 27.648 
" clip-path="url(#p167f5ddfe5)" style="fill: none; stroke: #b0b0b0; stroke-width: 0.8; stroke-linecap: square"/>
     </g>
     <g id="line2d_32">
      <g>
       <use xlink:href="#m320aa89241" x="57.6" y="27.648" style="stroke: #000000; stroke-width: 0.8"/>
      </g>
     </g>
     <g id="text_11">
      <!-- 1.0 -->
      <g transform="translate(25.155 33.72675) scale(0.16 -0.16)">
       <use xlink:href="#DejaVuSans-31"/>
       <use xlink:href="#DejaVuSans-2e" x="63.623047"/>
       <use xlink:href="#DejaVuSans-30" x="95.410156"/>
      </g>
     </g>
    </g>
    <g id="text_12">
     <!-- Fraction of function,target pairs -->
     <g transform="translate(17.619531 297.681) rotate(-90) scale(0.17 -0.17)">
      <defs>
       <path id="DejaVuSans-46" d="M 628 4666 
L 3309 4666 
L 3309 4134 
L 1259 4134 
L 1259 2759 
L 3109 2759 
L 3109 2228 
L 1259 2228 
L 1259 0 
L 628 0 
L 628 4666 
z
" transform="scale(0.015625)"/>
       <path id="DejaVuSans-72" d="M 2631 2963 
Q 2534 3019 2420 3045 
Q 2306 3072 2169 3072 
Q 1681 3072 1420 2755 
Q 1159 2438 1159 1844 
L 1159 0 
L 581 0 
L 581 3500 
L 1159 3500 
L 1159 2956 
Q 1341 3275 1631 3429 
Q 1922 3584 2338 3584 
Q 2397 3584 2469 3576 
Q 2541 3569 2628 3553 
L 2631 2963 
z
" transform="scale(0.015625)"/>
       <path id="DejaVuSans-63" d="M 3122 3366 
L 3122 2828 
Q 2878 2963 2633 3030 
Q 2388 3097 2138 3097 
Q 1578 3097 1268 2742 
Q 959 2388 959 1747 
Q 959 1106 1268 751 
Q 1578 397 2138 397 
Q 2388 397 2633 464 
Q 2878 531 3122 666 
L 3122 134 
Q 2881 22 2623 -34 
Q 2366 -91 2075 -91 
Q 1284 -91 818 406 
Q 353 903 353 1747 
Q 353 2603 823 3093 
Q 1294 3584 2113 3584 
Q 2378 3584 2631 3529 
Q 2884 3475 3122 3366 
z
" transform="scale(0.015625)"/>
       <path id="DejaVuSans-74" d="M 1172 4494 
L 1172 3500 
L 2356 3500 
L 2356 3053 
L 1172 3053 
L 1172 1153 
Q 1172 725 1289 603 
Q 1406 481 1766 481 
L 2356 481 
L 2356 0 
L 1766 0 
Q 1100 0 847 248 
Q 594 497 594 1153 
L 594 3053 
L 172 3053 
L 172 3500 
L 594 3500 
L 594 4494 
L 1172 4494 
z
" transform="scale(0.015625)"/>
       <path id="DejaVuSans-75" d="M 544 1381 
L 544 3500 
L 1119 3500 
L 1119 1403 
Q 1119 906 1312 657 
Q 1506 409 1894 409 
Q 2359 409 2629 706 
Q 2900 1003 2900 1516 
L 2900 3500 
L 3475 3500 
L 3475 0 
L 2900 0 
L 2900 538 
Q 2691 219 2414 64 
Q 2138 -91 1772 -91 
Q 1169 -91 856 284 
Q 544 659 544 1381 
z
M 1991 3584 
L 1991 3584 
z
" transform="scale(0.015625)"/>
       <path id="DejaVuSans-2c" d="M 750 794 
L 1409 794 
L 1409 256 
L 897 -744 
L 494 -744 
L 750 256 
L 750 794 
z
" transform="scale(0.015625)"/>
       <path id="DejaVuSans-70" d="M 1159 525 
L 1159 -1331 
L 581 -1331 
L 581 3500 
L 1159 3500 
L 1159 2969 
Q 1341 3281 1617 3432 
Q 1894 3584 2278 3584 
Q 2916 3584 3314 3078 
Q 3713 2572 3713 1747 
Q 3713 922 3314 415 
Q 2916 -91 2278 -91 
Q 1894 -91 1617 61 
Q 1341 213 1159 525 
z
M 3116 1747 
Q 3116 2381 2855 2742 
Q 2594 3103 2138 3103 
Q 1681 3103 1420 2742 
Q 1159 2381 1159 1747 
Q 1159 1113 1420 752 
Q 1681 391 2138 391 
Q 2594 391 2855 752 
Q 3116 1113 3116 1747 
z
" transform="scale(0.015625)"/>
      </defs>
      <use xlink:href="#DejaVuSans-46"/>
      <use xlink:href="#DejaVuSans-72" x="50.269531"/>
      <use xlink:href="#DejaVuSans-61" x="91.382812"/>
      <use xlink:href="#DejaVuSans-63" x="152.662109"/>
      <use xlink:href="#DejaVuSans-74" x="207.642578"/>
      <use xlink:href="#DejaVuSans-69" x="246.851562"/>
      <use xlink:href="#DejaVuSans-6f" x="274.634766"/>
      <use xlink:href="#DejaVuSans-6e" x="335.816406"/>
      <use xlink:href="#DejaVuSans-20" x="399.195312"/>
      <use xlink:href="#DejaVuSans-6f" x="430.982422"/>
      <use xlink:href="#DejaVuSans-66" x="492.164062"/>
      <use xlink:href="#DejaVuSans-20" x="527.369141"/>
      <use xlink:href="#DejaVuSans-66" x="559.15625"/>
      <use xlink:href="#DejaVuSans-75" x="594.361328"/>
      <use xlink:href="#DejaVuSans-6e" x="657.740234"/>
      <use xlink:href="#DejaVuSans-63" x="721.119141"/>
      <use xlink:href="#DejaVuSans-74" x="776.099609"/>
      <use xlink:href="#DejaVuSans-69" x="815.308594"/>
      <use xlink:href="#DejaVuSans-6f" x="843.091797"/>
      <use xlink:href="#DejaVuSans-6e" x="904.273438"/>
      <use xlink:href="#DejaVuSans-2c" x="967.652344"/>
      <use xlink:href="#DejaVuSans-74" x="999.439453"/>
      <use xlink:href="#DejaVuSans-61" x="1038.648438"/>
      <use xlink:href="#DejaVuSans-72" x="1099.927734"/>
      <use xlink:href="#DejaVuSans-67" x="1139.291016"/>
      <use xlink:href="#DejaVuSans-65" x="1202.767578"/>
      <use xlink:href="#DejaVuSans-74" x="1264.291016"/>
      <use xlink:href="#DejaVuSans-20" x="1303.5"/>
      <use xlink:href="#DejaVuSans-70" x="1335.287109"/>
      <use xlink:href="#DejaVuSans-61" x="1398.763672"/>
      <use xlink:href="#DejaVuSans-69" x="1460.042969"/>
      <use xlink:href="#DejaVuSans-72" x="1487.826172"/>
      <use xlink:href="#DejaVuSans-73" x="1528.939453"/>
     </g>
    </g>
   </g>
   <g id="line2d_33">
    <defs>
     <path id="mdcd4e510a2" d="M 0 1.5 
C 0.397805 1.5 0.77937 1.341951 1.06066 1.06066 
C 1.341951 0.77937 1.5 0.397805 1.5 0 
C 1.5 -0.397805 1.341951 -0.77937 1.06066 -1.06066 
C 0.77937 -1.341951 0.397805 -1.5 0 -1.5 
C -0.397805 -1.5 -0.77937 -1.341951 -1.06066 -1.06066 
C -1.341951 -0.77937 -1.5 -0.397805 -1.5 0 
C -1.5 0.397805 -1.341951 0.77937 -1.06066 1.06066 
C -0.77937 1.341951 -0.397805 1.5 0 1.5 
z
" style="stroke: #f5deb3"/>
    </defs>
    <g>
     <use xlink:href="#mdcd4e510a2" x="349.15659" y="125.875862" style="fill: #f5deb3; stroke: #f5deb3"/>
     <use xlink:href="#mdcd4e510a2" x="349.15659" y="125.875862" style="fill: #f5deb3; stroke: #f5deb3"/>
    </g>
   </g>
   <g id="line2d_34">
    <defs>
     <path id="md7e0f55013" d="M 0 1.5 
C 0.397805 1.5 0.77937 1.341951 1.06066 1.06066 
C 1.341951 0.77937 1.5 0.397805 1.5 0 
C 1.5 -0.397805 1.341951 -0.77937 1.06066 -1.06066 
C 0.77937 -1.341951 0.397805 -1.5 0 -1.5 
C -0.397805 -1.5 -0.77937 -1.341951 -1.06066 -1.06066 
C -1.341951 -0.77937 -1.5 -0.397805 -1.5 0 
C -1.5 0.397805 -1.341951 0.77937 -1.06066 1.06066 
C -0.77937 1.341951 -0.397805 1.5 0 1.5 
z
" style="stroke: #000080"/>
    </defs>
    <g>
     <use xlink:href="#md7e0f55013" x="229.509989" y="194.635366" style="fill: #000080; stroke: #000080"/>
     <use xlink:href="#md7e0f55013" x="229.509989" y="194.635366" style="fill: #000080; stroke: #000080"/>
    </g>
   </g>
   <g id="line2d_35">
    <path d="M 14.2848 298.944 
L 14.2848 289.121214 
L 50.890391 289.121214 
L 50.890391 288.653462 
L 72.432107 288.653462 
L 72.432107 288.18571 
L 74.836851 288.18571 
L 74.836851 287.717959 
L 91.616719 287.717959 
L 91.616719 287.250207 
L 123.08753 287.250207 
L 123.08753 286.782455 
L 125.271028 286.782455 
L 125.373824 285.846952 
L 129.581749 285.846952 
L 129.581749 285.3792 
L 132.638982 285.3792 
L 132.638982 284.911448 
L 133.01833 284.911448 
L 133.01833 284.443697 
L 133.983236 284.443697 
L 133.983236 283.975945 
L 137.547645 283.975945 
L 137.547645 283.508193 
L 139.435481 283.508193 
L 139.435481 283.040441 
L 141.761416 283.040441 
L 141.761416 282.57269 
L 142.143605 282.57269 
L 142.248405 281.637186 
L 142.804452 281.637186 
L 142.804452 281.169434 
L 145.643288 281.169434 
L 145.643288 280.701683 
L 147.550096 280.701683 
L 147.550096 280.233931 
L 147.955668 280.233931 
L 147.955668 279.766179 
L 148.124658 279.766179 
L 148.124658 279.298428 
L 148.859519 279.298428 
L 148.859519 278.362924 
L 149.65155 278.362924 
L 149.679732 277.427421 
L 150.707193 277.427421 
L 150.813548 276.491917 
L 151.297768 276.491917 
L 151.297768 276.024166 
L 152.389508 276.024166 
L 152.486788 275.088662 
L 152.691854 275.088662 
L 152.691854 274.62091 
L 153.282346 274.62091 
L 153.340389 273.685407 
L 154.982037 273.685407 
L 154.982037 273.217655 
L 156.035428 273.217655 
L 156.125604 272.282152 
L 156.334347 272.282152 
L 156.334347 271.346648 
L 156.589623 271.346648 
L 156.589623 270.878897 
L 157.080512 270.878897 
L 157.184731 269.943393 
L 157.807349 269.943393 
L 157.807349 269.475641 
L 158.187393 269.475641 
L 158.187393 269.00789 
L 158.392304 269.00789 
L 158.392304 268.072386 
L 160.534001 268.072386 
L 160.597153 267.136883 
L 161.071844 267.136883 
L 161.071844 266.669131 
L 164.043972 266.669131 
L 164.043972 266.201379 
L 164.356312 266.201379 
L 164.356312 265.733628 
L 164.915805 265.733628 
L 164.915805 264.798124 
L 166.989659 264.798124 
L 166.989659 264.330372 
L 168.968849 264.330372 
L 168.968849 263.862621 
L 170.308749 263.862621 
L 170.308749 263.394869 
L 171.186214 263.394869 
L 171.186214 262.927117 
L 171.577117 262.927117 
L 171.577117 262.459366 
L 171.960063 262.459366 
L 171.960063 261.991614 
L 175.146298 261.991614 
L 175.146298 261.05611 
L 175.538557 261.05611 
L 175.538557 260.120607 
L 175.726373 260.120607 
L 175.726373 259.185103 
L 176.034135 259.185103 
L 176.034135 258.717352 
L 176.928318 258.717352 
L 176.964669 257.781848 
L 177.501667 257.781848 
L 177.501667 257.314097 
L 178.5196 257.314097 
L 178.5196 256.846345 
L 178.871903 256.846345 
L 178.871903 256.378593 
L 179.067766 256.378593 
L 179.067766 255.910841 
L 180.254692 255.910841 
L 180.254692 255.44309 
L 180.617045 255.44309 
L 180.617045 254.975338 
L 180.736294 254.975338 
L 180.736294 254.507586 
L 181.550523 254.507586 
L 181.550523 253.572083 
L 182.335929 253.572083 
L 182.335929 253.104331 
L 183.18497 253.104331 
L 183.18497 252.168828 
L 183.901687 252.168828 
L 183.901687 251.233324 
L 184.390736 251.233324 
L 184.390736 250.765572 
L 184.819615 250.765572 
L 184.819615 249.830069 
L 185.528039 249.830069 
L 185.611618 248.426814 
L 186.081056 248.426814 
L 186.081056 247.49131 
L 186.222862 247.49131 
L 186.222862 247.023559 
L 187.530545 247.023559 
L 187.530545 246.088055 
L 188.03395 246.088055 
L 188.03395 245.152552 
L 188.590193 245.152552 
L 188.590193 244.6848 
L 189.028161 244.6848 
L 189.028161 244.217048 
L 189.491819 244.217048 
L 189.491819 243.749297 
L 190.386198 243.749297 
L 190.402367 242.813793 
L 191.01763 242.813793 
L 191.01763 242.346041 
L 191.143898 242.346041 
L 191.216778 241.410538 
L 192.759731 241.410538 
L 192.759731 240.942786 
L 193.18964 240.942786 
L 193.18964 240.475034 
L 194.254269 240.475034 
L 194.364562 239.539531 
L 194.576757 239.539531 
L 194.602629 238.604028 
L 195.121539 238.604028 
L 195.121539 237.668524 
L 195.844391 237.668524 
L 195.844391 236.733021 
L 197.399854 236.733021 
L 197.399854 236.265269 
L 198.080365 236.265269 
L 198.097549 234.862014 
L 199.194306 234.862014 
L 199.194306 234.394262 
L 200.318598 234.394262 
L 200.318598 233.458759 
L 201.122549 233.458759 
L 201.122549 232.523255 
L 202.491939 232.523255 
L 202.536929 230.652248 
L 202.796275 230.652248 
L 202.796275 229.716745 
L 203.738966 229.716745 
L 203.738966 228.781241 
L 203.969795 228.781241 
L 203.969795 227.845738 
L 204.14497 227.845738 
L 204.231949 226.442483 
L 204.484384 226.442483 
L 204.484384 225.974731 
L 205.562893 225.974731 
L 205.562893 225.506979 
L 205.846608 225.506979 
L 205.846608 224.571476 
L 206.401516 224.571476 
L 206.401516 223.635972 
L 206.806537 223.635972 
L 206.806537 222.700469 
L 206.940523 222.700469 
L 206.940523 222.232717 
L 208.251665 222.232717 
L 208.251665 221.297214 
L 208.380128 221.297214 
L 208.380128 220.36171 
L 208.663858 220.36171 
L 208.663858 219.893959 
L 208.910773 219.893959 
L 208.910773 218.958455 
L 209.06002 218.958455 
L 209.06002 218.490703 
L 209.37388 218.490703 
L 209.37388 217.5552 
L 209.936033 217.5552 
L 209.936033 217.087448 
L 210.290267 217.087448 
L 210.372623 215.684193 
L 210.603749 215.684193 
L 210.603749 214.74869 
L 211.147456 214.74869 
L 211.147456 213.813186 
L 211.410089 213.813186 
L 211.502968 212.877683 
L 211.894727 212.877683 
L 211.894727 212.409931 
L 212.052855 212.409931 
L 212.075337 211.006676 
L 212.209666 211.006676 
L 212.209666 210.538924 
L 212.562261 210.538924 
L 212.562261 209.603421 
L 212.993666 209.603421 
L 212.993666 209.135669 
L 213.627241 209.135669 
L 213.627241 208.667917 
L 214.011676 208.667917 
L 214.011676 207.732414 
L 214.277908 207.732414 
L 214.277908 206.79691 
L 214.712534 206.79691 
L 214.712534 205.861407 
L 215.57144 205.861407 
L 215.57144 205.393655 
L 215.812439 205.393655 
L 215.867618 203.9904 
L 215.959226 203.9904 
L 215.977494 202.587145 
L 216.192466 202.587145 
L 216.192466 202.119393 
L 216.564968 202.119393 
L 216.564968 201.651641 
L 217.744717 201.651641 
L 217.744717 200.716138 
L 217.918818 200.716138 
L 217.918818 199.780634 
L 220.020244 199.780634 
L 220.020244 199.312883 
L 220.413759 199.312883 
L 220.413759 198.845131 
L 220.6619 198.845131 
L 220.6619 197.909628 
L 220.911919 197.909628 
L 220.911919 197.441876 
L 221.36983 197.441876 
L 221.36983 196.506372 
L 222.0695 196.506372 
L 222.0695 195.570869 
L 229.509989 195.570869 
L 229.509989 194.635366 
L 360.8064 194.635366 
L 360.8064 194.635366 
" style="fill: none; stroke: #000080; stroke-width: 1.5; stroke-linecap: square"/>
   </g>
   <g id="line2d_36">
    <defs>
     <path id="m50a48396a8" d="M 0 6 
C 1.591219 6 3.117479 5.367802 4.242641 4.242641 
C 5.367802 3.117479 6 1.591219 6 0 
C 6 -1.591219 5.367802 -3.117479 4.242641 -4.242641 
C 3.117479 -5.367802 1.591219 -6 0 -6 
C -1.591219 -6 -3.117479 -5.367802 -4.242641 -4.242641 
C -5.367802 -3.117479 -6 -1.591219 -6 0 
C -6 1.591219 -5.367802 3.117479 -4.242641 4.242641 
C -3.117479 5.367802 -1.591219 6 0 6 
z
" style="stroke: #000080; stroke-width: 1.5"/>
    </defs>
    <g>
     <use xlink:href="#m50a48396a8" x="91.616719" y="287.250207" style="fill-opacity: 0; stroke: #000080; stroke-width: 1.5"/>
     <use xlink:href="#m50a48396a8" x="176.928318" y="258.2496" style="fill-opacity: 0; stroke: #000080; stroke-width: 1.5"/>
     <use xlink:href="#m50a48396a8" x="222.0695" y="195.570869" style="fill-opacity: 0; stroke: #000080; stroke-width: 1.5"/>
     <use xlink:href="#m50a48396a8" x="229.509989" y="194.635366" style="fill-opacity: 0; stroke: #000080; stroke-width: 1.5"/>
     <use xlink:href="#m50a48396a8" x="229.509989" y="194.635366" style="fill-opacity: 0; stroke: #000080; stroke-width: 1.5"/>
     <use xlink:href="#m50a48396a8" x="360.8064" y="194.635366" style="fill-opacity: 0; stroke: #000080; stroke-width: 1.5"/>
    </g>
   </g>
   <g id="line2d_37">
    <path style="fill: none; stroke: #000080; stroke-width: 1.5; stroke-linecap: square"/>
    <g/>
   </g>
   <g id="line2d_38">
    <path d="M 230.864938 194.635366 
" clip-path="url(#p167f5ddfe5)" style="fill: none; stroke: #000080; stroke-width: 1.5; stroke-linecap: square"/>
    <defs>
     <path id="ma55b95eb26" d="M -12 12 
L 12 -12 
M -12 -12 
L 12 12 
" style="stroke: #000080"/>
    </defs>
    <g clip-path="url(#p167f5ddfe5)">
     <use xlink:href="#ma55b95eb26" x="230.864938" y="194.635366" style="fill: #000080; stroke: #000080"/>
    </g>
   </g>
   <g id="line2d_39">
    <defs>
     <path id="m4b1e696564" d="M 0 1.5 
C 0.397805 1.5 0.77937 1.341951 1.06066 1.06066 
C 1.341951 0.77937 1.5 0.397805 1.5 0 
C 1.5 -0.397805 1.341951 -0.77937 1.06066 -1.06066 
C 0.77937 -1.341951 0.397805 -1.5 0 -1.5 
C -0.397805 -1.5 -0.77937 -1.341951 -1.06066 -1.06066 
C -1.341951 -0.77937 -1.5 -0.397805 -1.5 0 
C -1.5 0.397805 -1.341951 0.77937 -1.06066 1.06066 
C -0.77937 1.341951 -0.397805 1.5 0 1.5 
z
" style="stroke: #ff00ff"/>
    </defs>
    <g>
     <use xlink:href="#m4b1e696564" x="228.944322" y="200.248386" style="fill: #ff00ff; stroke: #ff00ff"/>
     <use xlink:href="#m4b1e696564" x="228.944322" y="200.248386" style="fill: #ff00ff; stroke: #ff00ff"/>
    </g>
   </g>
   <g id="line2d_40">
    <path d="M 14.2848 298.944 
L 14.2848 289.121214 
L 40.363149 289.121214 
L 40.363149 288.18571 
L 47.990577 288.18571 
L 47.990577 287.717959 
L 53.402323 287.717959 
L 53.402323 287.250207 
L 59.392932 287.250207 
L 59.392932 286.782455 
L 85.894031 286.782455 
L 85.894031 286.314703 
L 87.495981 286.314703 
L 87.495981 285.846952 
L 96.717523 285.846952 
L 96.717523 285.3792 
L 101.102381 285.3792 
L 101.102381 284.911448 
L 101.287718 284.911448 
L 101.287718 284.443697 
L 102.011329 284.443697 
L 102.011329 283.975945 
L 105.411479 283.975945 
L 105.411479 283.508193 
L 106.279859 283.508193 
L 106.279859 283.040441 
L 116.988079 283.040441 
L 116.988079 282.57269 
L 120.216635 282.57269 
L 120.216635 281.637186 
L 122.618682 281.637186 
L 122.618682 281.169434 
L 129.458394 281.169434 
L 129.458394 280.701683 
L 131.303758 280.701683 
L 131.303758 280.233931 
L 132.251827 280.233931 
L 132.251827 279.766179 
L 133.188264 279.766179 
L 133.188264 279.298428 
L 133.689044 279.298428 
L 133.689044 278.830676 
L 134.400219 278.830676 
L 134.400219 278.362924 
L 135.717106 278.362924 
L 135.717106 277.427421 
L 136.499223 277.427421 
L 136.499223 276.959669 
L 137.27736 276.959669 
L 137.27736 276.024166 
L 143.676798 276.024166 
L 143.676798 275.556414 
L 143.907854 275.556414 
L 143.907854 275.088662 
L 147.439393 275.088662 
L 147.439393 274.62091 
L 150.985103 274.62091 
L 150.985103 274.153159 
L 151.731998 274.153159 
L 151.731998 273.685407 
L 152.619733 273.685407 
L 152.619733 273.217655 
L 152.847174 273.217655 
L 152.847174 272.749903 
L 153.270716 272.749903 
L 153.270716 272.282152 
L 157.400797 272.282152 
L 157.400797 271.8144 
L 158.365703 271.8144 
L 158.365703 271.346648 
L 159.20731 271.346648 
L 159.20731 270.878897 
L 159.63515 270.878897 
L 159.63515 270.411145 
L 160.271232 270.411145 
L 160.271232 269.475641 
L 160.956223 269.475641 
L 160.956223 269.00789 
L 166.216591 269.00789 
L 166.216591 268.540138 
L 166.621405 268.540138 
L 166.621405 268.072386 
L 167.553385 268.072386 
L 167.553385 267.604634 
L 168.462127 267.604634 
L 168.462127 266.669131 
L 169.579974 266.669131 
L 169.579974 266.201379 
L 170.10543 266.201379 
L 170.10543 265.265876 
L 170.873925 265.265876 
L 170.873925 264.798124 
L 172.89285 264.798124 
L 172.89285 264.330372 
L 174.600249 264.330372 
L 174.600249 263.862621 
L 174.897377 263.862621 
L 174.897377 263.394869 
L 175.581246 263.394869 
L 175.620293 261.991614 
L 176.193029 261.991614 
L 176.193029 261.523862 
L 176.354003 261.523862 
L 176.354003 261.05611 
L 176.510229 261.05611 
L 176.510229 260.588359 
L 177.230202 260.588359 
L 177.230202 260.120607 
L 178.595434 260.120607 
L 178.686034 258.717352 
L 178.737181 258.717352 
L 178.737181 258.2496 
L 181.004537 258.2496 
L 181.020511 256.846345 
L 181.684578 256.846345 
L 181.684578 256.378593 
L 182.233915 256.378593 
L 182.281259 254.975338 
L 183.37612 254.975338 
L 183.390202 254.039834 
L 183.52579 254.039834 
L 183.614096 251.701076 
L 186.17841 251.701076 
L 186.17841 250.765572 
L 186.297388 250.765572 
L 186.297388 249.830069 
L 186.79726 249.830069 
L 186.79726 249.362317 
L 187.299446 249.362317 
L 187.307069 248.426814 
L 187.413456 248.426814 
L 187.413456 247.959062 
L 189.834712 247.959062 
L 189.834712 247.49131 
L 190.166558 247.49131 
L 190.166558 247.023559 
L 190.596907 247.023559 
L 190.596907 246.088055 
L 190.93612 246.088055 
L 190.976919 244.6848 
L 191.21523 244.6848 
L 191.21523 244.217048 
L 191.978078 244.217048 
L 191.978078 243.749297 
L 192.531658 243.749297 
L 192.639584 242.346041 
L 192.786801 242.346041 
L 192.786801 241.410538 
L 193.475916 241.410538 
L 193.475916 240.942786 
L 194.161861 240.942786 
L 194.161861 240.475034 
L 195.392465 240.475034 
L 195.392465 240.007283 
L 195.971028 240.007283 
L 195.971028 239.539531 
L 197.042192 239.539531 
L 197.042192 239.071779 
L 197.235365 239.071779 
L 197.322824 238.136276 
L 198.296174 238.136276 
L 198.296174 237.200772 
L 199.75109 237.200772 
L 199.767797 235.797517 
L 200.383357 235.797517 
L 200.383357 235.329766 
L 200.68889 235.329766 
L 200.68889 234.862014 
L 201.555371 234.862014 
L 201.555371 234.394262 
L 201.730528 234.394262 
L 201.730528 233.458759 
L 203.618479 233.458759 
L 203.618479 232.523255 
L 204.462967 232.523255 
L 204.462967 231.587752 
L 204.91965 231.587752 
L 205.01651 229.716745 
L 205.226391 229.716745 
L 205.226391 229.248993 
L 205.573718 229.248993 
L 205.573718 228.31349 
L 206.143615 228.31349 
L 206.209294 226.442483 
L 206.333734 226.442483 
L 206.333734 225.506979 
L 206.861863 225.506979 
L 206.861863 225.039228 
L 207.435131 225.039228 
L 207.435131 224.571476 
L 207.869872 224.571476 
L 207.869872 224.103724 
L 209.793026 224.103724 
L 209.793026 223.168221 
L 210.121633 223.168221 
L 210.121633 222.232717 
L 210.397203 222.232717 
L 210.397203 221.297214 
L 210.541247 221.297214 
L 210.541247 220.829462 
L 210.666043 220.829462 
L 210.666043 219.893959 
L 210.889808 219.893959 
L 210.996103 218.022952 
L 211.675889 218.022952 
L 211.675889 217.5552 
L 211.831205 217.5552 
L 211.930782 216.619697 
L 212.119711 216.619697 
L 212.119711 215.684193 
L 212.388296 215.684193 
L 212.444961 213.813186 
L 213.47617 213.813186 
L 213.47617 213.345434 
L 213.740688 213.345434 
L 213.740688 212.877683 
L 214.185474 212.877683 
L 214.254728 211.942179 
L 214.625784 211.942179 
L 214.625784 211.006676 
L 214.92131 211.006676 
L 214.92131 210.071172 
L 216.031364 210.071172 
L 216.031364 209.603421 
L 216.260448 209.603421 
L 216.308215 208.200166 
L 216.494851 208.200166 
L 216.494851 207.732414 
L 216.671257 207.732414 
L 216.671257 206.79691 
L 218.288334 206.79691 
L 218.288334 206.329159 
L 218.590514 206.329159 
L 218.590514 205.393655 
L 218.964901 205.393655 
L 218.964901 204.458152 
L 219.342743 204.458152 
L 219.342743 203.522648 
L 220.223992 203.522648 
L 220.223992 202.587145 
L 221.280512 202.587145 
L 221.280512 201.651641 
L 222.448391 201.651641 
L 222.448391 201.18389 
L 224.852782 201.18389 
L 224.852782 200.716138 
L 228.944322 200.716138 
L 228.944322 200.248386 
L 360.8064 200.248386 
L 360.8064 200.248386 
" style="fill: none; stroke: #ff00ff; stroke-width: 1.5; stroke-linecap: square"/>
   </g>
   <g id="line2d_41">
    <defs>
     <path id="ma7ea51a12b" d="M -0 8.485281 
L 5.091169 0 
L 0 -8.485281 
L -5.091169 -0 
z
" style="stroke: #ff00ff; stroke-width: 1.5; stroke-linejoin: miter"/>
    </defs>
    <g>
     <use xlink:href="#ma7ea51a12b" x="153.270716" y="272.749903" style="fill-opacity: 0; stroke: #ff00ff; stroke-width: 1.5; stroke-linejoin: miter"/>
     <use xlink:href="#ma7ea51a12b" x="216.671257" y="206.79691" style="fill-opacity: 0; stroke: #ff00ff; stroke-width: 1.5; stroke-linejoin: miter"/>
     <use xlink:href="#ma7ea51a12b" x="228.944322" y="200.248386" style="fill-opacity: 0; stroke: #ff00ff; stroke-width: 1.5; stroke-linejoin: miter"/>
     <use xlink:href="#ma7ea51a12b" x="228.944322" y="200.248386" style="fill-opacity: 0; stroke: #ff00ff; stroke-width: 1.5; stroke-linejoin: miter"/>
     <use xlink:href="#ma7ea51a12b" x="360.8064" y="200.248386" style="fill-opacity: 0; stroke: #ff00ff; stroke-width: 1.5; stroke-linejoin: miter"/>
    </g>
   </g>
   <g id="line2d_42">
    <path style="fill: none; stroke: #ff00ff; stroke-width: 1.5; stroke-linecap: square"/>
    <g/>
   </g>
   <g id="line2d_43">
    <path d="M 230.86475 200.248386 
" clip-path="url(#p167f5ddfe5)" style="fill: none; stroke: #ff00ff; stroke-width: 1.5; stroke-linecap: square"/>
    <defs>
     <path id="mf14f924057" d="M -12 12 
L 12 -12 
M -12 -12 
L 12 12 
" style="stroke: #ff00ff"/>
    </defs>
    <g clip-path="url(#p167f5ddfe5)">
     <use xlink:href="#mf14f924057" x="230.86475" y="200.248386" style="fill: #ff00ff; stroke: #ff00ff"/>
    </g>
   </g>
   <g id="line2d_44">
    <defs>
     <path id="mf7e8ff31aa" d="M 0 1.5 
C 0.397805 1.5 0.77937 1.341951 1.06066 1.06066 
C 1.341951 0.77937 1.5 0.397805 1.5 0 
C 1.5 -0.397805 1.341951 -0.77937 1.06066 -1.06066 
C 0.77937 -1.341951 0.397805 -1.5 0 -1.5 
C -0.397805 -1.5 -0.77937 -1.341951 -1.06066 -1.06066 
C -1.341951 -0.77937 -1.5 -0.397805 -1.5 0 
C -1.5 0.397805 -1.341951 0.77937 -1.06066 1.06066 
C -0.77937 1.341951 -0.397805 1.5 0 1.5 
z
" style="stroke: #ff7500"/>
    </defs>
    <g>
     <use xlink:href="#mf7e8ff31aa" x="226.754607" y="201.651641" style="fill: #ff7500; stroke: #ff7500"/>
     <use xlink:href="#mf7e8ff31aa" x="226.754607" y="201.651641" style="fill: #ff7500; stroke: #ff7500"/>
    </g>
   </g>
   <g id="line2d_45">
    <path d="M 14.2848 298.944 
L 14.2848 289.121214 
L 27.323974 289.121214 
L 27.323974 288.653462 
L 86.307488 288.653462 
L 86.307488 288.18571 
L 106.42077 288.18571 
L 106.42077 287.717959 
L 111.762192 287.717959 
L 111.762192 286.782455 
L 115.917548 286.782455 
L 115.917548 285.846952 
L 119.319033 285.846952 
L 119.319033 284.911448 
L 122.19863 284.911448 
L 122.19863 284.443697 
L 126.899255 284.443697 
L 126.899255 283.975945 
L 130.656987 283.975945 
L 130.656987 283.508193 
L 136.470828 283.508193 
L 136.470828 283.040441 
L 137.681345 283.040441 
L 137.681345 281.637186 
L 143.657415 281.637186 
L 143.657415 280.701683 
L 144.491935 280.701683 
L 144.491935 280.233931 
L 147.502732 280.233931 
L 147.502732 279.766179 
L 148.185734 279.766179 
L 148.185734 279.298428 
L 148.844805 279.298428 
L 148.844805 277.895172 
L 150.097474 277.895172 
L 150.097474 276.491917 
L 151.27191 276.491917 
L 151.27191 276.024166 
L 152.377312 276.024166 
L 152.377312 275.088662 
L 152.906572 275.088662 
L 152.906572 274.62091 
L 154.886195 274.62091 
L 154.886195 273.685407 
L 155.350181 273.685407 
L 155.350181 271.8144 
L 156.245169 271.8144 
L 156.245169 271.346648 
L 157.099504 271.346648 
L 157.099504 270.411145 
L 158.312387 270.411145 
L 158.312387 269.943393 
L 159.079601 269.943393 
L 159.079601 269.00789 
L 159.451784 269.00789 
L 159.451784 268.540138 
L 160.526092 268.540138 
L 160.526092 267.604634 
L 162.190578 267.604634 
L 162.190578 267.136883 
L 164.580835 267.136883 
L 164.580835 266.201379 
L 166.950346 266.201379 
L 166.950346 265.733628 
L 167.678199 265.733628 
L 167.678199 264.798124 
L 170.129185 264.798124 
L 170.129185 264.330372 
L 170.946803 264.330372 
L 170.946803 263.862621 
L 171.73036 263.862621 
L 171.73036 263.394869 
L 172.297327 263.394869 
L 172.297327 262.459366 
L 173.027642 262.459366 
L 173.027642 261.991614 
L 173.902386 261.991614 
L 173.902386 260.588359 
L 175.849382 260.588359 
L 175.849382 260.120607 
L 178.437353 260.120607 
L 178.437353 258.717352 
L 178.5712 258.717352 
L 178.5712 257.781848 
L 180.59256 257.781848 
L 180.59256 256.846345 
L 181.412899 256.846345 
L 181.412899 256.378593 
L 182.198954 256.378593 
L 182.198954 255.44309 
L 182.847523 255.44309 
L 182.847523 254.975338 
L 183.576965 254.975338 
L 183.6789 254.039834 
L 184.475083 254.039834 
L 184.475083 252.636579 
L 185.609533 252.636579 
L 185.701053 251.233324 
L 186.152093 251.233324 
L 186.152093 250.765572 
L 187.773712 250.765572 
L 187.773712 250.297821 
L 188.652374 250.297821 
L 188.652374 249.362317 
L 188.885053 249.362317 
L 188.961978 247.959062 
L 189.341952 247.959062 
L 189.341952 247.023559 
L 189.861343 247.023559 
L 189.861343 246.555807 
L 190.079623 246.555807 
L 190.079623 246.088055 
L 190.928264 246.088055 
L 190.928264 245.620303 
L 191.066055 245.620303 
L 191.066055 245.152552 
L 191.202844 245.152552 
L 191.202844 244.6848 
L 191.607343 244.6848 
L 191.607343 244.217048 
L 192.003328 244.217048 
L 192.003328 243.749297 
L 192.391148 243.749297 
L 192.391148 243.281545 
L 193.926156 243.281545 
L 193.926156 242.813793 
L 195.454342 242.813793 
L 195.454342 242.346041 
L 196.043011 242.346041 
L 196.043011 241.87829 
L 196.20041 241.87829 
L 196.304617 240.475034 
L 196.356504 240.475034 
L 196.356504 240.007283 
L 197.850089 240.007283 
L 197.850089 239.539531 
L 198.087885 239.539531 
L 198.087885 238.604028 
L 198.919888 238.604028 
L 198.919888 238.136276 
L 199.366691 238.136276 
L 199.366691 237.668524 
L 200.102718 237.668524 
L 200.102718 236.733021 
L 200.933302 236.733021 
L 200.933302 235.797517 
L 201.374959 235.797517 
L 201.374959 235.329766 
L 202.190372 235.329766 
L 202.190372 233.92651 
L 202.529297 233.92651 
L 202.529297 232.991007 
L 202.714983 232.991007 
L 202.714983 232.523255 
L 204.034894 232.523255 
L 204.103669 231.12 
L 204.477503 231.12 
L 204.544682 229.716745 
L 205.203595 229.716745 
L 205.203595 228.781241 
L 206.576752 228.781241 
L 206.576752 227.845738 
L 207.227484 227.845738 
L 207.227484 226.910234 
L 207.686994 226.910234 
L 207.686994 226.442483 
L 207.96859 226.442483 
L 207.96859 225.974731 
L 208.218472 225.974731 
L 208.218472 225.039228 
L 208.681602 225.039228 
L 208.762161 223.168221 
L 209.133604 223.168221 
L 209.212254 220.829462 
L 209.264505 220.829462 
L 209.264505 220.36171 
L 209.981178 220.36171 
L 209.981178 219.426207 
L 211.453947 219.426207 
L 211.453947 218.958455 
L 212.404862 218.958455 
L 212.404862 218.022952 
L 212.667951 218.022952 
L 212.667951 217.5552 
L 212.819737 217.5552 
L 212.841322 215.684193 
L 213.034472 215.684193 
L 213.034472 215.216441 
L 214.213753 215.216441 
L 214.313757 213.813186 
L 214.373505 213.813186 
L 214.373505 212.877683 
L 214.941491 212.877683 
L 214.980038 211.474428 
L 215.67926 211.474428 
L 215.67926 210.538924 
L 216.389183 210.538924 
L 216.389183 209.603421 
L 216.708017 209.603421 
L 216.708017 209.135669 
L 217.142064 209.135669 
L 217.142064 208.667917 
L 217.465369 208.667917 
L 217.465369 208.200166 
L 217.981221 208.200166 
L 217.981221 207.732414 
L 218.737294 207.732414 
L 218.737294 206.79691 
L 218.941165 206.79691 
L 218.941165 206.329159 
L 219.494466 206.329159 
L 219.494466 205.393655 
L 219.884187 205.393655 
L 219.884187 204.458152 
L 220.353018 204.458152 
L 220.353018 203.522648 
L 221.706705 203.522648 
L 221.706705 203.054897 
L 221.987371 203.054897 
L 221.987371 202.587145 
L 226.754607 202.587145 
L 226.754607 201.651641 
L 360.8064 201.651641 
L 360.8064 201.651641 
" style="fill: none; stroke: #ff7500; stroke-width: 1.5; stroke-linecap: square"/>
   </g>
   <g id="line2d_46">
    <defs>
     <path id="m5f77dbbe60" d="M 0 -6 
L -1.347084 -1.854102 
L -5.706339 -1.854102 
L -2.179628 0.708204 
L -3.526712 4.854102 
L -0 2.291796 
L 3.526712 4.854102 
L 2.179628 0.708204 
L 5.706339 -1.854102 
L 1.347084 -1.854102 
z
" style="stroke: #ff7500; stroke-width: 1.5; stroke-linejoin: bevel"/>
    </defs>
    <g>
     <use xlink:href="#m5f77dbbe60" x="122.19863" y="284.443697" style="fill-opacity: 0; stroke: #ff7500; stroke-width: 1.5; stroke-linejoin: bevel"/>
     <use xlink:href="#m5f77dbbe60" x="190.079623" y="246.555807" style="fill-opacity: 0; stroke: #ff7500; stroke-width: 1.5; stroke-linejoin: bevel"/>
     <use xlink:href="#m5f77dbbe60" x="226.754607" y="202.587145" style="fill-opacity: 0; stroke: #ff7500; stroke-width: 1.5; stroke-linejoin: bevel"/>
     <use xlink:href="#m5f77dbbe60" x="226.754607" y="201.651641" style="fill-opacity: 0; stroke: #ff7500; stroke-width: 1.5; stroke-linejoin: bevel"/>
     <use xlink:href="#m5f77dbbe60" x="226.754607" y="201.651641" style="fill-opacity: 0; stroke: #ff7500; stroke-width: 1.5; stroke-linejoin: bevel"/>
     <use xlink:href="#m5f77dbbe60" x="360.8064" y="201.651641" style="fill-opacity: 0; stroke: #ff7500; stroke-width: 1.5; stroke-linejoin: bevel"/>
    </g>
   </g>
   <g id="line2d_47">
    <path style="fill: none; stroke: #ff7500; stroke-width: 1.5; stroke-linecap: square"/>
    <g/>
   </g>
   <g id="line2d_48">
    <path d="M 230.863245 201.651641 
" clip-path="url(#p167f5ddfe5)" style="fill: none; stroke: #ff7500; stroke-width: 1.5; stroke-linecap: square"/>
    <defs>
     <path id="m3d0e8aebb9" d="M -12 12 
L 12 -12 
M -12 -12 
L 12 12 
" style="stroke: #ff7500"/>
    </defs>
    <g clip-path="url(#p167f5ddfe5)">
     <use xlink:href="#m3d0e8aebb9" x="230.863245" y="201.651641" style="fill: #ff7500; stroke: #ff7500"/>
    </g>
   </g>
   <g id="line2d_49">
    <defs>
     <path id="m9ba94d77a1" d="M 0 1.5 
C 0.397805 1.5 0.77937 1.341951 1.06066 1.06066 
C 1.341951 0.77937 1.5 0.397805 1.5 0 
C 1.5 -0.397805 1.341951 -0.77937 1.06066 -1.06066 
C 0.77937 -1.341951 0.397805 -1.5 0 -1.5 
C -0.397805 -1.5 -0.77937 -1.341951 -1.06066 -1.06066 
C -1.341951 -0.77937 -1.5 -0.397805 -1.5 0 
C -1.5 0.397805 -1.341951 0.77937 -1.06066 1.06066 
C -0.77937 1.341951 -0.397805 1.5 0 1.5 
z
" style="stroke: #6495ed"/>
    </defs>
    <g>
     <use xlink:href="#m9ba94d77a1" x="227.609362" y="201.18389" style="fill: #6495ed; stroke: #6495ed"/>
     <use xlink:href="#m9ba94d77a1" x="227.609362" y="201.18389" style="fill: #6495ed; stroke: #6495ed"/>
    </g>
   </g>
   <g id="line2d_50">
    <path d="M 14.2848 298.944 
L 14.2848 289.121214 
L 27.323974 289.121214 
L 27.323974 287.717959 
L 70.639174 287.717959 
L 70.639174 287.250207 
L 75.574654 287.250207 
L 75.574654 286.782455 
L 79.480672 286.782455 
L 79.480672 286.314703 
L 90.007914 286.314703 
L 90.007914 285.3792 
L 93.66029 285.3792 
L 93.66029 284.911448 
L 107.244765 284.911448 
L 107.244765 284.443697 
L 108.542628 284.443697 
L 108.542628 283.975945 
L 109.280431 283.975945 
L 109.280431 283.040441 
L 110.897141 283.040441 
L 110.897141 282.57269 
L 111.117162 282.57269 
L 111.117162 281.637186 
L 127.549596 281.637186 
L 127.549596 280.701683 
L 129.458394 280.701683 
L 129.458394 280.233931 
L 137.787626 280.233931 
L 137.787626 279.766179 
L 140.032723 279.766179 
L 140.032723 279.298428 
L 140.634374 279.298428 
L 140.634374 278.830676 
L 141.953481 278.830676 
L 141.953481 278.362924 
L 143.540694 278.362924 
L 143.540694 277.895172 
L 145.954802 277.895172 
L 145.954802 277.427421 
L 150.069911 277.427421 
L 150.069911 276.959669 
L 150.667154 276.959669 
L 150.667154 276.491917 
L 151.220087 276.491917 
L 151.220087 276.024166 
L 155.547053 276.024166 
L 155.547053 275.556414 
L 156.225294 275.556414 
L 156.225294 275.088662 
L 158.656269 275.088662 
L 158.656269 274.153159 
L 159.351007 274.153159 
L 159.351007 273.685407 
L 160.886507 273.685407 
L 160.886507 273.217655 
L 161.117894 273.217655 
L 161.117894 272.749903 
L 164.407868 272.749903 
L 164.407868 271.8144 
L 164.701605 271.8144 
L 164.701605 271.346648 
L 165.170902 271.346648 
L 165.170902 270.411145 
L 167.062453 270.411145 
L 167.062453 269.943393 
L 167.586025 269.943393 
L 167.586025 269.00789 
L 167.76454 269.00789 
L 167.76454 268.540138 
L 169.304197 268.540138 
L 169.304197 268.072386 
L 171.48015 268.072386 
L 171.48015 267.604634 
L 171.625414 267.604634 
L 171.625414 267.136883 
L 172.101681 267.136883 
L 172.101681 266.669131 
L 172.85592 266.669131 
L 172.85592 266.201379 
L 173.161475 266.201379 
L 173.161475 265.733628 
L 173.659955 265.733628 
L 173.659955 264.798124 
L 174.468765 264.798124 
L 174.468765 264.330372 
L 177.125747 264.330372 
L 177.125747 263.862621 
L 177.829275 263.862621 
L 177.939312 262.459366 
L 179.032306 262.459366 
L 179.032306 261.523862 
L 179.424532 261.523862 
L 179.424532 260.588359 
L 179.924755 260.588359 
L 179.924755 260.120607 
L 180.663208 260.120607 
L 180.663208 259.652855 
L 181.015188 259.652855 
L 181.015188 259.185103 
L 181.761486 259.185103 
L 181.761486 258.717352 
L 182.910204 258.717352 
L 182.915017 256.846345 
L 184.017773 256.846345 
L 184.106064 255.44309 
L 184.3395 255.44309 
L 184.3395 254.975338 
L 184.869562 254.975338 
L 184.869562 254.507586 
L 185.665746 254.507586 
L 185.665746 253.572083 
L 186.327517 253.572083 
L 186.327517 253.104331 
L 187.236445 253.104331 
L 187.236445 252.168828 
L 187.637552 252.168828 
L 187.660002 251.233324 
L 187.953127 251.233324 
L 187.953127 250.297821 
L 189.764626 250.297821 
L 189.764626 249.830069 
L 189.876307 249.830069 
L 189.876307 249.362317 
L 190.040124 249.362317 
L 190.091128 247.959062 
L 190.531213 247.959062 
L 190.531213 247.49131 
L 190.821093 247.49131 
L 190.821093 246.555807 
L 192.016681 246.555807 
L 192.016681 246.088055 
L 192.835146 246.088055 
L 192.924397 245.152552 
L 193.076422 245.152552 
L 193.076422 244.217048 
L 193.926156 244.217048 
L 193.926156 243.749297 
L 196.639355 243.749297 
L 196.682228 242.813793 
L 196.954556 242.813793 
L 196.954556 242.346041 
L 197.993127 242.346041 
L 198.020095 240.942786 
L 198.981444 240.942786 
L 198.981444 240.475034 
L 199.354645 240.475034 
L 199.354645 239.539531 
L 199.516617 239.539531 
L 199.516617 239.071779 
L 199.976849 239.071779 
L 199.976849 238.604028 
L 200.402361 238.604028 
L 200.402361 238.136276 
L 200.747727 238.136276 
L 200.747727 237.668524 
L 201.88828 237.668524 
L 201.88828 236.733021 
L 202.391383 236.733021 
L 202.391383 236.265269 
L 202.868889 236.265269 
L 202.969417 234.862014 
L 203.216367 234.862014 
L 203.216367 233.92651 
L 204.160531 233.92651 
L 204.160531 232.991007 
L 204.587307 232.991007 
L 204.587307 232.055503 
L 205.143162 232.055503 
L 205.143162 231.12 
L 205.581653 231.12 
L 205.581653 230.184497 
L 205.986172 230.184497 
L 206.024247 229.248993 
L 206.308773 229.248993 
L 206.308773 228.31349 
L 206.809915 228.31349 
L 206.809915 227.377986 
L 206.943877 227.377986 
L 207.008831 225.974731 
L 208.141212 225.974731 
L 208.141212 225.506979 
L 208.386342 225.506979 
L 208.386342 225.039228 
L 208.92708 225.039228 
L 208.92708 224.103724 
L 209.142558 224.103724 
L 209.142558 223.168221 
L 210.640158 223.168221 
L 210.640158 222.232717 
L 210.821702 222.232717 
L 210.920239 220.36171 
L 211.038777 220.36171 
L 211.038777 219.426207 
L 211.272038 219.426207 
L 211.272038 218.490703 
L 211.463445 218.490703 
L 211.463445 218.022952 
L 212.389803 218.022952 
L 212.389803 217.5552 
L 212.529391 217.5552 
L 212.529391 217.087448 
L 212.693169 217.087448 
L 212.71095 215.216441 
L 213.006306 215.216441 
L 213.006306 214.74869 
L 213.262132 214.74869 
L 213.262132 214.280938 
L 213.387323 214.280938 
L 213.387323 213.345434 
L 214.110466 213.345434 
L 214.188213 212.409931 
L 214.726731 212.409931 
L 214.726731 211.474428 
L 215.296789 211.474428 
L 215.296789 211.006676 
L 215.562109 211.006676 
L 215.562109 210.071172 
L 215.911396 210.071172 
L 215.911396 209.603421 
L 216.722381 209.603421 
L 216.722381 208.667917 
L 216.951528 208.667917 
L 216.951528 207.732414 
L 217.937149 207.732414 
L 218.010669 206.79691 
L 218.190455 206.79691 
L 218.190455 206.329159 
L 219.097906 206.329159 
L 219.097906 205.393655 
L 221.026812 205.393655 
L 221.026812 204.458152 
L 222.122557 204.458152 
L 222.122557 203.522648 
L 223.09867 203.522648 
L 223.09867 202.587145 
L 225.232863 202.587145 
L 225.232863 202.119393 
L 227.609362 202.119393 
L 227.609362 201.18389 
L 360.8064 201.18389 
L 360.8064 201.18389 
" style="fill: none; stroke: #6495ed; stroke-width: 1.5; stroke-linecap: square"/>
   </g>
   <g id="line2d_51">
    <defs>
     <path id="m26c0f28129" d="M -0 6 
L 6 -6 
L -6 -6 
z
" style="stroke: #6495ed; stroke-width: 1.5; stroke-linejoin: miter"/>
    </defs>
    <g>
     <use xlink:href="#m26c0f28129" x="79.480672" y="286.314703" style="fill-opacity: 0; stroke: #6495ed; stroke-width: 1.5; stroke-linejoin: miter"/>
     <use xlink:href="#m26c0f28129" x="184.3395" y="254.975338" style="fill-opacity: 0; stroke: #6495ed; stroke-width: 1.5; stroke-linejoin: miter"/>
     <use xlink:href="#m26c0f28129" x="227.609362" y="202.119393" style="fill-opacity: 0; stroke: #6495ed; stroke-width: 1.5; stroke-linejoin: miter"/>
     <use xlink:href="#m26c0f28129" x="227.609362" y="201.18389" style="fill-opacity: 0; stroke: #6495ed; stroke-width: 1.5; stroke-linejoin: miter"/>
     <use xlink:href="#m26c0f28129" x="227.609362" y="201.18389" style="fill-opacity: 0; stroke: #6495ed; stroke-width: 1.5; stroke-linejoin: miter"/>
     <use xlink:href="#m26c0f28129" x="360.8064" y="201.18389" style="fill-opacity: 0; stroke: #6495ed; stroke-width: 1.5; stroke-linejoin: miter"/>
    </g>
   </g>
   <g id="line2d_52">
    <path style="fill: none; stroke: #6495ed; stroke-width: 1.5; stroke-linecap: square"/>
    <g/>
   </g>
   <g id="line2d_53">
    <path d="M 230.86381 201.18389 
" clip-path="url(#p167f5ddfe5)" style="fill: none; stroke: #6495ed; stroke-width: 1.5; stroke-linecap: square"/>
    <defs>
     <path id="m6cc244239a" d="M -12 12 
L 12 -12 
M -12 -12 
L 12 12 
" style="stroke: #6495ed"/>
    </defs>
    <g clip-path="url(#p167f5ddfe5)">
     <use xlink:href="#m6cc244239a" x="230.86381" y="201.18389" style="fill: #6495ed; stroke: #6495ed"/>
    </g>
   </g>
   <g id="line2d_54">
    <defs>
     <path id="mae364e1244" d="M 0 1.5 
C 0.397805 1.5 0.77937 1.341951 1.06066 1.06066 
C 1.341951 0.77937 1.5 0.397805 1.5 0 
C 1.5 -0.397805 1.341951 -0.77937 1.06066 -1.06066 
C 0.77937 -1.341951 0.397805 -1.5 0 -1.5 
C -0.397805 -1.5 -0.77937 -1.341951 -1.06066 -1.06066 
C -1.341951 -0.77937 -1.5 -0.397805 -1.5 0 
C -1.5 0.397805 -1.341951 0.77937 -1.06066 1.06066 
C -0.77937 1.341951 -0.397805 1.5 0 1.5 
z
" style="stroke: #ff0000"/>
    </defs>
    <g>
     <use xlink:href="#mae364e1244" x="241.783415" y="213.813186" style="fill: #ff0000; stroke: #ff0000"/>
     <use xlink:href="#mae364e1244" x="241.783415" y="213.813186" style="fill: #ff0000; stroke: #ff0000"/>
    </g>
   </g>
   <g id="line2d_55">
    <path d="M 14.2848 298.944 
L 14.2848 289.121214 
L 34.951403 289.121214 
L 34.951403 288.18571 
L 40.363149 288.18571 
L 40.363149 287.250207 
L 53.402323 287.250207 
L 53.402323 286.314703 
L 55.618005 286.314703 
L 55.618005 285.846952 
L 78.266603 285.846952 
L 78.266603 285.3792 
L 85.471281 285.3792 
L 85.471281 284.443697 
L 98.510456 284.443697 
L 98.510456 283.975945 
L 100.726138 283.975945 
L 100.726138 282.57269 
L 102.362957 282.57269 
L 102.362957 282.104938 
L 104.501065 282.104938 
L 104.501065 281.637186 
L 110.335561 281.637186 
L 110.335561 280.701683 
L 113.860081 280.701683 
L 113.860081 280.233931 
L 115.747307 280.233931 
L 115.747307 279.766179 
L 116.086263 279.766179 
L 116.086263 279.298428 
L 116.665126 279.298428 
L 116.665126 278.830676 
L 118.376446 278.830676 
L 118.376446 278.362924 
L 124.695386 278.362924 
L 124.695386 277.895172 
L 125.167667 277.895172 
L 125.167667 277.427421 
L 125.373824 277.427421 
L 125.373824 276.959669 
L 126.274549 276.959669 
L 126.274549 276.491917 
L 129.7043 276.491917 
L 129.7043 276.024166 
L 130.146945 276.024166 
L 130.146945 275.556414 
L 131.002163 275.556414 
L 131.002163 275.088662 
L 132.984158 275.088662 
L 132.984158 274.62091 
L 134.463557 274.62091 
L 134.463557 274.153159 
L 135.717106 274.153159 
L 135.776169 273.217655 
L 136.584151 273.217655 
L 136.584151 272.282152 
L 137.331728 272.282152 
L 137.331728 271.8144 
L 137.627979 271.8144 
L 137.734561 270.411145 
L 139.338138 270.411145 
L 139.338138 269.943393 
L 140.611586 269.943393 
L 140.611586 269.00789 
L 142.518184 269.00789 
L 142.60042 268.072386 
L 146.125662 268.072386 
L 146.125662 267.604634 
L 146.479495 267.604634 
L 146.479495 266.669131 
L 146.941151 266.669131 
L 146.941151 266.201379 
L 147.816265 266.201379 
L 147.816265 265.733628 
L 148.155221 265.733628 
L 148.216198 264.330372 
L 149.180344 264.330372 
L 149.180344 263.862621 
L 150.069911 263.862621 
L 150.069911 263.394869 
L 153.52493 263.394869 
L 153.52493 262.927117 
L 154.746889 262.927117 
L 154.832738 261.991614 
L 154.982037 261.991614 
L 154.982037 261.05611 
L 156.937458 261.05611 
L 156.937458 260.120607 
L 157.898535 260.120607 
L 157.898535 259.652855 
L 159.409859 259.652855 
L 159.409859 259.185103 
L 159.759155 259.185103 
L 159.759155 258.717352 
L 160.069692 258.717352 
L 160.150567 257.314097 
L 160.35923 257.314097 
L 160.35923 256.378593 
L 162.62716 256.378593 
L 162.62716 255.44309 
L 163.33528 255.44309 
L 163.33528 254.975338 
L 165.121398 254.975338 
L 165.121398 254.039834 
L 165.300233 254.039834 
L 165.324768 252.168828 
L 165.434777 252.168828 
L 165.434777 251.701076 
L 165.987215 251.701076 
L 166.05809 250.765572 
L 167.062453 250.765572 
L 167.062453 249.830069 
L 167.312278 249.830069 
L 167.383837 248.894566 
L 168.826913 248.894566 
L 168.826913 248.426814 
L 169.467197 248.426814 
L 169.467197 247.959062 
L 170.444641 247.959062 
L 170.444641 247.49131 
L 171.284704 247.49131 
L 171.284704 246.555807 
L 171.656084 246.555807 
L 171.656084 245.620303 
L 171.912619 245.620303 
L 171.912619 245.152552 
L 173.19781 245.152552 
L 173.19781 244.6848 
L 173.398404 244.6848 
L 173.493935 243.749297 
L 173.937319 243.749297 
L 173.937319 243.281545 
L 175.531433 243.281545 
L 175.531433 242.813793 
L 175.726373 242.813793 
L 175.726373 242.346041 
L 175.856387 242.346041 
L 175.856387 241.410538 
L 176.158601 241.410538 
L 176.158601 240.942786 
L 178.026881 240.942786 
L 178.026881 240.475034 
L 178.531754 240.475034 
L 178.531754 239.539531 
L 179.797391 239.539531 
L 179.797391 239.071779 
L 180.238055 239.071779 
L 180.238055 238.604028 
L 180.646928 238.604028 
L 180.646928 238.136276 
L 181.137238 238.136276 
L 181.137238 237.200772 
L 181.830435 237.200772 
L 181.830435 236.265269 
L 182.437393 236.265269 
L 182.437393 235.329766 
L 182.770089 235.329766 
L 182.770089 234.862014 
L 183.144604 234.862014 
L 183.144604 234.394262 
L 185.010004 234.394262 
L 185.010004 233.92651 
L 185.351304 233.92651 
L 185.351304 232.991007 
L 186.653817 232.991007 
L 186.653817 232.523255 
L 186.777675 232.523255 
L 186.777675 231.587752 
L 187.523013 231.587752 
L 187.523013 230.652248 
L 188.386223 230.652248 
L 188.386223 230.184497 
L 189.007286 230.184497 
L 189.007286 229.248993 
L 189.623664 229.248993 
L 189.694277 227.377986 
L 190.691041 227.377986 
L 190.768863 225.506979 
L 191.097231 225.506979 
L 191.198197 224.103724 
L 191.318646 224.103724 
L 191.318646 223.635972 
L 191.580039 223.635972 
L 191.580039 222.700469 
L 192.065564 222.700469 
L 192.065564 222.232717 
L 192.847922 222.232717 
L 192.847922 221.764966 
L 194.632338 221.764966 
L 194.632338 221.297214 
L 196.569622 221.297214 
L 196.569622 220.829462 
L 196.729623 220.829462 
L 196.789562 219.426207 
L 197.84465 219.426207 
L 197.84465 218.958455 
L 198.204598 218.958455 
L 198.204598 218.022952 
L 199.606002 218.022952 
L 199.606002 217.087448 
L 200.164376 217.087448 
L 200.164376 216.151945 
L 200.67579 216.151945 
L 200.67579 215.216441 
L 204.701765 215.216441 
L 204.701765 214.74869 
L 241.783415 214.74869 
L 241.783415 213.813186 
L 360.8064 213.813186 
L 360.8064 213.813186 
" style="fill: none; stroke: #ff0000; stroke-width: 1.5; stroke-linecap: square"/>
   </g>
   <g id="line2d_56">
    <defs>
     <path id="m3b411c7b6b" d="M 0 -6 
L -5.196152 -3 
L -5.196152 3 
L -0 6 
L 5.196152 3 
L 5.196152 -3 
z
" style="stroke: #ff0000; stroke-width: 1.5; stroke-linejoin: miter"/>
    </defs>
    <g>
     <use xlink:href="#m3b411c7b6b" x="110.335561" y="281.637186" style="fill-opacity: 0; stroke: #ff0000; stroke-width: 1.5; stroke-linejoin: miter"/>
     <use xlink:href="#m3b411c7b6b" x="173.937319" y="243.281545" style="fill-opacity: 0; stroke: #ff0000; stroke-width: 1.5; stroke-linejoin: miter"/>
     <use xlink:href="#m3b411c7b6b" x="204.701765" y="214.74869" style="fill-opacity: 0; stroke: #ff0000; stroke-width: 1.5; stroke-linejoin: miter"/>
     <use xlink:href="#m3b411c7b6b" x="241.783415" y="213.813186" style="fill-opacity: 0; stroke: #ff0000; stroke-width: 1.5; stroke-linejoin: miter"/>
     <use xlink:href="#m3b411c7b6b" x="241.783415" y="213.813186" style="fill-opacity: 0; stroke: #ff0000; stroke-width: 1.5; stroke-linejoin: miter"/>
     <use xlink:href="#m3b411c7b6b" x="360.8064" y="213.813186" style="fill-opacity: 0; stroke: #ff0000; stroke-width: 1.5; stroke-linejoin: miter"/>
    </g>
   </g>
   <g id="line2d_57">
    <path style="fill: none; stroke: #ff0000; stroke-width: 1.5; stroke-linecap: square"/>
    <g/>
   </g>
   <g id="line2d_58">
    <path d="M 274.176188 213.813186 
" clip-path="url(#p167f5ddfe5)" style="fill: none; stroke: #ff0000; stroke-width: 1.5; stroke-linecap: square"/>
    <defs>
     <path id="mfc4dac3e5b" d="M -12 12 
L 12 -12 
M -12 -12 
L 12 12 
" style="stroke: #ff0000"/>
    </defs>
    <g clip-path="url(#p167f5ddfe5)">
     <use xlink:href="#mfc4dac3e5b" x="274.176188" y="213.813186" style="fill: #ff0000; stroke: #ff0000"/>
    </g>
   </g>
   <g id="line2d_59">
    <path d="M 360.8064 213.813186 
L 380.514816 293.51808 
" style="fill: none; stroke: #ff0000; stroke-width: 1.5; stroke-linecap: square"/>
    <g>
     <use xlink:href="#m3b411c7b6b" x="360.8064" y="213.813186" style="fill-opacity: 0; stroke: #ff0000; stroke-width: 1.5; stroke-linejoin: miter"/>
     <use xlink:href="#m3b411c7b6b" x="380.514816" y="293.51808" style="fill-opacity: 0; stroke: #ff0000; stroke-width: 1.5; stroke-linejoin: miter"/>
    </g>
   </g>
   <g id="line2d_60">
    <path d="M 360.8064 201.651641 
L 380.514816 241.429248 
" style="fill: none; stroke: #ff7500; stroke-width: 1.5; stroke-linecap: square"/>
    <g>
     <use xlink:href="#m5f77dbbe60" x="360.8064" y="201.651641" style="fill-opacity: 0; stroke: #ff7500; stroke-width: 1.5; stroke-linejoin: bevel"/>
     <use xlink:href="#m5f77dbbe60" x="380.514816" y="241.429248" style="fill-opacity: 0; stroke: #ff7500; stroke-width: 1.5; stroke-linejoin: bevel"/>
    </g>
   </g>
   <g id="line2d_61">
    <path d="M 360.8064 201.18389 
L 380.514816 189.340416 
" style="fill: none; stroke: #6495ed; stroke-width: 1.5; stroke-linecap: square"/>
    <g>
     <use xlink:href="#m26c0f28129" x="360.8064" y="201.18389" style="fill-opacity: 0; stroke: #6495ed; stroke-width: 1.5; stroke-linejoin: miter"/>
     <use xlink:href="#m26c0f28129" x="380.514816" y="189.340416" style="fill-opacity: 0; stroke: #6495ed; stroke-width: 1.5; stroke-linejoin: miter"/>
    </g>
   </g>
   <g id="line2d_62">
    <path d="M 360.8064 200.248386 
L 380.514816 137.251584 
" style="fill: none; stroke: #ff00ff; stroke-width: 1.5; stroke-linecap: square"/>
    <g>
     <use xlink:href="#ma7ea51a12b" x="360.8064" y="200.248386" style="fill-opacity: 0; stroke: #ff00ff; stroke-width: 1.5; stroke-linejoin: miter"/>
     <use xlink:href="#ma7ea51a12b" x="380.514816" y="137.251584" style="fill-opacity: 0; stroke: #ff00ff; stroke-width: 1.5; stroke-linejoin: miter"/>
    </g>
   </g>
   <g id="line2d_63">
    <path d="M 360.8064 194.635366 
L 380.514816 85.162752 
" style="fill: none; stroke: #000080; stroke-width: 1.5; stroke-linecap: square"/>
    <g>
     <use xlink:href="#m50a48396a8" x="360.8064" y="194.635366" style="fill-opacity: 0; stroke: #000080; stroke-width: 1.5"/>
     <use xlink:href="#m50a48396a8" x="380.514816" y="85.162752" style="fill-opacity: 0; stroke: #000080; stroke-width: 1.5"/>
    </g>
   </g>
   <g id="line2d_64">
    <path d="M 360.8064 298.944 
L 360.8064 27.648 
" style="fill: none; stroke: #000000; stroke-width: 1.5; stroke-linecap: square"/>
   </g>
   <g id="patch_3">
    <path d="M 57.6 298.944 
L 360.8064 298.944 
" style="fill: none; stroke: #000000; stroke-width: 0.8; stroke-linejoin: miter; stroke-linecap: square"/>
   </g>
   <g id="patch_4">
    <path d="M 57.6 27.648 
L 360.8064 27.648 
" style="fill: none; stroke: #000000; stroke-width: 0.8; stroke-linejoin: miter; stroke-linecap: square"/>
   </g>
   <g id="text_13">
    <!-- COMO-10 d -->
    <g transform="translate(386.578944 297.381205) scale(0.14 -0.14)">
     <defs>
      <path id="DejaVuSans-43" d="M 4122 4306 
L 4122 3641 
Q 3803 3938 3442 4084 
Q 3081 4231 2675 4231 
Q 1875 4231 1450 3742 
Q 1025 3253 1025 2328 
Q 1025 1406 1450 917 
Q 1875 428 2675 428 
Q 3081 428 3442 575 
Q 3803 722 4122 1019 
L 4122 359 
Q 3791 134 3420 21 
Q 3050 -91 2638 -91 
Q 1578 -91 968 557 
Q 359 1206 359 2328 
Q 359 3453 968 4101 
Q 1578 4750 2638 4750 
Q 3056 4750 3426 4639 
Q 3797 4528 4122 4306 
z
" transform="scale(0.015625)"/>
      <path id="DejaVuSans-4f" d="M 2522 4238 
Q 1834 4238 1429 3725 
Q 1025 3213 1025 2328 
Q 1025 1447 1429 934 
Q 1834 422 2522 422 
Q 3209 422 3611 934 
Q 4013 1447 4013 2328 
Q 4013 3213 3611 3725 
Q 3209 4238 2522 4238 
z
M 2522 4750 
Q 3503 4750 4090 4092 
Q 4678 3434 4678 2328 
Q 4678 1225 4090 567 
Q 3503 -91 2522 -91 
Q 1538 -91 948 565 
Q 359 1222 359 2328 
Q 359 3434 948 4092 
Q 1538 4750 2522 4750 
z
" transform="scale(0.015625)"/>
      <path id="DejaVuSans-4d" d="M 628 4666 
L 1569 4666 
L 2759 1491 
L 3956 4666 
L 4897 4666 
L 4897 0 
L 4281 0 
L 4281 4097 
L 3078 897 
L 2444 897 
L 1241 4097 
L 1241 0 
L 628 0 
L 628 4666 
z
" transform="scale(0.015625)"/>
     </defs>
     <use xlink:href="#DejaVuSans-43"/>
     <use xlink:href="#DejaVuSans-4f" x="69.824219"/>
     <use xlink:href="#DejaVuSans-4d" x="148.535156"/>
     <use xlink:href="#DejaVuSans-4f" x="234.814453"/>
     <use xlink:href="#DejaVuSans-2d" x="316.275391"/>
     <use xlink:href="#DejaVuSans-31" x="352.359375"/>
     <use xlink:href="#DejaVuSans-30" x="415.982422"/>
     <use xlink:href="#DejaVuSans-20" x="479.605469"/>
     <use xlink:href="#DejaVuSans-64" x="511.392578"/>
    </g>
   </g>
   <g id="text_14">
    <!-- kerComo -->
    <g transform="translate(386.578944 245.292373) scale(0.14 -0.14)">
     <defs>
      <path id="DejaVuSans-6b" d="M 581 4863 
L 1159 4863 
L 1159 1991 
L 2875 3500 
L 3609 3500 
L 1753 1863 
L 3688 0 
L 2938 0 
L 1159 1709 
L 1159 0 
L 581 0 
L 581 4863 
z
" transform="scale(0.015625)"/>
     </defs>
     <use xlink:href="#DejaVuSans-6b"/>
     <use xlink:href="#DejaVuSans-65" x="54.285156"/>
     <use xlink:href="#DejaVuSans-72" x="115.808594"/>
     <use xlink:href="#DejaVuSans-43" x="156.921875"/>
     <use xlink:href="#DejaVuSans-6f" x="226.746094"/>
     <use xlink:href="#DejaVuSans-6d" x="287.927734"/>
     <use xlink:href="#DejaVuSans-6f" x="385.339844"/>
    </g>
   </g>
   <g id="text_15">
    <!-- kerLQ -->
    <g transform="translate(386.578944 193.203541) scale(0.14 -0.14)">
     <defs>
      <path id="DejaVuSans-4c" d="M 628 4666 
L 1259 4666 
L 1259 531 
L 3531 531 
L 3531 0 
L 628 0 
L 628 4666 
z
" transform="scale(0.015625)"/>
      <path id="DejaVuSans-51" d="M 2522 4238 
Q 1834 4238 1429 3725 
Q 1025 3213 1025 2328 
Q 1025 1447 1429 934 
Q 1834 422 2522 422 
Q 3209 422 3611 934 
Q 4013 1447 4013 2328 
Q 4013 3213 3611 3725 
Q 3209 4238 2522 4238 
z
M 3406 84 
L 4238 -825 
L 3475 -825 
L 2784 -78 
Q 2681 -84 2626 -87 
Q 2572 -91 2522 -91 
Q 1538 -91 948 567 
Q 359 1225 359 2328 
Q 359 3434 948 4092 
Q 1538 4750 2522 4750 
Q 3503 4750 4090 4092 
Q 4678 3434 4678 2328 
Q 4678 1516 4351 937 
Q 4025 359 3406 84 
z
" transform="scale(0.015625)"/>
     </defs>
     <use xlink:href="#DejaVuSans-6b"/>
     <use xlink:href="#DejaVuSans-65" x="54.285156"/>
     <use xlink:href="#DejaVuSans-72" x="115.808594"/>
     <use xlink:href="#DejaVuSans-4c" x="156.921875"/>
     <use xlink:href="#DejaVuSans-51" x="212.634766"/>
    </g>
   </g>
   <g id="text_16">
    <!-- AllLQ -->
    <g transform="translate(386.578944 141.114709) scale(0.14 -0.14)">
     <defs>
      <path id="DejaVuSans-41" d="M 2188 4044 
L 1331 1722 
L 3047 1722 
L 2188 4044 
z
M 1831 4666 
L 2547 4666 
L 4325 0 
L 3669 0 
L 3244 1197 
L 1141 1197 
L 716 0 
L 50 0 
L 1831 4666 
z
" transform="scale(0.015625)"/>
     </defs>
     <use xlink:href="#DejaVuSans-41"/>
     <use xlink:href="#DejaVuSans-6c" x="68.408203"/>
     <use xlink:href="#DejaVuSans-6c" x="96.191406"/>
     <use xlink:href="#DejaVuSans-4c" x="123.974609"/>
     <use xlink:href="#DejaVuSans-51" x="179.6875"/>
    </g>
   </g>
   <g id="text_17">
    <!-- AllComo -->
    <g transform="translate(386.578944 89.025877) scale(0.14 -0.14)">
     <use xlink:href="#DejaVuSans-41"/>
     <use xlink:href="#DejaVuSans-6c" x="68.408203"/>
     <use xlink:href="#DejaVuSans-6c" x="96.191406"/>
     <use xlink:href="#DejaVuSans-43" x="123.974609"/>
     <use xlink:href="#DejaVuSans-6f" x="193.798828"/>
     <use xlink:href="#DejaVuSans-6d" x="254.980469"/>
     <use xlink:href="#DejaVuSans-6f" x="352.392578"/>
    </g>
   </g>
   <g id="text_18">
    <!-- best 2016 -->
    <g transform="translate(386.578944 36.937045) scale(0.14 -0.14)">
     <defs>
      <path id="DejaVuSans-62" d="M 3116 1747 
Q 3116 2381 2855 2742 
Q 2594 3103 2138 3103 
Q 1681 3103 1420 2742 
Q 1159 2381 1159 1747 
Q 1159 1113 1420 752 
Q 1681 391 2138 391 
Q 2594 391 2855 752 
Q 3116 1113 3116 1747 
z
M 1159 2969 
Q 1341 3281 1617 3432 
Q 1894 3584 2278 3584 
Q 2916 3584 3314 3078 
Q 3713 2572 3713 1747 
Q 3713 922 3314 415 
Q 2916 -91 2278 -91 
Q 1894 -91 1617 61 
Q 1341 213 1159 525 
L 1159 0 
L 581 0 
L 581 4863 
L 1159 4863 
L 1159 2969 
z
" transform="scale(0.015625)"/>
     </defs>
     <use xlink:href="#DejaVuSans-62"/>
     <use xlink:href="#DejaVuSans-65" x="63.476562"/>
     <use xlink:href="#DejaVuSans-73" x="125"/>
     <use xlink:href="#DejaVuSans-74" x="177.099609"/>
     <use xlink:href="#DejaVuSans-20" x="216.308594"/>
     <use xlink:href="#DejaVuSans-32" x="248.095703"/>
     <use xlink:href="#DejaVuSans-30" x="311.71875"/>
     <use xlink:href="#DejaVuSans-31" x="375.341797"/>
     <use xlink:href="#DejaVuSans-36" x="438.964844"/>
    </g>
   </g>
   <g id="text_19">
    <!-- bbob-biobj f25, 10-D -->
    <g transform="translate(60.632064 38.111366) scale(0.102 -0.102)">
     <defs>
      <path id="DejaVuSans-6a" d="M 603 3500 
L 1178 3500 
L 1178 -63 
Q 1178 -731 923 -1031 
Q 669 -1331 103 -1331 
L -116 -1331 
L -116 -844 
L 38 -844 
Q 366 -844 484 -692 
Q 603 -541 603 -63 
L 603 3500 
z
M 603 4863 
L 1178 4863 
L 1178 4134 
L 603 4134 
L 603 4863 
z
" transform="scale(0.015625)"/>
      <path id="DejaVuSans-35" d="M 691 4666 
L 3169 4666 
L 3169 4134 
L 1269 4134 
L 1269 2991 
Q 1406 3038 1543 3061 
Q 1681 3084 1819 3084 
Q 2600 3084 3056 2656 
Q 3513 2228 3513 1497 
Q 3513 744 3044 326 
Q 2575 -91 1722 -91 
Q 1428 -91 1123 -41 
Q 819 9 494 109 
L 494 744 
Q 775 591 1075 516 
Q 1375 441 1709 441 
Q 2250 441 2565 725 
Q 2881 1009 2881 1497 
Q 2881 1984 2565 2268 
Q 2250 2553 1709 2553 
Q 1456 2553 1204 2497 
Q 953 2441 691 2322 
L 691 4666 
z
" transform="scale(0.015625)"/>
      <path id="DejaVuSans-44" d="M 1259 4147 
L 1259 519 
L 2022 519 
Q 2988 519 3436 956 
Q 3884 1394 3884 2338 
Q 3884 3275 3436 3711 
Q 2988 4147 2022 4147 
L 1259 4147 
z
M 628 4666 
L 1925 4666 
Q 3281 4666 3915 4102 
Q 4550 3538 4550 2338 
Q 4550 1131 3912 565 
Q 3275 0 1925 0 
L 628 0 
L 628 4666 
z
" transform="scale(0.015625)"/>
     </defs>
     <use xlink:href="#DejaVuSans-62"/>
     <use xlink:href="#DejaVuSans-62" x="63.476562"/>
     <use xlink:href="#DejaVuSans-6f" x="126.953125"/>
     <use xlink:href="#DejaVuSans-62" x="188.134766"/>
     <use xlink:href="#DejaVuSans-2d" x="251.611328"/>
     <use xlink:href="#DejaVuSans-62" x="287.695312"/>
     <use xlink:href="#DejaVuSans-69" x="351.171875"/>
     <use xlink:href="#DejaVuSans-6f" x="378.955078"/>
     <use xlink:href="#DejaVuSans-62" x="440.136719"/>
     <use xlink:href="#DejaVuSans-6a" x="503.613281"/>
     <use xlink:href="#DejaVuSans-20" x="531.396484"/>
     <use xlink:href="#DejaVuSans-66" x="563.183594"/>
     <use xlink:href="#DejaVuSans-32" x="598.388672"/>
     <use xlink:href="#DejaVuSans-35" x="662.011719"/>
     <use xlink:href="#DejaVuSans-2c" x="725.634766"/>
     <use xlink:href="#DejaVuSans-20" x="757.421875"/>
     <use xlink:href="#DejaVuSans-31" x="789.208984"/>
     <use xlink:href="#DejaVuSans-30" x="852.832031"/>
     <use xlink:href="#DejaVuSans-2d" x="916.455078"/>
     <use xlink:href="#DejaVuSans-44" x="952.539062"/>
    </g>
    <!-- 58 targets: 1..-1.0e-4 -->
    <g transform="translate(60.632064 49.533135) scale(0.102 -0.102)">
     <defs>
      <path id="DejaVuSans-3a" d="M 750 794 
L 1409 794 
L 1409 0 
L 750 0 
L 750 794 
z
M 750 3309 
L 1409 3309 
L 1409 2516 
L 750 2516 
L 750 3309 
z
" transform="scale(0.015625)"/>
     </defs>
     <use xlink:href="#DejaVuSans-35"/>
     <use xlink:href="#DejaVuSans-38" x="63.623047"/>
     <use xlink:href="#DejaVuSans-20" x="127.246094"/>
     <use xlink:href="#DejaVuSans-74" x="159.033203"/>
     <use xlink:href="#DejaVuSans-61" x="198.242188"/>
     <use xlink:href="#DejaVuSans-72" x="259.521484"/>
     <use xlink:href="#DejaVuSans-67" x="298.884766"/>
     <use xlink:href="#DejaVuSans-65" x="362.361328"/>
     <use xlink:href="#DejaVuSans-74" x="423.884766"/>
     <use xlink:href="#DejaVuSans-73" x="463.09375"/>
     <use xlink:href="#DejaVuSans-3a" x="515.193359"/>
     <use xlink:href="#DejaVuSans-20" x="548.884766"/>
     <use xlink:href="#DejaVuSans-31" x="580.671875"/>
     <use xlink:href="#DejaVuSans-2e" x="644.294922"/>
     <use xlink:href="#DejaVuSans-2e" x="676.082031"/>
     <use xlink:href="#DejaVuSans-2d" x="707.869141"/>
     <use xlink:href="#DejaVuSans-31" x="743.953125"/>
     <use xlink:href="#DejaVuSans-2e" x="807.576172"/>
     <use xlink:href="#DejaVuSans-30" x="839.363281"/>
     <use xlink:href="#DejaVuSans-65" x="902.986328"/>
     <use xlink:href="#DejaVuSans-2d" x="964.509766"/>
     <use xlink:href="#DejaVuSans-34" x="1000.59375"/>
    </g>
    <!-- 10 instances -->
    <g transform="translate(60.632064 60.954904) scale(0.102 -0.102)">
     <use xlink:href="#DejaVuSans-31"/>
     <use xlink:href="#DejaVuSans-30" x="63.623047"/>
     <use xlink:href="#DejaVuSans-20" x="127.246094"/>
     <use xlink:href="#DejaVuSans-69" x="159.033203"/>
     <use xlink:href="#DejaVuSans-6e" x="186.816406"/>
     <use xlink:href="#DejaVuSans-73" x="250.195312"/>
     <use xlink:href="#DejaVuSans-74" x="302.294922"/>
     <use xlink:href="#DejaVuSans-61" x="341.503906"/>
     <use xlink:href="#DejaVuSans-6e" x="402.783203"/>
     <use xlink:href="#DejaVuSans-63" x="466.162109"/>
     <use xlink:href="#DejaVuSans-65" x="521.142578"/>
     <use xlink:href="#DejaVuSans-73" x="582.666016"/>
    </g>
   </g>
   <g id="text_20">
    <!-- v2.6, hv-hash=d240b271ab0b4926 -->
    <g style="fill: #808080" transform="translate(120.362575 294.151352) scale(0.1 -0.1)">
     <defs>
      <path id="DejaVuSans-68" d="M 3513 2113 
L 3513 0 
L 2938 0 
L 2938 2094 
Q 2938 2591 2744 2837 
Q 2550 3084 2163 3084 
Q 1697 3084 1428 2787 
Q 1159 2491 1159 1978 
L 1159 0 
L 581 0 
L 581 4863 
L 1159 4863 
L 1159 2956 
Q 1366 3272 1645 3428 
Q 1925 3584 2291 3584 
Q 2894 3584 3203 3211 
Q 3513 2838 3513 2113 
z
" transform="scale(0.015625)"/>
      <path id="DejaVuSans-3d" d="M 678 2906 
L 4684 2906 
L 4684 2381 
L 678 2381 
L 678 2906 
z
M 678 1631 
L 4684 1631 
L 4684 1100 
L 678 1100 
L 678 1631 
z
" transform="scale(0.015625)"/>
      <path id="DejaVuSans-37" d="M 525 4666 
L 3525 4666 
L 3525 4397 
L 1831 0 
L 1172 0 
L 2766 4134 
L 525 4134 
L 525 4666 
z
" transform="scale(0.015625)"/>
      <path id="DejaVuSans-39" d="M 703 97 
L 703 672 
Q 941 559 1184 500 
Q 1428 441 1663 441 
Q 2288 441 2617 861 
Q 2947 1281 2994 2138 
Q 2813 1869 2534 1725 
Q 2256 1581 1919 1581 
Q 1219 1581 811 2004 
Q 403 2428 403 3163 
Q 403 3881 828 4315 
Q 1253 4750 1959 4750 
Q 2769 4750 3195 4129 
Q 3622 3509 3622 2328 
Q 3622 1225 3098 567 
Q 2575 -91 1691 -91 
Q 1453 -91 1209 -44 
Q 966 3 703 97 
z
M 1959 2075 
Q 2384 2075 2632 2365 
Q 2881 2656 2881 3163 
Q 2881 3666 2632 3958 
Q 2384 4250 1959 4250 
Q 1534 4250 1286 3958 
Q 1038 3666 1038 3163 
Q 1038 2656 1286 2365 
Q 1534 2075 1959 2075 
z
" transform="scale(0.015625)"/>
     </defs>
     <use xlink:href="#DejaVuSans-76"/>
     <use xlink:href="#DejaVuSans-32" x="59.179688"/>
     <use xlink:href="#DejaVuSans-2e" x="122.802734"/>
     <use xlink:href="#DejaVuSans-36" x="154.589844"/>
     <use xlink:href="#DejaVuSans-2c" x="218.212891"/>
     <use xlink:href="#DejaVuSans-20" x="250"/>
     <use xlink:href="#DejaVuSans-68" x="281.787109"/>
     <use xlink:href="#DejaVuSans-76" x="345.166016"/>
     <use xlink:href="#DejaVuSans-2d" x="401.720703"/>
     <use xlink:href="#DejaVuSans-68" x="437.804688"/>
     <use xlink:href="#DejaVuSans-61" x="501.183594"/>
     <use xlink:href="#DejaVuSans-73" x="562.462891"/>
     <use xlink:href="#DejaVuSans-68" x="614.5625"/>
     <use xlink:href="#DejaVuSans-3d" x="677.941406"/>
     <use xlink:href="#DejaVuSans-64" x="761.730469"/>
     <use xlink:href="#DejaVuSans-32" x="825.207031"/>
     <use xlink:href="#DejaVuSans-34" x="888.830078"/>
     <use xlink:href="#DejaVuSans-30" x="952.453125"/>
     <use xlink:href="#DejaVuSans-62" x="1016.076172"/>
     <use xlink:href="#DejaVuSans-32" x="1079.552734"/>
     <use xlink:href="#DejaVuSans-37" x="1143.175781"/>
     <use xlink:href="#DejaVuSans-31" x="1206.798828"/>
     <use xlink:href="#DejaVuSans-61" x="1270.421875"/>
     <use xlink:href="#DejaVuSans-62" x="1331.701172"/>
     <use xlink:href="#DejaVuSans-30" x="1395.177734"/>
     <use xlink:href="#DejaVuSans-62" x="1458.800781"/>
     <use xlink:href="#DejaVuSans-34" x="1522.277344"/>
     <use xlink:href="#DejaVuSans-39" x="1585.900391"/>
     <use xlink:href="#DejaVuSans-32" x="1649.523438"/>
     <use xlink:href="#DejaVuSans-36" x="1713.146484"/>
    </g>
   </g>
   <g id="text_21">
    <!-- 25 Attr. sector/Schaffer F7 -->
    <g transform="translate(77.950075 21.648) scale(0.2 -0.2)">
     <defs>
      <path id="DejaVuSans-53" d="M 3425 4513 
L 3425 3897 
Q 3066 4069 2747 4153 
Q 2428 4238 2131 4238 
Q 1616 4238 1336 4038 
Q 1056 3838 1056 3469 
Q 1056 3159 1242 3001 
Q 1428 2844 1947 2747 
L 2328 2669 
Q 3034 2534 3370 2195 
Q 3706 1856 3706 1288 
Q 3706 609 3251 259 
Q 2797 -91 1919 -91 
Q 1588 -91 1214 -16 
Q 841 59 441 206 
L 441 856 
Q 825 641 1194 531 
Q 1563 422 1919 422 
Q 2459 422 2753 634 
Q 3047 847 3047 1241 
Q 3047 1584 2836 1778 
Q 2625 1972 2144 2069 
L 1759 2144 
Q 1053 2284 737 2584 
Q 422 2884 422 3419 
Q 422 4038 858 4394 
Q 1294 4750 2059 4750 
Q 2388 4750 2728 4690 
Q 3069 4631 3425 4513 
z
" transform="scale(0.015625)"/>
     </defs>
     <use xlink:href="#DejaVuSans-32"/>
     <use xlink:href="#DejaVuSans-35" x="63.623047"/>
     <use xlink:href="#DejaVuSans-20" x="127.246094"/>
     <use xlink:href="#DejaVuSans-41" x="159.033203"/>
     <use xlink:href="#DejaVuSans-74" x="225.691406"/>
     <use xlink:href="#DejaVuSans-74" x="264.900391"/>
     <use xlink:href="#DejaVuSans-72" x="304.109375"/>
     <use xlink:href="#DejaVuSans-2e" x="336.097656"/>
     <use xlink:href="#DejaVuSans-20" x="367.884766"/>
     <use xlink:href="#DejaVuSans-73" x="399.671875"/>
     <use xlink:href="#DejaVuSans-65" x="451.771484"/>
     <use xlink:href="#DejaVuSans-63" x="513.294922"/>
     <use xlink:href="#DejaVuSans-74" x="568.275391"/>
     <use xlink:href="#DejaVuSans-6f" x="607.484375"/>
     <use xlink:href="#DejaVuSans-72" x="668.666016"/>
     <use xlink:href="#DejaVuSans-2f" x="709.779297"/>
     <use xlink:href="#DejaVuSans-53" x="743.470703"/>
     <use xlink:href="#DejaVuSans-63" x="806.947266"/>
     <use xlink:href="#DejaVuSans-68" x="861.927734"/>
     <use xlink:href="#DejaVuSans-61" x="925.306641"/>
     <use xlink:href="#DejaVuSans-66" x="986.585938"/>
     <use xlink:href="#DejaVuSans-66" x="1021.791016"/>
     <use xlink:href="#DejaVuSans-65" x="1056.996094"/>
     <use xlink:href="#DejaVuSans-72" x="1118.519531"/>
     <use xlink:href="#DejaVuSans-20" x="1159.632812"/>
     <use xlink:href="#DejaVuSans-46" x="1191.419922"/>
     <use xlink:href="#DejaVuSans-37" x="1248.939453"/>
    </g>
   </g>
  </g>
 </g>
 <defs>
  <clipPath id="p167f5ddfe5">
   <rect x="57.6" y="27.648" width="303.2064" height="271.296"/>
  </clipPath>
 </defs>
</svg>
