<?xml version="1.0" encoding="utf-8" standalone="no"?>
<!DOCTYPE svg PUBLIC "-//W3C//DTD SVG 1.1//EN"
  "http://www.w3.org/Graphics/SVG/1.1/DTD/svg11.dtd">
<svg xmlns:xlink="http://www.w3.org/1999/xlink" width="460.8pt" height="345.6pt" viewBox="0 0 460.8 345.6" xmlns="http://www.w3.org/2000/svg" version="1.1">
 <metadata>
  <rdf:RDF xmlns:dc="http://purl.org/dc/elements/1.1/" xmlns:cc="http://creativecommons.org/ns#" xmlns:rdf="http://www.w3.org/1999/02/22-rdf-syntax-ns#">
   <cc:Work>
    <dc:type rdf:resource="http://purl.org/dc/dcmitype/StillImage"/>
    <dc:date>2023-02-10T02:07:22.695806</dc:date>
    <dc:format>image/svg+xml</dc:format>
    <dc:creator>
     <cc:Agent>
      <dc:title>Matplotlib v3.6.3, https://matplotlib.org/</dc:title>
     </cc:Agent>
    </dc:creator>
   </cc:Work>
  </rdf:RDF>
 </metadata>
 <defs>
  <style type="text/css">*{stroke-linejoin: round; stroke-linecap: butt}</style>
 </defs>
 <g id="figure_1">
  <g id="patch_1">
   <path d="M 0 345.6 
L 460.8 345.6 
L 460.8 0 
L 0 0 
z
" style="fill: #ffffff"/>
  </g>
  <g id="axes_1">
   <g id="patch_2">
    <path d="M 57.6 298.944 
L 360.8064 298.944 
L 360.8064 27.648 
L 57.6 27.648 
z
" style="fill: #ffffff"/>
   </g>
   <g id="line2d_1">
    <path d="M 65.227428 298.944 
L 65.227428 294.266483 
L 70.639174 294.266483 
L 70.639174 284.911448 
L 78.266603 284.911448 
L 78.266603 275.556414 
L 87.876026 275.556414 
L 87.876026 270.878897 
L 100.9152 270.878897 
L 100.9152 256.846345 
L 108.542628 256.846345 
L 108.542628 247.49131 
L 116.170056 247.49131 
L 116.170056 242.813793 
L 120.944062 242.813793 
L 120.944062 233.458759 
L 126.028642 233.458759 
L 126.028642 219.426207 
L 132.109044 219.426207 
L 132.109044 210.071172 
L 144.2304 210.071172 
L 144.2304 200.716138 
L 149.945377 200.716138 
L 149.945377 191.361103 
L 154.971412 191.361103 
L 154.971412 186.683586 
L 159.980326 186.683586 
L 159.980326 172.651034 
L 166.546881 172.651034 
L 166.546881 167.973517 
L 175.208017 167.973517 
L 175.208017 153.940966 
L 184.653623 153.940966 
L 184.653623 144.585931 
L 193.955614 144.585931 
L 193.955614 139.908414 
L 208.026307 139.908414 
L 208.026307 125.875862 
L 218.674837 125.875862 
L 218.674837 121.198345 
L 227.003339 121.198345 
L 227.003339 107.165793 
L 235.038149 107.165793 
L 235.038149 97.810759 
L 243.741764 97.810759 
L 243.741764 88.455724 
L 252.112041 88.455724 
L 252.112041 83.778207 
L 260.337522 83.778207 
L 260.337522 74.423172 
L 268.911286 74.423172 
L 268.911286 60.390621 
L 360.8064 60.390621 
" style="fill: none; stroke: #f5deb3; stroke-width: 4; stroke-linecap: square"/>
   </g>
   <g id="line2d_2">
    <defs>
     <path id="m42a90c091b" d="M -0 7.778175 
L 7.778175 0 
L 0 -7.778175 
L -7.778175 -0 
z
" style="stroke: #f5deb3; stroke-width: 1.5; stroke-linejoin: miter"/>
    </defs>
    <g>
     <use xlink:href="#m42a90c091b" x="116.170056" y="242.813793" style="fill: #f5deb3; stroke: #f5deb3; stroke-width: 1.5; stroke-linejoin: miter"/>
     <use xlink:href="#m42a90c091b" x="193.955614" y="139.908414" style="fill: #f5deb3; stroke: #f5deb3; stroke-width: 1.5; stroke-linejoin: miter"/>
     <use xlink:href="#m42a90c091b" x="268.911286" y="74.423172" style="fill: #f5deb3; stroke: #f5deb3; stroke-width: 1.5; stroke-linejoin: miter"/>
     <use xlink:href="#m42a90c091b" x="268.911286" y="60.390621" style="fill: #f5deb3; stroke: #f5deb3; stroke-width: 1.5; stroke-linejoin: miter"/>
     <use xlink:href="#m42a90c091b" x="360.8064" y="60.390621" style="fill: #f5deb3; stroke: #f5deb3; stroke-width: 1.5; stroke-linejoin: miter"/>
    </g>
   </g>
   <g id="line2d_3">
    <path style="fill: none; stroke: #f5deb3; stroke-width: 4; stroke-linecap: square"/>
    <g/>
   </g>
   <g id="line2d_4">
    <path d="M 360.8064 60.390621 
L 380.514816 33.07392 
" style="fill: none; stroke: #f5deb3; stroke-width: 4; stroke-linecap: square"/>
    <g>
     <use xlink:href="#m42a90c091b" x="360.8064" y="60.390621" style="fill: #f5deb3; stroke: #f5deb3; stroke-width: 1.5; stroke-linejoin: miter"/>
     <use xlink:href="#m42a90c091b" x="380.514816" y="33.07392" style="fill: #f5deb3; stroke: #f5deb3; stroke-width: 1.5; stroke-linejoin: miter"/>
    </g>
   </g>
   <g id="matplotlib.axis_1">
    <g id="xtick_1">
     <g id="line2d_5">
      <path d="M 57.6 298.944 
L 57.6 27.648 
" clip-path="url(#p1a0f10f5d5)" style="fill: none; stroke: #b0b0b0; stroke-width: 0.8; stroke-linecap: square"/>
     </g>
     <g id="line2d_6">
      <defs>
       <path id="mdf2dec8f99" d="M 0 0 
L 0 3.5 
" style="stroke: #000000; stroke-width: 0.8"/>
      </defs>
      <g>
       <use xlink:href="#mdf2dec8f99" x="57.6" y="298.944" style="stroke: #000000; stroke-width: 0.8"/>
      </g>
     </g>
     <g id="text_1">
      <!-- 0 -->
      <g transform="translate(52.191875 318.861344) scale(0.17 -0.17)">
       <defs>
        <path id="DejaVuSans-30" d="M 2034 4250 
Q 1547 4250 1301 3770 
Q 1056 3291 1056 2328 
Q 1056 1369 1301 889 
Q 1547 409 2034 409 
Q 2525 409 2770 889 
Q 3016 1369 3016 2328 
Q 3016 3291 2770 3770 
Q 2525 4250 2034 4250 
z
M 2034 4750 
Q 2819 4750 3233 4129 
Q 3647 3509 3647 2328 
Q 3647 1150 3233 529 
Q 2819 -91 2034 -91 
Q 1250 -91 836 529 
Q 422 1150 422 2328 
Q 422 3509 836 4129 
Q 1250 4750 2034 4750 
z
" transform="scale(0.015625)"/>
       </defs>
       <use xlink:href="#DejaVuSans-30"/>
      </g>
     </g>
    </g>
    <g id="xtick_2">
     <g id="line2d_7">
      <path d="M 144.2304 298.944 
L 144.2304 27.648 
" clip-path="url(#p1a0f10f5d5)" style="fill: none; stroke: #b0b0b0; stroke-width: 0.8; stroke-linecap: square"/>
     </g>
     <g id="line2d_8">
      <g>
       <use xlink:href="#mdf2dec8f99" x="144.2304" y="298.944" style="stroke: #000000; stroke-width: 0.8"/>
      </g>
     </g>
     <g id="text_2">
      <!-- 2 -->
      <g transform="translate(138.822275 318.861344) scale(0.17 -0.17)">
       <defs>
        <path id="DejaVuSans-32" d="M 1228 531 
L 3431 531 
L 3431 0 
L 469 0 
L 469 531 
Q 828 903 1448 1529 
Q 2069 2156 2228 2338 
Q 2531 2678 2651 2914 
Q 2772 3150 2772 3378 
Q 2772 3750 2511 3984 
Q 2250 4219 1831 4219 
Q 1534 4219 1204 4116 
Q 875 4013 500 3803 
L 500 4441 
Q 881 4594 1212 4672 
Q 1544 4750 1819 4750 
Q 2544 4750 2975 4387 
Q 3406 4025 3406 3419 
Q 3406 3131 3298 2873 
Q 3191 2616 2906 2266 
Q 2828 2175 2409 1742 
Q 1991 1309 1228 531 
z
" transform="scale(0.015625)"/>
       </defs>
       <use xlink:href="#DejaVuSans-32"/>
      </g>
     </g>
    </g>
    <g id="xtick_3">
     <g id="line2d_9">
      <path d="M 230.8608 298.944 
L 230.8608 27.648 
" clip-path="url(#p1a0f10f5d5)" style="fill: none; stroke: #b0b0b0; stroke-width: 0.8; stroke-linecap: square"/>
     </g>
     <g id="line2d_10">
      <g>
       <use xlink:href="#mdf2dec8f99" x="230.8608" y="298.944" style="stroke: #000000; stroke-width: 0.8"/>
      </g>
     </g>
     <g id="text_3">
      <!-- 4 -->
      <g transform="translate(225.452675 318.861344) scale(0.17 -0.17)">
       <defs>
        <path id="DejaVuSans-34" d="M 2419 4116 
L 825 1625 
L 2419 1625 
L 2419 4116 
z
M 2253 4666 
L 3047 4666 
L 3047 1625 
L 3713 1625 
L 3713 1100 
L 3047 1100 
L 3047 0 
L 2419 0 
L 2419 1100 
L 313 1100 
L 313 1709 
L 2253 4666 
z
" transform="scale(0.015625)"/>
       </defs>
       <use xlink:href="#DejaVuSans-34"/>
      </g>
     </g>
    </g>
    <g id="xtick_4">
     <g id="line2d_11">
      <path d="M 317.4912 298.944 
L 317.4912 27.648 
" clip-path="url(#p1a0f10f5d5)" style="fill: none; stroke: #b0b0b0; stroke-width: 0.8; stroke-linecap: square"/>
     </g>
     <g id="line2d_12">
      <g>
       <use xlink:href="#mdf2dec8f99" x="317.4912" y="298.944" style="stroke: #000000; stroke-width: 0.8"/>
      </g>
     </g>
     <g id="text_4">
      <!-- 6 -->
      <g transform="translate(312.083075 318.861344) scale(0.17 -0.17)">
       <defs>
        <path id="DejaVuSans-36" d="M 2113 2584 
Q 1688 2584 1439 2293 
Q 1191 2003 1191 1497 
Q 1191 994 1439 701 
Q 1688 409 2113 409 
Q 2538 409 2786 701 
Q 3034 994 3034 1497 
Q 3034 2003 2786 2293 
Q 2538 2584 2113 2584 
z
M 3366 4563 
L 3366 3988 
Q 3128 4100 2886 4159 
Q 2644 4219 2406 4219 
Q 1781 4219 1451 3797 
Q 1122 3375 1075 2522 
Q 1259 2794 1537 2939 
Q 1816 3084 2150 3084 
Q 2853 3084 3261 2657 
Q 3669 2231 3669 1497 
Q 3669 778 3244 343 
Q 2819 -91 2113 -91 
Q 1303 -91 875 529 
Q 447 1150 447 2328 
Q 447 3434 972 4092 
Q 1497 4750 2381 4750 
Q 2619 4750 2861 4703 
Q 3103 4656 3366 4563 
z
" transform="scale(0.015625)"/>
       </defs>
       <use xlink:href="#DejaVuSans-36"/>
      </g>
     </g>
    </g>
    <g id="xtick_5">
     <g id="line2d_13">
      <path d="M 100.9152 298.944 
L 100.9152 27.648 
" clip-path="url(#p1a0f10f5d5)" style="fill: none; stroke: #b0b0b0; stroke-width: 0.8; stroke-linecap: square"/>
     </g>
     <g id="line2d_14">
      <defs>
       <path id="m4f4bec2770" d="M 0 0 
L 0 2 
" style="stroke: #000000; stroke-width: 0.6"/>
      </defs>
      <g>
       <use xlink:href="#m4f4bec2770" x="100.9152" y="298.944" style="stroke: #000000; stroke-width: 0.6"/>
      </g>
     </g>
    </g>
    <g id="xtick_6">
     <g id="line2d_15">
      <path d="M 187.5456 298.944 
L 187.5456 27.648 
" clip-path="url(#p1a0f10f5d5)" style="fill: none; stroke: #b0b0b0; stroke-width: 0.8; stroke-linecap: square"/>
     </g>
     <g id="line2d_16">
      <g>
       <use xlink:href="#m4f4bec2770" x="187.5456" y="298.944" style="stroke: #000000; stroke-width: 0.6"/>
      </g>
     </g>
    </g>
    <g id="xtick_7">
     <g id="line2d_17">
      <path d="M 274.176 298.944 
L 274.176 27.648 
" clip-path="url(#p1a0f10f5d5)" style="fill: none; stroke: #b0b0b0; stroke-width: 0.8; stroke-linecap: square"/>
     </g>
     <g id="line2d_18">
      <g>
       <use xlink:href="#m4f4bec2770" x="274.176" y="298.944" style="stroke: #000000; stroke-width: 0.6"/>
      </g>
     </g>
    </g>
    <g id="xtick_8">
     <g id="line2d_19">
      <path d="M 360.8064 298.944 
L 360.8064 27.648 
" clip-path="url(#p1a0f10f5d5)" style="fill: none; stroke: #b0b0b0; stroke-width: 0.8; stroke-linecap: square"/>
     </g>
     <g id="line2d_20">
      <g>
       <use xlink:href="#m4f4bec2770" x="360.8064" y="298.944" style="stroke: #000000; stroke-width: 0.6"/>
      </g>
     </g>
    </g>
    <g id="text_5">
     <!-- log10(# f-evals / dimension) -->
     <g transform="translate(88.823278 339.314156) scale(0.17 -0.17)">
      <defs>
       <path id="DejaVuSans-6c" d="M 603 4863 
L 1178 4863 
L 1178 0 
L 603 0 
L 603 4863 
z
" transform="scale(0.015625)"/>
       <path id="DejaVuSans-6f" d="M 1959 3097 
Q 1497 3097 1228 2736 
Q 959 2375 959 1747 
Q 959 1119 1226 758 
Q 1494 397 1959 397 
Q 2419 397 2687 759 
Q 2956 1122 2956 1747 
Q 2956 2369 2687 2733 
Q 2419 3097 1959 3097 
z
M 1959 3584 
Q 2709 3584 3137 3096 
Q 3566 2609 3566 1747 
Q 3566 888 3137 398 
Q 2709 -91 1959 -91 
Q 1206 -91 779 398 
Q 353 888 353 1747 
Q 353 2609 779 3096 
Q 1206 3584 1959 3584 
z
" transform="scale(0.015625)"/>
       <path id="DejaVuSans-67" d="M 2906 1791 
Q 2906 2416 2648 2759 
Q 2391 3103 1925 3103 
Q 1463 3103 1205 2759 
Q 947 2416 947 1791 
Q 947 1169 1205 825 
Q 1463 481 1925 481 
Q 2391 481 2648 825 
Q 2906 1169 2906 1791 
z
M 3481 434 
Q 3481 -459 3084 -895 
Q 2688 -1331 1869 -1331 
Q 1566 -1331 1297 -1286 
Q 1028 -1241 775 -1147 
L 775 -588 
Q 1028 -725 1275 -790 
Q 1522 -856 1778 -856 
Q 2344 -856 2625 -561 
Q 2906 -266 2906 331 
L 2906 616 
Q 2728 306 2450 153 
Q 2172 0 1784 0 
Q 1141 0 747 490 
Q 353 981 353 1791 
Q 353 2603 747 3093 
Q 1141 3584 1784 3584 
Q 2172 3584 2450 3431 
Q 2728 3278 2906 2969 
L 2906 3500 
L 3481 3500 
L 3481 434 
z
" transform="scale(0.015625)"/>
       <path id="DejaVuSans-31" d="M 794 531 
L 1825 531 
L 1825 4091 
L 703 3866 
L 703 4441 
L 1819 4666 
L 2450 4666 
L 2450 531 
L 3481 531 
L 3481 0 
L 794 0 
L 794 531 
z
" transform="scale(0.015625)"/>
       <path id="DejaVuSans-28" d="M 1984 4856 
Q 1566 4138 1362 3434 
Q 1159 2731 1159 2009 
Q 1159 1288 1364 580 
Q 1569 -128 1984 -844 
L 1484 -844 
Q 1016 -109 783 600 
Q 550 1309 550 2009 
Q 550 2706 781 3412 
Q 1013 4119 1484 4856 
L 1984 4856 
z
" transform="scale(0.015625)"/>
       <path id="DejaVuSans-23" d="M 3272 2816 
L 2363 2816 
L 2100 1772 
L 3016 1772 
L 3272 2816 
z
M 2803 4594 
L 2478 3297 
L 3391 3297 
L 3719 4594 
L 4219 4594 
L 3897 3297 
L 4872 3297 
L 4872 2816 
L 3775 2816 
L 3519 1772 
L 4513 1772 
L 4513 1294 
L 3397 1294 
L 3072 0 
L 2572 0 
L 2894 1294 
L 1978 1294 
L 1656 0 
L 1153 0 
L 1478 1294 
L 494 1294 
L 494 1772 
L 1594 1772 
L 1856 2816 
L 850 2816 
L 850 3297 
L 1978 3297 
L 2297 4594 
L 2803 4594 
z
" transform="scale(0.015625)"/>
       <path id="DejaVuSans-20" transform="scale(0.015625)"/>
       <path id="DejaVuSans-66" d="M 2375 4863 
L 2375 4384 
L 1825 4384 
Q 1516 4384 1395 4259 
Q 1275 4134 1275 3809 
L 1275 3500 
L 2222 3500 
L 2222 3053 
L 1275 3053 
L 1275 0 
L 697 0 
L 697 3053 
L 147 3053 
L 147 3500 
L 697 3500 
L 697 3744 
Q 697 4328 969 4595 
Q 1241 4863 1831 4863 
L 2375 4863 
z
" transform="scale(0.015625)"/>
       <path id="DejaVuSans-2d" d="M 313 2009 
L 1997 2009 
L 1997 1497 
L 313 1497 
L 313 2009 
z
" transform="scale(0.015625)"/>
       <path id="DejaVuSans-65" d="M 3597 1894 
L 3597 1613 
L 953 1613 
Q 991 1019 1311 708 
Q 1631 397 2203 397 
Q 2534 397 2845 478 
Q 3156 559 3463 722 
L 3463 178 
Q 3153 47 2828 -22 
Q 2503 -91 2169 -91 
Q 1331 -91 842 396 
Q 353 884 353 1716 
Q 353 2575 817 3079 
Q 1281 3584 2069 3584 
Q 2775 3584 3186 3129 
Q 3597 2675 3597 1894 
z
M 3022 2063 
Q 3016 2534 2758 2815 
Q 2500 3097 2075 3097 
Q 1594 3097 1305 2825 
Q 1016 2553 972 2059 
L 3022 2063 
z
" transform="scale(0.015625)"/>
       <path id="DejaVuSans-76" d="M 191 3500 
L 800 3500 
L 1894 563 
L 2988 3500 
L 3597 3500 
L 2284 0 
L 1503 0 
L 191 3500 
z
" transform="scale(0.015625)"/>
       <path id="DejaVuSans-61" d="M 2194 1759 
Q 1497 1759 1228 1600 
Q 959 1441 959 1056 
Q 959 750 1161 570 
Q 1363 391 1709 391 
Q 2188 391 2477 730 
Q 2766 1069 2766 1631 
L 2766 1759 
L 2194 1759 
z
M 3341 1997 
L 3341 0 
L 2766 0 
L 2766 531 
Q 2569 213 2275 61 
Q 1981 -91 1556 -91 
Q 1019 -91 701 211 
Q 384 513 384 1019 
Q 384 1609 779 1909 
Q 1175 2209 1959 2209 
L 2766 2209 
L 2766 2266 
Q 2766 2663 2505 2880 
Q 2244 3097 1772 3097 
Q 1472 3097 1187 3025 
Q 903 2953 641 2809 
L 641 3341 
Q 956 3463 1253 3523 
Q 1550 3584 1831 3584 
Q 2591 3584 2966 3190 
Q 3341 2797 3341 1997 
z
" transform="scale(0.015625)"/>
       <path id="DejaVuSans-73" d="M 2834 3397 
L 2834 2853 
Q 2591 2978 2328 3040 
Q 2066 3103 1784 3103 
Q 1356 3103 1142 2972 
Q 928 2841 928 2578 
Q 928 2378 1081 2264 
Q 1234 2150 1697 2047 
L 1894 2003 
Q 2506 1872 2764 1633 
Q 3022 1394 3022 966 
Q 3022 478 2636 193 
Q 2250 -91 1575 -91 
Q 1294 -91 989 -36 
Q 684 19 347 128 
L 347 722 
Q 666 556 975 473 
Q 1284 391 1588 391 
Q 1994 391 2212 530 
Q 2431 669 2431 922 
Q 2431 1156 2273 1281 
Q 2116 1406 1581 1522 
L 1381 1569 
Q 847 1681 609 1914 
Q 372 2147 372 2553 
Q 372 3047 722 3315 
Q 1072 3584 1716 3584 
Q 2034 3584 2315 3537 
Q 2597 3491 2834 3397 
z
" transform="scale(0.015625)"/>
       <path id="DejaVuSans-2f" d="M 1625 4666 
L 2156 4666 
L 531 -594 
L 0 -594 
L 1625 4666 
z
" transform="scale(0.015625)"/>
       <path id="DejaVuSans-64" d="M 2906 2969 
L 2906 4863 
L 3481 4863 
L 3481 0 
L 2906 0 
L 2906 525 
Q 2725 213 2448 61 
Q 2172 -91 1784 -91 
Q 1150 -91 751 415 
Q 353 922 353 1747 
Q 353 2572 751 3078 
Q 1150 3584 1784 3584 
Q 2172 3584 2448 3432 
Q 2725 3281 2906 2969 
z
M 947 1747 
Q 947 1113 1208 752 
Q 1469 391 1925 391 
Q 2381 391 2643 752 
Q 2906 1113 2906 1747 
Q 2906 2381 2643 2742 
Q 2381 3103 1925 3103 
Q 1469 3103 1208 2742 
Q 947 2381 947 1747 
z
" transform="scale(0.015625)"/>
       <path id="DejaVuSans-69" d="M 603 3500 
L 1178 3500 
L 1178 0 
L 603 0 
L 603 3500 
z
M 603 4863 
L 1178 4863 
L 1178 4134 
L 603 4134 
L 603 4863 
z
" transform="scale(0.015625)"/>
       <path id="DejaVuSans-6d" d="M 3328 2828 
Q 3544 3216 3844 3400 
Q 4144 3584 4550 3584 
Q 5097 3584 5394 3201 
Q 5691 2819 5691 2113 
L 5691 0 
L 5113 0 
L 5113 2094 
Q 5113 2597 4934 2840 
Q 4756 3084 4391 3084 
Q 3944 3084 3684 2787 
Q 3425 2491 3425 1978 
L 3425 0 
L 2847 0 
L 2847 2094 
Q 2847 2600 2669 2842 
Q 2491 3084 2119 3084 
Q 1678 3084 1418 2786 
Q 1159 2488 1159 1978 
L 1159 0 
L 581 0 
L 581 3500 
L 1159 3500 
L 1159 2956 
Q 1356 3278 1631 3431 
Q 1906 3584 2284 3584 
Q 2666 3584 2933 3390 
Q 3200 3197 3328 2828 
z
" transform="scale(0.015625)"/>
       <path id="DejaVuSans-6e" d="M 3513 2113 
L 3513 0 
L 2938 0 
L 2938 2094 
Q 2938 2591 2744 2837 
Q 2550 3084 2163 3084 
Q 1697 3084 1428 2787 
Q 1159 2491 1159 1978 
L 1159 0 
L 581 0 
L 581 3500 
L 1159 3500 
L 1159 2956 
Q 1366 3272 1645 3428 
Q 1925 3584 2291 3584 
Q 2894 3584 3203 3211 
Q 3513 2838 3513 2113 
z
" transform="scale(0.015625)"/>
       <path id="DejaVuSans-29" d="M 513 4856 
L 1013 4856 
Q 1481 4119 1714 3412 
Q 1947 2706 1947 2009 
Q 1947 1309 1714 600 
Q 1481 -109 1013 -844 
L 513 -844 
Q 928 -128 1133 580 
Q 1338 1288 1338 2009 
Q 1338 2731 1133 3434 
Q 928 4138 513 4856 
z
" transform="scale(0.015625)"/>
      </defs>
      <use xlink:href="#DejaVuSans-6c"/>
      <use xlink:href="#DejaVuSans-6f" x="27.783203"/>
      <use xlink:href="#DejaVuSans-67" x="88.964844"/>
      <use xlink:href="#DejaVuSans-31" x="152.441406"/>
      <use xlink:href="#DejaVuSans-30" x="216.064453"/>
      <use xlink:href="#DejaVuSans-28" x="279.6875"/>
      <use xlink:href="#DejaVuSans-23" x="318.701172"/>
      <use xlink:href="#DejaVuSans-20" x="402.490234"/>
      <use xlink:href="#DejaVuSans-66" x="434.277344"/>
      <use xlink:href="#DejaVuSans-2d" x="463.982422"/>
      <use xlink:href="#DejaVuSans-65" x="500.066406"/>
      <use xlink:href="#DejaVuSans-76" x="561.589844"/>
      <use xlink:href="#DejaVuSans-61" x="620.769531"/>
      <use xlink:href="#DejaVuSans-6c" x="682.048828"/>
      <use xlink:href="#DejaVuSans-73" x="709.832031"/>
      <use xlink:href="#DejaVuSans-20" x="761.931641"/>
      <use xlink:href="#DejaVuSans-2f" x="793.71875"/>
      <use xlink:href="#DejaVuSans-20" x="827.410156"/>
      <use xlink:href="#DejaVuSans-64" x="859.197266"/>
      <use xlink:href="#DejaVuSans-69" x="922.673828"/>
      <use xlink:href="#DejaVuSans-6d" x="950.457031"/>
      <use xlink:href="#DejaVuSans-65" x="1047.869141"/>
      <use xlink:href="#DejaVuSans-6e" x="1109.392578"/>
      <use xlink:href="#DejaVuSans-73" x="1172.771484"/>
      <use xlink:href="#DejaVuSans-69" x="1224.871094"/>
      <use xlink:href="#DejaVuSans-6f" x="1252.654297"/>
      <use xlink:href="#DejaVuSans-6e" x="1313.835938"/>
      <use xlink:href="#DejaVuSans-29" x="1377.214844"/>
     </g>
    </g>
   </g>
   <g id="matplotlib.axis_2">
    <g id="ytick_1">
     <g id="line2d_21">
      <path d="M 57.6 298.944 
L 360.8064 298.944 
" clip-path="url(#p1a0f10f5d5)" style="fill: none; stroke: #b0b0b0; stroke-width: 0.8; stroke-linecap: square"/>
     </g>
     <g id="line2d_22">
      <defs>
       <path id="m5f422a8f78" d="M 0 0 
L -3.5 0 
" style="stroke: #000000; stroke-width: 0.8"/>
      </defs>
      <g>
       <use xlink:href="#m5f422a8f78" x="57.6" y="298.944" style="stroke: #000000; stroke-width: 0.8"/>
      </g>
     </g>
     <g id="text_6">
      <!-- 0.0 -->
      <g transform="translate(25.155 305.02275) scale(0.16 -0.16)">
       <defs>
        <path id="DejaVuSans-2e" d="M 684 794 
L 1344 794 
L 1344 0 
L 684 0 
L 684 794 
z
" transform="scale(0.015625)"/>
       </defs>
       <use xlink:href="#DejaVuSans-30"/>
       <use xlink:href="#DejaVuSans-2e" x="63.623047"/>
       <use xlink:href="#DejaVuSans-30" x="95.410156"/>
      </g>
     </g>
    </g>
    <g id="ytick_2">
     <g id="line2d_23">
      <path d="M 57.6 244.6848 
L 360.8064 244.6848 
" clip-path="url(#p1a0f10f5d5)" style="fill: none; stroke: #b0b0b0; stroke-width: 0.8; stroke-linecap: square"/>
     </g>
     <g id="line2d_24">
      <g>
       <use xlink:href="#m5f422a8f78" x="57.6" y="244.6848" style="stroke: #000000; stroke-width: 0.8"/>
      </g>
     </g>
     <g id="text_7">
      <!-- 0.2 -->
      <g transform="translate(25.155 250.76355) scale(0.16 -0.16)">
       <use xlink:href="#DejaVuSans-30"/>
       <use xlink:href="#DejaVuSans-2e" x="63.623047"/>
       <use xlink:href="#DejaVuSans-32" x="95.410156"/>
      </g>
     </g>
    </g>
    <g id="ytick_3">
     <g id="line2d_25">
      <path d="M 57.6 190.4256 
L 360.8064 190.4256 
" clip-path="url(#p1a0f10f5d5)" style="fill: none; stroke: #b0b0b0; stroke-width: 0.8; stroke-linecap: square"/>
     </g>
     <g id="line2d_26">
      <g>
       <use xlink:href="#m5f422a8f78" x="57.6" y="190.4256" style="stroke: #000000; stroke-width: 0.8"/>
      </g>
     </g>
     <g id="text_8">
      <!-- 0.4 -->
      <g transform="translate(25.155 196.50435) scale(0.16 -0.16)">
       <use xlink:href="#DejaVuSans-30"/>
       <use xlink:href="#DejaVuSans-2e" x="63.623047"/>
       <use xlink:href="#DejaVuSans-34" x="95.410156"/>
      </g>
     </g>
    </g>
    <g id="ytick_4">
     <g id="line2d_27">
      <path d="M 57.6 136.1664 
L 360.8064 136.1664 
" clip-path="url(#p1a0f10f5d5)" style="fill: none; stroke: #b0b0b0; stroke-width: 0.8; stroke-linecap: square"/>
     </g>
     <g id="line2d_28">
      <g>
       <use xlink:href="#m5f422a8f78" x="57.6" y="136.1664" style="stroke: #000000; stroke-width: 0.8"/>
      </g>
     </g>
     <g id="text_9">
      <!-- 0.6 -->
      <g transform="translate(25.155 142.24515) scale(0.16 -0.16)">
       <use xlink:href="#DejaVuSans-30"/>
       <use xlink:href="#DejaVuSans-2e" x="63.623047"/>
       <use xlink:href="#DejaVuSans-36" x="95.410156"/>
      </g>
     </g>
    </g>
    <g id="ytick_5">
     <g id="line2d_29">
      <path d="M 57.6 81.9072 
L 360.8064 81.9072 
" clip-path="url(#p1a0f10f5d5)" style="fill: none; stroke: #b0b0b0; stroke-width: 0.8; stroke-linecap: square"/>
     </g>
     <g id="line2d_30">
      <g>
       <use xlink:href="#m5f422a8f78" x="57.6" y="81.9072" style="stroke: #000000; stroke-width: 0.8"/>
      </g>
     </g>
     <g id="text_10">
      <!-- 0.8 -->
      <g transform="translate(25.155 87.98595) scale(0.16 -0.16)">
       <defs>
        <path id="DejaVuSans-38" d="M 2034 2216 
Q 1584 2216 1326 1975 
Q 1069 1734 1069 1313 
Q 1069 891 1326 650 
Q 1584 409 2034 409 
Q 2484 409 2743 651 
Q 3003 894 3003 1313 
Q 3003 1734 2745 1975 
Q 2488 2216 2034 2216 
z
M 1403 2484 
Q 997 2584 770 2862 
Q 544 3141 544 3541 
Q 544 4100 942 4425 
Q 1341 4750 2034 4750 
Q 2731 4750 3128 4425 
Q 3525 4100 3525 3541 
Q 3525 3141 3298 2862 
Q 3072 2584 2669 2484 
Q 3125 2378 3379 2068 
Q 3634 1759 3634 1313 
Q 3634 634 3220 271 
Q 2806 -91 2034 -91 
Q 1263 -91 848 271 
Q 434 634 434 1313 
Q 434 1759 690 2068 
Q 947 2378 1403 2484 
z
M 1172 3481 
Q 1172 3119 1398 2916 
Q 1625 2713 2034 2713 
Q 2441 2713 2670 2916 
Q 2900 3119 2900 3481 
Q 2900 3844 2670 4047 
Q 2441 4250 2034 4250 
Q 1625 4250 1398 4047 
Q 1172 3844 1172 3481 
z
" transform="scale(0.015625)"/>
       </defs>
       <use xlink:href="#DejaVuSans-30"/>
       <use xlink:href="#DejaVuSans-2e" x="63.623047"/>
       <use xlink:href="#DejaVuSans-38" x="95.410156"/>
      </g>
     </g>
    </g>
    <g id="ytick_6">
     <g id="line2d_31">
      <path d="M 57.6 27.648 
L 360.8064 27.648 
" clip-path="url(#p1a0f10f5d5)" style="fill: none; stroke: #b0b0b0; stroke-width: 0.8; stroke-linecap: square"/>
     </g>
     <g id="line2d_32">
      <g>
       <use xlink:href="#m5f422a8f78" x="57.6" y="27.648" style="stroke: #000000; stroke-width: 0.8"/>
      </g>
     </g>
     <g id="text_11">
      <!-- 1.0 -->
      <g transform="translate(25.155 33.72675) scale(0.16 -0.16)">
       <use xlink:href="#DejaVuSans-31"/>
       <use xlink:href="#DejaVuSans-2e" x="63.623047"/>
       <use xlink:href="#DejaVuSans-30" x="95.410156"/>
      </g>
     </g>
    </g>
    <g id="text_12">
     <!-- Fraction of function,target pairs -->
     <g transform="translate(17.619531 297.681) rotate(-90) scale(0.17 -0.17)">
      <defs>
       <path id="DejaVuSans-46" d="M 628 4666 
L 3309 4666 
L 3309 4134 
L 1259 4134 
L 1259 2759 
L 3109 2759 
L 3109 2228 
L 1259 2228 
L 1259 0 
L 628 0 
L 628 4666 
z
" transform="scale(0.015625)"/>
       <path id="DejaVuSans-72" d="M 2631 2963 
Q 2534 3019 2420 3045 
Q 2306 3072 2169 3072 
Q 1681 3072 1420 2755 
Q 1159 2438 1159 1844 
L 1159 0 
L 581 0 
L 581 3500 
L 1159 3500 
L 1159 2956 
Q 1341 3275 1631 3429 
Q 1922 3584 2338 3584 
Q 2397 3584 2469 3576 
Q 2541 3569 2628 3553 
L 2631 2963 
z
" transform="scale(0.015625)"/>
       <path id="DejaVuSans-63" d="M 3122 3366 
L 3122 2828 
Q 2878 2963 2633 3030 
Q 2388 3097 2138 3097 
Q 1578 3097 1268 2742 
Q 959 2388 959 1747 
Q 959 1106 1268 751 
Q 1578 397 2138 397 
Q 2388 397 2633 464 
Q 2878 531 3122 666 
L 3122 134 
Q 2881 22 2623 -34 
Q 2366 -91 2075 -91 
Q 1284 -91 818 406 
Q 353 903 353 1747 
Q 353 2603 823 3093 
Q 1294 3584 2113 3584 
Q 2378 3584 2631 3529 
Q 2884 3475 3122 3366 
z
" transform="scale(0.015625)"/>
       <path id="DejaVuSans-74" d="M 1172 4494 
L 1172 3500 
L 2356 3500 
L 2356 3053 
L 1172 3053 
L 1172 1153 
Q 1172 725 1289 603 
Q 1406 481 1766 481 
L 2356 481 
L 2356 0 
L 1766 0 
Q 1100 0 847 248 
Q 594 497 594 1153 
L 594 3053 
L 172 3053 
L 172 3500 
L 594 3500 
L 594 4494 
L 1172 4494 
z
" transform="scale(0.015625)"/>
       <path id="DejaVuSans-75" d="M 544 1381 
L 544 3500 
L 1119 3500 
L 1119 1403 
Q 1119 906 1312 657 
Q 1506 409 1894 409 
Q 2359 409 2629 706 
Q 2900 1003 2900 1516 
L 2900 3500 
L 3475 3500 
L 3475 0 
L 2900 0 
L 2900 538 
Q 2691 219 2414 64 
Q 2138 -91 1772 -91 
Q 1169 -91 856 284 
Q 544 659 544 1381 
z
M 1991 3584 
L 1991 3584 
z
" transform="scale(0.015625)"/>
       <path id="DejaVuSans-2c" d="M 750 794 
L 1409 794 
L 1409 256 
L 897 -744 
L 494 -744 
L 750 256 
L 750 794 
z
" transform="scale(0.015625)"/>
       <path id="DejaVuSans-70" d="M 1159 525 
L 1159 -1331 
L 581 -1331 
L 581 3500 
L 1159 3500 
L 1159 2969 
Q 1341 3281 1617 3432 
Q 1894 3584 2278 3584 
Q 2916 3584 3314 3078 
Q 3713 2572 3713 1747 
Q 3713 922 3314 415 
Q 2916 -91 2278 -91 
Q 1894 -91 1617 61 
Q 1341 213 1159 525 
z
M 3116 1747 
Q 3116 2381 2855 2742 
Q 2594 3103 2138 3103 
Q 1681 3103 1420 2742 
Q 1159 2381 1159 1747 
Q 1159 1113 1420 752 
Q 1681 391 2138 391 
Q 2594 391 2855 752 
Q 3116 1113 3116 1747 
z
" transform="scale(0.015625)"/>
      </defs>
      <use xlink:href="#DejaVuSans-46"/>
      <use xlink:href="#DejaVuSans-72" x="50.269531"/>
      <use xlink:href="#DejaVuSans-61" x="91.382812"/>
      <use xlink:href="#DejaVuSans-63" x="152.662109"/>
      <use xlink:href="#DejaVuSans-74" x="207.642578"/>
      <use xlink:href="#DejaVuSans-69" x="246.851562"/>
      <use xlink:href="#DejaVuSans-6f" x="274.634766"/>
      <use xlink:href="#DejaVuSans-6e" x="335.816406"/>
      <use xlink:href="#DejaVuSans-20" x="399.195312"/>
      <use xlink:href="#DejaVuSans-6f" x="430.982422"/>
      <use xlink:href="#DejaVuSans-66" x="492.164062"/>
      <use xlink:href="#DejaVuSans-20" x="527.369141"/>
      <use xlink:href="#DejaVuSans-66" x="559.15625"/>
      <use xlink:href="#DejaVuSans-75" x="594.361328"/>
      <use xlink:href="#DejaVuSans-6e" x="657.740234"/>
      <use xlink:href="#DejaVuSans-63" x="721.119141"/>
      <use xlink:href="#DejaVuSans-74" x="776.099609"/>
      <use xlink:href="#DejaVuSans-69" x="815.308594"/>
      <use xlink:href="#DejaVuSans-6f" x="843.091797"/>
      <use xlink:href="#DejaVuSans-6e" x="904.273438"/>
      <use xlink:href="#DejaVuSans-2c" x="967.652344"/>
      <use xlink:href="#DejaVuSans-74" x="999.439453"/>
      <use xlink:href="#DejaVuSans-61" x="1038.648438"/>
      <use xlink:href="#DejaVuSans-72" x="1099.927734"/>
      <use xlink:href="#DejaVuSans-67" x="1139.291016"/>
      <use xlink:href="#DejaVuSans-65" x="1202.767578"/>
      <use xlink:href="#DejaVuSans-74" x="1264.291016"/>
      <use xlink:href="#DejaVuSans-20" x="1303.5"/>
      <use xlink:href="#DejaVuSans-70" x="1335.287109"/>
      <use xlink:href="#DejaVuSans-61" x="1398.763672"/>
      <use xlink:href="#DejaVuSans-69" x="1460.042969"/>
      <use xlink:href="#DejaVuSans-72" x="1487.826172"/>
      <use xlink:href="#DejaVuSans-73" x="1528.939453"/>
     </g>
    </g>
   </g>
   <g id="line2d_33">
    <defs>
     <path id="m32da4cc94d" d="M 0 1.5 
C 0.397805 1.5 0.77937 1.341951 1.06066 1.06066 
C 1.341951 0.77937 1.5 0.397805 1.5 0 
C 1.5 -0.397805 1.341951 -0.77937 1.06066 -1.06066 
C 0.77937 -1.341951 0.397805 -1.5 0 -1.5 
C -0.397805 -1.5 -0.77937 -1.341951 -1.06066 -1.06066 
C -1.341951 -0.77937 -1.5 -0.397805 -1.5 0 
C -1.5 0.397805 -1.341951 0.77937 -1.06066 1.06066 
C -0.77937 1.341951 -0.397805 1.5 0 1.5 
z
" style="stroke: #f5deb3"/>
    </defs>
    <g>
     <use xlink:href="#m32da4cc94d" x="268.911286" y="60.390621" style="fill: #f5deb3; stroke: #f5deb3"/>
     <use xlink:href="#m32da4cc94d" x="268.911286" y="60.390621" style="fill: #f5deb3; stroke: #f5deb3"/>
    </g>
   </g>
   <g id="line2d_34">
    <defs>
     <path id="m0d02e4c2c0" d="M 0 1.5 
C 0.397805 1.5 0.77937 1.341951 1.06066 1.06066 
C 1.341951 0.77937 1.5 0.397805 1.5 0 
C 1.5 -0.397805 1.341951 -0.77937 1.06066 -1.06066 
C 0.77937 -1.341951 0.397805 -1.5 0 -1.5 
C -0.397805 -1.5 -0.77937 -1.341951 -1.06066 -1.06066 
C -1.341951 -0.77937 -1.5 -0.397805 -1.5 0 
C -1.5 0.397805 -1.341951 0.77937 -1.06066 1.06066 
C -0.77937 1.341951 -0.397805 1.5 0 1.5 
z
" style="stroke: #000080"/>
    </defs>
    <g>
     <use xlink:href="#m0d02e4c2c0" x="210.762112" y="125.40811" style="fill: #000080; stroke: #000080"/>
     <use xlink:href="#m0d02e4c2c0" x="210.762112" y="125.40811" style="fill: #000080; stroke: #000080"/>
    </g>
   </g>
   <g id="line2d_35">
    <path d="M 44.560826 298.944 
L 44.560826 283.975945 
L 57.6 283.975945 
L 57.6 283.508193 
L 65.227428 283.508193 
L 65.227428 279.766179 
L 70.639174 279.766179 
L 70.639174 278.362924 
L 74.836851 278.362924 
L 74.836851 276.491917 
L 78.266603 276.491917 
L 78.266603 269.943393 
L 81.166416 269.943393 
L 81.166416 268.072386 
L 83.678349 268.072386 
L 83.678349 267.136883 
L 85.894031 267.136883 
L 85.894031 265.265876 
L 89.668958 265.265876 
L 89.668958 264.798124 
L 91.305777 264.798124 
L 91.305777 264.330372 
L 92.811505 264.330372 
L 92.811505 263.394869 
L 94.205591 263.394869 
L 94.205591 261.05611 
L 95.503454 261.05611 
L 95.503454 259.185103 
L 97.857967 259.185103 
L 97.857967 257.781848 
L 100.9152 257.781848 
L 100.9152 256.846345 
L 101.833019 256.846345 
L 101.833019 255.910841 
L 103.544339 255.910841 
L 103.544339 254.975338 
L 104.344952 254.975338 
L 104.344952 254.039834 
L 105.112877 254.039834 
L 105.112877 253.104331 
L 105.850679 253.104331 
L 105.850679 252.636579 
L 107.904887 252.636579 
L 107.904887 249.362317 
L 109.159456 249.362317 
L 109.159456 248.894566 
L 109.756698 248.894566 
L 109.756698 247.959062 
L 112.487797 247.959062 
L 112.487797 247.023559 
L 112.989468 247.023559 
L 112.989468 246.088055 
L 113.954374 246.088055 
L 113.954374 244.6848 
L 116.988079 244.6848 
L 116.988079 242.813793 
L 118.889854 242.813793 
L 118.889854 241.87829 
L 119.944983 241.87829 
L 119.944983 240.007283 
L 120.28394 240.007283 
L 120.28394 239.539531 
L 120.944062 239.539531 
L 120.944062 239.071779 
L 121.265635 239.071779 
L 121.265635 238.604028 
L 121.892744 238.604028 
L 121.892744 238.136276 
L 122.795872 238.136276 
L 122.795872 237.668524 
L 123.374735 237.668524 
L 123.374735 236.733021 
L 124.210942 236.733021 
L 124.210942 236.265269 
L 124.481616 236.265269 
L 124.481616 235.329766 
L 124.748451 235.329766 
L 124.748451 234.394262 
L 126.274549 234.394262 
L 126.274549 232.523255 
L 126.517282 232.523255 
L 126.517282 231.587752 
L 128.354013 231.587752 
L 128.354013 230.652248 
L 128.57149 230.652248 
L 128.57149 229.716745 
L 130.618241 229.716745 
L 130.618241 228.781241 
L 131.563744 228.781241 
L 131.563744 227.845738 
L 132.109044 227.845738 
L 132.109044 227.377986 
L 132.638982 227.377986 
L 132.638982 226.910234 
L 132.812362 226.910234 
L 132.812362 226.442483 
L 134.463557 226.442483 
L 134.463557 225.506979 
L 135.237805 225.506979 
L 135.237805 225.039228 
L 135.687504 225.039228 
L 135.687504 224.103724 
L 137.113304 224.103724 
L 137.113304 223.168221 
L 137.520791 223.168221 
L 137.520791 222.700469 
L 137.787626 222.700469 
L 137.787626 221.764966 
L 138.180913 221.764966 
L 138.180913 221.297214 
L 138.566146 221.297214 
L 138.566146 220.36171 
L 140.725251 220.36171 
L 140.725251 219.426207 
L 141.173167 219.426207 
L 141.173167 218.490703 
L 142.763822 218.490703 
L 142.865233 217.5552 
L 142.966099 217.5552 
L 142.966099 217.087448 
L 143.657415 217.087448 
L 143.657415 216.151945 
L 144.602918 216.151945 
L 144.602918 215.684193 
L 145.590864 215.684193 
L 145.590864 215.216441 
L 147.343984 215.216441 
L 147.343984 212.877683 
L 148.124658 212.877683 
L 148.200973 211.474428 
L 149.238092 211.474428 
L 149.238092 210.538924 
L 150.559965 210.538924 
L 150.559965 209.135669 
L 151.349377 209.135669 
L 151.349377 208.200166 
L 151.477784 208.200166 
L 151.477784 207.732414 
L 151.731998 207.732414 
L 151.731998 207.264662 
L 151.920429 207.264662 
L 151.920429 206.79691 
L 152.291722 206.79691 
L 152.291722 206.329159 
L 152.53524 206.329159 
L 152.53524 205.861407 
L 153.707679 205.861407 
L 153.707679 204.925903 
L 153.989717 204.925903 
L 153.989717 203.9904 
L 154.377597 203.9904 
L 154.377597 203.522648 
L 155.024477 203.522648 
L 155.024477 203.054897 
L 155.339761 203.054897 
L 155.339761 202.587145 
L 155.495444 202.587145 
L 155.495444 201.651641 
L 155.649849 201.651641 
L 155.649849 200.716138 
L 155.954908 200.716138 
L 155.954908 200.248386 
L 156.403417 200.248386 
L 156.403417 199.780634 
L 156.599372 199.780634 
L 156.599372 199.312883 
L 157.032948 199.312883 
L 157.032948 198.845131 
L 157.916719 198.845131 
L 157.916719 198.377379 
L 158.410018 198.377379 
L 158.410018 197.909628 
L 159.019705 197.909628 
L 159.019705 196.974124 
L 159.190332 196.974124 
L 159.190332 196.506372 
L 159.568678 196.506372 
L 159.568678 196.038621 
L 159.775628 196.038621 
L 159.775628 195.570869 
L 159.980326 195.570869 
L 159.980326 195.103117 
L 160.777545 195.103117 
L 160.777545 194.635366 
L 161.240147 194.635366 
L 161.240147 194.167614 
L 161.42959 194.167614 
L 161.42959 192.296607 
L 162.420867 192.296607 
L 162.420867 189.490097 
L 162.915008 189.490097 
L 162.915008 188.554593 
L 163.294355 188.554593 
L 163.294355 188.086841 
L 164.2268 188.086841 
L 164.324018 187.151338 
L 164.739583 187.151338 
L 164.739583 186.683586 
L 165.238758 186.683586 
L 165.238758 186.215834 
L 165.45305 186.215834 
L 165.45305 185.748083 
L 165.574415 185.748083 
L 165.574415 185.280331 
L 165.695002 185.280331 
L 165.755007 182.941572 
L 165.993131 182.941572 
L 165.993131 182.473821 
L 166.140442 182.473821 
L 166.140442 182.006069 
L 166.746854 182.006069 
L 166.746854 181.538317 
L 166.860176 181.538317 
L 166.860176 181.070566 
L 167.334325 181.070566 
L 167.334325 180.602814 
L 168.508761 180.602814 
L 168.508761 179.66731 
L 169.044448 179.66731 
L 169.044448 179.199559 
L 169.219673 179.199559 
L 169.319074 177.328552 
L 169.711507 177.328552 
L 169.711507 176.393048 
L 171.001277 176.393048 
L 171.001277 175.925297 
L 171.159263 175.925297 
L 171.159263 175.457545 
L 171.647326 175.457545 
L 171.647326 174.522041 
L 171.9083 174.522041 
L 171.9083 174.05429 
L 172.250727 174.05429 
L 172.271923 173.118786 
L 173.0195 173.118786 
L 173.12102 172.183283 
L 173.28232 172.183283 
L 173.28232 171.247779 
L 173.933441 171.247779 
L 173.933441 170.780028 
L 174.049442 170.780028 
L 174.049442 170.312276 
L 174.412132 170.312276 
L 174.412132 169.844524 
L 174.95257 169.844524 
L 174.95257 169.376772 
L 175.280369 169.376772 
L 175.280369 168.909021 
L 175.831859 168.909021 
L 175.831859 167.973517 
L 175.954182 167.973517 
L 175.954182 167.038014 
L 176.213656 167.038014 
L 176.213656 166.10251 
L 176.537267 166.10251 
L 176.537267 165.634759 
L 177.151915 165.634759 
L 177.151915 165.167007 
L 177.620009 165.167007 
L 177.620009 164.231503 
L 177.967504 164.231503 
L 177.967504 163.763752 
L 178.277932 163.763752 
L 178.277932 163.296 
L 178.809153 163.296 
L 178.883832 162.360497 
L 178.943362 162.360497 
L 178.943362 161.892745 
L 179.700586 161.892745 
L 179.743355 160.957241 
L 179.899351 160.957241 
L 179.927575 159.086234 
L 180.054064 159.086234 
L 180.054064 158.618483 
L 180.889661 158.618483 
L 180.889661 157.682979 
L 181.313602 157.682979 
L 181.313602 157.215228 
L 181.830435 157.215228 
L 181.919439 155.811972 
L 182.677721 155.811972 
L 182.677721 155.344221 
L 183.08747 155.344221 
L 183.08747 154.876469 
L 183.300836 154.876469 
L 183.300836 154.408717 
L 183.628001 154.408717 
L 183.628001 153.940966 
L 184.05178 153.940966 
L 184.05178 153.005462 
L 184.254541 153.005462 
L 184.254541 152.53771 
L 184.432957 152.53771 
L 184.432957 152.069959 
L 185.864265 152.069959 
L 185.864265 151.602207 
L 186.139934 151.602207 
L 186.139934 151.134455 
L 186.301408 151.134455 
L 186.301408 150.666703 
L 186.640005 150.666703 
L 186.640005 150.198952 
L 187.432391 150.198952 
L 187.432391 149.7312 
L 187.68616 149.7312 
L 187.68616 148.795697 
L 188.561698 148.795697 
L 188.561698 148.327945 
L 189.010767 148.327945 
L 189.036852 147.392441 
L 189.567996 147.392441 
L 189.567996 146.92469 
L 189.744553 146.92469 
L 189.744553 145.989186 
L 190.667153 145.989186 
L 190.667153 145.521434 
L 191.147005 145.521434 
L 191.147005 144.585931 
L 191.370909 144.585931 
L 191.370909 144.118179 
L 191.773351 144.118179 
L 191.870762 142.714924 
L 192.152644 142.714924 
L 192.211453 140.843917 
L 192.415849 140.843917 
L 192.415849 139.908414 
L 192.973799 139.908414 
L 192.973799 139.440662 
L 193.787622 139.440662 
L 193.787622 138.505159 
L 194.88235 138.505159 
L 194.88235 137.569655 
L 195.235629 137.569655 
L 195.30425 136.634152 
L 195.820172 136.634152 
L 195.85044 135.230897 
L 196.498461 135.230897 
L 196.568458 134.295393 
L 196.736549 134.295393 
L 196.736549 133.827641 
L 197.045598 133.827641 
L 197.045598 133.35989 
L 197.327298 133.35989 
L 197.327298 132.424386 
L 198.035181 132.424386 
L 198.035181 131.956634 
L 198.898296 131.956634 
L 198.898296 131.488883 
L 199.669307 131.488883 
L 199.669307 131.021131 
L 200.598878 131.021131 
L 200.598878 130.553379 
L 200.892632 130.553379 
L 200.892632 130.085628 
L 201.200085 130.085628 
L 201.200085 129.617876 
L 201.707504 129.617876 
L 201.707504 129.150124 
L 202.912988 129.150124 
L 202.991776 128.214621 
L 203.670439 128.214621 
L 203.670439 127.746869 
L 204.390886 127.746869 
L 204.390886 127.279117 
L 206.005924 127.279117 
L 206.005924 126.343614 
L 208.102147 126.343614 
L 208.102147 125.875862 
L 210.762112 125.875862 
L 210.762112 125.40811 
L 360.8064 125.40811 
L 360.8064 125.40811 
" style="fill: none; stroke: #000080; stroke-width: 1.5; stroke-linecap: square"/>
   </g>
   <g id="line2d_36">
    <defs>
     <path id="m44c9025ed5" d="M 0 6 
C 1.591219 6 3.117479 5.367802 4.242641 4.242641 
C 5.367802 3.117479 6 1.591219 6 0 
C 6 -1.591219 5.367802 -3.117479 4.242641 -4.242641 
C 3.117479 -5.367802 1.591219 -6 0 -6 
C -1.591219 -6 -3.117479 -5.367802 -4.242641 -4.242641 
C -5.367802 -3.117479 -6 -1.591219 -6 0 
C -6 1.591219 -5.367802 3.117479 -4.242641 4.242641 
C -3.117479 5.367802 -1.591219 6 0 6 
z
" style="stroke: #000080; stroke-width: 1.5"/>
    </defs>
    <g>
     <use xlink:href="#m44c9025ed5" x="105.850679" y="252.636579" style="fill-opacity: 0; stroke: #000080; stroke-width: 1.5"/>
     <use xlink:href="#m44c9025ed5" x="161.42959" y="192.296607" style="fill-opacity: 0; stroke: #000080; stroke-width: 1.5"/>
     <use xlink:href="#m44c9025ed5" x="196.498461" y="135.230897" style="fill-opacity: 0; stroke: #000080; stroke-width: 1.5"/>
     <use xlink:href="#m44c9025ed5" x="210.762112" y="125.40811" style="fill-opacity: 0; stroke: #000080; stroke-width: 1.5"/>
     <use xlink:href="#m44c9025ed5" x="210.762112" y="125.40811" style="fill-opacity: 0; stroke: #000080; stroke-width: 1.5"/>
     <use xlink:href="#m44c9025ed5" x="360.8064" y="125.40811" style="fill-opacity: 0; stroke: #000080; stroke-width: 1.5"/>
    </g>
   </g>
   <g id="line2d_37">
    <path style="fill: none; stroke: #000080; stroke-width: 1.5; stroke-linecap: square"/>
    <g/>
   </g>
   <g id="line2d_38">
    <path d="M 230.870203 125.40811 
" clip-path="url(#p1a0f10f5d5)" style="fill: none; stroke: #000080; stroke-width: 1.5; stroke-linecap: square"/>
    <defs>
     <path id="md59462df9c" d="M -12 12 
L 12 -12 
M -12 -12 
L 12 12 
" style="stroke: #000080"/>
    </defs>
    <g clip-path="url(#p1a0f10f5d5)">
     <use xlink:href="#md59462df9c" x="230.870203" y="125.40811" style="fill: #000080; stroke: #000080"/>
    </g>
   </g>
   <g id="line2d_39">
    <defs>
     <path id="m84392d787b" d="M 0 1.5 
C 0.397805 1.5 0.77937 1.341951 1.06066 1.06066 
C 1.341951 0.77937 1.5 0.397805 1.5 0 
C 1.5 -0.397805 1.341951 -0.77937 1.06066 -1.06066 
C 0.77937 -1.341951 0.397805 -1.5 0 -1.5 
C -0.397805 -1.5 -0.77937 -1.341951 -1.06066 -1.06066 
C -1.341951 -0.77937 -1.5 -0.397805 -1.5 0 
C -1.5 0.397805 -1.341951 0.77937 -1.06066 1.06066 
C -0.77937 1.341951 -0.397805 1.5 0 1.5 
z
" style="stroke: #ff00ff"/>
    </defs>
    <g>
     <use xlink:href="#m84392d787b" x="196.381218" y="139.908414" style="fill: #ff00ff; stroke: #ff00ff"/>
     <use xlink:href="#m84392d787b" x="196.381218" y="139.908414" style="fill: #ff00ff; stroke: #ff00ff"/>
    </g>
   </g>
   <g id="line2d_40">
    <path d="M 44.560826 298.944 
L 44.560826 283.975945 
L 57.6 283.975945 
L 57.6 281.637186 
L 65.227428 281.637186 
L 65.227428 281.169434 
L 70.639174 281.169434 
L 70.639174 279.298428 
L 74.836851 279.298428 
L 74.836851 278.830676 
L 81.166416 278.830676 
L 81.166416 276.491917 
L 87.876026 276.491917 
L 87.876026 272.749903 
L 89.668958 272.749903 
L 89.668958 269.00789 
L 91.305777 269.00789 
L 91.305777 267.136883 
L 98.933205 267.136883 
L 98.933205 266.201379 
L 102.708132 266.201379 
L 102.708132 265.733628 
L 104.344952 265.733628 
L 104.344952 265.265876 
L 105.112877 265.265876 
L 105.112877 264.798124 
L 105.850679 264.798124 
L 105.850679 262.459366 
L 106.560633 262.459366 
L 106.560633 261.05611 
L 107.244765 261.05611 
L 107.244765 260.588359 
L 109.159456 260.588359 
L 109.159456 260.120607 
L 109.756698 260.120607 
L 109.756698 259.652855 
L 110.335561 259.652855 
L 110.335561 259.185103 
L 111.442442 259.185103 
L 111.442442 256.378593 
L 112.487797 256.378593 
L 112.487797 254.039834 
L 112.989468 254.039834 
L 112.989468 250.765572 
L 113.478107 250.765572 
L 113.478107 247.49131 
L 114.418881 247.49131 
L 114.418881 247.023559 
L 114.872193 247.023559 
L 114.872193 246.088055 
L 116.988079 246.088055 
L 116.988079 245.620303 
L 117.384126 245.620303 
L 117.384126 241.87829 
L 117.772007 241.87829 
L 117.772007 240.942786 
L 120.944062 240.942786 
L 120.944062 240.475034 
L 121.892744 240.475034 
L 121.892744 239.539531 
L 122.795872 239.539531 
L 122.795872 238.604028 
L 124.210942 238.604028 
L 124.210942 237.668524 
L 125.271028 237.668524 
L 125.271028 237.200772 
L 125.526971 237.200772 
L 125.526971 236.265269 
L 126.028642 236.265269 
L 126.028642 233.92651 
L 127.686077 233.92651 
L 127.686077 232.523255 
L 128.786481 232.523255 
L 128.786481 231.587752 
L 129.622688 231.587752 
L 129.622688 231.12 
L 129.826058 231.12 
L 129.826058 227.845738 
L 130.4233 227.845738 
L 130.4233 227.377986 
L 130.811181 227.377986 
L 130.811181 226.442483 
L 131.191226 226.442483 
L 131.191226 225.506979 
L 131.378407 225.506979 
L 131.378407 225.039228 
L 133.154399 225.039228 
L 133.154399 224.103724 
L 133.490329 224.103724 
L 133.490329 222.232717 
L 133.820365 222.232717 
L 133.820365 221.297214 
L 133.983236 221.297214 
L 133.983236 220.36171 
L 135.388902 220.36171 
L 135.388902 219.893959 
L 135.687504 219.893959 
L 135.687504 218.958455 
L 136.126705 218.958455 
L 136.126705 218.022952 
L 136.836659 218.022952 
L 136.836659 217.087448 
L 137.250116 217.087448 
L 137.250116 216.151945 
L 137.654681 216.151945 
L 137.654681 215.684193 
L 137.919637 215.684193 
L 137.919637 214.74869 
L 138.050729 214.74869 
L 138.050729 213.813186 
L 138.310202 213.813186 
L 138.310202 212.877683 
L 139.067817 212.877683 
L 139.067817 212.409931 
L 140.032723 212.409931 
L 140.032723 211.942179 
L 140.382174 211.942179 
L 140.382174 211.474428 
L 140.611586 211.474428 
L 140.611586 210.538924 
L 140.725251 210.538924 
L 140.725251 209.603421 
L 140.950542 209.603421 
L 140.950542 208.667917 
L 142.352625 208.667917 
L 142.352625 208.200166 
L 142.559347 208.200166 
L 142.559347 207.732414 
L 143.265494 207.732414 
L 143.265494 206.79691 
L 144.602918 206.79691 
L 144.694906 205.861407 
L 144.877544 205.861407 
L 144.968202 204.458152 
L 145.415054 204.458152 
L 145.415054 203.9904 
L 146.777571 203.9904 
L 146.777571 203.522648 
L 146.941151 203.522648 
L 146.941151 203.054897 
L 147.816265 203.054897 
L 147.893838 201.18389 
L 148.352679 201.18389 
L 148.352679 200.716138 
L 149.093387 200.716138 
L 149.093387 199.780634 
L 149.238092 199.780634 
L 149.238092 199.312883 
L 149.73597 199.312883 
L 149.73597 197.909628 
L 150.014665 197.909628 
L 150.014665 196.974124 
L 150.693856 196.974124 
L 150.693856 196.506372 
L 151.41369 196.506372 
L 151.477784 195.570869 
L 151.54166 195.570869 
L 151.54166 195.103117 
L 152.106991 195.103117 
L 152.16877 194.167614 
L 152.715833 194.167614 
L 152.715833 193.23211 
L 153.650761 193.23211 
L 153.707679 191.828855 
L 155.077392 191.828855 
L 155.13016 189.490097 
L 156.055505 189.490097 
L 156.055505 189.022345 
L 156.696589 189.022345 
L 156.696589 187.61909 
L 156.937458 187.61909 
L 156.937458 187.151338 
L 157.080512 187.151338 
L 157.080512 186.215834 
L 157.363398 186.215834 
L 157.363398 185.280331 
L 157.962102 185.280331 
L 157.962102 184.812579 
L 158.14255 184.812579 
L 158.14255 184.344828 
L 158.933807 184.344828 
L 159.019705 182.941572 
L 159.568678 182.941572 
L 159.568678 182.473821 
L 159.775628 182.473821 
L 159.775628 182.006069 
L 160.020999 182.006069 
L 160.061585 181.070566 
L 160.383158 181.070566 
L 160.383158 180.135062 
L 160.97168 180.135062 
L 160.97168 179.199559 
L 161.839769 179.199559 
L 161.839769 178.731807 
L 162.984551 178.731807 
L 163.053839 177.796303 
L 163.3965 177.796303 
L 163.3965 177.328552 
L 164.516958 177.328552 
L 164.516958 176.393048 
L 164.739583 176.393048 
L 164.739583 175.925297 
L 164.897003 175.925297 
L 164.897003 174.989793 
L 165.146166 174.989793 
L 165.238758 174.05429 
L 165.96353 174.05429 
L 165.96353 173.586538 
L 166.169767 173.586538 
L 166.228279 172.183283 
L 167.416772 172.183283 
L 167.416772 171.715531 
L 168.142969 171.715531 
L 168.142969 171.247779 
L 169.516314 171.247779 
L 169.565302 169.376772 
L 170.542436 169.376772 
L 170.542436 168.909021 
L 171.181725 168.909021 
L 171.181725 168.441269 
L 171.360458 168.441269 
L 171.382681 166.570262 
L 171.647326 166.570262 
L 171.647326 166.10251 
L 172.440637 166.10251 
L 172.440637 165.634759 
L 172.896949 165.634759 
L 172.896949 165.167007 
L 174.164733 165.167007 
L 174.260272 163.296 
L 174.374282 163.296 
L 174.374282 162.360497 
L 175.298414 162.360497 
L 175.298414 161.424993 
L 175.477915 161.424993 
L 175.477915 160.957241 
L 175.708734 160.957241 
L 175.708734 160.021738 
L 176.179266 160.021738 
L 176.179266 159.553986 
L 176.888582 159.553986 
L 176.888582 159.086234 
L 177.004244 159.086234 
L 177.10282 158.150731 
L 177.233457 158.150731 
L 177.233457 157.682979 
L 177.363192 157.682979 
L 177.363192 157.215228 
L 177.556133 157.215228 
L 177.556133 156.747476 
L 177.826122 156.747476 
L 177.826122 156.279724 
L 178.492224 156.279724 
L 178.492224 155.344221 
L 178.824112 155.344221 
L 178.928497 153.940966 
L 179.164938 153.940966 
L 179.164938 153.473214 
L 180.249148 153.473214 
L 180.249148 153.005462 
L 180.660496 153.005462 
L 180.660496 152.53771 
L 180.849423 152.53771 
L 180.956535 151.602207 
L 181.102826 151.602207 
L 181.102826 151.134455 
L 181.339783 151.134455 
L 181.339783 150.666703 
L 182.133854 150.666703 
L 182.133854 150.198952 
L 183.441747 150.198952 
L 183.441747 149.7312 
L 185.289901 149.7312 
L 185.289901 149.263448 
L 185.688599 149.263448 
L 185.688599 148.795697 
L 186.738443 148.795697 
L 186.8266 147.860193 
L 187.23262 147.860193 
L 187.23262 147.392441 
L 187.536192 147.392441 
L 187.536192 146.92469 
L 187.890434 146.92469 
L 187.890434 146.456938 
L 188.694894 146.456938 
L 188.694894 145.521434 
L 189.14947 145.521434 
L 189.14947 145.053683 
L 189.828049 145.053683 
L 189.828049 144.585931 
L 190.442726 144.585931 
L 190.442726 143.650428 
L 190.651211 143.650428 
L 190.651211 143.182676 
L 190.841629 143.182676 
L 190.841629 142.247172 
L 191.045763 142.247172 
L 191.045763 141.779421 
L 193.093238 141.779421 
L 193.093238 140.843917 
L 194.72889 140.843917 
L 194.72889 140.376166 
L 196.381218 140.376166 
L 196.381218 139.908414 
L 360.8064 139.908414 
L 360.8064 139.908414 
" style="fill: none; stroke: #ff00ff; stroke-width: 1.5; stroke-linecap: square"/>
   </g>
   <g id="line2d_41">
    <defs>
     <path id="mc99aac81c5" d="M -0 8.485281 
L 5.091169 0 
L 0 -8.485281 
L -5.091169 -0 
z
" style="stroke: #ff00ff; stroke-width: 1.5; stroke-linejoin: miter"/>
    </defs>
    <g>
     <use xlink:href="#mc99aac81c5" x="117.772007" y="241.87829" style="fill-opacity: 0; stroke: #ff00ff; stroke-width: 1.5; stroke-linejoin: miter"/>
     <use xlink:href="#mc99aac81c5" x="174.374282" y="163.296" style="fill-opacity: 0; stroke: #ff00ff; stroke-width: 1.5; stroke-linejoin: miter"/>
     <use xlink:href="#mc99aac81c5" x="196.381218" y="140.376166" style="fill-opacity: 0; stroke: #ff00ff; stroke-width: 1.5; stroke-linejoin: miter"/>
     <use xlink:href="#mc99aac81c5" x="196.381218" y="139.908414" style="fill-opacity: 0; stroke: #ff00ff; stroke-width: 1.5; stroke-linejoin: miter"/>
     <use xlink:href="#mc99aac81c5" x="196.381218" y="139.908414" style="fill-opacity: 0; stroke: #ff00ff; stroke-width: 1.5; stroke-linejoin: miter"/>
     <use xlink:href="#mc99aac81c5" x="360.8064" y="139.908414" style="fill-opacity: 0; stroke: #ff00ff; stroke-width: 1.5; stroke-linejoin: miter"/>
    </g>
   </g>
   <g id="line2d_42">
    <path style="fill: none; stroke: #ff00ff; stroke-width: 1.5; stroke-linecap: square"/>
    <g/>
   </g>
   <g id="line2d_43">
    <path d="M 230.872084 139.908414 
" clip-path="url(#p1a0f10f5d5)" style="fill: none; stroke: #ff00ff; stroke-width: 1.5; stroke-linecap: square"/>
    <defs>
     <path id="m9707bbb251" d="M -12 12 
L 12 -12 
M -12 -12 
L 12 12 
" style="stroke: #ff00ff"/>
    </defs>
    <g clip-path="url(#p1a0f10f5d5)">
     <use xlink:href="#m9707bbb251" x="230.872084" y="139.908414" style="fill: #ff00ff; stroke: #ff00ff"/>
    </g>
   </g>
   <g id="line2d_44">
    <defs>
     <path id="m3d329d2273" d="M 0 1.5 
C 0.397805 1.5 0.77937 1.341951 1.06066 1.06066 
C 1.341951 0.77937 1.5 0.397805 1.5 0 
C 1.5 -0.397805 1.341951 -0.77937 1.06066 -1.06066 
C 0.77937 -1.341951 0.397805 -1.5 0 -1.5 
C -0.397805 -1.5 -0.77937 -1.341951 -1.06066 -1.06066 
C -1.341951 -0.77937 -1.5 -0.397805 -1.5 0 
C -1.5 0.397805 -1.341951 0.77937 -1.06066 1.06066 
C -0.77937 1.341951 -0.397805 1.5 0 1.5 
z
" style="stroke: #ff7500"/>
    </defs>
    <g>
     <use xlink:href="#m3d329d2273" x="211.842065" y="196.038621" style="fill: #ff7500; stroke: #ff7500"/>
     <use xlink:href="#m3d329d2273" x="211.842065" y="196.038621" style="fill: #ff7500; stroke: #ff7500"/>
    </g>
   </g>
   <g id="line2d_45">
    <path d="M 44.560826 298.944 
L 44.560826 283.975945 
L 57.6 283.975945 
L 57.6 279.298428 
L 106.560633 279.298428 
L 106.560633 272.282152 
L 118.889854 272.282152 
L 118.889854 267.604634 
L 126.274549 267.604634 
L 126.274549 259.652855 
L 131.563744 259.652855 
L 131.563744 257.781848 
L 135.687504 257.781848 
L 135.687504 256.378593 
L 139.067817 256.378593 
L 139.067817 254.507586 
L 141.932237 254.507586 
L 141.932237 253.572083 
L 144.417581 253.572083 
L 144.417581 249.830069 
L 146.612557 249.830069 
L 146.612557 248.426814 
L 148.57797 248.426814 
L 148.57797 247.023559 
L 150.357325 247.023559 
L 150.357325 245.620303 
L 151.982822 245.620303 
L 151.982822 243.749297 
L 156.155566 243.749297 
L 156.155566 242.346041 
L 157.363398 242.346041 
L 157.363398 241.410538 
L 158.498335 241.410538 
L 158.498335 240.475034 
L 159.568678 240.475034 
L 159.568678 240.007283 
L 162.456597 240.007283 
L 162.456597 239.071779 
L 163.328465 239.071779 
L 163.328465 235.797517 
L 164.959603 235.797517 
L 164.959603 234.862014 
L 165.725029 234.862014 
L 165.725029 233.92651 
L 166.460523 233.92651 
L 166.460523 233.458759 
L 167.16834 233.458759 
L 167.16834 232.991007 
L 167.850487 232.991007 
L 167.850487 232.055503 
L 168.508761 232.055503 
L 168.508761 231.587752 
L 170.93316 231.587752 
L 170.93316 230.652248 
L 172.566188 230.652248 
L 172.566188 229.716745 
L 173.080478 229.716745 
L 173.080478 229.248993 
L 173.581081 229.248993 
L 173.581081 228.781241 
L 174.544011 228.781241 
L 174.544011 226.442483 
L 176.33353 226.442483 
L 176.33353 225.506979 
L 176.75552 225.506979 
L 176.75552 224.571476 
L 177.168252 224.571476 
L 177.168252 223.635972 
L 177.967504 223.635972 
L 177.967504 223.168221 
L 178.354746 223.168221 
L 178.354746 222.232717 
L 178.734177 222.232717 
L 178.734177 220.829462 
L 179.470823 220.829462 
L 179.470823 218.490703 
L 181.843176 218.490703 
L 181.843176 218.022952 
L 182.46945 218.022952 
L 182.46945 217.087448 
L 184.784791 217.087448 
L 184.784791 216.151945 
L 185.843683 216.151945 
L 185.843683 215.216441 
L 186.351585 215.216441 
L 186.351585 213.345434 
L 187.088617 213.345434 
L 187.088617 212.409931 
L 187.328014 212.409931 
L 187.328014 211.474428 
L 187.797857 211.474428 
L 187.797857 210.538924 
L 188.70374 210.538924 
L 188.70374 209.603421 
L 189.355626 209.603421 
L 189.355626 209.135669 
L 189.777996 209.135669 
L 189.777996 208.200166 
L 192.675422 208.200166 
L 192.675422 207.264662 
L 192.853597 207.264662 
L 192.853597 206.329159 
L 193.378214 206.329159 
L 193.378214 205.393655 
L 194.055693 205.393655 
L 194.055693 204.458152 
L 194.548256 204.458152 
L 194.548256 203.054897 
L 195.028251 203.054897 
L 195.028251 201.651641 
L 195.341575 201.651641 
L 195.341575 201.18389 
L 195.649766 201.18389 
L 195.649766 200.716138 
L 197.399854 200.716138 
L 197.399854 199.780634 
L 199.629766 199.780634 
L 199.629766 199.312883 
L 202.598722 199.312883 
L 202.598722 198.845131 
L 203.324006 198.845131 
L 203.324006 197.909628 
L 203.924171 197.909628 
L 203.924171 197.441876 
L 204.88376 197.441876 
L 204.88376 196.974124 
L 208.910773 196.974124 
L 208.910773 196.506372 
L 211.842065 196.506372 
L 211.842065 196.038621 
L 360.8064 196.038621 
L 360.8064 196.038621 
" style="fill: none; stroke: #ff7500; stroke-width: 1.5; stroke-linecap: square"/>
   </g>
   <g id="line2d_46">
    <defs>
     <path id="mcc2e2e137c" d="M 0 -6 
L -1.347084 -1.854102 
L -5.706339 -1.854102 
L -2.179628 0.708204 
L -3.526712 4.854102 
L -0 2.291796 
L 3.526712 4.854102 
L 2.179628 0.708204 
L 5.706339 -1.854102 
L 1.347084 -1.854102 
z
" style="stroke: #ff7500; stroke-width: 1.5; stroke-linejoin: bevel"/>
    </defs>
    <g>
     <use xlink:href="#mcc2e2e137c" x="106.560633" y="272.282152" style="fill-opacity: 0; stroke: #ff7500; stroke-width: 1.5; stroke-linejoin: bevel"/>
     <use xlink:href="#mcc2e2e137c" x="181.843176" y="218.022952" style="fill-opacity: 0; stroke: #ff7500; stroke-width: 1.5; stroke-linejoin: bevel"/>
     <use xlink:href="#mcc2e2e137c" x="211.842065" y="196.506372" style="fill-opacity: 0; stroke: #ff7500; stroke-width: 1.5; stroke-linejoin: bevel"/>
     <use xlink:href="#mcc2e2e137c" x="211.842065" y="196.038621" style="fill-opacity: 0; stroke: #ff7500; stroke-width: 1.5; stroke-linejoin: bevel"/>
     <use xlink:href="#mcc2e2e137c" x="211.842065" y="196.038621" style="fill-opacity: 0; stroke: #ff7500; stroke-width: 1.5; stroke-linejoin: bevel"/>
     <use xlink:href="#mcc2e2e137c" x="360.8064" y="196.038621" style="fill-opacity: 0; stroke: #ff7500; stroke-width: 1.5; stroke-linejoin: bevel"/>
    </g>
   </g>
   <g id="line2d_47">
    <path style="fill: none; stroke: #ff7500; stroke-width: 1.5; stroke-linecap: square"/>
    <g/>
   </g>
   <g id="line2d_48">
    <path d="M 230.861741 196.038621 
" clip-path="url(#p1a0f10f5d5)" style="fill: none; stroke: #ff7500; stroke-width: 1.5; stroke-linecap: square"/>
    <defs>
     <path id="ma79ba9e97d" d="M -12 12 
L 12 -12 
M -12 -12 
L 12 12 
" style="stroke: #ff7500"/>
    </defs>
    <g clip-path="url(#p1a0f10f5d5)">
     <use xlink:href="#ma79ba9e97d" x="230.861741" y="196.038621" style="fill: #ff7500; stroke: #ff7500"/>
    </g>
   </g>
   <g id="line2d_49">
    <defs>
     <path id="mf303f7a2e8" d="M 0 1.5 
C 0.397805 1.5 0.77937 1.341951 1.06066 1.06066 
C 1.341951 0.77937 1.5 0.397805 1.5 0 
C 1.5 -0.397805 1.341951 -0.77937 1.06066 -1.06066 
C 0.77937 -1.341951 0.397805 -1.5 0 -1.5 
C -0.397805 -1.5 -0.77937 -1.341951 -1.06066 -1.06066 
C -1.341951 -0.77937 -1.5 -0.397805 -1.5 0 
C -1.5 0.397805 -1.341951 0.77937 -1.06066 1.06066 
C -0.77937 1.341951 -0.397805 1.5 0 1.5 
z
" style="stroke: #6495ed"/>
    </defs>
    <g>
     <use xlink:href="#mf303f7a2e8" x="200.6505" y="193.23211" style="fill: #6495ed; stroke: #6495ed"/>
     <use xlink:href="#mf303f7a2e8" x="200.6505" y="193.23211" style="fill: #6495ed; stroke: #6495ed"/>
    </g>
   </g>
   <g id="line2d_50">
    <path d="M 44.560826 298.944 
L 44.560826 283.975945 
L 57.6 283.975945 
L 57.6 281.169434 
L 83.678349 281.169434 
L 83.678349 279.298428 
L 89.668958 279.298428 
L 89.668958 278.362924 
L 94.205591 278.362924 
L 94.205591 277.427421 
L 97.857967 277.427421 
L 97.857967 276.024166 
L 100.9152 276.024166 
L 100.9152 274.62091 
L 106.560633 274.62091 
L 106.560633 272.749903 
L 109.756698 272.749903 
L 109.756698 271.8144 
L 112.989468 271.8144 
L 112.989468 270.411145 
L 113.954374 270.411145 
L 113.954374 269.475641 
L 114.872193 269.475641 
L 114.872193 268.540138 
L 116.583514 268.540138 
L 116.583514 268.072386 
L 118.524569 268.072386 
L 118.524569 266.201379 
L 118.889854 266.201379 
L 118.889854 265.265876 
L 120.944062 265.265876 
L 120.944062 264.330372 
L 122.795872 264.330372 
L 122.795872 261.523862 
L 123.374735 261.523862 
L 123.374735 261.05611 
L 123.657621 261.05611 
L 123.657621 259.652855 
L 125.526971 259.652855 
L 125.526971 257.781848 
L 126.756923 257.781848 
L 126.756923 255.910841 
L 127.458055 255.910841 
L 127.458055 255.44309 
L 127.911368 255.44309 
L 127.911368 254.975338 
L 129.209231 254.975338 
L 129.209231 254.507586 
L 129.417095 254.507586 
L 129.417095 253.572083 
L 130.226319 253.572083 
L 130.226319 253.104331 
L 131.191226 253.104331 
L 131.191226 252.636579 
L 131.378407 252.636579 
L 131.378407 249.830069 
L 131.929028 249.830069 
L 131.929028 248.426814 
L 132.46399 248.426814 
L 132.46399 246.555807 
L 134.931919 246.555807 
L 134.931919 245.620303 
L 135.538796 245.620303 
L 135.538796 244.6848 
L 138.692823 244.6848 
L 138.692823 244.217048 
L 139.313723 244.217048 
L 139.313723 243.281545 
L 140.032723 243.281545 
L 140.032723 242.346041 
L 141.610664 242.346041 
L 141.610664 241.87829 
L 143.462475 241.87829 
L 143.560197 240.475034 
L 146.193574 240.475034 
L 146.193574 238.604028 
L 146.777571 238.604028 
L 146.777571 237.668524 
L 147.343984 237.668524 
L 147.343984 236.733021 
L 147.816265 236.733021 
L 147.816265 236.265269 
L 148.428077 236.265269 
L 148.428077 234.394262 
L 148.947561 234.394262 
L 148.947561 232.991007 
L 150.289291 232.991007 
L 150.289291 232.523255 
L 151.220087 232.523255 
L 151.220087 231.587752 
L 151.668766 231.587752 
L 151.668766 230.652248 
L 152.655828 230.652248 
L 152.655828 230.184497 
L 153.01302 230.184497 
L 153.01302 229.248993 
L 154.212341 229.248993 
L 154.267588 228.31349 
L 154.757642 228.31349 
L 154.757642 227.845738 
L 156.84148 227.845738 
L 156.84148 227.377986 
L 158.052543 227.377986 
L 158.052543 226.442483 
L 158.760826 226.442483 
L 158.760826 225.974731 
L 159.816746 225.974731 
L 159.816746 225.039228 
L 160.18282 225.039228 
L 160.18282 224.103724 
L 162.845206 224.103724 
L 162.845206 223.168221 
L 163.699647 223.168221 
L 163.699647 222.700469 
L 166.081656 222.700469 
L 166.111072 221.297214 
L 166.199045 221.297214 
L 166.199045 220.36171 
L 167.957371 220.36171 
L 167.957371 219.426207 
L 168.586228 219.426207 
L 168.586228 218.490703 
L 169.467197 218.490703 
L 169.467197 217.5552 
L 170.072123 217.5552 
L 170.072123 217.087448 
L 170.9104 217.087448 
L 170.9104 216.151945 
L 171.181725 216.151945 
L 171.181725 215.216441 
L 171.756506 215.216441 
L 171.756506 214.280938 
L 176.822169 214.280938 
L 176.822169 213.813186 
L 177.920494 213.813186 
L 177.920494 212.877683 
L 178.262532 212.877683 
L 178.262532 211.942179 
L 178.794182 211.942179 
L 178.794182 211.006676 
L 179.700586 211.006676 
L 179.700586 210.071172 
L 179.969833 210.071172 
L 179.969833 209.135669 
L 180.23528 209.135669 
L 180.304517 207.264662 
L 181.195331 207.264662 
L 181.195331 206.329159 
L 181.547935 206.329159 
L 181.625402 205.393655 
L 181.792161 205.393655 
L 181.792161 204.458152 
L 182.358249 204.458152 
L 182.358249 203.9904 
L 183.81243 203.9904 
L 183.81243 203.054897 
L 184.88257 203.054897 
L 184.88257 202.119393 
L 185.667825 202.119393 
L 185.667825 201.651641 
L 186.089188 201.651641 
L 186.089188 201.18389 
L 186.875397 201.18389 
L 186.875397 200.248386 
L 187.441851 200.248386 
L 187.441851 199.780634 
L 187.732781 199.780634 
L 187.732781 199.312883 
L 188.677189 199.312883 
L 188.677189 198.377379 
L 190.31327 198.377379 
L 190.31327 197.909628 
L 190.762522 197.909628 
L 190.762522 196.974124 
L 191.084767 196.974124 
L 191.084767 196.506372 
L 191.439858 196.506372 
L 191.439858 196.038621 
L 192.292017 196.038621 
L 192.292017 195.570869 
L 193.350601 195.570869 
L 193.350601 195.103117 
L 193.631734 195.103117 
L 193.631734 194.635366 
L 194.88235 194.635366 
L 194.88235 194.167614 
L 196.445792 194.167614 
L 196.445792 193.699862 
L 200.6505 193.699862 
L 200.6505 193.23211 
L 360.8064 193.23211 
L 360.8064 193.23211 
" style="fill: none; stroke: #6495ed; stroke-width: 1.5; stroke-linecap: square"/>
   </g>
   <g id="line2d_51">
    <defs>
     <path id="mcf8de07adf" d="M -0 6 
L 6 -6 
L -6 -6 
z
" style="stroke: #6495ed; stroke-width: 1.5; stroke-linejoin: miter"/>
    </defs>
    <g>
     <use xlink:href="#mcf8de07adf" x="100.9152" y="276.024166" style="fill-opacity: 0; stroke: #6495ed; stroke-width: 1.5; stroke-linejoin: miter"/>
     <use xlink:href="#mcf8de07adf" x="158.052543" y="227.377986" style="fill-opacity: 0; stroke: #6495ed; stroke-width: 1.5; stroke-linejoin: miter"/>
     <use xlink:href="#mcf8de07adf" x="200.6505" y="193.699862" style="fill-opacity: 0; stroke: #6495ed; stroke-width: 1.5; stroke-linejoin: miter"/>
     <use xlink:href="#mcf8de07adf" x="200.6505" y="193.23211" style="fill-opacity: 0; stroke: #6495ed; stroke-width: 1.5; stroke-linejoin: miter"/>
     <use xlink:href="#mcf8de07adf" x="200.6505" y="193.23211" style="fill-opacity: 0; stroke: #6495ed; stroke-width: 1.5; stroke-linejoin: miter"/>
     <use xlink:href="#mcf8de07adf" x="360.8064" y="193.23211" style="fill-opacity: 0; stroke: #6495ed; stroke-width: 1.5; stroke-linejoin: miter"/>
    </g>
   </g>
   <g id="line2d_52">
    <path style="fill: none; stroke: #6495ed; stroke-width: 1.5; stroke-linecap: square"/>
    <g/>
   </g>
   <g id="line2d_53">
    <path d="M 230.857978 193.23211 
" clip-path="url(#p1a0f10f5d5)" style="fill: none; stroke: #6495ed; stroke-width: 1.5; stroke-linecap: square"/>
    <defs>
     <path id="m861538ac9f" d="M -12 12 
L 12 -12 
M -12 -12 
L 12 12 
" style="stroke: #6495ed"/>
    </defs>
    <g clip-path="url(#p1a0f10f5d5)">
     <use xlink:href="#m861538ac9f" x="230.857978" y="193.23211" style="fill: #6495ed; stroke: #6495ed"/>
    </g>
   </g>
   <g id="line2d_54">
    <defs>
     <path id="m4af3349470" d="M 0 1.5 
C 0.397805 1.5 0.77937 1.341951 1.06066 1.06066 
C 1.341951 0.77937 1.5 0.397805 1.5 0 
C 1.5 -0.397805 1.341951 -0.77937 1.06066 -1.06066 
C 0.77937 -1.341951 0.397805 -1.5 0 -1.5 
C -0.397805 -1.5 -0.77937 -1.341951 -1.06066 -1.06066 
C -1.341951 -0.77937 -1.5 -0.397805 -1.5 0 
C -1.5 0.397805 -1.341951 0.77937 -1.06066 1.06066 
C -0.77937 1.341951 -0.397805 1.5 0 1.5 
z
" style="stroke: #ff0000"/>
    </defs>
    <g>
     <use xlink:href="#m4af3349470" x="207.32305" y="141.779421" style="fill: #ff0000; stroke: #ff0000"/>
     <use xlink:href="#m4af3349470" x="207.32305" y="141.779421" style="fill: #ff0000; stroke: #ff0000"/>
    </g>
   </g>
   <g id="line2d_55">
    <path d="M 44.560826 298.944 
L 44.560826 283.975945 
L 57.6 283.975945 
L 57.6 283.508193 
L 65.227428 283.508193 
L 65.227428 282.57269 
L 70.639174 282.57269 
L 70.639174 279.298428 
L 74.836851 279.298428 
L 74.836851 278.362924 
L 78.266603 278.362924 
L 78.266603 274.62091 
L 81.166416 274.62091 
L 81.166416 274.153159 
L 83.678349 274.153159 
L 83.678349 273.217655 
L 85.894031 273.217655 
L 85.894031 272.282152 
L 87.876026 272.282152 
L 87.876026 271.346648 
L 89.668958 271.346648 
L 89.668958 269.00789 
L 91.305777 269.00789 
L 91.305777 268.072386 
L 95.503454 268.072386 
L 95.503454 267.604634 
L 96.717523 267.604634 
L 96.717523 263.862621 
L 97.857967 263.862621 
L 97.857967 262.927117 
L 98.933205 262.927117 
L 98.933205 257.781848 
L 99.950294 257.781848 
L 99.950294 257.314097 
L 101.833019 257.314097 
L 101.833019 256.378593 
L 102.708132 256.378593 
L 102.708132 255.44309 
L 103.544339 255.44309 
L 103.544339 254.507586 
L 104.344952 254.507586 
L 104.344952 254.039834 
L 105.112877 254.039834 
L 105.112877 253.104331 
L 105.850679 253.104331 
L 105.850679 249.830069 
L 107.244765 249.830069 
L 107.244765 247.49131 
L 107.904887 247.49131 
L 107.904887 246.555807 
L 108.542628 246.555807 
L 108.542628 245.620303 
L 109.756698 245.620303 
L 109.756698 245.152552 
L 110.897141 245.152552 
L 110.897141 243.281545 
L 113.954374 243.281545 
L 113.954374 242.346041 
L 115.747307 242.346041 
L 115.747307 241.87829 
L 117.772007 241.87829 
L 117.772007 241.410538 
L 118.152051 241.410538 
L 118.152051 240.475034 
L 118.524569 240.475034 
L 118.524569 239.539531 
L 119.24818 239.539531 
L 119.24818 238.136276 
L 119.599808 238.136276 
L 119.599808 237.200772 
L 121.265635 237.200772 
L 121.265635 236.733021 
L 121.581803 236.733021 
L 121.581803 235.797517 
L 122.795872 235.797517 
L 122.795872 234.862014 
L 123.657621 234.862014 
L 123.657621 233.92651 
L 124.210942 233.92651 
L 124.210942 232.991007 
L 125.526971 232.991007 
L 125.526971 232.523255 
L 126.028642 232.523255 
L 126.028642 231.587752 
L 126.993549 231.587752 
L 126.993549 230.652248 
L 127.227236 230.652248 
L 127.227236 229.716745 
L 128.786481 229.716745 
L 128.786481 226.910234 
L 129.826058 226.910234 
L 129.826058 225.974731 
L 130.027253 225.974731 
L 130.027253 225.039228 
L 131.191226 225.039228 
L 131.191226 224.571476 
L 131.563744 224.571476 
L 131.563744 223.635972 
L 131.747272 223.635972 
L 131.747272 223.168221 
L 133.323114 223.168221 
L 133.323114 221.764966 
L 134.14471 221.764966 
L 134.14471 220.829462 
L 135.085483 220.829462 
L 135.085483 218.490703 
L 135.237805 218.490703 
L 135.237805 218.022952 
L 136.555884 218.022952 
L 136.555884 217.5552 
L 137.38594 217.5552 
L 137.38594 217.087448 
L 138.050729 217.087448 
L 138.050729 216.151945 
L 138.310202 216.151945 
L 138.310202 215.216441 
L 138.438609 215.216441 
L 138.438609 214.280938 
L 138.943648 214.280938 
L 138.943648 213.813186 
L 139.556456 213.813186 
L 139.556456 213.345434 
L 139.796097 213.345434 
L 139.796097 212.877683 
L 140.611586 212.877683 
L 140.611586 212.409931 
L 141.173167 212.409931 
L 141.173167 211.474428 
L 141.50224 211.474428 
L 141.50224 211.006676 
L 142.763822 211.006676 
L 142.865233 209.135669 
L 143.166224 209.135669 
L 143.265494 208.200166 
L 143.462475 208.200166 
L 143.462475 207.732414 
L 144.417581 207.732414 
L 144.417581 206.329159 
L 144.694906 206.329159 
L 144.694906 205.861407 
L 145.237585 205.861407 
L 145.326529 204.925903 
L 145.678157 204.925903 
L 145.678157 203.9904 
L 145.851536 203.9904 
L 145.851536 203.054897 
L 146.27812 203.054897 
L 146.27812 202.119393 
L 146.695245 202.119393 
L 146.695245 201.651641 
L 147.343984 201.651641 
L 147.343984 201.18389 
L 148.352679 201.18389 
L 148.352679 199.780634 
L 149.020615 199.780634 
L 149.020615 199.312883 
L 149.31003 199.312883 
L 149.31003 198.845131 
L 151.220087 198.845131 
L 151.284843 196.038621 
L 151.60532 196.038621 
L 151.60532 195.103117 
L 151.795018 195.103117 
L 151.795018 194.635366 
L 151.920429 194.635366 
L 151.982822 193.23211 
L 152.16877 193.23211 
L 152.16877 192.764359 
L 152.953957 192.764359 
L 152.953957 192.296607 
L 153.247435 192.296607 
L 153.247435 190.893352 
L 154.212341 190.893352 
L 154.212341 189.957848 
L 154.595705 189.957848 
L 154.595705 189.022345 
L 155.28758 189.022345 
L 155.28758 188.554593 
L 156.255099 188.554593 
L 156.255099 188.086841 
L 156.88953 188.086841 
L 156.88953 187.61909 
L 157.222487 187.61909 
L 157.222487 187.151338 
L 157.363398 187.151338 
L 157.363398 186.215834 
L 157.595929 186.215834 
L 157.595929 185.748083 
L 157.962102 185.748083 
L 157.962102 184.344828 
L 158.187393 184.344828 
L 158.187393 183.877076 
L 158.498335 183.877076 
L 158.498335 183.409324 
L 158.630038 183.409324 
L 158.630038 182.941572 
L 159.14782 182.941572 
L 159.14782 182.473821 
L 160.422971 182.473821 
L 160.422971 182.006069 
L 160.777545 182.006069 
L 160.777545 181.538317 
L 160.933013 181.538317 
L 160.933013 181.070566 
L 161.240147 181.070566 
L 161.278189 179.199559 
L 161.765853 179.199559 
L 161.765853 178.264055 
L 162.775144 178.264055 
L 162.775144 177.328552 
L 162.949812 177.328552 
L 162.949812 176.8608 
L 163.191653 176.8608 
L 163.191653 176.393048 
L 164.194282 176.393048 
L 164.194282 175.925297 
L 165.238758 175.925297 
L 165.238758 175.457545 
L 165.574415 175.457545 
L 165.574415 174.989793 
L 165.695002 174.989793 
L 165.695002 174.522041 
L 166.518139 174.522041 
L 166.518139 174.05429 
L 166.775248 174.05429 
L 166.775248 173.118786 
L 167.279159 173.118786 
L 167.279159 172.651034 
L 167.553385 172.651034 
L 167.553385 171.247779 
L 168.221954 171.247779 
L 168.221954 170.780028 
L 169.784185 170.780028 
L 169.784185 169.844524 
L 169.952684 169.844524 
L 169.952684 168.909021 
L 170.09592 168.909021 
L 170.09592 167.973517 
L 170.61198 167.973517 
L 170.61198 167.505766 
L 170.796182 167.505766 
L 170.819081 166.10251 
L 171.159263 166.10251 
L 171.226568 164.699255 
L 171.951446 164.699255 
L 171.951446 163.763752 
L 172.503517 163.763752 
L 172.503517 163.296 
L 172.649425 163.296 
L 172.649425 162.828248 
L 173.699269 162.828248 
L 173.797195 160.957241 
L 173.933441 160.957241 
L 174.010854 159.086234 
L 174.336355 159.086234 
L 174.336355 158.618483 
L 174.786503 158.618483 
L 174.786503 158.150731 
L 175.298414 158.150731 
L 175.298414 157.215228 
L 176.093013 157.215228 
L 176.093013 156.747476 
L 177.004244 156.747476 
L 177.053597 155.811972 
L 177.45991 155.811972 
L 177.45991 155.344221 
L 177.936177 155.344221 
L 177.936177 154.876469 
L 178.262532 154.876469 
L 178.262532 154.408717 
L 178.643809 154.408717 
L 178.643809 153.940966 
L 178.86892 153.940966 
L 178.86892 153.473214 
L 179.340338 153.473214 
L 179.340338 153.005462 
L 179.57169 153.005462 
L 179.57169 152.069959 
L 180.469652 152.069959 
L 180.469652 151.134455 
L 180.687602 151.134455 
L 180.687602 150.666703 
L 180.929814 150.666703 
L 180.929814 150.198952 
L 181.664017 150.198952 
L 181.664017 149.7312 
L 185.719719 149.7312 
L 185.719719 149.263448 
L 186.381628 149.263448 
L 186.381628 148.795697 
L 187.223054 148.795697 
L 187.270836 147.860193 
L 190.141995 147.860193 
L 190.141995 147.392441 
L 190.321387 147.392441 
L 190.321387 146.92469 
L 191.193549 146.92469 
L 191.193549 146.456938 
L 193.246689 146.456938 
L 193.316027 144.585931 
L 193.412674 144.585931 
L 193.412674 143.650428 
L 193.962302 143.650428 
L 193.962302 142.714924 
L 199.895068 142.714924 
L 199.895068 142.247172 
L 207.32305 142.247172 
L 207.32305 141.779421 
L 360.8064 141.779421 
L 360.8064 141.779421 
" style="fill: none; stroke: #ff0000; stroke-width: 1.5; stroke-linecap: square"/>
   </g>
   <g id="line2d_56">
    <defs>
     <path id="mc1f530ed55" d="M 0 -6 
L -5.196152 -3 
L -5.196152 3 
L -0 6 
L 5.196152 3 
L 5.196152 -3 
z
" style="stroke: #ff0000; stroke-width: 1.5; stroke-linejoin: miter"/>
    </defs>
    <g>
     <use xlink:href="#mc1f530ed55" x="87.876026" y="271.346648" style="fill-opacity: 0; stroke: #ff0000; stroke-width: 1.5; stroke-linejoin: miter"/>
     <use xlink:href="#mc1f530ed55" x="135.085483" y="218.490703" style="fill-opacity: 0; stroke: #ff0000; stroke-width: 1.5; stroke-linejoin: miter"/>
     <use xlink:href="#mc1f530ed55" x="199.895068" y="142.247172" style="fill-opacity: 0; stroke: #ff0000; stroke-width: 1.5; stroke-linejoin: miter"/>
     <use xlink:href="#mc1f530ed55" x="207.32305" y="141.779421" style="fill-opacity: 0; stroke: #ff0000; stroke-width: 1.5; stroke-linejoin: miter"/>
     <use xlink:href="#mc1f530ed55" x="207.32305" y="141.779421" style="fill-opacity: 0; stroke: #ff0000; stroke-width: 1.5; stroke-linejoin: miter"/>
     <use xlink:href="#mc1f530ed55" x="360.8064" y="141.779421" style="fill-opacity: 0; stroke: #ff0000; stroke-width: 1.5; stroke-linejoin: miter"/>
    </g>
   </g>
   <g id="line2d_57">
    <path style="fill: none; stroke: #ff0000; stroke-width: 1.5; stroke-linecap: square"/>
    <g/>
   </g>
   <g id="line2d_58">
    <path d="M 274.176094 141.779421 
" clip-path="url(#p1a0f10f5d5)" style="fill: none; stroke: #ff0000; stroke-width: 1.5; stroke-linecap: square"/>
    <defs>
     <path id="m6023384d34" d="M -12 12 
L 12 -12 
M -12 -12 
L 12 12 
" style="stroke: #ff0000"/>
    </defs>
    <g clip-path="url(#p1a0f10f5d5)">
     <use xlink:href="#m6023384d34" x="274.176094" y="141.779421" style="fill: #ff0000; stroke: #ff0000"/>
    </g>
   </g>
   <g id="line2d_59">
    <path d="M 360.8064 196.038621 
L 380.514816 293.51808 
" style="fill: none; stroke: #ff7500; stroke-width: 1.5; stroke-linecap: square"/>
    <g>
     <use xlink:href="#mcc2e2e137c" x="360.8064" y="196.038621" style="fill-opacity: 0; stroke: #ff7500; stroke-width: 1.5; stroke-linejoin: bevel"/>
     <use xlink:href="#mcc2e2e137c" x="380.514816" y="293.51808" style="fill-opacity: 0; stroke: #ff7500; stroke-width: 1.5; stroke-linejoin: bevel"/>
    </g>
   </g>
   <g id="line2d_60">
    <path d="M 360.8064 193.23211 
L 380.514816 241.429248 
" style="fill: none; stroke: #6495ed; stroke-width: 1.5; stroke-linecap: square"/>
    <g>
     <use xlink:href="#mcf8de07adf" x="360.8064" y="193.23211" style="fill-opacity: 0; stroke: #6495ed; stroke-width: 1.5; stroke-linejoin: miter"/>
     <use xlink:href="#mcf8de07adf" x="380.514816" y="241.429248" style="fill-opacity: 0; stroke: #6495ed; stroke-width: 1.5; stroke-linejoin: miter"/>
    </g>
   </g>
   <g id="line2d_61">
    <path d="M 360.8064 141.779421 
L 380.514816 189.340416 
" style="fill: none; stroke: #ff0000; stroke-width: 1.5; stroke-linecap: square"/>
    <g>
     <use xlink:href="#mc1f530ed55" x="360.8064" y="141.779421" style="fill-opacity: 0; stroke: #ff0000; stroke-width: 1.5; stroke-linejoin: miter"/>
     <use xlink:href="#mc1f530ed55" x="380.514816" y="189.340416" style="fill-opacity: 0; stroke: #ff0000; stroke-width: 1.5; stroke-linejoin: miter"/>
    </g>
   </g>
   <g id="line2d_62">
    <path d="M 360.8064 139.908414 
L 380.514816 137.251584 
" style="fill: none; stroke: #ff00ff; stroke-width: 1.5; stroke-linecap: square"/>
    <g>
     <use xlink:href="#mc99aac81c5" x="360.8064" y="139.908414" style="fill-opacity: 0; stroke: #ff00ff; stroke-width: 1.5; stroke-linejoin: miter"/>
     <use xlink:href="#mc99aac81c5" x="380.514816" y="137.251584" style="fill-opacity: 0; stroke: #ff00ff; stroke-width: 1.5; stroke-linejoin: miter"/>
    </g>
   </g>
   <g id="line2d_63">
    <path d="M 360.8064 125.40811 
L 380.514816 85.162752 
" style="fill: none; stroke: #000080; stroke-width: 1.5; stroke-linecap: square"/>
    <g>
     <use xlink:href="#m44c9025ed5" x="360.8064" y="125.40811" style="fill-opacity: 0; stroke: #000080; stroke-width: 1.5"/>
     <use xlink:href="#m44c9025ed5" x="380.514816" y="85.162752" style="fill-opacity: 0; stroke: #000080; stroke-width: 1.5"/>
    </g>
   </g>
   <g id="line2d_64">
    <path d="M 360.8064 298.944 
L 360.8064 27.648 
" style="fill: none; stroke: #000000; stroke-width: 1.5; stroke-linecap: square"/>
   </g>
   <g id="patch_3">
    <path d="M 57.6 298.944 
L 360.8064 298.944 
" style="fill: none; stroke: #000000; stroke-width: 0.8; stroke-linejoin: miter; stroke-linecap: square"/>
   </g>
   <g id="patch_4">
    <path d="M 57.6 27.648 
L 360.8064 27.648 
" style="fill: none; stroke: #000000; stroke-width: 0.8; stroke-linejoin: miter; stroke-linecap: square"/>
   </g>
   <g id="text_13">
    <!-- kerComo -->
    <g transform="translate(386.578944 297.381205) scale(0.14 -0.14)">
     <defs>
      <path id="DejaVuSans-6b" d="M 581 4863 
L 1159 4863 
L 1159 1991 
L 2875 3500 
L 3609 3500 
L 1753 1863 
L 3688 0 
L 2938 0 
L 1159 1709 
L 1159 0 
L 581 0 
L 581 4863 
z
" transform="scale(0.015625)"/>
      <path id="DejaVuSans-43" d="M 4122 4306 
L 4122 3641 
Q 3803 3938 3442 4084 
Q 3081 4231 2675 4231 
Q 1875 4231 1450 3742 
Q 1025 3253 1025 2328 
Q 1025 1406 1450 917 
Q 1875 428 2675 428 
Q 3081 428 3442 575 
Q 3803 722 4122 1019 
L 4122 359 
Q 3791 134 3420 21 
Q 3050 -91 2638 -91 
Q 1578 -91 968 557 
Q 359 1206 359 2328 
Q 359 3453 968 4101 
Q 1578 4750 2638 4750 
Q 3056 4750 3426 4639 
Q 3797 4528 4122 4306 
z
" transform="scale(0.015625)"/>
     </defs>
     <use xlink:href="#DejaVuSans-6b"/>
     <use xlink:href="#DejaVuSans-65" x="54.285156"/>
     <use xlink:href="#DejaVuSans-72" x="115.808594"/>
     <use xlink:href="#DejaVuSans-43" x="156.921875"/>
     <use xlink:href="#DejaVuSans-6f" x="226.746094"/>
     <use xlink:href="#DejaVuSans-6d" x="287.927734"/>
     <use xlink:href="#DejaVuSans-6f" x="385.339844"/>
    </g>
   </g>
   <g id="text_14">
    <!-- kerLQ -->
    <g transform="translate(386.578944 245.292373) scale(0.14 -0.14)">
     <defs>
      <path id="DejaVuSans-4c" d="M 628 4666 
L 1259 4666 
L 1259 531 
L 3531 531 
L 3531 0 
L 628 0 
L 628 4666 
z
" transform="scale(0.015625)"/>
      <path id="DejaVuSans-51" d="M 2522 4238 
Q 1834 4238 1429 3725 
Q 1025 3213 1025 2328 
Q 1025 1447 1429 934 
Q 1834 422 2522 422 
Q 3209 422 3611 934 
Q 4013 1447 4013 2328 
Q 4013 3213 3611 3725 
Q 3209 4238 2522 4238 
z
M 3406 84 
L 4238 -825 
L 3475 -825 
L 2784 -78 
Q 2681 -84 2626 -87 
Q 2572 -91 2522 -91 
Q 1538 -91 948 567 
Q 359 1225 359 2328 
Q 359 3434 948 4092 
Q 1538 4750 2522 4750 
Q 3503 4750 4090 4092 
Q 4678 3434 4678 2328 
Q 4678 1516 4351 937 
Q 4025 359 3406 84 
z
" transform="scale(0.015625)"/>
     </defs>
     <use xlink:href="#DejaVuSans-6b"/>
     <use xlink:href="#DejaVuSans-65" x="54.285156"/>
     <use xlink:href="#DejaVuSans-72" x="115.808594"/>
     <use xlink:href="#DejaVuSans-4c" x="156.921875"/>
     <use xlink:href="#DejaVuSans-51" x="212.634766"/>
    </g>
   </g>
   <g id="text_15">
    <!-- COMO-10 d -->
    <g transform="translate(386.578944 193.203541) scale(0.14 -0.14)">
     <defs>
      <path id="DejaVuSans-4f" d="M 2522 4238 
Q 1834 4238 1429 3725 
Q 1025 3213 1025 2328 
Q 1025 1447 1429 934 
Q 1834 422 2522 422 
Q 3209 422 3611 934 
Q 4013 1447 4013 2328 
Q 4013 3213 3611 3725 
Q 3209 4238 2522 4238 
z
M 2522 4750 
Q 3503 4750 4090 4092 
Q 4678 3434 4678 2328 
Q 4678 1225 4090 567 
Q 3503 -91 2522 -91 
Q 1538 -91 948 565 
Q 359 1222 359 2328 
Q 359 3434 948 4092 
Q 1538 4750 2522 4750 
z
" transform="scale(0.015625)"/>
      <path id="DejaVuSans-4d" d="M 628 4666 
L 1569 4666 
L 2759 1491 
L 3956 4666 
L 4897 4666 
L 4897 0 
L 4281 0 
L 4281 4097 
L 3078 897 
L 2444 897 
L 1241 4097 
L 1241 0 
L 628 0 
L 628 4666 
z
" transform="scale(0.015625)"/>
     </defs>
     <use xlink:href="#DejaVuSans-43"/>
     <use xlink:href="#DejaVuSans-4f" x="69.824219"/>
     <use xlink:href="#DejaVuSans-4d" x="148.535156"/>
     <use xlink:href="#DejaVuSans-4f" x="234.814453"/>
     <use xlink:href="#DejaVuSans-2d" x="316.275391"/>
     <use xlink:href="#DejaVuSans-31" x="352.359375"/>
     <use xlink:href="#DejaVuSans-30" x="415.982422"/>
     <use xlink:href="#DejaVuSans-20" x="479.605469"/>
     <use xlink:href="#DejaVuSans-64" x="511.392578"/>
    </g>
   </g>
   <g id="text_16">
    <!-- AllLQ -->
    <g transform="translate(386.578944 141.114709) scale(0.14 -0.14)">
     <defs>
      <path id="DejaVuSans-41" d="M 2188 4044 
L 1331 1722 
L 3047 1722 
L 2188 4044 
z
M 1831 4666 
L 2547 4666 
L 4325 0 
L 3669 0 
L 3244 1197 
L 1141 1197 
L 716 0 
L 50 0 
L 1831 4666 
z
" transform="scale(0.015625)"/>
     </defs>
     <use xlink:href="#DejaVuSans-41"/>
     <use xlink:href="#DejaVuSans-6c" x="68.408203"/>
     <use xlink:href="#DejaVuSans-6c" x="96.191406"/>
     <use xlink:href="#DejaVuSans-4c" x="123.974609"/>
     <use xlink:href="#DejaVuSans-51" x="179.6875"/>
    </g>
   </g>
   <g id="text_17">
    <!-- AllComo -->
    <g transform="translate(386.578944 89.025877) scale(0.14 -0.14)">
     <use xlink:href="#DejaVuSans-41"/>
     <use xlink:href="#DejaVuSans-6c" x="68.408203"/>
     <use xlink:href="#DejaVuSans-6c" x="96.191406"/>
     <use xlink:href="#DejaVuSans-43" x="123.974609"/>
     <use xlink:href="#DejaVuSans-6f" x="193.798828"/>
     <use xlink:href="#DejaVuSans-6d" x="254.980469"/>
     <use xlink:href="#DejaVuSans-6f" x="352.392578"/>
    </g>
   </g>
   <g id="text_18">
    <!-- best 2016 -->
    <g transform="translate(386.578944 36.937045) scale(0.14 -0.14)">
     <defs>
      <path id="DejaVuSans-62" d="M 3116 1747 
Q 3116 2381 2855 2742 
Q 2594 3103 2138 3103 
Q 1681 3103 1420 2742 
Q 1159 2381 1159 1747 
Q 1159 1113 1420 752 
Q 1681 391 2138 391 
Q 2594 391 2855 752 
Q 3116 1113 3116 1747 
z
M 1159 2969 
Q 1341 3281 1617 3432 
Q 1894 3584 2278 3584 
Q 2916 3584 3314 3078 
Q 3713 2572 3713 1747 
Q 3713 922 3314 415 
Q 2916 -91 2278 -91 
Q 1894 -91 1617 61 
Q 1341 213 1159 525 
L 1159 0 
L 581 0 
L 581 4863 
L 1159 4863 
L 1159 2969 
z
" transform="scale(0.015625)"/>
     </defs>
     <use xlink:href="#DejaVuSans-62"/>
     <use xlink:href="#DejaVuSans-65" x="63.476562"/>
     <use xlink:href="#DejaVuSans-73" x="125"/>
     <use xlink:href="#DejaVuSans-74" x="177.099609"/>
     <use xlink:href="#DejaVuSans-20" x="216.308594"/>
     <use xlink:href="#DejaVuSans-32" x="248.095703"/>
     <use xlink:href="#DejaVuSans-30" x="311.71875"/>
     <use xlink:href="#DejaVuSans-31" x="375.341797"/>
     <use xlink:href="#DejaVuSans-36" x="438.964844"/>
    </g>
   </g>
   <g id="text_19">
    <!-- bbob-biobj f11, 2-D -->
    <g transform="translate(60.632064 38.111366) scale(0.102 -0.102)">
     <defs>
      <path id="DejaVuSans-6a" d="M 603 3500 
L 1178 3500 
L 1178 -63 
Q 1178 -731 923 -1031 
Q 669 -1331 103 -1331 
L -116 -1331 
L -116 -844 
L 38 -844 
Q 366 -844 484 -692 
Q 603 -541 603 -63 
L 603 3500 
z
M 603 4863 
L 1178 4863 
L 1178 4134 
L 603 4134 
L 603 4863 
z
" transform="scale(0.015625)"/>
      <path id="DejaVuSans-44" d="M 1259 4147 
L 1259 519 
L 2022 519 
Q 2988 519 3436 956 
Q 3884 1394 3884 2338 
Q 3884 3275 3436 3711 
Q 2988 4147 2022 4147 
L 1259 4147 
z
M 628 4666 
L 1925 4666 
Q 3281 4666 3915 4102 
Q 4550 3538 4550 2338 
Q 4550 1131 3912 565 
Q 3275 0 1925 0 
L 628 0 
L 628 4666 
z
" transform="scale(0.015625)"/>
     </defs>
     <use xlink:href="#DejaVuSans-62"/>
     <use xlink:href="#DejaVuSans-62" x="63.476562"/>
     <use xlink:href="#DejaVuSans-6f" x="126.953125"/>
     <use xlink:href="#DejaVuSans-62" x="188.134766"/>
     <use xlink:href="#DejaVuSans-2d" x="251.611328"/>
     <use xlink:href="#DejaVuSans-62" x="287.695312"/>
     <use xlink:href="#DejaVuSans-69" x="351.171875"/>
     <use xlink:href="#DejaVuSans-6f" x="378.955078"/>
     <use xlink:href="#DejaVuSans-62" x="440.136719"/>
     <use xlink:href="#DejaVuSans-6a" x="503.613281"/>
     <use xlink:href="#DejaVuSans-20" x="531.396484"/>
     <use xlink:href="#DejaVuSans-66" x="563.183594"/>
     <use xlink:href="#DejaVuSans-31" x="598.388672"/>
     <use xlink:href="#DejaVuSans-31" x="662.011719"/>
     <use xlink:href="#DejaVuSans-2c" x="725.634766"/>
     <use xlink:href="#DejaVuSans-20" x="757.421875"/>
     <use xlink:href="#DejaVuSans-32" x="789.208984"/>
     <use xlink:href="#DejaVuSans-2d" x="852.832031"/>
     <use xlink:href="#DejaVuSans-44" x="888.916016"/>
    </g>
    <!-- 58 targets: 1..-1.0e-4 -->
    <g transform="translate(60.632064 49.533135) scale(0.102 -0.102)">
     <defs>
      <path id="DejaVuSans-35" d="M 691 4666 
L 3169 4666 
L 3169 4134 
L 1269 4134 
L 1269 2991 
Q 1406 3038 1543 3061 
Q 1681 3084 1819 3084 
Q 2600 3084 3056 2656 
Q 3513 2228 3513 1497 
Q 3513 744 3044 326 
Q 2575 -91 1722 -91 
Q 1428 -91 1123 -41 
Q 819 9 494 109 
L 494 744 
Q 775 591 1075 516 
Q 1375 441 1709 441 
Q 2250 441 2565 725 
Q 2881 1009 2881 1497 
Q 2881 1984 2565 2268 
Q 2250 2553 1709 2553 
Q 1456 2553 1204 2497 
Q 953 2441 691 2322 
L 691 4666 
z
" transform="scale(0.015625)"/>
      <path id="DejaVuSans-3a" d="M 750 794 
L 1409 794 
L 1409 0 
L 750 0 
L 750 794 
z
M 750 3309 
L 1409 3309 
L 1409 2516 
L 750 2516 
L 750 3309 
z
" transform="scale(0.015625)"/>
     </defs>
     <use xlink:href="#DejaVuSans-35"/>
     <use xlink:href="#DejaVuSans-38" x="63.623047"/>
     <use xlink:href="#DejaVuSans-20" x="127.246094"/>
     <use xlink:href="#DejaVuSans-74" x="159.033203"/>
     <use xlink:href="#DejaVuSans-61" x="198.242188"/>
     <use xlink:href="#DejaVuSans-72" x="259.521484"/>
     <use xlink:href="#DejaVuSans-67" x="298.884766"/>
     <use xlink:href="#DejaVuSans-65" x="362.361328"/>
     <use xlink:href="#DejaVuSans-74" x="423.884766"/>
     <use xlink:href="#DejaVuSans-73" x="463.09375"/>
     <use xlink:href="#DejaVuSans-3a" x="515.193359"/>
     <use xlink:href="#DejaVuSans-20" x="548.884766"/>
     <use xlink:href="#DejaVuSans-31" x="580.671875"/>
     <use xlink:href="#DejaVuSans-2e" x="644.294922"/>
     <use xlink:href="#DejaVuSans-2e" x="676.082031"/>
     <use xlink:href="#DejaVuSans-2d" x="707.869141"/>
     <use xlink:href="#DejaVuSans-31" x="743.953125"/>
     <use xlink:href="#DejaVuSans-2e" x="807.576172"/>
     <use xlink:href="#DejaVuSans-30" x="839.363281"/>
     <use xlink:href="#DejaVuSans-65" x="902.986328"/>
     <use xlink:href="#DejaVuSans-2d" x="964.509766"/>
     <use xlink:href="#DejaVuSans-34" x="1000.59375"/>
    </g>
    <!-- 10 instances -->
    <g transform="translate(60.632064 60.954904) scale(0.102 -0.102)">
     <use xlink:href="#DejaVuSans-31"/>
     <use xlink:href="#DejaVuSans-30" x="63.623047"/>
     <use xlink:href="#DejaVuSans-20" x="127.246094"/>
     <use xlink:href="#DejaVuSans-69" x="159.033203"/>
     <use xlink:href="#DejaVuSans-6e" x="186.816406"/>
     <use xlink:href="#DejaVuSans-73" x="250.195312"/>
     <use xlink:href="#DejaVuSans-74" x="302.294922"/>
     <use xlink:href="#DejaVuSans-61" x="341.503906"/>
     <use xlink:href="#DejaVuSans-6e" x="402.783203"/>
     <use xlink:href="#DejaVuSans-63" x="466.162109"/>
     <use xlink:href="#DejaVuSans-65" x="521.142578"/>
     <use xlink:href="#DejaVuSans-73" x="582.666016"/>
    </g>
   </g>
   <g id="text_20">
    <!-- v2.6, hv-hash=d240b271ab0b4926 -->
    <g style="fill: #808080" transform="translate(120.362575 294.151352) scale(0.1 -0.1)">
     <defs>
      <path id="DejaVuSans-68" d="M 3513 2113 
L 3513 0 
L 2938 0 
L 2938 2094 
Q 2938 2591 2744 2837 
Q 2550 3084 2163 3084 
Q 1697 3084 1428 2787 
Q 1159 2491 1159 1978 
L 1159 0 
L 581 0 
L 581 4863 
L 1159 4863 
L 1159 2956 
Q 1366 3272 1645 3428 
Q 1925 3584 2291 3584 
Q 2894 3584 3203 3211 
Q 3513 2838 3513 2113 
z
" transform="scale(0.015625)"/>
      <path id="DejaVuSans-3d" d="M 678 2906 
L 4684 2906 
L 4684 2381 
L 678 2381 
L 678 2906 
z
M 678 1631 
L 4684 1631 
L 4684 1100 
L 678 1100 
L 678 1631 
z
" transform="scale(0.015625)"/>
      <path id="DejaVuSans-37" d="M 525 4666 
L 3525 4666 
L 3525 4397 
L 1831 0 
L 1172 0 
L 2766 4134 
L 525 4134 
L 525 4666 
z
" transform="scale(0.015625)"/>
      <path id="DejaVuSans-39" d="M 703 97 
L 703 672 
Q 941 559 1184 500 
Q 1428 441 1663 441 
Q 2288 441 2617 861 
Q 2947 1281 2994 2138 
Q 2813 1869 2534 1725 
Q 2256 1581 1919 1581 
Q 1219 1581 811 2004 
Q 403 2428 403 3163 
Q 403 3881 828 4315 
Q 1253 4750 1959 4750 
Q 2769 4750 3195 4129 
Q 3622 3509 3622 2328 
Q 3622 1225 3098 567 
Q 2575 -91 1691 -91 
Q 1453 -91 1209 -44 
Q 966 3 703 97 
z
M 1959 2075 
Q 2384 2075 2632 2365 
Q 2881 2656 2881 3163 
Q 2881 3666 2632 3958 
Q 2384 4250 1959 4250 
Q 1534 4250 1286 3958 
Q 1038 3666 1038 3163 
Q 1038 2656 1286 2365 
Q 1534 2075 1959 2075 
z
" transform="scale(0.015625)"/>
     </defs>
     <use xlink:href="#DejaVuSans-76"/>
     <use xlink:href="#DejaVuSans-32" x="59.179688"/>
     <use xlink:href="#DejaVuSans-2e" x="122.802734"/>
     <use xlink:href="#DejaVuSans-36" x="154.589844"/>
     <use xlink:href="#DejaVuSans-2c" x="218.212891"/>
     <use xlink:href="#DejaVuSans-20" x="250"/>
     <use xlink:href="#DejaVuSans-68" x="281.787109"/>
     <use xlink:href="#DejaVuSans-76" x="345.166016"/>
     <use xlink:href="#DejaVuSans-2d" x="401.720703"/>
     <use xlink:href="#DejaVuSans-68" x="437.804688"/>
     <use xlink:href="#DejaVuSans-61" x="501.183594"/>
     <use xlink:href="#DejaVuSans-73" x="562.462891"/>
     <use xlink:href="#DejaVuSans-68" x="614.5625"/>
     <use xlink:href="#DejaVuSans-3d" x="677.941406"/>
     <use xlink:href="#DejaVuSans-64" x="761.730469"/>
     <use xlink:href="#DejaVuSans-32" x="825.207031"/>
     <use xlink:href="#DejaVuSans-34" x="888.830078"/>
     <use xlink:href="#DejaVuSans-30" x="952.453125"/>
     <use xlink:href="#DejaVuSans-62" x="1016.076172"/>
     <use xlink:href="#DejaVuSans-32" x="1079.552734"/>
     <use xlink:href="#DejaVuSans-37" x="1143.175781"/>
     <use xlink:href="#DejaVuSans-31" x="1206.798828"/>
     <use xlink:href="#DejaVuSans-61" x="1270.421875"/>
     <use xlink:href="#DejaVuSans-62" x="1331.701172"/>
     <use xlink:href="#DejaVuSans-30" x="1395.177734"/>
     <use xlink:href="#DejaVuSans-62" x="1458.800781"/>
     <use xlink:href="#DejaVuSans-34" x="1522.277344"/>
     <use xlink:href="#DejaVuSans-39" x="1585.900391"/>
     <use xlink:href="#DejaVuSans-32" x="1649.523438"/>
     <use xlink:href="#DejaVuSans-36" x="1713.146484"/>
    </g>
   </g>
   <g id="text_21">
    <!-- 11 sep. Ellipsoid/sep. Elli. -->
    <g transform="translate(82.50945 21.648) scale(0.2 -0.2)">
     <defs>
      <path id="DejaVuSans-45" d="M 628 4666 
L 3578 4666 
L 3578 4134 
L 1259 4134 
L 1259 2753 
L 3481 2753 
L 3481 2222 
L 1259 2222 
L 1259 531 
L 3634 531 
L 3634 0 
L 628 0 
L 628 4666 
z
" transform="scale(0.015625)"/>
     </defs>
     <use xlink:href="#DejaVuSans-31"/>
     <use xlink:href="#DejaVuSans-31" x="63.623047"/>
     <use xlink:href="#DejaVuSans-20" x="127.246094"/>
     <use xlink:href="#DejaVuSans-73" x="159.033203"/>
     <use xlink:href="#DejaVuSans-65" x="211.132812"/>
     <use xlink:href="#DejaVuSans-70" x="272.65625"/>
     <use xlink:href="#DejaVuSans-2e" x="336.132812"/>
     <use xlink:href="#DejaVuSans-20" x="367.919922"/>
     <use xlink:href="#DejaVuSans-45" x="399.707031"/>
     <use xlink:href="#DejaVuSans-6c" x="462.890625"/>
     <use xlink:href="#DejaVuSans-6c" x="490.673828"/>
     <use xlink:href="#DejaVuSans-69" x="518.457031"/>
     <use xlink:href="#DejaVuSans-70" x="546.240234"/>
     <use xlink:href="#DejaVuSans-73" x="609.716797"/>
     <use xlink:href="#DejaVuSans-6f" x="661.816406"/>
     <use xlink:href="#DejaVuSans-69" x="722.998047"/>
     <use xlink:href="#DejaVuSans-64" x="750.78125"/>
     <use xlink:href="#DejaVuSans-2f" x="814.257812"/>
     <use xlink:href="#DejaVuSans-73" x="847.949219"/>
     <use xlink:href="#DejaVuSans-65" x="900.048828"/>
     <use xlink:href="#DejaVuSans-70" x="961.572266"/>
     <use xlink:href="#DejaVuSans-2e" x="1025.048828"/>
     <use xlink:href="#DejaVuSans-20" x="1056.835938"/>
     <use xlink:href="#DejaVuSans-45" x="1088.623047"/>
     <use xlink:href="#DejaVuSans-6c" x="1151.806641"/>
     <use xlink:href="#DejaVuSans-6c" x="1179.589844"/>
     <use xlink:href="#DejaVuSans-69" x="1207.373047"/>
     <use xlink:href="#DejaVuSans-2e" x="1235.15625"/>
    </g>
   </g>
  </g>
 </g>
 <defs>
  <clipPath id="p1a0f10f5d5">
   <rect x="57.6" y="27.648" width="303.2064" height="271.296"/>
  </clipPath>
 </defs>
</svg>
