<?xml version="1.0" encoding="utf-8" standalone="no"?>
<!DOCTYPE svg PUBLIC "-//W3C//DTD SVG 1.1//EN"
  "http://www.w3.org/Graphics/SVG/1.1/DTD/svg11.dtd">
<svg xmlns:xlink="http://www.w3.org/1999/xlink" width="460.8pt" height="345.6pt" viewBox="0 0 460.8 345.6" xmlns="http://www.w3.org/2000/svg" version="1.1">
 <metadata>
  <rdf:RDF xmlns:dc="http://purl.org/dc/elements/1.1/" xmlns:cc="http://creativecommons.org/ns#" xmlns:rdf="http://www.w3.org/1999/02/22-rdf-syntax-ns#">
   <cc:Work>
    <dc:type rdf:resource="http://purl.org/dc/dcmitype/StillImage"/>
    <dc:date>2023-02-10T22:27:53.664623</dc:date>
    <dc:format>image/svg+xml</dc:format>
    <dc:creator>
     <cc:Agent>
      <dc:title>Matplotlib v3.6.3, https://matplotlib.org/</dc:title>
     </cc:Agent>
    </dc:creator>
   </cc:Work>
  </rdf:RDF>
 </metadata>
 <defs>
  <style type="text/css">*{stroke-linejoin: round; stroke-linecap: butt}</style>
 </defs>
 <g id="figure_1">
  <g id="patch_1">
   <path d="M 0 345.6 
L 460.8 345.6 
L 460.8 0 
L 0 0 
z
" style="fill: #ffffff"/>
  </g>
  <g id="axes_1">
   <g id="patch_2">
    <path d="M 34.16 291.28 
L 453.192 291.28 
L 453.192 3 
L 34.16 3 
z
" style="fill: #ffffff"/>
   </g>
   <g id="matplotlib.axis_1">
    <g id="xtick_1">
     <g id="line2d_1">
      <path d="M 169.725883 291.28 
L 169.725883 3 
" clip-path="url(#p7b08600905)" style="fill: none; stroke: #b0b0b0; stroke-width: 0.8; stroke-linecap: square"/>
     </g>
     <g id="line2d_2">
      <defs>
       <path id="m9b5894e9d3" d="M 0 0 
L 0 3.5 
" style="stroke: #000000; stroke-width: 0.8"/>
      </defs>
      <g>
       <use xlink:href="#m9b5894e9d3" x="169.725883" y="291.28" style="stroke: #000000; stroke-width: 0.8"/>
      </g>
     </g>
     <g id="text_1">
      <!-- -1 -->
      <g transform="translate(159.755571 313.476875) scale(0.2 -0.2)">
       <defs>
        <path id="DejaVuSans-2d" d="M 313 2009 
L 1997 2009 
L 1997 1497 
L 313 1497 
L 313 2009 
z
" transform="scale(0.015625)"/>
        <path id="DejaVuSans-31" d="M 794 531 
L 1825 531 
L 1825 4091 
L 703 3866 
L 703 4441 
L 1819 4666 
L 2450 4666 
L 2450 531 
L 3481 531 
L 3481 0 
L 794 0 
L 794 531 
z
" transform="scale(0.015625)"/>
       </defs>
       <use xlink:href="#DejaVuSans-2d"/>
       <use xlink:href="#DejaVuSans-31" x="36.083984"/>
      </g>
     </g>
    </g>
    <g id="xtick_2">
     <g id="line2d_3">
      <path d="M 317.626117 291.28 
L 317.626117 3 
" clip-path="url(#p7b08600905)" style="fill: none; stroke: #b0b0b0; stroke-width: 0.8; stroke-linecap: square"/>
     </g>
     <g id="line2d_4">
      <g>
       <use xlink:href="#m9b5894e9d3" x="317.626117" y="291.28" style="stroke: #000000; stroke-width: 0.8"/>
      </g>
     </g>
     <g id="text_2">
      <!-- 1 -->
      <g transform="translate(311.263617 313.476875) scale(0.2 -0.2)">
       <use xlink:href="#DejaVuSans-31"/>
      </g>
     </g>
    </g>
    <g id="xtick_3">
     <g id="line2d_5">
      <defs>
       <path id="m576879c4a0" d="M 0 0 
L 0 2 
" style="stroke: #000000; stroke-width: 0.6"/>
      </defs>
      <g>
       <use xlink:href="#m576879c4a0" x="44.086853" y="291.28" style="stroke: #000000; stroke-width: 0.6"/>
      </g>
     </g>
    </g>
    <g id="xtick_4">
     <g id="line2d_6">
      <g>
       <use xlink:href="#m576879c4a0" x="57.108822" y="291.28" style="stroke: #000000; stroke-width: 0.6"/>
      </g>
     </g>
    </g>
    <g id="xtick_5">
     <g id="line2d_7">
      <g>
       <use xlink:href="#m576879c4a0" x="66.348056" y="291.28" style="stroke: #000000; stroke-width: 0.6"/>
      </g>
     </g>
    </g>
    <g id="xtick_6">
     <g id="line2d_8">
      <g>
       <use xlink:href="#m576879c4a0" x="73.514563" y="291.28" style="stroke: #000000; stroke-width: 0.6"/>
      </g>
     </g>
    </g>
    <g id="xtick_7">
     <g id="line2d_9">
      <g>
       <use xlink:href="#m576879c4a0" x="79.370025" y="291.28" style="stroke: #000000; stroke-width: 0.6"/>
      </g>
     </g>
    </g>
    <g id="xtick_8">
     <g id="line2d_10">
      <g>
       <use xlink:href="#m576879c4a0" x="84.320748" y="291.28" style="stroke: #000000; stroke-width: 0.6"/>
      </g>
     </g>
    </g>
    <g id="xtick_9">
     <g id="line2d_11">
      <g>
       <use xlink:href="#m576879c4a0" x="88.609259" y="291.28" style="stroke: #000000; stroke-width: 0.6"/>
      </g>
     </g>
    </g>
    <g id="xtick_10">
     <g id="line2d_12">
      <g>
       <use xlink:href="#m576879c4a0" x="92.391994" y="291.28" style="stroke: #000000; stroke-width: 0.6"/>
      </g>
     </g>
    </g>
    <g id="xtick_11">
     <g id="line2d_13">
      <g>
       <use xlink:href="#m576879c4a0" x="118.036969" y="291.28" style="stroke: #000000; stroke-width: 0.6"/>
      </g>
     </g>
    </g>
    <g id="xtick_12">
     <g id="line2d_14">
      <g>
       <use xlink:href="#m576879c4a0" x="131.058939" y="291.28" style="stroke: #000000; stroke-width: 0.6"/>
      </g>
     </g>
    </g>
    <g id="xtick_13">
     <g id="line2d_15">
      <g>
       <use xlink:href="#m576879c4a0" x="140.298173" y="291.28" style="stroke: #000000; stroke-width: 0.6"/>
      </g>
     </g>
    </g>
    <g id="xtick_14">
     <g id="line2d_16">
      <g>
       <use xlink:href="#m576879c4a0" x="147.46468" y="291.28" style="stroke: #000000; stroke-width: 0.6"/>
      </g>
     </g>
    </g>
    <g id="xtick_15">
     <g id="line2d_17">
      <g>
       <use xlink:href="#m576879c4a0" x="153.320142" y="291.28" style="stroke: #000000; stroke-width: 0.6"/>
      </g>
     </g>
    </g>
    <g id="xtick_16">
     <g id="line2d_18">
      <g>
       <use xlink:href="#m576879c4a0" x="158.270865" y="291.28" style="stroke: #000000; stroke-width: 0.6"/>
      </g>
     </g>
    </g>
    <g id="xtick_17">
     <g id="line2d_19">
      <g>
       <use xlink:href="#m576879c4a0" x="162.559376" y="291.28" style="stroke: #000000; stroke-width: 0.6"/>
      </g>
     </g>
    </g>
    <g id="xtick_18">
     <g id="line2d_20">
      <g>
       <use xlink:href="#m576879c4a0" x="166.342111" y="291.28" style="stroke: #000000; stroke-width: 0.6"/>
      </g>
     </g>
    </g>
    <g id="xtick_19">
     <g id="line2d_21">
      <g>
       <use xlink:href="#m576879c4a0" x="191.987086" y="291.28" style="stroke: #000000; stroke-width: 0.6"/>
      </g>
     </g>
    </g>
    <g id="xtick_20">
     <g id="line2d_22">
      <g>
       <use xlink:href="#m576879c4a0" x="205.009056" y="291.28" style="stroke: #000000; stroke-width: 0.6"/>
      </g>
     </g>
    </g>
    <g id="xtick_21">
     <g id="line2d_23">
      <g>
       <use xlink:href="#m576879c4a0" x="214.24829" y="291.28" style="stroke: #000000; stroke-width: 0.6"/>
      </g>
     </g>
    </g>
    <g id="xtick_22">
     <g id="line2d_24">
      <g>
       <use xlink:href="#m576879c4a0" x="221.414797" y="291.28" style="stroke: #000000; stroke-width: 0.6"/>
      </g>
     </g>
    </g>
    <g id="xtick_23">
     <g id="line2d_25">
      <g>
       <use xlink:href="#m576879c4a0" x="227.270259" y="291.28" style="stroke: #000000; stroke-width: 0.6"/>
      </g>
     </g>
    </g>
    <g id="xtick_24">
     <g id="line2d_26">
      <g>
       <use xlink:href="#m576879c4a0" x="232.220982" y="291.28" style="stroke: #000000; stroke-width: 0.6"/>
      </g>
     </g>
    </g>
    <g id="xtick_25">
     <g id="line2d_27">
      <g>
       <use xlink:href="#m576879c4a0" x="236.509493" y="291.28" style="stroke: #000000; stroke-width: 0.6"/>
      </g>
     </g>
    </g>
    <g id="xtick_26">
     <g id="line2d_28">
      <g>
       <use xlink:href="#m576879c4a0" x="240.292228" y="291.28" style="stroke: #000000; stroke-width: 0.6"/>
      </g>
     </g>
    </g>
    <g id="xtick_27">
     <g id="line2d_29">
      <g>
       <use xlink:href="#m576879c4a0" x="265.937203" y="291.28" style="stroke: #000000; stroke-width: 0.6"/>
      </g>
     </g>
    </g>
    <g id="xtick_28">
     <g id="line2d_30">
      <g>
       <use xlink:href="#m576879c4a0" x="278.959173" y="291.28" style="stroke: #000000; stroke-width: 0.6"/>
      </g>
     </g>
    </g>
    <g id="xtick_29">
     <g id="line2d_31">
      <g>
       <use xlink:href="#m576879c4a0" x="288.198407" y="291.28" style="stroke: #000000; stroke-width: 0.6"/>
      </g>
     </g>
    </g>
    <g id="xtick_30">
     <g id="line2d_32">
      <g>
       <use xlink:href="#m576879c4a0" x="295.364914" y="291.28" style="stroke: #000000; stroke-width: 0.6"/>
      </g>
     </g>
    </g>
    <g id="xtick_31">
     <g id="line2d_33">
      <g>
       <use xlink:href="#m576879c4a0" x="301.220376" y="291.28" style="stroke: #000000; stroke-width: 0.6"/>
      </g>
     </g>
    </g>
    <g id="xtick_32">
     <g id="line2d_34">
      <g>
       <use xlink:href="#m576879c4a0" x="306.171099" y="291.28" style="stroke: #000000; stroke-width: 0.6"/>
      </g>
     </g>
    </g>
    <g id="xtick_33">
     <g id="line2d_35">
      <g>
       <use xlink:href="#m576879c4a0" x="310.45961" y="291.28" style="stroke: #000000; stroke-width: 0.6"/>
      </g>
     </g>
    </g>
    <g id="xtick_34">
     <g id="line2d_36">
      <g>
       <use xlink:href="#m576879c4a0" x="314.242345" y="291.28" style="stroke: #000000; stroke-width: 0.6"/>
      </g>
     </g>
    </g>
    <g id="xtick_35">
     <g id="line2d_37">
      <g>
       <use xlink:href="#m576879c4a0" x="339.88732" y="291.28" style="stroke: #000000; stroke-width: 0.6"/>
      </g>
     </g>
    </g>
    <g id="xtick_36">
     <g id="line2d_38">
      <g>
       <use xlink:href="#m576879c4a0" x="352.90929" y="291.28" style="stroke: #000000; stroke-width: 0.6"/>
      </g>
     </g>
    </g>
    <g id="xtick_37">
     <g id="line2d_39">
      <g>
       <use xlink:href="#m576879c4a0" x="362.148524" y="291.28" style="stroke: #000000; stroke-width: 0.6"/>
      </g>
     </g>
    </g>
    <g id="xtick_38">
     <g id="line2d_40">
      <g>
       <use xlink:href="#m576879c4a0" x="369.315031" y="291.28" style="stroke: #000000; stroke-width: 0.6"/>
      </g>
     </g>
    </g>
    <g id="xtick_39">
     <g id="line2d_41">
      <g>
       <use xlink:href="#m576879c4a0" x="375.170493" y="291.28" style="stroke: #000000; stroke-width: 0.6"/>
      </g>
     </g>
    </g>
    <g id="xtick_40">
     <g id="line2d_42">
      <g>
       <use xlink:href="#m576879c4a0" x="380.121216" y="291.28" style="stroke: #000000; stroke-width: 0.6"/>
      </g>
     </g>
    </g>
    <g id="xtick_41">
     <g id="line2d_43">
      <g>
       <use xlink:href="#m576879c4a0" x="384.409727" y="291.28" style="stroke: #000000; stroke-width: 0.6"/>
      </g>
     </g>
    </g>
    <g id="xtick_42">
     <g id="line2d_44">
      <g>
       <use xlink:href="#m576879c4a0" x="388.192462" y="291.28" style="stroke: #000000; stroke-width: 0.6"/>
      </g>
     </g>
    </g>
    <g id="xtick_43">
     <g id="line2d_45">
      <g>
       <use xlink:href="#m576879c4a0" x="413.837437" y="291.28" style="stroke: #000000; stroke-width: 0.6"/>
      </g>
     </g>
    </g>
    <g id="xtick_44">
     <g id="line2d_46">
      <g>
       <use xlink:href="#m576879c4a0" x="426.859406" y="291.28" style="stroke: #000000; stroke-width: 0.6"/>
      </g>
     </g>
    </g>
    <g id="xtick_45">
     <g id="line2d_47">
      <g>
       <use xlink:href="#m576879c4a0" x="436.098641" y="291.28" style="stroke: #000000; stroke-width: 0.6"/>
      </g>
     </g>
    </g>
    <g id="xtick_46">
     <g id="line2d_48">
      <g>
       <use xlink:href="#m576879c4a0" x="443.265147" y="291.28" style="stroke: #000000; stroke-width: 0.6"/>
      </g>
     </g>
    </g>
    <g id="xtick_47">
     <g id="line2d_49">
      <g>
       <use xlink:href="#m576879c4a0" x="449.12061" y="291.28" style="stroke: #000000; stroke-width: 0.6"/>
      </g>
     </g>
    </g>
    <g id="text_3">
     <!-- log10 of FEvals ratio -->
     <g transform="translate(141.371312 336.833125) scale(0.2 -0.2)">
      <defs>
       <path id="DejaVuSans-6c" d="M 603 4863 
L 1178 4863 
L 1178 0 
L 603 0 
L 603 4863 
z
" transform="scale(0.015625)"/>
       <path id="DejaVuSans-6f" d="M 1959 3097 
Q 1497 3097 1228 2736 
Q 959 2375 959 1747 
Q 959 1119 1226 758 
Q 1494 397 1959 397 
Q 2419 397 2687 759 
Q 2956 1122 2956 1747 
Q 2956 2369 2687 2733 
Q 2419 3097 1959 3097 
z
M 1959 3584 
Q 2709 3584 3137 3096 
Q 3566 2609 3566 1747 
Q 3566 888 3137 398 
Q 2709 -91 1959 -91 
Q 1206 -91 779 398 
Q 353 888 353 1747 
Q 353 2609 779 3096 
Q 1206 3584 1959 3584 
z
" transform="scale(0.015625)"/>
       <path id="DejaVuSans-67" d="M 2906 1791 
Q 2906 2416 2648 2759 
Q 2391 3103 1925 3103 
Q 1463 3103 1205 2759 
Q 947 2416 947 1791 
Q 947 1169 1205 825 
Q 1463 481 1925 481 
Q 2391 481 2648 825 
Q 2906 1169 2906 1791 
z
M 3481 434 
Q 3481 -459 3084 -895 
Q 2688 -1331 1869 -1331 
Q 1566 -1331 1297 -1286 
Q 1028 -1241 775 -1147 
L 775 -588 
Q 1028 -725 1275 -790 
Q 1522 -856 1778 -856 
Q 2344 -856 2625 -561 
Q 2906 -266 2906 331 
L 2906 616 
Q 2728 306 2450 153 
Q 2172 0 1784 0 
Q 1141 0 747 490 
Q 353 981 353 1791 
Q 353 2603 747 3093 
Q 1141 3584 1784 3584 
Q 2172 3584 2450 3431 
Q 2728 3278 2906 2969 
L 2906 3500 
L 3481 3500 
L 3481 434 
z
" transform="scale(0.015625)"/>
       <path id="DejaVuSans-30" d="M 2034 4250 
Q 1547 4250 1301 3770 
Q 1056 3291 1056 2328 
Q 1056 1369 1301 889 
Q 1547 409 2034 409 
Q 2525 409 2770 889 
Q 3016 1369 3016 2328 
Q 3016 3291 2770 3770 
Q 2525 4250 2034 4250 
z
M 2034 4750 
Q 2819 4750 3233 4129 
Q 3647 3509 3647 2328 
Q 3647 1150 3233 529 
Q 2819 -91 2034 -91 
Q 1250 -91 836 529 
Q 422 1150 422 2328 
Q 422 3509 836 4129 
Q 1250 4750 2034 4750 
z
" transform="scale(0.015625)"/>
       <path id="DejaVuSans-20" transform="scale(0.015625)"/>
       <path id="DejaVuSans-66" d="M 2375 4863 
L 2375 4384 
L 1825 4384 
Q 1516 4384 1395 4259 
Q 1275 4134 1275 3809 
L 1275 3500 
L 2222 3500 
L 2222 3053 
L 1275 3053 
L 1275 0 
L 697 0 
L 697 3053 
L 147 3053 
L 147 3500 
L 697 3500 
L 697 3744 
Q 697 4328 969 4595 
Q 1241 4863 1831 4863 
L 2375 4863 
z
" transform="scale(0.015625)"/>
       <path id="DejaVuSans-46" d="M 628 4666 
L 3309 4666 
L 3309 4134 
L 1259 4134 
L 1259 2759 
L 3109 2759 
L 3109 2228 
L 1259 2228 
L 1259 0 
L 628 0 
L 628 4666 
z
" transform="scale(0.015625)"/>
       <path id="DejaVuSans-45" d="M 628 4666 
L 3578 4666 
L 3578 4134 
L 1259 4134 
L 1259 2753 
L 3481 2753 
L 3481 2222 
L 1259 2222 
L 1259 531 
L 3634 531 
L 3634 0 
L 628 0 
L 628 4666 
z
" transform="scale(0.015625)"/>
       <path id="DejaVuSans-76" d="M 191 3500 
L 800 3500 
L 1894 563 
L 2988 3500 
L 3597 3500 
L 2284 0 
L 1503 0 
L 191 3500 
z
" transform="scale(0.015625)"/>
       <path id="DejaVuSans-61" d="M 2194 1759 
Q 1497 1759 1228 1600 
Q 959 1441 959 1056 
Q 959 750 1161 570 
Q 1363 391 1709 391 
Q 2188 391 2477 730 
Q 2766 1069 2766 1631 
L 2766 1759 
L 2194 1759 
z
M 3341 1997 
L 3341 0 
L 2766 0 
L 2766 531 
Q 2569 213 2275 61 
Q 1981 -91 1556 -91 
Q 1019 -91 701 211 
Q 384 513 384 1019 
Q 384 1609 779 1909 
Q 1175 2209 1959 2209 
L 2766 2209 
L 2766 2266 
Q 2766 2663 2505 2880 
Q 2244 3097 1772 3097 
Q 1472 3097 1187 3025 
Q 903 2953 641 2809 
L 641 3341 
Q 956 3463 1253 3523 
Q 1550 3584 1831 3584 
Q 2591 3584 2966 3190 
Q 3341 2797 3341 1997 
z
" transform="scale(0.015625)"/>
       <path id="DejaVuSans-73" d="M 2834 3397 
L 2834 2853 
Q 2591 2978 2328 3040 
Q 2066 3103 1784 3103 
Q 1356 3103 1142 2972 
Q 928 2841 928 2578 
Q 928 2378 1081 2264 
Q 1234 2150 1697 2047 
L 1894 2003 
Q 2506 1872 2764 1633 
Q 3022 1394 3022 966 
Q 3022 478 2636 193 
Q 2250 -91 1575 -91 
Q 1294 -91 989 -36 
Q 684 19 347 128 
L 347 722 
Q 666 556 975 473 
Q 1284 391 1588 391 
Q 1994 391 2212 530 
Q 2431 669 2431 922 
Q 2431 1156 2273 1281 
Q 2116 1406 1581 1522 
L 1381 1569 
Q 847 1681 609 1914 
Q 372 2147 372 2553 
Q 372 3047 722 3315 
Q 1072 3584 1716 3584 
Q 2034 3584 2315 3537 
Q 2597 3491 2834 3397 
z
" transform="scale(0.015625)"/>
       <path id="DejaVuSans-72" d="M 2631 2963 
Q 2534 3019 2420 3045 
Q 2306 3072 2169 3072 
Q 1681 3072 1420 2755 
Q 1159 2438 1159 1844 
L 1159 0 
L 581 0 
L 581 3500 
L 1159 3500 
L 1159 2956 
Q 1341 3275 1631 3429 
Q 1922 3584 2338 3584 
Q 2397 3584 2469 3576 
Q 2541 3569 2628 3553 
L 2631 2963 
z
" transform="scale(0.015625)"/>
       <path id="DejaVuSans-74" d="M 1172 4494 
L 1172 3500 
L 2356 3500 
L 2356 3053 
L 1172 3053 
L 1172 1153 
Q 1172 725 1289 603 
Q 1406 481 1766 481 
L 2356 481 
L 2356 0 
L 1766 0 
Q 1100 0 847 248 
Q 594 497 594 1153 
L 594 3053 
L 172 3053 
L 172 3500 
L 594 3500 
L 594 4494 
L 1172 4494 
z
" transform="scale(0.015625)"/>
       <path id="DejaVuSans-69" d="M 603 3500 
L 1178 3500 
L 1178 0 
L 603 0 
L 603 3500 
z
M 603 4863 
L 1178 4863 
L 1178 4134 
L 603 4134 
L 603 4863 
z
" transform="scale(0.015625)"/>
      </defs>
      <use xlink:href="#DejaVuSans-6c"/>
      <use xlink:href="#DejaVuSans-6f" x="27.783203"/>
      <use xlink:href="#DejaVuSans-67" x="88.964844"/>
      <use xlink:href="#DejaVuSans-31" x="152.441406"/>
      <use xlink:href="#DejaVuSans-30" x="216.064453"/>
      <use xlink:href="#DejaVuSans-20" x="279.6875"/>
      <use xlink:href="#DejaVuSans-6f" x="311.474609"/>
      <use xlink:href="#DejaVuSans-66" x="372.65625"/>
      <use xlink:href="#DejaVuSans-20" x="407.861328"/>
      <use xlink:href="#DejaVuSans-46" x="439.648438"/>
      <use xlink:href="#DejaVuSans-45" x="497.167969"/>
      <use xlink:href="#DejaVuSans-76" x="560.351562"/>
      <use xlink:href="#DejaVuSans-61" x="619.53125"/>
      <use xlink:href="#DejaVuSans-6c" x="680.810547"/>
      <use xlink:href="#DejaVuSans-73" x="708.59375"/>
      <use xlink:href="#DejaVuSans-20" x="760.693359"/>
      <use xlink:href="#DejaVuSans-72" x="792.480469"/>
      <use xlink:href="#DejaVuSans-61" x="833.59375"/>
      <use xlink:href="#DejaVuSans-74" x="894.873047"/>
      <use xlink:href="#DejaVuSans-69" x="934.082031"/>
      <use xlink:href="#DejaVuSans-6f" x="961.865234"/>
     </g>
    </g>
   </g>
   <g id="matplotlib.axis_2">
    <g id="ytick_1">
     <g id="line2d_50">
      <path d="M 34.16 288.453725 
L 453.192 288.453725 
" clip-path="url(#p7b08600905)" style="fill: none; stroke: #b0b0b0; stroke-width: 0.8; stroke-linecap: square"/>
     </g>
     <g id="line2d_51">
      <defs>
       <path id="m1934e0cf44" d="M 0 0 
L -3.5 0 
" style="stroke: #000000; stroke-width: 0.8"/>
      </defs>
      <g>
       <use xlink:href="#m1934e0cf44" x="34.16" y="288.453725" style="stroke: #000000; stroke-width: 0.8"/>
      </g>
     </g>
    </g>
    <g id="ytick_2">
     <g id="line2d_52">
      <path d="M 34.16 217.796863 
L 453.192 217.796863 
" clip-path="url(#p7b08600905)" style="fill: none; stroke: #b0b0b0; stroke-width: 0.8; stroke-linecap: square"/>
     </g>
     <g id="line2d_53">
      <g>
       <use xlink:href="#m1934e0cf44" x="34.16" y="217.796863" style="stroke: #000000; stroke-width: 0.8"/>
      </g>
     </g>
    </g>
    <g id="ytick_3">
     <g id="line2d_54">
      <path d="M 34.16 147.14 
L 453.192 147.14 
" clip-path="url(#p7b08600905)" style="fill: none; stroke: #b0b0b0; stroke-width: 0.8; stroke-linecap: square"/>
     </g>
     <g id="line2d_55">
      <g>
       <use xlink:href="#m1934e0cf44" x="34.16" y="147.14" style="stroke: #000000; stroke-width: 0.8"/>
      </g>
     </g>
    </g>
    <g id="ytick_4">
     <g id="line2d_56">
      <path d="M 34.16 76.483137 
L 453.192 76.483137 
" clip-path="url(#p7b08600905)" style="fill: none; stroke: #b0b0b0; stroke-width: 0.8; stroke-linecap: square"/>
     </g>
     <g id="line2d_57">
      <g>
       <use xlink:href="#m1934e0cf44" x="34.16" y="76.483137" style="stroke: #000000; stroke-width: 0.8"/>
      </g>
     </g>
    </g>
    <g id="ytick_5">
     <g id="line2d_58">
      <path d="M 34.16 5.826275 
L 453.192 5.826275 
" clip-path="url(#p7b08600905)" style="fill: none; stroke: #b0b0b0; stroke-width: 0.8; stroke-linecap: square"/>
     </g>
     <g id="line2d_59">
      <g>
       <use xlink:href="#m1934e0cf44" x="34.16" y="5.826275" style="stroke: #000000; stroke-width: 0.8"/>
      </g>
     </g>
    </g>
    <g id="text_4">
     <!-- proportion of trials -->
     <g transform="translate(19.000625 240.14625) rotate(-90) scale(0.2 -0.2)">
      <defs>
       <path id="DejaVuSans-70" d="M 1159 525 
L 1159 -1331 
L 581 -1331 
L 581 3500 
L 1159 3500 
L 1159 2969 
Q 1341 3281 1617 3432 
Q 1894 3584 2278 3584 
Q 2916 3584 3314 3078 
Q 3713 2572 3713 1747 
Q 3713 922 3314 415 
Q 2916 -91 2278 -91 
Q 1894 -91 1617 61 
Q 1341 213 1159 525 
z
M 3116 1747 
Q 3116 2381 2855 2742 
Q 2594 3103 2138 3103 
Q 1681 3103 1420 2742 
Q 1159 2381 1159 1747 
Q 1159 1113 1420 752 
Q 1681 391 2138 391 
Q 2594 391 2855 752 
Q 3116 1113 3116 1747 
z
" transform="scale(0.015625)"/>
       <path id="DejaVuSans-6e" d="M 3513 2113 
L 3513 0 
L 2938 0 
L 2938 2094 
Q 2938 2591 2744 2837 
Q 2550 3084 2163 3084 
Q 1697 3084 1428 2787 
Q 1159 2491 1159 1978 
L 1159 0 
L 581 0 
L 581 3500 
L 1159 3500 
L 1159 2956 
Q 1366 3272 1645 3428 
Q 1925 3584 2291 3584 
Q 2894 3584 3203 3211 
Q 3513 2838 3513 2113 
z
" transform="scale(0.015625)"/>
      </defs>
      <use xlink:href="#DejaVuSans-70"/>
      <use xlink:href="#DejaVuSans-72" x="63.476562"/>
      <use xlink:href="#DejaVuSans-6f" x="102.339844"/>
      <use xlink:href="#DejaVuSans-70" x="163.521484"/>
      <use xlink:href="#DejaVuSans-6f" x="226.998047"/>
      <use xlink:href="#DejaVuSans-72" x="288.179688"/>
      <use xlink:href="#DejaVuSans-74" x="329.292969"/>
      <use xlink:href="#DejaVuSans-69" x="368.501953"/>
      <use xlink:href="#DejaVuSans-6f" x="396.285156"/>
      <use xlink:href="#DejaVuSans-6e" x="457.466797"/>
      <use xlink:href="#DejaVuSans-20" x="520.845703"/>
      <use xlink:href="#DejaVuSans-6f" x="552.632812"/>
      <use xlink:href="#DejaVuSans-66" x="613.814453"/>
      <use xlink:href="#DejaVuSans-20" x="649.019531"/>
      <use xlink:href="#DejaVuSans-74" x="680.806641"/>
      <use xlink:href="#DejaVuSans-72" x="720.015625"/>
      <use xlink:href="#DejaVuSans-69" x="761.128906"/>
      <use xlink:href="#DejaVuSans-61" x="788.912109"/>
      <use xlink:href="#DejaVuSans-6c" x="850.191406"/>
      <use xlink:href="#DejaVuSans-73" x="877.974609"/>
     </g>
    </g>
   </g>
   <g id="line2d_60">
    <path d="M 34.16 277.034435 
L 50.594893 277.034435 
L 50.594893 276.320729 
L 54.29486 276.320729 
L 54.29486 275.607023 
L 54.66263 275.607023 
L 54.66263 274.893317 
L 58.091784 274.893317 
L 58.091784 274.179612 
L 64.046743 274.179612 
L 64.046743 273.465906 
L 67.279023 273.465906 
L 67.279023 272.7522 
L 93.134597 272.7522 
L 93.134597 272.038495 
L 101.049267 272.038495 
L 101.049267 271.324789 
L 126.971783 271.324789 
L 127.000312 269.897378 
L 127.707299 269.897378 
L 127.707299 269.183672 
L 136.319594 269.183672 
L 136.319594 268.469966 
L 140.019561 268.469966 
L 140.019561 267.756261 
L 140.387331 267.756261 
L 140.387331 267.042555 
L 143.816485 267.042555 
L 143.820182 265.615144 
L 145.667229 265.615144 
L 145.667229 264.901438 
L 149.771444 264.901438 
L 149.771444 264.187732 
L 150.063467 264.187732 
L 150.063467 263.474027 
L 151.104358 263.474027 
L 151.104358 262.760321 
L 152.875232 262.760321 
L 152.875232 262.046615 
L 153.003724 262.046615 
L 153.003724 261.332909 
L 169.537518 261.332909 
L 169.537518 260.619204 
L 173.934151 260.619204 
L 173.934151 259.905498 
L 174.685241 259.905498 
L 174.685241 259.191792 
L 175.248422 259.191792 
L 175.248422 258.478087 
L 178.650925 258.478087 
L 178.650925 257.764381 
L 178.859298 257.764381 
L 178.859298 257.050675 
L 179.133291 257.050675 
L 179.133291 256.33697 
L 179.633085 256.33697 
L 179.633085 255.623264 
L 180.762407 255.623264 
L 180.762407 254.909558 
L 183.209963 254.909558 
L 183.209963 254.195853 
L 184.462374 254.195853 
L 184.462374 253.482147 
L 184.830144 253.482147 
L 184.830144 252.768441 
L 186.773968 252.768441 
L 186.773968 252.054736 
L 187.384105 252.054736 
L 187.384105 251.34103 
L 188.091093 251.34103 
L 188.091093 250.627324 
L 188.259298 250.627324 
L 188.259298 249.913619 
L 193.270393 249.913619 
L 193.270393 249.199913 
L 194.214257 249.199913 
L 194.214257 248.486207 
L 197.446537 248.486207 
L 197.446537 247.772501 
L 198.476283 247.772501 
L 198.476283 247.058796 
L 198.639724 247.058796 
L 198.639724 246.34509 
L 198.856965 246.34509 
L 198.856965 245.631384 
L 199.608054 245.631384 
L 199.608054 244.917679 
L 201.722526 244.917679 
L 201.723706 243.490267 
L 202.430694 243.490267 
L 202.430694 242.776562 
L 203.573738 242.776562 
L 203.573738 242.062856 
L 204.056104 242.062856 
L 204.056104 241.34915 
L 204.203976 241.34915 
L 204.203976 240.635445 
L 204.555899 240.635445 
L 204.555899 239.921739 
L 205.422493 239.921739 
L 205.422493 239.208033 
L 205.790263 239.208033 
L 205.790263 238.494328 
L 206.051023 238.494328 
L 206.051023 237.780622 
L 208.5139 237.780622 
L 208.5139 237.066916 
L 209.219417 237.066916 
L 209.220887 235.639505 
L 210.44726 235.639505 
L 210.44726 234.925799 
L 210.718308 234.925799 
L 210.718308 234.212093 
L 211.425295 234.212093 
L 211.488152 232.784682 
L 211.72367 232.784682 
L 211.771118 231.357271 
L 212.696484 231.357271 
L 212.696484 230.643565 
L 213.259025 230.643565 
L 213.259025 229.929859 
L 213.732357 229.929859 
L 213.732357 229.216154 
L 215.174376 229.216154 
L 215.174376 228.502448 
L 218.193206 228.502448 
L 218.193206 227.788742 
L 218.308104 227.788742 
L 218.406656 225.647625 
L 218.543577 225.647625 
L 218.543577 224.93392 
L 218.89998 224.93392 
L 218.89998 224.220214 
L 219.015091 224.220214 
L 219.015091 223.506508 
L 219.332507 223.506508 
L 219.368491 222.079097 
L 219.606967 222.079097 
L 219.606967 221.365391 
L 220.083596 221.365391 
L 220.083596 220.651685 
L 220.348063 220.651685 
L 220.390623 219.224274 
L 221.241896 219.224274 
L 221.241896 218.510568 
L 221.68582 218.510568 
L 221.68582 217.796863 
L 222.419675 217.796863 
L 222.528253 216.369451 
L 222.843392 216.369451 
L 222.843392 215.655746 
L 223.170764 215.655746 
L 223.170764 214.94204 
L 223.302111 214.94204 
L 223.399097 212.800923 
L 223.562538 212.800923 
L 223.575981 211.373512 
L 224.04928 211.373512 
L 224.04928 210.659806 
L 224.32707 210.659806 
L 224.32707 209.9461 
L 224.531646 209.9461 
L 224.531646 209.232395 
L 224.727136 209.232395 
L 224.786861 207.804983 
L 225.03144 207.804983 
L 225.03144 207.091277 
L 225.33377 207.091277 
L 225.434123 205.663866 
L 225.827753 205.663866 
L 225.827753 204.95016 
L 225.984198 204.95016 
L 225.984198 204.236455 
L 226.420054 204.236455 
L 226.420054 203.522749 
L 226.543359 203.522749 
L 226.57091 202.095338 
L 226.911129 202.095338 
L 226.911129 201.381632 
L 227.136448 201.381632 
L 227.180817 199.954221 
L 227.538178 199.954221 
L 227.618815 197.813104 
L 227.857603 197.813104 
L 227.857603 197.099398 
L 228.118609 197.099398 
L 228.118609 196.385692 
L 228.292754 196.385692 
L 228.292754 195.671987 
L 228.579597 195.671987 
L 228.579597 194.958281 
L 228.77512 194.958281 
L 228.77512 194.244575 
L 229.143959 194.244575 
L 229.143959 193.530869 
L 229.274914 193.530869 
L 229.385225 192.103458 
L 229.921312 192.103458 
L 229.961959 190.676047 
L 230.120021 190.676047 
L 230.120021 189.962341 
L 230.340283 189.962341 
L 230.340283 189.248635 
L 230.487791 189.248635 
L 230.569784 187.821224 
L 230.850083 187.821224 
L 230.850083 187.107518 
L 231.043932 187.107518 
L 231.043932 186.393813 
L 231.216781 186.393813 
L 231.216781 185.680107 
L 231.503846 185.680107 
L 231.577054 184.252696 
L 231.795021 184.252696 
L 231.795021 183.53899 
L 232.578471 183.53899 
L 232.617946 182.111579 
L 233.781463 182.111579 
L 233.781463 181.397873 
L 233.916945 181.397873 
L 233.916945 180.684167 
L 234.215732 180.684167 
L 234.215732 179.970461 
L 234.383301 179.970461 
L 234.388819 178.54305 
L 234.55005 178.54305 
L 234.55005 177.829344 
L 234.822354 177.829344 
L 234.91782 176.401933 
L 235.127974 176.401933 
L 235.127974 175.688227 
L 235.632215 175.688227 
L 235.71985 174.260816 
L 235.760705 174.260816 
L 235.760705 173.54711 
L 236.089137 173.54711 
L 236.089137 172.833405 
L 236.243071 172.833405 
L 236.295242 171.405993 
L 236.391989 171.405993 
L 236.391989 170.692288 
L 236.593228 170.692288 
L 236.693932 169.264876 
L 236.742865 169.264876 
L 236.742865 168.551171 
L 236.975021 168.551171 
L 237.033349 167.123759 
L 237.375493 167.123759 
L 237.375493 166.410053 
L 237.566897 166.410053 
L 237.566897 165.696348 
L 237.919274 165.696348 
L 237.919274 164.982642 
L 238.193493 164.982642 
L 238.214605 163.555231 
L 238.346974 163.555231 
L 238.346974 162.841525 
L 238.668748 162.841525 
L 238.668748 162.127819 
L 239.347694 162.127819 
L 239.347694 161.414114 
L 239.527522 161.414114 
L 239.527522 160.700408 
L 239.871904 160.700408 
L 239.871904 159.986702 
L 240.088011 159.986702 
L 240.098783 158.559291 
L 240.422517 158.559291 
L 240.422517 157.845585 
L 240.733316 157.845585 
L 240.733316 157.13188 
L 241.101086 157.13188 
L 241.101086 156.418174 
L 241.215153 156.418174 
L 241.215153 155.704468 
L 241.371259 155.704468 
L 241.374367 154.277057 
L 241.547006 154.277057 
L 241.619241 152.849645 
L 241.755917 152.849645 
L 241.755917 152.13594 
L 241.922141 152.13594 
L 242.028123 149.281117 
L 242.192367 149.281117 
L 242.192367 148.567411 
L 242.412151 148.567411 
L 242.412151 147.853706 
L 242.912222 147.853706 
L 243.004026 146.426294 
L 243.104184 146.426294 
L 243.159029 144.998883 
L 243.394053 144.998883 
L 243.394053 144.285177 
L 243.874638 144.285177 
L 243.901528 142.857766 
L 243.994931 142.857766 
L 244.064467 140.716649 
L 244.183024 140.716649 
L 244.26223 138.575532 
L 244.301933 138.575532 
L 244.301933 137.861826 
L 244.53024 137.861826 
L 244.546833 136.434415 
L 244.664522 136.434415 
L 244.774899 135.007003 
L 244.852122 135.007003 
L 244.852122 134.293298 
L 245.046628 134.293298 
L 245.046628 133.579592 
L 245.167716 133.579592 
L 245.187884 132.152181 
L 245.415611 132.152181 
L 245.416164 130.724769 
L 245.603211 130.724769 
L 245.603211 130.011064 
L 246.003619 130.011064 
L 246.005884 128.583652 
L 246.677688 128.583652 
L 246.677688 127.869947 
L 246.961807 127.869947 
L 247.038223 126.442535 
L 247.125248 126.442535 
L 247.125248 125.728829 
L 247.534214 125.728829 
L 247.534214 125.015124 
L 247.790291 125.015124 
L 247.790291 124.301418 
L 248.118112 124.301418 
L 248.118112 123.587712 
L 248.281554 123.587712 
L 248.281554 122.874007 
L 248.57173 122.874007 
L 248.57173 122.160301 
L 248.831182 122.160301 
L 248.831182 121.446595 
L 249.381295 121.446595 
L 249.479495 120.019184 
L 249.568895 120.019184 
L 249.568895 119.305478 
L 249.863661 119.305478 
L 249.971816 117.878067 
L 250.051261 117.878067 
L 250.051261 117.164361 
L 250.363456 117.164361 
L 250.380173 115.023244 
L 250.485199 115.023244 
L 250.580417 112.882127 
L 250.602056 112.882127 
L 250.602056 112.168421 
L 250.745425 112.168421 
L 250.803851 110.74101 
L 250.938534 110.74101 
L 250.938534 110.027304 
L 251.051106 110.027304 
L 251.051106 109.313599 
L 251.371123 109.313599 
L 251.371123 108.599893 
L 251.639753 108.599893 
L 251.689623 107.172482 
L 252.1769 107.172482 
L 252.1769 106.458776 
L 252.677256 106.458776 
L 252.677256 105.74507 
L 253.255514 105.74507 
L 253.255514 105.031365 
L 253.513158 105.031365 
L 253.513158 104.317659 
L 253.717479 104.317659 
L 253.717479 103.603953 
L 253.963612 103.603953 
L 253.963612 102.890248 
L 254.174579 102.890248 
L 254.174579 102.176542 
L 254.603404 102.176542 
L 254.603404 101.462836 
L 254.781612 101.462836 
L 254.799514 100.035425 
L 255.269757 100.035425 
L 255.269757 99.321719 
L 255.586063 99.321719 
L 255.655307 97.180602 
L 255.749505 97.180602 
L 255.749505 96.466896 
L 256.095201 96.466896 
L 256.137674 95.039485 
L 256.216551 95.039485 
L 256.216551 94.325779 
L 256.426659 94.325779 
L 256.426659 93.612074 
L 256.637468 93.612074 
L 256.637468 92.898368 
L 256.762009 92.898368 
L 256.762009 92.184662 
L 257.139297 92.184662 
L 257.169474 90.757251 
L 258.035024 90.757251 
L 258.089956 89.32984 
L 258.683935 89.32984 
L 258.683935 88.616134 
L 258.966418 88.616134 
L 258.966418 87.902428 
L 259.268631 87.902428 
L 259.376312 86.475017 
L 259.88207 86.475017 
L 259.88207 85.761311 
L 260.129538 85.761311 
L 260.194312 84.3339 
L 260.256642 84.3339 
L 260.256642 83.620194 
L 260.84531 83.620194 
L 260.84531 82.906488 
L 261.412948 82.906488 
L 261.437186 81.479077 
L 263.082148 81.479077 
L 263.082148 80.765371 
L 263.361818 80.765371 
L 263.361818 80.051666 
L 263.889826 80.051666 
L 264.000763 78.624254 
L 264.053267 78.624254 
L 264.053267 77.910549 
L 264.188363 77.910549 
L 264.278308 76.483137 
L 264.326735 76.483137 
L 264.326735 75.769432 
L 265.3192 75.769432 
L 265.383096 74.34202 
L 266.556214 74.34202 
L 266.556214 73.628315 
L 267.090073 73.628315 
L 267.148089 72.200903 
L 267.264342 72.200903 
L 267.264342 71.487197 
L 268.325609 71.487197 
L 268.325609 70.773492 
L 268.880898 70.773492 
L 268.959758 68.632375 
L 269.206654 68.632375 
L 269.206654 67.918669 
L 269.370095 67.918669 
L 269.394253 66.491258 
L 269.557694 66.491258 
L 269.557694 65.777552 
L 270.274776 65.777552 
L 270.274776 65.063846 
L 271.857876 65.063846 
L 271.857876 64.350141 
L 272.139126 64.350141 
L 272.139126 63.636435 
L 272.693779 63.636435 
L 272.693779 62.922729 
L 272.975245 62.922729 
L 272.975245 62.209024 
L 273.297766 62.209024 
L 273.389787 60.781612 
L 275.480666 60.781612 
L 275.480666 60.067907 
L 275.644107 60.067907 
L 275.644107 59.354201 
L 276.874428 59.354201 
L 276.902201 57.926789 
L 277.184661 57.926789 
L 277.270577 56.499378 
L 278.099416 56.499378 
L 278.099416 55.785672 
L 279.573053 55.785672 
L 279.573053 55.071967 
L 279.98937 55.071967 
L 279.98937 54.358261 
L 280.458977 54.358261 
L 280.458977 53.644555 
L 280.914854 53.644555 
L 280.914854 52.93085 
L 281.145675 52.93085 
L 281.145675 52.217144 
L 281.304457 52.217144 
L 281.304457 51.503438 
L 281.750756 51.503438 
L 281.750756 50.789733 
L 282.069614 50.789733 
L 282.069614 50.076027 
L 282.501489 50.076027 
L 282.501489 49.362321 
L 282.689088 49.362321 
L 282.689088 48.648616 
L 283.75236 48.648616 
L 283.75236 47.93491 
L 286.327554 47.93491 
L 286.327554 47.221204 
L 287.487723 47.221204 
L 287.487723 46.507499 
L 288.373647 46.507499 
L 288.373647 45.793793 
L 288.613626 45.793793 
L 288.613626 45.080087 
L 288.775501 45.080087 
L 288.775501 44.366381 
L 289.217392 44.366381 
L 289.217392 43.652676 
L 289.463263 43.652676 
L 289.463263 42.93897 
L 296.409215 42.93897 
L 296.409215 42.225264 
L 296.917388 42.225264 
L 296.917388 41.511559 
L 297.132062 41.511559 
L 297.132062 40.797853 
L 299.220282 40.797853 
L 299.220282 40.084147 
L 302.234216 40.084147 
L 302.234216 39.370442 
L 302.421816 39.370442 
L 302.421816 38.656736 
L 302.796944 38.656736 
L 302.796944 37.94303 
L 303.199408 37.94303 
L 303.199408 37.229325 
L 305.403816 37.229325 
L 305.403816 36.515619 
L 307.226973 36.515619 
L 307.226973 35.801913 
L 308.508228 35.801913 
L 308.508228 35.088208 
L 312.993613 35.088208 
L 312.993613 34.374502 
L 313.377477 34.374502 
L 313.410239 32.947091 
L 313.585488 32.947091 
L 313.585488 32.233385 
L 314.296164 32.233385 
L 314.296164 31.519679 
L 319.412644 31.519679 
L 319.412644 30.805973 
L 323.054578 30.805973 
L 323.054578 30.092268 
L 334.337596 30.092268 
L 334.337596 29.378562 
L 335.900662 29.378562 
L 335.900662 28.664856 
L 355.458462 28.664856 
L 355.458462 27.951151 
L 359.035124 27.951151 
L 359.035124 27.237445 
L 363.465153 27.237445 
L 363.465153 26.523739 
L 369.648419 26.523739 
L 369.648419 25.810034 
L 370.534343 25.810034 
L 370.534343 25.096328 
L 379.292758 25.096328 
L 379.292758 24.382622 
L 453.192 24.382622 
L 453.192 24.382622 
" clip-path="url(#p7b08600905)" style="fill: none; stroke: #000000; stroke-width: 3; stroke-linecap: square"/>
   </g>
   <g id="line2d_61">
    <path clip-path="url(#p7b08600905)" style="fill: none; stroke: #000000; stroke-width: 3; stroke-linecap: square"/>
   </g>
   <g id="line2d_62">
    <path d="M 34.775234 288.453725 
L 34.16 288.453725 
L 453.192 288.453725 
L 461.8 288.453725 
" clip-path="url(#p7b08600905)" style="fill: none; stroke: #00bfbf; stroke-width: 3; stroke-linecap: square"/>
   </g>
   <g id="line2d_63"/>
   <g id="line2d_64"/>
   <g id="line2d_65"/>
   <g id="line2d_66">
    <path d="M 243.676 291.28 
L 243.676 3 
" clip-path="url(#p7b08600905)" style="fill: none; stroke: #000000; stroke-width: 1.5; stroke-linecap: square"/>
   </g>
   <g id="line2d_67">
    <path d="M 34.16 147.14 
L 453.192 147.14 
" clip-path="url(#p7b08600905)" style="fill: none; stroke-dasharray: 2,3.3; stroke-dashoffset: 0; stroke: #000000; stroke-width: 2"/>
   </g>
   <g id="patch_3">
    <path d="M 34.16 291.28 
L 34.16 3 
" style="fill: none; stroke: #000000; stroke-width: 0.8; stroke-linejoin: miter; stroke-linecap: square"/>
   </g>
   <g id="patch_4">
    <path d="M 453.192 291.28 
L 453.192 3 
" style="fill: none; stroke: #000000; stroke-width: 0.8; stroke-linejoin: miter; stroke-linecap: square"/>
   </g>
   <g id="patch_5">
    <path d="M 34.16 291.28 
L 453.192 291.28 
" style="fill: none; stroke: #000000; stroke-width: 0.8; stroke-linejoin: miter; stroke-linecap: square"/>
   </g>
   <g id="patch_6">
    <path d="M 34.16 3 
L 453.192 3 
" style="fill: none; stroke: #000000; stroke-width: 0.8; stroke-linejoin: miter; stroke-linecap: square"/>
   </g>
   <g id="text_5">
    <!-- f37, f38, f42, f43,5-D -->
    <g transform="translate(235.014485 285.5144) scale(0.2 -0.2)">
     <defs>
      <path id="DejaVuSans-33" d="M 2597 2516 
Q 3050 2419 3304 2112 
Q 3559 1806 3559 1356 
Q 3559 666 3084 287 
Q 2609 -91 1734 -91 
Q 1441 -91 1130 -33 
Q 819 25 488 141 
L 488 750 
Q 750 597 1062 519 
Q 1375 441 1716 441 
Q 2309 441 2620 675 
Q 2931 909 2931 1356 
Q 2931 1769 2642 2001 
Q 2353 2234 1838 2234 
L 1294 2234 
L 1294 2753 
L 1863 2753 
Q 2328 2753 2575 2939 
Q 2822 3125 2822 3475 
Q 2822 3834 2567 4026 
Q 2313 4219 1838 4219 
Q 1578 4219 1281 4162 
Q 984 4106 628 3988 
L 628 4550 
Q 988 4650 1302 4700 
Q 1616 4750 1894 4750 
Q 2613 4750 3031 4423 
Q 3450 4097 3450 3541 
Q 3450 3153 3228 2886 
Q 3006 2619 2597 2516 
z
" transform="scale(0.015625)"/>
      <path id="DejaVuSans-37" d="M 525 4666 
L 3525 4666 
L 3525 4397 
L 1831 0 
L 1172 0 
L 2766 4134 
L 525 4134 
L 525 4666 
z
" transform="scale(0.015625)"/>
      <path id="DejaVuSans-2c" d="M 750 794 
L 1409 794 
L 1409 256 
L 897 -744 
L 494 -744 
L 750 256 
L 750 794 
z
" transform="scale(0.015625)"/>
      <path id="DejaVuSans-38" d="M 2034 2216 
Q 1584 2216 1326 1975 
Q 1069 1734 1069 1313 
Q 1069 891 1326 650 
Q 1584 409 2034 409 
Q 2484 409 2743 651 
Q 3003 894 3003 1313 
Q 3003 1734 2745 1975 
Q 2488 2216 2034 2216 
z
M 1403 2484 
Q 997 2584 770 2862 
Q 544 3141 544 3541 
Q 544 4100 942 4425 
Q 1341 4750 2034 4750 
Q 2731 4750 3128 4425 
Q 3525 4100 3525 3541 
Q 3525 3141 3298 2862 
Q 3072 2584 2669 2484 
Q 3125 2378 3379 2068 
Q 3634 1759 3634 1313 
Q 3634 634 3220 271 
Q 2806 -91 2034 -91 
Q 1263 -91 848 271 
Q 434 634 434 1313 
Q 434 1759 690 2068 
Q 947 2378 1403 2484 
z
M 1172 3481 
Q 1172 3119 1398 2916 
Q 1625 2713 2034 2713 
Q 2441 2713 2670 2916 
Q 2900 3119 2900 3481 
Q 2900 3844 2670 4047 
Q 2441 4250 2034 4250 
Q 1625 4250 1398 4047 
Q 1172 3844 1172 3481 
z
" transform="scale(0.015625)"/>
      <path id="DejaVuSans-34" d="M 2419 4116 
L 825 1625 
L 2419 1625 
L 2419 4116 
z
M 2253 4666 
L 3047 4666 
L 3047 1625 
L 3713 1625 
L 3713 1100 
L 3047 1100 
L 3047 0 
L 2419 0 
L 2419 1100 
L 313 1100 
L 313 1709 
L 2253 4666 
z
" transform="scale(0.015625)"/>
      <path id="DejaVuSans-32" d="M 1228 531 
L 3431 531 
L 3431 0 
L 469 0 
L 469 531 
Q 828 903 1448 1529 
Q 2069 2156 2228 2338 
Q 2531 2678 2651 2914 
Q 2772 3150 2772 3378 
Q 2772 3750 2511 3984 
Q 2250 4219 1831 4219 
Q 1534 4219 1204 4116 
Q 875 4013 500 3803 
L 500 4441 
Q 881 4594 1212 4672 
Q 1544 4750 1819 4750 
Q 2544 4750 2975 4387 
Q 3406 4025 3406 3419 
Q 3406 3131 3298 2873 
Q 3191 2616 2906 2266 
Q 2828 2175 2409 1742 
Q 1991 1309 1228 531 
z
" transform="scale(0.015625)"/>
      <path id="DejaVuSans-35" d="M 691 4666 
L 3169 4666 
L 3169 4134 
L 1269 4134 
L 1269 2991 
Q 1406 3038 1543 3061 
Q 1681 3084 1819 3084 
Q 2600 3084 3056 2656 
Q 3513 2228 3513 1497 
Q 3513 744 3044 326 
Q 2575 -91 1722 -91 
Q 1428 -91 1123 -41 
Q 819 9 494 109 
L 494 744 
Q 775 591 1075 516 
Q 1375 441 1709 441 
Q 2250 441 2565 725 
Q 2881 1009 2881 1497 
Q 2881 1984 2565 2268 
Q 2250 2553 1709 2553 
Q 1456 2553 1204 2497 
Q 953 2441 691 2322 
L 691 4666 
z
" transform="scale(0.015625)"/>
      <path id="DejaVuSans-44" d="M 1259 4147 
L 1259 519 
L 2022 519 
Q 2988 519 3436 956 
Q 3884 1394 3884 2338 
Q 3884 3275 3436 3711 
Q 2988 4147 2022 4147 
L 1259 4147 
z
M 628 4666 
L 1925 4666 
Q 3281 4666 3915 4102 
Q 4550 3538 4550 2338 
Q 4550 1131 3912 565 
Q 3275 0 1925 0 
L 628 0 
L 628 4666 
z
" transform="scale(0.015625)"/>
     </defs>
     <use xlink:href="#DejaVuSans-66"/>
     <use xlink:href="#DejaVuSans-33" x="35.205078"/>
     <use xlink:href="#DejaVuSans-37" x="98.828125"/>
     <use xlink:href="#DejaVuSans-2c" x="162.451172"/>
     <use xlink:href="#DejaVuSans-20" x="194.238281"/>
     <use xlink:href="#DejaVuSans-66" x="226.025391"/>
     <use xlink:href="#DejaVuSans-33" x="261.230469"/>
     <use xlink:href="#DejaVuSans-38" x="324.853516"/>
     <use xlink:href="#DejaVuSans-2c" x="388.476562"/>
     <use xlink:href="#DejaVuSans-20" x="420.263672"/>
     <use xlink:href="#DejaVuSans-66" x="452.050781"/>
     <use xlink:href="#DejaVuSans-34" x="487.255859"/>
     <use xlink:href="#DejaVuSans-32" x="550.878906"/>
     <use xlink:href="#DejaVuSans-2c" x="614.501953"/>
     <use xlink:href="#DejaVuSans-20" x="646.289062"/>
     <use xlink:href="#DejaVuSans-66" x="678.076172"/>
     <use xlink:href="#DejaVuSans-34" x="713.28125"/>
     <use xlink:href="#DejaVuSans-33" x="776.904297"/>
     <use xlink:href="#DejaVuSans-2c" x="840.527344"/>
     <use xlink:href="#DejaVuSans-35" x="872.314453"/>
     <use xlink:href="#DejaVuSans-2d" x="935.9375"/>
     <use xlink:href="#DejaVuSans-44" x="972.021484"/>
    </g>
   </g>
   <g id="text_6">
    <!-- v2.6, hv-hash=ff0e71e8cd978373 -->
    <g style="fill: #808080" transform="translate(158.180687 286.317512) scale(0.1 -0.1)">
     <defs>
      <path id="DejaVuSans-2e" d="M 684 794 
L 1344 794 
L 1344 0 
L 684 0 
L 684 794 
z
" transform="scale(0.015625)"/>
      <path id="DejaVuSans-36" d="M 2113 2584 
Q 1688 2584 1439 2293 
Q 1191 2003 1191 1497 
Q 1191 994 1439 701 
Q 1688 409 2113 409 
Q 2538 409 2786 701 
Q 3034 994 3034 1497 
Q 3034 2003 2786 2293 
Q 2538 2584 2113 2584 
z
M 3366 4563 
L 3366 3988 
Q 3128 4100 2886 4159 
Q 2644 4219 2406 4219 
Q 1781 4219 1451 3797 
Q 1122 3375 1075 2522 
Q 1259 2794 1537 2939 
Q 1816 3084 2150 3084 
Q 2853 3084 3261 2657 
Q 3669 2231 3669 1497 
Q 3669 778 3244 343 
Q 2819 -91 2113 -91 
Q 1303 -91 875 529 
Q 447 1150 447 2328 
Q 447 3434 972 4092 
Q 1497 4750 2381 4750 
Q 2619 4750 2861 4703 
Q 3103 4656 3366 4563 
z
" transform="scale(0.015625)"/>
      <path id="DejaVuSans-68" d="M 3513 2113 
L 3513 0 
L 2938 0 
L 2938 2094 
Q 2938 2591 2744 2837 
Q 2550 3084 2163 3084 
Q 1697 3084 1428 2787 
Q 1159 2491 1159 1978 
L 1159 0 
L 581 0 
L 581 4863 
L 1159 4863 
L 1159 2956 
Q 1366 3272 1645 3428 
Q 1925 3584 2291 3584 
Q 2894 3584 3203 3211 
Q 3513 2838 3513 2113 
z
" transform="scale(0.015625)"/>
      <path id="DejaVuSans-3d" d="M 678 2906 
L 4684 2906 
L 4684 2381 
L 678 2381 
L 678 2906 
z
M 678 1631 
L 4684 1631 
L 4684 1100 
L 678 1100 
L 678 1631 
z
" transform="scale(0.015625)"/>
      <path id="DejaVuSans-65" d="M 3597 1894 
L 3597 1613 
L 953 1613 
Q 991 1019 1311 708 
Q 1631 397 2203 397 
Q 2534 397 2845 478 
Q 3156 559 3463 722 
L 3463 178 
Q 3153 47 2828 -22 
Q 2503 -91 2169 -91 
Q 1331 -91 842 396 
Q 353 884 353 1716 
Q 353 2575 817 3079 
Q 1281 3584 2069 3584 
Q 2775 3584 3186 3129 
Q 3597 2675 3597 1894 
z
M 3022 2063 
Q 3016 2534 2758 2815 
Q 2500 3097 2075 3097 
Q 1594 3097 1305 2825 
Q 1016 2553 972 2059 
L 3022 2063 
z
" transform="scale(0.015625)"/>
      <path id="DejaVuSans-63" d="M 3122 3366 
L 3122 2828 
Q 2878 2963 2633 3030 
Q 2388 3097 2138 3097 
Q 1578 3097 1268 2742 
Q 959 2388 959 1747 
Q 959 1106 1268 751 
Q 1578 397 2138 397 
Q 2388 397 2633 464 
Q 2878 531 3122 666 
L 3122 134 
Q 2881 22 2623 -34 
Q 2366 -91 2075 -91 
Q 1284 -91 818 406 
Q 353 903 353 1747 
Q 353 2603 823 3093 
Q 1294 3584 2113 3584 
Q 2378 3584 2631 3529 
Q 2884 3475 3122 3366 
z
" transform="scale(0.015625)"/>
      <path id="DejaVuSans-64" d="M 2906 2969 
L 2906 4863 
L 3481 4863 
L 3481 0 
L 2906 0 
L 2906 525 
Q 2725 213 2448 61 
Q 2172 -91 1784 -91 
Q 1150 -91 751 415 
Q 353 922 353 1747 
Q 353 2572 751 3078 
Q 1150 3584 1784 3584 
Q 2172 3584 2448 3432 
Q 2725 3281 2906 2969 
z
M 947 1747 
Q 947 1113 1208 752 
Q 1469 391 1925 391 
Q 2381 391 2643 752 
Q 2906 1113 2906 1747 
Q 2906 2381 2643 2742 
Q 2381 3103 1925 3103 
Q 1469 3103 1208 2742 
Q 947 2381 947 1747 
z
" transform="scale(0.015625)"/>
      <path id="DejaVuSans-39" d="M 703 97 
L 703 672 
Q 941 559 1184 500 
Q 1428 441 1663 441 
Q 2288 441 2617 861 
Q 2947 1281 2994 2138 
Q 2813 1869 2534 1725 
Q 2256 1581 1919 1581 
Q 1219 1581 811 2004 
Q 403 2428 403 3163 
Q 403 3881 828 4315 
Q 1253 4750 1959 4750 
Q 2769 4750 3195 4129 
Q 3622 3509 3622 2328 
Q 3622 1225 3098 567 
Q 2575 -91 1691 -91 
Q 1453 -91 1209 -44 
Q 966 3 703 97 
z
M 1959 2075 
Q 2384 2075 2632 2365 
Q 2881 2656 2881 3163 
Q 2881 3666 2632 3958 
Q 2384 4250 1959 4250 
Q 1534 4250 1286 3958 
Q 1038 3666 1038 3163 
Q 1038 2656 1286 2365 
Q 1534 2075 1959 2075 
z
" transform="scale(0.015625)"/>
     </defs>
     <use xlink:href="#DejaVuSans-76"/>
     <use xlink:href="#DejaVuSans-32" x="59.179688"/>
     <use xlink:href="#DejaVuSans-2e" x="122.802734"/>
     <use xlink:href="#DejaVuSans-36" x="154.589844"/>
     <use xlink:href="#DejaVuSans-2c" x="218.212891"/>
     <use xlink:href="#DejaVuSans-20" x="250"/>
     <use xlink:href="#DejaVuSans-68" x="281.787109"/>
     <use xlink:href="#DejaVuSans-76" x="345.166016"/>
     <use xlink:href="#DejaVuSans-2d" x="401.720703"/>
     <use xlink:href="#DejaVuSans-68" x="437.804688"/>
     <use xlink:href="#DejaVuSans-61" x="501.183594"/>
     <use xlink:href="#DejaVuSans-73" x="562.462891"/>
     <use xlink:href="#DejaVuSans-68" x="614.5625"/>
     <use xlink:href="#DejaVuSans-3d" x="677.941406"/>
     <use xlink:href="#DejaVuSans-66" x="761.730469"/>
     <use xlink:href="#DejaVuSans-66" x="796.935547"/>
     <use xlink:href="#DejaVuSans-30" x="832.140625"/>
     <use xlink:href="#DejaVuSans-65" x="895.763672"/>
     <use xlink:href="#DejaVuSans-37" x="957.287109"/>
     <use xlink:href="#DejaVuSans-31" x="1020.910156"/>
     <use xlink:href="#DejaVuSans-65" x="1084.533203"/>
     <use xlink:href="#DejaVuSans-38" x="1146.056641"/>
     <use xlink:href="#DejaVuSans-63" x="1209.679688"/>
     <use xlink:href="#DejaVuSans-64" x="1264.660156"/>
     <use xlink:href="#DejaVuSans-39" x="1328.136719"/>
     <use xlink:href="#DejaVuSans-37" x="1391.759766"/>
     <use xlink:href="#DejaVuSans-38" x="1455.382812"/>
     <use xlink:href="#DejaVuSans-33" x="1519.005859"/>
     <use xlink:href="#DejaVuSans-37" x="1582.628906"/>
     <use xlink:href="#DejaVuSans-33" x="1646.251953"/>
    </g>
   </g>
   <g id="legend_1">
    <g id="patch_7">
     <path d="M 48.16 165.78125 
L 177.381875 165.78125 
Q 181.381875 165.78125 181.381875 161.78125 
L 181.381875 17 
Q 181.381875 13 177.381875 13 
L 48.16 13 
Q 44.16 13 44.16 17 
L 44.16 161.78125 
Q 44.16 165.78125 48.16 165.78125 
z
" style="fill: #ffffff; opacity: 0.2; stroke: #cccccc; stroke-linejoin: miter"/>
    </g>
    <g id="line2d_68">
     <path d="M 52.16 29.196875 
L 72.16 29.196875 
L 92.16 29.196875 
" style="fill: none; stroke: #000000; stroke-width: 3; stroke-linecap: square"/>
    </g>
    <g id="text_7">
     <!-- -1: 4/4 -->
     <g transform="translate(108.16 36.196875) scale(0.2 -0.2)">
      <defs>
       <path id="DejaVuSans-3a" d="M 750 794 
L 1409 794 
L 1409 0 
L 750 0 
L 750 794 
z
M 750 3309 
L 1409 3309 
L 1409 2516 
L 750 2516 
L 750 3309 
z
" transform="scale(0.015625)"/>
       <path id="DejaVuSans-2f" d="M 1625 4666 
L 2156 4666 
L 531 -594 
L 0 -594 
L 1625 4666 
z
" transform="scale(0.015625)"/>
      </defs>
      <use xlink:href="#DejaVuSans-2d"/>
      <use xlink:href="#DejaVuSans-31" x="36.083984"/>
      <use xlink:href="#DejaVuSans-3a" x="99.707031"/>
      <use xlink:href="#DejaVuSans-20" x="133.398438"/>
      <use xlink:href="#DejaVuSans-34" x="165.185547"/>
      <use xlink:href="#DejaVuSans-2f" x="228.808594"/>
      <use xlink:href="#DejaVuSans-34" x="262.5"/>
     </g>
    </g>
    <g id="line2d_69">
     <path d="M 52.16 58.553125 
L 72.16 58.553125 
L 92.16 58.553125 
" style="fill: none; stroke: #00bfbf; stroke-width: 3; stroke-linecap: square"/>
    </g>
    <g id="text_8">
     <!-- -2: 0/1 -->
     <g transform="translate(108.16 65.553125) scale(0.2 -0.2)">
      <use xlink:href="#DejaVuSans-2d"/>
      <use xlink:href="#DejaVuSans-32" x="36.083984"/>
      <use xlink:href="#DejaVuSans-3a" x="99.707031"/>
      <use xlink:href="#DejaVuSans-20" x="133.398438"/>
      <use xlink:href="#DejaVuSans-30" x="165.185547"/>
      <use xlink:href="#DejaVuSans-2f" x="228.808594"/>
      <use xlink:href="#DejaVuSans-31" x="262.5"/>
     </g>
    </g>
    <g id="line2d_70">
     <path d="M 52.16 87.909375 
L 72.16 87.909375 
L 92.16 87.909375 
" style="fill: none; stroke: #bf00bf; stroke-width: 3; stroke-linecap: square"/>
    </g>
    <g id="text_9">
     <!-- -3: 0/0 -->
     <g transform="translate(108.16 94.909375) scale(0.2 -0.2)">
      <use xlink:href="#DejaVuSans-2d"/>
      <use xlink:href="#DejaVuSans-33" x="36.083984"/>
      <use xlink:href="#DejaVuSans-3a" x="99.707031"/>
      <use xlink:href="#DejaVuSans-20" x="133.398438"/>
      <use xlink:href="#DejaVuSans-30" x="165.185547"/>
      <use xlink:href="#DejaVuSans-2f" x="228.808594"/>
      <use xlink:href="#DejaVuSans-30" x="262.5"/>
     </g>
    </g>
    <g id="line2d_71">
     <path d="M 52.16 117.265625 
L 72.16 117.265625 
L 92.16 117.265625 
" style="fill: none; stroke: #ff0000; stroke-width: 3; stroke-linecap: square"/>
    </g>
    <g id="text_10">
     <!-- -4: 0/0 -->
     <g transform="translate(108.16 124.265625) scale(0.2 -0.2)">
      <use xlink:href="#DejaVuSans-2d"/>
      <use xlink:href="#DejaVuSans-34" x="36.083984"/>
      <use xlink:href="#DejaVuSans-3a" x="99.707031"/>
      <use xlink:href="#DejaVuSans-20" x="133.398438"/>
      <use xlink:href="#DejaVuSans-30" x="165.185547"/>
      <use xlink:href="#DejaVuSans-2f" x="228.808594"/>
      <use xlink:href="#DejaVuSans-30" x="262.5"/>
     </g>
    </g>
    <g id="line2d_72">
     <path d="M 52.16 146.621875 
L 72.16 146.621875 
L 92.16 146.621875 
" style="fill: none; stroke: #0000ff; stroke-width: 3; stroke-linecap: square"/>
    </g>
    <g id="text_11">
     <!-- -5: 0/0 -->
     <g transform="translate(108.16 153.621875) scale(0.2 -0.2)">
      <use xlink:href="#DejaVuSans-2d"/>
      <use xlink:href="#DejaVuSans-35" x="36.083984"/>
      <use xlink:href="#DejaVuSans-3a" x="99.707031"/>
      <use xlink:href="#DejaVuSans-20" x="133.398438"/>
      <use xlink:href="#DejaVuSans-30" x="165.185547"/>
      <use xlink:href="#DejaVuSans-2f" x="228.808594"/>
      <use xlink:href="#DejaVuSans-30" x="262.5"/>
     </g>
    </g>
   </g>
  </g>
 </g>
 <defs>
  <clipPath id="p7b08600905">
   <rect x="34.16" y="3" width="419.032" height="288.28"/>
  </clipPath>
 </defs>
</svg>
