<?xml version="1.0" encoding="utf-8" standalone="no"?>
<!DOCTYPE svg PUBLIC "-//W3C//DTD SVG 1.1//EN"
  "http://www.w3.org/Graphics/SVG/1.1/DTD/svg11.dtd">
<svg xmlns:xlink="http://www.w3.org/1999/xlink" width="460.8pt" height="345.6pt" viewBox="0 0 460.8 345.6" xmlns="http://www.w3.org/2000/svg" version="1.1">
 <metadata>
  <rdf:RDF xmlns:dc="http://purl.org/dc/elements/1.1/" xmlns:cc="http://creativecommons.org/ns#" xmlns:rdf="http://www.w3.org/1999/02/22-rdf-syntax-ns#">
   <cc:Work>
    <dc:type rdf:resource="http://purl.org/dc/dcmitype/StillImage"/>
    <dc:date>2023-02-10T22:27:46.251676</dc:date>
    <dc:format>image/svg+xml</dc:format>
    <dc:creator>
     <cc:Agent>
      <dc:title>Matplotlib v3.6.3, https://matplotlib.org/</dc:title>
     </cc:Agent>
    </dc:creator>
   </cc:Work>
  </rdf:RDF>
 </metadata>
 <defs>
  <style type="text/css">*{stroke-linejoin: round; stroke-linecap: butt}</style>
 </defs>
 <g id="figure_1">
  <g id="patch_1">
   <path d="M 0 345.6 
L 460.8 345.6 
L 460.8 0 
L 0 0 
z
" style="fill: #ffffff"/>
  </g>
  <g id="axes_1">
   <g id="patch_2">
    <path d="M 34.16 291.28 
L 453.192 291.28 
L 453.192 3 
L 34.16 3 
z
" style="fill: #ffffff"/>
   </g>
   <g id="matplotlib.axis_1">
    <g id="xtick_1">
     <g id="line2d_1">
      <path d="M 146.616545 291.28 
L 146.616545 3 
" clip-path="url(#pe2a710c6e3)" style="fill: none; stroke: #b0b0b0; stroke-width: 0.8; stroke-linecap: square"/>
     </g>
     <g id="line2d_2">
      <defs>
       <path id="m7c475acf94" d="M 0 0 
L 0 3.5 
" style="stroke: #000000; stroke-width: 0.8"/>
      </defs>
      <g>
       <use xlink:href="#m7c475acf94" x="146.616545" y="291.28" style="stroke: #000000; stroke-width: 0.8"/>
      </g>
     </g>
     <g id="text_1">
      <!-- -1 -->
      <g transform="translate(136.646233 313.476875) scale(0.2 -0.2)">
       <defs>
        <path id="DejaVuSans-2d" d="M 313 2009 
L 1997 2009 
L 1997 1497 
L 313 1497 
L 313 2009 
z
" transform="scale(0.015625)"/>
        <path id="DejaVuSans-31" d="M 794 531 
L 1825 531 
L 1825 4091 
L 703 3866 
L 703 4441 
L 1819 4666 
L 2450 4666 
L 2450 531 
L 3481 531 
L 3481 0 
L 794 0 
L 794 531 
z
" transform="scale(0.015625)"/>
       </defs>
       <use xlink:href="#DejaVuSans-2d"/>
       <use xlink:href="#DejaVuSans-31" x="36.083984"/>
      </g>
     </g>
    </g>
    <g id="xtick_2">
     <g id="line2d_3">
      <path d="M 340.735455 291.28 
L 340.735455 3 
" clip-path="url(#pe2a710c6e3)" style="fill: none; stroke: #b0b0b0; stroke-width: 0.8; stroke-linecap: square"/>
     </g>
     <g id="line2d_4">
      <g>
       <use xlink:href="#m7c475acf94" x="340.735455" y="291.28" style="stroke: #000000; stroke-width: 0.8"/>
      </g>
     </g>
     <g id="text_2">
      <!-- 1 -->
      <g transform="translate(334.372955 313.476875) scale(0.2 -0.2)">
       <use xlink:href="#DejaVuSans-31"/>
      </g>
     </g>
    </g>
    <g id="xtick_3">
     <g id="line2d_5">
      <defs>
       <path id="m80bfdc0f5c" d="M 0 0 
L 0 2 
" style="stroke: #000000; stroke-width: 0.6"/>
      </defs>
      <g>
       <use xlink:href="#m80bfdc0f5c" x="34.522391" y="291.28" style="stroke: #000000; stroke-width: 0.6"/>
      </g>
     </g>
    </g>
    <g id="xtick_4">
     <g id="line2d_6">
      <g>
       <use xlink:href="#m80bfdc0f5c" x="40.151058" y="291.28" style="stroke: #000000; stroke-width: 0.6"/>
      </g>
     </g>
    </g>
    <g id="xtick_5">
     <g id="line2d_7">
      <g>
       <use xlink:href="#m80bfdc0f5c" x="45.115894" y="291.28" style="stroke: #000000; stroke-width: 0.6"/>
      </g>
     </g>
    </g>
    <g id="xtick_6">
     <g id="line2d_8">
      <g>
       <use xlink:href="#m80bfdc0f5c" x="78.774898" y="291.28" style="stroke: #000000; stroke-width: 0.6"/>
      </g>
     </g>
    </g>
    <g id="xtick_7">
     <g id="line2d_9">
      <g>
       <use xlink:href="#m80bfdc0f5c" x="95.86622" y="291.28" style="stroke: #000000; stroke-width: 0.6"/>
      </g>
     </g>
    </g>
    <g id="xtick_8">
     <g id="line2d_10">
      <g>
       <use xlink:href="#m80bfdc0f5c" x="107.992705" y="291.28" style="stroke: #000000; stroke-width: 0.6"/>
      </g>
     </g>
    </g>
    <g id="xtick_9">
     <g id="line2d_11">
      <g>
       <use xlink:href="#m80bfdc0f5c" x="117.398738" y="291.28" style="stroke: #000000; stroke-width: 0.6"/>
      </g>
     </g>
    </g>
    <g id="xtick_10">
     <g id="line2d_12">
      <g>
       <use xlink:href="#m80bfdc0f5c" x="125.084027" y="291.28" style="stroke: #000000; stroke-width: 0.6"/>
      </g>
     </g>
    </g>
    <g id="xtick_11">
     <g id="line2d_13">
      <g>
       <use xlink:href="#m80bfdc0f5c" x="131.581846" y="291.28" style="stroke: #000000; stroke-width: 0.6"/>
      </g>
     </g>
    </g>
    <g id="xtick_12">
     <g id="line2d_14">
      <g>
       <use xlink:href="#m80bfdc0f5c" x="137.210512" y="291.28" style="stroke: #000000; stroke-width: 0.6"/>
      </g>
     </g>
    </g>
    <g id="xtick_13">
     <g id="line2d_15">
      <g>
       <use xlink:href="#m80bfdc0f5c" x="142.175348" y="291.28" style="stroke: #000000; stroke-width: 0.6"/>
      </g>
     </g>
    </g>
    <g id="xtick_14">
     <g id="line2d_16">
      <g>
       <use xlink:href="#m80bfdc0f5c" x="175.834353" y="291.28" style="stroke: #000000; stroke-width: 0.6"/>
      </g>
     </g>
    </g>
    <g id="xtick_15">
     <g id="line2d_17">
      <g>
       <use xlink:href="#m80bfdc0f5c" x="192.925674" y="291.28" style="stroke: #000000; stroke-width: 0.6"/>
      </g>
     </g>
    </g>
    <g id="xtick_16">
     <g id="line2d_18">
      <g>
       <use xlink:href="#m80bfdc0f5c" x="205.05216" y="291.28" style="stroke: #000000; stroke-width: 0.6"/>
      </g>
     </g>
    </g>
    <g id="xtick_17">
     <g id="line2d_19">
      <g>
       <use xlink:href="#m80bfdc0f5c" x="214.458193" y="291.28" style="stroke: #000000; stroke-width: 0.6"/>
      </g>
     </g>
    </g>
    <g id="xtick_18">
     <g id="line2d_20">
      <g>
       <use xlink:href="#m80bfdc0f5c" x="222.143481" y="291.28" style="stroke: #000000; stroke-width: 0.6"/>
      </g>
     </g>
    </g>
    <g id="xtick_19">
     <g id="line2d_21">
      <g>
       <use xlink:href="#m80bfdc0f5c" x="228.6413" y="291.28" style="stroke: #000000; stroke-width: 0.6"/>
      </g>
     </g>
    </g>
    <g id="xtick_20">
     <g id="line2d_22">
      <g>
       <use xlink:href="#m80bfdc0f5c" x="234.269967" y="291.28" style="stroke: #000000; stroke-width: 0.6"/>
      </g>
     </g>
    </g>
    <g id="xtick_21">
     <g id="line2d_23">
      <g>
       <use xlink:href="#m80bfdc0f5c" x="239.234803" y="291.28" style="stroke: #000000; stroke-width: 0.6"/>
      </g>
     </g>
    </g>
    <g id="xtick_22">
     <g id="line2d_24">
      <g>
       <use xlink:href="#m80bfdc0f5c" x="272.893807" y="291.28" style="stroke: #000000; stroke-width: 0.6"/>
      </g>
     </g>
    </g>
    <g id="xtick_23">
     <g id="line2d_25">
      <g>
       <use xlink:href="#m80bfdc0f5c" x="289.985129" y="291.28" style="stroke: #000000; stroke-width: 0.6"/>
      </g>
     </g>
    </g>
    <g id="xtick_24">
     <g id="line2d_26">
      <g>
       <use xlink:href="#m80bfdc0f5c" x="302.111614" y="291.28" style="stroke: #000000; stroke-width: 0.6"/>
      </g>
     </g>
    </g>
    <g id="xtick_25">
     <g id="line2d_27">
      <g>
       <use xlink:href="#m80bfdc0f5c" x="311.517647" y="291.28" style="stroke: #000000; stroke-width: 0.6"/>
      </g>
     </g>
    </g>
    <g id="xtick_26">
     <g id="line2d_28">
      <g>
       <use xlink:href="#m80bfdc0f5c" x="319.202936" y="291.28" style="stroke: #000000; stroke-width: 0.6"/>
      </g>
     </g>
    </g>
    <g id="xtick_27">
     <g id="line2d_29">
      <g>
       <use xlink:href="#m80bfdc0f5c" x="325.700755" y="291.28" style="stroke: #000000; stroke-width: 0.6"/>
      </g>
     </g>
    </g>
    <g id="xtick_28">
     <g id="line2d_30">
      <g>
       <use xlink:href="#m80bfdc0f5c" x="331.329422" y="291.28" style="stroke: #000000; stroke-width: 0.6"/>
      </g>
     </g>
    </g>
    <g id="xtick_29">
     <g id="line2d_31">
      <g>
       <use xlink:href="#m80bfdc0f5c" x="336.294258" y="291.28" style="stroke: #000000; stroke-width: 0.6"/>
      </g>
     </g>
    </g>
    <g id="xtick_30">
     <g id="line2d_32">
      <g>
       <use xlink:href="#m80bfdc0f5c" x="369.953262" y="291.28" style="stroke: #000000; stroke-width: 0.6"/>
      </g>
     </g>
    </g>
    <g id="xtick_31">
     <g id="line2d_33">
      <g>
       <use xlink:href="#m80bfdc0f5c" x="387.044583" y="291.28" style="stroke: #000000; stroke-width: 0.6"/>
      </g>
     </g>
    </g>
    <g id="xtick_32">
     <g id="line2d_34">
      <g>
       <use xlink:href="#m80bfdc0f5c" x="399.171069" y="291.28" style="stroke: #000000; stroke-width: 0.6"/>
      </g>
     </g>
    </g>
    <g id="xtick_33">
     <g id="line2d_35">
      <g>
       <use xlink:href="#m80bfdc0f5c" x="408.577102" y="291.28" style="stroke: #000000; stroke-width: 0.6"/>
      </g>
     </g>
    </g>
    <g id="xtick_34">
     <g id="line2d_36">
      <g>
       <use xlink:href="#m80bfdc0f5c" x="416.262391" y="291.28" style="stroke: #000000; stroke-width: 0.6"/>
      </g>
     </g>
    </g>
    <g id="xtick_35">
     <g id="line2d_37">
      <g>
       <use xlink:href="#m80bfdc0f5c" x="422.760209" y="291.28" style="stroke: #000000; stroke-width: 0.6"/>
      </g>
     </g>
    </g>
    <g id="xtick_36">
     <g id="line2d_38">
      <g>
       <use xlink:href="#m80bfdc0f5c" x="428.388876" y="291.28" style="stroke: #000000; stroke-width: 0.6"/>
      </g>
     </g>
    </g>
    <g id="xtick_37">
     <g id="line2d_39">
      <g>
       <use xlink:href="#m80bfdc0f5c" x="433.353712" y="291.28" style="stroke: #000000; stroke-width: 0.6"/>
      </g>
     </g>
    </g>
    <g id="text_3">
     <!-- log10 of FEvals ratio -->
     <g transform="translate(141.371312 336.833125) scale(0.2 -0.2)">
      <defs>
       <path id="DejaVuSans-6c" d="M 603 4863 
L 1178 4863 
L 1178 0 
L 603 0 
L 603 4863 
z
" transform="scale(0.015625)"/>
       <path id="DejaVuSans-6f" d="M 1959 3097 
Q 1497 3097 1228 2736 
Q 959 2375 959 1747 
Q 959 1119 1226 758 
Q 1494 397 1959 397 
Q 2419 397 2687 759 
Q 2956 1122 2956 1747 
Q 2956 2369 2687 2733 
Q 2419 3097 1959 3097 
z
M 1959 3584 
Q 2709 3584 3137 3096 
Q 3566 2609 3566 1747 
Q 3566 888 3137 398 
Q 2709 -91 1959 -91 
Q 1206 -91 779 398 
Q 353 888 353 1747 
Q 353 2609 779 3096 
Q 1206 3584 1959 3584 
z
" transform="scale(0.015625)"/>
       <path id="DejaVuSans-67" d="M 2906 1791 
Q 2906 2416 2648 2759 
Q 2391 3103 1925 3103 
Q 1463 3103 1205 2759 
Q 947 2416 947 1791 
Q 947 1169 1205 825 
Q 1463 481 1925 481 
Q 2391 481 2648 825 
Q 2906 1169 2906 1791 
z
M 3481 434 
Q 3481 -459 3084 -895 
Q 2688 -1331 1869 -1331 
Q 1566 -1331 1297 -1286 
Q 1028 -1241 775 -1147 
L 775 -588 
Q 1028 -725 1275 -790 
Q 1522 -856 1778 -856 
Q 2344 -856 2625 -561 
Q 2906 -266 2906 331 
L 2906 616 
Q 2728 306 2450 153 
Q 2172 0 1784 0 
Q 1141 0 747 490 
Q 353 981 353 1791 
Q 353 2603 747 3093 
Q 1141 3584 1784 3584 
Q 2172 3584 2450 3431 
Q 2728 3278 2906 2969 
L 2906 3500 
L 3481 3500 
L 3481 434 
z
" transform="scale(0.015625)"/>
       <path id="DejaVuSans-30" d="M 2034 4250 
Q 1547 4250 1301 3770 
Q 1056 3291 1056 2328 
Q 1056 1369 1301 889 
Q 1547 409 2034 409 
Q 2525 409 2770 889 
Q 3016 1369 3016 2328 
Q 3016 3291 2770 3770 
Q 2525 4250 2034 4250 
z
M 2034 4750 
Q 2819 4750 3233 4129 
Q 3647 3509 3647 2328 
Q 3647 1150 3233 529 
Q 2819 -91 2034 -91 
Q 1250 -91 836 529 
Q 422 1150 422 2328 
Q 422 3509 836 4129 
Q 1250 4750 2034 4750 
z
" transform="scale(0.015625)"/>
       <path id="DejaVuSans-20" transform="scale(0.015625)"/>
       <path id="DejaVuSans-66" d="M 2375 4863 
L 2375 4384 
L 1825 4384 
Q 1516 4384 1395 4259 
Q 1275 4134 1275 3809 
L 1275 3500 
L 2222 3500 
L 2222 3053 
L 1275 3053 
L 1275 0 
L 697 0 
L 697 3053 
L 147 3053 
L 147 3500 
L 697 3500 
L 697 3744 
Q 697 4328 969 4595 
Q 1241 4863 1831 4863 
L 2375 4863 
z
" transform="scale(0.015625)"/>
       <path id="DejaVuSans-46" d="M 628 4666 
L 3309 4666 
L 3309 4134 
L 1259 4134 
L 1259 2759 
L 3109 2759 
L 3109 2228 
L 1259 2228 
L 1259 0 
L 628 0 
L 628 4666 
z
" transform="scale(0.015625)"/>
       <path id="DejaVuSans-45" d="M 628 4666 
L 3578 4666 
L 3578 4134 
L 1259 4134 
L 1259 2753 
L 3481 2753 
L 3481 2222 
L 1259 2222 
L 1259 531 
L 3634 531 
L 3634 0 
L 628 0 
L 628 4666 
z
" transform="scale(0.015625)"/>
       <path id="DejaVuSans-76" d="M 191 3500 
L 800 3500 
L 1894 563 
L 2988 3500 
L 3597 3500 
L 2284 0 
L 1503 0 
L 191 3500 
z
" transform="scale(0.015625)"/>
       <path id="DejaVuSans-61" d="M 2194 1759 
Q 1497 1759 1228 1600 
Q 959 1441 959 1056 
Q 959 750 1161 570 
Q 1363 391 1709 391 
Q 2188 391 2477 730 
Q 2766 1069 2766 1631 
L 2766 1759 
L 2194 1759 
z
M 3341 1997 
L 3341 0 
L 2766 0 
L 2766 531 
Q 2569 213 2275 61 
Q 1981 -91 1556 -91 
Q 1019 -91 701 211 
Q 384 513 384 1019 
Q 384 1609 779 1909 
Q 1175 2209 1959 2209 
L 2766 2209 
L 2766 2266 
Q 2766 2663 2505 2880 
Q 2244 3097 1772 3097 
Q 1472 3097 1187 3025 
Q 903 2953 641 2809 
L 641 3341 
Q 956 3463 1253 3523 
Q 1550 3584 1831 3584 
Q 2591 3584 2966 3190 
Q 3341 2797 3341 1997 
z
" transform="scale(0.015625)"/>
       <path id="DejaVuSans-73" d="M 2834 3397 
L 2834 2853 
Q 2591 2978 2328 3040 
Q 2066 3103 1784 3103 
Q 1356 3103 1142 2972 
Q 928 2841 928 2578 
Q 928 2378 1081 2264 
Q 1234 2150 1697 2047 
L 1894 2003 
Q 2506 1872 2764 1633 
Q 3022 1394 3022 966 
Q 3022 478 2636 193 
Q 2250 -91 1575 -91 
Q 1294 -91 989 -36 
Q 684 19 347 128 
L 347 722 
Q 666 556 975 473 
Q 1284 391 1588 391 
Q 1994 391 2212 530 
Q 2431 669 2431 922 
Q 2431 1156 2273 1281 
Q 2116 1406 1581 1522 
L 1381 1569 
Q 847 1681 609 1914 
Q 372 2147 372 2553 
Q 372 3047 722 3315 
Q 1072 3584 1716 3584 
Q 2034 3584 2315 3537 
Q 2597 3491 2834 3397 
z
" transform="scale(0.015625)"/>
       <path id="DejaVuSans-72" d="M 2631 2963 
Q 2534 3019 2420 3045 
Q 2306 3072 2169 3072 
Q 1681 3072 1420 2755 
Q 1159 2438 1159 1844 
L 1159 0 
L 581 0 
L 581 3500 
L 1159 3500 
L 1159 2956 
Q 1341 3275 1631 3429 
Q 1922 3584 2338 3584 
Q 2397 3584 2469 3576 
Q 2541 3569 2628 3553 
L 2631 2963 
z
" transform="scale(0.015625)"/>
       <path id="DejaVuSans-74" d="M 1172 4494 
L 1172 3500 
L 2356 3500 
L 2356 3053 
L 1172 3053 
L 1172 1153 
Q 1172 725 1289 603 
Q 1406 481 1766 481 
L 2356 481 
L 2356 0 
L 1766 0 
Q 1100 0 847 248 
Q 594 497 594 1153 
L 594 3053 
L 172 3053 
L 172 3500 
L 594 3500 
L 594 4494 
L 1172 4494 
z
" transform="scale(0.015625)"/>
       <path id="DejaVuSans-69" d="M 603 3500 
L 1178 3500 
L 1178 0 
L 603 0 
L 603 3500 
z
M 603 4863 
L 1178 4863 
L 1178 4134 
L 603 4134 
L 603 4863 
z
" transform="scale(0.015625)"/>
      </defs>
      <use xlink:href="#DejaVuSans-6c"/>
      <use xlink:href="#DejaVuSans-6f" x="27.783203"/>
      <use xlink:href="#DejaVuSans-67" x="88.964844"/>
      <use xlink:href="#DejaVuSans-31" x="152.441406"/>
      <use xlink:href="#DejaVuSans-30" x="216.064453"/>
      <use xlink:href="#DejaVuSans-20" x="279.6875"/>
      <use xlink:href="#DejaVuSans-6f" x="311.474609"/>
      <use xlink:href="#DejaVuSans-66" x="372.65625"/>
      <use xlink:href="#DejaVuSans-20" x="407.861328"/>
      <use xlink:href="#DejaVuSans-46" x="439.648438"/>
      <use xlink:href="#DejaVuSans-45" x="497.167969"/>
      <use xlink:href="#DejaVuSans-76" x="560.351562"/>
      <use xlink:href="#DejaVuSans-61" x="619.53125"/>
      <use xlink:href="#DejaVuSans-6c" x="680.810547"/>
      <use xlink:href="#DejaVuSans-73" x="708.59375"/>
      <use xlink:href="#DejaVuSans-20" x="760.693359"/>
      <use xlink:href="#DejaVuSans-72" x="792.480469"/>
      <use xlink:href="#DejaVuSans-61" x="833.59375"/>
      <use xlink:href="#DejaVuSans-74" x="894.873047"/>
      <use xlink:href="#DejaVuSans-69" x="934.082031"/>
      <use xlink:href="#DejaVuSans-6f" x="961.865234"/>
     </g>
    </g>
   </g>
   <g id="matplotlib.axis_2">
    <g id="ytick_1">
     <g id="line2d_40">
      <path d="M 34.16 288.453725 
L 453.192 288.453725 
" clip-path="url(#pe2a710c6e3)" style="fill: none; stroke: #b0b0b0; stroke-width: 0.8; stroke-linecap: square"/>
     </g>
     <g id="line2d_41">
      <defs>
       <path id="mb5eb5d0697" d="M 0 0 
L -3.5 0 
" style="stroke: #000000; stroke-width: 0.8"/>
      </defs>
      <g>
       <use xlink:href="#mb5eb5d0697" x="34.16" y="288.453725" style="stroke: #000000; stroke-width: 0.8"/>
      </g>
     </g>
    </g>
    <g id="ytick_2">
     <g id="line2d_42">
      <path d="M 34.16 217.796863 
L 453.192 217.796863 
" clip-path="url(#pe2a710c6e3)" style="fill: none; stroke: #b0b0b0; stroke-width: 0.8; stroke-linecap: square"/>
     </g>
     <g id="line2d_43">
      <g>
       <use xlink:href="#mb5eb5d0697" x="34.16" y="217.796863" style="stroke: #000000; stroke-width: 0.8"/>
      </g>
     </g>
    </g>
    <g id="ytick_3">
     <g id="line2d_44">
      <path d="M 34.16 147.14 
L 453.192 147.14 
" clip-path="url(#pe2a710c6e3)" style="fill: none; stroke: #b0b0b0; stroke-width: 0.8; stroke-linecap: square"/>
     </g>
     <g id="line2d_45">
      <g>
       <use xlink:href="#mb5eb5d0697" x="34.16" y="147.14" style="stroke: #000000; stroke-width: 0.8"/>
      </g>
     </g>
    </g>
    <g id="ytick_4">
     <g id="line2d_46">
      <path d="M 34.16 76.483137 
L 453.192 76.483137 
" clip-path="url(#pe2a710c6e3)" style="fill: none; stroke: #b0b0b0; stroke-width: 0.8; stroke-linecap: square"/>
     </g>
     <g id="line2d_47">
      <g>
       <use xlink:href="#mb5eb5d0697" x="34.16" y="76.483137" style="stroke: #000000; stroke-width: 0.8"/>
      </g>
     </g>
    </g>
    <g id="ytick_5">
     <g id="line2d_48">
      <path d="M 34.16 5.826275 
L 453.192 5.826275 
" clip-path="url(#pe2a710c6e3)" style="fill: none; stroke: #b0b0b0; stroke-width: 0.8; stroke-linecap: square"/>
     </g>
     <g id="line2d_49">
      <g>
       <use xlink:href="#mb5eb5d0697" x="34.16" y="5.826275" style="stroke: #000000; stroke-width: 0.8"/>
      </g>
     </g>
    </g>
    <g id="text_4">
     <!-- proportion of trials -->
     <g transform="translate(19.000625 240.14625) rotate(-90) scale(0.2 -0.2)">
      <defs>
       <path id="DejaVuSans-70" d="M 1159 525 
L 1159 -1331 
L 581 -1331 
L 581 3500 
L 1159 3500 
L 1159 2969 
Q 1341 3281 1617 3432 
Q 1894 3584 2278 3584 
Q 2916 3584 3314 3078 
Q 3713 2572 3713 1747 
Q 3713 922 3314 415 
Q 2916 -91 2278 -91 
Q 1894 -91 1617 61 
Q 1341 213 1159 525 
z
M 3116 1747 
Q 3116 2381 2855 2742 
Q 2594 3103 2138 3103 
Q 1681 3103 1420 2742 
Q 1159 2381 1159 1747 
Q 1159 1113 1420 752 
Q 1681 391 2138 391 
Q 2594 391 2855 752 
Q 3116 1113 3116 1747 
z
" transform="scale(0.015625)"/>
       <path id="DejaVuSans-6e" d="M 3513 2113 
L 3513 0 
L 2938 0 
L 2938 2094 
Q 2938 2591 2744 2837 
Q 2550 3084 2163 3084 
Q 1697 3084 1428 2787 
Q 1159 2491 1159 1978 
L 1159 0 
L 581 0 
L 581 3500 
L 1159 3500 
L 1159 2956 
Q 1366 3272 1645 3428 
Q 1925 3584 2291 3584 
Q 2894 3584 3203 3211 
Q 3513 2838 3513 2113 
z
" transform="scale(0.015625)"/>
      </defs>
      <use xlink:href="#DejaVuSans-70"/>
      <use xlink:href="#DejaVuSans-72" x="63.476562"/>
      <use xlink:href="#DejaVuSans-6f" x="102.339844"/>
      <use xlink:href="#DejaVuSans-70" x="163.521484"/>
      <use xlink:href="#DejaVuSans-6f" x="226.998047"/>
      <use xlink:href="#DejaVuSans-72" x="288.179688"/>
      <use xlink:href="#DejaVuSans-74" x="329.292969"/>
      <use xlink:href="#DejaVuSans-69" x="368.501953"/>
      <use xlink:href="#DejaVuSans-6f" x="396.285156"/>
      <use xlink:href="#DejaVuSans-6e" x="457.466797"/>
      <use xlink:href="#DejaVuSans-20" x="520.845703"/>
      <use xlink:href="#DejaVuSans-6f" x="552.632812"/>
      <use xlink:href="#DejaVuSans-66" x="613.814453"/>
      <use xlink:href="#DejaVuSans-20" x="649.019531"/>
      <use xlink:href="#DejaVuSans-74" x="680.806641"/>
      <use xlink:href="#DejaVuSans-72" x="720.015625"/>
      <use xlink:href="#DejaVuSans-69" x="761.128906"/>
      <use xlink:href="#DejaVuSans-61" x="788.912109"/>
      <use xlink:href="#DejaVuSans-6c" x="850.191406"/>
      <use xlink:href="#DejaVuSans-73" x="877.974609"/>
     </g>
    </g>
   </g>
   <g id="line2d_50">
    <path d="M 34.16 288.453725 
L 51.986295 288.453725 
L 51.986295 287.747157 
L 68.94387 287.747157 
L 68.94387 287.040588 
L 74.048035 287.040588 
L 74.048035 286.33402 
L 77.392729 286.33402 
L 77.392729 285.627451 
L 78.831139 285.627451 
L 78.831139 284.920882 
L 95.363402 284.920882 
L 95.363402 284.214314 
L 101.833461 284.214314 
L 101.833461 283.507745 
L 127.157513 283.507745 
L 127.157513 282.801176 
L 136.353452 282.801176 
L 136.353452 282.094608 
L 153.311027 282.094608 
L 153.311027 281.388039 
L 156.37532 281.388039 
L 156.37532 280.681471 
L 158.415191 280.681471 
L 158.415191 279.974902 
L 161.759885 279.974902 
L 161.759885 279.268333 
L 163.198295 279.268333 
L 163.198295 278.561765 
L 179.730558 278.561765 
L 179.730558 277.855196 
L 186.200618 277.855196 
L 186.200618 277.148627 
L 187.103778 277.148627 
L 187.103778 276.442059 
L 187.331015 276.442059 
L 187.331015 275.73549 
L 194.061601 275.73549 
L 194.061601 275.028922 
L 194.337609 275.028922 
L 194.337609 274.322353 
L 196.000702 274.322353 
L 196.000702 273.615784 
L 196.93148 273.615784 
L 196.93148 272.909216 
L 197.098098 272.909216 
L 197.098098 272.202647 
L 201.097475 272.202647 
L 201.097475 271.496078 
L 202.912816 271.496078 
L 202.912816 270.78951 
L 204.061353 270.78951 
L 204.061353 270.082941 
L 204.285234 270.082941 
L 204.28859 268.669804 
L 205.350761 268.669804 
L 205.350761 267.963235 
L 205.692744 267.963235 
L 205.711898 266.550098 
L 206.986695 266.550098 
L 207.078812 265.136961 
L 208.718094 265.136961 
L 208.718094 264.430392 
L 209.165517 264.430392 
L 209.165517 263.723824 
L 209.392754 263.723824 
L 209.392754 263.017255 
L 210.26657 263.017255 
L 210.315188 261.604118 
L 211.52467 261.604118 
L 211.52467 260.897549 
L 211.67408 260.897549 
L 211.70277 259.484412 
L 212.510211 259.484412 
L 212.510211 258.777843 
L 212.67882 258.777843 
L 212.737448 257.364706 
L 212.954828 257.364706 
L 212.996918 255.951569 
L 213.872245 255.951569 
L 213.948621 254.538431 
L 214.055674 254.538431 
L 214.055674 253.831863 
L 214.175858 253.831863 
L 214.175858 253.125294 
L 214.481801 253.125294 
L 214.481801 252.418725 
L 214.617922 252.418725 
L 214.617922 251.712157 
L 214.932887 251.712157 
L 214.932887 251.005588 
L 215.507684 251.005588 
L 215.507684 250.29902 
L 215.868765 250.29902 
L 215.868765 249.592451 
L 216.296524 249.592451 
L 216.296524 248.885882 
L 216.538423 248.885882 
L 216.538423 248.179314 
L 217.162914 248.179314 
L 217.162914 247.472745 
L 217.919824 247.472745 
L 217.919824 246.766176 
L 218.440357 246.766176 
L 218.52938 245.353039 
L 218.789331 245.353039 
L 218.883658 243.939902 
L 218.980466 243.939902 
L 219.077624 241.820196 
L 219.159838 241.820196 
L 219.159838 241.113627 
L 219.555127 241.113627 
L 219.555127 239.70049 
L 220.350672 239.70049 
L 220.350672 238.993922 
L 220.464033 238.993922 
L 220.490235 237.580784 
L 220.586002 237.580784 
L 220.586002 236.874216 
L 220.881711 236.874216 
L 220.904217 235.461078 
L 221.157719 235.461078 
L 221.157719 234.75451 
L 221.48902 234.75451 
L 221.48902 234.047941 
L 221.635201 234.047941 
L 221.635201 233.341373 
L 221.758182 233.341373 
L 221.758182 232.634804 
L 222.487936 232.634804 
L 222.504532 231.221667 
L 222.642332 231.221667 
L 222.730346 229.101961 
L 222.820813 229.101961 
L 222.931238 227.688824 
L 223.006354 227.688824 
L 223.006354 226.982255 
L 223.942942 226.982255 
L 223.967981 224.862549 
L 224.329117 224.862549 
L 224.329117 224.15598 
L 224.669447 224.15598 
L 224.669447 223.449412 
L 224.932654 223.449412 
L 224.957868 222.036275 
L 225.086478 222.036275 
L 225.086478 221.329706 
L 225.208662 221.329706 
L 225.208662 220.623137 
L 226.108202 220.623137 
L 226.108202 219.916569 
L 226.380626 219.916569 
L 226.384209 218.503431 
L 226.50608 218.503431 
L 226.50608 217.796863 
L 226.713519 217.796863 
L 226.713519 217.090294 
L 226.871756 217.090294 
L 226.949924 214.970588 
L 227.335313 214.970588 
L 227.375129 213.557451 
L 227.616538 213.557451 
L 227.616538 212.850882 
L 228.047303 212.850882 
L 228.047303 212.144314 
L 229.048435 212.144314 
L 229.123864 210.731176 
L 230.239853 210.731176 
L 230.278974 209.318039 
L 230.480884 209.318039 
L 230.553659 207.904902 
L 230.694467 207.904902 
L 230.708121 206.491765 
L 231.457712 206.491765 
L 231.541125 205.078627 
L 231.573123 205.078627 
L 231.573123 204.372059 
L 231.73372 204.372059 
L 231.73372 203.66549 
L 232.170872 203.66549 
L 232.219164 202.252353 
L 232.311622 202.252353 
L 232.393129 200.839216 
L 232.532008 200.839216 
L 232.532008 200.132647 
L 232.755556 200.132647 
L 232.828719 198.71951 
L 233.279805 198.71951 
L 233.279805 198.012941 
L 233.396814 198.012941 
L 233.396814 197.306373 
L 233.719132 197.306373 
L 233.719132 196.599804 
L 233.831539 196.599804 
L 233.920865 195.186667 
L 234.019506 195.186667 
L 234.092916 193.773529 
L 234.203934 193.773529 
L 234.203934 193.066961 
L 234.380643 193.066961 
L 234.380643 192.360392 
L 234.620725 192.360392 
L 234.728883 190.947255 
L 234.885341 190.947255 
L 234.885341 190.240686 
L 235.538204 190.240686 
L 235.538204 189.534118 
L 235.675507 189.534118 
L 235.675507 188.827549 
L 236.035199 188.827549 
L 236.136393 187.414412 
L 236.22119 187.414412 
L 236.221815 186.001275 
L 236.406491 186.001275 
L 236.512702 183.881569 
L 236.582951 183.881569 
L 236.675804 182.468431 
L 236.787275 182.468431 
L 236.787275 181.761863 
L 236.921551 181.761863 
L 236.969655 179.642157 
L 237.178181 179.642157 
L 237.230577 178.22902 
L 237.386839 178.22902 
L 237.406551 176.109314 
L 237.70064 176.109314 
L 237.758498 174.696176 
L 238.086861 174.696176 
L 238.086861 173.989608 
L 238.251513 173.989608 
L 238.341576 171.869902 
L 238.5596 171.869902 
L 238.668304 170.456765 
L 239.169155 170.456765 
L 239.169155 169.750196 
L 239.433635 169.750196 
L 239.433635 169.043627 
L 239.589147 169.043627 
L 239.660728 166.923922 
L 239.980746 166.923922 
L 240.008263 165.510784 
L 240.109309 165.510784 
L 240.109309 164.804216 
L 240.475205 164.804216 
L 240.475205 164.097647 
L 240.590302 164.097647 
L 240.634389 162.68451 
L 240.742477 162.68451 
L 240.764695 160.564804 
L 240.910397 160.564804 
L 241.012859 159.151667 
L 241.041388 159.151667 
L 241.139364 157.738529 
L 241.225777 157.738529 
L 241.274619 155.618824 
L 241.44667 155.618824 
L 241.516819 154.205686 
L 241.616866 154.205686 
L 241.616866 152.792549 
L 242.57349 152.792549 
L 242.682129 150.672843 
L 242.746873 150.672843 
L 242.85418 149.259706 
L 243.108009 149.259706 
L 243.127711 147.846569 
L 243.534073 147.846569 
L 243.571013 146.433431 
L 243.826724 146.433431 
L 243.826724 145.726863 
L 244.299807 145.726863 
L 244.299807 145.020294 
L 244.484058 145.020294 
L 244.548858 143.607157 
L 244.852998 143.607157 
L 244.96156 140.780882 
L 244.992159 140.780882 
L 245.011143 139.367745 
L 245.360448 139.367745 
L 245.465757 137.954608 
L 245.475808 137.954608 
L 245.567143 136.541471 
L 245.609442 136.541471 
L 245.609442 135.834902 
L 245.922468 135.834902 
L 245.951334 134.421765 
L 246.085363 134.421765 
L 246.139263 132.302059 
L 246.305292 132.302059 
L 246.39997 130.182353 
L 246.536449 130.182353 
L 246.536449 129.475784 
L 246.759906 129.475784 
L 246.759906 128.769216 
L 246.945265 128.769216 
L 247.014482 126.64951 
L 247.304573 126.64951 
L 247.353294 125.236373 
L 247.458077 125.236373 
L 247.476624 123.823235 
L 247.902514 123.823235 
L 247.902514 123.116667 
L 248.141985 123.116667 
L 248.141985 122.410098 
L 248.421992 122.410098 
L 248.51207 120.996961 
L 248.774441 120.996961 
L 248.867918 119.583824 
L 248.930605 119.583824 
L 248.963156 118.170686 
L 249.31122 118.170686 
L 249.31122 117.464118 
L 249.462443 117.464118 
L 249.462443 116.757549 
L 249.660385 116.757549 
L 249.66159 115.344412 
L 250.043919 115.344412 
L 250.043919 114.637843 
L 250.363802 114.637843 
L 250.363802 113.931275 
L 250.487221 113.931275 
L 250.568692 112.518137 
L 250.776471 112.518137 
L 250.835932 111.105 
L 251.052478 111.105 
L 251.052478 110.398431 
L 251.193434 110.398431 
L 251.193434 109.691863 
L 251.311077 109.691863 
L 251.347866 107.572157 
L 251.923549 107.572157 
L 251.923549 106.865588 
L 252.078851 106.865588 
L 252.078851 106.15902 
L 252.284686 106.15902 
L 252.284686 105.452451 
L 252.470626 105.452451 
L 252.550853 103.332745 
L 252.614581 103.332745 
L 252.715572 101.213039 
L 252.913928 101.213039 
L 252.967644 99.799902 
L 253.044436 99.799902 
L 253.093501 98.386765 
L 253.513386 98.386765 
L 253.513386 97.680196 
L 253.770034 97.680196 
L 253.770034 96.973627 
L 254.269503 96.973627 
L 254.269503 96.267059 
L 254.688933 96.267059 
L 254.688933 95.56049 
L 255.290882 95.56049 
L 255.290882 94.853922 
L 255.618669 94.853922 
L 255.618669 94.147353 
L 256.185443 94.147353 
L 256.185443 93.440784 
L 256.696209 93.440784 
L 256.728293 92.027647 
L 256.833861 92.027647 
L 256.933641 90.61451 
L 256.965838 90.61451 
L 256.965838 89.907941 
L 257.459277 89.907941 
L 257.552082 88.494804 
L 257.820978 88.494804 
L 257.893602 87.081667 
L 258.050855 87.081667 
L 258.161638 84.255392 
L 258.236932 84.255392 
L 258.266242 82.842255 
L 258.528757 82.842255 
L 258.624587 80.722549 
L 258.720856 80.722549 
L 258.796637 79.309412 
L 258.891289 79.309412 
L 258.996525 77.189706 
L 259.138312 77.189706 
L 259.200138 75.776569 
L 259.30808 75.776569 
L 259.30808 75.07 
L 259.589398 75.07 
L 259.589398 74.363431 
L 260.038444 74.363431 
L 260.038444 73.656863 
L 260.21826 73.656863 
L 260.312435 72.243725 
L 260.536349 72.243725 
L 260.536349 71.537157 
L 260.683503 71.537157 
L 260.729226 70.12402 
L 260.863231 70.12402 
L 260.863231 69.417451 
L 261.138117 69.417451 
L 261.194934 68.004314 
L 262.065631 68.004314 
L 262.120194 65.884608 
L 262.274995 65.884608 
L 262.274995 65.178039 
L 262.426768 65.178039 
L 262.502233 63.058333 
L 262.563495 63.058333 
L 262.563495 62.351765 
L 262.932233 62.351765 
L 262.932233 60.938627 
L 263.096868 60.938627 
L 263.096868 60.232059 
L 263.54017 60.232059 
L 263.633465 58.818922 
L 264.346036 58.818922 
L 264.36445 57.405784 
L 264.631496 57.405784 
L 264.631496 56.699216 
L 265.048287 56.699216 
L 265.048287 55.992647 
L 265.362119 55.992647 
L 265.432964 53.872941 
L 265.807497 53.872941 
L 265.807497 53.166373 
L 266.063929 53.166373 
L 266.063929 52.459804 
L 266.224288 52.459804 
L 266.253746 51.046667 
L 266.345777 51.046667 
L 266.345777 50.340098 
L 266.518543 50.340098 
L 266.518543 49.633529 
L 266.853106 49.633529 
L 266.853106 48.926961 
L 267.229239 48.926961 
L 267.322452 47.513824 
L 267.401289 47.513824 
L 267.401289 46.807255 
L 267.683852 46.807255 
L 267.683852 46.100686 
L 267.855903 46.100686 
L 267.855903 45.394118 
L 268.102381 45.394118 
L 268.102381 44.687549 
L 268.234203 44.687549 
L 268.234203 43.98098 
L 268.650995 43.98098 
L 268.650995 43.274412 
L 268.92479 43.274412 
L 268.92479 42.567843 
L 269.21512 42.567843 
L 269.21512 41.861275 
L 269.402293 41.861275 
L 269.402293 40.448137 
L 270.185917 40.448137 
L 270.213291 39.035 
L 270.304689 39.035 
L 270.304689 38.328431 
L 270.574427 38.328431 
L 270.574427 37.621863 
L 271.162591 37.621863 
L 271.162591 36.915294 
L 271.480236 36.915294 
L 271.480236 36.208725 
L 272.269316 36.208725 
L 272.269316 35.502157 
L 272.969102 35.502157 
L 272.969102 34.795588 
L 273.423715 34.795588 
L 273.522712 33.382451 
L 273.580623 33.382451 
L 273.580623 32.675882 
L 275.504201 32.675882 
L 275.504201 31.969314 
L 276.829747 31.969314 
L 276.829747 31.262745 
L 277.883771 31.262745 
L 277.883771 30.556176 
L 278.300562 30.556176 
L 278.300562 29.849608 
L 278.860446 29.849608 
L 278.860446 29.143039 
L 279.277237 29.143039 
L 279.357202 27.729902 
L 282.157913 27.729902 
L 282.157913 27.023333 
L 283.385369 27.023333 
L 283.385369 26.316765 
L 283.651861 26.316765 
L 283.664794 24.903627 
L 286.006423 24.903627 
L 286.006423 24.197059 
L 287.504861 24.197059 
L 287.504861 23.49049 
L 289.855429 23.49049 
L 289.855429 22.783922 
L 291.492803 22.783922 
L 291.492803 22.077353 
L 291.72004 22.077353 
L 291.812453 20.664216 
L 294.248842 20.664216 
L 294.248842 19.957647 
L 294.726344 19.957647 
L 294.726344 18.54451 
L 296.148505 18.54451 
L 296.148505 17.837941 
L 301.487123 17.837941 
L 301.487123 17.131373 
L 304.296165 17.131373 
L 304.296165 16.424804 
L 304.857391 16.424804 
L 304.857391 15.718235 
L 311.37572 15.718235 
L 311.37572 15.011667 
L 315.17948 15.011667 
L 315.17948 14.305098 
L 323.466649 14.305098 
L 323.466649 13.598529 
L 323.944151 13.598529 
L 323.944151 12.185392 
L 344.397288 12.185392 
L 344.397288 11.478824 
L 355.607717 11.478824 
L 355.607717 10.772255 
L 355.834954 10.772255 
L 355.834954 10.065686 
L 365.602038 10.065686 
L 365.602038 9.359118 
L 375.490635 9.359118 
L 375.490635 8.652549 
L 387.581564 8.652549 
L 387.581564 7.94598 
L 388.059066 7.94598 
L 388.059066 6.532843 
L 408.512202 6.532843 
L 408.512202 5.826275 
L 453.192 5.826275 
L 453.192 5.826275 
" clip-path="url(#pe2a710c6e3)" style="fill: none; stroke: #000000; stroke-width: 3; stroke-linecap: square"/>
   </g>
   <g id="line2d_51">
    <path clip-path="url(#pe2a710c6e3)" style="fill: none; stroke: #000000; stroke-width: 3; stroke-linecap: square"/>
   </g>
   <g id="line2d_52">
    <path d="M 34.16 252.878242 
L 164.259966 252.878242 
L 164.259966 251.890034 
L 168.206689 251.890034 
L 168.206689 250.901826 
L 172.227123 250.901826 
L 172.227123 249.913619 
L 177.724594 249.913619 
L 177.724594 248.925411 
L 178.380109 248.925411 
L 178.380109 247.937203 
L 180.007672 247.937203 
L 180.007672 246.948995 
L 185.871323 246.948995 
L 185.871323 245.960787 
L 187.776967 245.960787 
L 187.776967 244.972579 
L 189.34224 244.972579 
L 189.34224 243.984371 
L 214.549985 243.984371 
L 214.549985 242.996163 
L 218.496708 242.996163 
L 218.496708 242.007956 
L 218.688825 242.007956 
L 218.688825 241.019748 
L 219.161125 241.019748 
L 219.161125 240.03154 
L 221.536921 240.03154 
L 221.536921 239.043332 
L 221.707867 239.043332 
L 221.707867 238.055124 
L 221.94886 238.055124 
L 221.94886 237.066916 
L 222.132223 237.066916 
L 222.132223 236.078708 
L 222.517143 236.078708 
L 222.517143 235.0905 
L 222.635547 235.0905 
L 222.635547 234.102293 
L 222.883647 234.102293 
L 222.883647 233.114085 
L 223.054594 233.114085 
L 223.107848 231.137669 
L 223.295586 231.137669 
L 223.295586 230.149461 
L 223.47895 230.149461 
L 223.47895 229.161253 
L 224.076357 229.161253 
L 224.076357 228.173045 
L 224.283834 228.173045 
L 224.299284 226.19663 
L 224.45478 226.19663 
L 224.45478 225.208422 
L 224.695773 225.208422 
L 224.695773 224.220214 
L 224.879137 224.220214 
L 224.879137 223.232006 
L 225.64601 223.232006 
L 225.64601 222.243798 
L 226.655982 222.243798 
L 226.655982 221.25559 
L 227.046197 221.25559 
L 227.128283 219.279175 
L 227.306061 219.279175 
L 227.306061 218.290967 
L 228.014613 218.290967 
L 228.023079 216.314551 
L 228.553066 216.314551 
L 228.553066 215.326343 
L 228.670128 215.326343 
L 228.670128 214.338135 
L 230.239584 214.338135 
L 230.297691 212.361719 
L 230.600327 212.361719 
L 230.607003 210.385304 
L 230.771273 210.385304 
L 230.814288 208.408888 
L 231.012266 208.408888 
L 231.012266 207.42068 
L 231.195629 207.42068 
L 231.235986 205.444264 
L 231.684947 205.444264 
L 231.765645 203.467849 
L 232.043514 203.467849 
L 232.153453 201.491433 
L 232.161014 201.491433 
L 232.161014 200.503225 
L 232.499789 200.503225 
L 232.582713 198.526809 
L 232.625753 198.526809 
L 232.625753 197.538601 
L 232.808967 197.538601 
L 232.808967 196.550394 
L 233.101534 196.550394 
L 233.117019 193.58577 
L 233.27248 193.58577 
L 233.36269 189.632938 
L 233.513473 189.632938 
L 233.561201 187.656523 
L 233.696837 187.656523 
L 233.696837 186.668315 
L 233.9829 186.668315 
L 233.9829 185.680107 
L 234.43653 185.680107 
L 234.512558 183.703691 
L 234.553726 183.703691 
L 234.553726 182.715483 
L 234.908831 182.715483 
L 234.908831 181.727275 
L 235.595267 181.727275 
L 235.63167 179.75086 
L 235.766213 179.75086 
L 235.863897 177.774444 
L 235.919807 177.774444 
L 236.007206 175.798028 
L 236.161343 175.798028 
L 236.26692 172.833405 
L 236.520223 172.833405 
L 236.520223 171.845197 
L 237.392492 171.845197 
L 237.392492 170.856989 
L 237.540984 170.856989 
L 237.540984 169.868781 
L 238.066986 169.868781 
L 238.066986 168.880573 
L 238.196499 168.880573 
L 238.196499 167.892365 
L 238.35763 167.892365 
L 238.35763 166.904157 
L 238.574161 166.904157 
L 238.574161 165.91595 
L 238.853331 165.91595 
L 238.853331 164.927742 
L 239.144355 164.927742 
L 239.144355 163.939534 
L 239.632259 163.939534 
L 239.652105 161.963118 
L 239.8028 161.963118 
L 239.877694 158.998494 
L 240.299392 158.998494 
L 240.300182 157.022079 
L 240.772483 157.022079 
L 240.829051 155.045663 
L 241.730765 155.045663 
L 241.769421 152.081039 
L 241.921718 152.081039 
L 242.017694 150.104624 
L 242.162711 150.104624 
L 242.224328 147.14 
L 242.346074 147.14 
L 242.452067 143.187169 
L 242.5399 143.187169 
L 242.623013 141.210753 
L 242.673209 141.210753 
L 242.780892 138.246129 
L 242.78617 138.246129 
L 242.864006 135.281506 
L 242.957116 135.281506 
L 243.04737 132.316882 
L 243.198109 132.316882 
L 243.198109 131.328674 
L 243.330258 131.328674 
L 243.419828 128.36405 
L 243.771098 128.36405 
L 243.771098 127.375843 
L 244.071631 127.375843 
L 244.071631 126.387635 
L 244.243399 126.387635 
L 244.300772 124.411219 
L 244.513134 124.411219 
L 244.513134 123.423011 
L 244.727146 123.423011 
L 244.727146 122.434803 
L 244.872634 122.434803 
L 244.872634 121.446595 
L 245.131316 121.446595 
L 245.21443 118.481972 
L 245.294333 118.481972 
L 245.294333 117.493764 
L 245.548532 117.493764 
L 245.548532 116.505556 
L 245.687714 116.505556 
L 245.716143 114.52914 
L 245.80509 114.52914 
L 245.823991 112.552725 
L 246.006238 112.552725 
L 246.006238 111.564517 
L 246.354709 111.564517 
L 246.354709 110.576309 
L 247.432653 110.576309 
L 247.432653 109.588101 
L 247.593358 109.588101 
L 247.593358 108.599893 
L 248.20244 108.599893 
L 248.20244 107.611685 
L 248.619247 107.611685 
L 248.619247 106.623477 
L 249.15863 106.623477 
L 249.15863 105.635269 
L 249.736578 105.635269 
L 249.736578 104.647062 
L 250.164424 104.647062 
L 250.164424 103.658854 
L 251.028139 103.658854 
L 251.028139 102.670646 
L 251.449837 102.670646 
L 251.449837 101.682438 
L 251.64632 101.682438 
L 251.729434 99.706022 
L 251.979496 99.706022 
L 252.070067 95.753191 
L 252.149162 95.753191 
L 252.218361 92.788567 
L 252.485235 92.788567 
L 252.485235 91.800359 
L 252.597677 91.800359 
L 252.680791 89.823944 
L 253.014894 89.823944 
L 253.014894 88.835736 
L 253.296305 88.835736 
L 253.296305 87.847528 
L 253.63534 87.847528 
L 253.63534 86.85932 
L 254.124004 86.85932 
L 254.124004 85.871112 
L 255.201948 85.871112 
L 255.234048 83.894696 
L 255.689277 83.894696 
L 255.689277 82.906488 
L 255.889563 82.906488 
L 255.889563 81.918281 
L 256.169597 81.918281 
L 256.169597 80.930073 
L 256.767221 80.930073 
L 256.767221 79.941865 
L 257.517126 79.941865 
L 257.517126 78.953657 
L 261.667067 78.953657 
L 261.667067 77.965449 
L 262.322582 77.965449 
L 262.322582 76.977241 
L 263.380778 76.977241 
L 263.380778 75.989033 
L 263.950145 75.989033 
L 263.950145 75.000825 
L 265.286422 75.000825 
L 265.286422 74.012618 
L 266.851694 74.012618 
L 266.851694 73.02441 
L 269.813797 73.02441 
L 269.813797 72.036202 
L 271.719441 72.036202 
L 271.719441 71.047994 
L 273.284713 71.047994 
L 273.284713 70.059786 
L 298.909266 70.059786 
L 298.909266 69.071578 
L 303.048106 69.071578 
L 303.048106 68.08337 
L 303.520406 68.08337 
L 303.520406 67.095162 
L 308.435637 67.095162 
L 308.435637 66.106955 
L 312.912347 66.106955 
L 312.912347 65.118747 
L 314.966284 65.118747 
L 314.966284 64.130539 
L 316.044228 64.130539 
L 316.044228 63.142331 
L 326.128702 63.142331 
L 326.128702 62.154123 
L 332.56172 62.154123 
L 332.56172 61.165915 
L 453.192 61.165915 
L 453.192 61.165915 
" clip-path="url(#pe2a710c6e3)" style="fill: none; stroke: #00bfbf; stroke-width: 3; stroke-linecap: square"/>
   </g>
   <g id="line2d_53">
    <path clip-path="url(#pe2a710c6e3)" style="fill: none; stroke: #00bfbf; stroke-width: 3; stroke-linecap: square"/>
   </g>
   <g id="line2d_54">
    <path d="M 34.16 283.406807 
L 180.134109 283.406807 
L 180.134109 280.883347 
L 185.990838 280.883347 
L 185.990838 278.359888 
L 190.829471 278.359888 
L 190.829471 275.836429 
L 200.109095 275.836429 
L 200.109095 273.312969 
L 200.326596 273.312969 
L 200.326596 270.78951 
L 208.31296 270.78951 
L 208.31296 268.26605 
L 216.396249 268.26605 
L 216.396249 265.742591 
L 238.795434 265.742591 
L 238.795434 263.219132 
L 453.192 263.219132 
" clip-path="url(#pe2a710c6e3)" style="fill: none; stroke: #bf00bf; stroke-width: 3; stroke-linecap: square"/>
   </g>
   <g id="line2d_55">
    <path clip-path="url(#pe2a710c6e3)" style="fill: none; stroke: #bf00bf; stroke-width: 3; stroke-linecap: square"/>
   </g>
   <g id="line2d_56"/>
   <g id="line2d_57"/>
   <g id="line2d_58">
    <path d="M 243.676 291.28 
L 243.676 3 
" clip-path="url(#pe2a710c6e3)" style="fill: none; stroke: #000000; stroke-width: 1.5; stroke-linecap: square"/>
   </g>
   <g id="line2d_59">
    <path d="M 34.16 147.14 
L 453.192 147.14 
" clip-path="url(#pe2a710c6e3)" style="fill: none; stroke-dasharray: 2,3.3; stroke-dashoffset: 0; stroke: #000000; stroke-width: 2"/>
   </g>
   <g id="patch_3">
    <path d="M 34.16 291.28 
L 34.16 3 
" style="fill: none; stroke: #000000; stroke-width: 0.8; stroke-linejoin: miter; stroke-linecap: square"/>
   </g>
   <g id="patch_4">
    <path d="M 453.192 291.28 
L 453.192 3 
" style="fill: none; stroke: #000000; stroke-width: 0.8; stroke-linejoin: miter; stroke-linecap: square"/>
   </g>
   <g id="patch_5">
    <path d="M 34.16 291.28 
L 453.192 291.28 
" style="fill: none; stroke: #000000; stroke-width: 0.8; stroke-linejoin: miter; stroke-linecap: square"/>
   </g>
   <g id="patch_6">
    <path d="M 34.16 3 
L 453.192 3 
" style="fill: none; stroke: #000000; stroke-width: 0.8; stroke-linejoin: miter; stroke-linecap: square"/>
   </g>
   <g id="text_5">
    <!-- f39, f40, f44, f45,5-D -->
    <g transform="translate(235.014485 285.5144) scale(0.2 -0.2)">
     <defs>
      <path id="DejaVuSans-33" d="M 2597 2516 
Q 3050 2419 3304 2112 
Q 3559 1806 3559 1356 
Q 3559 666 3084 287 
Q 2609 -91 1734 -91 
Q 1441 -91 1130 -33 
Q 819 25 488 141 
L 488 750 
Q 750 597 1062 519 
Q 1375 441 1716 441 
Q 2309 441 2620 675 
Q 2931 909 2931 1356 
Q 2931 1769 2642 2001 
Q 2353 2234 1838 2234 
L 1294 2234 
L 1294 2753 
L 1863 2753 
Q 2328 2753 2575 2939 
Q 2822 3125 2822 3475 
Q 2822 3834 2567 4026 
Q 2313 4219 1838 4219 
Q 1578 4219 1281 4162 
Q 984 4106 628 3988 
L 628 4550 
Q 988 4650 1302 4700 
Q 1616 4750 1894 4750 
Q 2613 4750 3031 4423 
Q 3450 4097 3450 3541 
Q 3450 3153 3228 2886 
Q 3006 2619 2597 2516 
z
" transform="scale(0.015625)"/>
      <path id="DejaVuSans-39" d="M 703 97 
L 703 672 
Q 941 559 1184 500 
Q 1428 441 1663 441 
Q 2288 441 2617 861 
Q 2947 1281 2994 2138 
Q 2813 1869 2534 1725 
Q 2256 1581 1919 1581 
Q 1219 1581 811 2004 
Q 403 2428 403 3163 
Q 403 3881 828 4315 
Q 1253 4750 1959 4750 
Q 2769 4750 3195 4129 
Q 3622 3509 3622 2328 
Q 3622 1225 3098 567 
Q 2575 -91 1691 -91 
Q 1453 -91 1209 -44 
Q 966 3 703 97 
z
M 1959 2075 
Q 2384 2075 2632 2365 
Q 2881 2656 2881 3163 
Q 2881 3666 2632 3958 
Q 2384 4250 1959 4250 
Q 1534 4250 1286 3958 
Q 1038 3666 1038 3163 
Q 1038 2656 1286 2365 
Q 1534 2075 1959 2075 
z
" transform="scale(0.015625)"/>
      <path id="DejaVuSans-2c" d="M 750 794 
L 1409 794 
L 1409 256 
L 897 -744 
L 494 -744 
L 750 256 
L 750 794 
z
" transform="scale(0.015625)"/>
      <path id="DejaVuSans-34" d="M 2419 4116 
L 825 1625 
L 2419 1625 
L 2419 4116 
z
M 2253 4666 
L 3047 4666 
L 3047 1625 
L 3713 1625 
L 3713 1100 
L 3047 1100 
L 3047 0 
L 2419 0 
L 2419 1100 
L 313 1100 
L 313 1709 
L 2253 4666 
z
" transform="scale(0.015625)"/>
      <path id="DejaVuSans-35" d="M 691 4666 
L 3169 4666 
L 3169 4134 
L 1269 4134 
L 1269 2991 
Q 1406 3038 1543 3061 
Q 1681 3084 1819 3084 
Q 2600 3084 3056 2656 
Q 3513 2228 3513 1497 
Q 3513 744 3044 326 
Q 2575 -91 1722 -91 
Q 1428 -91 1123 -41 
Q 819 9 494 109 
L 494 744 
Q 775 591 1075 516 
Q 1375 441 1709 441 
Q 2250 441 2565 725 
Q 2881 1009 2881 1497 
Q 2881 1984 2565 2268 
Q 2250 2553 1709 2553 
Q 1456 2553 1204 2497 
Q 953 2441 691 2322 
L 691 4666 
z
" transform="scale(0.015625)"/>
      <path id="DejaVuSans-44" d="M 1259 4147 
L 1259 519 
L 2022 519 
Q 2988 519 3436 956 
Q 3884 1394 3884 2338 
Q 3884 3275 3436 3711 
Q 2988 4147 2022 4147 
L 1259 4147 
z
M 628 4666 
L 1925 4666 
Q 3281 4666 3915 4102 
Q 4550 3538 4550 2338 
Q 4550 1131 3912 565 
Q 3275 0 1925 0 
L 628 0 
L 628 4666 
z
" transform="scale(0.015625)"/>
     </defs>
     <use xlink:href="#DejaVuSans-66"/>
     <use xlink:href="#DejaVuSans-33" x="35.205078"/>
     <use xlink:href="#DejaVuSans-39" x="98.828125"/>
     <use xlink:href="#DejaVuSans-2c" x="162.451172"/>
     <use xlink:href="#DejaVuSans-20" x="194.238281"/>
     <use xlink:href="#DejaVuSans-66" x="226.025391"/>
     <use xlink:href="#DejaVuSans-34" x="261.230469"/>
     <use xlink:href="#DejaVuSans-30" x="324.853516"/>
     <use xlink:href="#DejaVuSans-2c" x="388.476562"/>
     <use xlink:href="#DejaVuSans-20" x="420.263672"/>
     <use xlink:href="#DejaVuSans-66" x="452.050781"/>
     <use xlink:href="#DejaVuSans-34" x="487.255859"/>
     <use xlink:href="#DejaVuSans-34" x="550.878906"/>
     <use xlink:href="#DejaVuSans-2c" x="614.501953"/>
     <use xlink:href="#DejaVuSans-20" x="646.289062"/>
     <use xlink:href="#DejaVuSans-66" x="678.076172"/>
     <use xlink:href="#DejaVuSans-34" x="713.28125"/>
     <use xlink:href="#DejaVuSans-35" x="776.904297"/>
     <use xlink:href="#DejaVuSans-2c" x="840.527344"/>
     <use xlink:href="#DejaVuSans-35" x="872.314453"/>
     <use xlink:href="#DejaVuSans-2d" x="935.9375"/>
     <use xlink:href="#DejaVuSans-44" x="972.021484"/>
    </g>
   </g>
   <g id="text_6">
    <!-- v2.6, hv-hash=ff0e71e8cd978373 -->
    <g style="fill: #808080" transform="translate(158.180687 286.317512) scale(0.1 -0.1)">
     <defs>
      <path id="DejaVuSans-32" d="M 1228 531 
L 3431 531 
L 3431 0 
L 469 0 
L 469 531 
Q 828 903 1448 1529 
Q 2069 2156 2228 2338 
Q 2531 2678 2651 2914 
Q 2772 3150 2772 3378 
Q 2772 3750 2511 3984 
Q 2250 4219 1831 4219 
Q 1534 4219 1204 4116 
Q 875 4013 500 3803 
L 500 4441 
Q 881 4594 1212 4672 
Q 1544 4750 1819 4750 
Q 2544 4750 2975 4387 
Q 3406 4025 3406 3419 
Q 3406 3131 3298 2873 
Q 3191 2616 2906 2266 
Q 2828 2175 2409 1742 
Q 1991 1309 1228 531 
z
" transform="scale(0.015625)"/>
      <path id="DejaVuSans-2e" d="M 684 794 
L 1344 794 
L 1344 0 
L 684 0 
L 684 794 
z
" transform="scale(0.015625)"/>
      <path id="DejaVuSans-36" d="M 2113 2584 
Q 1688 2584 1439 2293 
Q 1191 2003 1191 1497 
Q 1191 994 1439 701 
Q 1688 409 2113 409 
Q 2538 409 2786 701 
Q 3034 994 3034 1497 
Q 3034 2003 2786 2293 
Q 2538 2584 2113 2584 
z
M 3366 4563 
L 3366 3988 
Q 3128 4100 2886 4159 
Q 2644 4219 2406 4219 
Q 1781 4219 1451 3797 
Q 1122 3375 1075 2522 
Q 1259 2794 1537 2939 
Q 1816 3084 2150 3084 
Q 2853 3084 3261 2657 
Q 3669 2231 3669 1497 
Q 3669 778 3244 343 
Q 2819 -91 2113 -91 
Q 1303 -91 875 529 
Q 447 1150 447 2328 
Q 447 3434 972 4092 
Q 1497 4750 2381 4750 
Q 2619 4750 2861 4703 
Q 3103 4656 3366 4563 
z
" transform="scale(0.015625)"/>
      <path id="DejaVuSans-68" d="M 3513 2113 
L 3513 0 
L 2938 0 
L 2938 2094 
Q 2938 2591 2744 2837 
Q 2550 3084 2163 3084 
Q 1697 3084 1428 2787 
Q 1159 2491 1159 1978 
L 1159 0 
L 581 0 
L 581 4863 
L 1159 4863 
L 1159 2956 
Q 1366 3272 1645 3428 
Q 1925 3584 2291 3584 
Q 2894 3584 3203 3211 
Q 3513 2838 3513 2113 
z
" transform="scale(0.015625)"/>
      <path id="DejaVuSans-3d" d="M 678 2906 
L 4684 2906 
L 4684 2381 
L 678 2381 
L 678 2906 
z
M 678 1631 
L 4684 1631 
L 4684 1100 
L 678 1100 
L 678 1631 
z
" transform="scale(0.015625)"/>
      <path id="DejaVuSans-65" d="M 3597 1894 
L 3597 1613 
L 953 1613 
Q 991 1019 1311 708 
Q 1631 397 2203 397 
Q 2534 397 2845 478 
Q 3156 559 3463 722 
L 3463 178 
Q 3153 47 2828 -22 
Q 2503 -91 2169 -91 
Q 1331 -91 842 396 
Q 353 884 353 1716 
Q 353 2575 817 3079 
Q 1281 3584 2069 3584 
Q 2775 3584 3186 3129 
Q 3597 2675 3597 1894 
z
M 3022 2063 
Q 3016 2534 2758 2815 
Q 2500 3097 2075 3097 
Q 1594 3097 1305 2825 
Q 1016 2553 972 2059 
L 3022 2063 
z
" transform="scale(0.015625)"/>
      <path id="DejaVuSans-37" d="M 525 4666 
L 3525 4666 
L 3525 4397 
L 1831 0 
L 1172 0 
L 2766 4134 
L 525 4134 
L 525 4666 
z
" transform="scale(0.015625)"/>
      <path id="DejaVuSans-38" d="M 2034 2216 
Q 1584 2216 1326 1975 
Q 1069 1734 1069 1313 
Q 1069 891 1326 650 
Q 1584 409 2034 409 
Q 2484 409 2743 651 
Q 3003 894 3003 1313 
Q 3003 1734 2745 1975 
Q 2488 2216 2034 2216 
z
M 1403 2484 
Q 997 2584 770 2862 
Q 544 3141 544 3541 
Q 544 4100 942 4425 
Q 1341 4750 2034 4750 
Q 2731 4750 3128 4425 
Q 3525 4100 3525 3541 
Q 3525 3141 3298 2862 
Q 3072 2584 2669 2484 
Q 3125 2378 3379 2068 
Q 3634 1759 3634 1313 
Q 3634 634 3220 271 
Q 2806 -91 2034 -91 
Q 1263 -91 848 271 
Q 434 634 434 1313 
Q 434 1759 690 2068 
Q 947 2378 1403 2484 
z
M 1172 3481 
Q 1172 3119 1398 2916 
Q 1625 2713 2034 2713 
Q 2441 2713 2670 2916 
Q 2900 3119 2900 3481 
Q 2900 3844 2670 4047 
Q 2441 4250 2034 4250 
Q 1625 4250 1398 4047 
Q 1172 3844 1172 3481 
z
" transform="scale(0.015625)"/>
      <path id="DejaVuSans-63" d="M 3122 3366 
L 3122 2828 
Q 2878 2963 2633 3030 
Q 2388 3097 2138 3097 
Q 1578 3097 1268 2742 
Q 959 2388 959 1747 
Q 959 1106 1268 751 
Q 1578 397 2138 397 
Q 2388 397 2633 464 
Q 2878 531 3122 666 
L 3122 134 
Q 2881 22 2623 -34 
Q 2366 -91 2075 -91 
Q 1284 -91 818 406 
Q 353 903 353 1747 
Q 353 2603 823 3093 
Q 1294 3584 2113 3584 
Q 2378 3584 2631 3529 
Q 2884 3475 3122 3366 
z
" transform="scale(0.015625)"/>
      <path id="DejaVuSans-64" d="M 2906 2969 
L 2906 4863 
L 3481 4863 
L 3481 0 
L 2906 0 
L 2906 525 
Q 2725 213 2448 61 
Q 2172 -91 1784 -91 
Q 1150 -91 751 415 
Q 353 922 353 1747 
Q 353 2572 751 3078 
Q 1150 3584 1784 3584 
Q 2172 3584 2448 3432 
Q 2725 3281 2906 2969 
z
M 947 1747 
Q 947 1113 1208 752 
Q 1469 391 1925 391 
Q 2381 391 2643 752 
Q 2906 1113 2906 1747 
Q 2906 2381 2643 2742 
Q 2381 3103 1925 3103 
Q 1469 3103 1208 2742 
Q 947 2381 947 1747 
z
" transform="scale(0.015625)"/>
     </defs>
     <use xlink:href="#DejaVuSans-76"/>
     <use xlink:href="#DejaVuSans-32" x="59.179688"/>
     <use xlink:href="#DejaVuSans-2e" x="122.802734"/>
     <use xlink:href="#DejaVuSans-36" x="154.589844"/>
     <use xlink:href="#DejaVuSans-2c" x="218.212891"/>
     <use xlink:href="#DejaVuSans-20" x="250"/>
     <use xlink:href="#DejaVuSans-68" x="281.787109"/>
     <use xlink:href="#DejaVuSans-76" x="345.166016"/>
     <use xlink:href="#DejaVuSans-2d" x="401.720703"/>
     <use xlink:href="#DejaVuSans-68" x="437.804688"/>
     <use xlink:href="#DejaVuSans-61" x="501.183594"/>
     <use xlink:href="#DejaVuSans-73" x="562.462891"/>
     <use xlink:href="#DejaVuSans-68" x="614.5625"/>
     <use xlink:href="#DejaVuSans-3d" x="677.941406"/>
     <use xlink:href="#DejaVuSans-66" x="761.730469"/>
     <use xlink:href="#DejaVuSans-66" x="796.935547"/>
     <use xlink:href="#DejaVuSans-30" x="832.140625"/>
     <use xlink:href="#DejaVuSans-65" x="895.763672"/>
     <use xlink:href="#DejaVuSans-37" x="957.287109"/>
     <use xlink:href="#DejaVuSans-31" x="1020.910156"/>
     <use xlink:href="#DejaVuSans-65" x="1084.533203"/>
     <use xlink:href="#DejaVuSans-38" x="1146.056641"/>
     <use xlink:href="#DejaVuSans-63" x="1209.679688"/>
     <use xlink:href="#DejaVuSans-64" x="1264.660156"/>
     <use xlink:href="#DejaVuSans-39" x="1328.136719"/>
     <use xlink:href="#DejaVuSans-37" x="1391.759766"/>
     <use xlink:href="#DejaVuSans-38" x="1455.382812"/>
     <use xlink:href="#DejaVuSans-33" x="1519.005859"/>
     <use xlink:href="#DejaVuSans-37" x="1582.628906"/>
     <use xlink:href="#DejaVuSans-33" x="1646.251953"/>
    </g>
   </g>
   <g id="legend_1">
    <g id="patch_7">
     <path d="M 48.16 165.78125 
L 177.381875 165.78125 
Q 181.381875 165.78125 181.381875 161.78125 
L 181.381875 17 
Q 181.381875 13 177.381875 13 
L 48.16 13 
Q 44.16 13 44.16 17 
L 44.16 161.78125 
Q 44.16 165.78125 48.16 165.78125 
z
" style="fill: #ffffff; opacity: 0.2; stroke: #cccccc; stroke-linejoin: miter"/>
    </g>
    <g id="line2d_60">
     <path d="M 52.16 29.196875 
L 72.16 29.196875 
L 92.16 29.196875 
" style="fill: none; stroke: #000000; stroke-width: 3; stroke-linecap: square"/>
    </g>
    <g id="text_7">
     <!-- -1: 4/4 -->
     <g transform="translate(108.16 36.196875) scale(0.2 -0.2)">
      <defs>
       <path id="DejaVuSans-3a" d="M 750 794 
L 1409 794 
L 1409 0 
L 750 0 
L 750 794 
z
M 750 3309 
L 1409 3309 
L 1409 2516 
L 750 2516 
L 750 3309 
z
" transform="scale(0.015625)"/>
       <path id="DejaVuSans-2f" d="M 1625 4666 
L 2156 4666 
L 531 -594 
L 0 -594 
L 1625 4666 
z
" transform="scale(0.015625)"/>
      </defs>
      <use xlink:href="#DejaVuSans-2d"/>
      <use xlink:href="#DejaVuSans-31" x="36.083984"/>
      <use xlink:href="#DejaVuSans-3a" x="99.707031"/>
      <use xlink:href="#DejaVuSans-20" x="133.398438"/>
      <use xlink:href="#DejaVuSans-34" x="165.185547"/>
      <use xlink:href="#DejaVuSans-2f" x="228.808594"/>
      <use xlink:href="#DejaVuSans-34" x="262.5"/>
     </g>
    </g>
    <g id="line2d_61">
     <path d="M 52.16 58.553125 
L 72.16 58.553125 
L 92.16 58.553125 
" style="fill: none; stroke: #00bfbf; stroke-width: 3; stroke-linecap: square"/>
    </g>
    <g id="text_8">
     <!-- -2: 4/4 -->
     <g transform="translate(108.16 65.553125) scale(0.2 -0.2)">
      <use xlink:href="#DejaVuSans-2d"/>
      <use xlink:href="#DejaVuSans-32" x="36.083984"/>
      <use xlink:href="#DejaVuSans-3a" x="99.707031"/>
      <use xlink:href="#DejaVuSans-20" x="133.398438"/>
      <use xlink:href="#DejaVuSans-34" x="165.185547"/>
      <use xlink:href="#DejaVuSans-2f" x="228.808594"/>
      <use xlink:href="#DejaVuSans-34" x="262.5"/>
     </g>
    </g>
    <g id="line2d_62">
     <path d="M 52.16 87.909375 
L 72.16 87.909375 
L 92.16 87.909375 
" style="fill: none; stroke: #bf00bf; stroke-width: 3; stroke-linecap: square"/>
    </g>
    <g id="text_9">
     <!-- -3: 1/2 -->
     <g transform="translate(108.16 94.909375) scale(0.2 -0.2)">
      <use xlink:href="#DejaVuSans-2d"/>
      <use xlink:href="#DejaVuSans-33" x="36.083984"/>
      <use xlink:href="#DejaVuSans-3a" x="99.707031"/>
      <use xlink:href="#DejaVuSans-20" x="133.398438"/>
      <use xlink:href="#DejaVuSans-31" x="165.185547"/>
      <use xlink:href="#DejaVuSans-2f" x="228.808594"/>
      <use xlink:href="#DejaVuSans-32" x="262.5"/>
     </g>
    </g>
    <g id="line2d_63">
     <path d="M 52.16 117.265625 
L 72.16 117.265625 
L 92.16 117.265625 
" style="fill: none; stroke: #ff0000; stroke-width: 3; stroke-linecap: square"/>
    </g>
    <g id="text_10">
     <!-- -4: 0/0 -->
     <g transform="translate(108.16 124.265625) scale(0.2 -0.2)">
      <use xlink:href="#DejaVuSans-2d"/>
      <use xlink:href="#DejaVuSans-34" x="36.083984"/>
      <use xlink:href="#DejaVuSans-3a" x="99.707031"/>
      <use xlink:href="#DejaVuSans-20" x="133.398438"/>
      <use xlink:href="#DejaVuSans-30" x="165.185547"/>
      <use xlink:href="#DejaVuSans-2f" x="228.808594"/>
      <use xlink:href="#DejaVuSans-30" x="262.5"/>
     </g>
    </g>
    <g id="line2d_64">
     <path d="M 52.16 146.621875 
L 72.16 146.621875 
L 92.16 146.621875 
" style="fill: none; stroke: #0000ff; stroke-width: 3; stroke-linecap: square"/>
    </g>
    <g id="text_11">
     <!-- -5: 0/0 -->
     <g transform="translate(108.16 153.621875) scale(0.2 -0.2)">
      <use xlink:href="#DejaVuSans-2d"/>
      <use xlink:href="#DejaVuSans-35" x="36.083984"/>
      <use xlink:href="#DejaVuSans-3a" x="99.707031"/>
      <use xlink:href="#DejaVuSans-20" x="133.398438"/>
      <use xlink:href="#DejaVuSans-30" x="165.185547"/>
      <use xlink:href="#DejaVuSans-2f" x="228.808594"/>
      <use xlink:href="#DejaVuSans-30" x="262.5"/>
     </g>
    </g>
   </g>
  </g>
 </g>
 <defs>
  <clipPath id="pe2a710c6e3">
   <rect x="34.16" y="3" width="419.032" height="288.28"/>
  </clipPath>
 </defs>
</svg>
