<?xml version="1.0" encoding="utf-8" standalone="no"?>
<!DOCTYPE svg PUBLIC "-//W3C//DTD SVG 1.1//EN"
  "http://www.w3.org/Graphics/SVG/1.1/DTD/svg11.dtd">
<svg xmlns:xlink="http://www.w3.org/1999/xlink" width="460.8pt" height="345.6pt" viewBox="0 0 460.8 345.6" xmlns="http://www.w3.org/2000/svg" version="1.1">
 <metadata>
  <rdf:RDF xmlns:dc="http://purl.org/dc/elements/1.1/" xmlns:cc="http://creativecommons.org/ns#" xmlns:rdf="http://www.w3.org/1999/02/22-rdf-syntax-ns#">
   <cc:Work>
    <dc:type rdf:resource="http://purl.org/dc/dcmitype/StillImage"/>
    <dc:date>2023-02-10T22:28:32.403572</dc:date>
    <dc:format>image/svg+xml</dc:format>
    <dc:creator>
     <cc:Agent>
      <dc:title>Matplotlib v3.6.3, https://matplotlib.org/</dc:title>
     </cc:Agent>
    </dc:creator>
   </cc:Work>
  </rdf:RDF>
 </metadata>
 <defs>
  <style type="text/css">*{stroke-linejoin: round; stroke-linecap: butt}</style>
 </defs>
 <g id="figure_1">
  <g id="patch_1">
   <path d="M 0 345.6 
L 460.8 345.6 
L 460.8 0 
L 0 0 
z
" style="fill: #ffffff"/>
  </g>
  <g id="axes_1">
   <g id="patch_2">
    <path d="M 57.6 298.944 
L 360.8064 298.944 
L 360.8064 6.912 
L 57.6 6.912 
z
" style="fill: #ffffff"/>
   </g>
   <g id="line2d_1">
    <path d="M 49.972572 298.944 
L 49.972572 293.908966 
L 57.6 293.908966 
L 57.6 292.650207 
L 63.011746 292.650207 
L 63.011746 290.13269 
L 67.209423 290.13269 
L 67.209423 286.356414 
L 80.248597 286.356414 
L 80.248597 281.321379 
L 85.184077 281.321379 
L 85.184077 276.286345 
L 90.230539 276.286345 
L 90.230539 275.027586 
L 91.305777 275.027586 
L 91.305777 272.510069 
L 92.322865 272.510069 
L 92.322865 271.25131 
L 93.287772 271.25131 
L 93.287772 269.992552 
L 98.223251 269.992552 
L 98.223251 266.216276 
L 104.344952 266.216276 
L 104.344952 262.44 
L 107.244765 262.44 
L 107.244765 259.922483 
L 107.68741 259.922483 
L 107.68741 256.146207 
L 109.360651 256.146207 
L 109.360651 254.887448 
L 109.756698 254.887448 
L 109.756698 252.369931 
L 116.308887 252.369931 
L 116.308887 251.111172 
L 118.889854 251.111172 
L 118.889854 249.852414 
L 119.599808 249.852414 
L 119.599808 247.334897 
L 123.936316 247.334897 
L 123.936316 243.558621 
L 125.862901 243.558621 
L 125.862901 241.041103 
L 126.355808 241.041103 
L 126.355808 239.782345 
L 127.911368 239.782345 
L 127.911368 237.264828 
L 129.758512 237.264828 
L 129.758512 234.74731 
L 132.04923 234.74731 
L 132.04923 230.971034 
L 134.091039 230.971034 
L 134.091039 229.712276 
L 136.413909 229.712276 
L 136.413909 225.936 
L 138.050729 225.936 
L 138.050729 223.418483 
L 138.73486 223.418483 
L 138.73486 220.900966 
L 141.173167 220.900966 
L 141.173167 218.383448 
L 142.729897 218.383448 
L 142.729897 215.865931 
L 147.237402 215.865931 
L 147.290768 209.572138 
L 148.825169 209.572138 
L 148.825169 207.054621 
L 152.189318 207.054621 
L 152.189318 204.537103 
L 153.305585 204.537103 
L 153.305585 202.019586 
L 154.793439 202.019586 
L 154.793439 199.502069 
L 155.391799 199.502069 
L 155.391799 195.725793 
L 157.795157 195.725793 
L 157.795157 194.467034 
L 160.088594 194.467034 
L 160.088594 191.949517 
L 161.617145 191.949517 
L 161.617145 190.690759 
L 163.621521 190.690759 
L 163.621521 186.914483 
L 165.894279 186.914483 
L 165.894279 184.396966 
L 168.6034 184.396966 
L 168.6034 183.138207 
L 169.622295 183.138207 
L 169.622295 179.361931 
L 176.694218 179.361931 
L 176.694218 178.103172 
L 177.255141 178.103172 
L 177.255141 175.585655 
L 177.662473 175.585655 
L 177.662473 173.068138 
L 178.329176 173.068138 
L 178.329176 169.291862 
L 184.744809 169.291862 
L 184.744809 166.774345 
L 185.785246 166.774345 
L 185.785246 165.515586 
L 186.920828 165.515586 
L 186.920828 161.73931 
L 192.199216 161.73931 
L 192.199216 157.963034 
L 196.166339 157.963034 
L 196.166339 156.704276 
L 197.754852 156.704276 
L 197.754852 154.186759 
L 199.940546 154.186759 
L 199.940546 152.928 
L 200.137426 152.928 
L 200.137426 150.410483 
L 200.62236 150.410483 
L 200.62236 149.151724 
L 203.071608 149.151724 
L 203.071608 145.375448 
L 205.705047 145.375448 
L 205.705047 141.599172 
L 206.784 141.599172 
L 206.784 140.340414 
L 208.012581 140.340414 
L 208.012581 139.081655 
L 209.098144 139.081655 
L 209.098144 135.305379 
L 210.442742 135.305379 
L 210.442742 131.529103 
L 213.839047 131.529103 
L 213.839047 130.270345 
L 214.902573 130.270345 
L 214.902573 126.494069 
L 215.873044 126.494069 
L 215.873044 123.976552 
L 217.287387 123.976552 
L 217.287387 121.459034 
L 222.333698 121.459034 
L 222.333698 117.682759 
L 223.714388 117.682759 
L 223.714388 116.424 
L 226.369261 116.424 
L 226.369261 115.165241 
L 228.347434 115.165241 
L 228.347434 113.906483 
L 230.697688 113.906483 
L 230.697688 111.388966 
L 231.580506 111.388966 
L 231.580506 107.61269 
L 233.154353 107.61269 
L 233.154353 103.836414 
L 234.657434 103.836414 
L 234.657434 100.060138 
L 236.688355 100.060138 
L 236.688355 98.801379 
L 239.077121 98.801379 
L 239.077121 96.283862 
L 239.382543 96.283862 
L 239.382543 92.507586 
L 239.662281 92.507586 
L 239.662281 89.990069 
L 240.501424 89.990069 
L 240.501424 88.73131 
L 242.731666 88.73131 
L 242.731666 86.213793 
L 246.833082 86.213793 
L 246.833082 82.437517 
L 246.980582 82.437517 
L 246.980582 79.92 
L 248.402177 79.92 
L 248.402177 78.661241 
L 249.575807 78.661241 
L 249.575807 76.143724 
L 251.96926 76.143724 
L 251.96926 73.626207 
L 252.130673 73.626207 
L 252.130673 72.367448 
L 254.325359 72.367448 
L 254.325359 69.849931 
L 257.87577 69.849931 
L 257.959702 64.814897 
L 258.611559 64.814897 
L 258.611559 63.556138 
L 260.406877 63.556138 
L 260.406877 59.779862 
L 264.32667 59.779862 
L 264.32667 56.003586 
L 264.449162 56.003586 
L 264.449162 54.744828 
L 265.076096 54.744828 
L 265.076096 52.22731 
L 271.362615 52.22731 
L 271.362615 49.709793 
L 271.960836 49.709793 
L 271.960836 45.933517 
L 278.405804 45.933517 
L 278.405804 42.157241 
L 360.8064 42.157241 
L 360.8064 42.157241 
" style="fill: none; stroke: #f5deb3; stroke-width: 4; stroke-linecap: square"/>
   </g>
   <g id="line2d_2">
    <defs>
     <path id="m4b8a4b9843" d="M -0 7.778175 
L 7.778175 0 
L 0 -7.778175 
L -7.778175 -0 
z
" style="stroke: #f5deb3; stroke-width: 1.5; stroke-linejoin: miter"/>
    </defs>
    <g>
     <use xlink:href="#m4b8a4b9843" x="107.68741" y="259.922483" style="fill: #f5deb3; stroke: #f5deb3; stroke-width: 1.5; stroke-linejoin: miter"/>
     <use xlink:href="#m4b8a4b9843" x="168.6034" y="183.138207" style="fill: #f5deb3; stroke: #f5deb3; stroke-width: 1.5; stroke-linejoin: miter"/>
     <use xlink:href="#m4b8a4b9843" x="228.347434" y="115.165241" style="fill: #f5deb3; stroke: #f5deb3; stroke-width: 1.5; stroke-linejoin: miter"/>
     <use xlink:href="#m4b8a4b9843" x="271.362615" y="49.709793" style="fill: #f5deb3; stroke: #f5deb3; stroke-width: 1.5; stroke-linejoin: miter"/>
     <use xlink:href="#m4b8a4b9843" x="278.405804" y="42.157241" style="fill: #f5deb3; stroke: #f5deb3; stroke-width: 1.5; stroke-linejoin: miter"/>
     <use xlink:href="#m4b8a4b9843" x="360.8064" y="42.157241" style="fill: #f5deb3; stroke: #f5deb3; stroke-width: 1.5; stroke-linejoin: miter"/>
    </g>
   </g>
   <g id="line2d_3">
    <path style="fill: none; stroke: #f5deb3; stroke-width: 4; stroke-linecap: square"/>
    <g/>
   </g>
   <g id="line2d_4">
    <path d="M 360.8064 42.157241 
L 380.514816 12.75264 
" style="fill: none; stroke: #f5deb3; stroke-width: 4; stroke-linecap: square"/>
    <g>
     <use xlink:href="#m4b8a4b9843" x="360.8064" y="42.157241" style="fill: #f5deb3; stroke: #f5deb3; stroke-width: 1.5; stroke-linejoin: miter"/>
     <use xlink:href="#m4b8a4b9843" x="380.514816" y="12.75264" style="fill: #f5deb3; stroke: #f5deb3; stroke-width: 1.5; stroke-linejoin: miter"/>
    </g>
   </g>
   <g id="matplotlib.axis_1">
    <g id="xtick_1">
     <g id="line2d_5">
      <path d="M 57.6 298.944 
L 57.6 6.912 
" clip-path="url(#p2d79761a81)" style="fill: none; stroke: #b0b0b0; stroke-width: 0.8; stroke-linecap: square"/>
     </g>
     <g id="line2d_6">
      <defs>
       <path id="m30736b0908" d="M 0 0 
L 0 3.5 
" style="stroke: #000000; stroke-width: 0.8"/>
      </defs>
      <g>
       <use xlink:href="#m30736b0908" x="57.6" y="298.944" style="stroke: #000000; stroke-width: 0.8"/>
      </g>
     </g>
     <g id="text_1">
      <!-- 0 -->
      <g transform="translate(52.191875 318.861344) scale(0.17 -0.17)">
       <defs>
        <path id="DejaVuSans-30" d="M 2034 4250 
Q 1547 4250 1301 3770 
Q 1056 3291 1056 2328 
Q 1056 1369 1301 889 
Q 1547 409 2034 409 
Q 2525 409 2770 889 
Q 3016 1369 3016 2328 
Q 3016 3291 2770 3770 
Q 2525 4250 2034 4250 
z
M 2034 4750 
Q 2819 4750 3233 4129 
Q 3647 3509 3647 2328 
Q 3647 1150 3233 529 
Q 2819 -91 2034 -91 
Q 1250 -91 836 529 
Q 422 1150 422 2328 
Q 422 3509 836 4129 
Q 1250 4750 2034 4750 
z
" transform="scale(0.015625)"/>
       </defs>
       <use xlink:href="#DejaVuSans-30"/>
      </g>
     </g>
    </g>
    <g id="xtick_2">
     <g id="line2d_7">
      <path d="M 144.2304 298.944 
L 144.2304 6.912 
" clip-path="url(#p2d79761a81)" style="fill: none; stroke: #b0b0b0; stroke-width: 0.8; stroke-linecap: square"/>
     </g>
     <g id="line2d_8">
      <g>
       <use xlink:href="#m30736b0908" x="144.2304" y="298.944" style="stroke: #000000; stroke-width: 0.8"/>
      </g>
     </g>
     <g id="text_2">
      <!-- 2 -->
      <g transform="translate(138.822275 318.861344) scale(0.17 -0.17)">
       <defs>
        <path id="DejaVuSans-32" d="M 1228 531 
L 3431 531 
L 3431 0 
L 469 0 
L 469 531 
Q 828 903 1448 1529 
Q 2069 2156 2228 2338 
Q 2531 2678 2651 2914 
Q 2772 3150 2772 3378 
Q 2772 3750 2511 3984 
Q 2250 4219 1831 4219 
Q 1534 4219 1204 4116 
Q 875 4013 500 3803 
L 500 4441 
Q 881 4594 1212 4672 
Q 1544 4750 1819 4750 
Q 2544 4750 2975 4387 
Q 3406 4025 3406 3419 
Q 3406 3131 3298 2873 
Q 3191 2616 2906 2266 
Q 2828 2175 2409 1742 
Q 1991 1309 1228 531 
z
" transform="scale(0.015625)"/>
       </defs>
       <use xlink:href="#DejaVuSans-32"/>
      </g>
     </g>
    </g>
    <g id="xtick_3">
     <g id="line2d_9">
      <path d="M 230.8608 298.944 
L 230.8608 6.912 
" clip-path="url(#p2d79761a81)" style="fill: none; stroke: #b0b0b0; stroke-width: 0.8; stroke-linecap: square"/>
     </g>
     <g id="line2d_10">
      <g>
       <use xlink:href="#m30736b0908" x="230.8608" y="298.944" style="stroke: #000000; stroke-width: 0.8"/>
      </g>
     </g>
     <g id="text_3">
      <!-- 4 -->
      <g transform="translate(225.452675 318.861344) scale(0.17 -0.17)">
       <defs>
        <path id="DejaVuSans-34" d="M 2419 4116 
L 825 1625 
L 2419 1625 
L 2419 4116 
z
M 2253 4666 
L 3047 4666 
L 3047 1625 
L 3713 1625 
L 3713 1100 
L 3047 1100 
L 3047 0 
L 2419 0 
L 2419 1100 
L 313 1100 
L 313 1709 
L 2253 4666 
z
" transform="scale(0.015625)"/>
       </defs>
       <use xlink:href="#DejaVuSans-34"/>
      </g>
     </g>
    </g>
    <g id="xtick_4">
     <g id="line2d_11">
      <path d="M 317.4912 298.944 
L 317.4912 6.912 
" clip-path="url(#p2d79761a81)" style="fill: none; stroke: #b0b0b0; stroke-width: 0.8; stroke-linecap: square"/>
     </g>
     <g id="line2d_12">
      <g>
       <use xlink:href="#m30736b0908" x="317.4912" y="298.944" style="stroke: #000000; stroke-width: 0.8"/>
      </g>
     </g>
     <g id="text_4">
      <!-- 6 -->
      <g transform="translate(312.083075 318.861344) scale(0.17 -0.17)">
       <defs>
        <path id="DejaVuSans-36" d="M 2113 2584 
Q 1688 2584 1439 2293 
Q 1191 2003 1191 1497 
Q 1191 994 1439 701 
Q 1688 409 2113 409 
Q 2538 409 2786 701 
Q 3034 994 3034 1497 
Q 3034 2003 2786 2293 
Q 2538 2584 2113 2584 
z
M 3366 4563 
L 3366 3988 
Q 3128 4100 2886 4159 
Q 2644 4219 2406 4219 
Q 1781 4219 1451 3797 
Q 1122 3375 1075 2522 
Q 1259 2794 1537 2939 
Q 1816 3084 2150 3084 
Q 2853 3084 3261 2657 
Q 3669 2231 3669 1497 
Q 3669 778 3244 343 
Q 2819 -91 2113 -91 
Q 1303 -91 875 529 
Q 447 1150 447 2328 
Q 447 3434 972 4092 
Q 1497 4750 2381 4750 
Q 2619 4750 2861 4703 
Q 3103 4656 3366 4563 
z
" transform="scale(0.015625)"/>
       </defs>
       <use xlink:href="#DejaVuSans-36"/>
      </g>
     </g>
    </g>
    <g id="xtick_5">
     <g id="line2d_13">
      <path d="M 100.9152 298.944 
L 100.9152 6.912 
" clip-path="url(#p2d79761a81)" style="fill: none; stroke: #b0b0b0; stroke-width: 0.8; stroke-linecap: square"/>
     </g>
     <g id="line2d_14">
      <defs>
       <path id="m89e8ab8566" d="M 0 0 
L 0 2 
" style="stroke: #000000; stroke-width: 0.6"/>
      </defs>
      <g>
       <use xlink:href="#m89e8ab8566" x="100.9152" y="298.944" style="stroke: #000000; stroke-width: 0.6"/>
      </g>
     </g>
    </g>
    <g id="xtick_6">
     <g id="line2d_15">
      <path d="M 187.5456 298.944 
L 187.5456 6.912 
" clip-path="url(#p2d79761a81)" style="fill: none; stroke: #b0b0b0; stroke-width: 0.8; stroke-linecap: square"/>
     </g>
     <g id="line2d_16">
      <g>
       <use xlink:href="#m89e8ab8566" x="187.5456" y="298.944" style="stroke: #000000; stroke-width: 0.6"/>
      </g>
     </g>
    </g>
    <g id="xtick_7">
     <g id="line2d_17">
      <path d="M 274.176 298.944 
L 274.176 6.912 
" clip-path="url(#p2d79761a81)" style="fill: none; stroke: #b0b0b0; stroke-width: 0.8; stroke-linecap: square"/>
     </g>
     <g id="line2d_18">
      <g>
       <use xlink:href="#m89e8ab8566" x="274.176" y="298.944" style="stroke: #000000; stroke-width: 0.6"/>
      </g>
     </g>
    </g>
    <g id="xtick_8">
     <g id="line2d_19">
      <path d="M 360.8064 298.944 
L 360.8064 6.912 
" clip-path="url(#p2d79761a81)" style="fill: none; stroke: #b0b0b0; stroke-width: 0.8; stroke-linecap: square"/>
     </g>
     <g id="line2d_20">
      <g>
       <use xlink:href="#m89e8ab8566" x="360.8064" y="298.944" style="stroke: #000000; stroke-width: 0.6"/>
      </g>
     </g>
    </g>
    <g id="text_5">
     <!-- log10(# f-evals / dimension) -->
     <g transform="translate(88.823278 339.314156) scale(0.17 -0.17)">
      <defs>
       <path id="DejaVuSans-6c" d="M 603 4863 
L 1178 4863 
L 1178 0 
L 603 0 
L 603 4863 
z
" transform="scale(0.015625)"/>
       <path id="DejaVuSans-6f" d="M 1959 3097 
Q 1497 3097 1228 2736 
Q 959 2375 959 1747 
Q 959 1119 1226 758 
Q 1494 397 1959 397 
Q 2419 397 2687 759 
Q 2956 1122 2956 1747 
Q 2956 2369 2687 2733 
Q 2419 3097 1959 3097 
z
M 1959 3584 
Q 2709 3584 3137 3096 
Q 3566 2609 3566 1747 
Q 3566 888 3137 398 
Q 2709 -91 1959 -91 
Q 1206 -91 779 398 
Q 353 888 353 1747 
Q 353 2609 779 3096 
Q 1206 3584 1959 3584 
z
" transform="scale(0.015625)"/>
       <path id="DejaVuSans-67" d="M 2906 1791 
Q 2906 2416 2648 2759 
Q 2391 3103 1925 3103 
Q 1463 3103 1205 2759 
Q 947 2416 947 1791 
Q 947 1169 1205 825 
Q 1463 481 1925 481 
Q 2391 481 2648 825 
Q 2906 1169 2906 1791 
z
M 3481 434 
Q 3481 -459 3084 -895 
Q 2688 -1331 1869 -1331 
Q 1566 -1331 1297 -1286 
Q 1028 -1241 775 -1147 
L 775 -588 
Q 1028 -725 1275 -790 
Q 1522 -856 1778 -856 
Q 2344 -856 2625 -561 
Q 2906 -266 2906 331 
L 2906 616 
Q 2728 306 2450 153 
Q 2172 0 1784 0 
Q 1141 0 747 490 
Q 353 981 353 1791 
Q 353 2603 747 3093 
Q 1141 3584 1784 3584 
Q 2172 3584 2450 3431 
Q 2728 3278 2906 2969 
L 2906 3500 
L 3481 3500 
L 3481 434 
z
" transform="scale(0.015625)"/>
       <path id="DejaVuSans-31" d="M 794 531 
L 1825 531 
L 1825 4091 
L 703 3866 
L 703 4441 
L 1819 4666 
L 2450 4666 
L 2450 531 
L 3481 531 
L 3481 0 
L 794 0 
L 794 531 
z
" transform="scale(0.015625)"/>
       <path id="DejaVuSans-28" d="M 1984 4856 
Q 1566 4138 1362 3434 
Q 1159 2731 1159 2009 
Q 1159 1288 1364 580 
Q 1569 -128 1984 -844 
L 1484 -844 
Q 1016 -109 783 600 
Q 550 1309 550 2009 
Q 550 2706 781 3412 
Q 1013 4119 1484 4856 
L 1984 4856 
z
" transform="scale(0.015625)"/>
       <path id="DejaVuSans-23" d="M 3272 2816 
L 2363 2816 
L 2100 1772 
L 3016 1772 
L 3272 2816 
z
M 2803 4594 
L 2478 3297 
L 3391 3297 
L 3719 4594 
L 4219 4594 
L 3897 3297 
L 4872 3297 
L 4872 2816 
L 3775 2816 
L 3519 1772 
L 4513 1772 
L 4513 1294 
L 3397 1294 
L 3072 0 
L 2572 0 
L 2894 1294 
L 1978 1294 
L 1656 0 
L 1153 0 
L 1478 1294 
L 494 1294 
L 494 1772 
L 1594 1772 
L 1856 2816 
L 850 2816 
L 850 3297 
L 1978 3297 
L 2297 4594 
L 2803 4594 
z
" transform="scale(0.015625)"/>
       <path id="DejaVuSans-20" transform="scale(0.015625)"/>
       <path id="DejaVuSans-66" d="M 2375 4863 
L 2375 4384 
L 1825 4384 
Q 1516 4384 1395 4259 
Q 1275 4134 1275 3809 
L 1275 3500 
L 2222 3500 
L 2222 3053 
L 1275 3053 
L 1275 0 
L 697 0 
L 697 3053 
L 147 3053 
L 147 3500 
L 697 3500 
L 697 3744 
Q 697 4328 969 4595 
Q 1241 4863 1831 4863 
L 2375 4863 
z
" transform="scale(0.015625)"/>
       <path id="DejaVuSans-2d" d="M 313 2009 
L 1997 2009 
L 1997 1497 
L 313 1497 
L 313 2009 
z
" transform="scale(0.015625)"/>
       <path id="DejaVuSans-65" d="M 3597 1894 
L 3597 1613 
L 953 1613 
Q 991 1019 1311 708 
Q 1631 397 2203 397 
Q 2534 397 2845 478 
Q 3156 559 3463 722 
L 3463 178 
Q 3153 47 2828 -22 
Q 2503 -91 2169 -91 
Q 1331 -91 842 396 
Q 353 884 353 1716 
Q 353 2575 817 3079 
Q 1281 3584 2069 3584 
Q 2775 3584 3186 3129 
Q 3597 2675 3597 1894 
z
M 3022 2063 
Q 3016 2534 2758 2815 
Q 2500 3097 2075 3097 
Q 1594 3097 1305 2825 
Q 1016 2553 972 2059 
L 3022 2063 
z
" transform="scale(0.015625)"/>
       <path id="DejaVuSans-76" d="M 191 3500 
L 800 3500 
L 1894 563 
L 2988 3500 
L 3597 3500 
L 2284 0 
L 1503 0 
L 191 3500 
z
" transform="scale(0.015625)"/>
       <path id="DejaVuSans-61" d="M 2194 1759 
Q 1497 1759 1228 1600 
Q 959 1441 959 1056 
Q 959 750 1161 570 
Q 1363 391 1709 391 
Q 2188 391 2477 730 
Q 2766 1069 2766 1631 
L 2766 1759 
L 2194 1759 
z
M 3341 1997 
L 3341 0 
L 2766 0 
L 2766 531 
Q 2569 213 2275 61 
Q 1981 -91 1556 -91 
Q 1019 -91 701 211 
Q 384 513 384 1019 
Q 384 1609 779 1909 
Q 1175 2209 1959 2209 
L 2766 2209 
L 2766 2266 
Q 2766 2663 2505 2880 
Q 2244 3097 1772 3097 
Q 1472 3097 1187 3025 
Q 903 2953 641 2809 
L 641 3341 
Q 956 3463 1253 3523 
Q 1550 3584 1831 3584 
Q 2591 3584 2966 3190 
Q 3341 2797 3341 1997 
z
" transform="scale(0.015625)"/>
       <path id="DejaVuSans-73" d="M 2834 3397 
L 2834 2853 
Q 2591 2978 2328 3040 
Q 2066 3103 1784 3103 
Q 1356 3103 1142 2972 
Q 928 2841 928 2578 
Q 928 2378 1081 2264 
Q 1234 2150 1697 2047 
L 1894 2003 
Q 2506 1872 2764 1633 
Q 3022 1394 3022 966 
Q 3022 478 2636 193 
Q 2250 -91 1575 -91 
Q 1294 -91 989 -36 
Q 684 19 347 128 
L 347 722 
Q 666 556 975 473 
Q 1284 391 1588 391 
Q 1994 391 2212 530 
Q 2431 669 2431 922 
Q 2431 1156 2273 1281 
Q 2116 1406 1581 1522 
L 1381 1569 
Q 847 1681 609 1914 
Q 372 2147 372 2553 
Q 372 3047 722 3315 
Q 1072 3584 1716 3584 
Q 2034 3584 2315 3537 
Q 2597 3491 2834 3397 
z
" transform="scale(0.015625)"/>
       <path id="DejaVuSans-2f" d="M 1625 4666 
L 2156 4666 
L 531 -594 
L 0 -594 
L 1625 4666 
z
" transform="scale(0.015625)"/>
       <path id="DejaVuSans-64" d="M 2906 2969 
L 2906 4863 
L 3481 4863 
L 3481 0 
L 2906 0 
L 2906 525 
Q 2725 213 2448 61 
Q 2172 -91 1784 -91 
Q 1150 -91 751 415 
Q 353 922 353 1747 
Q 353 2572 751 3078 
Q 1150 3584 1784 3584 
Q 2172 3584 2448 3432 
Q 2725 3281 2906 2969 
z
M 947 1747 
Q 947 1113 1208 752 
Q 1469 391 1925 391 
Q 2381 391 2643 752 
Q 2906 1113 2906 1747 
Q 2906 2381 2643 2742 
Q 2381 3103 1925 3103 
Q 1469 3103 1208 2742 
Q 947 2381 947 1747 
z
" transform="scale(0.015625)"/>
       <path id="DejaVuSans-69" d="M 603 3500 
L 1178 3500 
L 1178 0 
L 603 0 
L 603 3500 
z
M 603 4863 
L 1178 4863 
L 1178 4134 
L 603 4134 
L 603 4863 
z
" transform="scale(0.015625)"/>
       <path id="DejaVuSans-6d" d="M 3328 2828 
Q 3544 3216 3844 3400 
Q 4144 3584 4550 3584 
Q 5097 3584 5394 3201 
Q 5691 2819 5691 2113 
L 5691 0 
L 5113 0 
L 5113 2094 
Q 5113 2597 4934 2840 
Q 4756 3084 4391 3084 
Q 3944 3084 3684 2787 
Q 3425 2491 3425 1978 
L 3425 0 
L 2847 0 
L 2847 2094 
Q 2847 2600 2669 2842 
Q 2491 3084 2119 3084 
Q 1678 3084 1418 2786 
Q 1159 2488 1159 1978 
L 1159 0 
L 581 0 
L 581 3500 
L 1159 3500 
L 1159 2956 
Q 1356 3278 1631 3431 
Q 1906 3584 2284 3584 
Q 2666 3584 2933 3390 
Q 3200 3197 3328 2828 
z
" transform="scale(0.015625)"/>
       <path id="DejaVuSans-6e" d="M 3513 2113 
L 3513 0 
L 2938 0 
L 2938 2094 
Q 2938 2591 2744 2837 
Q 2550 3084 2163 3084 
Q 1697 3084 1428 2787 
Q 1159 2491 1159 1978 
L 1159 0 
L 581 0 
L 581 3500 
L 1159 3500 
L 1159 2956 
Q 1366 3272 1645 3428 
Q 1925 3584 2291 3584 
Q 2894 3584 3203 3211 
Q 3513 2838 3513 2113 
z
" transform="scale(0.015625)"/>
       <path id="DejaVuSans-29" d="M 513 4856 
L 1013 4856 
Q 1481 4119 1714 3412 
Q 1947 2706 1947 2009 
Q 1947 1309 1714 600 
Q 1481 -109 1013 -844 
L 513 -844 
Q 928 -128 1133 580 
Q 1338 1288 1338 2009 
Q 1338 2731 1133 3434 
Q 928 4138 513 4856 
z
" transform="scale(0.015625)"/>
      </defs>
      <use xlink:href="#DejaVuSans-6c"/>
      <use xlink:href="#DejaVuSans-6f" x="27.783203"/>
      <use xlink:href="#DejaVuSans-67" x="88.964844"/>
      <use xlink:href="#DejaVuSans-31" x="152.441406"/>
      <use xlink:href="#DejaVuSans-30" x="216.064453"/>
      <use xlink:href="#DejaVuSans-28" x="279.6875"/>
      <use xlink:href="#DejaVuSans-23" x="318.701172"/>
      <use xlink:href="#DejaVuSans-20" x="402.490234"/>
      <use xlink:href="#DejaVuSans-66" x="434.277344"/>
      <use xlink:href="#DejaVuSans-2d" x="463.982422"/>
      <use xlink:href="#DejaVuSans-65" x="500.066406"/>
      <use xlink:href="#DejaVuSans-76" x="561.589844"/>
      <use xlink:href="#DejaVuSans-61" x="620.769531"/>
      <use xlink:href="#DejaVuSans-6c" x="682.048828"/>
      <use xlink:href="#DejaVuSans-73" x="709.832031"/>
      <use xlink:href="#DejaVuSans-20" x="761.931641"/>
      <use xlink:href="#DejaVuSans-2f" x="793.71875"/>
      <use xlink:href="#DejaVuSans-20" x="827.410156"/>
      <use xlink:href="#DejaVuSans-64" x="859.197266"/>
      <use xlink:href="#DejaVuSans-69" x="922.673828"/>
      <use xlink:href="#DejaVuSans-6d" x="950.457031"/>
      <use xlink:href="#DejaVuSans-65" x="1047.869141"/>
      <use xlink:href="#DejaVuSans-6e" x="1109.392578"/>
      <use xlink:href="#DejaVuSans-73" x="1172.771484"/>
      <use xlink:href="#DejaVuSans-69" x="1224.871094"/>
      <use xlink:href="#DejaVuSans-6f" x="1252.654297"/>
      <use xlink:href="#DejaVuSans-6e" x="1313.835938"/>
      <use xlink:href="#DejaVuSans-29" x="1377.214844"/>
     </g>
    </g>
   </g>
   <g id="matplotlib.axis_2">
    <g id="ytick_1">
     <g id="line2d_21">
      <path d="M 57.6 298.944 
L 360.8064 298.944 
" clip-path="url(#p2d79761a81)" style="fill: none; stroke: #b0b0b0; stroke-width: 0.8; stroke-linecap: square"/>
     </g>
     <g id="line2d_22">
      <defs>
       <path id="m9c4b72b072" d="M 0 0 
L -3.5 0 
" style="stroke: #000000; stroke-width: 0.8"/>
      </defs>
      <g>
       <use xlink:href="#m9c4b72b072" x="57.6" y="298.944" style="stroke: #000000; stroke-width: 0.8"/>
      </g>
     </g>
     <g id="text_6">
      <!-- 0.0 -->
      <g transform="translate(25.155 305.02275) scale(0.16 -0.16)">
       <defs>
        <path id="DejaVuSans-2e" d="M 684 794 
L 1344 794 
L 1344 0 
L 684 0 
L 684 794 
z
" transform="scale(0.015625)"/>
       </defs>
       <use xlink:href="#DejaVuSans-30"/>
       <use xlink:href="#DejaVuSans-2e" x="63.623047"/>
       <use xlink:href="#DejaVuSans-30" x="95.410156"/>
      </g>
     </g>
    </g>
    <g id="ytick_2">
     <g id="line2d_23">
      <path d="M 57.6 240.5376 
L 360.8064 240.5376 
" clip-path="url(#p2d79761a81)" style="fill: none; stroke: #b0b0b0; stroke-width: 0.8; stroke-linecap: square"/>
     </g>
     <g id="line2d_24">
      <g>
       <use xlink:href="#m9c4b72b072" x="57.6" y="240.5376" style="stroke: #000000; stroke-width: 0.8"/>
      </g>
     </g>
     <g id="text_7">
      <!-- 0.2 -->
      <g transform="translate(25.155 246.61635) scale(0.16 -0.16)">
       <use xlink:href="#DejaVuSans-30"/>
       <use xlink:href="#DejaVuSans-2e" x="63.623047"/>
       <use xlink:href="#DejaVuSans-32" x="95.410156"/>
      </g>
     </g>
    </g>
    <g id="ytick_3">
     <g id="line2d_25">
      <path d="M 57.6 182.1312 
L 360.8064 182.1312 
" clip-path="url(#p2d79761a81)" style="fill: none; stroke: #b0b0b0; stroke-width: 0.8; stroke-linecap: square"/>
     </g>
     <g id="line2d_26">
      <g>
       <use xlink:href="#m9c4b72b072" x="57.6" y="182.1312" style="stroke: #000000; stroke-width: 0.8"/>
      </g>
     </g>
     <g id="text_8">
      <!-- 0.4 -->
      <g transform="translate(25.155 188.20995) scale(0.16 -0.16)">
       <use xlink:href="#DejaVuSans-30"/>
       <use xlink:href="#DejaVuSans-2e" x="63.623047"/>
       <use xlink:href="#DejaVuSans-34" x="95.410156"/>
      </g>
     </g>
    </g>
    <g id="ytick_4">
     <g id="line2d_27">
      <path d="M 57.6 123.7248 
L 360.8064 123.7248 
" clip-path="url(#p2d79761a81)" style="fill: none; stroke: #b0b0b0; stroke-width: 0.8; stroke-linecap: square"/>
     </g>
     <g id="line2d_28">
      <g>
       <use xlink:href="#m9c4b72b072" x="57.6" y="123.7248" style="stroke: #000000; stroke-width: 0.8"/>
      </g>
     </g>
     <g id="text_9">
      <!-- 0.6 -->
      <g transform="translate(25.155 129.80355) scale(0.16 -0.16)">
       <use xlink:href="#DejaVuSans-30"/>
       <use xlink:href="#DejaVuSans-2e" x="63.623047"/>
       <use xlink:href="#DejaVuSans-36" x="95.410156"/>
      </g>
     </g>
    </g>
    <g id="ytick_5">
     <g id="line2d_29">
      <path d="M 57.6 65.3184 
L 360.8064 65.3184 
" clip-path="url(#p2d79761a81)" style="fill: none; stroke: #b0b0b0; stroke-width: 0.8; stroke-linecap: square"/>
     </g>
     <g id="line2d_30">
      <g>
       <use xlink:href="#m9c4b72b072" x="57.6" y="65.3184" style="stroke: #000000; stroke-width: 0.8"/>
      </g>
     </g>
     <g id="text_10">
      <!-- 0.8 -->
      <g transform="translate(25.155 71.39715) scale(0.16 -0.16)">
       <defs>
        <path id="DejaVuSans-38" d="M 2034 2216 
Q 1584 2216 1326 1975 
Q 1069 1734 1069 1313 
Q 1069 891 1326 650 
Q 1584 409 2034 409 
Q 2484 409 2743 651 
Q 3003 894 3003 1313 
Q 3003 1734 2745 1975 
Q 2488 2216 2034 2216 
z
M 1403 2484 
Q 997 2584 770 2862 
Q 544 3141 544 3541 
Q 544 4100 942 4425 
Q 1341 4750 2034 4750 
Q 2731 4750 3128 4425 
Q 3525 4100 3525 3541 
Q 3525 3141 3298 2862 
Q 3072 2584 2669 2484 
Q 3125 2378 3379 2068 
Q 3634 1759 3634 1313 
Q 3634 634 3220 271 
Q 2806 -91 2034 -91 
Q 1263 -91 848 271 
Q 434 634 434 1313 
Q 434 1759 690 2068 
Q 947 2378 1403 2484 
z
M 1172 3481 
Q 1172 3119 1398 2916 
Q 1625 2713 2034 2713 
Q 2441 2713 2670 2916 
Q 2900 3119 2900 3481 
Q 2900 3844 2670 4047 
Q 2441 4250 2034 4250 
Q 1625 4250 1398 4047 
Q 1172 3844 1172 3481 
z
" transform="scale(0.015625)"/>
       </defs>
       <use xlink:href="#DejaVuSans-30"/>
       <use xlink:href="#DejaVuSans-2e" x="63.623047"/>
       <use xlink:href="#DejaVuSans-38" x="95.410156"/>
      </g>
     </g>
    </g>
    <g id="ytick_6">
     <g id="line2d_31">
      <path d="M 57.6 6.912 
L 360.8064 6.912 
" clip-path="url(#p2d79761a81)" style="fill: none; stroke: #b0b0b0; stroke-width: 0.8; stroke-linecap: square"/>
     </g>
     <g id="line2d_32">
      <g>
       <use xlink:href="#m9c4b72b072" x="57.6" y="6.912" style="stroke: #000000; stroke-width: 0.8"/>
      </g>
     </g>
     <g id="text_11">
      <!-- 1.0 -->
      <g transform="translate(25.155 12.99075) scale(0.16 -0.16)">
       <use xlink:href="#DejaVuSans-31"/>
       <use xlink:href="#DejaVuSans-2e" x="63.623047"/>
       <use xlink:href="#DejaVuSans-30" x="95.410156"/>
      </g>
     </g>
    </g>
    <g id="text_12">
     <!-- Fraction of function,target pairs -->
     <g transform="translate(17.619531 287.313) rotate(-90) scale(0.17 -0.17)">
      <defs>
       <path id="DejaVuSans-46" d="M 628 4666 
L 3309 4666 
L 3309 4134 
L 1259 4134 
L 1259 2759 
L 3109 2759 
L 3109 2228 
L 1259 2228 
L 1259 0 
L 628 0 
L 628 4666 
z
" transform="scale(0.015625)"/>
       <path id="DejaVuSans-72" d="M 2631 2963 
Q 2534 3019 2420 3045 
Q 2306 3072 2169 3072 
Q 1681 3072 1420 2755 
Q 1159 2438 1159 1844 
L 1159 0 
L 581 0 
L 581 3500 
L 1159 3500 
L 1159 2956 
Q 1341 3275 1631 3429 
Q 1922 3584 2338 3584 
Q 2397 3584 2469 3576 
Q 2541 3569 2628 3553 
L 2631 2963 
z
" transform="scale(0.015625)"/>
       <path id="DejaVuSans-63" d="M 3122 3366 
L 3122 2828 
Q 2878 2963 2633 3030 
Q 2388 3097 2138 3097 
Q 1578 3097 1268 2742 
Q 959 2388 959 1747 
Q 959 1106 1268 751 
Q 1578 397 2138 397 
Q 2388 397 2633 464 
Q 2878 531 3122 666 
L 3122 134 
Q 2881 22 2623 -34 
Q 2366 -91 2075 -91 
Q 1284 -91 818 406 
Q 353 903 353 1747 
Q 353 2603 823 3093 
Q 1294 3584 2113 3584 
Q 2378 3584 2631 3529 
Q 2884 3475 3122 3366 
z
" transform="scale(0.015625)"/>
       <path id="DejaVuSans-74" d="M 1172 4494 
L 1172 3500 
L 2356 3500 
L 2356 3053 
L 1172 3053 
L 1172 1153 
Q 1172 725 1289 603 
Q 1406 481 1766 481 
L 2356 481 
L 2356 0 
L 1766 0 
Q 1100 0 847 248 
Q 594 497 594 1153 
L 594 3053 
L 172 3053 
L 172 3500 
L 594 3500 
L 594 4494 
L 1172 4494 
z
" transform="scale(0.015625)"/>
       <path id="DejaVuSans-75" d="M 544 1381 
L 544 3500 
L 1119 3500 
L 1119 1403 
Q 1119 906 1312 657 
Q 1506 409 1894 409 
Q 2359 409 2629 706 
Q 2900 1003 2900 1516 
L 2900 3500 
L 3475 3500 
L 3475 0 
L 2900 0 
L 2900 538 
Q 2691 219 2414 64 
Q 2138 -91 1772 -91 
Q 1169 -91 856 284 
Q 544 659 544 1381 
z
M 1991 3584 
L 1991 3584 
z
" transform="scale(0.015625)"/>
       <path id="DejaVuSans-2c" d="M 750 794 
L 1409 794 
L 1409 256 
L 897 -744 
L 494 -744 
L 750 256 
L 750 794 
z
" transform="scale(0.015625)"/>
       <path id="DejaVuSans-70" d="M 1159 525 
L 1159 -1331 
L 581 -1331 
L 581 3500 
L 1159 3500 
L 1159 2969 
Q 1341 3281 1617 3432 
Q 1894 3584 2278 3584 
Q 2916 3584 3314 3078 
Q 3713 2572 3713 1747 
Q 3713 922 3314 415 
Q 2916 -91 2278 -91 
Q 1894 -91 1617 61 
Q 1341 213 1159 525 
z
M 3116 1747 
Q 3116 2381 2855 2742 
Q 2594 3103 2138 3103 
Q 1681 3103 1420 2742 
Q 1159 2381 1159 1747 
Q 1159 1113 1420 752 
Q 1681 391 2138 391 
Q 2594 391 2855 752 
Q 3116 1113 3116 1747 
z
" transform="scale(0.015625)"/>
      </defs>
      <use xlink:href="#DejaVuSans-46"/>
      <use xlink:href="#DejaVuSans-72" x="50.269531"/>
      <use xlink:href="#DejaVuSans-61" x="91.382812"/>
      <use xlink:href="#DejaVuSans-63" x="152.662109"/>
      <use xlink:href="#DejaVuSans-74" x="207.642578"/>
      <use xlink:href="#DejaVuSans-69" x="246.851562"/>
      <use xlink:href="#DejaVuSans-6f" x="274.634766"/>
      <use xlink:href="#DejaVuSans-6e" x="335.816406"/>
      <use xlink:href="#DejaVuSans-20" x="399.195312"/>
      <use xlink:href="#DejaVuSans-6f" x="430.982422"/>
      <use xlink:href="#DejaVuSans-66" x="492.164062"/>
      <use xlink:href="#DejaVuSans-20" x="527.369141"/>
      <use xlink:href="#DejaVuSans-66" x="559.15625"/>
      <use xlink:href="#DejaVuSans-75" x="594.361328"/>
      <use xlink:href="#DejaVuSans-6e" x="657.740234"/>
      <use xlink:href="#DejaVuSans-63" x="721.119141"/>
      <use xlink:href="#DejaVuSans-74" x="776.099609"/>
      <use xlink:href="#DejaVuSans-69" x="815.308594"/>
      <use xlink:href="#DejaVuSans-6f" x="843.091797"/>
      <use xlink:href="#DejaVuSans-6e" x="904.273438"/>
      <use xlink:href="#DejaVuSans-2c" x="967.652344"/>
      <use xlink:href="#DejaVuSans-74" x="999.439453"/>
      <use xlink:href="#DejaVuSans-61" x="1038.648438"/>
      <use xlink:href="#DejaVuSans-72" x="1099.927734"/>
      <use xlink:href="#DejaVuSans-67" x="1139.291016"/>
      <use xlink:href="#DejaVuSans-65" x="1202.767578"/>
      <use xlink:href="#DejaVuSans-74" x="1264.291016"/>
      <use xlink:href="#DejaVuSans-20" x="1303.5"/>
      <use xlink:href="#DejaVuSans-70" x="1335.287109"/>
      <use xlink:href="#DejaVuSans-61" x="1398.763672"/>
      <use xlink:href="#DejaVuSans-69" x="1460.042969"/>
      <use xlink:href="#DejaVuSans-72" x="1487.826172"/>
      <use xlink:href="#DejaVuSans-73" x="1528.939453"/>
     </g>
    </g>
   </g>
   <g id="line2d_33">
    <defs>
     <path id="mb8ea4fe8dc" d="M 0 1.5 
C 0.397805 1.5 0.77937 1.341951 1.06066 1.06066 
C 1.341951 0.77937 1.5 0.397805 1.5 0 
C 1.5 -0.397805 1.341951 -0.77937 1.06066 -1.06066 
C 0.77937 -1.341951 0.397805 -1.5 0 -1.5 
C -0.397805 -1.5 -0.77937 -1.341951 -1.06066 -1.06066 
C -1.341951 -0.77937 -1.5 -0.397805 -1.5 0 
C -1.5 0.397805 -1.341951 0.77937 -1.06066 1.06066 
C -0.77937 1.341951 -0.397805 1.5 0 1.5 
z
" style="stroke: #f5deb3"/>
    </defs>
    <g>
     <use xlink:href="#mb8ea4fe8dc" x="278.405804" y="42.157241" style="fill: #f5deb3; stroke: #f5deb3"/>
     <use xlink:href="#mb8ea4fe8dc" x="278.405804" y="42.157241" style="fill: #f5deb3; stroke: #f5deb3"/>
    </g>
   </g>
   <g id="line2d_34">
    <defs>
     <path id="me0b7741a5f" d="M 0 1.5 
C 0.397805 1.5 0.77937 1.341951 1.06066 1.06066 
C 1.341951 0.77937 1.5 0.397805 1.5 0 
C 1.5 -0.397805 1.341951 -0.77937 1.06066 -1.06066 
C 0.77937 -1.341951 0.397805 -1.5 0 -1.5 
C -0.397805 -1.5 -0.77937 -1.341951 -1.06066 -1.06066 
C -1.341951 -0.77937 -1.5 -0.397805 -1.5 0 
C -1.5 0.397805 -1.341951 0.77937 -1.06066 1.06066 
C -0.77937 1.341951 -0.397805 1.5 0 1.5 
z
" style="stroke: #000080"/>
    </defs>
    <g>
     <use xlink:href="#me0b7741a5f" x="187.318496" y="172.438759" style="fill: #000080; stroke: #000080"/>
     <use xlink:href="#me0b7741a5f" x="187.318496" y="172.438759" style="fill: #000080; stroke: #000080"/>
    </g>
   </g>
   <g id="line2d_35">
    <path d="M 36.933397 298.944 
L 36.933397 286.356414 
L 49.972572 286.356414 
L 49.972572 285.349407 
L 57.6 285.349407 
L 57.6 283.964772 
L 63.011746 283.964772 
L 63.011746 282.83189 
L 67.209423 282.83189 
L 67.209423 281.950759 
L 70.639174 281.950759 
L 70.639174 281.195503 
L 73.538988 281.195503 
L 73.538988 280.314372 
L 76.050921 280.314372 
L 76.050921 279.936745 
L 78.266603 279.936745 
L 78.266603 279.433241 
L 80.248597 279.433241 
L 80.248597 279.055614 
L 82.04153 279.055614 
L 82.04153 278.55211 
L 83.678349 278.55211 
L 83.678349 277.922731 
L 85.184077 277.922731 
L 85.184077 277.293352 
L 86.578163 277.293352 
L 86.578163 277.0416 
L 87.876026 277.0416 
L 87.876026 276.915724 
L 89.090095 276.915724 
L 89.090095 276.160469 
L 90.230539 276.160469 
L 90.230539 275.656966 
L 92.322865 275.656966 
L 92.322865 274.272331 
L 93.287772 274.272331 
L 93.287772 273.139448 
L 94.205591 273.139448 
L 94.205591 273.013572 
L 95.080704 273.013572 
L 95.080704 272.887697 
L 95.916911 272.887697 
L 95.916911 272.258317 
L 97.485448 272.258317 
L 97.485448 272.006566 
L 98.223251 272.006566 
L 98.223251 271.628938 
L 98.933205 271.628938 
L 98.933205 270.747807 
L 99.617337 270.747807 
L 99.617337 270.244303 
L 100.277459 270.244303 
L 100.277459 270.118428 
L 104.860369 270.118428 
L 104.860369 269.614924 
L 105.36204 269.614924 
L 105.36204 269.237297 
L 106.791453 269.237297 
L 106.791453 269.111421 
L 107.244765 269.111421 
L 107.244765 268.733793 
L 107.68741 268.733793 
L 107.68741 268.23029 
L 108.119879 268.23029 
L 108.119879 268.104414 
L 109.756698 268.104414 
L 109.756698 267.726786 
L 110.524623 267.726786 
L 110.524623 267.475034 
L 111.262425 267.475034 
L 111.262425 267.223283 
L 111.620752 267.223283 
L 111.620752 267.097407 
L 111.97238 267.097407 
L 111.97238 266.845655 
L 112.317555 266.845655 
L 112.317555 266.593903 
L 112.656511 266.593903 
L 112.656511 266.342152 
L 113.638206 266.342152 
L 113.638206 266.0904 
L 113.954374 266.0904 
L 113.954374 265.838648 
L 114.872193 265.838648 
L 114.872193 265.712772 
L 115.168444 265.712772 
L 115.168444 265.586897 
L 116.030193 265.586897 
L 116.030193 265.209269 
L 116.854188 265.209269 
L 116.854188 265.083393 
L 117.384126 265.083393 
L 117.384126 264.957517 
L 118.152051 264.957517 
L 118.152051 264.57989 
L 118.64712 264.57989 
L 118.64712 264.202262 
L 119.129494 264.202262 
L 119.129494 263.824634 
L 119.366121 263.824634 
L 119.366121 263.572883 
L 119.830627 263.572883 
L 119.830627 262.943503 
L 120.506564 262.943503 
L 120.506564 262.691752 
L 121.789667 262.691752 
L 121.789667 262.188248 
L 122.399825 262.188248 
L 122.399825 261.936497 
L 123.374735 261.936497 
L 123.374735 261.684745 
L 123.563797 261.684745 
L 123.563797 261.558869 
L 123.750979 261.558869 
L 123.750979 261.307117 
L 124.119844 261.307117 
L 124.119844 261.181241 
L 124.481616 261.181241 
L 124.481616 260.92949 
L 124.836562 260.92949 
L 124.836562 260.174234 
L 125.184934 260.174234 
L 125.184934 259.544855 
L 125.526971 259.544855 
L 125.526971 259.418979 
L 126.192937 259.418979 
L 126.192937 258.915476 
L 126.355808 258.915476 
L 126.355808 258.663724 
L 126.677381 258.663724 
L 126.677381 258.537848 
L 126.993549 258.537848 
L 126.993549 258.411972 
L 127.149662 258.411972 
L 127.149662 258.034345 
L 127.458055 258.034345 
L 127.458055 257.530841 
L 127.610376 257.530841 
L 127.610376 257.27909 
L 128.060076 257.27909 
L 128.060076 256.901462 
L 128.643427 256.901462 
L 128.643427 256.775586 
L 128.928456 256.775586 
L 128.928456 256.523834 
L 129.348062 256.523834 
L 129.348062 256.397959 
L 129.893363 256.397959 
L 129.893363 256.146207 
L 130.160198 256.146207 
L 130.160198 256.020331 
L 130.292209 256.020331 
L 130.292209 255.894455 
L 130.682774 255.894455 
L 130.682774 255.642703 
L 130.811181 255.642703 
L 130.811181 255.390952 
L 131.31622 255.390952 
L 131.31622 255.1392 
L 131.440389 255.1392 
L 131.440389 254.887448 
L 131.686295 254.887448 
L 131.686295 254.761572 
L 131.808053 254.761572 
L 131.808053 254.509821 
L 132.522502 254.509821 
L 132.522502 254.258069 
L 132.754746 254.258069 
L 132.754746 254.132193 
L 133.323114 254.132193 
L 133.323114 254.006317 
L 133.656071 254.006317 
L 133.656071 253.880441 
L 134.198228 253.880441 
L 134.304809 253.502814 
L 134.516177 253.502814 
L 134.516177 253.125186 
L 134.828842 253.125186 
L 134.931919 252.621683 
L 135.034434 252.621683 
L 135.136394 251.4888 
L 135.237805 251.4888 
L 135.338671 251.111172 
L 135.438999 251.111172 
L 135.538796 250.481793 
L 135.736814 250.481793 
L 135.736814 250.104166 
L 136.126705 250.104166 
L 136.126705 249.600662 
L 136.318661 249.600662 
L 136.318661 249.223034 
L 136.508678 249.223034 
L 136.508678 248.593655 
L 136.790153 248.593655 
L 136.88305 247.586648 
L 137.250116 247.586648 
L 137.250116 247.460772 
L 137.430998 247.460772 
L 137.430998 246.957269 
L 137.610157 246.957269 
L 137.610157 246.579641 
L 138.050729 246.579641 
L 138.137618 246.32789 
L 138.818654 246.32789 
L 138.818654 246.076138 
L 139.394983 246.076138 
L 139.394983 245.950262 
L 140.110942 245.950262 
L 140.188837 245.69851 
L 140.26641 245.69851 
L 140.26641 245.572634 
L 140.49723 245.572634 
L 140.573544 245.320883 
L 141.173167 245.320883 
L 141.173167 245.195007 
L 141.320133 245.195007 
L 141.320133 244.943255 
L 141.465959 244.943255 
L 141.538451 244.691503 
L 141.682602 244.691503 
L 141.682602 244.439752 
L 141.825656 244.439752 
L 141.825656 244.313876 
L 142.038218 244.313876 
L 142.038218 244.062124 
L 142.317949 244.062124 
L 142.387236 243.306869 
L 142.593581 243.306869 
L 142.593581 243.180993 
L 142.932537 243.180993 
L 142.932537 243.055117 
L 143.133017 243.055117 
L 143.199372 242.67749 
L 143.397043 242.67749 
L 143.397043 242.551614 
L 143.657415 242.551614 
L 143.657415 242.425738 
L 144.10457 242.425738 
L 144.16759 241.922234 
L 144.293001 241.922234 
L 144.293001 241.670483 
L 144.664294 241.670483 
L 144.664294 241.292855 
L 145.0284 241.292855 
L 145.0284 241.166979 
L 145.385592 241.166979 
L 145.385592 241.041103 
L 145.620007 241.041103 
L 145.620007 240.663476 
L 145.736128 240.663476 
L 145.736128 240.159972 
L 146.080251 240.159972 
L 146.080251 240.034097 
L 146.24998 240.034097 
L 146.306218 239.656469 
L 146.362288 239.656469 
L 146.362288 239.404717 
L 146.529503 239.404717 
L 146.529503 239.152966 
L 146.695245 239.152966 
L 146.750169 238.775338 
L 146.968277 238.775338 
L 146.968277 238.649462 
L 147.290768 238.649462 
L 147.397049 238.145959 
L 147.449964 238.145959 
L 147.555352 237.768331 
L 147.607824 237.768331 
L 147.607824 237.642455 
L 147.868016 237.642455 
L 147.919625 237.390703 
L 148.377845 237.390703 
L 148.478174 236.761324 
L 148.57797 236.761324 
L 148.57797 236.635448 
L 148.874221 236.635448 
L 148.874221 236.383697 
L 149.117582 236.383697 
L 149.165879 236.006069 
L 149.31003 236.006069 
L 149.40552 235.628441 
L 149.782707 235.628441 
L 149.875833 235.250814 
L 150.152479 235.250814 
L 150.198193 234.74731 
L 150.515122 234.74731 
L 150.604701 234.495559 
L 150.78259 234.495559 
L 150.78259 234.243807 
L 151.220087 234.243807 
L 151.220087 233.866179 
L 151.815978 233.866179 
L 151.899585 233.614428 
L 152.024303 233.614428 
L 152.024303 233.488552 
L 152.230346 233.488552 
L 152.312136 232.859172 
L 152.393571 232.859172 
L 152.393571 232.607421 
L 152.555392 232.607421 
L 152.555392 232.229793 
L 152.715833 232.229793 
L 152.715833 232.103917 
L 152.835271 232.103917 
L 152.835271 231.852166 
L 152.993353 231.852166 
L 152.993353 231.600414 
L 153.49813 231.600414 
L 153.49813 231.348662 
L 153.612719 231.348662 
L 153.612719 231.09691 
L 153.802162 231.09691 
L 153.802162 230.845159 
L 153.914919 230.845159 
L 153.952355 230.593407 
L 154.39587 230.593407 
L 154.468783 230.089903 
L 154.685842 230.089903 
L 154.685842 229.964028 
L 154.86483 229.964028 
L 154.971412 229.712276 
L 155.042132 229.712276 
L 155.112587 229.334648 
L 155.252711 229.334648 
L 155.252711 228.831145 
L 155.460959 228.831145 
L 155.529866 228.201766 
L 155.735085 228.201766 
L 155.735085 228.07589 
L 155.971711 228.07589 
L 155.971711 227.950014 
L 156.599372 227.950014 
L 156.599372 227.824138 
L 156.761123 227.824138 
L 156.857511 227.194759 
L 156.88953 227.194759 
L 156.953406 226.817131 
L 157.112155 226.817131 
L 157.112155 226.565379 
L 157.394569 226.565379 
L 157.456756 225.936 
L 157.61133 225.936 
L 157.703468 225.558372 
L 157.946987 225.558372 
L 157.946987 225.432497 
L 158.067574 225.432497 
L 158.067574 225.180745 
L 158.306454 225.180745 
L 158.306454 224.928993 
L 158.454228 224.928993 
L 158.513014 224.677241 
L 158.571617 224.677241 
L 158.659181 223.79611 
L 158.804221 223.79611 
L 158.804221 223.418483 
L 159.005416 223.418483 
L 159.090988 223.040855 
L 159.204482 223.040855 
L 159.289155 222.033848 
L 159.457367 222.033848 
L 159.457367 221.782097 
L 159.679334 221.782097 
L 159.679334 221.656221 
L 159.925957 221.656221 
L 159.980326 221.404469 
L 160.329943 221.404469 
L 160.436223 220.77509 
L 160.907191 220.77509 
L 160.907191 220.523338 
L 161.112783 220.523338 
L 161.112783 220.271586 
L 161.240147 220.271586 
L 161.316153 219.893959 
L 161.366654 219.893959 
L 161.391854 219.516331 
L 161.790524 219.516331 
L 161.790524 219.138703 
L 161.986735 219.138703 
L 161.986735 218.761076 
L 162.373122 218.761076 
L 162.373122 218.6352 
L 162.751732 218.6352 
L 162.775144 218.131697 
L 163.168754 218.131697 
L 163.214524 217.628193 
L 163.282972 217.628193 
L 163.373849 217.376441 
L 163.419123 217.376441 
L 163.486831 216.998814 
L 163.621521 216.998814 
L 163.710781 216.243559 
L 163.755253 216.243559 
L 163.777449 215.865931 
L 164.063646 215.865931 
L 164.150838 214.858924 
L 164.194282 214.858924 
L 164.194282 214.607172 
L 164.452864 214.607172 
L 164.452864 214.229545 
L 164.623299 214.229545 
L 164.70794 213.726041 
L 164.834193 213.726041 
L 164.876089 213.47429 
L 165.41242 213.47429 
L 165.45305 212.970786 
L 165.614697 212.970786 
L 165.695002 212.467283 
L 165.794904 212.467283 
L 165.854592 212.089655 
L 165.973402 212.089655 
L 165.973402 211.837903 
L 166.130658 211.837903 
L 166.169767 211.460276 
L 166.286609 211.460276 
L 166.286609 211.3344 
L 166.575579 211.3344 
L 166.632844 210.579145 
L 166.7279 210.579145 
L 166.7279 210.327393 
L 167.01022 210.327393 
L 167.028891 209.82389 
L 167.361848 209.82389 
L 167.361848 209.572138 
L 167.526142 209.572138 
L 167.634879 209.068634 
L 167.76095 209.068634 
L 167.814723 208.691007 
L 168.081306 208.691007 
L 168.116567 208.061628 
L 168.239461 208.061628 
L 168.326754 207.558124 
L 168.569041 207.558124 
L 168.654821 206.928745 
L 168.757243 206.928745 
L 168.757243 206.676993 
L 168.994082 206.676993 
L 168.994082 206.551117 
L 169.128092 206.551117 
L 169.144777 206.047614 
L 169.294273 206.047614 
L 169.393282 204.788855 
L 169.409732 204.788855 
L 169.508137 204.411228 
L 169.589749 204.411228 
L 169.589749 204.285352 
L 169.719596 204.285352 
L 169.719596 204.159476 
L 169.928705 204.159476 
L 170.008516 203.655972 
L 170.151329 203.655972 
L 170.230204 203.026593 
L 170.27737 203.026593 
L 170.27737 202.774841 
L 170.402572 202.774841 
L 170.402572 202.648966 
L 170.526947 202.648966 
L 170.604265 202.271338 
L 170.773255 202.271338 
L 170.834332 201.767834 
L 170.895211 201.767834 
L 170.895211 201.516083 
L 171.106748 201.516083 
L 171.106748 201.390207 
L 171.330787 201.390207 
L 171.330787 201.264331 
L 171.522819 201.264331 
L 171.522819 201.012579 
L 171.698355 201.012579 
L 171.698355 200.886703 
L 171.814477 200.886703 
L 171.814477 200.760828 
L 171.929885 200.760828 
L 172.03029 200.131448 
L 172.144386 200.131448 
L 172.201176 199.627945 
L 172.28604 199.627945 
L 172.370523 198.746814 
L 172.482581 198.746814 
L 172.482581 198.620938 
L 172.62172 198.620938 
L 172.663262 198.117434 
L 172.883283 198.117434 
L 172.883283 197.991559 
L 173.060174 197.991559 
L 173.060174 197.739807 
L 173.289011 197.739807 
L 173.315751 197.236303 
L 173.501874 197.236303 
L 173.581081 196.606924 
L 173.673069 196.606924 
L 173.673069 196.481048 
L 174.1775 196.481048 
L 174.215747 195.22229 
L 174.355328 195.22229 
L 174.405829 194.844662 
L 174.49388 194.844662 
L 174.531491 194.467034 
L 174.606487 194.467034 
L 174.706019 193.585903 
L 174.73082 193.585903 
L 174.73082 193.460028 
L 174.842022 193.460028 
L 174.842022 193.208276 
L 175.038105 193.208276 
L 175.14751 192.578897 
L 175.183838 192.578897 
L 175.232165 192.201269 
L 175.376408 192.201269 
L 175.471959 191.57189 
L 175.567027 191.57189 
L 175.626202 190.816634 
L 175.907676 190.816634 
L 175.954182 190.313131 
L 176.035292 190.313131 
L 176.035292 190.187255 
L 176.33353 190.187255 
L 176.435674 189.557876 
L 176.627113 189.557876 
L 176.627113 189.306124 
L 176.805529 189.306124 
L 176.894106 189.054372 
L 177.04812 189.054372 
L 177.070019 188.802621 
L 177.395487 188.802621 
L 177.492039 188.424993 
L 177.588098 188.424993 
L 177.694258 187.795614 
L 177.768216 187.795614 
L 177.831377 187.417986 
L 177.88385 187.417986 
L 177.904798 187.040359 
L 178.09229 187.040359 
L 178.09229 186.914483 
L 178.390485 186.914483 
L 178.47192 186.410979 
L 178.542888 186.410979 
L 178.542888 186.159228 
L 178.744191 186.159228 
L 178.824112 185.403972 
L 178.873892 185.403972 
L 178.873892 185.278097 
L 179.120831 185.278097 
L 179.120831 185.152221 
L 179.403277 185.152221 
L 179.490078 184.396966 
L 179.643407 184.396966 
L 179.643407 184.27109 
L 179.804963 184.27109 
L 179.889933 183.64171 
L 180.030704 183.64171 
L 180.030704 183.515834 
L 180.29069 183.515834 
L 180.355129 183.138207 
L 180.510711 183.138207 
L 180.619764 182.508828 
L 180.683087 182.508828 
L 180.755196 182.257076 
L 180.809098 182.257076 
L 180.853898 181.627697 
L 181.269884 181.627697 
L 181.33106 181.375945 
L 181.392038 181.375945 
L 181.444147 180.872441 
L 181.651154 180.872441 
L 181.651154 180.746566 
L 181.847421 180.746566 
L 181.90675 180.494814 
L 182.267151 180.494814 
L 182.333448 179.99131 
L 182.383017 179.99131 
L 182.489971 179.110179 
L 182.522758 179.110179 
L 182.596321 178.732552 
L 182.799165 178.732552 
L 182.799165 178.606676 
L 182.927846 178.606676 
L 182.927846 178.4808 
L 183.103358 178.4808 
L 183.14302 177.599669 
L 183.316545 177.599669 
L 183.347923 177.096166 
L 183.666573 177.096166 
L 183.666573 176.844414 
L 183.888744 176.844414 
L 183.995068 176.34091 
L 184.369962 176.34091 
L 184.369962 176.089159 
L 184.679199 176.089159 
L 184.788421 175.459779 
L 184.868116 175.459779 
L 184.868116 175.333903 
L 184.983436 175.333903 
L 185.09091 175.082152 
L 185.219074 175.082152 
L 185.219074 174.956276 
L 185.339322 174.956276 
L 185.339322 174.8304 
L 185.640089 174.8304 
L 185.653962 174.452772 
L 186.051887 174.452772 
L 186.14669 174.201021 
L 186.374956 174.201021 
L 186.461507 173.823393 
L 186.672875 173.823393 
L 186.75153 173.31989 
L 186.953212 173.31989 
L 187.050029 173.068138 
L 187.082191 173.068138 
L 187.191132 172.69051 
L 187.318496 172.69051 
L 187.318496 172.438759 
L 360.8064 172.438759 
L 360.8064 172.438759 
" style="fill: none; stroke: #000080; stroke-width: 1.5; stroke-linecap: square"/>
   </g>
   <g id="line2d_36">
    <defs>
     <path id="me95d3a1382" d="M 0 6 
C 1.591219 6 3.117479 5.367802 4.242641 4.242641 
C 5.367802 3.117479 6 1.591219 6 0 
C 6 -1.591219 5.367802 -3.117479 4.242641 -4.242641 
C 3.117479 -5.367802 1.591219 -6 0 -6 
C -1.591219 -6 -3.117479 -5.367802 -4.242641 -4.242641 
C -5.367802 -3.117479 -6 -1.591219 -6 0 
C -6 1.591219 -5.367802 3.117479 -4.242641 4.242641 
C -3.117479 5.367802 -1.591219 6 0 6 
z
" style="stroke: #000080; stroke-width: 1.5"/>
    </defs>
    <g>
     <use xlink:href="#me95d3a1382" x="138.818654" y="246.32789" style="fill-opacity: 0; stroke: #000080; stroke-width: 1.5"/>
     <use xlink:href="#me95d3a1382" x="187.318496" y="172.69051" style="fill-opacity: 0; stroke: #000080; stroke-width: 1.5"/>
     <use xlink:href="#me95d3a1382" x="187.318496" y="172.438759" style="fill-opacity: 0; stroke: #000080; stroke-width: 1.5"/>
     <use xlink:href="#me95d3a1382" x="187.318496" y="172.438759" style="fill-opacity: 0; stroke: #000080; stroke-width: 1.5"/>
     <use xlink:href="#me95d3a1382" x="187.318496" y="172.438759" style="fill-opacity: 0; stroke: #000080; stroke-width: 1.5"/>
     <use xlink:href="#me95d3a1382" x="360.8064" y="172.438759" style="fill-opacity: 0; stroke: #000080; stroke-width: 1.5"/>
    </g>
   </g>
   <g id="line2d_37">
    <path style="fill: none; stroke: #000080; stroke-width: 1.5; stroke-linecap: square"/>
    <g/>
   </g>
   <g id="line2d_38">
    <path d="M 187.558137 172.438759 
" clip-path="url(#p2d79761a81)" style="fill: none; stroke: #000080; stroke-width: 1.5; stroke-linecap: square"/>
    <defs>
     <path id="mfbdd6e716b" d="M -12 12 
L 12 -12 
M -12 -12 
L 12 12 
" style="stroke: #000080"/>
    </defs>
    <g clip-path="url(#p2d79761a81)">
     <use xlink:href="#mfbdd6e716b" x="187.558137" y="172.438759" style="fill: #000080; stroke: #000080"/>
    </g>
   </g>
   <g id="line2d_39">
    <defs>
     <path id="m71b998c037" d="M 0 1.5 
C 0.397805 1.5 0.77937 1.341951 1.06066 1.06066 
C 1.341951 0.77937 1.5 0.397805 1.5 0 
C 1.5 -0.397805 1.341951 -0.77937 1.06066 -1.06066 
C 0.77937 -1.341951 0.397805 -1.5 0 -1.5 
C -0.397805 -1.5 -0.77937 -1.341951 -1.06066 -1.06066 
C -1.341951 -0.77937 -1.5 -0.397805 -1.5 0 
C -1.5 0.397805 -1.341951 0.77937 -1.06066 1.06066 
C -0.77937 1.341951 -0.397805 1.5 0 1.5 
z
" style="stroke: #ff00ff"/>
    </defs>
    <g>
     <use xlink:href="#m71b998c037" x="215.239332" y="156.326648" style="fill: #ff00ff; stroke: #ff00ff"/>
     <use xlink:href="#m71b998c037" x="215.239332" y="156.326648" style="fill: #ff00ff; stroke: #ff00ff"/>
    </g>
   </g>
   <g id="line2d_40">
    <path d="M 36.933397 298.944 
L 36.933397 286.356414 
L 49.972572 286.356414 
L 49.972572 285.349407 
L 57.6 285.349407 
L 57.6 284.971779 
L 63.011746 284.971779 
L 63.011746 283.713021 
L 67.209423 283.713021 
L 67.209423 282.83189 
L 70.639174 282.83189 
L 70.639174 282.580138 
L 73.538988 282.580138 
L 73.538988 282.454262 
L 76.050921 282.454262 
L 76.050921 282.076634 
L 78.266603 282.076634 
L 78.266603 281.321379 
L 80.248597 281.321379 
L 80.248597 281.069628 
L 82.04153 281.069628 
L 82.04153 280.692 
L 83.678349 280.692 
L 83.678349 280.440248 
L 85.184077 280.440248 
L 85.184077 280.188497 
L 87.876026 280.188497 
L 87.876026 279.936745 
L 89.090095 279.936745 
L 89.090095 279.684993 
L 90.230539 279.684993 
L 90.230539 279.433241 
L 91.305777 279.433241 
L 91.305777 278.929738 
L 92.322865 278.929738 
L 92.322865 278.55211 
L 94.205591 278.55211 
L 94.205591 277.796855 
L 95.080704 277.796855 
L 95.080704 277.419228 
L 95.916911 277.419228 
L 95.916911 277.0416 
L 96.717523 277.0416 
L 96.717523 276.789848 
L 97.485448 276.789848 
L 97.485448 276.412221 
L 98.933205 276.412221 
L 98.933205 276.034593 
L 99.617337 276.034593 
L 99.617337 275.908717 
L 100.277459 275.908717 
L 100.277459 275.53109 
L 101.532027 275.53109 
L 101.532027 275.405214 
L 102.12927 275.405214 
L 102.12927 275.153462 
L 103.269713 275.153462 
L 103.269713 275.027586 
L 103.815014 275.027586 
L 103.815014 274.775834 
L 104.344952 274.775834 
L 104.344952 274.649959 
L 104.860369 274.649959 
L 104.860369 274.524083 
L 105.36204 274.524083 
L 105.36204 274.398207 
L 106.791453 274.398207 
L 106.791453 274.020579 
L 107.244765 274.020579 
L 107.244765 273.768828 
L 107.68741 273.768828 
L 107.68741 273.517076 
L 108.542628 273.517076 
L 108.542628 273.265324 
L 108.956085 273.265324 
L 108.956085 273.013572 
L 109.756698 273.013572 
L 109.756698 272.761821 
L 110.144579 272.761821 
L 110.144579 272.510069 
L 110.897141 272.510069 
L 110.897141 272.258317 
L 111.262425 272.258317 
L 111.262425 272.132441 
L 111.620752 272.132441 
L 111.620752 272.006566 
L 112.317555 272.006566 
L 112.317555 271.754814 
L 113.638206 271.754814 
L 113.638206 271.125434 
L 114.872193 271.125434 
L 114.872193 270.747807 
L 116.308887 270.747807 
L 116.308887 270.621931 
L 117.384126 270.621931 
L 117.384126 270.370179 
L 118.152051 270.370179 
L 118.152051 270.244303 
L 118.401214 270.244303 
L 118.401214 269.7408 
L 118.889854 269.7408 
L 118.889854 269.237297 
L 119.129494 269.237297 
L 119.129494 269.111421 
L 119.599808 269.111421 
L 119.599808 268.859669 
L 120.506564 268.859669 
L 120.506564 268.733793 
L 120.944062 268.733793 
L 120.944062 268.356166 
L 121.789667 268.356166 
L 121.789667 268.104414 
L 121.99526 268.104414 
L 121.99526 267.852662 
L 122.19863 267.852662 
L 122.19863 267.349159 
L 122.399825 267.349159 
L 122.399825 267.097407 
L 122.598891 267.097407 
L 122.598891 265.964524 
L 122.795872 265.964524 
L 122.795872 265.586897 
L 122.990812 265.586897 
L 122.990812 265.461021 
L 123.183753 265.461021 
L 123.183753 265.083393 
L 123.374735 265.083393 
L 123.374735 264.831641 
L 123.936316 264.831641 
L 123.936316 264.454014 
L 124.481616 264.454014 
L 124.481616 264.202262 
L 124.659926 264.202262 
L 124.659926 263.95051 
L 124.836562 263.95051 
L 124.836562 263.069379 
L 125.526971 263.069379 
L 125.526971 262.565876 
L 125.695686 262.565876 
L 125.695686 262.44 
L 126.028642 262.44 
L 126.028642 262.062372 
L 126.192937 262.062372 
L 126.192937 261.558869 
L 126.355808 261.558869 
L 126.355808 261.432993 
L 126.677381 261.432993 
L 126.677381 261.307117 
L 126.836129 261.307117 
L 126.836129 261.055366 
L 127.149662 261.055366 
L 127.149662 260.92949 
L 127.610376 260.92949 
L 127.610376 260.425986 
L 128.354013 260.425986 
L 128.354013 260.048359 
L 128.643427 260.048359 
L 128.643427 259.670731 
L 128.786481 259.670731 
L 128.786481 259.544855 
L 128.928456 259.544855 
L 128.928456 259.041352 
L 129.209231 259.041352 
L 129.209231 258.915476 
L 129.348062 258.915476 
L 129.348062 258.663724 
L 129.622688 258.663724 
L 129.622688 258.537848 
L 129.758512 258.537848 
L 129.758512 258.160221 
L 130.292209 258.160221 
L 130.292209 258.034345 
L 130.4233 258.034345 
L 130.4233 257.908469 
L 130.553485 257.908469 
L 130.553485 257.782593 
L 131.065395 257.782593 
L 131.065395 257.27909 
L 131.191226 257.27909 
L 131.191226 256.901462 
L 131.563744 256.901462 
L 131.563744 256.775586 
L 131.808053 256.775586 
L 131.808053 256.146207 
L 132.287354 256.146207 
L 132.287354 256.020331 
L 132.869802 256.020331 
L 132.869802 255.894455 
L 133.097823 255.894455 
L 133.097823 255.516828 
L 133.210806 255.516828 
L 133.210806 255.390952 
L 133.323114 255.390952 
L 133.323114 255.1392 
L 133.545739 255.1392 
L 133.656071 254.132193 
L 133.874812 254.132193 
L 133.874812 254.006317 
L 134.304809 254.006317 
L 134.304809 253.754566 
L 134.516177 253.754566 
L 134.516177 253.251062 
L 134.931919 253.251062 
L 135.034434 252.369931 
L 135.338671 252.369931 
L 135.338671 251.866428 
L 135.736814 251.866428 
L 135.835047 251.614676 
L 135.932769 251.614676 
L 135.932769 251.4888 
L 136.126705 251.4888 
L 136.222928 250.859421 
L 136.318661 250.859421 
L 136.318661 250.607669 
L 136.88305 250.607669 
L 136.97549 250.355917 
L 137.430998 250.355917 
L 137.520791 250.104166 
L 137.610157 250.104166 
L 137.610157 249.474786 
L 137.787626 249.474786 
L 137.875736 249.097159 
L 138.137618 249.097159 
L 138.137618 248.719531 
L 138.310202 248.719531 
L 138.310202 248.341903 
L 138.985129 248.341903 
L 138.985129 248.090152 
L 139.394983 248.090152 
L 139.394983 247.8384 
L 139.796097 247.8384 
L 139.796097 247.712524 
L 140.188837 247.712524 
L 140.26641 247.209021 
L 140.420604 247.209021 
L 140.420604 247.083145 
L 140.649551 247.083145 
L 140.649551 246.957269 
L 140.875745 246.957269 
L 140.875745 245.446759 
L 141.099251 245.446759 
L 141.173167 245.195007 
L 141.682602 245.195007 
L 141.682602 244.943255 
L 141.896777 244.943255 
L 141.96763 244.691503 
L 142.038218 244.691503 
L 142.108542 244.062124 
L 142.45627 244.062124 
L 142.525051 243.810372 
L 142.593581 243.810372 
L 142.593581 243.684497 
L 142.797687 243.684497 
L 142.797687 243.558621 
L 142.999601 243.558621 
L 142.999601 243.432745 
L 143.133017 243.432745 
L 143.133017 243.180993 
L 143.265494 243.180993 
L 143.331383 242.803366 
L 143.52768 242.803366 
L 143.52768 242.67749 
L 143.657415 242.67749 
L 143.721949 242.173986 
L 144.041338 242.173986 
L 144.10457 241.796359 
L 144.16759 241.796359 
L 144.16759 241.418731 
L 144.479563 241.418731 
L 144.479563 241.292855 
L 144.602918 241.292855 
L 144.664294 240.915228 
L 144.968202 240.915228 
L 144.968202 240.663476 
L 145.503164 240.663476 
L 145.503164 240.5376 
L 145.620007 240.5376 
L 145.620007 240.411724 
L 145.736128 240.411724 
L 145.736128 239.908221 
L 145.851536 239.908221 
L 145.851536 239.656469 
L 146.080251 239.656469 
L 146.136998 239.278841 
L 146.47393 239.278841 
L 146.584913 238.775338 
L 146.804934 238.775338 
L 146.804934 238.523586 
L 146.968277 238.523586 
L 146.968277 238.271834 
L 147.290768 238.271834 
L 147.290768 238.145959 
L 147.555352 238.145959 
L 147.555352 237.768331 
L 147.816265 237.768331 
L 147.816265 237.264828 
L 148.124658 237.264828 
L 148.226342 236.8872 
L 148.276979 236.8872 
L 148.276979 236.509572 
L 148.428077 236.509572 
L 148.478174 235.754317 
L 148.57797 235.754317 
L 148.627671 234.621434 
L 149.020615 234.621434 
L 149.020615 234.495559 
L 149.262102 234.495559 
L 149.262102 234.243807 
L 149.40552 234.243807 
L 149.40552 233.992055 
L 149.595059 233.992055 
L 149.595059 233.740303 
L 149.782707 233.740303 
L 149.782707 233.488552 
L 150.106653 233.488552 
L 150.106653 233.362676 
L 150.470172 233.362676 
L 150.515122 232.607421 
L 150.649331 232.607421 
L 150.693856 232.355669 
L 150.78259 232.355669 
L 150.870907 231.978041 
L 150.914911 231.978041 
L 150.958812 231.474538 
L 151.220087 231.474538 
L 151.220087 230.971034 
L 151.435079 230.971034 
L 151.435079 230.719283 
L 151.94125 230.719283 
L 151.94125 230.593407 
L 152.230346 230.593407 
L 152.312136 230.215779 
L 152.555392 230.215779 
L 152.555392 230.089903 
L 152.715833 230.089903 
L 152.715833 229.964028 
L 153.032666 229.964028 
L 153.032666 229.712276 
L 153.38284 229.712276 
L 153.38284 229.5864 
L 153.49813 229.5864 
L 153.49813 229.334648 
L 153.989717 229.334648 
L 153.989717 229.082897 
L 154.101358 229.082897 
L 154.101358 228.957021 
L 154.39587 228.957021 
L 154.39587 228.705269 
L 154.649839 228.705269 
L 154.721776 228.07589 
L 154.86483 228.07589 
L 154.935952 227.698262 
L 155.252711 227.698262 
L 155.252711 227.572386 
L 155.529866 227.572386 
L 155.529866 227.194759 
L 155.769072 227.194759 
L 155.769072 227.068883 
L 155.971711 227.068883 
L 156.072219 225.936 
L 156.105602 225.936 
L 156.105602 225.810124 
L 156.436218 225.810124 
L 156.468962 225.432497 
L 156.599372 225.432497 
L 156.599372 225.180745 
L 156.857511 225.180745 
L 156.953406 224.803117 
L 157.206765 224.803117 
L 157.238196 224.551366 
L 157.487772 224.551366 
L 157.487772 224.42549 
L 157.672805 224.42549 
L 157.672805 223.79611 
L 157.795157 223.79611 
L 157.886402 222.914979 
L 158.571617 222.914979 
L 158.659181 222.411476 
L 159.090988 222.411476 
L 159.090988 222.2856 
L 159.260973 222.2856 
L 159.345393 221.782097 
L 159.485256 221.782097 
L 159.540912 221.026841 
L 159.651731 221.026841 
L 159.706897 220.523338 
L 160.007451 220.523338 
L 160.007451 220.397462 
L 160.276577 220.397462 
L 160.303279 220.019834 
L 160.646999 220.019834 
L 160.646999 219.893959 
L 160.777545 219.893959 
L 160.82951 219.264579 
L 161.087207 219.264579 
L 161.163832 218.509324 
L 161.290852 218.509324 
L 161.391854 218.005821 
L 161.41702 218.005821 
L 161.41702 217.754069 
L 161.567313 217.754069 
L 161.567313 217.250566 
L 161.839769 217.250566 
L 161.839769 216.998814 
L 162.108336 216.998814 
L 162.180921 216.243559 
L 162.253227 216.243559 
L 162.349204 215.614179 
L 162.444694 215.614179 
L 162.539702 214.9848 
L 162.56338 214.9848 
L 162.587027 214.481297 
L 162.751732 214.481297 
L 162.798527 214.103669 
L 163.007676 214.103669 
L 163.053839 213.348414 
L 163.282972 213.348414 
L 163.305732 213.096662 
L 163.419123 213.096662 
L 163.464289 212.719034 
L 163.666204 212.719034 
L 163.666204 212.467283 
L 163.910081 212.467283 
L 163.910081 212.215531 
L 164.041785 212.215531 
L 164.129077 211.712028 
L 164.367065 211.712028 
L 164.367065 211.460276 
L 164.834193 211.460276 
L 164.834193 211.3344 
L 165.104867 211.3344 
L 165.146166 210.956772 
L 165.249018 210.956772 
L 165.31046 210.453269 
L 165.432746 210.453269 
L 165.432746 210.327393 
L 165.574415 210.327393 
L 165.614697 209.572138 
L 165.794904 209.572138 
L 165.854592 209.19451 
L 166.364103 209.19451 
L 166.364103 208.942759 
L 166.479748 208.942759 
L 166.575579 208.313379 
L 166.632844 208.313379 
L 166.708927 207.809876 
L 166.916583 207.809876 
L 166.935348 207.558124 
L 167.028891 207.558124 
L 167.121972 207.180497 
L 167.159075 207.180497 
L 167.214594 206.425241 
L 167.325142 206.425241 
L 167.325142 206.17349 
L 167.453299 206.17349 
L 167.526142 205.54411 
L 167.689013 205.54411 
L 167.725016 205.292359 
L 168.204431 205.292359 
L 168.204431 205.166483 
L 168.326754 205.166483 
L 168.413644 204.662979 
L 168.79126 204.662979 
L 168.842171 203.907724 
L 168.96043 203.907724 
L 169.027674 203.655972 
L 169.376816 203.655972 
L 169.458999 203.026593 
L 169.589749 203.026593 
L 169.622295 202.648966 
L 169.719596 202.648966 
L 169.719596 202.52309 
L 169.848553 202.52309 
L 169.848553 202.271338 
L 170.087991 202.271338 
L 170.087991 202.019586 
L 170.557912 202.019586 
L 170.604265 201.516083 
L 170.742643 201.516083 
L 170.84957 201.138455 
L 170.895211 201.138455 
L 170.895211 200.634952 
L 171.061619 200.634952 
L 171.136775 200.005572 
L 171.211632 200.005572 
L 171.256404 199.502069 
L 171.434432 199.502069 
L 171.434432 199.376193 
L 171.581513 199.376193 
L 171.581513 199.250317 
L 171.698355 199.250317 
L 171.698355 198.998566 
L 171.814477 198.998566 
L 171.915498 198.495062 
L 172.144386 198.495062 
L 172.172803 198.117434 
L 172.257795 198.117434 
L 172.356469 197.488055 
L 172.62172 197.488055 
L 172.677089 197.110428 
L 172.759838 197.110428 
L 172.759838 196.858676 
L 172.924252 196.858676 
L 173.033068 196.355172 
L 173.046626 196.355172 
L 173.046626 196.103421 
L 173.24883 196.103421 
L 173.315751 195.474041 
L 173.501874 195.474041 
L 173.501874 195.22229 
L 173.620559 195.22229 
L 173.620559 194.970538 
L 173.907565 194.970538 
L 174.010854 194.59291 
L 174.049442 194.59291 
L 174.126381 194.089407 
L 174.292011 194.089407 
L 174.355328 193.711779 
L 174.656319 193.711779 
L 174.706019 193.208276 
L 174.829699 193.208276 
L 174.940319 192.578897 
L 174.989276 192.578897 
L 174.989276 192.327145 
L 175.135386 192.327145 
L 175.220095 191.823641 
L 175.424244 191.823641 
L 175.471959 191.194262 
L 175.685191 191.194262 
L 175.77919 190.94251 
L 175.802616 190.94251 
L 175.802616 190.690759 
L 175.919314 190.690759 
L 176.023726 189.935503 
L 176.127562 189.935503 
L 176.219382 189.180248 
L 176.299358 189.180248 
L 176.299358 188.928497 
L 176.671876 188.928497 
L 176.772205 188.424993 
L 176.816624 188.424993 
L 176.816624 188.299117 
L 176.960266 188.299117 
L 176.982268 187.92149 
L 177.113741 187.92149 
L 177.200883 187.417986 
L 177.341632 187.417986 
L 177.427726 187.040359 
L 177.630634 187.040359 
L 177.641253 186.662731 
L 177.757668 186.662731 
L 177.831377 186.285103 
L 177.936177 186.285103 
L 177.936177 186.033352 
L 178.061171 186.033352 
L 178.061171 185.907476 
L 178.38028 185.907476 
L 178.46176 185.278097 
L 178.542888 185.278097 
L 178.623668 185.026345 
L 178.67398 185.026345 
L 178.744191 184.648717 
L 178.794182 184.648717 
L 178.794182 184.522841 
L 178.982944 184.522841 
L 179.06186 184.145214 
L 179.160042 184.145214 
L 179.169832 183.893462 
L 179.374254 183.893462 
L 179.480453 183.138207 
L 179.710098 183.138207 
L 179.776554 182.760579 
L 179.918172 182.760579 
L 179.927575 182.508828 
L 180.040051 182.508828 
L 180.105353 182.1312 
L 180.161146 182.1312 
L 180.161146 181.879448 
L 180.382678 181.879448 
L 180.391852 181.627697 
L 180.538033 181.627697 
L 180.646928 180.998317 
L 180.719176 180.998317 
L 180.755196 180.368938 
L 181.067466 180.368938 
L 181.067466 180.243062 
L 181.208509 180.243062 
L 181.208509 180.117186 
L 181.392038 180.117186 
L 181.470148 179.865434 
L 181.591012 179.865434 
L 181.668302 179.236055 
L 181.711104 179.236055 
L 181.711104 179.110179 
L 181.881346 179.110179 
L 181.940568 178.732552 
L 182.158919 178.732552 
L 182.158919 178.606676 
L 182.275451 178.606676 
L 182.349985 178.229048 
L 182.407753 178.229048 
L 182.440683 177.977297 
L 182.555488 177.977297 
L 182.653338 177.725545 
L 182.693959 177.725545 
L 182.742588 177.096166 
L 182.895758 177.096166 
L 182.895758 176.97029 
L 183.015807 176.97029 
L 183.015807 176.844414 
L 183.135094 176.844414 
L 183.135094 176.592662 
L 183.35576 176.592662 
L 183.433946 176.34091 
L 183.58161 176.34091 
L 183.635722 176.089159 
L 183.712756 176.089159 
L 183.735804 175.711531 
L 183.881127 175.711531 
L 183.911579 175.459779 
L 184.123372 175.459779 
L 184.175949 175.208028 
L 184.235859 175.208028 
L 184.288124 174.704524 
L 184.620688 174.704524 
L 184.620688 174.578648 
L 184.96906 174.578648 
L 185.040832 174.201021 
L 185.17645 174.201021 
L 185.17645 174.075145 
L 185.325215 174.075145 
L 185.325215 173.949269 
L 185.458805 173.949269 
L 185.458805 173.697517 
L 185.963426 173.697517 
L 186.045097 173.31989 
L 186.126415 173.31989 
L 186.160194 172.942262 
L 186.50132 172.942262 
L 186.574092 172.564634 
L 186.849388 172.564634 
L 186.953212 171.935255 
L 187.178348 171.935255 
L 187.248553 171.557628 
L 187.782383 171.557628 
L 187.831855 170.928248 
L 187.893512 170.928248 
L 187.893512 170.802372 
L 188.02845 170.802372 
L 188.02845 170.550621 
L 188.247192 170.550621 
L 188.355616 170.298869 
L 188.540894 170.298869 
L 188.612127 169.921241 
L 188.700792 169.921241 
L 188.700792 169.795366 
L 188.841791 169.795366 
L 188.841791 169.66949 
L 189.372704 169.66949 
L 189.474849 169.291862 
L 189.750131 169.291862 
L 189.783564 168.914234 
L 189.877969 168.914234 
L 189.877969 168.788359 
L 190.180191 168.788359 
L 190.272631 168.536607 
L 190.343016 168.536607 
L 190.364619 168.284855 
L 191.001461 168.284855 
L 191.05357 168.033103 
L 191.490769 168.033103 
L 191.490769 167.907228 
L 191.617446 167.907228 
L 191.617446 167.781352 
L 191.987489 167.781352 
L 191.987489 167.5296 
L 192.14528 167.5296 
L 192.14528 167.277848 
L 192.379512 167.277848 
L 192.379512 167.026097 
L 192.558097 167.026097 
L 192.630016 166.648469 
L 192.754027 166.648469 
L 192.754027 166.396717 
L 193.074553 166.396717 
L 193.074553 166.144966 
L 193.191033 166.144966 
L 193.191033 166.01909 
L 193.380514 166.01909 
L 193.380514 165.893214 
L 193.495121 165.893214 
L 193.495121 165.767338 
L 193.690626 165.767338 
L 193.749335 165.515586 
L 193.857241 165.515586 
L 193.857241 165.38971 
L 194.088935 165.38971 
L 194.177294 165.137959 
L 194.230111 165.137959 
L 194.339671 164.382703 
L 195.009284 164.382703 
L 195.009284 164.256828 
L 195.347788 164.256828 
L 195.347788 164.130952 
L 195.898768 164.130952 
L 195.898768 164.005076 
L 196.324288 164.005076 
L 196.324288 163.8792 
L 196.643995 163.8792 
L 196.651725 163.627448 
L 196.931727 163.627448 
L 196.931727 163.501572 
L 197.345929 163.501572 
L 197.345929 163.249821 
L 197.534917 163.249821 
L 197.534917 163.123945 
L 198.033386 163.123945 
L 198.033386 162.998069 
L 198.606263 162.998069 
L 198.62019 162.494566 
L 198.934269 162.494566 
L 198.958213 162.116938 
L 199.046883 162.116938 
L 199.046883 161.991062 
L 199.158827 161.991062 
L 199.158827 161.865186 
L 199.427472 161.865186 
L 199.460784 161.613434 
L 199.679179 161.613434 
L 199.698908 161.361683 
L 199.940546 161.361683 
L 200.040857 160.984055 
L 200.255849 160.984055 
L 200.255849 160.858179 
L 201.162117 160.858179 
L 201.162117 160.606428 
L 202.067335 160.606428 
L 202.136751 160.2288 
L 202.595905 160.2288 
L 202.638118 159.725297 
L 202.822738 159.725297 
L 202.822738 159.473545 
L 203.074355 159.473545 
L 203.074355 159.347669 
L 203.281948 159.347669 
L 203.281948 159.095917 
L 203.452312 159.095917 
L 203.452312 158.970041 
L 203.687727 158.970041 
L 203.687727 158.844166 
L 204.924878 158.844166 
L 204.924878 158.71829 
L 205.590064 158.71829 
L 205.594869 158.340662 
L 206.181374 158.340662 
L 206.181374 158.08891 
L 206.366734 158.08891 
L 206.366734 157.837159 
L 207.481255 157.837159 
L 207.481255 157.711283 
L 208.065319 157.711283 
L 208.065319 157.459531 
L 210.280532 157.459531 
L 210.280532 157.333655 
L 211.31161 157.333655 
L 211.329328 157.081903 
L 212.206455 157.081903 
L 212.206455 156.830152 
L 213.259894 156.830152 
L 213.259894 156.704276 
L 214.051714 156.704276 
L 214.051714 156.5784 
L 214.657861 156.5784 
L 214.657861 156.452524 
L 215.239332 156.452524 
L 215.239332 156.326648 
L 360.8064 156.326648 
L 360.8064 156.326648 
" style="fill: none; stroke: #ff00ff; stroke-width: 1.5; stroke-linecap: square"/>
   </g>
   <g id="line2d_41">
    <defs>
     <path id="m27fe490bfc" d="M -0 8.485281 
L 5.091169 0 
L 0 -8.485281 
L -5.091169 -0 
z
" style="stroke: #ff00ff; stroke-width: 1.5; stroke-linejoin: miter"/>
    </defs>
    <g>
     <use xlink:href="#m27fe490bfc" x="103.815014" y="275.027586" style="fill-opacity: 0; stroke: #ff00ff; stroke-width: 1.5; stroke-linejoin: miter"/>
     <use xlink:href="#m27fe490bfc" x="159.540912" y="221.278593" style="fill-opacity: 0; stroke: #ff00ff; stroke-width: 1.5; stroke-linejoin: miter"/>
     <use xlink:href="#m27fe490bfc" x="215.239332" y="156.452524" style="fill-opacity: 0; stroke: #ff00ff; stroke-width: 1.5; stroke-linejoin: miter"/>
     <use xlink:href="#m27fe490bfc" x="215.239332" y="156.326648" style="fill-opacity: 0; stroke: #ff00ff; stroke-width: 1.5; stroke-linejoin: miter"/>
     <use xlink:href="#m27fe490bfc" x="215.239332" y="156.326648" style="fill-opacity: 0; stroke: #ff00ff; stroke-width: 1.5; stroke-linejoin: miter"/>
     <use xlink:href="#m27fe490bfc" x="360.8064" y="156.326648" style="fill-opacity: 0; stroke: #ff00ff; stroke-width: 1.5; stroke-linejoin: miter"/>
    </g>
   </g>
   <g id="line2d_42">
    <path style="fill: none; stroke: #ff00ff; stroke-width: 1.5; stroke-linecap: square"/>
    <g/>
   </g>
   <g id="line2d_43">
    <path d="M 274.176502 156.326648 
" clip-path="url(#p2d79761a81)" style="fill: none; stroke: #ff00ff; stroke-width: 1.5; stroke-linecap: square"/>
    <defs>
     <path id="m7e68237c8a" d="M -12 12 
L 12 -12 
M -12 -12 
L 12 12 
" style="stroke: #ff00ff"/>
    </defs>
    <g clip-path="url(#p2d79761a81)">
     <use xlink:href="#m7e68237c8a" x="274.176502" y="156.326648" style="fill: #ff00ff; stroke: #ff00ff"/>
    </g>
   </g>
   <g id="line2d_44">
    <path d="M 360.8064 172.438759 
L 380.514816 293.10336 
" style="fill: none; stroke: #000080; stroke-width: 1.5; stroke-linecap: square"/>
    <g>
     <use xlink:href="#me95d3a1382" x="360.8064" y="172.438759" style="fill-opacity: 0; stroke: #000080; stroke-width: 1.5"/>
     <use xlink:href="#me95d3a1382" x="380.514816" y="293.10336" style="fill-opacity: 0; stroke: #000080; stroke-width: 1.5"/>
    </g>
   </g>
   <g id="line2d_45">
    <path d="M 360.8064 156.326648 
L 380.514816 152.928 
" style="fill: none; stroke: #ff00ff; stroke-width: 1.5; stroke-linecap: square"/>
    <g>
     <use xlink:href="#m27fe490bfc" x="360.8064" y="156.326648" style="fill-opacity: 0; stroke: #ff00ff; stroke-width: 1.5; stroke-linejoin: miter"/>
     <use xlink:href="#m27fe490bfc" x="380.514816" y="152.928" style="fill-opacity: 0; stroke: #ff00ff; stroke-width: 1.5; stroke-linejoin: miter"/>
    </g>
   </g>
   <g id="line2d_46">
    <path d="M 360.8064 298.944 
L 360.8064 6.912 
" style="fill: none; stroke: #000000; stroke-width: 1.5; stroke-linecap: square"/>
   </g>
   <g id="patch_3">
    <path d="M 57.6 298.944 
L 360.8064 298.944 
" style="fill: none; stroke: #000000; stroke-width: 0.8; stroke-linejoin: miter; stroke-linecap: square"/>
   </g>
   <g id="patch_4">
    <path d="M 57.6 6.912 
L 360.8064 6.912 
" style="fill: none; stroke: #000000; stroke-width: 0.8; stroke-linejoin: miter; stroke-linecap: square"/>
   </g>
   <g id="text_13">
    <!-- AllComo -->
    <g transform="translate(386.578944 296.966485) scale(0.14 -0.14)">
     <defs>
      <path id="DejaVuSans-41" d="M 2188 4044 
L 1331 1722 
L 3047 1722 
L 2188 4044 
z
M 1831 4666 
L 2547 4666 
L 4325 0 
L 3669 0 
L 3244 1197 
L 1141 1197 
L 716 0 
L 50 0 
L 1831 4666 
z
" transform="scale(0.015625)"/>
      <path id="DejaVuSans-43" d="M 4122 4306 
L 4122 3641 
Q 3803 3938 3442 4084 
Q 3081 4231 2675 4231 
Q 1875 4231 1450 3742 
Q 1025 3253 1025 2328 
Q 1025 1406 1450 917 
Q 1875 428 2675 428 
Q 3081 428 3442 575 
Q 3803 722 4122 1019 
L 4122 359 
Q 3791 134 3420 21 
Q 3050 -91 2638 -91 
Q 1578 -91 968 557 
Q 359 1206 359 2328 
Q 359 3453 968 4101 
Q 1578 4750 2638 4750 
Q 3056 4750 3426 4639 
Q 3797 4528 4122 4306 
z
" transform="scale(0.015625)"/>
     </defs>
     <use xlink:href="#DejaVuSans-41"/>
     <use xlink:href="#DejaVuSans-6c" x="68.408203"/>
     <use xlink:href="#DejaVuSans-6c" x="96.191406"/>
     <use xlink:href="#DejaVuSans-43" x="123.974609"/>
     <use xlink:href="#DejaVuSans-6f" x="193.798828"/>
     <use xlink:href="#DejaVuSans-6d" x="254.980469"/>
     <use xlink:href="#DejaVuSans-6f" x="352.392578"/>
    </g>
   </g>
   <g id="text_14">
    <!-- COMO-10 d -->
    <g transform="translate(386.578944 156.791125) scale(0.14 -0.14)">
     <defs>
      <path id="DejaVuSans-4f" d="M 2522 4238 
Q 1834 4238 1429 3725 
Q 1025 3213 1025 2328 
Q 1025 1447 1429 934 
Q 1834 422 2522 422 
Q 3209 422 3611 934 
Q 4013 1447 4013 2328 
Q 4013 3213 3611 3725 
Q 3209 4238 2522 4238 
z
M 2522 4750 
Q 3503 4750 4090 4092 
Q 4678 3434 4678 2328 
Q 4678 1225 4090 567 
Q 3503 -91 2522 -91 
Q 1538 -91 948 565 
Q 359 1222 359 2328 
Q 359 3434 948 4092 
Q 1538 4750 2522 4750 
z
" transform="scale(0.015625)"/>
      <path id="DejaVuSans-4d" d="M 628 4666 
L 1569 4666 
L 2759 1491 
L 3956 4666 
L 4897 4666 
L 4897 0 
L 4281 0 
L 4281 4097 
L 3078 897 
L 2444 897 
L 1241 4097 
L 1241 0 
L 628 0 
L 628 4666 
z
" transform="scale(0.015625)"/>
     </defs>
     <use xlink:href="#DejaVuSans-43"/>
     <use xlink:href="#DejaVuSans-4f" x="69.824219"/>
     <use xlink:href="#DejaVuSans-4d" x="148.535156"/>
     <use xlink:href="#DejaVuSans-4f" x="234.814453"/>
     <use xlink:href="#DejaVuSans-2d" x="316.275391"/>
     <use xlink:href="#DejaVuSans-31" x="352.359375"/>
     <use xlink:href="#DejaVuSans-30" x="415.982422"/>
     <use xlink:href="#DejaVuSans-20" x="479.605469"/>
     <use xlink:href="#DejaVuSans-64" x="511.392578"/>
    </g>
   </g>
   <g id="text_15">
    <!-- best 2016 -->
    <g transform="translate(386.578944 16.615765) scale(0.14 -0.14)">
     <defs>
      <path id="DejaVuSans-62" d="M 3116 1747 
Q 3116 2381 2855 2742 
Q 2594 3103 2138 3103 
Q 1681 3103 1420 2742 
Q 1159 2381 1159 1747 
Q 1159 1113 1420 752 
Q 1681 391 2138 391 
Q 2594 391 2855 752 
Q 3116 1113 3116 1747 
z
M 1159 2969 
Q 1341 3281 1617 3432 
Q 1894 3584 2278 3584 
Q 2916 3584 3314 3078 
Q 3713 2572 3713 1747 
Q 3713 922 3314 415 
Q 2916 -91 2278 -91 
Q 1894 -91 1617 61 
Q 1341 213 1159 525 
L 1159 0 
L 581 0 
L 581 4863 
L 1159 4863 
L 1159 2969 
z
" transform="scale(0.015625)"/>
     </defs>
     <use xlink:href="#DejaVuSans-62"/>
     <use xlink:href="#DejaVuSans-65" x="63.476562"/>
     <use xlink:href="#DejaVuSans-73" x="125"/>
     <use xlink:href="#DejaVuSans-74" x="177.099609"/>
     <use xlink:href="#DejaVuSans-20" x="216.308594"/>
     <use xlink:href="#DejaVuSans-32" x="248.095703"/>
     <use xlink:href="#DejaVuSans-30" x="311.71875"/>
     <use xlink:href="#DejaVuSans-31" x="375.341797"/>
     <use xlink:href="#DejaVuSans-36" x="438.964844"/>
    </g>
   </g>
   <g id="text_16">
    <!-- bbob-biobj f5, f6, f14, f15, 3-D -->
    <g transform="translate(60.632064 17.582726) scale(0.102 -0.102)">
     <defs>
      <path id="DejaVuSans-6a" d="M 603 3500 
L 1178 3500 
L 1178 -63 
Q 1178 -731 923 -1031 
Q 669 -1331 103 -1331 
L -116 -1331 
L -116 -844 
L 38 -844 
Q 366 -844 484 -692 
Q 603 -541 603 -63 
L 603 3500 
z
M 603 4863 
L 1178 4863 
L 1178 4134 
L 603 4134 
L 603 4863 
z
" transform="scale(0.015625)"/>
      <path id="DejaVuSans-35" d="M 691 4666 
L 3169 4666 
L 3169 4134 
L 1269 4134 
L 1269 2991 
Q 1406 3038 1543 3061 
Q 1681 3084 1819 3084 
Q 2600 3084 3056 2656 
Q 3513 2228 3513 1497 
Q 3513 744 3044 326 
Q 2575 -91 1722 -91 
Q 1428 -91 1123 -41 
Q 819 9 494 109 
L 494 744 
Q 775 591 1075 516 
Q 1375 441 1709 441 
Q 2250 441 2565 725 
Q 2881 1009 2881 1497 
Q 2881 1984 2565 2268 
Q 2250 2553 1709 2553 
Q 1456 2553 1204 2497 
Q 953 2441 691 2322 
L 691 4666 
z
" transform="scale(0.015625)"/>
      <path id="DejaVuSans-33" d="M 2597 2516 
Q 3050 2419 3304 2112 
Q 3559 1806 3559 1356 
Q 3559 666 3084 287 
Q 2609 -91 1734 -91 
Q 1441 -91 1130 -33 
Q 819 25 488 141 
L 488 750 
Q 750 597 1062 519 
Q 1375 441 1716 441 
Q 2309 441 2620 675 
Q 2931 909 2931 1356 
Q 2931 1769 2642 2001 
Q 2353 2234 1838 2234 
L 1294 2234 
L 1294 2753 
L 1863 2753 
Q 2328 2753 2575 2939 
Q 2822 3125 2822 3475 
Q 2822 3834 2567 4026 
Q 2313 4219 1838 4219 
Q 1578 4219 1281 4162 
Q 984 4106 628 3988 
L 628 4550 
Q 988 4650 1302 4700 
Q 1616 4750 1894 4750 
Q 2613 4750 3031 4423 
Q 3450 4097 3450 3541 
Q 3450 3153 3228 2886 
Q 3006 2619 2597 2516 
z
" transform="scale(0.015625)"/>
      <path id="DejaVuSans-44" d="M 1259 4147 
L 1259 519 
L 2022 519 
Q 2988 519 3436 956 
Q 3884 1394 3884 2338 
Q 3884 3275 3436 3711 
Q 2988 4147 2022 4147 
L 1259 4147 
z
M 628 4666 
L 1925 4666 
Q 3281 4666 3915 4102 
Q 4550 3538 4550 2338 
Q 4550 1131 3912 565 
Q 3275 0 1925 0 
L 628 0 
L 628 4666 
z
" transform="scale(0.015625)"/>
     </defs>
     <use xlink:href="#DejaVuSans-62"/>
     <use xlink:href="#DejaVuSans-62" x="63.476562"/>
     <use xlink:href="#DejaVuSans-6f" x="126.953125"/>
     <use xlink:href="#DejaVuSans-62" x="188.134766"/>
     <use xlink:href="#DejaVuSans-2d" x="251.611328"/>
     <use xlink:href="#DejaVuSans-62" x="287.695312"/>
     <use xlink:href="#DejaVuSans-69" x="351.171875"/>
     <use xlink:href="#DejaVuSans-6f" x="378.955078"/>
     <use xlink:href="#DejaVuSans-62" x="440.136719"/>
     <use xlink:href="#DejaVuSans-6a" x="503.613281"/>
     <use xlink:href="#DejaVuSans-20" x="531.396484"/>
     <use xlink:href="#DejaVuSans-66" x="563.183594"/>
     <use xlink:href="#DejaVuSans-35" x="598.388672"/>
     <use xlink:href="#DejaVuSans-2c" x="662.011719"/>
     <use xlink:href="#DejaVuSans-20" x="693.798828"/>
     <use xlink:href="#DejaVuSans-66" x="725.585938"/>
     <use xlink:href="#DejaVuSans-36" x="760.791016"/>
     <use xlink:href="#DejaVuSans-2c" x="824.414062"/>
     <use xlink:href="#DejaVuSans-20" x="856.201172"/>
     <use xlink:href="#DejaVuSans-66" x="887.988281"/>
     <use xlink:href="#DejaVuSans-31" x="923.193359"/>
     <use xlink:href="#DejaVuSans-34" x="986.816406"/>
     <use xlink:href="#DejaVuSans-2c" x="1050.439453"/>
     <use xlink:href="#DejaVuSans-20" x="1082.226562"/>
     <use xlink:href="#DejaVuSans-66" x="1114.013672"/>
     <use xlink:href="#DejaVuSans-31" x="1149.21875"/>
     <use xlink:href="#DejaVuSans-35" x="1212.841797"/>
     <use xlink:href="#DejaVuSans-2c" x="1276.464844"/>
     <use xlink:href="#DejaVuSans-20" x="1308.251953"/>
     <use xlink:href="#DejaVuSans-33" x="1340.039062"/>
     <use xlink:href="#DejaVuSans-2d" x="1403.662109"/>
     <use xlink:href="#DejaVuSans-44" x="1439.746094"/>
    </g>
    <!-- 58 targets: 1..-1.0e-4 -->
    <g transform="translate(60.632064 29.004495) scale(0.102 -0.102)">
     <defs>
      <path id="DejaVuSans-3a" d="M 750 794 
L 1409 794 
L 1409 0 
L 750 0 
L 750 794 
z
M 750 3309 
L 1409 3309 
L 1409 2516 
L 750 2516 
L 750 3309 
z
" transform="scale(0.015625)"/>
     </defs>
     <use xlink:href="#DejaVuSans-35"/>
     <use xlink:href="#DejaVuSans-38" x="63.623047"/>
     <use xlink:href="#DejaVuSans-20" x="127.246094"/>
     <use xlink:href="#DejaVuSans-74" x="159.033203"/>
     <use xlink:href="#DejaVuSans-61" x="198.242188"/>
     <use xlink:href="#DejaVuSans-72" x="259.521484"/>
     <use xlink:href="#DejaVuSans-67" x="298.884766"/>
     <use xlink:href="#DejaVuSans-65" x="362.361328"/>
     <use xlink:href="#DejaVuSans-74" x="423.884766"/>
     <use xlink:href="#DejaVuSans-73" x="463.09375"/>
     <use xlink:href="#DejaVuSans-3a" x="515.193359"/>
     <use xlink:href="#DejaVuSans-20" x="548.884766"/>
     <use xlink:href="#DejaVuSans-31" x="580.671875"/>
     <use xlink:href="#DejaVuSans-2e" x="644.294922"/>
     <use xlink:href="#DejaVuSans-2e" x="676.082031"/>
     <use xlink:href="#DejaVuSans-2d" x="707.869141"/>
     <use xlink:href="#DejaVuSans-31" x="743.953125"/>
     <use xlink:href="#DejaVuSans-2e" x="807.576172"/>
     <use xlink:href="#DejaVuSans-30" x="839.363281"/>
     <use xlink:href="#DejaVuSans-65" x="902.986328"/>
     <use xlink:href="#DejaVuSans-2d" x="964.509766"/>
     <use xlink:href="#DejaVuSans-34" x="1000.59375"/>
    </g>
    <!-- 10 instances -->
    <g transform="translate(60.632064 40.426264) scale(0.102 -0.102)">
     <use xlink:href="#DejaVuSans-31"/>
     <use xlink:href="#DejaVuSans-30" x="63.623047"/>
     <use xlink:href="#DejaVuSans-20" x="127.246094"/>
     <use xlink:href="#DejaVuSans-69" x="159.033203"/>
     <use xlink:href="#DejaVuSans-6e" x="186.816406"/>
     <use xlink:href="#DejaVuSans-73" x="250.195312"/>
     <use xlink:href="#DejaVuSans-74" x="302.294922"/>
     <use xlink:href="#DejaVuSans-61" x="341.503906"/>
     <use xlink:href="#DejaVuSans-6e" x="402.783203"/>
     <use xlink:href="#DejaVuSans-63" x="466.162109"/>
     <use xlink:href="#DejaVuSans-65" x="521.142578"/>
     <use xlink:href="#DejaVuSans-73" x="582.666016"/>
    </g>
   </g>
   <g id="text_17">
    <!-- v2.6, hv-hash=ff0e71e8cd978373 -->
    <g style="fill: #808080" transform="translate(123.707887 293.943992) scale(0.1 -0.1)">
     <defs>
      <path id="DejaVuSans-68" d="M 3513 2113 
L 3513 0 
L 2938 0 
L 2938 2094 
Q 2938 2591 2744 2837 
Q 2550 3084 2163 3084 
Q 1697 3084 1428 2787 
Q 1159 2491 1159 1978 
L 1159 0 
L 581 0 
L 581 4863 
L 1159 4863 
L 1159 2956 
Q 1366 3272 1645 3428 
Q 1925 3584 2291 3584 
Q 2894 3584 3203 3211 
Q 3513 2838 3513 2113 
z
" transform="scale(0.015625)"/>
      <path id="DejaVuSans-3d" d="M 678 2906 
L 4684 2906 
L 4684 2381 
L 678 2381 
L 678 2906 
z
M 678 1631 
L 4684 1631 
L 4684 1100 
L 678 1100 
L 678 1631 
z
" transform="scale(0.015625)"/>
      <path id="DejaVuSans-37" d="M 525 4666 
L 3525 4666 
L 3525 4397 
L 1831 0 
L 1172 0 
L 2766 4134 
L 525 4134 
L 525 4666 
z
" transform="scale(0.015625)"/>
      <path id="DejaVuSans-39" d="M 703 97 
L 703 672 
Q 941 559 1184 500 
Q 1428 441 1663 441 
Q 2288 441 2617 861 
Q 2947 1281 2994 2138 
Q 2813 1869 2534 1725 
Q 2256 1581 1919 1581 
Q 1219 1581 811 2004 
Q 403 2428 403 3163 
Q 403 3881 828 4315 
Q 1253 4750 1959 4750 
Q 2769 4750 3195 4129 
Q 3622 3509 3622 2328 
Q 3622 1225 3098 567 
Q 2575 -91 1691 -91 
Q 1453 -91 1209 -44 
Q 966 3 703 97 
z
M 1959 2075 
Q 2384 2075 2632 2365 
Q 2881 2656 2881 3163 
Q 2881 3666 2632 3958 
Q 2384 4250 1959 4250 
Q 1534 4250 1286 3958 
Q 1038 3666 1038 3163 
Q 1038 2656 1286 2365 
Q 1534 2075 1959 2075 
z
" transform="scale(0.015625)"/>
     </defs>
     <use xlink:href="#DejaVuSans-76"/>
     <use xlink:href="#DejaVuSans-32" x="59.179688"/>
     <use xlink:href="#DejaVuSans-2e" x="122.802734"/>
     <use xlink:href="#DejaVuSans-36" x="154.589844"/>
     <use xlink:href="#DejaVuSans-2c" x="218.212891"/>
     <use xlink:href="#DejaVuSans-20" x="250"/>
     <use xlink:href="#DejaVuSans-68" x="281.787109"/>
     <use xlink:href="#DejaVuSans-76" x="345.166016"/>
     <use xlink:href="#DejaVuSans-2d" x="401.720703"/>
     <use xlink:href="#DejaVuSans-68" x="437.804688"/>
     <use xlink:href="#DejaVuSans-61" x="501.183594"/>
     <use xlink:href="#DejaVuSans-73" x="562.462891"/>
     <use xlink:href="#DejaVuSans-68" x="614.5625"/>
     <use xlink:href="#DejaVuSans-3d" x="677.941406"/>
     <use xlink:href="#DejaVuSans-66" x="761.730469"/>
     <use xlink:href="#DejaVuSans-66" x="796.935547"/>
     <use xlink:href="#DejaVuSans-30" x="832.140625"/>
     <use xlink:href="#DejaVuSans-65" x="895.763672"/>
     <use xlink:href="#DejaVuSans-37" x="957.287109"/>
     <use xlink:href="#DejaVuSans-31" x="1020.910156"/>
     <use xlink:href="#DejaVuSans-65" x="1084.533203"/>
     <use xlink:href="#DejaVuSans-38" x="1146.056641"/>
     <use xlink:href="#DejaVuSans-63" x="1209.679688"/>
     <use xlink:href="#DejaVuSans-64" x="1264.660156"/>
     <use xlink:href="#DejaVuSans-39" x="1328.136719"/>
     <use xlink:href="#DejaVuSans-37" x="1391.759766"/>
     <use xlink:href="#DejaVuSans-38" x="1455.382812"/>
     <use xlink:href="#DejaVuSans-33" x="1519.005859"/>
     <use xlink:href="#DejaVuSans-37" x="1582.628906"/>
     <use xlink:href="#DejaVuSans-33" x="1646.251953"/>
    </g>
   </g>
  </g>
 </g>
 <defs>
  <clipPath id="p2d79761a81">
   <rect x="57.6" y="6.912" width="303.2064" height="292.032"/>
  </clipPath>
 </defs>
</svg>
