<?xml version="1.0" encoding="utf-8" standalone="no"?>
<!DOCTYPE svg PUBLIC "-//W3C//DTD SVG 1.1//EN"
  "http://www.w3.org/Graphics/SVG/1.1/DTD/svg11.dtd">
<svg xmlns:xlink="http://www.w3.org/1999/xlink" width="460.8pt" height="345.6pt" viewBox="0 0 460.8 345.6" xmlns="http://www.w3.org/2000/svg" version="1.1">
 <metadata>
  <rdf:RDF xmlns:dc="http://purl.org/dc/elements/1.1/" xmlns:cc="http://creativecommons.org/ns#" xmlns:rdf="http://www.w3.org/1999/02/22-rdf-syntax-ns#">
   <cc:Work>
    <dc:type rdf:resource="http://purl.org/dc/dcmitype/StillImage"/>
    <dc:date>2023-02-10T22:28:45.156692</dc:date>
    <dc:format>image/svg+xml</dc:format>
    <dc:creator>
     <cc:Agent>
      <dc:title>Matplotlib v3.6.3, https://matplotlib.org/</dc:title>
     </cc:Agent>
    </dc:creator>
   </cc:Work>
  </rdf:RDF>
 </metadata>
 <defs>
  <style type="text/css">*{stroke-linejoin: round; stroke-linecap: butt}</style>
 </defs>
 <g id="figure_1">
  <g id="patch_1">
   <path d="M 0 345.6 
L 460.8 345.6 
L 460.8 0 
L 0 0 
z
" style="fill: #ffffff"/>
  </g>
  <g id="axes_1">
   <g id="patch_2">
    <path d="M 57.6 298.944 
L 360.8064 298.944 
L 360.8064 6.912 
L 57.6 6.912 
z
" style="fill: #ffffff"/>
   </g>
   <g id="line2d_1">
    <path d="M 57.6 298.944 
L 57.6 297.685241 
L 65.227428 297.685241 
L 65.227428 296.426483 
L 70.639174 296.426483 
L 70.639174 293.908966 
L 74.836851 293.908966 
L 74.836851 288.873931 
L 78.266603 288.873931 
L 78.266603 286.356414 
L 81.166416 286.356414 
L 81.166416 283.838897 
L 83.678349 283.838897 
L 83.678349 281.321379 
L 89.668958 281.321379 
L 89.668958 280.062621 
L 91.305777 280.062621 
L 91.305777 277.545103 
L 97.857967 277.545103 
L 97.857967 273.768828 
L 102.708132 273.768828 
L 102.708132 271.25131 
L 105.850679 271.25131 
L 105.850679 268.733793 
L 111.442442 268.733793 
L 111.442442 266.216276 
L 113.478107 266.216276 
L 113.478107 264.957517 
L 117.772007 264.957517 
L 117.772007 263.698759 
L 121.265635 263.698759 
L 121.265635 262.44 
L 126.756923 262.44 
L 126.756923 259.922483 
L 133.983236 259.922483 
L 133.983236 256.146207 
L 135.835047 256.146207 
L 135.835047 252.369931 
L 138.566146 252.369931 
L 138.566146 251.111172 
L 144.968202 251.111172 
L 145.058426 243.558621 
L 147.022411 243.558621 
L 147.022411 241.041103 
L 147.581606 241.041103 
L 147.581606 238.523586 
L 151.41369 238.523586 
L 151.41369 237.264828 
L 151.857828 237.264828 
L 151.857828 234.74731 
L 153.478964 234.74731 
L 153.478964 233.488552 
L 153.821002 233.488552 
L 153.821002 230.971034 
L 157.269574 230.971034 
L 157.269574 229.712276 
L 158.673735 229.712276 
L 158.673735 227.194759 
L 158.976805 227.194759 
L 158.976805 224.677241 
L 160.816532 224.677241 
L 160.816532 222.159724 
L 162.845206 222.159724 
L 162.845206 219.642207 
L 163.260183 219.642207 
L 163.260183 217.12469 
L 165.604634 217.12469 
L 165.604634 213.348414 
L 166.972821 213.348414 
L 166.972821 209.572138 
L 167.196106 209.572138 
L 167.196106 205.795862 
L 168.248209 205.795862 
L 168.248209 204.537103 
L 169.491772 204.537103 
L 169.491772 202.019586 
L 169.808349 202.019586 
L 169.808349 199.502069 
L 170.28522 199.502069 
L 170.28522 196.984552 
L 173.718895 196.984552 
L 173.718895 193.208276 
L 174.562776 193.208276 
L 174.562776 190.690759 
L 176.350592 190.690759 
L 176.350592 188.173241 
L 176.822169 188.173241 
L 176.822169 185.655724 
L 178.262532 185.655724 
L 178.262532 184.396966 
L 179.955757 184.396966 
L 179.955757 181.879448 
L 182.702072 181.879448 
L 182.702072 179.361931 
L 183.995068 179.361931 
L 183.995068 176.844414 
L 186.058675 176.844414 
L 186.058675 173.068138 
L 187.04037 173.068138 
L 187.04037 171.809379 
L 187.908895 171.809379 
L 187.908895 169.291862 
L 188.827153 169.291862 
L 188.827153 168.033103 
L 189.702666 168.033103 
L 189.702666 166.774345 
L 192.618048 166.774345 
L 192.618048 162.998069 
L 194.029057 162.998069 
L 194.029057 159.221793 
L 194.313435 159.221793 
L 194.313435 157.963034 
L 195.298022 157.963034 
L 195.298022 154.186759 
L 196.381218 154.186759 
L 196.381218 152.928 
L 198.995779 152.928 
L 198.995779 149.151724 
L 201.716363 149.151724 
L 201.716363 147.892966 
L 202.049941 147.892966 
L 202.049941 144.11669 
L 203.405143 144.11669 
L 203.405143 141.599172 
L 204.255953 141.599172 
L 204.255953 140.340414 
L 208.433499 140.340414 
L 208.433499 139.081655 
L 213.517835 139.081655 
L 213.517835 135.305379 
L 215.232137 135.305379 
L 215.232137 131.529103 
L 216.004034 131.529103 
L 216.004034 127.752828 
L 217.453095 127.752828 
L 217.453095 126.494069 
L 224.999778 126.494069 
L 224.999778 125.23531 
L 225.656091 125.23531 
L 225.656091 121.459034 
L 229.591469 121.459034 
L 229.618617 116.424 
L 230.130069 116.424 
L 230.130069 113.906483 
L 231.591366 113.906483 
L 231.591366 112.647724 
L 231.782202 112.647724 
L 231.782202 111.388966 
L 233.014511 111.388966 
L 233.014511 107.61269 
L 233.551181 107.61269 
L 233.551181 103.836414 
L 235.591132 103.836414 
L 235.591132 102.577655 
L 235.779631 102.577655 
L 235.779631 98.801379 
L 236.291114 98.801379 
L 236.291114 97.542621 
L 237.811527 97.542621 
L 237.811527 95.025103 
L 238.206463 95.025103 
L 238.206463 91.248828 
L 238.461246 91.248828 
L 238.461246 88.73131 
L 239.229648 88.73131 
L 239.229648 84.955034 
L 241.633669 84.955034 
L 241.633669 82.437517 
L 241.968598 82.437517 
L 241.968598 79.92 
L 242.181576 79.92 
L 242.181576 77.402483 
L 242.693929 77.402483 
L 242.693929 76.143724 
L 246.11691 76.143724 
L 246.11691 73.626207 
L 247.046211 73.626207 
L 247.046211 72.367448 
L 247.435634 72.367448 
L 247.435634 69.849931 
L 247.73334 69.849931 
L 247.73334 67.332414 
L 250.80319 67.332414 
L 250.80319 66.073655 
L 252.634767 66.073655 
L 252.634767 63.556138 
L 253.433717 63.556138 
L 253.433717 59.779862 
L 256.504799 59.779862 
L 256.504799 57.262345 
L 257.977735 57.262345 
L 257.977735 53.486069 
L 261.411528 53.486069 
L 261.411528 52.22731 
L 265.304681 52.22731 
L 265.304681 49.709793 
L 266.766785 49.709793 
L 266.766785 45.933517 
L 270.032798 45.933517 
L 270.032798 42.157241 
L 360.8064 42.157241 
L 360.8064 42.157241 
" style="fill: none; stroke: #f5deb3; stroke-width: 4; stroke-linecap: square"/>
   </g>
   <g id="line2d_2">
    <defs>
     <path id="m815511f422" d="M -0 7.778175 
L 7.778175 0 
L 0 -7.778175 
L -7.778175 -0 
z
" style="stroke: #f5deb3; stroke-width: 1.5; stroke-linejoin: miter"/>
    </defs>
    <g>
     <use xlink:href="#m815511f422" x="126.756923" y="262.44" style="fill: #f5deb3; stroke: #f5deb3; stroke-width: 1.5; stroke-linejoin: miter"/>
     <use xlink:href="#m815511f422" x="204.255953" y="141.599172" style="fill: #f5deb3; stroke: #f5deb3; stroke-width: 1.5; stroke-linejoin: miter"/>
     <use xlink:href="#m815511f422" x="261.411528" y="52.22731" style="fill: #f5deb3; stroke: #f5deb3; stroke-width: 1.5; stroke-linejoin: miter"/>
     <use xlink:href="#m815511f422" x="270.032798" y="42.157241" style="fill: #f5deb3; stroke: #f5deb3; stroke-width: 1.5; stroke-linejoin: miter"/>
     <use xlink:href="#m815511f422" x="360.8064" y="42.157241" style="fill: #f5deb3; stroke: #f5deb3; stroke-width: 1.5; stroke-linejoin: miter"/>
    </g>
   </g>
   <g id="line2d_3">
    <path style="fill: none; stroke: #f5deb3; stroke-width: 4; stroke-linecap: square"/>
    <g/>
   </g>
   <g id="line2d_4">
    <path d="M 360.8064 42.157241 
L 380.514816 12.75264 
" style="fill: none; stroke: #f5deb3; stroke-width: 4; stroke-linecap: square"/>
    <g>
     <use xlink:href="#m815511f422" x="360.8064" y="42.157241" style="fill: #f5deb3; stroke: #f5deb3; stroke-width: 1.5; stroke-linejoin: miter"/>
     <use xlink:href="#m815511f422" x="380.514816" y="12.75264" style="fill: #f5deb3; stroke: #f5deb3; stroke-width: 1.5; stroke-linejoin: miter"/>
    </g>
   </g>
   <g id="matplotlib.axis_1">
    <g id="xtick_1">
     <g id="line2d_5">
      <path d="M 57.6 298.944 
L 57.6 6.912 
" clip-path="url(#p90b4cfb1ea)" style="fill: none; stroke: #b0b0b0; stroke-width: 0.8; stroke-linecap: square"/>
     </g>
     <g id="line2d_6">
      <defs>
       <path id="m05bc3fae03" d="M 0 0 
L 0 3.5 
" style="stroke: #000000; stroke-width: 0.8"/>
      </defs>
      <g>
       <use xlink:href="#m05bc3fae03" x="57.6" y="298.944" style="stroke: #000000; stroke-width: 0.8"/>
      </g>
     </g>
     <g id="text_1">
      <!-- 0 -->
      <g transform="translate(52.191875 318.861344) scale(0.17 -0.17)">
       <defs>
        <path id="DejaVuSans-30" d="M 2034 4250 
Q 1547 4250 1301 3770 
Q 1056 3291 1056 2328 
Q 1056 1369 1301 889 
Q 1547 409 2034 409 
Q 2525 409 2770 889 
Q 3016 1369 3016 2328 
Q 3016 3291 2770 3770 
Q 2525 4250 2034 4250 
z
M 2034 4750 
Q 2819 4750 3233 4129 
Q 3647 3509 3647 2328 
Q 3647 1150 3233 529 
Q 2819 -91 2034 -91 
Q 1250 -91 836 529 
Q 422 1150 422 2328 
Q 422 3509 836 4129 
Q 1250 4750 2034 4750 
z
" transform="scale(0.015625)"/>
       </defs>
       <use xlink:href="#DejaVuSans-30"/>
      </g>
     </g>
    </g>
    <g id="xtick_2">
     <g id="line2d_7">
      <path d="M 144.2304 298.944 
L 144.2304 6.912 
" clip-path="url(#p90b4cfb1ea)" style="fill: none; stroke: #b0b0b0; stroke-width: 0.8; stroke-linecap: square"/>
     </g>
     <g id="line2d_8">
      <g>
       <use xlink:href="#m05bc3fae03" x="144.2304" y="298.944" style="stroke: #000000; stroke-width: 0.8"/>
      </g>
     </g>
     <g id="text_2">
      <!-- 2 -->
      <g transform="translate(138.822275 318.861344) scale(0.17 -0.17)">
       <defs>
        <path id="DejaVuSans-32" d="M 1228 531 
L 3431 531 
L 3431 0 
L 469 0 
L 469 531 
Q 828 903 1448 1529 
Q 2069 2156 2228 2338 
Q 2531 2678 2651 2914 
Q 2772 3150 2772 3378 
Q 2772 3750 2511 3984 
Q 2250 4219 1831 4219 
Q 1534 4219 1204 4116 
Q 875 4013 500 3803 
L 500 4441 
Q 881 4594 1212 4672 
Q 1544 4750 1819 4750 
Q 2544 4750 2975 4387 
Q 3406 4025 3406 3419 
Q 3406 3131 3298 2873 
Q 3191 2616 2906 2266 
Q 2828 2175 2409 1742 
Q 1991 1309 1228 531 
z
" transform="scale(0.015625)"/>
       </defs>
       <use xlink:href="#DejaVuSans-32"/>
      </g>
     </g>
    </g>
    <g id="xtick_3">
     <g id="line2d_9">
      <path d="M 230.8608 298.944 
L 230.8608 6.912 
" clip-path="url(#p90b4cfb1ea)" style="fill: none; stroke: #b0b0b0; stroke-width: 0.8; stroke-linecap: square"/>
     </g>
     <g id="line2d_10">
      <g>
       <use xlink:href="#m05bc3fae03" x="230.8608" y="298.944" style="stroke: #000000; stroke-width: 0.8"/>
      </g>
     </g>
     <g id="text_3">
      <!-- 4 -->
      <g transform="translate(225.452675 318.861344) scale(0.17 -0.17)">
       <defs>
        <path id="DejaVuSans-34" d="M 2419 4116 
L 825 1625 
L 2419 1625 
L 2419 4116 
z
M 2253 4666 
L 3047 4666 
L 3047 1625 
L 3713 1625 
L 3713 1100 
L 3047 1100 
L 3047 0 
L 2419 0 
L 2419 1100 
L 313 1100 
L 313 1709 
L 2253 4666 
z
" transform="scale(0.015625)"/>
       </defs>
       <use xlink:href="#DejaVuSans-34"/>
      </g>
     </g>
    </g>
    <g id="xtick_4">
     <g id="line2d_11">
      <path d="M 317.4912 298.944 
L 317.4912 6.912 
" clip-path="url(#p90b4cfb1ea)" style="fill: none; stroke: #b0b0b0; stroke-width: 0.8; stroke-linecap: square"/>
     </g>
     <g id="line2d_12">
      <g>
       <use xlink:href="#m05bc3fae03" x="317.4912" y="298.944" style="stroke: #000000; stroke-width: 0.8"/>
      </g>
     </g>
     <g id="text_4">
      <!-- 6 -->
      <g transform="translate(312.083075 318.861344) scale(0.17 -0.17)">
       <defs>
        <path id="DejaVuSans-36" d="M 2113 2584 
Q 1688 2584 1439 2293 
Q 1191 2003 1191 1497 
Q 1191 994 1439 701 
Q 1688 409 2113 409 
Q 2538 409 2786 701 
Q 3034 994 3034 1497 
Q 3034 2003 2786 2293 
Q 2538 2584 2113 2584 
z
M 3366 4563 
L 3366 3988 
Q 3128 4100 2886 4159 
Q 2644 4219 2406 4219 
Q 1781 4219 1451 3797 
Q 1122 3375 1075 2522 
Q 1259 2794 1537 2939 
Q 1816 3084 2150 3084 
Q 2853 3084 3261 2657 
Q 3669 2231 3669 1497 
Q 3669 778 3244 343 
Q 2819 -91 2113 -91 
Q 1303 -91 875 529 
Q 447 1150 447 2328 
Q 447 3434 972 4092 
Q 1497 4750 2381 4750 
Q 2619 4750 2861 4703 
Q 3103 4656 3366 4563 
z
" transform="scale(0.015625)"/>
       </defs>
       <use xlink:href="#DejaVuSans-36"/>
      </g>
     </g>
    </g>
    <g id="xtick_5">
     <g id="line2d_13">
      <path d="M 100.9152 298.944 
L 100.9152 6.912 
" clip-path="url(#p90b4cfb1ea)" style="fill: none; stroke: #b0b0b0; stroke-width: 0.8; stroke-linecap: square"/>
     </g>
     <g id="line2d_14">
      <defs>
       <path id="mcb79869144" d="M 0 0 
L 0 2 
" style="stroke: #000000; stroke-width: 0.6"/>
      </defs>
      <g>
       <use xlink:href="#mcb79869144" x="100.9152" y="298.944" style="stroke: #000000; stroke-width: 0.6"/>
      </g>
     </g>
    </g>
    <g id="xtick_6">
     <g id="line2d_15">
      <path d="M 187.5456 298.944 
L 187.5456 6.912 
" clip-path="url(#p90b4cfb1ea)" style="fill: none; stroke: #b0b0b0; stroke-width: 0.8; stroke-linecap: square"/>
     </g>
     <g id="line2d_16">
      <g>
       <use xlink:href="#mcb79869144" x="187.5456" y="298.944" style="stroke: #000000; stroke-width: 0.6"/>
      </g>
     </g>
    </g>
    <g id="xtick_7">
     <g id="line2d_17">
      <path d="M 274.176 298.944 
L 274.176 6.912 
" clip-path="url(#p90b4cfb1ea)" style="fill: none; stroke: #b0b0b0; stroke-width: 0.8; stroke-linecap: square"/>
     </g>
     <g id="line2d_18">
      <g>
       <use xlink:href="#mcb79869144" x="274.176" y="298.944" style="stroke: #000000; stroke-width: 0.6"/>
      </g>
     </g>
    </g>
    <g id="xtick_8">
     <g id="line2d_19">
      <path d="M 360.8064 298.944 
L 360.8064 6.912 
" clip-path="url(#p90b4cfb1ea)" style="fill: none; stroke: #b0b0b0; stroke-width: 0.8; stroke-linecap: square"/>
     </g>
     <g id="line2d_20">
      <g>
       <use xlink:href="#mcb79869144" x="360.8064" y="298.944" style="stroke: #000000; stroke-width: 0.6"/>
      </g>
     </g>
    </g>
    <g id="text_5">
     <!-- log10(# f-evals / dimension) -->
     <g transform="translate(88.823278 339.314156) scale(0.17 -0.17)">
      <defs>
       <path id="DejaVuSans-6c" d="M 603 4863 
L 1178 4863 
L 1178 0 
L 603 0 
L 603 4863 
z
" transform="scale(0.015625)"/>
       <path id="DejaVuSans-6f" d="M 1959 3097 
Q 1497 3097 1228 2736 
Q 959 2375 959 1747 
Q 959 1119 1226 758 
Q 1494 397 1959 397 
Q 2419 397 2687 759 
Q 2956 1122 2956 1747 
Q 2956 2369 2687 2733 
Q 2419 3097 1959 3097 
z
M 1959 3584 
Q 2709 3584 3137 3096 
Q 3566 2609 3566 1747 
Q 3566 888 3137 398 
Q 2709 -91 1959 -91 
Q 1206 -91 779 398 
Q 353 888 353 1747 
Q 353 2609 779 3096 
Q 1206 3584 1959 3584 
z
" transform="scale(0.015625)"/>
       <path id="DejaVuSans-67" d="M 2906 1791 
Q 2906 2416 2648 2759 
Q 2391 3103 1925 3103 
Q 1463 3103 1205 2759 
Q 947 2416 947 1791 
Q 947 1169 1205 825 
Q 1463 481 1925 481 
Q 2391 481 2648 825 
Q 2906 1169 2906 1791 
z
M 3481 434 
Q 3481 -459 3084 -895 
Q 2688 -1331 1869 -1331 
Q 1566 -1331 1297 -1286 
Q 1028 -1241 775 -1147 
L 775 -588 
Q 1028 -725 1275 -790 
Q 1522 -856 1778 -856 
Q 2344 -856 2625 -561 
Q 2906 -266 2906 331 
L 2906 616 
Q 2728 306 2450 153 
Q 2172 0 1784 0 
Q 1141 0 747 490 
Q 353 981 353 1791 
Q 353 2603 747 3093 
Q 1141 3584 1784 3584 
Q 2172 3584 2450 3431 
Q 2728 3278 2906 2969 
L 2906 3500 
L 3481 3500 
L 3481 434 
z
" transform="scale(0.015625)"/>
       <path id="DejaVuSans-31" d="M 794 531 
L 1825 531 
L 1825 4091 
L 703 3866 
L 703 4441 
L 1819 4666 
L 2450 4666 
L 2450 531 
L 3481 531 
L 3481 0 
L 794 0 
L 794 531 
z
" transform="scale(0.015625)"/>
       <path id="DejaVuSans-28" d="M 1984 4856 
Q 1566 4138 1362 3434 
Q 1159 2731 1159 2009 
Q 1159 1288 1364 580 
Q 1569 -128 1984 -844 
L 1484 -844 
Q 1016 -109 783 600 
Q 550 1309 550 2009 
Q 550 2706 781 3412 
Q 1013 4119 1484 4856 
L 1984 4856 
z
" transform="scale(0.015625)"/>
       <path id="DejaVuSans-23" d="M 3272 2816 
L 2363 2816 
L 2100 1772 
L 3016 1772 
L 3272 2816 
z
M 2803 4594 
L 2478 3297 
L 3391 3297 
L 3719 4594 
L 4219 4594 
L 3897 3297 
L 4872 3297 
L 4872 2816 
L 3775 2816 
L 3519 1772 
L 4513 1772 
L 4513 1294 
L 3397 1294 
L 3072 0 
L 2572 0 
L 2894 1294 
L 1978 1294 
L 1656 0 
L 1153 0 
L 1478 1294 
L 494 1294 
L 494 1772 
L 1594 1772 
L 1856 2816 
L 850 2816 
L 850 3297 
L 1978 3297 
L 2297 4594 
L 2803 4594 
z
" transform="scale(0.015625)"/>
       <path id="DejaVuSans-20" transform="scale(0.015625)"/>
       <path id="DejaVuSans-66" d="M 2375 4863 
L 2375 4384 
L 1825 4384 
Q 1516 4384 1395 4259 
Q 1275 4134 1275 3809 
L 1275 3500 
L 2222 3500 
L 2222 3053 
L 1275 3053 
L 1275 0 
L 697 0 
L 697 3053 
L 147 3053 
L 147 3500 
L 697 3500 
L 697 3744 
Q 697 4328 969 4595 
Q 1241 4863 1831 4863 
L 2375 4863 
z
" transform="scale(0.015625)"/>
       <path id="DejaVuSans-2d" d="M 313 2009 
L 1997 2009 
L 1997 1497 
L 313 1497 
L 313 2009 
z
" transform="scale(0.015625)"/>
       <path id="DejaVuSans-65" d="M 3597 1894 
L 3597 1613 
L 953 1613 
Q 991 1019 1311 708 
Q 1631 397 2203 397 
Q 2534 397 2845 478 
Q 3156 559 3463 722 
L 3463 178 
Q 3153 47 2828 -22 
Q 2503 -91 2169 -91 
Q 1331 -91 842 396 
Q 353 884 353 1716 
Q 353 2575 817 3079 
Q 1281 3584 2069 3584 
Q 2775 3584 3186 3129 
Q 3597 2675 3597 1894 
z
M 3022 2063 
Q 3016 2534 2758 2815 
Q 2500 3097 2075 3097 
Q 1594 3097 1305 2825 
Q 1016 2553 972 2059 
L 3022 2063 
z
" transform="scale(0.015625)"/>
       <path id="DejaVuSans-76" d="M 191 3500 
L 800 3500 
L 1894 563 
L 2988 3500 
L 3597 3500 
L 2284 0 
L 1503 0 
L 191 3500 
z
" transform="scale(0.015625)"/>
       <path id="DejaVuSans-61" d="M 2194 1759 
Q 1497 1759 1228 1600 
Q 959 1441 959 1056 
Q 959 750 1161 570 
Q 1363 391 1709 391 
Q 2188 391 2477 730 
Q 2766 1069 2766 1631 
L 2766 1759 
L 2194 1759 
z
M 3341 1997 
L 3341 0 
L 2766 0 
L 2766 531 
Q 2569 213 2275 61 
Q 1981 -91 1556 -91 
Q 1019 -91 701 211 
Q 384 513 384 1019 
Q 384 1609 779 1909 
Q 1175 2209 1959 2209 
L 2766 2209 
L 2766 2266 
Q 2766 2663 2505 2880 
Q 2244 3097 1772 3097 
Q 1472 3097 1187 3025 
Q 903 2953 641 2809 
L 641 3341 
Q 956 3463 1253 3523 
Q 1550 3584 1831 3584 
Q 2591 3584 2966 3190 
Q 3341 2797 3341 1997 
z
" transform="scale(0.015625)"/>
       <path id="DejaVuSans-73" d="M 2834 3397 
L 2834 2853 
Q 2591 2978 2328 3040 
Q 2066 3103 1784 3103 
Q 1356 3103 1142 2972 
Q 928 2841 928 2578 
Q 928 2378 1081 2264 
Q 1234 2150 1697 2047 
L 1894 2003 
Q 2506 1872 2764 1633 
Q 3022 1394 3022 966 
Q 3022 478 2636 193 
Q 2250 -91 1575 -91 
Q 1294 -91 989 -36 
Q 684 19 347 128 
L 347 722 
Q 666 556 975 473 
Q 1284 391 1588 391 
Q 1994 391 2212 530 
Q 2431 669 2431 922 
Q 2431 1156 2273 1281 
Q 2116 1406 1581 1522 
L 1381 1569 
Q 847 1681 609 1914 
Q 372 2147 372 2553 
Q 372 3047 722 3315 
Q 1072 3584 1716 3584 
Q 2034 3584 2315 3537 
Q 2597 3491 2834 3397 
z
" transform="scale(0.015625)"/>
       <path id="DejaVuSans-2f" d="M 1625 4666 
L 2156 4666 
L 531 -594 
L 0 -594 
L 1625 4666 
z
" transform="scale(0.015625)"/>
       <path id="DejaVuSans-64" d="M 2906 2969 
L 2906 4863 
L 3481 4863 
L 3481 0 
L 2906 0 
L 2906 525 
Q 2725 213 2448 61 
Q 2172 -91 1784 -91 
Q 1150 -91 751 415 
Q 353 922 353 1747 
Q 353 2572 751 3078 
Q 1150 3584 1784 3584 
Q 2172 3584 2448 3432 
Q 2725 3281 2906 2969 
z
M 947 1747 
Q 947 1113 1208 752 
Q 1469 391 1925 391 
Q 2381 391 2643 752 
Q 2906 1113 2906 1747 
Q 2906 2381 2643 2742 
Q 2381 3103 1925 3103 
Q 1469 3103 1208 2742 
Q 947 2381 947 1747 
z
" transform="scale(0.015625)"/>
       <path id="DejaVuSans-69" d="M 603 3500 
L 1178 3500 
L 1178 0 
L 603 0 
L 603 3500 
z
M 603 4863 
L 1178 4863 
L 1178 4134 
L 603 4134 
L 603 4863 
z
" transform="scale(0.015625)"/>
       <path id="DejaVuSans-6d" d="M 3328 2828 
Q 3544 3216 3844 3400 
Q 4144 3584 4550 3584 
Q 5097 3584 5394 3201 
Q 5691 2819 5691 2113 
L 5691 0 
L 5113 0 
L 5113 2094 
Q 5113 2597 4934 2840 
Q 4756 3084 4391 3084 
Q 3944 3084 3684 2787 
Q 3425 2491 3425 1978 
L 3425 0 
L 2847 0 
L 2847 2094 
Q 2847 2600 2669 2842 
Q 2491 3084 2119 3084 
Q 1678 3084 1418 2786 
Q 1159 2488 1159 1978 
L 1159 0 
L 581 0 
L 581 3500 
L 1159 3500 
L 1159 2956 
Q 1356 3278 1631 3431 
Q 1906 3584 2284 3584 
Q 2666 3584 2933 3390 
Q 3200 3197 3328 2828 
z
" transform="scale(0.015625)"/>
       <path id="DejaVuSans-6e" d="M 3513 2113 
L 3513 0 
L 2938 0 
L 2938 2094 
Q 2938 2591 2744 2837 
Q 2550 3084 2163 3084 
Q 1697 3084 1428 2787 
Q 1159 2491 1159 1978 
L 1159 0 
L 581 0 
L 581 3500 
L 1159 3500 
L 1159 2956 
Q 1366 3272 1645 3428 
Q 1925 3584 2291 3584 
Q 2894 3584 3203 3211 
Q 3513 2838 3513 2113 
z
" transform="scale(0.015625)"/>
       <path id="DejaVuSans-29" d="M 513 4856 
L 1013 4856 
Q 1481 4119 1714 3412 
Q 1947 2706 1947 2009 
Q 1947 1309 1714 600 
Q 1481 -109 1013 -844 
L 513 -844 
Q 928 -128 1133 580 
Q 1338 1288 1338 2009 
Q 1338 2731 1133 3434 
Q 928 4138 513 4856 
z
" transform="scale(0.015625)"/>
      </defs>
      <use xlink:href="#DejaVuSans-6c"/>
      <use xlink:href="#DejaVuSans-6f" x="27.783203"/>
      <use xlink:href="#DejaVuSans-67" x="88.964844"/>
      <use xlink:href="#DejaVuSans-31" x="152.441406"/>
      <use xlink:href="#DejaVuSans-30" x="216.064453"/>
      <use xlink:href="#DejaVuSans-28" x="279.6875"/>
      <use xlink:href="#DejaVuSans-23" x="318.701172"/>
      <use xlink:href="#DejaVuSans-20" x="402.490234"/>
      <use xlink:href="#DejaVuSans-66" x="434.277344"/>
      <use xlink:href="#DejaVuSans-2d" x="463.982422"/>
      <use xlink:href="#DejaVuSans-65" x="500.066406"/>
      <use xlink:href="#DejaVuSans-76" x="561.589844"/>
      <use xlink:href="#DejaVuSans-61" x="620.769531"/>
      <use xlink:href="#DejaVuSans-6c" x="682.048828"/>
      <use xlink:href="#DejaVuSans-73" x="709.832031"/>
      <use xlink:href="#DejaVuSans-20" x="761.931641"/>
      <use xlink:href="#DejaVuSans-2f" x="793.71875"/>
      <use xlink:href="#DejaVuSans-20" x="827.410156"/>
      <use xlink:href="#DejaVuSans-64" x="859.197266"/>
      <use xlink:href="#DejaVuSans-69" x="922.673828"/>
      <use xlink:href="#DejaVuSans-6d" x="950.457031"/>
      <use xlink:href="#DejaVuSans-65" x="1047.869141"/>
      <use xlink:href="#DejaVuSans-6e" x="1109.392578"/>
      <use xlink:href="#DejaVuSans-73" x="1172.771484"/>
      <use xlink:href="#DejaVuSans-69" x="1224.871094"/>
      <use xlink:href="#DejaVuSans-6f" x="1252.654297"/>
      <use xlink:href="#DejaVuSans-6e" x="1313.835938"/>
      <use xlink:href="#DejaVuSans-29" x="1377.214844"/>
     </g>
    </g>
   </g>
   <g id="matplotlib.axis_2">
    <g id="ytick_1">
     <g id="line2d_21">
      <path d="M 57.6 298.944 
L 360.8064 298.944 
" clip-path="url(#p90b4cfb1ea)" style="fill: none; stroke: #b0b0b0; stroke-width: 0.8; stroke-linecap: square"/>
     </g>
     <g id="line2d_22">
      <defs>
       <path id="m9730a18dfb" d="M 0 0 
L -3.5 0 
" style="stroke: #000000; stroke-width: 0.8"/>
      </defs>
      <g>
       <use xlink:href="#m9730a18dfb" x="57.6" y="298.944" style="stroke: #000000; stroke-width: 0.8"/>
      </g>
     </g>
     <g id="text_6">
      <!-- 0.0 -->
      <g transform="translate(25.155 305.02275) scale(0.16 -0.16)">
       <defs>
        <path id="DejaVuSans-2e" d="M 684 794 
L 1344 794 
L 1344 0 
L 684 0 
L 684 794 
z
" transform="scale(0.015625)"/>
       </defs>
       <use xlink:href="#DejaVuSans-30"/>
       <use xlink:href="#DejaVuSans-2e" x="63.623047"/>
       <use xlink:href="#DejaVuSans-30" x="95.410156"/>
      </g>
     </g>
    </g>
    <g id="ytick_2">
     <g id="line2d_23">
      <path d="M 57.6 240.5376 
L 360.8064 240.5376 
" clip-path="url(#p90b4cfb1ea)" style="fill: none; stroke: #b0b0b0; stroke-width: 0.8; stroke-linecap: square"/>
     </g>
     <g id="line2d_24">
      <g>
       <use xlink:href="#m9730a18dfb" x="57.6" y="240.5376" style="stroke: #000000; stroke-width: 0.8"/>
      </g>
     </g>
     <g id="text_7">
      <!-- 0.2 -->
      <g transform="translate(25.155 246.61635) scale(0.16 -0.16)">
       <use xlink:href="#DejaVuSans-30"/>
       <use xlink:href="#DejaVuSans-2e" x="63.623047"/>
       <use xlink:href="#DejaVuSans-32" x="95.410156"/>
      </g>
     </g>
    </g>
    <g id="ytick_3">
     <g id="line2d_25">
      <path d="M 57.6 182.1312 
L 360.8064 182.1312 
" clip-path="url(#p90b4cfb1ea)" style="fill: none; stroke: #b0b0b0; stroke-width: 0.8; stroke-linecap: square"/>
     </g>
     <g id="line2d_26">
      <g>
       <use xlink:href="#m9730a18dfb" x="57.6" y="182.1312" style="stroke: #000000; stroke-width: 0.8"/>
      </g>
     </g>
     <g id="text_8">
      <!-- 0.4 -->
      <g transform="translate(25.155 188.20995) scale(0.16 -0.16)">
       <use xlink:href="#DejaVuSans-30"/>
       <use xlink:href="#DejaVuSans-2e" x="63.623047"/>
       <use xlink:href="#DejaVuSans-34" x="95.410156"/>
      </g>
     </g>
    </g>
    <g id="ytick_4">
     <g id="line2d_27">
      <path d="M 57.6 123.7248 
L 360.8064 123.7248 
" clip-path="url(#p90b4cfb1ea)" style="fill: none; stroke: #b0b0b0; stroke-width: 0.8; stroke-linecap: square"/>
     </g>
     <g id="line2d_28">
      <g>
       <use xlink:href="#m9730a18dfb" x="57.6" y="123.7248" style="stroke: #000000; stroke-width: 0.8"/>
      </g>
     </g>
     <g id="text_9">
      <!-- 0.6 -->
      <g transform="translate(25.155 129.80355) scale(0.16 -0.16)">
       <use xlink:href="#DejaVuSans-30"/>
       <use xlink:href="#DejaVuSans-2e" x="63.623047"/>
       <use xlink:href="#DejaVuSans-36" x="95.410156"/>
      </g>
     </g>
    </g>
    <g id="ytick_5">
     <g id="line2d_29">
      <path d="M 57.6 65.3184 
L 360.8064 65.3184 
" clip-path="url(#p90b4cfb1ea)" style="fill: none; stroke: #b0b0b0; stroke-width: 0.8; stroke-linecap: square"/>
     </g>
     <g id="line2d_30">
      <g>
       <use xlink:href="#m9730a18dfb" x="57.6" y="65.3184" style="stroke: #000000; stroke-width: 0.8"/>
      </g>
     </g>
     <g id="text_10">
      <!-- 0.8 -->
      <g transform="translate(25.155 71.39715) scale(0.16 -0.16)">
       <defs>
        <path id="DejaVuSans-38" d="M 2034 2216 
Q 1584 2216 1326 1975 
Q 1069 1734 1069 1313 
Q 1069 891 1326 650 
Q 1584 409 2034 409 
Q 2484 409 2743 651 
Q 3003 894 3003 1313 
Q 3003 1734 2745 1975 
Q 2488 2216 2034 2216 
z
M 1403 2484 
Q 997 2584 770 2862 
Q 544 3141 544 3541 
Q 544 4100 942 4425 
Q 1341 4750 2034 4750 
Q 2731 4750 3128 4425 
Q 3525 4100 3525 3541 
Q 3525 3141 3298 2862 
Q 3072 2584 2669 2484 
Q 3125 2378 3379 2068 
Q 3634 1759 3634 1313 
Q 3634 634 3220 271 
Q 2806 -91 2034 -91 
Q 1263 -91 848 271 
Q 434 634 434 1313 
Q 434 1759 690 2068 
Q 947 2378 1403 2484 
z
M 1172 3481 
Q 1172 3119 1398 2916 
Q 1625 2713 2034 2713 
Q 2441 2713 2670 2916 
Q 2900 3119 2900 3481 
Q 2900 3844 2670 4047 
Q 2441 4250 2034 4250 
Q 1625 4250 1398 4047 
Q 1172 3844 1172 3481 
z
" transform="scale(0.015625)"/>
       </defs>
       <use xlink:href="#DejaVuSans-30"/>
       <use xlink:href="#DejaVuSans-2e" x="63.623047"/>
       <use xlink:href="#DejaVuSans-38" x="95.410156"/>
      </g>
     </g>
    </g>
    <g id="ytick_6">
     <g id="line2d_31">
      <path d="M 57.6 6.912 
L 360.8064 6.912 
" clip-path="url(#p90b4cfb1ea)" style="fill: none; stroke: #b0b0b0; stroke-width: 0.8; stroke-linecap: square"/>
     </g>
     <g id="line2d_32">
      <g>
       <use xlink:href="#m9730a18dfb" x="57.6" y="6.912" style="stroke: #000000; stroke-width: 0.8"/>
      </g>
     </g>
     <g id="text_11">
      <!-- 1.0 -->
      <g transform="translate(25.155 12.99075) scale(0.16 -0.16)">
       <use xlink:href="#DejaVuSans-31"/>
       <use xlink:href="#DejaVuSans-2e" x="63.623047"/>
       <use xlink:href="#DejaVuSans-30" x="95.410156"/>
      </g>
     </g>
    </g>
    <g id="text_12">
     <!-- Fraction of function,target pairs -->
     <g transform="translate(17.619531 287.313) rotate(-90) scale(0.17 -0.17)">
      <defs>
       <path id="DejaVuSans-46" d="M 628 4666 
L 3309 4666 
L 3309 4134 
L 1259 4134 
L 1259 2759 
L 3109 2759 
L 3109 2228 
L 1259 2228 
L 1259 0 
L 628 0 
L 628 4666 
z
" transform="scale(0.015625)"/>
       <path id="DejaVuSans-72" d="M 2631 2963 
Q 2534 3019 2420 3045 
Q 2306 3072 2169 3072 
Q 1681 3072 1420 2755 
Q 1159 2438 1159 1844 
L 1159 0 
L 581 0 
L 581 3500 
L 1159 3500 
L 1159 2956 
Q 1341 3275 1631 3429 
Q 1922 3584 2338 3584 
Q 2397 3584 2469 3576 
Q 2541 3569 2628 3553 
L 2631 2963 
z
" transform="scale(0.015625)"/>
       <path id="DejaVuSans-63" d="M 3122 3366 
L 3122 2828 
Q 2878 2963 2633 3030 
Q 2388 3097 2138 3097 
Q 1578 3097 1268 2742 
Q 959 2388 959 1747 
Q 959 1106 1268 751 
Q 1578 397 2138 397 
Q 2388 397 2633 464 
Q 2878 531 3122 666 
L 3122 134 
Q 2881 22 2623 -34 
Q 2366 -91 2075 -91 
Q 1284 -91 818 406 
Q 353 903 353 1747 
Q 353 2603 823 3093 
Q 1294 3584 2113 3584 
Q 2378 3584 2631 3529 
Q 2884 3475 3122 3366 
z
" transform="scale(0.015625)"/>
       <path id="DejaVuSans-74" d="M 1172 4494 
L 1172 3500 
L 2356 3500 
L 2356 3053 
L 1172 3053 
L 1172 1153 
Q 1172 725 1289 603 
Q 1406 481 1766 481 
L 2356 481 
L 2356 0 
L 1766 0 
Q 1100 0 847 248 
Q 594 497 594 1153 
L 594 3053 
L 172 3053 
L 172 3500 
L 594 3500 
L 594 4494 
L 1172 4494 
z
" transform="scale(0.015625)"/>
       <path id="DejaVuSans-75" d="M 544 1381 
L 544 3500 
L 1119 3500 
L 1119 1403 
Q 1119 906 1312 657 
Q 1506 409 1894 409 
Q 2359 409 2629 706 
Q 2900 1003 2900 1516 
L 2900 3500 
L 3475 3500 
L 3475 0 
L 2900 0 
L 2900 538 
Q 2691 219 2414 64 
Q 2138 -91 1772 -91 
Q 1169 -91 856 284 
Q 544 659 544 1381 
z
M 1991 3584 
L 1991 3584 
z
" transform="scale(0.015625)"/>
       <path id="DejaVuSans-2c" d="M 750 794 
L 1409 794 
L 1409 256 
L 897 -744 
L 494 -744 
L 750 256 
L 750 794 
z
" transform="scale(0.015625)"/>
       <path id="DejaVuSans-70" d="M 1159 525 
L 1159 -1331 
L 581 -1331 
L 581 3500 
L 1159 3500 
L 1159 2969 
Q 1341 3281 1617 3432 
Q 1894 3584 2278 3584 
Q 2916 3584 3314 3078 
Q 3713 2572 3713 1747 
Q 3713 922 3314 415 
Q 2916 -91 2278 -91 
Q 1894 -91 1617 61 
Q 1341 213 1159 525 
z
M 3116 1747 
Q 3116 2381 2855 2742 
Q 2594 3103 2138 3103 
Q 1681 3103 1420 2742 
Q 1159 2381 1159 1747 
Q 1159 1113 1420 752 
Q 1681 391 2138 391 
Q 2594 391 2855 752 
Q 3116 1113 3116 1747 
z
" transform="scale(0.015625)"/>
      </defs>
      <use xlink:href="#DejaVuSans-46"/>
      <use xlink:href="#DejaVuSans-72" x="50.269531"/>
      <use xlink:href="#DejaVuSans-61" x="91.382812"/>
      <use xlink:href="#DejaVuSans-63" x="152.662109"/>
      <use xlink:href="#DejaVuSans-74" x="207.642578"/>
      <use xlink:href="#DejaVuSans-69" x="246.851562"/>
      <use xlink:href="#DejaVuSans-6f" x="274.634766"/>
      <use xlink:href="#DejaVuSans-6e" x="335.816406"/>
      <use xlink:href="#DejaVuSans-20" x="399.195312"/>
      <use xlink:href="#DejaVuSans-6f" x="430.982422"/>
      <use xlink:href="#DejaVuSans-66" x="492.164062"/>
      <use xlink:href="#DejaVuSans-20" x="527.369141"/>
      <use xlink:href="#DejaVuSans-66" x="559.15625"/>
      <use xlink:href="#DejaVuSans-75" x="594.361328"/>
      <use xlink:href="#DejaVuSans-6e" x="657.740234"/>
      <use xlink:href="#DejaVuSans-63" x="721.119141"/>
      <use xlink:href="#DejaVuSans-74" x="776.099609"/>
      <use xlink:href="#DejaVuSans-69" x="815.308594"/>
      <use xlink:href="#DejaVuSans-6f" x="843.091797"/>
      <use xlink:href="#DejaVuSans-6e" x="904.273438"/>
      <use xlink:href="#DejaVuSans-2c" x="967.652344"/>
      <use xlink:href="#DejaVuSans-74" x="999.439453"/>
      <use xlink:href="#DejaVuSans-61" x="1038.648438"/>
      <use xlink:href="#DejaVuSans-72" x="1099.927734"/>
      <use xlink:href="#DejaVuSans-67" x="1139.291016"/>
      <use xlink:href="#DejaVuSans-65" x="1202.767578"/>
      <use xlink:href="#DejaVuSans-74" x="1264.291016"/>
      <use xlink:href="#DejaVuSans-20" x="1303.5"/>
      <use xlink:href="#DejaVuSans-70" x="1335.287109"/>
      <use xlink:href="#DejaVuSans-61" x="1398.763672"/>
      <use xlink:href="#DejaVuSans-69" x="1460.042969"/>
      <use xlink:href="#DejaVuSans-72" x="1487.826172"/>
      <use xlink:href="#DejaVuSans-73" x="1528.939453"/>
     </g>
    </g>
   </g>
   <g id="line2d_33">
    <defs>
     <path id="m3d4ec822f3" d="M 0 1.5 
C 0.397805 1.5 0.77937 1.341951 1.06066 1.06066 
C 1.341951 0.77937 1.5 0.397805 1.5 0 
C 1.5 -0.397805 1.341951 -0.77937 1.06066 -1.06066 
C 0.77937 -1.341951 0.397805 -1.5 0 -1.5 
C -0.397805 -1.5 -0.77937 -1.341951 -1.06066 -1.06066 
C -1.341951 -0.77937 -1.5 -0.397805 -1.5 0 
C -1.5 0.397805 -1.341951 0.77937 -1.06066 1.06066 
C -0.77937 1.341951 -0.397805 1.5 0 1.5 
z
" style="stroke: #f5deb3"/>
    </defs>
    <g>
     <use xlink:href="#m3d4ec822f3" x="270.032798" y="42.157241" style="fill: #f5deb3; stroke: #f5deb3"/>
     <use xlink:href="#m3d4ec822f3" x="270.032798" y="42.157241" style="fill: #f5deb3; stroke: #f5deb3"/>
    </g>
   </g>
   <g id="line2d_34">
    <defs>
     <path id="m7a730d5831" d="M 0 1.5 
C 0.397805 1.5 0.77937 1.341951 1.06066 1.06066 
C 1.341951 0.77937 1.5 0.397805 1.5 0 
C 1.5 -0.397805 1.341951 -0.77937 1.06066 -1.06066 
C 0.77937 -1.341951 0.397805 -1.5 0 -1.5 
C -0.397805 -1.5 -0.77937 -1.341951 -1.06066 -1.06066 
C -1.341951 -0.77937 -1.5 -0.397805 -1.5 0 
C -1.5 0.397805 -1.341951 0.77937 -1.06066 1.06066 
C -0.77937 1.341951 -0.397805 1.5 0 1.5 
z
" style="stroke: #000080"/>
    </defs>
    <g>
     <use xlink:href="#m7a730d5831" x="187.5456" y="175.711531" style="fill: #000080; stroke: #000080"/>
     <use xlink:href="#m7a730d5831" x="187.5456" y="175.711531" style="fill: #000080; stroke: #000080"/>
    </g>
   </g>
   <g id="line2d_35">
    <path d="M 44.560826 298.944 
L 44.560826 291.769076 
L 57.6 291.769076 
L 57.6 290.636193 
L 65.227428 290.636193 
L 65.227428 289.50331 
L 70.639174 289.50331 
L 70.639174 287.741048 
L 74.836851 287.741048 
L 74.836851 285.475283 
L 78.266603 285.475283 
L 78.266603 285.097655 
L 81.166416 285.097655 
L 81.166416 283.083641 
L 83.678349 283.083641 
L 83.678349 281.950759 
L 85.894031 281.950759 
L 85.894031 279.559117 
L 87.876026 279.559117 
L 87.876026 278.677986 
L 89.668958 278.677986 
L 89.668958 278.300359 
L 91.305777 278.300359 
L 91.305777 276.538097 
L 92.811505 276.538097 
L 92.811505 276.412221 
L 94.205591 276.412221 
L 94.205591 275.908717 
L 95.503454 275.908717 
L 95.503454 275.279338 
L 96.717523 275.279338 
L 96.717523 273.139448 
L 97.857967 273.139448 
L 97.857967 272.761821 
L 98.933205 272.761821 
L 98.933205 272.006566 
L 99.950294 272.006566 
L 99.950294 271.628938 
L 100.9152 271.628938 
L 100.9152 271.377186 
L 101.833019 271.377186 
L 101.833019 271.125434 
L 103.544339 271.125434 
L 103.544339 270.747807 
L 104.344952 270.747807 
L 104.344952 270.370179 
L 105.112877 270.370179 
L 105.112877 270.244303 
L 105.850679 270.244303 
L 105.850679 269.866676 
L 106.560633 269.866676 
L 106.560633 269.7408 
L 107.244765 269.7408 
L 107.244765 269.614924 
L 109.159456 269.614924 
L 109.159456 269.489048 
L 109.756698 269.489048 
L 109.756698 268.356166 
L 110.335561 268.356166 
L 110.335561 268.104414 
L 110.897141 268.104414 
L 110.897141 267.726786 
L 111.442442 267.726786 
L 111.442442 267.223283 
L 111.97238 267.223283 
L 111.97238 266.342152 
L 112.487797 266.342152 
L 112.487797 265.964524 
L 112.989468 265.964524 
L 112.989468 265.712772 
L 113.478107 265.712772 
L 113.478107 264.957517 
L 113.954374 264.957517 
L 113.954374 264.705766 
L 114.872193 264.705766 
L 114.872193 264.328138 
L 115.314838 264.328138 
L 115.314838 262.943503 
L 115.747307 262.943503 
L 115.747307 262.817628 
L 116.170056 262.817628 
L 116.170056 262.565876 
L 116.583514 262.565876 
L 116.583514 262.44 
L 116.988079 262.44 
L 116.988079 262.062372 
L 117.772007 262.062372 
L 117.772007 261.055366 
L 118.152051 261.055366 
L 118.152051 260.92949 
L 119.24818 260.92949 
L 119.24818 260.803614 
L 121.581803 260.803614 
L 121.581803 260.048359 
L 122.499621 260.048359 
L 122.499621 259.922483 
L 123.657621 259.922483 
L 123.657621 259.167228 
L 125.779479 259.167228 
L 125.779479 258.915476 
L 126.028642 258.915476 
L 126.028642 258.663724 
L 126.756923 258.663724 
L 126.756923 258.537848 
L 127.227236 258.537848 
L 127.227236 258.034345 
L 127.458055 258.034345 
L 127.458055 257.530841 
L 127.686077 257.530841 
L 127.686077 257.27909 
L 128.133992 257.27909 
L 128.133992 256.397959 
L 128.786481 256.397959 
L 128.786481 255.894455 
L 128.999044 255.894455 
L 128.999044 255.768579 
L 129.209231 255.768579 
L 129.209231 255.265076 
L 129.826058 255.265076 
L 129.826058 255.013324 
L 130.226319 255.013324 
L 130.226319 254.383945 
L 130.4233 254.383945 
L 130.4233 254.006317 
L 131.378407 254.006317 
L 131.378407 253.502814 
L 131.563744 253.502814 
L 131.563744 252.873434 
L 132.109044 252.873434 
L 132.109044 252.621683 
L 132.46399 252.621683 
L 132.46399 252.369931 
L 132.812362 252.369931 
L 132.812362 251.614676 
L 133.323114 251.614676 
L 133.323114 251.4888 
L 133.490329 251.4888 
L 133.490329 251.237048 
L 133.820365 251.237048 
L 133.820365 251.111172 
L 134.14471 251.111172 
L 134.14471 250.985297 
L 134.463557 250.985297 
L 134.463557 250.859421 
L 134.620977 250.859421 
L 134.620977 250.230041 
L 134.931919 250.230041 
L 134.931919 250.104166 
L 135.085483 250.104166 
L 135.085483 249.97829 
L 135.388902 249.97829 
L 135.388902 249.726538 
L 136.126705 249.726538 
L 136.126705 249.600662 
L 136.413909 249.600662 
L 136.413909 249.474786 
L 136.696795 249.474786 
L 136.696795 249.34891 
L 136.836659 249.34891 
L 136.836659 249.223034 
L 137.113304 249.223034 
L 137.113304 248.593655 
L 137.38594 248.593655 
L 137.38594 248.467779 
L 137.787626 248.467779 
L 137.787626 248.341903 
L 138.050729 248.341903 
L 138.050729 248.216028 
L 138.180913 248.216028 
L 138.180913 247.964276 
L 138.943648 247.964276 
L 138.943648 247.8384 
L 139.313723 247.8384 
L 139.313723 247.712524 
L 139.435481 247.712524 
L 139.435481 247.586648 
L 139.676658 247.586648 
L 139.676658 247.209021 
L 139.796097 247.209021 
L 139.796097 246.957269 
L 140.14993 246.957269 
L 140.14993 246.831393 
L 140.26641 246.831393 
L 140.26641 246.579641 
L 140.611586 246.579641 
L 140.611586 245.950262 
L 140.725251 245.950262 
L 140.725251 245.824386 
L 140.838234 245.824386 
L 140.838234 245.69851 
L 141.062184 245.69851 
L 141.062184 245.320883 
L 141.393187 245.320883 
L 141.393187 245.069131 
L 141.718467 245.069131 
L 141.718467 244.943255 
L 142.143605 244.943255 
L 142.248405 244.062124 
L 142.865233 244.062124 
L 142.865233 243.558621 
L 143.754133 243.558621 
L 143.754133 243.180993 
L 143.946089 243.180993 
L 143.946089 242.929241 
L 144.136106 242.929241 
L 144.2304 242.67749 
L 144.694906 242.67749 
L 144.694906 242.551614 
L 145.148219 242.551614 
L 145.148219 242.425738 
L 145.326529 242.425738 
L 145.326529 242.299862 
L 145.503164 242.299862 
L 145.503164 241.922234 
L 145.93763 241.922234 
L 145.93763 241.796359 
L 146.108646 241.796359 
L 146.108646 241.418731 
L 146.362288 241.418731 
L 146.362288 241.166979 
L 146.529503 241.166979 
L 146.612557 240.5376 
L 146.695245 240.5376 
L 146.695245 240.411724 
L 147.660152 240.411724 
L 147.73837 239.908221 
L 147.816265 239.908221 
L 147.893838 239.656469 
L 147.971093 239.656469 
L 147.971093 239.530593 
L 148.503173 239.530593 
L 148.503173 239.278841 
L 148.652472 239.278841 
L 148.652472 238.649462 
L 149.524205 238.649462 
L 149.524205 238.39771 
L 150.492661 238.39771 
L 150.492661 238.271834 
L 150.8268 238.271834 
L 150.8268 238.145959 
L 151.155108 238.145959 
L 151.155108 238.020083 
L 151.284843 238.020083 
L 151.284843 237.894207 
L 151.731998 237.894207 
L 151.795018 237.390703 
L 151.920429 237.390703 
L 151.982822 236.383697 
L 152.16877 236.383697 
L 152.16877 236.131945 
L 152.715833 236.131945 
L 152.715833 235.502566 
L 152.953957 235.502566 
L 153.01302 235.124938 
L 153.478964 235.124938 
L 153.478964 234.999062 
L 153.593669 234.999062 
L 153.593669 234.621434 
L 153.764426 234.621434 
L 153.764426 234.369683 
L 153.933646 234.369683 
L 153.933646 233.992055 
L 154.212341 233.992055 
L 154.212341 233.866179 
L 154.595705 233.866179 
L 154.649839 233.362676 
L 154.811312 233.362676 
L 154.811312 233.110924 
L 154.971412 233.110924 
L 155.024477 232.355669 
L 155.443693 232.355669 
L 155.547053 231.852166 
L 155.598521 231.852166 
L 155.701037 231.222786 
L 155.904407 231.222786 
L 155.904407 231.09691 
L 156.055505 231.09691 
L 156.055505 230.845159 
L 156.255099 230.845159 
L 156.304668 230.593407 
L 156.403417 230.593407 
L 156.403417 230.467531 
L 156.550574 230.467531 
L 156.550574 230.089903 
L 157.316545 230.089903 
L 157.410135 229.838152 
L 157.456756 229.838152 
L 157.503261 229.460524 
L 157.595929 229.460524 
L 157.688143 229.082897 
L 157.871225 229.082897 
L 157.871225 228.957021 
L 158.052543 228.957021 
L 158.14255 228.453517 
L 158.717331 228.453517 
L 158.717331 228.327641 
L 159.062507 228.327641 
L 159.062507 228.07589 
L 159.317295 228.07589 
L 159.317295 227.950014 
L 159.443406 227.950014 
L 159.485256 227.44651 
L 159.857774 227.44651 
L 159.857774 227.194759 
L 160.061585 227.194759 
L 160.142495 226.691255 
L 160.343261 226.691255 
L 160.422971 226.439503 
L 160.4627 226.439503 
L 160.541906 225.936 
L 161.125559 225.936 
L 161.125559 225.684248 
L 161.240147 225.684248 
L 161.278189 224.803117 
L 161.467251 224.803117 
L 161.504837 224.173738 
L 161.728786 224.173738 
L 161.728786 224.047862 
L 162.023298 224.047862 
L 162.132562 221.907972 
L 162.492258 221.907972 
L 162.59884 221.152717 
L 162.704821 221.152717 
L 162.704821 220.900966 
L 162.845206 220.900966 
L 162.845206 220.649214 
L 162.984551 220.649214 
L 162.984551 220.523338 
L 163.294355 220.523338 
L 163.294355 220.271586 
L 163.430425 220.271586 
L 163.430425 220.019834 
L 164.129077 220.019834 
L 164.161708 219.768083 
L 164.388551 219.768083 
L 164.484939 219.138703 
L 164.644495 219.138703 
L 164.676244 218.761076 
L 164.771172 218.761076 
L 164.865624 218.383448 
L 164.990826 218.383448 
L 165.053116 217.628193 
L 165.207944 217.628193 
L 165.300233 217.250566 
L 165.330896 217.250566 
L 165.392072 216.747062 
L 165.51383 216.747062 
L 165.51383 216.49531 
L 165.814821 216.49531 
L 165.814821 215.740055 
L 165.993131 215.740055 
L 165.993131 215.614179 
L 166.140442 215.614179 
L 166.140442 215.488303 
L 166.286609 215.488303 
L 166.344759 214.355421 
L 166.632844 214.355421 
L 166.632844 214.103669 
L 166.746854 214.103669 
L 166.746854 213.977793 
L 166.916583 213.977793 
L 166.916583 213.851917 
L 167.16834 213.851917 
L 167.251516 213.096662 
L 167.334325 213.096662 
L 167.334325 212.970786 
L 167.607754 212.970786 
L 167.689013 212.215531 
L 167.769923 212.215531 
L 167.769923 211.586152 
L 168.116567 211.586152 
L 168.221954 211.082648 
L 168.274427 211.082648 
L 168.274427 210.579145 
L 168.482867 210.579145 
L 168.534619 209.82389 
L 168.637696 209.82389 
L 168.714635 209.068634 
L 168.816733 209.068634 
L 168.842171 208.439255 
L 168.994082 208.439255 
L 168.994082 208.187503 
L 169.194741 208.187503 
L 169.194741 208.061628 
L 169.540824 208.061628 
L 169.540824 207.935752 
L 169.75999 207.935752 
L 169.75999 207.684 
L 170.072123 207.684 
L 170.167131 206.928745 
L 170.214455 206.928745 
L 170.238073 206.676993 
L 170.425955 206.676993 
L 170.519197 206.047614 
L 170.61198 206.047614 
L 170.704306 205.292359 
L 170.796182 205.292359 
L 170.864796 204.411228 
L 171.20416 204.411228 
L 171.248949 204.0336 
L 171.691074 204.0336 
L 171.73472 203.530097 
L 171.9083 203.530097 
L 171.9083 203.278345 
L 172.229507 203.278345 
L 172.335368 202.774841 
L 172.524431 202.774841 
L 172.62865 202.397214 
L 172.690906 202.397214 
L 172.752956 202.019586 
L 172.876446 202.019586 
L 172.958324 201.641959 
L 173.0195 201.641959 
L 173.12102 201.012579 
L 173.141258 201.012579 
L 173.18167 200.3832 
L 173.402394 200.3832 
L 173.442249 200.131448 
L 173.60083 200.131448 
L 173.60083 199.879697 
L 173.7385 199.879697 
L 173.7385 199.627945 
L 173.894614 199.627945 
L 173.952824 199.124441 
L 174.010854 199.124441 
L 174.010854 198.746814 
L 174.126381 198.746814 
L 174.222115 198.117434 
L 174.506426 198.117434 
L 174.600249 197.613931 
L 174.674972 197.613931 
L 174.674972 197.488055 
L 174.786503 197.488055 
L 174.786503 197.236303 
L 174.934191 197.236303 
L 174.934191 196.984552 
L 175.080727 196.984552 
L 175.15357 196.481048 
L 175.208017 196.481048 
L 175.244228 195.977545 
L 175.442151 195.977545 
L 175.51361 195.599917 
L 175.620293 195.599917 
L 175.708734 195.096414 
L 175.814319 195.096414 
L 175.901855 194.718786 
L 175.971592 194.718786 
L 175.971592 194.467034 
L 176.162047 194.467034 
L 176.179266 193.963531 
L 176.469599 193.963531 
L 176.57101 193.460028 
L 176.62151 193.460028 
L 176.62151 193.208276 
L 176.75552 193.208276 
L 176.75552 192.956524 
L 176.938239 192.956524 
L 177.004244 192.453021 
L 177.168252 192.453021 
L 177.168252 192.201269 
L 177.379346 192.201269 
L 177.379346 191.949517 
L 177.508083 191.949517 
L 177.508083 191.823641 
L 177.667774 191.823641 
L 177.667774 191.697766 
L 177.967504 191.697766 
L 178.045592 191.320138 
L 178.169864 191.320138 
L 178.169864 191.068386 
L 178.29332 191.068386 
L 178.29332 190.94251 
L 178.446509 190.94251 
L 178.446509 190.816634 
L 178.734177 190.816634 
L 178.83906 190.564883 
L 178.86892 190.564883 
L 178.91362 190.187255 
L 179.017511 190.187255 
L 179.017511 190.061379 
L 179.267453 190.061379 
L 179.296641 189.432 
L 179.427429 189.432 
L 179.427429 189.306124 
L 179.629086 189.306124 
L 179.629086 189.180248 
L 179.941672 189.180248 
L 180.026029 188.676745 
L 180.054064 188.676745 
L 180.054064 188.550869 
L 180.179707 188.550869 
L 180.193616 188.173241 
L 180.33214 188.173241 
L 180.359723 187.795614 
L 180.510711 187.795614 
L 180.619764 187.040359 
L 180.660496 187.040359 
L 180.687602 186.410979 
L 180.929814 186.410979 
L 180.956535 186.159228 
L 181.049761 186.159228 
L 181.155741 185.907476 
L 181.168947 185.907476 
L 181.274261 185.403972 
L 181.35286 185.403972 
L 181.444147 184.774593 
L 181.496113 184.774593 
L 181.586709 184.27109 
L 181.651154 184.27109 
L 181.651154 184.019338 
L 181.766602 184.019338 
L 181.868631 183.64171 
L 182.221437 183.64171 
L 182.296185 183.389959 
L 182.407753 183.389959 
L 182.420108 183.012331 
L 182.567747 183.012331 
L 182.567747 182.760579 
L 182.738541 182.760579 
L 182.738541 182.634703 
L 183.015807 182.634703 
L 183.099387 182.257076 
L 183.146981 182.257076 
L 183.206305 181.879448 
L 183.359677 181.879448 
L 183.430044 181.124193 
L 183.66272 181.124193 
L 183.697374 180.872441 
L 183.777987 180.872441 
L 183.823897 180.62069 
L 184.006424 180.62069 
L 184.006424 180.494814 
L 184.175949 180.494814 
L 184.175949 180.243062 
L 184.598699 180.243062 
L 184.664589 179.99131 
L 184.784791 179.99131 
L 184.784791 179.865434 
L 184.925864 179.865434 
L 185.001391 179.487807 
L 185.076616 179.487807 
L 185.076616 179.361931 
L 185.194222 179.361931 
L 185.194222 179.236055 
L 185.448293 179.236055 
L 185.469311 178.4808 
L 185.667825 178.4808 
L 185.740436 178.229048 
L 185.802452 178.229048 
L 185.802452 177.725545 
L 185.956604 177.725545 
L 185.956604 177.599669 
L 186.099348 177.599669 
L 186.129796 177.347917 
L 186.491374 177.347917 
L 186.491374 177.222041 
L 186.630133 177.222041 
L 186.630133 176.97029 
L 186.78747 176.97029 
L 186.8266 176.592662 
L 186.943502 176.592662 
L 186.943502 176.466786 
L 187.184741 176.466786 
L 187.251738 176.089159 
L 187.356538 176.089159 
L 187.356538 175.837407 
L 187.5456 175.837407 
L 187.5456 175.711531 
L 360.8064 175.711531 
L 360.8064 175.711531 
" style="fill: none; stroke: #000080; stroke-width: 1.5; stroke-linecap: square"/>
   </g>
   <g id="line2d_36">
    <defs>
     <path id="m44ccf1140c" d="M 0 6 
C 1.591219 6 3.117479 5.367802 4.242641 4.242641 
C 5.367802 3.117479 6 1.591219 6 0 
C 6 -1.591219 5.367802 -3.117479 4.242641 -4.242641 
C 3.117479 -5.367802 1.591219 -6 0 -6 
C -1.591219 -6 -3.117479 -5.367802 -4.242641 -4.242641 
C -5.367802 -3.117479 -6 -1.591219 -6 0 
C -6 1.591219 -5.367802 3.117479 -4.242641 4.242641 
C -3.117479 5.367802 -1.591219 6 0 6 
z
" style="stroke: #000080; stroke-width: 1.5"/>
    </defs>
    <g>
     <use xlink:href="#m44ccf1140c" x="122.499621" y="259.922483" style="fill-opacity: 0; stroke: #000080; stroke-width: 1.5"/>
     <use xlink:href="#m44ccf1140c" x="171.73472" y="203.530097" style="fill-opacity: 0; stroke: #000080; stroke-width: 1.5"/>
     <use xlink:href="#m44ccf1140c" x="187.5456" y="175.837407" style="fill-opacity: 0; stroke: #000080; stroke-width: 1.5"/>
     <use xlink:href="#m44ccf1140c" x="187.5456" y="175.711531" style="fill-opacity: 0; stroke: #000080; stroke-width: 1.5"/>
     <use xlink:href="#m44ccf1140c" x="187.5456" y="175.711531" style="fill-opacity: 0; stroke: #000080; stroke-width: 1.5"/>
     <use xlink:href="#m44ccf1140c" x="360.8064" y="175.711531" style="fill-opacity: 0; stroke: #000080; stroke-width: 1.5"/>
    </g>
   </g>
   <g id="line2d_37">
    <path style="fill: none; stroke: #000080; stroke-width: 1.5; stroke-linecap: square"/>
    <g/>
   </g>
   <g id="line2d_38">
    <path d="M 187.59257 175.711531 
" clip-path="url(#p90b4cfb1ea)" style="fill: none; stroke: #000080; stroke-width: 1.5; stroke-linecap: square"/>
    <defs>
     <path id="mb01b5ba58d" d="M -12 12 
L 12 -12 
M -12 -12 
L 12 12 
" style="stroke: #000080"/>
    </defs>
    <g clip-path="url(#p90b4cfb1ea)">
     <use xlink:href="#mb01b5ba58d" x="187.59257" y="175.711531" style="fill: #000080; stroke: #000080"/>
    </g>
   </g>
   <g id="line2d_39">
    <defs>
     <path id="mfcbf9131a6" d="M 0 1.5 
C 0.397805 1.5 0.77937 1.341951 1.06066 1.06066 
C 1.341951 0.77937 1.5 0.397805 1.5 0 
C 1.5 -0.397805 1.341951 -0.77937 1.06066 -1.06066 
C 0.77937 -1.341951 0.397805 -1.5 0 -1.5 
C -0.397805 -1.5 -0.77937 -1.341951 -1.06066 -1.06066 
C -1.341951 -0.77937 -1.5 -0.397805 -1.5 0 
C -1.5 0.397805 -1.341951 0.77937 -1.06066 1.06066 
C -0.77937 1.341951 -0.397805 1.5 0 1.5 
z
" style="stroke: #ff00ff"/>
    </defs>
    <g>
     <use xlink:href="#mfcbf9131a6" x="217.051741" y="159.977048" style="fill: #ff00ff; stroke: #ff00ff"/>
     <use xlink:href="#mfcbf9131a6" x="217.051741" y="159.977048" style="fill: #ff00ff; stroke: #ff00ff"/>
    </g>
   </g>
   <g id="line2d_40">
    <path d="M 44.560826 298.944 
L 44.560826 291.769076 
L 57.6 291.769076 
L 57.6 289.755062 
L 65.227428 289.755062 
L 65.227428 288.496303 
L 70.639174 288.496303 
L 70.639174 287.489297 
L 74.836851 287.489297 
L 74.836851 286.356414 
L 78.266603 286.356414 
L 78.266603 285.85291 
L 81.166416 285.85291 
L 81.166416 284.468276 
L 83.678349 284.468276 
L 83.678349 282.957766 
L 85.894031 282.957766 
L 85.894031 282.83189 
L 87.876026 282.83189 
L 87.876026 281.950759 
L 92.811505 281.950759 
L 92.811505 281.447255 
L 94.205591 281.447255 
L 94.205591 281.321379 
L 95.503454 281.321379 
L 95.503454 280.440248 
L 98.933205 280.440248 
L 98.933205 280.314372 
L 99.950294 280.314372 
L 99.950294 279.307366 
L 100.9152 279.307366 
L 100.9152 278.174483 
L 101.833019 278.174483 
L 101.833019 277.670979 
L 102.708132 277.670979 
L 102.708132 277.419228 
L 103.544339 277.419228 
L 103.544339 277.167476 
L 104.344952 277.167476 
L 104.344952 276.915724 
L 105.112877 276.915724 
L 105.112877 275.908717 
L 105.850679 275.908717 
L 105.850679 275.279338 
L 106.560633 275.279338 
L 106.560633 274.775834 
L 107.244765 274.775834 
L 107.244765 274.649959 
L 107.904887 274.649959 
L 107.904887 274.524083 
L 108.542628 274.524083 
L 108.542628 274.272331 
L 109.756698 274.272331 
L 109.756698 274.020579 
L 110.335561 274.020579 
L 110.335561 273.265324 
L 110.897141 273.265324 
L 110.897141 273.139448 
L 111.442442 273.139448 
L 111.442442 273.013572 
L 111.97238 273.013572 
L 111.97238 272.510069 
L 112.487797 272.510069 
L 112.487797 272.384193 
L 113.478107 272.384193 
L 113.478107 271.88069 
L 113.954374 271.88069 
L 113.954374 271.628938 
L 114.872193 271.628938 
L 114.872193 271.503062 
L 115.314838 271.503062 
L 115.314838 270.999559 
L 115.747307 270.999559 
L 115.747307 270.621931 
L 116.170056 270.621931 
L 116.170056 270.370179 
L 116.583514 270.370179 
L 116.583514 269.866676 
L 116.988079 269.866676 
L 116.988079 269.7408 
L 118.889854 269.7408 
L 118.889854 269.489048 
L 119.24818 269.489048 
L 119.24818 269.237297 
L 119.599808 269.237297 
L 119.599808 269.111421 
L 119.944983 269.111421 
L 119.944983 268.607917 
L 121.581803 268.607917 
L 121.581803 268.23029 
L 121.892744 268.23029 
L 121.892744 267.726786 
L 122.19863 267.726786 
L 122.19863 267.475034 
L 123.08753 267.475034 
L 123.08753 267.349159 
L 123.657621 267.349159 
L 123.657621 266.971531 
L 124.210942 266.971531 
L 124.210942 266.0904 
L 125.271028 266.0904 
L 125.271028 265.838648 
L 125.526971 265.838648 
L 125.526971 265.586897 
L 125.779479 265.586897 
L 125.779479 264.705766 
L 126.028642 264.705766 
L 126.028642 264.454014 
L 126.274549 264.454014 
L 126.274549 263.824634 
L 126.517282 263.824634 
L 126.517282 263.572883 
L 126.756923 263.572883 
L 126.756923 263.447007 
L 127.911368 263.447007 
L 127.911368 263.321131 
L 128.133992 263.321131 
L 128.133992 263.069379 
L 128.786481 263.069379 
L 128.786481 261.936497 
L 128.999044 261.936497 
L 128.999044 259.796607 
L 129.417095 259.796607 
L 129.417095 259.544855 
L 129.826058 259.544855 
L 129.826058 259.293103 
L 130.027253 259.293103 
L 130.027253 259.167228 
L 130.226319 259.167228 
L 130.226319 258.537848 
L 130.4233 258.537848 
L 130.4233 258.411972 
L 130.618241 258.411972 
L 130.618241 258.160221 
L 130.811181 258.160221 
L 130.811181 257.530841 
L 131.002163 257.530841 
L 131.002163 257.404966 
L 131.191226 257.404966 
L 131.191226 257.153214 
L 131.563744 257.153214 
L 131.563744 256.523834 
L 131.747272 256.523834 
L 131.747272 256.397959 
L 131.929028 256.397959 
L 131.929028 256.146207 
L 132.638982 256.146207 
L 132.638982 255.768579 
L 132.984158 255.768579 
L 132.984158 255.642703 
L 133.154399 255.642703 
L 133.154399 255.1392 
L 133.323114 255.1392 
L 133.323114 254.509821 
L 133.656071 254.509821 
L 133.656071 254.132193 
L 133.820365 254.132193 
L 133.820365 253.880441 
L 133.983236 253.880441 
L 133.983236 253.376938 
L 134.463557 253.376938 
L 134.463557 253.125186 
L 134.620977 253.125186 
L 134.620977 252.873434 
L 134.77709 252.873434 
L 134.77709 252.747559 
L 135.085483 252.747559 
L 135.085483 252.118179 
L 135.237805 252.118179 
L 135.237805 251.866428 
L 135.538796 251.866428 
L 135.538796 251.740552 
L 136.126705 251.740552 
L 136.126705 251.4888 
L 136.555884 251.4888 
L 136.555884 251.362924 
L 136.696795 251.362924 
L 136.696795 251.111172 
L 136.836659 251.111172 
L 136.836659 250.859421 
L 136.97549 250.859421 
L 136.97549 250.607669 
L 137.113304 250.607669 
L 137.113304 250.230041 
L 137.520791 250.230041 
L 137.520791 250.104166 
L 137.654681 250.104166 
L 137.654681 249.97829 
L 137.919637 249.97829 
L 137.919637 249.852414 
L 138.050729 249.852414 
L 138.050729 249.600662 
L 138.310202 249.600662 
L 138.310202 249.474786 
L 138.566146 249.474786 
L 138.566146 248.845407 
L 138.692823 248.845407 
L 138.692823 248.593655 
L 138.943648 248.593655 
L 138.943648 248.216028 
L 139.191172 248.216028 
L 139.191172 248.090152 
L 139.556456 248.090152 
L 139.556456 247.964276 
L 139.796097 247.964276 
L 139.796097 247.712524 
L 140.032723 247.712524 
L 140.032723 246.957269 
L 140.49723 246.957269 
L 140.49723 246.831393 
L 140.611586 246.831393 
L 140.611586 246.579641 
L 140.838234 246.579641 
L 140.838234 246.453766 
L 141.393187 246.453766 
L 141.393187 246.202014 
L 141.718467 246.202014 
L 141.718467 246.076138 
L 142.45627 246.076138 
L 142.45627 245.824386 
L 142.763822 245.824386 
L 142.865233 244.943255 
L 143.364242 244.943255 
L 143.364242 244.188 
L 143.560197 244.188 
L 143.657415 243.810372 
L 143.754133 243.810372 
L 143.754133 243.558621 
L 143.946089 243.558621 
L 143.946089 243.055117 
L 144.968202 243.055117 
L 144.968202 242.929241 
L 145.415054 242.929241 
L 145.415054 242.803366 
L 145.590864 242.803366 
L 145.590864 242.551614 
L 146.108646 242.551614 
L 146.108646 242.425738 
L 146.612557 242.425738 
L 146.612557 242.299862 
L 146.941151 242.299862 
L 146.941151 242.173986 
L 147.103321 242.173986 
L 147.183884 241.922234 
L 147.264104 241.922234 
L 147.264104 241.670483 
L 147.73837 241.670483 
L 147.816265 241.166979 
L 147.893838 241.166979 
L 147.971093 240.915228 
L 148.048032 240.915228 
L 148.124658 240.285848 
L 148.200973 240.285848 
L 148.276979 239.278841 
L 148.352679 239.278841 
L 148.352679 239.02709 
L 148.57797 239.02709 
L 148.652472 238.523586 
L 148.800595 238.523586 
L 148.874221 238.020083 
L 149.093387 238.020083 
L 149.093387 237.894207 
L 149.31003 237.894207 
L 149.31003 237.768331 
L 149.524205 237.768331 
L 149.524205 237.642455 
L 150.014665 237.642455 
L 150.083698 236.8872 
L 150.152479 236.8872 
L 150.221009 236.383697 
L 150.289291 236.383697 
L 150.357325 236.131945 
L 150.559965 236.131945 
L 150.559965 236.006069 
L 150.693856 236.006069 
L 150.693856 235.880193 
L 150.8268 235.880193 
L 150.8268 235.754317 
L 150.958812 235.754317 
L 150.958812 235.628441 
L 151.220087 235.628441 
L 151.220087 235.502566 
L 151.54166 235.502566 
L 151.60532 235.250814 
L 151.731998 235.250814 
L 151.731998 234.999062 
L 151.857828 234.999062 
L 151.857828 234.873186 
L 152.045009 234.873186 
L 152.045009 234.621434 
L 152.16877 234.621434 
L 152.16877 234.495559 
L 152.894708 234.495559 
L 152.894708 234.243807 
L 153.01302 234.243807 
L 153.01302 233.992055 
L 153.130592 233.992055 
L 153.130592 233.740303 
L 153.478964 233.740303 
L 153.478964 233.362676 
L 153.764426 233.362676 
L 153.764426 232.985048 
L 153.877408 232.985048 
L 153.933646 232.481545 
L 153.989717 232.481545 
L 154.04562 231.348662 
L 154.101358 231.348662 
L 154.101358 231.09691 
L 154.267588 231.09691 
L 154.267588 230.845159 
L 154.595705 230.845159 
L 154.595705 230.341655 
L 154.918196 230.341655 
L 154.918196 230.215779 
L 155.077392 230.215779 
L 155.077392 229.712276 
L 155.495444 229.712276 
L 155.598521 229.460524 
L 155.904407 229.460524 
L 156.005274 228.957021 
L 156.105602 228.957021 
L 156.105602 228.831145 
L 156.403417 228.831145 
L 156.501649 227.950014 
L 156.599372 227.950014 
L 156.648044 227.44651 
L 156.84148 227.44651 
L 156.84148 227.320634 
L 158.276759 227.320634 
L 158.276759 227.068883 
L 158.760826 227.068883 
L 158.847515 226.817131 
L 159.105212 226.817131 
L 159.190332 226.313628 
L 159.232748 226.313628 
L 159.275069 225.810124 
L 159.359426 225.810124 
L 159.401463 225.432497 
L 159.568678 225.432497 
L 159.61025 224.928993 
L 159.939564 224.928993 
L 159.939564 224.42549 
L 160.383158 224.42549 
L 160.4627 223.166731 
L 160.581385 223.166731 
L 160.581385 222.914979 
L 160.738476 222.914979 
L 160.738476 222.663228 
L 160.894266 222.663228 
L 160.97168 222.033848 
L 161.654432 222.033848 
L 161.654432 221.782097 
L 161.802848 221.782097 
L 161.839769 221.152717 
L 162.023298 221.152717 
L 162.023298 220.900966 
L 162.241195 220.900966 
L 162.31327 220.019834 
L 162.492258 220.019834 
L 162.527853 218.761076 
L 162.634233 218.761076 
L 162.704821 218.383448 
L 162.775144 218.383448 
L 162.845206 217.879945 
L 163.019227 217.879945 
L 163.053839 217.502317 
L 163.22595 217.502317 
L 163.22595 217.12469 
L 163.565517 217.12469 
L 163.632702 216.621186 
L 164.194282 216.621186 
L 164.2268 216.243559 
L 164.420735 216.243559 
L 164.420735 216.117683 
L 164.548924 216.117683 
L 164.548924 215.865931 
L 164.834193 215.865931 
L 164.928329 215.488303 
L 165.053116 215.488303 
L 165.146166 214.858924 
L 165.269521 214.858924 
L 165.269521 214.607172 
L 165.814821 214.607172 
L 165.844657 214.103669 
L 165.933882 214.103669 
L 165.933882 213.600166 
L 166.431649 213.600166 
L 166.431649 213.348414 
L 167.084795 213.348414 
L 167.084795 213.222538 
L 167.553385 213.222538 
L 167.634879 212.719034 
L 167.716022 212.719034 
L 167.769923 212.341407 
L 167.877265 212.341407 
L 167.877265 212.089655 
L 168.037137 212.089655 
L 168.142969 210.956772 
L 168.169334 210.956772 
L 168.169334 210.705021 
L 168.300609 210.705021 
L 168.404973 210.327393 
L 168.508761 210.327393 
L 168.508761 210.201517 
L 168.637696 210.201517 
L 168.714635 209.572138 
L 168.816733 209.572138 
L 168.867575 209.19451 
L 168.968849 209.19451 
L 168.994082 208.816883 
L 169.169775 208.816883 
L 169.169775 208.565131 
L 169.319074 208.565131 
L 169.417952 207.935752 
L 169.491772 207.935752 
L 169.589749 207.432248 
L 169.687218 207.432248 
L 169.687218 207.180497 
L 169.856584 207.180497 
L 169.952684 206.928745 
L 170.024438 206.928745 
L 170.024438 206.802869 
L 170.143423 206.802869 
L 170.238073 206.299366 
L 170.308749 206.299366 
L 170.308749 206.047614 
L 170.542436 206.047614 
L 170.542436 205.795862 
L 170.7503 205.795862 
L 170.7503 205.292359 
L 171.091717 205.292359 
L 171.091717 205.166483 
L 171.271304 205.166483 
L 171.360458 204.662979 
L 171.382681 204.662979 
L 171.47131 204.285352 
L 171.669213 204.285352 
L 171.669213 204.0336 
L 171.951446 204.0336 
L 172.058879 203.152469 
L 172.080292 203.152469 
L 172.080292 202.900717 
L 172.335368 202.900717 
L 172.377547 202.648966 
L 172.607852 202.648966 
L 172.670177 202.019586 
L 172.794209 202.019586 
L 172.896949 201.264331 
L 173.039848 201.264331 
L 173.039848 201.138455 
L 173.442249 201.138455 
L 173.521707 200.3832 
L 173.659955 200.3832 
L 173.758086 199.627945 
L 173.797195 199.627945 
L 173.797195 199.502069 
L 174.087951 199.502069 
L 174.107176 199.124441 
L 174.203007 199.124441 
L 174.279322 198.495062 
L 174.374282 198.495062 
L 174.393216 198.117434 
L 174.637648 198.117434 
L 174.656319 197.865683 
L 174.823534 197.865683 
L 174.934191 196.7328 
L 175.0442 196.7328 
L 175.062472 196.481048 
L 175.244228 196.481048 
L 175.262307 195.851669 
L 175.388379 195.851669 
L 175.460042 195.599917 
L 175.549238 195.599917 
L 175.620293 195.348166 
L 175.831859 195.348166 
L 175.919314 195.096414 
L 175.954182 195.096414 
L 175.954182 194.970538 
L 176.144812 194.970538 
L 176.162047 194.467034 
L 176.33353 194.467034 
L 176.350592 193.963531 
L 176.655103 193.963531 
L 176.671876 193.334152 
L 176.822169 193.334152 
L 176.822169 193.0824 
L 177.10282 193.0824 
L 177.10282 192.578897 
L 177.217177 192.578897 
L 177.314646 192.075393 
L 177.411613 192.075393 
L 177.443825 191.823641 
L 177.54013 191.823641 
L 177.620009 191.068386 
L 177.667774 191.068386 
L 177.747115 190.313131 
L 177.826122 190.313131 
L 177.826122 190.061379 
L 178.045592 190.061379 
L 178.076737 189.557876 
L 178.169864 189.557876 
L 178.231693 189.180248 
L 178.553005 189.180248 
L 178.6589 188.928497 
L 178.67398 188.928497 
L 178.704102 188.676745 
L 178.809153 188.676745 
L 178.809153 188.550869 
L 178.973057 188.550869 
L 178.973057 188.424993 
L 179.267453 188.424993 
L 179.340338 187.669738 
L 179.456369 187.669738 
L 179.499697 187.166234 
L 179.729109 187.166234 
L 179.75759 186.788607 
L 179.927575 186.788607 
L 179.969833 186.410979 
L 180.054064 186.410979 
L 180.054064 186.159228 
L 180.414768 186.159228 
L 180.524377 185.529848 
L 180.674054 185.529848 
L 180.768686 184.900469 
L 180.983218 184.900469 
L 181.023172 184.648717 
L 181.116069 184.648717 
L 181.116069 184.396966 
L 181.274261 184.396966 
L 181.378988 183.893462 
L 181.405079 183.893462 
L 181.41811 183.64171 
L 181.522042 183.64171 
L 181.625402 183.264083 
L 181.804928 183.264083 
L 181.817686 182.382952 
L 182.033257 182.382952 
L 182.033257 182.1312 
L 182.171439 182.1312 
L 182.171439 182.005324 
L 182.395389 182.005324 
L 182.444795 181.501821 
L 182.762814 181.501821 
L 182.847523 180.998317 
L 182.955878 180.998317 
L 183.063612 180.494814 
L 183.182598 180.494814 
L 183.289045 180.243062 
L 183.430044 180.243062 
L 183.511809 179.739559 
L 183.628001 179.739559 
L 183.708911 179.236055 
L 183.869695 179.236055 
L 183.892552 178.984303 
L 183.995068 178.984303 
L 184.063102 178.4808 
L 184.23212 178.4808 
L 184.23212 178.354924 
L 184.444052 178.354924 
L 184.477298 177.725545 
L 184.576684 177.725545 
L 184.620688 177.347917 
L 184.773895 177.347917 
L 184.773895 177.096166 
L 184.947474 177.096166 
L 184.95827 176.844414 
L 185.258062 176.844414 
L 185.279294 176.34091 
L 185.511278 176.34091 
L 185.511278 176.089159 
L 185.636619 176.089159 
L 185.636619 175.963283 
L 186.441569 175.963283 
L 186.541048 175.585655 
L 186.590592 175.585655 
L 186.590592 175.333903 
L 187.011362 175.333903 
L 187.011362 175.208028 
L 187.184741 175.208028 
L 187.184741 175.082152 
L 187.470203 175.082152 
L 187.470203 174.956276 
L 187.60195 174.956276 
L 187.60195 174.704524 
L 187.881197 174.704524 
L 187.908895 174.326897 
L 188.147251 174.326897 
L 188.256251 174.075145 
L 188.517089 174.075145 
L 188.561698 173.823393 
L 188.739083 173.823393 
L 188.827153 173.31989 
L 189.166736 173.31989 
L 189.25283 172.816386 
L 189.321423 172.816386 
L 189.321423 172.69051 
L 189.761282 172.69051 
L 189.853025 172.312883 
L 190.026939 172.312883 
L 190.100984 172.061131 
L 190.264493 172.061131 
L 190.31327 171.305876 
L 190.458846 171.305876 
L 190.531213 170.676497 
L 190.873179 170.676497 
L 190.920404 170.172993 
L 191.05357 170.172993 
L 191.05357 170.047117 
L 191.485684 170.047117 
L 191.592179 169.795366 
L 191.825866 169.795366 
L 191.930458 169.291862 
L 192.182072 169.291862 
L 192.182072 169.165986 
L 192.430364 169.165986 
L 192.488313 168.914234 
L 192.796765 168.914234 
L 192.818097 168.536607 
L 192.994932 168.536607 
L 192.994932 168.410731 
L 193.364413 168.410731 
L 193.447071 168.033103 
L 193.915432 168.033103 
L 194.002384 167.781352 
L 194.293734 167.781352 
L 194.372416 167.403724 
L 194.600043 167.403724 
L 194.600043 167.277848 
L 194.824949 167.277848 
L 194.824949 167.151972 
L 195.223125 167.151972 
L 195.223125 167.026097 
L 195.801988 167.026097 
L 195.808051 166.648469 
L 196.351793 166.648469 
L 196.351793 166.396717 
L 196.620785 166.396717 
L 196.672967 165.767338 
L 196.776898 165.767338 
L 196.776898 165.641462 
L 197.034242 165.641462 
L 197.034242 165.515586 
L 197.549659 165.515586 
L 197.549659 165.38971 
L 198.088959 165.38971 
L 198.099696 165.137959 
L 198.44536 165.137959 
L 198.545212 164.886207 
L 199.179109 164.886207 
L 199.275151 164.508579 
L 199.320474 164.508579 
L 199.320474 164.382703 
L 199.733384 164.382703 
L 199.733384 164.256828 
L 199.860887 164.256828 
L 199.860887 164.130952 
L 199.992386 164.130952 
L 200.074713 163.753324 
L 200.333855 163.753324 
L 200.333855 163.627448 
L 200.952681 163.627448 
L 200.952681 163.375697 
L 201.290896 163.375697 
L 201.290896 163.249821 
L 201.831149 163.249821 
L 201.831149 162.998069 
L 202.14108 162.998069 
L 202.14108 162.872193 
L 202.863057 162.872193 
L 202.863057 162.620441 
L 203.785835 162.620441 
L 203.892641 162.242814 
L 204.07322 162.242814 
L 204.07322 162.116938 
L 204.74102 162.116938 
L 204.74102 161.865186 
L 205.003128 161.865186 
L 205.036564 161.613434 
L 208.798664 161.613434 
L 208.865404 161.361683 
L 208.986146 161.361683 
L 208.986146 161.235807 
L 210.638505 161.235807 
L 210.638505 160.984055 
L 211.243238 160.984055 
L 211.243238 160.858179 
L 211.415908 160.858179 
L 211.415908 160.606428 
L 211.694136 160.606428 
L 211.694136 160.480552 
L 213.147682 160.480552 
L 213.147682 160.354676 
L 215.17809 160.354676 
L 215.17809 160.2288 
L 215.958395 160.2288 
L 215.958395 160.102924 
L 217.051741 160.102924 
L 217.051741 159.977048 
L 360.8064 159.977048 
L 360.8064 159.977048 
" style="fill: none; stroke: #ff00ff; stroke-width: 1.5; stroke-linecap: square"/>
   </g>
   <g id="line2d_41">
    <defs>
     <path id="m20a24e34c1" d="M -0 8.485281 
L 5.091169 0 
L 0 -8.485281 
L -5.091169 -0 
z
" style="stroke: #ff00ff; stroke-width: 1.5; stroke-linejoin: miter"/>
    </defs>
    <g>
     <use xlink:href="#m20a24e34c1" x="103.544339" y="277.419228" style="fill-opacity: 0; stroke: #ff00ff; stroke-width: 1.5; stroke-linejoin: miter"/>
     <use xlink:href="#m20a24e34c1" x="165.933882" y="214.103669" style="fill-opacity: 0; stroke: #ff00ff; stroke-width: 1.5; stroke-linejoin: miter"/>
     <use xlink:href="#m20a24e34c1" x="217.051741" y="160.102924" style="fill-opacity: 0; stroke: #ff00ff; stroke-width: 1.5; stroke-linejoin: miter"/>
     <use xlink:href="#m20a24e34c1" x="217.051741" y="159.977048" style="fill-opacity: 0; stroke: #ff00ff; stroke-width: 1.5; stroke-linejoin: miter"/>
     <use xlink:href="#m20a24e34c1" x="217.051741" y="159.977048" style="fill-opacity: 0; stroke: #ff00ff; stroke-width: 1.5; stroke-linejoin: miter"/>
     <use xlink:href="#m20a24e34c1" x="360.8064" y="159.977048" style="fill-opacity: 0; stroke: #ff00ff; stroke-width: 1.5; stroke-linejoin: miter"/>
    </g>
   </g>
   <g id="line2d_42">
    <path style="fill: none; stroke: #ff00ff; stroke-width: 1.5; stroke-linecap: square"/>
    <g/>
   </g>
   <g id="line2d_43">
    <path d="M 274.176094 159.977048 
" clip-path="url(#p90b4cfb1ea)" style="fill: none; stroke: #ff00ff; stroke-width: 1.5; stroke-linecap: square"/>
    <defs>
     <path id="m8e5ac15a1d" d="M -12 12 
L 12 -12 
M -12 -12 
L 12 12 
" style="stroke: #ff00ff"/>
    </defs>
    <g clip-path="url(#p90b4cfb1ea)">
     <use xlink:href="#m8e5ac15a1d" x="274.176094" y="159.977048" style="fill: #ff00ff; stroke: #ff00ff"/>
    </g>
   </g>
   <g id="line2d_44">
    <path d="M 360.8064 175.711531 
L 380.514816 293.10336 
" style="fill: none; stroke: #000080; stroke-width: 1.5; stroke-linecap: square"/>
    <g>
     <use xlink:href="#m44ccf1140c" x="360.8064" y="175.711531" style="fill-opacity: 0; stroke: #000080; stroke-width: 1.5"/>
     <use xlink:href="#m44ccf1140c" x="380.514816" y="293.10336" style="fill-opacity: 0; stroke: #000080; stroke-width: 1.5"/>
    </g>
   </g>
   <g id="line2d_45">
    <path d="M 360.8064 159.977048 
L 380.514816 152.928 
" style="fill: none; stroke: #ff00ff; stroke-width: 1.5; stroke-linecap: square"/>
    <g>
     <use xlink:href="#m20a24e34c1" x="360.8064" y="159.977048" style="fill-opacity: 0; stroke: #ff00ff; stroke-width: 1.5; stroke-linejoin: miter"/>
     <use xlink:href="#m20a24e34c1" x="380.514816" y="152.928" style="fill-opacity: 0; stroke: #ff00ff; stroke-width: 1.5; stroke-linejoin: miter"/>
    </g>
   </g>
   <g id="line2d_46">
    <path d="M 360.8064 298.944 
L 360.8064 6.912 
" style="fill: none; stroke: #000000; stroke-width: 1.5; stroke-linecap: square"/>
   </g>
   <g id="patch_3">
    <path d="M 57.6 298.944 
L 360.8064 298.944 
" style="fill: none; stroke: #000000; stroke-width: 0.8; stroke-linejoin: miter; stroke-linecap: square"/>
   </g>
   <g id="patch_4">
    <path d="M 57.6 6.912 
L 360.8064 6.912 
" style="fill: none; stroke: #000000; stroke-width: 0.8; stroke-linejoin: miter; stroke-linecap: square"/>
   </g>
   <g id="text_13">
    <!-- AllComo -->
    <g transform="translate(386.578944 296.966485) scale(0.14 -0.14)">
     <defs>
      <path id="DejaVuSans-41" d="M 2188 4044 
L 1331 1722 
L 3047 1722 
L 2188 4044 
z
M 1831 4666 
L 2547 4666 
L 4325 0 
L 3669 0 
L 3244 1197 
L 1141 1197 
L 716 0 
L 50 0 
L 1831 4666 
z
" transform="scale(0.015625)"/>
      <path id="DejaVuSans-43" d="M 4122 4306 
L 4122 3641 
Q 3803 3938 3442 4084 
Q 3081 4231 2675 4231 
Q 1875 4231 1450 3742 
Q 1025 3253 1025 2328 
Q 1025 1406 1450 917 
Q 1875 428 2675 428 
Q 3081 428 3442 575 
Q 3803 722 4122 1019 
L 4122 359 
Q 3791 134 3420 21 
Q 3050 -91 2638 -91 
Q 1578 -91 968 557 
Q 359 1206 359 2328 
Q 359 3453 968 4101 
Q 1578 4750 2638 4750 
Q 3056 4750 3426 4639 
Q 3797 4528 4122 4306 
z
" transform="scale(0.015625)"/>
     </defs>
     <use xlink:href="#DejaVuSans-41"/>
     <use xlink:href="#DejaVuSans-6c" x="68.408203"/>
     <use xlink:href="#DejaVuSans-6c" x="96.191406"/>
     <use xlink:href="#DejaVuSans-43" x="123.974609"/>
     <use xlink:href="#DejaVuSans-6f" x="193.798828"/>
     <use xlink:href="#DejaVuSans-6d" x="254.980469"/>
     <use xlink:href="#DejaVuSans-6f" x="352.392578"/>
    </g>
   </g>
   <g id="text_14">
    <!-- COMO-10 d -->
    <g transform="translate(386.578944 156.791125) scale(0.14 -0.14)">
     <defs>
      <path id="DejaVuSans-4f" d="M 2522 4238 
Q 1834 4238 1429 3725 
Q 1025 3213 1025 2328 
Q 1025 1447 1429 934 
Q 1834 422 2522 422 
Q 3209 422 3611 934 
Q 4013 1447 4013 2328 
Q 4013 3213 3611 3725 
Q 3209 4238 2522 4238 
z
M 2522 4750 
Q 3503 4750 4090 4092 
Q 4678 3434 4678 2328 
Q 4678 1225 4090 567 
Q 3503 -91 2522 -91 
Q 1538 -91 948 565 
Q 359 1222 359 2328 
Q 359 3434 948 4092 
Q 1538 4750 2522 4750 
z
" transform="scale(0.015625)"/>
      <path id="DejaVuSans-4d" d="M 628 4666 
L 1569 4666 
L 2759 1491 
L 3956 4666 
L 4897 4666 
L 4897 0 
L 4281 0 
L 4281 4097 
L 3078 897 
L 2444 897 
L 1241 4097 
L 1241 0 
L 628 0 
L 628 4666 
z
" transform="scale(0.015625)"/>
     </defs>
     <use xlink:href="#DejaVuSans-43"/>
     <use xlink:href="#DejaVuSans-4f" x="69.824219"/>
     <use xlink:href="#DejaVuSans-4d" x="148.535156"/>
     <use xlink:href="#DejaVuSans-4f" x="234.814453"/>
     <use xlink:href="#DejaVuSans-2d" x="316.275391"/>
     <use xlink:href="#DejaVuSans-31" x="352.359375"/>
     <use xlink:href="#DejaVuSans-30" x="415.982422"/>
     <use xlink:href="#DejaVuSans-20" x="479.605469"/>
     <use xlink:href="#DejaVuSans-64" x="511.392578"/>
    </g>
   </g>
   <g id="text_15">
    <!-- best 2016 -->
    <g transform="translate(386.578944 16.615765) scale(0.14 -0.14)">
     <defs>
      <path id="DejaVuSans-62" d="M 3116 1747 
Q 3116 2381 2855 2742 
Q 2594 3103 2138 3103 
Q 1681 3103 1420 2742 
Q 1159 2381 1159 1747 
Q 1159 1113 1420 752 
Q 1681 391 2138 391 
Q 2594 391 2855 752 
Q 3116 1113 3116 1747 
z
M 1159 2969 
Q 1341 3281 1617 3432 
Q 1894 3584 2278 3584 
Q 2916 3584 3314 3078 
Q 3713 2572 3713 1747 
Q 3713 922 3314 415 
Q 2916 -91 2278 -91 
Q 1894 -91 1617 61 
Q 1341 213 1159 525 
L 1159 0 
L 581 0 
L 581 4863 
L 1159 4863 
L 1159 2969 
z
" transform="scale(0.015625)"/>
     </defs>
     <use xlink:href="#DejaVuSans-62"/>
     <use xlink:href="#DejaVuSans-65" x="63.476562"/>
     <use xlink:href="#DejaVuSans-73" x="125"/>
     <use xlink:href="#DejaVuSans-74" x="177.099609"/>
     <use xlink:href="#DejaVuSans-20" x="216.308594"/>
     <use xlink:href="#DejaVuSans-32" x="248.095703"/>
     <use xlink:href="#DejaVuSans-30" x="311.71875"/>
     <use xlink:href="#DejaVuSans-31" x="375.341797"/>
     <use xlink:href="#DejaVuSans-36" x="438.964844"/>
    </g>
   </g>
   <g id="text_16">
    <!-- bbob-biobj f39, f40, f44, f45, 2-D -->
    <g transform="translate(60.632064 17.582726) scale(0.102 -0.102)">
     <defs>
      <path id="DejaVuSans-6a" d="M 603 3500 
L 1178 3500 
L 1178 -63 
Q 1178 -731 923 -1031 
Q 669 -1331 103 -1331 
L -116 -1331 
L -116 -844 
L 38 -844 
Q 366 -844 484 -692 
Q 603 -541 603 -63 
L 603 3500 
z
M 603 4863 
L 1178 4863 
L 1178 4134 
L 603 4134 
L 603 4863 
z
" transform="scale(0.015625)"/>
      <path id="DejaVuSans-33" d="M 2597 2516 
Q 3050 2419 3304 2112 
Q 3559 1806 3559 1356 
Q 3559 666 3084 287 
Q 2609 -91 1734 -91 
Q 1441 -91 1130 -33 
Q 819 25 488 141 
L 488 750 
Q 750 597 1062 519 
Q 1375 441 1716 441 
Q 2309 441 2620 675 
Q 2931 909 2931 1356 
Q 2931 1769 2642 2001 
Q 2353 2234 1838 2234 
L 1294 2234 
L 1294 2753 
L 1863 2753 
Q 2328 2753 2575 2939 
Q 2822 3125 2822 3475 
Q 2822 3834 2567 4026 
Q 2313 4219 1838 4219 
Q 1578 4219 1281 4162 
Q 984 4106 628 3988 
L 628 4550 
Q 988 4650 1302 4700 
Q 1616 4750 1894 4750 
Q 2613 4750 3031 4423 
Q 3450 4097 3450 3541 
Q 3450 3153 3228 2886 
Q 3006 2619 2597 2516 
z
" transform="scale(0.015625)"/>
      <path id="DejaVuSans-39" d="M 703 97 
L 703 672 
Q 941 559 1184 500 
Q 1428 441 1663 441 
Q 2288 441 2617 861 
Q 2947 1281 2994 2138 
Q 2813 1869 2534 1725 
Q 2256 1581 1919 1581 
Q 1219 1581 811 2004 
Q 403 2428 403 3163 
Q 403 3881 828 4315 
Q 1253 4750 1959 4750 
Q 2769 4750 3195 4129 
Q 3622 3509 3622 2328 
Q 3622 1225 3098 567 
Q 2575 -91 1691 -91 
Q 1453 -91 1209 -44 
Q 966 3 703 97 
z
M 1959 2075 
Q 2384 2075 2632 2365 
Q 2881 2656 2881 3163 
Q 2881 3666 2632 3958 
Q 2384 4250 1959 4250 
Q 1534 4250 1286 3958 
Q 1038 3666 1038 3163 
Q 1038 2656 1286 2365 
Q 1534 2075 1959 2075 
z
" transform="scale(0.015625)"/>
      <path id="DejaVuSans-35" d="M 691 4666 
L 3169 4666 
L 3169 4134 
L 1269 4134 
L 1269 2991 
Q 1406 3038 1543 3061 
Q 1681 3084 1819 3084 
Q 2600 3084 3056 2656 
Q 3513 2228 3513 1497 
Q 3513 744 3044 326 
Q 2575 -91 1722 -91 
Q 1428 -91 1123 -41 
Q 819 9 494 109 
L 494 744 
Q 775 591 1075 516 
Q 1375 441 1709 441 
Q 2250 441 2565 725 
Q 2881 1009 2881 1497 
Q 2881 1984 2565 2268 
Q 2250 2553 1709 2553 
Q 1456 2553 1204 2497 
Q 953 2441 691 2322 
L 691 4666 
z
" transform="scale(0.015625)"/>
      <path id="DejaVuSans-44" d="M 1259 4147 
L 1259 519 
L 2022 519 
Q 2988 519 3436 956 
Q 3884 1394 3884 2338 
Q 3884 3275 3436 3711 
Q 2988 4147 2022 4147 
L 1259 4147 
z
M 628 4666 
L 1925 4666 
Q 3281 4666 3915 4102 
Q 4550 3538 4550 2338 
Q 4550 1131 3912 565 
Q 3275 0 1925 0 
L 628 0 
L 628 4666 
z
" transform="scale(0.015625)"/>
     </defs>
     <use xlink:href="#DejaVuSans-62"/>
     <use xlink:href="#DejaVuSans-62" x="63.476562"/>
     <use xlink:href="#DejaVuSans-6f" x="126.953125"/>
     <use xlink:href="#DejaVuSans-62" x="188.134766"/>
     <use xlink:href="#DejaVuSans-2d" x="251.611328"/>
     <use xlink:href="#DejaVuSans-62" x="287.695312"/>
     <use xlink:href="#DejaVuSans-69" x="351.171875"/>
     <use xlink:href="#DejaVuSans-6f" x="378.955078"/>
     <use xlink:href="#DejaVuSans-62" x="440.136719"/>
     <use xlink:href="#DejaVuSans-6a" x="503.613281"/>
     <use xlink:href="#DejaVuSans-20" x="531.396484"/>
     <use xlink:href="#DejaVuSans-66" x="563.183594"/>
     <use xlink:href="#DejaVuSans-33" x="598.388672"/>
     <use xlink:href="#DejaVuSans-39" x="662.011719"/>
     <use xlink:href="#DejaVuSans-2c" x="725.634766"/>
     <use xlink:href="#DejaVuSans-20" x="757.421875"/>
     <use xlink:href="#DejaVuSans-66" x="789.208984"/>
     <use xlink:href="#DejaVuSans-34" x="824.414062"/>
     <use xlink:href="#DejaVuSans-30" x="888.037109"/>
     <use xlink:href="#DejaVuSans-2c" x="951.660156"/>
     <use xlink:href="#DejaVuSans-20" x="983.447266"/>
     <use xlink:href="#DejaVuSans-66" x="1015.234375"/>
     <use xlink:href="#DejaVuSans-34" x="1050.439453"/>
     <use xlink:href="#DejaVuSans-34" x="1114.0625"/>
     <use xlink:href="#DejaVuSans-2c" x="1177.685547"/>
     <use xlink:href="#DejaVuSans-20" x="1209.472656"/>
     <use xlink:href="#DejaVuSans-66" x="1241.259766"/>
     <use xlink:href="#DejaVuSans-34" x="1276.464844"/>
     <use xlink:href="#DejaVuSans-35" x="1340.087891"/>
     <use xlink:href="#DejaVuSans-2c" x="1403.710938"/>
     <use xlink:href="#DejaVuSans-20" x="1435.498047"/>
     <use xlink:href="#DejaVuSans-32" x="1467.285156"/>
     <use xlink:href="#DejaVuSans-2d" x="1530.908203"/>
     <use xlink:href="#DejaVuSans-44" x="1566.992188"/>
    </g>
    <!-- 58 targets: 1..-1.0e-4 -->
    <g transform="translate(60.632064 29.004495) scale(0.102 -0.102)">
     <defs>
      <path id="DejaVuSans-3a" d="M 750 794 
L 1409 794 
L 1409 0 
L 750 0 
L 750 794 
z
M 750 3309 
L 1409 3309 
L 1409 2516 
L 750 2516 
L 750 3309 
z
" transform="scale(0.015625)"/>
     </defs>
     <use xlink:href="#DejaVuSans-35"/>
     <use xlink:href="#DejaVuSans-38" x="63.623047"/>
     <use xlink:href="#DejaVuSans-20" x="127.246094"/>
     <use xlink:href="#DejaVuSans-74" x="159.033203"/>
     <use xlink:href="#DejaVuSans-61" x="198.242188"/>
     <use xlink:href="#DejaVuSans-72" x="259.521484"/>
     <use xlink:href="#DejaVuSans-67" x="298.884766"/>
     <use xlink:href="#DejaVuSans-65" x="362.361328"/>
     <use xlink:href="#DejaVuSans-74" x="423.884766"/>
     <use xlink:href="#DejaVuSans-73" x="463.09375"/>
     <use xlink:href="#DejaVuSans-3a" x="515.193359"/>
     <use xlink:href="#DejaVuSans-20" x="548.884766"/>
     <use xlink:href="#DejaVuSans-31" x="580.671875"/>
     <use xlink:href="#DejaVuSans-2e" x="644.294922"/>
     <use xlink:href="#DejaVuSans-2e" x="676.082031"/>
     <use xlink:href="#DejaVuSans-2d" x="707.869141"/>
     <use xlink:href="#DejaVuSans-31" x="743.953125"/>
     <use xlink:href="#DejaVuSans-2e" x="807.576172"/>
     <use xlink:href="#DejaVuSans-30" x="839.363281"/>
     <use xlink:href="#DejaVuSans-65" x="902.986328"/>
     <use xlink:href="#DejaVuSans-2d" x="964.509766"/>
     <use xlink:href="#DejaVuSans-34" x="1000.59375"/>
    </g>
    <!-- 10 instances -->
    <g transform="translate(60.632064 40.426264) scale(0.102 -0.102)">
     <use xlink:href="#DejaVuSans-31"/>
     <use xlink:href="#DejaVuSans-30" x="63.623047"/>
     <use xlink:href="#DejaVuSans-20" x="127.246094"/>
     <use xlink:href="#DejaVuSans-69" x="159.033203"/>
     <use xlink:href="#DejaVuSans-6e" x="186.816406"/>
     <use xlink:href="#DejaVuSans-73" x="250.195312"/>
     <use xlink:href="#DejaVuSans-74" x="302.294922"/>
     <use xlink:href="#DejaVuSans-61" x="341.503906"/>
     <use xlink:href="#DejaVuSans-6e" x="402.783203"/>
     <use xlink:href="#DejaVuSans-63" x="466.162109"/>
     <use xlink:href="#DejaVuSans-65" x="521.142578"/>
     <use xlink:href="#DejaVuSans-73" x="582.666016"/>
    </g>
   </g>
   <g id="text_17">
    <!-- v2.6, hv-hash=ff0e71e8cd978373 -->
    <g style="fill: #808080" transform="translate(123.707887 293.943992) scale(0.1 -0.1)">
     <defs>
      <path id="DejaVuSans-68" d="M 3513 2113 
L 3513 0 
L 2938 0 
L 2938 2094 
Q 2938 2591 2744 2837 
Q 2550 3084 2163 3084 
Q 1697 3084 1428 2787 
Q 1159 2491 1159 1978 
L 1159 0 
L 581 0 
L 581 4863 
L 1159 4863 
L 1159 2956 
Q 1366 3272 1645 3428 
Q 1925 3584 2291 3584 
Q 2894 3584 3203 3211 
Q 3513 2838 3513 2113 
z
" transform="scale(0.015625)"/>
      <path id="DejaVuSans-3d" d="M 678 2906 
L 4684 2906 
L 4684 2381 
L 678 2381 
L 678 2906 
z
M 678 1631 
L 4684 1631 
L 4684 1100 
L 678 1100 
L 678 1631 
z
" transform="scale(0.015625)"/>
      <path id="DejaVuSans-37" d="M 525 4666 
L 3525 4666 
L 3525 4397 
L 1831 0 
L 1172 0 
L 2766 4134 
L 525 4134 
L 525 4666 
z
" transform="scale(0.015625)"/>
     </defs>
     <use xlink:href="#DejaVuSans-76"/>
     <use xlink:href="#DejaVuSans-32" x="59.179688"/>
     <use xlink:href="#DejaVuSans-2e" x="122.802734"/>
     <use xlink:href="#DejaVuSans-36" x="154.589844"/>
     <use xlink:href="#DejaVuSans-2c" x="218.212891"/>
     <use xlink:href="#DejaVuSans-20" x="250"/>
     <use xlink:href="#DejaVuSans-68" x="281.787109"/>
     <use xlink:href="#DejaVuSans-76" x="345.166016"/>
     <use xlink:href="#DejaVuSans-2d" x="401.720703"/>
     <use xlink:href="#DejaVuSans-68" x="437.804688"/>
     <use xlink:href="#DejaVuSans-61" x="501.183594"/>
     <use xlink:href="#DejaVuSans-73" x="562.462891"/>
     <use xlink:href="#DejaVuSans-68" x="614.5625"/>
     <use xlink:href="#DejaVuSans-3d" x="677.941406"/>
     <use xlink:href="#DejaVuSans-66" x="761.730469"/>
     <use xlink:href="#DejaVuSans-66" x="796.935547"/>
     <use xlink:href="#DejaVuSans-30" x="832.140625"/>
     <use xlink:href="#DejaVuSans-65" x="895.763672"/>
     <use xlink:href="#DejaVuSans-37" x="957.287109"/>
     <use xlink:href="#DejaVuSans-31" x="1020.910156"/>
     <use xlink:href="#DejaVuSans-65" x="1084.533203"/>
     <use xlink:href="#DejaVuSans-38" x="1146.056641"/>
     <use xlink:href="#DejaVuSans-63" x="1209.679688"/>
     <use xlink:href="#DejaVuSans-64" x="1264.660156"/>
     <use xlink:href="#DejaVuSans-39" x="1328.136719"/>
     <use xlink:href="#DejaVuSans-37" x="1391.759766"/>
     <use xlink:href="#DejaVuSans-38" x="1455.382812"/>
     <use xlink:href="#DejaVuSans-33" x="1519.005859"/>
     <use xlink:href="#DejaVuSans-37" x="1582.628906"/>
     <use xlink:href="#DejaVuSans-33" x="1646.251953"/>
    </g>
   </g>
  </g>
 </g>
 <defs>
  <clipPath id="p90b4cfb1ea">
   <rect x="57.6" y="6.912" width="303.2064" height="292.032"/>
  </clipPath>
 </defs>
</svg>
