<?xml version="1.0" encoding="utf-8" standalone="no"?>
<!DOCTYPE svg PUBLIC "-//W3C//DTD SVG 1.1//EN"
  "http://www.w3.org/Graphics/SVG/1.1/DTD/svg11.dtd">
<svg xmlns:xlink="http://www.w3.org/1999/xlink" width="460.8pt" height="345.6pt" viewBox="0 0 460.8 345.6" xmlns="http://www.w3.org/2000/svg" version="1.1">
 <metadata>
  <rdf:RDF xmlns:dc="http://purl.org/dc/elements/1.1/" xmlns:cc="http://creativecommons.org/ns#" xmlns:rdf="http://www.w3.org/1999/02/22-rdf-syntax-ns#">
   <cc:Work>
    <dc:type rdf:resource="http://purl.org/dc/dcmitype/StillImage"/>
    <dc:date>2023-02-10T14:01:51.438693</dc:date>
    <dc:format>image/svg+xml</dc:format>
    <dc:creator>
     <cc:Agent>
      <dc:title>Matplotlib v3.6.3, https://matplotlib.org/</dc:title>
     </cc:Agent>
    </dc:creator>
   </cc:Work>
  </rdf:RDF>
 </metadata>
 <defs>
  <style type="text/css">*{stroke-linejoin: round; stroke-linecap: butt}</style>
 </defs>
 <g id="figure_1">
  <g id="patch_1">
   <path d="M 0 345.6 
L 460.8 345.6 
L 460.8 0 
L 0 0 
z
" style="fill: #ffffff"/>
  </g>
  <g id="axes_1">
   <g id="patch_2">
    <path d="M 57.6 298.944 
L 360.8064 298.944 
L 360.8064 27.648 
L 57.6 27.648 
z
" style="fill: #ffffff"/>
   </g>
   <g id="line2d_1">
    <path d="M 21.912228 298.944 
L 21.912228 294.266483 
L 40.363149 294.266483 
L 40.363149 284.911448 
L 71.103681 284.911448 
L 71.103681 275.556414 
L 83.678349 275.556414 
L 83.678349 270.878897 
L 95.250946 270.878897 
L 95.250946 256.846345 
L 104.809458 256.846345 
L 104.809458 247.49131 
L 113.429811 247.49131 
L 113.429811 242.813793 
L 121.768984 242.813793 
L 121.768984 233.458759 
L 130.887807 233.458759 
L 130.887807 219.426207 
L 141.051049 219.426207 
L 141.051049 210.071172 
L 152.936202 210.071172 
L 152.936202 200.716138 
L 165.51383 200.716138 
L 165.51383 191.361103 
L 176.713745 191.361103 
L 176.713745 186.683586 
L 189.96253 186.683586 
L 189.96253 172.651034 
L 206.022134 172.651034 
L 206.022134 167.973517 
L 219.141974 167.973517 
L 219.141974 153.940966 
L 233.709565 153.940966 
L 233.709565 144.585931 
L 247.452073 144.585931 
L 247.452073 139.908414 
L 265.940948 139.908414 
L 265.940948 125.875862 
L 278.331077 125.875862 
L 278.331077 121.198345 
L 290.188188 121.198345 
L 290.188188 107.165793 
L 303.541005 107.165793 
L 303.541005 97.810759 
L 321.850449 97.810759 
L 321.850449 88.455724 
L 329.270454 88.455724 
L 329.270454 83.778207 
L 349.534479 83.778207 
L 349.534479 74.423172 
L 359.758801 74.423172 
L 359.758801 60.390621 
L 360.8064 60.390621 
" style="fill: none; stroke: #f5deb3; stroke-width: 4; stroke-linecap: square"/>
   </g>
   <g id="line2d_2">
    <defs>
     <path id="m267e48b280" d="M -0 7.778175 
L 7.778175 0 
L 0 -7.778175 
L -7.778175 -0 
z
" style="stroke: #f5deb3; stroke-width: 1.5; stroke-linejoin: miter"/>
    </defs>
    <g>
     <use xlink:href="#m267e48b280" x="71.103681" y="284.911448" style="fill: #f5deb3; stroke: #f5deb3; stroke-width: 1.5; stroke-linejoin: miter"/>
     <use xlink:href="#m267e48b280" x="130.887807" y="233.458759" style="fill: #f5deb3; stroke: #f5deb3; stroke-width: 1.5; stroke-linejoin: miter"/>
     <use xlink:href="#m267e48b280" x="219.141974" y="167.973517" style="fill: #f5deb3; stroke: #f5deb3; stroke-width: 1.5; stroke-linejoin: miter"/>
     <use xlink:href="#m267e48b280" x="303.541005" y="107.165793" style="fill: #f5deb3; stroke: #f5deb3; stroke-width: 1.5; stroke-linejoin: miter"/>
     <use xlink:href="#m267e48b280" x="359.758801" y="60.390621" style="fill: #f5deb3; stroke: #f5deb3; stroke-width: 1.5; stroke-linejoin: miter"/>
     <use xlink:href="#m267e48b280" x="360.8064" y="60.390621" style="fill: #f5deb3; stroke: #f5deb3; stroke-width: 1.5; stroke-linejoin: miter"/>
    </g>
   </g>
   <g id="line2d_3">
    <path style="fill: none; stroke: #f5deb3; stroke-width: 4; stroke-linecap: square"/>
    <g/>
   </g>
   <g id="line2d_4">
    <path d="M 360.8064 60.390621 
L 380.514816 33.07392 
" style="fill: none; stroke: #f5deb3; stroke-width: 4; stroke-linecap: square"/>
    <g>
     <use xlink:href="#m267e48b280" x="360.8064" y="60.390621" style="fill: #f5deb3; stroke: #f5deb3; stroke-width: 1.5; stroke-linejoin: miter"/>
     <use xlink:href="#m267e48b280" x="380.514816" y="33.07392" style="fill: #f5deb3; stroke: #f5deb3; stroke-width: 1.5; stroke-linejoin: miter"/>
    </g>
   </g>
   <g id="matplotlib.axis_1">
    <g id="xtick_1">
     <g id="line2d_5">
      <path d="M 57.6 298.944 
L 57.6 27.648 
" clip-path="url(#pcd7e3ccd72)" style="fill: none; stroke: #b0b0b0; stroke-width: 0.8; stroke-linecap: square"/>
     </g>
     <g id="line2d_6">
      <defs>
       <path id="mf8612bc8aa" d="M 0 0 
L 0 3.5 
" style="stroke: #000000; stroke-width: 0.8"/>
      </defs>
      <g>
       <use xlink:href="#mf8612bc8aa" x="57.6" y="298.944" style="stroke: #000000; stroke-width: 0.8"/>
      </g>
     </g>
     <g id="text_1">
      <!-- 0 -->
      <g transform="translate(52.191875 318.861344) scale(0.17 -0.17)">
       <defs>
        <path id="DejaVuSans-30" d="M 2034 4250 
Q 1547 4250 1301 3770 
Q 1056 3291 1056 2328 
Q 1056 1369 1301 889 
Q 1547 409 2034 409 
Q 2525 409 2770 889 
Q 3016 1369 3016 2328 
Q 3016 3291 2770 3770 
Q 2525 4250 2034 4250 
z
M 2034 4750 
Q 2819 4750 3233 4129 
Q 3647 3509 3647 2328 
Q 3647 1150 3233 529 
Q 2819 -91 2034 -91 
Q 1250 -91 836 529 
Q 422 1150 422 2328 
Q 422 3509 836 4129 
Q 1250 4750 2034 4750 
z
" transform="scale(0.015625)"/>
       </defs>
       <use xlink:href="#DejaVuSans-30"/>
      </g>
     </g>
    </g>
    <g id="xtick_2">
     <g id="line2d_7">
      <path d="M 144.2304 298.944 
L 144.2304 27.648 
" clip-path="url(#pcd7e3ccd72)" style="fill: none; stroke: #b0b0b0; stroke-width: 0.8; stroke-linecap: square"/>
     </g>
     <g id="line2d_8">
      <g>
       <use xlink:href="#mf8612bc8aa" x="144.2304" y="298.944" style="stroke: #000000; stroke-width: 0.8"/>
      </g>
     </g>
     <g id="text_2">
      <!-- 2 -->
      <g transform="translate(138.822275 318.861344) scale(0.17 -0.17)">
       <defs>
        <path id="DejaVuSans-32" d="M 1228 531 
L 3431 531 
L 3431 0 
L 469 0 
L 469 531 
Q 828 903 1448 1529 
Q 2069 2156 2228 2338 
Q 2531 2678 2651 2914 
Q 2772 3150 2772 3378 
Q 2772 3750 2511 3984 
Q 2250 4219 1831 4219 
Q 1534 4219 1204 4116 
Q 875 4013 500 3803 
L 500 4441 
Q 881 4594 1212 4672 
Q 1544 4750 1819 4750 
Q 2544 4750 2975 4387 
Q 3406 4025 3406 3419 
Q 3406 3131 3298 2873 
Q 3191 2616 2906 2266 
Q 2828 2175 2409 1742 
Q 1991 1309 1228 531 
z
" transform="scale(0.015625)"/>
       </defs>
       <use xlink:href="#DejaVuSans-32"/>
      </g>
     </g>
    </g>
    <g id="xtick_3">
     <g id="line2d_9">
      <path d="M 230.8608 298.944 
L 230.8608 27.648 
" clip-path="url(#pcd7e3ccd72)" style="fill: none; stroke: #b0b0b0; stroke-width: 0.8; stroke-linecap: square"/>
     </g>
     <g id="line2d_10">
      <g>
       <use xlink:href="#mf8612bc8aa" x="230.8608" y="298.944" style="stroke: #000000; stroke-width: 0.8"/>
      </g>
     </g>
     <g id="text_3">
      <!-- 4 -->
      <g transform="translate(225.452675 318.861344) scale(0.17 -0.17)">
       <defs>
        <path id="DejaVuSans-34" d="M 2419 4116 
L 825 1625 
L 2419 1625 
L 2419 4116 
z
M 2253 4666 
L 3047 4666 
L 3047 1625 
L 3713 1625 
L 3713 1100 
L 3047 1100 
L 3047 0 
L 2419 0 
L 2419 1100 
L 313 1100 
L 313 1709 
L 2253 4666 
z
" transform="scale(0.015625)"/>
       </defs>
       <use xlink:href="#DejaVuSans-34"/>
      </g>
     </g>
    </g>
    <g id="xtick_4">
     <g id="line2d_11">
      <path d="M 317.4912 298.944 
L 317.4912 27.648 
" clip-path="url(#pcd7e3ccd72)" style="fill: none; stroke: #b0b0b0; stroke-width: 0.8; stroke-linecap: square"/>
     </g>
     <g id="line2d_12">
      <g>
       <use xlink:href="#mf8612bc8aa" x="317.4912" y="298.944" style="stroke: #000000; stroke-width: 0.8"/>
      </g>
     </g>
     <g id="text_4">
      <!-- 6 -->
      <g transform="translate(312.083075 318.861344) scale(0.17 -0.17)">
       <defs>
        <path id="DejaVuSans-36" d="M 2113 2584 
Q 1688 2584 1439 2293 
Q 1191 2003 1191 1497 
Q 1191 994 1439 701 
Q 1688 409 2113 409 
Q 2538 409 2786 701 
Q 3034 994 3034 1497 
Q 3034 2003 2786 2293 
Q 2538 2584 2113 2584 
z
M 3366 4563 
L 3366 3988 
Q 3128 4100 2886 4159 
Q 2644 4219 2406 4219 
Q 1781 4219 1451 3797 
Q 1122 3375 1075 2522 
Q 1259 2794 1537 2939 
Q 1816 3084 2150 3084 
Q 2853 3084 3261 2657 
Q 3669 2231 3669 1497 
Q 3669 778 3244 343 
Q 2819 -91 2113 -91 
Q 1303 -91 875 529 
Q 447 1150 447 2328 
Q 447 3434 972 4092 
Q 1497 4750 2381 4750 
Q 2619 4750 2861 4703 
Q 3103 4656 3366 4563 
z
" transform="scale(0.015625)"/>
       </defs>
       <use xlink:href="#DejaVuSans-36"/>
      </g>
     </g>
    </g>
    <g id="xtick_5">
     <g id="line2d_13">
      <path d="M 100.9152 298.944 
L 100.9152 27.648 
" clip-path="url(#pcd7e3ccd72)" style="fill: none; stroke: #b0b0b0; stroke-width: 0.8; stroke-linecap: square"/>
     </g>
     <g id="line2d_14">
      <defs>
       <path id="m03ecc42a23" d="M 0 0 
L 0 2 
" style="stroke: #000000; stroke-width: 0.6"/>
      </defs>
      <g>
       <use xlink:href="#m03ecc42a23" x="100.9152" y="298.944" style="stroke: #000000; stroke-width: 0.6"/>
      </g>
     </g>
    </g>
    <g id="xtick_6">
     <g id="line2d_15">
      <path d="M 187.5456 298.944 
L 187.5456 27.648 
" clip-path="url(#pcd7e3ccd72)" style="fill: none; stroke: #b0b0b0; stroke-width: 0.8; stroke-linecap: square"/>
     </g>
     <g id="line2d_16">
      <g>
       <use xlink:href="#m03ecc42a23" x="187.5456" y="298.944" style="stroke: #000000; stroke-width: 0.6"/>
      </g>
     </g>
    </g>
    <g id="xtick_7">
     <g id="line2d_17">
      <path d="M 274.176 298.944 
L 274.176 27.648 
" clip-path="url(#pcd7e3ccd72)" style="fill: none; stroke: #b0b0b0; stroke-width: 0.8; stroke-linecap: square"/>
     </g>
     <g id="line2d_18">
      <g>
       <use xlink:href="#m03ecc42a23" x="274.176" y="298.944" style="stroke: #000000; stroke-width: 0.6"/>
      </g>
     </g>
    </g>
    <g id="xtick_8">
     <g id="line2d_19">
      <path d="M 360.8064 298.944 
L 360.8064 27.648 
" clip-path="url(#pcd7e3ccd72)" style="fill: none; stroke: #b0b0b0; stroke-width: 0.8; stroke-linecap: square"/>
     </g>
     <g id="line2d_20">
      <g>
       <use xlink:href="#m03ecc42a23" x="360.8064" y="298.944" style="stroke: #000000; stroke-width: 0.6"/>
      </g>
     </g>
    </g>
    <g id="text_5">
     <!-- log10(# f-evals / dimension) -->
     <g transform="translate(88.823278 339.314156) scale(0.17 -0.17)">
      <defs>
       <path id="DejaVuSans-6c" d="M 603 4863 
L 1178 4863 
L 1178 0 
L 603 0 
L 603 4863 
z
" transform="scale(0.015625)"/>
       <path id="DejaVuSans-6f" d="M 1959 3097 
Q 1497 3097 1228 2736 
Q 959 2375 959 1747 
Q 959 1119 1226 758 
Q 1494 397 1959 397 
Q 2419 397 2687 759 
Q 2956 1122 2956 1747 
Q 2956 2369 2687 2733 
Q 2419 3097 1959 3097 
z
M 1959 3584 
Q 2709 3584 3137 3096 
Q 3566 2609 3566 1747 
Q 3566 888 3137 398 
Q 2709 -91 1959 -91 
Q 1206 -91 779 398 
Q 353 888 353 1747 
Q 353 2609 779 3096 
Q 1206 3584 1959 3584 
z
" transform="scale(0.015625)"/>
       <path id="DejaVuSans-67" d="M 2906 1791 
Q 2906 2416 2648 2759 
Q 2391 3103 1925 3103 
Q 1463 3103 1205 2759 
Q 947 2416 947 1791 
Q 947 1169 1205 825 
Q 1463 481 1925 481 
Q 2391 481 2648 825 
Q 2906 1169 2906 1791 
z
M 3481 434 
Q 3481 -459 3084 -895 
Q 2688 -1331 1869 -1331 
Q 1566 -1331 1297 -1286 
Q 1028 -1241 775 -1147 
L 775 -588 
Q 1028 -725 1275 -790 
Q 1522 -856 1778 -856 
Q 2344 -856 2625 -561 
Q 2906 -266 2906 331 
L 2906 616 
Q 2728 306 2450 153 
Q 2172 0 1784 0 
Q 1141 0 747 490 
Q 353 981 353 1791 
Q 353 2603 747 3093 
Q 1141 3584 1784 3584 
Q 2172 3584 2450 3431 
Q 2728 3278 2906 2969 
L 2906 3500 
L 3481 3500 
L 3481 434 
z
" transform="scale(0.015625)"/>
       <path id="DejaVuSans-31" d="M 794 531 
L 1825 531 
L 1825 4091 
L 703 3866 
L 703 4441 
L 1819 4666 
L 2450 4666 
L 2450 531 
L 3481 531 
L 3481 0 
L 794 0 
L 794 531 
z
" transform="scale(0.015625)"/>
       <path id="DejaVuSans-28" d="M 1984 4856 
Q 1566 4138 1362 3434 
Q 1159 2731 1159 2009 
Q 1159 1288 1364 580 
Q 1569 -128 1984 -844 
L 1484 -844 
Q 1016 -109 783 600 
Q 550 1309 550 2009 
Q 550 2706 781 3412 
Q 1013 4119 1484 4856 
L 1984 4856 
z
" transform="scale(0.015625)"/>
       <path id="DejaVuSans-23" d="M 3272 2816 
L 2363 2816 
L 2100 1772 
L 3016 1772 
L 3272 2816 
z
M 2803 4594 
L 2478 3297 
L 3391 3297 
L 3719 4594 
L 4219 4594 
L 3897 3297 
L 4872 3297 
L 4872 2816 
L 3775 2816 
L 3519 1772 
L 4513 1772 
L 4513 1294 
L 3397 1294 
L 3072 0 
L 2572 0 
L 2894 1294 
L 1978 1294 
L 1656 0 
L 1153 0 
L 1478 1294 
L 494 1294 
L 494 1772 
L 1594 1772 
L 1856 2816 
L 850 2816 
L 850 3297 
L 1978 3297 
L 2297 4594 
L 2803 4594 
z
" transform="scale(0.015625)"/>
       <path id="DejaVuSans-20" transform="scale(0.015625)"/>
       <path id="DejaVuSans-66" d="M 2375 4863 
L 2375 4384 
L 1825 4384 
Q 1516 4384 1395 4259 
Q 1275 4134 1275 3809 
L 1275 3500 
L 2222 3500 
L 2222 3053 
L 1275 3053 
L 1275 0 
L 697 0 
L 697 3053 
L 147 3053 
L 147 3500 
L 697 3500 
L 697 3744 
Q 697 4328 969 4595 
Q 1241 4863 1831 4863 
L 2375 4863 
z
" transform="scale(0.015625)"/>
       <path id="DejaVuSans-2d" d="M 313 2009 
L 1997 2009 
L 1997 1497 
L 313 1497 
L 313 2009 
z
" transform="scale(0.015625)"/>
       <path id="DejaVuSans-65" d="M 3597 1894 
L 3597 1613 
L 953 1613 
Q 991 1019 1311 708 
Q 1631 397 2203 397 
Q 2534 397 2845 478 
Q 3156 559 3463 722 
L 3463 178 
Q 3153 47 2828 -22 
Q 2503 -91 2169 -91 
Q 1331 -91 842 396 
Q 353 884 353 1716 
Q 353 2575 817 3079 
Q 1281 3584 2069 3584 
Q 2775 3584 3186 3129 
Q 3597 2675 3597 1894 
z
M 3022 2063 
Q 3016 2534 2758 2815 
Q 2500 3097 2075 3097 
Q 1594 3097 1305 2825 
Q 1016 2553 972 2059 
L 3022 2063 
z
" transform="scale(0.015625)"/>
       <path id="DejaVuSans-76" d="M 191 3500 
L 800 3500 
L 1894 563 
L 2988 3500 
L 3597 3500 
L 2284 0 
L 1503 0 
L 191 3500 
z
" transform="scale(0.015625)"/>
       <path id="DejaVuSans-61" d="M 2194 1759 
Q 1497 1759 1228 1600 
Q 959 1441 959 1056 
Q 959 750 1161 570 
Q 1363 391 1709 391 
Q 2188 391 2477 730 
Q 2766 1069 2766 1631 
L 2766 1759 
L 2194 1759 
z
M 3341 1997 
L 3341 0 
L 2766 0 
L 2766 531 
Q 2569 213 2275 61 
Q 1981 -91 1556 -91 
Q 1019 -91 701 211 
Q 384 513 384 1019 
Q 384 1609 779 1909 
Q 1175 2209 1959 2209 
L 2766 2209 
L 2766 2266 
Q 2766 2663 2505 2880 
Q 2244 3097 1772 3097 
Q 1472 3097 1187 3025 
Q 903 2953 641 2809 
L 641 3341 
Q 956 3463 1253 3523 
Q 1550 3584 1831 3584 
Q 2591 3584 2966 3190 
Q 3341 2797 3341 1997 
z
" transform="scale(0.015625)"/>
       <path id="DejaVuSans-73" d="M 2834 3397 
L 2834 2853 
Q 2591 2978 2328 3040 
Q 2066 3103 1784 3103 
Q 1356 3103 1142 2972 
Q 928 2841 928 2578 
Q 928 2378 1081 2264 
Q 1234 2150 1697 2047 
L 1894 2003 
Q 2506 1872 2764 1633 
Q 3022 1394 3022 966 
Q 3022 478 2636 193 
Q 2250 -91 1575 -91 
Q 1294 -91 989 -36 
Q 684 19 347 128 
L 347 722 
Q 666 556 975 473 
Q 1284 391 1588 391 
Q 1994 391 2212 530 
Q 2431 669 2431 922 
Q 2431 1156 2273 1281 
Q 2116 1406 1581 1522 
L 1381 1569 
Q 847 1681 609 1914 
Q 372 2147 372 2553 
Q 372 3047 722 3315 
Q 1072 3584 1716 3584 
Q 2034 3584 2315 3537 
Q 2597 3491 2834 3397 
z
" transform="scale(0.015625)"/>
       <path id="DejaVuSans-2f" d="M 1625 4666 
L 2156 4666 
L 531 -594 
L 0 -594 
L 1625 4666 
z
" transform="scale(0.015625)"/>
       <path id="DejaVuSans-64" d="M 2906 2969 
L 2906 4863 
L 3481 4863 
L 3481 0 
L 2906 0 
L 2906 525 
Q 2725 213 2448 61 
Q 2172 -91 1784 -91 
Q 1150 -91 751 415 
Q 353 922 353 1747 
Q 353 2572 751 3078 
Q 1150 3584 1784 3584 
Q 2172 3584 2448 3432 
Q 2725 3281 2906 2969 
z
M 947 1747 
Q 947 1113 1208 752 
Q 1469 391 1925 391 
Q 2381 391 2643 752 
Q 2906 1113 2906 1747 
Q 2906 2381 2643 2742 
Q 2381 3103 1925 3103 
Q 1469 3103 1208 2742 
Q 947 2381 947 1747 
z
" transform="scale(0.015625)"/>
       <path id="DejaVuSans-69" d="M 603 3500 
L 1178 3500 
L 1178 0 
L 603 0 
L 603 3500 
z
M 603 4863 
L 1178 4863 
L 1178 4134 
L 603 4134 
L 603 4863 
z
" transform="scale(0.015625)"/>
       <path id="DejaVuSans-6d" d="M 3328 2828 
Q 3544 3216 3844 3400 
Q 4144 3584 4550 3584 
Q 5097 3584 5394 3201 
Q 5691 2819 5691 2113 
L 5691 0 
L 5113 0 
L 5113 2094 
Q 5113 2597 4934 2840 
Q 4756 3084 4391 3084 
Q 3944 3084 3684 2787 
Q 3425 2491 3425 1978 
L 3425 0 
L 2847 0 
L 2847 2094 
Q 2847 2600 2669 2842 
Q 2491 3084 2119 3084 
Q 1678 3084 1418 2786 
Q 1159 2488 1159 1978 
L 1159 0 
L 581 0 
L 581 3500 
L 1159 3500 
L 1159 2956 
Q 1356 3278 1631 3431 
Q 1906 3584 2284 3584 
Q 2666 3584 2933 3390 
Q 3200 3197 3328 2828 
z
" transform="scale(0.015625)"/>
       <path id="DejaVuSans-6e" d="M 3513 2113 
L 3513 0 
L 2938 0 
L 2938 2094 
Q 2938 2591 2744 2837 
Q 2550 3084 2163 3084 
Q 1697 3084 1428 2787 
Q 1159 2491 1159 1978 
L 1159 0 
L 581 0 
L 581 3500 
L 1159 3500 
L 1159 2956 
Q 1366 3272 1645 3428 
Q 1925 3584 2291 3584 
Q 2894 3584 3203 3211 
Q 3513 2838 3513 2113 
z
" transform="scale(0.015625)"/>
       <path id="DejaVuSans-29" d="M 513 4856 
L 1013 4856 
Q 1481 4119 1714 3412 
Q 1947 2706 1947 2009 
Q 1947 1309 1714 600 
Q 1481 -109 1013 -844 
L 513 -844 
Q 928 -128 1133 580 
Q 1338 1288 1338 2009 
Q 1338 2731 1133 3434 
Q 928 4138 513 4856 
z
" transform="scale(0.015625)"/>
      </defs>
      <use xlink:href="#DejaVuSans-6c"/>
      <use xlink:href="#DejaVuSans-6f" x="27.783203"/>
      <use xlink:href="#DejaVuSans-67" x="88.964844"/>
      <use xlink:href="#DejaVuSans-31" x="152.441406"/>
      <use xlink:href="#DejaVuSans-30" x="216.064453"/>
      <use xlink:href="#DejaVuSans-28" x="279.6875"/>
      <use xlink:href="#DejaVuSans-23" x="318.701172"/>
      <use xlink:href="#DejaVuSans-20" x="402.490234"/>
      <use xlink:href="#DejaVuSans-66" x="434.277344"/>
      <use xlink:href="#DejaVuSans-2d" x="463.982422"/>
      <use xlink:href="#DejaVuSans-65" x="500.066406"/>
      <use xlink:href="#DejaVuSans-76" x="561.589844"/>
      <use xlink:href="#DejaVuSans-61" x="620.769531"/>
      <use xlink:href="#DejaVuSans-6c" x="682.048828"/>
      <use xlink:href="#DejaVuSans-73" x="709.832031"/>
      <use xlink:href="#DejaVuSans-20" x="761.931641"/>
      <use xlink:href="#DejaVuSans-2f" x="793.71875"/>
      <use xlink:href="#DejaVuSans-20" x="827.410156"/>
      <use xlink:href="#DejaVuSans-64" x="859.197266"/>
      <use xlink:href="#DejaVuSans-69" x="922.673828"/>
      <use xlink:href="#DejaVuSans-6d" x="950.457031"/>
      <use xlink:href="#DejaVuSans-65" x="1047.869141"/>
      <use xlink:href="#DejaVuSans-6e" x="1109.392578"/>
      <use xlink:href="#DejaVuSans-73" x="1172.771484"/>
      <use xlink:href="#DejaVuSans-69" x="1224.871094"/>
      <use xlink:href="#DejaVuSans-6f" x="1252.654297"/>
      <use xlink:href="#DejaVuSans-6e" x="1313.835938"/>
      <use xlink:href="#DejaVuSans-29" x="1377.214844"/>
     </g>
    </g>
   </g>
   <g id="matplotlib.axis_2">
    <g id="ytick_1">
     <g id="line2d_21">
      <path d="M 57.6 298.944 
L 360.8064 298.944 
" clip-path="url(#pcd7e3ccd72)" style="fill: none; stroke: #b0b0b0; stroke-width: 0.8; stroke-linecap: square"/>
     </g>
     <g id="line2d_22">
      <defs>
       <path id="m1c62028d0e" d="M 0 0 
L -3.5 0 
" style="stroke: #000000; stroke-width: 0.8"/>
      </defs>
      <g>
       <use xlink:href="#m1c62028d0e" x="57.6" y="298.944" style="stroke: #000000; stroke-width: 0.8"/>
      </g>
     </g>
     <g id="text_6">
      <!-- 0.0 -->
      <g transform="translate(25.155 305.02275) scale(0.16 -0.16)">
       <defs>
        <path id="DejaVuSans-2e" d="M 684 794 
L 1344 794 
L 1344 0 
L 684 0 
L 684 794 
z
" transform="scale(0.015625)"/>
       </defs>
       <use xlink:href="#DejaVuSans-30"/>
       <use xlink:href="#DejaVuSans-2e" x="63.623047"/>
       <use xlink:href="#DejaVuSans-30" x="95.410156"/>
      </g>
     </g>
    </g>
    <g id="ytick_2">
     <g id="line2d_23">
      <path d="M 57.6 244.6848 
L 360.8064 244.6848 
" clip-path="url(#pcd7e3ccd72)" style="fill: none; stroke: #b0b0b0; stroke-width: 0.8; stroke-linecap: square"/>
     </g>
     <g id="line2d_24">
      <g>
       <use xlink:href="#m1c62028d0e" x="57.6" y="244.6848" style="stroke: #000000; stroke-width: 0.8"/>
      </g>
     </g>
     <g id="text_7">
      <!-- 0.2 -->
      <g transform="translate(25.155 250.76355) scale(0.16 -0.16)">
       <use xlink:href="#DejaVuSans-30"/>
       <use xlink:href="#DejaVuSans-2e" x="63.623047"/>
       <use xlink:href="#DejaVuSans-32" x="95.410156"/>
      </g>
     </g>
    </g>
    <g id="ytick_3">
     <g id="line2d_25">
      <path d="M 57.6 190.4256 
L 360.8064 190.4256 
" clip-path="url(#pcd7e3ccd72)" style="fill: none; stroke: #b0b0b0; stroke-width: 0.8; stroke-linecap: square"/>
     </g>
     <g id="line2d_26">
      <g>
       <use xlink:href="#m1c62028d0e" x="57.6" y="190.4256" style="stroke: #000000; stroke-width: 0.8"/>
      </g>
     </g>
     <g id="text_8">
      <!-- 0.4 -->
      <g transform="translate(25.155 196.50435) scale(0.16 -0.16)">
       <use xlink:href="#DejaVuSans-30"/>
       <use xlink:href="#DejaVuSans-2e" x="63.623047"/>
       <use xlink:href="#DejaVuSans-34" x="95.410156"/>
      </g>
     </g>
    </g>
    <g id="ytick_4">
     <g id="line2d_27">
      <path d="M 57.6 136.1664 
L 360.8064 136.1664 
" clip-path="url(#pcd7e3ccd72)" style="fill: none; stroke: #b0b0b0; stroke-width: 0.8; stroke-linecap: square"/>
     </g>
     <g id="line2d_28">
      <g>
       <use xlink:href="#m1c62028d0e" x="57.6" y="136.1664" style="stroke: #000000; stroke-width: 0.8"/>
      </g>
     </g>
     <g id="text_9">
      <!-- 0.6 -->
      <g transform="translate(25.155 142.24515) scale(0.16 -0.16)">
       <use xlink:href="#DejaVuSans-30"/>
       <use xlink:href="#DejaVuSans-2e" x="63.623047"/>
       <use xlink:href="#DejaVuSans-36" x="95.410156"/>
      </g>
     </g>
    </g>
    <g id="ytick_5">
     <g id="line2d_29">
      <path d="M 57.6 81.9072 
L 360.8064 81.9072 
" clip-path="url(#pcd7e3ccd72)" style="fill: none; stroke: #b0b0b0; stroke-width: 0.8; stroke-linecap: square"/>
     </g>
     <g id="line2d_30">
      <g>
       <use xlink:href="#m1c62028d0e" x="57.6" y="81.9072" style="stroke: #000000; stroke-width: 0.8"/>
      </g>
     </g>
     <g id="text_10">
      <!-- 0.8 -->
      <g transform="translate(25.155 87.98595) scale(0.16 -0.16)">
       <defs>
        <path id="DejaVuSans-38" d="M 2034 2216 
Q 1584 2216 1326 1975 
Q 1069 1734 1069 1313 
Q 1069 891 1326 650 
Q 1584 409 2034 409 
Q 2484 409 2743 651 
Q 3003 894 3003 1313 
Q 3003 1734 2745 1975 
Q 2488 2216 2034 2216 
z
M 1403 2484 
Q 997 2584 770 2862 
Q 544 3141 544 3541 
Q 544 4100 942 4425 
Q 1341 4750 2034 4750 
Q 2731 4750 3128 4425 
Q 3525 4100 3525 3541 
Q 3525 3141 3298 2862 
Q 3072 2584 2669 2484 
Q 3125 2378 3379 2068 
Q 3634 1759 3634 1313 
Q 3634 634 3220 271 
Q 2806 -91 2034 -91 
Q 1263 -91 848 271 
Q 434 634 434 1313 
Q 434 1759 690 2068 
Q 947 2378 1403 2484 
z
M 1172 3481 
Q 1172 3119 1398 2916 
Q 1625 2713 2034 2713 
Q 2441 2713 2670 2916 
Q 2900 3119 2900 3481 
Q 2900 3844 2670 4047 
Q 2441 4250 2034 4250 
Q 1625 4250 1398 4047 
Q 1172 3844 1172 3481 
z
" transform="scale(0.015625)"/>
       </defs>
       <use xlink:href="#DejaVuSans-30"/>
       <use xlink:href="#DejaVuSans-2e" x="63.623047"/>
       <use xlink:href="#DejaVuSans-38" x="95.410156"/>
      </g>
     </g>
    </g>
    <g id="ytick_6">
     <g id="line2d_31">
      <path d="M 57.6 27.648 
L 360.8064 27.648 
" clip-path="url(#pcd7e3ccd72)" style="fill: none; stroke: #b0b0b0; stroke-width: 0.8; stroke-linecap: square"/>
     </g>
     <g id="line2d_32">
      <g>
       <use xlink:href="#m1c62028d0e" x="57.6" y="27.648" style="stroke: #000000; stroke-width: 0.8"/>
      </g>
     </g>
     <g id="text_11">
      <!-- 1.0 -->
      <g transform="translate(25.155 33.72675) scale(0.16 -0.16)">
       <use xlink:href="#DejaVuSans-31"/>
       <use xlink:href="#DejaVuSans-2e" x="63.623047"/>
       <use xlink:href="#DejaVuSans-30" x="95.410156"/>
      </g>
     </g>
    </g>
    <g id="text_12">
     <!-- Fraction of function,target pairs -->
     <g transform="translate(17.619531 297.681) rotate(-90) scale(0.17 -0.17)">
      <defs>
       <path id="DejaVuSans-46" d="M 628 4666 
L 3309 4666 
L 3309 4134 
L 1259 4134 
L 1259 2759 
L 3109 2759 
L 3109 2228 
L 1259 2228 
L 1259 0 
L 628 0 
L 628 4666 
z
" transform="scale(0.015625)"/>
       <path id="DejaVuSans-72" d="M 2631 2963 
Q 2534 3019 2420 3045 
Q 2306 3072 2169 3072 
Q 1681 3072 1420 2755 
Q 1159 2438 1159 1844 
L 1159 0 
L 581 0 
L 581 3500 
L 1159 3500 
L 1159 2956 
Q 1341 3275 1631 3429 
Q 1922 3584 2338 3584 
Q 2397 3584 2469 3576 
Q 2541 3569 2628 3553 
L 2631 2963 
z
" transform="scale(0.015625)"/>
       <path id="DejaVuSans-63" d="M 3122 3366 
L 3122 2828 
Q 2878 2963 2633 3030 
Q 2388 3097 2138 3097 
Q 1578 3097 1268 2742 
Q 959 2388 959 1747 
Q 959 1106 1268 751 
Q 1578 397 2138 397 
Q 2388 397 2633 464 
Q 2878 531 3122 666 
L 3122 134 
Q 2881 22 2623 -34 
Q 2366 -91 2075 -91 
Q 1284 -91 818 406 
Q 353 903 353 1747 
Q 353 2603 823 3093 
Q 1294 3584 2113 3584 
Q 2378 3584 2631 3529 
Q 2884 3475 3122 3366 
z
" transform="scale(0.015625)"/>
       <path id="DejaVuSans-74" d="M 1172 4494 
L 1172 3500 
L 2356 3500 
L 2356 3053 
L 1172 3053 
L 1172 1153 
Q 1172 725 1289 603 
Q 1406 481 1766 481 
L 2356 481 
L 2356 0 
L 1766 0 
Q 1100 0 847 248 
Q 594 497 594 1153 
L 594 3053 
L 172 3053 
L 172 3500 
L 594 3500 
L 594 4494 
L 1172 4494 
z
" transform="scale(0.015625)"/>
       <path id="DejaVuSans-75" d="M 544 1381 
L 544 3500 
L 1119 3500 
L 1119 1403 
Q 1119 906 1312 657 
Q 1506 409 1894 409 
Q 2359 409 2629 706 
Q 2900 1003 2900 1516 
L 2900 3500 
L 3475 3500 
L 3475 0 
L 2900 0 
L 2900 538 
Q 2691 219 2414 64 
Q 2138 -91 1772 -91 
Q 1169 -91 856 284 
Q 544 659 544 1381 
z
M 1991 3584 
L 1991 3584 
z
" transform="scale(0.015625)"/>
       <path id="DejaVuSans-2c" d="M 750 794 
L 1409 794 
L 1409 256 
L 897 -744 
L 494 -744 
L 750 256 
L 750 794 
z
" transform="scale(0.015625)"/>
       <path id="DejaVuSans-70" d="M 1159 525 
L 1159 -1331 
L 581 -1331 
L 581 3500 
L 1159 3500 
L 1159 2969 
Q 1341 3281 1617 3432 
Q 1894 3584 2278 3584 
Q 2916 3584 3314 3078 
Q 3713 2572 3713 1747 
Q 3713 922 3314 415 
Q 2916 -91 2278 -91 
Q 1894 -91 1617 61 
Q 1341 213 1159 525 
z
M 3116 1747 
Q 3116 2381 2855 2742 
Q 2594 3103 2138 3103 
Q 1681 3103 1420 2742 
Q 1159 2381 1159 1747 
Q 1159 1113 1420 752 
Q 1681 391 2138 391 
Q 2594 391 2855 752 
Q 3116 1113 3116 1747 
z
" transform="scale(0.015625)"/>
      </defs>
      <use xlink:href="#DejaVuSans-46"/>
      <use xlink:href="#DejaVuSans-72" x="50.269531"/>
      <use xlink:href="#DejaVuSans-61" x="91.382812"/>
      <use xlink:href="#DejaVuSans-63" x="152.662109"/>
      <use xlink:href="#DejaVuSans-74" x="207.642578"/>
      <use xlink:href="#DejaVuSans-69" x="246.851562"/>
      <use xlink:href="#DejaVuSans-6f" x="274.634766"/>
      <use xlink:href="#DejaVuSans-6e" x="335.816406"/>
      <use xlink:href="#DejaVuSans-20" x="399.195312"/>
      <use xlink:href="#DejaVuSans-6f" x="430.982422"/>
      <use xlink:href="#DejaVuSans-66" x="492.164062"/>
      <use xlink:href="#DejaVuSans-20" x="527.369141"/>
      <use xlink:href="#DejaVuSans-66" x="559.15625"/>
      <use xlink:href="#DejaVuSans-75" x="594.361328"/>
      <use xlink:href="#DejaVuSans-6e" x="657.740234"/>
      <use xlink:href="#DejaVuSans-63" x="721.119141"/>
      <use xlink:href="#DejaVuSans-74" x="776.099609"/>
      <use xlink:href="#DejaVuSans-69" x="815.308594"/>
      <use xlink:href="#DejaVuSans-6f" x="843.091797"/>
      <use xlink:href="#DejaVuSans-6e" x="904.273438"/>
      <use xlink:href="#DejaVuSans-2c" x="967.652344"/>
      <use xlink:href="#DejaVuSans-74" x="999.439453"/>
      <use xlink:href="#DejaVuSans-61" x="1038.648438"/>
      <use xlink:href="#DejaVuSans-72" x="1099.927734"/>
      <use xlink:href="#DejaVuSans-67" x="1139.291016"/>
      <use xlink:href="#DejaVuSans-65" x="1202.767578"/>
      <use xlink:href="#DejaVuSans-74" x="1264.291016"/>
      <use xlink:href="#DejaVuSans-20" x="1303.5"/>
      <use xlink:href="#DejaVuSans-70" x="1335.287109"/>
      <use xlink:href="#DejaVuSans-61" x="1398.763672"/>
      <use xlink:href="#DejaVuSans-69" x="1460.042969"/>
      <use xlink:href="#DejaVuSans-72" x="1487.826172"/>
      <use xlink:href="#DejaVuSans-73" x="1528.939453"/>
     </g>
    </g>
   </g>
   <g id="line2d_33">
    <defs>
     <path id="me149d49445" d="M 0 1.5 
C 0.397805 1.5 0.77937 1.341951 1.06066 1.06066 
C 1.341951 0.77937 1.5 0.397805 1.5 0 
C 1.5 -0.397805 1.341951 -0.77937 1.06066 -1.06066 
C 0.77937 -1.341951 0.397805 -1.5 0 -1.5 
C -0.397805 -1.5 -0.77937 -1.341951 -1.06066 -1.06066 
C -1.341951 -0.77937 -1.5 -0.397805 -1.5 0 
C -1.5 0.397805 -1.341951 0.77937 -1.06066 1.06066 
C -0.77937 1.341951 -0.397805 1.5 0 1.5 
z
" style="stroke: #f5deb3"/>
    </defs>
    <g>
     <use xlink:href="#me149d49445" x="359.758801" y="60.390621" style="fill: #f5deb3; stroke: #f5deb3"/>
     <use xlink:href="#me149d49445" x="359.758801" y="60.390621" style="fill: #f5deb3; stroke: #f5deb3"/>
    </g>
   </g>
   <g id="line2d_34">
    <defs>
     <path id="m0f34bc9fcb" d="M 0 1.5 
C 0.397805 1.5 0.77937 1.341951 1.06066 1.06066 
C 1.341951 0.77937 1.5 0.397805 1.5 0 
C 1.5 -0.397805 1.341951 -0.77937 1.06066 -1.06066 
C 0.77937 -1.341951 0.397805 -1.5 0 -1.5 
C -0.397805 -1.5 -0.77937 -1.341951 -1.06066 -1.06066 
C -1.341951 -0.77937 -1.5 -0.397805 -1.5 0 
C -1.5 0.397805 -1.341951 0.77937 -1.06066 1.06066 
C -0.77937 1.341951 -0.397805 1.5 0 1.5 
z
" style="stroke: #000080"/>
    </defs>
    <g>
     <use xlink:href="#m0f34bc9fcb" x="144.2304" y="245.620303" style="fill: #000080; stroke: #000080"/>
     <use xlink:href="#m0f34bc9fcb" x="144.2304" y="245.620303" style="fill: #000080; stroke: #000080"/>
    </g>
   </g>
   <g id="line2d_35">
    <path d="M 1.245626 298.944 
L 1.245626 286.314703 
L 34.951403 286.314703 
L 34.951403 285.846952 
L 37.851216 285.846952 
L 37.851216 285.3792 
L 44.560826 285.3792 
L 44.560826 284.443697 
L 46.353758 284.443697 
L 46.353758 283.508193 
L 55.618005 283.508193 
L 55.618005 283.040441 
L 69.674268 283.040441 
L 69.674268 282.57269 
L 70.639174 282.57269 
L 70.639174 282.104938 
L 81.955828 282.104938 
L 81.955828 281.637186 
L 83.441723 281.637186 
L 83.441723 281.169434 
L 84.596168 281.169434 
L 84.596168 280.701683 
L 85.038813 280.701683 
L 85.038813 280.233931 
L 95.377623 280.233931 
L 95.377623 279.766179 
L 98.18704 279.766179 
L 98.18704 279.298428 
L 102.793446 279.298428 
L 102.793446 278.830676 
L 105.778187 278.830676 
L 105.778187 277.427421 
L 106.279859 277.427421 
L 106.279859 276.959669 
L 107.109915 276.959669 
L 107.109915 276.491917 
L 111.656212 276.491917 
L 111.762192 275.556414 
L 113.622258 275.556414 
L 113.622258 275.088662 
L 113.860081 275.088662 
L 113.860081 274.153159 
L 114.692177 274.153159 
L 114.692177 273.685407 
L 114.82735 273.685407 
L 114.82735 273.217655 
L 116.086263 273.217655 
L 116.086263 272.749903 
L 117.067958 272.749903 
L 117.067958 272.282152 
L 117.540239 272.282152 
L 117.540239 271.346648 
L 117.962989 271.346648 
L 117.962989 270.878897 
L 118.189637 270.878897 
L 118.189637 270.411145 
L 119.034004 270.411145 
L 119.034004 269.943393 
L 120.682786 269.943393 
L 120.682786 269.475641 
L 121.923558 269.475641 
L 121.923558 269.00789 
L 123.145323 269.00789 
L 123.145323 268.540138 
L 123.4884 268.540138 
L 123.544976 267.604634 
L 123.797484 267.604634 
L 123.797484 267.136883 
L 125.193561 267.136883 
L 125.193561 266.669131 
L 126.372018 266.669131 
L 126.372018 266.201379 
L 128.133992 266.201379 
L 128.133992 265.733628 
L 128.50651 265.733628 
L 128.50651 265.265876 
L 128.743679 265.265876 
L 128.743679 264.330372 
L 130.047255 264.330372 
L 130.107132 263.394869 
L 130.772751 263.394869 
L 130.772751 262.459366 
L 131.115828 262.459366 
L 131.191226 261.523862 
L 131.322448 261.523862 
L 131.322448 261.05611 
L 132.126951 261.05611 
L 132.126951 260.588359 
L 132.269599 260.588359 
L 132.269599 260.120607 
L 133.573382 260.120607 
L 133.573382 259.652855 
L 133.967012 259.652855 
L 133.967012 258.717352 
L 134.368469 258.717352 
L 134.368469 257.781848 
L 135.731889 257.781848 
L 135.731889 257.314097 
L 136.039681 257.314097 
L 136.039681 256.846345 
L 136.313886 256.846345 
L 136.313886 256.378593 
L 136.584151 256.378593 
L 136.584151 255.910841 
L 136.752866 255.910841 
L 136.752866 254.975338 
L 137.154452 254.975338 
L 137.154452 254.039834 
L 138.141952 254.039834 
L 138.141952 253.572083 
L 138.310202 253.572083 
L 138.310202 253.104331 
L 138.692823 253.104331 
L 138.692823 252.168828 
L 139.228021 252.168828 
L 139.228021 251.701076 
L 139.350333 251.701076 
L 139.374701 250.765572 
L 139.616653 250.765572 
L 139.616653 250.297821 
L 139.760345 250.297821 
L 139.760345 249.830069 
L 140.032723 249.830069 
L 140.032723 249.362317 
L 140.702573 249.362317 
L 140.702573 248.894566 
L 142.164612 248.894566 
L 142.164612 248.426814 
L 142.885449 248.426814 
L 142.885449 247.023559 
L 143.245681 247.023559 
L 143.245681 246.555807 
L 144.2304 246.555807 
L 144.2304 245.620303 
L 360.8064 245.620303 
L 360.8064 245.620303 
" style="fill: none; stroke: #000080; stroke-width: 1.5; stroke-linecap: square"/>
   </g>
   <g id="line2d_36">
    <defs>
     <path id="m1e2c82a542" d="M 0 6 
C 1.591219 6 3.117479 5.367802 4.242641 4.242641 
C 5.367802 3.117479 6 1.591219 6 0 
C 6 -1.591219 5.367802 -3.117479 4.242641 -4.242641 
C 3.117479 -5.367802 1.591219 -6 0 -6 
C -1.591219 -6 -3.117479 -5.367802 -4.242641 -4.242641 
C -5.367802 -3.117479 -6 -1.591219 -6 0 
C -6 1.591219 -5.367802 3.117479 -4.242641 4.242641 
C -3.117479 5.367802 -1.591219 6 0 6 
z
" style="stroke: #000080; stroke-width: 1.5"/>
    </defs>
    <g>
     <use xlink:href="#m1e2c82a542" x="142.164612" y="248.426814" style="fill-opacity: 0; stroke: #000080; stroke-width: 1.5"/>
     <use xlink:href="#m1e2c82a542" x="144.2304" y="246.555807" style="fill-opacity: 0; stroke: #000080; stroke-width: 1.5"/>
     <use xlink:href="#m1e2c82a542" x="144.2304" y="245.620303" style="fill-opacity: 0; stroke: #000080; stroke-width: 1.5"/>
     <use xlink:href="#m1e2c82a542" x="144.2304" y="245.620303" style="fill-opacity: 0; stroke: #000080; stroke-width: 1.5"/>
     <use xlink:href="#m1e2c82a542" x="360.8064" y="245.620303" style="fill-opacity: 0; stroke: #000080; stroke-width: 1.5"/>
    </g>
   </g>
   <g id="line2d_37">
    <path style="fill: none; stroke: #000080; stroke-width: 1.5; stroke-linecap: square"/>
    <g/>
   </g>
   <g id="line2d_38">
    <path d="M 144.342932 245.620303 
" clip-path="url(#pcd7e3ccd72)" style="fill: none; stroke: #000080; stroke-width: 1.5; stroke-linecap: square"/>
    <defs>
     <path id="m736c7148a8" d="M -12 12 
L 12 -12 
M -12 -12 
L 12 12 
" style="stroke: #000080"/>
    </defs>
    <g clip-path="url(#pcd7e3ccd72)">
     <use xlink:href="#m736c7148a8" x="144.342932" y="245.620303" style="fill: #000080; stroke: #000080"/>
    </g>
   </g>
   <g id="line2d_39">
    <defs>
     <path id="m5dbd39f20b" d="M 0 1.5 
C 0.397805 1.5 0.77937 1.341951 1.06066 1.06066 
C 1.341951 0.77937 1.5 0.397805 1.5 0 
C 1.5 -0.397805 1.341951 -0.77937 1.06066 -1.06066 
C 0.77937 -1.341951 0.397805 -1.5 0 -1.5 
C -0.397805 -1.5 -0.77937 -1.341951 -1.06066 -1.06066 
C -1.341951 -0.77937 -1.5 -0.397805 -1.5 0 
C -1.5 0.397805 -1.341951 0.77937 -1.06066 1.06066 
C -0.77937 1.341951 -0.397805 1.5 0 1.5 
z
" style="stroke: #ff00ff"/>
    </defs>
    <g>
     <use xlink:href="#m5dbd39f20b" x="142.445931" y="241.410538" style="fill: #ff00ff; stroke: #ff00ff"/>
     <use xlink:href="#m5dbd39f20b" x="142.445931" y="241.410538" style="fill: #ff00ff; stroke: #ff00ff"/>
    </g>
   </g>
   <g id="line2d_40">
    <path d="M 1.245626 298.944 
L 1.245626 286.314703 
L 37.851216 286.314703 
L 37.851216 285.846952 
L 40.363149 285.846952 
L 40.363149 285.3792 
L 46.353758 285.3792 
L 46.353758 284.911448 
L 47.990577 284.911448 
L 47.990577 284.443697 
L 69.172597 284.443697 
L 69.172597 283.975945 
L 71.103681 283.975945 
L 71.103681 283.508193 
L 75.574654 283.508193 
L 75.574654 283.040441 
L 80.059535 283.040441 
L 80.059535 282.57269 
L 82.959349 282.57269 
L 82.959349 281.637186 
L 86.307488 281.637186 
L 86.307488 280.701683 
L 93.66029 280.701683 
L 93.66029 280.233931 
L 93.798104 280.233931 
L 93.798104 279.766179 
L 95.628448 279.766179 
L 95.628448 279.298428 
L 96.717523 279.298428 
L 96.717523 278.830676 
L 96.95121 278.830676 
L 96.95121 278.362924 
L 98.077987 278.362924 
L 98.077987 277.427421 
L 98.723018 277.427421 
L 98.723018 276.959669 
L 99.037425 276.959669 
L 99.037425 276.491917 
L 99.346662 276.491917 
L 99.346662 276.024166 
L 101.009023 276.024166 
L 101.009023 275.556414 
L 101.195278 275.556414 
L 101.195278 275.088662 
L 101.653002 275.088662 
L 101.653002 274.62091 
L 102.275664 274.62091 
L 102.275664 274.153159 
L 102.708132 274.153159 
L 102.708132 273.685407 
L 103.380045 273.685407 
L 103.380045 273.217655 
L 103.788121 273.217655 
L 103.788121 272.749903 
L 107.109915 272.749903 
L 107.109915 272.282152 
L 107.244765 272.282152 
L 107.244765 271.8144 
L 107.774703 271.8144 
L 107.774703 271.346648 
L 108.542628 271.346648 
L 108.542628 270.878897 
L 108.729809 270.878897 
L 108.729809 270.411145 
L 111.762192 270.411145 
L 111.762192 269.475641 
L 112.589207 269.475641 
L 112.589207 269.00789 
L 116.583514 269.00789 
L 116.583514 268.540138 
L 116.86762 268.540138 
L 116.86762 268.072386 
L 119.319033 268.072386 
L 119.319033 267.604634 
L 119.669351 267.604634 
L 119.773187 266.201379 
L 120.0813 266.201379 
L 120.0813 265.733628 
L 120.250317 265.733628 
L 120.250317 265.265876 
L 120.715645 265.265876 
L 120.715645 264.798124 
L 121.455972 264.798124 
L 121.455972 263.862621 
L 122.168264 263.862621 
L 122.168264 263.394869 
L 122.736994 263.394869 
L 122.736994 262.927117 
L 124.400822 262.927117 
L 124.454723 261.523862 
L 124.615507 261.523862 
L 124.615507 261.05611 
L 124.854134 261.05611 
L 124.933009 259.652855 
L 125.245241 259.652855 
L 125.245241 258.717352 
L 126.298963 258.717352 
L 126.347698 257.314097 
L 127.343 257.314097 
L 127.343 256.846345 
L 127.61796 256.846345 
L 127.61796 255.910841 
L 128.463066 255.910841 
L 128.549855 254.507586 
L 129.765278 254.507586 
L 129.765278 254.039834 
L 130.384069 254.039834 
L 130.384069 253.572083 
L 131.115828 253.572083 
L 131.153565 252.636579 
L 131.303758 252.636579 
L 131.303758 252.168828 
L 132.162715 252.168828 
L 132.216233 251.233324 
L 132.411173 251.233324 
L 132.411173 250.765572 
L 132.949924 250.765572 
L 132.949924 250.297821 
L 133.606501 250.297821 
L 133.606501 249.362317 
L 134.526683 249.362317 
L 134.605294 248.426814 
L 135.59842 248.426814 
L 135.59842 247.959062 
L 135.835047 247.959062 
L 135.835047 247.49131 
L 136.371107 247.49131 
L 136.371107 246.555807 
L 137.906478 246.555807 
L 137.906478 246.088055 
L 138.780993 246.088055 
L 138.780993 245.620303 
L 139.092553 245.620303 
L 139.092553 245.152552 
L 139.350333 245.152552 
L 139.350333 244.217048 
L 140.067962 244.217048 
L 140.067962 243.749297 
L 140.231542 243.749297 
L 140.231542 243.281545 
L 141.360348 243.281545 
L 141.360348 242.813793 
L 141.782854 242.813793 
L 141.782854 241.87829 
L 142.445931 241.87829 
L 142.445931 241.410538 
L 360.8064 241.410538 
L 360.8064 241.410538 
" style="fill: none; stroke: #ff00ff; stroke-width: 1.5; stroke-linecap: square"/>
   </g>
   <g id="line2d_41">
    <defs>
     <path id="m59af44c0bf" d="M -0 8.485281 
L 5.091169 0 
L 0 -8.485281 
L -5.091169 -0 
z
" style="stroke: #ff00ff; stroke-width: 1.5; stroke-linejoin: miter"/>
    </defs>
    <g>
     <use xlink:href="#m59af44c0bf" x="96.95121" y="278.830676" style="fill-opacity: 0; stroke: #ff00ff; stroke-width: 1.5; stroke-linejoin: miter"/>
     <use xlink:href="#m59af44c0bf" x="142.445931" y="241.87829" style="fill-opacity: 0; stroke: #ff00ff; stroke-width: 1.5; stroke-linejoin: miter"/>
     <use xlink:href="#m59af44c0bf" x="142.445931" y="241.410538" style="fill-opacity: 0; stroke: #ff00ff; stroke-width: 1.5; stroke-linejoin: miter"/>
     <use xlink:href="#m59af44c0bf" x="142.445931" y="241.410538" style="fill-opacity: 0; stroke: #ff00ff; stroke-width: 1.5; stroke-linejoin: miter"/>
     <use xlink:href="#m59af44c0bf" x="142.445931" y="241.410538" style="fill-opacity: 0; stroke: #ff00ff; stroke-width: 1.5; stroke-linejoin: miter"/>
     <use xlink:href="#m59af44c0bf" x="360.8064" y="241.410538" style="fill-opacity: 0; stroke: #ff00ff; stroke-width: 1.5; stroke-linejoin: miter"/>
    </g>
   </g>
   <g id="line2d_42">
    <path style="fill: none; stroke: #ff00ff; stroke-width: 1.5; stroke-linecap: square"/>
    <g/>
   </g>
   <g id="line2d_43">
    <path d="M 144.324223 241.410538 
" clip-path="url(#pcd7e3ccd72)" style="fill: none; stroke: #ff00ff; stroke-width: 1.5; stroke-linecap: square"/>
    <defs>
     <path id="md4cda9a274" d="M -12 12 
L 12 -12 
M -12 -12 
L 12 12 
" style="stroke: #ff00ff"/>
    </defs>
    <g clip-path="url(#pcd7e3ccd72)">
     <use xlink:href="#md4cda9a274" x="144.324223" y="241.410538" style="fill: #ff00ff; stroke: #ff00ff"/>
    </g>
   </g>
   <g id="line2d_44">
    <defs>
     <path id="m9737a7eb93" d="M 0 1.5 
C 0.397805 1.5 0.77937 1.341951 1.06066 1.06066 
C 1.341951 0.77937 1.5 0.397805 1.5 0 
C 1.5 -0.397805 1.341951 -0.77937 1.06066 -1.06066 
C 0.77937 -1.341951 0.397805 -1.5 0 -1.5 
C -0.397805 -1.5 -0.77937 -1.341951 -1.06066 -1.06066 
C -1.341951 -0.77937 -1.5 -0.397805 -1.5 0 
C -1.5 0.397805 -1.341951 0.77937 -1.06066 1.06066 
C -0.77937 1.341951 -0.397805 1.5 0 1.5 
z
" style="stroke: #ff7500"/>
    </defs>
    <g>
     <use xlink:href="#m9737a7eb93" x="144.145557" y="248.894566" style="fill: #ff7500; stroke: #ff7500"/>
     <use xlink:href="#m9737a7eb93" x="144.145557" y="248.894566" style="fill: #ff7500; stroke: #ff7500"/>
    </g>
   </g>
   <g id="line2d_45">
    <path d="M 1.245626 298.944 
L 1.245626 286.314703 
L 14.2848 286.314703 
L 14.2848 285.3792 
L 52.188254 285.3792 
L 52.188254 284.911448 
L 63.929565 284.911448 
L 63.929565 283.975945 
L 86.510858 283.975945 
L 86.510858 283.508193 
L 91.148357 283.508193 
L 91.148357 283.040441 
L 93.098709 283.040441 
L 93.098709 282.57269 
L 94.865713 282.57269 
L 94.865713 282.104938 
L 96.480897 282.104938 
L 96.480897 281.637186 
L 97.968299 281.637186 
L 97.968299 281.169434 
L 100.630889 281.169434 
L 100.630889 280.701683 
L 101.833019 280.701683 
L 101.833019 280.233931 
L 104.028784 280.233931 
L 104.028784 279.766179 
L 107.774703 279.766179 
L 107.774703 278.830676 
L 108.605229 278.830676 
L 108.605229 278.362924 
L 110.163764 278.362924 
L 110.163764 277.895172 
L 112.939899 277.895172 
L 112.939899 276.959669 
L 114.188061 276.959669 
L 114.188061 276.024166 
L 114.7824 276.024166 
L 114.7824 275.556414 
L 116.460428 275.556414 
L 116.460428 275.088662 
L 117.501332 275.088662 
L 117.501332 274.62091 
L 118.962067 274.62091 
L 118.962067 274.153159 
L 120.748446 274.153159 
L 120.748446 273.685407 
L 122.379802 273.685407 
L 122.379802 272.749903 
L 123.51671 272.749903 
L 123.51671 272.282152 
L 124.588805 272.282152 
L 124.588805 271.8144 
L 125.929373 271.8144 
L 125.929373 271.346648 
L 126.565455 271.346648 
L 126.565455 270.878897 
L 127.776517 270.878897 
L 127.776517 269.943393 
L 128.067481 269.943393 
L 128.067481 269.475641 
L 128.914307 269.475641 
L 128.914307 269.00789 
L 129.724648 269.00789 
L 129.724648 268.540138 
L 131.002163 268.540138 
L 131.002163 268.072386 
L 131.247576 268.072386 
L 131.247576 267.136883 
L 132.428795 267.136883 
L 132.428795 266.669131 
L 133.103489 266.669131 
L 133.103489 266.201379 
L 133.323114 266.201379 
L 133.323114 265.733628 
L 133.754819 265.733628 
L 133.754819 264.798124 
L 134.176839 264.798124 
L 134.176839 264.330372 
L 134.993495 264.330372 
L 134.993495 262.459366 
L 135.388902 262.459366 
L 135.388902 261.523862 
L 136.155623 261.523862 
L 136.155623 260.588359 
L 136.342518 260.588359 
L 136.342518 260.120607 
L 137.072066 260.120607 
L 137.072066 259.652855 
L 137.426497 259.652855 
L 137.426497 257.781848 
L 138.284415 257.781848 
L 138.284415 257.314097 
L 139.264798 257.314097 
L 139.264798 256.846345 
L 139.423341 256.846345 
L 139.423341 256.378593 
L 139.736472 256.378593 
L 139.736472 255.910841 
L 140.49723 255.910841 
L 140.49723 255.44309 
L 140.645758 255.44309 
L 140.645758 254.975338 
L 141.084433 254.975338 
L 141.084433 254.507586 
L 141.371301 254.507586 
L 141.371301 253.572083 
L 142.342229 253.572083 
L 142.342229 253.104331 
L 142.47693 253.104331 
L 142.47693 252.636579 
L 143.136341 252.636579 
L 143.136341 251.233324 
L 143.393766 251.233324 
L 143.393766 250.765572 
L 143.647716 250.765572 
L 143.647716 249.830069 
L 144.022326 249.830069 
L 144.022326 249.362317 
L 144.145557 249.362317 
L 144.145557 248.894566 
L 360.8064 248.894566 
" style="fill: none; stroke: #ff7500; stroke-width: 1.5; stroke-linecap: square"/>
   </g>
   <g id="line2d_46">
    <defs>
     <path id="m6a6cd5d8ea" d="M 0 -6 
L -1.347084 -1.854102 
L -5.706339 -1.854102 
L -2.179628 0.708204 
L -3.526712 4.854102 
L -0 2.291796 
L 3.526712 4.854102 
L 2.179628 0.708204 
L 5.706339 -1.854102 
L 1.347084 -1.854102 
z
" style="stroke: #ff7500; stroke-width: 1.5; stroke-linejoin: bevel"/>
    </defs>
    <g>
     <use xlink:href="#m6a6cd5d8ea" x="63.929565" y="283.975945" style="fill-opacity: 0; stroke: #ff7500; stroke-width: 1.5; stroke-linejoin: bevel"/>
     <use xlink:href="#m6a6cd5d8ea" x="144.145557" y="249.362317" style="fill-opacity: 0; stroke: #ff7500; stroke-width: 1.5; stroke-linejoin: bevel"/>
     <use xlink:href="#m6a6cd5d8ea" x="144.145557" y="249.362317" style="fill-opacity: 0; stroke: #ff7500; stroke-width: 1.5; stroke-linejoin: bevel"/>
     <use xlink:href="#m6a6cd5d8ea" x="144.145557" y="248.894566" style="fill-opacity: 0; stroke: #ff7500; stroke-width: 1.5; stroke-linejoin: bevel"/>
     <use xlink:href="#m6a6cd5d8ea" x="144.145557" y="248.894566" style="fill-opacity: 0; stroke: #ff7500; stroke-width: 1.5; stroke-linejoin: bevel"/>
     <use xlink:href="#m6a6cd5d8ea" x="360.8064" y="248.894566" style="fill-opacity: 0; stroke: #ff7500; stroke-width: 1.5; stroke-linejoin: bevel"/>
    </g>
   </g>
   <g id="line2d_47">
    <path style="fill: none; stroke: #ff7500; stroke-width: 1.5; stroke-linecap: square"/>
    <g/>
   </g>
   <g id="line2d_48">
    <path d="M 144.258596 248.894566 
" clip-path="url(#pcd7e3ccd72)" style="fill: none; stroke: #ff7500; stroke-width: 1.5; stroke-linecap: square"/>
    <defs>
     <path id="m977539caf9" d="M -12 12 
L 12 -12 
M -12 -12 
L 12 12 
" style="stroke: #ff7500"/>
    </defs>
    <g clip-path="url(#pcd7e3ccd72)">
     <use xlink:href="#m977539caf9" x="144.258596" y="248.894566" style="fill: #ff7500; stroke: #ff7500"/>
    </g>
   </g>
   <g id="line2d_49">
    <defs>
     <path id="m90b0ca84f9" d="M 0 1.5 
C 0.397805 1.5 0.77937 1.341951 1.06066 1.06066 
C 1.341951 0.77937 1.5 0.397805 1.5 0 
C 1.5 -0.397805 1.341951 -0.77937 1.06066 -1.06066 
C 0.77937 -1.341951 0.397805 -1.5 0 -1.5 
C -0.397805 -1.5 -0.77937 -1.341951 -1.06066 -1.06066 
C -1.341951 -0.77937 -1.5 -0.397805 -1.5 0 
C -1.5 0.397805 -1.341951 0.77937 -1.06066 1.06066 
C -0.77937 1.341951 -0.397805 1.5 0 1.5 
z
" style="stroke: #6495ed"/>
    </defs>
    <g>
     <use xlink:href="#m90b0ca84f9" x="142.753651" y="242.346041" style="fill: #6495ed; stroke: #6495ed"/>
     <use xlink:href="#m90b0ca84f9" x="142.753651" y="242.346041" style="fill: #6495ed; stroke: #6495ed"/>
    </g>
   </g>
   <g id="line2d_50">
    <path d="M 1.245626 298.944 
L 1.245626 286.314703 
L 40.363149 286.314703 
L 40.363149 285.846952 
L 50.890391 285.846952 
L 50.890391 284.911448 
L 57.6 284.911448 
L 57.6 284.443697 
L 66.441498 284.443697 
L 66.441498 283.508193 
L 80.621116 283.508193 
L 80.621116 282.57269 
L 85.894031 282.57269 
L 85.894031 281.637186 
L 87.495981 281.637186 
L 87.495981 281.169434 
L 92.811505 281.169434 
L 92.811505 279.766179 
L 94.995002 279.766179 
L 94.995002 279.298428 
L 95.503454 279.298428 
L 95.503454 278.362924 
L 96.241256 278.362924 
L 96.241256 277.895172 
L 97.18203 277.895172 
L 97.18203 277.427421 
L 98.510456 277.427421 
L 98.510456 276.959669 
L 99.346662 276.959669 
L 99.346662 276.024166 
L 100.9152 276.024166 
L 100.9152 275.556414 
L 101.833019 275.556414 
L 101.833019 275.088662 
L 103.214303 275.088662 
L 103.214303 274.62091 
L 103.544339 274.62091 
L 103.544339 274.153159 
L 103.707211 274.153159 
L 103.707211 273.685407 
L 103.868684 273.685407 
L 103.868684 272.749903 
L 104.655893 272.749903 
L 104.655893 272.282152 
L 104.961779 272.282152 
L 104.961779 271.8144 
L 105.112877 271.8144 
L 105.112877 270.878897 
L 105.559021 270.878897 
L 105.559021 270.411145 
L 105.850679 270.411145 
L 105.850679 269.943393 
L 109.873904 269.943393 
L 109.873904 269.475641 
L 110.221204 269.475641 
L 110.221204 269.00789 
L 110.897141 269.00789 
L 110.897141 268.072386 
L 114.326893 268.072386 
L 114.326893 267.136883 
L 115.747307 267.136883 
L 115.83262 266.201379 
L 117.266185 266.201379 
L 117.266185 265.733628 
L 117.384126 265.733628 
L 117.384126 265.265876 
L 120.384447 265.265876 
L 120.384447 264.798124 
L 120.616896 264.798124 
L 120.64987 263.862621 
L 121.768984 263.862621 
L 121.86188 262.927117 
L 122.349728 262.927117 
L 122.349728 262.459366 
L 122.825242 262.459366 
L 122.825242 261.991614 
L 123.85314 261.991614 
L 123.880906 260.120607 
L 124.156336 260.120607 
L 124.156336 259.185103 
L 125.011554 259.185103 
L 125.089773 257.781848 
L 126.828223 257.781848 
L 126.828223 257.314097 
L 127.134109 257.314097 
L 127.134109 256.378593 
L 128.111848 256.378593 
L 128.111848 255.910841 
L 128.463066 255.910841 
L 128.484801 254.975338 
L 128.956723 254.975338 
L 128.956723 254.507586 
L 130.146945 254.507586 
L 130.146945 254.039834 
L 130.265881 254.039834 
L 130.265881 253.572083 
L 130.887807 253.572083 
L 130.887807 253.104331 
L 131.655732 253.104331 
L 131.655732 252.636579 
L 132.180571 252.636579 
L 132.180571 251.701076 
L 132.340519 251.701076 
L 132.340519 250.765572 
L 133.05244 250.765572 
L 133.05244 249.830069 
L 133.339903 249.830069 
L 133.339903 249.362317 
L 134.208913 249.362317 
L 134.208913 248.894566 
L 134.854664 248.894566 
L 134.854664 248.426814 
L 135.449003 248.426814 
L 135.449003 247.959062 
L 136.752866 247.959062 
L 136.752866 247.49131 
L 137.439996 247.49131 
L 137.439996 247.023559 
L 139.362521 247.023559 
L 139.362521 246.088055 
L 139.997419 246.088055 
L 139.997419 245.620303 
L 140.770526 245.620303 
L 140.770526 245.152552 
L 141.195285 245.152552 
L 141.195285 244.217048 
L 142.143605 244.217048 
L 142.143605 243.749297 
L 142.712912 243.749297 
L 142.753651 242.346041 
L 360.8064 242.346041 
L 360.8064 242.346041 
" style="fill: none; stroke: #6495ed; stroke-width: 1.5; stroke-linecap: square"/>
   </g>
   <g id="line2d_51">
    <defs>
     <path id="m70787add4b" d="M -0 6 
L 6 -6 
L -6 -6 
z
" style="stroke: #6495ed; stroke-width: 1.5; stroke-linejoin: miter"/>
    </defs>
    <g>
     <use xlink:href="#m70787add4b" x="130.265881" y="253.572083" style="fill-opacity: 0; stroke: #6495ed; stroke-width: 1.5; stroke-linejoin: miter"/>
     <use xlink:href="#m70787add4b" x="142.753651" y="243.281545" style="fill-opacity: 0; stroke: #6495ed; stroke-width: 1.5; stroke-linejoin: miter"/>
     <use xlink:href="#m70787add4b" x="142.753651" y="242.346041" style="fill-opacity: 0; stroke: #6495ed; stroke-width: 1.5; stroke-linejoin: miter"/>
     <use xlink:href="#m70787add4b" x="142.753651" y="242.346041" style="fill-opacity: 0; stroke: #6495ed; stroke-width: 1.5; stroke-linejoin: miter"/>
     <use xlink:href="#m70787add4b" x="360.8064" y="242.346041" style="fill-opacity: 0; stroke: #6495ed; stroke-width: 1.5; stroke-linejoin: miter"/>
    </g>
   </g>
   <g id="line2d_52">
    <path style="fill: none; stroke: #6495ed; stroke-width: 1.5; stroke-linecap: square"/>
    <g/>
   </g>
   <g id="line2d_53">
    <path d="M 144.220992 242.346041 
" clip-path="url(#pcd7e3ccd72)" style="fill: none; stroke: #6495ed; stroke-width: 1.5; stroke-linecap: square"/>
    <defs>
     <path id="mfcaf05d80b" d="M -12 12 
L 12 -12 
M -12 -12 
L 12 12 
" style="stroke: #6495ed"/>
    </defs>
    <g clip-path="url(#pcd7e3ccd72)">
     <use xlink:href="#mfcaf05d80b" x="144.220992" y="242.346041" style="fill: #6495ed; stroke: #6495ed"/>
    </g>
   </g>
   <g id="line2d_54">
    <defs>
     <path id="m4e5324f77b" d="M 0 1.5 
C 0.397805 1.5 0.77937 1.341951 1.06066 1.06066 
C 1.341951 0.77937 1.5 0.397805 1.5 0 
C 1.5 -0.397805 1.341951 -0.77937 1.06066 -1.06066 
C 0.77937 -1.341951 0.397805 -1.5 0 -1.5 
C -0.397805 -1.5 -0.77937 -1.341951 -1.06066 -1.06066 
C -1.341951 -0.77937 -1.5 -0.397805 -1.5 0 
C -1.5 0.397805 -1.341951 0.77937 -1.06066 1.06066 
C -0.77937 1.341951 -0.397805 1.5 0 1.5 
z
" style="stroke: #ff0000"/>
    </defs>
    <g>
     <use xlink:href="#m4e5324f77b" x="212.652853" y="204.925903" style="fill: #ff0000; stroke: #ff0000"/>
     <use xlink:href="#m4e5324f77b" x="212.652853" y="204.925903" style="fill: #ff0000; stroke: #ff0000"/>
    </g>
   </g>
   <g id="line2d_55">
    <path d="M 1.245626 298.944 
L 1.245626 286.314703 
L 14.2848 286.314703 
L 14.2848 285.3792 
L 21.912228 285.3792 
L 21.912228 284.911448 
L 53.402323 284.911448 
L 53.402323 284.443697 
L 61.029752 284.443697 
L 61.029752 283.508193 
L 69.172597 283.508193 
L 69.172597 282.104938 
L 69.674268 282.104938 
L 69.674268 281.637186 
L 70.162907 281.637186 
L 70.162907 281.169434 
L 79.184421 281.169434 
L 79.184421 279.766179 
L 82.713442 279.766179 
L 82.713442 279.298428 
L 85.683844 279.298428 
L 85.683844 278.830676 
L 87.686963 278.830676 
L 87.686963 278.362924 
L 90.505165 278.362924 
L 90.505165 277.895172 
L 92.519847 277.895172 
L 92.519847 277.427421 
L 94.339481 277.427421 
L 94.339481 276.959669 
L 95.998523 276.959669 
L 95.998523 275.556414 
L 100.244997 275.556414 
L 100.244997 275.088662 
L 102.62243 275.088662 
L 102.62243 273.685407 
L 106.630177 273.685407 
L 106.630177 273.217655 
L 108.353566 273.217655 
L 108.353566 272.749903 
L 111.280505 272.749903 
L 111.280505 272.282152 
L 114.094935 272.282152 
L 114.094935 271.8144 
L 119.842094 271.8144 
L 119.842094 271.346648 
L 120.317502 271.346648 
L 120.317502 270.878897 
L 120.616896 270.878897 
L 120.616896 270.411145 
L 121.455972 270.411145 
L 121.455972 269.943393 
L 127.389106 269.943393 
L 127.389106 269.475641 
L 128.549855 269.475641 
L 128.549855 269.00789 
L 132.126951 269.00789 
L 132.126951 268.072386 
L 134.652304 268.072386 
L 134.652304 267.604634 
L 134.931919 267.604634 
L 134.931919 267.136883 
L 135.131309 267.136883 
L 135.131309 266.669131 
L 136.097741 266.669131 
L 136.097741 265.733628 
L 136.836659 265.733628 
L 136.836659 265.265876 
L 137.547645 265.265876 
L 137.547645 264.798124 
L 139.350333 264.798124 
L 139.350333 263.862621 
L 141.106655 263.862621 
L 141.106655 263.394869 
L 142.133093 263.394869 
L 142.133093 262.927117 
L 143.859951 262.927117 
L 143.965177 261.05611 
L 148.185734 261.05611 
L 148.185734 260.120607 
L 148.330001 260.120607 
L 148.330001 259.652855 
L 149.524205 259.652855 
L 149.524205 258.717352 
L 150.248351 258.717352 
L 150.248351 258.2496 
L 151.355818 258.2496 
L 151.355818 257.781848 
L 151.60532 257.781848 
L 151.60532 257.314097 
L 152.55942 257.314097 
L 152.55942 256.378593 
L 153.02481 256.378593 
L 153.02481 255.910841 
L 154.709207 255.910841 
L 154.709207 255.44309 
L 155.365798 255.44309 
L 155.469586 254.039834 
L 155.485105 254.039834 
L 155.485105 253.572083 
L 156.015331 253.572083 
L 156.015331 253.104331 
L 156.457508 253.104331 
L 156.457508 252.636579 
L 158.290128 252.636579 
L 158.303487 251.701076 
L 158.691186 251.701076 
L 158.691186 251.233324 
L 158.981099 251.233324 
L 159.006845 250.297821 
L 161.553586 250.297821 
L 161.553586 249.830069 
L 162.11076 249.830069 
L 162.157966 248.426814 
L 163.136649 248.426814 
L 163.136649 247.49131 
L 163.331873 247.49131 
L 163.393104 246.088055 
L 165.235679 246.088055 
L 165.235679 245.152552 
L 165.535057 245.152552 
L 165.598594 244.217048 
L 165.746019 244.217048 
L 165.746019 243.281545 
L 166.843221 243.281545 
L 166.843221 242.346041 
L 167.599608 242.346041 
L 167.599608 241.87829 
L 167.732209 241.87829 
L 167.732209 240.942786 
L 168.1904 240.942786 
L 168.1904 240.007283 
L 168.326754 240.007283 
L 168.326754 239.539531 
L 168.67364 239.539531 
L 168.67364 239.071779 
L 169.144777 239.071779 
L 169.144777 238.136276 
L 169.383404 238.136276 
L 169.383404 237.668524 
L 171.621029 237.668524 
L 171.680147 236.265269 
L 171.884527 236.265269 
L 171.884527 235.797517 
L 172.033151 235.797517 
L 172.033151 234.862014 
L 172.402808 234.862014 
L 172.402808 233.92651 
L 173.366453 233.92651 
L 173.366453 233.458759 
L 174.667513 233.458759 
L 174.715944 232.055503 
L 175.543899 232.055503 
L 175.543899 231.587752 
L 175.921059 231.587752 
L 175.929781 230.184497 
L 176.403388 230.184497 
L 176.403388 229.248993 
L 177.317886 229.248993 
L 177.317886 228.31349 
L 177.634351 228.31349 
L 177.634351 227.377986 
L 178.789688 227.377986 
L 178.789688 226.910234 
L 179.453477 226.910234 
L 179.453477 225.974731 
L 179.700586 225.974731 
L 179.700586 225.039228 
L 180.178316 225.039228 
L 180.178316 224.103724 
L 180.772731 224.103724 
L 180.772731 223.635972 
L 181.351553 223.635972 
L 181.351553 223.168221 
L 181.536288 223.168221 
L 181.536288 222.232717 
L 181.854635 222.232717 
L 181.854635 221.297214 
L 183.211043 221.297214 
L 183.211043 220.829462 
L 183.960958 220.829462 
L 183.960958 219.893959 
L 184.88907 219.893959 
L 184.88907 218.958455 
L 185.358701 218.958455 
L 185.358701 218.022952 
L 186.784532 218.022952 
L 186.835393 216.151945 
L 186.937675 216.151945 
L 186.937675 215.684193 
L 187.086689 215.684193 
L 187.086689 215.216441 
L 187.499455 215.216441 
L 187.499455 214.280938 
L 187.796929 214.280938 
L 187.796929 213.813186 
L 188.757612 213.813186 
L 188.757612 212.877683 
L 189.417886 212.877683 
L 189.417886 211.942179 
L 190.084555 211.942179 
L 190.084555 211.006676 
L 190.88027 211.006676 
L 190.88027 210.538924 
L 194.44686 210.538924 
L 194.44686 210.071172 
L 195.800169 210.071172 
L 195.800169 209.135669 
L 197.860964 209.135669 
L 197.860964 208.667917 
L 198.58082 208.667917 
L 198.58082 207.732414 
L 201.57412 207.732414 
L 201.620467 205.861407 
L 212.652853 205.861407 
L 212.652853 204.925903 
L 360.8064 204.925903 
L 360.8064 204.925903 
" style="fill: none; stroke: #ff0000; stroke-width: 1.5; stroke-linecap: square"/>
   </g>
   <g id="line2d_56">
    <defs>
     <path id="m4bbf49ee1e" d="M 0 -6 
L -5.196152 -3 
L -5.196152 3 
L -0 6 
L 5.196152 3 
L 5.196152 -3 
z
" style="stroke: #ff0000; stroke-width: 1.5; stroke-linejoin: miter"/>
    </defs>
    <g>
     <use xlink:href="#m4bbf49ee1e" x="100.244997" y="275.556414" style="fill-opacity: 0; stroke: #ff0000; stroke-width: 1.5; stroke-linejoin: miter"/>
     <use xlink:href="#m4bbf49ee1e" x="187.796929" y="214.280938" style="fill-opacity: 0; stroke: #ff0000; stroke-width: 1.5; stroke-linejoin: miter"/>
     <use xlink:href="#m4bbf49ee1e" x="212.652853" y="205.861407" style="fill-opacity: 0; stroke: #ff0000; stroke-width: 1.5; stroke-linejoin: miter"/>
     <use xlink:href="#m4bbf49ee1e" x="212.652853" y="204.925903" style="fill-opacity: 0; stroke: #ff0000; stroke-width: 1.5; stroke-linejoin: miter"/>
     <use xlink:href="#m4bbf49ee1e" x="212.652853" y="204.925903" style="fill-opacity: 0; stroke: #ff0000; stroke-width: 1.5; stroke-linejoin: miter"/>
     <use xlink:href="#m4bbf49ee1e" x="360.8064" y="204.925903" style="fill-opacity: 0; stroke: #ff0000; stroke-width: 1.5; stroke-linejoin: miter"/>
    </g>
   </g>
   <g id="line2d_57">
    <path style="fill: none; stroke: #ff0000; stroke-width: 1.5; stroke-linecap: square"/>
    <g/>
   </g>
   <g id="line2d_58">
    <path d="M 274.176075 204.925903 
" clip-path="url(#pcd7e3ccd72)" style="fill: none; stroke: #ff0000; stroke-width: 1.5; stroke-linecap: square"/>
    <defs>
     <path id="m5079b2c1bc" d="M -12 12 
L 12 -12 
M -12 -12 
L 12 12 
" style="stroke: #ff0000"/>
    </defs>
    <g clip-path="url(#pcd7e3ccd72)">
     <use xlink:href="#m5079b2c1bc" x="274.176075" y="204.925903" style="fill: #ff0000; stroke: #ff0000"/>
    </g>
   </g>
   <g id="line2d_59">
    <path d="M 360.8064 248.894566 
L 380.514816 293.51808 
" style="fill: none; stroke: #ff7500; stroke-width: 1.5; stroke-linecap: square"/>
    <g>
     <use xlink:href="#m6a6cd5d8ea" x="360.8064" y="248.894566" style="fill-opacity: 0; stroke: #ff7500; stroke-width: 1.5; stroke-linejoin: bevel"/>
     <use xlink:href="#m6a6cd5d8ea" x="380.514816" y="293.51808" style="fill-opacity: 0; stroke: #ff7500; stroke-width: 1.5; stroke-linejoin: bevel"/>
    </g>
   </g>
   <g id="line2d_60">
    <path d="M 360.8064 245.620303 
L 380.514816 241.429248 
" style="fill: none; stroke: #000080; stroke-width: 1.5; stroke-linecap: square"/>
    <g>
     <use xlink:href="#m1e2c82a542" x="360.8064" y="245.620303" style="fill-opacity: 0; stroke: #000080; stroke-width: 1.5"/>
     <use xlink:href="#m1e2c82a542" x="380.514816" y="241.429248" style="fill-opacity: 0; stroke: #000080; stroke-width: 1.5"/>
    </g>
   </g>
   <g id="line2d_61">
    <path d="M 360.8064 242.346041 
L 380.514816 189.340416 
" style="fill: none; stroke: #6495ed; stroke-width: 1.5; stroke-linecap: square"/>
    <g>
     <use xlink:href="#m70787add4b" x="360.8064" y="242.346041" style="fill-opacity: 0; stroke: #6495ed; stroke-width: 1.5; stroke-linejoin: miter"/>
     <use xlink:href="#m70787add4b" x="380.514816" y="189.340416" style="fill-opacity: 0; stroke: #6495ed; stroke-width: 1.5; stroke-linejoin: miter"/>
    </g>
   </g>
   <g id="line2d_62">
    <path d="M 360.8064 241.410538 
L 380.514816 137.251584 
" style="fill: none; stroke: #ff00ff; stroke-width: 1.5; stroke-linecap: square"/>
    <g>
     <use xlink:href="#m59af44c0bf" x="360.8064" y="241.410538" style="fill-opacity: 0; stroke: #ff00ff; stroke-width: 1.5; stroke-linejoin: miter"/>
     <use xlink:href="#m59af44c0bf" x="380.514816" y="137.251584" style="fill-opacity: 0; stroke: #ff00ff; stroke-width: 1.5; stroke-linejoin: miter"/>
    </g>
   </g>
   <g id="line2d_63">
    <path d="M 360.8064 204.925903 
L 380.514816 85.162752 
" style="fill: none; stroke: #ff0000; stroke-width: 1.5; stroke-linecap: square"/>
    <g>
     <use xlink:href="#m4bbf49ee1e" x="360.8064" y="204.925903" style="fill-opacity: 0; stroke: #ff0000; stroke-width: 1.5; stroke-linejoin: miter"/>
     <use xlink:href="#m4bbf49ee1e" x="380.514816" y="85.162752" style="fill-opacity: 0; stroke: #ff0000; stroke-width: 1.5; stroke-linejoin: miter"/>
    </g>
   </g>
   <g id="line2d_64">
    <path d="M 360.8064 298.944 
L 360.8064 27.648 
" style="fill: none; stroke: #000000; stroke-width: 1.5; stroke-linecap: square"/>
   </g>
   <g id="patch_3">
    <path d="M 57.6 298.944 
L 360.8064 298.944 
" style="fill: none; stroke: #000000; stroke-width: 0.8; stroke-linejoin: miter; stroke-linecap: square"/>
   </g>
   <g id="patch_4">
    <path d="M 57.6 27.648 
L 360.8064 27.648 
" style="fill: none; stroke: #000000; stroke-width: 0.8; stroke-linejoin: miter; stroke-linecap: square"/>
   </g>
   <g id="text_13">
    <!-- kerComo -->
    <g transform="translate(386.578944 297.381205) scale(0.14 -0.14)">
     <defs>
      <path id="DejaVuSans-6b" d="M 581 4863 
L 1159 4863 
L 1159 1991 
L 2875 3500 
L 3609 3500 
L 1753 1863 
L 3688 0 
L 2938 0 
L 1159 1709 
L 1159 0 
L 581 0 
L 581 4863 
z
" transform="scale(0.015625)"/>
      <path id="DejaVuSans-43" d="M 4122 4306 
L 4122 3641 
Q 3803 3938 3442 4084 
Q 3081 4231 2675 4231 
Q 1875 4231 1450 3742 
Q 1025 3253 1025 2328 
Q 1025 1406 1450 917 
Q 1875 428 2675 428 
Q 3081 428 3442 575 
Q 3803 722 4122 1019 
L 4122 359 
Q 3791 134 3420 21 
Q 3050 -91 2638 -91 
Q 1578 -91 968 557 
Q 359 1206 359 2328 
Q 359 3453 968 4101 
Q 1578 4750 2638 4750 
Q 3056 4750 3426 4639 
Q 3797 4528 4122 4306 
z
" transform="scale(0.015625)"/>
     </defs>
     <use xlink:href="#DejaVuSans-6b"/>
     <use xlink:href="#DejaVuSans-65" x="54.285156"/>
     <use xlink:href="#DejaVuSans-72" x="115.808594"/>
     <use xlink:href="#DejaVuSans-43" x="156.921875"/>
     <use xlink:href="#DejaVuSans-6f" x="226.746094"/>
     <use xlink:href="#DejaVuSans-6d" x="287.927734"/>
     <use xlink:href="#DejaVuSans-6f" x="385.339844"/>
    </g>
   </g>
   <g id="text_14">
    <!-- AllComo -->
    <g transform="translate(386.578944 245.292373) scale(0.14 -0.14)">
     <defs>
      <path id="DejaVuSans-41" d="M 2188 4044 
L 1331 1722 
L 3047 1722 
L 2188 4044 
z
M 1831 4666 
L 2547 4666 
L 4325 0 
L 3669 0 
L 3244 1197 
L 1141 1197 
L 716 0 
L 50 0 
L 1831 4666 
z
" transform="scale(0.015625)"/>
     </defs>
     <use xlink:href="#DejaVuSans-41"/>
     <use xlink:href="#DejaVuSans-6c" x="68.408203"/>
     <use xlink:href="#DejaVuSans-6c" x="96.191406"/>
     <use xlink:href="#DejaVuSans-43" x="123.974609"/>
     <use xlink:href="#DejaVuSans-6f" x="193.798828"/>
     <use xlink:href="#DejaVuSans-6d" x="254.980469"/>
     <use xlink:href="#DejaVuSans-6f" x="352.392578"/>
    </g>
   </g>
   <g id="text_15">
    <!-- kerLQ -->
    <g transform="translate(386.578944 193.203541) scale(0.14 -0.14)">
     <defs>
      <path id="DejaVuSans-4c" d="M 628 4666 
L 1259 4666 
L 1259 531 
L 3531 531 
L 3531 0 
L 628 0 
L 628 4666 
z
" transform="scale(0.015625)"/>
      <path id="DejaVuSans-51" d="M 2522 4238 
Q 1834 4238 1429 3725 
Q 1025 3213 1025 2328 
Q 1025 1447 1429 934 
Q 1834 422 2522 422 
Q 3209 422 3611 934 
Q 4013 1447 4013 2328 
Q 4013 3213 3611 3725 
Q 3209 4238 2522 4238 
z
M 3406 84 
L 4238 -825 
L 3475 -825 
L 2784 -78 
Q 2681 -84 2626 -87 
Q 2572 -91 2522 -91 
Q 1538 -91 948 567 
Q 359 1225 359 2328 
Q 359 3434 948 4092 
Q 1538 4750 2522 4750 
Q 3503 4750 4090 4092 
Q 4678 3434 4678 2328 
Q 4678 1516 4351 937 
Q 4025 359 3406 84 
z
" transform="scale(0.015625)"/>
     </defs>
     <use xlink:href="#DejaVuSans-6b"/>
     <use xlink:href="#DejaVuSans-65" x="54.285156"/>
     <use xlink:href="#DejaVuSans-72" x="115.808594"/>
     <use xlink:href="#DejaVuSans-4c" x="156.921875"/>
     <use xlink:href="#DejaVuSans-51" x="212.634766"/>
    </g>
   </g>
   <g id="text_16">
    <!-- AllLQ -->
    <g transform="translate(386.578944 141.114709) scale(0.14 -0.14)">
     <use xlink:href="#DejaVuSans-41"/>
     <use xlink:href="#DejaVuSans-6c" x="68.408203"/>
     <use xlink:href="#DejaVuSans-6c" x="96.191406"/>
     <use xlink:href="#DejaVuSans-4c" x="123.974609"/>
     <use xlink:href="#DejaVuSans-51" x="179.6875"/>
    </g>
   </g>
   <g id="text_17">
    <!-- COMO-10 d -->
    <g transform="translate(386.578944 89.025877) scale(0.14 -0.14)">
     <defs>
      <path id="DejaVuSans-4f" d="M 2522 4238 
Q 1834 4238 1429 3725 
Q 1025 3213 1025 2328 
Q 1025 1447 1429 934 
Q 1834 422 2522 422 
Q 3209 422 3611 934 
Q 4013 1447 4013 2328 
Q 4013 3213 3611 3725 
Q 3209 4238 2522 4238 
z
M 2522 4750 
Q 3503 4750 4090 4092 
Q 4678 3434 4678 2328 
Q 4678 1225 4090 567 
Q 3503 -91 2522 -91 
Q 1538 -91 948 565 
Q 359 1222 359 2328 
Q 359 3434 948 4092 
Q 1538 4750 2522 4750 
z
" transform="scale(0.015625)"/>
      <path id="DejaVuSans-4d" d="M 628 4666 
L 1569 4666 
L 2759 1491 
L 3956 4666 
L 4897 4666 
L 4897 0 
L 4281 0 
L 4281 4097 
L 3078 897 
L 2444 897 
L 1241 4097 
L 1241 0 
L 628 0 
L 628 4666 
z
" transform="scale(0.015625)"/>
     </defs>
     <use xlink:href="#DejaVuSans-43"/>
     <use xlink:href="#DejaVuSans-4f" x="69.824219"/>
     <use xlink:href="#DejaVuSans-4d" x="148.535156"/>
     <use xlink:href="#DejaVuSans-4f" x="234.814453"/>
     <use xlink:href="#DejaVuSans-2d" x="316.275391"/>
     <use xlink:href="#DejaVuSans-31" x="352.359375"/>
     <use xlink:href="#DejaVuSans-30" x="415.982422"/>
     <use xlink:href="#DejaVuSans-20" x="479.605469"/>
     <use xlink:href="#DejaVuSans-64" x="511.392578"/>
    </g>
   </g>
   <g id="text_18">
    <!-- best 2016 -->
    <g transform="translate(386.578944 36.937045) scale(0.14 -0.14)">
     <defs>
      <path id="DejaVuSans-62" d="M 3116 1747 
Q 3116 2381 2855 2742 
Q 2594 3103 2138 3103 
Q 1681 3103 1420 2742 
Q 1159 2381 1159 1747 
Q 1159 1113 1420 752 
Q 1681 391 2138 391 
Q 2594 391 2855 752 
Q 3116 1113 3116 1747 
z
M 1159 2969 
Q 1341 3281 1617 3432 
Q 1894 3584 2278 3584 
Q 2916 3584 3314 3078 
Q 3713 2572 3713 1747 
Q 3713 922 3314 415 
Q 2916 -91 2278 -91 
Q 1894 -91 1617 61 
Q 1341 213 1159 525 
L 1159 0 
L 581 0 
L 581 4863 
L 1159 4863 
L 1159 2969 
z
" transform="scale(0.015625)"/>
     </defs>
     <use xlink:href="#DejaVuSans-62"/>
     <use xlink:href="#DejaVuSans-65" x="63.476562"/>
     <use xlink:href="#DejaVuSans-73" x="125"/>
     <use xlink:href="#DejaVuSans-74" x="177.099609"/>
     <use xlink:href="#DejaVuSans-20" x="216.308594"/>
     <use xlink:href="#DejaVuSans-32" x="248.095703"/>
     <use xlink:href="#DejaVuSans-30" x="311.71875"/>
     <use xlink:href="#DejaVuSans-31" x="375.341797"/>
     <use xlink:href="#DejaVuSans-36" x="438.964844"/>
    </g>
   </g>
   <g id="text_19">
    <!-- bbob-biobj f11, 20-D -->
    <g transform="translate(60.632064 38.111366) scale(0.102 -0.102)">
     <defs>
      <path id="DejaVuSans-6a" d="M 603 3500 
L 1178 3500 
L 1178 -63 
Q 1178 -731 923 -1031 
Q 669 -1331 103 -1331 
L -116 -1331 
L -116 -844 
L 38 -844 
Q 366 -844 484 -692 
Q 603 -541 603 -63 
L 603 3500 
z
M 603 4863 
L 1178 4863 
L 1178 4134 
L 603 4134 
L 603 4863 
z
" transform="scale(0.015625)"/>
      <path id="DejaVuSans-44" d="M 1259 4147 
L 1259 519 
L 2022 519 
Q 2988 519 3436 956 
Q 3884 1394 3884 2338 
Q 3884 3275 3436 3711 
Q 2988 4147 2022 4147 
L 1259 4147 
z
M 628 4666 
L 1925 4666 
Q 3281 4666 3915 4102 
Q 4550 3538 4550 2338 
Q 4550 1131 3912 565 
Q 3275 0 1925 0 
L 628 0 
L 628 4666 
z
" transform="scale(0.015625)"/>
     </defs>
     <use xlink:href="#DejaVuSans-62"/>
     <use xlink:href="#DejaVuSans-62" x="63.476562"/>
     <use xlink:href="#DejaVuSans-6f" x="126.953125"/>
     <use xlink:href="#DejaVuSans-62" x="188.134766"/>
     <use xlink:href="#DejaVuSans-2d" x="251.611328"/>
     <use xlink:href="#DejaVuSans-62" x="287.695312"/>
     <use xlink:href="#DejaVuSans-69" x="351.171875"/>
     <use xlink:href="#DejaVuSans-6f" x="378.955078"/>
     <use xlink:href="#DejaVuSans-62" x="440.136719"/>
     <use xlink:href="#DejaVuSans-6a" x="503.613281"/>
     <use xlink:href="#DejaVuSans-20" x="531.396484"/>
     <use xlink:href="#DejaVuSans-66" x="563.183594"/>
     <use xlink:href="#DejaVuSans-31" x="598.388672"/>
     <use xlink:href="#DejaVuSans-31" x="662.011719"/>
     <use xlink:href="#DejaVuSans-2c" x="725.634766"/>
     <use xlink:href="#DejaVuSans-20" x="757.421875"/>
     <use xlink:href="#DejaVuSans-32" x="789.208984"/>
     <use xlink:href="#DejaVuSans-30" x="852.832031"/>
     <use xlink:href="#DejaVuSans-2d" x="916.455078"/>
     <use xlink:href="#DejaVuSans-44" x="952.539062"/>
    </g>
    <!-- 58 targets: 1..-1.0e-4 -->
    <g transform="translate(60.632064 49.533135) scale(0.102 -0.102)">
     <defs>
      <path id="DejaVuSans-35" d="M 691 4666 
L 3169 4666 
L 3169 4134 
L 1269 4134 
L 1269 2991 
Q 1406 3038 1543 3061 
Q 1681 3084 1819 3084 
Q 2600 3084 3056 2656 
Q 3513 2228 3513 1497 
Q 3513 744 3044 326 
Q 2575 -91 1722 -91 
Q 1428 -91 1123 -41 
Q 819 9 494 109 
L 494 744 
Q 775 591 1075 516 
Q 1375 441 1709 441 
Q 2250 441 2565 725 
Q 2881 1009 2881 1497 
Q 2881 1984 2565 2268 
Q 2250 2553 1709 2553 
Q 1456 2553 1204 2497 
Q 953 2441 691 2322 
L 691 4666 
z
" transform="scale(0.015625)"/>
      <path id="DejaVuSans-3a" d="M 750 794 
L 1409 794 
L 1409 0 
L 750 0 
L 750 794 
z
M 750 3309 
L 1409 3309 
L 1409 2516 
L 750 2516 
L 750 3309 
z
" transform="scale(0.015625)"/>
     </defs>
     <use xlink:href="#DejaVuSans-35"/>
     <use xlink:href="#DejaVuSans-38" x="63.623047"/>
     <use xlink:href="#DejaVuSans-20" x="127.246094"/>
     <use xlink:href="#DejaVuSans-74" x="159.033203"/>
     <use xlink:href="#DejaVuSans-61" x="198.242188"/>
     <use xlink:href="#DejaVuSans-72" x="259.521484"/>
     <use xlink:href="#DejaVuSans-67" x="298.884766"/>
     <use xlink:href="#DejaVuSans-65" x="362.361328"/>
     <use xlink:href="#DejaVuSans-74" x="423.884766"/>
     <use xlink:href="#DejaVuSans-73" x="463.09375"/>
     <use xlink:href="#DejaVuSans-3a" x="515.193359"/>
     <use xlink:href="#DejaVuSans-20" x="548.884766"/>
     <use xlink:href="#DejaVuSans-31" x="580.671875"/>
     <use xlink:href="#DejaVuSans-2e" x="644.294922"/>
     <use xlink:href="#DejaVuSans-2e" x="676.082031"/>
     <use xlink:href="#DejaVuSans-2d" x="707.869141"/>
     <use xlink:href="#DejaVuSans-31" x="743.953125"/>
     <use xlink:href="#DejaVuSans-2e" x="807.576172"/>
     <use xlink:href="#DejaVuSans-30" x="839.363281"/>
     <use xlink:href="#DejaVuSans-65" x="902.986328"/>
     <use xlink:href="#DejaVuSans-2d" x="964.509766"/>
     <use xlink:href="#DejaVuSans-34" x="1000.59375"/>
    </g>
    <!-- 10 instances -->
    <g transform="translate(60.632064 60.954904) scale(0.102 -0.102)">
     <use xlink:href="#DejaVuSans-31"/>
     <use xlink:href="#DejaVuSans-30" x="63.623047"/>
     <use xlink:href="#DejaVuSans-20" x="127.246094"/>
     <use xlink:href="#DejaVuSans-69" x="159.033203"/>
     <use xlink:href="#DejaVuSans-6e" x="186.816406"/>
     <use xlink:href="#DejaVuSans-73" x="250.195312"/>
     <use xlink:href="#DejaVuSans-74" x="302.294922"/>
     <use xlink:href="#DejaVuSans-61" x="341.503906"/>
     <use xlink:href="#DejaVuSans-6e" x="402.783203"/>
     <use xlink:href="#DejaVuSans-63" x="466.162109"/>
     <use xlink:href="#DejaVuSans-65" x="521.142578"/>
     <use xlink:href="#DejaVuSans-73" x="582.666016"/>
    </g>
   </g>
   <g id="text_20">
    <!-- v2.6, hv-hash=ff0e71e8cd978373 -->
    <g style="fill: #808080" transform="translate(123.707887 294.151352) scale(0.1 -0.1)">
     <defs>
      <path id="DejaVuSans-68" d="M 3513 2113 
L 3513 0 
L 2938 0 
L 2938 2094 
Q 2938 2591 2744 2837 
Q 2550 3084 2163 3084 
Q 1697 3084 1428 2787 
Q 1159 2491 1159 1978 
L 1159 0 
L 581 0 
L 581 4863 
L 1159 4863 
L 1159 2956 
Q 1366 3272 1645 3428 
Q 1925 3584 2291 3584 
Q 2894 3584 3203 3211 
Q 3513 2838 3513 2113 
z
" transform="scale(0.015625)"/>
      <path id="DejaVuSans-3d" d="M 678 2906 
L 4684 2906 
L 4684 2381 
L 678 2381 
L 678 2906 
z
M 678 1631 
L 4684 1631 
L 4684 1100 
L 678 1100 
L 678 1631 
z
" transform="scale(0.015625)"/>
      <path id="DejaVuSans-37" d="M 525 4666 
L 3525 4666 
L 3525 4397 
L 1831 0 
L 1172 0 
L 2766 4134 
L 525 4134 
L 525 4666 
z
" transform="scale(0.015625)"/>
      <path id="DejaVuSans-39" d="M 703 97 
L 703 672 
Q 941 559 1184 500 
Q 1428 441 1663 441 
Q 2288 441 2617 861 
Q 2947 1281 2994 2138 
Q 2813 1869 2534 1725 
Q 2256 1581 1919 1581 
Q 1219 1581 811 2004 
Q 403 2428 403 3163 
Q 403 3881 828 4315 
Q 1253 4750 1959 4750 
Q 2769 4750 3195 4129 
Q 3622 3509 3622 2328 
Q 3622 1225 3098 567 
Q 2575 -91 1691 -91 
Q 1453 -91 1209 -44 
Q 966 3 703 97 
z
M 1959 2075 
Q 2384 2075 2632 2365 
Q 2881 2656 2881 3163 
Q 2881 3666 2632 3958 
Q 2384 4250 1959 4250 
Q 1534 4250 1286 3958 
Q 1038 3666 1038 3163 
Q 1038 2656 1286 2365 
Q 1534 2075 1959 2075 
z
" transform="scale(0.015625)"/>
      <path id="DejaVuSans-33" d="M 2597 2516 
Q 3050 2419 3304 2112 
Q 3559 1806 3559 1356 
Q 3559 666 3084 287 
Q 2609 -91 1734 -91 
Q 1441 -91 1130 -33 
Q 819 25 488 141 
L 488 750 
Q 750 597 1062 519 
Q 1375 441 1716 441 
Q 2309 441 2620 675 
Q 2931 909 2931 1356 
Q 2931 1769 2642 2001 
Q 2353 2234 1838 2234 
L 1294 2234 
L 1294 2753 
L 1863 2753 
Q 2328 2753 2575 2939 
Q 2822 3125 2822 3475 
Q 2822 3834 2567 4026 
Q 2313 4219 1838 4219 
Q 1578 4219 1281 4162 
Q 984 4106 628 3988 
L 628 4550 
Q 988 4650 1302 4700 
Q 1616 4750 1894 4750 
Q 2613 4750 3031 4423 
Q 3450 4097 3450 3541 
Q 3450 3153 3228 2886 
Q 3006 2619 2597 2516 
z
" transform="scale(0.015625)"/>
     </defs>
     <use xlink:href="#DejaVuSans-76"/>
     <use xlink:href="#DejaVuSans-32" x="59.179688"/>
     <use xlink:href="#DejaVuSans-2e" x="122.802734"/>
     <use xlink:href="#DejaVuSans-36" x="154.589844"/>
     <use xlink:href="#DejaVuSans-2c" x="218.212891"/>
     <use xlink:href="#DejaVuSans-20" x="250"/>
     <use xlink:href="#DejaVuSans-68" x="281.787109"/>
     <use xlink:href="#DejaVuSans-76" x="345.166016"/>
     <use xlink:href="#DejaVuSans-2d" x="401.720703"/>
     <use xlink:href="#DejaVuSans-68" x="437.804688"/>
     <use xlink:href="#DejaVuSans-61" x="501.183594"/>
     <use xlink:href="#DejaVuSans-73" x="562.462891"/>
     <use xlink:href="#DejaVuSans-68" x="614.5625"/>
     <use xlink:href="#DejaVuSans-3d" x="677.941406"/>
     <use xlink:href="#DejaVuSans-66" x="761.730469"/>
     <use xlink:href="#DejaVuSans-66" x="796.935547"/>
     <use xlink:href="#DejaVuSans-30" x="832.140625"/>
     <use xlink:href="#DejaVuSans-65" x="895.763672"/>
     <use xlink:href="#DejaVuSans-37" x="957.287109"/>
     <use xlink:href="#DejaVuSans-31" x="1020.910156"/>
     <use xlink:href="#DejaVuSans-65" x="1084.533203"/>
     <use xlink:href="#DejaVuSans-38" x="1146.056641"/>
     <use xlink:href="#DejaVuSans-63" x="1209.679688"/>
     <use xlink:href="#DejaVuSans-64" x="1264.660156"/>
     <use xlink:href="#DejaVuSans-39" x="1328.136719"/>
     <use xlink:href="#DejaVuSans-37" x="1391.759766"/>
     <use xlink:href="#DejaVuSans-38" x="1455.382812"/>
     <use xlink:href="#DejaVuSans-33" x="1519.005859"/>
     <use xlink:href="#DejaVuSans-37" x="1582.628906"/>
     <use xlink:href="#DejaVuSans-33" x="1646.251953"/>
    </g>
   </g>
   <g id="text_21">
    <!-- 11 sep. Ellipsoid/sep. Elli. -->
    <g transform="translate(82.50945 21.648) scale(0.2 -0.2)">
     <defs>
      <path id="DejaVuSans-45" d="M 628 4666 
L 3578 4666 
L 3578 4134 
L 1259 4134 
L 1259 2753 
L 3481 2753 
L 3481 2222 
L 1259 2222 
L 1259 531 
L 3634 531 
L 3634 0 
L 628 0 
L 628 4666 
z
" transform="scale(0.015625)"/>
     </defs>
     <use xlink:href="#DejaVuSans-31"/>
     <use xlink:href="#DejaVuSans-31" x="63.623047"/>
     <use xlink:href="#DejaVuSans-20" x="127.246094"/>
     <use xlink:href="#DejaVuSans-73" x="159.033203"/>
     <use xlink:href="#DejaVuSans-65" x="211.132812"/>
     <use xlink:href="#DejaVuSans-70" x="272.65625"/>
     <use xlink:href="#DejaVuSans-2e" x="336.132812"/>
     <use xlink:href="#DejaVuSans-20" x="367.919922"/>
     <use xlink:href="#DejaVuSans-45" x="399.707031"/>
     <use xlink:href="#DejaVuSans-6c" x="462.890625"/>
     <use xlink:href="#DejaVuSans-6c" x="490.673828"/>
     <use xlink:href="#DejaVuSans-69" x="518.457031"/>
     <use xlink:href="#DejaVuSans-70" x="546.240234"/>
     <use xlink:href="#DejaVuSans-73" x="609.716797"/>
     <use xlink:href="#DejaVuSans-6f" x="661.816406"/>
     <use xlink:href="#DejaVuSans-69" x="722.998047"/>
     <use xlink:href="#DejaVuSans-64" x="750.78125"/>
     <use xlink:href="#DejaVuSans-2f" x="814.257812"/>
     <use xlink:href="#DejaVuSans-73" x="847.949219"/>
     <use xlink:href="#DejaVuSans-65" x="900.048828"/>
     <use xlink:href="#DejaVuSans-70" x="961.572266"/>
     <use xlink:href="#DejaVuSans-2e" x="1025.048828"/>
     <use xlink:href="#DejaVuSans-20" x="1056.835938"/>
     <use xlink:href="#DejaVuSans-45" x="1088.623047"/>
     <use xlink:href="#DejaVuSans-6c" x="1151.806641"/>
     <use xlink:href="#DejaVuSans-6c" x="1179.589844"/>
     <use xlink:href="#DejaVuSans-69" x="1207.373047"/>
     <use xlink:href="#DejaVuSans-2e" x="1235.15625"/>
    </g>
   </g>
  </g>
 </g>
 <defs>
  <clipPath id="pcd7e3ccd72">
   <rect x="57.6" y="27.648" width="303.2064" height="271.296"/>
  </clipPath>
 </defs>
</svg>
