<?xml version="1.0" encoding="utf-8" standalone="no"?>
<!DOCTYPE svg PUBLIC "-//W3C//DTD SVG 1.1//EN"
  "http://www.w3.org/Graphics/SVG/1.1/DTD/svg11.dtd">
<svg xmlns:xlink="http://www.w3.org/1999/xlink" width="460.8pt" height="345.6pt" viewBox="0 0 460.8 345.6" xmlns="http://www.w3.org/2000/svg" version="1.1">
 <metadata>
  <rdf:RDF xmlns:dc="http://purl.org/dc/elements/1.1/" xmlns:cc="http://creativecommons.org/ns#" xmlns:rdf="http://www.w3.org/1999/02/22-rdf-syntax-ns#">
   <cc:Work>
    <dc:type rdf:resource="http://purl.org/dc/dcmitype/StillImage"/>
    <dc:date>2023-02-10T14:02:28.721278</dc:date>
    <dc:format>image/svg+xml</dc:format>
    <dc:creator>
     <cc:Agent>
      <dc:title>Matplotlib v3.6.3, https://matplotlib.org/</dc:title>
     </cc:Agent>
    </dc:creator>
   </cc:Work>
  </rdf:RDF>
 </metadata>
 <defs>
  <style type="text/css">*{stroke-linejoin: round; stroke-linecap: butt}</style>
 </defs>
 <g id="figure_1">
  <g id="patch_1">
   <path d="M 0 345.6 
L 460.8 345.6 
L 460.8 0 
L 0 0 
z
" style="fill: #ffffff"/>
  </g>
  <g id="axes_1">
   <g id="patch_2">
    <path d="M 57.6 298.944 
L 360.8064 298.944 
L 360.8064 27.648 
L 57.6 27.648 
z
" style="fill: #ffffff"/>
   </g>
   <g id="line2d_1">
    <path d="M 34.951403 298.944 
L 34.951403 294.266483 
L 47.990577 294.266483 
L 47.990577 284.911448 
L 65.227428 284.911448 
L 65.227428 275.556414 
L 75.574654 275.556414 
L 75.574654 270.878897 
L 87.1081 270.878897 
L 87.1081 256.846345 
L 97.857967 256.846345 
L 97.857967 247.49131 
L 102.011329 247.49131 
L 102.011329 242.813793 
L 107.109915 242.813793 
L 107.109915 233.458759 
L 109.280431 233.458759 
L 109.280431 219.426207 
L 117.848632 219.426207 
L 117.848632 210.071172 
L 126.078082 210.071172 
L 126.078082 200.716138 
L 134.87014 200.716138 
L 134.87014 191.361103 
L 141.458695 191.361103 
L 141.458695 186.683586 
L 145.112353 186.683586 
L 145.112353 172.651034 
L 148.874221 172.651034 
L 148.874221 167.973517 
L 153.58223 167.973517 
L 153.58223 153.940966 
L 158.285673 153.940966 
L 158.285673 144.585931 
L 163.699647 144.585931 
L 163.699647 139.908414 
L 175.698143 139.908414 
L 175.698143 125.875862 
L 182.852352 125.875862 
L 182.852352 121.198345 
L 195.568893 121.198345 
L 195.568893 107.165793 
L 226.926746 107.165793 
L 226.926746 97.810759 
L 257.671253 97.810759 
L 257.671253 88.455724 
L 281.526462 88.455724 
L 281.526462 83.778207 
L 292.141846 83.778207 
L 292.141846 74.423172 
L 294.423961 74.423172 
L 294.423961 60.390621 
L 360.8064 60.390621 
" style="fill: none; stroke: #f5deb3; stroke-width: 4; stroke-linecap: square"/>
   </g>
   <g id="line2d_2">
    <defs>
     <path id="m4f4ed888cc" d="M -0 7.778175 
L 7.778175 0 
L 0 -7.778175 
L -7.778175 -0 
z
" style="stroke: #f5deb3; stroke-width: 1.5; stroke-linejoin: miter"/>
    </defs>
    <g>
     <use xlink:href="#m4f4ed888cc" x="107.109915" y="233.458759" style="fill: #f5deb3; stroke: #f5deb3; stroke-width: 1.5; stroke-linejoin: miter"/>
     <use xlink:href="#m4f4ed888cc" x="163.699647" y="144.585931" style="fill: #f5deb3; stroke: #f5deb3; stroke-width: 1.5; stroke-linejoin: miter"/>
     <use xlink:href="#m4f4ed888cc" x="226.926746" y="107.165793" style="fill: #f5deb3; stroke: #f5deb3; stroke-width: 1.5; stroke-linejoin: miter"/>
     <use xlink:href="#m4f4ed888cc" x="294.423961" y="60.390621" style="fill: #f5deb3; stroke: #f5deb3; stroke-width: 1.5; stroke-linejoin: miter"/>
     <use xlink:href="#m4f4ed888cc" x="294.423961" y="60.390621" style="fill: #f5deb3; stroke: #f5deb3; stroke-width: 1.5; stroke-linejoin: miter"/>
     <use xlink:href="#m4f4ed888cc" x="360.8064" y="60.390621" style="fill: #f5deb3; stroke: #f5deb3; stroke-width: 1.5; stroke-linejoin: miter"/>
    </g>
   </g>
   <g id="line2d_3">
    <path style="fill: none; stroke: #f5deb3; stroke-width: 4; stroke-linecap: square"/>
    <g/>
   </g>
   <g id="line2d_4">
    <path d="M 360.8064 60.390621 
L 380.514816 33.07392 
" style="fill: none; stroke: #f5deb3; stroke-width: 4; stroke-linecap: square"/>
    <g>
     <use xlink:href="#m4f4ed888cc" x="360.8064" y="60.390621" style="fill: #f5deb3; stroke: #f5deb3; stroke-width: 1.5; stroke-linejoin: miter"/>
     <use xlink:href="#m4f4ed888cc" x="380.514816" y="33.07392" style="fill: #f5deb3; stroke: #f5deb3; stroke-width: 1.5; stroke-linejoin: miter"/>
    </g>
   </g>
   <g id="matplotlib.axis_1">
    <g id="xtick_1">
     <g id="line2d_5">
      <path d="M 57.6 298.944 
L 57.6 27.648 
" clip-path="url(#pb17d625cac)" style="fill: none; stroke: #b0b0b0; stroke-width: 0.8; stroke-linecap: square"/>
     </g>
     <g id="line2d_6">
      <defs>
       <path id="m58c71ec965" d="M 0 0 
L 0 3.5 
" style="stroke: #000000; stroke-width: 0.8"/>
      </defs>
      <g>
       <use xlink:href="#m58c71ec965" x="57.6" y="298.944" style="stroke: #000000; stroke-width: 0.8"/>
      </g>
     </g>
     <g id="text_1">
      <!-- 0 -->
      <g transform="translate(52.191875 318.861344) scale(0.17 -0.17)">
       <defs>
        <path id="DejaVuSans-30" d="M 2034 4250 
Q 1547 4250 1301 3770 
Q 1056 3291 1056 2328 
Q 1056 1369 1301 889 
Q 1547 409 2034 409 
Q 2525 409 2770 889 
Q 3016 1369 3016 2328 
Q 3016 3291 2770 3770 
Q 2525 4250 2034 4250 
z
M 2034 4750 
Q 2819 4750 3233 4129 
Q 3647 3509 3647 2328 
Q 3647 1150 3233 529 
Q 2819 -91 2034 -91 
Q 1250 -91 836 529 
Q 422 1150 422 2328 
Q 422 3509 836 4129 
Q 1250 4750 2034 4750 
z
" transform="scale(0.015625)"/>
       </defs>
       <use xlink:href="#DejaVuSans-30"/>
      </g>
     </g>
    </g>
    <g id="xtick_2">
     <g id="line2d_7">
      <path d="M 144.2304 298.944 
L 144.2304 27.648 
" clip-path="url(#pb17d625cac)" style="fill: none; stroke: #b0b0b0; stroke-width: 0.8; stroke-linecap: square"/>
     </g>
     <g id="line2d_8">
      <g>
       <use xlink:href="#m58c71ec965" x="144.2304" y="298.944" style="stroke: #000000; stroke-width: 0.8"/>
      </g>
     </g>
     <g id="text_2">
      <!-- 2 -->
      <g transform="translate(138.822275 318.861344) scale(0.17 -0.17)">
       <defs>
        <path id="DejaVuSans-32" d="M 1228 531 
L 3431 531 
L 3431 0 
L 469 0 
L 469 531 
Q 828 903 1448 1529 
Q 2069 2156 2228 2338 
Q 2531 2678 2651 2914 
Q 2772 3150 2772 3378 
Q 2772 3750 2511 3984 
Q 2250 4219 1831 4219 
Q 1534 4219 1204 4116 
Q 875 4013 500 3803 
L 500 4441 
Q 881 4594 1212 4672 
Q 1544 4750 1819 4750 
Q 2544 4750 2975 4387 
Q 3406 4025 3406 3419 
Q 3406 3131 3298 2873 
Q 3191 2616 2906 2266 
Q 2828 2175 2409 1742 
Q 1991 1309 1228 531 
z
" transform="scale(0.015625)"/>
       </defs>
       <use xlink:href="#DejaVuSans-32"/>
      </g>
     </g>
    </g>
    <g id="xtick_3">
     <g id="line2d_9">
      <path d="M 230.8608 298.944 
L 230.8608 27.648 
" clip-path="url(#pb17d625cac)" style="fill: none; stroke: #b0b0b0; stroke-width: 0.8; stroke-linecap: square"/>
     </g>
     <g id="line2d_10">
      <g>
       <use xlink:href="#m58c71ec965" x="230.8608" y="298.944" style="stroke: #000000; stroke-width: 0.8"/>
      </g>
     </g>
     <g id="text_3">
      <!-- 4 -->
      <g transform="translate(225.452675 318.861344) scale(0.17 -0.17)">
       <defs>
        <path id="DejaVuSans-34" d="M 2419 4116 
L 825 1625 
L 2419 1625 
L 2419 4116 
z
M 2253 4666 
L 3047 4666 
L 3047 1625 
L 3713 1625 
L 3713 1100 
L 3047 1100 
L 3047 0 
L 2419 0 
L 2419 1100 
L 313 1100 
L 313 1709 
L 2253 4666 
z
" transform="scale(0.015625)"/>
       </defs>
       <use xlink:href="#DejaVuSans-34"/>
      </g>
     </g>
    </g>
    <g id="xtick_4">
     <g id="line2d_11">
      <path d="M 317.4912 298.944 
L 317.4912 27.648 
" clip-path="url(#pb17d625cac)" style="fill: none; stroke: #b0b0b0; stroke-width: 0.8; stroke-linecap: square"/>
     </g>
     <g id="line2d_12">
      <g>
       <use xlink:href="#m58c71ec965" x="317.4912" y="298.944" style="stroke: #000000; stroke-width: 0.8"/>
      </g>
     </g>
     <g id="text_4">
      <!-- 6 -->
      <g transform="translate(312.083075 318.861344) scale(0.17 -0.17)">
       <defs>
        <path id="DejaVuSans-36" d="M 2113 2584 
Q 1688 2584 1439 2293 
Q 1191 2003 1191 1497 
Q 1191 994 1439 701 
Q 1688 409 2113 409 
Q 2538 409 2786 701 
Q 3034 994 3034 1497 
Q 3034 2003 2786 2293 
Q 2538 2584 2113 2584 
z
M 3366 4563 
L 3366 3988 
Q 3128 4100 2886 4159 
Q 2644 4219 2406 4219 
Q 1781 4219 1451 3797 
Q 1122 3375 1075 2522 
Q 1259 2794 1537 2939 
Q 1816 3084 2150 3084 
Q 2853 3084 3261 2657 
Q 3669 2231 3669 1497 
Q 3669 778 3244 343 
Q 2819 -91 2113 -91 
Q 1303 -91 875 529 
Q 447 1150 447 2328 
Q 447 3434 972 4092 
Q 1497 4750 2381 4750 
Q 2619 4750 2861 4703 
Q 3103 4656 3366 4563 
z
" transform="scale(0.015625)"/>
       </defs>
       <use xlink:href="#DejaVuSans-36"/>
      </g>
     </g>
    </g>
    <g id="xtick_5">
     <g id="line2d_13">
      <path d="M 100.9152 298.944 
L 100.9152 27.648 
" clip-path="url(#pb17d625cac)" style="fill: none; stroke: #b0b0b0; stroke-width: 0.8; stroke-linecap: square"/>
     </g>
     <g id="line2d_14">
      <defs>
       <path id="m23acfed52e" d="M 0 0 
L 0 2 
" style="stroke: #000000; stroke-width: 0.6"/>
      </defs>
      <g>
       <use xlink:href="#m23acfed52e" x="100.9152" y="298.944" style="stroke: #000000; stroke-width: 0.6"/>
      </g>
     </g>
    </g>
    <g id="xtick_6">
     <g id="line2d_15">
      <path d="M 187.5456 298.944 
L 187.5456 27.648 
" clip-path="url(#pb17d625cac)" style="fill: none; stroke: #b0b0b0; stroke-width: 0.8; stroke-linecap: square"/>
     </g>
     <g id="line2d_16">
      <g>
       <use xlink:href="#m23acfed52e" x="187.5456" y="298.944" style="stroke: #000000; stroke-width: 0.6"/>
      </g>
     </g>
    </g>
    <g id="xtick_7">
     <g id="line2d_17">
      <path d="M 274.176 298.944 
L 274.176 27.648 
" clip-path="url(#pb17d625cac)" style="fill: none; stroke: #b0b0b0; stroke-width: 0.8; stroke-linecap: square"/>
     </g>
     <g id="line2d_18">
      <g>
       <use xlink:href="#m23acfed52e" x="274.176" y="298.944" style="stroke: #000000; stroke-width: 0.6"/>
      </g>
     </g>
    </g>
    <g id="xtick_8">
     <g id="line2d_19">
      <path d="M 360.8064 298.944 
L 360.8064 27.648 
" clip-path="url(#pb17d625cac)" style="fill: none; stroke: #b0b0b0; stroke-width: 0.8; stroke-linecap: square"/>
     </g>
     <g id="line2d_20">
      <g>
       <use xlink:href="#m23acfed52e" x="360.8064" y="298.944" style="stroke: #000000; stroke-width: 0.6"/>
      </g>
     </g>
    </g>
    <g id="text_5">
     <!-- log10(# f-evals / dimension) -->
     <g transform="translate(88.823278 339.314156) scale(0.17 -0.17)">
      <defs>
       <path id="DejaVuSans-6c" d="M 603 4863 
L 1178 4863 
L 1178 0 
L 603 0 
L 603 4863 
z
" transform="scale(0.015625)"/>
       <path id="DejaVuSans-6f" d="M 1959 3097 
Q 1497 3097 1228 2736 
Q 959 2375 959 1747 
Q 959 1119 1226 758 
Q 1494 397 1959 397 
Q 2419 397 2687 759 
Q 2956 1122 2956 1747 
Q 2956 2369 2687 2733 
Q 2419 3097 1959 3097 
z
M 1959 3584 
Q 2709 3584 3137 3096 
Q 3566 2609 3566 1747 
Q 3566 888 3137 398 
Q 2709 -91 1959 -91 
Q 1206 -91 779 398 
Q 353 888 353 1747 
Q 353 2609 779 3096 
Q 1206 3584 1959 3584 
z
" transform="scale(0.015625)"/>
       <path id="DejaVuSans-67" d="M 2906 1791 
Q 2906 2416 2648 2759 
Q 2391 3103 1925 3103 
Q 1463 3103 1205 2759 
Q 947 2416 947 1791 
Q 947 1169 1205 825 
Q 1463 481 1925 481 
Q 2391 481 2648 825 
Q 2906 1169 2906 1791 
z
M 3481 434 
Q 3481 -459 3084 -895 
Q 2688 -1331 1869 -1331 
Q 1566 -1331 1297 -1286 
Q 1028 -1241 775 -1147 
L 775 -588 
Q 1028 -725 1275 -790 
Q 1522 -856 1778 -856 
Q 2344 -856 2625 -561 
Q 2906 -266 2906 331 
L 2906 616 
Q 2728 306 2450 153 
Q 2172 0 1784 0 
Q 1141 0 747 490 
Q 353 981 353 1791 
Q 353 2603 747 3093 
Q 1141 3584 1784 3584 
Q 2172 3584 2450 3431 
Q 2728 3278 2906 2969 
L 2906 3500 
L 3481 3500 
L 3481 434 
z
" transform="scale(0.015625)"/>
       <path id="DejaVuSans-31" d="M 794 531 
L 1825 531 
L 1825 4091 
L 703 3866 
L 703 4441 
L 1819 4666 
L 2450 4666 
L 2450 531 
L 3481 531 
L 3481 0 
L 794 0 
L 794 531 
z
" transform="scale(0.015625)"/>
       <path id="DejaVuSans-28" d="M 1984 4856 
Q 1566 4138 1362 3434 
Q 1159 2731 1159 2009 
Q 1159 1288 1364 580 
Q 1569 -128 1984 -844 
L 1484 -844 
Q 1016 -109 783 600 
Q 550 1309 550 2009 
Q 550 2706 781 3412 
Q 1013 4119 1484 4856 
L 1984 4856 
z
" transform="scale(0.015625)"/>
       <path id="DejaVuSans-23" d="M 3272 2816 
L 2363 2816 
L 2100 1772 
L 3016 1772 
L 3272 2816 
z
M 2803 4594 
L 2478 3297 
L 3391 3297 
L 3719 4594 
L 4219 4594 
L 3897 3297 
L 4872 3297 
L 4872 2816 
L 3775 2816 
L 3519 1772 
L 4513 1772 
L 4513 1294 
L 3397 1294 
L 3072 0 
L 2572 0 
L 2894 1294 
L 1978 1294 
L 1656 0 
L 1153 0 
L 1478 1294 
L 494 1294 
L 494 1772 
L 1594 1772 
L 1856 2816 
L 850 2816 
L 850 3297 
L 1978 3297 
L 2297 4594 
L 2803 4594 
z
" transform="scale(0.015625)"/>
       <path id="DejaVuSans-20" transform="scale(0.015625)"/>
       <path id="DejaVuSans-66" d="M 2375 4863 
L 2375 4384 
L 1825 4384 
Q 1516 4384 1395 4259 
Q 1275 4134 1275 3809 
L 1275 3500 
L 2222 3500 
L 2222 3053 
L 1275 3053 
L 1275 0 
L 697 0 
L 697 3053 
L 147 3053 
L 147 3500 
L 697 3500 
L 697 3744 
Q 697 4328 969 4595 
Q 1241 4863 1831 4863 
L 2375 4863 
z
" transform="scale(0.015625)"/>
       <path id="DejaVuSans-2d" d="M 313 2009 
L 1997 2009 
L 1997 1497 
L 313 1497 
L 313 2009 
z
" transform="scale(0.015625)"/>
       <path id="DejaVuSans-65" d="M 3597 1894 
L 3597 1613 
L 953 1613 
Q 991 1019 1311 708 
Q 1631 397 2203 397 
Q 2534 397 2845 478 
Q 3156 559 3463 722 
L 3463 178 
Q 3153 47 2828 -22 
Q 2503 -91 2169 -91 
Q 1331 -91 842 396 
Q 353 884 353 1716 
Q 353 2575 817 3079 
Q 1281 3584 2069 3584 
Q 2775 3584 3186 3129 
Q 3597 2675 3597 1894 
z
M 3022 2063 
Q 3016 2534 2758 2815 
Q 2500 3097 2075 3097 
Q 1594 3097 1305 2825 
Q 1016 2553 972 2059 
L 3022 2063 
z
" transform="scale(0.015625)"/>
       <path id="DejaVuSans-76" d="M 191 3500 
L 800 3500 
L 1894 563 
L 2988 3500 
L 3597 3500 
L 2284 0 
L 1503 0 
L 191 3500 
z
" transform="scale(0.015625)"/>
       <path id="DejaVuSans-61" d="M 2194 1759 
Q 1497 1759 1228 1600 
Q 959 1441 959 1056 
Q 959 750 1161 570 
Q 1363 391 1709 391 
Q 2188 391 2477 730 
Q 2766 1069 2766 1631 
L 2766 1759 
L 2194 1759 
z
M 3341 1997 
L 3341 0 
L 2766 0 
L 2766 531 
Q 2569 213 2275 61 
Q 1981 -91 1556 -91 
Q 1019 -91 701 211 
Q 384 513 384 1019 
Q 384 1609 779 1909 
Q 1175 2209 1959 2209 
L 2766 2209 
L 2766 2266 
Q 2766 2663 2505 2880 
Q 2244 3097 1772 3097 
Q 1472 3097 1187 3025 
Q 903 2953 641 2809 
L 641 3341 
Q 956 3463 1253 3523 
Q 1550 3584 1831 3584 
Q 2591 3584 2966 3190 
Q 3341 2797 3341 1997 
z
" transform="scale(0.015625)"/>
       <path id="DejaVuSans-73" d="M 2834 3397 
L 2834 2853 
Q 2591 2978 2328 3040 
Q 2066 3103 1784 3103 
Q 1356 3103 1142 2972 
Q 928 2841 928 2578 
Q 928 2378 1081 2264 
Q 1234 2150 1697 2047 
L 1894 2003 
Q 2506 1872 2764 1633 
Q 3022 1394 3022 966 
Q 3022 478 2636 193 
Q 2250 -91 1575 -91 
Q 1294 -91 989 -36 
Q 684 19 347 128 
L 347 722 
Q 666 556 975 473 
Q 1284 391 1588 391 
Q 1994 391 2212 530 
Q 2431 669 2431 922 
Q 2431 1156 2273 1281 
Q 2116 1406 1581 1522 
L 1381 1569 
Q 847 1681 609 1914 
Q 372 2147 372 2553 
Q 372 3047 722 3315 
Q 1072 3584 1716 3584 
Q 2034 3584 2315 3537 
Q 2597 3491 2834 3397 
z
" transform="scale(0.015625)"/>
       <path id="DejaVuSans-2f" d="M 1625 4666 
L 2156 4666 
L 531 -594 
L 0 -594 
L 1625 4666 
z
" transform="scale(0.015625)"/>
       <path id="DejaVuSans-64" d="M 2906 2969 
L 2906 4863 
L 3481 4863 
L 3481 0 
L 2906 0 
L 2906 525 
Q 2725 213 2448 61 
Q 2172 -91 1784 -91 
Q 1150 -91 751 415 
Q 353 922 353 1747 
Q 353 2572 751 3078 
Q 1150 3584 1784 3584 
Q 2172 3584 2448 3432 
Q 2725 3281 2906 2969 
z
M 947 1747 
Q 947 1113 1208 752 
Q 1469 391 1925 391 
Q 2381 391 2643 752 
Q 2906 1113 2906 1747 
Q 2906 2381 2643 2742 
Q 2381 3103 1925 3103 
Q 1469 3103 1208 2742 
Q 947 2381 947 1747 
z
" transform="scale(0.015625)"/>
       <path id="DejaVuSans-69" d="M 603 3500 
L 1178 3500 
L 1178 0 
L 603 0 
L 603 3500 
z
M 603 4863 
L 1178 4863 
L 1178 4134 
L 603 4134 
L 603 4863 
z
" transform="scale(0.015625)"/>
       <path id="DejaVuSans-6d" d="M 3328 2828 
Q 3544 3216 3844 3400 
Q 4144 3584 4550 3584 
Q 5097 3584 5394 3201 
Q 5691 2819 5691 2113 
L 5691 0 
L 5113 0 
L 5113 2094 
Q 5113 2597 4934 2840 
Q 4756 3084 4391 3084 
Q 3944 3084 3684 2787 
Q 3425 2491 3425 1978 
L 3425 0 
L 2847 0 
L 2847 2094 
Q 2847 2600 2669 2842 
Q 2491 3084 2119 3084 
Q 1678 3084 1418 2786 
Q 1159 2488 1159 1978 
L 1159 0 
L 581 0 
L 581 3500 
L 1159 3500 
L 1159 2956 
Q 1356 3278 1631 3431 
Q 1906 3584 2284 3584 
Q 2666 3584 2933 3390 
Q 3200 3197 3328 2828 
z
" transform="scale(0.015625)"/>
       <path id="DejaVuSans-6e" d="M 3513 2113 
L 3513 0 
L 2938 0 
L 2938 2094 
Q 2938 2591 2744 2837 
Q 2550 3084 2163 3084 
Q 1697 3084 1428 2787 
Q 1159 2491 1159 1978 
L 1159 0 
L 581 0 
L 581 3500 
L 1159 3500 
L 1159 2956 
Q 1366 3272 1645 3428 
Q 1925 3584 2291 3584 
Q 2894 3584 3203 3211 
Q 3513 2838 3513 2113 
z
" transform="scale(0.015625)"/>
       <path id="DejaVuSans-29" d="M 513 4856 
L 1013 4856 
Q 1481 4119 1714 3412 
Q 1947 2706 1947 2009 
Q 1947 1309 1714 600 
Q 1481 -109 1013 -844 
L 513 -844 
Q 928 -128 1133 580 
Q 1338 1288 1338 2009 
Q 1338 2731 1133 3434 
Q 928 4138 513 4856 
z
" transform="scale(0.015625)"/>
      </defs>
      <use xlink:href="#DejaVuSans-6c"/>
      <use xlink:href="#DejaVuSans-6f" x="27.783203"/>
      <use xlink:href="#DejaVuSans-67" x="88.964844"/>
      <use xlink:href="#DejaVuSans-31" x="152.441406"/>
      <use xlink:href="#DejaVuSans-30" x="216.064453"/>
      <use xlink:href="#DejaVuSans-28" x="279.6875"/>
      <use xlink:href="#DejaVuSans-23" x="318.701172"/>
      <use xlink:href="#DejaVuSans-20" x="402.490234"/>
      <use xlink:href="#DejaVuSans-66" x="434.277344"/>
      <use xlink:href="#DejaVuSans-2d" x="463.982422"/>
      <use xlink:href="#DejaVuSans-65" x="500.066406"/>
      <use xlink:href="#DejaVuSans-76" x="561.589844"/>
      <use xlink:href="#DejaVuSans-61" x="620.769531"/>
      <use xlink:href="#DejaVuSans-6c" x="682.048828"/>
      <use xlink:href="#DejaVuSans-73" x="709.832031"/>
      <use xlink:href="#DejaVuSans-20" x="761.931641"/>
      <use xlink:href="#DejaVuSans-2f" x="793.71875"/>
      <use xlink:href="#DejaVuSans-20" x="827.410156"/>
      <use xlink:href="#DejaVuSans-64" x="859.197266"/>
      <use xlink:href="#DejaVuSans-69" x="922.673828"/>
      <use xlink:href="#DejaVuSans-6d" x="950.457031"/>
      <use xlink:href="#DejaVuSans-65" x="1047.869141"/>
      <use xlink:href="#DejaVuSans-6e" x="1109.392578"/>
      <use xlink:href="#DejaVuSans-73" x="1172.771484"/>
      <use xlink:href="#DejaVuSans-69" x="1224.871094"/>
      <use xlink:href="#DejaVuSans-6f" x="1252.654297"/>
      <use xlink:href="#DejaVuSans-6e" x="1313.835938"/>
      <use xlink:href="#DejaVuSans-29" x="1377.214844"/>
     </g>
    </g>
   </g>
   <g id="matplotlib.axis_2">
    <g id="ytick_1">
     <g id="line2d_21">
      <path d="M 57.6 298.944 
L 360.8064 298.944 
" clip-path="url(#pb17d625cac)" style="fill: none; stroke: #b0b0b0; stroke-width: 0.8; stroke-linecap: square"/>
     </g>
     <g id="line2d_22">
      <defs>
       <path id="m1d72d99bc4" d="M 0 0 
L -3.5 0 
" style="stroke: #000000; stroke-width: 0.8"/>
      </defs>
      <g>
       <use xlink:href="#m1d72d99bc4" x="57.6" y="298.944" style="stroke: #000000; stroke-width: 0.8"/>
      </g>
     </g>
     <g id="text_6">
      <!-- 0.0 -->
      <g transform="translate(25.155 305.02275) scale(0.16 -0.16)">
       <defs>
        <path id="DejaVuSans-2e" d="M 684 794 
L 1344 794 
L 1344 0 
L 684 0 
L 684 794 
z
" transform="scale(0.015625)"/>
       </defs>
       <use xlink:href="#DejaVuSans-30"/>
       <use xlink:href="#DejaVuSans-2e" x="63.623047"/>
       <use xlink:href="#DejaVuSans-30" x="95.410156"/>
      </g>
     </g>
    </g>
    <g id="ytick_2">
     <g id="line2d_23">
      <path d="M 57.6 244.6848 
L 360.8064 244.6848 
" clip-path="url(#pb17d625cac)" style="fill: none; stroke: #b0b0b0; stroke-width: 0.8; stroke-linecap: square"/>
     </g>
     <g id="line2d_24">
      <g>
       <use xlink:href="#m1d72d99bc4" x="57.6" y="244.6848" style="stroke: #000000; stroke-width: 0.8"/>
      </g>
     </g>
     <g id="text_7">
      <!-- 0.2 -->
      <g transform="translate(25.155 250.76355) scale(0.16 -0.16)">
       <use xlink:href="#DejaVuSans-30"/>
       <use xlink:href="#DejaVuSans-2e" x="63.623047"/>
       <use xlink:href="#DejaVuSans-32" x="95.410156"/>
      </g>
     </g>
    </g>
    <g id="ytick_3">
     <g id="line2d_25">
      <path d="M 57.6 190.4256 
L 360.8064 190.4256 
" clip-path="url(#pb17d625cac)" style="fill: none; stroke: #b0b0b0; stroke-width: 0.8; stroke-linecap: square"/>
     </g>
     <g id="line2d_26">
      <g>
       <use xlink:href="#m1d72d99bc4" x="57.6" y="190.4256" style="stroke: #000000; stroke-width: 0.8"/>
      </g>
     </g>
     <g id="text_8">
      <!-- 0.4 -->
      <g transform="translate(25.155 196.50435) scale(0.16 -0.16)">
       <use xlink:href="#DejaVuSans-30"/>
       <use xlink:href="#DejaVuSans-2e" x="63.623047"/>
       <use xlink:href="#DejaVuSans-34" x="95.410156"/>
      </g>
     </g>
    </g>
    <g id="ytick_4">
     <g id="line2d_27">
      <path d="M 57.6 136.1664 
L 360.8064 136.1664 
" clip-path="url(#pb17d625cac)" style="fill: none; stroke: #b0b0b0; stroke-width: 0.8; stroke-linecap: square"/>
     </g>
     <g id="line2d_28">
      <g>
       <use xlink:href="#m1d72d99bc4" x="57.6" y="136.1664" style="stroke: #000000; stroke-width: 0.8"/>
      </g>
     </g>
     <g id="text_9">
      <!-- 0.6 -->
      <g transform="translate(25.155 142.24515) scale(0.16 -0.16)">
       <use xlink:href="#DejaVuSans-30"/>
       <use xlink:href="#DejaVuSans-2e" x="63.623047"/>
       <use xlink:href="#DejaVuSans-36" x="95.410156"/>
      </g>
     </g>
    </g>
    <g id="ytick_5">
     <g id="line2d_29">
      <path d="M 57.6 81.9072 
L 360.8064 81.9072 
" clip-path="url(#pb17d625cac)" style="fill: none; stroke: #b0b0b0; stroke-width: 0.8; stroke-linecap: square"/>
     </g>
     <g id="line2d_30">
      <g>
       <use xlink:href="#m1d72d99bc4" x="57.6" y="81.9072" style="stroke: #000000; stroke-width: 0.8"/>
      </g>
     </g>
     <g id="text_10">
      <!-- 0.8 -->
      <g transform="translate(25.155 87.98595) scale(0.16 -0.16)">
       <defs>
        <path id="DejaVuSans-38" d="M 2034 2216 
Q 1584 2216 1326 1975 
Q 1069 1734 1069 1313 
Q 1069 891 1326 650 
Q 1584 409 2034 409 
Q 2484 409 2743 651 
Q 3003 894 3003 1313 
Q 3003 1734 2745 1975 
Q 2488 2216 2034 2216 
z
M 1403 2484 
Q 997 2584 770 2862 
Q 544 3141 544 3541 
Q 544 4100 942 4425 
Q 1341 4750 2034 4750 
Q 2731 4750 3128 4425 
Q 3525 4100 3525 3541 
Q 3525 3141 3298 2862 
Q 3072 2584 2669 2484 
Q 3125 2378 3379 2068 
Q 3634 1759 3634 1313 
Q 3634 634 3220 271 
Q 2806 -91 2034 -91 
Q 1263 -91 848 271 
Q 434 634 434 1313 
Q 434 1759 690 2068 
Q 947 2378 1403 2484 
z
M 1172 3481 
Q 1172 3119 1398 2916 
Q 1625 2713 2034 2713 
Q 2441 2713 2670 2916 
Q 2900 3119 2900 3481 
Q 2900 3844 2670 4047 
Q 2441 4250 2034 4250 
Q 1625 4250 1398 4047 
Q 1172 3844 1172 3481 
z
" transform="scale(0.015625)"/>
       </defs>
       <use xlink:href="#DejaVuSans-30"/>
       <use xlink:href="#DejaVuSans-2e" x="63.623047"/>
       <use xlink:href="#DejaVuSans-38" x="95.410156"/>
      </g>
     </g>
    </g>
    <g id="ytick_6">
     <g id="line2d_31">
      <path d="M 57.6 27.648 
L 360.8064 27.648 
" clip-path="url(#pb17d625cac)" style="fill: none; stroke: #b0b0b0; stroke-width: 0.8; stroke-linecap: square"/>
     </g>
     <g id="line2d_32">
      <g>
       <use xlink:href="#m1d72d99bc4" x="57.6" y="27.648" style="stroke: #000000; stroke-width: 0.8"/>
      </g>
     </g>
     <g id="text_11">
      <!-- 1.0 -->
      <g transform="translate(25.155 33.72675) scale(0.16 -0.16)">
       <use xlink:href="#DejaVuSans-31"/>
       <use xlink:href="#DejaVuSans-2e" x="63.623047"/>
       <use xlink:href="#DejaVuSans-30" x="95.410156"/>
      </g>
     </g>
    </g>
    <g id="text_12">
     <!-- Fraction of function,target pairs -->
     <g transform="translate(17.619531 297.681) rotate(-90) scale(0.17 -0.17)">
      <defs>
       <path id="DejaVuSans-46" d="M 628 4666 
L 3309 4666 
L 3309 4134 
L 1259 4134 
L 1259 2759 
L 3109 2759 
L 3109 2228 
L 1259 2228 
L 1259 0 
L 628 0 
L 628 4666 
z
" transform="scale(0.015625)"/>
       <path id="DejaVuSans-72" d="M 2631 2963 
Q 2534 3019 2420 3045 
Q 2306 3072 2169 3072 
Q 1681 3072 1420 2755 
Q 1159 2438 1159 1844 
L 1159 0 
L 581 0 
L 581 3500 
L 1159 3500 
L 1159 2956 
Q 1341 3275 1631 3429 
Q 1922 3584 2338 3584 
Q 2397 3584 2469 3576 
Q 2541 3569 2628 3553 
L 2631 2963 
z
" transform="scale(0.015625)"/>
       <path id="DejaVuSans-63" d="M 3122 3366 
L 3122 2828 
Q 2878 2963 2633 3030 
Q 2388 3097 2138 3097 
Q 1578 3097 1268 2742 
Q 959 2388 959 1747 
Q 959 1106 1268 751 
Q 1578 397 2138 397 
Q 2388 397 2633 464 
Q 2878 531 3122 666 
L 3122 134 
Q 2881 22 2623 -34 
Q 2366 -91 2075 -91 
Q 1284 -91 818 406 
Q 353 903 353 1747 
Q 353 2603 823 3093 
Q 1294 3584 2113 3584 
Q 2378 3584 2631 3529 
Q 2884 3475 3122 3366 
z
" transform="scale(0.015625)"/>
       <path id="DejaVuSans-74" d="M 1172 4494 
L 1172 3500 
L 2356 3500 
L 2356 3053 
L 1172 3053 
L 1172 1153 
Q 1172 725 1289 603 
Q 1406 481 1766 481 
L 2356 481 
L 2356 0 
L 1766 0 
Q 1100 0 847 248 
Q 594 497 594 1153 
L 594 3053 
L 172 3053 
L 172 3500 
L 594 3500 
L 594 4494 
L 1172 4494 
z
" transform="scale(0.015625)"/>
       <path id="DejaVuSans-75" d="M 544 1381 
L 544 3500 
L 1119 3500 
L 1119 1403 
Q 1119 906 1312 657 
Q 1506 409 1894 409 
Q 2359 409 2629 706 
Q 2900 1003 2900 1516 
L 2900 3500 
L 3475 3500 
L 3475 0 
L 2900 0 
L 2900 538 
Q 2691 219 2414 64 
Q 2138 -91 1772 -91 
Q 1169 -91 856 284 
Q 544 659 544 1381 
z
M 1991 3584 
L 1991 3584 
z
" transform="scale(0.015625)"/>
       <path id="DejaVuSans-2c" d="M 750 794 
L 1409 794 
L 1409 256 
L 897 -744 
L 494 -744 
L 750 256 
L 750 794 
z
" transform="scale(0.015625)"/>
       <path id="DejaVuSans-70" d="M 1159 525 
L 1159 -1331 
L 581 -1331 
L 581 3500 
L 1159 3500 
L 1159 2969 
Q 1341 3281 1617 3432 
Q 1894 3584 2278 3584 
Q 2916 3584 3314 3078 
Q 3713 2572 3713 1747 
Q 3713 922 3314 415 
Q 2916 -91 2278 -91 
Q 1894 -91 1617 61 
Q 1341 213 1159 525 
z
M 3116 1747 
Q 3116 2381 2855 2742 
Q 2594 3103 2138 3103 
Q 1681 3103 1420 2742 
Q 1159 2381 1159 1747 
Q 1159 1113 1420 752 
Q 1681 391 2138 391 
Q 2594 391 2855 752 
Q 3116 1113 3116 1747 
z
" transform="scale(0.015625)"/>
      </defs>
      <use xlink:href="#DejaVuSans-46"/>
      <use xlink:href="#DejaVuSans-72" x="50.269531"/>
      <use xlink:href="#DejaVuSans-61" x="91.382812"/>
      <use xlink:href="#DejaVuSans-63" x="152.662109"/>
      <use xlink:href="#DejaVuSans-74" x="207.642578"/>
      <use xlink:href="#DejaVuSans-69" x="246.851562"/>
      <use xlink:href="#DejaVuSans-6f" x="274.634766"/>
      <use xlink:href="#DejaVuSans-6e" x="335.816406"/>
      <use xlink:href="#DejaVuSans-20" x="399.195312"/>
      <use xlink:href="#DejaVuSans-6f" x="430.982422"/>
      <use xlink:href="#DejaVuSans-66" x="492.164062"/>
      <use xlink:href="#DejaVuSans-20" x="527.369141"/>
      <use xlink:href="#DejaVuSans-66" x="559.15625"/>
      <use xlink:href="#DejaVuSans-75" x="594.361328"/>
      <use xlink:href="#DejaVuSans-6e" x="657.740234"/>
      <use xlink:href="#DejaVuSans-63" x="721.119141"/>
      <use xlink:href="#DejaVuSans-74" x="776.099609"/>
      <use xlink:href="#DejaVuSans-69" x="815.308594"/>
      <use xlink:href="#DejaVuSans-6f" x="843.091797"/>
      <use xlink:href="#DejaVuSans-6e" x="904.273438"/>
      <use xlink:href="#DejaVuSans-2c" x="967.652344"/>
      <use xlink:href="#DejaVuSans-74" x="999.439453"/>
      <use xlink:href="#DejaVuSans-61" x="1038.648438"/>
      <use xlink:href="#DejaVuSans-72" x="1099.927734"/>
      <use xlink:href="#DejaVuSans-67" x="1139.291016"/>
      <use xlink:href="#DejaVuSans-65" x="1202.767578"/>
      <use xlink:href="#DejaVuSans-74" x="1264.291016"/>
      <use xlink:href="#DejaVuSans-20" x="1303.5"/>
      <use xlink:href="#DejaVuSans-70" x="1335.287109"/>
      <use xlink:href="#DejaVuSans-61" x="1398.763672"/>
      <use xlink:href="#DejaVuSans-69" x="1460.042969"/>
      <use xlink:href="#DejaVuSans-72" x="1487.826172"/>
      <use xlink:href="#DejaVuSans-73" x="1528.939453"/>
     </g>
    </g>
   </g>
   <g id="line2d_33">
    <defs>
     <path id="m36f8b7eace" d="M 0 1.5 
C 0.397805 1.5 0.77937 1.341951 1.06066 1.06066 
C 1.341951 0.77937 1.5 0.397805 1.5 0 
C 1.5 -0.397805 1.341951 -0.77937 1.06066 -1.06066 
C 0.77937 -1.341951 0.397805 -1.5 0 -1.5 
C -0.397805 -1.5 -0.77937 -1.341951 -1.06066 -1.06066 
C -1.341951 -0.77937 -1.5 -0.397805 -1.5 0 
C -1.5 0.397805 -1.341951 0.77937 -1.06066 1.06066 
C -0.77937 1.341951 -0.397805 1.5 0 1.5 
z
" style="stroke: #f5deb3"/>
    </defs>
    <g>
     <use xlink:href="#m36f8b7eace" x="294.423961" y="60.390621" style="fill: #f5deb3; stroke: #f5deb3"/>
     <use xlink:href="#m36f8b7eace" x="294.423961" y="60.390621" style="fill: #f5deb3; stroke: #f5deb3"/>
    </g>
   </g>
   <g id="line2d_34">
    <defs>
     <path id="m5da7dab1bb" d="M 0 1.5 
C 0.397805 1.5 0.77937 1.341951 1.06066 1.06066 
C 1.341951 0.77937 1.5 0.397805 1.5 0 
C 1.5 -0.397805 1.341951 -0.77937 1.06066 -1.06066 
C 0.77937 -1.341951 0.397805 -1.5 0 -1.5 
C -0.397805 -1.5 -0.77937 -1.341951 -1.06066 -1.06066 
C -1.341951 -0.77937 -1.5 -0.397805 -1.5 0 
C -1.5 0.397805 -1.341951 0.77937 -1.06066 1.06066 
C -0.77937 1.341951 -0.397805 1.5 0 1.5 
z
" style="stroke: #000080"/>
    </defs>
    <g>
     <use xlink:href="#m5da7dab1bb" x="144.324223" y="223.168221" style="fill: #000080; stroke: #000080"/>
     <use xlink:href="#m5da7dab1bb" x="144.324223" y="223.168221" style="fill: #000080; stroke: #000080"/>
    </g>
   </g>
   <g id="line2d_35">
    <path d="M 14.2848 298.944 
L 14.2848 287.717959 
L 27.323974 287.717959 
L 27.323974 287.250207 
L 34.951403 287.250207 
L 34.951403 285.3792 
L 53.402323 285.3792 
L 53.402323 284.911448 
L 88.613828 284.911448 
L 88.613828 284.443697 
L 90.340871 284.443697 
L 90.340871 283.508193 
L 93.381595 283.508193 
L 93.381595 282.104938 
L 99.14107 282.104938 
L 99.14107 281.637186 
L 99.346662 281.637186 
L 99.346662 280.233931 
L 101.287718 280.233931 
L 101.287718 279.766179 
L 103.047088 279.766179 
L 103.047088 279.298428 
L 104.344952 279.298428 
L 104.344952 277.895172 
L 105.112877 277.895172 
L 105.112877 277.427421 
L 105.411479 277.427421 
L 105.411479 276.959669 
L 107.774703 276.959669 
L 107.774703 276.024166 
L 108.416798 276.024166 
L 108.416798 275.556414 
L 109.756698 275.556414 
L 109.756698 274.62091 
L 110.562208 274.62091 
L 110.562208 273.685407 
L 116.746385 273.685407 
L 116.827295 272.282152 
L 118.152051 272.282152 
L 118.152051 271.8144 
L 118.524569 271.8144 
L 118.524569 271.346648 
L 119.105667 271.346648 
L 119.105667 270.878897 
L 120.0813 270.878897 
L 120.0813 269.943393 
L 120.748446 269.943393 
L 120.813877 268.072386 
L 121.581803 268.072386 
L 121.581803 267.136883 
L 123.713691 267.136883 
L 123.713691 266.669131 
L 125.011554 266.669131 
L 125.011554 265.733628 
L 125.829577 265.733628 
L 125.879541 263.862621 
L 125.979073 263.862621 
L 126.078082 261.523862 
L 126.661432 261.523862 
L 126.661432 261.05611 
L 127.640693 261.05611 
L 127.640693 259.652855 
L 128.914307 259.652855 
L 128.914307 259.185103 
L 129.334225 259.185103 
L 129.375706 257.781848 
L 129.54072 257.781848 
L 129.622688 256.846345 
L 129.744974 256.846345 
L 129.744974 256.378593 
L 130.226319 256.378593 
L 130.226319 255.910841 
L 130.579414 255.910841 
L 130.656987 252.168828 
L 131.820186 252.168828 
L 131.820186 251.701076 
L 132.251827 251.701076 
L 132.251827 251.233324 
L 132.499119 251.233324 
L 132.499119 250.297821 
L 132.673786 250.297821 
L 132.673786 249.362317 
L 133.086488 249.362317 
L 133.086488 248.426814 
L 133.289492 248.426814 
L 133.289492 247.959062 
L 133.72196 247.959062 
L 133.820365 247.023559 
L 133.918257 247.023559 
L 133.918257 246.555807 
L 134.208913 246.555807 
L 134.208913 246.088055 
L 135.388902 246.088055 
L 135.388902 245.152552 
L 136.126705 245.152552 
L 136.213327 243.749297 
L 136.299553 243.749297 
L 136.299553 242.813793 
L 136.413909 242.813793 
L 136.413909 241.87829 
L 137.113304 241.87829 
L 137.140746 240.942786 
L 137.439996 240.942786 
L 137.439996 240.475034 
L 137.627979 240.475034 
L 137.627979 240.007283 
L 137.814102 240.007283 
L 137.814102 239.539531 
L 138.206842 239.539531 
L 138.206842 239.071779 
L 138.489728 239.071779 
L 138.515235 238.136276 
L 139.264798 238.136276 
L 139.313723 236.733021 
L 139.867398 236.733021 
L 139.867398 236.265269 
L 140.056223 236.265269 
L 140.103135 234.394262 
L 140.428281 234.394262 
L 140.428281 233.92651 
L 141.393187 233.92651 
L 141.393187 232.991007 
L 141.589029 232.991007 
L 141.589029 232.055503 
L 141.825656 232.055503 
L 141.825656 231.12 
L 142.01707 231.12 
L 142.01707 230.652248 
L 142.290162 230.652248 
L 142.290162 229.716745 
L 142.559347 229.716745 
L 142.559347 229.248993 
L 142.743475 229.248993 
L 142.784148 226.910234 
L 142.966099 226.910234 
L 142.966099 225.974731 
L 143.403597 225.974731 
L 143.403597 225.039228 
L 144.249202 225.039228 
L 144.324223 223.168221 
L 360.8064 223.168221 
L 360.8064 223.168221 
" style="fill: none; stroke: #000080; stroke-width: 1.5; stroke-linecap: square"/>
   </g>
   <g id="line2d_36">
    <defs>
     <path id="m0a6e18f7d3" d="M 0 6 
C 1.591219 6 3.117479 5.367802 4.242641 4.242641 
C 5.367802 3.117479 6 1.591219 6 0 
C 6 -1.591219 5.367802 -3.117479 4.242641 -4.242641 
C 3.117479 -5.367802 1.591219 -6 0 -6 
C -1.591219 -6 -3.117479 -5.367802 -4.242641 -4.242641 
C -5.367802 -3.117479 -6 -1.591219 -6 0 
C -6 1.591219 -5.367802 3.117479 -4.242641 4.242641 
C -3.117479 5.367802 -1.591219 6 0 6 
z
" style="stroke: #000080; stroke-width: 1.5"/>
    </defs>
    <g>
     <use xlink:href="#m0a6e18f7d3" x="123.713691" y="267.136883" style="fill-opacity: 0; stroke: #000080; stroke-width: 1.5"/>
     <use xlink:href="#m0a6e18f7d3" x="144.324223" y="224.103724" style="fill-opacity: 0; stroke: #000080; stroke-width: 1.5"/>
     <use xlink:href="#m0a6e18f7d3" x="144.324223" y="223.168221" style="fill-opacity: 0; stroke: #000080; stroke-width: 1.5"/>
     <use xlink:href="#m0a6e18f7d3" x="144.324223" y="223.168221" style="fill-opacity: 0; stroke: #000080; stroke-width: 1.5"/>
     <use xlink:href="#m0a6e18f7d3" x="144.324223" y="223.168221" style="fill-opacity: 0; stroke: #000080; stroke-width: 1.5"/>
     <use xlink:href="#m0a6e18f7d3" x="360.8064" y="223.168221" style="fill-opacity: 0; stroke: #000080; stroke-width: 1.5"/>
    </g>
   </g>
   <g id="line2d_37">
    <path style="fill: none; stroke: #000080; stroke-width: 1.5; stroke-linecap: square"/>
    <g/>
   </g>
   <g id="line2d_38">
    <path d="M 144.436197 223.168221 
" clip-path="url(#pb17d625cac)" style="fill: none; stroke: #000080; stroke-width: 1.5; stroke-linecap: square"/>
    <defs>
     <path id="made2c7be9e" d="M -12 12 
L 12 -12 
M -12 -12 
L 12 12 
" style="stroke: #000080"/>
    </defs>
    <g clip-path="url(#pb17d625cac)">
     <use xlink:href="#made2c7be9e" x="144.436197" y="223.168221" style="fill: #000080; stroke: #000080"/>
    </g>
   </g>
   <g id="line2d_39">
    <defs>
     <path id="m340cefe80f" d="M 0 1.5 
C 0.397805 1.5 0.77937 1.341951 1.06066 1.06066 
C 1.341951 0.77937 1.5 0.397805 1.5 0 
C 1.5 -0.397805 1.341951 -0.77937 1.06066 -1.06066 
C 0.77937 -1.341951 0.397805 -1.5 0 -1.5 
C -0.397805 -1.5 -0.77937 -1.341951 -1.06066 -1.06066 
C -1.341951 -0.77937 -1.5 -0.397805 -1.5 0 
C -1.5 0.397805 -1.341951 0.77937 -1.06066 1.06066 
C -0.77937 1.341951 -0.397805 1.5 0 1.5 
z
" style="stroke: #ff00ff"/>
    </defs>
    <g>
     <use xlink:href="#m340cefe80f" x="144.342932" y="226.442483" style="fill: #ff00ff; stroke: #ff00ff"/>
     <use xlink:href="#m340cefe80f" x="144.342932" y="226.442483" style="fill: #ff00ff; stroke: #ff00ff"/>
    </g>
   </g>
   <g id="line2d_40">
    <path d="M 14.2848 298.944 
L 14.2848 287.717959 
L 40.363149 287.717959 
L 40.363149 287.250207 
L 57.6 287.250207 
L 57.6 286.782455 
L 63.929565 286.782455 
L 63.929565 286.314703 
L 66.441498 286.314703 
L 66.441498 285.846952 
L 98.510456 285.846952 
L 98.510456 285.3792 
L 103.707211 285.3792 
L 103.707211 284.911448 
L 105.705415 284.911448 
L 105.705415 284.443697 
L 105.850679 284.443697 
L 105.850679 283.975945 
L 109.280431 283.975945 
L 109.280431 283.508193 
L 110.221204 283.508193 
L 110.221204 283.040441 
L 111.117162 283.040441 
L 111.117162 282.57269 
L 111.656212 282.57269 
L 111.656212 282.104938 
L 111.97238 282.104938 
L 111.97238 281.637186 
L 113.088217 281.637186 
L 113.088217 281.169434 
L 114.510421 281.169434 
L 114.510421 280.701683 
L 114.872193 280.701683 
L 114.961559 279.766179 
L 115.402131 279.766179 
L 115.402131 279.298428 
L 115.661605 279.298428 
L 115.661605 278.830676 
L 116.827295 278.830676 
L 116.827295 278.362924 
L 117.1475 278.362924 
L 117.1475 277.427421 
L 117.540239 277.427421 
L 117.617813 276.024166 
L 117.772007 276.024166 
L 117.772007 275.556414 
L 118.450653 275.556414 
L 118.450653 275.088662 
L 118.598196 275.088662 
L 118.598196 274.62091 
L 118.889854 274.62091 
L 118.889854 274.153159 
L 120.149089 274.153159 
L 120.149089 273.685407 
L 120.748446 273.685407 
L 120.748446 273.217655 
L 120.944062 273.217655 
L 120.944062 272.282152 
L 122.559246 272.282152 
L 122.559246 271.8144 
L 122.854567 271.8144 
L 122.854567 270.878897 
L 123.317644 270.878897 
L 123.317644 270.411145 
L 123.601383 270.411145 
L 123.601383 269.00789 
L 123.825333 269.00789 
L 123.825333 268.540138 
L 124.427792 268.540138 
L 124.427792 267.604634 
L 124.695386 267.604634 
L 124.695386 267.136883 
L 125.271028 267.136883 
L 125.271028 266.201379 
L 125.526971 266.201379 
L 125.526971 265.265876 
L 125.829577 265.265876 
L 125.879541 263.862621 
L 126.176572 263.862621 
L 126.176572 263.394869 
L 126.323346 263.394869 
L 126.323346 262.927117 
L 126.946461 262.927117 
L 126.993549 261.05611 
L 127.776517 261.05611 
L 127.776517 260.120607 
L 128.310214 260.120607 
L 128.310214 259.652855 
L 128.528195 259.652855 
L 128.528195 259.185103 
L 128.999044 259.185103 
L 128.999044 258.2496 
L 129.826058 258.2496 
L 129.826058 257.781848 
L 130.656987 257.781848 
L 130.734242 256.378593 
L 130.772751 256.378593 
L 130.811181 254.975338 
L 131.078016 254.975338 
L 131.115828 254.039834 
L 131.191226 254.039834 
L 131.191226 252.636579 
L 131.71071 252.636579 
L 131.71071 252.168828 
L 132.180571 252.168828 
L 132.180571 251.701076 
L 132.46399 251.701076 
L 132.46399 250.765572 
L 132.743202 250.765572 
L 132.743202 250.297821 
L 133.289492 250.297821 
L 133.289492 249.362317 
L 133.523594 249.362317 
L 133.523594 248.894566 
L 133.918257 248.894566 
L 133.950775 247.959062 
L 134.304809 247.959062 
L 134.304809 247.49131 
L 134.495147 247.49131 
L 134.558167 245.620303 
L 134.683578 245.620303 
L 134.745971 244.6848 
L 135.478982 244.6848 
L 135.478982 243.749297 
L 136.213327 243.749297 
L 136.213327 243.281545 
L 136.470828 243.281545 
L 136.555884 242.346041 
L 137.168148 242.346041 
L 137.195511 240.475034 
L 137.412988 240.475034 
L 137.412988 239.539531 
L 137.574461 239.539531 
L 137.574461 238.604028 
L 138.154948 238.604028 
L 138.154948 238.136276 
L 138.412998 238.136276 
L 138.412998 237.668524 
L 138.642255 237.668524 
L 138.642255 237.200772 
L 139.435481 237.200772 
L 139.435481 236.265269 
L 139.748412 236.265269 
L 139.748412 235.797517 
L 140.126547 235.797517 
L 140.126547 235.329766 
L 140.679868 235.329766 
L 140.679868 234.862014 
L 141.305488 234.862014 
L 141.305488 233.92651 
L 141.436884 233.92651 
L 141.436884 232.991007 
L 141.67542 232.991007 
L 141.67542 232.055503 
L 141.910969 232.055503 
L 141.910969 231.587752 
L 142.101521 231.587752 
L 142.101521 231.12 
L 142.352625 231.12 
L 142.352625 230.652248 
L 142.47693 230.652248 
L 142.538777 228.781241 
L 142.885449 228.781241 
L 142.885449 227.845738 
L 143.285285 227.845738 
L 143.285285 226.910234 
L 144.342932 226.910234 
L 144.342932 226.442483 
L 360.8064 226.442483 
L 360.8064 226.442483 
" style="fill: none; stroke: #ff00ff; stroke-width: 1.5; stroke-linecap: square"/>
   </g>
   <g id="line2d_41">
    <defs>
     <path id="mf249cc1b29" d="M -0 8.485281 
L 5.091169 0 
L 0 -8.485281 
L -5.091169 -0 
z
" style="stroke: #ff00ff; stroke-width: 1.5; stroke-linejoin: miter"/>
    </defs>
    <g>
     <use xlink:href="#mf249cc1b29" x="126.993549" y="261.05611" style="fill-opacity: 0; stroke: #ff00ff; stroke-width: 1.5; stroke-linejoin: miter"/>
     <use xlink:href="#mf249cc1b29" x="144.342932" y="226.910234" style="fill-opacity: 0; stroke: #ff00ff; stroke-width: 1.5; stroke-linejoin: miter"/>
     <use xlink:href="#mf249cc1b29" x="144.342932" y="226.442483" style="fill-opacity: 0; stroke: #ff00ff; stroke-width: 1.5; stroke-linejoin: miter"/>
     <use xlink:href="#mf249cc1b29" x="144.342932" y="226.442483" style="fill-opacity: 0; stroke: #ff00ff; stroke-width: 1.5; stroke-linejoin: miter"/>
     <use xlink:href="#mf249cc1b29" x="144.342932" y="226.442483" style="fill-opacity: 0; stroke: #ff00ff; stroke-width: 1.5; stroke-linejoin: miter"/>
     <use xlink:href="#mf249cc1b29" x="360.8064" y="226.442483" style="fill-opacity: 0; stroke: #ff00ff; stroke-width: 1.5; stroke-linejoin: miter"/>
    </g>
   </g>
   <g id="line2d_42">
    <path style="fill: none; stroke: #ff00ff; stroke-width: 1.5; stroke-linecap: square"/>
    <g/>
   </g>
   <g id="line2d_43">
    <path d="M 144.361622 226.442483 
" clip-path="url(#pb17d625cac)" style="fill: none; stroke: #ff00ff; stroke-width: 1.5; stroke-linecap: square"/>
    <defs>
     <path id="m935d4ff13f" d="M -12 12 
L 12 -12 
M -12 -12 
L 12 12 
" style="stroke: #ff00ff"/>
    </defs>
    <g clip-path="url(#pb17d625cac)">
     <use xlink:href="#m935d4ff13f" x="144.361622" y="226.442483" style="fill: #ff00ff; stroke: #ff00ff"/>
    </g>
   </g>
   <g id="line2d_44">
    <defs>
     <path id="m05ef1f3a42" d="M 0 1.5 
C 0.397805 1.5 0.77937 1.341951 1.06066 1.06066 
C 1.341951 0.77937 1.5 0.397805 1.5 0 
C 1.5 -0.397805 1.341951 -0.77937 1.06066 -1.06066 
C 0.77937 -1.341951 0.397805 -1.5 0 -1.5 
C -0.397805 -1.5 -0.77937 -1.341951 -1.06066 -1.06066 
C -1.341951 -0.77937 -1.5 -0.397805 -1.5 0 
C -1.5 0.397805 -1.341951 0.77937 -1.06066 1.06066 
C -0.77937 1.341951 -0.397805 1.5 0 1.5 
z
" style="stroke: #ff7500"/>
    </defs>
    <g>
     <use xlink:href="#m05ef1f3a42" x="143.657415" y="236.733021" style="fill: #ff7500; stroke: #ff7500"/>
     <use xlink:href="#m05ef1f3a42" x="143.657415" y="236.733021" style="fill: #ff7500; stroke: #ff7500"/>
    </g>
   </g>
   <g id="line2d_45">
    <path d="M 14.2848 298.944 
L 14.2848 287.717959 
L 96.480897 287.717959 
L 96.480897 287.250207 
L 101.102381 287.250207 
L 101.102381 286.314703 
L 103.047088 286.314703 
L 103.047088 284.911448 
L 104.809458 284.911448 
L 104.809458 284.443697 
L 107.904887 284.443697 
L 107.904887 283.975945 
L 109.280431 283.975945 
L 109.280431 283.508193 
L 111.762192 283.508193 
L 111.762192 283.040441 
L 113.954374 283.040441 
L 113.954374 282.57269 
L 116.827295 282.57269 
L 116.827295 282.104938 
L 118.524569 282.104938 
L 118.524569 281.637186 
L 120.0813 281.637186 
L 120.0813 281.169434 
L 120.813877 281.169434 
L 120.813877 280.701683 
L 122.19863 280.701683 
L 122.19863 279.766179 
L 122.854567 279.766179 
L 122.854567 278.362924 
L 123.4884 278.362924 
L 123.4884 276.491917 
L 124.101572 276.491917 
L 124.101572 275.556414 
L 125.829577 275.556414 
L 125.829577 275.088662 
L 126.372018 275.088662 
L 126.372018 274.153159 
L 127.412117 274.153159 
L 127.412117 273.217655 
L 128.39771 273.217655 
L 128.39771 272.749903 
L 129.334225 272.749903 
L 129.334225 271.8144 
L 130.656987 271.8144 
L 130.656987 270.878897 
L 131.489828 270.878897 
L 131.489828 269.943393 
L 131.892817 269.943393 
L 131.892817 269.475641 
L 132.673786 269.475641 
L 132.673786 266.669131 
L 133.05244 266.669131 
L 133.05244 264.798124 
L 133.423621 264.798124 
L 133.423621 263.862621 
L 133.78762 263.862621 
L 133.78762 262.927117 
L 135.177024 262.927117 
L 135.177024 262.459366 
L 135.508912 262.459366 
L 135.508912 259.185103 
L 135.835047 259.185103 
L 135.835047 257.781848 
L 136.155623 257.781848 
L 136.155623 255.910841 
L 136.470828 255.910841 
L 136.470828 255.44309 
L 137.085822 255.44309 
L 137.085822 253.572083 
L 137.681345 253.572083 
L 137.681345 252.636579 
L 138.258593 252.636579 
L 138.258593 251.701076 
L 138.540708 251.701076 
L 138.540708 251.233324 
L 138.818654 251.233324 
L 138.818654 250.765572 
L 139.092553 250.765572 
L 139.092553 248.894566 
L 139.362521 248.894566 
L 139.362521 247.959062 
L 139.628669 247.959062 
L 139.628669 246.555807 
L 139.891105 246.555807 
L 139.891105 246.088055 
L 141.151022 246.088055 
L 141.151022 244.6848 
L 141.393187 244.6848 
L 141.393187 243.281545 
L 141.632274 243.281545 
L 141.632274 242.346041 
L 141.868361 242.346041 
L 141.868361 240.942786 
L 142.101521 240.942786 
L 142.101521 238.604028 
L 142.331827 238.604028 
L 142.331827 238.136276 
L 143.442869 238.136276 
L 143.442869 237.200772 
L 143.657415 237.200772 
L 143.657415 236.733021 
L 360.8064 236.733021 
" style="fill: none; stroke: #ff7500; stroke-width: 1.5; stroke-linecap: square"/>
   </g>
   <g id="line2d_46">
    <defs>
     <path id="m2e3ff51517" d="M 0 -6 
L -1.347084 -1.854102 
L -5.706339 -1.854102 
L -2.179628 0.708204 
L -3.526712 4.854102 
L -0 2.291796 
L 3.526712 4.854102 
L 2.179628 0.708204 
L 5.706339 -1.854102 
L 1.347084 -1.854102 
z
" style="stroke: #ff7500; stroke-width: 1.5; stroke-linejoin: bevel"/>
    </defs>
    <g>
     <use xlink:href="#m2e3ff51517" x="103.047088" y="284.911448" style="fill-opacity: 0; stroke: #ff7500; stroke-width: 1.5; stroke-linejoin: bevel"/>
     <use xlink:href="#m2e3ff51517" x="143.657415" y="237.200772" style="fill-opacity: 0; stroke: #ff7500; stroke-width: 1.5; stroke-linejoin: bevel"/>
     <use xlink:href="#m2e3ff51517" x="143.657415" y="237.200772" style="fill-opacity: 0; stroke: #ff7500; stroke-width: 1.5; stroke-linejoin: bevel"/>
     <use xlink:href="#m2e3ff51517" x="143.657415" y="236.733021" style="fill-opacity: 0; stroke: #ff7500; stroke-width: 1.5; stroke-linejoin: bevel"/>
     <use xlink:href="#m2e3ff51517" x="143.657415" y="236.733021" style="fill-opacity: 0; stroke: #ff7500; stroke-width: 1.5; stroke-linejoin: bevel"/>
     <use xlink:href="#m2e3ff51517" x="360.8064" y="236.733021" style="fill-opacity: 0; stroke: #ff7500; stroke-width: 1.5; stroke-linejoin: bevel"/>
    </g>
   </g>
   <g id="line2d_47">
    <path style="fill: none; stroke: #ff7500; stroke-width: 1.5; stroke-linecap: square"/>
    <g/>
   </g>
   <g id="line2d_48">
    <path d="M 144.267986 236.733021 
" clip-path="url(#pb17d625cac)" style="fill: none; stroke: #ff7500; stroke-width: 1.5; stroke-linecap: square"/>
    <defs>
     <path id="m665cc1d540" d="M -12 12 
L 12 -12 
M -12 -12 
L 12 12 
" style="stroke: #ff7500"/>
    </defs>
    <g clip-path="url(#pb17d625cac)">
     <use xlink:href="#m665cc1d540" x="144.267986" y="236.733021" style="fill: #ff7500; stroke: #ff7500"/>
    </g>
   </g>
   <g id="line2d_49">
    <defs>
     <path id="ma1b7fd0e08" d="M 0 1.5 
C 0.397805 1.5 0.77937 1.341951 1.06066 1.06066 
C 1.341951 0.77937 1.5 0.397805 1.5 0 
C 1.5 -0.397805 1.341951 -0.77937 1.06066 -1.06066 
C 0.77937 -1.341951 0.397805 -1.5 0 -1.5 
C -0.397805 -1.5 -0.77937 -1.341951 -1.06066 -1.06066 
C -1.341951 -0.77937 -1.5 -0.397805 -1.5 0 
C -1.5 0.397805 -1.341951 0.77937 -1.06066 1.06066 
C -0.77937 1.341951 -0.397805 1.5 0 1.5 
z
" style="stroke: #6495ed"/>
    </defs>
    <g>
     <use xlink:href="#ma1b7fd0e08" x="143.715505" y="220.829462" style="fill: #6495ed; stroke: #6495ed"/>
     <use xlink:href="#ma1b7fd0e08" x="143.715505" y="220.829462" style="fill: #6495ed; stroke: #6495ed"/>
    </g>
   </g>
   <g id="line2d_50">
    <path d="M 14.2848 298.944 
L 14.2848 287.717959 
L 63.929565 287.717959 
L 63.929565 286.782455 
L 75.574654 286.782455 
L 75.574654 286.314703 
L 79.480672 286.314703 
L 79.480672 285.846952 
L 82.713442 285.846952 
L 82.713442 285.3792 
L 87.876026 285.3792 
L 87.876026 284.911448 
L 95.250946 284.911448 
L 95.250946 284.443697 
L 95.752617 284.443697 
L 95.752617 283.975945 
L 98.077987 283.975945 
L 98.077987 283.508193 
L 100.147275 283.508193 
L 100.147275 283.040441 
L 101.653002 283.040441 
L 101.653002 282.57269 
L 110.221204 282.57269 
L 110.221204 282.104938 
L 112.180244 282.104938 
L 112.180244 281.169434 
L 117.226706 281.169434 
L 117.226706 280.701683 
L 117.384126 280.701683 
L 117.384126 280.233931 
L 118.450653 280.233931 
L 118.450653 279.766179 
L 119.034004 279.766179 
L 119.034004 279.298428 
L 119.319033 279.298428 
L 119.319033 278.830676 
L 119.599808 278.830676 
L 119.599808 278.362924 
L 120.149089 278.362924 
L 120.149089 277.895172 
L 121.265635 277.895172 
L 121.265635 277.427421 
L 121.455972 277.427421 
L 121.455972 276.959669 
L 122.379802 276.959669 
L 122.379802 276.491917 
L 123.4884 276.491917 
L 123.544976 275.088662 
L 123.713691 275.088662 
L 123.713691 274.62091 
L 123.991562 274.62091 
L 123.991562 274.153159 
L 124.319679 274.153159 
L 124.319679 273.685407 
L 125.011554 273.685407 
L 125.011554 273.217655 
L 125.526971 273.217655 
L 125.526971 272.749903 
L 125.779479 272.749903 
L 125.879541 271.8144 
L 126.274549 271.8144 
L 126.274549 271.346648 
L 126.468985 271.346648 
L 126.517282 270.411145 
L 126.613505 270.411145 
L 126.613505 269.475641 
L 127.549596 269.475641 
L 127.549596 268.540138 
L 127.776517 268.540138 
L 127.821575 266.201379 
L 128.045258 266.201379 
L 128.089678 264.330372 
L 128.484801 264.330372 
L 128.57149 262.927117 
L 128.614685 262.927117 
L 128.614685 262.459366 
L 129.0834 262.459366 
L 129.0834 261.523862 
L 129.499602 261.523862 
L 129.581749 258.2496 
L 129.78556 258.2496 
L 129.78556 256.846345 
L 129.906795 256.846345 
L 129.906795 256.378593 
L 130.186674 256.378593 
L 130.186674 255.910841 
L 130.384069 255.910841 
L 130.384069 255.44309 
L 130.501519 255.44309 
L 130.501519 254.975338 
L 130.695654 254.975338 
L 130.772751 253.572083 
L 131.191226 253.572083 
L 131.191226 253.104331 
L 131.489828 253.104331 
L 131.489828 252.636579 
L 132.216233 252.636579 
L 132.216233 252.168828 
L 132.358208 252.168828 
L 132.358208 250.765572 
L 132.604114 250.765572 
L 132.604114 249.830069 
L 132.743202 249.830069 
L 132.743202 248.894566 
L 132.915628 248.894566 
L 132.915628 247.49131 
L 133.188264 247.49131 
L 133.188264 246.555807 
L 133.623039 246.555807 
L 133.623039 246.088055 
L 134.080287 246.088055 
L 134.080287 244.6848 
L 134.368469 244.6848 
L 134.368469 243.749297 
L 134.558167 243.749297 
L 134.558167 243.281545 
L 134.962732 243.281545 
L 134.993495 240.475034 
L 135.298389 240.475034 
L 135.298389 240.007283 
L 135.538796 240.007283 
L 135.538796 239.539531 
L 135.74666 239.539531 
L 135.74666 239.071779 
L 135.893741 239.071779 
L 135.893741 238.604028 
L 136.126705 238.604028 
L 136.126705 237.668524 
L 136.385386 237.668524 
L 136.470828 236.265269 
L 136.892314 236.265269 
L 136.892314 234.862014 
L 137.250116 234.862014 
L 137.250116 234.394262 
L 137.840541 234.394262 
L 137.945929 232.523255 
L 137.998402 232.523255 
L 137.998402 231.587752 
L 138.793555 231.587752 
L 138.793555 230.652248 
L 139.092553 230.652248 
L 139.092553 229.716745 
L 139.796097 229.716745 
L 139.796097 229.248993 
L 140.056223 229.248993 
L 140.056223 228.31349 
L 140.173284 228.31349 
L 140.173284 227.845738 
L 140.312801 227.845738 
L 140.312801 226.910234 
L 140.793122 226.910234 
L 140.793122 225.506979 
L 141.739954 225.506979 
L 141.84702 224.103724 
L 142.164612 224.103724 
L 142.164612 223.635972 
L 143.423243 223.635972 
L 143.423243 223.168221 
L 143.540694 223.168221 
L 143.540694 222.232717 
L 143.657415 222.232717 
L 143.715505 220.829462 
L 360.8064 220.829462 
L 360.8064 220.829462 
" style="fill: none; stroke: #6495ed; stroke-width: 1.5; stroke-linecap: square"/>
   </g>
   <g id="line2d_51">
    <defs>
     <path id="me744dcd7c9" d="M -0 6 
L 6 -6 
L -6 -6 
z
" style="stroke: #6495ed; stroke-width: 1.5; stroke-linejoin: miter"/>
    </defs>
    <g>
     <use xlink:href="#me744dcd7c9" x="130.384069" y="255.44309" style="fill-opacity: 0; stroke: #6495ed; stroke-width: 1.5; stroke-linejoin: miter"/>
     <use xlink:href="#me744dcd7c9" x="143.715505" y="221.297214" style="fill-opacity: 0; stroke: #6495ed; stroke-width: 1.5; stroke-linejoin: miter"/>
     <use xlink:href="#me744dcd7c9" x="143.715505" y="220.829462" style="fill-opacity: 0; stroke: #6495ed; stroke-width: 1.5; stroke-linejoin: miter"/>
     <use xlink:href="#me744dcd7c9" x="143.715505" y="220.829462" style="fill-opacity: 0; stroke: #6495ed; stroke-width: 1.5; stroke-linejoin: miter"/>
     <use xlink:href="#me744dcd7c9" x="143.715505" y="220.829462" style="fill-opacity: 0; stroke: #6495ed; stroke-width: 1.5; stroke-linejoin: miter"/>
     <use xlink:href="#me744dcd7c9" x="360.8064" y="220.829462" style="fill-opacity: 0; stroke: #6495ed; stroke-width: 1.5; stroke-linejoin: miter"/>
    </g>
   </g>
   <g id="line2d_52">
    <path style="fill: none; stroke: #6495ed; stroke-width: 1.5; stroke-linecap: square"/>
    <g/>
   </g>
   <g id="line2d_53">
    <path d="M 144.136106 220.829462 
" clip-path="url(#pb17d625cac)" style="fill: none; stroke: #6495ed; stroke-width: 1.5; stroke-linecap: square"/>
    <defs>
     <path id="mf4b097caaf" d="M -12 12 
L 12 -12 
M -12 -12 
L 12 12 
" style="stroke: #6495ed"/>
    </defs>
    <g clip-path="url(#pb17d625cac)">
     <use xlink:href="#mf4b097caaf" x="144.136106" y="220.829462" style="fill: #6495ed; stroke: #6495ed"/>
    </g>
   </g>
   <g id="line2d_54">
    <defs>
     <path id="m4d51d9e515" d="M 0 1.5 
C 0.397805 1.5 0.77937 1.341951 1.06066 1.06066 
C 1.341951 0.77937 1.5 0.397805 1.5 0 
C 1.5 -0.397805 1.341951 -0.77937 1.06066 -1.06066 
C 0.77937 -1.341951 0.397805 -1.5 0 -1.5 
C -0.397805 -1.5 -0.77937 -1.341951 -1.06066 -1.06066 
C -1.341951 -0.77937 -1.5 -0.397805 -1.5 0 
C -1.5 0.397805 -1.341951 0.77937 -1.06066 1.06066 
C -0.77937 1.341951 -0.397805 1.5 0 1.5 
z
" style="stroke: #ff0000"/>
    </defs>
    <g>
     <use xlink:href="#m4d51d9e515" x="207.360484" y="120.730593" style="fill: #ff0000; stroke: #ff0000"/>
     <use xlink:href="#m4d51d9e515" x="207.360484" y="120.730593" style="fill: #ff0000; stroke: #ff0000"/>
    </g>
   </g>
   <g id="line2d_55">
    <path d="M 14.2848 298.944 
L 14.2848 287.717959 
L 27.323974 287.717959 
L 27.323974 285.846952 
L 44.560826 285.846952 
L 44.560826 285.3792 
L 47.990577 285.3792 
L 47.990577 284.911448 
L 57.6 284.911448 
L 57.6 284.443697 
L 72.432107 284.443697 
L 72.432107 283.975945 
L 87.495981 283.975945 
L 87.495981 282.57269 
L 89.668958 282.57269 
L 89.668958 281.637186 
L 93.098709 281.637186 
L 93.098709 281.169434 
L 98.510456 281.169434 
L 98.510456 280.701683 
L 98.933205 280.701683 
L 98.933205 280.233931 
L 102.708132 280.233931 
L 102.708132 279.298428 
L 109.990385 279.298428 
L 109.990385 278.830676 
L 110.335561 278.830676 
L 110.335561 276.491917 
L 110.786158 276.491917 
L 110.786158 275.556414 
L 113.478107 275.556414 
L 113.478107 275.088662 
L 113.765312 275.088662 
L 113.765312 274.153159 
L 114.418881 274.153159 
L 114.418881 273.685407 
L 114.7824 273.685407 
L 114.7824 273.217655 
L 115.747307 273.217655 
L 115.747307 272.282152 
L 116.002095 272.282152 
L 116.002095 271.8144 
L 116.665126 271.8144 
L 116.665126 271.346648 
L 118.376446 271.346648 
L 118.376446 270.878897 
L 119.944983 270.878897 
L 119.944983 270.411145 
L 122.015696 270.411145 
L 122.076872 269.00789 
L 123.374735 269.00789 
L 123.374735 268.072386 
L 123.991562 268.072386 
L 123.991562 267.604634 
L 125.167667 267.604634 
L 125.167667 266.669131 
L 126.225624 266.669131 
L 126.274549 263.394869 
L 127.319904 263.394869 
L 127.319904 262.927117 
L 127.821575 262.927117 
L 127.821575 261.991614 
L 129.250988 261.991614 
L 129.250988 260.120607 
L 130.146945 260.120607 
L 130.146945 259.652855 
L 131.002163 259.652855 
L 131.002163 258.717352 
L 132.216233 258.717352 
L 132.216233 257.781848 
L 133.188264 257.781848 
L 133.188264 257.314097 
L 133.356676 257.314097 
L 133.356676 256.378593 
L 134.77709 256.378593 
L 134.77709 255.910841 
L 134.931919 255.910841 
L 134.931919 255.44309 
L 135.116046 255.44309 
L 135.116046 254.507586 
L 135.449003 254.507586 
L 135.449003 253.572083 
L 136.068734 253.572083 
L 136.097741 252.168828 
L 136.724851 252.168828 
L 136.724851 251.233324 
L 137.030737 251.233324 
L 137.030737 250.765572 
L 137.919637 250.765572 
L 137.919637 249.362317 
L 138.206842 249.362317 
L 138.206842 248.894566 
L 138.489728 248.894566 
L 138.489728 248.426814 
L 138.768422 248.426814 
L 138.768422 247.49131 
L 140.359078 247.49131 
L 140.359078 247.023559 
L 140.793122 247.023559 
L 140.860749 244.6848 
L 141.349389 244.6848 
L 141.349389 243.749297 
L 142.059343 243.749297 
L 142.059343 242.813793 
L 142.518184 242.813793 
L 142.518184 241.87829 
L 143.18612 241.87829 
L 143.18612 241.410538 
L 143.403597 241.410538 
L 143.403597 240.942786 
L 144.249202 240.942786 
L 144.249202 240.475034 
L 144.491935 240.475034 
L 144.491935 239.539531 
L 144.658165 239.539531 
L 144.658165 238.604028 
L 145.83427 238.604028 
L 145.83427 238.136276 
L 146.210514 238.136276 
L 146.210514 237.200772 
L 146.761135 237.200772 
L 146.761135 236.265269 
L 148.322436 236.265269 
L 148.322436 235.329766 
L 148.652472 235.329766 
L 148.652472 233.92651 
L 149.136916 233.92651 
L 149.136916 233.458759 
L 149.820013 233.458759 
L 149.820013 232.991007 
L 150.069911 232.991007 
L 150.069911 232.523255 
L 150.221009 232.523255 
L 150.221009 231.587752 
L 151.102962 231.587752 
L 151.102962 230.652248 
L 151.27191 230.652248 
L 151.27191 230.184497 
L 151.528902 230.184497 
L 151.528902 229.248993 
L 152.352898 229.248993 
L 152.352898 228.31349 
L 152.953957 228.31349 
L 152.953957 227.845738 
L 153.270716 227.845738 
L 153.340389 225.506979 
L 153.536404 225.506979 
L 153.536404 224.571476 
L 154.134722 224.571476 
L 154.134722 224.103724 
L 154.267588 224.103724 
L 154.267588 223.168221 
L 154.939501 223.168221 
L 154.939501 222.700469 
L 155.214281 222.700469 
L 155.214281 222.232717 
L 155.433326 222.232717 
L 155.443693 220.36171 
L 156.115606 220.36171 
L 156.115606 219.426207 
L 156.393565 219.426207 
L 156.472233 217.5552 
L 156.550574 217.5552 
L 156.550574 217.087448 
L 156.764344 217.087448 
L 156.870325 215.216441 
L 156.975712 215.216441 
L 156.975712 214.280938 
L 157.099504 214.280938 
L 157.099504 213.345434 
L 157.493969 213.345434 
L 157.493969 212.409931 
L 157.898535 212.409931 
L 157.898535 211.942179 
L 158.088598 211.942179 
L 158.196349 211.006676 
L 158.959618 211.006676 
L 158.959618 210.538924 
L 159.249688 210.538924 
L 159.342585 208.667917 
L 159.460157 208.667917 
L 159.460157 207.732414 
L 159.717911 207.732414 
L 159.717911 205.393655 
L 159.890533 205.393655 
L 159.988467 203.054897 
L 160.00474 203.054897 
L 160.012872 201.651641 
L 160.597153 201.651641 
L 160.597153 200.716138 
L 161.300977 200.716138 
L 161.300977 200.248386 
L 161.69908 200.248386 
L 161.788059 199.312883 
L 161.854518 199.312883 
L 161.935428 198.377379 
L 161.994053 198.377379 
L 161.994053 197.909628 
L 162.648372 197.909628 
L 162.648372 197.441876 
L 162.859187 197.441876 
L 162.859187 196.974124 
L 163.33528 196.974124 
L 163.33528 196.506372 
L 163.518345 196.506372 
L 163.518345 196.038621 
L 163.997986 196.038621 
L 164.063646 193.699862 
L 164.285191 193.699862 
L 164.285191 192.764359 
L 164.70794 192.764359 
L 164.714273 191.828855 
L 165.146166 191.828855 
L 165.146166 191.361103 
L 165.64686 191.361103 
L 165.64686 190.893352 
L 166.052194 190.893352 
L 166.052194 190.4256 
L 166.350564 190.4256 
L 166.373767 189.022345 
L 166.564105 189.022345 
L 166.564105 187.61909 
L 166.695635 187.61909 
L 166.735484 186.683586 
L 167.118257 186.683586 
L 167.179451 185.748083 
L 167.306762 185.748083 
L 167.306762 185.280331 
L 167.775305 185.280331 
L 167.845127 183.877076 
L 167.909348 183.877076 
L 168.015899 182.941572 
L 168.704395 182.941572 
L 168.765753 181.538317 
L 168.832 181.538317 
L 168.847255 179.66731 
L 169.06958 179.66731 
L 169.114734 176.8608 
L 169.584862 176.8608 
L 169.584862 176.393048 
L 169.832482 176.393048 
L 169.856584 174.989793 
L 170.014887 174.989793 
L 170.014887 174.522041 
L 170.2758 174.522041 
L 170.2758 173.586538 
L 170.509894 173.586538 
L 170.509894 173.118786 
L 170.648965 173.118786 
L 170.648965 172.651034 
L 170.828233 172.651034 
L 170.873925 171.247779 
L 171.010341 171.247779 
L 171.010341 170.780028 
L 171.444765 170.780028 
L 171.48015 169.844524 
L 171.704179 169.844524 
L 171.704179 169.376772 
L 172.157179 169.376772 
L 172.157179 168.909021 
L 172.322696 168.909021 
L 172.322696 167.973517 
L 172.89285 167.973517 
L 172.89285 167.505766 
L 173.027642 167.505766 
L 173.047981 166.10251 
L 173.145303 166.10251 
L 173.173594 165.167007 
L 173.28232 165.167007 
L 173.310406 164.231503 
L 173.533597 164.231503 
L 173.533597 163.296 
L 173.851812 163.296 
L 173.851812 162.828248 
L 174.037874 162.828248 
L 174.107176 160.957241 
L 174.366702 160.957241 
L 174.366702 160.48949 
L 174.483838 160.48949 
L 174.483838 160.021738 
L 174.648853 160.021738 
L 174.648853 159.553986 
L 174.992942 159.553986 
L 174.992942 158.618483 
L 175.258693 158.618483 
L 175.32725 156.747476 
L 175.992463 156.747476 
L 175.992463 156.279724 
L 176.261697 156.279724 
L 176.261697 155.811972 
L 176.435674 155.811972 
L 176.435674 155.344221 
L 176.560893 155.344221 
L 176.628234 153.940966 
L 176.994358 153.940966 
L 176.994358 153.473214 
L 177.181311 153.473214 
L 177.181311 153.005462 
L 177.317886 153.005462 
L 177.317886 152.069959 
L 177.794559 152.069959 
L 177.794559 151.602207 
L 177.970633 151.602207 
L 177.970633 150.666703 
L 178.095399 150.666703 
L 178.095399 150.198952 
L 178.253286 150.198952 
L 178.253286 149.7312 
L 178.476998 149.7312 
L 178.476998 149.263448 
L 178.80616 149.263448 
L 178.877868 147.860193 
L 179.014551 147.860193 
L 179.085471 145.989186 
L 179.407144 145.989186 
L 179.407144 145.053683 
L 179.522765 145.053683 
L 179.631951 143.650428 
L 180.279621 143.650428 
L 180.279621 143.182676 
L 180.774079 143.182676 
L 180.774079 142.714924 
L 181.033812 142.714924 
L 181.033812 141.779421 
L 181.158383 141.779421 
L 181.158383 140.843917 
L 181.373765 140.843917 
L 181.446749 139.908414 
L 181.74613 139.908414 
L 181.74613 139.440662 
L 182.0509 139.440662 
L 182.0509 138.97291 
L 182.211448 138.97291 
L 182.211448 138.505159 
L 182.560393 138.505159 
L 182.560393 138.037407 
L 183.29612 138.037407 
L 183.29612 137.101903 
L 183.60018 137.101903 
L 183.60018 136.634152 
L 184.377384 136.634152 
L 184.377384 136.1664 
L 184.616292 136.1664 
L 184.616292 135.698648 
L 185.217655 135.698648 
L 185.219784 134.295393 
L 185.555243 134.295393 
L 185.555243 133.827641 
L 185.678215 133.827641 
L 185.678215 133.35989 
L 186.785511 133.35989 
L 186.785511 132.892138 
L 187.11943 132.892138 
L 187.11943 132.424386 
L 187.356538 132.424386 
L 187.356538 131.956634 
L 187.519245 131.956634 
L 187.519245 131.021131 
L 188.937536 131.021131 
L 188.972443 130.085628 
L 189.283728 130.085628 
L 189.328269 128.682372 
L 191.436799 128.682372 
L 191.436799 128.214621 
L 191.708631 128.214621 
L 191.708631 127.746869 
L 192.154117 127.746869 
L 192.154117 126.811366 
L 192.450667 126.811366 
L 192.450667 126.343614 
L 192.685445 126.343614 
L 192.685445 125.875862 
L 192.879116 125.875862 
L 192.879116 125.40811 
L 194.594871 125.40811 
L 194.594871 124.940359 
L 194.964955 124.940359 
L 194.964955 124.472607 
L 197.801077 124.472607 
L 197.801077 123.537103 
L 198.627845 123.537103 
L 198.627845 122.6016 
L 200.078578 122.6016 
L 200.078578 122.133848 
L 206.776105 122.133848 
L 206.776105 121.666097 
L 207.360484 121.666097 
L 207.360484 120.730593 
L 360.8064 120.730593 
L 360.8064 120.730593 
" style="fill: none; stroke: #ff0000; stroke-width: 1.5; stroke-linecap: square"/>
   </g>
   <g id="line2d_56">
    <defs>
     <path id="m8c5063ed0d" d="M 0 -6 
L -5.196152 -3 
L -5.196152 3 
L -0 6 
L 5.196152 3 
L 5.196152 -3 
z
" style="stroke: #ff0000; stroke-width: 1.5; stroke-linejoin: miter"/>
    </defs>
    <g>
     <use xlink:href="#m8c5063ed0d" x="138.768422" y="248.426814" style="fill-opacity: 0; stroke: #ff0000; stroke-width: 1.5; stroke-linejoin: miter"/>
     <use xlink:href="#m8c5063ed0d" x="181.033812" y="141.779421" style="fill-opacity: 0; stroke: #ff0000; stroke-width: 1.5; stroke-linejoin: miter"/>
     <use xlink:href="#m8c5063ed0d" x="207.360484" y="121.666097" style="fill-opacity: 0; stroke: #ff0000; stroke-width: 1.5; stroke-linejoin: miter"/>
     <use xlink:href="#m8c5063ed0d" x="207.360484" y="120.730593" style="fill-opacity: 0; stroke: #ff0000; stroke-width: 1.5; stroke-linejoin: miter"/>
     <use xlink:href="#m8c5063ed0d" x="360.8064" y="120.730593" style="fill-opacity: 0; stroke: #ff0000; stroke-width: 1.5; stroke-linejoin: miter"/>
    </g>
   </g>
   <g id="line2d_57">
    <path style="fill: none; stroke: #ff0000; stroke-width: 1.5; stroke-linecap: square"/>
    <g/>
   </g>
   <g id="line2d_58">
    <path d="M 274.176188 120.730593 
" clip-path="url(#pb17d625cac)" style="fill: none; stroke: #ff0000; stroke-width: 1.5; stroke-linecap: square"/>
    <defs>
     <path id="me4cb3a7bb9" d="M -12 12 
L 12 -12 
M -12 -12 
L 12 12 
" style="stroke: #ff0000"/>
    </defs>
    <g clip-path="url(#pb17d625cac)">
     <use xlink:href="#me4cb3a7bb9" x="274.176188" y="120.730593" style="fill: #ff0000; stroke: #ff0000"/>
    </g>
   </g>
   <g id="line2d_59">
    <path d="M 360.8064 236.733021 
L 380.514816 293.51808 
" style="fill: none; stroke: #ff7500; stroke-width: 1.5; stroke-linecap: square"/>
    <g>
     <use xlink:href="#m2e3ff51517" x="360.8064" y="236.733021" style="fill-opacity: 0; stroke: #ff7500; stroke-width: 1.5; stroke-linejoin: bevel"/>
     <use xlink:href="#m2e3ff51517" x="380.514816" y="293.51808" style="fill-opacity: 0; stroke: #ff7500; stroke-width: 1.5; stroke-linejoin: bevel"/>
    </g>
   </g>
   <g id="line2d_60">
    <path d="M 360.8064 226.442483 
L 380.514816 241.429248 
" style="fill: none; stroke: #ff00ff; stroke-width: 1.5; stroke-linecap: square"/>
    <g>
     <use xlink:href="#mf249cc1b29" x="360.8064" y="226.442483" style="fill-opacity: 0; stroke: #ff00ff; stroke-width: 1.5; stroke-linejoin: miter"/>
     <use xlink:href="#mf249cc1b29" x="380.514816" y="241.429248" style="fill-opacity: 0; stroke: #ff00ff; stroke-width: 1.5; stroke-linejoin: miter"/>
    </g>
   </g>
   <g id="line2d_61">
    <path d="M 360.8064 223.168221 
L 380.514816 189.340416 
" style="fill: none; stroke: #000080; stroke-width: 1.5; stroke-linecap: square"/>
    <g>
     <use xlink:href="#m0a6e18f7d3" x="360.8064" y="223.168221" style="fill-opacity: 0; stroke: #000080; stroke-width: 1.5"/>
     <use xlink:href="#m0a6e18f7d3" x="380.514816" y="189.340416" style="fill-opacity: 0; stroke: #000080; stroke-width: 1.5"/>
    </g>
   </g>
   <g id="line2d_62">
    <path d="M 360.8064 220.829462 
L 380.514816 137.251584 
" style="fill: none; stroke: #6495ed; stroke-width: 1.5; stroke-linecap: square"/>
    <g>
     <use xlink:href="#me744dcd7c9" x="360.8064" y="220.829462" style="fill-opacity: 0; stroke: #6495ed; stroke-width: 1.5; stroke-linejoin: miter"/>
     <use xlink:href="#me744dcd7c9" x="380.514816" y="137.251584" style="fill-opacity: 0; stroke: #6495ed; stroke-width: 1.5; stroke-linejoin: miter"/>
    </g>
   </g>
   <g id="line2d_63">
    <path d="M 360.8064 120.730593 
L 380.514816 85.162752 
" style="fill: none; stroke: #ff0000; stroke-width: 1.5; stroke-linecap: square"/>
    <g>
     <use xlink:href="#m8c5063ed0d" x="360.8064" y="120.730593" style="fill-opacity: 0; stroke: #ff0000; stroke-width: 1.5; stroke-linejoin: miter"/>
     <use xlink:href="#m8c5063ed0d" x="380.514816" y="85.162752" style="fill-opacity: 0; stroke: #ff0000; stroke-width: 1.5; stroke-linejoin: miter"/>
    </g>
   </g>
   <g id="line2d_64">
    <path d="M 360.8064 298.944 
L 360.8064 27.648 
" style="fill: none; stroke: #000000; stroke-width: 1.5; stroke-linecap: square"/>
   </g>
   <g id="patch_3">
    <path d="M 57.6 298.944 
L 360.8064 298.944 
" style="fill: none; stroke: #000000; stroke-width: 0.8; stroke-linejoin: miter; stroke-linecap: square"/>
   </g>
   <g id="patch_4">
    <path d="M 57.6 27.648 
L 360.8064 27.648 
" style="fill: none; stroke: #000000; stroke-width: 0.8; stroke-linejoin: miter; stroke-linecap: square"/>
   </g>
   <g id="text_13">
    <!-- kerComo -->
    <g transform="translate(386.578944 297.381205) scale(0.14 -0.14)">
     <defs>
      <path id="DejaVuSans-6b" d="M 581 4863 
L 1159 4863 
L 1159 1991 
L 2875 3500 
L 3609 3500 
L 1753 1863 
L 3688 0 
L 2938 0 
L 1159 1709 
L 1159 0 
L 581 0 
L 581 4863 
z
" transform="scale(0.015625)"/>
      <path id="DejaVuSans-43" d="M 4122 4306 
L 4122 3641 
Q 3803 3938 3442 4084 
Q 3081 4231 2675 4231 
Q 1875 4231 1450 3742 
Q 1025 3253 1025 2328 
Q 1025 1406 1450 917 
Q 1875 428 2675 428 
Q 3081 428 3442 575 
Q 3803 722 4122 1019 
L 4122 359 
Q 3791 134 3420 21 
Q 3050 -91 2638 -91 
Q 1578 -91 968 557 
Q 359 1206 359 2328 
Q 359 3453 968 4101 
Q 1578 4750 2638 4750 
Q 3056 4750 3426 4639 
Q 3797 4528 4122 4306 
z
" transform="scale(0.015625)"/>
     </defs>
     <use xlink:href="#DejaVuSans-6b"/>
     <use xlink:href="#DejaVuSans-65" x="54.285156"/>
     <use xlink:href="#DejaVuSans-72" x="115.808594"/>
     <use xlink:href="#DejaVuSans-43" x="156.921875"/>
     <use xlink:href="#DejaVuSans-6f" x="226.746094"/>
     <use xlink:href="#DejaVuSans-6d" x="287.927734"/>
     <use xlink:href="#DejaVuSans-6f" x="385.339844"/>
    </g>
   </g>
   <g id="text_14">
    <!-- AllLQ -->
    <g transform="translate(386.578944 245.292373) scale(0.14 -0.14)">
     <defs>
      <path id="DejaVuSans-41" d="M 2188 4044 
L 1331 1722 
L 3047 1722 
L 2188 4044 
z
M 1831 4666 
L 2547 4666 
L 4325 0 
L 3669 0 
L 3244 1197 
L 1141 1197 
L 716 0 
L 50 0 
L 1831 4666 
z
" transform="scale(0.015625)"/>
      <path id="DejaVuSans-4c" d="M 628 4666 
L 1259 4666 
L 1259 531 
L 3531 531 
L 3531 0 
L 628 0 
L 628 4666 
z
" transform="scale(0.015625)"/>
      <path id="DejaVuSans-51" d="M 2522 4238 
Q 1834 4238 1429 3725 
Q 1025 3213 1025 2328 
Q 1025 1447 1429 934 
Q 1834 422 2522 422 
Q 3209 422 3611 934 
Q 4013 1447 4013 2328 
Q 4013 3213 3611 3725 
Q 3209 4238 2522 4238 
z
M 3406 84 
L 4238 -825 
L 3475 -825 
L 2784 -78 
Q 2681 -84 2626 -87 
Q 2572 -91 2522 -91 
Q 1538 -91 948 567 
Q 359 1225 359 2328 
Q 359 3434 948 4092 
Q 1538 4750 2522 4750 
Q 3503 4750 4090 4092 
Q 4678 3434 4678 2328 
Q 4678 1516 4351 937 
Q 4025 359 3406 84 
z
" transform="scale(0.015625)"/>
     </defs>
     <use xlink:href="#DejaVuSans-41"/>
     <use xlink:href="#DejaVuSans-6c" x="68.408203"/>
     <use xlink:href="#DejaVuSans-6c" x="96.191406"/>
     <use xlink:href="#DejaVuSans-4c" x="123.974609"/>
     <use xlink:href="#DejaVuSans-51" x="179.6875"/>
    </g>
   </g>
   <g id="text_15">
    <!-- AllComo -->
    <g transform="translate(386.578944 193.203541) scale(0.14 -0.14)">
     <use xlink:href="#DejaVuSans-41"/>
     <use xlink:href="#DejaVuSans-6c" x="68.408203"/>
     <use xlink:href="#DejaVuSans-6c" x="96.191406"/>
     <use xlink:href="#DejaVuSans-43" x="123.974609"/>
     <use xlink:href="#DejaVuSans-6f" x="193.798828"/>
     <use xlink:href="#DejaVuSans-6d" x="254.980469"/>
     <use xlink:href="#DejaVuSans-6f" x="352.392578"/>
    </g>
   </g>
   <g id="text_16">
    <!-- kerLQ -->
    <g transform="translate(386.578944 141.114709) scale(0.14 -0.14)">
     <use xlink:href="#DejaVuSans-6b"/>
     <use xlink:href="#DejaVuSans-65" x="54.285156"/>
     <use xlink:href="#DejaVuSans-72" x="115.808594"/>
     <use xlink:href="#DejaVuSans-4c" x="156.921875"/>
     <use xlink:href="#DejaVuSans-51" x="212.634766"/>
    </g>
   </g>
   <g id="text_17">
    <!-- COMO-10 d -->
    <g transform="translate(386.578944 89.025877) scale(0.14 -0.14)">
     <defs>
      <path id="DejaVuSans-4f" d="M 2522 4238 
Q 1834 4238 1429 3725 
Q 1025 3213 1025 2328 
Q 1025 1447 1429 934 
Q 1834 422 2522 422 
Q 3209 422 3611 934 
Q 4013 1447 4013 2328 
Q 4013 3213 3611 3725 
Q 3209 4238 2522 4238 
z
M 2522 4750 
Q 3503 4750 4090 4092 
Q 4678 3434 4678 2328 
Q 4678 1225 4090 567 
Q 3503 -91 2522 -91 
Q 1538 -91 948 565 
Q 359 1222 359 2328 
Q 359 3434 948 4092 
Q 1538 4750 2522 4750 
z
" transform="scale(0.015625)"/>
      <path id="DejaVuSans-4d" d="M 628 4666 
L 1569 4666 
L 2759 1491 
L 3956 4666 
L 4897 4666 
L 4897 0 
L 4281 0 
L 4281 4097 
L 3078 897 
L 2444 897 
L 1241 4097 
L 1241 0 
L 628 0 
L 628 4666 
z
" transform="scale(0.015625)"/>
     </defs>
     <use xlink:href="#DejaVuSans-43"/>
     <use xlink:href="#DejaVuSans-4f" x="69.824219"/>
     <use xlink:href="#DejaVuSans-4d" x="148.535156"/>
     <use xlink:href="#DejaVuSans-4f" x="234.814453"/>
     <use xlink:href="#DejaVuSans-2d" x="316.275391"/>
     <use xlink:href="#DejaVuSans-31" x="352.359375"/>
     <use xlink:href="#DejaVuSans-30" x="415.982422"/>
     <use xlink:href="#DejaVuSans-20" x="479.605469"/>
     <use xlink:href="#DejaVuSans-64" x="511.392578"/>
    </g>
   </g>
   <g id="text_18">
    <!-- best 2016 -->
    <g transform="translate(386.578944 36.937045) scale(0.14 -0.14)">
     <defs>
      <path id="DejaVuSans-62" d="M 3116 1747 
Q 3116 2381 2855 2742 
Q 2594 3103 2138 3103 
Q 1681 3103 1420 2742 
Q 1159 2381 1159 1747 
Q 1159 1113 1420 752 
Q 1681 391 2138 391 
Q 2594 391 2855 752 
Q 3116 1113 3116 1747 
z
M 1159 2969 
Q 1341 3281 1617 3432 
Q 1894 3584 2278 3584 
Q 2916 3584 3314 3078 
Q 3713 2572 3713 1747 
Q 3713 922 3314 415 
Q 2916 -91 2278 -91 
Q 1894 -91 1617 61 
Q 1341 213 1159 525 
L 1159 0 
L 581 0 
L 581 4863 
L 1159 4863 
L 1159 2969 
z
" transform="scale(0.015625)"/>
     </defs>
     <use xlink:href="#DejaVuSans-62"/>
     <use xlink:href="#DejaVuSans-65" x="63.476562"/>
     <use xlink:href="#DejaVuSans-73" x="125"/>
     <use xlink:href="#DejaVuSans-74" x="177.099609"/>
     <use xlink:href="#DejaVuSans-20" x="216.308594"/>
     <use xlink:href="#DejaVuSans-32" x="248.095703"/>
     <use xlink:href="#DejaVuSans-30" x="311.71875"/>
     <use xlink:href="#DejaVuSans-31" x="375.341797"/>
     <use xlink:href="#DejaVuSans-36" x="438.964844"/>
    </g>
   </g>
   <g id="text_19">
    <!-- bbob-biobj f26, 10-D -->
    <g transform="translate(60.632064 38.111366) scale(0.102 -0.102)">
     <defs>
      <path id="DejaVuSans-6a" d="M 603 3500 
L 1178 3500 
L 1178 -63 
Q 1178 -731 923 -1031 
Q 669 -1331 103 -1331 
L -116 -1331 
L -116 -844 
L 38 -844 
Q 366 -844 484 -692 
Q 603 -541 603 -63 
L 603 3500 
z
M 603 4863 
L 1178 4863 
L 1178 4134 
L 603 4134 
L 603 4863 
z
" transform="scale(0.015625)"/>
      <path id="DejaVuSans-44" d="M 1259 4147 
L 1259 519 
L 2022 519 
Q 2988 519 3436 956 
Q 3884 1394 3884 2338 
Q 3884 3275 3436 3711 
Q 2988 4147 2022 4147 
L 1259 4147 
z
M 628 4666 
L 1925 4666 
Q 3281 4666 3915 4102 
Q 4550 3538 4550 2338 
Q 4550 1131 3912 565 
Q 3275 0 1925 0 
L 628 0 
L 628 4666 
z
" transform="scale(0.015625)"/>
     </defs>
     <use xlink:href="#DejaVuSans-62"/>
     <use xlink:href="#DejaVuSans-62" x="63.476562"/>
     <use xlink:href="#DejaVuSans-6f" x="126.953125"/>
     <use xlink:href="#DejaVuSans-62" x="188.134766"/>
     <use xlink:href="#DejaVuSans-2d" x="251.611328"/>
     <use xlink:href="#DejaVuSans-62" x="287.695312"/>
     <use xlink:href="#DejaVuSans-69" x="351.171875"/>
     <use xlink:href="#DejaVuSans-6f" x="378.955078"/>
     <use xlink:href="#DejaVuSans-62" x="440.136719"/>
     <use xlink:href="#DejaVuSans-6a" x="503.613281"/>
     <use xlink:href="#DejaVuSans-20" x="531.396484"/>
     <use xlink:href="#DejaVuSans-66" x="563.183594"/>
     <use xlink:href="#DejaVuSans-32" x="598.388672"/>
     <use xlink:href="#DejaVuSans-36" x="662.011719"/>
     <use xlink:href="#DejaVuSans-2c" x="725.634766"/>
     <use xlink:href="#DejaVuSans-20" x="757.421875"/>
     <use xlink:href="#DejaVuSans-31" x="789.208984"/>
     <use xlink:href="#DejaVuSans-30" x="852.832031"/>
     <use xlink:href="#DejaVuSans-2d" x="916.455078"/>
     <use xlink:href="#DejaVuSans-44" x="952.539062"/>
    </g>
    <!-- 58 targets: 1..-1.0e-4 -->
    <g transform="translate(60.632064 49.533135) scale(0.102 -0.102)">
     <defs>
      <path id="DejaVuSans-35" d="M 691 4666 
L 3169 4666 
L 3169 4134 
L 1269 4134 
L 1269 2991 
Q 1406 3038 1543 3061 
Q 1681 3084 1819 3084 
Q 2600 3084 3056 2656 
Q 3513 2228 3513 1497 
Q 3513 744 3044 326 
Q 2575 -91 1722 -91 
Q 1428 -91 1123 -41 
Q 819 9 494 109 
L 494 744 
Q 775 591 1075 516 
Q 1375 441 1709 441 
Q 2250 441 2565 725 
Q 2881 1009 2881 1497 
Q 2881 1984 2565 2268 
Q 2250 2553 1709 2553 
Q 1456 2553 1204 2497 
Q 953 2441 691 2322 
L 691 4666 
z
" transform="scale(0.015625)"/>
      <path id="DejaVuSans-3a" d="M 750 794 
L 1409 794 
L 1409 0 
L 750 0 
L 750 794 
z
M 750 3309 
L 1409 3309 
L 1409 2516 
L 750 2516 
L 750 3309 
z
" transform="scale(0.015625)"/>
     </defs>
     <use xlink:href="#DejaVuSans-35"/>
     <use xlink:href="#DejaVuSans-38" x="63.623047"/>
     <use xlink:href="#DejaVuSans-20" x="127.246094"/>
     <use xlink:href="#DejaVuSans-74" x="159.033203"/>
     <use xlink:href="#DejaVuSans-61" x="198.242188"/>
     <use xlink:href="#DejaVuSans-72" x="259.521484"/>
     <use xlink:href="#DejaVuSans-67" x="298.884766"/>
     <use xlink:href="#DejaVuSans-65" x="362.361328"/>
     <use xlink:href="#DejaVuSans-74" x="423.884766"/>
     <use xlink:href="#DejaVuSans-73" x="463.09375"/>
     <use xlink:href="#DejaVuSans-3a" x="515.193359"/>
     <use xlink:href="#DejaVuSans-20" x="548.884766"/>
     <use xlink:href="#DejaVuSans-31" x="580.671875"/>
     <use xlink:href="#DejaVuSans-2e" x="644.294922"/>
     <use xlink:href="#DejaVuSans-2e" x="676.082031"/>
     <use xlink:href="#DejaVuSans-2d" x="707.869141"/>
     <use xlink:href="#DejaVuSans-31" x="743.953125"/>
     <use xlink:href="#DejaVuSans-2e" x="807.576172"/>
     <use xlink:href="#DejaVuSans-30" x="839.363281"/>
     <use xlink:href="#DejaVuSans-65" x="902.986328"/>
     <use xlink:href="#DejaVuSans-2d" x="964.509766"/>
     <use xlink:href="#DejaVuSans-34" x="1000.59375"/>
    </g>
    <!-- 10 instances -->
    <g transform="translate(60.632064 60.954904) scale(0.102 -0.102)">
     <use xlink:href="#DejaVuSans-31"/>
     <use xlink:href="#DejaVuSans-30" x="63.623047"/>
     <use xlink:href="#DejaVuSans-20" x="127.246094"/>
     <use xlink:href="#DejaVuSans-69" x="159.033203"/>
     <use xlink:href="#DejaVuSans-6e" x="186.816406"/>
     <use xlink:href="#DejaVuSans-73" x="250.195312"/>
     <use xlink:href="#DejaVuSans-74" x="302.294922"/>
     <use xlink:href="#DejaVuSans-61" x="341.503906"/>
     <use xlink:href="#DejaVuSans-6e" x="402.783203"/>
     <use xlink:href="#DejaVuSans-63" x="466.162109"/>
     <use xlink:href="#DejaVuSans-65" x="521.142578"/>
     <use xlink:href="#DejaVuSans-73" x="582.666016"/>
    </g>
   </g>
   <g id="text_20">
    <!-- v2.6, hv-hash=ff0e71e8cd978373 -->
    <g style="fill: #808080" transform="translate(123.707887 294.151352) scale(0.1 -0.1)">
     <defs>
      <path id="DejaVuSans-68" d="M 3513 2113 
L 3513 0 
L 2938 0 
L 2938 2094 
Q 2938 2591 2744 2837 
Q 2550 3084 2163 3084 
Q 1697 3084 1428 2787 
Q 1159 2491 1159 1978 
L 1159 0 
L 581 0 
L 581 4863 
L 1159 4863 
L 1159 2956 
Q 1366 3272 1645 3428 
Q 1925 3584 2291 3584 
Q 2894 3584 3203 3211 
Q 3513 2838 3513 2113 
z
" transform="scale(0.015625)"/>
      <path id="DejaVuSans-3d" d="M 678 2906 
L 4684 2906 
L 4684 2381 
L 678 2381 
L 678 2906 
z
M 678 1631 
L 4684 1631 
L 4684 1100 
L 678 1100 
L 678 1631 
z
" transform="scale(0.015625)"/>
      <path id="DejaVuSans-37" d="M 525 4666 
L 3525 4666 
L 3525 4397 
L 1831 0 
L 1172 0 
L 2766 4134 
L 525 4134 
L 525 4666 
z
" transform="scale(0.015625)"/>
      <path id="DejaVuSans-39" d="M 703 97 
L 703 672 
Q 941 559 1184 500 
Q 1428 441 1663 441 
Q 2288 441 2617 861 
Q 2947 1281 2994 2138 
Q 2813 1869 2534 1725 
Q 2256 1581 1919 1581 
Q 1219 1581 811 2004 
Q 403 2428 403 3163 
Q 403 3881 828 4315 
Q 1253 4750 1959 4750 
Q 2769 4750 3195 4129 
Q 3622 3509 3622 2328 
Q 3622 1225 3098 567 
Q 2575 -91 1691 -91 
Q 1453 -91 1209 -44 
Q 966 3 703 97 
z
M 1959 2075 
Q 2384 2075 2632 2365 
Q 2881 2656 2881 3163 
Q 2881 3666 2632 3958 
Q 2384 4250 1959 4250 
Q 1534 4250 1286 3958 
Q 1038 3666 1038 3163 
Q 1038 2656 1286 2365 
Q 1534 2075 1959 2075 
z
" transform="scale(0.015625)"/>
      <path id="DejaVuSans-33" d="M 2597 2516 
Q 3050 2419 3304 2112 
Q 3559 1806 3559 1356 
Q 3559 666 3084 287 
Q 2609 -91 1734 -91 
Q 1441 -91 1130 -33 
Q 819 25 488 141 
L 488 750 
Q 750 597 1062 519 
Q 1375 441 1716 441 
Q 2309 441 2620 675 
Q 2931 909 2931 1356 
Q 2931 1769 2642 2001 
Q 2353 2234 1838 2234 
L 1294 2234 
L 1294 2753 
L 1863 2753 
Q 2328 2753 2575 2939 
Q 2822 3125 2822 3475 
Q 2822 3834 2567 4026 
Q 2313 4219 1838 4219 
Q 1578 4219 1281 4162 
Q 984 4106 628 3988 
L 628 4550 
Q 988 4650 1302 4700 
Q 1616 4750 1894 4750 
Q 2613 4750 3031 4423 
Q 3450 4097 3450 3541 
Q 3450 3153 3228 2886 
Q 3006 2619 2597 2516 
z
" transform="scale(0.015625)"/>
     </defs>
     <use xlink:href="#DejaVuSans-76"/>
     <use xlink:href="#DejaVuSans-32" x="59.179688"/>
     <use xlink:href="#DejaVuSans-2e" x="122.802734"/>
     <use xlink:href="#DejaVuSans-36" x="154.589844"/>
     <use xlink:href="#DejaVuSans-2c" x="218.212891"/>
     <use xlink:href="#DejaVuSans-20" x="250"/>
     <use xlink:href="#DejaVuSans-68" x="281.787109"/>
     <use xlink:href="#DejaVuSans-76" x="345.166016"/>
     <use xlink:href="#DejaVuSans-2d" x="401.720703"/>
     <use xlink:href="#DejaVuSans-68" x="437.804688"/>
     <use xlink:href="#DejaVuSans-61" x="501.183594"/>
     <use xlink:href="#DejaVuSans-73" x="562.462891"/>
     <use xlink:href="#DejaVuSans-68" x="614.5625"/>
     <use xlink:href="#DejaVuSans-3d" x="677.941406"/>
     <use xlink:href="#DejaVuSans-66" x="761.730469"/>
     <use xlink:href="#DejaVuSans-66" x="796.935547"/>
     <use xlink:href="#DejaVuSans-30" x="832.140625"/>
     <use xlink:href="#DejaVuSans-65" x="895.763672"/>
     <use xlink:href="#DejaVuSans-37" x="957.287109"/>
     <use xlink:href="#DejaVuSans-31" x="1020.910156"/>
     <use xlink:href="#DejaVuSans-65" x="1084.533203"/>
     <use xlink:href="#DejaVuSans-38" x="1146.056641"/>
     <use xlink:href="#DejaVuSans-63" x="1209.679688"/>
     <use xlink:href="#DejaVuSans-64" x="1264.660156"/>
     <use xlink:href="#DejaVuSans-39" x="1328.136719"/>
     <use xlink:href="#DejaVuSans-37" x="1391.759766"/>
     <use xlink:href="#DejaVuSans-38" x="1455.382812"/>
     <use xlink:href="#DejaVuSans-33" x="1519.005859"/>
     <use xlink:href="#DejaVuSans-37" x="1582.628906"/>
     <use xlink:href="#DejaVuSans-33" x="1646.251953"/>
    </g>
   </g>
   <g id="text_21">
    <!-- 26 Attr. sector/Schwefel -->
    <g transform="translate(89.892262 21.648) scale(0.2 -0.2)">
     <defs>
      <path id="DejaVuSans-53" d="M 3425 4513 
L 3425 3897 
Q 3066 4069 2747 4153 
Q 2428 4238 2131 4238 
Q 1616 4238 1336 4038 
Q 1056 3838 1056 3469 
Q 1056 3159 1242 3001 
Q 1428 2844 1947 2747 
L 2328 2669 
Q 3034 2534 3370 2195 
Q 3706 1856 3706 1288 
Q 3706 609 3251 259 
Q 2797 -91 1919 -91 
Q 1588 -91 1214 -16 
Q 841 59 441 206 
L 441 856 
Q 825 641 1194 531 
Q 1563 422 1919 422 
Q 2459 422 2753 634 
Q 3047 847 3047 1241 
Q 3047 1584 2836 1778 
Q 2625 1972 2144 2069 
L 1759 2144 
Q 1053 2284 737 2584 
Q 422 2884 422 3419 
Q 422 4038 858 4394 
Q 1294 4750 2059 4750 
Q 2388 4750 2728 4690 
Q 3069 4631 3425 4513 
z
" transform="scale(0.015625)"/>
      <path id="DejaVuSans-77" d="M 269 3500 
L 844 3500 
L 1563 769 
L 2278 3500 
L 2956 3500 
L 3675 769 
L 4391 3500 
L 4966 3500 
L 4050 0 
L 3372 0 
L 2619 2869 
L 1863 0 
L 1184 0 
L 269 3500 
z
" transform="scale(0.015625)"/>
     </defs>
     <use xlink:href="#DejaVuSans-32"/>
     <use xlink:href="#DejaVuSans-36" x="63.623047"/>
     <use xlink:href="#DejaVuSans-20" x="127.246094"/>
     <use xlink:href="#DejaVuSans-41" x="159.033203"/>
     <use xlink:href="#DejaVuSans-74" x="225.691406"/>
     <use xlink:href="#DejaVuSans-74" x="264.900391"/>
     <use xlink:href="#DejaVuSans-72" x="304.109375"/>
     <use xlink:href="#DejaVuSans-2e" x="336.097656"/>
     <use xlink:href="#DejaVuSans-20" x="367.884766"/>
     <use xlink:href="#DejaVuSans-73" x="399.671875"/>
     <use xlink:href="#DejaVuSans-65" x="451.771484"/>
     <use xlink:href="#DejaVuSans-63" x="513.294922"/>
     <use xlink:href="#DejaVuSans-74" x="568.275391"/>
     <use xlink:href="#DejaVuSans-6f" x="607.484375"/>
     <use xlink:href="#DejaVuSans-72" x="668.666016"/>
     <use xlink:href="#DejaVuSans-2f" x="709.779297"/>
     <use xlink:href="#DejaVuSans-53" x="743.470703"/>
     <use xlink:href="#DejaVuSans-63" x="806.947266"/>
     <use xlink:href="#DejaVuSans-68" x="861.927734"/>
     <use xlink:href="#DejaVuSans-77" x="925.306641"/>
     <use xlink:href="#DejaVuSans-65" x="1007.09375"/>
     <use xlink:href="#DejaVuSans-66" x="1068.617188"/>
     <use xlink:href="#DejaVuSans-65" x="1103.822266"/>
     <use xlink:href="#DejaVuSans-6c" x="1165.345703"/>
    </g>
   </g>
  </g>
 </g>
 <defs>
  <clipPath id="pb17d625cac">
   <rect x="57.6" y="27.648" width="303.2064" height="271.296"/>
  </clipPath>
 </defs>
</svg>
