<?xml version="1.0" encoding="utf-8" standalone="no"?>
<!DOCTYPE svg PUBLIC "-//W3C//DTD SVG 1.1//EN"
  "http://www.w3.org/Graphics/SVG/1.1/DTD/svg11.dtd">
<svg xmlns:xlink="http://www.w3.org/1999/xlink" width="460.8pt" height="345.6pt" viewBox="0 0 460.8 345.6" xmlns="http://www.w3.org/2000/svg" version="1.1">
 <metadata>
  <rdf:RDF xmlns:dc="http://purl.org/dc/elements/1.1/" xmlns:cc="http://creativecommons.org/ns#" xmlns:rdf="http://www.w3.org/1999/02/22-rdf-syntax-ns#">
   <cc:Work>
    <dc:type rdf:resource="http://purl.org/dc/dcmitype/StillImage"/>
    <dc:date>2023-02-21T14:32:53.648764</dc:date>
    <dc:format>image/svg+xml</dc:format>
    <dc:creator>
     <cc:Agent>
      <dc:title>Matplotlib v3.7.0, https://matplotlib.org/</dc:title>
     </cc:Agent>
    </dc:creator>
   </cc:Work>
  </rdf:RDF>
 </metadata>
 <defs>
  <style type="text/css">*{stroke-linejoin: round; stroke-linecap: butt}</style>
 </defs>
 <g id="figure_1">
  <g id="patch_1">
   <path d="M 0 345.6 
L 460.8 345.6 
L 460.8 0 
L 0 0 
z
" style="fill: #ffffff"/>
  </g>
  <g id="axes_1">
   <g id="patch_2">
    <path d="M 57.6 298.944 
L 360.8064 298.944 
L 360.8064 6.912 
L 57.6 6.912 
z
" style="fill: #ffffff"/>
   </g>
   <g id="line2d_1">
    <path d="M 47.990577 298.944 
L 47.990577 289.2096 
L 57.6 289.2096 
L 57.6 279.4752 
L 65.227428 279.4752 
L 65.227428 269.7408 
L 66.441498 269.7408 
L 66.441498 260.0064 
L 74.068926 260.0064 
L 74.068926 240.5376 
L 77.628862 240.5376 
L 77.628862 230.8032 
L 82.211771 230.8032 
L 82.211771 221.0688 
L 83.678349 221.0688 
L 83.678349 211.3344 
L 90.007914 211.3344 
L 90.007914 201.6 
L 90.668036 201.6 
L 90.668036 191.8656 
L 93.098709 191.8656 
L 93.098709 182.1312 
L 94.205591 182.1312 
L 94.205591 172.3968 
L 98.723018 172.3968 
L 98.723018 162.6624 
L 101.287718 162.6624 
L 101.287718 152.928 
L 103.047088 152.928 
L 103.047088 143.1936 
L 104.344952 143.1936 
L 104.344952 133.4592 
L 110.897141 133.4592 
L 110.897141 123.7248 
L 111.54963 123.7248 
L 111.54963 113.9904 
L 112.790402 113.9904 
L 112.790402 104.256 
L 116.253478 104.256 
L 116.253478 94.5216 
L 122.19863 94.5216 
L 122.19863 84.7872 
L 124.535287 84.7872 
L 124.535287 75.0528 
L 125.271028 75.0528 
L 125.271028 65.3184 
L 127.731351 65.3184 
L 127.731351 55.584 
L 130.695654 55.584 
L 130.695654 45.8496 
L 135.388902 45.8496 
L 135.388902 36.1152 
L 135.508912 36.1152 
L 135.508912 26.3808 
L 135.59842 26.3808 
L 135.59842 16.6464 
L 139.240288 16.6464 
L 139.240288 6.912 
L 360.8064 6.912 
" style="fill: none; stroke: #f5deb3; stroke-width: 4; stroke-linecap: square"/>
   </g>
   <g id="line2d_2">
    <defs>
     <path id="m2808e06399" d="M -0 7.778175 
L 7.778175 0 
L 0 -7.778175 
L -7.778175 -0 
z
" style="stroke: #f5deb3; stroke-width: 1.5; stroke-linejoin: miter"/>
    </defs>
    <g>
     <use xlink:href="#m2808e06399" x="77.628862" y="240.5376" style="fill: #f5deb3; stroke: #f5deb3; stroke-width: 1.5; stroke-linejoin: miter"/>
     <use xlink:href="#m2808e06399" x="111.54963" y="123.7248" style="fill: #f5deb3; stroke: #f5deb3; stroke-width: 1.5; stroke-linejoin: miter"/>
     <use xlink:href="#m2808e06399" x="135.59842" y="26.3808" style="fill: #f5deb3; stroke: #f5deb3; stroke-width: 1.5; stroke-linejoin: miter"/>
     <use xlink:href="#m2808e06399" x="139.240288" y="6.912" style="fill: #f5deb3; stroke: #f5deb3; stroke-width: 1.5; stroke-linejoin: miter"/>
     <use xlink:href="#m2808e06399" x="139.240288" y="6.912" style="fill: #f5deb3; stroke: #f5deb3; stroke-width: 1.5; stroke-linejoin: miter"/>
     <use xlink:href="#m2808e06399" x="360.8064" y="6.912" style="fill: #f5deb3; stroke: #f5deb3; stroke-width: 1.5; stroke-linejoin: miter"/>
    </g>
   </g>
   <g id="line2d_3">
    <path style="fill: none; stroke: #f5deb3; stroke-width: 4; stroke-linecap: square"/>
    <g/>
   </g>
   <g id="line2d_4">
    <path d="M 360.8064 6.912 
L 380.514816 12.75264 
" style="fill: none; stroke: #f5deb3; stroke-width: 4; stroke-linecap: square"/>
    <g>
     <use xlink:href="#m2808e06399" x="360.8064" y="6.912" style="fill: #f5deb3; stroke: #f5deb3; stroke-width: 1.5; stroke-linejoin: miter"/>
     <use xlink:href="#m2808e06399" x="380.514816" y="12.75264" style="fill: #f5deb3; stroke: #f5deb3; stroke-width: 1.5; stroke-linejoin: miter"/>
    </g>
   </g>
   <g id="matplotlib.axis_1">
    <g id="xtick_1">
     <g id="line2d_5">
      <path d="M 57.6 298.944 
L 57.6 6.912 
" clip-path="url(#pbdb0c302b9)" style="fill: none; stroke: #b0b0b0; stroke-width: 0.8; stroke-linecap: square"/>
     </g>
     <g id="line2d_6">
      <defs>
       <path id="me25c93ebfa" d="M 0 0 
L 0 3.5 
" style="stroke: #000000; stroke-width: 0.8"/>
      </defs>
      <g>
       <use xlink:href="#me25c93ebfa" x="57.6" y="298.944" style="stroke: #000000; stroke-width: 0.8"/>
      </g>
     </g>
     <g id="text_1">
      <!-- 0 -->
      <g transform="translate(52.191875 318.861344) scale(0.17 -0.17)">
       <defs>
        <path id="DejaVuSans-30" d="M 2034 4250 
Q 1547 4250 1301 3770 
Q 1056 3291 1056 2328 
Q 1056 1369 1301 889 
Q 1547 409 2034 409 
Q 2525 409 2770 889 
Q 3016 1369 3016 2328 
Q 3016 3291 2770 3770 
Q 2525 4250 2034 4250 
z
M 2034 4750 
Q 2819 4750 3233 4129 
Q 3647 3509 3647 2328 
Q 3647 1150 3233 529 
Q 2819 -91 2034 -91 
Q 1250 -91 836 529 
Q 422 1150 422 2328 
Q 422 3509 836 4129 
Q 1250 4750 2034 4750 
z
" transform="scale(0.015625)"/>
       </defs>
       <use xlink:href="#DejaVuSans-30"/>
      </g>
     </g>
    </g>
    <g id="xtick_2">
     <g id="line2d_7">
      <path d="M 144.2304 298.944 
L 144.2304 6.912 
" clip-path="url(#pbdb0c302b9)" style="fill: none; stroke: #b0b0b0; stroke-width: 0.8; stroke-linecap: square"/>
     </g>
     <g id="line2d_8">
      <g>
       <use xlink:href="#me25c93ebfa" x="144.2304" y="298.944" style="stroke: #000000; stroke-width: 0.8"/>
      </g>
     </g>
     <g id="text_2">
      <!-- 2 -->
      <g transform="translate(138.822275 318.861344) scale(0.17 -0.17)">
       <defs>
        <path id="DejaVuSans-32" d="M 1228 531 
L 3431 531 
L 3431 0 
L 469 0 
L 469 531 
Q 828 903 1448 1529 
Q 2069 2156 2228 2338 
Q 2531 2678 2651 2914 
Q 2772 3150 2772 3378 
Q 2772 3750 2511 3984 
Q 2250 4219 1831 4219 
Q 1534 4219 1204 4116 
Q 875 4013 500 3803 
L 500 4441 
Q 881 4594 1212 4672 
Q 1544 4750 1819 4750 
Q 2544 4750 2975 4387 
Q 3406 4025 3406 3419 
Q 3406 3131 3298 2873 
Q 3191 2616 2906 2266 
Q 2828 2175 2409 1742 
Q 1991 1309 1228 531 
z
" transform="scale(0.015625)"/>
       </defs>
       <use xlink:href="#DejaVuSans-32"/>
      </g>
     </g>
    </g>
    <g id="xtick_3">
     <g id="line2d_9">
      <path d="M 230.8608 298.944 
L 230.8608 6.912 
" clip-path="url(#pbdb0c302b9)" style="fill: none; stroke: #b0b0b0; stroke-width: 0.8; stroke-linecap: square"/>
     </g>
     <g id="line2d_10">
      <g>
       <use xlink:href="#me25c93ebfa" x="230.8608" y="298.944" style="stroke: #000000; stroke-width: 0.8"/>
      </g>
     </g>
     <g id="text_3">
      <!-- 4 -->
      <g transform="translate(225.452675 318.861344) scale(0.17 -0.17)">
       <defs>
        <path id="DejaVuSans-34" d="M 2419 4116 
L 825 1625 
L 2419 1625 
L 2419 4116 
z
M 2253 4666 
L 3047 4666 
L 3047 1625 
L 3713 1625 
L 3713 1100 
L 3047 1100 
L 3047 0 
L 2419 0 
L 2419 1100 
L 313 1100 
L 313 1709 
L 2253 4666 
z
" transform="scale(0.015625)"/>
       </defs>
       <use xlink:href="#DejaVuSans-34"/>
      </g>
     </g>
    </g>
    <g id="xtick_4">
     <g id="line2d_11">
      <path d="M 317.4912 298.944 
L 317.4912 6.912 
" clip-path="url(#pbdb0c302b9)" style="fill: none; stroke: #b0b0b0; stroke-width: 0.8; stroke-linecap: square"/>
     </g>
     <g id="line2d_12">
      <g>
       <use xlink:href="#me25c93ebfa" x="317.4912" y="298.944" style="stroke: #000000; stroke-width: 0.8"/>
      </g>
     </g>
     <g id="text_4">
      <!-- 6 -->
      <g transform="translate(312.083075 318.861344) scale(0.17 -0.17)">
       <defs>
        <path id="DejaVuSans-36" d="M 2113 2584 
Q 1688 2584 1439 2293 
Q 1191 2003 1191 1497 
Q 1191 994 1439 701 
Q 1688 409 2113 409 
Q 2538 409 2786 701 
Q 3034 994 3034 1497 
Q 3034 2003 2786 2293 
Q 2538 2584 2113 2584 
z
M 3366 4563 
L 3366 3988 
Q 3128 4100 2886 4159 
Q 2644 4219 2406 4219 
Q 1781 4219 1451 3797 
Q 1122 3375 1075 2522 
Q 1259 2794 1537 2939 
Q 1816 3084 2150 3084 
Q 2853 3084 3261 2657 
Q 3669 2231 3669 1497 
Q 3669 778 3244 343 
Q 2819 -91 2113 -91 
Q 1303 -91 875 529 
Q 447 1150 447 2328 
Q 447 3434 972 4092 
Q 1497 4750 2381 4750 
Q 2619 4750 2861 4703 
Q 3103 4656 3366 4563 
z
" transform="scale(0.015625)"/>
       </defs>
       <use xlink:href="#DejaVuSans-36"/>
      </g>
     </g>
    </g>
    <g id="xtick_5">
     <g id="line2d_13">
      <path d="M 100.9152 298.944 
L 100.9152 6.912 
" clip-path="url(#pbdb0c302b9)" style="fill: none; stroke: #b0b0b0; stroke-width: 0.8; stroke-linecap: square"/>
     </g>
     <g id="line2d_14">
      <defs>
       <path id="m1cedac9b83" d="M 0 0 
L 0 2 
" style="stroke: #000000; stroke-width: 0.6"/>
      </defs>
      <g>
       <use xlink:href="#m1cedac9b83" x="100.9152" y="298.944" style="stroke: #000000; stroke-width: 0.6"/>
      </g>
     </g>
    </g>
    <g id="xtick_6">
     <g id="line2d_15">
      <path d="M 187.5456 298.944 
L 187.5456 6.912 
" clip-path="url(#pbdb0c302b9)" style="fill: none; stroke: #b0b0b0; stroke-width: 0.8; stroke-linecap: square"/>
     </g>
     <g id="line2d_16">
      <g>
       <use xlink:href="#m1cedac9b83" x="187.5456" y="298.944" style="stroke: #000000; stroke-width: 0.6"/>
      </g>
     </g>
    </g>
    <g id="xtick_7">
     <g id="line2d_17">
      <path d="M 274.176 298.944 
L 274.176 6.912 
" clip-path="url(#pbdb0c302b9)" style="fill: none; stroke: #b0b0b0; stroke-width: 0.8; stroke-linecap: square"/>
     </g>
     <g id="line2d_18">
      <g>
       <use xlink:href="#m1cedac9b83" x="274.176" y="298.944" style="stroke: #000000; stroke-width: 0.6"/>
      </g>
     </g>
    </g>
    <g id="xtick_8">
     <g id="line2d_19">
      <path d="M 360.8064 298.944 
L 360.8064 6.912 
" clip-path="url(#pbdb0c302b9)" style="fill: none; stroke: #b0b0b0; stroke-width: 0.8; stroke-linecap: square"/>
     </g>
     <g id="line2d_20">
      <g>
       <use xlink:href="#m1cedac9b83" x="360.8064" y="298.944" style="stroke: #000000; stroke-width: 0.6"/>
      </g>
     </g>
    </g>
    <g id="text_5">
     <!-- log10(# f-evals / dimension) -->
     <g transform="translate(88.823278 339.314156) scale(0.17 -0.17)">
      <defs>
       <path id="DejaVuSans-6c" d="M 603 4863 
L 1178 4863 
L 1178 0 
L 603 0 
L 603 4863 
z
" transform="scale(0.015625)"/>
       <path id="DejaVuSans-6f" d="M 1959 3097 
Q 1497 3097 1228 2736 
Q 959 2375 959 1747 
Q 959 1119 1226 758 
Q 1494 397 1959 397 
Q 2419 397 2687 759 
Q 2956 1122 2956 1747 
Q 2956 2369 2687 2733 
Q 2419 3097 1959 3097 
z
M 1959 3584 
Q 2709 3584 3137 3096 
Q 3566 2609 3566 1747 
Q 3566 888 3137 398 
Q 2709 -91 1959 -91 
Q 1206 -91 779 398 
Q 353 888 353 1747 
Q 353 2609 779 3096 
Q 1206 3584 1959 3584 
z
" transform="scale(0.015625)"/>
       <path id="DejaVuSans-67" d="M 2906 1791 
Q 2906 2416 2648 2759 
Q 2391 3103 1925 3103 
Q 1463 3103 1205 2759 
Q 947 2416 947 1791 
Q 947 1169 1205 825 
Q 1463 481 1925 481 
Q 2391 481 2648 825 
Q 2906 1169 2906 1791 
z
M 3481 434 
Q 3481 -459 3084 -895 
Q 2688 -1331 1869 -1331 
Q 1566 -1331 1297 -1286 
Q 1028 -1241 775 -1147 
L 775 -588 
Q 1028 -725 1275 -790 
Q 1522 -856 1778 -856 
Q 2344 -856 2625 -561 
Q 2906 -266 2906 331 
L 2906 616 
Q 2728 306 2450 153 
Q 2172 0 1784 0 
Q 1141 0 747 490 
Q 353 981 353 1791 
Q 353 2603 747 3093 
Q 1141 3584 1784 3584 
Q 2172 3584 2450 3431 
Q 2728 3278 2906 2969 
L 2906 3500 
L 3481 3500 
L 3481 434 
z
" transform="scale(0.015625)"/>
       <path id="DejaVuSans-31" d="M 794 531 
L 1825 531 
L 1825 4091 
L 703 3866 
L 703 4441 
L 1819 4666 
L 2450 4666 
L 2450 531 
L 3481 531 
L 3481 0 
L 794 0 
L 794 531 
z
" transform="scale(0.015625)"/>
       <path id="DejaVuSans-28" d="M 1984 4856 
Q 1566 4138 1362 3434 
Q 1159 2731 1159 2009 
Q 1159 1288 1364 580 
Q 1569 -128 1984 -844 
L 1484 -844 
Q 1016 -109 783 600 
Q 550 1309 550 2009 
Q 550 2706 781 3412 
Q 1013 4119 1484 4856 
L 1984 4856 
z
" transform="scale(0.015625)"/>
       <path id="DejaVuSans-23" d="M 3272 2816 
L 2363 2816 
L 2100 1772 
L 3016 1772 
L 3272 2816 
z
M 2803 4594 
L 2478 3297 
L 3391 3297 
L 3719 4594 
L 4219 4594 
L 3897 3297 
L 4872 3297 
L 4872 2816 
L 3775 2816 
L 3519 1772 
L 4513 1772 
L 4513 1294 
L 3397 1294 
L 3072 0 
L 2572 0 
L 2894 1294 
L 1978 1294 
L 1656 0 
L 1153 0 
L 1478 1294 
L 494 1294 
L 494 1772 
L 1594 1772 
L 1856 2816 
L 850 2816 
L 850 3297 
L 1978 3297 
L 2297 4594 
L 2803 4594 
z
" transform="scale(0.015625)"/>
       <path id="DejaVuSans-20" transform="scale(0.015625)"/>
       <path id="DejaVuSans-66" d="M 2375 4863 
L 2375 4384 
L 1825 4384 
Q 1516 4384 1395 4259 
Q 1275 4134 1275 3809 
L 1275 3500 
L 2222 3500 
L 2222 3053 
L 1275 3053 
L 1275 0 
L 697 0 
L 697 3053 
L 147 3053 
L 147 3500 
L 697 3500 
L 697 3744 
Q 697 4328 969 4595 
Q 1241 4863 1831 4863 
L 2375 4863 
z
" transform="scale(0.015625)"/>
       <path id="DejaVuSans-2d" d="M 313 2009 
L 1997 2009 
L 1997 1497 
L 313 1497 
L 313 2009 
z
" transform="scale(0.015625)"/>
       <path id="DejaVuSans-65" d="M 3597 1894 
L 3597 1613 
L 953 1613 
Q 991 1019 1311 708 
Q 1631 397 2203 397 
Q 2534 397 2845 478 
Q 3156 559 3463 722 
L 3463 178 
Q 3153 47 2828 -22 
Q 2503 -91 2169 -91 
Q 1331 -91 842 396 
Q 353 884 353 1716 
Q 353 2575 817 3079 
Q 1281 3584 2069 3584 
Q 2775 3584 3186 3129 
Q 3597 2675 3597 1894 
z
M 3022 2063 
Q 3016 2534 2758 2815 
Q 2500 3097 2075 3097 
Q 1594 3097 1305 2825 
Q 1016 2553 972 2059 
L 3022 2063 
z
" transform="scale(0.015625)"/>
       <path id="DejaVuSans-76" d="M 191 3500 
L 800 3500 
L 1894 563 
L 2988 3500 
L 3597 3500 
L 2284 0 
L 1503 0 
L 191 3500 
z
" transform="scale(0.015625)"/>
       <path id="DejaVuSans-61" d="M 2194 1759 
Q 1497 1759 1228 1600 
Q 959 1441 959 1056 
Q 959 750 1161 570 
Q 1363 391 1709 391 
Q 2188 391 2477 730 
Q 2766 1069 2766 1631 
L 2766 1759 
L 2194 1759 
z
M 3341 1997 
L 3341 0 
L 2766 0 
L 2766 531 
Q 2569 213 2275 61 
Q 1981 -91 1556 -91 
Q 1019 -91 701 211 
Q 384 513 384 1019 
Q 384 1609 779 1909 
Q 1175 2209 1959 2209 
L 2766 2209 
L 2766 2266 
Q 2766 2663 2505 2880 
Q 2244 3097 1772 3097 
Q 1472 3097 1187 3025 
Q 903 2953 641 2809 
L 641 3341 
Q 956 3463 1253 3523 
Q 1550 3584 1831 3584 
Q 2591 3584 2966 3190 
Q 3341 2797 3341 1997 
z
" transform="scale(0.015625)"/>
       <path id="DejaVuSans-73" d="M 2834 3397 
L 2834 2853 
Q 2591 2978 2328 3040 
Q 2066 3103 1784 3103 
Q 1356 3103 1142 2972 
Q 928 2841 928 2578 
Q 928 2378 1081 2264 
Q 1234 2150 1697 2047 
L 1894 2003 
Q 2506 1872 2764 1633 
Q 3022 1394 3022 966 
Q 3022 478 2636 193 
Q 2250 -91 1575 -91 
Q 1294 -91 989 -36 
Q 684 19 347 128 
L 347 722 
Q 666 556 975 473 
Q 1284 391 1588 391 
Q 1994 391 2212 530 
Q 2431 669 2431 922 
Q 2431 1156 2273 1281 
Q 2116 1406 1581 1522 
L 1381 1569 
Q 847 1681 609 1914 
Q 372 2147 372 2553 
Q 372 3047 722 3315 
Q 1072 3584 1716 3584 
Q 2034 3584 2315 3537 
Q 2597 3491 2834 3397 
z
" transform="scale(0.015625)"/>
       <path id="DejaVuSans-2f" d="M 1625 4666 
L 2156 4666 
L 531 -594 
L 0 -594 
L 1625 4666 
z
" transform="scale(0.015625)"/>
       <path id="DejaVuSans-64" d="M 2906 2969 
L 2906 4863 
L 3481 4863 
L 3481 0 
L 2906 0 
L 2906 525 
Q 2725 213 2448 61 
Q 2172 -91 1784 -91 
Q 1150 -91 751 415 
Q 353 922 353 1747 
Q 353 2572 751 3078 
Q 1150 3584 1784 3584 
Q 2172 3584 2448 3432 
Q 2725 3281 2906 2969 
z
M 947 1747 
Q 947 1113 1208 752 
Q 1469 391 1925 391 
Q 2381 391 2643 752 
Q 2906 1113 2906 1747 
Q 2906 2381 2643 2742 
Q 2381 3103 1925 3103 
Q 1469 3103 1208 2742 
Q 947 2381 947 1747 
z
" transform="scale(0.015625)"/>
       <path id="DejaVuSans-69" d="M 603 3500 
L 1178 3500 
L 1178 0 
L 603 0 
L 603 3500 
z
M 603 4863 
L 1178 4863 
L 1178 4134 
L 603 4134 
L 603 4863 
z
" transform="scale(0.015625)"/>
       <path id="DejaVuSans-6d" d="M 3328 2828 
Q 3544 3216 3844 3400 
Q 4144 3584 4550 3584 
Q 5097 3584 5394 3201 
Q 5691 2819 5691 2113 
L 5691 0 
L 5113 0 
L 5113 2094 
Q 5113 2597 4934 2840 
Q 4756 3084 4391 3084 
Q 3944 3084 3684 2787 
Q 3425 2491 3425 1978 
L 3425 0 
L 2847 0 
L 2847 2094 
Q 2847 2600 2669 2842 
Q 2491 3084 2119 3084 
Q 1678 3084 1418 2786 
Q 1159 2488 1159 1978 
L 1159 0 
L 581 0 
L 581 3500 
L 1159 3500 
L 1159 2956 
Q 1356 3278 1631 3431 
Q 1906 3584 2284 3584 
Q 2666 3584 2933 3390 
Q 3200 3197 3328 2828 
z
" transform="scale(0.015625)"/>
       <path id="DejaVuSans-6e" d="M 3513 2113 
L 3513 0 
L 2938 0 
L 2938 2094 
Q 2938 2591 2744 2837 
Q 2550 3084 2163 3084 
Q 1697 3084 1428 2787 
Q 1159 2491 1159 1978 
L 1159 0 
L 581 0 
L 581 3500 
L 1159 3500 
L 1159 2956 
Q 1366 3272 1645 3428 
Q 1925 3584 2291 3584 
Q 2894 3584 3203 3211 
Q 3513 2838 3513 2113 
z
" transform="scale(0.015625)"/>
       <path id="DejaVuSans-29" d="M 513 4856 
L 1013 4856 
Q 1481 4119 1714 3412 
Q 1947 2706 1947 2009 
Q 1947 1309 1714 600 
Q 1481 -109 1013 -844 
L 513 -844 
Q 928 -128 1133 580 
Q 1338 1288 1338 2009 
Q 1338 2731 1133 3434 
Q 928 4138 513 4856 
z
" transform="scale(0.015625)"/>
      </defs>
      <use xlink:href="#DejaVuSans-6c"/>
      <use xlink:href="#DejaVuSans-6f" x="27.783203"/>
      <use xlink:href="#DejaVuSans-67" x="88.964844"/>
      <use xlink:href="#DejaVuSans-31" x="152.441406"/>
      <use xlink:href="#DejaVuSans-30" x="216.064453"/>
      <use xlink:href="#DejaVuSans-28" x="279.6875"/>
      <use xlink:href="#DejaVuSans-23" x="318.701172"/>
      <use xlink:href="#DejaVuSans-20" x="402.490234"/>
      <use xlink:href="#DejaVuSans-66" x="434.277344"/>
      <use xlink:href="#DejaVuSans-2d" x="463.982422"/>
      <use xlink:href="#DejaVuSans-65" x="500.066406"/>
      <use xlink:href="#DejaVuSans-76" x="561.589844"/>
      <use xlink:href="#DejaVuSans-61" x="620.769531"/>
      <use xlink:href="#DejaVuSans-6c" x="682.048828"/>
      <use xlink:href="#DejaVuSans-73" x="709.832031"/>
      <use xlink:href="#DejaVuSans-20" x="761.931641"/>
      <use xlink:href="#DejaVuSans-2f" x="793.71875"/>
      <use xlink:href="#DejaVuSans-20" x="827.410156"/>
      <use xlink:href="#DejaVuSans-64" x="859.197266"/>
      <use xlink:href="#DejaVuSans-69" x="922.673828"/>
      <use xlink:href="#DejaVuSans-6d" x="950.457031"/>
      <use xlink:href="#DejaVuSans-65" x="1047.869141"/>
      <use xlink:href="#DejaVuSans-6e" x="1109.392578"/>
      <use xlink:href="#DejaVuSans-73" x="1172.771484"/>
      <use xlink:href="#DejaVuSans-69" x="1224.871094"/>
      <use xlink:href="#DejaVuSans-6f" x="1252.654297"/>
      <use xlink:href="#DejaVuSans-6e" x="1313.835938"/>
      <use xlink:href="#DejaVuSans-29" x="1377.214844"/>
     </g>
    </g>
   </g>
   <g id="matplotlib.axis_2">
    <g id="ytick_1">
     <g id="line2d_21">
      <path d="M 57.6 298.944 
L 360.8064 298.944 
" clip-path="url(#pbdb0c302b9)" style="fill: none; stroke: #b0b0b0; stroke-width: 0.8; stroke-linecap: square"/>
     </g>
     <g id="line2d_22">
      <defs>
       <path id="m5a9e91a79a" d="M 0 0 
L -3.5 0 
" style="stroke: #000000; stroke-width: 0.8"/>
      </defs>
      <g>
       <use xlink:href="#m5a9e91a79a" x="57.6" y="298.944" style="stroke: #000000; stroke-width: 0.8"/>
      </g>
     </g>
     <g id="text_6">
      <!-- 0.0 -->
      <g transform="translate(25.155 305.02275) scale(0.16 -0.16)">
       <defs>
        <path id="DejaVuSans-2e" d="M 684 794 
L 1344 794 
L 1344 0 
L 684 0 
L 684 794 
z
" transform="scale(0.015625)"/>
       </defs>
       <use xlink:href="#DejaVuSans-30"/>
       <use xlink:href="#DejaVuSans-2e" x="63.623047"/>
       <use xlink:href="#DejaVuSans-30" x="95.410156"/>
      </g>
     </g>
    </g>
    <g id="ytick_2">
     <g id="line2d_23">
      <path d="M 57.6 240.5376 
L 360.8064 240.5376 
" clip-path="url(#pbdb0c302b9)" style="fill: none; stroke: #b0b0b0; stroke-width: 0.8; stroke-linecap: square"/>
     </g>
     <g id="line2d_24">
      <g>
       <use xlink:href="#m5a9e91a79a" x="57.6" y="240.5376" style="stroke: #000000; stroke-width: 0.8"/>
      </g>
     </g>
     <g id="text_7">
      <!-- 0.2 -->
      <g transform="translate(25.155 246.61635) scale(0.16 -0.16)">
       <use xlink:href="#DejaVuSans-30"/>
       <use xlink:href="#DejaVuSans-2e" x="63.623047"/>
       <use xlink:href="#DejaVuSans-32" x="95.410156"/>
      </g>
     </g>
    </g>
    <g id="ytick_3">
     <g id="line2d_25">
      <path d="M 57.6 182.1312 
L 360.8064 182.1312 
" clip-path="url(#pbdb0c302b9)" style="fill: none; stroke: #b0b0b0; stroke-width: 0.8; stroke-linecap: square"/>
     </g>
     <g id="line2d_26">
      <g>
       <use xlink:href="#m5a9e91a79a" x="57.6" y="182.1312" style="stroke: #000000; stroke-width: 0.8"/>
      </g>
     </g>
     <g id="text_8">
      <!-- 0.4 -->
      <g transform="translate(25.155 188.20995) scale(0.16 -0.16)">
       <use xlink:href="#DejaVuSans-30"/>
       <use xlink:href="#DejaVuSans-2e" x="63.623047"/>
       <use xlink:href="#DejaVuSans-34" x="95.410156"/>
      </g>
     </g>
    </g>
    <g id="ytick_4">
     <g id="line2d_27">
      <path d="M 57.6 123.7248 
L 360.8064 123.7248 
" clip-path="url(#pbdb0c302b9)" style="fill: none; stroke: #b0b0b0; stroke-width: 0.8; stroke-linecap: square"/>
     </g>
     <g id="line2d_28">
      <g>
       <use xlink:href="#m5a9e91a79a" x="57.6" y="123.7248" style="stroke: #000000; stroke-width: 0.8"/>
      </g>
     </g>
     <g id="text_9">
      <!-- 0.6 -->
      <g transform="translate(25.155 129.80355) scale(0.16 -0.16)">
       <use xlink:href="#DejaVuSans-30"/>
       <use xlink:href="#DejaVuSans-2e" x="63.623047"/>
       <use xlink:href="#DejaVuSans-36" x="95.410156"/>
      </g>
     </g>
    </g>
    <g id="ytick_5">
     <g id="line2d_29">
      <path d="M 57.6 65.3184 
L 360.8064 65.3184 
" clip-path="url(#pbdb0c302b9)" style="fill: none; stroke: #b0b0b0; stroke-width: 0.8; stroke-linecap: square"/>
     </g>
     <g id="line2d_30">
      <g>
       <use xlink:href="#m5a9e91a79a" x="57.6" y="65.3184" style="stroke: #000000; stroke-width: 0.8"/>
      </g>
     </g>
     <g id="text_10">
      <!-- 0.8 -->
      <g transform="translate(25.155 71.39715) scale(0.16 -0.16)">
       <defs>
        <path id="DejaVuSans-38" d="M 2034 2216 
Q 1584 2216 1326 1975 
Q 1069 1734 1069 1313 
Q 1069 891 1326 650 
Q 1584 409 2034 409 
Q 2484 409 2743 651 
Q 3003 894 3003 1313 
Q 3003 1734 2745 1975 
Q 2488 2216 2034 2216 
z
M 1403 2484 
Q 997 2584 770 2862 
Q 544 3141 544 3541 
Q 544 4100 942 4425 
Q 1341 4750 2034 4750 
Q 2731 4750 3128 4425 
Q 3525 4100 3525 3541 
Q 3525 3141 3298 2862 
Q 3072 2584 2669 2484 
Q 3125 2378 3379 2068 
Q 3634 1759 3634 1313 
Q 3634 634 3220 271 
Q 2806 -91 2034 -91 
Q 1263 -91 848 271 
Q 434 634 434 1313 
Q 434 1759 690 2068 
Q 947 2378 1403 2484 
z
M 1172 3481 
Q 1172 3119 1398 2916 
Q 1625 2713 2034 2713 
Q 2441 2713 2670 2916 
Q 2900 3119 2900 3481 
Q 2900 3844 2670 4047 
Q 2441 4250 2034 4250 
Q 1625 4250 1398 4047 
Q 1172 3844 1172 3481 
z
" transform="scale(0.015625)"/>
       </defs>
       <use xlink:href="#DejaVuSans-30"/>
       <use xlink:href="#DejaVuSans-2e" x="63.623047"/>
       <use xlink:href="#DejaVuSans-38" x="95.410156"/>
      </g>
     </g>
    </g>
    <g id="ytick_6">
     <g id="line2d_31">
      <path d="M 57.6 6.912 
L 360.8064 6.912 
" clip-path="url(#pbdb0c302b9)" style="fill: none; stroke: #b0b0b0; stroke-width: 0.8; stroke-linecap: square"/>
     </g>
     <g id="line2d_32">
      <g>
       <use xlink:href="#m5a9e91a79a" x="57.6" y="6.912" style="stroke: #000000; stroke-width: 0.8"/>
      </g>
     </g>
     <g id="text_11">
      <!-- 1.0 -->
      <g transform="translate(25.155 12.99075) scale(0.16 -0.16)">
       <use xlink:href="#DejaVuSans-31"/>
       <use xlink:href="#DejaVuSans-2e" x="63.623047"/>
       <use xlink:href="#DejaVuSans-30" x="95.410156"/>
      </g>
     </g>
    </g>
    <g id="text_12">
     <!-- Fraction of function,target pairs -->
     <g transform="translate(17.619531 287.313) rotate(-90) scale(0.17 -0.17)">
      <defs>
       <path id="DejaVuSans-46" d="M 628 4666 
L 3309 4666 
L 3309 4134 
L 1259 4134 
L 1259 2759 
L 3109 2759 
L 3109 2228 
L 1259 2228 
L 1259 0 
L 628 0 
L 628 4666 
z
" transform="scale(0.015625)"/>
       <path id="DejaVuSans-72" d="M 2631 2963 
Q 2534 3019 2420 3045 
Q 2306 3072 2169 3072 
Q 1681 3072 1420 2755 
Q 1159 2438 1159 1844 
L 1159 0 
L 581 0 
L 581 3500 
L 1159 3500 
L 1159 2956 
Q 1341 3275 1631 3429 
Q 1922 3584 2338 3584 
Q 2397 3584 2469 3576 
Q 2541 3569 2628 3553 
L 2631 2963 
z
" transform="scale(0.015625)"/>
       <path id="DejaVuSans-63" d="M 3122 3366 
L 3122 2828 
Q 2878 2963 2633 3030 
Q 2388 3097 2138 3097 
Q 1578 3097 1268 2742 
Q 959 2388 959 1747 
Q 959 1106 1268 751 
Q 1578 397 2138 397 
Q 2388 397 2633 464 
Q 2878 531 3122 666 
L 3122 134 
Q 2881 22 2623 -34 
Q 2366 -91 2075 -91 
Q 1284 -91 818 406 
Q 353 903 353 1747 
Q 353 2603 823 3093 
Q 1294 3584 2113 3584 
Q 2378 3584 2631 3529 
Q 2884 3475 3122 3366 
z
" transform="scale(0.015625)"/>
       <path id="DejaVuSans-74" d="M 1172 4494 
L 1172 3500 
L 2356 3500 
L 2356 3053 
L 1172 3053 
L 1172 1153 
Q 1172 725 1289 603 
Q 1406 481 1766 481 
L 2356 481 
L 2356 0 
L 1766 0 
Q 1100 0 847 248 
Q 594 497 594 1153 
L 594 3053 
L 172 3053 
L 172 3500 
L 594 3500 
L 594 4494 
L 1172 4494 
z
" transform="scale(0.015625)"/>
       <path id="DejaVuSans-75" d="M 544 1381 
L 544 3500 
L 1119 3500 
L 1119 1403 
Q 1119 906 1312 657 
Q 1506 409 1894 409 
Q 2359 409 2629 706 
Q 2900 1003 2900 1516 
L 2900 3500 
L 3475 3500 
L 3475 0 
L 2900 0 
L 2900 538 
Q 2691 219 2414 64 
Q 2138 -91 1772 -91 
Q 1169 -91 856 284 
Q 544 659 544 1381 
z
M 1991 3584 
L 1991 3584 
z
" transform="scale(0.015625)"/>
       <path id="DejaVuSans-2c" d="M 750 794 
L 1409 794 
L 1409 256 
L 897 -744 
L 494 -744 
L 750 256 
L 750 794 
z
" transform="scale(0.015625)"/>
       <path id="DejaVuSans-70" d="M 1159 525 
L 1159 -1331 
L 581 -1331 
L 581 3500 
L 1159 3500 
L 1159 2969 
Q 1341 3281 1617 3432 
Q 1894 3584 2278 3584 
Q 2916 3584 3314 3078 
Q 3713 2572 3713 1747 
Q 3713 922 3314 415 
Q 2916 -91 2278 -91 
Q 1894 -91 1617 61 
Q 1341 213 1159 525 
z
M 3116 1747 
Q 3116 2381 2855 2742 
Q 2594 3103 2138 3103 
Q 1681 3103 1420 2742 
Q 1159 2381 1159 1747 
Q 1159 1113 1420 752 
Q 1681 391 2138 391 
Q 2594 391 2855 752 
Q 3116 1113 3116 1747 
z
" transform="scale(0.015625)"/>
      </defs>
      <use xlink:href="#DejaVuSans-46"/>
      <use xlink:href="#DejaVuSans-72" x="50.269531"/>
      <use xlink:href="#DejaVuSans-61" x="91.382812"/>
      <use xlink:href="#DejaVuSans-63" x="152.662109"/>
      <use xlink:href="#DejaVuSans-74" x="207.642578"/>
      <use xlink:href="#DejaVuSans-69" x="246.851562"/>
      <use xlink:href="#DejaVuSans-6f" x="274.634766"/>
      <use xlink:href="#DejaVuSans-6e" x="335.816406"/>
      <use xlink:href="#DejaVuSans-20" x="399.195312"/>
      <use xlink:href="#DejaVuSans-6f" x="430.982422"/>
      <use xlink:href="#DejaVuSans-66" x="492.164062"/>
      <use xlink:href="#DejaVuSans-20" x="527.369141"/>
      <use xlink:href="#DejaVuSans-66" x="559.15625"/>
      <use xlink:href="#DejaVuSans-75" x="594.361328"/>
      <use xlink:href="#DejaVuSans-6e" x="657.740234"/>
      <use xlink:href="#DejaVuSans-63" x="721.119141"/>
      <use xlink:href="#DejaVuSans-74" x="776.099609"/>
      <use xlink:href="#DejaVuSans-69" x="815.308594"/>
      <use xlink:href="#DejaVuSans-6f" x="843.091797"/>
      <use xlink:href="#DejaVuSans-6e" x="904.273438"/>
      <use xlink:href="#DejaVuSans-2c" x="967.652344"/>
      <use xlink:href="#DejaVuSans-74" x="999.439453"/>
      <use xlink:href="#DejaVuSans-61" x="1038.648438"/>
      <use xlink:href="#DejaVuSans-72" x="1099.927734"/>
      <use xlink:href="#DejaVuSans-67" x="1139.291016"/>
      <use xlink:href="#DejaVuSans-65" x="1202.767578"/>
      <use xlink:href="#DejaVuSans-74" x="1264.291016"/>
      <use xlink:href="#DejaVuSans-20" x="1303.5"/>
      <use xlink:href="#DejaVuSans-70" x="1335.287109"/>
      <use xlink:href="#DejaVuSans-61" x="1398.763672"/>
      <use xlink:href="#DejaVuSans-69" x="1460.042969"/>
      <use xlink:href="#DejaVuSans-72" x="1487.826172"/>
      <use xlink:href="#DejaVuSans-73" x="1528.939453"/>
     </g>
    </g>
   </g>
   <g id="line2d_33">
    <defs>
     <path id="m145bdb9a00" d="M 0 1.5 
C 0.397805 1.5 0.77937 1.341951 1.06066 1.06066 
C 1.341951 0.77937 1.5 0.397805 1.5 0 
C 1.5 -0.397805 1.341951 -0.77937 1.06066 -1.06066 
C 0.77937 -1.341951 0.397805 -1.5 0 -1.5 
C -0.397805 -1.5 -0.77937 -1.341951 -1.06066 -1.06066 
C -1.341951 -0.77937 -1.5 -0.397805 -1.5 0 
C -1.5 0.397805 -1.341951 0.77937 -1.06066 1.06066 
C -0.77937 1.341951 -0.397805 1.5 0 1.5 
z
" style="stroke: #f5deb3"/>
    </defs>
    <g>
     <use xlink:href="#m145bdb9a00" x="139.240288" y="6.912" style="fill: #f5deb3; stroke: #f5deb3"/>
     <use xlink:href="#m145bdb9a00" x="139.240288" y="6.912" style="fill: #f5deb3; stroke: #f5deb3"/>
    </g>
   </g>
   <g id="line2d_34">
    <defs>
     <path id="m3cb7f79c8c" d="M 0 1.5 
C 0.397805 1.5 0.77937 1.341951 1.06066 1.06066 
C 1.341951 0.77937 1.5 0.397805 1.5 0 
C 1.5 -0.397805 1.341951 -0.77937 1.06066 -1.06066 
C 0.77937 -1.341951 0.397805 -1.5 0 -1.5 
C -0.397805 -1.5 -0.77937 -1.341951 -1.06066 -1.06066 
C -1.341951 -0.77937 -1.5 -0.397805 -1.5 0 
C -1.5 0.397805 -1.341951 0.77937 -1.06066 1.06066 
C -0.77937 1.341951 -0.397805 1.5 0 1.5 
z
" style="stroke: #000080"/>
    </defs>
    <g>
     <use xlink:href="#m3cb7f79c8c" x="177.213919" y="6.912" style="fill: #000080; stroke: #000080"/>
     <use xlink:href="#m3cb7f79c8c" x="177.213919" y="6.912" style="fill: #000080; stroke: #000080"/>
    </g>
   </g>
   <g id="line2d_35">
    <path d="M 14.2848 298.944 
L 14.2848 285.31584 
L 27.323974 285.31584 
L 27.323974 282.39552 
L 53.402323 282.39552 
L 53.402323 281.42208 
L 70.639174 281.42208 
L 70.639174 279.4752 
L 75.574654 279.4752 
L 75.574654 278.50176 
L 79.480672 278.50176 
L 79.480672 277.52832 
L 82.713442 277.52832 
L 82.713442 271.68768 
L 91.922605 271.68768 
L 91.922605 269.7408 
L 93.098709 269.7408 
L 93.098709 268.76736 
L 93.66029 268.76736 
L 93.66029 267.79392 
L 98.510456 267.79392 
L 98.510456 266.82048 
L 98.933205 266.82048 
L 98.933205 265.84704 
L 101.287718 265.84704 
L 101.287718 264.8736 
L 102.362957 264.8736 
L 102.362957 263.90016 
L 103.707211 263.90016 
L 103.707211 260.97984 
L 105.26277 260.97984 
L 105.26277 260.0064 
L 108.791791 260.0064 
L 108.791791 258.05952 
L 109.990385 258.05952 
L 109.990385 257.08608 
L 110.897141 257.08608 
L 110.897141 256.11264 
L 111.97238 256.11264 
L 111.97238 255.1392 
L 112.180244 255.1392 
L 112.180244 254.16576 
L 113.284172 254.16576 
L 113.284172 253.19232 
L 114.048198 253.19232 
L 114.048198 252.21888 
L 115.227139 252.21888 
L 115.227139 250.272 
L 117.067958 250.272 
L 117.067958 249.29856 
L 119.944983 249.29856 
L 119.944983 248.32512 
L 120.48442 248.32512 
L 120.48442 247.35168 
L 120.813877 247.35168 
L 120.813877 246.37824 
L 122.076872 246.37824 
L 122.076872 245.4048 
L 122.259215 245.4048 
L 122.319605 243.45792 
L 122.439807 243.45792 
L 122.439807 242.48448 
L 122.618682 242.48448 
L 122.618682 241.51104 
L 124.046648 241.51104 
L 124.046648 240.5376 
L 124.801367 240.5376 
L 124.801367 238.59072 
L 125.167667 238.59072 
L 125.167667 237.61728 
L 125.779479 237.61728 
L 125.829577 235.6704 
L 126.127391 235.6704 
L 126.127391 234.69696 
L 126.468985 234.69696 
L 126.468985 233.72352 
L 126.946461 233.72352 
L 126.993549 231.77664 
L 127.458055 231.77664 
L 127.549596 229.82976 
L 127.866525 229.82976 
L 127.911368 227.88288 
L 128.089678 227.88288 
L 128.089678 226.90944 
L 129.125437 226.90944 
L 129.167381 224.96256 
L 129.7043 224.96256 
L 129.78556 223.01568 
L 129.86647 223.01568 
L 129.947033 220.09536 
L 130.186674 220.09536 
L 130.186674 219.12192 
L 130.384069 219.12192 
L 130.46245 217.17504 
L 130.656987 217.17504 
L 130.656987 216.2016 
L 130.811181 216.2016 
L 130.811181 215.22816 
L 130.926003 215.22816 
L 131.002163 212.30784 
L 131.526822 212.30784 
L 131.526822 211.3344 
L 132.073179 211.3344 
L 132.073179 210.36096 
L 132.251827 210.36096 
L 132.251827 209.38752 
L 132.46399 209.38752 
L 132.46399 208.41408 
L 133.853052 208.41408 
L 133.950775 204.52032 
L 134.272898 204.52032 
L 134.336666 202.57344 
L 134.431915 202.57344 
L 134.526683 199.65312 
L 134.808158 199.65312 
L 134.808158 198.67968 
L 135.717106 198.67968 
L 135.717106 197.70624 
L 136.126705 197.70624 
L 136.126705 196.7328 
L 136.413909 196.7328 
L 136.413909 195.75936 
L 136.864507 195.75936 
L 136.864507 194.78592 
L 137.003134 194.78592 
L 137.003134 193.81248 
L 137.168148 193.81248 
L 137.250116 190.89216 
L 137.439996 190.89216 
L 137.520791 188.94528 
L 137.654681 188.94528 
L 137.654681 187.97184 
L 138.050729 187.97184 
L 138.128947 185.05152 
L 138.36167 185.05152 
L 138.387352 183.10464 
L 138.616919 183.10464 
L 138.616919 182.1312 
L 138.918715 182.1312 
L 139.018248 180.18432 
L 139.386872 180.18432 
L 139.459738 175.31712 
L 139.556456 175.31712 
L 139.556456 174.34368 
L 139.676658 174.34368 
L 139.676658 173.37024 
L 139.985636 173.37024 
L 139.985636 172.3968 
L 140.103135 172.3968 
L 140.103135 170.44992 
L 140.928134 170.44992 
L 140.928134 169.47648 
L 141.371301 169.47648 
L 141.371301 168.50304 
L 142.122575 168.50304 
L 142.122575 167.5296 
L 142.331827 167.5296 
L 142.331827 166.55616 
L 142.885449 166.55616 
L 142.885449 165.58272 
L 143.10641 165.58272 
L 143.126369 163.63584 
L 143.225848 163.63584 
L 143.225848 162.6624 
L 143.344534 162.6624 
L 143.344534 161.68896 
L 143.501625 161.68896 
L 143.521169 159.74208 
L 144.003296 159.74208 
L 144.003296 158.76864 
L 145.058426 158.76864 
L 145.058426 157.7952 
L 145.219746 157.7952 
L 145.326529 154.87488 
L 145.432709 154.87488 
L 145.432709 153.90144 
L 145.851536 153.90144 
L 145.886021 151.95456 
L 146.006223 151.95456 
L 146.091614 148.0608 
L 146.328666 148.0608 
L 146.328666 147.08736 
L 146.645676 147.08736 
L 146.645676 146.11392 
L 147.375841 146.11392 
L 147.471089 144.16704 
L 147.502732 144.16704 
L 147.597342 142.22016 
L 147.816265 142.22016 
L 147.893838 139.29984 
L 148.124658 139.29984 
L 148.124658 138.3264 
L 148.503173 138.3264 
L 148.503173 137.35296 
L 148.741485 137.35296 
L 148.83008 135.40608 
L 150.028491 135.40608 
L 150.056115 133.4592 
L 150.411576 133.4592 
L 150.411576 132.48576 
L 150.600232 132.48576 
L 150.600232 131.51232 
L 150.813548 131.51232 
L 150.813548 130.53888 
L 151.011358 130.53888 
L 151.011358 129.56544 
L 151.142085 129.56544 
L 151.142085 128.592 
L 151.362257 128.592 
L 151.362257 127.61856 
L 151.56715 127.61856 
L 151.579882 125.67168 
L 151.782431 125.67168 
L 151.782431 124.69824 
L 151.95789 124.69824 
L 151.97036 122.75136 
L 152.316216 122.75136 
L 152.365109 120.80448 
L 152.727811 120.80448 
L 152.775647 118.8576 
L 153.212458 118.8576 
L 153.212458 117.88416 
L 153.570784 117.88416 
L 153.639356 114.96384 
L 154.322673 114.96384 
L 154.410475 113.01696 
L 154.541415 113.01696 
L 154.541415 112.04352 
L 154.671449 112.04352 
L 154.779128 109.1232 
L 155.013876 109.1232 
L 155.098517 107.17632 
L 155.24573 107.17632 
L 155.350181 104.256 
L 155.464411 104.256 
L 155.464411 103.28256 
L 155.629335 103.28256 
L 155.629335 102.30912 
L 155.741887 102.30912 
L 155.741887 101.33568 
L 156.015331 101.33568 
L 156.115606 97.44192 
L 156.215349 97.44192 
L 156.215349 96.46848 
L 156.373846 96.46848 
L 156.43294 94.5216 
L 156.599372 94.5216 
L 156.696589 92.57472 
L 157.108993 92.57472 
L 157.156365 89.6544 
L 157.30716 89.6544 
L 157.30716 88.68096 
L 157.69734 88.68096 
L 157.807349 85.76064 
L 157.834751 85.76064 
L 157.898535 83.81376 
L 158.052543 83.81376 
L 158.052543 82.84032 
L 158.25892 82.84032 
L 158.330176 80.89344 
L 158.471883 80.89344 
L 158.471883 79.92 
L 159.079601 79.92 
L 159.079601 78.94656 
L 159.50197 78.94656 
L 159.54369 76.99968 
L 159.643442 76.99968 
L 159.643442 76.02624 
L 159.857774 76.02624 
L 159.865969 74.07936 
L 160.18282 74.07936 
L 160.18282 73.10592 
L 160.557708 73.10592 
L 160.667947 70.1856 
L 160.793149 70.1856 
L 160.793149 69.21216 
L 161.17912 69.21216 
L 161.240147 67.26528 
L 161.406958 67.26528 
L 161.406958 66.29184 
L 161.706511 66.29184 
L 161.78066 64.34496 
L 162.023298 64.34496 
L 162.088932 62.39808 
L 162.327652 62.39808 
L 162.327652 61.42464 
L 162.549177 61.42464 
L 162.62716 57.53088 
L 162.718906 57.53088 
L 162.789177 54.61056 
L 163.129762 54.61056 
L 163.129762 53.63712 
L 163.443978 53.63712 
L 163.471055 51.69024 
L 163.578974 51.69024 
L 163.578974 50.7168 
L 163.726358 50.7168 
L 163.746367 48.76992 
L 164.011136 48.76992 
L 164.043972 46.82304 
L 164.285191 46.82304 
L 164.311084 44.87616 
L 164.407868 44.87616 
L 164.407868 43.90272 
L 165.021997 43.90272 
L 165.090391 41.95584 
L 165.459136 41.95584 
L 165.562313 40.00896 
L 165.688991 40.00896 
L 165.760997 38.06208 
L 165.92201 38.06208 
L 165.92201 37.08864 
L 166.093428 37.08864 
L 166.187339 35.14176 
L 166.239959 35.14176 
L 166.315707 32.22144 
L 166.431649 32.22144 
L 166.431649 31.248 
L 166.848875 31.248 
L 166.848875 30.27456 
L 167.006483 30.27456 
L 167.028891 28.32768 
L 167.157222 28.32768 
L 167.157222 27.35424 
L 167.44965 27.35424 
L 167.471536 25.40736 
L 167.569712 25.40736 
L 167.569712 24.43392 
L 167.775305 24.43392 
L 167.775305 23.46048 
L 168.363297 23.46048 
L 168.363297 22.48704 
L 168.740211 22.48704 
L 168.740211 21.5136 
L 168.91828 21.5136 
L 169.009206 18.59328 
L 169.204718 18.59328 
L 169.214689 16.6464 
L 169.696937 16.6464 
L 169.696937 15.67296 
L 169.904695 15.67296 
L 169.904695 14.69952 
L 170.602722 14.69952 
L 170.602722 13.72608 
L 171.581513 13.72608 
L 171.581513 12.75264 
L 172.254968 12.75264 
L 172.254968 11.7792 
L 172.385971 11.7792 
L 172.465815 9.83232 
L 173.145303 9.83232 
L 173.145303 8.85888 
L 175.348847 8.85888 
L 175.348847 7.88544 
L 177.213919 7.88544 
L 177.213919 6.912 
L 360.8064 6.912 
L 360.8064 6.912 
" style="fill: none; stroke: #000080; stroke-width: 1.5; stroke-linecap: square"/>
   </g>
   <g id="line2d_36">
    <defs>
     <path id="m839cc02468" d="M 0 6 
C 1.591219 6 3.117479 5.367802 4.242641 4.242641 
C 5.367802 3.117479 6 1.591219 6 0 
C 6 -1.591219 5.367802 -3.117479 4.242641 -4.242641 
C 3.117479 -5.367802 1.591219 -6 0 -6 
C -1.591219 -6 -3.117479 -5.367802 -4.242641 -4.242641 
C -5.367802 -3.117479 -6 -1.591219 -6 0 
C -6 1.591219 -5.367802 3.117479 -4.242641 4.242641 
C -3.117479 5.367802 -1.591219 6 0 6 
z
" style="stroke: #000080; stroke-width: 1.5"/>
    </defs>
    <g>
     <use xlink:href="#m839cc02468" x="127.911368" y="228.85632" style="fill-opacity: 0; stroke: #000080; stroke-width: 1.5"/>
     <use xlink:href="#m839cc02468" x="162.023298" y="64.34496" style="fill-opacity: 0; stroke: #000080; stroke-width: 1.5"/>
     <use xlink:href="#m839cc02468" x="177.213919" y="7.88544" style="fill-opacity: 0; stroke: #000080; stroke-width: 1.5"/>
     <use xlink:href="#m839cc02468" x="177.213919" y="6.912" style="fill-opacity: 0; stroke: #000080; stroke-width: 1.5"/>
     <use xlink:href="#m839cc02468" x="177.213919" y="6.912" style="fill-opacity: 0; stroke: #000080; stroke-width: 1.5"/>
     <use xlink:href="#m839cc02468" x="360.8064" y="6.912" style="fill-opacity: 0; stroke: #000080; stroke-width: 1.5"/>
    </g>
   </g>
   <g id="line2d_37">
    <path style="fill: none; stroke: #000080; stroke-width: 1.5; stroke-linecap: square"/>
    <g/>
   </g>
   <g id="line2d_38">
    <defs>
     <path id="m8d1eb8d185" d="M 0 1.5 
C 0.397805 1.5 0.77937 1.341951 1.06066 1.06066 
C 1.341951 0.77937 1.5 0.397805 1.5 0 
C 1.5 -0.397805 1.341951 -0.77937 1.06066 -1.06066 
C 0.77937 -1.341951 0.397805 -1.5 0 -1.5 
C -0.397805 -1.5 -0.77937 -1.341951 -1.06066 -1.06066 
C -1.341951 -0.77937 -1.5 -0.397805 -1.5 0 
C -1.5 0.397805 -1.341951 0.77937 -1.06066 1.06066 
C -0.77937 1.341951 -0.397805 1.5 0 1.5 
z
" style="stroke: #ff00ff"/>
    </defs>
    <g>
     <use xlink:href="#m8d1eb8d185" x="190.896806" y="6.912" style="fill: #ff00ff; stroke: #ff00ff"/>
     <use xlink:href="#m8d1eb8d185" x="190.896806" y="6.912" style="fill: #ff00ff; stroke: #ff00ff"/>
    </g>
   </g>
   <g id="line2d_39">
    <path d="M 14.2848 298.944 
L 14.2848 285.31584 
L 50.890391 285.31584 
L 50.890391 284.3424 
L 61.029752 284.3424 
L 61.029752 282.39552 
L 72.432107 282.39552 
L 72.432107 280.44864 
L 76.284608 280.44864 
L 76.284608 277.52832 
L 79.480672 277.52832 
L 79.480672 274.608 
L 84.596168 274.608 
L 84.596168 273.63456 
L 88.613828 273.63456 
L 88.613828 272.66112 
L 90.007914 272.66112 
L 90.007914 271.68768 
L 91.305777 271.68768 
L 91.305777 270.71424 
L 93.098709 270.71424 
L 93.098709 269.7408 
L 95.752617 269.7408 
L 95.752617 267.79392 
L 98.510456 267.79392 
L 98.510456 266.82048 
L 100.535156 266.82048 
L 100.535156 265.84704 
L 103.707211 265.84704 
L 103.707211 264.8736 
L 107.643612 264.8736 
L 107.643612 263.90016 
L 108.791791 263.90016 
L 108.791791 262.92672 
L 108.915146 262.92672 
L 108.915146 261.95328 
L 109.873904 261.95328 
L 109.873904 260.97984 
L 109.990385 260.97984 
L 109.990385 260.0064 
L 111.007473 260.0064 
L 111.007473 259.03296 
L 112.385837 259.03296 
L 112.385837 258.05952 
L 113.670063 258.05952 
L 113.670063 257.08608 
L 115.402131 257.08608 
L 115.402131 256.11264 
L 116.253478 256.11264 
L 116.253478 255.1392 
L 116.665126 255.1392 
L 116.746385 253.19232 
L 119.034004 253.19232 
L 119.034004 251.24544 
L 119.669351 251.24544 
L 119.738639 249.29856 
L 121.008818 249.29856 
L 121.073351 247.35168 
L 121.201758 247.35168 
L 121.201758 246.37824 
L 122.795872 246.37824 
L 122.795872 245.4048 
L 123.202939 245.4048 
L 123.202939 244.43136 
L 124.427792 244.43136 
L 124.427792 243.45792 
L 124.801367 243.45792 
L 124.906754 241.51104 
L 124.959227 241.51104 
L 124.959227 240.5376 
L 125.879541 240.5376 
L 125.879541 239.56416 
L 127.087372 239.56416 
L 127.087372 238.59072 
L 127.319904 238.59072 
L 127.319904 237.61728 
L 127.731351 237.61728 
L 127.731351 236.64384 
L 129.209231 236.64384 
L 129.292652 233.72352 
L 130.107132 233.72352 
L 130.107132 232.75008 
L 130.501519 232.75008 
L 130.501519 231.77664 
L 130.695654 231.77664 
L 130.695654 230.8032 
L 131.41562 230.8032 
L 131.41562 229.82976 
L 131.892817 229.82976 
L 131.892817 228.85632 
L 132.073179 228.85632 
L 132.180571 226.90944 
L 132.393534 226.90944 
L 132.46399 224.96256 
L 132.881269 224.96256 
L 132.881269 223.98912 
L 133.423621 223.98912 
L 133.423621 223.01568 
L 133.623039 223.01568 
L 133.689044 221.0688 
L 134.047992 221.0688 
L 134.047992 220.09536 
L 134.176839 220.09536 
L 134.176839 219.12192 
L 134.336666 219.12192 
L 134.336666 218.14848 
L 134.495147 218.14848 
L 134.495147 217.17504 
L 135.568632 217.17504 
L 135.568632 216.2016 
L 135.717106 216.2016 
L 135.805631 214.25472 
L 136.126705 214.25472 
L 136.126705 213.28128 
L 136.328207 213.28128 
L 136.328207 212.30784 
L 136.752866 212.30784 
L 136.752866 211.3344 
L 136.892314 211.3344 
L 136.892314 210.36096 
L 137.222833 210.36096 
L 137.250116 207.44064 
L 137.814102 207.44064 
L 137.814102 206.4672 
L 138.206842 206.4672 
L 138.206842 205.49376 
L 138.818654 205.49376 
L 138.89375 203.54688 
L 139.067817 203.54688 
L 139.067817 202.57344 
L 139.386872 202.57344 
L 139.411192 200.62656 
L 139.93843 200.62656 
L 140.032723 198.67968 
L 140.219905 198.67968 
L 140.219905 197.70624 
L 141.761416 197.70624 
L 141.804267 195.75936 
L 141.974701 195.75936 
L 141.974701 194.78592 
L 142.269295 194.78592 
L 142.331827 191.8656 
L 142.885449 191.8656 
L 142.885449 190.89216 
L 143.086429 190.89216 
L 143.086429 189.91872 
L 143.657415 189.91872 
L 143.657415 188.94528 
L 143.83115 188.94528 
L 143.83115 187.97184 
L 144.267986 187.97184 
L 144.342932 186.02496 
L 145.166126 186.02496 
L 145.166126 185.05152 
L 145.361989 185.05152 
L 145.361989 184.07808 
L 145.7477 184.07808 
L 145.7477 183.10464 
L 146.006223 183.10464 
L 146.006223 182.1312 
L 146.125662 182.1312 
L 146.125662 181.15776 
L 146.512849 181.15776 
L 146.512849 180.18432 
L 146.859539 180.18432 
L 146.859539 179.21088 
L 147.087167 179.21088 
L 147.087167 178.23744 
L 147.232057 178.23744 
L 147.328035 176.29056 
L 147.391749 176.29056 
L 147.391749 175.31712 
L 148.094045 175.31712 
L 148.094045 174.34368 
L 148.563035 174.34368 
L 148.667336 171.42336 
L 148.947561 171.42336 
L 148.947561 170.44992 
L 149.750003 170.44992 
L 149.750003 169.47648 
L 149.931489 169.47648 
L 149.931489 168.50304 
L 150.519611 168.50304 
L 150.519611 167.5296 
L 151.024471 167.5296 
L 151.024471 166.55616 
L 151.233056 166.55616 
L 151.233056 165.58272 
L 152.303973 165.58272 
L 152.340678 163.63584 
L 152.727811 163.63584 
L 152.727811 161.68896 
L 153.071898 161.68896 
L 153.071898 160.71552 
L 153.293969 160.71552 
L 153.293969 159.74208 
L 153.570784 159.74208 
L 153.639356 156.82176 
L 153.730398 156.82176 
L 153.730398 154.87488 
L 153.854866 154.87488 
L 153.854866 153.90144 
L 154.628204 153.90144 
L 154.628204 152.928 
L 154.907535 152.928 
L 154.907535 151.95456 
L 155.024477 151.95456 
L 155.024477 150.98112 
L 155.485105 150.98112 
L 155.485105 150.00768 
L 156.095593 150.00768 
L 156.095593 149.03424 
L 156.423104 149.03424 
L 156.423104 148.0608 
L 156.677186 148.0608 
L 156.725657 145.14048 
L 156.8511 145.14048 
L 156.8511 144.16704 
L 157.623641 144.16704 
L 157.623641 143.1936 
L 158.25892 143.1936 
L 158.25892 142.22016 
L 158.542339 142.22016 
L 158.638786 140.27328 
L 158.804221 140.27328 
L 158.804221 139.29984 
L 159.535354 139.29984 
L 159.535354 138.3264 
L 159.996606 138.3264 
L 159.996606 137.35296 
L 160.541906 137.35296 
L 160.541906 136.37952 
L 160.722826 136.37952 
L 160.722826 135.40608 
L 160.956223 135.40608 
L 160.956223 134.43264 
L 161.17912 134.43264 
L 161.202028 132.48576 
L 161.414505 132.48576 
L 161.444664 130.53888 
L 161.69908 130.53888 
L 161.69908 129.56544 
L 161.869254 129.56544 
L 161.928087 126.64512 
L 162.413713 126.64512 
L 162.413713 125.67168 
L 162.859187 125.67168 
L 162.880139 123.7248 
L 162.984551 123.7248 
L 162.984551 122.75136 
L 163.22595 122.75136 
L 163.22595 121.77792 
L 163.484578 121.77792 
L 163.484578 120.80448 
L 163.65281 120.80448 
L 163.65281 119.83104 
L 164.129077 119.83104 
L 164.135608 117.88416 
L 164.440019 117.88416 
L 164.440019 116.91072 
L 164.922068 116.91072 
L 164.922068 115.93728 
L 165.367626 115.93728 
L 165.367626 114.96384 
L 165.880398 114.96384 
L 165.880398 113.9904 
L 166.169767 113.9904 
L 166.269129 112.04352 
L 166.350564 112.04352 
L 166.350564 111.07008 
L 166.661411 111.07008 
L 166.718416 109.1232 
L 166.984048 109.1232 
L 167.079212 105.22944 
L 167.383837 105.22944 
L 167.438697 103.28256 
L 167.509777 103.28256 
L 167.558829 101.33568 
L 167.989318 101.33568 
L 168.058351 99.3888 
L 168.15352 99.3888 
L 168.242961 96.46848 
L 168.3163 96.46848 
L 168.410176 94.5216 
L 168.550116 94.5216 
L 168.550116 93.54816 
L 169.099695 93.54816 
L 169.104709 91.60128 
L 169.299236 91.60128 
L 169.299236 90.62784 
L 169.638546 90.62784 
L 169.638546 89.6544 
L 169.798687 89.6544 
L 169.798687 88.68096 
L 169.9383 88.68096 
L 169.952684 85.76064 
L 170.332249 85.76064 
L 170.402572 82.84032 
L 170.579558 82.84032 
L 170.602722 80.89344 
L 170.924059 80.89344 
L 170.96952 78.94656 
L 171.24 78.94656 
L 171.24 77.97312 
L 171.440338 77.97312 
L 171.541914 76.02624 
L 171.765213 76.02624 
L 171.765213 75.0528 
L 172.054594 75.0528 
L 172.054594 74.07936 
L 172.297327 74.07936 
L 172.297327 73.10592 
L 172.732295 73.10592 
L 172.732295 72.13248 
L 173.746337 72.13248 
L 173.797195 70.1856 
L 173.910154 70.1856 
L 173.910154 69.21216 
L 174.187707 69.21216 
L 174.279322 67.26528 
L 174.324962 67.26528 
L 174.324962 66.29184 
L 174.457452 66.29184 
L 174.457452 65.3184 
L 174.59276 65.3184 
L 174.59276 64.34496 
L 174.708501 64.34496 
L 174.801324 61.42464 
L 175.033228 61.42464 
L 175.033228 60.4512 
L 175.334451 60.4512 
L 175.345249 58.50432 
L 175.467193 58.50432 
L 175.467193 57.53088 
L 176.247984 57.53088 
L 176.282249 54.61056 
L 176.567638 54.61056 
L 176.567638 53.63712 
L 176.951458 53.63712 
L 176.951458 52.66368 
L 177.395487 52.66368 
L 177.401939 50.7168 
L 177.533725 50.7168 
L 177.623197 47.79648 
L 177.658231 47.79648 
L 177.683669 45.8496 
L 177.804033 45.8496 
L 177.848184 43.90272 
L 178.247119 43.90272 
L 178.247119 42.92928 
L 178.619637 42.92928 
L 178.619637 41.95584 
L 179.229441 41.95584 
L 179.229441 40.9824 
L 179.41584 40.9824 
L 179.41584 40.00896 
L 179.950124 40.00896 
L 180.054064 37.08864 
L 180.107216 37.08864 
L 180.107216 36.1152 
L 180.439486 36.1152 
L 180.510711 34.16832 
L 180.619764 34.16832 
L 180.679474 32.22144 
L 180.822549 32.22144 
L 180.822549 31.248 
L 181.599615 31.248 
L 181.599615 30.27456 
L 181.712814 30.27456 
L 181.797269 27.35424 
L 182.0509 27.35424 
L 182.076076 25.40736 
L 182.491612 25.40736 
L 182.491612 24.43392 
L 182.665533 24.43392 
L 182.765239 22.48704 
L 183.30555 22.48704 
L 183.333809 20.54016 
L 183.462793 20.54016 
L 183.52113 18.59328 
L 183.794068 18.59328 
L 183.894836 16.6464 
L 184.130892 16.6464 
L 184.130892 14.69952 
L 184.633869 14.69952 
L 184.633869 13.72608 
L 185.917672 13.72608 
L 185.917672 12.75264 
L 186.064781 12.75264 
L 186.064781 11.7792 
L 186.94156 11.7792 
L 186.94156 10.80576 
L 187.063544 10.80576 
L 187.063544 9.83232 
L 187.234533 9.83232 
L 187.324207 7.88544 
L 190.896806 7.88544 
L 190.896806 6.912 
L 360.8064 6.912 
L 360.8064 6.912 
" style="fill: none; stroke: #ff00ff; stroke-width: 1.5; stroke-linecap: square"/>
   </g>
   <g id="line2d_40">
    <defs>
     <path id="m58f5fff02b" d="M -0 8.485281 
L 5.091169 0 
L 0 -8.485281 
L -5.091169 -0 
z
" style="stroke: #ff00ff; stroke-width: 1.5; stroke-linejoin: miter"/>
    </defs>
    <g>
     <use xlink:href="#m58f5fff02b" x="61.029752" y="282.39552" style="fill-opacity: 0; stroke: #ff00ff; stroke-width: 1.5; stroke-linejoin: miter"/>
     <use xlink:href="#m58f5fff02b" x="141.974701" y="195.75936" style="fill-opacity: 0; stroke: #ff00ff; stroke-width: 1.5; stroke-linejoin: miter"/>
     <use xlink:href="#m58f5fff02b" x="170.402572" y="83.81376" style="fill-opacity: 0; stroke: #ff00ff; stroke-width: 1.5; stroke-linejoin: miter"/>
     <use xlink:href="#m58f5fff02b" x="190.896806" y="7.88544" style="fill-opacity: 0; stroke: #ff00ff; stroke-width: 1.5; stroke-linejoin: miter"/>
     <use xlink:href="#m58f5fff02b" x="190.896806" y="6.912" style="fill-opacity: 0; stroke: #ff00ff; stroke-width: 1.5; stroke-linejoin: miter"/>
     <use xlink:href="#m58f5fff02b" x="360.8064" y="6.912" style="fill-opacity: 0; stroke: #ff00ff; stroke-width: 1.5; stroke-linejoin: miter"/>
    </g>
   </g>
   <g id="line2d_41">
    <path style="fill: none; stroke: #ff00ff; stroke-width: 1.5; stroke-linecap: square"/>
    <g/>
   </g>
   <g id="line2d_42">
    <defs>
     <path id="m4424f78613" d="M 0 1.5 
C 0.397805 1.5 0.77937 1.341951 1.06066 1.06066 
C 1.341951 0.77937 1.5 0.397805 1.5 0 
C 1.5 -0.397805 1.341951 -0.77937 1.06066 -1.06066 
C 0.77937 -1.341951 0.397805 -1.5 0 -1.5 
C -0.397805 -1.5 -0.77937 -1.341951 -1.06066 -1.06066 
C -1.341951 -0.77937 -1.5 -0.397805 -1.5 0 
C -1.5 0.397805 -1.341951 0.77937 -1.06066 1.06066 
C -0.77937 1.341951 -0.397805 1.5 0 1.5 
z
" style="stroke: #ff7500"/>
    </defs>
    <g>
     <use xlink:href="#m4424f78613" x="177.841883" y="6.912" style="fill: #ff7500; stroke: #ff7500"/>
     <use xlink:href="#m4424f78613" x="177.841883" y="6.912" style="fill: #ff7500; stroke: #ff7500"/>
    </g>
   </g>
   <g id="line2d_43">
    <path d="M 14.2848 298.944 
L 14.2848 285.31584 
L 27.323974 285.31584 
L 27.323974 284.3424 
L 34.951403 284.3424 
L 34.951403 282.39552 
L 55.618005 282.39552 
L 55.618005 281.42208 
L 72.432107 281.42208 
L 72.432107 279.4752 
L 80.059535 279.4752 
L 80.059535 278.50176 
L 85.471281 278.50176 
L 85.471281 277.52832 
L 98.510456 277.52832 
L 98.510456 276.55488 
L 98.723018 276.55488 
L 98.723018 275.58144 
L 100.726138 275.58144 
L 100.726138 274.608 
L 101.833019 274.608 
L 101.833019 273.63456 
L 102.708132 273.63456 
L 102.708132 272.66112 
L 104.501065 272.66112 
L 104.501065 271.68768 
L 105.705415 271.68768 
L 105.705415 270.71424 
L 106.137884 270.71424 
L 106.137884 268.76736 
L 106.699465 268.76736 
L 106.699465 267.79392 
L 107.904887 267.79392 
L 107.904887 265.84704 
L 110.335561 265.84704 
L 110.335561 264.8736 
L 111.54963 264.8736 
L 111.54963 263.90016 
L 112.487797 263.90016 
L 112.487797 262.92672 
L 112.690074 262.92672 
L 112.690074 261.95328 
L 114.7824 261.95328 
L 114.7824 258.05952 
L 117.540239 258.05952 
L 117.540239 256.11264 
L 118.376446 256.11264 
L 118.376446 253.19232 
L 118.524569 253.19232 
L 118.524569 252.21888 
L 119.944983 252.21888 
L 119.944983 250.272 
L 121.39274 250.272 
L 121.39274 249.29856 
L 122.076872 249.29856 
L 122.076872 248.32512 
L 122.736994 248.32512 
L 122.736994 247.35168 
L 123.374735 247.35168 
L 123.374735 246.37824 
L 124.427792 246.37824 
L 124.427792 245.4048 
L 124.588805 245.4048 
L 124.588805 244.43136 
L 125.167667 244.43136 
L 125.167667 241.51104 
L 125.729248 241.51104 
L 125.729248 240.5376 
L 126.274549 240.5376 
L 126.274549 239.56416 
L 126.804487 239.56416 
L 126.804487 238.59072 
L 127.319904 238.59072 
L 127.319904 237.61728 
L 127.821575 237.61728 
L 127.821575 236.64384 
L 127.956104 236.64384 
L 127.956104 235.6704 
L 128.310214 235.6704 
L 128.310214 234.69696 
L 128.786481 234.69696 
L 128.786481 233.72352 
L 129.458394 233.72352 
L 129.458394 232.75008 
L 129.7043 232.75008 
L 129.7043 231.77664 
L 130.146945 231.77664 
L 130.146945 229.82976 
L 130.772751 229.82976 
L 130.772751 228.85632 
L 131.002163 228.85632 
L 131.002163 227.88288 
L 131.41562 227.88288 
L 131.41562 226.90944 
L 132.216233 226.90944 
L 132.251827 223.98912 
L 133.623039 223.98912 
L 133.623039 223.01568 
L 134.77709 223.01568 
L 134.77709 222.04224 
L 134.901055 222.04224 
L 134.901055 221.0688 
L 135.237805 221.0688 
L 135.268121 219.12192 
L 135.449003 219.12192 
L 135.449003 218.14848 
L 136.097741 218.14848 
L 136.097741 217.17504 
L 136.92008 217.17504 
L 136.92008 216.2016 
L 138.206842 216.2016 
L 138.206842 214.25472 
L 138.515235 214.25472 
L 138.515235 213.28128 
L 139.240288 213.28128 
L 139.313723 211.3344 
L 139.843661 211.3344 
L 139.843661 210.36096 
L 140.359078 210.36096 
L 140.359078 209.38752 
L 140.611586 209.38752 
L 140.611586 208.41408 
L 140.860749 208.41408 
L 140.883238 206.4672 
L 141.106655 206.4672 
L 141.106655 205.49376 
L 141.349389 205.49376 
L 141.349389 203.54688 
L 141.56737 203.54688 
L 141.56737 202.57344 
L 141.825656 202.57344 
L 141.825656 200.62656 
L 142.185595 200.62656 
L 142.185595 199.65312 
L 143.618588 199.65312 
L 143.618588 198.67968 
L 143.83115 198.67968 
L 143.83115 197.70624 
L 144.454795 197.70624 
L 144.529002 195.75936 
L 144.85936 195.75936 
L 144.85936 194.78592 
L 145.058426 194.78592 
L 145.058426 192.83904 
L 145.450347 192.83904 
L 145.450347 191.8656 
L 145.643288 191.8656 
L 145.643288 190.89216 
L 146.210514 190.89216 
L 146.210514 189.91872 
L 146.579379 189.91872 
L 146.595975 187.97184 
L 146.941151 187.97184 
L 146.941151 186.02496 
L 147.119461 186.02496 
L 147.119461 185.05152 
L 147.518533 185.05152 
L 147.518533 184.07808 
L 147.644469 184.07808 
L 147.644469 183.10464 
L 147.816265 183.10464 
L 147.909315 181.15776 
L 149.078856 181.15776 
L 149.136916 179.21088 
L 149.295664 179.21088 
L 149.295664 178.23744 
L 149.453084 178.23744 
L 149.453084 177.264 
L 149.91759 177.264 
L 149.91759 176.29056 
L 150.056115 176.29056 
L 150.056115 175.31712 
L 150.221009 175.31712 
L 150.221009 174.34368 
L 150.370903 174.34368 
L 150.370903 173.37024 
L 150.573397 173.37024 
L 150.573397 172.3968 
L 150.919305 172.3968 
L 150.958812 170.44992 
L 151.246016 170.44992 
L 151.246016 168.50304 
L 151.387991 168.50304 
L 151.387991 167.5296 
L 151.528902 167.5296 
L 151.528902 166.55616 
L 152.020159 166.55616 
L 152.082223 164.60928 
L 152.218047 164.60928 
L 152.218047 162.6624 
L 152.751744 162.6624 
L 152.751744 161.68896 
L 152.882835 161.68896 
L 152.882835 160.71552 
L 153.536404 160.71552 
L 153.536404 159.74208 
L 153.832297 159.74208 
L 153.933646 154.87488 
L 154.639024 154.87488 
L 154.660647 152.928 
L 154.854139 152.928 
L 154.86483 150.00768 
L 155.087958 150.00768 
L 155.098517 148.0608 
L 155.214281 148.0608 
L 155.235253 146.11392 
L 155.371001 146.11392 
L 155.371001 145.14048 
L 155.782649 145.14048 
L 155.782649 143.1936 
L 155.894291 143.1936 
L 156.005274 140.27328 
L 156.195443 140.27328 
L 156.195443 139.29984 
L 156.521235 139.29984 
L 156.521235 138.3264 
L 156.783658 138.3264 
L 156.783658 137.35296 
L 156.975712 137.35296 
L 157.080512 135.40608 
L 157.260166 135.40608 
L 157.260166 134.43264 
L 157.419468 134.43264 
L 157.419468 133.4592 
L 157.642093 133.4592 
L 157.642093 132.48576 
L 157.798206 132.48576 
L 157.889436 130.53888 
L 157.998331 130.53888 
L 157.998331 129.56544 
L 158.276759 129.56544 
L 158.321284 127.61856 
L 159.113741 127.61856 
L 159.113741 126.64512 
L 159.342585 126.64512 
L 159.342585 125.67168 
L 159.493615 125.67168 
L 159.585318 122.75136 
L 159.618554 122.75136 
L 159.618554 121.77792 
L 159.775628 121.77792 
L 159.775628 120.80448 
L 159.964032 120.80448 
L 159.964032 119.83104 
L 160.158636 119.83104 
L 160.23913 117.88416 
L 160.422971 117.88416 
L 160.454761 115.93728 
L 160.699326 115.93728 
L 160.769737 113.9904 
L 160.855439 113.9904 
L 160.940753 112.04352 
L 161.110227 112.04352 
L 161.110227 111.07008 
L 161.278189 111.07008 
L 161.36161 108.14976 
L 161.527352 108.14976 
L 161.609678 105.22944 
L 161.691646 105.22944 
L 161.788059 103.28256 
L 161.854518 103.28256 
L 161.935428 101.33568 
L 162.17609 101.33568 
L 162.270058 97.44192 
L 162.334839 97.44192 
L 162.413713 95.49504 
L 162.456597 95.49504 
L 162.492258 93.54816 
L 162.648372 93.54816 
L 162.648372 92.57472 
L 162.8032 92.57472 
L 162.908039 90.62784 
L 162.956765 90.62784 
L 162.956765 89.6544 
L 163.171045 89.6544 
L 163.171045 88.68096 
L 163.692963 88.68096 
L 163.692963 87.70752 
L 163.96507 87.70752 
L 164.011136 85.76064 
L 164.07675 85.76064 
L 164.142137 83.81376 
L 164.356312 83.81376 
L 164.427166 81.86688 
L 164.536144 81.86688 
L 164.625419 77.97312 
L 164.846771 77.97312 
L 164.9471 74.07936 
L 164.997064 74.07936 
L 164.997064 72.13248 
L 165.392072 72.13248 
L 165.422585 69.21216 
L 165.790918 69.21216 
L 165.790918 68.23872 
L 165.92201 68.23872 
L 165.987215 66.29184 
L 166.040396 66.29184 
L 166.040396 65.3184 
L 166.152178 65.3184 
L 166.152178 64.34496 
L 166.367969 64.34496 
L 166.367969 63.37152 
L 166.500873 63.37152 
L 166.541136 61.42464 
L 166.615683 61.42464 
L 166.615683 60.4512 
L 167.000877 60.4512 
L 167.000877 59.47776 
L 167.123829 59.47776 
L 167.123829 58.50432 
L 167.251516 58.50432 
L 167.251516 57.53088 
L 167.737601 57.53088 
L 167.845127 54.61056 
L 167.978675 54.61056 
L 168.079542 50.7168 
L 168.15352 50.7168 
L 168.253455 47.79648 
L 168.274427 47.79648 
L 168.311071 45.8496 
L 168.425776 45.8496 
L 168.425776 44.87616 
L 168.72487 44.87616 
L 168.72487 43.90272 
L 169.019282 43.90272 
L 169.019282 42.92928 
L 169.373521 42.92928 
L 169.422883 40.9824 
L 169.535924 40.9824 
L 169.535924 40.00896 
L 169.822832 40.00896 
L 169.822832 39.03552 
L 170.014887 39.03552 
L 170.119687 35.14176 
L 170.238073 35.14176 
L 170.238073 34.16832 
L 170.369787 34.16832 
L 170.369787 33.19488 
L 170.523847 33.19488 
L 170.53779 31.248 
L 170.754894 31.248 
L 170.754894 30.27456 
L 171.073664 30.27456 
L 171.132274 28.32768 
L 171.333756 28.32768 
L 171.333756 27.35424 
L 171.528696 27.35424 
L 171.559524 25.40736 
L 171.686704 25.40736 
L 171.73036 23.46048 
L 172.076012 23.46048 
L 172.076012 22.48704 
L 172.3986 22.48704 
L 172.3986 21.5136 
L 172.661879 21.5136 
L 172.661879 20.54016 
L 172.839484 20.54016 
L 172.929707 18.59328 
L 173.11697 18.59328 
L 173.177632 16.6464 
L 173.418347 16.6464 
L 173.434285 14.69952 
L 173.553396 14.69952 
L 173.553396 13.72608 
L 173.894614 13.72608 
L 173.894614 12.75264 
L 174.014717 12.75264 
L 174.014717 11.7792 
L 174.812433 11.7792 
L 174.853106 9.83232 
L 177.03716 9.83232 
L 177.03716 8.85888 
L 177.347024 8.85888 
L 177.347024 7.88544 
L 177.841883 7.88544 
L 177.841883 6.912 
L 360.8064 6.912 
L 360.8064 6.912 
" style="fill: none; stroke: #ff7500; stroke-width: 1.5; stroke-linecap: square"/>
   </g>
   <g id="line2d_44">
    <defs>
     <path id="ma1a792182b" d="M 0 -6 
L -1.347084 -1.854102 
L -5.706339 -1.854102 
L -2.179628 0.708204 
L -3.526712 4.854102 
L -0 2.291796 
L 3.526712 4.854102 
L 2.179628 0.708204 
L 5.706339 -1.854102 
L 1.347084 -1.854102 
z
" style="stroke: #ff7500; stroke-width: 1.5; stroke-linejoin: bevel"/>
    </defs>
    <g>
     <use xlink:href="#ma1a792182b" x="130.772751" y="228.85632" style="fill-opacity: 0; stroke: #ff7500; stroke-width: 1.5; stroke-linejoin: bevel"/>
     <use xlink:href="#ma1a792182b" x="170.754894" y="31.248" style="fill-opacity: 0; stroke: #ff7500; stroke-width: 1.5; stroke-linejoin: bevel"/>
     <use xlink:href="#ma1a792182b" x="177.841883" y="7.88544" style="fill-opacity: 0; stroke: #ff7500; stroke-width: 1.5; stroke-linejoin: bevel"/>
     <use xlink:href="#ma1a792182b" x="177.841883" y="6.912" style="fill-opacity: 0; stroke: #ff7500; stroke-width: 1.5; stroke-linejoin: bevel"/>
     <use xlink:href="#ma1a792182b" x="360.8064" y="6.912" style="fill-opacity: 0; stroke: #ff7500; stroke-width: 1.5; stroke-linejoin: bevel"/>
    </g>
   </g>
   <g id="line2d_45">
    <path style="fill: none; stroke: #ff7500; stroke-width: 1.5; stroke-linecap: square"/>
    <g/>
   </g>
   <g id="line2d_46">
    <path d="M 360.8064 6.912 
L 380.514816 293.10336 
" style="fill: none; stroke: #ff00ff; stroke-width: 1.5; stroke-linecap: square"/>
    <g>
     <use xlink:href="#m58f5fff02b" x="360.8064" y="6.912" style="fill-opacity: 0; stroke: #ff00ff; stroke-width: 1.5; stroke-linejoin: miter"/>
     <use xlink:href="#m58f5fff02b" x="380.514816" y="293.10336" style="fill-opacity: 0; stroke: #ff00ff; stroke-width: 1.5; stroke-linejoin: miter"/>
    </g>
   </g>
   <g id="line2d_47">
    <path d="M 360.8064 6.912 
L 380.514816 199.65312 
" style="fill: none; stroke: #ff7500; stroke-width: 1.5; stroke-linecap: square"/>
    <g>
     <use xlink:href="#ma1a792182b" x="360.8064" y="6.912" style="fill-opacity: 0; stroke: #ff7500; stroke-width: 1.5; stroke-linejoin: bevel"/>
     <use xlink:href="#ma1a792182b" x="380.514816" y="199.65312" style="fill-opacity: 0; stroke: #ff7500; stroke-width: 1.5; stroke-linejoin: bevel"/>
    </g>
   </g>
   <g id="line2d_48">
    <path d="M 360.8064 6.912 
L 380.514816 106.20288 
" style="fill: none; stroke: #000080; stroke-width: 1.5; stroke-linecap: square"/>
    <g>
     <use xlink:href="#m839cc02468" x="360.8064" y="6.912" style="fill-opacity: 0; stroke: #000080; stroke-width: 1.5"/>
     <use xlink:href="#m839cc02468" x="380.514816" y="106.20288" style="fill-opacity: 0; stroke: #000080; stroke-width: 1.5"/>
    </g>
   </g>
   <g id="line2d_49">
    <path d="M 360.8064 298.944 
L 360.8064 6.912 
" style="fill: none; stroke: #000000; stroke-width: 1.5; stroke-linecap: square"/>
   </g>
   <g id="patch_3">
    <path d="M 57.6 298.944 
L 360.8064 298.944 
" style="fill: none; stroke: #000000; stroke-width: 0.8; stroke-linejoin: miter; stroke-linecap: square"/>
   </g>
   <g id="patch_4">
    <path d="M 57.6 6.912 
L 360.8064 6.912 
" style="fill: none; stroke: #000000; stroke-width: 0.8; stroke-linejoin: miter; stroke-linecap: square"/>
   </g>
   <g id="text_13">
    <!-- LQ-skip -->
    <g transform="translate(386.578944 296.966485) scale(0.14 -0.14)">
     <defs>
      <path id="DejaVuSans-4c" d="M 628 4666 
L 1259 4666 
L 1259 531 
L 3531 531 
L 3531 0 
L 628 0 
L 628 4666 
z
" transform="scale(0.015625)"/>
      <path id="DejaVuSans-51" d="M 2522 4238 
Q 1834 4238 1429 3725 
Q 1025 3213 1025 2328 
Q 1025 1447 1429 934 
Q 1834 422 2522 422 
Q 3209 422 3611 934 
Q 4013 1447 4013 2328 
Q 4013 3213 3611 3725 
Q 3209 4238 2522 4238 
z
M 3406 84 
L 4238 -825 
L 3475 -825 
L 2784 -78 
Q 2681 -84 2626 -87 
Q 2572 -91 2522 -91 
Q 1538 -91 948 567 
Q 359 1225 359 2328 
Q 359 3434 948 4092 
Q 1538 4750 2522 4750 
Q 3503 4750 4090 4092 
Q 4678 3434 4678 2328 
Q 4678 1516 4351 937 
Q 4025 359 3406 84 
z
" transform="scale(0.015625)"/>
      <path id="DejaVuSans-6b" d="M 581 4863 
L 1159 4863 
L 1159 1991 
L 2875 3500 
L 3609 3500 
L 1753 1863 
L 3688 0 
L 2938 0 
L 1159 1709 
L 1159 0 
L 581 0 
L 581 4863 
z
" transform="scale(0.015625)"/>
     </defs>
     <use xlink:href="#DejaVuSans-4c"/>
     <use xlink:href="#DejaVuSans-51" x="55.712891"/>
     <use xlink:href="#DejaVuSans-2d" x="137.173828"/>
     <use xlink:href="#DejaVuSans-73" x="173.257812"/>
     <use xlink:href="#DejaVuSans-6b" x="225.357422"/>
     <use xlink:href="#DejaVuSans-69" x="283.267578"/>
     <use xlink:href="#DejaVuSans-70" x="311.050781"/>
    </g>
   </g>
   <g id="text_14">
    <!-- COMO-10 d -->
    <g transform="translate(386.578944 203.516245) scale(0.14 -0.14)">
     <defs>
      <path id="DejaVuSans-43" d="M 4122 4306 
L 4122 3641 
Q 3803 3938 3442 4084 
Q 3081 4231 2675 4231 
Q 1875 4231 1450 3742 
Q 1025 3253 1025 2328 
Q 1025 1406 1450 917 
Q 1875 428 2675 428 
Q 3081 428 3442 575 
Q 3803 722 4122 1019 
L 4122 359 
Q 3791 134 3420 21 
Q 3050 -91 2638 -91 
Q 1578 -91 968 557 
Q 359 1206 359 2328 
Q 359 3453 968 4101 
Q 1578 4750 2638 4750 
Q 3056 4750 3426 4639 
Q 3797 4528 4122 4306 
z
" transform="scale(0.015625)"/>
      <path id="DejaVuSans-4f" d="M 2522 4238 
Q 1834 4238 1429 3725 
Q 1025 3213 1025 2328 
Q 1025 1447 1429 934 
Q 1834 422 2522 422 
Q 3209 422 3611 934 
Q 4013 1447 4013 2328 
Q 4013 3213 3611 3725 
Q 3209 4238 2522 4238 
z
M 2522 4750 
Q 3503 4750 4090 4092 
Q 4678 3434 4678 2328 
Q 4678 1225 4090 567 
Q 3503 -91 2522 -91 
Q 1538 -91 948 565 
Q 359 1222 359 2328 
Q 359 3434 948 4092 
Q 1538 4750 2522 4750 
z
" transform="scale(0.015625)"/>
      <path id="DejaVuSans-4d" d="M 628 4666 
L 1569 4666 
L 2759 1491 
L 3956 4666 
L 4897 4666 
L 4897 0 
L 4281 0 
L 4281 4097 
L 3078 897 
L 2444 897 
L 1241 4097 
L 1241 0 
L 628 0 
L 628 4666 
z
" transform="scale(0.015625)"/>
     </defs>
     <use xlink:href="#DejaVuSans-43"/>
     <use xlink:href="#DejaVuSans-4f" x="69.824219"/>
     <use xlink:href="#DejaVuSans-4d" x="148.535156"/>
     <use xlink:href="#DejaVuSans-4f" x="234.814453"/>
     <use xlink:href="#DejaVuSans-2d" x="316.275391"/>
     <use xlink:href="#DejaVuSans-31" x="352.359375"/>
     <use xlink:href="#DejaVuSans-30" x="415.982422"/>
     <use xlink:href="#DejaVuSans-20" x="479.605469"/>
     <use xlink:href="#DejaVuSans-64" x="511.392578"/>
    </g>
   </g>
   <g id="text_15">
    <!-- kerLQ -->
    <g transform="translate(386.578944 110.066005) scale(0.14 -0.14)">
     <use xlink:href="#DejaVuSans-6b"/>
     <use xlink:href="#DejaVuSans-65" x="54.285156"/>
     <use xlink:href="#DejaVuSans-72" x="115.808594"/>
     <use xlink:href="#DejaVuSans-4c" x="156.921875"/>
     <use xlink:href="#DejaVuSans-51" x="212.634766"/>
    </g>
   </g>
   <g id="text_16">
    <!-- best 2016 -->
    <g transform="translate(386.578944 16.615765) scale(0.14 -0.14)">
     <defs>
      <path id="DejaVuSans-62" d="M 3116 1747 
Q 3116 2381 2855 2742 
Q 2594 3103 2138 3103 
Q 1681 3103 1420 2742 
Q 1159 2381 1159 1747 
Q 1159 1113 1420 752 
Q 1681 391 2138 391 
Q 2594 391 2855 752 
Q 3116 1113 3116 1747 
z
M 1159 2969 
Q 1341 3281 1617 3432 
Q 1894 3584 2278 3584 
Q 2916 3584 3314 3078 
Q 3713 2572 3713 1747 
Q 3713 922 3314 415 
Q 2916 -91 2278 -91 
Q 1894 -91 1617 61 
Q 1341 213 1159 525 
L 1159 0 
L 581 0 
L 581 4863 
L 1159 4863 
L 1159 2969 
z
" transform="scale(0.015625)"/>
     </defs>
     <use xlink:href="#DejaVuSans-62"/>
     <use xlink:href="#DejaVuSans-65" x="63.476562"/>
     <use xlink:href="#DejaVuSans-73" x="125"/>
     <use xlink:href="#DejaVuSans-74" x="177.099609"/>
     <use xlink:href="#DejaVuSans-20" x="216.308594"/>
     <use xlink:href="#DejaVuSans-32" x="248.095703"/>
     <use xlink:href="#DejaVuSans-30" x="311.71875"/>
     <use xlink:href="#DejaVuSans-31" x="375.341797"/>
     <use xlink:href="#DejaVuSans-36" x="438.964844"/>
    </g>
   </g>
   <g id="text_17">
    <!-- bbob-biobj f5, f6, f14, f15, 10-D -->
    <g transform="translate(60.632064 17.582726) scale(0.102 -0.102)">
     <defs>
      <path id="DejaVuSans-6a" d="M 603 3500 
L 1178 3500 
L 1178 -63 
Q 1178 -731 923 -1031 
Q 669 -1331 103 -1331 
L -116 -1331 
L -116 -844 
L 38 -844 
Q 366 -844 484 -692 
Q 603 -541 603 -63 
L 603 3500 
z
M 603 4863 
L 1178 4863 
L 1178 4134 
L 603 4134 
L 603 4863 
z
" transform="scale(0.015625)"/>
      <path id="DejaVuSans-35" d="M 691 4666 
L 3169 4666 
L 3169 4134 
L 1269 4134 
L 1269 2991 
Q 1406 3038 1543 3061 
Q 1681 3084 1819 3084 
Q 2600 3084 3056 2656 
Q 3513 2228 3513 1497 
Q 3513 744 3044 326 
Q 2575 -91 1722 -91 
Q 1428 -91 1123 -41 
Q 819 9 494 109 
L 494 744 
Q 775 591 1075 516 
Q 1375 441 1709 441 
Q 2250 441 2565 725 
Q 2881 1009 2881 1497 
Q 2881 1984 2565 2268 
Q 2250 2553 1709 2553 
Q 1456 2553 1204 2497 
Q 953 2441 691 2322 
L 691 4666 
z
" transform="scale(0.015625)"/>
      <path id="DejaVuSans-44" d="M 1259 4147 
L 1259 519 
L 2022 519 
Q 2988 519 3436 956 
Q 3884 1394 3884 2338 
Q 3884 3275 3436 3711 
Q 2988 4147 2022 4147 
L 1259 4147 
z
M 628 4666 
L 1925 4666 
Q 3281 4666 3915 4102 
Q 4550 3538 4550 2338 
Q 4550 1131 3912 565 
Q 3275 0 1925 0 
L 628 0 
L 628 4666 
z
" transform="scale(0.015625)"/>
     </defs>
     <use xlink:href="#DejaVuSans-62"/>
     <use xlink:href="#DejaVuSans-62" x="63.476562"/>
     <use xlink:href="#DejaVuSans-6f" x="126.953125"/>
     <use xlink:href="#DejaVuSans-62" x="188.134766"/>
     <use xlink:href="#DejaVuSans-2d" x="251.611328"/>
     <use xlink:href="#DejaVuSans-62" x="287.695312"/>
     <use xlink:href="#DejaVuSans-69" x="351.171875"/>
     <use xlink:href="#DejaVuSans-6f" x="378.955078"/>
     <use xlink:href="#DejaVuSans-62" x="440.136719"/>
     <use xlink:href="#DejaVuSans-6a" x="503.613281"/>
     <use xlink:href="#DejaVuSans-20" x="531.396484"/>
     <use xlink:href="#DejaVuSans-66" x="563.183594"/>
     <use xlink:href="#DejaVuSans-35" x="598.388672"/>
     <use xlink:href="#DejaVuSans-2c" x="662.011719"/>
     <use xlink:href="#DejaVuSans-20" x="693.798828"/>
     <use xlink:href="#DejaVuSans-66" x="725.585938"/>
     <use xlink:href="#DejaVuSans-36" x="760.791016"/>
     <use xlink:href="#DejaVuSans-2c" x="824.414062"/>
     <use xlink:href="#DejaVuSans-20" x="856.201172"/>
     <use xlink:href="#DejaVuSans-66" x="887.988281"/>
     <use xlink:href="#DejaVuSans-31" x="923.193359"/>
     <use xlink:href="#DejaVuSans-34" x="986.816406"/>
     <use xlink:href="#DejaVuSans-2c" x="1050.439453"/>
     <use xlink:href="#DejaVuSans-20" x="1082.226562"/>
     <use xlink:href="#DejaVuSans-66" x="1114.013672"/>
     <use xlink:href="#DejaVuSans-31" x="1149.21875"/>
     <use xlink:href="#DejaVuSans-35" x="1212.841797"/>
     <use xlink:href="#DejaVuSans-2c" x="1276.464844"/>
     <use xlink:href="#DejaVuSans-20" x="1308.251953"/>
     <use xlink:href="#DejaVuSans-31" x="1340.039062"/>
     <use xlink:href="#DejaVuSans-30" x="1403.662109"/>
     <use xlink:href="#DejaVuSans-2d" x="1467.285156"/>
     <use xlink:href="#DejaVuSans-44" x="1503.369141"/>
    </g>
    <!-- 31 targets RLs/dim: 0.5..50 -->
    <g transform="translate(60.632064 29.004495) scale(0.102 -0.102)">
     <defs>
      <path id="DejaVuSans-33" d="M 2597 2516 
Q 3050 2419 3304 2112 
Q 3559 1806 3559 1356 
Q 3559 666 3084 287 
Q 2609 -91 1734 -91 
Q 1441 -91 1130 -33 
Q 819 25 488 141 
L 488 750 
Q 750 597 1062 519 
Q 1375 441 1716 441 
Q 2309 441 2620 675 
Q 2931 909 2931 1356 
Q 2931 1769 2642 2001 
Q 2353 2234 1838 2234 
L 1294 2234 
L 1294 2753 
L 1863 2753 
Q 2328 2753 2575 2939 
Q 2822 3125 2822 3475 
Q 2822 3834 2567 4026 
Q 2313 4219 1838 4219 
Q 1578 4219 1281 4162 
Q 984 4106 628 3988 
L 628 4550 
Q 988 4650 1302 4700 
Q 1616 4750 1894 4750 
Q 2613 4750 3031 4423 
Q 3450 4097 3450 3541 
Q 3450 3153 3228 2886 
Q 3006 2619 2597 2516 
z
" transform="scale(0.015625)"/>
      <path id="DejaVuSans-52" d="M 2841 2188 
Q 3044 2119 3236 1894 
Q 3428 1669 3622 1275 
L 4263 0 
L 3584 0 
L 2988 1197 
Q 2756 1666 2539 1819 
Q 2322 1972 1947 1972 
L 1259 1972 
L 1259 0 
L 628 0 
L 628 4666 
L 2053 4666 
Q 2853 4666 3247 4331 
Q 3641 3997 3641 3322 
Q 3641 2881 3436 2590 
Q 3231 2300 2841 2188 
z
M 1259 4147 
L 1259 2491 
L 2053 2491 
Q 2509 2491 2742 2702 
Q 2975 2913 2975 3322 
Q 2975 3731 2742 3939 
Q 2509 4147 2053 4147 
L 1259 4147 
z
" transform="scale(0.015625)"/>
      <path id="DejaVuSans-3a" d="M 750 794 
L 1409 794 
L 1409 0 
L 750 0 
L 750 794 
z
M 750 3309 
L 1409 3309 
L 1409 2516 
L 750 2516 
L 750 3309 
z
" transform="scale(0.015625)"/>
     </defs>
     <use xlink:href="#DejaVuSans-33"/>
     <use xlink:href="#DejaVuSans-31" x="63.623047"/>
     <use xlink:href="#DejaVuSans-20" x="127.246094"/>
     <use xlink:href="#DejaVuSans-74" x="159.033203"/>
     <use xlink:href="#DejaVuSans-61" x="198.242188"/>
     <use xlink:href="#DejaVuSans-72" x="259.521484"/>
     <use xlink:href="#DejaVuSans-67" x="298.884766"/>
     <use xlink:href="#DejaVuSans-65" x="362.361328"/>
     <use xlink:href="#DejaVuSans-74" x="423.884766"/>
     <use xlink:href="#DejaVuSans-73" x="463.09375"/>
     <use xlink:href="#DejaVuSans-20" x="515.193359"/>
     <use xlink:href="#DejaVuSans-52" x="546.980469"/>
     <use xlink:href="#DejaVuSans-4c" x="616.462891"/>
     <use xlink:href="#DejaVuSans-73" x="672.175781"/>
     <use xlink:href="#DejaVuSans-2f" x="724.275391"/>
     <use xlink:href="#DejaVuSans-64" x="757.966797"/>
     <use xlink:href="#DejaVuSans-69" x="821.443359"/>
     <use xlink:href="#DejaVuSans-6d" x="849.226562"/>
     <use xlink:href="#DejaVuSans-3a" x="946.638672"/>
     <use xlink:href="#DejaVuSans-20" x="980.330078"/>
     <use xlink:href="#DejaVuSans-30" x="1012.117188"/>
     <use xlink:href="#DejaVuSans-2e" x="1075.740234"/>
     <use xlink:href="#DejaVuSans-35" x="1107.527344"/>
     <use xlink:href="#DejaVuSans-2e" x="1171.150391"/>
     <use xlink:href="#DejaVuSans-2e" x="1202.9375"/>
     <use xlink:href="#DejaVuSans-35" x="1234.724609"/>
     <use xlink:href="#DejaVuSans-30" x="1298.347656"/>
    </g>
    <!--   from refalgs/best2016-bbob-biobj.tar.gz -->
    <g transform="translate(60.632064 40.426264) scale(0.102 -0.102)">
     <defs>
      <path id="DejaVuSans-7a" d="M 353 3500 
L 3084 3500 
L 3084 2975 
L 922 459 
L 3084 459 
L 3084 0 
L 275 0 
L 275 525 
L 2438 3041 
L 353 3041 
L 353 3500 
z
" transform="scale(0.015625)"/>
     </defs>
     <use xlink:href="#DejaVuSans-20"/>
     <use xlink:href="#DejaVuSans-20" x="31.787109"/>
     <use xlink:href="#DejaVuSans-66" x="63.574219"/>
     <use xlink:href="#DejaVuSans-72" x="98.779297"/>
     <use xlink:href="#DejaVuSans-6f" x="137.642578"/>
     <use xlink:href="#DejaVuSans-6d" x="198.824219"/>
     <use xlink:href="#DejaVuSans-20" x="296.236328"/>
     <use xlink:href="#DejaVuSans-72" x="328.023438"/>
     <use xlink:href="#DejaVuSans-65" x="366.886719"/>
     <use xlink:href="#DejaVuSans-66" x="428.410156"/>
     <use xlink:href="#DejaVuSans-61" x="463.615234"/>
     <use xlink:href="#DejaVuSans-6c" x="524.894531"/>
     <use xlink:href="#DejaVuSans-67" x="552.677734"/>
     <use xlink:href="#DejaVuSans-73" x="616.154297"/>
     <use xlink:href="#DejaVuSans-2f" x="668.253906"/>
     <use xlink:href="#DejaVuSans-62" x="701.945312"/>
     <use xlink:href="#DejaVuSans-65" x="765.421875"/>
     <use xlink:href="#DejaVuSans-73" x="826.945312"/>
     <use xlink:href="#DejaVuSans-74" x="879.044922"/>
     <use xlink:href="#DejaVuSans-32" x="918.253906"/>
     <use xlink:href="#DejaVuSans-30" x="981.876953"/>
     <use xlink:href="#DejaVuSans-31" x="1045.5"/>
     <use xlink:href="#DejaVuSans-36" x="1109.123047"/>
     <use xlink:href="#DejaVuSans-2d" x="1172.746094"/>
     <use xlink:href="#DejaVuSans-62" x="1208.830078"/>
     <use xlink:href="#DejaVuSans-62" x="1272.306641"/>
     <use xlink:href="#DejaVuSans-6f" x="1335.783203"/>
     <use xlink:href="#DejaVuSans-62" x="1396.964844"/>
     <use xlink:href="#DejaVuSans-2d" x="1460.441406"/>
     <use xlink:href="#DejaVuSans-62" x="1496.525391"/>
     <use xlink:href="#DejaVuSans-69" x="1560.001953"/>
     <use xlink:href="#DejaVuSans-6f" x="1587.785156"/>
     <use xlink:href="#DejaVuSans-62" x="1648.966797"/>
     <use xlink:href="#DejaVuSans-6a" x="1712.443359"/>
     <use xlink:href="#DejaVuSans-2e" x="1740.226562"/>
     <use xlink:href="#DejaVuSans-74" x="1772.013672"/>
     <use xlink:href="#DejaVuSans-61" x="1811.222656"/>
     <use xlink:href="#DejaVuSans-72" x="1872.501953"/>
     <use xlink:href="#DejaVuSans-2e" x="1904.490234"/>
     <use xlink:href="#DejaVuSans-67" x="1936.277344"/>
     <use xlink:href="#DejaVuSans-7a" x="1999.753906"/>
    </g>
    <!-- 10 instances -->
    <g transform="translate(60.632064 51.848032) scale(0.102 -0.102)">
     <use xlink:href="#DejaVuSans-31"/>
     <use xlink:href="#DejaVuSans-30" x="63.623047"/>
     <use xlink:href="#DejaVuSans-20" x="127.246094"/>
     <use xlink:href="#DejaVuSans-69" x="159.033203"/>
     <use xlink:href="#DejaVuSans-6e" x="186.816406"/>
     <use xlink:href="#DejaVuSans-73" x="250.195312"/>
     <use xlink:href="#DejaVuSans-74" x="302.294922"/>
     <use xlink:href="#DejaVuSans-61" x="341.503906"/>
     <use xlink:href="#DejaVuSans-6e" x="402.783203"/>
     <use xlink:href="#DejaVuSans-63" x="466.162109"/>
     <use xlink:href="#DejaVuSans-65" x="521.142578"/>
     <use xlink:href="#DejaVuSans-73" x="582.666016"/>
    </g>
   </g>
   <g id="text_18">
    <!-- v2.6, hv-hash=ff0e71e8cd978373 -->
    <g style="fill: #808080" transform="translate(123.707887 293.943992) scale(0.1 -0.1)">
     <defs>
      <path id="DejaVuSans-68" d="M 3513 2113 
L 3513 0 
L 2938 0 
L 2938 2094 
Q 2938 2591 2744 2837 
Q 2550 3084 2163 3084 
Q 1697 3084 1428 2787 
Q 1159 2491 1159 1978 
L 1159 0 
L 581 0 
L 581 4863 
L 1159 4863 
L 1159 2956 
Q 1366 3272 1645 3428 
Q 1925 3584 2291 3584 
Q 2894 3584 3203 3211 
Q 3513 2838 3513 2113 
z
" transform="scale(0.015625)"/>
      <path id="DejaVuSans-3d" d="M 678 2906 
L 4684 2906 
L 4684 2381 
L 678 2381 
L 678 2906 
z
M 678 1631 
L 4684 1631 
L 4684 1100 
L 678 1100 
L 678 1631 
z
" transform="scale(0.015625)"/>
      <path id="DejaVuSans-37" d="M 525 4666 
L 3525 4666 
L 3525 4397 
L 1831 0 
L 1172 0 
L 2766 4134 
L 525 4134 
L 525 4666 
z
" transform="scale(0.015625)"/>
      <path id="DejaVuSans-39" d="M 703 97 
L 703 672 
Q 941 559 1184 500 
Q 1428 441 1663 441 
Q 2288 441 2617 861 
Q 2947 1281 2994 2138 
Q 2813 1869 2534 1725 
Q 2256 1581 1919 1581 
Q 1219 1581 811 2004 
Q 403 2428 403 3163 
Q 403 3881 828 4315 
Q 1253 4750 1959 4750 
Q 2769 4750 3195 4129 
Q 3622 3509 3622 2328 
Q 3622 1225 3098 567 
Q 2575 -91 1691 -91 
Q 1453 -91 1209 -44 
Q 966 3 703 97 
z
M 1959 2075 
Q 2384 2075 2632 2365 
Q 2881 2656 2881 3163 
Q 2881 3666 2632 3958 
Q 2384 4250 1959 4250 
Q 1534 4250 1286 3958 
Q 1038 3666 1038 3163 
Q 1038 2656 1286 2365 
Q 1534 2075 1959 2075 
z
" transform="scale(0.015625)"/>
     </defs>
     <use xlink:href="#DejaVuSans-76"/>
     <use xlink:href="#DejaVuSans-32" x="59.179688"/>
     <use xlink:href="#DejaVuSans-2e" x="122.802734"/>
     <use xlink:href="#DejaVuSans-36" x="154.589844"/>
     <use xlink:href="#DejaVuSans-2c" x="218.212891"/>
     <use xlink:href="#DejaVuSans-20" x="250"/>
     <use xlink:href="#DejaVuSans-68" x="281.787109"/>
     <use xlink:href="#DejaVuSans-76" x="345.166016"/>
     <use xlink:href="#DejaVuSans-2d" x="401.720703"/>
     <use xlink:href="#DejaVuSans-68" x="437.804688"/>
     <use xlink:href="#DejaVuSans-61" x="501.183594"/>
     <use xlink:href="#DejaVuSans-73" x="562.462891"/>
     <use xlink:href="#DejaVuSans-68" x="614.5625"/>
     <use xlink:href="#DejaVuSans-3d" x="677.941406"/>
     <use xlink:href="#DejaVuSans-66" x="761.730469"/>
     <use xlink:href="#DejaVuSans-66" x="796.935547"/>
     <use xlink:href="#DejaVuSans-30" x="832.140625"/>
     <use xlink:href="#DejaVuSans-65" x="895.763672"/>
     <use xlink:href="#DejaVuSans-37" x="957.287109"/>
     <use xlink:href="#DejaVuSans-31" x="1020.910156"/>
     <use xlink:href="#DejaVuSans-65" x="1084.533203"/>
     <use xlink:href="#DejaVuSans-38" x="1146.056641"/>
     <use xlink:href="#DejaVuSans-63" x="1209.679688"/>
     <use xlink:href="#DejaVuSans-64" x="1264.660156"/>
     <use xlink:href="#DejaVuSans-39" x="1328.136719"/>
     <use xlink:href="#DejaVuSans-37" x="1391.759766"/>
     <use xlink:href="#DejaVuSans-38" x="1455.382812"/>
     <use xlink:href="#DejaVuSans-33" x="1519.005859"/>
     <use xlink:href="#DejaVuSans-37" x="1582.628906"/>
     <use xlink:href="#DejaVuSans-33" x="1646.251953"/>
    </g>
   </g>
  </g>
 </g>
 <defs>
  <clipPath id="pbdb0c302b9">
   <rect x="57.6" y="6.912" width="303.2064" height="292.032"/>
  </clipPath>
 </defs>
</svg>
