<?xml version="1.0" encoding="utf-8" standalone="no"?>
<!DOCTYPE svg PUBLIC "-//W3C//DTD SVG 1.1//EN"
  "http://www.w3.org/Graphics/SVG/1.1/DTD/svg11.dtd">
<svg xmlns:xlink="http://www.w3.org/1999/xlink" width="460.8pt" height="345.6pt" viewBox="0 0 460.8 345.6" xmlns="http://www.w3.org/2000/svg" version="1.1">
 <metadata>
  <rdf:RDF xmlns:dc="http://purl.org/dc/elements/1.1/" xmlns:cc="http://creativecommons.org/ns#" xmlns:rdf="http://www.w3.org/1999/02/22-rdf-syntax-ns#">
   <cc:Work>
    <dc:type rdf:resource="http://purl.org/dc/dcmitype/StillImage"/>
    <dc:date>2023-02-21T14:33:07.097718</dc:date>
    <dc:format>image/svg+xml</dc:format>
    <dc:creator>
     <cc:Agent>
      <dc:title>Matplotlib v3.7.0, https://matplotlib.org/</dc:title>
     </cc:Agent>
    </dc:creator>
   </cc:Work>
  </rdf:RDF>
 </metadata>
 <defs>
  <style type="text/css">*{stroke-linejoin: round; stroke-linecap: butt}</style>
 </defs>
 <g id="figure_1">
  <g id="patch_1">
   <path d="M 0 345.6 
L 460.8 345.6 
L 460.8 0 
L 0 0 
z
" style="fill: #ffffff"/>
  </g>
  <g id="axes_1">
   <g id="patch_2">
    <path d="M 57.6 298.944 
L 360.8064 298.944 
L 360.8064 6.912 
L 57.6 6.912 
z
" style="fill: #ffffff"/>
   </g>
   <g id="line2d_1">
    <path d="M 50.890391 298.944 
L 50.890391 288.128 
L 55.618005 288.128 
L 55.618005 277.312 
L 59.392932 277.312 
L 59.392932 266.496 
L 61.029752 266.496 
L 61.029752 255.68 
L 74.068926 255.68 
L 74.068926 244.864 
L 81.696354 244.864 
L 81.696354 234.048 
L 82.211771 234.048 
L 82.211771 223.232 
L 87.1081 223.232 
L 87.1081 212.416 
L 90.340871 212.416 
L 90.340871 201.6 
L 92.811505 201.6 
L 92.811505 190.784 
L 97.410051 190.784 
L 97.410051 179.968 
L 98.077987 179.968 
L 98.077987 169.152 
L 99.550033 169.152 
L 99.550033 158.336 
L 100.535156 158.336 
L 100.535156 147.52 
L 105.26277 147.52 
L 105.26277 136.704 
L 106.974091 136.704 
L 106.974091 125.888 
L 107.5116 125.888 
L 107.5116 115.072 
L 111.334639 115.072 
L 111.334639 104.256 
L 114.510421 104.256 
L 114.510421 93.44 
L 120.616896 93.44 
L 120.616896 82.624 
L 121.455972 82.624 
L 121.455972 71.808 
L 127.087372 71.808 
L 127.087372 60.992 
L 128.829186 60.992 
L 128.829186 50.176 
L 131.078016 50.176 
L 131.078016 39.36 
L 135.298389 39.36 
L 135.298389 28.544 
L 135.568632 28.544 
L 135.568632 17.728 
L 136.385386 17.728 
L 136.385386 6.912 
L 360.8064 6.912 
" style="fill: none; stroke: #f5deb3; stroke-width: 4; stroke-linecap: square"/>
   </g>
   <g id="line2d_2">
    <defs>
     <path id="m89d85f8571" d="M -0 7.778175 
L 7.778175 0 
L 0 -7.778175 
L -7.778175 -0 
z
" style="stroke: #f5deb3; stroke-width: 1.5; stroke-linejoin: miter"/>
    </defs>
    <g>
     <use xlink:href="#m89d85f8571" x="90.340871" y="201.6" style="fill: #f5deb3; stroke: #f5deb3; stroke-width: 1.5; stroke-linejoin: miter"/>
     <use xlink:href="#m89d85f8571" x="114.510421" y="104.256" style="fill: #f5deb3; stroke: #f5deb3; stroke-width: 1.5; stroke-linejoin: miter"/>
     <use xlink:href="#m89d85f8571" x="136.385386" y="17.728" style="fill: #f5deb3; stroke: #f5deb3; stroke-width: 1.5; stroke-linejoin: miter"/>
     <use xlink:href="#m89d85f8571" x="136.385386" y="6.912" style="fill: #f5deb3; stroke: #f5deb3; stroke-width: 1.5; stroke-linejoin: miter"/>
     <use xlink:href="#m89d85f8571" x="136.385386" y="6.912" style="fill: #f5deb3; stroke: #f5deb3; stroke-width: 1.5; stroke-linejoin: miter"/>
     <use xlink:href="#m89d85f8571" x="360.8064" y="6.912" style="fill: #f5deb3; stroke: #f5deb3; stroke-width: 1.5; stroke-linejoin: miter"/>
    </g>
   </g>
   <g id="line2d_3">
    <path style="fill: none; stroke: #f5deb3; stroke-width: 4; stroke-linecap: square"/>
    <g/>
   </g>
   <g id="line2d_4">
    <path d="M 360.8064 6.912 
L 380.514816 12.75264 
" style="fill: none; stroke: #f5deb3; stroke-width: 4; stroke-linecap: square"/>
    <g>
     <use xlink:href="#m89d85f8571" x="360.8064" y="6.912" style="fill: #f5deb3; stroke: #f5deb3; stroke-width: 1.5; stroke-linejoin: miter"/>
     <use xlink:href="#m89d85f8571" x="380.514816" y="12.75264" style="fill: #f5deb3; stroke: #f5deb3; stroke-width: 1.5; stroke-linejoin: miter"/>
    </g>
   </g>
   <g id="matplotlib.axis_1">
    <g id="xtick_1">
     <g id="line2d_5">
      <path d="M 57.6 298.944 
L 57.6 6.912 
" clip-path="url(#p0209240d17)" style="fill: none; stroke: #b0b0b0; stroke-width: 0.8; stroke-linecap: square"/>
     </g>
     <g id="line2d_6">
      <defs>
       <path id="m8327d0d8ae" d="M 0 0 
L 0 3.5 
" style="stroke: #000000; stroke-width: 0.8"/>
      </defs>
      <g>
       <use xlink:href="#m8327d0d8ae" x="57.6" y="298.944" style="stroke: #000000; stroke-width: 0.8"/>
      </g>
     </g>
     <g id="text_1">
      <!-- 0 -->
      <g transform="translate(52.191875 318.861344) scale(0.17 -0.17)">
       <defs>
        <path id="DejaVuSans-30" d="M 2034 4250 
Q 1547 4250 1301 3770 
Q 1056 3291 1056 2328 
Q 1056 1369 1301 889 
Q 1547 409 2034 409 
Q 2525 409 2770 889 
Q 3016 1369 3016 2328 
Q 3016 3291 2770 3770 
Q 2525 4250 2034 4250 
z
M 2034 4750 
Q 2819 4750 3233 4129 
Q 3647 3509 3647 2328 
Q 3647 1150 3233 529 
Q 2819 -91 2034 -91 
Q 1250 -91 836 529 
Q 422 1150 422 2328 
Q 422 3509 836 4129 
Q 1250 4750 2034 4750 
z
" transform="scale(0.015625)"/>
       </defs>
       <use xlink:href="#DejaVuSans-30"/>
      </g>
     </g>
    </g>
    <g id="xtick_2">
     <g id="line2d_7">
      <path d="M 144.2304 298.944 
L 144.2304 6.912 
" clip-path="url(#p0209240d17)" style="fill: none; stroke: #b0b0b0; stroke-width: 0.8; stroke-linecap: square"/>
     </g>
     <g id="line2d_8">
      <g>
       <use xlink:href="#m8327d0d8ae" x="144.2304" y="298.944" style="stroke: #000000; stroke-width: 0.8"/>
      </g>
     </g>
     <g id="text_2">
      <!-- 2 -->
      <g transform="translate(138.822275 318.861344) scale(0.17 -0.17)">
       <defs>
        <path id="DejaVuSans-32" d="M 1228 531 
L 3431 531 
L 3431 0 
L 469 0 
L 469 531 
Q 828 903 1448 1529 
Q 2069 2156 2228 2338 
Q 2531 2678 2651 2914 
Q 2772 3150 2772 3378 
Q 2772 3750 2511 3984 
Q 2250 4219 1831 4219 
Q 1534 4219 1204 4116 
Q 875 4013 500 3803 
L 500 4441 
Q 881 4594 1212 4672 
Q 1544 4750 1819 4750 
Q 2544 4750 2975 4387 
Q 3406 4025 3406 3419 
Q 3406 3131 3298 2873 
Q 3191 2616 2906 2266 
Q 2828 2175 2409 1742 
Q 1991 1309 1228 531 
z
" transform="scale(0.015625)"/>
       </defs>
       <use xlink:href="#DejaVuSans-32"/>
      </g>
     </g>
    </g>
    <g id="xtick_3">
     <g id="line2d_9">
      <path d="M 230.8608 298.944 
L 230.8608 6.912 
" clip-path="url(#p0209240d17)" style="fill: none; stroke: #b0b0b0; stroke-width: 0.8; stroke-linecap: square"/>
     </g>
     <g id="line2d_10">
      <g>
       <use xlink:href="#m8327d0d8ae" x="230.8608" y="298.944" style="stroke: #000000; stroke-width: 0.8"/>
      </g>
     </g>
     <g id="text_3">
      <!-- 4 -->
      <g transform="translate(225.452675 318.861344) scale(0.17 -0.17)">
       <defs>
        <path id="DejaVuSans-34" d="M 2419 4116 
L 825 1625 
L 2419 1625 
L 2419 4116 
z
M 2253 4666 
L 3047 4666 
L 3047 1625 
L 3713 1625 
L 3713 1100 
L 3047 1100 
L 3047 0 
L 2419 0 
L 2419 1100 
L 313 1100 
L 313 1709 
L 2253 4666 
z
" transform="scale(0.015625)"/>
       </defs>
       <use xlink:href="#DejaVuSans-34"/>
      </g>
     </g>
    </g>
    <g id="xtick_4">
     <g id="line2d_11">
      <path d="M 317.4912 298.944 
L 317.4912 6.912 
" clip-path="url(#p0209240d17)" style="fill: none; stroke: #b0b0b0; stroke-width: 0.8; stroke-linecap: square"/>
     </g>
     <g id="line2d_12">
      <g>
       <use xlink:href="#m8327d0d8ae" x="317.4912" y="298.944" style="stroke: #000000; stroke-width: 0.8"/>
      </g>
     </g>
     <g id="text_4">
      <!-- 6 -->
      <g transform="translate(312.083075 318.861344) scale(0.17 -0.17)">
       <defs>
        <path id="DejaVuSans-36" d="M 2113 2584 
Q 1688 2584 1439 2293 
Q 1191 2003 1191 1497 
Q 1191 994 1439 701 
Q 1688 409 2113 409 
Q 2538 409 2786 701 
Q 3034 994 3034 1497 
Q 3034 2003 2786 2293 
Q 2538 2584 2113 2584 
z
M 3366 4563 
L 3366 3988 
Q 3128 4100 2886 4159 
Q 2644 4219 2406 4219 
Q 1781 4219 1451 3797 
Q 1122 3375 1075 2522 
Q 1259 2794 1537 2939 
Q 1816 3084 2150 3084 
Q 2853 3084 3261 2657 
Q 3669 2231 3669 1497 
Q 3669 778 3244 343 
Q 2819 -91 2113 -91 
Q 1303 -91 875 529 
Q 447 1150 447 2328 
Q 447 3434 972 4092 
Q 1497 4750 2381 4750 
Q 2619 4750 2861 4703 
Q 3103 4656 3366 4563 
z
" transform="scale(0.015625)"/>
       </defs>
       <use xlink:href="#DejaVuSans-36"/>
      </g>
     </g>
    </g>
    <g id="xtick_5">
     <g id="line2d_13">
      <path d="M 100.9152 298.944 
L 100.9152 6.912 
" clip-path="url(#p0209240d17)" style="fill: none; stroke: #b0b0b0; stroke-width: 0.8; stroke-linecap: square"/>
     </g>
     <g id="line2d_14">
      <defs>
       <path id="m1ddbb2df59" d="M 0 0 
L 0 2 
" style="stroke: #000000; stroke-width: 0.6"/>
      </defs>
      <g>
       <use xlink:href="#m1ddbb2df59" x="100.9152" y="298.944" style="stroke: #000000; stroke-width: 0.6"/>
      </g>
     </g>
    </g>
    <g id="xtick_6">
     <g id="line2d_15">
      <path d="M 187.5456 298.944 
L 187.5456 6.912 
" clip-path="url(#p0209240d17)" style="fill: none; stroke: #b0b0b0; stroke-width: 0.8; stroke-linecap: square"/>
     </g>
     <g id="line2d_16">
      <g>
       <use xlink:href="#m1ddbb2df59" x="187.5456" y="298.944" style="stroke: #000000; stroke-width: 0.6"/>
      </g>
     </g>
    </g>
    <g id="xtick_7">
     <g id="line2d_17">
      <path d="M 274.176 298.944 
L 274.176 6.912 
" clip-path="url(#p0209240d17)" style="fill: none; stroke: #b0b0b0; stroke-width: 0.8; stroke-linecap: square"/>
     </g>
     <g id="line2d_18">
      <g>
       <use xlink:href="#m1ddbb2df59" x="274.176" y="298.944" style="stroke: #000000; stroke-width: 0.6"/>
      </g>
     </g>
    </g>
    <g id="xtick_8">
     <g id="line2d_19">
      <path d="M 360.8064 298.944 
L 360.8064 6.912 
" clip-path="url(#p0209240d17)" style="fill: none; stroke: #b0b0b0; stroke-width: 0.8; stroke-linecap: square"/>
     </g>
     <g id="line2d_20">
      <g>
       <use xlink:href="#m1ddbb2df59" x="360.8064" y="298.944" style="stroke: #000000; stroke-width: 0.6"/>
      </g>
     </g>
    </g>
    <g id="text_5">
     <!-- log10(# f-evals / dimension) -->
     <g transform="translate(88.823278 339.314156) scale(0.17 -0.17)">
      <defs>
       <path id="DejaVuSans-6c" d="M 603 4863 
L 1178 4863 
L 1178 0 
L 603 0 
L 603 4863 
z
" transform="scale(0.015625)"/>
       <path id="DejaVuSans-6f" d="M 1959 3097 
Q 1497 3097 1228 2736 
Q 959 2375 959 1747 
Q 959 1119 1226 758 
Q 1494 397 1959 397 
Q 2419 397 2687 759 
Q 2956 1122 2956 1747 
Q 2956 2369 2687 2733 
Q 2419 3097 1959 3097 
z
M 1959 3584 
Q 2709 3584 3137 3096 
Q 3566 2609 3566 1747 
Q 3566 888 3137 398 
Q 2709 -91 1959 -91 
Q 1206 -91 779 398 
Q 353 888 353 1747 
Q 353 2609 779 3096 
Q 1206 3584 1959 3584 
z
" transform="scale(0.015625)"/>
       <path id="DejaVuSans-67" d="M 2906 1791 
Q 2906 2416 2648 2759 
Q 2391 3103 1925 3103 
Q 1463 3103 1205 2759 
Q 947 2416 947 1791 
Q 947 1169 1205 825 
Q 1463 481 1925 481 
Q 2391 481 2648 825 
Q 2906 1169 2906 1791 
z
M 3481 434 
Q 3481 -459 3084 -895 
Q 2688 -1331 1869 -1331 
Q 1566 -1331 1297 -1286 
Q 1028 -1241 775 -1147 
L 775 -588 
Q 1028 -725 1275 -790 
Q 1522 -856 1778 -856 
Q 2344 -856 2625 -561 
Q 2906 -266 2906 331 
L 2906 616 
Q 2728 306 2450 153 
Q 2172 0 1784 0 
Q 1141 0 747 490 
Q 353 981 353 1791 
Q 353 2603 747 3093 
Q 1141 3584 1784 3584 
Q 2172 3584 2450 3431 
Q 2728 3278 2906 2969 
L 2906 3500 
L 3481 3500 
L 3481 434 
z
" transform="scale(0.015625)"/>
       <path id="DejaVuSans-31" d="M 794 531 
L 1825 531 
L 1825 4091 
L 703 3866 
L 703 4441 
L 1819 4666 
L 2450 4666 
L 2450 531 
L 3481 531 
L 3481 0 
L 794 0 
L 794 531 
z
" transform="scale(0.015625)"/>
       <path id="DejaVuSans-28" d="M 1984 4856 
Q 1566 4138 1362 3434 
Q 1159 2731 1159 2009 
Q 1159 1288 1364 580 
Q 1569 -128 1984 -844 
L 1484 -844 
Q 1016 -109 783 600 
Q 550 1309 550 2009 
Q 550 2706 781 3412 
Q 1013 4119 1484 4856 
L 1984 4856 
z
" transform="scale(0.015625)"/>
       <path id="DejaVuSans-23" d="M 3272 2816 
L 2363 2816 
L 2100 1772 
L 3016 1772 
L 3272 2816 
z
M 2803 4594 
L 2478 3297 
L 3391 3297 
L 3719 4594 
L 4219 4594 
L 3897 3297 
L 4872 3297 
L 4872 2816 
L 3775 2816 
L 3519 1772 
L 4513 1772 
L 4513 1294 
L 3397 1294 
L 3072 0 
L 2572 0 
L 2894 1294 
L 1978 1294 
L 1656 0 
L 1153 0 
L 1478 1294 
L 494 1294 
L 494 1772 
L 1594 1772 
L 1856 2816 
L 850 2816 
L 850 3297 
L 1978 3297 
L 2297 4594 
L 2803 4594 
z
" transform="scale(0.015625)"/>
       <path id="DejaVuSans-20" transform="scale(0.015625)"/>
       <path id="DejaVuSans-66" d="M 2375 4863 
L 2375 4384 
L 1825 4384 
Q 1516 4384 1395 4259 
Q 1275 4134 1275 3809 
L 1275 3500 
L 2222 3500 
L 2222 3053 
L 1275 3053 
L 1275 0 
L 697 0 
L 697 3053 
L 147 3053 
L 147 3500 
L 697 3500 
L 697 3744 
Q 697 4328 969 4595 
Q 1241 4863 1831 4863 
L 2375 4863 
z
" transform="scale(0.015625)"/>
       <path id="DejaVuSans-2d" d="M 313 2009 
L 1997 2009 
L 1997 1497 
L 313 1497 
L 313 2009 
z
" transform="scale(0.015625)"/>
       <path id="DejaVuSans-65" d="M 3597 1894 
L 3597 1613 
L 953 1613 
Q 991 1019 1311 708 
Q 1631 397 2203 397 
Q 2534 397 2845 478 
Q 3156 559 3463 722 
L 3463 178 
Q 3153 47 2828 -22 
Q 2503 -91 2169 -91 
Q 1331 -91 842 396 
Q 353 884 353 1716 
Q 353 2575 817 3079 
Q 1281 3584 2069 3584 
Q 2775 3584 3186 3129 
Q 3597 2675 3597 1894 
z
M 3022 2063 
Q 3016 2534 2758 2815 
Q 2500 3097 2075 3097 
Q 1594 3097 1305 2825 
Q 1016 2553 972 2059 
L 3022 2063 
z
" transform="scale(0.015625)"/>
       <path id="DejaVuSans-76" d="M 191 3500 
L 800 3500 
L 1894 563 
L 2988 3500 
L 3597 3500 
L 2284 0 
L 1503 0 
L 191 3500 
z
" transform="scale(0.015625)"/>
       <path id="DejaVuSans-61" d="M 2194 1759 
Q 1497 1759 1228 1600 
Q 959 1441 959 1056 
Q 959 750 1161 570 
Q 1363 391 1709 391 
Q 2188 391 2477 730 
Q 2766 1069 2766 1631 
L 2766 1759 
L 2194 1759 
z
M 3341 1997 
L 3341 0 
L 2766 0 
L 2766 531 
Q 2569 213 2275 61 
Q 1981 -91 1556 -91 
Q 1019 -91 701 211 
Q 384 513 384 1019 
Q 384 1609 779 1909 
Q 1175 2209 1959 2209 
L 2766 2209 
L 2766 2266 
Q 2766 2663 2505 2880 
Q 2244 3097 1772 3097 
Q 1472 3097 1187 3025 
Q 903 2953 641 2809 
L 641 3341 
Q 956 3463 1253 3523 
Q 1550 3584 1831 3584 
Q 2591 3584 2966 3190 
Q 3341 2797 3341 1997 
z
" transform="scale(0.015625)"/>
       <path id="DejaVuSans-73" d="M 2834 3397 
L 2834 2853 
Q 2591 2978 2328 3040 
Q 2066 3103 1784 3103 
Q 1356 3103 1142 2972 
Q 928 2841 928 2578 
Q 928 2378 1081 2264 
Q 1234 2150 1697 2047 
L 1894 2003 
Q 2506 1872 2764 1633 
Q 3022 1394 3022 966 
Q 3022 478 2636 193 
Q 2250 -91 1575 -91 
Q 1294 -91 989 -36 
Q 684 19 347 128 
L 347 722 
Q 666 556 975 473 
Q 1284 391 1588 391 
Q 1994 391 2212 530 
Q 2431 669 2431 922 
Q 2431 1156 2273 1281 
Q 2116 1406 1581 1522 
L 1381 1569 
Q 847 1681 609 1914 
Q 372 2147 372 2553 
Q 372 3047 722 3315 
Q 1072 3584 1716 3584 
Q 2034 3584 2315 3537 
Q 2597 3491 2834 3397 
z
" transform="scale(0.015625)"/>
       <path id="DejaVuSans-2f" d="M 1625 4666 
L 2156 4666 
L 531 -594 
L 0 -594 
L 1625 4666 
z
" transform="scale(0.015625)"/>
       <path id="DejaVuSans-64" d="M 2906 2969 
L 2906 4863 
L 3481 4863 
L 3481 0 
L 2906 0 
L 2906 525 
Q 2725 213 2448 61 
Q 2172 -91 1784 -91 
Q 1150 -91 751 415 
Q 353 922 353 1747 
Q 353 2572 751 3078 
Q 1150 3584 1784 3584 
Q 2172 3584 2448 3432 
Q 2725 3281 2906 2969 
z
M 947 1747 
Q 947 1113 1208 752 
Q 1469 391 1925 391 
Q 2381 391 2643 752 
Q 2906 1113 2906 1747 
Q 2906 2381 2643 2742 
Q 2381 3103 1925 3103 
Q 1469 3103 1208 2742 
Q 947 2381 947 1747 
z
" transform="scale(0.015625)"/>
       <path id="DejaVuSans-69" d="M 603 3500 
L 1178 3500 
L 1178 0 
L 603 0 
L 603 3500 
z
M 603 4863 
L 1178 4863 
L 1178 4134 
L 603 4134 
L 603 4863 
z
" transform="scale(0.015625)"/>
       <path id="DejaVuSans-6d" d="M 3328 2828 
Q 3544 3216 3844 3400 
Q 4144 3584 4550 3584 
Q 5097 3584 5394 3201 
Q 5691 2819 5691 2113 
L 5691 0 
L 5113 0 
L 5113 2094 
Q 5113 2597 4934 2840 
Q 4756 3084 4391 3084 
Q 3944 3084 3684 2787 
Q 3425 2491 3425 1978 
L 3425 0 
L 2847 0 
L 2847 2094 
Q 2847 2600 2669 2842 
Q 2491 3084 2119 3084 
Q 1678 3084 1418 2786 
Q 1159 2488 1159 1978 
L 1159 0 
L 581 0 
L 581 3500 
L 1159 3500 
L 1159 2956 
Q 1356 3278 1631 3431 
Q 1906 3584 2284 3584 
Q 2666 3584 2933 3390 
Q 3200 3197 3328 2828 
z
" transform="scale(0.015625)"/>
       <path id="DejaVuSans-6e" d="M 3513 2113 
L 3513 0 
L 2938 0 
L 2938 2094 
Q 2938 2591 2744 2837 
Q 2550 3084 2163 3084 
Q 1697 3084 1428 2787 
Q 1159 2491 1159 1978 
L 1159 0 
L 581 0 
L 581 3500 
L 1159 3500 
L 1159 2956 
Q 1366 3272 1645 3428 
Q 1925 3584 2291 3584 
Q 2894 3584 3203 3211 
Q 3513 2838 3513 2113 
z
" transform="scale(0.015625)"/>
       <path id="DejaVuSans-29" d="M 513 4856 
L 1013 4856 
Q 1481 4119 1714 3412 
Q 1947 2706 1947 2009 
Q 1947 1309 1714 600 
Q 1481 -109 1013 -844 
L 513 -844 
Q 928 -128 1133 580 
Q 1338 1288 1338 2009 
Q 1338 2731 1133 3434 
Q 928 4138 513 4856 
z
" transform="scale(0.015625)"/>
      </defs>
      <use xlink:href="#DejaVuSans-6c"/>
      <use xlink:href="#DejaVuSans-6f" x="27.783203"/>
      <use xlink:href="#DejaVuSans-67" x="88.964844"/>
      <use xlink:href="#DejaVuSans-31" x="152.441406"/>
      <use xlink:href="#DejaVuSans-30" x="216.064453"/>
      <use xlink:href="#DejaVuSans-28" x="279.6875"/>
      <use xlink:href="#DejaVuSans-23" x="318.701172"/>
      <use xlink:href="#DejaVuSans-20" x="402.490234"/>
      <use xlink:href="#DejaVuSans-66" x="434.277344"/>
      <use xlink:href="#DejaVuSans-2d" x="463.982422"/>
      <use xlink:href="#DejaVuSans-65" x="500.066406"/>
      <use xlink:href="#DejaVuSans-76" x="561.589844"/>
      <use xlink:href="#DejaVuSans-61" x="620.769531"/>
      <use xlink:href="#DejaVuSans-6c" x="682.048828"/>
      <use xlink:href="#DejaVuSans-73" x="709.832031"/>
      <use xlink:href="#DejaVuSans-20" x="761.931641"/>
      <use xlink:href="#DejaVuSans-2f" x="793.71875"/>
      <use xlink:href="#DejaVuSans-20" x="827.410156"/>
      <use xlink:href="#DejaVuSans-64" x="859.197266"/>
      <use xlink:href="#DejaVuSans-69" x="922.673828"/>
      <use xlink:href="#DejaVuSans-6d" x="950.457031"/>
      <use xlink:href="#DejaVuSans-65" x="1047.869141"/>
      <use xlink:href="#DejaVuSans-6e" x="1109.392578"/>
      <use xlink:href="#DejaVuSans-73" x="1172.771484"/>
      <use xlink:href="#DejaVuSans-69" x="1224.871094"/>
      <use xlink:href="#DejaVuSans-6f" x="1252.654297"/>
      <use xlink:href="#DejaVuSans-6e" x="1313.835938"/>
      <use xlink:href="#DejaVuSans-29" x="1377.214844"/>
     </g>
    </g>
   </g>
   <g id="matplotlib.axis_2">
    <g id="ytick_1">
     <g id="line2d_21">
      <path d="M 57.6 298.944 
L 360.8064 298.944 
" clip-path="url(#p0209240d17)" style="fill: none; stroke: #b0b0b0; stroke-width: 0.8; stroke-linecap: square"/>
     </g>
     <g id="line2d_22">
      <defs>
       <path id="mff69693cbc" d="M 0 0 
L -3.5 0 
" style="stroke: #000000; stroke-width: 0.8"/>
      </defs>
      <g>
       <use xlink:href="#mff69693cbc" x="57.6" y="298.944" style="stroke: #000000; stroke-width: 0.8"/>
      </g>
     </g>
     <g id="text_6">
      <!-- 0.0 -->
      <g transform="translate(25.155 305.02275) scale(0.16 -0.16)">
       <defs>
        <path id="DejaVuSans-2e" d="M 684 794 
L 1344 794 
L 1344 0 
L 684 0 
L 684 794 
z
" transform="scale(0.015625)"/>
       </defs>
       <use xlink:href="#DejaVuSans-30"/>
       <use xlink:href="#DejaVuSans-2e" x="63.623047"/>
       <use xlink:href="#DejaVuSans-30" x="95.410156"/>
      </g>
     </g>
    </g>
    <g id="ytick_2">
     <g id="line2d_23">
      <path d="M 57.6 240.5376 
L 360.8064 240.5376 
" clip-path="url(#p0209240d17)" style="fill: none; stroke: #b0b0b0; stroke-width: 0.8; stroke-linecap: square"/>
     </g>
     <g id="line2d_24">
      <g>
       <use xlink:href="#mff69693cbc" x="57.6" y="240.5376" style="stroke: #000000; stroke-width: 0.8"/>
      </g>
     </g>
     <g id="text_7">
      <!-- 0.2 -->
      <g transform="translate(25.155 246.61635) scale(0.16 -0.16)">
       <use xlink:href="#DejaVuSans-30"/>
       <use xlink:href="#DejaVuSans-2e" x="63.623047"/>
       <use xlink:href="#DejaVuSans-32" x="95.410156"/>
      </g>
     </g>
    </g>
    <g id="ytick_3">
     <g id="line2d_25">
      <path d="M 57.6 182.1312 
L 360.8064 182.1312 
" clip-path="url(#p0209240d17)" style="fill: none; stroke: #b0b0b0; stroke-width: 0.8; stroke-linecap: square"/>
     </g>
     <g id="line2d_26">
      <g>
       <use xlink:href="#mff69693cbc" x="57.6" y="182.1312" style="stroke: #000000; stroke-width: 0.8"/>
      </g>
     </g>
     <g id="text_8">
      <!-- 0.4 -->
      <g transform="translate(25.155 188.20995) scale(0.16 -0.16)">
       <use xlink:href="#DejaVuSans-30"/>
       <use xlink:href="#DejaVuSans-2e" x="63.623047"/>
       <use xlink:href="#DejaVuSans-34" x="95.410156"/>
      </g>
     </g>
    </g>
    <g id="ytick_4">
     <g id="line2d_27">
      <path d="M 57.6 123.7248 
L 360.8064 123.7248 
" clip-path="url(#p0209240d17)" style="fill: none; stroke: #b0b0b0; stroke-width: 0.8; stroke-linecap: square"/>
     </g>
     <g id="line2d_28">
      <g>
       <use xlink:href="#mff69693cbc" x="57.6" y="123.7248" style="stroke: #000000; stroke-width: 0.8"/>
      </g>
     </g>
     <g id="text_9">
      <!-- 0.6 -->
      <g transform="translate(25.155 129.80355) scale(0.16 -0.16)">
       <use xlink:href="#DejaVuSans-30"/>
       <use xlink:href="#DejaVuSans-2e" x="63.623047"/>
       <use xlink:href="#DejaVuSans-36" x="95.410156"/>
      </g>
     </g>
    </g>
    <g id="ytick_5">
     <g id="line2d_29">
      <path d="M 57.6 65.3184 
L 360.8064 65.3184 
" clip-path="url(#p0209240d17)" style="fill: none; stroke: #b0b0b0; stroke-width: 0.8; stroke-linecap: square"/>
     </g>
     <g id="line2d_30">
      <g>
       <use xlink:href="#mff69693cbc" x="57.6" y="65.3184" style="stroke: #000000; stroke-width: 0.8"/>
      </g>
     </g>
     <g id="text_10">
      <!-- 0.8 -->
      <g transform="translate(25.155 71.39715) scale(0.16 -0.16)">
       <defs>
        <path id="DejaVuSans-38" d="M 2034 2216 
Q 1584 2216 1326 1975 
Q 1069 1734 1069 1313 
Q 1069 891 1326 650 
Q 1584 409 2034 409 
Q 2484 409 2743 651 
Q 3003 894 3003 1313 
Q 3003 1734 2745 1975 
Q 2488 2216 2034 2216 
z
M 1403 2484 
Q 997 2584 770 2862 
Q 544 3141 544 3541 
Q 544 4100 942 4425 
Q 1341 4750 2034 4750 
Q 2731 4750 3128 4425 
Q 3525 4100 3525 3541 
Q 3525 3141 3298 2862 
Q 3072 2584 2669 2484 
Q 3125 2378 3379 2068 
Q 3634 1759 3634 1313 
Q 3634 634 3220 271 
Q 2806 -91 2034 -91 
Q 1263 -91 848 271 
Q 434 634 434 1313 
Q 434 1759 690 2068 
Q 947 2378 1403 2484 
z
M 1172 3481 
Q 1172 3119 1398 2916 
Q 1625 2713 2034 2713 
Q 2441 2713 2670 2916 
Q 2900 3119 2900 3481 
Q 2900 3844 2670 4047 
Q 2441 4250 2034 4250 
Q 1625 4250 1398 4047 
Q 1172 3844 1172 3481 
z
" transform="scale(0.015625)"/>
       </defs>
       <use xlink:href="#DejaVuSans-30"/>
       <use xlink:href="#DejaVuSans-2e" x="63.623047"/>
       <use xlink:href="#DejaVuSans-38" x="95.410156"/>
      </g>
     </g>
    </g>
    <g id="ytick_6">
     <g id="line2d_31">
      <path d="M 57.6 6.912 
L 360.8064 6.912 
" clip-path="url(#p0209240d17)" style="fill: none; stroke: #b0b0b0; stroke-width: 0.8; stroke-linecap: square"/>
     </g>
     <g id="line2d_32">
      <g>
       <use xlink:href="#mff69693cbc" x="57.6" y="6.912" style="stroke: #000000; stroke-width: 0.8"/>
      </g>
     </g>
     <g id="text_11">
      <!-- 1.0 -->
      <g transform="translate(25.155 12.99075) scale(0.16 -0.16)">
       <use xlink:href="#DejaVuSans-31"/>
       <use xlink:href="#DejaVuSans-2e" x="63.623047"/>
       <use xlink:href="#DejaVuSans-30" x="95.410156"/>
      </g>
     </g>
    </g>
    <g id="text_12">
     <!-- Fraction of function,target pairs -->
     <g transform="translate(17.619531 287.313) rotate(-90) scale(0.17 -0.17)">
      <defs>
       <path id="DejaVuSans-46" d="M 628 4666 
L 3309 4666 
L 3309 4134 
L 1259 4134 
L 1259 2759 
L 3109 2759 
L 3109 2228 
L 1259 2228 
L 1259 0 
L 628 0 
L 628 4666 
z
" transform="scale(0.015625)"/>
       <path id="DejaVuSans-72" d="M 2631 2963 
Q 2534 3019 2420 3045 
Q 2306 3072 2169 3072 
Q 1681 3072 1420 2755 
Q 1159 2438 1159 1844 
L 1159 0 
L 581 0 
L 581 3500 
L 1159 3500 
L 1159 2956 
Q 1341 3275 1631 3429 
Q 1922 3584 2338 3584 
Q 2397 3584 2469 3576 
Q 2541 3569 2628 3553 
L 2631 2963 
z
" transform="scale(0.015625)"/>
       <path id="DejaVuSans-63" d="M 3122 3366 
L 3122 2828 
Q 2878 2963 2633 3030 
Q 2388 3097 2138 3097 
Q 1578 3097 1268 2742 
Q 959 2388 959 1747 
Q 959 1106 1268 751 
Q 1578 397 2138 397 
Q 2388 397 2633 464 
Q 2878 531 3122 666 
L 3122 134 
Q 2881 22 2623 -34 
Q 2366 -91 2075 -91 
Q 1284 -91 818 406 
Q 353 903 353 1747 
Q 353 2603 823 3093 
Q 1294 3584 2113 3584 
Q 2378 3584 2631 3529 
Q 2884 3475 3122 3366 
z
" transform="scale(0.015625)"/>
       <path id="DejaVuSans-74" d="M 1172 4494 
L 1172 3500 
L 2356 3500 
L 2356 3053 
L 1172 3053 
L 1172 1153 
Q 1172 725 1289 603 
Q 1406 481 1766 481 
L 2356 481 
L 2356 0 
L 1766 0 
Q 1100 0 847 248 
Q 594 497 594 1153 
L 594 3053 
L 172 3053 
L 172 3500 
L 594 3500 
L 594 4494 
L 1172 4494 
z
" transform="scale(0.015625)"/>
       <path id="DejaVuSans-75" d="M 544 1381 
L 544 3500 
L 1119 3500 
L 1119 1403 
Q 1119 906 1312 657 
Q 1506 409 1894 409 
Q 2359 409 2629 706 
Q 2900 1003 2900 1516 
L 2900 3500 
L 3475 3500 
L 3475 0 
L 2900 0 
L 2900 538 
Q 2691 219 2414 64 
Q 2138 -91 1772 -91 
Q 1169 -91 856 284 
Q 544 659 544 1381 
z
M 1991 3584 
L 1991 3584 
z
" transform="scale(0.015625)"/>
       <path id="DejaVuSans-2c" d="M 750 794 
L 1409 794 
L 1409 256 
L 897 -744 
L 494 -744 
L 750 256 
L 750 794 
z
" transform="scale(0.015625)"/>
       <path id="DejaVuSans-70" d="M 1159 525 
L 1159 -1331 
L 581 -1331 
L 581 3500 
L 1159 3500 
L 1159 2969 
Q 1341 3281 1617 3432 
Q 1894 3584 2278 3584 
Q 2916 3584 3314 3078 
Q 3713 2572 3713 1747 
Q 3713 922 3314 415 
Q 2916 -91 2278 -91 
Q 1894 -91 1617 61 
Q 1341 213 1159 525 
z
M 3116 1747 
Q 3116 2381 2855 2742 
Q 2594 3103 2138 3103 
Q 1681 3103 1420 2742 
Q 1159 2381 1159 1747 
Q 1159 1113 1420 752 
Q 1681 391 2138 391 
Q 2594 391 2855 752 
Q 3116 1113 3116 1747 
z
" transform="scale(0.015625)"/>
      </defs>
      <use xlink:href="#DejaVuSans-46"/>
      <use xlink:href="#DejaVuSans-72" x="50.269531"/>
      <use xlink:href="#DejaVuSans-61" x="91.382812"/>
      <use xlink:href="#DejaVuSans-63" x="152.662109"/>
      <use xlink:href="#DejaVuSans-74" x="207.642578"/>
      <use xlink:href="#DejaVuSans-69" x="246.851562"/>
      <use xlink:href="#DejaVuSans-6f" x="274.634766"/>
      <use xlink:href="#DejaVuSans-6e" x="335.816406"/>
      <use xlink:href="#DejaVuSans-20" x="399.195312"/>
      <use xlink:href="#DejaVuSans-6f" x="430.982422"/>
      <use xlink:href="#DejaVuSans-66" x="492.164062"/>
      <use xlink:href="#DejaVuSans-20" x="527.369141"/>
      <use xlink:href="#DejaVuSans-66" x="559.15625"/>
      <use xlink:href="#DejaVuSans-75" x="594.361328"/>
      <use xlink:href="#DejaVuSans-6e" x="657.740234"/>
      <use xlink:href="#DejaVuSans-63" x="721.119141"/>
      <use xlink:href="#DejaVuSans-74" x="776.099609"/>
      <use xlink:href="#DejaVuSans-69" x="815.308594"/>
      <use xlink:href="#DejaVuSans-6f" x="843.091797"/>
      <use xlink:href="#DejaVuSans-6e" x="904.273438"/>
      <use xlink:href="#DejaVuSans-2c" x="967.652344"/>
      <use xlink:href="#DejaVuSans-74" x="999.439453"/>
      <use xlink:href="#DejaVuSans-61" x="1038.648438"/>
      <use xlink:href="#DejaVuSans-72" x="1099.927734"/>
      <use xlink:href="#DejaVuSans-67" x="1139.291016"/>
      <use xlink:href="#DejaVuSans-65" x="1202.767578"/>
      <use xlink:href="#DejaVuSans-74" x="1264.291016"/>
      <use xlink:href="#DejaVuSans-20" x="1303.5"/>
      <use xlink:href="#DejaVuSans-70" x="1335.287109"/>
      <use xlink:href="#DejaVuSans-61" x="1398.763672"/>
      <use xlink:href="#DejaVuSans-69" x="1460.042969"/>
      <use xlink:href="#DejaVuSans-72" x="1487.826172"/>
      <use xlink:href="#DejaVuSans-73" x="1528.939453"/>
     </g>
    </g>
   </g>
   <g id="line2d_33">
    <defs>
     <path id="m706ab8dab4" d="M 0 1.5 
C 0.397805 1.5 0.77937 1.341951 1.06066 1.06066 
C 1.341951 0.77937 1.5 0.397805 1.5 0 
C 1.5 -0.397805 1.341951 -0.77937 1.06066 -1.06066 
C 0.77937 -1.341951 0.397805 -1.5 0 -1.5 
C -0.397805 -1.5 -0.77937 -1.341951 -1.06066 -1.06066 
C -1.341951 -0.77937 -1.5 -0.397805 -1.5 0 
C -1.5 0.397805 -1.341951 0.77937 -1.06066 1.06066 
C -0.77937 1.341951 -0.397805 1.5 0 1.5 
z
" style="stroke: #f5deb3"/>
    </defs>
    <g>
     <use xlink:href="#m706ab8dab4" x="136.385386" y="6.912" style="fill: #f5deb3; stroke: #f5deb3"/>
     <use xlink:href="#m706ab8dab4" x="136.385386" y="6.912" style="fill: #f5deb3; stroke: #f5deb3"/>
    </g>
   </g>
   <g id="line2d_34">
    <defs>
     <path id="meda3640ead" d="M 0 1.5 
C 0.397805 1.5 0.77937 1.341951 1.06066 1.06066 
C 1.341951 0.77937 1.5 0.397805 1.5 0 
C 1.5 -0.397805 1.341951 -0.77937 1.06066 -1.06066 
C 0.77937 -1.341951 0.397805 -1.5 0 -1.5 
C -0.397805 -1.5 -0.77937 -1.341951 -1.06066 -1.06066 
C -1.341951 -0.77937 -1.5 -0.397805 -1.5 0 
C -1.5 0.397805 -1.341951 0.77937 -1.06066 1.06066 
C -0.77937 1.341951 -0.397805 1.5 0 1.5 
z
" style="stroke: #000080"/>
    </defs>
    <g>
     <use xlink:href="#meda3640ead" x="184.98631" y="7.9936" style="fill: #000080; stroke: #000080"/>
     <use xlink:href="#meda3640ead" x="184.98631" y="7.9936" style="fill: #000080; stroke: #000080"/>
    </g>
   </g>
   <g id="line2d_35">
    <path d="M 14.2848 298.944 
L 14.2848 278.3936 
L 27.323974 278.3936 
L 27.323974 275.1488 
L 53.402323 275.1488 
L 53.402323 272.9856 
L 70.639174 272.9856 
L 70.639174 271.904 
L 75.574654 271.904 
L 75.574654 269.7408 
L 79.480672 269.7408 
L 79.480672 264.3328 
L 87.876026 264.3328 
L 87.876026 262.1696 
L 90.007914 262.1696 
L 90.007914 261.088 
L 93.66029 261.088 
L 93.66029 260.0064 
L 94.735529 260.0064 
L 94.735529 258.9248 
L 95.250946 258.9248 
L 95.250946 257.8432 
L 97.635342 257.8432 
L 97.635342 256.7616 
L 98.933205 256.7616 
L 98.933205 255.68 
L 100.147275 255.68 
L 100.147275 253.5168 
L 100.535156 253.5168 
L 100.535156 251.3536 
L 100.9152 251.3536 
L 100.9152 250.272 
L 102.011329 250.272 
L 102.011329 249.1904 
L 104.028784 249.1904 
L 104.028784 248.1088 
L 104.344952 248.1088 
L 104.344952 247.0272 
L 106.699465 247.0272 
L 106.699465 245.9456 
L 108.542628 245.9456 
L 108.542628 243.7824 
L 108.791791 243.7824 
L 108.791791 241.6192 
L 109.756698 241.6192 
L 109.756698 240.5376 
L 111.334639 240.5376 
L 111.334639 239.456 
L 112.180244 239.456 
L 112.180244 238.3744 
L 116.253478 238.3744 
L 116.253478 237.2928 
L 117.540239 237.2928 
L 117.540239 236.2112 
L 118.152051 236.2112 
L 118.152051 235.1296 
L 119.319033 235.1296 
L 119.319033 234.048 
L 119.599808 234.048 
L 119.599808 232.9664 
L 119.738639 232.9664 
L 119.738639 231.8848 
L 119.944983 231.8848 
L 119.944983 230.8032 
L 120.48442 230.8032 
L 120.48442 229.7216 
L 120.879082 229.7216 
L 120.879082 228.64 
L 121.581803 228.64 
L 121.581803 227.5584 
L 122.259215 227.5584 
L 122.259215 226.4768 
L 124.046648 226.4768 
L 124.046648 225.3952 
L 124.265389 225.3952 
L 124.265389 224.3136 
L 124.959227 224.3136 
L 125.063736 222.1504 
L 125.425011 222.1504 
L 125.425011 221.0688 
L 125.577745 221.0688 
L 125.577745 219.9872 
L 126.176572 219.9872 
L 126.176572 218.9056 
L 126.323346 218.9056 
L 126.323346 217.824 
L 126.851931 217.824 
L 126.851931 216.7424 
L 127.040519 216.7424 
L 127.040519 215.6608 
L 127.319904 215.6608 
L 127.319904 214.5792 
L 127.956104 214.5792 
L 128.045258 211.3344 
L 128.222309 211.3344 
L 128.222309 210.2528 
L 128.614685 210.2528 
L 128.700779 208.0896 
L 128.786481 208.0896 
L 128.829186 205.9264 
L 129.041269 205.9264 
L 129.041269 204.8448 
L 129.54072 204.8448 
L 129.54072 203.7632 
L 129.744974 203.7632 
L 129.744974 202.6816 
L 129.86647 202.6816 
L 129.86647 201.6 
L 130.067235 201.6 
L 130.067235 200.5184 
L 131.63737 200.5184 
L 131.63737 199.4368 
L 131.856536 199.4368 
L 131.965169 197.2736 
L 132.251827 197.2736 
L 132.322814 195.1104 
L 132.534182 195.1104 
L 132.638982 192.9472 
L 132.743202 192.9472 
L 132.743202 191.8656 
L 132.915628 191.8656 
L 132.915628 190.784 
L 133.05244 190.784 
L 133.05244 189.7024 
L 133.289492 189.7024 
L 133.289492 188.6208 
L 133.556801 188.6208 
L 133.623039 186.4576 
L 133.72196 186.4576 
L 133.820365 182.1312 
L 133.950775 182.1312 
L 133.950775 181.0496 
L 135.449003 181.0496 
L 135.508912 178.8864 
L 135.657857 178.8864 
L 135.657857 177.8048 
L 135.805631 177.8048 
L 135.835047 175.6416 
L 136.555884 175.6416 
L 136.555884 174.56 
L 136.724851 174.56 
L 136.752866 172.3968 
L 136.864507 172.3968 
L 136.892314 170.2336 
L 137.030737 170.2336 
L 137.030737 169.152 
L 137.547645 169.152 
L 137.547645 166.9888 
L 138.024583 166.9888 
L 138.024583 165.9072 
L 138.387352 165.9072 
L 138.438609 163.744 
L 138.515235 163.744 
L 138.616919 161.5808 
L 138.89375 161.5808 
L 138.993414 159.4176 
L 139.313723 159.4176 
L 139.313723 158.336 
L 139.508159 158.336 
L 139.508159 157.2544 
L 139.77227 157.2544 
L 139.77227 156.1728 
L 140.219905 156.1728 
L 140.312801 154.0096 
L 140.49723 154.0096 
L 140.49723 152.928 
L 141.349389 152.928 
L 141.436884 150.7648 
L 141.65386 150.7648 
L 141.65386 149.6832 
L 142.518184 149.6832 
L 142.518184 148.6016 
L 142.702713 148.6016 
L 142.702713 147.52 
L 142.925817 147.52 
L 142.986208 145.3568 
L 143.146307 145.3568 
L 143.146307 143.1936 
L 143.265494 143.1936 
L 143.324805 141.0304 
L 143.657415 141.0304 
L 143.657415 139.9488 
L 144.06033 139.9488 
L 144.06033 138.8672 
L 144.547509 138.8672 
L 144.547509 137.7856 
L 145.201889 137.7856 
L 145.273213 134.5408 
L 145.93763 134.5408 
L 146.023332 132.3776 
L 146.412609 132.3776 
L 146.496179 130.2144 
L 146.662213 130.2144 
L 146.662213 129.1328 
L 146.892226 129.1328 
L 146.892226 128.0512 
L 147.070998 128.0512 
L 147.119461 125.888 
L 147.691478 125.888 
L 147.73837 123.7248 
L 147.940229 123.7248 
L 147.940229 122.6432 
L 148.503173 122.6432 
L 148.503173 121.5616 
L 148.771063 121.5616 
L 148.771063 120.48 
L 149.136916 120.48 
L 149.136916 119.3984 
L 149.495789 119.3984 
L 149.580909 117.2352 
L 149.945377 117.2352 
L 149.945377 116.1536 
L 150.221009 116.1536 
L 150.221009 115.072 
L 150.932483 115.072 
L 151.024471 112.9088 
L 151.168122 112.9088 
L 151.207109 110.7456 
L 151.477784 110.7456 
L 151.579882 107.5008 
L 151.920429 107.5008 
L 151.920429 106.4192 
L 152.094611 106.4192 
L 152.119363 104.256 
L 152.267196 104.256 
L 152.267196 103.1744 
L 152.523139 103.1744 
L 152.523139 102.0928 
L 152.787587 102.0928 
L 152.787587 101.0112 
L 153.036593 101.0112 
L 153.036593 99.9296 
L 153.282346 99.9296 
L 153.282346 98.848 
L 153.684932 98.848 
L 153.730398 96.6848 
L 154.278618 96.6848 
L 154.278618 95.6032 
L 154.454223 95.6032 
L 154.454223 94.5216 
L 154.832738 94.5216 
L 154.86483 92.3584 
L 155.371001 92.3584 
L 155.391799 90.1952 
L 155.802997 90.1952 
L 155.843627 88.032 
L 156.095593 88.032 
L 156.095593 86.9504 
L 156.235234 86.9504 
L 156.235234 85.8688 
L 156.43294 85.8688 
L 156.43294 84.7872 
L 156.68689 84.7872 
L 156.68689 83.7056 
L 156.812591 83.7056 
L 156.860715 81.5424 
L 157.09001 81.5424 
L 157.09001 80.4608 
L 157.231914 80.4608 
L 157.231914 79.3792 
L 157.807349 79.3792 
L 157.880333 76.1344 
L 157.962102 76.1344 
L 158.061563 73.9712 
L 158.133569 73.9712 
L 158.214248 71.808 
L 158.436556 71.808 
L 158.436556 70.7264 
L 159.266613 70.7264 
L 159.291971 68.5632 
L 159.54369 68.5632 
L 159.601943 66.4 
L 159.668298 66.4 
L 159.668298 65.3184 
L 160.303279 65.3184 
L 160.303279 64.2368 
L 160.4627 64.2368 
L 160.4627 63.1552 
L 160.605032 63.1552 
L 160.667947 60.992 
L 160.82432 60.992 
L 160.902022 57.7472 
L 160.948489 57.7472 
L 160.948489 56.6656 
L 161.224909 56.6656 
L 161.285788 53.4208 
L 161.369176 53.4208 
L 161.369176 52.3392 
L 161.497325 52.3392 
L 161.527352 50.176 
L 162.045202 50.176 
L 162.081651 48.0128 
L 163.067666 48.0128 
L 163.11598 44.768 
L 163.267023 44.768 
L 163.267023 43.6864 
L 163.59242 43.6864 
L 163.59242 42.6048 
L 163.912284 42.6048 
L 163.912284 41.5232 
L 164.135608 41.5232 
L 164.135608 40.4416 
L 164.336942 40.4416 
L 164.336942 39.36 
L 164.478528 39.36 
L 164.478528 38.2784 
L 165.422585 38.2784 
L 165.422585 37.1968 
L 165.580463 37.1968 
L 165.580463 36.1152 
L 165.892297 36.1152 
L 165.92201 33.952 
L 166.466293 33.952 
L 166.518139 31.7888 
L 166.581313 31.7888 
L 166.615683 29.6256 
L 167.185004 29.6256 
L 167.23491 27.4624 
L 167.383837 27.4624 
L 167.383837 26.3808 
L 167.645719 26.3808 
L 167.645719 25.2992 
L 167.989318 25.2992 
L 167.989318 24.2176 
L 168.311071 24.2176 
L 168.311071 23.136 
L 168.436169 23.136 
L 168.493229 20.9728 
L 168.826913 20.9728 
L 168.826913 19.8912 
L 169.545722 19.8912 
L 169.653161 16.6464 
L 170.681267 16.6464 
L 170.681267 15.5648 
L 170.960436 15.5648 
L 170.960436 14.4832 
L 171.431479 14.4832 
L 171.431479 13.4016 
L 172.390182 13.4016 
L 172.390182 12.32 
L 173.859601 12.32 
L 173.859601 11.2384 
L 177.677313 11.2384 
L 177.677313 10.1568 
L 179.287889 10.1568 
L 179.287889 9.0752 
L 184.98631 9.0752 
L 184.98631 7.9936 
L 360.8064 7.9936 
L 360.8064 7.9936 
" style="fill: none; stroke: #000080; stroke-width: 1.5; stroke-linecap: square"/>
   </g>
   <g id="line2d_36">
    <defs>
     <path id="mfab7bcd749" d="M 0 6 
C 1.591219 6 3.117479 5.367802 4.242641 4.242641 
C 5.367802 3.117479 6 1.591219 6 0 
C 6 -1.591219 5.367802 -3.117479 4.242641 -4.242641 
C 3.117479 -5.367802 1.591219 -6 0 -6 
C -1.591219 -6 -3.117479 -5.367802 -4.242641 -4.242641 
C -5.367802 -3.117479 -6 -1.591219 -6 0 
C -6 1.591219 -5.367802 3.117479 -4.242641 4.242641 
C -3.117479 5.367802 -1.591219 6 0 6 
z
" style="stroke: #000080; stroke-width: 1.5"/>
    </defs>
    <g>
     <use xlink:href="#mfab7bcd749" x="137.030737" y="169.152" style="fill-opacity: 0; stroke: #000080; stroke-width: 1.5"/>
     <use xlink:href="#mfab7bcd749" x="165.892297" y="35.0336" style="fill-opacity: 0; stroke: #000080; stroke-width: 1.5"/>
     <use xlink:href="#mfab7bcd749" x="184.98631" y="9.0752" style="fill-opacity: 0; stroke: #000080; stroke-width: 1.5"/>
     <use xlink:href="#mfab7bcd749" x="184.98631" y="7.9936" style="fill-opacity: 0; stroke: #000080; stroke-width: 1.5"/>
     <use xlink:href="#mfab7bcd749" x="360.8064" y="7.9936" style="fill-opacity: 0; stroke: #000080; stroke-width: 1.5"/>
    </g>
   </g>
   <g id="line2d_37">
    <path style="fill: none; stroke: #000080; stroke-width: 1.5; stroke-linecap: square"/>
    <g/>
   </g>
   <g id="line2d_38">
    <path d="M 187.53431 7.9936 
" clip-path="url(#p0209240d17)" style="fill: none; stroke: #000080; stroke-width: 1.5; stroke-linecap: square"/>
    <defs>
     <path id="mcdba8a68e0" d="M -12 12 
L 12 -12 
M -12 -12 
L 12 12 
" style="stroke: #000080"/>
    </defs>
    <g clip-path="url(#p0209240d17)">
     <use xlink:href="#mcdba8a68e0" x="187.53431" y="7.9936" style="fill: #000080; stroke: #000080"/>
    </g>
   </g>
   <g id="line2d_39">
    <defs>
     <path id="mc14648678e" d="M 0 1.5 
C 0.397805 1.5 0.77937 1.341951 1.06066 1.06066 
C 1.341951 0.77937 1.5 0.397805 1.5 0 
C 1.5 -0.397805 1.341951 -0.77937 1.06066 -1.06066 
C 0.77937 -1.341951 0.397805 -1.5 0 -1.5 
C -0.397805 -1.5 -0.77937 -1.341951 -1.06066 -1.06066 
C -1.341951 -0.77937 -1.5 -0.397805 -1.5 0 
C -1.5 0.397805 -1.341951 0.77937 -1.06066 1.06066 
C -0.77937 1.341951 -0.397805 1.5 0 1.5 
z
" style="stroke: #ff00ff"/>
    </defs>
    <g>
     <use xlink:href="#mc14648678e" x="192.823782" y="9.0752" style="fill: #ff00ff; stroke: #ff00ff"/>
     <use xlink:href="#mc14648678e" x="192.823782" y="9.0752" style="fill: #ff00ff; stroke: #ff00ff"/>
    </g>
   </g>
   <g id="line2d_40">
    <path d="M 14.2848 298.944 
L 14.2848 278.3936 
L 27.323974 278.3936 
L 27.323974 276.2304 
L 50.890391 276.2304 
L 50.890391 270.8224 
L 61.029752 270.8224 
L 61.029752 269.7408 
L 72.432107 269.7408 
L 72.432107 263.2512 
L 76.284608 263.2512 
L 76.284608 260.0064 
L 82.211771 260.0064 
L 82.211771 254.5984 
L 84.596168 254.5984 
L 84.596168 251.3536 
L 89.323782 251.3536 
L 89.323782 250.272 
L 96.241256 250.272 
L 96.241256 249.1904 
L 99.751228 249.1904 
L 99.751228 248.1088 
L 101.653002 248.1088 
L 101.653002 247.0272 
L 103.047088 247.0272 
L 103.047088 245.9456 
L 106.42077 245.9456 
L 106.42077 244.864 
L 107.643612 244.864 
L 107.643612 243.7824 
L 107.904887 243.7824 
L 107.904887 242.7008 
L 111.54963 242.7008 
L 111.54963 241.6192 
L 112.283321 241.6192 
L 112.283321 240.5376 
L 112.487797 240.5376 
L 112.487797 239.456 
L 113.670063 239.456 
L 113.670063 238.3744 
L 116.419219 238.3744 
L 116.419219 237.2928 
L 117.305581 237.2928 
L 117.305581 236.2112 
L 118.152051 236.2112 
L 118.152051 235.1296 
L 118.376446 235.1296 
L 118.376446 234.048 
L 118.598196 234.048 
L 118.598196 232.9664 
L 119.319033 232.9664 
L 119.319033 231.8848 
L 119.944983 231.8848 
L 119.944983 230.8032 
L 121.644403 230.8032 
L 121.644403 229.7216 
L 122.319605 229.7216 
L 122.319605 228.64 
L 123.260379 228.64 
L 123.260379 227.5584 
L 124.101572 227.5584 
L 124.210942 225.3952 
L 124.588805 225.3952 
L 124.588805 224.3136 
L 124.906754 224.3136 
L 124.906754 223.232 
L 125.219419 223.232 
L 125.271028 219.9872 
L 126.225624 219.9872 
L 126.225624 218.9056 
L 126.468985 218.9056 
L 126.565455 216.7424 
L 126.899255 216.7424 
L 126.899255 215.6608 
L 127.18073 215.6608 
L 127.18073 214.5792 
L 127.5952 214.5792 
L 127.5952 213.4976 
L 128.089678 213.4976 
L 128.089678 212.416 
L 128.528195 212.416 
L 128.528195 211.3344 
L 129.167381 211.3344 
L 129.167381 210.2528 
L 129.458394 210.2528 
L 129.458394 209.1712 
L 129.78556 209.1712 
L 129.78556 208.0896 
L 130.226319 208.0896 
L 130.226319 207.008 
L 130.618241 207.008 
L 130.618241 205.9264 
L 130.926003 205.9264 
L 130.926003 204.8448 
L 131.489828 204.8448 
L 131.489828 203.7632 
L 132.073179 203.7632 
L 132.144842 201.6 
L 133.356676 201.6 
L 133.356676 200.5184 
L 134.240933 200.5184 
L 134.240933 199.4368 
L 134.526683 199.4368 
L 134.526683 198.3552 
L 134.808158 198.3552 
L 134.808158 197.2736 
L 136.155623 197.2736 
L 136.242113 195.1104 
L 136.385386 195.1104 
L 136.385386 194.0288 
L 136.612375 194.0288 
L 136.696795 191.8656 
L 136.892314 191.8656 
L 136.892314 190.784 
L 137.168148 190.784 
L 137.195511 186.4576 
L 137.304564 186.4576 
L 137.358854 184.2944 
L 137.574461 184.2944 
L 137.601239 182.1312 
L 137.972183 182.1312 
L 138.050729 179.968 
L 138.743257 179.968 
L 138.743257 178.8864 
L 139.435481 178.8864 
L 139.435481 177.8048 
L 139.867398 177.8048 
L 139.867398 176.7232 
L 139.985636 176.7232 
L 139.985636 175.6416 
L 140.196609 175.6416 
L 140.196609 174.56 
L 140.520157 174.56 
L 140.520157 173.4784 
L 141.523975 173.4784 
L 141.523975 172.3968 
L 141.84702 172.3968 
L 141.84702 171.3152 
L 142.185595 171.3152 
L 142.185595 170.2336 
L 142.966099 170.2336 
L 142.966099 169.152 
L 143.462475 169.152 
L 143.521169 166.9888 
L 143.754133 166.9888 
L 143.754133 165.9072 
L 144.639767 165.9072 
L 144.731576 163.744 
L 144.895711 163.744 
L 145.004344 161.5808 
L 145.112353 161.5808 
L 145.112353 160.4992 
L 145.503164 160.4992 
L 145.503164 159.4176 
L 145.971958 159.4176 
L 145.971958 158.336 
L 146.412609 158.336 
L 146.429353 156.1728 
L 146.529503 156.1728 
L 146.529503 155.0912 
L 146.728219 155.0912 
L 146.728219 154.0096 
L 146.843174 154.0096 
L 146.892226 151.8464 
L 147.167799 151.8464 
L 147.183884 149.6832 
L 147.924778 149.6832 
L 147.924778 148.6016 
L 148.063382 148.6016 
L 148.063382 147.52 
L 148.652472 147.52 
L 148.652472 146.4384 
L 148.785835 146.4384 
L 148.785835 145.3568 
L 149.750003 145.3568 
L 149.750003 144.2752 
L 150.302917 144.2752 
L 150.302917 143.1936 
L 150.425115 143.1936 
L 150.425115 142.112 
L 150.62703 142.112 
L 150.667154 139.9488 
L 150.800286 139.9488 
L 150.840043 137.7856 
L 151.656094 137.7856 
L 151.656094 136.704 
L 151.870365 136.704 
L 151.870365 135.6224 
L 152.377312 135.6224 
L 152.377312 134.5408 
L 153.328795 134.5408 
L 153.328795 133.4592 
L 153.978516 133.4592 
L 153.978516 132.3776 
L 154.090224 132.3776 
L 154.090224 131.296 
L 154.768388 131.296 
L 154.768388 130.2144 
L 155.485105 130.2144 
L 155.495444 128.0512 
L 155.934724 128.0512 
L 155.934724 126.9696 
L 156.413263 126.9696 
L 156.413263 125.888 
L 157.023421 125.888 
L 157.023421 124.8064 
L 157.213055 124.8064 
L 157.250754 122.6432 
L 157.382107 122.6432 
L 157.419468 120.48 
L 157.540383 120.48 
L 157.540383 119.3984 
L 158.699905 119.3984 
L 158.699905 118.3168 
L 159.291971 118.3168 
L 159.367841 116.1536 
L 160.375185 116.1536 
L 160.375185 115.072 
L 160.714996 115.072 
L 160.754113 112.9088 
L 160.894266 112.9088 
L 160.994842 110.7456 
L 161.125559 110.7456 
L 161.125559 109.664 
L 161.338896 109.664 
L 161.338896 108.5824 
L 161.572302 108.5824 
L 161.572302 107.5008 
L 161.817625 107.5008 
L 161.817625 106.4192 
L 162.06708 106.4192 
L 162.06708 105.3376 
L 162.894094 105.3376 
L 162.894094 104.256 
L 163.005365 104.256 
L 163.005365 103.1744 
L 163.7397 103.1744 
L 163.7397 102.0928 
L 163.91889 102.0928 
L 163.96507 99.9296 
L 164.452864 99.9296 
L 164.452864 98.848 
L 164.915805 98.848 
L 164.965852 96.6848 
L 165.760997 96.6848 
L 165.760997 95.6032 
L 166.655701 95.6032 
L 166.763896 93.44 
L 167.279159 93.44 
L 167.279159 92.3584 
L 167.444174 92.3584 
L 167.466067 90.1952 
L 168.415377 90.1952 
L 168.415377 89.1136 
L 169.692078 89.1136 
L 169.784185 86.9504 
L 169.842126 86.9504 
L 169.842126 85.8688 
L 169.957476 85.8688 
L 169.957476 84.7872 
L 170.252229 84.7872 
L 170.318152 82.624 
L 170.533144 82.624 
L 170.533144 81.5424 
L 170.704306 81.5424 
L 170.704306 80.4608 
L 171.118765 80.4608 
L 171.181725 78.2976 
L 171.253422 78.2976 
L 171.253422 77.216 
L 171.795656 77.216 
L 171.860725 73.9712 
L 172.123046 73.9712 
L 172.144386 71.808 
L 172.732295 71.808 
L 172.732295 70.7264 
L 173.165515 70.7264 
L 173.165515 69.6448 
L 173.537558 69.6448 
L 173.537558 68.5632 
L 173.711047 68.5632 
L 173.711047 67.4816 
L 174.037874 67.4816 
L 174.037874 65.3184 
L 174.324962 65.3184 
L 174.324962 64.2368 
L 174.615217 64.2368 
L 174.622697 62.0736 
L 175.409906 62.0736 
L 175.409906 60.992 
L 175.842375 60.992 
L 175.943728 58.8288 
L 176.313034 58.8288 
L 176.313034 57.7472 
L 176.435674 57.7472 
L 176.435674 56.6656 
L 176.608057 56.6656 
L 176.608057 55.584 
L 176.742162 55.584 
L 176.742162 54.5024 
L 176.858725 54.5024 
L 176.858725 53.4208 
L 177.033871 53.4208 
L 177.033871 52.3392 
L 177.543331 52.3392 
L 177.543331 51.2576 
L 178.182246 51.2576 
L 178.268694 46.9312 
L 178.305621 46.9312 
L 178.367007 44.768 
L 178.486135 44.768 
L 178.565137 42.6048 
L 178.767203 42.6048 
L 178.874886 38.2784 
L 179.029348 38.2784 
L 179.029348 37.1968 
L 179.6663 37.1968 
L 179.6663 36.1152 
L 180.031639 36.1152 
L 180.031639 35.0336 
L 180.792944 35.0336 
L 180.792944 33.952 
L 180.964544 33.952 
L 181.0072 30.7072 
L 181.081618 30.7072 
L 181.110772 28.544 
L 181.368541 28.544 
L 181.368541 27.4624 
L 181.723072 27.4624 
L 181.723072 26.3808 
L 182.89094 26.3808 
L 182.89094 25.2992 
L 183.022985 25.2992 
L 183.022985 24.2176 
L 183.357327 24.2176 
L 183.357327 23.136 
L 184.166946 23.136 
L 184.214164 20.9728 
L 184.381836 20.9728 
L 184.381836 19.8912 
L 184.81744 19.8912 
L 184.81744 18.8096 
L 185.317451 18.8096 
L 185.33227 16.6464 
L 187.280377 16.6464 
L 187.280377 15.5648 
L 188.807813 15.5648 
L 188.807813 14.4832 
L 191.008243 14.4832 
L 191.008243 13.4016 
L 191.327879 13.4016 
L 191.327879 12.32 
L 192.17619 12.32 
L 192.17619 11.2384 
L 192.478185 11.2384 
L 192.478185 10.1568 
L 192.823782 10.1568 
L 192.823782 9.0752 
L 360.8064 9.0752 
L 360.8064 9.0752 
" style="fill: none; stroke: #ff00ff; stroke-width: 1.5; stroke-linecap: square"/>
   </g>
   <g id="line2d_41">
    <defs>
     <path id="m2075e34e5e" d="M -0 8.485281 
L 5.091169 0 
L 0 -8.485281 
L -5.091169 -0 
z
" style="stroke: #ff00ff; stroke-width: 1.5; stroke-linejoin: miter"/>
    </defs>
    <g>
     <use xlink:href="#m2075e34e5e" x="89.323782" y="250.272" style="fill-opacity: 0; stroke: #ff00ff; stroke-width: 1.5; stroke-linejoin: miter"/>
     <use xlink:href="#m2075e34e5e" x="156.413263" y="125.888" style="fill-opacity: 0; stroke: #ff00ff; stroke-width: 1.5; stroke-linejoin: miter"/>
     <use xlink:href="#m2075e34e5e" x="192.823782" y="10.1568" style="fill-opacity: 0; stroke: #ff00ff; stroke-width: 1.5; stroke-linejoin: miter"/>
     <use xlink:href="#m2075e34e5e" x="192.823782" y="9.0752" style="fill-opacity: 0; stroke: #ff00ff; stroke-width: 1.5; stroke-linejoin: miter"/>
     <use xlink:href="#m2075e34e5e" x="192.823782" y="9.0752" style="fill-opacity: 0; stroke: #ff00ff; stroke-width: 1.5; stroke-linejoin: miter"/>
     <use xlink:href="#m2075e34e5e" x="360.8064" y="9.0752" style="fill-opacity: 0; stroke: #ff00ff; stroke-width: 1.5; stroke-linejoin: miter"/>
    </g>
   </g>
   <g id="line2d_42">
    <path style="fill: none; stroke: #ff00ff; stroke-width: 1.5; stroke-linecap: square"/>
    <g/>
   </g>
   <g id="line2d_43">
    <path d="M 198.250442 9.0752 
" clip-path="url(#p0209240d17)" style="fill: none; stroke: #ff00ff; stroke-width: 1.5; stroke-linecap: square"/>
    <defs>
     <path id="ma6186a779f" d="M -12 12 
L 12 -12 
M -12 -12 
L 12 12 
" style="stroke: #ff00ff"/>
    </defs>
    <g clip-path="url(#p0209240d17)">
     <use xlink:href="#ma6186a779f" x="198.250442" y="9.0752" style="fill: #ff00ff; stroke: #ff00ff"/>
    </g>
   </g>
   <g id="line2d_44">
    <defs>
     <path id="m99e4944c09" d="M 0 1.5 
C 0.397805 1.5 0.77937 1.341951 1.06066 1.06066 
C 1.341951 0.77937 1.5 0.397805 1.5 0 
C 1.5 -0.397805 1.341951 -0.77937 1.06066 -1.06066 
C 0.77937 -1.341951 0.397805 -1.5 0 -1.5 
C -0.397805 -1.5 -0.77937 -1.341951 -1.06066 -1.06066 
C -1.341951 -0.77937 -1.5 -0.397805 -1.5 0 
C -1.5 0.397805 -1.341951 0.77937 -1.06066 1.06066 
C -0.77937 1.341951 -0.397805 1.5 0 1.5 
z
" style="stroke: #ff7500"/>
    </defs>
    <g>
     <use xlink:href="#m99e4944c09" x="198.44009" y="6.912" style="fill: #ff7500; stroke: #ff7500"/>
     <use xlink:href="#m99e4944c09" x="198.44009" y="6.912" style="fill: #ff7500; stroke: #ff7500"/>
    </g>
   </g>
   <g id="line2d_45">
    <path d="M 14.2848 298.944 
L 14.2848 278.3936 
L 27.323974 278.3936 
L 27.323974 276.2304 
L 34.951403 276.2304 
L 34.951403 272.9856 
L 50.890391 272.9856 
L 50.890391 269.7408 
L 53.402323 269.7408 
L 53.402323 267.5776 
L 55.618005 267.5776 
L 55.618005 266.496 
L 57.6 266.496 
L 57.6 265.4144 
L 59.392932 265.4144 
L 59.392932 263.2512 
L 68.65718 263.2512 
L 68.65718 262.1696 
L 69.674268 262.1696 
L 69.674268 260.0064 
L 72.432107 260.0064 
L 72.432107 256.7616 
L 80.621116 256.7616 
L 80.621116 255.68 
L 82.713442 255.68 
L 82.713442 254.5984 
L 83.678349 254.5984 
L 83.678349 253.5168 
L 84.142855 253.5168 
L 84.142855 252.4352 
L 85.471281 252.4352 
L 85.471281 250.272 
L 88.248544 250.272 
L 88.248544 249.1904 
L 89.668958 249.1904 
L 89.668958 247.0272 
L 90.007914 247.0272 
L 90.007914 245.9456 
L 91.305777 245.9456 
L 91.305777 244.864 
L 95.998523 244.864 
L 95.998523 242.7008 
L 97.857967 242.7008 
L 97.857967 241.6192 
L 99.950294 241.6192 
L 99.950294 240.5376 
L 100.726138 240.5376 
L 100.726138 238.3744 
L 101.287718 238.3744 
L 101.287718 237.2928 
L 105.850679 237.2928 
L 105.850679 236.2112 
L 106.137884 236.2112 
L 106.137884 235.1296 
L 106.279859 235.1296 
L 106.279859 234.048 
L 106.42077 234.048 
L 106.42077 232.9664 
L 107.643612 232.9664 
L 107.643612 231.8848 
L 110.106149 231.8848 
L 110.106149 230.8032 
L 110.335561 230.8032 
L 110.335561 229.7216 
L 111.007473 229.7216 
L 111.007473 228.64 
L 111.54963 228.64 
L 111.54963 227.5584 
L 112.690074 227.5584 
L 112.690074 224.3136 
L 113.765312 224.3136 
L 113.765312 223.232 
L 114.7824 223.232 
L 114.7824 219.9872 
L 117.540239 219.9872 
L 117.540239 217.824 
L 119.177058 217.824 
L 119.177058 216.7424 
L 120.013265 216.7424 
L 120.013265 215.6608 
L 121.455972 215.6608 
L 121.455972 214.5792 
L 121.581803 214.5792 
L 121.581803 213.4976 
L 122.076872 213.4976 
L 122.076872 211.3344 
L 122.379802 211.3344 
L 122.379802 209.1712 
L 123.991562 209.1712 
L 123.991562 208.0896 
L 124.373813 208.0896 
L 124.373813 207.008 
L 125.167667 207.008 
L 125.167667 205.9264 
L 125.729248 205.9264 
L 125.729248 204.8448 
L 126.274549 204.8448 
L 126.274549 203.7632 
L 126.804487 203.7632 
L 126.804487 201.6 
L 128.786481 201.6 
L 128.786481 199.4368 
L 129.250988 199.4368 
L 129.250988 197.2736 
L 129.7043 197.2736 
L 129.7043 196.192 
L 130.265881 196.192 
L 130.265881 195.1104 
L 130.579414 195.1104 
L 130.579414 192.9472 
L 130.772751 192.9472 
L 130.772751 191.8656 
L 131.41562 191.8656 
L 131.41562 190.784 
L 132.216233 190.784 
L 132.216233 188.6208 
L 132.777813 188.6208 
L 132.777813 187.5392 
L 133.72196 187.5392 
L 133.72196 186.4576 
L 133.853052 186.4576 
L 133.853052 185.376 
L 134.77709 185.376 
L 134.77709 184.2944 
L 135.116046 184.2944 
L 135.116046 183.2128 
L 135.776169 183.2128 
L 135.776169 182.1312 
L 136.413909 182.1312 
L 136.413909 181.0496 
L 136.724851 181.0496 
L 136.724851 178.8864 
L 136.92008 178.8864 
L 137.030737 176.7232 
L 137.331728 176.7232 
L 137.331728 175.6416 
L 137.627979 175.6416 
L 137.627979 173.4784 
L 138.206842 173.4784 
L 138.206842 172.3968 
L 139.580558 172.3968 
L 139.580558 171.3152 
L 139.843661 171.3152 
L 139.843661 170.2336 
L 140.173284 170.2336 
L 140.196609 168.0704 
L 140.611586 168.0704 
L 140.611586 166.9888 
L 141.349389 166.9888 
L 141.349389 165.9072 
L 141.545685 165.9072 
L 141.545685 164.8256 
L 141.739954 164.8256 
L 141.739954 163.744 
L 142.059343 163.744 
L 142.059343 162.6624 
L 142.290162 162.6624 
L 142.290162 161.5808 
L 142.518184 161.5808 
L 142.518184 160.4992 
L 142.885449 160.4992 
L 142.885449 159.4176 
L 143.83115 159.4176 
L 143.83115 158.336 
L 144.249202 158.336 
L 144.342932 156.1728 
L 144.658165 156.1728 
L 144.658165 152.928 
L 144.85936 152.928 
L 144.85936 151.8464 
L 145.450347 151.8464 
L 145.450347 150.7648 
L 146.761135 150.7648 
L 146.761135 149.6832 
L 146.941151 149.6832 
L 146.941151 148.6016 
L 147.119461 148.6016 
L 147.119461 146.4384 
L 147.471089 146.4384 
L 147.502732 144.2752 
L 147.644469 144.2752 
L 147.644469 143.1936 
L 147.816265 143.1936 
L 147.816265 142.112 
L 148.124658 142.112 
L 148.155221 139.9488 
L 148.322436 139.9488 
L 148.322436 138.8672 
L 148.488177 138.8672 
L 148.488177 136.704 
L 148.637595 136.704 
L 148.652472 134.5408 
L 149.609197 134.5408 
L 149.609197 133.4592 
L 149.764026 133.4592 
L 149.764026 132.3776 
L 150.056115 132.3776 
L 150.069911 130.2144 
L 150.221009 130.2144 
L 150.221009 129.1328 
L 151.310683 129.1328 
L 151.387991 126.9696 
L 151.694084 126.9696 
L 151.694084 125.888 
L 151.945411 125.888 
L 151.97036 121.5616 
L 152.352898 121.5616 
L 152.352898 120.48 
L 152.751744 120.48 
L 152.751744 119.3984 
L 153.270716 119.3984 
L 153.270716 118.3168 
L 153.398253 118.3168 
L 153.398253 117.2352 
L 153.593669 117.2352 
L 153.593669 116.1536 
L 153.899924 116.1536 
L 153.899924 115.072 
L 154.023279 115.072 
L 154.023279 112.9088 
L 154.278618 112.9088 
L 154.278618 111.8272 
L 154.725366 111.8272 
L 154.746889 109.664 
L 155.024477 109.664 
L 155.024477 108.5824 
L 156.035428 108.5824 
L 156.045469 106.4192 
L 156.225294 106.4192 
L 156.334347 104.256 
L 156.472233 104.256 
L 156.472233 103.1744 
L 156.696589 103.1744 
L 156.696589 102.0928 
L 156.899125 102.0928 
L 156.899125 101.0112 
L 157.061501 101.0112 
L 157.061501 99.9296 
L 157.278978 99.9296 
L 157.278978 98.848 
L 157.400797 98.848 
L 157.400797 97.7664 
L 157.540383 97.7664 
L 157.540383 96.6848 
L 158.0976 96.6848 
L 158.1605 93.44 
L 158.392304 93.44 
L 158.392304 92.3584 
L 158.647529 92.3584 
L 158.647529 91.2768 
L 158.873444 91.2768 
L 158.968213 89.1136 
L 159.435025 89.1136 
L 159.435025 88.032 
L 159.890533 88.032 
L 159.890533 85.8688 
L 160.069692 85.8688 
L 160.069692 84.7872 
L 160.597153 84.7872 
L 160.597153 83.7056 
L 160.940753 83.7056 
L 160.940753 81.5424 
L 161.117894 81.5424 
L 161.117894 80.4608 
L 161.609678 80.4608 
L 161.706511 78.2976 
L 161.721364 78.2976 
L 161.773258 76.1344 
L 162.015991 76.1344 
L 162.074367 73.9712 
L 162.413713 73.9712 
L 162.470869 71.808 
L 162.549177 71.808 
L 162.549177 70.7264 
L 162.942856 70.7264 
L 162.942856 69.6448 
L 163.109086 69.6448 
L 163.109086 68.5632 
L 163.33528 68.5632 
L 163.33528 67.4816 
L 163.779668 67.4816 
L 163.779668 66.4 
L 164.285191 66.4 
L 164.362764 64.2368 
L 164.427166 64.2368 
L 164.523356 62.0736 
L 164.561694 62.0736 
L 164.561694 60.992 
L 164.764859 60.992 
L 164.846771 57.7472 
L 164.9471 57.7472 
L 165.009535 55.584 
L 165.109001 55.584 
L 165.17708 53.4208 
L 165.257222 53.4208 
L 165.337023 49.0944 
L 165.392072 49.0944 
L 165.392072 48.0128 
L 165.701011 48.0128 
L 165.701011 46.9312 
L 166.046296 46.9312 
L 166.046296 45.8496 
L 166.210744 45.8496 
L 166.228279 43.6864 
L 166.689935 43.6864 
L 166.763896 41.5232 
L 166.848875 41.5232 
L 166.848875 40.4416 
L 167.4058 40.4416 
L 167.4058 39.36 
L 167.553385 39.36 
L 167.607754 37.1968 
L 167.91469 37.1968 
L 167.962699 33.952 
L 168.079542 33.952 
L 168.079542 32.8704 
L 168.258701 32.8704 
L 168.258701 31.7888 
L 168.425776 31.7888 
L 168.425776 30.7072 
L 168.596533 30.7072 
L 168.647973 28.544 
L 169.049477 28.544 
L 169.059531 26.3808 
L 169.279377 26.3808 
L 169.279377 25.2992 
L 169.65803 25.2992 
L 169.696937 23.136 
L 169.803519 23.136 
L 169.803519 22.0544 
L 170.584193 22.0544 
L 170.598091 19.8912 
L 170.987673 19.8912 
L 171.042029 17.728 
L 171.333756 17.728 
L 171.333756 16.6464 
L 172.657728 16.6464 
L 172.657728 15.5648 
L 173.867387 15.5648 
L 173.867387 14.4832 
L 174.779089 14.4832 
L 174.779089 13.4016 
L 178.946334 13.4016 
L 178.946334 12.32 
L 181.753809 12.32 
L 181.753809 11.2384 
L 184.97553 11.2384 
L 184.97553 10.1568 
L 188.077889 10.1568 
L 188.077889 9.0752 
L 193.191033 9.0752 
L 193.191033 7.9936 
L 198.44009 7.9936 
L 198.44009 6.912 
L 360.8064 6.912 
L 360.8064 6.912 
" style="fill: none; stroke: #ff7500; stroke-width: 1.5; stroke-linecap: square"/>
   </g>
   <g id="line2d_46">
    <defs>
     <path id="ma4f93a2747" d="M 0 -6 
L -1.347084 -1.854102 
L -5.706339 -1.854102 
L -2.179628 0.708204 
L -3.526712 4.854102 
L -0 2.291796 
L 3.526712 4.854102 
L 2.179628 0.708204 
L 5.706339 -1.854102 
L 1.347084 -1.854102 
z
" style="stroke: #ff7500; stroke-width: 1.5; stroke-linejoin: bevel"/>
    </defs>
    <g>
     <use xlink:href="#ma4f93a2747" x="80.621116" y="256.7616" style="fill-opacity: 0; stroke: #ff7500; stroke-width: 1.5; stroke-linejoin: bevel"/>
     <use xlink:href="#ma4f93a2747" x="132.216233" y="188.6208" style="fill-opacity: 0; stroke: #ff7500; stroke-width: 1.5; stroke-linejoin: bevel"/>
     <use xlink:href="#ma4f93a2747" x="188.077889" y="10.1568" style="fill-opacity: 0; stroke: #ff7500; stroke-width: 1.5; stroke-linejoin: bevel"/>
     <use xlink:href="#ma4f93a2747" x="198.44009" y="6.912" style="fill-opacity: 0; stroke: #ff7500; stroke-width: 1.5; stroke-linejoin: bevel"/>
     <use xlink:href="#ma4f93a2747" x="198.44009" y="6.912" style="fill-opacity: 0; stroke: #ff7500; stroke-width: 1.5; stroke-linejoin: bevel"/>
     <use xlink:href="#ma4f93a2747" x="360.8064" y="6.912" style="fill-opacity: 0; stroke: #ff7500; stroke-width: 1.5; stroke-linejoin: bevel"/>
    </g>
   </g>
   <g id="line2d_47">
    <path style="fill: none; stroke: #ff7500; stroke-width: 1.5; stroke-linecap: square"/>
    <g/>
   </g>
   <g id="line2d_48">
    <path d="M 360.8064 9.0752 
L 380.514816 293.10336 
" style="fill: none; stroke: #ff00ff; stroke-width: 1.5; stroke-linecap: square"/>
    <g>
     <use xlink:href="#m2075e34e5e" x="360.8064" y="9.0752" style="fill-opacity: 0; stroke: #ff00ff; stroke-width: 1.5; stroke-linejoin: miter"/>
     <use xlink:href="#m2075e34e5e" x="380.514816" y="293.10336" style="fill-opacity: 0; stroke: #ff00ff; stroke-width: 1.5; stroke-linejoin: miter"/>
    </g>
   </g>
   <g id="line2d_49">
    <path d="M 360.8064 7.9936 
L 380.514816 199.65312 
" style="fill: none; stroke: #000080; stroke-width: 1.5; stroke-linecap: square"/>
    <g>
     <use xlink:href="#mfab7bcd749" x="360.8064" y="7.9936" style="fill-opacity: 0; stroke: #000080; stroke-width: 1.5"/>
     <use xlink:href="#mfab7bcd749" x="380.514816" y="199.65312" style="fill-opacity: 0; stroke: #000080; stroke-width: 1.5"/>
    </g>
   </g>
   <g id="line2d_50">
    <path d="M 360.8064 6.912 
L 380.514816 106.20288 
" style="fill: none; stroke: #ff7500; stroke-width: 1.5; stroke-linecap: square"/>
    <g>
     <use xlink:href="#ma4f93a2747" x="360.8064" y="6.912" style="fill-opacity: 0; stroke: #ff7500; stroke-width: 1.5; stroke-linejoin: bevel"/>
     <use xlink:href="#ma4f93a2747" x="380.514816" y="106.20288" style="fill-opacity: 0; stroke: #ff7500; stroke-width: 1.5; stroke-linejoin: bevel"/>
    </g>
   </g>
   <g id="line2d_51">
    <path d="M 360.8064 298.944 
L 360.8064 6.912 
" style="fill: none; stroke: #000000; stroke-width: 1.5; stroke-linecap: square"/>
   </g>
   <g id="patch_3">
    <path d="M 57.6 298.944 
L 360.8064 298.944 
" style="fill: none; stroke: #000000; stroke-width: 0.8; stroke-linejoin: miter; stroke-linecap: square"/>
   </g>
   <g id="patch_4">
    <path d="M 57.6 6.912 
L 360.8064 6.912 
" style="fill: none; stroke: #000000; stroke-width: 0.8; stroke-linejoin: miter; stroke-linecap: square"/>
   </g>
   <g id="text_13">
    <!-- LQ-skip -->
    <g transform="translate(386.578944 296.966485) scale(0.14 -0.14)">
     <defs>
      <path id="DejaVuSans-4c" d="M 628 4666 
L 1259 4666 
L 1259 531 
L 3531 531 
L 3531 0 
L 628 0 
L 628 4666 
z
" transform="scale(0.015625)"/>
      <path id="DejaVuSans-51" d="M 2522 4238 
Q 1834 4238 1429 3725 
Q 1025 3213 1025 2328 
Q 1025 1447 1429 934 
Q 1834 422 2522 422 
Q 3209 422 3611 934 
Q 4013 1447 4013 2328 
Q 4013 3213 3611 3725 
Q 3209 4238 2522 4238 
z
M 3406 84 
L 4238 -825 
L 3475 -825 
L 2784 -78 
Q 2681 -84 2626 -87 
Q 2572 -91 2522 -91 
Q 1538 -91 948 567 
Q 359 1225 359 2328 
Q 359 3434 948 4092 
Q 1538 4750 2522 4750 
Q 3503 4750 4090 4092 
Q 4678 3434 4678 2328 
Q 4678 1516 4351 937 
Q 4025 359 3406 84 
z
" transform="scale(0.015625)"/>
      <path id="DejaVuSans-6b" d="M 581 4863 
L 1159 4863 
L 1159 1991 
L 2875 3500 
L 3609 3500 
L 1753 1863 
L 3688 0 
L 2938 0 
L 1159 1709 
L 1159 0 
L 581 0 
L 581 4863 
z
" transform="scale(0.015625)"/>
     </defs>
     <use xlink:href="#DejaVuSans-4c"/>
     <use xlink:href="#DejaVuSans-51" x="55.712891"/>
     <use xlink:href="#DejaVuSans-2d" x="137.173828"/>
     <use xlink:href="#DejaVuSans-73" x="173.257812"/>
     <use xlink:href="#DejaVuSans-6b" x="225.357422"/>
     <use xlink:href="#DejaVuSans-69" x="283.267578"/>
     <use xlink:href="#DejaVuSans-70" x="311.050781"/>
    </g>
   </g>
   <g id="text_14">
    <!-- kerLQ -->
    <g transform="translate(386.578944 203.516245) scale(0.14 -0.14)">
     <use xlink:href="#DejaVuSans-6b"/>
     <use xlink:href="#DejaVuSans-65" x="54.285156"/>
     <use xlink:href="#DejaVuSans-72" x="115.808594"/>
     <use xlink:href="#DejaVuSans-4c" x="156.921875"/>
     <use xlink:href="#DejaVuSans-51" x="212.634766"/>
    </g>
   </g>
   <g id="text_15">
    <!-- COMO-10 d -->
    <g transform="translate(386.578944 110.066005) scale(0.14 -0.14)">
     <defs>
      <path id="DejaVuSans-43" d="M 4122 4306 
L 4122 3641 
Q 3803 3938 3442 4084 
Q 3081 4231 2675 4231 
Q 1875 4231 1450 3742 
Q 1025 3253 1025 2328 
Q 1025 1406 1450 917 
Q 1875 428 2675 428 
Q 3081 428 3442 575 
Q 3803 722 4122 1019 
L 4122 359 
Q 3791 134 3420 21 
Q 3050 -91 2638 -91 
Q 1578 -91 968 557 
Q 359 1206 359 2328 
Q 359 3453 968 4101 
Q 1578 4750 2638 4750 
Q 3056 4750 3426 4639 
Q 3797 4528 4122 4306 
z
" transform="scale(0.015625)"/>
      <path id="DejaVuSans-4f" d="M 2522 4238 
Q 1834 4238 1429 3725 
Q 1025 3213 1025 2328 
Q 1025 1447 1429 934 
Q 1834 422 2522 422 
Q 3209 422 3611 934 
Q 4013 1447 4013 2328 
Q 4013 3213 3611 3725 
Q 3209 4238 2522 4238 
z
M 2522 4750 
Q 3503 4750 4090 4092 
Q 4678 3434 4678 2328 
Q 4678 1225 4090 567 
Q 3503 -91 2522 -91 
Q 1538 -91 948 565 
Q 359 1222 359 2328 
Q 359 3434 948 4092 
Q 1538 4750 2522 4750 
z
" transform="scale(0.015625)"/>
      <path id="DejaVuSans-4d" d="M 628 4666 
L 1569 4666 
L 2759 1491 
L 3956 4666 
L 4897 4666 
L 4897 0 
L 4281 0 
L 4281 4097 
L 3078 897 
L 2444 897 
L 1241 4097 
L 1241 0 
L 628 0 
L 628 4666 
z
" transform="scale(0.015625)"/>
     </defs>
     <use xlink:href="#DejaVuSans-43"/>
     <use xlink:href="#DejaVuSans-4f" x="69.824219"/>
     <use xlink:href="#DejaVuSans-4d" x="148.535156"/>
     <use xlink:href="#DejaVuSans-4f" x="234.814453"/>
     <use xlink:href="#DejaVuSans-2d" x="316.275391"/>
     <use xlink:href="#DejaVuSans-31" x="352.359375"/>
     <use xlink:href="#DejaVuSans-30" x="415.982422"/>
     <use xlink:href="#DejaVuSans-20" x="479.605469"/>
     <use xlink:href="#DejaVuSans-64" x="511.392578"/>
    </g>
   </g>
   <g id="text_16">
    <!-- best 2016 -->
    <g transform="translate(386.578944 16.615765) scale(0.14 -0.14)">
     <defs>
      <path id="DejaVuSans-62" d="M 3116 1747 
Q 3116 2381 2855 2742 
Q 2594 3103 2138 3103 
Q 1681 3103 1420 2742 
Q 1159 2381 1159 1747 
Q 1159 1113 1420 752 
Q 1681 391 2138 391 
Q 2594 391 2855 752 
Q 3116 1113 3116 1747 
z
M 1159 2969 
Q 1341 3281 1617 3432 
Q 1894 3584 2278 3584 
Q 2916 3584 3314 3078 
Q 3713 2572 3713 1747 
Q 3713 922 3314 415 
Q 2916 -91 2278 -91 
Q 1894 -91 1617 61 
Q 1341 213 1159 525 
L 1159 0 
L 581 0 
L 581 4863 
L 1159 4863 
L 1159 2969 
z
" transform="scale(0.015625)"/>
     </defs>
     <use xlink:href="#DejaVuSans-62"/>
     <use xlink:href="#DejaVuSans-65" x="63.476562"/>
     <use xlink:href="#DejaVuSans-73" x="125"/>
     <use xlink:href="#DejaVuSans-74" x="177.099609"/>
     <use xlink:href="#DejaVuSans-20" x="216.308594"/>
     <use xlink:href="#DejaVuSans-32" x="248.095703"/>
     <use xlink:href="#DejaVuSans-30" x="311.71875"/>
     <use xlink:href="#DejaVuSans-31" x="375.341797"/>
     <use xlink:href="#DejaVuSans-36" x="438.964844"/>
    </g>
   </g>
   <g id="text_17">
    <!-- bbob-biobj f1, f2, f11, 10-D -->
    <g transform="translate(60.632064 17.582726) scale(0.102 -0.102)">
     <defs>
      <path id="DejaVuSans-6a" d="M 603 3500 
L 1178 3500 
L 1178 -63 
Q 1178 -731 923 -1031 
Q 669 -1331 103 -1331 
L -116 -1331 
L -116 -844 
L 38 -844 
Q 366 -844 484 -692 
Q 603 -541 603 -63 
L 603 3500 
z
M 603 4863 
L 1178 4863 
L 1178 4134 
L 603 4134 
L 603 4863 
z
" transform="scale(0.015625)"/>
      <path id="DejaVuSans-44" d="M 1259 4147 
L 1259 519 
L 2022 519 
Q 2988 519 3436 956 
Q 3884 1394 3884 2338 
Q 3884 3275 3436 3711 
Q 2988 4147 2022 4147 
L 1259 4147 
z
M 628 4666 
L 1925 4666 
Q 3281 4666 3915 4102 
Q 4550 3538 4550 2338 
Q 4550 1131 3912 565 
Q 3275 0 1925 0 
L 628 0 
L 628 4666 
z
" transform="scale(0.015625)"/>
     </defs>
     <use xlink:href="#DejaVuSans-62"/>
     <use xlink:href="#DejaVuSans-62" x="63.476562"/>
     <use xlink:href="#DejaVuSans-6f" x="126.953125"/>
     <use xlink:href="#DejaVuSans-62" x="188.134766"/>
     <use xlink:href="#DejaVuSans-2d" x="251.611328"/>
     <use xlink:href="#DejaVuSans-62" x="287.695312"/>
     <use xlink:href="#DejaVuSans-69" x="351.171875"/>
     <use xlink:href="#DejaVuSans-6f" x="378.955078"/>
     <use xlink:href="#DejaVuSans-62" x="440.136719"/>
     <use xlink:href="#DejaVuSans-6a" x="503.613281"/>
     <use xlink:href="#DejaVuSans-20" x="531.396484"/>
     <use xlink:href="#DejaVuSans-66" x="563.183594"/>
     <use xlink:href="#DejaVuSans-31" x="598.388672"/>
     <use xlink:href="#DejaVuSans-2c" x="662.011719"/>
     <use xlink:href="#DejaVuSans-20" x="693.798828"/>
     <use xlink:href="#DejaVuSans-66" x="725.585938"/>
     <use xlink:href="#DejaVuSans-32" x="760.791016"/>
     <use xlink:href="#DejaVuSans-2c" x="824.414062"/>
     <use xlink:href="#DejaVuSans-20" x="856.201172"/>
     <use xlink:href="#DejaVuSans-66" x="887.988281"/>
     <use xlink:href="#DejaVuSans-31" x="923.193359"/>
     <use xlink:href="#DejaVuSans-31" x="986.816406"/>
     <use xlink:href="#DejaVuSans-2c" x="1050.439453"/>
     <use xlink:href="#DejaVuSans-20" x="1082.226562"/>
     <use xlink:href="#DejaVuSans-31" x="1114.013672"/>
     <use xlink:href="#DejaVuSans-30" x="1177.636719"/>
     <use xlink:href="#DejaVuSans-2d" x="1241.259766"/>
     <use xlink:href="#DejaVuSans-44" x="1277.34375"/>
    </g>
    <!-- 31 targets RLs/dim: 0.5..50 -->
    <g transform="translate(60.632064 29.004495) scale(0.102 -0.102)">
     <defs>
      <path id="DejaVuSans-33" d="M 2597 2516 
Q 3050 2419 3304 2112 
Q 3559 1806 3559 1356 
Q 3559 666 3084 287 
Q 2609 -91 1734 -91 
Q 1441 -91 1130 -33 
Q 819 25 488 141 
L 488 750 
Q 750 597 1062 519 
Q 1375 441 1716 441 
Q 2309 441 2620 675 
Q 2931 909 2931 1356 
Q 2931 1769 2642 2001 
Q 2353 2234 1838 2234 
L 1294 2234 
L 1294 2753 
L 1863 2753 
Q 2328 2753 2575 2939 
Q 2822 3125 2822 3475 
Q 2822 3834 2567 4026 
Q 2313 4219 1838 4219 
Q 1578 4219 1281 4162 
Q 984 4106 628 3988 
L 628 4550 
Q 988 4650 1302 4700 
Q 1616 4750 1894 4750 
Q 2613 4750 3031 4423 
Q 3450 4097 3450 3541 
Q 3450 3153 3228 2886 
Q 3006 2619 2597 2516 
z
" transform="scale(0.015625)"/>
      <path id="DejaVuSans-52" d="M 2841 2188 
Q 3044 2119 3236 1894 
Q 3428 1669 3622 1275 
L 4263 0 
L 3584 0 
L 2988 1197 
Q 2756 1666 2539 1819 
Q 2322 1972 1947 1972 
L 1259 1972 
L 1259 0 
L 628 0 
L 628 4666 
L 2053 4666 
Q 2853 4666 3247 4331 
Q 3641 3997 3641 3322 
Q 3641 2881 3436 2590 
Q 3231 2300 2841 2188 
z
M 1259 4147 
L 1259 2491 
L 2053 2491 
Q 2509 2491 2742 2702 
Q 2975 2913 2975 3322 
Q 2975 3731 2742 3939 
Q 2509 4147 2053 4147 
L 1259 4147 
z
" transform="scale(0.015625)"/>
      <path id="DejaVuSans-3a" d="M 750 794 
L 1409 794 
L 1409 0 
L 750 0 
L 750 794 
z
M 750 3309 
L 1409 3309 
L 1409 2516 
L 750 2516 
L 750 3309 
z
" transform="scale(0.015625)"/>
      <path id="DejaVuSans-35" d="M 691 4666 
L 3169 4666 
L 3169 4134 
L 1269 4134 
L 1269 2991 
Q 1406 3038 1543 3061 
Q 1681 3084 1819 3084 
Q 2600 3084 3056 2656 
Q 3513 2228 3513 1497 
Q 3513 744 3044 326 
Q 2575 -91 1722 -91 
Q 1428 -91 1123 -41 
Q 819 9 494 109 
L 494 744 
Q 775 591 1075 516 
Q 1375 441 1709 441 
Q 2250 441 2565 725 
Q 2881 1009 2881 1497 
Q 2881 1984 2565 2268 
Q 2250 2553 1709 2553 
Q 1456 2553 1204 2497 
Q 953 2441 691 2322 
L 691 4666 
z
" transform="scale(0.015625)"/>
     </defs>
     <use xlink:href="#DejaVuSans-33"/>
     <use xlink:href="#DejaVuSans-31" x="63.623047"/>
     <use xlink:href="#DejaVuSans-20" x="127.246094"/>
     <use xlink:href="#DejaVuSans-74" x="159.033203"/>
     <use xlink:href="#DejaVuSans-61" x="198.242188"/>
     <use xlink:href="#DejaVuSans-72" x="259.521484"/>
     <use xlink:href="#DejaVuSans-67" x="298.884766"/>
     <use xlink:href="#DejaVuSans-65" x="362.361328"/>
     <use xlink:href="#DejaVuSans-74" x="423.884766"/>
     <use xlink:href="#DejaVuSans-73" x="463.09375"/>
     <use xlink:href="#DejaVuSans-20" x="515.193359"/>
     <use xlink:href="#DejaVuSans-52" x="546.980469"/>
     <use xlink:href="#DejaVuSans-4c" x="616.462891"/>
     <use xlink:href="#DejaVuSans-73" x="672.175781"/>
     <use xlink:href="#DejaVuSans-2f" x="724.275391"/>
     <use xlink:href="#DejaVuSans-64" x="757.966797"/>
     <use xlink:href="#DejaVuSans-69" x="821.443359"/>
     <use xlink:href="#DejaVuSans-6d" x="849.226562"/>
     <use xlink:href="#DejaVuSans-3a" x="946.638672"/>
     <use xlink:href="#DejaVuSans-20" x="980.330078"/>
     <use xlink:href="#DejaVuSans-30" x="1012.117188"/>
     <use xlink:href="#DejaVuSans-2e" x="1075.740234"/>
     <use xlink:href="#DejaVuSans-35" x="1107.527344"/>
     <use xlink:href="#DejaVuSans-2e" x="1171.150391"/>
     <use xlink:href="#DejaVuSans-2e" x="1202.9375"/>
     <use xlink:href="#DejaVuSans-35" x="1234.724609"/>
     <use xlink:href="#DejaVuSans-30" x="1298.347656"/>
    </g>
    <!--   from refalgs/best2016-bbob-biobj.tar.gz -->
    <g transform="translate(60.632064 40.426264) scale(0.102 -0.102)">
     <defs>
      <path id="DejaVuSans-7a" d="M 353 3500 
L 3084 3500 
L 3084 2975 
L 922 459 
L 3084 459 
L 3084 0 
L 275 0 
L 275 525 
L 2438 3041 
L 353 3041 
L 353 3500 
z
" transform="scale(0.015625)"/>
     </defs>
     <use xlink:href="#DejaVuSans-20"/>
     <use xlink:href="#DejaVuSans-20" x="31.787109"/>
     <use xlink:href="#DejaVuSans-66" x="63.574219"/>
     <use xlink:href="#DejaVuSans-72" x="98.779297"/>
     <use xlink:href="#DejaVuSans-6f" x="137.642578"/>
     <use xlink:href="#DejaVuSans-6d" x="198.824219"/>
     <use xlink:href="#DejaVuSans-20" x="296.236328"/>
     <use xlink:href="#DejaVuSans-72" x="328.023438"/>
     <use xlink:href="#DejaVuSans-65" x="366.886719"/>
     <use xlink:href="#DejaVuSans-66" x="428.410156"/>
     <use xlink:href="#DejaVuSans-61" x="463.615234"/>
     <use xlink:href="#DejaVuSans-6c" x="524.894531"/>
     <use xlink:href="#DejaVuSans-67" x="552.677734"/>
     <use xlink:href="#DejaVuSans-73" x="616.154297"/>
     <use xlink:href="#DejaVuSans-2f" x="668.253906"/>
     <use xlink:href="#DejaVuSans-62" x="701.945312"/>
     <use xlink:href="#DejaVuSans-65" x="765.421875"/>
     <use xlink:href="#DejaVuSans-73" x="826.945312"/>
     <use xlink:href="#DejaVuSans-74" x="879.044922"/>
     <use xlink:href="#DejaVuSans-32" x="918.253906"/>
     <use xlink:href="#DejaVuSans-30" x="981.876953"/>
     <use xlink:href="#DejaVuSans-31" x="1045.5"/>
     <use xlink:href="#DejaVuSans-36" x="1109.123047"/>
     <use xlink:href="#DejaVuSans-2d" x="1172.746094"/>
     <use xlink:href="#DejaVuSans-62" x="1208.830078"/>
     <use xlink:href="#DejaVuSans-62" x="1272.306641"/>
     <use xlink:href="#DejaVuSans-6f" x="1335.783203"/>
     <use xlink:href="#DejaVuSans-62" x="1396.964844"/>
     <use xlink:href="#DejaVuSans-2d" x="1460.441406"/>
     <use xlink:href="#DejaVuSans-62" x="1496.525391"/>
     <use xlink:href="#DejaVuSans-69" x="1560.001953"/>
     <use xlink:href="#DejaVuSans-6f" x="1587.785156"/>
     <use xlink:href="#DejaVuSans-62" x="1648.966797"/>
     <use xlink:href="#DejaVuSans-6a" x="1712.443359"/>
     <use xlink:href="#DejaVuSans-2e" x="1740.226562"/>
     <use xlink:href="#DejaVuSans-74" x="1772.013672"/>
     <use xlink:href="#DejaVuSans-61" x="1811.222656"/>
     <use xlink:href="#DejaVuSans-72" x="1872.501953"/>
     <use xlink:href="#DejaVuSans-2e" x="1904.490234"/>
     <use xlink:href="#DejaVuSans-67" x="1936.277344"/>
     <use xlink:href="#DejaVuSans-7a" x="1999.753906"/>
    </g>
    <!-- 10 instances -->
    <g transform="translate(60.632064 51.848032) scale(0.102 -0.102)">
     <use xlink:href="#DejaVuSans-31"/>
     <use xlink:href="#DejaVuSans-30" x="63.623047"/>
     <use xlink:href="#DejaVuSans-20" x="127.246094"/>
     <use xlink:href="#DejaVuSans-69" x="159.033203"/>
     <use xlink:href="#DejaVuSans-6e" x="186.816406"/>
     <use xlink:href="#DejaVuSans-73" x="250.195312"/>
     <use xlink:href="#DejaVuSans-74" x="302.294922"/>
     <use xlink:href="#DejaVuSans-61" x="341.503906"/>
     <use xlink:href="#DejaVuSans-6e" x="402.783203"/>
     <use xlink:href="#DejaVuSans-63" x="466.162109"/>
     <use xlink:href="#DejaVuSans-65" x="521.142578"/>
     <use xlink:href="#DejaVuSans-73" x="582.666016"/>
    </g>
   </g>
   <g id="text_18">
    <!-- v2.6, hv-hash=ff0e71e8cd978373 -->
    <g style="fill: #808080" transform="translate(123.707887 293.943992) scale(0.1 -0.1)">
     <defs>
      <path id="DejaVuSans-68" d="M 3513 2113 
L 3513 0 
L 2938 0 
L 2938 2094 
Q 2938 2591 2744 2837 
Q 2550 3084 2163 3084 
Q 1697 3084 1428 2787 
Q 1159 2491 1159 1978 
L 1159 0 
L 581 0 
L 581 4863 
L 1159 4863 
L 1159 2956 
Q 1366 3272 1645 3428 
Q 1925 3584 2291 3584 
Q 2894 3584 3203 3211 
Q 3513 2838 3513 2113 
z
" transform="scale(0.015625)"/>
      <path id="DejaVuSans-3d" d="M 678 2906 
L 4684 2906 
L 4684 2381 
L 678 2381 
L 678 2906 
z
M 678 1631 
L 4684 1631 
L 4684 1100 
L 678 1100 
L 678 1631 
z
" transform="scale(0.015625)"/>
      <path id="DejaVuSans-37" d="M 525 4666 
L 3525 4666 
L 3525 4397 
L 1831 0 
L 1172 0 
L 2766 4134 
L 525 4134 
L 525 4666 
z
" transform="scale(0.015625)"/>
      <path id="DejaVuSans-39" d="M 703 97 
L 703 672 
Q 941 559 1184 500 
Q 1428 441 1663 441 
Q 2288 441 2617 861 
Q 2947 1281 2994 2138 
Q 2813 1869 2534 1725 
Q 2256 1581 1919 1581 
Q 1219 1581 811 2004 
Q 403 2428 403 3163 
Q 403 3881 828 4315 
Q 1253 4750 1959 4750 
Q 2769 4750 3195 4129 
Q 3622 3509 3622 2328 
Q 3622 1225 3098 567 
Q 2575 -91 1691 -91 
Q 1453 -91 1209 -44 
Q 966 3 703 97 
z
M 1959 2075 
Q 2384 2075 2632 2365 
Q 2881 2656 2881 3163 
Q 2881 3666 2632 3958 
Q 2384 4250 1959 4250 
Q 1534 4250 1286 3958 
Q 1038 3666 1038 3163 
Q 1038 2656 1286 2365 
Q 1534 2075 1959 2075 
z
" transform="scale(0.015625)"/>
     </defs>
     <use xlink:href="#DejaVuSans-76"/>
     <use xlink:href="#DejaVuSans-32" x="59.179688"/>
     <use xlink:href="#DejaVuSans-2e" x="122.802734"/>
     <use xlink:href="#DejaVuSans-36" x="154.589844"/>
     <use xlink:href="#DejaVuSans-2c" x="218.212891"/>
     <use xlink:href="#DejaVuSans-20" x="250"/>
     <use xlink:href="#DejaVuSans-68" x="281.787109"/>
     <use xlink:href="#DejaVuSans-76" x="345.166016"/>
     <use xlink:href="#DejaVuSans-2d" x="401.720703"/>
     <use xlink:href="#DejaVuSans-68" x="437.804688"/>
     <use xlink:href="#DejaVuSans-61" x="501.183594"/>
     <use xlink:href="#DejaVuSans-73" x="562.462891"/>
     <use xlink:href="#DejaVuSans-68" x="614.5625"/>
     <use xlink:href="#DejaVuSans-3d" x="677.941406"/>
     <use xlink:href="#DejaVuSans-66" x="761.730469"/>
     <use xlink:href="#DejaVuSans-66" x="796.935547"/>
     <use xlink:href="#DejaVuSans-30" x="832.140625"/>
     <use xlink:href="#DejaVuSans-65" x="895.763672"/>
     <use xlink:href="#DejaVuSans-37" x="957.287109"/>
     <use xlink:href="#DejaVuSans-31" x="1020.910156"/>
     <use xlink:href="#DejaVuSans-65" x="1084.533203"/>
     <use xlink:href="#DejaVuSans-38" x="1146.056641"/>
     <use xlink:href="#DejaVuSans-63" x="1209.679688"/>
     <use xlink:href="#DejaVuSans-64" x="1264.660156"/>
     <use xlink:href="#DejaVuSans-39" x="1328.136719"/>
     <use xlink:href="#DejaVuSans-37" x="1391.759766"/>
     <use xlink:href="#DejaVuSans-38" x="1455.382812"/>
     <use xlink:href="#DejaVuSans-33" x="1519.005859"/>
     <use xlink:href="#DejaVuSans-37" x="1582.628906"/>
     <use xlink:href="#DejaVuSans-33" x="1646.251953"/>
    </g>
   </g>
  </g>
 </g>
 <defs>
  <clipPath id="p0209240d17">
   <rect x="57.6" y="6.912" width="303.2064" height="292.032"/>
  </clipPath>
 </defs>
</svg>
