<?xml version="1.0" encoding="utf-8" standalone="no"?>
<!DOCTYPE svg PUBLIC "-//W3C//DTD SVG 1.1//EN"
  "http://www.w3.org/Graphics/SVG/1.1/DTD/svg11.dtd">
<svg xmlns:xlink="http://www.w3.org/1999/xlink" width="460.8pt" height="345.6pt" viewBox="0 0 460.8 345.6" xmlns="http://www.w3.org/2000/svg" version="1.1">
 <metadata>
  <rdf:RDF xmlns:dc="http://purl.org/dc/elements/1.1/" xmlns:cc="http://creativecommons.org/ns#" xmlns:rdf="http://www.w3.org/1999/02/22-rdf-syntax-ns#">
   <cc:Work>
    <dc:type rdf:resource="http://purl.org/dc/dcmitype/StillImage"/>
    <dc:date>2023-02-21T14:32:57.635279</dc:date>
    <dc:format>image/svg+xml</dc:format>
    <dc:creator>
     <cc:Agent>
      <dc:title>Matplotlib v3.7.0, https://matplotlib.org/</dc:title>
     </cc:Agent>
    </dc:creator>
   </cc:Work>
  </rdf:RDF>
 </metadata>
 <defs>
  <style type="text/css">*{stroke-linejoin: round; stroke-linecap: butt}</style>
 </defs>
 <g id="figure_1">
  <g id="patch_1">
   <path d="M 0 345.6 
L 460.8 345.6 
L 460.8 0 
L 0 0 
z
" style="fill: #ffffff"/>
  </g>
  <g id="axes_1">
   <g id="patch_2">
    <path d="M 57.6 298.944 
L 360.8064 298.944 
L 360.8064 6.912 
L 57.6 6.912 
z
" style="fill: #ffffff"/>
   </g>
   <g id="line2d_1">
    <path d="M 47.990577 298.944 
L 47.990577 257.225143 
L 57.6 257.225143 
L 57.6 243.318857 
L 61.029752 243.318857 
L 61.029752 215.506286 
L 78.266603 215.506286 
L 78.266603 173.787429 
L 87.1081 173.787429 
L 87.1081 159.881143 
L 90.668036 159.881143 
L 90.668036 145.974857 
L 94.735529 145.974857 
L 94.735529 132.068571 
L 96.717523 132.068571 
L 96.717523 118.162286 
L 97.18203 118.162286 
L 97.18203 104.256 
L 117.695068 104.256 
L 117.695068 90.349714 
L 121.455972 90.349714 
L 121.455972 76.443429 
L 127.821575 76.443429 
L 127.821575 62.537143 
L 139.556456 62.537143 
L 139.556456 48.630857 
L 149.223672 48.630857 
L 149.223672 34.724571 
L 159.668298 34.724571 
L 159.668298 20.818286 
L 176.705378 20.818286 
L 176.705378 6.912 
L 360.8064 6.912 
" style="fill: none; stroke: #f5deb3; stroke-width: 4; stroke-linecap: square"/>
   </g>
   <g id="line2d_2">
    <defs>
     <path id="m4f7e89294f" d="M -0 7.778175 
L 7.778175 0 
L 0 -7.778175 
L -7.778175 -0 
z
" style="stroke: #f5deb3; stroke-width: 1.5; stroke-linejoin: miter"/>
    </defs>
    <g>
     <use xlink:href="#m4f7e89294f" x="97.18203" y="118.162286" style="fill: #f5deb3; stroke: #f5deb3; stroke-width: 1.5; stroke-linejoin: miter"/>
     <use xlink:href="#m4f7e89294f" x="159.668298" y="34.724571" style="fill: #f5deb3; stroke: #f5deb3; stroke-width: 1.5; stroke-linejoin: miter"/>
     <use xlink:href="#m4f7e89294f" x="176.705378" y="20.818286" style="fill: #f5deb3; stroke: #f5deb3; stroke-width: 1.5; stroke-linejoin: miter"/>
     <use xlink:href="#m4f7e89294f" x="176.705378" y="6.912" style="fill: #f5deb3; stroke: #f5deb3; stroke-width: 1.5; stroke-linejoin: miter"/>
     <use xlink:href="#m4f7e89294f" x="360.8064" y="6.912" style="fill: #f5deb3; stroke: #f5deb3; stroke-width: 1.5; stroke-linejoin: miter"/>
    </g>
   </g>
   <g id="line2d_3">
    <path style="fill: none; stroke: #f5deb3; stroke-width: 4; stroke-linecap: square"/>
    <g/>
   </g>
   <g id="line2d_4">
    <path d="M 360.8064 6.912 
L 380.514816 12.75264 
" style="fill: none; stroke: #f5deb3; stroke-width: 4; stroke-linecap: square"/>
    <g>
     <use xlink:href="#m4f7e89294f" x="360.8064" y="6.912" style="fill: #f5deb3; stroke: #f5deb3; stroke-width: 1.5; stroke-linejoin: miter"/>
     <use xlink:href="#m4f7e89294f" x="380.514816" y="12.75264" style="fill: #f5deb3; stroke: #f5deb3; stroke-width: 1.5; stroke-linejoin: miter"/>
    </g>
   </g>
   <g id="matplotlib.axis_1">
    <g id="xtick_1">
     <g id="line2d_5">
      <path d="M 57.6 298.944 
L 57.6 6.912 
" clip-path="url(#pbb7edbf1dc)" style="fill: none; stroke: #b0b0b0; stroke-width: 0.8; stroke-linecap: square"/>
     </g>
     <g id="line2d_6">
      <defs>
       <path id="mbcd77e3668" d="M 0 0 
L 0 3.5 
" style="stroke: #000000; stroke-width: 0.8"/>
      </defs>
      <g>
       <use xlink:href="#mbcd77e3668" x="57.6" y="298.944" style="stroke: #000000; stroke-width: 0.8"/>
      </g>
     </g>
     <g id="text_1">
      <!-- 0 -->
      <g transform="translate(52.191875 318.861344) scale(0.17 -0.17)">
       <defs>
        <path id="DejaVuSans-30" d="M 2034 4250 
Q 1547 4250 1301 3770 
Q 1056 3291 1056 2328 
Q 1056 1369 1301 889 
Q 1547 409 2034 409 
Q 2525 409 2770 889 
Q 3016 1369 3016 2328 
Q 3016 3291 2770 3770 
Q 2525 4250 2034 4250 
z
M 2034 4750 
Q 2819 4750 3233 4129 
Q 3647 3509 3647 2328 
Q 3647 1150 3233 529 
Q 2819 -91 2034 -91 
Q 1250 -91 836 529 
Q 422 1150 422 2328 
Q 422 3509 836 4129 
Q 1250 4750 2034 4750 
z
" transform="scale(0.015625)"/>
       </defs>
       <use xlink:href="#DejaVuSans-30"/>
      </g>
     </g>
    </g>
    <g id="xtick_2">
     <g id="line2d_7">
      <path d="M 144.2304 298.944 
L 144.2304 6.912 
" clip-path="url(#pbb7edbf1dc)" style="fill: none; stroke: #b0b0b0; stroke-width: 0.8; stroke-linecap: square"/>
     </g>
     <g id="line2d_8">
      <g>
       <use xlink:href="#mbcd77e3668" x="144.2304" y="298.944" style="stroke: #000000; stroke-width: 0.8"/>
      </g>
     </g>
     <g id="text_2">
      <!-- 2 -->
      <g transform="translate(138.822275 318.861344) scale(0.17 -0.17)">
       <defs>
        <path id="DejaVuSans-32" d="M 1228 531 
L 3431 531 
L 3431 0 
L 469 0 
L 469 531 
Q 828 903 1448 1529 
Q 2069 2156 2228 2338 
Q 2531 2678 2651 2914 
Q 2772 3150 2772 3378 
Q 2772 3750 2511 3984 
Q 2250 4219 1831 4219 
Q 1534 4219 1204 4116 
Q 875 4013 500 3803 
L 500 4441 
Q 881 4594 1212 4672 
Q 1544 4750 1819 4750 
Q 2544 4750 2975 4387 
Q 3406 4025 3406 3419 
Q 3406 3131 3298 2873 
Q 3191 2616 2906 2266 
Q 2828 2175 2409 1742 
Q 1991 1309 1228 531 
z
" transform="scale(0.015625)"/>
       </defs>
       <use xlink:href="#DejaVuSans-32"/>
      </g>
     </g>
    </g>
    <g id="xtick_3">
     <g id="line2d_9">
      <path d="M 230.8608 298.944 
L 230.8608 6.912 
" clip-path="url(#pbb7edbf1dc)" style="fill: none; stroke: #b0b0b0; stroke-width: 0.8; stroke-linecap: square"/>
     </g>
     <g id="line2d_10">
      <g>
       <use xlink:href="#mbcd77e3668" x="230.8608" y="298.944" style="stroke: #000000; stroke-width: 0.8"/>
      </g>
     </g>
     <g id="text_3">
      <!-- 4 -->
      <g transform="translate(225.452675 318.861344) scale(0.17 -0.17)">
       <defs>
        <path id="DejaVuSans-34" d="M 2419 4116 
L 825 1625 
L 2419 1625 
L 2419 4116 
z
M 2253 4666 
L 3047 4666 
L 3047 1625 
L 3713 1625 
L 3713 1100 
L 3047 1100 
L 3047 0 
L 2419 0 
L 2419 1100 
L 313 1100 
L 313 1709 
L 2253 4666 
z
" transform="scale(0.015625)"/>
       </defs>
       <use xlink:href="#DejaVuSans-34"/>
      </g>
     </g>
    </g>
    <g id="xtick_4">
     <g id="line2d_11">
      <path d="M 317.4912 298.944 
L 317.4912 6.912 
" clip-path="url(#pbb7edbf1dc)" style="fill: none; stroke: #b0b0b0; stroke-width: 0.8; stroke-linecap: square"/>
     </g>
     <g id="line2d_12">
      <g>
       <use xlink:href="#mbcd77e3668" x="317.4912" y="298.944" style="stroke: #000000; stroke-width: 0.8"/>
      </g>
     </g>
     <g id="text_4">
      <!-- 6 -->
      <g transform="translate(312.083075 318.861344) scale(0.17 -0.17)">
       <defs>
        <path id="DejaVuSans-36" d="M 2113 2584 
Q 1688 2584 1439 2293 
Q 1191 2003 1191 1497 
Q 1191 994 1439 701 
Q 1688 409 2113 409 
Q 2538 409 2786 701 
Q 3034 994 3034 1497 
Q 3034 2003 2786 2293 
Q 2538 2584 2113 2584 
z
M 3366 4563 
L 3366 3988 
Q 3128 4100 2886 4159 
Q 2644 4219 2406 4219 
Q 1781 4219 1451 3797 
Q 1122 3375 1075 2522 
Q 1259 2794 1537 2939 
Q 1816 3084 2150 3084 
Q 2853 3084 3261 2657 
Q 3669 2231 3669 1497 
Q 3669 778 3244 343 
Q 2819 -91 2113 -91 
Q 1303 -91 875 529 
Q 447 1150 447 2328 
Q 447 3434 972 4092 
Q 1497 4750 2381 4750 
Q 2619 4750 2861 4703 
Q 3103 4656 3366 4563 
z
" transform="scale(0.015625)"/>
       </defs>
       <use xlink:href="#DejaVuSans-36"/>
      </g>
     </g>
    </g>
    <g id="xtick_5">
     <g id="line2d_13">
      <path d="M 100.9152 298.944 
L 100.9152 6.912 
" clip-path="url(#pbb7edbf1dc)" style="fill: none; stroke: #b0b0b0; stroke-width: 0.8; stroke-linecap: square"/>
     </g>
     <g id="line2d_14">
      <defs>
       <path id="m5ecbcc73f5" d="M 0 0 
L 0 2 
" style="stroke: #000000; stroke-width: 0.6"/>
      </defs>
      <g>
       <use xlink:href="#m5ecbcc73f5" x="100.9152" y="298.944" style="stroke: #000000; stroke-width: 0.6"/>
      </g>
     </g>
    </g>
    <g id="xtick_6">
     <g id="line2d_15">
      <path d="M 187.5456 298.944 
L 187.5456 6.912 
" clip-path="url(#pbb7edbf1dc)" style="fill: none; stroke: #b0b0b0; stroke-width: 0.8; stroke-linecap: square"/>
     </g>
     <g id="line2d_16">
      <g>
       <use xlink:href="#m5ecbcc73f5" x="187.5456" y="298.944" style="stroke: #000000; stroke-width: 0.6"/>
      </g>
     </g>
    </g>
    <g id="xtick_7">
     <g id="line2d_17">
      <path d="M 274.176 298.944 
L 274.176 6.912 
" clip-path="url(#pbb7edbf1dc)" style="fill: none; stroke: #b0b0b0; stroke-width: 0.8; stroke-linecap: square"/>
     </g>
     <g id="line2d_18">
      <g>
       <use xlink:href="#m5ecbcc73f5" x="274.176" y="298.944" style="stroke: #000000; stroke-width: 0.6"/>
      </g>
     </g>
    </g>
    <g id="xtick_8">
     <g id="line2d_19">
      <path d="M 360.8064 298.944 
L 360.8064 6.912 
" clip-path="url(#pbb7edbf1dc)" style="fill: none; stroke: #b0b0b0; stroke-width: 0.8; stroke-linecap: square"/>
     </g>
     <g id="line2d_20">
      <g>
       <use xlink:href="#m5ecbcc73f5" x="360.8064" y="298.944" style="stroke: #000000; stroke-width: 0.6"/>
      </g>
     </g>
    </g>
    <g id="text_5">
     <!-- log10(# f-evals / dimension) -->
     <g transform="translate(88.823278 339.314156) scale(0.17 -0.17)">
      <defs>
       <path id="DejaVuSans-6c" d="M 603 4863 
L 1178 4863 
L 1178 0 
L 603 0 
L 603 4863 
z
" transform="scale(0.015625)"/>
       <path id="DejaVuSans-6f" d="M 1959 3097 
Q 1497 3097 1228 2736 
Q 959 2375 959 1747 
Q 959 1119 1226 758 
Q 1494 397 1959 397 
Q 2419 397 2687 759 
Q 2956 1122 2956 1747 
Q 2956 2369 2687 2733 
Q 2419 3097 1959 3097 
z
M 1959 3584 
Q 2709 3584 3137 3096 
Q 3566 2609 3566 1747 
Q 3566 888 3137 398 
Q 2709 -91 1959 -91 
Q 1206 -91 779 398 
Q 353 888 353 1747 
Q 353 2609 779 3096 
Q 1206 3584 1959 3584 
z
" transform="scale(0.015625)"/>
       <path id="DejaVuSans-67" d="M 2906 1791 
Q 2906 2416 2648 2759 
Q 2391 3103 1925 3103 
Q 1463 3103 1205 2759 
Q 947 2416 947 1791 
Q 947 1169 1205 825 
Q 1463 481 1925 481 
Q 2391 481 2648 825 
Q 2906 1169 2906 1791 
z
M 3481 434 
Q 3481 -459 3084 -895 
Q 2688 -1331 1869 -1331 
Q 1566 -1331 1297 -1286 
Q 1028 -1241 775 -1147 
L 775 -588 
Q 1028 -725 1275 -790 
Q 1522 -856 1778 -856 
Q 2344 -856 2625 -561 
Q 2906 -266 2906 331 
L 2906 616 
Q 2728 306 2450 153 
Q 2172 0 1784 0 
Q 1141 0 747 490 
Q 353 981 353 1791 
Q 353 2603 747 3093 
Q 1141 3584 1784 3584 
Q 2172 3584 2450 3431 
Q 2728 3278 2906 2969 
L 2906 3500 
L 3481 3500 
L 3481 434 
z
" transform="scale(0.015625)"/>
       <path id="DejaVuSans-31" d="M 794 531 
L 1825 531 
L 1825 4091 
L 703 3866 
L 703 4441 
L 1819 4666 
L 2450 4666 
L 2450 531 
L 3481 531 
L 3481 0 
L 794 0 
L 794 531 
z
" transform="scale(0.015625)"/>
       <path id="DejaVuSans-28" d="M 1984 4856 
Q 1566 4138 1362 3434 
Q 1159 2731 1159 2009 
Q 1159 1288 1364 580 
Q 1569 -128 1984 -844 
L 1484 -844 
Q 1016 -109 783 600 
Q 550 1309 550 2009 
Q 550 2706 781 3412 
Q 1013 4119 1484 4856 
L 1984 4856 
z
" transform="scale(0.015625)"/>
       <path id="DejaVuSans-23" d="M 3272 2816 
L 2363 2816 
L 2100 1772 
L 3016 1772 
L 3272 2816 
z
M 2803 4594 
L 2478 3297 
L 3391 3297 
L 3719 4594 
L 4219 4594 
L 3897 3297 
L 4872 3297 
L 4872 2816 
L 3775 2816 
L 3519 1772 
L 4513 1772 
L 4513 1294 
L 3397 1294 
L 3072 0 
L 2572 0 
L 2894 1294 
L 1978 1294 
L 1656 0 
L 1153 0 
L 1478 1294 
L 494 1294 
L 494 1772 
L 1594 1772 
L 1856 2816 
L 850 2816 
L 850 3297 
L 1978 3297 
L 2297 4594 
L 2803 4594 
z
" transform="scale(0.015625)"/>
       <path id="DejaVuSans-20" transform="scale(0.015625)"/>
       <path id="DejaVuSans-66" d="M 2375 4863 
L 2375 4384 
L 1825 4384 
Q 1516 4384 1395 4259 
Q 1275 4134 1275 3809 
L 1275 3500 
L 2222 3500 
L 2222 3053 
L 1275 3053 
L 1275 0 
L 697 0 
L 697 3053 
L 147 3053 
L 147 3500 
L 697 3500 
L 697 3744 
Q 697 4328 969 4595 
Q 1241 4863 1831 4863 
L 2375 4863 
z
" transform="scale(0.015625)"/>
       <path id="DejaVuSans-2d" d="M 313 2009 
L 1997 2009 
L 1997 1497 
L 313 1497 
L 313 2009 
z
" transform="scale(0.015625)"/>
       <path id="DejaVuSans-65" d="M 3597 1894 
L 3597 1613 
L 953 1613 
Q 991 1019 1311 708 
Q 1631 397 2203 397 
Q 2534 397 2845 478 
Q 3156 559 3463 722 
L 3463 178 
Q 3153 47 2828 -22 
Q 2503 -91 2169 -91 
Q 1331 -91 842 396 
Q 353 884 353 1716 
Q 353 2575 817 3079 
Q 1281 3584 2069 3584 
Q 2775 3584 3186 3129 
Q 3597 2675 3597 1894 
z
M 3022 2063 
Q 3016 2534 2758 2815 
Q 2500 3097 2075 3097 
Q 1594 3097 1305 2825 
Q 1016 2553 972 2059 
L 3022 2063 
z
" transform="scale(0.015625)"/>
       <path id="DejaVuSans-76" d="M 191 3500 
L 800 3500 
L 1894 563 
L 2988 3500 
L 3597 3500 
L 2284 0 
L 1503 0 
L 191 3500 
z
" transform="scale(0.015625)"/>
       <path id="DejaVuSans-61" d="M 2194 1759 
Q 1497 1759 1228 1600 
Q 959 1441 959 1056 
Q 959 750 1161 570 
Q 1363 391 1709 391 
Q 2188 391 2477 730 
Q 2766 1069 2766 1631 
L 2766 1759 
L 2194 1759 
z
M 3341 1997 
L 3341 0 
L 2766 0 
L 2766 531 
Q 2569 213 2275 61 
Q 1981 -91 1556 -91 
Q 1019 -91 701 211 
Q 384 513 384 1019 
Q 384 1609 779 1909 
Q 1175 2209 1959 2209 
L 2766 2209 
L 2766 2266 
Q 2766 2663 2505 2880 
Q 2244 3097 1772 3097 
Q 1472 3097 1187 3025 
Q 903 2953 641 2809 
L 641 3341 
Q 956 3463 1253 3523 
Q 1550 3584 1831 3584 
Q 2591 3584 2966 3190 
Q 3341 2797 3341 1997 
z
" transform="scale(0.015625)"/>
       <path id="DejaVuSans-73" d="M 2834 3397 
L 2834 2853 
Q 2591 2978 2328 3040 
Q 2066 3103 1784 3103 
Q 1356 3103 1142 2972 
Q 928 2841 928 2578 
Q 928 2378 1081 2264 
Q 1234 2150 1697 2047 
L 1894 2003 
Q 2506 1872 2764 1633 
Q 3022 1394 3022 966 
Q 3022 478 2636 193 
Q 2250 -91 1575 -91 
Q 1294 -91 989 -36 
Q 684 19 347 128 
L 347 722 
Q 666 556 975 473 
Q 1284 391 1588 391 
Q 1994 391 2212 530 
Q 2431 669 2431 922 
Q 2431 1156 2273 1281 
Q 2116 1406 1581 1522 
L 1381 1569 
Q 847 1681 609 1914 
Q 372 2147 372 2553 
Q 372 3047 722 3315 
Q 1072 3584 1716 3584 
Q 2034 3584 2315 3537 
Q 2597 3491 2834 3397 
z
" transform="scale(0.015625)"/>
       <path id="DejaVuSans-2f" d="M 1625 4666 
L 2156 4666 
L 531 -594 
L 0 -594 
L 1625 4666 
z
" transform="scale(0.015625)"/>
       <path id="DejaVuSans-64" d="M 2906 2969 
L 2906 4863 
L 3481 4863 
L 3481 0 
L 2906 0 
L 2906 525 
Q 2725 213 2448 61 
Q 2172 -91 1784 -91 
Q 1150 -91 751 415 
Q 353 922 353 1747 
Q 353 2572 751 3078 
Q 1150 3584 1784 3584 
Q 2172 3584 2448 3432 
Q 2725 3281 2906 2969 
z
M 947 1747 
Q 947 1113 1208 752 
Q 1469 391 1925 391 
Q 2381 391 2643 752 
Q 2906 1113 2906 1747 
Q 2906 2381 2643 2742 
Q 2381 3103 1925 3103 
Q 1469 3103 1208 2742 
Q 947 2381 947 1747 
z
" transform="scale(0.015625)"/>
       <path id="DejaVuSans-69" d="M 603 3500 
L 1178 3500 
L 1178 0 
L 603 0 
L 603 3500 
z
M 603 4863 
L 1178 4863 
L 1178 4134 
L 603 4134 
L 603 4863 
z
" transform="scale(0.015625)"/>
       <path id="DejaVuSans-6d" d="M 3328 2828 
Q 3544 3216 3844 3400 
Q 4144 3584 4550 3584 
Q 5097 3584 5394 3201 
Q 5691 2819 5691 2113 
L 5691 0 
L 5113 0 
L 5113 2094 
Q 5113 2597 4934 2840 
Q 4756 3084 4391 3084 
Q 3944 3084 3684 2787 
Q 3425 2491 3425 1978 
L 3425 0 
L 2847 0 
L 2847 2094 
Q 2847 2600 2669 2842 
Q 2491 3084 2119 3084 
Q 1678 3084 1418 2786 
Q 1159 2488 1159 1978 
L 1159 0 
L 581 0 
L 581 3500 
L 1159 3500 
L 1159 2956 
Q 1356 3278 1631 3431 
Q 1906 3584 2284 3584 
Q 2666 3584 2933 3390 
Q 3200 3197 3328 2828 
z
" transform="scale(0.015625)"/>
       <path id="DejaVuSans-6e" d="M 3513 2113 
L 3513 0 
L 2938 0 
L 2938 2094 
Q 2938 2591 2744 2837 
Q 2550 3084 2163 3084 
Q 1697 3084 1428 2787 
Q 1159 2491 1159 1978 
L 1159 0 
L 581 0 
L 581 3500 
L 1159 3500 
L 1159 2956 
Q 1366 3272 1645 3428 
Q 1925 3584 2291 3584 
Q 2894 3584 3203 3211 
Q 3513 2838 3513 2113 
z
" transform="scale(0.015625)"/>
       <path id="DejaVuSans-29" d="M 513 4856 
L 1013 4856 
Q 1481 4119 1714 3412 
Q 1947 2706 1947 2009 
Q 1947 1309 1714 600 
Q 1481 -109 1013 -844 
L 513 -844 
Q 928 -128 1133 580 
Q 1338 1288 1338 2009 
Q 1338 2731 1133 3434 
Q 928 4138 513 4856 
z
" transform="scale(0.015625)"/>
      </defs>
      <use xlink:href="#DejaVuSans-6c"/>
      <use xlink:href="#DejaVuSans-6f" x="27.783203"/>
      <use xlink:href="#DejaVuSans-67" x="88.964844"/>
      <use xlink:href="#DejaVuSans-31" x="152.441406"/>
      <use xlink:href="#DejaVuSans-30" x="216.064453"/>
      <use xlink:href="#DejaVuSans-28" x="279.6875"/>
      <use xlink:href="#DejaVuSans-23" x="318.701172"/>
      <use xlink:href="#DejaVuSans-20" x="402.490234"/>
      <use xlink:href="#DejaVuSans-66" x="434.277344"/>
      <use xlink:href="#DejaVuSans-2d" x="463.982422"/>
      <use xlink:href="#DejaVuSans-65" x="500.066406"/>
      <use xlink:href="#DejaVuSans-76" x="561.589844"/>
      <use xlink:href="#DejaVuSans-61" x="620.769531"/>
      <use xlink:href="#DejaVuSans-6c" x="682.048828"/>
      <use xlink:href="#DejaVuSans-73" x="709.832031"/>
      <use xlink:href="#DejaVuSans-20" x="761.931641"/>
      <use xlink:href="#DejaVuSans-2f" x="793.71875"/>
      <use xlink:href="#DejaVuSans-20" x="827.410156"/>
      <use xlink:href="#DejaVuSans-64" x="859.197266"/>
      <use xlink:href="#DejaVuSans-69" x="922.673828"/>
      <use xlink:href="#DejaVuSans-6d" x="950.457031"/>
      <use xlink:href="#DejaVuSans-65" x="1047.869141"/>
      <use xlink:href="#DejaVuSans-6e" x="1109.392578"/>
      <use xlink:href="#DejaVuSans-73" x="1172.771484"/>
      <use xlink:href="#DejaVuSans-69" x="1224.871094"/>
      <use xlink:href="#DejaVuSans-6f" x="1252.654297"/>
      <use xlink:href="#DejaVuSans-6e" x="1313.835938"/>
      <use xlink:href="#DejaVuSans-29" x="1377.214844"/>
     </g>
    </g>
   </g>
   <g id="matplotlib.axis_2">
    <g id="ytick_1">
     <g id="line2d_21">
      <path d="M 57.6 298.944 
L 360.8064 298.944 
" clip-path="url(#pbb7edbf1dc)" style="fill: none; stroke: #b0b0b0; stroke-width: 0.8; stroke-linecap: square"/>
     </g>
     <g id="line2d_22">
      <defs>
       <path id="m66ca138c42" d="M 0 0 
L -3.5 0 
" style="stroke: #000000; stroke-width: 0.8"/>
      </defs>
      <g>
       <use xlink:href="#m66ca138c42" x="57.6" y="298.944" style="stroke: #000000; stroke-width: 0.8"/>
      </g>
     </g>
     <g id="text_6">
      <!-- 0.0 -->
      <g transform="translate(25.155 305.02275) scale(0.16 -0.16)">
       <defs>
        <path id="DejaVuSans-2e" d="M 684 794 
L 1344 794 
L 1344 0 
L 684 0 
L 684 794 
z
" transform="scale(0.015625)"/>
       </defs>
       <use xlink:href="#DejaVuSans-30"/>
       <use xlink:href="#DejaVuSans-2e" x="63.623047"/>
       <use xlink:href="#DejaVuSans-30" x="95.410156"/>
      </g>
     </g>
    </g>
    <g id="ytick_2">
     <g id="line2d_23">
      <path d="M 57.6 240.5376 
L 360.8064 240.5376 
" clip-path="url(#pbb7edbf1dc)" style="fill: none; stroke: #b0b0b0; stroke-width: 0.8; stroke-linecap: square"/>
     </g>
     <g id="line2d_24">
      <g>
       <use xlink:href="#m66ca138c42" x="57.6" y="240.5376" style="stroke: #000000; stroke-width: 0.8"/>
      </g>
     </g>
     <g id="text_7">
      <!-- 0.2 -->
      <g transform="translate(25.155 246.61635) scale(0.16 -0.16)">
       <use xlink:href="#DejaVuSans-30"/>
       <use xlink:href="#DejaVuSans-2e" x="63.623047"/>
       <use xlink:href="#DejaVuSans-32" x="95.410156"/>
      </g>
     </g>
    </g>
    <g id="ytick_3">
     <g id="line2d_25">
      <path d="M 57.6 182.1312 
L 360.8064 182.1312 
" clip-path="url(#pbb7edbf1dc)" style="fill: none; stroke: #b0b0b0; stroke-width: 0.8; stroke-linecap: square"/>
     </g>
     <g id="line2d_26">
      <g>
       <use xlink:href="#m66ca138c42" x="57.6" y="182.1312" style="stroke: #000000; stroke-width: 0.8"/>
      </g>
     </g>
     <g id="text_8">
      <!-- 0.4 -->
      <g transform="translate(25.155 188.20995) scale(0.16 -0.16)">
       <use xlink:href="#DejaVuSans-30"/>
       <use xlink:href="#DejaVuSans-2e" x="63.623047"/>
       <use xlink:href="#DejaVuSans-34" x="95.410156"/>
      </g>
     </g>
    </g>
    <g id="ytick_4">
     <g id="line2d_27">
      <path d="M 57.6 123.7248 
L 360.8064 123.7248 
" clip-path="url(#pbb7edbf1dc)" style="fill: none; stroke: #b0b0b0; stroke-width: 0.8; stroke-linecap: square"/>
     </g>
     <g id="line2d_28">
      <g>
       <use xlink:href="#m66ca138c42" x="57.6" y="123.7248" style="stroke: #000000; stroke-width: 0.8"/>
      </g>
     </g>
     <g id="text_9">
      <!-- 0.6 -->
      <g transform="translate(25.155 129.80355) scale(0.16 -0.16)">
       <use xlink:href="#DejaVuSans-30"/>
       <use xlink:href="#DejaVuSans-2e" x="63.623047"/>
       <use xlink:href="#DejaVuSans-36" x="95.410156"/>
      </g>
     </g>
    </g>
    <g id="ytick_5">
     <g id="line2d_29">
      <path d="M 57.6 65.3184 
L 360.8064 65.3184 
" clip-path="url(#pbb7edbf1dc)" style="fill: none; stroke: #b0b0b0; stroke-width: 0.8; stroke-linecap: square"/>
     </g>
     <g id="line2d_30">
      <g>
       <use xlink:href="#m66ca138c42" x="57.6" y="65.3184" style="stroke: #000000; stroke-width: 0.8"/>
      </g>
     </g>
     <g id="text_10">
      <!-- 0.8 -->
      <g transform="translate(25.155 71.39715) scale(0.16 -0.16)">
       <defs>
        <path id="DejaVuSans-38" d="M 2034 2216 
Q 1584 2216 1326 1975 
Q 1069 1734 1069 1313 
Q 1069 891 1326 650 
Q 1584 409 2034 409 
Q 2484 409 2743 651 
Q 3003 894 3003 1313 
Q 3003 1734 2745 1975 
Q 2488 2216 2034 2216 
z
M 1403 2484 
Q 997 2584 770 2862 
Q 544 3141 544 3541 
Q 544 4100 942 4425 
Q 1341 4750 2034 4750 
Q 2731 4750 3128 4425 
Q 3525 4100 3525 3541 
Q 3525 3141 3298 2862 
Q 3072 2584 2669 2484 
Q 3125 2378 3379 2068 
Q 3634 1759 3634 1313 
Q 3634 634 3220 271 
Q 2806 -91 2034 -91 
Q 1263 -91 848 271 
Q 434 634 434 1313 
Q 434 1759 690 2068 
Q 947 2378 1403 2484 
z
M 1172 3481 
Q 1172 3119 1398 2916 
Q 1625 2713 2034 2713 
Q 2441 2713 2670 2916 
Q 2900 3119 2900 3481 
Q 2900 3844 2670 4047 
Q 2441 4250 2034 4250 
Q 1625 4250 1398 4047 
Q 1172 3844 1172 3481 
z
" transform="scale(0.015625)"/>
       </defs>
       <use xlink:href="#DejaVuSans-30"/>
       <use xlink:href="#DejaVuSans-2e" x="63.623047"/>
       <use xlink:href="#DejaVuSans-38" x="95.410156"/>
      </g>
     </g>
    </g>
    <g id="ytick_6">
     <g id="line2d_31">
      <path d="M 57.6 6.912 
L 360.8064 6.912 
" clip-path="url(#pbb7edbf1dc)" style="fill: none; stroke: #b0b0b0; stroke-width: 0.8; stroke-linecap: square"/>
     </g>
     <g id="line2d_32">
      <g>
       <use xlink:href="#m66ca138c42" x="57.6" y="6.912" style="stroke: #000000; stroke-width: 0.8"/>
      </g>
     </g>
     <g id="text_11">
      <!-- 1.0 -->
      <g transform="translate(25.155 12.99075) scale(0.16 -0.16)">
       <use xlink:href="#DejaVuSans-31"/>
       <use xlink:href="#DejaVuSans-2e" x="63.623047"/>
       <use xlink:href="#DejaVuSans-30" x="95.410156"/>
      </g>
     </g>
    </g>
    <g id="text_12">
     <!-- Fraction of function,target pairs -->
     <g transform="translate(17.619531 287.313) rotate(-90) scale(0.17 -0.17)">
      <defs>
       <path id="DejaVuSans-46" d="M 628 4666 
L 3309 4666 
L 3309 4134 
L 1259 4134 
L 1259 2759 
L 3109 2759 
L 3109 2228 
L 1259 2228 
L 1259 0 
L 628 0 
L 628 4666 
z
" transform="scale(0.015625)"/>
       <path id="DejaVuSans-72" d="M 2631 2963 
Q 2534 3019 2420 3045 
Q 2306 3072 2169 3072 
Q 1681 3072 1420 2755 
Q 1159 2438 1159 1844 
L 1159 0 
L 581 0 
L 581 3500 
L 1159 3500 
L 1159 2956 
Q 1341 3275 1631 3429 
Q 1922 3584 2338 3584 
Q 2397 3584 2469 3576 
Q 2541 3569 2628 3553 
L 2631 2963 
z
" transform="scale(0.015625)"/>
       <path id="DejaVuSans-63" d="M 3122 3366 
L 3122 2828 
Q 2878 2963 2633 3030 
Q 2388 3097 2138 3097 
Q 1578 3097 1268 2742 
Q 959 2388 959 1747 
Q 959 1106 1268 751 
Q 1578 397 2138 397 
Q 2388 397 2633 464 
Q 2878 531 3122 666 
L 3122 134 
Q 2881 22 2623 -34 
Q 2366 -91 2075 -91 
Q 1284 -91 818 406 
Q 353 903 353 1747 
Q 353 2603 823 3093 
Q 1294 3584 2113 3584 
Q 2378 3584 2631 3529 
Q 2884 3475 3122 3366 
z
" transform="scale(0.015625)"/>
       <path id="DejaVuSans-74" d="M 1172 4494 
L 1172 3500 
L 2356 3500 
L 2356 3053 
L 1172 3053 
L 1172 1153 
Q 1172 725 1289 603 
Q 1406 481 1766 481 
L 2356 481 
L 2356 0 
L 1766 0 
Q 1100 0 847 248 
Q 594 497 594 1153 
L 594 3053 
L 172 3053 
L 172 3500 
L 594 3500 
L 594 4494 
L 1172 4494 
z
" transform="scale(0.015625)"/>
       <path id="DejaVuSans-75" d="M 544 1381 
L 544 3500 
L 1119 3500 
L 1119 1403 
Q 1119 906 1312 657 
Q 1506 409 1894 409 
Q 2359 409 2629 706 
Q 2900 1003 2900 1516 
L 2900 3500 
L 3475 3500 
L 3475 0 
L 2900 0 
L 2900 538 
Q 2691 219 2414 64 
Q 2138 -91 1772 -91 
Q 1169 -91 856 284 
Q 544 659 544 1381 
z
M 1991 3584 
L 1991 3584 
z
" transform="scale(0.015625)"/>
       <path id="DejaVuSans-2c" d="M 750 794 
L 1409 794 
L 1409 256 
L 897 -744 
L 494 -744 
L 750 256 
L 750 794 
z
" transform="scale(0.015625)"/>
       <path id="DejaVuSans-70" d="M 1159 525 
L 1159 -1331 
L 581 -1331 
L 581 3500 
L 1159 3500 
L 1159 2969 
Q 1341 3281 1617 3432 
Q 1894 3584 2278 3584 
Q 2916 3584 3314 3078 
Q 3713 2572 3713 1747 
Q 3713 922 3314 415 
Q 2916 -91 2278 -91 
Q 1894 -91 1617 61 
Q 1341 213 1159 525 
z
M 3116 1747 
Q 3116 2381 2855 2742 
Q 2594 3103 2138 3103 
Q 1681 3103 1420 2742 
Q 1159 2381 1159 1747 
Q 1159 1113 1420 752 
Q 1681 391 2138 391 
Q 2594 391 2855 752 
Q 3116 1113 3116 1747 
z
" transform="scale(0.015625)"/>
      </defs>
      <use xlink:href="#DejaVuSans-46"/>
      <use xlink:href="#DejaVuSans-72" x="50.269531"/>
      <use xlink:href="#DejaVuSans-61" x="91.382812"/>
      <use xlink:href="#DejaVuSans-63" x="152.662109"/>
      <use xlink:href="#DejaVuSans-74" x="207.642578"/>
      <use xlink:href="#DejaVuSans-69" x="246.851562"/>
      <use xlink:href="#DejaVuSans-6f" x="274.634766"/>
      <use xlink:href="#DejaVuSans-6e" x="335.816406"/>
      <use xlink:href="#DejaVuSans-20" x="399.195312"/>
      <use xlink:href="#DejaVuSans-6f" x="430.982422"/>
      <use xlink:href="#DejaVuSans-66" x="492.164062"/>
      <use xlink:href="#DejaVuSans-20" x="527.369141"/>
      <use xlink:href="#DejaVuSans-66" x="559.15625"/>
      <use xlink:href="#DejaVuSans-75" x="594.361328"/>
      <use xlink:href="#DejaVuSans-6e" x="657.740234"/>
      <use xlink:href="#DejaVuSans-63" x="721.119141"/>
      <use xlink:href="#DejaVuSans-74" x="776.099609"/>
      <use xlink:href="#DejaVuSans-69" x="815.308594"/>
      <use xlink:href="#DejaVuSans-6f" x="843.091797"/>
      <use xlink:href="#DejaVuSans-6e" x="904.273438"/>
      <use xlink:href="#DejaVuSans-2c" x="967.652344"/>
      <use xlink:href="#DejaVuSans-74" x="999.439453"/>
      <use xlink:href="#DejaVuSans-61" x="1038.648438"/>
      <use xlink:href="#DejaVuSans-72" x="1099.927734"/>
      <use xlink:href="#DejaVuSans-67" x="1139.291016"/>
      <use xlink:href="#DejaVuSans-65" x="1202.767578"/>
      <use xlink:href="#DejaVuSans-74" x="1264.291016"/>
      <use xlink:href="#DejaVuSans-20" x="1303.5"/>
      <use xlink:href="#DejaVuSans-70" x="1335.287109"/>
      <use xlink:href="#DejaVuSans-61" x="1398.763672"/>
      <use xlink:href="#DejaVuSans-69" x="1460.042969"/>
      <use xlink:href="#DejaVuSans-72" x="1487.826172"/>
      <use xlink:href="#DejaVuSans-73" x="1528.939453"/>
     </g>
    </g>
   </g>
   <g id="line2d_33">
    <defs>
     <path id="me541beadf4" d="M 0 1.5 
C 0.397805 1.5 0.77937 1.341951 1.06066 1.06066 
C 1.341951 0.77937 1.5 0.397805 1.5 0 
C 1.5 -0.397805 1.341951 -0.77937 1.06066 -1.06066 
C 0.77937 -1.341951 0.397805 -1.5 0 -1.5 
C -0.397805 -1.5 -0.77937 -1.341951 -1.06066 -1.06066 
C -1.341951 -0.77937 -1.5 -0.397805 -1.5 0 
C -1.5 0.397805 -1.341951 0.77937 -1.06066 1.06066 
C -0.77937 1.341951 -0.397805 1.5 0 1.5 
z
" style="stroke: #f5deb3"/>
    </defs>
    <g>
     <use xlink:href="#me541beadf4" x="176.705378" y="6.912" style="fill: #f5deb3; stroke: #f5deb3"/>
     <use xlink:href="#me541beadf4" x="176.705378" y="6.912" style="fill: #f5deb3; stroke: #f5deb3"/>
    </g>
   </g>
   <g id="line2d_34">
    <defs>
     <path id="m932b13093e" d="M 0 1.5 
C 0.397805 1.5 0.77937 1.341951 1.06066 1.06066 
C 1.341951 0.77937 1.5 0.397805 1.5 0 
C 1.5 -0.397805 1.341951 -0.77937 1.06066 -1.06066 
C 0.77937 -1.341951 0.397805 -1.5 0 -1.5 
C -0.397805 -1.5 -0.77937 -1.341951 -1.06066 -1.06066 
C -1.341951 -0.77937 -1.5 -0.397805 -1.5 0 
C -1.5 0.397805 -1.341951 0.77937 -1.06066 1.06066 
C -0.77937 1.341951 -0.397805 1.5 0 1.5 
z
" style="stroke: #000080"/>
    </defs>
    <g>
     <use xlink:href="#m932b13093e" x="184.408525" y="8.302629" style="fill: #000080; stroke: #000080"/>
     <use xlink:href="#m932b13093e" x="184.408525" y="8.302629" style="fill: #000080; stroke: #000080"/>
    </g>
   </g>
   <g id="line2d_35">
    <path d="M 27.323974 298.944 
L 27.323974 208.553143 
L 40.363149 208.553143 
L 40.363149 205.771886 
L 66.441498 205.771886 
L 66.441498 196.037486 
L 76.96874 196.037486 
L 76.96874 190.474971 
L 83.678349 190.474971 
L 83.678349 184.912457 
L 88.613828 184.912457 
L 88.613828 183.521829 
L 95.752617 183.521829 
L 95.752617 182.1312 
L 98.510456 182.1312 
L 98.510456 179.349943 
L 104.961779 179.349943 
L 104.961779 176.568686 
L 105.559021 176.568686 
L 105.559021 175.178057 
L 106.137884 175.178057 
L 106.137884 173.787429 
L 107.244765 173.787429 
L 107.244765 172.3968 
L 108.29012 172.3968 
L 108.29012 169.615543 
L 109.756698 169.615543 
L 109.756698 168.224914 
L 110.221204 168.224914 
L 110.221204 165.443657 
L 110.674517 165.443657 
L 110.674517 162.6624 
L 112.385837 162.6624 
L 112.385837 161.271771 
L 112.989468 161.271771 
L 112.989468 159.881143 
L 113.381389 159.881143 
L 113.381389 158.490514 
L 115.747307 158.490514 
L 115.747307 155.709257 
L 117.540239 155.709257 
L 117.540239 154.318629 
L 117.848632 154.318629 
L 117.848632 152.928 
L 118.301945 152.928 
L 118.301945 148.756114 
L 118.74459 148.756114 
L 118.74459 147.365486 
L 119.459944 147.365486 
L 119.459944 145.974857 
L 120.682786 145.974857 
L 120.682786 144.584229 
L 120.944062 144.584229 
L 120.944062 143.1936 
L 121.581803 143.1936 
L 121.581803 140.412343 
L 121.830966 140.412343 
L 121.830966 137.631086 
L 123.601383 137.631086 
L 123.601383 136.240457 
L 124.695386 136.240457 
L 124.695386 134.849829 
L 125.322496 134.849829 
L 125.322496 133.4592 
L 125.829577 133.4592 
L 125.829577 130.677943 
L 126.420564 130.677943 
L 126.420564 129.287314 
L 127.273627 129.287314 
L 127.366067 126.506057 
L 127.458055 126.506057 
L 127.458055 125.115429 
L 127.640693 125.115429 
L 127.731351 122.334171 
L 127.821575 122.334171 
L 127.821575 120.943543 
L 128.441306 120.943543 
L 128.441306 119.552914 
L 130.186674 119.552914 
L 130.186674 118.162286 
L 130.579414 118.162286 
L 130.579414 116.771657 
L 131.191226 116.771657 
L 131.191226 115.381029 
L 131.63737 115.381029 
L 131.63737 113.9904 
L 131.783764 113.9904 
L 131.783764 112.599771 
L 132.001241 112.599771 
L 132.001241 111.209143 
L 132.287354 111.209143 
L 132.287354 109.818514 
L 132.499119 109.818514 
L 132.499119 107.037257 
L 132.915628 107.037257 
L 132.915628 105.646629 
L 133.188264 105.646629 
L 133.188264 104.256 
L 133.523594 104.256 
L 133.589949 100.084114 
L 133.656071 100.084114 
L 133.656071 98.693486 
L 134.368469 98.693486 
L 134.368469 97.302857 
L 134.495147 97.302857 
L 134.495147 94.5216 
L 135.657857 94.5216 
L 135.657857 93.130971 
L 136.068734 93.130971 
L 136.068734 91.740343 
L 136.97549 91.740343 
L 136.97549 88.959086 
L 137.195511 88.959086 
L 137.304564 84.7872 
L 137.520791 84.7872 
L 137.520791 83.396571 
L 138.515235 83.396571 
L 138.515235 82.005943 
L 138.718057 82.005943 
L 138.718057 80.615314 
L 139.362521 80.615314 
L 139.411192 77.834057 
L 140.405242 77.834057 
L 140.405242 76.443429 
L 140.770526 76.443429 
L 140.770526 75.0528 
L 141.261484 75.0528 
L 141.261484 73.662171 
L 142.497568 73.662171 
L 142.538777 70.880914 
L 143.02636 70.880914 
L 143.02636 69.490286 
L 143.225848 69.490286 
L 143.225848 68.099657 
L 143.773417 68.099657 
L 143.773417 66.709029 
L 144.529002 66.709029 
L 144.529002 65.3184 
L 145.291002 65.3184 
L 145.291002 63.927771 
L 145.573357 63.927771 
L 145.678157 61.146514 
L 145.851536 61.146514 
L 145.851536 59.755886 
L 146.496179 59.755886 
L 146.496179 58.365257 
L 146.892226 58.365257 
L 146.892226 56.974629 
L 147.407644 56.974629 
L 147.407644 55.584 
L 147.816265 55.584 
L 147.816265 54.193371 
L 148.726679 54.193371 
L 148.726679 52.802743 
L 149.049758 52.802743 
L 149.049758 51.412114 
L 149.281288 51.412114 
L 149.338728 48.630857 
L 149.98698 48.630857 
L 149.98698 47.240229 
L 151.477784 47.240229 
L 151.477784 45.8496 
L 151.982822 45.8496 
L 152.032588 43.068343 
L 152.25492 43.068343 
L 152.25492 41.677714 
L 152.643804 41.677714 
L 152.643804 40.287086 
L 152.859068 40.287086 
L 152.882835 37.505829 
L 153.877408 37.505829 
L 153.877408 36.1152 
L 154.693034 36.1152 
L 154.693034 34.724571 
L 155.639595 34.724571 
L 155.639595 33.333943 
L 157.231914 33.333943 
L 157.231914 31.943314 
L 157.642093 31.943314 
L 157.642093 30.552686 
L 157.770751 30.552686 
L 157.770751 29.162057 
L 158.804221 29.162057 
L 158.804221 27.771429 
L 159.800309 27.771429 
L 159.800309 26.3808 
L 160.061585 26.3808 
L 160.061585 24.990171 
L 164.972099 24.990171 
L 164.972099 23.599543 
L 166.780922 23.599543 
L 166.780922 22.208914 
L 167.91469 22.208914 
L 167.91469 20.818286 
L 168.399768 20.818286 
L 168.399768 19.427657 
L 170.138678 19.427657 
L 170.138678 18.037029 
L 170.791599 18.037029 
L 170.791599 16.6464 
L 171.307016 16.6464 
L 171.307016 13.865143 
L 175.545679 13.865143 
L 175.545679 12.474514 
L 178.710121 12.474514 
L 178.710121 11.083886 
L 179.545804 11.083886 
L 179.545804 9.693257 
L 184.408525 9.693257 
L 184.408525 8.302629 
L 360.8064 8.302629 
L 360.8064 8.302629 
" style="fill: none; stroke: #000080; stroke-width: 1.5; stroke-linecap: square"/>
   </g>
   <g id="line2d_36">
    <defs>
     <path id="ma5ec0037cc" d="M 0 6 
C 1.591219 6 3.117479 5.367802 4.242641 4.242641 
C 5.367802 3.117479 6 1.591219 6 0 
C 6 -1.591219 5.367802 -3.117479 4.242641 -4.242641 
C 3.117479 -5.367802 1.591219 -6 0 -6 
C -1.591219 -6 -3.117479 -5.367802 -4.242641 -4.242641 
C -5.367802 -3.117479 -6 -1.591219 -6 0 
C -6 1.591219 -5.367802 3.117479 -4.242641 4.242641 
C -3.117479 5.367802 -1.591219 6 0 6 
z
" style="stroke: #000080; stroke-width: 1.5"/>
    </defs>
    <g>
     <use xlink:href="#ma5ec0037cc" x="127.366067" y="126.506057" style="fill-opacity: 0; stroke: #000080; stroke-width: 1.5"/>
     <use xlink:href="#ma5ec0037cc" x="175.545679" y="12.474514" style="fill-opacity: 0; stroke: #000080; stroke-width: 1.5"/>
     <use xlink:href="#ma5ec0037cc" x="184.408525" y="8.302629" style="fill-opacity: 0; stroke: #000080; stroke-width: 1.5"/>
     <use xlink:href="#ma5ec0037cc" x="184.408525" y="8.302629" style="fill-opacity: 0; stroke: #000080; stroke-width: 1.5"/>
     <use xlink:href="#ma5ec0037cc" x="360.8064" y="8.302629" style="fill-opacity: 0; stroke: #000080; stroke-width: 1.5"/>
    </g>
   </g>
   <g id="line2d_37">
    <path style="fill: none; stroke: #000080; stroke-width: 1.5; stroke-linecap: square"/>
    <g/>
   </g>
   <g id="line2d_38">
    <path d="M 187.519245 8.302629 
" clip-path="url(#pbb7edbf1dc)" style="fill: none; stroke: #000080; stroke-width: 1.5; stroke-linecap: square"/>
    <defs>
     <path id="m00ddae4346" d="M -12 12 
L 12 -12 
M -12 -12 
L 12 12 
" style="stroke: #000080"/>
    </defs>
    <g clip-path="url(#pbb7edbf1dc)">
     <use xlink:href="#m00ddae4346" x="187.519245" y="8.302629" style="fill: #000080; stroke: #000080"/>
    </g>
   </g>
   <g id="line2d_39">
    <defs>
     <path id="m0691793b57" d="M 0 1.5 
C 0.397805 1.5 0.77937 1.341951 1.06066 1.06066 
C 1.341951 0.77937 1.5 0.397805 1.5 0 
C 1.5 -0.397805 1.341951 -0.77937 1.06066 -1.06066 
C 0.77937 -1.341951 0.397805 -1.5 0 -1.5 
C -0.397805 -1.5 -0.77937 -1.341951 -1.06066 -1.06066 
C -1.341951 -0.77937 -1.5 -0.397805 -1.5 0 
C -1.5 0.397805 -1.341951 0.77937 -1.06066 1.06066 
C -0.77937 1.341951 -0.397805 1.5 0 1.5 
z
" style="stroke: #ff00ff"/>
    </defs>
    <g>
     <use xlink:href="#m0691793b57" x="198.049178" y="9.693257" style="fill: #ff00ff; stroke: #ff00ff"/>
     <use xlink:href="#m0691793b57" x="198.049178" y="9.693257" style="fill: #ff00ff; stroke: #ff00ff"/>
    </g>
   </g>
   <g id="line2d_40">
    <path d="M 27.323974 298.944 
L 27.323974 208.553143 
L 40.363149 208.553143 
L 40.363149 204.381257 
L 63.929565 204.381257 
L 63.929565 196.037486 
L 74.068926 196.037486 
L 74.068926 193.256229 
L 80.621116 193.256229 
L 80.621116 187.693714 
L 85.471281 187.693714 
L 85.471281 184.912457 
L 92.519847 184.912457 
L 92.519847 179.349943 
L 95.250946 179.349943 
L 95.250946 177.959314 
L 99.751228 177.959314 
L 99.751228 171.006171 
L 101.653002 171.006171 
L 101.653002 168.224914 
L 103.047088 168.224914 
L 103.047088 166.834286 
L 104.655893 166.834286 
L 104.655893 164.053029 
L 106.42077 164.053029 
L 106.42077 162.6624 
L 107.244765 162.6624 
L 107.244765 161.271771 
L 108.034177 161.271771 
L 108.034177 157.099886 
L 108.542628 157.099886 
L 108.542628 155.709257 
L 109.756698 155.709257 
L 109.756698 154.318629 
L 111.762192 154.318629 
L 111.762192 152.928 
L 111.97238 152.928 
L 111.97238 151.537371 
L 115.747307 151.537371 
L 115.747307 150.146743 
L 116.086263 150.146743 
L 116.086263 148.756114 
L 116.419219 148.756114 
L 116.419219 147.365486 
L 116.583514 147.365486 
L 116.583514 145.974857 
L 117.384126 145.974857 
L 117.384126 144.584229 
L 118.301945 144.584229 
L 118.301945 141.802971 
L 120.013265 141.802971 
L 120.013265 140.412343 
L 121.706797 140.412343 
L 121.706797 139.021714 
L 121.954321 139.021714 
L 121.954321 137.631086 
L 122.19863 137.631086 
L 122.19863 134.849829 
L 123.374735 134.849829 
L 123.374735 133.4592 
L 124.265389 133.4592 
L 124.265389 132.068571 
L 126.420564 132.068571 
L 126.420564 130.677943 
L 126.613505 130.677943 
L 126.613505 129.287314 
L 128.528195 129.287314 
L 128.528195 127.896686 
L 129.947033 127.896686 
L 129.947033 126.506057 
L 131.115828 126.506057 
L 131.115828 125.115429 
L 131.341119 125.115429 
L 131.341119 123.7248 
L 131.783764 123.7248 
L 131.783764 122.334171 
L 132.846847 122.334171 
L 132.846847 120.943543 
L 133.188264 120.943543 
L 133.188264 119.552914 
L 133.457005 119.552914 
L 133.457005 116.771657 
L 133.78762 116.771657 
L 133.78762 115.381029 
L 133.918257 115.381029 
L 133.918257 113.9904 
L 134.87014 113.9904 
L 134.87014 112.599771 
L 135.538796 112.599771 
L 135.538796 111.209143 
L 136.299553 111.209143 
L 136.299553 109.818514 
L 136.527575 109.818514 
L 136.527575 108.427886 
L 137.520791 108.427886 
L 137.520791 107.037257 
L 138.050729 107.037257 
L 138.050729 105.646629 
L 138.206842 105.646629 
L 138.310202 102.865371 
L 138.412998 102.865371 
L 138.412998 101.474743 
L 138.768422 101.474743 
L 138.768422 98.693486 
L 138.918715 98.693486 
L 138.918715 97.302857 
L 139.067817 97.302857 
L 139.067817 95.912229 
L 139.215746 95.912229 
L 139.215746 94.5216 
L 140.312801 94.5216 
L 140.312801 93.130971 
L 140.451292 93.130971 
L 140.451292 91.740343 
L 141.217377 91.740343 
L 141.217377 90.349714 
L 141.393187 90.349714 
L 141.393187 88.959086 
L 141.825656 88.959086 
L 141.825656 87.568457 
L 142.45627 87.568457 
L 142.45627 86.177829 
L 142.865233 86.177829 
L 142.865233 84.7872 
L 143.265494 84.7872 
L 143.265494 83.396571 
L 143.579681 83.396571 
L 143.657415 80.615314 
L 145.076419 80.615314 
L 145.112353 77.834057 
L 145.608355 77.834057 
L 145.608355 76.443429 
L 145.851536 76.443429 
L 145.851536 75.0528 
L 146.957431 75.0528 
L 146.957431 73.662171 
L 147.1517 73.662171 
L 147.248088 70.880914 
L 147.722752 70.880914 
L 147.753975 68.099657 
L 148.155221 68.099657 
L 148.155221 66.709029 
L 149.107908 66.709029 
L 149.107908 65.3184 
L 149.623325 65.3184 
L 149.623325 63.927771 
L 149.73597 63.927771 
L 149.73597 62.537143 
L 150.370903 62.537143 
L 150.370903 61.146514 
L 150.613636 61.146514 
L 150.613636 59.755886 
L 150.773735 59.755886 
L 150.773735 58.365257 
L 150.906118 58.365257 
L 150.906118 56.974629 
L 151.194122 56.974629 
L 151.194122 55.584 
L 153.189104 55.584 
L 153.189104 54.193371 
L 154.80059 54.193371 
L 154.80059 52.802743 
L 156.165543 52.802743 
L 156.165543 51.412114 
L 156.638319 51.412114 
L 156.638319 50.021486 
L 157.099504 50.021486 
L 157.099504 48.630857 
L 157.549652 48.630857 
L 157.568177 45.8496 
L 158.647529 45.8496 
L 158.647529 44.458971 
L 159.750914 44.458971 
L 159.816746 41.677714 
L 160.683643 41.677714 
L 160.683643 40.287086 
L 160.855439 40.287086 
L 160.855439 38.896457 
L 162.817213 38.896457 
L 162.817213 37.505829 
L 163.572247 37.505829 
L 163.572247 36.1152 
L 166.158043 36.1152 
L 166.228279 33.333943 
L 168.678769 33.333943 
L 168.678769 31.943314 
L 174.812433 31.943314 
L 174.812433 30.552686 
L 174.996608 30.552686 
L 174.996608 29.162057 
L 175.128107 29.162057 
L 175.128107 27.771429 
L 177.498458 27.771429 
L 177.498458 26.3808 
L 177.854483 26.3808 
L 177.917356 23.599543 
L 181.01785 23.599543 
L 181.01785 22.208914 
L 183.995068 22.208914 
L 183.995068 20.818286 
L 185.82514 20.818286 
L 185.82514 19.427657 
L 186.228916 19.427657 
L 186.228916 18.037029 
L 188.477746 18.037029 
L 188.477746 16.6464 
L 189.674129 16.6464 
L 189.731159 13.865143 
L 190.079623 13.865143 
L 190.079623 12.474514 
L 191.21523 12.474514 
L 191.21523 11.083886 
L 198.049178 11.083886 
L 198.049178 9.693257 
L 360.8064 9.693257 
L 360.8064 9.693257 
" style="fill: none; stroke: #ff00ff; stroke-width: 1.5; stroke-linecap: square"/>
   </g>
   <g id="line2d_41">
    <defs>
     <path id="m6561431252" d="M -0 8.485281 
L 5.091169 0 
L 0 -8.485281 
L -5.091169 -0 
z
" style="stroke: #ff00ff; stroke-width: 1.5; stroke-linejoin: miter"/>
    </defs>
    <g>
     <use xlink:href="#m6561431252" x="95.250946" y="177.959314" style="fill-opacity: 0; stroke: #ff00ff; stroke-width: 1.5; stroke-linejoin: miter"/>
     <use xlink:href="#m6561431252" x="150.613636" y="59.755886" style="fill-opacity: 0; stroke: #ff00ff; stroke-width: 1.5; stroke-linejoin: miter"/>
     <use xlink:href="#m6561431252" x="198.049178" y="11.083886" style="fill-opacity: 0; stroke: #ff00ff; stroke-width: 1.5; stroke-linejoin: miter"/>
     <use xlink:href="#m6561431252" x="198.049178" y="9.693257" style="fill-opacity: 0; stroke: #ff00ff; stroke-width: 1.5; stroke-linejoin: miter"/>
     <use xlink:href="#m6561431252" x="198.049178" y="9.693257" style="fill-opacity: 0; stroke: #ff00ff; stroke-width: 1.5; stroke-linejoin: miter"/>
     <use xlink:href="#m6561431252" x="360.8064" y="9.693257" style="fill-opacity: 0; stroke: #ff00ff; stroke-width: 1.5; stroke-linejoin: miter"/>
    </g>
   </g>
   <g id="line2d_42">
    <path style="fill: none; stroke: #ff00ff; stroke-width: 1.5; stroke-linecap: square"/>
    <g/>
   </g>
   <g id="line2d_43">
    <path d="M 198.244052 9.693257 
" clip-path="url(#pbb7edbf1dc)" style="fill: none; stroke: #ff00ff; stroke-width: 1.5; stroke-linecap: square"/>
    <defs>
     <path id="md1798a230a" d="M -12 12 
L 12 -12 
M -12 -12 
L 12 12 
" style="stroke: #ff00ff"/>
    </defs>
    <g clip-path="url(#pbb7edbf1dc)">
     <use xlink:href="#md1798a230a" x="198.244052" y="9.693257" style="fill: #ff00ff; stroke: #ff00ff"/>
    </g>
   </g>
   <g id="line2d_44">
    <defs>
     <path id="m404334c917" d="M 0 1.5 
C 0.397805 1.5 0.77937 1.341951 1.06066 1.06066 
C 1.341951 0.77937 1.5 0.397805 1.5 0 
C 1.5 -0.397805 1.341951 -0.77937 1.06066 -1.06066 
C 0.77937 -1.341951 0.397805 -1.5 0 -1.5 
C -0.397805 -1.5 -0.77937 -1.341951 -1.06066 -1.06066 
C -1.341951 -0.77937 -1.5 -0.397805 -1.5 0 
C -1.5 0.397805 -1.341951 0.77937 -1.06066 1.06066 
C -0.77937 1.341951 -0.397805 1.5 0 1.5 
z
" style="stroke: #ff7500"/>
    </defs>
    <g>
     <use xlink:href="#m404334c917" x="184.430737" y="6.912" style="fill: #ff7500; stroke: #ff7500"/>
     <use xlink:href="#m404334c917" x="184.430737" y="6.912" style="fill: #ff7500; stroke: #ff7500"/>
    </g>
   </g>
   <g id="line2d_45">
    <path d="M 27.323974 298.944 
L 27.323974 208.553143 
L 40.363149 208.553143 
L 40.363149 198.818743 
L 47.990577 198.818743 
L 47.990577 197.428114 
L 57.6 197.428114 
L 57.6 190.474971 
L 61.029752 190.474971 
L 61.029752 187.693714 
L 63.929565 187.693714 
L 63.929565 186.303086 
L 66.441498 186.303086 
L 66.441498 180.740571 
L 68.65718 180.740571 
L 68.65718 177.959314 
L 72.432107 177.959314 
L 72.432107 175.178057 
L 75.574654 175.178057 
L 75.574654 172.3968 
L 79.480672 172.3968 
L 79.480672 171.006171 
L 83.678349 171.006171 
L 83.678349 168.224914 
L 84.596168 168.224914 
L 84.596168 166.834286 
L 86.307488 166.834286 
L 86.307488 165.443657 
L 90.668036 165.443657 
L 90.668036 162.6624 
L 91.922605 162.6624 
L 91.922605 161.271771 
L 94.205591 161.271771 
L 94.205591 159.881143 
L 95.752617 159.881143 
L 95.752617 155.709257 
L 96.241256 155.709257 
L 96.241256 154.318629 
L 99.751228 154.318629 
L 99.751228 152.928 
L 101.287718 152.928 
L 101.287718 151.537371 
L 106.42077 151.537371 
L 106.42077 150.146743 
L 106.974091 150.146743 
L 106.974091 148.756114 
L 108.29012 148.756114 
L 108.29012 147.365486 
L 109.756698 147.365486 
L 109.756698 145.974857 
L 110.221204 145.974857 
L 110.221204 144.584229 
L 110.449226 144.584229 
L 110.449226 143.1936 
L 111.54963 143.1936 
L 111.54963 141.802971 
L 113.381389 141.802971 
L 113.381389 140.412343 
L 115.050503 140.412343 
L 115.050503 137.631086 
L 115.227139 137.631086 
L 115.227139 136.240457 
L 115.747307 136.240457 
L 115.747307 132.068571 
L 115.917548 132.068571 
L 115.917548 130.677943 
L 117.226706 130.677943 
L 117.226706 126.506057 
L 117.384126 126.506057 
L 117.384126 125.115429 
L 118.598196 125.115429 
L 118.598196 123.7248 
L 119.459944 123.7248 
L 119.459944 122.334171 
L 119.876453 122.334171 
L 119.876453 120.943543 
L 120.41783 120.943543 
L 120.41783 118.162286 
L 123.260379 118.162286 
L 123.260379 115.381029 
L 124.265389 115.381029 
L 124.265389 113.9904 
L 124.695386 113.9904 
L 124.695386 112.599771 
L 125.322496 112.599771 
L 125.322496 111.209143 
L 126.028642 111.209143 
L 126.028642 109.818514 
L 126.517282 109.818514 
L 126.517282 108.427886 
L 126.899255 108.427886 
L 126.993549 105.646629 
L 127.821575 105.646629 
L 127.821575 102.865371 
L 128.871795 102.865371 
L 128.871795 101.474743 
L 130.579414 101.474743 
L 130.579414 98.693486 
L 130.811181 98.693486 
L 130.811181 95.912229 
L 130.964122 95.912229 
L 130.964122 94.5216 
L 131.489828 94.5216 
L 131.489828 93.130971 
L 132.777813 93.130971 
L 132.777813 91.740343 
L 133.390178 91.740343 
L 133.390178 88.959086 
L 133.983236 88.959086 
L 133.983236 87.568457 
L 134.176839 87.568457 
L 134.176839 86.177829 
L 134.558167 86.177829 
L 134.620977 83.396571 
L 134.87014 83.396571 
L 134.87014 82.005943 
L 134.993495 82.005943 
L 134.993495 80.615314 
L 135.116046 80.615314 
L 135.116046 79.224686 
L 135.835047 79.224686 
L 135.835047 77.834057 
L 136.184497 77.834057 
L 136.184497 76.443429 
L 137.195511 76.443429 
L 137.195511 75.0528 
L 138.616919 75.0528 
L 138.616919 73.662171 
L 138.868751 73.662171 
L 138.868751 72.271543 
L 139.748412 72.271543 
L 139.748412 70.880914 
L 140.359078 70.880914 
L 140.359078 68.099657 
L 140.543056 68.099657 
L 140.543056 66.709029 
L 141.173167 66.709029 
L 141.173167 62.537143 
L 141.56737 62.537143 
L 141.56737 61.146514 
L 141.995897 61.146514 
L 141.995897 59.755886 
L 142.538777 59.755886 
L 142.538777 58.365257 
L 142.702713 58.365257 
L 142.702713 56.974629 
L 142.986208 56.974629 
L 142.986208 55.584 
L 147.785146 55.584 
L 147.785146 54.193371 
L 148.246613 54.193371 
L 148.246613 52.802743 
L 149.281288 52.802743 
L 149.281288 51.412114 
L 149.481565 51.412114 
L 149.481565 50.021486 
L 150.425115 50.021486 
L 150.425115 48.630857 
L 151.168122 48.630857 
L 151.168122 47.240229 
L 151.375128 47.240229 
L 151.375128 45.8496 
L 151.579882 45.8496 
L 151.579882 44.458971 
L 151.832729 44.458971 
L 151.832729 43.068343 
L 153.787077 43.068343 
L 153.787077 41.677714 
L 154.497869 41.677714 
L 154.497869 40.287086 
L 154.779128 40.287086 
L 154.779128 38.896457 
L 156.245169 38.896457 
L 156.245169 37.505829 
L 157.456756 37.505829 
L 157.456756 36.1152 
L 157.916719 36.1152 
L 157.916719 34.724571 
L 158.133569 34.724571 
L 158.133569 33.333943 
L 159.198823 33.333943 
L 159.215793 30.552686 
L 160.526092 30.552686 
L 160.526092 29.162057 
L 160.746296 29.162057 
L 160.746296 26.3808 
L 161.55733 26.3808 
L 161.55733 24.990171 
L 162.015991 24.990171 
L 162.015991 23.599543 
L 165.993131 23.599543 
L 165.993131 22.208914 
L 168.811641 22.208914 
L 168.811641 20.818286 
L 169.353741 20.818286 
L 169.353741 19.427657 
L 169.531024 19.427657 
L 169.531024 18.037029 
L 172.690906 18.037029 
L 172.690906 16.6464 
L 173.667825 16.6464 
L 173.75417 13.865143 
L 174.98194 13.865143 
L 174.98194 12.474514 
L 176.958065 12.474514 
L 176.958065 11.083886 
L 178.919572 11.083886 
L 178.919572 9.693257 
L 184.044984 9.693257 
L 184.044984 8.302629 
L 184.430737 8.302629 
L 184.430737 6.912 
L 360.8064 6.912 
L 360.8064 6.912 
" style="fill: none; stroke: #ff7500; stroke-width: 1.5; stroke-linecap: square"/>
   </g>
   <g id="line2d_46">
    <defs>
     <path id="m21aa5fff48" d="M 0 -6 
L -1.347084 -1.854102 
L -5.706339 -1.854102 
L -2.179628 0.708204 
L -3.526712 4.854102 
L -0 2.291796 
L 3.526712 4.854102 
L 2.179628 0.708204 
L 5.706339 -1.854102 
L 1.347084 -1.854102 
z
" style="stroke: #ff7500; stroke-width: 1.5; stroke-linejoin: bevel"/>
    </defs>
    <g>
     <use xlink:href="#m21aa5fff48" x="115.227139" y="136.240457" style="fill-opacity: 0; stroke: #ff7500; stroke-width: 1.5; stroke-linejoin: bevel"/>
     <use xlink:href="#m21aa5fff48" x="184.430737" y="8.302629" style="fill-opacity: 0; stroke: #ff7500; stroke-width: 1.5; stroke-linejoin: bevel"/>
     <use xlink:href="#m21aa5fff48" x="184.430737" y="6.912" style="fill-opacity: 0; stroke: #ff7500; stroke-width: 1.5; stroke-linejoin: bevel"/>
     <use xlink:href="#m21aa5fff48" x="184.430737" y="6.912" style="fill-opacity: 0; stroke: #ff7500; stroke-width: 1.5; stroke-linejoin: bevel"/>
     <use xlink:href="#m21aa5fff48" x="360.8064" y="6.912" style="fill-opacity: 0; stroke: #ff7500; stroke-width: 1.5; stroke-linejoin: bevel"/>
    </g>
   </g>
   <g id="line2d_47">
    <path style="fill: none; stroke: #ff7500; stroke-width: 1.5; stroke-linecap: square"/>
    <g/>
   </g>
   <g id="line2d_48">
    <path d="M 360.8064 9.693257 
L 380.514816 293.10336 
" style="fill: none; stroke: #ff00ff; stroke-width: 1.5; stroke-linecap: square"/>
    <g>
     <use xlink:href="#m6561431252" x="360.8064" y="9.693257" style="fill-opacity: 0; stroke: #ff00ff; stroke-width: 1.5; stroke-linejoin: miter"/>
     <use xlink:href="#m6561431252" x="380.514816" y="293.10336" style="fill-opacity: 0; stroke: #ff00ff; stroke-width: 1.5; stroke-linejoin: miter"/>
    </g>
   </g>
   <g id="line2d_49">
    <path d="M 360.8064 8.302629 
L 380.514816 199.65312 
" style="fill: none; stroke: #000080; stroke-width: 1.5; stroke-linecap: square"/>
    <g>
     <use xlink:href="#ma5ec0037cc" x="360.8064" y="8.302629" style="fill-opacity: 0; stroke: #000080; stroke-width: 1.5"/>
     <use xlink:href="#ma5ec0037cc" x="380.514816" y="199.65312" style="fill-opacity: 0; stroke: #000080; stroke-width: 1.5"/>
    </g>
   </g>
   <g id="line2d_50">
    <path d="M 360.8064 6.912 
L 380.514816 106.20288 
" style="fill: none; stroke: #ff7500; stroke-width: 1.5; stroke-linecap: square"/>
    <g>
     <use xlink:href="#m21aa5fff48" x="360.8064" y="6.912" style="fill-opacity: 0; stroke: #ff7500; stroke-width: 1.5; stroke-linejoin: bevel"/>
     <use xlink:href="#m21aa5fff48" x="380.514816" y="106.20288" style="fill-opacity: 0; stroke: #ff7500; stroke-width: 1.5; stroke-linejoin: bevel"/>
    </g>
   </g>
   <g id="line2d_51">
    <path d="M 360.8064 298.944 
L 360.8064 6.912 
" style="fill: none; stroke: #000000; stroke-width: 1.5; stroke-linecap: square"/>
   </g>
   <g id="patch_3">
    <path d="M 57.6 298.944 
L 360.8064 298.944 
" style="fill: none; stroke: #000000; stroke-width: 0.8; stroke-linejoin: miter; stroke-linecap: square"/>
   </g>
   <g id="patch_4">
    <path d="M 57.6 6.912 
L 360.8064 6.912 
" style="fill: none; stroke: #000000; stroke-width: 0.8; stroke-linejoin: miter; stroke-linecap: square"/>
   </g>
   <g id="text_13">
    <!-- LQ-skip -->
    <g transform="translate(386.578944 296.966485) scale(0.14 -0.14)">
     <defs>
      <path id="DejaVuSans-4c" d="M 628 4666 
L 1259 4666 
L 1259 531 
L 3531 531 
L 3531 0 
L 628 0 
L 628 4666 
z
" transform="scale(0.015625)"/>
      <path id="DejaVuSans-51" d="M 2522 4238 
Q 1834 4238 1429 3725 
Q 1025 3213 1025 2328 
Q 1025 1447 1429 934 
Q 1834 422 2522 422 
Q 3209 422 3611 934 
Q 4013 1447 4013 2328 
Q 4013 3213 3611 3725 
Q 3209 4238 2522 4238 
z
M 3406 84 
L 4238 -825 
L 3475 -825 
L 2784 -78 
Q 2681 -84 2626 -87 
Q 2572 -91 2522 -91 
Q 1538 -91 948 567 
Q 359 1225 359 2328 
Q 359 3434 948 4092 
Q 1538 4750 2522 4750 
Q 3503 4750 4090 4092 
Q 4678 3434 4678 2328 
Q 4678 1516 4351 937 
Q 4025 359 3406 84 
z
" transform="scale(0.015625)"/>
      <path id="DejaVuSans-6b" d="M 581 4863 
L 1159 4863 
L 1159 1991 
L 2875 3500 
L 3609 3500 
L 1753 1863 
L 3688 0 
L 2938 0 
L 1159 1709 
L 1159 0 
L 581 0 
L 581 4863 
z
" transform="scale(0.015625)"/>
     </defs>
     <use xlink:href="#DejaVuSans-4c"/>
     <use xlink:href="#DejaVuSans-51" x="55.712891"/>
     <use xlink:href="#DejaVuSans-2d" x="137.173828"/>
     <use xlink:href="#DejaVuSans-73" x="173.257812"/>
     <use xlink:href="#DejaVuSans-6b" x="225.357422"/>
     <use xlink:href="#DejaVuSans-69" x="283.267578"/>
     <use xlink:href="#DejaVuSans-70" x="311.050781"/>
    </g>
   </g>
   <g id="text_14">
    <!-- kerLQ -->
    <g transform="translate(386.578944 203.516245) scale(0.14 -0.14)">
     <use xlink:href="#DejaVuSans-6b"/>
     <use xlink:href="#DejaVuSans-65" x="54.285156"/>
     <use xlink:href="#DejaVuSans-72" x="115.808594"/>
     <use xlink:href="#DejaVuSans-4c" x="156.921875"/>
     <use xlink:href="#DejaVuSans-51" x="212.634766"/>
    </g>
   </g>
   <g id="text_15">
    <!-- COMO-10 d -->
    <g transform="translate(386.578944 110.066005) scale(0.14 -0.14)">
     <defs>
      <path id="DejaVuSans-43" d="M 4122 4306 
L 4122 3641 
Q 3803 3938 3442 4084 
Q 3081 4231 2675 4231 
Q 1875 4231 1450 3742 
Q 1025 3253 1025 2328 
Q 1025 1406 1450 917 
Q 1875 428 2675 428 
Q 3081 428 3442 575 
Q 3803 722 4122 1019 
L 4122 359 
Q 3791 134 3420 21 
Q 3050 -91 2638 -91 
Q 1578 -91 968 557 
Q 359 1206 359 2328 
Q 359 3453 968 4101 
Q 1578 4750 2638 4750 
Q 3056 4750 3426 4639 
Q 3797 4528 4122 4306 
z
" transform="scale(0.015625)"/>
      <path id="DejaVuSans-4f" d="M 2522 4238 
Q 1834 4238 1429 3725 
Q 1025 3213 1025 2328 
Q 1025 1447 1429 934 
Q 1834 422 2522 422 
Q 3209 422 3611 934 
Q 4013 1447 4013 2328 
Q 4013 3213 3611 3725 
Q 3209 4238 2522 4238 
z
M 2522 4750 
Q 3503 4750 4090 4092 
Q 4678 3434 4678 2328 
Q 4678 1225 4090 567 
Q 3503 -91 2522 -91 
Q 1538 -91 948 565 
Q 359 1222 359 2328 
Q 359 3434 948 4092 
Q 1538 4750 2522 4750 
z
" transform="scale(0.015625)"/>
      <path id="DejaVuSans-4d" d="M 628 4666 
L 1569 4666 
L 2759 1491 
L 3956 4666 
L 4897 4666 
L 4897 0 
L 4281 0 
L 4281 4097 
L 3078 897 
L 2444 897 
L 1241 4097 
L 1241 0 
L 628 0 
L 628 4666 
z
" transform="scale(0.015625)"/>
     </defs>
     <use xlink:href="#DejaVuSans-43"/>
     <use xlink:href="#DejaVuSans-4f" x="69.824219"/>
     <use xlink:href="#DejaVuSans-4d" x="148.535156"/>
     <use xlink:href="#DejaVuSans-4f" x="234.814453"/>
     <use xlink:href="#DejaVuSans-2d" x="316.275391"/>
     <use xlink:href="#DejaVuSans-31" x="352.359375"/>
     <use xlink:href="#DejaVuSans-30" x="415.982422"/>
     <use xlink:href="#DejaVuSans-20" x="479.605469"/>
     <use xlink:href="#DejaVuSans-64" x="511.392578"/>
    </g>
   </g>
   <g id="text_16">
    <!-- best 2016 -->
    <g transform="translate(386.578944 16.615765) scale(0.14 -0.14)">
     <defs>
      <path id="DejaVuSans-62" d="M 3116 1747 
Q 3116 2381 2855 2742 
Q 2594 3103 2138 3103 
Q 1681 3103 1420 2742 
Q 1159 2381 1159 1747 
Q 1159 1113 1420 752 
Q 1681 391 2138 391 
Q 2594 391 2855 752 
Q 3116 1113 3116 1747 
z
M 1159 2969 
Q 1341 3281 1617 3432 
Q 1894 3584 2278 3584 
Q 2916 3584 3314 3078 
Q 3713 2572 3713 1747 
Q 3713 922 3314 415 
Q 2916 -91 2278 -91 
Q 1894 -91 1617 61 
Q 1341 213 1159 525 
L 1159 0 
L 581 0 
L 581 4863 
L 1159 4863 
L 1159 2969 
z
" transform="scale(0.015625)"/>
     </defs>
     <use xlink:href="#DejaVuSans-62"/>
     <use xlink:href="#DejaVuSans-65" x="63.476562"/>
     <use xlink:href="#DejaVuSans-73" x="125"/>
     <use xlink:href="#DejaVuSans-74" x="177.099609"/>
     <use xlink:href="#DejaVuSans-20" x="216.308594"/>
     <use xlink:href="#DejaVuSans-32" x="248.095703"/>
     <use xlink:href="#DejaVuSans-30" x="311.71875"/>
     <use xlink:href="#DejaVuSans-31" x="375.341797"/>
     <use xlink:href="#DejaVuSans-36" x="438.964844"/>
    </g>
   </g>
   <g id="text_17">
    <!-- bbob-biobj f7, f8, f16, f17, 5-D -->
    <g transform="translate(60.632064 17.582726) scale(0.102 -0.102)">
     <defs>
      <path id="DejaVuSans-6a" d="M 603 3500 
L 1178 3500 
L 1178 -63 
Q 1178 -731 923 -1031 
Q 669 -1331 103 -1331 
L -116 -1331 
L -116 -844 
L 38 -844 
Q 366 -844 484 -692 
Q 603 -541 603 -63 
L 603 3500 
z
M 603 4863 
L 1178 4863 
L 1178 4134 
L 603 4134 
L 603 4863 
z
" transform="scale(0.015625)"/>
      <path id="DejaVuSans-37" d="M 525 4666 
L 3525 4666 
L 3525 4397 
L 1831 0 
L 1172 0 
L 2766 4134 
L 525 4134 
L 525 4666 
z
" transform="scale(0.015625)"/>
      <path id="DejaVuSans-35" d="M 691 4666 
L 3169 4666 
L 3169 4134 
L 1269 4134 
L 1269 2991 
Q 1406 3038 1543 3061 
Q 1681 3084 1819 3084 
Q 2600 3084 3056 2656 
Q 3513 2228 3513 1497 
Q 3513 744 3044 326 
Q 2575 -91 1722 -91 
Q 1428 -91 1123 -41 
Q 819 9 494 109 
L 494 744 
Q 775 591 1075 516 
Q 1375 441 1709 441 
Q 2250 441 2565 725 
Q 2881 1009 2881 1497 
Q 2881 1984 2565 2268 
Q 2250 2553 1709 2553 
Q 1456 2553 1204 2497 
Q 953 2441 691 2322 
L 691 4666 
z
" transform="scale(0.015625)"/>
      <path id="DejaVuSans-44" d="M 1259 4147 
L 1259 519 
L 2022 519 
Q 2988 519 3436 956 
Q 3884 1394 3884 2338 
Q 3884 3275 3436 3711 
Q 2988 4147 2022 4147 
L 1259 4147 
z
M 628 4666 
L 1925 4666 
Q 3281 4666 3915 4102 
Q 4550 3538 4550 2338 
Q 4550 1131 3912 565 
Q 3275 0 1925 0 
L 628 0 
L 628 4666 
z
" transform="scale(0.015625)"/>
     </defs>
     <use xlink:href="#DejaVuSans-62"/>
     <use xlink:href="#DejaVuSans-62" x="63.476562"/>
     <use xlink:href="#DejaVuSans-6f" x="126.953125"/>
     <use xlink:href="#DejaVuSans-62" x="188.134766"/>
     <use xlink:href="#DejaVuSans-2d" x="251.611328"/>
     <use xlink:href="#DejaVuSans-62" x="287.695312"/>
     <use xlink:href="#DejaVuSans-69" x="351.171875"/>
     <use xlink:href="#DejaVuSans-6f" x="378.955078"/>
     <use xlink:href="#DejaVuSans-62" x="440.136719"/>
     <use xlink:href="#DejaVuSans-6a" x="503.613281"/>
     <use xlink:href="#DejaVuSans-20" x="531.396484"/>
     <use xlink:href="#DejaVuSans-66" x="563.183594"/>
     <use xlink:href="#DejaVuSans-37" x="598.388672"/>
     <use xlink:href="#DejaVuSans-2c" x="662.011719"/>
     <use xlink:href="#DejaVuSans-20" x="693.798828"/>
     <use xlink:href="#DejaVuSans-66" x="725.585938"/>
     <use xlink:href="#DejaVuSans-38" x="760.791016"/>
     <use xlink:href="#DejaVuSans-2c" x="824.414062"/>
     <use xlink:href="#DejaVuSans-20" x="856.201172"/>
     <use xlink:href="#DejaVuSans-66" x="887.988281"/>
     <use xlink:href="#DejaVuSans-31" x="923.193359"/>
     <use xlink:href="#DejaVuSans-36" x="986.816406"/>
     <use xlink:href="#DejaVuSans-2c" x="1050.439453"/>
     <use xlink:href="#DejaVuSans-20" x="1082.226562"/>
     <use xlink:href="#DejaVuSans-66" x="1114.013672"/>
     <use xlink:href="#DejaVuSans-31" x="1149.21875"/>
     <use xlink:href="#DejaVuSans-37" x="1212.841797"/>
     <use xlink:href="#DejaVuSans-2c" x="1276.464844"/>
     <use xlink:href="#DejaVuSans-20" x="1308.251953"/>
     <use xlink:href="#DejaVuSans-35" x="1340.039062"/>
     <use xlink:href="#DejaVuSans-2d" x="1403.662109"/>
     <use xlink:href="#DejaVuSans-44" x="1439.746094"/>
    </g>
    <!-- 31 targets RLs/dim: 0.5..50 -->
    <g transform="translate(60.632064 29.004495) scale(0.102 -0.102)">
     <defs>
      <path id="DejaVuSans-33" d="M 2597 2516 
Q 3050 2419 3304 2112 
Q 3559 1806 3559 1356 
Q 3559 666 3084 287 
Q 2609 -91 1734 -91 
Q 1441 -91 1130 -33 
Q 819 25 488 141 
L 488 750 
Q 750 597 1062 519 
Q 1375 441 1716 441 
Q 2309 441 2620 675 
Q 2931 909 2931 1356 
Q 2931 1769 2642 2001 
Q 2353 2234 1838 2234 
L 1294 2234 
L 1294 2753 
L 1863 2753 
Q 2328 2753 2575 2939 
Q 2822 3125 2822 3475 
Q 2822 3834 2567 4026 
Q 2313 4219 1838 4219 
Q 1578 4219 1281 4162 
Q 984 4106 628 3988 
L 628 4550 
Q 988 4650 1302 4700 
Q 1616 4750 1894 4750 
Q 2613 4750 3031 4423 
Q 3450 4097 3450 3541 
Q 3450 3153 3228 2886 
Q 3006 2619 2597 2516 
z
" transform="scale(0.015625)"/>
      <path id="DejaVuSans-52" d="M 2841 2188 
Q 3044 2119 3236 1894 
Q 3428 1669 3622 1275 
L 4263 0 
L 3584 0 
L 2988 1197 
Q 2756 1666 2539 1819 
Q 2322 1972 1947 1972 
L 1259 1972 
L 1259 0 
L 628 0 
L 628 4666 
L 2053 4666 
Q 2853 4666 3247 4331 
Q 3641 3997 3641 3322 
Q 3641 2881 3436 2590 
Q 3231 2300 2841 2188 
z
M 1259 4147 
L 1259 2491 
L 2053 2491 
Q 2509 2491 2742 2702 
Q 2975 2913 2975 3322 
Q 2975 3731 2742 3939 
Q 2509 4147 2053 4147 
L 1259 4147 
z
" transform="scale(0.015625)"/>
      <path id="DejaVuSans-3a" d="M 750 794 
L 1409 794 
L 1409 0 
L 750 0 
L 750 794 
z
M 750 3309 
L 1409 3309 
L 1409 2516 
L 750 2516 
L 750 3309 
z
" transform="scale(0.015625)"/>
     </defs>
     <use xlink:href="#DejaVuSans-33"/>
     <use xlink:href="#DejaVuSans-31" x="63.623047"/>
     <use xlink:href="#DejaVuSans-20" x="127.246094"/>
     <use xlink:href="#DejaVuSans-74" x="159.033203"/>
     <use xlink:href="#DejaVuSans-61" x="198.242188"/>
     <use xlink:href="#DejaVuSans-72" x="259.521484"/>
     <use xlink:href="#DejaVuSans-67" x="298.884766"/>
     <use xlink:href="#DejaVuSans-65" x="362.361328"/>
     <use xlink:href="#DejaVuSans-74" x="423.884766"/>
     <use xlink:href="#DejaVuSans-73" x="463.09375"/>
     <use xlink:href="#DejaVuSans-20" x="515.193359"/>
     <use xlink:href="#DejaVuSans-52" x="546.980469"/>
     <use xlink:href="#DejaVuSans-4c" x="616.462891"/>
     <use xlink:href="#DejaVuSans-73" x="672.175781"/>
     <use xlink:href="#DejaVuSans-2f" x="724.275391"/>
     <use xlink:href="#DejaVuSans-64" x="757.966797"/>
     <use xlink:href="#DejaVuSans-69" x="821.443359"/>
     <use xlink:href="#DejaVuSans-6d" x="849.226562"/>
     <use xlink:href="#DejaVuSans-3a" x="946.638672"/>
     <use xlink:href="#DejaVuSans-20" x="980.330078"/>
     <use xlink:href="#DejaVuSans-30" x="1012.117188"/>
     <use xlink:href="#DejaVuSans-2e" x="1075.740234"/>
     <use xlink:href="#DejaVuSans-35" x="1107.527344"/>
     <use xlink:href="#DejaVuSans-2e" x="1171.150391"/>
     <use xlink:href="#DejaVuSans-2e" x="1202.9375"/>
     <use xlink:href="#DejaVuSans-35" x="1234.724609"/>
     <use xlink:href="#DejaVuSans-30" x="1298.347656"/>
    </g>
    <!--   from refalgs/best2016-bbob-biobj.tar.gz -->
    <g transform="translate(60.632064 40.426264) scale(0.102 -0.102)">
     <defs>
      <path id="DejaVuSans-7a" d="M 353 3500 
L 3084 3500 
L 3084 2975 
L 922 459 
L 3084 459 
L 3084 0 
L 275 0 
L 275 525 
L 2438 3041 
L 353 3041 
L 353 3500 
z
" transform="scale(0.015625)"/>
     </defs>
     <use xlink:href="#DejaVuSans-20"/>
     <use xlink:href="#DejaVuSans-20" x="31.787109"/>
     <use xlink:href="#DejaVuSans-66" x="63.574219"/>
     <use xlink:href="#DejaVuSans-72" x="98.779297"/>
     <use xlink:href="#DejaVuSans-6f" x="137.642578"/>
     <use xlink:href="#DejaVuSans-6d" x="198.824219"/>
     <use xlink:href="#DejaVuSans-20" x="296.236328"/>
     <use xlink:href="#DejaVuSans-72" x="328.023438"/>
     <use xlink:href="#DejaVuSans-65" x="366.886719"/>
     <use xlink:href="#DejaVuSans-66" x="428.410156"/>
     <use xlink:href="#DejaVuSans-61" x="463.615234"/>
     <use xlink:href="#DejaVuSans-6c" x="524.894531"/>
     <use xlink:href="#DejaVuSans-67" x="552.677734"/>
     <use xlink:href="#DejaVuSans-73" x="616.154297"/>
     <use xlink:href="#DejaVuSans-2f" x="668.253906"/>
     <use xlink:href="#DejaVuSans-62" x="701.945312"/>
     <use xlink:href="#DejaVuSans-65" x="765.421875"/>
     <use xlink:href="#DejaVuSans-73" x="826.945312"/>
     <use xlink:href="#DejaVuSans-74" x="879.044922"/>
     <use xlink:href="#DejaVuSans-32" x="918.253906"/>
     <use xlink:href="#DejaVuSans-30" x="981.876953"/>
     <use xlink:href="#DejaVuSans-31" x="1045.5"/>
     <use xlink:href="#DejaVuSans-36" x="1109.123047"/>
     <use xlink:href="#DejaVuSans-2d" x="1172.746094"/>
     <use xlink:href="#DejaVuSans-62" x="1208.830078"/>
     <use xlink:href="#DejaVuSans-62" x="1272.306641"/>
     <use xlink:href="#DejaVuSans-6f" x="1335.783203"/>
     <use xlink:href="#DejaVuSans-62" x="1396.964844"/>
     <use xlink:href="#DejaVuSans-2d" x="1460.441406"/>
     <use xlink:href="#DejaVuSans-62" x="1496.525391"/>
     <use xlink:href="#DejaVuSans-69" x="1560.001953"/>
     <use xlink:href="#DejaVuSans-6f" x="1587.785156"/>
     <use xlink:href="#DejaVuSans-62" x="1648.966797"/>
     <use xlink:href="#DejaVuSans-6a" x="1712.443359"/>
     <use xlink:href="#DejaVuSans-2e" x="1740.226562"/>
     <use xlink:href="#DejaVuSans-74" x="1772.013672"/>
     <use xlink:href="#DejaVuSans-61" x="1811.222656"/>
     <use xlink:href="#DejaVuSans-72" x="1872.501953"/>
     <use xlink:href="#DejaVuSans-2e" x="1904.490234"/>
     <use xlink:href="#DejaVuSans-67" x="1936.277344"/>
     <use xlink:href="#DejaVuSans-7a" x="1999.753906"/>
    </g>
    <!-- 10 instances -->
    <g transform="translate(60.632064 51.848032) scale(0.102 -0.102)">
     <use xlink:href="#DejaVuSans-31"/>
     <use xlink:href="#DejaVuSans-30" x="63.623047"/>
     <use xlink:href="#DejaVuSans-20" x="127.246094"/>
     <use xlink:href="#DejaVuSans-69" x="159.033203"/>
     <use xlink:href="#DejaVuSans-6e" x="186.816406"/>
     <use xlink:href="#DejaVuSans-73" x="250.195312"/>
     <use xlink:href="#DejaVuSans-74" x="302.294922"/>
     <use xlink:href="#DejaVuSans-61" x="341.503906"/>
     <use xlink:href="#DejaVuSans-6e" x="402.783203"/>
     <use xlink:href="#DejaVuSans-63" x="466.162109"/>
     <use xlink:href="#DejaVuSans-65" x="521.142578"/>
     <use xlink:href="#DejaVuSans-73" x="582.666016"/>
    </g>
   </g>
   <g id="text_18">
    <!-- v2.6, hv-hash=ff0e71e8cd978373 -->
    <g style="fill: #808080" transform="translate(123.707887 293.943992) scale(0.1 -0.1)">
     <defs>
      <path id="DejaVuSans-68" d="M 3513 2113 
L 3513 0 
L 2938 0 
L 2938 2094 
Q 2938 2591 2744 2837 
Q 2550 3084 2163 3084 
Q 1697 3084 1428 2787 
Q 1159 2491 1159 1978 
L 1159 0 
L 581 0 
L 581 4863 
L 1159 4863 
L 1159 2956 
Q 1366 3272 1645 3428 
Q 1925 3584 2291 3584 
Q 2894 3584 3203 3211 
Q 3513 2838 3513 2113 
z
" transform="scale(0.015625)"/>
      <path id="DejaVuSans-3d" d="M 678 2906 
L 4684 2906 
L 4684 2381 
L 678 2381 
L 678 2906 
z
M 678 1631 
L 4684 1631 
L 4684 1100 
L 678 1100 
L 678 1631 
z
" transform="scale(0.015625)"/>
      <path id="DejaVuSans-39" d="M 703 97 
L 703 672 
Q 941 559 1184 500 
Q 1428 441 1663 441 
Q 2288 441 2617 861 
Q 2947 1281 2994 2138 
Q 2813 1869 2534 1725 
Q 2256 1581 1919 1581 
Q 1219 1581 811 2004 
Q 403 2428 403 3163 
Q 403 3881 828 4315 
Q 1253 4750 1959 4750 
Q 2769 4750 3195 4129 
Q 3622 3509 3622 2328 
Q 3622 1225 3098 567 
Q 2575 -91 1691 -91 
Q 1453 -91 1209 -44 
Q 966 3 703 97 
z
M 1959 2075 
Q 2384 2075 2632 2365 
Q 2881 2656 2881 3163 
Q 2881 3666 2632 3958 
Q 2384 4250 1959 4250 
Q 1534 4250 1286 3958 
Q 1038 3666 1038 3163 
Q 1038 2656 1286 2365 
Q 1534 2075 1959 2075 
z
" transform="scale(0.015625)"/>
     </defs>
     <use xlink:href="#DejaVuSans-76"/>
     <use xlink:href="#DejaVuSans-32" x="59.179688"/>
     <use xlink:href="#DejaVuSans-2e" x="122.802734"/>
     <use xlink:href="#DejaVuSans-36" x="154.589844"/>
     <use xlink:href="#DejaVuSans-2c" x="218.212891"/>
     <use xlink:href="#DejaVuSans-20" x="250"/>
     <use xlink:href="#DejaVuSans-68" x="281.787109"/>
     <use xlink:href="#DejaVuSans-76" x="345.166016"/>
     <use xlink:href="#DejaVuSans-2d" x="401.720703"/>
     <use xlink:href="#DejaVuSans-68" x="437.804688"/>
     <use xlink:href="#DejaVuSans-61" x="501.183594"/>
     <use xlink:href="#DejaVuSans-73" x="562.462891"/>
     <use xlink:href="#DejaVuSans-68" x="614.5625"/>
     <use xlink:href="#DejaVuSans-3d" x="677.941406"/>
     <use xlink:href="#DejaVuSans-66" x="761.730469"/>
     <use xlink:href="#DejaVuSans-66" x="796.935547"/>
     <use xlink:href="#DejaVuSans-30" x="832.140625"/>
     <use xlink:href="#DejaVuSans-65" x="895.763672"/>
     <use xlink:href="#DejaVuSans-37" x="957.287109"/>
     <use xlink:href="#DejaVuSans-31" x="1020.910156"/>
     <use xlink:href="#DejaVuSans-65" x="1084.533203"/>
     <use xlink:href="#DejaVuSans-38" x="1146.056641"/>
     <use xlink:href="#DejaVuSans-63" x="1209.679688"/>
     <use xlink:href="#DejaVuSans-64" x="1264.660156"/>
     <use xlink:href="#DejaVuSans-39" x="1328.136719"/>
     <use xlink:href="#DejaVuSans-37" x="1391.759766"/>
     <use xlink:href="#DejaVuSans-38" x="1455.382812"/>
     <use xlink:href="#DejaVuSans-33" x="1519.005859"/>
     <use xlink:href="#DejaVuSans-37" x="1582.628906"/>
     <use xlink:href="#DejaVuSans-33" x="1646.251953"/>
    </g>
   </g>
  </g>
 </g>
 <defs>
  <clipPath id="pbb7edbf1dc">
   <rect x="57.6" y="6.912" width="303.2064" height="292.032"/>
  </clipPath>
 </defs>
</svg>
